<?xml version="1.0" encoding="utf-8" standalone="no"?>
<!DOCTYPE svg PUBLIC "-//W3C//DTD SVG 1.1//EN"
  "http://www.w3.org/Graphics/SVG/1.1/DTD/svg11.dtd">
<svg height="360pt" version="1.1" viewBox="0 0 576 360" width="576pt" xmlns="http://www.w3.org/2000/svg" xmlns:xlink="http://www.w3.org/1999/xlink">
 <metadata>
  <rdf:RDF xmlns:cc="http://creativecommons.org/ns#" xmlns:dc="http://purl.org/dc/elements/1.1/" xmlns:rdf="http://www.w3.org/1999/02/22-rdf-syntax-ns#">
   <cc:Work>
    <dc:type rdf:resource="http://purl.org/dc/dcmitype/StillImage"/>
    <dc:date>2022-06-30T14:21:53.809060</dc:date>
    <dc:format>image/svg+xml</dc:format>
    <dc:creator>
     <cc:Agent>
      <dc:title>Matplotlib v3.4.3, https://matplotlib.org/</dc:title>
     </cc:Agent>
    </dc:creator>
   </cc:Work>
  </rdf:RDF>
 </metadata>
 <defs>
  <style type="text/css">*{stroke-linecap:butt;stroke-linejoin:round;}</style>
 </defs>
 <g id="figure_1">
  <g id="patch_1">
   <path d="M 0 360 
L 576 360 
L 576 0 
L 0 0 
z
" style="fill:#ffffff;"/>
  </g>
  <g id="axes_1">
   <g id="patch_2">
    <path d="M 72 320.4 
L 518.4 320.4 
L 518.4 43.2 
L 72 43.2 
z
" style="fill:#ffffff;"/>
   </g>
   <g id="PolyCollection_1">
    <defs>
     <path d="M 72 -149.761607 
L 72 -153.808775 
L 72.790088 -153.808775 
L 73.580177 -153.808775 
L 74.370265 -153.808775 
L 75.160354 -153.808775 
L 75.950442 -153.808775 
L 76.740531 -153.808775 
L 77.530619 -153.808775 
L 78.320708 -153.808775 
L 79.110796 -153.808775 
L 79.900885 -153.808775 
L 80.690973 -153.808775 
L 81.481062 -153.808775 
L 82.27115 -153.808775 
L 83.061239 -153.808775 
L 83.851327 -153.808775 
L 84.641416 -153.808775 
L 85.431504 -153.808775 
L 86.221593 -153.808775 
L 87.011681 -153.808775 
L 87.80177 -153.808775 
L 88.591858 -153.808775 
L 89.381947 -153.808775 
L 90.172035 -153.808775 
L 90.962124 -153.808775 
L 91.752212 -153.808775 
L 92.542301 -153.808775 
L 93.332389 -153.808775 
L 94.122478 -153.808775 
L 94.912566 -153.808775 
L 95.702655 -153.808775 
L 96.492743 -153.808775 
L 97.282832 -153.808775 
L 98.07292 -153.808775 
L 98.863009 -153.808775 
L 99.653097 -153.808775 
L 100.443186 -153.808775 
L 101.233274 -153.808775 
L 102.023363 -153.808775 
L 102.813451 -153.808775 
L 103.60354 -153.808775 
L 104.393628 -153.808775 
L 105.183717 -153.808775 
L 105.973805 -153.808775 
L 106.763894 -153.808775 
L 107.553982 -153.808775 
L 108.344071 -153.808775 
L 109.134159 -153.808775 
L 109.924248 -153.808775 
L 110.714336 -153.808775 
L 111.504425 -153.808775 
L 112.294513 -153.808775 
L 113.084602 -153.808775 
L 113.87469 -153.808775 
L 114.664779 -153.808775 
L 115.454867 -153.808775 
L 116.244956 -153.808775 
L 117.035044 -153.808775 
L 117.825133 -153.808775 
L 118.615221 -153.808775 
L 119.40531 -153.808775 
L 120.195398 -153.808775 
L 120.985487 -153.808775 
L 121.775575 -153.808775 
L 122.565664 -153.808775 
L 123.355752 -153.808775 
L 124.145841 -153.808775 
L 124.935929 -153.808775 
L 125.726018 -153.808775 
L 126.516106 -153.808775 
L 127.306195 -153.808775 
L 128.096283 -153.808775 
L 128.886372 -153.808775 
L 129.67646 -153.808775 
L 130.466549 -153.808775 
L 131.256637 -153.808775 
L 132.046726 -153.808775 
L 132.836814 -153.808775 
L 133.626903 -153.808775 
L 134.416991 -153.808775 
L 135.20708 -153.808775 
L 135.997168 -153.808775 
L 136.787257 -153.808775 
L 137.577345 -153.808775 
L 138.367434 -153.808775 
L 139.157522 -153.808775 
L 139.947611 -153.808775 
L 140.737699 -153.808775 
L 141.527788 -153.808775 
L 142.317876 -153.808775 
L 143.107965 -153.808775 
L 143.898053 -153.808775 
L 144.688142 -153.808775 
L 145.47823 -153.808775 
L 146.268319 -153.808775 
L 147.058407 -153.808775 
L 147.848496 -153.808775 
L 148.638584 -153.808775 
L 149.428673 -153.808775 
L 150.218761 -153.808775 
L 151.00885 -153.808775 
L 151.798938 -153.808775 
L 152.589027 -153.808775 
L 153.379115 -153.808775 
L 154.169204 -153.808775 
L 154.959292 -153.808775 
L 155.749381 -153.808775 
L 156.539469 -153.808775 
L 157.329558 -153.808775 
L 158.119646 -153.808775 
L 158.909735 -153.808775 
L 159.699823 -153.808775 
L 160.489912 -153.808775 
L 161.28 -153.808775 
L 162.070088 -153.808775 
L 162.860177 -153.808775 
L 163.650265 -153.808775 
L 164.440354 -153.808775 
L 165.230442 -153.808775 
L 166.020531 -153.808775 
L 166.810619 -153.808775 
L 167.600708 -153.808775 
L 168.390796 -153.808775 
L 169.180885 -153.808775 
L 169.970973 -153.808775 
L 170.761062 -153.808775 
L 171.55115 -153.808775 
L 172.341239 -153.808775 
L 173.131327 -153.808775 
L 173.921416 -153.808775 
L 174.711504 -153.808775 
L 175.501593 -153.808775 
L 176.291681 -153.808775 
L 177.08177 -153.808775 
L 177.871858 -153.808775 
L 178.661947 -153.808775 
L 179.452035 -153.808775 
L 180.242124 -153.808775 
L 181.032212 -153.808775 
L 181.822301 -153.808775 
L 182.612389 -153.808775 
L 183.402478 -153.808775 
L 184.192566 -153.808775 
L 184.982655 -153.808775 
L 185.772743 -153.808775 
L 186.562832 -153.808775 
L 187.35292 -153.808775 
L 188.143009 -153.808775 
L 188.933097 -153.808775 
L 189.723186 -153.808775 
L 190.513274 -153.808775 
L 191.303363 -153.808775 
L 192.093451 -153.808775 
L 192.88354 -153.808775 
L 193.673628 -153.808775 
L 194.463717 -153.808775 
L 195.253805 -153.808775 
L 196.043894 -153.808775 
L 196.833982 -153.808775 
L 197.624071 -153.808775 
L 198.414159 -153.808775 
L 199.204248 -153.808775 
L 199.994336 -153.808775 
L 200.784425 -153.808775 
L 201.574513 -153.808775 
L 202.364602 -153.808775 
L 203.15469 -153.808775 
L 203.944779 -153.808775 
L 204.734867 -153.808775 
L 205.524956 -153.808775 
L 206.315044 -153.808775 
L 207.105133 -153.808775 
L 207.895221 -153.808775 
L 208.68531 -153.808775 
L 209.475398 -153.808775 
L 210.265487 -153.808775 
L 211.055575 -153.808775 
L 211.845664 -153.808775 
L 212.635752 -153.808775 
L 213.425841 -153.808775 
L 214.215929 -153.808775 
L 215.006018 -153.808775 
L 215.796106 -153.808775 
L 216.586195 -153.808775 
L 217.376283 -153.808775 
L 218.166372 -153.808775 
L 218.95646 -153.808775 
L 219.746549 -153.808775 
L 220.536637 -153.808775 
L 221.326726 -153.808775 
L 222.116814 -153.808775 
L 222.906903 -153.808775 
L 223.696991 -153.808775 
L 224.48708 -153.808775 
L 225.277168 -153.808775 
L 226.067257 -153.808775 
L 226.857345 -153.808775 
L 227.647434 -153.808775 
L 228.437522 -153.808775 
L 229.227611 -153.808775 
L 230.017699 -153.808775 
L 230.807788 -153.808775 
L 231.597876 -153.808775 
L 232.387965 -153.808775 
L 233.178053 -153.808775 
L 233.968142 -153.808775 
L 234.75823 -153.808775 
L 235.548319 -153.808775 
L 236.338407 -153.808775 
L 237.128496 -153.808775 
L 237.918584 -153.808775 
L 238.708673 -153.808775 
L 239.498761 -153.808775 
L 240.28885 -153.808775 
L 241.078938 -153.808775 
L 241.869027 -153.808775 
L 242.659115 -153.808775 
L 243.449204 -153.808775 
L 244.239292 -153.808775 
L 245.029381 -153.808775 
L 245.819469 -153.808775 
L 246.609558 -153.808775 
L 247.399646 -153.808775 
L 248.189735 -153.808775 
L 248.979823 -153.808775 
L 249.769912 -153.808775 
L 250.56 -153.808775 
L 251.350088 -153.808775 
L 252.140177 -153.808775 
L 252.930265 -153.808775 
L 253.720354 -153.808775 
L 254.510442 -153.808775 
L 255.300531 -153.808775 
L 256.090619 -153.808775 
L 256.880708 -153.808775 
L 257.670796 -153.808775 
L 258.460885 -153.808775 
L 259.250973 -153.808775 
L 260.041062 -153.808775 
L 260.83115 -153.808775 
L 261.621239 -153.808775 
L 262.411327 -153.808775 
L 263.201416 -153.808775 
L 263.991504 -153.808775 
L 264.781593 -153.808775 
L 265.571681 -153.808775 
L 266.36177 -153.808775 
L 267.151858 -153.808775 
L 267.941947 -153.808775 
L 268.732035 -153.808775 
L 269.522124 -153.808775 
L 270.312212 -153.808775 
L 271.102301 -153.808775 
L 271.892389 -153.808775 
L 272.682478 -153.808775 
L 273.472566 -153.808775 
L 274.262655 -153.808775 
L 275.052743 -153.808775 
L 275.842832 -153.808775 
L 276.63292 -153.808775 
L 277.423009 -153.808775 
L 278.213097 -153.808775 
L 279.003186 -153.808775 
L 279.793274 -153.808775 
L 280.583363 -153.808775 
L 281.373451 -153.808775 
L 282.16354 -153.808775 
L 282.953628 -153.808775 
L 283.743717 -153.808775 
L 284.533805 -153.808775 
L 285.323894 -153.808775 
L 286.113982 -153.808775 
L 286.904071 -153.808775 
L 287.694159 -153.808775 
L 288.484248 -153.808775 
L 289.274336 -153.808775 
L 290.064425 -153.808775 
L 290.854513 -153.808775 
L 291.644602 -153.808775 
L 292.43469 -153.808775 
L 293.224779 -153.808775 
L 294.014867 -153.808775 
L 294.804956 -153.808775 
L 295.595044 -153.808775 
L 296.385133 -153.808775 
L 297.175221 -153.808775 
L 297.96531 -153.808775 
L 298.755398 -153.808775 
L 299.545487 -153.808775 
L 300.335575 -153.808775 
L 301.125664 -153.808775 
L 301.915752 -153.808775 
L 302.705841 -153.808775 
L 303.495929 -153.808775 
L 304.286018 -153.808775 
L 305.076106 -153.808775 
L 305.866195 -153.808775 
L 306.656283 -153.808775 
L 307.446372 -153.808775 
L 308.23646 -153.808775 
L 309.026549 -153.808775 
L 309.816637 -153.808775 
L 310.606726 -153.808775 
L 311.396814 -153.808775 
L 312.186903 -153.808775 
L 312.976991 -153.808775 
L 313.76708 -153.808775 
L 314.557168 -153.808775 
L 315.347257 -153.808775 
L 316.137345 -153.808775 
L 316.927434 -153.808775 
L 317.717522 -153.808775 
L 318.507611 -153.808775 
L 319.297699 -153.808775 
L 320.087788 -153.808775 
L 320.877876 -153.808775 
L 321.667965 -153.808775 
L 322.458053 -153.808775 
L 323.248142 -153.808775 
L 324.03823 -153.808775 
L 324.828319 -153.808775 
L 325.618407 -153.808775 
L 326.408496 -153.808775 
L 327.198584 -153.808775 
L 327.988673 -153.808775 
L 328.778761 -153.808775 
L 329.56885 -153.808775 
L 330.358938 -153.808775 
L 331.149027 -153.808775 
L 331.939115 -153.808775 
L 332.729204 -153.808775 
L 333.519292 -153.808775 
L 334.309381 -153.808775 
L 335.099469 -153.808775 
L 335.889558 -153.808775 
L 336.679646 -153.808775 
L 337.469735 -153.808775 
L 338.259823 -153.808775 
L 339.049912 -153.808775 
L 339.84 -153.808775 
L 340.630088 -153.808775 
L 341.420177 -153.808775 
L 342.210265 -153.808775 
L 343.000354 -153.808775 
L 343.790442 -153.808775 
L 344.580531 -153.808775 
L 345.370619 -153.808775 
L 346.160708 -153.808775 
L 346.950796 -153.808775 
L 347.740885 -153.808775 
L 348.530973 -153.808775 
L 349.321062 -153.808775 
L 350.11115 -153.808775 
L 350.901239 -153.808775 
L 351.691327 -153.808775 
L 352.481416 -153.808775 
L 353.271504 -153.808775 
L 354.061593 -153.808775 
L 354.851681 -153.808775 
L 355.64177 -153.808775 
L 356.431858 -153.808775 
L 357.221947 -153.808775 
L 358.012035 -153.808775 
L 358.802124 -153.808775 
L 359.592212 -153.808775 
L 360.382301 -153.808775 
L 361.172389 -153.808775 
L 361.962478 -153.808775 
L 362.752566 -153.808775 
L 363.542655 -153.808775 
L 364.332743 -153.808775 
L 365.122832 -153.808775 
L 365.91292 -153.808775 
L 366.703009 -153.808775 
L 367.493097 -153.808775 
L 368.283186 -153.808775 
L 369.073274 -153.808775 
L 369.863363 -153.808775 
L 370.653451 -153.808775 
L 371.44354 -153.808775 
L 372.233628 -153.808775 
L 373.023717 -153.808775 
L 373.813805 -153.808775 
L 374.603894 -153.808775 
L 375.393982 -153.808775 
L 376.184071 -153.808775 
L 376.974159 -153.808775 
L 377.764248 -153.808775 
L 378.554336 -153.808775 
L 379.344425 -153.808775 
L 380.134513 -153.808775 
L 380.924602 -153.808775 
L 381.71469 -153.808775 
L 382.504779 -153.808775 
L 383.294867 -153.808775 
L 384.084956 -153.808775 
L 384.875044 -153.808775 
L 385.665133 -153.808775 
L 386.455221 -153.808775 
L 387.24531 -153.808775 
L 388.035398 -153.808775 
L 388.825487 -153.808775 
L 389.615575 -153.808775 
L 390.405664 -153.808775 
L 391.195752 -153.808775 
L 391.985841 -153.808775 
L 392.775929 -153.808775 
L 393.566018 -153.808775 
L 394.356106 -153.808775 
L 395.146195 -153.808775 
L 395.936283 -153.808775 
L 396.726372 -153.808775 
L 397.51646 -153.808775 
L 398.306549 -153.808775 
L 399.096637 -153.808775 
L 399.886726 -153.808775 
L 400.676814 -153.808775 
L 401.466903 -153.808775 
L 402.256991 -153.808775 
L 403.04708 -153.808775 
L 403.837168 -153.808775 
L 404.627257 -153.808775 
L 405.417345 -153.808775 
L 406.207434 -153.808775 
L 406.997522 -153.808775 
L 407.787611 -153.808775 
L 408.577699 -153.808775 
L 409.367788 -153.808775 
L 410.157876 -153.808775 
L 410.947965 -153.808775 
L 411.738053 -153.808775 
L 412.528142 -153.808775 
L 413.31823 -153.808775 
L 414.108319 -153.808775 
L 414.898407 -153.808775 
L 415.688496 -153.808775 
L 416.478584 -153.808775 
L 417.268673 -153.808775 
L 418.058761 -153.808775 
L 418.84885 -153.808775 
L 419.638938 -153.808775 
L 420.429027 -153.808775 
L 421.219115 -153.808775 
L 422.009204 -153.808775 
L 422.799292 -153.808775 
L 423.589381 -153.808775 
L 424.379469 -153.808775 
L 425.169558 -153.808775 
L 425.959646 -153.808775 
L 426.749735 -153.808775 
L 427.539823 -153.808775 
L 428.329912 -153.808775 
L 429.12 -153.808775 
L 429.910088 -153.808775 
L 430.700177 -153.808775 
L 431.490265 -153.808775 
L 432.280354 -153.808775 
L 433.070442 -153.808775 
L 433.860531 -153.808775 
L 434.650619 -153.808775 
L 435.440708 -153.808775 
L 436.230796 -153.808775 
L 437.020885 -153.808775 
L 437.810973 -153.808775 
L 438.601062 -153.808775 
L 439.39115 -153.808775 
L 440.181239 -153.808775 
L 440.971327 -153.808775 
L 441.761416 -153.808775 
L 442.551504 -153.808775 
L 443.341593 -153.808775 
L 444.131681 -153.808775 
L 444.92177 -153.808775 
L 445.711858 -153.808775 
L 446.501947 -153.808775 
L 447.292035 -153.808775 
L 448.082124 -153.808775 
L 448.872212 -153.808775 
L 449.662301 -153.808775 
L 450.452389 -153.808775 
L 451.242478 -153.808775 
L 452.032566 -153.808775 
L 452.822655 -153.808775 
L 453.612743 -153.808775 
L 454.402832 -153.808775 
L 455.19292 -153.808775 
L 455.983009 -153.808775 
L 456.773097 -153.808775 
L 457.563186 -153.808775 
L 458.353274 -153.808775 
L 459.143363 -153.808775 
L 459.933451 -153.808775 
L 460.72354 -153.808775 
L 461.513628 -153.808775 
L 462.303717 -153.808775 
L 463.093805 -153.808775 
L 463.883894 -153.808775 
L 464.673982 -153.808775 
L 465.464071 -153.808775 
L 466.254159 -153.808775 
L 467.044248 -153.808775 
L 467.834336 -153.808775 
L 468.624425 -153.808775 
L 469.414513 -153.808775 
L 470.204602 -153.808775 
L 470.99469 -153.808775 
L 471.784779 -153.808775 
L 472.574867 -153.808775 
L 473.364956 -153.808775 
L 474.155044 -153.808775 
L 474.945133 -153.808775 
L 475.735221 -153.808775 
L 476.52531 -153.808775 
L 477.315398 -153.808775 
L 478.105487 -153.808775 
L 478.895575 -153.808775 
L 479.685664 -153.808775 
L 480.475752 -153.808775 
L 481.265841 -153.808775 
L 482.055929 -153.808775 
L 482.846018 -153.808775 
L 483.636106 -153.808775 
L 484.426195 -153.808775 
L 485.216283 -153.808775 
L 486.006372 -153.808775 
L 486.79646 -153.808775 
L 487.586549 -153.808775 
L 488.376637 -153.808775 
L 489.166726 -153.808775 
L 489.956814 -153.808775 
L 490.746903 -153.808775 
L 491.536991 -153.808775 
L 492.32708 -153.808775 
L 493.117168 -153.808775 
L 493.907257 -153.808775 
L 494.697345 -153.808775 
L 495.487434 -153.808775 
L 496.277522 -153.808775 
L 497.067611 -153.808775 
L 497.857699 -153.808775 
L 498.647788 -153.808775 
L 499.437876 -153.808775 
L 500.227965 -153.808775 
L 501.018053 -153.808775 
L 501.808142 -153.808775 
L 502.59823 -153.808775 
L 503.388319 -153.808775 
L 504.178407 -153.808775 
L 504.968496 -153.808775 
L 505.758584 -153.808775 
L 506.548673 -153.808775 
L 507.338761 -153.808775 
L 508.12885 -153.808775 
L 508.918938 -153.808775 
L 509.709027 -153.808775 
L 510.499115 -153.808775 
L 511.289204 -153.808775 
L 512.079292 -153.808775 
L 512.869381 -153.808775 
L 513.659469 -153.808775 
L 514.449558 -153.808775 
L 515.239646 -153.808775 
L 516.029735 -153.808775 
L 516.819823 -153.808775 
L 517.609912 -153.808775 
L 518.4 -153.808775 
L 518.4 -149.761607 
L 518.4 -149.761607 
L 517.609912 -149.761607 
L 516.819823 -149.761607 
L 516.029735 -149.761607 
L 515.239646 -149.761607 
L 514.449558 -149.761607 
L 513.659469 -149.761607 
L 512.869381 -149.761607 
L 512.079292 -149.761607 
L 511.289204 -149.761607 
L 510.499115 -149.761607 
L 509.709027 -149.761607 
L 508.918938 -149.761607 
L 508.12885 -149.761607 
L 507.338761 -149.761607 
L 506.548673 -149.761607 
L 505.758584 -149.761607 
L 504.968496 -149.761607 
L 504.178407 -149.761607 
L 503.388319 -149.761607 
L 502.59823 -149.761607 
L 501.808142 -149.761607 
L 501.018053 -149.761607 
L 500.227965 -149.761607 
L 499.437876 -149.761607 
L 498.647788 -149.761607 
L 497.857699 -149.761607 
L 497.067611 -149.761607 
L 496.277522 -149.761607 
L 495.487434 -149.761607 
L 494.697345 -149.761607 
L 493.907257 -149.761607 
L 493.117168 -149.761607 
L 492.32708 -149.761607 
L 491.536991 -149.761607 
L 490.746903 -149.761607 
L 489.956814 -149.761607 
L 489.166726 -149.761607 
L 488.376637 -149.761607 
L 487.586549 -149.761607 
L 486.79646 -149.761607 
L 486.006372 -149.761607 
L 485.216283 -149.761607 
L 484.426195 -149.761607 
L 483.636106 -149.761607 
L 482.846018 -149.761607 
L 482.055929 -149.761607 
L 481.265841 -149.761607 
L 480.475752 -149.761607 
L 479.685664 -149.761607 
L 478.895575 -149.761607 
L 478.105487 -149.761607 
L 477.315398 -149.761607 
L 476.52531 -149.761607 
L 475.735221 -149.761607 
L 474.945133 -149.761607 
L 474.155044 -149.761607 
L 473.364956 -149.761607 
L 472.574867 -149.761607 
L 471.784779 -149.761607 
L 470.99469 -149.761607 
L 470.204602 -149.761607 
L 469.414513 -149.761607 
L 468.624425 -149.761607 
L 467.834336 -149.761607 
L 467.044248 -149.761607 
L 466.254159 -149.761607 
L 465.464071 -149.761607 
L 464.673982 -149.761607 
L 463.883894 -149.761607 
L 463.093805 -149.761607 
L 462.303717 -149.761607 
L 461.513628 -149.761607 
L 460.72354 -149.761607 
L 459.933451 -149.761607 
L 459.143363 -149.761607 
L 458.353274 -149.761607 
L 457.563186 -149.761607 
L 456.773097 -149.761607 
L 455.983009 -149.761607 
L 455.19292 -149.761607 
L 454.402832 -149.761607 
L 453.612743 -149.761607 
L 452.822655 -149.761607 
L 452.032566 -149.761607 
L 451.242478 -149.761607 
L 450.452389 -149.761607 
L 449.662301 -149.761607 
L 448.872212 -149.761607 
L 448.082124 -149.761607 
L 447.292035 -149.761607 
L 446.501947 -149.761607 
L 445.711858 -149.761607 
L 444.92177 -149.761607 
L 444.131681 -149.761607 
L 443.341593 -149.761607 
L 442.551504 -149.761607 
L 441.761416 -149.761607 
L 440.971327 -149.761607 
L 440.181239 -149.761607 
L 439.39115 -149.761607 
L 438.601062 -149.761607 
L 437.810973 -149.761607 
L 437.020885 -149.761607 
L 436.230796 -149.761607 
L 435.440708 -149.761607 
L 434.650619 -149.761607 
L 433.860531 -149.761607 
L 433.070442 -149.761607 
L 432.280354 -149.761607 
L 431.490265 -149.761607 
L 430.700177 -149.761607 
L 429.910088 -149.761607 
L 429.12 -149.761607 
L 428.329912 -149.761607 
L 427.539823 -149.761607 
L 426.749735 -149.761607 
L 425.959646 -149.761607 
L 425.169558 -149.761607 
L 424.379469 -149.761607 
L 423.589381 -149.761607 
L 422.799292 -149.761607 
L 422.009204 -149.761607 
L 421.219115 -149.761607 
L 420.429027 -149.761607 
L 419.638938 -149.761607 
L 418.84885 -149.761607 
L 418.058761 -149.761607 
L 417.268673 -149.761607 
L 416.478584 -149.761607 
L 415.688496 -149.761607 
L 414.898407 -149.761607 
L 414.108319 -149.761607 
L 413.31823 -149.761607 
L 412.528142 -149.761607 
L 411.738053 -149.761607 
L 410.947965 -149.761607 
L 410.157876 -149.761607 
L 409.367788 -149.761607 
L 408.577699 -149.761607 
L 407.787611 -149.761607 
L 406.997522 -149.761607 
L 406.207434 -149.761607 
L 405.417345 -149.761607 
L 404.627257 -149.761607 
L 403.837168 -149.761607 
L 403.04708 -149.761607 
L 402.256991 -149.761607 
L 401.466903 -149.761607 
L 400.676814 -149.761607 
L 399.886726 -149.761607 
L 399.096637 -149.761607 
L 398.306549 -149.761607 
L 397.51646 -149.761607 
L 396.726372 -149.761607 
L 395.936283 -149.761607 
L 395.146195 -149.761607 
L 394.356106 -149.761607 
L 393.566018 -149.761607 
L 392.775929 -149.761607 
L 391.985841 -149.761607 
L 391.195752 -149.761607 
L 390.405664 -149.761607 
L 389.615575 -149.761607 
L 388.825487 -149.761607 
L 388.035398 -149.761607 
L 387.24531 -149.761607 
L 386.455221 -149.761607 
L 385.665133 -149.761607 
L 384.875044 -149.761607 
L 384.084956 -149.761607 
L 383.294867 -149.761607 
L 382.504779 -149.761607 
L 381.71469 -149.761607 
L 380.924602 -149.761607 
L 380.134513 -149.761607 
L 379.344425 -149.761607 
L 378.554336 -149.761607 
L 377.764248 -149.761607 
L 376.974159 -149.761607 
L 376.184071 -149.761607 
L 375.393982 -149.761607 
L 374.603894 -149.761607 
L 373.813805 -149.761607 
L 373.023717 -149.761607 
L 372.233628 -149.761607 
L 371.44354 -149.761607 
L 370.653451 -149.761607 
L 369.863363 -149.761607 
L 369.073274 -149.761607 
L 368.283186 -149.761607 
L 367.493097 -149.761607 
L 366.703009 -149.761607 
L 365.91292 -149.761607 
L 365.122832 -149.761607 
L 364.332743 -149.761607 
L 363.542655 -149.761607 
L 362.752566 -149.761607 
L 361.962478 -149.761607 
L 361.172389 -149.761607 
L 360.382301 -149.761607 
L 359.592212 -149.761607 
L 358.802124 -149.761607 
L 358.012035 -149.761607 
L 357.221947 -149.761607 
L 356.431858 -149.761607 
L 355.64177 -149.761607 
L 354.851681 -149.761607 
L 354.061593 -149.761607 
L 353.271504 -149.761607 
L 352.481416 -149.761607 
L 351.691327 -149.761607 
L 350.901239 -149.761607 
L 350.11115 -149.761607 
L 349.321062 -149.761607 
L 348.530973 -149.761607 
L 347.740885 -149.761607 
L 346.950796 -149.761607 
L 346.160708 -149.761607 
L 345.370619 -149.761607 
L 344.580531 -149.761607 
L 343.790442 -149.761607 
L 343.000354 -149.761607 
L 342.210265 -149.761607 
L 341.420177 -149.761607 
L 340.630088 -149.761607 
L 339.84 -149.761607 
L 339.049912 -149.761607 
L 338.259823 -149.761607 
L 337.469735 -149.761607 
L 336.679646 -149.761607 
L 335.889558 -149.761607 
L 335.099469 -149.761607 
L 334.309381 -149.761607 
L 333.519292 -149.761607 
L 332.729204 -149.761607 
L 331.939115 -149.761607 
L 331.149027 -149.761607 
L 330.358938 -149.761607 
L 329.56885 -149.761607 
L 328.778761 -149.761607 
L 327.988673 -149.761607 
L 327.198584 -149.761607 
L 326.408496 -149.761607 
L 325.618407 -149.761607 
L 324.828319 -149.761607 
L 324.03823 -149.761607 
L 323.248142 -149.761607 
L 322.458053 -149.761607 
L 321.667965 -149.761607 
L 320.877876 -149.761607 
L 320.087788 -149.761607 
L 319.297699 -149.761607 
L 318.507611 -149.761607 
L 317.717522 -149.761607 
L 316.927434 -149.761607 
L 316.137345 -149.761607 
L 315.347257 -149.761607 
L 314.557168 -149.761607 
L 313.76708 -149.761607 
L 312.976991 -149.761607 
L 312.186903 -149.761607 
L 311.396814 -149.761607 
L 310.606726 -149.761607 
L 309.816637 -149.761607 
L 309.026549 -149.761607 
L 308.23646 -149.761607 
L 307.446372 -149.761607 
L 306.656283 -149.761607 
L 305.866195 -149.761607 
L 305.076106 -149.761607 
L 304.286018 -149.761607 
L 303.495929 -149.761607 
L 302.705841 -149.761607 
L 301.915752 -149.761607 
L 301.125664 -149.761607 
L 300.335575 -149.761607 
L 299.545487 -149.761607 
L 298.755398 -149.761607 
L 297.96531 -149.761607 
L 297.175221 -149.761607 
L 296.385133 -149.761607 
L 295.595044 -149.761607 
L 294.804956 -149.761607 
L 294.014867 -149.761607 
L 293.224779 -149.761607 
L 292.43469 -149.761607 
L 291.644602 -149.761607 
L 290.854513 -149.761607 
L 290.064425 -149.761607 
L 289.274336 -149.761607 
L 288.484248 -149.761607 
L 287.694159 -149.761607 
L 286.904071 -149.761607 
L 286.113982 -149.761607 
L 285.323894 -149.761607 
L 284.533805 -149.761607 
L 283.743717 -149.761607 
L 282.953628 -149.761607 
L 282.16354 -149.761607 
L 281.373451 -149.761607 
L 280.583363 -149.761607 
L 279.793274 -149.761607 
L 279.003186 -149.761607 
L 278.213097 -149.761607 
L 277.423009 -149.761607 
L 276.63292 -149.761607 
L 275.842832 -149.761607 
L 275.052743 -149.761607 
L 274.262655 -149.761607 
L 273.472566 -149.761607 
L 272.682478 -149.761607 
L 271.892389 -149.761607 
L 271.102301 -149.761607 
L 270.312212 -149.761607 
L 269.522124 -149.761607 
L 268.732035 -149.761607 
L 267.941947 -149.761607 
L 267.151858 -149.761607 
L 266.36177 -149.761607 
L 265.571681 -149.761607 
L 264.781593 -149.761607 
L 263.991504 -149.761607 
L 263.201416 -149.761607 
L 262.411327 -149.761607 
L 261.621239 -149.761607 
L 260.83115 -149.761607 
L 260.041062 -149.761607 
L 259.250973 -149.761607 
L 258.460885 -149.761607 
L 257.670796 -149.761607 
L 256.880708 -149.761607 
L 256.090619 -149.761607 
L 255.300531 -149.761607 
L 254.510442 -149.761607 
L 253.720354 -149.761607 
L 252.930265 -149.761607 
L 252.140177 -149.761607 
L 251.350088 -149.761607 
L 250.56 -149.761607 
L 249.769912 -149.761607 
L 248.979823 -149.761607 
L 248.189735 -149.761607 
L 247.399646 -149.761607 
L 246.609558 -149.761607 
L 245.819469 -149.761607 
L 245.029381 -149.761607 
L 244.239292 -149.761607 
L 243.449204 -149.761607 
L 242.659115 -149.761607 
L 241.869027 -149.761607 
L 241.078938 -149.761607 
L 240.28885 -149.761607 
L 239.498761 -149.761607 
L 238.708673 -149.761607 
L 237.918584 -149.761607 
L 237.128496 -149.761607 
L 236.338407 -149.761607 
L 235.548319 -149.761607 
L 234.75823 -149.761607 
L 233.968142 -149.761607 
L 233.178053 -149.761607 
L 232.387965 -149.761607 
L 231.597876 -149.761607 
L 230.807788 -149.761607 
L 230.017699 -149.761607 
L 229.227611 -149.761607 
L 228.437522 -149.761607 
L 227.647434 -149.761607 
L 226.857345 -149.761607 
L 226.067257 -149.761607 
L 225.277168 -149.761607 
L 224.48708 -149.761607 
L 223.696991 -149.761607 
L 222.906903 -149.761607 
L 222.116814 -149.761607 
L 221.326726 -149.761607 
L 220.536637 -149.761607 
L 219.746549 -149.761607 
L 218.95646 -149.761607 
L 218.166372 -149.761607 
L 217.376283 -149.761607 
L 216.586195 -149.761607 
L 215.796106 -149.761607 
L 215.006018 -149.761607 
L 214.215929 -149.761607 
L 213.425841 -149.761607 
L 212.635752 -149.761607 
L 211.845664 -149.761607 
L 211.055575 -149.761607 
L 210.265487 -149.761607 
L 209.475398 -149.761607 
L 208.68531 -149.761607 
L 207.895221 -149.761607 
L 207.105133 -149.761607 
L 206.315044 -149.761607 
L 205.524956 -149.761607 
L 204.734867 -149.761607 
L 203.944779 -149.761607 
L 203.15469 -149.761607 
L 202.364602 -149.761607 
L 201.574513 -149.761607 
L 200.784425 -149.761607 
L 199.994336 -149.761607 
L 199.204248 -149.761607 
L 198.414159 -149.761607 
L 197.624071 -149.761607 
L 196.833982 -149.761607 
L 196.043894 -149.761607 
L 195.253805 -149.761607 
L 194.463717 -149.761607 
L 193.673628 -149.761607 
L 192.88354 -149.761607 
L 192.093451 -149.761607 
L 191.303363 -149.761607 
L 190.513274 -149.761607 
L 189.723186 -149.761607 
L 188.933097 -149.761607 
L 188.143009 -149.761607 
L 187.35292 -149.761607 
L 186.562832 -149.761607 
L 185.772743 -149.761607 
L 184.982655 -149.761607 
L 184.192566 -149.761607 
L 183.402478 -149.761607 
L 182.612389 -149.761607 
L 181.822301 -149.761607 
L 181.032212 -149.761607 
L 180.242124 -149.761607 
L 179.452035 -149.761607 
L 178.661947 -149.761607 
L 177.871858 -149.761607 
L 177.08177 -149.761607 
L 176.291681 -149.761607 
L 175.501593 -149.761607 
L 174.711504 -149.761607 
L 173.921416 -149.761607 
L 173.131327 -149.761607 
L 172.341239 -149.761607 
L 171.55115 -149.761607 
L 170.761062 -149.761607 
L 169.970973 -149.761607 
L 169.180885 -149.761607 
L 168.390796 -149.761607 
L 167.600708 -149.761607 
L 166.810619 -149.761607 
L 166.020531 -149.761607 
L 165.230442 -149.761607 
L 164.440354 -149.761607 
L 163.650265 -149.761607 
L 162.860177 -149.761607 
L 162.070088 -149.761607 
L 161.28 -149.761607 
L 160.489912 -149.761607 
L 159.699823 -149.761607 
L 158.909735 -149.761607 
L 158.119646 -149.761607 
L 157.329558 -149.761607 
L 156.539469 -149.761607 
L 155.749381 -149.761607 
L 154.959292 -149.761607 
L 154.169204 -149.761607 
L 153.379115 -149.761607 
L 152.589027 -149.761607 
L 151.798938 -149.761607 
L 151.00885 -149.761607 
L 150.218761 -149.761607 
L 149.428673 -149.761607 
L 148.638584 -149.761607 
L 147.848496 -149.761607 
L 147.058407 -149.761607 
L 146.268319 -149.761607 
L 145.47823 -149.761607 
L 144.688142 -149.761607 
L 143.898053 -149.761607 
L 143.107965 -149.761607 
L 142.317876 -149.761607 
L 141.527788 -149.761607 
L 140.737699 -149.761607 
L 139.947611 -149.761607 
L 139.157522 -149.761607 
L 138.367434 -149.761607 
L 137.577345 -149.761607 
L 136.787257 -149.761607 
L 135.997168 -149.761607 
L 135.20708 -149.761607 
L 134.416991 -149.761607 
L 133.626903 -149.761607 
L 132.836814 -149.761607 
L 132.046726 -149.761607 
L 131.256637 -149.761607 
L 130.466549 -149.761607 
L 129.67646 -149.761607 
L 128.886372 -149.761607 
L 128.096283 -149.761607 
L 127.306195 -149.761607 
L 126.516106 -149.761607 
L 125.726018 -149.761607 
L 124.935929 -149.761607 
L 124.145841 -149.761607 
L 123.355752 -149.761607 
L 122.565664 -149.761607 
L 121.775575 -149.761607 
L 120.985487 -149.761607 
L 120.195398 -149.761607 
L 119.40531 -149.761607 
L 118.615221 -149.761607 
L 117.825133 -149.761607 
L 117.035044 -149.761607 
L 116.244956 -149.761607 
L 115.454867 -149.761607 
L 114.664779 -149.761607 
L 113.87469 -149.761607 
L 113.084602 -149.761607 
L 112.294513 -149.761607 
L 111.504425 -149.761607 
L 110.714336 -149.761607 
L 109.924248 -149.761607 
L 109.134159 -149.761607 
L 108.344071 -149.761607 
L 107.553982 -149.761607 
L 106.763894 -149.761607 
L 105.973805 -149.761607 
L 105.183717 -149.761607 
L 104.393628 -149.761607 
L 103.60354 -149.761607 
L 102.813451 -149.761607 
L 102.023363 -149.761607 
L 101.233274 -149.761607 
L 100.443186 -149.761607 
L 99.653097 -149.761607 
L 98.863009 -149.761607 
L 98.07292 -149.761607 
L 97.282832 -149.761607 
L 96.492743 -149.761607 
L 95.702655 -149.761607 
L 94.912566 -149.761607 
L 94.122478 -149.761607 
L 93.332389 -149.761607 
L 92.542301 -149.761607 
L 91.752212 -149.761607 
L 90.962124 -149.761607 
L 90.172035 -149.761607 
L 89.381947 -149.761607 
L 88.591858 -149.761607 
L 87.80177 -149.761607 
L 87.011681 -149.761607 
L 86.221593 -149.761607 
L 85.431504 -149.761607 
L 84.641416 -149.761607 
L 83.851327 -149.761607 
L 83.061239 -149.761607 
L 82.27115 -149.761607 
L 81.481062 -149.761607 
L 80.690973 -149.761607 
L 79.900885 -149.761607 
L 79.110796 -149.761607 
L 78.320708 -149.761607 
L 77.530619 -149.761607 
L 76.740531 -149.761607 
L 75.950442 -149.761607 
L 75.160354 -149.761607 
L 74.370265 -149.761607 
L 73.580177 -149.761607 
L 72.790088 -149.761607 
L 72 -149.761607 
z
" id="m1ade4cc4ad"/>
    </defs>
    <g clip-path="url(#p15810de09b)">
     <use style="fill-opacity:0.15;" x="0" xlink:href="#m1ade4cc4ad" y="360"/>
    </g>
   </g>
   <g id="matplotlib.axis_1">
    <g id="xtick_1">
     <g id="line2d_1">
      <defs>
       <path d="M 0 0 
L 0 3.5 
" id="mf5684f1d78" style="stroke:#000000;stroke-width:0.8;"/>
      </defs>
      <g>
       <use style="stroke:#000000;stroke-width:0.8;" x="72" xlink:href="#mf5684f1d78" y="320.4"/>
      </g>
     </g>
     <g id="text_1">
      <!-- 0.0 -->
      <g transform="translate(60.867812 338.037813)scale(0.14 -0.14)">
       <defs>
        <path d="M 2034 4250 
Q 1547 4250 1301 3770 
Q 1056 3291 1056 2328 
Q 1056 1369 1301 889 
Q 1547 409 2034 409 
Q 2525 409 2770 889 
Q 3016 1369 3016 2328 
Q 3016 3291 2770 3770 
Q 2525 4250 2034 4250 
z
M 2034 4750 
Q 2819 4750 3233 4129 
Q 3647 3509 3647 2328 
Q 3647 1150 3233 529 
Q 2819 -91 2034 -91 
Q 1250 -91 836 529 
Q 422 1150 422 2328 
Q 422 3509 836 4129 
Q 1250 4750 2034 4750 
z
" id="DejaVuSans-30" transform="scale(0.015625)"/>
        <path d="M 684 794 
L 1344 794 
L 1344 0 
L 684 0 
L 684 794 
z
" id="DejaVuSans-2e" transform="scale(0.015625)"/>
       </defs>
       <use xlink:href="#DejaVuSans-30"/>
       <use x="63.623047" xlink:href="#DejaVuSans-2e"/>
       <use x="95.410156" xlink:href="#DejaVuSans-30"/>
      </g>
     </g>
    </g>
    <g id="xtick_2">
     <g id="line2d_2">
      <g>
       <use style="stroke:#000000;stroke-width:0.8;" x="127.928636" xlink:href="#mf5684f1d78" y="320.4"/>
      </g>
     </g>
     <g id="text_2">
      <!-- 2.5 -->
      <g transform="translate(116.796448 338.037813)scale(0.14 -0.14)">
       <defs>
        <path d="M 1228 531 
L 3431 531 
L 3431 0 
L 469 0 
L 469 531 
Q 828 903 1448 1529 
Q 2069 2156 2228 2338 
Q 2531 2678 2651 2914 
Q 2772 3150 2772 3378 
Q 2772 3750 2511 3984 
Q 2250 4219 1831 4219 
Q 1534 4219 1204 4116 
Q 875 4013 500 3803 
L 500 4441 
Q 881 4594 1212 4672 
Q 1544 4750 1819 4750 
Q 2544 4750 2975 4387 
Q 3406 4025 3406 3419 
Q 3406 3131 3298 2873 
Q 3191 2616 2906 2266 
Q 2828 2175 2409 1742 
Q 1991 1309 1228 531 
z
" id="DejaVuSans-32" transform="scale(0.015625)"/>
        <path d="M 691 4666 
L 3169 4666 
L 3169 4134 
L 1269 4134 
L 1269 2991 
Q 1406 3038 1543 3061 
Q 1681 3084 1819 3084 
Q 2600 3084 3056 2656 
Q 3513 2228 3513 1497 
Q 3513 744 3044 326 
Q 2575 -91 1722 -91 
Q 1428 -91 1123 -41 
Q 819 9 494 109 
L 494 744 
Q 775 591 1075 516 
Q 1375 441 1709 441 
Q 2250 441 2565 725 
Q 2881 1009 2881 1497 
Q 2881 1984 2565 2268 
Q 2250 2553 1709 2553 
Q 1456 2553 1204 2497 
Q 953 2441 691 2322 
L 691 4666 
z
" id="DejaVuSans-35" transform="scale(0.015625)"/>
       </defs>
       <use xlink:href="#DejaVuSans-32"/>
       <use x="63.623047" xlink:href="#DejaVuSans-2e"/>
       <use x="95.410156" xlink:href="#DejaVuSans-35"/>
      </g>
     </g>
    </g>
    <g id="xtick_3">
     <g id="line2d_3">
      <g>
       <use style="stroke:#000000;stroke-width:0.8;" x="183.857272" xlink:href="#mf5684f1d78" y="320.4"/>
      </g>
     </g>
     <g id="text_3">
      <!-- 5.0 -->
      <g transform="translate(172.725084 338.037813)scale(0.14 -0.14)">
       <use xlink:href="#DejaVuSans-35"/>
       <use x="63.623047" xlink:href="#DejaVuSans-2e"/>
       <use x="95.410156" xlink:href="#DejaVuSans-30"/>
      </g>
     </g>
    </g>
    <g id="xtick_4">
     <g id="line2d_4">
      <g>
       <use style="stroke:#000000;stroke-width:0.8;" x="239.785908" xlink:href="#mf5684f1d78" y="320.4"/>
      </g>
     </g>
     <g id="text_4">
      <!-- 7.5 -->
      <g transform="translate(228.65372 338.037813)scale(0.14 -0.14)">
       <defs>
        <path d="M 525 4666 
L 3525 4666 
L 3525 4397 
L 1831 0 
L 1172 0 
L 2766 4134 
L 525 4134 
L 525 4666 
z
" id="DejaVuSans-37" transform="scale(0.015625)"/>
       </defs>
       <use xlink:href="#DejaVuSans-37"/>
       <use x="63.623047" xlink:href="#DejaVuSans-2e"/>
       <use x="95.410156" xlink:href="#DejaVuSans-35"/>
      </g>
     </g>
    </g>
    <g id="xtick_5">
     <g id="line2d_5">
      <g>
       <use style="stroke:#000000;stroke-width:0.8;" x="295.714543" xlink:href="#mf5684f1d78" y="320.4"/>
      </g>
     </g>
     <g id="text_5">
      <!-- 10.0 -->
      <g transform="translate(280.128606 338.037813)scale(0.14 -0.14)">
       <defs>
        <path d="M 794 531 
L 1825 531 
L 1825 4091 
L 703 3866 
L 703 4441 
L 1819 4666 
L 2450 4666 
L 2450 531 
L 3481 531 
L 3481 0 
L 794 0 
L 794 531 
z
" id="DejaVuSans-31" transform="scale(0.015625)"/>
       </defs>
       <use xlink:href="#DejaVuSans-31"/>
       <use x="63.623047" xlink:href="#DejaVuSans-30"/>
       <use x="127.246094" xlink:href="#DejaVuSans-2e"/>
       <use x="159.033203" xlink:href="#DejaVuSans-30"/>
      </g>
     </g>
    </g>
    <g id="xtick_6">
     <g id="line2d_6">
      <g>
       <use style="stroke:#000000;stroke-width:0.8;" x="351.643179" xlink:href="#mf5684f1d78" y="320.4"/>
      </g>
     </g>
     <g id="text_6">
      <!-- 12.5 -->
      <g transform="translate(336.057242 338.037813)scale(0.14 -0.14)">
       <use xlink:href="#DejaVuSans-31"/>
       <use x="63.623047" xlink:href="#DejaVuSans-32"/>
       <use x="127.246094" xlink:href="#DejaVuSans-2e"/>
       <use x="159.033203" xlink:href="#DejaVuSans-35"/>
      </g>
     </g>
    </g>
    <g id="xtick_7">
     <g id="line2d_7">
      <g>
       <use style="stroke:#000000;stroke-width:0.8;" x="407.571815" xlink:href="#mf5684f1d78" y="320.4"/>
      </g>
     </g>
     <g id="text_7">
      <!-- 15.0 -->
      <g transform="translate(391.985878 338.037813)scale(0.14 -0.14)">
       <use xlink:href="#DejaVuSans-31"/>
       <use x="63.623047" xlink:href="#DejaVuSans-35"/>
       <use x="127.246094" xlink:href="#DejaVuSans-2e"/>
       <use x="159.033203" xlink:href="#DejaVuSans-30"/>
      </g>
     </g>
    </g>
    <g id="xtick_8">
     <g id="line2d_8">
      <g>
       <use style="stroke:#000000;stroke-width:0.8;" x="463.500451" xlink:href="#mf5684f1d78" y="320.4"/>
      </g>
     </g>
     <g id="text_8">
      <!-- 17.5 -->
      <g transform="translate(447.914514 338.037813)scale(0.14 -0.14)">
       <use xlink:href="#DejaVuSans-31"/>
       <use x="63.623047" xlink:href="#DejaVuSans-37"/>
       <use x="127.246094" xlink:href="#DejaVuSans-2e"/>
       <use x="159.033203" xlink:href="#DejaVuSans-35"/>
      </g>
     </g>
    </g>
    <g id="text_9">
     <!-- Time [Seconds] -->
     <g transform="translate(233.23 357.106875)scale(0.16 -0.16)">
      <defs>
       <path d="M -19 4666 
L 3928 4666 
L 3928 4134 
L 2272 4134 
L 2272 0 
L 1638 0 
L 1638 4134 
L -19 4134 
L -19 4666 
z
" id="DejaVuSans-54" transform="scale(0.015625)"/>
       <path d="M 603 3500 
L 1178 3500 
L 1178 0 
L 603 0 
L 603 3500 
z
M 603 4863 
L 1178 4863 
L 1178 4134 
L 603 4134 
L 603 4863 
z
" id="DejaVuSans-69" transform="scale(0.015625)"/>
       <path d="M 3328 2828 
Q 3544 3216 3844 3400 
Q 4144 3584 4550 3584 
Q 5097 3584 5394 3201 
Q 5691 2819 5691 2113 
L 5691 0 
L 5113 0 
L 5113 2094 
Q 5113 2597 4934 2840 
Q 4756 3084 4391 3084 
Q 3944 3084 3684 2787 
Q 3425 2491 3425 1978 
L 3425 0 
L 2847 0 
L 2847 2094 
Q 2847 2600 2669 2842 
Q 2491 3084 2119 3084 
Q 1678 3084 1418 2786 
Q 1159 2488 1159 1978 
L 1159 0 
L 581 0 
L 581 3500 
L 1159 3500 
L 1159 2956 
Q 1356 3278 1631 3431 
Q 1906 3584 2284 3584 
Q 2666 3584 2933 3390 
Q 3200 3197 3328 2828 
z
" id="DejaVuSans-6d" transform="scale(0.015625)"/>
       <path d="M 3597 1894 
L 3597 1613 
L 953 1613 
Q 991 1019 1311 708 
Q 1631 397 2203 397 
Q 2534 397 2845 478 
Q 3156 559 3463 722 
L 3463 178 
Q 3153 47 2828 -22 
Q 2503 -91 2169 -91 
Q 1331 -91 842 396 
Q 353 884 353 1716 
Q 353 2575 817 3079 
Q 1281 3584 2069 3584 
Q 2775 3584 3186 3129 
Q 3597 2675 3597 1894 
z
M 3022 2063 
Q 3016 2534 2758 2815 
Q 2500 3097 2075 3097 
Q 1594 3097 1305 2825 
Q 1016 2553 972 2059 
L 3022 2063 
z
" id="DejaVuSans-65" transform="scale(0.015625)"/>
       <path id="DejaVuSans-20" transform="scale(0.015625)"/>
       <path d="M 550 4863 
L 1875 4863 
L 1875 4416 
L 1125 4416 
L 1125 -397 
L 1875 -397 
L 1875 -844 
L 550 -844 
L 550 4863 
z
" id="DejaVuSans-5b" transform="scale(0.015625)"/>
       <path d="M 3425 4513 
L 3425 3897 
Q 3066 4069 2747 4153 
Q 2428 4238 2131 4238 
Q 1616 4238 1336 4038 
Q 1056 3838 1056 3469 
Q 1056 3159 1242 3001 
Q 1428 2844 1947 2747 
L 2328 2669 
Q 3034 2534 3370 2195 
Q 3706 1856 3706 1288 
Q 3706 609 3251 259 
Q 2797 -91 1919 -91 
Q 1588 -91 1214 -16 
Q 841 59 441 206 
L 441 856 
Q 825 641 1194 531 
Q 1563 422 1919 422 
Q 2459 422 2753 634 
Q 3047 847 3047 1241 
Q 3047 1584 2836 1778 
Q 2625 1972 2144 2069 
L 1759 2144 
Q 1053 2284 737 2584 
Q 422 2884 422 3419 
Q 422 4038 858 4394 
Q 1294 4750 2059 4750 
Q 2388 4750 2728 4690 
Q 3069 4631 3425 4513 
z
" id="DejaVuSans-53" transform="scale(0.015625)"/>
       <path d="M 3122 3366 
L 3122 2828 
Q 2878 2963 2633 3030 
Q 2388 3097 2138 3097 
Q 1578 3097 1268 2742 
Q 959 2388 959 1747 
Q 959 1106 1268 751 
Q 1578 397 2138 397 
Q 2388 397 2633 464 
Q 2878 531 3122 666 
L 3122 134 
Q 2881 22 2623 -34 
Q 2366 -91 2075 -91 
Q 1284 -91 818 406 
Q 353 903 353 1747 
Q 353 2603 823 3093 
Q 1294 3584 2113 3584 
Q 2378 3584 2631 3529 
Q 2884 3475 3122 3366 
z
" id="DejaVuSans-63" transform="scale(0.015625)"/>
       <path d="M 1959 3097 
Q 1497 3097 1228 2736 
Q 959 2375 959 1747 
Q 959 1119 1226 758 
Q 1494 397 1959 397 
Q 2419 397 2687 759 
Q 2956 1122 2956 1747 
Q 2956 2369 2687 2733 
Q 2419 3097 1959 3097 
z
M 1959 3584 
Q 2709 3584 3137 3096 
Q 3566 2609 3566 1747 
Q 3566 888 3137 398 
Q 2709 -91 1959 -91 
Q 1206 -91 779 398 
Q 353 888 353 1747 
Q 353 2609 779 3096 
Q 1206 3584 1959 3584 
z
" id="DejaVuSans-6f" transform="scale(0.015625)"/>
       <path d="M 3513 2113 
L 3513 0 
L 2938 0 
L 2938 2094 
Q 2938 2591 2744 2837 
Q 2550 3084 2163 3084 
Q 1697 3084 1428 2787 
Q 1159 2491 1159 1978 
L 1159 0 
L 581 0 
L 581 3500 
L 1159 3500 
L 1159 2956 
Q 1366 3272 1645 3428 
Q 1925 3584 2291 3584 
Q 2894 3584 3203 3211 
Q 3513 2838 3513 2113 
z
" id="DejaVuSans-6e" transform="scale(0.015625)"/>
       <path d="M 2906 2969 
L 2906 4863 
L 3481 4863 
L 3481 0 
L 2906 0 
L 2906 525 
Q 2725 213 2448 61 
Q 2172 -91 1784 -91 
Q 1150 -91 751 415 
Q 353 922 353 1747 
Q 353 2572 751 3078 
Q 1150 3584 1784 3584 
Q 2172 3584 2448 3432 
Q 2725 3281 2906 2969 
z
M 947 1747 
Q 947 1113 1208 752 
Q 1469 391 1925 391 
Q 2381 391 2643 752 
Q 2906 1113 2906 1747 
Q 2906 2381 2643 2742 
Q 2381 3103 1925 3103 
Q 1469 3103 1208 2742 
Q 947 2381 947 1747 
z
" id="DejaVuSans-64" transform="scale(0.015625)"/>
       <path d="M 2834 3397 
L 2834 2853 
Q 2591 2978 2328 3040 
Q 2066 3103 1784 3103 
Q 1356 3103 1142 2972 
Q 928 2841 928 2578 
Q 928 2378 1081 2264 
Q 1234 2150 1697 2047 
L 1894 2003 
Q 2506 1872 2764 1633 
Q 3022 1394 3022 966 
Q 3022 478 2636 193 
Q 2250 -91 1575 -91 
Q 1294 -91 989 -36 
Q 684 19 347 128 
L 347 722 
Q 666 556 975 473 
Q 1284 391 1588 391 
Q 1994 391 2212 530 
Q 2431 669 2431 922 
Q 2431 1156 2273 1281 
Q 2116 1406 1581 1522 
L 1381 1569 
Q 847 1681 609 1914 
Q 372 2147 372 2553 
Q 372 3047 722 3315 
Q 1072 3584 1716 3584 
Q 2034 3584 2315 3537 
Q 2597 3491 2834 3397 
z
" id="DejaVuSans-73" transform="scale(0.015625)"/>
       <path d="M 1947 4863 
L 1947 -844 
L 622 -844 
L 622 -397 
L 1369 -397 
L 1369 4416 
L 622 4416 
L 622 4863 
L 1947 4863 
z
" id="DejaVuSans-5d" transform="scale(0.015625)"/>
      </defs>
      <use xlink:href="#DejaVuSans-54"/>
      <use x="57.958984" xlink:href="#DejaVuSans-69"/>
      <use x="85.742188" xlink:href="#DejaVuSans-6d"/>
      <use x="183.154297" xlink:href="#DejaVuSans-65"/>
      <use x="244.677734" xlink:href="#DejaVuSans-20"/>
      <use x="276.464844" xlink:href="#DejaVuSans-5b"/>
      <use x="315.478516" xlink:href="#DejaVuSans-53"/>
      <use x="378.955078" xlink:href="#DejaVuSans-65"/>
      <use x="440.478516" xlink:href="#DejaVuSans-63"/>
      <use x="495.458984" xlink:href="#DejaVuSans-6f"/>
      <use x="556.640625" xlink:href="#DejaVuSans-6e"/>
      <use x="620.019531" xlink:href="#DejaVuSans-64"/>
      <use x="683.496094" xlink:href="#DejaVuSans-73"/>
      <use x="735.595703" xlink:href="#DejaVuSans-5d"/>
     </g>
    </g>
   </g>
   <g id="matplotlib.axis_2">
    <g id="ytick_1">
     <g id="line2d_9">
      <defs>
       <path d="M 0 0 
L -3.5 0 
" id="m44d3272849" style="stroke:#000000;stroke-width:0.8;"/>
      </defs>
      <g>
       <use style="stroke:#000000;stroke-width:0.8;" x="72" xlink:href="#m44d3272849" y="275.135781"/>
      </g>
     </g>
     <g id="text_10">
      <!-- 0.0 -->
      <g transform="translate(42.735625 280.454687)scale(0.14 -0.14)">
       <use xlink:href="#DejaVuSans-30"/>
       <use x="63.623047" xlink:href="#DejaVuSans-2e"/>
       <use x="95.410156" xlink:href="#DejaVuSans-30"/>
      </g>
     </g>
    </g>
    <g id="ytick_2">
     <g id="line2d_10">
      <g>
       <use style="stroke:#000000;stroke-width:0.8;" x="72" xlink:href="#m44d3272849" y="222.530103"/>
      </g>
     </g>
     <g id="text_11">
      <!-- 0.5 -->
      <g transform="translate(42.735625 227.849009)scale(0.14 -0.14)">
       <use xlink:href="#DejaVuSans-30"/>
       <use x="63.623047" xlink:href="#DejaVuSans-2e"/>
       <use x="95.410156" xlink:href="#DejaVuSans-35"/>
      </g>
     </g>
    </g>
    <g id="ytick_3">
     <g id="line2d_11">
      <g>
       <use style="stroke:#000000;stroke-width:0.8;" x="72" xlink:href="#m44d3272849" y="169.924425"/>
      </g>
     </g>
     <g id="text_12">
      <!-- 1.0 -->
      <g transform="translate(42.735625 175.243331)scale(0.14 -0.14)">
       <use xlink:href="#DejaVuSans-31"/>
       <use x="63.623047" xlink:href="#DejaVuSans-2e"/>
       <use x="95.410156" xlink:href="#DejaVuSans-30"/>
      </g>
     </g>
    </g>
    <g id="ytick_4">
     <g id="line2d_12">
      <g>
       <use style="stroke:#000000;stroke-width:0.8;" x="72" xlink:href="#m44d3272849" y="117.318747"/>
      </g>
     </g>
     <g id="text_13">
      <!-- 1.5 -->
      <g transform="translate(42.735625 122.637653)scale(0.14 -0.14)">
       <use xlink:href="#DejaVuSans-31"/>
       <use x="63.623047" xlink:href="#DejaVuSans-2e"/>
       <use x="95.410156" xlink:href="#DejaVuSans-35"/>
      </g>
     </g>
    </g>
    <g id="ytick_5">
     <g id="line2d_13">
      <g>
       <use style="stroke:#000000;stroke-width:0.8;" x="72" xlink:href="#m44d3272849" y="64.713069"/>
      </g>
     </g>
     <g id="text_14">
      <!-- 2.0 -->
      <g transform="translate(42.735625 70.031975)scale(0.14 -0.14)">
       <use xlink:href="#DejaVuSans-32"/>
       <use x="63.623047" xlink:href="#DejaVuSans-2e"/>
       <use x="95.410156" xlink:href="#DejaVuSans-30"/>
      </g>
     </g>
    </g>
    <g id="text_15">
     <!-- Speed [mm/s] -->
     <g transform="translate(35.408125 238.11375)rotate(-90)scale(0.16 -0.16)">
      <defs>
       <path d="M 1159 525 
L 1159 -1331 
L 581 -1331 
L 581 3500 
L 1159 3500 
L 1159 2969 
Q 1341 3281 1617 3432 
Q 1894 3584 2278 3584 
Q 2916 3584 3314 3078 
Q 3713 2572 3713 1747 
Q 3713 922 3314 415 
Q 2916 -91 2278 -91 
Q 1894 -91 1617 61 
Q 1341 213 1159 525 
z
M 3116 1747 
Q 3116 2381 2855 2742 
Q 2594 3103 2138 3103 
Q 1681 3103 1420 2742 
Q 1159 2381 1159 1747 
Q 1159 1113 1420 752 
Q 1681 391 2138 391 
Q 2594 391 2855 752 
Q 3116 1113 3116 1747 
z
" id="DejaVuSans-70" transform="scale(0.015625)"/>
       <path d="M 1625 4666 
L 2156 4666 
L 531 -594 
L 0 -594 
L 1625 4666 
z
" id="DejaVuSans-2f" transform="scale(0.015625)"/>
      </defs>
      <use xlink:href="#DejaVuSans-53"/>
      <use x="63.476562" xlink:href="#DejaVuSans-70"/>
      <use x="126.953125" xlink:href="#DejaVuSans-65"/>
      <use x="188.476562" xlink:href="#DejaVuSans-65"/>
      <use x="250" xlink:href="#DejaVuSans-64"/>
      <use x="313.476562" xlink:href="#DejaVuSans-20"/>
      <use x="345.263672" xlink:href="#DejaVuSans-5b"/>
      <use x="384.277344" xlink:href="#DejaVuSans-6d"/>
      <use x="481.689453" xlink:href="#DejaVuSans-6d"/>
      <use x="579.101562" xlink:href="#DejaVuSans-2f"/>
      <use x="612.792969" xlink:href="#DejaVuSans-73"/>
      <use x="664.892578" xlink:href="#DejaVuSans-5d"/>
     </g>
    </g>
   </g>
   <g id="line2d_14">
    <path clip-path="url(#p15810de09b)" d="M 72 208.214809 
L 518.4 208.214809 
" style="fill:none;stroke:#000000;stroke-dasharray:5.55,2.4;stroke-dashoffset:0;stroke-width:1.5;"/>
   </g>
   <g id="line2d_15">
    <path clip-path="url(#p15810de09b)" d="M 72 273.283468 
L 135.20708 273.324505 
L 135.997168 273.05285 
L 136.787257 274.210102 
L 137.577345 272.69563 
L 138.367434 270.6354 
L 139.157522 272.417736 
L 139.947611 272.737108 
L 140.737699 271.644945 
L 141.527788 277.667853 
L 142.317876 261.941502 
L 143.107965 257.154357 
L 143.898053 289.034584 
L 144.688142 307.689673 
L 145.47823 307.8 
L 146.268319 297.971483 
L 147.058407 279.37691 
L 148.638584 216.287217 
L 151.00885 121.96037 
L 151.798938 96.671723 
L 152.589027 77.413046 
L 153.379115 62.351308 
L 154.169204 55.8 
L 154.959292 58.681968 
L 155.749381 68.192638 
L 156.539469 84.822752 
L 157.329558 107.0999 
L 158.909735 154.819386 
L 160.489912 198.935823 
L 161.28 210.923785 
L 162.070088 213.752845 
L 162.860177 207.245156 
L 163.650265 176.441403 
L 164.440354 167.942872 
L 165.230442 190.02764 
L 166.020531 195.257213 
L 166.810619 196.02207 
L 167.600708 199.393413 
L 168.390796 200.759569 
L 169.180885 198.338578 
L 169.970973 198.884557 
L 170.761062 200.15537 
L 171.55115 200.551053 
L 172.341239 201.431467 
L 173.131327 202.109285 
L 173.921416 202.987114 
L 174.711504 201.58865 
L 175.501593 201.41799 
L 176.291681 202.562887 
L 177.08177 202.561579 
L 177.871858 203.438602 
L 178.661947 204.887582 
L 179.452035 205.137413 
L 180.242124 204.404645 
L 181.032212 205.126462 
L 181.822301 205.025244 
L 182.612389 205.634725 
L 183.402478 205.562261 
L 184.192566 205.079512 
L 184.982655 205.394942 
L 185.772743 204.116866 
L 186.562832 204.253891 
L 187.35292 205.587958 
L 188.143009 206.199849 
L 188.933097 206.264438 
L 189.723186 205.963412 
L 190.513274 206.544148 
L 191.303363 206.784243 
L 192.093451 206.349523 
L 192.88354 206.727576 
L 193.673628 207.368716 
L 194.463717 207.189709 
L 195.253805 207.688512 
L 196.043894 207.762134 
L 196.833982 207.564299 
L 197.624071 208.046955 
L 199.204248 207.409737 
L 203.15469 208.040482 
L 203.944779 208.087672 
L 204.734867 207.849185 
L 205.524956 207.923271 
L 206.315044 207.692775 
L 207.105133 206.967655 
L 207.895221 207.273184 
L 208.68531 207.892691 
L 209.475398 208.079952 
L 210.265487 207.971736 
L 211.055575 208.060389 
L 211.845664 208.345861 
L 212.635752 208.177258 
L 213.425841 207.880335 
L 215.006018 208.674608 
L 215.796106 208.460623 
L 218.166372 208.526716 
L 218.95646 209.035531 
L 219.746549 208.910036 
L 220.536637 208.4446 
L 221.326726 208.267529 
L 222.116814 208.598995 
L 222.906903 208.607246 
L 223.696991 208.275862 
L 224.48708 208.258454 
L 225.277168 208.507591 
L 226.067257 208.576067 
L 228.437522 208.305119 
L 229.227611 208.488167 
L 230.017699 208.375912 
L 230.807788 208.021758 
L 231.597876 208.17157 
L 233.178053 208.622162 
L 233.968142 208.500916 
L 235.548319 208.473146 
L 236.338407 208.328476 
L 237.128496 208.499829 
L 237.918584 208.507608 
L 238.708673 208.175474 
L 239.498761 208.217217 
L 240.28885 208.918085 
L 241.078938 209.106784 
L 241.869027 208.70973 
L 242.659115 208.591622 
L 243.449204 209.034116 
L 244.239292 209.064251 
L 245.029381 208.641186 
L 245.819469 208.735972 
L 246.609558 208.689424 
L 247.399646 208.513097 
L 248.979823 209.013462 
L 252.140177 208.659338 
L 252.930265 208.926623 
L 255.300531 209.043464 
L 256.090619 208.800737 
L 256.880708 208.69894 
L 258.460885 209.060786 
L 259.250973 208.658003 
L 260.041062 208.543794 
L 261.621239 208.709419 
L 262.411327 208.819335 
L 263.201416 208.609466 
L 263.991504 208.537195 
L 264.781593 208.655334 
L 266.36177 208.28132 
L 267.151858 208.461643 
L 270.312212 208.675106 
L 271.102301 208.594299 
L 272.682478 208.788323 
L 274.262655 208.798105 
L 275.842832 208.477107 
L 276.63292 208.457267 
L 277.423009 208.572261 
L 278.213097 208.863058 
L 279.003186 208.849807 
L 279.793274 208.58182 
L 280.583363 208.742396 
L 281.373451 209.103351 
L 282.16354 208.729791 
L 282.953628 208.829416 
L 283.743717 209.267057 
L 286.113982 208.885737 
L 287.694159 209.009697 
L 289.274336 208.671096 
L 294.014867 208.778053 
L 295.595044 208.560145 
L 297.175221 208.688874 
L 298.755398 208.807804 
L 300.335575 208.485416 
L 301.125664 208.520817 
L 302.705841 209.143017 
L 304.286018 208.996317 
L 308.23646 209.049472 
L 309.816637 208.333759 
L 310.606726 208.264205 
L 312.186903 208.92445 
L 312.976991 208.935636 
L 313.76708 208.743374 
L 315.347257 208.858817 
L 316.137345 208.571441 
L 316.927434 208.761638 
L 317.717522 209.281772 
L 318.507611 209.321883 
L 319.297699 209.058282 
L 320.877876 209.004845 
L 322.458053 208.509793 
L 323.248142 208.446646 
L 324.03823 208.562475 
L 324.828319 208.547694 
L 325.618407 208.344629 
L 326.408496 208.425499 
L 327.198584 208.804821 
L 327.988673 208.846059 
L 328.778761 208.457602 
L 329.56885 208.383615 
L 331.939115 208.699394 
L 332.729204 208.920533 
L 333.519292 208.9087 
L 334.309381 208.455845 
L 335.099469 208.511653 
L 335.889558 208.822374 
L 336.679646 208.939064 
L 338.259823 208.778775 
L 339.049912 209.008771 
L 339.84 209.051239 
L 340.630088 208.767206 
L 341.420177 209.088298 
L 342.210265 209.189809 
L 343.000354 208.560859 
L 343.790442 208.362474 
L 344.580531 208.451397 
L 346.160708 208.958934 
L 350.11115 208.733973 
L 350.901239 208.885165 
L 351.691327 209.214821 
L 352.481416 209.242146 
L 353.271504 209.039652 
L 354.061593 209.009244 
L 354.851681 208.814668 
L 355.64177 208.366181 
L 356.431858 208.448366 
L 357.221947 208.722032 
L 358.012035 208.754893 
L 359.592212 208.659691 
L 360.382301 208.94595 
L 361.172389 208.900427 
L 361.962478 208.62087 
L 363.542655 208.850562 
L 365.122832 208.757678 
L 365.91292 208.847768 
L 366.703009 209.305667 
L 367.493097 209.186255 
L 368.283186 208.613655 
L 369.073274 208.433873 
L 369.863363 208.384377 
L 371.44354 208.791527 
L 372.233628 208.608904 
L 373.023717 208.848224 
L 373.813805 208.910253 
L 374.603894 208.671179 
L 375.393982 208.657102 
L 376.974159 208.436944 
L 377.764248 208.489124 
L 379.344425 209.017969 
L 380.134513 208.896979 
L 381.71469 208.986422 
L 384.084956 208.652424 
L 384.875044 209.042668 
L 385.665133 209.219108 
L 387.24531 208.817761 
L 388.035398 208.978974 
L 389.615575 208.359186 
L 391.195752 208.93411 
L 391.985841 208.888782 
L 392.775929 208.593033 
L 393.566018 208.514635 
L 394.356106 208.793406 
L 396.726372 208.755429 
L 397.51646 208.661508 
L 398.306549 208.963358 
L 399.096637 208.963772 
L 400.676814 209.283787 
L 402.256991 208.415837 
L 403.04708 208.358301 
L 403.837168 208.591064 
L 405.417345 208.738025 
L 406.207434 209.087621 
L 406.997522 208.897693 
L 407.787611 208.536254 
L 409.367788 208.402046 
L 410.947965 208.706348 
L 411.738053 208.82499 
L 412.528142 209.094794 
L 416.478584 208.681598 
L 418.058761 208.741703 
L 419.638938 209.261339 
L 421.219115 208.874829 
L 422.009204 208.933509 
L 423.589381 208.347188 
L 424.379469 208.696334 
L 425.169558 208.898768 
L 425.959646 208.658762 
L 426.749735 208.601392 
L 427.539823 208.779613 
L 428.329912 208.620542 
L 429.12 208.57973 
L 431.490265 209.018046 
L 432.280354 208.865661 
L 434.650619 208.916472 
L 436.230796 208.555738 
L 437.810973 208.607163 
L 438.601062 208.637769 
L 440.181239 209.3265 
L 440.971327 208.878051 
L 441.761416 208.583748 
L 443.341593 208.88513 
L 444.92177 208.854514 
L 445.711858 209.121617 
L 446.501947 208.96638 
L 448.082124 208.383451 
L 448.872212 208.272119 
L 450.452389 208.554782 
L 451.242478 208.346031 
L 452.822655 208.836421 
L 455.19292 208.787876 
L 455.983009 208.961925 
L 456.773097 208.777897 
L 458.353274 209.130576 
L 459.143363 208.828661 
L 459.933451 208.904433 
L 460.72354 209.193048 
L 461.513628 209.040864 
L 462.303717 208.640236 
L 463.093805 208.584748 
L 467.044248 208.948674 
L 468.624425 208.77682 
L 469.414513 208.448859 
L 470.204602 208.555765 
L 470.99469 208.827713 
L 472.574867 208.137377 
L 473.364956 208.38131 
L 474.155044 208.422786 
L 474.945133 208.238076 
L 477.315398 208.723299 
L 478.105487 208.827275 
L 478.895575 209.163769 
L 479.685664 209.274659 
L 480.475752 209.028194 
L 482.055929 209.383397 
L 484.426195 208.826107 
L 485.216283 208.762173 
L 486.006372 208.83421 
L 487.586549 208.204919 
L 489.166726 208.220995 
L 490.746903 208.403392 
L 491.536991 208.718225 
L 492.32708 208.812626 
L 493.117168 208.761036 
L 494.697345 209.213176 
L 496.277522 209.167795 
L 497.067611 209.299079 
L 498.647788 208.843518 
L 499.437876 208.929457 
L 500.227965 208.602 
L 502.59823 208.188159 
L 504.968496 208.462471 
L 505.758584 208.749186 
L 506.548673 208.887667 
L 508.12885 208.88799 
L 510.499115 208.998748 
L 512.869381 208.807198 
L 515.239646 208.327974 
L 518.4 207.469062 
L 518.4 207.469062 
" style="fill:none;stroke:#ff0000;stroke-linecap:square;stroke-width:2;"/>
   </g>
   <g id="patch_3">
    <path d="M 72 320.4 
L 72 43.2 
" style="fill:none;stroke:#000000;stroke-linecap:square;stroke-linejoin:miter;stroke-width:0.8;"/>
   </g>
   <g id="patch_4">
    <path d="M 518.4 320.4 
L 518.4 43.2 
" style="fill:none;stroke:#000000;stroke-linecap:square;stroke-linejoin:miter;stroke-width:0.8;"/>
   </g>
   <g id="patch_5">
    <path d="M 72 320.4 
L 518.4 320.4 
" style="fill:none;stroke:#000000;stroke-linecap:square;stroke-linejoin:miter;stroke-width:0.8;"/>
   </g>
   <g id="patch_6">
    <path d="M 72 43.2 
L 518.4 43.2 
" style="fill:none;stroke:#000000;stroke-linecap:square;stroke-linejoin:miter;stroke-width:0.8;"/>
   </g>
   <g id="text_16">
    <!-- Front Propogation Speed -->
    <g transform="translate(172.245312 37.2)scale(0.2 -0.2)">
     <defs>
      <path d="M 628 4666 
L 3309 4666 
L 3309 4134 
L 1259 4134 
L 1259 2759 
L 3109 2759 
L 3109 2228 
L 1259 2228 
L 1259 0 
L 628 0 
L 628 4666 
z
" id="DejaVuSans-46" transform="scale(0.015625)"/>
      <path d="M 2631 2963 
Q 2534 3019 2420 3045 
Q 2306 3072 2169 3072 
Q 1681 3072 1420 2755 
Q 1159 2438 1159 1844 
L 1159 0 
L 581 0 
L 581 3500 
L 1159 3500 
L 1159 2956 
Q 1341 3275 1631 3429 
Q 1922 3584 2338 3584 
Q 2397 3584 2469 3576 
Q 2541 3569 2628 3553 
L 2631 2963 
z
" id="DejaVuSans-72" transform="scale(0.015625)"/>
      <path d="M 1172 4494 
L 1172 3500 
L 2356 3500 
L 2356 3053 
L 1172 3053 
L 1172 1153 
Q 1172 725 1289 603 
Q 1406 481 1766 481 
L 2356 481 
L 2356 0 
L 1766 0 
Q 1100 0 847 248 
Q 594 497 594 1153 
L 594 3053 
L 172 3053 
L 172 3500 
L 594 3500 
L 594 4494 
L 1172 4494 
z
" id="DejaVuSans-74" transform="scale(0.015625)"/>
      <path d="M 1259 4147 
L 1259 2394 
L 2053 2394 
Q 2494 2394 2734 2622 
Q 2975 2850 2975 3272 
Q 2975 3691 2734 3919 
Q 2494 4147 2053 4147 
L 1259 4147 
z
M 628 4666 
L 2053 4666 
Q 2838 4666 3239 4311 
Q 3641 3956 3641 3272 
Q 3641 2581 3239 2228 
Q 2838 1875 2053 1875 
L 1259 1875 
L 1259 0 
L 628 0 
L 628 4666 
z
" id="DejaVuSans-50" transform="scale(0.015625)"/>
      <path d="M 2906 1791 
Q 2906 2416 2648 2759 
Q 2391 3103 1925 3103 
Q 1463 3103 1205 2759 
Q 947 2416 947 1791 
Q 947 1169 1205 825 
Q 1463 481 1925 481 
Q 2391 481 2648 825 
Q 2906 1169 2906 1791 
z
M 3481 434 
Q 3481 -459 3084 -895 
Q 2688 -1331 1869 -1331 
Q 1566 -1331 1297 -1286 
Q 1028 -1241 775 -1147 
L 775 -588 
Q 1028 -725 1275 -790 
Q 1522 -856 1778 -856 
Q 2344 -856 2625 -561 
Q 2906 -266 2906 331 
L 2906 616 
Q 2728 306 2450 153 
Q 2172 0 1784 0 
Q 1141 0 747 490 
Q 353 981 353 1791 
Q 353 2603 747 3093 
Q 1141 3584 1784 3584 
Q 2172 3584 2450 3431 
Q 2728 3278 2906 2969 
L 2906 3500 
L 3481 3500 
L 3481 434 
z
" id="DejaVuSans-67" transform="scale(0.015625)"/>
      <path d="M 2194 1759 
Q 1497 1759 1228 1600 
Q 959 1441 959 1056 
Q 959 750 1161 570 
Q 1363 391 1709 391 
Q 2188 391 2477 730 
Q 2766 1069 2766 1631 
L 2766 1759 
L 2194 1759 
z
M 3341 1997 
L 3341 0 
L 2766 0 
L 2766 531 
Q 2569 213 2275 61 
Q 1981 -91 1556 -91 
Q 1019 -91 701 211 
Q 384 513 384 1019 
Q 384 1609 779 1909 
Q 1175 2209 1959 2209 
L 2766 2209 
L 2766 2266 
Q 2766 2663 2505 2880 
Q 2244 3097 1772 3097 
Q 1472 3097 1187 3025 
Q 903 2953 641 2809 
L 641 3341 
Q 956 3463 1253 3523 
Q 1550 3584 1831 3584 
Q 2591 3584 2966 3190 
Q 3341 2797 3341 1997 
z
" id="DejaVuSans-61" transform="scale(0.015625)"/>
     </defs>
     <use xlink:href="#DejaVuSans-46"/>
     <use x="50.269531" xlink:href="#DejaVuSans-72"/>
     <use x="89.132812" xlink:href="#DejaVuSans-6f"/>
     <use x="150.314453" xlink:href="#DejaVuSans-6e"/>
     <use x="213.693359" xlink:href="#DejaVuSans-74"/>
     <use x="252.902344" xlink:href="#DejaVuSans-20"/>
     <use x="284.689453" xlink:href="#DejaVuSans-50"/>
     <use x="343.242188" xlink:href="#DejaVuSans-72"/>
     <use x="382.105469" xlink:href="#DejaVuSans-6f"/>
     <use x="443.287109" xlink:href="#DejaVuSans-70"/>
     <use x="506.763672" xlink:href="#DejaVuSans-6f"/>
     <use x="567.945312" xlink:href="#DejaVuSans-67"/>
     <use x="631.421875" xlink:href="#DejaVuSans-61"/>
     <use x="692.701172" xlink:href="#DejaVuSans-74"/>
     <use x="731.910156" xlink:href="#DejaVuSans-69"/>
     <use x="759.693359" xlink:href="#DejaVuSans-6f"/>
     <use x="820.875" xlink:href="#DejaVuSans-6e"/>
     <use x="884.253906" xlink:href="#DejaVuSans-20"/>
     <use x="916.041016" xlink:href="#DejaVuSans-53"/>
     <use x="979.517578" xlink:href="#DejaVuSans-70"/>
     <use x="1042.994141" xlink:href="#DejaVuSans-65"/>
     <use x="1104.517578" xlink:href="#DejaVuSans-65"/>
     <use x="1166.041016" xlink:href="#DejaVuSans-64"/>
    </g>
   </g>
   <g id="legend_1">
    <g id="patch_7">
     <path d="M 325.967812 111.175687 
L 508.6 111.175687 
Q 511.4 111.175687 511.4 108.375687 
L 511.4 53 
Q 511.4 50.2 508.6 50.2 
L 325.967812 50.2 
Q 323.167812 50.2 323.167812 53 
L 323.167812 108.375687 
Q 323.167812 111.175687 325.967812 111.175687 
z
" style="fill:#ffffff;opacity:0.8;stroke:#cccccc;stroke-linejoin:miter;"/>
    </g>
    <g id="line2d_16">
     <path d="M 328.767812 61.537812 
L 356.767812 61.537812 
" style="fill:none;stroke:#ff0000;stroke-linecap:square;stroke-width:2;"/>
    </g>
    <g id="line2d_17"/>
    <g id="text_17">
     <!-- Front speed -->
     <g transform="translate(367.967812 66.437812)scale(0.14 -0.14)">
      <use xlink:href="#DejaVuSans-46"/>
      <use x="50.269531" xlink:href="#DejaVuSans-72"/>
      <use x="89.132812" xlink:href="#DejaVuSans-6f"/>
      <use x="150.314453" xlink:href="#DejaVuSans-6e"/>
      <use x="213.693359" xlink:href="#DejaVuSans-74"/>
      <use x="252.902344" xlink:href="#DejaVuSans-20"/>
      <use x="284.689453" xlink:href="#DejaVuSans-73"/>
      <use x="336.789062" xlink:href="#DejaVuSans-70"/>
      <use x="400.265625" xlink:href="#DejaVuSans-65"/>
      <use x="461.789062" xlink:href="#DejaVuSans-65"/>
      <use x="523.3125" xlink:href="#DejaVuSans-64"/>
     </g>
    </g>
    <g id="line2d_18">
     <path d="M 328.767812 91.381437 
L 356.767812 91.381437 
" style="fill:none;stroke:#000000;stroke-dasharray:5.55,2.4;stroke-dashoffset:0;stroke-width:1.5;"/>
    </g>
    <g id="line2d_19"/>
    <g id="text_18">
     <!-- Steady state -->
     <g transform="translate(367.967812 86.987187)scale(0.14 -0.14)">
      <defs>
       <path d="M 2059 -325 
Q 1816 -950 1584 -1140 
Q 1353 -1331 966 -1331 
L 506 -1331 
L 506 -850 
L 844 -850 
Q 1081 -850 1212 -737 
Q 1344 -625 1503 -206 
L 1606 56 
L 191 3500 
L 800 3500 
L 1894 763 
L 2988 3500 
L 3597 3500 
L 2059 -325 
z
" id="DejaVuSans-79" transform="scale(0.015625)"/>
      </defs>
      <use xlink:href="#DejaVuSans-53"/>
      <use x="63.476562" xlink:href="#DejaVuSans-74"/>
      <use x="102.685547" xlink:href="#DejaVuSans-65"/>
      <use x="164.208984" xlink:href="#DejaVuSans-61"/>
      <use x="225.488281" xlink:href="#DejaVuSans-64"/>
      <use x="288.964844" xlink:href="#DejaVuSans-79"/>
      <use x="348.144531" xlink:href="#DejaVuSans-20"/>
      <use x="379.931641" xlink:href="#DejaVuSans-73"/>
      <use x="432.03125" xlink:href="#DejaVuSans-74"/>
      <use x="471.240234" xlink:href="#DejaVuSans-61"/>
      <use x="532.519531" xlink:href="#DejaVuSans-74"/>
      <use x="571.728516" xlink:href="#DejaVuSans-65"/>
     </g>
     <!-- speed = 0.64 mm/s -->
     <g transform="translate(367.967812 102.664125)scale(0.14 -0.14)">
      <defs>
       <path d="M 678 2906 
L 4684 2906 
L 4684 2381 
L 678 2381 
L 678 2906 
z
M 678 1631 
L 4684 1631 
L 4684 1100 
L 678 1100 
L 678 1631 
z
" id="DejaVuSans-3d" transform="scale(0.015625)"/>
       <path d="M 2113 2584 
Q 1688 2584 1439 2293 
Q 1191 2003 1191 1497 
Q 1191 994 1439 701 
Q 1688 409 2113 409 
Q 2538 409 2786 701 
Q 3034 994 3034 1497 
Q 3034 2003 2786 2293 
Q 2538 2584 2113 2584 
z
M 3366 4563 
L 3366 3988 
Q 3128 4100 2886 4159 
Q 2644 4219 2406 4219 
Q 1781 4219 1451 3797 
Q 1122 3375 1075 2522 
Q 1259 2794 1537 2939 
Q 1816 3084 2150 3084 
Q 2853 3084 3261 2657 
Q 3669 2231 3669 1497 
Q 3669 778 3244 343 
Q 2819 -91 2113 -91 
Q 1303 -91 875 529 
Q 447 1150 447 2328 
Q 447 3434 972 4092 
Q 1497 4750 2381 4750 
Q 2619 4750 2861 4703 
Q 3103 4656 3366 4563 
z
" id="DejaVuSans-36" transform="scale(0.015625)"/>
       <path d="M 2419 4116 
L 825 1625 
L 2419 1625 
L 2419 4116 
z
M 2253 4666 
L 3047 4666 
L 3047 1625 
L 3713 1625 
L 3713 1100 
L 3047 1100 
L 3047 0 
L 2419 0 
L 2419 1100 
L 313 1100 
L 313 1709 
L 2253 4666 
z
" id="DejaVuSans-34" transform="scale(0.015625)"/>
      </defs>
      <use xlink:href="#DejaVuSans-73"/>
      <use x="52.099609" xlink:href="#DejaVuSans-70"/>
      <use x="115.576172" xlink:href="#DejaVuSans-65"/>
      <use x="177.099609" xlink:href="#DejaVuSans-65"/>
      <use x="238.623047" xlink:href="#DejaVuSans-64"/>
      <use x="302.099609" xlink:href="#DejaVuSans-20"/>
      <use x="333.886719" xlink:href="#DejaVuSans-3d"/>
      <use x="417.675781" xlink:href="#DejaVuSans-20"/>
      <use x="449.462891" xlink:href="#DejaVuSans-30"/>
      <use x="513.085938" xlink:href="#DejaVuSans-2e"/>
      <use x="544.873047" xlink:href="#DejaVuSans-36"/>
      <use x="608.496094" xlink:href="#DejaVuSans-34"/>
      <use x="672.119141" xlink:href="#DejaVuSans-20"/>
      <use x="703.90625" xlink:href="#DejaVuSans-6d"/>
      <use x="801.318359" xlink:href="#DejaVuSans-6d"/>
      <use x="898.730469" xlink:href="#DejaVuSans-2f"/>
      <use x="932.421875" xlink:href="#DejaVuSans-73"/>
     </g>
    </g>
   </g>
  </g>
 </g>
 <defs>
  <clipPath id="p15810de09b">
   <rect height="277.2" width="446.4" x="72" y="43.2"/>
  </clipPath>
 </defs>
</svg>
