<?xml version="1.0" encoding="utf-8" standalone="no"?>
<!DOCTYPE svg PUBLIC "-//W3C//DTD SVG 1.1//EN"
  "http://www.w3.org/Graphics/SVG/1.1/DTD/svg11.dtd">
<svg height="360pt" version="1.1" viewBox="0 0 576 360" width="576pt" xmlns="http://www.w3.org/2000/svg" xmlns:xlink="http://www.w3.org/1999/xlink">
 <metadata>
  <rdf:RDF xmlns:cc="http://creativecommons.org/ns#" xmlns:dc="http://purl.org/dc/elements/1.1/" xmlns:rdf="http://www.w3.org/1999/02/22-rdf-syntax-ns#">
   <cc:Work>
    <dc:type rdf:resource="http://purl.org/dc/dcmitype/StillImage"/>
    <dc:date>2022-06-30T14:46:45.517419</dc:date>
    <dc:format>image/svg+xml</dc:format>
    <dc:creator>
     <cc:Agent>
      <dc:title>Matplotlib v3.4.3, https://matplotlib.org/</dc:title>
     </cc:Agent>
    </dc:creator>
   </cc:Work>
  </rdf:RDF>
 </metadata>
 <defs>
  <style type="text/css">*{stroke-linecap:butt;stroke-linejoin:round;}</style>
 </defs>
 <g id="figure_1">
  <g id="patch_1">
   <path d="M 0 360 
L 576 360 
L 576 0 
L 0 0 
z
" style="fill:#ffffff;"/>
  </g>
  <g id="axes_1">
   <g id="patch_2">
    <path d="M 72 320.4 
L 518.4 320.4 
L 518.4 43.2 
L 72 43.2 
z
" style="fill:#ffffff;"/>
   </g>
   <g id="PolyCollection_1">
    <defs>
     <path d="M 72 -166.000219 
L 72 -173.580132 
L 72.747739 -173.580132 
L 73.495477 -173.580132 
L 74.243216 -173.580132 
L 74.990955 -173.580132 
L 75.738693 -173.580132 
L 76.486432 -173.580132 
L 77.234171 -173.580132 
L 77.98191 -173.580132 
L 78.729648 -173.580132 
L 79.477387 -173.580132 
L 80.225126 -173.580132 
L 80.972864 -173.580132 
L 81.720603 -173.580132 
L 82.468342 -173.580132 
L 83.21608 -173.580132 
L 83.963819 -173.580132 
L 84.711558 -173.580132 
L 85.459296 -173.580132 
L 86.207035 -173.580132 
L 86.954774 -173.580132 
L 87.702513 -173.580132 
L 88.450251 -173.580132 
L 89.19799 -173.580132 
L 89.945729 -173.580132 
L 90.693467 -173.580132 
L 91.441206 -173.580132 
L 92.188945 -173.580132 
L 92.936683 -173.580132 
L 93.684422 -173.580132 
L 94.432161 -173.580132 
L 95.179899 -173.580132 
L 95.927638 -173.580132 
L 96.675377 -173.580132 
L 97.423116 -173.580132 
L 98.170854 -173.580132 
L 98.918593 -173.580132 
L 99.666332 -173.580132 
L 100.41407 -173.580132 
L 101.161809 -173.580132 
L 101.909548 -173.580132 
L 102.657286 -173.580132 
L 103.405025 -173.580132 
L 104.152764 -173.580132 
L 104.900503 -173.580132 
L 105.648241 -173.580132 
L 106.39598 -173.580132 
L 107.143719 -173.580132 
L 107.891457 -173.580132 
L 108.639196 -173.580132 
L 109.386935 -173.580132 
L 110.134673 -173.580132 
L 110.882412 -173.580132 
L 111.630151 -173.580132 
L 112.377889 -173.580132 
L 113.125628 -173.580132 
L 113.873367 -173.580132 
L 114.621106 -173.580132 
L 115.368844 -173.580132 
L 116.116583 -173.580132 
L 116.864322 -173.580132 
L 117.61206 -173.580132 
L 118.359799 -173.580132 
L 119.107538 -173.580132 
L 119.855276 -173.580132 
L 120.603015 -173.580132 
L 121.350754 -173.580132 
L 122.098492 -173.580132 
L 122.846231 -173.580132 
L 123.59397 -173.580132 
L 124.341709 -173.580132 
L 125.089447 -173.580132 
L 125.837186 -173.580132 
L 126.584925 -173.580132 
L 127.332663 -173.580132 
L 128.080402 -173.580132 
L 128.828141 -173.580132 
L 129.575879 -173.580132 
L 130.323618 -173.580132 
L 131.071357 -173.580132 
L 131.819095 -173.580132 
L 132.566834 -173.580132 
L 133.314573 -173.580132 
L 134.062312 -173.580132 
L 134.81005 -173.580132 
L 135.557789 -173.580132 
L 136.305528 -173.580132 
L 137.053266 -173.580132 
L 137.801005 -173.580132 
L 138.548744 -173.580132 
L 139.296482 -173.580132 
L 140.044221 -173.580132 
L 140.79196 -173.580132 
L 141.539698 -173.580132 
L 142.287437 -173.580132 
L 143.035176 -173.580132 
L 143.782915 -173.580132 
L 144.530653 -173.580132 
L 145.278392 -173.580132 
L 146.026131 -173.580132 
L 146.773869 -173.580132 
L 147.521608 -173.580132 
L 148.269347 -173.580132 
L 149.017085 -173.580132 
L 149.764824 -173.580132 
L 150.512563 -173.580132 
L 151.260302 -173.580132 
L 152.00804 -173.580132 
L 152.755779 -173.580132 
L 153.503518 -173.580132 
L 154.251256 -173.580132 
L 154.998995 -173.580132 
L 155.746734 -173.580132 
L 156.494472 -173.580132 
L 157.242211 -173.580132 
L 157.98995 -173.580132 
L 158.737688 -173.580132 
L 159.485427 -173.580132 
L 160.233166 -173.580132 
L 160.980905 -173.580132 
L 161.728643 -173.580132 
L 162.476382 -173.580132 
L 163.224121 -173.580132 
L 163.971859 -173.580132 
L 164.719598 -173.580132 
L 165.467337 -173.580132 
L 166.215075 -173.580132 
L 166.962814 -173.580132 
L 167.710553 -173.580132 
L 168.458291 -173.580132 
L 169.20603 -173.580132 
L 169.953769 -173.580132 
L 170.701508 -173.580132 
L 171.449246 -173.580132 
L 172.196985 -173.580132 
L 172.944724 -173.580132 
L 173.692462 -173.580132 
L 174.440201 -173.580132 
L 175.18794 -173.580132 
L 175.935678 -173.580132 
L 176.683417 -173.580132 
L 177.431156 -173.580132 
L 178.178894 -173.580132 
L 178.926633 -173.580132 
L 179.674372 -173.580132 
L 180.422111 -173.580132 
L 181.169849 -173.580132 
L 181.917588 -173.580132 
L 182.665327 -173.580132 
L 183.413065 -173.580132 
L 184.160804 -173.580132 
L 184.908543 -173.580132 
L 185.656281 -173.580132 
L 186.40402 -173.580132 
L 187.151759 -173.580132 
L 187.899497 -173.580132 
L 188.647236 -173.580132 
L 189.394975 -173.580132 
L 190.142714 -173.580132 
L 190.890452 -173.580132 
L 191.638191 -173.580132 
L 192.38593 -173.580132 
L 193.133668 -173.580132 
L 193.881407 -173.580132 
L 194.629146 -173.580132 
L 195.376884 -173.580132 
L 196.124623 -173.580132 
L 196.872362 -173.580132 
L 197.620101 -173.580132 
L 198.367839 -173.580132 
L 199.115578 -173.580132 
L 199.863317 -173.580132 
L 200.611055 -173.580132 
L 201.358794 -173.580132 
L 202.106533 -173.580132 
L 202.854271 -173.580132 
L 203.60201 -173.580132 
L 204.349749 -173.580132 
L 205.097487 -173.580132 
L 205.845226 -173.580132 
L 206.592965 -173.580132 
L 207.340704 -173.580132 
L 208.088442 -173.580132 
L 208.836181 -173.580132 
L 209.58392 -173.580132 
L 210.331658 -173.580132 
L 211.079397 -173.580132 
L 211.827136 -173.580132 
L 212.574874 -173.580132 
L 213.322613 -173.580132 
L 214.070352 -173.580132 
L 214.81809 -173.580132 
L 215.565829 -173.580132 
L 216.313568 -173.580132 
L 217.061307 -173.580132 
L 217.809045 -173.580132 
L 218.556784 -173.580132 
L 219.304523 -173.580132 
L 220.052261 -173.580132 
L 220.8 -173.580132 
L 221.547739 -173.580132 
L 222.295477 -173.580132 
L 223.043216 -173.580132 
L 223.790955 -173.580132 
L 224.538693 -173.580132 
L 225.286432 -173.580132 
L 226.034171 -173.580132 
L 226.78191 -173.580132 
L 227.529648 -173.580132 
L 228.277387 -173.580132 
L 229.025126 -173.580132 
L 229.772864 -173.580132 
L 230.520603 -173.580132 
L 231.268342 -173.580132 
L 232.01608 -173.580132 
L 232.763819 -173.580132 
L 233.511558 -173.580132 
L 234.259296 -173.580132 
L 235.007035 -173.580132 
L 235.754774 -173.580132 
L 236.502513 -173.580132 
L 237.250251 -173.580132 
L 237.99799 -173.580132 
L 238.745729 -173.580132 
L 239.493467 -173.580132 
L 240.241206 -173.580132 
L 240.988945 -173.580132 
L 241.736683 -173.580132 
L 242.484422 -173.580132 
L 243.232161 -173.580132 
L 243.979899 -173.580132 
L 244.727638 -173.580132 
L 245.475377 -173.580132 
L 246.223116 -173.580132 
L 246.970854 -173.580132 
L 247.718593 -173.580132 
L 248.466332 -173.580132 
L 249.21407 -173.580132 
L 249.961809 -173.580132 
L 250.709548 -173.580132 
L 251.457286 -173.580132 
L 252.205025 -173.580132 
L 252.952764 -173.580132 
L 253.700503 -173.580132 
L 254.448241 -173.580132 
L 255.19598 -173.580132 
L 255.943719 -173.580132 
L 256.691457 -173.580132 
L 257.439196 -173.580132 
L 258.186935 -173.580132 
L 258.934673 -173.580132 
L 259.682412 -173.580132 
L 260.430151 -173.580132 
L 261.177889 -173.580132 
L 261.925628 -173.580132 
L 262.673367 -173.580132 
L 263.421106 -173.580132 
L 264.168844 -173.580132 
L 264.916583 -173.580132 
L 265.664322 -173.580132 
L 266.41206 -173.580132 
L 267.159799 -173.580132 
L 267.907538 -173.580132 
L 268.655276 -173.580132 
L 269.403015 -173.580132 
L 270.150754 -173.580132 
L 270.898492 -173.580132 
L 271.646231 -173.580132 
L 272.39397 -173.580132 
L 273.141709 -173.580132 
L 273.889447 -173.580132 
L 274.637186 -173.580132 
L 275.384925 -173.580132 
L 276.132663 -173.580132 
L 276.880402 -173.580132 
L 277.628141 -173.580132 
L 278.375879 -173.580132 
L 279.123618 -173.580132 
L 279.871357 -173.580132 
L 280.619095 -173.580132 
L 281.366834 -173.580132 
L 282.114573 -173.580132 
L 282.862312 -173.580132 
L 283.61005 -173.580132 
L 284.357789 -173.580132 
L 285.105528 -173.580132 
L 285.853266 -173.580132 
L 286.601005 -173.580132 
L 287.348744 -173.580132 
L 288.096482 -173.580132 
L 288.844221 -173.580132 
L 289.59196 -173.580132 
L 290.339698 -173.580132 
L 291.087437 -173.580132 
L 291.835176 -173.580132 
L 292.582915 -173.580132 
L 293.330653 -173.580132 
L 294.078392 -173.580132 
L 294.826131 -173.580132 
L 295.573869 -173.580132 
L 296.321608 -173.580132 
L 297.069347 -173.580132 
L 297.817085 -173.580132 
L 298.564824 -173.580132 
L 299.312563 -173.580132 
L 300.060302 -173.580132 
L 300.80804 -173.580132 
L 301.555779 -173.580132 
L 302.303518 -173.580132 
L 303.051256 -173.580132 
L 303.798995 -173.580132 
L 304.546734 -173.580132 
L 305.294472 -173.580132 
L 306.042211 -173.580132 
L 306.78995 -173.580132 
L 307.537688 -173.580132 
L 308.285427 -173.580132 
L 309.033166 -173.580132 
L 309.780905 -173.580132 
L 310.528643 -173.580132 
L 311.276382 -173.580132 
L 312.024121 -173.580132 
L 312.771859 -173.580132 
L 313.519598 -173.580132 
L 314.267337 -173.580132 
L 315.015075 -173.580132 
L 315.762814 -173.580132 
L 316.510553 -173.580132 
L 317.258291 -173.580132 
L 318.00603 -173.580132 
L 318.753769 -173.580132 
L 319.501508 -173.580132 
L 320.249246 -173.580132 
L 320.996985 -173.580132 
L 321.744724 -173.580132 
L 322.492462 -173.580132 
L 323.240201 -173.580132 
L 323.98794 -173.580132 
L 324.735678 -173.580132 
L 325.483417 -173.580132 
L 326.231156 -173.580132 
L 326.978894 -173.580132 
L 327.726633 -173.580132 
L 328.474372 -173.580132 
L 329.222111 -173.580132 
L 329.969849 -173.580132 
L 330.717588 -173.580132 
L 331.465327 -173.580132 
L 332.213065 -173.580132 
L 332.960804 -173.580132 
L 333.708543 -173.580132 
L 334.456281 -173.580132 
L 335.20402 -173.580132 
L 335.951759 -173.580132 
L 336.699497 -173.580132 
L 337.447236 -173.580132 
L 338.194975 -173.580132 
L 338.942714 -173.580132 
L 339.690452 -173.580132 
L 340.438191 -173.580132 
L 341.18593 -173.580132 
L 341.933668 -173.580132 
L 342.681407 -173.580132 
L 343.429146 -173.580132 
L 344.176884 -173.580132 
L 344.924623 -173.580132 
L 345.672362 -173.580132 
L 346.420101 -173.580132 
L 347.167839 -173.580132 
L 347.915578 -173.580132 
L 348.663317 -173.580132 
L 349.411055 -173.580132 
L 350.158794 -173.580132 
L 350.906533 -173.580132 
L 351.654271 -173.580132 
L 352.40201 -173.580132 
L 353.149749 -173.580132 
L 353.897487 -173.580132 
L 354.645226 -173.580132 
L 355.392965 -173.580132 
L 356.140704 -173.580132 
L 356.888442 -173.580132 
L 357.636181 -173.580132 
L 358.38392 -173.580132 
L 359.131658 -173.580132 
L 359.879397 -173.580132 
L 360.627136 -173.580132 
L 361.374874 -173.580132 
L 362.122613 -173.580132 
L 362.870352 -173.580132 
L 363.61809 -173.580132 
L 364.365829 -173.580132 
L 365.113568 -173.580132 
L 365.861307 -173.580132 
L 366.609045 -173.580132 
L 367.356784 -173.580132 
L 368.104523 -173.580132 
L 368.852261 -173.580132 
L 369.6 -173.580132 
L 370.347739 -173.580132 
L 371.095477 -173.580132 
L 371.843216 -173.580132 
L 372.590955 -173.580132 
L 373.338693 -173.580132 
L 374.086432 -173.580132 
L 374.834171 -173.580132 
L 375.58191 -173.580132 
L 376.329648 -173.580132 
L 377.077387 -173.580132 
L 377.825126 -173.580132 
L 378.572864 -173.580132 
L 379.320603 -173.580132 
L 380.068342 -173.580132 
L 380.81608 -173.580132 
L 381.563819 -173.580132 
L 382.311558 -173.580132 
L 383.059296 -173.580132 
L 383.807035 -173.580132 
L 384.554774 -173.580132 
L 385.302513 -173.580132 
L 386.050251 -173.580132 
L 386.79799 -173.580132 
L 387.545729 -173.580132 
L 388.293467 -173.580132 
L 389.041206 -173.580132 
L 389.788945 -173.580132 
L 390.536683 -173.580132 
L 391.284422 -173.580132 
L 392.032161 -173.580132 
L 392.779899 -173.580132 
L 393.527638 -173.580132 
L 394.275377 -173.580132 
L 395.023116 -173.580132 
L 395.770854 -173.580132 
L 396.518593 -173.580132 
L 397.266332 -173.580132 
L 398.01407 -173.580132 
L 398.761809 -173.580132 
L 399.509548 -173.580132 
L 400.257286 -173.580132 
L 401.005025 -173.580132 
L 401.752764 -173.580132 
L 402.500503 -173.580132 
L 403.248241 -173.580132 
L 403.99598 -173.580132 
L 404.743719 -173.580132 
L 405.491457 -173.580132 
L 406.239196 -173.580132 
L 406.986935 -173.580132 
L 407.734673 -173.580132 
L 408.482412 -173.580132 
L 409.230151 -173.580132 
L 409.977889 -173.580132 
L 410.725628 -173.580132 
L 411.473367 -173.580132 
L 412.221106 -173.580132 
L 412.968844 -173.580132 
L 413.716583 -173.580132 
L 414.464322 -173.580132 
L 415.21206 -173.580132 
L 415.959799 -173.580132 
L 416.707538 -173.580132 
L 417.455276 -173.580132 
L 418.203015 -173.580132 
L 418.950754 -173.580132 
L 419.698492 -173.580132 
L 420.446231 -173.580132 
L 421.19397 -173.580132 
L 421.941709 -173.580132 
L 422.689447 -173.580132 
L 423.437186 -173.580132 
L 424.184925 -173.580132 
L 424.932663 -173.580132 
L 425.680402 -173.580132 
L 426.428141 -173.580132 
L 427.175879 -173.580132 
L 427.923618 -173.580132 
L 428.671357 -173.580132 
L 429.419095 -173.580132 
L 430.166834 -173.580132 
L 430.914573 -173.580132 
L 431.662312 -173.580132 
L 432.41005 -173.580132 
L 433.157789 -173.580132 
L 433.905528 -173.580132 
L 434.653266 -173.580132 
L 435.401005 -173.580132 
L 436.148744 -173.580132 
L 436.896482 -173.580132 
L 437.644221 -173.580132 
L 438.39196 -173.580132 
L 439.139698 -173.580132 
L 439.887437 -173.580132 
L 440.635176 -173.580132 
L 441.382915 -173.580132 
L 442.130653 -173.580132 
L 442.878392 -173.580132 
L 443.626131 -173.580132 
L 444.373869 -173.580132 
L 445.121608 -173.580132 
L 445.869347 -173.580132 
L 446.617085 -173.580132 
L 447.364824 -173.580132 
L 448.112563 -173.580132 
L 448.860302 -173.580132 
L 449.60804 -173.580132 
L 450.355779 -173.580132 
L 451.103518 -173.580132 
L 451.851256 -173.580132 
L 452.598995 -173.580132 
L 453.346734 -173.580132 
L 454.094472 -173.580132 
L 454.842211 -173.580132 
L 455.58995 -173.580132 
L 456.337688 -173.580132 
L 457.085427 -173.580132 
L 457.833166 -173.580132 
L 458.580905 -173.580132 
L 459.328643 -173.580132 
L 460.076382 -173.580132 
L 460.824121 -173.580132 
L 461.571859 -173.580132 
L 462.319598 -173.580132 
L 463.067337 -173.580132 
L 463.815075 -173.580132 
L 464.562814 -173.580132 
L 465.310553 -173.580132 
L 466.058291 -173.580132 
L 466.80603 -173.580132 
L 467.553769 -173.580132 
L 468.301508 -173.580132 
L 469.049246 -173.580132 
L 469.796985 -173.580132 
L 470.544724 -173.580132 
L 471.292462 -173.580132 
L 472.040201 -173.580132 
L 472.78794 -173.580132 
L 473.535678 -173.580132 
L 474.283417 -173.580132 
L 475.031156 -173.580132 
L 475.778894 -173.580132 
L 476.526633 -173.580132 
L 477.274372 -173.580132 
L 478.022111 -173.580132 
L 478.769849 -173.580132 
L 479.517588 -173.580132 
L 480.265327 -173.580132 
L 481.013065 -173.580132 
L 481.760804 -173.580132 
L 482.508543 -173.580132 
L 483.256281 -173.580132 
L 484.00402 -173.580132 
L 484.751759 -173.580132 
L 485.499497 -173.580132 
L 486.247236 -173.580132 
L 486.994975 -173.580132 
L 487.742714 -173.580132 
L 488.490452 -173.580132 
L 489.238191 -173.580132 
L 489.98593 -173.580132 
L 490.733668 -173.580132 
L 491.481407 -173.580132 
L 492.229146 -173.580132 
L 492.976884 -173.580132 
L 493.724623 -173.580132 
L 494.472362 -173.580132 
L 495.220101 -173.580132 
L 495.967839 -173.580132 
L 496.715578 -173.580132 
L 497.463317 -173.580132 
L 498.211055 -173.580132 
L 498.958794 -173.580132 
L 499.706533 -173.580132 
L 500.454271 -173.580132 
L 501.20201 -173.580132 
L 501.949749 -173.580132 
L 502.697487 -173.580132 
L 503.445226 -173.580132 
L 504.192965 -173.580132 
L 504.940704 -173.580132 
L 505.688442 -173.580132 
L 506.436181 -173.580132 
L 507.18392 -173.580132 
L 507.931658 -173.580132 
L 508.679397 -173.580132 
L 509.427136 -173.580132 
L 510.174874 -173.580132 
L 510.922613 -173.580132 
L 511.670352 -173.580132 
L 512.41809 -173.580132 
L 513.165829 -173.580132 
L 513.913568 -173.580132 
L 514.661307 -173.580132 
L 515.409045 -173.580132 
L 516.156784 -173.580132 
L 516.904523 -173.580132 
L 517.652261 -173.580132 
L 518.4 -173.580132 
L 518.4 -166.000219 
L 518.4 -166.000219 
L 517.652261 -166.000219 
L 516.904523 -166.000219 
L 516.156784 -166.000219 
L 515.409045 -166.000219 
L 514.661307 -166.000219 
L 513.913568 -166.000219 
L 513.165829 -166.000219 
L 512.41809 -166.000219 
L 511.670352 -166.000219 
L 510.922613 -166.000219 
L 510.174874 -166.000219 
L 509.427136 -166.000219 
L 508.679397 -166.000219 
L 507.931658 -166.000219 
L 507.18392 -166.000219 
L 506.436181 -166.000219 
L 505.688442 -166.000219 
L 504.940704 -166.000219 
L 504.192965 -166.000219 
L 503.445226 -166.000219 
L 502.697487 -166.000219 
L 501.949749 -166.000219 
L 501.20201 -166.000219 
L 500.454271 -166.000219 
L 499.706533 -166.000219 
L 498.958794 -166.000219 
L 498.211055 -166.000219 
L 497.463317 -166.000219 
L 496.715578 -166.000219 
L 495.967839 -166.000219 
L 495.220101 -166.000219 
L 494.472362 -166.000219 
L 493.724623 -166.000219 
L 492.976884 -166.000219 
L 492.229146 -166.000219 
L 491.481407 -166.000219 
L 490.733668 -166.000219 
L 489.98593 -166.000219 
L 489.238191 -166.000219 
L 488.490452 -166.000219 
L 487.742714 -166.000219 
L 486.994975 -166.000219 
L 486.247236 -166.000219 
L 485.499497 -166.000219 
L 484.751759 -166.000219 
L 484.00402 -166.000219 
L 483.256281 -166.000219 
L 482.508543 -166.000219 
L 481.760804 -166.000219 
L 481.013065 -166.000219 
L 480.265327 -166.000219 
L 479.517588 -166.000219 
L 478.769849 -166.000219 
L 478.022111 -166.000219 
L 477.274372 -166.000219 
L 476.526633 -166.000219 
L 475.778894 -166.000219 
L 475.031156 -166.000219 
L 474.283417 -166.000219 
L 473.535678 -166.000219 
L 472.78794 -166.000219 
L 472.040201 -166.000219 
L 471.292462 -166.000219 
L 470.544724 -166.000219 
L 469.796985 -166.000219 
L 469.049246 -166.000219 
L 468.301508 -166.000219 
L 467.553769 -166.000219 
L 466.80603 -166.000219 
L 466.058291 -166.000219 
L 465.310553 -166.000219 
L 464.562814 -166.000219 
L 463.815075 -166.000219 
L 463.067337 -166.000219 
L 462.319598 -166.000219 
L 461.571859 -166.000219 
L 460.824121 -166.000219 
L 460.076382 -166.000219 
L 459.328643 -166.000219 
L 458.580905 -166.000219 
L 457.833166 -166.000219 
L 457.085427 -166.000219 
L 456.337688 -166.000219 
L 455.58995 -166.000219 
L 454.842211 -166.000219 
L 454.094472 -166.000219 
L 453.346734 -166.000219 
L 452.598995 -166.000219 
L 451.851256 -166.000219 
L 451.103518 -166.000219 
L 450.355779 -166.000219 
L 449.60804 -166.000219 
L 448.860302 -166.000219 
L 448.112563 -166.000219 
L 447.364824 -166.000219 
L 446.617085 -166.000219 
L 445.869347 -166.000219 
L 445.121608 -166.000219 
L 444.373869 -166.000219 
L 443.626131 -166.000219 
L 442.878392 -166.000219 
L 442.130653 -166.000219 
L 441.382915 -166.000219 
L 440.635176 -166.000219 
L 439.887437 -166.000219 
L 439.139698 -166.000219 
L 438.39196 -166.000219 
L 437.644221 -166.000219 
L 436.896482 -166.000219 
L 436.148744 -166.000219 
L 435.401005 -166.000219 
L 434.653266 -166.000219 
L 433.905528 -166.000219 
L 433.157789 -166.000219 
L 432.41005 -166.000219 
L 431.662312 -166.000219 
L 430.914573 -166.000219 
L 430.166834 -166.000219 
L 429.419095 -166.000219 
L 428.671357 -166.000219 
L 427.923618 -166.000219 
L 427.175879 -166.000219 
L 426.428141 -166.000219 
L 425.680402 -166.000219 
L 424.932663 -166.000219 
L 424.184925 -166.000219 
L 423.437186 -166.000219 
L 422.689447 -166.000219 
L 421.941709 -166.000219 
L 421.19397 -166.000219 
L 420.446231 -166.000219 
L 419.698492 -166.000219 
L 418.950754 -166.000219 
L 418.203015 -166.000219 
L 417.455276 -166.000219 
L 416.707538 -166.000219 
L 415.959799 -166.000219 
L 415.21206 -166.000219 
L 414.464322 -166.000219 
L 413.716583 -166.000219 
L 412.968844 -166.000219 
L 412.221106 -166.000219 
L 411.473367 -166.000219 
L 410.725628 -166.000219 
L 409.977889 -166.000219 
L 409.230151 -166.000219 
L 408.482412 -166.000219 
L 407.734673 -166.000219 
L 406.986935 -166.000219 
L 406.239196 -166.000219 
L 405.491457 -166.000219 
L 404.743719 -166.000219 
L 403.99598 -166.000219 
L 403.248241 -166.000219 
L 402.500503 -166.000219 
L 401.752764 -166.000219 
L 401.005025 -166.000219 
L 400.257286 -166.000219 
L 399.509548 -166.000219 
L 398.761809 -166.000219 
L 398.01407 -166.000219 
L 397.266332 -166.000219 
L 396.518593 -166.000219 
L 395.770854 -166.000219 
L 395.023116 -166.000219 
L 394.275377 -166.000219 
L 393.527638 -166.000219 
L 392.779899 -166.000219 
L 392.032161 -166.000219 
L 391.284422 -166.000219 
L 390.536683 -166.000219 
L 389.788945 -166.000219 
L 389.041206 -166.000219 
L 388.293467 -166.000219 
L 387.545729 -166.000219 
L 386.79799 -166.000219 
L 386.050251 -166.000219 
L 385.302513 -166.000219 
L 384.554774 -166.000219 
L 383.807035 -166.000219 
L 383.059296 -166.000219 
L 382.311558 -166.000219 
L 381.563819 -166.000219 
L 380.81608 -166.000219 
L 380.068342 -166.000219 
L 379.320603 -166.000219 
L 378.572864 -166.000219 
L 377.825126 -166.000219 
L 377.077387 -166.000219 
L 376.329648 -166.000219 
L 375.58191 -166.000219 
L 374.834171 -166.000219 
L 374.086432 -166.000219 
L 373.338693 -166.000219 
L 372.590955 -166.000219 
L 371.843216 -166.000219 
L 371.095477 -166.000219 
L 370.347739 -166.000219 
L 369.6 -166.000219 
L 368.852261 -166.000219 
L 368.104523 -166.000219 
L 367.356784 -166.000219 
L 366.609045 -166.000219 
L 365.861307 -166.000219 
L 365.113568 -166.000219 
L 364.365829 -166.000219 
L 363.61809 -166.000219 
L 362.870352 -166.000219 
L 362.122613 -166.000219 
L 361.374874 -166.000219 
L 360.627136 -166.000219 
L 359.879397 -166.000219 
L 359.131658 -166.000219 
L 358.38392 -166.000219 
L 357.636181 -166.000219 
L 356.888442 -166.000219 
L 356.140704 -166.000219 
L 355.392965 -166.000219 
L 354.645226 -166.000219 
L 353.897487 -166.000219 
L 353.149749 -166.000219 
L 352.40201 -166.000219 
L 351.654271 -166.000219 
L 350.906533 -166.000219 
L 350.158794 -166.000219 
L 349.411055 -166.000219 
L 348.663317 -166.000219 
L 347.915578 -166.000219 
L 347.167839 -166.000219 
L 346.420101 -166.000219 
L 345.672362 -166.000219 
L 344.924623 -166.000219 
L 344.176884 -166.000219 
L 343.429146 -166.000219 
L 342.681407 -166.000219 
L 341.933668 -166.000219 
L 341.18593 -166.000219 
L 340.438191 -166.000219 
L 339.690452 -166.000219 
L 338.942714 -166.000219 
L 338.194975 -166.000219 
L 337.447236 -166.000219 
L 336.699497 -166.000219 
L 335.951759 -166.000219 
L 335.20402 -166.000219 
L 334.456281 -166.000219 
L 333.708543 -166.000219 
L 332.960804 -166.000219 
L 332.213065 -166.000219 
L 331.465327 -166.000219 
L 330.717588 -166.000219 
L 329.969849 -166.000219 
L 329.222111 -166.000219 
L 328.474372 -166.000219 
L 327.726633 -166.000219 
L 326.978894 -166.000219 
L 326.231156 -166.000219 
L 325.483417 -166.000219 
L 324.735678 -166.000219 
L 323.98794 -166.000219 
L 323.240201 -166.000219 
L 322.492462 -166.000219 
L 321.744724 -166.000219 
L 320.996985 -166.000219 
L 320.249246 -166.000219 
L 319.501508 -166.000219 
L 318.753769 -166.000219 
L 318.00603 -166.000219 
L 317.258291 -166.000219 
L 316.510553 -166.000219 
L 315.762814 -166.000219 
L 315.015075 -166.000219 
L 314.267337 -166.000219 
L 313.519598 -166.000219 
L 312.771859 -166.000219 
L 312.024121 -166.000219 
L 311.276382 -166.000219 
L 310.528643 -166.000219 
L 309.780905 -166.000219 
L 309.033166 -166.000219 
L 308.285427 -166.000219 
L 307.537688 -166.000219 
L 306.78995 -166.000219 
L 306.042211 -166.000219 
L 305.294472 -166.000219 
L 304.546734 -166.000219 
L 303.798995 -166.000219 
L 303.051256 -166.000219 
L 302.303518 -166.000219 
L 301.555779 -166.000219 
L 300.80804 -166.000219 
L 300.060302 -166.000219 
L 299.312563 -166.000219 
L 298.564824 -166.000219 
L 297.817085 -166.000219 
L 297.069347 -166.000219 
L 296.321608 -166.000219 
L 295.573869 -166.000219 
L 294.826131 -166.000219 
L 294.078392 -166.000219 
L 293.330653 -166.000219 
L 292.582915 -166.000219 
L 291.835176 -166.000219 
L 291.087437 -166.000219 
L 290.339698 -166.000219 
L 289.59196 -166.000219 
L 288.844221 -166.000219 
L 288.096482 -166.000219 
L 287.348744 -166.000219 
L 286.601005 -166.000219 
L 285.853266 -166.000219 
L 285.105528 -166.000219 
L 284.357789 -166.000219 
L 283.61005 -166.000219 
L 282.862312 -166.000219 
L 282.114573 -166.000219 
L 281.366834 -166.000219 
L 280.619095 -166.000219 
L 279.871357 -166.000219 
L 279.123618 -166.000219 
L 278.375879 -166.000219 
L 277.628141 -166.000219 
L 276.880402 -166.000219 
L 276.132663 -166.000219 
L 275.384925 -166.000219 
L 274.637186 -166.000219 
L 273.889447 -166.000219 
L 273.141709 -166.000219 
L 272.39397 -166.000219 
L 271.646231 -166.000219 
L 270.898492 -166.000219 
L 270.150754 -166.000219 
L 269.403015 -166.000219 
L 268.655276 -166.000219 
L 267.907538 -166.000219 
L 267.159799 -166.000219 
L 266.41206 -166.000219 
L 265.664322 -166.000219 
L 264.916583 -166.000219 
L 264.168844 -166.000219 
L 263.421106 -166.000219 
L 262.673367 -166.000219 
L 261.925628 -166.000219 
L 261.177889 -166.000219 
L 260.430151 -166.000219 
L 259.682412 -166.000219 
L 258.934673 -166.000219 
L 258.186935 -166.000219 
L 257.439196 -166.000219 
L 256.691457 -166.000219 
L 255.943719 -166.000219 
L 255.19598 -166.000219 
L 254.448241 -166.000219 
L 253.700503 -166.000219 
L 252.952764 -166.000219 
L 252.205025 -166.000219 
L 251.457286 -166.000219 
L 250.709548 -166.000219 
L 249.961809 -166.000219 
L 249.21407 -166.000219 
L 248.466332 -166.000219 
L 247.718593 -166.000219 
L 246.970854 -166.000219 
L 246.223116 -166.000219 
L 245.475377 -166.000219 
L 244.727638 -166.000219 
L 243.979899 -166.000219 
L 243.232161 -166.000219 
L 242.484422 -166.000219 
L 241.736683 -166.000219 
L 240.988945 -166.000219 
L 240.241206 -166.000219 
L 239.493467 -166.000219 
L 238.745729 -166.000219 
L 237.99799 -166.000219 
L 237.250251 -166.000219 
L 236.502513 -166.000219 
L 235.754774 -166.000219 
L 235.007035 -166.000219 
L 234.259296 -166.000219 
L 233.511558 -166.000219 
L 232.763819 -166.000219 
L 232.01608 -166.000219 
L 231.268342 -166.000219 
L 230.520603 -166.000219 
L 229.772864 -166.000219 
L 229.025126 -166.000219 
L 228.277387 -166.000219 
L 227.529648 -166.000219 
L 226.78191 -166.000219 
L 226.034171 -166.000219 
L 225.286432 -166.000219 
L 224.538693 -166.000219 
L 223.790955 -166.000219 
L 223.043216 -166.000219 
L 222.295477 -166.000219 
L 221.547739 -166.000219 
L 220.8 -166.000219 
L 220.052261 -166.000219 
L 219.304523 -166.000219 
L 218.556784 -166.000219 
L 217.809045 -166.000219 
L 217.061307 -166.000219 
L 216.313568 -166.000219 
L 215.565829 -166.000219 
L 214.81809 -166.000219 
L 214.070352 -166.000219 
L 213.322613 -166.000219 
L 212.574874 -166.000219 
L 211.827136 -166.000219 
L 211.079397 -166.000219 
L 210.331658 -166.000219 
L 209.58392 -166.000219 
L 208.836181 -166.000219 
L 208.088442 -166.000219 
L 207.340704 -166.000219 
L 206.592965 -166.000219 
L 205.845226 -166.000219 
L 205.097487 -166.000219 
L 204.349749 -166.000219 
L 203.60201 -166.000219 
L 202.854271 -166.000219 
L 202.106533 -166.000219 
L 201.358794 -166.000219 
L 200.611055 -166.000219 
L 199.863317 -166.000219 
L 199.115578 -166.000219 
L 198.367839 -166.000219 
L 197.620101 -166.000219 
L 196.872362 -166.000219 
L 196.124623 -166.000219 
L 195.376884 -166.000219 
L 194.629146 -166.000219 
L 193.881407 -166.000219 
L 193.133668 -166.000219 
L 192.38593 -166.000219 
L 191.638191 -166.000219 
L 190.890452 -166.000219 
L 190.142714 -166.000219 
L 189.394975 -166.000219 
L 188.647236 -166.000219 
L 187.899497 -166.000219 
L 187.151759 -166.000219 
L 186.40402 -166.000219 
L 185.656281 -166.000219 
L 184.908543 -166.000219 
L 184.160804 -166.000219 
L 183.413065 -166.000219 
L 182.665327 -166.000219 
L 181.917588 -166.000219 
L 181.169849 -166.000219 
L 180.422111 -166.000219 
L 179.674372 -166.000219 
L 178.926633 -166.000219 
L 178.178894 -166.000219 
L 177.431156 -166.000219 
L 176.683417 -166.000219 
L 175.935678 -166.000219 
L 175.18794 -166.000219 
L 174.440201 -166.000219 
L 173.692462 -166.000219 
L 172.944724 -166.000219 
L 172.196985 -166.000219 
L 171.449246 -166.000219 
L 170.701508 -166.000219 
L 169.953769 -166.000219 
L 169.20603 -166.000219 
L 168.458291 -166.000219 
L 167.710553 -166.000219 
L 166.962814 -166.000219 
L 166.215075 -166.000219 
L 165.467337 -166.000219 
L 164.719598 -166.000219 
L 163.971859 -166.000219 
L 163.224121 -166.000219 
L 162.476382 -166.000219 
L 161.728643 -166.000219 
L 160.980905 -166.000219 
L 160.233166 -166.000219 
L 159.485427 -166.000219 
L 158.737688 -166.000219 
L 157.98995 -166.000219 
L 157.242211 -166.000219 
L 156.494472 -166.000219 
L 155.746734 -166.000219 
L 154.998995 -166.000219 
L 154.251256 -166.000219 
L 153.503518 -166.000219 
L 152.755779 -166.000219 
L 152.00804 -166.000219 
L 151.260302 -166.000219 
L 150.512563 -166.000219 
L 149.764824 -166.000219 
L 149.017085 -166.000219 
L 148.269347 -166.000219 
L 147.521608 -166.000219 
L 146.773869 -166.000219 
L 146.026131 -166.000219 
L 145.278392 -166.000219 
L 144.530653 -166.000219 
L 143.782915 -166.000219 
L 143.035176 -166.000219 
L 142.287437 -166.000219 
L 141.539698 -166.000219 
L 140.79196 -166.000219 
L 140.044221 -166.000219 
L 139.296482 -166.000219 
L 138.548744 -166.000219 
L 137.801005 -166.000219 
L 137.053266 -166.000219 
L 136.305528 -166.000219 
L 135.557789 -166.000219 
L 134.81005 -166.000219 
L 134.062312 -166.000219 
L 133.314573 -166.000219 
L 132.566834 -166.000219 
L 131.819095 -166.000219 
L 131.071357 -166.000219 
L 130.323618 -166.000219 
L 129.575879 -166.000219 
L 128.828141 -166.000219 
L 128.080402 -166.000219 
L 127.332663 -166.000219 
L 126.584925 -166.000219 
L 125.837186 -166.000219 
L 125.089447 -166.000219 
L 124.341709 -166.000219 
L 123.59397 -166.000219 
L 122.846231 -166.000219 
L 122.098492 -166.000219 
L 121.350754 -166.000219 
L 120.603015 -166.000219 
L 119.855276 -166.000219 
L 119.107538 -166.000219 
L 118.359799 -166.000219 
L 117.61206 -166.000219 
L 116.864322 -166.000219 
L 116.116583 -166.000219 
L 115.368844 -166.000219 
L 114.621106 -166.000219 
L 113.873367 -166.000219 
L 113.125628 -166.000219 
L 112.377889 -166.000219 
L 111.630151 -166.000219 
L 110.882412 -166.000219 
L 110.134673 -166.000219 
L 109.386935 -166.000219 
L 108.639196 -166.000219 
L 107.891457 -166.000219 
L 107.143719 -166.000219 
L 106.39598 -166.000219 
L 105.648241 -166.000219 
L 104.900503 -166.000219 
L 104.152764 -166.000219 
L 103.405025 -166.000219 
L 102.657286 -166.000219 
L 101.909548 -166.000219 
L 101.161809 -166.000219 
L 100.41407 -166.000219 
L 99.666332 -166.000219 
L 98.918593 -166.000219 
L 98.170854 -166.000219 
L 97.423116 -166.000219 
L 96.675377 -166.000219 
L 95.927638 -166.000219 
L 95.179899 -166.000219 
L 94.432161 -166.000219 
L 93.684422 -166.000219 
L 92.936683 -166.000219 
L 92.188945 -166.000219 
L 91.441206 -166.000219 
L 90.693467 -166.000219 
L 89.945729 -166.000219 
L 89.19799 -166.000219 
L 88.450251 -166.000219 
L 87.702513 -166.000219 
L 86.954774 -166.000219 
L 86.207035 -166.000219 
L 85.459296 -166.000219 
L 84.711558 -166.000219 
L 83.963819 -166.000219 
L 83.21608 -166.000219 
L 82.468342 -166.000219 
L 81.720603 -166.000219 
L 80.972864 -166.000219 
L 80.225126 -166.000219 
L 79.477387 -166.000219 
L 78.729648 -166.000219 
L 77.98191 -166.000219 
L 77.234171 -166.000219 
L 76.486432 -166.000219 
L 75.738693 -166.000219 
L 74.990955 -166.000219 
L 74.243216 -166.000219 
L 73.495477 -166.000219 
L 72.747739 -166.000219 
L 72 -166.000219 
z
" id="mc80ecbb906"/>
    </defs>
    <g clip-path="url(#p826f7456ac)">
     <use style="fill-opacity:0.15;" x="0" xlink:href="#mc80ecbb906" y="360"/>
    </g>
   </g>
   <g id="matplotlib.axis_1">
    <g id="xtick_1">
     <g id="line2d_1">
      <defs>
       <path d="M 0 0 
L 0 3.5 
" id="mb6b92158eb" style="stroke:#000000;stroke-width:0.8;"/>
      </defs>
      <g>
       <use style="stroke:#000000;stroke-width:0.8;" x="72" xlink:href="#mb6b92158eb" y="320.4"/>
      </g>
     </g>
     <g id="text_1">
      <!-- 0.0 -->
      <g transform="translate(60.867812 338.037813)scale(0.14 -0.14)">
       <defs>
        <path d="M 2034 4250 
Q 1547 4250 1301 3770 
Q 1056 3291 1056 2328 
Q 1056 1369 1301 889 
Q 1547 409 2034 409 
Q 2525 409 2770 889 
Q 3016 1369 3016 2328 
Q 3016 3291 2770 3770 
Q 2525 4250 2034 4250 
z
M 2034 4750 
Q 2819 4750 3233 4129 
Q 3647 3509 3647 2328 
Q 3647 1150 3233 529 
Q 2819 -91 2034 -91 
Q 1250 -91 836 529 
Q 422 1150 422 2328 
Q 422 3509 836 4129 
Q 1250 4750 2034 4750 
z
" id="DejaVuSans-30" transform="scale(0.015625)"/>
        <path d="M 684 794 
L 1344 794 
L 1344 0 
L 684 0 
L 684 794 
z
" id="DejaVuSans-2e" transform="scale(0.015625)"/>
       </defs>
       <use xlink:href="#DejaVuSans-30"/>
       <use x="63.623047" xlink:href="#DejaVuSans-2e"/>
       <use x="95.410156" xlink:href="#DejaVuSans-30"/>
      </g>
     </g>
    </g>
    <g id="xtick_2">
     <g id="line2d_2">
      <g>
       <use style="stroke:#000000;stroke-width:0.8;" x="127.8335" xlink:href="#mb6b92158eb" y="320.4"/>
      </g>
     </g>
     <g id="text_2">
      <!-- 2.5 -->
      <g transform="translate(116.701313 338.037813)scale(0.14 -0.14)">
       <defs>
        <path d="M 1228 531 
L 3431 531 
L 3431 0 
L 469 0 
L 469 531 
Q 828 903 1448 1529 
Q 2069 2156 2228 2338 
Q 2531 2678 2651 2914 
Q 2772 3150 2772 3378 
Q 2772 3750 2511 3984 
Q 2250 4219 1831 4219 
Q 1534 4219 1204 4116 
Q 875 4013 500 3803 
L 500 4441 
Q 881 4594 1212 4672 
Q 1544 4750 1819 4750 
Q 2544 4750 2975 4387 
Q 3406 4025 3406 3419 
Q 3406 3131 3298 2873 
Q 3191 2616 2906 2266 
Q 2828 2175 2409 1742 
Q 1991 1309 1228 531 
z
" id="DejaVuSans-32" transform="scale(0.015625)"/>
        <path d="M 691 4666 
L 3169 4666 
L 3169 4134 
L 1269 4134 
L 1269 2991 
Q 1406 3038 1543 3061 
Q 1681 3084 1819 3084 
Q 2600 3084 3056 2656 
Q 3513 2228 3513 1497 
Q 3513 744 3044 326 
Q 2575 -91 1722 -91 
Q 1428 -91 1123 -41 
Q 819 9 494 109 
L 494 744 
Q 775 591 1075 516 
Q 1375 441 1709 441 
Q 2250 441 2565 725 
Q 2881 1009 2881 1497 
Q 2881 1984 2565 2268 
Q 2250 2553 1709 2553 
Q 1456 2553 1204 2497 
Q 953 2441 691 2322 
L 691 4666 
z
" id="DejaVuSans-35" transform="scale(0.015625)"/>
       </defs>
       <use xlink:href="#DejaVuSans-32"/>
       <use x="63.623047" xlink:href="#DejaVuSans-2e"/>
       <use x="95.410156" xlink:href="#DejaVuSans-35"/>
      </g>
     </g>
    </g>
    <g id="xtick_3">
     <g id="line2d_3">
      <g>
       <use style="stroke:#000000;stroke-width:0.8;" x="183.667" xlink:href="#mb6b92158eb" y="320.4"/>
      </g>
     </g>
     <g id="text_3">
      <!-- 5.0 -->
      <g transform="translate(172.534813 338.037813)scale(0.14 -0.14)">
       <use xlink:href="#DejaVuSans-35"/>
       <use x="63.623047" xlink:href="#DejaVuSans-2e"/>
       <use x="95.410156" xlink:href="#DejaVuSans-30"/>
      </g>
     </g>
    </g>
    <g id="xtick_4">
     <g id="line2d_4">
      <g>
       <use style="stroke:#000000;stroke-width:0.8;" x="239.5005" xlink:href="#mb6b92158eb" y="320.4"/>
      </g>
     </g>
     <g id="text_4">
      <!-- 7.5 -->
      <g transform="translate(228.368313 338.037813)scale(0.14 -0.14)">
       <defs>
        <path d="M 525 4666 
L 3525 4666 
L 3525 4397 
L 1831 0 
L 1172 0 
L 2766 4134 
L 525 4134 
L 525 4666 
z
" id="DejaVuSans-37" transform="scale(0.015625)"/>
       </defs>
       <use xlink:href="#DejaVuSans-37"/>
       <use x="63.623047" xlink:href="#DejaVuSans-2e"/>
       <use x="95.410156" xlink:href="#DejaVuSans-35"/>
      </g>
     </g>
    </g>
    <g id="xtick_5">
     <g id="line2d_5">
      <g>
       <use style="stroke:#000000;stroke-width:0.8;" x="295.334" xlink:href="#mb6b92158eb" y="320.4"/>
      </g>
     </g>
     <g id="text_5">
      <!-- 10.0 -->
      <g transform="translate(279.748063 338.037813)scale(0.14 -0.14)">
       <defs>
        <path d="M 794 531 
L 1825 531 
L 1825 4091 
L 703 3866 
L 703 4441 
L 1819 4666 
L 2450 4666 
L 2450 531 
L 3481 531 
L 3481 0 
L 794 0 
L 794 531 
z
" id="DejaVuSans-31" transform="scale(0.015625)"/>
       </defs>
       <use xlink:href="#DejaVuSans-31"/>
       <use x="63.623047" xlink:href="#DejaVuSans-30"/>
       <use x="127.246094" xlink:href="#DejaVuSans-2e"/>
       <use x="159.033203" xlink:href="#DejaVuSans-30"/>
      </g>
     </g>
    </g>
    <g id="xtick_6">
     <g id="line2d_6">
      <g>
       <use style="stroke:#000000;stroke-width:0.8;" x="351.167501" xlink:href="#mb6b92158eb" y="320.4"/>
      </g>
     </g>
     <g id="text_6">
      <!-- 12.5 -->
      <g transform="translate(335.581563 338.037813)scale(0.14 -0.14)">
       <use xlink:href="#DejaVuSans-31"/>
       <use x="63.623047" xlink:href="#DejaVuSans-32"/>
       <use x="127.246094" xlink:href="#DejaVuSans-2e"/>
       <use x="159.033203" xlink:href="#DejaVuSans-35"/>
      </g>
     </g>
    </g>
    <g id="xtick_7">
     <g id="line2d_7">
      <g>
       <use style="stroke:#000000;stroke-width:0.8;" x="407.001001" xlink:href="#mb6b92158eb" y="320.4"/>
      </g>
     </g>
     <g id="text_7">
      <!-- 15.0 -->
      <g transform="translate(391.415063 338.037813)scale(0.14 -0.14)">
       <use xlink:href="#DejaVuSans-31"/>
       <use x="63.623047" xlink:href="#DejaVuSans-35"/>
       <use x="127.246094" xlink:href="#DejaVuSans-2e"/>
       <use x="159.033203" xlink:href="#DejaVuSans-30"/>
      </g>
     </g>
    </g>
    <g id="xtick_8">
     <g id="line2d_8">
      <g>
       <use style="stroke:#000000;stroke-width:0.8;" x="462.834501" xlink:href="#mb6b92158eb" y="320.4"/>
      </g>
     </g>
     <g id="text_8">
      <!-- 17.5 -->
      <g transform="translate(447.248563 338.037813)scale(0.14 -0.14)">
       <use xlink:href="#DejaVuSans-31"/>
       <use x="63.623047" xlink:href="#DejaVuSans-37"/>
       <use x="127.246094" xlink:href="#DejaVuSans-2e"/>
       <use x="159.033203" xlink:href="#DejaVuSans-35"/>
      </g>
     </g>
    </g>
    <g id="text_9">
     <!-- Time [Seconds] -->
     <g transform="translate(233.23 357.106875)scale(0.16 -0.16)">
      <defs>
       <path d="M -19 4666 
L 3928 4666 
L 3928 4134 
L 2272 4134 
L 2272 0 
L 1638 0 
L 1638 4134 
L -19 4134 
L -19 4666 
z
" id="DejaVuSans-54" transform="scale(0.015625)"/>
       <path d="M 603 3500 
L 1178 3500 
L 1178 0 
L 603 0 
L 603 3500 
z
M 603 4863 
L 1178 4863 
L 1178 4134 
L 603 4134 
L 603 4863 
z
" id="DejaVuSans-69" transform="scale(0.015625)"/>
       <path d="M 3328 2828 
Q 3544 3216 3844 3400 
Q 4144 3584 4550 3584 
Q 5097 3584 5394 3201 
Q 5691 2819 5691 2113 
L 5691 0 
L 5113 0 
L 5113 2094 
Q 5113 2597 4934 2840 
Q 4756 3084 4391 3084 
Q 3944 3084 3684 2787 
Q 3425 2491 3425 1978 
L 3425 0 
L 2847 0 
L 2847 2094 
Q 2847 2600 2669 2842 
Q 2491 3084 2119 3084 
Q 1678 3084 1418 2786 
Q 1159 2488 1159 1978 
L 1159 0 
L 581 0 
L 581 3500 
L 1159 3500 
L 1159 2956 
Q 1356 3278 1631 3431 
Q 1906 3584 2284 3584 
Q 2666 3584 2933 3390 
Q 3200 3197 3328 2828 
z
" id="DejaVuSans-6d" transform="scale(0.015625)"/>
       <path d="M 3597 1894 
L 3597 1613 
L 953 1613 
Q 991 1019 1311 708 
Q 1631 397 2203 397 
Q 2534 397 2845 478 
Q 3156 559 3463 722 
L 3463 178 
Q 3153 47 2828 -22 
Q 2503 -91 2169 -91 
Q 1331 -91 842 396 
Q 353 884 353 1716 
Q 353 2575 817 3079 
Q 1281 3584 2069 3584 
Q 2775 3584 3186 3129 
Q 3597 2675 3597 1894 
z
M 3022 2063 
Q 3016 2534 2758 2815 
Q 2500 3097 2075 3097 
Q 1594 3097 1305 2825 
Q 1016 2553 972 2059 
L 3022 2063 
z
" id="DejaVuSans-65" transform="scale(0.015625)"/>
       <path id="DejaVuSans-20" transform="scale(0.015625)"/>
       <path d="M 550 4863 
L 1875 4863 
L 1875 4416 
L 1125 4416 
L 1125 -397 
L 1875 -397 
L 1875 -844 
L 550 -844 
L 550 4863 
z
" id="DejaVuSans-5b" transform="scale(0.015625)"/>
       <path d="M 3425 4513 
L 3425 3897 
Q 3066 4069 2747 4153 
Q 2428 4238 2131 4238 
Q 1616 4238 1336 4038 
Q 1056 3838 1056 3469 
Q 1056 3159 1242 3001 
Q 1428 2844 1947 2747 
L 2328 2669 
Q 3034 2534 3370 2195 
Q 3706 1856 3706 1288 
Q 3706 609 3251 259 
Q 2797 -91 1919 -91 
Q 1588 -91 1214 -16 
Q 841 59 441 206 
L 441 856 
Q 825 641 1194 531 
Q 1563 422 1919 422 
Q 2459 422 2753 634 
Q 3047 847 3047 1241 
Q 3047 1584 2836 1778 
Q 2625 1972 2144 2069 
L 1759 2144 
Q 1053 2284 737 2584 
Q 422 2884 422 3419 
Q 422 4038 858 4394 
Q 1294 4750 2059 4750 
Q 2388 4750 2728 4690 
Q 3069 4631 3425 4513 
z
" id="DejaVuSans-53" transform="scale(0.015625)"/>
       <path d="M 3122 3366 
L 3122 2828 
Q 2878 2963 2633 3030 
Q 2388 3097 2138 3097 
Q 1578 3097 1268 2742 
Q 959 2388 959 1747 
Q 959 1106 1268 751 
Q 1578 397 2138 397 
Q 2388 397 2633 464 
Q 2878 531 3122 666 
L 3122 134 
Q 2881 22 2623 -34 
Q 2366 -91 2075 -91 
Q 1284 -91 818 406 
Q 353 903 353 1747 
Q 353 2603 823 3093 
Q 1294 3584 2113 3584 
Q 2378 3584 2631 3529 
Q 2884 3475 3122 3366 
z
" id="DejaVuSans-63" transform="scale(0.015625)"/>
       <path d="M 1959 3097 
Q 1497 3097 1228 2736 
Q 959 2375 959 1747 
Q 959 1119 1226 758 
Q 1494 397 1959 397 
Q 2419 397 2687 759 
Q 2956 1122 2956 1747 
Q 2956 2369 2687 2733 
Q 2419 3097 1959 3097 
z
M 1959 3584 
Q 2709 3584 3137 3096 
Q 3566 2609 3566 1747 
Q 3566 888 3137 398 
Q 2709 -91 1959 -91 
Q 1206 -91 779 398 
Q 353 888 353 1747 
Q 353 2609 779 3096 
Q 1206 3584 1959 3584 
z
" id="DejaVuSans-6f" transform="scale(0.015625)"/>
       <path d="M 3513 2113 
L 3513 0 
L 2938 0 
L 2938 2094 
Q 2938 2591 2744 2837 
Q 2550 3084 2163 3084 
Q 1697 3084 1428 2787 
Q 1159 2491 1159 1978 
L 1159 0 
L 581 0 
L 581 3500 
L 1159 3500 
L 1159 2956 
Q 1366 3272 1645 3428 
Q 1925 3584 2291 3584 
Q 2894 3584 3203 3211 
Q 3513 2838 3513 2113 
z
" id="DejaVuSans-6e" transform="scale(0.015625)"/>
       <path d="M 2906 2969 
L 2906 4863 
L 3481 4863 
L 3481 0 
L 2906 0 
L 2906 525 
Q 2725 213 2448 61 
Q 2172 -91 1784 -91 
Q 1150 -91 751 415 
Q 353 922 353 1747 
Q 353 2572 751 3078 
Q 1150 3584 1784 3584 
Q 2172 3584 2448 3432 
Q 2725 3281 2906 2969 
z
M 947 1747 
Q 947 1113 1208 752 
Q 1469 391 1925 391 
Q 2381 391 2643 752 
Q 2906 1113 2906 1747 
Q 2906 2381 2643 2742 
Q 2381 3103 1925 3103 
Q 1469 3103 1208 2742 
Q 947 2381 947 1747 
z
" id="DejaVuSans-64" transform="scale(0.015625)"/>
       <path d="M 2834 3397 
L 2834 2853 
Q 2591 2978 2328 3040 
Q 2066 3103 1784 3103 
Q 1356 3103 1142 2972 
Q 928 2841 928 2578 
Q 928 2378 1081 2264 
Q 1234 2150 1697 2047 
L 1894 2003 
Q 2506 1872 2764 1633 
Q 3022 1394 3022 966 
Q 3022 478 2636 193 
Q 2250 -91 1575 -91 
Q 1294 -91 989 -36 
Q 684 19 347 128 
L 347 722 
Q 666 556 975 473 
Q 1284 391 1588 391 
Q 1994 391 2212 530 
Q 2431 669 2431 922 
Q 2431 1156 2273 1281 
Q 2116 1406 1581 1522 
L 1381 1569 
Q 847 1681 609 1914 
Q 372 2147 372 2553 
Q 372 3047 722 3315 
Q 1072 3584 1716 3584 
Q 2034 3584 2315 3537 
Q 2597 3491 2834 3397 
z
" id="DejaVuSans-73" transform="scale(0.015625)"/>
       <path d="M 1947 4863 
L 1947 -844 
L 622 -844 
L 622 -397 
L 1369 -397 
L 1369 4416 
L 622 4416 
L 622 4863 
L 1947 4863 
z
" id="DejaVuSans-5d" transform="scale(0.015625)"/>
      </defs>
      <use xlink:href="#DejaVuSans-54"/>
      <use x="57.958984" xlink:href="#DejaVuSans-69"/>
      <use x="85.742188" xlink:href="#DejaVuSans-6d"/>
      <use x="183.154297" xlink:href="#DejaVuSans-65"/>
      <use x="244.677734" xlink:href="#DejaVuSans-20"/>
      <use x="276.464844" xlink:href="#DejaVuSans-5b"/>
      <use x="315.478516" xlink:href="#DejaVuSans-53"/>
      <use x="378.955078" xlink:href="#DejaVuSans-65"/>
      <use x="440.478516" xlink:href="#DejaVuSans-63"/>
      <use x="495.458984" xlink:href="#DejaVuSans-6f"/>
      <use x="556.640625" xlink:href="#DejaVuSans-6e"/>
      <use x="620.019531" xlink:href="#DejaVuSans-64"/>
      <use x="683.496094" xlink:href="#DejaVuSans-73"/>
      <use x="735.595703" xlink:href="#DejaVuSans-5d"/>
     </g>
    </g>
   </g>
   <g id="matplotlib.axis_2">
    <g id="ytick_1">
     <g id="line2d_9">
      <defs>
       <path d="M 0 0 
L -3.5 0 
" id="m09e308c66d" style="stroke:#000000;stroke-width:0.8;"/>
      </defs>
      <g>
       <use style="stroke:#000000;stroke-width:0.8;" x="72" xlink:href="#m09e308c66d" y="300.387515"/>
      </g>
     </g>
     <g id="text_10">
      <!-- 0.00 -->
      <g transform="translate(33.828125 305.706421)scale(0.14 -0.14)">
       <use xlink:href="#DejaVuSans-30"/>
       <use x="63.623047" xlink:href="#DejaVuSans-2e"/>
       <use x="95.410156" xlink:href="#DejaVuSans-30"/>
       <use x="159.033203" xlink:href="#DejaVuSans-30"/>
      </g>
     </g>
    </g>
    <g id="ytick_2">
     <g id="line2d_10">
      <g>
       <use style="stroke:#000000;stroke-width:0.8;" x="72" xlink:href="#m09e308c66d" y="265.189576"/>
      </g>
     </g>
     <g id="text_11">
      <!-- 0.25 -->
      <g transform="translate(33.828125 270.508483)scale(0.14 -0.14)">
       <use xlink:href="#DejaVuSans-30"/>
       <use x="63.623047" xlink:href="#DejaVuSans-2e"/>
       <use x="95.410156" xlink:href="#DejaVuSans-32"/>
       <use x="159.033203" xlink:href="#DejaVuSans-35"/>
      </g>
     </g>
    </g>
    <g id="ytick_3">
     <g id="line2d_11">
      <g>
       <use style="stroke:#000000;stroke-width:0.8;" x="72" xlink:href="#m09e308c66d" y="229.991638"/>
      </g>
     </g>
     <g id="text_12">
      <!-- 0.50 -->
      <g transform="translate(33.828125 235.310544)scale(0.14 -0.14)">
       <use xlink:href="#DejaVuSans-30"/>
       <use x="63.623047" xlink:href="#DejaVuSans-2e"/>
       <use x="95.410156" xlink:href="#DejaVuSans-35"/>
       <use x="159.033203" xlink:href="#DejaVuSans-30"/>
      </g>
     </g>
    </g>
    <g id="ytick_4">
     <g id="line2d_12">
      <g>
       <use style="stroke:#000000;stroke-width:0.8;" x="72" xlink:href="#m09e308c66d" y="194.793699"/>
      </g>
     </g>
     <g id="text_13">
      <!-- 0.75 -->
      <g transform="translate(33.828125 200.112605)scale(0.14 -0.14)">
       <use xlink:href="#DejaVuSans-30"/>
       <use x="63.623047" xlink:href="#DejaVuSans-2e"/>
       <use x="95.410156" xlink:href="#DejaVuSans-37"/>
       <use x="159.033203" xlink:href="#DejaVuSans-35"/>
      </g>
     </g>
    </g>
    <g id="ytick_5">
     <g id="line2d_13">
      <g>
       <use style="stroke:#000000;stroke-width:0.8;" x="72" xlink:href="#m09e308c66d" y="159.59576"/>
      </g>
     </g>
     <g id="text_14">
      <!-- 1.00 -->
      <g transform="translate(33.828125 164.914667)scale(0.14 -0.14)">
       <use xlink:href="#DejaVuSans-31"/>
       <use x="63.623047" xlink:href="#DejaVuSans-2e"/>
       <use x="95.410156" xlink:href="#DejaVuSans-30"/>
       <use x="159.033203" xlink:href="#DejaVuSans-30"/>
      </g>
     </g>
    </g>
    <g id="ytick_6">
     <g id="line2d_14">
      <g>
       <use style="stroke:#000000;stroke-width:0.8;" x="72" xlink:href="#m09e308c66d" y="124.397822"/>
      </g>
     </g>
     <g id="text_15">
      <!-- 1.25 -->
      <g transform="translate(33.828125 129.716728)scale(0.14 -0.14)">
       <use xlink:href="#DejaVuSans-31"/>
       <use x="63.623047" xlink:href="#DejaVuSans-2e"/>
       <use x="95.410156" xlink:href="#DejaVuSans-32"/>
       <use x="159.033203" xlink:href="#DejaVuSans-35"/>
      </g>
     </g>
    </g>
    <g id="ytick_7">
     <g id="line2d_15">
      <g>
       <use style="stroke:#000000;stroke-width:0.8;" x="72" xlink:href="#m09e308c66d" y="89.199883"/>
      </g>
     </g>
     <g id="text_16">
      <!-- 1.50 -->
      <g transform="translate(33.828125 94.518789)scale(0.14 -0.14)">
       <use xlink:href="#DejaVuSans-31"/>
       <use x="63.623047" xlink:href="#DejaVuSans-2e"/>
       <use x="95.410156" xlink:href="#DejaVuSans-35"/>
       <use x="159.033203" xlink:href="#DejaVuSans-30"/>
      </g>
     </g>
    </g>
    <g id="ytick_8">
     <g id="line2d_16">
      <g>
       <use style="stroke:#000000;stroke-width:0.8;" x="72" xlink:href="#m09e308c66d" y="54.001944"/>
      </g>
     </g>
     <g id="text_17">
      <!-- 1.75 -->
      <g transform="translate(33.828125 59.320851)scale(0.14 -0.14)">
       <use xlink:href="#DejaVuSans-31"/>
       <use x="63.623047" xlink:href="#DejaVuSans-2e"/>
       <use x="95.410156" xlink:href="#DejaVuSans-37"/>
       <use x="159.033203" xlink:href="#DejaVuSans-35"/>
      </g>
     </g>
    </g>
    <g id="text_18">
     <!-- Speed [mm/s] -->
     <g transform="translate(26.500625 238.11375)rotate(-90)scale(0.16 -0.16)">
      <defs>
       <path d="M 1159 525 
L 1159 -1331 
L 581 -1331 
L 581 3500 
L 1159 3500 
L 1159 2969 
Q 1341 3281 1617 3432 
Q 1894 3584 2278 3584 
Q 2916 3584 3314 3078 
Q 3713 2572 3713 1747 
Q 3713 922 3314 415 
Q 2916 -91 2278 -91 
Q 1894 -91 1617 61 
Q 1341 213 1159 525 
z
M 3116 1747 
Q 3116 2381 2855 2742 
Q 2594 3103 2138 3103 
Q 1681 3103 1420 2742 
Q 1159 2381 1159 1747 
Q 1159 1113 1420 752 
Q 1681 391 2138 391 
Q 2594 391 2855 752 
Q 3116 1113 3116 1747 
z
" id="DejaVuSans-70" transform="scale(0.015625)"/>
       <path d="M 1625 4666 
L 2156 4666 
L 531 -594 
L 0 -594 
L 1625 4666 
z
" id="DejaVuSans-2f" transform="scale(0.015625)"/>
      </defs>
      <use xlink:href="#DejaVuSans-53"/>
      <use x="63.476562" xlink:href="#DejaVuSans-70"/>
      <use x="126.953125" xlink:href="#DejaVuSans-65"/>
      <use x="188.476562" xlink:href="#DejaVuSans-65"/>
      <use x="250" xlink:href="#DejaVuSans-64"/>
      <use x="313.476562" xlink:href="#DejaVuSans-20"/>
      <use x="345.263672" xlink:href="#DejaVuSans-5b"/>
      <use x="384.277344" xlink:href="#DejaVuSans-6d"/>
      <use x="481.689453" xlink:href="#DejaVuSans-6d"/>
      <use x="579.101562" xlink:href="#DejaVuSans-2f"/>
      <use x="612.792969" xlink:href="#DejaVuSans-73"/>
      <use x="664.892578" xlink:href="#DejaVuSans-5d"/>
     </g>
    </g>
   </g>
   <g id="line2d_17">
    <path clip-path="url(#p826f7456ac)" d="M 72 190.209824 
L 518.4 190.209824 
" style="fill:none;stroke:#000000;stroke-dasharray:5.55,2.4;stroke-dashoffset:0;stroke-width:1.5;"/>
   </g>
   <g id="line2d_18">
    <path clip-path="url(#p826f7456ac)" d="M 72 296.675957 
L 110.134673 296.574354 
L 110.882412 297.128144 
L 112.377889 292.79993 
L 113.125628 295.171226 
L 113.873367 298.054514 
L 114.621106 299.473448 
L 115.368844 300.090012 
L 116.116583 298.737315 
L 116.864322 296.550449 
L 117.61206 295.659835 
L 118.359799 298.748565 
L 119.107538 305.061515 
L 119.855276 307.8 
L 120.603015 303.819187 
L 121.350754 292.033833 
L 122.098492 273.002921 
L 123.59397 219.059455 
L 125.837186 128.004149 
L 126.584925 102.033318 
L 127.332663 81.827482 
L 128.080402 66.607285 
L 128.828141 56.19327 
L 129.575879 55.8 
L 130.323618 58.404326 
L 131.071357 67.02654 
L 134.062312 128.676074 
L 135.557789 168.901612 
L 136.305528 180.867594 
L 137.053266 187.933482 
L 137.801005 183.821659 
L 138.548744 174.987576 
L 139.296482 172.175954 
L 140.044221 171.544239 
L 140.79196 170.178149 
L 141.539698 171.534187 
L 142.287437 177.427274 
L 143.035176 179.104583 
L 143.782915 179.344261 
L 144.530653 181.459833 
L 145.278392 182.844141 
L 146.026131 184.885997 
L 146.773869 182.67276 
L 147.521608 180.909104 
L 149.017085 183.627832 
L 149.764824 183.842172 
L 150.512563 183.8139 
L 151.260302 186.601466 
L 152.00804 185.631936 
L 152.755779 186.506009 
L 153.503518 187.905229 
L 154.251256 185.974919 
L 155.746734 183.651019 
L 156.494472 184.680872 
L 157.242211 186.273198 
L 157.98995 188.382635 
L 158.737688 189.475775 
L 159.485427 183.912802 
L 160.233166 183.256812 
L 160.980905 189.627274 
L 161.728643 189.772405 
L 162.476382 187.459279 
L 163.224121 191.188763 
L 163.971859 191.913503 
L 164.719598 190.180833 
L 166.215075 190.295446 
L 167.710553 195.083436 
L 168.458291 192.84635 
L 169.20603 191.523826 
L 169.953769 193.25676 
L 170.701508 191.941981 
L 171.449246 192.801626 
L 172.196985 192.847053 
L 172.944724 187.850521 
L 173.692462 185.75711 
L 174.440201 187.186376 
L 175.935678 187.930421 
L 176.683417 190.407158 
L 177.431156 189.717899 
L 178.178894 187.585247 
L 179.674372 194.257215 
L 180.422111 191.541827 
L 181.169849 185.662615 
L 181.917588 186.100225 
L 182.665327 191.682896 
L 183.413065 194.05271 
L 184.160804 192.109225 
L 184.908543 192.60878 
L 185.656281 191.978561 
L 186.40402 193.353979 
L 187.151759 193.021627 
L 187.899497 190.753563 
L 189.394975 193.271083 
L 190.142714 191.906522 
L 190.890452 189.224619 
L 191.638191 190.226154 
L 192.38593 190.665754 
L 193.133668 192.236098 
L 193.881407 190.88865 
L 194.629146 186.022452 
L 195.376884 186.073933 
L 196.124623 187.855798 
L 196.872362 187.665474 
L 197.620101 188.396611 
L 198.367839 190.326853 
L 199.115578 188.180243 
L 199.863317 189.130911 
L 200.611055 191.863701 
L 201.358794 189.752643 
L 202.106533 189.40821 
L 202.854271 189.648952 
L 203.60201 190.664909 
L 204.349749 191.087767 
L 205.097487 192.123186 
L 206.592965 188.430906 
L 207.340704 190.118141 
L 208.088442 192.432527 
L 208.836181 195.607883 
L 209.58392 195.75588 
L 210.331658 193.028831 
L 211.079397 196.011047 
L 211.827136 196.452858 
L 212.574874 191.366621 
L 213.322613 191.76417 
L 214.070352 194.239756 
L 214.81809 193.911744 
L 215.565829 192.491064 
L 216.313568 192.526041 
L 217.061307 192.027402 
L 217.809045 191.168866 
L 218.556784 191.313803 
L 219.304523 190.498578 
L 220.052261 187.519514 
L 220.8 187.185864 
L 221.547739 189.403119 
L 222.295477 187.452739 
L 223.043216 185.869098 
L 223.790955 190.722298 
L 224.538693 190.600753 
L 225.286432 186.864471 
L 226.034171 186.443028 
L 226.78191 189.586223 
L 227.529648 191.662609 
L 228.277387 189.138261 
L 229.025126 185.889747 
L 229.772864 188.977312 
L 230.520603 194.405087 
L 231.268342 190.570407 
L 232.01608 187.921858 
L 232.763819 193.482127 
L 233.511558 194.771319 
L 234.259296 192.848532 
L 235.007035 192.888012 
L 235.754774 192.673815 
L 236.502513 191.986854 
L 237.250251 191.812562 
L 237.99799 192.653219 
L 238.745729 192.613606 
L 239.493467 193.008386 
L 240.241206 193.735384 
L 240.988945 191.899885 
L 241.736683 188.608451 
L 242.484422 188.893908 
L 243.232161 190.623214 
L 243.979899 187.257304 
L 244.727638 184.586576 
L 245.475377 189.265508 
L 246.223116 188.785746 
L 246.970854 185.38516 
L 247.718593 186.24138 
L 248.466332 189.664766 
L 249.21407 193.614055 
L 249.961809 193.268581 
L 250.709548 190.788514 
L 251.457286 195.630382 
L 252.205025 196.592244 
L 252.952764 190.092548 
L 253.700503 191.320647 
L 254.448241 193.837533 
L 255.19598 195.284906 
L 255.943719 196.125939 
L 256.691457 189.92162 
L 257.439196 186.073125 
L 258.186935 189.808248 
L 258.934673 191.310008 
L 260.430151 187.371792 
L 261.177889 187.907526 
L 263.421106 191.968604 
L 264.916583 197.38171 
L 265.664322 191.150666 
L 266.41206 189.025222 
L 267.159799 194.924255 
L 267.907538 193.955368 
L 268.655276 190.228043 
L 269.403015 188.987438 
L 270.150754 191.028623 
L 270.898492 191.685393 
L 271.646231 187.538047 
L 272.39397 186.20257 
L 273.141709 188.914929 
L 273.889447 189.065543 
L 274.637186 188.637585 
L 275.384925 188.585743 
L 276.132663 188.823 
L 276.880402 191.554181 
L 277.628141 191.747805 
L 278.375879 189.628265 
L 279.123618 190.856782 
L 279.871357 196.065246 
L 280.619095 196.57062 
L 281.366834 190.174896 
L 282.114573 187.902318 
L 282.862312 190.294518 
L 283.61005 190.734301 
L 284.357789 190.672191 
L 285.105528 191.301807 
L 285.853266 194.030022 
L 286.601005 195.055755 
L 287.348744 187.106111 
L 288.096482 185.052148 
L 288.844221 189.087083 
L 289.59196 189.17083 
L 290.339698 192.094477 
L 291.087437 191.178428 
L 291.835176 191.134519 
L 292.582915 194.205084 
L 293.330653 187.852181 
L 294.078392 186.73011 
L 294.826131 192.194775 
L 295.573869 194.217697 
L 296.321608 195.426644 
L 297.069347 191.427589 
L 297.817085 189.956341 
L 298.564824 190.779523 
L 299.312563 190.052611 
L 300.060302 191.538173 
L 300.80804 192.491849 
L 301.555779 194.210105 
L 302.303518 194.771826 
L 303.051256 190.082868 
L 303.798995 187.652501 
L 304.546734 189.588295 
L 305.294472 189.913704 
L 306.042211 189.446021 
L 306.78995 189.321868 
L 307.537688 193.090687 
L 308.285427 193.041716 
L 309.033166 185.467689 
L 309.780905 184.062507 
L 310.528643 188.787829 
L 311.276382 190.557531 
L 312.024121 193.847492 
L 312.771859 191.139835 
L 313.519598 189.936737 
L 314.267337 193.85627 
L 315.015075 190.670029 
L 315.762814 191.06924 
L 316.510553 194.606069 
L 317.258291 193.818154 
L 318.00603 195.561319 
L 319.501508 188.396481 
L 320.249246 189.517623 
L 320.996985 188.528009 
L 321.744724 189.833289 
L 322.492462 189.965756 
L 323.240201 191.72586 
L 323.98794 192.514898 
L 324.735678 186.607401 
L 325.483417 183.750691 
L 326.231156 187.749674 
L 326.978894 190.319888 
L 327.726633 190.86065 
L 328.474372 191.941991 
L 329.222111 195.187454 
L 329.969849 196.064819 
L 330.717588 192.864554 
L 331.465327 188.351765 
L 332.213065 189.598638 
L 332.960804 191.528428 
L 333.708543 191.732345 
L 334.456281 190.174614 
L 335.20402 189.442867 
L 335.951759 191.632331 
L 337.447236 191.347415 
L 338.194975 191.903124 
L 338.942714 191.810735 
L 339.690452 192.826524 
L 340.438191 189.402966 
L 341.18593 184.547885 
L 341.933668 186.411236 
L 342.681407 188.64519 
L 343.429146 190.074952 
L 344.924623 194.277771 
L 345.672362 194.564449 
L 346.420101 188.569662 
L 347.167839 186.775448 
L 347.915578 189.993897 
L 349.411055 193.612572 
L 350.158794 192.011997 
L 350.906533 190.83334 
L 351.654271 193.43189 
L 352.40201 193.54113 
L 353.149749 189.744764 
L 353.897487 190.355422 
L 354.645226 193.11183 
L 355.392965 193.203267 
L 356.888442 187.83358 
L 357.636181 188.118701 
L 358.38392 191.436161 
L 359.131658 192.671977 
L 359.879397 189.381954 
L 360.627136 191.095185 
L 361.374874 195.576627 
L 362.870352 186.693663 
L 363.61809 189.875269 
L 364.365829 192.250661 
L 365.861307 193.073211 
L 367.356784 196.752783 
L 368.104523 189.786444 
L 368.852261 186.86329 
L 369.6 190.888427 
L 370.347739 192.095735 
L 371.095477 193.545908 
L 372.590955 184.815153 
L 373.338693 186.391571 
L 374.086432 189.686969 
L 374.834171 187.697032 
L 375.58191 186.356069 
L 376.329648 192.109946 
L 377.077387 193.999423 
L 377.825126 189.085923 
L 378.572864 186.660696 
L 379.320603 190.174474 
L 380.068342 195.145125 
L 380.81608 195.01633 
L 381.563819 191.832207 
L 382.311558 193.95572 
L 383.059296 195.554681 
L 383.807035 190.90166 
L 384.554774 189.882645 
L 385.302513 191.184081 
L 386.050251 192.068564 
L 386.79799 190.476493 
L 387.545729 187.045514 
L 388.293467 188.554956 
L 389.041206 189.647278 
L 389.788945 187.170391 
L 390.536683 187.811962 
L 391.284422 188.085056 
L 392.032161 187.479316 
L 392.779899 192.484916 
L 393.527638 192.380493 
L 394.275377 187.251069 
L 395.023116 189.229654 
L 395.770854 193.508293 
L 396.518593 191.916989 
L 397.266332 192.7167 
L 398.01407 197.104242 
L 398.761809 196.247656 
L 399.509548 192.429141 
L 400.257286 190.747993 
L 402.500503 191.398988 
L 403.248241 189.768996 
L 403.99598 185.837468 
L 404.743719 185.305624 
L 405.491457 187.708489 
L 406.986935 190.827586 
L 407.734673 192.660888 
L 408.482412 190.654338 
L 409.230151 190.263326 
L 409.977889 190.283793 
L 410.725628 188.848554 
L 411.473367 193.185736 
L 412.221106 192.917473 
L 412.968844 189.465658 
L 413.716583 191.748027 
L 414.464322 195.097604 
L 415.21206 193.926817 
L 415.959799 189.52962 
L 416.707538 189.492233 
L 417.455276 190.719129 
L 418.950754 190.852781 
L 419.698492 188.122352 
L 420.446231 187.148629 
L 421.19397 190.253355 
L 421.941709 191.240999 
L 422.689447 188.825754 
L 423.437186 189.182539 
L 424.184925 192.007415 
L 424.932663 191.75505 
L 425.680402 189.513753 
L 426.428141 190.718886 
L 427.923618 194.18743 
L 428.671357 193.712461 
L 429.419095 191.32355 
L 430.166834 192.33857 
L 430.914573 194.250121 
L 431.662312 193.096067 
L 432.41005 189.812487 
L 433.157789 190.227366 
L 433.905528 190.398398 
L 434.653266 190.248178 
L 435.401005 187.968879 
L 436.148744 186.182597 
L 437.644221 191.313885 
L 438.39196 190.499674 
L 439.139698 188.983882 
L 439.887437 193.75556 
L 440.635176 193.551845 
L 441.382915 190.189678 
L 442.130653 192.49855 
L 442.878392 196.104326 
L 443.626131 195.040457 
L 444.373869 190.256308 
L 445.121608 189.026076 
L 445.869347 190.142558 
L 446.617085 190.210062 
L 448.860302 189.541225 
L 449.60804 192.748139 
L 450.355779 188.922355 
L 451.103518 184.069199 
L 451.851256 187.249082 
L 452.598995 189.560557 
L 453.346734 192.621605 
L 454.094472 187.970475 
L 454.842211 186.21748 
L 455.58995 192.125364 
L 456.337688 192.738612 
L 457.085427 190.000453 
L 457.833166 190.934593 
L 458.580905 193.797585 
L 459.328643 195.456707 
L 460.076382 192.491566 
L 460.824121 190.453306 
L 461.571859 193.312203 
L 462.319598 192.148619 
L 463.067337 191.445293 
L 463.815075 189.916328 
L 464.562814 187.295743 
L 465.310553 187.797428 
L 467.553769 190.230337 
L 468.301508 190.562971 
L 469.049246 192.64634 
L 469.796985 192.402123 
L 470.544724 191.342233 
L 471.292462 194.020791 
L 472.040201 191.063251 
L 472.78794 191.801349 
L 473.535678 193.113469 
L 474.283417 190.629128 
L 475.031156 191.985135 
L 475.778894 188.862887 
L 476.526633 188.175771 
L 477.274372 190.033098 
L 478.022111 189.668821 
L 478.769849 189.948452 
L 480.265327 189.971763 
L 481.013065 190.560137 
L 481.760804 190.45423 
L 482.508543 191.62543 
L 483.256281 190.767383 
L 484.00402 190.61746 
L 484.751759 193.346961 
L 485.499497 191.166062 
L 486.247236 187.14371 
L 486.994975 186.419775 
L 488.490452 190.371032 
L 490.733668 194.105014 
L 491.481407 194.540962 
L 492.229146 192.917483 
L 492.976884 192.490881 
L 493.724623 193.541442 
L 494.472362 196.324655 
L 495.220101 193.430972 
L 495.967839 187.119945 
L 496.715578 187.122962 
L 497.463317 188.611515 
L 498.211055 189.35458 
L 499.706533 190.047492 
L 500.454271 190.205735 
L 501.20201 192.082517 
L 501.949749 192.833128 
L 502.697487 189.210804 
L 503.445226 189.006436 
L 504.192965 192.293137 
L 504.940704 192.137796 
L 505.688442 191.854565 
L 506.436181 192.892984 
L 507.18392 190.537578 
L 507.931658 191.14454 
L 510.922613 196.130421 
L 511.670352 196.937504 
L 512.41809 197.309814 
L 513.165829 197.090108 
L 513.913568 196.105296 
L 514.661307 194.166443 
L 515.409045 191.068761 
L 516.156784 186.59162 
L 516.904523 180.49854 
L 517.652261 172.537192 
L 518.4 162.439403 
L 518.4 162.439403 
" style="fill:none;stroke:#ff0000;stroke-linecap:square;stroke-width:2;"/>
   </g>
   <g id="patch_3">
    <path d="M 72 320.4 
L 72 43.2 
" style="fill:none;stroke:#000000;stroke-linecap:square;stroke-linejoin:miter;stroke-width:0.8;"/>
   </g>
   <g id="patch_4">
    <path d="M 518.4 320.4 
L 518.4 43.2 
" style="fill:none;stroke:#000000;stroke-linecap:square;stroke-linejoin:miter;stroke-width:0.8;"/>
   </g>
   <g id="patch_5">
    <path d="M 72 320.4 
L 518.4 320.4 
" style="fill:none;stroke:#000000;stroke-linecap:square;stroke-linejoin:miter;stroke-width:0.8;"/>
   </g>
   <g id="patch_6">
    <path d="M 72 43.2 
L 518.4 43.2 
" style="fill:none;stroke:#000000;stroke-linecap:square;stroke-linejoin:miter;stroke-width:0.8;"/>
   </g>
   <g id="text_19">
    <!-- Front Propogation Speed -->
    <g transform="translate(172.245312 37.2)scale(0.2 -0.2)">
     <defs>
      <path d="M 628 4666 
L 3309 4666 
L 3309 4134 
L 1259 4134 
L 1259 2759 
L 3109 2759 
L 3109 2228 
L 1259 2228 
L 1259 0 
L 628 0 
L 628 4666 
z
" id="DejaVuSans-46" transform="scale(0.015625)"/>
      <path d="M 2631 2963 
Q 2534 3019 2420 3045 
Q 2306 3072 2169 3072 
Q 1681 3072 1420 2755 
Q 1159 2438 1159 1844 
L 1159 0 
L 581 0 
L 581 3500 
L 1159 3500 
L 1159 2956 
Q 1341 3275 1631 3429 
Q 1922 3584 2338 3584 
Q 2397 3584 2469 3576 
Q 2541 3569 2628 3553 
L 2631 2963 
z
" id="DejaVuSans-72" transform="scale(0.015625)"/>
      <path d="M 1172 4494 
L 1172 3500 
L 2356 3500 
L 2356 3053 
L 1172 3053 
L 1172 1153 
Q 1172 725 1289 603 
Q 1406 481 1766 481 
L 2356 481 
L 2356 0 
L 1766 0 
Q 1100 0 847 248 
Q 594 497 594 1153 
L 594 3053 
L 172 3053 
L 172 3500 
L 594 3500 
L 594 4494 
L 1172 4494 
z
" id="DejaVuSans-74" transform="scale(0.015625)"/>
      <path d="M 1259 4147 
L 1259 2394 
L 2053 2394 
Q 2494 2394 2734 2622 
Q 2975 2850 2975 3272 
Q 2975 3691 2734 3919 
Q 2494 4147 2053 4147 
L 1259 4147 
z
M 628 4666 
L 2053 4666 
Q 2838 4666 3239 4311 
Q 3641 3956 3641 3272 
Q 3641 2581 3239 2228 
Q 2838 1875 2053 1875 
L 1259 1875 
L 1259 0 
L 628 0 
L 628 4666 
z
" id="DejaVuSans-50" transform="scale(0.015625)"/>
      <path d="M 2906 1791 
Q 2906 2416 2648 2759 
Q 2391 3103 1925 3103 
Q 1463 3103 1205 2759 
Q 947 2416 947 1791 
Q 947 1169 1205 825 
Q 1463 481 1925 481 
Q 2391 481 2648 825 
Q 2906 1169 2906 1791 
z
M 3481 434 
Q 3481 -459 3084 -895 
Q 2688 -1331 1869 -1331 
Q 1566 -1331 1297 -1286 
Q 1028 -1241 775 -1147 
L 775 -588 
Q 1028 -725 1275 -790 
Q 1522 -856 1778 -856 
Q 2344 -856 2625 -561 
Q 2906 -266 2906 331 
L 2906 616 
Q 2728 306 2450 153 
Q 2172 0 1784 0 
Q 1141 0 747 490 
Q 353 981 353 1791 
Q 353 2603 747 3093 
Q 1141 3584 1784 3584 
Q 2172 3584 2450 3431 
Q 2728 3278 2906 2969 
L 2906 3500 
L 3481 3500 
L 3481 434 
z
" id="DejaVuSans-67" transform="scale(0.015625)"/>
      <path d="M 2194 1759 
Q 1497 1759 1228 1600 
Q 959 1441 959 1056 
Q 959 750 1161 570 
Q 1363 391 1709 391 
Q 2188 391 2477 730 
Q 2766 1069 2766 1631 
L 2766 1759 
L 2194 1759 
z
M 3341 1997 
L 3341 0 
L 2766 0 
L 2766 531 
Q 2569 213 2275 61 
Q 1981 -91 1556 -91 
Q 1019 -91 701 211 
Q 384 513 384 1019 
Q 384 1609 779 1909 
Q 1175 2209 1959 2209 
L 2766 2209 
L 2766 2266 
Q 2766 2663 2505 2880 
Q 2244 3097 1772 3097 
Q 1472 3097 1187 3025 
Q 903 2953 641 2809 
L 641 3341 
Q 956 3463 1253 3523 
Q 1550 3584 1831 3584 
Q 2591 3584 2966 3190 
Q 3341 2797 3341 1997 
z
" id="DejaVuSans-61" transform="scale(0.015625)"/>
     </defs>
     <use xlink:href="#DejaVuSans-46"/>
     <use x="50.269531" xlink:href="#DejaVuSans-72"/>
     <use x="89.132812" xlink:href="#DejaVuSans-6f"/>
     <use x="150.314453" xlink:href="#DejaVuSans-6e"/>
     <use x="213.693359" xlink:href="#DejaVuSans-74"/>
     <use x="252.902344" xlink:href="#DejaVuSans-20"/>
     <use x="284.689453" xlink:href="#DejaVuSans-50"/>
     <use x="343.242188" xlink:href="#DejaVuSans-72"/>
     <use x="382.105469" xlink:href="#DejaVuSans-6f"/>
     <use x="443.287109" xlink:href="#DejaVuSans-70"/>
     <use x="506.763672" xlink:href="#DejaVuSans-6f"/>
     <use x="567.945312" xlink:href="#DejaVuSans-67"/>
     <use x="631.421875" xlink:href="#DejaVuSans-61"/>
     <use x="692.701172" xlink:href="#DejaVuSans-74"/>
     <use x="731.910156" xlink:href="#DejaVuSans-69"/>
     <use x="759.693359" xlink:href="#DejaVuSans-6f"/>
     <use x="820.875" xlink:href="#DejaVuSans-6e"/>
     <use x="884.253906" xlink:href="#DejaVuSans-20"/>
     <use x="916.041016" xlink:href="#DejaVuSans-53"/>
     <use x="979.517578" xlink:href="#DejaVuSans-70"/>
     <use x="1042.994141" xlink:href="#DejaVuSans-65"/>
     <use x="1104.517578" xlink:href="#DejaVuSans-65"/>
     <use x="1166.041016" xlink:href="#DejaVuSans-64"/>
    </g>
   </g>
   <g id="legend_1">
    <g id="patch_7">
     <path d="M 325.967812 111.175687 
L 508.6 111.175687 
Q 511.4 111.175687 511.4 108.375687 
L 511.4 53 
Q 511.4 50.2 508.6 50.2 
L 325.967812 50.2 
Q 323.167812 50.2 323.167812 53 
L 323.167812 108.375687 
Q 323.167812 111.175687 325.967812 111.175687 
z
" style="fill:#ffffff;opacity:0.8;stroke:#cccccc;stroke-linejoin:miter;"/>
    </g>
    <g id="line2d_19">
     <path d="M 328.767812 61.537812 
L 356.767812 61.537812 
" style="fill:none;stroke:#ff0000;stroke-linecap:square;stroke-width:2;"/>
    </g>
    <g id="line2d_20"/>
    <g id="text_20">
     <!-- Front speed -->
     <g transform="translate(367.967812 66.437812)scale(0.14 -0.14)">
      <use xlink:href="#DejaVuSans-46"/>
      <use x="50.269531" xlink:href="#DejaVuSans-72"/>
      <use x="89.132812" xlink:href="#DejaVuSans-6f"/>
      <use x="150.314453" xlink:href="#DejaVuSans-6e"/>
      <use x="213.693359" xlink:href="#DejaVuSans-74"/>
      <use x="252.902344" xlink:href="#DejaVuSans-20"/>
      <use x="284.689453" xlink:href="#DejaVuSans-73"/>
      <use x="336.789062" xlink:href="#DejaVuSans-70"/>
      <use x="400.265625" xlink:href="#DejaVuSans-65"/>
      <use x="461.789062" xlink:href="#DejaVuSans-65"/>
      <use x="523.3125" xlink:href="#DejaVuSans-64"/>
     </g>
    </g>
    <g id="line2d_21">
     <path d="M 328.767812 91.381437 
L 356.767812 91.381437 
" style="fill:none;stroke:#000000;stroke-dasharray:5.55,2.4;stroke-dashoffset:0;stroke-width:1.5;"/>
    </g>
    <g id="line2d_22"/>
    <g id="text_21">
     <!-- Steady state -->
     <g transform="translate(367.967812 86.987187)scale(0.14 -0.14)">
      <defs>
       <path d="M 2059 -325 
Q 1816 -950 1584 -1140 
Q 1353 -1331 966 -1331 
L 506 -1331 
L 506 -850 
L 844 -850 
Q 1081 -850 1212 -737 
Q 1344 -625 1503 -206 
L 1606 56 
L 191 3500 
L 800 3500 
L 1894 763 
L 2988 3500 
L 3597 3500 
L 2059 -325 
z
" id="DejaVuSans-79" transform="scale(0.015625)"/>
      </defs>
      <use xlink:href="#DejaVuSans-53"/>
      <use x="63.476562" xlink:href="#DejaVuSans-74"/>
      <use x="102.685547" xlink:href="#DejaVuSans-65"/>
      <use x="164.208984" xlink:href="#DejaVuSans-61"/>
      <use x="225.488281" xlink:href="#DejaVuSans-64"/>
      <use x="288.964844" xlink:href="#DejaVuSans-79"/>
      <use x="348.144531" xlink:href="#DejaVuSans-20"/>
      <use x="379.931641" xlink:href="#DejaVuSans-73"/>
      <use x="432.03125" xlink:href="#DejaVuSans-74"/>
      <use x="471.240234" xlink:href="#DejaVuSans-61"/>
      <use x="532.519531" xlink:href="#DejaVuSans-74"/>
      <use x="571.728516" xlink:href="#DejaVuSans-65"/>
     </g>
     <!-- speed = 0.78 mm/s -->
     <g transform="translate(367.967812 102.664125)scale(0.14 -0.14)">
      <defs>
       <path d="M 678 2906 
L 4684 2906 
L 4684 2381 
L 678 2381 
L 678 2906 
z
M 678 1631 
L 4684 1631 
L 4684 1100 
L 678 1100 
L 678 1631 
z
" id="DejaVuSans-3d" transform="scale(0.015625)"/>
       <path d="M 2034 2216 
Q 1584 2216 1326 1975 
Q 1069 1734 1069 1313 
Q 1069 891 1326 650 
Q 1584 409 2034 409 
Q 2484 409 2743 651 
Q 3003 894 3003 1313 
Q 3003 1734 2745 1975 
Q 2488 2216 2034 2216 
z
M 1403 2484 
Q 997 2584 770 2862 
Q 544 3141 544 3541 
Q 544 4100 942 4425 
Q 1341 4750 2034 4750 
Q 2731 4750 3128 4425 
Q 3525 4100 3525 3541 
Q 3525 3141 3298 2862 
Q 3072 2584 2669 2484 
Q 3125 2378 3379 2068 
Q 3634 1759 3634 1313 
Q 3634 634 3220 271 
Q 2806 -91 2034 -91 
Q 1263 -91 848 271 
Q 434 634 434 1313 
Q 434 1759 690 2068 
Q 947 2378 1403 2484 
z
M 1172 3481 
Q 1172 3119 1398 2916 
Q 1625 2713 2034 2713 
Q 2441 2713 2670 2916 
Q 2900 3119 2900 3481 
Q 2900 3844 2670 4047 
Q 2441 4250 2034 4250 
Q 1625 4250 1398 4047 
Q 1172 3844 1172 3481 
z
" id="DejaVuSans-38" transform="scale(0.015625)"/>
      </defs>
      <use xlink:href="#DejaVuSans-73"/>
      <use x="52.099609" xlink:href="#DejaVuSans-70"/>
      <use x="115.576172" xlink:href="#DejaVuSans-65"/>
      <use x="177.099609" xlink:href="#DejaVuSans-65"/>
      <use x="238.623047" xlink:href="#DejaVuSans-64"/>
      <use x="302.099609" xlink:href="#DejaVuSans-20"/>
      <use x="333.886719" xlink:href="#DejaVuSans-3d"/>
      <use x="417.675781" xlink:href="#DejaVuSans-20"/>
      <use x="449.462891" xlink:href="#DejaVuSans-30"/>
      <use x="513.085938" xlink:href="#DejaVuSans-2e"/>
      <use x="544.873047" xlink:href="#DejaVuSans-37"/>
      <use x="608.496094" xlink:href="#DejaVuSans-38"/>
      <use x="672.119141" xlink:href="#DejaVuSans-20"/>
      <use x="703.90625" xlink:href="#DejaVuSans-6d"/>
      <use x="801.318359" xlink:href="#DejaVuSans-6d"/>
      <use x="898.730469" xlink:href="#DejaVuSans-2f"/>
      <use x="932.421875" xlink:href="#DejaVuSans-73"/>
     </g>
    </g>
   </g>
  </g>
 </g>
 <defs>
  <clipPath id="p826f7456ac">
   <rect height="277.2" width="446.4" x="72" y="43.2"/>
  </clipPath>
 </defs>
</svg>
