<?xml version="1.0" encoding="utf-8" standalone="no"?>
<!DOCTYPE svg PUBLIC "-//W3C//DTD SVG 1.1//EN"
  "http://www.w3.org/Graphics/SVG/1.1/DTD/svg11.dtd">
<svg height="360pt" version="1.1" viewBox="0 0 576 360" width="576pt" xmlns="http://www.w3.org/2000/svg" xmlns:xlink="http://www.w3.org/1999/xlink">
 <metadata>
  <rdf:RDF xmlns:cc="http://creativecommons.org/ns#" xmlns:dc="http://purl.org/dc/elements/1.1/" xmlns:rdf="http://www.w3.org/1999/02/22-rdf-syntax-ns#">
   <cc:Work>
    <dc:type rdf:resource="http://purl.org/dc/dcmitype/StillImage"/>
    <dc:date>2022-06-30T14:22:09.175035</dc:date>
    <dc:format>image/svg+xml</dc:format>
    <dc:creator>
     <cc:Agent>
      <dc:title>Matplotlib v3.4.3, https://matplotlib.org/</dc:title>
     </cc:Agent>
    </dc:creator>
   </cc:Work>
  </rdf:RDF>
 </metadata>
 <defs>
  <style type="text/css">*{stroke-linecap:butt;stroke-linejoin:round;}</style>
 </defs>
 <g id="figure_1">
  <g id="patch_1">
   <path d="M 0 360 
L 576 360 
L 576 0 
L 0 0 
z
" style="fill:#ffffff;"/>
  </g>
  <g id="axes_1">
   <g id="patch_2">
    <path d="M 72 320.4 
L 518.4 320.4 
L 518.4 43.2 
L 72 43.2 
z
" style="fill:#ffffff;"/>
   </g>
   <g id="PolyCollection_1">
    <defs>
     <path d="M 72 -190.709622 
L 72 -194.579972 
L 72.455046 -194.579972 
L 72.910092 -194.579972 
L 73.365138 -194.579972 
L 73.820183 -194.579972 
L 74.275229 -194.579972 
L 74.730275 -194.579972 
L 75.185321 -194.579972 
L 75.640367 -194.579972 
L 76.095413 -194.579972 
L 76.550459 -194.579972 
L 77.005505 -194.579972 
L 77.46055 -194.579972 
L 77.915596 -194.579972 
L 78.370642 -194.579972 
L 78.825688 -194.579972 
L 79.280734 -194.579972 
L 79.73578 -194.579972 
L 80.190826 -194.579972 
L 80.645872 -194.579972 
L 81.100917 -194.579972 
L 81.555963 -194.579972 
L 82.011009 -194.579972 
L 82.466055 -194.579972 
L 82.921101 -194.579972 
L 83.376147 -194.579972 
L 83.831193 -194.579972 
L 84.286239 -194.579972 
L 84.741284 -194.579972 
L 85.19633 -194.579972 
L 85.651376 -194.579972 
L 86.106422 -194.579972 
L 86.561468 -194.579972 
L 87.016514 -194.579972 
L 87.47156 -194.579972 
L 87.926606 -194.579972 
L 88.381651 -194.579972 
L 88.836697 -194.579972 
L 89.291743 -194.579972 
L 89.746789 -194.579972 
L 90.201835 -194.579972 
L 90.656881 -194.579972 
L 91.111927 -194.579972 
L 91.566972 -194.579972 
L 92.022018 -194.579972 
L 92.477064 -194.579972 
L 92.93211 -194.579972 
L 93.387156 -194.579972 
L 93.842202 -194.579972 
L 94.297248 -194.579972 
L 94.752294 -194.579972 
L 95.207339 -194.579972 
L 95.662385 -194.579972 
L 96.117431 -194.579972 
L 96.572477 -194.579972 
L 97.027523 -194.579972 
L 97.482569 -194.579972 
L 97.937615 -194.579972 
L 98.392661 -194.579972 
L 98.847706 -194.579972 
L 99.302752 -194.579972 
L 99.757798 -194.579972 
L 100.212844 -194.579972 
L 100.66789 -194.579972 
L 101.122936 -194.579972 
L 101.577982 -194.579972 
L 102.033028 -194.579972 
L 102.488073 -194.579972 
L 102.943119 -194.579972 
L 103.398165 -194.579972 
L 103.853211 -194.579972 
L 104.308257 -194.579972 
L 104.763303 -194.579972 
L 105.218349 -194.579972 
L 105.673394 -194.579972 
L 106.12844 -194.579972 
L 106.583486 -194.579972 
L 107.038532 -194.579972 
L 107.493578 -194.579972 
L 107.948624 -194.579972 
L 108.40367 -194.579972 
L 108.858716 -194.579972 
L 109.313761 -194.579972 
L 109.768807 -194.579972 
L 110.223853 -194.579972 
L 110.678899 -194.579972 
L 111.133945 -194.579972 
L 111.588991 -194.579972 
L 112.044037 -194.579972 
L 112.499083 -194.579972 
L 112.954128 -194.579972 
L 113.409174 -194.579972 
L 113.86422 -194.579972 
L 114.319266 -194.579972 
L 114.774312 -194.579972 
L 115.229358 -194.579972 
L 115.684404 -194.579972 
L 116.13945 -194.579972 
L 116.594495 -194.579972 
L 117.049541 -194.579972 
L 117.504587 -194.579972 
L 117.959633 -194.579972 
L 118.414679 -194.579972 
L 118.869725 -194.579972 
L 119.324771 -194.579972 
L 119.779817 -194.579972 
L 120.234862 -194.579972 
L 120.689908 -194.579972 
L 121.144954 -194.579972 
L 121.6 -194.579972 
L 122.055046 -194.579972 
L 122.510092 -194.579972 
L 122.965138 -194.579972 
L 123.420183 -194.579972 
L 123.875229 -194.579972 
L 124.330275 -194.579972 
L 124.785321 -194.579972 
L 125.240367 -194.579972 
L 125.695413 -194.579972 
L 126.150459 -194.579972 
L 126.605505 -194.579972 
L 127.06055 -194.579972 
L 127.515596 -194.579972 
L 127.970642 -194.579972 
L 128.425688 -194.579972 
L 128.880734 -194.579972 
L 129.33578 -194.579972 
L 129.790826 -194.579972 
L 130.245872 -194.579972 
L 130.700917 -194.579972 
L 131.155963 -194.579972 
L 131.611009 -194.579972 
L 132.066055 -194.579972 
L 132.521101 -194.579972 
L 132.976147 -194.579972 
L 133.431193 -194.579972 
L 133.886239 -194.579972 
L 134.341284 -194.579972 
L 134.79633 -194.579972 
L 135.251376 -194.579972 
L 135.706422 -194.579972 
L 136.161468 -194.579972 
L 136.616514 -194.579972 
L 137.07156 -194.579972 
L 137.526606 -194.579972 
L 137.981651 -194.579972 
L 138.436697 -194.579972 
L 138.891743 -194.579972 
L 139.346789 -194.579972 
L 139.801835 -194.579972 
L 140.256881 -194.579972 
L 140.711927 -194.579972 
L 141.166972 -194.579972 
L 141.622018 -194.579972 
L 142.077064 -194.579972 
L 142.53211 -194.579972 
L 142.987156 -194.579972 
L 143.442202 -194.579972 
L 143.897248 -194.579972 
L 144.352294 -194.579972 
L 144.807339 -194.579972 
L 145.262385 -194.579972 
L 145.717431 -194.579972 
L 146.172477 -194.579972 
L 146.627523 -194.579972 
L 147.082569 -194.579972 
L 147.537615 -194.579972 
L 147.992661 -194.579972 
L 148.447706 -194.579972 
L 148.902752 -194.579972 
L 149.357798 -194.579972 
L 149.812844 -194.579972 
L 150.26789 -194.579972 
L 150.722936 -194.579972 
L 151.177982 -194.579972 
L 151.633028 -194.579972 
L 152.088073 -194.579972 
L 152.543119 -194.579972 
L 152.998165 -194.579972 
L 153.453211 -194.579972 
L 153.908257 -194.579972 
L 154.363303 -194.579972 
L 154.818349 -194.579972 
L 155.273394 -194.579972 
L 155.72844 -194.579972 
L 156.183486 -194.579972 
L 156.638532 -194.579972 
L 157.093578 -194.579972 
L 157.548624 -194.579972 
L 158.00367 -194.579972 
L 158.458716 -194.579972 
L 158.913761 -194.579972 
L 159.368807 -194.579972 
L 159.823853 -194.579972 
L 160.278899 -194.579972 
L 160.733945 -194.579972 
L 161.188991 -194.579972 
L 161.644037 -194.579972 
L 162.099083 -194.579972 
L 162.554128 -194.579972 
L 163.009174 -194.579972 
L 163.46422 -194.579972 
L 163.919266 -194.579972 
L 164.374312 -194.579972 
L 164.829358 -194.579972 
L 165.284404 -194.579972 
L 165.73945 -194.579972 
L 166.194495 -194.579972 
L 166.649541 -194.579972 
L 167.104587 -194.579972 
L 167.559633 -194.579972 
L 168.014679 -194.579972 
L 168.469725 -194.579972 
L 168.924771 -194.579972 
L 169.379817 -194.579972 
L 169.834862 -194.579972 
L 170.289908 -194.579972 
L 170.744954 -194.579972 
L 171.2 -194.579972 
L 171.655046 -194.579972 
L 172.110092 -194.579972 
L 172.565138 -194.579972 
L 173.020183 -194.579972 
L 173.475229 -194.579972 
L 173.930275 -194.579972 
L 174.385321 -194.579972 
L 174.840367 -194.579972 
L 175.295413 -194.579972 
L 175.750459 -194.579972 
L 176.205505 -194.579972 
L 176.66055 -194.579972 
L 177.115596 -194.579972 
L 177.570642 -194.579972 
L 178.025688 -194.579972 
L 178.480734 -194.579972 
L 178.93578 -194.579972 
L 179.390826 -194.579972 
L 179.845872 -194.579972 
L 180.300917 -194.579972 
L 180.755963 -194.579972 
L 181.211009 -194.579972 
L 181.666055 -194.579972 
L 182.121101 -194.579972 
L 182.576147 -194.579972 
L 183.031193 -194.579972 
L 183.486239 -194.579972 
L 183.941284 -194.579972 
L 184.39633 -194.579972 
L 184.851376 -194.579972 
L 185.306422 -194.579972 
L 185.761468 -194.579972 
L 186.216514 -194.579972 
L 186.67156 -194.579972 
L 187.126606 -194.579972 
L 187.581651 -194.579972 
L 188.036697 -194.579972 
L 188.491743 -194.579972 
L 188.946789 -194.579972 
L 189.401835 -194.579972 
L 189.856881 -194.579972 
L 190.311927 -194.579972 
L 190.766972 -194.579972 
L 191.222018 -194.579972 
L 191.677064 -194.579972 
L 192.13211 -194.579972 
L 192.587156 -194.579972 
L 193.042202 -194.579972 
L 193.497248 -194.579972 
L 193.952294 -194.579972 
L 194.407339 -194.579972 
L 194.862385 -194.579972 
L 195.317431 -194.579972 
L 195.772477 -194.579972 
L 196.227523 -194.579972 
L 196.682569 -194.579972 
L 197.137615 -194.579972 
L 197.592661 -194.579972 
L 198.047706 -194.579972 
L 198.502752 -194.579972 
L 198.957798 -194.579972 
L 199.412844 -194.579972 
L 199.86789 -194.579972 
L 200.322936 -194.579972 
L 200.777982 -194.579972 
L 201.233028 -194.579972 
L 201.688073 -194.579972 
L 202.143119 -194.579972 
L 202.598165 -194.579972 
L 203.053211 -194.579972 
L 203.508257 -194.579972 
L 203.963303 -194.579972 
L 204.418349 -194.579972 
L 204.873394 -194.579972 
L 205.32844 -194.579972 
L 205.783486 -194.579972 
L 206.238532 -194.579972 
L 206.693578 -194.579972 
L 207.148624 -194.579972 
L 207.60367 -194.579972 
L 208.058716 -194.579972 
L 208.513761 -194.579972 
L 208.968807 -194.579972 
L 209.423853 -194.579972 
L 209.878899 -194.579972 
L 210.333945 -194.579972 
L 210.788991 -194.579972 
L 211.244037 -194.579972 
L 211.699083 -194.579972 
L 212.154128 -194.579972 
L 212.609174 -194.579972 
L 213.06422 -194.579972 
L 213.519266 -194.579972 
L 213.974312 -194.579972 
L 214.429358 -194.579972 
L 214.884404 -194.579972 
L 215.33945 -194.579972 
L 215.794495 -194.579972 
L 216.249541 -194.579972 
L 216.704587 -194.579972 
L 217.159633 -194.579972 
L 217.614679 -194.579972 
L 218.069725 -194.579972 
L 218.524771 -194.579972 
L 218.979817 -194.579972 
L 219.434862 -194.579972 
L 219.889908 -194.579972 
L 220.344954 -194.579972 
L 220.8 -194.579972 
L 221.255046 -194.579972 
L 221.710092 -194.579972 
L 222.165138 -194.579972 
L 222.620183 -194.579972 
L 223.075229 -194.579972 
L 223.530275 -194.579972 
L 223.985321 -194.579972 
L 224.440367 -194.579972 
L 224.895413 -194.579972 
L 225.350459 -194.579972 
L 225.805505 -194.579972 
L 226.26055 -194.579972 
L 226.715596 -194.579972 
L 227.170642 -194.579972 
L 227.625688 -194.579972 
L 228.080734 -194.579972 
L 228.53578 -194.579972 
L 228.990826 -194.579972 
L 229.445872 -194.579972 
L 229.900917 -194.579972 
L 230.355963 -194.579972 
L 230.811009 -194.579972 
L 231.266055 -194.579972 
L 231.721101 -194.579972 
L 232.176147 -194.579972 
L 232.631193 -194.579972 
L 233.086239 -194.579972 
L 233.541284 -194.579972 
L 233.99633 -194.579972 
L 234.451376 -194.579972 
L 234.906422 -194.579972 
L 235.361468 -194.579972 
L 235.816514 -194.579972 
L 236.27156 -194.579972 
L 236.726606 -194.579972 
L 237.181651 -194.579972 
L 237.636697 -194.579972 
L 238.091743 -194.579972 
L 238.546789 -194.579972 
L 239.001835 -194.579972 
L 239.456881 -194.579972 
L 239.911927 -194.579972 
L 240.366972 -194.579972 
L 240.822018 -194.579972 
L 241.277064 -194.579972 
L 241.73211 -194.579972 
L 242.187156 -194.579972 
L 242.642202 -194.579972 
L 243.097248 -194.579972 
L 243.552294 -194.579972 
L 244.007339 -194.579972 
L 244.462385 -194.579972 
L 244.917431 -194.579972 
L 245.372477 -194.579972 
L 245.827523 -194.579972 
L 246.282569 -194.579972 
L 246.737615 -194.579972 
L 247.192661 -194.579972 
L 247.647706 -194.579972 
L 248.102752 -194.579972 
L 248.557798 -194.579972 
L 249.012844 -194.579972 
L 249.46789 -194.579972 
L 249.922936 -194.579972 
L 250.377982 -194.579972 
L 250.833028 -194.579972 
L 251.288073 -194.579972 
L 251.743119 -194.579972 
L 252.198165 -194.579972 
L 252.653211 -194.579972 
L 253.108257 -194.579972 
L 253.563303 -194.579972 
L 254.018349 -194.579972 
L 254.473394 -194.579972 
L 254.92844 -194.579972 
L 255.383486 -194.579972 
L 255.838532 -194.579972 
L 256.293578 -194.579972 
L 256.748624 -194.579972 
L 257.20367 -194.579972 
L 257.658716 -194.579972 
L 258.113761 -194.579972 
L 258.568807 -194.579972 
L 259.023853 -194.579972 
L 259.478899 -194.579972 
L 259.933945 -194.579972 
L 260.388991 -194.579972 
L 260.844037 -194.579972 
L 261.299083 -194.579972 
L 261.754128 -194.579972 
L 262.209174 -194.579972 
L 262.66422 -194.579972 
L 263.119266 -194.579972 
L 263.574312 -194.579972 
L 264.029358 -194.579972 
L 264.484404 -194.579972 
L 264.93945 -194.579972 
L 265.394495 -194.579972 
L 265.849541 -194.579972 
L 266.304587 -194.579972 
L 266.759633 -194.579972 
L 267.214679 -194.579972 
L 267.669725 -194.579972 
L 268.124771 -194.579972 
L 268.579817 -194.579972 
L 269.034862 -194.579972 
L 269.489908 -194.579972 
L 269.944954 -194.579972 
L 270.4 -194.579972 
L 270.855046 -194.579972 
L 271.310092 -194.579972 
L 271.765138 -194.579972 
L 272.220183 -194.579972 
L 272.675229 -194.579972 
L 273.130275 -194.579972 
L 273.585321 -194.579972 
L 274.040367 -194.579972 
L 274.495413 -194.579972 
L 274.950459 -194.579972 
L 275.405505 -194.579972 
L 275.86055 -194.579972 
L 276.315596 -194.579972 
L 276.770642 -194.579972 
L 277.225688 -194.579972 
L 277.680734 -194.579972 
L 278.13578 -194.579972 
L 278.590826 -194.579972 
L 279.045872 -194.579972 
L 279.500917 -194.579972 
L 279.955963 -194.579972 
L 280.411009 -194.579972 
L 280.866055 -194.579972 
L 281.321101 -194.579972 
L 281.776147 -194.579972 
L 282.231193 -194.579972 
L 282.686239 -194.579972 
L 283.141284 -194.579972 
L 283.59633 -194.579972 
L 284.051376 -194.579972 
L 284.506422 -194.579972 
L 284.961468 -194.579972 
L 285.416514 -194.579972 
L 285.87156 -194.579972 
L 286.326606 -194.579972 
L 286.781651 -194.579972 
L 287.236697 -194.579972 
L 287.691743 -194.579972 
L 288.146789 -194.579972 
L 288.601835 -194.579972 
L 289.056881 -194.579972 
L 289.511927 -194.579972 
L 289.966972 -194.579972 
L 290.422018 -194.579972 
L 290.877064 -194.579972 
L 291.33211 -194.579972 
L 291.787156 -194.579972 
L 292.242202 -194.579972 
L 292.697248 -194.579972 
L 293.152294 -194.579972 
L 293.607339 -194.579972 
L 294.062385 -194.579972 
L 294.517431 -194.579972 
L 294.972477 -194.579972 
L 295.427523 -194.579972 
L 295.882569 -194.579972 
L 296.337615 -194.579972 
L 296.792661 -194.579972 
L 297.247706 -194.579972 
L 297.702752 -194.579972 
L 298.157798 -194.579972 
L 298.612844 -194.579972 
L 299.06789 -194.579972 
L 299.522936 -194.579972 
L 299.977982 -194.579972 
L 300.433028 -194.579972 
L 300.888073 -194.579972 
L 301.343119 -194.579972 
L 301.798165 -194.579972 
L 302.253211 -194.579972 
L 302.708257 -194.579972 
L 303.163303 -194.579972 
L 303.618349 -194.579972 
L 304.073394 -194.579972 
L 304.52844 -194.579972 
L 304.983486 -194.579972 
L 305.438532 -194.579972 
L 305.893578 -194.579972 
L 306.348624 -194.579972 
L 306.80367 -194.579972 
L 307.258716 -194.579972 
L 307.713761 -194.579972 
L 308.168807 -194.579972 
L 308.623853 -194.579972 
L 309.078899 -194.579972 
L 309.533945 -194.579972 
L 309.988991 -194.579972 
L 310.444037 -194.579972 
L 310.899083 -194.579972 
L 311.354128 -194.579972 
L 311.809174 -194.579972 
L 312.26422 -194.579972 
L 312.719266 -194.579972 
L 313.174312 -194.579972 
L 313.629358 -194.579972 
L 314.084404 -194.579972 
L 314.53945 -194.579972 
L 314.994495 -194.579972 
L 315.449541 -194.579972 
L 315.904587 -194.579972 
L 316.359633 -194.579972 
L 316.814679 -194.579972 
L 317.269725 -194.579972 
L 317.724771 -194.579972 
L 318.179817 -194.579972 
L 318.634862 -194.579972 
L 319.089908 -194.579972 
L 319.544954 -194.579972 
L 320 -194.579972 
L 320.455046 -194.579972 
L 320.910092 -194.579972 
L 321.365138 -194.579972 
L 321.820183 -194.579972 
L 322.275229 -194.579972 
L 322.730275 -194.579972 
L 323.185321 -194.579972 
L 323.640367 -194.579972 
L 324.095413 -194.579972 
L 324.550459 -194.579972 
L 325.005505 -194.579972 
L 325.46055 -194.579972 
L 325.915596 -194.579972 
L 326.370642 -194.579972 
L 326.825688 -194.579972 
L 327.280734 -194.579972 
L 327.73578 -194.579972 
L 328.190826 -194.579972 
L 328.645872 -194.579972 
L 329.100917 -194.579972 
L 329.555963 -194.579972 
L 330.011009 -194.579972 
L 330.466055 -194.579972 
L 330.921101 -194.579972 
L 331.376147 -194.579972 
L 331.831193 -194.579972 
L 332.286239 -194.579972 
L 332.741284 -194.579972 
L 333.19633 -194.579972 
L 333.651376 -194.579972 
L 334.106422 -194.579972 
L 334.561468 -194.579972 
L 335.016514 -194.579972 
L 335.47156 -194.579972 
L 335.926606 -194.579972 
L 336.381651 -194.579972 
L 336.836697 -194.579972 
L 337.291743 -194.579972 
L 337.746789 -194.579972 
L 338.201835 -194.579972 
L 338.656881 -194.579972 
L 339.111927 -194.579972 
L 339.566972 -194.579972 
L 340.022018 -194.579972 
L 340.477064 -194.579972 
L 340.93211 -194.579972 
L 341.387156 -194.579972 
L 341.842202 -194.579972 
L 342.297248 -194.579972 
L 342.752294 -194.579972 
L 343.207339 -194.579972 
L 343.662385 -194.579972 
L 344.117431 -194.579972 
L 344.572477 -194.579972 
L 345.027523 -194.579972 
L 345.482569 -194.579972 
L 345.937615 -194.579972 
L 346.392661 -194.579972 
L 346.847706 -194.579972 
L 347.302752 -194.579972 
L 347.757798 -194.579972 
L 348.212844 -194.579972 
L 348.66789 -194.579972 
L 349.122936 -194.579972 
L 349.577982 -194.579972 
L 350.033028 -194.579972 
L 350.488073 -194.579972 
L 350.943119 -194.579972 
L 351.398165 -194.579972 
L 351.853211 -194.579972 
L 352.308257 -194.579972 
L 352.763303 -194.579972 
L 353.218349 -194.579972 
L 353.673394 -194.579972 
L 354.12844 -194.579972 
L 354.583486 -194.579972 
L 355.038532 -194.579972 
L 355.493578 -194.579972 
L 355.948624 -194.579972 
L 356.40367 -194.579972 
L 356.858716 -194.579972 
L 357.313761 -194.579972 
L 357.768807 -194.579972 
L 358.223853 -194.579972 
L 358.678899 -194.579972 
L 359.133945 -194.579972 
L 359.588991 -194.579972 
L 360.044037 -194.579972 
L 360.499083 -194.579972 
L 360.954128 -194.579972 
L 361.409174 -194.579972 
L 361.86422 -194.579972 
L 362.319266 -194.579972 
L 362.774312 -194.579972 
L 363.229358 -194.579972 
L 363.684404 -194.579972 
L 364.13945 -194.579972 
L 364.594495 -194.579972 
L 365.049541 -194.579972 
L 365.504587 -194.579972 
L 365.959633 -194.579972 
L 366.414679 -194.579972 
L 366.869725 -194.579972 
L 367.324771 -194.579972 
L 367.779817 -194.579972 
L 368.234862 -194.579972 
L 368.689908 -194.579972 
L 369.144954 -194.579972 
L 369.6 -194.579972 
L 370.055046 -194.579972 
L 370.510092 -194.579972 
L 370.965138 -194.579972 
L 371.420183 -194.579972 
L 371.875229 -194.579972 
L 372.330275 -194.579972 
L 372.785321 -194.579972 
L 373.240367 -194.579972 
L 373.695413 -194.579972 
L 374.150459 -194.579972 
L 374.605505 -194.579972 
L 375.06055 -194.579972 
L 375.515596 -194.579972 
L 375.970642 -194.579972 
L 376.425688 -194.579972 
L 376.880734 -194.579972 
L 377.33578 -194.579972 
L 377.790826 -194.579972 
L 378.245872 -194.579972 
L 378.700917 -194.579972 
L 379.155963 -194.579972 
L 379.611009 -194.579972 
L 380.066055 -194.579972 
L 380.521101 -194.579972 
L 380.976147 -194.579972 
L 381.431193 -194.579972 
L 381.886239 -194.579972 
L 382.341284 -194.579972 
L 382.79633 -194.579972 
L 383.251376 -194.579972 
L 383.706422 -194.579972 
L 384.161468 -194.579972 
L 384.616514 -194.579972 
L 385.07156 -194.579972 
L 385.526606 -194.579972 
L 385.981651 -194.579972 
L 386.436697 -194.579972 
L 386.891743 -194.579972 
L 387.346789 -194.579972 
L 387.801835 -194.579972 
L 388.256881 -194.579972 
L 388.711927 -194.579972 
L 389.166972 -194.579972 
L 389.622018 -194.579972 
L 390.077064 -194.579972 
L 390.53211 -194.579972 
L 390.987156 -194.579972 
L 391.442202 -194.579972 
L 391.897248 -194.579972 
L 392.352294 -194.579972 
L 392.807339 -194.579972 
L 393.262385 -194.579972 
L 393.717431 -194.579972 
L 394.172477 -194.579972 
L 394.627523 -194.579972 
L 395.082569 -194.579972 
L 395.537615 -194.579972 
L 395.992661 -194.579972 
L 396.447706 -194.579972 
L 396.902752 -194.579972 
L 397.357798 -194.579972 
L 397.812844 -194.579972 
L 398.26789 -194.579972 
L 398.722936 -194.579972 
L 399.177982 -194.579972 
L 399.633028 -194.579972 
L 400.088073 -194.579972 
L 400.543119 -194.579972 
L 400.998165 -194.579972 
L 401.453211 -194.579972 
L 401.908257 -194.579972 
L 402.363303 -194.579972 
L 402.818349 -194.579972 
L 403.273394 -194.579972 
L 403.72844 -194.579972 
L 404.183486 -194.579972 
L 404.638532 -194.579972 
L 405.093578 -194.579972 
L 405.548624 -194.579972 
L 406.00367 -194.579972 
L 406.458716 -194.579972 
L 406.913761 -194.579972 
L 407.368807 -194.579972 
L 407.823853 -194.579972 
L 408.278899 -194.579972 
L 408.733945 -194.579972 
L 409.188991 -194.579972 
L 409.644037 -194.579972 
L 410.099083 -194.579972 
L 410.554128 -194.579972 
L 411.009174 -194.579972 
L 411.46422 -194.579972 
L 411.919266 -194.579972 
L 412.374312 -194.579972 
L 412.829358 -194.579972 
L 413.284404 -194.579972 
L 413.73945 -194.579972 
L 414.194495 -194.579972 
L 414.649541 -194.579972 
L 415.104587 -194.579972 
L 415.559633 -194.579972 
L 416.014679 -194.579972 
L 416.469725 -194.579972 
L 416.924771 -194.579972 
L 417.379817 -194.579972 
L 417.834862 -194.579972 
L 418.289908 -194.579972 
L 418.744954 -194.579972 
L 419.2 -194.579972 
L 419.655046 -194.579972 
L 420.110092 -194.579972 
L 420.565138 -194.579972 
L 421.020183 -194.579972 
L 421.475229 -194.579972 
L 421.930275 -194.579972 
L 422.385321 -194.579972 
L 422.840367 -194.579972 
L 423.295413 -194.579972 
L 423.750459 -194.579972 
L 424.205505 -194.579972 
L 424.66055 -194.579972 
L 425.115596 -194.579972 
L 425.570642 -194.579972 
L 426.025688 -194.579972 
L 426.480734 -194.579972 
L 426.93578 -194.579972 
L 427.390826 -194.579972 
L 427.845872 -194.579972 
L 428.300917 -194.579972 
L 428.755963 -194.579972 
L 429.211009 -194.579972 
L 429.666055 -194.579972 
L 430.121101 -194.579972 
L 430.576147 -194.579972 
L 431.031193 -194.579972 
L 431.486239 -194.579972 
L 431.941284 -194.579972 
L 432.39633 -194.579972 
L 432.851376 -194.579972 
L 433.306422 -194.579972 
L 433.761468 -194.579972 
L 434.216514 -194.579972 
L 434.67156 -194.579972 
L 435.126606 -194.579972 
L 435.581651 -194.579972 
L 436.036697 -194.579972 
L 436.491743 -194.579972 
L 436.946789 -194.579972 
L 437.401835 -194.579972 
L 437.856881 -194.579972 
L 438.311927 -194.579972 
L 438.766972 -194.579972 
L 439.222018 -194.579972 
L 439.677064 -194.579972 
L 440.13211 -194.579972 
L 440.587156 -194.579972 
L 441.042202 -194.579972 
L 441.497248 -194.579972 
L 441.952294 -194.579972 
L 442.407339 -194.579972 
L 442.862385 -194.579972 
L 443.317431 -194.579972 
L 443.772477 -194.579972 
L 444.227523 -194.579972 
L 444.682569 -194.579972 
L 445.137615 -194.579972 
L 445.592661 -194.579972 
L 446.047706 -194.579972 
L 446.502752 -194.579972 
L 446.957798 -194.579972 
L 447.412844 -194.579972 
L 447.86789 -194.579972 
L 448.322936 -194.579972 
L 448.777982 -194.579972 
L 449.233028 -194.579972 
L 449.688073 -194.579972 
L 450.143119 -194.579972 
L 450.598165 -194.579972 
L 451.053211 -194.579972 
L 451.508257 -194.579972 
L 451.963303 -194.579972 
L 452.418349 -194.579972 
L 452.873394 -194.579972 
L 453.32844 -194.579972 
L 453.783486 -194.579972 
L 454.238532 -194.579972 
L 454.693578 -194.579972 
L 455.148624 -194.579972 
L 455.60367 -194.579972 
L 456.058716 -194.579972 
L 456.513761 -194.579972 
L 456.968807 -194.579972 
L 457.423853 -194.579972 
L 457.878899 -194.579972 
L 458.333945 -194.579972 
L 458.788991 -194.579972 
L 459.244037 -194.579972 
L 459.699083 -194.579972 
L 460.154128 -194.579972 
L 460.609174 -194.579972 
L 461.06422 -194.579972 
L 461.519266 -194.579972 
L 461.974312 -194.579972 
L 462.429358 -194.579972 
L 462.884404 -194.579972 
L 463.33945 -194.579972 
L 463.794495 -194.579972 
L 464.249541 -194.579972 
L 464.704587 -194.579972 
L 465.159633 -194.579972 
L 465.614679 -194.579972 
L 466.069725 -194.579972 
L 466.524771 -194.579972 
L 466.979817 -194.579972 
L 467.434862 -194.579972 
L 467.889908 -194.579972 
L 468.344954 -194.579972 
L 468.8 -194.579972 
L 469.255046 -194.579972 
L 469.710092 -194.579972 
L 470.165138 -194.579972 
L 470.620183 -194.579972 
L 471.075229 -194.579972 
L 471.530275 -194.579972 
L 471.985321 -194.579972 
L 472.440367 -194.579972 
L 472.895413 -194.579972 
L 473.350459 -194.579972 
L 473.805505 -194.579972 
L 474.26055 -194.579972 
L 474.715596 -194.579972 
L 475.170642 -194.579972 
L 475.625688 -194.579972 
L 476.080734 -194.579972 
L 476.53578 -194.579972 
L 476.990826 -194.579972 
L 477.445872 -194.579972 
L 477.900917 -194.579972 
L 478.355963 -194.579972 
L 478.811009 -194.579972 
L 479.266055 -194.579972 
L 479.721101 -194.579972 
L 480.176147 -194.579972 
L 480.631193 -194.579972 
L 481.086239 -194.579972 
L 481.541284 -194.579972 
L 481.99633 -194.579972 
L 482.451376 -194.579972 
L 482.906422 -194.579972 
L 483.361468 -194.579972 
L 483.816514 -194.579972 
L 484.27156 -194.579972 
L 484.726606 -194.579972 
L 485.181651 -194.579972 
L 485.636697 -194.579972 
L 486.091743 -194.579972 
L 486.546789 -194.579972 
L 487.001835 -194.579972 
L 487.456881 -194.579972 
L 487.911927 -194.579972 
L 488.366972 -194.579972 
L 488.822018 -194.579972 
L 489.277064 -194.579972 
L 489.73211 -194.579972 
L 490.187156 -194.579972 
L 490.642202 -194.579972 
L 491.097248 -194.579972 
L 491.552294 -194.579972 
L 492.007339 -194.579972 
L 492.462385 -194.579972 
L 492.917431 -194.579972 
L 493.372477 -194.579972 
L 493.827523 -194.579972 
L 494.282569 -194.579972 
L 494.737615 -194.579972 
L 495.192661 -194.579972 
L 495.647706 -194.579972 
L 496.102752 -194.579972 
L 496.557798 -194.579972 
L 497.012844 -194.579972 
L 497.46789 -194.579972 
L 497.922936 -194.579972 
L 498.377982 -194.579972 
L 498.833028 -194.579972 
L 499.288073 -194.579972 
L 499.743119 -194.579972 
L 500.198165 -194.579972 
L 500.653211 -194.579972 
L 501.108257 -194.579972 
L 501.563303 -194.579972 
L 502.018349 -194.579972 
L 502.473394 -194.579972 
L 502.92844 -194.579972 
L 503.383486 -194.579972 
L 503.838532 -194.579972 
L 504.293578 -194.579972 
L 504.748624 -194.579972 
L 505.20367 -194.579972 
L 505.658716 -194.579972 
L 506.113761 -194.579972 
L 506.568807 -194.579972 
L 507.023853 -194.579972 
L 507.478899 -194.579972 
L 507.933945 -194.579972 
L 508.388991 -194.579972 
L 508.844037 -194.579972 
L 509.299083 -194.579972 
L 509.754128 -194.579972 
L 510.209174 -194.579972 
L 510.66422 -194.579972 
L 511.119266 -194.579972 
L 511.574312 -194.579972 
L 512.029358 -194.579972 
L 512.484404 -194.579972 
L 512.93945 -194.579972 
L 513.394495 -194.579972 
L 513.849541 -194.579972 
L 514.304587 -194.579972 
L 514.759633 -194.579972 
L 515.214679 -194.579972 
L 515.669725 -194.579972 
L 516.124771 -194.579972 
L 516.579817 -194.579972 
L 517.034862 -194.579972 
L 517.489908 -194.579972 
L 517.944954 -194.579972 
L 518.4 -194.579972 
L 518.4 -190.709622 
L 518.4 -190.709622 
L 517.944954 -190.709622 
L 517.489908 -190.709622 
L 517.034862 -190.709622 
L 516.579817 -190.709622 
L 516.124771 -190.709622 
L 515.669725 -190.709622 
L 515.214679 -190.709622 
L 514.759633 -190.709622 
L 514.304587 -190.709622 
L 513.849541 -190.709622 
L 513.394495 -190.709622 
L 512.93945 -190.709622 
L 512.484404 -190.709622 
L 512.029358 -190.709622 
L 511.574312 -190.709622 
L 511.119266 -190.709622 
L 510.66422 -190.709622 
L 510.209174 -190.709622 
L 509.754128 -190.709622 
L 509.299083 -190.709622 
L 508.844037 -190.709622 
L 508.388991 -190.709622 
L 507.933945 -190.709622 
L 507.478899 -190.709622 
L 507.023853 -190.709622 
L 506.568807 -190.709622 
L 506.113761 -190.709622 
L 505.658716 -190.709622 
L 505.20367 -190.709622 
L 504.748624 -190.709622 
L 504.293578 -190.709622 
L 503.838532 -190.709622 
L 503.383486 -190.709622 
L 502.92844 -190.709622 
L 502.473394 -190.709622 
L 502.018349 -190.709622 
L 501.563303 -190.709622 
L 501.108257 -190.709622 
L 500.653211 -190.709622 
L 500.198165 -190.709622 
L 499.743119 -190.709622 
L 499.288073 -190.709622 
L 498.833028 -190.709622 
L 498.377982 -190.709622 
L 497.922936 -190.709622 
L 497.46789 -190.709622 
L 497.012844 -190.709622 
L 496.557798 -190.709622 
L 496.102752 -190.709622 
L 495.647706 -190.709622 
L 495.192661 -190.709622 
L 494.737615 -190.709622 
L 494.282569 -190.709622 
L 493.827523 -190.709622 
L 493.372477 -190.709622 
L 492.917431 -190.709622 
L 492.462385 -190.709622 
L 492.007339 -190.709622 
L 491.552294 -190.709622 
L 491.097248 -190.709622 
L 490.642202 -190.709622 
L 490.187156 -190.709622 
L 489.73211 -190.709622 
L 489.277064 -190.709622 
L 488.822018 -190.709622 
L 488.366972 -190.709622 
L 487.911927 -190.709622 
L 487.456881 -190.709622 
L 487.001835 -190.709622 
L 486.546789 -190.709622 
L 486.091743 -190.709622 
L 485.636697 -190.709622 
L 485.181651 -190.709622 
L 484.726606 -190.709622 
L 484.27156 -190.709622 
L 483.816514 -190.709622 
L 483.361468 -190.709622 
L 482.906422 -190.709622 
L 482.451376 -190.709622 
L 481.99633 -190.709622 
L 481.541284 -190.709622 
L 481.086239 -190.709622 
L 480.631193 -190.709622 
L 480.176147 -190.709622 
L 479.721101 -190.709622 
L 479.266055 -190.709622 
L 478.811009 -190.709622 
L 478.355963 -190.709622 
L 477.900917 -190.709622 
L 477.445872 -190.709622 
L 476.990826 -190.709622 
L 476.53578 -190.709622 
L 476.080734 -190.709622 
L 475.625688 -190.709622 
L 475.170642 -190.709622 
L 474.715596 -190.709622 
L 474.26055 -190.709622 
L 473.805505 -190.709622 
L 473.350459 -190.709622 
L 472.895413 -190.709622 
L 472.440367 -190.709622 
L 471.985321 -190.709622 
L 471.530275 -190.709622 
L 471.075229 -190.709622 
L 470.620183 -190.709622 
L 470.165138 -190.709622 
L 469.710092 -190.709622 
L 469.255046 -190.709622 
L 468.8 -190.709622 
L 468.344954 -190.709622 
L 467.889908 -190.709622 
L 467.434862 -190.709622 
L 466.979817 -190.709622 
L 466.524771 -190.709622 
L 466.069725 -190.709622 
L 465.614679 -190.709622 
L 465.159633 -190.709622 
L 464.704587 -190.709622 
L 464.249541 -190.709622 
L 463.794495 -190.709622 
L 463.33945 -190.709622 
L 462.884404 -190.709622 
L 462.429358 -190.709622 
L 461.974312 -190.709622 
L 461.519266 -190.709622 
L 461.06422 -190.709622 
L 460.609174 -190.709622 
L 460.154128 -190.709622 
L 459.699083 -190.709622 
L 459.244037 -190.709622 
L 458.788991 -190.709622 
L 458.333945 -190.709622 
L 457.878899 -190.709622 
L 457.423853 -190.709622 
L 456.968807 -190.709622 
L 456.513761 -190.709622 
L 456.058716 -190.709622 
L 455.60367 -190.709622 
L 455.148624 -190.709622 
L 454.693578 -190.709622 
L 454.238532 -190.709622 
L 453.783486 -190.709622 
L 453.32844 -190.709622 
L 452.873394 -190.709622 
L 452.418349 -190.709622 
L 451.963303 -190.709622 
L 451.508257 -190.709622 
L 451.053211 -190.709622 
L 450.598165 -190.709622 
L 450.143119 -190.709622 
L 449.688073 -190.709622 
L 449.233028 -190.709622 
L 448.777982 -190.709622 
L 448.322936 -190.709622 
L 447.86789 -190.709622 
L 447.412844 -190.709622 
L 446.957798 -190.709622 
L 446.502752 -190.709622 
L 446.047706 -190.709622 
L 445.592661 -190.709622 
L 445.137615 -190.709622 
L 444.682569 -190.709622 
L 444.227523 -190.709622 
L 443.772477 -190.709622 
L 443.317431 -190.709622 
L 442.862385 -190.709622 
L 442.407339 -190.709622 
L 441.952294 -190.709622 
L 441.497248 -190.709622 
L 441.042202 -190.709622 
L 440.587156 -190.709622 
L 440.13211 -190.709622 
L 439.677064 -190.709622 
L 439.222018 -190.709622 
L 438.766972 -190.709622 
L 438.311927 -190.709622 
L 437.856881 -190.709622 
L 437.401835 -190.709622 
L 436.946789 -190.709622 
L 436.491743 -190.709622 
L 436.036697 -190.709622 
L 435.581651 -190.709622 
L 435.126606 -190.709622 
L 434.67156 -190.709622 
L 434.216514 -190.709622 
L 433.761468 -190.709622 
L 433.306422 -190.709622 
L 432.851376 -190.709622 
L 432.39633 -190.709622 
L 431.941284 -190.709622 
L 431.486239 -190.709622 
L 431.031193 -190.709622 
L 430.576147 -190.709622 
L 430.121101 -190.709622 
L 429.666055 -190.709622 
L 429.211009 -190.709622 
L 428.755963 -190.709622 
L 428.300917 -190.709622 
L 427.845872 -190.709622 
L 427.390826 -190.709622 
L 426.93578 -190.709622 
L 426.480734 -190.709622 
L 426.025688 -190.709622 
L 425.570642 -190.709622 
L 425.115596 -190.709622 
L 424.66055 -190.709622 
L 424.205505 -190.709622 
L 423.750459 -190.709622 
L 423.295413 -190.709622 
L 422.840367 -190.709622 
L 422.385321 -190.709622 
L 421.930275 -190.709622 
L 421.475229 -190.709622 
L 421.020183 -190.709622 
L 420.565138 -190.709622 
L 420.110092 -190.709622 
L 419.655046 -190.709622 
L 419.2 -190.709622 
L 418.744954 -190.709622 
L 418.289908 -190.709622 
L 417.834862 -190.709622 
L 417.379817 -190.709622 
L 416.924771 -190.709622 
L 416.469725 -190.709622 
L 416.014679 -190.709622 
L 415.559633 -190.709622 
L 415.104587 -190.709622 
L 414.649541 -190.709622 
L 414.194495 -190.709622 
L 413.73945 -190.709622 
L 413.284404 -190.709622 
L 412.829358 -190.709622 
L 412.374312 -190.709622 
L 411.919266 -190.709622 
L 411.46422 -190.709622 
L 411.009174 -190.709622 
L 410.554128 -190.709622 
L 410.099083 -190.709622 
L 409.644037 -190.709622 
L 409.188991 -190.709622 
L 408.733945 -190.709622 
L 408.278899 -190.709622 
L 407.823853 -190.709622 
L 407.368807 -190.709622 
L 406.913761 -190.709622 
L 406.458716 -190.709622 
L 406.00367 -190.709622 
L 405.548624 -190.709622 
L 405.093578 -190.709622 
L 404.638532 -190.709622 
L 404.183486 -190.709622 
L 403.72844 -190.709622 
L 403.273394 -190.709622 
L 402.818349 -190.709622 
L 402.363303 -190.709622 
L 401.908257 -190.709622 
L 401.453211 -190.709622 
L 400.998165 -190.709622 
L 400.543119 -190.709622 
L 400.088073 -190.709622 
L 399.633028 -190.709622 
L 399.177982 -190.709622 
L 398.722936 -190.709622 
L 398.26789 -190.709622 
L 397.812844 -190.709622 
L 397.357798 -190.709622 
L 396.902752 -190.709622 
L 396.447706 -190.709622 
L 395.992661 -190.709622 
L 395.537615 -190.709622 
L 395.082569 -190.709622 
L 394.627523 -190.709622 
L 394.172477 -190.709622 
L 393.717431 -190.709622 
L 393.262385 -190.709622 
L 392.807339 -190.709622 
L 392.352294 -190.709622 
L 391.897248 -190.709622 
L 391.442202 -190.709622 
L 390.987156 -190.709622 
L 390.53211 -190.709622 
L 390.077064 -190.709622 
L 389.622018 -190.709622 
L 389.166972 -190.709622 
L 388.711927 -190.709622 
L 388.256881 -190.709622 
L 387.801835 -190.709622 
L 387.346789 -190.709622 
L 386.891743 -190.709622 
L 386.436697 -190.709622 
L 385.981651 -190.709622 
L 385.526606 -190.709622 
L 385.07156 -190.709622 
L 384.616514 -190.709622 
L 384.161468 -190.709622 
L 383.706422 -190.709622 
L 383.251376 -190.709622 
L 382.79633 -190.709622 
L 382.341284 -190.709622 
L 381.886239 -190.709622 
L 381.431193 -190.709622 
L 380.976147 -190.709622 
L 380.521101 -190.709622 
L 380.066055 -190.709622 
L 379.611009 -190.709622 
L 379.155963 -190.709622 
L 378.700917 -190.709622 
L 378.245872 -190.709622 
L 377.790826 -190.709622 
L 377.33578 -190.709622 
L 376.880734 -190.709622 
L 376.425688 -190.709622 
L 375.970642 -190.709622 
L 375.515596 -190.709622 
L 375.06055 -190.709622 
L 374.605505 -190.709622 
L 374.150459 -190.709622 
L 373.695413 -190.709622 
L 373.240367 -190.709622 
L 372.785321 -190.709622 
L 372.330275 -190.709622 
L 371.875229 -190.709622 
L 371.420183 -190.709622 
L 370.965138 -190.709622 
L 370.510092 -190.709622 
L 370.055046 -190.709622 
L 369.6 -190.709622 
L 369.144954 -190.709622 
L 368.689908 -190.709622 
L 368.234862 -190.709622 
L 367.779817 -190.709622 
L 367.324771 -190.709622 
L 366.869725 -190.709622 
L 366.414679 -190.709622 
L 365.959633 -190.709622 
L 365.504587 -190.709622 
L 365.049541 -190.709622 
L 364.594495 -190.709622 
L 364.13945 -190.709622 
L 363.684404 -190.709622 
L 363.229358 -190.709622 
L 362.774312 -190.709622 
L 362.319266 -190.709622 
L 361.86422 -190.709622 
L 361.409174 -190.709622 
L 360.954128 -190.709622 
L 360.499083 -190.709622 
L 360.044037 -190.709622 
L 359.588991 -190.709622 
L 359.133945 -190.709622 
L 358.678899 -190.709622 
L 358.223853 -190.709622 
L 357.768807 -190.709622 
L 357.313761 -190.709622 
L 356.858716 -190.709622 
L 356.40367 -190.709622 
L 355.948624 -190.709622 
L 355.493578 -190.709622 
L 355.038532 -190.709622 
L 354.583486 -190.709622 
L 354.12844 -190.709622 
L 353.673394 -190.709622 
L 353.218349 -190.709622 
L 352.763303 -190.709622 
L 352.308257 -190.709622 
L 351.853211 -190.709622 
L 351.398165 -190.709622 
L 350.943119 -190.709622 
L 350.488073 -190.709622 
L 350.033028 -190.709622 
L 349.577982 -190.709622 
L 349.122936 -190.709622 
L 348.66789 -190.709622 
L 348.212844 -190.709622 
L 347.757798 -190.709622 
L 347.302752 -190.709622 
L 346.847706 -190.709622 
L 346.392661 -190.709622 
L 345.937615 -190.709622 
L 345.482569 -190.709622 
L 345.027523 -190.709622 
L 344.572477 -190.709622 
L 344.117431 -190.709622 
L 343.662385 -190.709622 
L 343.207339 -190.709622 
L 342.752294 -190.709622 
L 342.297248 -190.709622 
L 341.842202 -190.709622 
L 341.387156 -190.709622 
L 340.93211 -190.709622 
L 340.477064 -190.709622 
L 340.022018 -190.709622 
L 339.566972 -190.709622 
L 339.111927 -190.709622 
L 338.656881 -190.709622 
L 338.201835 -190.709622 
L 337.746789 -190.709622 
L 337.291743 -190.709622 
L 336.836697 -190.709622 
L 336.381651 -190.709622 
L 335.926606 -190.709622 
L 335.47156 -190.709622 
L 335.016514 -190.709622 
L 334.561468 -190.709622 
L 334.106422 -190.709622 
L 333.651376 -190.709622 
L 333.19633 -190.709622 
L 332.741284 -190.709622 
L 332.286239 -190.709622 
L 331.831193 -190.709622 
L 331.376147 -190.709622 
L 330.921101 -190.709622 
L 330.466055 -190.709622 
L 330.011009 -190.709622 
L 329.555963 -190.709622 
L 329.100917 -190.709622 
L 328.645872 -190.709622 
L 328.190826 -190.709622 
L 327.73578 -190.709622 
L 327.280734 -190.709622 
L 326.825688 -190.709622 
L 326.370642 -190.709622 
L 325.915596 -190.709622 
L 325.46055 -190.709622 
L 325.005505 -190.709622 
L 324.550459 -190.709622 
L 324.095413 -190.709622 
L 323.640367 -190.709622 
L 323.185321 -190.709622 
L 322.730275 -190.709622 
L 322.275229 -190.709622 
L 321.820183 -190.709622 
L 321.365138 -190.709622 
L 320.910092 -190.709622 
L 320.455046 -190.709622 
L 320 -190.709622 
L 319.544954 -190.709622 
L 319.089908 -190.709622 
L 318.634862 -190.709622 
L 318.179817 -190.709622 
L 317.724771 -190.709622 
L 317.269725 -190.709622 
L 316.814679 -190.709622 
L 316.359633 -190.709622 
L 315.904587 -190.709622 
L 315.449541 -190.709622 
L 314.994495 -190.709622 
L 314.53945 -190.709622 
L 314.084404 -190.709622 
L 313.629358 -190.709622 
L 313.174312 -190.709622 
L 312.719266 -190.709622 
L 312.26422 -190.709622 
L 311.809174 -190.709622 
L 311.354128 -190.709622 
L 310.899083 -190.709622 
L 310.444037 -190.709622 
L 309.988991 -190.709622 
L 309.533945 -190.709622 
L 309.078899 -190.709622 
L 308.623853 -190.709622 
L 308.168807 -190.709622 
L 307.713761 -190.709622 
L 307.258716 -190.709622 
L 306.80367 -190.709622 
L 306.348624 -190.709622 
L 305.893578 -190.709622 
L 305.438532 -190.709622 
L 304.983486 -190.709622 
L 304.52844 -190.709622 
L 304.073394 -190.709622 
L 303.618349 -190.709622 
L 303.163303 -190.709622 
L 302.708257 -190.709622 
L 302.253211 -190.709622 
L 301.798165 -190.709622 
L 301.343119 -190.709622 
L 300.888073 -190.709622 
L 300.433028 -190.709622 
L 299.977982 -190.709622 
L 299.522936 -190.709622 
L 299.06789 -190.709622 
L 298.612844 -190.709622 
L 298.157798 -190.709622 
L 297.702752 -190.709622 
L 297.247706 -190.709622 
L 296.792661 -190.709622 
L 296.337615 -190.709622 
L 295.882569 -190.709622 
L 295.427523 -190.709622 
L 294.972477 -190.709622 
L 294.517431 -190.709622 
L 294.062385 -190.709622 
L 293.607339 -190.709622 
L 293.152294 -190.709622 
L 292.697248 -190.709622 
L 292.242202 -190.709622 
L 291.787156 -190.709622 
L 291.33211 -190.709622 
L 290.877064 -190.709622 
L 290.422018 -190.709622 
L 289.966972 -190.709622 
L 289.511927 -190.709622 
L 289.056881 -190.709622 
L 288.601835 -190.709622 
L 288.146789 -190.709622 
L 287.691743 -190.709622 
L 287.236697 -190.709622 
L 286.781651 -190.709622 
L 286.326606 -190.709622 
L 285.87156 -190.709622 
L 285.416514 -190.709622 
L 284.961468 -190.709622 
L 284.506422 -190.709622 
L 284.051376 -190.709622 
L 283.59633 -190.709622 
L 283.141284 -190.709622 
L 282.686239 -190.709622 
L 282.231193 -190.709622 
L 281.776147 -190.709622 
L 281.321101 -190.709622 
L 280.866055 -190.709622 
L 280.411009 -190.709622 
L 279.955963 -190.709622 
L 279.500917 -190.709622 
L 279.045872 -190.709622 
L 278.590826 -190.709622 
L 278.13578 -190.709622 
L 277.680734 -190.709622 
L 277.225688 -190.709622 
L 276.770642 -190.709622 
L 276.315596 -190.709622 
L 275.86055 -190.709622 
L 275.405505 -190.709622 
L 274.950459 -190.709622 
L 274.495413 -190.709622 
L 274.040367 -190.709622 
L 273.585321 -190.709622 
L 273.130275 -190.709622 
L 272.675229 -190.709622 
L 272.220183 -190.709622 
L 271.765138 -190.709622 
L 271.310092 -190.709622 
L 270.855046 -190.709622 
L 270.4 -190.709622 
L 269.944954 -190.709622 
L 269.489908 -190.709622 
L 269.034862 -190.709622 
L 268.579817 -190.709622 
L 268.124771 -190.709622 
L 267.669725 -190.709622 
L 267.214679 -190.709622 
L 266.759633 -190.709622 
L 266.304587 -190.709622 
L 265.849541 -190.709622 
L 265.394495 -190.709622 
L 264.93945 -190.709622 
L 264.484404 -190.709622 
L 264.029358 -190.709622 
L 263.574312 -190.709622 
L 263.119266 -190.709622 
L 262.66422 -190.709622 
L 262.209174 -190.709622 
L 261.754128 -190.709622 
L 261.299083 -190.709622 
L 260.844037 -190.709622 
L 260.388991 -190.709622 
L 259.933945 -190.709622 
L 259.478899 -190.709622 
L 259.023853 -190.709622 
L 258.568807 -190.709622 
L 258.113761 -190.709622 
L 257.658716 -190.709622 
L 257.20367 -190.709622 
L 256.748624 -190.709622 
L 256.293578 -190.709622 
L 255.838532 -190.709622 
L 255.383486 -190.709622 
L 254.92844 -190.709622 
L 254.473394 -190.709622 
L 254.018349 -190.709622 
L 253.563303 -190.709622 
L 253.108257 -190.709622 
L 252.653211 -190.709622 
L 252.198165 -190.709622 
L 251.743119 -190.709622 
L 251.288073 -190.709622 
L 250.833028 -190.709622 
L 250.377982 -190.709622 
L 249.922936 -190.709622 
L 249.46789 -190.709622 
L 249.012844 -190.709622 
L 248.557798 -190.709622 
L 248.102752 -190.709622 
L 247.647706 -190.709622 
L 247.192661 -190.709622 
L 246.737615 -190.709622 
L 246.282569 -190.709622 
L 245.827523 -190.709622 
L 245.372477 -190.709622 
L 244.917431 -190.709622 
L 244.462385 -190.709622 
L 244.007339 -190.709622 
L 243.552294 -190.709622 
L 243.097248 -190.709622 
L 242.642202 -190.709622 
L 242.187156 -190.709622 
L 241.73211 -190.709622 
L 241.277064 -190.709622 
L 240.822018 -190.709622 
L 240.366972 -190.709622 
L 239.911927 -190.709622 
L 239.456881 -190.709622 
L 239.001835 -190.709622 
L 238.546789 -190.709622 
L 238.091743 -190.709622 
L 237.636697 -190.709622 
L 237.181651 -190.709622 
L 236.726606 -190.709622 
L 236.27156 -190.709622 
L 235.816514 -190.709622 
L 235.361468 -190.709622 
L 234.906422 -190.709622 
L 234.451376 -190.709622 
L 233.99633 -190.709622 
L 233.541284 -190.709622 
L 233.086239 -190.709622 
L 232.631193 -190.709622 
L 232.176147 -190.709622 
L 231.721101 -190.709622 
L 231.266055 -190.709622 
L 230.811009 -190.709622 
L 230.355963 -190.709622 
L 229.900917 -190.709622 
L 229.445872 -190.709622 
L 228.990826 -190.709622 
L 228.53578 -190.709622 
L 228.080734 -190.709622 
L 227.625688 -190.709622 
L 227.170642 -190.709622 
L 226.715596 -190.709622 
L 226.26055 -190.709622 
L 225.805505 -190.709622 
L 225.350459 -190.709622 
L 224.895413 -190.709622 
L 224.440367 -190.709622 
L 223.985321 -190.709622 
L 223.530275 -190.709622 
L 223.075229 -190.709622 
L 222.620183 -190.709622 
L 222.165138 -190.709622 
L 221.710092 -190.709622 
L 221.255046 -190.709622 
L 220.8 -190.709622 
L 220.344954 -190.709622 
L 219.889908 -190.709622 
L 219.434862 -190.709622 
L 218.979817 -190.709622 
L 218.524771 -190.709622 
L 218.069725 -190.709622 
L 217.614679 -190.709622 
L 217.159633 -190.709622 
L 216.704587 -190.709622 
L 216.249541 -190.709622 
L 215.794495 -190.709622 
L 215.33945 -190.709622 
L 214.884404 -190.709622 
L 214.429358 -190.709622 
L 213.974312 -190.709622 
L 213.519266 -190.709622 
L 213.06422 -190.709622 
L 212.609174 -190.709622 
L 212.154128 -190.709622 
L 211.699083 -190.709622 
L 211.244037 -190.709622 
L 210.788991 -190.709622 
L 210.333945 -190.709622 
L 209.878899 -190.709622 
L 209.423853 -190.709622 
L 208.968807 -190.709622 
L 208.513761 -190.709622 
L 208.058716 -190.709622 
L 207.60367 -190.709622 
L 207.148624 -190.709622 
L 206.693578 -190.709622 
L 206.238532 -190.709622 
L 205.783486 -190.709622 
L 205.32844 -190.709622 
L 204.873394 -190.709622 
L 204.418349 -190.709622 
L 203.963303 -190.709622 
L 203.508257 -190.709622 
L 203.053211 -190.709622 
L 202.598165 -190.709622 
L 202.143119 -190.709622 
L 201.688073 -190.709622 
L 201.233028 -190.709622 
L 200.777982 -190.709622 
L 200.322936 -190.709622 
L 199.86789 -190.709622 
L 199.412844 -190.709622 
L 198.957798 -190.709622 
L 198.502752 -190.709622 
L 198.047706 -190.709622 
L 197.592661 -190.709622 
L 197.137615 -190.709622 
L 196.682569 -190.709622 
L 196.227523 -190.709622 
L 195.772477 -190.709622 
L 195.317431 -190.709622 
L 194.862385 -190.709622 
L 194.407339 -190.709622 
L 193.952294 -190.709622 
L 193.497248 -190.709622 
L 193.042202 -190.709622 
L 192.587156 -190.709622 
L 192.13211 -190.709622 
L 191.677064 -190.709622 
L 191.222018 -190.709622 
L 190.766972 -190.709622 
L 190.311927 -190.709622 
L 189.856881 -190.709622 
L 189.401835 -190.709622 
L 188.946789 -190.709622 
L 188.491743 -190.709622 
L 188.036697 -190.709622 
L 187.581651 -190.709622 
L 187.126606 -190.709622 
L 186.67156 -190.709622 
L 186.216514 -190.709622 
L 185.761468 -190.709622 
L 185.306422 -190.709622 
L 184.851376 -190.709622 
L 184.39633 -190.709622 
L 183.941284 -190.709622 
L 183.486239 -190.709622 
L 183.031193 -190.709622 
L 182.576147 -190.709622 
L 182.121101 -190.709622 
L 181.666055 -190.709622 
L 181.211009 -190.709622 
L 180.755963 -190.709622 
L 180.300917 -190.709622 
L 179.845872 -190.709622 
L 179.390826 -190.709622 
L 178.93578 -190.709622 
L 178.480734 -190.709622 
L 178.025688 -190.709622 
L 177.570642 -190.709622 
L 177.115596 -190.709622 
L 176.66055 -190.709622 
L 176.205505 -190.709622 
L 175.750459 -190.709622 
L 175.295413 -190.709622 
L 174.840367 -190.709622 
L 174.385321 -190.709622 
L 173.930275 -190.709622 
L 173.475229 -190.709622 
L 173.020183 -190.709622 
L 172.565138 -190.709622 
L 172.110092 -190.709622 
L 171.655046 -190.709622 
L 171.2 -190.709622 
L 170.744954 -190.709622 
L 170.289908 -190.709622 
L 169.834862 -190.709622 
L 169.379817 -190.709622 
L 168.924771 -190.709622 
L 168.469725 -190.709622 
L 168.014679 -190.709622 
L 167.559633 -190.709622 
L 167.104587 -190.709622 
L 166.649541 -190.709622 
L 166.194495 -190.709622 
L 165.73945 -190.709622 
L 165.284404 -190.709622 
L 164.829358 -190.709622 
L 164.374312 -190.709622 
L 163.919266 -190.709622 
L 163.46422 -190.709622 
L 163.009174 -190.709622 
L 162.554128 -190.709622 
L 162.099083 -190.709622 
L 161.644037 -190.709622 
L 161.188991 -190.709622 
L 160.733945 -190.709622 
L 160.278899 -190.709622 
L 159.823853 -190.709622 
L 159.368807 -190.709622 
L 158.913761 -190.709622 
L 158.458716 -190.709622 
L 158.00367 -190.709622 
L 157.548624 -190.709622 
L 157.093578 -190.709622 
L 156.638532 -190.709622 
L 156.183486 -190.709622 
L 155.72844 -190.709622 
L 155.273394 -190.709622 
L 154.818349 -190.709622 
L 154.363303 -190.709622 
L 153.908257 -190.709622 
L 153.453211 -190.709622 
L 152.998165 -190.709622 
L 152.543119 -190.709622 
L 152.088073 -190.709622 
L 151.633028 -190.709622 
L 151.177982 -190.709622 
L 150.722936 -190.709622 
L 150.26789 -190.709622 
L 149.812844 -190.709622 
L 149.357798 -190.709622 
L 148.902752 -190.709622 
L 148.447706 -190.709622 
L 147.992661 -190.709622 
L 147.537615 -190.709622 
L 147.082569 -190.709622 
L 146.627523 -190.709622 
L 146.172477 -190.709622 
L 145.717431 -190.709622 
L 145.262385 -190.709622 
L 144.807339 -190.709622 
L 144.352294 -190.709622 
L 143.897248 -190.709622 
L 143.442202 -190.709622 
L 142.987156 -190.709622 
L 142.53211 -190.709622 
L 142.077064 -190.709622 
L 141.622018 -190.709622 
L 141.166972 -190.709622 
L 140.711927 -190.709622 
L 140.256881 -190.709622 
L 139.801835 -190.709622 
L 139.346789 -190.709622 
L 138.891743 -190.709622 
L 138.436697 -190.709622 
L 137.981651 -190.709622 
L 137.526606 -190.709622 
L 137.07156 -190.709622 
L 136.616514 -190.709622 
L 136.161468 -190.709622 
L 135.706422 -190.709622 
L 135.251376 -190.709622 
L 134.79633 -190.709622 
L 134.341284 -190.709622 
L 133.886239 -190.709622 
L 133.431193 -190.709622 
L 132.976147 -190.709622 
L 132.521101 -190.709622 
L 132.066055 -190.709622 
L 131.611009 -190.709622 
L 131.155963 -190.709622 
L 130.700917 -190.709622 
L 130.245872 -190.709622 
L 129.790826 -190.709622 
L 129.33578 -190.709622 
L 128.880734 -190.709622 
L 128.425688 -190.709622 
L 127.970642 -190.709622 
L 127.515596 -190.709622 
L 127.06055 -190.709622 
L 126.605505 -190.709622 
L 126.150459 -190.709622 
L 125.695413 -190.709622 
L 125.240367 -190.709622 
L 124.785321 -190.709622 
L 124.330275 -190.709622 
L 123.875229 -190.709622 
L 123.420183 -190.709622 
L 122.965138 -190.709622 
L 122.510092 -190.709622 
L 122.055046 -190.709622 
L 121.6 -190.709622 
L 121.144954 -190.709622 
L 120.689908 -190.709622 
L 120.234862 -190.709622 
L 119.779817 -190.709622 
L 119.324771 -190.709622 
L 118.869725 -190.709622 
L 118.414679 -190.709622 
L 117.959633 -190.709622 
L 117.504587 -190.709622 
L 117.049541 -190.709622 
L 116.594495 -190.709622 
L 116.13945 -190.709622 
L 115.684404 -190.709622 
L 115.229358 -190.709622 
L 114.774312 -190.709622 
L 114.319266 -190.709622 
L 113.86422 -190.709622 
L 113.409174 -190.709622 
L 112.954128 -190.709622 
L 112.499083 -190.709622 
L 112.044037 -190.709622 
L 111.588991 -190.709622 
L 111.133945 -190.709622 
L 110.678899 -190.709622 
L 110.223853 -190.709622 
L 109.768807 -190.709622 
L 109.313761 -190.709622 
L 108.858716 -190.709622 
L 108.40367 -190.709622 
L 107.948624 -190.709622 
L 107.493578 -190.709622 
L 107.038532 -190.709622 
L 106.583486 -190.709622 
L 106.12844 -190.709622 
L 105.673394 -190.709622 
L 105.218349 -190.709622 
L 104.763303 -190.709622 
L 104.308257 -190.709622 
L 103.853211 -190.709622 
L 103.398165 -190.709622 
L 102.943119 -190.709622 
L 102.488073 -190.709622 
L 102.033028 -190.709622 
L 101.577982 -190.709622 
L 101.122936 -190.709622 
L 100.66789 -190.709622 
L 100.212844 -190.709622 
L 99.757798 -190.709622 
L 99.302752 -190.709622 
L 98.847706 -190.709622 
L 98.392661 -190.709622 
L 97.937615 -190.709622 
L 97.482569 -190.709622 
L 97.027523 -190.709622 
L 96.572477 -190.709622 
L 96.117431 -190.709622 
L 95.662385 -190.709622 
L 95.207339 -190.709622 
L 94.752294 -190.709622 
L 94.297248 -190.709622 
L 93.842202 -190.709622 
L 93.387156 -190.709622 
L 92.93211 -190.709622 
L 92.477064 -190.709622 
L 92.022018 -190.709622 
L 91.566972 -190.709622 
L 91.111927 -190.709622 
L 90.656881 -190.709622 
L 90.201835 -190.709622 
L 89.746789 -190.709622 
L 89.291743 -190.709622 
L 88.836697 -190.709622 
L 88.381651 -190.709622 
L 87.926606 -190.709622 
L 87.47156 -190.709622 
L 87.016514 -190.709622 
L 86.561468 -190.709622 
L 86.106422 -190.709622 
L 85.651376 -190.709622 
L 85.19633 -190.709622 
L 84.741284 -190.709622 
L 84.286239 -190.709622 
L 83.831193 -190.709622 
L 83.376147 -190.709622 
L 82.921101 -190.709622 
L 82.466055 -190.709622 
L 82.011009 -190.709622 
L 81.555963 -190.709622 
L 81.100917 -190.709622 
L 80.645872 -190.709622 
L 80.190826 -190.709622 
L 79.73578 -190.709622 
L 79.280734 -190.709622 
L 78.825688 -190.709622 
L 78.370642 -190.709622 
L 77.915596 -190.709622 
L 77.46055 -190.709622 
L 77.005505 -190.709622 
L 76.550459 -190.709622 
L 76.095413 -190.709622 
L 75.640367 -190.709622 
L 75.185321 -190.709622 
L 74.730275 -190.709622 
L 74.275229 -190.709622 
L 73.820183 -190.709622 
L 73.365138 -190.709622 
L 72.910092 -190.709622 
L 72.455046 -190.709622 
L 72 -190.709622 
z
" id="me3c19aa82f"/>
    </defs>
    <g clip-path="url(#pbe03211893)">
     <use style="fill-opacity:0.15;" x="0" xlink:href="#me3c19aa82f" y="360"/>
    </g>
   </g>
   <g id="matplotlib.axis_1">
    <g id="xtick_1">
     <g id="line2d_1">
      <defs>
       <path d="M 0 0 
L 0 3.5 
" id="m59654f89eb" style="stroke:#000000;stroke-width:0.8;"/>
      </defs>
      <g>
       <use style="stroke:#000000;stroke-width:0.8;" x="72" xlink:href="#m59654f89eb" y="320.4"/>
      </g>
     </g>
     <g id="text_1">
      <!-- 0.0 -->
      <g transform="translate(60.867812 338.037813)scale(0.14 -0.14)">
       <defs>
        <path d="M 2034 4250 
Q 1547 4250 1301 3770 
Q 1056 3291 1056 2328 
Q 1056 1369 1301 889 
Q 1547 409 2034 409 
Q 2525 409 2770 889 
Q 3016 1369 3016 2328 
Q 3016 3291 2770 3770 
Q 2525 4250 2034 4250 
z
M 2034 4750 
Q 2819 4750 3233 4129 
Q 3647 3509 3647 2328 
Q 3647 1150 3233 529 
Q 2819 -91 2034 -91 
Q 1250 -91 836 529 
Q 422 1150 422 2328 
Q 422 3509 836 4129 
Q 1250 4750 2034 4750 
z
" id="DejaVuSans-30" transform="scale(0.015625)"/>
        <path d="M 684 794 
L 1344 794 
L 1344 0 
L 684 0 
L 684 794 
z
" id="DejaVuSans-2e" transform="scale(0.015625)"/>
       </defs>
       <use xlink:href="#DejaVuSans-30"/>
       <use x="63.623047" xlink:href="#DejaVuSans-2e"/>
       <use x="95.410156" xlink:href="#DejaVuSans-30"/>
      </g>
     </g>
    </g>
    <g id="xtick_2">
     <g id="line2d_2">
      <g>
       <use style="stroke:#000000;stroke-width:0.8;" x="127.839087" xlink:href="#m59654f89eb" y="320.4"/>
      </g>
     </g>
     <g id="text_2">
      <!-- 2.5 -->
      <g transform="translate(116.7069 338.037813)scale(0.14 -0.14)">
       <defs>
        <path d="M 1228 531 
L 3431 531 
L 3431 0 
L 469 0 
L 469 531 
Q 828 903 1448 1529 
Q 2069 2156 2228 2338 
Q 2531 2678 2651 2914 
Q 2772 3150 2772 3378 
Q 2772 3750 2511 3984 
Q 2250 4219 1831 4219 
Q 1534 4219 1204 4116 
Q 875 4013 500 3803 
L 500 4441 
Q 881 4594 1212 4672 
Q 1544 4750 1819 4750 
Q 2544 4750 2975 4387 
Q 3406 4025 3406 3419 
Q 3406 3131 3298 2873 
Q 3191 2616 2906 2266 
Q 2828 2175 2409 1742 
Q 1991 1309 1228 531 
z
" id="DejaVuSans-32" transform="scale(0.015625)"/>
        <path d="M 691 4666 
L 3169 4666 
L 3169 4134 
L 1269 4134 
L 1269 2991 
Q 1406 3038 1543 3061 
Q 1681 3084 1819 3084 
Q 2600 3084 3056 2656 
Q 3513 2228 3513 1497 
Q 3513 744 3044 326 
Q 2575 -91 1722 -91 
Q 1428 -91 1123 -41 
Q 819 9 494 109 
L 494 744 
Q 775 591 1075 516 
Q 1375 441 1709 441 
Q 2250 441 2565 725 
Q 2881 1009 2881 1497 
Q 2881 1984 2565 2268 
Q 2250 2553 1709 2553 
Q 1456 2553 1204 2497 
Q 953 2441 691 2322 
L 691 4666 
z
" id="DejaVuSans-35" transform="scale(0.015625)"/>
       </defs>
       <use xlink:href="#DejaVuSans-32"/>
       <use x="63.623047" xlink:href="#DejaVuSans-2e"/>
       <use x="95.410156" xlink:href="#DejaVuSans-35"/>
      </g>
     </g>
    </g>
    <g id="xtick_3">
     <g id="line2d_3">
      <g>
       <use style="stroke:#000000;stroke-width:0.8;" x="183.678175" xlink:href="#m59654f89eb" y="320.4"/>
      </g>
     </g>
     <g id="text_3">
      <!-- 5.0 -->
      <g transform="translate(172.545987 338.037813)scale(0.14 -0.14)">
       <use xlink:href="#DejaVuSans-35"/>
       <use x="63.623047" xlink:href="#DejaVuSans-2e"/>
       <use x="95.410156" xlink:href="#DejaVuSans-30"/>
      </g>
     </g>
    </g>
    <g id="xtick_4">
     <g id="line2d_4">
      <g>
       <use style="stroke:#000000;stroke-width:0.8;" x="239.517262" xlink:href="#m59654f89eb" y="320.4"/>
      </g>
     </g>
     <g id="text_4">
      <!-- 7.5 -->
      <g transform="translate(228.385075 338.037813)scale(0.14 -0.14)">
       <defs>
        <path d="M 525 4666 
L 3525 4666 
L 3525 4397 
L 1831 0 
L 1172 0 
L 2766 4134 
L 525 4134 
L 525 4666 
z
" id="DejaVuSans-37" transform="scale(0.015625)"/>
       </defs>
       <use xlink:href="#DejaVuSans-37"/>
       <use x="63.623047" xlink:href="#DejaVuSans-2e"/>
       <use x="95.410156" xlink:href="#DejaVuSans-35"/>
      </g>
     </g>
    </g>
    <g id="xtick_5">
     <g id="line2d_5">
      <g>
       <use style="stroke:#000000;stroke-width:0.8;" x="295.356349" xlink:href="#m59654f89eb" y="320.4"/>
      </g>
     </g>
     <g id="text_5">
      <!-- 10.0 -->
      <g transform="translate(279.770412 338.037813)scale(0.14 -0.14)">
       <defs>
        <path d="M 794 531 
L 1825 531 
L 1825 4091 
L 703 3866 
L 703 4441 
L 1819 4666 
L 2450 4666 
L 2450 531 
L 3481 531 
L 3481 0 
L 794 0 
L 794 531 
z
" id="DejaVuSans-31" transform="scale(0.015625)"/>
       </defs>
       <use xlink:href="#DejaVuSans-31"/>
       <use x="63.623047" xlink:href="#DejaVuSans-30"/>
       <use x="127.246094" xlink:href="#DejaVuSans-2e"/>
       <use x="159.033203" xlink:href="#DejaVuSans-30"/>
      </g>
     </g>
    </g>
    <g id="xtick_6">
     <g id="line2d_6">
      <g>
       <use style="stroke:#000000;stroke-width:0.8;" x="351.195437" xlink:href="#m59654f89eb" y="320.4"/>
      </g>
     </g>
     <g id="text_6">
      <!-- 12.5 -->
      <g transform="translate(335.609499 338.037813)scale(0.14 -0.14)">
       <use xlink:href="#DejaVuSans-31"/>
       <use x="63.623047" xlink:href="#DejaVuSans-32"/>
       <use x="127.246094" xlink:href="#DejaVuSans-2e"/>
       <use x="159.033203" xlink:href="#DejaVuSans-35"/>
      </g>
     </g>
    </g>
    <g id="xtick_7">
     <g id="line2d_7">
      <g>
       <use style="stroke:#000000;stroke-width:0.8;" x="407.034524" xlink:href="#m59654f89eb" y="320.4"/>
      </g>
     </g>
     <g id="text_7">
      <!-- 15.0 -->
      <g transform="translate(391.448587 338.037813)scale(0.14 -0.14)">
       <use xlink:href="#DejaVuSans-31"/>
       <use x="63.623047" xlink:href="#DejaVuSans-35"/>
       <use x="127.246094" xlink:href="#DejaVuSans-2e"/>
       <use x="159.033203" xlink:href="#DejaVuSans-30"/>
      </g>
     </g>
    </g>
    <g id="xtick_8">
     <g id="line2d_8">
      <g>
       <use style="stroke:#000000;stroke-width:0.8;" x="462.873612" xlink:href="#m59654f89eb" y="320.4"/>
      </g>
     </g>
     <g id="text_8">
      <!-- 17.5 -->
      <g transform="translate(447.287674 338.037813)scale(0.14 -0.14)">
       <use xlink:href="#DejaVuSans-31"/>
       <use x="63.623047" xlink:href="#DejaVuSans-37"/>
       <use x="127.246094" xlink:href="#DejaVuSans-2e"/>
       <use x="159.033203" xlink:href="#DejaVuSans-35"/>
      </g>
     </g>
    </g>
    <g id="text_9">
     <!-- Time [Seconds] -->
     <g transform="translate(233.23 357.106875)scale(0.16 -0.16)">
      <defs>
       <path d="M -19 4666 
L 3928 4666 
L 3928 4134 
L 2272 4134 
L 2272 0 
L 1638 0 
L 1638 4134 
L -19 4134 
L -19 4666 
z
" id="DejaVuSans-54" transform="scale(0.015625)"/>
       <path d="M 603 3500 
L 1178 3500 
L 1178 0 
L 603 0 
L 603 3500 
z
M 603 4863 
L 1178 4863 
L 1178 4134 
L 603 4134 
L 603 4863 
z
" id="DejaVuSans-69" transform="scale(0.015625)"/>
       <path d="M 3328 2828 
Q 3544 3216 3844 3400 
Q 4144 3584 4550 3584 
Q 5097 3584 5394 3201 
Q 5691 2819 5691 2113 
L 5691 0 
L 5113 0 
L 5113 2094 
Q 5113 2597 4934 2840 
Q 4756 3084 4391 3084 
Q 3944 3084 3684 2787 
Q 3425 2491 3425 1978 
L 3425 0 
L 2847 0 
L 2847 2094 
Q 2847 2600 2669 2842 
Q 2491 3084 2119 3084 
Q 1678 3084 1418 2786 
Q 1159 2488 1159 1978 
L 1159 0 
L 581 0 
L 581 3500 
L 1159 3500 
L 1159 2956 
Q 1356 3278 1631 3431 
Q 1906 3584 2284 3584 
Q 2666 3584 2933 3390 
Q 3200 3197 3328 2828 
z
" id="DejaVuSans-6d" transform="scale(0.015625)"/>
       <path d="M 3597 1894 
L 3597 1613 
L 953 1613 
Q 991 1019 1311 708 
Q 1631 397 2203 397 
Q 2534 397 2845 478 
Q 3156 559 3463 722 
L 3463 178 
Q 3153 47 2828 -22 
Q 2503 -91 2169 -91 
Q 1331 -91 842 396 
Q 353 884 353 1716 
Q 353 2575 817 3079 
Q 1281 3584 2069 3584 
Q 2775 3584 3186 3129 
Q 3597 2675 3597 1894 
z
M 3022 2063 
Q 3016 2534 2758 2815 
Q 2500 3097 2075 3097 
Q 1594 3097 1305 2825 
Q 1016 2553 972 2059 
L 3022 2063 
z
" id="DejaVuSans-65" transform="scale(0.015625)"/>
       <path id="DejaVuSans-20" transform="scale(0.015625)"/>
       <path d="M 550 4863 
L 1875 4863 
L 1875 4416 
L 1125 4416 
L 1125 -397 
L 1875 -397 
L 1875 -844 
L 550 -844 
L 550 4863 
z
" id="DejaVuSans-5b" transform="scale(0.015625)"/>
       <path d="M 3425 4513 
L 3425 3897 
Q 3066 4069 2747 4153 
Q 2428 4238 2131 4238 
Q 1616 4238 1336 4038 
Q 1056 3838 1056 3469 
Q 1056 3159 1242 3001 
Q 1428 2844 1947 2747 
L 2328 2669 
Q 3034 2534 3370 2195 
Q 3706 1856 3706 1288 
Q 3706 609 3251 259 
Q 2797 -91 1919 -91 
Q 1588 -91 1214 -16 
Q 841 59 441 206 
L 441 856 
Q 825 641 1194 531 
Q 1563 422 1919 422 
Q 2459 422 2753 634 
Q 3047 847 3047 1241 
Q 3047 1584 2836 1778 
Q 2625 1972 2144 2069 
L 1759 2144 
Q 1053 2284 737 2584 
Q 422 2884 422 3419 
Q 422 4038 858 4394 
Q 1294 4750 2059 4750 
Q 2388 4750 2728 4690 
Q 3069 4631 3425 4513 
z
" id="DejaVuSans-53" transform="scale(0.015625)"/>
       <path d="M 3122 3366 
L 3122 2828 
Q 2878 2963 2633 3030 
Q 2388 3097 2138 3097 
Q 1578 3097 1268 2742 
Q 959 2388 959 1747 
Q 959 1106 1268 751 
Q 1578 397 2138 397 
Q 2388 397 2633 464 
Q 2878 531 3122 666 
L 3122 134 
Q 2881 22 2623 -34 
Q 2366 -91 2075 -91 
Q 1284 -91 818 406 
Q 353 903 353 1747 
Q 353 2603 823 3093 
Q 1294 3584 2113 3584 
Q 2378 3584 2631 3529 
Q 2884 3475 3122 3366 
z
" id="DejaVuSans-63" transform="scale(0.015625)"/>
       <path d="M 1959 3097 
Q 1497 3097 1228 2736 
Q 959 2375 959 1747 
Q 959 1119 1226 758 
Q 1494 397 1959 397 
Q 2419 397 2687 759 
Q 2956 1122 2956 1747 
Q 2956 2369 2687 2733 
Q 2419 3097 1959 3097 
z
M 1959 3584 
Q 2709 3584 3137 3096 
Q 3566 2609 3566 1747 
Q 3566 888 3137 398 
Q 2709 -91 1959 -91 
Q 1206 -91 779 398 
Q 353 888 353 1747 
Q 353 2609 779 3096 
Q 1206 3584 1959 3584 
z
" id="DejaVuSans-6f" transform="scale(0.015625)"/>
       <path d="M 3513 2113 
L 3513 0 
L 2938 0 
L 2938 2094 
Q 2938 2591 2744 2837 
Q 2550 3084 2163 3084 
Q 1697 3084 1428 2787 
Q 1159 2491 1159 1978 
L 1159 0 
L 581 0 
L 581 3500 
L 1159 3500 
L 1159 2956 
Q 1366 3272 1645 3428 
Q 1925 3584 2291 3584 
Q 2894 3584 3203 3211 
Q 3513 2838 3513 2113 
z
" id="DejaVuSans-6e" transform="scale(0.015625)"/>
       <path d="M 2906 2969 
L 2906 4863 
L 3481 4863 
L 3481 0 
L 2906 0 
L 2906 525 
Q 2725 213 2448 61 
Q 2172 -91 1784 -91 
Q 1150 -91 751 415 
Q 353 922 353 1747 
Q 353 2572 751 3078 
Q 1150 3584 1784 3584 
Q 2172 3584 2448 3432 
Q 2725 3281 2906 2969 
z
M 947 1747 
Q 947 1113 1208 752 
Q 1469 391 1925 391 
Q 2381 391 2643 752 
Q 2906 1113 2906 1747 
Q 2906 2381 2643 2742 
Q 2381 3103 1925 3103 
Q 1469 3103 1208 2742 
Q 947 2381 947 1747 
z
" id="DejaVuSans-64" transform="scale(0.015625)"/>
       <path d="M 2834 3397 
L 2834 2853 
Q 2591 2978 2328 3040 
Q 2066 3103 1784 3103 
Q 1356 3103 1142 2972 
Q 928 2841 928 2578 
Q 928 2378 1081 2264 
Q 1234 2150 1697 2047 
L 1894 2003 
Q 2506 1872 2764 1633 
Q 3022 1394 3022 966 
Q 3022 478 2636 193 
Q 2250 -91 1575 -91 
Q 1294 -91 989 -36 
Q 684 19 347 128 
L 347 722 
Q 666 556 975 473 
Q 1284 391 1588 391 
Q 1994 391 2212 530 
Q 2431 669 2431 922 
Q 2431 1156 2273 1281 
Q 2116 1406 1581 1522 
L 1381 1569 
Q 847 1681 609 1914 
Q 372 2147 372 2553 
Q 372 3047 722 3315 
Q 1072 3584 1716 3584 
Q 2034 3584 2315 3537 
Q 2597 3491 2834 3397 
z
" id="DejaVuSans-73" transform="scale(0.015625)"/>
       <path d="M 1947 4863 
L 1947 -844 
L 622 -844 
L 622 -397 
L 1369 -397 
L 1369 4416 
L 622 4416 
L 622 4863 
L 1947 4863 
z
" id="DejaVuSans-5d" transform="scale(0.015625)"/>
      </defs>
      <use xlink:href="#DejaVuSans-54"/>
      <use x="57.958984" xlink:href="#DejaVuSans-69"/>
      <use x="85.742188" xlink:href="#DejaVuSans-6d"/>
      <use x="183.154297" xlink:href="#DejaVuSans-65"/>
      <use x="244.677734" xlink:href="#DejaVuSans-20"/>
      <use x="276.464844" xlink:href="#DejaVuSans-5b"/>
      <use x="315.478516" xlink:href="#DejaVuSans-53"/>
      <use x="378.955078" xlink:href="#DejaVuSans-65"/>
      <use x="440.478516" xlink:href="#DejaVuSans-63"/>
      <use x="495.458984" xlink:href="#DejaVuSans-6f"/>
      <use x="556.640625" xlink:href="#DejaVuSans-6e"/>
      <use x="620.019531" xlink:href="#DejaVuSans-64"/>
      <use x="683.496094" xlink:href="#DejaVuSans-73"/>
      <use x="735.595703" xlink:href="#DejaVuSans-5d"/>
     </g>
    </g>
   </g>
   <g id="matplotlib.axis_2">
    <g id="ytick_1">
     <g id="line2d_9">
      <defs>
       <path d="M 0 0 
L -3.5 0 
" id="m850e3bd1d3" style="stroke:#000000;stroke-width:0.8;"/>
      </defs>
      <g>
       <use style="stroke:#000000;stroke-width:0.8;" x="72" xlink:href="#m850e3bd1d3" y="280.158273"/>
      </g>
     </g>
     <g id="text_10">
      <!-- 0.0 -->
      <g transform="translate(42.735625 285.477179)scale(0.14 -0.14)">
       <use xlink:href="#DejaVuSans-30"/>
       <use x="63.623047" xlink:href="#DejaVuSans-2e"/>
       <use x="95.410156" xlink:href="#DejaVuSans-30"/>
      </g>
     </g>
    </g>
    <g id="ytick_2">
     <g id="line2d_10">
      <g>
       <use style="stroke:#000000;stroke-width:0.8;" x="72" xlink:href="#m850e3bd1d3" y="230.255604"/>
      </g>
     </g>
     <g id="text_11">
      <!-- 0.5 -->
      <g transform="translate(42.735625 235.57451)scale(0.14 -0.14)">
       <use xlink:href="#DejaVuSans-30"/>
       <use x="63.623047" xlink:href="#DejaVuSans-2e"/>
       <use x="95.410156" xlink:href="#DejaVuSans-35"/>
      </g>
     </g>
    </g>
    <g id="ytick_3">
     <g id="line2d_11">
      <g>
       <use style="stroke:#000000;stroke-width:0.8;" x="72" xlink:href="#m850e3bd1d3" y="180.352935"/>
      </g>
     </g>
     <g id="text_12">
      <!-- 1.0 -->
      <g transform="translate(42.735625 185.671841)scale(0.14 -0.14)">
       <use xlink:href="#DejaVuSans-31"/>
       <use x="63.623047" xlink:href="#DejaVuSans-2e"/>
       <use x="95.410156" xlink:href="#DejaVuSans-30"/>
      </g>
     </g>
    </g>
    <g id="ytick_4">
     <g id="line2d_12">
      <g>
       <use style="stroke:#000000;stroke-width:0.8;" x="72" xlink:href="#m850e3bd1d3" y="130.450266"/>
      </g>
     </g>
     <g id="text_13">
      <!-- 1.5 -->
      <g transform="translate(42.735625 135.769172)scale(0.14 -0.14)">
       <use xlink:href="#DejaVuSans-31"/>
       <use x="63.623047" xlink:href="#DejaVuSans-2e"/>
       <use x="95.410156" xlink:href="#DejaVuSans-35"/>
      </g>
     </g>
    </g>
    <g id="ytick_5">
     <g id="line2d_13">
      <g>
       <use style="stroke:#000000;stroke-width:0.8;" x="72" xlink:href="#m850e3bd1d3" y="80.547597"/>
      </g>
     </g>
     <g id="text_14">
      <!-- 2.0 -->
      <g transform="translate(42.735625 85.866503)scale(0.14 -0.14)">
       <use xlink:href="#DejaVuSans-32"/>
       <use x="63.623047" xlink:href="#DejaVuSans-2e"/>
       <use x="95.410156" xlink:href="#DejaVuSans-30"/>
      </g>
     </g>
    </g>
    <g id="text_15">
     <!-- Speed [mm/s] -->
     <g transform="translate(35.408125 238.11375)rotate(-90)scale(0.16 -0.16)">
      <defs>
       <path d="M 1159 525 
L 1159 -1331 
L 581 -1331 
L 581 3500 
L 1159 3500 
L 1159 2969 
Q 1341 3281 1617 3432 
Q 1894 3584 2278 3584 
Q 2916 3584 3314 3078 
Q 3713 2572 3713 1747 
Q 3713 922 3314 415 
Q 2916 -91 2278 -91 
Q 1894 -91 1617 61 
Q 1341 213 1159 525 
z
M 3116 1747 
Q 3116 2381 2855 2742 
Q 2594 3103 2138 3103 
Q 1681 3103 1420 2742 
Q 1159 2381 1159 1747 
Q 1159 1113 1420 752 
Q 1681 391 2138 391 
Q 2594 391 2855 752 
Q 3116 1113 3116 1747 
z
" id="DejaVuSans-70" transform="scale(0.015625)"/>
       <path d="M 1625 4666 
L 2156 4666 
L 531 -594 
L 0 -594 
L 1625 4666 
z
" id="DejaVuSans-2f" transform="scale(0.015625)"/>
      </defs>
      <use xlink:href="#DejaVuSans-53"/>
      <use x="63.476562" xlink:href="#DejaVuSans-70"/>
      <use x="126.953125" xlink:href="#DejaVuSans-65"/>
      <use x="188.476562" xlink:href="#DejaVuSans-65"/>
      <use x="250" xlink:href="#DejaVuSans-64"/>
      <use x="313.476562" xlink:href="#DejaVuSans-20"/>
      <use x="345.263672" xlink:href="#DejaVuSans-5b"/>
      <use x="384.277344" xlink:href="#DejaVuSans-6d"/>
      <use x="481.689453" xlink:href="#DejaVuSans-6d"/>
      <use x="579.101562" xlink:href="#DejaVuSans-2f"/>
      <use x="612.792969" xlink:href="#DejaVuSans-73"/>
      <use x="664.892578" xlink:href="#DejaVuSans-5d"/>
     </g>
    </g>
   </g>
   <g id="line2d_14">
    <path clip-path="url(#pbe03211893)" d="M 72 167.355203 
L 518.4 167.355203 
" style="fill:none;stroke:#000000;stroke-dasharray:5.55,2.4;stroke-dashoffset:0;stroke-width:1.5;"/>
   </g>
   <g id="line2d_15">
    <path clip-path="url(#pbe03211893)" d="M 72 278.827535 
L 110.678899 278.886395 
L 111.133945 278.618931 
L 111.588991 277.829703 
L 112.044037 277.353964 
L 113.409174 277.904072 
L 113.86422 278.308084 
L 114.319266 278.470749 
L 114.774312 278.487002 
L 115.229358 278.134927 
L 115.684404 284.9247 
L 116.13945 267.125794 
L 116.594495 255.544552 
L 117.049541 276.941688 
L 117.504587 288.649331 
L 118.414679 304.14068 
L 118.869725 307.600663 
L 119.324771 307.8 
L 119.779817 303.995958 
L 120.234862 296.34039 
L 121.144954 276.398218 
L 121.6 262.236229 
L 125.240367 121.364908 
L 126.605505 80.010802 
L 127.06055 71.034454 
L 127.970642 59.146188 
L 128.425688 56.279315 
L 128.880734 55.8 
L 129.33578 56.436925 
L 129.790826 60.045459 
L 130.245872 64.57302 
L 130.700917 71.576595 
L 134.79633 170.118021 
L 135.251376 175.653402 
L 135.706422 179.352272 
L 136.161468 180.271841 
L 136.616514 176.903231 
L 137.526606 160.942633 
L 137.981651 136.907658 
L 138.436697 141.289118 
L 138.891743 162.469573 
L 139.346789 157.854791 
L 139.801835 158.285829 
L 140.256881 160.303262 
L 140.711927 161.184745 
L 141.166972 160.920096 
L 141.622018 159.825019 
L 142.077064 161.226477 
L 142.53211 163.277471 
L 142.987156 163.423028 
L 143.442202 162.172041 
L 143.897248 161.693158 
L 144.807339 164.480194 
L 145.262385 162.664066 
L 146.172477 165.676846 
L 146.627523 164.319118 
L 147.082569 164.057052 
L 147.537615 165.719251 
L 147.992661 165.42294 
L 148.447706 165.259929 
L 148.902752 167.416171 
L 149.357798 168.093813 
L 149.812844 168.120644 
L 150.26789 168.564658 
L 150.722936 168.578111 
L 151.177982 167.342373 
L 152.088073 166.055273 
L 152.543119 167.062195 
L 152.998165 168.939751 
L 153.453211 167.692655 
L 153.908257 165.278827 
L 154.363303 164.852172 
L 154.818349 164.969735 
L 155.273394 165.238364 
L 155.72844 165.707954 
L 156.183486 165.329842 
L 156.638532 164.747542 
L 158.00367 166.123476 
L 158.458716 165.633963 
L 158.913761 165.889605 
L 159.368807 167.076953 
L 159.823853 167.220686 
L 160.278899 167.950979 
L 160.733945 168.146487 
L 161.188991 167.972302 
L 161.644037 168.760459 
L 162.554128 166.836076 
L 163.009174 166.639214 
L 163.919266 169.220243 
L 164.374312 167.965558 
L 164.829358 167.155656 
L 165.284404 168.735472 
L 165.73945 168.833863 
L 166.649541 165.550501 
L 167.104587 165.993779 
L 167.559633 167.480197 
L 168.014679 166.237232 
L 168.924771 166.951657 
L 169.379817 166.881203 
L 169.834862 165.782765 
L 170.289908 165.648753 
L 170.744954 167.414818 
L 171.2 167.824924 
L 171.655046 167.804857 
L 172.565138 168.324455 
L 173.020183 168.100186 
L 173.930275 168.567789 
L 174.385321 168.737508 
L 174.840367 170.280694 
L 175.295413 170.355766 
L 175.750459 168.59181 
L 176.205505 167.427444 
L 176.66055 168.513761 
L 177.570642 170.0289 
L 178.025688 169.731972 
L 178.480734 168.443115 
L 178.93578 168.327199 
L 179.390826 168.041702 
L 179.845872 168.24196 
L 180.300917 168.2617 
L 180.755963 167.923355 
L 181.666055 168.483535 
L 182.121101 167.157724 
L 182.576147 167.012579 
L 183.031193 167.742969 
L 183.486239 166.495397 
L 183.941284 164.266807 
L 184.39633 164.754239 
L 184.851376 166.15248 
L 185.306422 165.981248 
L 185.761468 164.894038 
L 186.216514 164.84623 
L 186.67156 165.817226 
L 187.126606 165.989805 
L 187.581651 166.381311 
L 188.036697 166.439069 
L 188.491743 166.754145 
L 188.946789 168.373266 
L 189.401835 168.740645 
L 189.856881 166.89775 
L 190.311927 167.195938 
L 190.766972 168.583031 
L 191.222018 168.744445 
L 192.13211 168.411867 
L 192.587156 169.606593 
L 193.042202 170.127735 
L 193.497248 168.502903 
L 193.952294 168.047633 
L 194.407339 169.332766 
L 194.862385 169.247025 
L 195.317431 168.683314 
L 195.772477 167.305547 
L 196.227523 167.699841 
L 196.682569 169.408393 
L 197.592661 165.508082 
L 198.047706 166.208265 
L 198.502752 167.749058 
L 198.957798 168.328796 
L 199.86789 166.517571 
L 200.322936 166.297058 
L 200.777982 166.311391 
L 201.233028 166.731375 
L 201.688073 167.760775 
L 202.598165 166.426231 
L 203.053211 167.475993 
L 203.508257 167.781882 
L 203.963303 166.595584 
L 204.418349 167.953859 
L 204.873394 168.928785 
L 205.32844 166.83161 
L 205.783486 165.998102 
L 206.238532 167.056626 
L 206.693578 167.462937 
L 207.148624 167.302513 
L 207.60367 166.898965 
L 208.513761 167.097307 
L 208.968807 166.362175 
L 209.423853 166.554498 
L 209.878899 166.450592 
L 210.333945 166.558433 
L 211.244037 167.261507 
L 211.699083 165.955036 
L 212.154128 166.055925 
L 212.609174 168.438061 
L 213.06422 168.740345 
L 213.974312 166.016701 
L 214.429358 167.82886 
L 214.884404 168.950207 
L 215.33945 166.584025 
L 215.794495 166.607407 
L 216.249541 169.173362 
L 216.704587 169.021756 
L 217.159633 167.869736 
L 217.614679 167.159608 
L 218.069725 167.870408 
L 218.524771 167.045132 
L 218.979817 165.202684 
L 220.344954 169.524291 
L 220.8 168.805585 
L 221.255046 166.567391 
L 221.710092 167.286104 
L 222.165138 169.266046 
L 222.620183 167.671086 
L 223.075229 167.654966 
L 223.530275 168.606979 
L 223.985321 166.890576 
L 224.440367 167.025595 
L 224.895413 167.460785 
L 225.350459 167.376104 
L 225.805505 167.507007 
L 226.26055 168.622572 
L 226.715596 169.031079 
L 227.170642 167.356402 
L 227.625688 167.543203 
L 228.080734 168.25335 
L 228.53578 167.701328 
L 228.990826 167.92607 
L 229.900917 169.383682 
L 230.355963 169.138288 
L 230.811009 168.160364 
L 231.266055 166.47245 
L 231.721101 166.827103 
L 232.176147 168.099144 
L 232.631193 168.18516 
L 233.086239 167.400176 
L 233.541284 166.249201 
L 234.451376 168.267765 
L 234.906422 168.043086 
L 235.361468 166.566757 
L 235.816514 166.734789 
L 236.27156 167.751989 
L 237.181651 165.656523 
L 237.636697 166.833034 
L 238.091743 168.927888 
L 238.546789 169.053473 
L 239.001835 168.119531 
L 239.911927 167.021799 
L 240.366972 165.636647 
L 240.822018 166.096376 
L 241.73211 168.839453 
L 242.187156 169.167137 
L 243.097248 167.030036 
L 243.552294 167.653836 
L 244.007339 168.590399 
L 244.462385 166.559195 
L 244.917431 166.327421 
L 245.372477 167.701288 
L 245.827523 167.631886 
L 246.282569 167.262821 
L 246.737615 165.745808 
L 247.192661 166.31467 
L 247.647706 168.079088 
L 248.102752 167.170158 
L 248.557798 166.772921 
L 249.012844 167.469789 
L 249.46789 167.548551 
L 249.922936 166.987757 
L 250.377982 165.922341 
L 250.833028 166.337357 
L 251.288073 167.687939 
L 251.743119 167.62687 
L 252.198165 167.884949 
L 252.653211 168.504744 
L 253.108257 168.106014 
L 253.563303 168.693743 
L 254.018349 168.81624 
L 254.473394 166.877155 
L 254.92844 166.743178 
L 255.383486 168.445253 
L 255.838532 168.771004 
L 256.293578 167.11413 
L 256.748624 166.616923 
L 257.20367 167.440846 
L 257.658716 167.725355 
L 258.113761 167.291129 
L 258.568807 166.375152 
L 259.023853 166.425388 
L 259.933945 168.293569 
L 260.388991 169.042588 
L 260.844037 168.471462 
L 261.299083 167.254635 
L 261.754128 167.052571 
L 262.209174 166.013197 
L 262.66422 166.676089 
L 263.119266 168.088688 
L 263.574312 168.536657 
L 264.029358 167.614398 
L 264.484404 166.091879 
L 265.394495 168.282346 
L 265.849541 168.165077 
L 266.304587 166.393016 
L 266.759633 166.451719 
L 267.214679 168.90243 
L 267.669725 169.026765 
L 268.124771 167.224724 
L 268.579817 166.076915 
L 269.034862 168.127208 
L 269.489908 168.902653 
L 269.944954 166.305722 
L 270.4 166.678696 
L 270.855046 168.329781 
L 271.310092 167.808493 
L 271.765138 167.609778 
L 272.220183 166.167644 
L 272.675229 166.310284 
L 273.130275 167.698969 
L 273.585321 166.625087 
L 274.040367 166.900104 
L 274.495413 167.79126 
L 275.405505 167.307643 
L 275.86055 167.78067 
L 276.315596 167.103138 
L 276.770642 166.669454 
L 277.225688 167.085088 
L 277.680734 167.155361 
L 278.13578 165.943289 
L 278.590826 165.819071 
L 279.045872 167.818869 
L 279.500917 168.162956 
L 279.955963 166.410846 
L 280.411009 166.076072 
L 280.866055 167.122753 
L 281.321101 167.247525 
L 281.776147 167.630772 
L 282.231193 167.840832 
L 282.686239 167.618798 
L 283.141284 166.476844 
L 283.59633 166.367725 
L 284.051376 167.271833 
L 284.506422 168.591442 
L 284.961468 168.573306 
L 285.416514 167.507247 
L 285.87156 166.994543 
L 286.326606 167.308177 
L 286.781651 168.829652 
L 287.236697 168.583233 
L 288.146789 167.294959 
L 288.601835 167.312425 
L 289.056881 168.449893 
L 289.511927 168.548094 
L 289.966972 167.734462 
L 290.877064 170.156654 
L 291.33211 168.811652 
L 291.787156 168.594228 
L 292.697248 169.500621 
L 294.062385 166.906588 
L 294.517431 167.948852 
L 294.972477 168.558643 
L 295.427523 165.76899 
L 295.882569 165.563251 
L 296.337615 166.753477 
L 296.792661 166.75162 
L 297.247706 167.081514 
L 297.702752 166.771634 
L 298.157798 166.633372 
L 298.612844 166.636351 
L 299.06789 166.320477 
L 299.522936 166.720012 
L 300.433028 165.478949 
L 300.888073 166.592137 
L 301.343119 166.731298 
L 301.798165 165.539437 
L 302.253211 165.807211 
L 302.708257 166.236762 
L 303.163303 166.01633 
L 304.983486 168.224154 
L 305.438532 168.181686 
L 305.893578 169.412634 
L 306.348624 169.583096 
L 306.80367 168.472824 
L 307.258716 168.179559 
L 308.168807 168.036788 
L 308.623853 167.356037 
L 309.533945 167.810315 
L 309.988991 167.149389 
L 310.444037 166.000283 
L 310.899083 166.264847 
L 311.354128 167.733209 
L 311.809174 168.177195 
L 312.26422 168.999917 
L 312.719266 168.62859 
L 313.174312 168.812037 
L 313.629358 169.7972 
L 314.084404 168.789696 
L 314.53945 168.244153 
L 314.994495 168.0952 
L 315.449541 168.070541 
L 315.904587 168.586425 
L 316.359633 167.93653 
L 317.269725 165.016767 
L 318.179817 167.823276 
L 318.634862 166.132524 
L 319.089908 165.87714 
L 319.544954 166.752199 
L 320 168.019512 
L 320.455046 168.382087 
L 320.910092 167.050081 
L 321.365138 167.394121 
L 321.820183 167.254072 
L 322.275229 166.355656 
L 322.730275 166.219151 
L 323.185321 165.641893 
L 323.640367 164.565238 
L 324.095413 164.36484 
L 324.550459 165.712883 
L 325.005505 167.419775 
L 325.46055 168.214916 
L 325.915596 167.768555 
L 326.370642 168.019775 
L 326.825688 168.737488 
L 327.280734 168.332982 
L 327.73578 169.784479 
L 328.190826 170.682374 
L 328.645872 169.713203 
L 329.100917 169.442751 
L 330.921101 167.548465 
L 331.831193 167.159434 
L 332.286239 165.446451 
L 332.741284 165.520988 
L 333.19633 166.762759 
L 333.651376 166.766155 
L 334.106422 167.762088 
L 334.561468 167.886806 
L 335.016514 167.397873 
L 335.47156 167.711422 
L 335.926606 168.324953 
L 336.381651 169.223467 
L 336.836697 169.321553 
L 337.291743 168.188227 
L 337.746789 166.336442 
L 338.201835 165.420908 
L 339.111927 166.585092 
L 339.566972 167.78412 
L 340.022018 168.048551 
L 340.477064 165.886877 
L 340.93211 166.00384 
L 341.387156 167.387264 
L 342.297248 168.24148 
L 343.207339 168.255746 
L 343.662385 167.725906 
L 344.572477 166.10429 
L 345.027523 165.62044 
L 345.482569 165.565789 
L 345.937615 165.203104 
L 346.392661 166.058852 
L 346.847706 167.416589 
L 347.757798 164.895823 
L 348.66789 167.849865 
L 349.577982 170.448856 
L 350.033028 170.066468 
L 350.488073 169.230827 
L 350.943119 168.710005 
L 351.398165 168.560131 
L 351.853211 168.593788 
L 352.308257 168.200688 
L 352.763303 167.281771 
L 353.218349 167.569098 
L 353.673394 167.121151 
L 354.12844 165.778785 
L 355.038532 168.112201 
L 355.493578 168.330838 
L 355.948624 168.768491 
L 356.40367 168.400702 
L 356.858716 168.459951 
L 357.313761 169.572171 
L 357.768807 170.315208 
L 358.223853 169.834493 
L 358.678899 168.256779 
L 359.133945 167.083388 
L 359.588991 165.280634 
L 360.044037 165.974843 
L 360.499083 167.051046 
L 360.954128 166.0734 
L 361.409174 165.861994 
L 361.86422 165.446695 
L 362.319266 164.789399 
L 362.774312 165.407344 
L 363.229358 166.776688 
L 364.13945 167.733121 
L 364.594495 169.055565 
L 365.049541 169.270855 
L 365.504587 168.056775 
L 366.869725 167.025246 
L 367.779817 164.885274 
L 368.234862 166.23795 
L 368.689908 166.706803 
L 369.144954 166.019893 
L 370.055046 168.535987 
L 370.510092 168.627969 
L 370.965138 169.357187 
L 371.420183 169.610001 
L 371.875229 168.678809 
L 372.330275 169.050324 
L 372.785321 169.267174 
L 373.240367 168.523423 
L 373.695413 167.119869 
L 374.150459 166.404289 
L 374.605505 166.768092 
L 375.06055 165.355765 
L 375.515596 164.856726 
L 375.970642 165.678575 
L 376.425688 165.462402 
L 376.880734 165.391679 
L 377.33578 165.895753 
L 379.155963 168.864219 
L 379.611009 168.85597 
L 380.521101 169.167191 
L 381.431193 167.618526 
L 381.886239 167.646447 
L 382.341284 167.12444 
L 382.79633 165.787467 
L 383.251376 165.778823 
L 384.161468 166.987079 
L 384.616514 166.535484 
L 385.07156 166.58295 
L 385.981651 168.158107 
L 386.436697 169.779345 
L 386.891743 170.155974 
L 387.346789 169.295082 
L 387.801835 168.764967 
L 388.256881 167.815484 
L 389.166972 166.468153 
L 390.53211 166.1909 
L 390.987156 167.033223 
L 391.442202 167.494532 
L 392.352294 168.122816 
L 392.807339 168.858009 
L 393.262385 169.341841 
L 393.717431 169.246732 
L 394.172477 170.222376 
L 394.627523 170.444008 
L 395.082569 168.363922 
L 395.537615 166.888601 
L 395.992661 168.301802 
L 396.447706 168.282344 
L 396.902752 166.596143 
L 397.357798 166.986541 
L 397.812844 166.430286 
L 398.26789 164.390722 
L 398.722936 164.318299 
L 399.177982 165.385965 
L 399.633028 165.473955 
L 400.543119 166.9349 
L 400.998165 167.068409 
L 401.453211 167.065169 
L 401.908257 168.00204 
L 402.363303 167.808028 
L 402.818349 166.763589 
L 403.273394 166.508734 
L 403.72844 165.748405 
L 404.638532 166.969593 
L 405.548624 167.768574 
L 406.00367 167.626008 
L 407.368807 168.861996 
L 407.823853 169.180047 
L 408.278899 169.766143 
L 408.733945 169.523102 
L 409.644037 168.255972 
L 410.099083 168.286792 
L 411.009174 166.98963 
L 411.46422 167.316381 
L 411.919266 167.207572 
L 412.829358 166.795489 
L 413.73945 167.792092 
L 414.194495 168.146275 
L 414.649541 169.006037 
L 415.104587 168.985482 
L 415.559633 168.304191 
L 416.014679 168.440712 
L 416.469725 167.997894 
L 416.924771 166.800266 
L 417.379817 166.92756 
L 417.834862 167.997119 
L 418.289908 166.762739 
L 418.744954 166.412044 
L 419.2 167.469361 
L 419.655046 166.858103 
L 420.110092 165.744195 
L 420.565138 166.239313 
L 421.020183 167.269051 
L 421.475229 167.480126 
L 421.930275 168.529061 
L 422.840367 169.096674 
L 423.750459 167.460034 
L 424.205505 168.120043 
L 425.115596 166.531815 
L 425.570642 166.237948 
L 426.025688 165.800106 
L 426.480734 165.138834 
L 426.93578 166.847328 
L 427.390826 167.975989 
L 427.845872 167.131409 
L 428.300917 167.417766 
L 428.755963 167.389714 
L 429.211009 167.166882 
L 430.121101 168.336603 
L 431.031193 167.414284 
L 431.486239 166.513965 
L 432.39633 166.029934 
L 432.851376 165.976313 
L 433.306422 167.007813 
L 434.216514 164.328947 
L 435.126606 168.262676 
L 435.581651 168.015669 
L 436.036697 168.193758 
L 436.946789 169.485378 
L 437.856881 168.288155 
L 438.311927 169.392298 
L 438.766972 169.66624 
L 439.222018 168.241514 
L 439.677064 167.781851 
L 440.13211 167.598405 
L 441.042202 167.562789 
L 441.497248 166.004184 
L 441.952294 165.38655 
L 442.407339 166.755285 
L 442.862385 167.3488 
L 443.317431 167.058143 
L 443.772477 166.945498 
L 444.682569 169.19511 
L 445.137615 166.818147 
L 445.592661 166.781011 
L 446.047706 168.791368 
L 446.502752 167.494809 
L 446.957798 167.420927 
L 447.412844 167.992802 
L 447.86789 166.803634 
L 448.322936 167.439553 
L 448.777982 167.583281 
L 449.233028 165.961807 
L 449.688073 166.398255 
L 450.143119 167.628984 
L 450.598165 166.94708 
L 451.053211 167.074253 
L 451.508257 168.27642 
L 451.963303 168.860182 
L 452.418349 168.974224 
L 452.873394 167.775435 
L 453.32844 167.377049 
L 453.783486 167.520163 
L 454.238532 166.717611 
L 454.693578 167.000218 
L 455.148624 167.046916 
L 455.60367 165.744104 
L 456.058716 167.170965 
L 456.513761 169.225283 
L 456.968807 167.161597 
L 457.423853 165.635305 
L 457.878899 167.059215 
L 458.333945 167.390547 
L 458.788991 168.225756 
L 459.244037 167.609059 
L 459.699083 167.868256 
L 460.154128 169.670563 
L 460.609174 167.740569 
L 461.06422 166.521306 
L 461.519266 168.167913 
L 461.974312 168.219415 
L 462.884404 165.913281 
L 463.33945 165.305372 
L 464.249541 168.703779 
L 464.704587 166.986297 
L 465.159633 165.963721 
L 465.614679 166.942093 
L 466.069725 167.542131 
L 466.524771 167.616571 
L 466.979817 166.333544 
L 467.889908 168.659064 
L 468.344954 167.181752 
L 469.255046 168.314402 
L 469.710092 167.422586 
L 470.165138 167.328694 
L 470.620183 165.815609 
L 471.075229 166.120578 
L 471.530275 168.667376 
L 471.985321 168.227879 
L 472.440367 166.98671 
L 472.895413 167.452317 
L 473.350459 167.485965 
L 473.805505 168.542527 
L 474.26055 169.242201 
L 474.715596 167.246634 
L 475.170642 166.814773 
L 475.625688 167.912878 
L 476.080734 167.458127 
L 476.990826 167.899349 
L 477.445872 168.074556 
L 477.900917 168.927509 
L 478.355963 168.812026 
L 478.811009 167.248251 
L 479.266055 167.349904 
L 479.721101 168.680097 
L 480.176147 168.130194 
L 480.631193 168.964684 
L 481.086239 167.908402 
L 481.99633 167.22413 
L 482.451376 165.445938 
L 482.906422 167.211708 
L 483.361468 167.867284 
L 483.816514 165.883373 
L 484.27156 164.947833 
L 484.726606 164.871836 
L 485.636697 167.607485 
L 486.546789 165.094219 
L 487.001835 165.514551 
L 487.456881 166.251642 
L 487.911927 165.449483 
L 488.366972 165.891867 
L 489.277064 167.440333 
L 489.73211 167.943038 
L 490.187156 167.904035 
L 490.642202 169.441521 
L 491.097248 169.082671 
L 491.552294 168.303438 
L 492.007339 168.68773 
L 492.462385 167.27939 
L 492.917431 168.17528 
L 493.372477 169.999263 
L 493.827523 168.607529 
L 494.282569 167.902534 
L 494.737615 166.925231 
L 495.192661 166.535004 
L 495.647706 168.656796 
L 496.102752 168.973946 
L 496.557798 166.80875 
L 497.012844 167.028158 
L 497.46789 168.690504 
L 497.922936 167.152671 
L 498.377982 166.899499 
L 498.833028 167.362248 
L 499.288073 166.949203 
L 499.743119 167.527423 
L 500.653211 166.792339 
L 501.108257 167.707669 
L 501.563303 168.068944 
L 502.018349 168.235305 
L 502.473394 167.481375 
L 502.92844 166.414092 
L 503.383486 167.738729 
L 503.838532 168.181237 
L 504.293578 167.416957 
L 504.748624 167.853926 
L 505.20367 167.785958 
L 505.658716 167.347603 
L 506.568807 169.556083 
L 507.023853 170.335575 
L 509.299083 168.509897 
L 510.66422 166.685792 
L 512.484404 164.247223 
L 513.394495 163.513495 
L 513.849541 163.386407 
L 514.304587 163.47141 
L 514.759633 163.811035 
L 515.214679 164.450491 
L 515.669725 165.437664 
L 516.124771 166.823118 
L 516.579817 168.660098 
L 517.489908 173.915002 
L 518.4 181.681893 
L 518.4 181.681893 
" style="fill:none;stroke:#ff0000;stroke-linecap:square;stroke-width:2;"/>
   </g>
   <g id="patch_3">
    <path d="M 72 320.4 
L 72 43.2 
" style="fill:none;stroke:#000000;stroke-linecap:square;stroke-linejoin:miter;stroke-width:0.8;"/>
   </g>
   <g id="patch_4">
    <path d="M 518.4 320.4 
L 518.4 43.2 
" style="fill:none;stroke:#000000;stroke-linecap:square;stroke-linejoin:miter;stroke-width:0.8;"/>
   </g>
   <g id="patch_5">
    <path d="M 72 320.4 
L 518.4 320.4 
" style="fill:none;stroke:#000000;stroke-linecap:square;stroke-linejoin:miter;stroke-width:0.8;"/>
   </g>
   <g id="patch_6">
    <path d="M 72 43.2 
L 518.4 43.2 
" style="fill:none;stroke:#000000;stroke-linecap:square;stroke-linejoin:miter;stroke-width:0.8;"/>
   </g>
   <g id="text_16">
    <!-- Front Propogation Speed -->
    <g transform="translate(172.245312 37.2)scale(0.2 -0.2)">
     <defs>
      <path d="M 628 4666 
L 3309 4666 
L 3309 4134 
L 1259 4134 
L 1259 2759 
L 3109 2759 
L 3109 2228 
L 1259 2228 
L 1259 0 
L 628 0 
L 628 4666 
z
" id="DejaVuSans-46" transform="scale(0.015625)"/>
      <path d="M 2631 2963 
Q 2534 3019 2420 3045 
Q 2306 3072 2169 3072 
Q 1681 3072 1420 2755 
Q 1159 2438 1159 1844 
L 1159 0 
L 581 0 
L 581 3500 
L 1159 3500 
L 1159 2956 
Q 1341 3275 1631 3429 
Q 1922 3584 2338 3584 
Q 2397 3584 2469 3576 
Q 2541 3569 2628 3553 
L 2631 2963 
z
" id="DejaVuSans-72" transform="scale(0.015625)"/>
      <path d="M 1172 4494 
L 1172 3500 
L 2356 3500 
L 2356 3053 
L 1172 3053 
L 1172 1153 
Q 1172 725 1289 603 
Q 1406 481 1766 481 
L 2356 481 
L 2356 0 
L 1766 0 
Q 1100 0 847 248 
Q 594 497 594 1153 
L 594 3053 
L 172 3053 
L 172 3500 
L 594 3500 
L 594 4494 
L 1172 4494 
z
" id="DejaVuSans-74" transform="scale(0.015625)"/>
      <path d="M 1259 4147 
L 1259 2394 
L 2053 2394 
Q 2494 2394 2734 2622 
Q 2975 2850 2975 3272 
Q 2975 3691 2734 3919 
Q 2494 4147 2053 4147 
L 1259 4147 
z
M 628 4666 
L 2053 4666 
Q 2838 4666 3239 4311 
Q 3641 3956 3641 3272 
Q 3641 2581 3239 2228 
Q 2838 1875 2053 1875 
L 1259 1875 
L 1259 0 
L 628 0 
L 628 4666 
z
" id="DejaVuSans-50" transform="scale(0.015625)"/>
      <path d="M 2906 1791 
Q 2906 2416 2648 2759 
Q 2391 3103 1925 3103 
Q 1463 3103 1205 2759 
Q 947 2416 947 1791 
Q 947 1169 1205 825 
Q 1463 481 1925 481 
Q 2391 481 2648 825 
Q 2906 1169 2906 1791 
z
M 3481 434 
Q 3481 -459 3084 -895 
Q 2688 -1331 1869 -1331 
Q 1566 -1331 1297 -1286 
Q 1028 -1241 775 -1147 
L 775 -588 
Q 1028 -725 1275 -790 
Q 1522 -856 1778 -856 
Q 2344 -856 2625 -561 
Q 2906 -266 2906 331 
L 2906 616 
Q 2728 306 2450 153 
Q 2172 0 1784 0 
Q 1141 0 747 490 
Q 353 981 353 1791 
Q 353 2603 747 3093 
Q 1141 3584 1784 3584 
Q 2172 3584 2450 3431 
Q 2728 3278 2906 2969 
L 2906 3500 
L 3481 3500 
L 3481 434 
z
" id="DejaVuSans-67" transform="scale(0.015625)"/>
      <path d="M 2194 1759 
Q 1497 1759 1228 1600 
Q 959 1441 959 1056 
Q 959 750 1161 570 
Q 1363 391 1709 391 
Q 2188 391 2477 730 
Q 2766 1069 2766 1631 
L 2766 1759 
L 2194 1759 
z
M 3341 1997 
L 3341 0 
L 2766 0 
L 2766 531 
Q 2569 213 2275 61 
Q 1981 -91 1556 -91 
Q 1019 -91 701 211 
Q 384 513 384 1019 
Q 384 1609 779 1909 
Q 1175 2209 1959 2209 
L 2766 2209 
L 2766 2266 
Q 2766 2663 2505 2880 
Q 2244 3097 1772 3097 
Q 1472 3097 1187 3025 
Q 903 2953 641 2809 
L 641 3341 
Q 956 3463 1253 3523 
Q 1550 3584 1831 3584 
Q 2591 3584 2966 3190 
Q 3341 2797 3341 1997 
z
" id="DejaVuSans-61" transform="scale(0.015625)"/>
     </defs>
     <use xlink:href="#DejaVuSans-46"/>
     <use x="50.269531" xlink:href="#DejaVuSans-72"/>
     <use x="89.132812" xlink:href="#DejaVuSans-6f"/>
     <use x="150.314453" xlink:href="#DejaVuSans-6e"/>
     <use x="213.693359" xlink:href="#DejaVuSans-74"/>
     <use x="252.902344" xlink:href="#DejaVuSans-20"/>
     <use x="284.689453" xlink:href="#DejaVuSans-50"/>
     <use x="343.242188" xlink:href="#DejaVuSans-72"/>
     <use x="382.105469" xlink:href="#DejaVuSans-6f"/>
     <use x="443.287109" xlink:href="#DejaVuSans-70"/>
     <use x="506.763672" xlink:href="#DejaVuSans-6f"/>
     <use x="567.945312" xlink:href="#DejaVuSans-67"/>
     <use x="631.421875" xlink:href="#DejaVuSans-61"/>
     <use x="692.701172" xlink:href="#DejaVuSans-74"/>
     <use x="731.910156" xlink:href="#DejaVuSans-69"/>
     <use x="759.693359" xlink:href="#DejaVuSans-6f"/>
     <use x="820.875" xlink:href="#DejaVuSans-6e"/>
     <use x="884.253906" xlink:href="#DejaVuSans-20"/>
     <use x="916.041016" xlink:href="#DejaVuSans-53"/>
     <use x="979.517578" xlink:href="#DejaVuSans-70"/>
     <use x="1042.994141" xlink:href="#DejaVuSans-65"/>
     <use x="1104.517578" xlink:href="#DejaVuSans-65"/>
     <use x="1166.041016" xlink:href="#DejaVuSans-64"/>
    </g>
   </g>
   <g id="legend_1">
    <g id="patch_7">
     <path d="M 325.967812 111.175687 
L 508.6 111.175687 
Q 511.4 111.175687 511.4 108.375687 
L 511.4 53 
Q 511.4 50.2 508.6 50.2 
L 325.967812 50.2 
Q 323.167812 50.2 323.167812 53 
L 323.167812 108.375687 
Q 323.167812 111.175687 325.967812 111.175687 
z
" style="fill:#ffffff;opacity:0.8;stroke:#cccccc;stroke-linejoin:miter;"/>
    </g>
    <g id="line2d_16">
     <path d="M 328.767812 61.537812 
L 356.767812 61.537812 
" style="fill:none;stroke:#ff0000;stroke-linecap:square;stroke-width:2;"/>
    </g>
    <g id="line2d_17"/>
    <g id="text_17">
     <!-- Front speed -->
     <g transform="translate(367.967812 66.437812)scale(0.14 -0.14)">
      <use xlink:href="#DejaVuSans-46"/>
      <use x="50.269531" xlink:href="#DejaVuSans-72"/>
      <use x="89.132812" xlink:href="#DejaVuSans-6f"/>
      <use x="150.314453" xlink:href="#DejaVuSans-6e"/>
      <use x="213.693359" xlink:href="#DejaVuSans-74"/>
      <use x="252.902344" xlink:href="#DejaVuSans-20"/>
      <use x="284.689453" xlink:href="#DejaVuSans-73"/>
      <use x="336.789062" xlink:href="#DejaVuSans-70"/>
      <use x="400.265625" xlink:href="#DejaVuSans-65"/>
      <use x="461.789062" xlink:href="#DejaVuSans-65"/>
      <use x="523.3125" xlink:href="#DejaVuSans-64"/>
     </g>
    </g>
    <g id="line2d_18">
     <path d="M 328.767812 91.381437 
L 356.767812 91.381437 
" style="fill:none;stroke:#000000;stroke-dasharray:5.55,2.4;stroke-dashoffset:0;stroke-width:1.5;"/>
    </g>
    <g id="line2d_19"/>
    <g id="text_18">
     <!-- Steady state -->
     <g transform="translate(367.967812 86.987187)scale(0.14 -0.14)">
      <defs>
       <path d="M 2059 -325 
Q 1816 -950 1584 -1140 
Q 1353 -1331 966 -1331 
L 506 -1331 
L 506 -850 
L 844 -850 
Q 1081 -850 1212 -737 
Q 1344 -625 1503 -206 
L 1606 56 
L 191 3500 
L 800 3500 
L 1894 763 
L 2988 3500 
L 3597 3500 
L 2059 -325 
z
" id="DejaVuSans-79" transform="scale(0.015625)"/>
      </defs>
      <use xlink:href="#DejaVuSans-53"/>
      <use x="63.476562" xlink:href="#DejaVuSans-74"/>
      <use x="102.685547" xlink:href="#DejaVuSans-65"/>
      <use x="164.208984" xlink:href="#DejaVuSans-61"/>
      <use x="225.488281" xlink:href="#DejaVuSans-64"/>
      <use x="288.964844" xlink:href="#DejaVuSans-79"/>
      <use x="348.144531" xlink:href="#DejaVuSans-20"/>
      <use x="379.931641" xlink:href="#DejaVuSans-73"/>
      <use x="432.03125" xlink:href="#DejaVuSans-74"/>
      <use x="471.240234" xlink:href="#DejaVuSans-61"/>
      <use x="532.519531" xlink:href="#DejaVuSans-74"/>
      <use x="571.728516" xlink:href="#DejaVuSans-65"/>
     </g>
     <!-- speed = 1.13 mm/s -->
     <g transform="translate(367.967812 102.664125)scale(0.14 -0.14)">
      <defs>
       <path d="M 678 2906 
L 4684 2906 
L 4684 2381 
L 678 2381 
L 678 2906 
z
M 678 1631 
L 4684 1631 
L 4684 1100 
L 678 1100 
L 678 1631 
z
" id="DejaVuSans-3d" transform="scale(0.015625)"/>
       <path d="M 2597 2516 
Q 3050 2419 3304 2112 
Q 3559 1806 3559 1356 
Q 3559 666 3084 287 
Q 2609 -91 1734 -91 
Q 1441 -91 1130 -33 
Q 819 25 488 141 
L 488 750 
Q 750 597 1062 519 
Q 1375 441 1716 441 
Q 2309 441 2620 675 
Q 2931 909 2931 1356 
Q 2931 1769 2642 2001 
Q 2353 2234 1838 2234 
L 1294 2234 
L 1294 2753 
L 1863 2753 
Q 2328 2753 2575 2939 
Q 2822 3125 2822 3475 
Q 2822 3834 2567 4026 
Q 2313 4219 1838 4219 
Q 1578 4219 1281 4162 
Q 984 4106 628 3988 
L 628 4550 
Q 988 4650 1302 4700 
Q 1616 4750 1894 4750 
Q 2613 4750 3031 4423 
Q 3450 4097 3450 3541 
Q 3450 3153 3228 2886 
Q 3006 2619 2597 2516 
z
" id="DejaVuSans-33" transform="scale(0.015625)"/>
      </defs>
      <use xlink:href="#DejaVuSans-73"/>
      <use x="52.099609" xlink:href="#DejaVuSans-70"/>
      <use x="115.576172" xlink:href="#DejaVuSans-65"/>
      <use x="177.099609" xlink:href="#DejaVuSans-65"/>
      <use x="238.623047" xlink:href="#DejaVuSans-64"/>
      <use x="302.099609" xlink:href="#DejaVuSans-20"/>
      <use x="333.886719" xlink:href="#DejaVuSans-3d"/>
      <use x="417.675781" xlink:href="#DejaVuSans-20"/>
      <use x="449.462891" xlink:href="#DejaVuSans-31"/>
      <use x="513.085938" xlink:href="#DejaVuSans-2e"/>
      <use x="544.873047" xlink:href="#DejaVuSans-31"/>
      <use x="608.496094" xlink:href="#DejaVuSans-33"/>
      <use x="672.119141" xlink:href="#DejaVuSans-20"/>
      <use x="703.90625" xlink:href="#DejaVuSans-6d"/>
      <use x="801.318359" xlink:href="#DejaVuSans-6d"/>
      <use x="898.730469" xlink:href="#DejaVuSans-2f"/>
      <use x="932.421875" xlink:href="#DejaVuSans-73"/>
     </g>
    </g>
   </g>
  </g>
 </g>
 <defs>
  <clipPath id="pbe03211893">
   <rect height="277.2" width="446.4" x="72" y="43.2"/>
  </clipPath>
 </defs>
</svg>
