<?xml version="1.0" encoding="utf-8" standalone="no"?>
<!DOCTYPE svg PUBLIC "-//W3C//DTD SVG 1.1//EN"
  "http://www.w3.org/Graphics/SVG/1.1/DTD/svg11.dtd">
<svg height="360pt" version="1.1" viewBox="0 0 576 360" width="576pt" xmlns="http://www.w3.org/2000/svg" xmlns:xlink="http://www.w3.org/1999/xlink">
 <metadata>
  <rdf:RDF xmlns:cc="http://creativecommons.org/ns#" xmlns:dc="http://purl.org/dc/elements/1.1/" xmlns:rdf="http://www.w3.org/1999/02/22-rdf-syntax-ns#">
   <cc:Work>
    <dc:type rdf:resource="http://purl.org/dc/dcmitype/StillImage"/>
    <dc:date>2022-06-30T14:16:29.418312</dc:date>
    <dc:format>image/svg+xml</dc:format>
    <dc:creator>
     <cc:Agent>
      <dc:title>Matplotlib v3.4.3, https://matplotlib.org/</dc:title>
     </cc:Agent>
    </dc:creator>
   </cc:Work>
  </rdf:RDF>
 </metadata>
 <defs>
  <style type="text/css">*{stroke-linecap:butt;stroke-linejoin:round;}</style>
 </defs>
 <g id="figure_1">
  <g id="patch_1">
   <path d="M 0 360 
L 576 360 
L 576 0 
L 0 0 
z
" style="fill:#ffffff;"/>
  </g>
  <g id="axes_1">
   <g id="patch_2">
    <path d="M 72 320.4 
L 518.4 320.4 
L 518.4 43.2 
L 72 43.2 
z
" style="fill:#ffffff;"/>
   </g>
   <g id="PolyCollection_1">
    <defs>
     <path d="M 72 -140.700609 
L 72 -145.189962 
L 72.845455 -145.189962 
L 73.690909 -145.189962 
L 74.536364 -145.189962 
L 75.381818 -145.189962 
L 76.227273 -145.189962 
L 77.072727 -145.189962 
L 77.918182 -145.189962 
L 78.763636 -145.189962 
L 79.609091 -145.189962 
L 80.454545 -145.189962 
L 81.3 -145.189962 
L 82.145455 -145.189962 
L 82.990909 -145.189962 
L 83.836364 -145.189962 
L 84.681818 -145.189962 
L 85.527273 -145.189962 
L 86.372727 -145.189962 
L 87.218182 -145.189962 
L 88.063636 -145.189962 
L 88.909091 -145.189962 
L 89.754545 -145.189962 
L 90.6 -145.189962 
L 91.445455 -145.189962 
L 92.290909 -145.189962 
L 93.136364 -145.189962 
L 93.981818 -145.189962 
L 94.827273 -145.189962 
L 95.672727 -145.189962 
L 96.518182 -145.189962 
L 97.363636 -145.189962 
L 98.209091 -145.189962 
L 99.054545 -145.189962 
L 99.9 -145.189962 
L 100.745455 -145.189962 
L 101.590909 -145.189962 
L 102.436364 -145.189962 
L 103.281818 -145.189962 
L 104.127273 -145.189962 
L 104.972727 -145.189962 
L 105.818182 -145.189962 
L 106.663636 -145.189962 
L 107.509091 -145.189962 
L 108.354545 -145.189962 
L 109.2 -145.189962 
L 110.045455 -145.189962 
L 110.890909 -145.189962 
L 111.736364 -145.189962 
L 112.581818 -145.189962 
L 113.427273 -145.189962 
L 114.272727 -145.189962 
L 115.118182 -145.189962 
L 115.963636 -145.189962 
L 116.809091 -145.189962 
L 117.654545 -145.189962 
L 118.5 -145.189962 
L 119.345455 -145.189962 
L 120.190909 -145.189962 
L 121.036364 -145.189962 
L 121.881818 -145.189962 
L 122.727273 -145.189962 
L 123.572727 -145.189962 
L 124.418182 -145.189962 
L 125.263636 -145.189962 
L 126.109091 -145.189962 
L 126.954545 -145.189962 
L 127.8 -145.189962 
L 128.645455 -145.189962 
L 129.490909 -145.189962 
L 130.336364 -145.189962 
L 131.181818 -145.189962 
L 132.027273 -145.189962 
L 132.872727 -145.189962 
L 133.718182 -145.189962 
L 134.563636 -145.189962 
L 135.409091 -145.189962 
L 136.254545 -145.189962 
L 137.1 -145.189962 
L 137.945455 -145.189962 
L 138.790909 -145.189962 
L 139.636364 -145.189962 
L 140.481818 -145.189962 
L 141.327273 -145.189962 
L 142.172727 -145.189962 
L 143.018182 -145.189962 
L 143.863636 -145.189962 
L 144.709091 -145.189962 
L 145.554545 -145.189962 
L 146.4 -145.189962 
L 147.245455 -145.189962 
L 148.090909 -145.189962 
L 148.936364 -145.189962 
L 149.781818 -145.189962 
L 150.627273 -145.189962 
L 151.472727 -145.189962 
L 152.318182 -145.189962 
L 153.163636 -145.189962 
L 154.009091 -145.189962 
L 154.854545 -145.189962 
L 155.7 -145.189962 
L 156.545455 -145.189962 
L 157.390909 -145.189962 
L 158.236364 -145.189962 
L 159.081818 -145.189962 
L 159.927273 -145.189962 
L 160.772727 -145.189962 
L 161.618182 -145.189962 
L 162.463636 -145.189962 
L 163.309091 -145.189962 
L 164.154545 -145.189962 
L 165 -145.189962 
L 165.845455 -145.189962 
L 166.690909 -145.189962 
L 167.536364 -145.189962 
L 168.381818 -145.189962 
L 169.227273 -145.189962 
L 170.072727 -145.189962 
L 170.918182 -145.189962 
L 171.763636 -145.189962 
L 172.609091 -145.189962 
L 173.454545 -145.189962 
L 174.3 -145.189962 
L 175.145455 -145.189962 
L 175.990909 -145.189962 
L 176.836364 -145.189962 
L 177.681818 -145.189962 
L 178.527273 -145.189962 
L 179.372727 -145.189962 
L 180.218182 -145.189962 
L 181.063636 -145.189962 
L 181.909091 -145.189962 
L 182.754545 -145.189962 
L 183.6 -145.189962 
L 184.445455 -145.189962 
L 185.290909 -145.189962 
L 186.136364 -145.189962 
L 186.981818 -145.189962 
L 187.827273 -145.189962 
L 188.672727 -145.189962 
L 189.518182 -145.189962 
L 190.363636 -145.189962 
L 191.209091 -145.189962 
L 192.054545 -145.189962 
L 192.9 -145.189962 
L 193.745455 -145.189962 
L 194.590909 -145.189962 
L 195.436364 -145.189962 
L 196.281818 -145.189962 
L 197.127273 -145.189962 
L 197.972727 -145.189962 
L 198.818182 -145.189962 
L 199.663636 -145.189962 
L 200.509091 -145.189962 
L 201.354545 -145.189962 
L 202.2 -145.189962 
L 203.045455 -145.189962 
L 203.890909 -145.189962 
L 204.736364 -145.189962 
L 205.581818 -145.189962 
L 206.427273 -145.189962 
L 207.272727 -145.189962 
L 208.118182 -145.189962 
L 208.963636 -145.189962 
L 209.809091 -145.189962 
L 210.654545 -145.189962 
L 211.5 -145.189962 
L 212.345455 -145.189962 
L 213.190909 -145.189962 
L 214.036364 -145.189962 
L 214.881818 -145.189962 
L 215.727273 -145.189962 
L 216.572727 -145.189962 
L 217.418182 -145.189962 
L 218.263636 -145.189962 
L 219.109091 -145.189962 
L 219.954545 -145.189962 
L 220.8 -145.189962 
L 221.645455 -145.189962 
L 222.490909 -145.189962 
L 223.336364 -145.189962 
L 224.181818 -145.189962 
L 225.027273 -145.189962 
L 225.872727 -145.189962 
L 226.718182 -145.189962 
L 227.563636 -145.189962 
L 228.409091 -145.189962 
L 229.254545 -145.189962 
L 230.1 -145.189962 
L 230.945455 -145.189962 
L 231.790909 -145.189962 
L 232.636364 -145.189962 
L 233.481818 -145.189962 
L 234.327273 -145.189962 
L 235.172727 -145.189962 
L 236.018182 -145.189962 
L 236.863636 -145.189962 
L 237.709091 -145.189962 
L 238.554545 -145.189962 
L 239.4 -145.189962 
L 240.245455 -145.189962 
L 241.090909 -145.189962 
L 241.936364 -145.189962 
L 242.781818 -145.189962 
L 243.627273 -145.189962 
L 244.472727 -145.189962 
L 245.318182 -145.189962 
L 246.163636 -145.189962 
L 247.009091 -145.189962 
L 247.854545 -145.189962 
L 248.7 -145.189962 
L 249.545455 -145.189962 
L 250.390909 -145.189962 
L 251.236364 -145.189962 
L 252.081818 -145.189962 
L 252.927273 -145.189962 
L 253.772727 -145.189962 
L 254.618182 -145.189962 
L 255.463636 -145.189962 
L 256.309091 -145.189962 
L 257.154545 -145.189962 
L 258 -145.189962 
L 258.845455 -145.189962 
L 259.690909 -145.189962 
L 260.536364 -145.189962 
L 261.381818 -145.189962 
L 262.227273 -145.189962 
L 263.072727 -145.189962 
L 263.918182 -145.189962 
L 264.763636 -145.189962 
L 265.609091 -145.189962 
L 266.454545 -145.189962 
L 267.3 -145.189962 
L 268.145455 -145.189962 
L 268.990909 -145.189962 
L 269.836364 -145.189962 
L 270.681818 -145.189962 
L 271.527273 -145.189962 
L 272.372727 -145.189962 
L 273.218182 -145.189962 
L 274.063636 -145.189962 
L 274.909091 -145.189962 
L 275.754545 -145.189962 
L 276.6 -145.189962 
L 277.445455 -145.189962 
L 278.290909 -145.189962 
L 279.136364 -145.189962 
L 279.981818 -145.189962 
L 280.827273 -145.189962 
L 281.672727 -145.189962 
L 282.518182 -145.189962 
L 283.363636 -145.189962 
L 284.209091 -145.189962 
L 285.054545 -145.189962 
L 285.9 -145.189962 
L 286.745455 -145.189962 
L 287.590909 -145.189962 
L 288.436364 -145.189962 
L 289.281818 -145.189962 
L 290.127273 -145.189962 
L 290.972727 -145.189962 
L 291.818182 -145.189962 
L 292.663636 -145.189962 
L 293.509091 -145.189962 
L 294.354545 -145.189962 
L 295.2 -145.189962 
L 296.045455 -145.189962 
L 296.890909 -145.189962 
L 297.736364 -145.189962 
L 298.581818 -145.189962 
L 299.427273 -145.189962 
L 300.272727 -145.189962 
L 301.118182 -145.189962 
L 301.963636 -145.189962 
L 302.809091 -145.189962 
L 303.654545 -145.189962 
L 304.5 -145.189962 
L 305.345455 -145.189962 
L 306.190909 -145.189962 
L 307.036364 -145.189962 
L 307.881818 -145.189962 
L 308.727273 -145.189962 
L 309.572727 -145.189962 
L 310.418182 -145.189962 
L 311.263636 -145.189962 
L 312.109091 -145.189962 
L 312.954545 -145.189962 
L 313.8 -145.189962 
L 314.645455 -145.189962 
L 315.490909 -145.189962 
L 316.336364 -145.189962 
L 317.181818 -145.189962 
L 318.027273 -145.189962 
L 318.872727 -145.189962 
L 319.718182 -145.189962 
L 320.563636 -145.189962 
L 321.409091 -145.189962 
L 322.254545 -145.189962 
L 323.1 -145.189962 
L 323.945455 -145.189962 
L 324.790909 -145.189962 
L 325.636364 -145.189962 
L 326.481818 -145.189962 
L 327.327273 -145.189962 
L 328.172727 -145.189962 
L 329.018182 -145.189962 
L 329.863636 -145.189962 
L 330.709091 -145.189962 
L 331.554545 -145.189962 
L 332.4 -145.189962 
L 333.245455 -145.189962 
L 334.090909 -145.189962 
L 334.936364 -145.189962 
L 335.781818 -145.189962 
L 336.627273 -145.189962 
L 337.472727 -145.189962 
L 338.318182 -145.189962 
L 339.163636 -145.189962 
L 340.009091 -145.189962 
L 340.854545 -145.189962 
L 341.7 -145.189962 
L 342.545455 -145.189962 
L 343.390909 -145.189962 
L 344.236364 -145.189962 
L 345.081818 -145.189962 
L 345.927273 -145.189962 
L 346.772727 -145.189962 
L 347.618182 -145.189962 
L 348.463636 -145.189962 
L 349.309091 -145.189962 
L 350.154545 -145.189962 
L 351 -145.189962 
L 351.845455 -145.189962 
L 352.690909 -145.189962 
L 353.536364 -145.189962 
L 354.381818 -145.189962 
L 355.227273 -145.189962 
L 356.072727 -145.189962 
L 356.918182 -145.189962 
L 357.763636 -145.189962 
L 358.609091 -145.189962 
L 359.454545 -145.189962 
L 360.3 -145.189962 
L 361.145455 -145.189962 
L 361.990909 -145.189962 
L 362.836364 -145.189962 
L 363.681818 -145.189962 
L 364.527273 -145.189962 
L 365.372727 -145.189962 
L 366.218182 -145.189962 
L 367.063636 -145.189962 
L 367.909091 -145.189962 
L 368.754545 -145.189962 
L 369.6 -145.189962 
L 370.445455 -145.189962 
L 371.290909 -145.189962 
L 372.136364 -145.189962 
L 372.981818 -145.189962 
L 373.827273 -145.189962 
L 374.672727 -145.189962 
L 375.518182 -145.189962 
L 376.363636 -145.189962 
L 377.209091 -145.189962 
L 378.054545 -145.189962 
L 378.9 -145.189962 
L 379.745455 -145.189962 
L 380.590909 -145.189962 
L 381.436364 -145.189962 
L 382.281818 -145.189962 
L 383.127273 -145.189962 
L 383.972727 -145.189962 
L 384.818182 -145.189962 
L 385.663636 -145.189962 
L 386.509091 -145.189962 
L 387.354545 -145.189962 
L 388.2 -145.189962 
L 389.045455 -145.189962 
L 389.890909 -145.189962 
L 390.736364 -145.189962 
L 391.581818 -145.189962 
L 392.427273 -145.189962 
L 393.272727 -145.189962 
L 394.118182 -145.189962 
L 394.963636 -145.189962 
L 395.809091 -145.189962 
L 396.654545 -145.189962 
L 397.5 -145.189962 
L 398.345455 -145.189962 
L 399.190909 -145.189962 
L 400.036364 -145.189962 
L 400.881818 -145.189962 
L 401.727273 -145.189962 
L 402.572727 -145.189962 
L 403.418182 -145.189962 
L 404.263636 -145.189962 
L 405.109091 -145.189962 
L 405.954545 -145.189962 
L 406.8 -145.189962 
L 407.645455 -145.189962 
L 408.490909 -145.189962 
L 409.336364 -145.189962 
L 410.181818 -145.189962 
L 411.027273 -145.189962 
L 411.872727 -145.189962 
L 412.718182 -145.189962 
L 413.563636 -145.189962 
L 414.409091 -145.189962 
L 415.254545 -145.189962 
L 416.1 -145.189962 
L 416.945455 -145.189962 
L 417.790909 -145.189962 
L 418.636364 -145.189962 
L 419.481818 -145.189962 
L 420.327273 -145.189962 
L 421.172727 -145.189962 
L 422.018182 -145.189962 
L 422.863636 -145.189962 
L 423.709091 -145.189962 
L 424.554545 -145.189962 
L 425.4 -145.189962 
L 426.245455 -145.189962 
L 427.090909 -145.189962 
L 427.936364 -145.189962 
L 428.781818 -145.189962 
L 429.627273 -145.189962 
L 430.472727 -145.189962 
L 431.318182 -145.189962 
L 432.163636 -145.189962 
L 433.009091 -145.189962 
L 433.854545 -145.189962 
L 434.7 -145.189962 
L 435.545455 -145.189962 
L 436.390909 -145.189962 
L 437.236364 -145.189962 
L 438.081818 -145.189962 
L 438.927273 -145.189962 
L 439.772727 -145.189962 
L 440.618182 -145.189962 
L 441.463636 -145.189962 
L 442.309091 -145.189962 
L 443.154545 -145.189962 
L 444 -145.189962 
L 444.845455 -145.189962 
L 445.690909 -145.189962 
L 446.536364 -145.189962 
L 447.381818 -145.189962 
L 448.227273 -145.189962 
L 449.072727 -145.189962 
L 449.918182 -145.189962 
L 450.763636 -145.189962 
L 451.609091 -145.189962 
L 452.454545 -145.189962 
L 453.3 -145.189962 
L 454.145455 -145.189962 
L 454.990909 -145.189962 
L 455.836364 -145.189962 
L 456.681818 -145.189962 
L 457.527273 -145.189962 
L 458.372727 -145.189962 
L 459.218182 -145.189962 
L 460.063636 -145.189962 
L 460.909091 -145.189962 
L 461.754545 -145.189962 
L 462.6 -145.189962 
L 463.445455 -145.189962 
L 464.290909 -145.189962 
L 465.136364 -145.189962 
L 465.981818 -145.189962 
L 466.827273 -145.189962 
L 467.672727 -145.189962 
L 468.518182 -145.189962 
L 469.363636 -145.189962 
L 470.209091 -145.189962 
L 471.054545 -145.189962 
L 471.9 -145.189962 
L 472.745455 -145.189962 
L 473.590909 -145.189962 
L 474.436364 -145.189962 
L 475.281818 -145.189962 
L 476.127273 -145.189962 
L 476.972727 -145.189962 
L 477.818182 -145.189962 
L 478.663636 -145.189962 
L 479.509091 -145.189962 
L 480.354545 -145.189962 
L 481.2 -145.189962 
L 482.045455 -145.189962 
L 482.890909 -145.189962 
L 483.736364 -145.189962 
L 484.581818 -145.189962 
L 485.427273 -145.189962 
L 486.272727 -145.189962 
L 487.118182 -145.189962 
L 487.963636 -145.189962 
L 488.809091 -145.189962 
L 489.654545 -145.189962 
L 490.5 -145.189962 
L 491.345455 -145.189962 
L 492.190909 -145.189962 
L 493.036364 -145.189962 
L 493.881818 -145.189962 
L 494.727273 -145.189962 
L 495.572727 -145.189962 
L 496.418182 -145.189962 
L 497.263636 -145.189962 
L 498.109091 -145.189962 
L 498.954545 -145.189962 
L 499.8 -145.189962 
L 500.645455 -145.189962 
L 501.490909 -145.189962 
L 502.336364 -145.189962 
L 503.181818 -145.189962 
L 504.027273 -145.189962 
L 504.872727 -145.189962 
L 505.718182 -145.189962 
L 506.563636 -145.189962 
L 507.409091 -145.189962 
L 508.254545 -145.189962 
L 509.1 -145.189962 
L 509.945455 -145.189962 
L 510.790909 -145.189962 
L 511.636364 -145.189962 
L 512.481818 -145.189962 
L 513.327273 -145.189962 
L 514.172727 -145.189962 
L 515.018182 -145.189962 
L 515.863636 -145.189962 
L 516.709091 -145.189962 
L 517.554545 -145.189962 
L 518.4 -145.189962 
L 518.4 -140.700609 
L 518.4 -140.700609 
L 517.554545 -140.700609 
L 516.709091 -140.700609 
L 515.863636 -140.700609 
L 515.018182 -140.700609 
L 514.172727 -140.700609 
L 513.327273 -140.700609 
L 512.481818 -140.700609 
L 511.636364 -140.700609 
L 510.790909 -140.700609 
L 509.945455 -140.700609 
L 509.1 -140.700609 
L 508.254545 -140.700609 
L 507.409091 -140.700609 
L 506.563636 -140.700609 
L 505.718182 -140.700609 
L 504.872727 -140.700609 
L 504.027273 -140.700609 
L 503.181818 -140.700609 
L 502.336364 -140.700609 
L 501.490909 -140.700609 
L 500.645455 -140.700609 
L 499.8 -140.700609 
L 498.954545 -140.700609 
L 498.109091 -140.700609 
L 497.263636 -140.700609 
L 496.418182 -140.700609 
L 495.572727 -140.700609 
L 494.727273 -140.700609 
L 493.881818 -140.700609 
L 493.036364 -140.700609 
L 492.190909 -140.700609 
L 491.345455 -140.700609 
L 490.5 -140.700609 
L 489.654545 -140.700609 
L 488.809091 -140.700609 
L 487.963636 -140.700609 
L 487.118182 -140.700609 
L 486.272727 -140.700609 
L 485.427273 -140.700609 
L 484.581818 -140.700609 
L 483.736364 -140.700609 
L 482.890909 -140.700609 
L 482.045455 -140.700609 
L 481.2 -140.700609 
L 480.354545 -140.700609 
L 479.509091 -140.700609 
L 478.663636 -140.700609 
L 477.818182 -140.700609 
L 476.972727 -140.700609 
L 476.127273 -140.700609 
L 475.281818 -140.700609 
L 474.436364 -140.700609 
L 473.590909 -140.700609 
L 472.745455 -140.700609 
L 471.9 -140.700609 
L 471.054545 -140.700609 
L 470.209091 -140.700609 
L 469.363636 -140.700609 
L 468.518182 -140.700609 
L 467.672727 -140.700609 
L 466.827273 -140.700609 
L 465.981818 -140.700609 
L 465.136364 -140.700609 
L 464.290909 -140.700609 
L 463.445455 -140.700609 
L 462.6 -140.700609 
L 461.754545 -140.700609 
L 460.909091 -140.700609 
L 460.063636 -140.700609 
L 459.218182 -140.700609 
L 458.372727 -140.700609 
L 457.527273 -140.700609 
L 456.681818 -140.700609 
L 455.836364 -140.700609 
L 454.990909 -140.700609 
L 454.145455 -140.700609 
L 453.3 -140.700609 
L 452.454545 -140.700609 
L 451.609091 -140.700609 
L 450.763636 -140.700609 
L 449.918182 -140.700609 
L 449.072727 -140.700609 
L 448.227273 -140.700609 
L 447.381818 -140.700609 
L 446.536364 -140.700609 
L 445.690909 -140.700609 
L 444.845455 -140.700609 
L 444 -140.700609 
L 443.154545 -140.700609 
L 442.309091 -140.700609 
L 441.463636 -140.700609 
L 440.618182 -140.700609 
L 439.772727 -140.700609 
L 438.927273 -140.700609 
L 438.081818 -140.700609 
L 437.236364 -140.700609 
L 436.390909 -140.700609 
L 435.545455 -140.700609 
L 434.7 -140.700609 
L 433.854545 -140.700609 
L 433.009091 -140.700609 
L 432.163636 -140.700609 
L 431.318182 -140.700609 
L 430.472727 -140.700609 
L 429.627273 -140.700609 
L 428.781818 -140.700609 
L 427.936364 -140.700609 
L 427.090909 -140.700609 
L 426.245455 -140.700609 
L 425.4 -140.700609 
L 424.554545 -140.700609 
L 423.709091 -140.700609 
L 422.863636 -140.700609 
L 422.018182 -140.700609 
L 421.172727 -140.700609 
L 420.327273 -140.700609 
L 419.481818 -140.700609 
L 418.636364 -140.700609 
L 417.790909 -140.700609 
L 416.945455 -140.700609 
L 416.1 -140.700609 
L 415.254545 -140.700609 
L 414.409091 -140.700609 
L 413.563636 -140.700609 
L 412.718182 -140.700609 
L 411.872727 -140.700609 
L 411.027273 -140.700609 
L 410.181818 -140.700609 
L 409.336364 -140.700609 
L 408.490909 -140.700609 
L 407.645455 -140.700609 
L 406.8 -140.700609 
L 405.954545 -140.700609 
L 405.109091 -140.700609 
L 404.263636 -140.700609 
L 403.418182 -140.700609 
L 402.572727 -140.700609 
L 401.727273 -140.700609 
L 400.881818 -140.700609 
L 400.036364 -140.700609 
L 399.190909 -140.700609 
L 398.345455 -140.700609 
L 397.5 -140.700609 
L 396.654545 -140.700609 
L 395.809091 -140.700609 
L 394.963636 -140.700609 
L 394.118182 -140.700609 
L 393.272727 -140.700609 
L 392.427273 -140.700609 
L 391.581818 -140.700609 
L 390.736364 -140.700609 
L 389.890909 -140.700609 
L 389.045455 -140.700609 
L 388.2 -140.700609 
L 387.354545 -140.700609 
L 386.509091 -140.700609 
L 385.663636 -140.700609 
L 384.818182 -140.700609 
L 383.972727 -140.700609 
L 383.127273 -140.700609 
L 382.281818 -140.700609 
L 381.436364 -140.700609 
L 380.590909 -140.700609 
L 379.745455 -140.700609 
L 378.9 -140.700609 
L 378.054545 -140.700609 
L 377.209091 -140.700609 
L 376.363636 -140.700609 
L 375.518182 -140.700609 
L 374.672727 -140.700609 
L 373.827273 -140.700609 
L 372.981818 -140.700609 
L 372.136364 -140.700609 
L 371.290909 -140.700609 
L 370.445455 -140.700609 
L 369.6 -140.700609 
L 368.754545 -140.700609 
L 367.909091 -140.700609 
L 367.063636 -140.700609 
L 366.218182 -140.700609 
L 365.372727 -140.700609 
L 364.527273 -140.700609 
L 363.681818 -140.700609 
L 362.836364 -140.700609 
L 361.990909 -140.700609 
L 361.145455 -140.700609 
L 360.3 -140.700609 
L 359.454545 -140.700609 
L 358.609091 -140.700609 
L 357.763636 -140.700609 
L 356.918182 -140.700609 
L 356.072727 -140.700609 
L 355.227273 -140.700609 
L 354.381818 -140.700609 
L 353.536364 -140.700609 
L 352.690909 -140.700609 
L 351.845455 -140.700609 
L 351 -140.700609 
L 350.154545 -140.700609 
L 349.309091 -140.700609 
L 348.463636 -140.700609 
L 347.618182 -140.700609 
L 346.772727 -140.700609 
L 345.927273 -140.700609 
L 345.081818 -140.700609 
L 344.236364 -140.700609 
L 343.390909 -140.700609 
L 342.545455 -140.700609 
L 341.7 -140.700609 
L 340.854545 -140.700609 
L 340.009091 -140.700609 
L 339.163636 -140.700609 
L 338.318182 -140.700609 
L 337.472727 -140.700609 
L 336.627273 -140.700609 
L 335.781818 -140.700609 
L 334.936364 -140.700609 
L 334.090909 -140.700609 
L 333.245455 -140.700609 
L 332.4 -140.700609 
L 331.554545 -140.700609 
L 330.709091 -140.700609 
L 329.863636 -140.700609 
L 329.018182 -140.700609 
L 328.172727 -140.700609 
L 327.327273 -140.700609 
L 326.481818 -140.700609 
L 325.636364 -140.700609 
L 324.790909 -140.700609 
L 323.945455 -140.700609 
L 323.1 -140.700609 
L 322.254545 -140.700609 
L 321.409091 -140.700609 
L 320.563636 -140.700609 
L 319.718182 -140.700609 
L 318.872727 -140.700609 
L 318.027273 -140.700609 
L 317.181818 -140.700609 
L 316.336364 -140.700609 
L 315.490909 -140.700609 
L 314.645455 -140.700609 
L 313.8 -140.700609 
L 312.954545 -140.700609 
L 312.109091 -140.700609 
L 311.263636 -140.700609 
L 310.418182 -140.700609 
L 309.572727 -140.700609 
L 308.727273 -140.700609 
L 307.881818 -140.700609 
L 307.036364 -140.700609 
L 306.190909 -140.700609 
L 305.345455 -140.700609 
L 304.5 -140.700609 
L 303.654545 -140.700609 
L 302.809091 -140.700609 
L 301.963636 -140.700609 
L 301.118182 -140.700609 
L 300.272727 -140.700609 
L 299.427273 -140.700609 
L 298.581818 -140.700609 
L 297.736364 -140.700609 
L 296.890909 -140.700609 
L 296.045455 -140.700609 
L 295.2 -140.700609 
L 294.354545 -140.700609 
L 293.509091 -140.700609 
L 292.663636 -140.700609 
L 291.818182 -140.700609 
L 290.972727 -140.700609 
L 290.127273 -140.700609 
L 289.281818 -140.700609 
L 288.436364 -140.700609 
L 287.590909 -140.700609 
L 286.745455 -140.700609 
L 285.9 -140.700609 
L 285.054545 -140.700609 
L 284.209091 -140.700609 
L 283.363636 -140.700609 
L 282.518182 -140.700609 
L 281.672727 -140.700609 
L 280.827273 -140.700609 
L 279.981818 -140.700609 
L 279.136364 -140.700609 
L 278.290909 -140.700609 
L 277.445455 -140.700609 
L 276.6 -140.700609 
L 275.754545 -140.700609 
L 274.909091 -140.700609 
L 274.063636 -140.700609 
L 273.218182 -140.700609 
L 272.372727 -140.700609 
L 271.527273 -140.700609 
L 270.681818 -140.700609 
L 269.836364 -140.700609 
L 268.990909 -140.700609 
L 268.145455 -140.700609 
L 267.3 -140.700609 
L 266.454545 -140.700609 
L 265.609091 -140.700609 
L 264.763636 -140.700609 
L 263.918182 -140.700609 
L 263.072727 -140.700609 
L 262.227273 -140.700609 
L 261.381818 -140.700609 
L 260.536364 -140.700609 
L 259.690909 -140.700609 
L 258.845455 -140.700609 
L 258 -140.700609 
L 257.154545 -140.700609 
L 256.309091 -140.700609 
L 255.463636 -140.700609 
L 254.618182 -140.700609 
L 253.772727 -140.700609 
L 252.927273 -140.700609 
L 252.081818 -140.700609 
L 251.236364 -140.700609 
L 250.390909 -140.700609 
L 249.545455 -140.700609 
L 248.7 -140.700609 
L 247.854545 -140.700609 
L 247.009091 -140.700609 
L 246.163636 -140.700609 
L 245.318182 -140.700609 
L 244.472727 -140.700609 
L 243.627273 -140.700609 
L 242.781818 -140.700609 
L 241.936364 -140.700609 
L 241.090909 -140.700609 
L 240.245455 -140.700609 
L 239.4 -140.700609 
L 238.554545 -140.700609 
L 237.709091 -140.700609 
L 236.863636 -140.700609 
L 236.018182 -140.700609 
L 235.172727 -140.700609 
L 234.327273 -140.700609 
L 233.481818 -140.700609 
L 232.636364 -140.700609 
L 231.790909 -140.700609 
L 230.945455 -140.700609 
L 230.1 -140.700609 
L 229.254545 -140.700609 
L 228.409091 -140.700609 
L 227.563636 -140.700609 
L 226.718182 -140.700609 
L 225.872727 -140.700609 
L 225.027273 -140.700609 
L 224.181818 -140.700609 
L 223.336364 -140.700609 
L 222.490909 -140.700609 
L 221.645455 -140.700609 
L 220.8 -140.700609 
L 219.954545 -140.700609 
L 219.109091 -140.700609 
L 218.263636 -140.700609 
L 217.418182 -140.700609 
L 216.572727 -140.700609 
L 215.727273 -140.700609 
L 214.881818 -140.700609 
L 214.036364 -140.700609 
L 213.190909 -140.700609 
L 212.345455 -140.700609 
L 211.5 -140.700609 
L 210.654545 -140.700609 
L 209.809091 -140.700609 
L 208.963636 -140.700609 
L 208.118182 -140.700609 
L 207.272727 -140.700609 
L 206.427273 -140.700609 
L 205.581818 -140.700609 
L 204.736364 -140.700609 
L 203.890909 -140.700609 
L 203.045455 -140.700609 
L 202.2 -140.700609 
L 201.354545 -140.700609 
L 200.509091 -140.700609 
L 199.663636 -140.700609 
L 198.818182 -140.700609 
L 197.972727 -140.700609 
L 197.127273 -140.700609 
L 196.281818 -140.700609 
L 195.436364 -140.700609 
L 194.590909 -140.700609 
L 193.745455 -140.700609 
L 192.9 -140.700609 
L 192.054545 -140.700609 
L 191.209091 -140.700609 
L 190.363636 -140.700609 
L 189.518182 -140.700609 
L 188.672727 -140.700609 
L 187.827273 -140.700609 
L 186.981818 -140.700609 
L 186.136364 -140.700609 
L 185.290909 -140.700609 
L 184.445455 -140.700609 
L 183.6 -140.700609 
L 182.754545 -140.700609 
L 181.909091 -140.700609 
L 181.063636 -140.700609 
L 180.218182 -140.700609 
L 179.372727 -140.700609 
L 178.527273 -140.700609 
L 177.681818 -140.700609 
L 176.836364 -140.700609 
L 175.990909 -140.700609 
L 175.145455 -140.700609 
L 174.3 -140.700609 
L 173.454545 -140.700609 
L 172.609091 -140.700609 
L 171.763636 -140.700609 
L 170.918182 -140.700609 
L 170.072727 -140.700609 
L 169.227273 -140.700609 
L 168.381818 -140.700609 
L 167.536364 -140.700609 
L 166.690909 -140.700609 
L 165.845455 -140.700609 
L 165 -140.700609 
L 164.154545 -140.700609 
L 163.309091 -140.700609 
L 162.463636 -140.700609 
L 161.618182 -140.700609 
L 160.772727 -140.700609 
L 159.927273 -140.700609 
L 159.081818 -140.700609 
L 158.236364 -140.700609 
L 157.390909 -140.700609 
L 156.545455 -140.700609 
L 155.7 -140.700609 
L 154.854545 -140.700609 
L 154.009091 -140.700609 
L 153.163636 -140.700609 
L 152.318182 -140.700609 
L 151.472727 -140.700609 
L 150.627273 -140.700609 
L 149.781818 -140.700609 
L 148.936364 -140.700609 
L 148.090909 -140.700609 
L 147.245455 -140.700609 
L 146.4 -140.700609 
L 145.554545 -140.700609 
L 144.709091 -140.700609 
L 143.863636 -140.700609 
L 143.018182 -140.700609 
L 142.172727 -140.700609 
L 141.327273 -140.700609 
L 140.481818 -140.700609 
L 139.636364 -140.700609 
L 138.790909 -140.700609 
L 137.945455 -140.700609 
L 137.1 -140.700609 
L 136.254545 -140.700609 
L 135.409091 -140.700609 
L 134.563636 -140.700609 
L 133.718182 -140.700609 
L 132.872727 -140.700609 
L 132.027273 -140.700609 
L 131.181818 -140.700609 
L 130.336364 -140.700609 
L 129.490909 -140.700609 
L 128.645455 -140.700609 
L 127.8 -140.700609 
L 126.954545 -140.700609 
L 126.109091 -140.700609 
L 125.263636 -140.700609 
L 124.418182 -140.700609 
L 123.572727 -140.700609 
L 122.727273 -140.700609 
L 121.881818 -140.700609 
L 121.036364 -140.700609 
L 120.190909 -140.700609 
L 119.345455 -140.700609 
L 118.5 -140.700609 
L 117.654545 -140.700609 
L 116.809091 -140.700609 
L 115.963636 -140.700609 
L 115.118182 -140.700609 
L 114.272727 -140.700609 
L 113.427273 -140.700609 
L 112.581818 -140.700609 
L 111.736364 -140.700609 
L 110.890909 -140.700609 
L 110.045455 -140.700609 
L 109.2 -140.700609 
L 108.354545 -140.700609 
L 107.509091 -140.700609 
L 106.663636 -140.700609 
L 105.818182 -140.700609 
L 104.972727 -140.700609 
L 104.127273 -140.700609 
L 103.281818 -140.700609 
L 102.436364 -140.700609 
L 101.590909 -140.700609 
L 100.745455 -140.700609 
L 99.9 -140.700609 
L 99.054545 -140.700609 
L 98.209091 -140.700609 
L 97.363636 -140.700609 
L 96.518182 -140.700609 
L 95.672727 -140.700609 
L 94.827273 -140.700609 
L 93.981818 -140.700609 
L 93.136364 -140.700609 
L 92.290909 -140.700609 
L 91.445455 -140.700609 
L 90.6 -140.700609 
L 89.754545 -140.700609 
L 88.909091 -140.700609 
L 88.063636 -140.700609 
L 87.218182 -140.700609 
L 86.372727 -140.700609 
L 85.527273 -140.700609 
L 84.681818 -140.700609 
L 83.836364 -140.700609 
L 82.990909 -140.700609 
L 82.145455 -140.700609 
L 81.3 -140.700609 
L 80.454545 -140.700609 
L 79.609091 -140.700609 
L 78.763636 -140.700609 
L 77.918182 -140.700609 
L 77.072727 -140.700609 
L 76.227273 -140.700609 
L 75.381818 -140.700609 
L 74.536364 -140.700609 
L 73.690909 -140.700609 
L 72.845455 -140.700609 
L 72 -140.700609 
z
" id="m556040860a"/>
    </defs>
    <g clip-path="url(#p5749cce77b)">
     <use style="fill-opacity:0.15;" x="0" xlink:href="#m556040860a" y="360"/>
    </g>
   </g>
   <g id="matplotlib.axis_1">
    <g id="xtick_1">
     <g id="line2d_1">
      <defs>
       <path d="M 0 0 
L 0 3.5 
" id="m00916cd93b" style="stroke:#000000;stroke-width:0.8;"/>
      </defs>
      <g>
       <use style="stroke:#000000;stroke-width:0.8;" x="72" xlink:href="#m00916cd93b" y="320.4"/>
      </g>
     </g>
     <g id="text_1">
      <!-- 0.0 -->
      <g transform="translate(60.867812 338.037813)scale(0.14 -0.14)">
       <defs>
        <path d="M 2034 4250 
Q 1547 4250 1301 3770 
Q 1056 3291 1056 2328 
Q 1056 1369 1301 889 
Q 1547 409 2034 409 
Q 2525 409 2770 889 
Q 3016 1369 3016 2328 
Q 3016 3291 2770 3770 
Q 2525 4250 2034 4250 
z
M 2034 4750 
Q 2819 4750 3233 4129 
Q 3647 3509 3647 2328 
Q 3647 1150 3233 529 
Q 2819 -91 2034 -91 
Q 1250 -91 836 529 
Q 422 1150 422 2328 
Q 422 3509 836 4129 
Q 1250 4750 2034 4750 
z
" id="DejaVuSans-30" transform="scale(0.015625)"/>
        <path d="M 684 794 
L 1344 794 
L 1344 0 
L 684 0 
L 684 794 
z
" id="DejaVuSans-2e" transform="scale(0.015625)"/>
       </defs>
       <use xlink:href="#DejaVuSans-30"/>
       <use x="63.623047" xlink:href="#DejaVuSans-2e"/>
       <use x="95.410156" xlink:href="#DejaVuSans-30"/>
      </g>
     </g>
    </g>
    <g id="xtick_2">
     <g id="line2d_2">
      <g>
       <use style="stroke:#000000;stroke-width:0.8;" x="127.811162" xlink:href="#m00916cd93b" y="320.4"/>
      </g>
     </g>
     <g id="text_2">
      <!-- 2.5 -->
      <g transform="translate(116.678975 338.037813)scale(0.14 -0.14)">
       <defs>
        <path d="M 1228 531 
L 3431 531 
L 3431 0 
L 469 0 
L 469 531 
Q 828 903 1448 1529 
Q 2069 2156 2228 2338 
Q 2531 2678 2651 2914 
Q 2772 3150 2772 3378 
Q 2772 3750 2511 3984 
Q 2250 4219 1831 4219 
Q 1534 4219 1204 4116 
Q 875 4013 500 3803 
L 500 4441 
Q 881 4594 1212 4672 
Q 1544 4750 1819 4750 
Q 2544 4750 2975 4387 
Q 3406 4025 3406 3419 
Q 3406 3131 3298 2873 
Q 3191 2616 2906 2266 
Q 2828 2175 2409 1742 
Q 1991 1309 1228 531 
z
" id="DejaVuSans-32" transform="scale(0.015625)"/>
        <path d="M 691 4666 
L 3169 4666 
L 3169 4134 
L 1269 4134 
L 1269 2991 
Q 1406 3038 1543 3061 
Q 1681 3084 1819 3084 
Q 2600 3084 3056 2656 
Q 3513 2228 3513 1497 
Q 3513 744 3044 326 
Q 2575 -91 1722 -91 
Q 1428 -91 1123 -41 
Q 819 9 494 109 
L 494 744 
Q 775 591 1075 516 
Q 1375 441 1709 441 
Q 2250 441 2565 725 
Q 2881 1009 2881 1497 
Q 2881 1984 2565 2268 
Q 2250 2553 1709 2553 
Q 1456 2553 1204 2497 
Q 953 2441 691 2322 
L 691 4666 
z
" id="DejaVuSans-35" transform="scale(0.015625)"/>
       </defs>
       <use xlink:href="#DejaVuSans-32"/>
       <use x="63.623047" xlink:href="#DejaVuSans-2e"/>
       <use x="95.410156" xlink:href="#DejaVuSans-35"/>
      </g>
     </g>
    </g>
    <g id="xtick_3">
     <g id="line2d_3">
      <g>
       <use style="stroke:#000000;stroke-width:0.8;" x="183.622324" xlink:href="#m00916cd93b" y="320.4"/>
      </g>
     </g>
     <g id="text_3">
      <!-- 5.0 -->
      <g transform="translate(172.490137 338.037813)scale(0.14 -0.14)">
       <use xlink:href="#DejaVuSans-35"/>
       <use x="63.623047" xlink:href="#DejaVuSans-2e"/>
       <use x="95.410156" xlink:href="#DejaVuSans-30"/>
      </g>
     </g>
    </g>
    <g id="xtick_4">
     <g id="line2d_4">
      <g>
       <use style="stroke:#000000;stroke-width:0.8;" x="239.433487" xlink:href="#m00916cd93b" y="320.4"/>
      </g>
     </g>
     <g id="text_4">
      <!-- 7.5 -->
      <g transform="translate(228.301299 338.037813)scale(0.14 -0.14)">
       <defs>
        <path d="M 525 4666 
L 3525 4666 
L 3525 4397 
L 1831 0 
L 1172 0 
L 2766 4134 
L 525 4134 
L 525 4666 
z
" id="DejaVuSans-37" transform="scale(0.015625)"/>
       </defs>
       <use xlink:href="#DejaVuSans-37"/>
       <use x="63.623047" xlink:href="#DejaVuSans-2e"/>
       <use x="95.410156" xlink:href="#DejaVuSans-35"/>
      </g>
     </g>
    </g>
    <g id="xtick_5">
     <g id="line2d_5">
      <g>
       <use style="stroke:#000000;stroke-width:0.8;" x="295.244649" xlink:href="#m00916cd93b" y="320.4"/>
      </g>
     </g>
     <g id="text_5">
      <!-- 10.0 -->
      <g transform="translate(279.658711 338.037813)scale(0.14 -0.14)">
       <defs>
        <path d="M 794 531 
L 1825 531 
L 1825 4091 
L 703 3866 
L 703 4441 
L 1819 4666 
L 2450 4666 
L 2450 531 
L 3481 531 
L 3481 0 
L 794 0 
L 794 531 
z
" id="DejaVuSans-31" transform="scale(0.015625)"/>
       </defs>
       <use xlink:href="#DejaVuSans-31"/>
       <use x="63.623047" xlink:href="#DejaVuSans-30"/>
       <use x="127.246094" xlink:href="#DejaVuSans-2e"/>
       <use x="159.033203" xlink:href="#DejaVuSans-30"/>
      </g>
     </g>
    </g>
    <g id="xtick_6">
     <g id="line2d_6">
      <g>
       <use style="stroke:#000000;stroke-width:0.8;" x="351.055811" xlink:href="#m00916cd93b" y="320.4"/>
      </g>
     </g>
     <g id="text_6">
      <!-- 12.5 -->
      <g transform="translate(335.469874 338.037813)scale(0.14 -0.14)">
       <use xlink:href="#DejaVuSans-31"/>
       <use x="63.623047" xlink:href="#DejaVuSans-32"/>
       <use x="127.246094" xlink:href="#DejaVuSans-2e"/>
       <use x="159.033203" xlink:href="#DejaVuSans-35"/>
      </g>
     </g>
    </g>
    <g id="xtick_7">
     <g id="line2d_7">
      <g>
       <use style="stroke:#000000;stroke-width:0.8;" x="406.866973" xlink:href="#m00916cd93b" y="320.4"/>
      </g>
     </g>
     <g id="text_7">
      <!-- 15.0 -->
      <g transform="translate(391.281036 338.037813)scale(0.14 -0.14)">
       <use xlink:href="#DejaVuSans-31"/>
       <use x="63.623047" xlink:href="#DejaVuSans-35"/>
       <use x="127.246094" xlink:href="#DejaVuSans-2e"/>
       <use x="159.033203" xlink:href="#DejaVuSans-30"/>
      </g>
     </g>
    </g>
    <g id="xtick_8">
     <g id="line2d_8">
      <g>
       <use style="stroke:#000000;stroke-width:0.8;" x="462.678136" xlink:href="#m00916cd93b" y="320.4"/>
      </g>
     </g>
     <g id="text_8">
      <!-- 17.5 -->
      <g transform="translate(447.092198 338.037813)scale(0.14 -0.14)">
       <use xlink:href="#DejaVuSans-31"/>
       <use x="63.623047" xlink:href="#DejaVuSans-37"/>
       <use x="127.246094" xlink:href="#DejaVuSans-2e"/>
       <use x="159.033203" xlink:href="#DejaVuSans-35"/>
      </g>
     </g>
    </g>
    <g id="text_9">
     <!-- Time [Seconds] -->
     <g transform="translate(233.23 357.106875)scale(0.16 -0.16)">
      <defs>
       <path d="M -19 4666 
L 3928 4666 
L 3928 4134 
L 2272 4134 
L 2272 0 
L 1638 0 
L 1638 4134 
L -19 4134 
L -19 4666 
z
" id="DejaVuSans-54" transform="scale(0.015625)"/>
       <path d="M 603 3500 
L 1178 3500 
L 1178 0 
L 603 0 
L 603 3500 
z
M 603 4863 
L 1178 4863 
L 1178 4134 
L 603 4134 
L 603 4863 
z
" id="DejaVuSans-69" transform="scale(0.015625)"/>
       <path d="M 3328 2828 
Q 3544 3216 3844 3400 
Q 4144 3584 4550 3584 
Q 5097 3584 5394 3201 
Q 5691 2819 5691 2113 
L 5691 0 
L 5113 0 
L 5113 2094 
Q 5113 2597 4934 2840 
Q 4756 3084 4391 3084 
Q 3944 3084 3684 2787 
Q 3425 2491 3425 1978 
L 3425 0 
L 2847 0 
L 2847 2094 
Q 2847 2600 2669 2842 
Q 2491 3084 2119 3084 
Q 1678 3084 1418 2786 
Q 1159 2488 1159 1978 
L 1159 0 
L 581 0 
L 581 3500 
L 1159 3500 
L 1159 2956 
Q 1356 3278 1631 3431 
Q 1906 3584 2284 3584 
Q 2666 3584 2933 3390 
Q 3200 3197 3328 2828 
z
" id="DejaVuSans-6d" transform="scale(0.015625)"/>
       <path d="M 3597 1894 
L 3597 1613 
L 953 1613 
Q 991 1019 1311 708 
Q 1631 397 2203 397 
Q 2534 397 2845 478 
Q 3156 559 3463 722 
L 3463 178 
Q 3153 47 2828 -22 
Q 2503 -91 2169 -91 
Q 1331 -91 842 396 
Q 353 884 353 1716 
Q 353 2575 817 3079 
Q 1281 3584 2069 3584 
Q 2775 3584 3186 3129 
Q 3597 2675 3597 1894 
z
M 3022 2063 
Q 3016 2534 2758 2815 
Q 2500 3097 2075 3097 
Q 1594 3097 1305 2825 
Q 1016 2553 972 2059 
L 3022 2063 
z
" id="DejaVuSans-65" transform="scale(0.015625)"/>
       <path id="DejaVuSans-20" transform="scale(0.015625)"/>
       <path d="M 550 4863 
L 1875 4863 
L 1875 4416 
L 1125 4416 
L 1125 -397 
L 1875 -397 
L 1875 -844 
L 550 -844 
L 550 4863 
z
" id="DejaVuSans-5b" transform="scale(0.015625)"/>
       <path d="M 3425 4513 
L 3425 3897 
Q 3066 4069 2747 4153 
Q 2428 4238 2131 4238 
Q 1616 4238 1336 4038 
Q 1056 3838 1056 3469 
Q 1056 3159 1242 3001 
Q 1428 2844 1947 2747 
L 2328 2669 
Q 3034 2534 3370 2195 
Q 3706 1856 3706 1288 
Q 3706 609 3251 259 
Q 2797 -91 1919 -91 
Q 1588 -91 1214 -16 
Q 841 59 441 206 
L 441 856 
Q 825 641 1194 531 
Q 1563 422 1919 422 
Q 2459 422 2753 634 
Q 3047 847 3047 1241 
Q 3047 1584 2836 1778 
Q 2625 1972 2144 2069 
L 1759 2144 
Q 1053 2284 737 2584 
Q 422 2884 422 3419 
Q 422 4038 858 4394 
Q 1294 4750 2059 4750 
Q 2388 4750 2728 4690 
Q 3069 4631 3425 4513 
z
" id="DejaVuSans-53" transform="scale(0.015625)"/>
       <path d="M 3122 3366 
L 3122 2828 
Q 2878 2963 2633 3030 
Q 2388 3097 2138 3097 
Q 1578 3097 1268 2742 
Q 959 2388 959 1747 
Q 959 1106 1268 751 
Q 1578 397 2138 397 
Q 2388 397 2633 464 
Q 2878 531 3122 666 
L 3122 134 
Q 2881 22 2623 -34 
Q 2366 -91 2075 -91 
Q 1284 -91 818 406 
Q 353 903 353 1747 
Q 353 2603 823 3093 
Q 1294 3584 2113 3584 
Q 2378 3584 2631 3529 
Q 2884 3475 3122 3366 
z
" id="DejaVuSans-63" transform="scale(0.015625)"/>
       <path d="M 1959 3097 
Q 1497 3097 1228 2736 
Q 959 2375 959 1747 
Q 959 1119 1226 758 
Q 1494 397 1959 397 
Q 2419 397 2687 759 
Q 2956 1122 2956 1747 
Q 2956 2369 2687 2733 
Q 2419 3097 1959 3097 
z
M 1959 3584 
Q 2709 3584 3137 3096 
Q 3566 2609 3566 1747 
Q 3566 888 3137 398 
Q 2709 -91 1959 -91 
Q 1206 -91 779 398 
Q 353 888 353 1747 
Q 353 2609 779 3096 
Q 1206 3584 1959 3584 
z
" id="DejaVuSans-6f" transform="scale(0.015625)"/>
       <path d="M 3513 2113 
L 3513 0 
L 2938 0 
L 2938 2094 
Q 2938 2591 2744 2837 
Q 2550 3084 2163 3084 
Q 1697 3084 1428 2787 
Q 1159 2491 1159 1978 
L 1159 0 
L 581 0 
L 581 3500 
L 1159 3500 
L 1159 2956 
Q 1366 3272 1645 3428 
Q 1925 3584 2291 3584 
Q 2894 3584 3203 3211 
Q 3513 2838 3513 2113 
z
" id="DejaVuSans-6e" transform="scale(0.015625)"/>
       <path d="M 2906 2969 
L 2906 4863 
L 3481 4863 
L 3481 0 
L 2906 0 
L 2906 525 
Q 2725 213 2448 61 
Q 2172 -91 1784 -91 
Q 1150 -91 751 415 
Q 353 922 353 1747 
Q 353 2572 751 3078 
Q 1150 3584 1784 3584 
Q 2172 3584 2448 3432 
Q 2725 3281 2906 2969 
z
M 947 1747 
Q 947 1113 1208 752 
Q 1469 391 1925 391 
Q 2381 391 2643 752 
Q 2906 1113 2906 1747 
Q 2906 2381 2643 2742 
Q 2381 3103 1925 3103 
Q 1469 3103 1208 2742 
Q 947 2381 947 1747 
z
" id="DejaVuSans-64" transform="scale(0.015625)"/>
       <path d="M 2834 3397 
L 2834 2853 
Q 2591 2978 2328 3040 
Q 2066 3103 1784 3103 
Q 1356 3103 1142 2972 
Q 928 2841 928 2578 
Q 928 2378 1081 2264 
Q 1234 2150 1697 2047 
L 1894 2003 
Q 2506 1872 2764 1633 
Q 3022 1394 3022 966 
Q 3022 478 2636 193 
Q 2250 -91 1575 -91 
Q 1294 -91 989 -36 
Q 684 19 347 128 
L 347 722 
Q 666 556 975 473 
Q 1284 391 1588 391 
Q 1994 391 2212 530 
Q 2431 669 2431 922 
Q 2431 1156 2273 1281 
Q 2116 1406 1581 1522 
L 1381 1569 
Q 847 1681 609 1914 
Q 372 2147 372 2553 
Q 372 3047 722 3315 
Q 1072 3584 1716 3584 
Q 2034 3584 2315 3537 
Q 2597 3491 2834 3397 
z
" id="DejaVuSans-73" transform="scale(0.015625)"/>
       <path d="M 1947 4863 
L 1947 -844 
L 622 -844 
L 622 -397 
L 1369 -397 
L 1369 4416 
L 622 4416 
L 622 4863 
L 1947 4863 
z
" id="DejaVuSans-5d" transform="scale(0.015625)"/>
      </defs>
      <use xlink:href="#DejaVuSans-54"/>
      <use x="57.958984" xlink:href="#DejaVuSans-69"/>
      <use x="85.742188" xlink:href="#DejaVuSans-6d"/>
      <use x="183.154297" xlink:href="#DejaVuSans-65"/>
      <use x="244.677734" xlink:href="#DejaVuSans-20"/>
      <use x="276.464844" xlink:href="#DejaVuSans-5b"/>
      <use x="315.478516" xlink:href="#DejaVuSans-53"/>
      <use x="378.955078" xlink:href="#DejaVuSans-65"/>
      <use x="440.478516" xlink:href="#DejaVuSans-63"/>
      <use x="495.458984" xlink:href="#DejaVuSans-6f"/>
      <use x="556.640625" xlink:href="#DejaVuSans-6e"/>
      <use x="620.019531" xlink:href="#DejaVuSans-64"/>
      <use x="683.496094" xlink:href="#DejaVuSans-73"/>
      <use x="735.595703" xlink:href="#DejaVuSans-5d"/>
     </g>
    </g>
   </g>
   <g id="matplotlib.axis_2">
    <g id="ytick_1">
     <g id="line2d_9">
      <defs>
       <path d="M 0 0 
L -3.5 0 
" id="m4511eafc1b" style="stroke:#000000;stroke-width:0.8;"/>
      </defs>
      <g>
       <use style="stroke:#000000;stroke-width:0.8;" x="72" xlink:href="#m4511eafc1b" y="279.597701"/>
      </g>
     </g>
     <g id="text_10">
      <!-- 0.0 -->
      <g transform="translate(42.735625 284.916607)scale(0.14 -0.14)">
       <use xlink:href="#DejaVuSans-30"/>
       <use x="63.623047" xlink:href="#DejaVuSans-2e"/>
       <use x="95.410156" xlink:href="#DejaVuSans-30"/>
      </g>
     </g>
    </g>
    <g id="ytick_2">
     <g id="line2d_10">
      <g>
       <use style="stroke:#000000;stroke-width:0.8;" x="72" xlink:href="#m4511eafc1b" y="226.822917"/>
      </g>
     </g>
     <g id="text_11">
      <!-- 0.5 -->
      <g transform="translate(42.735625 232.141823)scale(0.14 -0.14)">
       <use xlink:href="#DejaVuSans-30"/>
       <use x="63.623047" xlink:href="#DejaVuSans-2e"/>
       <use x="95.410156" xlink:href="#DejaVuSans-35"/>
      </g>
     </g>
    </g>
    <g id="ytick_3">
     <g id="line2d_11">
      <g>
       <use style="stroke:#000000;stroke-width:0.8;" x="72" xlink:href="#m4511eafc1b" y="174.048132"/>
      </g>
     </g>
     <g id="text_12">
      <!-- 1.0 -->
      <g transform="translate(42.735625 179.367039)scale(0.14 -0.14)">
       <use xlink:href="#DejaVuSans-31"/>
       <use x="63.623047" xlink:href="#DejaVuSans-2e"/>
       <use x="95.410156" xlink:href="#DejaVuSans-30"/>
      </g>
     </g>
    </g>
    <g id="ytick_4">
     <g id="line2d_12">
      <g>
       <use style="stroke:#000000;stroke-width:0.8;" x="72" xlink:href="#m4511eafc1b" y="121.273348"/>
      </g>
     </g>
     <g id="text_13">
      <!-- 1.5 -->
      <g transform="translate(42.735625 126.592254)scale(0.14 -0.14)">
       <use xlink:href="#DejaVuSans-31"/>
       <use x="63.623047" xlink:href="#DejaVuSans-2e"/>
       <use x="95.410156" xlink:href="#DejaVuSans-35"/>
      </g>
     </g>
    </g>
    <g id="ytick_5">
     <g id="line2d_13">
      <g>
       <use style="stroke:#000000;stroke-width:0.8;" x="72" xlink:href="#m4511eafc1b" y="68.498564"/>
      </g>
     </g>
     <g id="text_14">
      <!-- 2.0 -->
      <g transform="translate(42.735625 73.81747)scale(0.14 -0.14)">
       <use xlink:href="#DejaVuSans-32"/>
       <use x="63.623047" xlink:href="#DejaVuSans-2e"/>
       <use x="95.410156" xlink:href="#DejaVuSans-30"/>
      </g>
     </g>
    </g>
    <g id="text_15">
     <!-- Speed [mm/s] -->
     <g transform="translate(35.408125 238.11375)rotate(-90)scale(0.16 -0.16)">
      <defs>
       <path d="M 1159 525 
L 1159 -1331 
L 581 -1331 
L 581 3500 
L 1159 3500 
L 1159 2969 
Q 1341 3281 1617 3432 
Q 1894 3584 2278 3584 
Q 2916 3584 3314 3078 
Q 3713 2572 3713 1747 
Q 3713 922 3314 415 
Q 2916 -91 2278 -91 
Q 1894 -91 1617 61 
Q 1341 213 1159 525 
z
M 3116 1747 
Q 3116 2381 2855 2742 
Q 2594 3103 2138 3103 
Q 1681 3103 1420 2742 
Q 1159 2381 1159 1747 
Q 1159 1113 1420 752 
Q 1681 391 2138 391 
Q 2594 391 2855 752 
Q 3116 1113 3116 1747 
z
" id="DejaVuSans-70" transform="scale(0.015625)"/>
       <path d="M 1625 4666 
L 2156 4666 
L 531 -594 
L 0 -594 
L 1625 4666 
z
" id="DejaVuSans-2f" transform="scale(0.015625)"/>
      </defs>
      <use xlink:href="#DejaVuSans-53"/>
      <use x="63.476562" xlink:href="#DejaVuSans-70"/>
      <use x="126.953125" xlink:href="#DejaVuSans-65"/>
      <use x="188.476562" xlink:href="#DejaVuSans-65"/>
      <use x="250" xlink:href="#DejaVuSans-64"/>
      <use x="313.476562" xlink:href="#DejaVuSans-20"/>
      <use x="345.263672" xlink:href="#DejaVuSans-5b"/>
      <use x="384.277344" xlink:href="#DejaVuSans-6d"/>
      <use x="481.689453" xlink:href="#DejaVuSans-6d"/>
      <use x="579.101562" xlink:href="#DejaVuSans-2f"/>
      <use x="612.792969" xlink:href="#DejaVuSans-73"/>
      <use x="664.892578" xlink:href="#DejaVuSans-5d"/>
     </g>
    </g>
   </g>
   <g id="line2d_14">
    <path clip-path="url(#p5749cce77b)" d="M 72 217.054714 
L 518.4 217.054714 
" style="fill:none;stroke:#000000;stroke-dasharray:5.55,2.4;stroke-dashoffset:0;stroke-width:1.5;"/>
   </g>
   <g id="line2d_15">
    <path clip-path="url(#p5749cce77b)" d="M 72 278.750594 
L 143.018182 278.852457 
L 143.863636 278.447606 
L 144.709091 276.24864 
L 145.554545 276.879964 
L 146.4 280.814613 
L 147.245455 280.865527 
L 148.090909 281.550474 
L 148.936364 281.299607 
L 149.781818 269.268892 
L 150.627273 262.782268 
L 152.318182 307.8 
L 153.163636 305.07386 
L 154.009091 288.647978 
L 154.854545 260.905747 
L 158.236364 113.396425 
L 159.081818 85.84553 
L 159.927273 68.924494 
L 160.772727 57.608302 
L 161.618182 55.8 
L 162.463636 64.38101 
L 163.309091 79.745701 
L 164.154545 101.710731 
L 166.690909 180.384654 
L 167.536364 206.516075 
L 168.381818 221.172596 
L 169.227273 227.08147 
L 170.072727 217.049204 
L 170.918182 188.782401 
L 171.763636 172.348886 
L 173.454545 198.156355 
L 174.3 199.292333 
L 175.145455 203.743656 
L 175.990909 206.590817 
L 176.836364 206.685087 
L 177.681818 209.771428 
L 178.527273 211.485242 
L 179.372727 209.100173 
L 180.218182 210.301001 
L 181.063636 212.485917 
L 181.909091 211.1145 
L 182.754545 211.03397 
L 183.6 211.953236 
L 184.445455 211.691981 
L 186.136364 213.057337 
L 186.981818 213.040533 
L 187.827273 212.79647 
L 188.672727 212.939239 
L 189.518182 212.959327 
L 190.363636 213.207355 
L 191.209091 212.946336 
L 192.054545 213.07478 
L 192.9 213.758466 
L 193.745455 213.589634 
L 194.590909 213.806311 
L 195.436364 214.267592 
L 196.281818 214.537375 
L 197.127273 214.649863 
L 197.972727 214.593892 
L 199.663636 215.490657 
L 201.354545 215.677515 
L 202.2 215.981716 
L 203.045455 216.064593 
L 203.890909 215.857733 
L 204.736364 216.042795 
L 206.427273 216.781796 
L 208.963636 216.465943 
L 209.809091 216.756926 
L 210.654545 216.909144 
L 212.345455 216.312829 
L 213.190909 216.201041 
L 214.036364 216.55499 
L 214.881818 216.283005 
L 215.727273 216.429105 
L 216.572727 217.21797 
L 217.418182 217.448363 
L 218.263636 217.35013 
L 219.109091 216.712689 
L 219.954545 216.757192 
L 220.8 217.281587 
L 221.645455 217.230657 
L 223.336364 216.754714 
L 225.027273 216.412682 
L 226.718182 216.964994 
L 227.563636 216.972092 
L 228.409091 216.81342 
L 230.1 216.933922 
L 230.945455 216.747252 
L 231.790909 216.874304 
L 232.636364 217.373071 
L 233.481818 217.641424 
L 234.327273 217.010915 
L 235.172727 216.916478 
L 236.863636 217.434433 
L 238.554545 217.888359 
L 239.4 217.791447 
L 240.245455 217.504902 
L 241.090909 217.982801 
L 241.936364 218.175685 
L 242.781818 218.164451 
L 243.627273 218.012033 
L 244.472727 217.564578 
L 247.009091 217.293307 
L 247.854545 217.413965 
L 248.7 217.82855 
L 249.545455 217.918692 
L 251.236364 217.535178 
L 252.081818 217.486767 
L 252.927273 217.58221 
L 253.772727 217.495037 
L 255.463636 216.829029 
L 257.154545 217.49578 
L 258.845455 217.199837 
L 259.690909 217.144816 
L 260.536364 217.389908 
L 261.381818 217.185588 
L 263.072727 217.045843 
L 263.918182 217.457239 
L 264.763636 217.688825 
L 265.609091 217.322263 
L 267.3 217.407167 
L 268.145455 217.228653 
L 268.990909 217.21889 
L 269.836364 217.829932 
L 270.681818 217.678593 
L 271.527273 216.982956 
L 272.372727 217.34307 
L 273.218182 218.275001 
L 274.063636 218.210905 
L 274.909091 217.278613 
L 275.754545 217.551087 
L 276.6 218.032701 
L 277.445455 217.954313 
L 278.290909 217.534848 
L 279.136364 217.457613 
L 279.981818 218.237033 
L 280.827273 218.391873 
L 281.672727 218.349796 
L 282.518182 217.855121 
L 283.363636 217.561216 
L 284.209091 217.730797 
L 285.054545 217.639978 
L 286.745455 217.729093 
L 289.281818 217.399942 
L 290.127273 217.60681 
L 290.972727 218.273179 
L 291.818182 218.143729 
L 292.663636 217.729195 
L 293.509091 217.636697 
L 295.2 217.862366 
L 296.045455 217.550281 
L 297.736364 217.120242 
L 298.581818 217.246829 
L 299.427273 216.814601 
L 300.272727 216.632598 
L 301.118182 217.498594 
L 301.963636 217.735687 
L 302.809091 217.684645 
L 304.5 217.189123 
L 305.345455 217.790586 
L 306.190909 217.988994 
L 307.036364 217.974124 
L 308.727273 217.372721 
L 309.572727 217.603103 
L 310.418182 217.486533 
L 311.263636 217.712291 
L 312.109091 218.217421 
L 312.954545 218.274369 
L 313.8 217.969326 
L 314.645455 217.470246 
L 315.490909 217.511414 
L 316.336364 218.229613 
L 317.181818 218.046256 
L 318.027273 217.213876 
L 319.718182 217.980505 
L 320.563636 216.98133 
L 321.409091 216.6977 
L 322.254545 217.502332 
L 323.1 217.782487 
L 324.790909 216.824967 
L 325.636364 217.251548 
L 326.481818 218.181562 
L 327.327273 218.409575 
L 328.172727 217.97677 
L 330.709091 217.678598 
L 331.554545 217.612248 
L 332.4 217.670917 
L 333.245455 217.950469 
L 336.627273 217.053271 
L 337.472727 217.192452 
L 338.318182 216.96139 
L 339.163636 216.885014 
L 340.009091 217.677985 
L 340.854545 218.269437 
L 341.7 217.933877 
L 342.545455 217.995179 
L 343.390909 218.570187 
L 344.236364 218.335984 
L 345.081818 217.856632 
L 347.618182 218.01601 
L 348.463636 218.58819 
L 349.309091 218.550529 
L 350.154545 218.287068 
L 351.845455 217.299604 
L 353.536364 217.337865 
L 354.381818 217.66737 
L 356.072727 218.03049 
L 357.763636 217.39562 
L 358.609091 217.520133 
L 359.454545 217.012218 
L 360.3 216.822751 
L 361.145455 217.699736 
L 361.990909 218.072308 
L 362.836364 217.73526 
L 364.527273 218.162351 
L 366.218182 217.620196 
L 367.063636 217.293276 
L 367.909091 217.170705 
L 368.754545 217.538028 
L 369.6 218.216072 
L 370.445455 217.911387 
L 371.290909 217.367441 
L 372.136364 217.189525 
L 372.981818 216.742596 
L 373.827273 216.711121 
L 375.518182 217.899597 
L 377.209091 218.297116 
L 378.054545 218.186182 
L 378.9 217.820675 
L 379.745455 217.580828 
L 380.590909 217.177087 
L 381.436364 217.265339 
L 382.281818 217.733006 
L 383.127273 217.49721 
L 383.972727 217.687553 
L 384.818182 218.299725 
L 385.663636 217.935501 
L 386.509091 217.419751 
L 387.354545 217.187193 
L 388.2 217.349194 
L 389.045455 217.380234 
L 389.890909 217.757083 
L 390.736364 218.502199 
L 391.581818 218.4525 
L 393.272727 217.853147 
L 394.118182 217.222413 
L 395.809091 217.466386 
L 396.654545 217.297029 
L 397.5 217.7135 
L 398.345455 218.382898 
L 399.190909 218.437973 
L 401.727273 217.219974 
L 402.572727 217.04944 
L 404.263636 217.652834 
L 405.109091 218.144479 
L 405.954545 218.073476 
L 406.8 217.402053 
L 407.645455 217.15684 
L 408.490909 217.072747 
L 409.336364 217.22546 
L 410.181818 216.990916 
L 411.027273 217.232831 
L 411.872727 217.95195 
L 412.718182 218.356894 
L 413.563636 218.456856 
L 415.254545 217.47133 
L 416.945455 217.583813 
L 417.790909 217.404249 
L 418.636364 217.644541 
L 419.481818 218.139309 
L 420.327273 218.138028 
L 421.172727 217.554272 
L 422.863636 216.735036 
L 423.709091 216.879632 
L 425.4 217.630535 
L 426.245455 218.248259 
L 427.090909 218.509801 
L 427.936364 218.470365 
L 428.781818 218.174485 
L 429.627273 217.703467 
L 430.472727 217.641965 
L 431.318182 217.260188 
L 432.163636 217.267758 
L 433.854545 218.297921 
L 434.7 218.527167 
L 435.545455 217.765932 
L 436.390909 217.264752 
L 438.081818 217.130646 
L 438.927273 217.376595 
L 440.618182 218.210011 
L 441.463636 218.129432 
L 443.154545 217.407426 
L 444 217.052246 
L 445.690909 216.677944 
L 446.536364 216.951208 
L 447.381818 217.646008 
L 448.227273 218.181654 
L 449.072727 218.458498 
L 449.918182 218.365045 
L 450.763636 217.872915 
L 451.609091 217.542461 
L 452.454545 217.398778 
L 454.990909 218.096126 
L 455.836364 218.261848 
L 456.681818 217.518028 
L 457.527273 216.946324 
L 459.218182 216.917653 
L 460.063636 217.223163 
L 460.909091 217.805819 
L 461.754545 217.978975 
L 462.6 218.387523 
L 463.445455 218.282332 
L 464.290909 217.672156 
L 465.136364 217.928599 
L 465.981818 217.855803 
L 466.827273 216.962903 
L 467.672727 216.91733 
L 468.518182 217.788133 
L 469.363636 217.898789 
L 470.209091 217.461811 
L 471.054545 217.626093 
L 472.745455 217.17889 
L 474.436364 217.454481 
L 475.281818 217.946344 
L 476.127273 218.663158 
L 476.972727 218.871953 
L 477.818182 218.276935 
L 478.663636 217.52193 
L 479.509091 217.69843 
L 480.354545 217.675995 
L 481.2 217.323225 
L 482.045455 217.578489 
L 483.736364 217.6769 
L 484.581818 217.132354 
L 485.427273 217.083507 
L 486.272727 217.502656 
L 487.963636 216.739167 
L 488.809091 217.078735 
L 489.654545 217.780823 
L 490.5 217.743932 
L 491.345455 217.37631 
L 492.190909 217.855604 
L 493.036364 218.114016 
L 493.881818 217.387374 
L 494.727273 217.098532 
L 498.109091 217.802167 
L 498.954545 217.714404 
L 499.8 217.308106 
L 501.490909 218.213346 
L 502.336364 218.179273 
L 503.181818 218.52095 
L 504.872727 218.6712 
L 505.718182 218.174949 
L 506.563636 217.925132 
L 507.409091 217.5082 
L 512.481818 217.237794 
L 515.018182 217.243328 
L 516.709091 217.050576 
L 517.554545 216.822207 
L 518.4 216.465498 
L 518.4 216.465498 
" style="fill:none;stroke:#ff0000;stroke-linecap:square;stroke-width:2;"/>
   </g>
   <g id="patch_3">
    <path d="M 72 320.4 
L 72 43.2 
" style="fill:none;stroke:#000000;stroke-linecap:square;stroke-linejoin:miter;stroke-width:0.8;"/>
   </g>
   <g id="patch_4">
    <path d="M 518.4 320.4 
L 518.4 43.2 
" style="fill:none;stroke:#000000;stroke-linecap:square;stroke-linejoin:miter;stroke-width:0.8;"/>
   </g>
   <g id="patch_5">
    <path d="M 72 320.4 
L 518.4 320.4 
" style="fill:none;stroke:#000000;stroke-linecap:square;stroke-linejoin:miter;stroke-width:0.8;"/>
   </g>
   <g id="patch_6">
    <path d="M 72 43.2 
L 518.4 43.2 
" style="fill:none;stroke:#000000;stroke-linecap:square;stroke-linejoin:miter;stroke-width:0.8;"/>
   </g>
   <g id="text_16">
    <!-- Front Propogation Speed -->
    <g transform="translate(172.245312 37.2)scale(0.2 -0.2)">
     <defs>
      <path d="M 628 4666 
L 3309 4666 
L 3309 4134 
L 1259 4134 
L 1259 2759 
L 3109 2759 
L 3109 2228 
L 1259 2228 
L 1259 0 
L 628 0 
L 628 4666 
z
" id="DejaVuSans-46" transform="scale(0.015625)"/>
      <path d="M 2631 2963 
Q 2534 3019 2420 3045 
Q 2306 3072 2169 3072 
Q 1681 3072 1420 2755 
Q 1159 2438 1159 1844 
L 1159 0 
L 581 0 
L 581 3500 
L 1159 3500 
L 1159 2956 
Q 1341 3275 1631 3429 
Q 1922 3584 2338 3584 
Q 2397 3584 2469 3576 
Q 2541 3569 2628 3553 
L 2631 2963 
z
" id="DejaVuSans-72" transform="scale(0.015625)"/>
      <path d="M 1172 4494 
L 1172 3500 
L 2356 3500 
L 2356 3053 
L 1172 3053 
L 1172 1153 
Q 1172 725 1289 603 
Q 1406 481 1766 481 
L 2356 481 
L 2356 0 
L 1766 0 
Q 1100 0 847 248 
Q 594 497 594 1153 
L 594 3053 
L 172 3053 
L 172 3500 
L 594 3500 
L 594 4494 
L 1172 4494 
z
" id="DejaVuSans-74" transform="scale(0.015625)"/>
      <path d="M 1259 4147 
L 1259 2394 
L 2053 2394 
Q 2494 2394 2734 2622 
Q 2975 2850 2975 3272 
Q 2975 3691 2734 3919 
Q 2494 4147 2053 4147 
L 1259 4147 
z
M 628 4666 
L 2053 4666 
Q 2838 4666 3239 4311 
Q 3641 3956 3641 3272 
Q 3641 2581 3239 2228 
Q 2838 1875 2053 1875 
L 1259 1875 
L 1259 0 
L 628 0 
L 628 4666 
z
" id="DejaVuSans-50" transform="scale(0.015625)"/>
      <path d="M 2906 1791 
Q 2906 2416 2648 2759 
Q 2391 3103 1925 3103 
Q 1463 3103 1205 2759 
Q 947 2416 947 1791 
Q 947 1169 1205 825 
Q 1463 481 1925 481 
Q 2391 481 2648 825 
Q 2906 1169 2906 1791 
z
M 3481 434 
Q 3481 -459 3084 -895 
Q 2688 -1331 1869 -1331 
Q 1566 -1331 1297 -1286 
Q 1028 -1241 775 -1147 
L 775 -588 
Q 1028 -725 1275 -790 
Q 1522 -856 1778 -856 
Q 2344 -856 2625 -561 
Q 2906 -266 2906 331 
L 2906 616 
Q 2728 306 2450 153 
Q 2172 0 1784 0 
Q 1141 0 747 490 
Q 353 981 353 1791 
Q 353 2603 747 3093 
Q 1141 3584 1784 3584 
Q 2172 3584 2450 3431 
Q 2728 3278 2906 2969 
L 2906 3500 
L 3481 3500 
L 3481 434 
z
" id="DejaVuSans-67" transform="scale(0.015625)"/>
      <path d="M 2194 1759 
Q 1497 1759 1228 1600 
Q 959 1441 959 1056 
Q 959 750 1161 570 
Q 1363 391 1709 391 
Q 2188 391 2477 730 
Q 2766 1069 2766 1631 
L 2766 1759 
L 2194 1759 
z
M 3341 1997 
L 3341 0 
L 2766 0 
L 2766 531 
Q 2569 213 2275 61 
Q 1981 -91 1556 -91 
Q 1019 -91 701 211 
Q 384 513 384 1019 
Q 384 1609 779 1909 
Q 1175 2209 1959 2209 
L 2766 2209 
L 2766 2266 
Q 2766 2663 2505 2880 
Q 2244 3097 1772 3097 
Q 1472 3097 1187 3025 
Q 903 2953 641 2809 
L 641 3341 
Q 956 3463 1253 3523 
Q 1550 3584 1831 3584 
Q 2591 3584 2966 3190 
Q 3341 2797 3341 1997 
z
" id="DejaVuSans-61" transform="scale(0.015625)"/>
     </defs>
     <use xlink:href="#DejaVuSans-46"/>
     <use x="50.269531" xlink:href="#DejaVuSans-72"/>
     <use x="89.132812" xlink:href="#DejaVuSans-6f"/>
     <use x="150.314453" xlink:href="#DejaVuSans-6e"/>
     <use x="213.693359" xlink:href="#DejaVuSans-74"/>
     <use x="252.902344" xlink:href="#DejaVuSans-20"/>
     <use x="284.689453" xlink:href="#DejaVuSans-50"/>
     <use x="343.242188" xlink:href="#DejaVuSans-72"/>
     <use x="382.105469" xlink:href="#DejaVuSans-6f"/>
     <use x="443.287109" xlink:href="#DejaVuSans-70"/>
     <use x="506.763672" xlink:href="#DejaVuSans-6f"/>
     <use x="567.945312" xlink:href="#DejaVuSans-67"/>
     <use x="631.421875" xlink:href="#DejaVuSans-61"/>
     <use x="692.701172" xlink:href="#DejaVuSans-74"/>
     <use x="731.910156" xlink:href="#DejaVuSans-69"/>
     <use x="759.693359" xlink:href="#DejaVuSans-6f"/>
     <use x="820.875" xlink:href="#DejaVuSans-6e"/>
     <use x="884.253906" xlink:href="#DejaVuSans-20"/>
     <use x="916.041016" xlink:href="#DejaVuSans-53"/>
     <use x="979.517578" xlink:href="#DejaVuSans-70"/>
     <use x="1042.994141" xlink:href="#DejaVuSans-65"/>
     <use x="1104.517578" xlink:href="#DejaVuSans-65"/>
     <use x="1166.041016" xlink:href="#DejaVuSans-64"/>
    </g>
   </g>
   <g id="legend_1">
    <g id="patch_7">
     <path d="M 325.967812 111.175687 
L 508.6 111.175687 
Q 511.4 111.175687 511.4 108.375687 
L 511.4 53 
Q 511.4 50.2 508.6 50.2 
L 325.967812 50.2 
Q 323.167812 50.2 323.167812 53 
L 323.167812 108.375687 
Q 323.167812 111.175687 325.967812 111.175687 
z
" style="fill:#ffffff;opacity:0.8;stroke:#cccccc;stroke-linejoin:miter;"/>
    </g>
    <g id="line2d_16">
     <path d="M 328.767812 61.537812 
L 356.767812 61.537812 
" style="fill:none;stroke:#ff0000;stroke-linecap:square;stroke-width:2;"/>
    </g>
    <g id="line2d_17"/>
    <g id="text_17">
     <!-- Front speed -->
     <g transform="translate(367.967812 66.437812)scale(0.14 -0.14)">
      <use xlink:href="#DejaVuSans-46"/>
      <use x="50.269531" xlink:href="#DejaVuSans-72"/>
      <use x="89.132812" xlink:href="#DejaVuSans-6f"/>
      <use x="150.314453" xlink:href="#DejaVuSans-6e"/>
      <use x="213.693359" xlink:href="#DejaVuSans-74"/>
      <use x="252.902344" xlink:href="#DejaVuSans-20"/>
      <use x="284.689453" xlink:href="#DejaVuSans-73"/>
      <use x="336.789062" xlink:href="#DejaVuSans-70"/>
      <use x="400.265625" xlink:href="#DejaVuSans-65"/>
      <use x="461.789062" xlink:href="#DejaVuSans-65"/>
      <use x="523.3125" xlink:href="#DejaVuSans-64"/>
     </g>
    </g>
    <g id="line2d_18">
     <path d="M 328.767812 91.381437 
L 356.767812 91.381437 
" style="fill:none;stroke:#000000;stroke-dasharray:5.55,2.4;stroke-dashoffset:0;stroke-width:1.5;"/>
    </g>
    <g id="line2d_19"/>
    <g id="text_18">
     <!-- Steady state -->
     <g transform="translate(367.967812 86.987187)scale(0.14 -0.14)">
      <defs>
       <path d="M 2059 -325 
Q 1816 -950 1584 -1140 
Q 1353 -1331 966 -1331 
L 506 -1331 
L 506 -850 
L 844 -850 
Q 1081 -850 1212 -737 
Q 1344 -625 1503 -206 
L 1606 56 
L 191 3500 
L 800 3500 
L 1894 763 
L 2988 3500 
L 3597 3500 
L 2059 -325 
z
" id="DejaVuSans-79" transform="scale(0.015625)"/>
      </defs>
      <use xlink:href="#DejaVuSans-53"/>
      <use x="63.476562" xlink:href="#DejaVuSans-74"/>
      <use x="102.685547" xlink:href="#DejaVuSans-65"/>
      <use x="164.208984" xlink:href="#DejaVuSans-61"/>
      <use x="225.488281" xlink:href="#DejaVuSans-64"/>
      <use x="288.964844" xlink:href="#DejaVuSans-79"/>
      <use x="348.144531" xlink:href="#DejaVuSans-20"/>
      <use x="379.931641" xlink:href="#DejaVuSans-73"/>
      <use x="432.03125" xlink:href="#DejaVuSans-74"/>
      <use x="471.240234" xlink:href="#DejaVuSans-61"/>
      <use x="532.519531" xlink:href="#DejaVuSans-74"/>
      <use x="571.728516" xlink:href="#DejaVuSans-65"/>
     </g>
     <!-- speed = 0.59 mm/s -->
     <g transform="translate(367.967812 102.664125)scale(0.14 -0.14)">
      <defs>
       <path d="M 678 2906 
L 4684 2906 
L 4684 2381 
L 678 2381 
L 678 2906 
z
M 678 1631 
L 4684 1631 
L 4684 1100 
L 678 1100 
L 678 1631 
z
" id="DejaVuSans-3d" transform="scale(0.015625)"/>
       <path d="M 703 97 
L 703 672 
Q 941 559 1184 500 
Q 1428 441 1663 441 
Q 2288 441 2617 861 
Q 2947 1281 2994 2138 
Q 2813 1869 2534 1725 
Q 2256 1581 1919 1581 
Q 1219 1581 811 2004 
Q 403 2428 403 3163 
Q 403 3881 828 4315 
Q 1253 4750 1959 4750 
Q 2769 4750 3195 4129 
Q 3622 3509 3622 2328 
Q 3622 1225 3098 567 
Q 2575 -91 1691 -91 
Q 1453 -91 1209 -44 
Q 966 3 703 97 
z
M 1959 2075 
Q 2384 2075 2632 2365 
Q 2881 2656 2881 3163 
Q 2881 3666 2632 3958 
Q 2384 4250 1959 4250 
Q 1534 4250 1286 3958 
Q 1038 3666 1038 3163 
Q 1038 2656 1286 2365 
Q 1534 2075 1959 2075 
z
" id="DejaVuSans-39" transform="scale(0.015625)"/>
      </defs>
      <use xlink:href="#DejaVuSans-73"/>
      <use x="52.099609" xlink:href="#DejaVuSans-70"/>
      <use x="115.576172" xlink:href="#DejaVuSans-65"/>
      <use x="177.099609" xlink:href="#DejaVuSans-65"/>
      <use x="238.623047" xlink:href="#DejaVuSans-64"/>
      <use x="302.099609" xlink:href="#DejaVuSans-20"/>
      <use x="333.886719" xlink:href="#DejaVuSans-3d"/>
      <use x="417.675781" xlink:href="#DejaVuSans-20"/>
      <use x="449.462891" xlink:href="#DejaVuSans-30"/>
      <use x="513.085938" xlink:href="#DejaVuSans-2e"/>
      <use x="544.873047" xlink:href="#DejaVuSans-35"/>
      <use x="608.496094" xlink:href="#DejaVuSans-39"/>
      <use x="672.119141" xlink:href="#DejaVuSans-20"/>
      <use x="703.90625" xlink:href="#DejaVuSans-6d"/>
      <use x="801.318359" xlink:href="#DejaVuSans-6d"/>
      <use x="898.730469" xlink:href="#DejaVuSans-2f"/>
      <use x="932.421875" xlink:href="#DejaVuSans-73"/>
     </g>
    </g>
   </g>
  </g>
 </g>
 <defs>
  <clipPath id="p5749cce77b">
   <rect height="277.2" width="446.4" x="72" y="43.2"/>
  </clipPath>
 </defs>
</svg>
