<?xml version="1.0" encoding="utf-8" standalone="no"?>
<!DOCTYPE svg PUBLIC "-//W3C//DTD SVG 1.1//EN"
  "http://www.w3.org/Graphics/SVG/1.1/DTD/svg11.dtd">
<svg height="360pt" version="1.1" viewBox="0 0 576 360" width="576pt" xmlns="http://www.w3.org/2000/svg" xmlns:xlink="http://www.w3.org/1999/xlink">
 <metadata>
  <rdf:RDF xmlns:cc="http://creativecommons.org/ns#" xmlns:dc="http://purl.org/dc/elements/1.1/" xmlns:rdf="http://www.w3.org/1999/02/22-rdf-syntax-ns#">
   <cc:Work>
    <dc:type rdf:resource="http://purl.org/dc/dcmitype/StillImage"/>
    <dc:date>2022-06-30T14:42:44.863697</dc:date>
    <dc:format>image/svg+xml</dc:format>
    <dc:creator>
     <cc:Agent>
      <dc:title>Matplotlib v3.4.3, https://matplotlib.org/</dc:title>
     </cc:Agent>
    </dc:creator>
   </cc:Work>
  </rdf:RDF>
 </metadata>
 <defs>
  <style type="text/css">*{stroke-linecap:butt;stroke-linejoin:round;}</style>
 </defs>
 <g id="figure_1">
  <g id="patch_1">
   <path d="M 0 360 
L 576 360 
L 576 0 
L 0 0 
z
" style="fill:#ffffff;"/>
  </g>
  <g id="axes_1">
   <g id="patch_2">
    <path d="M 72 320.4 
L 518.4 320.4 
L 518.4 43.2 
L 72 43.2 
z
" style="fill:#ffffff;"/>
   </g>
   <g id="PolyCollection_1">
    <defs>
     <path d="M 72 -143.978389 
L 72 -151.720029 
L 72.865116 -151.720029 
L 73.730233 -151.720029 
L 74.595349 -151.720029 
L 75.460465 -151.720029 
L 76.325581 -151.720029 
L 77.190698 -151.720029 
L 78.055814 -151.720029 
L 78.92093 -151.720029 
L 79.786047 -151.720029 
L 80.651163 -151.720029 
L 81.516279 -151.720029 
L 82.381395 -151.720029 
L 83.246512 -151.720029 
L 84.111628 -151.720029 
L 84.976744 -151.720029 
L 85.84186 -151.720029 
L 86.706977 -151.720029 
L 87.572093 -151.720029 
L 88.437209 -151.720029 
L 89.302326 -151.720029 
L 90.167442 -151.720029 
L 91.032558 -151.720029 
L 91.897674 -151.720029 
L 92.762791 -151.720029 
L 93.627907 -151.720029 
L 94.493023 -151.720029 
L 95.35814 -151.720029 
L 96.223256 -151.720029 
L 97.088372 -151.720029 
L 97.953488 -151.720029 
L 98.818605 -151.720029 
L 99.683721 -151.720029 
L 100.548837 -151.720029 
L 101.413953 -151.720029 
L 102.27907 -151.720029 
L 103.144186 -151.720029 
L 104.009302 -151.720029 
L 104.874419 -151.720029 
L 105.739535 -151.720029 
L 106.604651 -151.720029 
L 107.469767 -151.720029 
L 108.334884 -151.720029 
L 109.2 -151.720029 
L 110.065116 -151.720029 
L 110.930233 -151.720029 
L 111.795349 -151.720029 
L 112.660465 -151.720029 
L 113.525581 -151.720029 
L 114.390698 -151.720029 
L 115.255814 -151.720029 
L 116.12093 -151.720029 
L 116.986047 -151.720029 
L 117.851163 -151.720029 
L 118.716279 -151.720029 
L 119.581395 -151.720029 
L 120.446512 -151.720029 
L 121.311628 -151.720029 
L 122.176744 -151.720029 
L 123.04186 -151.720029 
L 123.906977 -151.720029 
L 124.772093 -151.720029 
L 125.637209 -151.720029 
L 126.502326 -151.720029 
L 127.367442 -151.720029 
L 128.232558 -151.720029 
L 129.097674 -151.720029 
L 129.962791 -151.720029 
L 130.827907 -151.720029 
L 131.693023 -151.720029 
L 132.55814 -151.720029 
L 133.423256 -151.720029 
L 134.288372 -151.720029 
L 135.153488 -151.720029 
L 136.018605 -151.720029 
L 136.883721 -151.720029 
L 137.748837 -151.720029 
L 138.613953 -151.720029 
L 139.47907 -151.720029 
L 140.344186 -151.720029 
L 141.209302 -151.720029 
L 142.074419 -151.720029 
L 142.939535 -151.720029 
L 143.804651 -151.720029 
L 144.669767 -151.720029 
L 145.534884 -151.720029 
L 146.4 -151.720029 
L 147.265116 -151.720029 
L 148.130233 -151.720029 
L 148.995349 -151.720029 
L 149.860465 -151.720029 
L 150.725581 -151.720029 
L 151.590698 -151.720029 
L 152.455814 -151.720029 
L 153.32093 -151.720029 
L 154.186047 -151.720029 
L 155.051163 -151.720029 
L 155.916279 -151.720029 
L 156.781395 -151.720029 
L 157.646512 -151.720029 
L 158.511628 -151.720029 
L 159.376744 -151.720029 
L 160.24186 -151.720029 
L 161.106977 -151.720029 
L 161.972093 -151.720029 
L 162.837209 -151.720029 
L 163.702326 -151.720029 
L 164.567442 -151.720029 
L 165.432558 -151.720029 
L 166.297674 -151.720029 
L 167.162791 -151.720029 
L 168.027907 -151.720029 
L 168.893023 -151.720029 
L 169.75814 -151.720029 
L 170.623256 -151.720029 
L 171.488372 -151.720029 
L 172.353488 -151.720029 
L 173.218605 -151.720029 
L 174.083721 -151.720029 
L 174.948837 -151.720029 
L 175.813953 -151.720029 
L 176.67907 -151.720029 
L 177.544186 -151.720029 
L 178.409302 -151.720029 
L 179.274419 -151.720029 
L 180.139535 -151.720029 
L 181.004651 -151.720029 
L 181.869767 -151.720029 
L 182.734884 -151.720029 
L 183.6 -151.720029 
L 184.465116 -151.720029 
L 185.330233 -151.720029 
L 186.195349 -151.720029 
L 187.060465 -151.720029 
L 187.925581 -151.720029 
L 188.790698 -151.720029 
L 189.655814 -151.720029 
L 190.52093 -151.720029 
L 191.386047 -151.720029 
L 192.251163 -151.720029 
L 193.116279 -151.720029 
L 193.981395 -151.720029 
L 194.846512 -151.720029 
L 195.711628 -151.720029 
L 196.576744 -151.720029 
L 197.44186 -151.720029 
L 198.306977 -151.720029 
L 199.172093 -151.720029 
L 200.037209 -151.720029 
L 200.902326 -151.720029 
L 201.767442 -151.720029 
L 202.632558 -151.720029 
L 203.497674 -151.720029 
L 204.362791 -151.720029 
L 205.227907 -151.720029 
L 206.093023 -151.720029 
L 206.95814 -151.720029 
L 207.823256 -151.720029 
L 208.688372 -151.720029 
L 209.553488 -151.720029 
L 210.418605 -151.720029 
L 211.283721 -151.720029 
L 212.148837 -151.720029 
L 213.013953 -151.720029 
L 213.87907 -151.720029 
L 214.744186 -151.720029 
L 215.609302 -151.720029 
L 216.474419 -151.720029 
L 217.339535 -151.720029 
L 218.204651 -151.720029 
L 219.069767 -151.720029 
L 219.934884 -151.720029 
L 220.8 -151.720029 
L 221.665116 -151.720029 
L 222.530233 -151.720029 
L 223.395349 -151.720029 
L 224.260465 -151.720029 
L 225.125581 -151.720029 
L 225.990698 -151.720029 
L 226.855814 -151.720029 
L 227.72093 -151.720029 
L 228.586047 -151.720029 
L 229.451163 -151.720029 
L 230.316279 -151.720029 
L 231.181395 -151.720029 
L 232.046512 -151.720029 
L 232.911628 -151.720029 
L 233.776744 -151.720029 
L 234.64186 -151.720029 
L 235.506977 -151.720029 
L 236.372093 -151.720029 
L 237.237209 -151.720029 
L 238.102326 -151.720029 
L 238.967442 -151.720029 
L 239.832558 -151.720029 
L 240.697674 -151.720029 
L 241.562791 -151.720029 
L 242.427907 -151.720029 
L 243.293023 -151.720029 
L 244.15814 -151.720029 
L 245.023256 -151.720029 
L 245.888372 -151.720029 
L 246.753488 -151.720029 
L 247.618605 -151.720029 
L 248.483721 -151.720029 
L 249.348837 -151.720029 
L 250.213953 -151.720029 
L 251.07907 -151.720029 
L 251.944186 -151.720029 
L 252.809302 -151.720029 
L 253.674419 -151.720029 
L 254.539535 -151.720029 
L 255.404651 -151.720029 
L 256.269767 -151.720029 
L 257.134884 -151.720029 
L 258 -151.720029 
L 258.865116 -151.720029 
L 259.730233 -151.720029 
L 260.595349 -151.720029 
L 261.460465 -151.720029 
L 262.325581 -151.720029 
L 263.190698 -151.720029 
L 264.055814 -151.720029 
L 264.92093 -151.720029 
L 265.786047 -151.720029 
L 266.651163 -151.720029 
L 267.516279 -151.720029 
L 268.381395 -151.720029 
L 269.246512 -151.720029 
L 270.111628 -151.720029 
L 270.976744 -151.720029 
L 271.84186 -151.720029 
L 272.706977 -151.720029 
L 273.572093 -151.720029 
L 274.437209 -151.720029 
L 275.302326 -151.720029 
L 276.167442 -151.720029 
L 277.032558 -151.720029 
L 277.897674 -151.720029 
L 278.762791 -151.720029 
L 279.627907 -151.720029 
L 280.493023 -151.720029 
L 281.35814 -151.720029 
L 282.223256 -151.720029 
L 283.088372 -151.720029 
L 283.953488 -151.720029 
L 284.818605 -151.720029 
L 285.683721 -151.720029 
L 286.548837 -151.720029 
L 287.413953 -151.720029 
L 288.27907 -151.720029 
L 289.144186 -151.720029 
L 290.009302 -151.720029 
L 290.874419 -151.720029 
L 291.739535 -151.720029 
L 292.604651 -151.720029 
L 293.469767 -151.720029 
L 294.334884 -151.720029 
L 295.2 -151.720029 
L 296.065116 -151.720029 
L 296.930233 -151.720029 
L 297.795349 -151.720029 
L 298.660465 -151.720029 
L 299.525581 -151.720029 
L 300.390698 -151.720029 
L 301.255814 -151.720029 
L 302.12093 -151.720029 
L 302.986047 -151.720029 
L 303.851163 -151.720029 
L 304.716279 -151.720029 
L 305.581395 -151.720029 
L 306.446512 -151.720029 
L 307.311628 -151.720029 
L 308.176744 -151.720029 
L 309.04186 -151.720029 
L 309.906977 -151.720029 
L 310.772093 -151.720029 
L 311.637209 -151.720029 
L 312.502326 -151.720029 
L 313.367442 -151.720029 
L 314.232558 -151.720029 
L 315.097674 -151.720029 
L 315.962791 -151.720029 
L 316.827907 -151.720029 
L 317.693023 -151.720029 
L 318.55814 -151.720029 
L 319.423256 -151.720029 
L 320.288372 -151.720029 
L 321.153488 -151.720029 
L 322.018605 -151.720029 
L 322.883721 -151.720029 
L 323.748837 -151.720029 
L 324.613953 -151.720029 
L 325.47907 -151.720029 
L 326.344186 -151.720029 
L 327.209302 -151.720029 
L 328.074419 -151.720029 
L 328.939535 -151.720029 
L 329.804651 -151.720029 
L 330.669767 -151.720029 
L 331.534884 -151.720029 
L 332.4 -151.720029 
L 333.265116 -151.720029 
L 334.130233 -151.720029 
L 334.995349 -151.720029 
L 335.860465 -151.720029 
L 336.725581 -151.720029 
L 337.590698 -151.720029 
L 338.455814 -151.720029 
L 339.32093 -151.720029 
L 340.186047 -151.720029 
L 341.051163 -151.720029 
L 341.916279 -151.720029 
L 342.781395 -151.720029 
L 343.646512 -151.720029 
L 344.511628 -151.720029 
L 345.376744 -151.720029 
L 346.24186 -151.720029 
L 347.106977 -151.720029 
L 347.972093 -151.720029 
L 348.837209 -151.720029 
L 349.702326 -151.720029 
L 350.567442 -151.720029 
L 351.432558 -151.720029 
L 352.297674 -151.720029 
L 353.162791 -151.720029 
L 354.027907 -151.720029 
L 354.893023 -151.720029 
L 355.75814 -151.720029 
L 356.623256 -151.720029 
L 357.488372 -151.720029 
L 358.353488 -151.720029 
L 359.218605 -151.720029 
L 360.083721 -151.720029 
L 360.948837 -151.720029 
L 361.813953 -151.720029 
L 362.67907 -151.720029 
L 363.544186 -151.720029 
L 364.409302 -151.720029 
L 365.274419 -151.720029 
L 366.139535 -151.720029 
L 367.004651 -151.720029 
L 367.869767 -151.720029 
L 368.734884 -151.720029 
L 369.6 -151.720029 
L 370.465116 -151.720029 
L 371.330233 -151.720029 
L 372.195349 -151.720029 
L 373.060465 -151.720029 
L 373.925581 -151.720029 
L 374.790698 -151.720029 
L 375.655814 -151.720029 
L 376.52093 -151.720029 
L 377.386047 -151.720029 
L 378.251163 -151.720029 
L 379.116279 -151.720029 
L 379.981395 -151.720029 
L 380.846512 -151.720029 
L 381.711628 -151.720029 
L 382.576744 -151.720029 
L 383.44186 -151.720029 
L 384.306977 -151.720029 
L 385.172093 -151.720029 
L 386.037209 -151.720029 
L 386.902326 -151.720029 
L 387.767442 -151.720029 
L 388.632558 -151.720029 
L 389.497674 -151.720029 
L 390.362791 -151.720029 
L 391.227907 -151.720029 
L 392.093023 -151.720029 
L 392.95814 -151.720029 
L 393.823256 -151.720029 
L 394.688372 -151.720029 
L 395.553488 -151.720029 
L 396.418605 -151.720029 
L 397.283721 -151.720029 
L 398.148837 -151.720029 
L 399.013953 -151.720029 
L 399.87907 -151.720029 
L 400.744186 -151.720029 
L 401.609302 -151.720029 
L 402.474419 -151.720029 
L 403.339535 -151.720029 
L 404.204651 -151.720029 
L 405.069767 -151.720029 
L 405.934884 -151.720029 
L 406.8 -151.720029 
L 407.665116 -151.720029 
L 408.530233 -151.720029 
L 409.395349 -151.720029 
L 410.260465 -151.720029 
L 411.125581 -151.720029 
L 411.990698 -151.720029 
L 412.855814 -151.720029 
L 413.72093 -151.720029 
L 414.586047 -151.720029 
L 415.451163 -151.720029 
L 416.316279 -151.720029 
L 417.181395 -151.720029 
L 418.046512 -151.720029 
L 418.911628 -151.720029 
L 419.776744 -151.720029 
L 420.64186 -151.720029 
L 421.506977 -151.720029 
L 422.372093 -151.720029 
L 423.237209 -151.720029 
L 424.102326 -151.720029 
L 424.967442 -151.720029 
L 425.832558 -151.720029 
L 426.697674 -151.720029 
L 427.562791 -151.720029 
L 428.427907 -151.720029 
L 429.293023 -151.720029 
L 430.15814 -151.720029 
L 431.023256 -151.720029 
L 431.888372 -151.720029 
L 432.753488 -151.720029 
L 433.618605 -151.720029 
L 434.483721 -151.720029 
L 435.348837 -151.720029 
L 436.213953 -151.720029 
L 437.07907 -151.720029 
L 437.944186 -151.720029 
L 438.809302 -151.720029 
L 439.674419 -151.720029 
L 440.539535 -151.720029 
L 441.404651 -151.720029 
L 442.269767 -151.720029 
L 443.134884 -151.720029 
L 444 -151.720029 
L 444.865116 -151.720029 
L 445.730233 -151.720029 
L 446.595349 -151.720029 
L 447.460465 -151.720029 
L 448.325581 -151.720029 
L 449.190698 -151.720029 
L 450.055814 -151.720029 
L 450.92093 -151.720029 
L 451.786047 -151.720029 
L 452.651163 -151.720029 
L 453.516279 -151.720029 
L 454.381395 -151.720029 
L 455.246512 -151.720029 
L 456.111628 -151.720029 
L 456.976744 -151.720029 
L 457.84186 -151.720029 
L 458.706977 -151.720029 
L 459.572093 -151.720029 
L 460.437209 -151.720029 
L 461.302326 -151.720029 
L 462.167442 -151.720029 
L 463.032558 -151.720029 
L 463.897674 -151.720029 
L 464.762791 -151.720029 
L 465.627907 -151.720029 
L 466.493023 -151.720029 
L 467.35814 -151.720029 
L 468.223256 -151.720029 
L 469.088372 -151.720029 
L 469.953488 -151.720029 
L 470.818605 -151.720029 
L 471.683721 -151.720029 
L 472.548837 -151.720029 
L 473.413953 -151.720029 
L 474.27907 -151.720029 
L 475.144186 -151.720029 
L 476.009302 -151.720029 
L 476.874419 -151.720029 
L 477.739535 -151.720029 
L 478.604651 -151.720029 
L 479.469767 -151.720029 
L 480.334884 -151.720029 
L 481.2 -151.720029 
L 482.065116 -151.720029 
L 482.930233 -151.720029 
L 483.795349 -151.720029 
L 484.660465 -151.720029 
L 485.525581 -151.720029 
L 486.390698 -151.720029 
L 487.255814 -151.720029 
L 488.12093 -151.720029 
L 488.986047 -151.720029 
L 489.851163 -151.720029 
L 490.716279 -151.720029 
L 491.581395 -151.720029 
L 492.446512 -151.720029 
L 493.311628 -151.720029 
L 494.176744 -151.720029 
L 495.04186 -151.720029 
L 495.906977 -151.720029 
L 496.772093 -151.720029 
L 497.637209 -151.720029 
L 498.502326 -151.720029 
L 499.367442 -151.720029 
L 500.232558 -151.720029 
L 501.097674 -151.720029 
L 501.962791 -151.720029 
L 502.827907 -151.720029 
L 503.693023 -151.720029 
L 504.55814 -151.720029 
L 505.423256 -151.720029 
L 506.288372 -151.720029 
L 507.153488 -151.720029 
L 508.018605 -151.720029 
L 508.883721 -151.720029 
L 509.748837 -151.720029 
L 510.613953 -151.720029 
L 511.47907 -151.720029 
L 512.344186 -151.720029 
L 513.209302 -151.720029 
L 514.074419 -151.720029 
L 514.939535 -151.720029 
L 515.804651 -151.720029 
L 516.669767 -151.720029 
L 517.534884 -151.720029 
L 518.4 -151.720029 
L 518.4 -143.978389 
L 518.4 -143.978389 
L 517.534884 -143.978389 
L 516.669767 -143.978389 
L 515.804651 -143.978389 
L 514.939535 -143.978389 
L 514.074419 -143.978389 
L 513.209302 -143.978389 
L 512.344186 -143.978389 
L 511.47907 -143.978389 
L 510.613953 -143.978389 
L 509.748837 -143.978389 
L 508.883721 -143.978389 
L 508.018605 -143.978389 
L 507.153488 -143.978389 
L 506.288372 -143.978389 
L 505.423256 -143.978389 
L 504.55814 -143.978389 
L 503.693023 -143.978389 
L 502.827907 -143.978389 
L 501.962791 -143.978389 
L 501.097674 -143.978389 
L 500.232558 -143.978389 
L 499.367442 -143.978389 
L 498.502326 -143.978389 
L 497.637209 -143.978389 
L 496.772093 -143.978389 
L 495.906977 -143.978389 
L 495.04186 -143.978389 
L 494.176744 -143.978389 
L 493.311628 -143.978389 
L 492.446512 -143.978389 
L 491.581395 -143.978389 
L 490.716279 -143.978389 
L 489.851163 -143.978389 
L 488.986047 -143.978389 
L 488.12093 -143.978389 
L 487.255814 -143.978389 
L 486.390698 -143.978389 
L 485.525581 -143.978389 
L 484.660465 -143.978389 
L 483.795349 -143.978389 
L 482.930233 -143.978389 
L 482.065116 -143.978389 
L 481.2 -143.978389 
L 480.334884 -143.978389 
L 479.469767 -143.978389 
L 478.604651 -143.978389 
L 477.739535 -143.978389 
L 476.874419 -143.978389 
L 476.009302 -143.978389 
L 475.144186 -143.978389 
L 474.27907 -143.978389 
L 473.413953 -143.978389 
L 472.548837 -143.978389 
L 471.683721 -143.978389 
L 470.818605 -143.978389 
L 469.953488 -143.978389 
L 469.088372 -143.978389 
L 468.223256 -143.978389 
L 467.35814 -143.978389 
L 466.493023 -143.978389 
L 465.627907 -143.978389 
L 464.762791 -143.978389 
L 463.897674 -143.978389 
L 463.032558 -143.978389 
L 462.167442 -143.978389 
L 461.302326 -143.978389 
L 460.437209 -143.978389 
L 459.572093 -143.978389 
L 458.706977 -143.978389 
L 457.84186 -143.978389 
L 456.976744 -143.978389 
L 456.111628 -143.978389 
L 455.246512 -143.978389 
L 454.381395 -143.978389 
L 453.516279 -143.978389 
L 452.651163 -143.978389 
L 451.786047 -143.978389 
L 450.92093 -143.978389 
L 450.055814 -143.978389 
L 449.190698 -143.978389 
L 448.325581 -143.978389 
L 447.460465 -143.978389 
L 446.595349 -143.978389 
L 445.730233 -143.978389 
L 444.865116 -143.978389 
L 444 -143.978389 
L 443.134884 -143.978389 
L 442.269767 -143.978389 
L 441.404651 -143.978389 
L 440.539535 -143.978389 
L 439.674419 -143.978389 
L 438.809302 -143.978389 
L 437.944186 -143.978389 
L 437.07907 -143.978389 
L 436.213953 -143.978389 
L 435.348837 -143.978389 
L 434.483721 -143.978389 
L 433.618605 -143.978389 
L 432.753488 -143.978389 
L 431.888372 -143.978389 
L 431.023256 -143.978389 
L 430.15814 -143.978389 
L 429.293023 -143.978389 
L 428.427907 -143.978389 
L 427.562791 -143.978389 
L 426.697674 -143.978389 
L 425.832558 -143.978389 
L 424.967442 -143.978389 
L 424.102326 -143.978389 
L 423.237209 -143.978389 
L 422.372093 -143.978389 
L 421.506977 -143.978389 
L 420.64186 -143.978389 
L 419.776744 -143.978389 
L 418.911628 -143.978389 
L 418.046512 -143.978389 
L 417.181395 -143.978389 
L 416.316279 -143.978389 
L 415.451163 -143.978389 
L 414.586047 -143.978389 
L 413.72093 -143.978389 
L 412.855814 -143.978389 
L 411.990698 -143.978389 
L 411.125581 -143.978389 
L 410.260465 -143.978389 
L 409.395349 -143.978389 
L 408.530233 -143.978389 
L 407.665116 -143.978389 
L 406.8 -143.978389 
L 405.934884 -143.978389 
L 405.069767 -143.978389 
L 404.204651 -143.978389 
L 403.339535 -143.978389 
L 402.474419 -143.978389 
L 401.609302 -143.978389 
L 400.744186 -143.978389 
L 399.87907 -143.978389 
L 399.013953 -143.978389 
L 398.148837 -143.978389 
L 397.283721 -143.978389 
L 396.418605 -143.978389 
L 395.553488 -143.978389 
L 394.688372 -143.978389 
L 393.823256 -143.978389 
L 392.95814 -143.978389 
L 392.093023 -143.978389 
L 391.227907 -143.978389 
L 390.362791 -143.978389 
L 389.497674 -143.978389 
L 388.632558 -143.978389 
L 387.767442 -143.978389 
L 386.902326 -143.978389 
L 386.037209 -143.978389 
L 385.172093 -143.978389 
L 384.306977 -143.978389 
L 383.44186 -143.978389 
L 382.576744 -143.978389 
L 381.711628 -143.978389 
L 380.846512 -143.978389 
L 379.981395 -143.978389 
L 379.116279 -143.978389 
L 378.251163 -143.978389 
L 377.386047 -143.978389 
L 376.52093 -143.978389 
L 375.655814 -143.978389 
L 374.790698 -143.978389 
L 373.925581 -143.978389 
L 373.060465 -143.978389 
L 372.195349 -143.978389 
L 371.330233 -143.978389 
L 370.465116 -143.978389 
L 369.6 -143.978389 
L 368.734884 -143.978389 
L 367.869767 -143.978389 
L 367.004651 -143.978389 
L 366.139535 -143.978389 
L 365.274419 -143.978389 
L 364.409302 -143.978389 
L 363.544186 -143.978389 
L 362.67907 -143.978389 
L 361.813953 -143.978389 
L 360.948837 -143.978389 
L 360.083721 -143.978389 
L 359.218605 -143.978389 
L 358.353488 -143.978389 
L 357.488372 -143.978389 
L 356.623256 -143.978389 
L 355.75814 -143.978389 
L 354.893023 -143.978389 
L 354.027907 -143.978389 
L 353.162791 -143.978389 
L 352.297674 -143.978389 
L 351.432558 -143.978389 
L 350.567442 -143.978389 
L 349.702326 -143.978389 
L 348.837209 -143.978389 
L 347.972093 -143.978389 
L 347.106977 -143.978389 
L 346.24186 -143.978389 
L 345.376744 -143.978389 
L 344.511628 -143.978389 
L 343.646512 -143.978389 
L 342.781395 -143.978389 
L 341.916279 -143.978389 
L 341.051163 -143.978389 
L 340.186047 -143.978389 
L 339.32093 -143.978389 
L 338.455814 -143.978389 
L 337.590698 -143.978389 
L 336.725581 -143.978389 
L 335.860465 -143.978389 
L 334.995349 -143.978389 
L 334.130233 -143.978389 
L 333.265116 -143.978389 
L 332.4 -143.978389 
L 331.534884 -143.978389 
L 330.669767 -143.978389 
L 329.804651 -143.978389 
L 328.939535 -143.978389 
L 328.074419 -143.978389 
L 327.209302 -143.978389 
L 326.344186 -143.978389 
L 325.47907 -143.978389 
L 324.613953 -143.978389 
L 323.748837 -143.978389 
L 322.883721 -143.978389 
L 322.018605 -143.978389 
L 321.153488 -143.978389 
L 320.288372 -143.978389 
L 319.423256 -143.978389 
L 318.55814 -143.978389 
L 317.693023 -143.978389 
L 316.827907 -143.978389 
L 315.962791 -143.978389 
L 315.097674 -143.978389 
L 314.232558 -143.978389 
L 313.367442 -143.978389 
L 312.502326 -143.978389 
L 311.637209 -143.978389 
L 310.772093 -143.978389 
L 309.906977 -143.978389 
L 309.04186 -143.978389 
L 308.176744 -143.978389 
L 307.311628 -143.978389 
L 306.446512 -143.978389 
L 305.581395 -143.978389 
L 304.716279 -143.978389 
L 303.851163 -143.978389 
L 302.986047 -143.978389 
L 302.12093 -143.978389 
L 301.255814 -143.978389 
L 300.390698 -143.978389 
L 299.525581 -143.978389 
L 298.660465 -143.978389 
L 297.795349 -143.978389 
L 296.930233 -143.978389 
L 296.065116 -143.978389 
L 295.2 -143.978389 
L 294.334884 -143.978389 
L 293.469767 -143.978389 
L 292.604651 -143.978389 
L 291.739535 -143.978389 
L 290.874419 -143.978389 
L 290.009302 -143.978389 
L 289.144186 -143.978389 
L 288.27907 -143.978389 
L 287.413953 -143.978389 
L 286.548837 -143.978389 
L 285.683721 -143.978389 
L 284.818605 -143.978389 
L 283.953488 -143.978389 
L 283.088372 -143.978389 
L 282.223256 -143.978389 
L 281.35814 -143.978389 
L 280.493023 -143.978389 
L 279.627907 -143.978389 
L 278.762791 -143.978389 
L 277.897674 -143.978389 
L 277.032558 -143.978389 
L 276.167442 -143.978389 
L 275.302326 -143.978389 
L 274.437209 -143.978389 
L 273.572093 -143.978389 
L 272.706977 -143.978389 
L 271.84186 -143.978389 
L 270.976744 -143.978389 
L 270.111628 -143.978389 
L 269.246512 -143.978389 
L 268.381395 -143.978389 
L 267.516279 -143.978389 
L 266.651163 -143.978389 
L 265.786047 -143.978389 
L 264.92093 -143.978389 
L 264.055814 -143.978389 
L 263.190698 -143.978389 
L 262.325581 -143.978389 
L 261.460465 -143.978389 
L 260.595349 -143.978389 
L 259.730233 -143.978389 
L 258.865116 -143.978389 
L 258 -143.978389 
L 257.134884 -143.978389 
L 256.269767 -143.978389 
L 255.404651 -143.978389 
L 254.539535 -143.978389 
L 253.674419 -143.978389 
L 252.809302 -143.978389 
L 251.944186 -143.978389 
L 251.07907 -143.978389 
L 250.213953 -143.978389 
L 249.348837 -143.978389 
L 248.483721 -143.978389 
L 247.618605 -143.978389 
L 246.753488 -143.978389 
L 245.888372 -143.978389 
L 245.023256 -143.978389 
L 244.15814 -143.978389 
L 243.293023 -143.978389 
L 242.427907 -143.978389 
L 241.562791 -143.978389 
L 240.697674 -143.978389 
L 239.832558 -143.978389 
L 238.967442 -143.978389 
L 238.102326 -143.978389 
L 237.237209 -143.978389 
L 236.372093 -143.978389 
L 235.506977 -143.978389 
L 234.64186 -143.978389 
L 233.776744 -143.978389 
L 232.911628 -143.978389 
L 232.046512 -143.978389 
L 231.181395 -143.978389 
L 230.316279 -143.978389 
L 229.451163 -143.978389 
L 228.586047 -143.978389 
L 227.72093 -143.978389 
L 226.855814 -143.978389 
L 225.990698 -143.978389 
L 225.125581 -143.978389 
L 224.260465 -143.978389 
L 223.395349 -143.978389 
L 222.530233 -143.978389 
L 221.665116 -143.978389 
L 220.8 -143.978389 
L 219.934884 -143.978389 
L 219.069767 -143.978389 
L 218.204651 -143.978389 
L 217.339535 -143.978389 
L 216.474419 -143.978389 
L 215.609302 -143.978389 
L 214.744186 -143.978389 
L 213.87907 -143.978389 
L 213.013953 -143.978389 
L 212.148837 -143.978389 
L 211.283721 -143.978389 
L 210.418605 -143.978389 
L 209.553488 -143.978389 
L 208.688372 -143.978389 
L 207.823256 -143.978389 
L 206.95814 -143.978389 
L 206.093023 -143.978389 
L 205.227907 -143.978389 
L 204.362791 -143.978389 
L 203.497674 -143.978389 
L 202.632558 -143.978389 
L 201.767442 -143.978389 
L 200.902326 -143.978389 
L 200.037209 -143.978389 
L 199.172093 -143.978389 
L 198.306977 -143.978389 
L 197.44186 -143.978389 
L 196.576744 -143.978389 
L 195.711628 -143.978389 
L 194.846512 -143.978389 
L 193.981395 -143.978389 
L 193.116279 -143.978389 
L 192.251163 -143.978389 
L 191.386047 -143.978389 
L 190.52093 -143.978389 
L 189.655814 -143.978389 
L 188.790698 -143.978389 
L 187.925581 -143.978389 
L 187.060465 -143.978389 
L 186.195349 -143.978389 
L 185.330233 -143.978389 
L 184.465116 -143.978389 
L 183.6 -143.978389 
L 182.734884 -143.978389 
L 181.869767 -143.978389 
L 181.004651 -143.978389 
L 180.139535 -143.978389 
L 179.274419 -143.978389 
L 178.409302 -143.978389 
L 177.544186 -143.978389 
L 176.67907 -143.978389 
L 175.813953 -143.978389 
L 174.948837 -143.978389 
L 174.083721 -143.978389 
L 173.218605 -143.978389 
L 172.353488 -143.978389 
L 171.488372 -143.978389 
L 170.623256 -143.978389 
L 169.75814 -143.978389 
L 168.893023 -143.978389 
L 168.027907 -143.978389 
L 167.162791 -143.978389 
L 166.297674 -143.978389 
L 165.432558 -143.978389 
L 164.567442 -143.978389 
L 163.702326 -143.978389 
L 162.837209 -143.978389 
L 161.972093 -143.978389 
L 161.106977 -143.978389 
L 160.24186 -143.978389 
L 159.376744 -143.978389 
L 158.511628 -143.978389 
L 157.646512 -143.978389 
L 156.781395 -143.978389 
L 155.916279 -143.978389 
L 155.051163 -143.978389 
L 154.186047 -143.978389 
L 153.32093 -143.978389 
L 152.455814 -143.978389 
L 151.590698 -143.978389 
L 150.725581 -143.978389 
L 149.860465 -143.978389 
L 148.995349 -143.978389 
L 148.130233 -143.978389 
L 147.265116 -143.978389 
L 146.4 -143.978389 
L 145.534884 -143.978389 
L 144.669767 -143.978389 
L 143.804651 -143.978389 
L 142.939535 -143.978389 
L 142.074419 -143.978389 
L 141.209302 -143.978389 
L 140.344186 -143.978389 
L 139.47907 -143.978389 
L 138.613953 -143.978389 
L 137.748837 -143.978389 
L 136.883721 -143.978389 
L 136.018605 -143.978389 
L 135.153488 -143.978389 
L 134.288372 -143.978389 
L 133.423256 -143.978389 
L 132.55814 -143.978389 
L 131.693023 -143.978389 
L 130.827907 -143.978389 
L 129.962791 -143.978389 
L 129.097674 -143.978389 
L 128.232558 -143.978389 
L 127.367442 -143.978389 
L 126.502326 -143.978389 
L 125.637209 -143.978389 
L 124.772093 -143.978389 
L 123.906977 -143.978389 
L 123.04186 -143.978389 
L 122.176744 -143.978389 
L 121.311628 -143.978389 
L 120.446512 -143.978389 
L 119.581395 -143.978389 
L 118.716279 -143.978389 
L 117.851163 -143.978389 
L 116.986047 -143.978389 
L 116.12093 -143.978389 
L 115.255814 -143.978389 
L 114.390698 -143.978389 
L 113.525581 -143.978389 
L 112.660465 -143.978389 
L 111.795349 -143.978389 
L 110.930233 -143.978389 
L 110.065116 -143.978389 
L 109.2 -143.978389 
L 108.334884 -143.978389 
L 107.469767 -143.978389 
L 106.604651 -143.978389 
L 105.739535 -143.978389 
L 104.874419 -143.978389 
L 104.009302 -143.978389 
L 103.144186 -143.978389 
L 102.27907 -143.978389 
L 101.413953 -143.978389 
L 100.548837 -143.978389 
L 99.683721 -143.978389 
L 98.818605 -143.978389 
L 97.953488 -143.978389 
L 97.088372 -143.978389 
L 96.223256 -143.978389 
L 95.35814 -143.978389 
L 94.493023 -143.978389 
L 93.627907 -143.978389 
L 92.762791 -143.978389 
L 91.897674 -143.978389 
L 91.032558 -143.978389 
L 90.167442 -143.978389 
L 89.302326 -143.978389 
L 88.437209 -143.978389 
L 87.572093 -143.978389 
L 86.706977 -143.978389 
L 85.84186 -143.978389 
L 84.976744 -143.978389 
L 84.111628 -143.978389 
L 83.246512 -143.978389 
L 82.381395 -143.978389 
L 81.516279 -143.978389 
L 80.651163 -143.978389 
L 79.786047 -143.978389 
L 78.92093 -143.978389 
L 78.055814 -143.978389 
L 77.190698 -143.978389 
L 76.325581 -143.978389 
L 75.460465 -143.978389 
L 74.595349 -143.978389 
L 73.730233 -143.978389 
L 72.865116 -143.978389 
L 72 -143.978389 
z
" id="m7276f4ac53"/>
    </defs>
    <g clip-path="url(#p1901b5ddb2)">
     <use style="fill-opacity:0.15;" x="0" xlink:href="#m7276f4ac53" y="360"/>
    </g>
   </g>
   <g id="matplotlib.axis_1">
    <g id="xtick_1">
     <g id="line2d_1">
      <defs>
       <path d="M 0 0 
L 0 3.5 
" id="m136610f51c" style="stroke:#000000;stroke-width:0.8;"/>
      </defs>
      <g>
       <use style="stroke:#000000;stroke-width:0.8;" x="72" xlink:href="#m136610f51c" y="320.4"/>
      </g>
     </g>
     <g id="text_1">
      <!-- 0.0 -->
      <g transform="translate(60.867812 338.037813)scale(0.14 -0.14)">
       <defs>
        <path d="M 2034 4250 
Q 1547 4250 1301 3770 
Q 1056 3291 1056 2328 
Q 1056 1369 1301 889 
Q 1547 409 2034 409 
Q 2525 409 2770 889 
Q 3016 1369 3016 2328 
Q 3016 3291 2770 3770 
Q 2525 4250 2034 4250 
z
M 2034 4750 
Q 2819 4750 3233 4129 
Q 3647 3509 3647 2328 
Q 3647 1150 3233 529 
Q 2819 -91 2034 -91 
Q 1250 -91 836 529 
Q 422 1150 422 2328 
Q 422 3509 836 4129 
Q 1250 4750 2034 4750 
z
" id="DejaVuSans-30" transform="scale(0.015625)"/>
        <path d="M 684 794 
L 1344 794 
L 1344 0 
L 684 0 
L 684 794 
z
" id="DejaVuSans-2e" transform="scale(0.015625)"/>
       </defs>
       <use xlink:href="#DejaVuSans-30"/>
       <use x="63.623047" xlink:href="#DejaVuSans-2e"/>
       <use x="95.410156" xlink:href="#DejaVuSans-30"/>
      </g>
     </g>
    </g>
    <g id="xtick_2">
     <g id="line2d_2">
      <g>
       <use style="stroke:#000000;stroke-width:0.8;" x="127.934242" xlink:href="#m136610f51c" y="320.4"/>
      </g>
     </g>
     <g id="text_2">
      <!-- 2.5 -->
      <g transform="translate(116.802055 338.037813)scale(0.14 -0.14)">
       <defs>
        <path d="M 1228 531 
L 3431 531 
L 3431 0 
L 469 0 
L 469 531 
Q 828 903 1448 1529 
Q 2069 2156 2228 2338 
Q 2531 2678 2651 2914 
Q 2772 3150 2772 3378 
Q 2772 3750 2511 3984 
Q 2250 4219 1831 4219 
Q 1534 4219 1204 4116 
Q 875 4013 500 3803 
L 500 4441 
Q 881 4594 1212 4672 
Q 1544 4750 1819 4750 
Q 2544 4750 2975 4387 
Q 3406 4025 3406 3419 
Q 3406 3131 3298 2873 
Q 3191 2616 2906 2266 
Q 2828 2175 2409 1742 
Q 1991 1309 1228 531 
z
" id="DejaVuSans-32" transform="scale(0.015625)"/>
        <path d="M 691 4666 
L 3169 4666 
L 3169 4134 
L 1269 4134 
L 1269 2991 
Q 1406 3038 1543 3061 
Q 1681 3084 1819 3084 
Q 2600 3084 3056 2656 
Q 3513 2228 3513 1497 
Q 3513 744 3044 326 
Q 2575 -91 1722 -91 
Q 1428 -91 1123 -41 
Q 819 9 494 109 
L 494 744 
Q 775 591 1075 516 
Q 1375 441 1709 441 
Q 2250 441 2565 725 
Q 2881 1009 2881 1497 
Q 2881 1984 2565 2268 
Q 2250 2553 1709 2553 
Q 1456 2553 1204 2497 
Q 953 2441 691 2322 
L 691 4666 
z
" id="DejaVuSans-35" transform="scale(0.015625)"/>
       </defs>
       <use xlink:href="#DejaVuSans-32"/>
       <use x="63.623047" xlink:href="#DejaVuSans-2e"/>
       <use x="95.410156" xlink:href="#DejaVuSans-35"/>
      </g>
     </g>
    </g>
    <g id="xtick_3">
     <g id="line2d_3">
      <g>
       <use style="stroke:#000000;stroke-width:0.8;" x="183.868484" xlink:href="#m136610f51c" y="320.4"/>
      </g>
     </g>
     <g id="text_3">
      <!-- 5.0 -->
      <g transform="translate(172.736297 338.037813)scale(0.14 -0.14)">
       <use xlink:href="#DejaVuSans-35"/>
       <use x="63.623047" xlink:href="#DejaVuSans-2e"/>
       <use x="95.410156" xlink:href="#DejaVuSans-30"/>
      </g>
     </g>
    </g>
    <g id="xtick_4">
     <g id="line2d_4">
      <g>
       <use style="stroke:#000000;stroke-width:0.8;" x="239.802727" xlink:href="#m136610f51c" y="320.4"/>
      </g>
     </g>
     <g id="text_4">
      <!-- 7.5 -->
      <g transform="translate(228.670539 338.037813)scale(0.14 -0.14)">
       <defs>
        <path d="M 525 4666 
L 3525 4666 
L 3525 4397 
L 1831 0 
L 1172 0 
L 2766 4134 
L 525 4134 
L 525 4666 
z
" id="DejaVuSans-37" transform="scale(0.015625)"/>
       </defs>
       <use xlink:href="#DejaVuSans-37"/>
       <use x="63.623047" xlink:href="#DejaVuSans-2e"/>
       <use x="95.410156" xlink:href="#DejaVuSans-35"/>
      </g>
     </g>
    </g>
    <g id="xtick_5">
     <g id="line2d_5">
      <g>
       <use style="stroke:#000000;stroke-width:0.8;" x="295.736969" xlink:href="#m136610f51c" y="320.4"/>
      </g>
     </g>
     <g id="text_5">
      <!-- 10.0 -->
      <g transform="translate(280.151031 338.037813)scale(0.14 -0.14)">
       <defs>
        <path d="M 794 531 
L 1825 531 
L 1825 4091 
L 703 3866 
L 703 4441 
L 1819 4666 
L 2450 4666 
L 2450 531 
L 3481 531 
L 3481 0 
L 794 0 
L 794 531 
z
" id="DejaVuSans-31" transform="scale(0.015625)"/>
       </defs>
       <use xlink:href="#DejaVuSans-31"/>
       <use x="63.623047" xlink:href="#DejaVuSans-30"/>
       <use x="127.246094" xlink:href="#DejaVuSans-2e"/>
       <use x="159.033203" xlink:href="#DejaVuSans-30"/>
      </g>
     </g>
    </g>
    <g id="xtick_6">
     <g id="line2d_6">
      <g>
       <use style="stroke:#000000;stroke-width:0.8;" x="351.671211" xlink:href="#m136610f51c" y="320.4"/>
      </g>
     </g>
     <g id="text_6">
      <!-- 12.5 -->
      <g transform="translate(336.085273 338.037813)scale(0.14 -0.14)">
       <use xlink:href="#DejaVuSans-31"/>
       <use x="63.623047" xlink:href="#DejaVuSans-32"/>
       <use x="127.246094" xlink:href="#DejaVuSans-2e"/>
       <use x="159.033203" xlink:href="#DejaVuSans-35"/>
      </g>
     </g>
    </g>
    <g id="xtick_7">
     <g id="line2d_7">
      <g>
       <use style="stroke:#000000;stroke-width:0.8;" x="407.605453" xlink:href="#m136610f51c" y="320.4"/>
      </g>
     </g>
     <g id="text_7">
      <!-- 15.0 -->
      <g transform="translate(392.019516 338.037813)scale(0.14 -0.14)">
       <use xlink:href="#DejaVuSans-31"/>
       <use x="63.623047" xlink:href="#DejaVuSans-35"/>
       <use x="127.246094" xlink:href="#DejaVuSans-2e"/>
       <use x="159.033203" xlink:href="#DejaVuSans-30"/>
      </g>
     </g>
    </g>
    <g id="xtick_8">
     <g id="line2d_8">
      <g>
       <use style="stroke:#000000;stroke-width:0.8;" x="463.539695" xlink:href="#m136610f51c" y="320.4"/>
      </g>
     </g>
     <g id="text_8">
      <!-- 17.5 -->
      <g transform="translate(447.953758 338.037813)scale(0.14 -0.14)">
       <use xlink:href="#DejaVuSans-31"/>
       <use x="63.623047" xlink:href="#DejaVuSans-37"/>
       <use x="127.246094" xlink:href="#DejaVuSans-2e"/>
       <use x="159.033203" xlink:href="#DejaVuSans-35"/>
      </g>
     </g>
    </g>
    <g id="text_9">
     <!-- Time [Seconds] -->
     <g transform="translate(233.23 357.106875)scale(0.16 -0.16)">
      <defs>
       <path d="M -19 4666 
L 3928 4666 
L 3928 4134 
L 2272 4134 
L 2272 0 
L 1638 0 
L 1638 4134 
L -19 4134 
L -19 4666 
z
" id="DejaVuSans-54" transform="scale(0.015625)"/>
       <path d="M 603 3500 
L 1178 3500 
L 1178 0 
L 603 0 
L 603 3500 
z
M 603 4863 
L 1178 4863 
L 1178 4134 
L 603 4134 
L 603 4863 
z
" id="DejaVuSans-69" transform="scale(0.015625)"/>
       <path d="M 3328 2828 
Q 3544 3216 3844 3400 
Q 4144 3584 4550 3584 
Q 5097 3584 5394 3201 
Q 5691 2819 5691 2113 
L 5691 0 
L 5113 0 
L 5113 2094 
Q 5113 2597 4934 2840 
Q 4756 3084 4391 3084 
Q 3944 3084 3684 2787 
Q 3425 2491 3425 1978 
L 3425 0 
L 2847 0 
L 2847 2094 
Q 2847 2600 2669 2842 
Q 2491 3084 2119 3084 
Q 1678 3084 1418 2786 
Q 1159 2488 1159 1978 
L 1159 0 
L 581 0 
L 581 3500 
L 1159 3500 
L 1159 2956 
Q 1356 3278 1631 3431 
Q 1906 3584 2284 3584 
Q 2666 3584 2933 3390 
Q 3200 3197 3328 2828 
z
" id="DejaVuSans-6d" transform="scale(0.015625)"/>
       <path d="M 3597 1894 
L 3597 1613 
L 953 1613 
Q 991 1019 1311 708 
Q 1631 397 2203 397 
Q 2534 397 2845 478 
Q 3156 559 3463 722 
L 3463 178 
Q 3153 47 2828 -22 
Q 2503 -91 2169 -91 
Q 1331 -91 842 396 
Q 353 884 353 1716 
Q 353 2575 817 3079 
Q 1281 3584 2069 3584 
Q 2775 3584 3186 3129 
Q 3597 2675 3597 1894 
z
M 3022 2063 
Q 3016 2534 2758 2815 
Q 2500 3097 2075 3097 
Q 1594 3097 1305 2825 
Q 1016 2553 972 2059 
L 3022 2063 
z
" id="DejaVuSans-65" transform="scale(0.015625)"/>
       <path id="DejaVuSans-20" transform="scale(0.015625)"/>
       <path d="M 550 4863 
L 1875 4863 
L 1875 4416 
L 1125 4416 
L 1125 -397 
L 1875 -397 
L 1875 -844 
L 550 -844 
L 550 4863 
z
" id="DejaVuSans-5b" transform="scale(0.015625)"/>
       <path d="M 3425 4513 
L 3425 3897 
Q 3066 4069 2747 4153 
Q 2428 4238 2131 4238 
Q 1616 4238 1336 4038 
Q 1056 3838 1056 3469 
Q 1056 3159 1242 3001 
Q 1428 2844 1947 2747 
L 2328 2669 
Q 3034 2534 3370 2195 
Q 3706 1856 3706 1288 
Q 3706 609 3251 259 
Q 2797 -91 1919 -91 
Q 1588 -91 1214 -16 
Q 841 59 441 206 
L 441 856 
Q 825 641 1194 531 
Q 1563 422 1919 422 
Q 2459 422 2753 634 
Q 3047 847 3047 1241 
Q 3047 1584 2836 1778 
Q 2625 1972 2144 2069 
L 1759 2144 
Q 1053 2284 737 2584 
Q 422 2884 422 3419 
Q 422 4038 858 4394 
Q 1294 4750 2059 4750 
Q 2388 4750 2728 4690 
Q 3069 4631 3425 4513 
z
" id="DejaVuSans-53" transform="scale(0.015625)"/>
       <path d="M 3122 3366 
L 3122 2828 
Q 2878 2963 2633 3030 
Q 2388 3097 2138 3097 
Q 1578 3097 1268 2742 
Q 959 2388 959 1747 
Q 959 1106 1268 751 
Q 1578 397 2138 397 
Q 2388 397 2633 464 
Q 2878 531 3122 666 
L 3122 134 
Q 2881 22 2623 -34 
Q 2366 -91 2075 -91 
Q 1284 -91 818 406 
Q 353 903 353 1747 
Q 353 2603 823 3093 
Q 1294 3584 2113 3584 
Q 2378 3584 2631 3529 
Q 2884 3475 3122 3366 
z
" id="DejaVuSans-63" transform="scale(0.015625)"/>
       <path d="M 1959 3097 
Q 1497 3097 1228 2736 
Q 959 2375 959 1747 
Q 959 1119 1226 758 
Q 1494 397 1959 397 
Q 2419 397 2687 759 
Q 2956 1122 2956 1747 
Q 2956 2369 2687 2733 
Q 2419 3097 1959 3097 
z
M 1959 3584 
Q 2709 3584 3137 3096 
Q 3566 2609 3566 1747 
Q 3566 888 3137 398 
Q 2709 -91 1959 -91 
Q 1206 -91 779 398 
Q 353 888 353 1747 
Q 353 2609 779 3096 
Q 1206 3584 1959 3584 
z
" id="DejaVuSans-6f" transform="scale(0.015625)"/>
       <path d="M 3513 2113 
L 3513 0 
L 2938 0 
L 2938 2094 
Q 2938 2591 2744 2837 
Q 2550 3084 2163 3084 
Q 1697 3084 1428 2787 
Q 1159 2491 1159 1978 
L 1159 0 
L 581 0 
L 581 3500 
L 1159 3500 
L 1159 2956 
Q 1366 3272 1645 3428 
Q 1925 3584 2291 3584 
Q 2894 3584 3203 3211 
Q 3513 2838 3513 2113 
z
" id="DejaVuSans-6e" transform="scale(0.015625)"/>
       <path d="M 2906 2969 
L 2906 4863 
L 3481 4863 
L 3481 0 
L 2906 0 
L 2906 525 
Q 2725 213 2448 61 
Q 2172 -91 1784 -91 
Q 1150 -91 751 415 
Q 353 922 353 1747 
Q 353 2572 751 3078 
Q 1150 3584 1784 3584 
Q 2172 3584 2448 3432 
Q 2725 3281 2906 2969 
z
M 947 1747 
Q 947 1113 1208 752 
Q 1469 391 1925 391 
Q 2381 391 2643 752 
Q 2906 1113 2906 1747 
Q 2906 2381 2643 2742 
Q 2381 3103 1925 3103 
Q 1469 3103 1208 2742 
Q 947 2381 947 1747 
z
" id="DejaVuSans-64" transform="scale(0.015625)"/>
       <path d="M 2834 3397 
L 2834 2853 
Q 2591 2978 2328 3040 
Q 2066 3103 1784 3103 
Q 1356 3103 1142 2972 
Q 928 2841 928 2578 
Q 928 2378 1081 2264 
Q 1234 2150 1697 2047 
L 1894 2003 
Q 2506 1872 2764 1633 
Q 3022 1394 3022 966 
Q 3022 478 2636 193 
Q 2250 -91 1575 -91 
Q 1294 -91 989 -36 
Q 684 19 347 128 
L 347 722 
Q 666 556 975 473 
Q 1284 391 1588 391 
Q 1994 391 2212 530 
Q 2431 669 2431 922 
Q 2431 1156 2273 1281 
Q 2116 1406 1581 1522 
L 1381 1569 
Q 847 1681 609 1914 
Q 372 2147 372 2553 
Q 372 3047 722 3315 
Q 1072 3584 1716 3584 
Q 2034 3584 2315 3537 
Q 2597 3491 2834 3397 
z
" id="DejaVuSans-73" transform="scale(0.015625)"/>
       <path d="M 1947 4863 
L 1947 -844 
L 622 -844 
L 622 -397 
L 1369 -397 
L 1369 4416 
L 622 4416 
L 622 4863 
L 1947 4863 
z
" id="DejaVuSans-5d" transform="scale(0.015625)"/>
      </defs>
      <use xlink:href="#DejaVuSans-54"/>
      <use x="57.958984" xlink:href="#DejaVuSans-69"/>
      <use x="85.742188" xlink:href="#DejaVuSans-6d"/>
      <use x="183.154297" xlink:href="#DejaVuSans-65"/>
      <use x="244.677734" xlink:href="#DejaVuSans-20"/>
      <use x="276.464844" xlink:href="#DejaVuSans-5b"/>
      <use x="315.478516" xlink:href="#DejaVuSans-53"/>
      <use x="378.955078" xlink:href="#DejaVuSans-65"/>
      <use x="440.478516" xlink:href="#DejaVuSans-63"/>
      <use x="495.458984" xlink:href="#DejaVuSans-6f"/>
      <use x="556.640625" xlink:href="#DejaVuSans-6e"/>
      <use x="620.019531" xlink:href="#DejaVuSans-64"/>
      <use x="683.496094" xlink:href="#DejaVuSans-73"/>
      <use x="735.595703" xlink:href="#DejaVuSans-5d"/>
     </g>
    </g>
   </g>
   <g id="matplotlib.axis_2">
    <g id="ytick_1">
     <g id="line2d_9">
      <defs>
       <path d="M 0 0 
L -3.5 0 
" id="m3674a6b79d" style="stroke:#000000;stroke-width:0.8;"/>
      </defs>
      <g>
       <use style="stroke:#000000;stroke-width:0.8;" x="72" xlink:href="#m3674a6b79d" y="304.385625"/>
      </g>
     </g>
     <g id="text_10">
      <!-- 0.0 -->
      <g transform="translate(42.735625 309.704531)scale(0.14 -0.14)">
       <use xlink:href="#DejaVuSans-30"/>
       <use x="63.623047" xlink:href="#DejaVuSans-2e"/>
       <use x="95.410156" xlink:href="#DejaVuSans-30"/>
      </g>
     </g>
    </g>
    <g id="ytick_2">
     <g id="line2d_10">
      <g>
       <use style="stroke:#000000;stroke-width:0.8;" x="72" xlink:href="#m3674a6b79d" y="272.747275"/>
      </g>
     </g>
     <g id="text_11">
      <!-- 0.2 -->
      <g transform="translate(42.735625 278.066181)scale(0.14 -0.14)">
       <use xlink:href="#DejaVuSans-30"/>
       <use x="63.623047" xlink:href="#DejaVuSans-2e"/>
       <use x="95.410156" xlink:href="#DejaVuSans-32"/>
      </g>
     </g>
    </g>
    <g id="ytick_3">
     <g id="line2d_11">
      <g>
       <use style="stroke:#000000;stroke-width:0.8;" x="72" xlink:href="#m3674a6b79d" y="241.108924"/>
      </g>
     </g>
     <g id="text_12">
      <!-- 0.4 -->
      <g transform="translate(42.735625 246.427831)scale(0.14 -0.14)">
       <defs>
        <path d="M 2419 4116 
L 825 1625 
L 2419 1625 
L 2419 4116 
z
M 2253 4666 
L 3047 4666 
L 3047 1625 
L 3713 1625 
L 3713 1100 
L 3047 1100 
L 3047 0 
L 2419 0 
L 2419 1100 
L 313 1100 
L 313 1709 
L 2253 4666 
z
" id="DejaVuSans-34" transform="scale(0.015625)"/>
       </defs>
       <use xlink:href="#DejaVuSans-30"/>
       <use x="63.623047" xlink:href="#DejaVuSans-2e"/>
       <use x="95.410156" xlink:href="#DejaVuSans-34"/>
      </g>
     </g>
    </g>
    <g id="ytick_4">
     <g id="line2d_12">
      <g>
       <use style="stroke:#000000;stroke-width:0.8;" x="72" xlink:href="#m3674a6b79d" y="209.470574"/>
      </g>
     </g>
     <g id="text_13">
      <!-- 0.6 -->
      <g transform="translate(42.735625 214.789481)scale(0.14 -0.14)">
       <defs>
        <path d="M 2113 2584 
Q 1688 2584 1439 2293 
Q 1191 2003 1191 1497 
Q 1191 994 1439 701 
Q 1688 409 2113 409 
Q 2538 409 2786 701 
Q 3034 994 3034 1497 
Q 3034 2003 2786 2293 
Q 2538 2584 2113 2584 
z
M 3366 4563 
L 3366 3988 
Q 3128 4100 2886 4159 
Q 2644 4219 2406 4219 
Q 1781 4219 1451 3797 
Q 1122 3375 1075 2522 
Q 1259 2794 1537 2939 
Q 1816 3084 2150 3084 
Q 2853 3084 3261 2657 
Q 3669 2231 3669 1497 
Q 3669 778 3244 343 
Q 2819 -91 2113 -91 
Q 1303 -91 875 529 
Q 447 1150 447 2328 
Q 447 3434 972 4092 
Q 1497 4750 2381 4750 
Q 2619 4750 2861 4703 
Q 3103 4656 3366 4563 
z
" id="DejaVuSans-36" transform="scale(0.015625)"/>
       </defs>
       <use xlink:href="#DejaVuSans-30"/>
       <use x="63.623047" xlink:href="#DejaVuSans-2e"/>
       <use x="95.410156" xlink:href="#DejaVuSans-36"/>
      </g>
     </g>
    </g>
    <g id="ytick_5">
     <g id="line2d_13">
      <g>
       <use style="stroke:#000000;stroke-width:0.8;" x="72" xlink:href="#m3674a6b79d" y="177.832224"/>
      </g>
     </g>
     <g id="text_14">
      <!-- 0.8 -->
      <g transform="translate(42.735625 183.15113)scale(0.14 -0.14)">
       <defs>
        <path d="M 2034 2216 
Q 1584 2216 1326 1975 
Q 1069 1734 1069 1313 
Q 1069 891 1326 650 
Q 1584 409 2034 409 
Q 2484 409 2743 651 
Q 3003 894 3003 1313 
Q 3003 1734 2745 1975 
Q 2488 2216 2034 2216 
z
M 1403 2484 
Q 997 2584 770 2862 
Q 544 3141 544 3541 
Q 544 4100 942 4425 
Q 1341 4750 2034 4750 
Q 2731 4750 3128 4425 
Q 3525 4100 3525 3541 
Q 3525 3141 3298 2862 
Q 3072 2584 2669 2484 
Q 3125 2378 3379 2068 
Q 3634 1759 3634 1313 
Q 3634 634 3220 271 
Q 2806 -91 2034 -91 
Q 1263 -91 848 271 
Q 434 634 434 1313 
Q 434 1759 690 2068 
Q 947 2378 1403 2484 
z
M 1172 3481 
Q 1172 3119 1398 2916 
Q 1625 2713 2034 2713 
Q 2441 2713 2670 2916 
Q 2900 3119 2900 3481 
Q 2900 3844 2670 4047 
Q 2441 4250 2034 4250 
Q 1625 4250 1398 4047 
Q 1172 3844 1172 3481 
z
" id="DejaVuSans-38" transform="scale(0.015625)"/>
       </defs>
       <use xlink:href="#DejaVuSans-30"/>
       <use x="63.623047" xlink:href="#DejaVuSans-2e"/>
       <use x="95.410156" xlink:href="#DejaVuSans-38"/>
      </g>
     </g>
    </g>
    <g id="ytick_6">
     <g id="line2d_14">
      <g>
       <use style="stroke:#000000;stroke-width:0.8;" x="72" xlink:href="#m3674a6b79d" y="146.193874"/>
      </g>
     </g>
     <g id="text_15">
      <!-- 1.0 -->
      <g transform="translate(42.735625 151.51278)scale(0.14 -0.14)">
       <use xlink:href="#DejaVuSans-31"/>
       <use x="63.623047" xlink:href="#DejaVuSans-2e"/>
       <use x="95.410156" xlink:href="#DejaVuSans-30"/>
      </g>
     </g>
    </g>
    <g id="ytick_7">
     <g id="line2d_15">
      <g>
       <use style="stroke:#000000;stroke-width:0.8;" x="72" xlink:href="#m3674a6b79d" y="114.555524"/>
      </g>
     </g>
     <g id="text_16">
      <!-- 1.2 -->
      <g transform="translate(42.735625 119.87443)scale(0.14 -0.14)">
       <use xlink:href="#DejaVuSans-31"/>
       <use x="63.623047" xlink:href="#DejaVuSans-2e"/>
       <use x="95.410156" xlink:href="#DejaVuSans-32"/>
      </g>
     </g>
    </g>
    <g id="ytick_8">
     <g id="line2d_16">
      <g>
       <use style="stroke:#000000;stroke-width:0.8;" x="72" xlink:href="#m3674a6b79d" y="82.917174"/>
      </g>
     </g>
     <g id="text_17">
      <!-- 1.4 -->
      <g transform="translate(42.735625 88.23608)scale(0.14 -0.14)">
       <use xlink:href="#DejaVuSans-31"/>
       <use x="63.623047" xlink:href="#DejaVuSans-2e"/>
       <use x="95.410156" xlink:href="#DejaVuSans-34"/>
      </g>
     </g>
    </g>
    <g id="ytick_9">
     <g id="line2d_17">
      <g>
       <use style="stroke:#000000;stroke-width:0.8;" x="72" xlink:href="#m3674a6b79d" y="51.278824"/>
      </g>
     </g>
     <g id="text_18">
      <!-- 1.6 -->
      <g transform="translate(42.735625 56.59773)scale(0.14 -0.14)">
       <use xlink:href="#DejaVuSans-31"/>
       <use x="63.623047" xlink:href="#DejaVuSans-2e"/>
       <use x="95.410156" xlink:href="#DejaVuSans-36"/>
      </g>
     </g>
    </g>
    <g id="text_19">
     <!-- Speed [mm/s] -->
     <g transform="translate(35.408125 238.11375)rotate(-90)scale(0.16 -0.16)">
      <defs>
       <path d="M 1159 525 
L 1159 -1331 
L 581 -1331 
L 581 3500 
L 1159 3500 
L 1159 2969 
Q 1341 3281 1617 3432 
Q 1894 3584 2278 3584 
Q 2916 3584 3314 3078 
Q 3713 2572 3713 1747 
Q 3713 922 3314 415 
Q 2916 -91 2278 -91 
Q 1894 -91 1617 61 
Q 1341 213 1159 525 
z
M 3116 1747 
Q 3116 2381 2855 2742 
Q 2594 3103 2138 3103 
Q 1681 3103 1420 2742 
Q 1159 2381 1159 1747 
Q 1159 1113 1420 752 
Q 1681 391 2138 391 
Q 2594 391 2855 752 
Q 3116 1113 3116 1747 
z
" id="DejaVuSans-70" transform="scale(0.015625)"/>
       <path d="M 1625 4666 
L 2156 4666 
L 531 -594 
L 0 -594 
L 1625 4666 
z
" id="DejaVuSans-2f" transform="scale(0.015625)"/>
      </defs>
      <use xlink:href="#DejaVuSans-53"/>
      <use x="63.476562" xlink:href="#DejaVuSans-70"/>
      <use x="126.953125" xlink:href="#DejaVuSans-65"/>
      <use x="188.476562" xlink:href="#DejaVuSans-65"/>
      <use x="250" xlink:href="#DejaVuSans-64"/>
      <use x="313.476562" xlink:href="#DejaVuSans-20"/>
      <use x="345.263672" xlink:href="#DejaVuSans-5b"/>
      <use x="384.277344" xlink:href="#DejaVuSans-6d"/>
      <use x="481.689453" xlink:href="#DejaVuSans-6d"/>
      <use x="579.101562" xlink:href="#DejaVuSans-2f"/>
      <use x="612.792969" xlink:href="#DejaVuSans-73"/>
      <use x="664.892578" xlink:href="#DejaVuSans-5d"/>
     </g>
    </g>
   </g>
   <g id="line2d_18">
    <path clip-path="url(#p1901b5ddb2)" d="M 72 212.150791 
L 518.4 212.150791 
" style="fill:none;stroke:#000000;stroke-dasharray:5.55,2.4;stroke-dashoffset:0;stroke-width:1.5;"/>
   </g>
   <g id="line2d_19">
    <path clip-path="url(#p1901b5ddb2)" d="M 72 299.372506 
L 122.176744 299.318624 
L 123.04186 299.589103 
L 123.906977 298.605053 
L 124.772093 296.77293 
L 125.637209 297.355738 
L 126.502326 300.168029 
L 127.367442 300.742203 
L 128.232558 301.73282 
L 129.097674 301.823759 
L 129.962791 301.056498 
L 130.827907 302.457774 
L 131.693023 303.539123 
L 132.55814 307.8 
L 133.423256 304.486147 
L 134.288372 287.850337 
L 135.153488 265.112302 
L 136.018605 235.816369 
L 137.748837 162.498424 
L 139.47907 104.911986 
L 140.344186 78.862966 
L 141.209302 61.335691 
L 142.074419 55.8 
L 142.939535 59.18946 
L 143.804651 66.137914 
L 144.669767 82.665249 
L 146.4 122.993155 
L 148.130233 170.126515 
L 148.995349 184.235234 
L 149.860465 192.075297 
L 150.725581 193.218646 
L 151.590698 188.352807 
L 152.455814 184.821799 
L 153.32093 183.552915 
L 154.186047 189.119359 
L 155.051163 192.828092 
L 155.916279 192.820597 
L 156.781395 196.021398 
L 157.646512 197.640531 
L 158.511628 196.140305 
L 159.376744 197.687713 
L 160.24186 203.378808 
L 161.106977 203.993952 
L 161.972093 201.931786 
L 162.837209 201.985865 
L 163.702326 204.627192 
L 164.567442 205.26513 
L 165.432558 202.777557 
L 166.297674 204.027977 
L 167.162791 204.29479 
L 168.027907 204.406353 
L 168.893023 206.115326 
L 169.75814 207.487459 
L 170.623256 207.764006 
L 171.488372 207.328604 
L 172.353488 207.787052 
L 173.218605 207.488662 
L 174.083721 208.137457 
L 174.948837 208.537619 
L 175.813953 208.325191 
L 176.67907 209.40764 
L 177.544186 209.334525 
L 178.409302 209.416747 
L 179.274419 210.74466 
L 180.139535 210.921149 
L 181.869767 210.201012 
L 182.734884 210.30141 
L 183.6 210.958364 
L 184.465116 211.278702 
L 185.330233 211.210255 
L 186.195349 211.297194 
L 187.060465 211.552201 
L 187.925581 210.209013 
L 188.790698 209.794968 
L 189.655814 210.588668 
L 190.52093 211.136459 
L 191.386047 211.282103 
L 192.251163 211.147524 
L 193.116279 211.282788 
L 193.981395 211.959171 
L 194.846512 212.109595 
L 195.711628 211.334372 
L 196.576744 211.017295 
L 197.44186 210.831172 
L 198.306977 211.541244 
L 199.172093 211.10531 
L 200.037209 211.455986 
L 200.902326 213.446757 
L 201.767442 213.688297 
L 202.632558 213.707133 
L 203.497674 213.039361 
L 204.362791 212.208982 
L 206.093023 213.522516 
L 206.95814 213.151751 
L 207.823256 212.584792 
L 208.688372 212.375865 
L 209.553488 211.665205 
L 210.418605 211.694095 
L 211.283721 212.142204 
L 212.148837 212.445128 
L 213.013953 211.922985 
L 213.87907 212.019214 
L 214.744186 212.666545 
L 215.609302 212.097027 
L 216.474419 211.801336 
L 217.339535 212.511373 
L 218.204651 212.935833 
L 219.069767 211.831577 
L 219.934884 211.450801 
L 220.8 212.041179 
L 221.665116 212.453409 
L 223.395349 212.90049 
L 224.260465 213.371647 
L 225.125581 212.991966 
L 225.990698 213.154288 
L 226.855814 213.769344 
L 227.72093 214.872943 
L 228.586047 215.069796 
L 229.451163 213.71188 
L 230.316279 213.617971 
L 231.181395 213.646569 
L 232.046512 212.797488 
L 232.911628 212.895248 
L 233.776744 214.250307 
L 234.64186 214.53479 
L 237.237209 212.797959 
L 238.102326 212.88725 
L 238.967442 212.569459 
L 240.697674 211.082857 
L 242.427907 212.878919 
L 243.293023 212.138687 
L 245.023256 212.261989 
L 245.888372 212.49933 
L 246.753488 212.092861 
L 248.483721 212.05799 
L 249.348837 212.898759 
L 250.213953 213.40741 
L 251.07907 212.525955 
L 251.944186 212.572263 
L 252.809302 212.478302 
L 253.674419 211.907259 
L 254.539535 212.016589 
L 255.404651 213.531528 
L 256.269767 213.659906 
L 257.134884 211.956011 
L 258 211.960566 
L 258.865116 213.937578 
L 259.730233 214.291406 
L 260.595349 212.508959 
L 261.460465 212.861616 
L 262.325581 213.980195 
L 263.190698 214.102358 
L 264.055814 213.2516 
L 264.92093 212.697673 
L 265.786047 214.139646 
L 266.651163 214.751356 
L 267.516279 214.727102 
L 268.381395 213.975287 
L 269.246512 213.516657 
L 270.111628 213.666976 
L 270.976744 213.358266 
L 271.84186 213.239559 
L 272.706977 213.390571 
L 274.437209 213.313323 
L 275.302326 212.905582 
L 276.167442 213.136209 
L 277.032558 214.206213 
L 277.897674 214.590432 
L 278.762791 213.73123 
L 279.627907 212.619152 
L 280.493023 212.917889 
L 281.35814 213.652995 
L 283.088372 212.293582 
L 283.953488 212.04629 
L 284.818605 212.204149 
L 285.683721 211.482133 
L 286.548837 210.955459 
L 288.27907 213.393459 
L 289.144186 213.432578 
L 290.009302 212.261674 
L 290.874419 212.086021 
L 291.739535 213.528841 
L 292.604651 213.567722 
L 294.334884 213.041097 
L 295.2 212.318391 
L 296.065116 213.223351 
L 297.795349 213.181365 
L 298.660465 214.790658 
L 299.525581 215.457578 
L 300.390698 213.881508 
L 301.255814 212.66505 
L 302.12093 213.36032 
L 302.986047 214.698271 
L 303.851163 214.153635 
L 304.716279 212.413854 
L 306.446512 213.812608 
L 307.311628 211.468792 
L 308.176744 210.596288 
L 309.04186 212.516529 
L 309.906977 213.635574 
L 311.637209 211.118311 
L 312.502326 212.660563 
L 313.367442 214.617926 
L 314.232558 214.751797 
L 315.097674 213.84418 
L 315.962791 213.780043 
L 316.827907 212.867637 
L 317.693023 212.856219 
L 318.55814 212.982111 
L 319.423256 212.784358 
L 320.288372 213.846626 
L 321.153488 213.118404 
L 322.018605 211.780386 
L 323.748837 211.718726 
L 324.613953 211.922535 
L 325.47907 211.903253 
L 326.344186 211.77243 
L 328.074419 215.14697 
L 328.939535 214.299575 
L 329.804651 214.39202 
L 330.669767 215.845812 
L 331.534884 215.576129 
L 332.4 213.952912 
L 334.130233 214.036156 
L 334.995349 213.68774 
L 335.860465 214.819104 
L 336.725581 214.888563 
L 337.590698 214.566146 
L 338.455814 212.915973 
L 339.32093 212.197119 
L 340.186047 212.583383 
L 341.051163 212.143979 
L 341.916279 213.213031 
L 342.781395 213.491853 
L 343.646512 213.539066 
L 344.511628 213.255518 
L 345.376744 212.486775 
L 346.24186 212.449356 
L 347.106977 211.985813 
L 347.972093 211.308367 
L 349.702326 214.069721 
L 350.567442 213.915739 
L 351.432558 214.002726 
L 352.297674 214.300139 
L 353.162791 214.310283 
L 354.027907 212.853822 
L 354.893023 212.295957 
L 355.75814 212.064313 
L 356.623256 212.570045 
L 357.488372 213.980079 
L 358.353488 213.377885 
L 359.218605 212.152679 
L 360.948837 210.946802 
L 361.813953 210.873883 
L 362.67907 212.360372 
L 363.544186 214.366914 
L 365.274419 215.177353 
L 366.139535 215.105296 
L 367.004651 214.076961 
L 367.869767 212.748827 
L 368.734884 212.295328 
L 369.6 212.533938 
L 370.465116 212.990535 
L 371.330233 212.991556 
L 372.195349 213.64008 
L 373.060465 213.980859 
L 373.925581 213.295096 
L 374.790698 212.006009 
L 375.655814 211.261611 
L 376.52093 212.670694 
L 377.386047 212.275631 
L 378.251163 212.878 
L 379.116279 215.215966 
L 379.981395 215.357293 
L 382.576744 212.129658 
L 383.44186 212.737186 
L 384.306977 212.576631 
L 385.172093 212.716621 
L 386.902326 215.344361 
L 387.767442 215.468002 
L 388.632558 213.614711 
L 389.497674 212.590802 
L 390.362791 212.444205 
L 391.227907 211.944408 
L 392.093023 212.175057 
L 392.95814 213.580697 
L 393.823256 214.504382 
L 394.688372 213.618779 
L 395.553488 212.526761 
L 396.418605 211.737389 
L 397.283721 212.323632 
L 398.148837 212.620948 
L 399.013953 211.606738 
L 399.87907 212.815657 
L 400.744186 215.045417 
L 401.609302 215.34075 
L 402.474419 214.271173 
L 403.339535 213.411008 
L 404.204651 213.005407 
L 405.069767 212.942854 
L 405.934884 212.340834 
L 406.8 212.635223 
L 407.665116 213.431124 
L 408.530233 214.040334 
L 409.395349 213.786041 
L 410.260465 212.189678 
L 411.125581 212.143864 
L 411.990698 211.136283 
L 412.855814 211.38862 
L 413.72093 212.752825 
L 414.586047 213.444803 
L 415.451163 214.292077 
L 416.316279 214.599388 
L 417.181395 214.692911 
L 418.911628 212.757435 
L 419.776744 212.226213 
L 420.64186 212.045082 
L 421.506977 212.585558 
L 423.237209 214.918804 
L 424.102326 214.730181 
L 424.967442 212.950483 
L 425.832558 211.990805 
L 426.697674 212.157783 
L 429.293023 213.517623 
L 430.15814 214.547672 
L 431.023256 214.287918 
L 431.888372 212.82383 
L 433.618605 211.290012 
L 434.483721 210.957491 
L 435.348837 211.110026 
L 436.213953 212.133681 
L 437.07907 214.238141 
L 437.944186 215.134769 
L 438.809302 215.101759 
L 439.674419 214.782641 
L 440.539535 213.614257 
L 441.404651 213.367634 
L 442.269767 213.345575 
L 443.134884 213.480658 
L 444 214.458853 
L 444.865116 214.924539 
L 445.730233 213.653511 
L 446.595349 211.5059 
L 448.325581 210.680779 
L 449.190698 210.8887 
L 450.055814 212.386286 
L 450.92093 213.236268 
L 451.786047 214.803762 
L 452.651163 215.295067 
L 453.516279 214.176278 
L 454.381395 214.043931 
L 455.246512 214.050744 
L 456.111628 211.876677 
L 456.976744 210.913046 
L 458.706977 213.834511 
L 459.572093 212.756828 
L 460.437209 212.423991 
L 461.302326 212.780641 
L 462.167442 211.322189 
L 463.032558 211.511598 
L 463.897674 212.118836 
L 464.762791 213.324329 
L 465.627907 215.26547 
L 466.493023 216.698529 
L 467.35814 216.396923 
L 468.223256 214.275876 
L 469.088372 213.171103 
L 469.953488 213.512641 
L 470.818605 212.98061 
L 471.683721 212.579734 
L 472.548837 212.627113 
L 473.413953 213.303172 
L 474.27907 212.635103 
L 475.144186 211.690073 
L 476.009302 212.478253 
L 476.874419 212.464906 
L 477.739535 211.626365 
L 478.604651 211.463045 
L 479.469767 212.723348 
L 480.334884 213.424864 
L 481.2 212.715657 
L 482.065116 213.092795 
L 482.930233 213.946348 
L 483.795349 213.006706 
L 484.660465 211.274623 
L 485.525581 210.926301 
L 486.390698 211.884103 
L 487.255814 212.554433 
L 488.12093 213.715898 
L 488.986047 214.017834 
L 489.851163 212.651237 
L 490.716279 213.180956 
L 491.581395 215.392581 
L 493.311628 215.594239 
L 495.04186 216.696776 
L 496.772093 213.451019 
L 497.637209 213.749548 
L 498.502326 212.712911 
L 499.367442 210.737473 
L 500.232558 209.676967 
L 501.097674 210.700838 
L 501.962791 211.233088 
L 502.827907 210.138348 
L 503.693023 211.278879 
L 504.55814 213.259435 
L 505.423256 213.072273 
L 506.288372 212.345597 
L 507.153488 213.041934 
L 508.018605 213.482856 
L 509.748837 215.233883 
L 510.613953 215.970165 
L 511.47907 216.497985 
L 512.344186 216.717819 
L 513.209302 216.519915 
L 514.074419 215.784285 
L 514.939535 214.38071 
L 515.804651 212.16874 
L 516.669767 208.997691 
L 517.534884 204.706646 
L 518.4 199.124458 
L 518.4 199.124458 
" style="fill:none;stroke:#ff0000;stroke-linecap:square;stroke-width:2;"/>
   </g>
   <g id="patch_3">
    <path d="M 72 320.4 
L 72 43.2 
" style="fill:none;stroke:#000000;stroke-linecap:square;stroke-linejoin:miter;stroke-width:0.8;"/>
   </g>
   <g id="patch_4">
    <path d="M 518.4 320.4 
L 518.4 43.2 
" style="fill:none;stroke:#000000;stroke-linecap:square;stroke-linejoin:miter;stroke-width:0.8;"/>
   </g>
   <g id="patch_5">
    <path d="M 72 320.4 
L 518.4 320.4 
" style="fill:none;stroke:#000000;stroke-linecap:square;stroke-linejoin:miter;stroke-width:0.8;"/>
   </g>
   <g id="patch_6">
    <path d="M 72 43.2 
L 518.4 43.2 
" style="fill:none;stroke:#000000;stroke-linecap:square;stroke-linejoin:miter;stroke-width:0.8;"/>
   </g>
   <g id="text_20">
    <!-- Front Propogation Speed -->
    <g transform="translate(172.245312 37.2)scale(0.2 -0.2)">
     <defs>
      <path d="M 628 4666 
L 3309 4666 
L 3309 4134 
L 1259 4134 
L 1259 2759 
L 3109 2759 
L 3109 2228 
L 1259 2228 
L 1259 0 
L 628 0 
L 628 4666 
z
" id="DejaVuSans-46" transform="scale(0.015625)"/>
      <path d="M 2631 2963 
Q 2534 3019 2420 3045 
Q 2306 3072 2169 3072 
Q 1681 3072 1420 2755 
Q 1159 2438 1159 1844 
L 1159 0 
L 581 0 
L 581 3500 
L 1159 3500 
L 1159 2956 
Q 1341 3275 1631 3429 
Q 1922 3584 2338 3584 
Q 2397 3584 2469 3576 
Q 2541 3569 2628 3553 
L 2631 2963 
z
" id="DejaVuSans-72" transform="scale(0.015625)"/>
      <path d="M 1172 4494 
L 1172 3500 
L 2356 3500 
L 2356 3053 
L 1172 3053 
L 1172 1153 
Q 1172 725 1289 603 
Q 1406 481 1766 481 
L 2356 481 
L 2356 0 
L 1766 0 
Q 1100 0 847 248 
Q 594 497 594 1153 
L 594 3053 
L 172 3053 
L 172 3500 
L 594 3500 
L 594 4494 
L 1172 4494 
z
" id="DejaVuSans-74" transform="scale(0.015625)"/>
      <path d="M 1259 4147 
L 1259 2394 
L 2053 2394 
Q 2494 2394 2734 2622 
Q 2975 2850 2975 3272 
Q 2975 3691 2734 3919 
Q 2494 4147 2053 4147 
L 1259 4147 
z
M 628 4666 
L 2053 4666 
Q 2838 4666 3239 4311 
Q 3641 3956 3641 3272 
Q 3641 2581 3239 2228 
Q 2838 1875 2053 1875 
L 1259 1875 
L 1259 0 
L 628 0 
L 628 4666 
z
" id="DejaVuSans-50" transform="scale(0.015625)"/>
      <path d="M 2906 1791 
Q 2906 2416 2648 2759 
Q 2391 3103 1925 3103 
Q 1463 3103 1205 2759 
Q 947 2416 947 1791 
Q 947 1169 1205 825 
Q 1463 481 1925 481 
Q 2391 481 2648 825 
Q 2906 1169 2906 1791 
z
M 3481 434 
Q 3481 -459 3084 -895 
Q 2688 -1331 1869 -1331 
Q 1566 -1331 1297 -1286 
Q 1028 -1241 775 -1147 
L 775 -588 
Q 1028 -725 1275 -790 
Q 1522 -856 1778 -856 
Q 2344 -856 2625 -561 
Q 2906 -266 2906 331 
L 2906 616 
Q 2728 306 2450 153 
Q 2172 0 1784 0 
Q 1141 0 747 490 
Q 353 981 353 1791 
Q 353 2603 747 3093 
Q 1141 3584 1784 3584 
Q 2172 3584 2450 3431 
Q 2728 3278 2906 2969 
L 2906 3500 
L 3481 3500 
L 3481 434 
z
" id="DejaVuSans-67" transform="scale(0.015625)"/>
      <path d="M 2194 1759 
Q 1497 1759 1228 1600 
Q 959 1441 959 1056 
Q 959 750 1161 570 
Q 1363 391 1709 391 
Q 2188 391 2477 730 
Q 2766 1069 2766 1631 
L 2766 1759 
L 2194 1759 
z
M 3341 1997 
L 3341 0 
L 2766 0 
L 2766 531 
Q 2569 213 2275 61 
Q 1981 -91 1556 -91 
Q 1019 -91 701 211 
Q 384 513 384 1019 
Q 384 1609 779 1909 
Q 1175 2209 1959 2209 
L 2766 2209 
L 2766 2266 
Q 2766 2663 2505 2880 
Q 2244 3097 1772 3097 
Q 1472 3097 1187 3025 
Q 903 2953 641 2809 
L 641 3341 
Q 956 3463 1253 3523 
Q 1550 3584 1831 3584 
Q 2591 3584 2966 3190 
Q 3341 2797 3341 1997 
z
" id="DejaVuSans-61" transform="scale(0.015625)"/>
     </defs>
     <use xlink:href="#DejaVuSans-46"/>
     <use x="50.269531" xlink:href="#DejaVuSans-72"/>
     <use x="89.132812" xlink:href="#DejaVuSans-6f"/>
     <use x="150.314453" xlink:href="#DejaVuSans-6e"/>
     <use x="213.693359" xlink:href="#DejaVuSans-74"/>
     <use x="252.902344" xlink:href="#DejaVuSans-20"/>
     <use x="284.689453" xlink:href="#DejaVuSans-50"/>
     <use x="343.242188" xlink:href="#DejaVuSans-72"/>
     <use x="382.105469" xlink:href="#DejaVuSans-6f"/>
     <use x="443.287109" xlink:href="#DejaVuSans-70"/>
     <use x="506.763672" xlink:href="#DejaVuSans-6f"/>
     <use x="567.945312" xlink:href="#DejaVuSans-67"/>
     <use x="631.421875" xlink:href="#DejaVuSans-61"/>
     <use x="692.701172" xlink:href="#DejaVuSans-74"/>
     <use x="731.910156" xlink:href="#DejaVuSans-69"/>
     <use x="759.693359" xlink:href="#DejaVuSans-6f"/>
     <use x="820.875" xlink:href="#DejaVuSans-6e"/>
     <use x="884.253906" xlink:href="#DejaVuSans-20"/>
     <use x="916.041016" xlink:href="#DejaVuSans-53"/>
     <use x="979.517578" xlink:href="#DejaVuSans-70"/>
     <use x="1042.994141" xlink:href="#DejaVuSans-65"/>
     <use x="1104.517578" xlink:href="#DejaVuSans-65"/>
     <use x="1166.041016" xlink:href="#DejaVuSans-64"/>
    </g>
   </g>
   <g id="legend_1">
    <g id="patch_7">
     <path d="M 325.967812 111.175687 
L 508.6 111.175687 
Q 511.4 111.175687 511.4 108.375687 
L 511.4 53 
Q 511.4 50.2 508.6 50.2 
L 325.967812 50.2 
Q 323.167812 50.2 323.167812 53 
L 323.167812 108.375687 
Q 323.167812 111.175687 325.967812 111.175687 
z
" style="fill:#ffffff;opacity:0.8;stroke:#cccccc;stroke-linejoin:miter;"/>
    </g>
    <g id="line2d_20">
     <path d="M 328.767812 61.537812 
L 356.767812 61.537812 
" style="fill:none;stroke:#ff0000;stroke-linecap:square;stroke-width:2;"/>
    </g>
    <g id="line2d_21"/>
    <g id="text_21">
     <!-- Front speed -->
     <g transform="translate(367.967812 66.437812)scale(0.14 -0.14)">
      <use xlink:href="#DejaVuSans-46"/>
      <use x="50.269531" xlink:href="#DejaVuSans-72"/>
      <use x="89.132812" xlink:href="#DejaVuSans-6f"/>
      <use x="150.314453" xlink:href="#DejaVuSans-6e"/>
      <use x="213.693359" xlink:href="#DejaVuSans-74"/>
      <use x="252.902344" xlink:href="#DejaVuSans-20"/>
      <use x="284.689453" xlink:href="#DejaVuSans-73"/>
      <use x="336.789062" xlink:href="#DejaVuSans-70"/>
      <use x="400.265625" xlink:href="#DejaVuSans-65"/>
      <use x="461.789062" xlink:href="#DejaVuSans-65"/>
      <use x="523.3125" xlink:href="#DejaVuSans-64"/>
     </g>
    </g>
    <g id="line2d_22">
     <path d="M 328.767812 91.381437 
L 356.767812 91.381437 
" style="fill:none;stroke:#000000;stroke-dasharray:5.55,2.4;stroke-dashoffset:0;stroke-width:1.5;"/>
    </g>
    <g id="line2d_23"/>
    <g id="text_22">
     <!-- Steady state -->
     <g transform="translate(367.967812 86.987187)scale(0.14 -0.14)">
      <defs>
       <path d="M 2059 -325 
Q 1816 -950 1584 -1140 
Q 1353 -1331 966 -1331 
L 506 -1331 
L 506 -850 
L 844 -850 
Q 1081 -850 1212 -737 
Q 1344 -625 1503 -206 
L 1606 56 
L 191 3500 
L 800 3500 
L 1894 763 
L 2988 3500 
L 3597 3500 
L 2059 -325 
z
" id="DejaVuSans-79" transform="scale(0.015625)"/>
      </defs>
      <use xlink:href="#DejaVuSans-53"/>
      <use x="63.476562" xlink:href="#DejaVuSans-74"/>
      <use x="102.685547" xlink:href="#DejaVuSans-65"/>
      <use x="164.208984" xlink:href="#DejaVuSans-61"/>
      <use x="225.488281" xlink:href="#DejaVuSans-64"/>
      <use x="288.964844" xlink:href="#DejaVuSans-79"/>
      <use x="348.144531" xlink:href="#DejaVuSans-20"/>
      <use x="379.931641" xlink:href="#DejaVuSans-73"/>
      <use x="432.03125" xlink:href="#DejaVuSans-74"/>
      <use x="471.240234" xlink:href="#DejaVuSans-61"/>
      <use x="532.519531" xlink:href="#DejaVuSans-74"/>
      <use x="571.728516" xlink:href="#DejaVuSans-65"/>
     </g>
     <!-- speed = 0.58 mm/s -->
     <g transform="translate(367.967812 102.664125)scale(0.14 -0.14)">
      <defs>
       <path d="M 678 2906 
L 4684 2906 
L 4684 2381 
L 678 2381 
L 678 2906 
z
M 678 1631 
L 4684 1631 
L 4684 1100 
L 678 1100 
L 678 1631 
z
" id="DejaVuSans-3d" transform="scale(0.015625)"/>
      </defs>
      <use xlink:href="#DejaVuSans-73"/>
      <use x="52.099609" xlink:href="#DejaVuSans-70"/>
      <use x="115.576172" xlink:href="#DejaVuSans-65"/>
      <use x="177.099609" xlink:href="#DejaVuSans-65"/>
      <use x="238.623047" xlink:href="#DejaVuSans-64"/>
      <use x="302.099609" xlink:href="#DejaVuSans-20"/>
      <use x="333.886719" xlink:href="#DejaVuSans-3d"/>
      <use x="417.675781" xlink:href="#DejaVuSans-20"/>
      <use x="449.462891" xlink:href="#DejaVuSans-30"/>
      <use x="513.085938" xlink:href="#DejaVuSans-2e"/>
      <use x="544.873047" xlink:href="#DejaVuSans-35"/>
      <use x="608.496094" xlink:href="#DejaVuSans-38"/>
      <use x="672.119141" xlink:href="#DejaVuSans-20"/>
      <use x="703.90625" xlink:href="#DejaVuSans-6d"/>
      <use x="801.318359" xlink:href="#DejaVuSans-6d"/>
      <use x="898.730469" xlink:href="#DejaVuSans-2f"/>
      <use x="932.421875" xlink:href="#DejaVuSans-73"/>
     </g>
    </g>
   </g>
  </g>
 </g>
 <defs>
  <clipPath id="p1901b5ddb2">
   <rect height="277.2" width="446.4" x="72" y="43.2"/>
  </clipPath>
 </defs>
</svg>
