<?xml version="1.0" encoding="utf-8" standalone="no"?>
<!DOCTYPE svg PUBLIC "-//W3C//DTD SVG 1.1//EN"
  "http://www.w3.org/Graphics/SVG/1.1/DTD/svg11.dtd">
<svg height="360pt" version="1.1" viewBox="0 0 576 360" width="576pt" xmlns="http://www.w3.org/2000/svg" xmlns:xlink="http://www.w3.org/1999/xlink">
 <metadata>
  <rdf:RDF xmlns:cc="http://creativecommons.org/ns#" xmlns:dc="http://purl.org/dc/elements/1.1/" xmlns:rdf="http://www.w3.org/1999/02/22-rdf-syntax-ns#">
   <cc:Work>
    <dc:type rdf:resource="http://purl.org/dc/dcmitype/StillImage"/>
    <dc:date>2022-06-30T14:42:31.075822</dc:date>
    <dc:format>image/svg+xml</dc:format>
    <dc:creator>
     <cc:Agent>
      <dc:title>Matplotlib v3.4.3, https://matplotlib.org/</dc:title>
     </cc:Agent>
    </dc:creator>
   </cc:Work>
  </rdf:RDF>
 </metadata>
 <defs>
  <style type="text/css">*{stroke-linecap:butt;stroke-linejoin:round;}</style>
 </defs>
 <g id="figure_1">
  <g id="patch_1">
   <path d="M 0 360 
L 576 360 
L 576 0 
L 0 0 
z
" style="fill:#ffffff;"/>
  </g>
  <g id="axes_1">
   <g id="patch_2">
    <path d="M 72 320.4 
L 518.4 320.4 
L 518.4 43.2 
L 72 43.2 
z
" style="fill:#ffffff;"/>
   </g>
   <g id="PolyCollection_1">
    <defs>
     <path d="M 72 -118.332132 
L 72 -127.862508 
L 73.555401 -127.862508 
L 75.110801 -127.862508 
L 76.666202 -127.862508 
L 78.221603 -127.862508 
L 79.777003 -127.862508 
L 81.332404 -127.862508 
L 82.887805 -127.862508 
L 84.443206 -127.862508 
L 85.998606 -127.862508 
L 87.554007 -127.862508 
L 89.109408 -127.862508 
L 90.664808 -127.862508 
L 92.220209 -127.862508 
L 93.77561 -127.862508 
L 95.33101 -127.862508 
L 96.886411 -127.862508 
L 98.441812 -127.862508 
L 99.997213 -127.862508 
L 101.552613 -127.862508 
L 103.108014 -127.862508 
L 104.663415 -127.862508 
L 106.218815 -127.862508 
L 107.774216 -127.862508 
L 109.329617 -127.862508 
L 110.885017 -127.862508 
L 112.440418 -127.862508 
L 113.995819 -127.862508 
L 115.55122 -127.862508 
L 117.10662 -127.862508 
L 118.662021 -127.862508 
L 120.217422 -127.862508 
L 121.772822 -127.862508 
L 123.328223 -127.862508 
L 124.883624 -127.862508 
L 126.439024 -127.862508 
L 127.994425 -127.862508 
L 129.549826 -127.862508 
L 131.105226 -127.862508 
L 132.660627 -127.862508 
L 134.216028 -127.862508 
L 135.771429 -127.862508 
L 137.326829 -127.862508 
L 138.88223 -127.862508 
L 140.437631 -127.862508 
L 141.993031 -127.862508 
L 143.548432 -127.862508 
L 145.103833 -127.862508 
L 146.659233 -127.862508 
L 148.214634 -127.862508 
L 149.770035 -127.862508 
L 151.325436 -127.862508 
L 152.880836 -127.862508 
L 154.436237 -127.862508 
L 155.991638 -127.862508 
L 157.547038 -127.862508 
L 159.102439 -127.862508 
L 160.65784 -127.862508 
L 162.21324 -127.862508 
L 163.768641 -127.862508 
L 165.324042 -127.862508 
L 166.879443 -127.862508 
L 168.434843 -127.862508 
L 169.990244 -127.862508 
L 171.545645 -127.862508 
L 173.101045 -127.862508 
L 174.656446 -127.862508 
L 176.211847 -127.862508 
L 177.767247 -127.862508 
L 179.322648 -127.862508 
L 180.878049 -127.862508 
L 182.433449 -127.862508 
L 183.98885 -127.862508 
L 185.544251 -127.862508 
L 187.099652 -127.862508 
L 188.655052 -127.862508 
L 190.210453 -127.862508 
L 191.765854 -127.862508 
L 193.321254 -127.862508 
L 194.876655 -127.862508 
L 196.432056 -127.862508 
L 197.987456 -127.862508 
L 199.542857 -127.862508 
L 201.098258 -127.862508 
L 202.653659 -127.862508 
L 204.209059 -127.862508 
L 205.76446 -127.862508 
L 207.319861 -127.862508 
L 208.875261 -127.862508 
L 210.430662 -127.862508 
L 211.986063 -127.862508 
L 213.541463 -127.862508 
L 215.096864 -127.862508 
L 216.652265 -127.862508 
L 218.207666 -127.862508 
L 219.763066 -127.862508 
L 221.318467 -127.862508 
L 222.873868 -127.862508 
L 224.429268 -127.862508 
L 225.984669 -127.862508 
L 227.54007 -127.862508 
L 229.09547 -127.862508 
L 230.650871 -127.862508 
L 232.206272 -127.862508 
L 233.761672 -127.862508 
L 235.317073 -127.862508 
L 236.872474 -127.862508 
L 238.427875 -127.862508 
L 239.983275 -127.862508 
L 241.538676 -127.862508 
L 243.094077 -127.862508 
L 244.649477 -127.862508 
L 246.204878 -127.862508 
L 247.760279 -127.862508 
L 249.315679 -127.862508 
L 250.87108 -127.862508 
L 252.426481 -127.862508 
L 253.981882 -127.862508 
L 255.537282 -127.862508 
L 257.092683 -127.862508 
L 258.648084 -127.862508 
L 260.203484 -127.862508 
L 261.758885 -127.862508 
L 263.314286 -127.862508 
L 264.869686 -127.862508 
L 266.425087 -127.862508 
L 267.980488 -127.862508 
L 269.535889 -127.862508 
L 271.091289 -127.862508 
L 272.64669 -127.862508 
L 274.202091 -127.862508 
L 275.757491 -127.862508 
L 277.312892 -127.862508 
L 278.868293 -127.862508 
L 280.423693 -127.862508 
L 281.979094 -127.862508 
L 283.534495 -127.862508 
L 285.089895 -127.862508 
L 286.645296 -127.862508 
L 288.200697 -127.862508 
L 289.756098 -127.862508 
L 291.311498 -127.862508 
L 292.866899 -127.862508 
L 294.4223 -127.862508 
L 295.9777 -127.862508 
L 297.533101 -127.862508 
L 299.088502 -127.862508 
L 300.643902 -127.862508 
L 302.199303 -127.862508 
L 303.754704 -127.862508 
L 305.310105 -127.862508 
L 306.865505 -127.862508 
L 308.420906 -127.862508 
L 309.976307 -127.862508 
L 311.531707 -127.862508 
L 313.087108 -127.862508 
L 314.642509 -127.862508 
L 316.197909 -127.862508 
L 317.75331 -127.862508 
L 319.308711 -127.862508 
L 320.864111 -127.862508 
L 322.419512 -127.862508 
L 323.974913 -127.862508 
L 325.530314 -127.862508 
L 327.085714 -127.862508 
L 328.641115 -127.862508 
L 330.196516 -127.862508 
L 331.751916 -127.862508 
L 333.307317 -127.862508 
L 334.862718 -127.862508 
L 336.418118 -127.862508 
L 337.973519 -127.862508 
L 339.52892 -127.862508 
L 341.084321 -127.862508 
L 342.639721 -127.862508 
L 344.195122 -127.862508 
L 345.750523 -127.862508 
L 347.305923 -127.862508 
L 348.861324 -127.862508 
L 350.416725 -127.862508 
L 351.972125 -127.862508 
L 353.527526 -127.862508 
L 355.082927 -127.862508 
L 356.638328 -127.862508 
L 358.193728 -127.862508 
L 359.749129 -127.862508 
L 361.30453 -127.862508 
L 362.85993 -127.862508 
L 364.415331 -127.862508 
L 365.970732 -127.862508 
L 367.526132 -127.862508 
L 369.081533 -127.862508 
L 370.636934 -127.862508 
L 372.192334 -127.862508 
L 373.747735 -127.862508 
L 375.303136 -127.862508 
L 376.858537 -127.862508 
L 378.413937 -127.862508 
L 379.969338 -127.862508 
L 381.524739 -127.862508 
L 383.080139 -127.862508 
L 384.63554 -127.862508 
L 386.190941 -127.862508 
L 387.746341 -127.862508 
L 389.301742 -127.862508 
L 390.857143 -127.862508 
L 392.412544 -127.862508 
L 393.967944 -127.862508 
L 395.523345 -127.862508 
L 397.078746 -127.862508 
L 398.634146 -127.862508 
L 400.189547 -127.862508 
L 401.744948 -127.862508 
L 403.300348 -127.862508 
L 404.855749 -127.862508 
L 406.41115 -127.862508 
L 407.966551 -127.862508 
L 409.521951 -127.862508 
L 411.077352 -127.862508 
L 412.632753 -127.862508 
L 414.188153 -127.862508 
L 415.743554 -127.862508 
L 417.298955 -127.862508 
L 418.854355 -127.862508 
L 420.409756 -127.862508 
L 421.965157 -127.862508 
L 423.520557 -127.862508 
L 425.075958 -127.862508 
L 426.631359 -127.862508 
L 428.18676 -127.862508 
L 429.74216 -127.862508 
L 431.297561 -127.862508 
L 432.852962 -127.862508 
L 434.408362 -127.862508 
L 435.963763 -127.862508 
L 437.519164 -127.862508 
L 439.074564 -127.862508 
L 440.629965 -127.862508 
L 442.185366 -127.862508 
L 443.740767 -127.862508 
L 445.296167 -127.862508 
L 446.851568 -127.862508 
L 448.406969 -127.862508 
L 449.962369 -127.862508 
L 451.51777 -127.862508 
L 453.073171 -127.862508 
L 454.628571 -127.862508 
L 456.183972 -127.862508 
L 457.739373 -127.862508 
L 459.294774 -127.862508 
L 460.850174 -127.862508 
L 462.405575 -127.862508 
L 463.960976 -127.862508 
L 465.516376 -127.862508 
L 467.071777 -127.862508 
L 468.627178 -127.862508 
L 470.182578 -127.862508 
L 471.737979 -127.862508 
L 473.29338 -127.862508 
L 474.84878 -127.862508 
L 476.404181 -127.862508 
L 477.959582 -127.862508 
L 479.514983 -127.862508 
L 481.070383 -127.862508 
L 482.625784 -127.862508 
L 484.181185 -127.862508 
L 485.736585 -127.862508 
L 487.291986 -127.862508 
L 488.847387 -127.862508 
L 490.402787 -127.862508 
L 491.958188 -127.862508 
L 493.513589 -127.862508 
L 495.06899 -127.862508 
L 496.62439 -127.862508 
L 498.179791 -127.862508 
L 499.735192 -127.862508 
L 501.290592 -127.862508 
L 502.845993 -127.862508 
L 504.401394 -127.862508 
L 505.956794 -127.862508 
L 507.512195 -127.862508 
L 509.067596 -127.862508 
L 510.622997 -127.862508 
L 512.178397 -127.862508 
L 513.733798 -127.862508 
L 515.289199 -127.862508 
L 516.844599 -127.862508 
L 518.4 -127.862508 
L 518.4 -118.332132 
L 518.4 -118.332132 
L 516.844599 -118.332132 
L 515.289199 -118.332132 
L 513.733798 -118.332132 
L 512.178397 -118.332132 
L 510.622997 -118.332132 
L 509.067596 -118.332132 
L 507.512195 -118.332132 
L 505.956794 -118.332132 
L 504.401394 -118.332132 
L 502.845993 -118.332132 
L 501.290592 -118.332132 
L 499.735192 -118.332132 
L 498.179791 -118.332132 
L 496.62439 -118.332132 
L 495.06899 -118.332132 
L 493.513589 -118.332132 
L 491.958188 -118.332132 
L 490.402787 -118.332132 
L 488.847387 -118.332132 
L 487.291986 -118.332132 
L 485.736585 -118.332132 
L 484.181185 -118.332132 
L 482.625784 -118.332132 
L 481.070383 -118.332132 
L 479.514983 -118.332132 
L 477.959582 -118.332132 
L 476.404181 -118.332132 
L 474.84878 -118.332132 
L 473.29338 -118.332132 
L 471.737979 -118.332132 
L 470.182578 -118.332132 
L 468.627178 -118.332132 
L 467.071777 -118.332132 
L 465.516376 -118.332132 
L 463.960976 -118.332132 
L 462.405575 -118.332132 
L 460.850174 -118.332132 
L 459.294774 -118.332132 
L 457.739373 -118.332132 
L 456.183972 -118.332132 
L 454.628571 -118.332132 
L 453.073171 -118.332132 
L 451.51777 -118.332132 
L 449.962369 -118.332132 
L 448.406969 -118.332132 
L 446.851568 -118.332132 
L 445.296167 -118.332132 
L 443.740767 -118.332132 
L 442.185366 -118.332132 
L 440.629965 -118.332132 
L 439.074564 -118.332132 
L 437.519164 -118.332132 
L 435.963763 -118.332132 
L 434.408362 -118.332132 
L 432.852962 -118.332132 
L 431.297561 -118.332132 
L 429.74216 -118.332132 
L 428.18676 -118.332132 
L 426.631359 -118.332132 
L 425.075958 -118.332132 
L 423.520557 -118.332132 
L 421.965157 -118.332132 
L 420.409756 -118.332132 
L 418.854355 -118.332132 
L 417.298955 -118.332132 
L 415.743554 -118.332132 
L 414.188153 -118.332132 
L 412.632753 -118.332132 
L 411.077352 -118.332132 
L 409.521951 -118.332132 
L 407.966551 -118.332132 
L 406.41115 -118.332132 
L 404.855749 -118.332132 
L 403.300348 -118.332132 
L 401.744948 -118.332132 
L 400.189547 -118.332132 
L 398.634146 -118.332132 
L 397.078746 -118.332132 
L 395.523345 -118.332132 
L 393.967944 -118.332132 
L 392.412544 -118.332132 
L 390.857143 -118.332132 
L 389.301742 -118.332132 
L 387.746341 -118.332132 
L 386.190941 -118.332132 
L 384.63554 -118.332132 
L 383.080139 -118.332132 
L 381.524739 -118.332132 
L 379.969338 -118.332132 
L 378.413937 -118.332132 
L 376.858537 -118.332132 
L 375.303136 -118.332132 
L 373.747735 -118.332132 
L 372.192334 -118.332132 
L 370.636934 -118.332132 
L 369.081533 -118.332132 
L 367.526132 -118.332132 
L 365.970732 -118.332132 
L 364.415331 -118.332132 
L 362.85993 -118.332132 
L 361.30453 -118.332132 
L 359.749129 -118.332132 
L 358.193728 -118.332132 
L 356.638328 -118.332132 
L 355.082927 -118.332132 
L 353.527526 -118.332132 
L 351.972125 -118.332132 
L 350.416725 -118.332132 
L 348.861324 -118.332132 
L 347.305923 -118.332132 
L 345.750523 -118.332132 
L 344.195122 -118.332132 
L 342.639721 -118.332132 
L 341.084321 -118.332132 
L 339.52892 -118.332132 
L 337.973519 -118.332132 
L 336.418118 -118.332132 
L 334.862718 -118.332132 
L 333.307317 -118.332132 
L 331.751916 -118.332132 
L 330.196516 -118.332132 
L 328.641115 -118.332132 
L 327.085714 -118.332132 
L 325.530314 -118.332132 
L 323.974913 -118.332132 
L 322.419512 -118.332132 
L 320.864111 -118.332132 
L 319.308711 -118.332132 
L 317.75331 -118.332132 
L 316.197909 -118.332132 
L 314.642509 -118.332132 
L 313.087108 -118.332132 
L 311.531707 -118.332132 
L 309.976307 -118.332132 
L 308.420906 -118.332132 
L 306.865505 -118.332132 
L 305.310105 -118.332132 
L 303.754704 -118.332132 
L 302.199303 -118.332132 
L 300.643902 -118.332132 
L 299.088502 -118.332132 
L 297.533101 -118.332132 
L 295.9777 -118.332132 
L 294.4223 -118.332132 
L 292.866899 -118.332132 
L 291.311498 -118.332132 
L 289.756098 -118.332132 
L 288.200697 -118.332132 
L 286.645296 -118.332132 
L 285.089895 -118.332132 
L 283.534495 -118.332132 
L 281.979094 -118.332132 
L 280.423693 -118.332132 
L 278.868293 -118.332132 
L 277.312892 -118.332132 
L 275.757491 -118.332132 
L 274.202091 -118.332132 
L 272.64669 -118.332132 
L 271.091289 -118.332132 
L 269.535889 -118.332132 
L 267.980488 -118.332132 
L 266.425087 -118.332132 
L 264.869686 -118.332132 
L 263.314286 -118.332132 
L 261.758885 -118.332132 
L 260.203484 -118.332132 
L 258.648084 -118.332132 
L 257.092683 -118.332132 
L 255.537282 -118.332132 
L 253.981882 -118.332132 
L 252.426481 -118.332132 
L 250.87108 -118.332132 
L 249.315679 -118.332132 
L 247.760279 -118.332132 
L 246.204878 -118.332132 
L 244.649477 -118.332132 
L 243.094077 -118.332132 
L 241.538676 -118.332132 
L 239.983275 -118.332132 
L 238.427875 -118.332132 
L 236.872474 -118.332132 
L 235.317073 -118.332132 
L 233.761672 -118.332132 
L 232.206272 -118.332132 
L 230.650871 -118.332132 
L 229.09547 -118.332132 
L 227.54007 -118.332132 
L 225.984669 -118.332132 
L 224.429268 -118.332132 
L 222.873868 -118.332132 
L 221.318467 -118.332132 
L 219.763066 -118.332132 
L 218.207666 -118.332132 
L 216.652265 -118.332132 
L 215.096864 -118.332132 
L 213.541463 -118.332132 
L 211.986063 -118.332132 
L 210.430662 -118.332132 
L 208.875261 -118.332132 
L 207.319861 -118.332132 
L 205.76446 -118.332132 
L 204.209059 -118.332132 
L 202.653659 -118.332132 
L 201.098258 -118.332132 
L 199.542857 -118.332132 
L 197.987456 -118.332132 
L 196.432056 -118.332132 
L 194.876655 -118.332132 
L 193.321254 -118.332132 
L 191.765854 -118.332132 
L 190.210453 -118.332132 
L 188.655052 -118.332132 
L 187.099652 -118.332132 
L 185.544251 -118.332132 
L 183.98885 -118.332132 
L 182.433449 -118.332132 
L 180.878049 -118.332132 
L 179.322648 -118.332132 
L 177.767247 -118.332132 
L 176.211847 -118.332132 
L 174.656446 -118.332132 
L 173.101045 -118.332132 
L 171.545645 -118.332132 
L 169.990244 -118.332132 
L 168.434843 -118.332132 
L 166.879443 -118.332132 
L 165.324042 -118.332132 
L 163.768641 -118.332132 
L 162.21324 -118.332132 
L 160.65784 -118.332132 
L 159.102439 -118.332132 
L 157.547038 -118.332132 
L 155.991638 -118.332132 
L 154.436237 -118.332132 
L 152.880836 -118.332132 
L 151.325436 -118.332132 
L 149.770035 -118.332132 
L 148.214634 -118.332132 
L 146.659233 -118.332132 
L 145.103833 -118.332132 
L 143.548432 -118.332132 
L 141.993031 -118.332132 
L 140.437631 -118.332132 
L 138.88223 -118.332132 
L 137.326829 -118.332132 
L 135.771429 -118.332132 
L 134.216028 -118.332132 
L 132.660627 -118.332132 
L 131.105226 -118.332132 
L 129.549826 -118.332132 
L 127.994425 -118.332132 
L 126.439024 -118.332132 
L 124.883624 -118.332132 
L 123.328223 -118.332132 
L 121.772822 -118.332132 
L 120.217422 -118.332132 
L 118.662021 -118.332132 
L 117.10662 -118.332132 
L 115.55122 -118.332132 
L 113.995819 -118.332132 
L 112.440418 -118.332132 
L 110.885017 -118.332132 
L 109.329617 -118.332132 
L 107.774216 -118.332132 
L 106.218815 -118.332132 
L 104.663415 -118.332132 
L 103.108014 -118.332132 
L 101.552613 -118.332132 
L 99.997213 -118.332132 
L 98.441812 -118.332132 
L 96.886411 -118.332132 
L 95.33101 -118.332132 
L 93.77561 -118.332132 
L 92.220209 -118.332132 
L 90.664808 -118.332132 
L 89.109408 -118.332132 
L 87.554007 -118.332132 
L 85.998606 -118.332132 
L 84.443206 -118.332132 
L 82.887805 -118.332132 
L 81.332404 -118.332132 
L 79.777003 -118.332132 
L 78.221603 -118.332132 
L 76.666202 -118.332132 
L 75.110801 -118.332132 
L 73.555401 -118.332132 
L 72 -118.332132 
z
" id="m9a57f28692"/>
    </defs>
    <g clip-path="url(#p5550fc614e)">
     <use style="fill-opacity:0.15;" x="0" xlink:href="#m9a57f28692" y="360"/>
    </g>
   </g>
   <g id="matplotlib.axis_1">
    <g id="xtick_1">
     <g id="line2d_1">
      <defs>
       <path d="M 0 0 
L 0 3.5 
" id="m692dab2413" style="stroke:#000000;stroke-width:0.8;"/>
      </defs>
      <g>
       <use style="stroke:#000000;stroke-width:0.8;" x="72" xlink:href="#m692dab2413" y="320.4"/>
      </g>
     </g>
     <g id="text_1">
      <!-- 0.0 -->
      <g transform="translate(60.867812 338.037813)scale(0.14 -0.14)">
       <defs>
        <path d="M 2034 4250 
Q 1547 4250 1301 3770 
Q 1056 3291 1056 2328 
Q 1056 1369 1301 889 
Q 1547 409 2034 409 
Q 2525 409 2770 889 
Q 3016 1369 3016 2328 
Q 3016 3291 2770 3770 
Q 2525 4250 2034 4250 
z
M 2034 4750 
Q 2819 4750 3233 4129 
Q 3647 3509 3647 2328 
Q 3647 1150 3233 529 
Q 2819 -91 2034 -91 
Q 1250 -91 836 529 
Q 422 1150 422 2328 
Q 422 3509 836 4129 
Q 1250 4750 2034 4750 
z
" id="DejaVuSans-30" transform="scale(0.015625)"/>
        <path d="M 684 794 
L 1344 794 
L 1344 0 
L 684 0 
L 684 794 
z
" id="DejaVuSans-2e" transform="scale(0.015625)"/>
       </defs>
       <use xlink:href="#DejaVuSans-30"/>
       <use x="63.623047" xlink:href="#DejaVuSans-2e"/>
       <use x="95.410156" xlink:href="#DejaVuSans-30"/>
      </g>
     </g>
    </g>
    <g id="xtick_2">
     <g id="line2d_2">
      <g>
       <use style="stroke:#000000;stroke-width:0.8;" x="127.967904" xlink:href="#m692dab2413" y="320.4"/>
      </g>
     </g>
     <g id="text_2">
      <!-- 2.5 -->
      <g transform="translate(116.835716 338.037813)scale(0.14 -0.14)">
       <defs>
        <path d="M 1228 531 
L 3431 531 
L 3431 0 
L 469 0 
L 469 531 
Q 828 903 1448 1529 
Q 2069 2156 2228 2338 
Q 2531 2678 2651 2914 
Q 2772 3150 2772 3378 
Q 2772 3750 2511 3984 
Q 2250 4219 1831 4219 
Q 1534 4219 1204 4116 
Q 875 4013 500 3803 
L 500 4441 
Q 881 4594 1212 4672 
Q 1544 4750 1819 4750 
Q 2544 4750 2975 4387 
Q 3406 4025 3406 3419 
Q 3406 3131 3298 2873 
Q 3191 2616 2906 2266 
Q 2828 2175 2409 1742 
Q 1991 1309 1228 531 
z
" id="DejaVuSans-32" transform="scale(0.015625)"/>
        <path d="M 691 4666 
L 3169 4666 
L 3169 4134 
L 1269 4134 
L 1269 2991 
Q 1406 3038 1543 3061 
Q 1681 3084 1819 3084 
Q 2600 3084 3056 2656 
Q 3513 2228 3513 1497 
Q 3513 744 3044 326 
Q 2575 -91 1722 -91 
Q 1428 -91 1123 -41 
Q 819 9 494 109 
L 494 744 
Q 775 591 1075 516 
Q 1375 441 1709 441 
Q 2250 441 2565 725 
Q 2881 1009 2881 1497 
Q 2881 1984 2565 2268 
Q 2250 2553 1709 2553 
Q 1456 2553 1204 2497 
Q 953 2441 691 2322 
L 691 4666 
z
" id="DejaVuSans-35" transform="scale(0.015625)"/>
       </defs>
       <use xlink:href="#DejaVuSans-32"/>
       <use x="63.623047" xlink:href="#DejaVuSans-2e"/>
       <use x="95.410156" xlink:href="#DejaVuSans-35"/>
      </g>
     </g>
    </g>
    <g id="xtick_3">
     <g id="line2d_3">
      <g>
       <use style="stroke:#000000;stroke-width:0.8;" x="183.935807" xlink:href="#m692dab2413" y="320.4"/>
      </g>
     </g>
     <g id="text_3">
      <!-- 5.0 -->
      <g transform="translate(172.80362 338.037813)scale(0.14 -0.14)">
       <use xlink:href="#DejaVuSans-35"/>
       <use x="63.623047" xlink:href="#DejaVuSans-2e"/>
       <use x="95.410156" xlink:href="#DejaVuSans-30"/>
      </g>
     </g>
    </g>
    <g id="xtick_4">
     <g id="line2d_4">
      <g>
       <use style="stroke:#000000;stroke-width:0.8;" x="239.903711" xlink:href="#m692dab2413" y="320.4"/>
      </g>
     </g>
     <g id="text_4">
      <!-- 7.5 -->
      <g transform="translate(228.771524 338.037813)scale(0.14 -0.14)">
       <defs>
        <path d="M 525 4666 
L 3525 4666 
L 3525 4397 
L 1831 0 
L 1172 0 
L 2766 4134 
L 525 4134 
L 525 4666 
z
" id="DejaVuSans-37" transform="scale(0.015625)"/>
       </defs>
       <use xlink:href="#DejaVuSans-37"/>
       <use x="63.623047" xlink:href="#DejaVuSans-2e"/>
       <use x="95.410156" xlink:href="#DejaVuSans-35"/>
      </g>
     </g>
    </g>
    <g id="xtick_5">
     <g id="line2d_5">
      <g>
       <use style="stroke:#000000;stroke-width:0.8;" x="295.871615" xlink:href="#m692dab2413" y="320.4"/>
      </g>
     </g>
     <g id="text_5">
      <!-- 10.0 -->
      <g transform="translate(280.285677 338.037813)scale(0.14 -0.14)">
       <defs>
        <path d="M 794 531 
L 1825 531 
L 1825 4091 
L 703 3866 
L 703 4441 
L 1819 4666 
L 2450 4666 
L 2450 531 
L 3481 531 
L 3481 0 
L 794 0 
L 794 531 
z
" id="DejaVuSans-31" transform="scale(0.015625)"/>
       </defs>
       <use xlink:href="#DejaVuSans-31"/>
       <use x="63.623047" xlink:href="#DejaVuSans-30"/>
       <use x="127.246094" xlink:href="#DejaVuSans-2e"/>
       <use x="159.033203" xlink:href="#DejaVuSans-30"/>
      </g>
     </g>
    </g>
    <g id="xtick_6">
     <g id="line2d_6">
      <g>
       <use style="stroke:#000000;stroke-width:0.8;" x="351.839519" xlink:href="#m692dab2413" y="320.4"/>
      </g>
     </g>
     <g id="text_6">
      <!-- 12.5 -->
      <g transform="translate(336.253581 338.037813)scale(0.14 -0.14)">
       <use xlink:href="#DejaVuSans-31"/>
       <use x="63.623047" xlink:href="#DejaVuSans-32"/>
       <use x="127.246094" xlink:href="#DejaVuSans-2e"/>
       <use x="159.033203" xlink:href="#DejaVuSans-35"/>
      </g>
     </g>
    </g>
    <g id="xtick_7">
     <g id="line2d_7">
      <g>
       <use style="stroke:#000000;stroke-width:0.8;" x="407.807422" xlink:href="#m692dab2413" y="320.4"/>
      </g>
     </g>
     <g id="text_7">
      <!-- 15.0 -->
      <g transform="translate(392.221485 338.037813)scale(0.14 -0.14)">
       <use xlink:href="#DejaVuSans-31"/>
       <use x="63.623047" xlink:href="#DejaVuSans-35"/>
       <use x="127.246094" xlink:href="#DejaVuSans-2e"/>
       <use x="159.033203" xlink:href="#DejaVuSans-30"/>
      </g>
     </g>
    </g>
    <g id="xtick_8">
     <g id="line2d_8">
      <g>
       <use style="stroke:#000000;stroke-width:0.8;" x="463.775326" xlink:href="#m692dab2413" y="320.4"/>
      </g>
     </g>
     <g id="text_8">
      <!-- 17.5 -->
      <g transform="translate(448.189388 338.037813)scale(0.14 -0.14)">
       <use xlink:href="#DejaVuSans-31"/>
       <use x="63.623047" xlink:href="#DejaVuSans-37"/>
       <use x="127.246094" xlink:href="#DejaVuSans-2e"/>
       <use x="159.033203" xlink:href="#DejaVuSans-35"/>
      </g>
     </g>
    </g>
    <g id="text_9">
     <!-- Time [Seconds] -->
     <g transform="translate(233.23 357.106875)scale(0.16 -0.16)">
      <defs>
       <path d="M -19 4666 
L 3928 4666 
L 3928 4134 
L 2272 4134 
L 2272 0 
L 1638 0 
L 1638 4134 
L -19 4134 
L -19 4666 
z
" id="DejaVuSans-54" transform="scale(0.015625)"/>
       <path d="M 603 3500 
L 1178 3500 
L 1178 0 
L 603 0 
L 603 3500 
z
M 603 4863 
L 1178 4863 
L 1178 4134 
L 603 4134 
L 603 4863 
z
" id="DejaVuSans-69" transform="scale(0.015625)"/>
       <path d="M 3328 2828 
Q 3544 3216 3844 3400 
Q 4144 3584 4550 3584 
Q 5097 3584 5394 3201 
Q 5691 2819 5691 2113 
L 5691 0 
L 5113 0 
L 5113 2094 
Q 5113 2597 4934 2840 
Q 4756 3084 4391 3084 
Q 3944 3084 3684 2787 
Q 3425 2491 3425 1978 
L 3425 0 
L 2847 0 
L 2847 2094 
Q 2847 2600 2669 2842 
Q 2491 3084 2119 3084 
Q 1678 3084 1418 2786 
Q 1159 2488 1159 1978 
L 1159 0 
L 581 0 
L 581 3500 
L 1159 3500 
L 1159 2956 
Q 1356 3278 1631 3431 
Q 1906 3584 2284 3584 
Q 2666 3584 2933 3390 
Q 3200 3197 3328 2828 
z
" id="DejaVuSans-6d" transform="scale(0.015625)"/>
       <path d="M 3597 1894 
L 3597 1613 
L 953 1613 
Q 991 1019 1311 708 
Q 1631 397 2203 397 
Q 2534 397 2845 478 
Q 3156 559 3463 722 
L 3463 178 
Q 3153 47 2828 -22 
Q 2503 -91 2169 -91 
Q 1331 -91 842 396 
Q 353 884 353 1716 
Q 353 2575 817 3079 
Q 1281 3584 2069 3584 
Q 2775 3584 3186 3129 
Q 3597 2675 3597 1894 
z
M 3022 2063 
Q 3016 2534 2758 2815 
Q 2500 3097 2075 3097 
Q 1594 3097 1305 2825 
Q 1016 2553 972 2059 
L 3022 2063 
z
" id="DejaVuSans-65" transform="scale(0.015625)"/>
       <path id="DejaVuSans-20" transform="scale(0.015625)"/>
       <path d="M 550 4863 
L 1875 4863 
L 1875 4416 
L 1125 4416 
L 1125 -397 
L 1875 -397 
L 1875 -844 
L 550 -844 
L 550 4863 
z
" id="DejaVuSans-5b" transform="scale(0.015625)"/>
       <path d="M 3425 4513 
L 3425 3897 
Q 3066 4069 2747 4153 
Q 2428 4238 2131 4238 
Q 1616 4238 1336 4038 
Q 1056 3838 1056 3469 
Q 1056 3159 1242 3001 
Q 1428 2844 1947 2747 
L 2328 2669 
Q 3034 2534 3370 2195 
Q 3706 1856 3706 1288 
Q 3706 609 3251 259 
Q 2797 -91 1919 -91 
Q 1588 -91 1214 -16 
Q 841 59 441 206 
L 441 856 
Q 825 641 1194 531 
Q 1563 422 1919 422 
Q 2459 422 2753 634 
Q 3047 847 3047 1241 
Q 3047 1584 2836 1778 
Q 2625 1972 2144 2069 
L 1759 2144 
Q 1053 2284 737 2584 
Q 422 2884 422 3419 
Q 422 4038 858 4394 
Q 1294 4750 2059 4750 
Q 2388 4750 2728 4690 
Q 3069 4631 3425 4513 
z
" id="DejaVuSans-53" transform="scale(0.015625)"/>
       <path d="M 3122 3366 
L 3122 2828 
Q 2878 2963 2633 3030 
Q 2388 3097 2138 3097 
Q 1578 3097 1268 2742 
Q 959 2388 959 1747 
Q 959 1106 1268 751 
Q 1578 397 2138 397 
Q 2388 397 2633 464 
Q 2878 531 3122 666 
L 3122 134 
Q 2881 22 2623 -34 
Q 2366 -91 2075 -91 
Q 1284 -91 818 406 
Q 353 903 353 1747 
Q 353 2603 823 3093 
Q 1294 3584 2113 3584 
Q 2378 3584 2631 3529 
Q 2884 3475 3122 3366 
z
" id="DejaVuSans-63" transform="scale(0.015625)"/>
       <path d="M 1959 3097 
Q 1497 3097 1228 2736 
Q 959 2375 959 1747 
Q 959 1119 1226 758 
Q 1494 397 1959 397 
Q 2419 397 2687 759 
Q 2956 1122 2956 1747 
Q 2956 2369 2687 2733 
Q 2419 3097 1959 3097 
z
M 1959 3584 
Q 2709 3584 3137 3096 
Q 3566 2609 3566 1747 
Q 3566 888 3137 398 
Q 2709 -91 1959 -91 
Q 1206 -91 779 398 
Q 353 888 353 1747 
Q 353 2609 779 3096 
Q 1206 3584 1959 3584 
z
" id="DejaVuSans-6f" transform="scale(0.015625)"/>
       <path d="M 3513 2113 
L 3513 0 
L 2938 0 
L 2938 2094 
Q 2938 2591 2744 2837 
Q 2550 3084 2163 3084 
Q 1697 3084 1428 2787 
Q 1159 2491 1159 1978 
L 1159 0 
L 581 0 
L 581 3500 
L 1159 3500 
L 1159 2956 
Q 1366 3272 1645 3428 
Q 1925 3584 2291 3584 
Q 2894 3584 3203 3211 
Q 3513 2838 3513 2113 
z
" id="DejaVuSans-6e" transform="scale(0.015625)"/>
       <path d="M 2906 2969 
L 2906 4863 
L 3481 4863 
L 3481 0 
L 2906 0 
L 2906 525 
Q 2725 213 2448 61 
Q 2172 -91 1784 -91 
Q 1150 -91 751 415 
Q 353 922 353 1747 
Q 353 2572 751 3078 
Q 1150 3584 1784 3584 
Q 2172 3584 2448 3432 
Q 2725 3281 2906 2969 
z
M 947 1747 
Q 947 1113 1208 752 
Q 1469 391 1925 391 
Q 2381 391 2643 752 
Q 2906 1113 2906 1747 
Q 2906 2381 2643 2742 
Q 2381 3103 1925 3103 
Q 1469 3103 1208 2742 
Q 947 2381 947 1747 
z
" id="DejaVuSans-64" transform="scale(0.015625)"/>
       <path d="M 2834 3397 
L 2834 2853 
Q 2591 2978 2328 3040 
Q 2066 3103 1784 3103 
Q 1356 3103 1142 2972 
Q 928 2841 928 2578 
Q 928 2378 1081 2264 
Q 1234 2150 1697 2047 
L 1894 2003 
Q 2506 1872 2764 1633 
Q 3022 1394 3022 966 
Q 3022 478 2636 193 
Q 2250 -91 1575 -91 
Q 1294 -91 989 -36 
Q 684 19 347 128 
L 347 722 
Q 666 556 975 473 
Q 1284 391 1588 391 
Q 1994 391 2212 530 
Q 2431 669 2431 922 
Q 2431 1156 2273 1281 
Q 2116 1406 1581 1522 
L 1381 1569 
Q 847 1681 609 1914 
Q 372 2147 372 2553 
Q 372 3047 722 3315 
Q 1072 3584 1716 3584 
Q 2034 3584 2315 3537 
Q 2597 3491 2834 3397 
z
" id="DejaVuSans-73" transform="scale(0.015625)"/>
       <path d="M 1947 4863 
L 1947 -844 
L 622 -844 
L 622 -397 
L 1369 -397 
L 1369 4416 
L 622 4416 
L 622 4863 
L 1947 4863 
z
" id="DejaVuSans-5d" transform="scale(0.015625)"/>
      </defs>
      <use xlink:href="#DejaVuSans-54"/>
      <use x="57.958984" xlink:href="#DejaVuSans-69"/>
      <use x="85.742188" xlink:href="#DejaVuSans-6d"/>
      <use x="183.154297" xlink:href="#DejaVuSans-65"/>
      <use x="244.677734" xlink:href="#DejaVuSans-20"/>
      <use x="276.464844" xlink:href="#DejaVuSans-5b"/>
      <use x="315.478516" xlink:href="#DejaVuSans-53"/>
      <use x="378.955078" xlink:href="#DejaVuSans-65"/>
      <use x="440.478516" xlink:href="#DejaVuSans-63"/>
      <use x="495.458984" xlink:href="#DejaVuSans-6f"/>
      <use x="556.640625" xlink:href="#DejaVuSans-6e"/>
      <use x="620.019531" xlink:href="#DejaVuSans-64"/>
      <use x="683.496094" xlink:href="#DejaVuSans-73"/>
      <use x="735.595703" xlink:href="#DejaVuSans-5d"/>
     </g>
    </g>
   </g>
   <g id="matplotlib.axis_2">
    <g id="ytick_1">
     <g id="line2d_9">
      <defs>
       <path d="M 0 0 
L -3.5 0 
" id="m602d5f6e6b" style="stroke:#000000;stroke-width:0.8;"/>
      </defs>
      <g>
       <use style="stroke:#000000;stroke-width:0.8;" x="72" xlink:href="#m602d5f6e6b" y="303.888836"/>
      </g>
     </g>
     <g id="text_10">
      <!-- 0.0 -->
      <g transform="translate(42.735625 309.207742)scale(0.14 -0.14)">
       <use xlink:href="#DejaVuSans-30"/>
       <use x="63.623047" xlink:href="#DejaVuSans-2e"/>
       <use x="95.410156" xlink:href="#DejaVuSans-30"/>
      </g>
     </g>
    </g>
    <g id="ytick_2">
     <g id="line2d_10">
      <g>
       <use style="stroke:#000000;stroke-width:0.8;" x="72" xlink:href="#m602d5f6e6b" y="267.810989"/>
      </g>
     </g>
     <g id="text_11">
      <!-- 0.2 -->
      <g transform="translate(42.735625 273.129896)scale(0.14 -0.14)">
       <use xlink:href="#DejaVuSans-30"/>
       <use x="63.623047" xlink:href="#DejaVuSans-2e"/>
       <use x="95.410156" xlink:href="#DejaVuSans-32"/>
      </g>
     </g>
    </g>
    <g id="ytick_3">
     <g id="line2d_11">
      <g>
       <use style="stroke:#000000;stroke-width:0.8;" x="72" xlink:href="#m602d5f6e6b" y="231.733143"/>
      </g>
     </g>
     <g id="text_12">
      <!-- 0.4 -->
      <g transform="translate(42.735625 237.052049)scale(0.14 -0.14)">
       <defs>
        <path d="M 2419 4116 
L 825 1625 
L 2419 1625 
L 2419 4116 
z
M 2253 4666 
L 3047 4666 
L 3047 1625 
L 3713 1625 
L 3713 1100 
L 3047 1100 
L 3047 0 
L 2419 0 
L 2419 1100 
L 313 1100 
L 313 1709 
L 2253 4666 
z
" id="DejaVuSans-34" transform="scale(0.015625)"/>
       </defs>
       <use xlink:href="#DejaVuSans-30"/>
       <use x="63.623047" xlink:href="#DejaVuSans-2e"/>
       <use x="95.410156" xlink:href="#DejaVuSans-34"/>
      </g>
     </g>
    </g>
    <g id="ytick_4">
     <g id="line2d_12">
      <g>
       <use style="stroke:#000000;stroke-width:0.8;" x="72" xlink:href="#m602d5f6e6b" y="195.655297"/>
      </g>
     </g>
     <g id="text_13">
      <!-- 0.6 -->
      <g transform="translate(42.735625 200.974203)scale(0.14 -0.14)">
       <defs>
        <path d="M 2113 2584 
Q 1688 2584 1439 2293 
Q 1191 2003 1191 1497 
Q 1191 994 1439 701 
Q 1688 409 2113 409 
Q 2538 409 2786 701 
Q 3034 994 3034 1497 
Q 3034 2003 2786 2293 
Q 2538 2584 2113 2584 
z
M 3366 4563 
L 3366 3988 
Q 3128 4100 2886 4159 
Q 2644 4219 2406 4219 
Q 1781 4219 1451 3797 
Q 1122 3375 1075 2522 
Q 1259 2794 1537 2939 
Q 1816 3084 2150 3084 
Q 2853 3084 3261 2657 
Q 3669 2231 3669 1497 
Q 3669 778 3244 343 
Q 2819 -91 2113 -91 
Q 1303 -91 875 529 
Q 447 1150 447 2328 
Q 447 3434 972 4092 
Q 1497 4750 2381 4750 
Q 2619 4750 2861 4703 
Q 3103 4656 3366 4563 
z
" id="DejaVuSans-36" transform="scale(0.015625)"/>
       </defs>
       <use xlink:href="#DejaVuSans-30"/>
       <use x="63.623047" xlink:href="#DejaVuSans-2e"/>
       <use x="95.410156" xlink:href="#DejaVuSans-36"/>
      </g>
     </g>
    </g>
    <g id="ytick_5">
     <g id="line2d_13">
      <g>
       <use style="stroke:#000000;stroke-width:0.8;" x="72" xlink:href="#m602d5f6e6b" y="159.57745"/>
      </g>
     </g>
     <g id="text_14">
      <!-- 0.8 -->
      <g transform="translate(42.735625 164.896357)scale(0.14 -0.14)">
       <defs>
        <path d="M 2034 2216 
Q 1584 2216 1326 1975 
Q 1069 1734 1069 1313 
Q 1069 891 1326 650 
Q 1584 409 2034 409 
Q 2484 409 2743 651 
Q 3003 894 3003 1313 
Q 3003 1734 2745 1975 
Q 2488 2216 2034 2216 
z
M 1403 2484 
Q 997 2584 770 2862 
Q 544 3141 544 3541 
Q 544 4100 942 4425 
Q 1341 4750 2034 4750 
Q 2731 4750 3128 4425 
Q 3525 4100 3525 3541 
Q 3525 3141 3298 2862 
Q 3072 2584 2669 2484 
Q 3125 2378 3379 2068 
Q 3634 1759 3634 1313 
Q 3634 634 3220 271 
Q 2806 -91 2034 -91 
Q 1263 -91 848 271 
Q 434 634 434 1313 
Q 434 1759 690 2068 
Q 947 2378 1403 2484 
z
M 1172 3481 
Q 1172 3119 1398 2916 
Q 1625 2713 2034 2713 
Q 2441 2713 2670 2916 
Q 2900 3119 2900 3481 
Q 2900 3844 2670 4047 
Q 2441 4250 2034 4250 
Q 1625 4250 1398 4047 
Q 1172 3844 1172 3481 
z
" id="DejaVuSans-38" transform="scale(0.015625)"/>
       </defs>
       <use xlink:href="#DejaVuSans-30"/>
       <use x="63.623047" xlink:href="#DejaVuSans-2e"/>
       <use x="95.410156" xlink:href="#DejaVuSans-38"/>
      </g>
     </g>
    </g>
    <g id="ytick_6">
     <g id="line2d_14">
      <g>
       <use style="stroke:#000000;stroke-width:0.8;" x="72" xlink:href="#m602d5f6e6b" y="123.499604"/>
      </g>
     </g>
     <g id="text_15">
      <!-- 1.0 -->
      <g transform="translate(42.735625 128.81851)scale(0.14 -0.14)">
       <use xlink:href="#DejaVuSans-31"/>
       <use x="63.623047" xlink:href="#DejaVuSans-2e"/>
       <use x="95.410156" xlink:href="#DejaVuSans-30"/>
      </g>
     </g>
    </g>
    <g id="ytick_7">
     <g id="line2d_15">
      <g>
       <use style="stroke:#000000;stroke-width:0.8;" x="72" xlink:href="#m602d5f6e6b" y="87.421758"/>
      </g>
     </g>
     <g id="text_16">
      <!-- 1.2 -->
      <g transform="translate(42.735625 92.740664)scale(0.14 -0.14)">
       <use xlink:href="#DejaVuSans-31"/>
       <use x="63.623047" xlink:href="#DejaVuSans-2e"/>
       <use x="95.410156" xlink:href="#DejaVuSans-32"/>
      </g>
     </g>
    </g>
    <g id="ytick_8">
     <g id="line2d_16">
      <g>
       <use style="stroke:#000000;stroke-width:0.8;" x="72" xlink:href="#m602d5f6e6b" y="51.343912"/>
      </g>
     </g>
     <g id="text_17">
      <!-- 1.4 -->
      <g transform="translate(42.735625 56.662818)scale(0.14 -0.14)">
       <use xlink:href="#DejaVuSans-31"/>
       <use x="63.623047" xlink:href="#DejaVuSans-2e"/>
       <use x="95.410156" xlink:href="#DejaVuSans-34"/>
      </g>
     </g>
    </g>
    <g id="text_18">
     <!-- Speed [mm/s] -->
     <g transform="translate(35.408125 238.11375)rotate(-90)scale(0.16 -0.16)">
      <defs>
       <path d="M 1159 525 
L 1159 -1331 
L 581 -1331 
L 581 3500 
L 1159 3500 
L 1159 2969 
Q 1341 3281 1617 3432 
Q 1894 3584 2278 3584 
Q 2916 3584 3314 3078 
Q 3713 2572 3713 1747 
Q 3713 922 3314 415 
Q 2916 -91 2278 -91 
Q 1894 -91 1617 61 
Q 1341 213 1159 525 
z
M 3116 1747 
Q 3116 2381 2855 2742 
Q 2594 3103 2138 3103 
Q 1681 3103 1420 2742 
Q 1159 2381 1159 1747 
Q 1159 1113 1420 752 
Q 1681 391 2138 391 
Q 2594 391 2855 752 
Q 3116 1113 3116 1747 
z
" id="DejaVuSans-70" transform="scale(0.015625)"/>
       <path d="M 1625 4666 
L 2156 4666 
L 531 -594 
L 0 -594 
L 1625 4666 
z
" id="DejaVuSans-2f" transform="scale(0.015625)"/>
      </defs>
      <use xlink:href="#DejaVuSans-53"/>
      <use x="63.476562" xlink:href="#DejaVuSans-70"/>
      <use x="126.953125" xlink:href="#DejaVuSans-65"/>
      <use x="188.476562" xlink:href="#DejaVuSans-65"/>
      <use x="250" xlink:href="#DejaVuSans-64"/>
      <use x="313.476562" xlink:href="#DejaVuSans-20"/>
      <use x="345.263672" xlink:href="#DejaVuSans-5b"/>
      <use x="384.277344" xlink:href="#DejaVuSans-6d"/>
      <use x="481.689453" xlink:href="#DejaVuSans-6d"/>
      <use x="579.101562" xlink:href="#DejaVuSans-2f"/>
      <use x="612.792969" xlink:href="#DejaVuSans-73"/>
      <use x="664.892578" xlink:href="#DejaVuSans-5d"/>
     </g>
    </g>
   </g>
   <g id="line2d_17">
    <path clip-path="url(#p5550fc614e)" d="M 72 236.90268 
L 518.4 236.90268 
" style="fill:none;stroke:#000000;stroke-dasharray:5.55,2.4;stroke-dashoffset:0;stroke-width:1.5;"/>
   </g>
   <g id="line2d_18">
    <path clip-path="url(#p5550fc614e)" d="M 72 299.625435 
L 141.993031 299.533353 
L 143.548432 300.035815 
L 145.103833 298.16358 
L 146.659233 296.825465 
L 148.214634 302.025974 
L 149.770035 307.8 
L 151.325436 303.821345 
L 152.880836 290.701741 
L 154.436237 280.022398 
L 155.991638 260.579499 
L 157.547038 219.093014 
L 160.65784 105.786124 
L 162.21324 66.760784 
L 163.768641 55.8 
L 165.324042 68.493896 
L 166.879443 93.599651 
L 168.434843 134.409899 
L 169.990244 180.036433 
L 171.545645 202.883322 
L 173.101045 202.684335 
L 174.656446 198.367578 
L 176.211847 200.367268 
L 177.767247 207.052573 
L 179.322648 212.830844 
L 180.878049 218.156136 
L 182.433449 221.374027 
L 183.98885 219.912109 
L 185.544251 221.749911 
L 187.099652 219.687555 
L 188.655052 217.91007 
L 190.210453 221.222005 
L 191.765854 222.824853 
L 193.321254 226.38085 
L 194.876655 227.526669 
L 196.432056 227.690727 
L 197.987456 229.143934 
L 199.542857 227.673846 
L 201.098258 228.392741 
L 202.653659 232.66252 
L 204.209059 233.945156 
L 205.76446 231.683833 
L 207.319861 232.051378 
L 208.875261 233.785587 
L 210.430662 233.800284 
L 211.986063 231.803799 
L 213.541463 232.054362 
L 215.096864 232.797227 
L 216.652265 228.800346 
L 218.207666 232.377832 
L 219.763066 237.326992 
L 221.318467 236.687439 
L 222.873868 239.37539 
L 224.429268 240.922654 
L 225.984669 235.998215 
L 227.54007 231.836465 
L 229.09547 230.828171 
L 232.206272 230.983088 
L 233.761672 234.794858 
L 235.317073 239.646864 
L 236.872474 236.594212 
L 238.427875 237.285526 
L 239.983275 238.600368 
L 241.538676 236.96396 
L 243.094077 237.675997 
L 244.649477 237.836395 
L 246.204878 238.172524 
L 247.760279 238.004357 
L 249.315679 237.704023 
L 252.426481 237.447173 
L 255.537282 237.469243 
L 261.758885 238.084916 
L 263.314286 237.823909 
L 264.869686 237.701418 
L 269.535889 238.249938 
L 272.64669 238.369437 
L 275.757491 238.130634 
L 280.423693 237.661934 
L 288.200697 238.383682 
L 291.311498 238.164453 
L 297.533101 238.15269 
L 299.088502 238.338544 
L 302.199303 238.423155 
L 305.310105 238.090919 
L 308.420906 238.450616 
L 309.976307 238.27141 
L 311.531707 238.210035 
L 313.087108 238.269361 
L 314.642509 238.579319 
L 316.197909 238.610257 
L 317.75331 238.287415 
L 319.308711 238.214031 
L 323.974913 238.306394 
L 325.530314 238.242672 
L 327.085714 238.317383 
L 328.641115 238.583969 
L 330.196516 238.676066 
L 333.307317 238.429186 
L 334.862718 238.654135 
L 336.418118 238.668401 
L 337.973519 238.341187 
L 339.52892 238.309859 
L 341.084321 238.486285 
L 342.639721 238.368749 
L 345.750523 238.494985 
L 347.305923 238.278331 
L 348.861324 238.410712 
L 350.416725 238.680889 
L 351.972125 238.611619 
L 353.527526 238.416263 
L 355.082927 238.634616 
L 356.638328 238.67323 
L 358.193728 238.396141 
L 362.85993 238.302274 
L 365.970732 238.697711 
L 367.526132 238.512042 
L 370.636934 238.574652 
L 372.192334 238.457288 
L 378.413937 238.52425 
L 379.969338 238.695952 
L 383.080139 238.307686 
L 395.523345 238.734077 
L 398.634146 238.398867 
L 400.189547 238.497237 
L 403.300348 238.417886 
L 404.855749 238.679199 
L 407.966551 238.786391 
L 409.521951 238.685956 
L 411.077352 238.423877 
L 417.298955 238.570835 
L 418.854355 238.735823 
L 421.965157 238.714219 
L 425.075958 238.414886 
L 426.631359 238.495672 
L 428.18676 238.417693 
L 429.74216 238.499532 
L 431.297561 238.711241 
L 434.408362 238.739786 
L 437.519164 238.397279 
L 439.074564 238.496558 
L 442.185366 238.458938 
L 443.740767 238.656835 
L 445.296167 238.62945 
L 448.406969 238.867645 
L 449.962369 238.64498 
L 453.073171 238.596255 
L 454.628571 238.417054 
L 456.183972 238.500498 
L 457.739373 238.425504 
L 459.294774 238.480835 
L 460.850174 238.703873 
L 463.960976 238.745969 
L 467.071777 238.395546 
L 468.627178 238.489288 
L 471.737979 238.439295 
L 473.29338 238.637993 
L 474.84878 238.617548 
L 477.959582 238.870198 
L 479.514983 238.670873 
L 487.291986 238.411945 
L 493.513589 238.822151 
L 496.62439 238.556491 
L 498.179791 238.808584 
L 499.735192 238.777144 
L 501.290592 238.596202 
L 502.845993 238.608253 
L 504.401394 238.430472 
L 507.512195 238.465244 
L 512.178397 238.52783 
L 515.289199 238.806642 
L 518.4 239.289232 
L 518.4 239.289232 
" style="fill:none;stroke:#ff0000;stroke-linecap:square;stroke-width:2;"/>
   </g>
   <g id="patch_3">
    <path d="M 72 320.4 
L 72 43.2 
" style="fill:none;stroke:#000000;stroke-linecap:square;stroke-linejoin:miter;stroke-width:0.8;"/>
   </g>
   <g id="patch_4">
    <path d="M 518.4 320.4 
L 518.4 43.2 
" style="fill:none;stroke:#000000;stroke-linecap:square;stroke-linejoin:miter;stroke-width:0.8;"/>
   </g>
   <g id="patch_5">
    <path d="M 72 320.4 
L 518.4 320.4 
" style="fill:none;stroke:#000000;stroke-linecap:square;stroke-linejoin:miter;stroke-width:0.8;"/>
   </g>
   <g id="patch_6">
    <path d="M 72 43.2 
L 518.4 43.2 
" style="fill:none;stroke:#000000;stroke-linecap:square;stroke-linejoin:miter;stroke-width:0.8;"/>
   </g>
   <g id="text_19">
    <!-- Front Propogation Speed -->
    <g transform="translate(172.245312 37.2)scale(0.2 -0.2)">
     <defs>
      <path d="M 628 4666 
L 3309 4666 
L 3309 4134 
L 1259 4134 
L 1259 2759 
L 3109 2759 
L 3109 2228 
L 1259 2228 
L 1259 0 
L 628 0 
L 628 4666 
z
" id="DejaVuSans-46" transform="scale(0.015625)"/>
      <path d="M 2631 2963 
Q 2534 3019 2420 3045 
Q 2306 3072 2169 3072 
Q 1681 3072 1420 2755 
Q 1159 2438 1159 1844 
L 1159 0 
L 581 0 
L 581 3500 
L 1159 3500 
L 1159 2956 
Q 1341 3275 1631 3429 
Q 1922 3584 2338 3584 
Q 2397 3584 2469 3576 
Q 2541 3569 2628 3553 
L 2631 2963 
z
" id="DejaVuSans-72" transform="scale(0.015625)"/>
      <path d="M 1172 4494 
L 1172 3500 
L 2356 3500 
L 2356 3053 
L 1172 3053 
L 1172 1153 
Q 1172 725 1289 603 
Q 1406 481 1766 481 
L 2356 481 
L 2356 0 
L 1766 0 
Q 1100 0 847 248 
Q 594 497 594 1153 
L 594 3053 
L 172 3053 
L 172 3500 
L 594 3500 
L 594 4494 
L 1172 4494 
z
" id="DejaVuSans-74" transform="scale(0.015625)"/>
      <path d="M 1259 4147 
L 1259 2394 
L 2053 2394 
Q 2494 2394 2734 2622 
Q 2975 2850 2975 3272 
Q 2975 3691 2734 3919 
Q 2494 4147 2053 4147 
L 1259 4147 
z
M 628 4666 
L 2053 4666 
Q 2838 4666 3239 4311 
Q 3641 3956 3641 3272 
Q 3641 2581 3239 2228 
Q 2838 1875 2053 1875 
L 1259 1875 
L 1259 0 
L 628 0 
L 628 4666 
z
" id="DejaVuSans-50" transform="scale(0.015625)"/>
      <path d="M 2906 1791 
Q 2906 2416 2648 2759 
Q 2391 3103 1925 3103 
Q 1463 3103 1205 2759 
Q 947 2416 947 1791 
Q 947 1169 1205 825 
Q 1463 481 1925 481 
Q 2391 481 2648 825 
Q 2906 1169 2906 1791 
z
M 3481 434 
Q 3481 -459 3084 -895 
Q 2688 -1331 1869 -1331 
Q 1566 -1331 1297 -1286 
Q 1028 -1241 775 -1147 
L 775 -588 
Q 1028 -725 1275 -790 
Q 1522 -856 1778 -856 
Q 2344 -856 2625 -561 
Q 2906 -266 2906 331 
L 2906 616 
Q 2728 306 2450 153 
Q 2172 0 1784 0 
Q 1141 0 747 490 
Q 353 981 353 1791 
Q 353 2603 747 3093 
Q 1141 3584 1784 3584 
Q 2172 3584 2450 3431 
Q 2728 3278 2906 2969 
L 2906 3500 
L 3481 3500 
L 3481 434 
z
" id="DejaVuSans-67" transform="scale(0.015625)"/>
      <path d="M 2194 1759 
Q 1497 1759 1228 1600 
Q 959 1441 959 1056 
Q 959 750 1161 570 
Q 1363 391 1709 391 
Q 2188 391 2477 730 
Q 2766 1069 2766 1631 
L 2766 1759 
L 2194 1759 
z
M 3341 1997 
L 3341 0 
L 2766 0 
L 2766 531 
Q 2569 213 2275 61 
Q 1981 -91 1556 -91 
Q 1019 -91 701 211 
Q 384 513 384 1019 
Q 384 1609 779 1909 
Q 1175 2209 1959 2209 
L 2766 2209 
L 2766 2266 
Q 2766 2663 2505 2880 
Q 2244 3097 1772 3097 
Q 1472 3097 1187 3025 
Q 903 2953 641 2809 
L 641 3341 
Q 956 3463 1253 3523 
Q 1550 3584 1831 3584 
Q 2591 3584 2966 3190 
Q 3341 2797 3341 1997 
z
" id="DejaVuSans-61" transform="scale(0.015625)"/>
     </defs>
     <use xlink:href="#DejaVuSans-46"/>
     <use x="50.269531" xlink:href="#DejaVuSans-72"/>
     <use x="89.132812" xlink:href="#DejaVuSans-6f"/>
     <use x="150.314453" xlink:href="#DejaVuSans-6e"/>
     <use x="213.693359" xlink:href="#DejaVuSans-74"/>
     <use x="252.902344" xlink:href="#DejaVuSans-20"/>
     <use x="284.689453" xlink:href="#DejaVuSans-50"/>
     <use x="343.242188" xlink:href="#DejaVuSans-72"/>
     <use x="382.105469" xlink:href="#DejaVuSans-6f"/>
     <use x="443.287109" xlink:href="#DejaVuSans-70"/>
     <use x="506.763672" xlink:href="#DejaVuSans-6f"/>
     <use x="567.945312" xlink:href="#DejaVuSans-67"/>
     <use x="631.421875" xlink:href="#DejaVuSans-61"/>
     <use x="692.701172" xlink:href="#DejaVuSans-74"/>
     <use x="731.910156" xlink:href="#DejaVuSans-69"/>
     <use x="759.693359" xlink:href="#DejaVuSans-6f"/>
     <use x="820.875" xlink:href="#DejaVuSans-6e"/>
     <use x="884.253906" xlink:href="#DejaVuSans-20"/>
     <use x="916.041016" xlink:href="#DejaVuSans-53"/>
     <use x="979.517578" xlink:href="#DejaVuSans-70"/>
     <use x="1042.994141" xlink:href="#DejaVuSans-65"/>
     <use x="1104.517578" xlink:href="#DejaVuSans-65"/>
     <use x="1166.041016" xlink:href="#DejaVuSans-64"/>
    </g>
   </g>
   <g id="legend_1">
    <g id="patch_7">
     <path d="M 325.967812 111.175687 
L 508.6 111.175687 
Q 511.4 111.175687 511.4 108.375687 
L 511.4 53 
Q 511.4 50.2 508.6 50.2 
L 325.967812 50.2 
Q 323.167812 50.2 323.167812 53 
L 323.167812 108.375687 
Q 323.167812 111.175687 325.967812 111.175687 
z
" style="fill:#ffffff;opacity:0.8;stroke:#cccccc;stroke-linejoin:miter;"/>
    </g>
    <g id="line2d_19">
     <path d="M 328.767812 61.537812 
L 356.767812 61.537812 
" style="fill:none;stroke:#ff0000;stroke-linecap:square;stroke-width:2;"/>
    </g>
    <g id="line2d_20"/>
    <g id="text_20">
     <!-- Front speed -->
     <g transform="translate(367.967812 66.437812)scale(0.14 -0.14)">
      <use xlink:href="#DejaVuSans-46"/>
      <use x="50.269531" xlink:href="#DejaVuSans-72"/>
      <use x="89.132812" xlink:href="#DejaVuSans-6f"/>
      <use x="150.314453" xlink:href="#DejaVuSans-6e"/>
      <use x="213.693359" xlink:href="#DejaVuSans-74"/>
      <use x="252.902344" xlink:href="#DejaVuSans-20"/>
      <use x="284.689453" xlink:href="#DejaVuSans-73"/>
      <use x="336.789062" xlink:href="#DejaVuSans-70"/>
      <use x="400.265625" xlink:href="#DejaVuSans-65"/>
      <use x="461.789062" xlink:href="#DejaVuSans-65"/>
      <use x="523.3125" xlink:href="#DejaVuSans-64"/>
     </g>
    </g>
    <g id="line2d_21">
     <path d="M 328.767812 91.381437 
L 356.767812 91.381437 
" style="fill:none;stroke:#000000;stroke-dasharray:5.55,2.4;stroke-dashoffset:0;stroke-width:1.5;"/>
    </g>
    <g id="line2d_22"/>
    <g id="text_21">
     <!-- Steady state -->
     <g transform="translate(367.967812 86.987187)scale(0.14 -0.14)">
      <defs>
       <path d="M 2059 -325 
Q 1816 -950 1584 -1140 
Q 1353 -1331 966 -1331 
L 506 -1331 
L 506 -850 
L 844 -850 
Q 1081 -850 1212 -737 
Q 1344 -625 1503 -206 
L 1606 56 
L 191 3500 
L 800 3500 
L 1894 763 
L 2988 3500 
L 3597 3500 
L 2059 -325 
z
" id="DejaVuSans-79" transform="scale(0.015625)"/>
      </defs>
      <use xlink:href="#DejaVuSans-53"/>
      <use x="63.476562" xlink:href="#DejaVuSans-74"/>
      <use x="102.685547" xlink:href="#DejaVuSans-65"/>
      <use x="164.208984" xlink:href="#DejaVuSans-61"/>
      <use x="225.488281" xlink:href="#DejaVuSans-64"/>
      <use x="288.964844" xlink:href="#DejaVuSans-79"/>
      <use x="348.144531" xlink:href="#DejaVuSans-20"/>
      <use x="379.931641" xlink:href="#DejaVuSans-73"/>
      <use x="432.03125" xlink:href="#DejaVuSans-74"/>
      <use x="471.240234" xlink:href="#DejaVuSans-61"/>
      <use x="532.519531" xlink:href="#DejaVuSans-74"/>
      <use x="571.728516" xlink:href="#DejaVuSans-65"/>
     </g>
     <!-- speed = 0.37 mm/s -->
     <g transform="translate(367.967812 102.664125)scale(0.14 -0.14)">
      <defs>
       <path d="M 678 2906 
L 4684 2906 
L 4684 2381 
L 678 2381 
L 678 2906 
z
M 678 1631 
L 4684 1631 
L 4684 1100 
L 678 1100 
L 678 1631 
z
" id="DejaVuSans-3d" transform="scale(0.015625)"/>
       <path d="M 2597 2516 
Q 3050 2419 3304 2112 
Q 3559 1806 3559 1356 
Q 3559 666 3084 287 
Q 2609 -91 1734 -91 
Q 1441 -91 1130 -33 
Q 819 25 488 141 
L 488 750 
Q 750 597 1062 519 
Q 1375 441 1716 441 
Q 2309 441 2620 675 
Q 2931 909 2931 1356 
Q 2931 1769 2642 2001 
Q 2353 2234 1838 2234 
L 1294 2234 
L 1294 2753 
L 1863 2753 
Q 2328 2753 2575 2939 
Q 2822 3125 2822 3475 
Q 2822 3834 2567 4026 
Q 2313 4219 1838 4219 
Q 1578 4219 1281 4162 
Q 984 4106 628 3988 
L 628 4550 
Q 988 4650 1302 4700 
Q 1616 4750 1894 4750 
Q 2613 4750 3031 4423 
Q 3450 4097 3450 3541 
Q 3450 3153 3228 2886 
Q 3006 2619 2597 2516 
z
" id="DejaVuSans-33" transform="scale(0.015625)"/>
      </defs>
      <use xlink:href="#DejaVuSans-73"/>
      <use x="52.099609" xlink:href="#DejaVuSans-70"/>
      <use x="115.576172" xlink:href="#DejaVuSans-65"/>
      <use x="177.099609" xlink:href="#DejaVuSans-65"/>
      <use x="238.623047" xlink:href="#DejaVuSans-64"/>
      <use x="302.099609" xlink:href="#DejaVuSans-20"/>
      <use x="333.886719" xlink:href="#DejaVuSans-3d"/>
      <use x="417.675781" xlink:href="#DejaVuSans-20"/>
      <use x="449.462891" xlink:href="#DejaVuSans-30"/>
      <use x="513.085938" xlink:href="#DejaVuSans-2e"/>
      <use x="544.873047" xlink:href="#DejaVuSans-33"/>
      <use x="608.496094" xlink:href="#DejaVuSans-37"/>
      <use x="672.119141" xlink:href="#DejaVuSans-20"/>
      <use x="703.90625" xlink:href="#DejaVuSans-6d"/>
      <use x="801.318359" xlink:href="#DejaVuSans-6d"/>
      <use x="898.730469" xlink:href="#DejaVuSans-2f"/>
      <use x="932.421875" xlink:href="#DejaVuSans-73"/>
     </g>
    </g>
   </g>
  </g>
 </g>
 <defs>
  <clipPath id="p5550fc614e">
   <rect height="277.2" width="446.4" x="72" y="43.2"/>
  </clipPath>
 </defs>
</svg>
