<?xml version="1.0" encoding="utf-8" standalone="no"?>
<!DOCTYPE svg PUBLIC "-//W3C//DTD SVG 1.1//EN"
  "http://www.w3.org/Graphics/SVG/1.1/DTD/svg11.dtd">
<svg height="360pt" version="1.1" viewBox="0 0 576 360" width="576pt" xmlns="http://www.w3.org/2000/svg" xmlns:xlink="http://www.w3.org/1999/xlink">
 <metadata>
  <rdf:RDF xmlns:cc="http://creativecommons.org/ns#" xmlns:dc="http://purl.org/dc/elements/1.1/" xmlns:rdf="http://www.w3.org/1999/02/22-rdf-syntax-ns#">
   <cc:Work>
    <dc:type rdf:resource="http://purl.org/dc/dcmitype/StillImage"/>
    <dc:date>2022-06-30T14:27:14.222915</dc:date>
    <dc:format>image/svg+xml</dc:format>
    <dc:creator>
     <cc:Agent>
      <dc:title>Matplotlib v3.4.3, https://matplotlib.org/</dc:title>
     </cc:Agent>
    </dc:creator>
   </cc:Work>
  </rdf:RDF>
 </metadata>
 <defs>
  <style type="text/css">*{stroke-linecap:butt;stroke-linejoin:round;}</style>
 </defs>
 <g id="figure_1">
  <g id="patch_1">
   <path d="M 0 360 
L 576 360 
L 576 0 
L 0 0 
z
" style="fill:#ffffff;"/>
  </g>
  <g id="axes_1">
   <g id="patch_2">
    <path d="M 72 320.4 
L 518.4 320.4 
L 518.4 43.2 
L 72 43.2 
z
" style="fill:#ffffff;"/>
   </g>
   <g id="PolyCollection_1">
    <defs>
     <path d="M 72 -174.796445 
L 72 -180.371093 
L 72.572308 -180.371093 
L 73.144615 -180.371093 
L 73.716923 -180.371093 
L 74.289231 -180.371093 
L 74.861538 -180.371093 
L 75.433846 -180.371093 
L 76.006154 -180.371093 
L 76.578462 -180.371093 
L 77.150769 -180.371093 
L 77.723077 -180.371093 
L 78.295385 -180.371093 
L 78.867692 -180.371093 
L 79.44 -180.371093 
L 80.012308 -180.371093 
L 80.584615 -180.371093 
L 81.156923 -180.371093 
L 81.729231 -180.371093 
L 82.301538 -180.371093 
L 82.873846 -180.371093 
L 83.446154 -180.371093 
L 84.018462 -180.371093 
L 84.590769 -180.371093 
L 85.163077 -180.371093 
L 85.735385 -180.371093 
L 86.307692 -180.371093 
L 86.88 -180.371093 
L 87.452308 -180.371093 
L 88.024615 -180.371093 
L 88.596923 -180.371093 
L 89.169231 -180.371093 
L 89.741538 -180.371093 
L 90.313846 -180.371093 
L 90.886154 -180.371093 
L 91.458462 -180.371093 
L 92.030769 -180.371093 
L 92.603077 -180.371093 
L 93.175385 -180.371093 
L 93.747692 -180.371093 
L 94.32 -180.371093 
L 94.892308 -180.371093 
L 95.464615 -180.371093 
L 96.036923 -180.371093 
L 96.609231 -180.371093 
L 97.181538 -180.371093 
L 97.753846 -180.371093 
L 98.326154 -180.371093 
L 98.898462 -180.371093 
L 99.470769 -180.371093 
L 100.043077 -180.371093 
L 100.615385 -180.371093 
L 101.187692 -180.371093 
L 101.76 -180.371093 
L 102.332308 -180.371093 
L 102.904615 -180.371093 
L 103.476923 -180.371093 
L 104.049231 -180.371093 
L 104.621538 -180.371093 
L 105.193846 -180.371093 
L 105.766154 -180.371093 
L 106.338462 -180.371093 
L 106.910769 -180.371093 
L 107.483077 -180.371093 
L 108.055385 -180.371093 
L 108.627692 -180.371093 
L 109.2 -180.371093 
L 109.772308 -180.371093 
L 110.344615 -180.371093 
L 110.916923 -180.371093 
L 111.489231 -180.371093 
L 112.061538 -180.371093 
L 112.633846 -180.371093 
L 113.206154 -180.371093 
L 113.778462 -180.371093 
L 114.350769 -180.371093 
L 114.923077 -180.371093 
L 115.495385 -180.371093 
L 116.067692 -180.371093 
L 116.64 -180.371093 
L 117.212308 -180.371093 
L 117.784615 -180.371093 
L 118.356923 -180.371093 
L 118.929231 -180.371093 
L 119.501538 -180.371093 
L 120.073846 -180.371093 
L 120.646154 -180.371093 
L 121.218462 -180.371093 
L 121.790769 -180.371093 
L 122.363077 -180.371093 
L 122.935385 -180.371093 
L 123.507692 -180.371093 
L 124.08 -180.371093 
L 124.652308 -180.371093 
L 125.224615 -180.371093 
L 125.796923 -180.371093 
L 126.369231 -180.371093 
L 126.941538 -180.371093 
L 127.513846 -180.371093 
L 128.086154 -180.371093 
L 128.658462 -180.371093 
L 129.230769 -180.371093 
L 129.803077 -180.371093 
L 130.375385 -180.371093 
L 130.947692 -180.371093 
L 131.52 -180.371093 
L 132.092308 -180.371093 
L 132.664615 -180.371093 
L 133.236923 -180.371093 
L 133.809231 -180.371093 
L 134.381538 -180.371093 
L 134.953846 -180.371093 
L 135.526154 -180.371093 
L 136.098462 -180.371093 
L 136.670769 -180.371093 
L 137.243077 -180.371093 
L 137.815385 -180.371093 
L 138.387692 -180.371093 
L 138.96 -180.371093 
L 139.532308 -180.371093 
L 140.104615 -180.371093 
L 140.676923 -180.371093 
L 141.249231 -180.371093 
L 141.821538 -180.371093 
L 142.393846 -180.371093 
L 142.966154 -180.371093 
L 143.538462 -180.371093 
L 144.110769 -180.371093 
L 144.683077 -180.371093 
L 145.255385 -180.371093 
L 145.827692 -180.371093 
L 146.4 -180.371093 
L 146.972308 -180.371093 
L 147.544615 -180.371093 
L 148.116923 -180.371093 
L 148.689231 -180.371093 
L 149.261538 -180.371093 
L 149.833846 -180.371093 
L 150.406154 -180.371093 
L 150.978462 -180.371093 
L 151.550769 -180.371093 
L 152.123077 -180.371093 
L 152.695385 -180.371093 
L 153.267692 -180.371093 
L 153.84 -180.371093 
L 154.412308 -180.371093 
L 154.984615 -180.371093 
L 155.556923 -180.371093 
L 156.129231 -180.371093 
L 156.701538 -180.371093 
L 157.273846 -180.371093 
L 157.846154 -180.371093 
L 158.418462 -180.371093 
L 158.990769 -180.371093 
L 159.563077 -180.371093 
L 160.135385 -180.371093 
L 160.707692 -180.371093 
L 161.28 -180.371093 
L 161.852308 -180.371093 
L 162.424615 -180.371093 
L 162.996923 -180.371093 
L 163.569231 -180.371093 
L 164.141538 -180.371093 
L 164.713846 -180.371093 
L 165.286154 -180.371093 
L 165.858462 -180.371093 
L 166.430769 -180.371093 
L 167.003077 -180.371093 
L 167.575385 -180.371093 
L 168.147692 -180.371093 
L 168.72 -180.371093 
L 169.292308 -180.371093 
L 169.864615 -180.371093 
L 170.436923 -180.371093 
L 171.009231 -180.371093 
L 171.581538 -180.371093 
L 172.153846 -180.371093 
L 172.726154 -180.371093 
L 173.298462 -180.371093 
L 173.870769 -180.371093 
L 174.443077 -180.371093 
L 175.015385 -180.371093 
L 175.587692 -180.371093 
L 176.16 -180.371093 
L 176.732308 -180.371093 
L 177.304615 -180.371093 
L 177.876923 -180.371093 
L 178.449231 -180.371093 
L 179.021538 -180.371093 
L 179.593846 -180.371093 
L 180.166154 -180.371093 
L 180.738462 -180.371093 
L 181.310769 -180.371093 
L 181.883077 -180.371093 
L 182.455385 -180.371093 
L 183.027692 -180.371093 
L 183.6 -180.371093 
L 184.172308 -180.371093 
L 184.744615 -180.371093 
L 185.316923 -180.371093 
L 185.889231 -180.371093 
L 186.461538 -180.371093 
L 187.033846 -180.371093 
L 187.606154 -180.371093 
L 188.178462 -180.371093 
L 188.750769 -180.371093 
L 189.323077 -180.371093 
L 189.895385 -180.371093 
L 190.467692 -180.371093 
L 191.04 -180.371093 
L 191.612308 -180.371093 
L 192.184615 -180.371093 
L 192.756923 -180.371093 
L 193.329231 -180.371093 
L 193.901538 -180.371093 
L 194.473846 -180.371093 
L 195.046154 -180.371093 
L 195.618462 -180.371093 
L 196.190769 -180.371093 
L 196.763077 -180.371093 
L 197.335385 -180.371093 
L 197.907692 -180.371093 
L 198.48 -180.371093 
L 199.052308 -180.371093 
L 199.624615 -180.371093 
L 200.196923 -180.371093 
L 200.769231 -180.371093 
L 201.341538 -180.371093 
L 201.913846 -180.371093 
L 202.486154 -180.371093 
L 203.058462 -180.371093 
L 203.630769 -180.371093 
L 204.203077 -180.371093 
L 204.775385 -180.371093 
L 205.347692 -180.371093 
L 205.92 -180.371093 
L 206.492308 -180.371093 
L 207.064615 -180.371093 
L 207.636923 -180.371093 
L 208.209231 -180.371093 
L 208.781538 -180.371093 
L 209.353846 -180.371093 
L 209.926154 -180.371093 
L 210.498462 -180.371093 
L 211.070769 -180.371093 
L 211.643077 -180.371093 
L 212.215385 -180.371093 
L 212.787692 -180.371093 
L 213.36 -180.371093 
L 213.932308 -180.371093 
L 214.504615 -180.371093 
L 215.076923 -180.371093 
L 215.649231 -180.371093 
L 216.221538 -180.371093 
L 216.793846 -180.371093 
L 217.366154 -180.371093 
L 217.938462 -180.371093 
L 218.510769 -180.371093 
L 219.083077 -180.371093 
L 219.655385 -180.371093 
L 220.227692 -180.371093 
L 220.8 -180.371093 
L 221.372308 -180.371093 
L 221.944615 -180.371093 
L 222.516923 -180.371093 
L 223.089231 -180.371093 
L 223.661538 -180.371093 
L 224.233846 -180.371093 
L 224.806154 -180.371093 
L 225.378462 -180.371093 
L 225.950769 -180.371093 
L 226.523077 -180.371093 
L 227.095385 -180.371093 
L 227.667692 -180.371093 
L 228.24 -180.371093 
L 228.812308 -180.371093 
L 229.384615 -180.371093 
L 229.956923 -180.371093 
L 230.529231 -180.371093 
L 231.101538 -180.371093 
L 231.673846 -180.371093 
L 232.246154 -180.371093 
L 232.818462 -180.371093 
L 233.390769 -180.371093 
L 233.963077 -180.371093 
L 234.535385 -180.371093 
L 235.107692 -180.371093 
L 235.68 -180.371093 
L 236.252308 -180.371093 
L 236.824615 -180.371093 
L 237.396923 -180.371093 
L 237.969231 -180.371093 
L 238.541538 -180.371093 
L 239.113846 -180.371093 
L 239.686154 -180.371093 
L 240.258462 -180.371093 
L 240.830769 -180.371093 
L 241.403077 -180.371093 
L 241.975385 -180.371093 
L 242.547692 -180.371093 
L 243.12 -180.371093 
L 243.692308 -180.371093 
L 244.264615 -180.371093 
L 244.836923 -180.371093 
L 245.409231 -180.371093 
L 245.981538 -180.371093 
L 246.553846 -180.371093 
L 247.126154 -180.371093 
L 247.698462 -180.371093 
L 248.270769 -180.371093 
L 248.843077 -180.371093 
L 249.415385 -180.371093 
L 249.987692 -180.371093 
L 250.56 -180.371093 
L 251.132308 -180.371093 
L 251.704615 -180.371093 
L 252.276923 -180.371093 
L 252.849231 -180.371093 
L 253.421538 -180.371093 
L 253.993846 -180.371093 
L 254.566154 -180.371093 
L 255.138462 -180.371093 
L 255.710769 -180.371093 
L 256.283077 -180.371093 
L 256.855385 -180.371093 
L 257.427692 -180.371093 
L 258 -180.371093 
L 258.572308 -180.371093 
L 259.144615 -180.371093 
L 259.716923 -180.371093 
L 260.289231 -180.371093 
L 260.861538 -180.371093 
L 261.433846 -180.371093 
L 262.006154 -180.371093 
L 262.578462 -180.371093 
L 263.150769 -180.371093 
L 263.723077 -180.371093 
L 264.295385 -180.371093 
L 264.867692 -180.371093 
L 265.44 -180.371093 
L 266.012308 -180.371093 
L 266.584615 -180.371093 
L 267.156923 -180.371093 
L 267.729231 -180.371093 
L 268.301538 -180.371093 
L 268.873846 -180.371093 
L 269.446154 -180.371093 
L 270.018462 -180.371093 
L 270.590769 -180.371093 
L 271.163077 -180.371093 
L 271.735385 -180.371093 
L 272.307692 -180.371093 
L 272.88 -180.371093 
L 273.452308 -180.371093 
L 274.024615 -180.371093 
L 274.596923 -180.371093 
L 275.169231 -180.371093 
L 275.741538 -180.371093 
L 276.313846 -180.371093 
L 276.886154 -180.371093 
L 277.458462 -180.371093 
L 278.030769 -180.371093 
L 278.603077 -180.371093 
L 279.175385 -180.371093 
L 279.747692 -180.371093 
L 280.32 -180.371093 
L 280.892308 -180.371093 
L 281.464615 -180.371093 
L 282.036923 -180.371093 
L 282.609231 -180.371093 
L 283.181538 -180.371093 
L 283.753846 -180.371093 
L 284.326154 -180.371093 
L 284.898462 -180.371093 
L 285.470769 -180.371093 
L 286.043077 -180.371093 
L 286.615385 -180.371093 
L 287.187692 -180.371093 
L 287.76 -180.371093 
L 288.332308 -180.371093 
L 288.904615 -180.371093 
L 289.476923 -180.371093 
L 290.049231 -180.371093 
L 290.621538 -180.371093 
L 291.193846 -180.371093 
L 291.766154 -180.371093 
L 292.338462 -180.371093 
L 292.910769 -180.371093 
L 293.483077 -180.371093 
L 294.055385 -180.371093 
L 294.627692 -180.371093 
L 295.2 -180.371093 
L 295.772308 -180.371093 
L 296.344615 -180.371093 
L 296.916923 -180.371093 
L 297.489231 -180.371093 
L 298.061538 -180.371093 
L 298.633846 -180.371093 
L 299.206154 -180.371093 
L 299.778462 -180.371093 
L 300.350769 -180.371093 
L 300.923077 -180.371093 
L 301.495385 -180.371093 
L 302.067692 -180.371093 
L 302.64 -180.371093 
L 303.212308 -180.371093 
L 303.784615 -180.371093 
L 304.356923 -180.371093 
L 304.929231 -180.371093 
L 305.501538 -180.371093 
L 306.073846 -180.371093 
L 306.646154 -180.371093 
L 307.218462 -180.371093 
L 307.790769 -180.371093 
L 308.363077 -180.371093 
L 308.935385 -180.371093 
L 309.507692 -180.371093 
L 310.08 -180.371093 
L 310.652308 -180.371093 
L 311.224615 -180.371093 
L 311.796923 -180.371093 
L 312.369231 -180.371093 
L 312.941538 -180.371093 
L 313.513846 -180.371093 
L 314.086154 -180.371093 
L 314.658462 -180.371093 
L 315.230769 -180.371093 
L 315.803077 -180.371093 
L 316.375385 -180.371093 
L 316.947692 -180.371093 
L 317.52 -180.371093 
L 318.092308 -180.371093 
L 318.664615 -180.371093 
L 319.236923 -180.371093 
L 319.809231 -180.371093 
L 320.381538 -180.371093 
L 320.953846 -180.371093 
L 321.526154 -180.371093 
L 322.098462 -180.371093 
L 322.670769 -180.371093 
L 323.243077 -180.371093 
L 323.815385 -180.371093 
L 324.387692 -180.371093 
L 324.96 -180.371093 
L 325.532308 -180.371093 
L 326.104615 -180.371093 
L 326.676923 -180.371093 
L 327.249231 -180.371093 
L 327.821538 -180.371093 
L 328.393846 -180.371093 
L 328.966154 -180.371093 
L 329.538462 -180.371093 
L 330.110769 -180.371093 
L 330.683077 -180.371093 
L 331.255385 -180.371093 
L 331.827692 -180.371093 
L 332.4 -180.371093 
L 332.972308 -180.371093 
L 333.544615 -180.371093 
L 334.116923 -180.371093 
L 334.689231 -180.371093 
L 335.261538 -180.371093 
L 335.833846 -180.371093 
L 336.406154 -180.371093 
L 336.978462 -180.371093 
L 337.550769 -180.371093 
L 338.123077 -180.371093 
L 338.695385 -180.371093 
L 339.267692 -180.371093 
L 339.84 -180.371093 
L 340.412308 -180.371093 
L 340.984615 -180.371093 
L 341.556923 -180.371093 
L 342.129231 -180.371093 
L 342.701538 -180.371093 
L 343.273846 -180.371093 
L 343.846154 -180.371093 
L 344.418462 -180.371093 
L 344.990769 -180.371093 
L 345.563077 -180.371093 
L 346.135385 -180.371093 
L 346.707692 -180.371093 
L 347.28 -180.371093 
L 347.852308 -180.371093 
L 348.424615 -180.371093 
L 348.996923 -180.371093 
L 349.569231 -180.371093 
L 350.141538 -180.371093 
L 350.713846 -180.371093 
L 351.286154 -180.371093 
L 351.858462 -180.371093 
L 352.430769 -180.371093 
L 353.003077 -180.371093 
L 353.575385 -180.371093 
L 354.147692 -180.371093 
L 354.72 -180.371093 
L 355.292308 -180.371093 
L 355.864615 -180.371093 
L 356.436923 -180.371093 
L 357.009231 -180.371093 
L 357.581538 -180.371093 
L 358.153846 -180.371093 
L 358.726154 -180.371093 
L 359.298462 -180.371093 
L 359.870769 -180.371093 
L 360.443077 -180.371093 
L 361.015385 -180.371093 
L 361.587692 -180.371093 
L 362.16 -180.371093 
L 362.732308 -180.371093 
L 363.304615 -180.371093 
L 363.876923 -180.371093 
L 364.449231 -180.371093 
L 365.021538 -180.371093 
L 365.593846 -180.371093 
L 366.166154 -180.371093 
L 366.738462 -180.371093 
L 367.310769 -180.371093 
L 367.883077 -180.371093 
L 368.455385 -180.371093 
L 369.027692 -180.371093 
L 369.6 -180.371093 
L 370.172308 -180.371093 
L 370.744615 -180.371093 
L 371.316923 -180.371093 
L 371.889231 -180.371093 
L 372.461538 -180.371093 
L 373.033846 -180.371093 
L 373.606154 -180.371093 
L 374.178462 -180.371093 
L 374.750769 -180.371093 
L 375.323077 -180.371093 
L 375.895385 -180.371093 
L 376.467692 -180.371093 
L 377.04 -180.371093 
L 377.612308 -180.371093 
L 378.184615 -180.371093 
L 378.756923 -180.371093 
L 379.329231 -180.371093 
L 379.901538 -180.371093 
L 380.473846 -180.371093 
L 381.046154 -180.371093 
L 381.618462 -180.371093 
L 382.190769 -180.371093 
L 382.763077 -180.371093 
L 383.335385 -180.371093 
L 383.907692 -180.371093 
L 384.48 -180.371093 
L 385.052308 -180.371093 
L 385.624615 -180.371093 
L 386.196923 -180.371093 
L 386.769231 -180.371093 
L 387.341538 -180.371093 
L 387.913846 -180.371093 
L 388.486154 -180.371093 
L 389.058462 -180.371093 
L 389.630769 -180.371093 
L 390.203077 -180.371093 
L 390.775385 -180.371093 
L 391.347692 -180.371093 
L 391.92 -180.371093 
L 392.492308 -180.371093 
L 393.064615 -180.371093 
L 393.636923 -180.371093 
L 394.209231 -180.371093 
L 394.781538 -180.371093 
L 395.353846 -180.371093 
L 395.926154 -180.371093 
L 396.498462 -180.371093 
L 397.070769 -180.371093 
L 397.643077 -180.371093 
L 398.215385 -180.371093 
L 398.787692 -180.371093 
L 399.36 -180.371093 
L 399.932308 -180.371093 
L 400.504615 -180.371093 
L 401.076923 -180.371093 
L 401.649231 -180.371093 
L 402.221538 -180.371093 
L 402.793846 -180.371093 
L 403.366154 -180.371093 
L 403.938462 -180.371093 
L 404.510769 -180.371093 
L 405.083077 -180.371093 
L 405.655385 -180.371093 
L 406.227692 -180.371093 
L 406.8 -180.371093 
L 407.372308 -180.371093 
L 407.944615 -180.371093 
L 408.516923 -180.371093 
L 409.089231 -180.371093 
L 409.661538 -180.371093 
L 410.233846 -180.371093 
L 410.806154 -180.371093 
L 411.378462 -180.371093 
L 411.950769 -180.371093 
L 412.523077 -180.371093 
L 413.095385 -180.371093 
L 413.667692 -180.371093 
L 414.24 -180.371093 
L 414.812308 -180.371093 
L 415.384615 -180.371093 
L 415.956923 -180.371093 
L 416.529231 -180.371093 
L 417.101538 -180.371093 
L 417.673846 -180.371093 
L 418.246154 -180.371093 
L 418.818462 -180.371093 
L 419.390769 -180.371093 
L 419.963077 -180.371093 
L 420.535385 -180.371093 
L 421.107692 -180.371093 
L 421.68 -180.371093 
L 422.252308 -180.371093 
L 422.824615 -180.371093 
L 423.396923 -180.371093 
L 423.969231 -180.371093 
L 424.541538 -180.371093 
L 425.113846 -180.371093 
L 425.686154 -180.371093 
L 426.258462 -180.371093 
L 426.830769 -180.371093 
L 427.403077 -180.371093 
L 427.975385 -180.371093 
L 428.547692 -180.371093 
L 429.12 -180.371093 
L 429.692308 -180.371093 
L 430.264615 -180.371093 
L 430.836923 -180.371093 
L 431.409231 -180.371093 
L 431.981538 -180.371093 
L 432.553846 -180.371093 
L 433.126154 -180.371093 
L 433.698462 -180.371093 
L 434.270769 -180.371093 
L 434.843077 -180.371093 
L 435.415385 -180.371093 
L 435.987692 -180.371093 
L 436.56 -180.371093 
L 437.132308 -180.371093 
L 437.704615 -180.371093 
L 438.276923 -180.371093 
L 438.849231 -180.371093 
L 439.421538 -180.371093 
L 439.993846 -180.371093 
L 440.566154 -180.371093 
L 441.138462 -180.371093 
L 441.710769 -180.371093 
L 442.283077 -180.371093 
L 442.855385 -180.371093 
L 443.427692 -180.371093 
L 444 -180.371093 
L 444.572308 -180.371093 
L 445.144615 -180.371093 
L 445.716923 -180.371093 
L 446.289231 -180.371093 
L 446.861538 -180.371093 
L 447.433846 -180.371093 
L 448.006154 -180.371093 
L 448.578462 -180.371093 
L 449.150769 -180.371093 
L 449.723077 -180.371093 
L 450.295385 -180.371093 
L 450.867692 -180.371093 
L 451.44 -180.371093 
L 452.012308 -180.371093 
L 452.584615 -180.371093 
L 453.156923 -180.371093 
L 453.729231 -180.371093 
L 454.301538 -180.371093 
L 454.873846 -180.371093 
L 455.446154 -180.371093 
L 456.018462 -180.371093 
L 456.590769 -180.371093 
L 457.163077 -180.371093 
L 457.735385 -180.371093 
L 458.307692 -180.371093 
L 458.88 -180.371093 
L 459.452308 -180.371093 
L 460.024615 -180.371093 
L 460.596923 -180.371093 
L 461.169231 -180.371093 
L 461.741538 -180.371093 
L 462.313846 -180.371093 
L 462.886154 -180.371093 
L 463.458462 -180.371093 
L 464.030769 -180.371093 
L 464.603077 -180.371093 
L 465.175385 -180.371093 
L 465.747692 -180.371093 
L 466.32 -180.371093 
L 466.892308 -180.371093 
L 467.464615 -180.371093 
L 468.036923 -180.371093 
L 468.609231 -180.371093 
L 469.181538 -180.371093 
L 469.753846 -180.371093 
L 470.326154 -180.371093 
L 470.898462 -180.371093 
L 471.470769 -180.371093 
L 472.043077 -180.371093 
L 472.615385 -180.371093 
L 473.187692 -180.371093 
L 473.76 -180.371093 
L 474.332308 -180.371093 
L 474.904615 -180.371093 
L 475.476923 -180.371093 
L 476.049231 -180.371093 
L 476.621538 -180.371093 
L 477.193846 -180.371093 
L 477.766154 -180.371093 
L 478.338462 -180.371093 
L 478.910769 -180.371093 
L 479.483077 -180.371093 
L 480.055385 -180.371093 
L 480.627692 -180.371093 
L 481.2 -180.371093 
L 481.772308 -180.371093 
L 482.344615 -180.371093 
L 482.916923 -180.371093 
L 483.489231 -180.371093 
L 484.061538 -180.371093 
L 484.633846 -180.371093 
L 485.206154 -180.371093 
L 485.778462 -180.371093 
L 486.350769 -180.371093 
L 486.923077 -180.371093 
L 487.495385 -180.371093 
L 488.067692 -180.371093 
L 488.64 -180.371093 
L 489.212308 -180.371093 
L 489.784615 -180.371093 
L 490.356923 -180.371093 
L 490.929231 -180.371093 
L 491.501538 -180.371093 
L 492.073846 -180.371093 
L 492.646154 -180.371093 
L 493.218462 -180.371093 
L 493.790769 -180.371093 
L 494.363077 -180.371093 
L 494.935385 -180.371093 
L 495.507692 -180.371093 
L 496.08 -180.371093 
L 496.652308 -180.371093 
L 497.224615 -180.371093 
L 497.796923 -180.371093 
L 498.369231 -180.371093 
L 498.941538 -180.371093 
L 499.513846 -180.371093 
L 500.086154 -180.371093 
L 500.658462 -180.371093 
L 501.230769 -180.371093 
L 501.803077 -180.371093 
L 502.375385 -180.371093 
L 502.947692 -180.371093 
L 503.52 -180.371093 
L 504.092308 -180.371093 
L 504.664615 -180.371093 
L 505.236923 -180.371093 
L 505.809231 -180.371093 
L 506.381538 -180.371093 
L 506.953846 -180.371093 
L 507.526154 -180.371093 
L 508.098462 -180.371093 
L 508.670769 -180.371093 
L 509.243077 -180.371093 
L 509.815385 -180.371093 
L 510.387692 -180.371093 
L 510.96 -180.371093 
L 511.532308 -180.371093 
L 512.104615 -180.371093 
L 512.676923 -180.371093 
L 513.249231 -180.371093 
L 513.821538 -180.371093 
L 514.393846 -180.371093 
L 514.966154 -180.371093 
L 515.538462 -180.371093 
L 516.110769 -180.371093 
L 516.683077 -180.371093 
L 517.255385 -180.371093 
L 517.827692 -180.371093 
L 518.4 -180.371093 
L 518.4 -174.796445 
L 518.4 -174.796445 
L 517.827692 -174.796445 
L 517.255385 -174.796445 
L 516.683077 -174.796445 
L 516.110769 -174.796445 
L 515.538462 -174.796445 
L 514.966154 -174.796445 
L 514.393846 -174.796445 
L 513.821538 -174.796445 
L 513.249231 -174.796445 
L 512.676923 -174.796445 
L 512.104615 -174.796445 
L 511.532308 -174.796445 
L 510.96 -174.796445 
L 510.387692 -174.796445 
L 509.815385 -174.796445 
L 509.243077 -174.796445 
L 508.670769 -174.796445 
L 508.098462 -174.796445 
L 507.526154 -174.796445 
L 506.953846 -174.796445 
L 506.381538 -174.796445 
L 505.809231 -174.796445 
L 505.236923 -174.796445 
L 504.664615 -174.796445 
L 504.092308 -174.796445 
L 503.52 -174.796445 
L 502.947692 -174.796445 
L 502.375385 -174.796445 
L 501.803077 -174.796445 
L 501.230769 -174.796445 
L 500.658462 -174.796445 
L 500.086154 -174.796445 
L 499.513846 -174.796445 
L 498.941538 -174.796445 
L 498.369231 -174.796445 
L 497.796923 -174.796445 
L 497.224615 -174.796445 
L 496.652308 -174.796445 
L 496.08 -174.796445 
L 495.507692 -174.796445 
L 494.935385 -174.796445 
L 494.363077 -174.796445 
L 493.790769 -174.796445 
L 493.218462 -174.796445 
L 492.646154 -174.796445 
L 492.073846 -174.796445 
L 491.501538 -174.796445 
L 490.929231 -174.796445 
L 490.356923 -174.796445 
L 489.784615 -174.796445 
L 489.212308 -174.796445 
L 488.64 -174.796445 
L 488.067692 -174.796445 
L 487.495385 -174.796445 
L 486.923077 -174.796445 
L 486.350769 -174.796445 
L 485.778462 -174.796445 
L 485.206154 -174.796445 
L 484.633846 -174.796445 
L 484.061538 -174.796445 
L 483.489231 -174.796445 
L 482.916923 -174.796445 
L 482.344615 -174.796445 
L 481.772308 -174.796445 
L 481.2 -174.796445 
L 480.627692 -174.796445 
L 480.055385 -174.796445 
L 479.483077 -174.796445 
L 478.910769 -174.796445 
L 478.338462 -174.796445 
L 477.766154 -174.796445 
L 477.193846 -174.796445 
L 476.621538 -174.796445 
L 476.049231 -174.796445 
L 475.476923 -174.796445 
L 474.904615 -174.796445 
L 474.332308 -174.796445 
L 473.76 -174.796445 
L 473.187692 -174.796445 
L 472.615385 -174.796445 
L 472.043077 -174.796445 
L 471.470769 -174.796445 
L 470.898462 -174.796445 
L 470.326154 -174.796445 
L 469.753846 -174.796445 
L 469.181538 -174.796445 
L 468.609231 -174.796445 
L 468.036923 -174.796445 
L 467.464615 -174.796445 
L 466.892308 -174.796445 
L 466.32 -174.796445 
L 465.747692 -174.796445 
L 465.175385 -174.796445 
L 464.603077 -174.796445 
L 464.030769 -174.796445 
L 463.458462 -174.796445 
L 462.886154 -174.796445 
L 462.313846 -174.796445 
L 461.741538 -174.796445 
L 461.169231 -174.796445 
L 460.596923 -174.796445 
L 460.024615 -174.796445 
L 459.452308 -174.796445 
L 458.88 -174.796445 
L 458.307692 -174.796445 
L 457.735385 -174.796445 
L 457.163077 -174.796445 
L 456.590769 -174.796445 
L 456.018462 -174.796445 
L 455.446154 -174.796445 
L 454.873846 -174.796445 
L 454.301538 -174.796445 
L 453.729231 -174.796445 
L 453.156923 -174.796445 
L 452.584615 -174.796445 
L 452.012308 -174.796445 
L 451.44 -174.796445 
L 450.867692 -174.796445 
L 450.295385 -174.796445 
L 449.723077 -174.796445 
L 449.150769 -174.796445 
L 448.578462 -174.796445 
L 448.006154 -174.796445 
L 447.433846 -174.796445 
L 446.861538 -174.796445 
L 446.289231 -174.796445 
L 445.716923 -174.796445 
L 445.144615 -174.796445 
L 444.572308 -174.796445 
L 444 -174.796445 
L 443.427692 -174.796445 
L 442.855385 -174.796445 
L 442.283077 -174.796445 
L 441.710769 -174.796445 
L 441.138462 -174.796445 
L 440.566154 -174.796445 
L 439.993846 -174.796445 
L 439.421538 -174.796445 
L 438.849231 -174.796445 
L 438.276923 -174.796445 
L 437.704615 -174.796445 
L 437.132308 -174.796445 
L 436.56 -174.796445 
L 435.987692 -174.796445 
L 435.415385 -174.796445 
L 434.843077 -174.796445 
L 434.270769 -174.796445 
L 433.698462 -174.796445 
L 433.126154 -174.796445 
L 432.553846 -174.796445 
L 431.981538 -174.796445 
L 431.409231 -174.796445 
L 430.836923 -174.796445 
L 430.264615 -174.796445 
L 429.692308 -174.796445 
L 429.12 -174.796445 
L 428.547692 -174.796445 
L 427.975385 -174.796445 
L 427.403077 -174.796445 
L 426.830769 -174.796445 
L 426.258462 -174.796445 
L 425.686154 -174.796445 
L 425.113846 -174.796445 
L 424.541538 -174.796445 
L 423.969231 -174.796445 
L 423.396923 -174.796445 
L 422.824615 -174.796445 
L 422.252308 -174.796445 
L 421.68 -174.796445 
L 421.107692 -174.796445 
L 420.535385 -174.796445 
L 419.963077 -174.796445 
L 419.390769 -174.796445 
L 418.818462 -174.796445 
L 418.246154 -174.796445 
L 417.673846 -174.796445 
L 417.101538 -174.796445 
L 416.529231 -174.796445 
L 415.956923 -174.796445 
L 415.384615 -174.796445 
L 414.812308 -174.796445 
L 414.24 -174.796445 
L 413.667692 -174.796445 
L 413.095385 -174.796445 
L 412.523077 -174.796445 
L 411.950769 -174.796445 
L 411.378462 -174.796445 
L 410.806154 -174.796445 
L 410.233846 -174.796445 
L 409.661538 -174.796445 
L 409.089231 -174.796445 
L 408.516923 -174.796445 
L 407.944615 -174.796445 
L 407.372308 -174.796445 
L 406.8 -174.796445 
L 406.227692 -174.796445 
L 405.655385 -174.796445 
L 405.083077 -174.796445 
L 404.510769 -174.796445 
L 403.938462 -174.796445 
L 403.366154 -174.796445 
L 402.793846 -174.796445 
L 402.221538 -174.796445 
L 401.649231 -174.796445 
L 401.076923 -174.796445 
L 400.504615 -174.796445 
L 399.932308 -174.796445 
L 399.36 -174.796445 
L 398.787692 -174.796445 
L 398.215385 -174.796445 
L 397.643077 -174.796445 
L 397.070769 -174.796445 
L 396.498462 -174.796445 
L 395.926154 -174.796445 
L 395.353846 -174.796445 
L 394.781538 -174.796445 
L 394.209231 -174.796445 
L 393.636923 -174.796445 
L 393.064615 -174.796445 
L 392.492308 -174.796445 
L 391.92 -174.796445 
L 391.347692 -174.796445 
L 390.775385 -174.796445 
L 390.203077 -174.796445 
L 389.630769 -174.796445 
L 389.058462 -174.796445 
L 388.486154 -174.796445 
L 387.913846 -174.796445 
L 387.341538 -174.796445 
L 386.769231 -174.796445 
L 386.196923 -174.796445 
L 385.624615 -174.796445 
L 385.052308 -174.796445 
L 384.48 -174.796445 
L 383.907692 -174.796445 
L 383.335385 -174.796445 
L 382.763077 -174.796445 
L 382.190769 -174.796445 
L 381.618462 -174.796445 
L 381.046154 -174.796445 
L 380.473846 -174.796445 
L 379.901538 -174.796445 
L 379.329231 -174.796445 
L 378.756923 -174.796445 
L 378.184615 -174.796445 
L 377.612308 -174.796445 
L 377.04 -174.796445 
L 376.467692 -174.796445 
L 375.895385 -174.796445 
L 375.323077 -174.796445 
L 374.750769 -174.796445 
L 374.178462 -174.796445 
L 373.606154 -174.796445 
L 373.033846 -174.796445 
L 372.461538 -174.796445 
L 371.889231 -174.796445 
L 371.316923 -174.796445 
L 370.744615 -174.796445 
L 370.172308 -174.796445 
L 369.6 -174.796445 
L 369.027692 -174.796445 
L 368.455385 -174.796445 
L 367.883077 -174.796445 
L 367.310769 -174.796445 
L 366.738462 -174.796445 
L 366.166154 -174.796445 
L 365.593846 -174.796445 
L 365.021538 -174.796445 
L 364.449231 -174.796445 
L 363.876923 -174.796445 
L 363.304615 -174.796445 
L 362.732308 -174.796445 
L 362.16 -174.796445 
L 361.587692 -174.796445 
L 361.015385 -174.796445 
L 360.443077 -174.796445 
L 359.870769 -174.796445 
L 359.298462 -174.796445 
L 358.726154 -174.796445 
L 358.153846 -174.796445 
L 357.581538 -174.796445 
L 357.009231 -174.796445 
L 356.436923 -174.796445 
L 355.864615 -174.796445 
L 355.292308 -174.796445 
L 354.72 -174.796445 
L 354.147692 -174.796445 
L 353.575385 -174.796445 
L 353.003077 -174.796445 
L 352.430769 -174.796445 
L 351.858462 -174.796445 
L 351.286154 -174.796445 
L 350.713846 -174.796445 
L 350.141538 -174.796445 
L 349.569231 -174.796445 
L 348.996923 -174.796445 
L 348.424615 -174.796445 
L 347.852308 -174.796445 
L 347.28 -174.796445 
L 346.707692 -174.796445 
L 346.135385 -174.796445 
L 345.563077 -174.796445 
L 344.990769 -174.796445 
L 344.418462 -174.796445 
L 343.846154 -174.796445 
L 343.273846 -174.796445 
L 342.701538 -174.796445 
L 342.129231 -174.796445 
L 341.556923 -174.796445 
L 340.984615 -174.796445 
L 340.412308 -174.796445 
L 339.84 -174.796445 
L 339.267692 -174.796445 
L 338.695385 -174.796445 
L 338.123077 -174.796445 
L 337.550769 -174.796445 
L 336.978462 -174.796445 
L 336.406154 -174.796445 
L 335.833846 -174.796445 
L 335.261538 -174.796445 
L 334.689231 -174.796445 
L 334.116923 -174.796445 
L 333.544615 -174.796445 
L 332.972308 -174.796445 
L 332.4 -174.796445 
L 331.827692 -174.796445 
L 331.255385 -174.796445 
L 330.683077 -174.796445 
L 330.110769 -174.796445 
L 329.538462 -174.796445 
L 328.966154 -174.796445 
L 328.393846 -174.796445 
L 327.821538 -174.796445 
L 327.249231 -174.796445 
L 326.676923 -174.796445 
L 326.104615 -174.796445 
L 325.532308 -174.796445 
L 324.96 -174.796445 
L 324.387692 -174.796445 
L 323.815385 -174.796445 
L 323.243077 -174.796445 
L 322.670769 -174.796445 
L 322.098462 -174.796445 
L 321.526154 -174.796445 
L 320.953846 -174.796445 
L 320.381538 -174.796445 
L 319.809231 -174.796445 
L 319.236923 -174.796445 
L 318.664615 -174.796445 
L 318.092308 -174.796445 
L 317.52 -174.796445 
L 316.947692 -174.796445 
L 316.375385 -174.796445 
L 315.803077 -174.796445 
L 315.230769 -174.796445 
L 314.658462 -174.796445 
L 314.086154 -174.796445 
L 313.513846 -174.796445 
L 312.941538 -174.796445 
L 312.369231 -174.796445 
L 311.796923 -174.796445 
L 311.224615 -174.796445 
L 310.652308 -174.796445 
L 310.08 -174.796445 
L 309.507692 -174.796445 
L 308.935385 -174.796445 
L 308.363077 -174.796445 
L 307.790769 -174.796445 
L 307.218462 -174.796445 
L 306.646154 -174.796445 
L 306.073846 -174.796445 
L 305.501538 -174.796445 
L 304.929231 -174.796445 
L 304.356923 -174.796445 
L 303.784615 -174.796445 
L 303.212308 -174.796445 
L 302.64 -174.796445 
L 302.067692 -174.796445 
L 301.495385 -174.796445 
L 300.923077 -174.796445 
L 300.350769 -174.796445 
L 299.778462 -174.796445 
L 299.206154 -174.796445 
L 298.633846 -174.796445 
L 298.061538 -174.796445 
L 297.489231 -174.796445 
L 296.916923 -174.796445 
L 296.344615 -174.796445 
L 295.772308 -174.796445 
L 295.2 -174.796445 
L 294.627692 -174.796445 
L 294.055385 -174.796445 
L 293.483077 -174.796445 
L 292.910769 -174.796445 
L 292.338462 -174.796445 
L 291.766154 -174.796445 
L 291.193846 -174.796445 
L 290.621538 -174.796445 
L 290.049231 -174.796445 
L 289.476923 -174.796445 
L 288.904615 -174.796445 
L 288.332308 -174.796445 
L 287.76 -174.796445 
L 287.187692 -174.796445 
L 286.615385 -174.796445 
L 286.043077 -174.796445 
L 285.470769 -174.796445 
L 284.898462 -174.796445 
L 284.326154 -174.796445 
L 283.753846 -174.796445 
L 283.181538 -174.796445 
L 282.609231 -174.796445 
L 282.036923 -174.796445 
L 281.464615 -174.796445 
L 280.892308 -174.796445 
L 280.32 -174.796445 
L 279.747692 -174.796445 
L 279.175385 -174.796445 
L 278.603077 -174.796445 
L 278.030769 -174.796445 
L 277.458462 -174.796445 
L 276.886154 -174.796445 
L 276.313846 -174.796445 
L 275.741538 -174.796445 
L 275.169231 -174.796445 
L 274.596923 -174.796445 
L 274.024615 -174.796445 
L 273.452308 -174.796445 
L 272.88 -174.796445 
L 272.307692 -174.796445 
L 271.735385 -174.796445 
L 271.163077 -174.796445 
L 270.590769 -174.796445 
L 270.018462 -174.796445 
L 269.446154 -174.796445 
L 268.873846 -174.796445 
L 268.301538 -174.796445 
L 267.729231 -174.796445 
L 267.156923 -174.796445 
L 266.584615 -174.796445 
L 266.012308 -174.796445 
L 265.44 -174.796445 
L 264.867692 -174.796445 
L 264.295385 -174.796445 
L 263.723077 -174.796445 
L 263.150769 -174.796445 
L 262.578462 -174.796445 
L 262.006154 -174.796445 
L 261.433846 -174.796445 
L 260.861538 -174.796445 
L 260.289231 -174.796445 
L 259.716923 -174.796445 
L 259.144615 -174.796445 
L 258.572308 -174.796445 
L 258 -174.796445 
L 257.427692 -174.796445 
L 256.855385 -174.796445 
L 256.283077 -174.796445 
L 255.710769 -174.796445 
L 255.138462 -174.796445 
L 254.566154 -174.796445 
L 253.993846 -174.796445 
L 253.421538 -174.796445 
L 252.849231 -174.796445 
L 252.276923 -174.796445 
L 251.704615 -174.796445 
L 251.132308 -174.796445 
L 250.56 -174.796445 
L 249.987692 -174.796445 
L 249.415385 -174.796445 
L 248.843077 -174.796445 
L 248.270769 -174.796445 
L 247.698462 -174.796445 
L 247.126154 -174.796445 
L 246.553846 -174.796445 
L 245.981538 -174.796445 
L 245.409231 -174.796445 
L 244.836923 -174.796445 
L 244.264615 -174.796445 
L 243.692308 -174.796445 
L 243.12 -174.796445 
L 242.547692 -174.796445 
L 241.975385 -174.796445 
L 241.403077 -174.796445 
L 240.830769 -174.796445 
L 240.258462 -174.796445 
L 239.686154 -174.796445 
L 239.113846 -174.796445 
L 238.541538 -174.796445 
L 237.969231 -174.796445 
L 237.396923 -174.796445 
L 236.824615 -174.796445 
L 236.252308 -174.796445 
L 235.68 -174.796445 
L 235.107692 -174.796445 
L 234.535385 -174.796445 
L 233.963077 -174.796445 
L 233.390769 -174.796445 
L 232.818462 -174.796445 
L 232.246154 -174.796445 
L 231.673846 -174.796445 
L 231.101538 -174.796445 
L 230.529231 -174.796445 
L 229.956923 -174.796445 
L 229.384615 -174.796445 
L 228.812308 -174.796445 
L 228.24 -174.796445 
L 227.667692 -174.796445 
L 227.095385 -174.796445 
L 226.523077 -174.796445 
L 225.950769 -174.796445 
L 225.378462 -174.796445 
L 224.806154 -174.796445 
L 224.233846 -174.796445 
L 223.661538 -174.796445 
L 223.089231 -174.796445 
L 222.516923 -174.796445 
L 221.944615 -174.796445 
L 221.372308 -174.796445 
L 220.8 -174.796445 
L 220.227692 -174.796445 
L 219.655385 -174.796445 
L 219.083077 -174.796445 
L 218.510769 -174.796445 
L 217.938462 -174.796445 
L 217.366154 -174.796445 
L 216.793846 -174.796445 
L 216.221538 -174.796445 
L 215.649231 -174.796445 
L 215.076923 -174.796445 
L 214.504615 -174.796445 
L 213.932308 -174.796445 
L 213.36 -174.796445 
L 212.787692 -174.796445 
L 212.215385 -174.796445 
L 211.643077 -174.796445 
L 211.070769 -174.796445 
L 210.498462 -174.796445 
L 209.926154 -174.796445 
L 209.353846 -174.796445 
L 208.781538 -174.796445 
L 208.209231 -174.796445 
L 207.636923 -174.796445 
L 207.064615 -174.796445 
L 206.492308 -174.796445 
L 205.92 -174.796445 
L 205.347692 -174.796445 
L 204.775385 -174.796445 
L 204.203077 -174.796445 
L 203.630769 -174.796445 
L 203.058462 -174.796445 
L 202.486154 -174.796445 
L 201.913846 -174.796445 
L 201.341538 -174.796445 
L 200.769231 -174.796445 
L 200.196923 -174.796445 
L 199.624615 -174.796445 
L 199.052308 -174.796445 
L 198.48 -174.796445 
L 197.907692 -174.796445 
L 197.335385 -174.796445 
L 196.763077 -174.796445 
L 196.190769 -174.796445 
L 195.618462 -174.796445 
L 195.046154 -174.796445 
L 194.473846 -174.796445 
L 193.901538 -174.796445 
L 193.329231 -174.796445 
L 192.756923 -174.796445 
L 192.184615 -174.796445 
L 191.612308 -174.796445 
L 191.04 -174.796445 
L 190.467692 -174.796445 
L 189.895385 -174.796445 
L 189.323077 -174.796445 
L 188.750769 -174.796445 
L 188.178462 -174.796445 
L 187.606154 -174.796445 
L 187.033846 -174.796445 
L 186.461538 -174.796445 
L 185.889231 -174.796445 
L 185.316923 -174.796445 
L 184.744615 -174.796445 
L 184.172308 -174.796445 
L 183.6 -174.796445 
L 183.027692 -174.796445 
L 182.455385 -174.796445 
L 181.883077 -174.796445 
L 181.310769 -174.796445 
L 180.738462 -174.796445 
L 180.166154 -174.796445 
L 179.593846 -174.796445 
L 179.021538 -174.796445 
L 178.449231 -174.796445 
L 177.876923 -174.796445 
L 177.304615 -174.796445 
L 176.732308 -174.796445 
L 176.16 -174.796445 
L 175.587692 -174.796445 
L 175.015385 -174.796445 
L 174.443077 -174.796445 
L 173.870769 -174.796445 
L 173.298462 -174.796445 
L 172.726154 -174.796445 
L 172.153846 -174.796445 
L 171.581538 -174.796445 
L 171.009231 -174.796445 
L 170.436923 -174.796445 
L 169.864615 -174.796445 
L 169.292308 -174.796445 
L 168.72 -174.796445 
L 168.147692 -174.796445 
L 167.575385 -174.796445 
L 167.003077 -174.796445 
L 166.430769 -174.796445 
L 165.858462 -174.796445 
L 165.286154 -174.796445 
L 164.713846 -174.796445 
L 164.141538 -174.796445 
L 163.569231 -174.796445 
L 162.996923 -174.796445 
L 162.424615 -174.796445 
L 161.852308 -174.796445 
L 161.28 -174.796445 
L 160.707692 -174.796445 
L 160.135385 -174.796445 
L 159.563077 -174.796445 
L 158.990769 -174.796445 
L 158.418462 -174.796445 
L 157.846154 -174.796445 
L 157.273846 -174.796445 
L 156.701538 -174.796445 
L 156.129231 -174.796445 
L 155.556923 -174.796445 
L 154.984615 -174.796445 
L 154.412308 -174.796445 
L 153.84 -174.796445 
L 153.267692 -174.796445 
L 152.695385 -174.796445 
L 152.123077 -174.796445 
L 151.550769 -174.796445 
L 150.978462 -174.796445 
L 150.406154 -174.796445 
L 149.833846 -174.796445 
L 149.261538 -174.796445 
L 148.689231 -174.796445 
L 148.116923 -174.796445 
L 147.544615 -174.796445 
L 146.972308 -174.796445 
L 146.4 -174.796445 
L 145.827692 -174.796445 
L 145.255385 -174.796445 
L 144.683077 -174.796445 
L 144.110769 -174.796445 
L 143.538462 -174.796445 
L 142.966154 -174.796445 
L 142.393846 -174.796445 
L 141.821538 -174.796445 
L 141.249231 -174.796445 
L 140.676923 -174.796445 
L 140.104615 -174.796445 
L 139.532308 -174.796445 
L 138.96 -174.796445 
L 138.387692 -174.796445 
L 137.815385 -174.796445 
L 137.243077 -174.796445 
L 136.670769 -174.796445 
L 136.098462 -174.796445 
L 135.526154 -174.796445 
L 134.953846 -174.796445 
L 134.381538 -174.796445 
L 133.809231 -174.796445 
L 133.236923 -174.796445 
L 132.664615 -174.796445 
L 132.092308 -174.796445 
L 131.52 -174.796445 
L 130.947692 -174.796445 
L 130.375385 -174.796445 
L 129.803077 -174.796445 
L 129.230769 -174.796445 
L 128.658462 -174.796445 
L 128.086154 -174.796445 
L 127.513846 -174.796445 
L 126.941538 -174.796445 
L 126.369231 -174.796445 
L 125.796923 -174.796445 
L 125.224615 -174.796445 
L 124.652308 -174.796445 
L 124.08 -174.796445 
L 123.507692 -174.796445 
L 122.935385 -174.796445 
L 122.363077 -174.796445 
L 121.790769 -174.796445 
L 121.218462 -174.796445 
L 120.646154 -174.796445 
L 120.073846 -174.796445 
L 119.501538 -174.796445 
L 118.929231 -174.796445 
L 118.356923 -174.796445 
L 117.784615 -174.796445 
L 117.212308 -174.796445 
L 116.64 -174.796445 
L 116.067692 -174.796445 
L 115.495385 -174.796445 
L 114.923077 -174.796445 
L 114.350769 -174.796445 
L 113.778462 -174.796445 
L 113.206154 -174.796445 
L 112.633846 -174.796445 
L 112.061538 -174.796445 
L 111.489231 -174.796445 
L 110.916923 -174.796445 
L 110.344615 -174.796445 
L 109.772308 -174.796445 
L 109.2 -174.796445 
L 108.627692 -174.796445 
L 108.055385 -174.796445 
L 107.483077 -174.796445 
L 106.910769 -174.796445 
L 106.338462 -174.796445 
L 105.766154 -174.796445 
L 105.193846 -174.796445 
L 104.621538 -174.796445 
L 104.049231 -174.796445 
L 103.476923 -174.796445 
L 102.904615 -174.796445 
L 102.332308 -174.796445 
L 101.76 -174.796445 
L 101.187692 -174.796445 
L 100.615385 -174.796445 
L 100.043077 -174.796445 
L 99.470769 -174.796445 
L 98.898462 -174.796445 
L 98.326154 -174.796445 
L 97.753846 -174.796445 
L 97.181538 -174.796445 
L 96.609231 -174.796445 
L 96.036923 -174.796445 
L 95.464615 -174.796445 
L 94.892308 -174.796445 
L 94.32 -174.796445 
L 93.747692 -174.796445 
L 93.175385 -174.796445 
L 92.603077 -174.796445 
L 92.030769 -174.796445 
L 91.458462 -174.796445 
L 90.886154 -174.796445 
L 90.313846 -174.796445 
L 89.741538 -174.796445 
L 89.169231 -174.796445 
L 88.596923 -174.796445 
L 88.024615 -174.796445 
L 87.452308 -174.796445 
L 86.88 -174.796445 
L 86.307692 -174.796445 
L 85.735385 -174.796445 
L 85.163077 -174.796445 
L 84.590769 -174.796445 
L 84.018462 -174.796445 
L 83.446154 -174.796445 
L 82.873846 -174.796445 
L 82.301538 -174.796445 
L 81.729231 -174.796445 
L 81.156923 -174.796445 
L 80.584615 -174.796445 
L 80.012308 -174.796445 
L 79.44 -174.796445 
L 78.867692 -174.796445 
L 78.295385 -174.796445 
L 77.723077 -174.796445 
L 77.150769 -174.796445 
L 76.578462 -174.796445 
L 76.006154 -174.796445 
L 75.433846 -174.796445 
L 74.861538 -174.796445 
L 74.289231 -174.796445 
L 73.716923 -174.796445 
L 73.144615 -174.796445 
L 72.572308 -174.796445 
L 72 -174.796445 
z
" id="mfbeb056462"/>
    </defs>
    <g clip-path="url(#p765e3f864e)">
     <use style="fill-opacity:0.15;" x="0" xlink:href="#mfbeb056462" y="360"/>
    </g>
   </g>
   <g id="matplotlib.axis_1">
    <g id="xtick_1">
     <g id="line2d_1">
      <defs>
       <path d="M 0 0 
L 0 3.5 
" id="me544a30f26" style="stroke:#000000;stroke-width:0.8;"/>
      </defs>
      <g>
       <use style="stroke:#000000;stroke-width:0.8;" x="72" xlink:href="#me544a30f26" y="320.4"/>
      </g>
     </g>
     <g id="text_1">
      <!-- 0.0 -->
      <g transform="translate(60.867812 338.037813)scale(0.14 -0.14)">
       <defs>
        <path d="M 2034 4250 
Q 1547 4250 1301 3770 
Q 1056 3291 1056 2328 
Q 1056 1369 1301 889 
Q 1547 409 2034 409 
Q 2525 409 2770 889 
Q 3016 1369 3016 2328 
Q 3016 3291 2770 3770 
Q 2525 4250 2034 4250 
z
M 2034 4750 
Q 2819 4750 3233 4129 
Q 3647 3509 3647 2328 
Q 3647 1150 3233 529 
Q 2819 -91 2034 -91 
Q 1250 -91 836 529 
Q 422 1150 422 2328 
Q 422 3509 836 4129 
Q 1250 4750 2034 4750 
z
" id="DejaVuSans-30" transform="scale(0.015625)"/>
        <path d="M 684 794 
L 1344 794 
L 1344 0 
L 684 0 
L 684 794 
z
" id="DejaVuSans-2e" transform="scale(0.015625)"/>
       </defs>
       <use xlink:href="#DejaVuSans-30"/>
       <use x="63.623047" xlink:href="#DejaVuSans-2e"/>
       <use x="95.410156" xlink:href="#DejaVuSans-30"/>
      </g>
     </g>
    </g>
    <g id="xtick_2">
     <g id="line2d_2">
      <g>
       <use style="stroke:#000000;stroke-width:0.8;" x="127.844676" xlink:href="#me544a30f26" y="320.4"/>
      </g>
     </g>
     <g id="text_2">
      <!-- 2.5 -->
      <g transform="translate(116.712488 338.037813)scale(0.14 -0.14)">
       <defs>
        <path d="M 1228 531 
L 3431 531 
L 3431 0 
L 469 0 
L 469 531 
Q 828 903 1448 1529 
Q 2069 2156 2228 2338 
Q 2531 2678 2651 2914 
Q 2772 3150 2772 3378 
Q 2772 3750 2511 3984 
Q 2250 4219 1831 4219 
Q 1534 4219 1204 4116 
Q 875 4013 500 3803 
L 500 4441 
Q 881 4594 1212 4672 
Q 1544 4750 1819 4750 
Q 2544 4750 2975 4387 
Q 3406 4025 3406 3419 
Q 3406 3131 3298 2873 
Q 3191 2616 2906 2266 
Q 2828 2175 2409 1742 
Q 1991 1309 1228 531 
z
" id="DejaVuSans-32" transform="scale(0.015625)"/>
        <path d="M 691 4666 
L 3169 4666 
L 3169 4134 
L 1269 4134 
L 1269 2991 
Q 1406 3038 1543 3061 
Q 1681 3084 1819 3084 
Q 2600 3084 3056 2656 
Q 3513 2228 3513 1497 
Q 3513 744 3044 326 
Q 2575 -91 1722 -91 
Q 1428 -91 1123 -41 
Q 819 9 494 109 
L 494 744 
Q 775 591 1075 516 
Q 1375 441 1709 441 
Q 2250 441 2565 725 
Q 2881 1009 2881 1497 
Q 2881 1984 2565 2268 
Q 2250 2553 1709 2553 
Q 1456 2553 1204 2497 
Q 953 2441 691 2322 
L 691 4666 
z
" id="DejaVuSans-35" transform="scale(0.015625)"/>
       </defs>
       <use xlink:href="#DejaVuSans-32"/>
       <use x="63.623047" xlink:href="#DejaVuSans-2e"/>
       <use x="95.410156" xlink:href="#DejaVuSans-35"/>
      </g>
     </g>
    </g>
    <g id="xtick_3">
     <g id="line2d_3">
      <g>
       <use style="stroke:#000000;stroke-width:0.8;" x="183.689351" xlink:href="#me544a30f26" y="320.4"/>
      </g>
     </g>
     <g id="text_3">
      <!-- 5.0 -->
      <g transform="translate(172.557164 338.037813)scale(0.14 -0.14)">
       <use xlink:href="#DejaVuSans-35"/>
       <use x="63.623047" xlink:href="#DejaVuSans-2e"/>
       <use x="95.410156" xlink:href="#DejaVuSans-30"/>
      </g>
     </g>
    </g>
    <g id="xtick_4">
     <g id="line2d_4">
      <g>
       <use style="stroke:#000000;stroke-width:0.8;" x="239.534027" xlink:href="#me544a30f26" y="320.4"/>
      </g>
     </g>
     <g id="text_4">
      <!-- 7.5 -->
      <g transform="translate(228.40184 338.037813)scale(0.14 -0.14)">
       <defs>
        <path d="M 525 4666 
L 3525 4666 
L 3525 4397 
L 1831 0 
L 1172 0 
L 2766 4134 
L 525 4134 
L 525 4666 
z
" id="DejaVuSans-37" transform="scale(0.015625)"/>
       </defs>
       <use xlink:href="#DejaVuSans-37"/>
       <use x="63.623047" xlink:href="#DejaVuSans-2e"/>
       <use x="95.410156" xlink:href="#DejaVuSans-35"/>
      </g>
     </g>
    </g>
    <g id="xtick_5">
     <g id="line2d_5">
      <g>
       <use style="stroke:#000000;stroke-width:0.8;" x="295.378703" xlink:href="#me544a30f26" y="320.4"/>
      </g>
     </g>
     <g id="text_5">
      <!-- 10.0 -->
      <g transform="translate(279.792765 338.037813)scale(0.14 -0.14)">
       <defs>
        <path d="M 794 531 
L 1825 531 
L 1825 4091 
L 703 3866 
L 703 4441 
L 1819 4666 
L 2450 4666 
L 2450 531 
L 3481 531 
L 3481 0 
L 794 0 
L 794 531 
z
" id="DejaVuSans-31" transform="scale(0.015625)"/>
       </defs>
       <use xlink:href="#DejaVuSans-31"/>
       <use x="63.623047" xlink:href="#DejaVuSans-30"/>
       <use x="127.246094" xlink:href="#DejaVuSans-2e"/>
       <use x="159.033203" xlink:href="#DejaVuSans-30"/>
      </g>
     </g>
    </g>
    <g id="xtick_6">
     <g id="line2d_6">
      <g>
       <use style="stroke:#000000;stroke-width:0.8;" x="351.223379" xlink:href="#me544a30f26" y="320.4"/>
      </g>
     </g>
     <g id="text_6">
      <!-- 12.5 -->
      <g transform="translate(335.637441 338.037813)scale(0.14 -0.14)">
       <use xlink:href="#DejaVuSans-31"/>
       <use x="63.623047" xlink:href="#DejaVuSans-32"/>
       <use x="127.246094" xlink:href="#DejaVuSans-2e"/>
       <use x="159.033203" xlink:href="#DejaVuSans-35"/>
      </g>
     </g>
    </g>
    <g id="xtick_7">
     <g id="line2d_7">
      <g>
       <use style="stroke:#000000;stroke-width:0.8;" x="407.068054" xlink:href="#me544a30f26" y="320.4"/>
      </g>
     </g>
     <g id="text_7">
      <!-- 15.0 -->
      <g transform="translate(391.482117 338.037813)scale(0.14 -0.14)">
       <use xlink:href="#DejaVuSans-31"/>
       <use x="63.623047" xlink:href="#DejaVuSans-35"/>
       <use x="127.246094" xlink:href="#DejaVuSans-2e"/>
       <use x="159.033203" xlink:href="#DejaVuSans-30"/>
      </g>
     </g>
    </g>
    <g id="xtick_8">
     <g id="line2d_8">
      <g>
       <use style="stroke:#000000;stroke-width:0.8;" x="462.91273" xlink:href="#me544a30f26" y="320.4"/>
      </g>
     </g>
     <g id="text_8">
      <!-- 17.5 -->
      <g transform="translate(447.326793 338.037813)scale(0.14 -0.14)">
       <use xlink:href="#DejaVuSans-31"/>
       <use x="63.623047" xlink:href="#DejaVuSans-37"/>
       <use x="127.246094" xlink:href="#DejaVuSans-2e"/>
       <use x="159.033203" xlink:href="#DejaVuSans-35"/>
      </g>
     </g>
    </g>
    <g id="text_9">
     <!-- Time [Seconds] -->
     <g transform="translate(233.23 357.106875)scale(0.16 -0.16)">
      <defs>
       <path d="M -19 4666 
L 3928 4666 
L 3928 4134 
L 2272 4134 
L 2272 0 
L 1638 0 
L 1638 4134 
L -19 4134 
L -19 4666 
z
" id="DejaVuSans-54" transform="scale(0.015625)"/>
       <path d="M 603 3500 
L 1178 3500 
L 1178 0 
L 603 0 
L 603 3500 
z
M 603 4863 
L 1178 4863 
L 1178 4134 
L 603 4134 
L 603 4863 
z
" id="DejaVuSans-69" transform="scale(0.015625)"/>
       <path d="M 3328 2828 
Q 3544 3216 3844 3400 
Q 4144 3584 4550 3584 
Q 5097 3584 5394 3201 
Q 5691 2819 5691 2113 
L 5691 0 
L 5113 0 
L 5113 2094 
Q 5113 2597 4934 2840 
Q 4756 3084 4391 3084 
Q 3944 3084 3684 2787 
Q 3425 2491 3425 1978 
L 3425 0 
L 2847 0 
L 2847 2094 
Q 2847 2600 2669 2842 
Q 2491 3084 2119 3084 
Q 1678 3084 1418 2786 
Q 1159 2488 1159 1978 
L 1159 0 
L 581 0 
L 581 3500 
L 1159 3500 
L 1159 2956 
Q 1356 3278 1631 3431 
Q 1906 3584 2284 3584 
Q 2666 3584 2933 3390 
Q 3200 3197 3328 2828 
z
" id="DejaVuSans-6d" transform="scale(0.015625)"/>
       <path d="M 3597 1894 
L 3597 1613 
L 953 1613 
Q 991 1019 1311 708 
Q 1631 397 2203 397 
Q 2534 397 2845 478 
Q 3156 559 3463 722 
L 3463 178 
Q 3153 47 2828 -22 
Q 2503 -91 2169 -91 
Q 1331 -91 842 396 
Q 353 884 353 1716 
Q 353 2575 817 3079 
Q 1281 3584 2069 3584 
Q 2775 3584 3186 3129 
Q 3597 2675 3597 1894 
z
M 3022 2063 
Q 3016 2534 2758 2815 
Q 2500 3097 2075 3097 
Q 1594 3097 1305 2825 
Q 1016 2553 972 2059 
L 3022 2063 
z
" id="DejaVuSans-65" transform="scale(0.015625)"/>
       <path id="DejaVuSans-20" transform="scale(0.015625)"/>
       <path d="M 550 4863 
L 1875 4863 
L 1875 4416 
L 1125 4416 
L 1125 -397 
L 1875 -397 
L 1875 -844 
L 550 -844 
L 550 4863 
z
" id="DejaVuSans-5b" transform="scale(0.015625)"/>
       <path d="M 3425 4513 
L 3425 3897 
Q 3066 4069 2747 4153 
Q 2428 4238 2131 4238 
Q 1616 4238 1336 4038 
Q 1056 3838 1056 3469 
Q 1056 3159 1242 3001 
Q 1428 2844 1947 2747 
L 2328 2669 
Q 3034 2534 3370 2195 
Q 3706 1856 3706 1288 
Q 3706 609 3251 259 
Q 2797 -91 1919 -91 
Q 1588 -91 1214 -16 
Q 841 59 441 206 
L 441 856 
Q 825 641 1194 531 
Q 1563 422 1919 422 
Q 2459 422 2753 634 
Q 3047 847 3047 1241 
Q 3047 1584 2836 1778 
Q 2625 1972 2144 2069 
L 1759 2144 
Q 1053 2284 737 2584 
Q 422 2884 422 3419 
Q 422 4038 858 4394 
Q 1294 4750 2059 4750 
Q 2388 4750 2728 4690 
Q 3069 4631 3425 4513 
z
" id="DejaVuSans-53" transform="scale(0.015625)"/>
       <path d="M 3122 3366 
L 3122 2828 
Q 2878 2963 2633 3030 
Q 2388 3097 2138 3097 
Q 1578 3097 1268 2742 
Q 959 2388 959 1747 
Q 959 1106 1268 751 
Q 1578 397 2138 397 
Q 2388 397 2633 464 
Q 2878 531 3122 666 
L 3122 134 
Q 2881 22 2623 -34 
Q 2366 -91 2075 -91 
Q 1284 -91 818 406 
Q 353 903 353 1747 
Q 353 2603 823 3093 
Q 1294 3584 2113 3584 
Q 2378 3584 2631 3529 
Q 2884 3475 3122 3366 
z
" id="DejaVuSans-63" transform="scale(0.015625)"/>
       <path d="M 1959 3097 
Q 1497 3097 1228 2736 
Q 959 2375 959 1747 
Q 959 1119 1226 758 
Q 1494 397 1959 397 
Q 2419 397 2687 759 
Q 2956 1122 2956 1747 
Q 2956 2369 2687 2733 
Q 2419 3097 1959 3097 
z
M 1959 3584 
Q 2709 3584 3137 3096 
Q 3566 2609 3566 1747 
Q 3566 888 3137 398 
Q 2709 -91 1959 -91 
Q 1206 -91 779 398 
Q 353 888 353 1747 
Q 353 2609 779 3096 
Q 1206 3584 1959 3584 
z
" id="DejaVuSans-6f" transform="scale(0.015625)"/>
       <path d="M 3513 2113 
L 3513 0 
L 2938 0 
L 2938 2094 
Q 2938 2591 2744 2837 
Q 2550 3084 2163 3084 
Q 1697 3084 1428 2787 
Q 1159 2491 1159 1978 
L 1159 0 
L 581 0 
L 581 3500 
L 1159 3500 
L 1159 2956 
Q 1366 3272 1645 3428 
Q 1925 3584 2291 3584 
Q 2894 3584 3203 3211 
Q 3513 2838 3513 2113 
z
" id="DejaVuSans-6e" transform="scale(0.015625)"/>
       <path d="M 2906 2969 
L 2906 4863 
L 3481 4863 
L 3481 0 
L 2906 0 
L 2906 525 
Q 2725 213 2448 61 
Q 2172 -91 1784 -91 
Q 1150 -91 751 415 
Q 353 922 353 1747 
Q 353 2572 751 3078 
Q 1150 3584 1784 3584 
Q 2172 3584 2448 3432 
Q 2725 3281 2906 2969 
z
M 947 1747 
Q 947 1113 1208 752 
Q 1469 391 1925 391 
Q 2381 391 2643 752 
Q 2906 1113 2906 1747 
Q 2906 2381 2643 2742 
Q 2381 3103 1925 3103 
Q 1469 3103 1208 2742 
Q 947 2381 947 1747 
z
" id="DejaVuSans-64" transform="scale(0.015625)"/>
       <path d="M 2834 3397 
L 2834 2853 
Q 2591 2978 2328 3040 
Q 2066 3103 1784 3103 
Q 1356 3103 1142 2972 
Q 928 2841 928 2578 
Q 928 2378 1081 2264 
Q 1234 2150 1697 2047 
L 1894 2003 
Q 2506 1872 2764 1633 
Q 3022 1394 3022 966 
Q 3022 478 2636 193 
Q 2250 -91 1575 -91 
Q 1294 -91 989 -36 
Q 684 19 347 128 
L 347 722 
Q 666 556 975 473 
Q 1284 391 1588 391 
Q 1994 391 2212 530 
Q 2431 669 2431 922 
Q 2431 1156 2273 1281 
Q 2116 1406 1581 1522 
L 1381 1569 
Q 847 1681 609 1914 
Q 372 2147 372 2553 
Q 372 3047 722 3315 
Q 1072 3584 1716 3584 
Q 2034 3584 2315 3537 
Q 2597 3491 2834 3397 
z
" id="DejaVuSans-73" transform="scale(0.015625)"/>
       <path d="M 1947 4863 
L 1947 -844 
L 622 -844 
L 622 -397 
L 1369 -397 
L 1369 4416 
L 622 4416 
L 622 4863 
L 1947 4863 
z
" id="DejaVuSans-5d" transform="scale(0.015625)"/>
      </defs>
      <use xlink:href="#DejaVuSans-54"/>
      <use x="57.958984" xlink:href="#DejaVuSans-69"/>
      <use x="85.742188" xlink:href="#DejaVuSans-6d"/>
      <use x="183.154297" xlink:href="#DejaVuSans-65"/>
      <use x="244.677734" xlink:href="#DejaVuSans-20"/>
      <use x="276.464844" xlink:href="#DejaVuSans-5b"/>
      <use x="315.478516" xlink:href="#DejaVuSans-53"/>
      <use x="378.955078" xlink:href="#DejaVuSans-65"/>
      <use x="440.478516" xlink:href="#DejaVuSans-63"/>
      <use x="495.458984" xlink:href="#DejaVuSans-6f"/>
      <use x="556.640625" xlink:href="#DejaVuSans-6e"/>
      <use x="620.019531" xlink:href="#DejaVuSans-64"/>
      <use x="683.496094" xlink:href="#DejaVuSans-73"/>
      <use x="735.595703" xlink:href="#DejaVuSans-5d"/>
     </g>
    </g>
   </g>
   <g id="matplotlib.axis_2">
    <g id="ytick_1">
     <g id="line2d_9">
      <defs>
       <path d="M 0 0 
L -3.5 0 
" id="md65a31e150" style="stroke:#000000;stroke-width:0.8;"/>
      </defs>
      <g>
       <use style="stroke:#000000;stroke-width:0.8;" x="72" xlink:href="#md65a31e150" y="275.871223"/>
      </g>
     </g>
     <g id="text_10">
      <!-- 0.0 -->
      <g transform="translate(42.735625 281.19013)scale(0.14 -0.14)">
       <use xlink:href="#DejaVuSans-30"/>
       <use x="63.623047" xlink:href="#DejaVuSans-2e"/>
       <use x="95.410156" xlink:href="#DejaVuSans-30"/>
      </g>
     </g>
    </g>
    <g id="ytick_2">
     <g id="line2d_10">
      <g>
       <use style="stroke:#000000;stroke-width:0.8;" x="72" xlink:href="#md65a31e150" y="224.614692"/>
      </g>
     </g>
     <g id="text_11">
      <!-- 0.5 -->
      <g transform="translate(42.735625 229.933598)scale(0.14 -0.14)">
       <use xlink:href="#DejaVuSans-30"/>
       <use x="63.623047" xlink:href="#DejaVuSans-2e"/>
       <use x="95.410156" xlink:href="#DejaVuSans-35"/>
      </g>
     </g>
    </g>
    <g id="ytick_3">
     <g id="line2d_11">
      <g>
       <use style="stroke:#000000;stroke-width:0.8;" x="72" xlink:href="#md65a31e150" y="173.358161"/>
      </g>
     </g>
     <g id="text_12">
      <!-- 1.0 -->
      <g transform="translate(42.735625 178.677067)scale(0.14 -0.14)">
       <use xlink:href="#DejaVuSans-31"/>
       <use x="63.623047" xlink:href="#DejaVuSans-2e"/>
       <use x="95.410156" xlink:href="#DejaVuSans-30"/>
      </g>
     </g>
    </g>
    <g id="ytick_4">
     <g id="line2d_12">
      <g>
       <use style="stroke:#000000;stroke-width:0.8;" x="72" xlink:href="#md65a31e150" y="122.10163"/>
      </g>
     </g>
     <g id="text_13">
      <!-- 1.5 -->
      <g transform="translate(42.735625 127.420536)scale(0.14 -0.14)">
       <use xlink:href="#DejaVuSans-31"/>
       <use x="63.623047" xlink:href="#DejaVuSans-2e"/>
       <use x="95.410156" xlink:href="#DejaVuSans-35"/>
      </g>
     </g>
    </g>
    <g id="ytick_5">
     <g id="line2d_13">
      <g>
       <use style="stroke:#000000;stroke-width:0.8;" x="72" xlink:href="#md65a31e150" y="70.845098"/>
      </g>
     </g>
     <g id="text_14">
      <!-- 2.0 -->
      <g transform="translate(42.735625 76.164005)scale(0.14 -0.14)">
       <use xlink:href="#DejaVuSans-32"/>
       <use x="63.623047" xlink:href="#DejaVuSans-2e"/>
       <use x="95.410156" xlink:href="#DejaVuSans-30"/>
      </g>
     </g>
    </g>
    <g id="text_15">
     <!-- Speed [mm/s] -->
     <g transform="translate(35.408125 238.11375)rotate(-90)scale(0.16 -0.16)">
      <defs>
       <path d="M 1159 525 
L 1159 -1331 
L 581 -1331 
L 581 3500 
L 1159 3500 
L 1159 2969 
Q 1341 3281 1617 3432 
Q 1894 3584 2278 3584 
Q 2916 3584 3314 3078 
Q 3713 2572 3713 1747 
Q 3713 922 3314 415 
Q 2916 -91 2278 -91 
Q 1894 -91 1617 61 
Q 1341 213 1159 525 
z
M 3116 1747 
Q 3116 2381 2855 2742 
Q 2594 3103 2138 3103 
Q 1681 3103 1420 2742 
Q 1159 2381 1159 1747 
Q 1159 1113 1420 752 
Q 1681 391 2138 391 
Q 2594 391 2855 752 
Q 3116 1113 3116 1747 
z
" id="DejaVuSans-70" transform="scale(0.015625)"/>
       <path d="M 1625 4666 
L 2156 4666 
L 531 -594 
L 0 -594 
L 1625 4666 
z
" id="DejaVuSans-2f" transform="scale(0.015625)"/>
      </defs>
      <use xlink:href="#DejaVuSans-53"/>
      <use x="63.476562" xlink:href="#DejaVuSans-70"/>
      <use x="126.953125" xlink:href="#DejaVuSans-65"/>
      <use x="188.476562" xlink:href="#DejaVuSans-65"/>
      <use x="250" xlink:href="#DejaVuSans-64"/>
      <use x="313.476562" xlink:href="#DejaVuSans-20"/>
      <use x="345.263672" xlink:href="#DejaVuSans-5b"/>
      <use x="384.277344" xlink:href="#DejaVuSans-6d"/>
      <use x="481.689453" xlink:href="#DejaVuSans-6d"/>
      <use x="579.101562" xlink:href="#DejaVuSans-2f"/>
      <use x="612.792969" xlink:href="#DejaVuSans-73"/>
      <use x="664.892578" xlink:href="#DejaVuSans-5d"/>
     </g>
    </g>
   </g>
   <g id="line2d_14">
    <path clip-path="url(#p765e3f864e)" d="M 72 182.416231 
L 518.4 182.416231 
" style="fill:none;stroke:#000000;stroke-dasharray:5.55,2.4;stroke-dashoffset:0;stroke-width:1.5;"/>
   </g>
   <g id="line2d_15">
    <path clip-path="url(#p765e3f864e)" d="M 72 274.646943 
L 116.067692 274.573537 
L 116.64 274.948358 
L 117.212308 273.597921 
L 117.784615 271.257805 
L 118.356923 273.822233 
L 118.929231 275.648781 
L 119.501538 274.804652 
L 120.073846 275.367475 
L 120.646154 275.681968 
L 121.218462 273.669425 
L 121.790769 283.680199 
L 122.935385 246.563111 
L 123.507692 273.134825 
L 124.08 291.628541 
L 124.652308 302.574469 
L 125.224615 307.8 
L 125.796923 303.618799 
L 126.369231 292.957587 
L 127.513846 260.779858 
L 128.658462 215.858579 
L 130.947692 123.344538 
L 132.092308 88.003207 
L 132.664615 74.44676 
L 133.236923 64.518223 
L 133.809231 58.331079 
L 134.381538 55.8 
L 134.953846 56.984356 
L 135.526154 61.113869 
L 136.098462 68.367338 
L 136.670769 79.439404 
L 137.815385 107.730046 
L 140.104615 169.594681 
L 140.676923 182.976833 
L 141.249231 191.157737 
L 141.821538 195.192287 
L 142.393846 193.339303 
L 142.966154 187.639831 
L 143.538462 179.401971 
L 144.110769 143.717133 
L 144.683077 138.0957 
L 145.255385 165.57515 
L 145.827692 166.046092 
L 146.4 169.224688 
L 146.972308 173.963731 
L 147.544615 173.580286 
L 148.116923 174.43475 
L 148.689231 176.029417 
L 149.261538 176.879192 
L 149.833846 178.474918 
L 150.406154 179.257325 
L 150.978462 179.14772 
L 151.550769 179.719041 
L 152.123077 181.524387 
L 152.695385 182.750927 
L 153.267692 181.002111 
L 153.84 179.660477 
L 154.412308 181.785646 
L 154.984615 181.216765 
L 155.556923 179.832544 
L 156.701538 181.37692 
L 157.273846 180.51872 
L 157.846154 178.542247 
L 158.990769 178.171631 
L 160.135385 178.25821 
L 160.707692 178.753271 
L 161.28 178.042111 
L 161.852308 178.25166 
L 162.424615 180.864859 
L 162.996923 181.023282 
L 164.141538 180.164261 
L 164.713846 183.062253 
L 165.286154 185.223518 
L 165.858462 184.104652 
L 166.430769 183.790972 
L 167.003077 183.703078 
L 167.575385 183.852222 
L 168.147692 186.74462 
L 168.72 188.895192 
L 169.292308 186.645316 
L 169.864615 185.106545 
L 170.436923 182.801893 
L 171.009231 181.733675 
L 171.581538 181.780287 
L 173.298462 181.29108 
L 173.870769 182.048637 
L 174.443077 181.001368 
L 175.015385 178.585237 
L 175.587692 178.935684 
L 176.16 181.358908 
L 176.732308 178.636651 
L 177.304615 178.358759 
L 177.876923 183.456654 
L 178.449231 185.675415 
L 179.021538 185.001791 
L 179.593846 182.371099 
L 180.166154 183.260812 
L 180.738462 184.992057 
L 181.310769 184.361009 
L 181.883077 182.621529 
L 182.455385 182.559363 
L 183.027692 183.747702 
L 183.6 184.581887 
L 184.172308 184.384357 
L 184.744615 182.773647 
L 185.316923 184.226626 
L 185.889231 182.01533 
L 186.461538 181.410146 
L 187.033846 182.395579 
L 187.606154 181.208141 
L 188.178462 180.369456 
L 188.750769 178.277278 
L 189.323077 178.895056 
L 189.895385 180.941914 
L 190.467692 181.826512 
L 191.04 181.10514 
L 192.184615 180.691746 
L 192.756923 182.282234 
L 193.329231 182.35426 
L 193.901538 180.833523 
L 194.473846 180.847354 
L 195.046154 181.856911 
L 195.618462 182.587462 
L 196.190769 181.484388 
L 196.763077 181.484423 
L 197.335385 179.919362 
L 197.907692 179.190792 
L 198.48 180.943934 
L 199.624615 185.660941 
L 200.196923 184.964709 
L 200.769231 183.68749 
L 201.341538 183.097077 
L 201.913846 183.505605 
L 202.486154 183.640101 
L 203.058462 184.85115 
L 203.630769 183.225882 
L 204.203077 182.382491 
L 204.775385 185.557882 
L 205.347692 186.200723 
L 205.92 184.952647 
L 206.492308 185.000995 
L 207.064615 186.70358 
L 207.636923 184.451411 
L 208.209231 183.521653 
L 208.781538 185.630924 
L 209.353846 186.132131 
L 209.926154 182.479457 
L 210.498462 177.569685 
L 211.070769 178.22422 
L 211.643077 179.509738 
L 212.215385 179.583059 
L 212.787692 180.946826 
L 213.36 181.24107 
L 213.932308 179.378862 
L 214.504615 179.439462 
L 215.076923 180.057602 
L 215.649231 179.352845 
L 216.221538 180.498259 
L 216.793846 182.991017 
L 217.366154 184.187908 
L 217.938462 181.453187 
L 218.510769 180.459253 
L 219.083077 180.83493 
L 219.655385 183.264568 
L 220.227692 186.237937 
L 220.8 185.065529 
L 221.944615 186.347403 
L 222.516923 184.968683 
L 223.661538 179.826009 
L 224.233846 182.342965 
L 224.806154 185.690488 
L 225.378462 181.322191 
L 225.950769 180.666436 
L 226.523077 183.769847 
L 227.095385 180.644064 
L 227.667692 180.080184 
L 228.24 182.986858 
L 228.812308 183.729127 
L 229.956923 183.107784 
L 231.101538 183.43373 
L 231.673846 183.169996 
L 232.818462 185.034731 
L 233.390769 185.029328 
L 233.963077 185.306034 
L 234.535385 185.322711 
L 235.107692 182.825777 
L 235.68 180.832753 
L 236.252308 182.514501 
L 236.824615 185.575884 
L 237.396923 185.69739 
L 237.969231 184.586167 
L 238.541538 184.076388 
L 239.686154 181.408723 
L 240.258462 182.854839 
L 240.830769 182.453614 
L 241.403077 181.191675 
L 241.975385 182.547331 
L 242.547692 183.410234 
L 243.12 183.349922 
L 243.692308 181.338671 
L 244.264615 181.600333 
L 244.836923 181.518262 
L 245.409231 180.04714 
L 245.981538 181.58749 
L 246.553846 182.543581 
L 247.126154 180.840299 
L 247.698462 182.82838 
L 248.270769 184.225589 
L 248.843077 181.476209 
L 249.415385 182.153668 
L 249.987692 182.190319 
L 250.56 180.462833 
L 251.132308 180.541896 
L 251.704615 182.035464 
L 252.276923 181.480213 
L 252.849231 182.371772 
L 253.421538 185.002593 
L 253.993846 184.15742 
L 254.566154 183.823606 
L 255.138462 183.682132 
L 255.710769 183.745154 
L 256.283077 182.523423 
L 256.855385 182.10634 
L 257.427692 183.869094 
L 258 182.096031 
L 258.572308 181.631658 
L 259.144615 182.254092 
L 259.716923 181.782914 
L 260.289231 181.554807 
L 260.861538 182.898503 
L 261.433846 182.867859 
L 262.006154 182.54557 
L 262.578462 180.571952 
L 263.150769 179.544629 
L 263.723077 183.11149 
L 264.295385 183.858346 
L 264.867692 181.080984 
L 265.44 180.472921 
L 266.012308 184.165205 
L 266.584615 183.039159 
L 267.156923 181.602462 
L 267.729231 182.079199 
L 268.301538 182.213401 
L 268.873846 183.602121 
L 269.446154 184.681101 
L 270.018462 186.219699 
L 270.590769 185.048256 
L 271.735385 181.625093 
L 272.307692 181.585304 
L 273.452308 181.236729 
L 274.024615 180.663567 
L 274.596923 182.188576 
L 275.169231 183.333588 
L 275.741538 181.842831 
L 276.313846 183.431757 
L 276.886154 181.911139 
L 277.458462 182.253269 
L 278.030769 183.618217 
L 278.603077 185.35069 
L 279.175385 185.42702 
L 279.747692 182.103161 
L 280.32 183.992723 
L 280.892308 186.823184 
L 281.464615 184.530256 
L 282.036923 184.148175 
L 282.609231 184.897213 
L 283.181538 183.294231 
L 283.753846 183.737099 
L 284.326154 181.91524 
L 284.898462 182.282905 
L 285.470769 184.623032 
L 286.615385 179.190859 
L 287.187692 179.512107 
L 287.76 182.336422 
L 288.332308 181.852465 
L 288.904615 181.867078 
L 290.049231 179.765223 
L 290.621538 180.010518 
L 291.193846 179.797792 
L 291.766154 182.899929 
L 292.338462 183.277804 
L 292.910769 185.073225 
L 293.483077 184.77651 
L 294.055385 182.630862 
L 294.627692 182.383071 
L 295.2 184.409086 
L 295.772308 187.173179 
L 296.916923 183.37858 
L 297.489231 183.016483 
L 298.061538 183.896828 
L 298.633846 182.717744 
L 299.206154 182.421003 
L 300.350769 180.581469 
L 300.923077 181.521303 
L 301.495385 181.92274 
L 302.64 184.795907 
L 303.212308 181.131969 
L 303.784615 179.676993 
L 304.356923 182.358244 
L 304.929231 183.869427 
L 305.501538 183.677773 
L 306.073846 181.035975 
L 306.646154 181.870187 
L 307.218462 182.254312 
L 307.790769 181.46908 
L 308.363077 183.369192 
L 308.935385 182.689462 
L 309.507692 182.977947 
L 310.08 184.875166 
L 310.652308 184.83705 
L 311.224615 182.432168 
L 311.796923 180.621525 
L 312.941538 182.174618 
L 313.513846 183.174023 
L 314.086154 181.603009 
L 314.658462 182.40504 
L 315.230769 182.7748 
L 315.803077 182.448814 
L 316.375385 185.111141 
L 316.947692 187.232388 
L 317.52 186.105224 
L 318.092308 182.529963 
L 318.664615 183.326626 
L 319.236923 183.370791 
L 319.809231 183.53277 
L 320.381538 185.555545 
L 320.953846 184.287355 
L 321.526154 180.364115 
L 322.098462 180.274171 
L 322.670769 183.802687 
L 323.243077 184.370417 
L 323.815385 182.438963 
L 324.387692 183.166697 
L 324.96 181.949033 
L 325.532308 181.266474 
L 326.104615 184.339117 
L 326.676923 184.657888 
L 327.249231 183.858328 
L 327.821538 181.322674 
L 328.393846 183.098434 
L 328.966154 185.567588 
L 330.110769 181.256774 
L 330.683077 179.811431 
L 331.255385 181.167617 
L 331.827692 183.234644 
L 332.4 182.297016 
L 332.972308 180.227004 
L 333.544615 180.967205 
L 334.116923 182.737226 
L 334.689231 181.775608 
L 335.261538 181.384094 
L 335.833846 179.791994 
L 336.406154 179.360261 
L 336.978462 180.501809 
L 337.550769 178.826118 
L 338.123077 180.767221 
L 338.695385 183.581893 
L 339.267692 180.912278 
L 339.84 180.168112 
L 340.412308 182.119164 
L 340.984615 183.292498 
L 342.129231 187.078612 
L 343.273846 181.71086 
L 343.846154 185.729776 
L 344.418462 188.441774 
L 344.990769 186.223915 
L 345.563077 183.350856 
L 346.707692 184.151678 
L 347.28 181.841774 
L 347.852308 182.666882 
L 348.424615 183.903816 
L 348.996923 184.396053 
L 350.141538 186.215089 
L 350.713846 185.388414 
L 351.286154 182.112979 
L 351.858462 182.97133 
L 352.430769 184.700512 
L 353.003077 181.520817 
L 353.575385 179.701132 
L 354.147692 181.643726 
L 354.72 182.156843 
L 355.292308 179.711015 
L 355.864615 179.305083 
L 356.436923 182.949962 
L 357.009231 182.878343 
L 357.581538 180.514739 
L 358.726154 181.192115 
L 359.298462 180.256449 
L 359.870769 182.179218 
L 360.443077 182.218593 
L 361.015385 178.699327 
L 361.587692 180.304904 
L 362.16 183.45025 
L 362.732308 185.037683 
L 363.304615 183.539874 
L 363.876923 181.557435 
L 364.449231 180.270062 
L 365.021538 181.274653 
L 365.593846 184.203065 
L 366.166154 183.784185 
L 366.738462 182.861751 
L 367.310769 183.1897 
L 367.883077 181.81693 
L 368.455385 181.153919 
L 369.027692 181.169639 
L 369.6 184.050517 
L 370.172308 185.251412 
L 370.744615 184.966822 
L 371.316923 184.85361 
L 371.889231 183.683802 
L 372.461538 186.173412 
L 373.033846 187.396094 
L 373.606154 187.607236 
L 374.178462 186.767906 
L 374.750769 182.381398 
L 375.323077 182.057836 
L 375.895385 185.339956 
L 376.467692 184.554729 
L 377.04 182.002601 
L 377.612308 182.224601 
L 378.184615 184.316884 
L 379.329231 180.719299 
L 379.901538 181.143789 
L 380.473846 178.773308 
L 381.046154 177.858751 
L 381.618462 180.786518 
L 382.190769 180.366461 
L 382.763077 179.487092 
L 383.335385 181.375077 
L 384.48 181.415869 
L 385.624615 183.429097 
L 386.769231 184.735541 
L 387.341538 184.738414 
L 387.913846 185.42563 
L 388.486154 184.609294 
L 389.058462 182.645674 
L 389.630769 181.483166 
L 390.203077 182.926847 
L 390.775385 184.947481 
L 391.347692 184.921409 
L 391.92 181.289939 
L 392.492308 180.680932 
L 393.064615 181.580251 
L 393.636923 181.096007 
L 394.209231 181.798455 
L 394.781538 180.605425 
L 395.353846 180.630754 
L 395.926154 180.977728 
L 396.498462 181.087503 
L 397.070769 180.832729 
L 397.643077 181.396585 
L 398.215385 182.529705 
L 398.787692 181.618846 
L 399.36 181.417931 
L 399.932308 185.368171 
L 400.504615 187.100682 
L 401.076923 185.297423 
L 401.649231 184.582396 
L 402.221538 182.572511 
L 402.793846 182.905978 
L 403.366154 186.152132 
L 404.510769 184.879151 
L 405.083077 184.595928 
L 405.655385 182.611555 
L 406.227692 183.445748 
L 406.8 183.919076 
L 407.372308 182.206524 
L 407.944615 183.170721 
L 408.516923 183.530807 
L 409.089231 182.122694 
L 409.661538 181.472803 
L 410.233846 180.156031 
L 410.806154 178.12741 
L 411.378462 179.010817 
L 411.950769 181.705087 
L 412.523077 182.503017 
L 413.095385 181.819124 
L 413.667692 180.743915 
L 414.24 182.896532 
L 414.812308 183.642163 
L 415.384615 182.790926 
L 415.956923 181.573502 
L 416.529231 181.359646 
L 417.101538 183.16489 
L 417.673846 183.205267 
L 418.246154 183.474921 
L 418.818462 181.960255 
L 419.390769 181.902169 
L 419.963077 182.548545 
L 420.535385 181.541127 
L 421.107692 181.559736 
L 421.68 184.169797 
L 422.252308 185.112535 
L 422.824615 184.237519 
L 423.396923 185.660463 
L 423.969231 183.738555 
L 424.541538 182.46164 
L 425.113846 183.982328 
L 425.686154 185.015764 
L 426.258462 185.7538 
L 426.830769 184.502958 
L 427.403077 183.698006 
L 427.975385 183.833365 
L 428.547692 182.711964 
L 429.12 182.867994 
L 429.692308 183.368902 
L 430.264615 182.486949 
L 430.836923 182.476446 
L 431.409231 182.169137 
L 431.981538 181.998256 
L 432.553846 180.200638 
L 433.126154 181.520587 
L 433.698462 183.606282 
L 434.270769 180.669067 
L 434.843077 179.646531 
L 435.415385 182.090287 
L 435.987692 182.857935 
L 436.56 182.411509 
L 437.132308 183.668316 
L 437.704615 183.088905 
L 438.276923 182.691833 
L 438.849231 183.45052 
L 439.421538 181.799852 
L 439.993846 181.640902 
L 440.566154 182.878696 
L 441.138462 184.740813 
L 441.710769 183.797956 
L 442.283077 182.550733 
L 442.855385 181.653252 
L 443.427692 181.445066 
L 444 184.119899 
L 444.572308 184.719348 
L 445.144615 184.687601 
L 445.716923 182.592777 
L 446.289231 181.893662 
L 447.433846 184.135979 
L 448.006154 183.8776 
L 448.578462 182.902577 
L 449.150769 181.483582 
L 449.723077 180.795156 
L 450.295385 181.792924 
L 450.867692 181.584468 
L 451.44 181.683278 
L 452.012308 182.554521 
L 453.156923 181.825005 
L 453.729231 182.915156 
L 454.301538 184.383407 
L 454.873846 186.310382 
L 455.446154 185.044713 
L 456.018462 181.722305 
L 456.590769 182.805616 
L 457.163077 183.461246 
L 457.735385 181.616324 
L 458.88 182.86311 
L 460.024615 182.595954 
L 460.596923 181.792487 
L 461.169231 181.352933 
L 461.741538 181.918764 
L 462.886154 181.557933 
L 463.458462 179.544668 
L 464.030769 179.309455 
L 464.603077 180.463235 
L 465.175385 180.769161 
L 465.747692 183.079603 
L 466.32 183.926706 
L 466.892308 182.117591 
L 467.464615 182.606979 
L 468.036923 185.729565 
L 468.609231 184.938005 
L 469.181538 185.03621 
L 469.753846 184.622362 
L 470.326154 183.346334 
L 470.898462 182.938367 
L 472.043077 186.824842 
L 472.615385 185.322256 
L 473.187692 185.847086 
L 473.76 182.777365 
L 474.332308 180.445003 
L 474.904615 182.867635 
L 476.049231 185.536611 
L 476.621538 185.689645 
L 477.193846 183.919336 
L 477.766154 182.671714 
L 478.338462 182.459642 
L 478.910769 179.402436 
L 479.483077 177.930743 
L 480.055385 179.150379 
L 480.627692 178.781808 
L 481.2 177.475243 
L 481.772308 177.601079 
L 482.916923 182.565123 
L 483.489231 182.957989 
L 484.061538 182.71677 
L 484.633846 183.575641 
L 485.206154 183.749742 
L 485.778462 184.170164 
L 486.350769 183.895816 
L 486.923077 184.679476 
L 487.495385 184.617867 
L 488.067692 181.763564 
L 488.64 179.881569 
L 489.212308 182.908337 
L 489.784615 184.564472 
L 490.356923 181.026304 
L 490.929231 181.229095 
L 491.501538 179.525283 
L 492.073846 178.932202 
L 492.646154 182.467176 
L 493.218462 184.296514 
L 493.790769 184.230389 
L 494.363077 183.09472 
L 494.935385 182.971478 
L 495.507692 181.154087 
L 496.652308 183.258876 
L 497.224615 183.601937 
L 497.796923 184.465291 
L 498.369231 183.263614 
L 498.941538 182.819314 
L 499.513846 184.816884 
L 500.086154 186.033412 
L 500.658462 183.561635 
L 501.230769 182.832962 
L 501.803077 181.425571 
L 502.375385 180.640189 
L 502.947692 180.661832 
L 503.52 179.260686 
L 504.092308 179.968934 
L 504.664615 181.38603 
L 505.236923 182.077951 
L 505.809231 183.248028 
L 506.381538 184.789797 
L 506.953846 183.977241 
L 507.526154 182.641507 
L 510.387692 185.105049 
L 511.532308 185.641461 
L 512.104615 185.689617 
L 512.676923 185.542988 
L 513.249231 185.162676 
L 513.821538 184.507514 
L 514.393846 183.534066 
L 514.966154 182.196627 
L 515.538462 180.447227 
L 516.110769 178.235622 
L 516.683077 175.509304 
L 517.827692 168.291146 
L 518.4 163.682944 
L 518.4 163.682944 
" style="fill:none;stroke:#ff0000;stroke-linecap:square;stroke-width:2;"/>
   </g>
   <g id="patch_3">
    <path d="M 72 320.4 
L 72 43.2 
" style="fill:none;stroke:#000000;stroke-linecap:square;stroke-linejoin:miter;stroke-width:0.8;"/>
   </g>
   <g id="patch_4">
    <path d="M 518.4 320.4 
L 518.4 43.2 
" style="fill:none;stroke:#000000;stroke-linecap:square;stroke-linejoin:miter;stroke-width:0.8;"/>
   </g>
   <g id="patch_5">
    <path d="M 72 320.4 
L 518.4 320.4 
" style="fill:none;stroke:#000000;stroke-linecap:square;stroke-linejoin:miter;stroke-width:0.8;"/>
   </g>
   <g id="patch_6">
    <path d="M 72 43.2 
L 518.4 43.2 
" style="fill:none;stroke:#000000;stroke-linecap:square;stroke-linejoin:miter;stroke-width:0.8;"/>
   </g>
   <g id="text_16">
    <!-- Front Propogation Speed -->
    <g transform="translate(172.245312 37.2)scale(0.2 -0.2)">
     <defs>
      <path d="M 628 4666 
L 3309 4666 
L 3309 4134 
L 1259 4134 
L 1259 2759 
L 3109 2759 
L 3109 2228 
L 1259 2228 
L 1259 0 
L 628 0 
L 628 4666 
z
" id="DejaVuSans-46" transform="scale(0.015625)"/>
      <path d="M 2631 2963 
Q 2534 3019 2420 3045 
Q 2306 3072 2169 3072 
Q 1681 3072 1420 2755 
Q 1159 2438 1159 1844 
L 1159 0 
L 581 0 
L 581 3500 
L 1159 3500 
L 1159 2956 
Q 1341 3275 1631 3429 
Q 1922 3584 2338 3584 
Q 2397 3584 2469 3576 
Q 2541 3569 2628 3553 
L 2631 2963 
z
" id="DejaVuSans-72" transform="scale(0.015625)"/>
      <path d="M 1172 4494 
L 1172 3500 
L 2356 3500 
L 2356 3053 
L 1172 3053 
L 1172 1153 
Q 1172 725 1289 603 
Q 1406 481 1766 481 
L 2356 481 
L 2356 0 
L 1766 0 
Q 1100 0 847 248 
Q 594 497 594 1153 
L 594 3053 
L 172 3053 
L 172 3500 
L 594 3500 
L 594 4494 
L 1172 4494 
z
" id="DejaVuSans-74" transform="scale(0.015625)"/>
      <path d="M 1259 4147 
L 1259 2394 
L 2053 2394 
Q 2494 2394 2734 2622 
Q 2975 2850 2975 3272 
Q 2975 3691 2734 3919 
Q 2494 4147 2053 4147 
L 1259 4147 
z
M 628 4666 
L 2053 4666 
Q 2838 4666 3239 4311 
Q 3641 3956 3641 3272 
Q 3641 2581 3239 2228 
Q 2838 1875 2053 1875 
L 1259 1875 
L 1259 0 
L 628 0 
L 628 4666 
z
" id="DejaVuSans-50" transform="scale(0.015625)"/>
      <path d="M 2906 1791 
Q 2906 2416 2648 2759 
Q 2391 3103 1925 3103 
Q 1463 3103 1205 2759 
Q 947 2416 947 1791 
Q 947 1169 1205 825 
Q 1463 481 1925 481 
Q 2391 481 2648 825 
Q 2906 1169 2906 1791 
z
M 3481 434 
Q 3481 -459 3084 -895 
Q 2688 -1331 1869 -1331 
Q 1566 -1331 1297 -1286 
Q 1028 -1241 775 -1147 
L 775 -588 
Q 1028 -725 1275 -790 
Q 1522 -856 1778 -856 
Q 2344 -856 2625 -561 
Q 2906 -266 2906 331 
L 2906 616 
Q 2728 306 2450 153 
Q 2172 0 1784 0 
Q 1141 0 747 490 
Q 353 981 353 1791 
Q 353 2603 747 3093 
Q 1141 3584 1784 3584 
Q 2172 3584 2450 3431 
Q 2728 3278 2906 2969 
L 2906 3500 
L 3481 3500 
L 3481 434 
z
" id="DejaVuSans-67" transform="scale(0.015625)"/>
      <path d="M 2194 1759 
Q 1497 1759 1228 1600 
Q 959 1441 959 1056 
Q 959 750 1161 570 
Q 1363 391 1709 391 
Q 2188 391 2477 730 
Q 2766 1069 2766 1631 
L 2766 1759 
L 2194 1759 
z
M 3341 1997 
L 3341 0 
L 2766 0 
L 2766 531 
Q 2569 213 2275 61 
Q 1981 -91 1556 -91 
Q 1019 -91 701 211 
Q 384 513 384 1019 
Q 384 1609 779 1909 
Q 1175 2209 1959 2209 
L 2766 2209 
L 2766 2266 
Q 2766 2663 2505 2880 
Q 2244 3097 1772 3097 
Q 1472 3097 1187 3025 
Q 903 2953 641 2809 
L 641 3341 
Q 956 3463 1253 3523 
Q 1550 3584 1831 3584 
Q 2591 3584 2966 3190 
Q 3341 2797 3341 1997 
z
" id="DejaVuSans-61" transform="scale(0.015625)"/>
     </defs>
     <use xlink:href="#DejaVuSans-46"/>
     <use x="50.269531" xlink:href="#DejaVuSans-72"/>
     <use x="89.132812" xlink:href="#DejaVuSans-6f"/>
     <use x="150.314453" xlink:href="#DejaVuSans-6e"/>
     <use x="213.693359" xlink:href="#DejaVuSans-74"/>
     <use x="252.902344" xlink:href="#DejaVuSans-20"/>
     <use x="284.689453" xlink:href="#DejaVuSans-50"/>
     <use x="343.242188" xlink:href="#DejaVuSans-72"/>
     <use x="382.105469" xlink:href="#DejaVuSans-6f"/>
     <use x="443.287109" xlink:href="#DejaVuSans-70"/>
     <use x="506.763672" xlink:href="#DejaVuSans-6f"/>
     <use x="567.945312" xlink:href="#DejaVuSans-67"/>
     <use x="631.421875" xlink:href="#DejaVuSans-61"/>
     <use x="692.701172" xlink:href="#DejaVuSans-74"/>
     <use x="731.910156" xlink:href="#DejaVuSans-69"/>
     <use x="759.693359" xlink:href="#DejaVuSans-6f"/>
     <use x="820.875" xlink:href="#DejaVuSans-6e"/>
     <use x="884.253906" xlink:href="#DejaVuSans-20"/>
     <use x="916.041016" xlink:href="#DejaVuSans-53"/>
     <use x="979.517578" xlink:href="#DejaVuSans-70"/>
     <use x="1042.994141" xlink:href="#DejaVuSans-65"/>
     <use x="1104.517578" xlink:href="#DejaVuSans-65"/>
     <use x="1166.041016" xlink:href="#DejaVuSans-64"/>
    </g>
   </g>
   <g id="legend_1">
    <g id="patch_7">
     <path d="M 325.967812 111.175687 
L 508.6 111.175687 
Q 511.4 111.175687 511.4 108.375687 
L 511.4 53 
Q 511.4 50.2 508.6 50.2 
L 325.967812 50.2 
Q 323.167812 50.2 323.167812 53 
L 323.167812 108.375687 
Q 323.167812 111.175687 325.967812 111.175687 
z
" style="fill:#ffffff;opacity:0.8;stroke:#cccccc;stroke-linejoin:miter;"/>
    </g>
    <g id="line2d_16">
     <path d="M 328.767812 61.537812 
L 356.767812 61.537812 
" style="fill:none;stroke:#ff0000;stroke-linecap:square;stroke-width:2;"/>
    </g>
    <g id="line2d_17"/>
    <g id="text_17">
     <!-- Front speed -->
     <g transform="translate(367.967812 66.437812)scale(0.14 -0.14)">
      <use xlink:href="#DejaVuSans-46"/>
      <use x="50.269531" xlink:href="#DejaVuSans-72"/>
      <use x="89.132812" xlink:href="#DejaVuSans-6f"/>
      <use x="150.314453" xlink:href="#DejaVuSans-6e"/>
      <use x="213.693359" xlink:href="#DejaVuSans-74"/>
      <use x="252.902344" xlink:href="#DejaVuSans-20"/>
      <use x="284.689453" xlink:href="#DejaVuSans-73"/>
      <use x="336.789062" xlink:href="#DejaVuSans-70"/>
      <use x="400.265625" xlink:href="#DejaVuSans-65"/>
      <use x="461.789062" xlink:href="#DejaVuSans-65"/>
      <use x="523.3125" xlink:href="#DejaVuSans-64"/>
     </g>
    </g>
    <g id="line2d_18">
     <path d="M 328.767812 91.381437 
L 356.767812 91.381437 
" style="fill:none;stroke:#000000;stroke-dasharray:5.55,2.4;stroke-dashoffset:0;stroke-width:1.5;"/>
    </g>
    <g id="line2d_19"/>
    <g id="text_18">
     <!-- Steady state -->
     <g transform="translate(367.967812 86.987187)scale(0.14 -0.14)">
      <defs>
       <path d="M 2059 -325 
Q 1816 -950 1584 -1140 
Q 1353 -1331 966 -1331 
L 506 -1331 
L 506 -850 
L 844 -850 
Q 1081 -850 1212 -737 
Q 1344 -625 1503 -206 
L 1606 56 
L 191 3500 
L 800 3500 
L 1894 763 
L 2988 3500 
L 3597 3500 
L 2059 -325 
z
" id="DejaVuSans-79" transform="scale(0.015625)"/>
      </defs>
      <use xlink:href="#DejaVuSans-53"/>
      <use x="63.476562" xlink:href="#DejaVuSans-74"/>
      <use x="102.685547" xlink:href="#DejaVuSans-65"/>
      <use x="164.208984" xlink:href="#DejaVuSans-61"/>
      <use x="225.488281" xlink:href="#DejaVuSans-64"/>
      <use x="288.964844" xlink:href="#DejaVuSans-79"/>
      <use x="348.144531" xlink:href="#DejaVuSans-20"/>
      <use x="379.931641" xlink:href="#DejaVuSans-73"/>
      <use x="432.03125" xlink:href="#DejaVuSans-74"/>
      <use x="471.240234" xlink:href="#DejaVuSans-61"/>
      <use x="532.519531" xlink:href="#DejaVuSans-74"/>
      <use x="571.728516" xlink:href="#DejaVuSans-65"/>
     </g>
     <!-- speed = 0.91 mm/s -->
     <g transform="translate(367.967812 102.664125)scale(0.14 -0.14)">
      <defs>
       <path d="M 678 2906 
L 4684 2906 
L 4684 2381 
L 678 2381 
L 678 2906 
z
M 678 1631 
L 4684 1631 
L 4684 1100 
L 678 1100 
L 678 1631 
z
" id="DejaVuSans-3d" transform="scale(0.015625)"/>
       <path d="M 703 97 
L 703 672 
Q 941 559 1184 500 
Q 1428 441 1663 441 
Q 2288 441 2617 861 
Q 2947 1281 2994 2138 
Q 2813 1869 2534 1725 
Q 2256 1581 1919 1581 
Q 1219 1581 811 2004 
Q 403 2428 403 3163 
Q 403 3881 828 4315 
Q 1253 4750 1959 4750 
Q 2769 4750 3195 4129 
Q 3622 3509 3622 2328 
Q 3622 1225 3098 567 
Q 2575 -91 1691 -91 
Q 1453 -91 1209 -44 
Q 966 3 703 97 
z
M 1959 2075 
Q 2384 2075 2632 2365 
Q 2881 2656 2881 3163 
Q 2881 3666 2632 3958 
Q 2384 4250 1959 4250 
Q 1534 4250 1286 3958 
Q 1038 3666 1038 3163 
Q 1038 2656 1286 2365 
Q 1534 2075 1959 2075 
z
" id="DejaVuSans-39" transform="scale(0.015625)"/>
      </defs>
      <use xlink:href="#DejaVuSans-73"/>
      <use x="52.099609" xlink:href="#DejaVuSans-70"/>
      <use x="115.576172" xlink:href="#DejaVuSans-65"/>
      <use x="177.099609" xlink:href="#DejaVuSans-65"/>
      <use x="238.623047" xlink:href="#DejaVuSans-64"/>
      <use x="302.099609" xlink:href="#DejaVuSans-20"/>
      <use x="333.886719" xlink:href="#DejaVuSans-3d"/>
      <use x="417.675781" xlink:href="#DejaVuSans-20"/>
      <use x="449.462891" xlink:href="#DejaVuSans-30"/>
      <use x="513.085938" xlink:href="#DejaVuSans-2e"/>
      <use x="544.873047" xlink:href="#DejaVuSans-39"/>
      <use x="608.496094" xlink:href="#DejaVuSans-31"/>
      <use x="672.119141" xlink:href="#DejaVuSans-20"/>
      <use x="703.90625" xlink:href="#DejaVuSans-6d"/>
      <use x="801.318359" xlink:href="#DejaVuSans-6d"/>
      <use x="898.730469" xlink:href="#DejaVuSans-2f"/>
      <use x="932.421875" xlink:href="#DejaVuSans-73"/>
     </g>
    </g>
   </g>
  </g>
 </g>
 <defs>
  <clipPath id="p765e3f864e">
   <rect height="277.2" width="446.4" x="72" y="43.2"/>
  </clipPath>
 </defs>
</svg>
