<?xml version="1.0" encoding="utf-8" standalone="no"?>
<!DOCTYPE svg PUBLIC "-//W3C//DTD SVG 1.1//EN"
  "http://www.w3.org/Graphics/SVG/1.1/DTD/svg11.dtd">
<svg height="360pt" version="1.1" viewBox="0 0 576 360" width="576pt" xmlns="http://www.w3.org/2000/svg" xmlns:xlink="http://www.w3.org/1999/xlink">
 <metadata>
  <rdf:RDF xmlns:cc="http://creativecommons.org/ns#" xmlns:dc="http://purl.org/dc/elements/1.1/" xmlns:rdf="http://www.w3.org/1999/02/22-rdf-syntax-ns#">
   <cc:Work>
    <dc:type rdf:resource="http://purl.org/dc/dcmitype/StillImage"/>
    <dc:date>2022-06-30T14:06:07.033805</dc:date>
    <dc:format>image/svg+xml</dc:format>
    <dc:creator>
     <cc:Agent>
      <dc:title>Matplotlib v3.4.3, https://matplotlib.org/</dc:title>
     </cc:Agent>
    </dc:creator>
   </cc:Work>
  </rdf:RDF>
 </metadata>
 <defs>
  <style type="text/css">*{stroke-linecap:butt;stroke-linejoin:round;}</style>
 </defs>
 <g id="figure_1">
  <g id="patch_1">
   <path d="M 0 360 
L 576 360 
L 576 0 
L 0 0 
z
" style="fill:#ffffff;"/>
  </g>
  <g id="axes_1">
   <g id="patch_2">
    <path d="M 72 320.4 
L 518.4 320.4 
L 518.4 43.2 
L 72 43.2 
z
" style="fill:#ffffff;"/>
   </g>
   <g id="PolyCollection_1">
    <defs>
     <path d="M 72 -167.221307 
L 72 -172.738251 
L 72.565063 -172.738251 
L 73.130127 -172.738251 
L 73.69519 -172.738251 
L 74.260253 -172.738251 
L 74.825316 -172.738251 
L 75.39038 -172.738251 
L 75.955443 -172.738251 
L 76.520506 -172.738251 
L 77.08557 -172.738251 
L 77.650633 -172.738251 
L 78.215696 -172.738251 
L 78.780759 -172.738251 
L 79.345823 -172.738251 
L 79.910886 -172.738251 
L 80.475949 -172.738251 
L 81.041013 -172.738251 
L 81.606076 -172.738251 
L 82.171139 -172.738251 
L 82.736203 -172.738251 
L 83.301266 -172.738251 
L 83.866329 -172.738251 
L 84.431392 -172.738251 
L 84.996456 -172.738251 
L 85.561519 -172.738251 
L 86.126582 -172.738251 
L 86.691646 -172.738251 
L 87.256709 -172.738251 
L 87.821772 -172.738251 
L 88.386835 -172.738251 
L 88.951899 -172.738251 
L 89.516962 -172.738251 
L 90.082025 -172.738251 
L 90.647089 -172.738251 
L 91.212152 -172.738251 
L 91.777215 -172.738251 
L 92.342278 -172.738251 
L 92.907342 -172.738251 
L 93.472405 -172.738251 
L 94.037468 -172.738251 
L 94.602532 -172.738251 
L 95.167595 -172.738251 
L 95.732658 -172.738251 
L 96.297722 -172.738251 
L 96.862785 -172.738251 
L 97.427848 -172.738251 
L 97.992911 -172.738251 
L 98.557975 -172.738251 
L 99.123038 -172.738251 
L 99.688101 -172.738251 
L 100.253165 -172.738251 
L 100.818228 -172.738251 
L 101.383291 -172.738251 
L 101.948354 -172.738251 
L 102.513418 -172.738251 
L 103.078481 -172.738251 
L 103.643544 -172.738251 
L 104.208608 -172.738251 
L 104.773671 -172.738251 
L 105.338734 -172.738251 
L 105.903797 -172.738251 
L 106.468861 -172.738251 
L 107.033924 -172.738251 
L 107.598987 -172.738251 
L 108.164051 -172.738251 
L 108.729114 -172.738251 
L 109.294177 -172.738251 
L 109.859241 -172.738251 
L 110.424304 -172.738251 
L 110.989367 -172.738251 
L 111.55443 -172.738251 
L 112.119494 -172.738251 
L 112.684557 -172.738251 
L 113.24962 -172.738251 
L 113.814684 -172.738251 
L 114.379747 -172.738251 
L 114.94481 -172.738251 
L 115.509873 -172.738251 
L 116.074937 -172.738251 
L 116.64 -172.738251 
L 117.205063 -172.738251 
L 117.770127 -172.738251 
L 118.33519 -172.738251 
L 118.900253 -172.738251 
L 119.465316 -172.738251 
L 120.03038 -172.738251 
L 120.595443 -172.738251 
L 121.160506 -172.738251 
L 121.72557 -172.738251 
L 122.290633 -172.738251 
L 122.855696 -172.738251 
L 123.420759 -172.738251 
L 123.985823 -172.738251 
L 124.550886 -172.738251 
L 125.115949 -172.738251 
L 125.681013 -172.738251 
L 126.246076 -172.738251 
L 126.811139 -172.738251 
L 127.376203 -172.738251 
L 127.941266 -172.738251 
L 128.506329 -172.738251 
L 129.071392 -172.738251 
L 129.636456 -172.738251 
L 130.201519 -172.738251 
L 130.766582 -172.738251 
L 131.331646 -172.738251 
L 131.896709 -172.738251 
L 132.461772 -172.738251 
L 133.026835 -172.738251 
L 133.591899 -172.738251 
L 134.156962 -172.738251 
L 134.722025 -172.738251 
L 135.287089 -172.738251 
L 135.852152 -172.738251 
L 136.417215 -172.738251 
L 136.982278 -172.738251 
L 137.547342 -172.738251 
L 138.112405 -172.738251 
L 138.677468 -172.738251 
L 139.242532 -172.738251 
L 139.807595 -172.738251 
L 140.372658 -172.738251 
L 140.937722 -172.738251 
L 141.502785 -172.738251 
L 142.067848 -172.738251 
L 142.632911 -172.738251 
L 143.197975 -172.738251 
L 143.763038 -172.738251 
L 144.328101 -172.738251 
L 144.893165 -172.738251 
L 145.458228 -172.738251 
L 146.023291 -172.738251 
L 146.588354 -172.738251 
L 147.153418 -172.738251 
L 147.718481 -172.738251 
L 148.283544 -172.738251 
L 148.848608 -172.738251 
L 149.413671 -172.738251 
L 149.978734 -172.738251 
L 150.543797 -172.738251 
L 151.108861 -172.738251 
L 151.673924 -172.738251 
L 152.238987 -172.738251 
L 152.804051 -172.738251 
L 153.369114 -172.738251 
L 153.934177 -172.738251 
L 154.499241 -172.738251 
L 155.064304 -172.738251 
L 155.629367 -172.738251 
L 156.19443 -172.738251 
L 156.759494 -172.738251 
L 157.324557 -172.738251 
L 157.88962 -172.738251 
L 158.454684 -172.738251 
L 159.019747 -172.738251 
L 159.58481 -172.738251 
L 160.149873 -172.738251 
L 160.714937 -172.738251 
L 161.28 -172.738251 
L 161.845063 -172.738251 
L 162.410127 -172.738251 
L 162.97519 -172.738251 
L 163.540253 -172.738251 
L 164.105316 -172.738251 
L 164.67038 -172.738251 
L 165.235443 -172.738251 
L 165.800506 -172.738251 
L 166.36557 -172.738251 
L 166.930633 -172.738251 
L 167.495696 -172.738251 
L 168.060759 -172.738251 
L 168.625823 -172.738251 
L 169.190886 -172.738251 
L 169.755949 -172.738251 
L 170.321013 -172.738251 
L 170.886076 -172.738251 
L 171.451139 -172.738251 
L 172.016203 -172.738251 
L 172.581266 -172.738251 
L 173.146329 -172.738251 
L 173.711392 -172.738251 
L 174.276456 -172.738251 
L 174.841519 -172.738251 
L 175.406582 -172.738251 
L 175.971646 -172.738251 
L 176.536709 -172.738251 
L 177.101772 -172.738251 
L 177.666835 -172.738251 
L 178.231899 -172.738251 
L 178.796962 -172.738251 
L 179.362025 -172.738251 
L 179.927089 -172.738251 
L 180.492152 -172.738251 
L 181.057215 -172.738251 
L 181.622278 -172.738251 
L 182.187342 -172.738251 
L 182.752405 -172.738251 
L 183.317468 -172.738251 
L 183.882532 -172.738251 
L 184.447595 -172.738251 
L 185.012658 -172.738251 
L 185.577722 -172.738251 
L 186.142785 -172.738251 
L 186.707848 -172.738251 
L 187.272911 -172.738251 
L 187.837975 -172.738251 
L 188.403038 -172.738251 
L 188.968101 -172.738251 
L 189.533165 -172.738251 
L 190.098228 -172.738251 
L 190.663291 -172.738251 
L 191.228354 -172.738251 
L 191.793418 -172.738251 
L 192.358481 -172.738251 
L 192.923544 -172.738251 
L 193.488608 -172.738251 
L 194.053671 -172.738251 
L 194.618734 -172.738251 
L 195.183797 -172.738251 
L 195.748861 -172.738251 
L 196.313924 -172.738251 
L 196.878987 -172.738251 
L 197.444051 -172.738251 
L 198.009114 -172.738251 
L 198.574177 -172.738251 
L 199.139241 -172.738251 
L 199.704304 -172.738251 
L 200.269367 -172.738251 
L 200.83443 -172.738251 
L 201.399494 -172.738251 
L 201.964557 -172.738251 
L 202.52962 -172.738251 
L 203.094684 -172.738251 
L 203.659747 -172.738251 
L 204.22481 -172.738251 
L 204.789873 -172.738251 
L 205.354937 -172.738251 
L 205.92 -172.738251 
L 206.485063 -172.738251 
L 207.050127 -172.738251 
L 207.61519 -172.738251 
L 208.180253 -172.738251 
L 208.745316 -172.738251 
L 209.31038 -172.738251 
L 209.875443 -172.738251 
L 210.440506 -172.738251 
L 211.00557 -172.738251 
L 211.570633 -172.738251 
L 212.135696 -172.738251 
L 212.700759 -172.738251 
L 213.265823 -172.738251 
L 213.830886 -172.738251 
L 214.395949 -172.738251 
L 214.961013 -172.738251 
L 215.526076 -172.738251 
L 216.091139 -172.738251 
L 216.656203 -172.738251 
L 217.221266 -172.738251 
L 217.786329 -172.738251 
L 218.351392 -172.738251 
L 218.916456 -172.738251 
L 219.481519 -172.738251 
L 220.046582 -172.738251 
L 220.611646 -172.738251 
L 221.176709 -172.738251 
L 221.741772 -172.738251 
L 222.306835 -172.738251 
L 222.871899 -172.738251 
L 223.436962 -172.738251 
L 224.002025 -172.738251 
L 224.567089 -172.738251 
L 225.132152 -172.738251 
L 225.697215 -172.738251 
L 226.262278 -172.738251 
L 226.827342 -172.738251 
L 227.392405 -172.738251 
L 227.957468 -172.738251 
L 228.522532 -172.738251 
L 229.087595 -172.738251 
L 229.652658 -172.738251 
L 230.217722 -172.738251 
L 230.782785 -172.738251 
L 231.347848 -172.738251 
L 231.912911 -172.738251 
L 232.477975 -172.738251 
L 233.043038 -172.738251 
L 233.608101 -172.738251 
L 234.173165 -172.738251 
L 234.738228 -172.738251 
L 235.303291 -172.738251 
L 235.868354 -172.738251 
L 236.433418 -172.738251 
L 236.998481 -172.738251 
L 237.563544 -172.738251 
L 238.128608 -172.738251 
L 238.693671 -172.738251 
L 239.258734 -172.738251 
L 239.823797 -172.738251 
L 240.388861 -172.738251 
L 240.953924 -172.738251 
L 241.518987 -172.738251 
L 242.084051 -172.738251 
L 242.649114 -172.738251 
L 243.214177 -172.738251 
L 243.779241 -172.738251 
L 244.344304 -172.738251 
L 244.909367 -172.738251 
L 245.47443 -172.738251 
L 246.039494 -172.738251 
L 246.604557 -172.738251 
L 247.16962 -172.738251 
L 247.734684 -172.738251 
L 248.299747 -172.738251 
L 248.86481 -172.738251 
L 249.429873 -172.738251 
L 249.994937 -172.738251 
L 250.56 -172.738251 
L 251.125063 -172.738251 
L 251.690127 -172.738251 
L 252.25519 -172.738251 
L 252.820253 -172.738251 
L 253.385316 -172.738251 
L 253.95038 -172.738251 
L 254.515443 -172.738251 
L 255.080506 -172.738251 
L 255.64557 -172.738251 
L 256.210633 -172.738251 
L 256.775696 -172.738251 
L 257.340759 -172.738251 
L 257.905823 -172.738251 
L 258.470886 -172.738251 
L 259.035949 -172.738251 
L 259.601013 -172.738251 
L 260.166076 -172.738251 
L 260.731139 -172.738251 
L 261.296203 -172.738251 
L 261.861266 -172.738251 
L 262.426329 -172.738251 
L 262.991392 -172.738251 
L 263.556456 -172.738251 
L 264.121519 -172.738251 
L 264.686582 -172.738251 
L 265.251646 -172.738251 
L 265.816709 -172.738251 
L 266.381772 -172.738251 
L 266.946835 -172.738251 
L 267.511899 -172.738251 
L 268.076962 -172.738251 
L 268.642025 -172.738251 
L 269.207089 -172.738251 
L 269.772152 -172.738251 
L 270.337215 -172.738251 
L 270.902278 -172.738251 
L 271.467342 -172.738251 
L 272.032405 -172.738251 
L 272.597468 -172.738251 
L 273.162532 -172.738251 
L 273.727595 -172.738251 
L 274.292658 -172.738251 
L 274.857722 -172.738251 
L 275.422785 -172.738251 
L 275.987848 -172.738251 
L 276.552911 -172.738251 
L 277.117975 -172.738251 
L 277.683038 -172.738251 
L 278.248101 -172.738251 
L 278.813165 -172.738251 
L 279.378228 -172.738251 
L 279.943291 -172.738251 
L 280.508354 -172.738251 
L 281.073418 -172.738251 
L 281.638481 -172.738251 
L 282.203544 -172.738251 
L 282.768608 -172.738251 
L 283.333671 -172.738251 
L 283.898734 -172.738251 
L 284.463797 -172.738251 
L 285.028861 -172.738251 
L 285.593924 -172.738251 
L 286.158987 -172.738251 
L 286.724051 -172.738251 
L 287.289114 -172.738251 
L 287.854177 -172.738251 
L 288.419241 -172.738251 
L 288.984304 -172.738251 
L 289.549367 -172.738251 
L 290.11443 -172.738251 
L 290.679494 -172.738251 
L 291.244557 -172.738251 
L 291.80962 -172.738251 
L 292.374684 -172.738251 
L 292.939747 -172.738251 
L 293.50481 -172.738251 
L 294.069873 -172.738251 
L 294.634937 -172.738251 
L 295.2 -172.738251 
L 295.765063 -172.738251 
L 296.330127 -172.738251 
L 296.89519 -172.738251 
L 297.460253 -172.738251 
L 298.025316 -172.738251 
L 298.59038 -172.738251 
L 299.155443 -172.738251 
L 299.720506 -172.738251 
L 300.28557 -172.738251 
L 300.850633 -172.738251 
L 301.415696 -172.738251 
L 301.980759 -172.738251 
L 302.545823 -172.738251 
L 303.110886 -172.738251 
L 303.675949 -172.738251 
L 304.241013 -172.738251 
L 304.806076 -172.738251 
L 305.371139 -172.738251 
L 305.936203 -172.738251 
L 306.501266 -172.738251 
L 307.066329 -172.738251 
L 307.631392 -172.738251 
L 308.196456 -172.738251 
L 308.761519 -172.738251 
L 309.326582 -172.738251 
L 309.891646 -172.738251 
L 310.456709 -172.738251 
L 311.021772 -172.738251 
L 311.586835 -172.738251 
L 312.151899 -172.738251 
L 312.716962 -172.738251 
L 313.282025 -172.738251 
L 313.847089 -172.738251 
L 314.412152 -172.738251 
L 314.977215 -172.738251 
L 315.542278 -172.738251 
L 316.107342 -172.738251 
L 316.672405 -172.738251 
L 317.237468 -172.738251 
L 317.802532 -172.738251 
L 318.367595 -172.738251 
L 318.932658 -172.738251 
L 319.497722 -172.738251 
L 320.062785 -172.738251 
L 320.627848 -172.738251 
L 321.192911 -172.738251 
L 321.757975 -172.738251 
L 322.323038 -172.738251 
L 322.888101 -172.738251 
L 323.453165 -172.738251 
L 324.018228 -172.738251 
L 324.583291 -172.738251 
L 325.148354 -172.738251 
L 325.713418 -172.738251 
L 326.278481 -172.738251 
L 326.843544 -172.738251 
L 327.408608 -172.738251 
L 327.973671 -172.738251 
L 328.538734 -172.738251 
L 329.103797 -172.738251 
L 329.668861 -172.738251 
L 330.233924 -172.738251 
L 330.798987 -172.738251 
L 331.364051 -172.738251 
L 331.929114 -172.738251 
L 332.494177 -172.738251 
L 333.059241 -172.738251 
L 333.624304 -172.738251 
L 334.189367 -172.738251 
L 334.75443 -172.738251 
L 335.319494 -172.738251 
L 335.884557 -172.738251 
L 336.44962 -172.738251 
L 337.014684 -172.738251 
L 337.579747 -172.738251 
L 338.14481 -172.738251 
L 338.709873 -172.738251 
L 339.274937 -172.738251 
L 339.84 -172.738251 
L 340.405063 -172.738251 
L 340.970127 -172.738251 
L 341.53519 -172.738251 
L 342.100253 -172.738251 
L 342.665316 -172.738251 
L 343.23038 -172.738251 
L 343.795443 -172.738251 
L 344.360506 -172.738251 
L 344.92557 -172.738251 
L 345.490633 -172.738251 
L 346.055696 -172.738251 
L 346.620759 -172.738251 
L 347.185823 -172.738251 
L 347.750886 -172.738251 
L 348.315949 -172.738251 
L 348.881013 -172.738251 
L 349.446076 -172.738251 
L 350.011139 -172.738251 
L 350.576203 -172.738251 
L 351.141266 -172.738251 
L 351.706329 -172.738251 
L 352.271392 -172.738251 
L 352.836456 -172.738251 
L 353.401519 -172.738251 
L 353.966582 -172.738251 
L 354.531646 -172.738251 
L 355.096709 -172.738251 
L 355.661772 -172.738251 
L 356.226835 -172.738251 
L 356.791899 -172.738251 
L 357.356962 -172.738251 
L 357.922025 -172.738251 
L 358.487089 -172.738251 
L 359.052152 -172.738251 
L 359.617215 -172.738251 
L 360.182278 -172.738251 
L 360.747342 -172.738251 
L 361.312405 -172.738251 
L 361.877468 -172.738251 
L 362.442532 -172.738251 
L 363.007595 -172.738251 
L 363.572658 -172.738251 
L 364.137722 -172.738251 
L 364.702785 -172.738251 
L 365.267848 -172.738251 
L 365.832911 -172.738251 
L 366.397975 -172.738251 
L 366.963038 -172.738251 
L 367.528101 -172.738251 
L 368.093165 -172.738251 
L 368.658228 -172.738251 
L 369.223291 -172.738251 
L 369.788354 -172.738251 
L 370.353418 -172.738251 
L 370.918481 -172.738251 
L 371.483544 -172.738251 
L 372.048608 -172.738251 
L 372.613671 -172.738251 
L 373.178734 -172.738251 
L 373.743797 -172.738251 
L 374.308861 -172.738251 
L 374.873924 -172.738251 
L 375.438987 -172.738251 
L 376.004051 -172.738251 
L 376.569114 -172.738251 
L 377.134177 -172.738251 
L 377.699241 -172.738251 
L 378.264304 -172.738251 
L 378.829367 -172.738251 
L 379.39443 -172.738251 
L 379.959494 -172.738251 
L 380.524557 -172.738251 
L 381.08962 -172.738251 
L 381.654684 -172.738251 
L 382.219747 -172.738251 
L 382.78481 -172.738251 
L 383.349873 -172.738251 
L 383.914937 -172.738251 
L 384.48 -172.738251 
L 385.045063 -172.738251 
L 385.610127 -172.738251 
L 386.17519 -172.738251 
L 386.740253 -172.738251 
L 387.305316 -172.738251 
L 387.87038 -172.738251 
L 388.435443 -172.738251 
L 389.000506 -172.738251 
L 389.56557 -172.738251 
L 390.130633 -172.738251 
L 390.695696 -172.738251 
L 391.260759 -172.738251 
L 391.825823 -172.738251 
L 392.390886 -172.738251 
L 392.955949 -172.738251 
L 393.521013 -172.738251 
L 394.086076 -172.738251 
L 394.651139 -172.738251 
L 395.216203 -172.738251 
L 395.781266 -172.738251 
L 396.346329 -172.738251 
L 396.911392 -172.738251 
L 397.476456 -172.738251 
L 398.041519 -172.738251 
L 398.606582 -172.738251 
L 399.171646 -172.738251 
L 399.736709 -172.738251 
L 400.301772 -172.738251 
L 400.866835 -172.738251 
L 401.431899 -172.738251 
L 401.996962 -172.738251 
L 402.562025 -172.738251 
L 403.127089 -172.738251 
L 403.692152 -172.738251 
L 404.257215 -172.738251 
L 404.822278 -172.738251 
L 405.387342 -172.738251 
L 405.952405 -172.738251 
L 406.517468 -172.738251 
L 407.082532 -172.738251 
L 407.647595 -172.738251 
L 408.212658 -172.738251 
L 408.777722 -172.738251 
L 409.342785 -172.738251 
L 409.907848 -172.738251 
L 410.472911 -172.738251 
L 411.037975 -172.738251 
L 411.603038 -172.738251 
L 412.168101 -172.738251 
L 412.733165 -172.738251 
L 413.298228 -172.738251 
L 413.863291 -172.738251 
L 414.428354 -172.738251 
L 414.993418 -172.738251 
L 415.558481 -172.738251 
L 416.123544 -172.738251 
L 416.688608 -172.738251 
L 417.253671 -172.738251 
L 417.818734 -172.738251 
L 418.383797 -172.738251 
L 418.948861 -172.738251 
L 419.513924 -172.738251 
L 420.078987 -172.738251 
L 420.644051 -172.738251 
L 421.209114 -172.738251 
L 421.774177 -172.738251 
L 422.339241 -172.738251 
L 422.904304 -172.738251 
L 423.469367 -172.738251 
L 424.03443 -172.738251 
L 424.599494 -172.738251 
L 425.164557 -172.738251 
L 425.72962 -172.738251 
L 426.294684 -172.738251 
L 426.859747 -172.738251 
L 427.42481 -172.738251 
L 427.989873 -172.738251 
L 428.554937 -172.738251 
L 429.12 -172.738251 
L 429.685063 -172.738251 
L 430.250127 -172.738251 
L 430.81519 -172.738251 
L 431.380253 -172.738251 
L 431.945316 -172.738251 
L 432.51038 -172.738251 
L 433.075443 -172.738251 
L 433.640506 -172.738251 
L 434.20557 -172.738251 
L 434.770633 -172.738251 
L 435.335696 -172.738251 
L 435.900759 -172.738251 
L 436.465823 -172.738251 
L 437.030886 -172.738251 
L 437.595949 -172.738251 
L 438.161013 -172.738251 
L 438.726076 -172.738251 
L 439.291139 -172.738251 
L 439.856203 -172.738251 
L 440.421266 -172.738251 
L 440.986329 -172.738251 
L 441.551392 -172.738251 
L 442.116456 -172.738251 
L 442.681519 -172.738251 
L 443.246582 -172.738251 
L 443.811646 -172.738251 
L 444.376709 -172.738251 
L 444.941772 -172.738251 
L 445.506835 -172.738251 
L 446.071899 -172.738251 
L 446.636962 -172.738251 
L 447.202025 -172.738251 
L 447.767089 -172.738251 
L 448.332152 -172.738251 
L 448.897215 -172.738251 
L 449.462278 -172.738251 
L 450.027342 -172.738251 
L 450.592405 -172.738251 
L 451.157468 -172.738251 
L 451.722532 -172.738251 
L 452.287595 -172.738251 
L 452.852658 -172.738251 
L 453.417722 -172.738251 
L 453.982785 -172.738251 
L 454.547848 -172.738251 
L 455.112911 -172.738251 
L 455.677975 -172.738251 
L 456.243038 -172.738251 
L 456.808101 -172.738251 
L 457.373165 -172.738251 
L 457.938228 -172.738251 
L 458.503291 -172.738251 
L 459.068354 -172.738251 
L 459.633418 -172.738251 
L 460.198481 -172.738251 
L 460.763544 -172.738251 
L 461.328608 -172.738251 
L 461.893671 -172.738251 
L 462.458734 -172.738251 
L 463.023797 -172.738251 
L 463.588861 -172.738251 
L 464.153924 -172.738251 
L 464.718987 -172.738251 
L 465.284051 -172.738251 
L 465.849114 -172.738251 
L 466.414177 -172.738251 
L 466.979241 -172.738251 
L 467.544304 -172.738251 
L 468.109367 -172.738251 
L 468.67443 -172.738251 
L 469.239494 -172.738251 
L 469.804557 -172.738251 
L 470.36962 -172.738251 
L 470.934684 -172.738251 
L 471.499747 -172.738251 
L 472.06481 -172.738251 
L 472.629873 -172.738251 
L 473.194937 -172.738251 
L 473.76 -172.738251 
L 474.325063 -172.738251 
L 474.890127 -172.738251 
L 475.45519 -172.738251 
L 476.020253 -172.738251 
L 476.585316 -172.738251 
L 477.15038 -172.738251 
L 477.715443 -172.738251 
L 478.280506 -172.738251 
L 478.84557 -172.738251 
L 479.410633 -172.738251 
L 479.975696 -172.738251 
L 480.540759 -172.738251 
L 481.105823 -172.738251 
L 481.670886 -172.738251 
L 482.235949 -172.738251 
L 482.801013 -172.738251 
L 483.366076 -172.738251 
L 483.931139 -172.738251 
L 484.496203 -172.738251 
L 485.061266 -172.738251 
L 485.626329 -172.738251 
L 486.191392 -172.738251 
L 486.756456 -172.738251 
L 487.321519 -172.738251 
L 487.886582 -172.738251 
L 488.451646 -172.738251 
L 489.016709 -172.738251 
L 489.581772 -172.738251 
L 490.146835 -172.738251 
L 490.711899 -172.738251 
L 491.276962 -172.738251 
L 491.842025 -172.738251 
L 492.407089 -172.738251 
L 492.972152 -172.738251 
L 493.537215 -172.738251 
L 494.102278 -172.738251 
L 494.667342 -172.738251 
L 495.232405 -172.738251 
L 495.797468 -172.738251 
L 496.362532 -172.738251 
L 496.927595 -172.738251 
L 497.492658 -172.738251 
L 498.057722 -172.738251 
L 498.622785 -172.738251 
L 499.187848 -172.738251 
L 499.752911 -172.738251 
L 500.317975 -172.738251 
L 500.883038 -172.738251 
L 501.448101 -172.738251 
L 502.013165 -172.738251 
L 502.578228 -172.738251 
L 503.143291 -172.738251 
L 503.708354 -172.738251 
L 504.273418 -172.738251 
L 504.838481 -172.738251 
L 505.403544 -172.738251 
L 505.968608 -172.738251 
L 506.533671 -172.738251 
L 507.098734 -172.738251 
L 507.663797 -172.738251 
L 508.228861 -172.738251 
L 508.793924 -172.738251 
L 509.358987 -172.738251 
L 509.924051 -172.738251 
L 510.489114 -172.738251 
L 511.054177 -172.738251 
L 511.619241 -172.738251 
L 512.184304 -172.738251 
L 512.749367 -172.738251 
L 513.31443 -172.738251 
L 513.879494 -172.738251 
L 514.444557 -172.738251 
L 515.00962 -172.738251 
L 515.574684 -172.738251 
L 516.139747 -172.738251 
L 516.70481 -172.738251 
L 517.269873 -172.738251 
L 517.834937 -172.738251 
L 518.4 -172.738251 
L 518.4 -167.221307 
L 518.4 -167.221307 
L 517.834937 -167.221307 
L 517.269873 -167.221307 
L 516.70481 -167.221307 
L 516.139747 -167.221307 
L 515.574684 -167.221307 
L 515.00962 -167.221307 
L 514.444557 -167.221307 
L 513.879494 -167.221307 
L 513.31443 -167.221307 
L 512.749367 -167.221307 
L 512.184304 -167.221307 
L 511.619241 -167.221307 
L 511.054177 -167.221307 
L 510.489114 -167.221307 
L 509.924051 -167.221307 
L 509.358987 -167.221307 
L 508.793924 -167.221307 
L 508.228861 -167.221307 
L 507.663797 -167.221307 
L 507.098734 -167.221307 
L 506.533671 -167.221307 
L 505.968608 -167.221307 
L 505.403544 -167.221307 
L 504.838481 -167.221307 
L 504.273418 -167.221307 
L 503.708354 -167.221307 
L 503.143291 -167.221307 
L 502.578228 -167.221307 
L 502.013165 -167.221307 
L 501.448101 -167.221307 
L 500.883038 -167.221307 
L 500.317975 -167.221307 
L 499.752911 -167.221307 
L 499.187848 -167.221307 
L 498.622785 -167.221307 
L 498.057722 -167.221307 
L 497.492658 -167.221307 
L 496.927595 -167.221307 
L 496.362532 -167.221307 
L 495.797468 -167.221307 
L 495.232405 -167.221307 
L 494.667342 -167.221307 
L 494.102278 -167.221307 
L 493.537215 -167.221307 
L 492.972152 -167.221307 
L 492.407089 -167.221307 
L 491.842025 -167.221307 
L 491.276962 -167.221307 
L 490.711899 -167.221307 
L 490.146835 -167.221307 
L 489.581772 -167.221307 
L 489.016709 -167.221307 
L 488.451646 -167.221307 
L 487.886582 -167.221307 
L 487.321519 -167.221307 
L 486.756456 -167.221307 
L 486.191392 -167.221307 
L 485.626329 -167.221307 
L 485.061266 -167.221307 
L 484.496203 -167.221307 
L 483.931139 -167.221307 
L 483.366076 -167.221307 
L 482.801013 -167.221307 
L 482.235949 -167.221307 
L 481.670886 -167.221307 
L 481.105823 -167.221307 
L 480.540759 -167.221307 
L 479.975696 -167.221307 
L 479.410633 -167.221307 
L 478.84557 -167.221307 
L 478.280506 -167.221307 
L 477.715443 -167.221307 
L 477.15038 -167.221307 
L 476.585316 -167.221307 
L 476.020253 -167.221307 
L 475.45519 -167.221307 
L 474.890127 -167.221307 
L 474.325063 -167.221307 
L 473.76 -167.221307 
L 473.194937 -167.221307 
L 472.629873 -167.221307 
L 472.06481 -167.221307 
L 471.499747 -167.221307 
L 470.934684 -167.221307 
L 470.36962 -167.221307 
L 469.804557 -167.221307 
L 469.239494 -167.221307 
L 468.67443 -167.221307 
L 468.109367 -167.221307 
L 467.544304 -167.221307 
L 466.979241 -167.221307 
L 466.414177 -167.221307 
L 465.849114 -167.221307 
L 465.284051 -167.221307 
L 464.718987 -167.221307 
L 464.153924 -167.221307 
L 463.588861 -167.221307 
L 463.023797 -167.221307 
L 462.458734 -167.221307 
L 461.893671 -167.221307 
L 461.328608 -167.221307 
L 460.763544 -167.221307 
L 460.198481 -167.221307 
L 459.633418 -167.221307 
L 459.068354 -167.221307 
L 458.503291 -167.221307 
L 457.938228 -167.221307 
L 457.373165 -167.221307 
L 456.808101 -167.221307 
L 456.243038 -167.221307 
L 455.677975 -167.221307 
L 455.112911 -167.221307 
L 454.547848 -167.221307 
L 453.982785 -167.221307 
L 453.417722 -167.221307 
L 452.852658 -167.221307 
L 452.287595 -167.221307 
L 451.722532 -167.221307 
L 451.157468 -167.221307 
L 450.592405 -167.221307 
L 450.027342 -167.221307 
L 449.462278 -167.221307 
L 448.897215 -167.221307 
L 448.332152 -167.221307 
L 447.767089 -167.221307 
L 447.202025 -167.221307 
L 446.636962 -167.221307 
L 446.071899 -167.221307 
L 445.506835 -167.221307 
L 444.941772 -167.221307 
L 444.376709 -167.221307 
L 443.811646 -167.221307 
L 443.246582 -167.221307 
L 442.681519 -167.221307 
L 442.116456 -167.221307 
L 441.551392 -167.221307 
L 440.986329 -167.221307 
L 440.421266 -167.221307 
L 439.856203 -167.221307 
L 439.291139 -167.221307 
L 438.726076 -167.221307 
L 438.161013 -167.221307 
L 437.595949 -167.221307 
L 437.030886 -167.221307 
L 436.465823 -167.221307 
L 435.900759 -167.221307 
L 435.335696 -167.221307 
L 434.770633 -167.221307 
L 434.20557 -167.221307 
L 433.640506 -167.221307 
L 433.075443 -167.221307 
L 432.51038 -167.221307 
L 431.945316 -167.221307 
L 431.380253 -167.221307 
L 430.81519 -167.221307 
L 430.250127 -167.221307 
L 429.685063 -167.221307 
L 429.12 -167.221307 
L 428.554937 -167.221307 
L 427.989873 -167.221307 
L 427.42481 -167.221307 
L 426.859747 -167.221307 
L 426.294684 -167.221307 
L 425.72962 -167.221307 
L 425.164557 -167.221307 
L 424.599494 -167.221307 
L 424.03443 -167.221307 
L 423.469367 -167.221307 
L 422.904304 -167.221307 
L 422.339241 -167.221307 
L 421.774177 -167.221307 
L 421.209114 -167.221307 
L 420.644051 -167.221307 
L 420.078987 -167.221307 
L 419.513924 -167.221307 
L 418.948861 -167.221307 
L 418.383797 -167.221307 
L 417.818734 -167.221307 
L 417.253671 -167.221307 
L 416.688608 -167.221307 
L 416.123544 -167.221307 
L 415.558481 -167.221307 
L 414.993418 -167.221307 
L 414.428354 -167.221307 
L 413.863291 -167.221307 
L 413.298228 -167.221307 
L 412.733165 -167.221307 
L 412.168101 -167.221307 
L 411.603038 -167.221307 
L 411.037975 -167.221307 
L 410.472911 -167.221307 
L 409.907848 -167.221307 
L 409.342785 -167.221307 
L 408.777722 -167.221307 
L 408.212658 -167.221307 
L 407.647595 -167.221307 
L 407.082532 -167.221307 
L 406.517468 -167.221307 
L 405.952405 -167.221307 
L 405.387342 -167.221307 
L 404.822278 -167.221307 
L 404.257215 -167.221307 
L 403.692152 -167.221307 
L 403.127089 -167.221307 
L 402.562025 -167.221307 
L 401.996962 -167.221307 
L 401.431899 -167.221307 
L 400.866835 -167.221307 
L 400.301772 -167.221307 
L 399.736709 -167.221307 
L 399.171646 -167.221307 
L 398.606582 -167.221307 
L 398.041519 -167.221307 
L 397.476456 -167.221307 
L 396.911392 -167.221307 
L 396.346329 -167.221307 
L 395.781266 -167.221307 
L 395.216203 -167.221307 
L 394.651139 -167.221307 
L 394.086076 -167.221307 
L 393.521013 -167.221307 
L 392.955949 -167.221307 
L 392.390886 -167.221307 
L 391.825823 -167.221307 
L 391.260759 -167.221307 
L 390.695696 -167.221307 
L 390.130633 -167.221307 
L 389.56557 -167.221307 
L 389.000506 -167.221307 
L 388.435443 -167.221307 
L 387.87038 -167.221307 
L 387.305316 -167.221307 
L 386.740253 -167.221307 
L 386.17519 -167.221307 
L 385.610127 -167.221307 
L 385.045063 -167.221307 
L 384.48 -167.221307 
L 383.914937 -167.221307 
L 383.349873 -167.221307 
L 382.78481 -167.221307 
L 382.219747 -167.221307 
L 381.654684 -167.221307 
L 381.08962 -167.221307 
L 380.524557 -167.221307 
L 379.959494 -167.221307 
L 379.39443 -167.221307 
L 378.829367 -167.221307 
L 378.264304 -167.221307 
L 377.699241 -167.221307 
L 377.134177 -167.221307 
L 376.569114 -167.221307 
L 376.004051 -167.221307 
L 375.438987 -167.221307 
L 374.873924 -167.221307 
L 374.308861 -167.221307 
L 373.743797 -167.221307 
L 373.178734 -167.221307 
L 372.613671 -167.221307 
L 372.048608 -167.221307 
L 371.483544 -167.221307 
L 370.918481 -167.221307 
L 370.353418 -167.221307 
L 369.788354 -167.221307 
L 369.223291 -167.221307 
L 368.658228 -167.221307 
L 368.093165 -167.221307 
L 367.528101 -167.221307 
L 366.963038 -167.221307 
L 366.397975 -167.221307 
L 365.832911 -167.221307 
L 365.267848 -167.221307 
L 364.702785 -167.221307 
L 364.137722 -167.221307 
L 363.572658 -167.221307 
L 363.007595 -167.221307 
L 362.442532 -167.221307 
L 361.877468 -167.221307 
L 361.312405 -167.221307 
L 360.747342 -167.221307 
L 360.182278 -167.221307 
L 359.617215 -167.221307 
L 359.052152 -167.221307 
L 358.487089 -167.221307 
L 357.922025 -167.221307 
L 357.356962 -167.221307 
L 356.791899 -167.221307 
L 356.226835 -167.221307 
L 355.661772 -167.221307 
L 355.096709 -167.221307 
L 354.531646 -167.221307 
L 353.966582 -167.221307 
L 353.401519 -167.221307 
L 352.836456 -167.221307 
L 352.271392 -167.221307 
L 351.706329 -167.221307 
L 351.141266 -167.221307 
L 350.576203 -167.221307 
L 350.011139 -167.221307 
L 349.446076 -167.221307 
L 348.881013 -167.221307 
L 348.315949 -167.221307 
L 347.750886 -167.221307 
L 347.185823 -167.221307 
L 346.620759 -167.221307 
L 346.055696 -167.221307 
L 345.490633 -167.221307 
L 344.92557 -167.221307 
L 344.360506 -167.221307 
L 343.795443 -167.221307 
L 343.23038 -167.221307 
L 342.665316 -167.221307 
L 342.100253 -167.221307 
L 341.53519 -167.221307 
L 340.970127 -167.221307 
L 340.405063 -167.221307 
L 339.84 -167.221307 
L 339.274937 -167.221307 
L 338.709873 -167.221307 
L 338.14481 -167.221307 
L 337.579747 -167.221307 
L 337.014684 -167.221307 
L 336.44962 -167.221307 
L 335.884557 -167.221307 
L 335.319494 -167.221307 
L 334.75443 -167.221307 
L 334.189367 -167.221307 
L 333.624304 -167.221307 
L 333.059241 -167.221307 
L 332.494177 -167.221307 
L 331.929114 -167.221307 
L 331.364051 -167.221307 
L 330.798987 -167.221307 
L 330.233924 -167.221307 
L 329.668861 -167.221307 
L 329.103797 -167.221307 
L 328.538734 -167.221307 
L 327.973671 -167.221307 
L 327.408608 -167.221307 
L 326.843544 -167.221307 
L 326.278481 -167.221307 
L 325.713418 -167.221307 
L 325.148354 -167.221307 
L 324.583291 -167.221307 
L 324.018228 -167.221307 
L 323.453165 -167.221307 
L 322.888101 -167.221307 
L 322.323038 -167.221307 
L 321.757975 -167.221307 
L 321.192911 -167.221307 
L 320.627848 -167.221307 
L 320.062785 -167.221307 
L 319.497722 -167.221307 
L 318.932658 -167.221307 
L 318.367595 -167.221307 
L 317.802532 -167.221307 
L 317.237468 -167.221307 
L 316.672405 -167.221307 
L 316.107342 -167.221307 
L 315.542278 -167.221307 
L 314.977215 -167.221307 
L 314.412152 -167.221307 
L 313.847089 -167.221307 
L 313.282025 -167.221307 
L 312.716962 -167.221307 
L 312.151899 -167.221307 
L 311.586835 -167.221307 
L 311.021772 -167.221307 
L 310.456709 -167.221307 
L 309.891646 -167.221307 
L 309.326582 -167.221307 
L 308.761519 -167.221307 
L 308.196456 -167.221307 
L 307.631392 -167.221307 
L 307.066329 -167.221307 
L 306.501266 -167.221307 
L 305.936203 -167.221307 
L 305.371139 -167.221307 
L 304.806076 -167.221307 
L 304.241013 -167.221307 
L 303.675949 -167.221307 
L 303.110886 -167.221307 
L 302.545823 -167.221307 
L 301.980759 -167.221307 
L 301.415696 -167.221307 
L 300.850633 -167.221307 
L 300.28557 -167.221307 
L 299.720506 -167.221307 
L 299.155443 -167.221307 
L 298.59038 -167.221307 
L 298.025316 -167.221307 
L 297.460253 -167.221307 
L 296.89519 -167.221307 
L 296.330127 -167.221307 
L 295.765063 -167.221307 
L 295.2 -167.221307 
L 294.634937 -167.221307 
L 294.069873 -167.221307 
L 293.50481 -167.221307 
L 292.939747 -167.221307 
L 292.374684 -167.221307 
L 291.80962 -167.221307 
L 291.244557 -167.221307 
L 290.679494 -167.221307 
L 290.11443 -167.221307 
L 289.549367 -167.221307 
L 288.984304 -167.221307 
L 288.419241 -167.221307 
L 287.854177 -167.221307 
L 287.289114 -167.221307 
L 286.724051 -167.221307 
L 286.158987 -167.221307 
L 285.593924 -167.221307 
L 285.028861 -167.221307 
L 284.463797 -167.221307 
L 283.898734 -167.221307 
L 283.333671 -167.221307 
L 282.768608 -167.221307 
L 282.203544 -167.221307 
L 281.638481 -167.221307 
L 281.073418 -167.221307 
L 280.508354 -167.221307 
L 279.943291 -167.221307 
L 279.378228 -167.221307 
L 278.813165 -167.221307 
L 278.248101 -167.221307 
L 277.683038 -167.221307 
L 277.117975 -167.221307 
L 276.552911 -167.221307 
L 275.987848 -167.221307 
L 275.422785 -167.221307 
L 274.857722 -167.221307 
L 274.292658 -167.221307 
L 273.727595 -167.221307 
L 273.162532 -167.221307 
L 272.597468 -167.221307 
L 272.032405 -167.221307 
L 271.467342 -167.221307 
L 270.902278 -167.221307 
L 270.337215 -167.221307 
L 269.772152 -167.221307 
L 269.207089 -167.221307 
L 268.642025 -167.221307 
L 268.076962 -167.221307 
L 267.511899 -167.221307 
L 266.946835 -167.221307 
L 266.381772 -167.221307 
L 265.816709 -167.221307 
L 265.251646 -167.221307 
L 264.686582 -167.221307 
L 264.121519 -167.221307 
L 263.556456 -167.221307 
L 262.991392 -167.221307 
L 262.426329 -167.221307 
L 261.861266 -167.221307 
L 261.296203 -167.221307 
L 260.731139 -167.221307 
L 260.166076 -167.221307 
L 259.601013 -167.221307 
L 259.035949 -167.221307 
L 258.470886 -167.221307 
L 257.905823 -167.221307 
L 257.340759 -167.221307 
L 256.775696 -167.221307 
L 256.210633 -167.221307 
L 255.64557 -167.221307 
L 255.080506 -167.221307 
L 254.515443 -167.221307 
L 253.95038 -167.221307 
L 253.385316 -167.221307 
L 252.820253 -167.221307 
L 252.25519 -167.221307 
L 251.690127 -167.221307 
L 251.125063 -167.221307 
L 250.56 -167.221307 
L 249.994937 -167.221307 
L 249.429873 -167.221307 
L 248.86481 -167.221307 
L 248.299747 -167.221307 
L 247.734684 -167.221307 
L 247.16962 -167.221307 
L 246.604557 -167.221307 
L 246.039494 -167.221307 
L 245.47443 -167.221307 
L 244.909367 -167.221307 
L 244.344304 -167.221307 
L 243.779241 -167.221307 
L 243.214177 -167.221307 
L 242.649114 -167.221307 
L 242.084051 -167.221307 
L 241.518987 -167.221307 
L 240.953924 -167.221307 
L 240.388861 -167.221307 
L 239.823797 -167.221307 
L 239.258734 -167.221307 
L 238.693671 -167.221307 
L 238.128608 -167.221307 
L 237.563544 -167.221307 
L 236.998481 -167.221307 
L 236.433418 -167.221307 
L 235.868354 -167.221307 
L 235.303291 -167.221307 
L 234.738228 -167.221307 
L 234.173165 -167.221307 
L 233.608101 -167.221307 
L 233.043038 -167.221307 
L 232.477975 -167.221307 
L 231.912911 -167.221307 
L 231.347848 -167.221307 
L 230.782785 -167.221307 
L 230.217722 -167.221307 
L 229.652658 -167.221307 
L 229.087595 -167.221307 
L 228.522532 -167.221307 
L 227.957468 -167.221307 
L 227.392405 -167.221307 
L 226.827342 -167.221307 
L 226.262278 -167.221307 
L 225.697215 -167.221307 
L 225.132152 -167.221307 
L 224.567089 -167.221307 
L 224.002025 -167.221307 
L 223.436962 -167.221307 
L 222.871899 -167.221307 
L 222.306835 -167.221307 
L 221.741772 -167.221307 
L 221.176709 -167.221307 
L 220.611646 -167.221307 
L 220.046582 -167.221307 
L 219.481519 -167.221307 
L 218.916456 -167.221307 
L 218.351392 -167.221307 
L 217.786329 -167.221307 
L 217.221266 -167.221307 
L 216.656203 -167.221307 
L 216.091139 -167.221307 
L 215.526076 -167.221307 
L 214.961013 -167.221307 
L 214.395949 -167.221307 
L 213.830886 -167.221307 
L 213.265823 -167.221307 
L 212.700759 -167.221307 
L 212.135696 -167.221307 
L 211.570633 -167.221307 
L 211.00557 -167.221307 
L 210.440506 -167.221307 
L 209.875443 -167.221307 
L 209.31038 -167.221307 
L 208.745316 -167.221307 
L 208.180253 -167.221307 
L 207.61519 -167.221307 
L 207.050127 -167.221307 
L 206.485063 -167.221307 
L 205.92 -167.221307 
L 205.354937 -167.221307 
L 204.789873 -167.221307 
L 204.22481 -167.221307 
L 203.659747 -167.221307 
L 203.094684 -167.221307 
L 202.52962 -167.221307 
L 201.964557 -167.221307 
L 201.399494 -167.221307 
L 200.83443 -167.221307 
L 200.269367 -167.221307 
L 199.704304 -167.221307 
L 199.139241 -167.221307 
L 198.574177 -167.221307 
L 198.009114 -167.221307 
L 197.444051 -167.221307 
L 196.878987 -167.221307 
L 196.313924 -167.221307 
L 195.748861 -167.221307 
L 195.183797 -167.221307 
L 194.618734 -167.221307 
L 194.053671 -167.221307 
L 193.488608 -167.221307 
L 192.923544 -167.221307 
L 192.358481 -167.221307 
L 191.793418 -167.221307 
L 191.228354 -167.221307 
L 190.663291 -167.221307 
L 190.098228 -167.221307 
L 189.533165 -167.221307 
L 188.968101 -167.221307 
L 188.403038 -167.221307 
L 187.837975 -167.221307 
L 187.272911 -167.221307 
L 186.707848 -167.221307 
L 186.142785 -167.221307 
L 185.577722 -167.221307 
L 185.012658 -167.221307 
L 184.447595 -167.221307 
L 183.882532 -167.221307 
L 183.317468 -167.221307 
L 182.752405 -167.221307 
L 182.187342 -167.221307 
L 181.622278 -167.221307 
L 181.057215 -167.221307 
L 180.492152 -167.221307 
L 179.927089 -167.221307 
L 179.362025 -167.221307 
L 178.796962 -167.221307 
L 178.231899 -167.221307 
L 177.666835 -167.221307 
L 177.101772 -167.221307 
L 176.536709 -167.221307 
L 175.971646 -167.221307 
L 175.406582 -167.221307 
L 174.841519 -167.221307 
L 174.276456 -167.221307 
L 173.711392 -167.221307 
L 173.146329 -167.221307 
L 172.581266 -167.221307 
L 172.016203 -167.221307 
L 171.451139 -167.221307 
L 170.886076 -167.221307 
L 170.321013 -167.221307 
L 169.755949 -167.221307 
L 169.190886 -167.221307 
L 168.625823 -167.221307 
L 168.060759 -167.221307 
L 167.495696 -167.221307 
L 166.930633 -167.221307 
L 166.36557 -167.221307 
L 165.800506 -167.221307 
L 165.235443 -167.221307 
L 164.67038 -167.221307 
L 164.105316 -167.221307 
L 163.540253 -167.221307 
L 162.97519 -167.221307 
L 162.410127 -167.221307 
L 161.845063 -167.221307 
L 161.28 -167.221307 
L 160.714937 -167.221307 
L 160.149873 -167.221307 
L 159.58481 -167.221307 
L 159.019747 -167.221307 
L 158.454684 -167.221307 
L 157.88962 -167.221307 
L 157.324557 -167.221307 
L 156.759494 -167.221307 
L 156.19443 -167.221307 
L 155.629367 -167.221307 
L 155.064304 -167.221307 
L 154.499241 -167.221307 
L 153.934177 -167.221307 
L 153.369114 -167.221307 
L 152.804051 -167.221307 
L 152.238987 -167.221307 
L 151.673924 -167.221307 
L 151.108861 -167.221307 
L 150.543797 -167.221307 
L 149.978734 -167.221307 
L 149.413671 -167.221307 
L 148.848608 -167.221307 
L 148.283544 -167.221307 
L 147.718481 -167.221307 
L 147.153418 -167.221307 
L 146.588354 -167.221307 
L 146.023291 -167.221307 
L 145.458228 -167.221307 
L 144.893165 -167.221307 
L 144.328101 -167.221307 
L 143.763038 -167.221307 
L 143.197975 -167.221307 
L 142.632911 -167.221307 
L 142.067848 -167.221307 
L 141.502785 -167.221307 
L 140.937722 -167.221307 
L 140.372658 -167.221307 
L 139.807595 -167.221307 
L 139.242532 -167.221307 
L 138.677468 -167.221307 
L 138.112405 -167.221307 
L 137.547342 -167.221307 
L 136.982278 -167.221307 
L 136.417215 -167.221307 
L 135.852152 -167.221307 
L 135.287089 -167.221307 
L 134.722025 -167.221307 
L 134.156962 -167.221307 
L 133.591899 -167.221307 
L 133.026835 -167.221307 
L 132.461772 -167.221307 
L 131.896709 -167.221307 
L 131.331646 -167.221307 
L 130.766582 -167.221307 
L 130.201519 -167.221307 
L 129.636456 -167.221307 
L 129.071392 -167.221307 
L 128.506329 -167.221307 
L 127.941266 -167.221307 
L 127.376203 -167.221307 
L 126.811139 -167.221307 
L 126.246076 -167.221307 
L 125.681013 -167.221307 
L 125.115949 -167.221307 
L 124.550886 -167.221307 
L 123.985823 -167.221307 
L 123.420759 -167.221307 
L 122.855696 -167.221307 
L 122.290633 -167.221307 
L 121.72557 -167.221307 
L 121.160506 -167.221307 
L 120.595443 -167.221307 
L 120.03038 -167.221307 
L 119.465316 -167.221307 
L 118.900253 -167.221307 
L 118.33519 -167.221307 
L 117.770127 -167.221307 
L 117.205063 -167.221307 
L 116.64 -167.221307 
L 116.074937 -167.221307 
L 115.509873 -167.221307 
L 114.94481 -167.221307 
L 114.379747 -167.221307 
L 113.814684 -167.221307 
L 113.24962 -167.221307 
L 112.684557 -167.221307 
L 112.119494 -167.221307 
L 111.55443 -167.221307 
L 110.989367 -167.221307 
L 110.424304 -167.221307 
L 109.859241 -167.221307 
L 109.294177 -167.221307 
L 108.729114 -167.221307 
L 108.164051 -167.221307 
L 107.598987 -167.221307 
L 107.033924 -167.221307 
L 106.468861 -167.221307 
L 105.903797 -167.221307 
L 105.338734 -167.221307 
L 104.773671 -167.221307 
L 104.208608 -167.221307 
L 103.643544 -167.221307 
L 103.078481 -167.221307 
L 102.513418 -167.221307 
L 101.948354 -167.221307 
L 101.383291 -167.221307 
L 100.818228 -167.221307 
L 100.253165 -167.221307 
L 99.688101 -167.221307 
L 99.123038 -167.221307 
L 98.557975 -167.221307 
L 97.992911 -167.221307 
L 97.427848 -167.221307 
L 96.862785 -167.221307 
L 96.297722 -167.221307 
L 95.732658 -167.221307 
L 95.167595 -167.221307 
L 94.602532 -167.221307 
L 94.037468 -167.221307 
L 93.472405 -167.221307 
L 92.907342 -167.221307 
L 92.342278 -167.221307 
L 91.777215 -167.221307 
L 91.212152 -167.221307 
L 90.647089 -167.221307 
L 90.082025 -167.221307 
L 89.516962 -167.221307 
L 88.951899 -167.221307 
L 88.386835 -167.221307 
L 87.821772 -167.221307 
L 87.256709 -167.221307 
L 86.691646 -167.221307 
L 86.126582 -167.221307 
L 85.561519 -167.221307 
L 84.996456 -167.221307 
L 84.431392 -167.221307 
L 83.866329 -167.221307 
L 83.301266 -167.221307 
L 82.736203 -167.221307 
L 82.171139 -167.221307 
L 81.606076 -167.221307 
L 81.041013 -167.221307 
L 80.475949 -167.221307 
L 79.910886 -167.221307 
L 79.345823 -167.221307 
L 78.780759 -167.221307 
L 78.215696 -167.221307 
L 77.650633 -167.221307 
L 77.08557 -167.221307 
L 76.520506 -167.221307 
L 75.955443 -167.221307 
L 75.39038 -167.221307 
L 74.825316 -167.221307 
L 74.260253 -167.221307 
L 73.69519 -167.221307 
L 73.130127 -167.221307 
L 72.565063 -167.221307 
L 72 -167.221307 
z
" id="m7d098d7e56"/>
    </defs>
    <g clip-path="url(#pdfa8f73e7a)">
     <use style="fill-opacity:0.15;" x="0" xlink:href="#m7d098d7e56" y="360"/>
    </g>
   </g>
   <g id="matplotlib.axis_1">
    <g id="xtick_1">
     <g id="line2d_1">
      <defs>
       <path d="M 0 0 
L 0 3.5 
" id="mbe980befa9" style="stroke:#000000;stroke-width:0.8;"/>
      </defs>
      <g>
       <use style="stroke:#000000;stroke-width:0.8;" x="72" xlink:href="#mbe980befa9" y="320.4"/>
      </g>
     </g>
     <g id="text_1">
      <!-- 0.0 -->
      <g transform="translate(60.867812 338.037813)scale(0.14 -0.14)">
       <defs>
        <path d="M 2034 4250 
Q 1547 4250 1301 3770 
Q 1056 3291 1056 2328 
Q 1056 1369 1301 889 
Q 1547 409 2034 409 
Q 2525 409 2770 889 
Q 3016 1369 3016 2328 
Q 3016 3291 2770 3770 
Q 2525 4250 2034 4250 
z
M 2034 4750 
Q 2819 4750 3233 4129 
Q 3647 3509 3647 2328 
Q 3647 1150 3233 529 
Q 2819 -91 2034 -91 
Q 1250 -91 836 529 
Q 422 1150 422 2328 
Q 422 3509 836 4129 
Q 1250 4750 2034 4750 
z
" id="DejaVuSans-30" transform="scale(0.015625)"/>
        <path d="M 684 794 
L 1344 794 
L 1344 0 
L 684 0 
L 684 794 
z
" id="DejaVuSans-2e" transform="scale(0.015625)"/>
       </defs>
       <use xlink:href="#DejaVuSans-30"/>
       <use x="63.623047" xlink:href="#DejaVuSans-2e"/>
       <use x="95.410156" xlink:href="#DejaVuSans-30"/>
      </g>
     </g>
    </g>
    <g id="xtick_2">
     <g id="line2d_2">
      <g>
       <use style="stroke:#000000;stroke-width:0.8;" x="127.822329" xlink:href="#mbe980befa9" y="320.4"/>
      </g>
     </g>
     <g id="text_2">
      <!-- 2.5 -->
      <g transform="translate(116.690141 338.037813)scale(0.14 -0.14)">
       <defs>
        <path d="M 1228 531 
L 3431 531 
L 3431 0 
L 469 0 
L 469 531 
Q 828 903 1448 1529 
Q 2069 2156 2228 2338 
Q 2531 2678 2651 2914 
Q 2772 3150 2772 3378 
Q 2772 3750 2511 3984 
Q 2250 4219 1831 4219 
Q 1534 4219 1204 4116 
Q 875 4013 500 3803 
L 500 4441 
Q 881 4594 1212 4672 
Q 1544 4750 1819 4750 
Q 2544 4750 2975 4387 
Q 3406 4025 3406 3419 
Q 3406 3131 3298 2873 
Q 3191 2616 2906 2266 
Q 2828 2175 2409 1742 
Q 1991 1309 1228 531 
z
" id="DejaVuSans-32" transform="scale(0.015625)"/>
        <path d="M 691 4666 
L 3169 4666 
L 3169 4134 
L 1269 4134 
L 1269 2991 
Q 1406 3038 1543 3061 
Q 1681 3084 1819 3084 
Q 2600 3084 3056 2656 
Q 3513 2228 3513 1497 
Q 3513 744 3044 326 
Q 2575 -91 1722 -91 
Q 1428 -91 1123 -41 
Q 819 9 494 109 
L 494 744 
Q 775 591 1075 516 
Q 1375 441 1709 441 
Q 2250 441 2565 725 
Q 2881 1009 2881 1497 
Q 2881 1984 2565 2268 
Q 2250 2553 1709 2553 
Q 1456 2553 1204 2497 
Q 953 2441 691 2322 
L 691 4666 
z
" id="DejaVuSans-35" transform="scale(0.015625)"/>
       </defs>
       <use xlink:href="#DejaVuSans-32"/>
       <use x="63.623047" xlink:href="#DejaVuSans-2e"/>
       <use x="95.410156" xlink:href="#DejaVuSans-35"/>
      </g>
     </g>
    </g>
    <g id="xtick_3">
     <g id="line2d_3">
      <g>
       <use style="stroke:#000000;stroke-width:0.8;" x="183.644658" xlink:href="#mbe980befa9" y="320.4"/>
      </g>
     </g>
     <g id="text_3">
      <!-- 5.0 -->
      <g transform="translate(172.51247 338.037813)scale(0.14 -0.14)">
       <use xlink:href="#DejaVuSans-35"/>
       <use x="63.623047" xlink:href="#DejaVuSans-2e"/>
       <use x="95.410156" xlink:href="#DejaVuSans-30"/>
      </g>
     </g>
    </g>
    <g id="xtick_4">
     <g id="line2d_4">
      <g>
       <use style="stroke:#000000;stroke-width:0.8;" x="239.466987" xlink:href="#mbe980befa9" y="320.4"/>
      </g>
     </g>
     <g id="text_4">
      <!-- 7.5 -->
      <g transform="translate(228.334799 338.037813)scale(0.14 -0.14)">
       <defs>
        <path d="M 525 4666 
L 3525 4666 
L 3525 4397 
L 1831 0 
L 1172 0 
L 2766 4134 
L 525 4134 
L 525 4666 
z
" id="DejaVuSans-37" transform="scale(0.015625)"/>
       </defs>
       <use xlink:href="#DejaVuSans-37"/>
       <use x="63.623047" xlink:href="#DejaVuSans-2e"/>
       <use x="95.410156" xlink:href="#DejaVuSans-35"/>
      </g>
     </g>
    </g>
    <g id="xtick_5">
     <g id="line2d_5">
      <g>
       <use style="stroke:#000000;stroke-width:0.8;" x="295.289316" xlink:href="#mbe980befa9" y="320.4"/>
      </g>
     </g>
     <g id="text_5">
      <!-- 10.0 -->
      <g transform="translate(279.703378 338.037813)scale(0.14 -0.14)">
       <defs>
        <path d="M 794 531 
L 1825 531 
L 1825 4091 
L 703 3866 
L 703 4441 
L 1819 4666 
L 2450 4666 
L 2450 531 
L 3481 531 
L 3481 0 
L 794 0 
L 794 531 
z
" id="DejaVuSans-31" transform="scale(0.015625)"/>
       </defs>
       <use xlink:href="#DejaVuSans-31"/>
       <use x="63.623047" xlink:href="#DejaVuSans-30"/>
       <use x="127.246094" xlink:href="#DejaVuSans-2e"/>
       <use x="159.033203" xlink:href="#DejaVuSans-30"/>
      </g>
     </g>
    </g>
    <g id="xtick_6">
     <g id="line2d_6">
      <g>
       <use style="stroke:#000000;stroke-width:0.8;" x="351.111645" xlink:href="#mbe980befa9" y="320.4"/>
      </g>
     </g>
     <g id="text_6">
      <!-- 12.5 -->
      <g transform="translate(335.525707 338.037813)scale(0.14 -0.14)">
       <use xlink:href="#DejaVuSans-31"/>
       <use x="63.623047" xlink:href="#DejaVuSans-32"/>
       <use x="127.246094" xlink:href="#DejaVuSans-2e"/>
       <use x="159.033203" xlink:href="#DejaVuSans-35"/>
      </g>
     </g>
    </g>
    <g id="xtick_7">
     <g id="line2d_7">
      <g>
       <use style="stroke:#000000;stroke-width:0.8;" x="406.933974" xlink:href="#mbe980befa9" y="320.4"/>
      </g>
     </g>
     <g id="text_7">
      <!-- 15.0 -->
      <g transform="translate(391.348036 338.037813)scale(0.14 -0.14)">
       <use xlink:href="#DejaVuSans-31"/>
       <use x="63.623047" xlink:href="#DejaVuSans-35"/>
       <use x="127.246094" xlink:href="#DejaVuSans-2e"/>
       <use x="159.033203" xlink:href="#DejaVuSans-30"/>
      </g>
     </g>
    </g>
    <g id="xtick_8">
     <g id="line2d_8">
      <g>
       <use style="stroke:#000000;stroke-width:0.8;" x="462.756303" xlink:href="#mbe980befa9" y="320.4"/>
      </g>
     </g>
     <g id="text_8">
      <!-- 17.5 -->
      <g transform="translate(447.170365 338.037813)scale(0.14 -0.14)">
       <use xlink:href="#DejaVuSans-31"/>
       <use x="63.623047" xlink:href="#DejaVuSans-37"/>
       <use x="127.246094" xlink:href="#DejaVuSans-2e"/>
       <use x="159.033203" xlink:href="#DejaVuSans-35"/>
      </g>
     </g>
    </g>
    <g id="text_9">
     <!-- Time [Seconds] -->
     <g transform="translate(233.23 357.106875)scale(0.16 -0.16)">
      <defs>
       <path d="M -19 4666 
L 3928 4666 
L 3928 4134 
L 2272 4134 
L 2272 0 
L 1638 0 
L 1638 4134 
L -19 4134 
L -19 4666 
z
" id="DejaVuSans-54" transform="scale(0.015625)"/>
       <path d="M 603 3500 
L 1178 3500 
L 1178 0 
L 603 0 
L 603 3500 
z
M 603 4863 
L 1178 4863 
L 1178 4134 
L 603 4134 
L 603 4863 
z
" id="DejaVuSans-69" transform="scale(0.015625)"/>
       <path d="M 3328 2828 
Q 3544 3216 3844 3400 
Q 4144 3584 4550 3584 
Q 5097 3584 5394 3201 
Q 5691 2819 5691 2113 
L 5691 0 
L 5113 0 
L 5113 2094 
Q 5113 2597 4934 2840 
Q 4756 3084 4391 3084 
Q 3944 3084 3684 2787 
Q 3425 2491 3425 1978 
L 3425 0 
L 2847 0 
L 2847 2094 
Q 2847 2600 2669 2842 
Q 2491 3084 2119 3084 
Q 1678 3084 1418 2786 
Q 1159 2488 1159 1978 
L 1159 0 
L 581 0 
L 581 3500 
L 1159 3500 
L 1159 2956 
Q 1356 3278 1631 3431 
Q 1906 3584 2284 3584 
Q 2666 3584 2933 3390 
Q 3200 3197 3328 2828 
z
" id="DejaVuSans-6d" transform="scale(0.015625)"/>
       <path d="M 3597 1894 
L 3597 1613 
L 953 1613 
Q 991 1019 1311 708 
Q 1631 397 2203 397 
Q 2534 397 2845 478 
Q 3156 559 3463 722 
L 3463 178 
Q 3153 47 2828 -22 
Q 2503 -91 2169 -91 
Q 1331 -91 842 396 
Q 353 884 353 1716 
Q 353 2575 817 3079 
Q 1281 3584 2069 3584 
Q 2775 3584 3186 3129 
Q 3597 2675 3597 1894 
z
M 3022 2063 
Q 3016 2534 2758 2815 
Q 2500 3097 2075 3097 
Q 1594 3097 1305 2825 
Q 1016 2553 972 2059 
L 3022 2063 
z
" id="DejaVuSans-65" transform="scale(0.015625)"/>
       <path id="DejaVuSans-20" transform="scale(0.015625)"/>
       <path d="M 550 4863 
L 1875 4863 
L 1875 4416 
L 1125 4416 
L 1125 -397 
L 1875 -397 
L 1875 -844 
L 550 -844 
L 550 4863 
z
" id="DejaVuSans-5b" transform="scale(0.015625)"/>
       <path d="M 3425 4513 
L 3425 3897 
Q 3066 4069 2747 4153 
Q 2428 4238 2131 4238 
Q 1616 4238 1336 4038 
Q 1056 3838 1056 3469 
Q 1056 3159 1242 3001 
Q 1428 2844 1947 2747 
L 2328 2669 
Q 3034 2534 3370 2195 
Q 3706 1856 3706 1288 
Q 3706 609 3251 259 
Q 2797 -91 1919 -91 
Q 1588 -91 1214 -16 
Q 841 59 441 206 
L 441 856 
Q 825 641 1194 531 
Q 1563 422 1919 422 
Q 2459 422 2753 634 
Q 3047 847 3047 1241 
Q 3047 1584 2836 1778 
Q 2625 1972 2144 2069 
L 1759 2144 
Q 1053 2284 737 2584 
Q 422 2884 422 3419 
Q 422 4038 858 4394 
Q 1294 4750 2059 4750 
Q 2388 4750 2728 4690 
Q 3069 4631 3425 4513 
z
" id="DejaVuSans-53" transform="scale(0.015625)"/>
       <path d="M 3122 3366 
L 3122 2828 
Q 2878 2963 2633 3030 
Q 2388 3097 2138 3097 
Q 1578 3097 1268 2742 
Q 959 2388 959 1747 
Q 959 1106 1268 751 
Q 1578 397 2138 397 
Q 2388 397 2633 464 
Q 2878 531 3122 666 
L 3122 134 
Q 2881 22 2623 -34 
Q 2366 -91 2075 -91 
Q 1284 -91 818 406 
Q 353 903 353 1747 
Q 353 2603 823 3093 
Q 1294 3584 2113 3584 
Q 2378 3584 2631 3529 
Q 2884 3475 3122 3366 
z
" id="DejaVuSans-63" transform="scale(0.015625)"/>
       <path d="M 1959 3097 
Q 1497 3097 1228 2736 
Q 959 2375 959 1747 
Q 959 1119 1226 758 
Q 1494 397 1959 397 
Q 2419 397 2687 759 
Q 2956 1122 2956 1747 
Q 2956 2369 2687 2733 
Q 2419 3097 1959 3097 
z
M 1959 3584 
Q 2709 3584 3137 3096 
Q 3566 2609 3566 1747 
Q 3566 888 3137 398 
Q 2709 -91 1959 -91 
Q 1206 -91 779 398 
Q 353 888 353 1747 
Q 353 2609 779 3096 
Q 1206 3584 1959 3584 
z
" id="DejaVuSans-6f" transform="scale(0.015625)"/>
       <path d="M 3513 2113 
L 3513 0 
L 2938 0 
L 2938 2094 
Q 2938 2591 2744 2837 
Q 2550 3084 2163 3084 
Q 1697 3084 1428 2787 
Q 1159 2491 1159 1978 
L 1159 0 
L 581 0 
L 581 3500 
L 1159 3500 
L 1159 2956 
Q 1366 3272 1645 3428 
Q 1925 3584 2291 3584 
Q 2894 3584 3203 3211 
Q 3513 2838 3513 2113 
z
" id="DejaVuSans-6e" transform="scale(0.015625)"/>
       <path d="M 2906 2969 
L 2906 4863 
L 3481 4863 
L 3481 0 
L 2906 0 
L 2906 525 
Q 2725 213 2448 61 
Q 2172 -91 1784 -91 
Q 1150 -91 751 415 
Q 353 922 353 1747 
Q 353 2572 751 3078 
Q 1150 3584 1784 3584 
Q 2172 3584 2448 3432 
Q 2725 3281 2906 2969 
z
M 947 1747 
Q 947 1113 1208 752 
Q 1469 391 1925 391 
Q 2381 391 2643 752 
Q 2906 1113 2906 1747 
Q 2906 2381 2643 2742 
Q 2381 3103 1925 3103 
Q 1469 3103 1208 2742 
Q 947 2381 947 1747 
z
" id="DejaVuSans-64" transform="scale(0.015625)"/>
       <path d="M 2834 3397 
L 2834 2853 
Q 2591 2978 2328 3040 
Q 2066 3103 1784 3103 
Q 1356 3103 1142 2972 
Q 928 2841 928 2578 
Q 928 2378 1081 2264 
Q 1234 2150 1697 2047 
L 1894 2003 
Q 2506 1872 2764 1633 
Q 3022 1394 3022 966 
Q 3022 478 2636 193 
Q 2250 -91 1575 -91 
Q 1294 -91 989 -36 
Q 684 19 347 128 
L 347 722 
Q 666 556 975 473 
Q 1284 391 1588 391 
Q 1994 391 2212 530 
Q 2431 669 2431 922 
Q 2431 1156 2273 1281 
Q 2116 1406 1581 1522 
L 1381 1569 
Q 847 1681 609 1914 
Q 372 2147 372 2553 
Q 372 3047 722 3315 
Q 1072 3584 1716 3584 
Q 2034 3584 2315 3537 
Q 2597 3491 2834 3397 
z
" id="DejaVuSans-73" transform="scale(0.015625)"/>
       <path d="M 1947 4863 
L 1947 -844 
L 622 -844 
L 622 -397 
L 1369 -397 
L 1369 4416 
L 622 4416 
L 622 4863 
L 1947 4863 
z
" id="DejaVuSans-5d" transform="scale(0.015625)"/>
      </defs>
      <use xlink:href="#DejaVuSans-54"/>
      <use x="57.958984" xlink:href="#DejaVuSans-69"/>
      <use x="85.742188" xlink:href="#DejaVuSans-6d"/>
      <use x="183.154297" xlink:href="#DejaVuSans-65"/>
      <use x="244.677734" xlink:href="#DejaVuSans-20"/>
      <use x="276.464844" xlink:href="#DejaVuSans-5b"/>
      <use x="315.478516" xlink:href="#DejaVuSans-53"/>
      <use x="378.955078" xlink:href="#DejaVuSans-65"/>
      <use x="440.478516" xlink:href="#DejaVuSans-63"/>
      <use x="495.458984" xlink:href="#DejaVuSans-6f"/>
      <use x="556.640625" xlink:href="#DejaVuSans-6e"/>
      <use x="620.019531" xlink:href="#DejaVuSans-64"/>
      <use x="683.496094" xlink:href="#DejaVuSans-73"/>
      <use x="735.595703" xlink:href="#DejaVuSans-5d"/>
     </g>
    </g>
   </g>
   <g id="matplotlib.axis_2">
    <g id="ytick_1">
     <g id="line2d_9">
      <defs>
       <path d="M 0 0 
L -3.5 0 
" id="m16a591cbf7" style="stroke:#000000;stroke-width:0.8;"/>
      </defs>
      <g>
       <use style="stroke:#000000;stroke-width:0.8;" x="72" xlink:href="#m16a591cbf7" y="281.752617"/>
      </g>
     </g>
     <g id="text_10">
      <!-- 0.0 -->
      <g transform="translate(42.735625 287.071523)scale(0.14 -0.14)">
       <use xlink:href="#DejaVuSans-30"/>
       <use x="63.623047" xlink:href="#DejaVuSans-2e"/>
       <use x="95.410156" xlink:href="#DejaVuSans-30"/>
      </g>
     </g>
    </g>
    <g id="ytick_2">
     <g id="line2d_10">
      <g>
       <use style="stroke:#000000;stroke-width:0.8;" x="72" xlink:href="#m16a591cbf7" y="231.891945"/>
      </g>
     </g>
     <g id="text_11">
      <!-- 0.5 -->
      <g transform="translate(42.735625 237.210851)scale(0.14 -0.14)">
       <use xlink:href="#DejaVuSans-30"/>
       <use x="63.623047" xlink:href="#DejaVuSans-2e"/>
       <use x="95.410156" xlink:href="#DejaVuSans-35"/>
      </g>
     </g>
    </g>
    <g id="ytick_3">
     <g id="line2d_11">
      <g>
       <use style="stroke:#000000;stroke-width:0.8;" x="72" xlink:href="#m16a591cbf7" y="182.031273"/>
      </g>
     </g>
     <g id="text_12">
      <!-- 1.0 -->
      <g transform="translate(42.735625 187.350179)scale(0.14 -0.14)">
       <use xlink:href="#DejaVuSans-31"/>
       <use x="63.623047" xlink:href="#DejaVuSans-2e"/>
       <use x="95.410156" xlink:href="#DejaVuSans-30"/>
      </g>
     </g>
    </g>
    <g id="ytick_4">
     <g id="line2d_12">
      <g>
       <use style="stroke:#000000;stroke-width:0.8;" x="72" xlink:href="#m16a591cbf7" y="132.170601"/>
      </g>
     </g>
     <g id="text_13">
      <!-- 1.5 -->
      <g transform="translate(42.735625 137.489507)scale(0.14 -0.14)">
       <use xlink:href="#DejaVuSans-31"/>
       <use x="63.623047" xlink:href="#DejaVuSans-2e"/>
       <use x="95.410156" xlink:href="#DejaVuSans-35"/>
      </g>
     </g>
    </g>
    <g id="ytick_5">
     <g id="line2d_13">
      <g>
       <use style="stroke:#000000;stroke-width:0.8;" x="72" xlink:href="#m16a591cbf7" y="82.309929"/>
      </g>
     </g>
     <g id="text_14">
      <!-- 2.0 -->
      <g transform="translate(42.735625 87.628835)scale(0.14 -0.14)">
       <use xlink:href="#DejaVuSans-32"/>
       <use x="63.623047" xlink:href="#DejaVuSans-2e"/>
       <use x="95.410156" xlink:href="#DejaVuSans-30"/>
      </g>
     </g>
    </g>
    <g id="text_15">
     <!-- Speed [mm/s] -->
     <g transform="translate(35.408125 238.11375)rotate(-90)scale(0.16 -0.16)">
      <defs>
       <path d="M 1159 525 
L 1159 -1331 
L 581 -1331 
L 581 3500 
L 1159 3500 
L 1159 2969 
Q 1341 3281 1617 3432 
Q 1894 3584 2278 3584 
Q 2916 3584 3314 3078 
Q 3713 2572 3713 1747 
Q 3713 922 3314 415 
Q 2916 -91 2278 -91 
Q 1894 -91 1617 61 
Q 1341 213 1159 525 
z
M 3116 1747 
Q 3116 2381 2855 2742 
Q 2594 3103 2138 3103 
Q 1681 3103 1420 2742 
Q 1159 2381 1159 1747 
Q 1159 1113 1420 752 
Q 1681 391 2138 391 
Q 2594 391 2855 752 
Q 3116 1113 3116 1747 
z
" id="DejaVuSans-70" transform="scale(0.015625)"/>
       <path d="M 1625 4666 
L 2156 4666 
L 531 -594 
L 0 -594 
L 1625 4666 
z
" id="DejaVuSans-2f" transform="scale(0.015625)"/>
      </defs>
      <use xlink:href="#DejaVuSans-53"/>
      <use x="63.476562" xlink:href="#DejaVuSans-70"/>
      <use x="126.953125" xlink:href="#DejaVuSans-65"/>
      <use x="188.476562" xlink:href="#DejaVuSans-65"/>
      <use x="250" xlink:href="#DejaVuSans-64"/>
      <use x="313.476562" xlink:href="#DejaVuSans-20"/>
      <use x="345.263672" xlink:href="#DejaVuSans-5b"/>
      <use x="384.277344" xlink:href="#DejaVuSans-6d"/>
      <use x="481.689453" xlink:href="#DejaVuSans-6d"/>
      <use x="579.101562" xlink:href="#DejaVuSans-2f"/>
      <use x="612.792969" xlink:href="#DejaVuSans-73"/>
      <use x="664.892578" xlink:href="#DejaVuSans-5d"/>
     </g>
    </g>
   </g>
   <g id="line2d_14">
    <path clip-path="url(#pdfa8f73e7a)" d="M 72 190.020221 
L 518.4 190.020221 
" style="fill:none;stroke:#000000;stroke-dasharray:5.55,2.4;stroke-dashoffset:0;stroke-width:1.5;"/>
   </g>
   <g id="line2d_15">
    <path clip-path="url(#pdfa8f73e7a)" d="M 72 280.793143 
L 129.636456 280.894241 
L 130.201519 280.428141 
L 130.766582 279.586729 
L 131.331646 279.519659 
L 131.896709 279.875105 
L 132.461772 280.018917 
L 133.026835 279.863633 
L 133.591899 279.584969 
L 134.156962 282.229489 
L 134.722025 279.506221 
L 135.287089 264.182617 
L 135.852152 270.253373 
L 136.417215 293.822974 
L 136.982278 304.195269 
L 137.547342 307.8 
L 138.112405 304.557054 
L 138.677468 296.575549 
L 139.807595 285.715038 
L 140.372658 275.435415 
L 140.937722 261.233737 
L 141.502785 242.756409 
L 144.893165 108.001028 
L 146.023291 75.908412 
L 146.588354 64.413878 
L 147.153418 58.26089 
L 147.718481 55.8 
L 148.283544 57.886174 
L 148.848608 62.963818 
L 149.413671 71.797286 
L 149.978734 82.62223 
L 150.543797 96.002203 
L 151.673924 126.341273 
L 153.934177 182.467807 
L 154.499241 189.26797 
L 155.064304 193.212436 
L 155.629367 193.845993 
L 156.19443 188.428009 
L 157.324557 160.496343 
L 158.454684 185.603821 
L 160.149873 171.137953 
L 160.714937 168.516917 
L 161.28 173.611281 
L 161.845063 180.497465 
L 162.410127 183.221959 
L 164.67038 190.285527 
L 165.235443 191.490498 
L 165.800506 191.386376 
L 166.930633 185.795092 
L 167.495696 186.144108 
L 168.060759 185.364823 
L 168.625823 184.979646 
L 169.190886 184.850724 
L 169.755949 183.633244 
L 170.321013 183.957032 
L 170.886076 182.591206 
L 171.451139 182.829722 
L 172.016203 185.360844 
L 172.581266 187.111879 
L 173.146329 187.966251 
L 173.711392 185.682589 
L 174.276456 187.761732 
L 174.841519 191.108909 
L 175.406582 190.53479 
L 175.971646 189.36592 
L 176.536709 188.933814 
L 177.101772 191.147958 
L 177.666835 192.065202 
L 178.231899 191.201545 
L 178.796962 191.316102 
L 179.362025 191.841695 
L 179.927089 190.771779 
L 180.492152 190.815737 
L 181.057215 189.430628 
L 181.622278 187.03281 
L 182.187342 188.727713 
L 182.752405 188.38796 
L 183.317468 187.085374 
L 184.447595 188.666163 
L 185.012658 189.279135 
L 185.577722 190.120116 
L 186.142785 190.567636 
L 186.707848 189.858107 
L 187.272911 188.417384 
L 187.837975 189.110344 
L 188.403038 187.358008 
L 188.968101 187.492308 
L 189.533165 191.331452 
L 190.098228 192.96739 
L 190.663291 192.121879 
L 191.228354 190.83237 
L 191.793418 191.954548 
L 192.358481 192.31737 
L 192.923544 189.616083 
L 193.488608 190.034846 
L 194.053671 193.117593 
L 194.618734 192.22304 
L 195.183797 192.307455 
L 195.748861 191.40567 
L 196.313924 191.099279 
L 196.878987 191.616172 
L 197.444051 189.566847 
L 198.009114 188.115423 
L 198.574177 188.638504 
L 200.269367 190.869829 
L 200.83443 188.997888 
L 201.399494 188.699567 
L 201.964557 189.46062 
L 202.52962 188.959624 
L 203.094684 186.254616 
L 203.659747 186.456731 
L 204.22481 190.399666 
L 204.789873 189.973214 
L 205.354937 187.905251 
L 205.92 188.405104 
L 206.485063 190.798505 
L 207.050127 191.220477 
L 207.61519 190.205811 
L 208.180253 190.84524 
L 208.745316 189.956026 
L 209.31038 190.411852 
L 209.875443 191.608735 
L 210.440506 190.893435 
L 211.00557 191.130948 
L 211.570633 193.264384 
L 212.135696 193.617562 
L 212.700759 191.924615 
L 213.265823 192.033515 
L 213.830886 193.72924 
L 214.395949 193.068885 
L 214.961013 189.939813 
L 215.526076 191.100518 
L 216.091139 193.775853 
L 216.656203 192.241891 
L 217.221266 191.484349 
L 217.786329 191.776428 
L 218.351392 190.919552 
L 218.916456 190.865798 
L 219.481519 190.087893 
L 220.046582 190.686871 
L 220.611646 191.816576 
L 221.176709 189.900693 
L 221.741772 189.401064 
L 222.306835 189.189256 
L 222.871899 187.328824 
L 224.002025 189.790629 
L 224.567089 189.904658 
L 225.132152 187.70656 
L 225.697215 187.38372 
L 226.262278 189.55541 
L 226.827342 189.773158 
L 227.392405 189.589905 
L 227.957468 188.571294 
L 228.522532 188.204881 
L 229.087595 188.038042 
L 229.652658 188.673318 
L 230.217722 189.769718 
L 230.782785 188.426374 
L 231.347848 188.929367 
L 231.912911 191.156134 
L 232.477975 191.512957 
L 233.043038 190.075615 
L 233.608101 191.533706 
L 234.173165 192.682234 
L 235.303291 190.211154 
L 235.868354 190.62177 
L 236.433418 192.566034 
L 238.128608 192.137802 
L 238.693671 191.090645 
L 239.258734 192.411206 
L 239.823797 194.496561 
L 240.388861 191.610356 
L 240.953924 191.517499 
L 241.518987 192.121465 
L 242.084051 190.832872 
L 242.649114 191.040528 
L 243.214177 189.990164 
L 243.779241 189.609562 
L 244.344304 190.059447 
L 244.909367 189.131263 
L 245.47443 189.423771 
L 246.039494 188.969528 
L 246.604557 188.977754 
L 247.16962 189.709255 
L 247.734684 190.73834 
L 248.299747 190.933857 
L 248.86481 190.822215 
L 249.429873 192.121524 
L 249.994937 191.560712 
L 250.56 190.254561 
L 251.125063 190.21579 
L 251.690127 191.230871 
L 252.25519 190.851407 
L 252.820253 188.87604 
L 253.385316 189.433026 
L 253.95038 192.203544 
L 254.515443 191.549727 
L 255.080506 189.89274 
L 255.64557 191.104408 
L 256.775696 188.856497 
L 257.340759 189.592379 
L 257.905823 190.923431 
L 258.470886 192.828943 
L 259.035949 192.774414 
L 260.166076 190.212121 
L 260.731139 190.717214 
L 261.296203 192.066103 
L 261.861266 191.612762 
L 262.426329 190.283101 
L 262.991392 190.917387 
L 263.556456 190.128113 
L 264.121519 190.165939 
L 264.686582 192.204661 
L 265.816709 188.110847 
L 266.381772 187.988293 
L 266.946835 188.229292 
L 267.511899 188.159604 
L 268.076962 187.17645 
L 268.642025 186.668035 
L 269.207089 187.733709 
L 269.772152 188.511532 
L 270.337215 187.457987 
L 270.902278 188.840679 
L 271.467342 191.29308 
L 272.032405 192.069625 
L 272.597468 191.637737 
L 273.162532 190.401972 
L 273.727595 191.11776 
L 274.292658 192.042231 
L 274.857722 190.473759 
L 275.422785 190.270656 
L 275.987848 190.56026 
L 276.552911 191.184163 
L 277.117975 191.527314 
L 277.683038 190.626457 
L 278.248101 188.204202 
L 278.813165 188.252213 
L 279.378228 190.667721 
L 279.943291 190.948497 
L 280.508354 191.883871 
L 281.073418 193.58615 
L 281.638481 192.825138 
L 282.203544 189.834961 
L 282.768608 190.228666 
L 283.333671 189.885999 
L 283.898734 189.218644 
L 285.028861 191.685408 
L 285.593924 192.05595 
L 286.158987 193.381101 
L 286.724051 193.058131 
L 287.289114 190.172902 
L 287.854177 189.425661 
L 288.419241 189.887806 
L 288.984304 191.068554 
L 289.549367 191.347333 
L 290.11443 190.406904 
L 290.679494 188.596254 
L 291.244557 189.870931 
L 291.80962 191.471521 
L 292.374684 189.336489 
L 292.939747 188.855397 
L 293.50481 189.755026 
L 294.069873 192.017505 
L 294.634937 191.307276 
L 295.2 189.59669 
L 295.765063 192.383937 
L 296.330127 191.91592 
L 296.89519 189.799131 
L 297.460253 188.349865 
L 298.025316 188.738206 
L 298.59038 191.344239 
L 299.155443 191.224108 
L 300.850633 188.191763 
L 301.415696 189.034185 
L 302.545823 191.477714 
L 303.110886 192.586513 
L 303.675949 192.971971 
L 304.806076 191.343579 
L 305.371139 189.922127 
L 305.936203 189.132176 
L 306.501266 189.641442 
L 307.066329 190.642178 
L 307.631392 191.234959 
L 308.196456 192.837154 
L 308.761519 192.468483 
L 309.326582 190.048223 
L 310.456709 188.113022 
L 311.021772 188.801964 
L 311.586835 190.361963 
L 312.151899 190.05897 
L 312.716962 190.821019 
L 313.282025 192.371539 
L 313.847089 191.72513 
L 314.412152 190.210025 
L 314.977215 190.158358 
L 315.542278 189.801388 
L 316.107342 190.103063 
L 317.237468 190.41315 
L 317.802532 192.279326 
L 318.367595 192.27508 
L 318.932658 191.513335 
L 319.497722 189.867577 
L 320.062785 189.090617 
L 320.627848 189.498023 
L 321.192911 191.338415 
L 321.757975 190.998652 
L 322.323038 189.414958 
L 322.888101 188.314953 
L 323.453165 188.451249 
L 324.018228 189.767739 
L 324.583291 188.67514 
L 325.148354 189.074332 
L 325.713418 191.492423 
L 326.843544 191.921283 
L 327.408608 192.626023 
L 327.973671 191.121508 
L 328.538734 190.886559 
L 329.103797 191.609633 
L 329.668861 191.334469 
L 330.233924 191.769914 
L 330.798987 192.595538 
L 331.364051 191.942546 
L 332.494177 189.352039 
L 333.059241 188.94491 
L 334.189367 190.008314 
L 334.75443 191.614958 
L 335.319494 191.699304 
L 335.884557 192.705715 
L 336.44962 192.855257 
L 337.014684 190.40101 
L 337.579747 189.041674 
L 338.14481 188.342705 
L 339.274937 190.529973 
L 339.84 189.881702 
L 340.405063 190.097245 
L 340.970127 191.367279 
L 341.53519 191.533741 
L 342.100253 189.079384 
L 342.665316 189.18374 
L 343.23038 192.874583 
L 343.795443 191.550936 
L 344.360506 190.542559 
L 344.92557 191.430524 
L 345.490633 191.653287 
L 346.055696 191.039039 
L 346.620759 188.87172 
L 347.185823 187.988392 
L 347.750886 188.525003 
L 348.315949 190.575513 
L 348.881013 192.117553 
L 349.446076 190.91706 
L 350.011139 190.197463 
L 350.576203 190.222173 
L 351.141266 189.41671 
L 351.706329 188.301089 
L 352.271392 189.775118 
L 352.836456 190.77644 
L 353.401519 190.389004 
L 353.966582 190.811041 
L 355.096709 189.371649 
L 355.661772 189.463514 
L 356.226835 190.396253 
L 356.791899 191.64473 
L 357.356962 191.003254 
L 357.922025 191.338374 
L 358.487089 193.990096 
L 359.617215 191.844286 
L 360.182278 191.940429 
L 360.747342 192.554949 
L 361.312405 192.859516 
L 361.877468 191.412851 
L 362.442532 192.580602 
L 363.007595 193.158714 
L 364.137722 188.464576 
L 364.702785 188.759226 
L 365.267848 188.25007 
L 365.832911 187.126273 
L 366.397975 188.846497 
L 366.963038 188.534794 
L 367.528101 188.431938 
L 368.093165 189.723967 
L 368.658228 189.517468 
L 369.223291 187.188108 
L 369.788354 187.813133 
L 370.353418 191.032298 
L 370.918481 190.557491 
L 371.483544 189.805704 
L 372.048608 191.500389 
L 372.613671 192.731887 
L 373.178734 192.052751 
L 373.743797 190.905992 
L 374.308861 191.09478 
L 374.873924 190.418001 
L 376.004051 191.911512 
L 376.569114 190.399023 
L 377.134177 190.792726 
L 377.699241 189.433157 
L 378.264304 188.832266 
L 378.829367 189.933554 
L 379.39443 189.33818 
L 379.959494 190.164461 
L 380.524557 192.912039 
L 381.08962 191.743084 
L 381.654684 189.610522 
L 382.219747 190.793473 
L 382.78481 190.500608 
L 383.349873 190.758649 
L 383.914937 192.715412 
L 384.48 191.699664 
L 385.045063 189.995301 
L 386.17519 191.726912 
L 386.740253 191.270939 
L 387.305316 190.241472 
L 387.87038 191.059042 
L 388.435443 192.096995 
L 389.56557 189.165524 
L 390.130633 190.305415 
L 390.695696 189.61648 
L 391.260759 186.696769 
L 391.825823 187.085551 
L 392.390886 187.883691 
L 392.955949 187.547969 
L 393.521013 188.502779 
L 394.086076 188.782084 
L 394.651139 189.685604 
L 395.216203 190.945007 
L 395.781266 191.428444 
L 396.346329 192.27671 
L 396.911392 192.740567 
L 397.476456 192.688931 
L 398.041519 193.254959 
L 398.606582 193.309293 
L 399.171646 190.970428 
L 399.736709 189.494508 
L 400.301772 190.525115 
L 400.866835 190.949189 
L 401.431899 190.599304 
L 401.996962 191.01996 
L 402.562025 191.611457 
L 403.127089 190.842075 
L 403.692152 189.663464 
L 404.257215 189.38635 
L 404.822278 188.80347 
L 405.387342 189.782495 
L 405.952405 191.098437 
L 406.517468 190.342242 
L 407.082532 189.272154 
L 407.647595 189.290821 
L 408.212658 191.088996 
L 408.777722 191.079843 
L 409.342785 190.563689 
L 409.907848 192.725078 
L 410.472911 193.684056 
L 411.037975 192.925637 
L 411.603038 190.098689 
L 412.168101 190.462789 
L 412.733165 191.985961 
L 413.298228 190.987368 
L 413.863291 191.099829 
L 414.428354 190.919193 
L 414.993418 190.145857 
L 415.558481 189.121621 
L 416.123544 188.445461 
L 416.688608 188.073708 
L 417.253671 187.868028 
L 418.383797 189.623712 
L 418.948861 188.183926 
L 419.513924 188.434849 
L 420.078987 190.013403 
L 420.644051 188.573737 
L 421.209114 187.509383 
L 421.774177 189.815301 
L 422.339241 190.906376 
L 422.904304 190.660968 
L 423.469367 191.243077 
L 424.03443 191.32409 
L 424.599494 190.864381 
L 425.164557 191.821527 
L 425.72962 190.805358 
L 426.294684 188.523713 
L 426.859747 190.479317 
L 427.42481 191.390721 
L 427.989873 191.12275 
L 428.554937 190.720441 
L 429.12 188.843744 
L 429.685063 188.276903 
L 430.250127 189.967581 
L 430.81519 190.316017 
L 431.380253 191.090623 
L 431.945316 193.181674 
L 432.51038 192.208195 
L 433.075443 192.231521 
L 433.640506 190.5622 
L 434.20557 189.609296 
L 434.770633 191.167989 
L 435.335696 190.692046 
L 435.900759 191.268903 
L 436.465823 192.262931 
L 437.030886 190.477882 
L 437.595949 190.41282 
L 438.161013 192.156995 
L 438.726076 189.465906 
L 439.291139 188.810229 
L 439.856203 191.443538 
L 440.421266 191.126146 
L 440.986329 189.4263 
L 441.551392 190.109456 
L 442.681519 189.171317 
L 443.246582 190.235477 
L 443.811646 189.616137 
L 444.376709 188.822802 
L 444.941772 188.818726 
L 446.071899 189.004849 
L 446.636962 189.655812 
L 447.202025 191.201112 
L 447.767089 190.430327 
L 448.332152 191.285737 
L 448.897215 192.383363 
L 449.462278 191.437078 
L 450.592405 193.158419 
L 451.157468 193.574664 
L 451.722532 191.965914 
L 452.287595 191.854592 
L 453.417722 191.278586 
L 453.982785 192.77366 
L 454.547848 192.789903 
L 455.112911 192.596194 
L 455.677975 191.005423 
L 456.243038 190.453074 
L 456.808101 191.265556 
L 457.373165 191.121419 
L 457.938228 190.691358 
L 458.503291 190.461997 
L 459.068354 189.940634 
L 460.198481 191.83798 
L 461.328608 188.756784 
L 461.893671 188.76725 
L 462.458734 189.237685 
L 463.588861 191.198662 
L 464.153924 191.305194 
L 464.718987 191.664886 
L 465.284051 190.923067 
L 466.414177 188.811943 
L 466.979241 188.419967 
L 467.544304 189.33103 
L 468.109367 189.698506 
L 468.67443 190.237071 
L 469.239494 190.351557 
L 469.804557 189.958768 
L 470.36962 190.267922 
L 470.934684 189.651615 
L 471.499747 189.602568 
L 472.06481 190.206823 
L 473.194937 190.270105 
L 473.76 189.333144 
L 474.890127 188.593145 
L 475.45519 190.270686 
L 476.020253 190.780114 
L 476.585316 189.993244 
L 477.15038 190.749275 
L 477.715443 192.281248 
L 478.280506 192.859624 
L 478.84557 191.132881 
L 479.975696 190.118343 
L 480.540759 191.173334 
L 481.105823 193.030714 
L 481.670886 192.330951 
L 482.235949 192.316384 
L 482.801013 191.330751 
L 483.366076 189.083532 
L 483.931139 188.527616 
L 484.496203 189.539513 
L 485.061266 191.36651 
L 485.626329 191.999938 
L 486.756456 190.901656 
L 487.321519 191.260137 
L 487.886582 191.054669 
L 488.451646 187.694386 
L 489.016709 187.630461 
L 489.581772 188.987992 
L 490.146835 188.068672 
L 490.711899 188.714177 
L 491.842025 189.669323 
L 492.407089 191.015553 
L 493.537215 189.579852 
L 494.102278 190.75079 
L 495.232405 192.393624 
L 495.797468 192.601848 
L 496.362532 192.452616 
L 496.927595 192.889398 
L 497.492658 191.427022 
L 498.057722 189.419803 
L 498.622785 191.097267 
L 499.187848 190.699858 
L 499.752911 190.543139 
L 500.317975 190.874254 
L 500.883038 187.970466 
L 501.448101 188.21714 
L 503.143291 192.780351 
L 503.708354 190.28584 
L 504.273418 188.534934 
L 504.838481 189.543827 
L 505.403544 189.678731 
L 505.968608 187.325719 
L 506.533671 186.905581 
L 507.098734 188.247608 
L 507.663797 188.422664 
L 508.793924 189.368339 
L 510.489114 191.241352 
L 511.619241 192.468698 
L 512.749367 193.337733 
L 513.31443 193.527007 
L 513.879494 193.485862 
L 514.444557 193.159236 
L 515.00962 192.488176 
L 515.574684 191.409832 
L 516.139747 189.85746 
L 516.70481 187.760423 
L 517.269873 185.044187 
L 517.834937 181.630326 
L 518.4 177.436518 
L 518.4 177.436518 
" style="fill:none;stroke:#ff0000;stroke-linecap:square;stroke-width:2;"/>
   </g>
   <g id="patch_3">
    <path d="M 72 320.4 
L 72 43.2 
" style="fill:none;stroke:#000000;stroke-linecap:square;stroke-linejoin:miter;stroke-width:0.8;"/>
   </g>
   <g id="patch_4">
    <path d="M 518.4 320.4 
L 518.4 43.2 
" style="fill:none;stroke:#000000;stroke-linecap:square;stroke-linejoin:miter;stroke-width:0.8;"/>
   </g>
   <g id="patch_5">
    <path d="M 72 320.4 
L 518.4 320.4 
" style="fill:none;stroke:#000000;stroke-linecap:square;stroke-linejoin:miter;stroke-width:0.8;"/>
   </g>
   <g id="patch_6">
    <path d="M 72 43.2 
L 518.4 43.2 
" style="fill:none;stroke:#000000;stroke-linecap:square;stroke-linejoin:miter;stroke-width:0.8;"/>
   </g>
   <g id="text_16">
    <!-- Front Propogation Speed -->
    <g transform="translate(172.245312 37.2)scale(0.2 -0.2)">
     <defs>
      <path d="M 628 4666 
L 3309 4666 
L 3309 4134 
L 1259 4134 
L 1259 2759 
L 3109 2759 
L 3109 2228 
L 1259 2228 
L 1259 0 
L 628 0 
L 628 4666 
z
" id="DejaVuSans-46" transform="scale(0.015625)"/>
      <path d="M 2631 2963 
Q 2534 3019 2420 3045 
Q 2306 3072 2169 3072 
Q 1681 3072 1420 2755 
Q 1159 2438 1159 1844 
L 1159 0 
L 581 0 
L 581 3500 
L 1159 3500 
L 1159 2956 
Q 1341 3275 1631 3429 
Q 1922 3584 2338 3584 
Q 2397 3584 2469 3576 
Q 2541 3569 2628 3553 
L 2631 2963 
z
" id="DejaVuSans-72" transform="scale(0.015625)"/>
      <path d="M 1172 4494 
L 1172 3500 
L 2356 3500 
L 2356 3053 
L 1172 3053 
L 1172 1153 
Q 1172 725 1289 603 
Q 1406 481 1766 481 
L 2356 481 
L 2356 0 
L 1766 0 
Q 1100 0 847 248 
Q 594 497 594 1153 
L 594 3053 
L 172 3053 
L 172 3500 
L 594 3500 
L 594 4494 
L 1172 4494 
z
" id="DejaVuSans-74" transform="scale(0.015625)"/>
      <path d="M 1259 4147 
L 1259 2394 
L 2053 2394 
Q 2494 2394 2734 2622 
Q 2975 2850 2975 3272 
Q 2975 3691 2734 3919 
Q 2494 4147 2053 4147 
L 1259 4147 
z
M 628 4666 
L 2053 4666 
Q 2838 4666 3239 4311 
Q 3641 3956 3641 3272 
Q 3641 2581 3239 2228 
Q 2838 1875 2053 1875 
L 1259 1875 
L 1259 0 
L 628 0 
L 628 4666 
z
" id="DejaVuSans-50" transform="scale(0.015625)"/>
      <path d="M 2906 1791 
Q 2906 2416 2648 2759 
Q 2391 3103 1925 3103 
Q 1463 3103 1205 2759 
Q 947 2416 947 1791 
Q 947 1169 1205 825 
Q 1463 481 1925 481 
Q 2391 481 2648 825 
Q 2906 1169 2906 1791 
z
M 3481 434 
Q 3481 -459 3084 -895 
Q 2688 -1331 1869 -1331 
Q 1566 -1331 1297 -1286 
Q 1028 -1241 775 -1147 
L 775 -588 
Q 1028 -725 1275 -790 
Q 1522 -856 1778 -856 
Q 2344 -856 2625 -561 
Q 2906 -266 2906 331 
L 2906 616 
Q 2728 306 2450 153 
Q 2172 0 1784 0 
Q 1141 0 747 490 
Q 353 981 353 1791 
Q 353 2603 747 3093 
Q 1141 3584 1784 3584 
Q 2172 3584 2450 3431 
Q 2728 3278 2906 2969 
L 2906 3500 
L 3481 3500 
L 3481 434 
z
" id="DejaVuSans-67" transform="scale(0.015625)"/>
      <path d="M 2194 1759 
Q 1497 1759 1228 1600 
Q 959 1441 959 1056 
Q 959 750 1161 570 
Q 1363 391 1709 391 
Q 2188 391 2477 730 
Q 2766 1069 2766 1631 
L 2766 1759 
L 2194 1759 
z
M 3341 1997 
L 3341 0 
L 2766 0 
L 2766 531 
Q 2569 213 2275 61 
Q 1981 -91 1556 -91 
Q 1019 -91 701 211 
Q 384 513 384 1019 
Q 384 1609 779 1909 
Q 1175 2209 1959 2209 
L 2766 2209 
L 2766 2266 
Q 2766 2663 2505 2880 
Q 2244 3097 1772 3097 
Q 1472 3097 1187 3025 
Q 903 2953 641 2809 
L 641 3341 
Q 956 3463 1253 3523 
Q 1550 3584 1831 3584 
Q 2591 3584 2966 3190 
Q 3341 2797 3341 1997 
z
" id="DejaVuSans-61" transform="scale(0.015625)"/>
     </defs>
     <use xlink:href="#DejaVuSans-46"/>
     <use x="50.269531" xlink:href="#DejaVuSans-72"/>
     <use x="89.132812" xlink:href="#DejaVuSans-6f"/>
     <use x="150.314453" xlink:href="#DejaVuSans-6e"/>
     <use x="213.693359" xlink:href="#DejaVuSans-74"/>
     <use x="252.902344" xlink:href="#DejaVuSans-20"/>
     <use x="284.689453" xlink:href="#DejaVuSans-50"/>
     <use x="343.242188" xlink:href="#DejaVuSans-72"/>
     <use x="382.105469" xlink:href="#DejaVuSans-6f"/>
     <use x="443.287109" xlink:href="#DejaVuSans-70"/>
     <use x="506.763672" xlink:href="#DejaVuSans-6f"/>
     <use x="567.945312" xlink:href="#DejaVuSans-67"/>
     <use x="631.421875" xlink:href="#DejaVuSans-61"/>
     <use x="692.701172" xlink:href="#DejaVuSans-74"/>
     <use x="731.910156" xlink:href="#DejaVuSans-69"/>
     <use x="759.693359" xlink:href="#DejaVuSans-6f"/>
     <use x="820.875" xlink:href="#DejaVuSans-6e"/>
     <use x="884.253906" xlink:href="#DejaVuSans-20"/>
     <use x="916.041016" xlink:href="#DejaVuSans-53"/>
     <use x="979.517578" xlink:href="#DejaVuSans-70"/>
     <use x="1042.994141" xlink:href="#DejaVuSans-65"/>
     <use x="1104.517578" xlink:href="#DejaVuSans-65"/>
     <use x="1166.041016" xlink:href="#DejaVuSans-64"/>
    </g>
   </g>
   <g id="legend_1">
    <g id="patch_7">
     <path d="M 325.967812 111.175687 
L 508.6 111.175687 
Q 511.4 111.175687 511.4 108.375687 
L 511.4 53 
Q 511.4 50.2 508.6 50.2 
L 325.967812 50.2 
Q 323.167812 50.2 323.167812 53 
L 323.167812 108.375687 
Q 323.167812 111.175687 325.967812 111.175687 
z
" style="fill:#ffffff;opacity:0.8;stroke:#cccccc;stroke-linejoin:miter;"/>
    </g>
    <g id="line2d_16">
     <path d="M 328.767812 61.537812 
L 356.767812 61.537812 
" style="fill:none;stroke:#ff0000;stroke-linecap:square;stroke-width:2;"/>
    </g>
    <g id="line2d_17"/>
    <g id="text_17">
     <!-- Front speed -->
     <g transform="translate(367.967812 66.437812)scale(0.14 -0.14)">
      <use xlink:href="#DejaVuSans-46"/>
      <use x="50.269531" xlink:href="#DejaVuSans-72"/>
      <use x="89.132812" xlink:href="#DejaVuSans-6f"/>
      <use x="150.314453" xlink:href="#DejaVuSans-6e"/>
      <use x="213.693359" xlink:href="#DejaVuSans-74"/>
      <use x="252.902344" xlink:href="#DejaVuSans-20"/>
      <use x="284.689453" xlink:href="#DejaVuSans-73"/>
      <use x="336.789062" xlink:href="#DejaVuSans-70"/>
      <use x="400.265625" xlink:href="#DejaVuSans-65"/>
      <use x="461.789062" xlink:href="#DejaVuSans-65"/>
      <use x="523.3125" xlink:href="#DejaVuSans-64"/>
     </g>
    </g>
    <g id="line2d_18">
     <path d="M 328.767812 91.381437 
L 356.767812 91.381437 
" style="fill:none;stroke:#000000;stroke-dasharray:5.55,2.4;stroke-dashoffset:0;stroke-width:1.5;"/>
    </g>
    <g id="line2d_19"/>
    <g id="text_18">
     <!-- Steady state -->
     <g transform="translate(367.967812 86.987187)scale(0.14 -0.14)">
      <defs>
       <path d="M 2059 -325 
Q 1816 -950 1584 -1140 
Q 1353 -1331 966 -1331 
L 506 -1331 
L 506 -850 
L 844 -850 
Q 1081 -850 1212 -737 
Q 1344 -625 1503 -206 
L 1606 56 
L 191 3500 
L 800 3500 
L 1894 763 
L 2988 3500 
L 3597 3500 
L 2059 -325 
z
" id="DejaVuSans-79" transform="scale(0.015625)"/>
      </defs>
      <use xlink:href="#DejaVuSans-53"/>
      <use x="63.476562" xlink:href="#DejaVuSans-74"/>
      <use x="102.685547" xlink:href="#DejaVuSans-65"/>
      <use x="164.208984" xlink:href="#DejaVuSans-61"/>
      <use x="225.488281" xlink:href="#DejaVuSans-64"/>
      <use x="288.964844" xlink:href="#DejaVuSans-79"/>
      <use x="348.144531" xlink:href="#DejaVuSans-20"/>
      <use x="379.931641" xlink:href="#DejaVuSans-73"/>
      <use x="432.03125" xlink:href="#DejaVuSans-74"/>
      <use x="471.240234" xlink:href="#DejaVuSans-61"/>
      <use x="532.519531" xlink:href="#DejaVuSans-74"/>
      <use x="571.728516" xlink:href="#DejaVuSans-65"/>
     </g>
     <!-- speed = 0.92 mm/s -->
     <g transform="translate(367.967812 102.664125)scale(0.14 -0.14)">
      <defs>
       <path d="M 678 2906 
L 4684 2906 
L 4684 2381 
L 678 2381 
L 678 2906 
z
M 678 1631 
L 4684 1631 
L 4684 1100 
L 678 1100 
L 678 1631 
z
" id="DejaVuSans-3d" transform="scale(0.015625)"/>
       <path d="M 703 97 
L 703 672 
Q 941 559 1184 500 
Q 1428 441 1663 441 
Q 2288 441 2617 861 
Q 2947 1281 2994 2138 
Q 2813 1869 2534 1725 
Q 2256 1581 1919 1581 
Q 1219 1581 811 2004 
Q 403 2428 403 3163 
Q 403 3881 828 4315 
Q 1253 4750 1959 4750 
Q 2769 4750 3195 4129 
Q 3622 3509 3622 2328 
Q 3622 1225 3098 567 
Q 2575 -91 1691 -91 
Q 1453 -91 1209 -44 
Q 966 3 703 97 
z
M 1959 2075 
Q 2384 2075 2632 2365 
Q 2881 2656 2881 3163 
Q 2881 3666 2632 3958 
Q 2384 4250 1959 4250 
Q 1534 4250 1286 3958 
Q 1038 3666 1038 3163 
Q 1038 2656 1286 2365 
Q 1534 2075 1959 2075 
z
" id="DejaVuSans-39" transform="scale(0.015625)"/>
      </defs>
      <use xlink:href="#DejaVuSans-73"/>
      <use x="52.099609" xlink:href="#DejaVuSans-70"/>
      <use x="115.576172" xlink:href="#DejaVuSans-65"/>
      <use x="177.099609" xlink:href="#DejaVuSans-65"/>
      <use x="238.623047" xlink:href="#DejaVuSans-64"/>
      <use x="302.099609" xlink:href="#DejaVuSans-20"/>
      <use x="333.886719" xlink:href="#DejaVuSans-3d"/>
      <use x="417.675781" xlink:href="#DejaVuSans-20"/>
      <use x="449.462891" xlink:href="#DejaVuSans-30"/>
      <use x="513.085938" xlink:href="#DejaVuSans-2e"/>
      <use x="544.873047" xlink:href="#DejaVuSans-39"/>
      <use x="608.496094" xlink:href="#DejaVuSans-32"/>
      <use x="672.119141" xlink:href="#DejaVuSans-20"/>
      <use x="703.90625" xlink:href="#DejaVuSans-6d"/>
      <use x="801.318359" xlink:href="#DejaVuSans-6d"/>
      <use x="898.730469" xlink:href="#DejaVuSans-2f"/>
      <use x="932.421875" xlink:href="#DejaVuSans-73"/>
     </g>
    </g>
   </g>
  </g>
 </g>
 <defs>
  <clipPath id="pdfa8f73e7a">
   <rect height="277.2" width="446.4" x="72" y="43.2"/>
  </clipPath>
 </defs>
</svg>
