<?xml version="1.0" encoding="utf-8" standalone="no"?>
<!DOCTYPE svg PUBLIC "-//W3C//DTD SVG 1.1//EN"
  "http://www.w3.org/Graphics/SVG/1.1/DTD/svg11.dtd">
<svg height="360pt" version="1.1" viewBox="0 0 576 360" width="576pt" xmlns="http://www.w3.org/2000/svg" xmlns:xlink="http://www.w3.org/1999/xlink">
 <metadata>
  <rdf:RDF xmlns:cc="http://creativecommons.org/ns#" xmlns:dc="http://purl.org/dc/elements/1.1/" xmlns:rdf="http://www.w3.org/1999/02/22-rdf-syntax-ns#">
   <cc:Work>
    <dc:type rdf:resource="http://purl.org/dc/dcmitype/StillImage"/>
    <dc:date>2022-06-30T14:32:14.689789</dc:date>
    <dc:format>image/svg+xml</dc:format>
    <dc:creator>
     <cc:Agent>
      <dc:title>Matplotlib v3.4.3, https://matplotlib.org/</dc:title>
     </cc:Agent>
    </dc:creator>
   </cc:Work>
  </rdf:RDF>
 </metadata>
 <defs>
  <style type="text/css">*{stroke-linecap:butt;stroke-linejoin:round;}</style>
 </defs>
 <g id="figure_1">
  <g id="patch_1">
   <path d="M 0 360 
L 576 360 
L 576 0 
L 0 0 
z
" style="fill:#ffffff;"/>
  </g>
  <g id="axes_1">
   <g id="patch_2">
    <path d="M 72 320.4 
L 518.4 320.4 
L 518.4 43.2 
L 72 43.2 
z
" style="fill:#ffffff;"/>
   </g>
   <g id="PolyCollection_1">
    <defs>
     <path d="M 72 -129.955667 
L 72 -138.630809 
L 72.978947 -138.630809 
L 73.957895 -138.630809 
L 74.936842 -138.630809 
L 75.915789 -138.630809 
L 76.894737 -138.630809 
L 77.873684 -138.630809 
L 78.852632 -138.630809 
L 79.831579 -138.630809 
L 80.810526 -138.630809 
L 81.789474 -138.630809 
L 82.768421 -138.630809 
L 83.747368 -138.630809 
L 84.726316 -138.630809 
L 85.705263 -138.630809 
L 86.684211 -138.630809 
L 87.663158 -138.630809 
L 88.642105 -138.630809 
L 89.621053 -138.630809 
L 90.6 -138.630809 
L 91.578947 -138.630809 
L 92.557895 -138.630809 
L 93.536842 -138.630809 
L 94.515789 -138.630809 
L 95.494737 -138.630809 
L 96.473684 -138.630809 
L 97.452632 -138.630809 
L 98.431579 -138.630809 
L 99.410526 -138.630809 
L 100.389474 -138.630809 
L 101.368421 -138.630809 
L 102.347368 -138.630809 
L 103.326316 -138.630809 
L 104.305263 -138.630809 
L 105.284211 -138.630809 
L 106.263158 -138.630809 
L 107.242105 -138.630809 
L 108.221053 -138.630809 
L 109.2 -138.630809 
L 110.178947 -138.630809 
L 111.157895 -138.630809 
L 112.136842 -138.630809 
L 113.115789 -138.630809 
L 114.094737 -138.630809 
L 115.073684 -138.630809 
L 116.052632 -138.630809 
L 117.031579 -138.630809 
L 118.010526 -138.630809 
L 118.989474 -138.630809 
L 119.968421 -138.630809 
L 120.947368 -138.630809 
L 121.926316 -138.630809 
L 122.905263 -138.630809 
L 123.884211 -138.630809 
L 124.863158 -138.630809 
L 125.842105 -138.630809 
L 126.821053 -138.630809 
L 127.8 -138.630809 
L 128.778947 -138.630809 
L 129.757895 -138.630809 
L 130.736842 -138.630809 
L 131.715789 -138.630809 
L 132.694737 -138.630809 
L 133.673684 -138.630809 
L 134.652632 -138.630809 
L 135.631579 -138.630809 
L 136.610526 -138.630809 
L 137.589474 -138.630809 
L 138.568421 -138.630809 
L 139.547368 -138.630809 
L 140.526316 -138.630809 
L 141.505263 -138.630809 
L 142.484211 -138.630809 
L 143.463158 -138.630809 
L 144.442105 -138.630809 
L 145.421053 -138.630809 
L 146.4 -138.630809 
L 147.378947 -138.630809 
L 148.357895 -138.630809 
L 149.336842 -138.630809 
L 150.315789 -138.630809 
L 151.294737 -138.630809 
L 152.273684 -138.630809 
L 153.252632 -138.630809 
L 154.231579 -138.630809 
L 155.210526 -138.630809 
L 156.189474 -138.630809 
L 157.168421 -138.630809 
L 158.147368 -138.630809 
L 159.126316 -138.630809 
L 160.105263 -138.630809 
L 161.084211 -138.630809 
L 162.063158 -138.630809 
L 163.042105 -138.630809 
L 164.021053 -138.630809 
L 165 -138.630809 
L 165.978947 -138.630809 
L 166.957895 -138.630809 
L 167.936842 -138.630809 
L 168.915789 -138.630809 
L 169.894737 -138.630809 
L 170.873684 -138.630809 
L 171.852632 -138.630809 
L 172.831579 -138.630809 
L 173.810526 -138.630809 
L 174.789474 -138.630809 
L 175.768421 -138.630809 
L 176.747368 -138.630809 
L 177.726316 -138.630809 
L 178.705263 -138.630809 
L 179.684211 -138.630809 
L 180.663158 -138.630809 
L 181.642105 -138.630809 
L 182.621053 -138.630809 
L 183.6 -138.630809 
L 184.578947 -138.630809 
L 185.557895 -138.630809 
L 186.536842 -138.630809 
L 187.515789 -138.630809 
L 188.494737 -138.630809 
L 189.473684 -138.630809 
L 190.452632 -138.630809 
L 191.431579 -138.630809 
L 192.410526 -138.630809 
L 193.389474 -138.630809 
L 194.368421 -138.630809 
L 195.347368 -138.630809 
L 196.326316 -138.630809 
L 197.305263 -138.630809 
L 198.284211 -138.630809 
L 199.263158 -138.630809 
L 200.242105 -138.630809 
L 201.221053 -138.630809 
L 202.2 -138.630809 
L 203.178947 -138.630809 
L 204.157895 -138.630809 
L 205.136842 -138.630809 
L 206.115789 -138.630809 
L 207.094737 -138.630809 
L 208.073684 -138.630809 
L 209.052632 -138.630809 
L 210.031579 -138.630809 
L 211.010526 -138.630809 
L 211.989474 -138.630809 
L 212.968421 -138.630809 
L 213.947368 -138.630809 
L 214.926316 -138.630809 
L 215.905263 -138.630809 
L 216.884211 -138.630809 
L 217.863158 -138.630809 
L 218.842105 -138.630809 
L 219.821053 -138.630809 
L 220.8 -138.630809 
L 221.778947 -138.630809 
L 222.757895 -138.630809 
L 223.736842 -138.630809 
L 224.715789 -138.630809 
L 225.694737 -138.630809 
L 226.673684 -138.630809 
L 227.652632 -138.630809 
L 228.631579 -138.630809 
L 229.610526 -138.630809 
L 230.589474 -138.630809 
L 231.568421 -138.630809 
L 232.547368 -138.630809 
L 233.526316 -138.630809 
L 234.505263 -138.630809 
L 235.484211 -138.630809 
L 236.463158 -138.630809 
L 237.442105 -138.630809 
L 238.421053 -138.630809 
L 239.4 -138.630809 
L 240.378947 -138.630809 
L 241.357895 -138.630809 
L 242.336842 -138.630809 
L 243.315789 -138.630809 
L 244.294737 -138.630809 
L 245.273684 -138.630809 
L 246.252632 -138.630809 
L 247.231579 -138.630809 
L 248.210526 -138.630809 
L 249.189474 -138.630809 
L 250.168421 -138.630809 
L 251.147368 -138.630809 
L 252.126316 -138.630809 
L 253.105263 -138.630809 
L 254.084211 -138.630809 
L 255.063158 -138.630809 
L 256.042105 -138.630809 
L 257.021053 -138.630809 
L 258 -138.630809 
L 258.978947 -138.630809 
L 259.957895 -138.630809 
L 260.936842 -138.630809 
L 261.915789 -138.630809 
L 262.894737 -138.630809 
L 263.873684 -138.630809 
L 264.852632 -138.630809 
L 265.831579 -138.630809 
L 266.810526 -138.630809 
L 267.789474 -138.630809 
L 268.768421 -138.630809 
L 269.747368 -138.630809 
L 270.726316 -138.630809 
L 271.705263 -138.630809 
L 272.684211 -138.630809 
L 273.663158 -138.630809 
L 274.642105 -138.630809 
L 275.621053 -138.630809 
L 276.6 -138.630809 
L 277.578947 -138.630809 
L 278.557895 -138.630809 
L 279.536842 -138.630809 
L 280.515789 -138.630809 
L 281.494737 -138.630809 
L 282.473684 -138.630809 
L 283.452632 -138.630809 
L 284.431579 -138.630809 
L 285.410526 -138.630809 
L 286.389474 -138.630809 
L 287.368421 -138.630809 
L 288.347368 -138.630809 
L 289.326316 -138.630809 
L 290.305263 -138.630809 
L 291.284211 -138.630809 
L 292.263158 -138.630809 
L 293.242105 -138.630809 
L 294.221053 -138.630809 
L 295.2 -138.630809 
L 296.178947 -138.630809 
L 297.157895 -138.630809 
L 298.136842 -138.630809 
L 299.115789 -138.630809 
L 300.094737 -138.630809 
L 301.073684 -138.630809 
L 302.052632 -138.630809 
L 303.031579 -138.630809 
L 304.010526 -138.630809 
L 304.989474 -138.630809 
L 305.968421 -138.630809 
L 306.947368 -138.630809 
L 307.926316 -138.630809 
L 308.905263 -138.630809 
L 309.884211 -138.630809 
L 310.863158 -138.630809 
L 311.842105 -138.630809 
L 312.821053 -138.630809 
L 313.8 -138.630809 
L 314.778947 -138.630809 
L 315.757895 -138.630809 
L 316.736842 -138.630809 
L 317.715789 -138.630809 
L 318.694737 -138.630809 
L 319.673684 -138.630809 
L 320.652632 -138.630809 
L 321.631579 -138.630809 
L 322.610526 -138.630809 
L 323.589474 -138.630809 
L 324.568421 -138.630809 
L 325.547368 -138.630809 
L 326.526316 -138.630809 
L 327.505263 -138.630809 
L 328.484211 -138.630809 
L 329.463158 -138.630809 
L 330.442105 -138.630809 
L 331.421053 -138.630809 
L 332.4 -138.630809 
L 333.378947 -138.630809 
L 334.357895 -138.630809 
L 335.336842 -138.630809 
L 336.315789 -138.630809 
L 337.294737 -138.630809 
L 338.273684 -138.630809 
L 339.252632 -138.630809 
L 340.231579 -138.630809 
L 341.210526 -138.630809 
L 342.189474 -138.630809 
L 343.168421 -138.630809 
L 344.147368 -138.630809 
L 345.126316 -138.630809 
L 346.105263 -138.630809 
L 347.084211 -138.630809 
L 348.063158 -138.630809 
L 349.042105 -138.630809 
L 350.021053 -138.630809 
L 351 -138.630809 
L 351.978947 -138.630809 
L 352.957895 -138.630809 
L 353.936842 -138.630809 
L 354.915789 -138.630809 
L 355.894737 -138.630809 
L 356.873684 -138.630809 
L 357.852632 -138.630809 
L 358.831579 -138.630809 
L 359.810526 -138.630809 
L 360.789474 -138.630809 
L 361.768421 -138.630809 
L 362.747368 -138.630809 
L 363.726316 -138.630809 
L 364.705263 -138.630809 
L 365.684211 -138.630809 
L 366.663158 -138.630809 
L 367.642105 -138.630809 
L 368.621053 -138.630809 
L 369.6 -138.630809 
L 370.578947 -138.630809 
L 371.557895 -138.630809 
L 372.536842 -138.630809 
L 373.515789 -138.630809 
L 374.494737 -138.630809 
L 375.473684 -138.630809 
L 376.452632 -138.630809 
L 377.431579 -138.630809 
L 378.410526 -138.630809 
L 379.389474 -138.630809 
L 380.368421 -138.630809 
L 381.347368 -138.630809 
L 382.326316 -138.630809 
L 383.305263 -138.630809 
L 384.284211 -138.630809 
L 385.263158 -138.630809 
L 386.242105 -138.630809 
L 387.221053 -138.630809 
L 388.2 -138.630809 
L 389.178947 -138.630809 
L 390.157895 -138.630809 
L 391.136842 -138.630809 
L 392.115789 -138.630809 
L 393.094737 -138.630809 
L 394.073684 -138.630809 
L 395.052632 -138.630809 
L 396.031579 -138.630809 
L 397.010526 -138.630809 
L 397.989474 -138.630809 
L 398.968421 -138.630809 
L 399.947368 -138.630809 
L 400.926316 -138.630809 
L 401.905263 -138.630809 
L 402.884211 -138.630809 
L 403.863158 -138.630809 
L 404.842105 -138.630809 
L 405.821053 -138.630809 
L 406.8 -138.630809 
L 407.778947 -138.630809 
L 408.757895 -138.630809 
L 409.736842 -138.630809 
L 410.715789 -138.630809 
L 411.694737 -138.630809 
L 412.673684 -138.630809 
L 413.652632 -138.630809 
L 414.631579 -138.630809 
L 415.610526 -138.630809 
L 416.589474 -138.630809 
L 417.568421 -138.630809 
L 418.547368 -138.630809 
L 419.526316 -138.630809 
L 420.505263 -138.630809 
L 421.484211 -138.630809 
L 422.463158 -138.630809 
L 423.442105 -138.630809 
L 424.421053 -138.630809 
L 425.4 -138.630809 
L 426.378947 -138.630809 
L 427.357895 -138.630809 
L 428.336842 -138.630809 
L 429.315789 -138.630809 
L 430.294737 -138.630809 
L 431.273684 -138.630809 
L 432.252632 -138.630809 
L 433.231579 -138.630809 
L 434.210526 -138.630809 
L 435.189474 -138.630809 
L 436.168421 -138.630809 
L 437.147368 -138.630809 
L 438.126316 -138.630809 
L 439.105263 -138.630809 
L 440.084211 -138.630809 
L 441.063158 -138.630809 
L 442.042105 -138.630809 
L 443.021053 -138.630809 
L 444 -138.630809 
L 444.978947 -138.630809 
L 445.957895 -138.630809 
L 446.936842 -138.630809 
L 447.915789 -138.630809 
L 448.894737 -138.630809 
L 449.873684 -138.630809 
L 450.852632 -138.630809 
L 451.831579 -138.630809 
L 452.810526 -138.630809 
L 453.789474 -138.630809 
L 454.768421 -138.630809 
L 455.747368 -138.630809 
L 456.726316 -138.630809 
L 457.705263 -138.630809 
L 458.684211 -138.630809 
L 459.663158 -138.630809 
L 460.642105 -138.630809 
L 461.621053 -138.630809 
L 462.6 -138.630809 
L 463.578947 -138.630809 
L 464.557895 -138.630809 
L 465.536842 -138.630809 
L 466.515789 -138.630809 
L 467.494737 -138.630809 
L 468.473684 -138.630809 
L 469.452632 -138.630809 
L 470.431579 -138.630809 
L 471.410526 -138.630809 
L 472.389474 -138.630809 
L 473.368421 -138.630809 
L 474.347368 -138.630809 
L 475.326316 -138.630809 
L 476.305263 -138.630809 
L 477.284211 -138.630809 
L 478.263158 -138.630809 
L 479.242105 -138.630809 
L 480.221053 -138.630809 
L 481.2 -138.630809 
L 482.178947 -138.630809 
L 483.157895 -138.630809 
L 484.136842 -138.630809 
L 485.115789 -138.630809 
L 486.094737 -138.630809 
L 487.073684 -138.630809 
L 488.052632 -138.630809 
L 489.031579 -138.630809 
L 490.010526 -138.630809 
L 490.989474 -138.630809 
L 491.968421 -138.630809 
L 492.947368 -138.630809 
L 493.926316 -138.630809 
L 494.905263 -138.630809 
L 495.884211 -138.630809 
L 496.863158 -138.630809 
L 497.842105 -138.630809 
L 498.821053 -138.630809 
L 499.8 -138.630809 
L 500.778947 -138.630809 
L 501.757895 -138.630809 
L 502.736842 -138.630809 
L 503.715789 -138.630809 
L 504.694737 -138.630809 
L 505.673684 -138.630809 
L 506.652632 -138.630809 
L 507.631579 -138.630809 
L 508.610526 -138.630809 
L 509.589474 -138.630809 
L 510.568421 -138.630809 
L 511.547368 -138.630809 
L 512.526316 -138.630809 
L 513.505263 -138.630809 
L 514.484211 -138.630809 
L 515.463158 -138.630809 
L 516.442105 -138.630809 
L 517.421053 -138.630809 
L 518.4 -138.630809 
L 518.4 -129.955667 
L 518.4 -129.955667 
L 517.421053 -129.955667 
L 516.442105 -129.955667 
L 515.463158 -129.955667 
L 514.484211 -129.955667 
L 513.505263 -129.955667 
L 512.526316 -129.955667 
L 511.547368 -129.955667 
L 510.568421 -129.955667 
L 509.589474 -129.955667 
L 508.610526 -129.955667 
L 507.631579 -129.955667 
L 506.652632 -129.955667 
L 505.673684 -129.955667 
L 504.694737 -129.955667 
L 503.715789 -129.955667 
L 502.736842 -129.955667 
L 501.757895 -129.955667 
L 500.778947 -129.955667 
L 499.8 -129.955667 
L 498.821053 -129.955667 
L 497.842105 -129.955667 
L 496.863158 -129.955667 
L 495.884211 -129.955667 
L 494.905263 -129.955667 
L 493.926316 -129.955667 
L 492.947368 -129.955667 
L 491.968421 -129.955667 
L 490.989474 -129.955667 
L 490.010526 -129.955667 
L 489.031579 -129.955667 
L 488.052632 -129.955667 
L 487.073684 -129.955667 
L 486.094737 -129.955667 
L 485.115789 -129.955667 
L 484.136842 -129.955667 
L 483.157895 -129.955667 
L 482.178947 -129.955667 
L 481.2 -129.955667 
L 480.221053 -129.955667 
L 479.242105 -129.955667 
L 478.263158 -129.955667 
L 477.284211 -129.955667 
L 476.305263 -129.955667 
L 475.326316 -129.955667 
L 474.347368 -129.955667 
L 473.368421 -129.955667 
L 472.389474 -129.955667 
L 471.410526 -129.955667 
L 470.431579 -129.955667 
L 469.452632 -129.955667 
L 468.473684 -129.955667 
L 467.494737 -129.955667 
L 466.515789 -129.955667 
L 465.536842 -129.955667 
L 464.557895 -129.955667 
L 463.578947 -129.955667 
L 462.6 -129.955667 
L 461.621053 -129.955667 
L 460.642105 -129.955667 
L 459.663158 -129.955667 
L 458.684211 -129.955667 
L 457.705263 -129.955667 
L 456.726316 -129.955667 
L 455.747368 -129.955667 
L 454.768421 -129.955667 
L 453.789474 -129.955667 
L 452.810526 -129.955667 
L 451.831579 -129.955667 
L 450.852632 -129.955667 
L 449.873684 -129.955667 
L 448.894737 -129.955667 
L 447.915789 -129.955667 
L 446.936842 -129.955667 
L 445.957895 -129.955667 
L 444.978947 -129.955667 
L 444 -129.955667 
L 443.021053 -129.955667 
L 442.042105 -129.955667 
L 441.063158 -129.955667 
L 440.084211 -129.955667 
L 439.105263 -129.955667 
L 438.126316 -129.955667 
L 437.147368 -129.955667 
L 436.168421 -129.955667 
L 435.189474 -129.955667 
L 434.210526 -129.955667 
L 433.231579 -129.955667 
L 432.252632 -129.955667 
L 431.273684 -129.955667 
L 430.294737 -129.955667 
L 429.315789 -129.955667 
L 428.336842 -129.955667 
L 427.357895 -129.955667 
L 426.378947 -129.955667 
L 425.4 -129.955667 
L 424.421053 -129.955667 
L 423.442105 -129.955667 
L 422.463158 -129.955667 
L 421.484211 -129.955667 
L 420.505263 -129.955667 
L 419.526316 -129.955667 
L 418.547368 -129.955667 
L 417.568421 -129.955667 
L 416.589474 -129.955667 
L 415.610526 -129.955667 
L 414.631579 -129.955667 
L 413.652632 -129.955667 
L 412.673684 -129.955667 
L 411.694737 -129.955667 
L 410.715789 -129.955667 
L 409.736842 -129.955667 
L 408.757895 -129.955667 
L 407.778947 -129.955667 
L 406.8 -129.955667 
L 405.821053 -129.955667 
L 404.842105 -129.955667 
L 403.863158 -129.955667 
L 402.884211 -129.955667 
L 401.905263 -129.955667 
L 400.926316 -129.955667 
L 399.947368 -129.955667 
L 398.968421 -129.955667 
L 397.989474 -129.955667 
L 397.010526 -129.955667 
L 396.031579 -129.955667 
L 395.052632 -129.955667 
L 394.073684 -129.955667 
L 393.094737 -129.955667 
L 392.115789 -129.955667 
L 391.136842 -129.955667 
L 390.157895 -129.955667 
L 389.178947 -129.955667 
L 388.2 -129.955667 
L 387.221053 -129.955667 
L 386.242105 -129.955667 
L 385.263158 -129.955667 
L 384.284211 -129.955667 
L 383.305263 -129.955667 
L 382.326316 -129.955667 
L 381.347368 -129.955667 
L 380.368421 -129.955667 
L 379.389474 -129.955667 
L 378.410526 -129.955667 
L 377.431579 -129.955667 
L 376.452632 -129.955667 
L 375.473684 -129.955667 
L 374.494737 -129.955667 
L 373.515789 -129.955667 
L 372.536842 -129.955667 
L 371.557895 -129.955667 
L 370.578947 -129.955667 
L 369.6 -129.955667 
L 368.621053 -129.955667 
L 367.642105 -129.955667 
L 366.663158 -129.955667 
L 365.684211 -129.955667 
L 364.705263 -129.955667 
L 363.726316 -129.955667 
L 362.747368 -129.955667 
L 361.768421 -129.955667 
L 360.789474 -129.955667 
L 359.810526 -129.955667 
L 358.831579 -129.955667 
L 357.852632 -129.955667 
L 356.873684 -129.955667 
L 355.894737 -129.955667 
L 354.915789 -129.955667 
L 353.936842 -129.955667 
L 352.957895 -129.955667 
L 351.978947 -129.955667 
L 351 -129.955667 
L 350.021053 -129.955667 
L 349.042105 -129.955667 
L 348.063158 -129.955667 
L 347.084211 -129.955667 
L 346.105263 -129.955667 
L 345.126316 -129.955667 
L 344.147368 -129.955667 
L 343.168421 -129.955667 
L 342.189474 -129.955667 
L 341.210526 -129.955667 
L 340.231579 -129.955667 
L 339.252632 -129.955667 
L 338.273684 -129.955667 
L 337.294737 -129.955667 
L 336.315789 -129.955667 
L 335.336842 -129.955667 
L 334.357895 -129.955667 
L 333.378947 -129.955667 
L 332.4 -129.955667 
L 331.421053 -129.955667 
L 330.442105 -129.955667 
L 329.463158 -129.955667 
L 328.484211 -129.955667 
L 327.505263 -129.955667 
L 326.526316 -129.955667 
L 325.547368 -129.955667 
L 324.568421 -129.955667 
L 323.589474 -129.955667 
L 322.610526 -129.955667 
L 321.631579 -129.955667 
L 320.652632 -129.955667 
L 319.673684 -129.955667 
L 318.694737 -129.955667 
L 317.715789 -129.955667 
L 316.736842 -129.955667 
L 315.757895 -129.955667 
L 314.778947 -129.955667 
L 313.8 -129.955667 
L 312.821053 -129.955667 
L 311.842105 -129.955667 
L 310.863158 -129.955667 
L 309.884211 -129.955667 
L 308.905263 -129.955667 
L 307.926316 -129.955667 
L 306.947368 -129.955667 
L 305.968421 -129.955667 
L 304.989474 -129.955667 
L 304.010526 -129.955667 
L 303.031579 -129.955667 
L 302.052632 -129.955667 
L 301.073684 -129.955667 
L 300.094737 -129.955667 
L 299.115789 -129.955667 
L 298.136842 -129.955667 
L 297.157895 -129.955667 
L 296.178947 -129.955667 
L 295.2 -129.955667 
L 294.221053 -129.955667 
L 293.242105 -129.955667 
L 292.263158 -129.955667 
L 291.284211 -129.955667 
L 290.305263 -129.955667 
L 289.326316 -129.955667 
L 288.347368 -129.955667 
L 287.368421 -129.955667 
L 286.389474 -129.955667 
L 285.410526 -129.955667 
L 284.431579 -129.955667 
L 283.452632 -129.955667 
L 282.473684 -129.955667 
L 281.494737 -129.955667 
L 280.515789 -129.955667 
L 279.536842 -129.955667 
L 278.557895 -129.955667 
L 277.578947 -129.955667 
L 276.6 -129.955667 
L 275.621053 -129.955667 
L 274.642105 -129.955667 
L 273.663158 -129.955667 
L 272.684211 -129.955667 
L 271.705263 -129.955667 
L 270.726316 -129.955667 
L 269.747368 -129.955667 
L 268.768421 -129.955667 
L 267.789474 -129.955667 
L 266.810526 -129.955667 
L 265.831579 -129.955667 
L 264.852632 -129.955667 
L 263.873684 -129.955667 
L 262.894737 -129.955667 
L 261.915789 -129.955667 
L 260.936842 -129.955667 
L 259.957895 -129.955667 
L 258.978947 -129.955667 
L 258 -129.955667 
L 257.021053 -129.955667 
L 256.042105 -129.955667 
L 255.063158 -129.955667 
L 254.084211 -129.955667 
L 253.105263 -129.955667 
L 252.126316 -129.955667 
L 251.147368 -129.955667 
L 250.168421 -129.955667 
L 249.189474 -129.955667 
L 248.210526 -129.955667 
L 247.231579 -129.955667 
L 246.252632 -129.955667 
L 245.273684 -129.955667 
L 244.294737 -129.955667 
L 243.315789 -129.955667 
L 242.336842 -129.955667 
L 241.357895 -129.955667 
L 240.378947 -129.955667 
L 239.4 -129.955667 
L 238.421053 -129.955667 
L 237.442105 -129.955667 
L 236.463158 -129.955667 
L 235.484211 -129.955667 
L 234.505263 -129.955667 
L 233.526316 -129.955667 
L 232.547368 -129.955667 
L 231.568421 -129.955667 
L 230.589474 -129.955667 
L 229.610526 -129.955667 
L 228.631579 -129.955667 
L 227.652632 -129.955667 
L 226.673684 -129.955667 
L 225.694737 -129.955667 
L 224.715789 -129.955667 
L 223.736842 -129.955667 
L 222.757895 -129.955667 
L 221.778947 -129.955667 
L 220.8 -129.955667 
L 219.821053 -129.955667 
L 218.842105 -129.955667 
L 217.863158 -129.955667 
L 216.884211 -129.955667 
L 215.905263 -129.955667 
L 214.926316 -129.955667 
L 213.947368 -129.955667 
L 212.968421 -129.955667 
L 211.989474 -129.955667 
L 211.010526 -129.955667 
L 210.031579 -129.955667 
L 209.052632 -129.955667 
L 208.073684 -129.955667 
L 207.094737 -129.955667 
L 206.115789 -129.955667 
L 205.136842 -129.955667 
L 204.157895 -129.955667 
L 203.178947 -129.955667 
L 202.2 -129.955667 
L 201.221053 -129.955667 
L 200.242105 -129.955667 
L 199.263158 -129.955667 
L 198.284211 -129.955667 
L 197.305263 -129.955667 
L 196.326316 -129.955667 
L 195.347368 -129.955667 
L 194.368421 -129.955667 
L 193.389474 -129.955667 
L 192.410526 -129.955667 
L 191.431579 -129.955667 
L 190.452632 -129.955667 
L 189.473684 -129.955667 
L 188.494737 -129.955667 
L 187.515789 -129.955667 
L 186.536842 -129.955667 
L 185.557895 -129.955667 
L 184.578947 -129.955667 
L 183.6 -129.955667 
L 182.621053 -129.955667 
L 181.642105 -129.955667 
L 180.663158 -129.955667 
L 179.684211 -129.955667 
L 178.705263 -129.955667 
L 177.726316 -129.955667 
L 176.747368 -129.955667 
L 175.768421 -129.955667 
L 174.789474 -129.955667 
L 173.810526 -129.955667 
L 172.831579 -129.955667 
L 171.852632 -129.955667 
L 170.873684 -129.955667 
L 169.894737 -129.955667 
L 168.915789 -129.955667 
L 167.936842 -129.955667 
L 166.957895 -129.955667 
L 165.978947 -129.955667 
L 165 -129.955667 
L 164.021053 -129.955667 
L 163.042105 -129.955667 
L 162.063158 -129.955667 
L 161.084211 -129.955667 
L 160.105263 -129.955667 
L 159.126316 -129.955667 
L 158.147368 -129.955667 
L 157.168421 -129.955667 
L 156.189474 -129.955667 
L 155.210526 -129.955667 
L 154.231579 -129.955667 
L 153.252632 -129.955667 
L 152.273684 -129.955667 
L 151.294737 -129.955667 
L 150.315789 -129.955667 
L 149.336842 -129.955667 
L 148.357895 -129.955667 
L 147.378947 -129.955667 
L 146.4 -129.955667 
L 145.421053 -129.955667 
L 144.442105 -129.955667 
L 143.463158 -129.955667 
L 142.484211 -129.955667 
L 141.505263 -129.955667 
L 140.526316 -129.955667 
L 139.547368 -129.955667 
L 138.568421 -129.955667 
L 137.589474 -129.955667 
L 136.610526 -129.955667 
L 135.631579 -129.955667 
L 134.652632 -129.955667 
L 133.673684 -129.955667 
L 132.694737 -129.955667 
L 131.715789 -129.955667 
L 130.736842 -129.955667 
L 129.757895 -129.955667 
L 128.778947 -129.955667 
L 127.8 -129.955667 
L 126.821053 -129.955667 
L 125.842105 -129.955667 
L 124.863158 -129.955667 
L 123.884211 -129.955667 
L 122.905263 -129.955667 
L 121.926316 -129.955667 
L 120.947368 -129.955667 
L 119.968421 -129.955667 
L 118.989474 -129.955667 
L 118.010526 -129.955667 
L 117.031579 -129.955667 
L 116.052632 -129.955667 
L 115.073684 -129.955667 
L 114.094737 -129.955667 
L 113.115789 -129.955667 
L 112.136842 -129.955667 
L 111.157895 -129.955667 
L 110.178947 -129.955667 
L 109.2 -129.955667 
L 108.221053 -129.955667 
L 107.242105 -129.955667 
L 106.263158 -129.955667 
L 105.284211 -129.955667 
L 104.305263 -129.955667 
L 103.326316 -129.955667 
L 102.347368 -129.955667 
L 101.368421 -129.955667 
L 100.389474 -129.955667 
L 99.410526 -129.955667 
L 98.431579 -129.955667 
L 97.452632 -129.955667 
L 96.473684 -129.955667 
L 95.494737 -129.955667 
L 94.515789 -129.955667 
L 93.536842 -129.955667 
L 92.557895 -129.955667 
L 91.578947 -129.955667 
L 90.6 -129.955667 
L 89.621053 -129.955667 
L 88.642105 -129.955667 
L 87.663158 -129.955667 
L 86.684211 -129.955667 
L 85.705263 -129.955667 
L 84.726316 -129.955667 
L 83.747368 -129.955667 
L 82.768421 -129.955667 
L 81.789474 -129.955667 
L 80.810526 -129.955667 
L 79.831579 -129.955667 
L 78.852632 -129.955667 
L 77.873684 -129.955667 
L 76.894737 -129.955667 
L 75.915789 -129.955667 
L 74.936842 -129.955667 
L 73.957895 -129.955667 
L 72.978947 -129.955667 
L 72 -129.955667 
z
" id="ma812339015"/>
    </defs>
    <g clip-path="url(#p69d9643604)">
     <use style="fill-opacity:0.15;" x="0" xlink:href="#ma812339015" y="360"/>
    </g>
   </g>
   <g id="matplotlib.axis_1">
    <g id="xtick_1">
     <g id="line2d_1">
      <defs>
       <path d="M 0 0 
L 0 3.5 
" id="ma84edb7f9a" style="stroke:#000000;stroke-width:0.8;"/>
      </defs>
      <g>
       <use style="stroke:#000000;stroke-width:0.8;" x="72" xlink:href="#ma84edb7f9a" y="320.4"/>
      </g>
     </g>
     <g id="text_1">
      <!-- 0.0 -->
      <g transform="translate(60.867812 338.037813)scale(0.14 -0.14)">
       <defs>
        <path d="M 2034 4250 
Q 1547 4250 1301 3770 
Q 1056 3291 1056 2328 
Q 1056 1369 1301 889 
Q 1547 409 2034 409 
Q 2525 409 2770 889 
Q 3016 1369 3016 2328 
Q 3016 3291 2770 3770 
Q 2525 4250 2034 4250 
z
M 2034 4750 
Q 2819 4750 3233 4129 
Q 3647 3509 3647 2328 
Q 3647 1150 3233 529 
Q 2819 -91 2034 -91 
Q 1250 -91 836 529 
Q 422 1150 422 2328 
Q 422 3509 836 4129 
Q 1250 4750 2034 4750 
z
" id="DejaVuSans-30" transform="scale(0.015625)"/>
        <path d="M 684 794 
L 1344 794 
L 1344 0 
L 684 0 
L 684 794 
z
" id="DejaVuSans-2e" transform="scale(0.015625)"/>
       </defs>
       <use xlink:href="#DejaVuSans-30"/>
       <use x="63.623047" xlink:href="#DejaVuSans-2e"/>
       <use x="95.410156" xlink:href="#DejaVuSans-30"/>
      </g>
     </g>
    </g>
    <g id="xtick_2">
     <g id="line2d_2">
      <g>
       <use style="stroke:#000000;stroke-width:0.8;" x="127.911824" xlink:href="#ma84edb7f9a" y="320.4"/>
      </g>
     </g>
     <g id="text_2">
      <!-- 2.5 -->
      <g transform="translate(116.779636 338.037813)scale(0.14 -0.14)">
       <defs>
        <path d="M 1228 531 
L 3431 531 
L 3431 0 
L 469 0 
L 469 531 
Q 828 903 1448 1529 
Q 2069 2156 2228 2338 
Q 2531 2678 2651 2914 
Q 2772 3150 2772 3378 
Q 2772 3750 2511 3984 
Q 2250 4219 1831 4219 
Q 1534 4219 1204 4116 
Q 875 4013 500 3803 
L 500 4441 
Q 881 4594 1212 4672 
Q 1544 4750 1819 4750 
Q 2544 4750 2975 4387 
Q 3406 4025 3406 3419 
Q 3406 3131 3298 2873 
Q 3191 2616 2906 2266 
Q 2828 2175 2409 1742 
Q 1991 1309 1228 531 
z
" id="DejaVuSans-32" transform="scale(0.015625)"/>
        <path d="M 691 4666 
L 3169 4666 
L 3169 4134 
L 1269 4134 
L 1269 2991 
Q 1406 3038 1543 3061 
Q 1681 3084 1819 3084 
Q 2600 3084 3056 2656 
Q 3513 2228 3513 1497 
Q 3513 744 3044 326 
Q 2575 -91 1722 -91 
Q 1428 -91 1123 -41 
Q 819 9 494 109 
L 494 744 
Q 775 591 1075 516 
Q 1375 441 1709 441 
Q 2250 441 2565 725 
Q 2881 1009 2881 1497 
Q 2881 1984 2565 2268 
Q 2250 2553 1709 2553 
Q 1456 2553 1204 2497 
Q 953 2441 691 2322 
L 691 4666 
z
" id="DejaVuSans-35" transform="scale(0.015625)"/>
       </defs>
       <use xlink:href="#DejaVuSans-32"/>
       <use x="63.623047" xlink:href="#DejaVuSans-2e"/>
       <use x="95.410156" xlink:href="#DejaVuSans-35"/>
      </g>
     </g>
    </g>
    <g id="xtick_3">
     <g id="line2d_3">
      <g>
       <use style="stroke:#000000;stroke-width:0.8;" x="183.823647" xlink:href="#ma84edb7f9a" y="320.4"/>
      </g>
     </g>
     <g id="text_3">
      <!-- 5.0 -->
      <g transform="translate(172.69146 338.037813)scale(0.14 -0.14)">
       <use xlink:href="#DejaVuSans-35"/>
       <use x="63.623047" xlink:href="#DejaVuSans-2e"/>
       <use x="95.410156" xlink:href="#DejaVuSans-30"/>
      </g>
     </g>
    </g>
    <g id="xtick_4">
     <g id="line2d_4">
      <g>
       <use style="stroke:#000000;stroke-width:0.8;" x="239.735471" xlink:href="#ma84edb7f9a" y="320.4"/>
      </g>
     </g>
     <g id="text_4">
      <!-- 7.5 -->
      <g transform="translate(228.603283 338.037813)scale(0.14 -0.14)">
       <defs>
        <path d="M 525 4666 
L 3525 4666 
L 3525 4397 
L 1831 0 
L 1172 0 
L 2766 4134 
L 525 4134 
L 525 4666 
z
" id="DejaVuSans-37" transform="scale(0.015625)"/>
       </defs>
       <use xlink:href="#DejaVuSans-37"/>
       <use x="63.623047" xlink:href="#DejaVuSans-2e"/>
       <use x="95.410156" xlink:href="#DejaVuSans-35"/>
      </g>
     </g>
    </g>
    <g id="xtick_5">
     <g id="line2d_5">
      <g>
       <use style="stroke:#000000;stroke-width:0.8;" x="295.647295" xlink:href="#ma84edb7f9a" y="320.4"/>
      </g>
     </g>
     <g id="text_5">
      <!-- 10.0 -->
      <g transform="translate(280.061357 338.037813)scale(0.14 -0.14)">
       <defs>
        <path d="M 794 531 
L 1825 531 
L 1825 4091 
L 703 3866 
L 703 4441 
L 1819 4666 
L 2450 4666 
L 2450 531 
L 3481 531 
L 3481 0 
L 794 0 
L 794 531 
z
" id="DejaVuSans-31" transform="scale(0.015625)"/>
       </defs>
       <use xlink:href="#DejaVuSans-31"/>
       <use x="63.623047" xlink:href="#DejaVuSans-30"/>
       <use x="127.246094" xlink:href="#DejaVuSans-2e"/>
       <use x="159.033203" xlink:href="#DejaVuSans-30"/>
      </g>
     </g>
    </g>
    <g id="xtick_6">
     <g id="line2d_6">
      <g>
       <use style="stroke:#000000;stroke-width:0.8;" x="351.559118" xlink:href="#ma84edb7f9a" y="320.4"/>
      </g>
     </g>
     <g id="text_6">
      <!-- 12.5 -->
      <g transform="translate(335.973181 338.037813)scale(0.14 -0.14)">
       <use xlink:href="#DejaVuSans-31"/>
       <use x="63.623047" xlink:href="#DejaVuSans-32"/>
       <use x="127.246094" xlink:href="#DejaVuSans-2e"/>
       <use x="159.033203" xlink:href="#DejaVuSans-35"/>
      </g>
     </g>
    </g>
    <g id="xtick_7">
     <g id="line2d_7">
      <g>
       <use style="stroke:#000000;stroke-width:0.8;" x="407.470942" xlink:href="#ma84edb7f9a" y="320.4"/>
      </g>
     </g>
     <g id="text_7">
      <!-- 15.0 -->
      <g transform="translate(391.885004 338.037813)scale(0.14 -0.14)">
       <use xlink:href="#DejaVuSans-31"/>
       <use x="63.623047" xlink:href="#DejaVuSans-35"/>
       <use x="127.246094" xlink:href="#DejaVuSans-2e"/>
       <use x="159.033203" xlink:href="#DejaVuSans-30"/>
      </g>
     </g>
    </g>
    <g id="xtick_8">
     <g id="line2d_8">
      <g>
       <use style="stroke:#000000;stroke-width:0.8;" x="463.382766" xlink:href="#ma84edb7f9a" y="320.4"/>
      </g>
     </g>
     <g id="text_8">
      <!-- 17.5 -->
      <g transform="translate(447.796828 338.037813)scale(0.14 -0.14)">
       <use xlink:href="#DejaVuSans-31"/>
       <use x="63.623047" xlink:href="#DejaVuSans-37"/>
       <use x="127.246094" xlink:href="#DejaVuSans-2e"/>
       <use x="159.033203" xlink:href="#DejaVuSans-35"/>
      </g>
     </g>
    </g>
    <g id="text_9">
     <!-- Time [Seconds] -->
     <g transform="translate(233.23 357.106875)scale(0.16 -0.16)">
      <defs>
       <path d="M -19 4666 
L 3928 4666 
L 3928 4134 
L 2272 4134 
L 2272 0 
L 1638 0 
L 1638 4134 
L -19 4134 
L -19 4666 
z
" id="DejaVuSans-54" transform="scale(0.015625)"/>
       <path d="M 603 3500 
L 1178 3500 
L 1178 0 
L 603 0 
L 603 3500 
z
M 603 4863 
L 1178 4863 
L 1178 4134 
L 603 4134 
L 603 4863 
z
" id="DejaVuSans-69" transform="scale(0.015625)"/>
       <path d="M 3328 2828 
Q 3544 3216 3844 3400 
Q 4144 3584 4550 3584 
Q 5097 3584 5394 3201 
Q 5691 2819 5691 2113 
L 5691 0 
L 5113 0 
L 5113 2094 
Q 5113 2597 4934 2840 
Q 4756 3084 4391 3084 
Q 3944 3084 3684 2787 
Q 3425 2491 3425 1978 
L 3425 0 
L 2847 0 
L 2847 2094 
Q 2847 2600 2669 2842 
Q 2491 3084 2119 3084 
Q 1678 3084 1418 2786 
Q 1159 2488 1159 1978 
L 1159 0 
L 581 0 
L 581 3500 
L 1159 3500 
L 1159 2956 
Q 1356 3278 1631 3431 
Q 1906 3584 2284 3584 
Q 2666 3584 2933 3390 
Q 3200 3197 3328 2828 
z
" id="DejaVuSans-6d" transform="scale(0.015625)"/>
       <path d="M 3597 1894 
L 3597 1613 
L 953 1613 
Q 991 1019 1311 708 
Q 1631 397 2203 397 
Q 2534 397 2845 478 
Q 3156 559 3463 722 
L 3463 178 
Q 3153 47 2828 -22 
Q 2503 -91 2169 -91 
Q 1331 -91 842 396 
Q 353 884 353 1716 
Q 353 2575 817 3079 
Q 1281 3584 2069 3584 
Q 2775 3584 3186 3129 
Q 3597 2675 3597 1894 
z
M 3022 2063 
Q 3016 2534 2758 2815 
Q 2500 3097 2075 3097 
Q 1594 3097 1305 2825 
Q 1016 2553 972 2059 
L 3022 2063 
z
" id="DejaVuSans-65" transform="scale(0.015625)"/>
       <path id="DejaVuSans-20" transform="scale(0.015625)"/>
       <path d="M 550 4863 
L 1875 4863 
L 1875 4416 
L 1125 4416 
L 1125 -397 
L 1875 -397 
L 1875 -844 
L 550 -844 
L 550 4863 
z
" id="DejaVuSans-5b" transform="scale(0.015625)"/>
       <path d="M 3425 4513 
L 3425 3897 
Q 3066 4069 2747 4153 
Q 2428 4238 2131 4238 
Q 1616 4238 1336 4038 
Q 1056 3838 1056 3469 
Q 1056 3159 1242 3001 
Q 1428 2844 1947 2747 
L 2328 2669 
Q 3034 2534 3370 2195 
Q 3706 1856 3706 1288 
Q 3706 609 3251 259 
Q 2797 -91 1919 -91 
Q 1588 -91 1214 -16 
Q 841 59 441 206 
L 441 856 
Q 825 641 1194 531 
Q 1563 422 1919 422 
Q 2459 422 2753 634 
Q 3047 847 3047 1241 
Q 3047 1584 2836 1778 
Q 2625 1972 2144 2069 
L 1759 2144 
Q 1053 2284 737 2584 
Q 422 2884 422 3419 
Q 422 4038 858 4394 
Q 1294 4750 2059 4750 
Q 2388 4750 2728 4690 
Q 3069 4631 3425 4513 
z
" id="DejaVuSans-53" transform="scale(0.015625)"/>
       <path d="M 3122 3366 
L 3122 2828 
Q 2878 2963 2633 3030 
Q 2388 3097 2138 3097 
Q 1578 3097 1268 2742 
Q 959 2388 959 1747 
Q 959 1106 1268 751 
Q 1578 397 2138 397 
Q 2388 397 2633 464 
Q 2878 531 3122 666 
L 3122 134 
Q 2881 22 2623 -34 
Q 2366 -91 2075 -91 
Q 1284 -91 818 406 
Q 353 903 353 1747 
Q 353 2603 823 3093 
Q 1294 3584 2113 3584 
Q 2378 3584 2631 3529 
Q 2884 3475 3122 3366 
z
" id="DejaVuSans-63" transform="scale(0.015625)"/>
       <path d="M 1959 3097 
Q 1497 3097 1228 2736 
Q 959 2375 959 1747 
Q 959 1119 1226 758 
Q 1494 397 1959 397 
Q 2419 397 2687 759 
Q 2956 1122 2956 1747 
Q 2956 2369 2687 2733 
Q 2419 3097 1959 3097 
z
M 1959 3584 
Q 2709 3584 3137 3096 
Q 3566 2609 3566 1747 
Q 3566 888 3137 398 
Q 2709 -91 1959 -91 
Q 1206 -91 779 398 
Q 353 888 353 1747 
Q 353 2609 779 3096 
Q 1206 3584 1959 3584 
z
" id="DejaVuSans-6f" transform="scale(0.015625)"/>
       <path d="M 3513 2113 
L 3513 0 
L 2938 0 
L 2938 2094 
Q 2938 2591 2744 2837 
Q 2550 3084 2163 3084 
Q 1697 3084 1428 2787 
Q 1159 2491 1159 1978 
L 1159 0 
L 581 0 
L 581 3500 
L 1159 3500 
L 1159 2956 
Q 1366 3272 1645 3428 
Q 1925 3584 2291 3584 
Q 2894 3584 3203 3211 
Q 3513 2838 3513 2113 
z
" id="DejaVuSans-6e" transform="scale(0.015625)"/>
       <path d="M 2906 2969 
L 2906 4863 
L 3481 4863 
L 3481 0 
L 2906 0 
L 2906 525 
Q 2725 213 2448 61 
Q 2172 -91 1784 -91 
Q 1150 -91 751 415 
Q 353 922 353 1747 
Q 353 2572 751 3078 
Q 1150 3584 1784 3584 
Q 2172 3584 2448 3432 
Q 2725 3281 2906 2969 
z
M 947 1747 
Q 947 1113 1208 752 
Q 1469 391 1925 391 
Q 2381 391 2643 752 
Q 2906 1113 2906 1747 
Q 2906 2381 2643 2742 
Q 2381 3103 1925 3103 
Q 1469 3103 1208 2742 
Q 947 2381 947 1747 
z
" id="DejaVuSans-64" transform="scale(0.015625)"/>
       <path d="M 2834 3397 
L 2834 2853 
Q 2591 2978 2328 3040 
Q 2066 3103 1784 3103 
Q 1356 3103 1142 2972 
Q 928 2841 928 2578 
Q 928 2378 1081 2264 
Q 1234 2150 1697 2047 
L 1894 2003 
Q 2506 1872 2764 1633 
Q 3022 1394 3022 966 
Q 3022 478 2636 193 
Q 2250 -91 1575 -91 
Q 1294 -91 989 -36 
Q 684 19 347 128 
L 347 722 
Q 666 556 975 473 
Q 1284 391 1588 391 
Q 1994 391 2212 530 
Q 2431 669 2431 922 
Q 2431 1156 2273 1281 
Q 2116 1406 1581 1522 
L 1381 1569 
Q 847 1681 609 1914 
Q 372 2147 372 2553 
Q 372 3047 722 3315 
Q 1072 3584 1716 3584 
Q 2034 3584 2315 3537 
Q 2597 3491 2834 3397 
z
" id="DejaVuSans-73" transform="scale(0.015625)"/>
       <path d="M 1947 4863 
L 1947 -844 
L 622 -844 
L 622 -397 
L 1369 -397 
L 1369 4416 
L 622 4416 
L 622 4863 
L 1947 4863 
z
" id="DejaVuSans-5d" transform="scale(0.015625)"/>
      </defs>
      <use xlink:href="#DejaVuSans-54"/>
      <use x="57.958984" xlink:href="#DejaVuSans-69"/>
      <use x="85.742188" xlink:href="#DejaVuSans-6d"/>
      <use x="183.154297" xlink:href="#DejaVuSans-65"/>
      <use x="244.677734" xlink:href="#DejaVuSans-20"/>
      <use x="276.464844" xlink:href="#DejaVuSans-5b"/>
      <use x="315.478516" xlink:href="#DejaVuSans-53"/>
      <use x="378.955078" xlink:href="#DejaVuSans-65"/>
      <use x="440.478516" xlink:href="#DejaVuSans-63"/>
      <use x="495.458984" xlink:href="#DejaVuSans-6f"/>
      <use x="556.640625" xlink:href="#DejaVuSans-6e"/>
      <use x="620.019531" xlink:href="#DejaVuSans-64"/>
      <use x="683.496094" xlink:href="#DejaVuSans-73"/>
      <use x="735.595703" xlink:href="#DejaVuSans-5d"/>
     </g>
    </g>
   </g>
   <g id="matplotlib.axis_2">
    <g id="ytick_1">
     <g id="line2d_9">
      <defs>
       <path d="M 0 0 
L -3.5 0 
" id="m8fd07e6bff" style="stroke:#000000;stroke-width:0.8;"/>
      </defs>
      <g>
       <use style="stroke:#000000;stroke-width:0.8;" x="72" xlink:href="#m8fd07e6bff" y="297.859028"/>
      </g>
     </g>
     <g id="text_10">
      <!-- 0.00 -->
      <g transform="translate(33.828125 303.177934)scale(0.14 -0.14)">
       <use xlink:href="#DejaVuSans-30"/>
       <use x="63.623047" xlink:href="#DejaVuSans-2e"/>
       <use x="95.410156" xlink:href="#DejaVuSans-30"/>
       <use x="159.033203" xlink:href="#DejaVuSans-30"/>
      </g>
     </g>
    </g>
    <g id="ytick_2">
     <g id="line2d_10">
      <g>
       <use style="stroke:#000000;stroke-width:0.8;" x="72" xlink:href="#m8fd07e6bff" y="262.208278"/>
      </g>
     </g>
     <g id="text_11">
      <!-- 0.25 -->
      <g transform="translate(33.828125 267.527184)scale(0.14 -0.14)">
       <use xlink:href="#DejaVuSans-30"/>
       <use x="63.623047" xlink:href="#DejaVuSans-2e"/>
       <use x="95.410156" xlink:href="#DejaVuSans-32"/>
       <use x="159.033203" xlink:href="#DejaVuSans-35"/>
      </g>
     </g>
    </g>
    <g id="ytick_3">
     <g id="line2d_11">
      <g>
       <use style="stroke:#000000;stroke-width:0.8;" x="72" xlink:href="#m8fd07e6bff" y="226.557528"/>
      </g>
     </g>
     <g id="text_12">
      <!-- 0.50 -->
      <g transform="translate(33.828125 231.876434)scale(0.14 -0.14)">
       <use xlink:href="#DejaVuSans-30"/>
       <use x="63.623047" xlink:href="#DejaVuSans-2e"/>
       <use x="95.410156" xlink:href="#DejaVuSans-35"/>
       <use x="159.033203" xlink:href="#DejaVuSans-30"/>
      </g>
     </g>
    </g>
    <g id="ytick_4">
     <g id="line2d_12">
      <g>
       <use style="stroke:#000000;stroke-width:0.8;" x="72" xlink:href="#m8fd07e6bff" y="190.906778"/>
      </g>
     </g>
     <g id="text_13">
      <!-- 0.75 -->
      <g transform="translate(33.828125 196.225684)scale(0.14 -0.14)">
       <use xlink:href="#DejaVuSans-30"/>
       <use x="63.623047" xlink:href="#DejaVuSans-2e"/>
       <use x="95.410156" xlink:href="#DejaVuSans-37"/>
       <use x="159.033203" xlink:href="#DejaVuSans-35"/>
      </g>
     </g>
    </g>
    <g id="ytick_5">
     <g id="line2d_13">
      <g>
       <use style="stroke:#000000;stroke-width:0.8;" x="72" xlink:href="#m8fd07e6bff" y="155.256028"/>
      </g>
     </g>
     <g id="text_14">
      <!-- 1.00 -->
      <g transform="translate(33.828125 160.574934)scale(0.14 -0.14)">
       <use xlink:href="#DejaVuSans-31"/>
       <use x="63.623047" xlink:href="#DejaVuSans-2e"/>
       <use x="95.410156" xlink:href="#DejaVuSans-30"/>
       <use x="159.033203" xlink:href="#DejaVuSans-30"/>
      </g>
     </g>
    </g>
    <g id="ytick_6">
     <g id="line2d_14">
      <g>
       <use style="stroke:#000000;stroke-width:0.8;" x="72" xlink:href="#m8fd07e6bff" y="119.605278"/>
      </g>
     </g>
     <g id="text_15">
      <!-- 1.25 -->
      <g transform="translate(33.828125 124.924184)scale(0.14 -0.14)">
       <use xlink:href="#DejaVuSans-31"/>
       <use x="63.623047" xlink:href="#DejaVuSans-2e"/>
       <use x="95.410156" xlink:href="#DejaVuSans-32"/>
       <use x="159.033203" xlink:href="#DejaVuSans-35"/>
      </g>
     </g>
    </g>
    <g id="ytick_7">
     <g id="line2d_15">
      <g>
       <use style="stroke:#000000;stroke-width:0.8;" x="72" xlink:href="#m8fd07e6bff" y="83.954528"/>
      </g>
     </g>
     <g id="text_16">
      <!-- 1.50 -->
      <g transform="translate(33.828125 89.273434)scale(0.14 -0.14)">
       <use xlink:href="#DejaVuSans-31"/>
       <use x="63.623047" xlink:href="#DejaVuSans-2e"/>
       <use x="95.410156" xlink:href="#DejaVuSans-35"/>
       <use x="159.033203" xlink:href="#DejaVuSans-30"/>
      </g>
     </g>
    </g>
    <g id="ytick_8">
     <g id="line2d_16">
      <g>
       <use style="stroke:#000000;stroke-width:0.8;" x="72" xlink:href="#m8fd07e6bff" y="48.303778"/>
      </g>
     </g>
     <g id="text_17">
      <!-- 1.75 -->
      <g transform="translate(33.828125 53.622684)scale(0.14 -0.14)">
       <use xlink:href="#DejaVuSans-31"/>
       <use x="63.623047" xlink:href="#DejaVuSans-2e"/>
       <use x="95.410156" xlink:href="#DejaVuSans-37"/>
       <use x="159.033203" xlink:href="#DejaVuSans-35"/>
      </g>
     </g>
    </g>
    <g id="text_18">
     <!-- Speed [mm/s] -->
     <g transform="translate(26.500625 238.11375)rotate(-90)scale(0.16 -0.16)">
      <defs>
       <path d="M 1159 525 
L 1159 -1331 
L 581 -1331 
L 581 3500 
L 1159 3500 
L 1159 2969 
Q 1341 3281 1617 3432 
Q 1894 3584 2278 3584 
Q 2916 3584 3314 3078 
Q 3713 2572 3713 1747 
Q 3713 922 3314 415 
Q 2916 -91 2278 -91 
Q 1894 -91 1617 61 
Q 1341 213 1159 525 
z
M 3116 1747 
Q 3116 2381 2855 2742 
Q 2594 3103 2138 3103 
Q 1681 3103 1420 2742 
Q 1159 2381 1159 1747 
Q 1159 1113 1420 752 
Q 1681 391 2138 391 
Q 2594 391 2855 752 
Q 3116 1113 3116 1747 
z
" id="DejaVuSans-70" transform="scale(0.015625)"/>
       <path d="M 1625 4666 
L 2156 4666 
L 531 -594 
L 0 -594 
L 1625 4666 
z
" id="DejaVuSans-2f" transform="scale(0.015625)"/>
      </defs>
      <use xlink:href="#DejaVuSans-53"/>
      <use x="63.476562" xlink:href="#DejaVuSans-70"/>
      <use x="126.953125" xlink:href="#DejaVuSans-65"/>
      <use x="188.476562" xlink:href="#DejaVuSans-65"/>
      <use x="250" xlink:href="#DejaVuSans-64"/>
      <use x="313.476562" xlink:href="#DejaVuSans-20"/>
      <use x="345.263672" xlink:href="#DejaVuSans-5b"/>
      <use x="384.277344" xlink:href="#DejaVuSans-6d"/>
      <use x="481.689453" xlink:href="#DejaVuSans-6d"/>
      <use x="579.101562" xlink:href="#DejaVuSans-2f"/>
      <use x="612.792969" xlink:href="#DejaVuSans-73"/>
      <use x="664.892578" xlink:href="#DejaVuSans-5d"/>
     </g>
    </g>
   </g>
   <g id="line2d_17">
    <path clip-path="url(#p69d9643604)" d="M 72 225.706762 
L 518.4 225.706762 
" style="fill:none;stroke:#000000;stroke-dasharray:5.55,2.4;stroke-dashoffset:0;stroke-width:1.5;"/>
   </g>
   <g id="line2d_18">
    <path clip-path="url(#p69d9643604)" d="M 72 295.360144 
L 134.652632 295.373414 
L 135.631579 295.237196 
L 136.610526 295.92314 
L 137.589474 293.235581 
L 138.568421 292.183866 
L 139.547368 294.483325 
L 141.505263 301.222869 
L 142.484211 301.154429 
L 143.463158 291.547724 
L 144.442105 289.662326 
L 145.421053 304.630112 
L 146.4 307.8 
L 147.378947 291.25121 
L 148.357895 263.261232 
L 149.336842 227.010331 
L 151.294737 144.25946 
L 152.273684 110.90269 
L 153.252632 82.305135 
L 154.231579 62.441394 
L 155.210526 55.8 
L 156.189474 61.425136 
L 157.168421 75.262089 
L 159.126316 121.425604 
L 161.084211 176.692552 
L 162.063158 199.457591 
L 163.042105 213.534448 
L 164.021053 212.30282 
L 165 195.164303 
L 165.978947 188.321482 
L 166.957895 199.19151 
L 167.936842 204.895183 
L 168.915789 205.489813 
L 169.894737 207.474692 
L 170.873684 210.011434 
L 171.852632 208.535528 
L 172.831579 210.136831 
L 173.810526 212.577441 
L 174.789474 213.11706 
L 175.768421 213.942924 
L 176.747368 215.489564 
L 177.726316 217.313429 
L 178.705263 217.288409 
L 179.684211 218.008952 
L 180.663158 218.478696 
L 181.642105 219.664809 
L 182.621053 218.766134 
L 183.6 217.292787 
L 184.578947 218.328686 
L 185.557895 218.5915 
L 186.536842 219.394978 
L 187.515789 220.804676 
L 188.494737 219.113417 
L 189.473684 219.529377 
L 190.452632 221.173971 
L 191.431579 221.573667 
L 192.410526 222.975017 
L 193.389474 223.237381 
L 194.368421 225.746381 
L 195.347368 225.945788 
L 196.326316 225.707168 
L 197.305263 228.266711 
L 198.284211 227.46934 
L 200.242105 223.446956 
L 201.221053 222.441901 
L 202.2 223.773165 
L 203.178947 225.496542 
L 204.157895 223.905984 
L 205.136842 223.781382 
L 206.115789 225.05239 
L 207.094737 221.603362 
L 208.073684 222.121974 
L 209.052632 225.113148 
L 210.031579 225.147984 
L 211.989474 225.925973 
L 212.968421 225.419076 
L 213.947368 223.88162 
L 214.926316 223.789181 
L 215.905263 224.298148 
L 216.884211 222.119639 
L 217.863158 222.051476 
L 218.842105 225.518925 
L 219.821053 227.09442 
L 220.8 225.334755 
L 221.778947 225.19789 
L 222.757895 227.634086 
L 223.736842 230.676479 
L 224.715789 232.118895 
L 225.694737 229.110413 
L 226.673684 229.28174 
L 227.652632 231.421263 
L 228.631579 227.770646 
L 229.610526 223.147322 
L 230.589474 222.50389 
L 231.568421 223.828708 
L 232.547368 222.691871 
L 233.526316 222.093797 
L 235.484211 224.796842 
L 236.463158 226.797361 
L 237.442105 227.5699 
L 238.421053 226.484625 
L 239.4 223.233505 
L 240.378947 222.661823 
L 241.357895 225.703846 
L 242.336842 224.216534 
L 243.315789 221.785889 
L 244.294737 224.251333 
L 245.273684 230.010987 
L 246.252632 231.640161 
L 247.231579 227.363144 
L 248.210526 227.243985 
L 249.189474 230.602385 
L 250.168421 229.730817 
L 251.147368 227.249403 
L 252.126316 227.980371 
L 254.084211 227.489636 
L 255.063158 227.88279 
L 256.042105 227.288561 
L 257.021053 228.036067 
L 258 227.59855 
L 258.978947 229.19401 
L 259.957895 231.747068 
L 260.936842 228.920523 
L 261.915789 225.577719 
L 263.873684 227.766492 
L 265.831579 221.278002 
L 266.810526 223.523135 
L 267.789474 225.371288 
L 268.768421 225.228569 
L 269.747368 224.841377 
L 270.726316 223.955651 
L 271.705263 223.560848 
L 272.684211 224.915388 
L 273.663158 225.641122 
L 274.642105 225.638873 
L 275.621053 225.427347 
L 276.6 224.337005 
L 277.578947 224.70513 
L 278.557895 225.924723 
L 279.536842 222.974284 
L 280.515789 222.262582 
L 281.494737 227.250228 
L 282.473684 228.92975 
L 283.452632 225.541993 
L 284.431579 224.745444 
L 285.410526 230.091258 
L 286.389474 230.909458 
L 287.368421 224.39731 
L 288.347368 223.143294 
L 289.326316 227.868591 
L 290.305263 229.658828 
L 291.284211 226.208842 
L 292.263158 226.107474 
L 293.242105 229.044167 
L 294.221053 227.963927 
L 295.2 227.38327 
L 296.178947 228.236807 
L 297.157895 228.78365 
L 298.136842 230.020816 
L 299.115789 230.51717 
L 300.094737 229.455935 
L 301.073684 227.006713 
L 302.052632 225.302236 
L 303.031579 226.717614 
L 304.989474 227.15898 
L 305.968421 227.910626 
L 306.947368 230.237019 
L 307.926316 228.764788 
L 308.905263 225.644399 
L 309.884211 227.754522 
L 310.863158 232.175183 
L 311.842105 231.605301 
L 312.821053 225.75532 
L 313.8 226.120055 
L 314.778947 228.342369 
L 315.757895 224.378092 
L 316.736842 221.273715 
L 317.715789 218.800292 
L 318.694737 220.807337 
L 319.673684 223.906189 
L 320.652632 223.30602 
L 321.631579 224.500107 
L 323.589474 227.750846 
L 324.568421 227.856361 
L 325.547368 224.197934 
L 326.526316 225.551694 
L 327.505263 230.174359 
L 328.484211 228.838632 
L 329.463158 225.415844 
L 330.442105 223.846713 
L 331.421053 225.921367 
L 332.4 231.229748 
L 333.378947 230.527932 
L 334.357895 227.512738 
L 335.336842 230.612338 
L 336.315789 232.363816 
L 337.294737 227.560719 
L 338.273684 225.819839 
L 339.252632 226.079184 
L 340.231579 226.501754 
L 341.210526 225.33311 
L 342.189474 222.757876 
L 343.168421 225.225951 
L 344.147368 226.7564 
L 346.105263 223.428971 
L 347.084211 223.507617 
L 349.042105 229.008647 
L 350.021053 226.661522 
L 351.978947 226.168822 
L 352.957895 226.874458 
L 353.936842 229.975057 
L 354.915789 229.113976 
L 355.894737 227.676639 
L 356.873684 229.20727 
L 357.852632 228.576667 
L 358.831579 224.157253 
L 359.810526 223.331643 
L 360.789474 224.232372 
L 361.768421 224.966216 
L 362.747368 224.950996 
L 363.726316 223.610377 
L 365.684211 225.632306 
L 366.663158 222.277962 
L 367.642105 223.970608 
L 368.621053 231.894101 
L 369.6 234.975662 
L 370.578947 232.549571 
L 371.557895 229.302226 
L 372.536842 229.344594 
L 373.515789 229.547205 
L 374.494737 229.186046 
L 375.473684 229.48398 
L 377.431579 226.893594 
L 378.410526 229.584828 
L 379.389474 230.057554 
L 380.368421 227.325446 
L 381.347368 225.527994 
L 382.326316 225.338075 
L 383.305263 226.046066 
L 385.263158 230.217089 
L 386.242105 228.721318 
L 387.221053 225.659408 
L 388.2 221.821114 
L 389.178947 221.351125 
L 390.157895 224.991719 
L 391.136842 225.383738 
L 392.115789 227.101738 
L 393.094737 229.454611 
L 394.073684 228.171281 
L 395.052632 228.792951 
L 396.031579 231.536065 
L 397.010526 229.768316 
L 397.989474 225.757123 
L 398.968421 224.005226 
L 400.926316 228.527895 
L 401.905263 227.147661 
L 402.884211 226.841509 
L 403.863158 224.588139 
L 404.842105 220.566791 
L 405.821053 220.570299 
L 406.8 224.460597 
L 407.778947 224.219673 
L 408.757895 224.935202 
L 409.736842 228.965806 
L 411.694737 231.381297 
L 413.652632 229.34335 
L 414.631579 227.604267 
L 415.610526 222.918391 
L 416.589474 223.085042 
L 417.568421 227.523312 
L 418.547368 227.846826 
L 419.526316 227.510267 
L 420.505263 226.32055 
L 421.484211 224.178586 
L 422.463158 224.782583 
L 423.442105 223.609269 
L 424.421053 227.493803 
L 425.4 230.414366 
L 426.378947 226.868617 
L 427.357895 227.007847 
L 428.336842 229.840821 
L 429.315789 227.427441 
L 430.294737 225.614212 
L 431.273684 224.998885 
L 432.252632 226.260068 
L 433.231579 231.179158 
L 434.210526 229.986243 
L 435.189474 228.496727 
L 436.168421 229.054524 
L 437.147368 227.464616 
L 439.105263 225.258284 
L 440.084211 223.04655 
L 441.063158 222.632509 
L 442.042105 225.649212 
L 443.021053 227.231879 
L 444 227.408478 
L 444.978947 226.756756 
L 445.957895 226.915129 
L 446.936842 226.146591 
L 447.915789 222.549204 
L 448.894737 222.026008 
L 449.873684 228.112669 
L 450.852632 229.631492 
L 451.831579 227.833359 
L 452.810526 228.508645 
L 453.789474 231.264331 
L 454.768421 232.430364 
L 455.747368 225.624054 
L 456.726316 224.088678 
L 457.705263 223.898024 
L 458.684211 225.083896 
L 459.663158 229.364862 
L 460.642105 228.791761 
L 463.578947 224.295127 
L 464.557895 223.699515 
L 465.536842 225.235381 
L 466.515789 225.595038 
L 467.494737 227.517249 
L 468.473684 227.995396 
L 469.452632 227.21342 
L 470.431579 227.460195 
L 471.410526 230.27405 
L 472.389474 229.324691 
L 473.368421 225.556051 
L 475.326316 228.580841 
L 477.284211 226.125232 
L 478.263158 227.783783 
L 479.242105 226.336667 
L 480.221053 226.543343 
L 481.2 224.428796 
L 482.178947 224.977343 
L 483.157895 227.454991 
L 484.136842 227.579362 
L 485.115789 228.834296 
L 486.094737 228.189145 
L 487.073684 228.1345 
L 488.052632 226.066588 
L 489.031579 224.918511 
L 490.010526 221.494522 
L 490.989474 219.998248 
L 491.968421 221.565039 
L 492.947368 225.084942 
L 493.926316 229.769093 
L 494.905263 230.909167 
L 495.884211 231.465523 
L 496.863158 230.752099 
L 497.842105 228.028674 
L 498.821053 224.61892 
L 499.8 225.771247 
L 500.778947 228.950857 
L 501.757895 229.634702 
L 502.736842 226.0497 
L 503.715789 227.28548 
L 504.694737 225.311175 
L 505.673684 221.08728 
L 507.631579 220.546872 
L 508.610526 222.648122 
L 509.589474 225.525389 
L 511.547368 232.126725 
L 512.526316 234.819287 
L 513.505263 236.224852 
L 514.484211 235.536784 
L 515.463158 231.832095 
L 516.442105 224.071444 
L 517.421053 211.099137 
L 518.4 191.643126 
L 518.4 191.643126 
" style="fill:none;stroke:#ff0000;stroke-linecap:square;stroke-width:2;"/>
   </g>
   <g id="patch_3">
    <path d="M 72 320.4 
L 72 43.2 
" style="fill:none;stroke:#000000;stroke-linecap:square;stroke-linejoin:miter;stroke-width:0.8;"/>
   </g>
   <g id="patch_4">
    <path d="M 518.4 320.4 
L 518.4 43.2 
" style="fill:none;stroke:#000000;stroke-linecap:square;stroke-linejoin:miter;stroke-width:0.8;"/>
   </g>
   <g id="patch_5">
    <path d="M 72 320.4 
L 518.4 320.4 
" style="fill:none;stroke:#000000;stroke-linecap:square;stroke-linejoin:miter;stroke-width:0.8;"/>
   </g>
   <g id="patch_6">
    <path d="M 72 43.2 
L 518.4 43.2 
" style="fill:none;stroke:#000000;stroke-linecap:square;stroke-linejoin:miter;stroke-width:0.8;"/>
   </g>
   <g id="text_19">
    <!-- Front Propogation Speed -->
    <g transform="translate(172.245312 37.2)scale(0.2 -0.2)">
     <defs>
      <path d="M 628 4666 
L 3309 4666 
L 3309 4134 
L 1259 4134 
L 1259 2759 
L 3109 2759 
L 3109 2228 
L 1259 2228 
L 1259 0 
L 628 0 
L 628 4666 
z
" id="DejaVuSans-46" transform="scale(0.015625)"/>
      <path d="M 2631 2963 
Q 2534 3019 2420 3045 
Q 2306 3072 2169 3072 
Q 1681 3072 1420 2755 
Q 1159 2438 1159 1844 
L 1159 0 
L 581 0 
L 581 3500 
L 1159 3500 
L 1159 2956 
Q 1341 3275 1631 3429 
Q 1922 3584 2338 3584 
Q 2397 3584 2469 3576 
Q 2541 3569 2628 3553 
L 2631 2963 
z
" id="DejaVuSans-72" transform="scale(0.015625)"/>
      <path d="M 1172 4494 
L 1172 3500 
L 2356 3500 
L 2356 3053 
L 1172 3053 
L 1172 1153 
Q 1172 725 1289 603 
Q 1406 481 1766 481 
L 2356 481 
L 2356 0 
L 1766 0 
Q 1100 0 847 248 
Q 594 497 594 1153 
L 594 3053 
L 172 3053 
L 172 3500 
L 594 3500 
L 594 4494 
L 1172 4494 
z
" id="DejaVuSans-74" transform="scale(0.015625)"/>
      <path d="M 1259 4147 
L 1259 2394 
L 2053 2394 
Q 2494 2394 2734 2622 
Q 2975 2850 2975 3272 
Q 2975 3691 2734 3919 
Q 2494 4147 2053 4147 
L 1259 4147 
z
M 628 4666 
L 2053 4666 
Q 2838 4666 3239 4311 
Q 3641 3956 3641 3272 
Q 3641 2581 3239 2228 
Q 2838 1875 2053 1875 
L 1259 1875 
L 1259 0 
L 628 0 
L 628 4666 
z
" id="DejaVuSans-50" transform="scale(0.015625)"/>
      <path d="M 2906 1791 
Q 2906 2416 2648 2759 
Q 2391 3103 1925 3103 
Q 1463 3103 1205 2759 
Q 947 2416 947 1791 
Q 947 1169 1205 825 
Q 1463 481 1925 481 
Q 2391 481 2648 825 
Q 2906 1169 2906 1791 
z
M 3481 434 
Q 3481 -459 3084 -895 
Q 2688 -1331 1869 -1331 
Q 1566 -1331 1297 -1286 
Q 1028 -1241 775 -1147 
L 775 -588 
Q 1028 -725 1275 -790 
Q 1522 -856 1778 -856 
Q 2344 -856 2625 -561 
Q 2906 -266 2906 331 
L 2906 616 
Q 2728 306 2450 153 
Q 2172 0 1784 0 
Q 1141 0 747 490 
Q 353 981 353 1791 
Q 353 2603 747 3093 
Q 1141 3584 1784 3584 
Q 2172 3584 2450 3431 
Q 2728 3278 2906 2969 
L 2906 3500 
L 3481 3500 
L 3481 434 
z
" id="DejaVuSans-67" transform="scale(0.015625)"/>
      <path d="M 2194 1759 
Q 1497 1759 1228 1600 
Q 959 1441 959 1056 
Q 959 750 1161 570 
Q 1363 391 1709 391 
Q 2188 391 2477 730 
Q 2766 1069 2766 1631 
L 2766 1759 
L 2194 1759 
z
M 3341 1997 
L 3341 0 
L 2766 0 
L 2766 531 
Q 2569 213 2275 61 
Q 1981 -91 1556 -91 
Q 1019 -91 701 211 
Q 384 513 384 1019 
Q 384 1609 779 1909 
Q 1175 2209 1959 2209 
L 2766 2209 
L 2766 2266 
Q 2766 2663 2505 2880 
Q 2244 3097 1772 3097 
Q 1472 3097 1187 3025 
Q 903 2953 641 2809 
L 641 3341 
Q 956 3463 1253 3523 
Q 1550 3584 1831 3584 
Q 2591 3584 2966 3190 
Q 3341 2797 3341 1997 
z
" id="DejaVuSans-61" transform="scale(0.015625)"/>
     </defs>
     <use xlink:href="#DejaVuSans-46"/>
     <use x="50.269531" xlink:href="#DejaVuSans-72"/>
     <use x="89.132812" xlink:href="#DejaVuSans-6f"/>
     <use x="150.314453" xlink:href="#DejaVuSans-6e"/>
     <use x="213.693359" xlink:href="#DejaVuSans-74"/>
     <use x="252.902344" xlink:href="#DejaVuSans-20"/>
     <use x="284.689453" xlink:href="#DejaVuSans-50"/>
     <use x="343.242188" xlink:href="#DejaVuSans-72"/>
     <use x="382.105469" xlink:href="#DejaVuSans-6f"/>
     <use x="443.287109" xlink:href="#DejaVuSans-70"/>
     <use x="506.763672" xlink:href="#DejaVuSans-6f"/>
     <use x="567.945312" xlink:href="#DejaVuSans-67"/>
     <use x="631.421875" xlink:href="#DejaVuSans-61"/>
     <use x="692.701172" xlink:href="#DejaVuSans-74"/>
     <use x="731.910156" xlink:href="#DejaVuSans-69"/>
     <use x="759.693359" xlink:href="#DejaVuSans-6f"/>
     <use x="820.875" xlink:href="#DejaVuSans-6e"/>
     <use x="884.253906" xlink:href="#DejaVuSans-20"/>
     <use x="916.041016" xlink:href="#DejaVuSans-53"/>
     <use x="979.517578" xlink:href="#DejaVuSans-70"/>
     <use x="1042.994141" xlink:href="#DejaVuSans-65"/>
     <use x="1104.517578" xlink:href="#DejaVuSans-65"/>
     <use x="1166.041016" xlink:href="#DejaVuSans-64"/>
    </g>
   </g>
   <g id="legend_1">
    <g id="patch_7">
     <path d="M 325.967812 111.175687 
L 508.6 111.175687 
Q 511.4 111.175687 511.4 108.375687 
L 511.4 53 
Q 511.4 50.2 508.6 50.2 
L 325.967812 50.2 
Q 323.167812 50.2 323.167812 53 
L 323.167812 108.375687 
Q 323.167812 111.175687 325.967812 111.175687 
z
" style="fill:#ffffff;opacity:0.8;stroke:#cccccc;stroke-linejoin:miter;"/>
    </g>
    <g id="line2d_19">
     <path d="M 328.767812 61.537812 
L 356.767812 61.537812 
" style="fill:none;stroke:#ff0000;stroke-linecap:square;stroke-width:2;"/>
    </g>
    <g id="line2d_20"/>
    <g id="text_20">
     <!-- Front speed -->
     <g transform="translate(367.967812 66.437812)scale(0.14 -0.14)">
      <use xlink:href="#DejaVuSans-46"/>
      <use x="50.269531" xlink:href="#DejaVuSans-72"/>
      <use x="89.132812" xlink:href="#DejaVuSans-6f"/>
      <use x="150.314453" xlink:href="#DejaVuSans-6e"/>
      <use x="213.693359" xlink:href="#DejaVuSans-74"/>
      <use x="252.902344" xlink:href="#DejaVuSans-20"/>
      <use x="284.689453" xlink:href="#DejaVuSans-73"/>
      <use x="336.789062" xlink:href="#DejaVuSans-70"/>
      <use x="400.265625" xlink:href="#DejaVuSans-65"/>
      <use x="461.789062" xlink:href="#DejaVuSans-65"/>
      <use x="523.3125" xlink:href="#DejaVuSans-64"/>
     </g>
    </g>
    <g id="line2d_21">
     <path d="M 328.767812 91.381437 
L 356.767812 91.381437 
" style="fill:none;stroke:#000000;stroke-dasharray:5.55,2.4;stroke-dashoffset:0;stroke-width:1.5;"/>
    </g>
    <g id="line2d_22"/>
    <g id="text_21">
     <!-- Steady state -->
     <g transform="translate(367.967812 86.987187)scale(0.14 -0.14)">
      <defs>
       <path d="M 2059 -325 
Q 1816 -950 1584 -1140 
Q 1353 -1331 966 -1331 
L 506 -1331 
L 506 -850 
L 844 -850 
Q 1081 -850 1212 -737 
Q 1344 -625 1503 -206 
L 1606 56 
L 191 3500 
L 800 3500 
L 1894 763 
L 2988 3500 
L 3597 3500 
L 2059 -325 
z
" id="DejaVuSans-79" transform="scale(0.015625)"/>
      </defs>
      <use xlink:href="#DejaVuSans-53"/>
      <use x="63.476562" xlink:href="#DejaVuSans-74"/>
      <use x="102.685547" xlink:href="#DejaVuSans-65"/>
      <use x="164.208984" xlink:href="#DejaVuSans-61"/>
      <use x="225.488281" xlink:href="#DejaVuSans-64"/>
      <use x="288.964844" xlink:href="#DejaVuSans-79"/>
      <use x="348.144531" xlink:href="#DejaVuSans-20"/>
      <use x="379.931641" xlink:href="#DejaVuSans-73"/>
      <use x="432.03125" xlink:href="#DejaVuSans-74"/>
      <use x="471.240234" xlink:href="#DejaVuSans-61"/>
      <use x="532.519531" xlink:href="#DejaVuSans-74"/>
      <use x="571.728516" xlink:href="#DejaVuSans-65"/>
     </g>
     <!-- speed = 0.51 mm/s -->
     <g transform="translate(367.967812 102.664125)scale(0.14 -0.14)">
      <defs>
       <path d="M 678 2906 
L 4684 2906 
L 4684 2381 
L 678 2381 
L 678 2906 
z
M 678 1631 
L 4684 1631 
L 4684 1100 
L 678 1100 
L 678 1631 
z
" id="DejaVuSans-3d" transform="scale(0.015625)"/>
      </defs>
      <use xlink:href="#DejaVuSans-73"/>
      <use x="52.099609" xlink:href="#DejaVuSans-70"/>
      <use x="115.576172" xlink:href="#DejaVuSans-65"/>
      <use x="177.099609" xlink:href="#DejaVuSans-65"/>
      <use x="238.623047" xlink:href="#DejaVuSans-64"/>
      <use x="302.099609" xlink:href="#DejaVuSans-20"/>
      <use x="333.886719" xlink:href="#DejaVuSans-3d"/>
      <use x="417.675781" xlink:href="#DejaVuSans-20"/>
      <use x="449.462891" xlink:href="#DejaVuSans-30"/>
      <use x="513.085938" xlink:href="#DejaVuSans-2e"/>
      <use x="544.873047" xlink:href="#DejaVuSans-35"/>
      <use x="608.496094" xlink:href="#DejaVuSans-31"/>
      <use x="672.119141" xlink:href="#DejaVuSans-20"/>
      <use x="703.90625" xlink:href="#DejaVuSans-6d"/>
      <use x="801.318359" xlink:href="#DejaVuSans-6d"/>
      <use x="898.730469" xlink:href="#DejaVuSans-2f"/>
      <use x="932.421875" xlink:href="#DejaVuSans-73"/>
     </g>
    </g>
   </g>
  </g>
 </g>
 <defs>
  <clipPath id="p69d9643604">
   <rect height="277.2" width="446.4" x="72" y="43.2"/>
  </clipPath>
 </defs>
</svg>
