<?xml version="1.0" encoding="utf-8" standalone="no"?>
<!DOCTYPE svg PUBLIC "-//W3C//DTD SVG 1.1//EN"
  "http://www.w3.org/Graphics/SVG/1.1/DTD/svg11.dtd">
<svg height="360pt" version="1.1" viewBox="0 0 576 360" width="576pt" xmlns="http://www.w3.org/2000/svg" xmlns:xlink="http://www.w3.org/1999/xlink">
 <metadata>
  <rdf:RDF xmlns:cc="http://creativecommons.org/ns#" xmlns:dc="http://purl.org/dc/elements/1.1/" xmlns:rdf="http://www.w3.org/1999/02/22-rdf-syntax-ns#">
   <cc:Work>
    <dc:type rdf:resource="http://purl.org/dc/dcmitype/StillImage"/>
    <dc:date>2022-06-30T14:32:32.348849</dc:date>
    <dc:format>image/svg+xml</dc:format>
    <dc:creator>
     <cc:Agent>
      <dc:title>Matplotlib v3.4.3, https://matplotlib.org/</dc:title>
     </cc:Agent>
    </dc:creator>
   </cc:Work>
  </rdf:RDF>
 </metadata>
 <defs>
  <style type="text/css">*{stroke-linecap:butt;stroke-linejoin:round;}</style>
 </defs>
 <g id="figure_1">
  <g id="patch_1">
   <path d="M 0 360 
L 576 360 
L 576 0 
L 0 0 
z
" style="fill:#ffffff;"/>
  </g>
  <g id="axes_1">
   <g id="patch_2">
    <path d="M 72 320.4 
L 518.4 320.4 
L 518.4 43.2 
L 72 43.2 
z
" style="fill:#ffffff;"/>
   </g>
   <g id="PolyCollection_1">
    <defs>
     <path d="M 72 -194.935487 
L 72 -199.384566 
L 72.459259 -199.384566 
L 72.918519 -199.384566 
L 73.377778 -199.384566 
L 73.837037 -199.384566 
L 74.296296 -199.384566 
L 74.755556 -199.384566 
L 75.214815 -199.384566 
L 75.674074 -199.384566 
L 76.133333 -199.384566 
L 76.592593 -199.384566 
L 77.051852 -199.384566 
L 77.511111 -199.384566 
L 77.97037 -199.384566 
L 78.42963 -199.384566 
L 78.888889 -199.384566 
L 79.348148 -199.384566 
L 79.807407 -199.384566 
L 80.266667 -199.384566 
L 80.725926 -199.384566 
L 81.185185 -199.384566 
L 81.644444 -199.384566 
L 82.103704 -199.384566 
L 82.562963 -199.384566 
L 83.022222 -199.384566 
L 83.481481 -199.384566 
L 83.940741 -199.384566 
L 84.4 -199.384566 
L 84.859259 -199.384566 
L 85.318519 -199.384566 
L 85.777778 -199.384566 
L 86.237037 -199.384566 
L 86.696296 -199.384566 
L 87.155556 -199.384566 
L 87.614815 -199.384566 
L 88.074074 -199.384566 
L 88.533333 -199.384566 
L 88.992593 -199.384566 
L 89.451852 -199.384566 
L 89.911111 -199.384566 
L 90.37037 -199.384566 
L 90.82963 -199.384566 
L 91.288889 -199.384566 
L 91.748148 -199.384566 
L 92.207407 -199.384566 
L 92.666667 -199.384566 
L 93.125926 -199.384566 
L 93.585185 -199.384566 
L 94.044444 -199.384566 
L 94.503704 -199.384566 
L 94.962963 -199.384566 
L 95.422222 -199.384566 
L 95.881481 -199.384566 
L 96.340741 -199.384566 
L 96.8 -199.384566 
L 97.259259 -199.384566 
L 97.718519 -199.384566 
L 98.177778 -199.384566 
L 98.637037 -199.384566 
L 99.096296 -199.384566 
L 99.555556 -199.384566 
L 100.014815 -199.384566 
L 100.474074 -199.384566 
L 100.933333 -199.384566 
L 101.392593 -199.384566 
L 101.851852 -199.384566 
L 102.311111 -199.384566 
L 102.77037 -199.384566 
L 103.22963 -199.384566 
L 103.688889 -199.384566 
L 104.148148 -199.384566 
L 104.607407 -199.384566 
L 105.066667 -199.384566 
L 105.525926 -199.384566 
L 105.985185 -199.384566 
L 106.444444 -199.384566 
L 106.903704 -199.384566 
L 107.362963 -199.384566 
L 107.822222 -199.384566 
L 108.281481 -199.384566 
L 108.740741 -199.384566 
L 109.2 -199.384566 
L 109.659259 -199.384566 
L 110.118519 -199.384566 
L 110.577778 -199.384566 
L 111.037037 -199.384566 
L 111.496296 -199.384566 
L 111.955556 -199.384566 
L 112.414815 -199.384566 
L 112.874074 -199.384566 
L 113.333333 -199.384566 
L 113.792593 -199.384566 
L 114.251852 -199.384566 
L 114.711111 -199.384566 
L 115.17037 -199.384566 
L 115.62963 -199.384566 
L 116.088889 -199.384566 
L 116.548148 -199.384566 
L 117.007407 -199.384566 
L 117.466667 -199.384566 
L 117.925926 -199.384566 
L 118.385185 -199.384566 
L 118.844444 -199.384566 
L 119.303704 -199.384566 
L 119.762963 -199.384566 
L 120.222222 -199.384566 
L 120.681481 -199.384566 
L 121.140741 -199.384566 
L 121.6 -199.384566 
L 122.059259 -199.384566 
L 122.518519 -199.384566 
L 122.977778 -199.384566 
L 123.437037 -199.384566 
L 123.896296 -199.384566 
L 124.355556 -199.384566 
L 124.814815 -199.384566 
L 125.274074 -199.384566 
L 125.733333 -199.384566 
L 126.192593 -199.384566 
L 126.651852 -199.384566 
L 127.111111 -199.384566 
L 127.57037 -199.384566 
L 128.02963 -199.384566 
L 128.488889 -199.384566 
L 128.948148 -199.384566 
L 129.407407 -199.384566 
L 129.866667 -199.384566 
L 130.325926 -199.384566 
L 130.785185 -199.384566 
L 131.244444 -199.384566 
L 131.703704 -199.384566 
L 132.162963 -199.384566 
L 132.622222 -199.384566 
L 133.081481 -199.384566 
L 133.540741 -199.384566 
L 134 -199.384566 
L 134.459259 -199.384566 
L 134.918519 -199.384566 
L 135.377778 -199.384566 
L 135.837037 -199.384566 
L 136.296296 -199.384566 
L 136.755556 -199.384566 
L 137.214815 -199.384566 
L 137.674074 -199.384566 
L 138.133333 -199.384566 
L 138.592593 -199.384566 
L 139.051852 -199.384566 
L 139.511111 -199.384566 
L 139.97037 -199.384566 
L 140.42963 -199.384566 
L 140.888889 -199.384566 
L 141.348148 -199.384566 
L 141.807407 -199.384566 
L 142.266667 -199.384566 
L 142.725926 -199.384566 
L 143.185185 -199.384566 
L 143.644444 -199.384566 
L 144.103704 -199.384566 
L 144.562963 -199.384566 
L 145.022222 -199.384566 
L 145.481481 -199.384566 
L 145.940741 -199.384566 
L 146.4 -199.384566 
L 146.859259 -199.384566 
L 147.318519 -199.384566 
L 147.777778 -199.384566 
L 148.237037 -199.384566 
L 148.696296 -199.384566 
L 149.155556 -199.384566 
L 149.614815 -199.384566 
L 150.074074 -199.384566 
L 150.533333 -199.384566 
L 150.992593 -199.384566 
L 151.451852 -199.384566 
L 151.911111 -199.384566 
L 152.37037 -199.384566 
L 152.82963 -199.384566 
L 153.288889 -199.384566 
L 153.748148 -199.384566 
L 154.207407 -199.384566 
L 154.666667 -199.384566 
L 155.125926 -199.384566 
L 155.585185 -199.384566 
L 156.044444 -199.384566 
L 156.503704 -199.384566 
L 156.962963 -199.384566 
L 157.422222 -199.384566 
L 157.881481 -199.384566 
L 158.340741 -199.384566 
L 158.8 -199.384566 
L 159.259259 -199.384566 
L 159.718519 -199.384566 
L 160.177778 -199.384566 
L 160.637037 -199.384566 
L 161.096296 -199.384566 
L 161.555556 -199.384566 
L 162.014815 -199.384566 
L 162.474074 -199.384566 
L 162.933333 -199.384566 
L 163.392593 -199.384566 
L 163.851852 -199.384566 
L 164.311111 -199.384566 
L 164.77037 -199.384566 
L 165.22963 -199.384566 
L 165.688889 -199.384566 
L 166.148148 -199.384566 
L 166.607407 -199.384566 
L 167.066667 -199.384566 
L 167.525926 -199.384566 
L 167.985185 -199.384566 
L 168.444444 -199.384566 
L 168.903704 -199.384566 
L 169.362963 -199.384566 
L 169.822222 -199.384566 
L 170.281481 -199.384566 
L 170.740741 -199.384566 
L 171.2 -199.384566 
L 171.659259 -199.384566 
L 172.118519 -199.384566 
L 172.577778 -199.384566 
L 173.037037 -199.384566 
L 173.496296 -199.384566 
L 173.955556 -199.384566 
L 174.414815 -199.384566 
L 174.874074 -199.384566 
L 175.333333 -199.384566 
L 175.792593 -199.384566 
L 176.251852 -199.384566 
L 176.711111 -199.384566 
L 177.17037 -199.384566 
L 177.62963 -199.384566 
L 178.088889 -199.384566 
L 178.548148 -199.384566 
L 179.007407 -199.384566 
L 179.466667 -199.384566 
L 179.925926 -199.384566 
L 180.385185 -199.384566 
L 180.844444 -199.384566 
L 181.303704 -199.384566 
L 181.762963 -199.384566 
L 182.222222 -199.384566 
L 182.681481 -199.384566 
L 183.140741 -199.384566 
L 183.6 -199.384566 
L 184.059259 -199.384566 
L 184.518519 -199.384566 
L 184.977778 -199.384566 
L 185.437037 -199.384566 
L 185.896296 -199.384566 
L 186.355556 -199.384566 
L 186.814815 -199.384566 
L 187.274074 -199.384566 
L 187.733333 -199.384566 
L 188.192593 -199.384566 
L 188.651852 -199.384566 
L 189.111111 -199.384566 
L 189.57037 -199.384566 
L 190.02963 -199.384566 
L 190.488889 -199.384566 
L 190.948148 -199.384566 
L 191.407407 -199.384566 
L 191.866667 -199.384566 
L 192.325926 -199.384566 
L 192.785185 -199.384566 
L 193.244444 -199.384566 
L 193.703704 -199.384566 
L 194.162963 -199.384566 
L 194.622222 -199.384566 
L 195.081481 -199.384566 
L 195.540741 -199.384566 
L 196 -199.384566 
L 196.459259 -199.384566 
L 196.918519 -199.384566 
L 197.377778 -199.384566 
L 197.837037 -199.384566 
L 198.296296 -199.384566 
L 198.755556 -199.384566 
L 199.214815 -199.384566 
L 199.674074 -199.384566 
L 200.133333 -199.384566 
L 200.592593 -199.384566 
L 201.051852 -199.384566 
L 201.511111 -199.384566 
L 201.97037 -199.384566 
L 202.42963 -199.384566 
L 202.888889 -199.384566 
L 203.348148 -199.384566 
L 203.807407 -199.384566 
L 204.266667 -199.384566 
L 204.725926 -199.384566 
L 205.185185 -199.384566 
L 205.644444 -199.384566 
L 206.103704 -199.384566 
L 206.562963 -199.384566 
L 207.022222 -199.384566 
L 207.481481 -199.384566 
L 207.940741 -199.384566 
L 208.4 -199.384566 
L 208.859259 -199.384566 
L 209.318519 -199.384566 
L 209.777778 -199.384566 
L 210.237037 -199.384566 
L 210.696296 -199.384566 
L 211.155556 -199.384566 
L 211.614815 -199.384566 
L 212.074074 -199.384566 
L 212.533333 -199.384566 
L 212.992593 -199.384566 
L 213.451852 -199.384566 
L 213.911111 -199.384566 
L 214.37037 -199.384566 
L 214.82963 -199.384566 
L 215.288889 -199.384566 
L 215.748148 -199.384566 
L 216.207407 -199.384566 
L 216.666667 -199.384566 
L 217.125926 -199.384566 
L 217.585185 -199.384566 
L 218.044444 -199.384566 
L 218.503704 -199.384566 
L 218.962963 -199.384566 
L 219.422222 -199.384566 
L 219.881481 -199.384566 
L 220.340741 -199.384566 
L 220.8 -199.384566 
L 221.259259 -199.384566 
L 221.718519 -199.384566 
L 222.177778 -199.384566 
L 222.637037 -199.384566 
L 223.096296 -199.384566 
L 223.555556 -199.384566 
L 224.014815 -199.384566 
L 224.474074 -199.384566 
L 224.933333 -199.384566 
L 225.392593 -199.384566 
L 225.851852 -199.384566 
L 226.311111 -199.384566 
L 226.77037 -199.384566 
L 227.22963 -199.384566 
L 227.688889 -199.384566 
L 228.148148 -199.384566 
L 228.607407 -199.384566 
L 229.066667 -199.384566 
L 229.525926 -199.384566 
L 229.985185 -199.384566 
L 230.444444 -199.384566 
L 230.903704 -199.384566 
L 231.362963 -199.384566 
L 231.822222 -199.384566 
L 232.281481 -199.384566 
L 232.740741 -199.384566 
L 233.2 -199.384566 
L 233.659259 -199.384566 
L 234.118519 -199.384566 
L 234.577778 -199.384566 
L 235.037037 -199.384566 
L 235.496296 -199.384566 
L 235.955556 -199.384566 
L 236.414815 -199.384566 
L 236.874074 -199.384566 
L 237.333333 -199.384566 
L 237.792593 -199.384566 
L 238.251852 -199.384566 
L 238.711111 -199.384566 
L 239.17037 -199.384566 
L 239.62963 -199.384566 
L 240.088889 -199.384566 
L 240.548148 -199.384566 
L 241.007407 -199.384566 
L 241.466667 -199.384566 
L 241.925926 -199.384566 
L 242.385185 -199.384566 
L 242.844444 -199.384566 
L 243.303704 -199.384566 
L 243.762963 -199.384566 
L 244.222222 -199.384566 
L 244.681481 -199.384566 
L 245.140741 -199.384566 
L 245.6 -199.384566 
L 246.059259 -199.384566 
L 246.518519 -199.384566 
L 246.977778 -199.384566 
L 247.437037 -199.384566 
L 247.896296 -199.384566 
L 248.355556 -199.384566 
L 248.814815 -199.384566 
L 249.274074 -199.384566 
L 249.733333 -199.384566 
L 250.192593 -199.384566 
L 250.651852 -199.384566 
L 251.111111 -199.384566 
L 251.57037 -199.384566 
L 252.02963 -199.384566 
L 252.488889 -199.384566 
L 252.948148 -199.384566 
L 253.407407 -199.384566 
L 253.866667 -199.384566 
L 254.325926 -199.384566 
L 254.785185 -199.384566 
L 255.244444 -199.384566 
L 255.703704 -199.384566 
L 256.162963 -199.384566 
L 256.622222 -199.384566 
L 257.081481 -199.384566 
L 257.540741 -199.384566 
L 258 -199.384566 
L 258.459259 -199.384566 
L 258.918519 -199.384566 
L 259.377778 -199.384566 
L 259.837037 -199.384566 
L 260.296296 -199.384566 
L 260.755556 -199.384566 
L 261.214815 -199.384566 
L 261.674074 -199.384566 
L 262.133333 -199.384566 
L 262.592593 -199.384566 
L 263.051852 -199.384566 
L 263.511111 -199.384566 
L 263.97037 -199.384566 
L 264.42963 -199.384566 
L 264.888889 -199.384566 
L 265.348148 -199.384566 
L 265.807407 -199.384566 
L 266.266667 -199.384566 
L 266.725926 -199.384566 
L 267.185185 -199.384566 
L 267.644444 -199.384566 
L 268.103704 -199.384566 
L 268.562963 -199.384566 
L 269.022222 -199.384566 
L 269.481481 -199.384566 
L 269.940741 -199.384566 
L 270.4 -199.384566 
L 270.859259 -199.384566 
L 271.318519 -199.384566 
L 271.777778 -199.384566 
L 272.237037 -199.384566 
L 272.696296 -199.384566 
L 273.155556 -199.384566 
L 273.614815 -199.384566 
L 274.074074 -199.384566 
L 274.533333 -199.384566 
L 274.992593 -199.384566 
L 275.451852 -199.384566 
L 275.911111 -199.384566 
L 276.37037 -199.384566 
L 276.82963 -199.384566 
L 277.288889 -199.384566 
L 277.748148 -199.384566 
L 278.207407 -199.384566 
L 278.666667 -199.384566 
L 279.125926 -199.384566 
L 279.585185 -199.384566 
L 280.044444 -199.384566 
L 280.503704 -199.384566 
L 280.962963 -199.384566 
L 281.422222 -199.384566 
L 281.881481 -199.384566 
L 282.340741 -199.384566 
L 282.8 -199.384566 
L 283.259259 -199.384566 
L 283.718519 -199.384566 
L 284.177778 -199.384566 
L 284.637037 -199.384566 
L 285.096296 -199.384566 
L 285.555556 -199.384566 
L 286.014815 -199.384566 
L 286.474074 -199.384566 
L 286.933333 -199.384566 
L 287.392593 -199.384566 
L 287.851852 -199.384566 
L 288.311111 -199.384566 
L 288.77037 -199.384566 
L 289.22963 -199.384566 
L 289.688889 -199.384566 
L 290.148148 -199.384566 
L 290.607407 -199.384566 
L 291.066667 -199.384566 
L 291.525926 -199.384566 
L 291.985185 -199.384566 
L 292.444444 -199.384566 
L 292.903704 -199.384566 
L 293.362963 -199.384566 
L 293.822222 -199.384566 
L 294.281481 -199.384566 
L 294.740741 -199.384566 
L 295.2 -199.384566 
L 295.659259 -199.384566 
L 296.118519 -199.384566 
L 296.577778 -199.384566 
L 297.037037 -199.384566 
L 297.496296 -199.384566 
L 297.955556 -199.384566 
L 298.414815 -199.384566 
L 298.874074 -199.384566 
L 299.333333 -199.384566 
L 299.792593 -199.384566 
L 300.251852 -199.384566 
L 300.711111 -199.384566 
L 301.17037 -199.384566 
L 301.62963 -199.384566 
L 302.088889 -199.384566 
L 302.548148 -199.384566 
L 303.007407 -199.384566 
L 303.466667 -199.384566 
L 303.925926 -199.384566 
L 304.385185 -199.384566 
L 304.844444 -199.384566 
L 305.303704 -199.384566 
L 305.762963 -199.384566 
L 306.222222 -199.384566 
L 306.681481 -199.384566 
L 307.140741 -199.384566 
L 307.6 -199.384566 
L 308.059259 -199.384566 
L 308.518519 -199.384566 
L 308.977778 -199.384566 
L 309.437037 -199.384566 
L 309.896296 -199.384566 
L 310.355556 -199.384566 
L 310.814815 -199.384566 
L 311.274074 -199.384566 
L 311.733333 -199.384566 
L 312.192593 -199.384566 
L 312.651852 -199.384566 
L 313.111111 -199.384566 
L 313.57037 -199.384566 
L 314.02963 -199.384566 
L 314.488889 -199.384566 
L 314.948148 -199.384566 
L 315.407407 -199.384566 
L 315.866667 -199.384566 
L 316.325926 -199.384566 
L 316.785185 -199.384566 
L 317.244444 -199.384566 
L 317.703704 -199.384566 
L 318.162963 -199.384566 
L 318.622222 -199.384566 
L 319.081481 -199.384566 
L 319.540741 -199.384566 
L 320 -199.384566 
L 320.459259 -199.384566 
L 320.918519 -199.384566 
L 321.377778 -199.384566 
L 321.837037 -199.384566 
L 322.296296 -199.384566 
L 322.755556 -199.384566 
L 323.214815 -199.384566 
L 323.674074 -199.384566 
L 324.133333 -199.384566 
L 324.592593 -199.384566 
L 325.051852 -199.384566 
L 325.511111 -199.384566 
L 325.97037 -199.384566 
L 326.42963 -199.384566 
L 326.888889 -199.384566 
L 327.348148 -199.384566 
L 327.807407 -199.384566 
L 328.266667 -199.384566 
L 328.725926 -199.384566 
L 329.185185 -199.384566 
L 329.644444 -199.384566 
L 330.103704 -199.384566 
L 330.562963 -199.384566 
L 331.022222 -199.384566 
L 331.481481 -199.384566 
L 331.940741 -199.384566 
L 332.4 -199.384566 
L 332.859259 -199.384566 
L 333.318519 -199.384566 
L 333.777778 -199.384566 
L 334.237037 -199.384566 
L 334.696296 -199.384566 
L 335.155556 -199.384566 
L 335.614815 -199.384566 
L 336.074074 -199.384566 
L 336.533333 -199.384566 
L 336.992593 -199.384566 
L 337.451852 -199.384566 
L 337.911111 -199.384566 
L 338.37037 -199.384566 
L 338.82963 -199.384566 
L 339.288889 -199.384566 
L 339.748148 -199.384566 
L 340.207407 -199.384566 
L 340.666667 -199.384566 
L 341.125926 -199.384566 
L 341.585185 -199.384566 
L 342.044444 -199.384566 
L 342.503704 -199.384566 
L 342.962963 -199.384566 
L 343.422222 -199.384566 
L 343.881481 -199.384566 
L 344.340741 -199.384566 
L 344.8 -199.384566 
L 345.259259 -199.384566 
L 345.718519 -199.384566 
L 346.177778 -199.384566 
L 346.637037 -199.384566 
L 347.096296 -199.384566 
L 347.555556 -199.384566 
L 348.014815 -199.384566 
L 348.474074 -199.384566 
L 348.933333 -199.384566 
L 349.392593 -199.384566 
L 349.851852 -199.384566 
L 350.311111 -199.384566 
L 350.77037 -199.384566 
L 351.22963 -199.384566 
L 351.688889 -199.384566 
L 352.148148 -199.384566 
L 352.607407 -199.384566 
L 353.066667 -199.384566 
L 353.525926 -199.384566 
L 353.985185 -199.384566 
L 354.444444 -199.384566 
L 354.903704 -199.384566 
L 355.362963 -199.384566 
L 355.822222 -199.384566 
L 356.281481 -199.384566 
L 356.740741 -199.384566 
L 357.2 -199.384566 
L 357.659259 -199.384566 
L 358.118519 -199.384566 
L 358.577778 -199.384566 
L 359.037037 -199.384566 
L 359.496296 -199.384566 
L 359.955556 -199.384566 
L 360.414815 -199.384566 
L 360.874074 -199.384566 
L 361.333333 -199.384566 
L 361.792593 -199.384566 
L 362.251852 -199.384566 
L 362.711111 -199.384566 
L 363.17037 -199.384566 
L 363.62963 -199.384566 
L 364.088889 -199.384566 
L 364.548148 -199.384566 
L 365.007407 -199.384566 
L 365.466667 -199.384566 
L 365.925926 -199.384566 
L 366.385185 -199.384566 
L 366.844444 -199.384566 
L 367.303704 -199.384566 
L 367.762963 -199.384566 
L 368.222222 -199.384566 
L 368.681481 -199.384566 
L 369.140741 -199.384566 
L 369.6 -199.384566 
L 370.059259 -199.384566 
L 370.518519 -199.384566 
L 370.977778 -199.384566 
L 371.437037 -199.384566 
L 371.896296 -199.384566 
L 372.355556 -199.384566 
L 372.814815 -199.384566 
L 373.274074 -199.384566 
L 373.733333 -199.384566 
L 374.192593 -199.384566 
L 374.651852 -199.384566 
L 375.111111 -199.384566 
L 375.57037 -199.384566 
L 376.02963 -199.384566 
L 376.488889 -199.384566 
L 376.948148 -199.384566 
L 377.407407 -199.384566 
L 377.866667 -199.384566 
L 378.325926 -199.384566 
L 378.785185 -199.384566 
L 379.244444 -199.384566 
L 379.703704 -199.384566 
L 380.162963 -199.384566 
L 380.622222 -199.384566 
L 381.081481 -199.384566 
L 381.540741 -199.384566 
L 382 -199.384566 
L 382.459259 -199.384566 
L 382.918519 -199.384566 
L 383.377778 -199.384566 
L 383.837037 -199.384566 
L 384.296296 -199.384566 
L 384.755556 -199.384566 
L 385.214815 -199.384566 
L 385.674074 -199.384566 
L 386.133333 -199.384566 
L 386.592593 -199.384566 
L 387.051852 -199.384566 
L 387.511111 -199.384566 
L 387.97037 -199.384566 
L 388.42963 -199.384566 
L 388.888889 -199.384566 
L 389.348148 -199.384566 
L 389.807407 -199.384566 
L 390.266667 -199.384566 
L 390.725926 -199.384566 
L 391.185185 -199.384566 
L 391.644444 -199.384566 
L 392.103704 -199.384566 
L 392.562963 -199.384566 
L 393.022222 -199.384566 
L 393.481481 -199.384566 
L 393.940741 -199.384566 
L 394.4 -199.384566 
L 394.859259 -199.384566 
L 395.318519 -199.384566 
L 395.777778 -199.384566 
L 396.237037 -199.384566 
L 396.696296 -199.384566 
L 397.155556 -199.384566 
L 397.614815 -199.384566 
L 398.074074 -199.384566 
L 398.533333 -199.384566 
L 398.992593 -199.384566 
L 399.451852 -199.384566 
L 399.911111 -199.384566 
L 400.37037 -199.384566 
L 400.82963 -199.384566 
L 401.288889 -199.384566 
L 401.748148 -199.384566 
L 402.207407 -199.384566 
L 402.666667 -199.384566 
L 403.125926 -199.384566 
L 403.585185 -199.384566 
L 404.044444 -199.384566 
L 404.503704 -199.384566 
L 404.962963 -199.384566 
L 405.422222 -199.384566 
L 405.881481 -199.384566 
L 406.340741 -199.384566 
L 406.8 -199.384566 
L 407.259259 -199.384566 
L 407.718519 -199.384566 
L 408.177778 -199.384566 
L 408.637037 -199.384566 
L 409.096296 -199.384566 
L 409.555556 -199.384566 
L 410.014815 -199.384566 
L 410.474074 -199.384566 
L 410.933333 -199.384566 
L 411.392593 -199.384566 
L 411.851852 -199.384566 
L 412.311111 -199.384566 
L 412.77037 -199.384566 
L 413.22963 -199.384566 
L 413.688889 -199.384566 
L 414.148148 -199.384566 
L 414.607407 -199.384566 
L 415.066667 -199.384566 
L 415.525926 -199.384566 
L 415.985185 -199.384566 
L 416.444444 -199.384566 
L 416.903704 -199.384566 
L 417.362963 -199.384566 
L 417.822222 -199.384566 
L 418.281481 -199.384566 
L 418.740741 -199.384566 
L 419.2 -199.384566 
L 419.659259 -199.384566 
L 420.118519 -199.384566 
L 420.577778 -199.384566 
L 421.037037 -199.384566 
L 421.496296 -199.384566 
L 421.955556 -199.384566 
L 422.414815 -199.384566 
L 422.874074 -199.384566 
L 423.333333 -199.384566 
L 423.792593 -199.384566 
L 424.251852 -199.384566 
L 424.711111 -199.384566 
L 425.17037 -199.384566 
L 425.62963 -199.384566 
L 426.088889 -199.384566 
L 426.548148 -199.384566 
L 427.007407 -199.384566 
L 427.466667 -199.384566 
L 427.925926 -199.384566 
L 428.385185 -199.384566 
L 428.844444 -199.384566 
L 429.303704 -199.384566 
L 429.762963 -199.384566 
L 430.222222 -199.384566 
L 430.681481 -199.384566 
L 431.140741 -199.384566 
L 431.6 -199.384566 
L 432.059259 -199.384566 
L 432.518519 -199.384566 
L 432.977778 -199.384566 
L 433.437037 -199.384566 
L 433.896296 -199.384566 
L 434.355556 -199.384566 
L 434.814815 -199.384566 
L 435.274074 -199.384566 
L 435.733333 -199.384566 
L 436.192593 -199.384566 
L 436.651852 -199.384566 
L 437.111111 -199.384566 
L 437.57037 -199.384566 
L 438.02963 -199.384566 
L 438.488889 -199.384566 
L 438.948148 -199.384566 
L 439.407407 -199.384566 
L 439.866667 -199.384566 
L 440.325926 -199.384566 
L 440.785185 -199.384566 
L 441.244444 -199.384566 
L 441.703704 -199.384566 
L 442.162963 -199.384566 
L 442.622222 -199.384566 
L 443.081481 -199.384566 
L 443.540741 -199.384566 
L 444 -199.384566 
L 444.459259 -199.384566 
L 444.918519 -199.384566 
L 445.377778 -199.384566 
L 445.837037 -199.384566 
L 446.296296 -199.384566 
L 446.755556 -199.384566 
L 447.214815 -199.384566 
L 447.674074 -199.384566 
L 448.133333 -199.384566 
L 448.592593 -199.384566 
L 449.051852 -199.384566 
L 449.511111 -199.384566 
L 449.97037 -199.384566 
L 450.42963 -199.384566 
L 450.888889 -199.384566 
L 451.348148 -199.384566 
L 451.807407 -199.384566 
L 452.266667 -199.384566 
L 452.725926 -199.384566 
L 453.185185 -199.384566 
L 453.644444 -199.384566 
L 454.103704 -199.384566 
L 454.562963 -199.384566 
L 455.022222 -199.384566 
L 455.481481 -199.384566 
L 455.940741 -199.384566 
L 456.4 -199.384566 
L 456.859259 -199.384566 
L 457.318519 -199.384566 
L 457.777778 -199.384566 
L 458.237037 -199.384566 
L 458.696296 -199.384566 
L 459.155556 -199.384566 
L 459.614815 -199.384566 
L 460.074074 -199.384566 
L 460.533333 -199.384566 
L 460.992593 -199.384566 
L 461.451852 -199.384566 
L 461.911111 -199.384566 
L 462.37037 -199.384566 
L 462.82963 -199.384566 
L 463.288889 -199.384566 
L 463.748148 -199.384566 
L 464.207407 -199.384566 
L 464.666667 -199.384566 
L 465.125926 -199.384566 
L 465.585185 -199.384566 
L 466.044444 -199.384566 
L 466.503704 -199.384566 
L 466.962963 -199.384566 
L 467.422222 -199.384566 
L 467.881481 -199.384566 
L 468.340741 -199.384566 
L 468.8 -199.384566 
L 469.259259 -199.384566 
L 469.718519 -199.384566 
L 470.177778 -199.384566 
L 470.637037 -199.384566 
L 471.096296 -199.384566 
L 471.555556 -199.384566 
L 472.014815 -199.384566 
L 472.474074 -199.384566 
L 472.933333 -199.384566 
L 473.392593 -199.384566 
L 473.851852 -199.384566 
L 474.311111 -199.384566 
L 474.77037 -199.384566 
L 475.22963 -199.384566 
L 475.688889 -199.384566 
L 476.148148 -199.384566 
L 476.607407 -199.384566 
L 477.066667 -199.384566 
L 477.525926 -199.384566 
L 477.985185 -199.384566 
L 478.444444 -199.384566 
L 478.903704 -199.384566 
L 479.362963 -199.384566 
L 479.822222 -199.384566 
L 480.281481 -199.384566 
L 480.740741 -199.384566 
L 481.2 -199.384566 
L 481.659259 -199.384566 
L 482.118519 -199.384566 
L 482.577778 -199.384566 
L 483.037037 -199.384566 
L 483.496296 -199.384566 
L 483.955556 -199.384566 
L 484.414815 -199.384566 
L 484.874074 -199.384566 
L 485.333333 -199.384566 
L 485.792593 -199.384566 
L 486.251852 -199.384566 
L 486.711111 -199.384566 
L 487.17037 -199.384566 
L 487.62963 -199.384566 
L 488.088889 -199.384566 
L 488.548148 -199.384566 
L 489.007407 -199.384566 
L 489.466667 -199.384566 
L 489.925926 -199.384566 
L 490.385185 -199.384566 
L 490.844444 -199.384566 
L 491.303704 -199.384566 
L 491.762963 -199.384566 
L 492.222222 -199.384566 
L 492.681481 -199.384566 
L 493.140741 -199.384566 
L 493.6 -199.384566 
L 494.059259 -199.384566 
L 494.518519 -199.384566 
L 494.977778 -199.384566 
L 495.437037 -199.384566 
L 495.896296 -199.384566 
L 496.355556 -199.384566 
L 496.814815 -199.384566 
L 497.274074 -199.384566 
L 497.733333 -199.384566 
L 498.192593 -199.384566 
L 498.651852 -199.384566 
L 499.111111 -199.384566 
L 499.57037 -199.384566 
L 500.02963 -199.384566 
L 500.488889 -199.384566 
L 500.948148 -199.384566 
L 501.407407 -199.384566 
L 501.866667 -199.384566 
L 502.325926 -199.384566 
L 502.785185 -199.384566 
L 503.244444 -199.384566 
L 503.703704 -199.384566 
L 504.162963 -199.384566 
L 504.622222 -199.384566 
L 505.081481 -199.384566 
L 505.540741 -199.384566 
L 506 -199.384566 
L 506.459259 -199.384566 
L 506.918519 -199.384566 
L 507.377778 -199.384566 
L 507.837037 -199.384566 
L 508.296296 -199.384566 
L 508.755556 -199.384566 
L 509.214815 -199.384566 
L 509.674074 -199.384566 
L 510.133333 -199.384566 
L 510.592593 -199.384566 
L 511.051852 -199.384566 
L 511.511111 -199.384566 
L 511.97037 -199.384566 
L 512.42963 -199.384566 
L 512.888889 -199.384566 
L 513.348148 -199.384566 
L 513.807407 -199.384566 
L 514.266667 -199.384566 
L 514.725926 -199.384566 
L 515.185185 -199.384566 
L 515.644444 -199.384566 
L 516.103704 -199.384566 
L 516.562963 -199.384566 
L 517.022222 -199.384566 
L 517.481481 -199.384566 
L 517.940741 -199.384566 
L 518.4 -199.384566 
L 518.4 -194.935487 
L 518.4 -194.935487 
L 517.940741 -194.935487 
L 517.481481 -194.935487 
L 517.022222 -194.935487 
L 516.562963 -194.935487 
L 516.103704 -194.935487 
L 515.644444 -194.935487 
L 515.185185 -194.935487 
L 514.725926 -194.935487 
L 514.266667 -194.935487 
L 513.807407 -194.935487 
L 513.348148 -194.935487 
L 512.888889 -194.935487 
L 512.42963 -194.935487 
L 511.97037 -194.935487 
L 511.511111 -194.935487 
L 511.051852 -194.935487 
L 510.592593 -194.935487 
L 510.133333 -194.935487 
L 509.674074 -194.935487 
L 509.214815 -194.935487 
L 508.755556 -194.935487 
L 508.296296 -194.935487 
L 507.837037 -194.935487 
L 507.377778 -194.935487 
L 506.918519 -194.935487 
L 506.459259 -194.935487 
L 506 -194.935487 
L 505.540741 -194.935487 
L 505.081481 -194.935487 
L 504.622222 -194.935487 
L 504.162963 -194.935487 
L 503.703704 -194.935487 
L 503.244444 -194.935487 
L 502.785185 -194.935487 
L 502.325926 -194.935487 
L 501.866667 -194.935487 
L 501.407407 -194.935487 
L 500.948148 -194.935487 
L 500.488889 -194.935487 
L 500.02963 -194.935487 
L 499.57037 -194.935487 
L 499.111111 -194.935487 
L 498.651852 -194.935487 
L 498.192593 -194.935487 
L 497.733333 -194.935487 
L 497.274074 -194.935487 
L 496.814815 -194.935487 
L 496.355556 -194.935487 
L 495.896296 -194.935487 
L 495.437037 -194.935487 
L 494.977778 -194.935487 
L 494.518519 -194.935487 
L 494.059259 -194.935487 
L 493.6 -194.935487 
L 493.140741 -194.935487 
L 492.681481 -194.935487 
L 492.222222 -194.935487 
L 491.762963 -194.935487 
L 491.303704 -194.935487 
L 490.844444 -194.935487 
L 490.385185 -194.935487 
L 489.925926 -194.935487 
L 489.466667 -194.935487 
L 489.007407 -194.935487 
L 488.548148 -194.935487 
L 488.088889 -194.935487 
L 487.62963 -194.935487 
L 487.17037 -194.935487 
L 486.711111 -194.935487 
L 486.251852 -194.935487 
L 485.792593 -194.935487 
L 485.333333 -194.935487 
L 484.874074 -194.935487 
L 484.414815 -194.935487 
L 483.955556 -194.935487 
L 483.496296 -194.935487 
L 483.037037 -194.935487 
L 482.577778 -194.935487 
L 482.118519 -194.935487 
L 481.659259 -194.935487 
L 481.2 -194.935487 
L 480.740741 -194.935487 
L 480.281481 -194.935487 
L 479.822222 -194.935487 
L 479.362963 -194.935487 
L 478.903704 -194.935487 
L 478.444444 -194.935487 
L 477.985185 -194.935487 
L 477.525926 -194.935487 
L 477.066667 -194.935487 
L 476.607407 -194.935487 
L 476.148148 -194.935487 
L 475.688889 -194.935487 
L 475.22963 -194.935487 
L 474.77037 -194.935487 
L 474.311111 -194.935487 
L 473.851852 -194.935487 
L 473.392593 -194.935487 
L 472.933333 -194.935487 
L 472.474074 -194.935487 
L 472.014815 -194.935487 
L 471.555556 -194.935487 
L 471.096296 -194.935487 
L 470.637037 -194.935487 
L 470.177778 -194.935487 
L 469.718519 -194.935487 
L 469.259259 -194.935487 
L 468.8 -194.935487 
L 468.340741 -194.935487 
L 467.881481 -194.935487 
L 467.422222 -194.935487 
L 466.962963 -194.935487 
L 466.503704 -194.935487 
L 466.044444 -194.935487 
L 465.585185 -194.935487 
L 465.125926 -194.935487 
L 464.666667 -194.935487 
L 464.207407 -194.935487 
L 463.748148 -194.935487 
L 463.288889 -194.935487 
L 462.82963 -194.935487 
L 462.37037 -194.935487 
L 461.911111 -194.935487 
L 461.451852 -194.935487 
L 460.992593 -194.935487 
L 460.533333 -194.935487 
L 460.074074 -194.935487 
L 459.614815 -194.935487 
L 459.155556 -194.935487 
L 458.696296 -194.935487 
L 458.237037 -194.935487 
L 457.777778 -194.935487 
L 457.318519 -194.935487 
L 456.859259 -194.935487 
L 456.4 -194.935487 
L 455.940741 -194.935487 
L 455.481481 -194.935487 
L 455.022222 -194.935487 
L 454.562963 -194.935487 
L 454.103704 -194.935487 
L 453.644444 -194.935487 
L 453.185185 -194.935487 
L 452.725926 -194.935487 
L 452.266667 -194.935487 
L 451.807407 -194.935487 
L 451.348148 -194.935487 
L 450.888889 -194.935487 
L 450.42963 -194.935487 
L 449.97037 -194.935487 
L 449.511111 -194.935487 
L 449.051852 -194.935487 
L 448.592593 -194.935487 
L 448.133333 -194.935487 
L 447.674074 -194.935487 
L 447.214815 -194.935487 
L 446.755556 -194.935487 
L 446.296296 -194.935487 
L 445.837037 -194.935487 
L 445.377778 -194.935487 
L 444.918519 -194.935487 
L 444.459259 -194.935487 
L 444 -194.935487 
L 443.540741 -194.935487 
L 443.081481 -194.935487 
L 442.622222 -194.935487 
L 442.162963 -194.935487 
L 441.703704 -194.935487 
L 441.244444 -194.935487 
L 440.785185 -194.935487 
L 440.325926 -194.935487 
L 439.866667 -194.935487 
L 439.407407 -194.935487 
L 438.948148 -194.935487 
L 438.488889 -194.935487 
L 438.02963 -194.935487 
L 437.57037 -194.935487 
L 437.111111 -194.935487 
L 436.651852 -194.935487 
L 436.192593 -194.935487 
L 435.733333 -194.935487 
L 435.274074 -194.935487 
L 434.814815 -194.935487 
L 434.355556 -194.935487 
L 433.896296 -194.935487 
L 433.437037 -194.935487 
L 432.977778 -194.935487 
L 432.518519 -194.935487 
L 432.059259 -194.935487 
L 431.6 -194.935487 
L 431.140741 -194.935487 
L 430.681481 -194.935487 
L 430.222222 -194.935487 
L 429.762963 -194.935487 
L 429.303704 -194.935487 
L 428.844444 -194.935487 
L 428.385185 -194.935487 
L 427.925926 -194.935487 
L 427.466667 -194.935487 
L 427.007407 -194.935487 
L 426.548148 -194.935487 
L 426.088889 -194.935487 
L 425.62963 -194.935487 
L 425.17037 -194.935487 
L 424.711111 -194.935487 
L 424.251852 -194.935487 
L 423.792593 -194.935487 
L 423.333333 -194.935487 
L 422.874074 -194.935487 
L 422.414815 -194.935487 
L 421.955556 -194.935487 
L 421.496296 -194.935487 
L 421.037037 -194.935487 
L 420.577778 -194.935487 
L 420.118519 -194.935487 
L 419.659259 -194.935487 
L 419.2 -194.935487 
L 418.740741 -194.935487 
L 418.281481 -194.935487 
L 417.822222 -194.935487 
L 417.362963 -194.935487 
L 416.903704 -194.935487 
L 416.444444 -194.935487 
L 415.985185 -194.935487 
L 415.525926 -194.935487 
L 415.066667 -194.935487 
L 414.607407 -194.935487 
L 414.148148 -194.935487 
L 413.688889 -194.935487 
L 413.22963 -194.935487 
L 412.77037 -194.935487 
L 412.311111 -194.935487 
L 411.851852 -194.935487 
L 411.392593 -194.935487 
L 410.933333 -194.935487 
L 410.474074 -194.935487 
L 410.014815 -194.935487 
L 409.555556 -194.935487 
L 409.096296 -194.935487 
L 408.637037 -194.935487 
L 408.177778 -194.935487 
L 407.718519 -194.935487 
L 407.259259 -194.935487 
L 406.8 -194.935487 
L 406.340741 -194.935487 
L 405.881481 -194.935487 
L 405.422222 -194.935487 
L 404.962963 -194.935487 
L 404.503704 -194.935487 
L 404.044444 -194.935487 
L 403.585185 -194.935487 
L 403.125926 -194.935487 
L 402.666667 -194.935487 
L 402.207407 -194.935487 
L 401.748148 -194.935487 
L 401.288889 -194.935487 
L 400.82963 -194.935487 
L 400.37037 -194.935487 
L 399.911111 -194.935487 
L 399.451852 -194.935487 
L 398.992593 -194.935487 
L 398.533333 -194.935487 
L 398.074074 -194.935487 
L 397.614815 -194.935487 
L 397.155556 -194.935487 
L 396.696296 -194.935487 
L 396.237037 -194.935487 
L 395.777778 -194.935487 
L 395.318519 -194.935487 
L 394.859259 -194.935487 
L 394.4 -194.935487 
L 393.940741 -194.935487 
L 393.481481 -194.935487 
L 393.022222 -194.935487 
L 392.562963 -194.935487 
L 392.103704 -194.935487 
L 391.644444 -194.935487 
L 391.185185 -194.935487 
L 390.725926 -194.935487 
L 390.266667 -194.935487 
L 389.807407 -194.935487 
L 389.348148 -194.935487 
L 388.888889 -194.935487 
L 388.42963 -194.935487 
L 387.97037 -194.935487 
L 387.511111 -194.935487 
L 387.051852 -194.935487 
L 386.592593 -194.935487 
L 386.133333 -194.935487 
L 385.674074 -194.935487 
L 385.214815 -194.935487 
L 384.755556 -194.935487 
L 384.296296 -194.935487 
L 383.837037 -194.935487 
L 383.377778 -194.935487 
L 382.918519 -194.935487 
L 382.459259 -194.935487 
L 382 -194.935487 
L 381.540741 -194.935487 
L 381.081481 -194.935487 
L 380.622222 -194.935487 
L 380.162963 -194.935487 
L 379.703704 -194.935487 
L 379.244444 -194.935487 
L 378.785185 -194.935487 
L 378.325926 -194.935487 
L 377.866667 -194.935487 
L 377.407407 -194.935487 
L 376.948148 -194.935487 
L 376.488889 -194.935487 
L 376.02963 -194.935487 
L 375.57037 -194.935487 
L 375.111111 -194.935487 
L 374.651852 -194.935487 
L 374.192593 -194.935487 
L 373.733333 -194.935487 
L 373.274074 -194.935487 
L 372.814815 -194.935487 
L 372.355556 -194.935487 
L 371.896296 -194.935487 
L 371.437037 -194.935487 
L 370.977778 -194.935487 
L 370.518519 -194.935487 
L 370.059259 -194.935487 
L 369.6 -194.935487 
L 369.140741 -194.935487 
L 368.681481 -194.935487 
L 368.222222 -194.935487 
L 367.762963 -194.935487 
L 367.303704 -194.935487 
L 366.844444 -194.935487 
L 366.385185 -194.935487 
L 365.925926 -194.935487 
L 365.466667 -194.935487 
L 365.007407 -194.935487 
L 364.548148 -194.935487 
L 364.088889 -194.935487 
L 363.62963 -194.935487 
L 363.17037 -194.935487 
L 362.711111 -194.935487 
L 362.251852 -194.935487 
L 361.792593 -194.935487 
L 361.333333 -194.935487 
L 360.874074 -194.935487 
L 360.414815 -194.935487 
L 359.955556 -194.935487 
L 359.496296 -194.935487 
L 359.037037 -194.935487 
L 358.577778 -194.935487 
L 358.118519 -194.935487 
L 357.659259 -194.935487 
L 357.2 -194.935487 
L 356.740741 -194.935487 
L 356.281481 -194.935487 
L 355.822222 -194.935487 
L 355.362963 -194.935487 
L 354.903704 -194.935487 
L 354.444444 -194.935487 
L 353.985185 -194.935487 
L 353.525926 -194.935487 
L 353.066667 -194.935487 
L 352.607407 -194.935487 
L 352.148148 -194.935487 
L 351.688889 -194.935487 
L 351.22963 -194.935487 
L 350.77037 -194.935487 
L 350.311111 -194.935487 
L 349.851852 -194.935487 
L 349.392593 -194.935487 
L 348.933333 -194.935487 
L 348.474074 -194.935487 
L 348.014815 -194.935487 
L 347.555556 -194.935487 
L 347.096296 -194.935487 
L 346.637037 -194.935487 
L 346.177778 -194.935487 
L 345.718519 -194.935487 
L 345.259259 -194.935487 
L 344.8 -194.935487 
L 344.340741 -194.935487 
L 343.881481 -194.935487 
L 343.422222 -194.935487 
L 342.962963 -194.935487 
L 342.503704 -194.935487 
L 342.044444 -194.935487 
L 341.585185 -194.935487 
L 341.125926 -194.935487 
L 340.666667 -194.935487 
L 340.207407 -194.935487 
L 339.748148 -194.935487 
L 339.288889 -194.935487 
L 338.82963 -194.935487 
L 338.37037 -194.935487 
L 337.911111 -194.935487 
L 337.451852 -194.935487 
L 336.992593 -194.935487 
L 336.533333 -194.935487 
L 336.074074 -194.935487 
L 335.614815 -194.935487 
L 335.155556 -194.935487 
L 334.696296 -194.935487 
L 334.237037 -194.935487 
L 333.777778 -194.935487 
L 333.318519 -194.935487 
L 332.859259 -194.935487 
L 332.4 -194.935487 
L 331.940741 -194.935487 
L 331.481481 -194.935487 
L 331.022222 -194.935487 
L 330.562963 -194.935487 
L 330.103704 -194.935487 
L 329.644444 -194.935487 
L 329.185185 -194.935487 
L 328.725926 -194.935487 
L 328.266667 -194.935487 
L 327.807407 -194.935487 
L 327.348148 -194.935487 
L 326.888889 -194.935487 
L 326.42963 -194.935487 
L 325.97037 -194.935487 
L 325.511111 -194.935487 
L 325.051852 -194.935487 
L 324.592593 -194.935487 
L 324.133333 -194.935487 
L 323.674074 -194.935487 
L 323.214815 -194.935487 
L 322.755556 -194.935487 
L 322.296296 -194.935487 
L 321.837037 -194.935487 
L 321.377778 -194.935487 
L 320.918519 -194.935487 
L 320.459259 -194.935487 
L 320 -194.935487 
L 319.540741 -194.935487 
L 319.081481 -194.935487 
L 318.622222 -194.935487 
L 318.162963 -194.935487 
L 317.703704 -194.935487 
L 317.244444 -194.935487 
L 316.785185 -194.935487 
L 316.325926 -194.935487 
L 315.866667 -194.935487 
L 315.407407 -194.935487 
L 314.948148 -194.935487 
L 314.488889 -194.935487 
L 314.02963 -194.935487 
L 313.57037 -194.935487 
L 313.111111 -194.935487 
L 312.651852 -194.935487 
L 312.192593 -194.935487 
L 311.733333 -194.935487 
L 311.274074 -194.935487 
L 310.814815 -194.935487 
L 310.355556 -194.935487 
L 309.896296 -194.935487 
L 309.437037 -194.935487 
L 308.977778 -194.935487 
L 308.518519 -194.935487 
L 308.059259 -194.935487 
L 307.6 -194.935487 
L 307.140741 -194.935487 
L 306.681481 -194.935487 
L 306.222222 -194.935487 
L 305.762963 -194.935487 
L 305.303704 -194.935487 
L 304.844444 -194.935487 
L 304.385185 -194.935487 
L 303.925926 -194.935487 
L 303.466667 -194.935487 
L 303.007407 -194.935487 
L 302.548148 -194.935487 
L 302.088889 -194.935487 
L 301.62963 -194.935487 
L 301.17037 -194.935487 
L 300.711111 -194.935487 
L 300.251852 -194.935487 
L 299.792593 -194.935487 
L 299.333333 -194.935487 
L 298.874074 -194.935487 
L 298.414815 -194.935487 
L 297.955556 -194.935487 
L 297.496296 -194.935487 
L 297.037037 -194.935487 
L 296.577778 -194.935487 
L 296.118519 -194.935487 
L 295.659259 -194.935487 
L 295.2 -194.935487 
L 294.740741 -194.935487 
L 294.281481 -194.935487 
L 293.822222 -194.935487 
L 293.362963 -194.935487 
L 292.903704 -194.935487 
L 292.444444 -194.935487 
L 291.985185 -194.935487 
L 291.525926 -194.935487 
L 291.066667 -194.935487 
L 290.607407 -194.935487 
L 290.148148 -194.935487 
L 289.688889 -194.935487 
L 289.22963 -194.935487 
L 288.77037 -194.935487 
L 288.311111 -194.935487 
L 287.851852 -194.935487 
L 287.392593 -194.935487 
L 286.933333 -194.935487 
L 286.474074 -194.935487 
L 286.014815 -194.935487 
L 285.555556 -194.935487 
L 285.096296 -194.935487 
L 284.637037 -194.935487 
L 284.177778 -194.935487 
L 283.718519 -194.935487 
L 283.259259 -194.935487 
L 282.8 -194.935487 
L 282.340741 -194.935487 
L 281.881481 -194.935487 
L 281.422222 -194.935487 
L 280.962963 -194.935487 
L 280.503704 -194.935487 
L 280.044444 -194.935487 
L 279.585185 -194.935487 
L 279.125926 -194.935487 
L 278.666667 -194.935487 
L 278.207407 -194.935487 
L 277.748148 -194.935487 
L 277.288889 -194.935487 
L 276.82963 -194.935487 
L 276.37037 -194.935487 
L 275.911111 -194.935487 
L 275.451852 -194.935487 
L 274.992593 -194.935487 
L 274.533333 -194.935487 
L 274.074074 -194.935487 
L 273.614815 -194.935487 
L 273.155556 -194.935487 
L 272.696296 -194.935487 
L 272.237037 -194.935487 
L 271.777778 -194.935487 
L 271.318519 -194.935487 
L 270.859259 -194.935487 
L 270.4 -194.935487 
L 269.940741 -194.935487 
L 269.481481 -194.935487 
L 269.022222 -194.935487 
L 268.562963 -194.935487 
L 268.103704 -194.935487 
L 267.644444 -194.935487 
L 267.185185 -194.935487 
L 266.725926 -194.935487 
L 266.266667 -194.935487 
L 265.807407 -194.935487 
L 265.348148 -194.935487 
L 264.888889 -194.935487 
L 264.42963 -194.935487 
L 263.97037 -194.935487 
L 263.511111 -194.935487 
L 263.051852 -194.935487 
L 262.592593 -194.935487 
L 262.133333 -194.935487 
L 261.674074 -194.935487 
L 261.214815 -194.935487 
L 260.755556 -194.935487 
L 260.296296 -194.935487 
L 259.837037 -194.935487 
L 259.377778 -194.935487 
L 258.918519 -194.935487 
L 258.459259 -194.935487 
L 258 -194.935487 
L 257.540741 -194.935487 
L 257.081481 -194.935487 
L 256.622222 -194.935487 
L 256.162963 -194.935487 
L 255.703704 -194.935487 
L 255.244444 -194.935487 
L 254.785185 -194.935487 
L 254.325926 -194.935487 
L 253.866667 -194.935487 
L 253.407407 -194.935487 
L 252.948148 -194.935487 
L 252.488889 -194.935487 
L 252.02963 -194.935487 
L 251.57037 -194.935487 
L 251.111111 -194.935487 
L 250.651852 -194.935487 
L 250.192593 -194.935487 
L 249.733333 -194.935487 
L 249.274074 -194.935487 
L 248.814815 -194.935487 
L 248.355556 -194.935487 
L 247.896296 -194.935487 
L 247.437037 -194.935487 
L 246.977778 -194.935487 
L 246.518519 -194.935487 
L 246.059259 -194.935487 
L 245.6 -194.935487 
L 245.140741 -194.935487 
L 244.681481 -194.935487 
L 244.222222 -194.935487 
L 243.762963 -194.935487 
L 243.303704 -194.935487 
L 242.844444 -194.935487 
L 242.385185 -194.935487 
L 241.925926 -194.935487 
L 241.466667 -194.935487 
L 241.007407 -194.935487 
L 240.548148 -194.935487 
L 240.088889 -194.935487 
L 239.62963 -194.935487 
L 239.17037 -194.935487 
L 238.711111 -194.935487 
L 238.251852 -194.935487 
L 237.792593 -194.935487 
L 237.333333 -194.935487 
L 236.874074 -194.935487 
L 236.414815 -194.935487 
L 235.955556 -194.935487 
L 235.496296 -194.935487 
L 235.037037 -194.935487 
L 234.577778 -194.935487 
L 234.118519 -194.935487 
L 233.659259 -194.935487 
L 233.2 -194.935487 
L 232.740741 -194.935487 
L 232.281481 -194.935487 
L 231.822222 -194.935487 
L 231.362963 -194.935487 
L 230.903704 -194.935487 
L 230.444444 -194.935487 
L 229.985185 -194.935487 
L 229.525926 -194.935487 
L 229.066667 -194.935487 
L 228.607407 -194.935487 
L 228.148148 -194.935487 
L 227.688889 -194.935487 
L 227.22963 -194.935487 
L 226.77037 -194.935487 
L 226.311111 -194.935487 
L 225.851852 -194.935487 
L 225.392593 -194.935487 
L 224.933333 -194.935487 
L 224.474074 -194.935487 
L 224.014815 -194.935487 
L 223.555556 -194.935487 
L 223.096296 -194.935487 
L 222.637037 -194.935487 
L 222.177778 -194.935487 
L 221.718519 -194.935487 
L 221.259259 -194.935487 
L 220.8 -194.935487 
L 220.340741 -194.935487 
L 219.881481 -194.935487 
L 219.422222 -194.935487 
L 218.962963 -194.935487 
L 218.503704 -194.935487 
L 218.044444 -194.935487 
L 217.585185 -194.935487 
L 217.125926 -194.935487 
L 216.666667 -194.935487 
L 216.207407 -194.935487 
L 215.748148 -194.935487 
L 215.288889 -194.935487 
L 214.82963 -194.935487 
L 214.37037 -194.935487 
L 213.911111 -194.935487 
L 213.451852 -194.935487 
L 212.992593 -194.935487 
L 212.533333 -194.935487 
L 212.074074 -194.935487 
L 211.614815 -194.935487 
L 211.155556 -194.935487 
L 210.696296 -194.935487 
L 210.237037 -194.935487 
L 209.777778 -194.935487 
L 209.318519 -194.935487 
L 208.859259 -194.935487 
L 208.4 -194.935487 
L 207.940741 -194.935487 
L 207.481481 -194.935487 
L 207.022222 -194.935487 
L 206.562963 -194.935487 
L 206.103704 -194.935487 
L 205.644444 -194.935487 
L 205.185185 -194.935487 
L 204.725926 -194.935487 
L 204.266667 -194.935487 
L 203.807407 -194.935487 
L 203.348148 -194.935487 
L 202.888889 -194.935487 
L 202.42963 -194.935487 
L 201.97037 -194.935487 
L 201.511111 -194.935487 
L 201.051852 -194.935487 
L 200.592593 -194.935487 
L 200.133333 -194.935487 
L 199.674074 -194.935487 
L 199.214815 -194.935487 
L 198.755556 -194.935487 
L 198.296296 -194.935487 
L 197.837037 -194.935487 
L 197.377778 -194.935487 
L 196.918519 -194.935487 
L 196.459259 -194.935487 
L 196 -194.935487 
L 195.540741 -194.935487 
L 195.081481 -194.935487 
L 194.622222 -194.935487 
L 194.162963 -194.935487 
L 193.703704 -194.935487 
L 193.244444 -194.935487 
L 192.785185 -194.935487 
L 192.325926 -194.935487 
L 191.866667 -194.935487 
L 191.407407 -194.935487 
L 190.948148 -194.935487 
L 190.488889 -194.935487 
L 190.02963 -194.935487 
L 189.57037 -194.935487 
L 189.111111 -194.935487 
L 188.651852 -194.935487 
L 188.192593 -194.935487 
L 187.733333 -194.935487 
L 187.274074 -194.935487 
L 186.814815 -194.935487 
L 186.355556 -194.935487 
L 185.896296 -194.935487 
L 185.437037 -194.935487 
L 184.977778 -194.935487 
L 184.518519 -194.935487 
L 184.059259 -194.935487 
L 183.6 -194.935487 
L 183.140741 -194.935487 
L 182.681481 -194.935487 
L 182.222222 -194.935487 
L 181.762963 -194.935487 
L 181.303704 -194.935487 
L 180.844444 -194.935487 
L 180.385185 -194.935487 
L 179.925926 -194.935487 
L 179.466667 -194.935487 
L 179.007407 -194.935487 
L 178.548148 -194.935487 
L 178.088889 -194.935487 
L 177.62963 -194.935487 
L 177.17037 -194.935487 
L 176.711111 -194.935487 
L 176.251852 -194.935487 
L 175.792593 -194.935487 
L 175.333333 -194.935487 
L 174.874074 -194.935487 
L 174.414815 -194.935487 
L 173.955556 -194.935487 
L 173.496296 -194.935487 
L 173.037037 -194.935487 
L 172.577778 -194.935487 
L 172.118519 -194.935487 
L 171.659259 -194.935487 
L 171.2 -194.935487 
L 170.740741 -194.935487 
L 170.281481 -194.935487 
L 169.822222 -194.935487 
L 169.362963 -194.935487 
L 168.903704 -194.935487 
L 168.444444 -194.935487 
L 167.985185 -194.935487 
L 167.525926 -194.935487 
L 167.066667 -194.935487 
L 166.607407 -194.935487 
L 166.148148 -194.935487 
L 165.688889 -194.935487 
L 165.22963 -194.935487 
L 164.77037 -194.935487 
L 164.311111 -194.935487 
L 163.851852 -194.935487 
L 163.392593 -194.935487 
L 162.933333 -194.935487 
L 162.474074 -194.935487 
L 162.014815 -194.935487 
L 161.555556 -194.935487 
L 161.096296 -194.935487 
L 160.637037 -194.935487 
L 160.177778 -194.935487 
L 159.718519 -194.935487 
L 159.259259 -194.935487 
L 158.8 -194.935487 
L 158.340741 -194.935487 
L 157.881481 -194.935487 
L 157.422222 -194.935487 
L 156.962963 -194.935487 
L 156.503704 -194.935487 
L 156.044444 -194.935487 
L 155.585185 -194.935487 
L 155.125926 -194.935487 
L 154.666667 -194.935487 
L 154.207407 -194.935487 
L 153.748148 -194.935487 
L 153.288889 -194.935487 
L 152.82963 -194.935487 
L 152.37037 -194.935487 
L 151.911111 -194.935487 
L 151.451852 -194.935487 
L 150.992593 -194.935487 
L 150.533333 -194.935487 
L 150.074074 -194.935487 
L 149.614815 -194.935487 
L 149.155556 -194.935487 
L 148.696296 -194.935487 
L 148.237037 -194.935487 
L 147.777778 -194.935487 
L 147.318519 -194.935487 
L 146.859259 -194.935487 
L 146.4 -194.935487 
L 145.940741 -194.935487 
L 145.481481 -194.935487 
L 145.022222 -194.935487 
L 144.562963 -194.935487 
L 144.103704 -194.935487 
L 143.644444 -194.935487 
L 143.185185 -194.935487 
L 142.725926 -194.935487 
L 142.266667 -194.935487 
L 141.807407 -194.935487 
L 141.348148 -194.935487 
L 140.888889 -194.935487 
L 140.42963 -194.935487 
L 139.97037 -194.935487 
L 139.511111 -194.935487 
L 139.051852 -194.935487 
L 138.592593 -194.935487 
L 138.133333 -194.935487 
L 137.674074 -194.935487 
L 137.214815 -194.935487 
L 136.755556 -194.935487 
L 136.296296 -194.935487 
L 135.837037 -194.935487 
L 135.377778 -194.935487 
L 134.918519 -194.935487 
L 134.459259 -194.935487 
L 134 -194.935487 
L 133.540741 -194.935487 
L 133.081481 -194.935487 
L 132.622222 -194.935487 
L 132.162963 -194.935487 
L 131.703704 -194.935487 
L 131.244444 -194.935487 
L 130.785185 -194.935487 
L 130.325926 -194.935487 
L 129.866667 -194.935487 
L 129.407407 -194.935487 
L 128.948148 -194.935487 
L 128.488889 -194.935487 
L 128.02963 -194.935487 
L 127.57037 -194.935487 
L 127.111111 -194.935487 
L 126.651852 -194.935487 
L 126.192593 -194.935487 
L 125.733333 -194.935487 
L 125.274074 -194.935487 
L 124.814815 -194.935487 
L 124.355556 -194.935487 
L 123.896296 -194.935487 
L 123.437037 -194.935487 
L 122.977778 -194.935487 
L 122.518519 -194.935487 
L 122.059259 -194.935487 
L 121.6 -194.935487 
L 121.140741 -194.935487 
L 120.681481 -194.935487 
L 120.222222 -194.935487 
L 119.762963 -194.935487 
L 119.303704 -194.935487 
L 118.844444 -194.935487 
L 118.385185 -194.935487 
L 117.925926 -194.935487 
L 117.466667 -194.935487 
L 117.007407 -194.935487 
L 116.548148 -194.935487 
L 116.088889 -194.935487 
L 115.62963 -194.935487 
L 115.17037 -194.935487 
L 114.711111 -194.935487 
L 114.251852 -194.935487 
L 113.792593 -194.935487 
L 113.333333 -194.935487 
L 112.874074 -194.935487 
L 112.414815 -194.935487 
L 111.955556 -194.935487 
L 111.496296 -194.935487 
L 111.037037 -194.935487 
L 110.577778 -194.935487 
L 110.118519 -194.935487 
L 109.659259 -194.935487 
L 109.2 -194.935487 
L 108.740741 -194.935487 
L 108.281481 -194.935487 
L 107.822222 -194.935487 
L 107.362963 -194.935487 
L 106.903704 -194.935487 
L 106.444444 -194.935487 
L 105.985185 -194.935487 
L 105.525926 -194.935487 
L 105.066667 -194.935487 
L 104.607407 -194.935487 
L 104.148148 -194.935487 
L 103.688889 -194.935487 
L 103.22963 -194.935487 
L 102.77037 -194.935487 
L 102.311111 -194.935487 
L 101.851852 -194.935487 
L 101.392593 -194.935487 
L 100.933333 -194.935487 
L 100.474074 -194.935487 
L 100.014815 -194.935487 
L 99.555556 -194.935487 
L 99.096296 -194.935487 
L 98.637037 -194.935487 
L 98.177778 -194.935487 
L 97.718519 -194.935487 
L 97.259259 -194.935487 
L 96.8 -194.935487 
L 96.340741 -194.935487 
L 95.881481 -194.935487 
L 95.422222 -194.935487 
L 94.962963 -194.935487 
L 94.503704 -194.935487 
L 94.044444 -194.935487 
L 93.585185 -194.935487 
L 93.125926 -194.935487 
L 92.666667 -194.935487 
L 92.207407 -194.935487 
L 91.748148 -194.935487 
L 91.288889 -194.935487 
L 90.82963 -194.935487 
L 90.37037 -194.935487 
L 89.911111 -194.935487 
L 89.451852 -194.935487 
L 88.992593 -194.935487 
L 88.533333 -194.935487 
L 88.074074 -194.935487 
L 87.614815 -194.935487 
L 87.155556 -194.935487 
L 86.696296 -194.935487 
L 86.237037 -194.935487 
L 85.777778 -194.935487 
L 85.318519 -194.935487 
L 84.859259 -194.935487 
L 84.4 -194.935487 
L 83.940741 -194.935487 
L 83.481481 -194.935487 
L 83.022222 -194.935487 
L 82.562963 -194.935487 
L 82.103704 -194.935487 
L 81.644444 -194.935487 
L 81.185185 -194.935487 
L 80.725926 -194.935487 
L 80.266667 -194.935487 
L 79.807407 -194.935487 
L 79.348148 -194.935487 
L 78.888889 -194.935487 
L 78.42963 -194.935487 
L 77.97037 -194.935487 
L 77.511111 -194.935487 
L 77.051852 -194.935487 
L 76.592593 -194.935487 
L 76.133333 -194.935487 
L 75.674074 -194.935487 
L 75.214815 -194.935487 
L 74.755556 -194.935487 
L 74.296296 -194.935487 
L 73.837037 -194.935487 
L 73.377778 -194.935487 
L 72.918519 -194.935487 
L 72.459259 -194.935487 
L 72 -194.935487 
z
" id="m0b21cb82da"/>
    </defs>
    <g clip-path="url(#p5dbfd70e29)">
     <use style="fill-opacity:0.15;" x="0" xlink:href="#m0b21cb82da" y="360"/>
    </g>
   </g>
   <g id="matplotlib.axis_1">
    <g id="xtick_1">
     <g id="line2d_1">
      <defs>
       <path d="M 0 0 
L 0 3.5 
" id="m7280937d26" style="stroke:#000000;stroke-width:0.8;"/>
      </defs>
      <g>
       <use style="stroke:#000000;stroke-width:0.8;" x="72" xlink:href="#m7280937d26" y="320.4"/>
      </g>
     </g>
     <g id="text_1">
      <!-- 0.0 -->
      <g transform="translate(60.867812 338.037813)scale(0.14 -0.14)">
       <defs>
        <path d="M 2034 4250 
Q 1547 4250 1301 3770 
Q 1056 3291 1056 2328 
Q 1056 1369 1301 889 
Q 1547 409 2034 409 
Q 2525 409 2770 889 
Q 3016 1369 3016 2328 
Q 3016 3291 2770 3770 
Q 2525 4250 2034 4250 
z
M 2034 4750 
Q 2819 4750 3233 4129 
Q 3647 3509 3647 2328 
Q 3647 1150 3233 529 
Q 2819 -91 2034 -91 
Q 1250 -91 836 529 
Q 422 1150 422 2328 
Q 422 3509 836 4129 
Q 1250 4750 2034 4750 
z
" id="DejaVuSans-30" transform="scale(0.015625)"/>
        <path d="M 684 794 
L 1344 794 
L 1344 0 
L 684 0 
L 684 794 
z
" id="DejaVuSans-2e" transform="scale(0.015625)"/>
       </defs>
       <use xlink:href="#DejaVuSans-30"/>
       <use x="63.623047" xlink:href="#DejaVuSans-2e"/>
       <use x="95.410156" xlink:href="#DejaVuSans-30"/>
      </g>
     </g>
    </g>
    <g id="xtick_2">
     <g id="line2d_2">
      <g>
       <use style="stroke:#000000;stroke-width:0.8;" x="127.827914" xlink:href="#m7280937d26" y="320.4"/>
      </g>
     </g>
     <g id="text_2">
      <!-- 2.5 -->
      <g transform="translate(116.695726 338.037813)scale(0.14 -0.14)">
       <defs>
        <path d="M 1228 531 
L 3431 531 
L 3431 0 
L 469 0 
L 469 531 
Q 828 903 1448 1529 
Q 2069 2156 2228 2338 
Q 2531 2678 2651 2914 
Q 2772 3150 2772 3378 
Q 2772 3750 2511 3984 
Q 2250 4219 1831 4219 
Q 1534 4219 1204 4116 
Q 875 4013 500 3803 
L 500 4441 
Q 881 4594 1212 4672 
Q 1544 4750 1819 4750 
Q 2544 4750 2975 4387 
Q 3406 4025 3406 3419 
Q 3406 3131 3298 2873 
Q 3191 2616 2906 2266 
Q 2828 2175 2409 1742 
Q 1991 1309 1228 531 
z
" id="DejaVuSans-32" transform="scale(0.015625)"/>
        <path d="M 691 4666 
L 3169 4666 
L 3169 4134 
L 1269 4134 
L 1269 2991 
Q 1406 3038 1543 3061 
Q 1681 3084 1819 3084 
Q 2600 3084 3056 2656 
Q 3513 2228 3513 1497 
Q 3513 744 3044 326 
Q 2575 -91 1722 -91 
Q 1428 -91 1123 -41 
Q 819 9 494 109 
L 494 744 
Q 775 591 1075 516 
Q 1375 441 1709 441 
Q 2250 441 2565 725 
Q 2881 1009 2881 1497 
Q 2881 1984 2565 2268 
Q 2250 2553 1709 2553 
Q 1456 2553 1204 2497 
Q 953 2441 691 2322 
L 691 4666 
z
" id="DejaVuSans-35" transform="scale(0.015625)"/>
       </defs>
       <use xlink:href="#DejaVuSans-32"/>
       <use x="63.623047" xlink:href="#DejaVuSans-2e"/>
       <use x="95.410156" xlink:href="#DejaVuSans-35"/>
      </g>
     </g>
    </g>
    <g id="xtick_3">
     <g id="line2d_3">
      <g>
       <use style="stroke:#000000;stroke-width:0.8;" x="183.655828" xlink:href="#m7280937d26" y="320.4"/>
      </g>
     </g>
     <g id="text_3">
      <!-- 5.0 -->
      <g transform="translate(172.52364 338.037813)scale(0.14 -0.14)">
       <use xlink:href="#DejaVuSans-35"/>
       <use x="63.623047" xlink:href="#DejaVuSans-2e"/>
       <use x="95.410156" xlink:href="#DejaVuSans-30"/>
      </g>
     </g>
    </g>
    <g id="xtick_4">
     <g id="line2d_4">
      <g>
       <use style="stroke:#000000;stroke-width:0.8;" x="239.483742" xlink:href="#m7280937d26" y="320.4"/>
      </g>
     </g>
     <g id="text_4">
      <!-- 7.5 -->
      <g transform="translate(228.351554 338.037813)scale(0.14 -0.14)">
       <defs>
        <path d="M 525 4666 
L 3525 4666 
L 3525 4397 
L 1831 0 
L 1172 0 
L 2766 4134 
L 525 4134 
L 525 4666 
z
" id="DejaVuSans-37" transform="scale(0.015625)"/>
       </defs>
       <use xlink:href="#DejaVuSans-37"/>
       <use x="63.623047" xlink:href="#DejaVuSans-2e"/>
       <use x="95.410156" xlink:href="#DejaVuSans-35"/>
      </g>
     </g>
    </g>
    <g id="xtick_5">
     <g id="line2d_5">
      <g>
       <use style="stroke:#000000;stroke-width:0.8;" x="295.311656" xlink:href="#m7280937d26" y="320.4"/>
      </g>
     </g>
     <g id="text_5">
      <!-- 10.0 -->
      <g transform="translate(279.725718 338.037813)scale(0.14 -0.14)">
       <defs>
        <path d="M 794 531 
L 1825 531 
L 1825 4091 
L 703 3866 
L 703 4441 
L 1819 4666 
L 2450 4666 
L 2450 531 
L 3481 531 
L 3481 0 
L 794 0 
L 794 531 
z
" id="DejaVuSans-31" transform="scale(0.015625)"/>
       </defs>
       <use xlink:href="#DejaVuSans-31"/>
       <use x="63.623047" xlink:href="#DejaVuSans-30"/>
       <use x="127.246094" xlink:href="#DejaVuSans-2e"/>
       <use x="159.033203" xlink:href="#DejaVuSans-30"/>
      </g>
     </g>
    </g>
    <g id="xtick_6">
     <g id="line2d_6">
      <g>
       <use style="stroke:#000000;stroke-width:0.8;" x="351.13957" xlink:href="#m7280937d26" y="320.4"/>
      </g>
     </g>
     <g id="text_6">
      <!-- 12.5 -->
      <g transform="translate(335.553632 338.037813)scale(0.14 -0.14)">
       <use xlink:href="#DejaVuSans-31"/>
       <use x="63.623047" xlink:href="#DejaVuSans-32"/>
       <use x="127.246094" xlink:href="#DejaVuSans-2e"/>
       <use x="159.033203" xlink:href="#DejaVuSans-35"/>
      </g>
     </g>
    </g>
    <g id="xtick_7">
     <g id="line2d_7">
      <g>
       <use style="stroke:#000000;stroke-width:0.8;" x="406.967484" xlink:href="#m7280937d26" y="320.4"/>
      </g>
     </g>
     <g id="text_7">
      <!-- 15.0 -->
      <g transform="translate(391.381546 338.037813)scale(0.14 -0.14)">
       <use xlink:href="#DejaVuSans-31"/>
       <use x="63.623047" xlink:href="#DejaVuSans-35"/>
       <use x="127.246094" xlink:href="#DejaVuSans-2e"/>
       <use x="159.033203" xlink:href="#DejaVuSans-30"/>
      </g>
     </g>
    </g>
    <g id="xtick_8">
     <g id="line2d_8">
      <g>
       <use style="stroke:#000000;stroke-width:0.8;" x="462.795398" xlink:href="#m7280937d26" y="320.4"/>
      </g>
     </g>
     <g id="text_8">
      <!-- 17.5 -->
      <g transform="translate(447.20946 338.037813)scale(0.14 -0.14)">
       <use xlink:href="#DejaVuSans-31"/>
       <use x="63.623047" xlink:href="#DejaVuSans-37"/>
       <use x="127.246094" xlink:href="#DejaVuSans-2e"/>
       <use x="159.033203" xlink:href="#DejaVuSans-35"/>
      </g>
     </g>
    </g>
    <g id="text_9">
     <!-- Time [Seconds] -->
     <g transform="translate(233.23 357.106875)scale(0.16 -0.16)">
      <defs>
       <path d="M -19 4666 
L 3928 4666 
L 3928 4134 
L 2272 4134 
L 2272 0 
L 1638 0 
L 1638 4134 
L -19 4134 
L -19 4666 
z
" id="DejaVuSans-54" transform="scale(0.015625)"/>
       <path d="M 603 3500 
L 1178 3500 
L 1178 0 
L 603 0 
L 603 3500 
z
M 603 4863 
L 1178 4863 
L 1178 4134 
L 603 4134 
L 603 4863 
z
" id="DejaVuSans-69" transform="scale(0.015625)"/>
       <path d="M 3328 2828 
Q 3544 3216 3844 3400 
Q 4144 3584 4550 3584 
Q 5097 3584 5394 3201 
Q 5691 2819 5691 2113 
L 5691 0 
L 5113 0 
L 5113 2094 
Q 5113 2597 4934 2840 
Q 4756 3084 4391 3084 
Q 3944 3084 3684 2787 
Q 3425 2491 3425 1978 
L 3425 0 
L 2847 0 
L 2847 2094 
Q 2847 2600 2669 2842 
Q 2491 3084 2119 3084 
Q 1678 3084 1418 2786 
Q 1159 2488 1159 1978 
L 1159 0 
L 581 0 
L 581 3500 
L 1159 3500 
L 1159 2956 
Q 1356 3278 1631 3431 
Q 1906 3584 2284 3584 
Q 2666 3584 2933 3390 
Q 3200 3197 3328 2828 
z
" id="DejaVuSans-6d" transform="scale(0.015625)"/>
       <path d="M 3597 1894 
L 3597 1613 
L 953 1613 
Q 991 1019 1311 708 
Q 1631 397 2203 397 
Q 2534 397 2845 478 
Q 3156 559 3463 722 
L 3463 178 
Q 3153 47 2828 -22 
Q 2503 -91 2169 -91 
Q 1331 -91 842 396 
Q 353 884 353 1716 
Q 353 2575 817 3079 
Q 1281 3584 2069 3584 
Q 2775 3584 3186 3129 
Q 3597 2675 3597 1894 
z
M 3022 2063 
Q 3016 2534 2758 2815 
Q 2500 3097 2075 3097 
Q 1594 3097 1305 2825 
Q 1016 2553 972 2059 
L 3022 2063 
z
" id="DejaVuSans-65" transform="scale(0.015625)"/>
       <path id="DejaVuSans-20" transform="scale(0.015625)"/>
       <path d="M 550 4863 
L 1875 4863 
L 1875 4416 
L 1125 4416 
L 1125 -397 
L 1875 -397 
L 1875 -844 
L 550 -844 
L 550 4863 
z
" id="DejaVuSans-5b" transform="scale(0.015625)"/>
       <path d="M 3425 4513 
L 3425 3897 
Q 3066 4069 2747 4153 
Q 2428 4238 2131 4238 
Q 1616 4238 1336 4038 
Q 1056 3838 1056 3469 
Q 1056 3159 1242 3001 
Q 1428 2844 1947 2747 
L 2328 2669 
Q 3034 2534 3370 2195 
Q 3706 1856 3706 1288 
Q 3706 609 3251 259 
Q 2797 -91 1919 -91 
Q 1588 -91 1214 -16 
Q 841 59 441 206 
L 441 856 
Q 825 641 1194 531 
Q 1563 422 1919 422 
Q 2459 422 2753 634 
Q 3047 847 3047 1241 
Q 3047 1584 2836 1778 
Q 2625 1972 2144 2069 
L 1759 2144 
Q 1053 2284 737 2584 
Q 422 2884 422 3419 
Q 422 4038 858 4394 
Q 1294 4750 2059 4750 
Q 2388 4750 2728 4690 
Q 3069 4631 3425 4513 
z
" id="DejaVuSans-53" transform="scale(0.015625)"/>
       <path d="M 3122 3366 
L 3122 2828 
Q 2878 2963 2633 3030 
Q 2388 3097 2138 3097 
Q 1578 3097 1268 2742 
Q 959 2388 959 1747 
Q 959 1106 1268 751 
Q 1578 397 2138 397 
Q 2388 397 2633 464 
Q 2878 531 3122 666 
L 3122 134 
Q 2881 22 2623 -34 
Q 2366 -91 2075 -91 
Q 1284 -91 818 406 
Q 353 903 353 1747 
Q 353 2603 823 3093 
Q 1294 3584 2113 3584 
Q 2378 3584 2631 3529 
Q 2884 3475 3122 3366 
z
" id="DejaVuSans-63" transform="scale(0.015625)"/>
       <path d="M 1959 3097 
Q 1497 3097 1228 2736 
Q 959 2375 959 1747 
Q 959 1119 1226 758 
Q 1494 397 1959 397 
Q 2419 397 2687 759 
Q 2956 1122 2956 1747 
Q 2956 2369 2687 2733 
Q 2419 3097 1959 3097 
z
M 1959 3584 
Q 2709 3584 3137 3096 
Q 3566 2609 3566 1747 
Q 3566 888 3137 398 
Q 2709 -91 1959 -91 
Q 1206 -91 779 398 
Q 353 888 353 1747 
Q 353 2609 779 3096 
Q 1206 3584 1959 3584 
z
" id="DejaVuSans-6f" transform="scale(0.015625)"/>
       <path d="M 3513 2113 
L 3513 0 
L 2938 0 
L 2938 2094 
Q 2938 2591 2744 2837 
Q 2550 3084 2163 3084 
Q 1697 3084 1428 2787 
Q 1159 2491 1159 1978 
L 1159 0 
L 581 0 
L 581 3500 
L 1159 3500 
L 1159 2956 
Q 1366 3272 1645 3428 
Q 1925 3584 2291 3584 
Q 2894 3584 3203 3211 
Q 3513 2838 3513 2113 
z
" id="DejaVuSans-6e" transform="scale(0.015625)"/>
       <path d="M 2906 2969 
L 2906 4863 
L 3481 4863 
L 3481 0 
L 2906 0 
L 2906 525 
Q 2725 213 2448 61 
Q 2172 -91 1784 -91 
Q 1150 -91 751 415 
Q 353 922 353 1747 
Q 353 2572 751 3078 
Q 1150 3584 1784 3584 
Q 2172 3584 2448 3432 
Q 2725 3281 2906 2969 
z
M 947 1747 
Q 947 1113 1208 752 
Q 1469 391 1925 391 
Q 2381 391 2643 752 
Q 2906 1113 2906 1747 
Q 2906 2381 2643 2742 
Q 2381 3103 1925 3103 
Q 1469 3103 1208 2742 
Q 947 2381 947 1747 
z
" id="DejaVuSans-64" transform="scale(0.015625)"/>
       <path d="M 2834 3397 
L 2834 2853 
Q 2591 2978 2328 3040 
Q 2066 3103 1784 3103 
Q 1356 3103 1142 2972 
Q 928 2841 928 2578 
Q 928 2378 1081 2264 
Q 1234 2150 1697 2047 
L 1894 2003 
Q 2506 1872 2764 1633 
Q 3022 1394 3022 966 
Q 3022 478 2636 193 
Q 2250 -91 1575 -91 
Q 1294 -91 989 -36 
Q 684 19 347 128 
L 347 722 
Q 666 556 975 473 
Q 1284 391 1588 391 
Q 1994 391 2212 530 
Q 2431 669 2431 922 
Q 2431 1156 2273 1281 
Q 2116 1406 1581 1522 
L 1381 1569 
Q 847 1681 609 1914 
Q 372 2147 372 2553 
Q 372 3047 722 3315 
Q 1072 3584 1716 3584 
Q 2034 3584 2315 3537 
Q 2597 3491 2834 3397 
z
" id="DejaVuSans-73" transform="scale(0.015625)"/>
       <path d="M 1947 4863 
L 1947 -844 
L 622 -844 
L 622 -397 
L 1369 -397 
L 1369 4416 
L 622 4416 
L 622 4863 
L 1947 4863 
z
" id="DejaVuSans-5d" transform="scale(0.015625)"/>
      </defs>
      <use xlink:href="#DejaVuSans-54"/>
      <use x="57.958984" xlink:href="#DejaVuSans-69"/>
      <use x="85.742188" xlink:href="#DejaVuSans-6d"/>
      <use x="183.154297" xlink:href="#DejaVuSans-65"/>
      <use x="244.677734" xlink:href="#DejaVuSans-20"/>
      <use x="276.464844" xlink:href="#DejaVuSans-5b"/>
      <use x="315.478516" xlink:href="#DejaVuSans-53"/>
      <use x="378.955078" xlink:href="#DejaVuSans-65"/>
      <use x="440.478516" xlink:href="#DejaVuSans-63"/>
      <use x="495.458984" xlink:href="#DejaVuSans-6f"/>
      <use x="556.640625" xlink:href="#DejaVuSans-6e"/>
      <use x="620.019531" xlink:href="#DejaVuSans-64"/>
      <use x="683.496094" xlink:href="#DejaVuSans-73"/>
      <use x="735.595703" xlink:href="#DejaVuSans-5d"/>
     </g>
    </g>
   </g>
   <g id="matplotlib.axis_2">
    <g id="ytick_1">
     <g id="line2d_9">
      <defs>
       <path d="M 0 0 
L -3.5 0 
" id="mb6c6982e1f" style="stroke:#000000;stroke-width:0.8;"/>
      </defs>
      <g>
       <use style="stroke:#000000;stroke-width:0.8;" x="72" xlink:href="#mb6c6982e1f" y="282.271132"/>
      </g>
     </g>
     <g id="text_10">
      <!-- 0.0 -->
      <g transform="translate(42.735625 287.590038)scale(0.14 -0.14)">
       <use xlink:href="#DejaVuSans-30"/>
       <use x="63.623047" xlink:href="#DejaVuSans-2e"/>
       <use x="95.410156" xlink:href="#DejaVuSans-30"/>
      </g>
     </g>
    </g>
    <g id="ytick_2">
     <g id="line2d_10">
      <g>
       <use style="stroke:#000000;stroke-width:0.8;" x="72" xlink:href="#mb6c6982e1f" y="229.276056"/>
      </g>
     </g>
     <g id="text_11">
      <!-- 0.5 -->
      <g transform="translate(42.735625 234.594963)scale(0.14 -0.14)">
       <use xlink:href="#DejaVuSans-30"/>
       <use x="63.623047" xlink:href="#DejaVuSans-2e"/>
       <use x="95.410156" xlink:href="#DejaVuSans-35"/>
      </g>
     </g>
    </g>
    <g id="ytick_3">
     <g id="line2d_11">
      <g>
       <use style="stroke:#000000;stroke-width:0.8;" x="72" xlink:href="#mb6c6982e1f" y="176.280981"/>
      </g>
     </g>
     <g id="text_12">
      <!-- 1.0 -->
      <g transform="translate(42.735625 181.599887)scale(0.14 -0.14)">
       <use xlink:href="#DejaVuSans-31"/>
       <use x="63.623047" xlink:href="#DejaVuSans-2e"/>
       <use x="95.410156" xlink:href="#DejaVuSans-30"/>
      </g>
     </g>
    </g>
    <g id="ytick_4">
     <g id="line2d_12">
      <g>
       <use style="stroke:#000000;stroke-width:0.8;" x="72" xlink:href="#mb6c6982e1f" y="123.285906"/>
      </g>
     </g>
     <g id="text_13">
      <!-- 1.5 -->
      <g transform="translate(42.735625 128.604812)scale(0.14 -0.14)">
       <use xlink:href="#DejaVuSans-31"/>
       <use x="63.623047" xlink:href="#DejaVuSans-2e"/>
       <use x="95.410156" xlink:href="#DejaVuSans-35"/>
      </g>
     </g>
    </g>
    <g id="ytick_5">
     <g id="line2d_13">
      <g>
       <use style="stroke:#000000;stroke-width:0.8;" x="72" xlink:href="#mb6c6982e1f" y="70.29083"/>
      </g>
     </g>
     <g id="text_14">
      <!-- 2.0 -->
      <g transform="translate(42.735625 75.609736)scale(0.14 -0.14)">
       <use xlink:href="#DejaVuSans-32"/>
       <use x="63.623047" xlink:href="#DejaVuSans-2e"/>
       <use x="95.410156" xlink:href="#DejaVuSans-30"/>
      </g>
     </g>
    </g>
    <g id="text_15">
     <!-- Speed [mm/s] -->
     <g transform="translate(35.408125 238.11375)rotate(-90)scale(0.16 -0.16)">
      <defs>
       <path d="M 1159 525 
L 1159 -1331 
L 581 -1331 
L 581 3500 
L 1159 3500 
L 1159 2969 
Q 1341 3281 1617 3432 
Q 1894 3584 2278 3584 
Q 2916 3584 3314 3078 
Q 3713 2572 3713 1747 
Q 3713 922 3314 415 
Q 2916 -91 2278 -91 
Q 1894 -91 1617 61 
Q 1341 213 1159 525 
z
M 3116 1747 
Q 3116 2381 2855 2742 
Q 2594 3103 2138 3103 
Q 1681 3103 1420 2742 
Q 1159 2381 1159 1747 
Q 1159 1113 1420 752 
Q 1681 391 2138 391 
Q 2594 391 2855 752 
Q 3116 1113 3116 1747 
z
" id="DejaVuSans-70" transform="scale(0.015625)"/>
       <path d="M 1625 4666 
L 2156 4666 
L 531 -594 
L 0 -594 
L 1625 4666 
z
" id="DejaVuSans-2f" transform="scale(0.015625)"/>
      </defs>
      <use xlink:href="#DejaVuSans-53"/>
      <use x="63.476562" xlink:href="#DejaVuSans-70"/>
      <use x="126.953125" xlink:href="#DejaVuSans-65"/>
      <use x="188.476562" xlink:href="#DejaVuSans-65"/>
      <use x="250" xlink:href="#DejaVuSans-64"/>
      <use x="313.476562" xlink:href="#DejaVuSans-20"/>
      <use x="345.263672" xlink:href="#DejaVuSans-5b"/>
      <use x="384.277344" xlink:href="#DejaVuSans-6d"/>
      <use x="481.689453" xlink:href="#DejaVuSans-6d"/>
      <use x="579.101562" xlink:href="#DejaVuSans-2f"/>
      <use x="612.792969" xlink:href="#DejaVuSans-73"/>
      <use x="664.892578" xlink:href="#DejaVuSans-5d"/>
     </g>
    </g>
   </g>
   <g id="line2d_14">
    <path clip-path="url(#p5dbfd70e29)" d="M 72 162.839973 
L 518.4 162.839973 
" style="fill:none;stroke:#000000;stroke-dasharray:5.55,2.4;stroke-dashoffset:0;stroke-width:1.5;"/>
   </g>
   <g id="line2d_15">
    <path clip-path="url(#p5dbfd70e29)" d="M 72 280.679688 
L 104.607407 280.629993 
L 105.066667 280.877457 
L 105.525926 279.974049 
L 105.985185 278.162796 
L 106.444444 278.185589 
L 107.362963 280.992201 
L 107.822222 281.547567 
L 108.740741 281.554814 
L 109.2 281.847362 
L 109.659259 279.548153 
L 110.118519 289.820072 
L 110.577778 267.82825 
L 111.037037 251.759103 
L 111.496296 278.185091 
L 112.414815 300.146914 
L 112.874074 307.549643 
L 113.333333 307.8 
L 113.792593 306.629355 
L 114.251852 302.902933 
L 114.711111 295.059207 
L 116.088889 258.848751 
L 117.007407 224.759172 
L 118.385185 171.374075 
L 120.681481 91.723315 
L 121.6 70.95287 
L 122.059259 63.87151 
L 122.518519 59.904352 
L 122.977778 56.992858 
L 123.437037 55.8 
L 123.896296 57.378294 
L 124.355556 59.758214 
L 125.274074 71.071186 
L 125.733333 79.348943 
L 126.651852 102.78137 
L 127.57037 122.189183 
L 128.948148 157.260562 
L 129.407407 166.991595 
L 129.866667 172.346705 
L 130.325926 174.421841 
L 130.785185 175.029536 
L 131.244444 173.126133 
L 132.162963 156.892528 
L 132.622222 128.357879 
L 133.081481 133.645474 
L 133.540741 161.675896 
L 134 157.470018 
L 134.459259 157.976663 
L 134.918519 157.973075 
L 135.377778 157.391712 
L 135.837037 159.488851 
L 136.296296 158.506808 
L 136.755556 156.485914 
L 137.214815 157.937183 
L 137.674074 160.092524 
L 138.133333 159.495223 
L 138.592593 157.907085 
L 139.051852 157.628267 
L 139.511111 157.554638 
L 140.42963 158.976732 
L 140.888889 160.969386 
L 141.348148 160.64269 
L 141.807407 159.618106 
L 142.266667 159.630898 
L 142.725926 160.983165 
L 143.185185 161.767758 
L 143.644444 162.1413 
L 144.562963 164.863685 
L 145.022222 164.501779 
L 145.481481 164.296042 
L 145.940741 165.26544 
L 146.4 163.583391 
L 146.859259 162.382204 
L 147.318519 161.883005 
L 148.237037 165.059627 
L 148.696296 163.022012 
L 149.155556 159.999159 
L 149.614815 159.727003 
L 150.074074 159.926418 
L 150.533333 159.754351 
L 150.992593 160.672669 
L 151.451852 160.853977 
L 151.911111 160.812384 
L 152.37037 160.37128 
L 152.82963 160.739268 
L 153.288889 161.960625 
L 153.748148 160.878108 
L 154.207407 160.915003 
L 154.666667 162.671716 
L 155.125926 162.865058 
L 155.585185 163.648087 
L 156.044444 164.087686 
L 156.962963 163.026563 
L 157.422222 163.114 
L 157.881481 163.039633 
L 158.340741 162.694518 
L 158.8 163.436575 
L 159.259259 164.904938 
L 160.177778 163.589338 
L 160.637037 164.964835 
L 161.096296 164.30437 
L 162.014815 160.584171 
L 162.474074 161.11616 
L 162.933333 161.211737 
L 163.392593 161.433247 
L 163.851852 162.72038 
L 164.311111 162.545947 
L 164.77037 161.047833 
L 165.22963 160.452576 
L 165.688889 162.901315 
L 166.148148 163.663514 
L 167.066667 163.819226 
L 167.525926 164.026743 
L 167.985185 164.734394 
L 168.444444 164.20673 
L 168.903704 163.347653 
L 169.362963 164.143812 
L 169.822222 166.329312 
L 170.281481 167.32066 
L 170.740741 165.003361 
L 171.2 163.378693 
L 171.659259 163.846736 
L 172.577778 165.944294 
L 173.037037 166.378504 
L 173.496296 166.232225 
L 173.955556 164.910048 
L 174.414815 162.775274 
L 174.874074 162.910921 
L 175.333333 163.47549 
L 175.792593 163.126849 
L 176.251852 163.684512 
L 176.711111 164.526425 
L 177.17037 162.746675 
L 177.62963 162.28027 
L 178.088889 163.564461 
L 178.548148 162.547809 
L 179.007407 159.118019 
L 179.466667 159.447092 
L 179.925926 161.702772 
L 180.844444 160.669794 
L 181.303704 160.51866 
L 181.762963 161.676173 
L 182.222222 161.375076 
L 182.681481 161.607738 
L 184.518519 163.642902 
L 184.977778 162.206845 
L 185.437037 162.411014 
L 185.896296 164.565581 
L 186.355556 164.439647 
L 186.814815 163.956004 
L 187.274074 163.775933 
L 187.733333 165.846023 
L 188.192593 166.568412 
L 188.651852 164.509538 
L 189.111111 163.386952 
L 189.57037 164.96835 
L 190.02963 165.567813 
L 190.488889 164.568491 
L 190.948148 162.193714 
L 191.407407 162.972062 
L 191.866667 165.650866 
L 192.785185 160.674864 
L 193.244444 161.517214 
L 193.703704 163.761121 
L 194.162963 164.857247 
L 195.081481 162.549552 
L 195.540741 163.417966 
L 196 161.308541 
L 196.459259 160.891146 
L 196.918519 163.434581 
L 197.377778 162.93725 
L 197.837037 162.084 
L 198.296296 162.417806 
L 198.755556 163.237951 
L 199.214815 162.217151 
L 200.133333 164.947531 
L 200.592593 162.068508 
L 201.051852 160.846322 
L 201.511111 162.929082 
L 201.97037 163.200031 
L 202.42963 162.749601 
L 202.888889 162.901649 
L 203.348148 162.528794 
L 203.807407 162.704499 
L 204.266667 161.415711 
L 204.725926 161.275291 
L 205.185185 161.443031 
L 205.644444 161.750372 
L 206.103704 162.625619 
L 206.562963 162.947993 
L 207.022222 161.110289 
L 207.481481 160.828768 
L 207.940741 164.174944 
L 208.4 164.883931 
L 208.859259 162.521041 
L 209.318519 161.007979 
L 209.777778 163.573393 
L 210.237037 164.915611 
L 210.696296 161.842043 
L 211.155556 161.787075 
L 211.614815 165.437393 
L 212.074074 165.20137 
L 212.533333 163.24193 
L 212.992593 162.784071 
L 213.451852 163.223602 
L 213.911111 162.218588 
L 214.37037 160.23883 
L 214.82963 161.948606 
L 215.288889 164.417304 
L 215.748148 165.405159 
L 216.207407 164.509845 
L 216.666667 161.777764 
L 217.125926 162.716948 
L 217.585185 164.90826 
L 218.044444 162.935552 
L 218.503704 163.402727 
L 218.962963 164.535071 
L 219.422222 162.586907 
L 219.881481 162.081611 
L 220.340741 162.69943 
L 220.8 162.825883 
L 221.259259 162.804834 
L 221.718519 164.629271 
L 222.177778 165.129116 
L 222.637037 162.704672 
L 223.096296 163.208706 
L 223.555556 164.307006 
L 224.014815 163.096981 
L 224.474074 164.201699 
L 224.933333 164.57222 
L 225.392593 165.301857 
L 225.851852 165.761571 
L 226.77037 162.063188 
L 227.22963 162.450385 
L 227.688889 164.08091 
L 228.148148 164.196348 
L 228.607407 163.367124 
L 229.066667 160.820188 
L 229.525926 162.451075 
L 229.985185 164.945052 
L 230.903704 162.182968 
L 231.362963 161.718771 
L 231.822222 163.763957 
L 232.281481 163.023427 
L 232.740741 160.690154 
L 233.2 162.575786 
L 233.659259 165.542777 
L 234.118519 165.209701 
L 235.037037 162.328915 
L 235.496296 161.152579 
L 235.955556 161.180349 
L 236.414815 161.995868 
L 237.333333 165.270494 
L 237.792593 164.76293 
L 238.251852 163.556237 
L 238.711111 161.930204 
L 239.17037 162.568067 
L 239.62963 163.524033 
L 240.088889 161.473283 
L 240.548148 161.914521 
L 241.007407 162.822515 
L 241.925926 162.217823 
L 242.385185 160.772541 
L 242.844444 161.055621 
L 243.762963 162.282156 
L 244.222222 163.444508 
L 244.681481 163.191603 
L 245.140741 163.314627 
L 245.6 162.374186 
L 246.059259 161.806134 
L 246.518519 162.508552 
L 246.977778 162.761234 
L 247.896296 165.050012 
L 248.355556 164.800954 
L 248.814815 164.15918 
L 249.274074 164.632497 
L 249.733333 164.018798 
L 250.192593 162.911866 
L 250.651852 162.131212 
L 251.111111 162.011755 
L 251.57037 164.285937 
L 252.488889 163.592624 
L 252.948148 164.461774 
L 253.407407 163.05173 
L 253.866667 163.360655 
L 254.325926 161.648657 
L 254.785185 160.757622 
L 255.244444 162.814351 
L 255.703704 164.295949 
L 256.162963 164.197889 
L 256.622222 161.969405 
L 257.081481 161.102227 
L 257.540741 160.615027 
L 258 161.278978 
L 258.918519 163.530851 
L 259.377778 162.863369 
L 259.837037 161.542244 
L 260.755556 163.312617 
L 261.214815 164.085689 
L 261.674074 163.504671 
L 262.133333 161.192223 
L 262.592593 163.095366 
L 263.051852 165.840766 
L 263.97037 162.021363 
L 264.42963 163.139603 
L 264.888889 164.74477 
L 265.348148 162.673391 
L 265.807407 162.146848 
L 266.266667 164.767322 
L 266.725926 164.5976 
L 267.185185 164.76847 
L 267.644444 163.209001 
L 268.103704 162.561326 
L 268.562963 163.003463 
L 269.022222 161.801321 
L 269.481481 162.264831 
L 269.940741 163.712729 
L 270.859259 162.634541 
L 271.318519 163.232415 
L 271.777778 163.009376 
L 272.237037 160.876879 
L 272.696296 159.745108 
L 273.155556 161.919957 
L 273.614815 162.138807 
L 274.074074 160.97712 
L 274.992593 164.271623 
L 275.451852 161.948594 
L 275.911111 161.734918 
L 276.37037 162.130198 
L 276.82963 162.015798 
L 277.288889 163.32541 
L 277.748148 163.954655 
L 278.207407 163.587625 
L 278.666667 161.426056 
L 279.125926 161.350355 
L 280.044444 164.171723 
L 280.503704 163.910351 
L 280.962963 162.96634 
L 281.422222 162.405072 
L 281.881481 163.042687 
L 282.340741 164.64035 
L 282.8 164.663113 
L 283.259259 164.099986 
L 283.718519 162.800316 
L 284.177778 162.049951 
L 284.637037 163.651499 
L 285.096296 164.729251 
L 285.555556 163.213611 
L 286.014815 165.237725 
L 286.474074 166.475961 
L 286.933333 164.790699 
L 287.392593 164.378311 
L 287.851852 164.721189 
L 288.311111 165.655622 
L 288.77037 164.263649 
L 289.22963 163.589302 
L 289.688889 162.673855 
L 290.148148 163.350983 
L 290.607407 164.304579 
L 291.066667 160.652482 
L 291.525926 160.318088 
L 291.985185 161.939031 
L 292.444444 161.935339 
L 292.903704 162.912214 
L 293.362963 163.047814 
L 293.822222 162.935876 
L 294.281481 161.728475 
L 294.740741 161.139307 
L 295.2 161.999607 
L 295.659259 160.786577 
L 296.118519 160.368723 
L 296.577778 161.651648 
L 297.037037 162.047531 
L 297.496296 159.749353 
L 297.955556 160.722551 
L 298.414815 162.507834 
L 298.874074 161.711847 
L 299.333333 162.579449 
L 299.792593 163.008843 
L 300.251852 163.883544 
L 300.711111 164.195939 
L 301.17037 163.848436 
L 301.62963 165.466521 
L 302.088889 165.348889 
L 302.548148 164.01996 
L 303.007407 164.174736 
L 303.466667 163.777284 
L 303.925926 162.793986 
L 304.385185 162.460469 
L 304.844444 163.294601 
L 305.303704 163.058284 
L 305.762963 161.243426 
L 306.222222 160.470974 
L 307.140741 163.467309 
L 308.059259 165.058019 
L 308.518519 164.216172 
L 308.977778 164.690727 
L 309.437037 166.06584 
L 309.896296 164.38309 
L 310.355556 164.386658 
L 310.814815 163.860126 
L 311.274074 163.669325 
L 311.733333 162.902287 
L 312.192593 163.226899 
L 312.651852 162.441767 
L 313.111111 159.458124 
L 313.57037 161.653145 
L 314.02963 162.833425 
L 314.488889 161.312456 
L 314.948148 161.260567 
L 315.407407 162.344332 
L 315.866667 164.363892 
L 316.325926 164.151871 
L 316.785185 162.164771 
L 317.244444 162.833649 
L 317.703704 162.504359 
L 318.162963 161.139267 
L 318.622222 161.086571 
L 319.540741 158.342771 
L 320 160.228685 
L 320.459259 162.867291 
L 320.918519 164.166738 
L 321.377778 163.278841 
L 321.837037 163.317239 
L 322.296296 165.301277 
L 322.755556 165.303742 
L 323.214815 164.620729 
L 323.674074 166.870158 
L 324.133333 167.28682 
L 324.592593 165.698869 
L 325.051852 165.417015 
L 325.97037 163.458829 
L 326.42963 163.586686 
L 326.888889 162.805361 
L 327.348148 161.77814 
L 327.807407 161.195398 
L 328.266667 161.217919 
L 329.185185 160.645957 
L 329.644444 161.318863 
L 330.103704 162.954487 
L 330.562963 163.093347 
L 331.022222 162.234971 
L 331.481481 163.153473 
L 332.4 165.867822 
L 332.859259 164.755102 
L 333.318519 162.436013 
L 333.777778 160.694849 
L 334.237037 163.764743 
L 334.696296 163.384514 
L 335.155556 162.336052 
L 335.614815 165.334042 
L 336.074074 163.869449 
L 336.533333 161.206362 
L 336.992593 161.963672 
L 337.451852 163.899969 
L 337.911111 164.669035 
L 338.37037 165.061661 
L 338.82963 164.686417 
L 339.288889 163.94315 
L 340.207407 161.696606 
L 340.666667 161.175791 
L 341.125926 160.192888 
L 341.585185 159.480289 
L 342.503704 163.005796 
L 343.422222 158.811048 
L 344.340741 162.485999 
L 344.8 163.661473 
L 345.259259 165.687681 
L 345.718519 166.134363 
L 346.637037 164.565345 
L 347.555556 163.765221 
L 348.474074 163.769872 
L 348.933333 162.669136 
L 349.392593 162.346289 
L 349.851852 162.674207 
L 350.311111 162.547149 
L 350.77037 162.233382 
L 351.688889 164.72315 
L 352.148148 165.108452 
L 352.607407 163.929703 
L 353.066667 164.232244 
L 353.525926 166.358334 
L 353.985185 166.000962 
L 354.444444 163.903101 
L 355.362963 160.402015 
L 355.822222 160.798106 
L 356.281481 163.160524 
L 356.740741 161.219934 
L 357.2 159.999407 
L 357.659259 160.764532 
L 358.577778 160.028658 
L 359.496296 162.664508 
L 359.955556 163.393716 
L 360.414815 165.310416 
L 360.874074 165.509291 
L 361.333333 163.886961 
L 362.251852 162.402977 
L 362.711111 162.493839 
L 363.62963 159.678481 
L 364.088889 161.670673 
L 364.548148 162.263818 
L 365.007407 160.882769 
L 365.925926 163.924359 
L 366.385185 164.10574 
L 366.844444 165.42209 
L 367.303704 165.825996 
L 367.762963 164.819402 
L 368.222222 165.511881 
L 368.681481 165.380301 
L 369.6 162.253026 
L 370.059259 161.932588 
L 370.518519 162.030656 
L 370.977778 159.708936 
L 371.896296 159.690007 
L 372.355556 159.505275 
L 372.814815 160.911342 
L 374.192593 162.848393 
L 375.111111 165.287384 
L 375.57037 165.627601 
L 376.02963 165.655024 
L 376.488889 165.060395 
L 377.407407 163.378925 
L 377.866667 162.271371 
L 378.785185 161.971692 
L 379.244444 161.174525 
L 379.703704 161.765379 
L 380.162963 162.095551 
L 380.622222 161.35259 
L 381.081481 161.990423 
L 382 164.283522 
L 382.459259 166.5247 
L 382.918519 166.667274 
L 383.377778 164.621629 
L 384.296296 162.922144 
L 384.755556 162.461966 
L 385.674074 160.648644 
L 386.592593 161.679686 
L 387.511111 163.366566 
L 388.42963 163.957732 
L 389.348148 165.403083 
L 389.807407 165.596783 
L 390.266667 167.168502 
L 390.725926 166.710896 
L 391.185185 163.347726 
L 391.644444 162.377328 
L 392.103704 163.129472 
L 392.562963 163.501824 
L 393.022222 162.385992 
L 393.481481 161.977862 
L 393.940741 159.503284 
L 394.4 158.74449 
L 394.859259 160.672414 
L 395.318519 160.348982 
L 395.777778 160.821948 
L 396.237037 162.302146 
L 396.696296 163.094462 
L 397.155556 162.831118 
L 398.074074 163.458157 
L 398.533333 162.399083 
L 398.992593 162.054879 
L 399.451852 161.105228 
L 399.911111 159.678121 
L 400.37037 162.882195 
L 400.82963 163.831851 
L 401.288889 162.561669 
L 402.207407 163.494958 
L 402.666667 164.293146 
L 403.585185 164.986109 
L 404.044444 165.25215 
L 404.503704 166.194535 
L 404.962963 165.405022 
L 405.422222 163.892527 
L 405.881481 163.927357 
L 406.340741 162.793322 
L 406.8 163.003421 
L 407.259259 162.960913 
L 407.718519 161.899163 
L 408.177778 161.921188 
L 408.637037 162.061148 
L 409.555556 163.729847 
L 410.014815 163.787982 
L 410.474074 164.990296 
L 410.933333 165.728338 
L 411.392593 164.871905 
L 411.851852 164.570633 
L 412.311111 164.807057 
L 412.77037 163.520179 
L 413.22963 161.285676 
L 413.688889 162.42868 
L 414.148148 161.791572 
L 415.066667 163.520389 
L 415.525926 161.311137 
L 415.985185 160.234974 
L 416.903704 163.081317 
L 417.362963 162.533149 
L 417.822222 163.835166 
L 418.740741 165.368226 
L 419.659259 163.011442 
L 420.118519 163.787924 
L 420.577778 163.151865 
L 421.955556 159.98732 
L 422.414815 160.620832 
L 422.874074 161.777911 
L 423.333333 162.614996 
L 423.792593 162.556493 
L 424.251852 163.316788 
L 424.711111 163.586802 
L 425.17037 162.80706 
L 425.62963 163.360554 
L 426.088889 164.345085 
L 426.548148 164.131523 
L 427.007407 163.284755 
L 427.466667 161.898959 
L 427.925926 161.453188 
L 428.385185 161.282467 
L 428.844444 161.655705 
L 429.303704 161.658958 
L 429.762963 160.049411 
L 430.222222 158.942316 
L 431.140741 163.421673 
L 431.6 162.928685 
L 432.059259 163.253506 
L 432.518519 164.094428 
L 432.977778 165.431667 
L 433.437037 164.631872 
L 433.896296 164.068153 
L 434.355556 165.541747 
L 434.814815 165.470382 
L 435.274074 163.886831 
L 435.733333 163.634906 
L 436.192593 163.082456 
L 436.651852 163.382848 
L 437.111111 163.197507 
L 437.57037 160.998752 
L 438.02963 161.244831 
L 438.488889 162.290036 
L 439.407407 163.429203 
L 439.866667 163.103339 
L 440.325926 163.829673 
L 440.785185 165.491913 
L 441.244444 162.721783 
L 441.703704 162.776247 
L 442.162963 164.682763 
L 442.622222 162.956398 
L 443.081481 163.658217 
L 443.540741 163.932283 
L 444 162.077761 
L 444.459259 161.553238 
L 444.918519 162.159266 
L 445.377778 161.797557 
L 446.296296 161.831209 
L 446.755556 161.429491 
L 447.214815 163.189375 
L 447.674074 164.22409 
L 448.133333 164.626771 
L 448.592593 163.463593 
L 449.051852 162.742322 
L 449.511111 163.486443 
L 450.42963 161.679953 
L 450.888889 162.955664 
L 451.348148 162.416036 
L 451.807407 160.535059 
L 452.266667 162.795454 
L 452.725926 164.421233 
L 453.185185 161.786527 
L 453.644444 161.040092 
L 454.103704 161.912146 
L 454.562963 161.747333 
L 455.022222 164.775108 
L 455.481481 164.136022 
L 455.940741 163.88618 
L 456.4 164.774452 
L 456.859259 162.49672 
L 457.318519 163.090869 
L 457.777778 164.564936 
L 458.237037 164.227933 
L 458.696296 162.033506 
L 459.155556 160.762658 
L 459.614815 161.242221 
L 460.074074 163.394801 
L 460.992593 162.168571 
L 461.451852 163.795279 
L 461.911111 162.381393 
L 462.37037 162.461876 
L 462.82963 163.38999 
L 463.288889 162.219167 
L 463.748148 163.332461 
L 464.207407 162.585037 
L 464.666667 162.584305 
L 465.125926 164.848141 
L 465.585185 163.431905 
L 466.044444 162.393782 
L 466.503704 160.604457 
L 466.962963 160.294513 
L 467.422222 163.339255 
L 467.881481 164.237624 
L 468.340741 162.536538 
L 468.8 162.084946 
L 469.259259 164.086894 
L 469.718519 163.429581 
L 470.177778 163.540196 
L 470.637037 162.801852 
L 471.096296 163.125673 
L 471.555556 164.556609 
L 472.014815 161.42236 
L 472.474074 162.172442 
L 472.933333 164.747908 
L 473.392593 163.481635 
L 473.851852 163.716545 
L 474.311111 165.509106 
L 474.77037 164.64476 
L 475.22963 163.038227 
L 476.148148 163.99187 
L 476.607407 164.548153 
L 477.066667 165.869209 
L 477.985185 161.457412 
L 478.444444 160.400614 
L 478.903704 161.887026 
L 479.362963 164.45682 
L 480.281481 160.101544 
L 480.740741 159.484116 
L 481.2 160.924373 
L 481.659259 163.110061 
L 482.118519 162.284488 
L 482.577778 160.243422 
L 483.037037 160.439976 
L 483.496296 162.248381 
L 483.955556 160.098757 
L 484.414815 159.974602 
L 484.874074 162.951821 
L 485.333333 163.116984 
L 486.251852 163.154189 
L 486.711111 165.28988 
L 487.17037 166.008647 
L 487.62963 163.893772 
L 488.088889 164.27069 
L 488.548148 162.309139 
L 489.007407 163.049165 
L 489.466667 166.231455 
L 490.385185 164.014391 
L 490.844444 162.644794 
L 491.303704 162.374079 
L 491.762963 163.17883 
L 492.222222 164.496751 
L 492.681481 162.587826 
L 493.6 163.759181 
L 494.059259 161.309577 
L 494.518519 162.655999 
L 494.977778 162.139244 
L 495.437037 162.039316 
L 495.896296 163.465365 
L 496.355556 162.765596 
L 496.814815 162.937093 
L 497.274074 163.460433 
L 497.733333 163.552136 
L 498.192593 164.664374 
L 498.651852 163.705069 
L 499.111111 163.247903 
L 500.02963 162.878682 
L 500.488889 163.145441 
L 500.948148 163.617303 
L 501.407407 163.689198 
L 501.866667 162.477976 
L 502.325926 164.073037 
L 502.785185 164.978684 
L 503.244444 166.38736 
L 503.703704 166.631939 
L 504.162963 163.937696 
L 504.622222 162.525351 
L 505.081481 162.641477 
L 505.540741 162.518074 
L 506 161.002631 
L 506.459259 160.182338 
L 507.377778 161.003162 
L 508.296296 161.429347 
L 509.674074 162.40819 
L 511.97037 164.190537 
L 512.888889 164.588974 
L 513.348148 164.641607 
L 513.807407 164.565694 
L 514.266667 164.336276 
L 514.725926 163.926917 
L 515.185185 163.309709 
L 515.644444 162.455267 
L 516.103704 161.332733 
L 517.022222 158.152579 
L 517.940741 153.492884 
L 518.4 150.515392 
L 518.4 150.515392 
" style="fill:none;stroke:#ff0000;stroke-linecap:square;stroke-width:2;"/>
   </g>
   <g id="patch_3">
    <path d="M 72 320.4 
L 72 43.2 
" style="fill:none;stroke:#000000;stroke-linecap:square;stroke-linejoin:miter;stroke-width:0.8;"/>
   </g>
   <g id="patch_4">
    <path d="M 518.4 320.4 
L 518.4 43.2 
" style="fill:none;stroke:#000000;stroke-linecap:square;stroke-linejoin:miter;stroke-width:0.8;"/>
   </g>
   <g id="patch_5">
    <path d="M 72 320.4 
L 518.4 320.4 
" style="fill:none;stroke:#000000;stroke-linecap:square;stroke-linejoin:miter;stroke-width:0.8;"/>
   </g>
   <g id="patch_6">
    <path d="M 72 43.2 
L 518.4 43.2 
" style="fill:none;stroke:#000000;stroke-linecap:square;stroke-linejoin:miter;stroke-width:0.8;"/>
   </g>
   <g id="text_16">
    <!-- Front Propogation Speed -->
    <g transform="translate(172.245312 37.2)scale(0.2 -0.2)">
     <defs>
      <path d="M 628 4666 
L 3309 4666 
L 3309 4134 
L 1259 4134 
L 1259 2759 
L 3109 2759 
L 3109 2228 
L 1259 2228 
L 1259 0 
L 628 0 
L 628 4666 
z
" id="DejaVuSans-46" transform="scale(0.015625)"/>
      <path d="M 2631 2963 
Q 2534 3019 2420 3045 
Q 2306 3072 2169 3072 
Q 1681 3072 1420 2755 
Q 1159 2438 1159 1844 
L 1159 0 
L 581 0 
L 581 3500 
L 1159 3500 
L 1159 2956 
Q 1341 3275 1631 3429 
Q 1922 3584 2338 3584 
Q 2397 3584 2469 3576 
Q 2541 3569 2628 3553 
L 2631 2963 
z
" id="DejaVuSans-72" transform="scale(0.015625)"/>
      <path d="M 1172 4494 
L 1172 3500 
L 2356 3500 
L 2356 3053 
L 1172 3053 
L 1172 1153 
Q 1172 725 1289 603 
Q 1406 481 1766 481 
L 2356 481 
L 2356 0 
L 1766 0 
Q 1100 0 847 248 
Q 594 497 594 1153 
L 594 3053 
L 172 3053 
L 172 3500 
L 594 3500 
L 594 4494 
L 1172 4494 
z
" id="DejaVuSans-74" transform="scale(0.015625)"/>
      <path d="M 1259 4147 
L 1259 2394 
L 2053 2394 
Q 2494 2394 2734 2622 
Q 2975 2850 2975 3272 
Q 2975 3691 2734 3919 
Q 2494 4147 2053 4147 
L 1259 4147 
z
M 628 4666 
L 2053 4666 
Q 2838 4666 3239 4311 
Q 3641 3956 3641 3272 
Q 3641 2581 3239 2228 
Q 2838 1875 2053 1875 
L 1259 1875 
L 1259 0 
L 628 0 
L 628 4666 
z
" id="DejaVuSans-50" transform="scale(0.015625)"/>
      <path d="M 2906 1791 
Q 2906 2416 2648 2759 
Q 2391 3103 1925 3103 
Q 1463 3103 1205 2759 
Q 947 2416 947 1791 
Q 947 1169 1205 825 
Q 1463 481 1925 481 
Q 2391 481 2648 825 
Q 2906 1169 2906 1791 
z
M 3481 434 
Q 3481 -459 3084 -895 
Q 2688 -1331 1869 -1331 
Q 1566 -1331 1297 -1286 
Q 1028 -1241 775 -1147 
L 775 -588 
Q 1028 -725 1275 -790 
Q 1522 -856 1778 -856 
Q 2344 -856 2625 -561 
Q 2906 -266 2906 331 
L 2906 616 
Q 2728 306 2450 153 
Q 2172 0 1784 0 
Q 1141 0 747 490 
Q 353 981 353 1791 
Q 353 2603 747 3093 
Q 1141 3584 1784 3584 
Q 2172 3584 2450 3431 
Q 2728 3278 2906 2969 
L 2906 3500 
L 3481 3500 
L 3481 434 
z
" id="DejaVuSans-67" transform="scale(0.015625)"/>
      <path d="M 2194 1759 
Q 1497 1759 1228 1600 
Q 959 1441 959 1056 
Q 959 750 1161 570 
Q 1363 391 1709 391 
Q 2188 391 2477 730 
Q 2766 1069 2766 1631 
L 2766 1759 
L 2194 1759 
z
M 3341 1997 
L 3341 0 
L 2766 0 
L 2766 531 
Q 2569 213 2275 61 
Q 1981 -91 1556 -91 
Q 1019 -91 701 211 
Q 384 513 384 1019 
Q 384 1609 779 1909 
Q 1175 2209 1959 2209 
L 2766 2209 
L 2766 2266 
Q 2766 2663 2505 2880 
Q 2244 3097 1772 3097 
Q 1472 3097 1187 3025 
Q 903 2953 641 2809 
L 641 3341 
Q 956 3463 1253 3523 
Q 1550 3584 1831 3584 
Q 2591 3584 2966 3190 
Q 3341 2797 3341 1997 
z
" id="DejaVuSans-61" transform="scale(0.015625)"/>
     </defs>
     <use xlink:href="#DejaVuSans-46"/>
     <use x="50.269531" xlink:href="#DejaVuSans-72"/>
     <use x="89.132812" xlink:href="#DejaVuSans-6f"/>
     <use x="150.314453" xlink:href="#DejaVuSans-6e"/>
     <use x="213.693359" xlink:href="#DejaVuSans-74"/>
     <use x="252.902344" xlink:href="#DejaVuSans-20"/>
     <use x="284.689453" xlink:href="#DejaVuSans-50"/>
     <use x="343.242188" xlink:href="#DejaVuSans-72"/>
     <use x="382.105469" xlink:href="#DejaVuSans-6f"/>
     <use x="443.287109" xlink:href="#DejaVuSans-70"/>
     <use x="506.763672" xlink:href="#DejaVuSans-6f"/>
     <use x="567.945312" xlink:href="#DejaVuSans-67"/>
     <use x="631.421875" xlink:href="#DejaVuSans-61"/>
     <use x="692.701172" xlink:href="#DejaVuSans-74"/>
     <use x="731.910156" xlink:href="#DejaVuSans-69"/>
     <use x="759.693359" xlink:href="#DejaVuSans-6f"/>
     <use x="820.875" xlink:href="#DejaVuSans-6e"/>
     <use x="884.253906" xlink:href="#DejaVuSans-20"/>
     <use x="916.041016" xlink:href="#DejaVuSans-53"/>
     <use x="979.517578" xlink:href="#DejaVuSans-70"/>
     <use x="1042.994141" xlink:href="#DejaVuSans-65"/>
     <use x="1104.517578" xlink:href="#DejaVuSans-65"/>
     <use x="1166.041016" xlink:href="#DejaVuSans-64"/>
    </g>
   </g>
   <g id="legend_1">
    <g id="patch_7">
     <path d="M 325.967812 111.175687 
L 508.6 111.175687 
Q 511.4 111.175687 511.4 108.375687 
L 511.4 53 
Q 511.4 50.2 508.6 50.2 
L 325.967812 50.2 
Q 323.167812 50.2 323.167812 53 
L 323.167812 108.375687 
Q 323.167812 111.175687 325.967812 111.175687 
z
" style="fill:#ffffff;opacity:0.8;stroke:#cccccc;stroke-linejoin:miter;"/>
    </g>
    <g id="line2d_16">
     <path d="M 328.767812 61.537812 
L 356.767812 61.537812 
" style="fill:none;stroke:#ff0000;stroke-linecap:square;stroke-width:2;"/>
    </g>
    <g id="line2d_17"/>
    <g id="text_17">
     <!-- Front speed -->
     <g transform="translate(367.967812 66.437812)scale(0.14 -0.14)">
      <use xlink:href="#DejaVuSans-46"/>
      <use x="50.269531" xlink:href="#DejaVuSans-72"/>
      <use x="89.132812" xlink:href="#DejaVuSans-6f"/>
      <use x="150.314453" xlink:href="#DejaVuSans-6e"/>
      <use x="213.693359" xlink:href="#DejaVuSans-74"/>
      <use x="252.902344" xlink:href="#DejaVuSans-20"/>
      <use x="284.689453" xlink:href="#DejaVuSans-73"/>
      <use x="336.789062" xlink:href="#DejaVuSans-70"/>
      <use x="400.265625" xlink:href="#DejaVuSans-65"/>
      <use x="461.789062" xlink:href="#DejaVuSans-65"/>
      <use x="523.3125" xlink:href="#DejaVuSans-64"/>
     </g>
    </g>
    <g id="line2d_18">
     <path d="M 328.767812 91.381437 
L 356.767812 91.381437 
" style="fill:none;stroke:#000000;stroke-dasharray:5.55,2.4;stroke-dashoffset:0;stroke-width:1.5;"/>
    </g>
    <g id="line2d_19"/>
    <g id="text_18">
     <!-- Steady state -->
     <g transform="translate(367.967812 86.987187)scale(0.14 -0.14)">
      <defs>
       <path d="M 2059 -325 
Q 1816 -950 1584 -1140 
Q 1353 -1331 966 -1331 
L 506 -1331 
L 506 -850 
L 844 -850 
Q 1081 -850 1212 -737 
Q 1344 -625 1503 -206 
L 1606 56 
L 191 3500 
L 800 3500 
L 1894 763 
L 2988 3500 
L 3597 3500 
L 2059 -325 
z
" id="DejaVuSans-79" transform="scale(0.015625)"/>
      </defs>
      <use xlink:href="#DejaVuSans-53"/>
      <use x="63.476562" xlink:href="#DejaVuSans-74"/>
      <use x="102.685547" xlink:href="#DejaVuSans-65"/>
      <use x="164.208984" xlink:href="#DejaVuSans-61"/>
      <use x="225.488281" xlink:href="#DejaVuSans-64"/>
      <use x="288.964844" xlink:href="#DejaVuSans-79"/>
      <use x="348.144531" xlink:href="#DejaVuSans-20"/>
      <use x="379.931641" xlink:href="#DejaVuSans-73"/>
      <use x="432.03125" xlink:href="#DejaVuSans-74"/>
      <use x="471.240234" xlink:href="#DejaVuSans-61"/>
      <use x="532.519531" xlink:href="#DejaVuSans-74"/>
      <use x="571.728516" xlink:href="#DejaVuSans-65"/>
     </g>
     <!-- speed = 1.13 mm/s -->
     <g transform="translate(367.967812 102.664125)scale(0.14 -0.14)">
      <defs>
       <path d="M 678 2906 
L 4684 2906 
L 4684 2381 
L 678 2381 
L 678 2906 
z
M 678 1631 
L 4684 1631 
L 4684 1100 
L 678 1100 
L 678 1631 
z
" id="DejaVuSans-3d" transform="scale(0.015625)"/>
       <path d="M 2597 2516 
Q 3050 2419 3304 2112 
Q 3559 1806 3559 1356 
Q 3559 666 3084 287 
Q 2609 -91 1734 -91 
Q 1441 -91 1130 -33 
Q 819 25 488 141 
L 488 750 
Q 750 597 1062 519 
Q 1375 441 1716 441 
Q 2309 441 2620 675 
Q 2931 909 2931 1356 
Q 2931 1769 2642 2001 
Q 2353 2234 1838 2234 
L 1294 2234 
L 1294 2753 
L 1863 2753 
Q 2328 2753 2575 2939 
Q 2822 3125 2822 3475 
Q 2822 3834 2567 4026 
Q 2313 4219 1838 4219 
Q 1578 4219 1281 4162 
Q 984 4106 628 3988 
L 628 4550 
Q 988 4650 1302 4700 
Q 1616 4750 1894 4750 
Q 2613 4750 3031 4423 
Q 3450 4097 3450 3541 
Q 3450 3153 3228 2886 
Q 3006 2619 2597 2516 
z
" id="DejaVuSans-33" transform="scale(0.015625)"/>
      </defs>
      <use xlink:href="#DejaVuSans-73"/>
      <use x="52.099609" xlink:href="#DejaVuSans-70"/>
      <use x="115.576172" xlink:href="#DejaVuSans-65"/>
      <use x="177.099609" xlink:href="#DejaVuSans-65"/>
      <use x="238.623047" xlink:href="#DejaVuSans-64"/>
      <use x="302.099609" xlink:href="#DejaVuSans-20"/>
      <use x="333.886719" xlink:href="#DejaVuSans-3d"/>
      <use x="417.675781" xlink:href="#DejaVuSans-20"/>
      <use x="449.462891" xlink:href="#DejaVuSans-31"/>
      <use x="513.085938" xlink:href="#DejaVuSans-2e"/>
      <use x="544.873047" xlink:href="#DejaVuSans-31"/>
      <use x="608.496094" xlink:href="#DejaVuSans-33"/>
      <use x="672.119141" xlink:href="#DejaVuSans-20"/>
      <use x="703.90625" xlink:href="#DejaVuSans-6d"/>
      <use x="801.318359" xlink:href="#DejaVuSans-6d"/>
      <use x="898.730469" xlink:href="#DejaVuSans-2f"/>
      <use x="932.421875" xlink:href="#DejaVuSans-73"/>
     </g>
    </g>
   </g>
  </g>
 </g>
 <defs>
  <clipPath id="p5dbfd70e29">
   <rect height="277.2" width="446.4" x="72" y="43.2"/>
  </clipPath>
 </defs>
</svg>
