<?xml version="1.0" encoding="utf-8" standalone="no"?>
<!DOCTYPE svg PUBLIC "-//W3C//DTD SVG 1.1//EN"
  "http://www.w3.org/Graphics/SVG/1.1/DTD/svg11.dtd">
<svg height="360pt" version="1.1" viewBox="0 0 576 360" width="576pt" xmlns="http://www.w3.org/2000/svg" xmlns:xlink="http://www.w3.org/1999/xlink">
 <metadata>
  <rdf:RDF xmlns:cc="http://creativecommons.org/ns#" xmlns:dc="http://purl.org/dc/elements/1.1/" xmlns:rdf="http://www.w3.org/1999/02/22-rdf-syntax-ns#">
   <cc:Work>
    <dc:type rdf:resource="http://purl.org/dc/dcmitype/StillImage"/>
    <dc:date>2022-06-30T14:42:58.390290</dc:date>
    <dc:format>image/svg+xml</dc:format>
    <dc:creator>
     <cc:Agent>
      <dc:title>Matplotlib v3.4.3, https://matplotlib.org/</dc:title>
     </cc:Agent>
    </dc:creator>
   </cc:Work>
  </rdf:RDF>
 </metadata>
 <defs>
  <style type="text/css">*{stroke-linecap:butt;stroke-linejoin:round;}</style>
 </defs>
 <g id="figure_1">
  <g id="patch_1">
   <path d="M 0 360 
L 576 360 
L 576 0 
L 0 0 
z
" style="fill:#ffffff;"/>
  </g>
  <g id="axes_1">
   <g id="patch_2">
    <path d="M 72 320.4 
L 518.4 320.4 
L 518.4 43.2 
L 72 43.2 
z
" style="fill:#ffffff;"/>
   </g>
   <g id="PolyCollection_1">
    <defs>
     <path d="M 72 -170.65378 
L 72 -177.135309 
L 72.621727 -177.135309 
L 73.243454 -177.135309 
L 73.865181 -177.135309 
L 74.486908 -177.135309 
L 75.108635 -177.135309 
L 75.730362 -177.135309 
L 76.352089 -177.135309 
L 76.973816 -177.135309 
L 77.595543 -177.135309 
L 78.21727 -177.135309 
L 78.838997 -177.135309 
L 79.460724 -177.135309 
L 80.082451 -177.135309 
L 80.704178 -177.135309 
L 81.325905 -177.135309 
L 81.947632 -177.135309 
L 82.569359 -177.135309 
L 83.191086 -177.135309 
L 83.812813 -177.135309 
L 84.43454 -177.135309 
L 85.056267 -177.135309 
L 85.677994 -177.135309 
L 86.299721 -177.135309 
L 86.921448 -177.135309 
L 87.543175 -177.135309 
L 88.164903 -177.135309 
L 88.78663 -177.135309 
L 89.408357 -177.135309 
L 90.030084 -177.135309 
L 90.651811 -177.135309 
L 91.273538 -177.135309 
L 91.895265 -177.135309 
L 92.516992 -177.135309 
L 93.138719 -177.135309 
L 93.760446 -177.135309 
L 94.382173 -177.135309 
L 95.0039 -177.135309 
L 95.625627 -177.135309 
L 96.247354 -177.135309 
L 96.869081 -177.135309 
L 97.490808 -177.135309 
L 98.112535 -177.135309 
L 98.734262 -177.135309 
L 99.355989 -177.135309 
L 99.977716 -177.135309 
L 100.599443 -177.135309 
L 101.22117 -177.135309 
L 101.842897 -177.135309 
L 102.464624 -177.135309 
L 103.086351 -177.135309 
L 103.708078 -177.135309 
L 104.329805 -177.135309 
L 104.951532 -177.135309 
L 105.573259 -177.135309 
L 106.194986 -177.135309 
L 106.816713 -177.135309 
L 107.43844 -177.135309 
L 108.060167 -177.135309 
L 108.681894 -177.135309 
L 109.303621 -177.135309 
L 109.925348 -177.135309 
L 110.547075 -177.135309 
L 111.168802 -177.135309 
L 111.790529 -177.135309 
L 112.412256 -177.135309 
L 113.033983 -177.135309 
L 113.65571 -177.135309 
L 114.277437 -177.135309 
L 114.899164 -177.135309 
L 115.520891 -177.135309 
L 116.142618 -177.135309 
L 116.764345 -177.135309 
L 117.386072 -177.135309 
L 118.007799 -177.135309 
L 118.629526 -177.135309 
L 119.251253 -177.135309 
L 119.872981 -177.135309 
L 120.494708 -177.135309 
L 121.116435 -177.135309 
L 121.738162 -177.135309 
L 122.359889 -177.135309 
L 122.981616 -177.135309 
L 123.603343 -177.135309 
L 124.22507 -177.135309 
L 124.846797 -177.135309 
L 125.468524 -177.135309 
L 126.090251 -177.135309 
L 126.711978 -177.135309 
L 127.333705 -177.135309 
L 127.955432 -177.135309 
L 128.577159 -177.135309 
L 129.198886 -177.135309 
L 129.820613 -177.135309 
L 130.44234 -177.135309 
L 131.064067 -177.135309 
L 131.685794 -177.135309 
L 132.307521 -177.135309 
L 132.929248 -177.135309 
L 133.550975 -177.135309 
L 134.172702 -177.135309 
L 134.794429 -177.135309 
L 135.416156 -177.135309 
L 136.037883 -177.135309 
L 136.65961 -177.135309 
L 137.281337 -177.135309 
L 137.903064 -177.135309 
L 138.524791 -177.135309 
L 139.146518 -177.135309 
L 139.768245 -177.135309 
L 140.389972 -177.135309 
L 141.011699 -177.135309 
L 141.633426 -177.135309 
L 142.255153 -177.135309 
L 142.87688 -177.135309 
L 143.498607 -177.135309 
L 144.120334 -177.135309 
L 144.742061 -177.135309 
L 145.363788 -177.135309 
L 145.985515 -177.135309 
L 146.607242 -177.135309 
L 147.228969 -177.135309 
L 147.850696 -177.135309 
L 148.472423 -177.135309 
L 149.09415 -177.135309 
L 149.715877 -177.135309 
L 150.337604 -177.135309 
L 150.959331 -177.135309 
L 151.581058 -177.135309 
L 152.202786 -177.135309 
L 152.824513 -177.135309 
L 153.44624 -177.135309 
L 154.067967 -177.135309 
L 154.689694 -177.135309 
L 155.311421 -177.135309 
L 155.933148 -177.135309 
L 156.554875 -177.135309 
L 157.176602 -177.135309 
L 157.798329 -177.135309 
L 158.420056 -177.135309 
L 159.041783 -177.135309 
L 159.66351 -177.135309 
L 160.285237 -177.135309 
L 160.906964 -177.135309 
L 161.528691 -177.135309 
L 162.150418 -177.135309 
L 162.772145 -177.135309 
L 163.393872 -177.135309 
L 164.015599 -177.135309 
L 164.637326 -177.135309 
L 165.259053 -177.135309 
L 165.88078 -177.135309 
L 166.502507 -177.135309 
L 167.124234 -177.135309 
L 167.745961 -177.135309 
L 168.367688 -177.135309 
L 168.989415 -177.135309 
L 169.611142 -177.135309 
L 170.232869 -177.135309 
L 170.854596 -177.135309 
L 171.476323 -177.135309 
L 172.09805 -177.135309 
L 172.719777 -177.135309 
L 173.341504 -177.135309 
L 173.963231 -177.135309 
L 174.584958 -177.135309 
L 175.206685 -177.135309 
L 175.828412 -177.135309 
L 176.450139 -177.135309 
L 177.071866 -177.135309 
L 177.693593 -177.135309 
L 178.31532 -177.135309 
L 178.937047 -177.135309 
L 179.558774 -177.135309 
L 180.180501 -177.135309 
L 180.802228 -177.135309 
L 181.423955 -177.135309 
L 182.045682 -177.135309 
L 182.667409 -177.135309 
L 183.289136 -177.135309 
L 183.910864 -177.135309 
L 184.532591 -177.135309 
L 185.154318 -177.135309 
L 185.776045 -177.135309 
L 186.397772 -177.135309 
L 187.019499 -177.135309 
L 187.641226 -177.135309 
L 188.262953 -177.135309 
L 188.88468 -177.135309 
L 189.506407 -177.135309 
L 190.128134 -177.135309 
L 190.749861 -177.135309 
L 191.371588 -177.135309 
L 191.993315 -177.135309 
L 192.615042 -177.135309 
L 193.236769 -177.135309 
L 193.858496 -177.135309 
L 194.480223 -177.135309 
L 195.10195 -177.135309 
L 195.723677 -177.135309 
L 196.345404 -177.135309 
L 196.967131 -177.135309 
L 197.588858 -177.135309 
L 198.210585 -177.135309 
L 198.832312 -177.135309 
L 199.454039 -177.135309 
L 200.075766 -177.135309 
L 200.697493 -177.135309 
L 201.31922 -177.135309 
L 201.940947 -177.135309 
L 202.562674 -177.135309 
L 203.184401 -177.135309 
L 203.806128 -177.135309 
L 204.427855 -177.135309 
L 205.049582 -177.135309 
L 205.671309 -177.135309 
L 206.293036 -177.135309 
L 206.914763 -177.135309 
L 207.53649 -177.135309 
L 208.158217 -177.135309 
L 208.779944 -177.135309 
L 209.401671 -177.135309 
L 210.023398 -177.135309 
L 210.645125 -177.135309 
L 211.266852 -177.135309 
L 211.888579 -177.135309 
L 212.510306 -177.135309 
L 213.132033 -177.135309 
L 213.75376 -177.135309 
L 214.375487 -177.135309 
L 214.997214 -177.135309 
L 215.618942 -177.135309 
L 216.240669 -177.135309 
L 216.862396 -177.135309 
L 217.484123 -177.135309 
L 218.10585 -177.135309 
L 218.727577 -177.135309 
L 219.349304 -177.135309 
L 219.971031 -177.135309 
L 220.592758 -177.135309 
L 221.214485 -177.135309 
L 221.836212 -177.135309 
L 222.457939 -177.135309 
L 223.079666 -177.135309 
L 223.701393 -177.135309 
L 224.32312 -177.135309 
L 224.944847 -177.135309 
L 225.566574 -177.135309 
L 226.188301 -177.135309 
L 226.810028 -177.135309 
L 227.431755 -177.135309 
L 228.053482 -177.135309 
L 228.675209 -177.135309 
L 229.296936 -177.135309 
L 229.918663 -177.135309 
L 230.54039 -177.135309 
L 231.162117 -177.135309 
L 231.783844 -177.135309 
L 232.405571 -177.135309 
L 233.027298 -177.135309 
L 233.649025 -177.135309 
L 234.270752 -177.135309 
L 234.892479 -177.135309 
L 235.514206 -177.135309 
L 236.135933 -177.135309 
L 236.75766 -177.135309 
L 237.379387 -177.135309 
L 238.001114 -177.135309 
L 238.622841 -177.135309 
L 239.244568 -177.135309 
L 239.866295 -177.135309 
L 240.488022 -177.135309 
L 241.109749 -177.135309 
L 241.731476 -177.135309 
L 242.353203 -177.135309 
L 242.97493 -177.135309 
L 243.596657 -177.135309 
L 244.218384 -177.135309 
L 244.840111 -177.135309 
L 245.461838 -177.135309 
L 246.083565 -177.135309 
L 246.705292 -177.135309 
L 247.327019 -177.135309 
L 247.948747 -177.135309 
L 248.570474 -177.135309 
L 249.192201 -177.135309 
L 249.813928 -177.135309 
L 250.435655 -177.135309 
L 251.057382 -177.135309 
L 251.679109 -177.135309 
L 252.300836 -177.135309 
L 252.922563 -177.135309 
L 253.54429 -177.135309 
L 254.166017 -177.135309 
L 254.787744 -177.135309 
L 255.409471 -177.135309 
L 256.031198 -177.135309 
L 256.652925 -177.135309 
L 257.274652 -177.135309 
L 257.896379 -177.135309 
L 258.518106 -177.135309 
L 259.139833 -177.135309 
L 259.76156 -177.135309 
L 260.383287 -177.135309 
L 261.005014 -177.135309 
L 261.626741 -177.135309 
L 262.248468 -177.135309 
L 262.870195 -177.135309 
L 263.491922 -177.135309 
L 264.113649 -177.135309 
L 264.735376 -177.135309 
L 265.357103 -177.135309 
L 265.97883 -177.135309 
L 266.600557 -177.135309 
L 267.222284 -177.135309 
L 267.844011 -177.135309 
L 268.465738 -177.135309 
L 269.087465 -177.135309 
L 269.709192 -177.135309 
L 270.330919 -177.135309 
L 270.952646 -177.135309 
L 271.574373 -177.135309 
L 272.1961 -177.135309 
L 272.817827 -177.135309 
L 273.439554 -177.135309 
L 274.061281 -177.135309 
L 274.683008 -177.135309 
L 275.304735 -177.135309 
L 275.926462 -177.135309 
L 276.548189 -177.135309 
L 277.169916 -177.135309 
L 277.791643 -177.135309 
L 278.41337 -177.135309 
L 279.035097 -177.135309 
L 279.656825 -177.135309 
L 280.278552 -177.135309 
L 280.900279 -177.135309 
L 281.522006 -177.135309 
L 282.143733 -177.135309 
L 282.76546 -177.135309 
L 283.387187 -177.135309 
L 284.008914 -177.135309 
L 284.630641 -177.135309 
L 285.252368 -177.135309 
L 285.874095 -177.135309 
L 286.495822 -177.135309 
L 287.117549 -177.135309 
L 287.739276 -177.135309 
L 288.361003 -177.135309 
L 288.98273 -177.135309 
L 289.604457 -177.135309 
L 290.226184 -177.135309 
L 290.847911 -177.135309 
L 291.469638 -177.135309 
L 292.091365 -177.135309 
L 292.713092 -177.135309 
L 293.334819 -177.135309 
L 293.956546 -177.135309 
L 294.578273 -177.135309 
L 295.2 -177.135309 
L 295.821727 -177.135309 
L 296.443454 -177.135309 
L 297.065181 -177.135309 
L 297.686908 -177.135309 
L 298.308635 -177.135309 
L 298.930362 -177.135309 
L 299.552089 -177.135309 
L 300.173816 -177.135309 
L 300.795543 -177.135309 
L 301.41727 -177.135309 
L 302.038997 -177.135309 
L 302.660724 -177.135309 
L 303.282451 -177.135309 
L 303.904178 -177.135309 
L 304.525905 -177.135309 
L 305.147632 -177.135309 
L 305.769359 -177.135309 
L 306.391086 -177.135309 
L 307.012813 -177.135309 
L 307.63454 -177.135309 
L 308.256267 -177.135309 
L 308.877994 -177.135309 
L 309.499721 -177.135309 
L 310.121448 -177.135309 
L 310.743175 -177.135309 
L 311.364903 -177.135309 
L 311.98663 -177.135309 
L 312.608357 -177.135309 
L 313.230084 -177.135309 
L 313.851811 -177.135309 
L 314.473538 -177.135309 
L 315.095265 -177.135309 
L 315.716992 -177.135309 
L 316.338719 -177.135309 
L 316.960446 -177.135309 
L 317.582173 -177.135309 
L 318.2039 -177.135309 
L 318.825627 -177.135309 
L 319.447354 -177.135309 
L 320.069081 -177.135309 
L 320.690808 -177.135309 
L 321.312535 -177.135309 
L 321.934262 -177.135309 
L 322.555989 -177.135309 
L 323.177716 -177.135309 
L 323.799443 -177.135309 
L 324.42117 -177.135309 
L 325.042897 -177.135309 
L 325.664624 -177.135309 
L 326.286351 -177.135309 
L 326.908078 -177.135309 
L 327.529805 -177.135309 
L 328.151532 -177.135309 
L 328.773259 -177.135309 
L 329.394986 -177.135309 
L 330.016713 -177.135309 
L 330.63844 -177.135309 
L 331.260167 -177.135309 
L 331.881894 -177.135309 
L 332.503621 -177.135309 
L 333.125348 -177.135309 
L 333.747075 -177.135309 
L 334.368802 -177.135309 
L 334.990529 -177.135309 
L 335.612256 -177.135309 
L 336.233983 -177.135309 
L 336.85571 -177.135309 
L 337.477437 -177.135309 
L 338.099164 -177.135309 
L 338.720891 -177.135309 
L 339.342618 -177.135309 
L 339.964345 -177.135309 
L 340.586072 -177.135309 
L 341.207799 -177.135309 
L 341.829526 -177.135309 
L 342.451253 -177.135309 
L 343.072981 -177.135309 
L 343.694708 -177.135309 
L 344.316435 -177.135309 
L 344.938162 -177.135309 
L 345.559889 -177.135309 
L 346.181616 -177.135309 
L 346.803343 -177.135309 
L 347.42507 -177.135309 
L 348.046797 -177.135309 
L 348.668524 -177.135309 
L 349.290251 -177.135309 
L 349.911978 -177.135309 
L 350.533705 -177.135309 
L 351.155432 -177.135309 
L 351.777159 -177.135309 
L 352.398886 -177.135309 
L 353.020613 -177.135309 
L 353.64234 -177.135309 
L 354.264067 -177.135309 
L 354.885794 -177.135309 
L 355.507521 -177.135309 
L 356.129248 -177.135309 
L 356.750975 -177.135309 
L 357.372702 -177.135309 
L 357.994429 -177.135309 
L 358.616156 -177.135309 
L 359.237883 -177.135309 
L 359.85961 -177.135309 
L 360.481337 -177.135309 
L 361.103064 -177.135309 
L 361.724791 -177.135309 
L 362.346518 -177.135309 
L 362.968245 -177.135309 
L 363.589972 -177.135309 
L 364.211699 -177.135309 
L 364.833426 -177.135309 
L 365.455153 -177.135309 
L 366.07688 -177.135309 
L 366.698607 -177.135309 
L 367.320334 -177.135309 
L 367.942061 -177.135309 
L 368.563788 -177.135309 
L 369.185515 -177.135309 
L 369.807242 -177.135309 
L 370.428969 -177.135309 
L 371.050696 -177.135309 
L 371.672423 -177.135309 
L 372.29415 -177.135309 
L 372.915877 -177.135309 
L 373.537604 -177.135309 
L 374.159331 -177.135309 
L 374.781058 -177.135309 
L 375.402786 -177.135309 
L 376.024513 -177.135309 
L 376.64624 -177.135309 
L 377.267967 -177.135309 
L 377.889694 -177.135309 
L 378.511421 -177.135309 
L 379.133148 -177.135309 
L 379.754875 -177.135309 
L 380.376602 -177.135309 
L 380.998329 -177.135309 
L 381.620056 -177.135309 
L 382.241783 -177.135309 
L 382.86351 -177.135309 
L 383.485237 -177.135309 
L 384.106964 -177.135309 
L 384.728691 -177.135309 
L 385.350418 -177.135309 
L 385.972145 -177.135309 
L 386.593872 -177.135309 
L 387.215599 -177.135309 
L 387.837326 -177.135309 
L 388.459053 -177.135309 
L 389.08078 -177.135309 
L 389.702507 -177.135309 
L 390.324234 -177.135309 
L 390.945961 -177.135309 
L 391.567688 -177.135309 
L 392.189415 -177.135309 
L 392.811142 -177.135309 
L 393.432869 -177.135309 
L 394.054596 -177.135309 
L 394.676323 -177.135309 
L 395.29805 -177.135309 
L 395.919777 -177.135309 
L 396.541504 -177.135309 
L 397.163231 -177.135309 
L 397.784958 -177.135309 
L 398.406685 -177.135309 
L 399.028412 -177.135309 
L 399.650139 -177.135309 
L 400.271866 -177.135309 
L 400.893593 -177.135309 
L 401.51532 -177.135309 
L 402.137047 -177.135309 
L 402.758774 -177.135309 
L 403.380501 -177.135309 
L 404.002228 -177.135309 
L 404.623955 -177.135309 
L 405.245682 -177.135309 
L 405.867409 -177.135309 
L 406.489136 -177.135309 
L 407.110864 -177.135309 
L 407.732591 -177.135309 
L 408.354318 -177.135309 
L 408.976045 -177.135309 
L 409.597772 -177.135309 
L 410.219499 -177.135309 
L 410.841226 -177.135309 
L 411.462953 -177.135309 
L 412.08468 -177.135309 
L 412.706407 -177.135309 
L 413.328134 -177.135309 
L 413.949861 -177.135309 
L 414.571588 -177.135309 
L 415.193315 -177.135309 
L 415.815042 -177.135309 
L 416.436769 -177.135309 
L 417.058496 -177.135309 
L 417.680223 -177.135309 
L 418.30195 -177.135309 
L 418.923677 -177.135309 
L 419.545404 -177.135309 
L 420.167131 -177.135309 
L 420.788858 -177.135309 
L 421.410585 -177.135309 
L 422.032312 -177.135309 
L 422.654039 -177.135309 
L 423.275766 -177.135309 
L 423.897493 -177.135309 
L 424.51922 -177.135309 
L 425.140947 -177.135309 
L 425.762674 -177.135309 
L 426.384401 -177.135309 
L 427.006128 -177.135309 
L 427.627855 -177.135309 
L 428.249582 -177.135309 
L 428.871309 -177.135309 
L 429.493036 -177.135309 
L 430.114763 -177.135309 
L 430.73649 -177.135309 
L 431.358217 -177.135309 
L 431.979944 -177.135309 
L 432.601671 -177.135309 
L 433.223398 -177.135309 
L 433.845125 -177.135309 
L 434.466852 -177.135309 
L 435.088579 -177.135309 
L 435.710306 -177.135309 
L 436.332033 -177.135309 
L 436.95376 -177.135309 
L 437.575487 -177.135309 
L 438.197214 -177.135309 
L 438.818942 -177.135309 
L 439.440669 -177.135309 
L 440.062396 -177.135309 
L 440.684123 -177.135309 
L 441.30585 -177.135309 
L 441.927577 -177.135309 
L 442.549304 -177.135309 
L 443.171031 -177.135309 
L 443.792758 -177.135309 
L 444.414485 -177.135309 
L 445.036212 -177.135309 
L 445.657939 -177.135309 
L 446.279666 -177.135309 
L 446.901393 -177.135309 
L 447.52312 -177.135309 
L 448.144847 -177.135309 
L 448.766574 -177.135309 
L 449.388301 -177.135309 
L 450.010028 -177.135309 
L 450.631755 -177.135309 
L 451.253482 -177.135309 
L 451.875209 -177.135309 
L 452.496936 -177.135309 
L 453.118663 -177.135309 
L 453.74039 -177.135309 
L 454.362117 -177.135309 
L 454.983844 -177.135309 
L 455.605571 -177.135309 
L 456.227298 -177.135309 
L 456.849025 -177.135309 
L 457.470752 -177.135309 
L 458.092479 -177.135309 
L 458.714206 -177.135309 
L 459.335933 -177.135309 
L 459.95766 -177.135309 
L 460.579387 -177.135309 
L 461.201114 -177.135309 
L 461.822841 -177.135309 
L 462.444568 -177.135309 
L 463.066295 -177.135309 
L 463.688022 -177.135309 
L 464.309749 -177.135309 
L 464.931476 -177.135309 
L 465.553203 -177.135309 
L 466.17493 -177.135309 
L 466.796657 -177.135309 
L 467.418384 -177.135309 
L 468.040111 -177.135309 
L 468.661838 -177.135309 
L 469.283565 -177.135309 
L 469.905292 -177.135309 
L 470.527019 -177.135309 
L 471.148747 -177.135309 
L 471.770474 -177.135309 
L 472.392201 -177.135309 
L 473.013928 -177.135309 
L 473.635655 -177.135309 
L 474.257382 -177.135309 
L 474.879109 -177.135309 
L 475.500836 -177.135309 
L 476.122563 -177.135309 
L 476.74429 -177.135309 
L 477.366017 -177.135309 
L 477.987744 -177.135309 
L 478.609471 -177.135309 
L 479.231198 -177.135309 
L 479.852925 -177.135309 
L 480.474652 -177.135309 
L 481.096379 -177.135309 
L 481.718106 -177.135309 
L 482.339833 -177.135309 
L 482.96156 -177.135309 
L 483.583287 -177.135309 
L 484.205014 -177.135309 
L 484.826741 -177.135309 
L 485.448468 -177.135309 
L 486.070195 -177.135309 
L 486.691922 -177.135309 
L 487.313649 -177.135309 
L 487.935376 -177.135309 
L 488.557103 -177.135309 
L 489.17883 -177.135309 
L 489.800557 -177.135309 
L 490.422284 -177.135309 
L 491.044011 -177.135309 
L 491.665738 -177.135309 
L 492.287465 -177.135309 
L 492.909192 -177.135309 
L 493.530919 -177.135309 
L 494.152646 -177.135309 
L 494.774373 -177.135309 
L 495.3961 -177.135309 
L 496.017827 -177.135309 
L 496.639554 -177.135309 
L 497.261281 -177.135309 
L 497.883008 -177.135309 
L 498.504735 -177.135309 
L 499.126462 -177.135309 
L 499.748189 -177.135309 
L 500.369916 -177.135309 
L 500.991643 -177.135309 
L 501.61337 -177.135309 
L 502.235097 -177.135309 
L 502.856825 -177.135309 
L 503.478552 -177.135309 
L 504.100279 -177.135309 
L 504.722006 -177.135309 
L 505.343733 -177.135309 
L 505.96546 -177.135309 
L 506.587187 -177.135309 
L 507.208914 -177.135309 
L 507.830641 -177.135309 
L 508.452368 -177.135309 
L 509.074095 -177.135309 
L 509.695822 -177.135309 
L 510.317549 -177.135309 
L 510.939276 -177.135309 
L 511.561003 -177.135309 
L 512.18273 -177.135309 
L 512.804457 -177.135309 
L 513.426184 -177.135309 
L 514.047911 -177.135309 
L 514.669638 -177.135309 
L 515.291365 -177.135309 
L 515.913092 -177.135309 
L 516.534819 -177.135309 
L 517.156546 -177.135309 
L 517.778273 -177.135309 
L 518.4 -177.135309 
L 518.4 -170.65378 
L 518.4 -170.65378 
L 517.778273 -170.65378 
L 517.156546 -170.65378 
L 516.534819 -170.65378 
L 515.913092 -170.65378 
L 515.291365 -170.65378 
L 514.669638 -170.65378 
L 514.047911 -170.65378 
L 513.426184 -170.65378 
L 512.804457 -170.65378 
L 512.18273 -170.65378 
L 511.561003 -170.65378 
L 510.939276 -170.65378 
L 510.317549 -170.65378 
L 509.695822 -170.65378 
L 509.074095 -170.65378 
L 508.452368 -170.65378 
L 507.830641 -170.65378 
L 507.208914 -170.65378 
L 506.587187 -170.65378 
L 505.96546 -170.65378 
L 505.343733 -170.65378 
L 504.722006 -170.65378 
L 504.100279 -170.65378 
L 503.478552 -170.65378 
L 502.856825 -170.65378 
L 502.235097 -170.65378 
L 501.61337 -170.65378 
L 500.991643 -170.65378 
L 500.369916 -170.65378 
L 499.748189 -170.65378 
L 499.126462 -170.65378 
L 498.504735 -170.65378 
L 497.883008 -170.65378 
L 497.261281 -170.65378 
L 496.639554 -170.65378 
L 496.017827 -170.65378 
L 495.3961 -170.65378 
L 494.774373 -170.65378 
L 494.152646 -170.65378 
L 493.530919 -170.65378 
L 492.909192 -170.65378 
L 492.287465 -170.65378 
L 491.665738 -170.65378 
L 491.044011 -170.65378 
L 490.422284 -170.65378 
L 489.800557 -170.65378 
L 489.17883 -170.65378 
L 488.557103 -170.65378 
L 487.935376 -170.65378 
L 487.313649 -170.65378 
L 486.691922 -170.65378 
L 486.070195 -170.65378 
L 485.448468 -170.65378 
L 484.826741 -170.65378 
L 484.205014 -170.65378 
L 483.583287 -170.65378 
L 482.96156 -170.65378 
L 482.339833 -170.65378 
L 481.718106 -170.65378 
L 481.096379 -170.65378 
L 480.474652 -170.65378 
L 479.852925 -170.65378 
L 479.231198 -170.65378 
L 478.609471 -170.65378 
L 477.987744 -170.65378 
L 477.366017 -170.65378 
L 476.74429 -170.65378 
L 476.122563 -170.65378 
L 475.500836 -170.65378 
L 474.879109 -170.65378 
L 474.257382 -170.65378 
L 473.635655 -170.65378 
L 473.013928 -170.65378 
L 472.392201 -170.65378 
L 471.770474 -170.65378 
L 471.148747 -170.65378 
L 470.527019 -170.65378 
L 469.905292 -170.65378 
L 469.283565 -170.65378 
L 468.661838 -170.65378 
L 468.040111 -170.65378 
L 467.418384 -170.65378 
L 466.796657 -170.65378 
L 466.17493 -170.65378 
L 465.553203 -170.65378 
L 464.931476 -170.65378 
L 464.309749 -170.65378 
L 463.688022 -170.65378 
L 463.066295 -170.65378 
L 462.444568 -170.65378 
L 461.822841 -170.65378 
L 461.201114 -170.65378 
L 460.579387 -170.65378 
L 459.95766 -170.65378 
L 459.335933 -170.65378 
L 458.714206 -170.65378 
L 458.092479 -170.65378 
L 457.470752 -170.65378 
L 456.849025 -170.65378 
L 456.227298 -170.65378 
L 455.605571 -170.65378 
L 454.983844 -170.65378 
L 454.362117 -170.65378 
L 453.74039 -170.65378 
L 453.118663 -170.65378 
L 452.496936 -170.65378 
L 451.875209 -170.65378 
L 451.253482 -170.65378 
L 450.631755 -170.65378 
L 450.010028 -170.65378 
L 449.388301 -170.65378 
L 448.766574 -170.65378 
L 448.144847 -170.65378 
L 447.52312 -170.65378 
L 446.901393 -170.65378 
L 446.279666 -170.65378 
L 445.657939 -170.65378 
L 445.036212 -170.65378 
L 444.414485 -170.65378 
L 443.792758 -170.65378 
L 443.171031 -170.65378 
L 442.549304 -170.65378 
L 441.927577 -170.65378 
L 441.30585 -170.65378 
L 440.684123 -170.65378 
L 440.062396 -170.65378 
L 439.440669 -170.65378 
L 438.818942 -170.65378 
L 438.197214 -170.65378 
L 437.575487 -170.65378 
L 436.95376 -170.65378 
L 436.332033 -170.65378 
L 435.710306 -170.65378 
L 435.088579 -170.65378 
L 434.466852 -170.65378 
L 433.845125 -170.65378 
L 433.223398 -170.65378 
L 432.601671 -170.65378 
L 431.979944 -170.65378 
L 431.358217 -170.65378 
L 430.73649 -170.65378 
L 430.114763 -170.65378 
L 429.493036 -170.65378 
L 428.871309 -170.65378 
L 428.249582 -170.65378 
L 427.627855 -170.65378 
L 427.006128 -170.65378 
L 426.384401 -170.65378 
L 425.762674 -170.65378 
L 425.140947 -170.65378 
L 424.51922 -170.65378 
L 423.897493 -170.65378 
L 423.275766 -170.65378 
L 422.654039 -170.65378 
L 422.032312 -170.65378 
L 421.410585 -170.65378 
L 420.788858 -170.65378 
L 420.167131 -170.65378 
L 419.545404 -170.65378 
L 418.923677 -170.65378 
L 418.30195 -170.65378 
L 417.680223 -170.65378 
L 417.058496 -170.65378 
L 416.436769 -170.65378 
L 415.815042 -170.65378 
L 415.193315 -170.65378 
L 414.571588 -170.65378 
L 413.949861 -170.65378 
L 413.328134 -170.65378 
L 412.706407 -170.65378 
L 412.08468 -170.65378 
L 411.462953 -170.65378 
L 410.841226 -170.65378 
L 410.219499 -170.65378 
L 409.597772 -170.65378 
L 408.976045 -170.65378 
L 408.354318 -170.65378 
L 407.732591 -170.65378 
L 407.110864 -170.65378 
L 406.489136 -170.65378 
L 405.867409 -170.65378 
L 405.245682 -170.65378 
L 404.623955 -170.65378 
L 404.002228 -170.65378 
L 403.380501 -170.65378 
L 402.758774 -170.65378 
L 402.137047 -170.65378 
L 401.51532 -170.65378 
L 400.893593 -170.65378 
L 400.271866 -170.65378 
L 399.650139 -170.65378 
L 399.028412 -170.65378 
L 398.406685 -170.65378 
L 397.784958 -170.65378 
L 397.163231 -170.65378 
L 396.541504 -170.65378 
L 395.919777 -170.65378 
L 395.29805 -170.65378 
L 394.676323 -170.65378 
L 394.054596 -170.65378 
L 393.432869 -170.65378 
L 392.811142 -170.65378 
L 392.189415 -170.65378 
L 391.567688 -170.65378 
L 390.945961 -170.65378 
L 390.324234 -170.65378 
L 389.702507 -170.65378 
L 389.08078 -170.65378 
L 388.459053 -170.65378 
L 387.837326 -170.65378 
L 387.215599 -170.65378 
L 386.593872 -170.65378 
L 385.972145 -170.65378 
L 385.350418 -170.65378 
L 384.728691 -170.65378 
L 384.106964 -170.65378 
L 383.485237 -170.65378 
L 382.86351 -170.65378 
L 382.241783 -170.65378 
L 381.620056 -170.65378 
L 380.998329 -170.65378 
L 380.376602 -170.65378 
L 379.754875 -170.65378 
L 379.133148 -170.65378 
L 378.511421 -170.65378 
L 377.889694 -170.65378 
L 377.267967 -170.65378 
L 376.64624 -170.65378 
L 376.024513 -170.65378 
L 375.402786 -170.65378 
L 374.781058 -170.65378 
L 374.159331 -170.65378 
L 373.537604 -170.65378 
L 372.915877 -170.65378 
L 372.29415 -170.65378 
L 371.672423 -170.65378 
L 371.050696 -170.65378 
L 370.428969 -170.65378 
L 369.807242 -170.65378 
L 369.185515 -170.65378 
L 368.563788 -170.65378 
L 367.942061 -170.65378 
L 367.320334 -170.65378 
L 366.698607 -170.65378 
L 366.07688 -170.65378 
L 365.455153 -170.65378 
L 364.833426 -170.65378 
L 364.211699 -170.65378 
L 363.589972 -170.65378 
L 362.968245 -170.65378 
L 362.346518 -170.65378 
L 361.724791 -170.65378 
L 361.103064 -170.65378 
L 360.481337 -170.65378 
L 359.85961 -170.65378 
L 359.237883 -170.65378 
L 358.616156 -170.65378 
L 357.994429 -170.65378 
L 357.372702 -170.65378 
L 356.750975 -170.65378 
L 356.129248 -170.65378 
L 355.507521 -170.65378 
L 354.885794 -170.65378 
L 354.264067 -170.65378 
L 353.64234 -170.65378 
L 353.020613 -170.65378 
L 352.398886 -170.65378 
L 351.777159 -170.65378 
L 351.155432 -170.65378 
L 350.533705 -170.65378 
L 349.911978 -170.65378 
L 349.290251 -170.65378 
L 348.668524 -170.65378 
L 348.046797 -170.65378 
L 347.42507 -170.65378 
L 346.803343 -170.65378 
L 346.181616 -170.65378 
L 345.559889 -170.65378 
L 344.938162 -170.65378 
L 344.316435 -170.65378 
L 343.694708 -170.65378 
L 343.072981 -170.65378 
L 342.451253 -170.65378 
L 341.829526 -170.65378 
L 341.207799 -170.65378 
L 340.586072 -170.65378 
L 339.964345 -170.65378 
L 339.342618 -170.65378 
L 338.720891 -170.65378 
L 338.099164 -170.65378 
L 337.477437 -170.65378 
L 336.85571 -170.65378 
L 336.233983 -170.65378 
L 335.612256 -170.65378 
L 334.990529 -170.65378 
L 334.368802 -170.65378 
L 333.747075 -170.65378 
L 333.125348 -170.65378 
L 332.503621 -170.65378 
L 331.881894 -170.65378 
L 331.260167 -170.65378 
L 330.63844 -170.65378 
L 330.016713 -170.65378 
L 329.394986 -170.65378 
L 328.773259 -170.65378 
L 328.151532 -170.65378 
L 327.529805 -170.65378 
L 326.908078 -170.65378 
L 326.286351 -170.65378 
L 325.664624 -170.65378 
L 325.042897 -170.65378 
L 324.42117 -170.65378 
L 323.799443 -170.65378 
L 323.177716 -170.65378 
L 322.555989 -170.65378 
L 321.934262 -170.65378 
L 321.312535 -170.65378 
L 320.690808 -170.65378 
L 320.069081 -170.65378 
L 319.447354 -170.65378 
L 318.825627 -170.65378 
L 318.2039 -170.65378 
L 317.582173 -170.65378 
L 316.960446 -170.65378 
L 316.338719 -170.65378 
L 315.716992 -170.65378 
L 315.095265 -170.65378 
L 314.473538 -170.65378 
L 313.851811 -170.65378 
L 313.230084 -170.65378 
L 312.608357 -170.65378 
L 311.98663 -170.65378 
L 311.364903 -170.65378 
L 310.743175 -170.65378 
L 310.121448 -170.65378 
L 309.499721 -170.65378 
L 308.877994 -170.65378 
L 308.256267 -170.65378 
L 307.63454 -170.65378 
L 307.012813 -170.65378 
L 306.391086 -170.65378 
L 305.769359 -170.65378 
L 305.147632 -170.65378 
L 304.525905 -170.65378 
L 303.904178 -170.65378 
L 303.282451 -170.65378 
L 302.660724 -170.65378 
L 302.038997 -170.65378 
L 301.41727 -170.65378 
L 300.795543 -170.65378 
L 300.173816 -170.65378 
L 299.552089 -170.65378 
L 298.930362 -170.65378 
L 298.308635 -170.65378 
L 297.686908 -170.65378 
L 297.065181 -170.65378 
L 296.443454 -170.65378 
L 295.821727 -170.65378 
L 295.2 -170.65378 
L 294.578273 -170.65378 
L 293.956546 -170.65378 
L 293.334819 -170.65378 
L 292.713092 -170.65378 
L 292.091365 -170.65378 
L 291.469638 -170.65378 
L 290.847911 -170.65378 
L 290.226184 -170.65378 
L 289.604457 -170.65378 
L 288.98273 -170.65378 
L 288.361003 -170.65378 
L 287.739276 -170.65378 
L 287.117549 -170.65378 
L 286.495822 -170.65378 
L 285.874095 -170.65378 
L 285.252368 -170.65378 
L 284.630641 -170.65378 
L 284.008914 -170.65378 
L 283.387187 -170.65378 
L 282.76546 -170.65378 
L 282.143733 -170.65378 
L 281.522006 -170.65378 
L 280.900279 -170.65378 
L 280.278552 -170.65378 
L 279.656825 -170.65378 
L 279.035097 -170.65378 
L 278.41337 -170.65378 
L 277.791643 -170.65378 
L 277.169916 -170.65378 
L 276.548189 -170.65378 
L 275.926462 -170.65378 
L 275.304735 -170.65378 
L 274.683008 -170.65378 
L 274.061281 -170.65378 
L 273.439554 -170.65378 
L 272.817827 -170.65378 
L 272.1961 -170.65378 
L 271.574373 -170.65378 
L 270.952646 -170.65378 
L 270.330919 -170.65378 
L 269.709192 -170.65378 
L 269.087465 -170.65378 
L 268.465738 -170.65378 
L 267.844011 -170.65378 
L 267.222284 -170.65378 
L 266.600557 -170.65378 
L 265.97883 -170.65378 
L 265.357103 -170.65378 
L 264.735376 -170.65378 
L 264.113649 -170.65378 
L 263.491922 -170.65378 
L 262.870195 -170.65378 
L 262.248468 -170.65378 
L 261.626741 -170.65378 
L 261.005014 -170.65378 
L 260.383287 -170.65378 
L 259.76156 -170.65378 
L 259.139833 -170.65378 
L 258.518106 -170.65378 
L 257.896379 -170.65378 
L 257.274652 -170.65378 
L 256.652925 -170.65378 
L 256.031198 -170.65378 
L 255.409471 -170.65378 
L 254.787744 -170.65378 
L 254.166017 -170.65378 
L 253.54429 -170.65378 
L 252.922563 -170.65378 
L 252.300836 -170.65378 
L 251.679109 -170.65378 
L 251.057382 -170.65378 
L 250.435655 -170.65378 
L 249.813928 -170.65378 
L 249.192201 -170.65378 
L 248.570474 -170.65378 
L 247.948747 -170.65378 
L 247.327019 -170.65378 
L 246.705292 -170.65378 
L 246.083565 -170.65378 
L 245.461838 -170.65378 
L 244.840111 -170.65378 
L 244.218384 -170.65378 
L 243.596657 -170.65378 
L 242.97493 -170.65378 
L 242.353203 -170.65378 
L 241.731476 -170.65378 
L 241.109749 -170.65378 
L 240.488022 -170.65378 
L 239.866295 -170.65378 
L 239.244568 -170.65378 
L 238.622841 -170.65378 
L 238.001114 -170.65378 
L 237.379387 -170.65378 
L 236.75766 -170.65378 
L 236.135933 -170.65378 
L 235.514206 -170.65378 
L 234.892479 -170.65378 
L 234.270752 -170.65378 
L 233.649025 -170.65378 
L 233.027298 -170.65378 
L 232.405571 -170.65378 
L 231.783844 -170.65378 
L 231.162117 -170.65378 
L 230.54039 -170.65378 
L 229.918663 -170.65378 
L 229.296936 -170.65378 
L 228.675209 -170.65378 
L 228.053482 -170.65378 
L 227.431755 -170.65378 
L 226.810028 -170.65378 
L 226.188301 -170.65378 
L 225.566574 -170.65378 
L 224.944847 -170.65378 
L 224.32312 -170.65378 
L 223.701393 -170.65378 
L 223.079666 -170.65378 
L 222.457939 -170.65378 
L 221.836212 -170.65378 
L 221.214485 -170.65378 
L 220.592758 -170.65378 
L 219.971031 -170.65378 
L 219.349304 -170.65378 
L 218.727577 -170.65378 
L 218.10585 -170.65378 
L 217.484123 -170.65378 
L 216.862396 -170.65378 
L 216.240669 -170.65378 
L 215.618942 -170.65378 
L 214.997214 -170.65378 
L 214.375487 -170.65378 
L 213.75376 -170.65378 
L 213.132033 -170.65378 
L 212.510306 -170.65378 
L 211.888579 -170.65378 
L 211.266852 -170.65378 
L 210.645125 -170.65378 
L 210.023398 -170.65378 
L 209.401671 -170.65378 
L 208.779944 -170.65378 
L 208.158217 -170.65378 
L 207.53649 -170.65378 
L 206.914763 -170.65378 
L 206.293036 -170.65378 
L 205.671309 -170.65378 
L 205.049582 -170.65378 
L 204.427855 -170.65378 
L 203.806128 -170.65378 
L 203.184401 -170.65378 
L 202.562674 -170.65378 
L 201.940947 -170.65378 
L 201.31922 -170.65378 
L 200.697493 -170.65378 
L 200.075766 -170.65378 
L 199.454039 -170.65378 
L 198.832312 -170.65378 
L 198.210585 -170.65378 
L 197.588858 -170.65378 
L 196.967131 -170.65378 
L 196.345404 -170.65378 
L 195.723677 -170.65378 
L 195.10195 -170.65378 
L 194.480223 -170.65378 
L 193.858496 -170.65378 
L 193.236769 -170.65378 
L 192.615042 -170.65378 
L 191.993315 -170.65378 
L 191.371588 -170.65378 
L 190.749861 -170.65378 
L 190.128134 -170.65378 
L 189.506407 -170.65378 
L 188.88468 -170.65378 
L 188.262953 -170.65378 
L 187.641226 -170.65378 
L 187.019499 -170.65378 
L 186.397772 -170.65378 
L 185.776045 -170.65378 
L 185.154318 -170.65378 
L 184.532591 -170.65378 
L 183.910864 -170.65378 
L 183.289136 -170.65378 
L 182.667409 -170.65378 
L 182.045682 -170.65378 
L 181.423955 -170.65378 
L 180.802228 -170.65378 
L 180.180501 -170.65378 
L 179.558774 -170.65378 
L 178.937047 -170.65378 
L 178.31532 -170.65378 
L 177.693593 -170.65378 
L 177.071866 -170.65378 
L 176.450139 -170.65378 
L 175.828412 -170.65378 
L 175.206685 -170.65378 
L 174.584958 -170.65378 
L 173.963231 -170.65378 
L 173.341504 -170.65378 
L 172.719777 -170.65378 
L 172.09805 -170.65378 
L 171.476323 -170.65378 
L 170.854596 -170.65378 
L 170.232869 -170.65378 
L 169.611142 -170.65378 
L 168.989415 -170.65378 
L 168.367688 -170.65378 
L 167.745961 -170.65378 
L 167.124234 -170.65378 
L 166.502507 -170.65378 
L 165.88078 -170.65378 
L 165.259053 -170.65378 
L 164.637326 -170.65378 
L 164.015599 -170.65378 
L 163.393872 -170.65378 
L 162.772145 -170.65378 
L 162.150418 -170.65378 
L 161.528691 -170.65378 
L 160.906964 -170.65378 
L 160.285237 -170.65378 
L 159.66351 -170.65378 
L 159.041783 -170.65378 
L 158.420056 -170.65378 
L 157.798329 -170.65378 
L 157.176602 -170.65378 
L 156.554875 -170.65378 
L 155.933148 -170.65378 
L 155.311421 -170.65378 
L 154.689694 -170.65378 
L 154.067967 -170.65378 
L 153.44624 -170.65378 
L 152.824513 -170.65378 
L 152.202786 -170.65378 
L 151.581058 -170.65378 
L 150.959331 -170.65378 
L 150.337604 -170.65378 
L 149.715877 -170.65378 
L 149.09415 -170.65378 
L 148.472423 -170.65378 
L 147.850696 -170.65378 
L 147.228969 -170.65378 
L 146.607242 -170.65378 
L 145.985515 -170.65378 
L 145.363788 -170.65378 
L 144.742061 -170.65378 
L 144.120334 -170.65378 
L 143.498607 -170.65378 
L 142.87688 -170.65378 
L 142.255153 -170.65378 
L 141.633426 -170.65378 
L 141.011699 -170.65378 
L 140.389972 -170.65378 
L 139.768245 -170.65378 
L 139.146518 -170.65378 
L 138.524791 -170.65378 
L 137.903064 -170.65378 
L 137.281337 -170.65378 
L 136.65961 -170.65378 
L 136.037883 -170.65378 
L 135.416156 -170.65378 
L 134.794429 -170.65378 
L 134.172702 -170.65378 
L 133.550975 -170.65378 
L 132.929248 -170.65378 
L 132.307521 -170.65378 
L 131.685794 -170.65378 
L 131.064067 -170.65378 
L 130.44234 -170.65378 
L 129.820613 -170.65378 
L 129.198886 -170.65378 
L 128.577159 -170.65378 
L 127.955432 -170.65378 
L 127.333705 -170.65378 
L 126.711978 -170.65378 
L 126.090251 -170.65378 
L 125.468524 -170.65378 
L 124.846797 -170.65378 
L 124.22507 -170.65378 
L 123.603343 -170.65378 
L 122.981616 -170.65378 
L 122.359889 -170.65378 
L 121.738162 -170.65378 
L 121.116435 -170.65378 
L 120.494708 -170.65378 
L 119.872981 -170.65378 
L 119.251253 -170.65378 
L 118.629526 -170.65378 
L 118.007799 -170.65378 
L 117.386072 -170.65378 
L 116.764345 -170.65378 
L 116.142618 -170.65378 
L 115.520891 -170.65378 
L 114.899164 -170.65378 
L 114.277437 -170.65378 
L 113.65571 -170.65378 
L 113.033983 -170.65378 
L 112.412256 -170.65378 
L 111.790529 -170.65378 
L 111.168802 -170.65378 
L 110.547075 -170.65378 
L 109.925348 -170.65378 
L 109.303621 -170.65378 
L 108.681894 -170.65378 
L 108.060167 -170.65378 
L 107.43844 -170.65378 
L 106.816713 -170.65378 
L 106.194986 -170.65378 
L 105.573259 -170.65378 
L 104.951532 -170.65378 
L 104.329805 -170.65378 
L 103.708078 -170.65378 
L 103.086351 -170.65378 
L 102.464624 -170.65378 
L 101.842897 -170.65378 
L 101.22117 -170.65378 
L 100.599443 -170.65378 
L 99.977716 -170.65378 
L 99.355989 -170.65378 
L 98.734262 -170.65378 
L 98.112535 -170.65378 
L 97.490808 -170.65378 
L 96.869081 -170.65378 
L 96.247354 -170.65378 
L 95.625627 -170.65378 
L 95.0039 -170.65378 
L 94.382173 -170.65378 
L 93.760446 -170.65378 
L 93.138719 -170.65378 
L 92.516992 -170.65378 
L 91.895265 -170.65378 
L 91.273538 -170.65378 
L 90.651811 -170.65378 
L 90.030084 -170.65378 
L 89.408357 -170.65378 
L 88.78663 -170.65378 
L 88.164903 -170.65378 
L 87.543175 -170.65378 
L 86.921448 -170.65378 
L 86.299721 -170.65378 
L 85.677994 -170.65378 
L 85.056267 -170.65378 
L 84.43454 -170.65378 
L 83.812813 -170.65378 
L 83.191086 -170.65378 
L 82.569359 -170.65378 
L 81.947632 -170.65378 
L 81.325905 -170.65378 
L 80.704178 -170.65378 
L 80.082451 -170.65378 
L 79.460724 -170.65378 
L 78.838997 -170.65378 
L 78.21727 -170.65378 
L 77.595543 -170.65378 
L 76.973816 -170.65378 
L 76.352089 -170.65378 
L 75.730362 -170.65378 
L 75.108635 -170.65378 
L 74.486908 -170.65378 
L 73.865181 -170.65378 
L 73.243454 -170.65378 
L 72.621727 -170.65378 
L 72 -170.65378 
z
" id="md042f34361"/>
    </defs>
    <g clip-path="url(#p17b15c80b9)">
     <use style="fill-opacity:0.15;" x="0" xlink:href="#md042f34361" y="360"/>
    </g>
   </g>
   <g id="matplotlib.axis_1">
    <g id="xtick_1">
     <g id="line2d_1">
      <defs>
       <path d="M 0 0 
L 0 3.5 
" id="mc8545c0158" style="stroke:#000000;stroke-width:0.8;"/>
      </defs>
      <g>
       <use style="stroke:#000000;stroke-width:0.8;" x="72" xlink:href="#mc8545c0158" y="320.4"/>
      </g>
     </g>
     <g id="text_1">
      <!-- 0.0 -->
      <g transform="translate(60.867812 338.037813)scale(0.14 -0.14)">
       <defs>
        <path d="M 2034 4250 
Q 1547 4250 1301 3770 
Q 1056 3291 1056 2328 
Q 1056 1369 1301 889 
Q 1547 409 2034 409 
Q 2525 409 2770 889 
Q 3016 1369 3016 2328 
Q 3016 3291 2770 3770 
Q 2525 4250 2034 4250 
z
M 2034 4750 
Q 2819 4750 3233 4129 
Q 3647 3509 3647 2328 
Q 3647 1150 3233 529 
Q 2819 -91 2034 -91 
Q 1250 -91 836 529 
Q 422 1150 422 2328 
Q 422 3509 836 4129 
Q 1250 4750 2034 4750 
z
" id="DejaVuSans-30" transform="scale(0.015625)"/>
        <path d="M 684 794 
L 1344 794 
L 1344 0 
L 684 0 
L 684 794 
z
" id="DejaVuSans-2e" transform="scale(0.015625)"/>
       </defs>
       <use xlink:href="#DejaVuSans-30"/>
       <use x="63.623047" xlink:href="#DejaVuSans-2e"/>
       <use x="95.410156" xlink:href="#DejaVuSans-30"/>
      </g>
     </g>
    </g>
    <g id="xtick_2">
     <g id="line2d_2">
      <g>
       <use style="stroke:#000000;stroke-width:0.8;" x="127.850265" xlink:href="#mc8545c0158" y="320.4"/>
      </g>
     </g>
     <g id="text_2">
      <!-- 2.5 -->
      <g transform="translate(116.718078 338.037813)scale(0.14 -0.14)">
       <defs>
        <path d="M 1228 531 
L 3431 531 
L 3431 0 
L 469 0 
L 469 531 
Q 828 903 1448 1529 
Q 2069 2156 2228 2338 
Q 2531 2678 2651 2914 
Q 2772 3150 2772 3378 
Q 2772 3750 2511 3984 
Q 2250 4219 1831 4219 
Q 1534 4219 1204 4116 
Q 875 4013 500 3803 
L 500 4441 
Q 881 4594 1212 4672 
Q 1544 4750 1819 4750 
Q 2544 4750 2975 4387 
Q 3406 4025 3406 3419 
Q 3406 3131 3298 2873 
Q 3191 2616 2906 2266 
Q 2828 2175 2409 1742 
Q 1991 1309 1228 531 
z
" id="DejaVuSans-32" transform="scale(0.015625)"/>
        <path d="M 691 4666 
L 3169 4666 
L 3169 4134 
L 1269 4134 
L 1269 2991 
Q 1406 3038 1543 3061 
Q 1681 3084 1819 3084 
Q 2600 3084 3056 2656 
Q 3513 2228 3513 1497 
Q 3513 744 3044 326 
Q 2575 -91 1722 -91 
Q 1428 -91 1123 -41 
Q 819 9 494 109 
L 494 744 
Q 775 591 1075 516 
Q 1375 441 1709 441 
Q 2250 441 2565 725 
Q 2881 1009 2881 1497 
Q 2881 1984 2565 2268 
Q 2250 2553 1709 2553 
Q 1456 2553 1204 2497 
Q 953 2441 691 2322 
L 691 4666 
z
" id="DejaVuSans-35" transform="scale(0.015625)"/>
       </defs>
       <use xlink:href="#DejaVuSans-32"/>
       <use x="63.623047" xlink:href="#DejaVuSans-2e"/>
       <use x="95.410156" xlink:href="#DejaVuSans-35"/>
      </g>
     </g>
    </g>
    <g id="xtick_3">
     <g id="line2d_3">
      <g>
       <use style="stroke:#000000;stroke-width:0.8;" x="183.70053" xlink:href="#mc8545c0158" y="320.4"/>
      </g>
     </g>
     <g id="text_3">
      <!-- 5.0 -->
      <g transform="translate(172.568343 338.037813)scale(0.14 -0.14)">
       <use xlink:href="#DejaVuSans-35"/>
       <use x="63.623047" xlink:href="#DejaVuSans-2e"/>
       <use x="95.410156" xlink:href="#DejaVuSans-30"/>
      </g>
     </g>
    </g>
    <g id="xtick_4">
     <g id="line2d_4">
      <g>
       <use style="stroke:#000000;stroke-width:0.8;" x="239.550796" xlink:href="#mc8545c0158" y="320.4"/>
      </g>
     </g>
     <g id="text_4">
      <!-- 7.5 -->
      <g transform="translate(228.418608 338.037813)scale(0.14 -0.14)">
       <defs>
        <path d="M 525 4666 
L 3525 4666 
L 3525 4397 
L 1831 0 
L 1172 0 
L 2766 4134 
L 525 4134 
L 525 4666 
z
" id="DejaVuSans-37" transform="scale(0.015625)"/>
       </defs>
       <use xlink:href="#DejaVuSans-37"/>
       <use x="63.623047" xlink:href="#DejaVuSans-2e"/>
       <use x="95.410156" xlink:href="#DejaVuSans-35"/>
      </g>
     </g>
    </g>
    <g id="xtick_5">
     <g id="line2d_5">
      <g>
       <use style="stroke:#000000;stroke-width:0.8;" x="295.401061" xlink:href="#mc8545c0158" y="320.4"/>
      </g>
     </g>
     <g id="text_5">
      <!-- 10.0 -->
      <g transform="translate(279.815123 338.037813)scale(0.14 -0.14)">
       <defs>
        <path d="M 794 531 
L 1825 531 
L 1825 4091 
L 703 3866 
L 703 4441 
L 1819 4666 
L 2450 4666 
L 2450 531 
L 3481 531 
L 3481 0 
L 794 0 
L 794 531 
z
" id="DejaVuSans-31" transform="scale(0.015625)"/>
       </defs>
       <use xlink:href="#DejaVuSans-31"/>
       <use x="63.623047" xlink:href="#DejaVuSans-30"/>
       <use x="127.246094" xlink:href="#DejaVuSans-2e"/>
       <use x="159.033203" xlink:href="#DejaVuSans-30"/>
      </g>
     </g>
    </g>
    <g id="xtick_6">
     <g id="line2d_6">
      <g>
       <use style="stroke:#000000;stroke-width:0.8;" x="351.251326" xlink:href="#mc8545c0158" y="320.4"/>
      </g>
     </g>
     <g id="text_6">
      <!-- 12.5 -->
      <g transform="translate(335.665389 338.037813)scale(0.14 -0.14)">
       <use xlink:href="#DejaVuSans-31"/>
       <use x="63.623047" xlink:href="#DejaVuSans-32"/>
       <use x="127.246094" xlink:href="#DejaVuSans-2e"/>
       <use x="159.033203" xlink:href="#DejaVuSans-35"/>
      </g>
     </g>
    </g>
    <g id="xtick_7">
     <g id="line2d_7">
      <g>
       <use style="stroke:#000000;stroke-width:0.8;" x="407.101591" xlink:href="#mc8545c0158" y="320.4"/>
      </g>
     </g>
     <g id="text_7">
      <!-- 15.0 -->
      <g transform="translate(391.515654 338.037813)scale(0.14 -0.14)">
       <use xlink:href="#DejaVuSans-31"/>
       <use x="63.623047" xlink:href="#DejaVuSans-35"/>
       <use x="127.246094" xlink:href="#DejaVuSans-2e"/>
       <use x="159.033203" xlink:href="#DejaVuSans-30"/>
      </g>
     </g>
    </g>
    <g id="xtick_8">
     <g id="line2d_8">
      <g>
       <use style="stroke:#000000;stroke-width:0.8;" x="462.951857" xlink:href="#mc8545c0158" y="320.4"/>
      </g>
     </g>
     <g id="text_8">
      <!-- 17.5 -->
      <g transform="translate(447.365919 338.037813)scale(0.14 -0.14)">
       <use xlink:href="#DejaVuSans-31"/>
       <use x="63.623047" xlink:href="#DejaVuSans-37"/>
       <use x="127.246094" xlink:href="#DejaVuSans-2e"/>
       <use x="159.033203" xlink:href="#DejaVuSans-35"/>
      </g>
     </g>
    </g>
    <g id="text_9">
     <!-- Time [Seconds] -->
     <g transform="translate(233.23 357.106875)scale(0.16 -0.16)">
      <defs>
       <path d="M -19 4666 
L 3928 4666 
L 3928 4134 
L 2272 4134 
L 2272 0 
L 1638 0 
L 1638 4134 
L -19 4134 
L -19 4666 
z
" id="DejaVuSans-54" transform="scale(0.015625)"/>
       <path d="M 603 3500 
L 1178 3500 
L 1178 0 
L 603 0 
L 603 3500 
z
M 603 4863 
L 1178 4863 
L 1178 4134 
L 603 4134 
L 603 4863 
z
" id="DejaVuSans-69" transform="scale(0.015625)"/>
       <path d="M 3328 2828 
Q 3544 3216 3844 3400 
Q 4144 3584 4550 3584 
Q 5097 3584 5394 3201 
Q 5691 2819 5691 2113 
L 5691 0 
L 5113 0 
L 5113 2094 
Q 5113 2597 4934 2840 
Q 4756 3084 4391 3084 
Q 3944 3084 3684 2787 
Q 3425 2491 3425 1978 
L 3425 0 
L 2847 0 
L 2847 2094 
Q 2847 2600 2669 2842 
Q 2491 3084 2119 3084 
Q 1678 3084 1418 2786 
Q 1159 2488 1159 1978 
L 1159 0 
L 581 0 
L 581 3500 
L 1159 3500 
L 1159 2956 
Q 1356 3278 1631 3431 
Q 1906 3584 2284 3584 
Q 2666 3584 2933 3390 
Q 3200 3197 3328 2828 
z
" id="DejaVuSans-6d" transform="scale(0.015625)"/>
       <path d="M 3597 1894 
L 3597 1613 
L 953 1613 
Q 991 1019 1311 708 
Q 1631 397 2203 397 
Q 2534 397 2845 478 
Q 3156 559 3463 722 
L 3463 178 
Q 3153 47 2828 -22 
Q 2503 -91 2169 -91 
Q 1331 -91 842 396 
Q 353 884 353 1716 
Q 353 2575 817 3079 
Q 1281 3584 2069 3584 
Q 2775 3584 3186 3129 
Q 3597 2675 3597 1894 
z
M 3022 2063 
Q 3016 2534 2758 2815 
Q 2500 3097 2075 3097 
Q 1594 3097 1305 2825 
Q 1016 2553 972 2059 
L 3022 2063 
z
" id="DejaVuSans-65" transform="scale(0.015625)"/>
       <path id="DejaVuSans-20" transform="scale(0.015625)"/>
       <path d="M 550 4863 
L 1875 4863 
L 1875 4416 
L 1125 4416 
L 1125 -397 
L 1875 -397 
L 1875 -844 
L 550 -844 
L 550 4863 
z
" id="DejaVuSans-5b" transform="scale(0.015625)"/>
       <path d="M 3425 4513 
L 3425 3897 
Q 3066 4069 2747 4153 
Q 2428 4238 2131 4238 
Q 1616 4238 1336 4038 
Q 1056 3838 1056 3469 
Q 1056 3159 1242 3001 
Q 1428 2844 1947 2747 
L 2328 2669 
Q 3034 2534 3370 2195 
Q 3706 1856 3706 1288 
Q 3706 609 3251 259 
Q 2797 -91 1919 -91 
Q 1588 -91 1214 -16 
Q 841 59 441 206 
L 441 856 
Q 825 641 1194 531 
Q 1563 422 1919 422 
Q 2459 422 2753 634 
Q 3047 847 3047 1241 
Q 3047 1584 2836 1778 
Q 2625 1972 2144 2069 
L 1759 2144 
Q 1053 2284 737 2584 
Q 422 2884 422 3419 
Q 422 4038 858 4394 
Q 1294 4750 2059 4750 
Q 2388 4750 2728 4690 
Q 3069 4631 3425 4513 
z
" id="DejaVuSans-53" transform="scale(0.015625)"/>
       <path d="M 3122 3366 
L 3122 2828 
Q 2878 2963 2633 3030 
Q 2388 3097 2138 3097 
Q 1578 3097 1268 2742 
Q 959 2388 959 1747 
Q 959 1106 1268 751 
Q 1578 397 2138 397 
Q 2388 397 2633 464 
Q 2878 531 3122 666 
L 3122 134 
Q 2881 22 2623 -34 
Q 2366 -91 2075 -91 
Q 1284 -91 818 406 
Q 353 903 353 1747 
Q 353 2603 823 3093 
Q 1294 3584 2113 3584 
Q 2378 3584 2631 3529 
Q 2884 3475 3122 3366 
z
" id="DejaVuSans-63" transform="scale(0.015625)"/>
       <path d="M 1959 3097 
Q 1497 3097 1228 2736 
Q 959 2375 959 1747 
Q 959 1119 1226 758 
Q 1494 397 1959 397 
Q 2419 397 2687 759 
Q 2956 1122 2956 1747 
Q 2956 2369 2687 2733 
Q 2419 3097 1959 3097 
z
M 1959 3584 
Q 2709 3584 3137 3096 
Q 3566 2609 3566 1747 
Q 3566 888 3137 398 
Q 2709 -91 1959 -91 
Q 1206 -91 779 398 
Q 353 888 353 1747 
Q 353 2609 779 3096 
Q 1206 3584 1959 3584 
z
" id="DejaVuSans-6f" transform="scale(0.015625)"/>
       <path d="M 3513 2113 
L 3513 0 
L 2938 0 
L 2938 2094 
Q 2938 2591 2744 2837 
Q 2550 3084 2163 3084 
Q 1697 3084 1428 2787 
Q 1159 2491 1159 1978 
L 1159 0 
L 581 0 
L 581 3500 
L 1159 3500 
L 1159 2956 
Q 1366 3272 1645 3428 
Q 1925 3584 2291 3584 
Q 2894 3584 3203 3211 
Q 3513 2838 3513 2113 
z
" id="DejaVuSans-6e" transform="scale(0.015625)"/>
       <path d="M 2906 2969 
L 2906 4863 
L 3481 4863 
L 3481 0 
L 2906 0 
L 2906 525 
Q 2725 213 2448 61 
Q 2172 -91 1784 -91 
Q 1150 -91 751 415 
Q 353 922 353 1747 
Q 353 2572 751 3078 
Q 1150 3584 1784 3584 
Q 2172 3584 2448 3432 
Q 2725 3281 2906 2969 
z
M 947 1747 
Q 947 1113 1208 752 
Q 1469 391 1925 391 
Q 2381 391 2643 752 
Q 2906 1113 2906 1747 
Q 2906 2381 2643 2742 
Q 2381 3103 1925 3103 
Q 1469 3103 1208 2742 
Q 947 2381 947 1747 
z
" id="DejaVuSans-64" transform="scale(0.015625)"/>
       <path d="M 2834 3397 
L 2834 2853 
Q 2591 2978 2328 3040 
Q 2066 3103 1784 3103 
Q 1356 3103 1142 2972 
Q 928 2841 928 2578 
Q 928 2378 1081 2264 
Q 1234 2150 1697 2047 
L 1894 2003 
Q 2506 1872 2764 1633 
Q 3022 1394 3022 966 
Q 3022 478 2636 193 
Q 2250 -91 1575 -91 
Q 1294 -91 989 -36 
Q 684 19 347 128 
L 347 722 
Q 666 556 975 473 
Q 1284 391 1588 391 
Q 1994 391 2212 530 
Q 2431 669 2431 922 
Q 2431 1156 2273 1281 
Q 2116 1406 1581 1522 
L 1381 1569 
Q 847 1681 609 1914 
Q 372 2147 372 2553 
Q 372 3047 722 3315 
Q 1072 3584 1716 3584 
Q 2034 3584 2315 3537 
Q 2597 3491 2834 3397 
z
" id="DejaVuSans-73" transform="scale(0.015625)"/>
       <path d="M 1947 4863 
L 1947 -844 
L 622 -844 
L 622 -397 
L 1369 -397 
L 1369 4416 
L 622 4416 
L 622 4863 
L 1947 4863 
z
" id="DejaVuSans-5d" transform="scale(0.015625)"/>
      </defs>
      <use xlink:href="#DejaVuSans-54"/>
      <use x="57.958984" xlink:href="#DejaVuSans-69"/>
      <use x="85.742188" xlink:href="#DejaVuSans-6d"/>
      <use x="183.154297" xlink:href="#DejaVuSans-65"/>
      <use x="244.677734" xlink:href="#DejaVuSans-20"/>
      <use x="276.464844" xlink:href="#DejaVuSans-5b"/>
      <use x="315.478516" xlink:href="#DejaVuSans-53"/>
      <use x="378.955078" xlink:href="#DejaVuSans-65"/>
      <use x="440.478516" xlink:href="#DejaVuSans-63"/>
      <use x="495.458984" xlink:href="#DejaVuSans-6f"/>
      <use x="556.640625" xlink:href="#DejaVuSans-6e"/>
      <use x="620.019531" xlink:href="#DejaVuSans-64"/>
      <use x="683.496094" xlink:href="#DejaVuSans-73"/>
      <use x="735.595703" xlink:href="#DejaVuSans-5d"/>
     </g>
    </g>
   </g>
   <g id="matplotlib.axis_2">
    <g id="ytick_1">
     <g id="line2d_9">
      <defs>
       <path d="M 0 0 
L -3.5 0 
" id="mdfb0ae7400" style="stroke:#000000;stroke-width:0.8;"/>
      </defs>
      <g>
       <use style="stroke:#000000;stroke-width:0.8;" x="72" xlink:href="#mdfb0ae7400" y="288.855428"/>
      </g>
     </g>
     <g id="text_10">
      <!-- 0.0 -->
      <g transform="translate(42.735625 294.174334)scale(0.14 -0.14)">
       <use xlink:href="#DejaVuSans-30"/>
       <use x="63.623047" xlink:href="#DejaVuSans-2e"/>
       <use x="95.410156" xlink:href="#DejaVuSans-30"/>
      </g>
     </g>
    </g>
    <g id="ytick_2">
     <g id="line2d_10">
      <g>
       <use style="stroke:#000000;stroke-width:0.8;" x="72" xlink:href="#mdfb0ae7400" y="227.91217"/>
      </g>
     </g>
     <g id="text_11">
      <!-- 0.5 -->
      <g transform="translate(42.735625 233.231076)scale(0.14 -0.14)">
       <use xlink:href="#DejaVuSans-30"/>
       <use x="63.623047" xlink:href="#DejaVuSans-2e"/>
       <use x="95.410156" xlink:href="#DejaVuSans-35"/>
      </g>
     </g>
    </g>
    <g id="ytick_3">
     <g id="line2d_11">
      <g>
       <use style="stroke:#000000;stroke-width:0.8;" x="72" xlink:href="#mdfb0ae7400" y="166.968913"/>
      </g>
     </g>
     <g id="text_12">
      <!-- 1.0 -->
      <g transform="translate(42.735625 172.287819)scale(0.14 -0.14)">
       <use xlink:href="#DejaVuSans-31"/>
       <use x="63.623047" xlink:href="#DejaVuSans-2e"/>
       <use x="95.410156" xlink:href="#DejaVuSans-30"/>
      </g>
     </g>
    </g>
    <g id="ytick_4">
     <g id="line2d_12">
      <g>
       <use style="stroke:#000000;stroke-width:0.8;" x="72" xlink:href="#mdfb0ae7400" y="106.025655"/>
      </g>
     </g>
     <g id="text_13">
      <!-- 1.5 -->
      <g transform="translate(42.735625 111.344561)scale(0.14 -0.14)">
       <use xlink:href="#DejaVuSans-31"/>
       <use x="63.623047" xlink:href="#DejaVuSans-2e"/>
       <use x="95.410156" xlink:href="#DejaVuSans-35"/>
      </g>
     </g>
    </g>
    <g id="ytick_5">
     <g id="line2d_13">
      <g>
       <use style="stroke:#000000;stroke-width:0.8;" x="72" xlink:href="#mdfb0ae7400" y="45.082397"/>
      </g>
     </g>
     <g id="text_14">
      <!-- 2.0 -->
      <g transform="translate(42.735625 50.401304)scale(0.14 -0.14)">
       <use xlink:href="#DejaVuSans-32"/>
       <use x="63.623047" xlink:href="#DejaVuSans-2e"/>
       <use x="95.410156" xlink:href="#DejaVuSans-30"/>
      </g>
     </g>
    </g>
    <g id="text_15">
     <!-- Speed [mm/s] -->
     <g transform="translate(35.408125 238.11375)rotate(-90)scale(0.16 -0.16)">
      <defs>
       <path d="M 1159 525 
L 1159 -1331 
L 581 -1331 
L 581 3500 
L 1159 3500 
L 1159 2969 
Q 1341 3281 1617 3432 
Q 1894 3584 2278 3584 
Q 2916 3584 3314 3078 
Q 3713 2572 3713 1747 
Q 3713 922 3314 415 
Q 2916 -91 2278 -91 
Q 1894 -91 1617 61 
Q 1341 213 1159 525 
z
M 3116 1747 
Q 3116 2381 2855 2742 
Q 2594 3103 2138 3103 
Q 1681 3103 1420 2742 
Q 1159 2381 1159 1747 
Q 1159 1113 1420 752 
Q 1681 391 2138 391 
Q 2594 391 2855 752 
Q 3116 1113 3116 1747 
z
" id="DejaVuSans-70" transform="scale(0.015625)"/>
       <path d="M 1625 4666 
L 2156 4666 
L 531 -594 
L 0 -594 
L 1625 4666 
z
" id="DejaVuSans-2f" transform="scale(0.015625)"/>
      </defs>
      <use xlink:href="#DejaVuSans-53"/>
      <use x="63.476562" xlink:href="#DejaVuSans-70"/>
      <use x="126.953125" xlink:href="#DejaVuSans-65"/>
      <use x="188.476562" xlink:href="#DejaVuSans-65"/>
      <use x="250" xlink:href="#DejaVuSans-64"/>
      <use x="313.476562" xlink:href="#DejaVuSans-20"/>
      <use x="345.263672" xlink:href="#DejaVuSans-5b"/>
      <use x="384.277344" xlink:href="#DejaVuSans-6d"/>
      <use x="481.689453" xlink:href="#DejaVuSans-6d"/>
      <use x="579.101562" xlink:href="#DejaVuSans-2f"/>
      <use x="612.792969" xlink:href="#DejaVuSans-73"/>
      <use x="664.892578" xlink:href="#DejaVuSans-5d"/>
     </g>
    </g>
   </g>
   <g id="line2d_14">
    <path clip-path="url(#p17b15c80b9)" d="M 72 186.105456 
L 518.4 186.105456 
" style="fill:none;stroke:#000000;stroke-dasharray:5.55,2.4;stroke-dashoffset:0;stroke-width:1.5;"/>
   </g>
   <g id="line2d_15">
    <path clip-path="url(#p17b15c80b9)" d="M 72 285.62522 
L 110.547075 285.730586 
L 111.168802 285.250359 
L 111.790529 284.19999 
L 112.412256 284.091087 
L 113.65571 284.88944 
L 114.277437 285.9687 
L 114.899164 286.599544 
L 115.520891 285.721714 
L 116.142618 285.042942 
L 116.764345 281.483734 
L 117.386072 280.611378 
L 118.007799 288.738737 
L 118.629526 299.118156 
L 119.251253 306.423028 
L 119.872981 307.8 
L 120.494708 303.431074 
L 121.116435 292.320379 
L 122.359889 255.879258 
L 124.22507 182.991562 
L 125.468524 132.392104 
L 126.711978 91.958665 
L 127.333705 76.702659 
L 127.955432 65.359088 
L 128.577159 58.383886 
L 129.198886 55.8 
L 129.820613 58.646712 
L 130.44234 64.962142 
L 131.064067 74.177283 
L 132.307521 100.623615 
L 135.416156 180.108532 
L 136.037883 186.867894 
L 136.65961 188.104859 
L 137.281337 186.714313 
L 137.903064 180.181835 
L 138.524791 167.71296 
L 139.146518 161.442015 
L 140.389972 170.72943 
L 141.011699 171.99957 
L 141.633426 173.575898 
L 142.255153 176.063348 
L 142.87688 174.874581 
L 143.498607 176.454491 
L 144.120334 180.41308 
L 144.742061 180.570875 
L 145.363788 181.999167 
L 145.985515 180.72559 
L 146.607242 179.717952 
L 147.228969 183.525869 
L 147.850696 184.858095 
L 148.472423 183.898749 
L 149.09415 183.938322 
L 149.715877 185.862594 
L 150.337604 187.337911 
L 150.959331 184.880479 
L 151.581058 184.239514 
L 152.202786 185.973957 
L 153.44624 181.815202 
L 154.067967 182.002308 
L 154.689694 183.792967 
L 155.311421 183.893214 
L 155.933148 182.177015 
L 156.554875 182.344712 
L 157.176602 182.369633 
L 157.798329 179.151141 
L 158.420056 180.140305 
L 159.041783 184.767603 
L 159.66351 184.456927 
L 160.285237 183.128068 
L 160.906964 184.042151 
L 161.528691 186.4184 
L 162.150418 187.216401 
L 162.772145 185.266351 
L 164.015599 189.594613 
L 164.637326 188.209967 
L 165.88078 189.269482 
L 166.502507 189.134127 
L 167.124234 190.332885 
L 167.745961 189.256523 
L 168.367688 188.840576 
L 168.989415 187.926894 
L 169.611142 186.392834 
L 170.232869 186.926922 
L 170.854596 184.926369 
L 171.476323 186.118513 
L 172.09805 186.095307 
L 172.719777 181.956628 
L 173.341504 182.193486 
L 173.963231 184.083244 
L 174.584958 182.297976 
L 175.206685 182.456237 
L 175.828412 185.211782 
L 176.450139 185.016684 
L 177.071866 184.558643 
L 177.693593 187.247025 
L 178.31532 188.59251 
L 178.937047 188.037708 
L 179.558774 185.843238 
L 180.180501 187.83441 
L 180.802228 190.610781 
L 182.045682 187.272057 
L 182.667409 186.738404 
L 183.289136 187.658351 
L 183.910864 189.372438 
L 184.532591 187.507189 
L 185.154318 187.527931 
L 185.776045 188.123047 
L 186.397772 185.050442 
L 187.019499 183.512629 
L 187.641226 184.308875 
L 188.262953 187.138423 
L 188.88468 186.197912 
L 189.506407 183.655099 
L 190.128134 182.37347 
L 190.749861 181.559022 
L 191.371588 183.872356 
L 191.993315 185.369491 
L 192.615042 182.886168 
L 193.858496 186.961656 
L 194.480223 184.254291 
L 195.10195 182.572604 
L 196.345404 185.225332 
L 196.967131 184.501214 
L 197.588858 183.333548 
L 198.210585 182.518733 
L 198.832312 182.663013 
L 200.075766 188.576203 
L 200.697493 188.777154 
L 201.31922 187.801387 
L 201.940947 189.367262 
L 202.562674 189.744688 
L 203.184401 188.29922 
L 203.806128 185.39075 
L 204.427855 186.817449 
L 205.049582 190.166711 
L 205.671309 190.706292 
L 206.293036 189.899874 
L 206.914763 191.067468 
L 207.53649 191.335662 
L 208.158217 189.041632 
L 208.779944 190.323312 
L 209.401671 190.43742 
L 210.023398 189.780349 
L 210.645125 186.584945 
L 211.266852 185.543404 
L 211.888579 185.547347 
L 213.132033 180.856238 
L 213.75376 180.50896 
L 214.375487 181.54198 
L 214.997214 184.035526 
L 215.618942 185.964638 
L 216.240669 181.38553 
L 216.862396 180.467593 
L 217.484123 184.779981 
L 218.10585 187.192013 
L 218.727577 186.29408 
L 219.349304 184.836466 
L 219.971031 187.040384 
L 220.592758 186.657694 
L 221.214485 185.501136 
L 221.836212 187.909537 
L 222.457939 188.631234 
L 223.079666 190.017391 
L 223.701393 189.425578 
L 224.32312 187.584591 
L 224.944847 188.954216 
L 225.566574 186.430848 
L 226.188301 186.523575 
L 227.431755 183.296304 
L 228.053482 187.327873 
L 228.675209 188.288162 
L 229.296936 185.039825 
L 229.918663 184.718064 
L 230.54039 185.614971 
L 231.162117 185.079947 
L 231.783844 188.645322 
L 232.405571 190.83956 
L 233.027298 191.438093 
L 233.649025 187.82922 
L 234.270752 186.764464 
L 235.514206 186.185843 
L 236.135933 189.944973 
L 236.75766 190.78129 
L 237.379387 189.089944 
L 238.001114 185.451669 
L 238.622841 184.508333 
L 239.244568 185.223251 
L 239.866295 186.848254 
L 240.488022 186.77462 
L 241.109749 187.881077 
L 241.731476 189.676659 
L 242.353203 188.262812 
L 243.596657 183.503805 
L 244.218384 184.430432 
L 244.840111 187.681692 
L 245.461838 186.685606 
L 246.083565 183.901103 
L 246.705292 185.698773 
L 247.327019 186.984404 
L 247.948747 185.160814 
L 248.570474 182.286838 
L 249.192201 185.118158 
L 249.813928 189.841109 
L 251.057382 183.376347 
L 251.679109 185.663756 
L 252.300836 185.337953 
L 252.922563 186.21465 
L 253.54429 190.51899 
L 254.166017 189.793295 
L 254.787744 187.05857 
L 255.409471 183.352889 
L 256.652925 185.236655 
L 257.274652 187.002906 
L 257.896379 189.246251 
L 258.518106 186.6889 
L 259.139833 186.734847 
L 259.76156 185.492023 
L 260.383287 183.785559 
L 261.005014 183.821583 
L 261.626741 185.158281 
L 262.248468 187.202401 
L 262.870195 187.68275 
L 264.735376 184.190718 
L 265.357103 183.419404 
L 265.97883 185.636391 
L 266.600557 188.840112 
L 267.222284 188.707086 
L 267.844011 186.055524 
L 269.087465 186.190518 
L 269.709192 183.734607 
L 270.330919 184.462812 
L 270.952646 188.781696 
L 271.574373 188.424201 
L 272.1961 183.908864 
L 272.817827 185.367088 
L 273.439554 189.032811 
L 274.061281 189.519691 
L 274.683008 187.663083 
L 275.304735 188.247136 
L 275.926462 188.431403 
L 276.548189 186.853563 
L 277.169916 186.506064 
L 277.791643 186.501073 
L 279.035097 187.833285 
L 280.278552 182.712343 
L 280.900279 183.062765 
L 281.522006 183.705356 
L 282.143733 186.658891 
L 282.76546 187.854583 
L 283.387187 187.618734 
L 284.008914 189.048511 
L 284.630641 187.090304 
L 285.252368 184.677867 
L 285.874095 183.139619 
L 286.495822 185.431677 
L 287.117549 188.225112 
L 287.739276 188.306444 
L 288.361003 191.010081 
L 288.98273 193.033034 
L 290.226184 185.649487 
L 290.847911 185.329383 
L 291.469638 187.119873 
L 292.091365 187.920988 
L 292.713092 187.132635 
L 293.334819 186.835493 
L 293.956546 186.868127 
L 294.578273 185.476803 
L 295.2 184.53825 
L 295.821727 184.102393 
L 296.443454 183.058047 
L 297.065181 184.312066 
L 297.686908 185.131429 
L 298.308635 185.591159 
L 298.930362 186.496024 
L 299.552089 184.418473 
L 300.173816 184.128299 
L 300.795543 186.394037 
L 301.41727 185.653496 
L 302.038997 186.596564 
L 302.660724 187.185904 
L 303.282451 188.188503 
L 303.904178 190.50875 
L 304.525905 191.059685 
L 305.147632 190.978744 
L 306.391086 184.70369 
L 307.012813 184.535601 
L 307.63454 186.258872 
L 308.256267 188.429071 
L 308.877994 186.774779 
L 309.499721 184.64024 
L 310.121448 185.082522 
L 310.743175 186.004803 
L 311.364903 183.690693 
L 311.98663 184.720872 
L 312.608357 187.520701 
L 313.230084 187.033629 
L 313.851811 185.372617 
L 314.473538 186.146179 
L 315.095265 189.449937 
L 315.716992 188.627644 
L 316.338719 182.676144 
L 316.960446 182.614326 
L 317.582173 186.394207 
L 318.2039 189.386449 
L 318.825627 189.694196 
L 319.447354 186.0937 
L 320.069081 185.250134 
L 320.690808 186.257811 
L 321.312535 185.000392 
L 321.934262 182.978571 
L 322.555989 184.70115 
L 323.177716 187.467762 
L 323.799443 188.692929 
L 324.42117 186.964835 
L 325.042897 184.721521 
L 325.664624 186.821325 
L 326.286351 189.518606 
L 326.908078 188.74335 
L 327.529805 187.757446 
L 328.151532 189.82573 
L 328.773259 190.877468 
L 329.394986 190.64512 
L 330.016713 189.807083 
L 330.63844 185.520406 
L 331.260167 183.066349 
L 331.881894 185.861988 
L 332.503621 187.836308 
L 333.125348 185.430712 
L 333.747075 185.611387 
L 334.368802 188.639442 
L 334.990529 185.77224 
L 335.612256 184.473714 
L 336.233983 188.945401 
L 336.85571 189.061871 
L 337.477437 186.635652 
L 338.099164 184.970751 
L 338.720891 186.011375 
L 339.342618 188.263293 
L 339.964345 188.942496 
L 340.586072 188.59857 
L 341.207799 185.693435 
L 341.829526 183.720842 
L 342.451253 184.560287 
L 343.072981 184.443965 
L 343.694708 182.706206 
L 344.316435 184.531033 
L 344.938162 187.627948 
L 346.181616 182.998258 
L 346.803343 181.714618 
L 348.046797 186.473216 
L 348.668524 185.56945 
L 349.290251 186.616678 
L 349.911978 186.553873 
L 350.533705 184.605278 
L 351.155432 185.219955 
L 351.777159 184.998235 
L 352.398886 183.005308 
L 353.64234 190.499913 
L 354.264067 191.095067 
L 354.885794 188.748766 
L 355.507521 189.131965 
L 356.129248 188.79359 
L 356.750975 185.160095 
L 357.994429 190.609276 
L 358.616156 187.656677 
L 359.237883 186.647865 
L 359.85961 187.740342 
L 361.103064 186.174859 
L 361.724791 188.572194 
L 362.346518 189.961342 
L 363.589972 185.572749 
L 364.211699 186.214808 
L 364.833426 187.879691 
L 365.455153 187.440992 
L 366.07688 188.688107 
L 366.698607 188.660198 
L 367.320334 185.385523 
L 367.942061 184.223852 
L 368.563788 185.050788 
L 369.185515 186.475305 
L 369.807242 184.937068 
L 370.428969 183.887089 
L 371.050696 184.539902 
L 371.672423 184.182178 
L 372.29415 184.57109 
L 372.915877 185.516494 
L 373.537604 184.855176 
L 374.159331 184.598287 
L 374.781058 188.528464 
L 375.402786 188.388367 
L 376.024513 187.223362 
L 376.64624 187.110418 
L 377.267967 187.734856 
L 377.889694 186.775311 
L 378.511421 186.293383 
L 379.133148 188.307212 
L 380.376602 185.388814 
L 380.998329 184.997362 
L 382.241783 183.283353 
L 382.86351 181.538618 
L 384.728691 186.161809 
L 385.972145 189.486618 
L 386.593872 191.97156 
L 387.215599 190.388831 
L 387.837326 191.100149 
L 388.459053 192.888932 
L 389.702507 190.326438 
L 390.324234 187.214644 
L 390.945961 185.327536 
L 391.567688 184.486809 
L 392.189415 185.372162 
L 392.811142 185.661303 
L 393.432869 184.549301 
L 394.054596 185.022622 
L 394.676323 186.008366 
L 395.29805 186.312297 
L 396.541504 183.54649 
L 397.163231 180.545544 
L 397.784958 182.8036 
L 398.406685 186.945572 
L 399.028412 187.59021 
L 399.650139 186.376021 
L 400.271866 185.620573 
L 400.893593 184.621915 
L 401.51532 184.366932 
L 402.137047 186.622698 
L 402.758774 187.455071 
L 403.380501 187.823543 
L 404.002228 187.554361 
L 404.623955 186.517269 
L 405.245682 186.609187 
L 405.867409 187.882305 
L 406.489136 188.875112 
L 407.110864 189.094744 
L 407.732591 190.730671 
L 408.354318 189.65328 
L 408.976045 185.342287 
L 409.597772 184.824039 
L 410.219499 186.974765 
L 410.841226 185.753477 
L 411.462953 183.242997 
L 412.08468 179.813037 
L 412.706407 179.810919 
L 413.328134 183.504876 
L 413.949861 185.608538 
L 414.571588 187.100705 
L 415.193315 185.879689 
L 415.815042 187.600853 
L 416.436769 188.88714 
L 417.058496 187.454055 
L 417.680223 188.875153 
L 418.923677 190.0754 
L 419.545404 191.803788 
L 420.167131 191.309533 
L 420.788858 188.236734 
L 421.410585 186.756568 
L 422.032312 187.397964 
L 422.654039 185.399954 
L 423.275766 185.796371 
L 423.897493 187.338404 
L 424.51922 186.901686 
L 425.140947 187.210119 
L 425.762674 185.726405 
L 426.384401 185.446179 
L 427.006128 185.749346 
L 427.627855 184.8341 
L 428.249582 184.641402 
L 428.871309 185.349969 
L 429.493036 184.313878 
L 430.114763 182.943911 
L 430.73649 184.292234 
L 431.358217 184.775226 
L 431.979944 186.337052 
L 432.601671 186.90499 
L 433.223398 185.925746 
L 433.845125 184.165446 
L 435.088579 188.665058 
L 435.710306 188.921024 
L 436.332033 188.214068 
L 436.95376 184.893087 
L 437.575487 185.42115 
L 438.197214 184.148907 
L 438.818942 184.530085 
L 439.440669 187.965466 
L 440.062396 188.466176 
L 440.684123 185.716199 
L 441.30585 184.635891 
L 441.927577 186.503379 
L 442.549304 185.607185 
L 443.171031 187.733985 
L 443.792758 188.950098 
L 444.414485 187.563544 
L 445.036212 188.204983 
L 446.279666 191.203081 
L 446.901393 190.230239 
L 447.52312 188.338566 
L 448.144847 188.313413 
L 448.766574 188.44189 
L 449.388301 186.876924 
L 450.010028 184.059439 
L 450.631755 182.692583 
L 451.253482 182.032026 
L 451.875209 182.883498 
L 452.496936 185.165957 
L 453.118663 185.038272 
L 453.74039 186.676059 
L 454.362117 187.466638 
L 454.983844 186.408857 
L 455.605571 186.11379 
L 456.227298 187.32371 
L 456.849025 186.993381 
L 457.470752 187.053381 
L 458.092479 187.501625 
L 458.714206 186.827089 
L 459.95766 187.396768 
L 460.579387 186.112013 
L 461.201114 185.51965 
L 461.822841 186.444986 
L 462.444568 186.622096 
L 463.066295 186.604986 
L 463.688022 187.56374 
L 464.309749 188.297324 
L 465.553203 188.749431 
L 466.17493 189.236817 
L 466.796657 189.566745 
L 467.418384 189.670564 
L 468.040111 189.080203 
L 468.661838 186.768462 
L 469.905292 184.415737 
L 470.527019 183.56015 
L 471.770474 179.233781 
L 473.013928 183.804898 
L 473.635655 185.859637 
L 474.257382 187.507768 
L 474.879109 186.550961 
L 475.500836 188.570801 
L 476.122563 189.602493 
L 476.74429 189.837581 
L 477.366017 190.988451 
L 478.609471 188.519579 
L 479.231198 187.889311 
L 479.852925 185.327566 
L 480.474652 183.926391 
L 481.096379 184.78312 
L 481.718106 184.56744 
L 482.339833 183.296772 
L 482.96156 183.846641 
L 484.205014 186.953777 
L 485.448468 183.477745 
L 486.070195 184.164975 
L 486.691922 183.899315 
L 487.313649 186.140754 
L 487.935376 186.641494 
L 488.557103 186.02517 
L 489.17883 186.705444 
L 489.800557 186.691925 
L 490.422284 186.269245 
L 491.665738 190.160751 
L 492.287465 187.514719 
L 492.909192 186.531027 
L 493.530919 187.596806 
L 494.152646 187.585728 
L 494.774373 189.175347 
L 495.3961 191.697085 
L 496.017827 190.657096 
L 496.639554 187.098654 
L 497.261281 187.938008 
L 497.883008 186.923947 
L 498.504735 187.101984 
L 499.126462 188.779376 
L 499.748189 187.589786 
L 500.369916 186.759319 
L 500.991643 185.721052 
L 501.61337 182.984335 
L 502.235097 183.487534 
L 502.856825 185.804215 
L 503.478552 182.611748 
L 504.100279 182.644455 
L 504.722006 184.492461 
L 505.96546 184.475347 
L 506.587187 183.976986 
L 507.208914 184.552622 
L 507.830641 184.836384 
L 509.074095 186.161425 
L 511.561003 188.951902 
L 512.18273 189.445616 
L 512.804457 189.75587 
L 513.426184 189.822109 
L 514.047911 189.578289 
L 514.669638 188.952876 
L 515.291365 187.868846 
L 515.913092 186.243685 
L 516.534819 183.98939 
L 517.156546 181.01247 
L 517.778273 177.213942 
L 518.4 172.489335 
L 518.4 172.489335 
" style="fill:none;stroke:#ff0000;stroke-linecap:square;stroke-width:2;"/>
   </g>
   <g id="patch_3">
    <path d="M 72 320.4 
L 72 43.2 
" style="fill:none;stroke:#000000;stroke-linecap:square;stroke-linejoin:miter;stroke-width:0.8;"/>
   </g>
   <g id="patch_4">
    <path d="M 518.4 320.4 
L 518.4 43.2 
" style="fill:none;stroke:#000000;stroke-linecap:square;stroke-linejoin:miter;stroke-width:0.8;"/>
   </g>
   <g id="patch_5">
    <path d="M 72 320.4 
L 518.4 320.4 
" style="fill:none;stroke:#000000;stroke-linecap:square;stroke-linejoin:miter;stroke-width:0.8;"/>
   </g>
   <g id="patch_6">
    <path d="M 72 43.2 
L 518.4 43.2 
" style="fill:none;stroke:#000000;stroke-linecap:square;stroke-linejoin:miter;stroke-width:0.8;"/>
   </g>
   <g id="text_16">
    <!-- Front Propogation Speed -->
    <g transform="translate(172.245312 37.2)scale(0.2 -0.2)">
     <defs>
      <path d="M 628 4666 
L 3309 4666 
L 3309 4134 
L 1259 4134 
L 1259 2759 
L 3109 2759 
L 3109 2228 
L 1259 2228 
L 1259 0 
L 628 0 
L 628 4666 
z
" id="DejaVuSans-46" transform="scale(0.015625)"/>
      <path d="M 2631 2963 
Q 2534 3019 2420 3045 
Q 2306 3072 2169 3072 
Q 1681 3072 1420 2755 
Q 1159 2438 1159 1844 
L 1159 0 
L 581 0 
L 581 3500 
L 1159 3500 
L 1159 2956 
Q 1341 3275 1631 3429 
Q 1922 3584 2338 3584 
Q 2397 3584 2469 3576 
Q 2541 3569 2628 3553 
L 2631 2963 
z
" id="DejaVuSans-72" transform="scale(0.015625)"/>
      <path d="M 1172 4494 
L 1172 3500 
L 2356 3500 
L 2356 3053 
L 1172 3053 
L 1172 1153 
Q 1172 725 1289 603 
Q 1406 481 1766 481 
L 2356 481 
L 2356 0 
L 1766 0 
Q 1100 0 847 248 
Q 594 497 594 1153 
L 594 3053 
L 172 3053 
L 172 3500 
L 594 3500 
L 594 4494 
L 1172 4494 
z
" id="DejaVuSans-74" transform="scale(0.015625)"/>
      <path d="M 1259 4147 
L 1259 2394 
L 2053 2394 
Q 2494 2394 2734 2622 
Q 2975 2850 2975 3272 
Q 2975 3691 2734 3919 
Q 2494 4147 2053 4147 
L 1259 4147 
z
M 628 4666 
L 2053 4666 
Q 2838 4666 3239 4311 
Q 3641 3956 3641 3272 
Q 3641 2581 3239 2228 
Q 2838 1875 2053 1875 
L 1259 1875 
L 1259 0 
L 628 0 
L 628 4666 
z
" id="DejaVuSans-50" transform="scale(0.015625)"/>
      <path d="M 2906 1791 
Q 2906 2416 2648 2759 
Q 2391 3103 1925 3103 
Q 1463 3103 1205 2759 
Q 947 2416 947 1791 
Q 947 1169 1205 825 
Q 1463 481 1925 481 
Q 2391 481 2648 825 
Q 2906 1169 2906 1791 
z
M 3481 434 
Q 3481 -459 3084 -895 
Q 2688 -1331 1869 -1331 
Q 1566 -1331 1297 -1286 
Q 1028 -1241 775 -1147 
L 775 -588 
Q 1028 -725 1275 -790 
Q 1522 -856 1778 -856 
Q 2344 -856 2625 -561 
Q 2906 -266 2906 331 
L 2906 616 
Q 2728 306 2450 153 
Q 2172 0 1784 0 
Q 1141 0 747 490 
Q 353 981 353 1791 
Q 353 2603 747 3093 
Q 1141 3584 1784 3584 
Q 2172 3584 2450 3431 
Q 2728 3278 2906 2969 
L 2906 3500 
L 3481 3500 
L 3481 434 
z
" id="DejaVuSans-67" transform="scale(0.015625)"/>
      <path d="M 2194 1759 
Q 1497 1759 1228 1600 
Q 959 1441 959 1056 
Q 959 750 1161 570 
Q 1363 391 1709 391 
Q 2188 391 2477 730 
Q 2766 1069 2766 1631 
L 2766 1759 
L 2194 1759 
z
M 3341 1997 
L 3341 0 
L 2766 0 
L 2766 531 
Q 2569 213 2275 61 
Q 1981 -91 1556 -91 
Q 1019 -91 701 211 
Q 384 513 384 1019 
Q 384 1609 779 1909 
Q 1175 2209 1959 2209 
L 2766 2209 
L 2766 2266 
Q 2766 2663 2505 2880 
Q 2244 3097 1772 3097 
Q 1472 3097 1187 3025 
Q 903 2953 641 2809 
L 641 3341 
Q 956 3463 1253 3523 
Q 1550 3584 1831 3584 
Q 2591 3584 2966 3190 
Q 3341 2797 3341 1997 
z
" id="DejaVuSans-61" transform="scale(0.015625)"/>
     </defs>
     <use xlink:href="#DejaVuSans-46"/>
     <use x="50.269531" xlink:href="#DejaVuSans-72"/>
     <use x="89.132812" xlink:href="#DejaVuSans-6f"/>
     <use x="150.314453" xlink:href="#DejaVuSans-6e"/>
     <use x="213.693359" xlink:href="#DejaVuSans-74"/>
     <use x="252.902344" xlink:href="#DejaVuSans-20"/>
     <use x="284.689453" xlink:href="#DejaVuSans-50"/>
     <use x="343.242188" xlink:href="#DejaVuSans-72"/>
     <use x="382.105469" xlink:href="#DejaVuSans-6f"/>
     <use x="443.287109" xlink:href="#DejaVuSans-70"/>
     <use x="506.763672" xlink:href="#DejaVuSans-6f"/>
     <use x="567.945312" xlink:href="#DejaVuSans-67"/>
     <use x="631.421875" xlink:href="#DejaVuSans-61"/>
     <use x="692.701172" xlink:href="#DejaVuSans-74"/>
     <use x="731.910156" xlink:href="#DejaVuSans-69"/>
     <use x="759.693359" xlink:href="#DejaVuSans-6f"/>
     <use x="820.875" xlink:href="#DejaVuSans-6e"/>
     <use x="884.253906" xlink:href="#DejaVuSans-20"/>
     <use x="916.041016" xlink:href="#DejaVuSans-53"/>
     <use x="979.517578" xlink:href="#DejaVuSans-70"/>
     <use x="1042.994141" xlink:href="#DejaVuSans-65"/>
     <use x="1104.517578" xlink:href="#DejaVuSans-65"/>
     <use x="1166.041016" xlink:href="#DejaVuSans-64"/>
    </g>
   </g>
   <g id="legend_1">
    <g id="patch_7">
     <path d="M 325.967812 111.175687 
L 508.6 111.175687 
Q 511.4 111.175687 511.4 108.375687 
L 511.4 53 
Q 511.4 50.2 508.6 50.2 
L 325.967812 50.2 
Q 323.167812 50.2 323.167812 53 
L 323.167812 108.375687 
Q 323.167812 111.175687 325.967812 111.175687 
z
" style="fill:#ffffff;opacity:0.8;stroke:#cccccc;stroke-linejoin:miter;"/>
    </g>
    <g id="line2d_16">
     <path d="M 328.767812 61.537812 
L 356.767812 61.537812 
" style="fill:none;stroke:#ff0000;stroke-linecap:square;stroke-width:2;"/>
    </g>
    <g id="line2d_17"/>
    <g id="text_17">
     <!-- Front speed -->
     <g transform="translate(367.967812 66.437812)scale(0.14 -0.14)">
      <use xlink:href="#DejaVuSans-46"/>
      <use x="50.269531" xlink:href="#DejaVuSans-72"/>
      <use x="89.132812" xlink:href="#DejaVuSans-6f"/>
      <use x="150.314453" xlink:href="#DejaVuSans-6e"/>
      <use x="213.693359" xlink:href="#DejaVuSans-74"/>
      <use x="252.902344" xlink:href="#DejaVuSans-20"/>
      <use x="284.689453" xlink:href="#DejaVuSans-73"/>
      <use x="336.789062" xlink:href="#DejaVuSans-70"/>
      <use x="400.265625" xlink:href="#DejaVuSans-65"/>
      <use x="461.789062" xlink:href="#DejaVuSans-65"/>
      <use x="523.3125" xlink:href="#DejaVuSans-64"/>
     </g>
    </g>
    <g id="line2d_18">
     <path d="M 328.767812 91.381437 
L 356.767812 91.381437 
" style="fill:none;stroke:#000000;stroke-dasharray:5.55,2.4;stroke-dashoffset:0;stroke-width:1.5;"/>
    </g>
    <g id="line2d_19"/>
    <g id="text_18">
     <!-- Steady state -->
     <g transform="translate(367.967812 86.987187)scale(0.14 -0.14)">
      <defs>
       <path d="M 2059 -325 
Q 1816 -950 1584 -1140 
Q 1353 -1331 966 -1331 
L 506 -1331 
L 506 -850 
L 844 -850 
Q 1081 -850 1212 -737 
Q 1344 -625 1503 -206 
L 1606 56 
L 191 3500 
L 800 3500 
L 1894 763 
L 2988 3500 
L 3597 3500 
L 2059 -325 
z
" id="DejaVuSans-79" transform="scale(0.015625)"/>
      </defs>
      <use xlink:href="#DejaVuSans-53"/>
      <use x="63.476562" xlink:href="#DejaVuSans-74"/>
      <use x="102.685547" xlink:href="#DejaVuSans-65"/>
      <use x="164.208984" xlink:href="#DejaVuSans-61"/>
      <use x="225.488281" xlink:href="#DejaVuSans-64"/>
      <use x="288.964844" xlink:href="#DejaVuSans-79"/>
      <use x="348.144531" xlink:href="#DejaVuSans-20"/>
      <use x="379.931641" xlink:href="#DejaVuSans-73"/>
      <use x="432.03125" xlink:href="#DejaVuSans-74"/>
      <use x="471.240234" xlink:href="#DejaVuSans-61"/>
      <use x="532.519531" xlink:href="#DejaVuSans-74"/>
      <use x="571.728516" xlink:href="#DejaVuSans-65"/>
     </g>
     <!-- speed = 0.84 mm/s -->
     <g transform="translate(367.967812 102.664125)scale(0.14 -0.14)">
      <defs>
       <path d="M 678 2906 
L 4684 2906 
L 4684 2381 
L 678 2381 
L 678 2906 
z
M 678 1631 
L 4684 1631 
L 4684 1100 
L 678 1100 
L 678 1631 
z
" id="DejaVuSans-3d" transform="scale(0.015625)"/>
       <path d="M 2034 2216 
Q 1584 2216 1326 1975 
Q 1069 1734 1069 1313 
Q 1069 891 1326 650 
Q 1584 409 2034 409 
Q 2484 409 2743 651 
Q 3003 894 3003 1313 
Q 3003 1734 2745 1975 
Q 2488 2216 2034 2216 
z
M 1403 2484 
Q 997 2584 770 2862 
Q 544 3141 544 3541 
Q 544 4100 942 4425 
Q 1341 4750 2034 4750 
Q 2731 4750 3128 4425 
Q 3525 4100 3525 3541 
Q 3525 3141 3298 2862 
Q 3072 2584 2669 2484 
Q 3125 2378 3379 2068 
Q 3634 1759 3634 1313 
Q 3634 634 3220 271 
Q 2806 -91 2034 -91 
Q 1263 -91 848 271 
Q 434 634 434 1313 
Q 434 1759 690 2068 
Q 947 2378 1403 2484 
z
M 1172 3481 
Q 1172 3119 1398 2916 
Q 1625 2713 2034 2713 
Q 2441 2713 2670 2916 
Q 2900 3119 2900 3481 
Q 2900 3844 2670 4047 
Q 2441 4250 2034 4250 
Q 1625 4250 1398 4047 
Q 1172 3844 1172 3481 
z
" id="DejaVuSans-38" transform="scale(0.015625)"/>
       <path d="M 2419 4116 
L 825 1625 
L 2419 1625 
L 2419 4116 
z
M 2253 4666 
L 3047 4666 
L 3047 1625 
L 3713 1625 
L 3713 1100 
L 3047 1100 
L 3047 0 
L 2419 0 
L 2419 1100 
L 313 1100 
L 313 1709 
L 2253 4666 
z
" id="DejaVuSans-34" transform="scale(0.015625)"/>
      </defs>
      <use xlink:href="#DejaVuSans-73"/>
      <use x="52.099609" xlink:href="#DejaVuSans-70"/>
      <use x="115.576172" xlink:href="#DejaVuSans-65"/>
      <use x="177.099609" xlink:href="#DejaVuSans-65"/>
      <use x="238.623047" xlink:href="#DejaVuSans-64"/>
      <use x="302.099609" xlink:href="#DejaVuSans-20"/>
      <use x="333.886719" xlink:href="#DejaVuSans-3d"/>
      <use x="417.675781" xlink:href="#DejaVuSans-20"/>
      <use x="449.462891" xlink:href="#DejaVuSans-30"/>
      <use x="513.085938" xlink:href="#DejaVuSans-2e"/>
      <use x="544.873047" xlink:href="#DejaVuSans-38"/>
      <use x="608.496094" xlink:href="#DejaVuSans-34"/>
      <use x="672.119141" xlink:href="#DejaVuSans-20"/>
      <use x="703.90625" xlink:href="#DejaVuSans-6d"/>
      <use x="801.318359" xlink:href="#DejaVuSans-6d"/>
      <use x="898.730469" xlink:href="#DejaVuSans-2f"/>
      <use x="932.421875" xlink:href="#DejaVuSans-73"/>
     </g>
    </g>
   </g>
  </g>
 </g>
 <defs>
  <clipPath id="p17b15c80b9">
   <rect height="277.2" width="446.4" x="72" y="43.2"/>
  </clipPath>
 </defs>
</svg>
