<?xml version="1.0" encoding="utf-8" standalone="no"?>
<!DOCTYPE svg PUBLIC "-//W3C//DTD SVG 1.1//EN"
  "http://www.w3.org/Graphics/SVG/1.1/DTD/svg11.dtd">
<svg height="360pt" version="1.1" viewBox="0 0 576 360" width="576pt" xmlns="http://www.w3.org/2000/svg" xmlns:xlink="http://www.w3.org/1999/xlink">
 <metadata>
  <rdf:RDF xmlns:cc="http://creativecommons.org/ns#" xmlns:dc="http://purl.org/dc/elements/1.1/" xmlns:rdf="http://www.w3.org/1999/02/22-rdf-syntax-ns#">
   <cc:Work>
    <dc:type rdf:resource="http://purl.org/dc/dcmitype/StillImage"/>
    <dc:date>2022-06-30T14:42:58.456354</dc:date>
    <dc:format>image/svg+xml</dc:format>
    <dc:creator>
     <cc:Agent>
      <dc:title>Matplotlib v3.4.3, https://matplotlib.org/</dc:title>
     </cc:Agent>
    </dc:creator>
   </cc:Work>
  </rdf:RDF>
 </metadata>
 <defs>
  <style type="text/css">*{stroke-linecap:butt;stroke-linejoin:round;}</style>
 </defs>
 <g id="figure_1">
  <g id="patch_1">
   <path d="M 0 360 
L 576 360 
L 576 0 
L 0 0 
z
" style="fill:#ffffff;"/>
  </g>
  <g id="axes_1">
   <g id="patch_2">
    <path d="M 72 320.4 
L 518.4 320.4 
L 518.4 43.2 
L 72 43.2 
z
" style="fill:#ffffff;"/>
   </g>
   <g id="matplotlib.axis_1">
    <g id="xtick_1">
     <g id="line2d_1">
      <defs>
       <path d="M 0 0 
L 0 3.5 
" id="m9fb34519d9" style="stroke:#000000;stroke-width:0.8;"/>
      </defs>
      <g>
       <use style="stroke:#000000;stroke-width:0.8;" x="72" xlink:href="#m9fb34519d9" y="320.4"/>
      </g>
     </g>
     <g id="text_1">
      <!-- 0.0 -->
      <g transform="translate(60.867812 338.037813)scale(0.14 -0.14)">
       <defs>
        <path d="M 2034 4250 
Q 1547 4250 1301 3770 
Q 1056 3291 1056 2328 
Q 1056 1369 1301 889 
Q 1547 409 2034 409 
Q 2525 409 2770 889 
Q 3016 1369 3016 2328 
Q 3016 3291 2770 3770 
Q 2525 4250 2034 4250 
z
M 2034 4750 
Q 2819 4750 3233 4129 
Q 3647 3509 3647 2328 
Q 3647 1150 3233 529 
Q 2819 -91 2034 -91 
Q 1250 -91 836 529 
Q 422 1150 422 2328 
Q 422 3509 836 4129 
Q 1250 4750 2034 4750 
z
" id="DejaVuSans-30" transform="scale(0.015625)"/>
        <path d="M 684 794 
L 1344 794 
L 1344 0 
L 684 0 
L 684 794 
z
" id="DejaVuSans-2e" transform="scale(0.015625)"/>
       </defs>
       <use xlink:href="#DejaVuSans-30"/>
       <use x="63.623047" xlink:href="#DejaVuSans-2e"/>
       <use x="95.410156" xlink:href="#DejaVuSans-30"/>
      </g>
     </g>
    </g>
    <g id="xtick_2">
     <g id="line2d_2">
      <g>
       <use style="stroke:#000000;stroke-width:0.8;" x="127.850265" xlink:href="#m9fb34519d9" y="320.4"/>
      </g>
     </g>
     <g id="text_2">
      <!-- 2.5 -->
      <g transform="translate(116.718078 338.037813)scale(0.14 -0.14)">
       <defs>
        <path d="M 1228 531 
L 3431 531 
L 3431 0 
L 469 0 
L 469 531 
Q 828 903 1448 1529 
Q 2069 2156 2228 2338 
Q 2531 2678 2651 2914 
Q 2772 3150 2772 3378 
Q 2772 3750 2511 3984 
Q 2250 4219 1831 4219 
Q 1534 4219 1204 4116 
Q 875 4013 500 3803 
L 500 4441 
Q 881 4594 1212 4672 
Q 1544 4750 1819 4750 
Q 2544 4750 2975 4387 
Q 3406 4025 3406 3419 
Q 3406 3131 3298 2873 
Q 3191 2616 2906 2266 
Q 2828 2175 2409 1742 
Q 1991 1309 1228 531 
z
" id="DejaVuSans-32" transform="scale(0.015625)"/>
        <path d="M 691 4666 
L 3169 4666 
L 3169 4134 
L 1269 4134 
L 1269 2991 
Q 1406 3038 1543 3061 
Q 1681 3084 1819 3084 
Q 2600 3084 3056 2656 
Q 3513 2228 3513 1497 
Q 3513 744 3044 326 
Q 2575 -91 1722 -91 
Q 1428 -91 1123 -41 
Q 819 9 494 109 
L 494 744 
Q 775 591 1075 516 
Q 1375 441 1709 441 
Q 2250 441 2565 725 
Q 2881 1009 2881 1497 
Q 2881 1984 2565 2268 
Q 2250 2553 1709 2553 
Q 1456 2553 1204 2497 
Q 953 2441 691 2322 
L 691 4666 
z
" id="DejaVuSans-35" transform="scale(0.015625)"/>
       </defs>
       <use xlink:href="#DejaVuSans-32"/>
       <use x="63.623047" xlink:href="#DejaVuSans-2e"/>
       <use x="95.410156" xlink:href="#DejaVuSans-35"/>
      </g>
     </g>
    </g>
    <g id="xtick_3">
     <g id="line2d_3">
      <g>
       <use style="stroke:#000000;stroke-width:0.8;" x="183.70053" xlink:href="#m9fb34519d9" y="320.4"/>
      </g>
     </g>
     <g id="text_3">
      <!-- 5.0 -->
      <g transform="translate(172.568343 338.037813)scale(0.14 -0.14)">
       <use xlink:href="#DejaVuSans-35"/>
       <use x="63.623047" xlink:href="#DejaVuSans-2e"/>
       <use x="95.410156" xlink:href="#DejaVuSans-30"/>
      </g>
     </g>
    </g>
    <g id="xtick_4">
     <g id="line2d_4">
      <g>
       <use style="stroke:#000000;stroke-width:0.8;" x="239.550796" xlink:href="#m9fb34519d9" y="320.4"/>
      </g>
     </g>
     <g id="text_4">
      <!-- 7.5 -->
      <g transform="translate(228.418608 338.037813)scale(0.14 -0.14)">
       <defs>
        <path d="M 525 4666 
L 3525 4666 
L 3525 4397 
L 1831 0 
L 1172 0 
L 2766 4134 
L 525 4134 
L 525 4666 
z
" id="DejaVuSans-37" transform="scale(0.015625)"/>
       </defs>
       <use xlink:href="#DejaVuSans-37"/>
       <use x="63.623047" xlink:href="#DejaVuSans-2e"/>
       <use x="95.410156" xlink:href="#DejaVuSans-35"/>
      </g>
     </g>
    </g>
    <g id="xtick_5">
     <g id="line2d_5">
      <g>
       <use style="stroke:#000000;stroke-width:0.8;" x="295.401061" xlink:href="#m9fb34519d9" y="320.4"/>
      </g>
     </g>
     <g id="text_5">
      <!-- 10.0 -->
      <g transform="translate(279.815123 338.037813)scale(0.14 -0.14)">
       <defs>
        <path d="M 794 531 
L 1825 531 
L 1825 4091 
L 703 3866 
L 703 4441 
L 1819 4666 
L 2450 4666 
L 2450 531 
L 3481 531 
L 3481 0 
L 794 0 
L 794 531 
z
" id="DejaVuSans-31" transform="scale(0.015625)"/>
       </defs>
       <use xlink:href="#DejaVuSans-31"/>
       <use x="63.623047" xlink:href="#DejaVuSans-30"/>
       <use x="127.246094" xlink:href="#DejaVuSans-2e"/>
       <use x="159.033203" xlink:href="#DejaVuSans-30"/>
      </g>
     </g>
    </g>
    <g id="xtick_6">
     <g id="line2d_6">
      <g>
       <use style="stroke:#000000;stroke-width:0.8;" x="351.251326" xlink:href="#m9fb34519d9" y="320.4"/>
      </g>
     </g>
     <g id="text_6">
      <!-- 12.5 -->
      <g transform="translate(335.665389 338.037813)scale(0.14 -0.14)">
       <use xlink:href="#DejaVuSans-31"/>
       <use x="63.623047" xlink:href="#DejaVuSans-32"/>
       <use x="127.246094" xlink:href="#DejaVuSans-2e"/>
       <use x="159.033203" xlink:href="#DejaVuSans-35"/>
      </g>
     </g>
    </g>
    <g id="xtick_7">
     <g id="line2d_7">
      <g>
       <use style="stroke:#000000;stroke-width:0.8;" x="407.101591" xlink:href="#m9fb34519d9" y="320.4"/>
      </g>
     </g>
     <g id="text_7">
      <!-- 15.0 -->
      <g transform="translate(391.515654 338.037813)scale(0.14 -0.14)">
       <use xlink:href="#DejaVuSans-31"/>
       <use x="63.623047" xlink:href="#DejaVuSans-35"/>
       <use x="127.246094" xlink:href="#DejaVuSans-2e"/>
       <use x="159.033203" xlink:href="#DejaVuSans-30"/>
      </g>
     </g>
    </g>
    <g id="xtick_8">
     <g id="line2d_8">
      <g>
       <use style="stroke:#000000;stroke-width:0.8;" x="462.951857" xlink:href="#m9fb34519d9" y="320.4"/>
      </g>
     </g>
     <g id="text_8">
      <!-- 17.5 -->
      <g transform="translate(447.365919 338.037813)scale(0.14 -0.14)">
       <use xlink:href="#DejaVuSans-31"/>
       <use x="63.623047" xlink:href="#DejaVuSans-37"/>
       <use x="127.246094" xlink:href="#DejaVuSans-2e"/>
       <use x="159.033203" xlink:href="#DejaVuSans-35"/>
      </g>
     </g>
    </g>
    <g id="text_9">
     <!-- Time [Seconds] -->
     <g transform="translate(233.23 357.106875)scale(0.16 -0.16)">
      <defs>
       <path d="M -19 4666 
L 3928 4666 
L 3928 4134 
L 2272 4134 
L 2272 0 
L 1638 0 
L 1638 4134 
L -19 4134 
L -19 4666 
z
" id="DejaVuSans-54" transform="scale(0.015625)"/>
       <path d="M 603 3500 
L 1178 3500 
L 1178 0 
L 603 0 
L 603 3500 
z
M 603 4863 
L 1178 4863 
L 1178 4134 
L 603 4134 
L 603 4863 
z
" id="DejaVuSans-69" transform="scale(0.015625)"/>
       <path d="M 3328 2828 
Q 3544 3216 3844 3400 
Q 4144 3584 4550 3584 
Q 5097 3584 5394 3201 
Q 5691 2819 5691 2113 
L 5691 0 
L 5113 0 
L 5113 2094 
Q 5113 2597 4934 2840 
Q 4756 3084 4391 3084 
Q 3944 3084 3684 2787 
Q 3425 2491 3425 1978 
L 3425 0 
L 2847 0 
L 2847 2094 
Q 2847 2600 2669 2842 
Q 2491 3084 2119 3084 
Q 1678 3084 1418 2786 
Q 1159 2488 1159 1978 
L 1159 0 
L 581 0 
L 581 3500 
L 1159 3500 
L 1159 2956 
Q 1356 3278 1631 3431 
Q 1906 3584 2284 3584 
Q 2666 3584 2933 3390 
Q 3200 3197 3328 2828 
z
" id="DejaVuSans-6d" transform="scale(0.015625)"/>
       <path d="M 3597 1894 
L 3597 1613 
L 953 1613 
Q 991 1019 1311 708 
Q 1631 397 2203 397 
Q 2534 397 2845 478 
Q 3156 559 3463 722 
L 3463 178 
Q 3153 47 2828 -22 
Q 2503 -91 2169 -91 
Q 1331 -91 842 396 
Q 353 884 353 1716 
Q 353 2575 817 3079 
Q 1281 3584 2069 3584 
Q 2775 3584 3186 3129 
Q 3597 2675 3597 1894 
z
M 3022 2063 
Q 3016 2534 2758 2815 
Q 2500 3097 2075 3097 
Q 1594 3097 1305 2825 
Q 1016 2553 972 2059 
L 3022 2063 
z
" id="DejaVuSans-65" transform="scale(0.015625)"/>
       <path id="DejaVuSans-20" transform="scale(0.015625)"/>
       <path d="M 550 4863 
L 1875 4863 
L 1875 4416 
L 1125 4416 
L 1125 -397 
L 1875 -397 
L 1875 -844 
L 550 -844 
L 550 4863 
z
" id="DejaVuSans-5b" transform="scale(0.015625)"/>
       <path d="M 3425 4513 
L 3425 3897 
Q 3066 4069 2747 4153 
Q 2428 4238 2131 4238 
Q 1616 4238 1336 4038 
Q 1056 3838 1056 3469 
Q 1056 3159 1242 3001 
Q 1428 2844 1947 2747 
L 2328 2669 
Q 3034 2534 3370 2195 
Q 3706 1856 3706 1288 
Q 3706 609 3251 259 
Q 2797 -91 1919 -91 
Q 1588 -91 1214 -16 
Q 841 59 441 206 
L 441 856 
Q 825 641 1194 531 
Q 1563 422 1919 422 
Q 2459 422 2753 634 
Q 3047 847 3047 1241 
Q 3047 1584 2836 1778 
Q 2625 1972 2144 2069 
L 1759 2144 
Q 1053 2284 737 2584 
Q 422 2884 422 3419 
Q 422 4038 858 4394 
Q 1294 4750 2059 4750 
Q 2388 4750 2728 4690 
Q 3069 4631 3425 4513 
z
" id="DejaVuSans-53" transform="scale(0.015625)"/>
       <path d="M 3122 3366 
L 3122 2828 
Q 2878 2963 2633 3030 
Q 2388 3097 2138 3097 
Q 1578 3097 1268 2742 
Q 959 2388 959 1747 
Q 959 1106 1268 751 
Q 1578 397 2138 397 
Q 2388 397 2633 464 
Q 2878 531 3122 666 
L 3122 134 
Q 2881 22 2623 -34 
Q 2366 -91 2075 -91 
Q 1284 -91 818 406 
Q 353 903 353 1747 
Q 353 2603 823 3093 
Q 1294 3584 2113 3584 
Q 2378 3584 2631 3529 
Q 2884 3475 3122 3366 
z
" id="DejaVuSans-63" transform="scale(0.015625)"/>
       <path d="M 1959 3097 
Q 1497 3097 1228 2736 
Q 959 2375 959 1747 
Q 959 1119 1226 758 
Q 1494 397 1959 397 
Q 2419 397 2687 759 
Q 2956 1122 2956 1747 
Q 2956 2369 2687 2733 
Q 2419 3097 1959 3097 
z
M 1959 3584 
Q 2709 3584 3137 3096 
Q 3566 2609 3566 1747 
Q 3566 888 3137 398 
Q 2709 -91 1959 -91 
Q 1206 -91 779 398 
Q 353 888 353 1747 
Q 353 2609 779 3096 
Q 1206 3584 1959 3584 
z
" id="DejaVuSans-6f" transform="scale(0.015625)"/>
       <path d="M 3513 2113 
L 3513 0 
L 2938 0 
L 2938 2094 
Q 2938 2591 2744 2837 
Q 2550 3084 2163 3084 
Q 1697 3084 1428 2787 
Q 1159 2491 1159 1978 
L 1159 0 
L 581 0 
L 581 3500 
L 1159 3500 
L 1159 2956 
Q 1366 3272 1645 3428 
Q 1925 3584 2291 3584 
Q 2894 3584 3203 3211 
Q 3513 2838 3513 2113 
z
" id="DejaVuSans-6e" transform="scale(0.015625)"/>
       <path d="M 2906 2969 
L 2906 4863 
L 3481 4863 
L 3481 0 
L 2906 0 
L 2906 525 
Q 2725 213 2448 61 
Q 2172 -91 1784 -91 
Q 1150 -91 751 415 
Q 353 922 353 1747 
Q 353 2572 751 3078 
Q 1150 3584 1784 3584 
Q 2172 3584 2448 3432 
Q 2725 3281 2906 2969 
z
M 947 1747 
Q 947 1113 1208 752 
Q 1469 391 1925 391 
Q 2381 391 2643 752 
Q 2906 1113 2906 1747 
Q 2906 2381 2643 2742 
Q 2381 3103 1925 3103 
Q 1469 3103 1208 2742 
Q 947 2381 947 1747 
z
" id="DejaVuSans-64" transform="scale(0.015625)"/>
       <path d="M 2834 3397 
L 2834 2853 
Q 2591 2978 2328 3040 
Q 2066 3103 1784 3103 
Q 1356 3103 1142 2972 
Q 928 2841 928 2578 
Q 928 2378 1081 2264 
Q 1234 2150 1697 2047 
L 1894 2003 
Q 2506 1872 2764 1633 
Q 3022 1394 3022 966 
Q 3022 478 2636 193 
Q 2250 -91 1575 -91 
Q 1294 -91 989 -36 
Q 684 19 347 128 
L 347 722 
Q 666 556 975 473 
Q 1284 391 1588 391 
Q 1994 391 2212 530 
Q 2431 669 2431 922 
Q 2431 1156 2273 1281 
Q 2116 1406 1581 1522 
L 1381 1569 
Q 847 1681 609 1914 
Q 372 2147 372 2553 
Q 372 3047 722 3315 
Q 1072 3584 1716 3584 
Q 2034 3584 2315 3537 
Q 2597 3491 2834 3397 
z
" id="DejaVuSans-73" transform="scale(0.015625)"/>
       <path d="M 1947 4863 
L 1947 -844 
L 622 -844 
L 622 -397 
L 1369 -397 
L 1369 4416 
L 622 4416 
L 622 4863 
L 1947 4863 
z
" id="DejaVuSans-5d" transform="scale(0.015625)"/>
      </defs>
      <use xlink:href="#DejaVuSans-54"/>
      <use x="57.958984" xlink:href="#DejaVuSans-69"/>
      <use x="85.742188" xlink:href="#DejaVuSans-6d"/>
      <use x="183.154297" xlink:href="#DejaVuSans-65"/>
      <use x="244.677734" xlink:href="#DejaVuSans-20"/>
      <use x="276.464844" xlink:href="#DejaVuSans-5b"/>
      <use x="315.478516" xlink:href="#DejaVuSans-53"/>
      <use x="378.955078" xlink:href="#DejaVuSans-65"/>
      <use x="440.478516" xlink:href="#DejaVuSans-63"/>
      <use x="495.458984" xlink:href="#DejaVuSans-6f"/>
      <use x="556.640625" xlink:href="#DejaVuSans-6e"/>
      <use x="620.019531" xlink:href="#DejaVuSans-64"/>
      <use x="683.496094" xlink:href="#DejaVuSans-73"/>
      <use x="735.595703" xlink:href="#DejaVuSans-5d"/>
     </g>
    </g>
   </g>
   <g id="matplotlib.axis_2">
    <g id="ytick_1">
     <g id="line2d_9">
      <defs>
       <path d="M 0 0 
L -3.5 0 
" id="mf06f8f14cc" style="stroke:#000000;stroke-width:0.8;"/>
      </defs>
      <g>
       <use style="stroke:#000000;stroke-width:0.8;" x="72" xlink:href="#mf06f8f14cc" y="307.8"/>
      </g>
     </g>
     <g id="text_10">
      <!-- 0 -->
      <g transform="translate(56.0925 313.118906)scale(0.14 -0.14)">
       <use xlink:href="#DejaVuSans-30"/>
      </g>
     </g>
    </g>
    <g id="ytick_2">
     <g id="line2d_10">
      <g>
       <use style="stroke:#000000;stroke-width:0.8;" x="72" xlink:href="#mf06f8f14cc" y="274.858824"/>
      </g>
     </g>
     <g id="text_11">
      <!-- 2 -->
      <g transform="translate(56.0925 280.17773)scale(0.14 -0.14)">
       <use xlink:href="#DejaVuSans-32"/>
      </g>
     </g>
    </g>
    <g id="ytick_3">
     <g id="line2d_11">
      <g>
       <use style="stroke:#000000;stroke-width:0.8;" x="72" xlink:href="#mf06f8f14cc" y="241.917647"/>
      </g>
     </g>
     <g id="text_12">
      <!-- 4 -->
      <g transform="translate(56.0925 247.236553)scale(0.14 -0.14)">
       <defs>
        <path d="M 2419 4116 
L 825 1625 
L 2419 1625 
L 2419 4116 
z
M 2253 4666 
L 3047 4666 
L 3047 1625 
L 3713 1625 
L 3713 1100 
L 3047 1100 
L 3047 0 
L 2419 0 
L 2419 1100 
L 313 1100 
L 313 1709 
L 2253 4666 
z
" id="DejaVuSans-34" transform="scale(0.015625)"/>
       </defs>
       <use xlink:href="#DejaVuSans-34"/>
      </g>
     </g>
    </g>
    <g id="ytick_4">
     <g id="line2d_12">
      <g>
       <use style="stroke:#000000;stroke-width:0.8;" x="72" xlink:href="#mf06f8f14cc" y="208.976471"/>
      </g>
     </g>
     <g id="text_13">
      <!-- 6 -->
      <g transform="translate(56.0925 214.295377)scale(0.14 -0.14)">
       <defs>
        <path d="M 2113 2584 
Q 1688 2584 1439 2293 
Q 1191 2003 1191 1497 
Q 1191 994 1439 701 
Q 1688 409 2113 409 
Q 2538 409 2786 701 
Q 3034 994 3034 1497 
Q 3034 2003 2786 2293 
Q 2538 2584 2113 2584 
z
M 3366 4563 
L 3366 3988 
Q 3128 4100 2886 4159 
Q 2644 4219 2406 4219 
Q 1781 4219 1451 3797 
Q 1122 3375 1075 2522 
Q 1259 2794 1537 2939 
Q 1816 3084 2150 3084 
Q 2853 3084 3261 2657 
Q 3669 2231 3669 1497 
Q 3669 778 3244 343 
Q 2819 -91 2113 -91 
Q 1303 -91 875 529 
Q 447 1150 447 2328 
Q 447 3434 972 4092 
Q 1497 4750 2381 4750 
Q 2619 4750 2861 4703 
Q 3103 4656 3366 4563 
z
" id="DejaVuSans-36" transform="scale(0.015625)"/>
       </defs>
       <use xlink:href="#DejaVuSans-36"/>
      </g>
     </g>
    </g>
    <g id="ytick_5">
     <g id="line2d_13">
      <g>
       <use style="stroke:#000000;stroke-width:0.8;" x="72" xlink:href="#mf06f8f14cc" y="176.035294"/>
      </g>
     </g>
     <g id="text_14">
      <!-- 8 -->
      <g transform="translate(56.0925 181.3542)scale(0.14 -0.14)">
       <defs>
        <path d="M 2034 2216 
Q 1584 2216 1326 1975 
Q 1069 1734 1069 1313 
Q 1069 891 1326 650 
Q 1584 409 2034 409 
Q 2484 409 2743 651 
Q 3003 894 3003 1313 
Q 3003 1734 2745 1975 
Q 2488 2216 2034 2216 
z
M 1403 2484 
Q 997 2584 770 2862 
Q 544 3141 544 3541 
Q 544 4100 942 4425 
Q 1341 4750 2034 4750 
Q 2731 4750 3128 4425 
Q 3525 4100 3525 3541 
Q 3525 3141 3298 2862 
Q 3072 2584 2669 2484 
Q 3125 2378 3379 2068 
Q 3634 1759 3634 1313 
Q 3634 634 3220 271 
Q 2806 -91 2034 -91 
Q 1263 -91 848 271 
Q 434 634 434 1313 
Q 434 1759 690 2068 
Q 947 2378 1403 2484 
z
M 1172 3481 
Q 1172 3119 1398 2916 
Q 1625 2713 2034 2713 
Q 2441 2713 2670 2916 
Q 2900 3119 2900 3481 
Q 2900 3844 2670 4047 
Q 2441 4250 2034 4250 
Q 1625 4250 1398 4047 
Q 1172 3844 1172 3481 
z
" id="DejaVuSans-38" transform="scale(0.015625)"/>
       </defs>
       <use xlink:href="#DejaVuSans-38"/>
      </g>
     </g>
    </g>
    <g id="ytick_6">
     <g id="line2d_14">
      <g>
       <use style="stroke:#000000;stroke-width:0.8;" x="72" xlink:href="#mf06f8f14cc" y="143.094118"/>
      </g>
     </g>
     <g id="text_15">
      <!-- 10 -->
      <g transform="translate(47.185 148.413024)scale(0.14 -0.14)">
       <use xlink:href="#DejaVuSans-31"/>
       <use x="63.623047" xlink:href="#DejaVuSans-30"/>
      </g>
     </g>
    </g>
    <g id="ytick_7">
     <g id="line2d_15">
      <g>
       <use style="stroke:#000000;stroke-width:0.8;" x="72" xlink:href="#mf06f8f14cc" y="110.152941"/>
      </g>
     </g>
     <g id="text_16">
      <!-- 12 -->
      <g transform="translate(47.185 115.471847)scale(0.14 -0.14)">
       <use xlink:href="#DejaVuSans-31"/>
       <use x="63.623047" xlink:href="#DejaVuSans-32"/>
      </g>
     </g>
    </g>
    <g id="ytick_8">
     <g id="line2d_16">
      <g>
       <use style="stroke:#000000;stroke-width:0.8;" x="72" xlink:href="#mf06f8f14cc" y="77.211765"/>
      </g>
     </g>
     <g id="text_17">
      <!-- 14 -->
      <g transform="translate(47.185 82.530671)scale(0.14 -0.14)">
       <use xlink:href="#DejaVuSans-31"/>
       <use x="63.623047" xlink:href="#DejaVuSans-34"/>
      </g>
     </g>
    </g>
    <g id="ytick_9">
     <g id="line2d_17">
      <g>
       <use style="stroke:#000000;stroke-width:0.8;" x="72" xlink:href="#mf06f8f14cc" y="44.270588"/>
      </g>
     </g>
     <g id="text_18">
      <!-- 16 -->
      <g transform="translate(47.185 49.589494)scale(0.14 -0.14)">
       <use xlink:href="#DejaVuSans-31"/>
       <use x="63.623047" xlink:href="#DejaVuSans-36"/>
      </g>
     </g>
    </g>
    <g id="text_19">
     <!-- Position [mm] -->
     <g transform="translate(39.8575 237.3125)rotate(-90)scale(0.16 -0.16)">
      <defs>
       <path d="M 1259 4147 
L 1259 2394 
L 2053 2394 
Q 2494 2394 2734 2622 
Q 2975 2850 2975 3272 
Q 2975 3691 2734 3919 
Q 2494 4147 2053 4147 
L 1259 4147 
z
M 628 4666 
L 2053 4666 
Q 2838 4666 3239 4311 
Q 3641 3956 3641 3272 
Q 3641 2581 3239 2228 
Q 2838 1875 2053 1875 
L 1259 1875 
L 1259 0 
L 628 0 
L 628 4666 
z
" id="DejaVuSans-50" transform="scale(0.015625)"/>
       <path d="M 1172 4494 
L 1172 3500 
L 2356 3500 
L 2356 3053 
L 1172 3053 
L 1172 1153 
Q 1172 725 1289 603 
Q 1406 481 1766 481 
L 2356 481 
L 2356 0 
L 1766 0 
Q 1100 0 847 248 
Q 594 497 594 1153 
L 594 3053 
L 172 3053 
L 172 3500 
L 594 3500 
L 594 4494 
L 1172 4494 
z
" id="DejaVuSans-74" transform="scale(0.015625)"/>
      </defs>
      <use xlink:href="#DejaVuSans-50"/>
      <use x="56.677734" xlink:href="#DejaVuSans-6f"/>
      <use x="117.859375" xlink:href="#DejaVuSans-73"/>
      <use x="169.958984" xlink:href="#DejaVuSans-69"/>
      <use x="197.742188" xlink:href="#DejaVuSans-74"/>
      <use x="236.951172" xlink:href="#DejaVuSans-69"/>
      <use x="264.734375" xlink:href="#DejaVuSans-6f"/>
      <use x="325.916016" xlink:href="#DejaVuSans-6e"/>
      <use x="389.294922" xlink:href="#DejaVuSans-20"/>
      <use x="421.082031" xlink:href="#DejaVuSans-5b"/>
      <use x="460.095703" xlink:href="#DejaVuSans-6d"/>
      <use x="557.507812" xlink:href="#DejaVuSans-6d"/>
      <use x="654.919922" xlink:href="#DejaVuSans-5d"/>
     </g>
    </g>
   </g>
   <g id="line2d_18">
    <path clip-path="url(#p6202baf193)" d="M 72 307.8 
L 122.981616 306.702897 
L 124.846797 306.145084 
L 126.090251 305.584528 
L 126.711978 305.111773 
L 127.333705 304.411309 
L 127.955432 303.416805 
L 129.198886 300.339964 
L 129.820613 299.264255 
L 131.064067 297.808538 
L 132.929248 296.162614 
L 134.794429 294.670819 
L 136.037883 293.779436 
L 137.903064 292.341373 
L 142.255153 289.320009 
L 143.498607 288.430022 
L 144.742061 287.539436 
L 149.09415 284.832967 
L 150.337604 283.962196 
L 150.959331 283.518889 
L 152.202786 282.873401 
L 153.44624 282.066049 
L 154.067967 281.672554 
L 154.689694 281.106108 
L 155.311421 280.87692 
L 157.176602 279.72654 
L 157.798329 279.133606 
L 161.528691 276.952142 
L 162.150418 276.596991 
L 162.772145 276.013816 
L 173.963231 269.229537 
L 174.584958 268.703221 
L 175.206685 268.465574 
L 176.450139 267.701611 
L 177.071866 267.100022 
L 178.31532 266.336059 
L 179.558774 265.764253 
L 180.180501 265.382271 
L 180.802228 264.795309 
L 181.423955 264.593083 
L 182.045682 264.236326 
L 182.667409 263.717334 
L 183.910864 263.062931 
L 187.641226 260.751345 
L 188.262953 260.169452 
L 190.749861 258.833683 
L 191.371588 258.305572 
L 191.993315 258.06972 
L 193.236769 257.28568 
L 193.858496 256.704167 
L 195.10195 255.940204 
L 195.723677 255.715471 
L 196.345404 255.14879 
L 196.967131 254.843328 
L 198.210585 254.002846 
L 199.454039 253.32996 
L 200.075766 253.049058 
L 201.31922 252.071415 
L 205.049582 249.867502 
L 205.671309 249.583773 
L 206.914763 248.627653 
L 208.158217 248.055847 
L 210.023398 246.909902 
L 210.645125 246.308313 
L 214.375487 244.20858 
L 214.997214 243.826599 
L 215.618942 243.22501 
L 216.240669 242.942586 
L 217.484123 242.079065 
L 222.457939 239.049087 
L 223.079666 238.805937 
L 224.32312 237.97214 
L 225.566574 237.058403 
L 226.188301 236.676421 
L 227.431755 236.132066 
L 228.053482 235.530477 
L 231.162117 233.6476 
L 231.783844 233.430744 
L 232.405571 233.048763 
L 233.027298 232.447174 
L 234.270752 231.693129 
L 234.892479 231.478265 
L 235.514206 230.919247 
L 238.001114 229.583478 
L 238.622841 228.981889 
L 240.488022 228.055552 
L 241.109749 227.584766 
L 241.731476 227.264138 
L 242.353203 226.689999 
L 242.97493 226.308018 
L 244.218384 225.736212 
L 244.840111 225.35423 
L 245.461838 224.769391 
L 246.083565 224.567166 
L 246.705292 223.988678 
L 248.570474 223.03489 
L 249.813928 222.270927 
L 251.057382 221.287356 
L 253.54429 219.797767 
L 254.166017 219.569605 
L 254.787744 219.187624 
L 255.409471 218.599054 
L 257.274652 217.659697 
L 257.896379 217.058108 
L 259.139833 216.486302 
L 260.383287 215.530182 
L 261.626741 214.958376 
L 262.248468 214.356786 
L 264.735376 212.872851 
L 265.357103 212.639035 
L 266.600557 211.875072 
L 267.222284 211.300934 
L 268.465738 210.512502 
L 269.087465 210.283437 
L 269.709192 209.745557 
L 270.952646 209.022579 
L 272.817827 207.835649 
L 273.439554 207.471364 
L 274.061281 207.2565 
L 277.791643 204.752346 
L 279.656825 203.798558 
L 282.143733 202.054694 
L 282.76546 201.852469 
L 283.387187 201.287061 
L 284.630641 200.546448 
L 285.252368 200.331584 
L 288.361003 198.203758 
L 288.98273 197.946073 
L 289.604457 197.515032 
L 290.847911 196.867988 
L 291.469638 196.486007 
L 292.091365 195.899072 
L 293.334819 195.130206 
L 293.956546 194.92798 
L 295.2 194.182007 
L 296.443454 193.37099 
L 297.686908 192.433407 
L 298.930362 191.65517 
L 299.552089 191.273188 
L 300.795543 190.716342 
L 301.41727 190.127243 
L 304.525905 188.205718 
L 305.147632 188.003492 
L 305.769359 187.64553 
L 306.391086 187.04394 
L 307.63454 186.279977 
L 308.256267 186.050711 
L 308.877994 185.61967 
L 310.121448 184.944208 
L 310.743175 184.562226 
L 311.364903 183.960637 
L 313.230084 182.814692 
L 313.851811 182.588253 
L 314.473538 182.050729 
L 315.716992 181.295129 
L 316.338719 181.080265 
L 316.960446 180.71496 
L 317.582173 180.11337 
L 318.825627 179.349407 
L 319.447354 179.125795 
L 320.690808 178.39562 
L 321.312535 177.819977 
L 323.799443 176.312505 
L 324.42117 175.992397 
L 325.664624 175.120159 
L 327.529805 174.166372 
L 328.151532 173.574475 
L 329.394986 172.850261 
L 330.016713 172.638446 
L 330.63844 172.256464 
L 331.260167 171.654875 
L 333.125348 170.701087 
L 333.747075 170.108811 
L 335.612256 169.173161 
L 336.233983 168.791179 
L 336.85571 168.18959 
L 337.477437 167.876338 
L 338.720891 167.043645 
L 339.964345 166.471839 
L 341.829526 165.325894 
L 342.451253 164.724305 
L 344.316435 163.770517 
L 344.938162 163.196379 
L 346.181616 162.624573 
L 346.803343 162.022983 
L 347.42507 161.641002 
L 348.046797 161.3918 
L 349.290251 160.495057 
L 351.777159 159.012393 
L 352.398886 158.777306 
L 353.020613 158.395325 
L 353.64234 157.793735 
L 359.237883 154.467311 
L 360.481337 153.778315 
L 365.455153 150.570315 
L 366.07688 150.31265 
L 367.320334 149.527396 
L 367.942061 148.953258 
L 371.050696 147.235507 
L 372.29415 146.35136 
L 372.915877 145.869955 
L 373.537604 145.593603 
L 374.781058 144.723 
L 377.267967 143.211076 
L 377.889694 143.005935 
L 385.972145 137.806604 
L 386.593872 137.59174 
L 387.215599 137.011834 
L 388.459053 136.286587 
L 389.08078 136.074606 
L 393.432869 133.374368 
L 394.054596 132.992386 
L 394.676323 132.41129 
L 397.163231 130.881688 
L 397.784958 130.666824 
L 398.406685 130.291065 
L 399.028412 129.705119 
L 401.51532 128.363439 
L 402.137047 127.779567 
L 405.867409 125.465103 
L 406.489136 125.262877 
L 407.732591 124.506439 
L 408.354318 123.932301 
L 408.976045 123.55032 
L 410.219499 122.978513 
L 412.08468 121.832569 
L 412.706407 121.230979 
L 418.923677 117.462897 
L 420.167131 116.811907 
L 423.275766 114.901999 
L 423.897493 114.30041 
L 425.140947 113.569398 
L 425.762674 113.346622 
L 427.627855 112.200677 
L 428.249582 111.599088 
L 428.871309 111.217106 
L 430.114763 110.672751 
L 431.979944 109.499356 
L 432.601671 108.925217 
L 438.197214 105.567535 
L 439.440669 104.888126 
L 440.684123 104.124163 
L 441.30585 103.522574 
L 446.901393 100.157665 
L 447.52312 99.88735 
L 456.849025 93.893248 
L 458.092479 93.346327 
L 461.201114 91.408968 
L 461.822841 90.83483 
L 464.931476 88.901151 
L 465.553203 88.686286 
L 469.905292 86.033776 
L 471.770474 84.86038 
L 472.392201 84.286242 
L 473.635655 83.522279 
L 474.257382 83.284799 
L 474.879109 82.730865 
L 475.500836 82.411692 
L 476.74429 81.58492 
L 477.987744 81.013114 
L 482.339833 78.313524 
L 482.96156 77.737654 
L 484.826741 76.591709 
L 485.448468 76.359883 
L 487.935376 74.65435 
L 489.17883 74.082544 
L 491.044011 72.936599 
L 491.665738 72.33501 
L 495.3961 70.080873 
L 496.017827 69.853296 
L 500.991643 66.769993 
L 502.235097 65.813873 
L 503.478552 65.242067 
L 504.100279 64.66572 
L 504.722006 64.463494 
L 505.343733 63.876514 
L 506.587187 63.155957 
L 507.208914 62.922727 
L 509.074095 61.776782 
L 509.695822 61.175193 
L 514.047911 58.616552 
L 514.669638 58.311497 
L 515.291365 57.741231 
L 515.913092 57.539006 
L 517.156546 56.75612 
L 517.778273 56.181982 
L 518.4 55.8 
L 518.4 55.8 
" style="fill:none;stroke:#ff0000;stroke-linecap:square;stroke-width:2;"/>
   </g>
   <g id="patch_3">
    <path d="M 72 320.4 
L 72 43.2 
" style="fill:none;stroke:#000000;stroke-linecap:square;stroke-linejoin:miter;stroke-width:0.8;"/>
   </g>
   <g id="patch_4">
    <path d="M 518.4 320.4 
L 518.4 43.2 
" style="fill:none;stroke:#000000;stroke-linecap:square;stroke-linejoin:miter;stroke-width:0.8;"/>
   </g>
   <g id="patch_5">
    <path d="M 72 320.4 
L 518.4 320.4 
" style="fill:none;stroke:#000000;stroke-linecap:square;stroke-linejoin:miter;stroke-width:0.8;"/>
   </g>
   <g id="patch_6">
    <path d="M 72 43.2 
L 518.4 43.2 
" style="fill:none;stroke:#000000;stroke-linecap:square;stroke-linejoin:miter;stroke-width:0.8;"/>
   </g>
   <g id="text_20">
    <!-- Front Position -->
    <g transform="translate(227.804688 37.2)scale(0.2 -0.2)">
     <defs>
      <path d="M 628 4666 
L 3309 4666 
L 3309 4134 
L 1259 4134 
L 1259 2759 
L 3109 2759 
L 3109 2228 
L 1259 2228 
L 1259 0 
L 628 0 
L 628 4666 
z
" id="DejaVuSans-46" transform="scale(0.015625)"/>
      <path d="M 2631 2963 
Q 2534 3019 2420 3045 
Q 2306 3072 2169 3072 
Q 1681 3072 1420 2755 
Q 1159 2438 1159 1844 
L 1159 0 
L 581 0 
L 581 3500 
L 1159 3500 
L 1159 2956 
Q 1341 3275 1631 3429 
Q 1922 3584 2338 3584 
Q 2397 3584 2469 3576 
Q 2541 3569 2628 3553 
L 2631 2963 
z
" id="DejaVuSans-72" transform="scale(0.015625)"/>
     </defs>
     <use xlink:href="#DejaVuSans-46"/>
     <use x="50.269531" xlink:href="#DejaVuSans-72"/>
     <use x="89.132812" xlink:href="#DejaVuSans-6f"/>
     <use x="150.314453" xlink:href="#DejaVuSans-6e"/>
     <use x="213.693359" xlink:href="#DejaVuSans-74"/>
     <use x="252.902344" xlink:href="#DejaVuSans-20"/>
     <use x="284.689453" xlink:href="#DejaVuSans-50"/>
     <use x="341.367188" xlink:href="#DejaVuSans-6f"/>
     <use x="402.548828" xlink:href="#DejaVuSans-73"/>
     <use x="454.648438" xlink:href="#DejaVuSans-69"/>
     <use x="482.431641" xlink:href="#DejaVuSans-74"/>
     <use x="521.640625" xlink:href="#DejaVuSans-69"/>
     <use x="549.423828" xlink:href="#DejaVuSans-6f"/>
     <use x="610.605469" xlink:href="#DejaVuSans-6e"/>
    </g>
   </g>
  </g>
 </g>
 <defs>
  <clipPath id="p6202baf193">
   <rect height="277.2" width="446.4" x="72" y="43.2"/>
  </clipPath>
 </defs>
</svg>
