<?xml version="1.0" encoding="utf-8" standalone="no"?>
<!DOCTYPE svg PUBLIC "-//W3C//DTD SVG 1.1//EN"
  "http://www.w3.org/Graphics/SVG/1.1/DTD/svg11.dtd">
<svg height="360pt" version="1.1" viewBox="0 0 576 360" width="576pt" xmlns="http://www.w3.org/2000/svg" xmlns:xlink="http://www.w3.org/1999/xlink">
 <metadata>
  <rdf:RDF xmlns:cc="http://creativecommons.org/ns#" xmlns:dc="http://purl.org/dc/elements/1.1/" xmlns:rdf="http://www.w3.org/1999/02/22-rdf-syntax-ns#">
   <cc:Work>
    <dc:type rdf:resource="http://purl.org/dc/dcmitype/StillImage"/>
    <dc:date>2022-06-30T14:22:13.069577</dc:date>
    <dc:format>image/svg+xml</dc:format>
    <dc:creator>
     <cc:Agent>
      <dc:title>Matplotlib v3.4.3, https://matplotlib.org/</dc:title>
     </cc:Agent>
    </dc:creator>
   </cc:Work>
  </rdf:RDF>
 </metadata>
 <defs>
  <style type="text/css">*{stroke-linecap:butt;stroke-linejoin:round;}</style>
 </defs>
 <g id="figure_1">
  <g id="patch_1">
   <path d="M 0 360 
L 576 360 
L 576 0 
L 0 0 
z
" style="fill:#ffffff;"/>
  </g>
  <g id="axes_1">
   <g id="patch_2">
    <path d="M 72 320.4 
L 518.4 320.4 
L 518.4 43.2 
L 72 43.2 
z
" style="fill:#ffffff;"/>
   </g>
   <g id="PolyCollection_1">
    <defs>
     <path d="M 72 -200.753535 
L 72 -205.388869 
L 72.47897 -205.388869 
L 72.95794 -205.388869 
L 73.43691 -205.388869 
L 73.91588 -205.388869 
L 74.39485 -205.388869 
L 74.87382 -205.388869 
L 75.35279 -205.388869 
L 75.83176 -205.388869 
L 76.31073 -205.388869 
L 76.7897 -205.388869 
L 77.26867 -205.388869 
L 77.747639 -205.388869 
L 78.226609 -205.388869 
L 78.705579 -205.388869 
L 79.184549 -205.388869 
L 79.663519 -205.388869 
L 80.142489 -205.388869 
L 80.621459 -205.388869 
L 81.100429 -205.388869 
L 81.579399 -205.388869 
L 82.058369 -205.388869 
L 82.537339 -205.388869 
L 83.016309 -205.388869 
L 83.495279 -205.388869 
L 83.974249 -205.388869 
L 84.453219 -205.388869 
L 84.932189 -205.388869 
L 85.411159 -205.388869 
L 85.890129 -205.388869 
L 86.369099 -205.388869 
L 86.848069 -205.388869 
L 87.327039 -205.388869 
L 87.806009 -205.388869 
L 88.284979 -205.388869 
L 88.763948 -205.388869 
L 89.242918 -205.388869 
L 89.721888 -205.388869 
L 90.200858 -205.388869 
L 90.679828 -205.388869 
L 91.158798 -205.388869 
L 91.637768 -205.388869 
L 92.116738 -205.388869 
L 92.595708 -205.388869 
L 93.074678 -205.388869 
L 93.553648 -205.388869 
L 94.032618 -205.388869 
L 94.511588 -205.388869 
L 94.990558 -205.388869 
L 95.469528 -205.388869 
L 95.948498 -205.388869 
L 96.427468 -205.388869 
L 96.906438 -205.388869 
L 97.385408 -205.388869 
L 97.864378 -205.388869 
L 98.343348 -205.388869 
L 98.822318 -205.388869 
L 99.301288 -205.388869 
L 99.780258 -205.388869 
L 100.259227 -205.388869 
L 100.738197 -205.388869 
L 101.217167 -205.388869 
L 101.696137 -205.388869 
L 102.175107 -205.388869 
L 102.654077 -205.388869 
L 103.133047 -205.388869 
L 103.612017 -205.388869 
L 104.090987 -205.388869 
L 104.569957 -205.388869 
L 105.048927 -205.388869 
L 105.527897 -205.388869 
L 106.006867 -205.388869 
L 106.485837 -205.388869 
L 106.964807 -205.388869 
L 107.443777 -205.388869 
L 107.922747 -205.388869 
L 108.401717 -205.388869 
L 108.880687 -205.388869 
L 109.359657 -205.388869 
L 109.838627 -205.388869 
L 110.317597 -205.388869 
L 110.796567 -205.388869 
L 111.275536 -205.388869 
L 111.754506 -205.388869 
L 112.233476 -205.388869 
L 112.712446 -205.388869 
L 113.191416 -205.388869 
L 113.670386 -205.388869 
L 114.149356 -205.388869 
L 114.628326 -205.388869 
L 115.107296 -205.388869 
L 115.586266 -205.388869 
L 116.065236 -205.388869 
L 116.544206 -205.388869 
L 117.023176 -205.388869 
L 117.502146 -205.388869 
L 117.981116 -205.388869 
L 118.460086 -205.388869 
L 118.939056 -205.388869 
L 119.418026 -205.388869 
L 119.896996 -205.388869 
L 120.375966 -205.388869 
L 120.854936 -205.388869 
L 121.333906 -205.388869 
L 121.812876 -205.388869 
L 122.291845 -205.388869 
L 122.770815 -205.388869 
L 123.249785 -205.388869 
L 123.728755 -205.388869 
L 124.207725 -205.388869 
L 124.686695 -205.388869 
L 125.165665 -205.388869 
L 125.644635 -205.388869 
L 126.123605 -205.388869 
L 126.602575 -205.388869 
L 127.081545 -205.388869 
L 127.560515 -205.388869 
L 128.039485 -205.388869 
L 128.518455 -205.388869 
L 128.997425 -205.388869 
L 129.476395 -205.388869 
L 129.955365 -205.388869 
L 130.434335 -205.388869 
L 130.913305 -205.388869 
L 131.392275 -205.388869 
L 131.871245 -205.388869 
L 132.350215 -205.388869 
L 132.829185 -205.388869 
L 133.308155 -205.388869 
L 133.787124 -205.388869 
L 134.266094 -205.388869 
L 134.745064 -205.388869 
L 135.224034 -205.388869 
L 135.703004 -205.388869 
L 136.181974 -205.388869 
L 136.660944 -205.388869 
L 137.139914 -205.388869 
L 137.618884 -205.388869 
L 138.097854 -205.388869 
L 138.576824 -205.388869 
L 139.055794 -205.388869 
L 139.534764 -205.388869 
L 140.013734 -205.388869 
L 140.492704 -205.388869 
L 140.971674 -205.388869 
L 141.450644 -205.388869 
L 141.929614 -205.388869 
L 142.408584 -205.388869 
L 142.887554 -205.388869 
L 143.366524 -205.388869 
L 143.845494 -205.388869 
L 144.324464 -205.388869 
L 144.803433 -205.388869 
L 145.282403 -205.388869 
L 145.761373 -205.388869 
L 146.240343 -205.388869 
L 146.719313 -205.388869 
L 147.198283 -205.388869 
L 147.677253 -205.388869 
L 148.156223 -205.388869 
L 148.635193 -205.388869 
L 149.114163 -205.388869 
L 149.593133 -205.388869 
L 150.072103 -205.388869 
L 150.551073 -205.388869 
L 151.030043 -205.388869 
L 151.509013 -205.388869 
L 151.987983 -205.388869 
L 152.466953 -205.388869 
L 152.945923 -205.388869 
L 153.424893 -205.388869 
L 153.903863 -205.388869 
L 154.382833 -205.388869 
L 154.861803 -205.388869 
L 155.340773 -205.388869 
L 155.819742 -205.388869 
L 156.298712 -205.388869 
L 156.777682 -205.388869 
L 157.256652 -205.388869 
L 157.735622 -205.388869 
L 158.214592 -205.388869 
L 158.693562 -205.388869 
L 159.172532 -205.388869 
L 159.651502 -205.388869 
L 160.130472 -205.388869 
L 160.609442 -205.388869 
L 161.088412 -205.388869 
L 161.567382 -205.388869 
L 162.046352 -205.388869 
L 162.525322 -205.388869 
L 163.004292 -205.388869 
L 163.483262 -205.388869 
L 163.962232 -205.388869 
L 164.441202 -205.388869 
L 164.920172 -205.388869 
L 165.399142 -205.388869 
L 165.878112 -205.388869 
L 166.357082 -205.388869 
L 166.836052 -205.388869 
L 167.315021 -205.388869 
L 167.793991 -205.388869 
L 168.272961 -205.388869 
L 168.751931 -205.388869 
L 169.230901 -205.388869 
L 169.709871 -205.388869 
L 170.188841 -205.388869 
L 170.667811 -205.388869 
L 171.146781 -205.388869 
L 171.625751 -205.388869 
L 172.104721 -205.388869 
L 172.583691 -205.388869 
L 173.062661 -205.388869 
L 173.541631 -205.388869 
L 174.020601 -205.388869 
L 174.499571 -205.388869 
L 174.978541 -205.388869 
L 175.457511 -205.388869 
L 175.936481 -205.388869 
L 176.415451 -205.388869 
L 176.894421 -205.388869 
L 177.373391 -205.388869 
L 177.852361 -205.388869 
L 178.33133 -205.388869 
L 178.8103 -205.388869 
L 179.28927 -205.388869 
L 179.76824 -205.388869 
L 180.24721 -205.388869 
L 180.72618 -205.388869 
L 181.20515 -205.388869 
L 181.68412 -205.388869 
L 182.16309 -205.388869 
L 182.64206 -205.388869 
L 183.12103 -205.388869 
L 183.6 -205.388869 
L 184.07897 -205.388869 
L 184.55794 -205.388869 
L 185.03691 -205.388869 
L 185.51588 -205.388869 
L 185.99485 -205.388869 
L 186.47382 -205.388869 
L 186.95279 -205.388869 
L 187.43176 -205.388869 
L 187.91073 -205.388869 
L 188.3897 -205.388869 
L 188.86867 -205.388869 
L 189.347639 -205.388869 
L 189.826609 -205.388869 
L 190.305579 -205.388869 
L 190.784549 -205.388869 
L 191.263519 -205.388869 
L 191.742489 -205.388869 
L 192.221459 -205.388869 
L 192.700429 -205.388869 
L 193.179399 -205.388869 
L 193.658369 -205.388869 
L 194.137339 -205.388869 
L 194.616309 -205.388869 
L 195.095279 -205.388869 
L 195.574249 -205.388869 
L 196.053219 -205.388869 
L 196.532189 -205.388869 
L 197.011159 -205.388869 
L 197.490129 -205.388869 
L 197.969099 -205.388869 
L 198.448069 -205.388869 
L 198.927039 -205.388869 
L 199.406009 -205.388869 
L 199.884979 -205.388869 
L 200.363948 -205.388869 
L 200.842918 -205.388869 
L 201.321888 -205.388869 
L 201.800858 -205.388869 
L 202.279828 -205.388869 
L 202.758798 -205.388869 
L 203.237768 -205.388869 
L 203.716738 -205.388869 
L 204.195708 -205.388869 
L 204.674678 -205.388869 
L 205.153648 -205.388869 
L 205.632618 -205.388869 
L 206.111588 -205.388869 
L 206.590558 -205.388869 
L 207.069528 -205.388869 
L 207.548498 -205.388869 
L 208.027468 -205.388869 
L 208.506438 -205.388869 
L 208.985408 -205.388869 
L 209.464378 -205.388869 
L 209.943348 -205.388869 
L 210.422318 -205.388869 
L 210.901288 -205.388869 
L 211.380258 -205.388869 
L 211.859227 -205.388869 
L 212.338197 -205.388869 
L 212.817167 -205.388869 
L 213.296137 -205.388869 
L 213.775107 -205.388869 
L 214.254077 -205.388869 
L 214.733047 -205.388869 
L 215.212017 -205.388869 
L 215.690987 -205.388869 
L 216.169957 -205.388869 
L 216.648927 -205.388869 
L 217.127897 -205.388869 
L 217.606867 -205.388869 
L 218.085837 -205.388869 
L 218.564807 -205.388869 
L 219.043777 -205.388869 
L 219.522747 -205.388869 
L 220.001717 -205.388869 
L 220.480687 -205.388869 
L 220.959657 -205.388869 
L 221.438627 -205.388869 
L 221.917597 -205.388869 
L 222.396567 -205.388869 
L 222.875536 -205.388869 
L 223.354506 -205.388869 
L 223.833476 -205.388869 
L 224.312446 -205.388869 
L 224.791416 -205.388869 
L 225.270386 -205.388869 
L 225.749356 -205.388869 
L 226.228326 -205.388869 
L 226.707296 -205.388869 
L 227.186266 -205.388869 
L 227.665236 -205.388869 
L 228.144206 -205.388869 
L 228.623176 -205.388869 
L 229.102146 -205.388869 
L 229.581116 -205.388869 
L 230.060086 -205.388869 
L 230.539056 -205.388869 
L 231.018026 -205.388869 
L 231.496996 -205.388869 
L 231.975966 -205.388869 
L 232.454936 -205.388869 
L 232.933906 -205.388869 
L 233.412876 -205.388869 
L 233.891845 -205.388869 
L 234.370815 -205.388869 
L 234.849785 -205.388869 
L 235.328755 -205.388869 
L 235.807725 -205.388869 
L 236.286695 -205.388869 
L 236.765665 -205.388869 
L 237.244635 -205.388869 
L 237.723605 -205.388869 
L 238.202575 -205.388869 
L 238.681545 -205.388869 
L 239.160515 -205.388869 
L 239.639485 -205.388869 
L 240.118455 -205.388869 
L 240.597425 -205.388869 
L 241.076395 -205.388869 
L 241.555365 -205.388869 
L 242.034335 -205.388869 
L 242.513305 -205.388869 
L 242.992275 -205.388869 
L 243.471245 -205.388869 
L 243.950215 -205.388869 
L 244.429185 -205.388869 
L 244.908155 -205.388869 
L 245.387124 -205.388869 
L 245.866094 -205.388869 
L 246.345064 -205.388869 
L 246.824034 -205.388869 
L 247.303004 -205.388869 
L 247.781974 -205.388869 
L 248.260944 -205.388869 
L 248.739914 -205.388869 
L 249.218884 -205.388869 
L 249.697854 -205.388869 
L 250.176824 -205.388869 
L 250.655794 -205.388869 
L 251.134764 -205.388869 
L 251.613734 -205.388869 
L 252.092704 -205.388869 
L 252.571674 -205.388869 
L 253.050644 -205.388869 
L 253.529614 -205.388869 
L 254.008584 -205.388869 
L 254.487554 -205.388869 
L 254.966524 -205.388869 
L 255.445494 -205.388869 
L 255.924464 -205.388869 
L 256.403433 -205.388869 
L 256.882403 -205.388869 
L 257.361373 -205.388869 
L 257.840343 -205.388869 
L 258.319313 -205.388869 
L 258.798283 -205.388869 
L 259.277253 -205.388869 
L 259.756223 -205.388869 
L 260.235193 -205.388869 
L 260.714163 -205.388869 
L 261.193133 -205.388869 
L 261.672103 -205.388869 
L 262.151073 -205.388869 
L 262.630043 -205.388869 
L 263.109013 -205.388869 
L 263.587983 -205.388869 
L 264.066953 -205.388869 
L 264.545923 -205.388869 
L 265.024893 -205.388869 
L 265.503863 -205.388869 
L 265.982833 -205.388869 
L 266.461803 -205.388869 
L 266.940773 -205.388869 
L 267.419742 -205.388869 
L 267.898712 -205.388869 
L 268.377682 -205.388869 
L 268.856652 -205.388869 
L 269.335622 -205.388869 
L 269.814592 -205.388869 
L 270.293562 -205.388869 
L 270.772532 -205.388869 
L 271.251502 -205.388869 
L 271.730472 -205.388869 
L 272.209442 -205.388869 
L 272.688412 -205.388869 
L 273.167382 -205.388869 
L 273.646352 -205.388869 
L 274.125322 -205.388869 
L 274.604292 -205.388869 
L 275.083262 -205.388869 
L 275.562232 -205.388869 
L 276.041202 -205.388869 
L 276.520172 -205.388869 
L 276.999142 -205.388869 
L 277.478112 -205.388869 
L 277.957082 -205.388869 
L 278.436052 -205.388869 
L 278.915021 -205.388869 
L 279.393991 -205.388869 
L 279.872961 -205.388869 
L 280.351931 -205.388869 
L 280.830901 -205.388869 
L 281.309871 -205.388869 
L 281.788841 -205.388869 
L 282.267811 -205.388869 
L 282.746781 -205.388869 
L 283.225751 -205.388869 
L 283.704721 -205.388869 
L 284.183691 -205.388869 
L 284.662661 -205.388869 
L 285.141631 -205.388869 
L 285.620601 -205.388869 
L 286.099571 -205.388869 
L 286.578541 -205.388869 
L 287.057511 -205.388869 
L 287.536481 -205.388869 
L 288.015451 -205.388869 
L 288.494421 -205.388869 
L 288.973391 -205.388869 
L 289.452361 -205.388869 
L 289.93133 -205.388869 
L 290.4103 -205.388869 
L 290.88927 -205.388869 
L 291.36824 -205.388869 
L 291.84721 -205.388869 
L 292.32618 -205.388869 
L 292.80515 -205.388869 
L 293.28412 -205.388869 
L 293.76309 -205.388869 
L 294.24206 -205.388869 
L 294.72103 -205.388869 
L 295.2 -205.388869 
L 295.67897 -205.388869 
L 296.15794 -205.388869 
L 296.63691 -205.388869 
L 297.11588 -205.388869 
L 297.59485 -205.388869 
L 298.07382 -205.388869 
L 298.55279 -205.388869 
L 299.03176 -205.388869 
L 299.51073 -205.388869 
L 299.9897 -205.388869 
L 300.46867 -205.388869 
L 300.947639 -205.388869 
L 301.426609 -205.388869 
L 301.905579 -205.388869 
L 302.384549 -205.388869 
L 302.863519 -205.388869 
L 303.342489 -205.388869 
L 303.821459 -205.388869 
L 304.300429 -205.388869 
L 304.779399 -205.388869 
L 305.258369 -205.388869 
L 305.737339 -205.388869 
L 306.216309 -205.388869 
L 306.695279 -205.388869 
L 307.174249 -205.388869 
L 307.653219 -205.388869 
L 308.132189 -205.388869 
L 308.611159 -205.388869 
L 309.090129 -205.388869 
L 309.569099 -205.388869 
L 310.048069 -205.388869 
L 310.527039 -205.388869 
L 311.006009 -205.388869 
L 311.484979 -205.388869 
L 311.963948 -205.388869 
L 312.442918 -205.388869 
L 312.921888 -205.388869 
L 313.400858 -205.388869 
L 313.879828 -205.388869 
L 314.358798 -205.388869 
L 314.837768 -205.388869 
L 315.316738 -205.388869 
L 315.795708 -205.388869 
L 316.274678 -205.388869 
L 316.753648 -205.388869 
L 317.232618 -205.388869 
L 317.711588 -205.388869 
L 318.190558 -205.388869 
L 318.669528 -205.388869 
L 319.148498 -205.388869 
L 319.627468 -205.388869 
L 320.106438 -205.388869 
L 320.585408 -205.388869 
L 321.064378 -205.388869 
L 321.543348 -205.388869 
L 322.022318 -205.388869 
L 322.501288 -205.388869 
L 322.980258 -205.388869 
L 323.459227 -205.388869 
L 323.938197 -205.388869 
L 324.417167 -205.388869 
L 324.896137 -205.388869 
L 325.375107 -205.388869 
L 325.854077 -205.388869 
L 326.333047 -205.388869 
L 326.812017 -205.388869 
L 327.290987 -205.388869 
L 327.769957 -205.388869 
L 328.248927 -205.388869 
L 328.727897 -205.388869 
L 329.206867 -205.388869 
L 329.685837 -205.388869 
L 330.164807 -205.388869 
L 330.643777 -205.388869 
L 331.122747 -205.388869 
L 331.601717 -205.388869 
L 332.080687 -205.388869 
L 332.559657 -205.388869 
L 333.038627 -205.388869 
L 333.517597 -205.388869 
L 333.996567 -205.388869 
L 334.475536 -205.388869 
L 334.954506 -205.388869 
L 335.433476 -205.388869 
L 335.912446 -205.388869 
L 336.391416 -205.388869 
L 336.870386 -205.388869 
L 337.349356 -205.388869 
L 337.828326 -205.388869 
L 338.307296 -205.388869 
L 338.786266 -205.388869 
L 339.265236 -205.388869 
L 339.744206 -205.388869 
L 340.223176 -205.388869 
L 340.702146 -205.388869 
L 341.181116 -205.388869 
L 341.660086 -205.388869 
L 342.139056 -205.388869 
L 342.618026 -205.388869 
L 343.096996 -205.388869 
L 343.575966 -205.388869 
L 344.054936 -205.388869 
L 344.533906 -205.388869 
L 345.012876 -205.388869 
L 345.491845 -205.388869 
L 345.970815 -205.388869 
L 346.449785 -205.388869 
L 346.928755 -205.388869 
L 347.407725 -205.388869 
L 347.886695 -205.388869 
L 348.365665 -205.388869 
L 348.844635 -205.388869 
L 349.323605 -205.388869 
L 349.802575 -205.388869 
L 350.281545 -205.388869 
L 350.760515 -205.388869 
L 351.239485 -205.388869 
L 351.718455 -205.388869 
L 352.197425 -205.388869 
L 352.676395 -205.388869 
L 353.155365 -205.388869 
L 353.634335 -205.388869 
L 354.113305 -205.388869 
L 354.592275 -205.388869 
L 355.071245 -205.388869 
L 355.550215 -205.388869 
L 356.029185 -205.388869 
L 356.508155 -205.388869 
L 356.987124 -205.388869 
L 357.466094 -205.388869 
L 357.945064 -205.388869 
L 358.424034 -205.388869 
L 358.903004 -205.388869 
L 359.381974 -205.388869 
L 359.860944 -205.388869 
L 360.339914 -205.388869 
L 360.818884 -205.388869 
L 361.297854 -205.388869 
L 361.776824 -205.388869 
L 362.255794 -205.388869 
L 362.734764 -205.388869 
L 363.213734 -205.388869 
L 363.692704 -205.388869 
L 364.171674 -205.388869 
L 364.650644 -205.388869 
L 365.129614 -205.388869 
L 365.608584 -205.388869 
L 366.087554 -205.388869 
L 366.566524 -205.388869 
L 367.045494 -205.388869 
L 367.524464 -205.388869 
L 368.003433 -205.388869 
L 368.482403 -205.388869 
L 368.961373 -205.388869 
L 369.440343 -205.388869 
L 369.919313 -205.388869 
L 370.398283 -205.388869 
L 370.877253 -205.388869 
L 371.356223 -205.388869 
L 371.835193 -205.388869 
L 372.314163 -205.388869 
L 372.793133 -205.388869 
L 373.272103 -205.388869 
L 373.751073 -205.388869 
L 374.230043 -205.388869 
L 374.709013 -205.388869 
L 375.187983 -205.388869 
L 375.666953 -205.388869 
L 376.145923 -205.388869 
L 376.624893 -205.388869 
L 377.103863 -205.388869 
L 377.582833 -205.388869 
L 378.061803 -205.388869 
L 378.540773 -205.388869 
L 379.019742 -205.388869 
L 379.498712 -205.388869 
L 379.977682 -205.388869 
L 380.456652 -205.388869 
L 380.935622 -205.388869 
L 381.414592 -205.388869 
L 381.893562 -205.388869 
L 382.372532 -205.388869 
L 382.851502 -205.388869 
L 383.330472 -205.388869 
L 383.809442 -205.388869 
L 384.288412 -205.388869 
L 384.767382 -205.388869 
L 385.246352 -205.388869 
L 385.725322 -205.388869 
L 386.204292 -205.388869 
L 386.683262 -205.388869 
L 387.162232 -205.388869 
L 387.641202 -205.388869 
L 388.120172 -205.388869 
L 388.599142 -205.388869 
L 389.078112 -205.388869 
L 389.557082 -205.388869 
L 390.036052 -205.388869 
L 390.515021 -205.388869 
L 390.993991 -205.388869 
L 391.472961 -205.388869 
L 391.951931 -205.388869 
L 392.430901 -205.388869 
L 392.909871 -205.388869 
L 393.388841 -205.388869 
L 393.867811 -205.388869 
L 394.346781 -205.388869 
L 394.825751 -205.388869 
L 395.304721 -205.388869 
L 395.783691 -205.388869 
L 396.262661 -205.388869 
L 396.741631 -205.388869 
L 397.220601 -205.388869 
L 397.699571 -205.388869 
L 398.178541 -205.388869 
L 398.657511 -205.388869 
L 399.136481 -205.388869 
L 399.615451 -205.388869 
L 400.094421 -205.388869 
L 400.573391 -205.388869 
L 401.052361 -205.388869 
L 401.53133 -205.388869 
L 402.0103 -205.388869 
L 402.48927 -205.388869 
L 402.96824 -205.388869 
L 403.44721 -205.388869 
L 403.92618 -205.388869 
L 404.40515 -205.388869 
L 404.88412 -205.388869 
L 405.36309 -205.388869 
L 405.84206 -205.388869 
L 406.32103 -205.388869 
L 406.8 -205.388869 
L 407.27897 -205.388869 
L 407.75794 -205.388869 
L 408.23691 -205.388869 
L 408.71588 -205.388869 
L 409.19485 -205.388869 
L 409.67382 -205.388869 
L 410.15279 -205.388869 
L 410.63176 -205.388869 
L 411.11073 -205.388869 
L 411.5897 -205.388869 
L 412.06867 -205.388869 
L 412.547639 -205.388869 
L 413.026609 -205.388869 
L 413.505579 -205.388869 
L 413.984549 -205.388869 
L 414.463519 -205.388869 
L 414.942489 -205.388869 
L 415.421459 -205.388869 
L 415.900429 -205.388869 
L 416.379399 -205.388869 
L 416.858369 -205.388869 
L 417.337339 -205.388869 
L 417.816309 -205.388869 
L 418.295279 -205.388869 
L 418.774249 -205.388869 
L 419.253219 -205.388869 
L 419.732189 -205.388869 
L 420.211159 -205.388869 
L 420.690129 -205.388869 
L 421.169099 -205.388869 
L 421.648069 -205.388869 
L 422.127039 -205.388869 
L 422.606009 -205.388869 
L 423.084979 -205.388869 
L 423.563948 -205.388869 
L 424.042918 -205.388869 
L 424.521888 -205.388869 
L 425.000858 -205.388869 
L 425.479828 -205.388869 
L 425.958798 -205.388869 
L 426.437768 -205.388869 
L 426.916738 -205.388869 
L 427.395708 -205.388869 
L 427.874678 -205.388869 
L 428.353648 -205.388869 
L 428.832618 -205.388869 
L 429.311588 -205.388869 
L 429.790558 -205.388869 
L 430.269528 -205.388869 
L 430.748498 -205.388869 
L 431.227468 -205.388869 
L 431.706438 -205.388869 
L 432.185408 -205.388869 
L 432.664378 -205.388869 
L 433.143348 -205.388869 
L 433.622318 -205.388869 
L 434.101288 -205.388869 
L 434.580258 -205.388869 
L 435.059227 -205.388869 
L 435.538197 -205.388869 
L 436.017167 -205.388869 
L 436.496137 -205.388869 
L 436.975107 -205.388869 
L 437.454077 -205.388869 
L 437.933047 -205.388869 
L 438.412017 -205.388869 
L 438.890987 -205.388869 
L 439.369957 -205.388869 
L 439.848927 -205.388869 
L 440.327897 -205.388869 
L 440.806867 -205.388869 
L 441.285837 -205.388869 
L 441.764807 -205.388869 
L 442.243777 -205.388869 
L 442.722747 -205.388869 
L 443.201717 -205.388869 
L 443.680687 -205.388869 
L 444.159657 -205.388869 
L 444.638627 -205.388869 
L 445.117597 -205.388869 
L 445.596567 -205.388869 
L 446.075536 -205.388869 
L 446.554506 -205.388869 
L 447.033476 -205.388869 
L 447.512446 -205.388869 
L 447.991416 -205.388869 
L 448.470386 -205.388869 
L 448.949356 -205.388869 
L 449.428326 -205.388869 
L 449.907296 -205.388869 
L 450.386266 -205.388869 
L 450.865236 -205.388869 
L 451.344206 -205.388869 
L 451.823176 -205.388869 
L 452.302146 -205.388869 
L 452.781116 -205.388869 
L 453.260086 -205.388869 
L 453.739056 -205.388869 
L 454.218026 -205.388869 
L 454.696996 -205.388869 
L 455.175966 -205.388869 
L 455.654936 -205.388869 
L 456.133906 -205.388869 
L 456.612876 -205.388869 
L 457.091845 -205.388869 
L 457.570815 -205.388869 
L 458.049785 -205.388869 
L 458.528755 -205.388869 
L 459.007725 -205.388869 
L 459.486695 -205.388869 
L 459.965665 -205.388869 
L 460.444635 -205.388869 
L 460.923605 -205.388869 
L 461.402575 -205.388869 
L 461.881545 -205.388869 
L 462.360515 -205.388869 
L 462.839485 -205.388869 
L 463.318455 -205.388869 
L 463.797425 -205.388869 
L 464.276395 -205.388869 
L 464.755365 -205.388869 
L 465.234335 -205.388869 
L 465.713305 -205.388869 
L 466.192275 -205.388869 
L 466.671245 -205.388869 
L 467.150215 -205.388869 
L 467.629185 -205.388869 
L 468.108155 -205.388869 
L 468.587124 -205.388869 
L 469.066094 -205.388869 
L 469.545064 -205.388869 
L 470.024034 -205.388869 
L 470.503004 -205.388869 
L 470.981974 -205.388869 
L 471.460944 -205.388869 
L 471.939914 -205.388869 
L 472.418884 -205.388869 
L 472.897854 -205.388869 
L 473.376824 -205.388869 
L 473.855794 -205.388869 
L 474.334764 -205.388869 
L 474.813734 -205.388869 
L 475.292704 -205.388869 
L 475.771674 -205.388869 
L 476.250644 -205.388869 
L 476.729614 -205.388869 
L 477.208584 -205.388869 
L 477.687554 -205.388869 
L 478.166524 -205.388869 
L 478.645494 -205.388869 
L 479.124464 -205.388869 
L 479.603433 -205.388869 
L 480.082403 -205.388869 
L 480.561373 -205.388869 
L 481.040343 -205.388869 
L 481.519313 -205.388869 
L 481.998283 -205.388869 
L 482.477253 -205.388869 
L 482.956223 -205.388869 
L 483.435193 -205.388869 
L 483.914163 -205.388869 
L 484.393133 -205.388869 
L 484.872103 -205.388869 
L 485.351073 -205.388869 
L 485.830043 -205.388869 
L 486.309013 -205.388869 
L 486.787983 -205.388869 
L 487.266953 -205.388869 
L 487.745923 -205.388869 
L 488.224893 -205.388869 
L 488.703863 -205.388869 
L 489.182833 -205.388869 
L 489.661803 -205.388869 
L 490.140773 -205.388869 
L 490.619742 -205.388869 
L 491.098712 -205.388869 
L 491.577682 -205.388869 
L 492.056652 -205.388869 
L 492.535622 -205.388869 
L 493.014592 -205.388869 
L 493.493562 -205.388869 
L 493.972532 -205.388869 
L 494.451502 -205.388869 
L 494.930472 -205.388869 
L 495.409442 -205.388869 
L 495.888412 -205.388869 
L 496.367382 -205.388869 
L 496.846352 -205.388869 
L 497.325322 -205.388869 
L 497.804292 -205.388869 
L 498.283262 -205.388869 
L 498.762232 -205.388869 
L 499.241202 -205.388869 
L 499.720172 -205.388869 
L 500.199142 -205.388869 
L 500.678112 -205.388869 
L 501.157082 -205.388869 
L 501.636052 -205.388869 
L 502.115021 -205.388869 
L 502.593991 -205.388869 
L 503.072961 -205.388869 
L 503.551931 -205.388869 
L 504.030901 -205.388869 
L 504.509871 -205.388869 
L 504.988841 -205.388869 
L 505.467811 -205.388869 
L 505.946781 -205.388869 
L 506.425751 -205.388869 
L 506.904721 -205.388869 
L 507.383691 -205.388869 
L 507.862661 -205.388869 
L 508.341631 -205.388869 
L 508.820601 -205.388869 
L 509.299571 -205.388869 
L 509.778541 -205.388869 
L 510.257511 -205.388869 
L 510.736481 -205.388869 
L 511.215451 -205.388869 
L 511.694421 -205.388869 
L 512.173391 -205.388869 
L 512.652361 -205.388869 
L 513.13133 -205.388869 
L 513.6103 -205.388869 
L 514.08927 -205.388869 
L 514.56824 -205.388869 
L 515.04721 -205.388869 
L 515.52618 -205.388869 
L 516.00515 -205.388869 
L 516.48412 -205.388869 
L 516.96309 -205.388869 
L 517.44206 -205.388869 
L 517.92103 -205.388869 
L 518.4 -205.388869 
L 518.4 -200.753535 
L 518.4 -200.753535 
L 517.92103 -200.753535 
L 517.44206 -200.753535 
L 516.96309 -200.753535 
L 516.48412 -200.753535 
L 516.00515 -200.753535 
L 515.52618 -200.753535 
L 515.04721 -200.753535 
L 514.56824 -200.753535 
L 514.08927 -200.753535 
L 513.6103 -200.753535 
L 513.13133 -200.753535 
L 512.652361 -200.753535 
L 512.173391 -200.753535 
L 511.694421 -200.753535 
L 511.215451 -200.753535 
L 510.736481 -200.753535 
L 510.257511 -200.753535 
L 509.778541 -200.753535 
L 509.299571 -200.753535 
L 508.820601 -200.753535 
L 508.341631 -200.753535 
L 507.862661 -200.753535 
L 507.383691 -200.753535 
L 506.904721 -200.753535 
L 506.425751 -200.753535 
L 505.946781 -200.753535 
L 505.467811 -200.753535 
L 504.988841 -200.753535 
L 504.509871 -200.753535 
L 504.030901 -200.753535 
L 503.551931 -200.753535 
L 503.072961 -200.753535 
L 502.593991 -200.753535 
L 502.115021 -200.753535 
L 501.636052 -200.753535 
L 501.157082 -200.753535 
L 500.678112 -200.753535 
L 500.199142 -200.753535 
L 499.720172 -200.753535 
L 499.241202 -200.753535 
L 498.762232 -200.753535 
L 498.283262 -200.753535 
L 497.804292 -200.753535 
L 497.325322 -200.753535 
L 496.846352 -200.753535 
L 496.367382 -200.753535 
L 495.888412 -200.753535 
L 495.409442 -200.753535 
L 494.930472 -200.753535 
L 494.451502 -200.753535 
L 493.972532 -200.753535 
L 493.493562 -200.753535 
L 493.014592 -200.753535 
L 492.535622 -200.753535 
L 492.056652 -200.753535 
L 491.577682 -200.753535 
L 491.098712 -200.753535 
L 490.619742 -200.753535 
L 490.140773 -200.753535 
L 489.661803 -200.753535 
L 489.182833 -200.753535 
L 488.703863 -200.753535 
L 488.224893 -200.753535 
L 487.745923 -200.753535 
L 487.266953 -200.753535 
L 486.787983 -200.753535 
L 486.309013 -200.753535 
L 485.830043 -200.753535 
L 485.351073 -200.753535 
L 484.872103 -200.753535 
L 484.393133 -200.753535 
L 483.914163 -200.753535 
L 483.435193 -200.753535 
L 482.956223 -200.753535 
L 482.477253 -200.753535 
L 481.998283 -200.753535 
L 481.519313 -200.753535 
L 481.040343 -200.753535 
L 480.561373 -200.753535 
L 480.082403 -200.753535 
L 479.603433 -200.753535 
L 479.124464 -200.753535 
L 478.645494 -200.753535 
L 478.166524 -200.753535 
L 477.687554 -200.753535 
L 477.208584 -200.753535 
L 476.729614 -200.753535 
L 476.250644 -200.753535 
L 475.771674 -200.753535 
L 475.292704 -200.753535 
L 474.813734 -200.753535 
L 474.334764 -200.753535 
L 473.855794 -200.753535 
L 473.376824 -200.753535 
L 472.897854 -200.753535 
L 472.418884 -200.753535 
L 471.939914 -200.753535 
L 471.460944 -200.753535 
L 470.981974 -200.753535 
L 470.503004 -200.753535 
L 470.024034 -200.753535 
L 469.545064 -200.753535 
L 469.066094 -200.753535 
L 468.587124 -200.753535 
L 468.108155 -200.753535 
L 467.629185 -200.753535 
L 467.150215 -200.753535 
L 466.671245 -200.753535 
L 466.192275 -200.753535 
L 465.713305 -200.753535 
L 465.234335 -200.753535 
L 464.755365 -200.753535 
L 464.276395 -200.753535 
L 463.797425 -200.753535 
L 463.318455 -200.753535 
L 462.839485 -200.753535 
L 462.360515 -200.753535 
L 461.881545 -200.753535 
L 461.402575 -200.753535 
L 460.923605 -200.753535 
L 460.444635 -200.753535 
L 459.965665 -200.753535 
L 459.486695 -200.753535 
L 459.007725 -200.753535 
L 458.528755 -200.753535 
L 458.049785 -200.753535 
L 457.570815 -200.753535 
L 457.091845 -200.753535 
L 456.612876 -200.753535 
L 456.133906 -200.753535 
L 455.654936 -200.753535 
L 455.175966 -200.753535 
L 454.696996 -200.753535 
L 454.218026 -200.753535 
L 453.739056 -200.753535 
L 453.260086 -200.753535 
L 452.781116 -200.753535 
L 452.302146 -200.753535 
L 451.823176 -200.753535 
L 451.344206 -200.753535 
L 450.865236 -200.753535 
L 450.386266 -200.753535 
L 449.907296 -200.753535 
L 449.428326 -200.753535 
L 448.949356 -200.753535 
L 448.470386 -200.753535 
L 447.991416 -200.753535 
L 447.512446 -200.753535 
L 447.033476 -200.753535 
L 446.554506 -200.753535 
L 446.075536 -200.753535 
L 445.596567 -200.753535 
L 445.117597 -200.753535 
L 444.638627 -200.753535 
L 444.159657 -200.753535 
L 443.680687 -200.753535 
L 443.201717 -200.753535 
L 442.722747 -200.753535 
L 442.243777 -200.753535 
L 441.764807 -200.753535 
L 441.285837 -200.753535 
L 440.806867 -200.753535 
L 440.327897 -200.753535 
L 439.848927 -200.753535 
L 439.369957 -200.753535 
L 438.890987 -200.753535 
L 438.412017 -200.753535 
L 437.933047 -200.753535 
L 437.454077 -200.753535 
L 436.975107 -200.753535 
L 436.496137 -200.753535 
L 436.017167 -200.753535 
L 435.538197 -200.753535 
L 435.059227 -200.753535 
L 434.580258 -200.753535 
L 434.101288 -200.753535 
L 433.622318 -200.753535 
L 433.143348 -200.753535 
L 432.664378 -200.753535 
L 432.185408 -200.753535 
L 431.706438 -200.753535 
L 431.227468 -200.753535 
L 430.748498 -200.753535 
L 430.269528 -200.753535 
L 429.790558 -200.753535 
L 429.311588 -200.753535 
L 428.832618 -200.753535 
L 428.353648 -200.753535 
L 427.874678 -200.753535 
L 427.395708 -200.753535 
L 426.916738 -200.753535 
L 426.437768 -200.753535 
L 425.958798 -200.753535 
L 425.479828 -200.753535 
L 425.000858 -200.753535 
L 424.521888 -200.753535 
L 424.042918 -200.753535 
L 423.563948 -200.753535 
L 423.084979 -200.753535 
L 422.606009 -200.753535 
L 422.127039 -200.753535 
L 421.648069 -200.753535 
L 421.169099 -200.753535 
L 420.690129 -200.753535 
L 420.211159 -200.753535 
L 419.732189 -200.753535 
L 419.253219 -200.753535 
L 418.774249 -200.753535 
L 418.295279 -200.753535 
L 417.816309 -200.753535 
L 417.337339 -200.753535 
L 416.858369 -200.753535 
L 416.379399 -200.753535 
L 415.900429 -200.753535 
L 415.421459 -200.753535 
L 414.942489 -200.753535 
L 414.463519 -200.753535 
L 413.984549 -200.753535 
L 413.505579 -200.753535 
L 413.026609 -200.753535 
L 412.547639 -200.753535 
L 412.06867 -200.753535 
L 411.5897 -200.753535 
L 411.11073 -200.753535 
L 410.63176 -200.753535 
L 410.15279 -200.753535 
L 409.67382 -200.753535 
L 409.19485 -200.753535 
L 408.71588 -200.753535 
L 408.23691 -200.753535 
L 407.75794 -200.753535 
L 407.27897 -200.753535 
L 406.8 -200.753535 
L 406.32103 -200.753535 
L 405.84206 -200.753535 
L 405.36309 -200.753535 
L 404.88412 -200.753535 
L 404.40515 -200.753535 
L 403.92618 -200.753535 
L 403.44721 -200.753535 
L 402.96824 -200.753535 
L 402.48927 -200.753535 
L 402.0103 -200.753535 
L 401.53133 -200.753535 
L 401.052361 -200.753535 
L 400.573391 -200.753535 
L 400.094421 -200.753535 
L 399.615451 -200.753535 
L 399.136481 -200.753535 
L 398.657511 -200.753535 
L 398.178541 -200.753535 
L 397.699571 -200.753535 
L 397.220601 -200.753535 
L 396.741631 -200.753535 
L 396.262661 -200.753535 
L 395.783691 -200.753535 
L 395.304721 -200.753535 
L 394.825751 -200.753535 
L 394.346781 -200.753535 
L 393.867811 -200.753535 
L 393.388841 -200.753535 
L 392.909871 -200.753535 
L 392.430901 -200.753535 
L 391.951931 -200.753535 
L 391.472961 -200.753535 
L 390.993991 -200.753535 
L 390.515021 -200.753535 
L 390.036052 -200.753535 
L 389.557082 -200.753535 
L 389.078112 -200.753535 
L 388.599142 -200.753535 
L 388.120172 -200.753535 
L 387.641202 -200.753535 
L 387.162232 -200.753535 
L 386.683262 -200.753535 
L 386.204292 -200.753535 
L 385.725322 -200.753535 
L 385.246352 -200.753535 
L 384.767382 -200.753535 
L 384.288412 -200.753535 
L 383.809442 -200.753535 
L 383.330472 -200.753535 
L 382.851502 -200.753535 
L 382.372532 -200.753535 
L 381.893562 -200.753535 
L 381.414592 -200.753535 
L 380.935622 -200.753535 
L 380.456652 -200.753535 
L 379.977682 -200.753535 
L 379.498712 -200.753535 
L 379.019742 -200.753535 
L 378.540773 -200.753535 
L 378.061803 -200.753535 
L 377.582833 -200.753535 
L 377.103863 -200.753535 
L 376.624893 -200.753535 
L 376.145923 -200.753535 
L 375.666953 -200.753535 
L 375.187983 -200.753535 
L 374.709013 -200.753535 
L 374.230043 -200.753535 
L 373.751073 -200.753535 
L 373.272103 -200.753535 
L 372.793133 -200.753535 
L 372.314163 -200.753535 
L 371.835193 -200.753535 
L 371.356223 -200.753535 
L 370.877253 -200.753535 
L 370.398283 -200.753535 
L 369.919313 -200.753535 
L 369.440343 -200.753535 
L 368.961373 -200.753535 
L 368.482403 -200.753535 
L 368.003433 -200.753535 
L 367.524464 -200.753535 
L 367.045494 -200.753535 
L 366.566524 -200.753535 
L 366.087554 -200.753535 
L 365.608584 -200.753535 
L 365.129614 -200.753535 
L 364.650644 -200.753535 
L 364.171674 -200.753535 
L 363.692704 -200.753535 
L 363.213734 -200.753535 
L 362.734764 -200.753535 
L 362.255794 -200.753535 
L 361.776824 -200.753535 
L 361.297854 -200.753535 
L 360.818884 -200.753535 
L 360.339914 -200.753535 
L 359.860944 -200.753535 
L 359.381974 -200.753535 
L 358.903004 -200.753535 
L 358.424034 -200.753535 
L 357.945064 -200.753535 
L 357.466094 -200.753535 
L 356.987124 -200.753535 
L 356.508155 -200.753535 
L 356.029185 -200.753535 
L 355.550215 -200.753535 
L 355.071245 -200.753535 
L 354.592275 -200.753535 
L 354.113305 -200.753535 
L 353.634335 -200.753535 
L 353.155365 -200.753535 
L 352.676395 -200.753535 
L 352.197425 -200.753535 
L 351.718455 -200.753535 
L 351.239485 -200.753535 
L 350.760515 -200.753535 
L 350.281545 -200.753535 
L 349.802575 -200.753535 
L 349.323605 -200.753535 
L 348.844635 -200.753535 
L 348.365665 -200.753535 
L 347.886695 -200.753535 
L 347.407725 -200.753535 
L 346.928755 -200.753535 
L 346.449785 -200.753535 
L 345.970815 -200.753535 
L 345.491845 -200.753535 
L 345.012876 -200.753535 
L 344.533906 -200.753535 
L 344.054936 -200.753535 
L 343.575966 -200.753535 
L 343.096996 -200.753535 
L 342.618026 -200.753535 
L 342.139056 -200.753535 
L 341.660086 -200.753535 
L 341.181116 -200.753535 
L 340.702146 -200.753535 
L 340.223176 -200.753535 
L 339.744206 -200.753535 
L 339.265236 -200.753535 
L 338.786266 -200.753535 
L 338.307296 -200.753535 
L 337.828326 -200.753535 
L 337.349356 -200.753535 
L 336.870386 -200.753535 
L 336.391416 -200.753535 
L 335.912446 -200.753535 
L 335.433476 -200.753535 
L 334.954506 -200.753535 
L 334.475536 -200.753535 
L 333.996567 -200.753535 
L 333.517597 -200.753535 
L 333.038627 -200.753535 
L 332.559657 -200.753535 
L 332.080687 -200.753535 
L 331.601717 -200.753535 
L 331.122747 -200.753535 
L 330.643777 -200.753535 
L 330.164807 -200.753535 
L 329.685837 -200.753535 
L 329.206867 -200.753535 
L 328.727897 -200.753535 
L 328.248927 -200.753535 
L 327.769957 -200.753535 
L 327.290987 -200.753535 
L 326.812017 -200.753535 
L 326.333047 -200.753535 
L 325.854077 -200.753535 
L 325.375107 -200.753535 
L 324.896137 -200.753535 
L 324.417167 -200.753535 
L 323.938197 -200.753535 
L 323.459227 -200.753535 
L 322.980258 -200.753535 
L 322.501288 -200.753535 
L 322.022318 -200.753535 
L 321.543348 -200.753535 
L 321.064378 -200.753535 
L 320.585408 -200.753535 
L 320.106438 -200.753535 
L 319.627468 -200.753535 
L 319.148498 -200.753535 
L 318.669528 -200.753535 
L 318.190558 -200.753535 
L 317.711588 -200.753535 
L 317.232618 -200.753535 
L 316.753648 -200.753535 
L 316.274678 -200.753535 
L 315.795708 -200.753535 
L 315.316738 -200.753535 
L 314.837768 -200.753535 
L 314.358798 -200.753535 
L 313.879828 -200.753535 
L 313.400858 -200.753535 
L 312.921888 -200.753535 
L 312.442918 -200.753535 
L 311.963948 -200.753535 
L 311.484979 -200.753535 
L 311.006009 -200.753535 
L 310.527039 -200.753535 
L 310.048069 -200.753535 
L 309.569099 -200.753535 
L 309.090129 -200.753535 
L 308.611159 -200.753535 
L 308.132189 -200.753535 
L 307.653219 -200.753535 
L 307.174249 -200.753535 
L 306.695279 -200.753535 
L 306.216309 -200.753535 
L 305.737339 -200.753535 
L 305.258369 -200.753535 
L 304.779399 -200.753535 
L 304.300429 -200.753535 
L 303.821459 -200.753535 
L 303.342489 -200.753535 
L 302.863519 -200.753535 
L 302.384549 -200.753535 
L 301.905579 -200.753535 
L 301.426609 -200.753535 
L 300.947639 -200.753535 
L 300.46867 -200.753535 
L 299.9897 -200.753535 
L 299.51073 -200.753535 
L 299.03176 -200.753535 
L 298.55279 -200.753535 
L 298.07382 -200.753535 
L 297.59485 -200.753535 
L 297.11588 -200.753535 
L 296.63691 -200.753535 
L 296.15794 -200.753535 
L 295.67897 -200.753535 
L 295.2 -200.753535 
L 294.72103 -200.753535 
L 294.24206 -200.753535 
L 293.76309 -200.753535 
L 293.28412 -200.753535 
L 292.80515 -200.753535 
L 292.32618 -200.753535 
L 291.84721 -200.753535 
L 291.36824 -200.753535 
L 290.88927 -200.753535 
L 290.4103 -200.753535 
L 289.93133 -200.753535 
L 289.452361 -200.753535 
L 288.973391 -200.753535 
L 288.494421 -200.753535 
L 288.015451 -200.753535 
L 287.536481 -200.753535 
L 287.057511 -200.753535 
L 286.578541 -200.753535 
L 286.099571 -200.753535 
L 285.620601 -200.753535 
L 285.141631 -200.753535 
L 284.662661 -200.753535 
L 284.183691 -200.753535 
L 283.704721 -200.753535 
L 283.225751 -200.753535 
L 282.746781 -200.753535 
L 282.267811 -200.753535 
L 281.788841 -200.753535 
L 281.309871 -200.753535 
L 280.830901 -200.753535 
L 280.351931 -200.753535 
L 279.872961 -200.753535 
L 279.393991 -200.753535 
L 278.915021 -200.753535 
L 278.436052 -200.753535 
L 277.957082 -200.753535 
L 277.478112 -200.753535 
L 276.999142 -200.753535 
L 276.520172 -200.753535 
L 276.041202 -200.753535 
L 275.562232 -200.753535 
L 275.083262 -200.753535 
L 274.604292 -200.753535 
L 274.125322 -200.753535 
L 273.646352 -200.753535 
L 273.167382 -200.753535 
L 272.688412 -200.753535 
L 272.209442 -200.753535 
L 271.730472 -200.753535 
L 271.251502 -200.753535 
L 270.772532 -200.753535 
L 270.293562 -200.753535 
L 269.814592 -200.753535 
L 269.335622 -200.753535 
L 268.856652 -200.753535 
L 268.377682 -200.753535 
L 267.898712 -200.753535 
L 267.419742 -200.753535 
L 266.940773 -200.753535 
L 266.461803 -200.753535 
L 265.982833 -200.753535 
L 265.503863 -200.753535 
L 265.024893 -200.753535 
L 264.545923 -200.753535 
L 264.066953 -200.753535 
L 263.587983 -200.753535 
L 263.109013 -200.753535 
L 262.630043 -200.753535 
L 262.151073 -200.753535 
L 261.672103 -200.753535 
L 261.193133 -200.753535 
L 260.714163 -200.753535 
L 260.235193 -200.753535 
L 259.756223 -200.753535 
L 259.277253 -200.753535 
L 258.798283 -200.753535 
L 258.319313 -200.753535 
L 257.840343 -200.753535 
L 257.361373 -200.753535 
L 256.882403 -200.753535 
L 256.403433 -200.753535 
L 255.924464 -200.753535 
L 255.445494 -200.753535 
L 254.966524 -200.753535 
L 254.487554 -200.753535 
L 254.008584 -200.753535 
L 253.529614 -200.753535 
L 253.050644 -200.753535 
L 252.571674 -200.753535 
L 252.092704 -200.753535 
L 251.613734 -200.753535 
L 251.134764 -200.753535 
L 250.655794 -200.753535 
L 250.176824 -200.753535 
L 249.697854 -200.753535 
L 249.218884 -200.753535 
L 248.739914 -200.753535 
L 248.260944 -200.753535 
L 247.781974 -200.753535 
L 247.303004 -200.753535 
L 246.824034 -200.753535 
L 246.345064 -200.753535 
L 245.866094 -200.753535 
L 245.387124 -200.753535 
L 244.908155 -200.753535 
L 244.429185 -200.753535 
L 243.950215 -200.753535 
L 243.471245 -200.753535 
L 242.992275 -200.753535 
L 242.513305 -200.753535 
L 242.034335 -200.753535 
L 241.555365 -200.753535 
L 241.076395 -200.753535 
L 240.597425 -200.753535 
L 240.118455 -200.753535 
L 239.639485 -200.753535 
L 239.160515 -200.753535 
L 238.681545 -200.753535 
L 238.202575 -200.753535 
L 237.723605 -200.753535 
L 237.244635 -200.753535 
L 236.765665 -200.753535 
L 236.286695 -200.753535 
L 235.807725 -200.753535 
L 235.328755 -200.753535 
L 234.849785 -200.753535 
L 234.370815 -200.753535 
L 233.891845 -200.753535 
L 233.412876 -200.753535 
L 232.933906 -200.753535 
L 232.454936 -200.753535 
L 231.975966 -200.753535 
L 231.496996 -200.753535 
L 231.018026 -200.753535 
L 230.539056 -200.753535 
L 230.060086 -200.753535 
L 229.581116 -200.753535 
L 229.102146 -200.753535 
L 228.623176 -200.753535 
L 228.144206 -200.753535 
L 227.665236 -200.753535 
L 227.186266 -200.753535 
L 226.707296 -200.753535 
L 226.228326 -200.753535 
L 225.749356 -200.753535 
L 225.270386 -200.753535 
L 224.791416 -200.753535 
L 224.312446 -200.753535 
L 223.833476 -200.753535 
L 223.354506 -200.753535 
L 222.875536 -200.753535 
L 222.396567 -200.753535 
L 221.917597 -200.753535 
L 221.438627 -200.753535 
L 220.959657 -200.753535 
L 220.480687 -200.753535 
L 220.001717 -200.753535 
L 219.522747 -200.753535 
L 219.043777 -200.753535 
L 218.564807 -200.753535 
L 218.085837 -200.753535 
L 217.606867 -200.753535 
L 217.127897 -200.753535 
L 216.648927 -200.753535 
L 216.169957 -200.753535 
L 215.690987 -200.753535 
L 215.212017 -200.753535 
L 214.733047 -200.753535 
L 214.254077 -200.753535 
L 213.775107 -200.753535 
L 213.296137 -200.753535 
L 212.817167 -200.753535 
L 212.338197 -200.753535 
L 211.859227 -200.753535 
L 211.380258 -200.753535 
L 210.901288 -200.753535 
L 210.422318 -200.753535 
L 209.943348 -200.753535 
L 209.464378 -200.753535 
L 208.985408 -200.753535 
L 208.506438 -200.753535 
L 208.027468 -200.753535 
L 207.548498 -200.753535 
L 207.069528 -200.753535 
L 206.590558 -200.753535 
L 206.111588 -200.753535 
L 205.632618 -200.753535 
L 205.153648 -200.753535 
L 204.674678 -200.753535 
L 204.195708 -200.753535 
L 203.716738 -200.753535 
L 203.237768 -200.753535 
L 202.758798 -200.753535 
L 202.279828 -200.753535 
L 201.800858 -200.753535 
L 201.321888 -200.753535 
L 200.842918 -200.753535 
L 200.363948 -200.753535 
L 199.884979 -200.753535 
L 199.406009 -200.753535 
L 198.927039 -200.753535 
L 198.448069 -200.753535 
L 197.969099 -200.753535 
L 197.490129 -200.753535 
L 197.011159 -200.753535 
L 196.532189 -200.753535 
L 196.053219 -200.753535 
L 195.574249 -200.753535 
L 195.095279 -200.753535 
L 194.616309 -200.753535 
L 194.137339 -200.753535 
L 193.658369 -200.753535 
L 193.179399 -200.753535 
L 192.700429 -200.753535 
L 192.221459 -200.753535 
L 191.742489 -200.753535 
L 191.263519 -200.753535 
L 190.784549 -200.753535 
L 190.305579 -200.753535 
L 189.826609 -200.753535 
L 189.347639 -200.753535 
L 188.86867 -200.753535 
L 188.3897 -200.753535 
L 187.91073 -200.753535 
L 187.43176 -200.753535 
L 186.95279 -200.753535 
L 186.47382 -200.753535 
L 185.99485 -200.753535 
L 185.51588 -200.753535 
L 185.03691 -200.753535 
L 184.55794 -200.753535 
L 184.07897 -200.753535 
L 183.6 -200.753535 
L 183.12103 -200.753535 
L 182.64206 -200.753535 
L 182.16309 -200.753535 
L 181.68412 -200.753535 
L 181.20515 -200.753535 
L 180.72618 -200.753535 
L 180.24721 -200.753535 
L 179.76824 -200.753535 
L 179.28927 -200.753535 
L 178.8103 -200.753535 
L 178.33133 -200.753535 
L 177.852361 -200.753535 
L 177.373391 -200.753535 
L 176.894421 -200.753535 
L 176.415451 -200.753535 
L 175.936481 -200.753535 
L 175.457511 -200.753535 
L 174.978541 -200.753535 
L 174.499571 -200.753535 
L 174.020601 -200.753535 
L 173.541631 -200.753535 
L 173.062661 -200.753535 
L 172.583691 -200.753535 
L 172.104721 -200.753535 
L 171.625751 -200.753535 
L 171.146781 -200.753535 
L 170.667811 -200.753535 
L 170.188841 -200.753535 
L 169.709871 -200.753535 
L 169.230901 -200.753535 
L 168.751931 -200.753535 
L 168.272961 -200.753535 
L 167.793991 -200.753535 
L 167.315021 -200.753535 
L 166.836052 -200.753535 
L 166.357082 -200.753535 
L 165.878112 -200.753535 
L 165.399142 -200.753535 
L 164.920172 -200.753535 
L 164.441202 -200.753535 
L 163.962232 -200.753535 
L 163.483262 -200.753535 
L 163.004292 -200.753535 
L 162.525322 -200.753535 
L 162.046352 -200.753535 
L 161.567382 -200.753535 
L 161.088412 -200.753535 
L 160.609442 -200.753535 
L 160.130472 -200.753535 
L 159.651502 -200.753535 
L 159.172532 -200.753535 
L 158.693562 -200.753535 
L 158.214592 -200.753535 
L 157.735622 -200.753535 
L 157.256652 -200.753535 
L 156.777682 -200.753535 
L 156.298712 -200.753535 
L 155.819742 -200.753535 
L 155.340773 -200.753535 
L 154.861803 -200.753535 
L 154.382833 -200.753535 
L 153.903863 -200.753535 
L 153.424893 -200.753535 
L 152.945923 -200.753535 
L 152.466953 -200.753535 
L 151.987983 -200.753535 
L 151.509013 -200.753535 
L 151.030043 -200.753535 
L 150.551073 -200.753535 
L 150.072103 -200.753535 
L 149.593133 -200.753535 
L 149.114163 -200.753535 
L 148.635193 -200.753535 
L 148.156223 -200.753535 
L 147.677253 -200.753535 
L 147.198283 -200.753535 
L 146.719313 -200.753535 
L 146.240343 -200.753535 
L 145.761373 -200.753535 
L 145.282403 -200.753535 
L 144.803433 -200.753535 
L 144.324464 -200.753535 
L 143.845494 -200.753535 
L 143.366524 -200.753535 
L 142.887554 -200.753535 
L 142.408584 -200.753535 
L 141.929614 -200.753535 
L 141.450644 -200.753535 
L 140.971674 -200.753535 
L 140.492704 -200.753535 
L 140.013734 -200.753535 
L 139.534764 -200.753535 
L 139.055794 -200.753535 
L 138.576824 -200.753535 
L 138.097854 -200.753535 
L 137.618884 -200.753535 
L 137.139914 -200.753535 
L 136.660944 -200.753535 
L 136.181974 -200.753535 
L 135.703004 -200.753535 
L 135.224034 -200.753535 
L 134.745064 -200.753535 
L 134.266094 -200.753535 
L 133.787124 -200.753535 
L 133.308155 -200.753535 
L 132.829185 -200.753535 
L 132.350215 -200.753535 
L 131.871245 -200.753535 
L 131.392275 -200.753535 
L 130.913305 -200.753535 
L 130.434335 -200.753535 
L 129.955365 -200.753535 
L 129.476395 -200.753535 
L 128.997425 -200.753535 
L 128.518455 -200.753535 
L 128.039485 -200.753535 
L 127.560515 -200.753535 
L 127.081545 -200.753535 
L 126.602575 -200.753535 
L 126.123605 -200.753535 
L 125.644635 -200.753535 
L 125.165665 -200.753535 
L 124.686695 -200.753535 
L 124.207725 -200.753535 
L 123.728755 -200.753535 
L 123.249785 -200.753535 
L 122.770815 -200.753535 
L 122.291845 -200.753535 
L 121.812876 -200.753535 
L 121.333906 -200.753535 
L 120.854936 -200.753535 
L 120.375966 -200.753535 
L 119.896996 -200.753535 
L 119.418026 -200.753535 
L 118.939056 -200.753535 
L 118.460086 -200.753535 
L 117.981116 -200.753535 
L 117.502146 -200.753535 
L 117.023176 -200.753535 
L 116.544206 -200.753535 
L 116.065236 -200.753535 
L 115.586266 -200.753535 
L 115.107296 -200.753535 
L 114.628326 -200.753535 
L 114.149356 -200.753535 
L 113.670386 -200.753535 
L 113.191416 -200.753535 
L 112.712446 -200.753535 
L 112.233476 -200.753535 
L 111.754506 -200.753535 
L 111.275536 -200.753535 
L 110.796567 -200.753535 
L 110.317597 -200.753535 
L 109.838627 -200.753535 
L 109.359657 -200.753535 
L 108.880687 -200.753535 
L 108.401717 -200.753535 
L 107.922747 -200.753535 
L 107.443777 -200.753535 
L 106.964807 -200.753535 
L 106.485837 -200.753535 
L 106.006867 -200.753535 
L 105.527897 -200.753535 
L 105.048927 -200.753535 
L 104.569957 -200.753535 
L 104.090987 -200.753535 
L 103.612017 -200.753535 
L 103.133047 -200.753535 
L 102.654077 -200.753535 
L 102.175107 -200.753535 
L 101.696137 -200.753535 
L 101.217167 -200.753535 
L 100.738197 -200.753535 
L 100.259227 -200.753535 
L 99.780258 -200.753535 
L 99.301288 -200.753535 
L 98.822318 -200.753535 
L 98.343348 -200.753535 
L 97.864378 -200.753535 
L 97.385408 -200.753535 
L 96.906438 -200.753535 
L 96.427468 -200.753535 
L 95.948498 -200.753535 
L 95.469528 -200.753535 
L 94.990558 -200.753535 
L 94.511588 -200.753535 
L 94.032618 -200.753535 
L 93.553648 -200.753535 
L 93.074678 -200.753535 
L 92.595708 -200.753535 
L 92.116738 -200.753535 
L 91.637768 -200.753535 
L 91.158798 -200.753535 
L 90.679828 -200.753535 
L 90.200858 -200.753535 
L 89.721888 -200.753535 
L 89.242918 -200.753535 
L 88.763948 -200.753535 
L 88.284979 -200.753535 
L 87.806009 -200.753535 
L 87.327039 -200.753535 
L 86.848069 -200.753535 
L 86.369099 -200.753535 
L 85.890129 -200.753535 
L 85.411159 -200.753535 
L 84.932189 -200.753535 
L 84.453219 -200.753535 
L 83.974249 -200.753535 
L 83.495279 -200.753535 
L 83.016309 -200.753535 
L 82.537339 -200.753535 
L 82.058369 -200.753535 
L 81.579399 -200.753535 
L 81.100429 -200.753535 
L 80.621459 -200.753535 
L 80.142489 -200.753535 
L 79.663519 -200.753535 
L 79.184549 -200.753535 
L 78.705579 -200.753535 
L 78.226609 -200.753535 
L 77.747639 -200.753535 
L 77.26867 -200.753535 
L 76.7897 -200.753535 
L 76.31073 -200.753535 
L 75.83176 -200.753535 
L 75.35279 -200.753535 
L 74.87382 -200.753535 
L 74.39485 -200.753535 
L 73.91588 -200.753535 
L 73.43691 -200.753535 
L 72.95794 -200.753535 
L 72.47897 -200.753535 
L 72 -200.753535 
z
" id="mefd331f626"/>
    </defs>
    <g clip-path="url(#p8aca896def)">
     <use style="fill-opacity:0.15;" x="0" xlink:href="#mefd331f626" y="360"/>
    </g>
   </g>
   <g id="matplotlib.axis_1">
    <g id="xtick_1">
     <g id="line2d_1">
      <defs>
       <path d="M 0 0 
L 0 3.5 
" id="m1cf2d0da42" style="stroke:#000000;stroke-width:0.8;"/>
      </defs>
      <g>
       <use style="stroke:#000000;stroke-width:0.8;" x="72" xlink:href="#m1cf2d0da42" y="320.4"/>
      </g>
     </g>
     <g id="text_1">
      <!-- 0.0 -->
      <g transform="translate(60.867812 338.037813)scale(0.14 -0.14)">
       <defs>
        <path d="M 2034 4250 
Q 1547 4250 1301 3770 
Q 1056 3291 1056 2328 
Q 1056 1369 1301 889 
Q 1547 409 2034 409 
Q 2525 409 2770 889 
Q 3016 1369 3016 2328 
Q 3016 3291 2770 3770 
Q 2525 4250 2034 4250 
z
M 2034 4750 
Q 2819 4750 3233 4129 
Q 3647 3509 3647 2328 
Q 3647 1150 3233 529 
Q 2819 -91 2034 -91 
Q 1250 -91 836 529 
Q 422 1150 422 2328 
Q 422 3509 836 4129 
Q 1250 4750 2034 4750 
z
" id="DejaVuSans-30" transform="scale(0.015625)"/>
        <path d="M 684 794 
L 1344 794 
L 1344 0 
L 684 0 
L 684 794 
z
" id="DejaVuSans-2e" transform="scale(0.015625)"/>
       </defs>
       <use xlink:href="#DejaVuSans-30"/>
       <use x="63.623047" xlink:href="#DejaVuSans-2e"/>
       <use x="95.410156" xlink:href="#DejaVuSans-30"/>
      </g>
     </g>
    </g>
    <g id="xtick_2">
     <g id="line2d_2">
      <g>
       <use style="stroke:#000000;stroke-width:0.8;" x="127.839087" xlink:href="#m1cf2d0da42" y="320.4"/>
      </g>
     </g>
     <g id="text_2">
      <!-- 2.5 -->
      <g transform="translate(116.7069 338.037813)scale(0.14 -0.14)">
       <defs>
        <path d="M 1228 531 
L 3431 531 
L 3431 0 
L 469 0 
L 469 531 
Q 828 903 1448 1529 
Q 2069 2156 2228 2338 
Q 2531 2678 2651 2914 
Q 2772 3150 2772 3378 
Q 2772 3750 2511 3984 
Q 2250 4219 1831 4219 
Q 1534 4219 1204 4116 
Q 875 4013 500 3803 
L 500 4441 
Q 881 4594 1212 4672 
Q 1544 4750 1819 4750 
Q 2544 4750 2975 4387 
Q 3406 4025 3406 3419 
Q 3406 3131 3298 2873 
Q 3191 2616 2906 2266 
Q 2828 2175 2409 1742 
Q 1991 1309 1228 531 
z
" id="DejaVuSans-32" transform="scale(0.015625)"/>
        <path d="M 691 4666 
L 3169 4666 
L 3169 4134 
L 1269 4134 
L 1269 2991 
Q 1406 3038 1543 3061 
Q 1681 3084 1819 3084 
Q 2600 3084 3056 2656 
Q 3513 2228 3513 1497 
Q 3513 744 3044 326 
Q 2575 -91 1722 -91 
Q 1428 -91 1123 -41 
Q 819 9 494 109 
L 494 744 
Q 775 591 1075 516 
Q 1375 441 1709 441 
Q 2250 441 2565 725 
Q 2881 1009 2881 1497 
Q 2881 1984 2565 2268 
Q 2250 2553 1709 2553 
Q 1456 2553 1204 2497 
Q 953 2441 691 2322 
L 691 4666 
z
" id="DejaVuSans-35" transform="scale(0.015625)"/>
       </defs>
       <use xlink:href="#DejaVuSans-32"/>
       <use x="63.623047" xlink:href="#DejaVuSans-2e"/>
       <use x="95.410156" xlink:href="#DejaVuSans-35"/>
      </g>
     </g>
    </g>
    <g id="xtick_3">
     <g id="line2d_3">
      <g>
       <use style="stroke:#000000;stroke-width:0.8;" x="183.678175" xlink:href="#m1cf2d0da42" y="320.4"/>
      </g>
     </g>
     <g id="text_3">
      <!-- 5.0 -->
      <g transform="translate(172.545987 338.037813)scale(0.14 -0.14)">
       <use xlink:href="#DejaVuSans-35"/>
       <use x="63.623047" xlink:href="#DejaVuSans-2e"/>
       <use x="95.410156" xlink:href="#DejaVuSans-30"/>
      </g>
     </g>
    </g>
    <g id="xtick_4">
     <g id="line2d_4">
      <g>
       <use style="stroke:#000000;stroke-width:0.8;" x="239.517262" xlink:href="#m1cf2d0da42" y="320.4"/>
      </g>
     </g>
     <g id="text_4">
      <!-- 7.5 -->
      <g transform="translate(228.385075 338.037813)scale(0.14 -0.14)">
       <defs>
        <path d="M 525 4666 
L 3525 4666 
L 3525 4397 
L 1831 0 
L 1172 0 
L 2766 4134 
L 525 4134 
L 525 4666 
z
" id="DejaVuSans-37" transform="scale(0.015625)"/>
       </defs>
       <use xlink:href="#DejaVuSans-37"/>
       <use x="63.623047" xlink:href="#DejaVuSans-2e"/>
       <use x="95.410156" xlink:href="#DejaVuSans-35"/>
      </g>
     </g>
    </g>
    <g id="xtick_5">
     <g id="line2d_5">
      <g>
       <use style="stroke:#000000;stroke-width:0.8;" x="295.356349" xlink:href="#m1cf2d0da42" y="320.4"/>
      </g>
     </g>
     <g id="text_5">
      <!-- 10.0 -->
      <g transform="translate(279.770412 338.037813)scale(0.14 -0.14)">
       <defs>
        <path d="M 794 531 
L 1825 531 
L 1825 4091 
L 703 3866 
L 703 4441 
L 1819 4666 
L 2450 4666 
L 2450 531 
L 3481 531 
L 3481 0 
L 794 0 
L 794 531 
z
" id="DejaVuSans-31" transform="scale(0.015625)"/>
       </defs>
       <use xlink:href="#DejaVuSans-31"/>
       <use x="63.623047" xlink:href="#DejaVuSans-30"/>
       <use x="127.246094" xlink:href="#DejaVuSans-2e"/>
       <use x="159.033203" xlink:href="#DejaVuSans-30"/>
      </g>
     </g>
    </g>
    <g id="xtick_6">
     <g id="line2d_6">
      <g>
       <use style="stroke:#000000;stroke-width:0.8;" x="351.195437" xlink:href="#m1cf2d0da42" y="320.4"/>
      </g>
     </g>
     <g id="text_6">
      <!-- 12.5 -->
      <g transform="translate(335.609499 338.037813)scale(0.14 -0.14)">
       <use xlink:href="#DejaVuSans-31"/>
       <use x="63.623047" xlink:href="#DejaVuSans-32"/>
       <use x="127.246094" xlink:href="#DejaVuSans-2e"/>
       <use x="159.033203" xlink:href="#DejaVuSans-35"/>
      </g>
     </g>
    </g>
    <g id="xtick_7">
     <g id="line2d_7">
      <g>
       <use style="stroke:#000000;stroke-width:0.8;" x="407.034524" xlink:href="#m1cf2d0da42" y="320.4"/>
      </g>
     </g>
     <g id="text_7">
      <!-- 15.0 -->
      <g transform="translate(391.448587 338.037813)scale(0.14 -0.14)">
       <use xlink:href="#DejaVuSans-31"/>
       <use x="63.623047" xlink:href="#DejaVuSans-35"/>
       <use x="127.246094" xlink:href="#DejaVuSans-2e"/>
       <use x="159.033203" xlink:href="#DejaVuSans-30"/>
      </g>
     </g>
    </g>
    <g id="xtick_8">
     <g id="line2d_8">
      <g>
       <use style="stroke:#000000;stroke-width:0.8;" x="462.873612" xlink:href="#m1cf2d0da42" y="320.4"/>
      </g>
     </g>
     <g id="text_8">
      <!-- 17.5 -->
      <g transform="translate(447.287674 338.037813)scale(0.14 -0.14)">
       <use xlink:href="#DejaVuSans-31"/>
       <use x="63.623047" xlink:href="#DejaVuSans-37"/>
       <use x="127.246094" xlink:href="#DejaVuSans-2e"/>
       <use x="159.033203" xlink:href="#DejaVuSans-35"/>
      </g>
     </g>
    </g>
    <g id="text_9">
     <!-- Time [Seconds] -->
     <g transform="translate(233.23 357.106875)scale(0.16 -0.16)">
      <defs>
       <path d="M -19 4666 
L 3928 4666 
L 3928 4134 
L 2272 4134 
L 2272 0 
L 1638 0 
L 1638 4134 
L -19 4134 
L -19 4666 
z
" id="DejaVuSans-54" transform="scale(0.015625)"/>
       <path d="M 603 3500 
L 1178 3500 
L 1178 0 
L 603 0 
L 603 3500 
z
M 603 4863 
L 1178 4863 
L 1178 4134 
L 603 4134 
L 603 4863 
z
" id="DejaVuSans-69" transform="scale(0.015625)"/>
       <path d="M 3328 2828 
Q 3544 3216 3844 3400 
Q 4144 3584 4550 3584 
Q 5097 3584 5394 3201 
Q 5691 2819 5691 2113 
L 5691 0 
L 5113 0 
L 5113 2094 
Q 5113 2597 4934 2840 
Q 4756 3084 4391 3084 
Q 3944 3084 3684 2787 
Q 3425 2491 3425 1978 
L 3425 0 
L 2847 0 
L 2847 2094 
Q 2847 2600 2669 2842 
Q 2491 3084 2119 3084 
Q 1678 3084 1418 2786 
Q 1159 2488 1159 1978 
L 1159 0 
L 581 0 
L 581 3500 
L 1159 3500 
L 1159 2956 
Q 1356 3278 1631 3431 
Q 1906 3584 2284 3584 
Q 2666 3584 2933 3390 
Q 3200 3197 3328 2828 
z
" id="DejaVuSans-6d" transform="scale(0.015625)"/>
       <path d="M 3597 1894 
L 3597 1613 
L 953 1613 
Q 991 1019 1311 708 
Q 1631 397 2203 397 
Q 2534 397 2845 478 
Q 3156 559 3463 722 
L 3463 178 
Q 3153 47 2828 -22 
Q 2503 -91 2169 -91 
Q 1331 -91 842 396 
Q 353 884 353 1716 
Q 353 2575 817 3079 
Q 1281 3584 2069 3584 
Q 2775 3584 3186 3129 
Q 3597 2675 3597 1894 
z
M 3022 2063 
Q 3016 2534 2758 2815 
Q 2500 3097 2075 3097 
Q 1594 3097 1305 2825 
Q 1016 2553 972 2059 
L 3022 2063 
z
" id="DejaVuSans-65" transform="scale(0.015625)"/>
       <path id="DejaVuSans-20" transform="scale(0.015625)"/>
       <path d="M 550 4863 
L 1875 4863 
L 1875 4416 
L 1125 4416 
L 1125 -397 
L 1875 -397 
L 1875 -844 
L 550 -844 
L 550 4863 
z
" id="DejaVuSans-5b" transform="scale(0.015625)"/>
       <path d="M 3425 4513 
L 3425 3897 
Q 3066 4069 2747 4153 
Q 2428 4238 2131 4238 
Q 1616 4238 1336 4038 
Q 1056 3838 1056 3469 
Q 1056 3159 1242 3001 
Q 1428 2844 1947 2747 
L 2328 2669 
Q 3034 2534 3370 2195 
Q 3706 1856 3706 1288 
Q 3706 609 3251 259 
Q 2797 -91 1919 -91 
Q 1588 -91 1214 -16 
Q 841 59 441 206 
L 441 856 
Q 825 641 1194 531 
Q 1563 422 1919 422 
Q 2459 422 2753 634 
Q 3047 847 3047 1241 
Q 3047 1584 2836 1778 
Q 2625 1972 2144 2069 
L 1759 2144 
Q 1053 2284 737 2584 
Q 422 2884 422 3419 
Q 422 4038 858 4394 
Q 1294 4750 2059 4750 
Q 2388 4750 2728 4690 
Q 3069 4631 3425 4513 
z
" id="DejaVuSans-53" transform="scale(0.015625)"/>
       <path d="M 3122 3366 
L 3122 2828 
Q 2878 2963 2633 3030 
Q 2388 3097 2138 3097 
Q 1578 3097 1268 2742 
Q 959 2388 959 1747 
Q 959 1106 1268 751 
Q 1578 397 2138 397 
Q 2388 397 2633 464 
Q 2878 531 3122 666 
L 3122 134 
Q 2881 22 2623 -34 
Q 2366 -91 2075 -91 
Q 1284 -91 818 406 
Q 353 903 353 1747 
Q 353 2603 823 3093 
Q 1294 3584 2113 3584 
Q 2378 3584 2631 3529 
Q 2884 3475 3122 3366 
z
" id="DejaVuSans-63" transform="scale(0.015625)"/>
       <path d="M 1959 3097 
Q 1497 3097 1228 2736 
Q 959 2375 959 1747 
Q 959 1119 1226 758 
Q 1494 397 1959 397 
Q 2419 397 2687 759 
Q 2956 1122 2956 1747 
Q 2956 2369 2687 2733 
Q 2419 3097 1959 3097 
z
M 1959 3584 
Q 2709 3584 3137 3096 
Q 3566 2609 3566 1747 
Q 3566 888 3137 398 
Q 2709 -91 1959 -91 
Q 1206 -91 779 398 
Q 353 888 353 1747 
Q 353 2609 779 3096 
Q 1206 3584 1959 3584 
z
" id="DejaVuSans-6f" transform="scale(0.015625)"/>
       <path d="M 3513 2113 
L 3513 0 
L 2938 0 
L 2938 2094 
Q 2938 2591 2744 2837 
Q 2550 3084 2163 3084 
Q 1697 3084 1428 2787 
Q 1159 2491 1159 1978 
L 1159 0 
L 581 0 
L 581 3500 
L 1159 3500 
L 1159 2956 
Q 1366 3272 1645 3428 
Q 1925 3584 2291 3584 
Q 2894 3584 3203 3211 
Q 3513 2838 3513 2113 
z
" id="DejaVuSans-6e" transform="scale(0.015625)"/>
       <path d="M 2906 2969 
L 2906 4863 
L 3481 4863 
L 3481 0 
L 2906 0 
L 2906 525 
Q 2725 213 2448 61 
Q 2172 -91 1784 -91 
Q 1150 -91 751 415 
Q 353 922 353 1747 
Q 353 2572 751 3078 
Q 1150 3584 1784 3584 
Q 2172 3584 2448 3432 
Q 2725 3281 2906 2969 
z
M 947 1747 
Q 947 1113 1208 752 
Q 1469 391 1925 391 
Q 2381 391 2643 752 
Q 2906 1113 2906 1747 
Q 2906 2381 2643 2742 
Q 2381 3103 1925 3103 
Q 1469 3103 1208 2742 
Q 947 2381 947 1747 
z
" id="DejaVuSans-64" transform="scale(0.015625)"/>
       <path d="M 2834 3397 
L 2834 2853 
Q 2591 2978 2328 3040 
Q 2066 3103 1784 3103 
Q 1356 3103 1142 2972 
Q 928 2841 928 2578 
Q 928 2378 1081 2264 
Q 1234 2150 1697 2047 
L 1894 2003 
Q 2506 1872 2764 1633 
Q 3022 1394 3022 966 
Q 3022 478 2636 193 
Q 2250 -91 1575 -91 
Q 1294 -91 989 -36 
Q 684 19 347 128 
L 347 722 
Q 666 556 975 473 
Q 1284 391 1588 391 
Q 1994 391 2212 530 
Q 2431 669 2431 922 
Q 2431 1156 2273 1281 
Q 2116 1406 1581 1522 
L 1381 1569 
Q 847 1681 609 1914 
Q 372 2147 372 2553 
Q 372 3047 722 3315 
Q 1072 3584 1716 3584 
Q 2034 3584 2315 3537 
Q 2597 3491 2834 3397 
z
" id="DejaVuSans-73" transform="scale(0.015625)"/>
       <path d="M 1947 4863 
L 1947 -844 
L 622 -844 
L 622 -397 
L 1369 -397 
L 1369 4416 
L 622 4416 
L 622 4863 
L 1947 4863 
z
" id="DejaVuSans-5d" transform="scale(0.015625)"/>
      </defs>
      <use xlink:href="#DejaVuSans-54"/>
      <use x="57.958984" xlink:href="#DejaVuSans-69"/>
      <use x="85.742188" xlink:href="#DejaVuSans-6d"/>
      <use x="183.154297" xlink:href="#DejaVuSans-65"/>
      <use x="244.677734" xlink:href="#DejaVuSans-20"/>
      <use x="276.464844" xlink:href="#DejaVuSans-5b"/>
      <use x="315.478516" xlink:href="#DejaVuSans-53"/>
      <use x="378.955078" xlink:href="#DejaVuSans-65"/>
      <use x="440.478516" xlink:href="#DejaVuSans-63"/>
      <use x="495.458984" xlink:href="#DejaVuSans-6f"/>
      <use x="556.640625" xlink:href="#DejaVuSans-6e"/>
      <use x="620.019531" xlink:href="#DejaVuSans-64"/>
      <use x="683.496094" xlink:href="#DejaVuSans-73"/>
      <use x="735.595703" xlink:href="#DejaVuSans-5d"/>
     </g>
    </g>
   </g>
   <g id="matplotlib.axis_2">
    <g id="ytick_1">
     <g id="line2d_9">
      <defs>
       <path d="M 0 0 
L -3.5 0 
" id="mfbeec4f70b" style="stroke:#000000;stroke-width:0.8;"/>
      </defs>
      <g>
       <use style="stroke:#000000;stroke-width:0.8;" x="72" xlink:href="#mfbeec4f70b" y="277.24102"/>
      </g>
     </g>
     <g id="text_10">
      <!-- 0.0 -->
      <g transform="translate(42.735625 282.559927)scale(0.14 -0.14)">
       <use xlink:href="#DejaVuSans-30"/>
       <use x="63.623047" xlink:href="#DejaVuSans-2e"/>
       <use x="95.410156" xlink:href="#DejaVuSans-30"/>
      </g>
     </g>
    </g>
    <g id="ytick_2">
     <g id="line2d_10">
      <g>
       <use style="stroke:#000000;stroke-width:0.8;" x="72" xlink:href="#mfbeec4f70b" y="231.082635"/>
      </g>
     </g>
     <g id="text_11">
      <!-- 0.5 -->
      <g transform="translate(42.735625 236.401541)scale(0.14 -0.14)">
       <use xlink:href="#DejaVuSans-30"/>
       <use x="63.623047" xlink:href="#DejaVuSans-2e"/>
       <use x="95.410156" xlink:href="#DejaVuSans-35"/>
      </g>
     </g>
    </g>
    <g id="ytick_3">
     <g id="line2d_11">
      <g>
       <use style="stroke:#000000;stroke-width:0.8;" x="72" xlink:href="#mfbeec4f70b" y="184.924249"/>
      </g>
     </g>
     <g id="text_12">
      <!-- 1.0 -->
      <g transform="translate(42.735625 190.243156)scale(0.14 -0.14)">
       <use xlink:href="#DejaVuSans-31"/>
       <use x="63.623047" xlink:href="#DejaVuSans-2e"/>
       <use x="95.410156" xlink:href="#DejaVuSans-30"/>
      </g>
     </g>
    </g>
    <g id="ytick_4">
     <g id="line2d_12">
      <g>
       <use style="stroke:#000000;stroke-width:0.8;" x="72" xlink:href="#mfbeec4f70b" y="138.765864"/>
      </g>
     </g>
     <g id="text_13">
      <!-- 1.5 -->
      <g transform="translate(42.735625 144.08477)scale(0.14 -0.14)">
       <use xlink:href="#DejaVuSans-31"/>
       <use x="63.623047" xlink:href="#DejaVuSans-2e"/>
       <use x="95.410156" xlink:href="#DejaVuSans-35"/>
      </g>
     </g>
    </g>
    <g id="ytick_5">
     <g id="line2d_13">
      <g>
       <use style="stroke:#000000;stroke-width:0.8;" x="72" xlink:href="#mfbeec4f70b" y="92.607479"/>
      </g>
     </g>
     <g id="text_14">
      <!-- 2.0 -->
      <g transform="translate(42.735625 97.926385)scale(0.14 -0.14)">
       <use xlink:href="#DejaVuSans-32"/>
       <use x="63.623047" xlink:href="#DejaVuSans-2e"/>
       <use x="95.410156" xlink:href="#DejaVuSans-30"/>
      </g>
     </g>
    </g>
    <g id="ytick_6">
     <g id="line2d_14">
      <g>
       <use style="stroke:#000000;stroke-width:0.8;" x="72" xlink:href="#mfbeec4f70b" y="46.449093"/>
      </g>
     </g>
     <g id="text_15">
      <!-- 2.5 -->
      <g transform="translate(42.735625 51.767999)scale(0.14 -0.14)">
       <use xlink:href="#DejaVuSans-32"/>
       <use x="63.623047" xlink:href="#DejaVuSans-2e"/>
       <use x="95.410156" xlink:href="#DejaVuSans-35"/>
      </g>
     </g>
    </g>
    <g id="text_16">
     <!-- Speed [mm/s] -->
     <g transform="translate(35.408125 238.11375)rotate(-90)scale(0.16 -0.16)">
      <defs>
       <path d="M 1159 525 
L 1159 -1331 
L 581 -1331 
L 581 3500 
L 1159 3500 
L 1159 2969 
Q 1341 3281 1617 3432 
Q 1894 3584 2278 3584 
Q 2916 3584 3314 3078 
Q 3713 2572 3713 1747 
Q 3713 922 3314 415 
Q 2916 -91 2278 -91 
Q 1894 -91 1617 61 
Q 1341 213 1159 525 
z
M 3116 1747 
Q 3116 2381 2855 2742 
Q 2594 3103 2138 3103 
Q 1681 3103 1420 2742 
Q 1159 2381 1159 1747 
Q 1159 1113 1420 752 
Q 1681 391 2138 391 
Q 2594 391 2855 752 
Q 3116 1113 3116 1747 
z
" id="DejaVuSans-70" transform="scale(0.015625)"/>
       <path d="M 1625 4666 
L 2156 4666 
L 531 -594 
L 0 -594 
L 1625 4666 
z
" id="DejaVuSans-2f" transform="scale(0.015625)"/>
      </defs>
      <use xlink:href="#DejaVuSans-53"/>
      <use x="63.476562" xlink:href="#DejaVuSans-70"/>
      <use x="126.953125" xlink:href="#DejaVuSans-65"/>
      <use x="188.476562" xlink:href="#DejaVuSans-65"/>
      <use x="250" xlink:href="#DejaVuSans-64"/>
      <use x="313.476562" xlink:href="#DejaVuSans-20"/>
      <use x="345.263672" xlink:href="#DejaVuSans-5b"/>
      <use x="384.277344" xlink:href="#DejaVuSans-6d"/>
      <use x="481.689453" xlink:href="#DejaVuSans-6d"/>
      <use x="579.101562" xlink:href="#DejaVuSans-2f"/>
      <use x="612.792969" xlink:href="#DejaVuSans-73"/>
      <use x="664.892578" xlink:href="#DejaVuSans-5d"/>
     </g>
    </g>
   </g>
   <g id="line2d_15">
    <path clip-path="url(#p8aca896def)" d="M 72 156.928798 
L 518.4 156.928798 
" style="fill:none;stroke:#000000;stroke-dasharray:5.55,2.4;stroke-dashoffset:0;stroke-width:1.5;"/>
   </g>
   <g id="line2d_16">
    <path clip-path="url(#p8aca896def)" d="M 72 275.859033 
L 104.569957 275.924581 
L 105.048927 275.532733 
L 105.527897 277.104754 
L 106.006867 276.546331 
L 106.485837 273.414874 
L 106.964807 272.905856 
L 107.443777 273.232621 
L 108.401717 274.87461 
L 109.359657 275.163946 
L 109.838627 283.372888 
L 110.317597 265.895371 
L 110.796567 256.652509 
L 111.275536 277.430393 
L 111.754506 282.709805 
L 112.233476 285.487191 
L 113.191416 303.535186 
L 113.670386 307.8 
L 114.149356 307.036969 
L 115.107296 291.14717 
L 115.586266 278.582344 
L 117.023176 223.39044 
L 119.418026 129.142531 
L 120.375966 98.47572 
L 121.333906 75.450588 
L 121.812876 66.832905 
L 122.291845 60.248849 
L 122.770815 56.083998 
L 123.249785 55.8 
L 123.728755 55.824823 
L 124.207725 57.461277 
L 125.165665 71.008472 
L 127.081545 116.246964 
L 127.560515 129.603247 
L 129.476395 167.563818 
L 129.955365 173.010713 
L 130.434335 174.976695 
L 130.913305 173.061659 
L 131.392275 168.499533 
L 131.871245 160.505788 
L 132.350215 135.152442 
L 132.829185 136.422961 
L 133.308155 151.492884 
L 133.787124 139.5921 
L 134.266094 139.027737 
L 134.745064 147.111997 
L 135.224034 151.834497 
L 135.703004 153.993762 
L 136.181974 154.390586 
L 136.660944 155.481635 
L 137.139914 157.905202 
L 137.618884 157.709278 
L 138.097854 156.261461 
L 138.576824 156.41866 
L 139.055794 155.907545 
L 139.534764 156.227488 
L 140.492704 155.192685 
L 140.971674 156.366841 
L 141.450644 155.953115 
L 141.929614 155.836028 
L 142.408584 157.33749 
L 142.887554 157.584972 
L 143.366524 157.294961 
L 144.324464 156.179954 
L 144.803433 157.106973 
L 145.282403 157.770365 
L 145.761373 156.229198 
L 146.240343 155.822005 
L 146.719313 157.273342 
L 147.198283 157.061996 
L 147.677253 157.947558 
L 148.156223 156.190283 
L 148.635193 155.182953 
L 149.114163 156.736915 
L 149.593133 156.505792 
L 151.987983 156.138416 
L 152.945923 156.073787 
L 153.424893 157.787206 
L 153.903863 156.813062 
L 154.861803 157.415699 
L 155.819742 156.369153 
L 156.298712 156.441971 
L 156.777682 156.917581 
L 157.256652 156.425341 
L 157.735622 156.527143 
L 158.214592 156.21241 
L 158.693562 157.405465 
L 159.172532 157.216862 
L 159.651502 157.286124 
L 160.130472 158.743264 
L 160.609442 157.809252 
L 161.088412 156.341925 
L 161.567382 156.817314 
L 162.046352 158.101297 
L 162.525322 157.859603 
L 163.004292 156.668209 
L 163.962232 158.331921 
L 164.441202 159.496089 
L 164.920172 157.395947 
L 165.399142 156.174637 
L 166.357082 156.476556 
L 166.836052 157.294515 
L 167.315021 157.207884 
L 167.793991 157.30902 
L 168.272961 157.264497 
L 168.751931 157.398057 
L 169.230901 157.047988 
L 169.709871 158.166373 
L 170.188841 158.064328 
L 170.667811 157.038747 
L 171.146781 157.229262 
L 172.104721 155.813814 
L 172.583691 156.087682 
L 173.062661 156.556394 
L 173.541631 156.365406 
L 174.020601 158.209534 
L 174.499571 157.869953 
L 174.978541 156.844896 
L 175.457511 158.04219 
L 175.936481 157.70786 
L 176.415451 157.855732 
L 176.894421 156.721402 
L 177.373391 156.15844 
L 177.852361 156.485656 
L 178.33133 156.207368 
L 178.8103 156.871597 
L 180.24721 158.093175 
L 180.72618 158.606795 
L 181.20515 158.426834 
L 181.68412 158.879733 
L 182.16309 159.156711 
L 182.64206 158.435622 
L 183.12103 157.348646 
L 183.6 158.046322 
L 184.07897 158.260577 
L 184.55794 156.198419 
L 185.03691 156.60078 
L 185.51588 156.582707 
L 185.99485 156.159701 
L 186.47382 156.432646 
L 186.95279 155.07954 
L 187.43176 155.189582 
L 187.91073 156.070156 
L 188.3897 156.097387 
L 188.86867 156.265244 
L 190.305579 157.111946 
L 190.784549 157.23966 
L 191.263519 158.528278 
L 191.742489 159.13797 
L 192.221459 157.049498 
L 192.700429 156.775194 
L 193.179399 156.993098 
L 193.658369 156.458627 
L 194.137339 156.101309 
L 194.616309 157.915546 
L 195.095279 157.266043 
L 195.574249 155.673414 
L 196.053219 157.369215 
L 196.532189 155.832745 
L 197.011159 155.642394 
L 197.490129 158.035084 
L 197.969099 158.71192 
L 198.448069 156.183094 
L 198.927039 155.548811 
L 199.406009 156.034035 
L 199.884979 155.17782 
L 200.363948 156.09392 
L 200.842918 156.671346 
L 201.321888 156.907964 
L 201.800858 156.786305 
L 202.279828 158.887514 
L 203.237768 157.158411 
L 203.716738 157.797841 
L 204.195708 157.358005 
L 204.674678 158.427604 
L 205.153648 156.853161 
L 205.632618 156.605989 
L 206.111588 156.701894 
L 206.590558 157.760015 
L 207.069528 157.544717 
L 207.548498 156.468497 
L 208.027468 156.74379 
L 208.506438 156.644623 
L 208.985408 156.952253 
L 209.464378 157.105996 
L 209.943348 157.920984 
L 210.422318 158.027306 
L 210.901288 158.313086 
L 211.859227 158.630829 
L 212.338197 158.620277 
L 212.817167 159.13463 
L 213.296137 160.29133 
L 213.775107 157.858826 
L 214.254077 157.259274 
L 214.733047 157.605607 
L 215.212017 156.16741 
L 215.690987 156.627946 
L 216.648927 157.224254 
L 217.127897 156.695763 
L 217.606867 155.951253 
L 218.085837 156.559003 
L 218.564807 156.053973 
L 219.043777 155.224078 
L 219.522747 156.291824 
L 220.480687 155.640236 
L 221.438627 155.190391 
L 221.917597 155.914737 
L 222.875536 157.014489 
L 223.833476 158.268666 
L 224.312446 159.536262 
L 224.791416 158.265564 
L 225.270386 158.140665 
L 225.749356 158.950263 
L 226.228326 158.59979 
L 226.707296 158.013887 
L 227.186266 156.635299 
L 227.665236 156.107381 
L 228.144206 156.826271 
L 228.623176 157.312363 
L 229.102146 157.25926 
L 230.060086 155.46528 
L 230.539056 155.145777 
L 231.496996 155.866358 
L 231.975966 154.682911 
L 232.933906 156.027059 
L 234.370815 158.008539 
L 234.849785 158.922613 
L 235.328755 158.887762 
L 235.807725 159.238827 
L 236.765665 157.573188 
L 237.244635 157.070535 
L 237.723605 157.41608 
L 238.202575 158.056377 
L 238.681545 156.847591 
L 239.160515 157.842055 
L 239.639485 157.696827 
L 240.118455 157.710144 
L 240.597425 157.054261 
L 241.076395 156.090094 
L 241.555365 157.047981 
L 242.034335 158.545673 
L 242.513305 157.515369 
L 242.992275 155.081594 
L 243.950215 156.874616 
L 244.908155 157.156533 
L 246.824034 158.098921 
L 247.303004 158.177059 
L 247.781974 158.675335 
L 248.260944 157.897388 
L 248.739914 156.820793 
L 249.218884 156.469279 
L 250.176824 156.986548 
L 250.655794 158.319261 
L 251.134764 158.421114 
L 251.613734 154.865219 
L 252.092704 155.694598 
L 252.571674 155.441857 
L 253.050644 154.780585 
L 253.529614 155.534143 
L 254.008584 154.82037 
L 254.966524 154.450558 
L 255.924464 155.627545 
L 256.882403 156.905078 
L 257.361373 157.662718 
L 257.840343 158.681935 
L 258.319313 157.302265 
L 258.798283 157.805657 
L 259.277253 158.792772 
L 259.756223 158.446025 
L 260.714163 155.998995 
L 261.193133 157.586959 
L 261.672103 158.36335 
L 262.151073 157.957934 
L 262.630043 157.19025 
L 263.109013 156.946484 
L 263.587983 158.640174 
L 264.066953 158.322724 
L 264.545923 155.114776 
L 265.024893 155.41388 
L 265.503863 157.491098 
L 265.982833 157.238475 
L 266.461803 155.723623 
L 266.940773 155.966399 
L 267.898712 156.607171 
L 269.814592 157.593626 
L 270.293562 157.60574 
L 270.772532 157.451735 
L 271.251502 159.172984 
L 271.730472 158.734254 
L 272.209442 156.852742 
L 272.688412 158.067387 
L 273.167382 156.567379 
L 273.646352 155.657126 
L 274.125322 157.755488 
L 274.604292 158.019111 
L 275.083262 157.19119 
L 275.562232 157.768755 
L 276.041202 156.417524 
L 276.520172 154.41974 
L 277.478112 156.3968 
L 277.957082 156.238394 
L 278.436052 157.82176 
L 278.915021 157.710152 
L 279.393991 156.085847 
L 279.872961 156.88238 
L 280.830901 157.801823 
L 281.309871 158.7192 
L 282.267811 156.648389 
L 282.746781 157.584507 
L 283.225751 157.881878 
L 283.704721 157.921044 
L 284.183691 158.221824 
L 284.662661 158.136436 
L 285.620601 158.261253 
L 286.099571 157.609996 
L 286.578541 156.61604 
L 287.057511 156.277265 
L 287.536481 156.887062 
L 288.494421 155.419003 
L 289.452361 155.652898 
L 289.93133 155.338818 
L 290.4103 154.588697 
L 290.88927 154.971889 
L 292.32618 156.853788 
L 292.80515 157.46689 
L 293.28412 158.679681 
L 293.76309 157.135872 
L 294.24206 156.549247 
L 294.72103 158.282493 
L 295.2 158.245937 
L 295.67897 159.10475 
L 296.15794 160.316883 
L 296.63691 158.928155 
L 297.11588 156.85876 
L 297.59485 157.170587 
L 298.07382 156.459588 
L 298.55279 156.385915 
L 299.03176 157.441909 
L 299.51073 157.201909 
L 299.9897 158.437664 
L 300.46867 158.608071 
L 300.947639 155.477661 
L 301.426609 154.959268 
L 301.905579 156.842566 
L 302.384549 157.161546 
L 302.863519 155.91299 
L 303.342489 155.455689 
L 303.821459 155.966052 
L 305.258369 156.767055 
L 306.216309 157.408336 
L 306.695279 157.417084 
L 307.653219 157.984345 
L 308.132189 158.633516 
L 308.611159 157.539068 
L 309.090129 157.007224 
L 309.569099 158.839615 
L 310.048069 158.712361 
L 310.527039 157.427712 
L 311.006009 156.653493 
L 311.484979 156.722946 
L 312.442918 155.133387 
L 312.921888 156.970939 
L 313.400858 156.727596 
L 313.879828 154.771308 
L 314.358798 155.327753 
L 315.316738 155.881833 
L 316.753648 156.972505 
L 317.232618 157.37279 
L 317.711588 158.054623 
L 318.190558 157.970842 
L 318.669528 156.693197 
L 319.148498 156.605958 
L 319.627468 157.336308 
L 321.064378 157.761448 
L 322.022318 158.524541 
L 322.501288 157.605698 
L 323.459227 157.288987 
L 323.938197 156.809699 
L 324.417167 156.60747 
L 324.896137 155.351727 
L 325.375107 155.856492 
L 325.854077 156.539272 
L 326.333047 156.139568 
L 326.812017 157.550335 
L 327.769957 156.269092 
L 328.248927 156.717639 
L 328.727897 155.395237 
L 329.206867 155.856303 
L 330.643777 157.572893 
L 331.601717 158.289351 
L 332.080687 157.890285 
L 332.559657 157.723008 
L 333.038627 158.554172 
L 333.517597 158.500665 
L 334.954506 159.088677 
L 335.433476 158.413422 
L 335.912446 157.358491 
L 336.870386 156.28557 
L 337.349356 156.409342 
L 339.265236 156.095775 
L 339.744206 157.339124 
L 340.223176 156.235432 
L 340.702146 156.017198 
L 341.181116 156.081573 
L 341.660086 155.593577 
L 342.139056 155.858924 
L 342.618026 154.958488 
L 343.096996 156.120208 
L 343.575966 156.852705 
L 344.054936 157.308103 
L 344.533906 158.030967 
L 345.012876 157.861393 
L 345.491845 156.774654 
L 346.449785 158.257991 
L 347.407725 158.610176 
L 348.365665 159.028869 
L 348.844635 159.723441 
L 349.323605 158.312448 
L 349.802575 157.753661 
L 350.281545 157.449106 
L 350.760515 155.973447 
L 351.239485 156.689088 
L 351.718455 156.437616 
L 352.197425 156.514183 
L 353.155365 155.608887 
L 353.634335 155.747965 
L 354.113305 155.140582 
L 354.592275 156.35237 
L 355.071245 156.148632 
L 355.550215 154.447011 
L 356.508155 155.665553 
L 356.987124 156.15396 
L 357.466094 157.161768 
L 357.945064 156.419653 
L 358.424034 155.450197 
L 358.903004 156.572814 
L 359.381974 157.147699 
L 360.818884 158.319835 
L 361.297854 158.707927 
L 361.776824 159.487972 
L 362.255794 158.035599 
L 362.734764 158.28758 
L 363.213734 158.218774 
L 363.692704 157.304993 
L 364.171674 157.551976 
L 364.650644 157.000373 
L 365.129614 157.032091 
L 366.087554 156.232036 
L 366.566524 155.188298 
L 367.045494 155.47495 
L 367.524464 155.986653 
L 368.482403 156.117701 
L 368.961373 156.286459 
L 369.440343 157.570082 
L 369.919313 157.544683 
L 370.398283 156.971383 
L 370.877253 157.45418 
L 371.356223 156.621551 
L 371.835193 156.583688 
L 372.793133 157.687782 
L 374.230043 158.820864 
L 374.709013 158.652772 
L 375.187983 158.674914 
L 375.666953 159.040652 
L 376.145923 158.766935 
L 376.624893 159.377838 
L 377.582833 156.55165 
L 378.061803 158.041496 
L 378.540773 157.882196 
L 379.498712 155.646603 
L 379.977682 155.499526 
L 380.456652 155.54047 
L 380.935622 155.132156 
L 381.893562 155.485677 
L 382.372532 155.610745 
L 382.851502 155.585298 
L 383.330472 156.796092 
L 383.809442 156.764099 
L 384.288412 156.237455 
L 384.767382 156.83612 
L 385.246352 156.207149 
L 385.725322 156.373566 
L 386.204292 157.519195 
L 386.683262 157.627756 
L 387.162232 157.003166 
L 387.641202 157.635491 
L 388.120172 157.175835 
L 388.599142 157.022366 
L 389.078112 157.952673 
L 389.557082 158.22508 
L 390.036052 158.087119 
L 390.515021 158.348233 
L 391.472961 159.246359 
L 391.951931 158.203953 
L 392.430901 157.484682 
L 392.909871 157.256046 
L 393.388841 155.838293 
L 393.867811 156.521599 
L 394.346781 156.530299 
L 394.825751 155.611404 
L 395.304721 156.889777 
L 395.783691 156.087172 
L 396.262661 154.386237 
L 396.741631 155.111386 
L 397.699571 155.474673 
L 398.178541 156.612356 
L 398.657511 157.18958 
L 399.136481 156.287676 
L 399.615451 156.268128 
L 400.094421 157.214693 
L 400.573391 157.138418 
L 401.052361 156.380786 
L 401.53133 156.472017 
L 402.0103 157.161514 
L 402.48927 157.441015 
L 402.96824 157.378705 
L 403.44721 158.008979 
L 404.40515 158.464044 
L 404.88412 158.761215 
L 405.36309 159.405353 
L 405.84206 158.325063 
L 406.32103 157.576382 
L 406.8 157.616617 
L 407.27897 156.226287 
L 407.75794 157.060975 
L 408.23691 157.247327 
L 408.71588 156.388063 
L 409.19485 156.777899 
L 409.67382 155.928373 
L 410.15279 156.562994 
L 410.63176 156.129028 
L 411.11073 155.459646 
L 412.06867 154.89775 
L 412.547639 156.000476 
L 413.026609 155.00017 
L 413.505579 155.224909 
L 413.984549 156.186614 
L 414.942489 157.147456 
L 415.421459 158.807734 
L 415.900429 158.448024 
L 416.379399 157.260032 
L 416.858369 158.092759 
L 417.337339 159.28557 
L 417.816309 157.872828 
L 418.295279 157.550505 
L 418.774249 159.122706 
L 419.253219 158.978449 
L 419.732189 159.196619 
L 420.211159 159.537956 
L 420.690129 158.63777 
L 421.169099 157.164594 
L 421.648069 157.655614 
L 422.127039 157.701723 
L 423.563948 156.74998 
L 424.042918 156.734676 
L 424.521888 156.065459 
L 425.000858 156.79922 
L 425.479828 156.013003 
L 425.958798 154.421463 
L 426.437768 154.663276 
L 426.916738 155.346572 
L 427.395708 155.124826 
L 427.874678 154.425043 
L 429.311588 155.923309 
L 430.269528 156.581266 
L 430.748498 156.444436 
L 431.227468 158.682353 
L 431.706438 158.159258 
L 432.185408 157.42984 
L 432.664378 157.091078 
L 433.143348 157.089741 
L 433.622318 157.440729 
L 434.101288 157.544721 
L 434.580258 158.164184 
L 435.059227 156.815091 
L 435.538197 157.757455 
L 436.017167 158.236428 
L 437.454077 158.672457 
L 437.933047 156.93353 
L 438.412017 156.553811 
L 438.890987 157.571261 
L 439.369957 156.854146 
L 439.848927 157.750532 
L 440.327897 157.56678 
L 441.285837 155.683699 
L 441.764807 155.304959 
L 442.243777 156.459001 
L 442.722747 155.521244 
L 443.201717 155.83705 
L 443.680687 155.448307 
L 444.159657 155.859729 
L 445.117597 156.090783 
L 445.596567 156.809017 
L 446.075536 157.063468 
L 446.554506 157.081361 
L 447.033476 157.91084 
L 447.512446 157.372959 
L 447.991416 156.303292 
L 448.470386 158.531771 
L 448.949356 159.021125 
L 449.428326 158.712051 
L 449.907296 158.632477 
L 450.386266 159.656335 
L 450.865236 159.701133 
L 451.823176 159.325364 
L 452.302146 159.610348 
L 452.781116 159.416807 
L 453.260086 159.754108 
L 454.218026 156.560132 
L 454.696996 157.387826 
L 455.175966 156.835518 
L 457.091845 155.48749 
L 457.570815 154.850847 
L 458.049785 155.475118 
L 458.528755 154.442172 
L 459.007725 154.332108 
L 459.486695 154.57954 
L 459.965665 152.996561 
L 461.402575 155.190965 
L 461.881545 156.480357 
L 462.839485 155.909453 
L 463.318455 156.41806 
L 463.797425 157.284917 
L 464.276395 159.566437 
L 464.755365 157.691254 
L 465.234335 157.221008 
L 465.713305 157.635009 
L 466.192275 158.277044 
L 467.150215 158.300356 
L 467.629185 158.549702 
L 468.108155 157.993086 
L 468.587124 157.977798 
L 469.066094 157.771819 
L 469.545064 157.754603 
L 470.024034 156.888209 
L 470.503004 157.766255 
L 470.981974 157.310227 
L 471.460944 157.260866 
L 472.418884 156.866933 
L 474.334764 156.132122 
L 474.813734 156.259592 
L 475.292704 155.963531 
L 475.771674 156.476032 
L 476.729614 155.603153 
L 477.208584 155.784797 
L 477.687554 155.352704 
L 478.166524 157.036759 
L 478.645494 156.300133 
L 479.124464 156.670263 
L 479.603433 156.842387 
L 480.082403 156.193803 
L 480.561373 156.13674 
L 481.040343 156.800408 
L 481.519313 156.803425 
L 481.998283 155.907007 
L 482.477253 157.513323 
L 482.956223 157.70646 
L 483.435193 158.038304 
L 483.914163 158.202143 
L 484.393133 158.495029 
L 484.872103 158.608932 
L 485.351073 158.856317 
L 485.830043 158.959156 
L 486.309013 159.226401 
L 486.787983 157.474461 
L 487.266953 157.016888 
L 487.745923 158.040565 
L 488.224893 157.508686 
L 488.703863 157.438878 
L 489.182833 157.143227 
L 489.661803 157.008147 
L 490.140773 156.709478 
L 490.619742 156.57675 
L 491.098712 156.289903 
L 492.056652 155.983305 
L 492.535622 155.551746 
L 493.014592 157.029164 
L 493.493562 156.22455 
L 493.972532 154.23856 
L 494.451502 154.838307 
L 495.409442 155.187305 
L 495.888412 156.421837 
L 496.846352 156.278328 
L 497.325322 157.558805 
L 497.804292 157.186277 
L 498.762232 156.856967 
L 499.241202 156.569353 
L 499.720172 157.402552 
L 500.199142 158.828151 
L 500.678112 157.593357 
L 501.157082 158.206967 
L 501.636052 158.050582 
L 502.115021 157.325062 
L 502.593991 158.824098 
L 503.072961 158.476587 
L 503.551931 158.607028 
L 504.030901 158.464451 
L 504.509871 158.444944 
L 504.988841 158.223888 
L 505.467811 158.131338 
L 507.383691 157.021122 
L 510.257511 156.409982 
L 512.652361 156.099056 
L 516.48412 155.880726 
L 518.4 155.719708 
L 518.4 155.719708 
" style="fill:none;stroke:#ff0000;stroke-linecap:square;stroke-width:2;"/>
   </g>
   <g id="patch_3">
    <path d="M 72 320.4 
L 72 43.2 
" style="fill:none;stroke:#000000;stroke-linecap:square;stroke-linejoin:miter;stroke-width:0.8;"/>
   </g>
   <g id="patch_4">
    <path d="M 518.4 320.4 
L 518.4 43.2 
" style="fill:none;stroke:#000000;stroke-linecap:square;stroke-linejoin:miter;stroke-width:0.8;"/>
   </g>
   <g id="patch_5">
    <path d="M 72 320.4 
L 518.4 320.4 
" style="fill:none;stroke:#000000;stroke-linecap:square;stroke-linejoin:miter;stroke-width:0.8;"/>
   </g>
   <g id="patch_6">
    <path d="M 72 43.2 
L 518.4 43.2 
" style="fill:none;stroke:#000000;stroke-linecap:square;stroke-linejoin:miter;stroke-width:0.8;"/>
   </g>
   <g id="text_17">
    <!-- Front Propogation Speed -->
    <g transform="translate(172.245312 37.2)scale(0.2 -0.2)">
     <defs>
      <path d="M 628 4666 
L 3309 4666 
L 3309 4134 
L 1259 4134 
L 1259 2759 
L 3109 2759 
L 3109 2228 
L 1259 2228 
L 1259 0 
L 628 0 
L 628 4666 
z
" id="DejaVuSans-46" transform="scale(0.015625)"/>
      <path d="M 2631 2963 
Q 2534 3019 2420 3045 
Q 2306 3072 2169 3072 
Q 1681 3072 1420 2755 
Q 1159 2438 1159 1844 
L 1159 0 
L 581 0 
L 581 3500 
L 1159 3500 
L 1159 2956 
Q 1341 3275 1631 3429 
Q 1922 3584 2338 3584 
Q 2397 3584 2469 3576 
Q 2541 3569 2628 3553 
L 2631 2963 
z
" id="DejaVuSans-72" transform="scale(0.015625)"/>
      <path d="M 1172 4494 
L 1172 3500 
L 2356 3500 
L 2356 3053 
L 1172 3053 
L 1172 1153 
Q 1172 725 1289 603 
Q 1406 481 1766 481 
L 2356 481 
L 2356 0 
L 1766 0 
Q 1100 0 847 248 
Q 594 497 594 1153 
L 594 3053 
L 172 3053 
L 172 3500 
L 594 3500 
L 594 4494 
L 1172 4494 
z
" id="DejaVuSans-74" transform="scale(0.015625)"/>
      <path d="M 1259 4147 
L 1259 2394 
L 2053 2394 
Q 2494 2394 2734 2622 
Q 2975 2850 2975 3272 
Q 2975 3691 2734 3919 
Q 2494 4147 2053 4147 
L 1259 4147 
z
M 628 4666 
L 2053 4666 
Q 2838 4666 3239 4311 
Q 3641 3956 3641 3272 
Q 3641 2581 3239 2228 
Q 2838 1875 2053 1875 
L 1259 1875 
L 1259 0 
L 628 0 
L 628 4666 
z
" id="DejaVuSans-50" transform="scale(0.015625)"/>
      <path d="M 2906 1791 
Q 2906 2416 2648 2759 
Q 2391 3103 1925 3103 
Q 1463 3103 1205 2759 
Q 947 2416 947 1791 
Q 947 1169 1205 825 
Q 1463 481 1925 481 
Q 2391 481 2648 825 
Q 2906 1169 2906 1791 
z
M 3481 434 
Q 3481 -459 3084 -895 
Q 2688 -1331 1869 -1331 
Q 1566 -1331 1297 -1286 
Q 1028 -1241 775 -1147 
L 775 -588 
Q 1028 -725 1275 -790 
Q 1522 -856 1778 -856 
Q 2344 -856 2625 -561 
Q 2906 -266 2906 331 
L 2906 616 
Q 2728 306 2450 153 
Q 2172 0 1784 0 
Q 1141 0 747 490 
Q 353 981 353 1791 
Q 353 2603 747 3093 
Q 1141 3584 1784 3584 
Q 2172 3584 2450 3431 
Q 2728 3278 2906 2969 
L 2906 3500 
L 3481 3500 
L 3481 434 
z
" id="DejaVuSans-67" transform="scale(0.015625)"/>
      <path d="M 2194 1759 
Q 1497 1759 1228 1600 
Q 959 1441 959 1056 
Q 959 750 1161 570 
Q 1363 391 1709 391 
Q 2188 391 2477 730 
Q 2766 1069 2766 1631 
L 2766 1759 
L 2194 1759 
z
M 3341 1997 
L 3341 0 
L 2766 0 
L 2766 531 
Q 2569 213 2275 61 
Q 1981 -91 1556 -91 
Q 1019 -91 701 211 
Q 384 513 384 1019 
Q 384 1609 779 1909 
Q 1175 2209 1959 2209 
L 2766 2209 
L 2766 2266 
Q 2766 2663 2505 2880 
Q 2244 3097 1772 3097 
Q 1472 3097 1187 3025 
Q 903 2953 641 2809 
L 641 3341 
Q 956 3463 1253 3523 
Q 1550 3584 1831 3584 
Q 2591 3584 2966 3190 
Q 3341 2797 3341 1997 
z
" id="DejaVuSans-61" transform="scale(0.015625)"/>
     </defs>
     <use xlink:href="#DejaVuSans-46"/>
     <use x="50.269531" xlink:href="#DejaVuSans-72"/>
     <use x="89.132812" xlink:href="#DejaVuSans-6f"/>
     <use x="150.314453" xlink:href="#DejaVuSans-6e"/>
     <use x="213.693359" xlink:href="#DejaVuSans-74"/>
     <use x="252.902344" xlink:href="#DejaVuSans-20"/>
     <use x="284.689453" xlink:href="#DejaVuSans-50"/>
     <use x="343.242188" xlink:href="#DejaVuSans-72"/>
     <use x="382.105469" xlink:href="#DejaVuSans-6f"/>
     <use x="443.287109" xlink:href="#DejaVuSans-70"/>
     <use x="506.763672" xlink:href="#DejaVuSans-6f"/>
     <use x="567.945312" xlink:href="#DejaVuSans-67"/>
     <use x="631.421875" xlink:href="#DejaVuSans-61"/>
     <use x="692.701172" xlink:href="#DejaVuSans-74"/>
     <use x="731.910156" xlink:href="#DejaVuSans-69"/>
     <use x="759.693359" xlink:href="#DejaVuSans-6f"/>
     <use x="820.875" xlink:href="#DejaVuSans-6e"/>
     <use x="884.253906" xlink:href="#DejaVuSans-20"/>
     <use x="916.041016" xlink:href="#DejaVuSans-53"/>
     <use x="979.517578" xlink:href="#DejaVuSans-70"/>
     <use x="1042.994141" xlink:href="#DejaVuSans-65"/>
     <use x="1104.517578" xlink:href="#DejaVuSans-65"/>
     <use x="1166.041016" xlink:href="#DejaVuSans-64"/>
    </g>
   </g>
   <g id="legend_1">
    <g id="patch_7">
     <path d="M 334.875313 111.175687 
L 508.6 111.175687 
Q 511.4 111.175687 511.4 108.375687 
L 511.4 53 
Q 511.4 50.2 508.6 50.2 
L 334.875313 50.2 
Q 332.075312 50.2 332.075312 53 
L 332.075312 108.375687 
Q 332.075312 111.175687 334.875313 111.175687 
z
" style="fill:#ffffff;opacity:0.8;stroke:#cccccc;stroke-linejoin:miter;"/>
    </g>
    <g id="line2d_17">
     <path d="M 337.675313 61.537812 
L 365.675313 61.537812 
" style="fill:none;stroke:#ff0000;stroke-linecap:square;stroke-width:2;"/>
    </g>
    <g id="line2d_18"/>
    <g id="text_18">
     <!-- Front speed -->
     <g transform="translate(376.875313 66.437812)scale(0.14 -0.14)">
      <use xlink:href="#DejaVuSans-46"/>
      <use x="50.269531" xlink:href="#DejaVuSans-72"/>
      <use x="89.132812" xlink:href="#DejaVuSans-6f"/>
      <use x="150.314453" xlink:href="#DejaVuSans-6e"/>
      <use x="213.693359" xlink:href="#DejaVuSans-74"/>
      <use x="252.902344" xlink:href="#DejaVuSans-20"/>
      <use x="284.689453" xlink:href="#DejaVuSans-73"/>
      <use x="336.789062" xlink:href="#DejaVuSans-70"/>
      <use x="400.265625" xlink:href="#DejaVuSans-65"/>
      <use x="461.789062" xlink:href="#DejaVuSans-65"/>
      <use x="523.3125" xlink:href="#DejaVuSans-64"/>
     </g>
    </g>
    <g id="line2d_19">
     <path d="M 337.675313 91.381437 
L 365.675313 91.381437 
" style="fill:none;stroke:#000000;stroke-dasharray:5.55,2.4;stroke-dashoffset:0;stroke-width:1.5;"/>
    </g>
    <g id="line2d_20"/>
    <g id="text_19">
     <!-- Steady state -->
     <g transform="translate(376.875313 86.987187)scale(0.14 -0.14)">
      <defs>
       <path d="M 2059 -325 
Q 1816 -950 1584 -1140 
Q 1353 -1331 966 -1331 
L 506 -1331 
L 506 -850 
L 844 -850 
Q 1081 -850 1212 -737 
Q 1344 -625 1503 -206 
L 1606 56 
L 191 3500 
L 800 3500 
L 1894 763 
L 2988 3500 
L 3597 3500 
L 2059 -325 
z
" id="DejaVuSans-79" transform="scale(0.015625)"/>
      </defs>
      <use xlink:href="#DejaVuSans-53"/>
      <use x="63.476562" xlink:href="#DejaVuSans-74"/>
      <use x="102.685547" xlink:href="#DejaVuSans-65"/>
      <use x="164.208984" xlink:href="#DejaVuSans-61"/>
      <use x="225.488281" xlink:href="#DejaVuSans-64"/>
      <use x="288.964844" xlink:href="#DejaVuSans-79"/>
      <use x="348.144531" xlink:href="#DejaVuSans-20"/>
      <use x="379.931641" xlink:href="#DejaVuSans-73"/>
      <use x="432.03125" xlink:href="#DejaVuSans-74"/>
      <use x="471.240234" xlink:href="#DejaVuSans-61"/>
      <use x="532.519531" xlink:href="#DejaVuSans-74"/>
      <use x="571.728516" xlink:href="#DejaVuSans-65"/>
     </g>
     <!-- speed = 1.3 mm/s -->
     <g transform="translate(376.875313 102.664125)scale(0.14 -0.14)">
      <defs>
       <path d="M 678 2906 
L 4684 2906 
L 4684 2381 
L 678 2381 
L 678 2906 
z
M 678 1631 
L 4684 1631 
L 4684 1100 
L 678 1100 
L 678 1631 
z
" id="DejaVuSans-3d" transform="scale(0.015625)"/>
       <path d="M 2597 2516 
Q 3050 2419 3304 2112 
Q 3559 1806 3559 1356 
Q 3559 666 3084 287 
Q 2609 -91 1734 -91 
Q 1441 -91 1130 -33 
Q 819 25 488 141 
L 488 750 
Q 750 597 1062 519 
Q 1375 441 1716 441 
Q 2309 441 2620 675 
Q 2931 909 2931 1356 
Q 2931 1769 2642 2001 
Q 2353 2234 1838 2234 
L 1294 2234 
L 1294 2753 
L 1863 2753 
Q 2328 2753 2575 2939 
Q 2822 3125 2822 3475 
Q 2822 3834 2567 4026 
Q 2313 4219 1838 4219 
Q 1578 4219 1281 4162 
Q 984 4106 628 3988 
L 628 4550 
Q 988 4650 1302 4700 
Q 1616 4750 1894 4750 
Q 2613 4750 3031 4423 
Q 3450 4097 3450 3541 
Q 3450 3153 3228 2886 
Q 3006 2619 2597 2516 
z
" id="DejaVuSans-33" transform="scale(0.015625)"/>
      </defs>
      <use xlink:href="#DejaVuSans-73"/>
      <use x="52.099609" xlink:href="#DejaVuSans-70"/>
      <use x="115.576172" xlink:href="#DejaVuSans-65"/>
      <use x="177.099609" xlink:href="#DejaVuSans-65"/>
      <use x="238.623047" xlink:href="#DejaVuSans-64"/>
      <use x="302.099609" xlink:href="#DejaVuSans-20"/>
      <use x="333.886719" xlink:href="#DejaVuSans-3d"/>
      <use x="417.675781" xlink:href="#DejaVuSans-20"/>
      <use x="449.462891" xlink:href="#DejaVuSans-31"/>
      <use x="513.085938" xlink:href="#DejaVuSans-2e"/>
      <use x="544.873047" xlink:href="#DejaVuSans-33"/>
      <use x="608.496094" xlink:href="#DejaVuSans-20"/>
      <use x="640.283203" xlink:href="#DejaVuSans-6d"/>
      <use x="737.695312" xlink:href="#DejaVuSans-6d"/>
      <use x="835.107422" xlink:href="#DejaVuSans-2f"/>
      <use x="868.798828" xlink:href="#DejaVuSans-73"/>
     </g>
    </g>
   </g>
  </g>
 </g>
 <defs>
  <clipPath id="p8aca896def">
   <rect height="277.2" width="446.4" x="72" y="43.2"/>
  </clipPath>
 </defs>
</svg>
