<?xml version="1.0" encoding="utf-8" standalone="no"?>
<!DOCTYPE svg PUBLIC "-//W3C//DTD SVG 1.1//EN"
  "http://www.w3.org/Graphics/SVG/1.1/DTD/svg11.dtd">
<svg height="360pt" version="1.1" viewBox="0 0 576 360" width="576pt" xmlns="http://www.w3.org/2000/svg" xmlns:xlink="http://www.w3.org/1999/xlink">
 <metadata>
  <rdf:RDF xmlns:cc="http://creativecommons.org/ns#" xmlns:dc="http://purl.org/dc/elements/1.1/" xmlns:rdf="http://www.w3.org/1999/02/22-rdf-syntax-ns#">
   <cc:Work>
    <dc:type rdf:resource="http://purl.org/dc/dcmitype/StillImage"/>
    <dc:date>2022-06-30T14:42:38.450859</dc:date>
    <dc:format>image/svg+xml</dc:format>
    <dc:creator>
     <cc:Agent>
      <dc:title>Matplotlib v3.4.3, https://matplotlib.org/</dc:title>
     </cc:Agent>
    </dc:creator>
   </cc:Work>
  </rdf:RDF>
 </metadata>
 <defs>
  <style type="text/css">*{stroke-linecap:butt;stroke-linejoin:round;}</style>
 </defs>
 <g id="figure_1">
  <g id="patch_1">
   <path d="M 0 360 
L 576 360 
L 576 0 
L 0 0 
z
" style="fill:#ffffff;"/>
  </g>
  <g id="axes_1">
   <g id="patch_2">
    <path d="M 72 320.4 
L 518.4 320.4 
L 518.4 43.2 
L 72 43.2 
z
" style="fill:#ffffff;"/>
   </g>
   <g id="PolyCollection_1">
    <defs>
     <path d="M 72 -124.952377 
L 72 -133.678581 
L 73.086131 -133.678581 
L 74.172263 -133.678581 
L 75.258394 -133.678581 
L 76.344526 -133.678581 
L 77.430657 -133.678581 
L 78.516788 -133.678581 
L 79.60292 -133.678581 
L 80.689051 -133.678581 
L 81.775182 -133.678581 
L 82.861314 -133.678581 
L 83.947445 -133.678581 
L 85.033577 -133.678581 
L 86.119708 -133.678581 
L 87.205839 -133.678581 
L 88.291971 -133.678581 
L 89.378102 -133.678581 
L 90.464234 -133.678581 
L 91.550365 -133.678581 
L 92.636496 -133.678581 
L 93.722628 -133.678581 
L 94.808759 -133.678581 
L 95.894891 -133.678581 
L 96.981022 -133.678581 
L 98.067153 -133.678581 
L 99.153285 -133.678581 
L 100.239416 -133.678581 
L 101.325547 -133.678581 
L 102.411679 -133.678581 
L 103.49781 -133.678581 
L 104.583942 -133.678581 
L 105.670073 -133.678581 
L 106.756204 -133.678581 
L 107.842336 -133.678581 
L 108.928467 -133.678581 
L 110.014599 -133.678581 
L 111.10073 -133.678581 
L 112.186861 -133.678581 
L 113.272993 -133.678581 
L 114.359124 -133.678581 
L 115.445255 -133.678581 
L 116.531387 -133.678581 
L 117.617518 -133.678581 
L 118.70365 -133.678581 
L 119.789781 -133.678581 
L 120.875912 -133.678581 
L 121.962044 -133.678581 
L 123.048175 -133.678581 
L 124.134307 -133.678581 
L 125.220438 -133.678581 
L 126.306569 -133.678581 
L 127.392701 -133.678581 
L 128.478832 -133.678581 
L 129.564964 -133.678581 
L 130.651095 -133.678581 
L 131.737226 -133.678581 
L 132.823358 -133.678581 
L 133.909489 -133.678581 
L 134.99562 -133.678581 
L 136.081752 -133.678581 
L 137.167883 -133.678581 
L 138.254015 -133.678581 
L 139.340146 -133.678581 
L 140.426277 -133.678581 
L 141.512409 -133.678581 
L 142.59854 -133.678581 
L 143.684672 -133.678581 
L 144.770803 -133.678581 
L 145.856934 -133.678581 
L 146.943066 -133.678581 
L 148.029197 -133.678581 
L 149.115328 -133.678581 
L 150.20146 -133.678581 
L 151.287591 -133.678581 
L 152.373723 -133.678581 
L 153.459854 -133.678581 
L 154.545985 -133.678581 
L 155.632117 -133.678581 
L 156.718248 -133.678581 
L 157.80438 -133.678581 
L 158.890511 -133.678581 
L 159.976642 -133.678581 
L 161.062774 -133.678581 
L 162.148905 -133.678581 
L 163.235036 -133.678581 
L 164.321168 -133.678581 
L 165.407299 -133.678581 
L 166.493431 -133.678581 
L 167.579562 -133.678581 
L 168.665693 -133.678581 
L 169.751825 -133.678581 
L 170.837956 -133.678581 
L 171.924088 -133.678581 
L 173.010219 -133.678581 
L 174.09635 -133.678581 
L 175.182482 -133.678581 
L 176.268613 -133.678581 
L 177.354745 -133.678581 
L 178.440876 -133.678581 
L 179.527007 -133.678581 
L 180.613139 -133.678581 
L 181.69927 -133.678581 
L 182.785401 -133.678581 
L 183.871533 -133.678581 
L 184.957664 -133.678581 
L 186.043796 -133.678581 
L 187.129927 -133.678581 
L 188.216058 -133.678581 
L 189.30219 -133.678581 
L 190.388321 -133.678581 
L 191.474453 -133.678581 
L 192.560584 -133.678581 
L 193.646715 -133.678581 
L 194.732847 -133.678581 
L 195.818978 -133.678581 
L 196.905109 -133.678581 
L 197.991241 -133.678581 
L 199.077372 -133.678581 
L 200.163504 -133.678581 
L 201.249635 -133.678581 
L 202.335766 -133.678581 
L 203.421898 -133.678581 
L 204.508029 -133.678581 
L 205.594161 -133.678581 
L 206.680292 -133.678581 
L 207.766423 -133.678581 
L 208.852555 -133.678581 
L 209.938686 -133.678581 
L 211.024818 -133.678581 
L 212.110949 -133.678581 
L 213.19708 -133.678581 
L 214.283212 -133.678581 
L 215.369343 -133.678581 
L 216.455474 -133.678581 
L 217.541606 -133.678581 
L 218.627737 -133.678581 
L 219.713869 -133.678581 
L 220.8 -133.678581 
L 221.886131 -133.678581 
L 222.972263 -133.678581 
L 224.058394 -133.678581 
L 225.144526 -133.678581 
L 226.230657 -133.678581 
L 227.316788 -133.678581 
L 228.40292 -133.678581 
L 229.489051 -133.678581 
L 230.575182 -133.678581 
L 231.661314 -133.678581 
L 232.747445 -133.678581 
L 233.833577 -133.678581 
L 234.919708 -133.678581 
L 236.005839 -133.678581 
L 237.091971 -133.678581 
L 238.178102 -133.678581 
L 239.264234 -133.678581 
L 240.350365 -133.678581 
L 241.436496 -133.678581 
L 242.522628 -133.678581 
L 243.608759 -133.678581 
L 244.694891 -133.678581 
L 245.781022 -133.678581 
L 246.867153 -133.678581 
L 247.953285 -133.678581 
L 249.039416 -133.678581 
L 250.125547 -133.678581 
L 251.211679 -133.678581 
L 252.29781 -133.678581 
L 253.383942 -133.678581 
L 254.470073 -133.678581 
L 255.556204 -133.678581 
L 256.642336 -133.678581 
L 257.728467 -133.678581 
L 258.814599 -133.678581 
L 259.90073 -133.678581 
L 260.986861 -133.678581 
L 262.072993 -133.678581 
L 263.159124 -133.678581 
L 264.245255 -133.678581 
L 265.331387 -133.678581 
L 266.417518 -133.678581 
L 267.50365 -133.678581 
L 268.589781 -133.678581 
L 269.675912 -133.678581 
L 270.762044 -133.678581 
L 271.848175 -133.678581 
L 272.934307 -133.678581 
L 274.020438 -133.678581 
L 275.106569 -133.678581 
L 276.192701 -133.678581 
L 277.278832 -133.678581 
L 278.364964 -133.678581 
L 279.451095 -133.678581 
L 280.537226 -133.678581 
L 281.623358 -133.678581 
L 282.709489 -133.678581 
L 283.79562 -133.678581 
L 284.881752 -133.678581 
L 285.967883 -133.678581 
L 287.054015 -133.678581 
L 288.140146 -133.678581 
L 289.226277 -133.678581 
L 290.312409 -133.678581 
L 291.39854 -133.678581 
L 292.484672 -133.678581 
L 293.570803 -133.678581 
L 294.656934 -133.678581 
L 295.743066 -133.678581 
L 296.829197 -133.678581 
L 297.915328 -133.678581 
L 299.00146 -133.678581 
L 300.087591 -133.678581 
L 301.173723 -133.678581 
L 302.259854 -133.678581 
L 303.345985 -133.678581 
L 304.432117 -133.678581 
L 305.518248 -133.678581 
L 306.60438 -133.678581 
L 307.690511 -133.678581 
L 308.776642 -133.678581 
L 309.862774 -133.678581 
L 310.948905 -133.678581 
L 312.035036 -133.678581 
L 313.121168 -133.678581 
L 314.207299 -133.678581 
L 315.293431 -133.678581 
L 316.379562 -133.678581 
L 317.465693 -133.678581 
L 318.551825 -133.678581 
L 319.637956 -133.678581 
L 320.724088 -133.678581 
L 321.810219 -133.678581 
L 322.89635 -133.678581 
L 323.982482 -133.678581 
L 325.068613 -133.678581 
L 326.154745 -133.678581 
L 327.240876 -133.678581 
L 328.327007 -133.678581 
L 329.413139 -133.678581 
L 330.49927 -133.678581 
L 331.585401 -133.678581 
L 332.671533 -133.678581 
L 333.757664 -133.678581 
L 334.843796 -133.678581 
L 335.929927 -133.678581 
L 337.016058 -133.678581 
L 338.10219 -133.678581 
L 339.188321 -133.678581 
L 340.274453 -133.678581 
L 341.360584 -133.678581 
L 342.446715 -133.678581 
L 343.532847 -133.678581 
L 344.618978 -133.678581 
L 345.705109 -133.678581 
L 346.791241 -133.678581 
L 347.877372 -133.678581 
L 348.963504 -133.678581 
L 350.049635 -133.678581 
L 351.135766 -133.678581 
L 352.221898 -133.678581 
L 353.308029 -133.678581 
L 354.394161 -133.678581 
L 355.480292 -133.678581 
L 356.566423 -133.678581 
L 357.652555 -133.678581 
L 358.738686 -133.678581 
L 359.824818 -133.678581 
L 360.910949 -133.678581 
L 361.99708 -133.678581 
L 363.083212 -133.678581 
L 364.169343 -133.678581 
L 365.255474 -133.678581 
L 366.341606 -133.678581 
L 367.427737 -133.678581 
L 368.513869 -133.678581 
L 369.6 -133.678581 
L 370.686131 -133.678581 
L 371.772263 -133.678581 
L 372.858394 -133.678581 
L 373.944526 -133.678581 
L 375.030657 -133.678581 
L 376.116788 -133.678581 
L 377.20292 -133.678581 
L 378.289051 -133.678581 
L 379.375182 -133.678581 
L 380.461314 -133.678581 
L 381.547445 -133.678581 
L 382.633577 -133.678581 
L 383.719708 -133.678581 
L 384.805839 -133.678581 
L 385.891971 -133.678581 
L 386.978102 -133.678581 
L 388.064234 -133.678581 
L 389.150365 -133.678581 
L 390.236496 -133.678581 
L 391.322628 -133.678581 
L 392.408759 -133.678581 
L 393.494891 -133.678581 
L 394.581022 -133.678581 
L 395.667153 -133.678581 
L 396.753285 -133.678581 
L 397.839416 -133.678581 
L 398.925547 -133.678581 
L 400.011679 -133.678581 
L 401.09781 -133.678581 
L 402.183942 -133.678581 
L 403.270073 -133.678581 
L 404.356204 -133.678581 
L 405.442336 -133.678581 
L 406.528467 -133.678581 
L 407.614599 -133.678581 
L 408.70073 -133.678581 
L 409.786861 -133.678581 
L 410.872993 -133.678581 
L 411.959124 -133.678581 
L 413.045255 -133.678581 
L 414.131387 -133.678581 
L 415.217518 -133.678581 
L 416.30365 -133.678581 
L 417.389781 -133.678581 
L 418.475912 -133.678581 
L 419.562044 -133.678581 
L 420.648175 -133.678581 
L 421.734307 -133.678581 
L 422.820438 -133.678581 
L 423.906569 -133.678581 
L 424.992701 -133.678581 
L 426.078832 -133.678581 
L 427.164964 -133.678581 
L 428.251095 -133.678581 
L 429.337226 -133.678581 
L 430.423358 -133.678581 
L 431.509489 -133.678581 
L 432.59562 -133.678581 
L 433.681752 -133.678581 
L 434.767883 -133.678581 
L 435.854015 -133.678581 
L 436.940146 -133.678581 
L 438.026277 -133.678581 
L 439.112409 -133.678581 
L 440.19854 -133.678581 
L 441.284672 -133.678581 
L 442.370803 -133.678581 
L 443.456934 -133.678581 
L 444.543066 -133.678581 
L 445.629197 -133.678581 
L 446.715328 -133.678581 
L 447.80146 -133.678581 
L 448.887591 -133.678581 
L 449.973723 -133.678581 
L 451.059854 -133.678581 
L 452.145985 -133.678581 
L 453.232117 -133.678581 
L 454.318248 -133.678581 
L 455.40438 -133.678581 
L 456.490511 -133.678581 
L 457.576642 -133.678581 
L 458.662774 -133.678581 
L 459.748905 -133.678581 
L 460.835036 -133.678581 
L 461.921168 -133.678581 
L 463.007299 -133.678581 
L 464.093431 -133.678581 
L 465.179562 -133.678581 
L 466.265693 -133.678581 
L 467.351825 -133.678581 
L 468.437956 -133.678581 
L 469.524088 -133.678581 
L 470.610219 -133.678581 
L 471.69635 -133.678581 
L 472.782482 -133.678581 
L 473.868613 -133.678581 
L 474.954745 -133.678581 
L 476.040876 -133.678581 
L 477.127007 -133.678581 
L 478.213139 -133.678581 
L 479.29927 -133.678581 
L 480.385401 -133.678581 
L 481.471533 -133.678581 
L 482.557664 -133.678581 
L 483.643796 -133.678581 
L 484.729927 -133.678581 
L 485.816058 -133.678581 
L 486.90219 -133.678581 
L 487.988321 -133.678581 
L 489.074453 -133.678581 
L 490.160584 -133.678581 
L 491.246715 -133.678581 
L 492.332847 -133.678581 
L 493.418978 -133.678581 
L 494.505109 -133.678581 
L 495.591241 -133.678581 
L 496.677372 -133.678581 
L 497.763504 -133.678581 
L 498.849635 -133.678581 
L 499.935766 -133.678581 
L 501.021898 -133.678581 
L 502.108029 -133.678581 
L 503.194161 -133.678581 
L 504.280292 -133.678581 
L 505.366423 -133.678581 
L 506.452555 -133.678581 
L 507.538686 -133.678581 
L 508.624818 -133.678581 
L 509.710949 -133.678581 
L 510.79708 -133.678581 
L 511.883212 -133.678581 
L 512.969343 -133.678581 
L 514.055474 -133.678581 
L 515.141606 -133.678581 
L 516.227737 -133.678581 
L 517.313869 -133.678581 
L 518.4 -133.678581 
L 518.4 -124.952377 
L 518.4 -124.952377 
L 517.313869 -124.952377 
L 516.227737 -124.952377 
L 515.141606 -124.952377 
L 514.055474 -124.952377 
L 512.969343 -124.952377 
L 511.883212 -124.952377 
L 510.79708 -124.952377 
L 509.710949 -124.952377 
L 508.624818 -124.952377 
L 507.538686 -124.952377 
L 506.452555 -124.952377 
L 505.366423 -124.952377 
L 504.280292 -124.952377 
L 503.194161 -124.952377 
L 502.108029 -124.952377 
L 501.021898 -124.952377 
L 499.935766 -124.952377 
L 498.849635 -124.952377 
L 497.763504 -124.952377 
L 496.677372 -124.952377 
L 495.591241 -124.952377 
L 494.505109 -124.952377 
L 493.418978 -124.952377 
L 492.332847 -124.952377 
L 491.246715 -124.952377 
L 490.160584 -124.952377 
L 489.074453 -124.952377 
L 487.988321 -124.952377 
L 486.90219 -124.952377 
L 485.816058 -124.952377 
L 484.729927 -124.952377 
L 483.643796 -124.952377 
L 482.557664 -124.952377 
L 481.471533 -124.952377 
L 480.385401 -124.952377 
L 479.29927 -124.952377 
L 478.213139 -124.952377 
L 477.127007 -124.952377 
L 476.040876 -124.952377 
L 474.954745 -124.952377 
L 473.868613 -124.952377 
L 472.782482 -124.952377 
L 471.69635 -124.952377 
L 470.610219 -124.952377 
L 469.524088 -124.952377 
L 468.437956 -124.952377 
L 467.351825 -124.952377 
L 466.265693 -124.952377 
L 465.179562 -124.952377 
L 464.093431 -124.952377 
L 463.007299 -124.952377 
L 461.921168 -124.952377 
L 460.835036 -124.952377 
L 459.748905 -124.952377 
L 458.662774 -124.952377 
L 457.576642 -124.952377 
L 456.490511 -124.952377 
L 455.40438 -124.952377 
L 454.318248 -124.952377 
L 453.232117 -124.952377 
L 452.145985 -124.952377 
L 451.059854 -124.952377 
L 449.973723 -124.952377 
L 448.887591 -124.952377 
L 447.80146 -124.952377 
L 446.715328 -124.952377 
L 445.629197 -124.952377 
L 444.543066 -124.952377 
L 443.456934 -124.952377 
L 442.370803 -124.952377 
L 441.284672 -124.952377 
L 440.19854 -124.952377 
L 439.112409 -124.952377 
L 438.026277 -124.952377 
L 436.940146 -124.952377 
L 435.854015 -124.952377 
L 434.767883 -124.952377 
L 433.681752 -124.952377 
L 432.59562 -124.952377 
L 431.509489 -124.952377 
L 430.423358 -124.952377 
L 429.337226 -124.952377 
L 428.251095 -124.952377 
L 427.164964 -124.952377 
L 426.078832 -124.952377 
L 424.992701 -124.952377 
L 423.906569 -124.952377 
L 422.820438 -124.952377 
L 421.734307 -124.952377 
L 420.648175 -124.952377 
L 419.562044 -124.952377 
L 418.475912 -124.952377 
L 417.389781 -124.952377 
L 416.30365 -124.952377 
L 415.217518 -124.952377 
L 414.131387 -124.952377 
L 413.045255 -124.952377 
L 411.959124 -124.952377 
L 410.872993 -124.952377 
L 409.786861 -124.952377 
L 408.70073 -124.952377 
L 407.614599 -124.952377 
L 406.528467 -124.952377 
L 405.442336 -124.952377 
L 404.356204 -124.952377 
L 403.270073 -124.952377 
L 402.183942 -124.952377 
L 401.09781 -124.952377 
L 400.011679 -124.952377 
L 398.925547 -124.952377 
L 397.839416 -124.952377 
L 396.753285 -124.952377 
L 395.667153 -124.952377 
L 394.581022 -124.952377 
L 393.494891 -124.952377 
L 392.408759 -124.952377 
L 391.322628 -124.952377 
L 390.236496 -124.952377 
L 389.150365 -124.952377 
L 388.064234 -124.952377 
L 386.978102 -124.952377 
L 385.891971 -124.952377 
L 384.805839 -124.952377 
L 383.719708 -124.952377 
L 382.633577 -124.952377 
L 381.547445 -124.952377 
L 380.461314 -124.952377 
L 379.375182 -124.952377 
L 378.289051 -124.952377 
L 377.20292 -124.952377 
L 376.116788 -124.952377 
L 375.030657 -124.952377 
L 373.944526 -124.952377 
L 372.858394 -124.952377 
L 371.772263 -124.952377 
L 370.686131 -124.952377 
L 369.6 -124.952377 
L 368.513869 -124.952377 
L 367.427737 -124.952377 
L 366.341606 -124.952377 
L 365.255474 -124.952377 
L 364.169343 -124.952377 
L 363.083212 -124.952377 
L 361.99708 -124.952377 
L 360.910949 -124.952377 
L 359.824818 -124.952377 
L 358.738686 -124.952377 
L 357.652555 -124.952377 
L 356.566423 -124.952377 
L 355.480292 -124.952377 
L 354.394161 -124.952377 
L 353.308029 -124.952377 
L 352.221898 -124.952377 
L 351.135766 -124.952377 
L 350.049635 -124.952377 
L 348.963504 -124.952377 
L 347.877372 -124.952377 
L 346.791241 -124.952377 
L 345.705109 -124.952377 
L 344.618978 -124.952377 
L 343.532847 -124.952377 
L 342.446715 -124.952377 
L 341.360584 -124.952377 
L 340.274453 -124.952377 
L 339.188321 -124.952377 
L 338.10219 -124.952377 
L 337.016058 -124.952377 
L 335.929927 -124.952377 
L 334.843796 -124.952377 
L 333.757664 -124.952377 
L 332.671533 -124.952377 
L 331.585401 -124.952377 
L 330.49927 -124.952377 
L 329.413139 -124.952377 
L 328.327007 -124.952377 
L 327.240876 -124.952377 
L 326.154745 -124.952377 
L 325.068613 -124.952377 
L 323.982482 -124.952377 
L 322.89635 -124.952377 
L 321.810219 -124.952377 
L 320.724088 -124.952377 
L 319.637956 -124.952377 
L 318.551825 -124.952377 
L 317.465693 -124.952377 
L 316.379562 -124.952377 
L 315.293431 -124.952377 
L 314.207299 -124.952377 
L 313.121168 -124.952377 
L 312.035036 -124.952377 
L 310.948905 -124.952377 
L 309.862774 -124.952377 
L 308.776642 -124.952377 
L 307.690511 -124.952377 
L 306.60438 -124.952377 
L 305.518248 -124.952377 
L 304.432117 -124.952377 
L 303.345985 -124.952377 
L 302.259854 -124.952377 
L 301.173723 -124.952377 
L 300.087591 -124.952377 
L 299.00146 -124.952377 
L 297.915328 -124.952377 
L 296.829197 -124.952377 
L 295.743066 -124.952377 
L 294.656934 -124.952377 
L 293.570803 -124.952377 
L 292.484672 -124.952377 
L 291.39854 -124.952377 
L 290.312409 -124.952377 
L 289.226277 -124.952377 
L 288.140146 -124.952377 
L 287.054015 -124.952377 
L 285.967883 -124.952377 
L 284.881752 -124.952377 
L 283.79562 -124.952377 
L 282.709489 -124.952377 
L 281.623358 -124.952377 
L 280.537226 -124.952377 
L 279.451095 -124.952377 
L 278.364964 -124.952377 
L 277.278832 -124.952377 
L 276.192701 -124.952377 
L 275.106569 -124.952377 
L 274.020438 -124.952377 
L 272.934307 -124.952377 
L 271.848175 -124.952377 
L 270.762044 -124.952377 
L 269.675912 -124.952377 
L 268.589781 -124.952377 
L 267.50365 -124.952377 
L 266.417518 -124.952377 
L 265.331387 -124.952377 
L 264.245255 -124.952377 
L 263.159124 -124.952377 
L 262.072993 -124.952377 
L 260.986861 -124.952377 
L 259.90073 -124.952377 
L 258.814599 -124.952377 
L 257.728467 -124.952377 
L 256.642336 -124.952377 
L 255.556204 -124.952377 
L 254.470073 -124.952377 
L 253.383942 -124.952377 
L 252.29781 -124.952377 
L 251.211679 -124.952377 
L 250.125547 -124.952377 
L 249.039416 -124.952377 
L 247.953285 -124.952377 
L 246.867153 -124.952377 
L 245.781022 -124.952377 
L 244.694891 -124.952377 
L 243.608759 -124.952377 
L 242.522628 -124.952377 
L 241.436496 -124.952377 
L 240.350365 -124.952377 
L 239.264234 -124.952377 
L 238.178102 -124.952377 
L 237.091971 -124.952377 
L 236.005839 -124.952377 
L 234.919708 -124.952377 
L 233.833577 -124.952377 
L 232.747445 -124.952377 
L 231.661314 -124.952377 
L 230.575182 -124.952377 
L 229.489051 -124.952377 
L 228.40292 -124.952377 
L 227.316788 -124.952377 
L 226.230657 -124.952377 
L 225.144526 -124.952377 
L 224.058394 -124.952377 
L 222.972263 -124.952377 
L 221.886131 -124.952377 
L 220.8 -124.952377 
L 219.713869 -124.952377 
L 218.627737 -124.952377 
L 217.541606 -124.952377 
L 216.455474 -124.952377 
L 215.369343 -124.952377 
L 214.283212 -124.952377 
L 213.19708 -124.952377 
L 212.110949 -124.952377 
L 211.024818 -124.952377 
L 209.938686 -124.952377 
L 208.852555 -124.952377 
L 207.766423 -124.952377 
L 206.680292 -124.952377 
L 205.594161 -124.952377 
L 204.508029 -124.952377 
L 203.421898 -124.952377 
L 202.335766 -124.952377 
L 201.249635 -124.952377 
L 200.163504 -124.952377 
L 199.077372 -124.952377 
L 197.991241 -124.952377 
L 196.905109 -124.952377 
L 195.818978 -124.952377 
L 194.732847 -124.952377 
L 193.646715 -124.952377 
L 192.560584 -124.952377 
L 191.474453 -124.952377 
L 190.388321 -124.952377 
L 189.30219 -124.952377 
L 188.216058 -124.952377 
L 187.129927 -124.952377 
L 186.043796 -124.952377 
L 184.957664 -124.952377 
L 183.871533 -124.952377 
L 182.785401 -124.952377 
L 181.69927 -124.952377 
L 180.613139 -124.952377 
L 179.527007 -124.952377 
L 178.440876 -124.952377 
L 177.354745 -124.952377 
L 176.268613 -124.952377 
L 175.182482 -124.952377 
L 174.09635 -124.952377 
L 173.010219 -124.952377 
L 171.924088 -124.952377 
L 170.837956 -124.952377 
L 169.751825 -124.952377 
L 168.665693 -124.952377 
L 167.579562 -124.952377 
L 166.493431 -124.952377 
L 165.407299 -124.952377 
L 164.321168 -124.952377 
L 163.235036 -124.952377 
L 162.148905 -124.952377 
L 161.062774 -124.952377 
L 159.976642 -124.952377 
L 158.890511 -124.952377 
L 157.80438 -124.952377 
L 156.718248 -124.952377 
L 155.632117 -124.952377 
L 154.545985 -124.952377 
L 153.459854 -124.952377 
L 152.373723 -124.952377 
L 151.287591 -124.952377 
L 150.20146 -124.952377 
L 149.115328 -124.952377 
L 148.029197 -124.952377 
L 146.943066 -124.952377 
L 145.856934 -124.952377 
L 144.770803 -124.952377 
L 143.684672 -124.952377 
L 142.59854 -124.952377 
L 141.512409 -124.952377 
L 140.426277 -124.952377 
L 139.340146 -124.952377 
L 138.254015 -124.952377 
L 137.167883 -124.952377 
L 136.081752 -124.952377 
L 134.99562 -124.952377 
L 133.909489 -124.952377 
L 132.823358 -124.952377 
L 131.737226 -124.952377 
L 130.651095 -124.952377 
L 129.564964 -124.952377 
L 128.478832 -124.952377 
L 127.392701 -124.952377 
L 126.306569 -124.952377 
L 125.220438 -124.952377 
L 124.134307 -124.952377 
L 123.048175 -124.952377 
L 121.962044 -124.952377 
L 120.875912 -124.952377 
L 119.789781 -124.952377 
L 118.70365 -124.952377 
L 117.617518 -124.952377 
L 116.531387 -124.952377 
L 115.445255 -124.952377 
L 114.359124 -124.952377 
L 113.272993 -124.952377 
L 112.186861 -124.952377 
L 111.10073 -124.952377 
L 110.014599 -124.952377 
L 108.928467 -124.952377 
L 107.842336 -124.952377 
L 106.756204 -124.952377 
L 105.670073 -124.952377 
L 104.583942 -124.952377 
L 103.49781 -124.952377 
L 102.411679 -124.952377 
L 101.325547 -124.952377 
L 100.239416 -124.952377 
L 99.153285 -124.952377 
L 98.067153 -124.952377 
L 96.981022 -124.952377 
L 95.894891 -124.952377 
L 94.808759 -124.952377 
L 93.722628 -124.952377 
L 92.636496 -124.952377 
L 91.550365 -124.952377 
L 90.464234 -124.952377 
L 89.378102 -124.952377 
L 88.291971 -124.952377 
L 87.205839 -124.952377 
L 86.119708 -124.952377 
L 85.033577 -124.952377 
L 83.947445 -124.952377 
L 82.861314 -124.952377 
L 81.775182 -124.952377 
L 80.689051 -124.952377 
L 79.60292 -124.952377 
L 78.516788 -124.952377 
L 77.430657 -124.952377 
L 76.344526 -124.952377 
L 75.258394 -124.952377 
L 74.172263 -124.952377 
L 73.086131 -124.952377 
L 72 -124.952377 
z
" id="m6308ec2fd8"/>
    </defs>
    <g clip-path="url(#p090821e627)">
     <use style="fill-opacity:0.15;" x="0" xlink:href="#m6308ec2fd8" y="360"/>
    </g>
   </g>
   <g id="matplotlib.axis_1">
    <g id="xtick_1">
     <g id="line2d_1">
      <defs>
       <path d="M 0 0 
L 0 3.5 
" id="m690d88dd54" style="stroke:#000000;stroke-width:0.8;"/>
      </defs>
      <g>
       <use style="stroke:#000000;stroke-width:0.8;" x="72" xlink:href="#m690d88dd54" y="320.4"/>
      </g>
     </g>
     <g id="text_1">
      <!-- 0.0 -->
      <g transform="translate(60.867812 338.037813)scale(0.14 -0.14)">
       <defs>
        <path d="M 2034 4250 
Q 1547 4250 1301 3770 
Q 1056 3291 1056 2328 
Q 1056 1369 1301 889 
Q 1547 409 2034 409 
Q 2525 409 2770 889 
Q 3016 1369 3016 2328 
Q 3016 3291 2770 3770 
Q 2525 4250 2034 4250 
z
M 2034 4750 
Q 2819 4750 3233 4129 
Q 3647 3509 3647 2328 
Q 3647 1150 3233 529 
Q 2819 -91 2034 -91 
Q 1250 -91 836 529 
Q 422 1150 422 2328 
Q 422 3509 836 4129 
Q 1250 4750 2034 4750 
z
" id="DejaVuSans-30" transform="scale(0.015625)"/>
        <path d="M 684 794 
L 1344 794 
L 1344 0 
L 684 0 
L 684 794 
z
" id="DejaVuSans-2e" transform="scale(0.015625)"/>
       </defs>
       <use xlink:href="#DejaVuSans-30"/>
       <use x="63.623047" xlink:href="#DejaVuSans-2e"/>
       <use x="95.410156" xlink:href="#DejaVuSans-30"/>
      </g>
     </g>
    </g>
    <g id="xtick_2">
     <g id="line2d_2">
      <g>
       <use style="stroke:#000000;stroke-width:0.8;" x="127.900621" xlink:href="#m690d88dd54" y="320.4"/>
      </g>
     </g>
     <g id="text_2">
      <!-- 2.5 -->
      <g transform="translate(116.768434 338.037813)scale(0.14 -0.14)">
       <defs>
        <path d="M 1228 531 
L 3431 531 
L 3431 0 
L 469 0 
L 469 531 
Q 828 903 1448 1529 
Q 2069 2156 2228 2338 
Q 2531 2678 2651 2914 
Q 2772 3150 2772 3378 
Q 2772 3750 2511 3984 
Q 2250 4219 1831 4219 
Q 1534 4219 1204 4116 
Q 875 4013 500 3803 
L 500 4441 
Q 881 4594 1212 4672 
Q 1544 4750 1819 4750 
Q 2544 4750 2975 4387 
Q 3406 4025 3406 3419 
Q 3406 3131 3298 2873 
Q 3191 2616 2906 2266 
Q 2828 2175 2409 1742 
Q 1991 1309 1228 531 
z
" id="DejaVuSans-32" transform="scale(0.015625)"/>
        <path d="M 691 4666 
L 3169 4666 
L 3169 4134 
L 1269 4134 
L 1269 2991 
Q 1406 3038 1543 3061 
Q 1681 3084 1819 3084 
Q 2600 3084 3056 2656 
Q 3513 2228 3513 1497 
Q 3513 744 3044 326 
Q 2575 -91 1722 -91 
Q 1428 -91 1123 -41 
Q 819 9 494 109 
L 494 744 
Q 775 591 1075 516 
Q 1375 441 1709 441 
Q 2250 441 2565 725 
Q 2881 1009 2881 1497 
Q 2881 1984 2565 2268 
Q 2250 2553 1709 2553 
Q 1456 2553 1204 2497 
Q 953 2441 691 2322 
L 691 4666 
z
" id="DejaVuSans-35" transform="scale(0.015625)"/>
       </defs>
       <use xlink:href="#DejaVuSans-32"/>
       <use x="63.623047" xlink:href="#DejaVuSans-2e"/>
       <use x="95.410156" xlink:href="#DejaVuSans-35"/>
      </g>
     </g>
    </g>
    <g id="xtick_3">
     <g id="line2d_3">
      <g>
       <use style="stroke:#000000;stroke-width:0.8;" x="183.801242" xlink:href="#m690d88dd54" y="320.4"/>
      </g>
     </g>
     <g id="text_3">
      <!-- 5.0 -->
      <g transform="translate(172.669055 338.037813)scale(0.14 -0.14)">
       <use xlink:href="#DejaVuSans-35"/>
       <use x="63.623047" xlink:href="#DejaVuSans-2e"/>
       <use x="95.410156" xlink:href="#DejaVuSans-30"/>
      </g>
     </g>
    </g>
    <g id="xtick_4">
     <g id="line2d_4">
      <g>
       <use style="stroke:#000000;stroke-width:0.8;" x="239.701863" xlink:href="#m690d88dd54" y="320.4"/>
      </g>
     </g>
     <g id="text_4">
      <!-- 7.5 -->
      <g transform="translate(228.569676 338.037813)scale(0.14 -0.14)">
       <defs>
        <path d="M 525 4666 
L 3525 4666 
L 3525 4397 
L 1831 0 
L 1172 0 
L 2766 4134 
L 525 4134 
L 525 4666 
z
" id="DejaVuSans-37" transform="scale(0.015625)"/>
       </defs>
       <use xlink:href="#DejaVuSans-37"/>
       <use x="63.623047" xlink:href="#DejaVuSans-2e"/>
       <use x="95.410156" xlink:href="#DejaVuSans-35"/>
      </g>
     </g>
    </g>
    <g id="xtick_5">
     <g id="line2d_5">
      <g>
       <use style="stroke:#000000;stroke-width:0.8;" x="295.602484" xlink:href="#m690d88dd54" y="320.4"/>
      </g>
     </g>
     <g id="text_5">
      <!-- 10.0 -->
      <g transform="translate(280.016547 338.037813)scale(0.14 -0.14)">
       <defs>
        <path d="M 794 531 
L 1825 531 
L 1825 4091 
L 703 3866 
L 703 4441 
L 1819 4666 
L 2450 4666 
L 2450 531 
L 3481 531 
L 3481 0 
L 794 0 
L 794 531 
z
" id="DejaVuSans-31" transform="scale(0.015625)"/>
       </defs>
       <use xlink:href="#DejaVuSans-31"/>
       <use x="63.623047" xlink:href="#DejaVuSans-30"/>
       <use x="127.246094" xlink:href="#DejaVuSans-2e"/>
       <use x="159.033203" xlink:href="#DejaVuSans-30"/>
      </g>
     </g>
    </g>
    <g id="xtick_6">
     <g id="line2d_6">
      <g>
       <use style="stroke:#000000;stroke-width:0.8;" x="351.503106" xlink:href="#m690d88dd54" y="320.4"/>
      </g>
     </g>
     <g id="text_6">
      <!-- 12.5 -->
      <g transform="translate(335.917168 338.037813)scale(0.14 -0.14)">
       <use xlink:href="#DejaVuSans-31"/>
       <use x="63.623047" xlink:href="#DejaVuSans-32"/>
       <use x="127.246094" xlink:href="#DejaVuSans-2e"/>
       <use x="159.033203" xlink:href="#DejaVuSans-35"/>
      </g>
     </g>
    </g>
    <g id="xtick_7">
     <g id="line2d_7">
      <g>
       <use style="stroke:#000000;stroke-width:0.8;" x="407.403727" xlink:href="#m690d88dd54" y="320.4"/>
      </g>
     </g>
     <g id="text_7">
      <!-- 15.0 -->
      <g transform="translate(391.817789 338.037813)scale(0.14 -0.14)">
       <use xlink:href="#DejaVuSans-31"/>
       <use x="63.623047" xlink:href="#DejaVuSans-35"/>
       <use x="127.246094" xlink:href="#DejaVuSans-2e"/>
       <use x="159.033203" xlink:href="#DejaVuSans-30"/>
      </g>
     </g>
    </g>
    <g id="xtick_8">
     <g id="line2d_8">
      <g>
       <use style="stroke:#000000;stroke-width:0.8;" x="463.304348" xlink:href="#m690d88dd54" y="320.4"/>
      </g>
     </g>
     <g id="text_8">
      <!-- 17.5 -->
      <g transform="translate(447.71841 338.037813)scale(0.14 -0.14)">
       <use xlink:href="#DejaVuSans-31"/>
       <use x="63.623047" xlink:href="#DejaVuSans-37"/>
       <use x="127.246094" xlink:href="#DejaVuSans-2e"/>
       <use x="159.033203" xlink:href="#DejaVuSans-35"/>
      </g>
     </g>
    </g>
    <g id="text_9">
     <!-- Time [Seconds] -->
     <g transform="translate(233.23 357.106875)scale(0.16 -0.16)">
      <defs>
       <path d="M -19 4666 
L 3928 4666 
L 3928 4134 
L 2272 4134 
L 2272 0 
L 1638 0 
L 1638 4134 
L -19 4134 
L -19 4666 
z
" id="DejaVuSans-54" transform="scale(0.015625)"/>
       <path d="M 603 3500 
L 1178 3500 
L 1178 0 
L 603 0 
L 603 3500 
z
M 603 4863 
L 1178 4863 
L 1178 4134 
L 603 4134 
L 603 4863 
z
" id="DejaVuSans-69" transform="scale(0.015625)"/>
       <path d="M 3328 2828 
Q 3544 3216 3844 3400 
Q 4144 3584 4550 3584 
Q 5097 3584 5394 3201 
Q 5691 2819 5691 2113 
L 5691 0 
L 5113 0 
L 5113 2094 
Q 5113 2597 4934 2840 
Q 4756 3084 4391 3084 
Q 3944 3084 3684 2787 
Q 3425 2491 3425 1978 
L 3425 0 
L 2847 0 
L 2847 2094 
Q 2847 2600 2669 2842 
Q 2491 3084 2119 3084 
Q 1678 3084 1418 2786 
Q 1159 2488 1159 1978 
L 1159 0 
L 581 0 
L 581 3500 
L 1159 3500 
L 1159 2956 
Q 1356 3278 1631 3431 
Q 1906 3584 2284 3584 
Q 2666 3584 2933 3390 
Q 3200 3197 3328 2828 
z
" id="DejaVuSans-6d" transform="scale(0.015625)"/>
       <path d="M 3597 1894 
L 3597 1613 
L 953 1613 
Q 991 1019 1311 708 
Q 1631 397 2203 397 
Q 2534 397 2845 478 
Q 3156 559 3463 722 
L 3463 178 
Q 3153 47 2828 -22 
Q 2503 -91 2169 -91 
Q 1331 -91 842 396 
Q 353 884 353 1716 
Q 353 2575 817 3079 
Q 1281 3584 2069 3584 
Q 2775 3584 3186 3129 
Q 3597 2675 3597 1894 
z
M 3022 2063 
Q 3016 2534 2758 2815 
Q 2500 3097 2075 3097 
Q 1594 3097 1305 2825 
Q 1016 2553 972 2059 
L 3022 2063 
z
" id="DejaVuSans-65" transform="scale(0.015625)"/>
       <path id="DejaVuSans-20" transform="scale(0.015625)"/>
       <path d="M 550 4863 
L 1875 4863 
L 1875 4416 
L 1125 4416 
L 1125 -397 
L 1875 -397 
L 1875 -844 
L 550 -844 
L 550 4863 
z
" id="DejaVuSans-5b" transform="scale(0.015625)"/>
       <path d="M 3425 4513 
L 3425 3897 
Q 3066 4069 2747 4153 
Q 2428 4238 2131 4238 
Q 1616 4238 1336 4038 
Q 1056 3838 1056 3469 
Q 1056 3159 1242 3001 
Q 1428 2844 1947 2747 
L 2328 2669 
Q 3034 2534 3370 2195 
Q 3706 1856 3706 1288 
Q 3706 609 3251 259 
Q 2797 -91 1919 -91 
Q 1588 -91 1214 -16 
Q 841 59 441 206 
L 441 856 
Q 825 641 1194 531 
Q 1563 422 1919 422 
Q 2459 422 2753 634 
Q 3047 847 3047 1241 
Q 3047 1584 2836 1778 
Q 2625 1972 2144 2069 
L 1759 2144 
Q 1053 2284 737 2584 
Q 422 2884 422 3419 
Q 422 4038 858 4394 
Q 1294 4750 2059 4750 
Q 2388 4750 2728 4690 
Q 3069 4631 3425 4513 
z
" id="DejaVuSans-53" transform="scale(0.015625)"/>
       <path d="M 3122 3366 
L 3122 2828 
Q 2878 2963 2633 3030 
Q 2388 3097 2138 3097 
Q 1578 3097 1268 2742 
Q 959 2388 959 1747 
Q 959 1106 1268 751 
Q 1578 397 2138 397 
Q 2388 397 2633 464 
Q 2878 531 3122 666 
L 3122 134 
Q 2881 22 2623 -34 
Q 2366 -91 2075 -91 
Q 1284 -91 818 406 
Q 353 903 353 1747 
Q 353 2603 823 3093 
Q 1294 3584 2113 3584 
Q 2378 3584 2631 3529 
Q 2884 3475 3122 3366 
z
" id="DejaVuSans-63" transform="scale(0.015625)"/>
       <path d="M 1959 3097 
Q 1497 3097 1228 2736 
Q 959 2375 959 1747 
Q 959 1119 1226 758 
Q 1494 397 1959 397 
Q 2419 397 2687 759 
Q 2956 1122 2956 1747 
Q 2956 2369 2687 2733 
Q 2419 3097 1959 3097 
z
M 1959 3584 
Q 2709 3584 3137 3096 
Q 3566 2609 3566 1747 
Q 3566 888 3137 398 
Q 2709 -91 1959 -91 
Q 1206 -91 779 398 
Q 353 888 353 1747 
Q 353 2609 779 3096 
Q 1206 3584 1959 3584 
z
" id="DejaVuSans-6f" transform="scale(0.015625)"/>
       <path d="M 3513 2113 
L 3513 0 
L 2938 0 
L 2938 2094 
Q 2938 2591 2744 2837 
Q 2550 3084 2163 3084 
Q 1697 3084 1428 2787 
Q 1159 2491 1159 1978 
L 1159 0 
L 581 0 
L 581 3500 
L 1159 3500 
L 1159 2956 
Q 1366 3272 1645 3428 
Q 1925 3584 2291 3584 
Q 2894 3584 3203 3211 
Q 3513 2838 3513 2113 
z
" id="DejaVuSans-6e" transform="scale(0.015625)"/>
       <path d="M 2906 2969 
L 2906 4863 
L 3481 4863 
L 3481 0 
L 2906 0 
L 2906 525 
Q 2725 213 2448 61 
Q 2172 -91 1784 -91 
Q 1150 -91 751 415 
Q 353 922 353 1747 
Q 353 2572 751 3078 
Q 1150 3584 1784 3584 
Q 2172 3584 2448 3432 
Q 2725 3281 2906 2969 
z
M 947 1747 
Q 947 1113 1208 752 
Q 1469 391 1925 391 
Q 2381 391 2643 752 
Q 2906 1113 2906 1747 
Q 2906 2381 2643 2742 
Q 2381 3103 1925 3103 
Q 1469 3103 1208 2742 
Q 947 2381 947 1747 
z
" id="DejaVuSans-64" transform="scale(0.015625)"/>
       <path d="M 2834 3397 
L 2834 2853 
Q 2591 2978 2328 3040 
Q 2066 3103 1784 3103 
Q 1356 3103 1142 2972 
Q 928 2841 928 2578 
Q 928 2378 1081 2264 
Q 1234 2150 1697 2047 
L 1894 2003 
Q 2506 1872 2764 1633 
Q 3022 1394 3022 966 
Q 3022 478 2636 193 
Q 2250 -91 1575 -91 
Q 1294 -91 989 -36 
Q 684 19 347 128 
L 347 722 
Q 666 556 975 473 
Q 1284 391 1588 391 
Q 1994 391 2212 530 
Q 2431 669 2431 922 
Q 2431 1156 2273 1281 
Q 2116 1406 1581 1522 
L 1381 1569 
Q 847 1681 609 1914 
Q 372 2147 372 2553 
Q 372 3047 722 3315 
Q 1072 3584 1716 3584 
Q 2034 3584 2315 3537 
Q 2597 3491 2834 3397 
z
" id="DejaVuSans-73" transform="scale(0.015625)"/>
       <path d="M 1947 4863 
L 1947 -844 
L 622 -844 
L 622 -397 
L 1369 -397 
L 1369 4416 
L 622 4416 
L 622 4863 
L 1947 4863 
z
" id="DejaVuSans-5d" transform="scale(0.015625)"/>
      </defs>
      <use xlink:href="#DejaVuSans-54"/>
      <use x="57.958984" xlink:href="#DejaVuSans-69"/>
      <use x="85.742188" xlink:href="#DejaVuSans-6d"/>
      <use x="183.154297" xlink:href="#DejaVuSans-65"/>
      <use x="244.677734" xlink:href="#DejaVuSans-20"/>
      <use x="276.464844" xlink:href="#DejaVuSans-5b"/>
      <use x="315.478516" xlink:href="#DejaVuSans-53"/>
      <use x="378.955078" xlink:href="#DejaVuSans-65"/>
      <use x="440.478516" xlink:href="#DejaVuSans-63"/>
      <use x="495.458984" xlink:href="#DejaVuSans-6f"/>
      <use x="556.640625" xlink:href="#DejaVuSans-6e"/>
      <use x="620.019531" xlink:href="#DejaVuSans-64"/>
      <use x="683.496094" xlink:href="#DejaVuSans-73"/>
      <use x="735.595703" xlink:href="#DejaVuSans-5d"/>
     </g>
    </g>
   </g>
   <g id="matplotlib.axis_2">
    <g id="ytick_1">
     <g id="line2d_9">
      <defs>
       <path d="M 0 0 
L -3.5 0 
" id="mafac90bed9" style="stroke:#000000;stroke-width:0.8;"/>
      </defs>
      <g>
       <use style="stroke:#000000;stroke-width:0.8;" x="72" xlink:href="#mafac90bed9" y="306.000369"/>
      </g>
     </g>
     <g id="text_10">
      <!-- 0.0 -->
      <g transform="translate(42.735625 311.319275)scale(0.14 -0.14)">
       <use xlink:href="#DejaVuSans-30"/>
       <use x="63.623047" xlink:href="#DejaVuSans-2e"/>
       <use x="95.410156" xlink:href="#DejaVuSans-30"/>
      </g>
     </g>
    </g>
    <g id="ytick_2">
     <g id="line2d_10">
      <g>
       <use style="stroke:#000000;stroke-width:0.8;" x="72" xlink:href="#mafac90bed9" y="271.16979"/>
      </g>
     </g>
     <g id="text_11">
      <!-- 0.2 -->
      <g transform="translate(42.735625 276.488696)scale(0.14 -0.14)">
       <use xlink:href="#DejaVuSans-30"/>
       <use x="63.623047" xlink:href="#DejaVuSans-2e"/>
       <use x="95.410156" xlink:href="#DejaVuSans-32"/>
      </g>
     </g>
    </g>
    <g id="ytick_3">
     <g id="line2d_11">
      <g>
       <use style="stroke:#000000;stroke-width:0.8;" x="72" xlink:href="#mafac90bed9" y="236.339211"/>
      </g>
     </g>
     <g id="text_12">
      <!-- 0.4 -->
      <g transform="translate(42.735625 241.658117)scale(0.14 -0.14)">
       <defs>
        <path d="M 2419 4116 
L 825 1625 
L 2419 1625 
L 2419 4116 
z
M 2253 4666 
L 3047 4666 
L 3047 1625 
L 3713 1625 
L 3713 1100 
L 3047 1100 
L 3047 0 
L 2419 0 
L 2419 1100 
L 313 1100 
L 313 1709 
L 2253 4666 
z
" id="DejaVuSans-34" transform="scale(0.015625)"/>
       </defs>
       <use xlink:href="#DejaVuSans-30"/>
       <use x="63.623047" xlink:href="#DejaVuSans-2e"/>
       <use x="95.410156" xlink:href="#DejaVuSans-34"/>
      </g>
     </g>
    </g>
    <g id="ytick_4">
     <g id="line2d_12">
      <g>
       <use style="stroke:#000000;stroke-width:0.8;" x="72" xlink:href="#mafac90bed9" y="201.508632"/>
      </g>
     </g>
     <g id="text_13">
      <!-- 0.6 -->
      <g transform="translate(42.735625 206.827538)scale(0.14 -0.14)">
       <defs>
        <path d="M 2113 2584 
Q 1688 2584 1439 2293 
Q 1191 2003 1191 1497 
Q 1191 994 1439 701 
Q 1688 409 2113 409 
Q 2538 409 2786 701 
Q 3034 994 3034 1497 
Q 3034 2003 2786 2293 
Q 2538 2584 2113 2584 
z
M 3366 4563 
L 3366 3988 
Q 3128 4100 2886 4159 
Q 2644 4219 2406 4219 
Q 1781 4219 1451 3797 
Q 1122 3375 1075 2522 
Q 1259 2794 1537 2939 
Q 1816 3084 2150 3084 
Q 2853 3084 3261 2657 
Q 3669 2231 3669 1497 
Q 3669 778 3244 343 
Q 2819 -91 2113 -91 
Q 1303 -91 875 529 
Q 447 1150 447 2328 
Q 447 3434 972 4092 
Q 1497 4750 2381 4750 
Q 2619 4750 2861 4703 
Q 3103 4656 3366 4563 
z
" id="DejaVuSans-36" transform="scale(0.015625)"/>
       </defs>
       <use xlink:href="#DejaVuSans-30"/>
       <use x="63.623047" xlink:href="#DejaVuSans-2e"/>
       <use x="95.410156" xlink:href="#DejaVuSans-36"/>
      </g>
     </g>
    </g>
    <g id="ytick_5">
     <g id="line2d_13">
      <g>
       <use style="stroke:#000000;stroke-width:0.8;" x="72" xlink:href="#mafac90bed9" y="166.678052"/>
      </g>
     </g>
     <g id="text_14">
      <!-- 0.8 -->
      <g transform="translate(42.735625 171.996959)scale(0.14 -0.14)">
       <defs>
        <path d="M 2034 2216 
Q 1584 2216 1326 1975 
Q 1069 1734 1069 1313 
Q 1069 891 1326 650 
Q 1584 409 2034 409 
Q 2484 409 2743 651 
Q 3003 894 3003 1313 
Q 3003 1734 2745 1975 
Q 2488 2216 2034 2216 
z
M 1403 2484 
Q 997 2584 770 2862 
Q 544 3141 544 3541 
Q 544 4100 942 4425 
Q 1341 4750 2034 4750 
Q 2731 4750 3128 4425 
Q 3525 4100 3525 3541 
Q 3525 3141 3298 2862 
Q 3072 2584 2669 2484 
Q 3125 2378 3379 2068 
Q 3634 1759 3634 1313 
Q 3634 634 3220 271 
Q 2806 -91 2034 -91 
Q 1263 -91 848 271 
Q 434 634 434 1313 
Q 434 1759 690 2068 
Q 947 2378 1403 2484 
z
M 1172 3481 
Q 1172 3119 1398 2916 
Q 1625 2713 2034 2713 
Q 2441 2713 2670 2916 
Q 2900 3119 2900 3481 
Q 2900 3844 2670 4047 
Q 2441 4250 2034 4250 
Q 1625 4250 1398 4047 
Q 1172 3844 1172 3481 
z
" id="DejaVuSans-38" transform="scale(0.015625)"/>
       </defs>
       <use xlink:href="#DejaVuSans-30"/>
       <use x="63.623047" xlink:href="#DejaVuSans-2e"/>
       <use x="95.410156" xlink:href="#DejaVuSans-38"/>
      </g>
     </g>
    </g>
    <g id="ytick_6">
     <g id="line2d_14">
      <g>
       <use style="stroke:#000000;stroke-width:0.8;" x="72" xlink:href="#mafac90bed9" y="131.847473"/>
      </g>
     </g>
     <g id="text_15">
      <!-- 1.0 -->
      <g transform="translate(42.735625 137.16638)scale(0.14 -0.14)">
       <use xlink:href="#DejaVuSans-31"/>
       <use x="63.623047" xlink:href="#DejaVuSans-2e"/>
       <use x="95.410156" xlink:href="#DejaVuSans-30"/>
      </g>
     </g>
    </g>
    <g id="ytick_7">
     <g id="line2d_15">
      <g>
       <use style="stroke:#000000;stroke-width:0.8;" x="72" xlink:href="#mafac90bed9" y="97.016894"/>
      </g>
     </g>
     <g id="text_16">
      <!-- 1.2 -->
      <g transform="translate(42.735625 102.335801)scale(0.14 -0.14)">
       <use xlink:href="#DejaVuSans-31"/>
       <use x="63.623047" xlink:href="#DejaVuSans-2e"/>
       <use x="95.410156" xlink:href="#DejaVuSans-32"/>
      </g>
     </g>
    </g>
    <g id="ytick_8">
     <g id="line2d_16">
      <g>
       <use style="stroke:#000000;stroke-width:0.8;" x="72" xlink:href="#mafac90bed9" y="62.186315"/>
      </g>
     </g>
     <g id="text_17">
      <!-- 1.4 -->
      <g transform="translate(42.735625 67.505222)scale(0.14 -0.14)">
       <use xlink:href="#DejaVuSans-31"/>
       <use x="63.623047" xlink:href="#DejaVuSans-2e"/>
       <use x="95.410156" xlink:href="#DejaVuSans-34"/>
      </g>
     </g>
    </g>
    <g id="text_18">
     <!-- Speed [mm/s] -->
     <g transform="translate(35.408125 238.11375)rotate(-90)scale(0.16 -0.16)">
      <defs>
       <path d="M 1159 525 
L 1159 -1331 
L 581 -1331 
L 581 3500 
L 1159 3500 
L 1159 2969 
Q 1341 3281 1617 3432 
Q 1894 3584 2278 3584 
Q 2916 3584 3314 3078 
Q 3713 2572 3713 1747 
Q 3713 922 3314 415 
Q 2916 -91 2278 -91 
Q 1894 -91 1617 61 
Q 1341 213 1159 525 
z
M 3116 1747 
Q 3116 2381 2855 2742 
Q 2594 3103 2138 3103 
Q 1681 3103 1420 2742 
Q 1159 2381 1159 1747 
Q 1159 1113 1420 752 
Q 1681 391 2138 391 
Q 2594 391 2855 752 
Q 3116 1113 3116 1747 
z
" id="DejaVuSans-70" transform="scale(0.015625)"/>
       <path d="M 1625 4666 
L 2156 4666 
L 531 -594 
L 0 -594 
L 1625 4666 
z
" id="DejaVuSans-2f" transform="scale(0.015625)"/>
      </defs>
      <use xlink:href="#DejaVuSans-53"/>
      <use x="63.476562" xlink:href="#DejaVuSans-70"/>
      <use x="126.953125" xlink:href="#DejaVuSans-65"/>
      <use x="188.476562" xlink:href="#DejaVuSans-65"/>
      <use x="250" xlink:href="#DejaVuSans-64"/>
      <use x="313.476562" xlink:href="#DejaVuSans-20"/>
      <use x="345.263672" xlink:href="#DejaVuSans-5b"/>
      <use x="384.277344" xlink:href="#DejaVuSans-6d"/>
      <use x="481.689453" xlink:href="#DejaVuSans-6d"/>
      <use x="579.101562" xlink:href="#DejaVuSans-2f"/>
      <use x="612.792969" xlink:href="#DejaVuSans-73"/>
      <use x="664.892578" xlink:href="#DejaVuSans-5d"/>
     </g>
    </g>
   </g>
   <g id="line2d_17">
    <path clip-path="url(#p090821e627)" d="M 72 230.684521 
L 518.4 230.684521 
" style="fill:none;stroke:#000000;stroke-dasharray:5.55,2.4;stroke-dashoffset:0;stroke-width:1.5;"/>
   </g>
   <g id="line2d_18">
    <path clip-path="url(#p090821e627)" d="M 72 301.472997 
L 134.99562 301.485574 
L 136.081752 301.356347 
L 137.167883 302.008838 
L 138.254015 299.44022 
L 139.340146 298.564596 
L 140.426277 300.323767 
L 142.59854 307.8 
L 144.770803 304.846354 
L 145.856934 301.90027 
L 146.943066 299.852503 
L 148.029197 292.172314 
L 149.115328 266.901373 
L 151.287591 195.74546 
L 153.459854 111.525308 
L 154.545985 81.746159 
L 155.632117 62.563444 
L 156.718248 55.8 
L 157.80438 62.972603 
L 158.890511 79.864536 
L 159.976642 101.046471 
L 162.148905 154.71947 
L 163.235036 180.207615 
L 164.321168 198.798083 
L 165.407299 202.479548 
L 166.493431 199.548902 
L 167.579562 197.589071 
L 169.751825 205.632534 
L 170.837956 208.083668 
L 171.924088 206.642021 
L 173.010219 210.388704 
L 174.09635 211.898016 
L 175.182482 210.830149 
L 176.268613 213.209408 
L 177.354745 211.842497 
L 178.440876 211.399609 
L 179.527007 213.189301 
L 180.613139 216.494268 
L 181.69927 220.449799 
L 182.785401 223.94614 
L 183.871533 223.779155 
L 184.957664 225.284884 
L 186.043796 226.015435 
L 187.129927 223.850784 
L 188.216058 220.814958 
L 189.30219 219.742912 
L 190.388321 217.027138 
L 191.474453 216.612083 
L 192.560584 223.939777 
L 193.646715 222.011513 
L 194.732847 223.051851 
L 196.905109 230.383607 
L 197.991241 234.557966 
L 199.077372 231.46526 
L 200.163504 230.078517 
L 201.249635 230.451734 
L 202.335766 230.974974 
L 203.421898 228.600414 
L 205.594161 228.177545 
L 206.680292 227.026928 
L 207.766423 227.975915 
L 208.852555 229.482754 
L 209.938686 230.674278 
L 211.024818 228.574099 
L 212.110949 225.774277 
L 213.19708 227.510954 
L 214.283212 230.870271 
L 215.369343 230.342603 
L 216.455474 229.503473 
L 217.541606 228.186421 
L 219.713869 232.117571 
L 220.8 229.224159 
L 221.886131 230.288734 
L 222.972263 232.821692 
L 224.058394 232.591678 
L 225.144526 230.526365 
L 226.230657 231.499992 
L 227.316788 231.590959 
L 228.40292 230.084961 
L 230.575182 231.33741 
L 231.661314 231.633208 
L 232.747445 230.16401 
L 233.833577 230.024388 
L 236.005839 231.476656 
L 237.091971 231.870047 
L 238.178102 231.689786 
L 239.264234 230.913865 
L 240.350365 231.224553 
L 241.436496 231.250007 
L 242.522628 229.741964 
L 244.694891 230.209231 
L 245.781022 229.851544 
L 246.867153 230.157096 
L 247.953285 231.242157 
L 249.039416 231.737779 
L 250.125547 231.892846 
L 251.211679 232.189279 
L 252.29781 232.225501 
L 253.383942 232.692164 
L 254.470073 232.545494 
L 255.556204 232.072513 
L 256.642336 231.244191 
L 257.728467 230.783514 
L 258.814599 231.013994 
L 260.986861 230.847645 
L 263.159124 231.295837 
L 264.245255 231.324313 
L 265.331387 231.742861 
L 266.417518 231.843844 
L 267.50365 231.490781 
L 269.675912 232.006125 
L 270.762044 231.862635 
L 272.934307 232.415691 
L 274.020438 232.071043 
L 277.278832 231.664931 
L 278.364964 231.550535 
L 279.451095 231.63361 
L 280.537226 232.044897 
L 282.709489 231.756907 
L 284.881752 231.920559 
L 285.967883 231.903056 
L 287.054015 232.222008 
L 288.140146 232.217677 
L 289.226277 232.098975 
L 290.312409 232.217425 
L 292.484672 231.697252 
L 293.570803 231.677794 
L 295.743066 232.226136 
L 297.915328 231.891102 
L 299.00146 231.859646 
L 300.087591 231.716372 
L 301.173723 231.840803 
L 302.259854 231.809719 
L 303.345985 231.56013 
L 304.432117 231.704866 
L 305.518248 231.976711 
L 306.60438 232.036295 
L 308.776642 231.808462 
L 309.862774 231.863918 
L 310.948905 232.239755 
L 312.035036 232.344518 
L 313.121168 232.150487 
L 315.293431 232.12935 
L 317.465693 232.136351 
L 319.637956 232.118142 
L 321.810219 231.887513 
L 322.89635 232.105289 
L 325.068613 232.090074 
L 326.154745 231.999899 
L 328.327007 232.479918 
L 330.49927 232.0643 
L 331.585401 232.184334 
L 332.671533 232.467981 
L 334.843796 231.972824 
L 335.929927 231.948776 
L 337.016058 232.125601 
L 338.10219 232.137843 
L 339.188321 231.967472 
L 341.360584 232.16602 
L 343.532847 231.820185 
L 345.705109 232.37793 
L 347.877372 231.98408 
L 350.049635 232.306293 
L 352.221898 232.059812 
L 354.394161 232.308834 
L 355.480292 232.27286 
L 357.652555 232.004831 
L 358.738686 232.192489 
L 359.824818 232.181619 
L 360.910949 232.058097 
L 361.99708 232.200523 
L 363.083212 232.17235 
L 364.169343 232.007854 
L 365.255474 231.995313 
L 366.341606 232.285373 
L 367.427737 232.404466 
L 368.513869 232.25182 
L 369.6 232.445186 
L 373.944526 232.117985 
L 377.20292 232.316776 
L 379.375182 232.09419 
L 383.719708 232.294767 
L 389.150365 232.080018 
L 391.322628 232.349911 
L 392.408759 232.150259 
L 393.494891 232.247115 
L 396.753285 232.118034 
L 400.011679 232.317325 
L 405.442336 232.27734 
L 406.528467 232.472452 
L 409.786861 232.012776 
L 411.959124 232.307366 
L 413.045255 232.153568 
L 423.906569 232.245884 
L 424.992701 232.074658 
L 426.078832 232.140561 
L 428.251095 232.589632 
L 430.423358 232.121504 
L 431.509489 232.081909 
L 433.681752 232.387458 
L 434.767883 232.097135 
L 438.026277 232.118651 
L 439.112409 232.271016 
L 440.19854 232.207026 
L 442.370803 232.406769 
L 443.456934 232.280304 
L 446.715328 232.251954 
L 447.80146 232.213723 
L 449.973723 232.413942 
L 451.059854 232.144865 
L 452.145985 232.043051 
L 454.318248 232.133661 
L 455.40438 232.264819 
L 456.490511 232.151936 
L 458.662774 232.373274 
L 459.748905 232.168726 
L 466.265693 232.317097 
L 469.524088 232.239742 
L 471.69635 232.422488 
L 472.782482 232.318555 
L 473.868613 232.410803 
L 476.040876 231.947744 
L 478.213139 231.995841 
L 479.29927 232.161272 
L 483.643796 232.095985 
L 485.816058 232.230913 
L 487.988321 232.363059 
L 490.160584 232.222838 
L 491.246715 232.294892 
L 493.418978 231.954214 
L 495.591241 232.228595 
L 496.677372 232.012569 
L 498.849635 231.979874 
L 499.935766 231.977422 
L 501.021898 232.117406 
L 502.108029 232.03196 
L 504.280292 232.15694 
L 511.883212 232.12963 
L 516.227737 231.840867 
L 518.4 231.585005 
L 518.4 231.585005 
" style="fill:none;stroke:#ff0000;stroke-linecap:square;stroke-width:2;"/>
   </g>
   <g id="patch_3">
    <path d="M 72 320.4 
L 72 43.2 
" style="fill:none;stroke:#000000;stroke-linecap:square;stroke-linejoin:miter;stroke-width:0.8;"/>
   </g>
   <g id="patch_4">
    <path d="M 518.4 320.4 
L 518.4 43.2 
" style="fill:none;stroke:#000000;stroke-linecap:square;stroke-linejoin:miter;stroke-width:0.8;"/>
   </g>
   <g id="patch_5">
    <path d="M 72 320.4 
L 518.4 320.4 
" style="fill:none;stroke:#000000;stroke-linecap:square;stroke-linejoin:miter;stroke-width:0.8;"/>
   </g>
   <g id="patch_6">
    <path d="M 72 43.2 
L 518.4 43.2 
" style="fill:none;stroke:#000000;stroke-linecap:square;stroke-linejoin:miter;stroke-width:0.8;"/>
   </g>
   <g id="text_19">
    <!-- Front Propogation Speed -->
    <g transform="translate(172.245312 37.2)scale(0.2 -0.2)">
     <defs>
      <path d="M 628 4666 
L 3309 4666 
L 3309 4134 
L 1259 4134 
L 1259 2759 
L 3109 2759 
L 3109 2228 
L 1259 2228 
L 1259 0 
L 628 0 
L 628 4666 
z
" id="DejaVuSans-46" transform="scale(0.015625)"/>
      <path d="M 2631 2963 
Q 2534 3019 2420 3045 
Q 2306 3072 2169 3072 
Q 1681 3072 1420 2755 
Q 1159 2438 1159 1844 
L 1159 0 
L 581 0 
L 581 3500 
L 1159 3500 
L 1159 2956 
Q 1341 3275 1631 3429 
Q 1922 3584 2338 3584 
Q 2397 3584 2469 3576 
Q 2541 3569 2628 3553 
L 2631 2963 
z
" id="DejaVuSans-72" transform="scale(0.015625)"/>
      <path d="M 1172 4494 
L 1172 3500 
L 2356 3500 
L 2356 3053 
L 1172 3053 
L 1172 1153 
Q 1172 725 1289 603 
Q 1406 481 1766 481 
L 2356 481 
L 2356 0 
L 1766 0 
Q 1100 0 847 248 
Q 594 497 594 1153 
L 594 3053 
L 172 3053 
L 172 3500 
L 594 3500 
L 594 4494 
L 1172 4494 
z
" id="DejaVuSans-74" transform="scale(0.015625)"/>
      <path d="M 1259 4147 
L 1259 2394 
L 2053 2394 
Q 2494 2394 2734 2622 
Q 2975 2850 2975 3272 
Q 2975 3691 2734 3919 
Q 2494 4147 2053 4147 
L 1259 4147 
z
M 628 4666 
L 2053 4666 
Q 2838 4666 3239 4311 
Q 3641 3956 3641 3272 
Q 3641 2581 3239 2228 
Q 2838 1875 2053 1875 
L 1259 1875 
L 1259 0 
L 628 0 
L 628 4666 
z
" id="DejaVuSans-50" transform="scale(0.015625)"/>
      <path d="M 2906 1791 
Q 2906 2416 2648 2759 
Q 2391 3103 1925 3103 
Q 1463 3103 1205 2759 
Q 947 2416 947 1791 
Q 947 1169 1205 825 
Q 1463 481 1925 481 
Q 2391 481 2648 825 
Q 2906 1169 2906 1791 
z
M 3481 434 
Q 3481 -459 3084 -895 
Q 2688 -1331 1869 -1331 
Q 1566 -1331 1297 -1286 
Q 1028 -1241 775 -1147 
L 775 -588 
Q 1028 -725 1275 -790 
Q 1522 -856 1778 -856 
Q 2344 -856 2625 -561 
Q 2906 -266 2906 331 
L 2906 616 
Q 2728 306 2450 153 
Q 2172 0 1784 0 
Q 1141 0 747 490 
Q 353 981 353 1791 
Q 353 2603 747 3093 
Q 1141 3584 1784 3584 
Q 2172 3584 2450 3431 
Q 2728 3278 2906 2969 
L 2906 3500 
L 3481 3500 
L 3481 434 
z
" id="DejaVuSans-67" transform="scale(0.015625)"/>
      <path d="M 2194 1759 
Q 1497 1759 1228 1600 
Q 959 1441 959 1056 
Q 959 750 1161 570 
Q 1363 391 1709 391 
Q 2188 391 2477 730 
Q 2766 1069 2766 1631 
L 2766 1759 
L 2194 1759 
z
M 3341 1997 
L 3341 0 
L 2766 0 
L 2766 531 
Q 2569 213 2275 61 
Q 1981 -91 1556 -91 
Q 1019 -91 701 211 
Q 384 513 384 1019 
Q 384 1609 779 1909 
Q 1175 2209 1959 2209 
L 2766 2209 
L 2766 2266 
Q 2766 2663 2505 2880 
Q 2244 3097 1772 3097 
Q 1472 3097 1187 3025 
Q 903 2953 641 2809 
L 641 3341 
Q 956 3463 1253 3523 
Q 1550 3584 1831 3584 
Q 2591 3584 2966 3190 
Q 3341 2797 3341 1997 
z
" id="DejaVuSans-61" transform="scale(0.015625)"/>
     </defs>
     <use xlink:href="#DejaVuSans-46"/>
     <use x="50.269531" xlink:href="#DejaVuSans-72"/>
     <use x="89.132812" xlink:href="#DejaVuSans-6f"/>
     <use x="150.314453" xlink:href="#DejaVuSans-6e"/>
     <use x="213.693359" xlink:href="#DejaVuSans-74"/>
     <use x="252.902344" xlink:href="#DejaVuSans-20"/>
     <use x="284.689453" xlink:href="#DejaVuSans-50"/>
     <use x="343.242188" xlink:href="#DejaVuSans-72"/>
     <use x="382.105469" xlink:href="#DejaVuSans-6f"/>
     <use x="443.287109" xlink:href="#DejaVuSans-70"/>
     <use x="506.763672" xlink:href="#DejaVuSans-6f"/>
     <use x="567.945312" xlink:href="#DejaVuSans-67"/>
     <use x="631.421875" xlink:href="#DejaVuSans-61"/>
     <use x="692.701172" xlink:href="#DejaVuSans-74"/>
     <use x="731.910156" xlink:href="#DejaVuSans-69"/>
     <use x="759.693359" xlink:href="#DejaVuSans-6f"/>
     <use x="820.875" xlink:href="#DejaVuSans-6e"/>
     <use x="884.253906" xlink:href="#DejaVuSans-20"/>
     <use x="916.041016" xlink:href="#DejaVuSans-53"/>
     <use x="979.517578" xlink:href="#DejaVuSans-70"/>
     <use x="1042.994141" xlink:href="#DejaVuSans-65"/>
     <use x="1104.517578" xlink:href="#DejaVuSans-65"/>
     <use x="1166.041016" xlink:href="#DejaVuSans-64"/>
    </g>
   </g>
   <g id="legend_1">
    <g id="patch_7">
     <path d="M 325.967812 111.175687 
L 508.6 111.175687 
Q 511.4 111.175687 511.4 108.375687 
L 511.4 53 
Q 511.4 50.2 508.6 50.2 
L 325.967812 50.2 
Q 323.167812 50.2 323.167812 53 
L 323.167812 108.375687 
Q 323.167812 111.175687 325.967812 111.175687 
z
" style="fill:#ffffff;opacity:0.8;stroke:#cccccc;stroke-linejoin:miter;"/>
    </g>
    <g id="line2d_19">
     <path d="M 328.767812 61.537812 
L 356.767812 61.537812 
" style="fill:none;stroke:#ff0000;stroke-linecap:square;stroke-width:2;"/>
    </g>
    <g id="line2d_20"/>
    <g id="text_20">
     <!-- Front speed -->
     <g transform="translate(367.967812 66.437812)scale(0.14 -0.14)">
      <use xlink:href="#DejaVuSans-46"/>
      <use x="50.269531" xlink:href="#DejaVuSans-72"/>
      <use x="89.132812" xlink:href="#DejaVuSans-6f"/>
      <use x="150.314453" xlink:href="#DejaVuSans-6e"/>
      <use x="213.693359" xlink:href="#DejaVuSans-74"/>
      <use x="252.902344" xlink:href="#DejaVuSans-20"/>
      <use x="284.689453" xlink:href="#DejaVuSans-73"/>
      <use x="336.789062" xlink:href="#DejaVuSans-70"/>
      <use x="400.265625" xlink:href="#DejaVuSans-65"/>
      <use x="461.789062" xlink:href="#DejaVuSans-65"/>
      <use x="523.3125" xlink:href="#DejaVuSans-64"/>
     </g>
    </g>
    <g id="line2d_21">
     <path d="M 328.767812 91.381437 
L 356.767812 91.381437 
" style="fill:none;stroke:#000000;stroke-dasharray:5.55,2.4;stroke-dashoffset:0;stroke-width:1.5;"/>
    </g>
    <g id="line2d_22"/>
    <g id="text_21">
     <!-- Steady state -->
     <g transform="translate(367.967812 86.987187)scale(0.14 -0.14)">
      <defs>
       <path d="M 2059 -325 
Q 1816 -950 1584 -1140 
Q 1353 -1331 966 -1331 
L 506 -1331 
L 506 -850 
L 844 -850 
Q 1081 -850 1212 -737 
Q 1344 -625 1503 -206 
L 1606 56 
L 191 3500 
L 800 3500 
L 1894 763 
L 2988 3500 
L 3597 3500 
L 2059 -325 
z
" id="DejaVuSans-79" transform="scale(0.015625)"/>
      </defs>
      <use xlink:href="#DejaVuSans-53"/>
      <use x="63.476562" xlink:href="#DejaVuSans-74"/>
      <use x="102.685547" xlink:href="#DejaVuSans-65"/>
      <use x="164.208984" xlink:href="#DejaVuSans-61"/>
      <use x="225.488281" xlink:href="#DejaVuSans-64"/>
      <use x="288.964844" xlink:href="#DejaVuSans-79"/>
      <use x="348.144531" xlink:href="#DejaVuSans-20"/>
      <use x="379.931641" xlink:href="#DejaVuSans-73"/>
      <use x="432.03125" xlink:href="#DejaVuSans-74"/>
      <use x="471.240234" xlink:href="#DejaVuSans-61"/>
      <use x="532.519531" xlink:href="#DejaVuSans-74"/>
      <use x="571.728516" xlink:href="#DejaVuSans-65"/>
     </g>
     <!-- speed = 0.43 mm/s -->
     <g transform="translate(367.967812 102.664125)scale(0.14 -0.14)">
      <defs>
       <path d="M 678 2906 
L 4684 2906 
L 4684 2381 
L 678 2381 
L 678 2906 
z
M 678 1631 
L 4684 1631 
L 4684 1100 
L 678 1100 
L 678 1631 
z
" id="DejaVuSans-3d" transform="scale(0.015625)"/>
       <path d="M 2597 2516 
Q 3050 2419 3304 2112 
Q 3559 1806 3559 1356 
Q 3559 666 3084 287 
Q 2609 -91 1734 -91 
Q 1441 -91 1130 -33 
Q 819 25 488 141 
L 488 750 
Q 750 597 1062 519 
Q 1375 441 1716 441 
Q 2309 441 2620 675 
Q 2931 909 2931 1356 
Q 2931 1769 2642 2001 
Q 2353 2234 1838 2234 
L 1294 2234 
L 1294 2753 
L 1863 2753 
Q 2328 2753 2575 2939 
Q 2822 3125 2822 3475 
Q 2822 3834 2567 4026 
Q 2313 4219 1838 4219 
Q 1578 4219 1281 4162 
Q 984 4106 628 3988 
L 628 4550 
Q 988 4650 1302 4700 
Q 1616 4750 1894 4750 
Q 2613 4750 3031 4423 
Q 3450 4097 3450 3541 
Q 3450 3153 3228 2886 
Q 3006 2619 2597 2516 
z
" id="DejaVuSans-33" transform="scale(0.015625)"/>
      </defs>
      <use xlink:href="#DejaVuSans-73"/>
      <use x="52.099609" xlink:href="#DejaVuSans-70"/>
      <use x="115.576172" xlink:href="#DejaVuSans-65"/>
      <use x="177.099609" xlink:href="#DejaVuSans-65"/>
      <use x="238.623047" xlink:href="#DejaVuSans-64"/>
      <use x="302.099609" xlink:href="#DejaVuSans-20"/>
      <use x="333.886719" xlink:href="#DejaVuSans-3d"/>
      <use x="417.675781" xlink:href="#DejaVuSans-20"/>
      <use x="449.462891" xlink:href="#DejaVuSans-30"/>
      <use x="513.085938" xlink:href="#DejaVuSans-2e"/>
      <use x="544.873047" xlink:href="#DejaVuSans-34"/>
      <use x="608.496094" xlink:href="#DejaVuSans-33"/>
      <use x="672.119141" xlink:href="#DejaVuSans-20"/>
      <use x="703.90625" xlink:href="#DejaVuSans-6d"/>
      <use x="801.318359" xlink:href="#DejaVuSans-6d"/>
      <use x="898.730469" xlink:href="#DejaVuSans-2f"/>
      <use x="932.421875" xlink:href="#DejaVuSans-73"/>
     </g>
    </g>
   </g>
  </g>
 </g>
 <defs>
  <clipPath id="p090821e627">
   <rect height="277.2" width="446.4" x="72" y="43.2"/>
  </clipPath>
 </defs>
</svg>
