<?xml version="1.0" encoding="utf-8" standalone="no"?>
<!DOCTYPE svg PUBLIC "-//W3C//DTD SVG 1.1//EN"
  "http://www.w3.org/Graphics/SVG/1.1/DTD/svg11.dtd">
<svg height="360pt" version="1.1" viewBox="0 0 576 360" width="576pt" xmlns="http://www.w3.org/2000/svg" xmlns:xlink="http://www.w3.org/1999/xlink">
 <metadata>
  <rdf:RDF xmlns:cc="http://creativecommons.org/ns#" xmlns:dc="http://purl.org/dc/elements/1.1/" xmlns:rdf="http://www.w3.org/1999/02/22-rdf-syntax-ns#">
   <cc:Work>
    <dc:type rdf:resource="http://purl.org/dc/dcmitype/StillImage"/>
    <dc:date>2022-06-30T14:21:51.414768</dc:date>
    <dc:format>image/svg+xml</dc:format>
    <dc:creator>
     <cc:Agent>
      <dc:title>Matplotlib v3.4.3, https://matplotlib.org/</dc:title>
     </cc:Agent>
    </dc:creator>
   </cc:Work>
  </rdf:RDF>
 </metadata>
 <defs>
  <style type="text/css">*{stroke-linecap:butt;stroke-linejoin:round;}</style>
 </defs>
 <g id="figure_1">
  <g id="patch_1">
   <path d="M 0 360 
L 576 360 
L 576 0 
L 0 0 
z
" style="fill:#ffffff;"/>
  </g>
  <g id="axes_1">
   <g id="patch_2">
    <path d="M 72 320.4 
L 518.4 320.4 
L 518.4 43.2 
L 72 43.2 
z
" style="fill:#ffffff;"/>
   </g>
   <g id="PolyCollection_1">
    <defs>
     <path d="M 72 -145.059504 
L 72 -151.369495 
L 72.9 -151.369495 
L 73.8 -151.369495 
L 74.7 -151.369495 
L 75.6 -151.369495 
L 76.5 -151.369495 
L 77.4 -151.369495 
L 78.3 -151.369495 
L 79.2 -151.369495 
L 80.1 -151.369495 
L 81 -151.369495 
L 81.9 -151.369495 
L 82.8 -151.369495 
L 83.7 -151.369495 
L 84.6 -151.369495 
L 85.5 -151.369495 
L 86.4 -151.369495 
L 87.3 -151.369495 
L 88.2 -151.369495 
L 89.1 -151.369495 
L 90 -151.369495 
L 90.9 -151.369495 
L 91.8 -151.369495 
L 92.7 -151.369495 
L 93.6 -151.369495 
L 94.5 -151.369495 
L 95.4 -151.369495 
L 96.3 -151.369495 
L 97.2 -151.369495 
L 98.1 -151.369495 
L 99 -151.369495 
L 99.9 -151.369495 
L 100.8 -151.369495 
L 101.7 -151.369495 
L 102.6 -151.369495 
L 103.5 -151.369495 
L 104.4 -151.369495 
L 105.3 -151.369495 
L 106.2 -151.369495 
L 107.1 -151.369495 
L 108 -151.369495 
L 108.9 -151.369495 
L 109.8 -151.369495 
L 110.7 -151.369495 
L 111.6 -151.369495 
L 112.5 -151.369495 
L 113.4 -151.369495 
L 114.3 -151.369495 
L 115.2 -151.369495 
L 116.1 -151.369495 
L 117 -151.369495 
L 117.9 -151.369495 
L 118.8 -151.369495 
L 119.7 -151.369495 
L 120.6 -151.369495 
L 121.5 -151.369495 
L 122.4 -151.369495 
L 123.3 -151.369495 
L 124.2 -151.369495 
L 125.1 -151.369495 
L 126 -151.369495 
L 126.9 -151.369495 
L 127.8 -151.369495 
L 128.7 -151.369495 
L 129.6 -151.369495 
L 130.5 -151.369495 
L 131.4 -151.369495 
L 132.3 -151.369495 
L 133.2 -151.369495 
L 134.1 -151.369495 
L 135 -151.369495 
L 135.9 -151.369495 
L 136.8 -151.369495 
L 137.7 -151.369495 
L 138.6 -151.369495 
L 139.5 -151.369495 
L 140.4 -151.369495 
L 141.3 -151.369495 
L 142.2 -151.369495 
L 143.1 -151.369495 
L 144 -151.369495 
L 144.9 -151.369495 
L 145.8 -151.369495 
L 146.7 -151.369495 
L 147.6 -151.369495 
L 148.5 -151.369495 
L 149.4 -151.369495 
L 150.3 -151.369495 
L 151.2 -151.369495 
L 152.1 -151.369495 
L 153 -151.369495 
L 153.9 -151.369495 
L 154.8 -151.369495 
L 155.7 -151.369495 
L 156.6 -151.369495 
L 157.5 -151.369495 
L 158.4 -151.369495 
L 159.3 -151.369495 
L 160.2 -151.369495 
L 161.1 -151.369495 
L 162 -151.369495 
L 162.9 -151.369495 
L 163.8 -151.369495 
L 164.7 -151.369495 
L 165.6 -151.369495 
L 166.5 -151.369495 
L 167.4 -151.369495 
L 168.3 -151.369495 
L 169.2 -151.369495 
L 170.1 -151.369495 
L 171 -151.369495 
L 171.9 -151.369495 
L 172.8 -151.369495 
L 173.7 -151.369495 
L 174.6 -151.369495 
L 175.5 -151.369495 
L 176.4 -151.369495 
L 177.3 -151.369495 
L 178.2 -151.369495 
L 179.1 -151.369495 
L 180 -151.369495 
L 180.9 -151.369495 
L 181.8 -151.369495 
L 182.7 -151.369495 
L 183.6 -151.369495 
L 184.5 -151.369495 
L 185.4 -151.369495 
L 186.3 -151.369495 
L 187.2 -151.369495 
L 188.1 -151.369495 
L 189 -151.369495 
L 189.9 -151.369495 
L 190.8 -151.369495 
L 191.7 -151.369495 
L 192.6 -151.369495 
L 193.5 -151.369495 
L 194.4 -151.369495 
L 195.3 -151.369495 
L 196.2 -151.369495 
L 197.1 -151.369495 
L 198 -151.369495 
L 198.9 -151.369495 
L 199.8 -151.369495 
L 200.7 -151.369495 
L 201.6 -151.369495 
L 202.5 -151.369495 
L 203.4 -151.369495 
L 204.3 -151.369495 
L 205.2 -151.369495 
L 206.1 -151.369495 
L 207 -151.369495 
L 207.9 -151.369495 
L 208.8 -151.369495 
L 209.7 -151.369495 
L 210.6 -151.369495 
L 211.5 -151.369495 
L 212.4 -151.369495 
L 213.3 -151.369495 
L 214.2 -151.369495 
L 215.1 -151.369495 
L 216 -151.369495 
L 216.9 -151.369495 
L 217.8 -151.369495 
L 218.7 -151.369495 
L 219.6 -151.369495 
L 220.5 -151.369495 
L 221.4 -151.369495 
L 222.3 -151.369495 
L 223.2 -151.369495 
L 224.1 -151.369495 
L 225 -151.369495 
L 225.9 -151.369495 
L 226.8 -151.369495 
L 227.7 -151.369495 
L 228.6 -151.369495 
L 229.5 -151.369495 
L 230.4 -151.369495 
L 231.3 -151.369495 
L 232.2 -151.369495 
L 233.1 -151.369495 
L 234 -151.369495 
L 234.9 -151.369495 
L 235.8 -151.369495 
L 236.7 -151.369495 
L 237.6 -151.369495 
L 238.5 -151.369495 
L 239.4 -151.369495 
L 240.3 -151.369495 
L 241.2 -151.369495 
L 242.1 -151.369495 
L 243 -151.369495 
L 243.9 -151.369495 
L 244.8 -151.369495 
L 245.7 -151.369495 
L 246.6 -151.369495 
L 247.5 -151.369495 
L 248.4 -151.369495 
L 249.3 -151.369495 
L 250.2 -151.369495 
L 251.1 -151.369495 
L 252 -151.369495 
L 252.9 -151.369495 
L 253.8 -151.369495 
L 254.7 -151.369495 
L 255.6 -151.369495 
L 256.5 -151.369495 
L 257.4 -151.369495 
L 258.3 -151.369495 
L 259.2 -151.369495 
L 260.1 -151.369495 
L 261 -151.369495 
L 261.9 -151.369495 
L 262.8 -151.369495 
L 263.7 -151.369495 
L 264.6 -151.369495 
L 265.5 -151.369495 
L 266.4 -151.369495 
L 267.3 -151.369495 
L 268.2 -151.369495 
L 269.1 -151.369495 
L 270 -151.369495 
L 270.9 -151.369495 
L 271.8 -151.369495 
L 272.7 -151.369495 
L 273.6 -151.369495 
L 274.5 -151.369495 
L 275.4 -151.369495 
L 276.3 -151.369495 
L 277.2 -151.369495 
L 278.1 -151.369495 
L 279 -151.369495 
L 279.9 -151.369495 
L 280.8 -151.369495 
L 281.7 -151.369495 
L 282.6 -151.369495 
L 283.5 -151.369495 
L 284.4 -151.369495 
L 285.3 -151.369495 
L 286.2 -151.369495 
L 287.1 -151.369495 
L 288 -151.369495 
L 288.9 -151.369495 
L 289.8 -151.369495 
L 290.7 -151.369495 
L 291.6 -151.369495 
L 292.5 -151.369495 
L 293.4 -151.369495 
L 294.3 -151.369495 
L 295.2 -151.369495 
L 296.1 -151.369495 
L 297 -151.369495 
L 297.9 -151.369495 
L 298.8 -151.369495 
L 299.7 -151.369495 
L 300.6 -151.369495 
L 301.5 -151.369495 
L 302.4 -151.369495 
L 303.3 -151.369495 
L 304.2 -151.369495 
L 305.1 -151.369495 
L 306 -151.369495 
L 306.9 -151.369495 
L 307.8 -151.369495 
L 308.7 -151.369495 
L 309.6 -151.369495 
L 310.5 -151.369495 
L 311.4 -151.369495 
L 312.3 -151.369495 
L 313.2 -151.369495 
L 314.1 -151.369495 
L 315 -151.369495 
L 315.9 -151.369495 
L 316.8 -151.369495 
L 317.7 -151.369495 
L 318.6 -151.369495 
L 319.5 -151.369495 
L 320.4 -151.369495 
L 321.3 -151.369495 
L 322.2 -151.369495 
L 323.1 -151.369495 
L 324 -151.369495 
L 324.9 -151.369495 
L 325.8 -151.369495 
L 326.7 -151.369495 
L 327.6 -151.369495 
L 328.5 -151.369495 
L 329.4 -151.369495 
L 330.3 -151.369495 
L 331.2 -151.369495 
L 332.1 -151.369495 
L 333 -151.369495 
L 333.9 -151.369495 
L 334.8 -151.369495 
L 335.7 -151.369495 
L 336.6 -151.369495 
L 337.5 -151.369495 
L 338.4 -151.369495 
L 339.3 -151.369495 
L 340.2 -151.369495 
L 341.1 -151.369495 
L 342 -151.369495 
L 342.9 -151.369495 
L 343.8 -151.369495 
L 344.7 -151.369495 
L 345.6 -151.369495 
L 346.5 -151.369495 
L 347.4 -151.369495 
L 348.3 -151.369495 
L 349.2 -151.369495 
L 350.1 -151.369495 
L 351 -151.369495 
L 351.9 -151.369495 
L 352.8 -151.369495 
L 353.7 -151.369495 
L 354.6 -151.369495 
L 355.5 -151.369495 
L 356.4 -151.369495 
L 357.3 -151.369495 
L 358.2 -151.369495 
L 359.1 -151.369495 
L 360 -151.369495 
L 360.9 -151.369495 
L 361.8 -151.369495 
L 362.7 -151.369495 
L 363.6 -151.369495 
L 364.5 -151.369495 
L 365.4 -151.369495 
L 366.3 -151.369495 
L 367.2 -151.369495 
L 368.1 -151.369495 
L 369 -151.369495 
L 369.9 -151.369495 
L 370.8 -151.369495 
L 371.7 -151.369495 
L 372.6 -151.369495 
L 373.5 -151.369495 
L 374.4 -151.369495 
L 375.3 -151.369495 
L 376.2 -151.369495 
L 377.1 -151.369495 
L 378 -151.369495 
L 378.9 -151.369495 
L 379.8 -151.369495 
L 380.7 -151.369495 
L 381.6 -151.369495 
L 382.5 -151.369495 
L 383.4 -151.369495 
L 384.3 -151.369495 
L 385.2 -151.369495 
L 386.1 -151.369495 
L 387 -151.369495 
L 387.9 -151.369495 
L 388.8 -151.369495 
L 389.7 -151.369495 
L 390.6 -151.369495 
L 391.5 -151.369495 
L 392.4 -151.369495 
L 393.3 -151.369495 
L 394.2 -151.369495 
L 395.1 -151.369495 
L 396 -151.369495 
L 396.9 -151.369495 
L 397.8 -151.369495 
L 398.7 -151.369495 
L 399.6 -151.369495 
L 400.5 -151.369495 
L 401.4 -151.369495 
L 402.3 -151.369495 
L 403.2 -151.369495 
L 404.1 -151.369495 
L 405 -151.369495 
L 405.9 -151.369495 
L 406.8 -151.369495 
L 407.7 -151.369495 
L 408.6 -151.369495 
L 409.5 -151.369495 
L 410.4 -151.369495 
L 411.3 -151.369495 
L 412.2 -151.369495 
L 413.1 -151.369495 
L 414 -151.369495 
L 414.9 -151.369495 
L 415.8 -151.369495 
L 416.7 -151.369495 
L 417.6 -151.369495 
L 418.5 -151.369495 
L 419.4 -151.369495 
L 420.3 -151.369495 
L 421.2 -151.369495 
L 422.1 -151.369495 
L 423 -151.369495 
L 423.9 -151.369495 
L 424.8 -151.369495 
L 425.7 -151.369495 
L 426.6 -151.369495 
L 427.5 -151.369495 
L 428.4 -151.369495 
L 429.3 -151.369495 
L 430.2 -151.369495 
L 431.1 -151.369495 
L 432 -151.369495 
L 432.9 -151.369495 
L 433.8 -151.369495 
L 434.7 -151.369495 
L 435.6 -151.369495 
L 436.5 -151.369495 
L 437.4 -151.369495 
L 438.3 -151.369495 
L 439.2 -151.369495 
L 440.1 -151.369495 
L 441 -151.369495 
L 441.9 -151.369495 
L 442.8 -151.369495 
L 443.7 -151.369495 
L 444.6 -151.369495 
L 445.5 -151.369495 
L 446.4 -151.369495 
L 447.3 -151.369495 
L 448.2 -151.369495 
L 449.1 -151.369495 
L 450 -151.369495 
L 450.9 -151.369495 
L 451.8 -151.369495 
L 452.7 -151.369495 
L 453.6 -151.369495 
L 454.5 -151.369495 
L 455.4 -151.369495 
L 456.3 -151.369495 
L 457.2 -151.369495 
L 458.1 -151.369495 
L 459 -151.369495 
L 459.9 -151.369495 
L 460.8 -151.369495 
L 461.7 -151.369495 
L 462.6 -151.369495 
L 463.5 -151.369495 
L 464.4 -151.369495 
L 465.3 -151.369495 
L 466.2 -151.369495 
L 467.1 -151.369495 
L 468 -151.369495 
L 468.9 -151.369495 
L 469.8 -151.369495 
L 470.7 -151.369495 
L 471.6 -151.369495 
L 472.5 -151.369495 
L 473.4 -151.369495 
L 474.3 -151.369495 
L 475.2 -151.369495 
L 476.1 -151.369495 
L 477 -151.369495 
L 477.9 -151.369495 
L 478.8 -151.369495 
L 479.7 -151.369495 
L 480.6 -151.369495 
L 481.5 -151.369495 
L 482.4 -151.369495 
L 483.3 -151.369495 
L 484.2 -151.369495 
L 485.1 -151.369495 
L 486 -151.369495 
L 486.9 -151.369495 
L 487.8 -151.369495 
L 488.7 -151.369495 
L 489.6 -151.369495 
L 490.5 -151.369495 
L 491.4 -151.369495 
L 492.3 -151.369495 
L 493.2 -151.369495 
L 494.1 -151.369495 
L 495 -151.369495 
L 495.9 -151.369495 
L 496.8 -151.369495 
L 497.7 -151.369495 
L 498.6 -151.369495 
L 499.5 -151.369495 
L 500.4 -151.369495 
L 501.3 -151.369495 
L 502.2 -151.369495 
L 503.1 -151.369495 
L 504 -151.369495 
L 504.9 -151.369495 
L 505.8 -151.369495 
L 506.7 -151.369495 
L 507.6 -151.369495 
L 508.5 -151.369495 
L 509.4 -151.369495 
L 510.3 -151.369495 
L 511.2 -151.369495 
L 512.1 -151.369495 
L 513 -151.369495 
L 513.9 -151.369495 
L 514.8 -151.369495 
L 515.7 -151.369495 
L 516.6 -151.369495 
L 517.5 -151.369495 
L 518.4 -151.369495 
L 518.4 -145.059504 
L 518.4 -145.059504 
L 517.5 -145.059504 
L 516.6 -145.059504 
L 515.7 -145.059504 
L 514.8 -145.059504 
L 513.9 -145.059504 
L 513 -145.059504 
L 512.1 -145.059504 
L 511.2 -145.059504 
L 510.3 -145.059504 
L 509.4 -145.059504 
L 508.5 -145.059504 
L 507.6 -145.059504 
L 506.7 -145.059504 
L 505.8 -145.059504 
L 504.9 -145.059504 
L 504 -145.059504 
L 503.1 -145.059504 
L 502.2 -145.059504 
L 501.3 -145.059504 
L 500.4 -145.059504 
L 499.5 -145.059504 
L 498.6 -145.059504 
L 497.7 -145.059504 
L 496.8 -145.059504 
L 495.9 -145.059504 
L 495 -145.059504 
L 494.1 -145.059504 
L 493.2 -145.059504 
L 492.3 -145.059504 
L 491.4 -145.059504 
L 490.5 -145.059504 
L 489.6 -145.059504 
L 488.7 -145.059504 
L 487.8 -145.059504 
L 486.9 -145.059504 
L 486 -145.059504 
L 485.1 -145.059504 
L 484.2 -145.059504 
L 483.3 -145.059504 
L 482.4 -145.059504 
L 481.5 -145.059504 
L 480.6 -145.059504 
L 479.7 -145.059504 
L 478.8 -145.059504 
L 477.9 -145.059504 
L 477 -145.059504 
L 476.1 -145.059504 
L 475.2 -145.059504 
L 474.3 -145.059504 
L 473.4 -145.059504 
L 472.5 -145.059504 
L 471.6 -145.059504 
L 470.7 -145.059504 
L 469.8 -145.059504 
L 468.9 -145.059504 
L 468 -145.059504 
L 467.1 -145.059504 
L 466.2 -145.059504 
L 465.3 -145.059504 
L 464.4 -145.059504 
L 463.5 -145.059504 
L 462.6 -145.059504 
L 461.7 -145.059504 
L 460.8 -145.059504 
L 459.9 -145.059504 
L 459 -145.059504 
L 458.1 -145.059504 
L 457.2 -145.059504 
L 456.3 -145.059504 
L 455.4 -145.059504 
L 454.5 -145.059504 
L 453.6 -145.059504 
L 452.7 -145.059504 
L 451.8 -145.059504 
L 450.9 -145.059504 
L 450 -145.059504 
L 449.1 -145.059504 
L 448.2 -145.059504 
L 447.3 -145.059504 
L 446.4 -145.059504 
L 445.5 -145.059504 
L 444.6 -145.059504 
L 443.7 -145.059504 
L 442.8 -145.059504 
L 441.9 -145.059504 
L 441 -145.059504 
L 440.1 -145.059504 
L 439.2 -145.059504 
L 438.3 -145.059504 
L 437.4 -145.059504 
L 436.5 -145.059504 
L 435.6 -145.059504 
L 434.7 -145.059504 
L 433.8 -145.059504 
L 432.9 -145.059504 
L 432 -145.059504 
L 431.1 -145.059504 
L 430.2 -145.059504 
L 429.3 -145.059504 
L 428.4 -145.059504 
L 427.5 -145.059504 
L 426.6 -145.059504 
L 425.7 -145.059504 
L 424.8 -145.059504 
L 423.9 -145.059504 
L 423 -145.059504 
L 422.1 -145.059504 
L 421.2 -145.059504 
L 420.3 -145.059504 
L 419.4 -145.059504 
L 418.5 -145.059504 
L 417.6 -145.059504 
L 416.7 -145.059504 
L 415.8 -145.059504 
L 414.9 -145.059504 
L 414 -145.059504 
L 413.1 -145.059504 
L 412.2 -145.059504 
L 411.3 -145.059504 
L 410.4 -145.059504 
L 409.5 -145.059504 
L 408.6 -145.059504 
L 407.7 -145.059504 
L 406.8 -145.059504 
L 405.9 -145.059504 
L 405 -145.059504 
L 404.1 -145.059504 
L 403.2 -145.059504 
L 402.3 -145.059504 
L 401.4 -145.059504 
L 400.5 -145.059504 
L 399.6 -145.059504 
L 398.7 -145.059504 
L 397.8 -145.059504 
L 396.9 -145.059504 
L 396 -145.059504 
L 395.1 -145.059504 
L 394.2 -145.059504 
L 393.3 -145.059504 
L 392.4 -145.059504 
L 391.5 -145.059504 
L 390.6 -145.059504 
L 389.7 -145.059504 
L 388.8 -145.059504 
L 387.9 -145.059504 
L 387 -145.059504 
L 386.1 -145.059504 
L 385.2 -145.059504 
L 384.3 -145.059504 
L 383.4 -145.059504 
L 382.5 -145.059504 
L 381.6 -145.059504 
L 380.7 -145.059504 
L 379.8 -145.059504 
L 378.9 -145.059504 
L 378 -145.059504 
L 377.1 -145.059504 
L 376.2 -145.059504 
L 375.3 -145.059504 
L 374.4 -145.059504 
L 373.5 -145.059504 
L 372.6 -145.059504 
L 371.7 -145.059504 
L 370.8 -145.059504 
L 369.9 -145.059504 
L 369 -145.059504 
L 368.1 -145.059504 
L 367.2 -145.059504 
L 366.3 -145.059504 
L 365.4 -145.059504 
L 364.5 -145.059504 
L 363.6 -145.059504 
L 362.7 -145.059504 
L 361.8 -145.059504 
L 360.9 -145.059504 
L 360 -145.059504 
L 359.1 -145.059504 
L 358.2 -145.059504 
L 357.3 -145.059504 
L 356.4 -145.059504 
L 355.5 -145.059504 
L 354.6 -145.059504 
L 353.7 -145.059504 
L 352.8 -145.059504 
L 351.9 -145.059504 
L 351 -145.059504 
L 350.1 -145.059504 
L 349.2 -145.059504 
L 348.3 -145.059504 
L 347.4 -145.059504 
L 346.5 -145.059504 
L 345.6 -145.059504 
L 344.7 -145.059504 
L 343.8 -145.059504 
L 342.9 -145.059504 
L 342 -145.059504 
L 341.1 -145.059504 
L 340.2 -145.059504 
L 339.3 -145.059504 
L 338.4 -145.059504 
L 337.5 -145.059504 
L 336.6 -145.059504 
L 335.7 -145.059504 
L 334.8 -145.059504 
L 333.9 -145.059504 
L 333 -145.059504 
L 332.1 -145.059504 
L 331.2 -145.059504 
L 330.3 -145.059504 
L 329.4 -145.059504 
L 328.5 -145.059504 
L 327.6 -145.059504 
L 326.7 -145.059504 
L 325.8 -145.059504 
L 324.9 -145.059504 
L 324 -145.059504 
L 323.1 -145.059504 
L 322.2 -145.059504 
L 321.3 -145.059504 
L 320.4 -145.059504 
L 319.5 -145.059504 
L 318.6 -145.059504 
L 317.7 -145.059504 
L 316.8 -145.059504 
L 315.9 -145.059504 
L 315 -145.059504 
L 314.1 -145.059504 
L 313.2 -145.059504 
L 312.3 -145.059504 
L 311.4 -145.059504 
L 310.5 -145.059504 
L 309.6 -145.059504 
L 308.7 -145.059504 
L 307.8 -145.059504 
L 306.9 -145.059504 
L 306 -145.059504 
L 305.1 -145.059504 
L 304.2 -145.059504 
L 303.3 -145.059504 
L 302.4 -145.059504 
L 301.5 -145.059504 
L 300.6 -145.059504 
L 299.7 -145.059504 
L 298.8 -145.059504 
L 297.9 -145.059504 
L 297 -145.059504 
L 296.1 -145.059504 
L 295.2 -145.059504 
L 294.3 -145.059504 
L 293.4 -145.059504 
L 292.5 -145.059504 
L 291.6 -145.059504 
L 290.7 -145.059504 
L 289.8 -145.059504 
L 288.9 -145.059504 
L 288 -145.059504 
L 287.1 -145.059504 
L 286.2 -145.059504 
L 285.3 -145.059504 
L 284.4 -145.059504 
L 283.5 -145.059504 
L 282.6 -145.059504 
L 281.7 -145.059504 
L 280.8 -145.059504 
L 279.9 -145.059504 
L 279 -145.059504 
L 278.1 -145.059504 
L 277.2 -145.059504 
L 276.3 -145.059504 
L 275.4 -145.059504 
L 274.5 -145.059504 
L 273.6 -145.059504 
L 272.7 -145.059504 
L 271.8 -145.059504 
L 270.9 -145.059504 
L 270 -145.059504 
L 269.1 -145.059504 
L 268.2 -145.059504 
L 267.3 -145.059504 
L 266.4 -145.059504 
L 265.5 -145.059504 
L 264.6 -145.059504 
L 263.7 -145.059504 
L 262.8 -145.059504 
L 261.9 -145.059504 
L 261 -145.059504 
L 260.1 -145.059504 
L 259.2 -145.059504 
L 258.3 -145.059504 
L 257.4 -145.059504 
L 256.5 -145.059504 
L 255.6 -145.059504 
L 254.7 -145.059504 
L 253.8 -145.059504 
L 252.9 -145.059504 
L 252 -145.059504 
L 251.1 -145.059504 
L 250.2 -145.059504 
L 249.3 -145.059504 
L 248.4 -145.059504 
L 247.5 -145.059504 
L 246.6 -145.059504 
L 245.7 -145.059504 
L 244.8 -145.059504 
L 243.9 -145.059504 
L 243 -145.059504 
L 242.1 -145.059504 
L 241.2 -145.059504 
L 240.3 -145.059504 
L 239.4 -145.059504 
L 238.5 -145.059504 
L 237.6 -145.059504 
L 236.7 -145.059504 
L 235.8 -145.059504 
L 234.9 -145.059504 
L 234 -145.059504 
L 233.1 -145.059504 
L 232.2 -145.059504 
L 231.3 -145.059504 
L 230.4 -145.059504 
L 229.5 -145.059504 
L 228.6 -145.059504 
L 227.7 -145.059504 
L 226.8 -145.059504 
L 225.9 -145.059504 
L 225 -145.059504 
L 224.1 -145.059504 
L 223.2 -145.059504 
L 222.3 -145.059504 
L 221.4 -145.059504 
L 220.5 -145.059504 
L 219.6 -145.059504 
L 218.7 -145.059504 
L 217.8 -145.059504 
L 216.9 -145.059504 
L 216 -145.059504 
L 215.1 -145.059504 
L 214.2 -145.059504 
L 213.3 -145.059504 
L 212.4 -145.059504 
L 211.5 -145.059504 
L 210.6 -145.059504 
L 209.7 -145.059504 
L 208.8 -145.059504 
L 207.9 -145.059504 
L 207 -145.059504 
L 206.1 -145.059504 
L 205.2 -145.059504 
L 204.3 -145.059504 
L 203.4 -145.059504 
L 202.5 -145.059504 
L 201.6 -145.059504 
L 200.7 -145.059504 
L 199.8 -145.059504 
L 198.9 -145.059504 
L 198 -145.059504 
L 197.1 -145.059504 
L 196.2 -145.059504 
L 195.3 -145.059504 
L 194.4 -145.059504 
L 193.5 -145.059504 
L 192.6 -145.059504 
L 191.7 -145.059504 
L 190.8 -145.059504 
L 189.9 -145.059504 
L 189 -145.059504 
L 188.1 -145.059504 
L 187.2 -145.059504 
L 186.3 -145.059504 
L 185.4 -145.059504 
L 184.5 -145.059504 
L 183.6 -145.059504 
L 182.7 -145.059504 
L 181.8 -145.059504 
L 180.9 -145.059504 
L 180 -145.059504 
L 179.1 -145.059504 
L 178.2 -145.059504 
L 177.3 -145.059504 
L 176.4 -145.059504 
L 175.5 -145.059504 
L 174.6 -145.059504 
L 173.7 -145.059504 
L 172.8 -145.059504 
L 171.9 -145.059504 
L 171 -145.059504 
L 170.1 -145.059504 
L 169.2 -145.059504 
L 168.3 -145.059504 
L 167.4 -145.059504 
L 166.5 -145.059504 
L 165.6 -145.059504 
L 164.7 -145.059504 
L 163.8 -145.059504 
L 162.9 -145.059504 
L 162 -145.059504 
L 161.1 -145.059504 
L 160.2 -145.059504 
L 159.3 -145.059504 
L 158.4 -145.059504 
L 157.5 -145.059504 
L 156.6 -145.059504 
L 155.7 -145.059504 
L 154.8 -145.059504 
L 153.9 -145.059504 
L 153 -145.059504 
L 152.1 -145.059504 
L 151.2 -145.059504 
L 150.3 -145.059504 
L 149.4 -145.059504 
L 148.5 -145.059504 
L 147.6 -145.059504 
L 146.7 -145.059504 
L 145.8 -145.059504 
L 144.9 -145.059504 
L 144 -145.059504 
L 143.1 -145.059504 
L 142.2 -145.059504 
L 141.3 -145.059504 
L 140.4 -145.059504 
L 139.5 -145.059504 
L 138.6 -145.059504 
L 137.7 -145.059504 
L 136.8 -145.059504 
L 135.9 -145.059504 
L 135 -145.059504 
L 134.1 -145.059504 
L 133.2 -145.059504 
L 132.3 -145.059504 
L 131.4 -145.059504 
L 130.5 -145.059504 
L 129.6 -145.059504 
L 128.7 -145.059504 
L 127.8 -145.059504 
L 126.9 -145.059504 
L 126 -145.059504 
L 125.1 -145.059504 
L 124.2 -145.059504 
L 123.3 -145.059504 
L 122.4 -145.059504 
L 121.5 -145.059504 
L 120.6 -145.059504 
L 119.7 -145.059504 
L 118.8 -145.059504 
L 117.9 -145.059504 
L 117 -145.059504 
L 116.1 -145.059504 
L 115.2 -145.059504 
L 114.3 -145.059504 
L 113.4 -145.059504 
L 112.5 -145.059504 
L 111.6 -145.059504 
L 110.7 -145.059504 
L 109.8 -145.059504 
L 108.9 -145.059504 
L 108 -145.059504 
L 107.1 -145.059504 
L 106.2 -145.059504 
L 105.3 -145.059504 
L 104.4 -145.059504 
L 103.5 -145.059504 
L 102.6 -145.059504 
L 101.7 -145.059504 
L 100.8 -145.059504 
L 99.9 -145.059504 
L 99 -145.059504 
L 98.1 -145.059504 
L 97.2 -145.059504 
L 96.3 -145.059504 
L 95.4 -145.059504 
L 94.5 -145.059504 
L 93.6 -145.059504 
L 92.7 -145.059504 
L 91.8 -145.059504 
L 90.9 -145.059504 
L 90 -145.059504 
L 89.1 -145.059504 
L 88.2 -145.059504 
L 87.3 -145.059504 
L 86.4 -145.059504 
L 85.5 -145.059504 
L 84.6 -145.059504 
L 83.7 -145.059504 
L 82.8 -145.059504 
L 81.9 -145.059504 
L 81 -145.059504 
L 80.1 -145.059504 
L 79.2 -145.059504 
L 78.3 -145.059504 
L 77.4 -145.059504 
L 76.5 -145.059504 
L 75.6 -145.059504 
L 74.7 -145.059504 
L 73.8 -145.059504 
L 72.9 -145.059504 
L 72 -145.059504 
z
" id="mc42c9d220c"/>
    </defs>
    <g clip-path="url(#p55415c8710)">
     <use style="fill-opacity:0.15;" x="0" xlink:href="#mc42c9d220c" y="360"/>
    </g>
   </g>
   <g id="matplotlib.axis_1">
    <g id="xtick_1">
     <g id="line2d_1">
      <defs>
       <path d="M 0 0 
L 0 3.5 
" id="m4c743041f9" style="stroke:#000000;stroke-width:0.8;"/>
      </defs>
      <g>
       <use style="stroke:#000000;stroke-width:0.8;" x="72" xlink:href="#m4c743041f9" y="320.4"/>
      </g>
     </g>
     <g id="text_1">
      <!-- 0.0 -->
      <g transform="translate(60.867812 338.037813)scale(0.14 -0.14)">
       <defs>
        <path d="M 2034 4250 
Q 1547 4250 1301 3770 
Q 1056 3291 1056 2328 
Q 1056 1369 1301 889 
Q 1547 409 2034 409 
Q 2525 409 2770 889 
Q 3016 1369 3016 2328 
Q 3016 3291 2770 3770 
Q 2525 4250 2034 4250 
z
M 2034 4750 
Q 2819 4750 3233 4129 
Q 3647 3509 3647 2328 
Q 3647 1150 3233 529 
Q 2819 -91 2034 -91 
Q 1250 -91 836 529 
Q 422 1150 422 2328 
Q 422 3509 836 4129 
Q 1250 4750 2034 4750 
z
" id="DejaVuSans-30" transform="scale(0.015625)"/>
        <path d="M 684 794 
L 1344 794 
L 1344 0 
L 684 0 
L 684 794 
z
" id="DejaVuSans-2e" transform="scale(0.015625)"/>
       </defs>
       <use xlink:href="#DejaVuSans-30"/>
       <use x="63.623047" xlink:href="#DejaVuSans-2e"/>
       <use x="95.410156" xlink:href="#DejaVuSans-30"/>
      </g>
     </g>
    </g>
    <g id="xtick_2">
     <g id="line2d_2">
      <g>
       <use style="stroke:#000000;stroke-width:0.8;" x="127.827914" xlink:href="#m4c743041f9" y="320.4"/>
      </g>
     </g>
     <g id="text_2">
      <!-- 2.5 -->
      <g transform="translate(116.695726 338.037813)scale(0.14 -0.14)">
       <defs>
        <path d="M 1228 531 
L 3431 531 
L 3431 0 
L 469 0 
L 469 531 
Q 828 903 1448 1529 
Q 2069 2156 2228 2338 
Q 2531 2678 2651 2914 
Q 2772 3150 2772 3378 
Q 2772 3750 2511 3984 
Q 2250 4219 1831 4219 
Q 1534 4219 1204 4116 
Q 875 4013 500 3803 
L 500 4441 
Q 881 4594 1212 4672 
Q 1544 4750 1819 4750 
Q 2544 4750 2975 4387 
Q 3406 4025 3406 3419 
Q 3406 3131 3298 2873 
Q 3191 2616 2906 2266 
Q 2828 2175 2409 1742 
Q 1991 1309 1228 531 
z
" id="DejaVuSans-32" transform="scale(0.015625)"/>
        <path d="M 691 4666 
L 3169 4666 
L 3169 4134 
L 1269 4134 
L 1269 2991 
Q 1406 3038 1543 3061 
Q 1681 3084 1819 3084 
Q 2600 3084 3056 2656 
Q 3513 2228 3513 1497 
Q 3513 744 3044 326 
Q 2575 -91 1722 -91 
Q 1428 -91 1123 -41 
Q 819 9 494 109 
L 494 744 
Q 775 591 1075 516 
Q 1375 441 1709 441 
Q 2250 441 2565 725 
Q 2881 1009 2881 1497 
Q 2881 1984 2565 2268 
Q 2250 2553 1709 2553 
Q 1456 2553 1204 2497 
Q 953 2441 691 2322 
L 691 4666 
z
" id="DejaVuSans-35" transform="scale(0.015625)"/>
       </defs>
       <use xlink:href="#DejaVuSans-32"/>
       <use x="63.623047" xlink:href="#DejaVuSans-2e"/>
       <use x="95.410156" xlink:href="#DejaVuSans-35"/>
      </g>
     </g>
    </g>
    <g id="xtick_3">
     <g id="line2d_3">
      <g>
       <use style="stroke:#000000;stroke-width:0.8;" x="183.655828" xlink:href="#m4c743041f9" y="320.4"/>
      </g>
     </g>
     <g id="text_3">
      <!-- 5.0 -->
      <g transform="translate(172.52364 338.037813)scale(0.14 -0.14)">
       <use xlink:href="#DejaVuSans-35"/>
       <use x="63.623047" xlink:href="#DejaVuSans-2e"/>
       <use x="95.410156" xlink:href="#DejaVuSans-30"/>
      </g>
     </g>
    </g>
    <g id="xtick_4">
     <g id="line2d_4">
      <g>
       <use style="stroke:#000000;stroke-width:0.8;" x="239.483742" xlink:href="#m4c743041f9" y="320.4"/>
      </g>
     </g>
     <g id="text_4">
      <!-- 7.5 -->
      <g transform="translate(228.351554 338.037813)scale(0.14 -0.14)">
       <defs>
        <path d="M 525 4666 
L 3525 4666 
L 3525 4397 
L 1831 0 
L 1172 0 
L 2766 4134 
L 525 4134 
L 525 4666 
z
" id="DejaVuSans-37" transform="scale(0.015625)"/>
       </defs>
       <use xlink:href="#DejaVuSans-37"/>
       <use x="63.623047" xlink:href="#DejaVuSans-2e"/>
       <use x="95.410156" xlink:href="#DejaVuSans-35"/>
      </g>
     </g>
    </g>
    <g id="xtick_5">
     <g id="line2d_5">
      <g>
       <use style="stroke:#000000;stroke-width:0.8;" x="295.311656" xlink:href="#m4c743041f9" y="320.4"/>
      </g>
     </g>
     <g id="text_5">
      <!-- 10.0 -->
      <g transform="translate(279.725718 338.037813)scale(0.14 -0.14)">
       <defs>
        <path d="M 794 531 
L 1825 531 
L 1825 4091 
L 703 3866 
L 703 4441 
L 1819 4666 
L 2450 4666 
L 2450 531 
L 3481 531 
L 3481 0 
L 794 0 
L 794 531 
z
" id="DejaVuSans-31" transform="scale(0.015625)"/>
       </defs>
       <use xlink:href="#DejaVuSans-31"/>
       <use x="63.623047" xlink:href="#DejaVuSans-30"/>
       <use x="127.246094" xlink:href="#DejaVuSans-2e"/>
       <use x="159.033203" xlink:href="#DejaVuSans-30"/>
      </g>
     </g>
    </g>
    <g id="xtick_6">
     <g id="line2d_6">
      <g>
       <use style="stroke:#000000;stroke-width:0.8;" x="351.13957" xlink:href="#m4c743041f9" y="320.4"/>
      </g>
     </g>
     <g id="text_6">
      <!-- 12.5 -->
      <g transform="translate(335.553632 338.037813)scale(0.14 -0.14)">
       <use xlink:href="#DejaVuSans-31"/>
       <use x="63.623047" xlink:href="#DejaVuSans-32"/>
       <use x="127.246094" xlink:href="#DejaVuSans-2e"/>
       <use x="159.033203" xlink:href="#DejaVuSans-35"/>
      </g>
     </g>
    </g>
    <g id="xtick_7">
     <g id="line2d_7">
      <g>
       <use style="stroke:#000000;stroke-width:0.8;" x="406.967484" xlink:href="#m4c743041f9" y="320.4"/>
      </g>
     </g>
     <g id="text_7">
      <!-- 15.0 -->
      <g transform="translate(391.381546 338.037813)scale(0.14 -0.14)">
       <use xlink:href="#DejaVuSans-31"/>
       <use x="63.623047" xlink:href="#DejaVuSans-35"/>
       <use x="127.246094" xlink:href="#DejaVuSans-2e"/>
       <use x="159.033203" xlink:href="#DejaVuSans-30"/>
      </g>
     </g>
    </g>
    <g id="xtick_8">
     <g id="line2d_8">
      <g>
       <use style="stroke:#000000;stroke-width:0.8;" x="462.795398" xlink:href="#m4c743041f9" y="320.4"/>
      </g>
     </g>
     <g id="text_8">
      <!-- 17.5 -->
      <g transform="translate(447.20946 338.037813)scale(0.14 -0.14)">
       <use xlink:href="#DejaVuSans-31"/>
       <use x="63.623047" xlink:href="#DejaVuSans-37"/>
       <use x="127.246094" xlink:href="#DejaVuSans-2e"/>
       <use x="159.033203" xlink:href="#DejaVuSans-35"/>
      </g>
     </g>
    </g>
    <g id="text_9">
     <!-- Time [Seconds] -->
     <g transform="translate(233.23 357.106875)scale(0.16 -0.16)">
      <defs>
       <path d="M -19 4666 
L 3928 4666 
L 3928 4134 
L 2272 4134 
L 2272 0 
L 1638 0 
L 1638 4134 
L -19 4134 
L -19 4666 
z
" id="DejaVuSans-54" transform="scale(0.015625)"/>
       <path d="M 603 3500 
L 1178 3500 
L 1178 0 
L 603 0 
L 603 3500 
z
M 603 4863 
L 1178 4863 
L 1178 4134 
L 603 4134 
L 603 4863 
z
" id="DejaVuSans-69" transform="scale(0.015625)"/>
       <path d="M 3328 2828 
Q 3544 3216 3844 3400 
Q 4144 3584 4550 3584 
Q 5097 3584 5394 3201 
Q 5691 2819 5691 2113 
L 5691 0 
L 5113 0 
L 5113 2094 
Q 5113 2597 4934 2840 
Q 4756 3084 4391 3084 
Q 3944 3084 3684 2787 
Q 3425 2491 3425 1978 
L 3425 0 
L 2847 0 
L 2847 2094 
Q 2847 2600 2669 2842 
Q 2491 3084 2119 3084 
Q 1678 3084 1418 2786 
Q 1159 2488 1159 1978 
L 1159 0 
L 581 0 
L 581 3500 
L 1159 3500 
L 1159 2956 
Q 1356 3278 1631 3431 
Q 1906 3584 2284 3584 
Q 2666 3584 2933 3390 
Q 3200 3197 3328 2828 
z
" id="DejaVuSans-6d" transform="scale(0.015625)"/>
       <path d="M 3597 1894 
L 3597 1613 
L 953 1613 
Q 991 1019 1311 708 
Q 1631 397 2203 397 
Q 2534 397 2845 478 
Q 3156 559 3463 722 
L 3463 178 
Q 3153 47 2828 -22 
Q 2503 -91 2169 -91 
Q 1331 -91 842 396 
Q 353 884 353 1716 
Q 353 2575 817 3079 
Q 1281 3584 2069 3584 
Q 2775 3584 3186 3129 
Q 3597 2675 3597 1894 
z
M 3022 2063 
Q 3016 2534 2758 2815 
Q 2500 3097 2075 3097 
Q 1594 3097 1305 2825 
Q 1016 2553 972 2059 
L 3022 2063 
z
" id="DejaVuSans-65" transform="scale(0.015625)"/>
       <path id="DejaVuSans-20" transform="scale(0.015625)"/>
       <path d="M 550 4863 
L 1875 4863 
L 1875 4416 
L 1125 4416 
L 1125 -397 
L 1875 -397 
L 1875 -844 
L 550 -844 
L 550 4863 
z
" id="DejaVuSans-5b" transform="scale(0.015625)"/>
       <path d="M 3425 4513 
L 3425 3897 
Q 3066 4069 2747 4153 
Q 2428 4238 2131 4238 
Q 1616 4238 1336 4038 
Q 1056 3838 1056 3469 
Q 1056 3159 1242 3001 
Q 1428 2844 1947 2747 
L 2328 2669 
Q 3034 2534 3370 2195 
Q 3706 1856 3706 1288 
Q 3706 609 3251 259 
Q 2797 -91 1919 -91 
Q 1588 -91 1214 -16 
Q 841 59 441 206 
L 441 856 
Q 825 641 1194 531 
Q 1563 422 1919 422 
Q 2459 422 2753 634 
Q 3047 847 3047 1241 
Q 3047 1584 2836 1778 
Q 2625 1972 2144 2069 
L 1759 2144 
Q 1053 2284 737 2584 
Q 422 2884 422 3419 
Q 422 4038 858 4394 
Q 1294 4750 2059 4750 
Q 2388 4750 2728 4690 
Q 3069 4631 3425 4513 
z
" id="DejaVuSans-53" transform="scale(0.015625)"/>
       <path d="M 3122 3366 
L 3122 2828 
Q 2878 2963 2633 3030 
Q 2388 3097 2138 3097 
Q 1578 3097 1268 2742 
Q 959 2388 959 1747 
Q 959 1106 1268 751 
Q 1578 397 2138 397 
Q 2388 397 2633 464 
Q 2878 531 3122 666 
L 3122 134 
Q 2881 22 2623 -34 
Q 2366 -91 2075 -91 
Q 1284 -91 818 406 
Q 353 903 353 1747 
Q 353 2603 823 3093 
Q 1294 3584 2113 3584 
Q 2378 3584 2631 3529 
Q 2884 3475 3122 3366 
z
" id="DejaVuSans-63" transform="scale(0.015625)"/>
       <path d="M 1959 3097 
Q 1497 3097 1228 2736 
Q 959 2375 959 1747 
Q 959 1119 1226 758 
Q 1494 397 1959 397 
Q 2419 397 2687 759 
Q 2956 1122 2956 1747 
Q 2956 2369 2687 2733 
Q 2419 3097 1959 3097 
z
M 1959 3584 
Q 2709 3584 3137 3096 
Q 3566 2609 3566 1747 
Q 3566 888 3137 398 
Q 2709 -91 1959 -91 
Q 1206 -91 779 398 
Q 353 888 353 1747 
Q 353 2609 779 3096 
Q 1206 3584 1959 3584 
z
" id="DejaVuSans-6f" transform="scale(0.015625)"/>
       <path d="M 3513 2113 
L 3513 0 
L 2938 0 
L 2938 2094 
Q 2938 2591 2744 2837 
Q 2550 3084 2163 3084 
Q 1697 3084 1428 2787 
Q 1159 2491 1159 1978 
L 1159 0 
L 581 0 
L 581 3500 
L 1159 3500 
L 1159 2956 
Q 1366 3272 1645 3428 
Q 1925 3584 2291 3584 
Q 2894 3584 3203 3211 
Q 3513 2838 3513 2113 
z
" id="DejaVuSans-6e" transform="scale(0.015625)"/>
       <path d="M 2906 2969 
L 2906 4863 
L 3481 4863 
L 3481 0 
L 2906 0 
L 2906 525 
Q 2725 213 2448 61 
Q 2172 -91 1784 -91 
Q 1150 -91 751 415 
Q 353 922 353 1747 
Q 353 2572 751 3078 
Q 1150 3584 1784 3584 
Q 2172 3584 2448 3432 
Q 2725 3281 2906 2969 
z
M 947 1747 
Q 947 1113 1208 752 
Q 1469 391 1925 391 
Q 2381 391 2643 752 
Q 2906 1113 2906 1747 
Q 2906 2381 2643 2742 
Q 2381 3103 1925 3103 
Q 1469 3103 1208 2742 
Q 947 2381 947 1747 
z
" id="DejaVuSans-64" transform="scale(0.015625)"/>
       <path d="M 2834 3397 
L 2834 2853 
Q 2591 2978 2328 3040 
Q 2066 3103 1784 3103 
Q 1356 3103 1142 2972 
Q 928 2841 928 2578 
Q 928 2378 1081 2264 
Q 1234 2150 1697 2047 
L 1894 2003 
Q 2506 1872 2764 1633 
Q 3022 1394 3022 966 
Q 3022 478 2636 193 
Q 2250 -91 1575 -91 
Q 1294 -91 989 -36 
Q 684 19 347 128 
L 347 722 
Q 666 556 975 473 
Q 1284 391 1588 391 
Q 1994 391 2212 530 
Q 2431 669 2431 922 
Q 2431 1156 2273 1281 
Q 2116 1406 1581 1522 
L 1381 1569 
Q 847 1681 609 1914 
Q 372 2147 372 2553 
Q 372 3047 722 3315 
Q 1072 3584 1716 3584 
Q 2034 3584 2315 3537 
Q 2597 3491 2834 3397 
z
" id="DejaVuSans-73" transform="scale(0.015625)"/>
       <path d="M 1947 4863 
L 1947 -844 
L 622 -844 
L 622 -397 
L 1369 -397 
L 1369 4416 
L 622 4416 
L 622 4863 
L 1947 4863 
z
" id="DejaVuSans-5d" transform="scale(0.015625)"/>
      </defs>
      <use xlink:href="#DejaVuSans-54"/>
      <use x="57.958984" xlink:href="#DejaVuSans-69"/>
      <use x="85.742188" xlink:href="#DejaVuSans-6d"/>
      <use x="183.154297" xlink:href="#DejaVuSans-65"/>
      <use x="244.677734" xlink:href="#DejaVuSans-20"/>
      <use x="276.464844" xlink:href="#DejaVuSans-5b"/>
      <use x="315.478516" xlink:href="#DejaVuSans-53"/>
      <use x="378.955078" xlink:href="#DejaVuSans-65"/>
      <use x="440.478516" xlink:href="#DejaVuSans-63"/>
      <use x="495.458984" xlink:href="#DejaVuSans-6f"/>
      <use x="556.640625" xlink:href="#DejaVuSans-6e"/>
      <use x="620.019531" xlink:href="#DejaVuSans-64"/>
      <use x="683.496094" xlink:href="#DejaVuSans-73"/>
      <use x="735.595703" xlink:href="#DejaVuSans-5d"/>
     </g>
    </g>
   </g>
   <g id="matplotlib.axis_2">
    <g id="ytick_1">
     <g id="line2d_9">
      <defs>
       <path d="M 0 0 
L -3.5 0 
" id="m68aa178309" style="stroke:#000000;stroke-width:0.8;"/>
      </defs>
      <g>
       <use style="stroke:#000000;stroke-width:0.8;" x="72" xlink:href="#m68aa178309" y="272.247485"/>
      </g>
     </g>
     <g id="text_10">
      <!-- 0.0 -->
      <g transform="translate(42.735625 277.566391)scale(0.14 -0.14)">
       <use xlink:href="#DejaVuSans-30"/>
       <use x="63.623047" xlink:href="#DejaVuSans-2e"/>
       <use x="95.410156" xlink:href="#DejaVuSans-30"/>
      </g>
     </g>
    </g>
    <g id="ytick_2">
     <g id="line2d_10">
      <g>
       <use style="stroke:#000000;stroke-width:0.8;" x="72" xlink:href="#m68aa178309" y="217.282246"/>
      </g>
     </g>
     <g id="text_11">
      <!-- 0.5 -->
      <g transform="translate(42.735625 222.601153)scale(0.14 -0.14)">
       <use xlink:href="#DejaVuSans-30"/>
       <use x="63.623047" xlink:href="#DejaVuSans-2e"/>
       <use x="95.410156" xlink:href="#DejaVuSans-35"/>
      </g>
     </g>
    </g>
    <g id="ytick_3">
     <g id="line2d_11">
      <g>
       <use style="stroke:#000000;stroke-width:0.8;" x="72" xlink:href="#m68aa178309" y="162.317008"/>
      </g>
     </g>
     <g id="text_12">
      <!-- 1.0 -->
      <g transform="translate(42.735625 167.635914)scale(0.14 -0.14)">
       <use xlink:href="#DejaVuSans-31"/>
       <use x="63.623047" xlink:href="#DejaVuSans-2e"/>
       <use x="95.410156" xlink:href="#DejaVuSans-30"/>
      </g>
     </g>
    </g>
    <g id="ytick_4">
     <g id="line2d_12">
      <g>
       <use style="stroke:#000000;stroke-width:0.8;" x="72" xlink:href="#m68aa178309" y="107.351769"/>
      </g>
     </g>
     <g id="text_13">
      <!-- 1.5 -->
      <g transform="translate(42.735625 112.670676)scale(0.14 -0.14)">
       <use xlink:href="#DejaVuSans-31"/>
       <use x="63.623047" xlink:href="#DejaVuSans-2e"/>
       <use x="95.410156" xlink:href="#DejaVuSans-35"/>
      </g>
     </g>
    </g>
    <g id="ytick_5">
     <g id="line2d_13">
      <g>
       <use style="stroke:#000000;stroke-width:0.8;" x="72" xlink:href="#m68aa178309" y="52.386531"/>
      </g>
     </g>
     <g id="text_14">
      <!-- 2.0 -->
      <g transform="translate(42.735625 57.705437)scale(0.14 -0.14)">
       <use xlink:href="#DejaVuSans-32"/>
       <use x="63.623047" xlink:href="#DejaVuSans-2e"/>
       <use x="95.410156" xlink:href="#DejaVuSans-30"/>
      </g>
     </g>
    </g>
    <g id="text_15">
     <!-- Speed [mm/s] -->
     <g transform="translate(35.408125 238.11375)rotate(-90)scale(0.16 -0.16)">
      <defs>
       <path d="M 1159 525 
L 1159 -1331 
L 581 -1331 
L 581 3500 
L 1159 3500 
L 1159 2969 
Q 1341 3281 1617 3432 
Q 1894 3584 2278 3584 
Q 2916 3584 3314 3078 
Q 3713 2572 3713 1747 
Q 3713 922 3314 415 
Q 2916 -91 2278 -91 
Q 1894 -91 1617 61 
Q 1341 213 1159 525 
z
M 3116 1747 
Q 3116 2381 2855 2742 
Q 2594 3103 2138 3103 
Q 1681 3103 1420 2742 
Q 1159 2381 1159 1747 
Q 1159 1113 1420 752 
Q 1681 391 2138 391 
Q 2594 391 2855 752 
Q 3116 1113 3116 1747 
z
" id="DejaVuSans-70" transform="scale(0.015625)"/>
       <path d="M 1625 4666 
L 2156 4666 
L 531 -594 
L 0 -594 
L 1625 4666 
z
" id="DejaVuSans-2f" transform="scale(0.015625)"/>
      </defs>
      <use xlink:href="#DejaVuSans-53"/>
      <use x="63.476562" xlink:href="#DejaVuSans-70"/>
      <use x="126.953125" xlink:href="#DejaVuSans-65"/>
      <use x="188.476562" xlink:href="#DejaVuSans-65"/>
      <use x="250" xlink:href="#DejaVuSans-64"/>
      <use x="313.476562" xlink:href="#DejaVuSans-20"/>
      <use x="345.263672" xlink:href="#DejaVuSans-5b"/>
      <use x="384.277344" xlink:href="#DejaVuSans-6d"/>
      <use x="481.689453" xlink:href="#DejaVuSans-6d"/>
      <use x="579.101562" xlink:href="#DejaVuSans-2f"/>
      <use x="612.792969" xlink:href="#DejaVuSans-73"/>
      <use x="664.892578" xlink:href="#DejaVuSans-5d"/>
     </g>
    </g>
   </g>
   <g id="line2d_14">
    <path clip-path="url(#p55415c8710)" d="M 72 211.7855 
L 518.4 211.7855 
" style="fill:none;stroke:#000000;stroke-dasharray:5.55,2.4;stroke-dashoffset:0;stroke-width:1.5;"/>
   </g>
   <g id="line2d_15">
    <path clip-path="url(#p55415c8710)" d="M 72 270.480114 
L 143.1 270.533349 
L 144 270.297994 
L 144.9 269.480403 
L 145.8 269.005804 
L 146.7 271.685756 
L 147.6 270.404308 
L 148.5 273.21094 
L 149.4 252.877376 
L 150.3 255.397837 
L 151.2 295.485671 
L 152.1 307.8 
L 153 301.797733 
L 153.9 283.10415 
L 154.8 256.203849 
L 156.6 185.477195 
L 158.4 115.723981 
L 159.3 86.064383 
L 160.2 66.773156 
L 161.1 57.663293 
L 162 55.8 
L 162.9 64.753366 
L 163.8 82.69117 
L 164.7 106.500621 
L 167.4 189.452237 
L 168.3 210.826917 
L 169.2 216.958157 
L 170.1 209.545541 
L 171 173.962718 
L 171.9 169.4563 
L 172.8 194.447217 
L 173.7 193.818387 
L 174.6 194.203728 
L 175.5 195.455186 
L 176.4 198.019349 
L 177.3 199.300684 
L 179.1 203.496047 
L 180 203.693548 
L 180.9 202.837472 
L 181.8 204.336686 
L 182.7 205.603059 
L 183.6 204.424373 
L 184.5 205.404684 
L 185.4 205.65411 
L 186.3 205.114738 
L 187.2 206.123633 
L 189 207.067106 
L 189.9 207.292012 
L 190.8 206.799707 
L 191.7 207.182705 
L 192.6 207.76614 
L 193.5 207.735362 
L 194.4 207.924787 
L 195.3 208.366622 
L 196.2 210.105738 
L 197.1 210.331315 
L 198 210.205308 
L 198.9 211.129402 
L 199.8 211.025937 
L 200.7 210.566091 
L 201.6 209.834136 
L 202.5 209.822103 
L 203.4 210.512234 
L 204.3 210.87064 
L 205.2 210.969231 
L 206.1 211.615951 
L 207 211.050217 
L 207.9 209.393654 
L 208.8 209.568541 
L 209.7 210.402961 
L 210.6 211.625394 
L 211.5 211.390781 
L 212.4 210.291651 
L 213.3 211.178468 
L 214.2 211.795489 
L 215.1 211.425892 
L 216 210.408251 
L 216.9 209.908619 
L 217.8 210.907979 
L 219.6 210.643578 
L 220.5 212.112294 
L 221.4 212.801263 
L 224.1 213.15685 
L 225 212.253731 
L 225.9 211.828905 
L 226.8 213.0836 
L 227.7 213.710048 
L 229.5 210.356072 
L 231.3 211.615593 
L 232.2 211.968914 
L 233.1 211.22503 
L 234 210.767213 
L 235.8 212.488215 
L 236.7 212.084409 
L 237.6 210.902466 
L 238.5 211.313355 
L 239.4 212.230066 
L 240.3 211.889866 
L 241.2 210.403989 
L 242.1 210.564268 
L 243 212.300021 
L 244.8 213.375349 
L 245.7 213.508774 
L 246.6 211.936318 
L 247.5 212.78921 
L 248.4 214.920012 
L 249.3 213.585211 
L 250.2 212.518455 
L 251.1 213.197969 
L 252 212.939493 
L 252.9 212.467112 
L 253.8 212.472682 
L 254.7 211.946964 
L 255.6 212.419672 
L 256.5 214.116338 
L 257.4 214.273606 
L 258.3 212.046615 
L 259.2 211.163286 
L 260.1 213.089105 
L 261 213.545163 
L 261.9 211.513033 
L 262.8 210.503456 
L 263.7 211.749392 
L 264.6 213.416933 
L 265.5 212.572749 
L 266.4 211.557954 
L 267.3 212.013597 
L 268.2 211.349037 
L 270 212.321009 
L 270.9 210.860133 
L 271.8 211.491763 
L 272.7 212.376358 
L 273.6 212.093957 
L 274.5 211.61641 
L 275.4 211.00057 
L 276.3 210.844245 
L 277.2 212.18899 
L 278.1 212.867471 
L 279 212.113 
L 279.9 212.086451 
L 280.8 212.622224 
L 281.7 212.901537 
L 282.6 212.403594 
L 283.5 212.594513 
L 284.4 213.063882 
L 285.3 212.786693 
L 286.2 213.44514 
L 287.1 213.285858 
L 288 212.821834 
L 288.9 212.908575 
L 289.8 212.635725 
L 290.7 214.493547 
L 291.6 214.770793 
L 292.5 213.379755 
L 293.4 213.055431 
L 295.2 213.104433 
L 296.1 211.68334 
L 297 211.962966 
L 297.9 213.213491 
L 298.8 213.218044 
L 299.7 211.832329 
L 300.6 211.859359 
L 301.5 213.96635 
L 302.4 213.876797 
L 303.3 212.535769 
L 305.1 213.410083 
L 306 212.182969 
L 306.9 211.807869 
L 307.8 212.211202 
L 308.7 211.439023 
L 309.6 210.236504 
L 310.5 210.580842 
L 311.4 210.362802 
L 312.3 211.678801 
L 313.2 212.359077 
L 314.1 212.761403 
L 315 213.498943 
L 315.9 212.219291 
L 316.8 211.87356 
L 317.7 212.691354 
L 318.6 213.920102 
L 319.5 213.638799 
L 320.4 212.398853 
L 321.3 210.876896 
L 322.2 211.417191 
L 323.1 212.984758 
L 324 213.137667 
L 325.8 214.650045 
L 326.7 213.087358 
L 327.6 211.982397 
L 328.5 213.162622 
L 329.4 213.201633 
L 330.3 212.692523 
L 331.2 211.907661 
L 332.1 212.276652 
L 333 211.970523 
L 334.8 210.926111 
L 335.7 211.577179 
L 336.6 212.930798 
L 337.5 211.987193 
L 338.4 211.387695 
L 339.3 212.957906 
L 340.2 214.093179 
L 341.1 213.810456 
L 342 213.800115 
L 342.9 212.91922 
L 343.8 213.627292 
L 344.7 212.967053 
L 345.6 211.719814 
L 346.5 212.908744 
L 347.4 212.840491 
L 348.3 211.631561 
L 349.2 210.961524 
L 350.1 211.783583 
L 351 211.857131 
L 351.9 211.486677 
L 352.8 210.898987 
L 353.7 211.185439 
L 354.6 212.120435 
L 355.5 212.620476 
L 357.3 214.220564 
L 358.2 215.150889 
L 359.1 214.590559 
L 360 213.080744 
L 360.9 213.050242 
L 361.8 213.748913 
L 362.7 213.010728 
L 363.6 213.13219 
L 364.5 214.410572 
L 365.4 215.075258 
L 366.3 213.331874 
L 367.2 211.944275 
L 368.1 211.971151 
L 369 211.200885 
L 369.9 211.53145 
L 370.8 213.087135 
L 371.7 214.10561 
L 372.6 213.321769 
L 373.5 212.333122 
L 375.3 211.285886 
L 376.2 210.143166 
L 377.1 211.488571 
L 378 213.705515 
L 378.9 212.969578 
L 379.8 213.055518 
L 380.7 214.350429 
L 381.6 214.008806 
L 382.5 213.359161 
L 383.4 212.954431 
L 384.3 210.883434 
L 385.2 211.10227 
L 386.1 212.770619 
L 387 213.646942 
L 387.9 213.134199 
L 388.8 211.570449 
L 389.7 210.77942 
L 390.6 210.295136 
L 391.5 210.410123 
L 393.3 213.559816 
L 394.2 213.87262 
L 395.1 214.336292 
L 396 214.453417 
L 396.9 213.726113 
L 397.8 212.130138 
L 398.7 211.741654 
L 399.6 211.682508 
L 400.5 211.011839 
L 401.4 211.876459 
L 402.3 213.341871 
L 403.2 213.551213 
L 404.1 213.143354 
L 405 212.23536 
L 405.9 210.139116 
L 406.8 211.150961 
L 407.7 212.96366 
L 409.5 213.162074 
L 410.4 214.026878 
L 411.3 214.321812 
L 412.2 213.071533 
L 413.1 211.468343 
L 414 211.461119 
L 414.9 212.779866 
L 415.8 212.260883 
L 416.7 212.781451 
L 417.6 214.198369 
L 418.5 214.282131 
L 419.4 213.978613 
L 421.2 211.410935 
L 422.1 210.846183 
L 423 211.212356 
L 424.8 213.501591 
L 425.7 213.719126 
L 426.6 212.546686 
L 427.5 211.133478 
L 428.4 211.727952 
L 429.3 211.361621 
L 430.2 210.739692 
L 431.1 211.63731 
L 432 213.06727 
L 432.9 214.03199 
L 433.8 214.328375 
L 434.7 214.289605 
L 435.6 213.562528 
L 436.5 213.112708 
L 437.4 211.245139 
L 438.3 211.433062 
L 439.2 212.812226 
L 440.1 213.180104 
L 441 213.994168 
L 441.9 213.654463 
L 442.8 211.708377 
L 443.7 210.479007 
L 444.6 210.664076 
L 445.5 210.590296 
L 446.4 211.744893 
L 447.3 213.20959 
L 448.2 213.415813 
L 450 214.383663 
L 450.9 213.533995 
L 451.8 212.965768 
L 452.7 212.023926 
L 453.6 211.507926 
L 454.5 211.841993 
L 455.4 212.73966 
L 456.3 213.799853 
L 458.1 213.409068 
L 459 211.25802 
L 459.9 211.493243 
L 460.8 212.192752 
L 461.7 211.988756 
L 462.6 213.543614 
L 463.5 213.953894 
L 465.3 213.579617 
L 466.2 212.448013 
L 467.1 210.648517 
L 468 210.544297 
L 468.9 209.97797 
L 469.8 210.076203 
L 471.6 214.038811 
L 472.5 214.388189 
L 473.4 214.13462 
L 474.3 214.297042 
L 475.2 212.545755 
L 476.1 211.336039 
L 477 212.142241 
L 477.9 213.100897 
L 478.8 213.663329 
L 479.7 214.019993 
L 480.6 212.23384 
L 481.5 211.528929 
L 482.4 210.284994 
L 483.3 210.357545 
L 484.2 211.529736 
L 485.1 211.471841 
L 486 213.421491 
L 486.9 214.219923 
L 487.8 214.366694 
L 488.7 213.914401 
L 489.6 212.956803 
L 490.5 212.460272 
L 491.4 212.397187 
L 492.3 211.626932 
L 493.2 211.39316 
L 495 213.399055 
L 496.8 210.749901 
L 497.7 211.626627 
L 498.6 211.770709 
L 499.5 211.737792 
L 500.4 212.353249 
L 501.3 214.13256 
L 502.2 214.735593 
L 503.1 214.932708 
L 504 214.198835 
L 504.9 213.043138 
L 505.8 212.142101 
L 506.7 212.333512 
L 507.6 213.47623 
L 509.4 212.262342 
L 511.2 210.847295 
L 512.1 210.308006 
L 513 210.056494 
L 513.9 210.253017 
L 514.8 211.080662 
L 515.7 212.745352 
L 516.6 215.47584 
L 517.5 219.523711 
L 518.4 225.163384 
L 518.4 225.163384 
" style="fill:none;stroke:#ff0000;stroke-linecap:square;stroke-width:2;"/>
   </g>
   <g id="patch_3">
    <path d="M 72 320.4 
L 72 43.2 
" style="fill:none;stroke:#000000;stroke-linecap:square;stroke-linejoin:miter;stroke-width:0.8;"/>
   </g>
   <g id="patch_4">
    <path d="M 518.4 320.4 
L 518.4 43.2 
" style="fill:none;stroke:#000000;stroke-linecap:square;stroke-linejoin:miter;stroke-width:0.8;"/>
   </g>
   <g id="patch_5">
    <path d="M 72 320.4 
L 518.4 320.4 
" style="fill:none;stroke:#000000;stroke-linecap:square;stroke-linejoin:miter;stroke-width:0.8;"/>
   </g>
   <g id="patch_6">
    <path d="M 72 43.2 
L 518.4 43.2 
" style="fill:none;stroke:#000000;stroke-linecap:square;stroke-linejoin:miter;stroke-width:0.8;"/>
   </g>
   <g id="text_16">
    <!-- Front Propogation Speed -->
    <g transform="translate(172.245312 37.2)scale(0.2 -0.2)">
     <defs>
      <path d="M 628 4666 
L 3309 4666 
L 3309 4134 
L 1259 4134 
L 1259 2759 
L 3109 2759 
L 3109 2228 
L 1259 2228 
L 1259 0 
L 628 0 
L 628 4666 
z
" id="DejaVuSans-46" transform="scale(0.015625)"/>
      <path d="M 2631 2963 
Q 2534 3019 2420 3045 
Q 2306 3072 2169 3072 
Q 1681 3072 1420 2755 
Q 1159 2438 1159 1844 
L 1159 0 
L 581 0 
L 581 3500 
L 1159 3500 
L 1159 2956 
Q 1341 3275 1631 3429 
Q 1922 3584 2338 3584 
Q 2397 3584 2469 3576 
Q 2541 3569 2628 3553 
L 2631 2963 
z
" id="DejaVuSans-72" transform="scale(0.015625)"/>
      <path d="M 1172 4494 
L 1172 3500 
L 2356 3500 
L 2356 3053 
L 1172 3053 
L 1172 1153 
Q 1172 725 1289 603 
Q 1406 481 1766 481 
L 2356 481 
L 2356 0 
L 1766 0 
Q 1100 0 847 248 
Q 594 497 594 1153 
L 594 3053 
L 172 3053 
L 172 3500 
L 594 3500 
L 594 4494 
L 1172 4494 
z
" id="DejaVuSans-74" transform="scale(0.015625)"/>
      <path d="M 1259 4147 
L 1259 2394 
L 2053 2394 
Q 2494 2394 2734 2622 
Q 2975 2850 2975 3272 
Q 2975 3691 2734 3919 
Q 2494 4147 2053 4147 
L 1259 4147 
z
M 628 4666 
L 2053 4666 
Q 2838 4666 3239 4311 
Q 3641 3956 3641 3272 
Q 3641 2581 3239 2228 
Q 2838 1875 2053 1875 
L 1259 1875 
L 1259 0 
L 628 0 
L 628 4666 
z
" id="DejaVuSans-50" transform="scale(0.015625)"/>
      <path d="M 2906 1791 
Q 2906 2416 2648 2759 
Q 2391 3103 1925 3103 
Q 1463 3103 1205 2759 
Q 947 2416 947 1791 
Q 947 1169 1205 825 
Q 1463 481 1925 481 
Q 2391 481 2648 825 
Q 2906 1169 2906 1791 
z
M 3481 434 
Q 3481 -459 3084 -895 
Q 2688 -1331 1869 -1331 
Q 1566 -1331 1297 -1286 
Q 1028 -1241 775 -1147 
L 775 -588 
Q 1028 -725 1275 -790 
Q 1522 -856 1778 -856 
Q 2344 -856 2625 -561 
Q 2906 -266 2906 331 
L 2906 616 
Q 2728 306 2450 153 
Q 2172 0 1784 0 
Q 1141 0 747 490 
Q 353 981 353 1791 
Q 353 2603 747 3093 
Q 1141 3584 1784 3584 
Q 2172 3584 2450 3431 
Q 2728 3278 2906 2969 
L 2906 3500 
L 3481 3500 
L 3481 434 
z
" id="DejaVuSans-67" transform="scale(0.015625)"/>
      <path d="M 2194 1759 
Q 1497 1759 1228 1600 
Q 959 1441 959 1056 
Q 959 750 1161 570 
Q 1363 391 1709 391 
Q 2188 391 2477 730 
Q 2766 1069 2766 1631 
L 2766 1759 
L 2194 1759 
z
M 3341 1997 
L 3341 0 
L 2766 0 
L 2766 531 
Q 2569 213 2275 61 
Q 1981 -91 1556 -91 
Q 1019 -91 701 211 
Q 384 513 384 1019 
Q 384 1609 779 1909 
Q 1175 2209 1959 2209 
L 2766 2209 
L 2766 2266 
Q 2766 2663 2505 2880 
Q 2244 3097 1772 3097 
Q 1472 3097 1187 3025 
Q 903 2953 641 2809 
L 641 3341 
Q 956 3463 1253 3523 
Q 1550 3584 1831 3584 
Q 2591 3584 2966 3190 
Q 3341 2797 3341 1997 
z
" id="DejaVuSans-61" transform="scale(0.015625)"/>
     </defs>
     <use xlink:href="#DejaVuSans-46"/>
     <use x="50.269531" xlink:href="#DejaVuSans-72"/>
     <use x="89.132812" xlink:href="#DejaVuSans-6f"/>
     <use x="150.314453" xlink:href="#DejaVuSans-6e"/>
     <use x="213.693359" xlink:href="#DejaVuSans-74"/>
     <use x="252.902344" xlink:href="#DejaVuSans-20"/>
     <use x="284.689453" xlink:href="#DejaVuSans-50"/>
     <use x="343.242188" xlink:href="#DejaVuSans-72"/>
     <use x="382.105469" xlink:href="#DejaVuSans-6f"/>
     <use x="443.287109" xlink:href="#DejaVuSans-70"/>
     <use x="506.763672" xlink:href="#DejaVuSans-6f"/>
     <use x="567.945312" xlink:href="#DejaVuSans-67"/>
     <use x="631.421875" xlink:href="#DejaVuSans-61"/>
     <use x="692.701172" xlink:href="#DejaVuSans-74"/>
     <use x="731.910156" xlink:href="#DejaVuSans-69"/>
     <use x="759.693359" xlink:href="#DejaVuSans-6f"/>
     <use x="820.875" xlink:href="#DejaVuSans-6e"/>
     <use x="884.253906" xlink:href="#DejaVuSans-20"/>
     <use x="916.041016" xlink:href="#DejaVuSans-53"/>
     <use x="979.517578" xlink:href="#DejaVuSans-70"/>
     <use x="1042.994141" xlink:href="#DejaVuSans-65"/>
     <use x="1104.517578" xlink:href="#DejaVuSans-65"/>
     <use x="1166.041016" xlink:href="#DejaVuSans-64"/>
    </g>
   </g>
   <g id="legend_1">
    <g id="patch_7">
     <path d="M 325.967812 111.175687 
L 508.6 111.175687 
Q 511.4 111.175687 511.4 108.375687 
L 511.4 53 
Q 511.4 50.2 508.6 50.2 
L 325.967812 50.2 
Q 323.167812 50.2 323.167812 53 
L 323.167812 108.375687 
Q 323.167812 111.175687 325.967812 111.175687 
z
" style="fill:#ffffff;opacity:0.8;stroke:#cccccc;stroke-linejoin:miter;"/>
    </g>
    <g id="line2d_16">
     <path d="M 328.767812 61.537812 
L 356.767812 61.537812 
" style="fill:none;stroke:#ff0000;stroke-linecap:square;stroke-width:2;"/>
    </g>
    <g id="line2d_17"/>
    <g id="text_17">
     <!-- Front speed -->
     <g transform="translate(367.967812 66.437812)scale(0.14 -0.14)">
      <use xlink:href="#DejaVuSans-46"/>
      <use x="50.269531" xlink:href="#DejaVuSans-72"/>
      <use x="89.132812" xlink:href="#DejaVuSans-6f"/>
      <use x="150.314453" xlink:href="#DejaVuSans-6e"/>
      <use x="213.693359" xlink:href="#DejaVuSans-74"/>
      <use x="252.902344" xlink:href="#DejaVuSans-20"/>
      <use x="284.689453" xlink:href="#DejaVuSans-73"/>
      <use x="336.789062" xlink:href="#DejaVuSans-70"/>
      <use x="400.265625" xlink:href="#DejaVuSans-65"/>
      <use x="461.789062" xlink:href="#DejaVuSans-65"/>
      <use x="523.3125" xlink:href="#DejaVuSans-64"/>
     </g>
    </g>
    <g id="line2d_18">
     <path d="M 328.767812 91.381437 
L 356.767812 91.381437 
" style="fill:none;stroke:#000000;stroke-dasharray:5.55,2.4;stroke-dashoffset:0;stroke-width:1.5;"/>
    </g>
    <g id="line2d_19"/>
    <g id="text_18">
     <!-- Steady state -->
     <g transform="translate(367.967812 86.987187)scale(0.14 -0.14)">
      <defs>
       <path d="M 2059 -325 
Q 1816 -950 1584 -1140 
Q 1353 -1331 966 -1331 
L 506 -1331 
L 506 -850 
L 844 -850 
Q 1081 -850 1212 -737 
Q 1344 -625 1503 -206 
L 1606 56 
L 191 3500 
L 800 3500 
L 1894 763 
L 2988 3500 
L 3597 3500 
L 2059 -325 
z
" id="DejaVuSans-79" transform="scale(0.015625)"/>
      </defs>
      <use xlink:href="#DejaVuSans-53"/>
      <use x="63.476562" xlink:href="#DejaVuSans-74"/>
      <use x="102.685547" xlink:href="#DejaVuSans-65"/>
      <use x="164.208984" xlink:href="#DejaVuSans-61"/>
      <use x="225.488281" xlink:href="#DejaVuSans-64"/>
      <use x="288.964844" xlink:href="#DejaVuSans-79"/>
      <use x="348.144531" xlink:href="#DejaVuSans-20"/>
      <use x="379.931641" xlink:href="#DejaVuSans-73"/>
      <use x="432.03125" xlink:href="#DejaVuSans-74"/>
      <use x="471.240234" xlink:href="#DejaVuSans-61"/>
      <use x="532.519531" xlink:href="#DejaVuSans-74"/>
      <use x="571.728516" xlink:href="#DejaVuSans-65"/>
     </g>
     <!-- speed = 0.55 mm/s -->
     <g transform="translate(367.967812 102.664125)scale(0.14 -0.14)">
      <defs>
       <path d="M 678 2906 
L 4684 2906 
L 4684 2381 
L 678 2381 
L 678 2906 
z
M 678 1631 
L 4684 1631 
L 4684 1100 
L 678 1100 
L 678 1631 
z
" id="DejaVuSans-3d" transform="scale(0.015625)"/>
      </defs>
      <use xlink:href="#DejaVuSans-73"/>
      <use x="52.099609" xlink:href="#DejaVuSans-70"/>
      <use x="115.576172" xlink:href="#DejaVuSans-65"/>
      <use x="177.099609" xlink:href="#DejaVuSans-65"/>
      <use x="238.623047" xlink:href="#DejaVuSans-64"/>
      <use x="302.099609" xlink:href="#DejaVuSans-20"/>
      <use x="333.886719" xlink:href="#DejaVuSans-3d"/>
      <use x="417.675781" xlink:href="#DejaVuSans-20"/>
      <use x="449.462891" xlink:href="#DejaVuSans-30"/>
      <use x="513.085938" xlink:href="#DejaVuSans-2e"/>
      <use x="544.873047" xlink:href="#DejaVuSans-35"/>
      <use x="608.496094" xlink:href="#DejaVuSans-35"/>
      <use x="672.119141" xlink:href="#DejaVuSans-20"/>
      <use x="703.90625" xlink:href="#DejaVuSans-6d"/>
      <use x="801.318359" xlink:href="#DejaVuSans-6d"/>
      <use x="898.730469" xlink:href="#DejaVuSans-2f"/>
      <use x="932.421875" xlink:href="#DejaVuSans-73"/>
     </g>
    </g>
   </g>
  </g>
 </g>
 <defs>
  <clipPath id="p55415c8710">
   <rect height="277.2" width="446.4" x="72" y="43.2"/>
  </clipPath>
 </defs>
</svg>
