<?xml version="1.0" encoding="utf-8" standalone="no"?>
<!DOCTYPE svg PUBLIC "-//W3C//DTD SVG 1.1//EN"
  "http://www.w3.org/Graphics/SVG/1.1/DTD/svg11.dtd">
<svg height="360pt" version="1.1" viewBox="0 0 576 360" width="576pt" xmlns="http://www.w3.org/2000/svg" xmlns:xlink="http://www.w3.org/1999/xlink">
 <metadata>
  <rdf:RDF xmlns:cc="http://creativecommons.org/ns#" xmlns:dc="http://purl.org/dc/elements/1.1/" xmlns:rdf="http://www.w3.org/1999/02/22-rdf-syntax-ns#">
   <cc:Work>
    <dc:type rdf:resource="http://purl.org/dc/dcmitype/StillImage"/>
    <dc:date>2022-06-30T14:42:48.074617</dc:date>
    <dc:format>image/svg+xml</dc:format>
    <dc:creator>
     <cc:Agent>
      <dc:title>Matplotlib v3.4.3, https://matplotlib.org/</dc:title>
     </cc:Agent>
    </dc:creator>
   </cc:Work>
  </rdf:RDF>
 </metadata>
 <defs>
  <style type="text/css">*{stroke-linecap:butt;stroke-linejoin:round;}</style>
 </defs>
 <g id="figure_1">
  <g id="patch_1">
   <path d="M 0 360 
L 576 360 
L 576 0 
L 0 0 
z
" style="fill:#ffffff;"/>
  </g>
  <g id="axes_1">
   <g id="patch_2">
    <path d="M 72 320.4 
L 518.4 320.4 
L 518.4 43.2 
L 72 43.2 
z
" style="fill:#ffffff;"/>
   </g>
   <g id="PolyCollection_1">
    <defs>
     <path d="M 72 -153.310071 
L 72 -159.323819 
L 72.757895 -159.323819 
L 73.515789 -159.323819 
L 74.273684 -159.323819 
L 75.031579 -159.323819 
L 75.789474 -159.323819 
L 76.547368 -159.323819 
L 77.305263 -159.323819 
L 78.063158 -159.323819 
L 78.821053 -159.323819 
L 79.578947 -159.323819 
L 80.336842 -159.323819 
L 81.094737 -159.323819 
L 81.852632 -159.323819 
L 82.610526 -159.323819 
L 83.368421 -159.323819 
L 84.126316 -159.323819 
L 84.884211 -159.323819 
L 85.642105 -159.323819 
L 86.4 -159.323819 
L 87.157895 -159.323819 
L 87.915789 -159.323819 
L 88.673684 -159.323819 
L 89.431579 -159.323819 
L 90.189474 -159.323819 
L 90.947368 -159.323819 
L 91.705263 -159.323819 
L 92.463158 -159.323819 
L 93.221053 -159.323819 
L 93.978947 -159.323819 
L 94.736842 -159.323819 
L 95.494737 -159.323819 
L 96.252632 -159.323819 
L 97.010526 -159.323819 
L 97.768421 -159.323819 
L 98.526316 -159.323819 
L 99.284211 -159.323819 
L 100.042105 -159.323819 
L 100.8 -159.323819 
L 101.557895 -159.323819 
L 102.315789 -159.323819 
L 103.073684 -159.323819 
L 103.831579 -159.323819 
L 104.589474 -159.323819 
L 105.347368 -159.323819 
L 106.105263 -159.323819 
L 106.863158 -159.323819 
L 107.621053 -159.323819 
L 108.378947 -159.323819 
L 109.136842 -159.323819 
L 109.894737 -159.323819 
L 110.652632 -159.323819 
L 111.410526 -159.323819 
L 112.168421 -159.323819 
L 112.926316 -159.323819 
L 113.684211 -159.323819 
L 114.442105 -159.323819 
L 115.2 -159.323819 
L 115.957895 -159.323819 
L 116.715789 -159.323819 
L 117.473684 -159.323819 
L 118.231579 -159.323819 
L 118.989474 -159.323819 
L 119.747368 -159.323819 
L 120.505263 -159.323819 
L 121.263158 -159.323819 
L 122.021053 -159.323819 
L 122.778947 -159.323819 
L 123.536842 -159.323819 
L 124.294737 -159.323819 
L 125.052632 -159.323819 
L 125.810526 -159.323819 
L 126.568421 -159.323819 
L 127.326316 -159.323819 
L 128.084211 -159.323819 
L 128.842105 -159.323819 
L 129.6 -159.323819 
L 130.357895 -159.323819 
L 131.115789 -159.323819 
L 131.873684 -159.323819 
L 132.631579 -159.323819 
L 133.389474 -159.323819 
L 134.147368 -159.323819 
L 134.905263 -159.323819 
L 135.663158 -159.323819 
L 136.421053 -159.323819 
L 137.178947 -159.323819 
L 137.936842 -159.323819 
L 138.694737 -159.323819 
L 139.452632 -159.323819 
L 140.210526 -159.323819 
L 140.968421 -159.323819 
L 141.726316 -159.323819 
L 142.484211 -159.323819 
L 143.242105 -159.323819 
L 144 -159.323819 
L 144.757895 -159.323819 
L 145.515789 -159.323819 
L 146.273684 -159.323819 
L 147.031579 -159.323819 
L 147.789474 -159.323819 
L 148.547368 -159.323819 
L 149.305263 -159.323819 
L 150.063158 -159.323819 
L 150.821053 -159.323819 
L 151.578947 -159.323819 
L 152.336842 -159.323819 
L 153.094737 -159.323819 
L 153.852632 -159.323819 
L 154.610526 -159.323819 
L 155.368421 -159.323819 
L 156.126316 -159.323819 
L 156.884211 -159.323819 
L 157.642105 -159.323819 
L 158.4 -159.323819 
L 159.157895 -159.323819 
L 159.915789 -159.323819 
L 160.673684 -159.323819 
L 161.431579 -159.323819 
L 162.189474 -159.323819 
L 162.947368 -159.323819 
L 163.705263 -159.323819 
L 164.463158 -159.323819 
L 165.221053 -159.323819 
L 165.978947 -159.323819 
L 166.736842 -159.323819 
L 167.494737 -159.323819 
L 168.252632 -159.323819 
L 169.010526 -159.323819 
L 169.768421 -159.323819 
L 170.526316 -159.323819 
L 171.284211 -159.323819 
L 172.042105 -159.323819 
L 172.8 -159.323819 
L 173.557895 -159.323819 
L 174.315789 -159.323819 
L 175.073684 -159.323819 
L 175.831579 -159.323819 
L 176.589474 -159.323819 
L 177.347368 -159.323819 
L 178.105263 -159.323819 
L 178.863158 -159.323819 
L 179.621053 -159.323819 
L 180.378947 -159.323819 
L 181.136842 -159.323819 
L 181.894737 -159.323819 
L 182.652632 -159.323819 
L 183.410526 -159.323819 
L 184.168421 -159.323819 
L 184.926316 -159.323819 
L 185.684211 -159.323819 
L 186.442105 -159.323819 
L 187.2 -159.323819 
L 187.957895 -159.323819 
L 188.715789 -159.323819 
L 189.473684 -159.323819 
L 190.231579 -159.323819 
L 190.989474 -159.323819 
L 191.747368 -159.323819 
L 192.505263 -159.323819 
L 193.263158 -159.323819 
L 194.021053 -159.323819 
L 194.778947 -159.323819 
L 195.536842 -159.323819 
L 196.294737 -159.323819 
L 197.052632 -159.323819 
L 197.810526 -159.323819 
L 198.568421 -159.323819 
L 199.326316 -159.323819 
L 200.084211 -159.323819 
L 200.842105 -159.323819 
L 201.6 -159.323819 
L 202.357895 -159.323819 
L 203.115789 -159.323819 
L 203.873684 -159.323819 
L 204.631579 -159.323819 
L 205.389474 -159.323819 
L 206.147368 -159.323819 
L 206.905263 -159.323819 
L 207.663158 -159.323819 
L 208.421053 -159.323819 
L 209.178947 -159.323819 
L 209.936842 -159.323819 
L 210.694737 -159.323819 
L 211.452632 -159.323819 
L 212.210526 -159.323819 
L 212.968421 -159.323819 
L 213.726316 -159.323819 
L 214.484211 -159.323819 
L 215.242105 -159.323819 
L 216 -159.323819 
L 216.757895 -159.323819 
L 217.515789 -159.323819 
L 218.273684 -159.323819 
L 219.031579 -159.323819 
L 219.789474 -159.323819 
L 220.547368 -159.323819 
L 221.305263 -159.323819 
L 222.063158 -159.323819 
L 222.821053 -159.323819 
L 223.578947 -159.323819 
L 224.336842 -159.323819 
L 225.094737 -159.323819 
L 225.852632 -159.323819 
L 226.610526 -159.323819 
L 227.368421 -159.323819 
L 228.126316 -159.323819 
L 228.884211 -159.323819 
L 229.642105 -159.323819 
L 230.4 -159.323819 
L 231.157895 -159.323819 
L 231.915789 -159.323819 
L 232.673684 -159.323819 
L 233.431579 -159.323819 
L 234.189474 -159.323819 
L 234.947368 -159.323819 
L 235.705263 -159.323819 
L 236.463158 -159.323819 
L 237.221053 -159.323819 
L 237.978947 -159.323819 
L 238.736842 -159.323819 
L 239.494737 -159.323819 
L 240.252632 -159.323819 
L 241.010526 -159.323819 
L 241.768421 -159.323819 
L 242.526316 -159.323819 
L 243.284211 -159.323819 
L 244.042105 -159.323819 
L 244.8 -159.323819 
L 245.557895 -159.323819 
L 246.315789 -159.323819 
L 247.073684 -159.323819 
L 247.831579 -159.323819 
L 248.589474 -159.323819 
L 249.347368 -159.323819 
L 250.105263 -159.323819 
L 250.863158 -159.323819 
L 251.621053 -159.323819 
L 252.378947 -159.323819 
L 253.136842 -159.323819 
L 253.894737 -159.323819 
L 254.652632 -159.323819 
L 255.410526 -159.323819 
L 256.168421 -159.323819 
L 256.926316 -159.323819 
L 257.684211 -159.323819 
L 258.442105 -159.323819 
L 259.2 -159.323819 
L 259.957895 -159.323819 
L 260.715789 -159.323819 
L 261.473684 -159.323819 
L 262.231579 -159.323819 
L 262.989474 -159.323819 
L 263.747368 -159.323819 
L 264.505263 -159.323819 
L 265.263158 -159.323819 
L 266.021053 -159.323819 
L 266.778947 -159.323819 
L 267.536842 -159.323819 
L 268.294737 -159.323819 
L 269.052632 -159.323819 
L 269.810526 -159.323819 
L 270.568421 -159.323819 
L 271.326316 -159.323819 
L 272.084211 -159.323819 
L 272.842105 -159.323819 
L 273.6 -159.323819 
L 274.357895 -159.323819 
L 275.115789 -159.323819 
L 275.873684 -159.323819 
L 276.631579 -159.323819 
L 277.389474 -159.323819 
L 278.147368 -159.323819 
L 278.905263 -159.323819 
L 279.663158 -159.323819 
L 280.421053 -159.323819 
L 281.178947 -159.323819 
L 281.936842 -159.323819 
L 282.694737 -159.323819 
L 283.452632 -159.323819 
L 284.210526 -159.323819 
L 284.968421 -159.323819 
L 285.726316 -159.323819 
L 286.484211 -159.323819 
L 287.242105 -159.323819 
L 288 -159.323819 
L 288.757895 -159.323819 
L 289.515789 -159.323819 
L 290.273684 -159.323819 
L 291.031579 -159.323819 
L 291.789474 -159.323819 
L 292.547368 -159.323819 
L 293.305263 -159.323819 
L 294.063158 -159.323819 
L 294.821053 -159.323819 
L 295.578947 -159.323819 
L 296.336842 -159.323819 
L 297.094737 -159.323819 
L 297.852632 -159.323819 
L 298.610526 -159.323819 
L 299.368421 -159.323819 
L 300.126316 -159.323819 
L 300.884211 -159.323819 
L 301.642105 -159.323819 
L 302.4 -159.323819 
L 303.157895 -159.323819 
L 303.915789 -159.323819 
L 304.673684 -159.323819 
L 305.431579 -159.323819 
L 306.189474 -159.323819 
L 306.947368 -159.323819 
L 307.705263 -159.323819 
L 308.463158 -159.323819 
L 309.221053 -159.323819 
L 309.978947 -159.323819 
L 310.736842 -159.323819 
L 311.494737 -159.323819 
L 312.252632 -159.323819 
L 313.010526 -159.323819 
L 313.768421 -159.323819 
L 314.526316 -159.323819 
L 315.284211 -159.323819 
L 316.042105 -159.323819 
L 316.8 -159.323819 
L 317.557895 -159.323819 
L 318.315789 -159.323819 
L 319.073684 -159.323819 
L 319.831579 -159.323819 
L 320.589474 -159.323819 
L 321.347368 -159.323819 
L 322.105263 -159.323819 
L 322.863158 -159.323819 
L 323.621053 -159.323819 
L 324.378947 -159.323819 
L 325.136842 -159.323819 
L 325.894737 -159.323819 
L 326.652632 -159.323819 
L 327.410526 -159.323819 
L 328.168421 -159.323819 
L 328.926316 -159.323819 
L 329.684211 -159.323819 
L 330.442105 -159.323819 
L 331.2 -159.323819 
L 331.957895 -159.323819 
L 332.715789 -159.323819 
L 333.473684 -159.323819 
L 334.231579 -159.323819 
L 334.989474 -159.323819 
L 335.747368 -159.323819 
L 336.505263 -159.323819 
L 337.263158 -159.323819 
L 338.021053 -159.323819 
L 338.778947 -159.323819 
L 339.536842 -159.323819 
L 340.294737 -159.323819 
L 341.052632 -159.323819 
L 341.810526 -159.323819 
L 342.568421 -159.323819 
L 343.326316 -159.323819 
L 344.084211 -159.323819 
L 344.842105 -159.323819 
L 345.6 -159.323819 
L 346.357895 -159.323819 
L 347.115789 -159.323819 
L 347.873684 -159.323819 
L 348.631579 -159.323819 
L 349.389474 -159.323819 
L 350.147368 -159.323819 
L 350.905263 -159.323819 
L 351.663158 -159.323819 
L 352.421053 -159.323819 
L 353.178947 -159.323819 
L 353.936842 -159.323819 
L 354.694737 -159.323819 
L 355.452632 -159.323819 
L 356.210526 -159.323819 
L 356.968421 -159.323819 
L 357.726316 -159.323819 
L 358.484211 -159.323819 
L 359.242105 -159.323819 
L 360 -159.323819 
L 360.757895 -159.323819 
L 361.515789 -159.323819 
L 362.273684 -159.323819 
L 363.031579 -159.323819 
L 363.789474 -159.323819 
L 364.547368 -159.323819 
L 365.305263 -159.323819 
L 366.063158 -159.323819 
L 366.821053 -159.323819 
L 367.578947 -159.323819 
L 368.336842 -159.323819 
L 369.094737 -159.323819 
L 369.852632 -159.323819 
L 370.610526 -159.323819 
L 371.368421 -159.323819 
L 372.126316 -159.323819 
L 372.884211 -159.323819 
L 373.642105 -159.323819 
L 374.4 -159.323819 
L 375.157895 -159.323819 
L 375.915789 -159.323819 
L 376.673684 -159.323819 
L 377.431579 -159.323819 
L 378.189474 -159.323819 
L 378.947368 -159.323819 
L 379.705263 -159.323819 
L 380.463158 -159.323819 
L 381.221053 -159.323819 
L 381.978947 -159.323819 
L 382.736842 -159.323819 
L 383.494737 -159.323819 
L 384.252632 -159.323819 
L 385.010526 -159.323819 
L 385.768421 -159.323819 
L 386.526316 -159.323819 
L 387.284211 -159.323819 
L 388.042105 -159.323819 
L 388.8 -159.323819 
L 389.557895 -159.323819 
L 390.315789 -159.323819 
L 391.073684 -159.323819 
L 391.831579 -159.323819 
L 392.589474 -159.323819 
L 393.347368 -159.323819 
L 394.105263 -159.323819 
L 394.863158 -159.323819 
L 395.621053 -159.323819 
L 396.378947 -159.323819 
L 397.136842 -159.323819 
L 397.894737 -159.323819 
L 398.652632 -159.323819 
L 399.410526 -159.323819 
L 400.168421 -159.323819 
L 400.926316 -159.323819 
L 401.684211 -159.323819 
L 402.442105 -159.323819 
L 403.2 -159.323819 
L 403.957895 -159.323819 
L 404.715789 -159.323819 
L 405.473684 -159.323819 
L 406.231579 -159.323819 
L 406.989474 -159.323819 
L 407.747368 -159.323819 
L 408.505263 -159.323819 
L 409.263158 -159.323819 
L 410.021053 -159.323819 
L 410.778947 -159.323819 
L 411.536842 -159.323819 
L 412.294737 -159.323819 
L 413.052632 -159.323819 
L 413.810526 -159.323819 
L 414.568421 -159.323819 
L 415.326316 -159.323819 
L 416.084211 -159.323819 
L 416.842105 -159.323819 
L 417.6 -159.323819 
L 418.357895 -159.323819 
L 419.115789 -159.323819 
L 419.873684 -159.323819 
L 420.631579 -159.323819 
L 421.389474 -159.323819 
L 422.147368 -159.323819 
L 422.905263 -159.323819 
L 423.663158 -159.323819 
L 424.421053 -159.323819 
L 425.178947 -159.323819 
L 425.936842 -159.323819 
L 426.694737 -159.323819 
L 427.452632 -159.323819 
L 428.210526 -159.323819 
L 428.968421 -159.323819 
L 429.726316 -159.323819 
L 430.484211 -159.323819 
L 431.242105 -159.323819 
L 432 -159.323819 
L 432.757895 -159.323819 
L 433.515789 -159.323819 
L 434.273684 -159.323819 
L 435.031579 -159.323819 
L 435.789474 -159.323819 
L 436.547368 -159.323819 
L 437.305263 -159.323819 
L 438.063158 -159.323819 
L 438.821053 -159.323819 
L 439.578947 -159.323819 
L 440.336842 -159.323819 
L 441.094737 -159.323819 
L 441.852632 -159.323819 
L 442.610526 -159.323819 
L 443.368421 -159.323819 
L 444.126316 -159.323819 
L 444.884211 -159.323819 
L 445.642105 -159.323819 
L 446.4 -159.323819 
L 447.157895 -159.323819 
L 447.915789 -159.323819 
L 448.673684 -159.323819 
L 449.431579 -159.323819 
L 450.189474 -159.323819 
L 450.947368 -159.323819 
L 451.705263 -159.323819 
L 452.463158 -159.323819 
L 453.221053 -159.323819 
L 453.978947 -159.323819 
L 454.736842 -159.323819 
L 455.494737 -159.323819 
L 456.252632 -159.323819 
L 457.010526 -159.323819 
L 457.768421 -159.323819 
L 458.526316 -159.323819 
L 459.284211 -159.323819 
L 460.042105 -159.323819 
L 460.8 -159.323819 
L 461.557895 -159.323819 
L 462.315789 -159.323819 
L 463.073684 -159.323819 
L 463.831579 -159.323819 
L 464.589474 -159.323819 
L 465.347368 -159.323819 
L 466.105263 -159.323819 
L 466.863158 -159.323819 
L 467.621053 -159.323819 
L 468.378947 -159.323819 
L 469.136842 -159.323819 
L 469.894737 -159.323819 
L 470.652632 -159.323819 
L 471.410526 -159.323819 
L 472.168421 -159.323819 
L 472.926316 -159.323819 
L 473.684211 -159.323819 
L 474.442105 -159.323819 
L 475.2 -159.323819 
L 475.957895 -159.323819 
L 476.715789 -159.323819 
L 477.473684 -159.323819 
L 478.231579 -159.323819 
L 478.989474 -159.323819 
L 479.747368 -159.323819 
L 480.505263 -159.323819 
L 481.263158 -159.323819 
L 482.021053 -159.323819 
L 482.778947 -159.323819 
L 483.536842 -159.323819 
L 484.294737 -159.323819 
L 485.052632 -159.323819 
L 485.810526 -159.323819 
L 486.568421 -159.323819 
L 487.326316 -159.323819 
L 488.084211 -159.323819 
L 488.842105 -159.323819 
L 489.6 -159.323819 
L 490.357895 -159.323819 
L 491.115789 -159.323819 
L 491.873684 -159.323819 
L 492.631579 -159.323819 
L 493.389474 -159.323819 
L 494.147368 -159.323819 
L 494.905263 -159.323819 
L 495.663158 -159.323819 
L 496.421053 -159.323819 
L 497.178947 -159.323819 
L 497.936842 -159.323819 
L 498.694737 -159.323819 
L 499.452632 -159.323819 
L 500.210526 -159.323819 
L 500.968421 -159.323819 
L 501.726316 -159.323819 
L 502.484211 -159.323819 
L 503.242105 -159.323819 
L 504 -159.323819 
L 504.757895 -159.323819 
L 505.515789 -159.323819 
L 506.273684 -159.323819 
L 507.031579 -159.323819 
L 507.789474 -159.323819 
L 508.547368 -159.323819 
L 509.305263 -159.323819 
L 510.063158 -159.323819 
L 510.821053 -159.323819 
L 511.578947 -159.323819 
L 512.336842 -159.323819 
L 513.094737 -159.323819 
L 513.852632 -159.323819 
L 514.610526 -159.323819 
L 515.368421 -159.323819 
L 516.126316 -159.323819 
L 516.884211 -159.323819 
L 517.642105 -159.323819 
L 518.4 -159.323819 
L 518.4 -153.310071 
L 518.4 -153.310071 
L 517.642105 -153.310071 
L 516.884211 -153.310071 
L 516.126316 -153.310071 
L 515.368421 -153.310071 
L 514.610526 -153.310071 
L 513.852632 -153.310071 
L 513.094737 -153.310071 
L 512.336842 -153.310071 
L 511.578947 -153.310071 
L 510.821053 -153.310071 
L 510.063158 -153.310071 
L 509.305263 -153.310071 
L 508.547368 -153.310071 
L 507.789474 -153.310071 
L 507.031579 -153.310071 
L 506.273684 -153.310071 
L 505.515789 -153.310071 
L 504.757895 -153.310071 
L 504 -153.310071 
L 503.242105 -153.310071 
L 502.484211 -153.310071 
L 501.726316 -153.310071 
L 500.968421 -153.310071 
L 500.210526 -153.310071 
L 499.452632 -153.310071 
L 498.694737 -153.310071 
L 497.936842 -153.310071 
L 497.178947 -153.310071 
L 496.421053 -153.310071 
L 495.663158 -153.310071 
L 494.905263 -153.310071 
L 494.147368 -153.310071 
L 493.389474 -153.310071 
L 492.631579 -153.310071 
L 491.873684 -153.310071 
L 491.115789 -153.310071 
L 490.357895 -153.310071 
L 489.6 -153.310071 
L 488.842105 -153.310071 
L 488.084211 -153.310071 
L 487.326316 -153.310071 
L 486.568421 -153.310071 
L 485.810526 -153.310071 
L 485.052632 -153.310071 
L 484.294737 -153.310071 
L 483.536842 -153.310071 
L 482.778947 -153.310071 
L 482.021053 -153.310071 
L 481.263158 -153.310071 
L 480.505263 -153.310071 
L 479.747368 -153.310071 
L 478.989474 -153.310071 
L 478.231579 -153.310071 
L 477.473684 -153.310071 
L 476.715789 -153.310071 
L 475.957895 -153.310071 
L 475.2 -153.310071 
L 474.442105 -153.310071 
L 473.684211 -153.310071 
L 472.926316 -153.310071 
L 472.168421 -153.310071 
L 471.410526 -153.310071 
L 470.652632 -153.310071 
L 469.894737 -153.310071 
L 469.136842 -153.310071 
L 468.378947 -153.310071 
L 467.621053 -153.310071 
L 466.863158 -153.310071 
L 466.105263 -153.310071 
L 465.347368 -153.310071 
L 464.589474 -153.310071 
L 463.831579 -153.310071 
L 463.073684 -153.310071 
L 462.315789 -153.310071 
L 461.557895 -153.310071 
L 460.8 -153.310071 
L 460.042105 -153.310071 
L 459.284211 -153.310071 
L 458.526316 -153.310071 
L 457.768421 -153.310071 
L 457.010526 -153.310071 
L 456.252632 -153.310071 
L 455.494737 -153.310071 
L 454.736842 -153.310071 
L 453.978947 -153.310071 
L 453.221053 -153.310071 
L 452.463158 -153.310071 
L 451.705263 -153.310071 
L 450.947368 -153.310071 
L 450.189474 -153.310071 
L 449.431579 -153.310071 
L 448.673684 -153.310071 
L 447.915789 -153.310071 
L 447.157895 -153.310071 
L 446.4 -153.310071 
L 445.642105 -153.310071 
L 444.884211 -153.310071 
L 444.126316 -153.310071 
L 443.368421 -153.310071 
L 442.610526 -153.310071 
L 441.852632 -153.310071 
L 441.094737 -153.310071 
L 440.336842 -153.310071 
L 439.578947 -153.310071 
L 438.821053 -153.310071 
L 438.063158 -153.310071 
L 437.305263 -153.310071 
L 436.547368 -153.310071 
L 435.789474 -153.310071 
L 435.031579 -153.310071 
L 434.273684 -153.310071 
L 433.515789 -153.310071 
L 432.757895 -153.310071 
L 432 -153.310071 
L 431.242105 -153.310071 
L 430.484211 -153.310071 
L 429.726316 -153.310071 
L 428.968421 -153.310071 
L 428.210526 -153.310071 
L 427.452632 -153.310071 
L 426.694737 -153.310071 
L 425.936842 -153.310071 
L 425.178947 -153.310071 
L 424.421053 -153.310071 
L 423.663158 -153.310071 
L 422.905263 -153.310071 
L 422.147368 -153.310071 
L 421.389474 -153.310071 
L 420.631579 -153.310071 
L 419.873684 -153.310071 
L 419.115789 -153.310071 
L 418.357895 -153.310071 
L 417.6 -153.310071 
L 416.842105 -153.310071 
L 416.084211 -153.310071 
L 415.326316 -153.310071 
L 414.568421 -153.310071 
L 413.810526 -153.310071 
L 413.052632 -153.310071 
L 412.294737 -153.310071 
L 411.536842 -153.310071 
L 410.778947 -153.310071 
L 410.021053 -153.310071 
L 409.263158 -153.310071 
L 408.505263 -153.310071 
L 407.747368 -153.310071 
L 406.989474 -153.310071 
L 406.231579 -153.310071 
L 405.473684 -153.310071 
L 404.715789 -153.310071 
L 403.957895 -153.310071 
L 403.2 -153.310071 
L 402.442105 -153.310071 
L 401.684211 -153.310071 
L 400.926316 -153.310071 
L 400.168421 -153.310071 
L 399.410526 -153.310071 
L 398.652632 -153.310071 
L 397.894737 -153.310071 
L 397.136842 -153.310071 
L 396.378947 -153.310071 
L 395.621053 -153.310071 
L 394.863158 -153.310071 
L 394.105263 -153.310071 
L 393.347368 -153.310071 
L 392.589474 -153.310071 
L 391.831579 -153.310071 
L 391.073684 -153.310071 
L 390.315789 -153.310071 
L 389.557895 -153.310071 
L 388.8 -153.310071 
L 388.042105 -153.310071 
L 387.284211 -153.310071 
L 386.526316 -153.310071 
L 385.768421 -153.310071 
L 385.010526 -153.310071 
L 384.252632 -153.310071 
L 383.494737 -153.310071 
L 382.736842 -153.310071 
L 381.978947 -153.310071 
L 381.221053 -153.310071 
L 380.463158 -153.310071 
L 379.705263 -153.310071 
L 378.947368 -153.310071 
L 378.189474 -153.310071 
L 377.431579 -153.310071 
L 376.673684 -153.310071 
L 375.915789 -153.310071 
L 375.157895 -153.310071 
L 374.4 -153.310071 
L 373.642105 -153.310071 
L 372.884211 -153.310071 
L 372.126316 -153.310071 
L 371.368421 -153.310071 
L 370.610526 -153.310071 
L 369.852632 -153.310071 
L 369.094737 -153.310071 
L 368.336842 -153.310071 
L 367.578947 -153.310071 
L 366.821053 -153.310071 
L 366.063158 -153.310071 
L 365.305263 -153.310071 
L 364.547368 -153.310071 
L 363.789474 -153.310071 
L 363.031579 -153.310071 
L 362.273684 -153.310071 
L 361.515789 -153.310071 
L 360.757895 -153.310071 
L 360 -153.310071 
L 359.242105 -153.310071 
L 358.484211 -153.310071 
L 357.726316 -153.310071 
L 356.968421 -153.310071 
L 356.210526 -153.310071 
L 355.452632 -153.310071 
L 354.694737 -153.310071 
L 353.936842 -153.310071 
L 353.178947 -153.310071 
L 352.421053 -153.310071 
L 351.663158 -153.310071 
L 350.905263 -153.310071 
L 350.147368 -153.310071 
L 349.389474 -153.310071 
L 348.631579 -153.310071 
L 347.873684 -153.310071 
L 347.115789 -153.310071 
L 346.357895 -153.310071 
L 345.6 -153.310071 
L 344.842105 -153.310071 
L 344.084211 -153.310071 
L 343.326316 -153.310071 
L 342.568421 -153.310071 
L 341.810526 -153.310071 
L 341.052632 -153.310071 
L 340.294737 -153.310071 
L 339.536842 -153.310071 
L 338.778947 -153.310071 
L 338.021053 -153.310071 
L 337.263158 -153.310071 
L 336.505263 -153.310071 
L 335.747368 -153.310071 
L 334.989474 -153.310071 
L 334.231579 -153.310071 
L 333.473684 -153.310071 
L 332.715789 -153.310071 
L 331.957895 -153.310071 
L 331.2 -153.310071 
L 330.442105 -153.310071 
L 329.684211 -153.310071 
L 328.926316 -153.310071 
L 328.168421 -153.310071 
L 327.410526 -153.310071 
L 326.652632 -153.310071 
L 325.894737 -153.310071 
L 325.136842 -153.310071 
L 324.378947 -153.310071 
L 323.621053 -153.310071 
L 322.863158 -153.310071 
L 322.105263 -153.310071 
L 321.347368 -153.310071 
L 320.589474 -153.310071 
L 319.831579 -153.310071 
L 319.073684 -153.310071 
L 318.315789 -153.310071 
L 317.557895 -153.310071 
L 316.8 -153.310071 
L 316.042105 -153.310071 
L 315.284211 -153.310071 
L 314.526316 -153.310071 
L 313.768421 -153.310071 
L 313.010526 -153.310071 
L 312.252632 -153.310071 
L 311.494737 -153.310071 
L 310.736842 -153.310071 
L 309.978947 -153.310071 
L 309.221053 -153.310071 
L 308.463158 -153.310071 
L 307.705263 -153.310071 
L 306.947368 -153.310071 
L 306.189474 -153.310071 
L 305.431579 -153.310071 
L 304.673684 -153.310071 
L 303.915789 -153.310071 
L 303.157895 -153.310071 
L 302.4 -153.310071 
L 301.642105 -153.310071 
L 300.884211 -153.310071 
L 300.126316 -153.310071 
L 299.368421 -153.310071 
L 298.610526 -153.310071 
L 297.852632 -153.310071 
L 297.094737 -153.310071 
L 296.336842 -153.310071 
L 295.578947 -153.310071 
L 294.821053 -153.310071 
L 294.063158 -153.310071 
L 293.305263 -153.310071 
L 292.547368 -153.310071 
L 291.789474 -153.310071 
L 291.031579 -153.310071 
L 290.273684 -153.310071 
L 289.515789 -153.310071 
L 288.757895 -153.310071 
L 288 -153.310071 
L 287.242105 -153.310071 
L 286.484211 -153.310071 
L 285.726316 -153.310071 
L 284.968421 -153.310071 
L 284.210526 -153.310071 
L 283.452632 -153.310071 
L 282.694737 -153.310071 
L 281.936842 -153.310071 
L 281.178947 -153.310071 
L 280.421053 -153.310071 
L 279.663158 -153.310071 
L 278.905263 -153.310071 
L 278.147368 -153.310071 
L 277.389474 -153.310071 
L 276.631579 -153.310071 
L 275.873684 -153.310071 
L 275.115789 -153.310071 
L 274.357895 -153.310071 
L 273.6 -153.310071 
L 272.842105 -153.310071 
L 272.084211 -153.310071 
L 271.326316 -153.310071 
L 270.568421 -153.310071 
L 269.810526 -153.310071 
L 269.052632 -153.310071 
L 268.294737 -153.310071 
L 267.536842 -153.310071 
L 266.778947 -153.310071 
L 266.021053 -153.310071 
L 265.263158 -153.310071 
L 264.505263 -153.310071 
L 263.747368 -153.310071 
L 262.989474 -153.310071 
L 262.231579 -153.310071 
L 261.473684 -153.310071 
L 260.715789 -153.310071 
L 259.957895 -153.310071 
L 259.2 -153.310071 
L 258.442105 -153.310071 
L 257.684211 -153.310071 
L 256.926316 -153.310071 
L 256.168421 -153.310071 
L 255.410526 -153.310071 
L 254.652632 -153.310071 
L 253.894737 -153.310071 
L 253.136842 -153.310071 
L 252.378947 -153.310071 
L 251.621053 -153.310071 
L 250.863158 -153.310071 
L 250.105263 -153.310071 
L 249.347368 -153.310071 
L 248.589474 -153.310071 
L 247.831579 -153.310071 
L 247.073684 -153.310071 
L 246.315789 -153.310071 
L 245.557895 -153.310071 
L 244.8 -153.310071 
L 244.042105 -153.310071 
L 243.284211 -153.310071 
L 242.526316 -153.310071 
L 241.768421 -153.310071 
L 241.010526 -153.310071 
L 240.252632 -153.310071 
L 239.494737 -153.310071 
L 238.736842 -153.310071 
L 237.978947 -153.310071 
L 237.221053 -153.310071 
L 236.463158 -153.310071 
L 235.705263 -153.310071 
L 234.947368 -153.310071 
L 234.189474 -153.310071 
L 233.431579 -153.310071 
L 232.673684 -153.310071 
L 231.915789 -153.310071 
L 231.157895 -153.310071 
L 230.4 -153.310071 
L 229.642105 -153.310071 
L 228.884211 -153.310071 
L 228.126316 -153.310071 
L 227.368421 -153.310071 
L 226.610526 -153.310071 
L 225.852632 -153.310071 
L 225.094737 -153.310071 
L 224.336842 -153.310071 
L 223.578947 -153.310071 
L 222.821053 -153.310071 
L 222.063158 -153.310071 
L 221.305263 -153.310071 
L 220.547368 -153.310071 
L 219.789474 -153.310071 
L 219.031579 -153.310071 
L 218.273684 -153.310071 
L 217.515789 -153.310071 
L 216.757895 -153.310071 
L 216 -153.310071 
L 215.242105 -153.310071 
L 214.484211 -153.310071 
L 213.726316 -153.310071 
L 212.968421 -153.310071 
L 212.210526 -153.310071 
L 211.452632 -153.310071 
L 210.694737 -153.310071 
L 209.936842 -153.310071 
L 209.178947 -153.310071 
L 208.421053 -153.310071 
L 207.663158 -153.310071 
L 206.905263 -153.310071 
L 206.147368 -153.310071 
L 205.389474 -153.310071 
L 204.631579 -153.310071 
L 203.873684 -153.310071 
L 203.115789 -153.310071 
L 202.357895 -153.310071 
L 201.6 -153.310071 
L 200.842105 -153.310071 
L 200.084211 -153.310071 
L 199.326316 -153.310071 
L 198.568421 -153.310071 
L 197.810526 -153.310071 
L 197.052632 -153.310071 
L 196.294737 -153.310071 
L 195.536842 -153.310071 
L 194.778947 -153.310071 
L 194.021053 -153.310071 
L 193.263158 -153.310071 
L 192.505263 -153.310071 
L 191.747368 -153.310071 
L 190.989474 -153.310071 
L 190.231579 -153.310071 
L 189.473684 -153.310071 
L 188.715789 -153.310071 
L 187.957895 -153.310071 
L 187.2 -153.310071 
L 186.442105 -153.310071 
L 185.684211 -153.310071 
L 184.926316 -153.310071 
L 184.168421 -153.310071 
L 183.410526 -153.310071 
L 182.652632 -153.310071 
L 181.894737 -153.310071 
L 181.136842 -153.310071 
L 180.378947 -153.310071 
L 179.621053 -153.310071 
L 178.863158 -153.310071 
L 178.105263 -153.310071 
L 177.347368 -153.310071 
L 176.589474 -153.310071 
L 175.831579 -153.310071 
L 175.073684 -153.310071 
L 174.315789 -153.310071 
L 173.557895 -153.310071 
L 172.8 -153.310071 
L 172.042105 -153.310071 
L 171.284211 -153.310071 
L 170.526316 -153.310071 
L 169.768421 -153.310071 
L 169.010526 -153.310071 
L 168.252632 -153.310071 
L 167.494737 -153.310071 
L 166.736842 -153.310071 
L 165.978947 -153.310071 
L 165.221053 -153.310071 
L 164.463158 -153.310071 
L 163.705263 -153.310071 
L 162.947368 -153.310071 
L 162.189474 -153.310071 
L 161.431579 -153.310071 
L 160.673684 -153.310071 
L 159.915789 -153.310071 
L 159.157895 -153.310071 
L 158.4 -153.310071 
L 157.642105 -153.310071 
L 156.884211 -153.310071 
L 156.126316 -153.310071 
L 155.368421 -153.310071 
L 154.610526 -153.310071 
L 153.852632 -153.310071 
L 153.094737 -153.310071 
L 152.336842 -153.310071 
L 151.578947 -153.310071 
L 150.821053 -153.310071 
L 150.063158 -153.310071 
L 149.305263 -153.310071 
L 148.547368 -153.310071 
L 147.789474 -153.310071 
L 147.031579 -153.310071 
L 146.273684 -153.310071 
L 145.515789 -153.310071 
L 144.757895 -153.310071 
L 144 -153.310071 
L 143.242105 -153.310071 
L 142.484211 -153.310071 
L 141.726316 -153.310071 
L 140.968421 -153.310071 
L 140.210526 -153.310071 
L 139.452632 -153.310071 
L 138.694737 -153.310071 
L 137.936842 -153.310071 
L 137.178947 -153.310071 
L 136.421053 -153.310071 
L 135.663158 -153.310071 
L 134.905263 -153.310071 
L 134.147368 -153.310071 
L 133.389474 -153.310071 
L 132.631579 -153.310071 
L 131.873684 -153.310071 
L 131.115789 -153.310071 
L 130.357895 -153.310071 
L 129.6 -153.310071 
L 128.842105 -153.310071 
L 128.084211 -153.310071 
L 127.326316 -153.310071 
L 126.568421 -153.310071 
L 125.810526 -153.310071 
L 125.052632 -153.310071 
L 124.294737 -153.310071 
L 123.536842 -153.310071 
L 122.778947 -153.310071 
L 122.021053 -153.310071 
L 121.263158 -153.310071 
L 120.505263 -153.310071 
L 119.747368 -153.310071 
L 118.989474 -153.310071 
L 118.231579 -153.310071 
L 117.473684 -153.310071 
L 116.715789 -153.310071 
L 115.957895 -153.310071 
L 115.2 -153.310071 
L 114.442105 -153.310071 
L 113.684211 -153.310071 
L 112.926316 -153.310071 
L 112.168421 -153.310071 
L 111.410526 -153.310071 
L 110.652632 -153.310071 
L 109.894737 -153.310071 
L 109.136842 -153.310071 
L 108.378947 -153.310071 
L 107.621053 -153.310071 
L 106.863158 -153.310071 
L 106.105263 -153.310071 
L 105.347368 -153.310071 
L 104.589474 -153.310071 
L 103.831579 -153.310071 
L 103.073684 -153.310071 
L 102.315789 -153.310071 
L 101.557895 -153.310071 
L 100.8 -153.310071 
L 100.042105 -153.310071 
L 99.284211 -153.310071 
L 98.526316 -153.310071 
L 97.768421 -153.310071 
L 97.010526 -153.310071 
L 96.252632 -153.310071 
L 95.494737 -153.310071 
L 94.736842 -153.310071 
L 93.978947 -153.310071 
L 93.221053 -153.310071 
L 92.463158 -153.310071 
L 91.705263 -153.310071 
L 90.947368 -153.310071 
L 90.189474 -153.310071 
L 89.431579 -153.310071 
L 88.673684 -153.310071 
L 87.915789 -153.310071 
L 87.157895 -153.310071 
L 86.4 -153.310071 
L 85.642105 -153.310071 
L 84.884211 -153.310071 
L 84.126316 -153.310071 
L 83.368421 -153.310071 
L 82.610526 -153.310071 
L 81.852632 -153.310071 
L 81.094737 -153.310071 
L 80.336842 -153.310071 
L 79.578947 -153.310071 
L 78.821053 -153.310071 
L 78.063158 -153.310071 
L 77.305263 -153.310071 
L 76.547368 -153.310071 
L 75.789474 -153.310071 
L 75.031579 -153.310071 
L 74.273684 -153.310071 
L 73.515789 -153.310071 
L 72.757895 -153.310071 
L 72 -153.310071 
z
" id="m747f524f06"/>
    </defs>
    <g clip-path="url(#p72fd9f3401)">
     <use style="fill-opacity:0.15;" x="0" xlink:href="#m747f524f06" y="360"/>
    </g>
   </g>
   <g id="matplotlib.axis_1">
    <g id="xtick_1">
     <g id="line2d_1">
      <defs>
       <path d="M 0 0 
L 0 3.5 
" id="m7f4316a212" style="stroke:#000000;stroke-width:0.8;"/>
      </defs>
      <g>
       <use style="stroke:#000000;stroke-width:0.8;" x="72" xlink:href="#m7f4316a212" y="320.4"/>
      </g>
     </g>
     <g id="text_1">
      <!-- 0.0 -->
      <g transform="translate(60.867812 338.037813)scale(0.14 -0.14)">
       <defs>
        <path d="M 2034 4250 
Q 1547 4250 1301 3770 
Q 1056 3291 1056 2328 
Q 1056 1369 1301 889 
Q 1547 409 2034 409 
Q 2525 409 2770 889 
Q 3016 1369 3016 2328 
Q 3016 3291 2770 3770 
Q 2525 4250 2034 4250 
z
M 2034 4750 
Q 2819 4750 3233 4129 
Q 3647 3509 3647 2328 
Q 3647 1150 3233 529 
Q 2819 -91 2034 -91 
Q 1250 -91 836 529 
Q 422 1150 422 2328 
Q 422 3509 836 4129 
Q 1250 4750 2034 4750 
z
" id="DejaVuSans-30" transform="scale(0.015625)"/>
        <path d="M 684 794 
L 1344 794 
L 1344 0 
L 684 0 
L 684 794 
z
" id="DejaVuSans-2e" transform="scale(0.015625)"/>
       </defs>
       <use xlink:href="#DejaVuSans-30"/>
       <use x="63.623047" xlink:href="#DejaVuSans-2e"/>
       <use x="95.410156" xlink:href="#DejaVuSans-30"/>
      </g>
     </g>
    </g>
    <g id="xtick_2">
     <g id="line2d_2">
      <g>
       <use style="stroke:#000000;stroke-width:0.8;" x="127.86704" xlink:href="#m7f4316a212" y="320.4"/>
      </g>
     </g>
     <g id="text_2">
      <!-- 2.5 -->
      <g transform="translate(116.734853 338.037813)scale(0.14 -0.14)">
       <defs>
        <path d="M 1228 531 
L 3431 531 
L 3431 0 
L 469 0 
L 469 531 
Q 828 903 1448 1529 
Q 2069 2156 2228 2338 
Q 2531 2678 2651 2914 
Q 2772 3150 2772 3378 
Q 2772 3750 2511 3984 
Q 2250 4219 1831 4219 
Q 1534 4219 1204 4116 
Q 875 4013 500 3803 
L 500 4441 
Q 881 4594 1212 4672 
Q 1544 4750 1819 4750 
Q 2544 4750 2975 4387 
Q 3406 4025 3406 3419 
Q 3406 3131 3298 2873 
Q 3191 2616 2906 2266 
Q 2828 2175 2409 1742 
Q 1991 1309 1228 531 
z
" id="DejaVuSans-32" transform="scale(0.015625)"/>
        <path d="M 691 4666 
L 3169 4666 
L 3169 4134 
L 1269 4134 
L 1269 2991 
Q 1406 3038 1543 3061 
Q 1681 3084 1819 3084 
Q 2600 3084 3056 2656 
Q 3513 2228 3513 1497 
Q 3513 744 3044 326 
Q 2575 -91 1722 -91 
Q 1428 -91 1123 -41 
Q 819 9 494 109 
L 494 744 
Q 775 591 1075 516 
Q 1375 441 1709 441 
Q 2250 441 2565 725 
Q 2881 1009 2881 1497 
Q 2881 1984 2565 2268 
Q 2250 2553 1709 2553 
Q 1456 2553 1204 2497 
Q 953 2441 691 2322 
L 691 4666 
z
" id="DejaVuSans-35" transform="scale(0.015625)"/>
       </defs>
       <use xlink:href="#DejaVuSans-32"/>
       <use x="63.623047" xlink:href="#DejaVuSans-2e"/>
       <use x="95.410156" xlink:href="#DejaVuSans-35"/>
      </g>
     </g>
    </g>
    <g id="xtick_3">
     <g id="line2d_3">
      <g>
       <use style="stroke:#000000;stroke-width:0.8;" x="183.734081" xlink:href="#m7f4316a212" y="320.4"/>
      </g>
     </g>
     <g id="text_3">
      <!-- 5.0 -->
      <g transform="translate(172.601893 338.037813)scale(0.14 -0.14)">
       <use xlink:href="#DejaVuSans-35"/>
       <use x="63.623047" xlink:href="#DejaVuSans-2e"/>
       <use x="95.410156" xlink:href="#DejaVuSans-30"/>
      </g>
     </g>
    </g>
    <g id="xtick_4">
     <g id="line2d_4">
      <g>
       <use style="stroke:#000000;stroke-width:0.8;" x="239.601121" xlink:href="#m7f4316a212" y="320.4"/>
      </g>
     </g>
     <g id="text_4">
      <!-- 7.5 -->
      <g transform="translate(228.468934 338.037813)scale(0.14 -0.14)">
       <defs>
        <path d="M 525 4666 
L 3525 4666 
L 3525 4397 
L 1831 0 
L 1172 0 
L 2766 4134 
L 525 4134 
L 525 4666 
z
" id="DejaVuSans-37" transform="scale(0.015625)"/>
       </defs>
       <use xlink:href="#DejaVuSans-37"/>
       <use x="63.623047" xlink:href="#DejaVuSans-2e"/>
       <use x="95.410156" xlink:href="#DejaVuSans-35"/>
      </g>
     </g>
    </g>
    <g id="xtick_5">
     <g id="line2d_5">
      <g>
       <use style="stroke:#000000;stroke-width:0.8;" x="295.468162" xlink:href="#m7f4316a212" y="320.4"/>
      </g>
     </g>
     <g id="text_5">
      <!-- 10.0 -->
      <g transform="translate(279.882224 338.037813)scale(0.14 -0.14)">
       <defs>
        <path d="M 794 531 
L 1825 531 
L 1825 4091 
L 703 3866 
L 703 4441 
L 1819 4666 
L 2450 4666 
L 2450 531 
L 3481 531 
L 3481 0 
L 794 0 
L 794 531 
z
" id="DejaVuSans-31" transform="scale(0.015625)"/>
       </defs>
       <use xlink:href="#DejaVuSans-31"/>
       <use x="63.623047" xlink:href="#DejaVuSans-30"/>
       <use x="127.246094" xlink:href="#DejaVuSans-2e"/>
       <use x="159.033203" xlink:href="#DejaVuSans-30"/>
      </g>
     </g>
    </g>
    <g id="xtick_6">
     <g id="line2d_6">
      <g>
       <use style="stroke:#000000;stroke-width:0.8;" x="351.335202" xlink:href="#m7f4316a212" y="320.4"/>
      </g>
     </g>
     <g id="text_6">
      <!-- 12.5 -->
      <g transform="translate(335.749265 338.037813)scale(0.14 -0.14)">
       <use xlink:href="#DejaVuSans-31"/>
       <use x="63.623047" xlink:href="#DejaVuSans-32"/>
       <use x="127.246094" xlink:href="#DejaVuSans-2e"/>
       <use x="159.033203" xlink:href="#DejaVuSans-35"/>
      </g>
     </g>
    </g>
    <g id="xtick_7">
     <g id="line2d_7">
      <g>
       <use style="stroke:#000000;stroke-width:0.8;" x="407.202243" xlink:href="#m7f4316a212" y="320.4"/>
      </g>
     </g>
     <g id="text_7">
      <!-- 15.0 -->
      <g transform="translate(391.616305 338.037813)scale(0.14 -0.14)">
       <use xlink:href="#DejaVuSans-31"/>
       <use x="63.623047" xlink:href="#DejaVuSans-35"/>
       <use x="127.246094" xlink:href="#DejaVuSans-2e"/>
       <use x="159.033203" xlink:href="#DejaVuSans-30"/>
      </g>
     </g>
    </g>
    <g id="xtick_8">
     <g id="line2d_8">
      <g>
       <use style="stroke:#000000;stroke-width:0.8;" x="463.069283" xlink:href="#m7f4316a212" y="320.4"/>
      </g>
     </g>
     <g id="text_8">
      <!-- 17.5 -->
      <g transform="translate(447.483346 338.037813)scale(0.14 -0.14)">
       <use xlink:href="#DejaVuSans-31"/>
       <use x="63.623047" xlink:href="#DejaVuSans-37"/>
       <use x="127.246094" xlink:href="#DejaVuSans-2e"/>
       <use x="159.033203" xlink:href="#DejaVuSans-35"/>
      </g>
     </g>
    </g>
    <g id="text_9">
     <!-- Time [Seconds] -->
     <g transform="translate(233.23 357.106875)scale(0.16 -0.16)">
      <defs>
       <path d="M -19 4666 
L 3928 4666 
L 3928 4134 
L 2272 4134 
L 2272 0 
L 1638 0 
L 1638 4134 
L -19 4134 
L -19 4666 
z
" id="DejaVuSans-54" transform="scale(0.015625)"/>
       <path d="M 603 3500 
L 1178 3500 
L 1178 0 
L 603 0 
L 603 3500 
z
M 603 4863 
L 1178 4863 
L 1178 4134 
L 603 4134 
L 603 4863 
z
" id="DejaVuSans-69" transform="scale(0.015625)"/>
       <path d="M 3328 2828 
Q 3544 3216 3844 3400 
Q 4144 3584 4550 3584 
Q 5097 3584 5394 3201 
Q 5691 2819 5691 2113 
L 5691 0 
L 5113 0 
L 5113 2094 
Q 5113 2597 4934 2840 
Q 4756 3084 4391 3084 
Q 3944 3084 3684 2787 
Q 3425 2491 3425 1978 
L 3425 0 
L 2847 0 
L 2847 2094 
Q 2847 2600 2669 2842 
Q 2491 3084 2119 3084 
Q 1678 3084 1418 2786 
Q 1159 2488 1159 1978 
L 1159 0 
L 581 0 
L 581 3500 
L 1159 3500 
L 1159 2956 
Q 1356 3278 1631 3431 
Q 1906 3584 2284 3584 
Q 2666 3584 2933 3390 
Q 3200 3197 3328 2828 
z
" id="DejaVuSans-6d" transform="scale(0.015625)"/>
       <path d="M 3597 1894 
L 3597 1613 
L 953 1613 
Q 991 1019 1311 708 
Q 1631 397 2203 397 
Q 2534 397 2845 478 
Q 3156 559 3463 722 
L 3463 178 
Q 3153 47 2828 -22 
Q 2503 -91 2169 -91 
Q 1331 -91 842 396 
Q 353 884 353 1716 
Q 353 2575 817 3079 
Q 1281 3584 2069 3584 
Q 2775 3584 3186 3129 
Q 3597 2675 3597 1894 
z
M 3022 2063 
Q 3016 2534 2758 2815 
Q 2500 3097 2075 3097 
Q 1594 3097 1305 2825 
Q 1016 2553 972 2059 
L 3022 2063 
z
" id="DejaVuSans-65" transform="scale(0.015625)"/>
       <path id="DejaVuSans-20" transform="scale(0.015625)"/>
       <path d="M 550 4863 
L 1875 4863 
L 1875 4416 
L 1125 4416 
L 1125 -397 
L 1875 -397 
L 1875 -844 
L 550 -844 
L 550 4863 
z
" id="DejaVuSans-5b" transform="scale(0.015625)"/>
       <path d="M 3425 4513 
L 3425 3897 
Q 3066 4069 2747 4153 
Q 2428 4238 2131 4238 
Q 1616 4238 1336 4038 
Q 1056 3838 1056 3469 
Q 1056 3159 1242 3001 
Q 1428 2844 1947 2747 
L 2328 2669 
Q 3034 2534 3370 2195 
Q 3706 1856 3706 1288 
Q 3706 609 3251 259 
Q 2797 -91 1919 -91 
Q 1588 -91 1214 -16 
Q 841 59 441 206 
L 441 856 
Q 825 641 1194 531 
Q 1563 422 1919 422 
Q 2459 422 2753 634 
Q 3047 847 3047 1241 
Q 3047 1584 2836 1778 
Q 2625 1972 2144 2069 
L 1759 2144 
Q 1053 2284 737 2584 
Q 422 2884 422 3419 
Q 422 4038 858 4394 
Q 1294 4750 2059 4750 
Q 2388 4750 2728 4690 
Q 3069 4631 3425 4513 
z
" id="DejaVuSans-53" transform="scale(0.015625)"/>
       <path d="M 3122 3366 
L 3122 2828 
Q 2878 2963 2633 3030 
Q 2388 3097 2138 3097 
Q 1578 3097 1268 2742 
Q 959 2388 959 1747 
Q 959 1106 1268 751 
Q 1578 397 2138 397 
Q 2388 397 2633 464 
Q 2878 531 3122 666 
L 3122 134 
Q 2881 22 2623 -34 
Q 2366 -91 2075 -91 
Q 1284 -91 818 406 
Q 353 903 353 1747 
Q 353 2603 823 3093 
Q 1294 3584 2113 3584 
Q 2378 3584 2631 3529 
Q 2884 3475 3122 3366 
z
" id="DejaVuSans-63" transform="scale(0.015625)"/>
       <path d="M 1959 3097 
Q 1497 3097 1228 2736 
Q 959 2375 959 1747 
Q 959 1119 1226 758 
Q 1494 397 1959 397 
Q 2419 397 2687 759 
Q 2956 1122 2956 1747 
Q 2956 2369 2687 2733 
Q 2419 3097 1959 3097 
z
M 1959 3584 
Q 2709 3584 3137 3096 
Q 3566 2609 3566 1747 
Q 3566 888 3137 398 
Q 2709 -91 1959 -91 
Q 1206 -91 779 398 
Q 353 888 353 1747 
Q 353 2609 779 3096 
Q 1206 3584 1959 3584 
z
" id="DejaVuSans-6f" transform="scale(0.015625)"/>
       <path d="M 3513 2113 
L 3513 0 
L 2938 0 
L 2938 2094 
Q 2938 2591 2744 2837 
Q 2550 3084 2163 3084 
Q 1697 3084 1428 2787 
Q 1159 2491 1159 1978 
L 1159 0 
L 581 0 
L 581 3500 
L 1159 3500 
L 1159 2956 
Q 1366 3272 1645 3428 
Q 1925 3584 2291 3584 
Q 2894 3584 3203 3211 
Q 3513 2838 3513 2113 
z
" id="DejaVuSans-6e" transform="scale(0.015625)"/>
       <path d="M 2906 2969 
L 2906 4863 
L 3481 4863 
L 3481 0 
L 2906 0 
L 2906 525 
Q 2725 213 2448 61 
Q 2172 -91 1784 -91 
Q 1150 -91 751 415 
Q 353 922 353 1747 
Q 353 2572 751 3078 
Q 1150 3584 1784 3584 
Q 2172 3584 2448 3432 
Q 2725 3281 2906 2969 
z
M 947 1747 
Q 947 1113 1208 752 
Q 1469 391 1925 391 
Q 2381 391 2643 752 
Q 2906 1113 2906 1747 
Q 2906 2381 2643 2742 
Q 2381 3103 1925 3103 
Q 1469 3103 1208 2742 
Q 947 2381 947 1747 
z
" id="DejaVuSans-64" transform="scale(0.015625)"/>
       <path d="M 2834 3397 
L 2834 2853 
Q 2591 2978 2328 3040 
Q 2066 3103 1784 3103 
Q 1356 3103 1142 2972 
Q 928 2841 928 2578 
Q 928 2378 1081 2264 
Q 1234 2150 1697 2047 
L 1894 2003 
Q 2506 1872 2764 1633 
Q 3022 1394 3022 966 
Q 3022 478 2636 193 
Q 2250 -91 1575 -91 
Q 1294 -91 989 -36 
Q 684 19 347 128 
L 347 722 
Q 666 556 975 473 
Q 1284 391 1588 391 
Q 1994 391 2212 530 
Q 2431 669 2431 922 
Q 2431 1156 2273 1281 
Q 2116 1406 1581 1522 
L 1381 1569 
Q 847 1681 609 1914 
Q 372 2147 372 2553 
Q 372 3047 722 3315 
Q 1072 3584 1716 3584 
Q 2034 3584 2315 3537 
Q 2597 3491 2834 3397 
z
" id="DejaVuSans-73" transform="scale(0.015625)"/>
       <path d="M 1947 4863 
L 1947 -844 
L 622 -844 
L 622 -397 
L 1369 -397 
L 1369 4416 
L 622 4416 
L 622 4863 
L 1947 4863 
z
" id="DejaVuSans-5d" transform="scale(0.015625)"/>
      </defs>
      <use xlink:href="#DejaVuSans-54"/>
      <use x="57.958984" xlink:href="#DejaVuSans-69"/>
      <use x="85.742188" xlink:href="#DejaVuSans-6d"/>
      <use x="183.154297" xlink:href="#DejaVuSans-65"/>
      <use x="244.677734" xlink:href="#DejaVuSans-20"/>
      <use x="276.464844" xlink:href="#DejaVuSans-5b"/>
      <use x="315.478516" xlink:href="#DejaVuSans-53"/>
      <use x="378.955078" xlink:href="#DejaVuSans-65"/>
      <use x="440.478516" xlink:href="#DejaVuSans-63"/>
      <use x="495.458984" xlink:href="#DejaVuSans-6f"/>
      <use x="556.640625" xlink:href="#DejaVuSans-6e"/>
      <use x="620.019531" xlink:href="#DejaVuSans-64"/>
      <use x="683.496094" xlink:href="#DejaVuSans-73"/>
      <use x="735.595703" xlink:href="#DejaVuSans-5d"/>
     </g>
    </g>
   </g>
   <g id="matplotlib.axis_2">
    <g id="ytick_1">
     <g id="line2d_9">
      <defs>
       <path d="M 0 0 
L -3.5 0 
" id="mfe8e725c6b" style="stroke:#000000;stroke-width:0.8;"/>
      </defs>
      <g>
       <use style="stroke:#000000;stroke-width:0.8;" x="72" xlink:href="#mfe8e725c6b" y="305.24938"/>
      </g>
     </g>
     <g id="text_10">
      <!-- 0.00 -->
      <g transform="translate(33.828125 310.568286)scale(0.14 -0.14)">
       <use xlink:href="#DejaVuSans-30"/>
       <use x="63.623047" xlink:href="#DejaVuSans-2e"/>
       <use x="95.410156" xlink:href="#DejaVuSans-30"/>
       <use x="159.033203" xlink:href="#DejaVuSans-30"/>
      </g>
     </g>
    </g>
    <g id="ytick_2">
     <g id="line2d_10">
      <g>
       <use style="stroke:#000000;stroke-width:0.8;" x="72" xlink:href="#mfe8e725c6b" y="267.645093"/>
      </g>
     </g>
     <g id="text_11">
      <!-- 0.25 -->
      <g transform="translate(33.828125 272.963999)scale(0.14 -0.14)">
       <use xlink:href="#DejaVuSans-30"/>
       <use x="63.623047" xlink:href="#DejaVuSans-2e"/>
       <use x="95.410156" xlink:href="#DejaVuSans-32"/>
       <use x="159.033203" xlink:href="#DejaVuSans-35"/>
      </g>
     </g>
    </g>
    <g id="ytick_3">
     <g id="line2d_11">
      <g>
       <use style="stroke:#000000;stroke-width:0.8;" x="72" xlink:href="#mfe8e725c6b" y="230.040806"/>
      </g>
     </g>
     <g id="text_12">
      <!-- 0.50 -->
      <g transform="translate(33.828125 235.359712)scale(0.14 -0.14)">
       <use xlink:href="#DejaVuSans-30"/>
       <use x="63.623047" xlink:href="#DejaVuSans-2e"/>
       <use x="95.410156" xlink:href="#DejaVuSans-35"/>
       <use x="159.033203" xlink:href="#DejaVuSans-30"/>
      </g>
     </g>
    </g>
    <g id="ytick_4">
     <g id="line2d_12">
      <g>
       <use style="stroke:#000000;stroke-width:0.8;" x="72" xlink:href="#mfe8e725c6b" y="192.436519"/>
      </g>
     </g>
     <g id="text_13">
      <!-- 0.75 -->
      <g transform="translate(33.828125 197.755425)scale(0.14 -0.14)">
       <use xlink:href="#DejaVuSans-30"/>
       <use x="63.623047" xlink:href="#DejaVuSans-2e"/>
       <use x="95.410156" xlink:href="#DejaVuSans-37"/>
       <use x="159.033203" xlink:href="#DejaVuSans-35"/>
      </g>
     </g>
    </g>
    <g id="ytick_5">
     <g id="line2d_13">
      <g>
       <use style="stroke:#000000;stroke-width:0.8;" x="72" xlink:href="#mfe8e725c6b" y="154.832231"/>
      </g>
     </g>
     <g id="text_14">
      <!-- 1.00 -->
      <g transform="translate(33.828125 160.151138)scale(0.14 -0.14)">
       <use xlink:href="#DejaVuSans-31"/>
       <use x="63.623047" xlink:href="#DejaVuSans-2e"/>
       <use x="95.410156" xlink:href="#DejaVuSans-30"/>
       <use x="159.033203" xlink:href="#DejaVuSans-30"/>
      </g>
     </g>
    </g>
    <g id="ytick_6">
     <g id="line2d_14">
      <g>
       <use style="stroke:#000000;stroke-width:0.8;" x="72" xlink:href="#mfe8e725c6b" y="117.227944"/>
      </g>
     </g>
     <g id="text_15">
      <!-- 1.25 -->
      <g transform="translate(33.828125 122.54685)scale(0.14 -0.14)">
       <use xlink:href="#DejaVuSans-31"/>
       <use x="63.623047" xlink:href="#DejaVuSans-2e"/>
       <use x="95.410156" xlink:href="#DejaVuSans-32"/>
       <use x="159.033203" xlink:href="#DejaVuSans-35"/>
      </g>
     </g>
    </g>
    <g id="ytick_7">
     <g id="line2d_15">
      <g>
       <use style="stroke:#000000;stroke-width:0.8;" x="72" xlink:href="#mfe8e725c6b" y="79.623657"/>
      </g>
     </g>
     <g id="text_16">
      <!-- 1.50 -->
      <g transform="translate(33.828125 84.942563)scale(0.14 -0.14)">
       <use xlink:href="#DejaVuSans-31"/>
       <use x="63.623047" xlink:href="#DejaVuSans-2e"/>
       <use x="95.410156" xlink:href="#DejaVuSans-35"/>
       <use x="159.033203" xlink:href="#DejaVuSans-30"/>
      </g>
     </g>
    </g>
    <g id="text_17">
     <!-- Speed [mm/s] -->
     <g transform="translate(26.500625 238.11375)rotate(-90)scale(0.16 -0.16)">
      <defs>
       <path d="M 1159 525 
L 1159 -1331 
L 581 -1331 
L 581 3500 
L 1159 3500 
L 1159 2969 
Q 1341 3281 1617 3432 
Q 1894 3584 2278 3584 
Q 2916 3584 3314 3078 
Q 3713 2572 3713 1747 
Q 3713 922 3314 415 
Q 2916 -91 2278 -91 
Q 1894 -91 1617 61 
Q 1341 213 1159 525 
z
M 3116 1747 
Q 3116 2381 2855 2742 
Q 2594 3103 2138 3103 
Q 1681 3103 1420 2742 
Q 1159 2381 1159 1747 
Q 1159 1113 1420 752 
Q 1681 391 2138 391 
Q 2594 391 2855 752 
Q 3116 1113 3116 1747 
z
" id="DejaVuSans-70" transform="scale(0.015625)"/>
       <path d="M 1625 4666 
L 2156 4666 
L 531 -594 
L 0 -594 
L 1625 4666 
z
" id="DejaVuSans-2f" transform="scale(0.015625)"/>
      </defs>
      <use xlink:href="#DejaVuSans-53"/>
      <use x="63.476562" xlink:href="#DejaVuSans-70"/>
      <use x="126.953125" xlink:href="#DejaVuSans-65"/>
      <use x="188.476562" xlink:href="#DejaVuSans-65"/>
      <use x="250" xlink:href="#DejaVuSans-64"/>
      <use x="313.476562" xlink:href="#DejaVuSans-20"/>
      <use x="345.263672" xlink:href="#DejaVuSans-5b"/>
      <use x="384.277344" xlink:href="#DejaVuSans-6d"/>
      <use x="481.689453" xlink:href="#DejaVuSans-6d"/>
      <use x="579.101562" xlink:href="#DejaVuSans-2f"/>
      <use x="612.792969" xlink:href="#DejaVuSans-73"/>
      <use x="664.892578" xlink:href="#DejaVuSans-5d"/>
     </g>
    </g>
   </g>
   <g id="line2d_16">
    <path clip-path="url(#p72fd9f3401)" d="M 72 203.683055 
L 518.4 203.683055 
" style="fill:none;stroke:#000000;stroke-dasharray:5.55,2.4;stroke-dashoffset:0;stroke-width:1.5;"/>
   </g>
   <g id="line2d_17">
    <path clip-path="url(#p72fd9f3401)" d="M 72 301.710153 
L 115.957895 301.724089 
L 116.715789 301.585965 
L 117.473684 302.253411 
L 118.989474 297.327245 
L 119.747368 300.693045 
L 120.505263 301.803612 
L 121.263158 304.023798 
L 122.021053 307.463832 
L 122.778947 307.8 
L 123.536842 306.749898 
L 124.294737 299.521177 
L 125.052632 299.699 
L 125.810526 304.41632 
L 126.568421 304.509355 
L 127.326316 301.05678 
L 128.084211 288.105453 
L 128.842105 266.860759 
L 130.357895 209.436717 
L 132.631579 116.106122 
L 134.147368 74.760386 
L 134.905263 60.364588 
L 135.663158 55.8 
L 136.421053 56.665825 
L 137.178947 64.192873 
L 137.936842 75.587707 
L 139.452632 104.367761 
L 140.210526 123.251679 
L 140.968421 145.613481 
L 141.726316 158.851236 
L 142.484211 174.51015 
L 143.242105 185.089119 
L 144 187.962807 
L 144.757895 187.100806 
L 145.515789 175.754337 
L 146.273684 176.671234 
L 147.031579 180.06565 
L 147.789474 182.246364 
L 148.547368 190.994099 
L 149.305263 193.938286 
L 150.063158 195.473137 
L 150.821053 195.540247 
L 152.336842 198.041081 
L 153.094737 195.958116 
L 153.852632 196.242432 
L 154.610526 198.014439 
L 155.368421 195.480164 
L 156.126316 194.24337 
L 156.884211 196.36405 
L 157.642105 196.522421 
L 158.4 197.16978 
L 159.157895 197.436413 
L 159.915789 196.643743 
L 160.673684 198.610893 
L 161.431579 202.292814 
L 162.189474 203.022089 
L 162.947368 201.189135 
L 163.705263 202.709968 
L 164.463158 202.603302 
L 165.221053 201.799146 
L 165.978947 202.039319 
L 166.736842 199.468569 
L 167.494737 198.214282 
L 168.252632 196.277069 
L 169.010526 197.21656 
L 169.768421 201.060625 
L 170.526316 200.922512 
L 171.284211 200.092388 
L 172.042105 199.010388 
L 172.8 200.506841 
L 173.557895 201.132533 
L 174.315789 200.201149 
L 175.073684 203.433449 
L 175.831579 204.255252 
L 176.589474 203.978646 
L 177.347368 203.415326 
L 178.863158 205.728518 
L 179.621053 204.875233 
L 181.136842 201.520099 
L 181.894737 203.114259 
L 182.652632 203.972088 
L 183.410526 203.967211 
L 184.168421 204.520065 
L 184.926316 206.021937 
L 185.684211 206.327739 
L 186.442105 203.495678 
L 187.2 201.734572 
L 188.715789 200.784627 
L 189.473684 201.582414 
L 190.989474 201.88665 
L 191.747368 204.083517 
L 192.505263 204.193055 
L 193.263158 203.155816 
L 194.021053 202.866563 
L 194.778947 201.978678 
L 195.536842 202.713607 
L 196.294737 205.297031 
L 197.810526 204.081929 
L 198.568421 205.379221 
L 199.326316 207.484561 
L 200.084211 206.862549 
L 200.842105 204.781534 
L 201.6 204.496411 
L 202.357895 205.060062 
L 203.115789 204.208343 
L 203.873684 203.153986 
L 204.631579 204.18794 
L 205.389474 204.419799 
L 206.147368 205.359055 
L 206.905263 205.618994 
L 207.663158 203.301185 
L 208.421053 201.530934 
L 209.178947 201.827811 
L 209.936842 202.843557 
L 210.694737 202.810805 
L 211.452632 201.268102 
L 212.210526 201.811834 
L 212.968421 204.86706 
L 213.726316 205.107974 
L 214.484211 202.544774 
L 215.242105 202.470836 
L 216 204.484505 
L 216.757895 204.784218 
L 217.515789 202.903457 
L 218.273684 202.221787 
L 219.031579 204.488775 
L 219.789474 206.158788 
L 220.547368 205.735119 
L 221.305263 203.707835 
L 222.063158 204.589302 
L 222.821053 206.90187 
L 223.578947 206.128116 
L 224.336842 204.696726 
L 225.094737 203.708271 
L 225.852632 205.219441 
L 226.610526 206.295526 
L 227.368421 206.053724 
L 228.884211 204.977332 
L 229.642105 205.672376 
L 230.4 205.203367 
L 231.157895 203.579734 
L 231.915789 204.399264 
L 232.673684 205.606809 
L 233.431579 204.503777 
L 234.189474 204.887076 
L 234.947368 205.956039 
L 236.463158 203.070549 
L 237.221053 204.17874 
L 237.978947 204.645373 
L 238.736842 202.684516 
L 239.494737 203.048631 
L 240.252632 205.080595 
L 241.010526 205.158919 
L 241.768421 204.303629 
L 242.526316 201.99232 
L 243.284211 202.430562 
L 244.042105 203.884159 
L 244.8 203.449643 
L 245.557895 203.567554 
L 246.315789 203.096555 
L 247.073684 204.043287 
L 247.831579 204.242659 
L 248.589474 203.364023 
L 249.347368 203.064145 
L 250.105263 204.663207 
L 250.863158 204.894384 
L 251.621053 203.206425 
L 252.378947 201.984133 
L 253.136842 202.279237 
L 253.894737 204.557256 
L 254.652632 203.875918 
L 255.410526 203.542015 
L 256.168421 204.95523 
L 256.926316 205.866416 
L 257.684211 205.101394 
L 258.442105 204.509548 
L 259.2 206.009588 
L 261.473684 205.894591 
L 262.231579 206.484036 
L 262.989474 207.539459 
L 264.505263 204.119121 
L 265.263158 204.516957 
L 266.021053 204.662632 
L 267.536842 205.693765 
L 268.294737 203.259695 
L 269.052632 202.741522 
L 269.810526 203.757215 
L 270.568421 203.10101 
L 272.084211 204.790068 
L 272.842105 204.286085 
L 274.357895 202.04932 
L 275.115789 204.10941 
L 275.873684 204.914834 
L 276.631579 202.585407 
L 277.389474 203.397795 
L 278.147368 206.616942 
L 278.905263 206.64684 
L 279.663158 204.307405 
L 281.178947 206.882259 
L 281.936842 205.51714 
L 282.694737 203.604877 
L 283.452632 203.799021 
L 284.210526 205.27878 
L 284.968421 203.560081 
L 285.726316 202.19843 
L 286.484211 203.717183 
L 288 205.143243 
L 288.757895 205.260584 
L 289.515789 204.071331 
L 290.273684 203.927874 
L 291.031579 204.106832 
L 291.789474 204.446835 
L 293.305263 207.645889 
L 294.063158 207.535602 
L 294.821053 206.415101 
L 295.578947 203.673581 
L 296.336842 203.302321 
L 297.094737 203.832264 
L 297.852632 202.338318 
L 298.610526 202.817 
L 299.368421 203.600118 
L 300.126316 202.516015 
L 300.884211 202.284681 
L 301.642105 203.397829 
L 303.157895 201.818 
L 303.915789 202.31846 
L 304.673684 203.792825 
L 305.431579 203.98856 
L 306.189474 203.162527 
L 306.947368 203.99401 
L 307.705263 204.237252 
L 308.463158 204.690913 
L 309.221053 205.405471 
L 309.978947 205.639881 
L 310.736842 205.416754 
L 311.494737 204.822322 
L 313.010526 204.632197 
L 313.768421 205.447504 
L 314.526316 205.954795 
L 316.8 202.329954 
L 317.557895 203.053516 
L 318.315789 204.593343 
L 319.073684 203.949837 
L 320.589474 203.040108 
L 321.347368 203.859677 
L 322.105263 206.086756 
L 322.863158 205.963132 
L 323.621053 205.210933 
L 324.378947 206.222574 
L 325.894737 206.053277 
L 326.652632 205.508775 
L 327.410526 203.857029 
L 328.168421 203.005791 
L 328.926316 202.985188 
L 329.684211 204.877528 
L 330.442105 204.914563 
L 331.2 204.232529 
L 331.957895 204.716413 
L 332.715789 204.839825 
L 333.473684 203.379227 
L 334.231579 203.006126 
L 334.989474 205.462905 
L 335.747368 206.560109 
L 336.505263 204.473903 
L 337.263158 203.823099 
L 338.021053 205.757833 
L 338.778947 206.260573 
L 340.294737 203.639652 
L 341.052632 203.251389 
L 342.568421 203.013165 
L 343.326316 203.334874 
L 344.084211 204.652951 
L 344.842105 205.317821 
L 345.6 205.105974 
L 346.357895 203.25368 
L 347.115789 202.546339 
L 347.873684 204.167945 
L 348.631579 203.53736 
L 349.389474 203.219335 
L 350.147368 204.448714 
L 350.905263 205.336124 
L 351.663158 204.702648 
L 352.421053 204.868224 
L 353.178947 206.148228 
L 353.936842 205.565536 
L 355.452632 205.251481 
L 356.968421 205.857045 
L 357.726316 203.964404 
L 358.484211 202.6978 
L 359.242105 204.202318 
L 360 204.02061 
L 360.757895 203.414198 
L 361.515789 204.265482 
L 362.273684 204.017597 
L 363.031579 204.098455 
L 363.789474 203.392451 
L 364.547368 202.977293 
L 365.305263 204.750856 
L 366.063158 205.2211 
L 366.821053 205.143933 
L 367.578947 205.357373 
L 368.336842 205.239857 
L 369.094737 206.54592 
L 369.852632 206.329323 
L 372.126316 201.978068 
L 372.884211 202.361554 
L 373.642105 202.996642 
L 375.157895 205.201913 
L 375.915789 205.662226 
L 377.431579 203.282222 
L 378.189474 203.348715 
L 378.947368 203.706209 
L 379.705263 203.456709 
L 381.978947 205.447219 
L 382.736842 205.808874 
L 383.494737 204.140116 
L 384.252632 203.711297 
L 385.010526 204.381425 
L 385.768421 204.07415 
L 386.526316 205.302425 
L 387.284211 206.317072 
L 388.042105 205.73313 
L 388.8 205.97853 
L 390.315789 204.207665 
L 391.073684 204.160804 
L 391.831579 204.709055 
L 393.347368 202.695065 
L 394.105263 203.567354 
L 394.863158 203.268928 
L 395.621053 203.341425 
L 396.378947 204.422044 
L 397.136842 204.923883 
L 397.894737 205.024621 
L 398.652632 204.547225 
L 399.410526 204.910938 
L 400.168421 205.692853 
L 400.926316 205.369312 
L 401.684211 205.350443 
L 402.442105 204.233541 
L 403.2 204.0842 
L 403.957895 203.79838 
L 404.715789 201.970104 
L 405.473684 203.201195 
L 406.231579 205.294791 
L 406.989474 204.694905 
L 407.747368 204.95638 
L 408.505263 206.521688 
L 409.263158 205.646907 
L 410.021053 204.524595 
L 410.778947 204.459238 
L 411.536842 204.267878 
L 413.052632 205.74412 
L 413.810526 204.398642 
L 414.568421 202.012606 
L 415.326316 201.944684 
L 416.084211 202.668913 
L 416.842105 201.629965 
L 417.6 201.62944 
L 418.357895 203.29758 
L 419.115789 204.346848 
L 419.873684 204.392172 
L 420.631579 204.931978 
L 421.389474 206.144206 
L 422.147368 205.208738 
L 423.663158 206.59547 
L 424.421053 206.128253 
L 425.936842 204.800039 
L 426.694737 206.044831 
L 427.452632 206.132897 
L 428.210526 203.617609 
L 428.968421 202.96985 
L 429.726316 206.309974 
L 430.484211 205.077376 
L 431.242105 203.521193 
L 432 205.400633 
L 432.757895 206.071854 
L 433.515789 205.821218 
L 434.273684 204.783875 
L 435.031579 204.329289 
L 435.789474 202.726528 
L 436.547368 202.079802 
L 437.305263 202.815159 
L 438.063158 201.777557 
L 438.821053 201.144111 
L 439.578947 201.80155 
L 440.336842 202.749193 
L 441.094737 202.107165 
L 441.852632 202.610118 
L 442.610526 205.365023 
L 443.368421 205.68734 
L 444.126316 205.688537 
L 444.884211 206.139264 
L 445.642105 207.365123 
L 446.4 207.190008 
L 447.157895 206.043957 
L 448.673684 206.244917 
L 450.189474 203.232571 
L 450.947368 203.879161 
L 451.705263 201.941037 
L 452.463158 200.753616 
L 453.221053 201.72618 
L 453.978947 201.885821 
L 454.736842 202.38039 
L 455.494737 203.769291 
L 456.252632 204.607596 
L 457.010526 205.042951 
L 457.768421 206.241217 
L 458.526316 207.067084 
L 459.284211 207.607611 
L 460.042105 207.903658 
L 460.8 206.971915 
L 463.073684 203.143896 
L 463.831579 204.550672 
L 464.589474 205.0504 
L 465.347368 201.293904 
L 466.105263 200.796792 
L 466.863158 203.245336 
L 467.621053 202.543443 
L 468.378947 202.497767 
L 469.136842 203.914828 
L 470.652632 205.952848 
L 471.410526 205.5509 
L 472.168421 203.776933 
L 472.926316 203.970512 
L 473.684211 204.742811 
L 474.442105 203.889516 
L 475.2 203.601156 
L 475.957895 203.18473 
L 476.715789 202.627602 
L 477.473684 201.838418 
L 478.231579 201.735815 
L 479.747368 205.041824 
L 481.263158 208.082704 
L 482.021053 207.934276 
L 482.778947 207.238856 
L 483.536842 207.800742 
L 484.294737 206.929385 
L 485.052632 205.190389 
L 485.810526 204.837443 
L 486.568421 202.846737 
L 487.326316 201.3652 
L 488.084211 201.251363 
L 488.842105 200.791093 
L 490.357895 201.522042 
L 491.115789 202.293195 
L 491.873684 203.795174 
L 492.631579 204.345961 
L 493.389474 204.4697 
L 494.147368 206.978781 
L 494.905263 209.096594 
L 495.663158 208.912021 
L 496.421053 207.264833 
L 497.178947 206.572308 
L 497.936842 206.616576 
L 499.452632 204.182389 
L 500.210526 204.154531 
L 500.968421 203.494378 
L 502.484211 200.586541 
L 503.242105 200.573947 
L 504.757895 203.366923 
L 505.515789 204.055175 
L 506.273684 203.254173 
L 507.031579 204.802463 
L 507.789474 205.978864 
L 508.547368 206.135128 
L 509.305263 206.005062 
L 510.063158 205.602418 
L 510.821053 204.962595 
L 512.336842 203.221275 
L 513.852632 201.497343 
L 514.610526 200.96045 
L 515.368421 200.853468 
L 516.126316 201.363362 
L 516.884211 202.698744 
L 517.642105 205.089883 
L 518.4 208.788695 
L 518.4 208.788695 
" style="fill:none;stroke:#ff0000;stroke-linecap:square;stroke-width:2;"/>
   </g>
   <g id="patch_3">
    <path d="M 72 320.4 
L 72 43.2 
" style="fill:none;stroke:#000000;stroke-linecap:square;stroke-linejoin:miter;stroke-width:0.8;"/>
   </g>
   <g id="patch_4">
    <path d="M 518.4 320.4 
L 518.4 43.2 
" style="fill:none;stroke:#000000;stroke-linecap:square;stroke-linejoin:miter;stroke-width:0.8;"/>
   </g>
   <g id="patch_5">
    <path d="M 72 320.4 
L 518.4 320.4 
" style="fill:none;stroke:#000000;stroke-linecap:square;stroke-linejoin:miter;stroke-width:0.8;"/>
   </g>
   <g id="patch_6">
    <path d="M 72 43.2 
L 518.4 43.2 
" style="fill:none;stroke:#000000;stroke-linecap:square;stroke-linejoin:miter;stroke-width:0.8;"/>
   </g>
   <g id="text_18">
    <!-- Front Propogation Speed -->
    <g transform="translate(172.245312 37.2)scale(0.2 -0.2)">
     <defs>
      <path d="M 628 4666 
L 3309 4666 
L 3309 4134 
L 1259 4134 
L 1259 2759 
L 3109 2759 
L 3109 2228 
L 1259 2228 
L 1259 0 
L 628 0 
L 628 4666 
z
" id="DejaVuSans-46" transform="scale(0.015625)"/>
      <path d="M 2631 2963 
Q 2534 3019 2420 3045 
Q 2306 3072 2169 3072 
Q 1681 3072 1420 2755 
Q 1159 2438 1159 1844 
L 1159 0 
L 581 0 
L 581 3500 
L 1159 3500 
L 1159 2956 
Q 1341 3275 1631 3429 
Q 1922 3584 2338 3584 
Q 2397 3584 2469 3576 
Q 2541 3569 2628 3553 
L 2631 2963 
z
" id="DejaVuSans-72" transform="scale(0.015625)"/>
      <path d="M 1172 4494 
L 1172 3500 
L 2356 3500 
L 2356 3053 
L 1172 3053 
L 1172 1153 
Q 1172 725 1289 603 
Q 1406 481 1766 481 
L 2356 481 
L 2356 0 
L 1766 0 
Q 1100 0 847 248 
Q 594 497 594 1153 
L 594 3053 
L 172 3053 
L 172 3500 
L 594 3500 
L 594 4494 
L 1172 4494 
z
" id="DejaVuSans-74" transform="scale(0.015625)"/>
      <path d="M 1259 4147 
L 1259 2394 
L 2053 2394 
Q 2494 2394 2734 2622 
Q 2975 2850 2975 3272 
Q 2975 3691 2734 3919 
Q 2494 4147 2053 4147 
L 1259 4147 
z
M 628 4666 
L 2053 4666 
Q 2838 4666 3239 4311 
Q 3641 3956 3641 3272 
Q 3641 2581 3239 2228 
Q 2838 1875 2053 1875 
L 1259 1875 
L 1259 0 
L 628 0 
L 628 4666 
z
" id="DejaVuSans-50" transform="scale(0.015625)"/>
      <path d="M 2906 1791 
Q 2906 2416 2648 2759 
Q 2391 3103 1925 3103 
Q 1463 3103 1205 2759 
Q 947 2416 947 1791 
Q 947 1169 1205 825 
Q 1463 481 1925 481 
Q 2391 481 2648 825 
Q 2906 1169 2906 1791 
z
M 3481 434 
Q 3481 -459 3084 -895 
Q 2688 -1331 1869 -1331 
Q 1566 -1331 1297 -1286 
Q 1028 -1241 775 -1147 
L 775 -588 
Q 1028 -725 1275 -790 
Q 1522 -856 1778 -856 
Q 2344 -856 2625 -561 
Q 2906 -266 2906 331 
L 2906 616 
Q 2728 306 2450 153 
Q 2172 0 1784 0 
Q 1141 0 747 490 
Q 353 981 353 1791 
Q 353 2603 747 3093 
Q 1141 3584 1784 3584 
Q 2172 3584 2450 3431 
Q 2728 3278 2906 2969 
L 2906 3500 
L 3481 3500 
L 3481 434 
z
" id="DejaVuSans-67" transform="scale(0.015625)"/>
      <path d="M 2194 1759 
Q 1497 1759 1228 1600 
Q 959 1441 959 1056 
Q 959 750 1161 570 
Q 1363 391 1709 391 
Q 2188 391 2477 730 
Q 2766 1069 2766 1631 
L 2766 1759 
L 2194 1759 
z
M 3341 1997 
L 3341 0 
L 2766 0 
L 2766 531 
Q 2569 213 2275 61 
Q 1981 -91 1556 -91 
Q 1019 -91 701 211 
Q 384 513 384 1019 
Q 384 1609 779 1909 
Q 1175 2209 1959 2209 
L 2766 2209 
L 2766 2266 
Q 2766 2663 2505 2880 
Q 2244 3097 1772 3097 
Q 1472 3097 1187 3025 
Q 903 2953 641 2809 
L 641 3341 
Q 956 3463 1253 3523 
Q 1550 3584 1831 3584 
Q 2591 3584 2966 3190 
Q 3341 2797 3341 1997 
z
" id="DejaVuSans-61" transform="scale(0.015625)"/>
     </defs>
     <use xlink:href="#DejaVuSans-46"/>
     <use x="50.269531" xlink:href="#DejaVuSans-72"/>
     <use x="89.132812" xlink:href="#DejaVuSans-6f"/>
     <use x="150.314453" xlink:href="#DejaVuSans-6e"/>
     <use x="213.693359" xlink:href="#DejaVuSans-74"/>
     <use x="252.902344" xlink:href="#DejaVuSans-20"/>
     <use x="284.689453" xlink:href="#DejaVuSans-50"/>
     <use x="343.242188" xlink:href="#DejaVuSans-72"/>
     <use x="382.105469" xlink:href="#DejaVuSans-6f"/>
     <use x="443.287109" xlink:href="#DejaVuSans-70"/>
     <use x="506.763672" xlink:href="#DejaVuSans-6f"/>
     <use x="567.945312" xlink:href="#DejaVuSans-67"/>
     <use x="631.421875" xlink:href="#DejaVuSans-61"/>
     <use x="692.701172" xlink:href="#DejaVuSans-74"/>
     <use x="731.910156" xlink:href="#DejaVuSans-69"/>
     <use x="759.693359" xlink:href="#DejaVuSans-6f"/>
     <use x="820.875" xlink:href="#DejaVuSans-6e"/>
     <use x="884.253906" xlink:href="#DejaVuSans-20"/>
     <use x="916.041016" xlink:href="#DejaVuSans-53"/>
     <use x="979.517578" xlink:href="#DejaVuSans-70"/>
     <use x="1042.994141" xlink:href="#DejaVuSans-65"/>
     <use x="1104.517578" xlink:href="#DejaVuSans-65"/>
     <use x="1166.041016" xlink:href="#DejaVuSans-64"/>
    </g>
   </g>
   <g id="legend_1">
    <g id="patch_7">
     <path d="M 325.967812 111.175687 
L 508.6 111.175687 
Q 511.4 111.175687 511.4 108.375687 
L 511.4 53 
Q 511.4 50.2 508.6 50.2 
L 325.967812 50.2 
Q 323.167812 50.2 323.167812 53 
L 323.167812 108.375687 
Q 323.167812 111.175687 325.967812 111.175687 
z
" style="fill:#ffffff;opacity:0.8;stroke:#cccccc;stroke-linejoin:miter;"/>
    </g>
    <g id="line2d_18">
     <path d="M 328.767812 61.537812 
L 356.767812 61.537812 
" style="fill:none;stroke:#ff0000;stroke-linecap:square;stroke-width:2;"/>
    </g>
    <g id="line2d_19"/>
    <g id="text_19">
     <!-- Front speed -->
     <g transform="translate(367.967812 66.437812)scale(0.14 -0.14)">
      <use xlink:href="#DejaVuSans-46"/>
      <use x="50.269531" xlink:href="#DejaVuSans-72"/>
      <use x="89.132812" xlink:href="#DejaVuSans-6f"/>
      <use x="150.314453" xlink:href="#DejaVuSans-6e"/>
      <use x="213.693359" xlink:href="#DejaVuSans-74"/>
      <use x="252.902344" xlink:href="#DejaVuSans-20"/>
      <use x="284.689453" xlink:href="#DejaVuSans-73"/>
      <use x="336.789062" xlink:href="#DejaVuSans-70"/>
      <use x="400.265625" xlink:href="#DejaVuSans-65"/>
      <use x="461.789062" xlink:href="#DejaVuSans-65"/>
      <use x="523.3125" xlink:href="#DejaVuSans-64"/>
     </g>
    </g>
    <g id="line2d_20">
     <path d="M 328.767812 91.381437 
L 356.767812 91.381437 
" style="fill:none;stroke:#000000;stroke-dasharray:5.55,2.4;stroke-dashoffset:0;stroke-width:1.5;"/>
    </g>
    <g id="line2d_21"/>
    <g id="text_20">
     <!-- Steady state -->
     <g transform="translate(367.967812 86.987187)scale(0.14 -0.14)">
      <defs>
       <path d="M 2059 -325 
Q 1816 -950 1584 -1140 
Q 1353 -1331 966 -1331 
L 506 -1331 
L 506 -850 
L 844 -850 
Q 1081 -850 1212 -737 
Q 1344 -625 1503 -206 
L 1606 56 
L 191 3500 
L 800 3500 
L 1894 763 
L 2988 3500 
L 3597 3500 
L 2059 -325 
z
" id="DejaVuSans-79" transform="scale(0.015625)"/>
      </defs>
      <use xlink:href="#DejaVuSans-53"/>
      <use x="63.476562" xlink:href="#DejaVuSans-74"/>
      <use x="102.685547" xlink:href="#DejaVuSans-65"/>
      <use x="164.208984" xlink:href="#DejaVuSans-61"/>
      <use x="225.488281" xlink:href="#DejaVuSans-64"/>
      <use x="288.964844" xlink:href="#DejaVuSans-79"/>
      <use x="348.144531" xlink:href="#DejaVuSans-20"/>
      <use x="379.931641" xlink:href="#DejaVuSans-73"/>
      <use x="432.03125" xlink:href="#DejaVuSans-74"/>
      <use x="471.240234" xlink:href="#DejaVuSans-61"/>
      <use x="532.519531" xlink:href="#DejaVuSans-74"/>
      <use x="571.728516" xlink:href="#DejaVuSans-65"/>
     </g>
     <!-- speed = 0.68 mm/s -->
     <g transform="translate(367.967812 102.664125)scale(0.14 -0.14)">
      <defs>
       <path d="M 678 2906 
L 4684 2906 
L 4684 2381 
L 678 2381 
L 678 2906 
z
M 678 1631 
L 4684 1631 
L 4684 1100 
L 678 1100 
L 678 1631 
z
" id="DejaVuSans-3d" transform="scale(0.015625)"/>
       <path d="M 2113 2584 
Q 1688 2584 1439 2293 
Q 1191 2003 1191 1497 
Q 1191 994 1439 701 
Q 1688 409 2113 409 
Q 2538 409 2786 701 
Q 3034 994 3034 1497 
Q 3034 2003 2786 2293 
Q 2538 2584 2113 2584 
z
M 3366 4563 
L 3366 3988 
Q 3128 4100 2886 4159 
Q 2644 4219 2406 4219 
Q 1781 4219 1451 3797 
Q 1122 3375 1075 2522 
Q 1259 2794 1537 2939 
Q 1816 3084 2150 3084 
Q 2853 3084 3261 2657 
Q 3669 2231 3669 1497 
Q 3669 778 3244 343 
Q 2819 -91 2113 -91 
Q 1303 -91 875 529 
Q 447 1150 447 2328 
Q 447 3434 972 4092 
Q 1497 4750 2381 4750 
Q 2619 4750 2861 4703 
Q 3103 4656 3366 4563 
z
" id="DejaVuSans-36" transform="scale(0.015625)"/>
       <path d="M 2034 2216 
Q 1584 2216 1326 1975 
Q 1069 1734 1069 1313 
Q 1069 891 1326 650 
Q 1584 409 2034 409 
Q 2484 409 2743 651 
Q 3003 894 3003 1313 
Q 3003 1734 2745 1975 
Q 2488 2216 2034 2216 
z
M 1403 2484 
Q 997 2584 770 2862 
Q 544 3141 544 3541 
Q 544 4100 942 4425 
Q 1341 4750 2034 4750 
Q 2731 4750 3128 4425 
Q 3525 4100 3525 3541 
Q 3525 3141 3298 2862 
Q 3072 2584 2669 2484 
Q 3125 2378 3379 2068 
Q 3634 1759 3634 1313 
Q 3634 634 3220 271 
Q 2806 -91 2034 -91 
Q 1263 -91 848 271 
Q 434 634 434 1313 
Q 434 1759 690 2068 
Q 947 2378 1403 2484 
z
M 1172 3481 
Q 1172 3119 1398 2916 
Q 1625 2713 2034 2713 
Q 2441 2713 2670 2916 
Q 2900 3119 2900 3481 
Q 2900 3844 2670 4047 
Q 2441 4250 2034 4250 
Q 1625 4250 1398 4047 
Q 1172 3844 1172 3481 
z
" id="DejaVuSans-38" transform="scale(0.015625)"/>
      </defs>
      <use xlink:href="#DejaVuSans-73"/>
      <use x="52.099609" xlink:href="#DejaVuSans-70"/>
      <use x="115.576172" xlink:href="#DejaVuSans-65"/>
      <use x="177.099609" xlink:href="#DejaVuSans-65"/>
      <use x="238.623047" xlink:href="#DejaVuSans-64"/>
      <use x="302.099609" xlink:href="#DejaVuSans-20"/>
      <use x="333.886719" xlink:href="#DejaVuSans-3d"/>
      <use x="417.675781" xlink:href="#DejaVuSans-20"/>
      <use x="449.462891" xlink:href="#DejaVuSans-30"/>
      <use x="513.085938" xlink:href="#DejaVuSans-2e"/>
      <use x="544.873047" xlink:href="#DejaVuSans-36"/>
      <use x="608.496094" xlink:href="#DejaVuSans-38"/>
      <use x="672.119141" xlink:href="#DejaVuSans-20"/>
      <use x="703.90625" xlink:href="#DejaVuSans-6d"/>
      <use x="801.318359" xlink:href="#DejaVuSans-6d"/>
      <use x="898.730469" xlink:href="#DejaVuSans-2f"/>
      <use x="932.421875" xlink:href="#DejaVuSans-73"/>
     </g>
    </g>
   </g>
  </g>
 </g>
 <defs>
  <clipPath id="p72fd9f3401">
   <rect height="277.2" width="446.4" x="72" y="43.2"/>
  </clipPath>
 </defs>
</svg>
