<?xml version="1.0" encoding="utf-8" standalone="no"?>
<!DOCTYPE svg PUBLIC "-//W3C//DTD SVG 1.1//EN"
  "http://www.w3.org/Graphics/SVG/1.1/DTD/svg11.dtd">
<svg height="360pt" version="1.1" viewBox="0 0 576 360" width="576pt" xmlns="http://www.w3.org/2000/svg" xmlns:xlink="http://www.w3.org/1999/xlink">
 <metadata>
  <rdf:RDF xmlns:cc="http://creativecommons.org/ns#" xmlns:dc="http://purl.org/dc/elements/1.1/" xmlns:rdf="http://www.w3.org/1999/02/22-rdf-syntax-ns#">
   <cc:Work>
    <dc:type rdf:resource="http://purl.org/dc/dcmitype/StillImage"/>
    <dc:date>2022-06-30T14:32:33.423828</dc:date>
    <dc:format>image/svg+xml</dc:format>
    <dc:creator>
     <cc:Agent>
      <dc:title>Matplotlib v3.4.3, https://matplotlib.org/</dc:title>
     </cc:Agent>
    </dc:creator>
   </cc:Work>
  </rdf:RDF>
 </metadata>
 <defs>
  <style type="text/css">*{stroke-linecap:butt;stroke-linejoin:round;}</style>
 </defs>
 <g id="figure_1">
  <g id="patch_1">
   <path d="M 0 360 
L 576 360 
L 576 0 
L 0 0 
z
" style="fill:#ffffff;"/>
  </g>
  <g id="axes_1">
   <g id="patch_2">
    <path d="M 72 320.4 
L 518.4 320.4 
L 518.4 43.2 
L 72 43.2 
z
" style="fill:#ffffff;"/>
   </g>
   <g id="PolyCollection_1">
    <defs>
     <path d="M 72 -169.950079 
L 72 -174.324546 
L 72.737851 -174.324546 
L 73.475702 -174.324546 
L 74.213554 -174.324546 
L 74.951405 -174.324546 
L 75.689256 -174.324546 
L 76.427107 -174.324546 
L 77.164959 -174.324546 
L 77.90281 -174.324546 
L 78.640661 -174.324546 
L 79.378512 -174.324546 
L 80.116364 -174.324546 
L 80.854215 -174.324546 
L 81.592066 -174.324546 
L 82.329917 -174.324546 
L 83.067769 -174.324546 
L 83.80562 -174.324546 
L 84.543471 -174.324546 
L 85.281322 -174.324546 
L 86.019174 -174.324546 
L 86.757025 -174.324546 
L 87.494876 -174.324546 
L 88.232727 -174.324546 
L 88.970579 -174.324546 
L 89.70843 -174.324546 
L 90.446281 -174.324546 
L 91.184132 -174.324546 
L 91.921983 -174.324546 
L 92.659835 -174.324546 
L 93.397686 -174.324546 
L 94.135537 -174.324546 
L 94.873388 -174.324546 
L 95.61124 -174.324546 
L 96.349091 -174.324546 
L 97.086942 -174.324546 
L 97.824793 -174.324546 
L 98.562645 -174.324546 
L 99.300496 -174.324546 
L 100.038347 -174.324546 
L 100.776198 -174.324546 
L 101.51405 -174.324546 
L 102.251901 -174.324546 
L 102.989752 -174.324546 
L 103.727603 -174.324546 
L 104.465455 -174.324546 
L 105.203306 -174.324546 
L 105.941157 -174.324546 
L 106.679008 -174.324546 
L 107.41686 -174.324546 
L 108.154711 -174.324546 
L 108.892562 -174.324546 
L 109.630413 -174.324546 
L 110.368264 -174.324546 
L 111.106116 -174.324546 
L 111.843967 -174.324546 
L 112.581818 -174.324546 
L 113.319669 -174.324546 
L 114.057521 -174.324546 
L 114.795372 -174.324546 
L 115.533223 -174.324546 
L 116.271074 -174.324546 
L 117.008926 -174.324546 
L 117.746777 -174.324546 
L 118.484628 -174.324546 
L 119.222479 -174.324546 
L 119.960331 -174.324546 
L 120.698182 -174.324546 
L 121.436033 -174.324546 
L 122.173884 -174.324546 
L 122.911736 -174.324546 
L 123.649587 -174.324546 
L 124.387438 -174.324546 
L 125.125289 -174.324546 
L 125.86314 -174.324546 
L 126.600992 -174.324546 
L 127.338843 -174.324546 
L 128.076694 -174.324546 
L 128.814545 -174.324546 
L 129.552397 -174.324546 
L 130.290248 -174.324546 
L 131.028099 -174.324546 
L 131.76595 -174.324546 
L 132.503802 -174.324546 
L 133.241653 -174.324546 
L 133.979504 -174.324546 
L 134.717355 -174.324546 
L 135.455207 -174.324546 
L 136.193058 -174.324546 
L 136.930909 -174.324546 
L 137.66876 -174.324546 
L 138.406612 -174.324546 
L 139.144463 -174.324546 
L 139.882314 -174.324546 
L 140.620165 -174.324546 
L 141.358017 -174.324546 
L 142.095868 -174.324546 
L 142.833719 -174.324546 
L 143.57157 -174.324546 
L 144.309421 -174.324546 
L 145.047273 -174.324546 
L 145.785124 -174.324546 
L 146.522975 -174.324546 
L 147.260826 -174.324546 
L 147.998678 -174.324546 
L 148.736529 -174.324546 
L 149.47438 -174.324546 
L 150.212231 -174.324546 
L 150.950083 -174.324546 
L 151.687934 -174.324546 
L 152.425785 -174.324546 
L 153.163636 -174.324546 
L 153.901488 -174.324546 
L 154.639339 -174.324546 
L 155.37719 -174.324546 
L 156.115041 -174.324546 
L 156.852893 -174.324546 
L 157.590744 -174.324546 
L 158.328595 -174.324546 
L 159.066446 -174.324546 
L 159.804298 -174.324546 
L 160.542149 -174.324546 
L 161.28 -174.324546 
L 162.017851 -174.324546 
L 162.755702 -174.324546 
L 163.493554 -174.324546 
L 164.231405 -174.324546 
L 164.969256 -174.324546 
L 165.707107 -174.324546 
L 166.444959 -174.324546 
L 167.18281 -174.324546 
L 167.920661 -174.324546 
L 168.658512 -174.324546 
L 169.396364 -174.324546 
L 170.134215 -174.324546 
L 170.872066 -174.324546 
L 171.609917 -174.324546 
L 172.347769 -174.324546 
L 173.08562 -174.324546 
L 173.823471 -174.324546 
L 174.561322 -174.324546 
L 175.299174 -174.324546 
L 176.037025 -174.324546 
L 176.774876 -174.324546 
L 177.512727 -174.324546 
L 178.250579 -174.324546 
L 178.98843 -174.324546 
L 179.726281 -174.324546 
L 180.464132 -174.324546 
L 181.201983 -174.324546 
L 181.939835 -174.324546 
L 182.677686 -174.324546 
L 183.415537 -174.324546 
L 184.153388 -174.324546 
L 184.89124 -174.324546 
L 185.629091 -174.324546 
L 186.366942 -174.324546 
L 187.104793 -174.324546 
L 187.842645 -174.324546 
L 188.580496 -174.324546 
L 189.318347 -174.324546 
L 190.056198 -174.324546 
L 190.79405 -174.324546 
L 191.531901 -174.324546 
L 192.269752 -174.324546 
L 193.007603 -174.324546 
L 193.745455 -174.324546 
L 194.483306 -174.324546 
L 195.221157 -174.324546 
L 195.959008 -174.324546 
L 196.69686 -174.324546 
L 197.434711 -174.324546 
L 198.172562 -174.324546 
L 198.910413 -174.324546 
L 199.648264 -174.324546 
L 200.386116 -174.324546 
L 201.123967 -174.324546 
L 201.861818 -174.324546 
L 202.599669 -174.324546 
L 203.337521 -174.324546 
L 204.075372 -174.324546 
L 204.813223 -174.324546 
L 205.551074 -174.324546 
L 206.288926 -174.324546 
L 207.026777 -174.324546 
L 207.764628 -174.324546 
L 208.502479 -174.324546 
L 209.240331 -174.324546 
L 209.978182 -174.324546 
L 210.716033 -174.324546 
L 211.453884 -174.324546 
L 212.191736 -174.324546 
L 212.929587 -174.324546 
L 213.667438 -174.324546 
L 214.405289 -174.324546 
L 215.14314 -174.324546 
L 215.880992 -174.324546 
L 216.618843 -174.324546 
L 217.356694 -174.324546 
L 218.094545 -174.324546 
L 218.832397 -174.324546 
L 219.570248 -174.324546 
L 220.308099 -174.324546 
L 221.04595 -174.324546 
L 221.783802 -174.324546 
L 222.521653 -174.324546 
L 223.259504 -174.324546 
L 223.997355 -174.324546 
L 224.735207 -174.324546 
L 225.473058 -174.324546 
L 226.210909 -174.324546 
L 226.94876 -174.324546 
L 227.686612 -174.324546 
L 228.424463 -174.324546 
L 229.162314 -174.324546 
L 229.900165 -174.324546 
L 230.638017 -174.324546 
L 231.375868 -174.324546 
L 232.113719 -174.324546 
L 232.85157 -174.324546 
L 233.589421 -174.324546 
L 234.327273 -174.324546 
L 235.065124 -174.324546 
L 235.802975 -174.324546 
L 236.540826 -174.324546 
L 237.278678 -174.324546 
L 238.016529 -174.324546 
L 238.75438 -174.324546 
L 239.492231 -174.324546 
L 240.230083 -174.324546 
L 240.967934 -174.324546 
L 241.705785 -174.324546 
L 242.443636 -174.324546 
L 243.181488 -174.324546 
L 243.919339 -174.324546 
L 244.65719 -174.324546 
L 245.395041 -174.324546 
L 246.132893 -174.324546 
L 246.870744 -174.324546 
L 247.608595 -174.324546 
L 248.346446 -174.324546 
L 249.084298 -174.324546 
L 249.822149 -174.324546 
L 250.56 -174.324546 
L 251.297851 -174.324546 
L 252.035702 -174.324546 
L 252.773554 -174.324546 
L 253.511405 -174.324546 
L 254.249256 -174.324546 
L 254.987107 -174.324546 
L 255.724959 -174.324546 
L 256.46281 -174.324546 
L 257.200661 -174.324546 
L 257.938512 -174.324546 
L 258.676364 -174.324546 
L 259.414215 -174.324546 
L 260.152066 -174.324546 
L 260.889917 -174.324546 
L 261.627769 -174.324546 
L 262.36562 -174.324546 
L 263.103471 -174.324546 
L 263.841322 -174.324546 
L 264.579174 -174.324546 
L 265.317025 -174.324546 
L 266.054876 -174.324546 
L 266.792727 -174.324546 
L 267.530579 -174.324546 
L 268.26843 -174.324546 
L 269.006281 -174.324546 
L 269.744132 -174.324546 
L 270.481983 -174.324546 
L 271.219835 -174.324546 
L 271.957686 -174.324546 
L 272.695537 -174.324546 
L 273.433388 -174.324546 
L 274.17124 -174.324546 
L 274.909091 -174.324546 
L 275.646942 -174.324546 
L 276.384793 -174.324546 
L 277.122645 -174.324546 
L 277.860496 -174.324546 
L 278.598347 -174.324546 
L 279.336198 -174.324546 
L 280.07405 -174.324546 
L 280.811901 -174.324546 
L 281.549752 -174.324546 
L 282.287603 -174.324546 
L 283.025455 -174.324546 
L 283.763306 -174.324546 
L 284.501157 -174.324546 
L 285.239008 -174.324546 
L 285.97686 -174.324546 
L 286.714711 -174.324546 
L 287.452562 -174.324546 
L 288.190413 -174.324546 
L 288.928264 -174.324546 
L 289.666116 -174.324546 
L 290.403967 -174.324546 
L 291.141818 -174.324546 
L 291.879669 -174.324546 
L 292.617521 -174.324546 
L 293.355372 -174.324546 
L 294.093223 -174.324546 
L 294.831074 -174.324546 
L 295.568926 -174.324546 
L 296.306777 -174.324546 
L 297.044628 -174.324546 
L 297.782479 -174.324546 
L 298.520331 -174.324546 
L 299.258182 -174.324546 
L 299.996033 -174.324546 
L 300.733884 -174.324546 
L 301.471736 -174.324546 
L 302.209587 -174.324546 
L 302.947438 -174.324546 
L 303.685289 -174.324546 
L 304.42314 -174.324546 
L 305.160992 -174.324546 
L 305.898843 -174.324546 
L 306.636694 -174.324546 
L 307.374545 -174.324546 
L 308.112397 -174.324546 
L 308.850248 -174.324546 
L 309.588099 -174.324546 
L 310.32595 -174.324546 
L 311.063802 -174.324546 
L 311.801653 -174.324546 
L 312.539504 -174.324546 
L 313.277355 -174.324546 
L 314.015207 -174.324546 
L 314.753058 -174.324546 
L 315.490909 -174.324546 
L 316.22876 -174.324546 
L 316.966612 -174.324546 
L 317.704463 -174.324546 
L 318.442314 -174.324546 
L 319.180165 -174.324546 
L 319.918017 -174.324546 
L 320.655868 -174.324546 
L 321.393719 -174.324546 
L 322.13157 -174.324546 
L 322.869421 -174.324546 
L 323.607273 -174.324546 
L 324.345124 -174.324546 
L 325.082975 -174.324546 
L 325.820826 -174.324546 
L 326.558678 -174.324546 
L 327.296529 -174.324546 
L 328.03438 -174.324546 
L 328.772231 -174.324546 
L 329.510083 -174.324546 
L 330.247934 -174.324546 
L 330.985785 -174.324546 
L 331.723636 -174.324546 
L 332.461488 -174.324546 
L 333.199339 -174.324546 
L 333.93719 -174.324546 
L 334.675041 -174.324546 
L 335.412893 -174.324546 
L 336.150744 -174.324546 
L 336.888595 -174.324546 
L 337.626446 -174.324546 
L 338.364298 -174.324546 
L 339.102149 -174.324546 
L 339.84 -174.324546 
L 340.577851 -174.324546 
L 341.315702 -174.324546 
L 342.053554 -174.324546 
L 342.791405 -174.324546 
L 343.529256 -174.324546 
L 344.267107 -174.324546 
L 345.004959 -174.324546 
L 345.74281 -174.324546 
L 346.480661 -174.324546 
L 347.218512 -174.324546 
L 347.956364 -174.324546 
L 348.694215 -174.324546 
L 349.432066 -174.324546 
L 350.169917 -174.324546 
L 350.907769 -174.324546 
L 351.64562 -174.324546 
L 352.383471 -174.324546 
L 353.121322 -174.324546 
L 353.859174 -174.324546 
L 354.597025 -174.324546 
L 355.334876 -174.324546 
L 356.072727 -174.324546 
L 356.810579 -174.324546 
L 357.54843 -174.324546 
L 358.286281 -174.324546 
L 359.024132 -174.324546 
L 359.761983 -174.324546 
L 360.499835 -174.324546 
L 361.237686 -174.324546 
L 361.975537 -174.324546 
L 362.713388 -174.324546 
L 363.45124 -174.324546 
L 364.189091 -174.324546 
L 364.926942 -174.324546 
L 365.664793 -174.324546 
L 366.402645 -174.324546 
L 367.140496 -174.324546 
L 367.878347 -174.324546 
L 368.616198 -174.324546 
L 369.35405 -174.324546 
L 370.091901 -174.324546 
L 370.829752 -174.324546 
L 371.567603 -174.324546 
L 372.305455 -174.324546 
L 373.043306 -174.324546 
L 373.781157 -174.324546 
L 374.519008 -174.324546 
L 375.25686 -174.324546 
L 375.994711 -174.324546 
L 376.732562 -174.324546 
L 377.470413 -174.324546 
L 378.208264 -174.324546 
L 378.946116 -174.324546 
L 379.683967 -174.324546 
L 380.421818 -174.324546 
L 381.159669 -174.324546 
L 381.897521 -174.324546 
L 382.635372 -174.324546 
L 383.373223 -174.324546 
L 384.111074 -174.324546 
L 384.848926 -174.324546 
L 385.586777 -174.324546 
L 386.324628 -174.324546 
L 387.062479 -174.324546 
L 387.800331 -174.324546 
L 388.538182 -174.324546 
L 389.276033 -174.324546 
L 390.013884 -174.324546 
L 390.751736 -174.324546 
L 391.489587 -174.324546 
L 392.227438 -174.324546 
L 392.965289 -174.324546 
L 393.70314 -174.324546 
L 394.440992 -174.324546 
L 395.178843 -174.324546 
L 395.916694 -174.324546 
L 396.654545 -174.324546 
L 397.392397 -174.324546 
L 398.130248 -174.324546 
L 398.868099 -174.324546 
L 399.60595 -174.324546 
L 400.343802 -174.324546 
L 401.081653 -174.324546 
L 401.819504 -174.324546 
L 402.557355 -174.324546 
L 403.295207 -174.324546 
L 404.033058 -174.324546 
L 404.770909 -174.324546 
L 405.50876 -174.324546 
L 406.246612 -174.324546 
L 406.984463 -174.324546 
L 407.722314 -174.324546 
L 408.460165 -174.324546 
L 409.198017 -174.324546 
L 409.935868 -174.324546 
L 410.673719 -174.324546 
L 411.41157 -174.324546 
L 412.149421 -174.324546 
L 412.887273 -174.324546 
L 413.625124 -174.324546 
L 414.362975 -174.324546 
L 415.100826 -174.324546 
L 415.838678 -174.324546 
L 416.576529 -174.324546 
L 417.31438 -174.324546 
L 418.052231 -174.324546 
L 418.790083 -174.324546 
L 419.527934 -174.324546 
L 420.265785 -174.324546 
L 421.003636 -174.324546 
L 421.741488 -174.324546 
L 422.479339 -174.324546 
L 423.21719 -174.324546 
L 423.955041 -174.324546 
L 424.692893 -174.324546 
L 425.430744 -174.324546 
L 426.168595 -174.324546 
L 426.906446 -174.324546 
L 427.644298 -174.324546 
L 428.382149 -174.324546 
L 429.12 -174.324546 
L 429.857851 -174.324546 
L 430.595702 -174.324546 
L 431.333554 -174.324546 
L 432.071405 -174.324546 
L 432.809256 -174.324546 
L 433.547107 -174.324546 
L 434.284959 -174.324546 
L 435.02281 -174.324546 
L 435.760661 -174.324546 
L 436.498512 -174.324546 
L 437.236364 -174.324546 
L 437.974215 -174.324546 
L 438.712066 -174.324546 
L 439.449917 -174.324546 
L 440.187769 -174.324546 
L 440.92562 -174.324546 
L 441.663471 -174.324546 
L 442.401322 -174.324546 
L 443.139174 -174.324546 
L 443.877025 -174.324546 
L 444.614876 -174.324546 
L 445.352727 -174.324546 
L 446.090579 -174.324546 
L 446.82843 -174.324546 
L 447.566281 -174.324546 
L 448.304132 -174.324546 
L 449.041983 -174.324546 
L 449.779835 -174.324546 
L 450.517686 -174.324546 
L 451.255537 -174.324546 
L 451.993388 -174.324546 
L 452.73124 -174.324546 
L 453.469091 -174.324546 
L 454.206942 -174.324546 
L 454.944793 -174.324546 
L 455.682645 -174.324546 
L 456.420496 -174.324546 
L 457.158347 -174.324546 
L 457.896198 -174.324546 
L 458.63405 -174.324546 
L 459.371901 -174.324546 
L 460.109752 -174.324546 
L 460.847603 -174.324546 
L 461.585455 -174.324546 
L 462.323306 -174.324546 
L 463.061157 -174.324546 
L 463.799008 -174.324546 
L 464.53686 -174.324546 
L 465.274711 -174.324546 
L 466.012562 -174.324546 
L 466.750413 -174.324546 
L 467.488264 -174.324546 
L 468.226116 -174.324546 
L 468.963967 -174.324546 
L 469.701818 -174.324546 
L 470.439669 -174.324546 
L 471.177521 -174.324546 
L 471.915372 -174.324546 
L 472.653223 -174.324546 
L 473.391074 -174.324546 
L 474.128926 -174.324546 
L 474.866777 -174.324546 
L 475.604628 -174.324546 
L 476.342479 -174.324546 
L 477.080331 -174.324546 
L 477.818182 -174.324546 
L 478.556033 -174.324546 
L 479.293884 -174.324546 
L 480.031736 -174.324546 
L 480.769587 -174.324546 
L 481.507438 -174.324546 
L 482.245289 -174.324546 
L 482.98314 -174.324546 
L 483.720992 -174.324546 
L 484.458843 -174.324546 
L 485.196694 -174.324546 
L 485.934545 -174.324546 
L 486.672397 -174.324546 
L 487.410248 -174.324546 
L 488.148099 -174.324546 
L 488.88595 -174.324546 
L 489.623802 -174.324546 
L 490.361653 -174.324546 
L 491.099504 -174.324546 
L 491.837355 -174.324546 
L 492.575207 -174.324546 
L 493.313058 -174.324546 
L 494.050909 -174.324546 
L 494.78876 -174.324546 
L 495.526612 -174.324546 
L 496.264463 -174.324546 
L 497.002314 -174.324546 
L 497.740165 -174.324546 
L 498.478017 -174.324546 
L 499.215868 -174.324546 
L 499.953719 -174.324546 
L 500.69157 -174.324546 
L 501.429421 -174.324546 
L 502.167273 -174.324546 
L 502.905124 -174.324546 
L 503.642975 -174.324546 
L 504.380826 -174.324546 
L 505.118678 -174.324546 
L 505.856529 -174.324546 
L 506.59438 -174.324546 
L 507.332231 -174.324546 
L 508.070083 -174.324546 
L 508.807934 -174.324546 
L 509.545785 -174.324546 
L 510.283636 -174.324546 
L 511.021488 -174.324546 
L 511.759339 -174.324546 
L 512.49719 -174.324546 
L 513.235041 -174.324546 
L 513.972893 -174.324546 
L 514.710744 -174.324546 
L 515.448595 -174.324546 
L 516.186446 -174.324546 
L 516.924298 -174.324546 
L 517.662149 -174.324546 
L 518.4 -174.324546 
L 518.4 -169.950079 
L 518.4 -169.950079 
L 517.662149 -169.950079 
L 516.924298 -169.950079 
L 516.186446 -169.950079 
L 515.448595 -169.950079 
L 514.710744 -169.950079 
L 513.972893 -169.950079 
L 513.235041 -169.950079 
L 512.49719 -169.950079 
L 511.759339 -169.950079 
L 511.021488 -169.950079 
L 510.283636 -169.950079 
L 509.545785 -169.950079 
L 508.807934 -169.950079 
L 508.070083 -169.950079 
L 507.332231 -169.950079 
L 506.59438 -169.950079 
L 505.856529 -169.950079 
L 505.118678 -169.950079 
L 504.380826 -169.950079 
L 503.642975 -169.950079 
L 502.905124 -169.950079 
L 502.167273 -169.950079 
L 501.429421 -169.950079 
L 500.69157 -169.950079 
L 499.953719 -169.950079 
L 499.215868 -169.950079 
L 498.478017 -169.950079 
L 497.740165 -169.950079 
L 497.002314 -169.950079 
L 496.264463 -169.950079 
L 495.526612 -169.950079 
L 494.78876 -169.950079 
L 494.050909 -169.950079 
L 493.313058 -169.950079 
L 492.575207 -169.950079 
L 491.837355 -169.950079 
L 491.099504 -169.950079 
L 490.361653 -169.950079 
L 489.623802 -169.950079 
L 488.88595 -169.950079 
L 488.148099 -169.950079 
L 487.410248 -169.950079 
L 486.672397 -169.950079 
L 485.934545 -169.950079 
L 485.196694 -169.950079 
L 484.458843 -169.950079 
L 483.720992 -169.950079 
L 482.98314 -169.950079 
L 482.245289 -169.950079 
L 481.507438 -169.950079 
L 480.769587 -169.950079 
L 480.031736 -169.950079 
L 479.293884 -169.950079 
L 478.556033 -169.950079 
L 477.818182 -169.950079 
L 477.080331 -169.950079 
L 476.342479 -169.950079 
L 475.604628 -169.950079 
L 474.866777 -169.950079 
L 474.128926 -169.950079 
L 473.391074 -169.950079 
L 472.653223 -169.950079 
L 471.915372 -169.950079 
L 471.177521 -169.950079 
L 470.439669 -169.950079 
L 469.701818 -169.950079 
L 468.963967 -169.950079 
L 468.226116 -169.950079 
L 467.488264 -169.950079 
L 466.750413 -169.950079 
L 466.012562 -169.950079 
L 465.274711 -169.950079 
L 464.53686 -169.950079 
L 463.799008 -169.950079 
L 463.061157 -169.950079 
L 462.323306 -169.950079 
L 461.585455 -169.950079 
L 460.847603 -169.950079 
L 460.109752 -169.950079 
L 459.371901 -169.950079 
L 458.63405 -169.950079 
L 457.896198 -169.950079 
L 457.158347 -169.950079 
L 456.420496 -169.950079 
L 455.682645 -169.950079 
L 454.944793 -169.950079 
L 454.206942 -169.950079 
L 453.469091 -169.950079 
L 452.73124 -169.950079 
L 451.993388 -169.950079 
L 451.255537 -169.950079 
L 450.517686 -169.950079 
L 449.779835 -169.950079 
L 449.041983 -169.950079 
L 448.304132 -169.950079 
L 447.566281 -169.950079 
L 446.82843 -169.950079 
L 446.090579 -169.950079 
L 445.352727 -169.950079 
L 444.614876 -169.950079 
L 443.877025 -169.950079 
L 443.139174 -169.950079 
L 442.401322 -169.950079 
L 441.663471 -169.950079 
L 440.92562 -169.950079 
L 440.187769 -169.950079 
L 439.449917 -169.950079 
L 438.712066 -169.950079 
L 437.974215 -169.950079 
L 437.236364 -169.950079 
L 436.498512 -169.950079 
L 435.760661 -169.950079 
L 435.02281 -169.950079 
L 434.284959 -169.950079 
L 433.547107 -169.950079 
L 432.809256 -169.950079 
L 432.071405 -169.950079 
L 431.333554 -169.950079 
L 430.595702 -169.950079 
L 429.857851 -169.950079 
L 429.12 -169.950079 
L 428.382149 -169.950079 
L 427.644298 -169.950079 
L 426.906446 -169.950079 
L 426.168595 -169.950079 
L 425.430744 -169.950079 
L 424.692893 -169.950079 
L 423.955041 -169.950079 
L 423.21719 -169.950079 
L 422.479339 -169.950079 
L 421.741488 -169.950079 
L 421.003636 -169.950079 
L 420.265785 -169.950079 
L 419.527934 -169.950079 
L 418.790083 -169.950079 
L 418.052231 -169.950079 
L 417.31438 -169.950079 
L 416.576529 -169.950079 
L 415.838678 -169.950079 
L 415.100826 -169.950079 
L 414.362975 -169.950079 
L 413.625124 -169.950079 
L 412.887273 -169.950079 
L 412.149421 -169.950079 
L 411.41157 -169.950079 
L 410.673719 -169.950079 
L 409.935868 -169.950079 
L 409.198017 -169.950079 
L 408.460165 -169.950079 
L 407.722314 -169.950079 
L 406.984463 -169.950079 
L 406.246612 -169.950079 
L 405.50876 -169.950079 
L 404.770909 -169.950079 
L 404.033058 -169.950079 
L 403.295207 -169.950079 
L 402.557355 -169.950079 
L 401.819504 -169.950079 
L 401.081653 -169.950079 
L 400.343802 -169.950079 
L 399.60595 -169.950079 
L 398.868099 -169.950079 
L 398.130248 -169.950079 
L 397.392397 -169.950079 
L 396.654545 -169.950079 
L 395.916694 -169.950079 
L 395.178843 -169.950079 
L 394.440992 -169.950079 
L 393.70314 -169.950079 
L 392.965289 -169.950079 
L 392.227438 -169.950079 
L 391.489587 -169.950079 
L 390.751736 -169.950079 
L 390.013884 -169.950079 
L 389.276033 -169.950079 
L 388.538182 -169.950079 
L 387.800331 -169.950079 
L 387.062479 -169.950079 
L 386.324628 -169.950079 
L 385.586777 -169.950079 
L 384.848926 -169.950079 
L 384.111074 -169.950079 
L 383.373223 -169.950079 
L 382.635372 -169.950079 
L 381.897521 -169.950079 
L 381.159669 -169.950079 
L 380.421818 -169.950079 
L 379.683967 -169.950079 
L 378.946116 -169.950079 
L 378.208264 -169.950079 
L 377.470413 -169.950079 
L 376.732562 -169.950079 
L 375.994711 -169.950079 
L 375.25686 -169.950079 
L 374.519008 -169.950079 
L 373.781157 -169.950079 
L 373.043306 -169.950079 
L 372.305455 -169.950079 
L 371.567603 -169.950079 
L 370.829752 -169.950079 
L 370.091901 -169.950079 
L 369.35405 -169.950079 
L 368.616198 -169.950079 
L 367.878347 -169.950079 
L 367.140496 -169.950079 
L 366.402645 -169.950079 
L 365.664793 -169.950079 
L 364.926942 -169.950079 
L 364.189091 -169.950079 
L 363.45124 -169.950079 
L 362.713388 -169.950079 
L 361.975537 -169.950079 
L 361.237686 -169.950079 
L 360.499835 -169.950079 
L 359.761983 -169.950079 
L 359.024132 -169.950079 
L 358.286281 -169.950079 
L 357.54843 -169.950079 
L 356.810579 -169.950079 
L 356.072727 -169.950079 
L 355.334876 -169.950079 
L 354.597025 -169.950079 
L 353.859174 -169.950079 
L 353.121322 -169.950079 
L 352.383471 -169.950079 
L 351.64562 -169.950079 
L 350.907769 -169.950079 
L 350.169917 -169.950079 
L 349.432066 -169.950079 
L 348.694215 -169.950079 
L 347.956364 -169.950079 
L 347.218512 -169.950079 
L 346.480661 -169.950079 
L 345.74281 -169.950079 
L 345.004959 -169.950079 
L 344.267107 -169.950079 
L 343.529256 -169.950079 
L 342.791405 -169.950079 
L 342.053554 -169.950079 
L 341.315702 -169.950079 
L 340.577851 -169.950079 
L 339.84 -169.950079 
L 339.102149 -169.950079 
L 338.364298 -169.950079 
L 337.626446 -169.950079 
L 336.888595 -169.950079 
L 336.150744 -169.950079 
L 335.412893 -169.950079 
L 334.675041 -169.950079 
L 333.93719 -169.950079 
L 333.199339 -169.950079 
L 332.461488 -169.950079 
L 331.723636 -169.950079 
L 330.985785 -169.950079 
L 330.247934 -169.950079 
L 329.510083 -169.950079 
L 328.772231 -169.950079 
L 328.03438 -169.950079 
L 327.296529 -169.950079 
L 326.558678 -169.950079 
L 325.820826 -169.950079 
L 325.082975 -169.950079 
L 324.345124 -169.950079 
L 323.607273 -169.950079 
L 322.869421 -169.950079 
L 322.13157 -169.950079 
L 321.393719 -169.950079 
L 320.655868 -169.950079 
L 319.918017 -169.950079 
L 319.180165 -169.950079 
L 318.442314 -169.950079 
L 317.704463 -169.950079 
L 316.966612 -169.950079 
L 316.22876 -169.950079 
L 315.490909 -169.950079 
L 314.753058 -169.950079 
L 314.015207 -169.950079 
L 313.277355 -169.950079 
L 312.539504 -169.950079 
L 311.801653 -169.950079 
L 311.063802 -169.950079 
L 310.32595 -169.950079 
L 309.588099 -169.950079 
L 308.850248 -169.950079 
L 308.112397 -169.950079 
L 307.374545 -169.950079 
L 306.636694 -169.950079 
L 305.898843 -169.950079 
L 305.160992 -169.950079 
L 304.42314 -169.950079 
L 303.685289 -169.950079 
L 302.947438 -169.950079 
L 302.209587 -169.950079 
L 301.471736 -169.950079 
L 300.733884 -169.950079 
L 299.996033 -169.950079 
L 299.258182 -169.950079 
L 298.520331 -169.950079 
L 297.782479 -169.950079 
L 297.044628 -169.950079 
L 296.306777 -169.950079 
L 295.568926 -169.950079 
L 294.831074 -169.950079 
L 294.093223 -169.950079 
L 293.355372 -169.950079 
L 292.617521 -169.950079 
L 291.879669 -169.950079 
L 291.141818 -169.950079 
L 290.403967 -169.950079 
L 289.666116 -169.950079 
L 288.928264 -169.950079 
L 288.190413 -169.950079 
L 287.452562 -169.950079 
L 286.714711 -169.950079 
L 285.97686 -169.950079 
L 285.239008 -169.950079 
L 284.501157 -169.950079 
L 283.763306 -169.950079 
L 283.025455 -169.950079 
L 282.287603 -169.950079 
L 281.549752 -169.950079 
L 280.811901 -169.950079 
L 280.07405 -169.950079 
L 279.336198 -169.950079 
L 278.598347 -169.950079 
L 277.860496 -169.950079 
L 277.122645 -169.950079 
L 276.384793 -169.950079 
L 275.646942 -169.950079 
L 274.909091 -169.950079 
L 274.17124 -169.950079 
L 273.433388 -169.950079 
L 272.695537 -169.950079 
L 271.957686 -169.950079 
L 271.219835 -169.950079 
L 270.481983 -169.950079 
L 269.744132 -169.950079 
L 269.006281 -169.950079 
L 268.26843 -169.950079 
L 267.530579 -169.950079 
L 266.792727 -169.950079 
L 266.054876 -169.950079 
L 265.317025 -169.950079 
L 264.579174 -169.950079 
L 263.841322 -169.950079 
L 263.103471 -169.950079 
L 262.36562 -169.950079 
L 261.627769 -169.950079 
L 260.889917 -169.950079 
L 260.152066 -169.950079 
L 259.414215 -169.950079 
L 258.676364 -169.950079 
L 257.938512 -169.950079 
L 257.200661 -169.950079 
L 256.46281 -169.950079 
L 255.724959 -169.950079 
L 254.987107 -169.950079 
L 254.249256 -169.950079 
L 253.511405 -169.950079 
L 252.773554 -169.950079 
L 252.035702 -169.950079 
L 251.297851 -169.950079 
L 250.56 -169.950079 
L 249.822149 -169.950079 
L 249.084298 -169.950079 
L 248.346446 -169.950079 
L 247.608595 -169.950079 
L 246.870744 -169.950079 
L 246.132893 -169.950079 
L 245.395041 -169.950079 
L 244.65719 -169.950079 
L 243.919339 -169.950079 
L 243.181488 -169.950079 
L 242.443636 -169.950079 
L 241.705785 -169.950079 
L 240.967934 -169.950079 
L 240.230083 -169.950079 
L 239.492231 -169.950079 
L 238.75438 -169.950079 
L 238.016529 -169.950079 
L 237.278678 -169.950079 
L 236.540826 -169.950079 
L 235.802975 -169.950079 
L 235.065124 -169.950079 
L 234.327273 -169.950079 
L 233.589421 -169.950079 
L 232.85157 -169.950079 
L 232.113719 -169.950079 
L 231.375868 -169.950079 
L 230.638017 -169.950079 
L 229.900165 -169.950079 
L 229.162314 -169.950079 
L 228.424463 -169.950079 
L 227.686612 -169.950079 
L 226.94876 -169.950079 
L 226.210909 -169.950079 
L 225.473058 -169.950079 
L 224.735207 -169.950079 
L 223.997355 -169.950079 
L 223.259504 -169.950079 
L 222.521653 -169.950079 
L 221.783802 -169.950079 
L 221.04595 -169.950079 
L 220.308099 -169.950079 
L 219.570248 -169.950079 
L 218.832397 -169.950079 
L 218.094545 -169.950079 
L 217.356694 -169.950079 
L 216.618843 -169.950079 
L 215.880992 -169.950079 
L 215.14314 -169.950079 
L 214.405289 -169.950079 
L 213.667438 -169.950079 
L 212.929587 -169.950079 
L 212.191736 -169.950079 
L 211.453884 -169.950079 
L 210.716033 -169.950079 
L 209.978182 -169.950079 
L 209.240331 -169.950079 
L 208.502479 -169.950079 
L 207.764628 -169.950079 
L 207.026777 -169.950079 
L 206.288926 -169.950079 
L 205.551074 -169.950079 
L 204.813223 -169.950079 
L 204.075372 -169.950079 
L 203.337521 -169.950079 
L 202.599669 -169.950079 
L 201.861818 -169.950079 
L 201.123967 -169.950079 
L 200.386116 -169.950079 
L 199.648264 -169.950079 
L 198.910413 -169.950079 
L 198.172562 -169.950079 
L 197.434711 -169.950079 
L 196.69686 -169.950079 
L 195.959008 -169.950079 
L 195.221157 -169.950079 
L 194.483306 -169.950079 
L 193.745455 -169.950079 
L 193.007603 -169.950079 
L 192.269752 -169.950079 
L 191.531901 -169.950079 
L 190.79405 -169.950079 
L 190.056198 -169.950079 
L 189.318347 -169.950079 
L 188.580496 -169.950079 
L 187.842645 -169.950079 
L 187.104793 -169.950079 
L 186.366942 -169.950079 
L 185.629091 -169.950079 
L 184.89124 -169.950079 
L 184.153388 -169.950079 
L 183.415537 -169.950079 
L 182.677686 -169.950079 
L 181.939835 -169.950079 
L 181.201983 -169.950079 
L 180.464132 -169.950079 
L 179.726281 -169.950079 
L 178.98843 -169.950079 
L 178.250579 -169.950079 
L 177.512727 -169.950079 
L 176.774876 -169.950079 
L 176.037025 -169.950079 
L 175.299174 -169.950079 
L 174.561322 -169.950079 
L 173.823471 -169.950079 
L 173.08562 -169.950079 
L 172.347769 -169.950079 
L 171.609917 -169.950079 
L 170.872066 -169.950079 
L 170.134215 -169.950079 
L 169.396364 -169.950079 
L 168.658512 -169.950079 
L 167.920661 -169.950079 
L 167.18281 -169.950079 
L 166.444959 -169.950079 
L 165.707107 -169.950079 
L 164.969256 -169.950079 
L 164.231405 -169.950079 
L 163.493554 -169.950079 
L 162.755702 -169.950079 
L 162.017851 -169.950079 
L 161.28 -169.950079 
L 160.542149 -169.950079 
L 159.804298 -169.950079 
L 159.066446 -169.950079 
L 158.328595 -169.950079 
L 157.590744 -169.950079 
L 156.852893 -169.950079 
L 156.115041 -169.950079 
L 155.37719 -169.950079 
L 154.639339 -169.950079 
L 153.901488 -169.950079 
L 153.163636 -169.950079 
L 152.425785 -169.950079 
L 151.687934 -169.950079 
L 150.950083 -169.950079 
L 150.212231 -169.950079 
L 149.47438 -169.950079 
L 148.736529 -169.950079 
L 147.998678 -169.950079 
L 147.260826 -169.950079 
L 146.522975 -169.950079 
L 145.785124 -169.950079 
L 145.047273 -169.950079 
L 144.309421 -169.950079 
L 143.57157 -169.950079 
L 142.833719 -169.950079 
L 142.095868 -169.950079 
L 141.358017 -169.950079 
L 140.620165 -169.950079 
L 139.882314 -169.950079 
L 139.144463 -169.950079 
L 138.406612 -169.950079 
L 137.66876 -169.950079 
L 136.930909 -169.950079 
L 136.193058 -169.950079 
L 135.455207 -169.950079 
L 134.717355 -169.950079 
L 133.979504 -169.950079 
L 133.241653 -169.950079 
L 132.503802 -169.950079 
L 131.76595 -169.950079 
L 131.028099 -169.950079 
L 130.290248 -169.950079 
L 129.552397 -169.950079 
L 128.814545 -169.950079 
L 128.076694 -169.950079 
L 127.338843 -169.950079 
L 126.600992 -169.950079 
L 125.86314 -169.950079 
L 125.125289 -169.950079 
L 124.387438 -169.950079 
L 123.649587 -169.950079 
L 122.911736 -169.950079 
L 122.173884 -169.950079 
L 121.436033 -169.950079 
L 120.698182 -169.950079 
L 119.960331 -169.950079 
L 119.222479 -169.950079 
L 118.484628 -169.950079 
L 117.746777 -169.950079 
L 117.008926 -169.950079 
L 116.271074 -169.950079 
L 115.533223 -169.950079 
L 114.795372 -169.950079 
L 114.057521 -169.950079 
L 113.319669 -169.950079 
L 112.581818 -169.950079 
L 111.843967 -169.950079 
L 111.106116 -169.950079 
L 110.368264 -169.950079 
L 109.630413 -169.950079 
L 108.892562 -169.950079 
L 108.154711 -169.950079 
L 107.41686 -169.950079 
L 106.679008 -169.950079 
L 105.941157 -169.950079 
L 105.203306 -169.950079 
L 104.465455 -169.950079 
L 103.727603 -169.950079 
L 102.989752 -169.950079 
L 102.251901 -169.950079 
L 101.51405 -169.950079 
L 100.776198 -169.950079 
L 100.038347 -169.950079 
L 99.300496 -169.950079 
L 98.562645 -169.950079 
L 97.824793 -169.950079 
L 97.086942 -169.950079 
L 96.349091 -169.950079 
L 95.61124 -169.950079 
L 94.873388 -169.950079 
L 94.135537 -169.950079 
L 93.397686 -169.950079 
L 92.659835 -169.950079 
L 91.921983 -169.950079 
L 91.184132 -169.950079 
L 90.446281 -169.950079 
L 89.70843 -169.950079 
L 88.970579 -169.950079 
L 88.232727 -169.950079 
L 87.494876 -169.950079 
L 86.757025 -169.950079 
L 86.019174 -169.950079 
L 85.281322 -169.950079 
L 84.543471 -169.950079 
L 83.80562 -169.950079 
L 83.067769 -169.950079 
L 82.329917 -169.950079 
L 81.592066 -169.950079 
L 80.854215 -169.950079 
L 80.116364 -169.950079 
L 79.378512 -169.950079 
L 78.640661 -169.950079 
L 77.90281 -169.950079 
L 77.164959 -169.950079 
L 76.427107 -169.950079 
L 75.689256 -169.950079 
L 74.951405 -169.950079 
L 74.213554 -169.950079 
L 73.475702 -169.950079 
L 72.737851 -169.950079 
L 72 -169.950079 
z
" id="m3005554654"/>
    </defs>
    <g clip-path="url(#p665c5257af)">
     <use style="fill-opacity:0.15;" x="0" xlink:href="#m3005554654" y="360"/>
    </g>
   </g>
   <g id="matplotlib.axis_1">
    <g id="xtick_1">
     <g id="line2d_1">
      <defs>
       <path d="M 0 0 
L 0 3.5 
" id="m5258213a55" style="stroke:#000000;stroke-width:0.8;"/>
      </defs>
      <g>
       <use style="stroke:#000000;stroke-width:0.8;" x="72" xlink:href="#m5258213a55" y="320.4"/>
      </g>
     </g>
     <g id="text_1">
      <!-- 0.0 -->
      <g transform="translate(60.867812 338.037813)scale(0.14 -0.14)">
       <defs>
        <path d="M 2034 4250 
Q 1547 4250 1301 3770 
Q 1056 3291 1056 2328 
Q 1056 1369 1301 889 
Q 1547 409 2034 409 
Q 2525 409 2770 889 
Q 3016 1369 3016 2328 
Q 3016 3291 2770 3770 
Q 2525 4250 2034 4250 
z
M 2034 4750 
Q 2819 4750 3233 4129 
Q 3647 3509 3647 2328 
Q 3647 1150 3233 529 
Q 2819 -91 2034 -91 
Q 1250 -91 836 529 
Q 422 1150 422 2328 
Q 422 3509 836 4129 
Q 1250 4750 2034 4750 
z
" id="DejaVuSans-30" transform="scale(0.015625)"/>
        <path d="M 684 794 
L 1344 794 
L 1344 0 
L 684 0 
L 684 794 
z
" id="DejaVuSans-2e" transform="scale(0.015625)"/>
       </defs>
       <use xlink:href="#DejaVuSans-30"/>
       <use x="63.623047" xlink:href="#DejaVuSans-2e"/>
       <use x="95.410156" xlink:href="#DejaVuSans-30"/>
      </g>
     </g>
    </g>
    <g id="xtick_2">
     <g id="line2d_2">
      <g>
       <use style="stroke:#000000;stroke-width:0.8;" x="127.850265" xlink:href="#m5258213a55" y="320.4"/>
      </g>
     </g>
     <g id="text_2">
      <!-- 2.5 -->
      <g transform="translate(116.718078 338.037813)scale(0.14 -0.14)">
       <defs>
        <path d="M 1228 531 
L 3431 531 
L 3431 0 
L 469 0 
L 469 531 
Q 828 903 1448 1529 
Q 2069 2156 2228 2338 
Q 2531 2678 2651 2914 
Q 2772 3150 2772 3378 
Q 2772 3750 2511 3984 
Q 2250 4219 1831 4219 
Q 1534 4219 1204 4116 
Q 875 4013 500 3803 
L 500 4441 
Q 881 4594 1212 4672 
Q 1544 4750 1819 4750 
Q 2544 4750 2975 4387 
Q 3406 4025 3406 3419 
Q 3406 3131 3298 2873 
Q 3191 2616 2906 2266 
Q 2828 2175 2409 1742 
Q 1991 1309 1228 531 
z
" id="DejaVuSans-32" transform="scale(0.015625)"/>
        <path d="M 691 4666 
L 3169 4666 
L 3169 4134 
L 1269 4134 
L 1269 2991 
Q 1406 3038 1543 3061 
Q 1681 3084 1819 3084 
Q 2600 3084 3056 2656 
Q 3513 2228 3513 1497 
Q 3513 744 3044 326 
Q 2575 -91 1722 -91 
Q 1428 -91 1123 -41 
Q 819 9 494 109 
L 494 744 
Q 775 591 1075 516 
Q 1375 441 1709 441 
Q 2250 441 2565 725 
Q 2881 1009 2881 1497 
Q 2881 1984 2565 2268 
Q 2250 2553 1709 2553 
Q 1456 2553 1204 2497 
Q 953 2441 691 2322 
L 691 4666 
z
" id="DejaVuSans-35" transform="scale(0.015625)"/>
       </defs>
       <use xlink:href="#DejaVuSans-32"/>
       <use x="63.623047" xlink:href="#DejaVuSans-2e"/>
       <use x="95.410156" xlink:href="#DejaVuSans-35"/>
      </g>
     </g>
    </g>
    <g id="xtick_3">
     <g id="line2d_3">
      <g>
       <use style="stroke:#000000;stroke-width:0.8;" x="183.70053" xlink:href="#m5258213a55" y="320.4"/>
      </g>
     </g>
     <g id="text_3">
      <!-- 5.0 -->
      <g transform="translate(172.568343 338.037813)scale(0.14 -0.14)">
       <use xlink:href="#DejaVuSans-35"/>
       <use x="63.623047" xlink:href="#DejaVuSans-2e"/>
       <use x="95.410156" xlink:href="#DejaVuSans-30"/>
      </g>
     </g>
    </g>
    <g id="xtick_4">
     <g id="line2d_4">
      <g>
       <use style="stroke:#000000;stroke-width:0.8;" x="239.550796" xlink:href="#m5258213a55" y="320.4"/>
      </g>
     </g>
     <g id="text_4">
      <!-- 7.5 -->
      <g transform="translate(228.418608 338.037813)scale(0.14 -0.14)">
       <defs>
        <path d="M 525 4666 
L 3525 4666 
L 3525 4397 
L 1831 0 
L 1172 0 
L 2766 4134 
L 525 4134 
L 525 4666 
z
" id="DejaVuSans-37" transform="scale(0.015625)"/>
       </defs>
       <use xlink:href="#DejaVuSans-37"/>
       <use x="63.623047" xlink:href="#DejaVuSans-2e"/>
       <use x="95.410156" xlink:href="#DejaVuSans-35"/>
      </g>
     </g>
    </g>
    <g id="xtick_5">
     <g id="line2d_5">
      <g>
       <use style="stroke:#000000;stroke-width:0.8;" x="295.401061" xlink:href="#m5258213a55" y="320.4"/>
      </g>
     </g>
     <g id="text_5">
      <!-- 10.0 -->
      <g transform="translate(279.815123 338.037813)scale(0.14 -0.14)">
       <defs>
        <path d="M 794 531 
L 1825 531 
L 1825 4091 
L 703 3866 
L 703 4441 
L 1819 4666 
L 2450 4666 
L 2450 531 
L 3481 531 
L 3481 0 
L 794 0 
L 794 531 
z
" id="DejaVuSans-31" transform="scale(0.015625)"/>
       </defs>
       <use xlink:href="#DejaVuSans-31"/>
       <use x="63.623047" xlink:href="#DejaVuSans-30"/>
       <use x="127.246094" xlink:href="#DejaVuSans-2e"/>
       <use x="159.033203" xlink:href="#DejaVuSans-30"/>
      </g>
     </g>
    </g>
    <g id="xtick_6">
     <g id="line2d_6">
      <g>
       <use style="stroke:#000000;stroke-width:0.8;" x="351.251326" xlink:href="#m5258213a55" y="320.4"/>
      </g>
     </g>
     <g id="text_6">
      <!-- 12.5 -->
      <g transform="translate(335.665389 338.037813)scale(0.14 -0.14)">
       <use xlink:href="#DejaVuSans-31"/>
       <use x="63.623047" xlink:href="#DejaVuSans-32"/>
       <use x="127.246094" xlink:href="#DejaVuSans-2e"/>
       <use x="159.033203" xlink:href="#DejaVuSans-35"/>
      </g>
     </g>
    </g>
    <g id="xtick_7">
     <g id="line2d_7">
      <g>
       <use style="stroke:#000000;stroke-width:0.8;" x="407.101591" xlink:href="#m5258213a55" y="320.4"/>
      </g>
     </g>
     <g id="text_7">
      <!-- 15.0 -->
      <g transform="translate(391.515654 338.037813)scale(0.14 -0.14)">
       <use xlink:href="#DejaVuSans-31"/>
       <use x="63.623047" xlink:href="#DejaVuSans-35"/>
       <use x="127.246094" xlink:href="#DejaVuSans-2e"/>
       <use x="159.033203" xlink:href="#DejaVuSans-30"/>
      </g>
     </g>
    </g>
    <g id="xtick_8">
     <g id="line2d_8">
      <g>
       <use style="stroke:#000000;stroke-width:0.8;" x="462.951857" xlink:href="#m5258213a55" y="320.4"/>
      </g>
     </g>
     <g id="text_8">
      <!-- 17.5 -->
      <g transform="translate(447.365919 338.037813)scale(0.14 -0.14)">
       <use xlink:href="#DejaVuSans-31"/>
       <use x="63.623047" xlink:href="#DejaVuSans-37"/>
       <use x="127.246094" xlink:href="#DejaVuSans-2e"/>
       <use x="159.033203" xlink:href="#DejaVuSans-35"/>
      </g>
     </g>
    </g>
    <g id="text_9">
     <!-- Time [Seconds] -->
     <g transform="translate(233.23 357.106875)scale(0.16 -0.16)">
      <defs>
       <path d="M -19 4666 
L 3928 4666 
L 3928 4134 
L 2272 4134 
L 2272 0 
L 1638 0 
L 1638 4134 
L -19 4134 
L -19 4666 
z
" id="DejaVuSans-54" transform="scale(0.015625)"/>
       <path d="M 603 3500 
L 1178 3500 
L 1178 0 
L 603 0 
L 603 3500 
z
M 603 4863 
L 1178 4863 
L 1178 4134 
L 603 4134 
L 603 4863 
z
" id="DejaVuSans-69" transform="scale(0.015625)"/>
       <path d="M 3328 2828 
Q 3544 3216 3844 3400 
Q 4144 3584 4550 3584 
Q 5097 3584 5394 3201 
Q 5691 2819 5691 2113 
L 5691 0 
L 5113 0 
L 5113 2094 
Q 5113 2597 4934 2840 
Q 4756 3084 4391 3084 
Q 3944 3084 3684 2787 
Q 3425 2491 3425 1978 
L 3425 0 
L 2847 0 
L 2847 2094 
Q 2847 2600 2669 2842 
Q 2491 3084 2119 3084 
Q 1678 3084 1418 2786 
Q 1159 2488 1159 1978 
L 1159 0 
L 581 0 
L 581 3500 
L 1159 3500 
L 1159 2956 
Q 1356 3278 1631 3431 
Q 1906 3584 2284 3584 
Q 2666 3584 2933 3390 
Q 3200 3197 3328 2828 
z
" id="DejaVuSans-6d" transform="scale(0.015625)"/>
       <path d="M 3597 1894 
L 3597 1613 
L 953 1613 
Q 991 1019 1311 708 
Q 1631 397 2203 397 
Q 2534 397 2845 478 
Q 3156 559 3463 722 
L 3463 178 
Q 3153 47 2828 -22 
Q 2503 -91 2169 -91 
Q 1331 -91 842 396 
Q 353 884 353 1716 
Q 353 2575 817 3079 
Q 1281 3584 2069 3584 
Q 2775 3584 3186 3129 
Q 3597 2675 3597 1894 
z
M 3022 2063 
Q 3016 2534 2758 2815 
Q 2500 3097 2075 3097 
Q 1594 3097 1305 2825 
Q 1016 2553 972 2059 
L 3022 2063 
z
" id="DejaVuSans-65" transform="scale(0.015625)"/>
       <path id="DejaVuSans-20" transform="scale(0.015625)"/>
       <path d="M 550 4863 
L 1875 4863 
L 1875 4416 
L 1125 4416 
L 1125 -397 
L 1875 -397 
L 1875 -844 
L 550 -844 
L 550 4863 
z
" id="DejaVuSans-5b" transform="scale(0.015625)"/>
       <path d="M 3425 4513 
L 3425 3897 
Q 3066 4069 2747 4153 
Q 2428 4238 2131 4238 
Q 1616 4238 1336 4038 
Q 1056 3838 1056 3469 
Q 1056 3159 1242 3001 
Q 1428 2844 1947 2747 
L 2328 2669 
Q 3034 2534 3370 2195 
Q 3706 1856 3706 1288 
Q 3706 609 3251 259 
Q 2797 -91 1919 -91 
Q 1588 -91 1214 -16 
Q 841 59 441 206 
L 441 856 
Q 825 641 1194 531 
Q 1563 422 1919 422 
Q 2459 422 2753 634 
Q 3047 847 3047 1241 
Q 3047 1584 2836 1778 
Q 2625 1972 2144 2069 
L 1759 2144 
Q 1053 2284 737 2584 
Q 422 2884 422 3419 
Q 422 4038 858 4394 
Q 1294 4750 2059 4750 
Q 2388 4750 2728 4690 
Q 3069 4631 3425 4513 
z
" id="DejaVuSans-53" transform="scale(0.015625)"/>
       <path d="M 3122 3366 
L 3122 2828 
Q 2878 2963 2633 3030 
Q 2388 3097 2138 3097 
Q 1578 3097 1268 2742 
Q 959 2388 959 1747 
Q 959 1106 1268 751 
Q 1578 397 2138 397 
Q 2388 397 2633 464 
Q 2878 531 3122 666 
L 3122 134 
Q 2881 22 2623 -34 
Q 2366 -91 2075 -91 
Q 1284 -91 818 406 
Q 353 903 353 1747 
Q 353 2603 823 3093 
Q 1294 3584 2113 3584 
Q 2378 3584 2631 3529 
Q 2884 3475 3122 3366 
z
" id="DejaVuSans-63" transform="scale(0.015625)"/>
       <path d="M 1959 3097 
Q 1497 3097 1228 2736 
Q 959 2375 959 1747 
Q 959 1119 1226 758 
Q 1494 397 1959 397 
Q 2419 397 2687 759 
Q 2956 1122 2956 1747 
Q 2956 2369 2687 2733 
Q 2419 3097 1959 3097 
z
M 1959 3584 
Q 2709 3584 3137 3096 
Q 3566 2609 3566 1747 
Q 3566 888 3137 398 
Q 2709 -91 1959 -91 
Q 1206 -91 779 398 
Q 353 888 353 1747 
Q 353 2609 779 3096 
Q 1206 3584 1959 3584 
z
" id="DejaVuSans-6f" transform="scale(0.015625)"/>
       <path d="M 3513 2113 
L 3513 0 
L 2938 0 
L 2938 2094 
Q 2938 2591 2744 2837 
Q 2550 3084 2163 3084 
Q 1697 3084 1428 2787 
Q 1159 2491 1159 1978 
L 1159 0 
L 581 0 
L 581 3500 
L 1159 3500 
L 1159 2956 
Q 1366 3272 1645 3428 
Q 1925 3584 2291 3584 
Q 2894 3584 3203 3211 
Q 3513 2838 3513 2113 
z
" id="DejaVuSans-6e" transform="scale(0.015625)"/>
       <path d="M 2906 2969 
L 2906 4863 
L 3481 4863 
L 3481 0 
L 2906 0 
L 2906 525 
Q 2725 213 2448 61 
Q 2172 -91 1784 -91 
Q 1150 -91 751 415 
Q 353 922 353 1747 
Q 353 2572 751 3078 
Q 1150 3584 1784 3584 
Q 2172 3584 2448 3432 
Q 2725 3281 2906 2969 
z
M 947 1747 
Q 947 1113 1208 752 
Q 1469 391 1925 391 
Q 2381 391 2643 752 
Q 2906 1113 2906 1747 
Q 2906 2381 2643 2742 
Q 2381 3103 1925 3103 
Q 1469 3103 1208 2742 
Q 947 2381 947 1747 
z
" id="DejaVuSans-64" transform="scale(0.015625)"/>
       <path d="M 2834 3397 
L 2834 2853 
Q 2591 2978 2328 3040 
Q 2066 3103 1784 3103 
Q 1356 3103 1142 2972 
Q 928 2841 928 2578 
Q 928 2378 1081 2264 
Q 1234 2150 1697 2047 
L 1894 2003 
Q 2506 1872 2764 1633 
Q 3022 1394 3022 966 
Q 3022 478 2636 193 
Q 2250 -91 1575 -91 
Q 1294 -91 989 -36 
Q 684 19 347 128 
L 347 722 
Q 666 556 975 473 
Q 1284 391 1588 391 
Q 1994 391 2212 530 
Q 2431 669 2431 922 
Q 2431 1156 2273 1281 
Q 2116 1406 1581 1522 
L 1381 1569 
Q 847 1681 609 1914 
Q 372 2147 372 2553 
Q 372 3047 722 3315 
Q 1072 3584 1716 3584 
Q 2034 3584 2315 3537 
Q 2597 3491 2834 3397 
z
" id="DejaVuSans-73" transform="scale(0.015625)"/>
       <path d="M 1947 4863 
L 1947 -844 
L 622 -844 
L 622 -397 
L 1369 -397 
L 1369 4416 
L 622 4416 
L 622 4863 
L 1947 4863 
z
" id="DejaVuSans-5d" transform="scale(0.015625)"/>
      </defs>
      <use xlink:href="#DejaVuSans-54"/>
      <use x="57.958984" xlink:href="#DejaVuSans-69"/>
      <use x="85.742188" xlink:href="#DejaVuSans-6d"/>
      <use x="183.154297" xlink:href="#DejaVuSans-65"/>
      <use x="244.677734" xlink:href="#DejaVuSans-20"/>
      <use x="276.464844" xlink:href="#DejaVuSans-5b"/>
      <use x="315.478516" xlink:href="#DejaVuSans-53"/>
      <use x="378.955078" xlink:href="#DejaVuSans-65"/>
      <use x="440.478516" xlink:href="#DejaVuSans-63"/>
      <use x="495.458984" xlink:href="#DejaVuSans-6f"/>
      <use x="556.640625" xlink:href="#DejaVuSans-6e"/>
      <use x="620.019531" xlink:href="#DejaVuSans-64"/>
      <use x="683.496094" xlink:href="#DejaVuSans-73"/>
      <use x="735.595703" xlink:href="#DejaVuSans-5d"/>
     </g>
    </g>
   </g>
   <g id="matplotlib.axis_2">
    <g id="ytick_1">
     <g id="line2d_9">
      <defs>
       <path d="M 0 0 
L -3.5 0 
" id="m80ad0cbc97" style="stroke:#000000;stroke-width:0.8;"/>
      </defs>
      <g>
       <use style="stroke:#000000;stroke-width:0.8;" x="72" xlink:href="#m80ad0cbc97" y="283.693655"/>
      </g>
     </g>
     <g id="text_10">
      <!-- 0.0 -->
      <g transform="translate(42.735625 289.012561)scale(0.14 -0.14)">
       <use xlink:href="#DejaVuSans-30"/>
       <use x="63.623047" xlink:href="#DejaVuSans-2e"/>
       <use x="95.410156" xlink:href="#DejaVuSans-30"/>
      </g>
     </g>
    </g>
    <g id="ytick_2">
     <g id="line2d_10">
      <g>
       <use style="stroke:#000000;stroke-width:0.8;" x="72" xlink:href="#m80ad0cbc97" y="227.104891"/>
      </g>
     </g>
     <g id="text_11">
      <!-- 0.5 -->
      <g transform="translate(42.735625 232.423797)scale(0.14 -0.14)">
       <use xlink:href="#DejaVuSans-30"/>
       <use x="63.623047" xlink:href="#DejaVuSans-2e"/>
       <use x="95.410156" xlink:href="#DejaVuSans-35"/>
      </g>
     </g>
    </g>
    <g id="ytick_3">
     <g id="line2d_11">
      <g>
       <use style="stroke:#000000;stroke-width:0.8;" x="72" xlink:href="#m80ad0cbc97" y="170.516127"/>
      </g>
     </g>
     <g id="text_12">
      <!-- 1.0 -->
      <g transform="translate(42.735625 175.835033)scale(0.14 -0.14)">
       <use xlink:href="#DejaVuSans-31"/>
       <use x="63.623047" xlink:href="#DejaVuSans-2e"/>
       <use x="95.410156" xlink:href="#DejaVuSans-30"/>
      </g>
     </g>
    </g>
    <g id="ytick_4">
     <g id="line2d_12">
      <g>
       <use style="stroke:#000000;stroke-width:0.8;" x="72" xlink:href="#m80ad0cbc97" y="113.927363"/>
      </g>
     </g>
     <g id="text_13">
      <!-- 1.5 -->
      <g transform="translate(42.735625 119.246269)scale(0.14 -0.14)">
       <use xlink:href="#DejaVuSans-31"/>
       <use x="63.623047" xlink:href="#DejaVuSans-2e"/>
       <use x="95.410156" xlink:href="#DejaVuSans-35"/>
      </g>
     </g>
    </g>
    <g id="ytick_5">
     <g id="line2d_13">
      <g>
       <use style="stroke:#000000;stroke-width:0.8;" x="72" xlink:href="#m80ad0cbc97" y="57.338599"/>
      </g>
     </g>
     <g id="text_14">
      <!-- 2.0 -->
      <g transform="translate(42.735625 62.657506)scale(0.14 -0.14)">
       <use xlink:href="#DejaVuSans-32"/>
       <use x="63.623047" xlink:href="#DejaVuSans-2e"/>
       <use x="95.410156" xlink:href="#DejaVuSans-30"/>
      </g>
     </g>
    </g>
    <g id="text_15">
     <!-- Speed [mm/s] -->
     <g transform="translate(35.408125 238.11375)rotate(-90)scale(0.16 -0.16)">
      <defs>
       <path d="M 1159 525 
L 1159 -1331 
L 581 -1331 
L 581 3500 
L 1159 3500 
L 1159 2969 
Q 1341 3281 1617 3432 
Q 1894 3584 2278 3584 
Q 2916 3584 3314 3078 
Q 3713 2572 3713 1747 
Q 3713 922 3314 415 
Q 2916 -91 2278 -91 
Q 1894 -91 1617 61 
Q 1341 213 1159 525 
z
M 3116 1747 
Q 3116 2381 2855 2742 
Q 2594 3103 2138 3103 
Q 1681 3103 1420 2742 
Q 1159 2381 1159 1747 
Q 1159 1113 1420 752 
Q 1681 391 2138 391 
Q 2594 391 2855 752 
Q 3116 1113 3116 1747 
z
" id="DejaVuSans-70" transform="scale(0.015625)"/>
       <path d="M 1625 4666 
L 2156 4666 
L 531 -594 
L 0 -594 
L 1625 4666 
z
" id="DejaVuSans-2f" transform="scale(0.015625)"/>
      </defs>
      <use xlink:href="#DejaVuSans-53"/>
      <use x="63.476562" xlink:href="#DejaVuSans-70"/>
      <use x="126.953125" xlink:href="#DejaVuSans-65"/>
      <use x="188.476562" xlink:href="#DejaVuSans-65"/>
      <use x="250" xlink:href="#DejaVuSans-64"/>
      <use x="313.476562" xlink:href="#DejaVuSans-20"/>
      <use x="345.263672" xlink:href="#DejaVuSans-5b"/>
      <use x="384.277344" xlink:href="#DejaVuSans-6d"/>
      <use x="481.689453" xlink:href="#DejaVuSans-6d"/>
      <use x="579.101562" xlink:href="#DejaVuSans-2f"/>
      <use x="612.792969" xlink:href="#DejaVuSans-73"/>
      <use x="664.892578" xlink:href="#DejaVuSans-5d"/>
     </g>
    </g>
   </g>
   <g id="line2d_14">
    <path clip-path="url(#p665c5257af)" d="M 72 187.862687 
L 518.4 187.862687 
" style="fill:none;stroke:#000000;stroke-dasharray:5.55,2.4;stroke-dashoffset:0;stroke-width:1.5;"/>
   </g>
   <g id="line2d_15">
    <path clip-path="url(#p665c5257af)" d="M 72 282.346303 
L 115.533223 282.242252 
L 116.271074 282.799886 
L 117.746777 278.68959 
L 119.222479 284.793445 
L 119.960331 285.409125 
L 120.698182 283.616814 
L 121.436033 287.976666 
L 122.173884 266.865608 
L 122.911736 265.930002 
L 123.649587 297.133028 
L 124.387438 306.18295 
L 125.125289 307.8 
L 125.86314 299.600905 
L 126.600992 283.115176 
L 127.338843 259.985014 
L 128.814545 203.597396 
L 131.028099 114.674863 
L 131.76595 91.828181 
L 132.503802 73.591522 
L 133.241653 61.957189 
L 133.979504 55.8 
L 134.717355 56.504708 
L 135.455207 63.919375 
L 136.193058 74.836166 
L 137.66876 108.291855 
L 138.406612 126.106166 
L 140.620165 189.117192 
L 141.358017 194.017331 
L 142.095868 193.021056 
L 142.833719 186.287223 
L 143.57157 153.920081 
L 144.309421 155.162485 
L 145.047273 176.889598 
L 145.785124 172.445789 
L 146.522975 175.472778 
L 147.260826 176.95153 
L 147.998678 177.567859 
L 148.736529 180.753621 
L 149.47438 182.781948 
L 150.212231 183.805507 
L 150.950083 181.95535 
L 151.687934 181.79975 
L 152.425785 184.523754 
L 153.163636 185.177254 
L 153.901488 186.131436 
L 154.639339 186.592498 
L 155.37719 188.098095 
L 156.115041 187.271965 
L 156.852893 185.104951 
L 157.590744 184.66688 
L 158.328595 183.663013 
L 159.066446 181.760738 
L 159.804298 181.716945 
L 161.28 183.693616 
L 162.017851 183.677394 
L 162.755702 181.352057 
L 163.493554 183.353463 
L 164.231405 185.015297 
L 164.969256 185.113252 
L 166.444959 183.339302 
L 167.18281 186.123998 
L 167.920661 185.981339 
L 168.658512 184.683471 
L 169.396364 186.863506 
L 170.134215 189.726699 
L 170.872066 189.692459 
L 171.609917 188.985523 
L 172.347769 187.415834 
L 173.08562 187.872632 
L 173.823471 188.895174 
L 174.561322 188.313524 
L 175.299174 189.059998 
L 176.037025 189.002425 
L 176.774876 189.861308 
L 177.512727 187.349162 
L 178.250579 185.931925 
L 178.98843 187.486691 
L 179.726281 186.513078 
L 180.464132 186.218677 
L 181.201983 186.316918 
L 182.677686 186.236422 
L 184.153388 186.68294 
L 184.89124 187.425838 
L 185.629091 188.49726 
L 186.366942 189.812612 
L 187.104793 187.786673 
L 187.842645 187.321036 
L 188.580496 190.579334 
L 189.318347 187.744584 
L 190.056198 187.966436 
L 190.79405 188.639981 
L 191.531901 186.404315 
L 192.269752 187.633795 
L 193.007603 188.183786 
L 193.745455 188.539055 
L 195.221157 188.642267 
L 195.959008 188.989611 
L 196.69686 189.136049 
L 197.434711 189.071757 
L 198.172562 188.599737 
L 198.910413 188.474019 
L 199.648264 188.701627 
L 200.386116 188.555182 
L 201.123967 188.152129 
L 201.861818 187.886448 
L 202.599669 188.029885 
L 203.337521 188.018405 
L 204.813223 187.650059 
L 205.551074 187.281283 
L 206.288926 187.360854 
L 207.026777 187.641884 
L 209.240331 187.820551 
L 210.716033 188.734846 
L 211.453884 189.870241 
L 212.191736 188.157325 
L 212.929587 187.106384 
L 213.667438 188.402169 
L 214.405289 188.203836 
L 215.14314 188.301715 
L 216.618843 188.223203 
L 218.094545 188.539917 
L 218.832397 188.531849 
L 220.308099 188.190696 
L 221.783802 188.313757 
L 223.259504 188.185513 
L 223.997355 188.259193 
L 224.735207 188.147759 
L 226.94876 188.132128 
L 227.686612 188.085243 
L 229.900165 188.419331 
L 231.375868 188.150908 
L 233.589421 188.415765 
L 235.802975 188.093578 
L 237.278678 188.254384 
L 238.016529 187.965158 
L 238.75438 189.083929 
L 239.492231 188.189261 
L 240.230083 186.87321 
L 240.967934 187.972626 
L 241.705785 188.130934 
L 243.181488 188.785072 
L 243.919339 188.829264 
L 244.65719 188.988455 
L 245.395041 189.029828 
L 246.870744 188.811862 
L 248.346446 188.775206 
L 249.084298 188.478378 
L 249.822149 188.428732 
L 250.56 188.260714 
L 251.297851 187.972052 
L 252.035702 188.006011 
L 252.773554 187.560254 
L 253.511405 188.254807 
L 254.249256 188.390146 
L 254.987107 186.394718 
L 255.724959 186.255295 
L 256.46281 187.298986 
L 257.200661 187.785612 
L 257.938512 189.76178 
L 259.414215 187.695249 
L 260.152066 190.045845 
L 260.889917 188.988844 
L 261.627769 188.636663 
L 262.36562 189.995762 
L 263.841322 189.954344 
L 265.317025 189.205904 
L 269.006281 187.390785 
L 270.481983 186.71658 
L 271.219835 186.832758 
L 271.957686 186.391495 
L 272.695537 187.844635 
L 273.433388 187.357399 
L 274.17124 186.139303 
L 274.909091 188.384443 
L 275.646942 188.303106 
L 276.384793 187.017317 
L 277.122645 187.997998 
L 277.860496 189.36814 
L 278.598347 190.053723 
L 279.336198 190.900905 
L 280.07405 188.629952 
L 280.811901 187.679611 
L 281.549752 189.01849 
L 282.287603 188.697959 
L 283.025455 188.205977 
L 283.763306 189.160321 
L 284.501157 188.256756 
L 285.239008 186.596076 
L 285.97686 187.442739 
L 288.928264 188.079103 
L 289.666116 188.342943 
L 290.403967 188.451862 
L 291.879669 188.48453 
L 293.355372 189.135874 
L 294.093223 190.085274 
L 294.831074 188.263252 
L 295.568926 187.071302 
L 296.306777 188.147167 
L 297.044628 187.802781 
L 297.782479 187.767039 
L 298.520331 187.582389 
L 299.258182 187.663364 
L 300.733884 187.578639 
L 301.471736 187.840284 
L 302.209587 187.871124 
L 302.947438 188.018668 
L 304.42314 188.85298 
L 305.160992 189.846855 
L 305.898843 188.346077 
L 306.636694 187.386635 
L 307.374545 188.434731 
L 308.112397 188.228816 
L 308.850248 188.296598 
L 309.588099 188.149354 
L 310.32595 188.262809 
L 311.801653 188.095258 
L 312.539504 188.265306 
L 314.015207 188.07747 
L 316.22876 188.42091 
L 318.442314 188.18072 
L 319.918017 188.420182 
L 320.655868 188.377022 
L 322.13157 188.061875 
L 323.607273 188.289684 
L 324.345124 187.916412 
L 325.082975 189.034739 
L 325.820826 188.337931 
L 326.558678 186.891426 
L 327.296529 187.888332 
L 328.772231 188.395589 
L 330.247934 188.880825 
L 330.985785 189.113679 
L 331.723636 189.124889 
L 333.199339 188.711537 
L 334.675041 188.649296 
L 336.150744 188.258504 
L 336.888595 188.188908 
L 337.626446 187.936424 
L 339.102149 187.717609 
L 339.84 187.822461 
L 340.577851 187.694471 
L 341.315702 187.267157 
L 344.267107 188.120521 
L 345.74281 188.997073 
L 346.480661 189.98166 
L 347.218512 188.505709 
L 347.956364 187.547417 
L 348.694215 188.546753 
L 349.432066 188.317334 
L 350.169917 188.385262 
L 350.907769 187.964466 
L 351.64562 189.547693 
L 352.383471 188.101111 
L 353.121322 186.024686 
L 353.859174 187.526683 
L 355.334876 188.217117 
L 356.810579 189.029067 
L 357.54843 189.259177 
L 359.024132 189.147029 
L 360.499835 189.124113 
L 361.237686 189.372306 
L 361.975537 188.372808 
L 362.713388 189.416131 
L 363.45124 188.20914 
L 364.189091 185.730576 
L 364.926942 186.893509 
L 365.664793 187.144847 
L 367.140496 187.889772 
L 367.878347 188.019207 
L 369.35405 188.528669 
L 370.829752 188.922085 
L 372.305455 189.882644 
L 373.043306 190.841679 
L 373.781157 188.288261 
L 374.519008 186.807752 
L 375.25686 188.189669 
L 375.994711 187.692579 
L 377.470413 187.270022 
L 378.208264 187.240109 
L 378.946116 187.090066 
L 380.421818 187.33333 
L 381.159669 187.475274 
L 381.897521 187.778509 
L 383.373223 189.092838 
L 384.111074 190.228799 
L 384.848926 189.397015 
L 385.586777 187.19744 
L 386.324628 186.757451 
L 387.800331 187.957482 
L 388.538182 189.10631 
L 389.276033 188.750311 
L 390.013884 187.961275 
L 390.751736 188.867383 
L 391.489587 189.162548 
L 393.70314 189.377241 
L 394.440992 189.441021 
L 395.178843 189.265527 
L 396.654545 188.479424 
L 398.868099 187.714032 
L 399.60595 188.014326 
L 400.343802 187.171041 
L 401.081653 186.124651 
L 401.819504 186.698273 
L 404.033058 187.501023 
L 405.50876 188.859568 
L 406.246612 190.285794 
L 407.722314 187.18597 
L 408.460165 188.54035 
L 409.198017 188.861216 
L 409.935868 189.420124 
L 410.673719 188.482191 
L 411.41157 188.55739 
L 412.149421 187.578108 
L 412.887273 186.228957 
L 413.625124 187.495654 
L 414.362975 187.714243 
L 415.100826 188.223578 
L 415.838678 188.554748 
L 416.576529 188.662238 
L 417.31438 188.972232 
L 419.527934 189.189452 
L 420.265785 189.353501 
L 421.003636 189.794552 
L 421.741488 188.736576 
L 422.479339 188.984368 
L 423.21719 187.769042 
L 423.955041 186.021011 
L 424.692893 187.220887 
L 425.430744 187.276022 
L 426.906446 187.923787 
L 427.644298 187.97539 
L 428.382149 188.265629 
L 429.857851 188.540914 
L 430.595702 188.850586 
L 431.333554 189.301058 
L 432.071405 189.981626 
L 432.809256 190.141661 
L 433.547107 187.796465 
L 434.284959 187.058603 
L 435.02281 188.102144 
L 435.760661 187.775977 
L 436.498512 187.649633 
L 437.974215 187.122413 
L 438.712066 187.13857 
L 440.92562 187.578967 
L 441.663471 187.958786 
L 442.401322 188.560827 
L 443.877025 190.016182 
L 444.614876 187.834312 
L 445.352727 187.092739 
L 446.090579 188.509811 
L 446.82843 188.35176 
L 447.566281 188.418164 
L 449.041983 188.113609 
L 453.469091 188.263842 
L 454.206942 188.413278 
L 454.944793 188.399072 
L 456.420496 188.133343 
L 457.896198 188.424432 
L 458.63405 188.233711 
L 459.371901 188.934404 
L 460.109752 188.83819 
L 460.847603 186.940649 
L 461.585455 186.88903 
L 462.323306 187.824451 
L 465.274711 189.331413 
L 466.012562 189.417036 
L 467.488264 189.073225 
L 468.963967 189.052382 
L 469.701818 188.711829 
L 470.439669 189.038219 
L 471.177521 188.92646 
L 471.915372 186.848402 
L 472.653223 186.305997 
L 473.391074 187.135107 
L 474.866777 187.580929 
L 476.342479 188.373952 
L 477.080331 188.220499 
L 477.818182 189.691345 
L 478.556033 188.76108 
L 479.293884 187.355581 
L 480.031736 188.969938 
L 480.769587 190.23121 
L 481.507438 189.583962 
L 482.245289 187.627653 
L 483.720992 188.799457 
L 485.196694 188.091329 
L 485.934545 187.776859 
L 486.672397 187.701908 
L 487.410248 187.781874 
L 488.148099 187.417917 
L 488.88595 188.436696 
L 489.623802 188.036285 
L 490.361653 186.307033 
L 491.099504 187.127918 
L 491.837355 188.836871 
L 492.575207 188.725481 
L 493.313058 186.991839 
L 494.050909 187.632286 
L 494.78876 188.759891 
L 495.526612 188.740911 
L 496.264463 189.065452 
L 497.002314 188.718047 
L 497.740165 188.7428 
L 498.478017 189.427665 
L 499.215868 190.299079 
L 499.953719 189.241099 
L 500.69157 187.724728 
L 501.429421 187.022801 
L 502.167273 186.696612 
L 502.905124 187.411006 
L 504.380826 187.861105 
L 505.856529 188.465724 
L 506.59438 188.6011 
L 508.807934 188.396909 
L 511.759339 187.738735 
L 513.972893 187.355156 
L 515.448595 187.434479 
L 516.186446 187.650414 
L 516.924298 188.02352 
L 517.662149 188.586743 
L 518.4 189.375596 
L 518.4 189.375596 
" style="fill:none;stroke:#ff0000;stroke-linecap:square;stroke-width:2;"/>
   </g>
   <g id="patch_3">
    <path d="M 72 320.4 
L 72 43.2 
" style="fill:none;stroke:#000000;stroke-linecap:square;stroke-linejoin:miter;stroke-width:0.8;"/>
   </g>
   <g id="patch_4">
    <path d="M 518.4 320.4 
L 518.4 43.2 
" style="fill:none;stroke:#000000;stroke-linecap:square;stroke-linejoin:miter;stroke-width:0.8;"/>
   </g>
   <g id="patch_5">
    <path d="M 72 320.4 
L 518.4 320.4 
" style="fill:none;stroke:#000000;stroke-linecap:square;stroke-linejoin:miter;stroke-width:0.8;"/>
   </g>
   <g id="patch_6">
    <path d="M 72 43.2 
L 518.4 43.2 
" style="fill:none;stroke:#000000;stroke-linecap:square;stroke-linejoin:miter;stroke-width:0.8;"/>
   </g>
   <g id="text_16">
    <!-- Front Propogation Speed -->
    <g transform="translate(172.245312 37.2)scale(0.2 -0.2)">
     <defs>
      <path d="M 628 4666 
L 3309 4666 
L 3309 4134 
L 1259 4134 
L 1259 2759 
L 3109 2759 
L 3109 2228 
L 1259 2228 
L 1259 0 
L 628 0 
L 628 4666 
z
" id="DejaVuSans-46" transform="scale(0.015625)"/>
      <path d="M 2631 2963 
Q 2534 3019 2420 3045 
Q 2306 3072 2169 3072 
Q 1681 3072 1420 2755 
Q 1159 2438 1159 1844 
L 1159 0 
L 581 0 
L 581 3500 
L 1159 3500 
L 1159 2956 
Q 1341 3275 1631 3429 
Q 1922 3584 2338 3584 
Q 2397 3584 2469 3576 
Q 2541 3569 2628 3553 
L 2631 2963 
z
" id="DejaVuSans-72" transform="scale(0.015625)"/>
      <path d="M 1172 4494 
L 1172 3500 
L 2356 3500 
L 2356 3053 
L 1172 3053 
L 1172 1153 
Q 1172 725 1289 603 
Q 1406 481 1766 481 
L 2356 481 
L 2356 0 
L 1766 0 
Q 1100 0 847 248 
Q 594 497 594 1153 
L 594 3053 
L 172 3053 
L 172 3500 
L 594 3500 
L 594 4494 
L 1172 4494 
z
" id="DejaVuSans-74" transform="scale(0.015625)"/>
      <path d="M 1259 4147 
L 1259 2394 
L 2053 2394 
Q 2494 2394 2734 2622 
Q 2975 2850 2975 3272 
Q 2975 3691 2734 3919 
Q 2494 4147 2053 4147 
L 1259 4147 
z
M 628 4666 
L 2053 4666 
Q 2838 4666 3239 4311 
Q 3641 3956 3641 3272 
Q 3641 2581 3239 2228 
Q 2838 1875 2053 1875 
L 1259 1875 
L 1259 0 
L 628 0 
L 628 4666 
z
" id="DejaVuSans-50" transform="scale(0.015625)"/>
      <path d="M 2906 1791 
Q 2906 2416 2648 2759 
Q 2391 3103 1925 3103 
Q 1463 3103 1205 2759 
Q 947 2416 947 1791 
Q 947 1169 1205 825 
Q 1463 481 1925 481 
Q 2391 481 2648 825 
Q 2906 1169 2906 1791 
z
M 3481 434 
Q 3481 -459 3084 -895 
Q 2688 -1331 1869 -1331 
Q 1566 -1331 1297 -1286 
Q 1028 -1241 775 -1147 
L 775 -588 
Q 1028 -725 1275 -790 
Q 1522 -856 1778 -856 
Q 2344 -856 2625 -561 
Q 2906 -266 2906 331 
L 2906 616 
Q 2728 306 2450 153 
Q 2172 0 1784 0 
Q 1141 0 747 490 
Q 353 981 353 1791 
Q 353 2603 747 3093 
Q 1141 3584 1784 3584 
Q 2172 3584 2450 3431 
Q 2728 3278 2906 2969 
L 2906 3500 
L 3481 3500 
L 3481 434 
z
" id="DejaVuSans-67" transform="scale(0.015625)"/>
      <path d="M 2194 1759 
Q 1497 1759 1228 1600 
Q 959 1441 959 1056 
Q 959 750 1161 570 
Q 1363 391 1709 391 
Q 2188 391 2477 730 
Q 2766 1069 2766 1631 
L 2766 1759 
L 2194 1759 
z
M 3341 1997 
L 3341 0 
L 2766 0 
L 2766 531 
Q 2569 213 2275 61 
Q 1981 -91 1556 -91 
Q 1019 -91 701 211 
Q 384 513 384 1019 
Q 384 1609 779 1909 
Q 1175 2209 1959 2209 
L 2766 2209 
L 2766 2266 
Q 2766 2663 2505 2880 
Q 2244 3097 1772 3097 
Q 1472 3097 1187 3025 
Q 903 2953 641 2809 
L 641 3341 
Q 956 3463 1253 3523 
Q 1550 3584 1831 3584 
Q 2591 3584 2966 3190 
Q 3341 2797 3341 1997 
z
" id="DejaVuSans-61" transform="scale(0.015625)"/>
     </defs>
     <use xlink:href="#DejaVuSans-46"/>
     <use x="50.269531" xlink:href="#DejaVuSans-72"/>
     <use x="89.132812" xlink:href="#DejaVuSans-6f"/>
     <use x="150.314453" xlink:href="#DejaVuSans-6e"/>
     <use x="213.693359" xlink:href="#DejaVuSans-74"/>
     <use x="252.902344" xlink:href="#DejaVuSans-20"/>
     <use x="284.689453" xlink:href="#DejaVuSans-50"/>
     <use x="343.242188" xlink:href="#DejaVuSans-72"/>
     <use x="382.105469" xlink:href="#DejaVuSans-6f"/>
     <use x="443.287109" xlink:href="#DejaVuSans-70"/>
     <use x="506.763672" xlink:href="#DejaVuSans-6f"/>
     <use x="567.945312" xlink:href="#DejaVuSans-67"/>
     <use x="631.421875" xlink:href="#DejaVuSans-61"/>
     <use x="692.701172" xlink:href="#DejaVuSans-74"/>
     <use x="731.910156" xlink:href="#DejaVuSans-69"/>
     <use x="759.693359" xlink:href="#DejaVuSans-6f"/>
     <use x="820.875" xlink:href="#DejaVuSans-6e"/>
     <use x="884.253906" xlink:href="#DejaVuSans-20"/>
     <use x="916.041016" xlink:href="#DejaVuSans-53"/>
     <use x="979.517578" xlink:href="#DejaVuSans-70"/>
     <use x="1042.994141" xlink:href="#DejaVuSans-65"/>
     <use x="1104.517578" xlink:href="#DejaVuSans-65"/>
     <use x="1166.041016" xlink:href="#DejaVuSans-64"/>
    </g>
   </g>
   <g id="legend_1">
    <g id="patch_7">
     <path d="M 325.967812 111.175687 
L 508.6 111.175687 
Q 511.4 111.175687 511.4 108.375687 
L 511.4 53 
Q 511.4 50.2 508.6 50.2 
L 325.967812 50.2 
Q 323.167812 50.2 323.167812 53 
L 323.167812 108.375687 
Q 323.167812 111.175687 325.967812 111.175687 
z
" style="fill:#ffffff;opacity:0.8;stroke:#cccccc;stroke-linejoin:miter;"/>
    </g>
    <g id="line2d_16">
     <path d="M 328.767812 61.537812 
L 356.767812 61.537812 
" style="fill:none;stroke:#ff0000;stroke-linecap:square;stroke-width:2;"/>
    </g>
    <g id="line2d_17"/>
    <g id="text_17">
     <!-- Front speed -->
     <g transform="translate(367.967812 66.437812)scale(0.14 -0.14)">
      <use xlink:href="#DejaVuSans-46"/>
      <use x="50.269531" xlink:href="#DejaVuSans-72"/>
      <use x="89.132812" xlink:href="#DejaVuSans-6f"/>
      <use x="150.314453" xlink:href="#DejaVuSans-6e"/>
      <use x="213.693359" xlink:href="#DejaVuSans-74"/>
      <use x="252.902344" xlink:href="#DejaVuSans-20"/>
      <use x="284.689453" xlink:href="#DejaVuSans-73"/>
      <use x="336.789062" xlink:href="#DejaVuSans-70"/>
      <use x="400.265625" xlink:href="#DejaVuSans-65"/>
      <use x="461.789062" xlink:href="#DejaVuSans-65"/>
      <use x="523.3125" xlink:href="#DejaVuSans-64"/>
     </g>
    </g>
    <g id="line2d_18">
     <path d="M 328.767812 91.381437 
L 356.767812 91.381437 
" style="fill:none;stroke:#000000;stroke-dasharray:5.55,2.4;stroke-dashoffset:0;stroke-width:1.5;"/>
    </g>
    <g id="line2d_19"/>
    <g id="text_18">
     <!-- Steady state -->
     <g transform="translate(367.967812 86.987187)scale(0.14 -0.14)">
      <defs>
       <path d="M 2059 -325 
Q 1816 -950 1584 -1140 
Q 1353 -1331 966 -1331 
L 506 -1331 
L 506 -850 
L 844 -850 
Q 1081 -850 1212 -737 
Q 1344 -625 1503 -206 
L 1606 56 
L 191 3500 
L 800 3500 
L 1894 763 
L 2988 3500 
L 3597 3500 
L 2059 -325 
z
" id="DejaVuSans-79" transform="scale(0.015625)"/>
      </defs>
      <use xlink:href="#DejaVuSans-53"/>
      <use x="63.476562" xlink:href="#DejaVuSans-74"/>
      <use x="102.685547" xlink:href="#DejaVuSans-65"/>
      <use x="164.208984" xlink:href="#DejaVuSans-61"/>
      <use x="225.488281" xlink:href="#DejaVuSans-64"/>
      <use x="288.964844" xlink:href="#DejaVuSans-79"/>
      <use x="348.144531" xlink:href="#DejaVuSans-20"/>
      <use x="379.931641" xlink:href="#DejaVuSans-73"/>
      <use x="432.03125" xlink:href="#DejaVuSans-74"/>
      <use x="471.240234" xlink:href="#DejaVuSans-61"/>
      <use x="532.519531" xlink:href="#DejaVuSans-74"/>
      <use x="571.728516" xlink:href="#DejaVuSans-65"/>
     </g>
     <!-- speed = 0.85 mm/s -->
     <g transform="translate(367.967812 102.664125)scale(0.14 -0.14)">
      <defs>
       <path d="M 678 2906 
L 4684 2906 
L 4684 2381 
L 678 2381 
L 678 2906 
z
M 678 1631 
L 4684 1631 
L 4684 1100 
L 678 1100 
L 678 1631 
z
" id="DejaVuSans-3d" transform="scale(0.015625)"/>
       <path d="M 2034 2216 
Q 1584 2216 1326 1975 
Q 1069 1734 1069 1313 
Q 1069 891 1326 650 
Q 1584 409 2034 409 
Q 2484 409 2743 651 
Q 3003 894 3003 1313 
Q 3003 1734 2745 1975 
Q 2488 2216 2034 2216 
z
M 1403 2484 
Q 997 2584 770 2862 
Q 544 3141 544 3541 
Q 544 4100 942 4425 
Q 1341 4750 2034 4750 
Q 2731 4750 3128 4425 
Q 3525 4100 3525 3541 
Q 3525 3141 3298 2862 
Q 3072 2584 2669 2484 
Q 3125 2378 3379 2068 
Q 3634 1759 3634 1313 
Q 3634 634 3220 271 
Q 2806 -91 2034 -91 
Q 1263 -91 848 271 
Q 434 634 434 1313 
Q 434 1759 690 2068 
Q 947 2378 1403 2484 
z
M 1172 3481 
Q 1172 3119 1398 2916 
Q 1625 2713 2034 2713 
Q 2441 2713 2670 2916 
Q 2900 3119 2900 3481 
Q 2900 3844 2670 4047 
Q 2441 4250 2034 4250 
Q 1625 4250 1398 4047 
Q 1172 3844 1172 3481 
z
" id="DejaVuSans-38" transform="scale(0.015625)"/>
      </defs>
      <use xlink:href="#DejaVuSans-73"/>
      <use x="52.099609" xlink:href="#DejaVuSans-70"/>
      <use x="115.576172" xlink:href="#DejaVuSans-65"/>
      <use x="177.099609" xlink:href="#DejaVuSans-65"/>
      <use x="238.623047" xlink:href="#DejaVuSans-64"/>
      <use x="302.099609" xlink:href="#DejaVuSans-20"/>
      <use x="333.886719" xlink:href="#DejaVuSans-3d"/>
      <use x="417.675781" xlink:href="#DejaVuSans-20"/>
      <use x="449.462891" xlink:href="#DejaVuSans-30"/>
      <use x="513.085938" xlink:href="#DejaVuSans-2e"/>
      <use x="544.873047" xlink:href="#DejaVuSans-38"/>
      <use x="608.496094" xlink:href="#DejaVuSans-35"/>
      <use x="672.119141" xlink:href="#DejaVuSans-20"/>
      <use x="703.90625" xlink:href="#DejaVuSans-6d"/>
      <use x="801.318359" xlink:href="#DejaVuSans-6d"/>
      <use x="898.730469" xlink:href="#DejaVuSans-2f"/>
      <use x="932.421875" xlink:href="#DejaVuSans-73"/>
     </g>
    </g>
   </g>
  </g>
 </g>
 <defs>
  <clipPath id="p665c5257af">
   <rect height="277.2" width="446.4" x="72" y="43.2"/>
  </clipPath>
 </defs>
</svg>
