<?xml version="1.0" encoding="utf-8" standalone="no"?>
<!DOCTYPE svg PUBLIC "-//W3C//DTD SVG 1.1//EN"
  "http://www.w3.org/Graphics/SVG/1.1/DTD/svg11.dtd">
<svg height="360pt" version="1.1" viewBox="0 0 576 360" width="576pt" xmlns="http://www.w3.org/2000/svg" xmlns:xlink="http://www.w3.org/1999/xlink">
 <metadata>
  <rdf:RDF xmlns:cc="http://creativecommons.org/ns#" xmlns:dc="http://purl.org/dc/elements/1.1/" xmlns:rdf="http://www.w3.org/1999/02/22-rdf-syntax-ns#">
   <cc:Work>
    <dc:type rdf:resource="http://purl.org/dc/dcmitype/StillImage"/>
    <dc:date>2022-06-30T14:27:10.506537</dc:date>
    <dc:format>image/svg+xml</dc:format>
    <dc:creator>
     <cc:Agent>
      <dc:title>Matplotlib v3.4.3, https://matplotlib.org/</dc:title>
     </cc:Agent>
    </dc:creator>
   </cc:Work>
  </rdf:RDF>
 </metadata>
 <defs>
  <style type="text/css">*{stroke-linecap:butt;stroke-linejoin:round;}</style>
 </defs>
 <g id="figure_1">
  <g id="patch_1">
   <path d="M 0 360 
L 576 360 
L 576 0 
L 0 0 
z
" style="fill:#ffffff;"/>
  </g>
  <g id="axes_1">
   <g id="patch_2">
    <path d="M 72 320.4 
L 518.4 320.4 
L 518.4 43.2 
L 72 43.2 
z
" style="fill:#ffffff;"/>
   </g>
   <g id="PolyCollection_1">
    <defs>
     <path d="M 72 -164.334847 
L 72 -169.841324 
L 72.655507 -169.841324 
L 73.311013 -169.841324 
L 73.96652 -169.841324 
L 74.622026 -169.841324 
L 75.277533 -169.841324 
L 75.93304 -169.841324 
L 76.588546 -169.841324 
L 77.244053 -169.841324 
L 77.899559 -169.841324 
L 78.555066 -169.841324 
L 79.210573 -169.841324 
L 79.866079 -169.841324 
L 80.521586 -169.841324 
L 81.177093 -169.841324 
L 81.832599 -169.841324 
L 82.488106 -169.841324 
L 83.143612 -169.841324 
L 83.799119 -169.841324 
L 84.454626 -169.841324 
L 85.110132 -169.841324 
L 85.765639 -169.841324 
L 86.421145 -169.841324 
L 87.076652 -169.841324 
L 87.732159 -169.841324 
L 88.387665 -169.841324 
L 89.043172 -169.841324 
L 89.698678 -169.841324 
L 90.354185 -169.841324 
L 91.009692 -169.841324 
L 91.665198 -169.841324 
L 92.320705 -169.841324 
L 92.976211 -169.841324 
L 93.631718 -169.841324 
L 94.287225 -169.841324 
L 94.942731 -169.841324 
L 95.598238 -169.841324 
L 96.253744 -169.841324 
L 96.909251 -169.841324 
L 97.564758 -169.841324 
L 98.220264 -169.841324 
L 98.875771 -169.841324 
L 99.531278 -169.841324 
L 100.186784 -169.841324 
L 100.842291 -169.841324 
L 101.497797 -169.841324 
L 102.153304 -169.841324 
L 102.808811 -169.841324 
L 103.464317 -169.841324 
L 104.119824 -169.841324 
L 104.77533 -169.841324 
L 105.430837 -169.841324 
L 106.086344 -169.841324 
L 106.74185 -169.841324 
L 107.397357 -169.841324 
L 108.052863 -169.841324 
L 108.70837 -169.841324 
L 109.363877 -169.841324 
L 110.019383 -169.841324 
L 110.67489 -169.841324 
L 111.330396 -169.841324 
L 111.985903 -169.841324 
L 112.64141 -169.841324 
L 113.296916 -169.841324 
L 113.952423 -169.841324 
L 114.60793 -169.841324 
L 115.263436 -169.841324 
L 115.918943 -169.841324 
L 116.574449 -169.841324 
L 117.229956 -169.841324 
L 117.885463 -169.841324 
L 118.540969 -169.841324 
L 119.196476 -169.841324 
L 119.851982 -169.841324 
L 120.507489 -169.841324 
L 121.162996 -169.841324 
L 121.818502 -169.841324 
L 122.474009 -169.841324 
L 123.129515 -169.841324 
L 123.785022 -169.841324 
L 124.440529 -169.841324 
L 125.096035 -169.841324 
L 125.751542 -169.841324 
L 126.407048 -169.841324 
L 127.062555 -169.841324 
L 127.718062 -169.841324 
L 128.373568 -169.841324 
L 129.029075 -169.841324 
L 129.684581 -169.841324 
L 130.340088 -169.841324 
L 130.995595 -169.841324 
L 131.651101 -169.841324 
L 132.306608 -169.841324 
L 132.962115 -169.841324 
L 133.617621 -169.841324 
L 134.273128 -169.841324 
L 134.928634 -169.841324 
L 135.584141 -169.841324 
L 136.239648 -169.841324 
L 136.895154 -169.841324 
L 137.550661 -169.841324 
L 138.206167 -169.841324 
L 138.861674 -169.841324 
L 139.517181 -169.841324 
L 140.172687 -169.841324 
L 140.828194 -169.841324 
L 141.4837 -169.841324 
L 142.139207 -169.841324 
L 142.794714 -169.841324 
L 143.45022 -169.841324 
L 144.105727 -169.841324 
L 144.761233 -169.841324 
L 145.41674 -169.841324 
L 146.072247 -169.841324 
L 146.727753 -169.841324 
L 147.38326 -169.841324 
L 148.038767 -169.841324 
L 148.694273 -169.841324 
L 149.34978 -169.841324 
L 150.005286 -169.841324 
L 150.660793 -169.841324 
L 151.3163 -169.841324 
L 151.971806 -169.841324 
L 152.627313 -169.841324 
L 153.282819 -169.841324 
L 153.938326 -169.841324 
L 154.593833 -169.841324 
L 155.249339 -169.841324 
L 155.904846 -169.841324 
L 156.560352 -169.841324 
L 157.215859 -169.841324 
L 157.871366 -169.841324 
L 158.526872 -169.841324 
L 159.182379 -169.841324 
L 159.837885 -169.841324 
L 160.493392 -169.841324 
L 161.148899 -169.841324 
L 161.804405 -169.841324 
L 162.459912 -169.841324 
L 163.115419 -169.841324 
L 163.770925 -169.841324 
L 164.426432 -169.841324 
L 165.081938 -169.841324 
L 165.737445 -169.841324 
L 166.392952 -169.841324 
L 167.048458 -169.841324 
L 167.703965 -169.841324 
L 168.359471 -169.841324 
L 169.014978 -169.841324 
L 169.670485 -169.841324 
L 170.325991 -169.841324 
L 170.981498 -169.841324 
L 171.637004 -169.841324 
L 172.292511 -169.841324 
L 172.948018 -169.841324 
L 173.603524 -169.841324 
L 174.259031 -169.841324 
L 174.914537 -169.841324 
L 175.570044 -169.841324 
L 176.225551 -169.841324 
L 176.881057 -169.841324 
L 177.536564 -169.841324 
L 178.19207 -169.841324 
L 178.847577 -169.841324 
L 179.503084 -169.841324 
L 180.15859 -169.841324 
L 180.814097 -169.841324 
L 181.469604 -169.841324 
L 182.12511 -169.841324 
L 182.780617 -169.841324 
L 183.436123 -169.841324 
L 184.09163 -169.841324 
L 184.747137 -169.841324 
L 185.402643 -169.841324 
L 186.05815 -169.841324 
L 186.713656 -169.841324 
L 187.369163 -169.841324 
L 188.02467 -169.841324 
L 188.680176 -169.841324 
L 189.335683 -169.841324 
L 189.991189 -169.841324 
L 190.646696 -169.841324 
L 191.302203 -169.841324 
L 191.957709 -169.841324 
L 192.613216 -169.841324 
L 193.268722 -169.841324 
L 193.924229 -169.841324 
L 194.579736 -169.841324 
L 195.235242 -169.841324 
L 195.890749 -169.841324 
L 196.546256 -169.841324 
L 197.201762 -169.841324 
L 197.857269 -169.841324 
L 198.512775 -169.841324 
L 199.168282 -169.841324 
L 199.823789 -169.841324 
L 200.479295 -169.841324 
L 201.134802 -169.841324 
L 201.790308 -169.841324 
L 202.445815 -169.841324 
L 203.101322 -169.841324 
L 203.756828 -169.841324 
L 204.412335 -169.841324 
L 205.067841 -169.841324 
L 205.723348 -169.841324 
L 206.378855 -169.841324 
L 207.034361 -169.841324 
L 207.689868 -169.841324 
L 208.345374 -169.841324 
L 209.000881 -169.841324 
L 209.656388 -169.841324 
L 210.311894 -169.841324 
L 210.967401 -169.841324 
L 211.622907 -169.841324 
L 212.278414 -169.841324 
L 212.933921 -169.841324 
L 213.589427 -169.841324 
L 214.244934 -169.841324 
L 214.900441 -169.841324 
L 215.555947 -169.841324 
L 216.211454 -169.841324 
L 216.86696 -169.841324 
L 217.522467 -169.841324 
L 218.177974 -169.841324 
L 218.83348 -169.841324 
L 219.488987 -169.841324 
L 220.144493 -169.841324 
L 220.8 -169.841324 
L 221.455507 -169.841324 
L 222.111013 -169.841324 
L 222.76652 -169.841324 
L 223.422026 -169.841324 
L 224.077533 -169.841324 
L 224.73304 -169.841324 
L 225.388546 -169.841324 
L 226.044053 -169.841324 
L 226.699559 -169.841324 
L 227.355066 -169.841324 
L 228.010573 -169.841324 
L 228.666079 -169.841324 
L 229.321586 -169.841324 
L 229.977093 -169.841324 
L 230.632599 -169.841324 
L 231.288106 -169.841324 
L 231.943612 -169.841324 
L 232.599119 -169.841324 
L 233.254626 -169.841324 
L 233.910132 -169.841324 
L 234.565639 -169.841324 
L 235.221145 -169.841324 
L 235.876652 -169.841324 
L 236.532159 -169.841324 
L 237.187665 -169.841324 
L 237.843172 -169.841324 
L 238.498678 -169.841324 
L 239.154185 -169.841324 
L 239.809692 -169.841324 
L 240.465198 -169.841324 
L 241.120705 -169.841324 
L 241.776211 -169.841324 
L 242.431718 -169.841324 
L 243.087225 -169.841324 
L 243.742731 -169.841324 
L 244.398238 -169.841324 
L 245.053744 -169.841324 
L 245.709251 -169.841324 
L 246.364758 -169.841324 
L 247.020264 -169.841324 
L 247.675771 -169.841324 
L 248.331278 -169.841324 
L 248.986784 -169.841324 
L 249.642291 -169.841324 
L 250.297797 -169.841324 
L 250.953304 -169.841324 
L 251.608811 -169.841324 
L 252.264317 -169.841324 
L 252.919824 -169.841324 
L 253.57533 -169.841324 
L 254.230837 -169.841324 
L 254.886344 -169.841324 
L 255.54185 -169.841324 
L 256.197357 -169.841324 
L 256.852863 -169.841324 
L 257.50837 -169.841324 
L 258.163877 -169.841324 
L 258.819383 -169.841324 
L 259.47489 -169.841324 
L 260.130396 -169.841324 
L 260.785903 -169.841324 
L 261.44141 -169.841324 
L 262.096916 -169.841324 
L 262.752423 -169.841324 
L 263.40793 -169.841324 
L 264.063436 -169.841324 
L 264.718943 -169.841324 
L 265.374449 -169.841324 
L 266.029956 -169.841324 
L 266.685463 -169.841324 
L 267.340969 -169.841324 
L 267.996476 -169.841324 
L 268.651982 -169.841324 
L 269.307489 -169.841324 
L 269.962996 -169.841324 
L 270.618502 -169.841324 
L 271.274009 -169.841324 
L 271.929515 -169.841324 
L 272.585022 -169.841324 
L 273.240529 -169.841324 
L 273.896035 -169.841324 
L 274.551542 -169.841324 
L 275.207048 -169.841324 
L 275.862555 -169.841324 
L 276.518062 -169.841324 
L 277.173568 -169.841324 
L 277.829075 -169.841324 
L 278.484581 -169.841324 
L 279.140088 -169.841324 
L 279.795595 -169.841324 
L 280.451101 -169.841324 
L 281.106608 -169.841324 
L 281.762115 -169.841324 
L 282.417621 -169.841324 
L 283.073128 -169.841324 
L 283.728634 -169.841324 
L 284.384141 -169.841324 
L 285.039648 -169.841324 
L 285.695154 -169.841324 
L 286.350661 -169.841324 
L 287.006167 -169.841324 
L 287.661674 -169.841324 
L 288.317181 -169.841324 
L 288.972687 -169.841324 
L 289.628194 -169.841324 
L 290.2837 -169.841324 
L 290.939207 -169.841324 
L 291.594714 -169.841324 
L 292.25022 -169.841324 
L 292.905727 -169.841324 
L 293.561233 -169.841324 
L 294.21674 -169.841324 
L 294.872247 -169.841324 
L 295.527753 -169.841324 
L 296.18326 -169.841324 
L 296.838767 -169.841324 
L 297.494273 -169.841324 
L 298.14978 -169.841324 
L 298.805286 -169.841324 
L 299.460793 -169.841324 
L 300.1163 -169.841324 
L 300.771806 -169.841324 
L 301.427313 -169.841324 
L 302.082819 -169.841324 
L 302.738326 -169.841324 
L 303.393833 -169.841324 
L 304.049339 -169.841324 
L 304.704846 -169.841324 
L 305.360352 -169.841324 
L 306.015859 -169.841324 
L 306.671366 -169.841324 
L 307.326872 -169.841324 
L 307.982379 -169.841324 
L 308.637885 -169.841324 
L 309.293392 -169.841324 
L 309.948899 -169.841324 
L 310.604405 -169.841324 
L 311.259912 -169.841324 
L 311.915419 -169.841324 
L 312.570925 -169.841324 
L 313.226432 -169.841324 
L 313.881938 -169.841324 
L 314.537445 -169.841324 
L 315.192952 -169.841324 
L 315.848458 -169.841324 
L 316.503965 -169.841324 
L 317.159471 -169.841324 
L 317.814978 -169.841324 
L 318.470485 -169.841324 
L 319.125991 -169.841324 
L 319.781498 -169.841324 
L 320.437004 -169.841324 
L 321.092511 -169.841324 
L 321.748018 -169.841324 
L 322.403524 -169.841324 
L 323.059031 -169.841324 
L 323.714537 -169.841324 
L 324.370044 -169.841324 
L 325.025551 -169.841324 
L 325.681057 -169.841324 
L 326.336564 -169.841324 
L 326.99207 -169.841324 
L 327.647577 -169.841324 
L 328.303084 -169.841324 
L 328.95859 -169.841324 
L 329.614097 -169.841324 
L 330.269604 -169.841324 
L 330.92511 -169.841324 
L 331.580617 -169.841324 
L 332.236123 -169.841324 
L 332.89163 -169.841324 
L 333.547137 -169.841324 
L 334.202643 -169.841324 
L 334.85815 -169.841324 
L 335.513656 -169.841324 
L 336.169163 -169.841324 
L 336.82467 -169.841324 
L 337.480176 -169.841324 
L 338.135683 -169.841324 
L 338.791189 -169.841324 
L 339.446696 -169.841324 
L 340.102203 -169.841324 
L 340.757709 -169.841324 
L 341.413216 -169.841324 
L 342.068722 -169.841324 
L 342.724229 -169.841324 
L 343.379736 -169.841324 
L 344.035242 -169.841324 
L 344.690749 -169.841324 
L 345.346256 -169.841324 
L 346.001762 -169.841324 
L 346.657269 -169.841324 
L 347.312775 -169.841324 
L 347.968282 -169.841324 
L 348.623789 -169.841324 
L 349.279295 -169.841324 
L 349.934802 -169.841324 
L 350.590308 -169.841324 
L 351.245815 -169.841324 
L 351.901322 -169.841324 
L 352.556828 -169.841324 
L 353.212335 -169.841324 
L 353.867841 -169.841324 
L 354.523348 -169.841324 
L 355.178855 -169.841324 
L 355.834361 -169.841324 
L 356.489868 -169.841324 
L 357.145374 -169.841324 
L 357.800881 -169.841324 
L 358.456388 -169.841324 
L 359.111894 -169.841324 
L 359.767401 -169.841324 
L 360.422907 -169.841324 
L 361.078414 -169.841324 
L 361.733921 -169.841324 
L 362.389427 -169.841324 
L 363.044934 -169.841324 
L 363.700441 -169.841324 
L 364.355947 -169.841324 
L 365.011454 -169.841324 
L 365.66696 -169.841324 
L 366.322467 -169.841324 
L 366.977974 -169.841324 
L 367.63348 -169.841324 
L 368.288987 -169.841324 
L 368.944493 -169.841324 
L 369.6 -169.841324 
L 370.255507 -169.841324 
L 370.911013 -169.841324 
L 371.56652 -169.841324 
L 372.222026 -169.841324 
L 372.877533 -169.841324 
L 373.53304 -169.841324 
L 374.188546 -169.841324 
L 374.844053 -169.841324 
L 375.499559 -169.841324 
L 376.155066 -169.841324 
L 376.810573 -169.841324 
L 377.466079 -169.841324 
L 378.121586 -169.841324 
L 378.777093 -169.841324 
L 379.432599 -169.841324 
L 380.088106 -169.841324 
L 380.743612 -169.841324 
L 381.399119 -169.841324 
L 382.054626 -169.841324 
L 382.710132 -169.841324 
L 383.365639 -169.841324 
L 384.021145 -169.841324 
L 384.676652 -169.841324 
L 385.332159 -169.841324 
L 385.987665 -169.841324 
L 386.643172 -169.841324 
L 387.298678 -169.841324 
L 387.954185 -169.841324 
L 388.609692 -169.841324 
L 389.265198 -169.841324 
L 389.920705 -169.841324 
L 390.576211 -169.841324 
L 391.231718 -169.841324 
L 391.887225 -169.841324 
L 392.542731 -169.841324 
L 393.198238 -169.841324 
L 393.853744 -169.841324 
L 394.509251 -169.841324 
L 395.164758 -169.841324 
L 395.820264 -169.841324 
L 396.475771 -169.841324 
L 397.131278 -169.841324 
L 397.786784 -169.841324 
L 398.442291 -169.841324 
L 399.097797 -169.841324 
L 399.753304 -169.841324 
L 400.408811 -169.841324 
L 401.064317 -169.841324 
L 401.719824 -169.841324 
L 402.37533 -169.841324 
L 403.030837 -169.841324 
L 403.686344 -169.841324 
L 404.34185 -169.841324 
L 404.997357 -169.841324 
L 405.652863 -169.841324 
L 406.30837 -169.841324 
L 406.963877 -169.841324 
L 407.619383 -169.841324 
L 408.27489 -169.841324 
L 408.930396 -169.841324 
L 409.585903 -169.841324 
L 410.24141 -169.841324 
L 410.896916 -169.841324 
L 411.552423 -169.841324 
L 412.20793 -169.841324 
L 412.863436 -169.841324 
L 413.518943 -169.841324 
L 414.174449 -169.841324 
L 414.829956 -169.841324 
L 415.485463 -169.841324 
L 416.140969 -169.841324 
L 416.796476 -169.841324 
L 417.451982 -169.841324 
L 418.107489 -169.841324 
L 418.762996 -169.841324 
L 419.418502 -169.841324 
L 420.074009 -169.841324 
L 420.729515 -169.841324 
L 421.385022 -169.841324 
L 422.040529 -169.841324 
L 422.696035 -169.841324 
L 423.351542 -169.841324 
L 424.007048 -169.841324 
L 424.662555 -169.841324 
L 425.318062 -169.841324 
L 425.973568 -169.841324 
L 426.629075 -169.841324 
L 427.284581 -169.841324 
L 427.940088 -169.841324 
L 428.595595 -169.841324 
L 429.251101 -169.841324 
L 429.906608 -169.841324 
L 430.562115 -169.841324 
L 431.217621 -169.841324 
L 431.873128 -169.841324 
L 432.528634 -169.841324 
L 433.184141 -169.841324 
L 433.839648 -169.841324 
L 434.495154 -169.841324 
L 435.150661 -169.841324 
L 435.806167 -169.841324 
L 436.461674 -169.841324 
L 437.117181 -169.841324 
L 437.772687 -169.841324 
L 438.428194 -169.841324 
L 439.0837 -169.841324 
L 439.739207 -169.841324 
L 440.394714 -169.841324 
L 441.05022 -169.841324 
L 441.705727 -169.841324 
L 442.361233 -169.841324 
L 443.01674 -169.841324 
L 443.672247 -169.841324 
L 444.327753 -169.841324 
L 444.98326 -169.841324 
L 445.638767 -169.841324 
L 446.294273 -169.841324 
L 446.94978 -169.841324 
L 447.605286 -169.841324 
L 448.260793 -169.841324 
L 448.9163 -169.841324 
L 449.571806 -169.841324 
L 450.227313 -169.841324 
L 450.882819 -169.841324 
L 451.538326 -169.841324 
L 452.193833 -169.841324 
L 452.849339 -169.841324 
L 453.504846 -169.841324 
L 454.160352 -169.841324 
L 454.815859 -169.841324 
L 455.471366 -169.841324 
L 456.126872 -169.841324 
L 456.782379 -169.841324 
L 457.437885 -169.841324 
L 458.093392 -169.841324 
L 458.748899 -169.841324 
L 459.404405 -169.841324 
L 460.059912 -169.841324 
L 460.715419 -169.841324 
L 461.370925 -169.841324 
L 462.026432 -169.841324 
L 462.681938 -169.841324 
L 463.337445 -169.841324 
L 463.992952 -169.841324 
L 464.648458 -169.841324 
L 465.303965 -169.841324 
L 465.959471 -169.841324 
L 466.614978 -169.841324 
L 467.270485 -169.841324 
L 467.925991 -169.841324 
L 468.581498 -169.841324 
L 469.237004 -169.841324 
L 469.892511 -169.841324 
L 470.548018 -169.841324 
L 471.203524 -169.841324 
L 471.859031 -169.841324 
L 472.514537 -169.841324 
L 473.170044 -169.841324 
L 473.825551 -169.841324 
L 474.481057 -169.841324 
L 475.136564 -169.841324 
L 475.79207 -169.841324 
L 476.447577 -169.841324 
L 477.103084 -169.841324 
L 477.75859 -169.841324 
L 478.414097 -169.841324 
L 479.069604 -169.841324 
L 479.72511 -169.841324 
L 480.380617 -169.841324 
L 481.036123 -169.841324 
L 481.69163 -169.841324 
L 482.347137 -169.841324 
L 483.002643 -169.841324 
L 483.65815 -169.841324 
L 484.313656 -169.841324 
L 484.969163 -169.841324 
L 485.62467 -169.841324 
L 486.280176 -169.841324 
L 486.935683 -169.841324 
L 487.591189 -169.841324 
L 488.246696 -169.841324 
L 488.902203 -169.841324 
L 489.557709 -169.841324 
L 490.213216 -169.841324 
L 490.868722 -169.841324 
L 491.524229 -169.841324 
L 492.179736 -169.841324 
L 492.835242 -169.841324 
L 493.490749 -169.841324 
L 494.146256 -169.841324 
L 494.801762 -169.841324 
L 495.457269 -169.841324 
L 496.112775 -169.841324 
L 496.768282 -169.841324 
L 497.423789 -169.841324 
L 498.079295 -169.841324 
L 498.734802 -169.841324 
L 499.390308 -169.841324 
L 500.045815 -169.841324 
L 500.701322 -169.841324 
L 501.356828 -169.841324 
L 502.012335 -169.841324 
L 502.667841 -169.841324 
L 503.323348 -169.841324 
L 503.978855 -169.841324 
L 504.634361 -169.841324 
L 505.289868 -169.841324 
L 505.945374 -169.841324 
L 506.600881 -169.841324 
L 507.256388 -169.841324 
L 507.911894 -169.841324 
L 508.567401 -169.841324 
L 509.222907 -169.841324 
L 509.878414 -169.841324 
L 510.533921 -169.841324 
L 511.189427 -169.841324 
L 511.844934 -169.841324 
L 512.500441 -169.841324 
L 513.155947 -169.841324 
L 513.811454 -169.841324 
L 514.46696 -169.841324 
L 515.122467 -169.841324 
L 515.777974 -169.841324 
L 516.43348 -169.841324 
L 517.088987 -169.841324 
L 517.744493 -169.841324 
L 518.4 -169.841324 
L 518.4 -164.334847 
L 518.4 -164.334847 
L 517.744493 -164.334847 
L 517.088987 -164.334847 
L 516.43348 -164.334847 
L 515.777974 -164.334847 
L 515.122467 -164.334847 
L 514.46696 -164.334847 
L 513.811454 -164.334847 
L 513.155947 -164.334847 
L 512.500441 -164.334847 
L 511.844934 -164.334847 
L 511.189427 -164.334847 
L 510.533921 -164.334847 
L 509.878414 -164.334847 
L 509.222907 -164.334847 
L 508.567401 -164.334847 
L 507.911894 -164.334847 
L 507.256388 -164.334847 
L 506.600881 -164.334847 
L 505.945374 -164.334847 
L 505.289868 -164.334847 
L 504.634361 -164.334847 
L 503.978855 -164.334847 
L 503.323348 -164.334847 
L 502.667841 -164.334847 
L 502.012335 -164.334847 
L 501.356828 -164.334847 
L 500.701322 -164.334847 
L 500.045815 -164.334847 
L 499.390308 -164.334847 
L 498.734802 -164.334847 
L 498.079295 -164.334847 
L 497.423789 -164.334847 
L 496.768282 -164.334847 
L 496.112775 -164.334847 
L 495.457269 -164.334847 
L 494.801762 -164.334847 
L 494.146256 -164.334847 
L 493.490749 -164.334847 
L 492.835242 -164.334847 
L 492.179736 -164.334847 
L 491.524229 -164.334847 
L 490.868722 -164.334847 
L 490.213216 -164.334847 
L 489.557709 -164.334847 
L 488.902203 -164.334847 
L 488.246696 -164.334847 
L 487.591189 -164.334847 
L 486.935683 -164.334847 
L 486.280176 -164.334847 
L 485.62467 -164.334847 
L 484.969163 -164.334847 
L 484.313656 -164.334847 
L 483.65815 -164.334847 
L 483.002643 -164.334847 
L 482.347137 -164.334847 
L 481.69163 -164.334847 
L 481.036123 -164.334847 
L 480.380617 -164.334847 
L 479.72511 -164.334847 
L 479.069604 -164.334847 
L 478.414097 -164.334847 
L 477.75859 -164.334847 
L 477.103084 -164.334847 
L 476.447577 -164.334847 
L 475.79207 -164.334847 
L 475.136564 -164.334847 
L 474.481057 -164.334847 
L 473.825551 -164.334847 
L 473.170044 -164.334847 
L 472.514537 -164.334847 
L 471.859031 -164.334847 
L 471.203524 -164.334847 
L 470.548018 -164.334847 
L 469.892511 -164.334847 
L 469.237004 -164.334847 
L 468.581498 -164.334847 
L 467.925991 -164.334847 
L 467.270485 -164.334847 
L 466.614978 -164.334847 
L 465.959471 -164.334847 
L 465.303965 -164.334847 
L 464.648458 -164.334847 
L 463.992952 -164.334847 
L 463.337445 -164.334847 
L 462.681938 -164.334847 
L 462.026432 -164.334847 
L 461.370925 -164.334847 
L 460.715419 -164.334847 
L 460.059912 -164.334847 
L 459.404405 -164.334847 
L 458.748899 -164.334847 
L 458.093392 -164.334847 
L 457.437885 -164.334847 
L 456.782379 -164.334847 
L 456.126872 -164.334847 
L 455.471366 -164.334847 
L 454.815859 -164.334847 
L 454.160352 -164.334847 
L 453.504846 -164.334847 
L 452.849339 -164.334847 
L 452.193833 -164.334847 
L 451.538326 -164.334847 
L 450.882819 -164.334847 
L 450.227313 -164.334847 
L 449.571806 -164.334847 
L 448.9163 -164.334847 
L 448.260793 -164.334847 
L 447.605286 -164.334847 
L 446.94978 -164.334847 
L 446.294273 -164.334847 
L 445.638767 -164.334847 
L 444.98326 -164.334847 
L 444.327753 -164.334847 
L 443.672247 -164.334847 
L 443.01674 -164.334847 
L 442.361233 -164.334847 
L 441.705727 -164.334847 
L 441.05022 -164.334847 
L 440.394714 -164.334847 
L 439.739207 -164.334847 
L 439.0837 -164.334847 
L 438.428194 -164.334847 
L 437.772687 -164.334847 
L 437.117181 -164.334847 
L 436.461674 -164.334847 
L 435.806167 -164.334847 
L 435.150661 -164.334847 
L 434.495154 -164.334847 
L 433.839648 -164.334847 
L 433.184141 -164.334847 
L 432.528634 -164.334847 
L 431.873128 -164.334847 
L 431.217621 -164.334847 
L 430.562115 -164.334847 
L 429.906608 -164.334847 
L 429.251101 -164.334847 
L 428.595595 -164.334847 
L 427.940088 -164.334847 
L 427.284581 -164.334847 
L 426.629075 -164.334847 
L 425.973568 -164.334847 
L 425.318062 -164.334847 
L 424.662555 -164.334847 
L 424.007048 -164.334847 
L 423.351542 -164.334847 
L 422.696035 -164.334847 
L 422.040529 -164.334847 
L 421.385022 -164.334847 
L 420.729515 -164.334847 
L 420.074009 -164.334847 
L 419.418502 -164.334847 
L 418.762996 -164.334847 
L 418.107489 -164.334847 
L 417.451982 -164.334847 
L 416.796476 -164.334847 
L 416.140969 -164.334847 
L 415.485463 -164.334847 
L 414.829956 -164.334847 
L 414.174449 -164.334847 
L 413.518943 -164.334847 
L 412.863436 -164.334847 
L 412.20793 -164.334847 
L 411.552423 -164.334847 
L 410.896916 -164.334847 
L 410.24141 -164.334847 
L 409.585903 -164.334847 
L 408.930396 -164.334847 
L 408.27489 -164.334847 
L 407.619383 -164.334847 
L 406.963877 -164.334847 
L 406.30837 -164.334847 
L 405.652863 -164.334847 
L 404.997357 -164.334847 
L 404.34185 -164.334847 
L 403.686344 -164.334847 
L 403.030837 -164.334847 
L 402.37533 -164.334847 
L 401.719824 -164.334847 
L 401.064317 -164.334847 
L 400.408811 -164.334847 
L 399.753304 -164.334847 
L 399.097797 -164.334847 
L 398.442291 -164.334847 
L 397.786784 -164.334847 
L 397.131278 -164.334847 
L 396.475771 -164.334847 
L 395.820264 -164.334847 
L 395.164758 -164.334847 
L 394.509251 -164.334847 
L 393.853744 -164.334847 
L 393.198238 -164.334847 
L 392.542731 -164.334847 
L 391.887225 -164.334847 
L 391.231718 -164.334847 
L 390.576211 -164.334847 
L 389.920705 -164.334847 
L 389.265198 -164.334847 
L 388.609692 -164.334847 
L 387.954185 -164.334847 
L 387.298678 -164.334847 
L 386.643172 -164.334847 
L 385.987665 -164.334847 
L 385.332159 -164.334847 
L 384.676652 -164.334847 
L 384.021145 -164.334847 
L 383.365639 -164.334847 
L 382.710132 -164.334847 
L 382.054626 -164.334847 
L 381.399119 -164.334847 
L 380.743612 -164.334847 
L 380.088106 -164.334847 
L 379.432599 -164.334847 
L 378.777093 -164.334847 
L 378.121586 -164.334847 
L 377.466079 -164.334847 
L 376.810573 -164.334847 
L 376.155066 -164.334847 
L 375.499559 -164.334847 
L 374.844053 -164.334847 
L 374.188546 -164.334847 
L 373.53304 -164.334847 
L 372.877533 -164.334847 
L 372.222026 -164.334847 
L 371.56652 -164.334847 
L 370.911013 -164.334847 
L 370.255507 -164.334847 
L 369.6 -164.334847 
L 368.944493 -164.334847 
L 368.288987 -164.334847 
L 367.63348 -164.334847 
L 366.977974 -164.334847 
L 366.322467 -164.334847 
L 365.66696 -164.334847 
L 365.011454 -164.334847 
L 364.355947 -164.334847 
L 363.700441 -164.334847 
L 363.044934 -164.334847 
L 362.389427 -164.334847 
L 361.733921 -164.334847 
L 361.078414 -164.334847 
L 360.422907 -164.334847 
L 359.767401 -164.334847 
L 359.111894 -164.334847 
L 358.456388 -164.334847 
L 357.800881 -164.334847 
L 357.145374 -164.334847 
L 356.489868 -164.334847 
L 355.834361 -164.334847 
L 355.178855 -164.334847 
L 354.523348 -164.334847 
L 353.867841 -164.334847 
L 353.212335 -164.334847 
L 352.556828 -164.334847 
L 351.901322 -164.334847 
L 351.245815 -164.334847 
L 350.590308 -164.334847 
L 349.934802 -164.334847 
L 349.279295 -164.334847 
L 348.623789 -164.334847 
L 347.968282 -164.334847 
L 347.312775 -164.334847 
L 346.657269 -164.334847 
L 346.001762 -164.334847 
L 345.346256 -164.334847 
L 344.690749 -164.334847 
L 344.035242 -164.334847 
L 343.379736 -164.334847 
L 342.724229 -164.334847 
L 342.068722 -164.334847 
L 341.413216 -164.334847 
L 340.757709 -164.334847 
L 340.102203 -164.334847 
L 339.446696 -164.334847 
L 338.791189 -164.334847 
L 338.135683 -164.334847 
L 337.480176 -164.334847 
L 336.82467 -164.334847 
L 336.169163 -164.334847 
L 335.513656 -164.334847 
L 334.85815 -164.334847 
L 334.202643 -164.334847 
L 333.547137 -164.334847 
L 332.89163 -164.334847 
L 332.236123 -164.334847 
L 331.580617 -164.334847 
L 330.92511 -164.334847 
L 330.269604 -164.334847 
L 329.614097 -164.334847 
L 328.95859 -164.334847 
L 328.303084 -164.334847 
L 327.647577 -164.334847 
L 326.99207 -164.334847 
L 326.336564 -164.334847 
L 325.681057 -164.334847 
L 325.025551 -164.334847 
L 324.370044 -164.334847 
L 323.714537 -164.334847 
L 323.059031 -164.334847 
L 322.403524 -164.334847 
L 321.748018 -164.334847 
L 321.092511 -164.334847 
L 320.437004 -164.334847 
L 319.781498 -164.334847 
L 319.125991 -164.334847 
L 318.470485 -164.334847 
L 317.814978 -164.334847 
L 317.159471 -164.334847 
L 316.503965 -164.334847 
L 315.848458 -164.334847 
L 315.192952 -164.334847 
L 314.537445 -164.334847 
L 313.881938 -164.334847 
L 313.226432 -164.334847 
L 312.570925 -164.334847 
L 311.915419 -164.334847 
L 311.259912 -164.334847 
L 310.604405 -164.334847 
L 309.948899 -164.334847 
L 309.293392 -164.334847 
L 308.637885 -164.334847 
L 307.982379 -164.334847 
L 307.326872 -164.334847 
L 306.671366 -164.334847 
L 306.015859 -164.334847 
L 305.360352 -164.334847 
L 304.704846 -164.334847 
L 304.049339 -164.334847 
L 303.393833 -164.334847 
L 302.738326 -164.334847 
L 302.082819 -164.334847 
L 301.427313 -164.334847 
L 300.771806 -164.334847 
L 300.1163 -164.334847 
L 299.460793 -164.334847 
L 298.805286 -164.334847 
L 298.14978 -164.334847 
L 297.494273 -164.334847 
L 296.838767 -164.334847 
L 296.18326 -164.334847 
L 295.527753 -164.334847 
L 294.872247 -164.334847 
L 294.21674 -164.334847 
L 293.561233 -164.334847 
L 292.905727 -164.334847 
L 292.25022 -164.334847 
L 291.594714 -164.334847 
L 290.939207 -164.334847 
L 290.2837 -164.334847 
L 289.628194 -164.334847 
L 288.972687 -164.334847 
L 288.317181 -164.334847 
L 287.661674 -164.334847 
L 287.006167 -164.334847 
L 286.350661 -164.334847 
L 285.695154 -164.334847 
L 285.039648 -164.334847 
L 284.384141 -164.334847 
L 283.728634 -164.334847 
L 283.073128 -164.334847 
L 282.417621 -164.334847 
L 281.762115 -164.334847 
L 281.106608 -164.334847 
L 280.451101 -164.334847 
L 279.795595 -164.334847 
L 279.140088 -164.334847 
L 278.484581 -164.334847 
L 277.829075 -164.334847 
L 277.173568 -164.334847 
L 276.518062 -164.334847 
L 275.862555 -164.334847 
L 275.207048 -164.334847 
L 274.551542 -164.334847 
L 273.896035 -164.334847 
L 273.240529 -164.334847 
L 272.585022 -164.334847 
L 271.929515 -164.334847 
L 271.274009 -164.334847 
L 270.618502 -164.334847 
L 269.962996 -164.334847 
L 269.307489 -164.334847 
L 268.651982 -164.334847 
L 267.996476 -164.334847 
L 267.340969 -164.334847 
L 266.685463 -164.334847 
L 266.029956 -164.334847 
L 265.374449 -164.334847 
L 264.718943 -164.334847 
L 264.063436 -164.334847 
L 263.40793 -164.334847 
L 262.752423 -164.334847 
L 262.096916 -164.334847 
L 261.44141 -164.334847 
L 260.785903 -164.334847 
L 260.130396 -164.334847 
L 259.47489 -164.334847 
L 258.819383 -164.334847 
L 258.163877 -164.334847 
L 257.50837 -164.334847 
L 256.852863 -164.334847 
L 256.197357 -164.334847 
L 255.54185 -164.334847 
L 254.886344 -164.334847 
L 254.230837 -164.334847 
L 253.57533 -164.334847 
L 252.919824 -164.334847 
L 252.264317 -164.334847 
L 251.608811 -164.334847 
L 250.953304 -164.334847 
L 250.297797 -164.334847 
L 249.642291 -164.334847 
L 248.986784 -164.334847 
L 248.331278 -164.334847 
L 247.675771 -164.334847 
L 247.020264 -164.334847 
L 246.364758 -164.334847 
L 245.709251 -164.334847 
L 245.053744 -164.334847 
L 244.398238 -164.334847 
L 243.742731 -164.334847 
L 243.087225 -164.334847 
L 242.431718 -164.334847 
L 241.776211 -164.334847 
L 241.120705 -164.334847 
L 240.465198 -164.334847 
L 239.809692 -164.334847 
L 239.154185 -164.334847 
L 238.498678 -164.334847 
L 237.843172 -164.334847 
L 237.187665 -164.334847 
L 236.532159 -164.334847 
L 235.876652 -164.334847 
L 235.221145 -164.334847 
L 234.565639 -164.334847 
L 233.910132 -164.334847 
L 233.254626 -164.334847 
L 232.599119 -164.334847 
L 231.943612 -164.334847 
L 231.288106 -164.334847 
L 230.632599 -164.334847 
L 229.977093 -164.334847 
L 229.321586 -164.334847 
L 228.666079 -164.334847 
L 228.010573 -164.334847 
L 227.355066 -164.334847 
L 226.699559 -164.334847 
L 226.044053 -164.334847 
L 225.388546 -164.334847 
L 224.73304 -164.334847 
L 224.077533 -164.334847 
L 223.422026 -164.334847 
L 222.76652 -164.334847 
L 222.111013 -164.334847 
L 221.455507 -164.334847 
L 220.8 -164.334847 
L 220.144493 -164.334847 
L 219.488987 -164.334847 
L 218.83348 -164.334847 
L 218.177974 -164.334847 
L 217.522467 -164.334847 
L 216.86696 -164.334847 
L 216.211454 -164.334847 
L 215.555947 -164.334847 
L 214.900441 -164.334847 
L 214.244934 -164.334847 
L 213.589427 -164.334847 
L 212.933921 -164.334847 
L 212.278414 -164.334847 
L 211.622907 -164.334847 
L 210.967401 -164.334847 
L 210.311894 -164.334847 
L 209.656388 -164.334847 
L 209.000881 -164.334847 
L 208.345374 -164.334847 
L 207.689868 -164.334847 
L 207.034361 -164.334847 
L 206.378855 -164.334847 
L 205.723348 -164.334847 
L 205.067841 -164.334847 
L 204.412335 -164.334847 
L 203.756828 -164.334847 
L 203.101322 -164.334847 
L 202.445815 -164.334847 
L 201.790308 -164.334847 
L 201.134802 -164.334847 
L 200.479295 -164.334847 
L 199.823789 -164.334847 
L 199.168282 -164.334847 
L 198.512775 -164.334847 
L 197.857269 -164.334847 
L 197.201762 -164.334847 
L 196.546256 -164.334847 
L 195.890749 -164.334847 
L 195.235242 -164.334847 
L 194.579736 -164.334847 
L 193.924229 -164.334847 
L 193.268722 -164.334847 
L 192.613216 -164.334847 
L 191.957709 -164.334847 
L 191.302203 -164.334847 
L 190.646696 -164.334847 
L 189.991189 -164.334847 
L 189.335683 -164.334847 
L 188.680176 -164.334847 
L 188.02467 -164.334847 
L 187.369163 -164.334847 
L 186.713656 -164.334847 
L 186.05815 -164.334847 
L 185.402643 -164.334847 
L 184.747137 -164.334847 
L 184.09163 -164.334847 
L 183.436123 -164.334847 
L 182.780617 -164.334847 
L 182.12511 -164.334847 
L 181.469604 -164.334847 
L 180.814097 -164.334847 
L 180.15859 -164.334847 
L 179.503084 -164.334847 
L 178.847577 -164.334847 
L 178.19207 -164.334847 
L 177.536564 -164.334847 
L 176.881057 -164.334847 
L 176.225551 -164.334847 
L 175.570044 -164.334847 
L 174.914537 -164.334847 
L 174.259031 -164.334847 
L 173.603524 -164.334847 
L 172.948018 -164.334847 
L 172.292511 -164.334847 
L 171.637004 -164.334847 
L 170.981498 -164.334847 
L 170.325991 -164.334847 
L 169.670485 -164.334847 
L 169.014978 -164.334847 
L 168.359471 -164.334847 
L 167.703965 -164.334847 
L 167.048458 -164.334847 
L 166.392952 -164.334847 
L 165.737445 -164.334847 
L 165.081938 -164.334847 
L 164.426432 -164.334847 
L 163.770925 -164.334847 
L 163.115419 -164.334847 
L 162.459912 -164.334847 
L 161.804405 -164.334847 
L 161.148899 -164.334847 
L 160.493392 -164.334847 
L 159.837885 -164.334847 
L 159.182379 -164.334847 
L 158.526872 -164.334847 
L 157.871366 -164.334847 
L 157.215859 -164.334847 
L 156.560352 -164.334847 
L 155.904846 -164.334847 
L 155.249339 -164.334847 
L 154.593833 -164.334847 
L 153.938326 -164.334847 
L 153.282819 -164.334847 
L 152.627313 -164.334847 
L 151.971806 -164.334847 
L 151.3163 -164.334847 
L 150.660793 -164.334847 
L 150.005286 -164.334847 
L 149.34978 -164.334847 
L 148.694273 -164.334847 
L 148.038767 -164.334847 
L 147.38326 -164.334847 
L 146.727753 -164.334847 
L 146.072247 -164.334847 
L 145.41674 -164.334847 
L 144.761233 -164.334847 
L 144.105727 -164.334847 
L 143.45022 -164.334847 
L 142.794714 -164.334847 
L 142.139207 -164.334847 
L 141.4837 -164.334847 
L 140.828194 -164.334847 
L 140.172687 -164.334847 
L 139.517181 -164.334847 
L 138.861674 -164.334847 
L 138.206167 -164.334847 
L 137.550661 -164.334847 
L 136.895154 -164.334847 
L 136.239648 -164.334847 
L 135.584141 -164.334847 
L 134.928634 -164.334847 
L 134.273128 -164.334847 
L 133.617621 -164.334847 
L 132.962115 -164.334847 
L 132.306608 -164.334847 
L 131.651101 -164.334847 
L 130.995595 -164.334847 
L 130.340088 -164.334847 
L 129.684581 -164.334847 
L 129.029075 -164.334847 
L 128.373568 -164.334847 
L 127.718062 -164.334847 
L 127.062555 -164.334847 
L 126.407048 -164.334847 
L 125.751542 -164.334847 
L 125.096035 -164.334847 
L 124.440529 -164.334847 
L 123.785022 -164.334847 
L 123.129515 -164.334847 
L 122.474009 -164.334847 
L 121.818502 -164.334847 
L 121.162996 -164.334847 
L 120.507489 -164.334847 
L 119.851982 -164.334847 
L 119.196476 -164.334847 
L 118.540969 -164.334847 
L 117.885463 -164.334847 
L 117.229956 -164.334847 
L 116.574449 -164.334847 
L 115.918943 -164.334847 
L 115.263436 -164.334847 
L 114.60793 -164.334847 
L 113.952423 -164.334847 
L 113.296916 -164.334847 
L 112.64141 -164.334847 
L 111.985903 -164.334847 
L 111.330396 -164.334847 
L 110.67489 -164.334847 
L 110.019383 -164.334847 
L 109.363877 -164.334847 
L 108.70837 -164.334847 
L 108.052863 -164.334847 
L 107.397357 -164.334847 
L 106.74185 -164.334847 
L 106.086344 -164.334847 
L 105.430837 -164.334847 
L 104.77533 -164.334847 
L 104.119824 -164.334847 
L 103.464317 -164.334847 
L 102.808811 -164.334847 
L 102.153304 -164.334847 
L 101.497797 -164.334847 
L 100.842291 -164.334847 
L 100.186784 -164.334847 
L 99.531278 -164.334847 
L 98.875771 -164.334847 
L 98.220264 -164.334847 
L 97.564758 -164.334847 
L 96.909251 -164.334847 
L 96.253744 -164.334847 
L 95.598238 -164.334847 
L 94.942731 -164.334847 
L 94.287225 -164.334847 
L 93.631718 -164.334847 
L 92.976211 -164.334847 
L 92.320705 -164.334847 
L 91.665198 -164.334847 
L 91.009692 -164.334847 
L 90.354185 -164.334847 
L 89.698678 -164.334847 
L 89.043172 -164.334847 
L 88.387665 -164.334847 
L 87.732159 -164.334847 
L 87.076652 -164.334847 
L 86.421145 -164.334847 
L 85.765639 -164.334847 
L 85.110132 -164.334847 
L 84.454626 -164.334847 
L 83.799119 -164.334847 
L 83.143612 -164.334847 
L 82.488106 -164.334847 
L 81.832599 -164.334847 
L 81.177093 -164.334847 
L 80.521586 -164.334847 
L 79.866079 -164.334847 
L 79.210573 -164.334847 
L 78.555066 -164.334847 
L 77.899559 -164.334847 
L 77.244053 -164.334847 
L 76.588546 -164.334847 
L 75.93304 -164.334847 
L 75.277533 -164.334847 
L 74.622026 -164.334847 
L 73.96652 -164.334847 
L 73.311013 -164.334847 
L 72.655507 -164.334847 
L 72 -164.334847 
z
" id="mefbfb942be"/>
    </defs>
    <g clip-path="url(#pcd594c8f39)">
     <use style="fill-opacity:0.15;" x="0" xlink:href="#mefbfb942be" y="360"/>
    </g>
   </g>
   <g id="matplotlib.axis_1">
    <g id="xtick_1">
     <g id="line2d_1">
      <defs>
       <path d="M 0 0 
L 0 3.5 
" id="m92ca9991c1" style="stroke:#000000;stroke-width:0.8;"/>
      </defs>
      <g>
       <use style="stroke:#000000;stroke-width:0.8;" x="72" xlink:href="#m92ca9991c1" y="320.4"/>
      </g>
     </g>
     <g id="text_1">
      <!-- 0.0 -->
      <g transform="translate(60.867812 338.037813)scale(0.14 -0.14)">
       <defs>
        <path d="M 2034 4250 
Q 1547 4250 1301 3770 
Q 1056 3291 1056 2328 
Q 1056 1369 1301 889 
Q 1547 409 2034 409 
Q 2525 409 2770 889 
Q 3016 1369 3016 2328 
Q 3016 3291 2770 3770 
Q 2525 4250 2034 4250 
z
M 2034 4750 
Q 2819 4750 3233 4129 
Q 3647 3509 3647 2328 
Q 3647 1150 3233 529 
Q 2819 -91 2034 -91 
Q 1250 -91 836 529 
Q 422 1150 422 2328 
Q 422 3509 836 4129 
Q 1250 4750 2034 4750 
z
" id="DejaVuSans-30" transform="scale(0.015625)"/>
        <path d="M 684 794 
L 1344 794 
L 1344 0 
L 684 0 
L 684 794 
z
" id="DejaVuSans-2e" transform="scale(0.015625)"/>
       </defs>
       <use xlink:href="#DejaVuSans-30"/>
       <use x="63.623047" xlink:href="#DejaVuSans-2e"/>
       <use x="95.410156" xlink:href="#DejaVuSans-30"/>
      </g>
     </g>
    </g>
    <g id="xtick_2">
     <g id="line2d_2">
      <g>
       <use style="stroke:#000000;stroke-width:0.8;" x="127.844676" xlink:href="#m92ca9991c1" y="320.4"/>
      </g>
     </g>
     <g id="text_2">
      <!-- 2.5 -->
      <g transform="translate(116.712488 338.037813)scale(0.14 -0.14)">
       <defs>
        <path d="M 1228 531 
L 3431 531 
L 3431 0 
L 469 0 
L 469 531 
Q 828 903 1448 1529 
Q 2069 2156 2228 2338 
Q 2531 2678 2651 2914 
Q 2772 3150 2772 3378 
Q 2772 3750 2511 3984 
Q 2250 4219 1831 4219 
Q 1534 4219 1204 4116 
Q 875 4013 500 3803 
L 500 4441 
Q 881 4594 1212 4672 
Q 1544 4750 1819 4750 
Q 2544 4750 2975 4387 
Q 3406 4025 3406 3419 
Q 3406 3131 3298 2873 
Q 3191 2616 2906 2266 
Q 2828 2175 2409 1742 
Q 1991 1309 1228 531 
z
" id="DejaVuSans-32" transform="scale(0.015625)"/>
        <path d="M 691 4666 
L 3169 4666 
L 3169 4134 
L 1269 4134 
L 1269 2991 
Q 1406 3038 1543 3061 
Q 1681 3084 1819 3084 
Q 2600 3084 3056 2656 
Q 3513 2228 3513 1497 
Q 3513 744 3044 326 
Q 2575 -91 1722 -91 
Q 1428 -91 1123 -41 
Q 819 9 494 109 
L 494 744 
Q 775 591 1075 516 
Q 1375 441 1709 441 
Q 2250 441 2565 725 
Q 2881 1009 2881 1497 
Q 2881 1984 2565 2268 
Q 2250 2553 1709 2553 
Q 1456 2553 1204 2497 
Q 953 2441 691 2322 
L 691 4666 
z
" id="DejaVuSans-35" transform="scale(0.015625)"/>
       </defs>
       <use xlink:href="#DejaVuSans-32"/>
       <use x="63.623047" xlink:href="#DejaVuSans-2e"/>
       <use x="95.410156" xlink:href="#DejaVuSans-35"/>
      </g>
     </g>
    </g>
    <g id="xtick_3">
     <g id="line2d_3">
      <g>
       <use style="stroke:#000000;stroke-width:0.8;" x="183.689351" xlink:href="#m92ca9991c1" y="320.4"/>
      </g>
     </g>
     <g id="text_3">
      <!-- 5.0 -->
      <g transform="translate(172.557164 338.037813)scale(0.14 -0.14)">
       <use xlink:href="#DejaVuSans-35"/>
       <use x="63.623047" xlink:href="#DejaVuSans-2e"/>
       <use x="95.410156" xlink:href="#DejaVuSans-30"/>
      </g>
     </g>
    </g>
    <g id="xtick_4">
     <g id="line2d_4">
      <g>
       <use style="stroke:#000000;stroke-width:0.8;" x="239.534027" xlink:href="#m92ca9991c1" y="320.4"/>
      </g>
     </g>
     <g id="text_4">
      <!-- 7.5 -->
      <g transform="translate(228.40184 338.037813)scale(0.14 -0.14)">
       <defs>
        <path d="M 525 4666 
L 3525 4666 
L 3525 4397 
L 1831 0 
L 1172 0 
L 2766 4134 
L 525 4134 
L 525 4666 
z
" id="DejaVuSans-37" transform="scale(0.015625)"/>
       </defs>
       <use xlink:href="#DejaVuSans-37"/>
       <use x="63.623047" xlink:href="#DejaVuSans-2e"/>
       <use x="95.410156" xlink:href="#DejaVuSans-35"/>
      </g>
     </g>
    </g>
    <g id="xtick_5">
     <g id="line2d_5">
      <g>
       <use style="stroke:#000000;stroke-width:0.8;" x="295.378703" xlink:href="#m92ca9991c1" y="320.4"/>
      </g>
     </g>
     <g id="text_5">
      <!-- 10.0 -->
      <g transform="translate(279.792765 338.037813)scale(0.14 -0.14)">
       <defs>
        <path d="M 794 531 
L 1825 531 
L 1825 4091 
L 703 3866 
L 703 4441 
L 1819 4666 
L 2450 4666 
L 2450 531 
L 3481 531 
L 3481 0 
L 794 0 
L 794 531 
z
" id="DejaVuSans-31" transform="scale(0.015625)"/>
       </defs>
       <use xlink:href="#DejaVuSans-31"/>
       <use x="63.623047" xlink:href="#DejaVuSans-30"/>
       <use x="127.246094" xlink:href="#DejaVuSans-2e"/>
       <use x="159.033203" xlink:href="#DejaVuSans-30"/>
      </g>
     </g>
    </g>
    <g id="xtick_6">
     <g id="line2d_6">
      <g>
       <use style="stroke:#000000;stroke-width:0.8;" x="351.223379" xlink:href="#m92ca9991c1" y="320.4"/>
      </g>
     </g>
     <g id="text_6">
      <!-- 12.5 -->
      <g transform="translate(335.637441 338.037813)scale(0.14 -0.14)">
       <use xlink:href="#DejaVuSans-31"/>
       <use x="63.623047" xlink:href="#DejaVuSans-32"/>
       <use x="127.246094" xlink:href="#DejaVuSans-2e"/>
       <use x="159.033203" xlink:href="#DejaVuSans-35"/>
      </g>
     </g>
    </g>
    <g id="xtick_7">
     <g id="line2d_7">
      <g>
       <use style="stroke:#000000;stroke-width:0.8;" x="407.068054" xlink:href="#m92ca9991c1" y="320.4"/>
      </g>
     </g>
     <g id="text_7">
      <!-- 15.0 -->
      <g transform="translate(391.482117 338.037813)scale(0.14 -0.14)">
       <use xlink:href="#DejaVuSans-31"/>
       <use x="63.623047" xlink:href="#DejaVuSans-35"/>
       <use x="127.246094" xlink:href="#DejaVuSans-2e"/>
       <use x="159.033203" xlink:href="#DejaVuSans-30"/>
      </g>
     </g>
    </g>
    <g id="xtick_8">
     <g id="line2d_8">
      <g>
       <use style="stroke:#000000;stroke-width:0.8;" x="462.91273" xlink:href="#m92ca9991c1" y="320.4"/>
      </g>
     </g>
     <g id="text_8">
      <!-- 17.5 -->
      <g transform="translate(447.326793 338.037813)scale(0.14 -0.14)">
       <use xlink:href="#DejaVuSans-31"/>
       <use x="63.623047" xlink:href="#DejaVuSans-37"/>
       <use x="127.246094" xlink:href="#DejaVuSans-2e"/>
       <use x="159.033203" xlink:href="#DejaVuSans-35"/>
      </g>
     </g>
    </g>
    <g id="text_9">
     <!-- Time [Seconds] -->
     <g transform="translate(233.23 357.106875)scale(0.16 -0.16)">
      <defs>
       <path d="M -19 4666 
L 3928 4666 
L 3928 4134 
L 2272 4134 
L 2272 0 
L 1638 0 
L 1638 4134 
L -19 4134 
L -19 4666 
z
" id="DejaVuSans-54" transform="scale(0.015625)"/>
       <path d="M 603 3500 
L 1178 3500 
L 1178 0 
L 603 0 
L 603 3500 
z
M 603 4863 
L 1178 4863 
L 1178 4134 
L 603 4134 
L 603 4863 
z
" id="DejaVuSans-69" transform="scale(0.015625)"/>
       <path d="M 3328 2828 
Q 3544 3216 3844 3400 
Q 4144 3584 4550 3584 
Q 5097 3584 5394 3201 
Q 5691 2819 5691 2113 
L 5691 0 
L 5113 0 
L 5113 2094 
Q 5113 2597 4934 2840 
Q 4756 3084 4391 3084 
Q 3944 3084 3684 2787 
Q 3425 2491 3425 1978 
L 3425 0 
L 2847 0 
L 2847 2094 
Q 2847 2600 2669 2842 
Q 2491 3084 2119 3084 
Q 1678 3084 1418 2786 
Q 1159 2488 1159 1978 
L 1159 0 
L 581 0 
L 581 3500 
L 1159 3500 
L 1159 2956 
Q 1356 3278 1631 3431 
Q 1906 3584 2284 3584 
Q 2666 3584 2933 3390 
Q 3200 3197 3328 2828 
z
" id="DejaVuSans-6d" transform="scale(0.015625)"/>
       <path d="M 3597 1894 
L 3597 1613 
L 953 1613 
Q 991 1019 1311 708 
Q 1631 397 2203 397 
Q 2534 397 2845 478 
Q 3156 559 3463 722 
L 3463 178 
Q 3153 47 2828 -22 
Q 2503 -91 2169 -91 
Q 1331 -91 842 396 
Q 353 884 353 1716 
Q 353 2575 817 3079 
Q 1281 3584 2069 3584 
Q 2775 3584 3186 3129 
Q 3597 2675 3597 1894 
z
M 3022 2063 
Q 3016 2534 2758 2815 
Q 2500 3097 2075 3097 
Q 1594 3097 1305 2825 
Q 1016 2553 972 2059 
L 3022 2063 
z
" id="DejaVuSans-65" transform="scale(0.015625)"/>
       <path id="DejaVuSans-20" transform="scale(0.015625)"/>
       <path d="M 550 4863 
L 1875 4863 
L 1875 4416 
L 1125 4416 
L 1125 -397 
L 1875 -397 
L 1875 -844 
L 550 -844 
L 550 4863 
z
" id="DejaVuSans-5b" transform="scale(0.015625)"/>
       <path d="M 3425 4513 
L 3425 3897 
Q 3066 4069 2747 4153 
Q 2428 4238 2131 4238 
Q 1616 4238 1336 4038 
Q 1056 3838 1056 3469 
Q 1056 3159 1242 3001 
Q 1428 2844 1947 2747 
L 2328 2669 
Q 3034 2534 3370 2195 
Q 3706 1856 3706 1288 
Q 3706 609 3251 259 
Q 2797 -91 1919 -91 
Q 1588 -91 1214 -16 
Q 841 59 441 206 
L 441 856 
Q 825 641 1194 531 
Q 1563 422 1919 422 
Q 2459 422 2753 634 
Q 3047 847 3047 1241 
Q 3047 1584 2836 1778 
Q 2625 1972 2144 2069 
L 1759 2144 
Q 1053 2284 737 2584 
Q 422 2884 422 3419 
Q 422 4038 858 4394 
Q 1294 4750 2059 4750 
Q 2388 4750 2728 4690 
Q 3069 4631 3425 4513 
z
" id="DejaVuSans-53" transform="scale(0.015625)"/>
       <path d="M 3122 3366 
L 3122 2828 
Q 2878 2963 2633 3030 
Q 2388 3097 2138 3097 
Q 1578 3097 1268 2742 
Q 959 2388 959 1747 
Q 959 1106 1268 751 
Q 1578 397 2138 397 
Q 2388 397 2633 464 
Q 2878 531 3122 666 
L 3122 134 
Q 2881 22 2623 -34 
Q 2366 -91 2075 -91 
Q 1284 -91 818 406 
Q 353 903 353 1747 
Q 353 2603 823 3093 
Q 1294 3584 2113 3584 
Q 2378 3584 2631 3529 
Q 2884 3475 3122 3366 
z
" id="DejaVuSans-63" transform="scale(0.015625)"/>
       <path d="M 1959 3097 
Q 1497 3097 1228 2736 
Q 959 2375 959 1747 
Q 959 1119 1226 758 
Q 1494 397 1959 397 
Q 2419 397 2687 759 
Q 2956 1122 2956 1747 
Q 2956 2369 2687 2733 
Q 2419 3097 1959 3097 
z
M 1959 3584 
Q 2709 3584 3137 3096 
Q 3566 2609 3566 1747 
Q 3566 888 3137 398 
Q 2709 -91 1959 -91 
Q 1206 -91 779 398 
Q 353 888 353 1747 
Q 353 2609 779 3096 
Q 1206 3584 1959 3584 
z
" id="DejaVuSans-6f" transform="scale(0.015625)"/>
       <path d="M 3513 2113 
L 3513 0 
L 2938 0 
L 2938 2094 
Q 2938 2591 2744 2837 
Q 2550 3084 2163 3084 
Q 1697 3084 1428 2787 
Q 1159 2491 1159 1978 
L 1159 0 
L 581 0 
L 581 3500 
L 1159 3500 
L 1159 2956 
Q 1366 3272 1645 3428 
Q 1925 3584 2291 3584 
Q 2894 3584 3203 3211 
Q 3513 2838 3513 2113 
z
" id="DejaVuSans-6e" transform="scale(0.015625)"/>
       <path d="M 2906 2969 
L 2906 4863 
L 3481 4863 
L 3481 0 
L 2906 0 
L 2906 525 
Q 2725 213 2448 61 
Q 2172 -91 1784 -91 
Q 1150 -91 751 415 
Q 353 922 353 1747 
Q 353 2572 751 3078 
Q 1150 3584 1784 3584 
Q 2172 3584 2448 3432 
Q 2725 3281 2906 2969 
z
M 947 1747 
Q 947 1113 1208 752 
Q 1469 391 1925 391 
Q 2381 391 2643 752 
Q 2906 1113 2906 1747 
Q 2906 2381 2643 2742 
Q 2381 3103 1925 3103 
Q 1469 3103 1208 2742 
Q 947 2381 947 1747 
z
" id="DejaVuSans-64" transform="scale(0.015625)"/>
       <path d="M 2834 3397 
L 2834 2853 
Q 2591 2978 2328 3040 
Q 2066 3103 1784 3103 
Q 1356 3103 1142 2972 
Q 928 2841 928 2578 
Q 928 2378 1081 2264 
Q 1234 2150 1697 2047 
L 1894 2003 
Q 2506 1872 2764 1633 
Q 3022 1394 3022 966 
Q 3022 478 2636 193 
Q 2250 -91 1575 -91 
Q 1294 -91 989 -36 
Q 684 19 347 128 
L 347 722 
Q 666 556 975 473 
Q 1284 391 1588 391 
Q 1994 391 2212 530 
Q 2431 669 2431 922 
Q 2431 1156 2273 1281 
Q 2116 1406 1581 1522 
L 1381 1569 
Q 847 1681 609 1914 
Q 372 2147 372 2553 
Q 372 3047 722 3315 
Q 1072 3584 1716 3584 
Q 2034 3584 2315 3537 
Q 2597 3491 2834 3397 
z
" id="DejaVuSans-73" transform="scale(0.015625)"/>
       <path d="M 1947 4863 
L 1947 -844 
L 622 -844 
L 622 -397 
L 1369 -397 
L 1369 4416 
L 622 4416 
L 622 4863 
L 1947 4863 
z
" id="DejaVuSans-5d" transform="scale(0.015625)"/>
      </defs>
      <use xlink:href="#DejaVuSans-54"/>
      <use x="57.958984" xlink:href="#DejaVuSans-69"/>
      <use x="85.742188" xlink:href="#DejaVuSans-6d"/>
      <use x="183.154297" xlink:href="#DejaVuSans-65"/>
      <use x="244.677734" xlink:href="#DejaVuSans-20"/>
      <use x="276.464844" xlink:href="#DejaVuSans-5b"/>
      <use x="315.478516" xlink:href="#DejaVuSans-53"/>
      <use x="378.955078" xlink:href="#DejaVuSans-65"/>
      <use x="440.478516" xlink:href="#DejaVuSans-63"/>
      <use x="495.458984" xlink:href="#DejaVuSans-6f"/>
      <use x="556.640625" xlink:href="#DejaVuSans-6e"/>
      <use x="620.019531" xlink:href="#DejaVuSans-64"/>
      <use x="683.496094" xlink:href="#DejaVuSans-73"/>
      <use x="735.595703" xlink:href="#DejaVuSans-5d"/>
     </g>
    </g>
   </g>
   <g id="matplotlib.axis_2">
    <g id="ytick_1">
     <g id="line2d_9">
      <defs>
       <path d="M 0 0 
L -3.5 0 
" id="m1d19d602a0" style="stroke:#000000;stroke-width:0.8;"/>
      </defs>
      <g>
       <use style="stroke:#000000;stroke-width:0.8;" x="72" xlink:href="#m1d19d602a0" y="277.488967"/>
      </g>
     </g>
     <g id="text_10">
      <!-- 0.0 -->
      <g transform="translate(42.735625 282.807873)scale(0.14 -0.14)">
       <use xlink:href="#DejaVuSans-30"/>
       <use x="63.623047" xlink:href="#DejaVuSans-2e"/>
       <use x="95.410156" xlink:href="#DejaVuSans-30"/>
      </g>
     </g>
    </g>
    <g id="ytick_2">
     <g id="line2d_10">
      <g>
       <use style="stroke:#000000;stroke-width:0.8;" x="72" xlink:href="#m1d19d602a0" y="223.933852"/>
      </g>
     </g>
     <g id="text_11">
      <!-- 0.5 -->
      <g transform="translate(42.735625 229.252759)scale(0.14 -0.14)">
       <use xlink:href="#DejaVuSans-30"/>
       <use x="63.623047" xlink:href="#DejaVuSans-2e"/>
       <use x="95.410156" xlink:href="#DejaVuSans-35"/>
      </g>
     </g>
    </g>
    <g id="ytick_3">
     <g id="line2d_11">
      <g>
       <use style="stroke:#000000;stroke-width:0.8;" x="72" xlink:href="#m1d19d602a0" y="170.378738"/>
      </g>
     </g>
     <g id="text_12">
      <!-- 1.0 -->
      <g transform="translate(42.735625 175.697644)scale(0.14 -0.14)">
       <use xlink:href="#DejaVuSans-31"/>
       <use x="63.623047" xlink:href="#DejaVuSans-2e"/>
       <use x="95.410156" xlink:href="#DejaVuSans-30"/>
      </g>
     </g>
    </g>
    <g id="ytick_4">
     <g id="line2d_12">
      <g>
       <use style="stroke:#000000;stroke-width:0.8;" x="72" xlink:href="#m1d19d602a0" y="116.823624"/>
      </g>
     </g>
     <g id="text_13">
      <!-- 1.5 -->
      <g transform="translate(42.735625 122.14253)scale(0.14 -0.14)">
       <use xlink:href="#DejaVuSans-31"/>
       <use x="63.623047" xlink:href="#DejaVuSans-2e"/>
       <use x="95.410156" xlink:href="#DejaVuSans-35"/>
      </g>
     </g>
    </g>
    <g id="ytick_5">
     <g id="line2d_13">
      <g>
       <use style="stroke:#000000;stroke-width:0.8;" x="72" xlink:href="#m1d19d602a0" y="63.26851"/>
      </g>
     </g>
     <g id="text_14">
      <!-- 2.0 -->
      <g transform="translate(42.735625 68.587416)scale(0.14 -0.14)">
       <use xlink:href="#DejaVuSans-32"/>
       <use x="63.623047" xlink:href="#DejaVuSans-2e"/>
       <use x="95.410156" xlink:href="#DejaVuSans-30"/>
      </g>
     </g>
    </g>
    <g id="text_15">
     <!-- Speed [mm/s] -->
     <g transform="translate(35.408125 238.11375)rotate(-90)scale(0.16 -0.16)">
      <defs>
       <path d="M 1159 525 
L 1159 -1331 
L 581 -1331 
L 581 3500 
L 1159 3500 
L 1159 2969 
Q 1341 3281 1617 3432 
Q 1894 3584 2278 3584 
Q 2916 3584 3314 3078 
Q 3713 2572 3713 1747 
Q 3713 922 3314 415 
Q 2916 -91 2278 -91 
Q 1894 -91 1617 61 
Q 1341 213 1159 525 
z
M 3116 1747 
Q 3116 2381 2855 2742 
Q 2594 3103 2138 3103 
Q 1681 3103 1420 2742 
Q 1159 2381 1159 1747 
Q 1159 1113 1420 752 
Q 1681 391 2138 391 
Q 2594 391 2855 752 
Q 3116 1113 3116 1747 
z
" id="DejaVuSans-70" transform="scale(0.015625)"/>
       <path d="M 1625 4666 
L 2156 4666 
L 531 -594 
L 0 -594 
L 1625 4666 
z
" id="DejaVuSans-2f" transform="scale(0.015625)"/>
      </defs>
      <use xlink:href="#DejaVuSans-53"/>
      <use x="63.476562" xlink:href="#DejaVuSans-70"/>
      <use x="126.953125" xlink:href="#DejaVuSans-65"/>
      <use x="188.476562" xlink:href="#DejaVuSans-65"/>
      <use x="250" xlink:href="#DejaVuSans-64"/>
      <use x="313.476562" xlink:href="#DejaVuSans-20"/>
      <use x="345.263672" xlink:href="#DejaVuSans-5b"/>
      <use x="384.277344" xlink:href="#DejaVuSans-6d"/>
      <use x="481.689453" xlink:href="#DejaVuSans-6d"/>
      <use x="579.101562" xlink:href="#DejaVuSans-2f"/>
      <use x="612.792969" xlink:href="#DejaVuSans-73"/>
      <use x="664.892578" xlink:href="#DejaVuSans-5d"/>
     </g>
    </g>
   </g>
   <g id="line2d_14">
    <path clip-path="url(#pcd594c8f39)" d="M 72 192.911914 
L 518.4 192.911914 
" style="fill:none;stroke:#000000;stroke-dasharray:5.55,2.4;stroke-dashoffset:0;stroke-width:1.5;"/>
   </g>
   <g id="line2d_15">
    <path clip-path="url(#pcd594c8f39)" d="M 72 276.339715 
L 121.818502 276.265566 
L 122.474009 276.64847 
L 123.129515 275.230316 
L 123.785022 273.169574 
L 124.440529 274.406212 
L 125.096035 277.272014 
L 125.751542 278.845211 
L 126.407048 278.988687 
L 127.062555 276.186391 
L 127.718062 284.370765 
L 128.373568 260.129914 
L 129.029075 250.593446 
L 129.684581 286.194705 
L 130.340088 301.97915 
L 130.995595 307.8 
L 131.651101 304.012537 
L 132.306608 292.593309 
L 132.962115 274.829055 
L 134.273128 227.698977 
L 136.895154 121.133739 
L 137.550661 99.199451 
L 138.206167 81.894221 
L 138.861674 68.475728 
L 139.517181 60.731482 
L 140.172687 56.248094 
L 140.828194 55.8 
L 141.4837 61.864327 
L 142.139207 71.682394 
L 142.794714 85.443347 
L 146.727753 187.563043 
L 147.38326 196.301517 
L 148.038767 197.411966 
L 148.694273 195.105018 
L 149.34978 186.415884 
L 150.005286 150.169561 
L 150.660793 150.380846 
L 151.3163 180.520731 
L 151.971806 180.67033 
L 153.282819 183.549495 
L 153.938326 185.316802 
L 154.593833 186.364806 
L 155.904846 189.974831 
L 156.560352 190.43852 
L 157.871366 189.944085 
L 158.526872 188.168046 
L 159.182379 188.723976 
L 159.837885 190.386655 
L 160.493392 190.103529 
L 161.148899 191.426398 
L 161.804405 191.259194 
L 162.459912 191.392842 
L 163.115419 190.137026 
L 163.770925 189.824782 
L 164.426432 191.670117 
L 165.081938 189.810326 
L 165.737445 187.388232 
L 167.048458 191.888777 
L 167.703965 189.516441 
L 168.359471 188.670278 
L 169.014978 187.15133 
L 169.670485 186.623478 
L 170.325991 189.049641 
L 170.981498 189.461811 
L 171.637004 191.131466 
L 172.292511 191.040764 
L 172.948018 192.181921 
L 173.603524 192.753919 
L 174.259031 191.913291 
L 174.914537 193.176307 
L 175.570044 193.168464 
L 176.225551 192.135686 
L 176.881057 193.037785 
L 177.536564 195.311862 
L 178.19207 195.387749 
L 178.847577 195.016588 
L 179.503084 195.153775 
L 180.15859 194.22725 
L 180.814097 193.686203 
L 181.469604 192.71383 
L 182.12511 190.071575 
L 182.780617 190.685543 
L 183.436123 193.413615 
L 184.09163 192.993532 
L 184.747137 189.349443 
L 185.402643 190.709176 
L 186.05815 192.549573 
L 186.713656 189.796069 
L 187.369163 190.213311 
L 188.02467 191.938905 
L 188.680176 193.125529 
L 189.335683 193.00337 
L 190.646696 191.701456 
L 191.302203 191.826857 
L 191.957709 194.393082 
L 192.613216 196.111945 
L 193.268722 195.747652 
L 193.924229 195.797751 
L 194.579736 197.374537 
L 195.235242 195.22697 
L 195.890749 194.315935 
L 196.546256 195.079174 
L 197.857269 191.79084 
L 198.512775 193.111242 
L 199.168282 192.683362 
L 199.823789 191.40215 
L 200.479295 192.116993 
L 201.134802 192.364768 
L 201.790308 193.012664 
L 202.445815 191.758114 
L 203.101322 191.15906 
L 203.756828 190.890893 
L 204.412335 191.752011 
L 205.067841 190.590687 
L 205.723348 188.765617 
L 206.378855 190.287858 
L 207.034361 192.564888 
L 208.345374 191.567604 
L 209.000881 193.629263 
L 209.656388 194.055878 
L 210.311894 193.830699 
L 210.967401 193.185221 
L 211.622907 193.508318 
L 212.278414 193.639274 
L 212.933921 194.74711 
L 213.589427 196.682511 
L 214.244934 194.027037 
L 214.900441 193.73833 
L 215.555947 196.597797 
L 216.211454 196.796317 
L 216.86696 193.506117 
L 217.522467 193.984576 
L 218.177974 196.250547 
L 219.488987 194.868811 
L 220.144493 196.00398 
L 220.8 193.897404 
L 221.455507 192.416077 
L 222.111013 194.465237 
L 222.76652 195.03454 
L 223.422026 193.891327 
L 224.077533 192.449808 
L 224.73304 195.095976 
L 225.388546 195.200764 
L 226.699559 191.127883 
L 227.355066 192.694207 
L 228.010573 194.866871 
L 228.666079 191.20547 
L 229.321586 188.346396 
L 230.632599 192.256168 
L 231.943612 191.025197 
L 232.599119 192.205029 
L 233.254626 192.011409 
L 233.910132 190.883578 
L 234.565639 191.456585 
L 235.221145 192.706309 
L 235.876652 192.094142 
L 236.532159 192.453821 
L 237.187665 192.001555 
L 237.843172 190.663026 
L 238.498678 192.290368 
L 239.154185 194.286696 
L 239.809692 193.905235 
L 240.465198 192.282803 
L 241.120705 193.754367 
L 241.776211 195.634238 
L 242.431718 193.269264 
L 243.087225 193.469764 
L 243.742731 196.427974 
L 244.398238 195.907005 
L 245.053744 192.546394 
L 245.709251 192.46376 
L 246.364758 196.92955 
L 247.020264 196.260032 
L 247.675771 194.094192 
L 248.331278 194.789283 
L 248.986784 196.101596 
L 249.642291 196.856371 
L 250.297797 194.929317 
L 250.953304 192.494951 
L 252.264317 193.491904 
L 252.919824 191.434788 
L 253.57533 191.418615 
L 254.230837 194.152643 
L 254.886344 192.374151 
L 255.54185 191.534689 
L 256.852863 193.980486 
L 257.50837 193.110358 
L 258.163877 191.258837 
L 258.819383 192.682559 
L 259.47489 194.602411 
L 260.130396 194.50512 
L 260.785903 193.066492 
L 261.44141 193.736422 
L 262.096916 194.617815 
L 262.752423 195.890751 
L 263.40793 195.034472 
L 264.063436 192.671165 
L 264.718943 193.64563 
L 266.029956 191.90409 
L 266.685463 192.226145 
L 267.340969 192.287857 
L 267.996476 193.884411 
L 268.651982 192.658818 
L 269.307489 191.063335 
L 269.962996 190.952071 
L 270.618502 192.689185 
L 271.274009 195.70495 
L 271.929515 196.089687 
L 272.585022 195.586719 
L 273.240529 197.517451 
L 273.896035 195.639363 
L 274.551542 192.646216 
L 275.207048 194.707123 
L 275.862555 196.143955 
L 277.829075 192.353181 
L 278.484581 192.6648 
L 279.140088 191.960984 
L 279.795595 189.213924 
L 280.451101 189.757007 
L 281.106608 190.023048 
L 281.762115 188.760239 
L 282.417621 189.335427 
L 283.073128 192.054186 
L 283.728634 192.771226 
L 284.384141 190.245467 
L 285.039648 189.963034 
L 285.695154 191.622751 
L 286.350661 192.590059 
L 287.006167 192.805356 
L 287.661674 195.436861 
L 288.317181 196.406726 
L 288.972687 195.572093 
L 289.628194 195.708658 
L 290.2837 194.751523 
L 290.939207 193.054241 
L 291.594714 190.89308 
L 292.25022 191.83218 
L 292.905727 194.055195 
L 293.561233 195.242655 
L 294.21674 195.525684 
L 294.872247 194.447163 
L 295.527753 190.439669 
L 296.18326 190.206486 
L 296.838767 193.090108 
L 297.494273 193.400085 
L 298.14978 194.794107 
L 298.805286 195.810296 
L 299.460793 195.312017 
L 300.1163 195.548231 
L 300.771806 195.214503 
L 301.427313 191.640462 
L 302.082819 191.616012 
L 303.393833 196.366622 
L 304.049339 196.129508 
L 304.704846 195.232095 
L 305.360352 194.714051 
L 306.015859 191.535088 
L 306.671366 190.515122 
L 307.326872 191.193246 
L 308.637885 193.85571 
L 309.293392 194.381104 
L 309.948899 194.516601 
L 310.604405 196.230758 
L 311.259912 194.500209 
L 311.915419 192.444221 
L 312.570925 192.325293 
L 313.881938 193.890124 
L 314.537445 193.967132 
L 315.192952 195.441977 
L 315.848458 194.165389 
L 316.503965 192.049245 
L 317.159471 189.13429 
L 317.814978 188.340155 
L 318.470485 191.184923 
L 319.125991 191.923571 
L 319.781498 193.742085 
L 320.437004 194.557816 
L 321.748018 191.251063 
L 322.403524 190.658145 
L 323.059031 191.511281 
L 323.714537 193.04498 
L 324.370044 195.956057 
L 325.025551 197.151409 
L 325.681057 197.061563 
L 326.336564 196.760385 
L 326.99207 195.772523 
L 327.647577 192.977178 
L 328.303084 191.147088 
L 328.95859 192.45272 
L 329.614097 194.657994 
L 330.269604 195.398989 
L 330.92511 193.984632 
L 331.580617 193.384152 
L 332.236123 193.386549 
L 332.89163 189.601638 
L 333.547137 189.22186 
L 334.202643 192.120858 
L 335.513656 194.062034 
L 336.169163 194.364617 
L 336.82467 196.22829 
L 337.480176 196.396341 
L 338.135683 194.450308 
L 338.791189 191.741235 
L 339.446696 190.934982 
L 340.102203 193.978561 
L 340.757709 194.663086 
L 341.413216 195.669065 
L 342.068722 196.101959 
L 343.379736 191.292995 
L 344.035242 189.826282 
L 346.001762 193.651852 
L 346.657269 194.327555 
L 347.312775 194.210392 
L 347.968282 193.521363 
L 348.623789 192.090484 
L 349.279295 189.916471 
L 349.934802 190.479026 
L 350.590308 193.989151 
L 351.901322 197.433578 
L 352.556828 197.055548 
L 353.212335 195.612294 
L 353.867841 193.291741 
L 354.523348 192.034819 
L 355.178855 192.223259 
L 355.834361 192.737226 
L 356.489868 194.780183 
L 357.145374 195.626164 
L 357.800881 194.209538 
L 358.456388 194.305874 
L 359.111894 192.760049 
L 359.767401 190.790143 
L 360.422907 190.461 
L 361.733921 193.614287 
L 362.389427 194.252658 
L 363.044934 195.652206 
L 363.700441 194.91456 
L 364.355947 193.941443 
L 365.011454 191.435775 
L 365.66696 190.917889 
L 366.322467 193.787163 
L 366.977974 193.184266 
L 367.63348 193.39958 
L 368.288987 196.057987 
L 368.944493 195.701434 
L 369.6 193.060199 
L 370.255507 191.947699 
L 370.911013 191.95678 
L 371.56652 192.110317 
L 372.222026 193.269236 
L 372.877533 194.015695 
L 373.53304 196.234846 
L 374.188546 195.801087 
L 374.844053 193.471403 
L 375.499559 190.598781 
L 376.155066 190.741249 
L 376.810573 192.921491 
L 377.466079 193.735418 
L 378.121586 194.067809 
L 378.777093 193.147814 
L 379.432599 192.680023 
L 380.088106 191.903087 
L 380.743612 189.837382 
L 382.710132 193.494883 
L 383.365639 195.662609 
L 384.676652 195.826826 
L 385.332159 194.677863 
L 385.987665 194.705966 
L 386.643172 193.876896 
L 387.298678 194.242102 
L 387.954185 194.455437 
L 388.609692 194.376333 
L 389.920705 196.054905 
L 390.576211 195.54548 
L 391.231718 193.211351 
L 391.887225 193.579575 
L 392.542731 194.55534 
L 393.853744 193.489189 
L 394.509251 192.893655 
L 395.164758 192.60768 
L 395.820264 191.082605 
L 396.475771 189.090818 
L 397.131278 187.899305 
L 398.442291 191.536776 
L 399.097797 190.5442 
L 399.753304 191.932688 
L 400.408811 194.681798 
L 401.719824 191.890388 
L 402.37533 194.591017 
L 403.030837 195.072003 
L 403.686344 193.604376 
L 404.997357 198.350723 
L 406.963877 194.587696 
L 408.27489 192.299852 
L 408.930396 190.584397 
L 409.585903 190.654938 
L 410.24141 192.083045 
L 411.552423 189.07272 
L 412.20793 190.421283 
L 412.863436 192.799121 
L 413.518943 194.293342 
L 414.829956 198.910612 
L 415.485463 196.470795 
L 416.140969 195.6025 
L 416.796476 196.459784 
L 417.451982 194.375252 
L 418.107489 193.929755 
L 419.418502 192.053053 
L 420.074009 191.676356 
L 420.729515 192.254145 
L 421.385022 194.599703 
L 422.040529 193.698793 
L 422.696035 190.735828 
L 423.351542 191.315734 
L 424.007048 194.032703 
L 424.662555 190.619714 
L 425.318062 189.574308 
L 425.973568 192.229105 
L 426.629075 192.613051 
L 427.284581 192.333533 
L 427.940088 191.510545 
L 428.595595 191.807284 
L 429.251101 192.431892 
L 429.906608 191.683931 
L 430.562115 192.119062 
L 431.217621 194.146145 
L 431.873128 194.535244 
L 432.528634 194.696931 
L 433.184141 193.705828 
L 433.839648 194.420481 
L 434.495154 196.628227 
L 435.150661 197.537292 
L 435.806167 196.414304 
L 436.461674 196.02091 
L 437.772687 194.603167 
L 438.428194 193.9547 
L 439.0837 191.299263 
L 439.739207 191.083917 
L 440.394714 189.416843 
L 441.05022 189.027471 
L 441.705727 190.101845 
L 442.361233 189.66406 
L 443.01674 191.019732 
L 444.98326 196.895449 
L 445.638767 195.735864 
L 446.294273 194.843655 
L 446.94978 196.451209 
L 447.605286 196.956383 
L 448.260793 197.623035 
L 448.9163 198.006093 
L 449.571806 196.250376 
L 451.538326 189.315379 
L 452.193833 190.078486 
L 452.849339 191.257166 
L 453.504846 190.873081 
L 454.815859 191.29589 
L 455.471366 191.482741 
L 456.126872 193.797157 
L 456.782379 193.085465 
L 457.437885 190.330629 
L 458.093392 193.742307 
L 458.748899 194.243708 
L 459.404405 191.992288 
L 460.059912 192.836509 
L 460.715419 191.704166 
L 461.370925 191.211576 
L 462.026432 192.509821 
L 462.681938 192.848311 
L 463.337445 192.642565 
L 463.992952 192.662171 
L 465.303965 195.050173 
L 465.959471 196.314207 
L 466.614978 195.070068 
L 467.270485 192.112683 
L 467.925991 194.131344 
L 468.581498 194.959258 
L 469.237004 193.605491 
L 469.892511 194.471455 
L 470.548018 193.674225 
L 471.203524 192.15265 
L 471.859031 189.866163 
L 472.514537 188.879877 
L 473.170044 191.006681 
L 473.825551 192.403515 
L 475.136564 193.695614 
L 475.79207 195.459487 
L 476.447577 195.091814 
L 477.103084 194.255428 
L 477.75859 196.299972 
L 478.414097 194.791739 
L 479.069604 195.858514 
L 479.72511 198.304978 
L 480.380617 194.388387 
L 481.036123 193.259369 
L 481.69163 194.135837 
L 482.347137 189.956743 
L 483.002643 189.019306 
L 483.65815 191.328616 
L 484.313656 191.456311 
L 485.62467 192.499033 
L 486.280176 192.769787 
L 486.935683 193.943001 
L 487.591189 194.659484 
L 488.246696 193.191302 
L 488.902203 193.127421 
L 489.557709 194.834386 
L 490.213216 194.685264 
L 490.868722 193.961698 
L 491.524229 193.909379 
L 492.179736 193.54338 
L 492.835242 192.984968 
L 493.490749 191.994942 
L 494.146256 191.311604 
L 494.801762 192.671371 
L 496.768282 197.511391 
L 497.423789 197.65509 
L 498.079295 194.503508 
L 498.734802 193.206086 
L 499.390308 196.295149 
L 500.045815 197.16503 
L 500.701322 197.530139 
L 501.356828 196.093652 
L 502.012335 193.242236 
L 502.667841 193.115701 
L 503.323348 192.510833 
L 503.978855 189.025028 
L 504.634361 188.36295 
L 505.289868 190.025046 
L 505.945374 190.997953 
L 507.256388 193.265941 
L 509.878414 193.511279 
L 511.189427 193.297716 
L 512.500441 192.781396 
L 513.811454 191.972233 
L 515.122467 190.919122 
L 518.4 187.891759 
L 518.4 187.891759 
" style="fill:none;stroke:#ff0000;stroke-linecap:square;stroke-width:2;"/>
   </g>
   <g id="patch_3">
    <path d="M 72 320.4 
L 72 43.2 
" style="fill:none;stroke:#000000;stroke-linecap:square;stroke-linejoin:miter;stroke-width:0.8;"/>
   </g>
   <g id="patch_4">
    <path d="M 518.4 320.4 
L 518.4 43.2 
" style="fill:none;stroke:#000000;stroke-linecap:square;stroke-linejoin:miter;stroke-width:0.8;"/>
   </g>
   <g id="patch_5">
    <path d="M 72 320.4 
L 518.4 320.4 
" style="fill:none;stroke:#000000;stroke-linecap:square;stroke-linejoin:miter;stroke-width:0.8;"/>
   </g>
   <g id="patch_6">
    <path d="M 72 43.2 
L 518.4 43.2 
" style="fill:none;stroke:#000000;stroke-linecap:square;stroke-linejoin:miter;stroke-width:0.8;"/>
   </g>
   <g id="text_16">
    <!-- Front Propogation Speed -->
    <g transform="translate(172.245312 37.2)scale(0.2 -0.2)">
     <defs>
      <path d="M 628 4666 
L 3309 4666 
L 3309 4134 
L 1259 4134 
L 1259 2759 
L 3109 2759 
L 3109 2228 
L 1259 2228 
L 1259 0 
L 628 0 
L 628 4666 
z
" id="DejaVuSans-46" transform="scale(0.015625)"/>
      <path d="M 2631 2963 
Q 2534 3019 2420 3045 
Q 2306 3072 2169 3072 
Q 1681 3072 1420 2755 
Q 1159 2438 1159 1844 
L 1159 0 
L 581 0 
L 581 3500 
L 1159 3500 
L 1159 2956 
Q 1341 3275 1631 3429 
Q 1922 3584 2338 3584 
Q 2397 3584 2469 3576 
Q 2541 3569 2628 3553 
L 2631 2963 
z
" id="DejaVuSans-72" transform="scale(0.015625)"/>
      <path d="M 1172 4494 
L 1172 3500 
L 2356 3500 
L 2356 3053 
L 1172 3053 
L 1172 1153 
Q 1172 725 1289 603 
Q 1406 481 1766 481 
L 2356 481 
L 2356 0 
L 1766 0 
Q 1100 0 847 248 
Q 594 497 594 1153 
L 594 3053 
L 172 3053 
L 172 3500 
L 594 3500 
L 594 4494 
L 1172 4494 
z
" id="DejaVuSans-74" transform="scale(0.015625)"/>
      <path d="M 1259 4147 
L 1259 2394 
L 2053 2394 
Q 2494 2394 2734 2622 
Q 2975 2850 2975 3272 
Q 2975 3691 2734 3919 
Q 2494 4147 2053 4147 
L 1259 4147 
z
M 628 4666 
L 2053 4666 
Q 2838 4666 3239 4311 
Q 3641 3956 3641 3272 
Q 3641 2581 3239 2228 
Q 2838 1875 2053 1875 
L 1259 1875 
L 1259 0 
L 628 0 
L 628 4666 
z
" id="DejaVuSans-50" transform="scale(0.015625)"/>
      <path d="M 2906 1791 
Q 2906 2416 2648 2759 
Q 2391 3103 1925 3103 
Q 1463 3103 1205 2759 
Q 947 2416 947 1791 
Q 947 1169 1205 825 
Q 1463 481 1925 481 
Q 2391 481 2648 825 
Q 2906 1169 2906 1791 
z
M 3481 434 
Q 3481 -459 3084 -895 
Q 2688 -1331 1869 -1331 
Q 1566 -1331 1297 -1286 
Q 1028 -1241 775 -1147 
L 775 -588 
Q 1028 -725 1275 -790 
Q 1522 -856 1778 -856 
Q 2344 -856 2625 -561 
Q 2906 -266 2906 331 
L 2906 616 
Q 2728 306 2450 153 
Q 2172 0 1784 0 
Q 1141 0 747 490 
Q 353 981 353 1791 
Q 353 2603 747 3093 
Q 1141 3584 1784 3584 
Q 2172 3584 2450 3431 
Q 2728 3278 2906 2969 
L 2906 3500 
L 3481 3500 
L 3481 434 
z
" id="DejaVuSans-67" transform="scale(0.015625)"/>
      <path d="M 2194 1759 
Q 1497 1759 1228 1600 
Q 959 1441 959 1056 
Q 959 750 1161 570 
Q 1363 391 1709 391 
Q 2188 391 2477 730 
Q 2766 1069 2766 1631 
L 2766 1759 
L 2194 1759 
z
M 3341 1997 
L 3341 0 
L 2766 0 
L 2766 531 
Q 2569 213 2275 61 
Q 1981 -91 1556 -91 
Q 1019 -91 701 211 
Q 384 513 384 1019 
Q 384 1609 779 1909 
Q 1175 2209 1959 2209 
L 2766 2209 
L 2766 2266 
Q 2766 2663 2505 2880 
Q 2244 3097 1772 3097 
Q 1472 3097 1187 3025 
Q 903 2953 641 2809 
L 641 3341 
Q 956 3463 1253 3523 
Q 1550 3584 1831 3584 
Q 2591 3584 2966 3190 
Q 3341 2797 3341 1997 
z
" id="DejaVuSans-61" transform="scale(0.015625)"/>
     </defs>
     <use xlink:href="#DejaVuSans-46"/>
     <use x="50.269531" xlink:href="#DejaVuSans-72"/>
     <use x="89.132812" xlink:href="#DejaVuSans-6f"/>
     <use x="150.314453" xlink:href="#DejaVuSans-6e"/>
     <use x="213.693359" xlink:href="#DejaVuSans-74"/>
     <use x="252.902344" xlink:href="#DejaVuSans-20"/>
     <use x="284.689453" xlink:href="#DejaVuSans-50"/>
     <use x="343.242188" xlink:href="#DejaVuSans-72"/>
     <use x="382.105469" xlink:href="#DejaVuSans-6f"/>
     <use x="443.287109" xlink:href="#DejaVuSans-70"/>
     <use x="506.763672" xlink:href="#DejaVuSans-6f"/>
     <use x="567.945312" xlink:href="#DejaVuSans-67"/>
     <use x="631.421875" xlink:href="#DejaVuSans-61"/>
     <use x="692.701172" xlink:href="#DejaVuSans-74"/>
     <use x="731.910156" xlink:href="#DejaVuSans-69"/>
     <use x="759.693359" xlink:href="#DejaVuSans-6f"/>
     <use x="820.875" xlink:href="#DejaVuSans-6e"/>
     <use x="884.253906" xlink:href="#DejaVuSans-20"/>
     <use x="916.041016" xlink:href="#DejaVuSans-53"/>
     <use x="979.517578" xlink:href="#DejaVuSans-70"/>
     <use x="1042.994141" xlink:href="#DejaVuSans-65"/>
     <use x="1104.517578" xlink:href="#DejaVuSans-65"/>
     <use x="1166.041016" xlink:href="#DejaVuSans-64"/>
    </g>
   </g>
   <g id="legend_1">
    <g id="patch_7">
     <path d="M 325.967812 111.175687 
L 508.6 111.175687 
Q 511.4 111.175687 511.4 108.375687 
L 511.4 53 
Q 511.4 50.2 508.6 50.2 
L 325.967812 50.2 
Q 323.167812 50.2 323.167812 53 
L 323.167812 108.375687 
Q 323.167812 111.175687 325.967812 111.175687 
z
" style="fill:#ffffff;opacity:0.8;stroke:#cccccc;stroke-linejoin:miter;"/>
    </g>
    <g id="line2d_16">
     <path d="M 328.767812 61.537812 
L 356.767812 61.537812 
" style="fill:none;stroke:#ff0000;stroke-linecap:square;stroke-width:2;"/>
    </g>
    <g id="line2d_17"/>
    <g id="text_17">
     <!-- Front speed -->
     <g transform="translate(367.967812 66.437812)scale(0.14 -0.14)">
      <use xlink:href="#DejaVuSans-46"/>
      <use x="50.269531" xlink:href="#DejaVuSans-72"/>
      <use x="89.132812" xlink:href="#DejaVuSans-6f"/>
      <use x="150.314453" xlink:href="#DejaVuSans-6e"/>
      <use x="213.693359" xlink:href="#DejaVuSans-74"/>
      <use x="252.902344" xlink:href="#DejaVuSans-20"/>
      <use x="284.689453" xlink:href="#DejaVuSans-73"/>
      <use x="336.789062" xlink:href="#DejaVuSans-70"/>
      <use x="400.265625" xlink:href="#DejaVuSans-65"/>
      <use x="461.789062" xlink:href="#DejaVuSans-65"/>
      <use x="523.3125" xlink:href="#DejaVuSans-64"/>
     </g>
    </g>
    <g id="line2d_18">
     <path d="M 328.767812 91.381437 
L 356.767812 91.381437 
" style="fill:none;stroke:#000000;stroke-dasharray:5.55,2.4;stroke-dashoffset:0;stroke-width:1.5;"/>
    </g>
    <g id="line2d_19"/>
    <g id="text_18">
     <!-- Steady state -->
     <g transform="translate(367.967812 86.987187)scale(0.14 -0.14)">
      <defs>
       <path d="M 2059 -325 
Q 1816 -950 1584 -1140 
Q 1353 -1331 966 -1331 
L 506 -1331 
L 506 -850 
L 844 -850 
Q 1081 -850 1212 -737 
Q 1344 -625 1503 -206 
L 1606 56 
L 191 3500 
L 800 3500 
L 1894 763 
L 2988 3500 
L 3597 3500 
L 2059 -325 
z
" id="DejaVuSans-79" transform="scale(0.015625)"/>
      </defs>
      <use xlink:href="#DejaVuSans-53"/>
      <use x="63.476562" xlink:href="#DejaVuSans-74"/>
      <use x="102.685547" xlink:href="#DejaVuSans-65"/>
      <use x="164.208984" xlink:href="#DejaVuSans-61"/>
      <use x="225.488281" xlink:href="#DejaVuSans-64"/>
      <use x="288.964844" xlink:href="#DejaVuSans-79"/>
      <use x="348.144531" xlink:href="#DejaVuSans-20"/>
      <use x="379.931641" xlink:href="#DejaVuSans-73"/>
      <use x="432.03125" xlink:href="#DejaVuSans-74"/>
      <use x="471.240234" xlink:href="#DejaVuSans-61"/>
      <use x="532.519531" xlink:href="#DejaVuSans-74"/>
      <use x="571.728516" xlink:href="#DejaVuSans-65"/>
     </g>
     <!-- speed = 0.79 mm/s -->
     <g transform="translate(367.967812 102.664125)scale(0.14 -0.14)">
      <defs>
       <path d="M 678 2906 
L 4684 2906 
L 4684 2381 
L 678 2381 
L 678 2906 
z
M 678 1631 
L 4684 1631 
L 4684 1100 
L 678 1100 
L 678 1631 
z
" id="DejaVuSans-3d" transform="scale(0.015625)"/>
       <path d="M 703 97 
L 703 672 
Q 941 559 1184 500 
Q 1428 441 1663 441 
Q 2288 441 2617 861 
Q 2947 1281 2994 2138 
Q 2813 1869 2534 1725 
Q 2256 1581 1919 1581 
Q 1219 1581 811 2004 
Q 403 2428 403 3163 
Q 403 3881 828 4315 
Q 1253 4750 1959 4750 
Q 2769 4750 3195 4129 
Q 3622 3509 3622 2328 
Q 3622 1225 3098 567 
Q 2575 -91 1691 -91 
Q 1453 -91 1209 -44 
Q 966 3 703 97 
z
M 1959 2075 
Q 2384 2075 2632 2365 
Q 2881 2656 2881 3163 
Q 2881 3666 2632 3958 
Q 2384 4250 1959 4250 
Q 1534 4250 1286 3958 
Q 1038 3666 1038 3163 
Q 1038 2656 1286 2365 
Q 1534 2075 1959 2075 
z
" id="DejaVuSans-39" transform="scale(0.015625)"/>
      </defs>
      <use xlink:href="#DejaVuSans-73"/>
      <use x="52.099609" xlink:href="#DejaVuSans-70"/>
      <use x="115.576172" xlink:href="#DejaVuSans-65"/>
      <use x="177.099609" xlink:href="#DejaVuSans-65"/>
      <use x="238.623047" xlink:href="#DejaVuSans-64"/>
      <use x="302.099609" xlink:href="#DejaVuSans-20"/>
      <use x="333.886719" xlink:href="#DejaVuSans-3d"/>
      <use x="417.675781" xlink:href="#DejaVuSans-20"/>
      <use x="449.462891" xlink:href="#DejaVuSans-30"/>
      <use x="513.085938" xlink:href="#DejaVuSans-2e"/>
      <use x="544.873047" xlink:href="#DejaVuSans-37"/>
      <use x="608.496094" xlink:href="#DejaVuSans-39"/>
      <use x="672.119141" xlink:href="#DejaVuSans-20"/>
      <use x="703.90625" xlink:href="#DejaVuSans-6d"/>
      <use x="801.318359" xlink:href="#DejaVuSans-6d"/>
      <use x="898.730469" xlink:href="#DejaVuSans-2f"/>
      <use x="932.421875" xlink:href="#DejaVuSans-73"/>
     </g>
    </g>
   </g>
  </g>
 </g>
 <defs>
  <clipPath id="pcd594c8f39">
   <rect height="277.2" width="446.4" x="72" y="43.2"/>
  </clipPath>
 </defs>
</svg>
