<?xml version="1.0" encoding="utf-8" standalone="no"?>
<!DOCTYPE svg PUBLIC "-//W3C//DTD SVG 1.1//EN"
  "http://www.w3.org/Graphics/SVG/1.1/DTD/svg11.dtd">
<svg height="360pt" version="1.1" viewBox="0 0 576 360" width="576pt" xmlns="http://www.w3.org/2000/svg" xmlns:xlink="http://www.w3.org/1999/xlink">
 <metadata>
  <rdf:RDF xmlns:cc="http://creativecommons.org/ns#" xmlns:dc="http://purl.org/dc/elements/1.1/" xmlns:rdf="http://www.w3.org/1999/02/22-rdf-syntax-ns#">
   <cc:Work>
    <dc:type rdf:resource="http://purl.org/dc/dcmitype/StillImage"/>
    <dc:date>2022-06-30T14:37:37.593655</dc:date>
    <dc:format>image/svg+xml</dc:format>
    <dc:creator>
     <cc:Agent>
      <dc:title>Matplotlib v3.4.3, https://matplotlib.org/</dc:title>
     </cc:Agent>
    </dc:creator>
   </cc:Work>
  </rdf:RDF>
 </metadata>
 <defs>
  <style type="text/css">*{stroke-linecap:butt;stroke-linejoin:round;}</style>
 </defs>
 <g id="figure_1">
  <g id="patch_1">
   <path d="M 0 360 
L 576 360 
L 576 0 
L 0 0 
z
" style="fill:#ffffff;"/>
  </g>
  <g id="axes_1">
   <g id="patch_2">
    <path d="M 72 320.4 
L 518.4 320.4 
L 518.4 43.2 
L 72 43.2 
z
" style="fill:#ffffff;"/>
   </g>
   <g id="PolyCollection_1">
    <defs>
     <path d="M 72 -147.48963 
L 72 -153.32767 
L 72.807233 -153.32767 
L 73.614467 -153.32767 
L 74.4217 -153.32767 
L 75.228933 -153.32767 
L 76.036166 -153.32767 
L 76.8434 -153.32767 
L 77.650633 -153.32767 
L 78.457866 -153.32767 
L 79.265099 -153.32767 
L 80.072333 -153.32767 
L 80.879566 -153.32767 
L 81.686799 -153.32767 
L 82.494033 -153.32767 
L 83.301266 -153.32767 
L 84.108499 -153.32767 
L 84.915732 -153.32767 
L 85.722966 -153.32767 
L 86.530199 -153.32767 
L 87.337432 -153.32767 
L 88.144665 -153.32767 
L 88.951899 -153.32767 
L 89.759132 -153.32767 
L 90.566365 -153.32767 
L 91.373599 -153.32767 
L 92.180832 -153.32767 
L 92.988065 -153.32767 
L 93.795298 -153.32767 
L 94.602532 -153.32767 
L 95.409765 -153.32767 
L 96.216998 -153.32767 
L 97.024231 -153.32767 
L 97.831465 -153.32767 
L 98.638698 -153.32767 
L 99.445931 -153.32767 
L 100.253165 -153.32767 
L 101.060398 -153.32767 
L 101.867631 -153.32767 
L 102.674864 -153.32767 
L 103.482098 -153.32767 
L 104.289331 -153.32767 
L 105.096564 -153.32767 
L 105.903797 -153.32767 
L 106.711031 -153.32767 
L 107.518264 -153.32767 
L 108.325497 -153.32767 
L 109.132731 -153.32767 
L 109.939964 -153.32767 
L 110.747197 -153.32767 
L 111.55443 -153.32767 
L 112.361664 -153.32767 
L 113.168897 -153.32767 
L 113.97613 -153.32767 
L 114.783363 -153.32767 
L 115.590597 -153.32767 
L 116.39783 -153.32767 
L 117.205063 -153.32767 
L 118.012297 -153.32767 
L 118.81953 -153.32767 
L 119.626763 -153.32767 
L 120.433996 -153.32767 
L 121.24123 -153.32767 
L 122.048463 -153.32767 
L 122.855696 -153.32767 
L 123.662929 -153.32767 
L 124.470163 -153.32767 
L 125.277396 -153.32767 
L 126.084629 -153.32767 
L 126.891863 -153.32767 
L 127.699096 -153.32767 
L 128.506329 -153.32767 
L 129.313562 -153.32767 
L 130.120796 -153.32767 
L 130.928029 -153.32767 
L 131.735262 -153.32767 
L 132.542495 -153.32767 
L 133.349729 -153.32767 
L 134.156962 -153.32767 
L 134.964195 -153.32767 
L 135.771429 -153.32767 
L 136.578662 -153.32767 
L 137.385895 -153.32767 
L 138.193128 -153.32767 
L 139.000362 -153.32767 
L 139.807595 -153.32767 
L 140.614828 -153.32767 
L 141.422061 -153.32767 
L 142.229295 -153.32767 
L 143.036528 -153.32767 
L 143.843761 -153.32767 
L 144.650995 -153.32767 
L 145.458228 -153.32767 
L 146.265461 -153.32767 
L 147.072694 -153.32767 
L 147.879928 -153.32767 
L 148.687161 -153.32767 
L 149.494394 -153.32767 
L 150.301627 -153.32767 
L 151.108861 -153.32767 
L 151.916094 -153.32767 
L 152.723327 -153.32767 
L 153.530561 -153.32767 
L 154.337794 -153.32767 
L 155.145027 -153.32767 
L 155.95226 -153.32767 
L 156.759494 -153.32767 
L 157.566727 -153.32767 
L 158.37396 -153.32767 
L 159.181193 -153.32767 
L 159.988427 -153.32767 
L 160.79566 -153.32767 
L 161.602893 -153.32767 
L 162.410127 -153.32767 
L 163.21736 -153.32767 
L 164.024593 -153.32767 
L 164.831826 -153.32767 
L 165.63906 -153.32767 
L 166.446293 -153.32767 
L 167.253526 -153.32767 
L 168.060759 -153.32767 
L 168.867993 -153.32767 
L 169.675226 -153.32767 
L 170.482459 -153.32767 
L 171.289693 -153.32767 
L 172.096926 -153.32767 
L 172.904159 -153.32767 
L 173.711392 -153.32767 
L 174.518626 -153.32767 
L 175.325859 -153.32767 
L 176.133092 -153.32767 
L 176.940325 -153.32767 
L 177.747559 -153.32767 
L 178.554792 -153.32767 
L 179.362025 -153.32767 
L 180.169259 -153.32767 
L 180.976492 -153.32767 
L 181.783725 -153.32767 
L 182.590958 -153.32767 
L 183.398192 -153.32767 
L 184.205425 -153.32767 
L 185.012658 -153.32767 
L 185.819892 -153.32767 
L 186.627125 -153.32767 
L 187.434358 -153.32767 
L 188.241591 -153.32767 
L 189.048825 -153.32767 
L 189.856058 -153.32767 
L 190.663291 -153.32767 
L 191.470524 -153.32767 
L 192.277758 -153.32767 
L 193.084991 -153.32767 
L 193.892224 -153.32767 
L 194.699458 -153.32767 
L 195.506691 -153.32767 
L 196.313924 -153.32767 
L 197.121157 -153.32767 
L 197.928391 -153.32767 
L 198.735624 -153.32767 
L 199.542857 -153.32767 
L 200.35009 -153.32767 
L 201.157324 -153.32767 
L 201.964557 -153.32767 
L 202.77179 -153.32767 
L 203.579024 -153.32767 
L 204.386257 -153.32767 
L 205.19349 -153.32767 
L 206.000723 -153.32767 
L 206.807957 -153.32767 
L 207.61519 -153.32767 
L 208.422423 -153.32767 
L 209.229656 -153.32767 
L 210.03689 -153.32767 
L 210.844123 -153.32767 
L 211.651356 -153.32767 
L 212.45859 -153.32767 
L 213.265823 -153.32767 
L 214.073056 -153.32767 
L 214.880289 -153.32767 
L 215.687523 -153.32767 
L 216.494756 -153.32767 
L 217.301989 -153.32767 
L 218.109222 -153.32767 
L 218.916456 -153.32767 
L 219.723689 -153.32767 
L 220.530922 -153.32767 
L 221.338156 -153.32767 
L 222.145389 -153.32767 
L 222.952622 -153.32767 
L 223.759855 -153.32767 
L 224.567089 -153.32767 
L 225.374322 -153.32767 
L 226.181555 -153.32767 
L 226.988788 -153.32767 
L 227.796022 -153.32767 
L 228.603255 -153.32767 
L 229.410488 -153.32767 
L 230.217722 -153.32767 
L 231.024955 -153.32767 
L 231.832188 -153.32767 
L 232.639421 -153.32767 
L 233.446655 -153.32767 
L 234.253888 -153.32767 
L 235.061121 -153.32767 
L 235.868354 -153.32767 
L 236.675588 -153.32767 
L 237.482821 -153.32767 
L 238.290054 -153.32767 
L 239.097288 -153.32767 
L 239.904521 -153.32767 
L 240.711754 -153.32767 
L 241.518987 -153.32767 
L 242.326221 -153.32767 
L 243.133454 -153.32767 
L 243.940687 -153.32767 
L 244.74792 -153.32767 
L 245.555154 -153.32767 
L 246.362387 -153.32767 
L 247.16962 -153.32767 
L 247.976854 -153.32767 
L 248.784087 -153.32767 
L 249.59132 -153.32767 
L 250.398553 -153.32767 
L 251.205787 -153.32767 
L 252.01302 -153.32767 
L 252.820253 -153.32767 
L 253.627486 -153.32767 
L 254.43472 -153.32767 
L 255.241953 -153.32767 
L 256.049186 -153.32767 
L 256.85642 -153.32767 
L 257.663653 -153.32767 
L 258.470886 -153.32767 
L 259.278119 -153.32767 
L 260.085353 -153.32767 
L 260.892586 -153.32767 
L 261.699819 -153.32767 
L 262.507052 -153.32767 
L 263.314286 -153.32767 
L 264.121519 -153.32767 
L 264.928752 -153.32767 
L 265.735986 -153.32767 
L 266.543219 -153.32767 
L 267.350452 -153.32767 
L 268.157685 -153.32767 
L 268.964919 -153.32767 
L 269.772152 -153.32767 
L 270.579385 -153.32767 
L 271.386618 -153.32767 
L 272.193852 -153.32767 
L 273.001085 -153.32767 
L 273.808318 -153.32767 
L 274.615552 -153.32767 
L 275.422785 -153.32767 
L 276.230018 -153.32767 
L 277.037251 -153.32767 
L 277.844485 -153.32767 
L 278.651718 -153.32767 
L 279.458951 -153.32767 
L 280.266184 -153.32767 
L 281.073418 -153.32767 
L 281.880651 -153.32767 
L 282.687884 -153.32767 
L 283.495118 -153.32767 
L 284.302351 -153.32767 
L 285.109584 -153.32767 
L 285.916817 -153.32767 
L 286.724051 -153.32767 
L 287.531284 -153.32767 
L 288.338517 -153.32767 
L 289.14575 -153.32767 
L 289.952984 -153.32767 
L 290.760217 -153.32767 
L 291.56745 -153.32767 
L 292.374684 -153.32767 
L 293.181917 -153.32767 
L 293.98915 -153.32767 
L 294.796383 -153.32767 
L 295.603617 -153.32767 
L 296.41085 -153.32767 
L 297.218083 -153.32767 
L 298.025316 -153.32767 
L 298.83255 -153.32767 
L 299.639783 -153.32767 
L 300.447016 -153.32767 
L 301.25425 -153.32767 
L 302.061483 -153.32767 
L 302.868716 -153.32767 
L 303.675949 -153.32767 
L 304.483183 -153.32767 
L 305.290416 -153.32767 
L 306.097649 -153.32767 
L 306.904882 -153.32767 
L 307.712116 -153.32767 
L 308.519349 -153.32767 
L 309.326582 -153.32767 
L 310.133816 -153.32767 
L 310.941049 -153.32767 
L 311.748282 -153.32767 
L 312.555515 -153.32767 
L 313.362749 -153.32767 
L 314.169982 -153.32767 
L 314.977215 -153.32767 
L 315.784448 -153.32767 
L 316.591682 -153.32767 
L 317.398915 -153.32767 
L 318.206148 -153.32767 
L 319.013382 -153.32767 
L 319.820615 -153.32767 
L 320.627848 -153.32767 
L 321.435081 -153.32767 
L 322.242315 -153.32767 
L 323.049548 -153.32767 
L 323.856781 -153.32767 
L 324.664014 -153.32767 
L 325.471248 -153.32767 
L 326.278481 -153.32767 
L 327.085714 -153.32767 
L 327.892948 -153.32767 
L 328.700181 -153.32767 
L 329.507414 -153.32767 
L 330.314647 -153.32767 
L 331.121881 -153.32767 
L 331.929114 -153.32767 
L 332.736347 -153.32767 
L 333.54358 -153.32767 
L 334.350814 -153.32767 
L 335.158047 -153.32767 
L 335.96528 -153.32767 
L 336.772514 -153.32767 
L 337.579747 -153.32767 
L 338.38698 -153.32767 
L 339.194213 -153.32767 
L 340.001447 -153.32767 
L 340.80868 -153.32767 
L 341.615913 -153.32767 
L 342.423146 -153.32767 
L 343.23038 -153.32767 
L 344.037613 -153.32767 
L 344.844846 -153.32767 
L 345.65208 -153.32767 
L 346.459313 -153.32767 
L 347.266546 -153.32767 
L 348.073779 -153.32767 
L 348.881013 -153.32767 
L 349.688246 -153.32767 
L 350.495479 -153.32767 
L 351.302712 -153.32767 
L 352.109946 -153.32767 
L 352.917179 -153.32767 
L 353.724412 -153.32767 
L 354.531646 -153.32767 
L 355.338879 -153.32767 
L 356.146112 -153.32767 
L 356.953345 -153.32767 
L 357.760579 -153.32767 
L 358.567812 -153.32767 
L 359.375045 -153.32767 
L 360.182278 -153.32767 
L 360.989512 -153.32767 
L 361.796745 -153.32767 
L 362.603978 -153.32767 
L 363.411212 -153.32767 
L 364.218445 -153.32767 
L 365.025678 -153.32767 
L 365.832911 -153.32767 
L 366.640145 -153.32767 
L 367.447378 -153.32767 
L 368.254611 -153.32767 
L 369.061844 -153.32767 
L 369.869078 -153.32767 
L 370.676311 -153.32767 
L 371.483544 -153.32767 
L 372.290778 -153.32767 
L 373.098011 -153.32767 
L 373.905244 -153.32767 
L 374.712477 -153.32767 
L 375.519711 -153.32767 
L 376.326944 -153.32767 
L 377.134177 -153.32767 
L 377.94141 -153.32767 
L 378.748644 -153.32767 
L 379.555877 -153.32767 
L 380.36311 -153.32767 
L 381.170344 -153.32767 
L 381.977577 -153.32767 
L 382.78481 -153.32767 
L 383.592043 -153.32767 
L 384.399277 -153.32767 
L 385.20651 -153.32767 
L 386.013743 -153.32767 
L 386.820976 -153.32767 
L 387.62821 -153.32767 
L 388.435443 -153.32767 
L 389.242676 -153.32767 
L 390.04991 -153.32767 
L 390.857143 -153.32767 
L 391.664376 -153.32767 
L 392.471609 -153.32767 
L 393.278843 -153.32767 
L 394.086076 -153.32767 
L 394.893309 -153.32767 
L 395.700542 -153.32767 
L 396.507776 -153.32767 
L 397.315009 -153.32767 
L 398.122242 -153.32767 
L 398.929476 -153.32767 
L 399.736709 -153.32767 
L 400.543942 -153.32767 
L 401.351175 -153.32767 
L 402.158409 -153.32767 
L 402.965642 -153.32767 
L 403.772875 -153.32767 
L 404.580108 -153.32767 
L 405.387342 -153.32767 
L 406.194575 -153.32767 
L 407.001808 -153.32767 
L 407.809042 -153.32767 
L 408.616275 -153.32767 
L 409.423508 -153.32767 
L 410.230741 -153.32767 
L 411.037975 -153.32767 
L 411.845208 -153.32767 
L 412.652441 -153.32767 
L 413.459675 -153.32767 
L 414.266908 -153.32767 
L 415.074141 -153.32767 
L 415.881374 -153.32767 
L 416.688608 -153.32767 
L 417.495841 -153.32767 
L 418.303074 -153.32767 
L 419.110307 -153.32767 
L 419.917541 -153.32767 
L 420.724774 -153.32767 
L 421.532007 -153.32767 
L 422.339241 -153.32767 
L 423.146474 -153.32767 
L 423.953707 -153.32767 
L 424.76094 -153.32767 
L 425.568174 -153.32767 
L 426.375407 -153.32767 
L 427.18264 -153.32767 
L 427.989873 -153.32767 
L 428.797107 -153.32767 
L 429.60434 -153.32767 
L 430.411573 -153.32767 
L 431.218807 -153.32767 
L 432.02604 -153.32767 
L 432.833273 -153.32767 
L 433.640506 -153.32767 
L 434.44774 -153.32767 
L 435.254973 -153.32767 
L 436.062206 -153.32767 
L 436.869439 -153.32767 
L 437.676673 -153.32767 
L 438.483906 -153.32767 
L 439.291139 -153.32767 
L 440.098373 -153.32767 
L 440.905606 -153.32767 
L 441.712839 -153.32767 
L 442.520072 -153.32767 
L 443.327306 -153.32767 
L 444.134539 -153.32767 
L 444.941772 -153.32767 
L 445.749005 -153.32767 
L 446.556239 -153.32767 
L 447.363472 -153.32767 
L 448.170705 -153.32767 
L 448.977939 -153.32767 
L 449.785172 -153.32767 
L 450.592405 -153.32767 
L 451.399638 -153.32767 
L 452.206872 -153.32767 
L 453.014105 -153.32767 
L 453.821338 -153.32767 
L 454.628571 -153.32767 
L 455.435805 -153.32767 
L 456.243038 -153.32767 
L 457.050271 -153.32767 
L 457.857505 -153.32767 
L 458.664738 -153.32767 
L 459.471971 -153.32767 
L 460.279204 -153.32767 
L 461.086438 -153.32767 
L 461.893671 -153.32767 
L 462.700904 -153.32767 
L 463.508137 -153.32767 
L 464.315371 -153.32767 
L 465.122604 -153.32767 
L 465.929837 -153.32767 
L 466.737071 -153.32767 
L 467.544304 -153.32767 
L 468.351537 -153.32767 
L 469.15877 -153.32767 
L 469.966004 -153.32767 
L 470.773237 -153.32767 
L 471.58047 -153.32767 
L 472.387703 -153.32767 
L 473.194937 -153.32767 
L 474.00217 -153.32767 
L 474.809403 -153.32767 
L 475.616637 -153.32767 
L 476.42387 -153.32767 
L 477.231103 -153.32767 
L 478.038336 -153.32767 
L 478.84557 -153.32767 
L 479.652803 -153.32767 
L 480.460036 -153.32767 
L 481.267269 -153.32767 
L 482.074503 -153.32767 
L 482.881736 -153.32767 
L 483.688969 -153.32767 
L 484.496203 -153.32767 
L 485.303436 -153.32767 
L 486.110669 -153.32767 
L 486.917902 -153.32767 
L 487.725136 -153.32767 
L 488.532369 -153.32767 
L 489.339602 -153.32767 
L 490.146835 -153.32767 
L 490.954069 -153.32767 
L 491.761302 -153.32767 
L 492.568535 -153.32767 
L 493.375769 -153.32767 
L 494.183002 -153.32767 
L 494.990235 -153.32767 
L 495.797468 -153.32767 
L 496.604702 -153.32767 
L 497.411935 -153.32767 
L 498.219168 -153.32767 
L 499.026401 -153.32767 
L 499.833635 -153.32767 
L 500.640868 -153.32767 
L 501.448101 -153.32767 
L 502.255335 -153.32767 
L 503.062568 -153.32767 
L 503.869801 -153.32767 
L 504.677034 -153.32767 
L 505.484268 -153.32767 
L 506.291501 -153.32767 
L 507.098734 -153.32767 
L 507.905967 -153.32767 
L 508.713201 -153.32767 
L 509.520434 -153.32767 
L 510.327667 -153.32767 
L 511.134901 -153.32767 
L 511.942134 -153.32767 
L 512.749367 -153.32767 
L 513.5566 -153.32767 
L 514.363834 -153.32767 
L 515.171067 -153.32767 
L 515.9783 -153.32767 
L 516.785533 -153.32767 
L 517.592767 -153.32767 
L 518.4 -153.32767 
L 518.4 -147.48963 
L 518.4 -147.48963 
L 517.592767 -147.48963 
L 516.785533 -147.48963 
L 515.9783 -147.48963 
L 515.171067 -147.48963 
L 514.363834 -147.48963 
L 513.5566 -147.48963 
L 512.749367 -147.48963 
L 511.942134 -147.48963 
L 511.134901 -147.48963 
L 510.327667 -147.48963 
L 509.520434 -147.48963 
L 508.713201 -147.48963 
L 507.905967 -147.48963 
L 507.098734 -147.48963 
L 506.291501 -147.48963 
L 505.484268 -147.48963 
L 504.677034 -147.48963 
L 503.869801 -147.48963 
L 503.062568 -147.48963 
L 502.255335 -147.48963 
L 501.448101 -147.48963 
L 500.640868 -147.48963 
L 499.833635 -147.48963 
L 499.026401 -147.48963 
L 498.219168 -147.48963 
L 497.411935 -147.48963 
L 496.604702 -147.48963 
L 495.797468 -147.48963 
L 494.990235 -147.48963 
L 494.183002 -147.48963 
L 493.375769 -147.48963 
L 492.568535 -147.48963 
L 491.761302 -147.48963 
L 490.954069 -147.48963 
L 490.146835 -147.48963 
L 489.339602 -147.48963 
L 488.532369 -147.48963 
L 487.725136 -147.48963 
L 486.917902 -147.48963 
L 486.110669 -147.48963 
L 485.303436 -147.48963 
L 484.496203 -147.48963 
L 483.688969 -147.48963 
L 482.881736 -147.48963 
L 482.074503 -147.48963 
L 481.267269 -147.48963 
L 480.460036 -147.48963 
L 479.652803 -147.48963 
L 478.84557 -147.48963 
L 478.038336 -147.48963 
L 477.231103 -147.48963 
L 476.42387 -147.48963 
L 475.616637 -147.48963 
L 474.809403 -147.48963 
L 474.00217 -147.48963 
L 473.194937 -147.48963 
L 472.387703 -147.48963 
L 471.58047 -147.48963 
L 470.773237 -147.48963 
L 469.966004 -147.48963 
L 469.15877 -147.48963 
L 468.351537 -147.48963 
L 467.544304 -147.48963 
L 466.737071 -147.48963 
L 465.929837 -147.48963 
L 465.122604 -147.48963 
L 464.315371 -147.48963 
L 463.508137 -147.48963 
L 462.700904 -147.48963 
L 461.893671 -147.48963 
L 461.086438 -147.48963 
L 460.279204 -147.48963 
L 459.471971 -147.48963 
L 458.664738 -147.48963 
L 457.857505 -147.48963 
L 457.050271 -147.48963 
L 456.243038 -147.48963 
L 455.435805 -147.48963 
L 454.628571 -147.48963 
L 453.821338 -147.48963 
L 453.014105 -147.48963 
L 452.206872 -147.48963 
L 451.399638 -147.48963 
L 450.592405 -147.48963 
L 449.785172 -147.48963 
L 448.977939 -147.48963 
L 448.170705 -147.48963 
L 447.363472 -147.48963 
L 446.556239 -147.48963 
L 445.749005 -147.48963 
L 444.941772 -147.48963 
L 444.134539 -147.48963 
L 443.327306 -147.48963 
L 442.520072 -147.48963 
L 441.712839 -147.48963 
L 440.905606 -147.48963 
L 440.098373 -147.48963 
L 439.291139 -147.48963 
L 438.483906 -147.48963 
L 437.676673 -147.48963 
L 436.869439 -147.48963 
L 436.062206 -147.48963 
L 435.254973 -147.48963 
L 434.44774 -147.48963 
L 433.640506 -147.48963 
L 432.833273 -147.48963 
L 432.02604 -147.48963 
L 431.218807 -147.48963 
L 430.411573 -147.48963 
L 429.60434 -147.48963 
L 428.797107 -147.48963 
L 427.989873 -147.48963 
L 427.18264 -147.48963 
L 426.375407 -147.48963 
L 425.568174 -147.48963 
L 424.76094 -147.48963 
L 423.953707 -147.48963 
L 423.146474 -147.48963 
L 422.339241 -147.48963 
L 421.532007 -147.48963 
L 420.724774 -147.48963 
L 419.917541 -147.48963 
L 419.110307 -147.48963 
L 418.303074 -147.48963 
L 417.495841 -147.48963 
L 416.688608 -147.48963 
L 415.881374 -147.48963 
L 415.074141 -147.48963 
L 414.266908 -147.48963 
L 413.459675 -147.48963 
L 412.652441 -147.48963 
L 411.845208 -147.48963 
L 411.037975 -147.48963 
L 410.230741 -147.48963 
L 409.423508 -147.48963 
L 408.616275 -147.48963 
L 407.809042 -147.48963 
L 407.001808 -147.48963 
L 406.194575 -147.48963 
L 405.387342 -147.48963 
L 404.580108 -147.48963 
L 403.772875 -147.48963 
L 402.965642 -147.48963 
L 402.158409 -147.48963 
L 401.351175 -147.48963 
L 400.543942 -147.48963 
L 399.736709 -147.48963 
L 398.929476 -147.48963 
L 398.122242 -147.48963 
L 397.315009 -147.48963 
L 396.507776 -147.48963 
L 395.700542 -147.48963 
L 394.893309 -147.48963 
L 394.086076 -147.48963 
L 393.278843 -147.48963 
L 392.471609 -147.48963 
L 391.664376 -147.48963 
L 390.857143 -147.48963 
L 390.04991 -147.48963 
L 389.242676 -147.48963 
L 388.435443 -147.48963 
L 387.62821 -147.48963 
L 386.820976 -147.48963 
L 386.013743 -147.48963 
L 385.20651 -147.48963 
L 384.399277 -147.48963 
L 383.592043 -147.48963 
L 382.78481 -147.48963 
L 381.977577 -147.48963 
L 381.170344 -147.48963 
L 380.36311 -147.48963 
L 379.555877 -147.48963 
L 378.748644 -147.48963 
L 377.94141 -147.48963 
L 377.134177 -147.48963 
L 376.326944 -147.48963 
L 375.519711 -147.48963 
L 374.712477 -147.48963 
L 373.905244 -147.48963 
L 373.098011 -147.48963 
L 372.290778 -147.48963 
L 371.483544 -147.48963 
L 370.676311 -147.48963 
L 369.869078 -147.48963 
L 369.061844 -147.48963 
L 368.254611 -147.48963 
L 367.447378 -147.48963 
L 366.640145 -147.48963 
L 365.832911 -147.48963 
L 365.025678 -147.48963 
L 364.218445 -147.48963 
L 363.411212 -147.48963 
L 362.603978 -147.48963 
L 361.796745 -147.48963 
L 360.989512 -147.48963 
L 360.182278 -147.48963 
L 359.375045 -147.48963 
L 358.567812 -147.48963 
L 357.760579 -147.48963 
L 356.953345 -147.48963 
L 356.146112 -147.48963 
L 355.338879 -147.48963 
L 354.531646 -147.48963 
L 353.724412 -147.48963 
L 352.917179 -147.48963 
L 352.109946 -147.48963 
L 351.302712 -147.48963 
L 350.495479 -147.48963 
L 349.688246 -147.48963 
L 348.881013 -147.48963 
L 348.073779 -147.48963 
L 347.266546 -147.48963 
L 346.459313 -147.48963 
L 345.65208 -147.48963 
L 344.844846 -147.48963 
L 344.037613 -147.48963 
L 343.23038 -147.48963 
L 342.423146 -147.48963 
L 341.615913 -147.48963 
L 340.80868 -147.48963 
L 340.001447 -147.48963 
L 339.194213 -147.48963 
L 338.38698 -147.48963 
L 337.579747 -147.48963 
L 336.772514 -147.48963 
L 335.96528 -147.48963 
L 335.158047 -147.48963 
L 334.350814 -147.48963 
L 333.54358 -147.48963 
L 332.736347 -147.48963 
L 331.929114 -147.48963 
L 331.121881 -147.48963 
L 330.314647 -147.48963 
L 329.507414 -147.48963 
L 328.700181 -147.48963 
L 327.892948 -147.48963 
L 327.085714 -147.48963 
L 326.278481 -147.48963 
L 325.471248 -147.48963 
L 324.664014 -147.48963 
L 323.856781 -147.48963 
L 323.049548 -147.48963 
L 322.242315 -147.48963 
L 321.435081 -147.48963 
L 320.627848 -147.48963 
L 319.820615 -147.48963 
L 319.013382 -147.48963 
L 318.206148 -147.48963 
L 317.398915 -147.48963 
L 316.591682 -147.48963 
L 315.784448 -147.48963 
L 314.977215 -147.48963 
L 314.169982 -147.48963 
L 313.362749 -147.48963 
L 312.555515 -147.48963 
L 311.748282 -147.48963 
L 310.941049 -147.48963 
L 310.133816 -147.48963 
L 309.326582 -147.48963 
L 308.519349 -147.48963 
L 307.712116 -147.48963 
L 306.904882 -147.48963 
L 306.097649 -147.48963 
L 305.290416 -147.48963 
L 304.483183 -147.48963 
L 303.675949 -147.48963 
L 302.868716 -147.48963 
L 302.061483 -147.48963 
L 301.25425 -147.48963 
L 300.447016 -147.48963 
L 299.639783 -147.48963 
L 298.83255 -147.48963 
L 298.025316 -147.48963 
L 297.218083 -147.48963 
L 296.41085 -147.48963 
L 295.603617 -147.48963 
L 294.796383 -147.48963 
L 293.98915 -147.48963 
L 293.181917 -147.48963 
L 292.374684 -147.48963 
L 291.56745 -147.48963 
L 290.760217 -147.48963 
L 289.952984 -147.48963 
L 289.14575 -147.48963 
L 288.338517 -147.48963 
L 287.531284 -147.48963 
L 286.724051 -147.48963 
L 285.916817 -147.48963 
L 285.109584 -147.48963 
L 284.302351 -147.48963 
L 283.495118 -147.48963 
L 282.687884 -147.48963 
L 281.880651 -147.48963 
L 281.073418 -147.48963 
L 280.266184 -147.48963 
L 279.458951 -147.48963 
L 278.651718 -147.48963 
L 277.844485 -147.48963 
L 277.037251 -147.48963 
L 276.230018 -147.48963 
L 275.422785 -147.48963 
L 274.615552 -147.48963 
L 273.808318 -147.48963 
L 273.001085 -147.48963 
L 272.193852 -147.48963 
L 271.386618 -147.48963 
L 270.579385 -147.48963 
L 269.772152 -147.48963 
L 268.964919 -147.48963 
L 268.157685 -147.48963 
L 267.350452 -147.48963 
L 266.543219 -147.48963 
L 265.735986 -147.48963 
L 264.928752 -147.48963 
L 264.121519 -147.48963 
L 263.314286 -147.48963 
L 262.507052 -147.48963 
L 261.699819 -147.48963 
L 260.892586 -147.48963 
L 260.085353 -147.48963 
L 259.278119 -147.48963 
L 258.470886 -147.48963 
L 257.663653 -147.48963 
L 256.85642 -147.48963 
L 256.049186 -147.48963 
L 255.241953 -147.48963 
L 254.43472 -147.48963 
L 253.627486 -147.48963 
L 252.820253 -147.48963 
L 252.01302 -147.48963 
L 251.205787 -147.48963 
L 250.398553 -147.48963 
L 249.59132 -147.48963 
L 248.784087 -147.48963 
L 247.976854 -147.48963 
L 247.16962 -147.48963 
L 246.362387 -147.48963 
L 245.555154 -147.48963 
L 244.74792 -147.48963 
L 243.940687 -147.48963 
L 243.133454 -147.48963 
L 242.326221 -147.48963 
L 241.518987 -147.48963 
L 240.711754 -147.48963 
L 239.904521 -147.48963 
L 239.097288 -147.48963 
L 238.290054 -147.48963 
L 237.482821 -147.48963 
L 236.675588 -147.48963 
L 235.868354 -147.48963 
L 235.061121 -147.48963 
L 234.253888 -147.48963 
L 233.446655 -147.48963 
L 232.639421 -147.48963 
L 231.832188 -147.48963 
L 231.024955 -147.48963 
L 230.217722 -147.48963 
L 229.410488 -147.48963 
L 228.603255 -147.48963 
L 227.796022 -147.48963 
L 226.988788 -147.48963 
L 226.181555 -147.48963 
L 225.374322 -147.48963 
L 224.567089 -147.48963 
L 223.759855 -147.48963 
L 222.952622 -147.48963 
L 222.145389 -147.48963 
L 221.338156 -147.48963 
L 220.530922 -147.48963 
L 219.723689 -147.48963 
L 218.916456 -147.48963 
L 218.109222 -147.48963 
L 217.301989 -147.48963 
L 216.494756 -147.48963 
L 215.687523 -147.48963 
L 214.880289 -147.48963 
L 214.073056 -147.48963 
L 213.265823 -147.48963 
L 212.45859 -147.48963 
L 211.651356 -147.48963 
L 210.844123 -147.48963 
L 210.03689 -147.48963 
L 209.229656 -147.48963 
L 208.422423 -147.48963 
L 207.61519 -147.48963 
L 206.807957 -147.48963 
L 206.000723 -147.48963 
L 205.19349 -147.48963 
L 204.386257 -147.48963 
L 203.579024 -147.48963 
L 202.77179 -147.48963 
L 201.964557 -147.48963 
L 201.157324 -147.48963 
L 200.35009 -147.48963 
L 199.542857 -147.48963 
L 198.735624 -147.48963 
L 197.928391 -147.48963 
L 197.121157 -147.48963 
L 196.313924 -147.48963 
L 195.506691 -147.48963 
L 194.699458 -147.48963 
L 193.892224 -147.48963 
L 193.084991 -147.48963 
L 192.277758 -147.48963 
L 191.470524 -147.48963 
L 190.663291 -147.48963 
L 189.856058 -147.48963 
L 189.048825 -147.48963 
L 188.241591 -147.48963 
L 187.434358 -147.48963 
L 186.627125 -147.48963 
L 185.819892 -147.48963 
L 185.012658 -147.48963 
L 184.205425 -147.48963 
L 183.398192 -147.48963 
L 182.590958 -147.48963 
L 181.783725 -147.48963 
L 180.976492 -147.48963 
L 180.169259 -147.48963 
L 179.362025 -147.48963 
L 178.554792 -147.48963 
L 177.747559 -147.48963 
L 176.940325 -147.48963 
L 176.133092 -147.48963 
L 175.325859 -147.48963 
L 174.518626 -147.48963 
L 173.711392 -147.48963 
L 172.904159 -147.48963 
L 172.096926 -147.48963 
L 171.289693 -147.48963 
L 170.482459 -147.48963 
L 169.675226 -147.48963 
L 168.867993 -147.48963 
L 168.060759 -147.48963 
L 167.253526 -147.48963 
L 166.446293 -147.48963 
L 165.63906 -147.48963 
L 164.831826 -147.48963 
L 164.024593 -147.48963 
L 163.21736 -147.48963 
L 162.410127 -147.48963 
L 161.602893 -147.48963 
L 160.79566 -147.48963 
L 159.988427 -147.48963 
L 159.181193 -147.48963 
L 158.37396 -147.48963 
L 157.566727 -147.48963 
L 156.759494 -147.48963 
L 155.95226 -147.48963 
L 155.145027 -147.48963 
L 154.337794 -147.48963 
L 153.530561 -147.48963 
L 152.723327 -147.48963 
L 151.916094 -147.48963 
L 151.108861 -147.48963 
L 150.301627 -147.48963 
L 149.494394 -147.48963 
L 148.687161 -147.48963 
L 147.879928 -147.48963 
L 147.072694 -147.48963 
L 146.265461 -147.48963 
L 145.458228 -147.48963 
L 144.650995 -147.48963 
L 143.843761 -147.48963 
L 143.036528 -147.48963 
L 142.229295 -147.48963 
L 141.422061 -147.48963 
L 140.614828 -147.48963 
L 139.807595 -147.48963 
L 139.000362 -147.48963 
L 138.193128 -147.48963 
L 137.385895 -147.48963 
L 136.578662 -147.48963 
L 135.771429 -147.48963 
L 134.964195 -147.48963 
L 134.156962 -147.48963 
L 133.349729 -147.48963 
L 132.542495 -147.48963 
L 131.735262 -147.48963 
L 130.928029 -147.48963 
L 130.120796 -147.48963 
L 129.313562 -147.48963 
L 128.506329 -147.48963 
L 127.699096 -147.48963 
L 126.891863 -147.48963 
L 126.084629 -147.48963 
L 125.277396 -147.48963 
L 124.470163 -147.48963 
L 123.662929 -147.48963 
L 122.855696 -147.48963 
L 122.048463 -147.48963 
L 121.24123 -147.48963 
L 120.433996 -147.48963 
L 119.626763 -147.48963 
L 118.81953 -147.48963 
L 118.012297 -147.48963 
L 117.205063 -147.48963 
L 116.39783 -147.48963 
L 115.590597 -147.48963 
L 114.783363 -147.48963 
L 113.97613 -147.48963 
L 113.168897 -147.48963 
L 112.361664 -147.48963 
L 111.55443 -147.48963 
L 110.747197 -147.48963 
L 109.939964 -147.48963 
L 109.132731 -147.48963 
L 108.325497 -147.48963 
L 107.518264 -147.48963 
L 106.711031 -147.48963 
L 105.903797 -147.48963 
L 105.096564 -147.48963 
L 104.289331 -147.48963 
L 103.482098 -147.48963 
L 102.674864 -147.48963 
L 101.867631 -147.48963 
L 101.060398 -147.48963 
L 100.253165 -147.48963 
L 99.445931 -147.48963 
L 98.638698 -147.48963 
L 97.831465 -147.48963 
L 97.024231 -147.48963 
L 96.216998 -147.48963 
L 95.409765 -147.48963 
L 94.602532 -147.48963 
L 93.795298 -147.48963 
L 92.988065 -147.48963 
L 92.180832 -147.48963 
L 91.373599 -147.48963 
L 90.566365 -147.48963 
L 89.759132 -147.48963 
L 88.951899 -147.48963 
L 88.144665 -147.48963 
L 87.337432 -147.48963 
L 86.530199 -147.48963 
L 85.722966 -147.48963 
L 84.915732 -147.48963 
L 84.108499 -147.48963 
L 83.301266 -147.48963 
L 82.494033 -147.48963 
L 81.686799 -147.48963 
L 80.879566 -147.48963 
L 80.072333 -147.48963 
L 79.265099 -147.48963 
L 78.457866 -147.48963 
L 77.650633 -147.48963 
L 76.8434 -147.48963 
L 76.036166 -147.48963 
L 75.228933 -147.48963 
L 74.4217 -147.48963 
L 73.614467 -147.48963 
L 72.807233 -147.48963 
L 72 -147.48963 
z
" id="mabcdb6e46d"/>
    </defs>
    <g clip-path="url(#p37e1b2d465)">
     <use style="fill-opacity:0.15;" x="0" xlink:href="#mabcdb6e46d" y="360"/>
    </g>
   </g>
   <g id="matplotlib.axis_1">
    <g id="xtick_1">
     <g id="line2d_1">
      <defs>
       <path d="M 0 0 
L 0 3.5 
" id="m9402dedd09" style="stroke:#000000;stroke-width:0.8;"/>
      </defs>
      <g>
       <use style="stroke:#000000;stroke-width:0.8;" x="72" xlink:href="#m9402dedd09" y="320.4"/>
      </g>
     </g>
     <g id="text_1">
      <!-- 0.0 -->
      <g transform="translate(60.867812 338.037813)scale(0.14 -0.14)">
       <defs>
        <path d="M 2034 4250 
Q 1547 4250 1301 3770 
Q 1056 3291 1056 2328 
Q 1056 1369 1301 889 
Q 1547 409 2034 409 
Q 2525 409 2770 889 
Q 3016 1369 3016 2328 
Q 3016 3291 2770 3770 
Q 2525 4250 2034 4250 
z
M 2034 4750 
Q 2819 4750 3233 4129 
Q 3647 3509 3647 2328 
Q 3647 1150 3233 529 
Q 2819 -91 2034 -91 
Q 1250 -91 836 529 
Q 422 1150 422 2328 
Q 422 3509 836 4129 
Q 1250 4750 2034 4750 
z
" id="DejaVuSans-30" transform="scale(0.015625)"/>
        <path d="M 684 794 
L 1344 794 
L 1344 0 
L 684 0 
L 684 794 
z
" id="DejaVuSans-2e" transform="scale(0.015625)"/>
       </defs>
       <use xlink:href="#DejaVuSans-30"/>
       <use x="63.623047" xlink:href="#DejaVuSans-2e"/>
       <use x="95.410156" xlink:href="#DejaVuSans-30"/>
      </g>
     </g>
    </g>
    <g id="xtick_2">
     <g id="line2d_2">
      <g>
       <use style="stroke:#000000;stroke-width:0.8;" x="127.900621" xlink:href="#m9402dedd09" y="320.4"/>
      </g>
     </g>
     <g id="text_2">
      <!-- 2.5 -->
      <g transform="translate(116.768434 338.037813)scale(0.14 -0.14)">
       <defs>
        <path d="M 1228 531 
L 3431 531 
L 3431 0 
L 469 0 
L 469 531 
Q 828 903 1448 1529 
Q 2069 2156 2228 2338 
Q 2531 2678 2651 2914 
Q 2772 3150 2772 3378 
Q 2772 3750 2511 3984 
Q 2250 4219 1831 4219 
Q 1534 4219 1204 4116 
Q 875 4013 500 3803 
L 500 4441 
Q 881 4594 1212 4672 
Q 1544 4750 1819 4750 
Q 2544 4750 2975 4387 
Q 3406 4025 3406 3419 
Q 3406 3131 3298 2873 
Q 3191 2616 2906 2266 
Q 2828 2175 2409 1742 
Q 1991 1309 1228 531 
z
" id="DejaVuSans-32" transform="scale(0.015625)"/>
        <path d="M 691 4666 
L 3169 4666 
L 3169 4134 
L 1269 4134 
L 1269 2991 
Q 1406 3038 1543 3061 
Q 1681 3084 1819 3084 
Q 2600 3084 3056 2656 
Q 3513 2228 3513 1497 
Q 3513 744 3044 326 
Q 2575 -91 1722 -91 
Q 1428 -91 1123 -41 
Q 819 9 494 109 
L 494 744 
Q 775 591 1075 516 
Q 1375 441 1709 441 
Q 2250 441 2565 725 
Q 2881 1009 2881 1497 
Q 2881 1984 2565 2268 
Q 2250 2553 1709 2553 
Q 1456 2553 1204 2497 
Q 953 2441 691 2322 
L 691 4666 
z
" id="DejaVuSans-35" transform="scale(0.015625)"/>
       </defs>
       <use xlink:href="#DejaVuSans-32"/>
       <use x="63.623047" xlink:href="#DejaVuSans-2e"/>
       <use x="95.410156" xlink:href="#DejaVuSans-35"/>
      </g>
     </g>
    </g>
    <g id="xtick_3">
     <g id="line2d_3">
      <g>
       <use style="stroke:#000000;stroke-width:0.8;" x="183.801242" xlink:href="#m9402dedd09" y="320.4"/>
      </g>
     </g>
     <g id="text_3">
      <!-- 5.0 -->
      <g transform="translate(172.669055 338.037813)scale(0.14 -0.14)">
       <use xlink:href="#DejaVuSans-35"/>
       <use x="63.623047" xlink:href="#DejaVuSans-2e"/>
       <use x="95.410156" xlink:href="#DejaVuSans-30"/>
      </g>
     </g>
    </g>
    <g id="xtick_4">
     <g id="line2d_4">
      <g>
       <use style="stroke:#000000;stroke-width:0.8;" x="239.701863" xlink:href="#m9402dedd09" y="320.4"/>
      </g>
     </g>
     <g id="text_4">
      <!-- 7.5 -->
      <g transform="translate(228.569676 338.037813)scale(0.14 -0.14)">
       <defs>
        <path d="M 525 4666 
L 3525 4666 
L 3525 4397 
L 1831 0 
L 1172 0 
L 2766 4134 
L 525 4134 
L 525 4666 
z
" id="DejaVuSans-37" transform="scale(0.015625)"/>
       </defs>
       <use xlink:href="#DejaVuSans-37"/>
       <use x="63.623047" xlink:href="#DejaVuSans-2e"/>
       <use x="95.410156" xlink:href="#DejaVuSans-35"/>
      </g>
     </g>
    </g>
    <g id="xtick_5">
     <g id="line2d_5">
      <g>
       <use style="stroke:#000000;stroke-width:0.8;" x="295.602484" xlink:href="#m9402dedd09" y="320.4"/>
      </g>
     </g>
     <g id="text_5">
      <!-- 10.0 -->
      <g transform="translate(280.016547 338.037813)scale(0.14 -0.14)">
       <defs>
        <path d="M 794 531 
L 1825 531 
L 1825 4091 
L 703 3866 
L 703 4441 
L 1819 4666 
L 2450 4666 
L 2450 531 
L 3481 531 
L 3481 0 
L 794 0 
L 794 531 
z
" id="DejaVuSans-31" transform="scale(0.015625)"/>
       </defs>
       <use xlink:href="#DejaVuSans-31"/>
       <use x="63.623047" xlink:href="#DejaVuSans-30"/>
       <use x="127.246094" xlink:href="#DejaVuSans-2e"/>
       <use x="159.033203" xlink:href="#DejaVuSans-30"/>
      </g>
     </g>
    </g>
    <g id="xtick_6">
     <g id="line2d_6">
      <g>
       <use style="stroke:#000000;stroke-width:0.8;" x="351.503106" xlink:href="#m9402dedd09" y="320.4"/>
      </g>
     </g>
     <g id="text_6">
      <!-- 12.5 -->
      <g transform="translate(335.917168 338.037813)scale(0.14 -0.14)">
       <use xlink:href="#DejaVuSans-31"/>
       <use x="63.623047" xlink:href="#DejaVuSans-32"/>
       <use x="127.246094" xlink:href="#DejaVuSans-2e"/>
       <use x="159.033203" xlink:href="#DejaVuSans-35"/>
      </g>
     </g>
    </g>
    <g id="xtick_7">
     <g id="line2d_7">
      <g>
       <use style="stroke:#000000;stroke-width:0.8;" x="407.403727" xlink:href="#m9402dedd09" y="320.4"/>
      </g>
     </g>
     <g id="text_7">
      <!-- 15.0 -->
      <g transform="translate(391.817789 338.037813)scale(0.14 -0.14)">
       <use xlink:href="#DejaVuSans-31"/>
       <use x="63.623047" xlink:href="#DejaVuSans-35"/>
       <use x="127.246094" xlink:href="#DejaVuSans-2e"/>
       <use x="159.033203" xlink:href="#DejaVuSans-30"/>
      </g>
     </g>
    </g>
    <g id="xtick_8">
     <g id="line2d_8">
      <g>
       <use style="stroke:#000000;stroke-width:0.8;" x="463.304348" xlink:href="#m9402dedd09" y="320.4"/>
      </g>
     </g>
     <g id="text_8">
      <!-- 17.5 -->
      <g transform="translate(447.71841 338.037813)scale(0.14 -0.14)">
       <use xlink:href="#DejaVuSans-31"/>
       <use x="63.623047" xlink:href="#DejaVuSans-37"/>
       <use x="127.246094" xlink:href="#DejaVuSans-2e"/>
       <use x="159.033203" xlink:href="#DejaVuSans-35"/>
      </g>
     </g>
    </g>
    <g id="text_9">
     <!-- Time [Seconds] -->
     <g transform="translate(233.23 357.106875)scale(0.16 -0.16)">
      <defs>
       <path d="M -19 4666 
L 3928 4666 
L 3928 4134 
L 2272 4134 
L 2272 0 
L 1638 0 
L 1638 4134 
L -19 4134 
L -19 4666 
z
" id="DejaVuSans-54" transform="scale(0.015625)"/>
       <path d="M 603 3500 
L 1178 3500 
L 1178 0 
L 603 0 
L 603 3500 
z
M 603 4863 
L 1178 4863 
L 1178 4134 
L 603 4134 
L 603 4863 
z
" id="DejaVuSans-69" transform="scale(0.015625)"/>
       <path d="M 3328 2828 
Q 3544 3216 3844 3400 
Q 4144 3584 4550 3584 
Q 5097 3584 5394 3201 
Q 5691 2819 5691 2113 
L 5691 0 
L 5113 0 
L 5113 2094 
Q 5113 2597 4934 2840 
Q 4756 3084 4391 3084 
Q 3944 3084 3684 2787 
Q 3425 2491 3425 1978 
L 3425 0 
L 2847 0 
L 2847 2094 
Q 2847 2600 2669 2842 
Q 2491 3084 2119 3084 
Q 1678 3084 1418 2786 
Q 1159 2488 1159 1978 
L 1159 0 
L 581 0 
L 581 3500 
L 1159 3500 
L 1159 2956 
Q 1356 3278 1631 3431 
Q 1906 3584 2284 3584 
Q 2666 3584 2933 3390 
Q 3200 3197 3328 2828 
z
" id="DejaVuSans-6d" transform="scale(0.015625)"/>
       <path d="M 3597 1894 
L 3597 1613 
L 953 1613 
Q 991 1019 1311 708 
Q 1631 397 2203 397 
Q 2534 397 2845 478 
Q 3156 559 3463 722 
L 3463 178 
Q 3153 47 2828 -22 
Q 2503 -91 2169 -91 
Q 1331 -91 842 396 
Q 353 884 353 1716 
Q 353 2575 817 3079 
Q 1281 3584 2069 3584 
Q 2775 3584 3186 3129 
Q 3597 2675 3597 1894 
z
M 3022 2063 
Q 3016 2534 2758 2815 
Q 2500 3097 2075 3097 
Q 1594 3097 1305 2825 
Q 1016 2553 972 2059 
L 3022 2063 
z
" id="DejaVuSans-65" transform="scale(0.015625)"/>
       <path id="DejaVuSans-20" transform="scale(0.015625)"/>
       <path d="M 550 4863 
L 1875 4863 
L 1875 4416 
L 1125 4416 
L 1125 -397 
L 1875 -397 
L 1875 -844 
L 550 -844 
L 550 4863 
z
" id="DejaVuSans-5b" transform="scale(0.015625)"/>
       <path d="M 3425 4513 
L 3425 3897 
Q 3066 4069 2747 4153 
Q 2428 4238 2131 4238 
Q 1616 4238 1336 4038 
Q 1056 3838 1056 3469 
Q 1056 3159 1242 3001 
Q 1428 2844 1947 2747 
L 2328 2669 
Q 3034 2534 3370 2195 
Q 3706 1856 3706 1288 
Q 3706 609 3251 259 
Q 2797 -91 1919 -91 
Q 1588 -91 1214 -16 
Q 841 59 441 206 
L 441 856 
Q 825 641 1194 531 
Q 1563 422 1919 422 
Q 2459 422 2753 634 
Q 3047 847 3047 1241 
Q 3047 1584 2836 1778 
Q 2625 1972 2144 2069 
L 1759 2144 
Q 1053 2284 737 2584 
Q 422 2884 422 3419 
Q 422 4038 858 4394 
Q 1294 4750 2059 4750 
Q 2388 4750 2728 4690 
Q 3069 4631 3425 4513 
z
" id="DejaVuSans-53" transform="scale(0.015625)"/>
       <path d="M 3122 3366 
L 3122 2828 
Q 2878 2963 2633 3030 
Q 2388 3097 2138 3097 
Q 1578 3097 1268 2742 
Q 959 2388 959 1747 
Q 959 1106 1268 751 
Q 1578 397 2138 397 
Q 2388 397 2633 464 
Q 2878 531 3122 666 
L 3122 134 
Q 2881 22 2623 -34 
Q 2366 -91 2075 -91 
Q 1284 -91 818 406 
Q 353 903 353 1747 
Q 353 2603 823 3093 
Q 1294 3584 2113 3584 
Q 2378 3584 2631 3529 
Q 2884 3475 3122 3366 
z
" id="DejaVuSans-63" transform="scale(0.015625)"/>
       <path d="M 1959 3097 
Q 1497 3097 1228 2736 
Q 959 2375 959 1747 
Q 959 1119 1226 758 
Q 1494 397 1959 397 
Q 2419 397 2687 759 
Q 2956 1122 2956 1747 
Q 2956 2369 2687 2733 
Q 2419 3097 1959 3097 
z
M 1959 3584 
Q 2709 3584 3137 3096 
Q 3566 2609 3566 1747 
Q 3566 888 3137 398 
Q 2709 -91 1959 -91 
Q 1206 -91 779 398 
Q 353 888 353 1747 
Q 353 2609 779 3096 
Q 1206 3584 1959 3584 
z
" id="DejaVuSans-6f" transform="scale(0.015625)"/>
       <path d="M 3513 2113 
L 3513 0 
L 2938 0 
L 2938 2094 
Q 2938 2591 2744 2837 
Q 2550 3084 2163 3084 
Q 1697 3084 1428 2787 
Q 1159 2491 1159 1978 
L 1159 0 
L 581 0 
L 581 3500 
L 1159 3500 
L 1159 2956 
Q 1366 3272 1645 3428 
Q 1925 3584 2291 3584 
Q 2894 3584 3203 3211 
Q 3513 2838 3513 2113 
z
" id="DejaVuSans-6e" transform="scale(0.015625)"/>
       <path d="M 2906 2969 
L 2906 4863 
L 3481 4863 
L 3481 0 
L 2906 0 
L 2906 525 
Q 2725 213 2448 61 
Q 2172 -91 1784 -91 
Q 1150 -91 751 415 
Q 353 922 353 1747 
Q 353 2572 751 3078 
Q 1150 3584 1784 3584 
Q 2172 3584 2448 3432 
Q 2725 3281 2906 2969 
z
M 947 1747 
Q 947 1113 1208 752 
Q 1469 391 1925 391 
Q 2381 391 2643 752 
Q 2906 1113 2906 1747 
Q 2906 2381 2643 2742 
Q 2381 3103 1925 3103 
Q 1469 3103 1208 2742 
Q 947 2381 947 1747 
z
" id="DejaVuSans-64" transform="scale(0.015625)"/>
       <path d="M 2834 3397 
L 2834 2853 
Q 2591 2978 2328 3040 
Q 2066 3103 1784 3103 
Q 1356 3103 1142 2972 
Q 928 2841 928 2578 
Q 928 2378 1081 2264 
Q 1234 2150 1697 2047 
L 1894 2003 
Q 2506 1872 2764 1633 
Q 3022 1394 3022 966 
Q 3022 478 2636 193 
Q 2250 -91 1575 -91 
Q 1294 -91 989 -36 
Q 684 19 347 128 
L 347 722 
Q 666 556 975 473 
Q 1284 391 1588 391 
Q 1994 391 2212 530 
Q 2431 669 2431 922 
Q 2431 1156 2273 1281 
Q 2116 1406 1581 1522 
L 1381 1569 
Q 847 1681 609 1914 
Q 372 2147 372 2553 
Q 372 3047 722 3315 
Q 1072 3584 1716 3584 
Q 2034 3584 2315 3537 
Q 2597 3491 2834 3397 
z
" id="DejaVuSans-73" transform="scale(0.015625)"/>
       <path d="M 1947 4863 
L 1947 -844 
L 622 -844 
L 622 -397 
L 1369 -397 
L 1369 4416 
L 622 4416 
L 622 4863 
L 1947 4863 
z
" id="DejaVuSans-5d" transform="scale(0.015625)"/>
      </defs>
      <use xlink:href="#DejaVuSans-54"/>
      <use x="57.958984" xlink:href="#DejaVuSans-69"/>
      <use x="85.742188" xlink:href="#DejaVuSans-6d"/>
      <use x="183.154297" xlink:href="#DejaVuSans-65"/>
      <use x="244.677734" xlink:href="#DejaVuSans-20"/>
      <use x="276.464844" xlink:href="#DejaVuSans-5b"/>
      <use x="315.478516" xlink:href="#DejaVuSans-53"/>
      <use x="378.955078" xlink:href="#DejaVuSans-65"/>
      <use x="440.478516" xlink:href="#DejaVuSans-63"/>
      <use x="495.458984" xlink:href="#DejaVuSans-6f"/>
      <use x="556.640625" xlink:href="#DejaVuSans-6e"/>
      <use x="620.019531" xlink:href="#DejaVuSans-64"/>
      <use x="683.496094" xlink:href="#DejaVuSans-73"/>
      <use x="735.595703" xlink:href="#DejaVuSans-5d"/>
     </g>
    </g>
   </g>
   <g id="matplotlib.axis_2">
    <g id="ytick_1">
     <g id="line2d_9">
      <defs>
       <path d="M 0 0 
L -3.5 0 
" id="m68d6f6a112" style="stroke:#000000;stroke-width:0.8;"/>
      </defs>
      <g>
       <use style="stroke:#000000;stroke-width:0.8;" x="72" xlink:href="#m68d6f6a112" y="299.595556"/>
      </g>
     </g>
     <g id="text_10">
      <!-- 0.00 -->
      <g transform="translate(33.828125 304.914462)scale(0.14 -0.14)">
       <use xlink:href="#DejaVuSans-30"/>
       <use x="63.623047" xlink:href="#DejaVuSans-2e"/>
       <use x="95.410156" xlink:href="#DejaVuSans-30"/>
       <use x="159.033203" xlink:href="#DejaVuSans-30"/>
      </g>
     </g>
    </g>
    <g id="ytick_2">
     <g id="line2d_10">
      <g>
       <use style="stroke:#000000;stroke-width:0.8;" x="72" xlink:href="#m68d6f6a112" y="263.85585"/>
      </g>
     </g>
     <g id="text_11">
      <!-- 0.25 -->
      <g transform="translate(33.828125 269.174757)scale(0.14 -0.14)">
       <use xlink:href="#DejaVuSans-30"/>
       <use x="63.623047" xlink:href="#DejaVuSans-2e"/>
       <use x="95.410156" xlink:href="#DejaVuSans-32"/>
       <use x="159.033203" xlink:href="#DejaVuSans-35"/>
      </g>
     </g>
    </g>
    <g id="ytick_3">
     <g id="line2d_11">
      <g>
       <use style="stroke:#000000;stroke-width:0.8;" x="72" xlink:href="#m68d6f6a112" y="228.116145"/>
      </g>
     </g>
     <g id="text_12">
      <!-- 0.50 -->
      <g transform="translate(33.828125 233.435051)scale(0.14 -0.14)">
       <use xlink:href="#DejaVuSans-30"/>
       <use x="63.623047" xlink:href="#DejaVuSans-2e"/>
       <use x="95.410156" xlink:href="#DejaVuSans-35"/>
       <use x="159.033203" xlink:href="#DejaVuSans-30"/>
      </g>
     </g>
    </g>
    <g id="ytick_4">
     <g id="line2d_12">
      <g>
       <use style="stroke:#000000;stroke-width:0.8;" x="72" xlink:href="#m68d6f6a112" y="192.376439"/>
      </g>
     </g>
     <g id="text_13">
      <!-- 0.75 -->
      <g transform="translate(33.828125 197.695345)scale(0.14 -0.14)">
       <use xlink:href="#DejaVuSans-30"/>
       <use x="63.623047" xlink:href="#DejaVuSans-2e"/>
       <use x="95.410156" xlink:href="#DejaVuSans-37"/>
       <use x="159.033203" xlink:href="#DejaVuSans-35"/>
      </g>
     </g>
    </g>
    <g id="ytick_5">
     <g id="line2d_13">
      <g>
       <use style="stroke:#000000;stroke-width:0.8;" x="72" xlink:href="#m68d6f6a112" y="156.636733"/>
      </g>
     </g>
     <g id="text_14">
      <!-- 1.00 -->
      <g transform="translate(33.828125 161.95564)scale(0.14 -0.14)">
       <use xlink:href="#DejaVuSans-31"/>
       <use x="63.623047" xlink:href="#DejaVuSans-2e"/>
       <use x="95.410156" xlink:href="#DejaVuSans-30"/>
       <use x="159.033203" xlink:href="#DejaVuSans-30"/>
      </g>
     </g>
    </g>
    <g id="ytick_6">
     <g id="line2d_14">
      <g>
       <use style="stroke:#000000;stroke-width:0.8;" x="72" xlink:href="#m68d6f6a112" y="120.897028"/>
      </g>
     </g>
     <g id="text_15">
      <!-- 1.25 -->
      <g transform="translate(33.828125 126.215934)scale(0.14 -0.14)">
       <use xlink:href="#DejaVuSans-31"/>
       <use x="63.623047" xlink:href="#DejaVuSans-2e"/>
       <use x="95.410156" xlink:href="#DejaVuSans-32"/>
       <use x="159.033203" xlink:href="#DejaVuSans-35"/>
      </g>
     </g>
    </g>
    <g id="ytick_7">
     <g id="line2d_15">
      <g>
       <use style="stroke:#000000;stroke-width:0.8;" x="72" xlink:href="#m68d6f6a112" y="85.157322"/>
      </g>
     </g>
     <g id="text_16">
      <!-- 1.50 -->
      <g transform="translate(33.828125 90.476228)scale(0.14 -0.14)">
       <use xlink:href="#DejaVuSans-31"/>
       <use x="63.623047" xlink:href="#DejaVuSans-2e"/>
       <use x="95.410156" xlink:href="#DejaVuSans-35"/>
       <use x="159.033203" xlink:href="#DejaVuSans-30"/>
      </g>
     </g>
    </g>
    <g id="ytick_8">
     <g id="line2d_16">
      <g>
       <use style="stroke:#000000;stroke-width:0.8;" x="72" xlink:href="#m68d6f6a112" y="49.417617"/>
      </g>
     </g>
     <g id="text_17">
      <!-- 1.75 -->
      <g transform="translate(33.828125 54.736523)scale(0.14 -0.14)">
       <use xlink:href="#DejaVuSans-31"/>
       <use x="63.623047" xlink:href="#DejaVuSans-2e"/>
       <use x="95.410156" xlink:href="#DejaVuSans-37"/>
       <use x="159.033203" xlink:href="#DejaVuSans-35"/>
      </g>
     </g>
    </g>
    <g id="text_18">
     <!-- Speed [mm/s] -->
     <g transform="translate(26.500625 238.11375)rotate(-90)scale(0.16 -0.16)">
      <defs>
       <path d="M 1159 525 
L 1159 -1331 
L 581 -1331 
L 581 3500 
L 1159 3500 
L 1159 2969 
Q 1341 3281 1617 3432 
Q 1894 3584 2278 3584 
Q 2916 3584 3314 3078 
Q 3713 2572 3713 1747 
Q 3713 922 3314 415 
Q 2916 -91 2278 -91 
Q 1894 -91 1617 61 
Q 1341 213 1159 525 
z
M 3116 1747 
Q 3116 2381 2855 2742 
Q 2594 3103 2138 3103 
Q 1681 3103 1420 2742 
Q 1159 2381 1159 1747 
Q 1159 1113 1420 752 
Q 1681 391 2138 391 
Q 2594 391 2855 752 
Q 3116 1113 3116 1747 
z
" id="DejaVuSans-70" transform="scale(0.015625)"/>
       <path d="M 1625 4666 
L 2156 4666 
L 531 -594 
L 0 -594 
L 1625 4666 
z
" id="DejaVuSans-2f" transform="scale(0.015625)"/>
      </defs>
      <use xlink:href="#DejaVuSans-53"/>
      <use x="63.476562" xlink:href="#DejaVuSans-70"/>
      <use x="126.953125" xlink:href="#DejaVuSans-65"/>
      <use x="188.476562" xlink:href="#DejaVuSans-65"/>
      <use x="250" xlink:href="#DejaVuSans-64"/>
      <use x="313.476562" xlink:href="#DejaVuSans-20"/>
      <use x="345.263672" xlink:href="#DejaVuSans-5b"/>
      <use x="384.277344" xlink:href="#DejaVuSans-6d"/>
      <use x="481.689453" xlink:href="#DejaVuSans-6d"/>
      <use x="579.101562" xlink:href="#DejaVuSans-2f"/>
      <use x="612.792969" xlink:href="#DejaVuSans-73"/>
      <use x="664.892578" xlink:href="#DejaVuSans-5d"/>
     </g>
    </g>
   </g>
   <g id="line2d_17">
    <path clip-path="url(#p37e1b2d465)" d="M 72 209.59135 
L 518.4 209.59135 
" style="fill:none;stroke:#000000;stroke-dasharray:5.55,2.4;stroke-dashoffset:0;stroke-width:1.5;"/>
   </g>
   <g id="line2d_18">
    <path clip-path="url(#p37e1b2d465)" d="M 72 296.55172 
L 121.24123 296.565086 
L 122.048463 296.431437 
L 122.855696 297.083291 
L 123.662929 294.599511 
L 124.470163 292.560877 
L 125.277396 295.726294 
L 126.084629 297.563537 
L 126.891863 299.102919 
L 127.699096 301.320532 
L 128.506329 299.902363 
L 129.313562 296.125057 
L 130.120796 294.391398 
L 130.928029 299.704918 
L 131.735262 307.8 
L 132.542495 306.699554 
L 133.349729 294.457957 
L 134.156962 273.585291 
L 134.964195 245.873868 
L 138.193128 118.771751 
L 139.000362 94.239062 
L 139.807595 74.608312 
L 140.614828 63.155052 
L 141.422061 57.815372 
L 142.229295 55.8 
L 143.036528 65.295823 
L 143.843761 80.506701 
L 145.458228 117.403428 
L 147.072694 162.319065 
L 147.879928 179.508899 
L 148.687161 193.534513 
L 149.494394 198.993741 
L 150.301627 195.935229 
L 151.108861 186.774689 
L 151.916094 181.210001 
L 152.723327 185.920078 
L 153.530561 191.925082 
L 154.337794 195.58431 
L 155.145027 198.123857 
L 155.95226 199.959373 
L 156.759494 200.332905 
L 157.566727 198.75535 
L 158.37396 197.532316 
L 159.181193 198.309445 
L 159.988427 199.756948 
L 160.79566 200.395508 
L 161.602893 201.557905 
L 162.410127 203.65752 
L 163.21736 203.802926 
L 164.024593 201.387126 
L 164.831826 202.966427 
L 165.63906 203.248846 
L 166.446293 202.273022 
L 168.060759 207.36552 
L 168.867993 206.21474 
L 169.675226 206.24458 
L 170.482459 207.367176 
L 171.289693 206.414825 
L 172.096926 207.317544 
L 172.904159 205.614939 
L 173.711392 205.921481 
L 174.518626 206.958369 
L 175.325859 204.550216 
L 176.133092 205.243189 
L 177.747559 207.625272 
L 178.554792 207.85117 
L 179.362025 207.135324 
L 180.169259 208.017363 
L 180.976492 208.009732 
L 181.783725 207.775381 
L 182.590958 208.153505 
L 183.398192 208.767394 
L 184.205425 208.868797 
L 185.012658 209.495078 
L 185.819892 209.59971 
L 186.627125 209.068591 
L 187.434358 209.07036 
L 188.241591 208.508639 
L 189.048825 208.763634 
L 189.856058 209.748499 
L 190.663291 209.123094 
L 191.470524 209.071861 
L 192.277758 209.880921 
L 193.084991 210.359567 
L 193.892224 210.568958 
L 194.699458 209.365422 
L 196.313924 209.045426 
L 197.121157 208.167852 
L 198.735624 209.266939 
L 199.542857 209.399349 
L 200.35009 209.174744 
L 201.157324 209.332189 
L 201.964557 209.63099 
L 202.77179 209.253664 
L 203.579024 209.259031 
L 204.386257 209.807757 
L 205.19349 210.198014 
L 206.000723 210.348103 
L 206.807957 210.13618 
L 207.61519 210.10174 
L 208.422423 210.99276 
L 209.229656 211.24801 
L 210.03689 210.414805 
L 210.844123 209.943205 
L 211.651356 210.434876 
L 212.45859 210.509396 
L 213.265823 209.746674 
L 214.073056 209.697528 
L 214.880289 210.197105 
L 215.687523 210.412549 
L 216.494756 210.066353 
L 217.301989 209.985599 
L 218.109222 209.602555 
L 218.916456 209.407837 
L 219.723689 209.800519 
L 221.338156 209.333731 
L 222.145389 209.536093 
L 222.952622 209.982071 
L 223.759855 210.297171 
L 224.567089 210.256434 
L 225.374322 209.567859 
L 226.181555 209.401986 
L 226.988788 210.092753 
L 227.796022 210.254351 
L 228.603255 209.303561 
L 229.410488 209.457186 
L 230.217722 211.048411 
L 231.024955 211.152466 
L 231.832188 210.30434 
L 232.639421 210.287904 
L 233.446655 211.13826 
L 234.253888 211.224221 
L 235.061121 210.337013 
L 235.868354 210.425922 
L 236.675588 210.658484 
L 237.482821 210.720817 
L 238.290054 210.938713 
L 239.097288 211.01857 
L 239.904521 210.592212 
L 240.711754 210.570618 
L 241.518987 210.714878 
L 242.326221 210.473937 
L 243.133454 210.447597 
L 243.940687 210.533707 
L 244.74792 210.819179 
L 245.555154 210.864144 
L 247.16962 210.1503 
L 248.784087 210.587706 
L 250.398553 209.767273 
L 251.205787 209.877795 
L 252.01302 210.368432 
L 254.43472 210.081327 
L 255.241953 209.865689 
L 259.278119 210.051045 
L 260.085353 210.52899 
L 260.892586 210.130724 
L 261.699819 209.602734 
L 262.507052 210.157235 
L 263.314286 210.491808 
L 265.735986 209.881692 
L 266.543219 210.058535 
L 267.350452 209.949803 
L 268.157685 210.219298 
L 268.964919 210.703767 
L 269.772152 210.790719 
L 270.579385 210.665173 
L 271.386618 210.873065 
L 272.193852 211.216446 
L 273.001085 211.058673 
L 275.422785 211.235651 
L 277.037251 210.643757 
L 277.844485 210.734827 
L 278.651718 210.512466 
L 279.458951 210.163411 
L 281.073418 210.19812 
L 281.880651 210.590317 
L 282.687884 209.996228 
L 283.495118 209.587586 
L 284.302351 210.322217 
L 285.109584 210.105714 
L 285.916817 209.728448 
L 286.724051 209.999492 
L 288.338517 210.112057 
L 289.952984 210.06095 
L 293.181917 210.868168 
L 293.98915 211.15059 
L 297.218083 211.003464 
L 298.025316 210.746534 
L 298.83255 210.763552 
L 299.639783 210.59381 
L 301.25425 209.808258 
L 303.675949 210.343297 
L 305.290416 210.2225 
L 306.097649 210.555352 
L 306.904882 209.88979 
L 307.712116 209.741306 
L 308.519349 210.807122 
L 309.326582 211.028285 
L 310.133816 210.786278 
L 310.941049 210.70363 
L 311.748282 210.494839 
L 312.555515 210.099377 
L 313.362749 209.865073 
L 314.169982 209.92597 
L 314.977215 210.265553 
L 315.784448 210.370279 
L 316.591682 210.153233 
L 317.398915 210.12955 
L 318.206148 210.630996 
L 319.013382 210.789392 
L 319.820615 210.270937 
L 320.627848 210.167755 
L 322.242315 210.520812 
L 323.049548 210.353307 
L 324.664014 210.67636 
L 325.471248 210.21526 
L 326.278481 210.23789 
L 327.892948 210.461182 
L 328.700181 210.032019 
L 329.507414 210.073157 
L 330.314647 210.689997 
L 331.121881 210.693643 
L 331.929114 210.414282 
L 332.736347 210.356815 
L 334.350814 209.712718 
L 335.96528 210.019225 
L 336.772514 210.448839 
L 338.38698 210.680474 
L 339.194213 210.661706 
L 340.80868 211.176993 
L 341.615913 210.898616 
L 342.423146 211.045051 
L 343.23038 211.33353 
L 344.037613 211.30148 
L 344.844846 210.863388 
L 345.65208 210.642658 
L 346.459313 210.258218 
L 347.266546 209.703383 
L 350.495479 210.268321 
L 351.302712 210.506987 
L 353.724412 209.892861 
L 356.146112 210.449431 
L 356.953345 210.460755 
L 357.760579 210.672479 
L 358.567812 211.186845 
L 360.182278 210.482041 
L 360.989512 210.388982 
L 362.603978 210.746212 
L 363.411212 210.629674 
L 365.025678 211.013744 
L 368.254611 209.718823 
L 369.061844 209.787241 
L 370.676311 210.324568 
L 372.290778 210.607642 
L 373.098011 210.375416 
L 373.905244 210.343052 
L 374.712477 210.474638 
L 375.519711 210.373611 
L 377.134177 210.529268 
L 378.748644 210.247349 
L 379.555877 210.333476 
L 380.36311 210.240691 
L 381.170344 210.022665 
L 381.977577 210.218144 
L 382.78481 210.692143 
L 383.592043 210.895149 
L 384.399277 210.722413 
L 385.20651 210.676513 
L 386.013743 210.859043 
L 389.242676 210.544577 
L 390.04991 210.825861 
L 392.471609 210.578749 
L 393.278843 210.197645 
L 394.086076 209.574063 
L 394.893309 209.362902 
L 395.700542 209.973535 
L 397.315009 210.458178 
L 398.122242 210.623722 
L 399.736709 210.106055 
L 401.351175 209.660944 
L 404.580108 210.885689 
L 405.387342 210.918854 
L 407.809042 210.610528 
L 411.845208 211.153688 
L 413.459675 210.430955 
L 415.881374 209.851004 
L 417.495841 209.954387 
L 419.110307 210.319935 
L 419.917541 209.92351 
L 420.724774 209.863613 
L 421.532007 210.202836 
L 423.146474 210.365219 
L 423.953707 210.737216 
L 424.76094 210.898525 
L 425.568174 210.749081 
L 426.375407 210.7887 
L 427.18264 210.533591 
L 428.797107 210.643724 
L 429.60434 210.368433 
L 430.411573 210.501077 
L 431.218807 210.894317 
L 432.02604 211.124438 
L 433.640506 210.548685 
L 434.44774 210.612066 
L 436.062206 210.066933 
L 436.869439 210.209985 
L 437.676673 210.580675 
L 438.483906 210.573949 
L 440.905606 209.653288 
L 441.712839 209.495057 
L 442.520072 210.028726 
L 443.327306 209.895006 
L 444.134539 210.051566 
L 444.941772 210.425553 
L 445.749005 210.176149 
L 446.556239 210.103434 
L 447.363472 210.152259 
L 448.170705 210.529725 
L 448.977939 210.22496 
L 450.592405 210.978614 
L 451.399638 210.608016 
L 452.206872 210.795791 
L 453.014105 211.202589 
L 453.821338 211.107451 
L 454.628571 210.76483 
L 455.435805 210.651619 
L 457.050271 210.969428 
L 458.664738 210.809754 
L 459.471971 210.95964 
L 460.279204 210.74444 
L 461.893671 209.99393 
L 462.700904 209.961453 
L 463.508137 210.07572 
L 464.315371 209.886131 
L 465.122604 209.325563 
L 465.929837 209.685675 
L 466.737071 209.849346 
L 467.544304 209.558044 
L 470.773237 210.482861 
L 471.58047 211.014554 
L 472.387703 210.514182 
L 473.194937 210.236869 
L 474.00217 211.054423 
L 474.809403 211.046256 
L 475.616637 210.615765 
L 478.84557 210.329761 
L 479.652803 210.017361 
L 480.460036 209.88361 
L 482.881736 210.294554 
L 484.496203 210.888962 
L 485.303436 210.765779 
L 486.110669 210.776306 
L 486.917902 211.069485 
L 487.725136 211.121933 
L 488.532369 210.982699 
L 489.339602 211.116994 
L 490.146835 211.013063 
L 490.954069 210.228082 
L 491.761302 210.18614 
L 492.568535 210.485932 
L 493.375769 210.161563 
L 494.183002 209.475476 
L 494.990235 209.275691 
L 495.797468 209.924875 
L 497.411935 209.774652 
L 499.026401 210.454392 
L 500.640868 210.505156 
L 501.448101 210.739835 
L 502.255335 210.22478 
L 503.062568 210.063883 
L 503.869801 210.214058 
L 504.677034 209.960314 
L 507.098734 209.689478 
L 508.713201 209.85007 
L 510.327667 210.365633 
L 513.5566 211.757884 
L 514.363834 211.955981 
L 515.171067 211.986398 
L 515.9783 211.781953 
L 516.785533 211.267843 
L 517.592767 210.361647 
L 518.4 208.973321 
L 518.4 208.973321 
" style="fill:none;stroke:#ff0000;stroke-linecap:square;stroke-width:2;"/>
   </g>
   <g id="patch_3">
    <path d="M 72 320.4 
L 72 43.2 
" style="fill:none;stroke:#000000;stroke-linecap:square;stroke-linejoin:miter;stroke-width:0.8;"/>
   </g>
   <g id="patch_4">
    <path d="M 518.4 320.4 
L 518.4 43.2 
" style="fill:none;stroke:#000000;stroke-linecap:square;stroke-linejoin:miter;stroke-width:0.8;"/>
   </g>
   <g id="patch_5">
    <path d="M 72 320.4 
L 518.4 320.4 
" style="fill:none;stroke:#000000;stroke-linecap:square;stroke-linejoin:miter;stroke-width:0.8;"/>
   </g>
   <g id="patch_6">
    <path d="M 72 43.2 
L 518.4 43.2 
" style="fill:none;stroke:#000000;stroke-linecap:square;stroke-linejoin:miter;stroke-width:0.8;"/>
   </g>
   <g id="text_19">
    <!-- Front Propogation Speed -->
    <g transform="translate(172.245312 37.2)scale(0.2 -0.2)">
     <defs>
      <path d="M 628 4666 
L 3309 4666 
L 3309 4134 
L 1259 4134 
L 1259 2759 
L 3109 2759 
L 3109 2228 
L 1259 2228 
L 1259 0 
L 628 0 
L 628 4666 
z
" id="DejaVuSans-46" transform="scale(0.015625)"/>
      <path d="M 2631 2963 
Q 2534 3019 2420 3045 
Q 2306 3072 2169 3072 
Q 1681 3072 1420 2755 
Q 1159 2438 1159 1844 
L 1159 0 
L 581 0 
L 581 3500 
L 1159 3500 
L 1159 2956 
Q 1341 3275 1631 3429 
Q 1922 3584 2338 3584 
Q 2397 3584 2469 3576 
Q 2541 3569 2628 3553 
L 2631 2963 
z
" id="DejaVuSans-72" transform="scale(0.015625)"/>
      <path d="M 1172 4494 
L 1172 3500 
L 2356 3500 
L 2356 3053 
L 1172 3053 
L 1172 1153 
Q 1172 725 1289 603 
Q 1406 481 1766 481 
L 2356 481 
L 2356 0 
L 1766 0 
Q 1100 0 847 248 
Q 594 497 594 1153 
L 594 3053 
L 172 3053 
L 172 3500 
L 594 3500 
L 594 4494 
L 1172 4494 
z
" id="DejaVuSans-74" transform="scale(0.015625)"/>
      <path d="M 1259 4147 
L 1259 2394 
L 2053 2394 
Q 2494 2394 2734 2622 
Q 2975 2850 2975 3272 
Q 2975 3691 2734 3919 
Q 2494 4147 2053 4147 
L 1259 4147 
z
M 628 4666 
L 2053 4666 
Q 2838 4666 3239 4311 
Q 3641 3956 3641 3272 
Q 3641 2581 3239 2228 
Q 2838 1875 2053 1875 
L 1259 1875 
L 1259 0 
L 628 0 
L 628 4666 
z
" id="DejaVuSans-50" transform="scale(0.015625)"/>
      <path d="M 2906 1791 
Q 2906 2416 2648 2759 
Q 2391 3103 1925 3103 
Q 1463 3103 1205 2759 
Q 947 2416 947 1791 
Q 947 1169 1205 825 
Q 1463 481 1925 481 
Q 2391 481 2648 825 
Q 2906 1169 2906 1791 
z
M 3481 434 
Q 3481 -459 3084 -895 
Q 2688 -1331 1869 -1331 
Q 1566 -1331 1297 -1286 
Q 1028 -1241 775 -1147 
L 775 -588 
Q 1028 -725 1275 -790 
Q 1522 -856 1778 -856 
Q 2344 -856 2625 -561 
Q 2906 -266 2906 331 
L 2906 616 
Q 2728 306 2450 153 
Q 2172 0 1784 0 
Q 1141 0 747 490 
Q 353 981 353 1791 
Q 353 2603 747 3093 
Q 1141 3584 1784 3584 
Q 2172 3584 2450 3431 
Q 2728 3278 2906 2969 
L 2906 3500 
L 3481 3500 
L 3481 434 
z
" id="DejaVuSans-67" transform="scale(0.015625)"/>
      <path d="M 2194 1759 
Q 1497 1759 1228 1600 
Q 959 1441 959 1056 
Q 959 750 1161 570 
Q 1363 391 1709 391 
Q 2188 391 2477 730 
Q 2766 1069 2766 1631 
L 2766 1759 
L 2194 1759 
z
M 3341 1997 
L 3341 0 
L 2766 0 
L 2766 531 
Q 2569 213 2275 61 
Q 1981 -91 1556 -91 
Q 1019 -91 701 211 
Q 384 513 384 1019 
Q 384 1609 779 1909 
Q 1175 2209 1959 2209 
L 2766 2209 
L 2766 2266 
Q 2766 2663 2505 2880 
Q 2244 3097 1772 3097 
Q 1472 3097 1187 3025 
Q 903 2953 641 2809 
L 641 3341 
Q 956 3463 1253 3523 
Q 1550 3584 1831 3584 
Q 2591 3584 2966 3190 
Q 3341 2797 3341 1997 
z
" id="DejaVuSans-61" transform="scale(0.015625)"/>
     </defs>
     <use xlink:href="#DejaVuSans-46"/>
     <use x="50.269531" xlink:href="#DejaVuSans-72"/>
     <use x="89.132812" xlink:href="#DejaVuSans-6f"/>
     <use x="150.314453" xlink:href="#DejaVuSans-6e"/>
     <use x="213.693359" xlink:href="#DejaVuSans-74"/>
     <use x="252.902344" xlink:href="#DejaVuSans-20"/>
     <use x="284.689453" xlink:href="#DejaVuSans-50"/>
     <use x="343.242188" xlink:href="#DejaVuSans-72"/>
     <use x="382.105469" xlink:href="#DejaVuSans-6f"/>
     <use x="443.287109" xlink:href="#DejaVuSans-70"/>
     <use x="506.763672" xlink:href="#DejaVuSans-6f"/>
     <use x="567.945312" xlink:href="#DejaVuSans-67"/>
     <use x="631.421875" xlink:href="#DejaVuSans-61"/>
     <use x="692.701172" xlink:href="#DejaVuSans-74"/>
     <use x="731.910156" xlink:href="#DejaVuSans-69"/>
     <use x="759.693359" xlink:href="#DejaVuSans-6f"/>
     <use x="820.875" xlink:href="#DejaVuSans-6e"/>
     <use x="884.253906" xlink:href="#DejaVuSans-20"/>
     <use x="916.041016" xlink:href="#DejaVuSans-53"/>
     <use x="979.517578" xlink:href="#DejaVuSans-70"/>
     <use x="1042.994141" xlink:href="#DejaVuSans-65"/>
     <use x="1104.517578" xlink:href="#DejaVuSans-65"/>
     <use x="1166.041016" xlink:href="#DejaVuSans-64"/>
    </g>
   </g>
   <g id="legend_1">
    <g id="patch_7">
     <path d="M 325.967812 111.175687 
L 508.6 111.175687 
Q 511.4 111.175687 511.4 108.375687 
L 511.4 53 
Q 511.4 50.2 508.6 50.2 
L 325.967812 50.2 
Q 323.167812 50.2 323.167812 53 
L 323.167812 108.375687 
Q 323.167812 111.175687 325.967812 111.175687 
z
" style="fill:#ffffff;opacity:0.8;stroke:#cccccc;stroke-linejoin:miter;"/>
    </g>
    <g id="line2d_19">
     <path d="M 328.767812 61.537812 
L 356.767812 61.537812 
" style="fill:none;stroke:#ff0000;stroke-linecap:square;stroke-width:2;"/>
    </g>
    <g id="line2d_20"/>
    <g id="text_20">
     <!-- Front speed -->
     <g transform="translate(367.967812 66.437812)scale(0.14 -0.14)">
      <use xlink:href="#DejaVuSans-46"/>
      <use x="50.269531" xlink:href="#DejaVuSans-72"/>
      <use x="89.132812" xlink:href="#DejaVuSans-6f"/>
      <use x="150.314453" xlink:href="#DejaVuSans-6e"/>
      <use x="213.693359" xlink:href="#DejaVuSans-74"/>
      <use x="252.902344" xlink:href="#DejaVuSans-20"/>
      <use x="284.689453" xlink:href="#DejaVuSans-73"/>
      <use x="336.789062" xlink:href="#DejaVuSans-70"/>
      <use x="400.265625" xlink:href="#DejaVuSans-65"/>
      <use x="461.789062" xlink:href="#DejaVuSans-65"/>
      <use x="523.3125" xlink:href="#DejaVuSans-64"/>
     </g>
    </g>
    <g id="line2d_21">
     <path d="M 328.767812 91.381437 
L 356.767812 91.381437 
" style="fill:none;stroke:#000000;stroke-dasharray:5.55,2.4;stroke-dashoffset:0;stroke-width:1.5;"/>
    </g>
    <g id="line2d_22"/>
    <g id="text_21">
     <!-- Steady state -->
     <g transform="translate(367.967812 86.987187)scale(0.14 -0.14)">
      <defs>
       <path d="M 2059 -325 
Q 1816 -950 1584 -1140 
Q 1353 -1331 966 -1331 
L 506 -1331 
L 506 -850 
L 844 -850 
Q 1081 -850 1212 -737 
Q 1344 -625 1503 -206 
L 1606 56 
L 191 3500 
L 800 3500 
L 1894 763 
L 2988 3500 
L 3597 3500 
L 2059 -325 
z
" id="DejaVuSans-79" transform="scale(0.015625)"/>
      </defs>
      <use xlink:href="#DejaVuSans-53"/>
      <use x="63.476562" xlink:href="#DejaVuSans-74"/>
      <use x="102.685547" xlink:href="#DejaVuSans-65"/>
      <use x="164.208984" xlink:href="#DejaVuSans-61"/>
      <use x="225.488281" xlink:href="#DejaVuSans-64"/>
      <use x="288.964844" xlink:href="#DejaVuSans-79"/>
      <use x="348.144531" xlink:href="#DejaVuSans-20"/>
      <use x="379.931641" xlink:href="#DejaVuSans-73"/>
      <use x="432.03125" xlink:href="#DejaVuSans-74"/>
      <use x="471.240234" xlink:href="#DejaVuSans-61"/>
      <use x="532.519531" xlink:href="#DejaVuSans-74"/>
      <use x="571.728516" xlink:href="#DejaVuSans-65"/>
     </g>
     <!-- speed = 0.63 mm/s -->
     <g transform="translate(367.967812 102.664125)scale(0.14 -0.14)">
      <defs>
       <path d="M 678 2906 
L 4684 2906 
L 4684 2381 
L 678 2381 
L 678 2906 
z
M 678 1631 
L 4684 1631 
L 4684 1100 
L 678 1100 
L 678 1631 
z
" id="DejaVuSans-3d" transform="scale(0.015625)"/>
       <path d="M 2113 2584 
Q 1688 2584 1439 2293 
Q 1191 2003 1191 1497 
Q 1191 994 1439 701 
Q 1688 409 2113 409 
Q 2538 409 2786 701 
Q 3034 994 3034 1497 
Q 3034 2003 2786 2293 
Q 2538 2584 2113 2584 
z
M 3366 4563 
L 3366 3988 
Q 3128 4100 2886 4159 
Q 2644 4219 2406 4219 
Q 1781 4219 1451 3797 
Q 1122 3375 1075 2522 
Q 1259 2794 1537 2939 
Q 1816 3084 2150 3084 
Q 2853 3084 3261 2657 
Q 3669 2231 3669 1497 
Q 3669 778 3244 343 
Q 2819 -91 2113 -91 
Q 1303 -91 875 529 
Q 447 1150 447 2328 
Q 447 3434 972 4092 
Q 1497 4750 2381 4750 
Q 2619 4750 2861 4703 
Q 3103 4656 3366 4563 
z
" id="DejaVuSans-36" transform="scale(0.015625)"/>
       <path d="M 2597 2516 
Q 3050 2419 3304 2112 
Q 3559 1806 3559 1356 
Q 3559 666 3084 287 
Q 2609 -91 1734 -91 
Q 1441 -91 1130 -33 
Q 819 25 488 141 
L 488 750 
Q 750 597 1062 519 
Q 1375 441 1716 441 
Q 2309 441 2620 675 
Q 2931 909 2931 1356 
Q 2931 1769 2642 2001 
Q 2353 2234 1838 2234 
L 1294 2234 
L 1294 2753 
L 1863 2753 
Q 2328 2753 2575 2939 
Q 2822 3125 2822 3475 
Q 2822 3834 2567 4026 
Q 2313 4219 1838 4219 
Q 1578 4219 1281 4162 
Q 984 4106 628 3988 
L 628 4550 
Q 988 4650 1302 4700 
Q 1616 4750 1894 4750 
Q 2613 4750 3031 4423 
Q 3450 4097 3450 3541 
Q 3450 3153 3228 2886 
Q 3006 2619 2597 2516 
z
" id="DejaVuSans-33" transform="scale(0.015625)"/>
      </defs>
      <use xlink:href="#DejaVuSans-73"/>
      <use x="52.099609" xlink:href="#DejaVuSans-70"/>
      <use x="115.576172" xlink:href="#DejaVuSans-65"/>
      <use x="177.099609" xlink:href="#DejaVuSans-65"/>
      <use x="238.623047" xlink:href="#DejaVuSans-64"/>
      <use x="302.099609" xlink:href="#DejaVuSans-20"/>
      <use x="333.886719" xlink:href="#DejaVuSans-3d"/>
      <use x="417.675781" xlink:href="#DejaVuSans-20"/>
      <use x="449.462891" xlink:href="#DejaVuSans-30"/>
      <use x="513.085938" xlink:href="#DejaVuSans-2e"/>
      <use x="544.873047" xlink:href="#DejaVuSans-36"/>
      <use x="608.496094" xlink:href="#DejaVuSans-33"/>
      <use x="672.119141" xlink:href="#DejaVuSans-20"/>
      <use x="703.90625" xlink:href="#DejaVuSans-6d"/>
      <use x="801.318359" xlink:href="#DejaVuSans-6d"/>
      <use x="898.730469" xlink:href="#DejaVuSans-2f"/>
      <use x="932.421875" xlink:href="#DejaVuSans-73"/>
     </g>
    </g>
   </g>
  </g>
 </g>
 <defs>
  <clipPath id="p37e1b2d465">
   <rect height="277.2" width="446.4" x="72" y="43.2"/>
  </clipPath>
 </defs>
</svg>
