<?xml version="1.0" encoding="utf-8" standalone="no"?>
<!DOCTYPE svg PUBLIC "-//W3C//DTD SVG 1.1//EN"
  "http://www.w3.org/Graphics/SVG/1.1/DTD/svg11.dtd">
<svg height="360pt" version="1.1" viewBox="0 0 576 360" width="576pt" xmlns="http://www.w3.org/2000/svg" xmlns:xlink="http://www.w3.org/1999/xlink">
 <metadata>
  <rdf:RDF xmlns:cc="http://creativecommons.org/ns#" xmlns:dc="http://purl.org/dc/elements/1.1/" xmlns:rdf="http://www.w3.org/1999/02/22-rdf-syntax-ns#">
   <cc:Work>
    <dc:type rdf:resource="http://purl.org/dc/dcmitype/StillImage"/>
    <dc:date>2022-06-30T14:32:23.566851</dc:date>
    <dc:format>image/svg+xml</dc:format>
    <dc:creator>
     <cc:Agent>
      <dc:title>Matplotlib v3.4.3, https://matplotlib.org/</dc:title>
     </cc:Agent>
    </dc:creator>
   </cc:Work>
  </rdf:RDF>
 </metadata>
 <defs>
  <style type="text/css">*{stroke-linecap:butt;stroke-linejoin:round;}</style>
 </defs>
 <g id="figure_1">
  <g id="patch_1">
   <path d="M 0 360 
L 576 360 
L 576 0 
L 0 0 
z
" style="fill:#ffffff;"/>
  </g>
  <g id="axes_1">
   <g id="patch_2">
    <path d="M 72 320.4 
L 518.4 320.4 
L 518.4 43.2 
L 72 43.2 
z
" style="fill:#ffffff;"/>
   </g>
   <g id="PolyCollection_1">
    <defs>
     <path d="M 72 -152.434319 
L 72 -157.121774 
L 72.804324 -157.121774 
L 73.608649 -157.121774 
L 74.412973 -157.121774 
L 75.217297 -157.121774 
L 76.021622 -157.121774 
L 76.825946 -157.121774 
L 77.63027 -157.121774 
L 78.434595 -157.121774 
L 79.238919 -157.121774 
L 80.043243 -157.121774 
L 80.847568 -157.121774 
L 81.651892 -157.121774 
L 82.456216 -157.121774 
L 83.260541 -157.121774 
L 84.064865 -157.121774 
L 84.869189 -157.121774 
L 85.673514 -157.121774 
L 86.477838 -157.121774 
L 87.282162 -157.121774 
L 88.086486 -157.121774 
L 88.890811 -157.121774 
L 89.695135 -157.121774 
L 90.499459 -157.121774 
L 91.303784 -157.121774 
L 92.108108 -157.121774 
L 92.912432 -157.121774 
L 93.716757 -157.121774 
L 94.521081 -157.121774 
L 95.325405 -157.121774 
L 96.12973 -157.121774 
L 96.934054 -157.121774 
L 97.738378 -157.121774 
L 98.542703 -157.121774 
L 99.347027 -157.121774 
L 100.151351 -157.121774 
L 100.955676 -157.121774 
L 101.76 -157.121774 
L 102.564324 -157.121774 
L 103.368649 -157.121774 
L 104.172973 -157.121774 
L 104.977297 -157.121774 
L 105.781622 -157.121774 
L 106.585946 -157.121774 
L 107.39027 -157.121774 
L 108.194595 -157.121774 
L 108.998919 -157.121774 
L 109.803243 -157.121774 
L 110.607568 -157.121774 
L 111.411892 -157.121774 
L 112.216216 -157.121774 
L 113.020541 -157.121774 
L 113.824865 -157.121774 
L 114.629189 -157.121774 
L 115.433514 -157.121774 
L 116.237838 -157.121774 
L 117.042162 -157.121774 
L 117.846486 -157.121774 
L 118.650811 -157.121774 
L 119.455135 -157.121774 
L 120.259459 -157.121774 
L 121.063784 -157.121774 
L 121.868108 -157.121774 
L 122.672432 -157.121774 
L 123.476757 -157.121774 
L 124.281081 -157.121774 
L 125.085405 -157.121774 
L 125.88973 -157.121774 
L 126.694054 -157.121774 
L 127.498378 -157.121774 
L 128.302703 -157.121774 
L 129.107027 -157.121774 
L 129.911351 -157.121774 
L 130.715676 -157.121774 
L 131.52 -157.121774 
L 132.324324 -157.121774 
L 133.128649 -157.121774 
L 133.932973 -157.121774 
L 134.737297 -157.121774 
L 135.541622 -157.121774 
L 136.345946 -157.121774 
L 137.15027 -157.121774 
L 137.954595 -157.121774 
L 138.758919 -157.121774 
L 139.563243 -157.121774 
L 140.367568 -157.121774 
L 141.171892 -157.121774 
L 141.976216 -157.121774 
L 142.780541 -157.121774 
L 143.584865 -157.121774 
L 144.389189 -157.121774 
L 145.193514 -157.121774 
L 145.997838 -157.121774 
L 146.802162 -157.121774 
L 147.606486 -157.121774 
L 148.410811 -157.121774 
L 149.215135 -157.121774 
L 150.019459 -157.121774 
L 150.823784 -157.121774 
L 151.628108 -157.121774 
L 152.432432 -157.121774 
L 153.236757 -157.121774 
L 154.041081 -157.121774 
L 154.845405 -157.121774 
L 155.64973 -157.121774 
L 156.454054 -157.121774 
L 157.258378 -157.121774 
L 158.062703 -157.121774 
L 158.867027 -157.121774 
L 159.671351 -157.121774 
L 160.475676 -157.121774 
L 161.28 -157.121774 
L 162.084324 -157.121774 
L 162.888649 -157.121774 
L 163.692973 -157.121774 
L 164.497297 -157.121774 
L 165.301622 -157.121774 
L 166.105946 -157.121774 
L 166.91027 -157.121774 
L 167.714595 -157.121774 
L 168.518919 -157.121774 
L 169.323243 -157.121774 
L 170.127568 -157.121774 
L 170.931892 -157.121774 
L 171.736216 -157.121774 
L 172.540541 -157.121774 
L 173.344865 -157.121774 
L 174.149189 -157.121774 
L 174.953514 -157.121774 
L 175.757838 -157.121774 
L 176.562162 -157.121774 
L 177.366486 -157.121774 
L 178.170811 -157.121774 
L 178.975135 -157.121774 
L 179.779459 -157.121774 
L 180.583784 -157.121774 
L 181.388108 -157.121774 
L 182.192432 -157.121774 
L 182.996757 -157.121774 
L 183.801081 -157.121774 
L 184.605405 -157.121774 
L 185.40973 -157.121774 
L 186.214054 -157.121774 
L 187.018378 -157.121774 
L 187.822703 -157.121774 
L 188.627027 -157.121774 
L 189.431351 -157.121774 
L 190.235676 -157.121774 
L 191.04 -157.121774 
L 191.844324 -157.121774 
L 192.648649 -157.121774 
L 193.452973 -157.121774 
L 194.257297 -157.121774 
L 195.061622 -157.121774 
L 195.865946 -157.121774 
L 196.67027 -157.121774 
L 197.474595 -157.121774 
L 198.278919 -157.121774 
L 199.083243 -157.121774 
L 199.887568 -157.121774 
L 200.691892 -157.121774 
L 201.496216 -157.121774 
L 202.300541 -157.121774 
L 203.104865 -157.121774 
L 203.909189 -157.121774 
L 204.713514 -157.121774 
L 205.517838 -157.121774 
L 206.322162 -157.121774 
L 207.126486 -157.121774 
L 207.930811 -157.121774 
L 208.735135 -157.121774 
L 209.539459 -157.121774 
L 210.343784 -157.121774 
L 211.148108 -157.121774 
L 211.952432 -157.121774 
L 212.756757 -157.121774 
L 213.561081 -157.121774 
L 214.365405 -157.121774 
L 215.16973 -157.121774 
L 215.974054 -157.121774 
L 216.778378 -157.121774 
L 217.582703 -157.121774 
L 218.387027 -157.121774 
L 219.191351 -157.121774 
L 219.995676 -157.121774 
L 220.8 -157.121774 
L 221.604324 -157.121774 
L 222.408649 -157.121774 
L 223.212973 -157.121774 
L 224.017297 -157.121774 
L 224.821622 -157.121774 
L 225.625946 -157.121774 
L 226.43027 -157.121774 
L 227.234595 -157.121774 
L 228.038919 -157.121774 
L 228.843243 -157.121774 
L 229.647568 -157.121774 
L 230.451892 -157.121774 
L 231.256216 -157.121774 
L 232.060541 -157.121774 
L 232.864865 -157.121774 
L 233.669189 -157.121774 
L 234.473514 -157.121774 
L 235.277838 -157.121774 
L 236.082162 -157.121774 
L 236.886486 -157.121774 
L 237.690811 -157.121774 
L 238.495135 -157.121774 
L 239.299459 -157.121774 
L 240.103784 -157.121774 
L 240.908108 -157.121774 
L 241.712432 -157.121774 
L 242.516757 -157.121774 
L 243.321081 -157.121774 
L 244.125405 -157.121774 
L 244.92973 -157.121774 
L 245.734054 -157.121774 
L 246.538378 -157.121774 
L 247.342703 -157.121774 
L 248.147027 -157.121774 
L 248.951351 -157.121774 
L 249.755676 -157.121774 
L 250.56 -157.121774 
L 251.364324 -157.121774 
L 252.168649 -157.121774 
L 252.972973 -157.121774 
L 253.777297 -157.121774 
L 254.581622 -157.121774 
L 255.385946 -157.121774 
L 256.19027 -157.121774 
L 256.994595 -157.121774 
L 257.798919 -157.121774 
L 258.603243 -157.121774 
L 259.407568 -157.121774 
L 260.211892 -157.121774 
L 261.016216 -157.121774 
L 261.820541 -157.121774 
L 262.624865 -157.121774 
L 263.429189 -157.121774 
L 264.233514 -157.121774 
L 265.037838 -157.121774 
L 265.842162 -157.121774 
L 266.646486 -157.121774 
L 267.450811 -157.121774 
L 268.255135 -157.121774 
L 269.059459 -157.121774 
L 269.863784 -157.121774 
L 270.668108 -157.121774 
L 271.472432 -157.121774 
L 272.276757 -157.121774 
L 273.081081 -157.121774 
L 273.885405 -157.121774 
L 274.68973 -157.121774 
L 275.494054 -157.121774 
L 276.298378 -157.121774 
L 277.102703 -157.121774 
L 277.907027 -157.121774 
L 278.711351 -157.121774 
L 279.515676 -157.121774 
L 280.32 -157.121774 
L 281.124324 -157.121774 
L 281.928649 -157.121774 
L 282.732973 -157.121774 
L 283.537297 -157.121774 
L 284.341622 -157.121774 
L 285.145946 -157.121774 
L 285.95027 -157.121774 
L 286.754595 -157.121774 
L 287.558919 -157.121774 
L 288.363243 -157.121774 
L 289.167568 -157.121774 
L 289.971892 -157.121774 
L 290.776216 -157.121774 
L 291.580541 -157.121774 
L 292.384865 -157.121774 
L 293.189189 -157.121774 
L 293.993514 -157.121774 
L 294.797838 -157.121774 
L 295.602162 -157.121774 
L 296.406486 -157.121774 
L 297.210811 -157.121774 
L 298.015135 -157.121774 
L 298.819459 -157.121774 
L 299.623784 -157.121774 
L 300.428108 -157.121774 
L 301.232432 -157.121774 
L 302.036757 -157.121774 
L 302.841081 -157.121774 
L 303.645405 -157.121774 
L 304.44973 -157.121774 
L 305.254054 -157.121774 
L 306.058378 -157.121774 
L 306.862703 -157.121774 
L 307.667027 -157.121774 
L 308.471351 -157.121774 
L 309.275676 -157.121774 
L 310.08 -157.121774 
L 310.884324 -157.121774 
L 311.688649 -157.121774 
L 312.492973 -157.121774 
L 313.297297 -157.121774 
L 314.101622 -157.121774 
L 314.905946 -157.121774 
L 315.71027 -157.121774 
L 316.514595 -157.121774 
L 317.318919 -157.121774 
L 318.123243 -157.121774 
L 318.927568 -157.121774 
L 319.731892 -157.121774 
L 320.536216 -157.121774 
L 321.340541 -157.121774 
L 322.144865 -157.121774 
L 322.949189 -157.121774 
L 323.753514 -157.121774 
L 324.557838 -157.121774 
L 325.362162 -157.121774 
L 326.166486 -157.121774 
L 326.970811 -157.121774 
L 327.775135 -157.121774 
L 328.579459 -157.121774 
L 329.383784 -157.121774 
L 330.188108 -157.121774 
L 330.992432 -157.121774 
L 331.796757 -157.121774 
L 332.601081 -157.121774 
L 333.405405 -157.121774 
L 334.20973 -157.121774 
L 335.014054 -157.121774 
L 335.818378 -157.121774 
L 336.622703 -157.121774 
L 337.427027 -157.121774 
L 338.231351 -157.121774 
L 339.035676 -157.121774 
L 339.84 -157.121774 
L 340.644324 -157.121774 
L 341.448649 -157.121774 
L 342.252973 -157.121774 
L 343.057297 -157.121774 
L 343.861622 -157.121774 
L 344.665946 -157.121774 
L 345.47027 -157.121774 
L 346.274595 -157.121774 
L 347.078919 -157.121774 
L 347.883243 -157.121774 
L 348.687568 -157.121774 
L 349.491892 -157.121774 
L 350.296216 -157.121774 
L 351.100541 -157.121774 
L 351.904865 -157.121774 
L 352.709189 -157.121774 
L 353.513514 -157.121774 
L 354.317838 -157.121774 
L 355.122162 -157.121774 
L 355.926486 -157.121774 
L 356.730811 -157.121774 
L 357.535135 -157.121774 
L 358.339459 -157.121774 
L 359.143784 -157.121774 
L 359.948108 -157.121774 
L 360.752432 -157.121774 
L 361.556757 -157.121774 
L 362.361081 -157.121774 
L 363.165405 -157.121774 
L 363.96973 -157.121774 
L 364.774054 -157.121774 
L 365.578378 -157.121774 
L 366.382703 -157.121774 
L 367.187027 -157.121774 
L 367.991351 -157.121774 
L 368.795676 -157.121774 
L 369.6 -157.121774 
L 370.404324 -157.121774 
L 371.208649 -157.121774 
L 372.012973 -157.121774 
L 372.817297 -157.121774 
L 373.621622 -157.121774 
L 374.425946 -157.121774 
L 375.23027 -157.121774 
L 376.034595 -157.121774 
L 376.838919 -157.121774 
L 377.643243 -157.121774 
L 378.447568 -157.121774 
L 379.251892 -157.121774 
L 380.056216 -157.121774 
L 380.860541 -157.121774 
L 381.664865 -157.121774 
L 382.469189 -157.121774 
L 383.273514 -157.121774 
L 384.077838 -157.121774 
L 384.882162 -157.121774 
L 385.686486 -157.121774 
L 386.490811 -157.121774 
L 387.295135 -157.121774 
L 388.099459 -157.121774 
L 388.903784 -157.121774 
L 389.708108 -157.121774 
L 390.512432 -157.121774 
L 391.316757 -157.121774 
L 392.121081 -157.121774 
L 392.925405 -157.121774 
L 393.72973 -157.121774 
L 394.534054 -157.121774 
L 395.338378 -157.121774 
L 396.142703 -157.121774 
L 396.947027 -157.121774 
L 397.751351 -157.121774 
L 398.555676 -157.121774 
L 399.36 -157.121774 
L 400.164324 -157.121774 
L 400.968649 -157.121774 
L 401.772973 -157.121774 
L 402.577297 -157.121774 
L 403.381622 -157.121774 
L 404.185946 -157.121774 
L 404.99027 -157.121774 
L 405.794595 -157.121774 
L 406.598919 -157.121774 
L 407.403243 -157.121774 
L 408.207568 -157.121774 
L 409.011892 -157.121774 
L 409.816216 -157.121774 
L 410.620541 -157.121774 
L 411.424865 -157.121774 
L 412.229189 -157.121774 
L 413.033514 -157.121774 
L 413.837838 -157.121774 
L 414.642162 -157.121774 
L 415.446486 -157.121774 
L 416.250811 -157.121774 
L 417.055135 -157.121774 
L 417.859459 -157.121774 
L 418.663784 -157.121774 
L 419.468108 -157.121774 
L 420.272432 -157.121774 
L 421.076757 -157.121774 
L 421.881081 -157.121774 
L 422.685405 -157.121774 
L 423.48973 -157.121774 
L 424.294054 -157.121774 
L 425.098378 -157.121774 
L 425.902703 -157.121774 
L 426.707027 -157.121774 
L 427.511351 -157.121774 
L 428.315676 -157.121774 
L 429.12 -157.121774 
L 429.924324 -157.121774 
L 430.728649 -157.121774 
L 431.532973 -157.121774 
L 432.337297 -157.121774 
L 433.141622 -157.121774 
L 433.945946 -157.121774 
L 434.75027 -157.121774 
L 435.554595 -157.121774 
L 436.358919 -157.121774 
L 437.163243 -157.121774 
L 437.967568 -157.121774 
L 438.771892 -157.121774 
L 439.576216 -157.121774 
L 440.380541 -157.121774 
L 441.184865 -157.121774 
L 441.989189 -157.121774 
L 442.793514 -157.121774 
L 443.597838 -157.121774 
L 444.402162 -157.121774 
L 445.206486 -157.121774 
L 446.010811 -157.121774 
L 446.815135 -157.121774 
L 447.619459 -157.121774 
L 448.423784 -157.121774 
L 449.228108 -157.121774 
L 450.032432 -157.121774 
L 450.836757 -157.121774 
L 451.641081 -157.121774 
L 452.445405 -157.121774 
L 453.24973 -157.121774 
L 454.054054 -157.121774 
L 454.858378 -157.121774 
L 455.662703 -157.121774 
L 456.467027 -157.121774 
L 457.271351 -157.121774 
L 458.075676 -157.121774 
L 458.88 -157.121774 
L 459.684324 -157.121774 
L 460.488649 -157.121774 
L 461.292973 -157.121774 
L 462.097297 -157.121774 
L 462.901622 -157.121774 
L 463.705946 -157.121774 
L 464.51027 -157.121774 
L 465.314595 -157.121774 
L 466.118919 -157.121774 
L 466.923243 -157.121774 
L 467.727568 -157.121774 
L 468.531892 -157.121774 
L 469.336216 -157.121774 
L 470.140541 -157.121774 
L 470.944865 -157.121774 
L 471.749189 -157.121774 
L 472.553514 -157.121774 
L 473.357838 -157.121774 
L 474.162162 -157.121774 
L 474.966486 -157.121774 
L 475.770811 -157.121774 
L 476.575135 -157.121774 
L 477.379459 -157.121774 
L 478.183784 -157.121774 
L 478.988108 -157.121774 
L 479.792432 -157.121774 
L 480.596757 -157.121774 
L 481.401081 -157.121774 
L 482.205405 -157.121774 
L 483.00973 -157.121774 
L 483.814054 -157.121774 
L 484.618378 -157.121774 
L 485.422703 -157.121774 
L 486.227027 -157.121774 
L 487.031351 -157.121774 
L 487.835676 -157.121774 
L 488.64 -157.121774 
L 489.444324 -157.121774 
L 490.248649 -157.121774 
L 491.052973 -157.121774 
L 491.857297 -157.121774 
L 492.661622 -157.121774 
L 493.465946 -157.121774 
L 494.27027 -157.121774 
L 495.074595 -157.121774 
L 495.878919 -157.121774 
L 496.683243 -157.121774 
L 497.487568 -157.121774 
L 498.291892 -157.121774 
L 499.096216 -157.121774 
L 499.900541 -157.121774 
L 500.704865 -157.121774 
L 501.509189 -157.121774 
L 502.313514 -157.121774 
L 503.117838 -157.121774 
L 503.922162 -157.121774 
L 504.726486 -157.121774 
L 505.530811 -157.121774 
L 506.335135 -157.121774 
L 507.139459 -157.121774 
L 507.943784 -157.121774 
L 508.748108 -157.121774 
L 509.552432 -157.121774 
L 510.356757 -157.121774 
L 511.161081 -157.121774 
L 511.965405 -157.121774 
L 512.76973 -157.121774 
L 513.574054 -157.121774 
L 514.378378 -157.121774 
L 515.182703 -157.121774 
L 515.987027 -157.121774 
L 516.791351 -157.121774 
L 517.595676 -157.121774 
L 518.4 -157.121774 
L 518.4 -152.434319 
L 518.4 -152.434319 
L 517.595676 -152.434319 
L 516.791351 -152.434319 
L 515.987027 -152.434319 
L 515.182703 -152.434319 
L 514.378378 -152.434319 
L 513.574054 -152.434319 
L 512.76973 -152.434319 
L 511.965405 -152.434319 
L 511.161081 -152.434319 
L 510.356757 -152.434319 
L 509.552432 -152.434319 
L 508.748108 -152.434319 
L 507.943784 -152.434319 
L 507.139459 -152.434319 
L 506.335135 -152.434319 
L 505.530811 -152.434319 
L 504.726486 -152.434319 
L 503.922162 -152.434319 
L 503.117838 -152.434319 
L 502.313514 -152.434319 
L 501.509189 -152.434319 
L 500.704865 -152.434319 
L 499.900541 -152.434319 
L 499.096216 -152.434319 
L 498.291892 -152.434319 
L 497.487568 -152.434319 
L 496.683243 -152.434319 
L 495.878919 -152.434319 
L 495.074595 -152.434319 
L 494.27027 -152.434319 
L 493.465946 -152.434319 
L 492.661622 -152.434319 
L 491.857297 -152.434319 
L 491.052973 -152.434319 
L 490.248649 -152.434319 
L 489.444324 -152.434319 
L 488.64 -152.434319 
L 487.835676 -152.434319 
L 487.031351 -152.434319 
L 486.227027 -152.434319 
L 485.422703 -152.434319 
L 484.618378 -152.434319 
L 483.814054 -152.434319 
L 483.00973 -152.434319 
L 482.205405 -152.434319 
L 481.401081 -152.434319 
L 480.596757 -152.434319 
L 479.792432 -152.434319 
L 478.988108 -152.434319 
L 478.183784 -152.434319 
L 477.379459 -152.434319 
L 476.575135 -152.434319 
L 475.770811 -152.434319 
L 474.966486 -152.434319 
L 474.162162 -152.434319 
L 473.357838 -152.434319 
L 472.553514 -152.434319 
L 471.749189 -152.434319 
L 470.944865 -152.434319 
L 470.140541 -152.434319 
L 469.336216 -152.434319 
L 468.531892 -152.434319 
L 467.727568 -152.434319 
L 466.923243 -152.434319 
L 466.118919 -152.434319 
L 465.314595 -152.434319 
L 464.51027 -152.434319 
L 463.705946 -152.434319 
L 462.901622 -152.434319 
L 462.097297 -152.434319 
L 461.292973 -152.434319 
L 460.488649 -152.434319 
L 459.684324 -152.434319 
L 458.88 -152.434319 
L 458.075676 -152.434319 
L 457.271351 -152.434319 
L 456.467027 -152.434319 
L 455.662703 -152.434319 
L 454.858378 -152.434319 
L 454.054054 -152.434319 
L 453.24973 -152.434319 
L 452.445405 -152.434319 
L 451.641081 -152.434319 
L 450.836757 -152.434319 
L 450.032432 -152.434319 
L 449.228108 -152.434319 
L 448.423784 -152.434319 
L 447.619459 -152.434319 
L 446.815135 -152.434319 
L 446.010811 -152.434319 
L 445.206486 -152.434319 
L 444.402162 -152.434319 
L 443.597838 -152.434319 
L 442.793514 -152.434319 
L 441.989189 -152.434319 
L 441.184865 -152.434319 
L 440.380541 -152.434319 
L 439.576216 -152.434319 
L 438.771892 -152.434319 
L 437.967568 -152.434319 
L 437.163243 -152.434319 
L 436.358919 -152.434319 
L 435.554595 -152.434319 
L 434.75027 -152.434319 
L 433.945946 -152.434319 
L 433.141622 -152.434319 
L 432.337297 -152.434319 
L 431.532973 -152.434319 
L 430.728649 -152.434319 
L 429.924324 -152.434319 
L 429.12 -152.434319 
L 428.315676 -152.434319 
L 427.511351 -152.434319 
L 426.707027 -152.434319 
L 425.902703 -152.434319 
L 425.098378 -152.434319 
L 424.294054 -152.434319 
L 423.48973 -152.434319 
L 422.685405 -152.434319 
L 421.881081 -152.434319 
L 421.076757 -152.434319 
L 420.272432 -152.434319 
L 419.468108 -152.434319 
L 418.663784 -152.434319 
L 417.859459 -152.434319 
L 417.055135 -152.434319 
L 416.250811 -152.434319 
L 415.446486 -152.434319 
L 414.642162 -152.434319 
L 413.837838 -152.434319 
L 413.033514 -152.434319 
L 412.229189 -152.434319 
L 411.424865 -152.434319 
L 410.620541 -152.434319 
L 409.816216 -152.434319 
L 409.011892 -152.434319 
L 408.207568 -152.434319 
L 407.403243 -152.434319 
L 406.598919 -152.434319 
L 405.794595 -152.434319 
L 404.99027 -152.434319 
L 404.185946 -152.434319 
L 403.381622 -152.434319 
L 402.577297 -152.434319 
L 401.772973 -152.434319 
L 400.968649 -152.434319 
L 400.164324 -152.434319 
L 399.36 -152.434319 
L 398.555676 -152.434319 
L 397.751351 -152.434319 
L 396.947027 -152.434319 
L 396.142703 -152.434319 
L 395.338378 -152.434319 
L 394.534054 -152.434319 
L 393.72973 -152.434319 
L 392.925405 -152.434319 
L 392.121081 -152.434319 
L 391.316757 -152.434319 
L 390.512432 -152.434319 
L 389.708108 -152.434319 
L 388.903784 -152.434319 
L 388.099459 -152.434319 
L 387.295135 -152.434319 
L 386.490811 -152.434319 
L 385.686486 -152.434319 
L 384.882162 -152.434319 
L 384.077838 -152.434319 
L 383.273514 -152.434319 
L 382.469189 -152.434319 
L 381.664865 -152.434319 
L 380.860541 -152.434319 
L 380.056216 -152.434319 
L 379.251892 -152.434319 
L 378.447568 -152.434319 
L 377.643243 -152.434319 
L 376.838919 -152.434319 
L 376.034595 -152.434319 
L 375.23027 -152.434319 
L 374.425946 -152.434319 
L 373.621622 -152.434319 
L 372.817297 -152.434319 
L 372.012973 -152.434319 
L 371.208649 -152.434319 
L 370.404324 -152.434319 
L 369.6 -152.434319 
L 368.795676 -152.434319 
L 367.991351 -152.434319 
L 367.187027 -152.434319 
L 366.382703 -152.434319 
L 365.578378 -152.434319 
L 364.774054 -152.434319 
L 363.96973 -152.434319 
L 363.165405 -152.434319 
L 362.361081 -152.434319 
L 361.556757 -152.434319 
L 360.752432 -152.434319 
L 359.948108 -152.434319 
L 359.143784 -152.434319 
L 358.339459 -152.434319 
L 357.535135 -152.434319 
L 356.730811 -152.434319 
L 355.926486 -152.434319 
L 355.122162 -152.434319 
L 354.317838 -152.434319 
L 353.513514 -152.434319 
L 352.709189 -152.434319 
L 351.904865 -152.434319 
L 351.100541 -152.434319 
L 350.296216 -152.434319 
L 349.491892 -152.434319 
L 348.687568 -152.434319 
L 347.883243 -152.434319 
L 347.078919 -152.434319 
L 346.274595 -152.434319 
L 345.47027 -152.434319 
L 344.665946 -152.434319 
L 343.861622 -152.434319 
L 343.057297 -152.434319 
L 342.252973 -152.434319 
L 341.448649 -152.434319 
L 340.644324 -152.434319 
L 339.84 -152.434319 
L 339.035676 -152.434319 
L 338.231351 -152.434319 
L 337.427027 -152.434319 
L 336.622703 -152.434319 
L 335.818378 -152.434319 
L 335.014054 -152.434319 
L 334.20973 -152.434319 
L 333.405405 -152.434319 
L 332.601081 -152.434319 
L 331.796757 -152.434319 
L 330.992432 -152.434319 
L 330.188108 -152.434319 
L 329.383784 -152.434319 
L 328.579459 -152.434319 
L 327.775135 -152.434319 
L 326.970811 -152.434319 
L 326.166486 -152.434319 
L 325.362162 -152.434319 
L 324.557838 -152.434319 
L 323.753514 -152.434319 
L 322.949189 -152.434319 
L 322.144865 -152.434319 
L 321.340541 -152.434319 
L 320.536216 -152.434319 
L 319.731892 -152.434319 
L 318.927568 -152.434319 
L 318.123243 -152.434319 
L 317.318919 -152.434319 
L 316.514595 -152.434319 
L 315.71027 -152.434319 
L 314.905946 -152.434319 
L 314.101622 -152.434319 
L 313.297297 -152.434319 
L 312.492973 -152.434319 
L 311.688649 -152.434319 
L 310.884324 -152.434319 
L 310.08 -152.434319 
L 309.275676 -152.434319 
L 308.471351 -152.434319 
L 307.667027 -152.434319 
L 306.862703 -152.434319 
L 306.058378 -152.434319 
L 305.254054 -152.434319 
L 304.44973 -152.434319 
L 303.645405 -152.434319 
L 302.841081 -152.434319 
L 302.036757 -152.434319 
L 301.232432 -152.434319 
L 300.428108 -152.434319 
L 299.623784 -152.434319 
L 298.819459 -152.434319 
L 298.015135 -152.434319 
L 297.210811 -152.434319 
L 296.406486 -152.434319 
L 295.602162 -152.434319 
L 294.797838 -152.434319 
L 293.993514 -152.434319 
L 293.189189 -152.434319 
L 292.384865 -152.434319 
L 291.580541 -152.434319 
L 290.776216 -152.434319 
L 289.971892 -152.434319 
L 289.167568 -152.434319 
L 288.363243 -152.434319 
L 287.558919 -152.434319 
L 286.754595 -152.434319 
L 285.95027 -152.434319 
L 285.145946 -152.434319 
L 284.341622 -152.434319 
L 283.537297 -152.434319 
L 282.732973 -152.434319 
L 281.928649 -152.434319 
L 281.124324 -152.434319 
L 280.32 -152.434319 
L 279.515676 -152.434319 
L 278.711351 -152.434319 
L 277.907027 -152.434319 
L 277.102703 -152.434319 
L 276.298378 -152.434319 
L 275.494054 -152.434319 
L 274.68973 -152.434319 
L 273.885405 -152.434319 
L 273.081081 -152.434319 
L 272.276757 -152.434319 
L 271.472432 -152.434319 
L 270.668108 -152.434319 
L 269.863784 -152.434319 
L 269.059459 -152.434319 
L 268.255135 -152.434319 
L 267.450811 -152.434319 
L 266.646486 -152.434319 
L 265.842162 -152.434319 
L 265.037838 -152.434319 
L 264.233514 -152.434319 
L 263.429189 -152.434319 
L 262.624865 -152.434319 
L 261.820541 -152.434319 
L 261.016216 -152.434319 
L 260.211892 -152.434319 
L 259.407568 -152.434319 
L 258.603243 -152.434319 
L 257.798919 -152.434319 
L 256.994595 -152.434319 
L 256.19027 -152.434319 
L 255.385946 -152.434319 
L 254.581622 -152.434319 
L 253.777297 -152.434319 
L 252.972973 -152.434319 
L 252.168649 -152.434319 
L 251.364324 -152.434319 
L 250.56 -152.434319 
L 249.755676 -152.434319 
L 248.951351 -152.434319 
L 248.147027 -152.434319 
L 247.342703 -152.434319 
L 246.538378 -152.434319 
L 245.734054 -152.434319 
L 244.92973 -152.434319 
L 244.125405 -152.434319 
L 243.321081 -152.434319 
L 242.516757 -152.434319 
L 241.712432 -152.434319 
L 240.908108 -152.434319 
L 240.103784 -152.434319 
L 239.299459 -152.434319 
L 238.495135 -152.434319 
L 237.690811 -152.434319 
L 236.886486 -152.434319 
L 236.082162 -152.434319 
L 235.277838 -152.434319 
L 234.473514 -152.434319 
L 233.669189 -152.434319 
L 232.864865 -152.434319 
L 232.060541 -152.434319 
L 231.256216 -152.434319 
L 230.451892 -152.434319 
L 229.647568 -152.434319 
L 228.843243 -152.434319 
L 228.038919 -152.434319 
L 227.234595 -152.434319 
L 226.43027 -152.434319 
L 225.625946 -152.434319 
L 224.821622 -152.434319 
L 224.017297 -152.434319 
L 223.212973 -152.434319 
L 222.408649 -152.434319 
L 221.604324 -152.434319 
L 220.8 -152.434319 
L 219.995676 -152.434319 
L 219.191351 -152.434319 
L 218.387027 -152.434319 
L 217.582703 -152.434319 
L 216.778378 -152.434319 
L 215.974054 -152.434319 
L 215.16973 -152.434319 
L 214.365405 -152.434319 
L 213.561081 -152.434319 
L 212.756757 -152.434319 
L 211.952432 -152.434319 
L 211.148108 -152.434319 
L 210.343784 -152.434319 
L 209.539459 -152.434319 
L 208.735135 -152.434319 
L 207.930811 -152.434319 
L 207.126486 -152.434319 
L 206.322162 -152.434319 
L 205.517838 -152.434319 
L 204.713514 -152.434319 
L 203.909189 -152.434319 
L 203.104865 -152.434319 
L 202.300541 -152.434319 
L 201.496216 -152.434319 
L 200.691892 -152.434319 
L 199.887568 -152.434319 
L 199.083243 -152.434319 
L 198.278919 -152.434319 
L 197.474595 -152.434319 
L 196.67027 -152.434319 
L 195.865946 -152.434319 
L 195.061622 -152.434319 
L 194.257297 -152.434319 
L 193.452973 -152.434319 
L 192.648649 -152.434319 
L 191.844324 -152.434319 
L 191.04 -152.434319 
L 190.235676 -152.434319 
L 189.431351 -152.434319 
L 188.627027 -152.434319 
L 187.822703 -152.434319 
L 187.018378 -152.434319 
L 186.214054 -152.434319 
L 185.40973 -152.434319 
L 184.605405 -152.434319 
L 183.801081 -152.434319 
L 182.996757 -152.434319 
L 182.192432 -152.434319 
L 181.388108 -152.434319 
L 180.583784 -152.434319 
L 179.779459 -152.434319 
L 178.975135 -152.434319 
L 178.170811 -152.434319 
L 177.366486 -152.434319 
L 176.562162 -152.434319 
L 175.757838 -152.434319 
L 174.953514 -152.434319 
L 174.149189 -152.434319 
L 173.344865 -152.434319 
L 172.540541 -152.434319 
L 171.736216 -152.434319 
L 170.931892 -152.434319 
L 170.127568 -152.434319 
L 169.323243 -152.434319 
L 168.518919 -152.434319 
L 167.714595 -152.434319 
L 166.91027 -152.434319 
L 166.105946 -152.434319 
L 165.301622 -152.434319 
L 164.497297 -152.434319 
L 163.692973 -152.434319 
L 162.888649 -152.434319 
L 162.084324 -152.434319 
L 161.28 -152.434319 
L 160.475676 -152.434319 
L 159.671351 -152.434319 
L 158.867027 -152.434319 
L 158.062703 -152.434319 
L 157.258378 -152.434319 
L 156.454054 -152.434319 
L 155.64973 -152.434319 
L 154.845405 -152.434319 
L 154.041081 -152.434319 
L 153.236757 -152.434319 
L 152.432432 -152.434319 
L 151.628108 -152.434319 
L 150.823784 -152.434319 
L 150.019459 -152.434319 
L 149.215135 -152.434319 
L 148.410811 -152.434319 
L 147.606486 -152.434319 
L 146.802162 -152.434319 
L 145.997838 -152.434319 
L 145.193514 -152.434319 
L 144.389189 -152.434319 
L 143.584865 -152.434319 
L 142.780541 -152.434319 
L 141.976216 -152.434319 
L 141.171892 -152.434319 
L 140.367568 -152.434319 
L 139.563243 -152.434319 
L 138.758919 -152.434319 
L 137.954595 -152.434319 
L 137.15027 -152.434319 
L 136.345946 -152.434319 
L 135.541622 -152.434319 
L 134.737297 -152.434319 
L 133.932973 -152.434319 
L 133.128649 -152.434319 
L 132.324324 -152.434319 
L 131.52 -152.434319 
L 130.715676 -152.434319 
L 129.911351 -152.434319 
L 129.107027 -152.434319 
L 128.302703 -152.434319 
L 127.498378 -152.434319 
L 126.694054 -152.434319 
L 125.88973 -152.434319 
L 125.085405 -152.434319 
L 124.281081 -152.434319 
L 123.476757 -152.434319 
L 122.672432 -152.434319 
L 121.868108 -152.434319 
L 121.063784 -152.434319 
L 120.259459 -152.434319 
L 119.455135 -152.434319 
L 118.650811 -152.434319 
L 117.846486 -152.434319 
L 117.042162 -152.434319 
L 116.237838 -152.434319 
L 115.433514 -152.434319 
L 114.629189 -152.434319 
L 113.824865 -152.434319 
L 113.020541 -152.434319 
L 112.216216 -152.434319 
L 111.411892 -152.434319 
L 110.607568 -152.434319 
L 109.803243 -152.434319 
L 108.998919 -152.434319 
L 108.194595 -152.434319 
L 107.39027 -152.434319 
L 106.585946 -152.434319 
L 105.781622 -152.434319 
L 104.977297 -152.434319 
L 104.172973 -152.434319 
L 103.368649 -152.434319 
L 102.564324 -152.434319 
L 101.76 -152.434319 
L 100.955676 -152.434319 
L 100.151351 -152.434319 
L 99.347027 -152.434319 
L 98.542703 -152.434319 
L 97.738378 -152.434319 
L 96.934054 -152.434319 
L 96.12973 -152.434319 
L 95.325405 -152.434319 
L 94.521081 -152.434319 
L 93.716757 -152.434319 
L 92.912432 -152.434319 
L 92.108108 -152.434319 
L 91.303784 -152.434319 
L 90.499459 -152.434319 
L 89.695135 -152.434319 
L 88.890811 -152.434319 
L 88.086486 -152.434319 
L 87.282162 -152.434319 
L 86.477838 -152.434319 
L 85.673514 -152.434319 
L 84.869189 -152.434319 
L 84.064865 -152.434319 
L 83.260541 -152.434319 
L 82.456216 -152.434319 
L 81.651892 -152.434319 
L 80.847568 -152.434319 
L 80.043243 -152.434319 
L 79.238919 -152.434319 
L 78.434595 -152.434319 
L 77.63027 -152.434319 
L 76.825946 -152.434319 
L 76.021622 -152.434319 
L 75.217297 -152.434319 
L 74.412973 -152.434319 
L 73.608649 -152.434319 
L 72.804324 -152.434319 
L 72 -152.434319 
z
" id="me1b66ea3da"/>
    </defs>
    <g clip-path="url(#p972c851f22)">
     <use style="fill-opacity:0.15;" x="0" xlink:href="#me1b66ea3da" y="360"/>
    </g>
   </g>
   <g id="matplotlib.axis_1">
    <g id="xtick_1">
     <g id="line2d_1">
      <defs>
       <path d="M 0 0 
L 0 3.5 
" id="m2d692cda0d" style="stroke:#000000;stroke-width:0.8;"/>
      </defs>
      <g>
       <use style="stroke:#000000;stroke-width:0.8;" x="72" xlink:href="#m2d692cda0d" y="320.4"/>
      </g>
     </g>
     <g id="text_1">
      <!-- 0.0 -->
      <g transform="translate(60.867812 338.037813)scale(0.14 -0.14)">
       <defs>
        <path d="M 2034 4250 
Q 1547 4250 1301 3770 
Q 1056 3291 1056 2328 
Q 1056 1369 1301 889 
Q 1547 409 2034 409 
Q 2525 409 2770 889 
Q 3016 1369 3016 2328 
Q 3016 3291 2770 3770 
Q 2525 4250 2034 4250 
z
M 2034 4750 
Q 2819 4750 3233 4129 
Q 3647 3509 3647 2328 
Q 3647 1150 3233 529 
Q 2819 -91 2034 -91 
Q 1250 -91 836 529 
Q 422 1150 422 2328 
Q 422 3509 836 4129 
Q 1250 4750 2034 4750 
z
" id="DejaVuSans-30" transform="scale(0.015625)"/>
        <path d="M 684 794 
L 1344 794 
L 1344 0 
L 684 0 
L 684 794 
z
" id="DejaVuSans-2e" transform="scale(0.015625)"/>
       </defs>
       <use xlink:href="#DejaVuSans-30"/>
       <use x="63.623047" xlink:href="#DejaVuSans-2e"/>
       <use x="95.410156" xlink:href="#DejaVuSans-30"/>
      </g>
     </g>
    </g>
    <g id="xtick_2">
     <g id="line2d_2">
      <g>
       <use style="stroke:#000000;stroke-width:0.8;" x="127.816745" xlink:href="#m2d692cda0d" y="320.4"/>
      </g>
     </g>
     <g id="text_2">
      <!-- 2.5 -->
      <g transform="translate(116.684558 338.037813)scale(0.14 -0.14)">
       <defs>
        <path d="M 1228 531 
L 3431 531 
L 3431 0 
L 469 0 
L 469 531 
Q 828 903 1448 1529 
Q 2069 2156 2228 2338 
Q 2531 2678 2651 2914 
Q 2772 3150 2772 3378 
Q 2772 3750 2511 3984 
Q 2250 4219 1831 4219 
Q 1534 4219 1204 4116 
Q 875 4013 500 3803 
L 500 4441 
Q 881 4594 1212 4672 
Q 1544 4750 1819 4750 
Q 2544 4750 2975 4387 
Q 3406 4025 3406 3419 
Q 3406 3131 3298 2873 
Q 3191 2616 2906 2266 
Q 2828 2175 2409 1742 
Q 1991 1309 1228 531 
z
" id="DejaVuSans-32" transform="scale(0.015625)"/>
        <path d="M 691 4666 
L 3169 4666 
L 3169 4134 
L 1269 4134 
L 1269 2991 
Q 1406 3038 1543 3061 
Q 1681 3084 1819 3084 
Q 2600 3084 3056 2656 
Q 3513 2228 3513 1497 
Q 3513 744 3044 326 
Q 2575 -91 1722 -91 
Q 1428 -91 1123 -41 
Q 819 9 494 109 
L 494 744 
Q 775 591 1075 516 
Q 1375 441 1709 441 
Q 2250 441 2565 725 
Q 2881 1009 2881 1497 
Q 2881 1984 2565 2268 
Q 2250 2553 1709 2553 
Q 1456 2553 1204 2497 
Q 953 2441 691 2322 
L 691 4666 
z
" id="DejaVuSans-35" transform="scale(0.015625)"/>
       </defs>
       <use xlink:href="#DejaVuSans-32"/>
       <use x="63.623047" xlink:href="#DejaVuSans-2e"/>
       <use x="95.410156" xlink:href="#DejaVuSans-35"/>
      </g>
     </g>
    </g>
    <g id="xtick_3">
     <g id="line2d_3">
      <g>
       <use style="stroke:#000000;stroke-width:0.8;" x="183.63349" xlink:href="#m2d692cda0d" y="320.4"/>
      </g>
     </g>
     <g id="text_3">
      <!-- 5.0 -->
      <g transform="translate(172.501303 338.037813)scale(0.14 -0.14)">
       <use xlink:href="#DejaVuSans-35"/>
       <use x="63.623047" xlink:href="#DejaVuSans-2e"/>
       <use x="95.410156" xlink:href="#DejaVuSans-30"/>
      </g>
     </g>
    </g>
    <g id="xtick_4">
     <g id="line2d_4">
      <g>
       <use style="stroke:#000000;stroke-width:0.8;" x="239.450235" xlink:href="#m2d692cda0d" y="320.4"/>
      </g>
     </g>
     <g id="text_4">
      <!-- 7.5 -->
      <g transform="translate(228.318048 338.037813)scale(0.14 -0.14)">
       <defs>
        <path d="M 525 4666 
L 3525 4666 
L 3525 4397 
L 1831 0 
L 1172 0 
L 2766 4134 
L 525 4134 
L 525 4666 
z
" id="DejaVuSans-37" transform="scale(0.015625)"/>
       </defs>
       <use xlink:href="#DejaVuSans-37"/>
       <use x="63.623047" xlink:href="#DejaVuSans-2e"/>
       <use x="95.410156" xlink:href="#DejaVuSans-35"/>
      </g>
     </g>
    </g>
    <g id="xtick_5">
     <g id="line2d_5">
      <g>
       <use style="stroke:#000000;stroke-width:0.8;" x="295.26698" xlink:href="#m2d692cda0d" y="320.4"/>
      </g>
     </g>
     <g id="text_5">
      <!-- 10.0 -->
      <g transform="translate(279.681043 338.037813)scale(0.14 -0.14)">
       <defs>
        <path d="M 794 531 
L 1825 531 
L 1825 4091 
L 703 3866 
L 703 4441 
L 1819 4666 
L 2450 4666 
L 2450 531 
L 3481 531 
L 3481 0 
L 794 0 
L 794 531 
z
" id="DejaVuSans-31" transform="scale(0.015625)"/>
       </defs>
       <use xlink:href="#DejaVuSans-31"/>
       <use x="63.623047" xlink:href="#DejaVuSans-30"/>
       <use x="127.246094" xlink:href="#DejaVuSans-2e"/>
       <use x="159.033203" xlink:href="#DejaVuSans-30"/>
      </g>
     </g>
    </g>
    <g id="xtick_6">
     <g id="line2d_6">
      <g>
       <use style="stroke:#000000;stroke-width:0.8;" x="351.083725" xlink:href="#m2d692cda0d" y="320.4"/>
      </g>
     </g>
     <g id="text_6">
      <!-- 12.5 -->
      <g transform="translate(335.497788 338.037813)scale(0.14 -0.14)">
       <use xlink:href="#DejaVuSans-31"/>
       <use x="63.623047" xlink:href="#DejaVuSans-32"/>
       <use x="127.246094" xlink:href="#DejaVuSans-2e"/>
       <use x="159.033203" xlink:href="#DejaVuSans-35"/>
      </g>
     </g>
    </g>
    <g id="xtick_7">
     <g id="line2d_7">
      <g>
       <use style="stroke:#000000;stroke-width:0.8;" x="406.90047" xlink:href="#m2d692cda0d" y="320.4"/>
      </g>
     </g>
     <g id="text_7">
      <!-- 15.0 -->
      <g transform="translate(391.314533 338.037813)scale(0.14 -0.14)">
       <use xlink:href="#DejaVuSans-31"/>
       <use x="63.623047" xlink:href="#DejaVuSans-35"/>
       <use x="127.246094" xlink:href="#DejaVuSans-2e"/>
       <use x="159.033203" xlink:href="#DejaVuSans-30"/>
      </g>
     </g>
    </g>
    <g id="xtick_8">
     <g id="line2d_8">
      <g>
       <use style="stroke:#000000;stroke-width:0.8;" x="462.717215" xlink:href="#m2d692cda0d" y="320.4"/>
      </g>
     </g>
     <g id="text_8">
      <!-- 17.5 -->
      <g transform="translate(447.131278 338.037813)scale(0.14 -0.14)">
       <use xlink:href="#DejaVuSans-31"/>
       <use x="63.623047" xlink:href="#DejaVuSans-37"/>
       <use x="127.246094" xlink:href="#DejaVuSans-2e"/>
       <use x="159.033203" xlink:href="#DejaVuSans-35"/>
      </g>
     </g>
    </g>
    <g id="text_9">
     <!-- Time [Seconds] -->
     <g transform="translate(233.23 357.106875)scale(0.16 -0.16)">
      <defs>
       <path d="M -19 4666 
L 3928 4666 
L 3928 4134 
L 2272 4134 
L 2272 0 
L 1638 0 
L 1638 4134 
L -19 4134 
L -19 4666 
z
" id="DejaVuSans-54" transform="scale(0.015625)"/>
       <path d="M 603 3500 
L 1178 3500 
L 1178 0 
L 603 0 
L 603 3500 
z
M 603 4863 
L 1178 4863 
L 1178 4134 
L 603 4134 
L 603 4863 
z
" id="DejaVuSans-69" transform="scale(0.015625)"/>
       <path d="M 3328 2828 
Q 3544 3216 3844 3400 
Q 4144 3584 4550 3584 
Q 5097 3584 5394 3201 
Q 5691 2819 5691 2113 
L 5691 0 
L 5113 0 
L 5113 2094 
Q 5113 2597 4934 2840 
Q 4756 3084 4391 3084 
Q 3944 3084 3684 2787 
Q 3425 2491 3425 1978 
L 3425 0 
L 2847 0 
L 2847 2094 
Q 2847 2600 2669 2842 
Q 2491 3084 2119 3084 
Q 1678 3084 1418 2786 
Q 1159 2488 1159 1978 
L 1159 0 
L 581 0 
L 581 3500 
L 1159 3500 
L 1159 2956 
Q 1356 3278 1631 3431 
Q 1906 3584 2284 3584 
Q 2666 3584 2933 3390 
Q 3200 3197 3328 2828 
z
" id="DejaVuSans-6d" transform="scale(0.015625)"/>
       <path d="M 3597 1894 
L 3597 1613 
L 953 1613 
Q 991 1019 1311 708 
Q 1631 397 2203 397 
Q 2534 397 2845 478 
Q 3156 559 3463 722 
L 3463 178 
Q 3153 47 2828 -22 
Q 2503 -91 2169 -91 
Q 1331 -91 842 396 
Q 353 884 353 1716 
Q 353 2575 817 3079 
Q 1281 3584 2069 3584 
Q 2775 3584 3186 3129 
Q 3597 2675 3597 1894 
z
M 3022 2063 
Q 3016 2534 2758 2815 
Q 2500 3097 2075 3097 
Q 1594 3097 1305 2825 
Q 1016 2553 972 2059 
L 3022 2063 
z
" id="DejaVuSans-65" transform="scale(0.015625)"/>
       <path id="DejaVuSans-20" transform="scale(0.015625)"/>
       <path d="M 550 4863 
L 1875 4863 
L 1875 4416 
L 1125 4416 
L 1125 -397 
L 1875 -397 
L 1875 -844 
L 550 -844 
L 550 4863 
z
" id="DejaVuSans-5b" transform="scale(0.015625)"/>
       <path d="M 3425 4513 
L 3425 3897 
Q 3066 4069 2747 4153 
Q 2428 4238 2131 4238 
Q 1616 4238 1336 4038 
Q 1056 3838 1056 3469 
Q 1056 3159 1242 3001 
Q 1428 2844 1947 2747 
L 2328 2669 
Q 3034 2534 3370 2195 
Q 3706 1856 3706 1288 
Q 3706 609 3251 259 
Q 2797 -91 1919 -91 
Q 1588 -91 1214 -16 
Q 841 59 441 206 
L 441 856 
Q 825 641 1194 531 
Q 1563 422 1919 422 
Q 2459 422 2753 634 
Q 3047 847 3047 1241 
Q 3047 1584 2836 1778 
Q 2625 1972 2144 2069 
L 1759 2144 
Q 1053 2284 737 2584 
Q 422 2884 422 3419 
Q 422 4038 858 4394 
Q 1294 4750 2059 4750 
Q 2388 4750 2728 4690 
Q 3069 4631 3425 4513 
z
" id="DejaVuSans-53" transform="scale(0.015625)"/>
       <path d="M 3122 3366 
L 3122 2828 
Q 2878 2963 2633 3030 
Q 2388 3097 2138 3097 
Q 1578 3097 1268 2742 
Q 959 2388 959 1747 
Q 959 1106 1268 751 
Q 1578 397 2138 397 
Q 2388 397 2633 464 
Q 2878 531 3122 666 
L 3122 134 
Q 2881 22 2623 -34 
Q 2366 -91 2075 -91 
Q 1284 -91 818 406 
Q 353 903 353 1747 
Q 353 2603 823 3093 
Q 1294 3584 2113 3584 
Q 2378 3584 2631 3529 
Q 2884 3475 3122 3366 
z
" id="DejaVuSans-63" transform="scale(0.015625)"/>
       <path d="M 1959 3097 
Q 1497 3097 1228 2736 
Q 959 2375 959 1747 
Q 959 1119 1226 758 
Q 1494 397 1959 397 
Q 2419 397 2687 759 
Q 2956 1122 2956 1747 
Q 2956 2369 2687 2733 
Q 2419 3097 1959 3097 
z
M 1959 3584 
Q 2709 3584 3137 3096 
Q 3566 2609 3566 1747 
Q 3566 888 3137 398 
Q 2709 -91 1959 -91 
Q 1206 -91 779 398 
Q 353 888 353 1747 
Q 353 2609 779 3096 
Q 1206 3584 1959 3584 
z
" id="DejaVuSans-6f" transform="scale(0.015625)"/>
       <path d="M 3513 2113 
L 3513 0 
L 2938 0 
L 2938 2094 
Q 2938 2591 2744 2837 
Q 2550 3084 2163 3084 
Q 1697 3084 1428 2787 
Q 1159 2491 1159 1978 
L 1159 0 
L 581 0 
L 581 3500 
L 1159 3500 
L 1159 2956 
Q 1366 3272 1645 3428 
Q 1925 3584 2291 3584 
Q 2894 3584 3203 3211 
Q 3513 2838 3513 2113 
z
" id="DejaVuSans-6e" transform="scale(0.015625)"/>
       <path d="M 2906 2969 
L 2906 4863 
L 3481 4863 
L 3481 0 
L 2906 0 
L 2906 525 
Q 2725 213 2448 61 
Q 2172 -91 1784 -91 
Q 1150 -91 751 415 
Q 353 922 353 1747 
Q 353 2572 751 3078 
Q 1150 3584 1784 3584 
Q 2172 3584 2448 3432 
Q 2725 3281 2906 2969 
z
M 947 1747 
Q 947 1113 1208 752 
Q 1469 391 1925 391 
Q 2381 391 2643 752 
Q 2906 1113 2906 1747 
Q 2906 2381 2643 2742 
Q 2381 3103 1925 3103 
Q 1469 3103 1208 2742 
Q 947 2381 947 1747 
z
" id="DejaVuSans-64" transform="scale(0.015625)"/>
       <path d="M 2834 3397 
L 2834 2853 
Q 2591 2978 2328 3040 
Q 2066 3103 1784 3103 
Q 1356 3103 1142 2972 
Q 928 2841 928 2578 
Q 928 2378 1081 2264 
Q 1234 2150 1697 2047 
L 1894 2003 
Q 2506 1872 2764 1633 
Q 3022 1394 3022 966 
Q 3022 478 2636 193 
Q 2250 -91 1575 -91 
Q 1294 -91 989 -36 
Q 684 19 347 128 
L 347 722 
Q 666 556 975 473 
Q 1284 391 1588 391 
Q 1994 391 2212 530 
Q 2431 669 2431 922 
Q 2431 1156 2273 1281 
Q 2116 1406 1581 1522 
L 1381 1569 
Q 847 1681 609 1914 
Q 372 2147 372 2553 
Q 372 3047 722 3315 
Q 1072 3584 1716 3584 
Q 2034 3584 2315 3537 
Q 2597 3491 2834 3397 
z
" id="DejaVuSans-73" transform="scale(0.015625)"/>
       <path d="M 1947 4863 
L 1947 -844 
L 622 -844 
L 622 -397 
L 1369 -397 
L 1369 4416 
L 622 4416 
L 622 4863 
L 1947 4863 
z
" id="DejaVuSans-5d" transform="scale(0.015625)"/>
      </defs>
      <use xlink:href="#DejaVuSans-54"/>
      <use x="57.958984" xlink:href="#DejaVuSans-69"/>
      <use x="85.742188" xlink:href="#DejaVuSans-6d"/>
      <use x="183.154297" xlink:href="#DejaVuSans-65"/>
      <use x="244.677734" xlink:href="#DejaVuSans-20"/>
      <use x="276.464844" xlink:href="#DejaVuSans-5b"/>
      <use x="315.478516" xlink:href="#DejaVuSans-53"/>
      <use x="378.955078" xlink:href="#DejaVuSans-65"/>
      <use x="440.478516" xlink:href="#DejaVuSans-63"/>
      <use x="495.458984" xlink:href="#DejaVuSans-6f"/>
      <use x="556.640625" xlink:href="#DejaVuSans-6e"/>
      <use x="620.019531" xlink:href="#DejaVuSans-64"/>
      <use x="683.496094" xlink:href="#DejaVuSans-73"/>
      <use x="735.595703" xlink:href="#DejaVuSans-5d"/>
     </g>
    </g>
   </g>
   <g id="matplotlib.axis_2">
    <g id="ytick_1">
     <g id="line2d_9">
      <defs>
       <path d="M 0 0 
L -3.5 0 
" id="m73deee59ff" style="stroke:#000000;stroke-width:0.8;"/>
      </defs>
      <g>
       <use style="stroke:#000000;stroke-width:0.8;" x="72" xlink:href="#m73deee59ff" y="279.474924"/>
      </g>
     </g>
     <g id="text_10">
      <!-- 0.0 -->
      <g transform="translate(42.735625 284.79383)scale(0.14 -0.14)">
       <use xlink:href="#DejaVuSans-30"/>
       <use x="63.623047" xlink:href="#DejaVuSans-2e"/>
       <use x="95.410156" xlink:href="#DejaVuSans-30"/>
      </g>
     </g>
    </g>
    <g id="ytick_2">
     <g id="line2d_10">
      <g>
       <use style="stroke:#000000;stroke-width:0.8;" x="72" xlink:href="#m73deee59ff" y="220.761222"/>
      </g>
     </g>
     <g id="text_11">
      <!-- 0.5 -->
      <g transform="translate(42.735625 226.080128)scale(0.14 -0.14)">
       <use xlink:href="#DejaVuSans-30"/>
       <use x="63.623047" xlink:href="#DejaVuSans-2e"/>
       <use x="95.410156" xlink:href="#DejaVuSans-35"/>
      </g>
     </g>
    </g>
    <g id="ytick_3">
     <g id="line2d_11">
      <g>
       <use style="stroke:#000000;stroke-width:0.8;" x="72" xlink:href="#m73deee59ff" y="162.047519"/>
      </g>
     </g>
     <g id="text_12">
      <!-- 1.0 -->
      <g transform="translate(42.735625 167.366426)scale(0.14 -0.14)">
       <use xlink:href="#DejaVuSans-31"/>
       <use x="63.623047" xlink:href="#DejaVuSans-2e"/>
       <use x="95.410156" xlink:href="#DejaVuSans-30"/>
      </g>
     </g>
    </g>
    <g id="ytick_4">
     <g id="line2d_12">
      <g>
       <use style="stroke:#000000;stroke-width:0.8;" x="72" xlink:href="#m73deee59ff" y="103.333817"/>
      </g>
     </g>
     <g id="text_13">
      <!-- 1.5 -->
      <g transform="translate(42.735625 108.652723)scale(0.14 -0.14)">
       <use xlink:href="#DejaVuSans-31"/>
       <use x="63.623047" xlink:href="#DejaVuSans-2e"/>
       <use x="95.410156" xlink:href="#DejaVuSans-35"/>
      </g>
     </g>
    </g>
    <g id="ytick_5">
     <g id="line2d_13">
      <g>
       <use style="stroke:#000000;stroke-width:0.8;" x="72" xlink:href="#m73deee59ff" y="44.620115"/>
      </g>
     </g>
     <g id="text_14">
      <!-- 2.0 -->
      <g transform="translate(42.735625 49.939021)scale(0.14 -0.14)">
       <use xlink:href="#DejaVuSans-32"/>
       <use x="63.623047" xlink:href="#DejaVuSans-2e"/>
       <use x="95.410156" xlink:href="#DejaVuSans-30"/>
      </g>
     </g>
    </g>
    <g id="text_15">
     <!-- Speed [mm/s] -->
     <g transform="translate(35.408125 238.11375)rotate(-90)scale(0.16 -0.16)">
      <defs>
       <path d="M 1159 525 
L 1159 -1331 
L 581 -1331 
L 581 3500 
L 1159 3500 
L 1159 2969 
Q 1341 3281 1617 3432 
Q 1894 3584 2278 3584 
Q 2916 3584 3314 3078 
Q 3713 2572 3713 1747 
Q 3713 922 3314 415 
Q 2916 -91 2278 -91 
Q 1894 -91 1617 61 
Q 1341 213 1159 525 
z
M 3116 1747 
Q 3116 2381 2855 2742 
Q 2594 3103 2138 3103 
Q 1681 3103 1420 2742 
Q 1159 2381 1159 1747 
Q 1159 1113 1420 752 
Q 1681 391 2138 391 
Q 2594 391 2855 752 
Q 3116 1113 3116 1747 
z
" id="DejaVuSans-70" transform="scale(0.015625)"/>
       <path d="M 1625 4666 
L 2156 4666 
L 531 -594 
L 0 -594 
L 1625 4666 
z
" id="DejaVuSans-2f" transform="scale(0.015625)"/>
      </defs>
      <use xlink:href="#DejaVuSans-53"/>
      <use x="63.476562" xlink:href="#DejaVuSans-70"/>
      <use x="126.953125" xlink:href="#DejaVuSans-65"/>
      <use x="188.476562" xlink:href="#DejaVuSans-65"/>
      <use x="250" xlink:href="#DejaVuSans-64"/>
      <use x="313.476562" xlink:href="#DejaVuSans-20"/>
      <use x="345.263672" xlink:href="#DejaVuSans-5b"/>
      <use x="384.277344" xlink:href="#DejaVuSans-6d"/>
      <use x="481.689453" xlink:href="#DejaVuSans-6d"/>
      <use x="579.101562" xlink:href="#DejaVuSans-2f"/>
      <use x="612.792969" xlink:href="#DejaVuSans-73"/>
      <use x="664.892578" xlink:href="#DejaVuSans-5d"/>
     </g>
    </g>
   </g>
   <g id="line2d_14">
    <path clip-path="url(#p972c851f22)" d="M 72 205.221953 
L 518.4 205.221953 
" style="fill:none;stroke:#000000;stroke-dasharray:5.55,2.4;stroke-dashoffset:0;stroke-width:1.5;"/>
   </g>
   <g id="line2d_15">
    <path clip-path="url(#p972c851f22)" d="M 72 277.199199 
L 128.302703 277.142463 
L 129.107027 277.468605 
L 129.911351 275.761609 
L 130.715676 274.659529 
L 131.52 277.335489 
L 132.324324 278.593828 
L 133.932973 278.364062 
L 134.737297 276.19378 
L 135.541622 261.401172 
L 136.345946 271.926062 
L 137.15027 302.338882 
L 137.954595 307.8 
L 138.758919 300.599784 
L 139.563243 283.282075 
L 140.367568 258.314078 
L 144.389189 107.839778 
L 145.193514 85.814727 
L 145.997838 70.514068 
L 146.802162 59.103419 
L 147.606486 55.8 
L 148.410811 62.227265 
L 149.215135 74.211213 
L 150.019459 91.792387 
L 153.236757 181.508037 
L 154.041081 197.102168 
L 154.845405 204.719848 
L 155.64973 203.244795 
L 156.454054 187.574431 
L 157.258378 164.966632 
L 158.062703 173.986366 
L 158.867027 194.025014 
L 159.671351 194.019748 
L 160.475676 196.088646 
L 161.28 196.737588 
L 162.888649 195.190556 
L 163.692973 195.566892 
L 164.497297 196.352503 
L 165.301622 196.882687 
L 166.105946 197.895453 
L 166.91027 198.401392 
L 167.714595 199.569857 
L 168.518919 198.294563 
L 169.323243 197.936465 
L 170.127568 199.454564 
L 170.931892 199.307176 
L 171.736216 200.061986 
L 172.540541 202.085711 
L 173.344865 202.437796 
L 174.149189 201.069809 
L 174.953514 202.119727 
L 175.757838 202.249386 
L 176.562162 202.722783 
L 177.366486 202.578791 
L 178.170811 201.387787 
L 178.975135 201.898554 
L 179.779459 200.73496 
L 180.583784 200.921446 
L 181.388108 202.717303 
L 182.192432 203.41905 
L 182.996757 203.685086 
L 183.801081 203.116626 
L 185.40973 204.058488 
L 186.214054 203.548514 
L 187.018378 203.894695 
L 187.822703 204.580821 
L 188.627027 204.141962 
L 189.431351 204.701478 
L 190.235676 205.109797 
L 191.04 204.701832 
L 191.844324 204.802838 
L 193.452973 204.21873 
L 194.257297 204.569125 
L 195.061622 204.658079 
L 195.865946 204.562421 
L 197.474595 205.587797 
L 198.278919 205.679541 
L 199.083243 204.814033 
L 200.691892 204.508784 
L 201.496216 203.586872 
L 202.300541 204.362586 
L 203.104865 204.869861 
L 203.909189 204.818362 
L 204.713514 205.01864 
L 205.517838 205.0114 
L 206.322162 205.125093 
L 207.930811 204.64089 
L 208.735135 205.090673 
L 209.539459 205.69473 
L 210.343784 205.736874 
L 211.148108 205.550879 
L 211.952432 205.516445 
L 212.756757 206.270282 
L 213.561081 206.354581 
L 214.365405 205.643977 
L 215.16973 205.236462 
L 216.778378 205.772019 
L 217.582703 205.124791 
L 218.387027 205.026929 
L 219.191351 205.584251 
L 219.995676 205.865886 
L 222.408649 204.996054 
L 223.212973 205.021002 
L 224.017297 205.554942 
L 224.821622 205.053046 
L 225.625946 204.737808 
L 227.234595 205.651349 
L 228.038919 205.782058 
L 229.647568 205.2571 
L 230.451892 205.320647 
L 231.256216 205.57201 
L 232.060541 205.551781 
L 232.864865 204.997989 
L 233.669189 205.11569 
L 234.473514 206.209236 
L 235.277838 206.196923 
L 236.082162 205.534578 
L 236.886486 205.589901 
L 237.690811 206.132912 
L 238.495135 206.242675 
L 239.299459 205.697159 
L 241.712432 206.048486 
L 242.516757 206.260545 
L 243.321081 206.251225 
L 244.125405 205.810981 
L 245.734054 206.073368 
L 246.538378 205.568251 
L 247.342703 205.600134 
L 248.951351 206.103895 
L 250.56 205.748288 
L 251.364324 205.766028 
L 252.168649 205.917893 
L 252.972973 205.775908 
L 253.777297 205.373423 
L 255.385946 205.597135 
L 256.19027 205.832218 
L 256.994595 205.864143 
L 257.798919 205.621842 
L 261.016216 205.46149 
L 261.820541 205.526762 
L 262.624865 205.460977 
L 264.233514 205.768021 
L 265.842162 205.266738 
L 266.646486 205.763687 
L 267.450811 206.025758 
L 268.255135 205.75507 
L 269.863784 205.635818 
L 270.668108 205.722145 
L 271.472432 205.683407 
L 273.081081 205.917426 
L 275.494054 205.683815 
L 277.102703 205.7697 
L 277.907027 206.0547 
L 281.124324 206.252014 
L 281.928649 206.428983 
L 283.537297 206.092397 
L 285.145946 206.094872 
L 285.95027 206.004752 
L 286.754595 205.469102 
L 287.558919 205.383685 
L 288.363243 205.666955 
L 289.167568 205.390673 
L 289.971892 205.279568 
L 290.776216 205.668295 
L 294.797838 205.844845 
L 295.602162 205.744912 
L 297.210811 206.124348 
L 298.015135 205.915285 
L 298.819459 205.935644 
L 300.428108 205.735038 
L 301.232432 205.815117 
L 302.036757 205.561465 
L 302.841081 205.724681 
L 303.645405 205.701274 
L 304.44973 205.530066 
L 305.254054 205.586137 
L 306.862703 206.235654 
L 307.667027 206.238323 
L 308.471351 206.020115 
L 310.08 205.985856 
L 310.884324 205.354278 
L 311.688649 205.448147 
L 312.492973 206.163141 
L 314.101622 206.248356 
L 314.905946 206.167873 
L 315.71027 205.878534 
L 316.514595 205.729738 
L 317.318919 205.467413 
L 318.123243 205.47992 
L 318.927568 205.697935 
L 319.731892 205.524485 
L 320.536216 205.124101 
L 321.340541 205.126047 
L 322.144865 205.736626 
L 322.949189 205.560758 
L 323.753514 204.905916 
L 324.557838 205.129935 
L 325.362162 205.543532 
L 326.166486 205.81029 
L 327.775135 206.17224 
L 329.383784 205.948036 
L 330.188108 206.133532 
L 330.992432 206.099302 
L 331.796757 205.949948 
L 332.601081 205.637685 
L 334.20973 205.838797 
L 335.014054 205.484642 
L 335.818378 205.849786 
L 336.622703 206.078454 
L 337.427027 205.364295 
L 338.231351 205.307325 
L 339.84 206.080268 
L 340.644324 206.262556 
L 343.057297 206.122901 
L 343.861622 206.21812 
L 345.47027 205.681055 
L 346.274595 205.965565 
L 347.078919 206.073763 
L 347.883243 205.879258 
L 348.687568 205.82475 
L 349.491892 205.647838 
L 350.296216 205.131284 
L 351.100541 205.240103 
L 351.904865 205.777736 
L 353.513514 206.230599 
L 354.317838 206.213566 
L 355.122162 206.337874 
L 355.926486 206.119908 
L 356.730811 205.654105 
L 357.535135 206.006558 
L 358.339459 206.112591 
L 359.143784 205.684069 
L 359.948108 205.447737 
L 360.752432 205.589112 
L 361.556757 206.20468 
L 362.361081 205.939377 
L 363.165405 205.420844 
L 364.774054 205.425861 
L 365.578378 205.711671 
L 367.187027 205.729076 
L 367.991351 206.127624 
L 368.795676 206.043636 
L 371.208649 205.15462 
L 372.012973 205.232888 
L 372.817297 205.692929 
L 373.621622 205.854568 
L 380.056216 206.193268 
L 380.860541 206.014101 
L 381.664865 205.718106 
L 383.273514 205.625903 
L 384.077838 205.189263 
L 384.882162 205.336638 
L 385.686486 205.790517 
L 386.490811 205.9809 
L 390.512432 205.78149 
L 391.316757 205.840867 
L 392.121081 205.670287 
L 392.925405 205.745549 
L 393.72973 206.090657 
L 394.534054 206.188683 
L 397.751351 205.108176 
L 398.555676 205.632226 
L 400.968649 206.494319 
L 401.772973 206.390269 
L 403.381622 205.898073 
L 404.185946 205.528411 
L 404.99027 205.40786 
L 405.794595 205.44319 
L 407.403243 205.842161 
L 409.011892 205.708503 
L 409.816216 205.478967 
L 410.620541 205.46985 
L 413.033514 206.337857 
L 414.642162 206.589195 
L 416.250811 206.165942 
L 417.055135 206.023279 
L 418.663784 205.293978 
L 419.468108 205.498902 
L 420.272432 205.52218 
L 421.076757 205.247187 
L 425.098378 205.874093 
L 425.902703 205.966021 
L 426.707027 206.259221 
L 427.511351 206.26961 
L 428.315676 206.066349 
L 429.12 206.091693 
L 429.924324 205.555585 
L 431.532973 205.648825 
L 432.337297 205.132414 
L 433.141622 205.359658 
L 433.945946 205.877564 
L 434.75027 206.186847 
L 436.358919 205.978203 
L 437.163243 206.090478 
L 438.771892 205.77436 
L 439.576216 205.790178 
L 440.380541 206.120637 
L 441.184865 206.210019 
L 442.793514 205.086114 
L 443.597838 204.961595 
L 444.402162 205.356233 
L 445.206486 205.579223 
L 446.010811 205.5546 
L 447.619459 206.032621 
L 450.032432 205.916258 
L 450.836757 206.102683 
L 451.641081 205.608343 
L 452.445405 205.988439 
L 453.24973 206.195879 
L 454.054054 205.459455 
L 454.858378 205.499852 
L 455.662703 205.906011 
L 456.467027 205.972333 
L 457.271351 205.815387 
L 458.075676 205.833921 
L 458.88 206.135986 
L 459.684324 206.255663 
L 460.488649 206.205357 
L 462.097297 206.427923 
L 462.901622 206.144285 
L 463.705946 205.705094 
L 464.51027 205.534457 
L 466.118919 205.545973 
L 467.727568 204.942933 
L 468.531892 205.16 
L 470.140541 205.151505 
L 470.944865 205.365615 
L 471.749189 205.456006 
L 473.357838 205.92686 
L 474.162162 206.318808 
L 474.966486 206.029398 
L 475.770811 205.901237 
L 476.575135 206.281472 
L 478.988108 206.205715 
L 481.401081 205.795104 
L 482.205405 205.452578 
L 483.814054 205.173943 
L 484.618378 205.041109 
L 485.422703 205.178724 
L 486.227027 205.646385 
L 487.031351 205.693675 
L 487.835676 205.481143 
L 490.248649 206.463169 
L 491.052973 206.499044 
L 491.857297 206.733175 
L 492.661622 206.565944 
L 493.465946 206.035119 
L 494.27027 206.073002 
L 495.074595 205.779903 
L 496.683243 205.427447 
L 497.487568 204.844449 
L 499.096216 205.250424 
L 499.900541 205.360038 
L 501.509189 205.943851 
L 503.922162 206.119373 
L 504.726486 205.641225 
L 506.335135 205.920438 
L 507.139459 205.722636 
L 512.76973 205.763474 
L 515.182703 206.096227 
L 516.791351 206.536665 
L 518.4 207.214838 
L 518.4 207.214838 
" style="fill:none;stroke:#ff0000;stroke-linecap:square;stroke-width:2;"/>
   </g>
   <g id="patch_3">
    <path d="M 72 320.4 
L 72 43.2 
" style="fill:none;stroke:#000000;stroke-linecap:square;stroke-linejoin:miter;stroke-width:0.8;"/>
   </g>
   <g id="patch_4">
    <path d="M 518.4 320.4 
L 518.4 43.2 
" style="fill:none;stroke:#000000;stroke-linecap:square;stroke-linejoin:miter;stroke-width:0.8;"/>
   </g>
   <g id="patch_5">
    <path d="M 72 320.4 
L 518.4 320.4 
" style="fill:none;stroke:#000000;stroke-linecap:square;stroke-linejoin:miter;stroke-width:0.8;"/>
   </g>
   <g id="patch_6">
    <path d="M 72 43.2 
L 518.4 43.2 
" style="fill:none;stroke:#000000;stroke-linecap:square;stroke-linejoin:miter;stroke-width:0.8;"/>
   </g>
   <g id="text_16">
    <!-- Front Propogation Speed -->
    <g transform="translate(172.245312 37.2)scale(0.2 -0.2)">
     <defs>
      <path d="M 628 4666 
L 3309 4666 
L 3309 4134 
L 1259 4134 
L 1259 2759 
L 3109 2759 
L 3109 2228 
L 1259 2228 
L 1259 0 
L 628 0 
L 628 4666 
z
" id="DejaVuSans-46" transform="scale(0.015625)"/>
      <path d="M 2631 2963 
Q 2534 3019 2420 3045 
Q 2306 3072 2169 3072 
Q 1681 3072 1420 2755 
Q 1159 2438 1159 1844 
L 1159 0 
L 581 0 
L 581 3500 
L 1159 3500 
L 1159 2956 
Q 1341 3275 1631 3429 
Q 1922 3584 2338 3584 
Q 2397 3584 2469 3576 
Q 2541 3569 2628 3553 
L 2631 2963 
z
" id="DejaVuSans-72" transform="scale(0.015625)"/>
      <path d="M 1172 4494 
L 1172 3500 
L 2356 3500 
L 2356 3053 
L 1172 3053 
L 1172 1153 
Q 1172 725 1289 603 
Q 1406 481 1766 481 
L 2356 481 
L 2356 0 
L 1766 0 
Q 1100 0 847 248 
Q 594 497 594 1153 
L 594 3053 
L 172 3053 
L 172 3500 
L 594 3500 
L 594 4494 
L 1172 4494 
z
" id="DejaVuSans-74" transform="scale(0.015625)"/>
      <path d="M 1259 4147 
L 1259 2394 
L 2053 2394 
Q 2494 2394 2734 2622 
Q 2975 2850 2975 3272 
Q 2975 3691 2734 3919 
Q 2494 4147 2053 4147 
L 1259 4147 
z
M 628 4666 
L 2053 4666 
Q 2838 4666 3239 4311 
Q 3641 3956 3641 3272 
Q 3641 2581 3239 2228 
Q 2838 1875 2053 1875 
L 1259 1875 
L 1259 0 
L 628 0 
L 628 4666 
z
" id="DejaVuSans-50" transform="scale(0.015625)"/>
      <path d="M 2906 1791 
Q 2906 2416 2648 2759 
Q 2391 3103 1925 3103 
Q 1463 3103 1205 2759 
Q 947 2416 947 1791 
Q 947 1169 1205 825 
Q 1463 481 1925 481 
Q 2391 481 2648 825 
Q 2906 1169 2906 1791 
z
M 3481 434 
Q 3481 -459 3084 -895 
Q 2688 -1331 1869 -1331 
Q 1566 -1331 1297 -1286 
Q 1028 -1241 775 -1147 
L 775 -588 
Q 1028 -725 1275 -790 
Q 1522 -856 1778 -856 
Q 2344 -856 2625 -561 
Q 2906 -266 2906 331 
L 2906 616 
Q 2728 306 2450 153 
Q 2172 0 1784 0 
Q 1141 0 747 490 
Q 353 981 353 1791 
Q 353 2603 747 3093 
Q 1141 3584 1784 3584 
Q 2172 3584 2450 3431 
Q 2728 3278 2906 2969 
L 2906 3500 
L 3481 3500 
L 3481 434 
z
" id="DejaVuSans-67" transform="scale(0.015625)"/>
      <path d="M 2194 1759 
Q 1497 1759 1228 1600 
Q 959 1441 959 1056 
Q 959 750 1161 570 
Q 1363 391 1709 391 
Q 2188 391 2477 730 
Q 2766 1069 2766 1631 
L 2766 1759 
L 2194 1759 
z
M 3341 1997 
L 3341 0 
L 2766 0 
L 2766 531 
Q 2569 213 2275 61 
Q 1981 -91 1556 -91 
Q 1019 -91 701 211 
Q 384 513 384 1019 
Q 384 1609 779 1909 
Q 1175 2209 1959 2209 
L 2766 2209 
L 2766 2266 
Q 2766 2663 2505 2880 
Q 2244 3097 1772 3097 
Q 1472 3097 1187 3025 
Q 903 2953 641 2809 
L 641 3341 
Q 956 3463 1253 3523 
Q 1550 3584 1831 3584 
Q 2591 3584 2966 3190 
Q 3341 2797 3341 1997 
z
" id="DejaVuSans-61" transform="scale(0.015625)"/>
     </defs>
     <use xlink:href="#DejaVuSans-46"/>
     <use x="50.269531" xlink:href="#DejaVuSans-72"/>
     <use x="89.132812" xlink:href="#DejaVuSans-6f"/>
     <use x="150.314453" xlink:href="#DejaVuSans-6e"/>
     <use x="213.693359" xlink:href="#DejaVuSans-74"/>
     <use x="252.902344" xlink:href="#DejaVuSans-20"/>
     <use x="284.689453" xlink:href="#DejaVuSans-50"/>
     <use x="343.242188" xlink:href="#DejaVuSans-72"/>
     <use x="382.105469" xlink:href="#DejaVuSans-6f"/>
     <use x="443.287109" xlink:href="#DejaVuSans-70"/>
     <use x="506.763672" xlink:href="#DejaVuSans-6f"/>
     <use x="567.945312" xlink:href="#DejaVuSans-67"/>
     <use x="631.421875" xlink:href="#DejaVuSans-61"/>
     <use x="692.701172" xlink:href="#DejaVuSans-74"/>
     <use x="731.910156" xlink:href="#DejaVuSans-69"/>
     <use x="759.693359" xlink:href="#DejaVuSans-6f"/>
     <use x="820.875" xlink:href="#DejaVuSans-6e"/>
     <use x="884.253906" xlink:href="#DejaVuSans-20"/>
     <use x="916.041016" xlink:href="#DejaVuSans-53"/>
     <use x="979.517578" xlink:href="#DejaVuSans-70"/>
     <use x="1042.994141" xlink:href="#DejaVuSans-65"/>
     <use x="1104.517578" xlink:href="#DejaVuSans-65"/>
     <use x="1166.041016" xlink:href="#DejaVuSans-64"/>
    </g>
   </g>
   <g id="legend_1">
    <g id="patch_7">
     <path d="M 325.967812 111.175687 
L 508.6 111.175687 
Q 511.4 111.175687 511.4 108.375687 
L 511.4 53 
Q 511.4 50.2 508.6 50.2 
L 325.967812 50.2 
Q 323.167812 50.2 323.167812 53 
L 323.167812 108.375687 
Q 323.167812 111.175687 325.967812 111.175687 
z
" style="fill:#ffffff;opacity:0.8;stroke:#cccccc;stroke-linejoin:miter;"/>
    </g>
    <g id="line2d_16">
     <path d="M 328.767812 61.537812 
L 356.767812 61.537812 
" style="fill:none;stroke:#ff0000;stroke-linecap:square;stroke-width:2;"/>
    </g>
    <g id="line2d_17"/>
    <g id="text_17">
     <!-- Front speed -->
     <g transform="translate(367.967812 66.437812)scale(0.14 -0.14)">
      <use xlink:href="#DejaVuSans-46"/>
      <use x="50.269531" xlink:href="#DejaVuSans-72"/>
      <use x="89.132812" xlink:href="#DejaVuSans-6f"/>
      <use x="150.314453" xlink:href="#DejaVuSans-6e"/>
      <use x="213.693359" xlink:href="#DejaVuSans-74"/>
      <use x="252.902344" xlink:href="#DejaVuSans-20"/>
      <use x="284.689453" xlink:href="#DejaVuSans-73"/>
      <use x="336.789062" xlink:href="#DejaVuSans-70"/>
      <use x="400.265625" xlink:href="#DejaVuSans-65"/>
      <use x="461.789062" xlink:href="#DejaVuSans-65"/>
      <use x="523.3125" xlink:href="#DejaVuSans-64"/>
     </g>
    </g>
    <g id="line2d_18">
     <path d="M 328.767812 91.381437 
L 356.767812 91.381437 
" style="fill:none;stroke:#000000;stroke-dasharray:5.55,2.4;stroke-dashoffset:0;stroke-width:1.5;"/>
    </g>
    <g id="line2d_19"/>
    <g id="text_18">
     <!-- Steady state -->
     <g transform="translate(367.967812 86.987187)scale(0.14 -0.14)">
      <defs>
       <path d="M 2059 -325 
Q 1816 -950 1584 -1140 
Q 1353 -1331 966 -1331 
L 506 -1331 
L 506 -850 
L 844 -850 
Q 1081 -850 1212 -737 
Q 1344 -625 1503 -206 
L 1606 56 
L 191 3500 
L 800 3500 
L 1894 763 
L 2988 3500 
L 3597 3500 
L 2059 -325 
z
" id="DejaVuSans-79" transform="scale(0.015625)"/>
      </defs>
      <use xlink:href="#DejaVuSans-53"/>
      <use x="63.476562" xlink:href="#DejaVuSans-74"/>
      <use x="102.685547" xlink:href="#DejaVuSans-65"/>
      <use x="164.208984" xlink:href="#DejaVuSans-61"/>
      <use x="225.488281" xlink:href="#DejaVuSans-64"/>
      <use x="288.964844" xlink:href="#DejaVuSans-79"/>
      <use x="348.144531" xlink:href="#DejaVuSans-20"/>
      <use x="379.931641" xlink:href="#DejaVuSans-73"/>
      <use x="432.03125" xlink:href="#DejaVuSans-74"/>
      <use x="471.240234" xlink:href="#DejaVuSans-61"/>
      <use x="532.519531" xlink:href="#DejaVuSans-74"/>
      <use x="571.728516" xlink:href="#DejaVuSans-65"/>
     </g>
     <!-- speed = 0.63 mm/s -->
     <g transform="translate(367.967812 102.664125)scale(0.14 -0.14)">
      <defs>
       <path d="M 678 2906 
L 4684 2906 
L 4684 2381 
L 678 2381 
L 678 2906 
z
M 678 1631 
L 4684 1631 
L 4684 1100 
L 678 1100 
L 678 1631 
z
" id="DejaVuSans-3d" transform="scale(0.015625)"/>
       <path d="M 2113 2584 
Q 1688 2584 1439 2293 
Q 1191 2003 1191 1497 
Q 1191 994 1439 701 
Q 1688 409 2113 409 
Q 2538 409 2786 701 
Q 3034 994 3034 1497 
Q 3034 2003 2786 2293 
Q 2538 2584 2113 2584 
z
M 3366 4563 
L 3366 3988 
Q 3128 4100 2886 4159 
Q 2644 4219 2406 4219 
Q 1781 4219 1451 3797 
Q 1122 3375 1075 2522 
Q 1259 2794 1537 2939 
Q 1816 3084 2150 3084 
Q 2853 3084 3261 2657 
Q 3669 2231 3669 1497 
Q 3669 778 3244 343 
Q 2819 -91 2113 -91 
Q 1303 -91 875 529 
Q 447 1150 447 2328 
Q 447 3434 972 4092 
Q 1497 4750 2381 4750 
Q 2619 4750 2861 4703 
Q 3103 4656 3366 4563 
z
" id="DejaVuSans-36" transform="scale(0.015625)"/>
       <path d="M 2597 2516 
Q 3050 2419 3304 2112 
Q 3559 1806 3559 1356 
Q 3559 666 3084 287 
Q 2609 -91 1734 -91 
Q 1441 -91 1130 -33 
Q 819 25 488 141 
L 488 750 
Q 750 597 1062 519 
Q 1375 441 1716 441 
Q 2309 441 2620 675 
Q 2931 909 2931 1356 
Q 2931 1769 2642 2001 
Q 2353 2234 1838 2234 
L 1294 2234 
L 1294 2753 
L 1863 2753 
Q 2328 2753 2575 2939 
Q 2822 3125 2822 3475 
Q 2822 3834 2567 4026 
Q 2313 4219 1838 4219 
Q 1578 4219 1281 4162 
Q 984 4106 628 3988 
L 628 4550 
Q 988 4650 1302 4700 
Q 1616 4750 1894 4750 
Q 2613 4750 3031 4423 
Q 3450 4097 3450 3541 
Q 3450 3153 3228 2886 
Q 3006 2619 2597 2516 
z
" id="DejaVuSans-33" transform="scale(0.015625)"/>
      </defs>
      <use xlink:href="#DejaVuSans-73"/>
      <use x="52.099609" xlink:href="#DejaVuSans-70"/>
      <use x="115.576172" xlink:href="#DejaVuSans-65"/>
      <use x="177.099609" xlink:href="#DejaVuSans-65"/>
      <use x="238.623047" xlink:href="#DejaVuSans-64"/>
      <use x="302.099609" xlink:href="#DejaVuSans-20"/>
      <use x="333.886719" xlink:href="#DejaVuSans-3d"/>
      <use x="417.675781" xlink:href="#DejaVuSans-20"/>
      <use x="449.462891" xlink:href="#DejaVuSans-30"/>
      <use x="513.085938" xlink:href="#DejaVuSans-2e"/>
      <use x="544.873047" xlink:href="#DejaVuSans-36"/>
      <use x="608.496094" xlink:href="#DejaVuSans-33"/>
      <use x="672.119141" xlink:href="#DejaVuSans-20"/>
      <use x="703.90625" xlink:href="#DejaVuSans-6d"/>
      <use x="801.318359" xlink:href="#DejaVuSans-6d"/>
      <use x="898.730469" xlink:href="#DejaVuSans-2f"/>
      <use x="932.421875" xlink:href="#DejaVuSans-73"/>
     </g>
    </g>
   </g>
  </g>
 </g>
 <defs>
  <clipPath id="p972c851f22">
   <rect height="277.2" width="446.4" x="72" y="43.2"/>
  </clipPath>
 </defs>
</svg>
