<?xml version="1.0" encoding="utf-8" standalone="no"?>
<!DOCTYPE svg PUBLIC "-//W3C//DTD SVG 1.1//EN"
  "http://www.w3.org/Graphics/SVG/1.1/DTD/svg11.dtd">
<svg height="360pt" version="1.1" viewBox="0 0 576 360" width="576pt" xmlns="http://www.w3.org/2000/svg" xmlns:xlink="http://www.w3.org/1999/xlink">
 <metadata>
  <rdf:RDF xmlns:cc="http://creativecommons.org/ns#" xmlns:dc="http://purl.org/dc/elements/1.1/" xmlns:rdf="http://www.w3.org/1999/02/22-rdf-syntax-ns#">
   <cc:Work>
    <dc:type rdf:resource="http://purl.org/dc/dcmitype/StillImage"/>
    <dc:date>2022-06-30T14:27:05.143647</dc:date>
    <dc:format>image/svg+xml</dc:format>
    <dc:creator>
     <cc:Agent>
      <dc:title>Matplotlib v3.4.3, https://matplotlib.org/</dc:title>
     </cc:Agent>
    </dc:creator>
   </cc:Work>
  </rdf:RDF>
 </metadata>
 <defs>
  <style type="text/css">*{stroke-linecap:butt;stroke-linejoin:round;}</style>
 </defs>
 <g id="figure_1">
  <g id="patch_1">
   <path d="M 0 360 
L 576 360 
L 576 0 
L 0 0 
z
" style="fill:#ffffff;"/>
  </g>
  <g id="axes_1">
   <g id="patch_2">
    <path d="M 72 320.4 
L 518.4 320.4 
L 518.4 43.2 
L 72 43.2 
z
" style="fill:#ffffff;"/>
   </g>
   <g id="PolyCollection_1">
    <defs>
     <path d="M 72 -128.025716 
L 72 -137.727034 
L 73.014545 -137.727034 
L 74.029091 -137.727034 
L 75.043636 -137.727034 
L 76.058182 -137.727034 
L 77.072727 -137.727034 
L 78.087273 -137.727034 
L 79.101818 -137.727034 
L 80.116364 -137.727034 
L 81.130909 -137.727034 
L 82.145455 -137.727034 
L 83.16 -137.727034 
L 84.174545 -137.727034 
L 85.189091 -137.727034 
L 86.203636 -137.727034 
L 87.218182 -137.727034 
L 88.232727 -137.727034 
L 89.247273 -137.727034 
L 90.261818 -137.727034 
L 91.276364 -137.727034 
L 92.290909 -137.727034 
L 93.305455 -137.727034 
L 94.32 -137.727034 
L 95.334545 -137.727034 
L 96.349091 -137.727034 
L 97.363636 -137.727034 
L 98.378182 -137.727034 
L 99.392727 -137.727034 
L 100.407273 -137.727034 
L 101.421818 -137.727034 
L 102.436364 -137.727034 
L 103.450909 -137.727034 
L 104.465455 -137.727034 
L 105.48 -137.727034 
L 106.494545 -137.727034 
L 107.509091 -137.727034 
L 108.523636 -137.727034 
L 109.538182 -137.727034 
L 110.552727 -137.727034 
L 111.567273 -137.727034 
L 112.581818 -137.727034 
L 113.596364 -137.727034 
L 114.610909 -137.727034 
L 115.625455 -137.727034 
L 116.64 -137.727034 
L 117.654545 -137.727034 
L 118.669091 -137.727034 
L 119.683636 -137.727034 
L 120.698182 -137.727034 
L 121.712727 -137.727034 
L 122.727273 -137.727034 
L 123.741818 -137.727034 
L 124.756364 -137.727034 
L 125.770909 -137.727034 
L 126.785455 -137.727034 
L 127.8 -137.727034 
L 128.814545 -137.727034 
L 129.829091 -137.727034 
L 130.843636 -137.727034 
L 131.858182 -137.727034 
L 132.872727 -137.727034 
L 133.887273 -137.727034 
L 134.901818 -137.727034 
L 135.916364 -137.727034 
L 136.930909 -137.727034 
L 137.945455 -137.727034 
L 138.96 -137.727034 
L 139.974545 -137.727034 
L 140.989091 -137.727034 
L 142.003636 -137.727034 
L 143.018182 -137.727034 
L 144.032727 -137.727034 
L 145.047273 -137.727034 
L 146.061818 -137.727034 
L 147.076364 -137.727034 
L 148.090909 -137.727034 
L 149.105455 -137.727034 
L 150.12 -137.727034 
L 151.134545 -137.727034 
L 152.149091 -137.727034 
L 153.163636 -137.727034 
L 154.178182 -137.727034 
L 155.192727 -137.727034 
L 156.207273 -137.727034 
L 157.221818 -137.727034 
L 158.236364 -137.727034 
L 159.250909 -137.727034 
L 160.265455 -137.727034 
L 161.28 -137.727034 
L 162.294545 -137.727034 
L 163.309091 -137.727034 
L 164.323636 -137.727034 
L 165.338182 -137.727034 
L 166.352727 -137.727034 
L 167.367273 -137.727034 
L 168.381818 -137.727034 
L 169.396364 -137.727034 
L 170.410909 -137.727034 
L 171.425455 -137.727034 
L 172.44 -137.727034 
L 173.454545 -137.727034 
L 174.469091 -137.727034 
L 175.483636 -137.727034 
L 176.498182 -137.727034 
L 177.512727 -137.727034 
L 178.527273 -137.727034 
L 179.541818 -137.727034 
L 180.556364 -137.727034 
L 181.570909 -137.727034 
L 182.585455 -137.727034 
L 183.6 -137.727034 
L 184.614545 -137.727034 
L 185.629091 -137.727034 
L 186.643636 -137.727034 
L 187.658182 -137.727034 
L 188.672727 -137.727034 
L 189.687273 -137.727034 
L 190.701818 -137.727034 
L 191.716364 -137.727034 
L 192.730909 -137.727034 
L 193.745455 -137.727034 
L 194.76 -137.727034 
L 195.774545 -137.727034 
L 196.789091 -137.727034 
L 197.803636 -137.727034 
L 198.818182 -137.727034 
L 199.832727 -137.727034 
L 200.847273 -137.727034 
L 201.861818 -137.727034 
L 202.876364 -137.727034 
L 203.890909 -137.727034 
L 204.905455 -137.727034 
L 205.92 -137.727034 
L 206.934545 -137.727034 
L 207.949091 -137.727034 
L 208.963636 -137.727034 
L 209.978182 -137.727034 
L 210.992727 -137.727034 
L 212.007273 -137.727034 
L 213.021818 -137.727034 
L 214.036364 -137.727034 
L 215.050909 -137.727034 
L 216.065455 -137.727034 
L 217.08 -137.727034 
L 218.094545 -137.727034 
L 219.109091 -137.727034 
L 220.123636 -137.727034 
L 221.138182 -137.727034 
L 222.152727 -137.727034 
L 223.167273 -137.727034 
L 224.181818 -137.727034 
L 225.196364 -137.727034 
L 226.210909 -137.727034 
L 227.225455 -137.727034 
L 228.24 -137.727034 
L 229.254545 -137.727034 
L 230.269091 -137.727034 
L 231.283636 -137.727034 
L 232.298182 -137.727034 
L 233.312727 -137.727034 
L 234.327273 -137.727034 
L 235.341818 -137.727034 
L 236.356364 -137.727034 
L 237.370909 -137.727034 
L 238.385455 -137.727034 
L 239.4 -137.727034 
L 240.414545 -137.727034 
L 241.429091 -137.727034 
L 242.443636 -137.727034 
L 243.458182 -137.727034 
L 244.472727 -137.727034 
L 245.487273 -137.727034 
L 246.501818 -137.727034 
L 247.516364 -137.727034 
L 248.530909 -137.727034 
L 249.545455 -137.727034 
L 250.56 -137.727034 
L 251.574545 -137.727034 
L 252.589091 -137.727034 
L 253.603636 -137.727034 
L 254.618182 -137.727034 
L 255.632727 -137.727034 
L 256.647273 -137.727034 
L 257.661818 -137.727034 
L 258.676364 -137.727034 
L 259.690909 -137.727034 
L 260.705455 -137.727034 
L 261.72 -137.727034 
L 262.734545 -137.727034 
L 263.749091 -137.727034 
L 264.763636 -137.727034 
L 265.778182 -137.727034 
L 266.792727 -137.727034 
L 267.807273 -137.727034 
L 268.821818 -137.727034 
L 269.836364 -137.727034 
L 270.850909 -137.727034 
L 271.865455 -137.727034 
L 272.88 -137.727034 
L 273.894545 -137.727034 
L 274.909091 -137.727034 
L 275.923636 -137.727034 
L 276.938182 -137.727034 
L 277.952727 -137.727034 
L 278.967273 -137.727034 
L 279.981818 -137.727034 
L 280.996364 -137.727034 
L 282.010909 -137.727034 
L 283.025455 -137.727034 
L 284.04 -137.727034 
L 285.054545 -137.727034 
L 286.069091 -137.727034 
L 287.083636 -137.727034 
L 288.098182 -137.727034 
L 289.112727 -137.727034 
L 290.127273 -137.727034 
L 291.141818 -137.727034 
L 292.156364 -137.727034 
L 293.170909 -137.727034 
L 294.185455 -137.727034 
L 295.2 -137.727034 
L 296.214545 -137.727034 
L 297.229091 -137.727034 
L 298.243636 -137.727034 
L 299.258182 -137.727034 
L 300.272727 -137.727034 
L 301.287273 -137.727034 
L 302.301818 -137.727034 
L 303.316364 -137.727034 
L 304.330909 -137.727034 
L 305.345455 -137.727034 
L 306.36 -137.727034 
L 307.374545 -137.727034 
L 308.389091 -137.727034 
L 309.403636 -137.727034 
L 310.418182 -137.727034 
L 311.432727 -137.727034 
L 312.447273 -137.727034 
L 313.461818 -137.727034 
L 314.476364 -137.727034 
L 315.490909 -137.727034 
L 316.505455 -137.727034 
L 317.52 -137.727034 
L 318.534545 -137.727034 
L 319.549091 -137.727034 
L 320.563636 -137.727034 
L 321.578182 -137.727034 
L 322.592727 -137.727034 
L 323.607273 -137.727034 
L 324.621818 -137.727034 
L 325.636364 -137.727034 
L 326.650909 -137.727034 
L 327.665455 -137.727034 
L 328.68 -137.727034 
L 329.694545 -137.727034 
L 330.709091 -137.727034 
L 331.723636 -137.727034 
L 332.738182 -137.727034 
L 333.752727 -137.727034 
L 334.767273 -137.727034 
L 335.781818 -137.727034 
L 336.796364 -137.727034 
L 337.810909 -137.727034 
L 338.825455 -137.727034 
L 339.84 -137.727034 
L 340.854545 -137.727034 
L 341.869091 -137.727034 
L 342.883636 -137.727034 
L 343.898182 -137.727034 
L 344.912727 -137.727034 
L 345.927273 -137.727034 
L 346.941818 -137.727034 
L 347.956364 -137.727034 
L 348.970909 -137.727034 
L 349.985455 -137.727034 
L 351 -137.727034 
L 352.014545 -137.727034 
L 353.029091 -137.727034 
L 354.043636 -137.727034 
L 355.058182 -137.727034 
L 356.072727 -137.727034 
L 357.087273 -137.727034 
L 358.101818 -137.727034 
L 359.116364 -137.727034 
L 360.130909 -137.727034 
L 361.145455 -137.727034 
L 362.16 -137.727034 
L 363.174545 -137.727034 
L 364.189091 -137.727034 
L 365.203636 -137.727034 
L 366.218182 -137.727034 
L 367.232727 -137.727034 
L 368.247273 -137.727034 
L 369.261818 -137.727034 
L 370.276364 -137.727034 
L 371.290909 -137.727034 
L 372.305455 -137.727034 
L 373.32 -137.727034 
L 374.334545 -137.727034 
L 375.349091 -137.727034 
L 376.363636 -137.727034 
L 377.378182 -137.727034 
L 378.392727 -137.727034 
L 379.407273 -137.727034 
L 380.421818 -137.727034 
L 381.436364 -137.727034 
L 382.450909 -137.727034 
L 383.465455 -137.727034 
L 384.48 -137.727034 
L 385.494545 -137.727034 
L 386.509091 -137.727034 
L 387.523636 -137.727034 
L 388.538182 -137.727034 
L 389.552727 -137.727034 
L 390.567273 -137.727034 
L 391.581818 -137.727034 
L 392.596364 -137.727034 
L 393.610909 -137.727034 
L 394.625455 -137.727034 
L 395.64 -137.727034 
L 396.654545 -137.727034 
L 397.669091 -137.727034 
L 398.683636 -137.727034 
L 399.698182 -137.727034 
L 400.712727 -137.727034 
L 401.727273 -137.727034 
L 402.741818 -137.727034 
L 403.756364 -137.727034 
L 404.770909 -137.727034 
L 405.785455 -137.727034 
L 406.8 -137.727034 
L 407.814545 -137.727034 
L 408.829091 -137.727034 
L 409.843636 -137.727034 
L 410.858182 -137.727034 
L 411.872727 -137.727034 
L 412.887273 -137.727034 
L 413.901818 -137.727034 
L 414.916364 -137.727034 
L 415.930909 -137.727034 
L 416.945455 -137.727034 
L 417.96 -137.727034 
L 418.974545 -137.727034 
L 419.989091 -137.727034 
L 421.003636 -137.727034 
L 422.018182 -137.727034 
L 423.032727 -137.727034 
L 424.047273 -137.727034 
L 425.061818 -137.727034 
L 426.076364 -137.727034 
L 427.090909 -137.727034 
L 428.105455 -137.727034 
L 429.12 -137.727034 
L 430.134545 -137.727034 
L 431.149091 -137.727034 
L 432.163636 -137.727034 
L 433.178182 -137.727034 
L 434.192727 -137.727034 
L 435.207273 -137.727034 
L 436.221818 -137.727034 
L 437.236364 -137.727034 
L 438.250909 -137.727034 
L 439.265455 -137.727034 
L 440.28 -137.727034 
L 441.294545 -137.727034 
L 442.309091 -137.727034 
L 443.323636 -137.727034 
L 444.338182 -137.727034 
L 445.352727 -137.727034 
L 446.367273 -137.727034 
L 447.381818 -137.727034 
L 448.396364 -137.727034 
L 449.410909 -137.727034 
L 450.425455 -137.727034 
L 451.44 -137.727034 
L 452.454545 -137.727034 
L 453.469091 -137.727034 
L 454.483636 -137.727034 
L 455.498182 -137.727034 
L 456.512727 -137.727034 
L 457.527273 -137.727034 
L 458.541818 -137.727034 
L 459.556364 -137.727034 
L 460.570909 -137.727034 
L 461.585455 -137.727034 
L 462.6 -137.727034 
L 463.614545 -137.727034 
L 464.629091 -137.727034 
L 465.643636 -137.727034 
L 466.658182 -137.727034 
L 467.672727 -137.727034 
L 468.687273 -137.727034 
L 469.701818 -137.727034 
L 470.716364 -137.727034 
L 471.730909 -137.727034 
L 472.745455 -137.727034 
L 473.76 -137.727034 
L 474.774545 -137.727034 
L 475.789091 -137.727034 
L 476.803636 -137.727034 
L 477.818182 -137.727034 
L 478.832727 -137.727034 
L 479.847273 -137.727034 
L 480.861818 -137.727034 
L 481.876364 -137.727034 
L 482.890909 -137.727034 
L 483.905455 -137.727034 
L 484.92 -137.727034 
L 485.934545 -137.727034 
L 486.949091 -137.727034 
L 487.963636 -137.727034 
L 488.978182 -137.727034 
L 489.992727 -137.727034 
L 491.007273 -137.727034 
L 492.021818 -137.727034 
L 493.036364 -137.727034 
L 494.050909 -137.727034 
L 495.065455 -137.727034 
L 496.08 -137.727034 
L 497.094545 -137.727034 
L 498.109091 -137.727034 
L 499.123636 -137.727034 
L 500.138182 -137.727034 
L 501.152727 -137.727034 
L 502.167273 -137.727034 
L 503.181818 -137.727034 
L 504.196364 -137.727034 
L 505.210909 -137.727034 
L 506.225455 -137.727034 
L 507.24 -137.727034 
L 508.254545 -137.727034 
L 509.269091 -137.727034 
L 510.283636 -137.727034 
L 511.298182 -137.727034 
L 512.312727 -137.727034 
L 513.327273 -137.727034 
L 514.341818 -137.727034 
L 515.356364 -137.727034 
L 516.370909 -137.727034 
L 517.385455 -137.727034 
L 518.4 -137.727034 
L 518.4 -128.025716 
L 518.4 -128.025716 
L 517.385455 -128.025716 
L 516.370909 -128.025716 
L 515.356364 -128.025716 
L 514.341818 -128.025716 
L 513.327273 -128.025716 
L 512.312727 -128.025716 
L 511.298182 -128.025716 
L 510.283636 -128.025716 
L 509.269091 -128.025716 
L 508.254545 -128.025716 
L 507.24 -128.025716 
L 506.225455 -128.025716 
L 505.210909 -128.025716 
L 504.196364 -128.025716 
L 503.181818 -128.025716 
L 502.167273 -128.025716 
L 501.152727 -128.025716 
L 500.138182 -128.025716 
L 499.123636 -128.025716 
L 498.109091 -128.025716 
L 497.094545 -128.025716 
L 496.08 -128.025716 
L 495.065455 -128.025716 
L 494.050909 -128.025716 
L 493.036364 -128.025716 
L 492.021818 -128.025716 
L 491.007273 -128.025716 
L 489.992727 -128.025716 
L 488.978182 -128.025716 
L 487.963636 -128.025716 
L 486.949091 -128.025716 
L 485.934545 -128.025716 
L 484.92 -128.025716 
L 483.905455 -128.025716 
L 482.890909 -128.025716 
L 481.876364 -128.025716 
L 480.861818 -128.025716 
L 479.847273 -128.025716 
L 478.832727 -128.025716 
L 477.818182 -128.025716 
L 476.803636 -128.025716 
L 475.789091 -128.025716 
L 474.774545 -128.025716 
L 473.76 -128.025716 
L 472.745455 -128.025716 
L 471.730909 -128.025716 
L 470.716364 -128.025716 
L 469.701818 -128.025716 
L 468.687273 -128.025716 
L 467.672727 -128.025716 
L 466.658182 -128.025716 
L 465.643636 -128.025716 
L 464.629091 -128.025716 
L 463.614545 -128.025716 
L 462.6 -128.025716 
L 461.585455 -128.025716 
L 460.570909 -128.025716 
L 459.556364 -128.025716 
L 458.541818 -128.025716 
L 457.527273 -128.025716 
L 456.512727 -128.025716 
L 455.498182 -128.025716 
L 454.483636 -128.025716 
L 453.469091 -128.025716 
L 452.454545 -128.025716 
L 451.44 -128.025716 
L 450.425455 -128.025716 
L 449.410909 -128.025716 
L 448.396364 -128.025716 
L 447.381818 -128.025716 
L 446.367273 -128.025716 
L 445.352727 -128.025716 
L 444.338182 -128.025716 
L 443.323636 -128.025716 
L 442.309091 -128.025716 
L 441.294545 -128.025716 
L 440.28 -128.025716 
L 439.265455 -128.025716 
L 438.250909 -128.025716 
L 437.236364 -128.025716 
L 436.221818 -128.025716 
L 435.207273 -128.025716 
L 434.192727 -128.025716 
L 433.178182 -128.025716 
L 432.163636 -128.025716 
L 431.149091 -128.025716 
L 430.134545 -128.025716 
L 429.12 -128.025716 
L 428.105455 -128.025716 
L 427.090909 -128.025716 
L 426.076364 -128.025716 
L 425.061818 -128.025716 
L 424.047273 -128.025716 
L 423.032727 -128.025716 
L 422.018182 -128.025716 
L 421.003636 -128.025716 
L 419.989091 -128.025716 
L 418.974545 -128.025716 
L 417.96 -128.025716 
L 416.945455 -128.025716 
L 415.930909 -128.025716 
L 414.916364 -128.025716 
L 413.901818 -128.025716 
L 412.887273 -128.025716 
L 411.872727 -128.025716 
L 410.858182 -128.025716 
L 409.843636 -128.025716 
L 408.829091 -128.025716 
L 407.814545 -128.025716 
L 406.8 -128.025716 
L 405.785455 -128.025716 
L 404.770909 -128.025716 
L 403.756364 -128.025716 
L 402.741818 -128.025716 
L 401.727273 -128.025716 
L 400.712727 -128.025716 
L 399.698182 -128.025716 
L 398.683636 -128.025716 
L 397.669091 -128.025716 
L 396.654545 -128.025716 
L 395.64 -128.025716 
L 394.625455 -128.025716 
L 393.610909 -128.025716 
L 392.596364 -128.025716 
L 391.581818 -128.025716 
L 390.567273 -128.025716 
L 389.552727 -128.025716 
L 388.538182 -128.025716 
L 387.523636 -128.025716 
L 386.509091 -128.025716 
L 385.494545 -128.025716 
L 384.48 -128.025716 
L 383.465455 -128.025716 
L 382.450909 -128.025716 
L 381.436364 -128.025716 
L 380.421818 -128.025716 
L 379.407273 -128.025716 
L 378.392727 -128.025716 
L 377.378182 -128.025716 
L 376.363636 -128.025716 
L 375.349091 -128.025716 
L 374.334545 -128.025716 
L 373.32 -128.025716 
L 372.305455 -128.025716 
L 371.290909 -128.025716 
L 370.276364 -128.025716 
L 369.261818 -128.025716 
L 368.247273 -128.025716 
L 367.232727 -128.025716 
L 366.218182 -128.025716 
L 365.203636 -128.025716 
L 364.189091 -128.025716 
L 363.174545 -128.025716 
L 362.16 -128.025716 
L 361.145455 -128.025716 
L 360.130909 -128.025716 
L 359.116364 -128.025716 
L 358.101818 -128.025716 
L 357.087273 -128.025716 
L 356.072727 -128.025716 
L 355.058182 -128.025716 
L 354.043636 -128.025716 
L 353.029091 -128.025716 
L 352.014545 -128.025716 
L 351 -128.025716 
L 349.985455 -128.025716 
L 348.970909 -128.025716 
L 347.956364 -128.025716 
L 346.941818 -128.025716 
L 345.927273 -128.025716 
L 344.912727 -128.025716 
L 343.898182 -128.025716 
L 342.883636 -128.025716 
L 341.869091 -128.025716 
L 340.854545 -128.025716 
L 339.84 -128.025716 
L 338.825455 -128.025716 
L 337.810909 -128.025716 
L 336.796364 -128.025716 
L 335.781818 -128.025716 
L 334.767273 -128.025716 
L 333.752727 -128.025716 
L 332.738182 -128.025716 
L 331.723636 -128.025716 
L 330.709091 -128.025716 
L 329.694545 -128.025716 
L 328.68 -128.025716 
L 327.665455 -128.025716 
L 326.650909 -128.025716 
L 325.636364 -128.025716 
L 324.621818 -128.025716 
L 323.607273 -128.025716 
L 322.592727 -128.025716 
L 321.578182 -128.025716 
L 320.563636 -128.025716 
L 319.549091 -128.025716 
L 318.534545 -128.025716 
L 317.52 -128.025716 
L 316.505455 -128.025716 
L 315.490909 -128.025716 
L 314.476364 -128.025716 
L 313.461818 -128.025716 
L 312.447273 -128.025716 
L 311.432727 -128.025716 
L 310.418182 -128.025716 
L 309.403636 -128.025716 
L 308.389091 -128.025716 
L 307.374545 -128.025716 
L 306.36 -128.025716 
L 305.345455 -128.025716 
L 304.330909 -128.025716 
L 303.316364 -128.025716 
L 302.301818 -128.025716 
L 301.287273 -128.025716 
L 300.272727 -128.025716 
L 299.258182 -128.025716 
L 298.243636 -128.025716 
L 297.229091 -128.025716 
L 296.214545 -128.025716 
L 295.2 -128.025716 
L 294.185455 -128.025716 
L 293.170909 -128.025716 
L 292.156364 -128.025716 
L 291.141818 -128.025716 
L 290.127273 -128.025716 
L 289.112727 -128.025716 
L 288.098182 -128.025716 
L 287.083636 -128.025716 
L 286.069091 -128.025716 
L 285.054545 -128.025716 
L 284.04 -128.025716 
L 283.025455 -128.025716 
L 282.010909 -128.025716 
L 280.996364 -128.025716 
L 279.981818 -128.025716 
L 278.967273 -128.025716 
L 277.952727 -128.025716 
L 276.938182 -128.025716 
L 275.923636 -128.025716 
L 274.909091 -128.025716 
L 273.894545 -128.025716 
L 272.88 -128.025716 
L 271.865455 -128.025716 
L 270.850909 -128.025716 
L 269.836364 -128.025716 
L 268.821818 -128.025716 
L 267.807273 -128.025716 
L 266.792727 -128.025716 
L 265.778182 -128.025716 
L 264.763636 -128.025716 
L 263.749091 -128.025716 
L 262.734545 -128.025716 
L 261.72 -128.025716 
L 260.705455 -128.025716 
L 259.690909 -128.025716 
L 258.676364 -128.025716 
L 257.661818 -128.025716 
L 256.647273 -128.025716 
L 255.632727 -128.025716 
L 254.618182 -128.025716 
L 253.603636 -128.025716 
L 252.589091 -128.025716 
L 251.574545 -128.025716 
L 250.56 -128.025716 
L 249.545455 -128.025716 
L 248.530909 -128.025716 
L 247.516364 -128.025716 
L 246.501818 -128.025716 
L 245.487273 -128.025716 
L 244.472727 -128.025716 
L 243.458182 -128.025716 
L 242.443636 -128.025716 
L 241.429091 -128.025716 
L 240.414545 -128.025716 
L 239.4 -128.025716 
L 238.385455 -128.025716 
L 237.370909 -128.025716 
L 236.356364 -128.025716 
L 235.341818 -128.025716 
L 234.327273 -128.025716 
L 233.312727 -128.025716 
L 232.298182 -128.025716 
L 231.283636 -128.025716 
L 230.269091 -128.025716 
L 229.254545 -128.025716 
L 228.24 -128.025716 
L 227.225455 -128.025716 
L 226.210909 -128.025716 
L 225.196364 -128.025716 
L 224.181818 -128.025716 
L 223.167273 -128.025716 
L 222.152727 -128.025716 
L 221.138182 -128.025716 
L 220.123636 -128.025716 
L 219.109091 -128.025716 
L 218.094545 -128.025716 
L 217.08 -128.025716 
L 216.065455 -128.025716 
L 215.050909 -128.025716 
L 214.036364 -128.025716 
L 213.021818 -128.025716 
L 212.007273 -128.025716 
L 210.992727 -128.025716 
L 209.978182 -128.025716 
L 208.963636 -128.025716 
L 207.949091 -128.025716 
L 206.934545 -128.025716 
L 205.92 -128.025716 
L 204.905455 -128.025716 
L 203.890909 -128.025716 
L 202.876364 -128.025716 
L 201.861818 -128.025716 
L 200.847273 -128.025716 
L 199.832727 -128.025716 
L 198.818182 -128.025716 
L 197.803636 -128.025716 
L 196.789091 -128.025716 
L 195.774545 -128.025716 
L 194.76 -128.025716 
L 193.745455 -128.025716 
L 192.730909 -128.025716 
L 191.716364 -128.025716 
L 190.701818 -128.025716 
L 189.687273 -128.025716 
L 188.672727 -128.025716 
L 187.658182 -128.025716 
L 186.643636 -128.025716 
L 185.629091 -128.025716 
L 184.614545 -128.025716 
L 183.6 -128.025716 
L 182.585455 -128.025716 
L 181.570909 -128.025716 
L 180.556364 -128.025716 
L 179.541818 -128.025716 
L 178.527273 -128.025716 
L 177.512727 -128.025716 
L 176.498182 -128.025716 
L 175.483636 -128.025716 
L 174.469091 -128.025716 
L 173.454545 -128.025716 
L 172.44 -128.025716 
L 171.425455 -128.025716 
L 170.410909 -128.025716 
L 169.396364 -128.025716 
L 168.381818 -128.025716 
L 167.367273 -128.025716 
L 166.352727 -128.025716 
L 165.338182 -128.025716 
L 164.323636 -128.025716 
L 163.309091 -128.025716 
L 162.294545 -128.025716 
L 161.28 -128.025716 
L 160.265455 -128.025716 
L 159.250909 -128.025716 
L 158.236364 -128.025716 
L 157.221818 -128.025716 
L 156.207273 -128.025716 
L 155.192727 -128.025716 
L 154.178182 -128.025716 
L 153.163636 -128.025716 
L 152.149091 -128.025716 
L 151.134545 -128.025716 
L 150.12 -128.025716 
L 149.105455 -128.025716 
L 148.090909 -128.025716 
L 147.076364 -128.025716 
L 146.061818 -128.025716 
L 145.047273 -128.025716 
L 144.032727 -128.025716 
L 143.018182 -128.025716 
L 142.003636 -128.025716 
L 140.989091 -128.025716 
L 139.974545 -128.025716 
L 138.96 -128.025716 
L 137.945455 -128.025716 
L 136.930909 -128.025716 
L 135.916364 -128.025716 
L 134.901818 -128.025716 
L 133.887273 -128.025716 
L 132.872727 -128.025716 
L 131.858182 -128.025716 
L 130.843636 -128.025716 
L 129.829091 -128.025716 
L 128.814545 -128.025716 
L 127.8 -128.025716 
L 126.785455 -128.025716 
L 125.770909 -128.025716 
L 124.756364 -128.025716 
L 123.741818 -128.025716 
L 122.727273 -128.025716 
L 121.712727 -128.025716 
L 120.698182 -128.025716 
L 119.683636 -128.025716 
L 118.669091 -128.025716 
L 117.654545 -128.025716 
L 116.64 -128.025716 
L 115.625455 -128.025716 
L 114.610909 -128.025716 
L 113.596364 -128.025716 
L 112.581818 -128.025716 
L 111.567273 -128.025716 
L 110.552727 -128.025716 
L 109.538182 -128.025716 
L 108.523636 -128.025716 
L 107.509091 -128.025716 
L 106.494545 -128.025716 
L 105.48 -128.025716 
L 104.465455 -128.025716 
L 103.450909 -128.025716 
L 102.436364 -128.025716 
L 101.421818 -128.025716 
L 100.407273 -128.025716 
L 99.392727 -128.025716 
L 98.378182 -128.025716 
L 97.363636 -128.025716 
L 96.349091 -128.025716 
L 95.334545 -128.025716 
L 94.32 -128.025716 
L 93.305455 -128.025716 
L 92.290909 -128.025716 
L 91.276364 -128.025716 
L 90.261818 -128.025716 
L 89.247273 -128.025716 
L 88.232727 -128.025716 
L 87.218182 -128.025716 
L 86.203636 -128.025716 
L 85.189091 -128.025716 
L 84.174545 -128.025716 
L 83.16 -128.025716 
L 82.145455 -128.025716 
L 81.130909 -128.025716 
L 80.116364 -128.025716 
L 79.101818 -128.025716 
L 78.087273 -128.025716 
L 77.072727 -128.025716 
L 76.058182 -128.025716 
L 75.043636 -128.025716 
L 74.029091 -128.025716 
L 73.014545 -128.025716 
L 72 -128.025716 
z
" id="md08ecf3adb"/>
    </defs>
    <g clip-path="url(#pd57780f11d)">
     <use style="fill-opacity:0.15;" x="0" xlink:href="#md08ecf3adb" y="360"/>
    </g>
   </g>
   <g id="matplotlib.axis_1">
    <g id="xtick_1">
     <g id="line2d_1">
      <defs>
       <path d="M 0 0 
L 0 3.5 
" id="ma1cd6a99eb" style="stroke:#000000;stroke-width:0.8;"/>
      </defs>
      <g>
       <use style="stroke:#000000;stroke-width:0.8;" x="72" xlink:href="#ma1cd6a99eb" y="320.4"/>
      </g>
     </g>
     <g id="text_1">
      <!-- 0.0 -->
      <g transform="translate(60.867812 338.037813)scale(0.14 -0.14)">
       <defs>
        <path d="M 2034 4250 
Q 1547 4250 1301 3770 
Q 1056 3291 1056 2328 
Q 1056 1369 1301 889 
Q 1547 409 2034 409 
Q 2525 409 2770 889 
Q 3016 1369 3016 2328 
Q 3016 3291 2770 3770 
Q 2525 4250 2034 4250 
z
M 2034 4750 
Q 2819 4750 3233 4129 
Q 3647 3509 3647 2328 
Q 3647 1150 3233 529 
Q 2819 -91 2034 -91 
Q 1250 -91 836 529 
Q 422 1150 422 2328 
Q 422 3509 836 4129 
Q 1250 4750 2034 4750 
z
" id="DejaVuSans-30" transform="scale(0.015625)"/>
        <path d="M 684 794 
L 1344 794 
L 1344 0 
L 684 0 
L 684 794 
z
" id="DejaVuSans-2e" transform="scale(0.015625)"/>
       </defs>
       <use xlink:href="#DejaVuSans-30"/>
       <use x="63.623047" xlink:href="#DejaVuSans-2e"/>
       <use x="95.410156" xlink:href="#DejaVuSans-30"/>
      </g>
     </g>
    </g>
    <g id="xtick_2">
     <g id="line2d_2">
      <g>
       <use style="stroke:#000000;stroke-width:0.8;" x="127.951068" xlink:href="#ma1cd6a99eb" y="320.4"/>
      </g>
     </g>
     <g id="text_2">
      <!-- 2.5 -->
      <g transform="translate(116.81888 338.037813)scale(0.14 -0.14)">
       <defs>
        <path d="M 1228 531 
L 3431 531 
L 3431 0 
L 469 0 
L 469 531 
Q 828 903 1448 1529 
Q 2069 2156 2228 2338 
Q 2531 2678 2651 2914 
Q 2772 3150 2772 3378 
Q 2772 3750 2511 3984 
Q 2250 4219 1831 4219 
Q 1534 4219 1204 4116 
Q 875 4013 500 3803 
L 500 4441 
Q 881 4594 1212 4672 
Q 1544 4750 1819 4750 
Q 2544 4750 2975 4387 
Q 3406 4025 3406 3419 
Q 3406 3131 3298 2873 
Q 3191 2616 2906 2266 
Q 2828 2175 2409 1742 
Q 1991 1309 1228 531 
z
" id="DejaVuSans-32" transform="scale(0.015625)"/>
        <path d="M 691 4666 
L 3169 4666 
L 3169 4134 
L 1269 4134 
L 1269 2991 
Q 1406 3038 1543 3061 
Q 1681 3084 1819 3084 
Q 2600 3084 3056 2656 
Q 3513 2228 3513 1497 
Q 3513 744 3044 326 
Q 2575 -91 1722 -91 
Q 1428 -91 1123 -41 
Q 819 9 494 109 
L 494 744 
Q 775 591 1075 516 
Q 1375 441 1709 441 
Q 2250 441 2565 725 
Q 2881 1009 2881 1497 
Q 2881 1984 2565 2268 
Q 2250 2553 1709 2553 
Q 1456 2553 1204 2497 
Q 953 2441 691 2322 
L 691 4666 
z
" id="DejaVuSans-35" transform="scale(0.015625)"/>
       </defs>
       <use xlink:href="#DejaVuSans-32"/>
       <use x="63.623047" xlink:href="#DejaVuSans-2e"/>
       <use x="95.410156" xlink:href="#DejaVuSans-35"/>
      </g>
     </g>
    </g>
    <g id="xtick_3">
     <g id="line2d_3">
      <g>
       <use style="stroke:#000000;stroke-width:0.8;" x="183.902136" xlink:href="#ma1cd6a99eb" y="320.4"/>
      </g>
     </g>
     <g id="text_3">
      <!-- 5.0 -->
      <g transform="translate(172.769948 338.037813)scale(0.14 -0.14)">
       <use xlink:href="#DejaVuSans-35"/>
       <use x="63.623047" xlink:href="#DejaVuSans-2e"/>
       <use x="95.410156" xlink:href="#DejaVuSans-30"/>
      </g>
     </g>
    </g>
    <g id="xtick_4">
     <g id="line2d_4">
      <g>
       <use style="stroke:#000000;stroke-width:0.8;" x="239.853204" xlink:href="#ma1cd6a99eb" y="320.4"/>
      </g>
     </g>
     <g id="text_4">
      <!-- 7.5 -->
      <g transform="translate(228.721016 338.037813)scale(0.14 -0.14)">
       <defs>
        <path d="M 525 4666 
L 3525 4666 
L 3525 4397 
L 1831 0 
L 1172 0 
L 2766 4134 
L 525 4134 
L 525 4666 
z
" id="DejaVuSans-37" transform="scale(0.015625)"/>
       </defs>
       <use xlink:href="#DejaVuSans-37"/>
       <use x="63.623047" xlink:href="#DejaVuSans-2e"/>
       <use x="95.410156" xlink:href="#DejaVuSans-35"/>
      </g>
     </g>
    </g>
    <g id="xtick_5">
     <g id="line2d_5">
      <g>
       <use style="stroke:#000000;stroke-width:0.8;" x="295.804272" xlink:href="#ma1cd6a99eb" y="320.4"/>
      </g>
     </g>
     <g id="text_5">
      <!-- 10.0 -->
      <g transform="translate(280.218334 338.037813)scale(0.14 -0.14)">
       <defs>
        <path d="M 794 531 
L 1825 531 
L 1825 4091 
L 703 3866 
L 703 4441 
L 1819 4666 
L 2450 4666 
L 2450 531 
L 3481 531 
L 3481 0 
L 794 0 
L 794 531 
z
" id="DejaVuSans-31" transform="scale(0.015625)"/>
       </defs>
       <use xlink:href="#DejaVuSans-31"/>
       <use x="63.623047" xlink:href="#DejaVuSans-30"/>
       <use x="127.246094" xlink:href="#DejaVuSans-2e"/>
       <use x="159.033203" xlink:href="#DejaVuSans-30"/>
      </g>
     </g>
    </g>
    <g id="xtick_6">
     <g id="line2d_6">
      <g>
       <use style="stroke:#000000;stroke-width:0.8;" x="351.755339" xlink:href="#ma1cd6a99eb" y="320.4"/>
      </g>
     </g>
     <g id="text_6">
      <!-- 12.5 -->
      <g transform="translate(336.169402 338.037813)scale(0.14 -0.14)">
       <use xlink:href="#DejaVuSans-31"/>
       <use x="63.623047" xlink:href="#DejaVuSans-32"/>
       <use x="127.246094" xlink:href="#DejaVuSans-2e"/>
       <use x="159.033203" xlink:href="#DejaVuSans-35"/>
      </g>
     </g>
    </g>
    <g id="xtick_7">
     <g id="line2d_7">
      <g>
       <use style="stroke:#000000;stroke-width:0.8;" x="407.706407" xlink:href="#ma1cd6a99eb" y="320.4"/>
      </g>
     </g>
     <g id="text_7">
      <!-- 15.0 -->
      <g transform="translate(392.12047 338.037813)scale(0.14 -0.14)">
       <use xlink:href="#DejaVuSans-31"/>
       <use x="63.623047" xlink:href="#DejaVuSans-35"/>
       <use x="127.246094" xlink:href="#DejaVuSans-2e"/>
       <use x="159.033203" xlink:href="#DejaVuSans-30"/>
      </g>
     </g>
    </g>
    <g id="xtick_8">
     <g id="line2d_8">
      <g>
       <use style="stroke:#000000;stroke-width:0.8;" x="463.657475" xlink:href="#ma1cd6a99eb" y="320.4"/>
      </g>
     </g>
     <g id="text_8">
      <!-- 17.5 -->
      <g transform="translate(448.071538 338.037813)scale(0.14 -0.14)">
       <use xlink:href="#DejaVuSans-31"/>
       <use x="63.623047" xlink:href="#DejaVuSans-37"/>
       <use x="127.246094" xlink:href="#DejaVuSans-2e"/>
       <use x="159.033203" xlink:href="#DejaVuSans-35"/>
      </g>
     </g>
    </g>
    <g id="text_9">
     <!-- Time [Seconds] -->
     <g transform="translate(233.23 357.106875)scale(0.16 -0.16)">
      <defs>
       <path d="M -19 4666 
L 3928 4666 
L 3928 4134 
L 2272 4134 
L 2272 0 
L 1638 0 
L 1638 4134 
L -19 4134 
L -19 4666 
z
" id="DejaVuSans-54" transform="scale(0.015625)"/>
       <path d="M 603 3500 
L 1178 3500 
L 1178 0 
L 603 0 
L 603 3500 
z
M 603 4863 
L 1178 4863 
L 1178 4134 
L 603 4134 
L 603 4863 
z
" id="DejaVuSans-69" transform="scale(0.015625)"/>
       <path d="M 3328 2828 
Q 3544 3216 3844 3400 
Q 4144 3584 4550 3584 
Q 5097 3584 5394 3201 
Q 5691 2819 5691 2113 
L 5691 0 
L 5113 0 
L 5113 2094 
Q 5113 2597 4934 2840 
Q 4756 3084 4391 3084 
Q 3944 3084 3684 2787 
Q 3425 2491 3425 1978 
L 3425 0 
L 2847 0 
L 2847 2094 
Q 2847 2600 2669 2842 
Q 2491 3084 2119 3084 
Q 1678 3084 1418 2786 
Q 1159 2488 1159 1978 
L 1159 0 
L 581 0 
L 581 3500 
L 1159 3500 
L 1159 2956 
Q 1356 3278 1631 3431 
Q 1906 3584 2284 3584 
Q 2666 3584 2933 3390 
Q 3200 3197 3328 2828 
z
" id="DejaVuSans-6d" transform="scale(0.015625)"/>
       <path d="M 3597 1894 
L 3597 1613 
L 953 1613 
Q 991 1019 1311 708 
Q 1631 397 2203 397 
Q 2534 397 2845 478 
Q 3156 559 3463 722 
L 3463 178 
Q 3153 47 2828 -22 
Q 2503 -91 2169 -91 
Q 1331 -91 842 396 
Q 353 884 353 1716 
Q 353 2575 817 3079 
Q 1281 3584 2069 3584 
Q 2775 3584 3186 3129 
Q 3597 2675 3597 1894 
z
M 3022 2063 
Q 3016 2534 2758 2815 
Q 2500 3097 2075 3097 
Q 1594 3097 1305 2825 
Q 1016 2553 972 2059 
L 3022 2063 
z
" id="DejaVuSans-65" transform="scale(0.015625)"/>
       <path id="DejaVuSans-20" transform="scale(0.015625)"/>
       <path d="M 550 4863 
L 1875 4863 
L 1875 4416 
L 1125 4416 
L 1125 -397 
L 1875 -397 
L 1875 -844 
L 550 -844 
L 550 4863 
z
" id="DejaVuSans-5b" transform="scale(0.015625)"/>
       <path d="M 3425 4513 
L 3425 3897 
Q 3066 4069 2747 4153 
Q 2428 4238 2131 4238 
Q 1616 4238 1336 4038 
Q 1056 3838 1056 3469 
Q 1056 3159 1242 3001 
Q 1428 2844 1947 2747 
L 2328 2669 
Q 3034 2534 3370 2195 
Q 3706 1856 3706 1288 
Q 3706 609 3251 259 
Q 2797 -91 1919 -91 
Q 1588 -91 1214 -16 
Q 841 59 441 206 
L 441 856 
Q 825 641 1194 531 
Q 1563 422 1919 422 
Q 2459 422 2753 634 
Q 3047 847 3047 1241 
Q 3047 1584 2836 1778 
Q 2625 1972 2144 2069 
L 1759 2144 
Q 1053 2284 737 2584 
Q 422 2884 422 3419 
Q 422 4038 858 4394 
Q 1294 4750 2059 4750 
Q 2388 4750 2728 4690 
Q 3069 4631 3425 4513 
z
" id="DejaVuSans-53" transform="scale(0.015625)"/>
       <path d="M 3122 3366 
L 3122 2828 
Q 2878 2963 2633 3030 
Q 2388 3097 2138 3097 
Q 1578 3097 1268 2742 
Q 959 2388 959 1747 
Q 959 1106 1268 751 
Q 1578 397 2138 397 
Q 2388 397 2633 464 
Q 2878 531 3122 666 
L 3122 134 
Q 2881 22 2623 -34 
Q 2366 -91 2075 -91 
Q 1284 -91 818 406 
Q 353 903 353 1747 
Q 353 2603 823 3093 
Q 1294 3584 2113 3584 
Q 2378 3584 2631 3529 
Q 2884 3475 3122 3366 
z
" id="DejaVuSans-63" transform="scale(0.015625)"/>
       <path d="M 1959 3097 
Q 1497 3097 1228 2736 
Q 959 2375 959 1747 
Q 959 1119 1226 758 
Q 1494 397 1959 397 
Q 2419 397 2687 759 
Q 2956 1122 2956 1747 
Q 2956 2369 2687 2733 
Q 2419 3097 1959 3097 
z
M 1959 3584 
Q 2709 3584 3137 3096 
Q 3566 2609 3566 1747 
Q 3566 888 3137 398 
Q 2709 -91 1959 -91 
Q 1206 -91 779 398 
Q 353 888 353 1747 
Q 353 2609 779 3096 
Q 1206 3584 1959 3584 
z
" id="DejaVuSans-6f" transform="scale(0.015625)"/>
       <path d="M 3513 2113 
L 3513 0 
L 2938 0 
L 2938 2094 
Q 2938 2591 2744 2837 
Q 2550 3084 2163 3084 
Q 1697 3084 1428 2787 
Q 1159 2491 1159 1978 
L 1159 0 
L 581 0 
L 581 3500 
L 1159 3500 
L 1159 2956 
Q 1366 3272 1645 3428 
Q 1925 3584 2291 3584 
Q 2894 3584 3203 3211 
Q 3513 2838 3513 2113 
z
" id="DejaVuSans-6e" transform="scale(0.015625)"/>
       <path d="M 2906 2969 
L 2906 4863 
L 3481 4863 
L 3481 0 
L 2906 0 
L 2906 525 
Q 2725 213 2448 61 
Q 2172 -91 1784 -91 
Q 1150 -91 751 415 
Q 353 922 353 1747 
Q 353 2572 751 3078 
Q 1150 3584 1784 3584 
Q 2172 3584 2448 3432 
Q 2725 3281 2906 2969 
z
M 947 1747 
Q 947 1113 1208 752 
Q 1469 391 1925 391 
Q 2381 391 2643 752 
Q 2906 1113 2906 1747 
Q 2906 2381 2643 2742 
Q 2381 3103 1925 3103 
Q 1469 3103 1208 2742 
Q 947 2381 947 1747 
z
" id="DejaVuSans-64" transform="scale(0.015625)"/>
       <path d="M 2834 3397 
L 2834 2853 
Q 2591 2978 2328 3040 
Q 2066 3103 1784 3103 
Q 1356 3103 1142 2972 
Q 928 2841 928 2578 
Q 928 2378 1081 2264 
Q 1234 2150 1697 2047 
L 1894 2003 
Q 2506 1872 2764 1633 
Q 3022 1394 3022 966 
Q 3022 478 2636 193 
Q 2250 -91 1575 -91 
Q 1294 -91 989 -36 
Q 684 19 347 128 
L 347 722 
Q 666 556 975 473 
Q 1284 391 1588 391 
Q 1994 391 2212 530 
Q 2431 669 2431 922 
Q 2431 1156 2273 1281 
Q 2116 1406 1581 1522 
L 1381 1569 
Q 847 1681 609 1914 
Q 372 2147 372 2553 
Q 372 3047 722 3315 
Q 1072 3584 1716 3584 
Q 2034 3584 2315 3537 
Q 2597 3491 2834 3397 
z
" id="DejaVuSans-73" transform="scale(0.015625)"/>
       <path d="M 1947 4863 
L 1947 -844 
L 622 -844 
L 622 -397 
L 1369 -397 
L 1369 4416 
L 622 4416 
L 622 4863 
L 1947 4863 
z
" id="DejaVuSans-5d" transform="scale(0.015625)"/>
      </defs>
      <use xlink:href="#DejaVuSans-54"/>
      <use x="57.958984" xlink:href="#DejaVuSans-69"/>
      <use x="85.742188" xlink:href="#DejaVuSans-6d"/>
      <use x="183.154297" xlink:href="#DejaVuSans-65"/>
      <use x="244.677734" xlink:href="#DejaVuSans-20"/>
      <use x="276.464844" xlink:href="#DejaVuSans-5b"/>
      <use x="315.478516" xlink:href="#DejaVuSans-53"/>
      <use x="378.955078" xlink:href="#DejaVuSans-65"/>
      <use x="440.478516" xlink:href="#DejaVuSans-63"/>
      <use x="495.458984" xlink:href="#DejaVuSans-6f"/>
      <use x="556.640625" xlink:href="#DejaVuSans-6e"/>
      <use x="620.019531" xlink:href="#DejaVuSans-64"/>
      <use x="683.496094" xlink:href="#DejaVuSans-73"/>
      <use x="735.595703" xlink:href="#DejaVuSans-5d"/>
     </g>
    </g>
   </g>
   <g id="matplotlib.axis_2">
    <g id="ytick_1">
     <g id="line2d_9">
      <defs>
       <path d="M 0 0 
L -3.5 0 
" id="m56b20007b4" style="stroke:#000000;stroke-width:0.8;"/>
      </defs>
      <g>
       <use style="stroke:#000000;stroke-width:0.8;" x="72" xlink:href="#m56b20007b4" y="319.696504"/>
      </g>
     </g>
     <g id="text_10">
      <!-- −0.25 -->
      <g transform="translate(22.096562 325.01541)scale(0.14 -0.14)">
       <defs>
        <path d="M 678 2272 
L 4684 2272 
L 4684 1741 
L 678 1741 
L 678 2272 
z
" id="DejaVuSans-2212" transform="scale(0.015625)"/>
       </defs>
       <use xlink:href="#DejaVuSans-2212"/>
       <use x="83.789062" xlink:href="#DejaVuSans-30"/>
       <use x="147.412109" xlink:href="#DejaVuSans-2e"/>
       <use x="179.199219" xlink:href="#DejaVuSans-32"/>
       <use x="242.822266" xlink:href="#DejaVuSans-35"/>
      </g>
     </g>
    </g>
    <g id="ytick_2">
     <g id="line2d_10">
      <g>
       <use style="stroke:#000000;stroke-width:0.8;" x="72" xlink:href="#m56b20007b4" y="287.674595"/>
      </g>
     </g>
     <g id="text_11">
      <!-- 0.00 -->
      <g transform="translate(33.828125 292.993501)scale(0.14 -0.14)">
       <use xlink:href="#DejaVuSans-30"/>
       <use x="63.623047" xlink:href="#DejaVuSans-2e"/>
       <use x="95.410156" xlink:href="#DejaVuSans-30"/>
       <use x="159.033203" xlink:href="#DejaVuSans-30"/>
      </g>
     </g>
    </g>
    <g id="ytick_3">
     <g id="line2d_11">
      <g>
       <use style="stroke:#000000;stroke-width:0.8;" x="72" xlink:href="#m56b20007b4" y="255.652686"/>
      </g>
     </g>
     <g id="text_12">
      <!-- 0.25 -->
      <g transform="translate(33.828125 260.971592)scale(0.14 -0.14)">
       <use xlink:href="#DejaVuSans-30"/>
       <use x="63.623047" xlink:href="#DejaVuSans-2e"/>
       <use x="95.410156" xlink:href="#DejaVuSans-32"/>
       <use x="159.033203" xlink:href="#DejaVuSans-35"/>
      </g>
     </g>
    </g>
    <g id="ytick_4">
     <g id="line2d_12">
      <g>
       <use style="stroke:#000000;stroke-width:0.8;" x="72" xlink:href="#m56b20007b4" y="223.630777"/>
      </g>
     </g>
     <g id="text_13">
      <!-- 0.50 -->
      <g transform="translate(33.828125 228.949683)scale(0.14 -0.14)">
       <use xlink:href="#DejaVuSans-30"/>
       <use x="63.623047" xlink:href="#DejaVuSans-2e"/>
       <use x="95.410156" xlink:href="#DejaVuSans-35"/>
       <use x="159.033203" xlink:href="#DejaVuSans-30"/>
      </g>
     </g>
    </g>
    <g id="ytick_5">
     <g id="line2d_13">
      <g>
       <use style="stroke:#000000;stroke-width:0.8;" x="72" xlink:href="#m56b20007b4" y="191.608868"/>
      </g>
     </g>
     <g id="text_14">
      <!-- 0.75 -->
      <g transform="translate(33.828125 196.927774)scale(0.14 -0.14)">
       <use xlink:href="#DejaVuSans-30"/>
       <use x="63.623047" xlink:href="#DejaVuSans-2e"/>
       <use x="95.410156" xlink:href="#DejaVuSans-37"/>
       <use x="159.033203" xlink:href="#DejaVuSans-35"/>
      </g>
     </g>
    </g>
    <g id="ytick_6">
     <g id="line2d_14">
      <g>
       <use style="stroke:#000000;stroke-width:0.8;" x="72" xlink:href="#m56b20007b4" y="159.586959"/>
      </g>
     </g>
     <g id="text_15">
      <!-- 1.00 -->
      <g transform="translate(33.828125 164.905865)scale(0.14 -0.14)">
       <use xlink:href="#DejaVuSans-31"/>
       <use x="63.623047" xlink:href="#DejaVuSans-2e"/>
       <use x="95.410156" xlink:href="#DejaVuSans-30"/>
       <use x="159.033203" xlink:href="#DejaVuSans-30"/>
      </g>
     </g>
    </g>
    <g id="ytick_7">
     <g id="line2d_15">
      <g>
       <use style="stroke:#000000;stroke-width:0.8;" x="72" xlink:href="#m56b20007b4" y="127.565049"/>
      </g>
     </g>
     <g id="text_16">
      <!-- 1.25 -->
      <g transform="translate(33.828125 132.883956)scale(0.14 -0.14)">
       <use xlink:href="#DejaVuSans-31"/>
       <use x="63.623047" xlink:href="#DejaVuSans-2e"/>
       <use x="95.410156" xlink:href="#DejaVuSans-32"/>
       <use x="159.033203" xlink:href="#DejaVuSans-35"/>
      </g>
     </g>
    </g>
    <g id="ytick_8">
     <g id="line2d_16">
      <g>
       <use style="stroke:#000000;stroke-width:0.8;" x="72" xlink:href="#m56b20007b4" y="95.54314"/>
      </g>
     </g>
     <g id="text_17">
      <!-- 1.50 -->
      <g transform="translate(33.828125 100.862047)scale(0.14 -0.14)">
       <use xlink:href="#DejaVuSans-31"/>
       <use x="63.623047" xlink:href="#DejaVuSans-2e"/>
       <use x="95.410156" xlink:href="#DejaVuSans-35"/>
       <use x="159.033203" xlink:href="#DejaVuSans-30"/>
      </g>
     </g>
    </g>
    <g id="ytick_9">
     <g id="line2d_17">
      <g>
       <use style="stroke:#000000;stroke-width:0.8;" x="72" xlink:href="#m56b20007b4" y="63.521231"/>
      </g>
     </g>
     <g id="text_18">
      <!-- 1.75 -->
      <g transform="translate(33.828125 68.840137)scale(0.14 -0.14)">
       <use xlink:href="#DejaVuSans-31"/>
       <use x="63.623047" xlink:href="#DejaVuSans-2e"/>
       <use x="95.410156" xlink:href="#DejaVuSans-37"/>
       <use x="159.033203" xlink:href="#DejaVuSans-35"/>
      </g>
     </g>
    </g>
    <g id="text_19">
     <!-- Speed [mm/s] -->
     <g transform="translate(14.769062 238.11375)rotate(-90)scale(0.16 -0.16)">
      <defs>
       <path d="M 1159 525 
L 1159 -1331 
L 581 -1331 
L 581 3500 
L 1159 3500 
L 1159 2969 
Q 1341 3281 1617 3432 
Q 1894 3584 2278 3584 
Q 2916 3584 3314 3078 
Q 3713 2572 3713 1747 
Q 3713 922 3314 415 
Q 2916 -91 2278 -91 
Q 1894 -91 1617 61 
Q 1341 213 1159 525 
z
M 3116 1747 
Q 3116 2381 2855 2742 
Q 2594 3103 2138 3103 
Q 1681 3103 1420 2742 
Q 1159 2381 1159 1747 
Q 1159 1113 1420 752 
Q 1681 391 2138 391 
Q 2594 391 2855 752 
Q 3116 1113 3116 1747 
z
" id="DejaVuSans-70" transform="scale(0.015625)"/>
       <path d="M 1625 4666 
L 2156 4666 
L 531 -594 
L 0 -594 
L 1625 4666 
z
" id="DejaVuSans-2f" transform="scale(0.015625)"/>
      </defs>
      <use xlink:href="#DejaVuSans-53"/>
      <use x="63.476562" xlink:href="#DejaVuSans-70"/>
      <use x="126.953125" xlink:href="#DejaVuSans-65"/>
      <use x="188.476562" xlink:href="#DejaVuSans-65"/>
      <use x="250" xlink:href="#DejaVuSans-64"/>
      <use x="313.476562" xlink:href="#DejaVuSans-20"/>
      <use x="345.263672" xlink:href="#DejaVuSans-5b"/>
      <use x="384.277344" xlink:href="#DejaVuSans-6d"/>
      <use x="481.689453" xlink:href="#DejaVuSans-6d"/>
      <use x="579.101562" xlink:href="#DejaVuSans-2f"/>
      <use x="612.792969" xlink:href="#DejaVuSans-73"/>
      <use x="664.892578" xlink:href="#DejaVuSans-5d"/>
     </g>
    </g>
   </g>
   <g id="line2d_18">
    <path clip-path="url(#pd57780f11d)" d="M 72 227.123625 
L 518.4 227.123625 
" style="fill:none;stroke:#000000;stroke-dasharray:5.55,2.4;stroke-dashoffset:0;stroke-width:1.5;"/>
   </g>
   <g id="line2d_19">
    <path clip-path="url(#pd57780f11d)" d="M 72 285.619713 
L 142.003636 285.566034 
L 143.018182 285.835117 
L 144.032727 284.873153 
L 145.047273 283.030928 
L 146.061818 284.535003 
L 147.076364 288.134194 
L 148.090909 287.983461 
L 149.105455 289.974306 
L 150.12 275.465098 
L 151.134545 279.58799 
L 152.149091 307.8 
L 153.163636 307.217648 
L 154.178182 286.35996 
L 155.192727 253.39926 
L 156.207273 213.085332 
L 158.236364 125.580595 
L 159.250909 92.555108 
L 160.265455 67.229593 
L 161.28 55.8 
L 162.294545 58.204208 
L 163.309091 71.919813 
L 164.323636 95.299332 
L 166.352727 154.432293 
L 167.367273 186.580925 
L 168.381818 212.44583 
L 169.396364 223.214018 
L 170.410909 220.946146 
L 171.425455 192.075324 
L 172.44 185.582172 
L 173.454545 204.538197 
L 174.469091 204.622733 
L 175.483636 207.57195 
L 176.498182 209.661711 
L 177.512727 211.291839 
L 178.527273 212.501221 
L 179.541818 212.617748 
L 180.556364 214.824005 
L 181.570909 213.975616 
L 182.585455 214.979344 
L 183.6 217.885695 
L 184.614545 218.378103 
L 185.629091 219.711175 
L 186.643636 220.750583 
L 187.658182 221.269409 
L 188.672727 221.076038 
L 189.687273 221.51534 
L 190.701818 219.954387 
L 191.716364 219.386624 
L 192.730909 219.882326 
L 193.745455 219.790479 
L 195.774545 221.74767 
L 196.789091 223.283772 
L 197.803636 220.319803 
L 198.818182 221.538882 
L 199.832727 225.550391 
L 200.847273 224.886526 
L 201.861818 225.228607 
L 202.876364 226.028801 
L 203.890909 230.584743 
L 204.905455 230.407772 
L 205.92 228.117191 
L 206.934545 230.106444 
L 207.949091 229.658453 
L 208.963636 228.75317 
L 209.978182 227.196708 
L 210.992727 226.52724 
L 212.007273 223.145352 
L 213.021818 220.365885 
L 214.036364 220.295812 
L 216.065455 221.842128 
L 217.08 221.619463 
L 218.094545 223.153413 
L 219.109091 224.366438 
L 220.123636 227.49624 
L 221.138182 229.516365 
L 222.152727 229.175732 
L 223.167273 227.483445 
L 224.181818 227.941378 
L 225.196364 230.906979 
L 226.210909 227.687339 
L 227.225455 225.64684 
L 228.24 226.577289 
L 229.254545 225.69847 
L 231.283636 225.027373 
L 232.298182 225.130596 
L 233.312727 225.471677 
L 234.327273 226.201593 
L 235.341818 227.460948 
L 236.356364 229.546093 
L 237.370909 229.220499 
L 238.385455 227.569944 
L 240.414545 226.189616 
L 241.429091 224.772682 
L 242.443636 226.976371 
L 243.458182 230.307236 
L 244.472727 228.955052 
L 245.487273 231.100218 
L 246.501818 233.7769 
L 247.516364 231.511434 
L 248.530909 231.894085 
L 249.545455 234.265139 
L 250.56 233.966434 
L 251.574545 232.663136 
L 252.589091 230.330031 
L 253.603636 228.761594 
L 254.618182 226.815697 
L 255.632727 221.201355 
L 256.647273 219.308015 
L 258.676364 224.149505 
L 259.690909 227.970036 
L 260.705455 227.450946 
L 261.72 225.67443 
L 262.734545 223.3249 
L 263.749091 226.426159 
L 264.763636 231.890385 
L 265.778182 230.954877 
L 266.792727 234.334884 
L 267.807273 234.382794 
L 268.821818 227.688464 
L 269.836364 225.825862 
L 270.850909 226.807186 
L 271.865455 225.226237 
L 272.88 227.100552 
L 273.894545 230.100034 
L 274.909091 230.207685 
L 275.923636 231.718912 
L 276.938182 229.348022 
L 277.952727 228.114073 
L 278.967273 230.168675 
L 279.981818 230.924606 
L 280.996364 232.366092 
L 282.010909 232.439842 
L 283.025455 230.829345 
L 284.04 227.283458 
L 285.054545 224.535003 
L 286.069091 225.999713 
L 287.083636 229.010425 
L 288.098182 231.47424 
L 289.112727 231.679521 
L 290.127273 230.646823 
L 291.141818 226.851563 
L 292.156364 223.754521 
L 293.170909 222.715068 
L 294.185455 224.818998 
L 295.2 224.70369 
L 296.214545 221.366813 
L 297.229091 223.829982 
L 298.243636 224.100315 
L 299.258182 223.877644 
L 300.272727 228.154901 
L 301.287273 231.047324 
L 302.301818 229.830744 
L 303.316364 231.05884 
L 304.330909 234.665042 
L 305.345455 235.167964 
L 306.36 229.003326 
L 307.374545 228.551601 
L 308.389091 230.536604 
L 309.403636 229.031733 
L 310.418182 228.631677 
L 311.432727 228.526821 
L 312.447273 226.055338 
L 313.461818 225.707727 
L 314.476364 228.382939 
L 315.490909 228.101017 
L 316.505455 227.367581 
L 317.52 230.069681 
L 318.534545 232.161001 
L 319.549091 227.264792 
L 320.563636 227.381745 
L 321.578182 230.320219 
L 322.592727 229.990863 
L 323.607273 225.63038 
L 324.621818 225.938817 
L 325.636364 230.220722 
L 327.665455 227.590426 
L 328.68 230.049459 
L 329.694545 227.781625 
L 330.709091 227.256648 
L 332.738182 227.203138 
L 333.752727 228.359397 
L 334.767273 229.849379 
L 335.781818 229.197822 
L 336.796364 224.847236 
L 337.810909 227.067825 
L 338.825455 228.600796 
L 340.854545 224.1757 
L 341.869091 228.218772 
L 342.883636 230.184788 
L 343.898182 226.197819 
L 344.912727 225.189894 
L 345.927273 228.522361 
L 346.941818 228.4632 
L 347.956364 226.679383 
L 348.970909 229.759924 
L 349.985455 230.922713 
L 351 228.622156 
L 352.014545 229.66533 
L 353.029091 229.697642 
L 355.058182 233.527191 
L 356.072727 231.20024 
L 357.087273 229.903334 
L 358.101818 230.812606 
L 359.116364 233.187426 
L 360.130909 230.699288 
L 361.145455 226.744618 
L 362.16 225.029365 
L 363.174545 225.451985 
L 364.189091 224.31235 
L 365.203636 220.197933 
L 366.218182 222.407173 
L 367.232727 224.33019 
L 368.247273 224.853899 
L 369.261818 230.545875 
L 370.276364 231.891456 
L 372.305455 233.558855 
L 373.32 229.983394 
L 374.334545 229.953899 
L 375.349091 231.972039 
L 376.363636 230.353281 
L 377.378182 224.266087 
L 378.392727 225.123937 
L 379.407273 226.995091 
L 380.421818 226.064792 
L 381.436364 230.568988 
L 382.450909 231.300884 
L 383.465455 229.785827 
L 384.48 229.848611 
L 385.494545 229.389031 
L 386.509091 228.437427 
L 387.523636 227.764481 
L 388.538182 225.533251 
L 389.552727 224.29946 
L 390.567273 228.257255 
L 391.581818 230.983934 
L 392.596364 232.797345 
L 393.610909 233.664692 
L 394.625455 230.238844 
L 395.64 231.422768 
L 396.654545 230.839456 
L 397.669091 223.920706 
L 398.683636 220.913115 
L 399.698182 222.94579 
L 400.712727 220.843907 
L 401.727273 221.102963 
L 402.741818 224.69582 
L 403.756364 226.558726 
L 404.770909 230.558191 
L 405.785455 233.34152 
L 406.8 235.225477 
L 407.814545 235.985302 
L 408.829091 233.732371 
L 409.843636 230.038591 
L 410.858182 225.419852 
L 411.872727 223.783302 
L 412.887273 224.869851 
L 413.901818 223.833114 
L 414.916364 224.36896 
L 416.945455 233.572374 
L 417.96 231.964371 
L 418.974545 228.924656 
L 419.989091 233.896387 
L 421.003636 234.782665 
L 422.018182 230.660478 
L 423.032727 230.710666 
L 424.047273 225.65131 
L 425.061818 221.54785 
L 426.076364 222.547919 
L 427.090909 223.046491 
L 429.12 227.116048 
L 430.134545 227.299457 
L 431.149091 227.277063 
L 432.163636 229.04808 
L 433.178182 226.953003 
L 434.192727 225.218609 
L 435.207273 225.882258 
L 436.221818 227.254041 
L 437.236364 231.116991 
L 438.250909 228.794623 
L 439.265455 224.8572 
L 440.28 228.080592 
L 441.294545 232.398822 
L 442.309091 230.436401 
L 443.323636 228.105709 
L 444.338182 231.12137 
L 445.352727 230.826322 
L 446.367273 228.83569 
L 447.381818 228.091391 
L 448.396364 228.898524 
L 449.410909 232.782528 
L 450.425455 233.499516 
L 451.44 230.282709 
L 452.454545 230.89124 
L 453.469091 232.825395 
L 454.483636 228.168589 
L 455.498182 224.165537 
L 456.512727 226.905529 
L 457.527273 231.080885 
L 459.556364 225.106531 
L 460.570909 226.554939 
L 461.585455 227.731388 
L 462.6 229.764559 
L 463.614545 230.592515 
L 464.629091 229.915064 
L 465.643636 231.173083 
L 466.658182 229.496598 
L 467.672727 224.595838 
L 468.687273 220.657694 
L 469.701818 223.783944 
L 470.716364 227.278939 
L 471.730909 226.775384 
L 472.745455 228.005391 
L 473.76 229.94824 
L 474.774545 230.519172 
L 475.789091 227.042743 
L 476.803636 226.615466 
L 477.818182 231.696126 
L 478.832727 231.284033 
L 479.847273 227.650593 
L 480.861818 231.056162 
L 481.876364 231.476329 
L 482.890909 228.994551 
L 483.905455 228.29138 
L 484.92 225.733035 
L 485.934545 225.522859 
L 486.949091 228.657651 
L 487.963636 229.069476 
L 488.978182 226.654523 
L 489.992727 226.005995 
L 491.007273 227.978155 
L 492.021818 226.322312 
L 493.036364 225.597873 
L 494.050909 229.835963 
L 495.065455 230.063119 
L 496.08 225.250511 
L 497.094545 223.355484 
L 498.109091 227.411654 
L 499.123636 228.101469 
L 500.138182 224.54767 
L 501.152727 223.863954 
L 502.167273 227.778377 
L 503.181818 233.74181 
L 504.196364 236.836983 
L 505.210909 235.379285 
L 506.225455 230.662844 
L 507.24 228.536136 
L 508.254545 228.707646 
L 509.269091 229.483803 
L 512.312727 233.173078 
L 513.327273 233.518047 
L 514.341818 232.446508 
L 515.356364 229.191038 
L 516.370909 222.86225 
L 517.385455 212.448787 
L 518.4 196.817325 
L 518.4 196.817325 
" style="fill:none;stroke:#ff0000;stroke-linecap:square;stroke-width:2;"/>
   </g>
   <g id="patch_3">
    <path d="M 72 320.4 
L 72 43.2 
" style="fill:none;stroke:#000000;stroke-linecap:square;stroke-linejoin:miter;stroke-width:0.8;"/>
   </g>
   <g id="patch_4">
    <path d="M 518.4 320.4 
L 518.4 43.2 
" style="fill:none;stroke:#000000;stroke-linecap:square;stroke-linejoin:miter;stroke-width:0.8;"/>
   </g>
   <g id="patch_5">
    <path d="M 72 320.4 
L 518.4 320.4 
" style="fill:none;stroke:#000000;stroke-linecap:square;stroke-linejoin:miter;stroke-width:0.8;"/>
   </g>
   <g id="patch_6">
    <path d="M 72 43.2 
L 518.4 43.2 
" style="fill:none;stroke:#000000;stroke-linecap:square;stroke-linejoin:miter;stroke-width:0.8;"/>
   </g>
   <g id="text_20">
    <!-- Front Propogation Speed -->
    <g transform="translate(172.245312 37.2)scale(0.2 -0.2)">
     <defs>
      <path d="M 628 4666 
L 3309 4666 
L 3309 4134 
L 1259 4134 
L 1259 2759 
L 3109 2759 
L 3109 2228 
L 1259 2228 
L 1259 0 
L 628 0 
L 628 4666 
z
" id="DejaVuSans-46" transform="scale(0.015625)"/>
      <path d="M 2631 2963 
Q 2534 3019 2420 3045 
Q 2306 3072 2169 3072 
Q 1681 3072 1420 2755 
Q 1159 2438 1159 1844 
L 1159 0 
L 581 0 
L 581 3500 
L 1159 3500 
L 1159 2956 
Q 1341 3275 1631 3429 
Q 1922 3584 2338 3584 
Q 2397 3584 2469 3576 
Q 2541 3569 2628 3553 
L 2631 2963 
z
" id="DejaVuSans-72" transform="scale(0.015625)"/>
      <path d="M 1172 4494 
L 1172 3500 
L 2356 3500 
L 2356 3053 
L 1172 3053 
L 1172 1153 
Q 1172 725 1289 603 
Q 1406 481 1766 481 
L 2356 481 
L 2356 0 
L 1766 0 
Q 1100 0 847 248 
Q 594 497 594 1153 
L 594 3053 
L 172 3053 
L 172 3500 
L 594 3500 
L 594 4494 
L 1172 4494 
z
" id="DejaVuSans-74" transform="scale(0.015625)"/>
      <path d="M 1259 4147 
L 1259 2394 
L 2053 2394 
Q 2494 2394 2734 2622 
Q 2975 2850 2975 3272 
Q 2975 3691 2734 3919 
Q 2494 4147 2053 4147 
L 1259 4147 
z
M 628 4666 
L 2053 4666 
Q 2838 4666 3239 4311 
Q 3641 3956 3641 3272 
Q 3641 2581 3239 2228 
Q 2838 1875 2053 1875 
L 1259 1875 
L 1259 0 
L 628 0 
L 628 4666 
z
" id="DejaVuSans-50" transform="scale(0.015625)"/>
      <path d="M 2906 1791 
Q 2906 2416 2648 2759 
Q 2391 3103 1925 3103 
Q 1463 3103 1205 2759 
Q 947 2416 947 1791 
Q 947 1169 1205 825 
Q 1463 481 1925 481 
Q 2391 481 2648 825 
Q 2906 1169 2906 1791 
z
M 3481 434 
Q 3481 -459 3084 -895 
Q 2688 -1331 1869 -1331 
Q 1566 -1331 1297 -1286 
Q 1028 -1241 775 -1147 
L 775 -588 
Q 1028 -725 1275 -790 
Q 1522 -856 1778 -856 
Q 2344 -856 2625 -561 
Q 2906 -266 2906 331 
L 2906 616 
Q 2728 306 2450 153 
Q 2172 0 1784 0 
Q 1141 0 747 490 
Q 353 981 353 1791 
Q 353 2603 747 3093 
Q 1141 3584 1784 3584 
Q 2172 3584 2450 3431 
Q 2728 3278 2906 2969 
L 2906 3500 
L 3481 3500 
L 3481 434 
z
" id="DejaVuSans-67" transform="scale(0.015625)"/>
      <path d="M 2194 1759 
Q 1497 1759 1228 1600 
Q 959 1441 959 1056 
Q 959 750 1161 570 
Q 1363 391 1709 391 
Q 2188 391 2477 730 
Q 2766 1069 2766 1631 
L 2766 1759 
L 2194 1759 
z
M 3341 1997 
L 3341 0 
L 2766 0 
L 2766 531 
Q 2569 213 2275 61 
Q 1981 -91 1556 -91 
Q 1019 -91 701 211 
Q 384 513 384 1019 
Q 384 1609 779 1909 
Q 1175 2209 1959 2209 
L 2766 2209 
L 2766 2266 
Q 2766 2663 2505 2880 
Q 2244 3097 1772 3097 
Q 1472 3097 1187 3025 
Q 903 2953 641 2809 
L 641 3341 
Q 956 3463 1253 3523 
Q 1550 3584 1831 3584 
Q 2591 3584 2966 3190 
Q 3341 2797 3341 1997 
z
" id="DejaVuSans-61" transform="scale(0.015625)"/>
     </defs>
     <use xlink:href="#DejaVuSans-46"/>
     <use x="50.269531" xlink:href="#DejaVuSans-72"/>
     <use x="89.132812" xlink:href="#DejaVuSans-6f"/>
     <use x="150.314453" xlink:href="#DejaVuSans-6e"/>
     <use x="213.693359" xlink:href="#DejaVuSans-74"/>
     <use x="252.902344" xlink:href="#DejaVuSans-20"/>
     <use x="284.689453" xlink:href="#DejaVuSans-50"/>
     <use x="343.242188" xlink:href="#DejaVuSans-72"/>
     <use x="382.105469" xlink:href="#DejaVuSans-6f"/>
     <use x="443.287109" xlink:href="#DejaVuSans-70"/>
     <use x="506.763672" xlink:href="#DejaVuSans-6f"/>
     <use x="567.945312" xlink:href="#DejaVuSans-67"/>
     <use x="631.421875" xlink:href="#DejaVuSans-61"/>
     <use x="692.701172" xlink:href="#DejaVuSans-74"/>
     <use x="731.910156" xlink:href="#DejaVuSans-69"/>
     <use x="759.693359" xlink:href="#DejaVuSans-6f"/>
     <use x="820.875" xlink:href="#DejaVuSans-6e"/>
     <use x="884.253906" xlink:href="#DejaVuSans-20"/>
     <use x="916.041016" xlink:href="#DejaVuSans-53"/>
     <use x="979.517578" xlink:href="#DejaVuSans-70"/>
     <use x="1042.994141" xlink:href="#DejaVuSans-65"/>
     <use x="1104.517578" xlink:href="#DejaVuSans-65"/>
     <use x="1166.041016" xlink:href="#DejaVuSans-64"/>
    </g>
   </g>
   <g id="legend_1">
    <g id="patch_7">
     <path d="M 325.967812 111.175687 
L 508.6 111.175687 
Q 511.4 111.175687 511.4 108.375687 
L 511.4 53 
Q 511.4 50.2 508.6 50.2 
L 325.967812 50.2 
Q 323.167812 50.2 323.167812 53 
L 323.167812 108.375687 
Q 323.167812 111.175687 325.967812 111.175687 
z
" style="fill:#ffffff;opacity:0.8;stroke:#cccccc;stroke-linejoin:miter;"/>
    </g>
    <g id="line2d_20">
     <path d="M 328.767812 61.537812 
L 356.767812 61.537812 
" style="fill:none;stroke:#ff0000;stroke-linecap:square;stroke-width:2;"/>
    </g>
    <g id="line2d_21"/>
    <g id="text_21">
     <!-- Front speed -->
     <g transform="translate(367.967812 66.437812)scale(0.14 -0.14)">
      <use xlink:href="#DejaVuSans-46"/>
      <use x="50.269531" xlink:href="#DejaVuSans-72"/>
      <use x="89.132812" xlink:href="#DejaVuSans-6f"/>
      <use x="150.314453" xlink:href="#DejaVuSans-6e"/>
      <use x="213.693359" xlink:href="#DejaVuSans-74"/>
      <use x="252.902344" xlink:href="#DejaVuSans-20"/>
      <use x="284.689453" xlink:href="#DejaVuSans-73"/>
      <use x="336.789062" xlink:href="#DejaVuSans-70"/>
      <use x="400.265625" xlink:href="#DejaVuSans-65"/>
      <use x="461.789062" xlink:href="#DejaVuSans-65"/>
      <use x="523.3125" xlink:href="#DejaVuSans-64"/>
     </g>
    </g>
    <g id="line2d_22">
     <path d="M 328.767812 91.381437 
L 356.767812 91.381437 
" style="fill:none;stroke:#000000;stroke-dasharray:5.55,2.4;stroke-dashoffset:0;stroke-width:1.5;"/>
    </g>
    <g id="line2d_23"/>
    <g id="text_22">
     <!-- Steady state -->
     <g transform="translate(367.967812 86.987187)scale(0.14 -0.14)">
      <defs>
       <path d="M 2059 -325 
Q 1816 -950 1584 -1140 
Q 1353 -1331 966 -1331 
L 506 -1331 
L 506 -850 
L 844 -850 
Q 1081 -850 1212 -737 
Q 1344 -625 1503 -206 
L 1606 56 
L 191 3500 
L 800 3500 
L 1894 763 
L 2988 3500 
L 3597 3500 
L 2059 -325 
z
" id="DejaVuSans-79" transform="scale(0.015625)"/>
      </defs>
      <use xlink:href="#DejaVuSans-53"/>
      <use x="63.476562" xlink:href="#DejaVuSans-74"/>
      <use x="102.685547" xlink:href="#DejaVuSans-65"/>
      <use x="164.208984" xlink:href="#DejaVuSans-61"/>
      <use x="225.488281" xlink:href="#DejaVuSans-64"/>
      <use x="288.964844" xlink:href="#DejaVuSans-79"/>
      <use x="348.144531" xlink:href="#DejaVuSans-20"/>
      <use x="379.931641" xlink:href="#DejaVuSans-73"/>
      <use x="432.03125" xlink:href="#DejaVuSans-74"/>
      <use x="471.240234" xlink:href="#DejaVuSans-61"/>
      <use x="532.519531" xlink:href="#DejaVuSans-74"/>
      <use x="571.728516" xlink:href="#DejaVuSans-65"/>
     </g>
     <!-- speed = 0.47 mm/s -->
     <g transform="translate(367.967812 102.664125)scale(0.14 -0.14)">
      <defs>
       <path d="M 678 2906 
L 4684 2906 
L 4684 2381 
L 678 2381 
L 678 2906 
z
M 678 1631 
L 4684 1631 
L 4684 1100 
L 678 1100 
L 678 1631 
z
" id="DejaVuSans-3d" transform="scale(0.015625)"/>
       <path d="M 2419 4116 
L 825 1625 
L 2419 1625 
L 2419 4116 
z
M 2253 4666 
L 3047 4666 
L 3047 1625 
L 3713 1625 
L 3713 1100 
L 3047 1100 
L 3047 0 
L 2419 0 
L 2419 1100 
L 313 1100 
L 313 1709 
L 2253 4666 
z
" id="DejaVuSans-34" transform="scale(0.015625)"/>
      </defs>
      <use xlink:href="#DejaVuSans-73"/>
      <use x="52.099609" xlink:href="#DejaVuSans-70"/>
      <use x="115.576172" xlink:href="#DejaVuSans-65"/>
      <use x="177.099609" xlink:href="#DejaVuSans-65"/>
      <use x="238.623047" xlink:href="#DejaVuSans-64"/>
      <use x="302.099609" xlink:href="#DejaVuSans-20"/>
      <use x="333.886719" xlink:href="#DejaVuSans-3d"/>
      <use x="417.675781" xlink:href="#DejaVuSans-20"/>
      <use x="449.462891" xlink:href="#DejaVuSans-30"/>
      <use x="513.085938" xlink:href="#DejaVuSans-2e"/>
      <use x="544.873047" xlink:href="#DejaVuSans-34"/>
      <use x="608.496094" xlink:href="#DejaVuSans-37"/>
      <use x="672.119141" xlink:href="#DejaVuSans-20"/>
      <use x="703.90625" xlink:href="#DejaVuSans-6d"/>
      <use x="801.318359" xlink:href="#DejaVuSans-6d"/>
      <use x="898.730469" xlink:href="#DejaVuSans-2f"/>
      <use x="932.421875" xlink:href="#DejaVuSans-73"/>
     </g>
    </g>
   </g>
  </g>
 </g>
 <defs>
  <clipPath id="pd57780f11d">
   <rect height="277.2" width="446.4" x="72" y="43.2"/>
  </clipPath>
 </defs>
</svg>
