<?xml version="1.0" encoding="utf-8" standalone="no"?>
<!DOCTYPE svg PUBLIC "-//W3C//DTD SVG 1.1//EN"
  "http://www.w3.org/Graphics/SVG/1.1/DTD/svg11.dtd">
<svg height="360pt" version="1.1" viewBox="0 0 576 360" width="576pt" xmlns="http://www.w3.org/2000/svg" xmlns:xlink="http://www.w3.org/1999/xlink">
 <metadata>
  <rdf:RDF xmlns:cc="http://creativecommons.org/ns#" xmlns:dc="http://purl.org/dc/elements/1.1/" xmlns:rdf="http://www.w3.org/1999/02/22-rdf-syntax-ns#">
   <cc:Work>
    <dc:type rdf:resource="http://purl.org/dc/dcmitype/StillImage"/>
    <dc:date>2022-06-30T14:27:08.772964</dc:date>
    <dc:format>image/svg+xml</dc:format>
    <dc:creator>
     <cc:Agent>
      <dc:title>Matplotlib v3.4.3, https://matplotlib.org/</dc:title>
     </cc:Agent>
    </dc:creator>
   </cc:Work>
  </rdf:RDF>
 </metadata>
 <defs>
  <style type="text/css">*{stroke-linecap:butt;stroke-linejoin:round;}</style>
 </defs>
 <g id="figure_1">
  <g id="patch_1">
   <path d="M 0 360 
L 576 360 
L 576 0 
L 0 0 
z
" style="fill:#ffffff;"/>
  </g>
  <g id="axes_1">
   <g id="patch_2">
    <path d="M 72 320.4 
L 518.4 320.4 
L 518.4 43.2 
L 72 43.2 
z
" style="fill:#ffffff;"/>
   </g>
   <g id="PolyCollection_1">
    <defs>
     <path d="M 72 -140.544639 
L 72 -147.270109 
L 72.909165 -147.270109 
L 73.81833 -147.270109 
L 74.727495 -147.270109 
L 75.63666 -147.270109 
L 76.545825 -147.270109 
L 77.45499 -147.270109 
L 78.364155 -147.270109 
L 79.27332 -147.270109 
L 80.182485 -147.270109 
L 81.09165 -147.270109 
L 82.000815 -147.270109 
L 82.90998 -147.270109 
L 83.819145 -147.270109 
L 84.72831 -147.270109 
L 85.637475 -147.270109 
L 86.54664 -147.270109 
L 87.455804 -147.270109 
L 88.364969 -147.270109 
L 89.274134 -147.270109 
L 90.183299 -147.270109 
L 91.092464 -147.270109 
L 92.001629 -147.270109 
L 92.910794 -147.270109 
L 93.819959 -147.270109 
L 94.729124 -147.270109 
L 95.638289 -147.270109 
L 96.547454 -147.270109 
L 97.456619 -147.270109 
L 98.365784 -147.270109 
L 99.274949 -147.270109 
L 100.184114 -147.270109 
L 101.093279 -147.270109 
L 102.002444 -147.270109 
L 102.911609 -147.270109 
L 103.820774 -147.270109 
L 104.729939 -147.270109 
L 105.639104 -147.270109 
L 106.548269 -147.270109 
L 107.457434 -147.270109 
L 108.366599 -147.270109 
L 109.275764 -147.270109 
L 110.184929 -147.270109 
L 111.094094 -147.270109 
L 112.003259 -147.270109 
L 112.912424 -147.270109 
L 113.821589 -147.270109 
L 114.730754 -147.270109 
L 115.639919 -147.270109 
L 116.549084 -147.270109 
L 117.458248 -147.270109 
L 118.367413 -147.270109 
L 119.276578 -147.270109 
L 120.185743 -147.270109 
L 121.094908 -147.270109 
L 122.004073 -147.270109 
L 122.913238 -147.270109 
L 123.822403 -147.270109 
L 124.731568 -147.270109 
L 125.640733 -147.270109 
L 126.549898 -147.270109 
L 127.459063 -147.270109 
L 128.368228 -147.270109 
L 129.277393 -147.270109 
L 130.186558 -147.270109 
L 131.095723 -147.270109 
L 132.004888 -147.270109 
L 132.914053 -147.270109 
L 133.823218 -147.270109 
L 134.732383 -147.270109 
L 135.641548 -147.270109 
L 136.550713 -147.270109 
L 137.459878 -147.270109 
L 138.369043 -147.270109 
L 139.278208 -147.270109 
L 140.187373 -147.270109 
L 141.096538 -147.270109 
L 142.005703 -147.270109 
L 142.914868 -147.270109 
L 143.824033 -147.270109 
L 144.733198 -147.270109 
L 145.642363 -147.270109 
L 146.551527 -147.270109 
L 147.460692 -147.270109 
L 148.369857 -147.270109 
L 149.279022 -147.270109 
L 150.188187 -147.270109 
L 151.097352 -147.270109 
L 152.006517 -147.270109 
L 152.915682 -147.270109 
L 153.824847 -147.270109 
L 154.734012 -147.270109 
L 155.643177 -147.270109 
L 156.552342 -147.270109 
L 157.461507 -147.270109 
L 158.370672 -147.270109 
L 159.279837 -147.270109 
L 160.189002 -147.270109 
L 161.098167 -147.270109 
L 162.007332 -147.270109 
L 162.916497 -147.270109 
L 163.825662 -147.270109 
L 164.734827 -147.270109 
L 165.643992 -147.270109 
L 166.553157 -147.270109 
L 167.462322 -147.270109 
L 168.371487 -147.270109 
L 169.280652 -147.270109 
L 170.189817 -147.270109 
L 171.098982 -147.270109 
L 172.008147 -147.270109 
L 172.917312 -147.270109 
L 173.826477 -147.270109 
L 174.735642 -147.270109 
L 175.644807 -147.270109 
L 176.553971 -147.270109 
L 177.463136 -147.270109 
L 178.372301 -147.270109 
L 179.281466 -147.270109 
L 180.190631 -147.270109 
L 181.099796 -147.270109 
L 182.008961 -147.270109 
L 182.918126 -147.270109 
L 183.827291 -147.270109 
L 184.736456 -147.270109 
L 185.645621 -147.270109 
L 186.554786 -147.270109 
L 187.463951 -147.270109 
L 188.373116 -147.270109 
L 189.282281 -147.270109 
L 190.191446 -147.270109 
L 191.100611 -147.270109 
L 192.009776 -147.270109 
L 192.918941 -147.270109 
L 193.828106 -147.270109 
L 194.737271 -147.270109 
L 195.646436 -147.270109 
L 196.555601 -147.270109 
L 197.464766 -147.270109 
L 198.373931 -147.270109 
L 199.283096 -147.270109 
L 200.192261 -147.270109 
L 201.101426 -147.270109 
L 202.010591 -147.270109 
L 202.919756 -147.270109 
L 203.828921 -147.270109 
L 204.738086 -147.270109 
L 205.647251 -147.270109 
L 206.556415 -147.270109 
L 207.46558 -147.270109 
L 208.374745 -147.270109 
L 209.28391 -147.270109 
L 210.193075 -147.270109 
L 211.10224 -147.270109 
L 212.011405 -147.270109 
L 212.92057 -147.270109 
L 213.829735 -147.270109 
L 214.7389 -147.270109 
L 215.648065 -147.270109 
L 216.55723 -147.270109 
L 217.466395 -147.270109 
L 218.37556 -147.270109 
L 219.284725 -147.270109 
L 220.19389 -147.270109 
L 221.103055 -147.270109 
L 222.01222 -147.270109 
L 222.921385 -147.270109 
L 223.83055 -147.270109 
L 224.739715 -147.270109 
L 225.64888 -147.270109 
L 226.558045 -147.270109 
L 227.46721 -147.270109 
L 228.376375 -147.270109 
L 229.28554 -147.270109 
L 230.194705 -147.270109 
L 231.10387 -147.270109 
L 232.013035 -147.270109 
L 232.9222 -147.270109 
L 233.831365 -147.270109 
L 234.74053 -147.270109 
L 235.649695 -147.270109 
L 236.558859 -147.270109 
L 237.468024 -147.270109 
L 238.377189 -147.270109 
L 239.286354 -147.270109 
L 240.195519 -147.270109 
L 241.104684 -147.270109 
L 242.013849 -147.270109 
L 242.923014 -147.270109 
L 243.832179 -147.270109 
L 244.741344 -147.270109 
L 245.650509 -147.270109 
L 246.559674 -147.270109 
L 247.468839 -147.270109 
L 248.378004 -147.270109 
L 249.287169 -147.270109 
L 250.196334 -147.270109 
L 251.105499 -147.270109 
L 252.014664 -147.270109 
L 252.923829 -147.270109 
L 253.832994 -147.270109 
L 254.742159 -147.270109 
L 255.651324 -147.270109 
L 256.560489 -147.270109 
L 257.469654 -147.270109 
L 258.378819 -147.270109 
L 259.287984 -147.270109 
L 260.197149 -147.270109 
L 261.106314 -147.270109 
L 262.015479 -147.270109 
L 262.924644 -147.270109 
L 263.833809 -147.270109 
L 264.742974 -147.270109 
L 265.652138 -147.270109 
L 266.561303 -147.270109 
L 267.470468 -147.270109 
L 268.379633 -147.270109 
L 269.288798 -147.270109 
L 270.197963 -147.270109 
L 271.107128 -147.270109 
L 272.016293 -147.270109 
L 272.925458 -147.270109 
L 273.834623 -147.270109 
L 274.743788 -147.270109 
L 275.652953 -147.270109 
L 276.562118 -147.270109 
L 277.471283 -147.270109 
L 278.380448 -147.270109 
L 279.289613 -147.270109 
L 280.198778 -147.270109 
L 281.107943 -147.270109 
L 282.017108 -147.270109 
L 282.926273 -147.270109 
L 283.835438 -147.270109 
L 284.744603 -147.270109 
L 285.653768 -147.270109 
L 286.562933 -147.270109 
L 287.472098 -147.270109 
L 288.381263 -147.270109 
L 289.290428 -147.270109 
L 290.199593 -147.270109 
L 291.108758 -147.270109 
L 292.017923 -147.270109 
L 292.927088 -147.270109 
L 293.836253 -147.270109 
L 294.745418 -147.270109 
L 295.654582 -147.270109 
L 296.563747 -147.270109 
L 297.472912 -147.270109 
L 298.382077 -147.270109 
L 299.291242 -147.270109 
L 300.200407 -147.270109 
L 301.109572 -147.270109 
L 302.018737 -147.270109 
L 302.927902 -147.270109 
L 303.837067 -147.270109 
L 304.746232 -147.270109 
L 305.655397 -147.270109 
L 306.564562 -147.270109 
L 307.473727 -147.270109 
L 308.382892 -147.270109 
L 309.292057 -147.270109 
L 310.201222 -147.270109 
L 311.110387 -147.270109 
L 312.019552 -147.270109 
L 312.928717 -147.270109 
L 313.837882 -147.270109 
L 314.747047 -147.270109 
L 315.656212 -147.270109 
L 316.565377 -147.270109 
L 317.474542 -147.270109 
L 318.383707 -147.270109 
L 319.292872 -147.270109 
L 320.202037 -147.270109 
L 321.111202 -147.270109 
L 322.020367 -147.270109 
L 322.929532 -147.270109 
L 323.838697 -147.270109 
L 324.747862 -147.270109 
L 325.657026 -147.270109 
L 326.566191 -147.270109 
L 327.475356 -147.270109 
L 328.384521 -147.270109 
L 329.293686 -147.270109 
L 330.202851 -147.270109 
L 331.112016 -147.270109 
L 332.021181 -147.270109 
L 332.930346 -147.270109 
L 333.839511 -147.270109 
L 334.748676 -147.270109 
L 335.657841 -147.270109 
L 336.567006 -147.270109 
L 337.476171 -147.270109 
L 338.385336 -147.270109 
L 339.294501 -147.270109 
L 340.203666 -147.270109 
L 341.112831 -147.270109 
L 342.021996 -147.270109 
L 342.931161 -147.270109 
L 343.840326 -147.270109 
L 344.749491 -147.270109 
L 345.658656 -147.270109 
L 346.567821 -147.270109 
L 347.476986 -147.270109 
L 348.386151 -147.270109 
L 349.295316 -147.270109 
L 350.204481 -147.270109 
L 351.113646 -147.270109 
L 352.022811 -147.270109 
L 352.931976 -147.270109 
L 353.841141 -147.270109 
L 354.750305 -147.270109 
L 355.65947 -147.270109 
L 356.568635 -147.270109 
L 357.4778 -147.270109 
L 358.386965 -147.270109 
L 359.29613 -147.270109 
L 360.205295 -147.270109 
L 361.11446 -147.270109 
L 362.023625 -147.270109 
L 362.93279 -147.270109 
L 363.841955 -147.270109 
L 364.75112 -147.270109 
L 365.660285 -147.270109 
L 366.56945 -147.270109 
L 367.478615 -147.270109 
L 368.38778 -147.270109 
L 369.296945 -147.270109 
L 370.20611 -147.270109 
L 371.115275 -147.270109 
L 372.02444 -147.270109 
L 372.933605 -147.270109 
L 373.84277 -147.270109 
L 374.751935 -147.270109 
L 375.6611 -147.270109 
L 376.570265 -147.270109 
L 377.47943 -147.270109 
L 378.388595 -147.270109 
L 379.29776 -147.270109 
L 380.206925 -147.270109 
L 381.11609 -147.270109 
L 382.025255 -147.270109 
L 382.93442 -147.270109 
L 383.843585 -147.270109 
L 384.752749 -147.270109 
L 385.661914 -147.270109 
L 386.571079 -147.270109 
L 387.480244 -147.270109 
L 388.389409 -147.270109 
L 389.298574 -147.270109 
L 390.207739 -147.270109 
L 391.116904 -147.270109 
L 392.026069 -147.270109 
L 392.935234 -147.270109 
L 393.844399 -147.270109 
L 394.753564 -147.270109 
L 395.662729 -147.270109 
L 396.571894 -147.270109 
L 397.481059 -147.270109 
L 398.390224 -147.270109 
L 399.299389 -147.270109 
L 400.208554 -147.270109 
L 401.117719 -147.270109 
L 402.026884 -147.270109 
L 402.936049 -147.270109 
L 403.845214 -147.270109 
L 404.754379 -147.270109 
L 405.663544 -147.270109 
L 406.572709 -147.270109 
L 407.481874 -147.270109 
L 408.391039 -147.270109 
L 409.300204 -147.270109 
L 410.209369 -147.270109 
L 411.118534 -147.270109 
L 412.027699 -147.270109 
L 412.936864 -147.270109 
L 413.846029 -147.270109 
L 414.755193 -147.270109 
L 415.664358 -147.270109 
L 416.573523 -147.270109 
L 417.482688 -147.270109 
L 418.391853 -147.270109 
L 419.301018 -147.270109 
L 420.210183 -147.270109 
L 421.119348 -147.270109 
L 422.028513 -147.270109 
L 422.937678 -147.270109 
L 423.846843 -147.270109 
L 424.756008 -147.270109 
L 425.665173 -147.270109 
L 426.574338 -147.270109 
L 427.483503 -147.270109 
L 428.392668 -147.270109 
L 429.301833 -147.270109 
L 430.210998 -147.270109 
L 431.120163 -147.270109 
L 432.029328 -147.270109 
L 432.938493 -147.270109 
L 433.847658 -147.270109 
L 434.756823 -147.270109 
L 435.665988 -147.270109 
L 436.575153 -147.270109 
L 437.484318 -147.270109 
L 438.393483 -147.270109 
L 439.302648 -147.270109 
L 440.211813 -147.270109 
L 441.120978 -147.270109 
L 442.030143 -147.270109 
L 442.939308 -147.270109 
L 443.848473 -147.270109 
L 444.757637 -147.270109 
L 445.666802 -147.270109 
L 446.575967 -147.270109 
L 447.485132 -147.270109 
L 448.394297 -147.270109 
L 449.303462 -147.270109 
L 450.212627 -147.270109 
L 451.121792 -147.270109 
L 452.030957 -147.270109 
L 452.940122 -147.270109 
L 453.849287 -147.270109 
L 454.758452 -147.270109 
L 455.667617 -147.270109 
L 456.576782 -147.270109 
L 457.485947 -147.270109 
L 458.395112 -147.270109 
L 459.304277 -147.270109 
L 460.213442 -147.270109 
L 461.122607 -147.270109 
L 462.031772 -147.270109 
L 462.940937 -147.270109 
L 463.850102 -147.270109 
L 464.759267 -147.270109 
L 465.668432 -147.270109 
L 466.577597 -147.270109 
L 467.486762 -147.270109 
L 468.395927 -147.270109 
L 469.305092 -147.270109 
L 470.214257 -147.270109 
L 471.123422 -147.270109 
L 472.032587 -147.270109 
L 472.941752 -147.270109 
L 473.850916 -147.270109 
L 474.760081 -147.270109 
L 475.669246 -147.270109 
L 476.578411 -147.270109 
L 477.487576 -147.270109 
L 478.396741 -147.270109 
L 479.305906 -147.270109 
L 480.215071 -147.270109 
L 481.124236 -147.270109 
L 482.033401 -147.270109 
L 482.942566 -147.270109 
L 483.851731 -147.270109 
L 484.760896 -147.270109 
L 485.670061 -147.270109 
L 486.579226 -147.270109 
L 487.488391 -147.270109 
L 488.397556 -147.270109 
L 489.306721 -147.270109 
L 490.215886 -147.270109 
L 491.125051 -147.270109 
L 492.034216 -147.270109 
L 492.943381 -147.270109 
L 493.852546 -147.270109 
L 494.761711 -147.270109 
L 495.670876 -147.270109 
L 496.580041 -147.270109 
L 497.489206 -147.270109 
L 498.398371 -147.270109 
L 499.307536 -147.270109 
L 500.216701 -147.270109 
L 501.125866 -147.270109 
L 502.035031 -147.270109 
L 502.944196 -147.270109 
L 503.85336 -147.270109 
L 504.762525 -147.270109 
L 505.67169 -147.270109 
L 506.580855 -147.270109 
L 507.49002 -147.270109 
L 508.399185 -147.270109 
L 509.30835 -147.270109 
L 510.217515 -147.270109 
L 511.12668 -147.270109 
L 512.035845 -147.270109 
L 512.94501 -147.270109 
L 513.854175 -147.270109 
L 514.76334 -147.270109 
L 515.672505 -147.270109 
L 516.58167 -147.270109 
L 517.490835 -147.270109 
L 518.4 -147.270109 
L 518.4 -140.544639 
L 518.4 -140.544639 
L 517.490835 -140.544639 
L 516.58167 -140.544639 
L 515.672505 -140.544639 
L 514.76334 -140.544639 
L 513.854175 -140.544639 
L 512.94501 -140.544639 
L 512.035845 -140.544639 
L 511.12668 -140.544639 
L 510.217515 -140.544639 
L 509.30835 -140.544639 
L 508.399185 -140.544639 
L 507.49002 -140.544639 
L 506.580855 -140.544639 
L 505.67169 -140.544639 
L 504.762525 -140.544639 
L 503.85336 -140.544639 
L 502.944196 -140.544639 
L 502.035031 -140.544639 
L 501.125866 -140.544639 
L 500.216701 -140.544639 
L 499.307536 -140.544639 
L 498.398371 -140.544639 
L 497.489206 -140.544639 
L 496.580041 -140.544639 
L 495.670876 -140.544639 
L 494.761711 -140.544639 
L 493.852546 -140.544639 
L 492.943381 -140.544639 
L 492.034216 -140.544639 
L 491.125051 -140.544639 
L 490.215886 -140.544639 
L 489.306721 -140.544639 
L 488.397556 -140.544639 
L 487.488391 -140.544639 
L 486.579226 -140.544639 
L 485.670061 -140.544639 
L 484.760896 -140.544639 
L 483.851731 -140.544639 
L 482.942566 -140.544639 
L 482.033401 -140.544639 
L 481.124236 -140.544639 
L 480.215071 -140.544639 
L 479.305906 -140.544639 
L 478.396741 -140.544639 
L 477.487576 -140.544639 
L 476.578411 -140.544639 
L 475.669246 -140.544639 
L 474.760081 -140.544639 
L 473.850916 -140.544639 
L 472.941752 -140.544639 
L 472.032587 -140.544639 
L 471.123422 -140.544639 
L 470.214257 -140.544639 
L 469.305092 -140.544639 
L 468.395927 -140.544639 
L 467.486762 -140.544639 
L 466.577597 -140.544639 
L 465.668432 -140.544639 
L 464.759267 -140.544639 
L 463.850102 -140.544639 
L 462.940937 -140.544639 
L 462.031772 -140.544639 
L 461.122607 -140.544639 
L 460.213442 -140.544639 
L 459.304277 -140.544639 
L 458.395112 -140.544639 
L 457.485947 -140.544639 
L 456.576782 -140.544639 
L 455.667617 -140.544639 
L 454.758452 -140.544639 
L 453.849287 -140.544639 
L 452.940122 -140.544639 
L 452.030957 -140.544639 
L 451.121792 -140.544639 
L 450.212627 -140.544639 
L 449.303462 -140.544639 
L 448.394297 -140.544639 
L 447.485132 -140.544639 
L 446.575967 -140.544639 
L 445.666802 -140.544639 
L 444.757637 -140.544639 
L 443.848473 -140.544639 
L 442.939308 -140.544639 
L 442.030143 -140.544639 
L 441.120978 -140.544639 
L 440.211813 -140.544639 
L 439.302648 -140.544639 
L 438.393483 -140.544639 
L 437.484318 -140.544639 
L 436.575153 -140.544639 
L 435.665988 -140.544639 
L 434.756823 -140.544639 
L 433.847658 -140.544639 
L 432.938493 -140.544639 
L 432.029328 -140.544639 
L 431.120163 -140.544639 
L 430.210998 -140.544639 
L 429.301833 -140.544639 
L 428.392668 -140.544639 
L 427.483503 -140.544639 
L 426.574338 -140.544639 
L 425.665173 -140.544639 
L 424.756008 -140.544639 
L 423.846843 -140.544639 
L 422.937678 -140.544639 
L 422.028513 -140.544639 
L 421.119348 -140.544639 
L 420.210183 -140.544639 
L 419.301018 -140.544639 
L 418.391853 -140.544639 
L 417.482688 -140.544639 
L 416.573523 -140.544639 
L 415.664358 -140.544639 
L 414.755193 -140.544639 
L 413.846029 -140.544639 
L 412.936864 -140.544639 
L 412.027699 -140.544639 
L 411.118534 -140.544639 
L 410.209369 -140.544639 
L 409.300204 -140.544639 
L 408.391039 -140.544639 
L 407.481874 -140.544639 
L 406.572709 -140.544639 
L 405.663544 -140.544639 
L 404.754379 -140.544639 
L 403.845214 -140.544639 
L 402.936049 -140.544639 
L 402.026884 -140.544639 
L 401.117719 -140.544639 
L 400.208554 -140.544639 
L 399.299389 -140.544639 
L 398.390224 -140.544639 
L 397.481059 -140.544639 
L 396.571894 -140.544639 
L 395.662729 -140.544639 
L 394.753564 -140.544639 
L 393.844399 -140.544639 
L 392.935234 -140.544639 
L 392.026069 -140.544639 
L 391.116904 -140.544639 
L 390.207739 -140.544639 
L 389.298574 -140.544639 
L 388.389409 -140.544639 
L 387.480244 -140.544639 
L 386.571079 -140.544639 
L 385.661914 -140.544639 
L 384.752749 -140.544639 
L 383.843585 -140.544639 
L 382.93442 -140.544639 
L 382.025255 -140.544639 
L 381.11609 -140.544639 
L 380.206925 -140.544639 
L 379.29776 -140.544639 
L 378.388595 -140.544639 
L 377.47943 -140.544639 
L 376.570265 -140.544639 
L 375.6611 -140.544639 
L 374.751935 -140.544639 
L 373.84277 -140.544639 
L 372.933605 -140.544639 
L 372.02444 -140.544639 
L 371.115275 -140.544639 
L 370.20611 -140.544639 
L 369.296945 -140.544639 
L 368.38778 -140.544639 
L 367.478615 -140.544639 
L 366.56945 -140.544639 
L 365.660285 -140.544639 
L 364.75112 -140.544639 
L 363.841955 -140.544639 
L 362.93279 -140.544639 
L 362.023625 -140.544639 
L 361.11446 -140.544639 
L 360.205295 -140.544639 
L 359.29613 -140.544639 
L 358.386965 -140.544639 
L 357.4778 -140.544639 
L 356.568635 -140.544639 
L 355.65947 -140.544639 
L 354.750305 -140.544639 
L 353.841141 -140.544639 
L 352.931976 -140.544639 
L 352.022811 -140.544639 
L 351.113646 -140.544639 
L 350.204481 -140.544639 
L 349.295316 -140.544639 
L 348.386151 -140.544639 
L 347.476986 -140.544639 
L 346.567821 -140.544639 
L 345.658656 -140.544639 
L 344.749491 -140.544639 
L 343.840326 -140.544639 
L 342.931161 -140.544639 
L 342.021996 -140.544639 
L 341.112831 -140.544639 
L 340.203666 -140.544639 
L 339.294501 -140.544639 
L 338.385336 -140.544639 
L 337.476171 -140.544639 
L 336.567006 -140.544639 
L 335.657841 -140.544639 
L 334.748676 -140.544639 
L 333.839511 -140.544639 
L 332.930346 -140.544639 
L 332.021181 -140.544639 
L 331.112016 -140.544639 
L 330.202851 -140.544639 
L 329.293686 -140.544639 
L 328.384521 -140.544639 
L 327.475356 -140.544639 
L 326.566191 -140.544639 
L 325.657026 -140.544639 
L 324.747862 -140.544639 
L 323.838697 -140.544639 
L 322.929532 -140.544639 
L 322.020367 -140.544639 
L 321.111202 -140.544639 
L 320.202037 -140.544639 
L 319.292872 -140.544639 
L 318.383707 -140.544639 
L 317.474542 -140.544639 
L 316.565377 -140.544639 
L 315.656212 -140.544639 
L 314.747047 -140.544639 
L 313.837882 -140.544639 
L 312.928717 -140.544639 
L 312.019552 -140.544639 
L 311.110387 -140.544639 
L 310.201222 -140.544639 
L 309.292057 -140.544639 
L 308.382892 -140.544639 
L 307.473727 -140.544639 
L 306.564562 -140.544639 
L 305.655397 -140.544639 
L 304.746232 -140.544639 
L 303.837067 -140.544639 
L 302.927902 -140.544639 
L 302.018737 -140.544639 
L 301.109572 -140.544639 
L 300.200407 -140.544639 
L 299.291242 -140.544639 
L 298.382077 -140.544639 
L 297.472912 -140.544639 
L 296.563747 -140.544639 
L 295.654582 -140.544639 
L 294.745418 -140.544639 
L 293.836253 -140.544639 
L 292.927088 -140.544639 
L 292.017923 -140.544639 
L 291.108758 -140.544639 
L 290.199593 -140.544639 
L 289.290428 -140.544639 
L 288.381263 -140.544639 
L 287.472098 -140.544639 
L 286.562933 -140.544639 
L 285.653768 -140.544639 
L 284.744603 -140.544639 
L 283.835438 -140.544639 
L 282.926273 -140.544639 
L 282.017108 -140.544639 
L 281.107943 -140.544639 
L 280.198778 -140.544639 
L 279.289613 -140.544639 
L 278.380448 -140.544639 
L 277.471283 -140.544639 
L 276.562118 -140.544639 
L 275.652953 -140.544639 
L 274.743788 -140.544639 
L 273.834623 -140.544639 
L 272.925458 -140.544639 
L 272.016293 -140.544639 
L 271.107128 -140.544639 
L 270.197963 -140.544639 
L 269.288798 -140.544639 
L 268.379633 -140.544639 
L 267.470468 -140.544639 
L 266.561303 -140.544639 
L 265.652138 -140.544639 
L 264.742974 -140.544639 
L 263.833809 -140.544639 
L 262.924644 -140.544639 
L 262.015479 -140.544639 
L 261.106314 -140.544639 
L 260.197149 -140.544639 
L 259.287984 -140.544639 
L 258.378819 -140.544639 
L 257.469654 -140.544639 
L 256.560489 -140.544639 
L 255.651324 -140.544639 
L 254.742159 -140.544639 
L 253.832994 -140.544639 
L 252.923829 -140.544639 
L 252.014664 -140.544639 
L 251.105499 -140.544639 
L 250.196334 -140.544639 
L 249.287169 -140.544639 
L 248.378004 -140.544639 
L 247.468839 -140.544639 
L 246.559674 -140.544639 
L 245.650509 -140.544639 
L 244.741344 -140.544639 
L 243.832179 -140.544639 
L 242.923014 -140.544639 
L 242.013849 -140.544639 
L 241.104684 -140.544639 
L 240.195519 -140.544639 
L 239.286354 -140.544639 
L 238.377189 -140.544639 
L 237.468024 -140.544639 
L 236.558859 -140.544639 
L 235.649695 -140.544639 
L 234.74053 -140.544639 
L 233.831365 -140.544639 
L 232.9222 -140.544639 
L 232.013035 -140.544639 
L 231.10387 -140.544639 
L 230.194705 -140.544639 
L 229.28554 -140.544639 
L 228.376375 -140.544639 
L 227.46721 -140.544639 
L 226.558045 -140.544639 
L 225.64888 -140.544639 
L 224.739715 -140.544639 
L 223.83055 -140.544639 
L 222.921385 -140.544639 
L 222.01222 -140.544639 
L 221.103055 -140.544639 
L 220.19389 -140.544639 
L 219.284725 -140.544639 
L 218.37556 -140.544639 
L 217.466395 -140.544639 
L 216.55723 -140.544639 
L 215.648065 -140.544639 
L 214.7389 -140.544639 
L 213.829735 -140.544639 
L 212.92057 -140.544639 
L 212.011405 -140.544639 
L 211.10224 -140.544639 
L 210.193075 -140.544639 
L 209.28391 -140.544639 
L 208.374745 -140.544639 
L 207.46558 -140.544639 
L 206.556415 -140.544639 
L 205.647251 -140.544639 
L 204.738086 -140.544639 
L 203.828921 -140.544639 
L 202.919756 -140.544639 
L 202.010591 -140.544639 
L 201.101426 -140.544639 
L 200.192261 -140.544639 
L 199.283096 -140.544639 
L 198.373931 -140.544639 
L 197.464766 -140.544639 
L 196.555601 -140.544639 
L 195.646436 -140.544639 
L 194.737271 -140.544639 
L 193.828106 -140.544639 
L 192.918941 -140.544639 
L 192.009776 -140.544639 
L 191.100611 -140.544639 
L 190.191446 -140.544639 
L 189.282281 -140.544639 
L 188.373116 -140.544639 
L 187.463951 -140.544639 
L 186.554786 -140.544639 
L 185.645621 -140.544639 
L 184.736456 -140.544639 
L 183.827291 -140.544639 
L 182.918126 -140.544639 
L 182.008961 -140.544639 
L 181.099796 -140.544639 
L 180.190631 -140.544639 
L 179.281466 -140.544639 
L 178.372301 -140.544639 
L 177.463136 -140.544639 
L 176.553971 -140.544639 
L 175.644807 -140.544639 
L 174.735642 -140.544639 
L 173.826477 -140.544639 
L 172.917312 -140.544639 
L 172.008147 -140.544639 
L 171.098982 -140.544639 
L 170.189817 -140.544639 
L 169.280652 -140.544639 
L 168.371487 -140.544639 
L 167.462322 -140.544639 
L 166.553157 -140.544639 
L 165.643992 -140.544639 
L 164.734827 -140.544639 
L 163.825662 -140.544639 
L 162.916497 -140.544639 
L 162.007332 -140.544639 
L 161.098167 -140.544639 
L 160.189002 -140.544639 
L 159.279837 -140.544639 
L 158.370672 -140.544639 
L 157.461507 -140.544639 
L 156.552342 -140.544639 
L 155.643177 -140.544639 
L 154.734012 -140.544639 
L 153.824847 -140.544639 
L 152.915682 -140.544639 
L 152.006517 -140.544639 
L 151.097352 -140.544639 
L 150.188187 -140.544639 
L 149.279022 -140.544639 
L 148.369857 -140.544639 
L 147.460692 -140.544639 
L 146.551527 -140.544639 
L 145.642363 -140.544639 
L 144.733198 -140.544639 
L 143.824033 -140.544639 
L 142.914868 -140.544639 
L 142.005703 -140.544639 
L 141.096538 -140.544639 
L 140.187373 -140.544639 
L 139.278208 -140.544639 
L 138.369043 -140.544639 
L 137.459878 -140.544639 
L 136.550713 -140.544639 
L 135.641548 -140.544639 
L 134.732383 -140.544639 
L 133.823218 -140.544639 
L 132.914053 -140.544639 
L 132.004888 -140.544639 
L 131.095723 -140.544639 
L 130.186558 -140.544639 
L 129.277393 -140.544639 
L 128.368228 -140.544639 
L 127.459063 -140.544639 
L 126.549898 -140.544639 
L 125.640733 -140.544639 
L 124.731568 -140.544639 
L 123.822403 -140.544639 
L 122.913238 -140.544639 
L 122.004073 -140.544639 
L 121.094908 -140.544639 
L 120.185743 -140.544639 
L 119.276578 -140.544639 
L 118.367413 -140.544639 
L 117.458248 -140.544639 
L 116.549084 -140.544639 
L 115.639919 -140.544639 
L 114.730754 -140.544639 
L 113.821589 -140.544639 
L 112.912424 -140.544639 
L 112.003259 -140.544639 
L 111.094094 -140.544639 
L 110.184929 -140.544639 
L 109.275764 -140.544639 
L 108.366599 -140.544639 
L 107.457434 -140.544639 
L 106.548269 -140.544639 
L 105.639104 -140.544639 
L 104.729939 -140.544639 
L 103.820774 -140.544639 
L 102.911609 -140.544639 
L 102.002444 -140.544639 
L 101.093279 -140.544639 
L 100.184114 -140.544639 
L 99.274949 -140.544639 
L 98.365784 -140.544639 
L 97.456619 -140.544639 
L 96.547454 -140.544639 
L 95.638289 -140.544639 
L 94.729124 -140.544639 
L 93.819959 -140.544639 
L 92.910794 -140.544639 
L 92.001629 -140.544639 
L 91.092464 -140.544639 
L 90.183299 -140.544639 
L 89.274134 -140.544639 
L 88.364969 -140.544639 
L 87.455804 -140.544639 
L 86.54664 -140.544639 
L 85.637475 -140.544639 
L 84.72831 -140.544639 
L 83.819145 -140.544639 
L 82.90998 -140.544639 
L 82.000815 -140.544639 
L 81.09165 -140.544639 
L 80.182485 -140.544639 
L 79.27332 -140.544639 
L 78.364155 -140.544639 
L 77.45499 -140.544639 
L 76.545825 -140.544639 
L 75.63666 -140.544639 
L 74.727495 -140.544639 
L 73.81833 -140.544639 
L 72.909165 -140.544639 
L 72 -140.544639 
z
" id="m527bfc693a"/>
    </defs>
    <g clip-path="url(#pecb979edae)">
     <use style="fill-opacity:0.15;" x="0" xlink:href="#m527bfc693a" y="360"/>
    </g>
   </g>
   <g id="matplotlib.axis_1">
    <g id="xtick_1">
     <g id="line2d_1">
      <defs>
       <path d="M 0 0 
L 0 3.5 
" id="m4b28f7b22d" style="stroke:#000000;stroke-width:0.8;"/>
      </defs>
      <g>
       <use style="stroke:#000000;stroke-width:0.8;" x="72" xlink:href="#m4b28f7b22d" y="320.4"/>
      </g>
     </g>
     <g id="text_1">
      <!-- 0.0 -->
      <g transform="translate(60.867812 338.037813)scale(0.14 -0.14)">
       <defs>
        <path d="M 2034 4250 
Q 1547 4250 1301 3770 
Q 1056 3291 1056 2328 
Q 1056 1369 1301 889 
Q 1547 409 2034 409 
Q 2525 409 2770 889 
Q 3016 1369 3016 2328 
Q 3016 3291 2770 3770 
Q 2525 4250 2034 4250 
z
M 2034 4750 
Q 2819 4750 3233 4129 
Q 3647 3509 3647 2328 
Q 3647 1150 3233 529 
Q 2819 -91 2034 -91 
Q 1250 -91 836 529 
Q 422 1150 422 2328 
Q 422 3509 836 4129 
Q 1250 4750 2034 4750 
z
" id="DejaVuSans-30" transform="scale(0.015625)"/>
        <path d="M 684 794 
L 1344 794 
L 1344 0 
L 684 0 
L 684 794 
z
" id="DejaVuSans-2e" transform="scale(0.015625)"/>
       </defs>
       <use xlink:href="#DejaVuSans-30"/>
       <use x="63.623047" xlink:href="#DejaVuSans-2e"/>
       <use x="95.410156" xlink:href="#DejaVuSans-30"/>
      </g>
     </g>
    </g>
    <g id="xtick_2">
     <g id="line2d_2">
      <g>
       <use style="stroke:#000000;stroke-width:0.8;" x="127.839087" xlink:href="#m4b28f7b22d" y="320.4"/>
      </g>
     </g>
     <g id="text_2">
      <!-- 2.5 -->
      <g transform="translate(116.7069 338.037813)scale(0.14 -0.14)">
       <defs>
        <path d="M 1228 531 
L 3431 531 
L 3431 0 
L 469 0 
L 469 531 
Q 828 903 1448 1529 
Q 2069 2156 2228 2338 
Q 2531 2678 2651 2914 
Q 2772 3150 2772 3378 
Q 2772 3750 2511 3984 
Q 2250 4219 1831 4219 
Q 1534 4219 1204 4116 
Q 875 4013 500 3803 
L 500 4441 
Q 881 4594 1212 4672 
Q 1544 4750 1819 4750 
Q 2544 4750 2975 4387 
Q 3406 4025 3406 3419 
Q 3406 3131 3298 2873 
Q 3191 2616 2906 2266 
Q 2828 2175 2409 1742 
Q 1991 1309 1228 531 
z
" id="DejaVuSans-32" transform="scale(0.015625)"/>
        <path d="M 691 4666 
L 3169 4666 
L 3169 4134 
L 1269 4134 
L 1269 2991 
Q 1406 3038 1543 3061 
Q 1681 3084 1819 3084 
Q 2600 3084 3056 2656 
Q 3513 2228 3513 1497 
Q 3513 744 3044 326 
Q 2575 -91 1722 -91 
Q 1428 -91 1123 -41 
Q 819 9 494 109 
L 494 744 
Q 775 591 1075 516 
Q 1375 441 1709 441 
Q 2250 441 2565 725 
Q 2881 1009 2881 1497 
Q 2881 1984 2565 2268 
Q 2250 2553 1709 2553 
Q 1456 2553 1204 2497 
Q 953 2441 691 2322 
L 691 4666 
z
" id="DejaVuSans-35" transform="scale(0.015625)"/>
       </defs>
       <use xlink:href="#DejaVuSans-32"/>
       <use x="63.623047" xlink:href="#DejaVuSans-2e"/>
       <use x="95.410156" xlink:href="#DejaVuSans-35"/>
      </g>
     </g>
    </g>
    <g id="xtick_3">
     <g id="line2d_3">
      <g>
       <use style="stroke:#000000;stroke-width:0.8;" x="183.678175" xlink:href="#m4b28f7b22d" y="320.4"/>
      </g>
     </g>
     <g id="text_3">
      <!-- 5.0 -->
      <g transform="translate(172.545987 338.037813)scale(0.14 -0.14)">
       <use xlink:href="#DejaVuSans-35"/>
       <use x="63.623047" xlink:href="#DejaVuSans-2e"/>
       <use x="95.410156" xlink:href="#DejaVuSans-30"/>
      </g>
     </g>
    </g>
    <g id="xtick_4">
     <g id="line2d_4">
      <g>
       <use style="stroke:#000000;stroke-width:0.8;" x="239.517262" xlink:href="#m4b28f7b22d" y="320.4"/>
      </g>
     </g>
     <g id="text_4">
      <!-- 7.5 -->
      <g transform="translate(228.385075 338.037813)scale(0.14 -0.14)">
       <defs>
        <path d="M 525 4666 
L 3525 4666 
L 3525 4397 
L 1831 0 
L 1172 0 
L 2766 4134 
L 525 4134 
L 525 4666 
z
" id="DejaVuSans-37" transform="scale(0.015625)"/>
       </defs>
       <use xlink:href="#DejaVuSans-37"/>
       <use x="63.623047" xlink:href="#DejaVuSans-2e"/>
       <use x="95.410156" xlink:href="#DejaVuSans-35"/>
      </g>
     </g>
    </g>
    <g id="xtick_5">
     <g id="line2d_5">
      <g>
       <use style="stroke:#000000;stroke-width:0.8;" x="295.356349" xlink:href="#m4b28f7b22d" y="320.4"/>
      </g>
     </g>
     <g id="text_5">
      <!-- 10.0 -->
      <g transform="translate(279.770412 338.037813)scale(0.14 -0.14)">
       <defs>
        <path d="M 794 531 
L 1825 531 
L 1825 4091 
L 703 3866 
L 703 4441 
L 1819 4666 
L 2450 4666 
L 2450 531 
L 3481 531 
L 3481 0 
L 794 0 
L 794 531 
z
" id="DejaVuSans-31" transform="scale(0.015625)"/>
       </defs>
       <use xlink:href="#DejaVuSans-31"/>
       <use x="63.623047" xlink:href="#DejaVuSans-30"/>
       <use x="127.246094" xlink:href="#DejaVuSans-2e"/>
       <use x="159.033203" xlink:href="#DejaVuSans-30"/>
      </g>
     </g>
    </g>
    <g id="xtick_6">
     <g id="line2d_6">
      <g>
       <use style="stroke:#000000;stroke-width:0.8;" x="351.195437" xlink:href="#m4b28f7b22d" y="320.4"/>
      </g>
     </g>
     <g id="text_6">
      <!-- 12.5 -->
      <g transform="translate(335.609499 338.037813)scale(0.14 -0.14)">
       <use xlink:href="#DejaVuSans-31"/>
       <use x="63.623047" xlink:href="#DejaVuSans-32"/>
       <use x="127.246094" xlink:href="#DejaVuSans-2e"/>
       <use x="159.033203" xlink:href="#DejaVuSans-35"/>
      </g>
     </g>
    </g>
    <g id="xtick_7">
     <g id="line2d_7">
      <g>
       <use style="stroke:#000000;stroke-width:0.8;" x="407.034524" xlink:href="#m4b28f7b22d" y="320.4"/>
      </g>
     </g>
     <g id="text_7">
      <!-- 15.0 -->
      <g transform="translate(391.448587 338.037813)scale(0.14 -0.14)">
       <use xlink:href="#DejaVuSans-31"/>
       <use x="63.623047" xlink:href="#DejaVuSans-35"/>
       <use x="127.246094" xlink:href="#DejaVuSans-2e"/>
       <use x="159.033203" xlink:href="#DejaVuSans-30"/>
      </g>
     </g>
    </g>
    <g id="xtick_8">
     <g id="line2d_8">
      <g>
       <use style="stroke:#000000;stroke-width:0.8;" x="462.873612" xlink:href="#m4b28f7b22d" y="320.4"/>
      </g>
     </g>
     <g id="text_8">
      <!-- 17.5 -->
      <g transform="translate(447.287674 338.037813)scale(0.14 -0.14)">
       <use xlink:href="#DejaVuSans-31"/>
       <use x="63.623047" xlink:href="#DejaVuSans-37"/>
       <use x="127.246094" xlink:href="#DejaVuSans-2e"/>
       <use x="159.033203" xlink:href="#DejaVuSans-35"/>
      </g>
     </g>
    </g>
    <g id="text_9">
     <!-- Time [Seconds] -->
     <g transform="translate(233.23 357.106875)scale(0.16 -0.16)">
      <defs>
       <path d="M -19 4666 
L 3928 4666 
L 3928 4134 
L 2272 4134 
L 2272 0 
L 1638 0 
L 1638 4134 
L -19 4134 
L -19 4666 
z
" id="DejaVuSans-54" transform="scale(0.015625)"/>
       <path d="M 603 3500 
L 1178 3500 
L 1178 0 
L 603 0 
L 603 3500 
z
M 603 4863 
L 1178 4863 
L 1178 4134 
L 603 4134 
L 603 4863 
z
" id="DejaVuSans-69" transform="scale(0.015625)"/>
       <path d="M 3328 2828 
Q 3544 3216 3844 3400 
Q 4144 3584 4550 3584 
Q 5097 3584 5394 3201 
Q 5691 2819 5691 2113 
L 5691 0 
L 5113 0 
L 5113 2094 
Q 5113 2597 4934 2840 
Q 4756 3084 4391 3084 
Q 3944 3084 3684 2787 
Q 3425 2491 3425 1978 
L 3425 0 
L 2847 0 
L 2847 2094 
Q 2847 2600 2669 2842 
Q 2491 3084 2119 3084 
Q 1678 3084 1418 2786 
Q 1159 2488 1159 1978 
L 1159 0 
L 581 0 
L 581 3500 
L 1159 3500 
L 1159 2956 
Q 1356 3278 1631 3431 
Q 1906 3584 2284 3584 
Q 2666 3584 2933 3390 
Q 3200 3197 3328 2828 
z
" id="DejaVuSans-6d" transform="scale(0.015625)"/>
       <path d="M 3597 1894 
L 3597 1613 
L 953 1613 
Q 991 1019 1311 708 
Q 1631 397 2203 397 
Q 2534 397 2845 478 
Q 3156 559 3463 722 
L 3463 178 
Q 3153 47 2828 -22 
Q 2503 -91 2169 -91 
Q 1331 -91 842 396 
Q 353 884 353 1716 
Q 353 2575 817 3079 
Q 1281 3584 2069 3584 
Q 2775 3584 3186 3129 
Q 3597 2675 3597 1894 
z
M 3022 2063 
Q 3016 2534 2758 2815 
Q 2500 3097 2075 3097 
Q 1594 3097 1305 2825 
Q 1016 2553 972 2059 
L 3022 2063 
z
" id="DejaVuSans-65" transform="scale(0.015625)"/>
       <path id="DejaVuSans-20" transform="scale(0.015625)"/>
       <path d="M 550 4863 
L 1875 4863 
L 1875 4416 
L 1125 4416 
L 1125 -397 
L 1875 -397 
L 1875 -844 
L 550 -844 
L 550 4863 
z
" id="DejaVuSans-5b" transform="scale(0.015625)"/>
       <path d="M 3425 4513 
L 3425 3897 
Q 3066 4069 2747 4153 
Q 2428 4238 2131 4238 
Q 1616 4238 1336 4038 
Q 1056 3838 1056 3469 
Q 1056 3159 1242 3001 
Q 1428 2844 1947 2747 
L 2328 2669 
Q 3034 2534 3370 2195 
Q 3706 1856 3706 1288 
Q 3706 609 3251 259 
Q 2797 -91 1919 -91 
Q 1588 -91 1214 -16 
Q 841 59 441 206 
L 441 856 
Q 825 641 1194 531 
Q 1563 422 1919 422 
Q 2459 422 2753 634 
Q 3047 847 3047 1241 
Q 3047 1584 2836 1778 
Q 2625 1972 2144 2069 
L 1759 2144 
Q 1053 2284 737 2584 
Q 422 2884 422 3419 
Q 422 4038 858 4394 
Q 1294 4750 2059 4750 
Q 2388 4750 2728 4690 
Q 3069 4631 3425 4513 
z
" id="DejaVuSans-53" transform="scale(0.015625)"/>
       <path d="M 3122 3366 
L 3122 2828 
Q 2878 2963 2633 3030 
Q 2388 3097 2138 3097 
Q 1578 3097 1268 2742 
Q 959 2388 959 1747 
Q 959 1106 1268 751 
Q 1578 397 2138 397 
Q 2388 397 2633 464 
Q 2878 531 3122 666 
L 3122 134 
Q 2881 22 2623 -34 
Q 2366 -91 2075 -91 
Q 1284 -91 818 406 
Q 353 903 353 1747 
Q 353 2603 823 3093 
Q 1294 3584 2113 3584 
Q 2378 3584 2631 3529 
Q 2884 3475 3122 3366 
z
" id="DejaVuSans-63" transform="scale(0.015625)"/>
       <path d="M 1959 3097 
Q 1497 3097 1228 2736 
Q 959 2375 959 1747 
Q 959 1119 1226 758 
Q 1494 397 1959 397 
Q 2419 397 2687 759 
Q 2956 1122 2956 1747 
Q 2956 2369 2687 2733 
Q 2419 3097 1959 3097 
z
M 1959 3584 
Q 2709 3584 3137 3096 
Q 3566 2609 3566 1747 
Q 3566 888 3137 398 
Q 2709 -91 1959 -91 
Q 1206 -91 779 398 
Q 353 888 353 1747 
Q 353 2609 779 3096 
Q 1206 3584 1959 3584 
z
" id="DejaVuSans-6f" transform="scale(0.015625)"/>
       <path d="M 3513 2113 
L 3513 0 
L 2938 0 
L 2938 2094 
Q 2938 2591 2744 2837 
Q 2550 3084 2163 3084 
Q 1697 3084 1428 2787 
Q 1159 2491 1159 1978 
L 1159 0 
L 581 0 
L 581 3500 
L 1159 3500 
L 1159 2956 
Q 1366 3272 1645 3428 
Q 1925 3584 2291 3584 
Q 2894 3584 3203 3211 
Q 3513 2838 3513 2113 
z
" id="DejaVuSans-6e" transform="scale(0.015625)"/>
       <path d="M 2906 2969 
L 2906 4863 
L 3481 4863 
L 3481 0 
L 2906 0 
L 2906 525 
Q 2725 213 2448 61 
Q 2172 -91 1784 -91 
Q 1150 -91 751 415 
Q 353 922 353 1747 
Q 353 2572 751 3078 
Q 1150 3584 1784 3584 
Q 2172 3584 2448 3432 
Q 2725 3281 2906 2969 
z
M 947 1747 
Q 947 1113 1208 752 
Q 1469 391 1925 391 
Q 2381 391 2643 752 
Q 2906 1113 2906 1747 
Q 2906 2381 2643 2742 
Q 2381 3103 1925 3103 
Q 1469 3103 1208 2742 
Q 947 2381 947 1747 
z
" id="DejaVuSans-64" transform="scale(0.015625)"/>
       <path d="M 2834 3397 
L 2834 2853 
Q 2591 2978 2328 3040 
Q 2066 3103 1784 3103 
Q 1356 3103 1142 2972 
Q 928 2841 928 2578 
Q 928 2378 1081 2264 
Q 1234 2150 1697 2047 
L 1894 2003 
Q 2506 1872 2764 1633 
Q 3022 1394 3022 966 
Q 3022 478 2636 193 
Q 2250 -91 1575 -91 
Q 1294 -91 989 -36 
Q 684 19 347 128 
L 347 722 
Q 666 556 975 473 
Q 1284 391 1588 391 
Q 1994 391 2212 530 
Q 2431 669 2431 922 
Q 2431 1156 2273 1281 
Q 2116 1406 1581 1522 
L 1381 1569 
Q 847 1681 609 1914 
Q 372 2147 372 2553 
Q 372 3047 722 3315 
Q 1072 3584 1716 3584 
Q 2034 3584 2315 3537 
Q 2597 3491 2834 3397 
z
" id="DejaVuSans-73" transform="scale(0.015625)"/>
       <path d="M 1947 4863 
L 1947 -844 
L 622 -844 
L 622 -397 
L 1369 -397 
L 1369 4416 
L 622 4416 
L 622 4863 
L 1947 4863 
z
" id="DejaVuSans-5d" transform="scale(0.015625)"/>
      </defs>
      <use xlink:href="#DejaVuSans-54"/>
      <use x="57.958984" xlink:href="#DejaVuSans-69"/>
      <use x="85.742188" xlink:href="#DejaVuSans-6d"/>
      <use x="183.154297" xlink:href="#DejaVuSans-65"/>
      <use x="244.677734" xlink:href="#DejaVuSans-20"/>
      <use x="276.464844" xlink:href="#DejaVuSans-5b"/>
      <use x="315.478516" xlink:href="#DejaVuSans-53"/>
      <use x="378.955078" xlink:href="#DejaVuSans-65"/>
      <use x="440.478516" xlink:href="#DejaVuSans-63"/>
      <use x="495.458984" xlink:href="#DejaVuSans-6f"/>
      <use x="556.640625" xlink:href="#DejaVuSans-6e"/>
      <use x="620.019531" xlink:href="#DejaVuSans-64"/>
      <use x="683.496094" xlink:href="#DejaVuSans-73"/>
      <use x="735.595703" xlink:href="#DejaVuSans-5d"/>
     </g>
    </g>
   </g>
   <g id="matplotlib.axis_2">
    <g id="ytick_1">
     <g id="line2d_9">
      <defs>
       <path d="M 0 0 
L -3.5 0 
" id="m6e102a8d75" style="stroke:#000000;stroke-width:0.8;"/>
      </defs>
      <g>
       <use style="stroke:#000000;stroke-width:0.8;" x="72" xlink:href="#m6e102a8d75" y="314.742828"/>
      </g>
     </g>
     <g id="text_10">
      <!-- −0.25 -->
      <g transform="translate(22.096562 320.061735)scale(0.14 -0.14)">
       <defs>
        <path d="M 678 2272 
L 4684 2272 
L 4684 1741 
L 678 1741 
L 678 2272 
z
" id="DejaVuSans-2212" transform="scale(0.015625)"/>
       </defs>
       <use xlink:href="#DejaVuSans-2212"/>
       <use x="83.789062" xlink:href="#DejaVuSans-30"/>
       <use x="147.412109" xlink:href="#DejaVuSans-2e"/>
       <use x="179.199219" xlink:href="#DejaVuSans-32"/>
       <use x="242.822266" xlink:href="#DejaVuSans-35"/>
      </g>
     </g>
    </g>
    <g id="ytick_2">
     <g id="line2d_10">
      <g>
       <use style="stroke:#000000;stroke-width:0.8;" x="72" xlink:href="#m6e102a8d75" y="283.79762"/>
      </g>
     </g>
     <g id="text_11">
      <!-- 0.00 -->
      <g transform="translate(33.828125 289.116526)scale(0.14 -0.14)">
       <use xlink:href="#DejaVuSans-30"/>
       <use x="63.623047" xlink:href="#DejaVuSans-2e"/>
       <use x="95.410156" xlink:href="#DejaVuSans-30"/>
       <use x="159.033203" xlink:href="#DejaVuSans-30"/>
      </g>
     </g>
    </g>
    <g id="ytick_3">
     <g id="line2d_11">
      <g>
       <use style="stroke:#000000;stroke-width:0.8;" x="72" xlink:href="#m6e102a8d75" y="252.852412"/>
      </g>
     </g>
     <g id="text_12">
      <!-- 0.25 -->
      <g transform="translate(33.828125 258.171318)scale(0.14 -0.14)">
       <use xlink:href="#DejaVuSans-30"/>
       <use x="63.623047" xlink:href="#DejaVuSans-2e"/>
       <use x="95.410156" xlink:href="#DejaVuSans-32"/>
       <use x="159.033203" xlink:href="#DejaVuSans-35"/>
      </g>
     </g>
    </g>
    <g id="ytick_4">
     <g id="line2d_12">
      <g>
       <use style="stroke:#000000;stroke-width:0.8;" x="72" xlink:href="#m6e102a8d75" y="221.907204"/>
      </g>
     </g>
     <g id="text_13">
      <!-- 0.50 -->
      <g transform="translate(33.828125 227.22611)scale(0.14 -0.14)">
       <use xlink:href="#DejaVuSans-30"/>
       <use x="63.623047" xlink:href="#DejaVuSans-2e"/>
       <use x="95.410156" xlink:href="#DejaVuSans-35"/>
       <use x="159.033203" xlink:href="#DejaVuSans-30"/>
      </g>
     </g>
    </g>
    <g id="ytick_5">
     <g id="line2d_13">
      <g>
       <use style="stroke:#000000;stroke-width:0.8;" x="72" xlink:href="#m6e102a8d75" y="190.961996"/>
      </g>
     </g>
     <g id="text_14">
      <!-- 0.75 -->
      <g transform="translate(33.828125 196.280902)scale(0.14 -0.14)">
       <use xlink:href="#DejaVuSans-30"/>
       <use x="63.623047" xlink:href="#DejaVuSans-2e"/>
       <use x="95.410156" xlink:href="#DejaVuSans-37"/>
       <use x="159.033203" xlink:href="#DejaVuSans-35"/>
      </g>
     </g>
    </g>
    <g id="ytick_6">
     <g id="line2d_14">
      <g>
       <use style="stroke:#000000;stroke-width:0.8;" x="72" xlink:href="#m6e102a8d75" y="160.016788"/>
      </g>
     </g>
     <g id="text_15">
      <!-- 1.00 -->
      <g transform="translate(33.828125 165.335694)scale(0.14 -0.14)">
       <use xlink:href="#DejaVuSans-31"/>
       <use x="63.623047" xlink:href="#DejaVuSans-2e"/>
       <use x="95.410156" xlink:href="#DejaVuSans-30"/>
       <use x="159.033203" xlink:href="#DejaVuSans-30"/>
      </g>
     </g>
    </g>
    <g id="ytick_7">
     <g id="line2d_15">
      <g>
       <use style="stroke:#000000;stroke-width:0.8;" x="72" xlink:href="#m6e102a8d75" y="129.07158"/>
      </g>
     </g>
     <g id="text_16">
      <!-- 1.25 -->
      <g transform="translate(33.828125 134.390486)scale(0.14 -0.14)">
       <use xlink:href="#DejaVuSans-31"/>
       <use x="63.623047" xlink:href="#DejaVuSans-2e"/>
       <use x="95.410156" xlink:href="#DejaVuSans-32"/>
       <use x="159.033203" xlink:href="#DejaVuSans-35"/>
      </g>
     </g>
    </g>
    <g id="ytick_8">
     <g id="line2d_16">
      <g>
       <use style="stroke:#000000;stroke-width:0.8;" x="72" xlink:href="#m6e102a8d75" y="98.126372"/>
      </g>
     </g>
     <g id="text_17">
      <!-- 1.50 -->
      <g transform="translate(33.828125 103.445278)scale(0.14 -0.14)">
       <use xlink:href="#DejaVuSans-31"/>
       <use x="63.623047" xlink:href="#DejaVuSans-2e"/>
       <use x="95.410156" xlink:href="#DejaVuSans-35"/>
       <use x="159.033203" xlink:href="#DejaVuSans-30"/>
      </g>
     </g>
    </g>
    <g id="ytick_9">
     <g id="line2d_17">
      <g>
       <use style="stroke:#000000;stroke-width:0.8;" x="72" xlink:href="#m6e102a8d75" y="67.181164"/>
      </g>
     </g>
     <g id="text_18">
      <!-- 1.75 -->
      <g transform="translate(33.828125 72.50007)scale(0.14 -0.14)">
       <use xlink:href="#DejaVuSans-31"/>
       <use x="63.623047" xlink:href="#DejaVuSans-2e"/>
       <use x="95.410156" xlink:href="#DejaVuSans-37"/>
       <use x="159.033203" xlink:href="#DejaVuSans-35"/>
      </g>
     </g>
    </g>
    <g id="text_19">
     <!-- Speed [mm/s] -->
     <g transform="translate(14.769062 238.11375)rotate(-90)scale(0.16 -0.16)">
      <defs>
       <path d="M 1159 525 
L 1159 -1331 
L 581 -1331 
L 581 3500 
L 1159 3500 
L 1159 2969 
Q 1341 3281 1617 3432 
Q 1894 3584 2278 3584 
Q 2916 3584 3314 3078 
Q 3713 2572 3713 1747 
Q 3713 922 3314 415 
Q 2916 -91 2278 -91 
Q 1894 -91 1617 61 
Q 1341 213 1159 525 
z
M 3116 1747 
Q 3116 2381 2855 2742 
Q 2594 3103 2138 3103 
Q 1681 3103 1420 2742 
Q 1159 2381 1159 1747 
Q 1159 1113 1420 752 
Q 1681 391 2138 391 
Q 2594 391 2855 752 
Q 3116 1113 3116 1747 
z
" id="DejaVuSans-70" transform="scale(0.015625)"/>
       <path d="M 1625 4666 
L 2156 4666 
L 531 -594 
L 0 -594 
L 1625 4666 
z
" id="DejaVuSans-2f" transform="scale(0.015625)"/>
      </defs>
      <use xlink:href="#DejaVuSans-53"/>
      <use x="63.476562" xlink:href="#DejaVuSans-70"/>
      <use x="126.953125" xlink:href="#DejaVuSans-65"/>
      <use x="188.476562" xlink:href="#DejaVuSans-65"/>
      <use x="250" xlink:href="#DejaVuSans-64"/>
      <use x="313.476562" xlink:href="#DejaVuSans-20"/>
      <use x="345.263672" xlink:href="#DejaVuSans-5b"/>
      <use x="384.277344" xlink:href="#DejaVuSans-6d"/>
      <use x="481.689453" xlink:href="#DejaVuSans-6d"/>
      <use x="579.101562" xlink:href="#DejaVuSans-2f"/>
      <use x="612.792969" xlink:href="#DejaVuSans-73"/>
      <use x="664.892578" xlink:href="#DejaVuSans-5d"/>
     </g>
    </g>
   </g>
   <g id="line2d_18">
    <path clip-path="url(#pecb979edae)" d="M 72 216.092626 
L 518.4 216.092626 
" style="fill:none;stroke:#000000;stroke-dasharray:5.55,2.4;stroke-dashoffset:0;stroke-width:1.5;"/>
   </g>
   <g id="line2d_19">
    <path clip-path="url(#pecb979edae)" d="M 72 281.61838 
L 136.550713 281.518948 
L 137.459878 279.586758 
L 138.369043 279.316609 
L 139.278208 281.939943 
L 140.187373 283.932714 
L 141.096538 285.270165 
L 142.005703 283.893495 
L 142.914868 267.952073 
L 143.824033 275.6009 
L 144.733198 304.466593 
L 145.642363 307.8 
L 146.551527 296.604204 
L 147.460692 272.491534 
L 152.006517 97.170251 
L 152.915682 72.899312 
L 153.824847 59.871275 
L 154.734012 55.8 
L 155.643177 59.621227 
L 156.552342 74.521956 
L 157.461507 95.661707 
L 159.279837 146.545827 
L 161.098167 198.18436 
L 162.007332 213.930991 
L 162.916497 217.748961 
L 163.825662 205.031535 
L 164.734827 177.214042 
L 165.643992 178.883817 
L 166.553157 197.56765 
L 167.462322 197.76299 
L 168.371487 201.022003 
L 169.280652 201.840156 
L 170.189817 200.217696 
L 171.098982 202.726001 
L 172.008147 206.859657 
L 172.917312 207.59563 
L 173.826477 206.220876 
L 174.735642 206.816103 
L 175.644807 208.967746 
L 176.553971 209.330643 
L 177.463136 208.328364 
L 178.372301 209.797812 
L 180.190631 209.131186 
L 181.099796 210.610537 
L 183.827291 211.653119 
L 184.736456 210.777273 
L 185.645621 211.244798 
L 186.554786 212.280276 
L 187.463951 212.515081 
L 188.373116 212.58469 
L 189.282281 213.005703 
L 190.191446 215.101088 
L 192.009776 214.780977 
L 192.918941 215.964672 
L 193.828106 215.770888 
L 194.737271 214.936154 
L 195.646436 213.719589 
L 196.555601 213.769379 
L 197.464766 214.755913 
L 198.373931 215.109855 
L 199.283096 215.265711 
L 200.192261 215.589724 
L 201.101426 214.99135 
L 202.010591 213.390622 
L 202.919756 213.674394 
L 203.828921 214.696629 
L 204.738086 216.458984 
L 205.647251 216.143093 
L 206.556415 214.539786 
L 207.46558 215.726122 
L 208.374745 216.661277 
L 209.28391 216.173337 
L 210.193075 214.534487 
L 211.10224 214.186142 
L 212.011405 215.361702 
L 213.829735 214.992639 
L 214.7389 216.760262 
L 215.648065 217.633385 
L 216.55723 217.760255 
L 217.466395 217.52074 
L 218.37556 217.063984 
L 219.284725 216.196484 
L 220.19389 216.218799 
L 221.103055 217.893239 
L 222.01222 218.071423 
L 222.921385 216.19371 
L 223.83055 214.603888 
L 224.739715 215.413215 
L 225.64888 216.052426 
L 226.558045 216.443478 
L 227.46721 215.605437 
L 228.376375 214.971105 
L 229.28554 216.316439 
L 230.194705 217.20627 
L 231.10387 215.9332 
L 232.013035 214.919481 
L 232.9222 216.236685 
L 233.831365 216.654859 
L 234.74053 215.146181 
L 235.649695 213.905173 
L 237.468024 217.070203 
L 239.286354 217.793668 
L 240.195519 217.580634 
L 241.104684 215.948759 
L 242.013849 217.351899 
L 242.923014 219.758563 
L 243.832179 218.102096 
L 244.741344 216.989025 
L 245.650509 217.473487 
L 246.559674 217.533399 
L 247.468839 217.406926 
L 248.378004 216.711703 
L 249.287169 216.765545 
L 250.196334 218.492709 
L 251.105499 219.778905 
L 252.014664 218.172251 
L 252.923829 215.693934 
L 253.832994 216.576769 
L 254.742159 218.010659 
L 255.651324 216.295113 
L 256.560489 213.878192 
L 257.469654 214.561652 
L 258.378819 216.437874 
L 259.287984 217.098724 
L 260.197149 216.169246 
L 261.106314 215.598031 
L 262.015479 216.08014 
L 262.924644 215.283209 
L 263.833809 216.799459 
L 264.742974 216.873351 
L 265.652138 215.162935 
L 266.561303 216.462943 
L 267.470468 217.382992 
L 268.379633 216.522878 
L 270.197963 215.156751 
L 271.107128 215.82722 
L 272.016293 217.243263 
L 272.925458 216.875577 
L 273.834623 216.632748 
L 274.743788 217.200391 
L 275.652953 217.036944 
L 276.562118 216.693439 
L 278.380448 217.36746 
L 279.289613 216.808036 
L 280.198778 217.283107 
L 281.107943 218.33105 
L 282.017108 217.000597 
L 282.926273 216.350503 
L 283.835438 216.868053 
L 284.744603 218.183369 
L 285.653768 219.833211 
L 287.472098 217.472009 
L 288.381263 217.848392 
L 289.290428 217.886451 
L 290.199593 217.14282 
L 291.108758 216.557155 
L 292.017923 217.451383 
L 292.927088 217.96606 
L 293.836253 217.440688 
L 294.745418 216.590706 
L 295.654582 217.981193 
L 296.563747 218.755806 
L 297.472912 217.835342 
L 300.200407 217.318667 
L 301.109572 216.943961 
L 302.018737 217.15046 
L 302.927902 216.182828 
L 303.837067 214.747349 
L 304.746232 214.693623 
L 305.655397 213.947385 
L 306.564562 214.62973 
L 307.473727 216.177615 
L 309.292057 216.941198 
L 310.201222 216.296259 
L 311.110387 215.339367 
L 312.019552 216.175553 
L 312.928717 217.590054 
L 313.837882 217.873321 
L 314.747047 217.521499 
L 315.656212 216.330011 
L 316.565377 215.374459 
L 317.474542 217.827925 
L 318.383707 218.424376 
L 319.292872 218.410669 
L 320.202037 219.473464 
L 322.020367 217.118547 
L 322.929532 217.793932 
L 324.747862 217.542481 
L 325.657026 217.267951 
L 326.566191 216.567773 
L 327.475356 216.718552 
L 328.384521 216.25095 
L 329.293686 215.320034 
L 330.202851 215.28875 
L 331.112016 217.445502 
L 332.021181 217.090621 
L 332.930346 214.864511 
L 333.839511 216.037465 
L 334.748676 218.277667 
L 335.657841 218.082516 
L 336.567006 217.728289 
L 337.476171 216.824467 
L 339.294501 218.40332 
L 340.203666 216.137127 
L 341.112831 216.329019 
L 342.021996 217.757449 
L 342.931161 216.871742 
L 343.840326 215.045038 
L 345.658656 216.299372 
L 346.567821 215.876234 
L 347.476986 214.988164 
L 348.386151 215.015119 
L 349.295316 216.420676 
L 350.204481 216.658088 
L 352.022811 218.76188 
L 352.931976 220.138177 
L 353.841141 219.734568 
L 354.750305 217.728848 
L 355.65947 217.822802 
L 356.568635 218.521629 
L 357.4778 217.733242 
L 358.386965 217.610858 
L 360.205295 220.201976 
L 362.023625 216.784851 
L 362.93279 216.333272 
L 363.841955 215.327338 
L 364.75112 215.848326 
L 366.56945 218.859789 
L 367.478615 218.049331 
L 368.38778 216.546612 
L 370.20611 215.510964 
L 371.115275 213.769707 
L 372.02444 214.977473 
L 372.933605 217.928802 
L 373.84277 217.506762 
L 374.751935 217.536003 
L 375.6611 219.263107 
L 376.570265 219.061012 
L 377.47943 218.249831 
L 378.388595 217.856658 
L 379.29776 215.377735 
L 380.206925 215.237921 
L 381.11609 217.120459 
L 382.025255 218.351235 
L 382.93442 217.643967 
L 383.843585 215.786842 
L 384.752749 214.505555 
L 385.661914 214.078254 
L 386.571079 214.334992 
L 388.389409 218.051348 
L 389.298574 218.398843 
L 390.207739 219.118336 
L 391.116904 219.609684 
L 392.026069 218.702304 
L 392.935234 216.879574 
L 393.844399 216.231022 
L 395.662729 215.233816 
L 396.571894 216.144798 
L 397.481059 217.810109 
L 398.390224 218.100323 
L 399.299389 217.531144 
L 400.208554 216.665761 
L 401.117719 214.000526 
L 402.026884 215.073096 
L 402.936049 217.372148 
L 403.845214 217.176957 
L 404.754379 217.467731 
L 405.663544 218.761628 
L 406.572709 219.097958 
L 407.481874 217.910062 
L 408.391039 215.7083 
L 409.300204 215.794203 
L 410.209369 217.570851 
L 411.118534 216.680173 
L 412.027699 217.556633 
L 412.936864 219.321557 
L 413.846029 219.298349 
L 414.755193 218.91446 
L 415.664358 216.912404 
L 416.573523 215.429287 
L 417.482688 215.046015 
L 418.391853 215.221313 
L 420.210183 218.051983 
L 421.119348 218.18804 
L 422.937678 215.194559 
L 423.846843 216.112619 
L 424.756008 215.817795 
L 425.665173 214.783319 
L 426.574338 216.239722 
L 427.483503 218.14597 
L 428.392668 219.031615 
L 429.301833 219.334793 
L 432.029328 217.193678 
L 432.938493 214.936555 
L 433.847658 215.693112 
L 434.756823 217.192813 
L 435.665988 217.698948 
L 436.575153 218.722752 
L 437.484318 217.739892 
L 438.393483 215.801783 
L 439.302648 214.639415 
L 440.211813 214.495419 
L 441.120978 215.057668 
L 442.030143 216.086759 
L 442.939308 217.879371 
L 443.848473 218.49426 
L 444.757637 218.80214 
L 445.666802 219.331658 
L 446.575967 217.804911 
L 447.485132 217.003389 
L 448.394297 216.546488 
L 449.303462 215.663892 
L 450.212627 216.354581 
L 451.121792 217.976134 
L 452.030957 218.481764 
L 452.940122 218.307966 
L 453.849287 217.434191 
L 454.758452 215.282897 
L 455.667617 215.196634 
L 457.485947 216.834164 
L 458.395112 218.251739 
L 459.304277 218.561884 
L 460.213442 218.547561 
L 461.122607 218.109567 
L 462.940937 214.544564 
L 463.850102 214.01223 
L 464.759267 213.774755 
L 465.668432 214.675007 
L 467.486762 219.355067 
L 468.395927 219.316423 
L 469.305092 218.701555 
L 470.214257 219.043247 
L 471.123422 216.613776 
L 472.032587 215.803695 
L 472.941752 217.361894 
L 473.850916 218.071605 
L 474.760081 219.188933 
L 475.669246 219.025783 
L 476.578411 216.477045 
L 477.487576 215.02627 
L 478.396741 214.393142 
L 479.305906 214.147914 
L 480.215071 215.255804 
L 481.124236 216.677252 
L 482.033401 218.479564 
L 483.851731 219.318171 
L 484.760896 218.341828 
L 485.670061 216.619341 
L 486.579226 216.26192 
L 487.488391 216.096718 
L 488.397556 215.305992 
L 489.306721 215.635467 
L 490.215886 217.270818 
L 491.125051 217.696524 
L 492.034216 216.440673 
L 492.943381 214.915489 
L 493.852546 215.692885 
L 494.761711 216.677174 
L 495.670876 216.644862 
L 496.580041 218.004378 
L 497.489206 220.063544 
L 498.398371 220.377546 
L 499.307536 220.081455 
L 501.125866 216.056758 
L 502.035031 216.826819 
L 502.944196 216.725673 
L 503.85336 215.972791 
L 504.762525 216.278995 
L 505.67169 217.445458 
L 506.580855 216.220858 
L 507.49002 215.26951 
L 508.399185 215.171516 
L 509.30835 215.241355 
L 511.12668 215.793815 
L 513.854175 216.876801 
L 514.76334 216.981564 
L 515.672505 216.774582 
L 516.58167 216.120676 
L 517.490835 214.868002 
L 518.4 212.848049 
L 518.4 212.848049 
" style="fill:none;stroke:#ff0000;stroke-linecap:square;stroke-width:2;"/>
   </g>
   <g id="patch_3">
    <path d="M 72 320.4 
L 72 43.2 
" style="fill:none;stroke:#000000;stroke-linecap:square;stroke-linejoin:miter;stroke-width:0.8;"/>
   </g>
   <g id="patch_4">
    <path d="M 518.4 320.4 
L 518.4 43.2 
" style="fill:none;stroke:#000000;stroke-linecap:square;stroke-linejoin:miter;stroke-width:0.8;"/>
   </g>
   <g id="patch_5">
    <path d="M 72 320.4 
L 518.4 320.4 
" style="fill:none;stroke:#000000;stroke-linecap:square;stroke-linejoin:miter;stroke-width:0.8;"/>
   </g>
   <g id="patch_6">
    <path d="M 72 43.2 
L 518.4 43.2 
" style="fill:none;stroke:#000000;stroke-linecap:square;stroke-linejoin:miter;stroke-width:0.8;"/>
   </g>
   <g id="text_20">
    <!-- Front Propogation Speed -->
    <g transform="translate(172.245312 37.2)scale(0.2 -0.2)">
     <defs>
      <path d="M 628 4666 
L 3309 4666 
L 3309 4134 
L 1259 4134 
L 1259 2759 
L 3109 2759 
L 3109 2228 
L 1259 2228 
L 1259 0 
L 628 0 
L 628 4666 
z
" id="DejaVuSans-46" transform="scale(0.015625)"/>
      <path d="M 2631 2963 
Q 2534 3019 2420 3045 
Q 2306 3072 2169 3072 
Q 1681 3072 1420 2755 
Q 1159 2438 1159 1844 
L 1159 0 
L 581 0 
L 581 3500 
L 1159 3500 
L 1159 2956 
Q 1341 3275 1631 3429 
Q 1922 3584 2338 3584 
Q 2397 3584 2469 3576 
Q 2541 3569 2628 3553 
L 2631 2963 
z
" id="DejaVuSans-72" transform="scale(0.015625)"/>
      <path d="M 1172 4494 
L 1172 3500 
L 2356 3500 
L 2356 3053 
L 1172 3053 
L 1172 1153 
Q 1172 725 1289 603 
Q 1406 481 1766 481 
L 2356 481 
L 2356 0 
L 1766 0 
Q 1100 0 847 248 
Q 594 497 594 1153 
L 594 3053 
L 172 3053 
L 172 3500 
L 594 3500 
L 594 4494 
L 1172 4494 
z
" id="DejaVuSans-74" transform="scale(0.015625)"/>
      <path d="M 1259 4147 
L 1259 2394 
L 2053 2394 
Q 2494 2394 2734 2622 
Q 2975 2850 2975 3272 
Q 2975 3691 2734 3919 
Q 2494 4147 2053 4147 
L 1259 4147 
z
M 628 4666 
L 2053 4666 
Q 2838 4666 3239 4311 
Q 3641 3956 3641 3272 
Q 3641 2581 3239 2228 
Q 2838 1875 2053 1875 
L 1259 1875 
L 1259 0 
L 628 0 
L 628 4666 
z
" id="DejaVuSans-50" transform="scale(0.015625)"/>
      <path d="M 2906 1791 
Q 2906 2416 2648 2759 
Q 2391 3103 1925 3103 
Q 1463 3103 1205 2759 
Q 947 2416 947 1791 
Q 947 1169 1205 825 
Q 1463 481 1925 481 
Q 2391 481 2648 825 
Q 2906 1169 2906 1791 
z
M 3481 434 
Q 3481 -459 3084 -895 
Q 2688 -1331 1869 -1331 
Q 1566 -1331 1297 -1286 
Q 1028 -1241 775 -1147 
L 775 -588 
Q 1028 -725 1275 -790 
Q 1522 -856 1778 -856 
Q 2344 -856 2625 -561 
Q 2906 -266 2906 331 
L 2906 616 
Q 2728 306 2450 153 
Q 2172 0 1784 0 
Q 1141 0 747 490 
Q 353 981 353 1791 
Q 353 2603 747 3093 
Q 1141 3584 1784 3584 
Q 2172 3584 2450 3431 
Q 2728 3278 2906 2969 
L 2906 3500 
L 3481 3500 
L 3481 434 
z
" id="DejaVuSans-67" transform="scale(0.015625)"/>
      <path d="M 2194 1759 
Q 1497 1759 1228 1600 
Q 959 1441 959 1056 
Q 959 750 1161 570 
Q 1363 391 1709 391 
Q 2188 391 2477 730 
Q 2766 1069 2766 1631 
L 2766 1759 
L 2194 1759 
z
M 3341 1997 
L 3341 0 
L 2766 0 
L 2766 531 
Q 2569 213 2275 61 
Q 1981 -91 1556 -91 
Q 1019 -91 701 211 
Q 384 513 384 1019 
Q 384 1609 779 1909 
Q 1175 2209 1959 2209 
L 2766 2209 
L 2766 2266 
Q 2766 2663 2505 2880 
Q 2244 3097 1772 3097 
Q 1472 3097 1187 3025 
Q 903 2953 641 2809 
L 641 3341 
Q 956 3463 1253 3523 
Q 1550 3584 1831 3584 
Q 2591 3584 2966 3190 
Q 3341 2797 3341 1997 
z
" id="DejaVuSans-61" transform="scale(0.015625)"/>
     </defs>
     <use xlink:href="#DejaVuSans-46"/>
     <use x="50.269531" xlink:href="#DejaVuSans-72"/>
     <use x="89.132812" xlink:href="#DejaVuSans-6f"/>
     <use x="150.314453" xlink:href="#DejaVuSans-6e"/>
     <use x="213.693359" xlink:href="#DejaVuSans-74"/>
     <use x="252.902344" xlink:href="#DejaVuSans-20"/>
     <use x="284.689453" xlink:href="#DejaVuSans-50"/>
     <use x="343.242188" xlink:href="#DejaVuSans-72"/>
     <use x="382.105469" xlink:href="#DejaVuSans-6f"/>
     <use x="443.287109" xlink:href="#DejaVuSans-70"/>
     <use x="506.763672" xlink:href="#DejaVuSans-6f"/>
     <use x="567.945312" xlink:href="#DejaVuSans-67"/>
     <use x="631.421875" xlink:href="#DejaVuSans-61"/>
     <use x="692.701172" xlink:href="#DejaVuSans-74"/>
     <use x="731.910156" xlink:href="#DejaVuSans-69"/>
     <use x="759.693359" xlink:href="#DejaVuSans-6f"/>
     <use x="820.875" xlink:href="#DejaVuSans-6e"/>
     <use x="884.253906" xlink:href="#DejaVuSans-20"/>
     <use x="916.041016" xlink:href="#DejaVuSans-53"/>
     <use x="979.517578" xlink:href="#DejaVuSans-70"/>
     <use x="1042.994141" xlink:href="#DejaVuSans-65"/>
     <use x="1104.517578" xlink:href="#DejaVuSans-65"/>
     <use x="1166.041016" xlink:href="#DejaVuSans-64"/>
    </g>
   </g>
   <g id="legend_1">
    <g id="patch_7">
     <path d="M 325.967812 111.175687 
L 508.6 111.175687 
Q 511.4 111.175687 511.4 108.375687 
L 511.4 53 
Q 511.4 50.2 508.6 50.2 
L 325.967812 50.2 
Q 323.167812 50.2 323.167812 53 
L 323.167812 108.375687 
Q 323.167812 111.175687 325.967812 111.175687 
z
" style="fill:#ffffff;opacity:0.8;stroke:#cccccc;stroke-linejoin:miter;"/>
    </g>
    <g id="line2d_20">
     <path d="M 328.767812 61.537812 
L 356.767812 61.537812 
" style="fill:none;stroke:#ff0000;stroke-linecap:square;stroke-width:2;"/>
    </g>
    <g id="line2d_21"/>
    <g id="text_21">
     <!-- Front speed -->
     <g transform="translate(367.967812 66.437812)scale(0.14 -0.14)">
      <use xlink:href="#DejaVuSans-46"/>
      <use x="50.269531" xlink:href="#DejaVuSans-72"/>
      <use x="89.132812" xlink:href="#DejaVuSans-6f"/>
      <use x="150.314453" xlink:href="#DejaVuSans-6e"/>
      <use x="213.693359" xlink:href="#DejaVuSans-74"/>
      <use x="252.902344" xlink:href="#DejaVuSans-20"/>
      <use x="284.689453" xlink:href="#DejaVuSans-73"/>
      <use x="336.789062" xlink:href="#DejaVuSans-70"/>
      <use x="400.265625" xlink:href="#DejaVuSans-65"/>
      <use x="461.789062" xlink:href="#DejaVuSans-65"/>
      <use x="523.3125" xlink:href="#DejaVuSans-64"/>
     </g>
    </g>
    <g id="line2d_22">
     <path d="M 328.767812 91.381437 
L 356.767812 91.381437 
" style="fill:none;stroke:#000000;stroke-dasharray:5.55,2.4;stroke-dashoffset:0;stroke-width:1.5;"/>
    </g>
    <g id="line2d_23"/>
    <g id="text_22">
     <!-- Steady state -->
     <g transform="translate(367.967812 86.987187)scale(0.14 -0.14)">
      <defs>
       <path d="M 2059 -325 
Q 1816 -950 1584 -1140 
Q 1353 -1331 966 -1331 
L 506 -1331 
L 506 -850 
L 844 -850 
Q 1081 -850 1212 -737 
Q 1344 -625 1503 -206 
L 1606 56 
L 191 3500 
L 800 3500 
L 1894 763 
L 2988 3500 
L 3597 3500 
L 2059 -325 
z
" id="DejaVuSans-79" transform="scale(0.015625)"/>
      </defs>
      <use xlink:href="#DejaVuSans-53"/>
      <use x="63.476562" xlink:href="#DejaVuSans-74"/>
      <use x="102.685547" xlink:href="#DejaVuSans-65"/>
      <use x="164.208984" xlink:href="#DejaVuSans-61"/>
      <use x="225.488281" xlink:href="#DejaVuSans-64"/>
      <use x="288.964844" xlink:href="#DejaVuSans-79"/>
      <use x="348.144531" xlink:href="#DejaVuSans-20"/>
      <use x="379.931641" xlink:href="#DejaVuSans-73"/>
      <use x="432.03125" xlink:href="#DejaVuSans-74"/>
      <use x="471.240234" xlink:href="#DejaVuSans-61"/>
      <use x="532.519531" xlink:href="#DejaVuSans-74"/>
      <use x="571.728516" xlink:href="#DejaVuSans-65"/>
     </g>
     <!-- speed = 0.55 mm/s -->
     <g transform="translate(367.967812 102.664125)scale(0.14 -0.14)">
      <defs>
       <path d="M 678 2906 
L 4684 2906 
L 4684 2381 
L 678 2381 
L 678 2906 
z
M 678 1631 
L 4684 1631 
L 4684 1100 
L 678 1100 
L 678 1631 
z
" id="DejaVuSans-3d" transform="scale(0.015625)"/>
      </defs>
      <use xlink:href="#DejaVuSans-73"/>
      <use x="52.099609" xlink:href="#DejaVuSans-70"/>
      <use x="115.576172" xlink:href="#DejaVuSans-65"/>
      <use x="177.099609" xlink:href="#DejaVuSans-65"/>
      <use x="238.623047" xlink:href="#DejaVuSans-64"/>
      <use x="302.099609" xlink:href="#DejaVuSans-20"/>
      <use x="333.886719" xlink:href="#DejaVuSans-3d"/>
      <use x="417.675781" xlink:href="#DejaVuSans-20"/>
      <use x="449.462891" xlink:href="#DejaVuSans-30"/>
      <use x="513.085938" xlink:href="#DejaVuSans-2e"/>
      <use x="544.873047" xlink:href="#DejaVuSans-35"/>
      <use x="608.496094" xlink:href="#DejaVuSans-35"/>
      <use x="672.119141" xlink:href="#DejaVuSans-20"/>
      <use x="703.90625" xlink:href="#DejaVuSans-6d"/>
      <use x="801.318359" xlink:href="#DejaVuSans-6d"/>
      <use x="898.730469" xlink:href="#DejaVuSans-2f"/>
      <use x="932.421875" xlink:href="#DejaVuSans-73"/>
     </g>
    </g>
   </g>
  </g>
 </g>
 <defs>
  <clipPath id="pecb979edae">
   <rect height="277.2" width="446.4" x="72" y="43.2"/>
  </clipPath>
 </defs>
</svg>
