<?xml version="1.0" encoding="utf-8" standalone="no"?>
<!DOCTYPE svg PUBLIC "-//W3C//DTD SVG 1.1//EN"
  "http://www.w3.org/Graphics/SVG/1.1/DTD/svg11.dtd">
<svg height="360pt" version="1.1" viewBox="0 0 576 360" width="576pt" xmlns="http://www.w3.org/2000/svg" xmlns:xlink="http://www.w3.org/1999/xlink">
 <metadata>
  <rdf:RDF xmlns:cc="http://creativecommons.org/ns#" xmlns:dc="http://purl.org/dc/elements/1.1/" xmlns:rdf="http://www.w3.org/1999/02/22-rdf-syntax-ns#">
   <cc:Work>
    <dc:type rdf:resource="http://purl.org/dc/dcmitype/StillImage"/>
    <dc:date>2022-06-30T14:21:44.113869</dc:date>
    <dc:format>image/svg+xml</dc:format>
    <dc:creator>
     <cc:Agent>
      <dc:title>Matplotlib v3.4.3, https://matplotlib.org/</dc:title>
     </cc:Agent>
    </dc:creator>
   </cc:Work>
  </rdf:RDF>
 </metadata>
 <defs>
  <style type="text/css">*{stroke-linecap:butt;stroke-linejoin:round;}</style>
 </defs>
 <g id="figure_1">
  <g id="patch_1">
   <path d="M 0 360 
L 576 360 
L 576 0 
L 0 0 
z
" style="fill:#ffffff;"/>
  </g>
  <g id="axes_1">
   <g id="patch_2">
    <path d="M 72 320.4 
L 518.4 320.4 
L 518.4 43.2 
L 72 43.2 
z
" style="fill:#ffffff;"/>
   </g>
   <g id="PolyCollection_1">
    <defs>
     <path d="M 72 -134.570808 
L 72 -142.395541 
L 72.978947 -142.395541 
L 73.957895 -142.395541 
L 74.936842 -142.395541 
L 75.915789 -142.395541 
L 76.894737 -142.395541 
L 77.873684 -142.395541 
L 78.852632 -142.395541 
L 79.831579 -142.395541 
L 80.810526 -142.395541 
L 81.789474 -142.395541 
L 82.768421 -142.395541 
L 83.747368 -142.395541 
L 84.726316 -142.395541 
L 85.705263 -142.395541 
L 86.684211 -142.395541 
L 87.663158 -142.395541 
L 88.642105 -142.395541 
L 89.621053 -142.395541 
L 90.6 -142.395541 
L 91.578947 -142.395541 
L 92.557895 -142.395541 
L 93.536842 -142.395541 
L 94.515789 -142.395541 
L 95.494737 -142.395541 
L 96.473684 -142.395541 
L 97.452632 -142.395541 
L 98.431579 -142.395541 
L 99.410526 -142.395541 
L 100.389474 -142.395541 
L 101.368421 -142.395541 
L 102.347368 -142.395541 
L 103.326316 -142.395541 
L 104.305263 -142.395541 
L 105.284211 -142.395541 
L 106.263158 -142.395541 
L 107.242105 -142.395541 
L 108.221053 -142.395541 
L 109.2 -142.395541 
L 110.178947 -142.395541 
L 111.157895 -142.395541 
L 112.136842 -142.395541 
L 113.115789 -142.395541 
L 114.094737 -142.395541 
L 115.073684 -142.395541 
L 116.052632 -142.395541 
L 117.031579 -142.395541 
L 118.010526 -142.395541 
L 118.989474 -142.395541 
L 119.968421 -142.395541 
L 120.947368 -142.395541 
L 121.926316 -142.395541 
L 122.905263 -142.395541 
L 123.884211 -142.395541 
L 124.863158 -142.395541 
L 125.842105 -142.395541 
L 126.821053 -142.395541 
L 127.8 -142.395541 
L 128.778947 -142.395541 
L 129.757895 -142.395541 
L 130.736842 -142.395541 
L 131.715789 -142.395541 
L 132.694737 -142.395541 
L 133.673684 -142.395541 
L 134.652632 -142.395541 
L 135.631579 -142.395541 
L 136.610526 -142.395541 
L 137.589474 -142.395541 
L 138.568421 -142.395541 
L 139.547368 -142.395541 
L 140.526316 -142.395541 
L 141.505263 -142.395541 
L 142.484211 -142.395541 
L 143.463158 -142.395541 
L 144.442105 -142.395541 
L 145.421053 -142.395541 
L 146.4 -142.395541 
L 147.378947 -142.395541 
L 148.357895 -142.395541 
L 149.336842 -142.395541 
L 150.315789 -142.395541 
L 151.294737 -142.395541 
L 152.273684 -142.395541 
L 153.252632 -142.395541 
L 154.231579 -142.395541 
L 155.210526 -142.395541 
L 156.189474 -142.395541 
L 157.168421 -142.395541 
L 158.147368 -142.395541 
L 159.126316 -142.395541 
L 160.105263 -142.395541 
L 161.084211 -142.395541 
L 162.063158 -142.395541 
L 163.042105 -142.395541 
L 164.021053 -142.395541 
L 165 -142.395541 
L 165.978947 -142.395541 
L 166.957895 -142.395541 
L 167.936842 -142.395541 
L 168.915789 -142.395541 
L 169.894737 -142.395541 
L 170.873684 -142.395541 
L 171.852632 -142.395541 
L 172.831579 -142.395541 
L 173.810526 -142.395541 
L 174.789474 -142.395541 
L 175.768421 -142.395541 
L 176.747368 -142.395541 
L 177.726316 -142.395541 
L 178.705263 -142.395541 
L 179.684211 -142.395541 
L 180.663158 -142.395541 
L 181.642105 -142.395541 
L 182.621053 -142.395541 
L 183.6 -142.395541 
L 184.578947 -142.395541 
L 185.557895 -142.395541 
L 186.536842 -142.395541 
L 187.515789 -142.395541 
L 188.494737 -142.395541 
L 189.473684 -142.395541 
L 190.452632 -142.395541 
L 191.431579 -142.395541 
L 192.410526 -142.395541 
L 193.389474 -142.395541 
L 194.368421 -142.395541 
L 195.347368 -142.395541 
L 196.326316 -142.395541 
L 197.305263 -142.395541 
L 198.284211 -142.395541 
L 199.263158 -142.395541 
L 200.242105 -142.395541 
L 201.221053 -142.395541 
L 202.2 -142.395541 
L 203.178947 -142.395541 
L 204.157895 -142.395541 
L 205.136842 -142.395541 
L 206.115789 -142.395541 
L 207.094737 -142.395541 
L 208.073684 -142.395541 
L 209.052632 -142.395541 
L 210.031579 -142.395541 
L 211.010526 -142.395541 
L 211.989474 -142.395541 
L 212.968421 -142.395541 
L 213.947368 -142.395541 
L 214.926316 -142.395541 
L 215.905263 -142.395541 
L 216.884211 -142.395541 
L 217.863158 -142.395541 
L 218.842105 -142.395541 
L 219.821053 -142.395541 
L 220.8 -142.395541 
L 221.778947 -142.395541 
L 222.757895 -142.395541 
L 223.736842 -142.395541 
L 224.715789 -142.395541 
L 225.694737 -142.395541 
L 226.673684 -142.395541 
L 227.652632 -142.395541 
L 228.631579 -142.395541 
L 229.610526 -142.395541 
L 230.589474 -142.395541 
L 231.568421 -142.395541 
L 232.547368 -142.395541 
L 233.526316 -142.395541 
L 234.505263 -142.395541 
L 235.484211 -142.395541 
L 236.463158 -142.395541 
L 237.442105 -142.395541 
L 238.421053 -142.395541 
L 239.4 -142.395541 
L 240.378947 -142.395541 
L 241.357895 -142.395541 
L 242.336842 -142.395541 
L 243.315789 -142.395541 
L 244.294737 -142.395541 
L 245.273684 -142.395541 
L 246.252632 -142.395541 
L 247.231579 -142.395541 
L 248.210526 -142.395541 
L 249.189474 -142.395541 
L 250.168421 -142.395541 
L 251.147368 -142.395541 
L 252.126316 -142.395541 
L 253.105263 -142.395541 
L 254.084211 -142.395541 
L 255.063158 -142.395541 
L 256.042105 -142.395541 
L 257.021053 -142.395541 
L 258 -142.395541 
L 258.978947 -142.395541 
L 259.957895 -142.395541 
L 260.936842 -142.395541 
L 261.915789 -142.395541 
L 262.894737 -142.395541 
L 263.873684 -142.395541 
L 264.852632 -142.395541 
L 265.831579 -142.395541 
L 266.810526 -142.395541 
L 267.789474 -142.395541 
L 268.768421 -142.395541 
L 269.747368 -142.395541 
L 270.726316 -142.395541 
L 271.705263 -142.395541 
L 272.684211 -142.395541 
L 273.663158 -142.395541 
L 274.642105 -142.395541 
L 275.621053 -142.395541 
L 276.6 -142.395541 
L 277.578947 -142.395541 
L 278.557895 -142.395541 
L 279.536842 -142.395541 
L 280.515789 -142.395541 
L 281.494737 -142.395541 
L 282.473684 -142.395541 
L 283.452632 -142.395541 
L 284.431579 -142.395541 
L 285.410526 -142.395541 
L 286.389474 -142.395541 
L 287.368421 -142.395541 
L 288.347368 -142.395541 
L 289.326316 -142.395541 
L 290.305263 -142.395541 
L 291.284211 -142.395541 
L 292.263158 -142.395541 
L 293.242105 -142.395541 
L 294.221053 -142.395541 
L 295.2 -142.395541 
L 296.178947 -142.395541 
L 297.157895 -142.395541 
L 298.136842 -142.395541 
L 299.115789 -142.395541 
L 300.094737 -142.395541 
L 301.073684 -142.395541 
L 302.052632 -142.395541 
L 303.031579 -142.395541 
L 304.010526 -142.395541 
L 304.989474 -142.395541 
L 305.968421 -142.395541 
L 306.947368 -142.395541 
L 307.926316 -142.395541 
L 308.905263 -142.395541 
L 309.884211 -142.395541 
L 310.863158 -142.395541 
L 311.842105 -142.395541 
L 312.821053 -142.395541 
L 313.8 -142.395541 
L 314.778947 -142.395541 
L 315.757895 -142.395541 
L 316.736842 -142.395541 
L 317.715789 -142.395541 
L 318.694737 -142.395541 
L 319.673684 -142.395541 
L 320.652632 -142.395541 
L 321.631579 -142.395541 
L 322.610526 -142.395541 
L 323.589474 -142.395541 
L 324.568421 -142.395541 
L 325.547368 -142.395541 
L 326.526316 -142.395541 
L 327.505263 -142.395541 
L 328.484211 -142.395541 
L 329.463158 -142.395541 
L 330.442105 -142.395541 
L 331.421053 -142.395541 
L 332.4 -142.395541 
L 333.378947 -142.395541 
L 334.357895 -142.395541 
L 335.336842 -142.395541 
L 336.315789 -142.395541 
L 337.294737 -142.395541 
L 338.273684 -142.395541 
L 339.252632 -142.395541 
L 340.231579 -142.395541 
L 341.210526 -142.395541 
L 342.189474 -142.395541 
L 343.168421 -142.395541 
L 344.147368 -142.395541 
L 345.126316 -142.395541 
L 346.105263 -142.395541 
L 347.084211 -142.395541 
L 348.063158 -142.395541 
L 349.042105 -142.395541 
L 350.021053 -142.395541 
L 351 -142.395541 
L 351.978947 -142.395541 
L 352.957895 -142.395541 
L 353.936842 -142.395541 
L 354.915789 -142.395541 
L 355.894737 -142.395541 
L 356.873684 -142.395541 
L 357.852632 -142.395541 
L 358.831579 -142.395541 
L 359.810526 -142.395541 
L 360.789474 -142.395541 
L 361.768421 -142.395541 
L 362.747368 -142.395541 
L 363.726316 -142.395541 
L 364.705263 -142.395541 
L 365.684211 -142.395541 
L 366.663158 -142.395541 
L 367.642105 -142.395541 
L 368.621053 -142.395541 
L 369.6 -142.395541 
L 370.578947 -142.395541 
L 371.557895 -142.395541 
L 372.536842 -142.395541 
L 373.515789 -142.395541 
L 374.494737 -142.395541 
L 375.473684 -142.395541 
L 376.452632 -142.395541 
L 377.431579 -142.395541 
L 378.410526 -142.395541 
L 379.389474 -142.395541 
L 380.368421 -142.395541 
L 381.347368 -142.395541 
L 382.326316 -142.395541 
L 383.305263 -142.395541 
L 384.284211 -142.395541 
L 385.263158 -142.395541 
L 386.242105 -142.395541 
L 387.221053 -142.395541 
L 388.2 -142.395541 
L 389.178947 -142.395541 
L 390.157895 -142.395541 
L 391.136842 -142.395541 
L 392.115789 -142.395541 
L 393.094737 -142.395541 
L 394.073684 -142.395541 
L 395.052632 -142.395541 
L 396.031579 -142.395541 
L 397.010526 -142.395541 
L 397.989474 -142.395541 
L 398.968421 -142.395541 
L 399.947368 -142.395541 
L 400.926316 -142.395541 
L 401.905263 -142.395541 
L 402.884211 -142.395541 
L 403.863158 -142.395541 
L 404.842105 -142.395541 
L 405.821053 -142.395541 
L 406.8 -142.395541 
L 407.778947 -142.395541 
L 408.757895 -142.395541 
L 409.736842 -142.395541 
L 410.715789 -142.395541 
L 411.694737 -142.395541 
L 412.673684 -142.395541 
L 413.652632 -142.395541 
L 414.631579 -142.395541 
L 415.610526 -142.395541 
L 416.589474 -142.395541 
L 417.568421 -142.395541 
L 418.547368 -142.395541 
L 419.526316 -142.395541 
L 420.505263 -142.395541 
L 421.484211 -142.395541 
L 422.463158 -142.395541 
L 423.442105 -142.395541 
L 424.421053 -142.395541 
L 425.4 -142.395541 
L 426.378947 -142.395541 
L 427.357895 -142.395541 
L 428.336842 -142.395541 
L 429.315789 -142.395541 
L 430.294737 -142.395541 
L 431.273684 -142.395541 
L 432.252632 -142.395541 
L 433.231579 -142.395541 
L 434.210526 -142.395541 
L 435.189474 -142.395541 
L 436.168421 -142.395541 
L 437.147368 -142.395541 
L 438.126316 -142.395541 
L 439.105263 -142.395541 
L 440.084211 -142.395541 
L 441.063158 -142.395541 
L 442.042105 -142.395541 
L 443.021053 -142.395541 
L 444 -142.395541 
L 444.978947 -142.395541 
L 445.957895 -142.395541 
L 446.936842 -142.395541 
L 447.915789 -142.395541 
L 448.894737 -142.395541 
L 449.873684 -142.395541 
L 450.852632 -142.395541 
L 451.831579 -142.395541 
L 452.810526 -142.395541 
L 453.789474 -142.395541 
L 454.768421 -142.395541 
L 455.747368 -142.395541 
L 456.726316 -142.395541 
L 457.705263 -142.395541 
L 458.684211 -142.395541 
L 459.663158 -142.395541 
L 460.642105 -142.395541 
L 461.621053 -142.395541 
L 462.6 -142.395541 
L 463.578947 -142.395541 
L 464.557895 -142.395541 
L 465.536842 -142.395541 
L 466.515789 -142.395541 
L 467.494737 -142.395541 
L 468.473684 -142.395541 
L 469.452632 -142.395541 
L 470.431579 -142.395541 
L 471.410526 -142.395541 
L 472.389474 -142.395541 
L 473.368421 -142.395541 
L 474.347368 -142.395541 
L 475.326316 -142.395541 
L 476.305263 -142.395541 
L 477.284211 -142.395541 
L 478.263158 -142.395541 
L 479.242105 -142.395541 
L 480.221053 -142.395541 
L 481.2 -142.395541 
L 482.178947 -142.395541 
L 483.157895 -142.395541 
L 484.136842 -142.395541 
L 485.115789 -142.395541 
L 486.094737 -142.395541 
L 487.073684 -142.395541 
L 488.052632 -142.395541 
L 489.031579 -142.395541 
L 490.010526 -142.395541 
L 490.989474 -142.395541 
L 491.968421 -142.395541 
L 492.947368 -142.395541 
L 493.926316 -142.395541 
L 494.905263 -142.395541 
L 495.884211 -142.395541 
L 496.863158 -142.395541 
L 497.842105 -142.395541 
L 498.821053 -142.395541 
L 499.8 -142.395541 
L 500.778947 -142.395541 
L 501.757895 -142.395541 
L 502.736842 -142.395541 
L 503.715789 -142.395541 
L 504.694737 -142.395541 
L 505.673684 -142.395541 
L 506.652632 -142.395541 
L 507.631579 -142.395541 
L 508.610526 -142.395541 
L 509.589474 -142.395541 
L 510.568421 -142.395541 
L 511.547368 -142.395541 
L 512.526316 -142.395541 
L 513.505263 -142.395541 
L 514.484211 -142.395541 
L 515.463158 -142.395541 
L 516.442105 -142.395541 
L 517.421053 -142.395541 
L 518.4 -142.395541 
L 518.4 -134.570808 
L 518.4 -134.570808 
L 517.421053 -134.570808 
L 516.442105 -134.570808 
L 515.463158 -134.570808 
L 514.484211 -134.570808 
L 513.505263 -134.570808 
L 512.526316 -134.570808 
L 511.547368 -134.570808 
L 510.568421 -134.570808 
L 509.589474 -134.570808 
L 508.610526 -134.570808 
L 507.631579 -134.570808 
L 506.652632 -134.570808 
L 505.673684 -134.570808 
L 504.694737 -134.570808 
L 503.715789 -134.570808 
L 502.736842 -134.570808 
L 501.757895 -134.570808 
L 500.778947 -134.570808 
L 499.8 -134.570808 
L 498.821053 -134.570808 
L 497.842105 -134.570808 
L 496.863158 -134.570808 
L 495.884211 -134.570808 
L 494.905263 -134.570808 
L 493.926316 -134.570808 
L 492.947368 -134.570808 
L 491.968421 -134.570808 
L 490.989474 -134.570808 
L 490.010526 -134.570808 
L 489.031579 -134.570808 
L 488.052632 -134.570808 
L 487.073684 -134.570808 
L 486.094737 -134.570808 
L 485.115789 -134.570808 
L 484.136842 -134.570808 
L 483.157895 -134.570808 
L 482.178947 -134.570808 
L 481.2 -134.570808 
L 480.221053 -134.570808 
L 479.242105 -134.570808 
L 478.263158 -134.570808 
L 477.284211 -134.570808 
L 476.305263 -134.570808 
L 475.326316 -134.570808 
L 474.347368 -134.570808 
L 473.368421 -134.570808 
L 472.389474 -134.570808 
L 471.410526 -134.570808 
L 470.431579 -134.570808 
L 469.452632 -134.570808 
L 468.473684 -134.570808 
L 467.494737 -134.570808 
L 466.515789 -134.570808 
L 465.536842 -134.570808 
L 464.557895 -134.570808 
L 463.578947 -134.570808 
L 462.6 -134.570808 
L 461.621053 -134.570808 
L 460.642105 -134.570808 
L 459.663158 -134.570808 
L 458.684211 -134.570808 
L 457.705263 -134.570808 
L 456.726316 -134.570808 
L 455.747368 -134.570808 
L 454.768421 -134.570808 
L 453.789474 -134.570808 
L 452.810526 -134.570808 
L 451.831579 -134.570808 
L 450.852632 -134.570808 
L 449.873684 -134.570808 
L 448.894737 -134.570808 
L 447.915789 -134.570808 
L 446.936842 -134.570808 
L 445.957895 -134.570808 
L 444.978947 -134.570808 
L 444 -134.570808 
L 443.021053 -134.570808 
L 442.042105 -134.570808 
L 441.063158 -134.570808 
L 440.084211 -134.570808 
L 439.105263 -134.570808 
L 438.126316 -134.570808 
L 437.147368 -134.570808 
L 436.168421 -134.570808 
L 435.189474 -134.570808 
L 434.210526 -134.570808 
L 433.231579 -134.570808 
L 432.252632 -134.570808 
L 431.273684 -134.570808 
L 430.294737 -134.570808 
L 429.315789 -134.570808 
L 428.336842 -134.570808 
L 427.357895 -134.570808 
L 426.378947 -134.570808 
L 425.4 -134.570808 
L 424.421053 -134.570808 
L 423.442105 -134.570808 
L 422.463158 -134.570808 
L 421.484211 -134.570808 
L 420.505263 -134.570808 
L 419.526316 -134.570808 
L 418.547368 -134.570808 
L 417.568421 -134.570808 
L 416.589474 -134.570808 
L 415.610526 -134.570808 
L 414.631579 -134.570808 
L 413.652632 -134.570808 
L 412.673684 -134.570808 
L 411.694737 -134.570808 
L 410.715789 -134.570808 
L 409.736842 -134.570808 
L 408.757895 -134.570808 
L 407.778947 -134.570808 
L 406.8 -134.570808 
L 405.821053 -134.570808 
L 404.842105 -134.570808 
L 403.863158 -134.570808 
L 402.884211 -134.570808 
L 401.905263 -134.570808 
L 400.926316 -134.570808 
L 399.947368 -134.570808 
L 398.968421 -134.570808 
L 397.989474 -134.570808 
L 397.010526 -134.570808 
L 396.031579 -134.570808 
L 395.052632 -134.570808 
L 394.073684 -134.570808 
L 393.094737 -134.570808 
L 392.115789 -134.570808 
L 391.136842 -134.570808 
L 390.157895 -134.570808 
L 389.178947 -134.570808 
L 388.2 -134.570808 
L 387.221053 -134.570808 
L 386.242105 -134.570808 
L 385.263158 -134.570808 
L 384.284211 -134.570808 
L 383.305263 -134.570808 
L 382.326316 -134.570808 
L 381.347368 -134.570808 
L 380.368421 -134.570808 
L 379.389474 -134.570808 
L 378.410526 -134.570808 
L 377.431579 -134.570808 
L 376.452632 -134.570808 
L 375.473684 -134.570808 
L 374.494737 -134.570808 
L 373.515789 -134.570808 
L 372.536842 -134.570808 
L 371.557895 -134.570808 
L 370.578947 -134.570808 
L 369.6 -134.570808 
L 368.621053 -134.570808 
L 367.642105 -134.570808 
L 366.663158 -134.570808 
L 365.684211 -134.570808 
L 364.705263 -134.570808 
L 363.726316 -134.570808 
L 362.747368 -134.570808 
L 361.768421 -134.570808 
L 360.789474 -134.570808 
L 359.810526 -134.570808 
L 358.831579 -134.570808 
L 357.852632 -134.570808 
L 356.873684 -134.570808 
L 355.894737 -134.570808 
L 354.915789 -134.570808 
L 353.936842 -134.570808 
L 352.957895 -134.570808 
L 351.978947 -134.570808 
L 351 -134.570808 
L 350.021053 -134.570808 
L 349.042105 -134.570808 
L 348.063158 -134.570808 
L 347.084211 -134.570808 
L 346.105263 -134.570808 
L 345.126316 -134.570808 
L 344.147368 -134.570808 
L 343.168421 -134.570808 
L 342.189474 -134.570808 
L 341.210526 -134.570808 
L 340.231579 -134.570808 
L 339.252632 -134.570808 
L 338.273684 -134.570808 
L 337.294737 -134.570808 
L 336.315789 -134.570808 
L 335.336842 -134.570808 
L 334.357895 -134.570808 
L 333.378947 -134.570808 
L 332.4 -134.570808 
L 331.421053 -134.570808 
L 330.442105 -134.570808 
L 329.463158 -134.570808 
L 328.484211 -134.570808 
L 327.505263 -134.570808 
L 326.526316 -134.570808 
L 325.547368 -134.570808 
L 324.568421 -134.570808 
L 323.589474 -134.570808 
L 322.610526 -134.570808 
L 321.631579 -134.570808 
L 320.652632 -134.570808 
L 319.673684 -134.570808 
L 318.694737 -134.570808 
L 317.715789 -134.570808 
L 316.736842 -134.570808 
L 315.757895 -134.570808 
L 314.778947 -134.570808 
L 313.8 -134.570808 
L 312.821053 -134.570808 
L 311.842105 -134.570808 
L 310.863158 -134.570808 
L 309.884211 -134.570808 
L 308.905263 -134.570808 
L 307.926316 -134.570808 
L 306.947368 -134.570808 
L 305.968421 -134.570808 
L 304.989474 -134.570808 
L 304.010526 -134.570808 
L 303.031579 -134.570808 
L 302.052632 -134.570808 
L 301.073684 -134.570808 
L 300.094737 -134.570808 
L 299.115789 -134.570808 
L 298.136842 -134.570808 
L 297.157895 -134.570808 
L 296.178947 -134.570808 
L 295.2 -134.570808 
L 294.221053 -134.570808 
L 293.242105 -134.570808 
L 292.263158 -134.570808 
L 291.284211 -134.570808 
L 290.305263 -134.570808 
L 289.326316 -134.570808 
L 288.347368 -134.570808 
L 287.368421 -134.570808 
L 286.389474 -134.570808 
L 285.410526 -134.570808 
L 284.431579 -134.570808 
L 283.452632 -134.570808 
L 282.473684 -134.570808 
L 281.494737 -134.570808 
L 280.515789 -134.570808 
L 279.536842 -134.570808 
L 278.557895 -134.570808 
L 277.578947 -134.570808 
L 276.6 -134.570808 
L 275.621053 -134.570808 
L 274.642105 -134.570808 
L 273.663158 -134.570808 
L 272.684211 -134.570808 
L 271.705263 -134.570808 
L 270.726316 -134.570808 
L 269.747368 -134.570808 
L 268.768421 -134.570808 
L 267.789474 -134.570808 
L 266.810526 -134.570808 
L 265.831579 -134.570808 
L 264.852632 -134.570808 
L 263.873684 -134.570808 
L 262.894737 -134.570808 
L 261.915789 -134.570808 
L 260.936842 -134.570808 
L 259.957895 -134.570808 
L 258.978947 -134.570808 
L 258 -134.570808 
L 257.021053 -134.570808 
L 256.042105 -134.570808 
L 255.063158 -134.570808 
L 254.084211 -134.570808 
L 253.105263 -134.570808 
L 252.126316 -134.570808 
L 251.147368 -134.570808 
L 250.168421 -134.570808 
L 249.189474 -134.570808 
L 248.210526 -134.570808 
L 247.231579 -134.570808 
L 246.252632 -134.570808 
L 245.273684 -134.570808 
L 244.294737 -134.570808 
L 243.315789 -134.570808 
L 242.336842 -134.570808 
L 241.357895 -134.570808 
L 240.378947 -134.570808 
L 239.4 -134.570808 
L 238.421053 -134.570808 
L 237.442105 -134.570808 
L 236.463158 -134.570808 
L 235.484211 -134.570808 
L 234.505263 -134.570808 
L 233.526316 -134.570808 
L 232.547368 -134.570808 
L 231.568421 -134.570808 
L 230.589474 -134.570808 
L 229.610526 -134.570808 
L 228.631579 -134.570808 
L 227.652632 -134.570808 
L 226.673684 -134.570808 
L 225.694737 -134.570808 
L 224.715789 -134.570808 
L 223.736842 -134.570808 
L 222.757895 -134.570808 
L 221.778947 -134.570808 
L 220.8 -134.570808 
L 219.821053 -134.570808 
L 218.842105 -134.570808 
L 217.863158 -134.570808 
L 216.884211 -134.570808 
L 215.905263 -134.570808 
L 214.926316 -134.570808 
L 213.947368 -134.570808 
L 212.968421 -134.570808 
L 211.989474 -134.570808 
L 211.010526 -134.570808 
L 210.031579 -134.570808 
L 209.052632 -134.570808 
L 208.073684 -134.570808 
L 207.094737 -134.570808 
L 206.115789 -134.570808 
L 205.136842 -134.570808 
L 204.157895 -134.570808 
L 203.178947 -134.570808 
L 202.2 -134.570808 
L 201.221053 -134.570808 
L 200.242105 -134.570808 
L 199.263158 -134.570808 
L 198.284211 -134.570808 
L 197.305263 -134.570808 
L 196.326316 -134.570808 
L 195.347368 -134.570808 
L 194.368421 -134.570808 
L 193.389474 -134.570808 
L 192.410526 -134.570808 
L 191.431579 -134.570808 
L 190.452632 -134.570808 
L 189.473684 -134.570808 
L 188.494737 -134.570808 
L 187.515789 -134.570808 
L 186.536842 -134.570808 
L 185.557895 -134.570808 
L 184.578947 -134.570808 
L 183.6 -134.570808 
L 182.621053 -134.570808 
L 181.642105 -134.570808 
L 180.663158 -134.570808 
L 179.684211 -134.570808 
L 178.705263 -134.570808 
L 177.726316 -134.570808 
L 176.747368 -134.570808 
L 175.768421 -134.570808 
L 174.789474 -134.570808 
L 173.810526 -134.570808 
L 172.831579 -134.570808 
L 171.852632 -134.570808 
L 170.873684 -134.570808 
L 169.894737 -134.570808 
L 168.915789 -134.570808 
L 167.936842 -134.570808 
L 166.957895 -134.570808 
L 165.978947 -134.570808 
L 165 -134.570808 
L 164.021053 -134.570808 
L 163.042105 -134.570808 
L 162.063158 -134.570808 
L 161.084211 -134.570808 
L 160.105263 -134.570808 
L 159.126316 -134.570808 
L 158.147368 -134.570808 
L 157.168421 -134.570808 
L 156.189474 -134.570808 
L 155.210526 -134.570808 
L 154.231579 -134.570808 
L 153.252632 -134.570808 
L 152.273684 -134.570808 
L 151.294737 -134.570808 
L 150.315789 -134.570808 
L 149.336842 -134.570808 
L 148.357895 -134.570808 
L 147.378947 -134.570808 
L 146.4 -134.570808 
L 145.421053 -134.570808 
L 144.442105 -134.570808 
L 143.463158 -134.570808 
L 142.484211 -134.570808 
L 141.505263 -134.570808 
L 140.526316 -134.570808 
L 139.547368 -134.570808 
L 138.568421 -134.570808 
L 137.589474 -134.570808 
L 136.610526 -134.570808 
L 135.631579 -134.570808 
L 134.652632 -134.570808 
L 133.673684 -134.570808 
L 132.694737 -134.570808 
L 131.715789 -134.570808 
L 130.736842 -134.570808 
L 129.757895 -134.570808 
L 128.778947 -134.570808 
L 127.8 -134.570808 
L 126.821053 -134.570808 
L 125.842105 -134.570808 
L 124.863158 -134.570808 
L 123.884211 -134.570808 
L 122.905263 -134.570808 
L 121.926316 -134.570808 
L 120.947368 -134.570808 
L 119.968421 -134.570808 
L 118.989474 -134.570808 
L 118.010526 -134.570808 
L 117.031579 -134.570808 
L 116.052632 -134.570808 
L 115.073684 -134.570808 
L 114.094737 -134.570808 
L 113.115789 -134.570808 
L 112.136842 -134.570808 
L 111.157895 -134.570808 
L 110.178947 -134.570808 
L 109.2 -134.570808 
L 108.221053 -134.570808 
L 107.242105 -134.570808 
L 106.263158 -134.570808 
L 105.284211 -134.570808 
L 104.305263 -134.570808 
L 103.326316 -134.570808 
L 102.347368 -134.570808 
L 101.368421 -134.570808 
L 100.389474 -134.570808 
L 99.410526 -134.570808 
L 98.431579 -134.570808 
L 97.452632 -134.570808 
L 96.473684 -134.570808 
L 95.494737 -134.570808 
L 94.515789 -134.570808 
L 93.536842 -134.570808 
L 92.557895 -134.570808 
L 91.578947 -134.570808 
L 90.6 -134.570808 
L 89.621053 -134.570808 
L 88.642105 -134.570808 
L 87.663158 -134.570808 
L 86.684211 -134.570808 
L 85.705263 -134.570808 
L 84.726316 -134.570808 
L 83.747368 -134.570808 
L 82.768421 -134.570808 
L 81.789474 -134.570808 
L 80.810526 -134.570808 
L 79.831579 -134.570808 
L 78.852632 -134.570808 
L 77.873684 -134.570808 
L 76.894737 -134.570808 
L 75.915789 -134.570808 
L 74.936842 -134.570808 
L 73.957895 -134.570808 
L 72.978947 -134.570808 
L 72 -134.570808 
z
" id="m4eba5113c0"/>
    </defs>
    <g clip-path="url(#p1bffb568fe)">
     <use style="fill-opacity:0.15;" x="0" xlink:href="#m4eba5113c0" y="360"/>
    </g>
   </g>
   <g id="matplotlib.axis_1">
    <g id="xtick_1">
     <g id="line2d_1">
      <defs>
       <path d="M 0 0 
L 0 3.5 
" id="mfab9074208" style="stroke:#000000;stroke-width:0.8;"/>
      </defs>
      <g>
       <use style="stroke:#000000;stroke-width:0.8;" x="72" xlink:href="#mfab9074208" y="320.4"/>
      </g>
     </g>
     <g id="text_1">
      <!-- 0.0 -->
      <g transform="translate(60.867812 338.037813)scale(0.14 -0.14)">
       <defs>
        <path d="M 2034 4250 
Q 1547 4250 1301 3770 
Q 1056 3291 1056 2328 
Q 1056 1369 1301 889 
Q 1547 409 2034 409 
Q 2525 409 2770 889 
Q 3016 1369 3016 2328 
Q 3016 3291 2770 3770 
Q 2525 4250 2034 4250 
z
M 2034 4750 
Q 2819 4750 3233 4129 
Q 3647 3509 3647 2328 
Q 3647 1150 3233 529 
Q 2819 -91 2034 -91 
Q 1250 -91 836 529 
Q 422 1150 422 2328 
Q 422 3509 836 4129 
Q 1250 4750 2034 4750 
z
" id="DejaVuSans-30" transform="scale(0.015625)"/>
        <path d="M 684 794 
L 1344 794 
L 1344 0 
L 684 0 
L 684 794 
z
" id="DejaVuSans-2e" transform="scale(0.015625)"/>
       </defs>
       <use xlink:href="#DejaVuSans-30"/>
       <use x="63.623047" xlink:href="#DejaVuSans-2e"/>
       <use x="95.410156" xlink:href="#DejaVuSans-30"/>
      </g>
     </g>
    </g>
    <g id="xtick_2">
     <g id="line2d_2">
      <g>
       <use style="stroke:#000000;stroke-width:0.8;" x="127.917427" xlink:href="#mfab9074208" y="320.4"/>
      </g>
     </g>
     <g id="text_2">
      <!-- 2.5 -->
      <g transform="translate(116.785239 338.037813)scale(0.14 -0.14)">
       <defs>
        <path d="M 1228 531 
L 3431 531 
L 3431 0 
L 469 0 
L 469 531 
Q 828 903 1448 1529 
Q 2069 2156 2228 2338 
Q 2531 2678 2651 2914 
Q 2772 3150 2772 3378 
Q 2772 3750 2511 3984 
Q 2250 4219 1831 4219 
Q 1534 4219 1204 4116 
Q 875 4013 500 3803 
L 500 4441 
Q 881 4594 1212 4672 
Q 1544 4750 1819 4750 
Q 2544 4750 2975 4387 
Q 3406 4025 3406 3419 
Q 3406 3131 3298 2873 
Q 3191 2616 2906 2266 
Q 2828 2175 2409 1742 
Q 1991 1309 1228 531 
z
" id="DejaVuSans-32" transform="scale(0.015625)"/>
        <path d="M 691 4666 
L 3169 4666 
L 3169 4134 
L 1269 4134 
L 1269 2991 
Q 1406 3038 1543 3061 
Q 1681 3084 1819 3084 
Q 2600 3084 3056 2656 
Q 3513 2228 3513 1497 
Q 3513 744 3044 326 
Q 2575 -91 1722 -91 
Q 1428 -91 1123 -41 
Q 819 9 494 109 
L 494 744 
Q 775 591 1075 516 
Q 1375 441 1709 441 
Q 2250 441 2565 725 
Q 2881 1009 2881 1497 
Q 2881 1984 2565 2268 
Q 2250 2553 1709 2553 
Q 1456 2553 1204 2497 
Q 953 2441 691 2322 
L 691 4666 
z
" id="DejaVuSans-35" transform="scale(0.015625)"/>
       </defs>
       <use xlink:href="#DejaVuSans-32"/>
       <use x="63.623047" xlink:href="#DejaVuSans-2e"/>
       <use x="95.410156" xlink:href="#DejaVuSans-35"/>
      </g>
     </g>
    </g>
    <g id="xtick_3">
     <g id="line2d_3">
      <g>
       <use style="stroke:#000000;stroke-width:0.8;" x="183.834853" xlink:href="#mfab9074208" y="320.4"/>
      </g>
     </g>
     <g id="text_3">
      <!-- 5.0 -->
      <g transform="translate(172.702666 338.037813)scale(0.14 -0.14)">
       <use xlink:href="#DejaVuSans-35"/>
       <use x="63.623047" xlink:href="#DejaVuSans-2e"/>
       <use x="95.410156" xlink:href="#DejaVuSans-30"/>
      </g>
     </g>
    </g>
    <g id="xtick_4">
     <g id="line2d_4">
      <g>
       <use style="stroke:#000000;stroke-width:0.8;" x="239.75228" xlink:href="#mfab9074208" y="320.4"/>
      </g>
     </g>
     <g id="text_4">
      <!-- 7.5 -->
      <g transform="translate(228.620092 338.037813)scale(0.14 -0.14)">
       <defs>
        <path d="M 525 4666 
L 3525 4666 
L 3525 4397 
L 1831 0 
L 1172 0 
L 2766 4134 
L 525 4134 
L 525 4666 
z
" id="DejaVuSans-37" transform="scale(0.015625)"/>
       </defs>
       <use xlink:href="#DejaVuSans-37"/>
       <use x="63.623047" xlink:href="#DejaVuSans-2e"/>
       <use x="95.410156" xlink:href="#DejaVuSans-35"/>
      </g>
     </g>
    </g>
    <g id="xtick_5">
     <g id="line2d_5">
      <g>
       <use style="stroke:#000000;stroke-width:0.8;" x="295.669706" xlink:href="#mfab9074208" y="320.4"/>
      </g>
     </g>
     <g id="text_5">
      <!-- 10.0 -->
      <g transform="translate(280.083769 338.037813)scale(0.14 -0.14)">
       <defs>
        <path d="M 794 531 
L 1825 531 
L 1825 4091 
L 703 3866 
L 703 4441 
L 1819 4666 
L 2450 4666 
L 2450 531 
L 3481 531 
L 3481 0 
L 794 0 
L 794 531 
z
" id="DejaVuSans-31" transform="scale(0.015625)"/>
       </defs>
       <use xlink:href="#DejaVuSans-31"/>
       <use x="63.623047" xlink:href="#DejaVuSans-30"/>
       <use x="127.246094" xlink:href="#DejaVuSans-2e"/>
       <use x="159.033203" xlink:href="#DejaVuSans-30"/>
      </g>
     </g>
    </g>
    <g id="xtick_6">
     <g id="line2d_6">
      <g>
       <use style="stroke:#000000;stroke-width:0.8;" x="351.587133" xlink:href="#mfab9074208" y="320.4"/>
      </g>
     </g>
     <g id="text_6">
      <!-- 12.5 -->
      <g transform="translate(336.001195 338.037813)scale(0.14 -0.14)">
       <use xlink:href="#DejaVuSans-31"/>
       <use x="63.623047" xlink:href="#DejaVuSans-32"/>
       <use x="127.246094" xlink:href="#DejaVuSans-2e"/>
       <use x="159.033203" xlink:href="#DejaVuSans-35"/>
      </g>
     </g>
    </g>
    <g id="xtick_7">
     <g id="line2d_7">
      <g>
       <use style="stroke:#000000;stroke-width:0.8;" x="407.50456" xlink:href="#mfab9074208" y="320.4"/>
      </g>
     </g>
     <g id="text_7">
      <!-- 15.0 -->
      <g transform="translate(391.918622 338.037813)scale(0.14 -0.14)">
       <use xlink:href="#DejaVuSans-31"/>
       <use x="63.623047" xlink:href="#DejaVuSans-35"/>
       <use x="127.246094" xlink:href="#DejaVuSans-2e"/>
       <use x="159.033203" xlink:href="#DejaVuSans-30"/>
      </g>
     </g>
    </g>
    <g id="xtick_8">
     <g id="line2d_8">
      <g>
       <use style="stroke:#000000;stroke-width:0.8;" x="463.421986" xlink:href="#mfab9074208" y="320.4"/>
      </g>
     </g>
     <g id="text_8">
      <!-- 17.5 -->
      <g transform="translate(447.836049 338.037813)scale(0.14 -0.14)">
       <use xlink:href="#DejaVuSans-31"/>
       <use x="63.623047" xlink:href="#DejaVuSans-37"/>
       <use x="127.246094" xlink:href="#DejaVuSans-2e"/>
       <use x="159.033203" xlink:href="#DejaVuSans-35"/>
      </g>
     </g>
    </g>
    <g id="text_9">
     <!-- Time [Seconds] -->
     <g transform="translate(233.23 357.106875)scale(0.16 -0.16)">
      <defs>
       <path d="M -19 4666 
L 3928 4666 
L 3928 4134 
L 2272 4134 
L 2272 0 
L 1638 0 
L 1638 4134 
L -19 4134 
L -19 4666 
z
" id="DejaVuSans-54" transform="scale(0.015625)"/>
       <path d="M 603 3500 
L 1178 3500 
L 1178 0 
L 603 0 
L 603 3500 
z
M 603 4863 
L 1178 4863 
L 1178 4134 
L 603 4134 
L 603 4863 
z
" id="DejaVuSans-69" transform="scale(0.015625)"/>
       <path d="M 3328 2828 
Q 3544 3216 3844 3400 
Q 4144 3584 4550 3584 
Q 5097 3584 5394 3201 
Q 5691 2819 5691 2113 
L 5691 0 
L 5113 0 
L 5113 2094 
Q 5113 2597 4934 2840 
Q 4756 3084 4391 3084 
Q 3944 3084 3684 2787 
Q 3425 2491 3425 1978 
L 3425 0 
L 2847 0 
L 2847 2094 
Q 2847 2600 2669 2842 
Q 2491 3084 2119 3084 
Q 1678 3084 1418 2786 
Q 1159 2488 1159 1978 
L 1159 0 
L 581 0 
L 581 3500 
L 1159 3500 
L 1159 2956 
Q 1356 3278 1631 3431 
Q 1906 3584 2284 3584 
Q 2666 3584 2933 3390 
Q 3200 3197 3328 2828 
z
" id="DejaVuSans-6d" transform="scale(0.015625)"/>
       <path d="M 3597 1894 
L 3597 1613 
L 953 1613 
Q 991 1019 1311 708 
Q 1631 397 2203 397 
Q 2534 397 2845 478 
Q 3156 559 3463 722 
L 3463 178 
Q 3153 47 2828 -22 
Q 2503 -91 2169 -91 
Q 1331 -91 842 396 
Q 353 884 353 1716 
Q 353 2575 817 3079 
Q 1281 3584 2069 3584 
Q 2775 3584 3186 3129 
Q 3597 2675 3597 1894 
z
M 3022 2063 
Q 3016 2534 2758 2815 
Q 2500 3097 2075 3097 
Q 1594 3097 1305 2825 
Q 1016 2553 972 2059 
L 3022 2063 
z
" id="DejaVuSans-65" transform="scale(0.015625)"/>
       <path id="DejaVuSans-20" transform="scale(0.015625)"/>
       <path d="M 550 4863 
L 1875 4863 
L 1875 4416 
L 1125 4416 
L 1125 -397 
L 1875 -397 
L 1875 -844 
L 550 -844 
L 550 4863 
z
" id="DejaVuSans-5b" transform="scale(0.015625)"/>
       <path d="M 3425 4513 
L 3425 3897 
Q 3066 4069 2747 4153 
Q 2428 4238 2131 4238 
Q 1616 4238 1336 4038 
Q 1056 3838 1056 3469 
Q 1056 3159 1242 3001 
Q 1428 2844 1947 2747 
L 2328 2669 
Q 3034 2534 3370 2195 
Q 3706 1856 3706 1288 
Q 3706 609 3251 259 
Q 2797 -91 1919 -91 
Q 1588 -91 1214 -16 
Q 841 59 441 206 
L 441 856 
Q 825 641 1194 531 
Q 1563 422 1919 422 
Q 2459 422 2753 634 
Q 3047 847 3047 1241 
Q 3047 1584 2836 1778 
Q 2625 1972 2144 2069 
L 1759 2144 
Q 1053 2284 737 2584 
Q 422 2884 422 3419 
Q 422 4038 858 4394 
Q 1294 4750 2059 4750 
Q 2388 4750 2728 4690 
Q 3069 4631 3425 4513 
z
" id="DejaVuSans-53" transform="scale(0.015625)"/>
       <path d="M 3122 3366 
L 3122 2828 
Q 2878 2963 2633 3030 
Q 2388 3097 2138 3097 
Q 1578 3097 1268 2742 
Q 959 2388 959 1747 
Q 959 1106 1268 751 
Q 1578 397 2138 397 
Q 2388 397 2633 464 
Q 2878 531 3122 666 
L 3122 134 
Q 2881 22 2623 -34 
Q 2366 -91 2075 -91 
Q 1284 -91 818 406 
Q 353 903 353 1747 
Q 353 2603 823 3093 
Q 1294 3584 2113 3584 
Q 2378 3584 2631 3529 
Q 2884 3475 3122 3366 
z
" id="DejaVuSans-63" transform="scale(0.015625)"/>
       <path d="M 1959 3097 
Q 1497 3097 1228 2736 
Q 959 2375 959 1747 
Q 959 1119 1226 758 
Q 1494 397 1959 397 
Q 2419 397 2687 759 
Q 2956 1122 2956 1747 
Q 2956 2369 2687 2733 
Q 2419 3097 1959 3097 
z
M 1959 3584 
Q 2709 3584 3137 3096 
Q 3566 2609 3566 1747 
Q 3566 888 3137 398 
Q 2709 -91 1959 -91 
Q 1206 -91 779 398 
Q 353 888 353 1747 
Q 353 2609 779 3096 
Q 1206 3584 1959 3584 
z
" id="DejaVuSans-6f" transform="scale(0.015625)"/>
       <path d="M 3513 2113 
L 3513 0 
L 2938 0 
L 2938 2094 
Q 2938 2591 2744 2837 
Q 2550 3084 2163 3084 
Q 1697 3084 1428 2787 
Q 1159 2491 1159 1978 
L 1159 0 
L 581 0 
L 581 3500 
L 1159 3500 
L 1159 2956 
Q 1366 3272 1645 3428 
Q 1925 3584 2291 3584 
Q 2894 3584 3203 3211 
Q 3513 2838 3513 2113 
z
" id="DejaVuSans-6e" transform="scale(0.015625)"/>
       <path d="M 2906 2969 
L 2906 4863 
L 3481 4863 
L 3481 0 
L 2906 0 
L 2906 525 
Q 2725 213 2448 61 
Q 2172 -91 1784 -91 
Q 1150 -91 751 415 
Q 353 922 353 1747 
Q 353 2572 751 3078 
Q 1150 3584 1784 3584 
Q 2172 3584 2448 3432 
Q 2725 3281 2906 2969 
z
M 947 1747 
Q 947 1113 1208 752 
Q 1469 391 1925 391 
Q 2381 391 2643 752 
Q 2906 1113 2906 1747 
Q 2906 2381 2643 2742 
Q 2381 3103 1925 3103 
Q 1469 3103 1208 2742 
Q 947 2381 947 1747 
z
" id="DejaVuSans-64" transform="scale(0.015625)"/>
       <path d="M 2834 3397 
L 2834 2853 
Q 2591 2978 2328 3040 
Q 2066 3103 1784 3103 
Q 1356 3103 1142 2972 
Q 928 2841 928 2578 
Q 928 2378 1081 2264 
Q 1234 2150 1697 2047 
L 1894 2003 
Q 2506 1872 2764 1633 
Q 3022 1394 3022 966 
Q 3022 478 2636 193 
Q 2250 -91 1575 -91 
Q 1294 -91 989 -36 
Q 684 19 347 128 
L 347 722 
Q 666 556 975 473 
Q 1284 391 1588 391 
Q 1994 391 2212 530 
Q 2431 669 2431 922 
Q 2431 1156 2273 1281 
Q 2116 1406 1581 1522 
L 1381 1569 
Q 847 1681 609 1914 
Q 372 2147 372 2553 
Q 372 3047 722 3315 
Q 1072 3584 1716 3584 
Q 2034 3584 2315 3537 
Q 2597 3491 2834 3397 
z
" id="DejaVuSans-73" transform="scale(0.015625)"/>
       <path d="M 1947 4863 
L 1947 -844 
L 622 -844 
L 622 -397 
L 1369 -397 
L 1369 4416 
L 622 4416 
L 622 4863 
L 1947 4863 
z
" id="DejaVuSans-5d" transform="scale(0.015625)"/>
      </defs>
      <use xlink:href="#DejaVuSans-54"/>
      <use x="57.958984" xlink:href="#DejaVuSans-69"/>
      <use x="85.742188" xlink:href="#DejaVuSans-6d"/>
      <use x="183.154297" xlink:href="#DejaVuSans-65"/>
      <use x="244.677734" xlink:href="#DejaVuSans-20"/>
      <use x="276.464844" xlink:href="#DejaVuSans-5b"/>
      <use x="315.478516" xlink:href="#DejaVuSans-53"/>
      <use x="378.955078" xlink:href="#DejaVuSans-65"/>
      <use x="440.478516" xlink:href="#DejaVuSans-63"/>
      <use x="495.458984" xlink:href="#DejaVuSans-6f"/>
      <use x="556.640625" xlink:href="#DejaVuSans-6e"/>
      <use x="620.019531" xlink:href="#DejaVuSans-64"/>
      <use x="683.496094" xlink:href="#DejaVuSans-73"/>
      <use x="735.595703" xlink:href="#DejaVuSans-5d"/>
     </g>
    </g>
   </g>
   <g id="matplotlib.axis_2">
    <g id="ytick_1">
     <g id="line2d_9">
      <defs>
       <path d="M 0 0 
L -3.5 0 
" id="m3286455533" style="stroke:#000000;stroke-width:0.8;"/>
      </defs>
      <g>
       <use style="stroke:#000000;stroke-width:0.8;" x="72" xlink:href="#m3286455533" y="318.807836"/>
      </g>
     </g>
     <g id="text_10">
      <!-- −0.25 -->
      <g transform="translate(22.096562 324.126742)scale(0.14 -0.14)">
       <defs>
        <path d="M 678 2272 
L 4684 2272 
L 4684 1741 
L 678 1741 
L 678 2272 
z
" id="DejaVuSans-2212" transform="scale(0.015625)"/>
       </defs>
       <use xlink:href="#DejaVuSans-2212"/>
       <use x="83.789062" xlink:href="#DejaVuSans-30"/>
       <use x="147.412109" xlink:href="#DejaVuSans-2e"/>
       <use x="179.199219" xlink:href="#DejaVuSans-32"/>
       <use x="242.822266" xlink:href="#DejaVuSans-35"/>
      </g>
     </g>
    </g>
    <g id="ytick_2">
     <g id="line2d_10">
      <g>
       <use style="stroke:#000000;stroke-width:0.8;" x="72" xlink:href="#m3286455533" y="286.814648"/>
      </g>
     </g>
     <g id="text_11">
      <!-- 0.00 -->
      <g transform="translate(33.828125 292.133554)scale(0.14 -0.14)">
       <use xlink:href="#DejaVuSans-30"/>
       <use x="63.623047" xlink:href="#DejaVuSans-2e"/>
       <use x="95.410156" xlink:href="#DejaVuSans-30"/>
       <use x="159.033203" xlink:href="#DejaVuSans-30"/>
      </g>
     </g>
    </g>
    <g id="ytick_3">
     <g id="line2d_11">
      <g>
       <use style="stroke:#000000;stroke-width:0.8;" x="72" xlink:href="#m3286455533" y="254.82146"/>
      </g>
     </g>
     <g id="text_12">
      <!-- 0.25 -->
      <g transform="translate(33.828125 260.140366)scale(0.14 -0.14)">
       <use xlink:href="#DejaVuSans-30"/>
       <use x="63.623047" xlink:href="#DejaVuSans-2e"/>
       <use x="95.410156" xlink:href="#DejaVuSans-32"/>
       <use x="159.033203" xlink:href="#DejaVuSans-35"/>
      </g>
     </g>
    </g>
    <g id="ytick_4">
     <g id="line2d_12">
      <g>
       <use style="stroke:#000000;stroke-width:0.8;" x="72" xlink:href="#m3286455533" y="222.828272"/>
      </g>
     </g>
     <g id="text_13">
      <!-- 0.50 -->
      <g transform="translate(33.828125 228.147178)scale(0.14 -0.14)">
       <use xlink:href="#DejaVuSans-30"/>
       <use x="63.623047" xlink:href="#DejaVuSans-2e"/>
       <use x="95.410156" xlink:href="#DejaVuSans-35"/>
       <use x="159.033203" xlink:href="#DejaVuSans-30"/>
      </g>
     </g>
    </g>
    <g id="ytick_5">
     <g id="line2d_13">
      <g>
       <use style="stroke:#000000;stroke-width:0.8;" x="72" xlink:href="#m3286455533" y="190.835084"/>
      </g>
     </g>
     <g id="text_14">
      <!-- 0.75 -->
      <g transform="translate(33.828125 196.15399)scale(0.14 -0.14)">
       <use xlink:href="#DejaVuSans-30"/>
       <use x="63.623047" xlink:href="#DejaVuSans-2e"/>
       <use x="95.410156" xlink:href="#DejaVuSans-37"/>
       <use x="159.033203" xlink:href="#DejaVuSans-35"/>
      </g>
     </g>
    </g>
    <g id="ytick_6">
     <g id="line2d_14">
      <g>
       <use style="stroke:#000000;stroke-width:0.8;" x="72" xlink:href="#m3286455533" y="158.841896"/>
      </g>
     </g>
     <g id="text_15">
      <!-- 1.00 -->
      <g transform="translate(33.828125 164.160802)scale(0.14 -0.14)">
       <use xlink:href="#DejaVuSans-31"/>
       <use x="63.623047" xlink:href="#DejaVuSans-2e"/>
       <use x="95.410156" xlink:href="#DejaVuSans-30"/>
       <use x="159.033203" xlink:href="#DejaVuSans-30"/>
      </g>
     </g>
    </g>
    <g id="ytick_7">
     <g id="line2d_15">
      <g>
       <use style="stroke:#000000;stroke-width:0.8;" x="72" xlink:href="#m3286455533" y="126.848708"/>
      </g>
     </g>
     <g id="text_16">
      <!-- 1.25 -->
      <g transform="translate(33.828125 132.167614)scale(0.14 -0.14)">
       <use xlink:href="#DejaVuSans-31"/>
       <use x="63.623047" xlink:href="#DejaVuSans-2e"/>
       <use x="95.410156" xlink:href="#DejaVuSans-32"/>
       <use x="159.033203" xlink:href="#DejaVuSans-35"/>
      </g>
     </g>
    </g>
    <g id="ytick_8">
     <g id="line2d_16">
      <g>
       <use style="stroke:#000000;stroke-width:0.8;" x="72" xlink:href="#m3286455533" y="94.855519"/>
      </g>
     </g>
     <g id="text_17">
      <!-- 1.50 -->
      <g transform="translate(33.828125 100.174426)scale(0.14 -0.14)">
       <use xlink:href="#DejaVuSans-31"/>
       <use x="63.623047" xlink:href="#DejaVuSans-2e"/>
       <use x="95.410156" xlink:href="#DejaVuSans-35"/>
       <use x="159.033203" xlink:href="#DejaVuSans-30"/>
      </g>
     </g>
    </g>
    <g id="ytick_9">
     <g id="line2d_17">
      <g>
       <use style="stroke:#000000;stroke-width:0.8;" x="72" xlink:href="#m3286455533" y="62.862331"/>
      </g>
     </g>
     <g id="text_18">
      <!-- 1.75 -->
      <g transform="translate(33.828125 68.181238)scale(0.14 -0.14)">
       <use xlink:href="#DejaVuSans-31"/>
       <use x="63.623047" xlink:href="#DejaVuSans-2e"/>
       <use x="95.410156" xlink:href="#DejaVuSans-37"/>
       <use x="159.033203" xlink:href="#DejaVuSans-35"/>
      </g>
     </g>
    </g>
    <g id="text_19">
     <!-- Speed [mm/s] -->
     <g transform="translate(14.769062 238.11375)rotate(-90)scale(0.16 -0.16)">
      <defs>
       <path d="M 1159 525 
L 1159 -1331 
L 581 -1331 
L 581 3500 
L 1159 3500 
L 1159 2969 
Q 1341 3281 1617 3432 
Q 1894 3584 2278 3584 
Q 2916 3584 3314 3078 
Q 3713 2572 3713 1747 
Q 3713 922 3314 415 
Q 2916 -91 2278 -91 
Q 1894 -91 1617 61 
Q 1341 213 1159 525 
z
M 3116 1747 
Q 3116 2381 2855 2742 
Q 2594 3103 2138 3103 
Q 1681 3103 1420 2742 
Q 1159 2381 1159 1747 
Q 1159 1113 1420 752 
Q 1681 391 2138 391 
Q 2594 391 2855 752 
Q 3116 1113 3116 1747 
z
" id="DejaVuSans-70" transform="scale(0.015625)"/>
       <path d="M 1625 4666 
L 2156 4666 
L 531 -594 
L 0 -594 
L 1625 4666 
z
" id="DejaVuSans-2f" transform="scale(0.015625)"/>
      </defs>
      <use xlink:href="#DejaVuSans-53"/>
      <use x="63.476562" xlink:href="#DejaVuSans-70"/>
      <use x="126.953125" xlink:href="#DejaVuSans-65"/>
      <use x="188.476562" xlink:href="#DejaVuSans-65"/>
      <use x="250" xlink:href="#DejaVuSans-64"/>
      <use x="313.476562" xlink:href="#DejaVuSans-20"/>
      <use x="345.263672" xlink:href="#DejaVuSans-5b"/>
      <use x="384.277344" xlink:href="#DejaVuSans-6d"/>
      <use x="481.689453" xlink:href="#DejaVuSans-6d"/>
      <use x="579.101562" xlink:href="#DejaVuSans-2f"/>
      <use x="612.792969" xlink:href="#DejaVuSans-73"/>
      <use x="664.892578" xlink:href="#DejaVuSans-5d"/>
     </g>
    </g>
   </g>
   <g id="line2d_18">
    <path clip-path="url(#p1bffb568fe)" d="M 72 221.516826 
L 518.4 221.516826 
" style="fill:none;stroke:#000000;stroke-dasharray:5.55,2.4;stroke-dashoffset:0;stroke-width:1.5;"/>
   </g>
   <g id="line2d_19">
    <path clip-path="url(#p1bffb568fe)" d="M 72 284.756105 
L 142.484211 284.685148 
L 143.463158 285.061094 
L 145.421053 282.164921 
L 146.4 283.83087 
L 147.378947 287.914198 
L 148.357895 288.410891 
L 149.336842 286.607136 
L 150.315789 272.423641 
L 151.294737 278.860621 
L 152.273684 305.342519 
L 153.252632 307.8 
L 154.231579 292.362241 
L 155.210526 265.901804 
L 156.189474 234.084536 
L 158.147368 151.198451 
L 160.105263 84.502875 
L 161.084211 63.699237 
L 162.063158 55.8 
L 163.042105 58.626808 
L 164.021053 71.102083 
L 165 93.478661 
L 165.978947 119.374198 
L 168.915789 205.589711 
L 169.894737 217.201718 
L 170.873684 211.581284 
L 171.852632 187.501452 
L 172.831579 185.844512 
L 173.810526 201.552272 
L 174.789474 201.284337 
L 175.768421 200.579726 
L 176.747368 203.350215 
L 177.726316 207.931092 
L 178.705263 206.127413 
L 179.684211 207.336212 
L 180.663158 210.322474 
L 181.642105 210.780823 
L 182.621053 210.968149 
L 183.6 212.024726 
L 184.578947 213.388564 
L 185.557895 213.458909 
L 186.536842 214.516549 
L 187.515789 215.406497 
L 189.473684 214.849833 
L 190.452632 215.371463 
L 191.431579 215.591631 
L 192.410526 215.945263 
L 193.389474 216.967818 
L 194.368421 216.359556 
L 195.347368 215.310206 
L 196.326316 216.339966 
L 197.305263 217.169428 
L 198.284211 218.543032 
L 199.263158 218.758805 
L 200.242105 219.903278 
L 201.221053 221.362937 
L 202.2 221.979789 
L 203.178947 224.706242 
L 204.157895 223.587874 
L 205.136842 221.172628 
L 206.115789 220.469267 
L 207.094737 218.798151 
L 208.073684 219.076149 
L 209.052632 220.717481 
L 210.031579 219.81728 
L 211.010526 219.811259 
L 211.989474 220.558194 
L 212.968421 217.926511 
L 213.947368 218.396615 
L 214.926316 221.206156 
L 215.905263 221.831866 
L 216.884211 221.225006 
L 218.842105 221.384561 
L 220.8 219.972535 
L 221.778947 219.663221 
L 222.757895 218.652103 
L 223.736842 218.510277 
L 224.715789 220.935812 
L 225.694737 222.426243 
L 226.673684 221.446779 
L 227.652632 221.742344 
L 228.631579 222.799766 
L 229.610526 225.018513 
L 230.589474 226.81091 
L 231.568421 224.065697 
L 232.547368 224.183005 
L 233.526316 226.111835 
L 234.505263 223.274708 
L 235.484211 219.563212 
L 236.463158 219.27411 
L 237.442105 220.507609 
L 239.4 219.196514 
L 240.378947 220.018381 
L 241.357895 221.105468 
L 242.336842 222.76904 
L 243.315789 223.006089 
L 244.294737 221.950552 
L 245.273684 219.437605 
L 246.252632 219.18876 
L 247.231579 221.621131 
L 248.210526 220.377839 
L 249.189474 218.728676 
L 250.168421 220.893647 
L 251.147368 225.642831 
L 252.126316 226.473514 
L 253.105263 223.018308 
L 254.084211 223.425179 
L 255.063158 225.816699 
L 256.042105 225.37063 
L 257.021053 223.409051 
L 258 221.894827 
L 258.978947 223.526351 
L 259.957895 224.380002 
L 260.936842 222.775896 
L 261.915789 222.382487 
L 262.894737 222.757195 
L 263.873684 222.357068 
L 264.852632 223.645459 
L 265.831579 225.580232 
L 266.810526 223.067036 
L 267.789474 221.024651 
L 268.768421 222.592502 
L 269.747368 223.804374 
L 271.705263 218.940167 
L 272.684211 221.190243 
L 273.663158 222.432664 
L 274.642105 222.967004 
L 275.621053 222.259784 
L 276.6 220.456932 
L 278.557895 221.221236 
L 279.536842 220.384762 
L 280.515789 221.72234 
L 281.494737 222.161013 
L 282.473684 220.727795 
L 284.431579 221.659192 
L 285.410526 218.864686 
L 286.389474 218.814765 
L 287.368421 222.555411 
L 288.347368 223.861888 
L 289.326316 220.76765 
L 290.305263 220.689803 
L 291.284211 225.96912 
L 292.263158 225.224908 
L 293.242105 220.231897 
L 294.221053 220.772807 
L 295.2 224.976659 
L 296.178947 225.969345 
L 297.157895 223.061563 
L 298.136842 222.680171 
L 299.115789 224.304186 
L 301.073684 223.204735 
L 302.052632 223.292333 
L 303.031579 225.528939 
L 304.010526 225.720131 
L 304.989474 224.53866 
L 305.968421 224.236971 
L 306.947368 222.078172 
L 307.926316 221.321623 
L 308.905263 221.258648 
L 309.884211 223.527207 
L 310.863158 223.414327 
L 311.842105 222.33943 
L 312.821053 223.512491 
L 313.8 222.486127 
L 314.778947 222.104315 
L 316.736842 225.573479 
L 317.715789 225.06221 
L 318.694737 221.93201 
L 319.673684 221.004536 
L 320.652632 221.512033 
L 321.631579 220.245555 
L 322.610526 217.196496 
L 323.589474 216.61686 
L 324.568421 221.958949 
L 325.547368 221.354726 
L 326.526316 220.464816 
L 327.505263 222.256766 
L 328.484211 223.814483 
L 329.463158 224.130528 
L 330.442105 220.43045 
L 331.421053 221.629384 
L 332.4 225.476824 
L 333.378947 224.305993 
L 334.357895 221.33005 
L 335.336842 220.197438 
L 336.315789 221.17486 
L 337.294737 224.107869 
L 338.273684 224.654422 
L 339.252632 224.975262 
L 340.231579 225.65307 
L 341.210526 225.310721 
L 342.189474 223.334512 
L 343.168421 222.225731 
L 345.126316 221.770135 
L 346.105263 222.813554 
L 347.084211 220.146826 
L 348.063158 220.55979 
L 349.042105 222.426045 
L 350.021053 221.978551 
L 351 220.291156 
L 351.978947 219.337803 
L 352.957895 221.790354 
L 353.936842 224.726608 
L 354.915789 222.812088 
L 355.894737 221.961121 
L 356.873684 223.002821 
L 357.852632 223.047845 
L 358.831579 224.857587 
L 359.810526 224.811419 
L 360.789474 224.008704 
L 361.768421 224.951919 
L 362.747368 224.441786 
L 363.726316 221.010559 
L 364.705263 220.035448 
L 365.684211 220.585009 
L 367.642105 220.88503 
L 368.621053 219.914645 
L 369.6 220.393026 
L 370.578947 221.463554 
L 371.557895 219.35172 
L 372.536842 219.94643 
L 373.515789 226.003624 
L 374.494737 229.202705 
L 375.473684 227.750969 
L 376.452632 224.226459 
L 377.431579 223.737872 
L 378.410526 224.719844 
L 379.389474 224.337565 
L 380.368421 224.624285 
L 381.347368 223.782225 
L 382.326316 223.191143 
L 383.305263 225.084883 
L 384.284211 224.949921 
L 385.263158 223.215366 
L 386.242105 220.76316 
L 387.221053 221.867446 
L 388.2 223.546166 
L 389.178947 223.614622 
L 390.157895 225.212673 
L 391.136842 223.428161 
L 393.094737 217.891164 
L 394.073684 217.899273 
L 395.052632 221.148711 
L 396.031579 222.136436 
L 397.010526 222.010315 
L 397.989474 224.893797 
L 398.968421 225.102535 
L 399.947368 224.637323 
L 400.926316 225.386577 
L 401.905263 224.945268 
L 402.884211 223.329491 
L 403.863158 220.293525 
L 404.842105 222.00614 
L 405.821053 222.830482 
L 406.8 221.686596 
L 407.778947 220.308359 
L 408.757895 220.0657 
L 409.736842 218.498219 
L 410.715789 218.284688 
L 411.694737 220.860921 
L 412.673684 221.752507 
L 413.652632 223.853181 
L 414.631579 225.344081 
L 415.610526 225.814105 
L 416.589474 226.569483 
L 417.568421 224.994919 
L 418.547368 222.056216 
L 419.526316 222.308469 
L 420.505263 220.100359 
L 421.484211 218.78944 
L 423.442105 223.398627 
L 424.421053 225.001935 
L 425.4 222.627357 
L 426.378947 221.370978 
L 427.357895 222.265938 
L 428.336842 222.464975 
L 429.315789 224.75838 
L 430.294737 224.842955 
L 431.273684 222.964298 
L 432.252632 224.0819 
L 433.231579 223.583763 
L 434.210526 222.242635 
L 435.189474 221.978023 
L 436.168421 220.456475 
L 437.147368 221.915836 
L 438.126316 225.528685 
L 439.105263 224.209177 
L 440.084211 223.379095 
L 441.063158 224.472887 
L 442.042105 224.515542 
L 443.021053 223.0746 
L 444 220.069547 
L 444.978947 221.003191 
L 445.957895 222.400776 
L 446.936842 222.641266 
L 447.915789 223.01802 
L 448.894737 223.57541 
L 449.873684 222.145664 
L 450.852632 220.335878 
L 452.810526 217.663841 
L 454.768421 222.315812 
L 456.726316 225.372907 
L 457.705263 225.82393 
L 458.684211 227.558432 
L 459.663158 226.441157 
L 460.642105 221.792767 
L 461.621053 219.796087 
L 462.6 220.983668 
L 463.578947 223.937582 
L 464.557895 224.287466 
L 465.536842 221.756786 
L 466.515789 222.354877 
L 467.494737 220.817311 
L 468.473684 218.427249 
L 469.452632 220.060205 
L 470.431579 221.212525 
L 471.410526 222.957555 
L 472.389474 222.992589 
L 473.368421 223.449609 
L 474.347368 224.720689 
L 475.326316 224.756715 
L 476.305263 223.915773 
L 477.284211 222.671014 
L 478.263158 222.149774 
L 479.242105 223.093577 
L 480.221053 222.97254 
L 481.2 222.469978 
L 482.178947 223.374077 
L 483.157895 222.156868 
L 484.136842 222.499684 
L 485.115789 222.049663 
L 486.094737 221.310538 
L 487.073684 221.936803 
L 489.031579 224.937852 
L 490.010526 224.350759 
L 490.989474 224.195564 
L 491.968421 222.916543 
L 492.947368 221.41195 
L 493.926316 218.303169 
L 494.905263 217.29325 
L 495.884211 218.595667 
L 496.863158 220.766983 
L 497.842105 224.106992 
L 499.8 226.580218 
L 500.778947 225.734136 
L 501.757895 222.840241 
L 502.736842 221.099903 
L 503.715789 222.010195 
L 504.694737 224.590462 
L 505.673684 225.782472 
L 506.652632 224.032124 
L 507.631579 222.630859 
L 509.589474 221.061466 
L 510.568421 220.434138 
L 511.547368 219.970387 
L 512.526316 219.702757 
L 513.505263 219.654632 
L 514.484211 219.840233 
L 515.463158 220.264619 
L 516.442105 220.923688 
L 517.421053 221.804176 
L 518.4 222.883655 
L 518.4 222.883655 
" style="fill:none;stroke:#ff0000;stroke-linecap:square;stroke-width:2;"/>
   </g>
   <g id="patch_3">
    <path d="M 72 320.4 
L 72 43.2 
" style="fill:none;stroke:#000000;stroke-linecap:square;stroke-linejoin:miter;stroke-width:0.8;"/>
   </g>
   <g id="patch_4">
    <path d="M 518.4 320.4 
L 518.4 43.2 
" style="fill:none;stroke:#000000;stroke-linecap:square;stroke-linejoin:miter;stroke-width:0.8;"/>
   </g>
   <g id="patch_5">
    <path d="M 72 320.4 
L 518.4 320.4 
" style="fill:none;stroke:#000000;stroke-linecap:square;stroke-linejoin:miter;stroke-width:0.8;"/>
   </g>
   <g id="patch_6">
    <path d="M 72 43.2 
L 518.4 43.2 
" style="fill:none;stroke:#000000;stroke-linecap:square;stroke-linejoin:miter;stroke-width:0.8;"/>
   </g>
   <g id="text_20">
    <!-- Front Propogation Speed -->
    <g transform="translate(172.245312 37.2)scale(0.2 -0.2)">
     <defs>
      <path d="M 628 4666 
L 3309 4666 
L 3309 4134 
L 1259 4134 
L 1259 2759 
L 3109 2759 
L 3109 2228 
L 1259 2228 
L 1259 0 
L 628 0 
L 628 4666 
z
" id="DejaVuSans-46" transform="scale(0.015625)"/>
      <path d="M 2631 2963 
Q 2534 3019 2420 3045 
Q 2306 3072 2169 3072 
Q 1681 3072 1420 2755 
Q 1159 2438 1159 1844 
L 1159 0 
L 581 0 
L 581 3500 
L 1159 3500 
L 1159 2956 
Q 1341 3275 1631 3429 
Q 1922 3584 2338 3584 
Q 2397 3584 2469 3576 
Q 2541 3569 2628 3553 
L 2631 2963 
z
" id="DejaVuSans-72" transform="scale(0.015625)"/>
      <path d="M 1172 4494 
L 1172 3500 
L 2356 3500 
L 2356 3053 
L 1172 3053 
L 1172 1153 
Q 1172 725 1289 603 
Q 1406 481 1766 481 
L 2356 481 
L 2356 0 
L 1766 0 
Q 1100 0 847 248 
Q 594 497 594 1153 
L 594 3053 
L 172 3053 
L 172 3500 
L 594 3500 
L 594 4494 
L 1172 4494 
z
" id="DejaVuSans-74" transform="scale(0.015625)"/>
      <path d="M 1259 4147 
L 1259 2394 
L 2053 2394 
Q 2494 2394 2734 2622 
Q 2975 2850 2975 3272 
Q 2975 3691 2734 3919 
Q 2494 4147 2053 4147 
L 1259 4147 
z
M 628 4666 
L 2053 4666 
Q 2838 4666 3239 4311 
Q 3641 3956 3641 3272 
Q 3641 2581 3239 2228 
Q 2838 1875 2053 1875 
L 1259 1875 
L 1259 0 
L 628 0 
L 628 4666 
z
" id="DejaVuSans-50" transform="scale(0.015625)"/>
      <path d="M 2906 1791 
Q 2906 2416 2648 2759 
Q 2391 3103 1925 3103 
Q 1463 3103 1205 2759 
Q 947 2416 947 1791 
Q 947 1169 1205 825 
Q 1463 481 1925 481 
Q 2391 481 2648 825 
Q 2906 1169 2906 1791 
z
M 3481 434 
Q 3481 -459 3084 -895 
Q 2688 -1331 1869 -1331 
Q 1566 -1331 1297 -1286 
Q 1028 -1241 775 -1147 
L 775 -588 
Q 1028 -725 1275 -790 
Q 1522 -856 1778 -856 
Q 2344 -856 2625 -561 
Q 2906 -266 2906 331 
L 2906 616 
Q 2728 306 2450 153 
Q 2172 0 1784 0 
Q 1141 0 747 490 
Q 353 981 353 1791 
Q 353 2603 747 3093 
Q 1141 3584 1784 3584 
Q 2172 3584 2450 3431 
Q 2728 3278 2906 2969 
L 2906 3500 
L 3481 3500 
L 3481 434 
z
" id="DejaVuSans-67" transform="scale(0.015625)"/>
      <path d="M 2194 1759 
Q 1497 1759 1228 1600 
Q 959 1441 959 1056 
Q 959 750 1161 570 
Q 1363 391 1709 391 
Q 2188 391 2477 730 
Q 2766 1069 2766 1631 
L 2766 1759 
L 2194 1759 
z
M 3341 1997 
L 3341 0 
L 2766 0 
L 2766 531 
Q 2569 213 2275 61 
Q 1981 -91 1556 -91 
Q 1019 -91 701 211 
Q 384 513 384 1019 
Q 384 1609 779 1909 
Q 1175 2209 1959 2209 
L 2766 2209 
L 2766 2266 
Q 2766 2663 2505 2880 
Q 2244 3097 1772 3097 
Q 1472 3097 1187 3025 
Q 903 2953 641 2809 
L 641 3341 
Q 956 3463 1253 3523 
Q 1550 3584 1831 3584 
Q 2591 3584 2966 3190 
Q 3341 2797 3341 1997 
z
" id="DejaVuSans-61" transform="scale(0.015625)"/>
     </defs>
     <use xlink:href="#DejaVuSans-46"/>
     <use x="50.269531" xlink:href="#DejaVuSans-72"/>
     <use x="89.132812" xlink:href="#DejaVuSans-6f"/>
     <use x="150.314453" xlink:href="#DejaVuSans-6e"/>
     <use x="213.693359" xlink:href="#DejaVuSans-74"/>
     <use x="252.902344" xlink:href="#DejaVuSans-20"/>
     <use x="284.689453" xlink:href="#DejaVuSans-50"/>
     <use x="343.242188" xlink:href="#DejaVuSans-72"/>
     <use x="382.105469" xlink:href="#DejaVuSans-6f"/>
     <use x="443.287109" xlink:href="#DejaVuSans-70"/>
     <use x="506.763672" xlink:href="#DejaVuSans-6f"/>
     <use x="567.945312" xlink:href="#DejaVuSans-67"/>
     <use x="631.421875" xlink:href="#DejaVuSans-61"/>
     <use x="692.701172" xlink:href="#DejaVuSans-74"/>
     <use x="731.910156" xlink:href="#DejaVuSans-69"/>
     <use x="759.693359" xlink:href="#DejaVuSans-6f"/>
     <use x="820.875" xlink:href="#DejaVuSans-6e"/>
     <use x="884.253906" xlink:href="#DejaVuSans-20"/>
     <use x="916.041016" xlink:href="#DejaVuSans-53"/>
     <use x="979.517578" xlink:href="#DejaVuSans-70"/>
     <use x="1042.994141" xlink:href="#DejaVuSans-65"/>
     <use x="1104.517578" xlink:href="#DejaVuSans-65"/>
     <use x="1166.041016" xlink:href="#DejaVuSans-64"/>
    </g>
   </g>
   <g id="legend_1">
    <g id="patch_7">
     <path d="M 325.967812 111.175687 
L 508.6 111.175687 
Q 511.4 111.175687 511.4 108.375687 
L 511.4 53 
Q 511.4 50.2 508.6 50.2 
L 325.967812 50.2 
Q 323.167812 50.2 323.167812 53 
L 323.167812 108.375687 
Q 323.167812 111.175687 325.967812 111.175687 
z
" style="fill:#ffffff;opacity:0.8;stroke:#cccccc;stroke-linejoin:miter;"/>
    </g>
    <g id="line2d_20">
     <path d="M 328.767812 61.537812 
L 356.767812 61.537812 
" style="fill:none;stroke:#ff0000;stroke-linecap:square;stroke-width:2;"/>
    </g>
    <g id="line2d_21"/>
    <g id="text_21">
     <!-- Front speed -->
     <g transform="translate(367.967812 66.437812)scale(0.14 -0.14)">
      <use xlink:href="#DejaVuSans-46"/>
      <use x="50.269531" xlink:href="#DejaVuSans-72"/>
      <use x="89.132812" xlink:href="#DejaVuSans-6f"/>
      <use x="150.314453" xlink:href="#DejaVuSans-6e"/>
      <use x="213.693359" xlink:href="#DejaVuSans-74"/>
      <use x="252.902344" xlink:href="#DejaVuSans-20"/>
      <use x="284.689453" xlink:href="#DejaVuSans-73"/>
      <use x="336.789062" xlink:href="#DejaVuSans-70"/>
      <use x="400.265625" xlink:href="#DejaVuSans-65"/>
      <use x="461.789062" xlink:href="#DejaVuSans-65"/>
      <use x="523.3125" xlink:href="#DejaVuSans-64"/>
     </g>
    </g>
    <g id="line2d_22">
     <path d="M 328.767812 91.381437 
L 356.767812 91.381437 
" style="fill:none;stroke:#000000;stroke-dasharray:5.55,2.4;stroke-dashoffset:0;stroke-width:1.5;"/>
    </g>
    <g id="line2d_23"/>
    <g id="text_22">
     <!-- Steady state -->
     <g transform="translate(367.967812 86.987187)scale(0.14 -0.14)">
      <defs>
       <path d="M 2059 -325 
Q 1816 -950 1584 -1140 
Q 1353 -1331 966 -1331 
L 506 -1331 
L 506 -850 
L 844 -850 
Q 1081 -850 1212 -737 
Q 1344 -625 1503 -206 
L 1606 56 
L 191 3500 
L 800 3500 
L 1894 763 
L 2988 3500 
L 3597 3500 
L 2059 -325 
z
" id="DejaVuSans-79" transform="scale(0.015625)"/>
      </defs>
      <use xlink:href="#DejaVuSans-53"/>
      <use x="63.476562" xlink:href="#DejaVuSans-74"/>
      <use x="102.685547" xlink:href="#DejaVuSans-65"/>
      <use x="164.208984" xlink:href="#DejaVuSans-61"/>
      <use x="225.488281" xlink:href="#DejaVuSans-64"/>
      <use x="288.964844" xlink:href="#DejaVuSans-79"/>
      <use x="348.144531" xlink:href="#DejaVuSans-20"/>
      <use x="379.931641" xlink:href="#DejaVuSans-73"/>
      <use x="432.03125" xlink:href="#DejaVuSans-74"/>
      <use x="471.240234" xlink:href="#DejaVuSans-61"/>
      <use x="532.519531" xlink:href="#DejaVuSans-74"/>
      <use x="571.728516" xlink:href="#DejaVuSans-65"/>
     </g>
     <!-- speed = 0.51 mm/s -->
     <g transform="translate(367.967812 102.664125)scale(0.14 -0.14)">
      <defs>
       <path d="M 678 2906 
L 4684 2906 
L 4684 2381 
L 678 2381 
L 678 2906 
z
M 678 1631 
L 4684 1631 
L 4684 1100 
L 678 1100 
L 678 1631 
z
" id="DejaVuSans-3d" transform="scale(0.015625)"/>
      </defs>
      <use xlink:href="#DejaVuSans-73"/>
      <use x="52.099609" xlink:href="#DejaVuSans-70"/>
      <use x="115.576172" xlink:href="#DejaVuSans-65"/>
      <use x="177.099609" xlink:href="#DejaVuSans-65"/>
      <use x="238.623047" xlink:href="#DejaVuSans-64"/>
      <use x="302.099609" xlink:href="#DejaVuSans-20"/>
      <use x="333.886719" xlink:href="#DejaVuSans-3d"/>
      <use x="417.675781" xlink:href="#DejaVuSans-20"/>
      <use x="449.462891" xlink:href="#DejaVuSans-30"/>
      <use x="513.085938" xlink:href="#DejaVuSans-2e"/>
      <use x="544.873047" xlink:href="#DejaVuSans-35"/>
      <use x="608.496094" xlink:href="#DejaVuSans-31"/>
      <use x="672.119141" xlink:href="#DejaVuSans-20"/>
      <use x="703.90625" xlink:href="#DejaVuSans-6d"/>
      <use x="801.318359" xlink:href="#DejaVuSans-6d"/>
      <use x="898.730469" xlink:href="#DejaVuSans-2f"/>
      <use x="932.421875" xlink:href="#DejaVuSans-73"/>
     </g>
    </g>
   </g>
  </g>
 </g>
 <defs>
  <clipPath id="p1bffb568fe">
   <rect height="277.2" width="446.4" x="72" y="43.2"/>
  </clipPath>
 </defs>
</svg>
