<?xml version="1.0" encoding="utf-8" standalone="no"?>
<!DOCTYPE svg PUBLIC "-//W3C//DTD SVG 1.1//EN"
  "http://www.w3.org/Graphics/SVG/1.1/DTD/svg11.dtd">
<svg height="360pt" version="1.1" viewBox="0 0 576 360" width="576pt" xmlns="http://www.w3.org/2000/svg" xmlns:xlink="http://www.w3.org/1999/xlink">
 <metadata>
  <rdf:RDF xmlns:cc="http://creativecommons.org/ns#" xmlns:dc="http://purl.org/dc/elements/1.1/" xmlns:rdf="http://www.w3.org/1999/02/22-rdf-syntax-ns#">
   <cc:Work>
    <dc:type rdf:resource="http://purl.org/dc/dcmitype/StillImage"/>
    <dc:date>2022-06-30T14:27:07.290612</dc:date>
    <dc:format>image/svg+xml</dc:format>
    <dc:creator>
     <cc:Agent>
      <dc:title>Matplotlib v3.4.3, https://matplotlib.org/</dc:title>
     </cc:Agent>
    </dc:creator>
   </cc:Work>
  </rdf:RDF>
 </metadata>
 <defs>
  <style type="text/css">*{stroke-linecap:butt;stroke-linejoin:round;}</style>
 </defs>
 <g id="figure_1">
  <g id="patch_1">
   <path d="M 0 360 
L 576 360 
L 576 0 
L 0 0 
z
" style="fill:#ffffff;"/>
  </g>
  <g id="axes_1">
   <g id="patch_2">
    <path d="M 72 320.4 
L 518.4 320.4 
L 518.4 43.2 
L 72 43.2 
z
" style="fill:#ffffff;"/>
   </g>
   <g id="PolyCollection_1">
    <defs>
     <path d="M 72 -147.072506 
L 72 -152.821319 
L 72.853537 -152.821319 
L 73.707075 -152.821319 
L 74.560612 -152.821319 
L 75.414149 -152.821319 
L 76.267686 -152.821319 
L 77.121224 -152.821319 
L 77.974761 -152.821319 
L 78.828298 -152.821319 
L 79.681836 -152.821319 
L 80.535373 -152.821319 
L 81.38891 -152.821319 
L 82.242447 -152.821319 
L 83.095985 -152.821319 
L 83.949522 -152.821319 
L 84.803059 -152.821319 
L 85.656597 -152.821319 
L 86.510134 -152.821319 
L 87.363671 -152.821319 
L 88.217208 -152.821319 
L 89.070746 -152.821319 
L 89.924283 -152.821319 
L 90.77782 -152.821319 
L 91.631358 -152.821319 
L 92.484895 -152.821319 
L 93.338432 -152.821319 
L 94.191969 -152.821319 
L 95.045507 -152.821319 
L 95.899044 -152.821319 
L 96.752581 -152.821319 
L 97.606119 -152.821319 
L 98.459656 -152.821319 
L 99.313193 -152.821319 
L 100.16673 -152.821319 
L 101.020268 -152.821319 
L 101.873805 -152.821319 
L 102.727342 -152.821319 
L 103.58088 -152.821319 
L 104.434417 -152.821319 
L 105.287954 -152.821319 
L 106.141491 -152.821319 
L 106.995029 -152.821319 
L 107.848566 -152.821319 
L 108.702103 -152.821319 
L 109.555641 -152.821319 
L 110.409178 -152.821319 
L 111.262715 -152.821319 
L 112.116252 -152.821319 
L 112.96979 -152.821319 
L 113.823327 -152.821319 
L 114.676864 -152.821319 
L 115.530402 -152.821319 
L 116.383939 -152.821319 
L 117.237476 -152.821319 
L 118.091013 -152.821319 
L 118.944551 -152.821319 
L 119.798088 -152.821319 
L 120.651625 -152.821319 
L 121.505163 -152.821319 
L 122.3587 -152.821319 
L 123.212237 -152.821319 
L 124.065774 -152.821319 
L 124.919312 -152.821319 
L 125.772849 -152.821319 
L 126.626386 -152.821319 
L 127.479924 -152.821319 
L 128.333461 -152.821319 
L 129.186998 -152.821319 
L 130.040535 -152.821319 
L 130.894073 -152.821319 
L 131.74761 -152.821319 
L 132.601147 -152.821319 
L 133.454685 -152.821319 
L 134.308222 -152.821319 
L 135.161759 -152.821319 
L 136.015296 -152.821319 
L 136.868834 -152.821319 
L 137.722371 -152.821319 
L 138.575908 -152.821319 
L 139.429446 -152.821319 
L 140.282983 -152.821319 
L 141.13652 -152.821319 
L 141.990057 -152.821319 
L 142.843595 -152.821319 
L 143.697132 -152.821319 
L 144.550669 -152.821319 
L 145.404207 -152.821319 
L 146.257744 -152.821319 
L 147.111281 -152.821319 
L 147.964818 -152.821319 
L 148.818356 -152.821319 
L 149.671893 -152.821319 
L 150.52543 -152.821319 
L 151.378967 -152.821319 
L 152.232505 -152.821319 
L 153.086042 -152.821319 
L 153.939579 -152.821319 
L 154.793117 -152.821319 
L 155.646654 -152.821319 
L 156.500191 -152.821319 
L 157.353728 -152.821319 
L 158.207266 -152.821319 
L 159.060803 -152.821319 
L 159.91434 -152.821319 
L 160.767878 -152.821319 
L 161.621415 -152.821319 
L 162.474952 -152.821319 
L 163.328489 -152.821319 
L 164.182027 -152.821319 
L 165.035564 -152.821319 
L 165.889101 -152.821319 
L 166.742639 -152.821319 
L 167.596176 -152.821319 
L 168.449713 -152.821319 
L 169.30325 -152.821319 
L 170.156788 -152.821319 
L 171.010325 -152.821319 
L 171.863862 -152.821319 
L 172.7174 -152.821319 
L 173.570937 -152.821319 
L 174.424474 -152.821319 
L 175.278011 -152.821319 
L 176.131549 -152.821319 
L 176.985086 -152.821319 
L 177.838623 -152.821319 
L 178.692161 -152.821319 
L 179.545698 -152.821319 
L 180.399235 -152.821319 
L 181.252772 -152.821319 
L 182.10631 -152.821319 
L 182.959847 -152.821319 
L 183.813384 -152.821319 
L 184.666922 -152.821319 
L 185.520459 -152.821319 
L 186.373996 -152.821319 
L 187.227533 -152.821319 
L 188.081071 -152.821319 
L 188.934608 -152.821319 
L 189.788145 -152.821319 
L 190.641683 -152.821319 
L 191.49522 -152.821319 
L 192.348757 -152.821319 
L 193.202294 -152.821319 
L 194.055832 -152.821319 
L 194.909369 -152.821319 
L 195.762906 -152.821319 
L 196.616444 -152.821319 
L 197.469981 -152.821319 
L 198.323518 -152.821319 
L 199.177055 -152.821319 
L 200.030593 -152.821319 
L 200.88413 -152.821319 
L 201.737667 -152.821319 
L 202.591205 -152.821319 
L 203.444742 -152.821319 
L 204.298279 -152.821319 
L 205.151816 -152.821319 
L 206.005354 -152.821319 
L 206.858891 -152.821319 
L 207.712428 -152.821319 
L 208.565966 -152.821319 
L 209.419503 -152.821319 
L 210.27304 -152.821319 
L 211.126577 -152.821319 
L 211.980115 -152.821319 
L 212.833652 -152.821319 
L 213.687189 -152.821319 
L 214.540727 -152.821319 
L 215.394264 -152.821319 
L 216.247801 -152.821319 
L 217.101338 -152.821319 
L 217.954876 -152.821319 
L 218.808413 -152.821319 
L 219.66195 -152.821319 
L 220.515488 -152.821319 
L 221.369025 -152.821319 
L 222.222562 -152.821319 
L 223.076099 -152.821319 
L 223.929637 -152.821319 
L 224.783174 -152.821319 
L 225.636711 -152.821319 
L 226.490249 -152.821319 
L 227.343786 -152.821319 
L 228.197323 -152.821319 
L 229.05086 -152.821319 
L 229.904398 -152.821319 
L 230.757935 -152.821319 
L 231.611472 -152.821319 
L 232.46501 -152.821319 
L 233.318547 -152.821319 
L 234.172084 -152.821319 
L 235.025621 -152.821319 
L 235.879159 -152.821319 
L 236.732696 -152.821319 
L 237.586233 -152.821319 
L 238.439771 -152.821319 
L 239.293308 -152.821319 
L 240.146845 -152.821319 
L 241.000382 -152.821319 
L 241.85392 -152.821319 
L 242.707457 -152.821319 
L 243.560994 -152.821319 
L 244.414532 -152.821319 
L 245.268069 -152.821319 
L 246.121606 -152.821319 
L 246.975143 -152.821319 
L 247.828681 -152.821319 
L 248.682218 -152.821319 
L 249.535755 -152.821319 
L 250.389293 -152.821319 
L 251.24283 -152.821319 
L 252.096367 -152.821319 
L 252.949904 -152.821319 
L 253.803442 -152.821319 
L 254.656979 -152.821319 
L 255.510516 -152.821319 
L 256.364054 -152.821319 
L 257.217591 -152.821319 
L 258.071128 -152.821319 
L 258.924665 -152.821319 
L 259.778203 -152.821319 
L 260.63174 -152.821319 
L 261.485277 -152.821319 
L 262.338815 -152.821319 
L 263.192352 -152.821319 
L 264.045889 -152.821319 
L 264.899426 -152.821319 
L 265.752964 -152.821319 
L 266.606501 -152.821319 
L 267.460038 -152.821319 
L 268.313576 -152.821319 
L 269.167113 -152.821319 
L 270.02065 -152.821319 
L 270.874187 -152.821319 
L 271.727725 -152.821319 
L 272.581262 -152.821319 
L 273.434799 -152.821319 
L 274.288337 -152.821319 
L 275.141874 -152.821319 
L 275.995411 -152.821319 
L 276.848948 -152.821319 
L 277.702486 -152.821319 
L 278.556023 -152.821319 
L 279.40956 -152.821319 
L 280.263098 -152.821319 
L 281.116635 -152.821319 
L 281.970172 -152.821319 
L 282.823709 -152.821319 
L 283.677247 -152.821319 
L 284.530784 -152.821319 
L 285.384321 -152.821319 
L 286.237859 -152.821319 
L 287.091396 -152.821319 
L 287.944933 -152.821319 
L 288.79847 -152.821319 
L 289.652008 -152.821319 
L 290.505545 -152.821319 
L 291.359082 -152.821319 
L 292.21262 -152.821319 
L 293.066157 -152.821319 
L 293.919694 -152.821319 
L 294.773231 -152.821319 
L 295.626769 -152.821319 
L 296.480306 -152.821319 
L 297.333843 -152.821319 
L 298.18738 -152.821319 
L 299.040918 -152.821319 
L 299.894455 -152.821319 
L 300.747992 -152.821319 
L 301.60153 -152.821319 
L 302.455067 -152.821319 
L 303.308604 -152.821319 
L 304.162141 -152.821319 
L 305.015679 -152.821319 
L 305.869216 -152.821319 
L 306.722753 -152.821319 
L 307.576291 -152.821319 
L 308.429828 -152.821319 
L 309.283365 -152.821319 
L 310.136902 -152.821319 
L 310.99044 -152.821319 
L 311.843977 -152.821319 
L 312.697514 -152.821319 
L 313.551052 -152.821319 
L 314.404589 -152.821319 
L 315.258126 -152.821319 
L 316.111663 -152.821319 
L 316.965201 -152.821319 
L 317.818738 -152.821319 
L 318.672275 -152.821319 
L 319.525813 -152.821319 
L 320.37935 -152.821319 
L 321.232887 -152.821319 
L 322.086424 -152.821319 
L 322.939962 -152.821319 
L 323.793499 -152.821319 
L 324.647036 -152.821319 
L 325.500574 -152.821319 
L 326.354111 -152.821319 
L 327.207648 -152.821319 
L 328.061185 -152.821319 
L 328.914723 -152.821319 
L 329.76826 -152.821319 
L 330.621797 -152.821319 
L 331.475335 -152.821319 
L 332.328872 -152.821319 
L 333.182409 -152.821319 
L 334.035946 -152.821319 
L 334.889484 -152.821319 
L 335.743021 -152.821319 
L 336.596558 -152.821319 
L 337.450096 -152.821319 
L 338.303633 -152.821319 
L 339.15717 -152.821319 
L 340.010707 -152.821319 
L 340.864245 -152.821319 
L 341.717782 -152.821319 
L 342.571319 -152.821319 
L 343.424857 -152.821319 
L 344.278394 -152.821319 
L 345.131931 -152.821319 
L 345.985468 -152.821319 
L 346.839006 -152.821319 
L 347.692543 -152.821319 
L 348.54608 -152.821319 
L 349.399618 -152.821319 
L 350.253155 -152.821319 
L 351.106692 -152.821319 
L 351.960229 -152.821319 
L 352.813767 -152.821319 
L 353.667304 -152.821319 
L 354.520841 -152.821319 
L 355.374379 -152.821319 
L 356.227916 -152.821319 
L 357.081453 -152.821319 
L 357.93499 -152.821319 
L 358.788528 -152.821319 
L 359.642065 -152.821319 
L 360.495602 -152.821319 
L 361.34914 -152.821319 
L 362.202677 -152.821319 
L 363.056214 -152.821319 
L 363.909751 -152.821319 
L 364.763289 -152.821319 
L 365.616826 -152.821319 
L 366.470363 -152.821319 
L 367.323901 -152.821319 
L 368.177438 -152.821319 
L 369.030975 -152.821319 
L 369.884512 -152.821319 
L 370.73805 -152.821319 
L 371.591587 -152.821319 
L 372.445124 -152.821319 
L 373.298662 -152.821319 
L 374.152199 -152.821319 
L 375.005736 -152.821319 
L 375.859273 -152.821319 
L 376.712811 -152.821319 
L 377.566348 -152.821319 
L 378.419885 -152.821319 
L 379.273423 -152.821319 
L 380.12696 -152.821319 
L 380.980497 -152.821319 
L 381.834034 -152.821319 
L 382.687572 -152.821319 
L 383.541109 -152.821319 
L 384.394646 -152.821319 
L 385.248184 -152.821319 
L 386.101721 -152.821319 
L 386.955258 -152.821319 
L 387.808795 -152.821319 
L 388.662333 -152.821319 
L 389.51587 -152.821319 
L 390.369407 -152.821319 
L 391.222945 -152.821319 
L 392.076482 -152.821319 
L 392.930019 -152.821319 
L 393.783556 -152.821319 
L 394.637094 -152.821319 
L 395.490631 -152.821319 
L 396.344168 -152.821319 
L 397.197706 -152.821319 
L 398.051243 -152.821319 
L 398.90478 -152.821319 
L 399.758317 -152.821319 
L 400.611855 -152.821319 
L 401.465392 -152.821319 
L 402.318929 -152.821319 
L 403.172467 -152.821319 
L 404.026004 -152.821319 
L 404.879541 -152.821319 
L 405.733078 -152.821319 
L 406.586616 -152.821319 
L 407.440153 -152.821319 
L 408.29369 -152.821319 
L 409.147228 -152.821319 
L 410.000765 -152.821319 
L 410.854302 -152.821319 
L 411.707839 -152.821319 
L 412.561377 -152.821319 
L 413.414914 -152.821319 
L 414.268451 -152.821319 
L 415.121989 -152.821319 
L 415.975526 -152.821319 
L 416.829063 -152.821319 
L 417.6826 -152.821319 
L 418.536138 -152.821319 
L 419.389675 -152.821319 
L 420.243212 -152.821319 
L 421.09675 -152.821319 
L 421.950287 -152.821319 
L 422.803824 -152.821319 
L 423.657361 -152.821319 
L 424.510899 -152.821319 
L 425.364436 -152.821319 
L 426.217973 -152.821319 
L 427.071511 -152.821319 
L 427.925048 -152.821319 
L 428.778585 -152.821319 
L 429.632122 -152.821319 
L 430.48566 -152.821319 
L 431.339197 -152.821319 
L 432.192734 -152.821319 
L 433.046272 -152.821319 
L 433.899809 -152.821319 
L 434.753346 -152.821319 
L 435.606883 -152.821319 
L 436.460421 -152.821319 
L 437.313958 -152.821319 
L 438.167495 -152.821319 
L 439.021033 -152.821319 
L 439.87457 -152.821319 
L 440.728107 -152.821319 
L 441.581644 -152.821319 
L 442.435182 -152.821319 
L 443.288719 -152.821319 
L 444.142256 -152.821319 
L 444.995793 -152.821319 
L 445.849331 -152.821319 
L 446.702868 -152.821319 
L 447.556405 -152.821319 
L 448.409943 -152.821319 
L 449.26348 -152.821319 
L 450.117017 -152.821319 
L 450.970554 -152.821319 
L 451.824092 -152.821319 
L 452.677629 -152.821319 
L 453.531166 -152.821319 
L 454.384704 -152.821319 
L 455.238241 -152.821319 
L 456.091778 -152.821319 
L 456.945315 -152.821319 
L 457.798853 -152.821319 
L 458.65239 -152.821319 
L 459.505927 -152.821319 
L 460.359465 -152.821319 
L 461.213002 -152.821319 
L 462.066539 -152.821319 
L 462.920076 -152.821319 
L 463.773614 -152.821319 
L 464.627151 -152.821319 
L 465.480688 -152.821319 
L 466.334226 -152.821319 
L 467.187763 -152.821319 
L 468.0413 -152.821319 
L 468.894837 -152.821319 
L 469.748375 -152.821319 
L 470.601912 -152.821319 
L 471.455449 -152.821319 
L 472.308987 -152.821319 
L 473.162524 -152.821319 
L 474.016061 -152.821319 
L 474.869598 -152.821319 
L 475.723136 -152.821319 
L 476.576673 -152.821319 
L 477.43021 -152.821319 
L 478.283748 -152.821319 
L 479.137285 -152.821319 
L 479.990822 -152.821319 
L 480.844359 -152.821319 
L 481.697897 -152.821319 
L 482.551434 -152.821319 
L 483.404971 -152.821319 
L 484.258509 -152.821319 
L 485.112046 -152.821319 
L 485.965583 -152.821319 
L 486.81912 -152.821319 
L 487.672658 -152.821319 
L 488.526195 -152.821319 
L 489.379732 -152.821319 
L 490.23327 -152.821319 
L 491.086807 -152.821319 
L 491.940344 -152.821319 
L 492.793881 -152.821319 
L 493.647419 -152.821319 
L 494.500956 -152.821319 
L 495.354493 -152.821319 
L 496.208031 -152.821319 
L 497.061568 -152.821319 
L 497.915105 -152.821319 
L 498.768642 -152.821319 
L 499.62218 -152.821319 
L 500.475717 -152.821319 
L 501.329254 -152.821319 
L 502.182792 -152.821319 
L 503.036329 -152.821319 
L 503.889866 -152.821319 
L 504.743403 -152.821319 
L 505.596941 -152.821319 
L 506.450478 -152.821319 
L 507.304015 -152.821319 
L 508.157553 -152.821319 
L 509.01109 -152.821319 
L 509.864627 -152.821319 
L 510.718164 -152.821319 
L 511.571702 -152.821319 
L 512.425239 -152.821319 
L 513.278776 -152.821319 
L 514.132314 -152.821319 
L 514.985851 -152.821319 
L 515.839388 -152.821319 
L 516.692925 -152.821319 
L 517.546463 -152.821319 
L 518.4 -152.821319 
L 518.4 -147.072506 
L 518.4 -147.072506 
L 517.546463 -147.072506 
L 516.692925 -147.072506 
L 515.839388 -147.072506 
L 514.985851 -147.072506 
L 514.132314 -147.072506 
L 513.278776 -147.072506 
L 512.425239 -147.072506 
L 511.571702 -147.072506 
L 510.718164 -147.072506 
L 509.864627 -147.072506 
L 509.01109 -147.072506 
L 508.157553 -147.072506 
L 507.304015 -147.072506 
L 506.450478 -147.072506 
L 505.596941 -147.072506 
L 504.743403 -147.072506 
L 503.889866 -147.072506 
L 503.036329 -147.072506 
L 502.182792 -147.072506 
L 501.329254 -147.072506 
L 500.475717 -147.072506 
L 499.62218 -147.072506 
L 498.768642 -147.072506 
L 497.915105 -147.072506 
L 497.061568 -147.072506 
L 496.208031 -147.072506 
L 495.354493 -147.072506 
L 494.500956 -147.072506 
L 493.647419 -147.072506 
L 492.793881 -147.072506 
L 491.940344 -147.072506 
L 491.086807 -147.072506 
L 490.23327 -147.072506 
L 489.379732 -147.072506 
L 488.526195 -147.072506 
L 487.672658 -147.072506 
L 486.81912 -147.072506 
L 485.965583 -147.072506 
L 485.112046 -147.072506 
L 484.258509 -147.072506 
L 483.404971 -147.072506 
L 482.551434 -147.072506 
L 481.697897 -147.072506 
L 480.844359 -147.072506 
L 479.990822 -147.072506 
L 479.137285 -147.072506 
L 478.283748 -147.072506 
L 477.43021 -147.072506 
L 476.576673 -147.072506 
L 475.723136 -147.072506 
L 474.869598 -147.072506 
L 474.016061 -147.072506 
L 473.162524 -147.072506 
L 472.308987 -147.072506 
L 471.455449 -147.072506 
L 470.601912 -147.072506 
L 469.748375 -147.072506 
L 468.894837 -147.072506 
L 468.0413 -147.072506 
L 467.187763 -147.072506 
L 466.334226 -147.072506 
L 465.480688 -147.072506 
L 464.627151 -147.072506 
L 463.773614 -147.072506 
L 462.920076 -147.072506 
L 462.066539 -147.072506 
L 461.213002 -147.072506 
L 460.359465 -147.072506 
L 459.505927 -147.072506 
L 458.65239 -147.072506 
L 457.798853 -147.072506 
L 456.945315 -147.072506 
L 456.091778 -147.072506 
L 455.238241 -147.072506 
L 454.384704 -147.072506 
L 453.531166 -147.072506 
L 452.677629 -147.072506 
L 451.824092 -147.072506 
L 450.970554 -147.072506 
L 450.117017 -147.072506 
L 449.26348 -147.072506 
L 448.409943 -147.072506 
L 447.556405 -147.072506 
L 446.702868 -147.072506 
L 445.849331 -147.072506 
L 444.995793 -147.072506 
L 444.142256 -147.072506 
L 443.288719 -147.072506 
L 442.435182 -147.072506 
L 441.581644 -147.072506 
L 440.728107 -147.072506 
L 439.87457 -147.072506 
L 439.021033 -147.072506 
L 438.167495 -147.072506 
L 437.313958 -147.072506 
L 436.460421 -147.072506 
L 435.606883 -147.072506 
L 434.753346 -147.072506 
L 433.899809 -147.072506 
L 433.046272 -147.072506 
L 432.192734 -147.072506 
L 431.339197 -147.072506 
L 430.48566 -147.072506 
L 429.632122 -147.072506 
L 428.778585 -147.072506 
L 427.925048 -147.072506 
L 427.071511 -147.072506 
L 426.217973 -147.072506 
L 425.364436 -147.072506 
L 424.510899 -147.072506 
L 423.657361 -147.072506 
L 422.803824 -147.072506 
L 421.950287 -147.072506 
L 421.09675 -147.072506 
L 420.243212 -147.072506 
L 419.389675 -147.072506 
L 418.536138 -147.072506 
L 417.6826 -147.072506 
L 416.829063 -147.072506 
L 415.975526 -147.072506 
L 415.121989 -147.072506 
L 414.268451 -147.072506 
L 413.414914 -147.072506 
L 412.561377 -147.072506 
L 411.707839 -147.072506 
L 410.854302 -147.072506 
L 410.000765 -147.072506 
L 409.147228 -147.072506 
L 408.29369 -147.072506 
L 407.440153 -147.072506 
L 406.586616 -147.072506 
L 405.733078 -147.072506 
L 404.879541 -147.072506 
L 404.026004 -147.072506 
L 403.172467 -147.072506 
L 402.318929 -147.072506 
L 401.465392 -147.072506 
L 400.611855 -147.072506 
L 399.758317 -147.072506 
L 398.90478 -147.072506 
L 398.051243 -147.072506 
L 397.197706 -147.072506 
L 396.344168 -147.072506 
L 395.490631 -147.072506 
L 394.637094 -147.072506 
L 393.783556 -147.072506 
L 392.930019 -147.072506 
L 392.076482 -147.072506 
L 391.222945 -147.072506 
L 390.369407 -147.072506 
L 389.51587 -147.072506 
L 388.662333 -147.072506 
L 387.808795 -147.072506 
L 386.955258 -147.072506 
L 386.101721 -147.072506 
L 385.248184 -147.072506 
L 384.394646 -147.072506 
L 383.541109 -147.072506 
L 382.687572 -147.072506 
L 381.834034 -147.072506 
L 380.980497 -147.072506 
L 380.12696 -147.072506 
L 379.273423 -147.072506 
L 378.419885 -147.072506 
L 377.566348 -147.072506 
L 376.712811 -147.072506 
L 375.859273 -147.072506 
L 375.005736 -147.072506 
L 374.152199 -147.072506 
L 373.298662 -147.072506 
L 372.445124 -147.072506 
L 371.591587 -147.072506 
L 370.73805 -147.072506 
L 369.884512 -147.072506 
L 369.030975 -147.072506 
L 368.177438 -147.072506 
L 367.323901 -147.072506 
L 366.470363 -147.072506 
L 365.616826 -147.072506 
L 364.763289 -147.072506 
L 363.909751 -147.072506 
L 363.056214 -147.072506 
L 362.202677 -147.072506 
L 361.34914 -147.072506 
L 360.495602 -147.072506 
L 359.642065 -147.072506 
L 358.788528 -147.072506 
L 357.93499 -147.072506 
L 357.081453 -147.072506 
L 356.227916 -147.072506 
L 355.374379 -147.072506 
L 354.520841 -147.072506 
L 353.667304 -147.072506 
L 352.813767 -147.072506 
L 351.960229 -147.072506 
L 351.106692 -147.072506 
L 350.253155 -147.072506 
L 349.399618 -147.072506 
L 348.54608 -147.072506 
L 347.692543 -147.072506 
L 346.839006 -147.072506 
L 345.985468 -147.072506 
L 345.131931 -147.072506 
L 344.278394 -147.072506 
L 343.424857 -147.072506 
L 342.571319 -147.072506 
L 341.717782 -147.072506 
L 340.864245 -147.072506 
L 340.010707 -147.072506 
L 339.15717 -147.072506 
L 338.303633 -147.072506 
L 337.450096 -147.072506 
L 336.596558 -147.072506 
L 335.743021 -147.072506 
L 334.889484 -147.072506 
L 334.035946 -147.072506 
L 333.182409 -147.072506 
L 332.328872 -147.072506 
L 331.475335 -147.072506 
L 330.621797 -147.072506 
L 329.76826 -147.072506 
L 328.914723 -147.072506 
L 328.061185 -147.072506 
L 327.207648 -147.072506 
L 326.354111 -147.072506 
L 325.500574 -147.072506 
L 324.647036 -147.072506 
L 323.793499 -147.072506 
L 322.939962 -147.072506 
L 322.086424 -147.072506 
L 321.232887 -147.072506 
L 320.37935 -147.072506 
L 319.525813 -147.072506 
L 318.672275 -147.072506 
L 317.818738 -147.072506 
L 316.965201 -147.072506 
L 316.111663 -147.072506 
L 315.258126 -147.072506 
L 314.404589 -147.072506 
L 313.551052 -147.072506 
L 312.697514 -147.072506 
L 311.843977 -147.072506 
L 310.99044 -147.072506 
L 310.136902 -147.072506 
L 309.283365 -147.072506 
L 308.429828 -147.072506 
L 307.576291 -147.072506 
L 306.722753 -147.072506 
L 305.869216 -147.072506 
L 305.015679 -147.072506 
L 304.162141 -147.072506 
L 303.308604 -147.072506 
L 302.455067 -147.072506 
L 301.60153 -147.072506 
L 300.747992 -147.072506 
L 299.894455 -147.072506 
L 299.040918 -147.072506 
L 298.18738 -147.072506 
L 297.333843 -147.072506 
L 296.480306 -147.072506 
L 295.626769 -147.072506 
L 294.773231 -147.072506 
L 293.919694 -147.072506 
L 293.066157 -147.072506 
L 292.21262 -147.072506 
L 291.359082 -147.072506 
L 290.505545 -147.072506 
L 289.652008 -147.072506 
L 288.79847 -147.072506 
L 287.944933 -147.072506 
L 287.091396 -147.072506 
L 286.237859 -147.072506 
L 285.384321 -147.072506 
L 284.530784 -147.072506 
L 283.677247 -147.072506 
L 282.823709 -147.072506 
L 281.970172 -147.072506 
L 281.116635 -147.072506 
L 280.263098 -147.072506 
L 279.40956 -147.072506 
L 278.556023 -147.072506 
L 277.702486 -147.072506 
L 276.848948 -147.072506 
L 275.995411 -147.072506 
L 275.141874 -147.072506 
L 274.288337 -147.072506 
L 273.434799 -147.072506 
L 272.581262 -147.072506 
L 271.727725 -147.072506 
L 270.874187 -147.072506 
L 270.02065 -147.072506 
L 269.167113 -147.072506 
L 268.313576 -147.072506 
L 267.460038 -147.072506 
L 266.606501 -147.072506 
L 265.752964 -147.072506 
L 264.899426 -147.072506 
L 264.045889 -147.072506 
L 263.192352 -147.072506 
L 262.338815 -147.072506 
L 261.485277 -147.072506 
L 260.63174 -147.072506 
L 259.778203 -147.072506 
L 258.924665 -147.072506 
L 258.071128 -147.072506 
L 257.217591 -147.072506 
L 256.364054 -147.072506 
L 255.510516 -147.072506 
L 254.656979 -147.072506 
L 253.803442 -147.072506 
L 252.949904 -147.072506 
L 252.096367 -147.072506 
L 251.24283 -147.072506 
L 250.389293 -147.072506 
L 249.535755 -147.072506 
L 248.682218 -147.072506 
L 247.828681 -147.072506 
L 246.975143 -147.072506 
L 246.121606 -147.072506 
L 245.268069 -147.072506 
L 244.414532 -147.072506 
L 243.560994 -147.072506 
L 242.707457 -147.072506 
L 241.85392 -147.072506 
L 241.000382 -147.072506 
L 240.146845 -147.072506 
L 239.293308 -147.072506 
L 238.439771 -147.072506 
L 237.586233 -147.072506 
L 236.732696 -147.072506 
L 235.879159 -147.072506 
L 235.025621 -147.072506 
L 234.172084 -147.072506 
L 233.318547 -147.072506 
L 232.46501 -147.072506 
L 231.611472 -147.072506 
L 230.757935 -147.072506 
L 229.904398 -147.072506 
L 229.05086 -147.072506 
L 228.197323 -147.072506 
L 227.343786 -147.072506 
L 226.490249 -147.072506 
L 225.636711 -147.072506 
L 224.783174 -147.072506 
L 223.929637 -147.072506 
L 223.076099 -147.072506 
L 222.222562 -147.072506 
L 221.369025 -147.072506 
L 220.515488 -147.072506 
L 219.66195 -147.072506 
L 218.808413 -147.072506 
L 217.954876 -147.072506 
L 217.101338 -147.072506 
L 216.247801 -147.072506 
L 215.394264 -147.072506 
L 214.540727 -147.072506 
L 213.687189 -147.072506 
L 212.833652 -147.072506 
L 211.980115 -147.072506 
L 211.126577 -147.072506 
L 210.27304 -147.072506 
L 209.419503 -147.072506 
L 208.565966 -147.072506 
L 207.712428 -147.072506 
L 206.858891 -147.072506 
L 206.005354 -147.072506 
L 205.151816 -147.072506 
L 204.298279 -147.072506 
L 203.444742 -147.072506 
L 202.591205 -147.072506 
L 201.737667 -147.072506 
L 200.88413 -147.072506 
L 200.030593 -147.072506 
L 199.177055 -147.072506 
L 198.323518 -147.072506 
L 197.469981 -147.072506 
L 196.616444 -147.072506 
L 195.762906 -147.072506 
L 194.909369 -147.072506 
L 194.055832 -147.072506 
L 193.202294 -147.072506 
L 192.348757 -147.072506 
L 191.49522 -147.072506 
L 190.641683 -147.072506 
L 189.788145 -147.072506 
L 188.934608 -147.072506 
L 188.081071 -147.072506 
L 187.227533 -147.072506 
L 186.373996 -147.072506 
L 185.520459 -147.072506 
L 184.666922 -147.072506 
L 183.813384 -147.072506 
L 182.959847 -147.072506 
L 182.10631 -147.072506 
L 181.252772 -147.072506 
L 180.399235 -147.072506 
L 179.545698 -147.072506 
L 178.692161 -147.072506 
L 177.838623 -147.072506 
L 176.985086 -147.072506 
L 176.131549 -147.072506 
L 175.278011 -147.072506 
L 174.424474 -147.072506 
L 173.570937 -147.072506 
L 172.7174 -147.072506 
L 171.863862 -147.072506 
L 171.010325 -147.072506 
L 170.156788 -147.072506 
L 169.30325 -147.072506 
L 168.449713 -147.072506 
L 167.596176 -147.072506 
L 166.742639 -147.072506 
L 165.889101 -147.072506 
L 165.035564 -147.072506 
L 164.182027 -147.072506 
L 163.328489 -147.072506 
L 162.474952 -147.072506 
L 161.621415 -147.072506 
L 160.767878 -147.072506 
L 159.91434 -147.072506 
L 159.060803 -147.072506 
L 158.207266 -147.072506 
L 157.353728 -147.072506 
L 156.500191 -147.072506 
L 155.646654 -147.072506 
L 154.793117 -147.072506 
L 153.939579 -147.072506 
L 153.086042 -147.072506 
L 152.232505 -147.072506 
L 151.378967 -147.072506 
L 150.52543 -147.072506 
L 149.671893 -147.072506 
L 148.818356 -147.072506 
L 147.964818 -147.072506 
L 147.111281 -147.072506 
L 146.257744 -147.072506 
L 145.404207 -147.072506 
L 144.550669 -147.072506 
L 143.697132 -147.072506 
L 142.843595 -147.072506 
L 141.990057 -147.072506 
L 141.13652 -147.072506 
L 140.282983 -147.072506 
L 139.429446 -147.072506 
L 138.575908 -147.072506 
L 137.722371 -147.072506 
L 136.868834 -147.072506 
L 136.015296 -147.072506 
L 135.161759 -147.072506 
L 134.308222 -147.072506 
L 133.454685 -147.072506 
L 132.601147 -147.072506 
L 131.74761 -147.072506 
L 130.894073 -147.072506 
L 130.040535 -147.072506 
L 129.186998 -147.072506 
L 128.333461 -147.072506 
L 127.479924 -147.072506 
L 126.626386 -147.072506 
L 125.772849 -147.072506 
L 124.919312 -147.072506 
L 124.065774 -147.072506 
L 123.212237 -147.072506 
L 122.3587 -147.072506 
L 121.505163 -147.072506 
L 120.651625 -147.072506 
L 119.798088 -147.072506 
L 118.944551 -147.072506 
L 118.091013 -147.072506 
L 117.237476 -147.072506 
L 116.383939 -147.072506 
L 115.530402 -147.072506 
L 114.676864 -147.072506 
L 113.823327 -147.072506 
L 112.96979 -147.072506 
L 112.116252 -147.072506 
L 111.262715 -147.072506 
L 110.409178 -147.072506 
L 109.555641 -147.072506 
L 108.702103 -147.072506 
L 107.848566 -147.072506 
L 106.995029 -147.072506 
L 106.141491 -147.072506 
L 105.287954 -147.072506 
L 104.434417 -147.072506 
L 103.58088 -147.072506 
L 102.727342 -147.072506 
L 101.873805 -147.072506 
L 101.020268 -147.072506 
L 100.16673 -147.072506 
L 99.313193 -147.072506 
L 98.459656 -147.072506 
L 97.606119 -147.072506 
L 96.752581 -147.072506 
L 95.899044 -147.072506 
L 95.045507 -147.072506 
L 94.191969 -147.072506 
L 93.338432 -147.072506 
L 92.484895 -147.072506 
L 91.631358 -147.072506 
L 90.77782 -147.072506 
L 89.924283 -147.072506 
L 89.070746 -147.072506 
L 88.217208 -147.072506 
L 87.363671 -147.072506 
L 86.510134 -147.072506 
L 85.656597 -147.072506 
L 84.803059 -147.072506 
L 83.949522 -147.072506 
L 83.095985 -147.072506 
L 82.242447 -147.072506 
L 81.38891 -147.072506 
L 80.535373 -147.072506 
L 79.681836 -147.072506 
L 78.828298 -147.072506 
L 77.974761 -147.072506 
L 77.121224 -147.072506 
L 76.267686 -147.072506 
L 75.414149 -147.072506 
L 74.560612 -147.072506 
L 73.707075 -147.072506 
L 72.853537 -147.072506 
L 72 -147.072506 
z
" id="m1e75238ca1"/>
    </defs>
    <g clip-path="url(#paf7c0759b2)">
     <use style="fill-opacity:0.15;" x="0" xlink:href="#m1e75238ca1" y="360"/>
    </g>
   </g>
   <g id="matplotlib.axis_1">
    <g id="xtick_1">
     <g id="line2d_1">
      <defs>
       <path d="M 0 0 
L 0 3.5 
" id="mf0d5fa68cc" style="stroke:#000000;stroke-width:0.8;"/>
      </defs>
      <g>
       <use style="stroke:#000000;stroke-width:0.8;" x="72" xlink:href="#mf0d5fa68cc" y="320.4"/>
      </g>
     </g>
     <g id="text_1">
      <!-- 0.0 -->
      <g transform="translate(60.867812 338.037813)scale(0.14 -0.14)">
       <defs>
        <path d="M 2034 4250 
Q 1547 4250 1301 3770 
Q 1056 3291 1056 2328 
Q 1056 1369 1301 889 
Q 1547 409 2034 409 
Q 2525 409 2770 889 
Q 3016 1369 3016 2328 
Q 3016 3291 2770 3770 
Q 2525 4250 2034 4250 
z
M 2034 4750 
Q 2819 4750 3233 4129 
Q 3647 3509 3647 2328 
Q 3647 1150 3233 529 
Q 2819 -91 2034 -91 
Q 1250 -91 836 529 
Q 422 1150 422 2328 
Q 422 3509 836 4129 
Q 1250 4750 2034 4750 
z
" id="DejaVuSans-30" transform="scale(0.015625)"/>
        <path d="M 684 794 
L 1344 794 
L 1344 0 
L 684 0 
L 684 794 
z
" id="DejaVuSans-2e" transform="scale(0.015625)"/>
       </defs>
       <use xlink:href="#DejaVuSans-30"/>
       <use x="63.623047" xlink:href="#DejaVuSans-2e"/>
       <use x="95.410156" xlink:href="#DejaVuSans-30"/>
      </g>
     </g>
    </g>
    <g id="xtick_2">
     <g id="line2d_2">
      <g>
       <use style="stroke:#000000;stroke-width:0.8;" x="127.839087" xlink:href="#mf0d5fa68cc" y="320.4"/>
      </g>
     </g>
     <g id="text_2">
      <!-- 2.5 -->
      <g transform="translate(116.7069 338.037813)scale(0.14 -0.14)">
       <defs>
        <path d="M 1228 531 
L 3431 531 
L 3431 0 
L 469 0 
L 469 531 
Q 828 903 1448 1529 
Q 2069 2156 2228 2338 
Q 2531 2678 2651 2914 
Q 2772 3150 2772 3378 
Q 2772 3750 2511 3984 
Q 2250 4219 1831 4219 
Q 1534 4219 1204 4116 
Q 875 4013 500 3803 
L 500 4441 
Q 881 4594 1212 4672 
Q 1544 4750 1819 4750 
Q 2544 4750 2975 4387 
Q 3406 4025 3406 3419 
Q 3406 3131 3298 2873 
Q 3191 2616 2906 2266 
Q 2828 2175 2409 1742 
Q 1991 1309 1228 531 
z
" id="DejaVuSans-32" transform="scale(0.015625)"/>
        <path d="M 691 4666 
L 3169 4666 
L 3169 4134 
L 1269 4134 
L 1269 2991 
Q 1406 3038 1543 3061 
Q 1681 3084 1819 3084 
Q 2600 3084 3056 2656 
Q 3513 2228 3513 1497 
Q 3513 744 3044 326 
Q 2575 -91 1722 -91 
Q 1428 -91 1123 -41 
Q 819 9 494 109 
L 494 744 
Q 775 591 1075 516 
Q 1375 441 1709 441 
Q 2250 441 2565 725 
Q 2881 1009 2881 1497 
Q 2881 1984 2565 2268 
Q 2250 2553 1709 2553 
Q 1456 2553 1204 2497 
Q 953 2441 691 2322 
L 691 4666 
z
" id="DejaVuSans-35" transform="scale(0.015625)"/>
       </defs>
       <use xlink:href="#DejaVuSans-32"/>
       <use x="63.623047" xlink:href="#DejaVuSans-2e"/>
       <use x="95.410156" xlink:href="#DejaVuSans-35"/>
      </g>
     </g>
    </g>
    <g id="xtick_3">
     <g id="line2d_3">
      <g>
       <use style="stroke:#000000;stroke-width:0.8;" x="183.678175" xlink:href="#mf0d5fa68cc" y="320.4"/>
      </g>
     </g>
     <g id="text_3">
      <!-- 5.0 -->
      <g transform="translate(172.545987 338.037813)scale(0.14 -0.14)">
       <use xlink:href="#DejaVuSans-35"/>
       <use x="63.623047" xlink:href="#DejaVuSans-2e"/>
       <use x="95.410156" xlink:href="#DejaVuSans-30"/>
      </g>
     </g>
    </g>
    <g id="xtick_4">
     <g id="line2d_4">
      <g>
       <use style="stroke:#000000;stroke-width:0.8;" x="239.517262" xlink:href="#mf0d5fa68cc" y="320.4"/>
      </g>
     </g>
     <g id="text_4">
      <!-- 7.5 -->
      <g transform="translate(228.385075 338.037813)scale(0.14 -0.14)">
       <defs>
        <path d="M 525 4666 
L 3525 4666 
L 3525 4397 
L 1831 0 
L 1172 0 
L 2766 4134 
L 525 4134 
L 525 4666 
z
" id="DejaVuSans-37" transform="scale(0.015625)"/>
       </defs>
       <use xlink:href="#DejaVuSans-37"/>
       <use x="63.623047" xlink:href="#DejaVuSans-2e"/>
       <use x="95.410156" xlink:href="#DejaVuSans-35"/>
      </g>
     </g>
    </g>
    <g id="xtick_5">
     <g id="line2d_5">
      <g>
       <use style="stroke:#000000;stroke-width:0.8;" x="295.356349" xlink:href="#mf0d5fa68cc" y="320.4"/>
      </g>
     </g>
     <g id="text_5">
      <!-- 10.0 -->
      <g transform="translate(279.770412 338.037813)scale(0.14 -0.14)">
       <defs>
        <path d="M 794 531 
L 1825 531 
L 1825 4091 
L 703 3866 
L 703 4441 
L 1819 4666 
L 2450 4666 
L 2450 531 
L 3481 531 
L 3481 0 
L 794 0 
L 794 531 
z
" id="DejaVuSans-31" transform="scale(0.015625)"/>
       </defs>
       <use xlink:href="#DejaVuSans-31"/>
       <use x="63.623047" xlink:href="#DejaVuSans-30"/>
       <use x="127.246094" xlink:href="#DejaVuSans-2e"/>
       <use x="159.033203" xlink:href="#DejaVuSans-30"/>
      </g>
     </g>
    </g>
    <g id="xtick_6">
     <g id="line2d_6">
      <g>
       <use style="stroke:#000000;stroke-width:0.8;" x="351.195437" xlink:href="#mf0d5fa68cc" y="320.4"/>
      </g>
     </g>
     <g id="text_6">
      <!-- 12.5 -->
      <g transform="translate(335.609499 338.037813)scale(0.14 -0.14)">
       <use xlink:href="#DejaVuSans-31"/>
       <use x="63.623047" xlink:href="#DejaVuSans-32"/>
       <use x="127.246094" xlink:href="#DejaVuSans-2e"/>
       <use x="159.033203" xlink:href="#DejaVuSans-35"/>
      </g>
     </g>
    </g>
    <g id="xtick_7">
     <g id="line2d_7">
      <g>
       <use style="stroke:#000000;stroke-width:0.8;" x="407.034524" xlink:href="#mf0d5fa68cc" y="320.4"/>
      </g>
     </g>
     <g id="text_7">
      <!-- 15.0 -->
      <g transform="translate(391.448587 338.037813)scale(0.14 -0.14)">
       <use xlink:href="#DejaVuSans-31"/>
       <use x="63.623047" xlink:href="#DejaVuSans-35"/>
       <use x="127.246094" xlink:href="#DejaVuSans-2e"/>
       <use x="159.033203" xlink:href="#DejaVuSans-30"/>
      </g>
     </g>
    </g>
    <g id="xtick_8">
     <g id="line2d_8">
      <g>
       <use style="stroke:#000000;stroke-width:0.8;" x="462.873612" xlink:href="#mf0d5fa68cc" y="320.4"/>
      </g>
     </g>
     <g id="text_8">
      <!-- 17.5 -->
      <g transform="translate(447.287674 338.037813)scale(0.14 -0.14)">
       <use xlink:href="#DejaVuSans-31"/>
       <use x="63.623047" xlink:href="#DejaVuSans-37"/>
       <use x="127.246094" xlink:href="#DejaVuSans-2e"/>
       <use x="159.033203" xlink:href="#DejaVuSans-35"/>
      </g>
     </g>
    </g>
    <g id="text_9">
     <!-- Time [Seconds] -->
     <g transform="translate(233.23 357.106875)scale(0.16 -0.16)">
      <defs>
       <path d="M -19 4666 
L 3928 4666 
L 3928 4134 
L 2272 4134 
L 2272 0 
L 1638 0 
L 1638 4134 
L -19 4134 
L -19 4666 
z
" id="DejaVuSans-54" transform="scale(0.015625)"/>
       <path d="M 603 3500 
L 1178 3500 
L 1178 0 
L 603 0 
L 603 3500 
z
M 603 4863 
L 1178 4863 
L 1178 4134 
L 603 4134 
L 603 4863 
z
" id="DejaVuSans-69" transform="scale(0.015625)"/>
       <path d="M 3328 2828 
Q 3544 3216 3844 3400 
Q 4144 3584 4550 3584 
Q 5097 3584 5394 3201 
Q 5691 2819 5691 2113 
L 5691 0 
L 5113 0 
L 5113 2094 
Q 5113 2597 4934 2840 
Q 4756 3084 4391 3084 
Q 3944 3084 3684 2787 
Q 3425 2491 3425 1978 
L 3425 0 
L 2847 0 
L 2847 2094 
Q 2847 2600 2669 2842 
Q 2491 3084 2119 3084 
Q 1678 3084 1418 2786 
Q 1159 2488 1159 1978 
L 1159 0 
L 581 0 
L 581 3500 
L 1159 3500 
L 1159 2956 
Q 1356 3278 1631 3431 
Q 1906 3584 2284 3584 
Q 2666 3584 2933 3390 
Q 3200 3197 3328 2828 
z
" id="DejaVuSans-6d" transform="scale(0.015625)"/>
       <path d="M 3597 1894 
L 3597 1613 
L 953 1613 
Q 991 1019 1311 708 
Q 1631 397 2203 397 
Q 2534 397 2845 478 
Q 3156 559 3463 722 
L 3463 178 
Q 3153 47 2828 -22 
Q 2503 -91 2169 -91 
Q 1331 -91 842 396 
Q 353 884 353 1716 
Q 353 2575 817 3079 
Q 1281 3584 2069 3584 
Q 2775 3584 3186 3129 
Q 3597 2675 3597 1894 
z
M 3022 2063 
Q 3016 2534 2758 2815 
Q 2500 3097 2075 3097 
Q 1594 3097 1305 2825 
Q 1016 2553 972 2059 
L 3022 2063 
z
" id="DejaVuSans-65" transform="scale(0.015625)"/>
       <path id="DejaVuSans-20" transform="scale(0.015625)"/>
       <path d="M 550 4863 
L 1875 4863 
L 1875 4416 
L 1125 4416 
L 1125 -397 
L 1875 -397 
L 1875 -844 
L 550 -844 
L 550 4863 
z
" id="DejaVuSans-5b" transform="scale(0.015625)"/>
       <path d="M 3425 4513 
L 3425 3897 
Q 3066 4069 2747 4153 
Q 2428 4238 2131 4238 
Q 1616 4238 1336 4038 
Q 1056 3838 1056 3469 
Q 1056 3159 1242 3001 
Q 1428 2844 1947 2747 
L 2328 2669 
Q 3034 2534 3370 2195 
Q 3706 1856 3706 1288 
Q 3706 609 3251 259 
Q 2797 -91 1919 -91 
Q 1588 -91 1214 -16 
Q 841 59 441 206 
L 441 856 
Q 825 641 1194 531 
Q 1563 422 1919 422 
Q 2459 422 2753 634 
Q 3047 847 3047 1241 
Q 3047 1584 2836 1778 
Q 2625 1972 2144 2069 
L 1759 2144 
Q 1053 2284 737 2584 
Q 422 2884 422 3419 
Q 422 4038 858 4394 
Q 1294 4750 2059 4750 
Q 2388 4750 2728 4690 
Q 3069 4631 3425 4513 
z
" id="DejaVuSans-53" transform="scale(0.015625)"/>
       <path d="M 3122 3366 
L 3122 2828 
Q 2878 2963 2633 3030 
Q 2388 3097 2138 3097 
Q 1578 3097 1268 2742 
Q 959 2388 959 1747 
Q 959 1106 1268 751 
Q 1578 397 2138 397 
Q 2388 397 2633 464 
Q 2878 531 3122 666 
L 3122 134 
Q 2881 22 2623 -34 
Q 2366 -91 2075 -91 
Q 1284 -91 818 406 
Q 353 903 353 1747 
Q 353 2603 823 3093 
Q 1294 3584 2113 3584 
Q 2378 3584 2631 3529 
Q 2884 3475 3122 3366 
z
" id="DejaVuSans-63" transform="scale(0.015625)"/>
       <path d="M 1959 3097 
Q 1497 3097 1228 2736 
Q 959 2375 959 1747 
Q 959 1119 1226 758 
Q 1494 397 1959 397 
Q 2419 397 2687 759 
Q 2956 1122 2956 1747 
Q 2956 2369 2687 2733 
Q 2419 3097 1959 3097 
z
M 1959 3584 
Q 2709 3584 3137 3096 
Q 3566 2609 3566 1747 
Q 3566 888 3137 398 
Q 2709 -91 1959 -91 
Q 1206 -91 779 398 
Q 353 888 353 1747 
Q 353 2609 779 3096 
Q 1206 3584 1959 3584 
z
" id="DejaVuSans-6f" transform="scale(0.015625)"/>
       <path d="M 3513 2113 
L 3513 0 
L 2938 0 
L 2938 2094 
Q 2938 2591 2744 2837 
Q 2550 3084 2163 3084 
Q 1697 3084 1428 2787 
Q 1159 2491 1159 1978 
L 1159 0 
L 581 0 
L 581 3500 
L 1159 3500 
L 1159 2956 
Q 1366 3272 1645 3428 
Q 1925 3584 2291 3584 
Q 2894 3584 3203 3211 
Q 3513 2838 3513 2113 
z
" id="DejaVuSans-6e" transform="scale(0.015625)"/>
       <path d="M 2906 2969 
L 2906 4863 
L 3481 4863 
L 3481 0 
L 2906 0 
L 2906 525 
Q 2725 213 2448 61 
Q 2172 -91 1784 -91 
Q 1150 -91 751 415 
Q 353 922 353 1747 
Q 353 2572 751 3078 
Q 1150 3584 1784 3584 
Q 2172 3584 2448 3432 
Q 2725 3281 2906 2969 
z
M 947 1747 
Q 947 1113 1208 752 
Q 1469 391 1925 391 
Q 2381 391 2643 752 
Q 2906 1113 2906 1747 
Q 2906 2381 2643 2742 
Q 2381 3103 1925 3103 
Q 1469 3103 1208 2742 
Q 947 2381 947 1747 
z
" id="DejaVuSans-64" transform="scale(0.015625)"/>
       <path d="M 2834 3397 
L 2834 2853 
Q 2591 2978 2328 3040 
Q 2066 3103 1784 3103 
Q 1356 3103 1142 2972 
Q 928 2841 928 2578 
Q 928 2378 1081 2264 
Q 1234 2150 1697 2047 
L 1894 2003 
Q 2506 1872 2764 1633 
Q 3022 1394 3022 966 
Q 3022 478 2636 193 
Q 2250 -91 1575 -91 
Q 1294 -91 989 -36 
Q 684 19 347 128 
L 347 722 
Q 666 556 975 473 
Q 1284 391 1588 391 
Q 1994 391 2212 530 
Q 2431 669 2431 922 
Q 2431 1156 2273 1281 
Q 2116 1406 1581 1522 
L 1381 1569 
Q 847 1681 609 1914 
Q 372 2147 372 2553 
Q 372 3047 722 3315 
Q 1072 3584 1716 3584 
Q 2034 3584 2315 3537 
Q 2597 3491 2834 3397 
z
" id="DejaVuSans-73" transform="scale(0.015625)"/>
       <path d="M 1947 4863 
L 1947 -844 
L 622 -844 
L 622 -397 
L 1369 -397 
L 1369 4416 
L 622 4416 
L 622 4863 
L 1947 4863 
z
" id="DejaVuSans-5d" transform="scale(0.015625)"/>
      </defs>
      <use xlink:href="#DejaVuSans-54"/>
      <use x="57.958984" xlink:href="#DejaVuSans-69"/>
      <use x="85.742188" xlink:href="#DejaVuSans-6d"/>
      <use x="183.154297" xlink:href="#DejaVuSans-65"/>
      <use x="244.677734" xlink:href="#DejaVuSans-20"/>
      <use x="276.464844" xlink:href="#DejaVuSans-5b"/>
      <use x="315.478516" xlink:href="#DejaVuSans-53"/>
      <use x="378.955078" xlink:href="#DejaVuSans-65"/>
      <use x="440.478516" xlink:href="#DejaVuSans-63"/>
      <use x="495.458984" xlink:href="#DejaVuSans-6f"/>
      <use x="556.640625" xlink:href="#DejaVuSans-6e"/>
      <use x="620.019531" xlink:href="#DejaVuSans-64"/>
      <use x="683.496094" xlink:href="#DejaVuSans-73"/>
      <use x="735.595703" xlink:href="#DejaVuSans-5d"/>
     </g>
    </g>
   </g>
   <g id="matplotlib.axis_2">
    <g id="ytick_1">
     <g id="line2d_9">
      <defs>
       <path d="M 0 0 
L -3.5 0 
" id="m7e1f5e8b45" style="stroke:#000000;stroke-width:0.8;"/>
      </defs>
      <g>
       <use style="stroke:#000000;stroke-width:0.8;" x="72" xlink:href="#m7e1f5e8b45" y="280.209516"/>
      </g>
     </g>
     <g id="text_10">
      <!-- 0.0 -->
      <g transform="translate(42.735625 285.528422)scale(0.14 -0.14)">
       <use xlink:href="#DejaVuSans-30"/>
       <use x="63.623047" xlink:href="#DejaVuSans-2e"/>
       <use x="95.410156" xlink:href="#DejaVuSans-30"/>
      </g>
     </g>
    </g>
    <g id="ytick_2">
     <g id="line2d_10">
      <g>
       <use style="stroke:#000000;stroke-width:0.8;" x="72" xlink:href="#m7e1f5e8b45" y="220.754419"/>
      </g>
     </g>
     <g id="text_11">
      <!-- 0.5 -->
      <g transform="translate(42.735625 226.073325)scale(0.14 -0.14)">
       <use xlink:href="#DejaVuSans-30"/>
       <use x="63.623047" xlink:href="#DejaVuSans-2e"/>
       <use x="95.410156" xlink:href="#DejaVuSans-35"/>
      </g>
     </g>
    </g>
    <g id="ytick_3">
     <g id="line2d_11">
      <g>
       <use style="stroke:#000000;stroke-width:0.8;" x="72" xlink:href="#m7e1f5e8b45" y="161.299322"/>
      </g>
     </g>
     <g id="text_12">
      <!-- 1.0 -->
      <g transform="translate(42.735625 166.618228)scale(0.14 -0.14)">
       <use xlink:href="#DejaVuSans-31"/>
       <use x="63.623047" xlink:href="#DejaVuSans-2e"/>
       <use x="95.410156" xlink:href="#DejaVuSans-30"/>
      </g>
     </g>
    </g>
    <g id="ytick_4">
     <g id="line2d_12">
      <g>
       <use style="stroke:#000000;stroke-width:0.8;" x="72" xlink:href="#m7e1f5e8b45" y="101.844225"/>
      </g>
     </g>
     <g id="text_13">
      <!-- 1.5 -->
      <g transform="translate(42.735625 107.163131)scale(0.14 -0.14)">
       <use xlink:href="#DejaVuSans-31"/>
       <use x="63.623047" xlink:href="#DejaVuSans-2e"/>
       <use x="95.410156" xlink:href="#DejaVuSans-35"/>
      </g>
     </g>
    </g>
    <g id="text_14">
     <!-- Speed [mm/s] -->
     <g transform="translate(35.408125 238.11375)rotate(-90)scale(0.16 -0.16)">
      <defs>
       <path d="M 1159 525 
L 1159 -1331 
L 581 -1331 
L 581 3500 
L 1159 3500 
L 1159 2969 
Q 1341 3281 1617 3432 
Q 1894 3584 2278 3584 
Q 2916 3584 3314 3078 
Q 3713 2572 3713 1747 
Q 3713 922 3314 415 
Q 2916 -91 2278 -91 
Q 1894 -91 1617 61 
Q 1341 213 1159 525 
z
M 3116 1747 
Q 3116 2381 2855 2742 
Q 2594 3103 2138 3103 
Q 1681 3103 1420 2742 
Q 1159 2381 1159 1747 
Q 1159 1113 1420 752 
Q 1681 391 2138 391 
Q 2594 391 2855 752 
Q 3116 1113 3116 1747 
z
" id="DejaVuSans-70" transform="scale(0.015625)"/>
       <path d="M 1625 4666 
L 2156 4666 
L 531 -594 
L 0 -594 
L 1625 4666 
z
" id="DejaVuSans-2f" transform="scale(0.015625)"/>
      </defs>
      <use xlink:href="#DejaVuSans-53"/>
      <use x="63.476562" xlink:href="#DejaVuSans-70"/>
      <use x="126.953125" xlink:href="#DejaVuSans-65"/>
      <use x="188.476562" xlink:href="#DejaVuSans-65"/>
      <use x="250" xlink:href="#DejaVuSans-64"/>
      <use x="313.476562" xlink:href="#DejaVuSans-20"/>
      <use x="345.263672" xlink:href="#DejaVuSans-5b"/>
      <use x="384.277344" xlink:href="#DejaVuSans-6d"/>
      <use x="481.689453" xlink:href="#DejaVuSans-6d"/>
      <use x="579.101562" xlink:href="#DejaVuSans-2f"/>
      <use x="612.792969" xlink:href="#DejaVuSans-73"/>
      <use x="664.892578" xlink:href="#DejaVuSans-5d"/>
     </g>
    </g>
   </g>
   <g id="line2d_13">
    <path clip-path="url(#paf7c0759b2)" d="M 72 210.053087 
L 518.4 210.053087 
" style="fill:none;stroke:#000000;stroke-dasharray:5.55,2.4;stroke-dashoffset:0;stroke-width:1.5;"/>
   </g>
   <g id="line2d_14">
    <path clip-path="url(#paf7c0759b2)" d="M 72 278.113567 
L 135.161759 278.040188 
L 136.015296 278.436126 
L 137.722371 275.62786 
L 138.575908 278.06057 
L 139.429446 280.049657 
L 140.282983 279.362138 
L 141.13652 283.876653 
L 141.990057 260.557185 
L 142.843595 262.286822 
L 143.697132 299.04319 
L 144.550669 307.8 
L 145.404207 305.397905 
L 146.257744 290.154732 
L 147.111281 265.937718 
L 148.818356 198.30887 
L 151.378967 101.448022 
L 152.232505 77.060033 
L 153.086042 63.322757 
L 153.939579 55.8 
L 154.793117 55.851799 
L 155.646654 67.283952 
L 156.500191 84.01236 
L 157.353728 105.634568 
L 159.91434 182.283108 
L 160.767878 201.089427 
L 161.621415 208.375201 
L 162.474952 203.719948 
L 163.328489 169.585526 
L 164.182027 169.381294 
L 165.035564 193.719031 
L 165.889101 191.063273 
L 166.742639 194.535507 
L 167.596176 196.479264 
L 168.449713 197.763722 
L 169.30325 197.331892 
L 170.156788 197.534136 
L 171.010325 201.486458 
L 171.863862 202.50936 
L 172.7174 200.072251 
L 173.570937 200.700896 
L 174.424474 203.068687 
L 176.131549 201.802881 
L 176.985086 203.864643 
L 177.838623 203.398412 
L 178.692161 203.351826 
L 179.545698 205.1562 
L 180.399235 205.650472 
L 181.252772 205.17671 
L 182.959847 206.377617 
L 184.666922 206.967389 
L 185.520459 206.63669 
L 186.373996 207.107627 
L 187.227533 207.077601 
L 188.081071 207.280368 
L 188.934608 208.214112 
L 189.788145 208.234808 
L 191.49522 207.625602 
L 192.348757 207.96173 
L 193.202294 208.512145 
L 194.909369 208.647889 
L 195.762906 209.037354 
L 196.616444 209.230281 
L 197.469981 208.875858 
L 199.177055 209.056239 
L 200.88413 209.448004 
L 202.591205 209.183536 
L 204.298279 209.647167 
L 206.858891 209.160672 
L 207.712428 209.320207 
L 208.565966 209.303471 
L 209.419503 209.469805 
L 210.27304 210.113942 
L 211.126577 210.405806 
L 211.980115 210.387737 
L 213.687189 209.914575 
L 215.394264 210.434193 
L 216.247801 210.492956 
L 217.954876 210.296791 
L 218.808413 210.049155 
L 223.929637 210.143012 
L 224.783174 209.883838 
L 225.636711 209.928265 
L 226.490249 210.267203 
L 227.343786 210.326671 
L 228.197323 209.996737 
L 229.05086 209.886489 
L 229.904398 210.189342 
L 233.318547 210.84636 
L 234.172084 210.734297 
L 235.879159 210.893283 
L 236.732696 211.303959 
L 237.586233 211.519058 
L 238.439771 210.883482 
L 239.293308 210.73973 
L 240.146845 210.824229 
L 241.000382 210.556982 
L 241.85392 210.470467 
L 242.707457 211.024759 
L 243.560994 211.352273 
L 245.268069 210.585698 
L 246.121606 210.596379 
L 246.975143 210.8019 
L 247.828681 210.53812 
L 248.682218 210.146775 
L 249.535755 209.940732 
L 250.389293 210.491162 
L 251.24283 210.76477 
L 252.096367 210.263072 
L 253.803442 210.365048 
L 254.656979 210.51314 
L 255.510516 210.271596 
L 257.217591 210.273819 
L 258.071128 210.628263 
L 258.924665 210.746531 
L 259.778203 210.330261 
L 261.485277 210.506881 
L 262.338815 210.093891 
L 263.192352 209.995947 
L 264.045889 210.972637 
L 264.899426 211.073327 
L 265.752964 210.05407 
L 266.606501 210.029678 
L 267.460038 211.180428 
L 268.313576 211.438474 
L 269.167113 210.473799 
L 270.02065 210.369922 
L 270.874187 210.934984 
L 271.727725 211.269301 
L 273.434799 210.426842 
L 274.288337 211.14449 
L 275.141874 211.685784 
L 275.995411 211.68581 
L 276.848948 211.200757 
L 277.702486 211.089462 
L 278.556023 211.353502 
L 280.263098 210.981997 
L 282.823709 210.876082 
L 283.677247 210.605188 
L 284.530784 210.738249 
L 285.384321 211.207861 
L 286.237859 211.317809 
L 287.944933 210.566366 
L 288.79847 210.71277 
L 289.652008 211.126567 
L 290.505545 210.912143 
L 291.359082 210.439362 
L 292.21262 210.223075 
L 293.066157 210.462642 
L 293.919694 210.183205 
L 294.773231 209.784581 
L 296.480306 210.809564 
L 297.333843 210.741488 
L 298.18738 210.167164 
L 299.040918 210.217457 
L 299.894455 210.873145 
L 302.455067 210.926032 
L 303.308604 210.512465 
L 304.162141 210.841146 
L 305.869216 210.864242 
L 306.722753 211.447285 
L 307.576291 211.666121 
L 309.283365 210.530273 
L 310.136902 210.746729 
L 310.99044 211.357312 
L 311.843977 211.142044 
L 312.697514 210.36824 
L 314.404589 211.015404 
L 315.258126 210.131039 
L 316.111663 209.913692 
L 316.965201 210.795856 
L 317.818738 211.111351 
L 319.525813 209.965521 
L 320.37935 210.418477 
L 321.232887 211.187178 
L 322.086424 211.342816 
L 322.939962 211.08346 
L 323.793499 211.028014 
L 324.647036 210.693968 
L 326.354111 210.829134 
L 327.207648 210.731297 
L 328.061185 211.334461 
L 328.914723 210.992731 
L 329.76826 210.51438 
L 330.621797 210.480625 
L 331.475335 210.251986 
L 332.328872 210.255769 
L 334.035946 210.021805 
L 335.743021 211.278312 
L 336.596558 211.036478 
L 337.450096 211.213166 
L 338.303633 211.78619 
L 339.15717 211.624778 
L 340.010707 211.113489 
L 341.717782 211.162708 
L 342.571319 211.086543 
L 343.424857 211.691474 
L 344.278394 211.761674 
L 345.131931 211.542721 
L 345.985468 210.814419 
L 346.839006 210.607952 
L 347.692543 210.640547 
L 348.54608 210.294757 
L 349.399618 210.978877 
L 351.106692 210.953823 
L 351.960229 210.785265 
L 352.813767 210.408761 
L 353.667304 210.386356 
L 355.374379 209.864085 
L 357.081453 211.252503 
L 357.93499 211.205778 
L 360.495602 211.412882 
L 361.34914 210.754538 
L 362.202677 210.410558 
L 363.056214 210.244432 
L 363.909751 210.533637 
L 364.763289 211.188681 
L 365.616826 210.839429 
L 366.470363 210.291653 
L 367.323901 210.089065 
L 369.030975 210.026956 
L 369.884512 210.446891 
L 370.73805 211.280383 
L 373.298662 211.581091 
L 375.005736 210.643921 
L 375.859273 210.442127 
L 379.273423 210.91904 
L 380.12696 211.186181 
L 380.980497 210.95243 
L 381.834034 210.398888 
L 382.687572 210.014559 
L 383.541109 210.509821 
L 384.394646 210.446156 
L 385.248184 210.693659 
L 386.101721 211.465063 
L 386.955258 211.52122 
L 387.808795 211.283809 
L 389.51587 210.47994 
L 390.369407 210.798568 
L 391.222945 210.665812 
L 392.076482 210.688735 
L 393.783556 211.725942 
L 394.637094 211.743336 
L 395.490631 211.005739 
L 396.344168 210.550474 
L 398.051243 210.355134 
L 398.90478 210.405252 
L 399.758317 211.074702 
L 400.611855 211.321545 
L 402.318929 210.306939 
L 403.172467 210.023649 
L 404.026004 210.313023 
L 404.879541 210.366277 
L 405.733078 210.087463 
L 406.586616 210.668618 
L 407.440153 211.659042 
L 408.29369 211.877863 
L 410.000765 211.118866 
L 410.854302 210.790524 
L 411.707839 210.807106 
L 412.561377 210.509514 
L 413.414914 210.55114 
L 414.268451 210.977698 
L 415.121989 211.260376 
L 415.975526 211.071514 
L 416.829063 210.287244 
L 417.6826 210.212469 
L 418.536138 209.842712 
L 419.389675 210.107772 
L 421.09675 211.07024 
L 421.950287 211.426498 
L 423.657361 211.610988 
L 424.510899 211.030446 
L 426.217973 210.262255 
L 427.071511 210.219836 
L 427.925048 210.490758 
L 429.632122 211.632731 
L 430.48566 211.636523 
L 432.192734 210.208343 
L 433.046272 210.320687 
L 434.753346 210.826932 
L 435.606883 211.067484 
L 436.460421 211.444511 
L 437.313958 211.314783 
L 438.167495 210.732044 
L 440.728107 209.995302 
L 441.581644 209.953414 
L 442.435182 210.349514 
L 443.288719 211.161158 
L 444.142256 211.471756 
L 445.849331 211.230628 
L 446.702868 210.914853 
L 448.409943 210.681156 
L 449.26348 210.836863 
L 450.117017 211.328466 
L 450.970554 211.637453 
L 451.824092 211.240543 
L 452.677629 210.263675 
L 454.384704 209.908625 
L 455.238241 209.962643 
L 456.091778 210.636682 
L 456.945315 210.826915 
L 457.798853 211.423992 
L 458.65239 211.455991 
L 459.505927 210.915836 
L 460.359465 211.065317 
L 461.213002 211.082979 
L 462.066539 210.221672 
L 462.920076 210.017943 
L 463.773614 210.769323 
L 464.627151 211.126549 
L 465.480688 210.521222 
L 467.187763 210.801251 
L 468.0413 210.160446 
L 468.894837 210.05977 
L 469.748375 210.259582 
L 471.455449 211.540612 
L 472.308987 212.004853 
L 473.162524 211.852803 
L 474.016061 211.073015 
L 474.869598 210.886773 
L 475.723136 210.880433 
L 476.576673 210.621748 
L 478.283748 210.715729 
L 479.137285 210.987307 
L 479.990822 210.561217 
L 480.844359 210.316227 
L 481.697897 210.729208 
L 482.551434 210.587734 
L 483.404971 210.162115 
L 484.258509 210.155977 
L 485.112046 210.758685 
L 485.965583 210.923998 
L 486.81912 210.487675 
L 487.672658 210.771051 
L 488.526195 211.176089 
L 489.379732 210.681618 
L 490.23327 210.044839 
L 491.086807 209.894075 
L 492.793881 210.556753 
L 493.647419 211.023296 
L 494.500956 210.977461 
L 495.354493 210.414877 
L 496.208031 210.857719 
L 497.061568 211.771987 
L 498.768642 211.641736 
L 499.62218 211.858667 
L 500.475717 212.211122 
L 502.182792 210.816686 
L 503.036329 210.958575 
L 503.889866 210.712127 
L 504.743403 209.925056 
L 505.596941 209.391734 
L 507.304015 210.216903 
L 510.718164 210.032408 
L 512.425239 210.219545 
L 514.132314 210.740072 
L 514.985851 211.161098 
L 515.839388 211.710462 
L 516.692925 212.405354 
L 517.546463 213.264012 
L 518.4 214.305729 
L 518.4 214.305729 
" style="fill:none;stroke:#ff0000;stroke-linecap:square;stroke-width:2;"/>
   </g>
   <g id="patch_3">
    <path d="M 72 320.4 
L 72 43.2 
" style="fill:none;stroke:#000000;stroke-linecap:square;stroke-linejoin:miter;stroke-width:0.8;"/>
   </g>
   <g id="patch_4">
    <path d="M 518.4 320.4 
L 518.4 43.2 
" style="fill:none;stroke:#000000;stroke-linecap:square;stroke-linejoin:miter;stroke-width:0.8;"/>
   </g>
   <g id="patch_5">
    <path d="M 72 320.4 
L 518.4 320.4 
" style="fill:none;stroke:#000000;stroke-linecap:square;stroke-linejoin:miter;stroke-width:0.8;"/>
   </g>
   <g id="patch_6">
    <path d="M 72 43.2 
L 518.4 43.2 
" style="fill:none;stroke:#000000;stroke-linecap:square;stroke-linejoin:miter;stroke-width:0.8;"/>
   </g>
   <g id="text_15">
    <!-- Front Propogation Speed -->
    <g transform="translate(172.245312 37.2)scale(0.2 -0.2)">
     <defs>
      <path d="M 628 4666 
L 3309 4666 
L 3309 4134 
L 1259 4134 
L 1259 2759 
L 3109 2759 
L 3109 2228 
L 1259 2228 
L 1259 0 
L 628 0 
L 628 4666 
z
" id="DejaVuSans-46" transform="scale(0.015625)"/>
      <path d="M 2631 2963 
Q 2534 3019 2420 3045 
Q 2306 3072 2169 3072 
Q 1681 3072 1420 2755 
Q 1159 2438 1159 1844 
L 1159 0 
L 581 0 
L 581 3500 
L 1159 3500 
L 1159 2956 
Q 1341 3275 1631 3429 
Q 1922 3584 2338 3584 
Q 2397 3584 2469 3576 
Q 2541 3569 2628 3553 
L 2631 2963 
z
" id="DejaVuSans-72" transform="scale(0.015625)"/>
      <path d="M 1172 4494 
L 1172 3500 
L 2356 3500 
L 2356 3053 
L 1172 3053 
L 1172 1153 
Q 1172 725 1289 603 
Q 1406 481 1766 481 
L 2356 481 
L 2356 0 
L 1766 0 
Q 1100 0 847 248 
Q 594 497 594 1153 
L 594 3053 
L 172 3053 
L 172 3500 
L 594 3500 
L 594 4494 
L 1172 4494 
z
" id="DejaVuSans-74" transform="scale(0.015625)"/>
      <path d="M 1259 4147 
L 1259 2394 
L 2053 2394 
Q 2494 2394 2734 2622 
Q 2975 2850 2975 3272 
Q 2975 3691 2734 3919 
Q 2494 4147 2053 4147 
L 1259 4147 
z
M 628 4666 
L 2053 4666 
Q 2838 4666 3239 4311 
Q 3641 3956 3641 3272 
Q 3641 2581 3239 2228 
Q 2838 1875 2053 1875 
L 1259 1875 
L 1259 0 
L 628 0 
L 628 4666 
z
" id="DejaVuSans-50" transform="scale(0.015625)"/>
      <path d="M 2906 1791 
Q 2906 2416 2648 2759 
Q 2391 3103 1925 3103 
Q 1463 3103 1205 2759 
Q 947 2416 947 1791 
Q 947 1169 1205 825 
Q 1463 481 1925 481 
Q 2391 481 2648 825 
Q 2906 1169 2906 1791 
z
M 3481 434 
Q 3481 -459 3084 -895 
Q 2688 -1331 1869 -1331 
Q 1566 -1331 1297 -1286 
Q 1028 -1241 775 -1147 
L 775 -588 
Q 1028 -725 1275 -790 
Q 1522 -856 1778 -856 
Q 2344 -856 2625 -561 
Q 2906 -266 2906 331 
L 2906 616 
Q 2728 306 2450 153 
Q 2172 0 1784 0 
Q 1141 0 747 490 
Q 353 981 353 1791 
Q 353 2603 747 3093 
Q 1141 3584 1784 3584 
Q 2172 3584 2450 3431 
Q 2728 3278 2906 2969 
L 2906 3500 
L 3481 3500 
L 3481 434 
z
" id="DejaVuSans-67" transform="scale(0.015625)"/>
      <path d="M 2194 1759 
Q 1497 1759 1228 1600 
Q 959 1441 959 1056 
Q 959 750 1161 570 
Q 1363 391 1709 391 
Q 2188 391 2477 730 
Q 2766 1069 2766 1631 
L 2766 1759 
L 2194 1759 
z
M 3341 1997 
L 3341 0 
L 2766 0 
L 2766 531 
Q 2569 213 2275 61 
Q 1981 -91 1556 -91 
Q 1019 -91 701 211 
Q 384 513 384 1019 
Q 384 1609 779 1909 
Q 1175 2209 1959 2209 
L 2766 2209 
L 2766 2266 
Q 2766 2663 2505 2880 
Q 2244 3097 1772 3097 
Q 1472 3097 1187 3025 
Q 903 2953 641 2809 
L 641 3341 
Q 956 3463 1253 3523 
Q 1550 3584 1831 3584 
Q 2591 3584 2966 3190 
Q 3341 2797 3341 1997 
z
" id="DejaVuSans-61" transform="scale(0.015625)"/>
     </defs>
     <use xlink:href="#DejaVuSans-46"/>
     <use x="50.269531" xlink:href="#DejaVuSans-72"/>
     <use x="89.132812" xlink:href="#DejaVuSans-6f"/>
     <use x="150.314453" xlink:href="#DejaVuSans-6e"/>
     <use x="213.693359" xlink:href="#DejaVuSans-74"/>
     <use x="252.902344" xlink:href="#DejaVuSans-20"/>
     <use x="284.689453" xlink:href="#DejaVuSans-50"/>
     <use x="343.242188" xlink:href="#DejaVuSans-72"/>
     <use x="382.105469" xlink:href="#DejaVuSans-6f"/>
     <use x="443.287109" xlink:href="#DejaVuSans-70"/>
     <use x="506.763672" xlink:href="#DejaVuSans-6f"/>
     <use x="567.945312" xlink:href="#DejaVuSans-67"/>
     <use x="631.421875" xlink:href="#DejaVuSans-61"/>
     <use x="692.701172" xlink:href="#DejaVuSans-74"/>
     <use x="731.910156" xlink:href="#DejaVuSans-69"/>
     <use x="759.693359" xlink:href="#DejaVuSans-6f"/>
     <use x="820.875" xlink:href="#DejaVuSans-6e"/>
     <use x="884.253906" xlink:href="#DejaVuSans-20"/>
     <use x="916.041016" xlink:href="#DejaVuSans-53"/>
     <use x="979.517578" xlink:href="#DejaVuSans-70"/>
     <use x="1042.994141" xlink:href="#DejaVuSans-65"/>
     <use x="1104.517578" xlink:href="#DejaVuSans-65"/>
     <use x="1166.041016" xlink:href="#DejaVuSans-64"/>
    </g>
   </g>
   <g id="legend_1">
    <g id="patch_7">
     <path d="M 325.967812 111.175687 
L 508.6 111.175687 
Q 511.4 111.175687 511.4 108.375687 
L 511.4 53 
Q 511.4 50.2 508.6 50.2 
L 325.967812 50.2 
Q 323.167812 50.2 323.167812 53 
L 323.167812 108.375687 
Q 323.167812 111.175687 325.967812 111.175687 
z
" style="fill:#ffffff;opacity:0.8;stroke:#cccccc;stroke-linejoin:miter;"/>
    </g>
    <g id="line2d_15">
     <path d="M 328.767812 61.537812 
L 356.767812 61.537812 
" style="fill:none;stroke:#ff0000;stroke-linecap:square;stroke-width:2;"/>
    </g>
    <g id="line2d_16"/>
    <g id="text_16">
     <!-- Front speed -->
     <g transform="translate(367.967812 66.437812)scale(0.14 -0.14)">
      <use xlink:href="#DejaVuSans-46"/>
      <use x="50.269531" xlink:href="#DejaVuSans-72"/>
      <use x="89.132812" xlink:href="#DejaVuSans-6f"/>
      <use x="150.314453" xlink:href="#DejaVuSans-6e"/>
      <use x="213.693359" xlink:href="#DejaVuSans-74"/>
      <use x="252.902344" xlink:href="#DejaVuSans-20"/>
      <use x="284.689453" xlink:href="#DejaVuSans-73"/>
      <use x="336.789062" xlink:href="#DejaVuSans-70"/>
      <use x="400.265625" xlink:href="#DejaVuSans-65"/>
      <use x="461.789062" xlink:href="#DejaVuSans-65"/>
      <use x="523.3125" xlink:href="#DejaVuSans-64"/>
     </g>
    </g>
    <g id="line2d_17">
     <path d="M 328.767812 91.381437 
L 356.767812 91.381437 
" style="fill:none;stroke:#000000;stroke-dasharray:5.55,2.4;stroke-dashoffset:0;stroke-width:1.5;"/>
    </g>
    <g id="line2d_18"/>
    <g id="text_17">
     <!-- Steady state -->
     <g transform="translate(367.967812 86.987187)scale(0.14 -0.14)">
      <defs>
       <path d="M 2059 -325 
Q 1816 -950 1584 -1140 
Q 1353 -1331 966 -1331 
L 506 -1331 
L 506 -850 
L 844 -850 
Q 1081 -850 1212 -737 
Q 1344 -625 1503 -206 
L 1606 56 
L 191 3500 
L 800 3500 
L 1894 763 
L 2988 3500 
L 3597 3500 
L 2059 -325 
z
" id="DejaVuSans-79" transform="scale(0.015625)"/>
      </defs>
      <use xlink:href="#DejaVuSans-53"/>
      <use x="63.476562" xlink:href="#DejaVuSans-74"/>
      <use x="102.685547" xlink:href="#DejaVuSans-65"/>
      <use x="164.208984" xlink:href="#DejaVuSans-61"/>
      <use x="225.488281" xlink:href="#DejaVuSans-64"/>
      <use x="288.964844" xlink:href="#DejaVuSans-79"/>
      <use x="348.144531" xlink:href="#DejaVuSans-20"/>
      <use x="379.931641" xlink:href="#DejaVuSans-73"/>
      <use x="432.03125" xlink:href="#DejaVuSans-74"/>
      <use x="471.240234" xlink:href="#DejaVuSans-61"/>
      <use x="532.519531" xlink:href="#DejaVuSans-74"/>
      <use x="571.728516" xlink:href="#DejaVuSans-65"/>
     </g>
     <!-- speed = 0.59 mm/s -->
     <g transform="translate(367.967812 102.664125)scale(0.14 -0.14)">
      <defs>
       <path d="M 678 2906 
L 4684 2906 
L 4684 2381 
L 678 2381 
L 678 2906 
z
M 678 1631 
L 4684 1631 
L 4684 1100 
L 678 1100 
L 678 1631 
z
" id="DejaVuSans-3d" transform="scale(0.015625)"/>
       <path d="M 703 97 
L 703 672 
Q 941 559 1184 500 
Q 1428 441 1663 441 
Q 2288 441 2617 861 
Q 2947 1281 2994 2138 
Q 2813 1869 2534 1725 
Q 2256 1581 1919 1581 
Q 1219 1581 811 2004 
Q 403 2428 403 3163 
Q 403 3881 828 4315 
Q 1253 4750 1959 4750 
Q 2769 4750 3195 4129 
Q 3622 3509 3622 2328 
Q 3622 1225 3098 567 
Q 2575 -91 1691 -91 
Q 1453 -91 1209 -44 
Q 966 3 703 97 
z
M 1959 2075 
Q 2384 2075 2632 2365 
Q 2881 2656 2881 3163 
Q 2881 3666 2632 3958 
Q 2384 4250 1959 4250 
Q 1534 4250 1286 3958 
Q 1038 3666 1038 3163 
Q 1038 2656 1286 2365 
Q 1534 2075 1959 2075 
z
" id="DejaVuSans-39" transform="scale(0.015625)"/>
      </defs>
      <use xlink:href="#DejaVuSans-73"/>
      <use x="52.099609" xlink:href="#DejaVuSans-70"/>
      <use x="115.576172" xlink:href="#DejaVuSans-65"/>
      <use x="177.099609" xlink:href="#DejaVuSans-65"/>
      <use x="238.623047" xlink:href="#DejaVuSans-64"/>
      <use x="302.099609" xlink:href="#DejaVuSans-20"/>
      <use x="333.886719" xlink:href="#DejaVuSans-3d"/>
      <use x="417.675781" xlink:href="#DejaVuSans-20"/>
      <use x="449.462891" xlink:href="#DejaVuSans-30"/>
      <use x="513.085938" xlink:href="#DejaVuSans-2e"/>
      <use x="544.873047" xlink:href="#DejaVuSans-35"/>
      <use x="608.496094" xlink:href="#DejaVuSans-39"/>
      <use x="672.119141" xlink:href="#DejaVuSans-20"/>
      <use x="703.90625" xlink:href="#DejaVuSans-6d"/>
      <use x="801.318359" xlink:href="#DejaVuSans-6d"/>
      <use x="898.730469" xlink:href="#DejaVuSans-2f"/>
      <use x="932.421875" xlink:href="#DejaVuSans-73"/>
     </g>
    </g>
   </g>
  </g>
 </g>
 <defs>
  <clipPath id="paf7c0759b2">
   <rect height="277.2" width="446.4" x="72" y="43.2"/>
  </clipPath>
 </defs>
</svg>
