<?xml version="1.0" encoding="utf-8" standalone="no"?>
<!DOCTYPE svg PUBLIC "-//W3C//DTD SVG 1.1//EN"
  "http://www.w3.org/Graphics/SVG/1.1/DTD/svg11.dtd">
<svg height="360pt" version="1.1" viewBox="0 0 576 360" width="576pt" xmlns="http://www.w3.org/2000/svg" xmlns:xlink="http://www.w3.org/1999/xlink">
 <metadata>
  <rdf:RDF xmlns:cc="http://creativecommons.org/ns#" xmlns:dc="http://purl.org/dc/elements/1.1/" xmlns:rdf="http://www.w3.org/1999/02/22-rdf-syntax-ns#">
   <cc:Work>
    <dc:type rdf:resource="http://purl.org/dc/dcmitype/StillImage"/>
    <dc:date>2022-06-30T14:32:27.688614</dc:date>
    <dc:format>image/svg+xml</dc:format>
    <dc:creator>
     <cc:Agent>
      <dc:title>Matplotlib v3.4.3, https://matplotlib.org/</dc:title>
     </cc:Agent>
    </dc:creator>
   </cc:Work>
  </rdf:RDF>
 </metadata>
 <defs>
  <style type="text/css">*{stroke-linecap:butt;stroke-linejoin:round;}</style>
 </defs>
 <g id="figure_1">
  <g id="patch_1">
   <path d="M 0 360 
L 576 360 
L 576 0 
L 0 0 
z
" style="fill:#ffffff;"/>
  </g>
  <g id="axes_1">
   <g id="patch_2">
    <path d="M 72 320.4 
L 518.4 320.4 
L 518.4 43.2 
L 72 43.2 
z
" style="fill:#ffffff;"/>
   </g>
   <g id="PolyCollection_1">
    <defs>
     <path d="M 72 -143.885923 
L 72 -149.656667 
L 72.853537 -149.656667 
L 73.707075 -149.656667 
L 74.560612 -149.656667 
L 75.414149 -149.656667 
L 76.267686 -149.656667 
L 77.121224 -149.656667 
L 77.974761 -149.656667 
L 78.828298 -149.656667 
L 79.681836 -149.656667 
L 80.535373 -149.656667 
L 81.38891 -149.656667 
L 82.242447 -149.656667 
L 83.095985 -149.656667 
L 83.949522 -149.656667 
L 84.803059 -149.656667 
L 85.656597 -149.656667 
L 86.510134 -149.656667 
L 87.363671 -149.656667 
L 88.217208 -149.656667 
L 89.070746 -149.656667 
L 89.924283 -149.656667 
L 90.77782 -149.656667 
L 91.631358 -149.656667 
L 92.484895 -149.656667 
L 93.338432 -149.656667 
L 94.191969 -149.656667 
L 95.045507 -149.656667 
L 95.899044 -149.656667 
L 96.752581 -149.656667 
L 97.606119 -149.656667 
L 98.459656 -149.656667 
L 99.313193 -149.656667 
L 100.16673 -149.656667 
L 101.020268 -149.656667 
L 101.873805 -149.656667 
L 102.727342 -149.656667 
L 103.58088 -149.656667 
L 104.434417 -149.656667 
L 105.287954 -149.656667 
L 106.141491 -149.656667 
L 106.995029 -149.656667 
L 107.848566 -149.656667 
L 108.702103 -149.656667 
L 109.555641 -149.656667 
L 110.409178 -149.656667 
L 111.262715 -149.656667 
L 112.116252 -149.656667 
L 112.96979 -149.656667 
L 113.823327 -149.656667 
L 114.676864 -149.656667 
L 115.530402 -149.656667 
L 116.383939 -149.656667 
L 117.237476 -149.656667 
L 118.091013 -149.656667 
L 118.944551 -149.656667 
L 119.798088 -149.656667 
L 120.651625 -149.656667 
L 121.505163 -149.656667 
L 122.3587 -149.656667 
L 123.212237 -149.656667 
L 124.065774 -149.656667 
L 124.919312 -149.656667 
L 125.772849 -149.656667 
L 126.626386 -149.656667 
L 127.479924 -149.656667 
L 128.333461 -149.656667 
L 129.186998 -149.656667 
L 130.040535 -149.656667 
L 130.894073 -149.656667 
L 131.74761 -149.656667 
L 132.601147 -149.656667 
L 133.454685 -149.656667 
L 134.308222 -149.656667 
L 135.161759 -149.656667 
L 136.015296 -149.656667 
L 136.868834 -149.656667 
L 137.722371 -149.656667 
L 138.575908 -149.656667 
L 139.429446 -149.656667 
L 140.282983 -149.656667 
L 141.13652 -149.656667 
L 141.990057 -149.656667 
L 142.843595 -149.656667 
L 143.697132 -149.656667 
L 144.550669 -149.656667 
L 145.404207 -149.656667 
L 146.257744 -149.656667 
L 147.111281 -149.656667 
L 147.964818 -149.656667 
L 148.818356 -149.656667 
L 149.671893 -149.656667 
L 150.52543 -149.656667 
L 151.378967 -149.656667 
L 152.232505 -149.656667 
L 153.086042 -149.656667 
L 153.939579 -149.656667 
L 154.793117 -149.656667 
L 155.646654 -149.656667 
L 156.500191 -149.656667 
L 157.353728 -149.656667 
L 158.207266 -149.656667 
L 159.060803 -149.656667 
L 159.91434 -149.656667 
L 160.767878 -149.656667 
L 161.621415 -149.656667 
L 162.474952 -149.656667 
L 163.328489 -149.656667 
L 164.182027 -149.656667 
L 165.035564 -149.656667 
L 165.889101 -149.656667 
L 166.742639 -149.656667 
L 167.596176 -149.656667 
L 168.449713 -149.656667 
L 169.30325 -149.656667 
L 170.156788 -149.656667 
L 171.010325 -149.656667 
L 171.863862 -149.656667 
L 172.7174 -149.656667 
L 173.570937 -149.656667 
L 174.424474 -149.656667 
L 175.278011 -149.656667 
L 176.131549 -149.656667 
L 176.985086 -149.656667 
L 177.838623 -149.656667 
L 178.692161 -149.656667 
L 179.545698 -149.656667 
L 180.399235 -149.656667 
L 181.252772 -149.656667 
L 182.10631 -149.656667 
L 182.959847 -149.656667 
L 183.813384 -149.656667 
L 184.666922 -149.656667 
L 185.520459 -149.656667 
L 186.373996 -149.656667 
L 187.227533 -149.656667 
L 188.081071 -149.656667 
L 188.934608 -149.656667 
L 189.788145 -149.656667 
L 190.641683 -149.656667 
L 191.49522 -149.656667 
L 192.348757 -149.656667 
L 193.202294 -149.656667 
L 194.055832 -149.656667 
L 194.909369 -149.656667 
L 195.762906 -149.656667 
L 196.616444 -149.656667 
L 197.469981 -149.656667 
L 198.323518 -149.656667 
L 199.177055 -149.656667 
L 200.030593 -149.656667 
L 200.88413 -149.656667 
L 201.737667 -149.656667 
L 202.591205 -149.656667 
L 203.444742 -149.656667 
L 204.298279 -149.656667 
L 205.151816 -149.656667 
L 206.005354 -149.656667 
L 206.858891 -149.656667 
L 207.712428 -149.656667 
L 208.565966 -149.656667 
L 209.419503 -149.656667 
L 210.27304 -149.656667 
L 211.126577 -149.656667 
L 211.980115 -149.656667 
L 212.833652 -149.656667 
L 213.687189 -149.656667 
L 214.540727 -149.656667 
L 215.394264 -149.656667 
L 216.247801 -149.656667 
L 217.101338 -149.656667 
L 217.954876 -149.656667 
L 218.808413 -149.656667 
L 219.66195 -149.656667 
L 220.515488 -149.656667 
L 221.369025 -149.656667 
L 222.222562 -149.656667 
L 223.076099 -149.656667 
L 223.929637 -149.656667 
L 224.783174 -149.656667 
L 225.636711 -149.656667 
L 226.490249 -149.656667 
L 227.343786 -149.656667 
L 228.197323 -149.656667 
L 229.05086 -149.656667 
L 229.904398 -149.656667 
L 230.757935 -149.656667 
L 231.611472 -149.656667 
L 232.46501 -149.656667 
L 233.318547 -149.656667 
L 234.172084 -149.656667 
L 235.025621 -149.656667 
L 235.879159 -149.656667 
L 236.732696 -149.656667 
L 237.586233 -149.656667 
L 238.439771 -149.656667 
L 239.293308 -149.656667 
L 240.146845 -149.656667 
L 241.000382 -149.656667 
L 241.85392 -149.656667 
L 242.707457 -149.656667 
L 243.560994 -149.656667 
L 244.414532 -149.656667 
L 245.268069 -149.656667 
L 246.121606 -149.656667 
L 246.975143 -149.656667 
L 247.828681 -149.656667 
L 248.682218 -149.656667 
L 249.535755 -149.656667 
L 250.389293 -149.656667 
L 251.24283 -149.656667 
L 252.096367 -149.656667 
L 252.949904 -149.656667 
L 253.803442 -149.656667 
L 254.656979 -149.656667 
L 255.510516 -149.656667 
L 256.364054 -149.656667 
L 257.217591 -149.656667 
L 258.071128 -149.656667 
L 258.924665 -149.656667 
L 259.778203 -149.656667 
L 260.63174 -149.656667 
L 261.485277 -149.656667 
L 262.338815 -149.656667 
L 263.192352 -149.656667 
L 264.045889 -149.656667 
L 264.899426 -149.656667 
L 265.752964 -149.656667 
L 266.606501 -149.656667 
L 267.460038 -149.656667 
L 268.313576 -149.656667 
L 269.167113 -149.656667 
L 270.02065 -149.656667 
L 270.874187 -149.656667 
L 271.727725 -149.656667 
L 272.581262 -149.656667 
L 273.434799 -149.656667 
L 274.288337 -149.656667 
L 275.141874 -149.656667 
L 275.995411 -149.656667 
L 276.848948 -149.656667 
L 277.702486 -149.656667 
L 278.556023 -149.656667 
L 279.40956 -149.656667 
L 280.263098 -149.656667 
L 281.116635 -149.656667 
L 281.970172 -149.656667 
L 282.823709 -149.656667 
L 283.677247 -149.656667 
L 284.530784 -149.656667 
L 285.384321 -149.656667 
L 286.237859 -149.656667 
L 287.091396 -149.656667 
L 287.944933 -149.656667 
L 288.79847 -149.656667 
L 289.652008 -149.656667 
L 290.505545 -149.656667 
L 291.359082 -149.656667 
L 292.21262 -149.656667 
L 293.066157 -149.656667 
L 293.919694 -149.656667 
L 294.773231 -149.656667 
L 295.626769 -149.656667 
L 296.480306 -149.656667 
L 297.333843 -149.656667 
L 298.18738 -149.656667 
L 299.040918 -149.656667 
L 299.894455 -149.656667 
L 300.747992 -149.656667 
L 301.60153 -149.656667 
L 302.455067 -149.656667 
L 303.308604 -149.656667 
L 304.162141 -149.656667 
L 305.015679 -149.656667 
L 305.869216 -149.656667 
L 306.722753 -149.656667 
L 307.576291 -149.656667 
L 308.429828 -149.656667 
L 309.283365 -149.656667 
L 310.136902 -149.656667 
L 310.99044 -149.656667 
L 311.843977 -149.656667 
L 312.697514 -149.656667 
L 313.551052 -149.656667 
L 314.404589 -149.656667 
L 315.258126 -149.656667 
L 316.111663 -149.656667 
L 316.965201 -149.656667 
L 317.818738 -149.656667 
L 318.672275 -149.656667 
L 319.525813 -149.656667 
L 320.37935 -149.656667 
L 321.232887 -149.656667 
L 322.086424 -149.656667 
L 322.939962 -149.656667 
L 323.793499 -149.656667 
L 324.647036 -149.656667 
L 325.500574 -149.656667 
L 326.354111 -149.656667 
L 327.207648 -149.656667 
L 328.061185 -149.656667 
L 328.914723 -149.656667 
L 329.76826 -149.656667 
L 330.621797 -149.656667 
L 331.475335 -149.656667 
L 332.328872 -149.656667 
L 333.182409 -149.656667 
L 334.035946 -149.656667 
L 334.889484 -149.656667 
L 335.743021 -149.656667 
L 336.596558 -149.656667 
L 337.450096 -149.656667 
L 338.303633 -149.656667 
L 339.15717 -149.656667 
L 340.010707 -149.656667 
L 340.864245 -149.656667 
L 341.717782 -149.656667 
L 342.571319 -149.656667 
L 343.424857 -149.656667 
L 344.278394 -149.656667 
L 345.131931 -149.656667 
L 345.985468 -149.656667 
L 346.839006 -149.656667 
L 347.692543 -149.656667 
L 348.54608 -149.656667 
L 349.399618 -149.656667 
L 350.253155 -149.656667 
L 351.106692 -149.656667 
L 351.960229 -149.656667 
L 352.813767 -149.656667 
L 353.667304 -149.656667 
L 354.520841 -149.656667 
L 355.374379 -149.656667 
L 356.227916 -149.656667 
L 357.081453 -149.656667 
L 357.93499 -149.656667 
L 358.788528 -149.656667 
L 359.642065 -149.656667 
L 360.495602 -149.656667 
L 361.34914 -149.656667 
L 362.202677 -149.656667 
L 363.056214 -149.656667 
L 363.909751 -149.656667 
L 364.763289 -149.656667 
L 365.616826 -149.656667 
L 366.470363 -149.656667 
L 367.323901 -149.656667 
L 368.177438 -149.656667 
L 369.030975 -149.656667 
L 369.884512 -149.656667 
L 370.73805 -149.656667 
L 371.591587 -149.656667 
L 372.445124 -149.656667 
L 373.298662 -149.656667 
L 374.152199 -149.656667 
L 375.005736 -149.656667 
L 375.859273 -149.656667 
L 376.712811 -149.656667 
L 377.566348 -149.656667 
L 378.419885 -149.656667 
L 379.273423 -149.656667 
L 380.12696 -149.656667 
L 380.980497 -149.656667 
L 381.834034 -149.656667 
L 382.687572 -149.656667 
L 383.541109 -149.656667 
L 384.394646 -149.656667 
L 385.248184 -149.656667 
L 386.101721 -149.656667 
L 386.955258 -149.656667 
L 387.808795 -149.656667 
L 388.662333 -149.656667 
L 389.51587 -149.656667 
L 390.369407 -149.656667 
L 391.222945 -149.656667 
L 392.076482 -149.656667 
L 392.930019 -149.656667 
L 393.783556 -149.656667 
L 394.637094 -149.656667 
L 395.490631 -149.656667 
L 396.344168 -149.656667 
L 397.197706 -149.656667 
L 398.051243 -149.656667 
L 398.90478 -149.656667 
L 399.758317 -149.656667 
L 400.611855 -149.656667 
L 401.465392 -149.656667 
L 402.318929 -149.656667 
L 403.172467 -149.656667 
L 404.026004 -149.656667 
L 404.879541 -149.656667 
L 405.733078 -149.656667 
L 406.586616 -149.656667 
L 407.440153 -149.656667 
L 408.29369 -149.656667 
L 409.147228 -149.656667 
L 410.000765 -149.656667 
L 410.854302 -149.656667 
L 411.707839 -149.656667 
L 412.561377 -149.656667 
L 413.414914 -149.656667 
L 414.268451 -149.656667 
L 415.121989 -149.656667 
L 415.975526 -149.656667 
L 416.829063 -149.656667 
L 417.6826 -149.656667 
L 418.536138 -149.656667 
L 419.389675 -149.656667 
L 420.243212 -149.656667 
L 421.09675 -149.656667 
L 421.950287 -149.656667 
L 422.803824 -149.656667 
L 423.657361 -149.656667 
L 424.510899 -149.656667 
L 425.364436 -149.656667 
L 426.217973 -149.656667 
L 427.071511 -149.656667 
L 427.925048 -149.656667 
L 428.778585 -149.656667 
L 429.632122 -149.656667 
L 430.48566 -149.656667 
L 431.339197 -149.656667 
L 432.192734 -149.656667 
L 433.046272 -149.656667 
L 433.899809 -149.656667 
L 434.753346 -149.656667 
L 435.606883 -149.656667 
L 436.460421 -149.656667 
L 437.313958 -149.656667 
L 438.167495 -149.656667 
L 439.021033 -149.656667 
L 439.87457 -149.656667 
L 440.728107 -149.656667 
L 441.581644 -149.656667 
L 442.435182 -149.656667 
L 443.288719 -149.656667 
L 444.142256 -149.656667 
L 444.995793 -149.656667 
L 445.849331 -149.656667 
L 446.702868 -149.656667 
L 447.556405 -149.656667 
L 448.409943 -149.656667 
L 449.26348 -149.656667 
L 450.117017 -149.656667 
L 450.970554 -149.656667 
L 451.824092 -149.656667 
L 452.677629 -149.656667 
L 453.531166 -149.656667 
L 454.384704 -149.656667 
L 455.238241 -149.656667 
L 456.091778 -149.656667 
L 456.945315 -149.656667 
L 457.798853 -149.656667 
L 458.65239 -149.656667 
L 459.505927 -149.656667 
L 460.359465 -149.656667 
L 461.213002 -149.656667 
L 462.066539 -149.656667 
L 462.920076 -149.656667 
L 463.773614 -149.656667 
L 464.627151 -149.656667 
L 465.480688 -149.656667 
L 466.334226 -149.656667 
L 467.187763 -149.656667 
L 468.0413 -149.656667 
L 468.894837 -149.656667 
L 469.748375 -149.656667 
L 470.601912 -149.656667 
L 471.455449 -149.656667 
L 472.308987 -149.656667 
L 473.162524 -149.656667 
L 474.016061 -149.656667 
L 474.869598 -149.656667 
L 475.723136 -149.656667 
L 476.576673 -149.656667 
L 477.43021 -149.656667 
L 478.283748 -149.656667 
L 479.137285 -149.656667 
L 479.990822 -149.656667 
L 480.844359 -149.656667 
L 481.697897 -149.656667 
L 482.551434 -149.656667 
L 483.404971 -149.656667 
L 484.258509 -149.656667 
L 485.112046 -149.656667 
L 485.965583 -149.656667 
L 486.81912 -149.656667 
L 487.672658 -149.656667 
L 488.526195 -149.656667 
L 489.379732 -149.656667 
L 490.23327 -149.656667 
L 491.086807 -149.656667 
L 491.940344 -149.656667 
L 492.793881 -149.656667 
L 493.647419 -149.656667 
L 494.500956 -149.656667 
L 495.354493 -149.656667 
L 496.208031 -149.656667 
L 497.061568 -149.656667 
L 497.915105 -149.656667 
L 498.768642 -149.656667 
L 499.62218 -149.656667 
L 500.475717 -149.656667 
L 501.329254 -149.656667 
L 502.182792 -149.656667 
L 503.036329 -149.656667 
L 503.889866 -149.656667 
L 504.743403 -149.656667 
L 505.596941 -149.656667 
L 506.450478 -149.656667 
L 507.304015 -149.656667 
L 508.157553 -149.656667 
L 509.01109 -149.656667 
L 509.864627 -149.656667 
L 510.718164 -149.656667 
L 511.571702 -149.656667 
L 512.425239 -149.656667 
L 513.278776 -149.656667 
L 514.132314 -149.656667 
L 514.985851 -149.656667 
L 515.839388 -149.656667 
L 516.692925 -149.656667 
L 517.546463 -149.656667 
L 518.4 -149.656667 
L 518.4 -143.885923 
L 518.4 -143.885923 
L 517.546463 -143.885923 
L 516.692925 -143.885923 
L 515.839388 -143.885923 
L 514.985851 -143.885923 
L 514.132314 -143.885923 
L 513.278776 -143.885923 
L 512.425239 -143.885923 
L 511.571702 -143.885923 
L 510.718164 -143.885923 
L 509.864627 -143.885923 
L 509.01109 -143.885923 
L 508.157553 -143.885923 
L 507.304015 -143.885923 
L 506.450478 -143.885923 
L 505.596941 -143.885923 
L 504.743403 -143.885923 
L 503.889866 -143.885923 
L 503.036329 -143.885923 
L 502.182792 -143.885923 
L 501.329254 -143.885923 
L 500.475717 -143.885923 
L 499.62218 -143.885923 
L 498.768642 -143.885923 
L 497.915105 -143.885923 
L 497.061568 -143.885923 
L 496.208031 -143.885923 
L 495.354493 -143.885923 
L 494.500956 -143.885923 
L 493.647419 -143.885923 
L 492.793881 -143.885923 
L 491.940344 -143.885923 
L 491.086807 -143.885923 
L 490.23327 -143.885923 
L 489.379732 -143.885923 
L 488.526195 -143.885923 
L 487.672658 -143.885923 
L 486.81912 -143.885923 
L 485.965583 -143.885923 
L 485.112046 -143.885923 
L 484.258509 -143.885923 
L 483.404971 -143.885923 
L 482.551434 -143.885923 
L 481.697897 -143.885923 
L 480.844359 -143.885923 
L 479.990822 -143.885923 
L 479.137285 -143.885923 
L 478.283748 -143.885923 
L 477.43021 -143.885923 
L 476.576673 -143.885923 
L 475.723136 -143.885923 
L 474.869598 -143.885923 
L 474.016061 -143.885923 
L 473.162524 -143.885923 
L 472.308987 -143.885923 
L 471.455449 -143.885923 
L 470.601912 -143.885923 
L 469.748375 -143.885923 
L 468.894837 -143.885923 
L 468.0413 -143.885923 
L 467.187763 -143.885923 
L 466.334226 -143.885923 
L 465.480688 -143.885923 
L 464.627151 -143.885923 
L 463.773614 -143.885923 
L 462.920076 -143.885923 
L 462.066539 -143.885923 
L 461.213002 -143.885923 
L 460.359465 -143.885923 
L 459.505927 -143.885923 
L 458.65239 -143.885923 
L 457.798853 -143.885923 
L 456.945315 -143.885923 
L 456.091778 -143.885923 
L 455.238241 -143.885923 
L 454.384704 -143.885923 
L 453.531166 -143.885923 
L 452.677629 -143.885923 
L 451.824092 -143.885923 
L 450.970554 -143.885923 
L 450.117017 -143.885923 
L 449.26348 -143.885923 
L 448.409943 -143.885923 
L 447.556405 -143.885923 
L 446.702868 -143.885923 
L 445.849331 -143.885923 
L 444.995793 -143.885923 
L 444.142256 -143.885923 
L 443.288719 -143.885923 
L 442.435182 -143.885923 
L 441.581644 -143.885923 
L 440.728107 -143.885923 
L 439.87457 -143.885923 
L 439.021033 -143.885923 
L 438.167495 -143.885923 
L 437.313958 -143.885923 
L 436.460421 -143.885923 
L 435.606883 -143.885923 
L 434.753346 -143.885923 
L 433.899809 -143.885923 
L 433.046272 -143.885923 
L 432.192734 -143.885923 
L 431.339197 -143.885923 
L 430.48566 -143.885923 
L 429.632122 -143.885923 
L 428.778585 -143.885923 
L 427.925048 -143.885923 
L 427.071511 -143.885923 
L 426.217973 -143.885923 
L 425.364436 -143.885923 
L 424.510899 -143.885923 
L 423.657361 -143.885923 
L 422.803824 -143.885923 
L 421.950287 -143.885923 
L 421.09675 -143.885923 
L 420.243212 -143.885923 
L 419.389675 -143.885923 
L 418.536138 -143.885923 
L 417.6826 -143.885923 
L 416.829063 -143.885923 
L 415.975526 -143.885923 
L 415.121989 -143.885923 
L 414.268451 -143.885923 
L 413.414914 -143.885923 
L 412.561377 -143.885923 
L 411.707839 -143.885923 
L 410.854302 -143.885923 
L 410.000765 -143.885923 
L 409.147228 -143.885923 
L 408.29369 -143.885923 
L 407.440153 -143.885923 
L 406.586616 -143.885923 
L 405.733078 -143.885923 
L 404.879541 -143.885923 
L 404.026004 -143.885923 
L 403.172467 -143.885923 
L 402.318929 -143.885923 
L 401.465392 -143.885923 
L 400.611855 -143.885923 
L 399.758317 -143.885923 
L 398.90478 -143.885923 
L 398.051243 -143.885923 
L 397.197706 -143.885923 
L 396.344168 -143.885923 
L 395.490631 -143.885923 
L 394.637094 -143.885923 
L 393.783556 -143.885923 
L 392.930019 -143.885923 
L 392.076482 -143.885923 
L 391.222945 -143.885923 
L 390.369407 -143.885923 
L 389.51587 -143.885923 
L 388.662333 -143.885923 
L 387.808795 -143.885923 
L 386.955258 -143.885923 
L 386.101721 -143.885923 
L 385.248184 -143.885923 
L 384.394646 -143.885923 
L 383.541109 -143.885923 
L 382.687572 -143.885923 
L 381.834034 -143.885923 
L 380.980497 -143.885923 
L 380.12696 -143.885923 
L 379.273423 -143.885923 
L 378.419885 -143.885923 
L 377.566348 -143.885923 
L 376.712811 -143.885923 
L 375.859273 -143.885923 
L 375.005736 -143.885923 
L 374.152199 -143.885923 
L 373.298662 -143.885923 
L 372.445124 -143.885923 
L 371.591587 -143.885923 
L 370.73805 -143.885923 
L 369.884512 -143.885923 
L 369.030975 -143.885923 
L 368.177438 -143.885923 
L 367.323901 -143.885923 
L 366.470363 -143.885923 
L 365.616826 -143.885923 
L 364.763289 -143.885923 
L 363.909751 -143.885923 
L 363.056214 -143.885923 
L 362.202677 -143.885923 
L 361.34914 -143.885923 
L 360.495602 -143.885923 
L 359.642065 -143.885923 
L 358.788528 -143.885923 
L 357.93499 -143.885923 
L 357.081453 -143.885923 
L 356.227916 -143.885923 
L 355.374379 -143.885923 
L 354.520841 -143.885923 
L 353.667304 -143.885923 
L 352.813767 -143.885923 
L 351.960229 -143.885923 
L 351.106692 -143.885923 
L 350.253155 -143.885923 
L 349.399618 -143.885923 
L 348.54608 -143.885923 
L 347.692543 -143.885923 
L 346.839006 -143.885923 
L 345.985468 -143.885923 
L 345.131931 -143.885923 
L 344.278394 -143.885923 
L 343.424857 -143.885923 
L 342.571319 -143.885923 
L 341.717782 -143.885923 
L 340.864245 -143.885923 
L 340.010707 -143.885923 
L 339.15717 -143.885923 
L 338.303633 -143.885923 
L 337.450096 -143.885923 
L 336.596558 -143.885923 
L 335.743021 -143.885923 
L 334.889484 -143.885923 
L 334.035946 -143.885923 
L 333.182409 -143.885923 
L 332.328872 -143.885923 
L 331.475335 -143.885923 
L 330.621797 -143.885923 
L 329.76826 -143.885923 
L 328.914723 -143.885923 
L 328.061185 -143.885923 
L 327.207648 -143.885923 
L 326.354111 -143.885923 
L 325.500574 -143.885923 
L 324.647036 -143.885923 
L 323.793499 -143.885923 
L 322.939962 -143.885923 
L 322.086424 -143.885923 
L 321.232887 -143.885923 
L 320.37935 -143.885923 
L 319.525813 -143.885923 
L 318.672275 -143.885923 
L 317.818738 -143.885923 
L 316.965201 -143.885923 
L 316.111663 -143.885923 
L 315.258126 -143.885923 
L 314.404589 -143.885923 
L 313.551052 -143.885923 
L 312.697514 -143.885923 
L 311.843977 -143.885923 
L 310.99044 -143.885923 
L 310.136902 -143.885923 
L 309.283365 -143.885923 
L 308.429828 -143.885923 
L 307.576291 -143.885923 
L 306.722753 -143.885923 
L 305.869216 -143.885923 
L 305.015679 -143.885923 
L 304.162141 -143.885923 
L 303.308604 -143.885923 
L 302.455067 -143.885923 
L 301.60153 -143.885923 
L 300.747992 -143.885923 
L 299.894455 -143.885923 
L 299.040918 -143.885923 
L 298.18738 -143.885923 
L 297.333843 -143.885923 
L 296.480306 -143.885923 
L 295.626769 -143.885923 
L 294.773231 -143.885923 
L 293.919694 -143.885923 
L 293.066157 -143.885923 
L 292.21262 -143.885923 
L 291.359082 -143.885923 
L 290.505545 -143.885923 
L 289.652008 -143.885923 
L 288.79847 -143.885923 
L 287.944933 -143.885923 
L 287.091396 -143.885923 
L 286.237859 -143.885923 
L 285.384321 -143.885923 
L 284.530784 -143.885923 
L 283.677247 -143.885923 
L 282.823709 -143.885923 
L 281.970172 -143.885923 
L 281.116635 -143.885923 
L 280.263098 -143.885923 
L 279.40956 -143.885923 
L 278.556023 -143.885923 
L 277.702486 -143.885923 
L 276.848948 -143.885923 
L 275.995411 -143.885923 
L 275.141874 -143.885923 
L 274.288337 -143.885923 
L 273.434799 -143.885923 
L 272.581262 -143.885923 
L 271.727725 -143.885923 
L 270.874187 -143.885923 
L 270.02065 -143.885923 
L 269.167113 -143.885923 
L 268.313576 -143.885923 
L 267.460038 -143.885923 
L 266.606501 -143.885923 
L 265.752964 -143.885923 
L 264.899426 -143.885923 
L 264.045889 -143.885923 
L 263.192352 -143.885923 
L 262.338815 -143.885923 
L 261.485277 -143.885923 
L 260.63174 -143.885923 
L 259.778203 -143.885923 
L 258.924665 -143.885923 
L 258.071128 -143.885923 
L 257.217591 -143.885923 
L 256.364054 -143.885923 
L 255.510516 -143.885923 
L 254.656979 -143.885923 
L 253.803442 -143.885923 
L 252.949904 -143.885923 
L 252.096367 -143.885923 
L 251.24283 -143.885923 
L 250.389293 -143.885923 
L 249.535755 -143.885923 
L 248.682218 -143.885923 
L 247.828681 -143.885923 
L 246.975143 -143.885923 
L 246.121606 -143.885923 
L 245.268069 -143.885923 
L 244.414532 -143.885923 
L 243.560994 -143.885923 
L 242.707457 -143.885923 
L 241.85392 -143.885923 
L 241.000382 -143.885923 
L 240.146845 -143.885923 
L 239.293308 -143.885923 
L 238.439771 -143.885923 
L 237.586233 -143.885923 
L 236.732696 -143.885923 
L 235.879159 -143.885923 
L 235.025621 -143.885923 
L 234.172084 -143.885923 
L 233.318547 -143.885923 
L 232.46501 -143.885923 
L 231.611472 -143.885923 
L 230.757935 -143.885923 
L 229.904398 -143.885923 
L 229.05086 -143.885923 
L 228.197323 -143.885923 
L 227.343786 -143.885923 
L 226.490249 -143.885923 
L 225.636711 -143.885923 
L 224.783174 -143.885923 
L 223.929637 -143.885923 
L 223.076099 -143.885923 
L 222.222562 -143.885923 
L 221.369025 -143.885923 
L 220.515488 -143.885923 
L 219.66195 -143.885923 
L 218.808413 -143.885923 
L 217.954876 -143.885923 
L 217.101338 -143.885923 
L 216.247801 -143.885923 
L 215.394264 -143.885923 
L 214.540727 -143.885923 
L 213.687189 -143.885923 
L 212.833652 -143.885923 
L 211.980115 -143.885923 
L 211.126577 -143.885923 
L 210.27304 -143.885923 
L 209.419503 -143.885923 
L 208.565966 -143.885923 
L 207.712428 -143.885923 
L 206.858891 -143.885923 
L 206.005354 -143.885923 
L 205.151816 -143.885923 
L 204.298279 -143.885923 
L 203.444742 -143.885923 
L 202.591205 -143.885923 
L 201.737667 -143.885923 
L 200.88413 -143.885923 
L 200.030593 -143.885923 
L 199.177055 -143.885923 
L 198.323518 -143.885923 
L 197.469981 -143.885923 
L 196.616444 -143.885923 
L 195.762906 -143.885923 
L 194.909369 -143.885923 
L 194.055832 -143.885923 
L 193.202294 -143.885923 
L 192.348757 -143.885923 
L 191.49522 -143.885923 
L 190.641683 -143.885923 
L 189.788145 -143.885923 
L 188.934608 -143.885923 
L 188.081071 -143.885923 
L 187.227533 -143.885923 
L 186.373996 -143.885923 
L 185.520459 -143.885923 
L 184.666922 -143.885923 
L 183.813384 -143.885923 
L 182.959847 -143.885923 
L 182.10631 -143.885923 
L 181.252772 -143.885923 
L 180.399235 -143.885923 
L 179.545698 -143.885923 
L 178.692161 -143.885923 
L 177.838623 -143.885923 
L 176.985086 -143.885923 
L 176.131549 -143.885923 
L 175.278011 -143.885923 
L 174.424474 -143.885923 
L 173.570937 -143.885923 
L 172.7174 -143.885923 
L 171.863862 -143.885923 
L 171.010325 -143.885923 
L 170.156788 -143.885923 
L 169.30325 -143.885923 
L 168.449713 -143.885923 
L 167.596176 -143.885923 
L 166.742639 -143.885923 
L 165.889101 -143.885923 
L 165.035564 -143.885923 
L 164.182027 -143.885923 
L 163.328489 -143.885923 
L 162.474952 -143.885923 
L 161.621415 -143.885923 
L 160.767878 -143.885923 
L 159.91434 -143.885923 
L 159.060803 -143.885923 
L 158.207266 -143.885923 
L 157.353728 -143.885923 
L 156.500191 -143.885923 
L 155.646654 -143.885923 
L 154.793117 -143.885923 
L 153.939579 -143.885923 
L 153.086042 -143.885923 
L 152.232505 -143.885923 
L 151.378967 -143.885923 
L 150.52543 -143.885923 
L 149.671893 -143.885923 
L 148.818356 -143.885923 
L 147.964818 -143.885923 
L 147.111281 -143.885923 
L 146.257744 -143.885923 
L 145.404207 -143.885923 
L 144.550669 -143.885923 
L 143.697132 -143.885923 
L 142.843595 -143.885923 
L 141.990057 -143.885923 
L 141.13652 -143.885923 
L 140.282983 -143.885923 
L 139.429446 -143.885923 
L 138.575908 -143.885923 
L 137.722371 -143.885923 
L 136.868834 -143.885923 
L 136.015296 -143.885923 
L 135.161759 -143.885923 
L 134.308222 -143.885923 
L 133.454685 -143.885923 
L 132.601147 -143.885923 
L 131.74761 -143.885923 
L 130.894073 -143.885923 
L 130.040535 -143.885923 
L 129.186998 -143.885923 
L 128.333461 -143.885923 
L 127.479924 -143.885923 
L 126.626386 -143.885923 
L 125.772849 -143.885923 
L 124.919312 -143.885923 
L 124.065774 -143.885923 
L 123.212237 -143.885923 
L 122.3587 -143.885923 
L 121.505163 -143.885923 
L 120.651625 -143.885923 
L 119.798088 -143.885923 
L 118.944551 -143.885923 
L 118.091013 -143.885923 
L 117.237476 -143.885923 
L 116.383939 -143.885923 
L 115.530402 -143.885923 
L 114.676864 -143.885923 
L 113.823327 -143.885923 
L 112.96979 -143.885923 
L 112.116252 -143.885923 
L 111.262715 -143.885923 
L 110.409178 -143.885923 
L 109.555641 -143.885923 
L 108.702103 -143.885923 
L 107.848566 -143.885923 
L 106.995029 -143.885923 
L 106.141491 -143.885923 
L 105.287954 -143.885923 
L 104.434417 -143.885923 
L 103.58088 -143.885923 
L 102.727342 -143.885923 
L 101.873805 -143.885923 
L 101.020268 -143.885923 
L 100.16673 -143.885923 
L 99.313193 -143.885923 
L 98.459656 -143.885923 
L 97.606119 -143.885923 
L 96.752581 -143.885923 
L 95.899044 -143.885923 
L 95.045507 -143.885923 
L 94.191969 -143.885923 
L 93.338432 -143.885923 
L 92.484895 -143.885923 
L 91.631358 -143.885923 
L 90.77782 -143.885923 
L 89.924283 -143.885923 
L 89.070746 -143.885923 
L 88.217208 -143.885923 
L 87.363671 -143.885923 
L 86.510134 -143.885923 
L 85.656597 -143.885923 
L 84.803059 -143.885923 
L 83.949522 -143.885923 
L 83.095985 -143.885923 
L 82.242447 -143.885923 
L 81.38891 -143.885923 
L 80.535373 -143.885923 
L 79.681836 -143.885923 
L 78.828298 -143.885923 
L 77.974761 -143.885923 
L 77.121224 -143.885923 
L 76.267686 -143.885923 
L 75.414149 -143.885923 
L 74.560612 -143.885923 
L 73.707075 -143.885923 
L 72.853537 -143.885923 
L 72 -143.885923 
z
" id="m940208c9ce"/>
    </defs>
    <g clip-path="url(#p7e141cd0d9)">
     <use style="fill-opacity:0.15;" x="0" xlink:href="#m940208c9ce" y="360"/>
    </g>
   </g>
   <g id="matplotlib.axis_1">
    <g id="xtick_1">
     <g id="line2d_1">
      <defs>
       <path d="M 0 0 
L 0 3.5 
" id="mc638376601" style="stroke:#000000;stroke-width:0.8;"/>
      </defs>
      <g>
       <use style="stroke:#000000;stroke-width:0.8;" x="72" xlink:href="#mc638376601" y="320.4"/>
      </g>
     </g>
     <g id="text_1">
      <!-- 0.0 -->
      <g transform="translate(60.867812 338.037813)scale(0.14 -0.14)">
       <defs>
        <path d="M 2034 4250 
Q 1547 4250 1301 3770 
Q 1056 3291 1056 2328 
Q 1056 1369 1301 889 
Q 1547 409 2034 409 
Q 2525 409 2770 889 
Q 3016 1369 3016 2328 
Q 3016 3291 2770 3770 
Q 2525 4250 2034 4250 
z
M 2034 4750 
Q 2819 4750 3233 4129 
Q 3647 3509 3647 2328 
Q 3647 1150 3233 529 
Q 2819 -91 2034 -91 
Q 1250 -91 836 529 
Q 422 1150 422 2328 
Q 422 3509 836 4129 
Q 1250 4750 2034 4750 
z
" id="DejaVuSans-30" transform="scale(0.015625)"/>
        <path d="M 684 794 
L 1344 794 
L 1344 0 
L 684 0 
L 684 794 
z
" id="DejaVuSans-2e" transform="scale(0.015625)"/>
       </defs>
       <use xlink:href="#DejaVuSans-30"/>
       <use x="63.623047" xlink:href="#DejaVuSans-2e"/>
       <use x="95.410156" xlink:href="#DejaVuSans-30"/>
      </g>
     </g>
    </g>
    <g id="xtick_2">
     <g id="line2d_2">
      <g>
       <use style="stroke:#000000;stroke-width:0.8;" x="127.850265" xlink:href="#mc638376601" y="320.4"/>
      </g>
     </g>
     <g id="text_2">
      <!-- 2.5 -->
      <g transform="translate(116.718078 338.037813)scale(0.14 -0.14)">
       <defs>
        <path d="M 1228 531 
L 3431 531 
L 3431 0 
L 469 0 
L 469 531 
Q 828 903 1448 1529 
Q 2069 2156 2228 2338 
Q 2531 2678 2651 2914 
Q 2772 3150 2772 3378 
Q 2772 3750 2511 3984 
Q 2250 4219 1831 4219 
Q 1534 4219 1204 4116 
Q 875 4013 500 3803 
L 500 4441 
Q 881 4594 1212 4672 
Q 1544 4750 1819 4750 
Q 2544 4750 2975 4387 
Q 3406 4025 3406 3419 
Q 3406 3131 3298 2873 
Q 3191 2616 2906 2266 
Q 2828 2175 2409 1742 
Q 1991 1309 1228 531 
z
" id="DejaVuSans-32" transform="scale(0.015625)"/>
        <path d="M 691 4666 
L 3169 4666 
L 3169 4134 
L 1269 4134 
L 1269 2991 
Q 1406 3038 1543 3061 
Q 1681 3084 1819 3084 
Q 2600 3084 3056 2656 
Q 3513 2228 3513 1497 
Q 3513 744 3044 326 
Q 2575 -91 1722 -91 
Q 1428 -91 1123 -41 
Q 819 9 494 109 
L 494 744 
Q 775 591 1075 516 
Q 1375 441 1709 441 
Q 2250 441 2565 725 
Q 2881 1009 2881 1497 
Q 2881 1984 2565 2268 
Q 2250 2553 1709 2553 
Q 1456 2553 1204 2497 
Q 953 2441 691 2322 
L 691 4666 
z
" id="DejaVuSans-35" transform="scale(0.015625)"/>
       </defs>
       <use xlink:href="#DejaVuSans-32"/>
       <use x="63.623047" xlink:href="#DejaVuSans-2e"/>
       <use x="95.410156" xlink:href="#DejaVuSans-35"/>
      </g>
     </g>
    </g>
    <g id="xtick_3">
     <g id="line2d_3">
      <g>
       <use style="stroke:#000000;stroke-width:0.8;" x="183.70053" xlink:href="#mc638376601" y="320.4"/>
      </g>
     </g>
     <g id="text_3">
      <!-- 5.0 -->
      <g transform="translate(172.568343 338.037813)scale(0.14 -0.14)">
       <use xlink:href="#DejaVuSans-35"/>
       <use x="63.623047" xlink:href="#DejaVuSans-2e"/>
       <use x="95.410156" xlink:href="#DejaVuSans-30"/>
      </g>
     </g>
    </g>
    <g id="xtick_4">
     <g id="line2d_4">
      <g>
       <use style="stroke:#000000;stroke-width:0.8;" x="239.550796" xlink:href="#mc638376601" y="320.4"/>
      </g>
     </g>
     <g id="text_4">
      <!-- 7.5 -->
      <g transform="translate(228.418608 338.037813)scale(0.14 -0.14)">
       <defs>
        <path d="M 525 4666 
L 3525 4666 
L 3525 4397 
L 1831 0 
L 1172 0 
L 2766 4134 
L 525 4134 
L 525 4666 
z
" id="DejaVuSans-37" transform="scale(0.015625)"/>
       </defs>
       <use xlink:href="#DejaVuSans-37"/>
       <use x="63.623047" xlink:href="#DejaVuSans-2e"/>
       <use x="95.410156" xlink:href="#DejaVuSans-35"/>
      </g>
     </g>
    </g>
    <g id="xtick_5">
     <g id="line2d_5">
      <g>
       <use style="stroke:#000000;stroke-width:0.8;" x="295.401061" xlink:href="#mc638376601" y="320.4"/>
      </g>
     </g>
     <g id="text_5">
      <!-- 10.0 -->
      <g transform="translate(279.815123 338.037813)scale(0.14 -0.14)">
       <defs>
        <path d="M 794 531 
L 1825 531 
L 1825 4091 
L 703 3866 
L 703 4441 
L 1819 4666 
L 2450 4666 
L 2450 531 
L 3481 531 
L 3481 0 
L 794 0 
L 794 531 
z
" id="DejaVuSans-31" transform="scale(0.015625)"/>
       </defs>
       <use xlink:href="#DejaVuSans-31"/>
       <use x="63.623047" xlink:href="#DejaVuSans-30"/>
       <use x="127.246094" xlink:href="#DejaVuSans-2e"/>
       <use x="159.033203" xlink:href="#DejaVuSans-30"/>
      </g>
     </g>
    </g>
    <g id="xtick_6">
     <g id="line2d_6">
      <g>
       <use style="stroke:#000000;stroke-width:0.8;" x="351.251326" xlink:href="#mc638376601" y="320.4"/>
      </g>
     </g>
     <g id="text_6">
      <!-- 12.5 -->
      <g transform="translate(335.665389 338.037813)scale(0.14 -0.14)">
       <use xlink:href="#DejaVuSans-31"/>
       <use x="63.623047" xlink:href="#DejaVuSans-32"/>
       <use x="127.246094" xlink:href="#DejaVuSans-2e"/>
       <use x="159.033203" xlink:href="#DejaVuSans-35"/>
      </g>
     </g>
    </g>
    <g id="xtick_7">
     <g id="line2d_7">
      <g>
       <use style="stroke:#000000;stroke-width:0.8;" x="407.101591" xlink:href="#mc638376601" y="320.4"/>
      </g>
     </g>
     <g id="text_7">
      <!-- 15.0 -->
      <g transform="translate(391.515654 338.037813)scale(0.14 -0.14)">
       <use xlink:href="#DejaVuSans-31"/>
       <use x="63.623047" xlink:href="#DejaVuSans-35"/>
       <use x="127.246094" xlink:href="#DejaVuSans-2e"/>
       <use x="159.033203" xlink:href="#DejaVuSans-30"/>
      </g>
     </g>
    </g>
    <g id="xtick_8">
     <g id="line2d_8">
      <g>
       <use style="stroke:#000000;stroke-width:0.8;" x="462.951857" xlink:href="#mc638376601" y="320.4"/>
      </g>
     </g>
     <g id="text_8">
      <!-- 17.5 -->
      <g transform="translate(447.365919 338.037813)scale(0.14 -0.14)">
       <use xlink:href="#DejaVuSans-31"/>
       <use x="63.623047" xlink:href="#DejaVuSans-37"/>
       <use x="127.246094" xlink:href="#DejaVuSans-2e"/>
       <use x="159.033203" xlink:href="#DejaVuSans-35"/>
      </g>
     </g>
    </g>
    <g id="text_9">
     <!-- Time [Seconds] -->
     <g transform="translate(233.23 357.106875)scale(0.16 -0.16)">
      <defs>
       <path d="M -19 4666 
L 3928 4666 
L 3928 4134 
L 2272 4134 
L 2272 0 
L 1638 0 
L 1638 4134 
L -19 4134 
L -19 4666 
z
" id="DejaVuSans-54" transform="scale(0.015625)"/>
       <path d="M 603 3500 
L 1178 3500 
L 1178 0 
L 603 0 
L 603 3500 
z
M 603 4863 
L 1178 4863 
L 1178 4134 
L 603 4134 
L 603 4863 
z
" id="DejaVuSans-69" transform="scale(0.015625)"/>
       <path d="M 3328 2828 
Q 3544 3216 3844 3400 
Q 4144 3584 4550 3584 
Q 5097 3584 5394 3201 
Q 5691 2819 5691 2113 
L 5691 0 
L 5113 0 
L 5113 2094 
Q 5113 2597 4934 2840 
Q 4756 3084 4391 3084 
Q 3944 3084 3684 2787 
Q 3425 2491 3425 1978 
L 3425 0 
L 2847 0 
L 2847 2094 
Q 2847 2600 2669 2842 
Q 2491 3084 2119 3084 
Q 1678 3084 1418 2786 
Q 1159 2488 1159 1978 
L 1159 0 
L 581 0 
L 581 3500 
L 1159 3500 
L 1159 2956 
Q 1356 3278 1631 3431 
Q 1906 3584 2284 3584 
Q 2666 3584 2933 3390 
Q 3200 3197 3328 2828 
z
" id="DejaVuSans-6d" transform="scale(0.015625)"/>
       <path d="M 3597 1894 
L 3597 1613 
L 953 1613 
Q 991 1019 1311 708 
Q 1631 397 2203 397 
Q 2534 397 2845 478 
Q 3156 559 3463 722 
L 3463 178 
Q 3153 47 2828 -22 
Q 2503 -91 2169 -91 
Q 1331 -91 842 396 
Q 353 884 353 1716 
Q 353 2575 817 3079 
Q 1281 3584 2069 3584 
Q 2775 3584 3186 3129 
Q 3597 2675 3597 1894 
z
M 3022 2063 
Q 3016 2534 2758 2815 
Q 2500 3097 2075 3097 
Q 1594 3097 1305 2825 
Q 1016 2553 972 2059 
L 3022 2063 
z
" id="DejaVuSans-65" transform="scale(0.015625)"/>
       <path id="DejaVuSans-20" transform="scale(0.015625)"/>
       <path d="M 550 4863 
L 1875 4863 
L 1875 4416 
L 1125 4416 
L 1125 -397 
L 1875 -397 
L 1875 -844 
L 550 -844 
L 550 4863 
z
" id="DejaVuSans-5b" transform="scale(0.015625)"/>
       <path d="M 3425 4513 
L 3425 3897 
Q 3066 4069 2747 4153 
Q 2428 4238 2131 4238 
Q 1616 4238 1336 4038 
Q 1056 3838 1056 3469 
Q 1056 3159 1242 3001 
Q 1428 2844 1947 2747 
L 2328 2669 
Q 3034 2534 3370 2195 
Q 3706 1856 3706 1288 
Q 3706 609 3251 259 
Q 2797 -91 1919 -91 
Q 1588 -91 1214 -16 
Q 841 59 441 206 
L 441 856 
Q 825 641 1194 531 
Q 1563 422 1919 422 
Q 2459 422 2753 634 
Q 3047 847 3047 1241 
Q 3047 1584 2836 1778 
Q 2625 1972 2144 2069 
L 1759 2144 
Q 1053 2284 737 2584 
Q 422 2884 422 3419 
Q 422 4038 858 4394 
Q 1294 4750 2059 4750 
Q 2388 4750 2728 4690 
Q 3069 4631 3425 4513 
z
" id="DejaVuSans-53" transform="scale(0.015625)"/>
       <path d="M 3122 3366 
L 3122 2828 
Q 2878 2963 2633 3030 
Q 2388 3097 2138 3097 
Q 1578 3097 1268 2742 
Q 959 2388 959 1747 
Q 959 1106 1268 751 
Q 1578 397 2138 397 
Q 2388 397 2633 464 
Q 2878 531 3122 666 
L 3122 134 
Q 2881 22 2623 -34 
Q 2366 -91 2075 -91 
Q 1284 -91 818 406 
Q 353 903 353 1747 
Q 353 2603 823 3093 
Q 1294 3584 2113 3584 
Q 2378 3584 2631 3529 
Q 2884 3475 3122 3366 
z
" id="DejaVuSans-63" transform="scale(0.015625)"/>
       <path d="M 1959 3097 
Q 1497 3097 1228 2736 
Q 959 2375 959 1747 
Q 959 1119 1226 758 
Q 1494 397 1959 397 
Q 2419 397 2687 759 
Q 2956 1122 2956 1747 
Q 2956 2369 2687 2733 
Q 2419 3097 1959 3097 
z
M 1959 3584 
Q 2709 3584 3137 3096 
Q 3566 2609 3566 1747 
Q 3566 888 3137 398 
Q 2709 -91 1959 -91 
Q 1206 -91 779 398 
Q 353 888 353 1747 
Q 353 2609 779 3096 
Q 1206 3584 1959 3584 
z
" id="DejaVuSans-6f" transform="scale(0.015625)"/>
       <path d="M 3513 2113 
L 3513 0 
L 2938 0 
L 2938 2094 
Q 2938 2591 2744 2837 
Q 2550 3084 2163 3084 
Q 1697 3084 1428 2787 
Q 1159 2491 1159 1978 
L 1159 0 
L 581 0 
L 581 3500 
L 1159 3500 
L 1159 2956 
Q 1366 3272 1645 3428 
Q 1925 3584 2291 3584 
Q 2894 3584 3203 3211 
Q 3513 2838 3513 2113 
z
" id="DejaVuSans-6e" transform="scale(0.015625)"/>
       <path d="M 2906 2969 
L 2906 4863 
L 3481 4863 
L 3481 0 
L 2906 0 
L 2906 525 
Q 2725 213 2448 61 
Q 2172 -91 1784 -91 
Q 1150 -91 751 415 
Q 353 922 353 1747 
Q 353 2572 751 3078 
Q 1150 3584 1784 3584 
Q 2172 3584 2448 3432 
Q 2725 3281 2906 2969 
z
M 947 1747 
Q 947 1113 1208 752 
Q 1469 391 1925 391 
Q 2381 391 2643 752 
Q 2906 1113 2906 1747 
Q 2906 2381 2643 2742 
Q 2381 3103 1925 3103 
Q 1469 3103 1208 2742 
Q 947 2381 947 1747 
z
" id="DejaVuSans-64" transform="scale(0.015625)"/>
       <path d="M 2834 3397 
L 2834 2853 
Q 2591 2978 2328 3040 
Q 2066 3103 1784 3103 
Q 1356 3103 1142 2972 
Q 928 2841 928 2578 
Q 928 2378 1081 2264 
Q 1234 2150 1697 2047 
L 1894 2003 
Q 2506 1872 2764 1633 
Q 3022 1394 3022 966 
Q 3022 478 2636 193 
Q 2250 -91 1575 -91 
Q 1294 -91 989 -36 
Q 684 19 347 128 
L 347 722 
Q 666 556 975 473 
Q 1284 391 1588 391 
Q 1994 391 2212 530 
Q 2431 669 2431 922 
Q 2431 1156 2273 1281 
Q 2116 1406 1581 1522 
L 1381 1569 
Q 847 1681 609 1914 
Q 372 2147 372 2553 
Q 372 3047 722 3315 
Q 1072 3584 1716 3584 
Q 2034 3584 2315 3537 
Q 2597 3491 2834 3397 
z
" id="DejaVuSans-73" transform="scale(0.015625)"/>
       <path d="M 1947 4863 
L 1947 -844 
L 622 -844 
L 622 -397 
L 1369 -397 
L 1369 4416 
L 622 4416 
L 622 4863 
L 1947 4863 
z
" id="DejaVuSans-5d" transform="scale(0.015625)"/>
      </defs>
      <use xlink:href="#DejaVuSans-54"/>
      <use x="57.958984" xlink:href="#DejaVuSans-69"/>
      <use x="85.742188" xlink:href="#DejaVuSans-6d"/>
      <use x="183.154297" xlink:href="#DejaVuSans-65"/>
      <use x="244.677734" xlink:href="#DejaVuSans-20"/>
      <use x="276.464844" xlink:href="#DejaVuSans-5b"/>
      <use x="315.478516" xlink:href="#DejaVuSans-53"/>
      <use x="378.955078" xlink:href="#DejaVuSans-65"/>
      <use x="440.478516" xlink:href="#DejaVuSans-63"/>
      <use x="495.458984" xlink:href="#DejaVuSans-6f"/>
      <use x="556.640625" xlink:href="#DejaVuSans-6e"/>
      <use x="620.019531" xlink:href="#DejaVuSans-64"/>
      <use x="683.496094" xlink:href="#DejaVuSans-73"/>
      <use x="735.595703" xlink:href="#DejaVuSans-5d"/>
     </g>
    </g>
   </g>
   <g id="matplotlib.axis_2">
    <g id="ytick_1">
     <g id="line2d_9">
      <defs>
       <path d="M 0 0 
L -3.5 0 
" id="m73f31e41be" style="stroke:#000000;stroke-width:0.8;"/>
      </defs>
      <g>
       <use style="stroke:#000000;stroke-width:0.8;" x="72" xlink:href="#m73f31e41be" y="291.703711"/>
      </g>
     </g>
     <g id="text_10">
      <!-- 0.00 -->
      <g transform="translate(33.828125 297.022618)scale(0.14 -0.14)">
       <use xlink:href="#DejaVuSans-30"/>
       <use x="63.623047" xlink:href="#DejaVuSans-2e"/>
       <use x="95.410156" xlink:href="#DejaVuSans-30"/>
       <use x="159.033203" xlink:href="#DejaVuSans-30"/>
      </g>
     </g>
    </g>
    <g id="ytick_2">
     <g id="line2d_10">
      <g>
       <use style="stroke:#000000;stroke-width:0.8;" x="72" xlink:href="#m73f31e41be" y="258.258254"/>
      </g>
     </g>
     <g id="text_11">
      <!-- 0.25 -->
      <g transform="translate(33.828125 263.57716)scale(0.14 -0.14)">
       <use xlink:href="#DejaVuSans-30"/>
       <use x="63.623047" xlink:href="#DejaVuSans-2e"/>
       <use x="95.410156" xlink:href="#DejaVuSans-32"/>
       <use x="159.033203" xlink:href="#DejaVuSans-35"/>
      </g>
     </g>
    </g>
    <g id="ytick_3">
     <g id="line2d_11">
      <g>
       <use style="stroke:#000000;stroke-width:0.8;" x="72" xlink:href="#m73f31e41be" y="224.812797"/>
      </g>
     </g>
     <g id="text_12">
      <!-- 0.50 -->
      <g transform="translate(33.828125 230.131703)scale(0.14 -0.14)">
       <use xlink:href="#DejaVuSans-30"/>
       <use x="63.623047" xlink:href="#DejaVuSans-2e"/>
       <use x="95.410156" xlink:href="#DejaVuSans-35"/>
       <use x="159.033203" xlink:href="#DejaVuSans-30"/>
      </g>
     </g>
    </g>
    <g id="ytick_4">
     <g id="line2d_12">
      <g>
       <use style="stroke:#000000;stroke-width:0.8;" x="72" xlink:href="#m73f31e41be" y="191.36734"/>
      </g>
     </g>
     <g id="text_13">
      <!-- 0.75 -->
      <g transform="translate(33.828125 196.686246)scale(0.14 -0.14)">
       <use xlink:href="#DejaVuSans-30"/>
       <use x="63.623047" xlink:href="#DejaVuSans-2e"/>
       <use x="95.410156" xlink:href="#DejaVuSans-37"/>
       <use x="159.033203" xlink:href="#DejaVuSans-35"/>
      </g>
     </g>
    </g>
    <g id="ytick_5">
     <g id="line2d_13">
      <g>
       <use style="stroke:#000000;stroke-width:0.8;" x="72" xlink:href="#m73f31e41be" y="157.921883"/>
      </g>
     </g>
     <g id="text_14">
      <!-- 1.00 -->
      <g transform="translate(33.828125 163.240789)scale(0.14 -0.14)">
       <use xlink:href="#DejaVuSans-31"/>
       <use x="63.623047" xlink:href="#DejaVuSans-2e"/>
       <use x="95.410156" xlink:href="#DejaVuSans-30"/>
       <use x="159.033203" xlink:href="#DejaVuSans-30"/>
      </g>
     </g>
    </g>
    <g id="ytick_6">
     <g id="line2d_14">
      <g>
       <use style="stroke:#000000;stroke-width:0.8;" x="72" xlink:href="#m73f31e41be" y="124.476426"/>
      </g>
     </g>
     <g id="text_15">
      <!-- 1.25 -->
      <g transform="translate(33.828125 129.795332)scale(0.14 -0.14)">
       <use xlink:href="#DejaVuSans-31"/>
       <use x="63.623047" xlink:href="#DejaVuSans-2e"/>
       <use x="95.410156" xlink:href="#DejaVuSans-32"/>
       <use x="159.033203" xlink:href="#DejaVuSans-35"/>
      </g>
     </g>
    </g>
    <g id="ytick_7">
     <g id="line2d_15">
      <g>
       <use style="stroke:#000000;stroke-width:0.8;" x="72" xlink:href="#m73f31e41be" y="91.030969"/>
      </g>
     </g>
     <g id="text_16">
      <!-- 1.50 -->
      <g transform="translate(33.828125 96.349875)scale(0.14 -0.14)">
       <use xlink:href="#DejaVuSans-31"/>
       <use x="63.623047" xlink:href="#DejaVuSans-2e"/>
       <use x="95.410156" xlink:href="#DejaVuSans-35"/>
       <use x="159.033203" xlink:href="#DejaVuSans-30"/>
      </g>
     </g>
    </g>
    <g id="ytick_8">
     <g id="line2d_16">
      <g>
       <use style="stroke:#000000;stroke-width:0.8;" x="72" xlink:href="#m73f31e41be" y="57.585512"/>
      </g>
     </g>
     <g id="text_17">
      <!-- 1.75 -->
      <g transform="translate(33.828125 62.904418)scale(0.14 -0.14)">
       <use xlink:href="#DejaVuSans-31"/>
       <use x="63.623047" xlink:href="#DejaVuSans-2e"/>
       <use x="95.410156" xlink:href="#DejaVuSans-37"/>
       <use x="159.033203" xlink:href="#DejaVuSans-35"/>
      </g>
     </g>
    </g>
    <g id="text_18">
     <!-- Speed [mm/s] -->
     <g transform="translate(26.500625 238.11375)rotate(-90)scale(0.16 -0.16)">
      <defs>
       <path d="M 1159 525 
L 1159 -1331 
L 581 -1331 
L 581 3500 
L 1159 3500 
L 1159 2969 
Q 1341 3281 1617 3432 
Q 1894 3584 2278 3584 
Q 2916 3584 3314 3078 
Q 3713 2572 3713 1747 
Q 3713 922 3314 415 
Q 2916 -91 2278 -91 
Q 1894 -91 1617 61 
Q 1341 213 1159 525 
z
M 3116 1747 
Q 3116 2381 2855 2742 
Q 2594 3103 2138 3103 
Q 1681 3103 1420 2742 
Q 1159 2381 1159 1747 
Q 1159 1113 1420 752 
Q 1681 391 2138 391 
Q 2594 391 2855 752 
Q 3116 1113 3116 1747 
z
" id="DejaVuSans-70" transform="scale(0.015625)"/>
       <path d="M 1625 4666 
L 2156 4666 
L 531 -594 
L 0 -594 
L 1625 4666 
z
" id="DejaVuSans-2f" transform="scale(0.015625)"/>
      </defs>
      <use xlink:href="#DejaVuSans-53"/>
      <use x="63.476562" xlink:href="#DejaVuSans-70"/>
      <use x="126.953125" xlink:href="#DejaVuSans-65"/>
      <use x="188.476562" xlink:href="#DejaVuSans-65"/>
      <use x="250" xlink:href="#DejaVuSans-64"/>
      <use x="313.476562" xlink:href="#DejaVuSans-20"/>
      <use x="345.263672" xlink:href="#DejaVuSans-5b"/>
      <use x="384.277344" xlink:href="#DejaVuSans-6d"/>
      <use x="481.689453" xlink:href="#DejaVuSans-6d"/>
      <use x="579.101562" xlink:href="#DejaVuSans-2f"/>
      <use x="612.792969" xlink:href="#DejaVuSans-73"/>
      <use x="664.892578" xlink:href="#DejaVuSans-5d"/>
     </g>
    </g>
   </g>
   <g id="line2d_17">
    <path clip-path="url(#p7e141cd0d9)" d="M 72 213.228705 
L 518.4 213.228705 
" style="fill:none;stroke:#000000;stroke-dasharray:5.55,2.4;stroke-dashoffset:0;stroke-width:1.5;"/>
   </g>
   <g id="line2d_18">
    <path clip-path="url(#p7e141cd0d9)" d="M 72 289.117722 
L 128.333461 289.034402 
L 129.186998 289.474543 
L 130.894073 285.941545 
L 131.74761 287.997597 
L 133.454685 293.213608 
L 134.308222 291.078552 
L 135.161759 290.372778 
L 136.015296 283.99395 
L 136.868834 283.583857 
L 137.722371 301.565706 
L 138.575908 307.8 
L 139.429446 298.008251 
L 140.282983 279.123152 
L 141.13652 250.844557 
L 141.990057 216.942446 
L 143.697132 144.639102 
L 145.404207 85.651039 
L 146.257744 65.725455 
L 147.111281 57.766644 
L 147.964818 55.8 
L 148.818356 59.665946 
L 149.671893 74.872309 
L 151.378967 114.724727 
L 153.939579 187.227487 
L 154.793117 201.842053 
L 155.646654 204.447543 
L 156.500191 197.806076 
L 157.353728 182.322654 
L 158.207266 177.309923 
L 159.060803 190.820208 
L 159.91434 194.991965 
L 160.767878 195.589497 
L 161.621415 199.241499 
L 162.474952 200.767091 
L 163.328489 201.368805 
L 164.182027 200.587619 
L 165.035564 203.39134 
L 165.889101 205.303145 
L 166.742639 202.162914 
L 167.596176 203.362308 
L 168.449713 206.663131 
L 169.30325 205.892588 
L 170.156788 204.340516 
L 171.010325 206.69288 
L 171.863862 206.543743 
L 172.7174 206.150036 
L 173.570937 207.955991 
L 174.424474 208.839201 
L 175.278011 208.474216 
L 176.131549 209.286388 
L 176.985086 210.282183 
L 177.838623 209.68116 
L 178.692161 210.017037 
L 179.545698 209.68282 
L 181.252772 210.571317 
L 182.10631 210.121747 
L 183.813384 211.109286 
L 185.520459 211.370481 
L 186.373996 211.148846 
L 187.227533 211.294134 
L 188.081071 211.843184 
L 189.788145 212.227467 
L 191.49522 212.445886 
L 192.348757 212.007977 
L 193.202294 211.837148 
L 194.055832 211.899353 
L 195.762906 212.457362 
L 196.616444 212.276381 
L 197.469981 212.381682 
L 198.323518 212.898405 
L 199.177055 213.121982 
L 200.88413 212.12768 
L 201.737667 212.400402 
L 202.591205 212.957523 
L 203.444742 212.627709 
L 204.298279 212.764828 
L 205.151816 213.632835 
L 206.005354 214.062838 
L 206.858891 214.193867 
L 207.712428 213.426279 
L 208.565966 212.957458 
L 209.419503 213.633737 
L 210.27304 213.978545 
L 211.980115 213.233208 
L 212.833652 213.294398 
L 213.687189 213.09613 
L 215.394264 213.204781 
L 217.101338 213.043811 
L 217.954876 213.231295 
L 218.808413 213.662674 
L 219.66195 213.149668 
L 220.515488 213.010915 
L 221.369025 213.678958 
L 222.222562 213.911553 
L 223.076099 213.383169 
L 223.929637 213.105646 
L 225.636711 213.645232 
L 226.490249 213.785097 
L 227.343786 214.095485 
L 228.197323 214.121798 
L 229.05086 213.601373 
L 229.904398 213.788162 
L 231.611472 214.615489 
L 232.46501 214.492299 
L 233.318547 213.916528 
L 235.025621 214.280708 
L 235.879159 213.783557 
L 236.732696 213.670274 
L 237.586233 214.546433 
L 238.439771 214.912333 
L 239.293308 214.655302 
L 240.146845 214.106516 
L 241.000382 213.896149 
L 241.85392 214.060985 
L 242.707457 213.860858 
L 243.560994 213.515998 
L 244.414532 213.020043 
L 245.268069 213.332262 
L 246.121606 213.857445 
L 246.975143 213.461477 
L 247.828681 213.431623 
L 248.682218 213.656209 
L 249.535755 213.705096 
L 251.24283 213.448753 
L 252.096367 213.171061 
L 253.803442 213.967561 
L 254.656979 213.540307 
L 256.364054 213.738956 
L 257.217591 213.431051 
L 258.071128 213.466341 
L 258.924665 214.233574 
L 259.778203 214.405135 
L 260.63174 213.527639 
L 261.485277 213.160952 
L 262.338815 214.347819 
L 263.192352 214.802328 
L 264.045889 213.944788 
L 264.899426 214.059258 
L 265.752964 214.532298 
L 266.606501 214.673194 
L 267.460038 214.213393 
L 268.313576 213.523931 
L 269.167113 214.063899 
L 270.02065 214.971778 
L 270.874187 215.154278 
L 273.434799 214.363259 
L 274.288337 214.362579 
L 275.141874 213.909374 
L 275.995411 213.721015 
L 277.702486 214.174016 
L 279.40956 214.060291 
L 281.116635 215.181588 
L 281.970172 214.481017 
L 282.823709 213.435938 
L 283.677247 213.894241 
L 284.530784 214.730359 
L 286.237859 213.702011 
L 287.944933 213.657575 
L 288.79847 213.113228 
L 289.652008 212.255773 
L 290.505545 212.770544 
L 291.359082 213.941371 
L 292.21262 214.163898 
L 293.066157 213.558474 
L 293.919694 213.390265 
L 295.626769 214.385601 
L 296.480306 214.10655 
L 297.333843 214.245608 
L 298.18738 213.881583 
L 299.040918 213.684101 
L 299.894455 214.333503 
L 300.747992 214.455257 
L 301.60153 214.823289 
L 302.455067 215.387891 
L 303.308604 214.779547 
L 304.162141 213.724868 
L 305.015679 213.989392 
L 305.869216 214.379091 
L 306.722753 214.577998 
L 307.576291 214.032775 
L 308.429828 213.619581 
L 309.283365 214.310393 
L 310.136902 213.85186 
L 310.99044 212.931246 
L 311.843977 213.246153 
L 312.697514 214.287417 
L 313.551052 214.518678 
L 314.404589 213.254323 
L 315.258126 213.244776 
L 316.111663 214.55815 
L 316.965201 215.051853 
L 317.818738 214.942726 
L 318.672275 214.632922 
L 319.525813 214.142826 
L 320.37935 213.823403 
L 321.232887 213.980837 
L 322.086424 213.901978 
L 322.939962 214.075665 
L 323.793499 214.369769 
L 325.500574 213.521362 
L 326.354111 213.340402 
L 327.207648 213.008639 
L 328.061185 213.406904 
L 328.914723 212.888755 
L 329.76826 212.797009 
L 330.621797 214.531556 
L 331.475335 214.977066 
L 332.328872 214.440717 
L 333.182409 214.670667 
L 334.035946 215.325515 
L 334.889484 215.109901 
L 335.743021 214.258689 
L 336.596558 214.424333 
L 337.450096 214.456221 
L 338.303633 214.315564 
L 339.15717 215.398675 
L 340.010707 215.347331 
L 340.864245 214.861936 
L 341.717782 213.951259 
L 342.571319 213.663192 
L 343.424857 213.962426 
L 344.278394 213.767903 
L 345.131931 214.268353 
L 345.985468 214.360118 
L 346.839006 214.280154 
L 348.54608 213.50071 
L 349.399618 213.47846 
L 350.253155 213.145824 
L 351.106692 213.185538 
L 351.960229 214.421973 
L 352.813767 214.768854 
L 353.667304 214.733658 
L 354.520841 214.812359 
L 355.374379 215.035512 
L 356.227916 215.065924 
L 357.081453 214.004282 
L 358.788528 213.339874 
L 359.642065 213.689312 
L 360.495602 214.622295 
L 362.202677 213.056466 
L 363.909751 212.703917 
L 364.763289 212.961248 
L 366.470363 214.952475 
L 368.177438 215.302867 
L 369.030975 215.067156 
L 369.884512 214.532944 
L 370.73805 213.860915 
L 371.591587 213.694187 
L 374.152199 213.933253 
L 375.005736 214.372521 
L 375.859273 214.332723 
L 376.712811 214.159262 
L 377.566348 213.406517 
L 378.419885 212.888957 
L 379.273423 213.92804 
L 380.12696 213.571781 
L 380.980497 213.949751 
L 381.834034 215.083471 
L 382.687572 215.064247 
L 383.541109 214.689535 
L 385.248184 213.510681 
L 386.101721 213.888885 
L 386.955258 213.723935 
L 387.808795 213.780164 
L 388.662333 214.680305 
L 389.51587 215.351165 
L 390.369407 215.415716 
L 391.222945 214.476736 
L 392.076482 213.727135 
L 393.783556 213.167095 
L 394.637094 213.339265 
L 395.490631 214.316409 
L 396.344168 214.725735 
L 397.197706 214.06145 
L 398.90478 213.154992 
L 400.611855 213.887322 
L 401.465392 213.134013 
L 402.318929 213.680661 
L 403.172467 215.052967 
L 404.026004 215.497903 
L 405.733078 214.34518 
L 407.440153 214.049855 
L 408.29369 213.502582 
L 409.147228 213.653727 
L 410.000765 214.076092 
L 410.854302 214.652456 
L 411.707839 214.792872 
L 412.561377 213.612219 
L 413.414914 213.348704 
L 414.268451 212.933744 
L 415.121989 213.008871 
L 416.829063 214.481777 
L 417.6826 214.854081 
L 418.536138 214.945811 
L 419.389675 215.279031 
L 421.09675 214.106337 
L 421.950287 213.939009 
L 422.803824 213.583907 
L 423.657361 213.640737 
L 424.510899 214.473447 
L 425.364436 215.069655 
L 426.217973 214.894581 
L 427.071511 213.842547 
L 427.925048 213.352649 
L 428.778585 213.271001 
L 429.632122 213.445381 
L 430.48566 213.866075 
L 431.339197 214.147116 
L 432.192734 214.936931 
L 433.046272 215.055439 
L 433.899809 214.194608 
L 435.606883 213.391052 
L 436.460421 213.040367 
L 437.313958 212.978439 
L 438.167495 213.555065 
L 439.021033 214.280067 
L 439.87457 214.832319 
L 440.728107 215.136238 
L 441.581644 214.852834 
L 442.435182 214.017602 
L 443.288719 213.787925 
L 444.995793 214.099398 
L 446.702868 214.870985 
L 447.556405 214.688229 
L 448.409943 213.591506 
L 449.26348 212.881561 
L 450.117017 212.811614 
L 450.970554 213.021928 
L 451.824092 213.453444 
L 454.384704 215.229453 
L 455.238241 214.868898 
L 456.091778 214.004673 
L 456.945315 214.355169 
L 457.798853 214.053605 
L 458.65239 213.100362 
L 459.505927 213.228224 
L 460.359465 214.209846 
L 461.213002 214.483364 
L 462.066539 214.065675 
L 462.920076 214.081963 
L 463.773614 213.455484 
L 464.627151 213.431332 
L 466.334226 213.758319 
L 467.187763 214.812052 
L 468.0413 215.631401 
L 468.894837 215.811789 
L 469.748375 215.081382 
L 470.601912 213.892001 
L 471.455449 214.122701 
L 472.308987 214.11815 
L 473.162524 213.615969 
L 474.016061 214.029953 
L 475.723136 214.141202 
L 476.576673 213.373154 
L 477.43021 213.387315 
L 478.283748 213.85416 
L 479.990822 212.833748 
L 480.844359 213.214469 
L 481.697897 214.19475 
L 482.551434 214.203361 
L 483.404971 213.748374 
L 484.258509 214.277153 
L 485.112046 214.546107 
L 485.965583 213.513247 
L 486.81912 212.857543 
L 489.379732 214.234338 
L 490.23327 214.525931 
L 491.086807 214.369792 
L 491.940344 213.72719 
L 492.793881 214.217212 
L 493.647419 214.916134 
L 494.500956 215.056487 
L 495.354493 215.478751 
L 497.061568 215.383921 
L 498.768642 214.072105 
L 499.62218 213.814498 
L 500.475717 213.402991 
L 501.329254 212.700583 
L 502.182792 212.412325 
L 503.036329 213.095187 
L 503.889866 213.389187 
L 504.743403 212.999117 
L 506.450478 214.116064 
L 507.304015 213.746934 
L 509.01109 213.911901 
L 511.571702 214.421261 
L 514.985851 215.130599 
L 516.692925 215.221348 
L 517.546463 215.124373 
L 518.4 214.896539 
L 518.4 214.896539 
" style="fill:none;stroke:#ff0000;stroke-linecap:square;stroke-width:2;"/>
   </g>
   <g id="patch_3">
    <path d="M 72 320.4 
L 72 43.2 
" style="fill:none;stroke:#000000;stroke-linecap:square;stroke-linejoin:miter;stroke-width:0.8;"/>
   </g>
   <g id="patch_4">
    <path d="M 518.4 320.4 
L 518.4 43.2 
" style="fill:none;stroke:#000000;stroke-linecap:square;stroke-linejoin:miter;stroke-width:0.8;"/>
   </g>
   <g id="patch_5">
    <path d="M 72 320.4 
L 518.4 320.4 
" style="fill:none;stroke:#000000;stroke-linecap:square;stroke-linejoin:miter;stroke-width:0.8;"/>
   </g>
   <g id="patch_6">
    <path d="M 72 43.2 
L 518.4 43.2 
" style="fill:none;stroke:#000000;stroke-linecap:square;stroke-linejoin:miter;stroke-width:0.8;"/>
   </g>
   <g id="text_19">
    <!-- Front Propogation Speed -->
    <g transform="translate(172.245312 37.2)scale(0.2 -0.2)">
     <defs>
      <path d="M 628 4666 
L 3309 4666 
L 3309 4134 
L 1259 4134 
L 1259 2759 
L 3109 2759 
L 3109 2228 
L 1259 2228 
L 1259 0 
L 628 0 
L 628 4666 
z
" id="DejaVuSans-46" transform="scale(0.015625)"/>
      <path d="M 2631 2963 
Q 2534 3019 2420 3045 
Q 2306 3072 2169 3072 
Q 1681 3072 1420 2755 
Q 1159 2438 1159 1844 
L 1159 0 
L 581 0 
L 581 3500 
L 1159 3500 
L 1159 2956 
Q 1341 3275 1631 3429 
Q 1922 3584 2338 3584 
Q 2397 3584 2469 3576 
Q 2541 3569 2628 3553 
L 2631 2963 
z
" id="DejaVuSans-72" transform="scale(0.015625)"/>
      <path d="M 1172 4494 
L 1172 3500 
L 2356 3500 
L 2356 3053 
L 1172 3053 
L 1172 1153 
Q 1172 725 1289 603 
Q 1406 481 1766 481 
L 2356 481 
L 2356 0 
L 1766 0 
Q 1100 0 847 248 
Q 594 497 594 1153 
L 594 3053 
L 172 3053 
L 172 3500 
L 594 3500 
L 594 4494 
L 1172 4494 
z
" id="DejaVuSans-74" transform="scale(0.015625)"/>
      <path d="M 1259 4147 
L 1259 2394 
L 2053 2394 
Q 2494 2394 2734 2622 
Q 2975 2850 2975 3272 
Q 2975 3691 2734 3919 
Q 2494 4147 2053 4147 
L 1259 4147 
z
M 628 4666 
L 2053 4666 
Q 2838 4666 3239 4311 
Q 3641 3956 3641 3272 
Q 3641 2581 3239 2228 
Q 2838 1875 2053 1875 
L 1259 1875 
L 1259 0 
L 628 0 
L 628 4666 
z
" id="DejaVuSans-50" transform="scale(0.015625)"/>
      <path d="M 2906 1791 
Q 2906 2416 2648 2759 
Q 2391 3103 1925 3103 
Q 1463 3103 1205 2759 
Q 947 2416 947 1791 
Q 947 1169 1205 825 
Q 1463 481 1925 481 
Q 2391 481 2648 825 
Q 2906 1169 2906 1791 
z
M 3481 434 
Q 3481 -459 3084 -895 
Q 2688 -1331 1869 -1331 
Q 1566 -1331 1297 -1286 
Q 1028 -1241 775 -1147 
L 775 -588 
Q 1028 -725 1275 -790 
Q 1522 -856 1778 -856 
Q 2344 -856 2625 -561 
Q 2906 -266 2906 331 
L 2906 616 
Q 2728 306 2450 153 
Q 2172 0 1784 0 
Q 1141 0 747 490 
Q 353 981 353 1791 
Q 353 2603 747 3093 
Q 1141 3584 1784 3584 
Q 2172 3584 2450 3431 
Q 2728 3278 2906 2969 
L 2906 3500 
L 3481 3500 
L 3481 434 
z
" id="DejaVuSans-67" transform="scale(0.015625)"/>
      <path d="M 2194 1759 
Q 1497 1759 1228 1600 
Q 959 1441 959 1056 
Q 959 750 1161 570 
Q 1363 391 1709 391 
Q 2188 391 2477 730 
Q 2766 1069 2766 1631 
L 2766 1759 
L 2194 1759 
z
M 3341 1997 
L 3341 0 
L 2766 0 
L 2766 531 
Q 2569 213 2275 61 
Q 1981 -91 1556 -91 
Q 1019 -91 701 211 
Q 384 513 384 1019 
Q 384 1609 779 1909 
Q 1175 2209 1959 2209 
L 2766 2209 
L 2766 2266 
Q 2766 2663 2505 2880 
Q 2244 3097 1772 3097 
Q 1472 3097 1187 3025 
Q 903 2953 641 2809 
L 641 3341 
Q 956 3463 1253 3523 
Q 1550 3584 1831 3584 
Q 2591 3584 2966 3190 
Q 3341 2797 3341 1997 
z
" id="DejaVuSans-61" transform="scale(0.015625)"/>
     </defs>
     <use xlink:href="#DejaVuSans-46"/>
     <use x="50.269531" xlink:href="#DejaVuSans-72"/>
     <use x="89.132812" xlink:href="#DejaVuSans-6f"/>
     <use x="150.314453" xlink:href="#DejaVuSans-6e"/>
     <use x="213.693359" xlink:href="#DejaVuSans-74"/>
     <use x="252.902344" xlink:href="#DejaVuSans-20"/>
     <use x="284.689453" xlink:href="#DejaVuSans-50"/>
     <use x="343.242188" xlink:href="#DejaVuSans-72"/>
     <use x="382.105469" xlink:href="#DejaVuSans-6f"/>
     <use x="443.287109" xlink:href="#DejaVuSans-70"/>
     <use x="506.763672" xlink:href="#DejaVuSans-6f"/>
     <use x="567.945312" xlink:href="#DejaVuSans-67"/>
     <use x="631.421875" xlink:href="#DejaVuSans-61"/>
     <use x="692.701172" xlink:href="#DejaVuSans-74"/>
     <use x="731.910156" xlink:href="#DejaVuSans-69"/>
     <use x="759.693359" xlink:href="#DejaVuSans-6f"/>
     <use x="820.875" xlink:href="#DejaVuSans-6e"/>
     <use x="884.253906" xlink:href="#DejaVuSans-20"/>
     <use x="916.041016" xlink:href="#DejaVuSans-53"/>
     <use x="979.517578" xlink:href="#DejaVuSans-70"/>
     <use x="1042.994141" xlink:href="#DejaVuSans-65"/>
     <use x="1104.517578" xlink:href="#DejaVuSans-65"/>
     <use x="1166.041016" xlink:href="#DejaVuSans-64"/>
    </g>
   </g>
   <g id="legend_1">
    <g id="patch_7">
     <path d="M 325.967812 111.175687 
L 508.6 111.175687 
Q 511.4 111.175687 511.4 108.375687 
L 511.4 53 
Q 511.4 50.2 508.6 50.2 
L 325.967812 50.2 
Q 323.167812 50.2 323.167812 53 
L 323.167812 108.375687 
Q 323.167812 111.175687 325.967812 111.175687 
z
" style="fill:#ffffff;opacity:0.8;stroke:#cccccc;stroke-linejoin:miter;"/>
    </g>
    <g id="line2d_19">
     <path d="M 328.767812 61.537812 
L 356.767812 61.537812 
" style="fill:none;stroke:#ff0000;stroke-linecap:square;stroke-width:2;"/>
    </g>
    <g id="line2d_20"/>
    <g id="text_20">
     <!-- Front speed -->
     <g transform="translate(367.967812 66.437812)scale(0.14 -0.14)">
      <use xlink:href="#DejaVuSans-46"/>
      <use x="50.269531" xlink:href="#DejaVuSans-72"/>
      <use x="89.132812" xlink:href="#DejaVuSans-6f"/>
      <use x="150.314453" xlink:href="#DejaVuSans-6e"/>
      <use x="213.693359" xlink:href="#DejaVuSans-74"/>
      <use x="252.902344" xlink:href="#DejaVuSans-20"/>
      <use x="284.689453" xlink:href="#DejaVuSans-73"/>
      <use x="336.789062" xlink:href="#DejaVuSans-70"/>
      <use x="400.265625" xlink:href="#DejaVuSans-65"/>
      <use x="461.789062" xlink:href="#DejaVuSans-65"/>
      <use x="523.3125" xlink:href="#DejaVuSans-64"/>
     </g>
    </g>
    <g id="line2d_21">
     <path d="M 328.767812 91.381437 
L 356.767812 91.381437 
" style="fill:none;stroke:#000000;stroke-dasharray:5.55,2.4;stroke-dashoffset:0;stroke-width:1.5;"/>
    </g>
    <g id="line2d_22"/>
    <g id="text_21">
     <!-- Steady state -->
     <g transform="translate(367.967812 86.987187)scale(0.14 -0.14)">
      <defs>
       <path d="M 2059 -325 
Q 1816 -950 1584 -1140 
Q 1353 -1331 966 -1331 
L 506 -1331 
L 506 -850 
L 844 -850 
Q 1081 -850 1212 -737 
Q 1344 -625 1503 -206 
L 1606 56 
L 191 3500 
L 800 3500 
L 1894 763 
L 2988 3500 
L 3597 3500 
L 2059 -325 
z
" id="DejaVuSans-79" transform="scale(0.015625)"/>
      </defs>
      <use xlink:href="#DejaVuSans-53"/>
      <use x="63.476562" xlink:href="#DejaVuSans-74"/>
      <use x="102.685547" xlink:href="#DejaVuSans-65"/>
      <use x="164.208984" xlink:href="#DejaVuSans-61"/>
      <use x="225.488281" xlink:href="#DejaVuSans-64"/>
      <use x="288.964844" xlink:href="#DejaVuSans-79"/>
      <use x="348.144531" xlink:href="#DejaVuSans-20"/>
      <use x="379.931641" xlink:href="#DejaVuSans-73"/>
      <use x="432.03125" xlink:href="#DejaVuSans-74"/>
      <use x="471.240234" xlink:href="#DejaVuSans-61"/>
      <use x="532.519531" xlink:href="#DejaVuSans-74"/>
      <use x="571.728516" xlink:href="#DejaVuSans-65"/>
     </g>
     <!-- speed = 0.59 mm/s -->
     <g transform="translate(367.967812 102.664125)scale(0.14 -0.14)">
      <defs>
       <path d="M 678 2906 
L 4684 2906 
L 4684 2381 
L 678 2381 
L 678 2906 
z
M 678 1631 
L 4684 1631 
L 4684 1100 
L 678 1100 
L 678 1631 
z
" id="DejaVuSans-3d" transform="scale(0.015625)"/>
       <path d="M 703 97 
L 703 672 
Q 941 559 1184 500 
Q 1428 441 1663 441 
Q 2288 441 2617 861 
Q 2947 1281 2994 2138 
Q 2813 1869 2534 1725 
Q 2256 1581 1919 1581 
Q 1219 1581 811 2004 
Q 403 2428 403 3163 
Q 403 3881 828 4315 
Q 1253 4750 1959 4750 
Q 2769 4750 3195 4129 
Q 3622 3509 3622 2328 
Q 3622 1225 3098 567 
Q 2575 -91 1691 -91 
Q 1453 -91 1209 -44 
Q 966 3 703 97 
z
M 1959 2075 
Q 2384 2075 2632 2365 
Q 2881 2656 2881 3163 
Q 2881 3666 2632 3958 
Q 2384 4250 1959 4250 
Q 1534 4250 1286 3958 
Q 1038 3666 1038 3163 
Q 1038 2656 1286 2365 
Q 1534 2075 1959 2075 
z
" id="DejaVuSans-39" transform="scale(0.015625)"/>
      </defs>
      <use xlink:href="#DejaVuSans-73"/>
      <use x="52.099609" xlink:href="#DejaVuSans-70"/>
      <use x="115.576172" xlink:href="#DejaVuSans-65"/>
      <use x="177.099609" xlink:href="#DejaVuSans-65"/>
      <use x="238.623047" xlink:href="#DejaVuSans-64"/>
      <use x="302.099609" xlink:href="#DejaVuSans-20"/>
      <use x="333.886719" xlink:href="#DejaVuSans-3d"/>
      <use x="417.675781" xlink:href="#DejaVuSans-20"/>
      <use x="449.462891" xlink:href="#DejaVuSans-30"/>
      <use x="513.085938" xlink:href="#DejaVuSans-2e"/>
      <use x="544.873047" xlink:href="#DejaVuSans-35"/>
      <use x="608.496094" xlink:href="#DejaVuSans-39"/>
      <use x="672.119141" xlink:href="#DejaVuSans-20"/>
      <use x="703.90625" xlink:href="#DejaVuSans-6d"/>
      <use x="801.318359" xlink:href="#DejaVuSans-6d"/>
      <use x="898.730469" xlink:href="#DejaVuSans-2f"/>
      <use x="932.421875" xlink:href="#DejaVuSans-73"/>
     </g>
    </g>
   </g>
  </g>
 </g>
 <defs>
  <clipPath id="p7e141cd0d9">
   <rect height="277.2" width="446.4" x="72" y="43.2"/>
  </clipPath>
 </defs>
</svg>
