<?xml version="1.0" encoding="utf-8" standalone="no"?>
<!DOCTYPE svg PUBLIC "-//W3C//DTD SVG 1.1//EN"
  "http://www.w3.org/Graphics/SVG/1.1/DTD/svg11.dtd">
<svg height="360pt" version="1.1" viewBox="0 0 576 360" width="576pt" xmlns="http://www.w3.org/2000/svg" xmlns:xlink="http://www.w3.org/1999/xlink">
 <metadata>
  <rdf:RDF xmlns:cc="http://creativecommons.org/ns#" xmlns:dc="http://purl.org/dc/elements/1.1/" xmlns:rdf="http://www.w3.org/1999/02/22-rdf-syntax-ns#">
   <cc:Work>
    <dc:type rdf:resource="http://purl.org/dc/dcmitype/StillImage"/>
    <dc:date>2022-06-30T14:16:39.179173</dc:date>
    <dc:format>image/svg+xml</dc:format>
    <dc:creator>
     <cc:Agent>
      <dc:title>Matplotlib v3.4.3, https://matplotlib.org/</dc:title>
     </cc:Agent>
    </dc:creator>
   </cc:Work>
  </rdf:RDF>
 </metadata>
 <defs>
  <style type="text/css">*{stroke-linecap:butt;stroke-linejoin:round;}</style>
 </defs>
 <g id="figure_1">
  <g id="patch_1">
   <path d="M 0 360 
L 576 360 
L 576 0 
L 0 0 
z
" style="fill:#ffffff;"/>
  </g>
  <g id="axes_1">
   <g id="patch_2">
    <path d="M 72 320.4 
L 518.4 320.4 
L 518.4 43.2 
L 72 43.2 
z
" style="fill:#ffffff;"/>
   </g>
   <g id="PolyCollection_1">
    <defs>
     <path d="M 72 -160.256197 
L 72 -165.421938 
L 72.651679 -165.421938 
L 73.303358 -165.421938 
L 73.955036 -165.421938 
L 74.606715 -165.421938 
L 75.258394 -165.421938 
L 75.910073 -165.421938 
L 76.561752 -165.421938 
L 77.213431 -165.421938 
L 77.865109 -165.421938 
L 78.516788 -165.421938 
L 79.168467 -165.421938 
L 79.820146 -165.421938 
L 80.471825 -165.421938 
L 81.123504 -165.421938 
L 81.775182 -165.421938 
L 82.426861 -165.421938 
L 83.07854 -165.421938 
L 83.730219 -165.421938 
L 84.381898 -165.421938 
L 85.033577 -165.421938 
L 85.685255 -165.421938 
L 86.336934 -165.421938 
L 86.988613 -165.421938 
L 87.640292 -165.421938 
L 88.291971 -165.421938 
L 88.94365 -165.421938 
L 89.595328 -165.421938 
L 90.247007 -165.421938 
L 90.898686 -165.421938 
L 91.550365 -165.421938 
L 92.202044 -165.421938 
L 92.853723 -165.421938 
L 93.505401 -165.421938 
L 94.15708 -165.421938 
L 94.808759 -165.421938 
L 95.460438 -165.421938 
L 96.112117 -165.421938 
L 96.763796 -165.421938 
L 97.415474 -165.421938 
L 98.067153 -165.421938 
L 98.718832 -165.421938 
L 99.370511 -165.421938 
L 100.02219 -165.421938 
L 100.673869 -165.421938 
L 101.325547 -165.421938 
L 101.977226 -165.421938 
L 102.628905 -165.421938 
L 103.280584 -165.421938 
L 103.932263 -165.421938 
L 104.583942 -165.421938 
L 105.23562 -165.421938 
L 105.887299 -165.421938 
L 106.538978 -165.421938 
L 107.190657 -165.421938 
L 107.842336 -165.421938 
L 108.494015 -165.421938 
L 109.145693 -165.421938 
L 109.797372 -165.421938 
L 110.449051 -165.421938 
L 111.10073 -165.421938 
L 111.752409 -165.421938 
L 112.404088 -165.421938 
L 113.055766 -165.421938 
L 113.707445 -165.421938 
L 114.359124 -165.421938 
L 115.010803 -165.421938 
L 115.662482 -165.421938 
L 116.314161 -165.421938 
L 116.965839 -165.421938 
L 117.617518 -165.421938 
L 118.269197 -165.421938 
L 118.920876 -165.421938 
L 119.572555 -165.421938 
L 120.224234 -165.421938 
L 120.875912 -165.421938 
L 121.527591 -165.421938 
L 122.17927 -165.421938 
L 122.830949 -165.421938 
L 123.482628 -165.421938 
L 124.134307 -165.421938 
L 124.785985 -165.421938 
L 125.437664 -165.421938 
L 126.089343 -165.421938 
L 126.741022 -165.421938 
L 127.392701 -165.421938 
L 128.04438 -165.421938 
L 128.696058 -165.421938 
L 129.347737 -165.421938 
L 129.999416 -165.421938 
L 130.651095 -165.421938 
L 131.302774 -165.421938 
L 131.954453 -165.421938 
L 132.606131 -165.421938 
L 133.25781 -165.421938 
L 133.909489 -165.421938 
L 134.561168 -165.421938 
L 135.212847 -165.421938 
L 135.864526 -165.421938 
L 136.516204 -165.421938 
L 137.167883 -165.421938 
L 137.819562 -165.421938 
L 138.471241 -165.421938 
L 139.12292 -165.421938 
L 139.774599 -165.421938 
L 140.426277 -165.421938 
L 141.077956 -165.421938 
L 141.729635 -165.421938 
L 142.381314 -165.421938 
L 143.032993 -165.421938 
L 143.684672 -165.421938 
L 144.33635 -165.421938 
L 144.988029 -165.421938 
L 145.639708 -165.421938 
L 146.291387 -165.421938 
L 146.943066 -165.421938 
L 147.594745 -165.421938 
L 148.246423 -165.421938 
L 148.898102 -165.421938 
L 149.549781 -165.421938 
L 150.20146 -165.421938 
L 150.853139 -165.421938 
L 151.504818 -165.421938 
L 152.156496 -165.421938 
L 152.808175 -165.421938 
L 153.459854 -165.421938 
L 154.111533 -165.421938 
L 154.763212 -165.421938 
L 155.414891 -165.421938 
L 156.066569 -165.421938 
L 156.718248 -165.421938 
L 157.369927 -165.421938 
L 158.021606 -165.421938 
L 158.673285 -165.421938 
L 159.324964 -165.421938 
L 159.976642 -165.421938 
L 160.628321 -165.421938 
L 161.28 -165.421938 
L 161.931679 -165.421938 
L 162.583358 -165.421938 
L 163.235036 -165.421938 
L 163.886715 -165.421938 
L 164.538394 -165.421938 
L 165.190073 -165.421938 
L 165.841752 -165.421938 
L 166.493431 -165.421938 
L 167.145109 -165.421938 
L 167.796788 -165.421938 
L 168.448467 -165.421938 
L 169.100146 -165.421938 
L 169.751825 -165.421938 
L 170.403504 -165.421938 
L 171.055182 -165.421938 
L 171.706861 -165.421938 
L 172.35854 -165.421938 
L 173.010219 -165.421938 
L 173.661898 -165.421938 
L 174.313577 -165.421938 
L 174.965255 -165.421938 
L 175.616934 -165.421938 
L 176.268613 -165.421938 
L 176.920292 -165.421938 
L 177.571971 -165.421938 
L 178.22365 -165.421938 
L 178.875328 -165.421938 
L 179.527007 -165.421938 
L 180.178686 -165.421938 
L 180.830365 -165.421938 
L 181.482044 -165.421938 
L 182.133723 -165.421938 
L 182.785401 -165.421938 
L 183.43708 -165.421938 
L 184.088759 -165.421938 
L 184.740438 -165.421938 
L 185.392117 -165.421938 
L 186.043796 -165.421938 
L 186.695474 -165.421938 
L 187.347153 -165.421938 
L 187.998832 -165.421938 
L 188.650511 -165.421938 
L 189.30219 -165.421938 
L 189.953869 -165.421938 
L 190.605547 -165.421938 
L 191.257226 -165.421938 
L 191.908905 -165.421938 
L 192.560584 -165.421938 
L 193.212263 -165.421938 
L 193.863942 -165.421938 
L 194.51562 -165.421938 
L 195.167299 -165.421938 
L 195.818978 -165.421938 
L 196.470657 -165.421938 
L 197.122336 -165.421938 
L 197.774015 -165.421938 
L 198.425693 -165.421938 
L 199.077372 -165.421938 
L 199.729051 -165.421938 
L 200.38073 -165.421938 
L 201.032409 -165.421938 
L 201.684088 -165.421938 
L 202.335766 -165.421938 
L 202.987445 -165.421938 
L 203.639124 -165.421938 
L 204.290803 -165.421938 
L 204.942482 -165.421938 
L 205.594161 -165.421938 
L 206.245839 -165.421938 
L 206.897518 -165.421938 
L 207.549197 -165.421938 
L 208.200876 -165.421938 
L 208.852555 -165.421938 
L 209.504234 -165.421938 
L 210.155912 -165.421938 
L 210.807591 -165.421938 
L 211.45927 -165.421938 
L 212.110949 -165.421938 
L 212.762628 -165.421938 
L 213.414307 -165.421938 
L 214.065985 -165.421938 
L 214.717664 -165.421938 
L 215.369343 -165.421938 
L 216.021022 -165.421938 
L 216.672701 -165.421938 
L 217.32438 -165.421938 
L 217.976058 -165.421938 
L 218.627737 -165.421938 
L 219.279416 -165.421938 
L 219.931095 -165.421938 
L 220.582774 -165.421938 
L 221.234453 -165.421938 
L 221.886131 -165.421938 
L 222.53781 -165.421938 
L 223.189489 -165.421938 
L 223.841168 -165.421938 
L 224.492847 -165.421938 
L 225.144526 -165.421938 
L 225.796204 -165.421938 
L 226.447883 -165.421938 
L 227.099562 -165.421938 
L 227.751241 -165.421938 
L 228.40292 -165.421938 
L 229.054599 -165.421938 
L 229.706277 -165.421938 
L 230.357956 -165.421938 
L 231.009635 -165.421938 
L 231.661314 -165.421938 
L 232.312993 -165.421938 
L 232.964672 -165.421938 
L 233.61635 -165.421938 
L 234.268029 -165.421938 
L 234.919708 -165.421938 
L 235.571387 -165.421938 
L 236.223066 -165.421938 
L 236.874745 -165.421938 
L 237.526423 -165.421938 
L 238.178102 -165.421938 
L 238.829781 -165.421938 
L 239.48146 -165.421938 
L 240.133139 -165.421938 
L 240.784818 -165.421938 
L 241.436496 -165.421938 
L 242.088175 -165.421938 
L 242.739854 -165.421938 
L 243.391533 -165.421938 
L 244.043212 -165.421938 
L 244.694891 -165.421938 
L 245.346569 -165.421938 
L 245.998248 -165.421938 
L 246.649927 -165.421938 
L 247.301606 -165.421938 
L 247.953285 -165.421938 
L 248.604964 -165.421938 
L 249.256642 -165.421938 
L 249.908321 -165.421938 
L 250.56 -165.421938 
L 251.211679 -165.421938 
L 251.863358 -165.421938 
L 252.515036 -165.421938 
L 253.166715 -165.421938 
L 253.818394 -165.421938 
L 254.470073 -165.421938 
L 255.121752 -165.421938 
L 255.773431 -165.421938 
L 256.425109 -165.421938 
L 257.076788 -165.421938 
L 257.728467 -165.421938 
L 258.380146 -165.421938 
L 259.031825 -165.421938 
L 259.683504 -165.421938 
L 260.335182 -165.421938 
L 260.986861 -165.421938 
L 261.63854 -165.421938 
L 262.290219 -165.421938 
L 262.941898 -165.421938 
L 263.593577 -165.421938 
L 264.245255 -165.421938 
L 264.896934 -165.421938 
L 265.548613 -165.421938 
L 266.200292 -165.421938 
L 266.851971 -165.421938 
L 267.50365 -165.421938 
L 268.155328 -165.421938 
L 268.807007 -165.421938 
L 269.458686 -165.421938 
L 270.110365 -165.421938 
L 270.762044 -165.421938 
L 271.413723 -165.421938 
L 272.065401 -165.421938 
L 272.71708 -165.421938 
L 273.368759 -165.421938 
L 274.020438 -165.421938 
L 274.672117 -165.421938 
L 275.323796 -165.421938 
L 275.975474 -165.421938 
L 276.627153 -165.421938 
L 277.278832 -165.421938 
L 277.930511 -165.421938 
L 278.58219 -165.421938 
L 279.233869 -165.421938 
L 279.885547 -165.421938 
L 280.537226 -165.421938 
L 281.188905 -165.421938 
L 281.840584 -165.421938 
L 282.492263 -165.421938 
L 283.143942 -165.421938 
L 283.79562 -165.421938 
L 284.447299 -165.421938 
L 285.098978 -165.421938 
L 285.750657 -165.421938 
L 286.402336 -165.421938 
L 287.054015 -165.421938 
L 287.705693 -165.421938 
L 288.357372 -165.421938 
L 289.009051 -165.421938 
L 289.66073 -165.421938 
L 290.312409 -165.421938 
L 290.964088 -165.421938 
L 291.615766 -165.421938 
L 292.267445 -165.421938 
L 292.919124 -165.421938 
L 293.570803 -165.421938 
L 294.222482 -165.421938 
L 294.874161 -165.421938 
L 295.525839 -165.421938 
L 296.177518 -165.421938 
L 296.829197 -165.421938 
L 297.480876 -165.421938 
L 298.132555 -165.421938 
L 298.784234 -165.421938 
L 299.435912 -165.421938 
L 300.087591 -165.421938 
L 300.73927 -165.421938 
L 301.390949 -165.421938 
L 302.042628 -165.421938 
L 302.694307 -165.421938 
L 303.345985 -165.421938 
L 303.997664 -165.421938 
L 304.649343 -165.421938 
L 305.301022 -165.421938 
L 305.952701 -165.421938 
L 306.60438 -165.421938 
L 307.256058 -165.421938 
L 307.907737 -165.421938 
L 308.559416 -165.421938 
L 309.211095 -165.421938 
L 309.862774 -165.421938 
L 310.514453 -165.421938 
L 311.166131 -165.421938 
L 311.81781 -165.421938 
L 312.469489 -165.421938 
L 313.121168 -165.421938 
L 313.772847 -165.421938 
L 314.424526 -165.421938 
L 315.076204 -165.421938 
L 315.727883 -165.421938 
L 316.379562 -165.421938 
L 317.031241 -165.421938 
L 317.68292 -165.421938 
L 318.334599 -165.421938 
L 318.986277 -165.421938 
L 319.637956 -165.421938 
L 320.289635 -165.421938 
L 320.941314 -165.421938 
L 321.592993 -165.421938 
L 322.244672 -165.421938 
L 322.89635 -165.421938 
L 323.548029 -165.421938 
L 324.199708 -165.421938 
L 324.851387 -165.421938 
L 325.503066 -165.421938 
L 326.154745 -165.421938 
L 326.806423 -165.421938 
L 327.458102 -165.421938 
L 328.109781 -165.421938 
L 328.76146 -165.421938 
L 329.413139 -165.421938 
L 330.064818 -165.421938 
L 330.716496 -165.421938 
L 331.368175 -165.421938 
L 332.019854 -165.421938 
L 332.671533 -165.421938 
L 333.323212 -165.421938 
L 333.974891 -165.421938 
L 334.626569 -165.421938 
L 335.278248 -165.421938 
L 335.929927 -165.421938 
L 336.581606 -165.421938 
L 337.233285 -165.421938 
L 337.884964 -165.421938 
L 338.536642 -165.421938 
L 339.188321 -165.421938 
L 339.84 -165.421938 
L 340.491679 -165.421938 
L 341.143358 -165.421938 
L 341.795036 -165.421938 
L 342.446715 -165.421938 
L 343.098394 -165.421938 
L 343.750073 -165.421938 
L 344.401752 -165.421938 
L 345.053431 -165.421938 
L 345.705109 -165.421938 
L 346.356788 -165.421938 
L 347.008467 -165.421938 
L 347.660146 -165.421938 
L 348.311825 -165.421938 
L 348.963504 -165.421938 
L 349.615182 -165.421938 
L 350.266861 -165.421938 
L 350.91854 -165.421938 
L 351.570219 -165.421938 
L 352.221898 -165.421938 
L 352.873577 -165.421938 
L 353.525255 -165.421938 
L 354.176934 -165.421938 
L 354.828613 -165.421938 
L 355.480292 -165.421938 
L 356.131971 -165.421938 
L 356.78365 -165.421938 
L 357.435328 -165.421938 
L 358.087007 -165.421938 
L 358.738686 -165.421938 
L 359.390365 -165.421938 
L 360.042044 -165.421938 
L 360.693723 -165.421938 
L 361.345401 -165.421938 
L 361.99708 -165.421938 
L 362.648759 -165.421938 
L 363.300438 -165.421938 
L 363.952117 -165.421938 
L 364.603796 -165.421938 
L 365.255474 -165.421938 
L 365.907153 -165.421938 
L 366.558832 -165.421938 
L 367.210511 -165.421938 
L 367.86219 -165.421938 
L 368.513869 -165.421938 
L 369.165547 -165.421938 
L 369.817226 -165.421938 
L 370.468905 -165.421938 
L 371.120584 -165.421938 
L 371.772263 -165.421938 
L 372.423942 -165.421938 
L 373.07562 -165.421938 
L 373.727299 -165.421938 
L 374.378978 -165.421938 
L 375.030657 -165.421938 
L 375.682336 -165.421938 
L 376.334015 -165.421938 
L 376.985693 -165.421938 
L 377.637372 -165.421938 
L 378.289051 -165.421938 
L 378.94073 -165.421938 
L 379.592409 -165.421938 
L 380.244088 -165.421938 
L 380.895766 -165.421938 
L 381.547445 -165.421938 
L 382.199124 -165.421938 
L 382.850803 -165.421938 
L 383.502482 -165.421938 
L 384.154161 -165.421938 
L 384.805839 -165.421938 
L 385.457518 -165.421938 
L 386.109197 -165.421938 
L 386.760876 -165.421938 
L 387.412555 -165.421938 
L 388.064234 -165.421938 
L 388.715912 -165.421938 
L 389.367591 -165.421938 
L 390.01927 -165.421938 
L 390.670949 -165.421938 
L 391.322628 -165.421938 
L 391.974307 -165.421938 
L 392.625985 -165.421938 
L 393.277664 -165.421938 
L 393.929343 -165.421938 
L 394.581022 -165.421938 
L 395.232701 -165.421938 
L 395.88438 -165.421938 
L 396.536058 -165.421938 
L 397.187737 -165.421938 
L 397.839416 -165.421938 
L 398.491095 -165.421938 
L 399.142774 -165.421938 
L 399.794453 -165.421938 
L 400.446131 -165.421938 
L 401.09781 -165.421938 
L 401.749489 -165.421938 
L 402.401168 -165.421938 
L 403.052847 -165.421938 
L 403.704526 -165.421938 
L 404.356204 -165.421938 
L 405.007883 -165.421938 
L 405.659562 -165.421938 
L 406.311241 -165.421938 
L 406.96292 -165.421938 
L 407.614599 -165.421938 
L 408.266277 -165.421938 
L 408.917956 -165.421938 
L 409.569635 -165.421938 
L 410.221314 -165.421938 
L 410.872993 -165.421938 
L 411.524672 -165.421938 
L 412.17635 -165.421938 
L 412.828029 -165.421938 
L 413.479708 -165.421938 
L 414.131387 -165.421938 
L 414.783066 -165.421938 
L 415.434745 -165.421938 
L 416.086423 -165.421938 
L 416.738102 -165.421938 
L 417.389781 -165.421938 
L 418.04146 -165.421938 
L 418.693139 -165.421938 
L 419.344818 -165.421938 
L 419.996496 -165.421938 
L 420.648175 -165.421938 
L 421.299854 -165.421938 
L 421.951533 -165.421938 
L 422.603212 -165.421938 
L 423.254891 -165.421938 
L 423.906569 -165.421938 
L 424.558248 -165.421938 
L 425.209927 -165.421938 
L 425.861606 -165.421938 
L 426.513285 -165.421938 
L 427.164964 -165.421938 
L 427.816642 -165.421938 
L 428.468321 -165.421938 
L 429.12 -165.421938 
L 429.771679 -165.421938 
L 430.423358 -165.421938 
L 431.075036 -165.421938 
L 431.726715 -165.421938 
L 432.378394 -165.421938 
L 433.030073 -165.421938 
L 433.681752 -165.421938 
L 434.333431 -165.421938 
L 434.985109 -165.421938 
L 435.636788 -165.421938 
L 436.288467 -165.421938 
L 436.940146 -165.421938 
L 437.591825 -165.421938 
L 438.243504 -165.421938 
L 438.895182 -165.421938 
L 439.546861 -165.421938 
L 440.19854 -165.421938 
L 440.850219 -165.421938 
L 441.501898 -165.421938 
L 442.153577 -165.421938 
L 442.805255 -165.421938 
L 443.456934 -165.421938 
L 444.108613 -165.421938 
L 444.760292 -165.421938 
L 445.411971 -165.421938 
L 446.06365 -165.421938 
L 446.715328 -165.421938 
L 447.367007 -165.421938 
L 448.018686 -165.421938 
L 448.670365 -165.421938 
L 449.322044 -165.421938 
L 449.973723 -165.421938 
L 450.625401 -165.421938 
L 451.27708 -165.421938 
L 451.928759 -165.421938 
L 452.580438 -165.421938 
L 453.232117 -165.421938 
L 453.883796 -165.421938 
L 454.535474 -165.421938 
L 455.187153 -165.421938 
L 455.838832 -165.421938 
L 456.490511 -165.421938 
L 457.14219 -165.421938 
L 457.793869 -165.421938 
L 458.445547 -165.421938 
L 459.097226 -165.421938 
L 459.748905 -165.421938 
L 460.400584 -165.421938 
L 461.052263 -165.421938 
L 461.703942 -165.421938 
L 462.35562 -165.421938 
L 463.007299 -165.421938 
L 463.658978 -165.421938 
L 464.310657 -165.421938 
L 464.962336 -165.421938 
L 465.614015 -165.421938 
L 466.265693 -165.421938 
L 466.917372 -165.421938 
L 467.569051 -165.421938 
L 468.22073 -165.421938 
L 468.872409 -165.421938 
L 469.524088 -165.421938 
L 470.175766 -165.421938 
L 470.827445 -165.421938 
L 471.479124 -165.421938 
L 472.130803 -165.421938 
L 472.782482 -165.421938 
L 473.434161 -165.421938 
L 474.085839 -165.421938 
L 474.737518 -165.421938 
L 475.389197 -165.421938 
L 476.040876 -165.421938 
L 476.692555 -165.421938 
L 477.344234 -165.421938 
L 477.995912 -165.421938 
L 478.647591 -165.421938 
L 479.29927 -165.421938 
L 479.950949 -165.421938 
L 480.602628 -165.421938 
L 481.254307 -165.421938 
L 481.905985 -165.421938 
L 482.557664 -165.421938 
L 483.209343 -165.421938 
L 483.861022 -165.421938 
L 484.512701 -165.421938 
L 485.16438 -165.421938 
L 485.816058 -165.421938 
L 486.467737 -165.421938 
L 487.119416 -165.421938 
L 487.771095 -165.421938 
L 488.422774 -165.421938 
L 489.074453 -165.421938 
L 489.726131 -165.421938 
L 490.37781 -165.421938 
L 491.029489 -165.421938 
L 491.681168 -165.421938 
L 492.332847 -165.421938 
L 492.984526 -165.421938 
L 493.636204 -165.421938 
L 494.287883 -165.421938 
L 494.939562 -165.421938 
L 495.591241 -165.421938 
L 496.24292 -165.421938 
L 496.894599 -165.421938 
L 497.546277 -165.421938 
L 498.197956 -165.421938 
L 498.849635 -165.421938 
L 499.501314 -165.421938 
L 500.152993 -165.421938 
L 500.804672 -165.421938 
L 501.45635 -165.421938 
L 502.108029 -165.421938 
L 502.759708 -165.421938 
L 503.411387 -165.421938 
L 504.063066 -165.421938 
L 504.714745 -165.421938 
L 505.366423 -165.421938 
L 506.018102 -165.421938 
L 506.669781 -165.421938 
L 507.32146 -165.421938 
L 507.973139 -165.421938 
L 508.624818 -165.421938 
L 509.276496 -165.421938 
L 509.928175 -165.421938 
L 510.579854 -165.421938 
L 511.231533 -165.421938 
L 511.883212 -165.421938 
L 512.534891 -165.421938 
L 513.186569 -165.421938 
L 513.838248 -165.421938 
L 514.489927 -165.421938 
L 515.141606 -165.421938 
L 515.793285 -165.421938 
L 516.444964 -165.421938 
L 517.096642 -165.421938 
L 517.748321 -165.421938 
L 518.4 -165.421938 
L 518.4 -160.256197 
L 518.4 -160.256197 
L 517.748321 -160.256197 
L 517.096642 -160.256197 
L 516.444964 -160.256197 
L 515.793285 -160.256197 
L 515.141606 -160.256197 
L 514.489927 -160.256197 
L 513.838248 -160.256197 
L 513.186569 -160.256197 
L 512.534891 -160.256197 
L 511.883212 -160.256197 
L 511.231533 -160.256197 
L 510.579854 -160.256197 
L 509.928175 -160.256197 
L 509.276496 -160.256197 
L 508.624818 -160.256197 
L 507.973139 -160.256197 
L 507.32146 -160.256197 
L 506.669781 -160.256197 
L 506.018102 -160.256197 
L 505.366423 -160.256197 
L 504.714745 -160.256197 
L 504.063066 -160.256197 
L 503.411387 -160.256197 
L 502.759708 -160.256197 
L 502.108029 -160.256197 
L 501.45635 -160.256197 
L 500.804672 -160.256197 
L 500.152993 -160.256197 
L 499.501314 -160.256197 
L 498.849635 -160.256197 
L 498.197956 -160.256197 
L 497.546277 -160.256197 
L 496.894599 -160.256197 
L 496.24292 -160.256197 
L 495.591241 -160.256197 
L 494.939562 -160.256197 
L 494.287883 -160.256197 
L 493.636204 -160.256197 
L 492.984526 -160.256197 
L 492.332847 -160.256197 
L 491.681168 -160.256197 
L 491.029489 -160.256197 
L 490.37781 -160.256197 
L 489.726131 -160.256197 
L 489.074453 -160.256197 
L 488.422774 -160.256197 
L 487.771095 -160.256197 
L 487.119416 -160.256197 
L 486.467737 -160.256197 
L 485.816058 -160.256197 
L 485.16438 -160.256197 
L 484.512701 -160.256197 
L 483.861022 -160.256197 
L 483.209343 -160.256197 
L 482.557664 -160.256197 
L 481.905985 -160.256197 
L 481.254307 -160.256197 
L 480.602628 -160.256197 
L 479.950949 -160.256197 
L 479.29927 -160.256197 
L 478.647591 -160.256197 
L 477.995912 -160.256197 
L 477.344234 -160.256197 
L 476.692555 -160.256197 
L 476.040876 -160.256197 
L 475.389197 -160.256197 
L 474.737518 -160.256197 
L 474.085839 -160.256197 
L 473.434161 -160.256197 
L 472.782482 -160.256197 
L 472.130803 -160.256197 
L 471.479124 -160.256197 
L 470.827445 -160.256197 
L 470.175766 -160.256197 
L 469.524088 -160.256197 
L 468.872409 -160.256197 
L 468.22073 -160.256197 
L 467.569051 -160.256197 
L 466.917372 -160.256197 
L 466.265693 -160.256197 
L 465.614015 -160.256197 
L 464.962336 -160.256197 
L 464.310657 -160.256197 
L 463.658978 -160.256197 
L 463.007299 -160.256197 
L 462.35562 -160.256197 
L 461.703942 -160.256197 
L 461.052263 -160.256197 
L 460.400584 -160.256197 
L 459.748905 -160.256197 
L 459.097226 -160.256197 
L 458.445547 -160.256197 
L 457.793869 -160.256197 
L 457.14219 -160.256197 
L 456.490511 -160.256197 
L 455.838832 -160.256197 
L 455.187153 -160.256197 
L 454.535474 -160.256197 
L 453.883796 -160.256197 
L 453.232117 -160.256197 
L 452.580438 -160.256197 
L 451.928759 -160.256197 
L 451.27708 -160.256197 
L 450.625401 -160.256197 
L 449.973723 -160.256197 
L 449.322044 -160.256197 
L 448.670365 -160.256197 
L 448.018686 -160.256197 
L 447.367007 -160.256197 
L 446.715328 -160.256197 
L 446.06365 -160.256197 
L 445.411971 -160.256197 
L 444.760292 -160.256197 
L 444.108613 -160.256197 
L 443.456934 -160.256197 
L 442.805255 -160.256197 
L 442.153577 -160.256197 
L 441.501898 -160.256197 
L 440.850219 -160.256197 
L 440.19854 -160.256197 
L 439.546861 -160.256197 
L 438.895182 -160.256197 
L 438.243504 -160.256197 
L 437.591825 -160.256197 
L 436.940146 -160.256197 
L 436.288467 -160.256197 
L 435.636788 -160.256197 
L 434.985109 -160.256197 
L 434.333431 -160.256197 
L 433.681752 -160.256197 
L 433.030073 -160.256197 
L 432.378394 -160.256197 
L 431.726715 -160.256197 
L 431.075036 -160.256197 
L 430.423358 -160.256197 
L 429.771679 -160.256197 
L 429.12 -160.256197 
L 428.468321 -160.256197 
L 427.816642 -160.256197 
L 427.164964 -160.256197 
L 426.513285 -160.256197 
L 425.861606 -160.256197 
L 425.209927 -160.256197 
L 424.558248 -160.256197 
L 423.906569 -160.256197 
L 423.254891 -160.256197 
L 422.603212 -160.256197 
L 421.951533 -160.256197 
L 421.299854 -160.256197 
L 420.648175 -160.256197 
L 419.996496 -160.256197 
L 419.344818 -160.256197 
L 418.693139 -160.256197 
L 418.04146 -160.256197 
L 417.389781 -160.256197 
L 416.738102 -160.256197 
L 416.086423 -160.256197 
L 415.434745 -160.256197 
L 414.783066 -160.256197 
L 414.131387 -160.256197 
L 413.479708 -160.256197 
L 412.828029 -160.256197 
L 412.17635 -160.256197 
L 411.524672 -160.256197 
L 410.872993 -160.256197 
L 410.221314 -160.256197 
L 409.569635 -160.256197 
L 408.917956 -160.256197 
L 408.266277 -160.256197 
L 407.614599 -160.256197 
L 406.96292 -160.256197 
L 406.311241 -160.256197 
L 405.659562 -160.256197 
L 405.007883 -160.256197 
L 404.356204 -160.256197 
L 403.704526 -160.256197 
L 403.052847 -160.256197 
L 402.401168 -160.256197 
L 401.749489 -160.256197 
L 401.09781 -160.256197 
L 400.446131 -160.256197 
L 399.794453 -160.256197 
L 399.142774 -160.256197 
L 398.491095 -160.256197 
L 397.839416 -160.256197 
L 397.187737 -160.256197 
L 396.536058 -160.256197 
L 395.88438 -160.256197 
L 395.232701 -160.256197 
L 394.581022 -160.256197 
L 393.929343 -160.256197 
L 393.277664 -160.256197 
L 392.625985 -160.256197 
L 391.974307 -160.256197 
L 391.322628 -160.256197 
L 390.670949 -160.256197 
L 390.01927 -160.256197 
L 389.367591 -160.256197 
L 388.715912 -160.256197 
L 388.064234 -160.256197 
L 387.412555 -160.256197 
L 386.760876 -160.256197 
L 386.109197 -160.256197 
L 385.457518 -160.256197 
L 384.805839 -160.256197 
L 384.154161 -160.256197 
L 383.502482 -160.256197 
L 382.850803 -160.256197 
L 382.199124 -160.256197 
L 381.547445 -160.256197 
L 380.895766 -160.256197 
L 380.244088 -160.256197 
L 379.592409 -160.256197 
L 378.94073 -160.256197 
L 378.289051 -160.256197 
L 377.637372 -160.256197 
L 376.985693 -160.256197 
L 376.334015 -160.256197 
L 375.682336 -160.256197 
L 375.030657 -160.256197 
L 374.378978 -160.256197 
L 373.727299 -160.256197 
L 373.07562 -160.256197 
L 372.423942 -160.256197 
L 371.772263 -160.256197 
L 371.120584 -160.256197 
L 370.468905 -160.256197 
L 369.817226 -160.256197 
L 369.165547 -160.256197 
L 368.513869 -160.256197 
L 367.86219 -160.256197 
L 367.210511 -160.256197 
L 366.558832 -160.256197 
L 365.907153 -160.256197 
L 365.255474 -160.256197 
L 364.603796 -160.256197 
L 363.952117 -160.256197 
L 363.300438 -160.256197 
L 362.648759 -160.256197 
L 361.99708 -160.256197 
L 361.345401 -160.256197 
L 360.693723 -160.256197 
L 360.042044 -160.256197 
L 359.390365 -160.256197 
L 358.738686 -160.256197 
L 358.087007 -160.256197 
L 357.435328 -160.256197 
L 356.78365 -160.256197 
L 356.131971 -160.256197 
L 355.480292 -160.256197 
L 354.828613 -160.256197 
L 354.176934 -160.256197 
L 353.525255 -160.256197 
L 352.873577 -160.256197 
L 352.221898 -160.256197 
L 351.570219 -160.256197 
L 350.91854 -160.256197 
L 350.266861 -160.256197 
L 349.615182 -160.256197 
L 348.963504 -160.256197 
L 348.311825 -160.256197 
L 347.660146 -160.256197 
L 347.008467 -160.256197 
L 346.356788 -160.256197 
L 345.705109 -160.256197 
L 345.053431 -160.256197 
L 344.401752 -160.256197 
L 343.750073 -160.256197 
L 343.098394 -160.256197 
L 342.446715 -160.256197 
L 341.795036 -160.256197 
L 341.143358 -160.256197 
L 340.491679 -160.256197 
L 339.84 -160.256197 
L 339.188321 -160.256197 
L 338.536642 -160.256197 
L 337.884964 -160.256197 
L 337.233285 -160.256197 
L 336.581606 -160.256197 
L 335.929927 -160.256197 
L 335.278248 -160.256197 
L 334.626569 -160.256197 
L 333.974891 -160.256197 
L 333.323212 -160.256197 
L 332.671533 -160.256197 
L 332.019854 -160.256197 
L 331.368175 -160.256197 
L 330.716496 -160.256197 
L 330.064818 -160.256197 
L 329.413139 -160.256197 
L 328.76146 -160.256197 
L 328.109781 -160.256197 
L 327.458102 -160.256197 
L 326.806423 -160.256197 
L 326.154745 -160.256197 
L 325.503066 -160.256197 
L 324.851387 -160.256197 
L 324.199708 -160.256197 
L 323.548029 -160.256197 
L 322.89635 -160.256197 
L 322.244672 -160.256197 
L 321.592993 -160.256197 
L 320.941314 -160.256197 
L 320.289635 -160.256197 
L 319.637956 -160.256197 
L 318.986277 -160.256197 
L 318.334599 -160.256197 
L 317.68292 -160.256197 
L 317.031241 -160.256197 
L 316.379562 -160.256197 
L 315.727883 -160.256197 
L 315.076204 -160.256197 
L 314.424526 -160.256197 
L 313.772847 -160.256197 
L 313.121168 -160.256197 
L 312.469489 -160.256197 
L 311.81781 -160.256197 
L 311.166131 -160.256197 
L 310.514453 -160.256197 
L 309.862774 -160.256197 
L 309.211095 -160.256197 
L 308.559416 -160.256197 
L 307.907737 -160.256197 
L 307.256058 -160.256197 
L 306.60438 -160.256197 
L 305.952701 -160.256197 
L 305.301022 -160.256197 
L 304.649343 -160.256197 
L 303.997664 -160.256197 
L 303.345985 -160.256197 
L 302.694307 -160.256197 
L 302.042628 -160.256197 
L 301.390949 -160.256197 
L 300.73927 -160.256197 
L 300.087591 -160.256197 
L 299.435912 -160.256197 
L 298.784234 -160.256197 
L 298.132555 -160.256197 
L 297.480876 -160.256197 
L 296.829197 -160.256197 
L 296.177518 -160.256197 
L 295.525839 -160.256197 
L 294.874161 -160.256197 
L 294.222482 -160.256197 
L 293.570803 -160.256197 
L 292.919124 -160.256197 
L 292.267445 -160.256197 
L 291.615766 -160.256197 
L 290.964088 -160.256197 
L 290.312409 -160.256197 
L 289.66073 -160.256197 
L 289.009051 -160.256197 
L 288.357372 -160.256197 
L 287.705693 -160.256197 
L 287.054015 -160.256197 
L 286.402336 -160.256197 
L 285.750657 -160.256197 
L 285.098978 -160.256197 
L 284.447299 -160.256197 
L 283.79562 -160.256197 
L 283.143942 -160.256197 
L 282.492263 -160.256197 
L 281.840584 -160.256197 
L 281.188905 -160.256197 
L 280.537226 -160.256197 
L 279.885547 -160.256197 
L 279.233869 -160.256197 
L 278.58219 -160.256197 
L 277.930511 -160.256197 
L 277.278832 -160.256197 
L 276.627153 -160.256197 
L 275.975474 -160.256197 
L 275.323796 -160.256197 
L 274.672117 -160.256197 
L 274.020438 -160.256197 
L 273.368759 -160.256197 
L 272.71708 -160.256197 
L 272.065401 -160.256197 
L 271.413723 -160.256197 
L 270.762044 -160.256197 
L 270.110365 -160.256197 
L 269.458686 -160.256197 
L 268.807007 -160.256197 
L 268.155328 -160.256197 
L 267.50365 -160.256197 
L 266.851971 -160.256197 
L 266.200292 -160.256197 
L 265.548613 -160.256197 
L 264.896934 -160.256197 
L 264.245255 -160.256197 
L 263.593577 -160.256197 
L 262.941898 -160.256197 
L 262.290219 -160.256197 
L 261.63854 -160.256197 
L 260.986861 -160.256197 
L 260.335182 -160.256197 
L 259.683504 -160.256197 
L 259.031825 -160.256197 
L 258.380146 -160.256197 
L 257.728467 -160.256197 
L 257.076788 -160.256197 
L 256.425109 -160.256197 
L 255.773431 -160.256197 
L 255.121752 -160.256197 
L 254.470073 -160.256197 
L 253.818394 -160.256197 
L 253.166715 -160.256197 
L 252.515036 -160.256197 
L 251.863358 -160.256197 
L 251.211679 -160.256197 
L 250.56 -160.256197 
L 249.908321 -160.256197 
L 249.256642 -160.256197 
L 248.604964 -160.256197 
L 247.953285 -160.256197 
L 247.301606 -160.256197 
L 246.649927 -160.256197 
L 245.998248 -160.256197 
L 245.346569 -160.256197 
L 244.694891 -160.256197 
L 244.043212 -160.256197 
L 243.391533 -160.256197 
L 242.739854 -160.256197 
L 242.088175 -160.256197 
L 241.436496 -160.256197 
L 240.784818 -160.256197 
L 240.133139 -160.256197 
L 239.48146 -160.256197 
L 238.829781 -160.256197 
L 238.178102 -160.256197 
L 237.526423 -160.256197 
L 236.874745 -160.256197 
L 236.223066 -160.256197 
L 235.571387 -160.256197 
L 234.919708 -160.256197 
L 234.268029 -160.256197 
L 233.61635 -160.256197 
L 232.964672 -160.256197 
L 232.312993 -160.256197 
L 231.661314 -160.256197 
L 231.009635 -160.256197 
L 230.357956 -160.256197 
L 229.706277 -160.256197 
L 229.054599 -160.256197 
L 228.40292 -160.256197 
L 227.751241 -160.256197 
L 227.099562 -160.256197 
L 226.447883 -160.256197 
L 225.796204 -160.256197 
L 225.144526 -160.256197 
L 224.492847 -160.256197 
L 223.841168 -160.256197 
L 223.189489 -160.256197 
L 222.53781 -160.256197 
L 221.886131 -160.256197 
L 221.234453 -160.256197 
L 220.582774 -160.256197 
L 219.931095 -160.256197 
L 219.279416 -160.256197 
L 218.627737 -160.256197 
L 217.976058 -160.256197 
L 217.32438 -160.256197 
L 216.672701 -160.256197 
L 216.021022 -160.256197 
L 215.369343 -160.256197 
L 214.717664 -160.256197 
L 214.065985 -160.256197 
L 213.414307 -160.256197 
L 212.762628 -160.256197 
L 212.110949 -160.256197 
L 211.45927 -160.256197 
L 210.807591 -160.256197 
L 210.155912 -160.256197 
L 209.504234 -160.256197 
L 208.852555 -160.256197 
L 208.200876 -160.256197 
L 207.549197 -160.256197 
L 206.897518 -160.256197 
L 206.245839 -160.256197 
L 205.594161 -160.256197 
L 204.942482 -160.256197 
L 204.290803 -160.256197 
L 203.639124 -160.256197 
L 202.987445 -160.256197 
L 202.335766 -160.256197 
L 201.684088 -160.256197 
L 201.032409 -160.256197 
L 200.38073 -160.256197 
L 199.729051 -160.256197 
L 199.077372 -160.256197 
L 198.425693 -160.256197 
L 197.774015 -160.256197 
L 197.122336 -160.256197 
L 196.470657 -160.256197 
L 195.818978 -160.256197 
L 195.167299 -160.256197 
L 194.51562 -160.256197 
L 193.863942 -160.256197 
L 193.212263 -160.256197 
L 192.560584 -160.256197 
L 191.908905 -160.256197 
L 191.257226 -160.256197 
L 190.605547 -160.256197 
L 189.953869 -160.256197 
L 189.30219 -160.256197 
L 188.650511 -160.256197 
L 187.998832 -160.256197 
L 187.347153 -160.256197 
L 186.695474 -160.256197 
L 186.043796 -160.256197 
L 185.392117 -160.256197 
L 184.740438 -160.256197 
L 184.088759 -160.256197 
L 183.43708 -160.256197 
L 182.785401 -160.256197 
L 182.133723 -160.256197 
L 181.482044 -160.256197 
L 180.830365 -160.256197 
L 180.178686 -160.256197 
L 179.527007 -160.256197 
L 178.875328 -160.256197 
L 178.22365 -160.256197 
L 177.571971 -160.256197 
L 176.920292 -160.256197 
L 176.268613 -160.256197 
L 175.616934 -160.256197 
L 174.965255 -160.256197 
L 174.313577 -160.256197 
L 173.661898 -160.256197 
L 173.010219 -160.256197 
L 172.35854 -160.256197 
L 171.706861 -160.256197 
L 171.055182 -160.256197 
L 170.403504 -160.256197 
L 169.751825 -160.256197 
L 169.100146 -160.256197 
L 168.448467 -160.256197 
L 167.796788 -160.256197 
L 167.145109 -160.256197 
L 166.493431 -160.256197 
L 165.841752 -160.256197 
L 165.190073 -160.256197 
L 164.538394 -160.256197 
L 163.886715 -160.256197 
L 163.235036 -160.256197 
L 162.583358 -160.256197 
L 161.931679 -160.256197 
L 161.28 -160.256197 
L 160.628321 -160.256197 
L 159.976642 -160.256197 
L 159.324964 -160.256197 
L 158.673285 -160.256197 
L 158.021606 -160.256197 
L 157.369927 -160.256197 
L 156.718248 -160.256197 
L 156.066569 -160.256197 
L 155.414891 -160.256197 
L 154.763212 -160.256197 
L 154.111533 -160.256197 
L 153.459854 -160.256197 
L 152.808175 -160.256197 
L 152.156496 -160.256197 
L 151.504818 -160.256197 
L 150.853139 -160.256197 
L 150.20146 -160.256197 
L 149.549781 -160.256197 
L 148.898102 -160.256197 
L 148.246423 -160.256197 
L 147.594745 -160.256197 
L 146.943066 -160.256197 
L 146.291387 -160.256197 
L 145.639708 -160.256197 
L 144.988029 -160.256197 
L 144.33635 -160.256197 
L 143.684672 -160.256197 
L 143.032993 -160.256197 
L 142.381314 -160.256197 
L 141.729635 -160.256197 
L 141.077956 -160.256197 
L 140.426277 -160.256197 
L 139.774599 -160.256197 
L 139.12292 -160.256197 
L 138.471241 -160.256197 
L 137.819562 -160.256197 
L 137.167883 -160.256197 
L 136.516204 -160.256197 
L 135.864526 -160.256197 
L 135.212847 -160.256197 
L 134.561168 -160.256197 
L 133.909489 -160.256197 
L 133.25781 -160.256197 
L 132.606131 -160.256197 
L 131.954453 -160.256197 
L 131.302774 -160.256197 
L 130.651095 -160.256197 
L 129.999416 -160.256197 
L 129.347737 -160.256197 
L 128.696058 -160.256197 
L 128.04438 -160.256197 
L 127.392701 -160.256197 
L 126.741022 -160.256197 
L 126.089343 -160.256197 
L 125.437664 -160.256197 
L 124.785985 -160.256197 
L 124.134307 -160.256197 
L 123.482628 -160.256197 
L 122.830949 -160.256197 
L 122.17927 -160.256197 
L 121.527591 -160.256197 
L 120.875912 -160.256197 
L 120.224234 -160.256197 
L 119.572555 -160.256197 
L 118.920876 -160.256197 
L 118.269197 -160.256197 
L 117.617518 -160.256197 
L 116.965839 -160.256197 
L 116.314161 -160.256197 
L 115.662482 -160.256197 
L 115.010803 -160.256197 
L 114.359124 -160.256197 
L 113.707445 -160.256197 
L 113.055766 -160.256197 
L 112.404088 -160.256197 
L 111.752409 -160.256197 
L 111.10073 -160.256197 
L 110.449051 -160.256197 
L 109.797372 -160.256197 
L 109.145693 -160.256197 
L 108.494015 -160.256197 
L 107.842336 -160.256197 
L 107.190657 -160.256197 
L 106.538978 -160.256197 
L 105.887299 -160.256197 
L 105.23562 -160.256197 
L 104.583942 -160.256197 
L 103.932263 -160.256197 
L 103.280584 -160.256197 
L 102.628905 -160.256197 
L 101.977226 -160.256197 
L 101.325547 -160.256197 
L 100.673869 -160.256197 
L 100.02219 -160.256197 
L 99.370511 -160.256197 
L 98.718832 -160.256197 
L 98.067153 -160.256197 
L 97.415474 -160.256197 
L 96.763796 -160.256197 
L 96.112117 -160.256197 
L 95.460438 -160.256197 
L 94.808759 -160.256197 
L 94.15708 -160.256197 
L 93.505401 -160.256197 
L 92.853723 -160.256197 
L 92.202044 -160.256197 
L 91.550365 -160.256197 
L 90.898686 -160.256197 
L 90.247007 -160.256197 
L 89.595328 -160.256197 
L 88.94365 -160.256197 
L 88.291971 -160.256197 
L 87.640292 -160.256197 
L 86.988613 -160.256197 
L 86.336934 -160.256197 
L 85.685255 -160.256197 
L 85.033577 -160.256197 
L 84.381898 -160.256197 
L 83.730219 -160.256197 
L 83.07854 -160.256197 
L 82.426861 -160.256197 
L 81.775182 -160.256197 
L 81.123504 -160.256197 
L 80.471825 -160.256197 
L 79.820146 -160.256197 
L 79.168467 -160.256197 
L 78.516788 -160.256197 
L 77.865109 -160.256197 
L 77.213431 -160.256197 
L 76.561752 -160.256197 
L 75.910073 -160.256197 
L 75.258394 -160.256197 
L 74.606715 -160.256197 
L 73.955036 -160.256197 
L 73.303358 -160.256197 
L 72.651679 -160.256197 
L 72 -160.256197 
z
" id="m0482688b61"/>
    </defs>
    <g clip-path="url(#p1cdc6c8d22)">
     <use style="fill-opacity:0.15;" x="0" xlink:href="#m0482688b61" y="360"/>
    </g>
   </g>
   <g id="matplotlib.axis_1">
    <g id="xtick_1">
     <g id="line2d_1">
      <defs>
       <path d="M 0 0 
L 0 3.5 
" id="med9efce18f" style="stroke:#000000;stroke-width:0.8;"/>
      </defs>
      <g>
       <use style="stroke:#000000;stroke-width:0.8;" x="72" xlink:href="#med9efce18f" y="320.4"/>
      </g>
     </g>
     <g id="text_1">
      <!-- 0.0 -->
      <g transform="translate(60.867812 338.037813)scale(0.14 -0.14)">
       <defs>
        <path d="M 2034 4250 
Q 1547 4250 1301 3770 
Q 1056 3291 1056 2328 
Q 1056 1369 1301 889 
Q 1547 409 2034 409 
Q 2525 409 2770 889 
Q 3016 1369 3016 2328 
Q 3016 3291 2770 3770 
Q 2525 4250 2034 4250 
z
M 2034 4750 
Q 2819 4750 3233 4129 
Q 3647 3509 3647 2328 
Q 3647 1150 3233 529 
Q 2819 -91 2034 -91 
Q 1250 -91 836 529 
Q 422 1150 422 2328 
Q 422 3509 836 4129 
Q 1250 4750 2034 4750 
z
" id="DejaVuSans-30" transform="scale(0.015625)"/>
        <path d="M 684 794 
L 1344 794 
L 1344 0 
L 684 0 
L 684 794 
z
" id="DejaVuSans-2e" transform="scale(0.015625)"/>
       </defs>
       <use xlink:href="#DejaVuSans-30"/>
       <use x="63.623047" xlink:href="#DejaVuSans-2e"/>
       <use x="95.410156" xlink:href="#DejaVuSans-30"/>
      </g>
     </g>
    </g>
    <g id="xtick_2">
     <g id="line2d_2">
      <g>
       <use style="stroke:#000000;stroke-width:0.8;" x="127.86704" xlink:href="#med9efce18f" y="320.4"/>
      </g>
     </g>
     <g id="text_2">
      <!-- 2.5 -->
      <g transform="translate(116.734853 338.037813)scale(0.14 -0.14)">
       <defs>
        <path d="M 1228 531 
L 3431 531 
L 3431 0 
L 469 0 
L 469 531 
Q 828 903 1448 1529 
Q 2069 2156 2228 2338 
Q 2531 2678 2651 2914 
Q 2772 3150 2772 3378 
Q 2772 3750 2511 3984 
Q 2250 4219 1831 4219 
Q 1534 4219 1204 4116 
Q 875 4013 500 3803 
L 500 4441 
Q 881 4594 1212 4672 
Q 1544 4750 1819 4750 
Q 2544 4750 2975 4387 
Q 3406 4025 3406 3419 
Q 3406 3131 3298 2873 
Q 3191 2616 2906 2266 
Q 2828 2175 2409 1742 
Q 1991 1309 1228 531 
z
" id="DejaVuSans-32" transform="scale(0.015625)"/>
        <path d="M 691 4666 
L 3169 4666 
L 3169 4134 
L 1269 4134 
L 1269 2991 
Q 1406 3038 1543 3061 
Q 1681 3084 1819 3084 
Q 2600 3084 3056 2656 
Q 3513 2228 3513 1497 
Q 3513 744 3044 326 
Q 2575 -91 1722 -91 
Q 1428 -91 1123 -41 
Q 819 9 494 109 
L 494 744 
Q 775 591 1075 516 
Q 1375 441 1709 441 
Q 2250 441 2565 725 
Q 2881 1009 2881 1497 
Q 2881 1984 2565 2268 
Q 2250 2553 1709 2553 
Q 1456 2553 1204 2497 
Q 953 2441 691 2322 
L 691 4666 
z
" id="DejaVuSans-35" transform="scale(0.015625)"/>
       </defs>
       <use xlink:href="#DejaVuSans-32"/>
       <use x="63.623047" xlink:href="#DejaVuSans-2e"/>
       <use x="95.410156" xlink:href="#DejaVuSans-35"/>
      </g>
     </g>
    </g>
    <g id="xtick_3">
     <g id="line2d_3">
      <g>
       <use style="stroke:#000000;stroke-width:0.8;" x="183.734081" xlink:href="#med9efce18f" y="320.4"/>
      </g>
     </g>
     <g id="text_3">
      <!-- 5.0 -->
      <g transform="translate(172.601893 338.037813)scale(0.14 -0.14)">
       <use xlink:href="#DejaVuSans-35"/>
       <use x="63.623047" xlink:href="#DejaVuSans-2e"/>
       <use x="95.410156" xlink:href="#DejaVuSans-30"/>
      </g>
     </g>
    </g>
    <g id="xtick_4">
     <g id="line2d_4">
      <g>
       <use style="stroke:#000000;stroke-width:0.8;" x="239.601121" xlink:href="#med9efce18f" y="320.4"/>
      </g>
     </g>
     <g id="text_4">
      <!-- 7.5 -->
      <g transform="translate(228.468934 338.037813)scale(0.14 -0.14)">
       <defs>
        <path d="M 525 4666 
L 3525 4666 
L 3525 4397 
L 1831 0 
L 1172 0 
L 2766 4134 
L 525 4134 
L 525 4666 
z
" id="DejaVuSans-37" transform="scale(0.015625)"/>
       </defs>
       <use xlink:href="#DejaVuSans-37"/>
       <use x="63.623047" xlink:href="#DejaVuSans-2e"/>
       <use x="95.410156" xlink:href="#DejaVuSans-35"/>
      </g>
     </g>
    </g>
    <g id="xtick_5">
     <g id="line2d_5">
      <g>
       <use style="stroke:#000000;stroke-width:0.8;" x="295.468162" xlink:href="#med9efce18f" y="320.4"/>
      </g>
     </g>
     <g id="text_5">
      <!-- 10.0 -->
      <g transform="translate(279.882224 338.037813)scale(0.14 -0.14)">
       <defs>
        <path d="M 794 531 
L 1825 531 
L 1825 4091 
L 703 3866 
L 703 4441 
L 1819 4666 
L 2450 4666 
L 2450 531 
L 3481 531 
L 3481 0 
L 794 0 
L 794 531 
z
" id="DejaVuSans-31" transform="scale(0.015625)"/>
       </defs>
       <use xlink:href="#DejaVuSans-31"/>
       <use x="63.623047" xlink:href="#DejaVuSans-30"/>
       <use x="127.246094" xlink:href="#DejaVuSans-2e"/>
       <use x="159.033203" xlink:href="#DejaVuSans-30"/>
      </g>
     </g>
    </g>
    <g id="xtick_6">
     <g id="line2d_6">
      <g>
       <use style="stroke:#000000;stroke-width:0.8;" x="351.335202" xlink:href="#med9efce18f" y="320.4"/>
      </g>
     </g>
     <g id="text_6">
      <!-- 12.5 -->
      <g transform="translate(335.749265 338.037813)scale(0.14 -0.14)">
       <use xlink:href="#DejaVuSans-31"/>
       <use x="63.623047" xlink:href="#DejaVuSans-32"/>
       <use x="127.246094" xlink:href="#DejaVuSans-2e"/>
       <use x="159.033203" xlink:href="#DejaVuSans-35"/>
      </g>
     </g>
    </g>
    <g id="xtick_7">
     <g id="line2d_7">
      <g>
       <use style="stroke:#000000;stroke-width:0.8;" x="407.202243" xlink:href="#med9efce18f" y="320.4"/>
      </g>
     </g>
     <g id="text_7">
      <!-- 15.0 -->
      <g transform="translate(391.616305 338.037813)scale(0.14 -0.14)">
       <use xlink:href="#DejaVuSans-31"/>
       <use x="63.623047" xlink:href="#DejaVuSans-35"/>
       <use x="127.246094" xlink:href="#DejaVuSans-2e"/>
       <use x="159.033203" xlink:href="#DejaVuSans-30"/>
      </g>
     </g>
    </g>
    <g id="xtick_8">
     <g id="line2d_8">
      <g>
       <use style="stroke:#000000;stroke-width:0.8;" x="463.069283" xlink:href="#med9efce18f" y="320.4"/>
      </g>
     </g>
     <g id="text_8">
      <!-- 17.5 -->
      <g transform="translate(447.483346 338.037813)scale(0.14 -0.14)">
       <use xlink:href="#DejaVuSans-31"/>
       <use x="63.623047" xlink:href="#DejaVuSans-37"/>
       <use x="127.246094" xlink:href="#DejaVuSans-2e"/>
       <use x="159.033203" xlink:href="#DejaVuSans-35"/>
      </g>
     </g>
    </g>
    <g id="text_9">
     <!-- Time [Seconds] -->
     <g transform="translate(233.23 357.106875)scale(0.16 -0.16)">
      <defs>
       <path d="M -19 4666 
L 3928 4666 
L 3928 4134 
L 2272 4134 
L 2272 0 
L 1638 0 
L 1638 4134 
L -19 4134 
L -19 4666 
z
" id="DejaVuSans-54" transform="scale(0.015625)"/>
       <path d="M 603 3500 
L 1178 3500 
L 1178 0 
L 603 0 
L 603 3500 
z
M 603 4863 
L 1178 4863 
L 1178 4134 
L 603 4134 
L 603 4863 
z
" id="DejaVuSans-69" transform="scale(0.015625)"/>
       <path d="M 3328 2828 
Q 3544 3216 3844 3400 
Q 4144 3584 4550 3584 
Q 5097 3584 5394 3201 
Q 5691 2819 5691 2113 
L 5691 0 
L 5113 0 
L 5113 2094 
Q 5113 2597 4934 2840 
Q 4756 3084 4391 3084 
Q 3944 3084 3684 2787 
Q 3425 2491 3425 1978 
L 3425 0 
L 2847 0 
L 2847 2094 
Q 2847 2600 2669 2842 
Q 2491 3084 2119 3084 
Q 1678 3084 1418 2786 
Q 1159 2488 1159 1978 
L 1159 0 
L 581 0 
L 581 3500 
L 1159 3500 
L 1159 2956 
Q 1356 3278 1631 3431 
Q 1906 3584 2284 3584 
Q 2666 3584 2933 3390 
Q 3200 3197 3328 2828 
z
" id="DejaVuSans-6d" transform="scale(0.015625)"/>
       <path d="M 3597 1894 
L 3597 1613 
L 953 1613 
Q 991 1019 1311 708 
Q 1631 397 2203 397 
Q 2534 397 2845 478 
Q 3156 559 3463 722 
L 3463 178 
Q 3153 47 2828 -22 
Q 2503 -91 2169 -91 
Q 1331 -91 842 396 
Q 353 884 353 1716 
Q 353 2575 817 3079 
Q 1281 3584 2069 3584 
Q 2775 3584 3186 3129 
Q 3597 2675 3597 1894 
z
M 3022 2063 
Q 3016 2534 2758 2815 
Q 2500 3097 2075 3097 
Q 1594 3097 1305 2825 
Q 1016 2553 972 2059 
L 3022 2063 
z
" id="DejaVuSans-65" transform="scale(0.015625)"/>
       <path id="DejaVuSans-20" transform="scale(0.015625)"/>
       <path d="M 550 4863 
L 1875 4863 
L 1875 4416 
L 1125 4416 
L 1125 -397 
L 1875 -397 
L 1875 -844 
L 550 -844 
L 550 4863 
z
" id="DejaVuSans-5b" transform="scale(0.015625)"/>
       <path d="M 3425 4513 
L 3425 3897 
Q 3066 4069 2747 4153 
Q 2428 4238 2131 4238 
Q 1616 4238 1336 4038 
Q 1056 3838 1056 3469 
Q 1056 3159 1242 3001 
Q 1428 2844 1947 2747 
L 2328 2669 
Q 3034 2534 3370 2195 
Q 3706 1856 3706 1288 
Q 3706 609 3251 259 
Q 2797 -91 1919 -91 
Q 1588 -91 1214 -16 
Q 841 59 441 206 
L 441 856 
Q 825 641 1194 531 
Q 1563 422 1919 422 
Q 2459 422 2753 634 
Q 3047 847 3047 1241 
Q 3047 1584 2836 1778 
Q 2625 1972 2144 2069 
L 1759 2144 
Q 1053 2284 737 2584 
Q 422 2884 422 3419 
Q 422 4038 858 4394 
Q 1294 4750 2059 4750 
Q 2388 4750 2728 4690 
Q 3069 4631 3425 4513 
z
" id="DejaVuSans-53" transform="scale(0.015625)"/>
       <path d="M 3122 3366 
L 3122 2828 
Q 2878 2963 2633 3030 
Q 2388 3097 2138 3097 
Q 1578 3097 1268 2742 
Q 959 2388 959 1747 
Q 959 1106 1268 751 
Q 1578 397 2138 397 
Q 2388 397 2633 464 
Q 2878 531 3122 666 
L 3122 134 
Q 2881 22 2623 -34 
Q 2366 -91 2075 -91 
Q 1284 -91 818 406 
Q 353 903 353 1747 
Q 353 2603 823 3093 
Q 1294 3584 2113 3584 
Q 2378 3584 2631 3529 
Q 2884 3475 3122 3366 
z
" id="DejaVuSans-63" transform="scale(0.015625)"/>
       <path d="M 1959 3097 
Q 1497 3097 1228 2736 
Q 959 2375 959 1747 
Q 959 1119 1226 758 
Q 1494 397 1959 397 
Q 2419 397 2687 759 
Q 2956 1122 2956 1747 
Q 2956 2369 2687 2733 
Q 2419 3097 1959 3097 
z
M 1959 3584 
Q 2709 3584 3137 3096 
Q 3566 2609 3566 1747 
Q 3566 888 3137 398 
Q 2709 -91 1959 -91 
Q 1206 -91 779 398 
Q 353 888 353 1747 
Q 353 2609 779 3096 
Q 1206 3584 1959 3584 
z
" id="DejaVuSans-6f" transform="scale(0.015625)"/>
       <path d="M 3513 2113 
L 3513 0 
L 2938 0 
L 2938 2094 
Q 2938 2591 2744 2837 
Q 2550 3084 2163 3084 
Q 1697 3084 1428 2787 
Q 1159 2491 1159 1978 
L 1159 0 
L 581 0 
L 581 3500 
L 1159 3500 
L 1159 2956 
Q 1366 3272 1645 3428 
Q 1925 3584 2291 3584 
Q 2894 3584 3203 3211 
Q 3513 2838 3513 2113 
z
" id="DejaVuSans-6e" transform="scale(0.015625)"/>
       <path d="M 2906 2969 
L 2906 4863 
L 3481 4863 
L 3481 0 
L 2906 0 
L 2906 525 
Q 2725 213 2448 61 
Q 2172 -91 1784 -91 
Q 1150 -91 751 415 
Q 353 922 353 1747 
Q 353 2572 751 3078 
Q 1150 3584 1784 3584 
Q 2172 3584 2448 3432 
Q 2725 3281 2906 2969 
z
M 947 1747 
Q 947 1113 1208 752 
Q 1469 391 1925 391 
Q 2381 391 2643 752 
Q 2906 1113 2906 1747 
Q 2906 2381 2643 2742 
Q 2381 3103 1925 3103 
Q 1469 3103 1208 2742 
Q 947 2381 947 1747 
z
" id="DejaVuSans-64" transform="scale(0.015625)"/>
       <path d="M 2834 3397 
L 2834 2853 
Q 2591 2978 2328 3040 
Q 2066 3103 1784 3103 
Q 1356 3103 1142 2972 
Q 928 2841 928 2578 
Q 928 2378 1081 2264 
Q 1234 2150 1697 2047 
L 1894 2003 
Q 2506 1872 2764 1633 
Q 3022 1394 3022 966 
Q 3022 478 2636 193 
Q 2250 -91 1575 -91 
Q 1294 -91 989 -36 
Q 684 19 347 128 
L 347 722 
Q 666 556 975 473 
Q 1284 391 1588 391 
Q 1994 391 2212 530 
Q 2431 669 2431 922 
Q 2431 1156 2273 1281 
Q 2116 1406 1581 1522 
L 1381 1569 
Q 847 1681 609 1914 
Q 372 2147 372 2553 
Q 372 3047 722 3315 
Q 1072 3584 1716 3584 
Q 2034 3584 2315 3537 
Q 2597 3491 2834 3397 
z
" id="DejaVuSans-73" transform="scale(0.015625)"/>
       <path d="M 1947 4863 
L 1947 -844 
L 622 -844 
L 622 -397 
L 1369 -397 
L 1369 4416 
L 622 4416 
L 622 4863 
L 1947 4863 
z
" id="DejaVuSans-5d" transform="scale(0.015625)"/>
      </defs>
      <use xlink:href="#DejaVuSans-54"/>
      <use x="57.958984" xlink:href="#DejaVuSans-69"/>
      <use x="85.742188" xlink:href="#DejaVuSans-6d"/>
      <use x="183.154297" xlink:href="#DejaVuSans-65"/>
      <use x="244.677734" xlink:href="#DejaVuSans-20"/>
      <use x="276.464844" xlink:href="#DejaVuSans-5b"/>
      <use x="315.478516" xlink:href="#DejaVuSans-53"/>
      <use x="378.955078" xlink:href="#DejaVuSans-65"/>
      <use x="440.478516" xlink:href="#DejaVuSans-63"/>
      <use x="495.458984" xlink:href="#DejaVuSans-6f"/>
      <use x="556.640625" xlink:href="#DejaVuSans-6e"/>
      <use x="620.019531" xlink:href="#DejaVuSans-64"/>
      <use x="683.496094" xlink:href="#DejaVuSans-73"/>
      <use x="735.595703" xlink:href="#DejaVuSans-5d"/>
     </g>
    </g>
   </g>
   <g id="matplotlib.axis_2">
    <g id="ytick_1">
     <g id="line2d_9">
      <defs>
       <path d="M 0 0 
L -3.5 0 
" id="m7370e2eb94" style="stroke:#000000;stroke-width:0.8;"/>
      </defs>
      <g>
       <use style="stroke:#000000;stroke-width:0.8;" x="72" xlink:href="#m7370e2eb94" y="284.873061"/>
      </g>
     </g>
     <g id="text_10">
      <!-- 0.0 -->
      <g transform="translate(42.735625 290.191967)scale(0.14 -0.14)">
       <use xlink:href="#DejaVuSans-30"/>
       <use x="63.623047" xlink:href="#DejaVuSans-2e"/>
       <use x="95.410156" xlink:href="#DejaVuSans-30"/>
      </g>
     </g>
    </g>
    <g id="ytick_2">
     <g id="line2d_10">
      <g>
       <use style="stroke:#000000;stroke-width:0.8;" x="72" xlink:href="#m7370e2eb94" y="229.532705"/>
      </g>
     </g>
     <g id="text_11">
      <!-- 0.5 -->
      <g transform="translate(42.735625 234.851611)scale(0.14 -0.14)">
       <use xlink:href="#DejaVuSans-30"/>
       <use x="63.623047" xlink:href="#DejaVuSans-2e"/>
       <use x="95.410156" xlink:href="#DejaVuSans-35"/>
      </g>
     </g>
    </g>
    <g id="ytick_3">
     <g id="line2d_11">
      <g>
       <use style="stroke:#000000;stroke-width:0.8;" x="72" xlink:href="#m7370e2eb94" y="174.192348"/>
      </g>
     </g>
     <g id="text_12">
      <!-- 1.0 -->
      <g transform="translate(42.735625 179.511255)scale(0.14 -0.14)">
       <use xlink:href="#DejaVuSans-31"/>
       <use x="63.623047" xlink:href="#DejaVuSans-2e"/>
       <use x="95.410156" xlink:href="#DejaVuSans-30"/>
      </g>
     </g>
    </g>
    <g id="ytick_4">
     <g id="line2d_12">
      <g>
       <use style="stroke:#000000;stroke-width:0.8;" x="72" xlink:href="#m7370e2eb94" y="118.851992"/>
      </g>
     </g>
     <g id="text_13">
      <!-- 1.5 -->
      <g transform="translate(42.735625 124.170899)scale(0.14 -0.14)">
       <use xlink:href="#DejaVuSans-31"/>
       <use x="63.623047" xlink:href="#DejaVuSans-2e"/>
       <use x="95.410156" xlink:href="#DejaVuSans-35"/>
      </g>
     </g>
    </g>
    <g id="ytick_5">
     <g id="line2d_13">
      <g>
       <use style="stroke:#000000;stroke-width:0.8;" x="72" xlink:href="#m7370e2eb94" y="63.511636"/>
      </g>
     </g>
     <g id="text_14">
      <!-- 2.0 -->
      <g transform="translate(42.735625 68.830542)scale(0.14 -0.14)">
       <use xlink:href="#DejaVuSans-32"/>
       <use x="63.623047" xlink:href="#DejaVuSans-2e"/>
       <use x="95.410156" xlink:href="#DejaVuSans-30"/>
      </g>
     </g>
    </g>
    <g id="text_15">
     <!-- Speed [mm/s] -->
     <g transform="translate(35.408125 238.11375)rotate(-90)scale(0.16 -0.16)">
      <defs>
       <path d="M 1159 525 
L 1159 -1331 
L 581 -1331 
L 581 3500 
L 1159 3500 
L 1159 2969 
Q 1341 3281 1617 3432 
Q 1894 3584 2278 3584 
Q 2916 3584 3314 3078 
Q 3713 2572 3713 1747 
Q 3713 922 3314 415 
Q 2916 -91 2278 -91 
Q 1894 -91 1617 61 
Q 1341 213 1159 525 
z
M 3116 1747 
Q 3116 2381 2855 2742 
Q 2594 3103 2138 3103 
Q 1681 3103 1420 2742 
Q 1159 2381 1159 1747 
Q 1159 1113 1420 752 
Q 1681 391 2138 391 
Q 2594 391 2855 752 
Q 3116 1113 3116 1747 
z
" id="DejaVuSans-70" transform="scale(0.015625)"/>
       <path d="M 1625 4666 
L 2156 4666 
L 531 -594 
L 0 -594 
L 1625 4666 
z
" id="DejaVuSans-2f" transform="scale(0.015625)"/>
      </defs>
      <use xlink:href="#DejaVuSans-53"/>
      <use x="63.476562" xlink:href="#DejaVuSans-70"/>
      <use x="126.953125" xlink:href="#DejaVuSans-65"/>
      <use x="188.476562" xlink:href="#DejaVuSans-65"/>
      <use x="250" xlink:href="#DejaVuSans-64"/>
      <use x="313.476562" xlink:href="#DejaVuSans-20"/>
      <use x="345.263672" xlink:href="#DejaVuSans-5b"/>
      <use x="384.277344" xlink:href="#DejaVuSans-6d"/>
      <use x="481.689453" xlink:href="#DejaVuSans-6d"/>
      <use x="579.101562" xlink:href="#DejaVuSans-2f"/>
      <use x="612.792969" xlink:href="#DejaVuSans-73"/>
      <use x="664.892578" xlink:href="#DejaVuSans-5d"/>
     </g>
    </g>
   </g>
   <g id="line2d_14">
    <path clip-path="url(#p1cdc6c8d22)" d="M 72 197.160932 
L 518.4 197.160932 
" style="fill:none;stroke:#000000;stroke-dasharray:5.55,2.4;stroke-dashoffset:0;stroke-width:1.5;"/>
   </g>
   <g id="line2d_15">
    <path clip-path="url(#p1cdc6c8d22)" d="M 72 283.799186 
L 128.696058 283.724318 
L 129.347737 284.119523 
L 130.651095 280.913784 
L 131.302774 282.590325 
L 131.954453 284.664395 
L 132.606131 285.219449 
L 133.25781 284.078673 
L 133.909489 284.515835 
L 134.561168 290.363809 
L 135.212847 267.96657 
L 135.864526 267.497305 
L 136.516204 298.816689 
L 137.167883 305.831087 
L 137.819562 307.8 
L 138.471241 303.378351 
L 139.12292 293.328564 
L 139.774599 280.364609 
L 140.426277 262.901291 
L 141.729635 216.893081 
L 144.988029 96.619626 
L 145.639708 77.21402 
L 146.291387 65.696944 
L 146.943066 58.268886 
L 147.594745 55.8 
L 148.246423 58.683961 
L 149.549781 75.920318 
L 150.20146 89.825794 
L 153.459854 177.478149 
L 154.111533 188.200412 
L 154.763212 192.599655 
L 155.414891 196.234868 
L 156.066569 189.904762 
L 156.718248 163.393028 
L 157.369927 172.522176 
L 158.021606 194.806104 
L 158.673285 188.259013 
L 159.324964 187.534597 
L 159.976642 186.329725 
L 160.628321 185.956479 
L 161.28 186.873354 
L 161.931679 187.375611 
L 162.583358 188.218887 
L 164.538394 191.821756 
L 165.190073 190.690328 
L 165.841752 192.380632 
L 166.493431 191.77551 
L 167.145109 190.531301 
L 167.796788 193.379253 
L 168.448467 194.384237 
L 169.100146 196.106903 
L 169.751825 195.443554 
L 170.403504 195.86562 
L 171.055182 195.101685 
L 171.706861 193.756999 
L 172.35854 193.87469 
L 173.010219 192.867706 
L 173.661898 194.288042 
L 174.313577 193.737201 
L 174.965255 192.695964 
L 175.616934 191.417929 
L 176.268613 190.906128 
L 176.920292 192.855364 
L 177.571971 193.090807 
L 178.22365 194.867623 
L 178.875328 194.797829 
L 179.527007 195.877917 
L 180.178686 196.639362 
L 180.830365 195.89961 
L 181.482044 197.045545 
L 182.133723 197.157549 
L 182.785401 196.411478 
L 183.43708 197.275964 
L 184.088759 199.166949 
L 184.740438 199.097382 
L 185.392117 198.794174 
L 186.043796 198.884891 
L 186.695474 197.799445 
L 187.347153 197.363893 
L 187.998832 196.687394 
L 188.650511 194.48073 
L 189.30219 194.814569 
L 189.953869 197.161611 
L 190.605547 197.306264 
L 191.257226 194.275312 
L 191.908905 195.440701 
L 192.560584 197.110326 
L 193.212263 194.633399 
L 193.863942 194.920001 
L 194.51562 196.311989 
L 195.167299 197.233117 
L 195.818978 197.163538 
L 197.122336 195.672416 
L 197.774015 195.687381 
L 199.077372 199.622496 
L 199.729051 199.469359 
L 200.38073 199.007316 
L 201.032409 200.210106 
L 202.335766 198.061703 
L 202.987445 198.15352 
L 203.639124 197.52158 
L 204.290803 196.331117 
L 204.942482 197.653529 
L 205.594161 197.540425 
L 206.245839 196.408597 
L 206.897518 197.046562 
L 207.549197 197.21101 
L 208.200876 197.66598 
L 209.504234 195.721282 
L 210.155912 195.24108 
L 210.807591 195.995711 
L 211.45927 195.27762 
L 212.110949 193.59759 
L 212.762628 194.560873 
L 213.414307 196.628264 
L 214.065985 196.308823 
L 214.717664 195.688882 
L 215.369343 197.524619 
L 216.021022 198.056427 
L 216.672701 197.776555 
L 217.32438 197.009358 
L 217.976058 197.393755 
L 218.627737 197.612695 
L 219.279416 198.244153 
L 219.931095 200.129619 
L 220.582774 198.313825 
L 221.234453 197.960673 
L 221.886131 200.300331 
L 222.53781 200.85294 
L 223.189489 198.41277 
L 223.841168 197.987421 
L 224.492847 199.617777 
L 225.144526 199.529985 
L 225.796204 198.586653 
L 226.447883 199.527234 
L 227.099562 198.845232 
L 227.751241 196.780189 
L 228.40292 197.401024 
L 229.054599 198.422106 
L 229.706277 198.360856 
L 230.357956 196.994877 
L 231.009635 198.136184 
L 231.661314 198.935827 
L 232.964672 196.045964 
L 233.61635 197.246279 
L 234.268029 199.322454 
L 235.571387 193.846942 
L 236.874745 197.241526 
L 237.526423 196.627696 
L 238.178102 195.81801 
L 238.829781 196.374996 
L 239.48146 196.531448 
L 240.133139 195.731077 
L 240.784818 195.350035 
L 241.436496 196.351679 
L 242.088175 196.074087 
L 242.739854 196.54554 
L 243.391533 195.580131 
L 244.043212 195.299885 
L 245.346569 197.074494 
L 245.998248 197.233033 
L 246.649927 196.69772 
L 247.953285 198.944214 
L 248.604964 198.399558 
L 249.256642 197.474354 
L 249.908321 199.786161 
L 250.56 200.312148 
L 251.211679 197.939617 
L 251.863358 196.772348 
L 252.515036 199.995965 
L 253.166715 200.623844 
L 253.818394 198.636867 
L 254.470073 198.937701 
L 255.121752 200.131216 
L 255.773431 200.605826 
L 256.425109 199.258894 
L 257.076788 197.153289 
L 258.380146 198.320295 
L 259.031825 196.279664 
L 259.683504 195.686694 
L 260.335182 198.048064 
L 261.63854 196.112174 
L 262.290219 196.314756 
L 263.593577 198.528007 
L 264.245255 195.980541 
L 264.896934 195.230092 
L 265.548613 198.448864 
L 266.200292 199.083932 
L 266.851971 196.835821 
L 267.50365 196.759924 
L 268.155328 199.059707 
L 268.807007 199.968515 
L 270.110365 197.947823 
L 270.762044 198.717617 
L 271.413723 197.993182 
L 272.065401 197.025223 
L 272.71708 197.367985 
L 273.368759 197.188563 
L 274.020438 198.76438 
L 274.672117 197.876137 
L 275.323796 196.081697 
L 275.975474 195.690222 
L 276.627153 196.821149 
L 277.278832 198.828183 
L 277.930511 199.419222 
L 278.58219 198.551314 
L 279.233869 200.279727 
L 279.885547 199.490662 
L 280.537226 196.038787 
L 281.188905 197.195616 
L 281.840584 199.10982 
L 282.492263 198.283691 
L 283.79562 196.270765 
L 285.098978 197.350438 
L 285.750657 194.714673 
L 286.402336 193.732599 
L 287.054015 194.689728 
L 287.705693 194.564907 
L 288.357372 194.005652 
L 289.66073 197.660536 
L 290.312409 195.710679 
L 290.964088 195.036893 
L 291.615766 196.470705 
L 292.267445 197.140266 
L 292.919124 197.249802 
L 294.222482 200.611231 
L 294.874161 199.913383 
L 295.525839 198.464868 
L 296.177518 198.401698 
L 296.829197 197.571708 
L 297.480876 196.024641 
L 298.132555 195.964315 
L 298.784234 196.692473 
L 299.435912 198.534179 
L 300.087591 199.323191 
L 300.73927 198.961639 
L 301.390949 196.257213 
L 302.042628 195.17768 
L 302.694307 197.122811 
L 303.997664 198.402166 
L 304.649343 199.560412 
L 305.301022 199.684262 
L 305.952701 199.286124 
L 306.60438 199.435618 
L 307.256058 197.112067 
L 307.907737 195.559559 
L 309.211095 199.414901 
L 310.514453 199.695577 
L 311.166131 199.262736 
L 311.81781 196.640091 
L 312.469489 195.361671 
L 313.121168 195.852507 
L 313.772847 196.679952 
L 314.424526 198.251092 
L 315.076204 198.500459 
L 315.727883 198.469928 
L 316.379562 199.494953 
L 317.031241 198.810327 
L 318.334599 196.30396 
L 318.986277 196.63231 
L 319.637956 197.665611 
L 320.289635 197.455194 
L 321.592993 198.454621 
L 322.244672 197.300411 
L 322.89635 195.550599 
L 323.548029 194.427148 
L 324.199708 195.145498 
L 324.851387 197.285822 
L 325.503066 198.630796 
L 326.154745 199.094049 
L 326.806423 198.626501 
L 327.458102 197.068247 
L 328.109781 196.212283 
L 328.76146 195.690316 
L 330.064818 198.649383 
L 330.716496 200.526013 
L 331.368175 200.369704 
L 332.019854 199.779786 
L 332.671533 199.5196 
L 333.974891 195.217802 
L 334.626569 195.177598 
L 335.278248 197.218979 
L 335.929927 198.885431 
L 336.581606 198.395999 
L 337.233285 197.161663 
L 337.884964 198.458157 
L 338.536642 196.557559 
L 339.188321 194.12474 
L 339.84 195.628041 
L 340.491679 197.535982 
L 341.143358 198.538626 
L 341.795036 198.977616 
L 342.446715 198.934774 
L 343.098394 199.643998 
L 343.750073 198.684386 
L 345.053431 195.194159 
L 345.705109 195.905256 
L 346.356788 198.650369 
L 347.008467 198.333849 
L 347.660146 198.77322 
L 348.311825 198.712421 
L 349.615182 194.72797 
L 350.266861 194.701564 
L 350.91854 197.087184 
L 351.570219 197.575393 
L 352.221898 198.780649 
L 352.873577 198.728411 
L 353.525255 197.386832 
L 354.176934 197.591632 
L 354.828613 195.768417 
L 355.480292 194.729309 
L 356.78365 198.600498 
L 357.435328 199.866353 
L 358.087007 200.49048 
L 359.390365 198.108476 
L 360.042044 195.878254 
L 360.693723 195.148899 
L 362.648759 199.485241 
L 363.300438 200.114761 
L 363.952117 198.873193 
L 364.603796 198.007497 
L 365.255474 196.850182 
L 365.907153 195.455468 
L 366.558832 195.843022 
L 367.210511 197.786093 
L 367.86219 198.802354 
L 368.513869 198.564096 
L 369.165547 199.769248 
L 369.817226 198.72472 
L 370.468905 197.425974 
L 371.120584 195.549636 
L 371.772263 196.452007 
L 372.423942 199.443625 
L 373.07562 197.613831 
L 373.727299 197.971125 
L 374.378978 199.938224 
L 375.030657 198.716162 
L 375.682336 197.113048 
L 376.334015 196.602684 
L 377.637372 197.639031 
L 378.289051 198.177618 
L 379.592409 200.520321 
L 380.244088 198.956986 
L 380.895766 197.066898 
L 381.547445 194.687715 
L 382.199124 194.306989 
L 382.850803 197.086289 
L 383.502482 197.782228 
L 385.457518 196.366816 
L 386.109197 195.102994 
L 386.760876 194.313731 
L 387.412555 196.199853 
L 388.064234 196.719284 
L 388.715912 198.34245 
L 389.367591 199.413475 
L 390.01927 198.963878 
L 390.670949 199.457317 
L 391.322628 198.909197 
L 391.974307 198.922923 
L 392.625985 198.548451 
L 393.277664 198.359421 
L 394.581022 198.406479 
L 395.88438 199.823036 
L 397.187737 197.543996 
L 397.839416 198.172925 
L 398.491095 198.070627 
L 399.794453 197.583845 
L 401.09781 196.489674 
L 401.749489 195.281285 
L 402.401168 193.490162 
L 403.052847 193.131422 
L 403.704526 195.611151 
L 404.356204 195.759646 
L 405.007883 194.844386 
L 405.659562 196.87787 
L 406.311241 198.337476 
L 406.96292 196.643847 
L 407.614599 196.243619 
L 408.266277 198.236883 
L 408.917956 199.100086 
L 409.569635 198.690933 
L 410.872993 201.859979 
L 412.17635 199.23555 
L 414.131387 196.146659 
L 414.783066 194.597269 
L 415.434745 194.75176 
L 416.086423 195.969034 
L 416.738102 194.538945 
L 417.389781 194.431933 
L 418.04146 196.400869 
L 418.693139 197.858998 
L 419.344818 199.015062 
L 419.996496 201.521192 
L 420.648175 202.599553 
L 421.299854 200.113859 
L 421.951533 199.81883 
L 422.603212 199.827169 
L 423.254891 198.584482 
L 423.906569 198.055297 
L 424.558248 197.794025 
L 425.209927 197.343018 
L 425.861606 196.204778 
L 426.513285 197.178391 
L 427.164964 198.63939 
L 427.816642 197.473396 
L 428.468321 195.238361 
L 429.771679 197.107717 
L 430.423358 194.925792 
L 431.075036 195.668767 
L 431.726715 197.487535 
L 432.378394 197.489104 
L 433.681752 196.302433 
L 434.333431 196.546304 
L 434.985109 196.95265 
L 435.636788 196.255967 
L 436.288467 196.245122 
L 436.940146 197.555871 
L 437.591825 197.927055 
L 438.243504 197.558247 
L 438.895182 197.856834 
L 440.850219 200.998138 
L 441.501898 200.148395 
L 442.153577 199.559166 
L 442.805255 198.630075 
L 443.456934 198.236885 
L 444.108613 197.571783 
L 444.760292 196.137439 
L 445.411971 195.916759 
L 446.06365 194.165131 
L 447.367007 194.482273 
L 448.018686 194.40864 
L 448.670365 196.198012 
L 449.322044 197.604115 
L 449.973723 199.437925 
L 450.625401 200.479965 
L 451.27708 199.297699 
L 451.928759 198.497815 
L 452.580438 200.302814 
L 454.535474 200.807284 
L 455.187153 199.388176 
L 455.838832 197.145884 
L 456.490511 195.519632 
L 457.14219 194.680048 
L 457.793869 194.870199 
L 458.445547 195.795831 
L 459.097226 195.583159 
L 460.400584 195.946448 
L 461.052263 196.354178 
L 461.703942 197.811426 
L 462.35562 197.280011 
L 463.007299 195.666212 
L 463.658978 198.103313 
L 464.310657 197.461476 
L 464.962336 196.245648 
L 465.614015 197.666137 
L 466.265693 195.981366 
L 466.917372 195.494697 
L 467.569051 196.439858 
L 468.22073 196.613195 
L 468.872409 195.998061 
L 469.524088 196.787646 
L 470.175766 198.470488 
L 470.827445 198.975598 
L 471.479124 199.877944 
L 472.130803 198.500042 
L 472.782482 196.405201 
L 473.434161 198.460419 
L 474.085839 198.968892 
L 474.737518 197.829283 
L 475.389197 198.7624 
L 476.040876 197.858781 
L 476.692555 196.597646 
L 477.344234 194.483458 
L 477.995912 194.466809 
L 478.647591 196.839913 
L 480.602628 198.777185 
L 481.254307 199.917051 
L 481.905985 199.651013 
L 482.557664 199.202487 
L 483.209343 200.208007 
L 483.861022 199.465871 
L 485.16438 201.649669 
L 485.816058 197.769594 
L 486.467737 197.663068 
L 487.119416 198.350973 
L 487.771095 194.034364 
L 488.422774 193.616513 
L 489.074453 195.42531 
L 489.726131 195.544404 
L 491.681168 196.936016 
L 492.332847 198.100668 
L 492.984526 198.643564 
L 493.636204 197.405254 
L 494.287883 197.298278 
L 494.939562 198.828911 
L 495.591241 198.786319 
L 496.24292 198.036603 
L 496.894599 198.014258 
L 497.546277 197.821308 
L 498.197956 197.453589 
L 498.849635 196.602474 
L 499.501314 196.099006 
L 500.804672 198.36435 
L 501.45635 199.949359 
L 502.108029 200.899025 
L 502.759708 200.668992 
L 503.411387 198.496462 
L 504.063066 197.39608 
L 504.714745 199.491718 
L 505.366423 200.48354 
L 506.018102 200.898152 
L 506.669781 199.727387 
L 507.32146 197.291372 
L 507.973139 197.066932 
L 509.276496 196.363005 
L 510.579854 196.056928 
L 511.231533 196.076206 
L 511.883212 196.21488 
L 513.186569 196.84053 
L 514.489927 197.875038 
L 516.444964 199.910863 
L 518.4 201.905668 
L 518.4 201.905668 
" style="fill:none;stroke:#ff0000;stroke-linecap:square;stroke-width:2;"/>
   </g>
   <g id="patch_3">
    <path d="M 72 320.4 
L 72 43.2 
" style="fill:none;stroke:#000000;stroke-linecap:square;stroke-linejoin:miter;stroke-width:0.8;"/>
   </g>
   <g id="patch_4">
    <path d="M 518.4 320.4 
L 518.4 43.2 
" style="fill:none;stroke:#000000;stroke-linecap:square;stroke-linejoin:miter;stroke-width:0.8;"/>
   </g>
   <g id="patch_5">
    <path d="M 72 320.4 
L 518.4 320.4 
" style="fill:none;stroke:#000000;stroke-linecap:square;stroke-linejoin:miter;stroke-width:0.8;"/>
   </g>
   <g id="patch_6">
    <path d="M 72 43.2 
L 518.4 43.2 
" style="fill:none;stroke:#000000;stroke-linecap:square;stroke-linejoin:miter;stroke-width:0.8;"/>
   </g>
   <g id="text_16">
    <!-- Front Propogation Speed -->
    <g transform="translate(172.245312 37.2)scale(0.2 -0.2)">
     <defs>
      <path d="M 628 4666 
L 3309 4666 
L 3309 4134 
L 1259 4134 
L 1259 2759 
L 3109 2759 
L 3109 2228 
L 1259 2228 
L 1259 0 
L 628 0 
L 628 4666 
z
" id="DejaVuSans-46" transform="scale(0.015625)"/>
      <path d="M 2631 2963 
Q 2534 3019 2420 3045 
Q 2306 3072 2169 3072 
Q 1681 3072 1420 2755 
Q 1159 2438 1159 1844 
L 1159 0 
L 581 0 
L 581 3500 
L 1159 3500 
L 1159 2956 
Q 1341 3275 1631 3429 
Q 1922 3584 2338 3584 
Q 2397 3584 2469 3576 
Q 2541 3569 2628 3553 
L 2631 2963 
z
" id="DejaVuSans-72" transform="scale(0.015625)"/>
      <path d="M 1172 4494 
L 1172 3500 
L 2356 3500 
L 2356 3053 
L 1172 3053 
L 1172 1153 
Q 1172 725 1289 603 
Q 1406 481 1766 481 
L 2356 481 
L 2356 0 
L 1766 0 
Q 1100 0 847 248 
Q 594 497 594 1153 
L 594 3053 
L 172 3053 
L 172 3500 
L 594 3500 
L 594 4494 
L 1172 4494 
z
" id="DejaVuSans-74" transform="scale(0.015625)"/>
      <path d="M 1259 4147 
L 1259 2394 
L 2053 2394 
Q 2494 2394 2734 2622 
Q 2975 2850 2975 3272 
Q 2975 3691 2734 3919 
Q 2494 4147 2053 4147 
L 1259 4147 
z
M 628 4666 
L 2053 4666 
Q 2838 4666 3239 4311 
Q 3641 3956 3641 3272 
Q 3641 2581 3239 2228 
Q 2838 1875 2053 1875 
L 1259 1875 
L 1259 0 
L 628 0 
L 628 4666 
z
" id="DejaVuSans-50" transform="scale(0.015625)"/>
      <path d="M 2906 1791 
Q 2906 2416 2648 2759 
Q 2391 3103 1925 3103 
Q 1463 3103 1205 2759 
Q 947 2416 947 1791 
Q 947 1169 1205 825 
Q 1463 481 1925 481 
Q 2391 481 2648 825 
Q 2906 1169 2906 1791 
z
M 3481 434 
Q 3481 -459 3084 -895 
Q 2688 -1331 1869 -1331 
Q 1566 -1331 1297 -1286 
Q 1028 -1241 775 -1147 
L 775 -588 
Q 1028 -725 1275 -790 
Q 1522 -856 1778 -856 
Q 2344 -856 2625 -561 
Q 2906 -266 2906 331 
L 2906 616 
Q 2728 306 2450 153 
Q 2172 0 1784 0 
Q 1141 0 747 490 
Q 353 981 353 1791 
Q 353 2603 747 3093 
Q 1141 3584 1784 3584 
Q 2172 3584 2450 3431 
Q 2728 3278 2906 2969 
L 2906 3500 
L 3481 3500 
L 3481 434 
z
" id="DejaVuSans-67" transform="scale(0.015625)"/>
      <path d="M 2194 1759 
Q 1497 1759 1228 1600 
Q 959 1441 959 1056 
Q 959 750 1161 570 
Q 1363 391 1709 391 
Q 2188 391 2477 730 
Q 2766 1069 2766 1631 
L 2766 1759 
L 2194 1759 
z
M 3341 1997 
L 3341 0 
L 2766 0 
L 2766 531 
Q 2569 213 2275 61 
Q 1981 -91 1556 -91 
Q 1019 -91 701 211 
Q 384 513 384 1019 
Q 384 1609 779 1909 
Q 1175 2209 1959 2209 
L 2766 2209 
L 2766 2266 
Q 2766 2663 2505 2880 
Q 2244 3097 1772 3097 
Q 1472 3097 1187 3025 
Q 903 2953 641 2809 
L 641 3341 
Q 956 3463 1253 3523 
Q 1550 3584 1831 3584 
Q 2591 3584 2966 3190 
Q 3341 2797 3341 1997 
z
" id="DejaVuSans-61" transform="scale(0.015625)"/>
     </defs>
     <use xlink:href="#DejaVuSans-46"/>
     <use x="50.269531" xlink:href="#DejaVuSans-72"/>
     <use x="89.132812" xlink:href="#DejaVuSans-6f"/>
     <use x="150.314453" xlink:href="#DejaVuSans-6e"/>
     <use x="213.693359" xlink:href="#DejaVuSans-74"/>
     <use x="252.902344" xlink:href="#DejaVuSans-20"/>
     <use x="284.689453" xlink:href="#DejaVuSans-50"/>
     <use x="343.242188" xlink:href="#DejaVuSans-72"/>
     <use x="382.105469" xlink:href="#DejaVuSans-6f"/>
     <use x="443.287109" xlink:href="#DejaVuSans-70"/>
     <use x="506.763672" xlink:href="#DejaVuSans-6f"/>
     <use x="567.945312" xlink:href="#DejaVuSans-67"/>
     <use x="631.421875" xlink:href="#DejaVuSans-61"/>
     <use x="692.701172" xlink:href="#DejaVuSans-74"/>
     <use x="731.910156" xlink:href="#DejaVuSans-69"/>
     <use x="759.693359" xlink:href="#DejaVuSans-6f"/>
     <use x="820.875" xlink:href="#DejaVuSans-6e"/>
     <use x="884.253906" xlink:href="#DejaVuSans-20"/>
     <use x="916.041016" xlink:href="#DejaVuSans-53"/>
     <use x="979.517578" xlink:href="#DejaVuSans-70"/>
     <use x="1042.994141" xlink:href="#DejaVuSans-65"/>
     <use x="1104.517578" xlink:href="#DejaVuSans-65"/>
     <use x="1166.041016" xlink:href="#DejaVuSans-64"/>
    </g>
   </g>
   <g id="legend_1">
    <g id="patch_7">
     <path d="M 325.967812 111.175687 
L 508.6 111.175687 
Q 511.4 111.175687 511.4 108.375687 
L 511.4 53 
Q 511.4 50.2 508.6 50.2 
L 325.967812 50.2 
Q 323.167812 50.2 323.167812 53 
L 323.167812 108.375687 
Q 323.167812 111.175687 325.967812 111.175687 
z
" style="fill:#ffffff;opacity:0.8;stroke:#cccccc;stroke-linejoin:miter;"/>
    </g>
    <g id="line2d_16">
     <path d="M 328.767812 61.537812 
L 356.767812 61.537812 
" style="fill:none;stroke:#ff0000;stroke-linecap:square;stroke-width:2;"/>
    </g>
    <g id="line2d_17"/>
    <g id="text_17">
     <!-- Front speed -->
     <g transform="translate(367.967812 66.437812)scale(0.14 -0.14)">
      <use xlink:href="#DejaVuSans-46"/>
      <use x="50.269531" xlink:href="#DejaVuSans-72"/>
      <use x="89.132812" xlink:href="#DejaVuSans-6f"/>
      <use x="150.314453" xlink:href="#DejaVuSans-6e"/>
      <use x="213.693359" xlink:href="#DejaVuSans-74"/>
      <use x="252.902344" xlink:href="#DejaVuSans-20"/>
      <use x="284.689453" xlink:href="#DejaVuSans-73"/>
      <use x="336.789062" xlink:href="#DejaVuSans-70"/>
      <use x="400.265625" xlink:href="#DejaVuSans-65"/>
      <use x="461.789062" xlink:href="#DejaVuSans-65"/>
      <use x="523.3125" xlink:href="#DejaVuSans-64"/>
     </g>
    </g>
    <g id="line2d_18">
     <path d="M 328.767812 91.381437 
L 356.767812 91.381437 
" style="fill:none;stroke:#000000;stroke-dasharray:5.55,2.4;stroke-dashoffset:0;stroke-width:1.5;"/>
    </g>
    <g id="line2d_19"/>
    <g id="text_18">
     <!-- Steady state -->
     <g transform="translate(367.967812 86.987187)scale(0.14 -0.14)">
      <defs>
       <path d="M 2059 -325 
Q 1816 -950 1584 -1140 
Q 1353 -1331 966 -1331 
L 506 -1331 
L 506 -850 
L 844 -850 
Q 1081 -850 1212 -737 
Q 1344 -625 1503 -206 
L 1606 56 
L 191 3500 
L 800 3500 
L 1894 763 
L 2988 3500 
L 3597 3500 
L 2059 -325 
z
" id="DejaVuSans-79" transform="scale(0.015625)"/>
      </defs>
      <use xlink:href="#DejaVuSans-53"/>
      <use x="63.476562" xlink:href="#DejaVuSans-74"/>
      <use x="102.685547" xlink:href="#DejaVuSans-65"/>
      <use x="164.208984" xlink:href="#DejaVuSans-61"/>
      <use x="225.488281" xlink:href="#DejaVuSans-64"/>
      <use x="288.964844" xlink:href="#DejaVuSans-79"/>
      <use x="348.144531" xlink:href="#DejaVuSans-20"/>
      <use x="379.931641" xlink:href="#DejaVuSans-73"/>
      <use x="432.03125" xlink:href="#DejaVuSans-74"/>
      <use x="471.240234" xlink:href="#DejaVuSans-61"/>
      <use x="532.519531" xlink:href="#DejaVuSans-74"/>
      <use x="571.728516" xlink:href="#DejaVuSans-65"/>
     </g>
     <!-- speed = 0.79 mm/s -->
     <g transform="translate(367.967812 102.664125)scale(0.14 -0.14)">
      <defs>
       <path d="M 678 2906 
L 4684 2906 
L 4684 2381 
L 678 2381 
L 678 2906 
z
M 678 1631 
L 4684 1631 
L 4684 1100 
L 678 1100 
L 678 1631 
z
" id="DejaVuSans-3d" transform="scale(0.015625)"/>
       <path d="M 703 97 
L 703 672 
Q 941 559 1184 500 
Q 1428 441 1663 441 
Q 2288 441 2617 861 
Q 2947 1281 2994 2138 
Q 2813 1869 2534 1725 
Q 2256 1581 1919 1581 
Q 1219 1581 811 2004 
Q 403 2428 403 3163 
Q 403 3881 828 4315 
Q 1253 4750 1959 4750 
Q 2769 4750 3195 4129 
Q 3622 3509 3622 2328 
Q 3622 1225 3098 567 
Q 2575 -91 1691 -91 
Q 1453 -91 1209 -44 
Q 966 3 703 97 
z
M 1959 2075 
Q 2384 2075 2632 2365 
Q 2881 2656 2881 3163 
Q 2881 3666 2632 3958 
Q 2384 4250 1959 4250 
Q 1534 4250 1286 3958 
Q 1038 3666 1038 3163 
Q 1038 2656 1286 2365 
Q 1534 2075 1959 2075 
z
" id="DejaVuSans-39" transform="scale(0.015625)"/>
      </defs>
      <use xlink:href="#DejaVuSans-73"/>
      <use x="52.099609" xlink:href="#DejaVuSans-70"/>
      <use x="115.576172" xlink:href="#DejaVuSans-65"/>
      <use x="177.099609" xlink:href="#DejaVuSans-65"/>
      <use x="238.623047" xlink:href="#DejaVuSans-64"/>
      <use x="302.099609" xlink:href="#DejaVuSans-20"/>
      <use x="333.886719" xlink:href="#DejaVuSans-3d"/>
      <use x="417.675781" xlink:href="#DejaVuSans-20"/>
      <use x="449.462891" xlink:href="#DejaVuSans-30"/>
      <use x="513.085938" xlink:href="#DejaVuSans-2e"/>
      <use x="544.873047" xlink:href="#DejaVuSans-37"/>
      <use x="608.496094" xlink:href="#DejaVuSans-39"/>
      <use x="672.119141" xlink:href="#DejaVuSans-20"/>
      <use x="703.90625" xlink:href="#DejaVuSans-6d"/>
      <use x="801.318359" xlink:href="#DejaVuSans-6d"/>
      <use x="898.730469" xlink:href="#DejaVuSans-2f"/>
      <use x="932.421875" xlink:href="#DejaVuSans-73"/>
     </g>
    </g>
   </g>
  </g>
 </g>
 <defs>
  <clipPath id="p1cdc6c8d22">
   <rect height="277.2" width="446.4" x="72" y="43.2"/>
  </clipPath>
 </defs>
</svg>
