<?xml version="1.0" encoding="utf-8" standalone="no"?>
<!DOCTYPE svg PUBLIC "-//W3C//DTD SVG 1.1//EN"
  "http://www.w3.org/Graphics/SVG/1.1/DTD/svg11.dtd">
<svg height="360pt" version="1.1" viewBox="0 0 576 360" width="576pt" xmlns="http://www.w3.org/2000/svg" xmlns:xlink="http://www.w3.org/1999/xlink">
 <metadata>
  <rdf:RDF xmlns:cc="http://creativecommons.org/ns#" xmlns:dc="http://purl.org/dc/elements/1.1/" xmlns:rdf="http://www.w3.org/1999/02/22-rdf-syntax-ns#">
   <cc:Work>
    <dc:type rdf:resource="http://purl.org/dc/dcmitype/StillImage"/>
    <dc:date>2022-06-30T14:11:24.207039</dc:date>
    <dc:format>image/svg+xml</dc:format>
    <dc:creator>
     <cc:Agent>
      <dc:title>Matplotlib v3.4.3, https://matplotlib.org/</dc:title>
     </cc:Agent>
    </dc:creator>
   </cc:Work>
  </rdf:RDF>
 </metadata>
 <defs>
  <style type="text/css">*{stroke-linecap:butt;stroke-linejoin:round;}</style>
 </defs>
 <g id="figure_1">
  <g id="patch_1">
   <path d="M 0 360 
L 576 360 
L 576 0 
L 0 0 
z
" style="fill:#ffffff;"/>
  </g>
  <g id="axes_1">
   <g id="patch_2">
    <path d="M 72 320.4 
L 518.4 320.4 
L 518.4 43.2 
L 72 43.2 
z
" style="fill:#ffffff;"/>
   </g>
   <g id="PolyCollection_1">
    <defs>
     <path d="M 72 -168.012938 
L 72 -173.104045 
L 72.604878 -173.104045 
L 73.209756 -173.104045 
L 73.814634 -173.104045 
L 74.419512 -173.104045 
L 75.02439 -173.104045 
L 75.629268 -173.104045 
L 76.234146 -173.104045 
L 76.839024 -173.104045 
L 77.443902 -173.104045 
L 78.04878 -173.104045 
L 78.653659 -173.104045 
L 79.258537 -173.104045 
L 79.863415 -173.104045 
L 80.468293 -173.104045 
L 81.073171 -173.104045 
L 81.678049 -173.104045 
L 82.282927 -173.104045 
L 82.887805 -173.104045 
L 83.492683 -173.104045 
L 84.097561 -173.104045 
L 84.702439 -173.104045 
L 85.307317 -173.104045 
L 85.912195 -173.104045 
L 86.517073 -173.104045 
L 87.121951 -173.104045 
L 87.726829 -173.104045 
L 88.331707 -173.104045 
L 88.936585 -173.104045 
L 89.541463 -173.104045 
L 90.146341 -173.104045 
L 90.75122 -173.104045 
L 91.356098 -173.104045 
L 91.960976 -173.104045 
L 92.565854 -173.104045 
L 93.170732 -173.104045 
L 93.77561 -173.104045 
L 94.380488 -173.104045 
L 94.985366 -173.104045 
L 95.590244 -173.104045 
L 96.195122 -173.104045 
L 96.8 -173.104045 
L 97.404878 -173.104045 
L 98.009756 -173.104045 
L 98.614634 -173.104045 
L 99.219512 -173.104045 
L 99.82439 -173.104045 
L 100.429268 -173.104045 
L 101.034146 -173.104045 
L 101.639024 -173.104045 
L 102.243902 -173.104045 
L 102.84878 -173.104045 
L 103.453659 -173.104045 
L 104.058537 -173.104045 
L 104.663415 -173.104045 
L 105.268293 -173.104045 
L 105.873171 -173.104045 
L 106.478049 -173.104045 
L 107.082927 -173.104045 
L 107.687805 -173.104045 
L 108.292683 -173.104045 
L 108.897561 -173.104045 
L 109.502439 -173.104045 
L 110.107317 -173.104045 
L 110.712195 -173.104045 
L 111.317073 -173.104045 
L 111.921951 -173.104045 
L 112.526829 -173.104045 
L 113.131707 -173.104045 
L 113.736585 -173.104045 
L 114.341463 -173.104045 
L 114.946341 -173.104045 
L 115.55122 -173.104045 
L 116.156098 -173.104045 
L 116.760976 -173.104045 
L 117.365854 -173.104045 
L 117.970732 -173.104045 
L 118.57561 -173.104045 
L 119.180488 -173.104045 
L 119.785366 -173.104045 
L 120.390244 -173.104045 
L 120.995122 -173.104045 
L 121.6 -173.104045 
L 122.204878 -173.104045 
L 122.809756 -173.104045 
L 123.414634 -173.104045 
L 124.019512 -173.104045 
L 124.62439 -173.104045 
L 125.229268 -173.104045 
L 125.834146 -173.104045 
L 126.439024 -173.104045 
L 127.043902 -173.104045 
L 127.64878 -173.104045 
L 128.253659 -173.104045 
L 128.858537 -173.104045 
L 129.463415 -173.104045 
L 130.068293 -173.104045 
L 130.673171 -173.104045 
L 131.278049 -173.104045 
L 131.882927 -173.104045 
L 132.487805 -173.104045 
L 133.092683 -173.104045 
L 133.697561 -173.104045 
L 134.302439 -173.104045 
L 134.907317 -173.104045 
L 135.512195 -173.104045 
L 136.117073 -173.104045 
L 136.721951 -173.104045 
L 137.326829 -173.104045 
L 137.931707 -173.104045 
L 138.536585 -173.104045 
L 139.141463 -173.104045 
L 139.746341 -173.104045 
L 140.35122 -173.104045 
L 140.956098 -173.104045 
L 141.560976 -173.104045 
L 142.165854 -173.104045 
L 142.770732 -173.104045 
L 143.37561 -173.104045 
L 143.980488 -173.104045 
L 144.585366 -173.104045 
L 145.190244 -173.104045 
L 145.795122 -173.104045 
L 146.4 -173.104045 
L 147.004878 -173.104045 
L 147.609756 -173.104045 
L 148.214634 -173.104045 
L 148.819512 -173.104045 
L 149.42439 -173.104045 
L 150.029268 -173.104045 
L 150.634146 -173.104045 
L 151.239024 -173.104045 
L 151.843902 -173.104045 
L 152.44878 -173.104045 
L 153.053659 -173.104045 
L 153.658537 -173.104045 
L 154.263415 -173.104045 
L 154.868293 -173.104045 
L 155.473171 -173.104045 
L 156.078049 -173.104045 
L 156.682927 -173.104045 
L 157.287805 -173.104045 
L 157.892683 -173.104045 
L 158.497561 -173.104045 
L 159.102439 -173.104045 
L 159.707317 -173.104045 
L 160.312195 -173.104045 
L 160.917073 -173.104045 
L 161.521951 -173.104045 
L 162.126829 -173.104045 
L 162.731707 -173.104045 
L 163.336585 -173.104045 
L 163.941463 -173.104045 
L 164.546341 -173.104045 
L 165.15122 -173.104045 
L 165.756098 -173.104045 
L 166.360976 -173.104045 
L 166.965854 -173.104045 
L 167.570732 -173.104045 
L 168.17561 -173.104045 
L 168.780488 -173.104045 
L 169.385366 -173.104045 
L 169.990244 -173.104045 
L 170.595122 -173.104045 
L 171.2 -173.104045 
L 171.804878 -173.104045 
L 172.409756 -173.104045 
L 173.014634 -173.104045 
L 173.619512 -173.104045 
L 174.22439 -173.104045 
L 174.829268 -173.104045 
L 175.434146 -173.104045 
L 176.039024 -173.104045 
L 176.643902 -173.104045 
L 177.24878 -173.104045 
L 177.853659 -173.104045 
L 178.458537 -173.104045 
L 179.063415 -173.104045 
L 179.668293 -173.104045 
L 180.273171 -173.104045 
L 180.878049 -173.104045 
L 181.482927 -173.104045 
L 182.087805 -173.104045 
L 182.692683 -173.104045 
L 183.297561 -173.104045 
L 183.902439 -173.104045 
L 184.507317 -173.104045 
L 185.112195 -173.104045 
L 185.717073 -173.104045 
L 186.321951 -173.104045 
L 186.926829 -173.104045 
L 187.531707 -173.104045 
L 188.136585 -173.104045 
L 188.741463 -173.104045 
L 189.346341 -173.104045 
L 189.95122 -173.104045 
L 190.556098 -173.104045 
L 191.160976 -173.104045 
L 191.765854 -173.104045 
L 192.370732 -173.104045 
L 192.97561 -173.104045 
L 193.580488 -173.104045 
L 194.185366 -173.104045 
L 194.790244 -173.104045 
L 195.395122 -173.104045 
L 196 -173.104045 
L 196.604878 -173.104045 
L 197.209756 -173.104045 
L 197.814634 -173.104045 
L 198.419512 -173.104045 
L 199.02439 -173.104045 
L 199.629268 -173.104045 
L 200.234146 -173.104045 
L 200.839024 -173.104045 
L 201.443902 -173.104045 
L 202.04878 -173.104045 
L 202.653659 -173.104045 
L 203.258537 -173.104045 
L 203.863415 -173.104045 
L 204.468293 -173.104045 
L 205.073171 -173.104045 
L 205.678049 -173.104045 
L 206.282927 -173.104045 
L 206.887805 -173.104045 
L 207.492683 -173.104045 
L 208.097561 -173.104045 
L 208.702439 -173.104045 
L 209.307317 -173.104045 
L 209.912195 -173.104045 
L 210.517073 -173.104045 
L 211.121951 -173.104045 
L 211.726829 -173.104045 
L 212.331707 -173.104045 
L 212.936585 -173.104045 
L 213.541463 -173.104045 
L 214.146341 -173.104045 
L 214.75122 -173.104045 
L 215.356098 -173.104045 
L 215.960976 -173.104045 
L 216.565854 -173.104045 
L 217.170732 -173.104045 
L 217.77561 -173.104045 
L 218.380488 -173.104045 
L 218.985366 -173.104045 
L 219.590244 -173.104045 
L 220.195122 -173.104045 
L 220.8 -173.104045 
L 221.404878 -173.104045 
L 222.009756 -173.104045 
L 222.614634 -173.104045 
L 223.219512 -173.104045 
L 223.82439 -173.104045 
L 224.429268 -173.104045 
L 225.034146 -173.104045 
L 225.639024 -173.104045 
L 226.243902 -173.104045 
L 226.84878 -173.104045 
L 227.453659 -173.104045 
L 228.058537 -173.104045 
L 228.663415 -173.104045 
L 229.268293 -173.104045 
L 229.873171 -173.104045 
L 230.478049 -173.104045 
L 231.082927 -173.104045 
L 231.687805 -173.104045 
L 232.292683 -173.104045 
L 232.897561 -173.104045 
L 233.502439 -173.104045 
L 234.107317 -173.104045 
L 234.712195 -173.104045 
L 235.317073 -173.104045 
L 235.921951 -173.104045 
L 236.526829 -173.104045 
L 237.131707 -173.104045 
L 237.736585 -173.104045 
L 238.341463 -173.104045 
L 238.946341 -173.104045 
L 239.55122 -173.104045 
L 240.156098 -173.104045 
L 240.760976 -173.104045 
L 241.365854 -173.104045 
L 241.970732 -173.104045 
L 242.57561 -173.104045 
L 243.180488 -173.104045 
L 243.785366 -173.104045 
L 244.390244 -173.104045 
L 244.995122 -173.104045 
L 245.6 -173.104045 
L 246.204878 -173.104045 
L 246.809756 -173.104045 
L 247.414634 -173.104045 
L 248.019512 -173.104045 
L 248.62439 -173.104045 
L 249.229268 -173.104045 
L 249.834146 -173.104045 
L 250.439024 -173.104045 
L 251.043902 -173.104045 
L 251.64878 -173.104045 
L 252.253659 -173.104045 
L 252.858537 -173.104045 
L 253.463415 -173.104045 
L 254.068293 -173.104045 
L 254.673171 -173.104045 
L 255.278049 -173.104045 
L 255.882927 -173.104045 
L 256.487805 -173.104045 
L 257.092683 -173.104045 
L 257.697561 -173.104045 
L 258.302439 -173.104045 
L 258.907317 -173.104045 
L 259.512195 -173.104045 
L 260.117073 -173.104045 
L 260.721951 -173.104045 
L 261.326829 -173.104045 
L 261.931707 -173.104045 
L 262.536585 -173.104045 
L 263.141463 -173.104045 
L 263.746341 -173.104045 
L 264.35122 -173.104045 
L 264.956098 -173.104045 
L 265.560976 -173.104045 
L 266.165854 -173.104045 
L 266.770732 -173.104045 
L 267.37561 -173.104045 
L 267.980488 -173.104045 
L 268.585366 -173.104045 
L 269.190244 -173.104045 
L 269.795122 -173.104045 
L 270.4 -173.104045 
L 271.004878 -173.104045 
L 271.609756 -173.104045 
L 272.214634 -173.104045 
L 272.819512 -173.104045 
L 273.42439 -173.104045 
L 274.029268 -173.104045 
L 274.634146 -173.104045 
L 275.239024 -173.104045 
L 275.843902 -173.104045 
L 276.44878 -173.104045 
L 277.053659 -173.104045 
L 277.658537 -173.104045 
L 278.263415 -173.104045 
L 278.868293 -173.104045 
L 279.473171 -173.104045 
L 280.078049 -173.104045 
L 280.682927 -173.104045 
L 281.287805 -173.104045 
L 281.892683 -173.104045 
L 282.497561 -173.104045 
L 283.102439 -173.104045 
L 283.707317 -173.104045 
L 284.312195 -173.104045 
L 284.917073 -173.104045 
L 285.521951 -173.104045 
L 286.126829 -173.104045 
L 286.731707 -173.104045 
L 287.336585 -173.104045 
L 287.941463 -173.104045 
L 288.546341 -173.104045 
L 289.15122 -173.104045 
L 289.756098 -173.104045 
L 290.360976 -173.104045 
L 290.965854 -173.104045 
L 291.570732 -173.104045 
L 292.17561 -173.104045 
L 292.780488 -173.104045 
L 293.385366 -173.104045 
L 293.990244 -173.104045 
L 294.595122 -173.104045 
L 295.2 -173.104045 
L 295.804878 -173.104045 
L 296.409756 -173.104045 
L 297.014634 -173.104045 
L 297.619512 -173.104045 
L 298.22439 -173.104045 
L 298.829268 -173.104045 
L 299.434146 -173.104045 
L 300.039024 -173.104045 
L 300.643902 -173.104045 
L 301.24878 -173.104045 
L 301.853659 -173.104045 
L 302.458537 -173.104045 
L 303.063415 -173.104045 
L 303.668293 -173.104045 
L 304.273171 -173.104045 
L 304.878049 -173.104045 
L 305.482927 -173.104045 
L 306.087805 -173.104045 
L 306.692683 -173.104045 
L 307.297561 -173.104045 
L 307.902439 -173.104045 
L 308.507317 -173.104045 
L 309.112195 -173.104045 
L 309.717073 -173.104045 
L 310.321951 -173.104045 
L 310.926829 -173.104045 
L 311.531707 -173.104045 
L 312.136585 -173.104045 
L 312.741463 -173.104045 
L 313.346341 -173.104045 
L 313.95122 -173.104045 
L 314.556098 -173.104045 
L 315.160976 -173.104045 
L 315.765854 -173.104045 
L 316.370732 -173.104045 
L 316.97561 -173.104045 
L 317.580488 -173.104045 
L 318.185366 -173.104045 
L 318.790244 -173.104045 
L 319.395122 -173.104045 
L 320 -173.104045 
L 320.604878 -173.104045 
L 321.209756 -173.104045 
L 321.814634 -173.104045 
L 322.419512 -173.104045 
L 323.02439 -173.104045 
L 323.629268 -173.104045 
L 324.234146 -173.104045 
L 324.839024 -173.104045 
L 325.443902 -173.104045 
L 326.04878 -173.104045 
L 326.653659 -173.104045 
L 327.258537 -173.104045 
L 327.863415 -173.104045 
L 328.468293 -173.104045 
L 329.073171 -173.104045 
L 329.678049 -173.104045 
L 330.282927 -173.104045 
L 330.887805 -173.104045 
L 331.492683 -173.104045 
L 332.097561 -173.104045 
L 332.702439 -173.104045 
L 333.307317 -173.104045 
L 333.912195 -173.104045 
L 334.517073 -173.104045 
L 335.121951 -173.104045 
L 335.726829 -173.104045 
L 336.331707 -173.104045 
L 336.936585 -173.104045 
L 337.541463 -173.104045 
L 338.146341 -173.104045 
L 338.75122 -173.104045 
L 339.356098 -173.104045 
L 339.960976 -173.104045 
L 340.565854 -173.104045 
L 341.170732 -173.104045 
L 341.77561 -173.104045 
L 342.380488 -173.104045 
L 342.985366 -173.104045 
L 343.590244 -173.104045 
L 344.195122 -173.104045 
L 344.8 -173.104045 
L 345.404878 -173.104045 
L 346.009756 -173.104045 
L 346.614634 -173.104045 
L 347.219512 -173.104045 
L 347.82439 -173.104045 
L 348.429268 -173.104045 
L 349.034146 -173.104045 
L 349.639024 -173.104045 
L 350.243902 -173.104045 
L 350.84878 -173.104045 
L 351.453659 -173.104045 
L 352.058537 -173.104045 
L 352.663415 -173.104045 
L 353.268293 -173.104045 
L 353.873171 -173.104045 
L 354.478049 -173.104045 
L 355.082927 -173.104045 
L 355.687805 -173.104045 
L 356.292683 -173.104045 
L 356.897561 -173.104045 
L 357.502439 -173.104045 
L 358.107317 -173.104045 
L 358.712195 -173.104045 
L 359.317073 -173.104045 
L 359.921951 -173.104045 
L 360.526829 -173.104045 
L 361.131707 -173.104045 
L 361.736585 -173.104045 
L 362.341463 -173.104045 
L 362.946341 -173.104045 
L 363.55122 -173.104045 
L 364.156098 -173.104045 
L 364.760976 -173.104045 
L 365.365854 -173.104045 
L 365.970732 -173.104045 
L 366.57561 -173.104045 
L 367.180488 -173.104045 
L 367.785366 -173.104045 
L 368.390244 -173.104045 
L 368.995122 -173.104045 
L 369.6 -173.104045 
L 370.204878 -173.104045 
L 370.809756 -173.104045 
L 371.414634 -173.104045 
L 372.019512 -173.104045 
L 372.62439 -173.104045 
L 373.229268 -173.104045 
L 373.834146 -173.104045 
L 374.439024 -173.104045 
L 375.043902 -173.104045 
L 375.64878 -173.104045 
L 376.253659 -173.104045 
L 376.858537 -173.104045 
L 377.463415 -173.104045 
L 378.068293 -173.104045 
L 378.673171 -173.104045 
L 379.278049 -173.104045 
L 379.882927 -173.104045 
L 380.487805 -173.104045 
L 381.092683 -173.104045 
L 381.697561 -173.104045 
L 382.302439 -173.104045 
L 382.907317 -173.104045 
L 383.512195 -173.104045 
L 384.117073 -173.104045 
L 384.721951 -173.104045 
L 385.326829 -173.104045 
L 385.931707 -173.104045 
L 386.536585 -173.104045 
L 387.141463 -173.104045 
L 387.746341 -173.104045 
L 388.35122 -173.104045 
L 388.956098 -173.104045 
L 389.560976 -173.104045 
L 390.165854 -173.104045 
L 390.770732 -173.104045 
L 391.37561 -173.104045 
L 391.980488 -173.104045 
L 392.585366 -173.104045 
L 393.190244 -173.104045 
L 393.795122 -173.104045 
L 394.4 -173.104045 
L 395.004878 -173.104045 
L 395.609756 -173.104045 
L 396.214634 -173.104045 
L 396.819512 -173.104045 
L 397.42439 -173.104045 
L 398.029268 -173.104045 
L 398.634146 -173.104045 
L 399.239024 -173.104045 
L 399.843902 -173.104045 
L 400.44878 -173.104045 
L 401.053659 -173.104045 
L 401.658537 -173.104045 
L 402.263415 -173.104045 
L 402.868293 -173.104045 
L 403.473171 -173.104045 
L 404.078049 -173.104045 
L 404.682927 -173.104045 
L 405.287805 -173.104045 
L 405.892683 -173.104045 
L 406.497561 -173.104045 
L 407.102439 -173.104045 
L 407.707317 -173.104045 
L 408.312195 -173.104045 
L 408.917073 -173.104045 
L 409.521951 -173.104045 
L 410.126829 -173.104045 
L 410.731707 -173.104045 
L 411.336585 -173.104045 
L 411.941463 -173.104045 
L 412.546341 -173.104045 
L 413.15122 -173.104045 
L 413.756098 -173.104045 
L 414.360976 -173.104045 
L 414.965854 -173.104045 
L 415.570732 -173.104045 
L 416.17561 -173.104045 
L 416.780488 -173.104045 
L 417.385366 -173.104045 
L 417.990244 -173.104045 
L 418.595122 -173.104045 
L 419.2 -173.104045 
L 419.804878 -173.104045 
L 420.409756 -173.104045 
L 421.014634 -173.104045 
L 421.619512 -173.104045 
L 422.22439 -173.104045 
L 422.829268 -173.104045 
L 423.434146 -173.104045 
L 424.039024 -173.104045 
L 424.643902 -173.104045 
L 425.24878 -173.104045 
L 425.853659 -173.104045 
L 426.458537 -173.104045 
L 427.063415 -173.104045 
L 427.668293 -173.104045 
L 428.273171 -173.104045 
L 428.878049 -173.104045 
L 429.482927 -173.104045 
L 430.087805 -173.104045 
L 430.692683 -173.104045 
L 431.297561 -173.104045 
L 431.902439 -173.104045 
L 432.507317 -173.104045 
L 433.112195 -173.104045 
L 433.717073 -173.104045 
L 434.321951 -173.104045 
L 434.926829 -173.104045 
L 435.531707 -173.104045 
L 436.136585 -173.104045 
L 436.741463 -173.104045 
L 437.346341 -173.104045 
L 437.95122 -173.104045 
L 438.556098 -173.104045 
L 439.160976 -173.104045 
L 439.765854 -173.104045 
L 440.370732 -173.104045 
L 440.97561 -173.104045 
L 441.580488 -173.104045 
L 442.185366 -173.104045 
L 442.790244 -173.104045 
L 443.395122 -173.104045 
L 444 -173.104045 
L 444.604878 -173.104045 
L 445.209756 -173.104045 
L 445.814634 -173.104045 
L 446.419512 -173.104045 
L 447.02439 -173.104045 
L 447.629268 -173.104045 
L 448.234146 -173.104045 
L 448.839024 -173.104045 
L 449.443902 -173.104045 
L 450.04878 -173.104045 
L 450.653659 -173.104045 
L 451.258537 -173.104045 
L 451.863415 -173.104045 
L 452.468293 -173.104045 
L 453.073171 -173.104045 
L 453.678049 -173.104045 
L 454.282927 -173.104045 
L 454.887805 -173.104045 
L 455.492683 -173.104045 
L 456.097561 -173.104045 
L 456.702439 -173.104045 
L 457.307317 -173.104045 
L 457.912195 -173.104045 
L 458.517073 -173.104045 
L 459.121951 -173.104045 
L 459.726829 -173.104045 
L 460.331707 -173.104045 
L 460.936585 -173.104045 
L 461.541463 -173.104045 
L 462.146341 -173.104045 
L 462.75122 -173.104045 
L 463.356098 -173.104045 
L 463.960976 -173.104045 
L 464.565854 -173.104045 
L 465.170732 -173.104045 
L 465.77561 -173.104045 
L 466.380488 -173.104045 
L 466.985366 -173.104045 
L 467.590244 -173.104045 
L 468.195122 -173.104045 
L 468.8 -173.104045 
L 469.404878 -173.104045 
L 470.009756 -173.104045 
L 470.614634 -173.104045 
L 471.219512 -173.104045 
L 471.82439 -173.104045 
L 472.429268 -173.104045 
L 473.034146 -173.104045 
L 473.639024 -173.104045 
L 474.243902 -173.104045 
L 474.84878 -173.104045 
L 475.453659 -173.104045 
L 476.058537 -173.104045 
L 476.663415 -173.104045 
L 477.268293 -173.104045 
L 477.873171 -173.104045 
L 478.478049 -173.104045 
L 479.082927 -173.104045 
L 479.687805 -173.104045 
L 480.292683 -173.104045 
L 480.897561 -173.104045 
L 481.502439 -173.104045 
L 482.107317 -173.104045 
L 482.712195 -173.104045 
L 483.317073 -173.104045 
L 483.921951 -173.104045 
L 484.526829 -173.104045 
L 485.131707 -173.104045 
L 485.736585 -173.104045 
L 486.341463 -173.104045 
L 486.946341 -173.104045 
L 487.55122 -173.104045 
L 488.156098 -173.104045 
L 488.760976 -173.104045 
L 489.365854 -173.104045 
L 489.970732 -173.104045 
L 490.57561 -173.104045 
L 491.180488 -173.104045 
L 491.785366 -173.104045 
L 492.390244 -173.104045 
L 492.995122 -173.104045 
L 493.6 -173.104045 
L 494.204878 -173.104045 
L 494.809756 -173.104045 
L 495.414634 -173.104045 
L 496.019512 -173.104045 
L 496.62439 -173.104045 
L 497.229268 -173.104045 
L 497.834146 -173.104045 
L 498.439024 -173.104045 
L 499.043902 -173.104045 
L 499.64878 -173.104045 
L 500.253659 -173.104045 
L 500.858537 -173.104045 
L 501.463415 -173.104045 
L 502.068293 -173.104045 
L 502.673171 -173.104045 
L 503.278049 -173.104045 
L 503.882927 -173.104045 
L 504.487805 -173.104045 
L 505.092683 -173.104045 
L 505.697561 -173.104045 
L 506.302439 -173.104045 
L 506.907317 -173.104045 
L 507.512195 -173.104045 
L 508.117073 -173.104045 
L 508.721951 -173.104045 
L 509.326829 -173.104045 
L 509.931707 -173.104045 
L 510.536585 -173.104045 
L 511.141463 -173.104045 
L 511.746341 -173.104045 
L 512.35122 -173.104045 
L 512.956098 -173.104045 
L 513.560976 -173.104045 
L 514.165854 -173.104045 
L 514.770732 -173.104045 
L 515.37561 -173.104045 
L 515.980488 -173.104045 
L 516.585366 -173.104045 
L 517.190244 -173.104045 
L 517.795122 -173.104045 
L 518.4 -173.104045 
L 518.4 -168.012938 
L 518.4 -168.012938 
L 517.795122 -168.012938 
L 517.190244 -168.012938 
L 516.585366 -168.012938 
L 515.980488 -168.012938 
L 515.37561 -168.012938 
L 514.770732 -168.012938 
L 514.165854 -168.012938 
L 513.560976 -168.012938 
L 512.956098 -168.012938 
L 512.35122 -168.012938 
L 511.746341 -168.012938 
L 511.141463 -168.012938 
L 510.536585 -168.012938 
L 509.931707 -168.012938 
L 509.326829 -168.012938 
L 508.721951 -168.012938 
L 508.117073 -168.012938 
L 507.512195 -168.012938 
L 506.907317 -168.012938 
L 506.302439 -168.012938 
L 505.697561 -168.012938 
L 505.092683 -168.012938 
L 504.487805 -168.012938 
L 503.882927 -168.012938 
L 503.278049 -168.012938 
L 502.673171 -168.012938 
L 502.068293 -168.012938 
L 501.463415 -168.012938 
L 500.858537 -168.012938 
L 500.253659 -168.012938 
L 499.64878 -168.012938 
L 499.043902 -168.012938 
L 498.439024 -168.012938 
L 497.834146 -168.012938 
L 497.229268 -168.012938 
L 496.62439 -168.012938 
L 496.019512 -168.012938 
L 495.414634 -168.012938 
L 494.809756 -168.012938 
L 494.204878 -168.012938 
L 493.6 -168.012938 
L 492.995122 -168.012938 
L 492.390244 -168.012938 
L 491.785366 -168.012938 
L 491.180488 -168.012938 
L 490.57561 -168.012938 
L 489.970732 -168.012938 
L 489.365854 -168.012938 
L 488.760976 -168.012938 
L 488.156098 -168.012938 
L 487.55122 -168.012938 
L 486.946341 -168.012938 
L 486.341463 -168.012938 
L 485.736585 -168.012938 
L 485.131707 -168.012938 
L 484.526829 -168.012938 
L 483.921951 -168.012938 
L 483.317073 -168.012938 
L 482.712195 -168.012938 
L 482.107317 -168.012938 
L 481.502439 -168.012938 
L 480.897561 -168.012938 
L 480.292683 -168.012938 
L 479.687805 -168.012938 
L 479.082927 -168.012938 
L 478.478049 -168.012938 
L 477.873171 -168.012938 
L 477.268293 -168.012938 
L 476.663415 -168.012938 
L 476.058537 -168.012938 
L 475.453659 -168.012938 
L 474.84878 -168.012938 
L 474.243902 -168.012938 
L 473.639024 -168.012938 
L 473.034146 -168.012938 
L 472.429268 -168.012938 
L 471.82439 -168.012938 
L 471.219512 -168.012938 
L 470.614634 -168.012938 
L 470.009756 -168.012938 
L 469.404878 -168.012938 
L 468.8 -168.012938 
L 468.195122 -168.012938 
L 467.590244 -168.012938 
L 466.985366 -168.012938 
L 466.380488 -168.012938 
L 465.77561 -168.012938 
L 465.170732 -168.012938 
L 464.565854 -168.012938 
L 463.960976 -168.012938 
L 463.356098 -168.012938 
L 462.75122 -168.012938 
L 462.146341 -168.012938 
L 461.541463 -168.012938 
L 460.936585 -168.012938 
L 460.331707 -168.012938 
L 459.726829 -168.012938 
L 459.121951 -168.012938 
L 458.517073 -168.012938 
L 457.912195 -168.012938 
L 457.307317 -168.012938 
L 456.702439 -168.012938 
L 456.097561 -168.012938 
L 455.492683 -168.012938 
L 454.887805 -168.012938 
L 454.282927 -168.012938 
L 453.678049 -168.012938 
L 453.073171 -168.012938 
L 452.468293 -168.012938 
L 451.863415 -168.012938 
L 451.258537 -168.012938 
L 450.653659 -168.012938 
L 450.04878 -168.012938 
L 449.443902 -168.012938 
L 448.839024 -168.012938 
L 448.234146 -168.012938 
L 447.629268 -168.012938 
L 447.02439 -168.012938 
L 446.419512 -168.012938 
L 445.814634 -168.012938 
L 445.209756 -168.012938 
L 444.604878 -168.012938 
L 444 -168.012938 
L 443.395122 -168.012938 
L 442.790244 -168.012938 
L 442.185366 -168.012938 
L 441.580488 -168.012938 
L 440.97561 -168.012938 
L 440.370732 -168.012938 
L 439.765854 -168.012938 
L 439.160976 -168.012938 
L 438.556098 -168.012938 
L 437.95122 -168.012938 
L 437.346341 -168.012938 
L 436.741463 -168.012938 
L 436.136585 -168.012938 
L 435.531707 -168.012938 
L 434.926829 -168.012938 
L 434.321951 -168.012938 
L 433.717073 -168.012938 
L 433.112195 -168.012938 
L 432.507317 -168.012938 
L 431.902439 -168.012938 
L 431.297561 -168.012938 
L 430.692683 -168.012938 
L 430.087805 -168.012938 
L 429.482927 -168.012938 
L 428.878049 -168.012938 
L 428.273171 -168.012938 
L 427.668293 -168.012938 
L 427.063415 -168.012938 
L 426.458537 -168.012938 
L 425.853659 -168.012938 
L 425.24878 -168.012938 
L 424.643902 -168.012938 
L 424.039024 -168.012938 
L 423.434146 -168.012938 
L 422.829268 -168.012938 
L 422.22439 -168.012938 
L 421.619512 -168.012938 
L 421.014634 -168.012938 
L 420.409756 -168.012938 
L 419.804878 -168.012938 
L 419.2 -168.012938 
L 418.595122 -168.012938 
L 417.990244 -168.012938 
L 417.385366 -168.012938 
L 416.780488 -168.012938 
L 416.17561 -168.012938 
L 415.570732 -168.012938 
L 414.965854 -168.012938 
L 414.360976 -168.012938 
L 413.756098 -168.012938 
L 413.15122 -168.012938 
L 412.546341 -168.012938 
L 411.941463 -168.012938 
L 411.336585 -168.012938 
L 410.731707 -168.012938 
L 410.126829 -168.012938 
L 409.521951 -168.012938 
L 408.917073 -168.012938 
L 408.312195 -168.012938 
L 407.707317 -168.012938 
L 407.102439 -168.012938 
L 406.497561 -168.012938 
L 405.892683 -168.012938 
L 405.287805 -168.012938 
L 404.682927 -168.012938 
L 404.078049 -168.012938 
L 403.473171 -168.012938 
L 402.868293 -168.012938 
L 402.263415 -168.012938 
L 401.658537 -168.012938 
L 401.053659 -168.012938 
L 400.44878 -168.012938 
L 399.843902 -168.012938 
L 399.239024 -168.012938 
L 398.634146 -168.012938 
L 398.029268 -168.012938 
L 397.42439 -168.012938 
L 396.819512 -168.012938 
L 396.214634 -168.012938 
L 395.609756 -168.012938 
L 395.004878 -168.012938 
L 394.4 -168.012938 
L 393.795122 -168.012938 
L 393.190244 -168.012938 
L 392.585366 -168.012938 
L 391.980488 -168.012938 
L 391.37561 -168.012938 
L 390.770732 -168.012938 
L 390.165854 -168.012938 
L 389.560976 -168.012938 
L 388.956098 -168.012938 
L 388.35122 -168.012938 
L 387.746341 -168.012938 
L 387.141463 -168.012938 
L 386.536585 -168.012938 
L 385.931707 -168.012938 
L 385.326829 -168.012938 
L 384.721951 -168.012938 
L 384.117073 -168.012938 
L 383.512195 -168.012938 
L 382.907317 -168.012938 
L 382.302439 -168.012938 
L 381.697561 -168.012938 
L 381.092683 -168.012938 
L 380.487805 -168.012938 
L 379.882927 -168.012938 
L 379.278049 -168.012938 
L 378.673171 -168.012938 
L 378.068293 -168.012938 
L 377.463415 -168.012938 
L 376.858537 -168.012938 
L 376.253659 -168.012938 
L 375.64878 -168.012938 
L 375.043902 -168.012938 
L 374.439024 -168.012938 
L 373.834146 -168.012938 
L 373.229268 -168.012938 
L 372.62439 -168.012938 
L 372.019512 -168.012938 
L 371.414634 -168.012938 
L 370.809756 -168.012938 
L 370.204878 -168.012938 
L 369.6 -168.012938 
L 368.995122 -168.012938 
L 368.390244 -168.012938 
L 367.785366 -168.012938 
L 367.180488 -168.012938 
L 366.57561 -168.012938 
L 365.970732 -168.012938 
L 365.365854 -168.012938 
L 364.760976 -168.012938 
L 364.156098 -168.012938 
L 363.55122 -168.012938 
L 362.946341 -168.012938 
L 362.341463 -168.012938 
L 361.736585 -168.012938 
L 361.131707 -168.012938 
L 360.526829 -168.012938 
L 359.921951 -168.012938 
L 359.317073 -168.012938 
L 358.712195 -168.012938 
L 358.107317 -168.012938 
L 357.502439 -168.012938 
L 356.897561 -168.012938 
L 356.292683 -168.012938 
L 355.687805 -168.012938 
L 355.082927 -168.012938 
L 354.478049 -168.012938 
L 353.873171 -168.012938 
L 353.268293 -168.012938 
L 352.663415 -168.012938 
L 352.058537 -168.012938 
L 351.453659 -168.012938 
L 350.84878 -168.012938 
L 350.243902 -168.012938 
L 349.639024 -168.012938 
L 349.034146 -168.012938 
L 348.429268 -168.012938 
L 347.82439 -168.012938 
L 347.219512 -168.012938 
L 346.614634 -168.012938 
L 346.009756 -168.012938 
L 345.404878 -168.012938 
L 344.8 -168.012938 
L 344.195122 -168.012938 
L 343.590244 -168.012938 
L 342.985366 -168.012938 
L 342.380488 -168.012938 
L 341.77561 -168.012938 
L 341.170732 -168.012938 
L 340.565854 -168.012938 
L 339.960976 -168.012938 
L 339.356098 -168.012938 
L 338.75122 -168.012938 
L 338.146341 -168.012938 
L 337.541463 -168.012938 
L 336.936585 -168.012938 
L 336.331707 -168.012938 
L 335.726829 -168.012938 
L 335.121951 -168.012938 
L 334.517073 -168.012938 
L 333.912195 -168.012938 
L 333.307317 -168.012938 
L 332.702439 -168.012938 
L 332.097561 -168.012938 
L 331.492683 -168.012938 
L 330.887805 -168.012938 
L 330.282927 -168.012938 
L 329.678049 -168.012938 
L 329.073171 -168.012938 
L 328.468293 -168.012938 
L 327.863415 -168.012938 
L 327.258537 -168.012938 
L 326.653659 -168.012938 
L 326.04878 -168.012938 
L 325.443902 -168.012938 
L 324.839024 -168.012938 
L 324.234146 -168.012938 
L 323.629268 -168.012938 
L 323.02439 -168.012938 
L 322.419512 -168.012938 
L 321.814634 -168.012938 
L 321.209756 -168.012938 
L 320.604878 -168.012938 
L 320 -168.012938 
L 319.395122 -168.012938 
L 318.790244 -168.012938 
L 318.185366 -168.012938 
L 317.580488 -168.012938 
L 316.97561 -168.012938 
L 316.370732 -168.012938 
L 315.765854 -168.012938 
L 315.160976 -168.012938 
L 314.556098 -168.012938 
L 313.95122 -168.012938 
L 313.346341 -168.012938 
L 312.741463 -168.012938 
L 312.136585 -168.012938 
L 311.531707 -168.012938 
L 310.926829 -168.012938 
L 310.321951 -168.012938 
L 309.717073 -168.012938 
L 309.112195 -168.012938 
L 308.507317 -168.012938 
L 307.902439 -168.012938 
L 307.297561 -168.012938 
L 306.692683 -168.012938 
L 306.087805 -168.012938 
L 305.482927 -168.012938 
L 304.878049 -168.012938 
L 304.273171 -168.012938 
L 303.668293 -168.012938 
L 303.063415 -168.012938 
L 302.458537 -168.012938 
L 301.853659 -168.012938 
L 301.24878 -168.012938 
L 300.643902 -168.012938 
L 300.039024 -168.012938 
L 299.434146 -168.012938 
L 298.829268 -168.012938 
L 298.22439 -168.012938 
L 297.619512 -168.012938 
L 297.014634 -168.012938 
L 296.409756 -168.012938 
L 295.804878 -168.012938 
L 295.2 -168.012938 
L 294.595122 -168.012938 
L 293.990244 -168.012938 
L 293.385366 -168.012938 
L 292.780488 -168.012938 
L 292.17561 -168.012938 
L 291.570732 -168.012938 
L 290.965854 -168.012938 
L 290.360976 -168.012938 
L 289.756098 -168.012938 
L 289.15122 -168.012938 
L 288.546341 -168.012938 
L 287.941463 -168.012938 
L 287.336585 -168.012938 
L 286.731707 -168.012938 
L 286.126829 -168.012938 
L 285.521951 -168.012938 
L 284.917073 -168.012938 
L 284.312195 -168.012938 
L 283.707317 -168.012938 
L 283.102439 -168.012938 
L 282.497561 -168.012938 
L 281.892683 -168.012938 
L 281.287805 -168.012938 
L 280.682927 -168.012938 
L 280.078049 -168.012938 
L 279.473171 -168.012938 
L 278.868293 -168.012938 
L 278.263415 -168.012938 
L 277.658537 -168.012938 
L 277.053659 -168.012938 
L 276.44878 -168.012938 
L 275.843902 -168.012938 
L 275.239024 -168.012938 
L 274.634146 -168.012938 
L 274.029268 -168.012938 
L 273.42439 -168.012938 
L 272.819512 -168.012938 
L 272.214634 -168.012938 
L 271.609756 -168.012938 
L 271.004878 -168.012938 
L 270.4 -168.012938 
L 269.795122 -168.012938 
L 269.190244 -168.012938 
L 268.585366 -168.012938 
L 267.980488 -168.012938 
L 267.37561 -168.012938 
L 266.770732 -168.012938 
L 266.165854 -168.012938 
L 265.560976 -168.012938 
L 264.956098 -168.012938 
L 264.35122 -168.012938 
L 263.746341 -168.012938 
L 263.141463 -168.012938 
L 262.536585 -168.012938 
L 261.931707 -168.012938 
L 261.326829 -168.012938 
L 260.721951 -168.012938 
L 260.117073 -168.012938 
L 259.512195 -168.012938 
L 258.907317 -168.012938 
L 258.302439 -168.012938 
L 257.697561 -168.012938 
L 257.092683 -168.012938 
L 256.487805 -168.012938 
L 255.882927 -168.012938 
L 255.278049 -168.012938 
L 254.673171 -168.012938 
L 254.068293 -168.012938 
L 253.463415 -168.012938 
L 252.858537 -168.012938 
L 252.253659 -168.012938 
L 251.64878 -168.012938 
L 251.043902 -168.012938 
L 250.439024 -168.012938 
L 249.834146 -168.012938 
L 249.229268 -168.012938 
L 248.62439 -168.012938 
L 248.019512 -168.012938 
L 247.414634 -168.012938 
L 246.809756 -168.012938 
L 246.204878 -168.012938 
L 245.6 -168.012938 
L 244.995122 -168.012938 
L 244.390244 -168.012938 
L 243.785366 -168.012938 
L 243.180488 -168.012938 
L 242.57561 -168.012938 
L 241.970732 -168.012938 
L 241.365854 -168.012938 
L 240.760976 -168.012938 
L 240.156098 -168.012938 
L 239.55122 -168.012938 
L 238.946341 -168.012938 
L 238.341463 -168.012938 
L 237.736585 -168.012938 
L 237.131707 -168.012938 
L 236.526829 -168.012938 
L 235.921951 -168.012938 
L 235.317073 -168.012938 
L 234.712195 -168.012938 
L 234.107317 -168.012938 
L 233.502439 -168.012938 
L 232.897561 -168.012938 
L 232.292683 -168.012938 
L 231.687805 -168.012938 
L 231.082927 -168.012938 
L 230.478049 -168.012938 
L 229.873171 -168.012938 
L 229.268293 -168.012938 
L 228.663415 -168.012938 
L 228.058537 -168.012938 
L 227.453659 -168.012938 
L 226.84878 -168.012938 
L 226.243902 -168.012938 
L 225.639024 -168.012938 
L 225.034146 -168.012938 
L 224.429268 -168.012938 
L 223.82439 -168.012938 
L 223.219512 -168.012938 
L 222.614634 -168.012938 
L 222.009756 -168.012938 
L 221.404878 -168.012938 
L 220.8 -168.012938 
L 220.195122 -168.012938 
L 219.590244 -168.012938 
L 218.985366 -168.012938 
L 218.380488 -168.012938 
L 217.77561 -168.012938 
L 217.170732 -168.012938 
L 216.565854 -168.012938 
L 215.960976 -168.012938 
L 215.356098 -168.012938 
L 214.75122 -168.012938 
L 214.146341 -168.012938 
L 213.541463 -168.012938 
L 212.936585 -168.012938 
L 212.331707 -168.012938 
L 211.726829 -168.012938 
L 211.121951 -168.012938 
L 210.517073 -168.012938 
L 209.912195 -168.012938 
L 209.307317 -168.012938 
L 208.702439 -168.012938 
L 208.097561 -168.012938 
L 207.492683 -168.012938 
L 206.887805 -168.012938 
L 206.282927 -168.012938 
L 205.678049 -168.012938 
L 205.073171 -168.012938 
L 204.468293 -168.012938 
L 203.863415 -168.012938 
L 203.258537 -168.012938 
L 202.653659 -168.012938 
L 202.04878 -168.012938 
L 201.443902 -168.012938 
L 200.839024 -168.012938 
L 200.234146 -168.012938 
L 199.629268 -168.012938 
L 199.02439 -168.012938 
L 198.419512 -168.012938 
L 197.814634 -168.012938 
L 197.209756 -168.012938 
L 196.604878 -168.012938 
L 196 -168.012938 
L 195.395122 -168.012938 
L 194.790244 -168.012938 
L 194.185366 -168.012938 
L 193.580488 -168.012938 
L 192.97561 -168.012938 
L 192.370732 -168.012938 
L 191.765854 -168.012938 
L 191.160976 -168.012938 
L 190.556098 -168.012938 
L 189.95122 -168.012938 
L 189.346341 -168.012938 
L 188.741463 -168.012938 
L 188.136585 -168.012938 
L 187.531707 -168.012938 
L 186.926829 -168.012938 
L 186.321951 -168.012938 
L 185.717073 -168.012938 
L 185.112195 -168.012938 
L 184.507317 -168.012938 
L 183.902439 -168.012938 
L 183.297561 -168.012938 
L 182.692683 -168.012938 
L 182.087805 -168.012938 
L 181.482927 -168.012938 
L 180.878049 -168.012938 
L 180.273171 -168.012938 
L 179.668293 -168.012938 
L 179.063415 -168.012938 
L 178.458537 -168.012938 
L 177.853659 -168.012938 
L 177.24878 -168.012938 
L 176.643902 -168.012938 
L 176.039024 -168.012938 
L 175.434146 -168.012938 
L 174.829268 -168.012938 
L 174.22439 -168.012938 
L 173.619512 -168.012938 
L 173.014634 -168.012938 
L 172.409756 -168.012938 
L 171.804878 -168.012938 
L 171.2 -168.012938 
L 170.595122 -168.012938 
L 169.990244 -168.012938 
L 169.385366 -168.012938 
L 168.780488 -168.012938 
L 168.17561 -168.012938 
L 167.570732 -168.012938 
L 166.965854 -168.012938 
L 166.360976 -168.012938 
L 165.756098 -168.012938 
L 165.15122 -168.012938 
L 164.546341 -168.012938 
L 163.941463 -168.012938 
L 163.336585 -168.012938 
L 162.731707 -168.012938 
L 162.126829 -168.012938 
L 161.521951 -168.012938 
L 160.917073 -168.012938 
L 160.312195 -168.012938 
L 159.707317 -168.012938 
L 159.102439 -168.012938 
L 158.497561 -168.012938 
L 157.892683 -168.012938 
L 157.287805 -168.012938 
L 156.682927 -168.012938 
L 156.078049 -168.012938 
L 155.473171 -168.012938 
L 154.868293 -168.012938 
L 154.263415 -168.012938 
L 153.658537 -168.012938 
L 153.053659 -168.012938 
L 152.44878 -168.012938 
L 151.843902 -168.012938 
L 151.239024 -168.012938 
L 150.634146 -168.012938 
L 150.029268 -168.012938 
L 149.42439 -168.012938 
L 148.819512 -168.012938 
L 148.214634 -168.012938 
L 147.609756 -168.012938 
L 147.004878 -168.012938 
L 146.4 -168.012938 
L 145.795122 -168.012938 
L 145.190244 -168.012938 
L 144.585366 -168.012938 
L 143.980488 -168.012938 
L 143.37561 -168.012938 
L 142.770732 -168.012938 
L 142.165854 -168.012938 
L 141.560976 -168.012938 
L 140.956098 -168.012938 
L 140.35122 -168.012938 
L 139.746341 -168.012938 
L 139.141463 -168.012938 
L 138.536585 -168.012938 
L 137.931707 -168.012938 
L 137.326829 -168.012938 
L 136.721951 -168.012938 
L 136.117073 -168.012938 
L 135.512195 -168.012938 
L 134.907317 -168.012938 
L 134.302439 -168.012938 
L 133.697561 -168.012938 
L 133.092683 -168.012938 
L 132.487805 -168.012938 
L 131.882927 -168.012938 
L 131.278049 -168.012938 
L 130.673171 -168.012938 
L 130.068293 -168.012938 
L 129.463415 -168.012938 
L 128.858537 -168.012938 
L 128.253659 -168.012938 
L 127.64878 -168.012938 
L 127.043902 -168.012938 
L 126.439024 -168.012938 
L 125.834146 -168.012938 
L 125.229268 -168.012938 
L 124.62439 -168.012938 
L 124.019512 -168.012938 
L 123.414634 -168.012938 
L 122.809756 -168.012938 
L 122.204878 -168.012938 
L 121.6 -168.012938 
L 120.995122 -168.012938 
L 120.390244 -168.012938 
L 119.785366 -168.012938 
L 119.180488 -168.012938 
L 118.57561 -168.012938 
L 117.970732 -168.012938 
L 117.365854 -168.012938 
L 116.760976 -168.012938 
L 116.156098 -168.012938 
L 115.55122 -168.012938 
L 114.946341 -168.012938 
L 114.341463 -168.012938 
L 113.736585 -168.012938 
L 113.131707 -168.012938 
L 112.526829 -168.012938 
L 111.921951 -168.012938 
L 111.317073 -168.012938 
L 110.712195 -168.012938 
L 110.107317 -168.012938 
L 109.502439 -168.012938 
L 108.897561 -168.012938 
L 108.292683 -168.012938 
L 107.687805 -168.012938 
L 107.082927 -168.012938 
L 106.478049 -168.012938 
L 105.873171 -168.012938 
L 105.268293 -168.012938 
L 104.663415 -168.012938 
L 104.058537 -168.012938 
L 103.453659 -168.012938 
L 102.84878 -168.012938 
L 102.243902 -168.012938 
L 101.639024 -168.012938 
L 101.034146 -168.012938 
L 100.429268 -168.012938 
L 99.82439 -168.012938 
L 99.219512 -168.012938 
L 98.614634 -168.012938 
L 98.009756 -168.012938 
L 97.404878 -168.012938 
L 96.8 -168.012938 
L 96.195122 -168.012938 
L 95.590244 -168.012938 
L 94.985366 -168.012938 
L 94.380488 -168.012938 
L 93.77561 -168.012938 
L 93.170732 -168.012938 
L 92.565854 -168.012938 
L 91.960976 -168.012938 
L 91.356098 -168.012938 
L 90.75122 -168.012938 
L 90.146341 -168.012938 
L 89.541463 -168.012938 
L 88.936585 -168.012938 
L 88.331707 -168.012938 
L 87.726829 -168.012938 
L 87.121951 -168.012938 
L 86.517073 -168.012938 
L 85.912195 -168.012938 
L 85.307317 -168.012938 
L 84.702439 -168.012938 
L 84.097561 -168.012938 
L 83.492683 -168.012938 
L 82.887805 -168.012938 
L 82.282927 -168.012938 
L 81.678049 -168.012938 
L 81.073171 -168.012938 
L 80.468293 -168.012938 
L 79.863415 -168.012938 
L 79.258537 -168.012938 
L 78.653659 -168.012938 
L 78.04878 -168.012938 
L 77.443902 -168.012938 
L 76.839024 -168.012938 
L 76.234146 -168.012938 
L 75.629268 -168.012938 
L 75.02439 -168.012938 
L 74.419512 -168.012938 
L 73.814634 -168.012938 
L 73.209756 -168.012938 
L 72.604878 -168.012938 
L 72 -168.012938 
z
" id="m23f59b2e8f"/>
    </defs>
    <g clip-path="url(#p857f5b40f6)">
     <use style="fill-opacity:0.15;" x="0" xlink:href="#m23f59b2e8f" y="360"/>
    </g>
   </g>
   <g id="matplotlib.axis_1">
    <g id="xtick_1">
     <g id="line2d_1">
      <defs>
       <path d="M 0 0 
L 0 3.5 
" id="me70f7612c6" style="stroke:#000000;stroke-width:0.8;"/>
      </defs>
      <g>
       <use style="stroke:#000000;stroke-width:0.8;" x="72" xlink:href="#me70f7612c6" y="320.4"/>
      </g>
     </g>
     <g id="text_1">
      <!-- 0.0 -->
      <g transform="translate(60.867812 338.037813)scale(0.14 -0.14)">
       <defs>
        <path d="M 2034 4250 
Q 1547 4250 1301 3770 
Q 1056 3291 1056 2328 
Q 1056 1369 1301 889 
Q 1547 409 2034 409 
Q 2525 409 2770 889 
Q 3016 1369 3016 2328 
Q 3016 3291 2770 3770 
Q 2525 4250 2034 4250 
z
M 2034 4750 
Q 2819 4750 3233 4129 
Q 3647 3509 3647 2328 
Q 3647 1150 3233 529 
Q 2819 -91 2034 -91 
Q 1250 -91 836 529 
Q 422 1150 422 2328 
Q 422 3509 836 4129 
Q 1250 4750 2034 4750 
z
" id="DejaVuSans-30" transform="scale(0.015625)"/>
        <path d="M 684 794 
L 1344 794 
L 1344 0 
L 684 0 
L 684 794 
z
" id="DejaVuSans-2e" transform="scale(0.015625)"/>
       </defs>
       <use xlink:href="#DejaVuSans-30"/>
       <use x="63.623047" xlink:href="#DejaVuSans-2e"/>
       <use x="95.410156" xlink:href="#DejaVuSans-30"/>
      </g>
     </g>
    </g>
    <g id="xtick_2">
     <g id="line2d_2">
      <g>
       <use style="stroke:#000000;stroke-width:0.8;" x="127.822329" xlink:href="#me70f7612c6" y="320.4"/>
      </g>
     </g>
     <g id="text_2">
      <!-- 2.5 -->
      <g transform="translate(116.690141 338.037813)scale(0.14 -0.14)">
       <defs>
        <path d="M 1228 531 
L 3431 531 
L 3431 0 
L 469 0 
L 469 531 
Q 828 903 1448 1529 
Q 2069 2156 2228 2338 
Q 2531 2678 2651 2914 
Q 2772 3150 2772 3378 
Q 2772 3750 2511 3984 
Q 2250 4219 1831 4219 
Q 1534 4219 1204 4116 
Q 875 4013 500 3803 
L 500 4441 
Q 881 4594 1212 4672 
Q 1544 4750 1819 4750 
Q 2544 4750 2975 4387 
Q 3406 4025 3406 3419 
Q 3406 3131 3298 2873 
Q 3191 2616 2906 2266 
Q 2828 2175 2409 1742 
Q 1991 1309 1228 531 
z
" id="DejaVuSans-32" transform="scale(0.015625)"/>
        <path d="M 691 4666 
L 3169 4666 
L 3169 4134 
L 1269 4134 
L 1269 2991 
Q 1406 3038 1543 3061 
Q 1681 3084 1819 3084 
Q 2600 3084 3056 2656 
Q 3513 2228 3513 1497 
Q 3513 744 3044 326 
Q 2575 -91 1722 -91 
Q 1428 -91 1123 -41 
Q 819 9 494 109 
L 494 744 
Q 775 591 1075 516 
Q 1375 441 1709 441 
Q 2250 441 2565 725 
Q 2881 1009 2881 1497 
Q 2881 1984 2565 2268 
Q 2250 2553 1709 2553 
Q 1456 2553 1204 2497 
Q 953 2441 691 2322 
L 691 4666 
z
" id="DejaVuSans-35" transform="scale(0.015625)"/>
       </defs>
       <use xlink:href="#DejaVuSans-32"/>
       <use x="63.623047" xlink:href="#DejaVuSans-2e"/>
       <use x="95.410156" xlink:href="#DejaVuSans-35"/>
      </g>
     </g>
    </g>
    <g id="xtick_3">
     <g id="line2d_3">
      <g>
       <use style="stroke:#000000;stroke-width:0.8;" x="183.644658" xlink:href="#me70f7612c6" y="320.4"/>
      </g>
     </g>
     <g id="text_3">
      <!-- 5.0 -->
      <g transform="translate(172.51247 338.037813)scale(0.14 -0.14)">
       <use xlink:href="#DejaVuSans-35"/>
       <use x="63.623047" xlink:href="#DejaVuSans-2e"/>
       <use x="95.410156" xlink:href="#DejaVuSans-30"/>
      </g>
     </g>
    </g>
    <g id="xtick_4">
     <g id="line2d_4">
      <g>
       <use style="stroke:#000000;stroke-width:0.8;" x="239.466987" xlink:href="#me70f7612c6" y="320.4"/>
      </g>
     </g>
     <g id="text_4">
      <!-- 7.5 -->
      <g transform="translate(228.334799 338.037813)scale(0.14 -0.14)">
       <defs>
        <path d="M 525 4666 
L 3525 4666 
L 3525 4397 
L 1831 0 
L 1172 0 
L 2766 4134 
L 525 4134 
L 525 4666 
z
" id="DejaVuSans-37" transform="scale(0.015625)"/>
       </defs>
       <use xlink:href="#DejaVuSans-37"/>
       <use x="63.623047" xlink:href="#DejaVuSans-2e"/>
       <use x="95.410156" xlink:href="#DejaVuSans-35"/>
      </g>
     </g>
    </g>
    <g id="xtick_5">
     <g id="line2d_5">
      <g>
       <use style="stroke:#000000;stroke-width:0.8;" x="295.289316" xlink:href="#me70f7612c6" y="320.4"/>
      </g>
     </g>
     <g id="text_5">
      <!-- 10.0 -->
      <g transform="translate(279.703378 338.037813)scale(0.14 -0.14)">
       <defs>
        <path d="M 794 531 
L 1825 531 
L 1825 4091 
L 703 3866 
L 703 4441 
L 1819 4666 
L 2450 4666 
L 2450 531 
L 3481 531 
L 3481 0 
L 794 0 
L 794 531 
z
" id="DejaVuSans-31" transform="scale(0.015625)"/>
       </defs>
       <use xlink:href="#DejaVuSans-31"/>
       <use x="63.623047" xlink:href="#DejaVuSans-30"/>
       <use x="127.246094" xlink:href="#DejaVuSans-2e"/>
       <use x="159.033203" xlink:href="#DejaVuSans-30"/>
      </g>
     </g>
    </g>
    <g id="xtick_6">
     <g id="line2d_6">
      <g>
       <use style="stroke:#000000;stroke-width:0.8;" x="351.111645" xlink:href="#me70f7612c6" y="320.4"/>
      </g>
     </g>
     <g id="text_6">
      <!-- 12.5 -->
      <g transform="translate(335.525707 338.037813)scale(0.14 -0.14)">
       <use xlink:href="#DejaVuSans-31"/>
       <use x="63.623047" xlink:href="#DejaVuSans-32"/>
       <use x="127.246094" xlink:href="#DejaVuSans-2e"/>
       <use x="159.033203" xlink:href="#DejaVuSans-35"/>
      </g>
     </g>
    </g>
    <g id="xtick_7">
     <g id="line2d_7">
      <g>
       <use style="stroke:#000000;stroke-width:0.8;" x="406.933974" xlink:href="#me70f7612c6" y="320.4"/>
      </g>
     </g>
     <g id="text_7">
      <!-- 15.0 -->
      <g transform="translate(391.348036 338.037813)scale(0.14 -0.14)">
       <use xlink:href="#DejaVuSans-31"/>
       <use x="63.623047" xlink:href="#DejaVuSans-35"/>
       <use x="127.246094" xlink:href="#DejaVuSans-2e"/>
       <use x="159.033203" xlink:href="#DejaVuSans-30"/>
      </g>
     </g>
    </g>
    <g id="xtick_8">
     <g id="line2d_8">
      <g>
       <use style="stroke:#000000;stroke-width:0.8;" x="462.756303" xlink:href="#me70f7612c6" y="320.4"/>
      </g>
     </g>
     <g id="text_8">
      <!-- 17.5 -->
      <g transform="translate(447.170365 338.037813)scale(0.14 -0.14)">
       <use xlink:href="#DejaVuSans-31"/>
       <use x="63.623047" xlink:href="#DejaVuSans-37"/>
       <use x="127.246094" xlink:href="#DejaVuSans-2e"/>
       <use x="159.033203" xlink:href="#DejaVuSans-35"/>
      </g>
     </g>
    </g>
    <g id="text_9">
     <!-- Time [Seconds] -->
     <g transform="translate(233.23 357.106875)scale(0.16 -0.16)">
      <defs>
       <path d="M -19 4666 
L 3928 4666 
L 3928 4134 
L 2272 4134 
L 2272 0 
L 1638 0 
L 1638 4134 
L -19 4134 
L -19 4666 
z
" id="DejaVuSans-54" transform="scale(0.015625)"/>
       <path d="M 603 3500 
L 1178 3500 
L 1178 0 
L 603 0 
L 603 3500 
z
M 603 4863 
L 1178 4863 
L 1178 4134 
L 603 4134 
L 603 4863 
z
" id="DejaVuSans-69" transform="scale(0.015625)"/>
       <path d="M 3328 2828 
Q 3544 3216 3844 3400 
Q 4144 3584 4550 3584 
Q 5097 3584 5394 3201 
Q 5691 2819 5691 2113 
L 5691 0 
L 5113 0 
L 5113 2094 
Q 5113 2597 4934 2840 
Q 4756 3084 4391 3084 
Q 3944 3084 3684 2787 
Q 3425 2491 3425 1978 
L 3425 0 
L 2847 0 
L 2847 2094 
Q 2847 2600 2669 2842 
Q 2491 3084 2119 3084 
Q 1678 3084 1418 2786 
Q 1159 2488 1159 1978 
L 1159 0 
L 581 0 
L 581 3500 
L 1159 3500 
L 1159 2956 
Q 1356 3278 1631 3431 
Q 1906 3584 2284 3584 
Q 2666 3584 2933 3390 
Q 3200 3197 3328 2828 
z
" id="DejaVuSans-6d" transform="scale(0.015625)"/>
       <path d="M 3597 1894 
L 3597 1613 
L 953 1613 
Q 991 1019 1311 708 
Q 1631 397 2203 397 
Q 2534 397 2845 478 
Q 3156 559 3463 722 
L 3463 178 
Q 3153 47 2828 -22 
Q 2503 -91 2169 -91 
Q 1331 -91 842 396 
Q 353 884 353 1716 
Q 353 2575 817 3079 
Q 1281 3584 2069 3584 
Q 2775 3584 3186 3129 
Q 3597 2675 3597 1894 
z
M 3022 2063 
Q 3016 2534 2758 2815 
Q 2500 3097 2075 3097 
Q 1594 3097 1305 2825 
Q 1016 2553 972 2059 
L 3022 2063 
z
" id="DejaVuSans-65" transform="scale(0.015625)"/>
       <path id="DejaVuSans-20" transform="scale(0.015625)"/>
       <path d="M 550 4863 
L 1875 4863 
L 1875 4416 
L 1125 4416 
L 1125 -397 
L 1875 -397 
L 1875 -844 
L 550 -844 
L 550 4863 
z
" id="DejaVuSans-5b" transform="scale(0.015625)"/>
       <path d="M 3425 4513 
L 3425 3897 
Q 3066 4069 2747 4153 
Q 2428 4238 2131 4238 
Q 1616 4238 1336 4038 
Q 1056 3838 1056 3469 
Q 1056 3159 1242 3001 
Q 1428 2844 1947 2747 
L 2328 2669 
Q 3034 2534 3370 2195 
Q 3706 1856 3706 1288 
Q 3706 609 3251 259 
Q 2797 -91 1919 -91 
Q 1588 -91 1214 -16 
Q 841 59 441 206 
L 441 856 
Q 825 641 1194 531 
Q 1563 422 1919 422 
Q 2459 422 2753 634 
Q 3047 847 3047 1241 
Q 3047 1584 2836 1778 
Q 2625 1972 2144 2069 
L 1759 2144 
Q 1053 2284 737 2584 
Q 422 2884 422 3419 
Q 422 4038 858 4394 
Q 1294 4750 2059 4750 
Q 2388 4750 2728 4690 
Q 3069 4631 3425 4513 
z
" id="DejaVuSans-53" transform="scale(0.015625)"/>
       <path d="M 3122 3366 
L 3122 2828 
Q 2878 2963 2633 3030 
Q 2388 3097 2138 3097 
Q 1578 3097 1268 2742 
Q 959 2388 959 1747 
Q 959 1106 1268 751 
Q 1578 397 2138 397 
Q 2388 397 2633 464 
Q 2878 531 3122 666 
L 3122 134 
Q 2881 22 2623 -34 
Q 2366 -91 2075 -91 
Q 1284 -91 818 406 
Q 353 903 353 1747 
Q 353 2603 823 3093 
Q 1294 3584 2113 3584 
Q 2378 3584 2631 3529 
Q 2884 3475 3122 3366 
z
" id="DejaVuSans-63" transform="scale(0.015625)"/>
       <path d="M 1959 3097 
Q 1497 3097 1228 2736 
Q 959 2375 959 1747 
Q 959 1119 1226 758 
Q 1494 397 1959 397 
Q 2419 397 2687 759 
Q 2956 1122 2956 1747 
Q 2956 2369 2687 2733 
Q 2419 3097 1959 3097 
z
M 1959 3584 
Q 2709 3584 3137 3096 
Q 3566 2609 3566 1747 
Q 3566 888 3137 398 
Q 2709 -91 1959 -91 
Q 1206 -91 779 398 
Q 353 888 353 1747 
Q 353 2609 779 3096 
Q 1206 3584 1959 3584 
z
" id="DejaVuSans-6f" transform="scale(0.015625)"/>
       <path d="M 3513 2113 
L 3513 0 
L 2938 0 
L 2938 2094 
Q 2938 2591 2744 2837 
Q 2550 3084 2163 3084 
Q 1697 3084 1428 2787 
Q 1159 2491 1159 1978 
L 1159 0 
L 581 0 
L 581 3500 
L 1159 3500 
L 1159 2956 
Q 1366 3272 1645 3428 
Q 1925 3584 2291 3584 
Q 2894 3584 3203 3211 
Q 3513 2838 3513 2113 
z
" id="DejaVuSans-6e" transform="scale(0.015625)"/>
       <path d="M 2906 2969 
L 2906 4863 
L 3481 4863 
L 3481 0 
L 2906 0 
L 2906 525 
Q 2725 213 2448 61 
Q 2172 -91 1784 -91 
Q 1150 -91 751 415 
Q 353 922 353 1747 
Q 353 2572 751 3078 
Q 1150 3584 1784 3584 
Q 2172 3584 2448 3432 
Q 2725 3281 2906 2969 
z
M 947 1747 
Q 947 1113 1208 752 
Q 1469 391 1925 391 
Q 2381 391 2643 752 
Q 2906 1113 2906 1747 
Q 2906 2381 2643 2742 
Q 2381 3103 1925 3103 
Q 1469 3103 1208 2742 
Q 947 2381 947 1747 
z
" id="DejaVuSans-64" transform="scale(0.015625)"/>
       <path d="M 2834 3397 
L 2834 2853 
Q 2591 2978 2328 3040 
Q 2066 3103 1784 3103 
Q 1356 3103 1142 2972 
Q 928 2841 928 2578 
Q 928 2378 1081 2264 
Q 1234 2150 1697 2047 
L 1894 2003 
Q 2506 1872 2764 1633 
Q 3022 1394 3022 966 
Q 3022 478 2636 193 
Q 2250 -91 1575 -91 
Q 1294 -91 989 -36 
Q 684 19 347 128 
L 347 722 
Q 666 556 975 473 
Q 1284 391 1588 391 
Q 1994 391 2212 530 
Q 2431 669 2431 922 
Q 2431 1156 2273 1281 
Q 2116 1406 1581 1522 
L 1381 1569 
Q 847 1681 609 1914 
Q 372 2147 372 2553 
Q 372 3047 722 3315 
Q 1072 3584 1716 3584 
Q 2034 3584 2315 3537 
Q 2597 3491 2834 3397 
z
" id="DejaVuSans-73" transform="scale(0.015625)"/>
       <path d="M 1947 4863 
L 1947 -844 
L 622 -844 
L 622 -397 
L 1369 -397 
L 1369 4416 
L 622 4416 
L 622 4863 
L 1947 4863 
z
" id="DejaVuSans-5d" transform="scale(0.015625)"/>
      </defs>
      <use xlink:href="#DejaVuSans-54"/>
      <use x="57.958984" xlink:href="#DejaVuSans-69"/>
      <use x="85.742188" xlink:href="#DejaVuSans-6d"/>
      <use x="183.154297" xlink:href="#DejaVuSans-65"/>
      <use x="244.677734" xlink:href="#DejaVuSans-20"/>
      <use x="276.464844" xlink:href="#DejaVuSans-5b"/>
      <use x="315.478516" xlink:href="#DejaVuSans-53"/>
      <use x="378.955078" xlink:href="#DejaVuSans-65"/>
      <use x="440.478516" xlink:href="#DejaVuSans-63"/>
      <use x="495.458984" xlink:href="#DejaVuSans-6f"/>
      <use x="556.640625" xlink:href="#DejaVuSans-6e"/>
      <use x="620.019531" xlink:href="#DejaVuSans-64"/>
      <use x="683.496094" xlink:href="#DejaVuSans-73"/>
      <use x="735.595703" xlink:href="#DejaVuSans-5d"/>
     </g>
    </g>
   </g>
   <g id="matplotlib.axis_2">
    <g id="ytick_1">
     <g id="line2d_9">
      <defs>
       <path d="M 0 0 
L -3.5 0 
" id="m3519b1173a" style="stroke:#000000;stroke-width:0.8;"/>
      </defs>
      <g>
       <use style="stroke:#000000;stroke-width:0.8;" x="72" xlink:href="#m3519b1173a" y="279.178466"/>
      </g>
     </g>
     <g id="text_10">
      <!-- 0.0 -->
      <g transform="translate(42.735625 284.497372)scale(0.14 -0.14)">
       <use xlink:href="#DejaVuSans-30"/>
       <use x="63.623047" xlink:href="#DejaVuSans-2e"/>
       <use x="95.410156" xlink:href="#DejaVuSans-30"/>
      </g>
     </g>
    </g>
    <g id="ytick_2">
     <g id="line2d_10">
      <g>
       <use style="stroke:#000000;stroke-width:0.8;" x="72" xlink:href="#m3519b1173a" y="226.632264"/>
      </g>
     </g>
     <g id="text_11">
      <!-- 0.5 -->
      <g transform="translate(42.735625 231.95117)scale(0.14 -0.14)">
       <use xlink:href="#DejaVuSans-30"/>
       <use x="63.623047" xlink:href="#DejaVuSans-2e"/>
       <use x="95.410156" xlink:href="#DejaVuSans-35"/>
      </g>
     </g>
    </g>
    <g id="ytick_3">
     <g id="line2d_11">
      <g>
       <use style="stroke:#000000;stroke-width:0.8;" x="72" xlink:href="#m3519b1173a" y="174.086062"/>
      </g>
     </g>
     <g id="text_12">
      <!-- 1.0 -->
      <g transform="translate(42.735625 179.404968)scale(0.14 -0.14)">
       <use xlink:href="#DejaVuSans-31"/>
       <use x="63.623047" xlink:href="#DejaVuSans-2e"/>
       <use x="95.410156" xlink:href="#DejaVuSans-30"/>
      </g>
     </g>
    </g>
    <g id="ytick_4">
     <g id="line2d_12">
      <g>
       <use style="stroke:#000000;stroke-width:0.8;" x="72" xlink:href="#m3519b1173a" y="121.53986"/>
      </g>
     </g>
     <g id="text_13">
      <!-- 1.5 -->
      <g transform="translate(42.735625 126.858766)scale(0.14 -0.14)">
       <use xlink:href="#DejaVuSans-31"/>
       <use x="63.623047" xlink:href="#DejaVuSans-2e"/>
       <use x="95.410156" xlink:href="#DejaVuSans-35"/>
      </g>
     </g>
    </g>
    <g id="ytick_5">
     <g id="line2d_13">
      <g>
       <use style="stroke:#000000;stroke-width:0.8;" x="72" xlink:href="#m3519b1173a" y="68.993658"/>
      </g>
     </g>
     <g id="text_14">
      <!-- 2.0 -->
      <g transform="translate(42.735625 74.312564)scale(0.14 -0.14)">
       <use xlink:href="#DejaVuSans-32"/>
       <use x="63.623047" xlink:href="#DejaVuSans-2e"/>
       <use x="95.410156" xlink:href="#DejaVuSans-30"/>
      </g>
     </g>
    </g>
    <g id="text_15">
     <!-- Speed [mm/s] -->
     <g transform="translate(35.408125 238.11375)rotate(-90)scale(0.16 -0.16)">
      <defs>
       <path d="M 1159 525 
L 1159 -1331 
L 581 -1331 
L 581 3500 
L 1159 3500 
L 1159 2969 
Q 1341 3281 1617 3432 
Q 1894 3584 2278 3584 
Q 2916 3584 3314 3078 
Q 3713 2572 3713 1747 
Q 3713 922 3314 415 
Q 2916 -91 2278 -91 
Q 1894 -91 1617 61 
Q 1341 213 1159 525 
z
M 3116 1747 
Q 3116 2381 2855 2742 
Q 2594 3103 2138 3103 
Q 1681 3103 1420 2742 
Q 1159 2381 1159 1747 
Q 1159 1113 1420 752 
Q 1681 391 2138 391 
Q 2594 391 2855 752 
Q 3116 1113 3116 1747 
z
" id="DejaVuSans-70" transform="scale(0.015625)"/>
       <path d="M 1625 4666 
L 2156 4666 
L 531 -594 
L 0 -594 
L 1625 4666 
z
" id="DejaVuSans-2f" transform="scale(0.015625)"/>
      </defs>
      <use xlink:href="#DejaVuSans-53"/>
      <use x="63.476562" xlink:href="#DejaVuSans-70"/>
      <use x="126.953125" xlink:href="#DejaVuSans-65"/>
      <use x="188.476562" xlink:href="#DejaVuSans-65"/>
      <use x="250" xlink:href="#DejaVuSans-64"/>
      <use x="313.476562" xlink:href="#DejaVuSans-20"/>
      <use x="345.263672" xlink:href="#DejaVuSans-5b"/>
      <use x="384.277344" xlink:href="#DejaVuSans-6d"/>
      <use x="481.689453" xlink:href="#DejaVuSans-6d"/>
      <use x="579.101562" xlink:href="#DejaVuSans-2f"/>
      <use x="612.792969" xlink:href="#DejaVuSans-73"/>
      <use x="664.892578" xlink:href="#DejaVuSans-5d"/>
     </g>
    </g>
   </g>
   <g id="line2d_14">
    <path clip-path="url(#p857f5b40f6)" d="M 72 189.441508 
L 518.4 189.441508 
" style="fill:none;stroke:#000000;stroke-dasharray:5.55,2.4;stroke-dashoffset:0;stroke-width:1.5;"/>
   </g>
   <g id="line2d_15">
    <path clip-path="url(#p857f5b40f6)" d="M 72 278.162098 
L 129.463415 278.221507 
L 130.068293 277.956719 
L 130.673171 277.080564 
L 131.278049 276.729992 
L 132.487805 277.4262 
L 133.092683 277.655497 
L 133.697561 277.458099 
L 134.302439 281.16255 
L 134.907317 281.190049 
L 135.512195 265.653242 
L 136.117073 261.584394 
L 137.326829 299.008618 
L 137.931707 305.552085 
L 138.536585 307.8 
L 139.141463 302.087423 
L 139.746341 290.323789 
L 140.35122 275.700399 
L 141.560976 235.231005 
L 145.190244 96.195493 
L 146.4 68.872137 
L 147.004878 59.980825 
L 147.609756 55.8 
L 148.214634 56.186889 
L 148.819512 57.485768 
L 149.42439 64.410879 
L 150.029268 74.910748 
L 150.634146 87.701393 
L 153.053659 152.778313 
L 154.263415 181.621489 
L 154.868293 189.911453 
L 155.473171 192.937602 
L 156.078049 190.726002 
L 156.682927 176.861021 
L 157.287805 156.809345 
L 157.892683 157.823427 
L 158.497561 174.086853 
L 159.102439 178.17852 
L 159.707317 177.092586 
L 160.312195 180.265177 
L 160.917073 181.605521 
L 161.521951 181.857496 
L 162.126829 183.941952 
L 162.731707 183.920382 
L 163.336585 184.096535 
L 163.941463 185.643014 
L 164.546341 185.928986 
L 165.15122 184.133405 
L 165.756098 183.272693 
L 166.360976 184.481489 
L 166.965854 186.166063 
L 167.570732 185.047296 
L 168.17561 184.902941 
L 168.780488 186.497639 
L 169.385366 185.817484 
L 169.990244 185.542809 
L 170.595122 184.658092 
L 171.2 186.934004 
L 171.804878 187.292263 
L 172.409756 185.960449 
L 173.014634 186.696572 
L 173.619512 183.625626 
L 174.22439 183.674816 
L 175.434146 186.356125 
L 176.039024 188.970833 
L 176.643902 187.657529 
L 177.24878 187.233537 
L 177.853659 187.538733 
L 178.458537 188.875299 
L 179.063415 189.399961 
L 179.668293 188.117609 
L 180.273171 189.110071 
L 180.878049 189.882346 
L 181.482927 189.92267 
L 182.692683 192.29052 
L 183.297561 191.564915 
L 183.902439 190.216505 
L 185.112195 186.633606 
L 185.717073 187.920279 
L 186.321951 188.761272 
L 186.926829 187.775211 
L 187.531707 187.495196 
L 188.136585 189.239425 
L 188.741463 190.426959 
L 189.346341 188.273223 
L 190.556098 188.765346 
L 191.160976 186.518338 
L 191.765854 187.198868 
L 192.370732 188.963884 
L 192.97561 189.314151 
L 193.580488 189.511752 
L 194.185366 190.516579 
L 194.790244 190.336776 
L 195.395122 188.307317 
L 196 190.223778 
L 196.604878 193.930711 
L 197.209756 192.736309 
L 197.814634 190.976334 
L 199.629268 191.541627 
L 200.234146 191.425079 
L 200.839024 189.081885 
L 201.443902 188.012081 
L 202.04878 188.574992 
L 202.653659 187.849072 
L 203.258537 188.26138 
L 203.863415 188.471354 
L 205.073171 190.050695 
L 205.678049 188.957286 
L 206.282927 186.091316 
L 206.887805 184.852638 
L 207.492683 187.581893 
L 208.097561 189.04175 
L 208.702439 186.001354 
L 209.307317 185.748398 
L 209.912195 189.833148 
L 210.517073 190.838845 
L 211.121951 190.091367 
L 211.726829 189.748011 
L 212.936585 191.012177 
L 213.541463 190.660761 
L 214.146341 190.912906 
L 214.75122 189.758217 
L 215.356098 191.352707 
L 215.960976 193.421086 
L 216.565854 191.831892 
L 217.170732 190.639036 
L 217.77561 192.339734 
L 218.380488 193.352214 
L 218.985366 190.98516 
L 219.590244 190.013442 
L 220.195122 191.394833 
L 220.8 191.288972 
L 221.404878 190.439156 
L 222.009756 191.840898 
L 222.614634 191.786059 
L 223.82439 189.095687 
L 224.429268 190.082303 
L 225.034146 190.48113 
L 225.639024 189.641002 
L 226.243902 190.255332 
L 226.84878 191.374671 
L 227.453659 191.218064 
L 228.058537 187.220654 
L 228.663415 186.86572 
L 229.268293 189.006072 
L 229.873171 188.14002 
L 230.478049 186.728518 
L 231.082927 187.561929 
L 231.687805 190.271083 
L 232.897561 186.827625 
L 233.502439 187.184646 
L 234.107317 188.883067 
L 234.712195 189.394617 
L 235.317073 188.019131 
L 235.921951 187.200618 
L 236.526829 186.5956 
L 237.131707 188.990685 
L 237.736585 190.151872 
L 238.341463 188.929965 
L 238.946341 188.163364 
L 239.55122 190.713469 
L 240.156098 192.389756 
L 240.760976 190.436339 
L 241.365854 190.336307 
L 241.970732 191.524804 
L 242.57561 190.866974 
L 243.180488 189.640404 
L 243.785366 190.86383 
L 244.390244 192.800056 
L 244.995122 191.774885 
L 245.6 190.160839 
L 246.204878 191.42394 
L 246.809756 190.950282 
L 247.414634 191.731463 
L 248.019512 193.399687 
L 248.62439 191.947235 
L 249.229268 191.305048 
L 250.439024 187.620506 
L 251.043902 188.19922 
L 251.64878 189.637825 
L 252.253659 189.673981 
L 252.858537 189.121764 
L 253.463415 189.032827 
L 254.068293 188.272726 
L 254.673171 188.181246 
L 255.278049 188.673946 
L 255.882927 190.587639 
L 256.487805 191.835038 
L 257.092683 189.686607 
L 257.697561 188.23129 
L 258.907317 192.414359 
L 259.512195 191.290879 
L 260.117073 189.632005 
L 260.721951 189.47422 
L 261.326829 191.125922 
L 261.931707 189.773724 
L 262.536585 188.957882 
L 263.141463 191.069417 
L 263.746341 190.464291 
L 264.35122 189.217236 
L 264.956098 188.424874 
L 265.560976 189.302097 
L 266.165854 189.967426 
L 266.770732 188.785771 
L 267.37561 188.304606 
L 267.980488 189.497754 
L 268.585366 191.910508 
L 269.190244 193.75521 
L 269.795122 191.892045 
L 270.4 189.425156 
L 271.004878 191.066588 
L 271.609756 191.207969 
L 272.214634 189.598105 
L 273.42439 191.585095 
L 274.029268 190.636483 
L 274.634146 190.335648 
L 275.239024 187.678335 
L 275.843902 186.558336 
L 277.053659 186.149825 
L 277.658537 187.512922 
L 278.263415 188.170786 
L 278.868293 187.146067 
L 279.473171 185.673792 
L 280.078049 187.458078 
L 280.682927 188.76989 
L 281.287805 188.688863 
L 281.892683 189.037568 
L 282.497561 190.040325 
L 283.102439 190.093774 
L 283.707317 190.531227 
L 284.312195 192.069211 
L 284.917073 192.049359 
L 285.521951 189.995525 
L 286.126829 190.429344 
L 286.731707 190.257845 
L 287.336585 189.071981 
L 287.941463 189.665043 
L 288.546341 189.91298 
L 289.15122 190.564843 
L 289.756098 189.347758 
L 290.360976 189.826463 
L 290.965854 190.83048 
L 291.570732 189.11054 
L 292.17561 190.222817 
L 292.780488 192.023655 
L 293.385366 191.168604 
L 293.990244 190.766354 
L 294.595122 190.924181 
L 295.2 189.739207 
L 295.804878 190.004274 
L 296.409756 190.85217 
L 297.014634 190.177501 
L 297.619512 190.458432 
L 298.22439 191.222141 
L 298.829268 191.770099 
L 299.434146 191.089405 
L 301.24878 187.550513 
L 301.853659 189.65609 
L 302.458537 189.917363 
L 303.063415 188.745861 
L 303.668293 190.703954 
L 304.273171 191.112941 
L 304.878049 189.363334 
L 305.482927 189.710051 
L 306.087805 190.449904 
L 306.692683 190.32758 
L 307.297561 189.4234 
L 307.902439 190.338791 
L 308.507317 190.990389 
L 309.112195 190.114261 
L 309.717073 191.192104 
L 310.321951 188.359335 
L 310.926829 187.239178 
L 311.531707 186.802335 
L 312.136585 188.158118 
L 312.741463 190.371432 
L 313.346341 189.791759 
L 313.95122 189.535349 
L 314.556098 189.483435 
L 315.160976 189.966226 
L 315.765854 190.016417 
L 316.370732 190.515883 
L 316.97561 189.240821 
L 317.580488 190.489835 
L 318.185366 192.223335 
L 318.790244 192.067131 
L 319.395122 190.169399 
L 320 189.129894 
L 320.604878 190.058548 
L 321.209756 189.567256 
L 321.814634 189.346233 
L 322.419512 189.392373 
L 323.02439 189.892959 
L 323.629268 190.546199 
L 324.234146 187.906966 
L 324.839024 187.446814 
L 325.443902 190.17858 
L 326.04878 189.072016 
L 326.653659 188.582725 
L 327.258537 189.140362 
L 327.863415 191.101303 
L 328.468293 191.831071 
L 329.073171 190.676339 
L 329.678049 190.038883 
L 330.282927 190.066176 
L 330.887805 190.215396 
L 331.492683 190.098086 
L 332.097561 189.414254 
L 332.702439 191.219912 
L 333.307317 192.006724 
L 333.912195 191.367893 
L 334.517073 189.490913 
L 335.121951 186.985984 
L 335.726829 187.885277 
L 336.936585 189.216583 
L 339.356098 189.636432 
L 339.960976 189.318537 
L 340.565854 189.317983 
L 341.170732 189.048799 
L 341.77561 190.812593 
L 342.380488 193.107172 
L 342.985366 193.078749 
L 343.590244 192.920368 
L 344.195122 191.419113 
L 344.8 189.517844 
L 345.404878 188.965842 
L 346.009756 189.32262 
L 346.614634 190.187144 
L 347.219512 190.093863 
L 347.82439 189.613842 
L 348.429268 189.758477 
L 349.034146 188.815084 
L 350.243902 190.711364 
L 350.84878 189.380943 
L 351.453659 188.935792 
L 352.058537 189.791645 
L 352.663415 190.340352 
L 353.268293 189.94342 
L 353.873171 190.123514 
L 354.478049 190.471868 
L 355.082927 190.387909 
L 356.292683 187.139451 
L 356.897561 190.001418 
L 357.502439 193.494991 
L 358.107317 191.258576 
L 358.712195 189.642333 
L 359.317073 191.759983 
L 359.921951 190.552658 
L 360.526829 189.027473 
L 361.131707 188.253698 
L 362.341463 191.109479 
L 363.55122 189.647945 
L 364.156098 188.99043 
L 364.760976 189.699238 
L 365.365854 190.113873 
L 365.970732 188.120246 
L 366.57561 187.820941 
L 367.180488 189.621748 
L 367.785366 190.671144 
L 368.390244 189.157662 
L 368.995122 188.312033 
L 369.6 189.184049 
L 370.204878 187.548419 
L 370.809756 187.644971 
L 371.414634 189.143616 
L 372.019512 190.020542 
L 372.62439 190.514327 
L 373.229268 191.667619 
L 373.834146 192.136708 
L 374.439024 191.105963 
L 375.043902 190.482507 
L 375.64878 191.703984 
L 376.253659 191.940635 
L 377.463415 191.184657 
L 378.068293 191.487321 
L 378.673171 193.356487 
L 379.278049 192.23086 
L 379.882927 190.684955 
L 380.487805 190.613558 
L 381.092683 190.671331 
L 381.697561 188.390392 
L 382.302439 187.214265 
L 382.907317 188.046428 
L 383.512195 187.770276 
L 384.117073 187.779084 
L 384.721951 186.588534 
L 385.326829 184.614 
L 385.931707 186.638812 
L 386.536585 190.536942 
L 387.141463 189.426871 
L 387.746341 187.307535 
L 388.35122 190.639776 
L 388.956098 191.271243 
L 389.560976 189.840585 
L 390.165854 190.295139 
L 390.770732 192.309737 
L 391.37561 193.556002 
L 391.980488 191.636704 
L 392.585366 191.637107 
L 393.190244 191.211281 
L 393.795122 190.158271 
L 395.004878 189.368366 
L 395.609756 188.707236 
L 396.214634 187.708961 
L 396.819512 186.462959 
L 398.029268 188.325744 
L 398.634146 188.491297 
L 399.843902 191.835638 
L 400.44878 191.73561 
L 401.053659 191.372145 
L 401.658537 193.149501 
L 402.263415 191.68441 
L 402.868293 190.878251 
L 403.473171 192.152851 
L 404.078049 189.987597 
L 404.682927 189.160028 
L 405.287805 189.578239 
L 405.892683 190.199828 
L 406.497561 189.692265 
L 407.102439 188.98501 
L 407.707317 190.308829 
L 408.312195 190.986067 
L 409.521951 186.881718 
L 410.126829 188.211363 
L 411.336585 187.008333 
L 412.546341 189.135632 
L 413.15122 189.723222 
L 413.756098 189.48687 
L 414.360976 188.625865 
L 414.965854 188.721538 
L 415.570732 190.41339 
L 416.17561 191.230567 
L 416.780488 191.73245 
L 417.385366 191.645229 
L 417.990244 191.289336 
L 418.595122 191.120032 
L 419.2 191.383168 
L 419.804878 190.690473 
L 420.409756 190.606524 
L 421.014634 191.453127 
L 421.619512 191.338702 
L 422.22439 190.082728 
L 422.829268 189.410546 
L 423.434146 189.507829 
L 424.039024 188.238801 
L 424.643902 189.125735 
L 425.24878 187.975756 
L 425.853659 185.454846 
L 426.458537 187.396794 
L 427.063415 189.973748 
L 427.668293 190.952889 
L 428.273171 189.679247 
L 428.878049 189.449003 
L 429.482927 192.401679 
L 430.087805 192.978569 
L 430.692683 191.637688 
L 431.297561 192.090673 
L 431.902439 192.840874 
L 432.507317 192.348444 
L 433.112195 189.964228 
L 433.717073 189.068125 
L 434.321951 189.686054 
L 434.926829 189.380916 
L 435.531707 188.730278 
L 436.136585 187.227242 
L 436.741463 187.44698 
L 437.346341 188.196125 
L 437.95122 188.627933 
L 438.556098 188.375437 
L 439.160976 187.534893 
L 439.765854 189.697656 
L 440.370732 191.286338 
L 440.97561 188.825244 
L 441.580488 187.711685 
L 442.185366 189.364528 
L 442.790244 188.348253 
L 443.395122 188.023145 
L 444 189.254797 
L 445.209756 190.065821 
L 445.814634 190.15 
L 446.419512 189.926525 
L 447.02439 188.592123 
L 447.629268 190.289971 
L 448.234146 191.025203 
L 448.839024 190.539617 
L 449.443902 191.534893 
L 450.04878 189.261599 
L 450.653659 189.086301 
L 451.258537 190.88689 
L 451.863415 189.414619 
L 452.468293 188.652014 
L 453.073171 189.913486 
L 454.282927 189.45167 
L 454.887805 188.70975 
L 455.492683 189.264887 
L 456.097561 191.446898 
L 456.702439 190.765651 
L 457.307317 189.788952 
L 457.912195 190.522123 
L 459.121951 191.110608 
L 459.726829 192.40211 
L 460.936585 189.866906 
L 461.541463 191.978008 
L 462.75122 187.252127 
L 463.356098 188.948753 
L 463.960976 188.943719 
L 464.565854 187.399341 
L 465.77561 188.805488 
L 466.380488 189.313473 
L 466.985366 190.24338 
L 467.590244 188.526091 
L 468.195122 188.644354 
L 468.8 190.184674 
L 469.404878 190.596228 
L 470.009756 189.598638 
L 470.614634 189.661077 
L 471.219512 191.585415 
L 471.82439 190.918643 
L 472.429268 190.760421 
L 473.034146 189.731276 
L 473.639024 189.100746 
L 474.243902 189.558252 
L 474.84878 190.290581 
L 475.453659 192.309361 
L 476.058537 192.44775 
L 476.663415 191.710904 
L 477.268293 190.525865 
L 477.873171 190.604001 
L 478.478049 191.466949 
L 479.082927 191.310871 
L 479.687805 191.455533 
L 480.292683 191.444499 
L 480.897561 191.704474 
L 481.502439 191.509915 
L 482.107317 190.355571 
L 482.712195 188.726332 
L 483.317073 188.336267 
L 483.921951 187.690463 
L 484.526829 188.131321 
L 485.131707 189.944507 
L 485.736585 190.621442 
L 486.341463 189.922024 
L 486.946341 188.702988 
L 487.55122 189.286902 
L 488.156098 190.665216 
L 488.760976 191.686068 
L 489.365854 190.341328 
L 489.970732 190.390967 
L 490.57561 190.560707 
L 491.180488 189.159967 
L 491.785366 189.287122 
L 492.390244 187.851631 
L 492.995122 187.346722 
L 493.6 188.22478 
L 494.204878 188.276354 
L 494.809756 187.586028 
L 495.414634 188.528971 
L 496.019512 190.419626 
L 496.62439 191.934012 
L 497.229268 192.389136 
L 497.834146 190.516185 
L 499.043902 188.366365 
L 499.64878 188.975464 
L 500.253659 190.851216 
L 501.463415 189.749852 
L 502.068293 189.927459 
L 502.673171 188.886277 
L 503.278049 188.71741 
L 503.882927 189.781976 
L 504.487805 189.267356 
L 505.092683 190.548002 
L 505.697561 190.992726 
L 506.302439 190.357376 
L 506.907317 191.546017 
L 507.512195 191.943861 
L 508.117073 192.032829 
L 508.721951 191.986956 
L 509.326829 191.804283 
L 510.536585 191.046292 
L 511.746341 189.845525 
L 515.37561 185.681372 
L 515.980488 185.328102 
L 516.585366 185.213656 
L 517.190244 185.402594 
L 517.795122 185.964597 
L 518.4 186.974459 
L 518.4 186.974459 
" style="fill:none;stroke:#ff0000;stroke-linecap:square;stroke-width:2;"/>
   </g>
   <g id="patch_3">
    <path d="M 72 320.4 
L 72 43.2 
" style="fill:none;stroke:#000000;stroke-linecap:square;stroke-linejoin:miter;stroke-width:0.8;"/>
   </g>
   <g id="patch_4">
    <path d="M 518.4 320.4 
L 518.4 43.2 
" style="fill:none;stroke:#000000;stroke-linecap:square;stroke-linejoin:miter;stroke-width:0.8;"/>
   </g>
   <g id="patch_5">
    <path d="M 72 320.4 
L 518.4 320.4 
" style="fill:none;stroke:#000000;stroke-linecap:square;stroke-linejoin:miter;stroke-width:0.8;"/>
   </g>
   <g id="patch_6">
    <path d="M 72 43.2 
L 518.4 43.2 
" style="fill:none;stroke:#000000;stroke-linecap:square;stroke-linejoin:miter;stroke-width:0.8;"/>
   </g>
   <g id="text_16">
    <!-- Front Propogation Speed -->
    <g transform="translate(172.245312 37.2)scale(0.2 -0.2)">
     <defs>
      <path d="M 628 4666 
L 3309 4666 
L 3309 4134 
L 1259 4134 
L 1259 2759 
L 3109 2759 
L 3109 2228 
L 1259 2228 
L 1259 0 
L 628 0 
L 628 4666 
z
" id="DejaVuSans-46" transform="scale(0.015625)"/>
      <path d="M 2631 2963 
Q 2534 3019 2420 3045 
Q 2306 3072 2169 3072 
Q 1681 3072 1420 2755 
Q 1159 2438 1159 1844 
L 1159 0 
L 581 0 
L 581 3500 
L 1159 3500 
L 1159 2956 
Q 1341 3275 1631 3429 
Q 1922 3584 2338 3584 
Q 2397 3584 2469 3576 
Q 2541 3569 2628 3553 
L 2631 2963 
z
" id="DejaVuSans-72" transform="scale(0.015625)"/>
      <path d="M 1172 4494 
L 1172 3500 
L 2356 3500 
L 2356 3053 
L 1172 3053 
L 1172 1153 
Q 1172 725 1289 603 
Q 1406 481 1766 481 
L 2356 481 
L 2356 0 
L 1766 0 
Q 1100 0 847 248 
Q 594 497 594 1153 
L 594 3053 
L 172 3053 
L 172 3500 
L 594 3500 
L 594 4494 
L 1172 4494 
z
" id="DejaVuSans-74" transform="scale(0.015625)"/>
      <path d="M 1259 4147 
L 1259 2394 
L 2053 2394 
Q 2494 2394 2734 2622 
Q 2975 2850 2975 3272 
Q 2975 3691 2734 3919 
Q 2494 4147 2053 4147 
L 1259 4147 
z
M 628 4666 
L 2053 4666 
Q 2838 4666 3239 4311 
Q 3641 3956 3641 3272 
Q 3641 2581 3239 2228 
Q 2838 1875 2053 1875 
L 1259 1875 
L 1259 0 
L 628 0 
L 628 4666 
z
" id="DejaVuSans-50" transform="scale(0.015625)"/>
      <path d="M 2906 1791 
Q 2906 2416 2648 2759 
Q 2391 3103 1925 3103 
Q 1463 3103 1205 2759 
Q 947 2416 947 1791 
Q 947 1169 1205 825 
Q 1463 481 1925 481 
Q 2391 481 2648 825 
Q 2906 1169 2906 1791 
z
M 3481 434 
Q 3481 -459 3084 -895 
Q 2688 -1331 1869 -1331 
Q 1566 -1331 1297 -1286 
Q 1028 -1241 775 -1147 
L 775 -588 
Q 1028 -725 1275 -790 
Q 1522 -856 1778 -856 
Q 2344 -856 2625 -561 
Q 2906 -266 2906 331 
L 2906 616 
Q 2728 306 2450 153 
Q 2172 0 1784 0 
Q 1141 0 747 490 
Q 353 981 353 1791 
Q 353 2603 747 3093 
Q 1141 3584 1784 3584 
Q 2172 3584 2450 3431 
Q 2728 3278 2906 2969 
L 2906 3500 
L 3481 3500 
L 3481 434 
z
" id="DejaVuSans-67" transform="scale(0.015625)"/>
      <path d="M 2194 1759 
Q 1497 1759 1228 1600 
Q 959 1441 959 1056 
Q 959 750 1161 570 
Q 1363 391 1709 391 
Q 2188 391 2477 730 
Q 2766 1069 2766 1631 
L 2766 1759 
L 2194 1759 
z
M 3341 1997 
L 3341 0 
L 2766 0 
L 2766 531 
Q 2569 213 2275 61 
Q 1981 -91 1556 -91 
Q 1019 -91 701 211 
Q 384 513 384 1019 
Q 384 1609 779 1909 
Q 1175 2209 1959 2209 
L 2766 2209 
L 2766 2266 
Q 2766 2663 2505 2880 
Q 2244 3097 1772 3097 
Q 1472 3097 1187 3025 
Q 903 2953 641 2809 
L 641 3341 
Q 956 3463 1253 3523 
Q 1550 3584 1831 3584 
Q 2591 3584 2966 3190 
Q 3341 2797 3341 1997 
z
" id="DejaVuSans-61" transform="scale(0.015625)"/>
     </defs>
     <use xlink:href="#DejaVuSans-46"/>
     <use x="50.269531" xlink:href="#DejaVuSans-72"/>
     <use x="89.132812" xlink:href="#DejaVuSans-6f"/>
     <use x="150.314453" xlink:href="#DejaVuSans-6e"/>
     <use x="213.693359" xlink:href="#DejaVuSans-74"/>
     <use x="252.902344" xlink:href="#DejaVuSans-20"/>
     <use x="284.689453" xlink:href="#DejaVuSans-50"/>
     <use x="343.242188" xlink:href="#DejaVuSans-72"/>
     <use x="382.105469" xlink:href="#DejaVuSans-6f"/>
     <use x="443.287109" xlink:href="#DejaVuSans-70"/>
     <use x="506.763672" xlink:href="#DejaVuSans-6f"/>
     <use x="567.945312" xlink:href="#DejaVuSans-67"/>
     <use x="631.421875" xlink:href="#DejaVuSans-61"/>
     <use x="692.701172" xlink:href="#DejaVuSans-74"/>
     <use x="731.910156" xlink:href="#DejaVuSans-69"/>
     <use x="759.693359" xlink:href="#DejaVuSans-6f"/>
     <use x="820.875" xlink:href="#DejaVuSans-6e"/>
     <use x="884.253906" xlink:href="#DejaVuSans-20"/>
     <use x="916.041016" xlink:href="#DejaVuSans-53"/>
     <use x="979.517578" xlink:href="#DejaVuSans-70"/>
     <use x="1042.994141" xlink:href="#DejaVuSans-65"/>
     <use x="1104.517578" xlink:href="#DejaVuSans-65"/>
     <use x="1166.041016" xlink:href="#DejaVuSans-64"/>
    </g>
   </g>
   <g id="legend_1">
    <g id="patch_7">
     <path d="M 325.967812 111.175687 
L 508.6 111.175687 
Q 511.4 111.175687 511.4 108.375687 
L 511.4 53 
Q 511.4 50.2 508.6 50.2 
L 325.967812 50.2 
Q 323.167812 50.2 323.167812 53 
L 323.167812 108.375687 
Q 323.167812 111.175687 325.967812 111.175687 
z
" style="fill:#ffffff;opacity:0.8;stroke:#cccccc;stroke-linejoin:miter;"/>
    </g>
    <g id="line2d_16">
     <path d="M 328.767812 61.537812 
L 356.767812 61.537812 
" style="fill:none;stroke:#ff0000;stroke-linecap:square;stroke-width:2;"/>
    </g>
    <g id="line2d_17"/>
    <g id="text_17">
     <!-- Front speed -->
     <g transform="translate(367.967812 66.437812)scale(0.14 -0.14)">
      <use xlink:href="#DejaVuSans-46"/>
      <use x="50.269531" xlink:href="#DejaVuSans-72"/>
      <use x="89.132812" xlink:href="#DejaVuSans-6f"/>
      <use x="150.314453" xlink:href="#DejaVuSans-6e"/>
      <use x="213.693359" xlink:href="#DejaVuSans-74"/>
      <use x="252.902344" xlink:href="#DejaVuSans-20"/>
      <use x="284.689453" xlink:href="#DejaVuSans-73"/>
      <use x="336.789062" xlink:href="#DejaVuSans-70"/>
      <use x="400.265625" xlink:href="#DejaVuSans-65"/>
      <use x="461.789062" xlink:href="#DejaVuSans-65"/>
      <use x="523.3125" xlink:href="#DejaVuSans-64"/>
     </g>
    </g>
    <g id="line2d_18">
     <path d="M 328.767812 91.381437 
L 356.767812 91.381437 
" style="fill:none;stroke:#000000;stroke-dasharray:5.55,2.4;stroke-dashoffset:0;stroke-width:1.5;"/>
    </g>
    <g id="line2d_19"/>
    <g id="text_18">
     <!-- Steady state -->
     <g transform="translate(367.967812 86.987187)scale(0.14 -0.14)">
      <defs>
       <path d="M 2059 -325 
Q 1816 -950 1584 -1140 
Q 1353 -1331 966 -1331 
L 506 -1331 
L 506 -850 
L 844 -850 
Q 1081 -850 1212 -737 
Q 1344 -625 1503 -206 
L 1606 56 
L 191 3500 
L 800 3500 
L 1894 763 
L 2988 3500 
L 3597 3500 
L 2059 -325 
z
" id="DejaVuSans-79" transform="scale(0.015625)"/>
      </defs>
      <use xlink:href="#DejaVuSans-53"/>
      <use x="63.476562" xlink:href="#DejaVuSans-74"/>
      <use x="102.685547" xlink:href="#DejaVuSans-65"/>
      <use x="164.208984" xlink:href="#DejaVuSans-61"/>
      <use x="225.488281" xlink:href="#DejaVuSans-64"/>
      <use x="288.964844" xlink:href="#DejaVuSans-79"/>
      <use x="348.144531" xlink:href="#DejaVuSans-20"/>
      <use x="379.931641" xlink:href="#DejaVuSans-73"/>
      <use x="432.03125" xlink:href="#DejaVuSans-74"/>
      <use x="471.240234" xlink:href="#DejaVuSans-61"/>
      <use x="532.519531" xlink:href="#DejaVuSans-74"/>
      <use x="571.728516" xlink:href="#DejaVuSans-65"/>
     </g>
     <!-- speed = 0.85 mm/s -->
     <g transform="translate(367.967812 102.664125)scale(0.14 -0.14)">
      <defs>
       <path d="M 678 2906 
L 4684 2906 
L 4684 2381 
L 678 2381 
L 678 2906 
z
M 678 1631 
L 4684 1631 
L 4684 1100 
L 678 1100 
L 678 1631 
z
" id="DejaVuSans-3d" transform="scale(0.015625)"/>
       <path d="M 2034 2216 
Q 1584 2216 1326 1975 
Q 1069 1734 1069 1313 
Q 1069 891 1326 650 
Q 1584 409 2034 409 
Q 2484 409 2743 651 
Q 3003 894 3003 1313 
Q 3003 1734 2745 1975 
Q 2488 2216 2034 2216 
z
M 1403 2484 
Q 997 2584 770 2862 
Q 544 3141 544 3541 
Q 544 4100 942 4425 
Q 1341 4750 2034 4750 
Q 2731 4750 3128 4425 
Q 3525 4100 3525 3541 
Q 3525 3141 3298 2862 
Q 3072 2584 2669 2484 
Q 3125 2378 3379 2068 
Q 3634 1759 3634 1313 
Q 3634 634 3220 271 
Q 2806 -91 2034 -91 
Q 1263 -91 848 271 
Q 434 634 434 1313 
Q 434 1759 690 2068 
Q 947 2378 1403 2484 
z
M 1172 3481 
Q 1172 3119 1398 2916 
Q 1625 2713 2034 2713 
Q 2441 2713 2670 2916 
Q 2900 3119 2900 3481 
Q 2900 3844 2670 4047 
Q 2441 4250 2034 4250 
Q 1625 4250 1398 4047 
Q 1172 3844 1172 3481 
z
" id="DejaVuSans-38" transform="scale(0.015625)"/>
      </defs>
      <use xlink:href="#DejaVuSans-73"/>
      <use x="52.099609" xlink:href="#DejaVuSans-70"/>
      <use x="115.576172" xlink:href="#DejaVuSans-65"/>
      <use x="177.099609" xlink:href="#DejaVuSans-65"/>
      <use x="238.623047" xlink:href="#DejaVuSans-64"/>
      <use x="302.099609" xlink:href="#DejaVuSans-20"/>
      <use x="333.886719" xlink:href="#DejaVuSans-3d"/>
      <use x="417.675781" xlink:href="#DejaVuSans-20"/>
      <use x="449.462891" xlink:href="#DejaVuSans-30"/>
      <use x="513.085938" xlink:href="#DejaVuSans-2e"/>
      <use x="544.873047" xlink:href="#DejaVuSans-38"/>
      <use x="608.496094" xlink:href="#DejaVuSans-35"/>
      <use x="672.119141" xlink:href="#DejaVuSans-20"/>
      <use x="703.90625" xlink:href="#DejaVuSans-6d"/>
      <use x="801.318359" xlink:href="#DejaVuSans-6d"/>
      <use x="898.730469" xlink:href="#DejaVuSans-2f"/>
      <use x="932.421875" xlink:href="#DejaVuSans-73"/>
     </g>
    </g>
   </g>
  </g>
 </g>
 <defs>
  <clipPath id="p857f5b40f6">
   <rect height="277.2" width="446.4" x="72" y="43.2"/>
  </clipPath>
 </defs>
</svg>
