<?xml version="1.0" encoding="utf-8" standalone="no"?>
<!DOCTYPE svg PUBLIC "-//W3C//DTD SVG 1.1//EN"
  "http://www.w3.org/Graphics/SVG/1.1/DTD/svg11.dtd">
<svg height="360pt" version="1.1" viewBox="0 0 576 360" width="576pt" xmlns="http://www.w3.org/2000/svg" xmlns:xlink="http://www.w3.org/1999/xlink">
 <metadata>
  <rdf:RDF xmlns:cc="http://creativecommons.org/ns#" xmlns:dc="http://purl.org/dc/elements/1.1/" xmlns:rdf="http://www.w3.org/1999/02/22-rdf-syntax-ns#">
   <cc:Work>
    <dc:type rdf:resource="http://purl.org/dc/dcmitype/StillImage"/>
    <dc:date>2022-06-30T14:16:32.018669</dc:date>
    <dc:format>image/svg+xml</dc:format>
    <dc:creator>
     <cc:Agent>
      <dc:title>Matplotlib v3.4.3, https://matplotlib.org/</dc:title>
     </cc:Agent>
    </dc:creator>
   </cc:Work>
  </rdf:RDF>
 </metadata>
 <defs>
  <style type="text/css">*{stroke-linecap:butt;stroke-linejoin:round;}</style>
 </defs>
 <g id="figure_1">
  <g id="patch_1">
   <path d="M 0 360 
L 576 360 
L 576 0 
L 0 0 
z
" style="fill:#ffffff;"/>
  </g>
  <g id="axes_1">
   <g id="patch_2">
    <path d="M 72 320.4 
L 518.4 320.4 
L 518.4 43.2 
L 72 43.2 
z
" style="fill:#ffffff;"/>
   </g>
   <g id="PolyCollection_1">
    <defs>
     <path d="M 72 -153.22002 
L 72 -158.095846 
L 72.741528 -158.095846 
L 73.483056 -158.095846 
L 74.224585 -158.095846 
L 74.966113 -158.095846 
L 75.707641 -158.095846 
L 76.449169 -158.095846 
L 77.190698 -158.095846 
L 77.932226 -158.095846 
L 78.673754 -158.095846 
L 79.415282 -158.095846 
L 80.156811 -158.095846 
L 80.898339 -158.095846 
L 81.639867 -158.095846 
L 82.381395 -158.095846 
L 83.122924 -158.095846 
L 83.864452 -158.095846 
L 84.60598 -158.095846 
L 85.347508 -158.095846 
L 86.089037 -158.095846 
L 86.830565 -158.095846 
L 87.572093 -158.095846 
L 88.313621 -158.095846 
L 89.05515 -158.095846 
L 89.796678 -158.095846 
L 90.538206 -158.095846 
L 91.279734 -158.095846 
L 92.021262 -158.095846 
L 92.762791 -158.095846 
L 93.504319 -158.095846 
L 94.245847 -158.095846 
L 94.987375 -158.095846 
L 95.728904 -158.095846 
L 96.470432 -158.095846 
L 97.21196 -158.095846 
L 97.953488 -158.095846 
L 98.695017 -158.095846 
L 99.436545 -158.095846 
L 100.178073 -158.095846 
L 100.919601 -158.095846 
L 101.66113 -158.095846 
L 102.402658 -158.095846 
L 103.144186 -158.095846 
L 103.885714 -158.095846 
L 104.627243 -158.095846 
L 105.368771 -158.095846 
L 106.110299 -158.095846 
L 106.851827 -158.095846 
L 107.593355 -158.095846 
L 108.334884 -158.095846 
L 109.076412 -158.095846 
L 109.81794 -158.095846 
L 110.559468 -158.095846 
L 111.300997 -158.095846 
L 112.042525 -158.095846 
L 112.784053 -158.095846 
L 113.525581 -158.095846 
L 114.26711 -158.095846 
L 115.008638 -158.095846 
L 115.750166 -158.095846 
L 116.491694 -158.095846 
L 117.233223 -158.095846 
L 117.974751 -158.095846 
L 118.716279 -158.095846 
L 119.457807 -158.095846 
L 120.199336 -158.095846 
L 120.940864 -158.095846 
L 121.682392 -158.095846 
L 122.42392 -158.095846 
L 123.165449 -158.095846 
L 123.906977 -158.095846 
L 124.648505 -158.095846 
L 125.390033 -158.095846 
L 126.131561 -158.095846 
L 126.87309 -158.095846 
L 127.614618 -158.095846 
L 128.356146 -158.095846 
L 129.097674 -158.095846 
L 129.839203 -158.095846 
L 130.580731 -158.095846 
L 131.322259 -158.095846 
L 132.063787 -158.095846 
L 132.805316 -158.095846 
L 133.546844 -158.095846 
L 134.288372 -158.095846 
L 135.0299 -158.095846 
L 135.771429 -158.095846 
L 136.512957 -158.095846 
L 137.254485 -158.095846 
L 137.996013 -158.095846 
L 138.737542 -158.095846 
L 139.47907 -158.095846 
L 140.220598 -158.095846 
L 140.962126 -158.095846 
L 141.703654 -158.095846 
L 142.445183 -158.095846 
L 143.186711 -158.095846 
L 143.928239 -158.095846 
L 144.669767 -158.095846 
L 145.411296 -158.095846 
L 146.152824 -158.095846 
L 146.894352 -158.095846 
L 147.63588 -158.095846 
L 148.377409 -158.095846 
L 149.118937 -158.095846 
L 149.860465 -158.095846 
L 150.601993 -158.095846 
L 151.343522 -158.095846 
L 152.08505 -158.095846 
L 152.826578 -158.095846 
L 153.568106 -158.095846 
L 154.309635 -158.095846 
L 155.051163 -158.095846 
L 155.792691 -158.095846 
L 156.534219 -158.095846 
L 157.275748 -158.095846 
L 158.017276 -158.095846 
L 158.758804 -158.095846 
L 159.500332 -158.095846 
L 160.24186 -158.095846 
L 160.983389 -158.095846 
L 161.724917 -158.095846 
L 162.466445 -158.095846 
L 163.207973 -158.095846 
L 163.949502 -158.095846 
L 164.69103 -158.095846 
L 165.432558 -158.095846 
L 166.174086 -158.095846 
L 166.915615 -158.095846 
L 167.657143 -158.095846 
L 168.398671 -158.095846 
L 169.140199 -158.095846 
L 169.881728 -158.095846 
L 170.623256 -158.095846 
L 171.364784 -158.095846 
L 172.106312 -158.095846 
L 172.847841 -158.095846 
L 173.589369 -158.095846 
L 174.330897 -158.095846 
L 175.072425 -158.095846 
L 175.813953 -158.095846 
L 176.555482 -158.095846 
L 177.29701 -158.095846 
L 178.038538 -158.095846 
L 178.780066 -158.095846 
L 179.521595 -158.095846 
L 180.263123 -158.095846 
L 181.004651 -158.095846 
L 181.746179 -158.095846 
L 182.487708 -158.095846 
L 183.229236 -158.095846 
L 183.970764 -158.095846 
L 184.712292 -158.095846 
L 185.453821 -158.095846 
L 186.195349 -158.095846 
L 186.936877 -158.095846 
L 187.678405 -158.095846 
L 188.419934 -158.095846 
L 189.161462 -158.095846 
L 189.90299 -158.095846 
L 190.644518 -158.095846 
L 191.386047 -158.095846 
L 192.127575 -158.095846 
L 192.869103 -158.095846 
L 193.610631 -158.095846 
L 194.352159 -158.095846 
L 195.093688 -158.095846 
L 195.835216 -158.095846 
L 196.576744 -158.095846 
L 197.318272 -158.095846 
L 198.059801 -158.095846 
L 198.801329 -158.095846 
L 199.542857 -158.095846 
L 200.284385 -158.095846 
L 201.025914 -158.095846 
L 201.767442 -158.095846 
L 202.50897 -158.095846 
L 203.250498 -158.095846 
L 203.992027 -158.095846 
L 204.733555 -158.095846 
L 205.475083 -158.095846 
L 206.216611 -158.095846 
L 206.95814 -158.095846 
L 207.699668 -158.095846 
L 208.441196 -158.095846 
L 209.182724 -158.095846 
L 209.924252 -158.095846 
L 210.665781 -158.095846 
L 211.407309 -158.095846 
L 212.148837 -158.095846 
L 212.890365 -158.095846 
L 213.631894 -158.095846 
L 214.373422 -158.095846 
L 215.11495 -158.095846 
L 215.856478 -158.095846 
L 216.598007 -158.095846 
L 217.339535 -158.095846 
L 218.081063 -158.095846 
L 218.822591 -158.095846 
L 219.56412 -158.095846 
L 220.305648 -158.095846 
L 221.047176 -158.095846 
L 221.788704 -158.095846 
L 222.530233 -158.095846 
L 223.271761 -158.095846 
L 224.013289 -158.095846 
L 224.754817 -158.095846 
L 225.496346 -158.095846 
L 226.237874 -158.095846 
L 226.979402 -158.095846 
L 227.72093 -158.095846 
L 228.462458 -158.095846 
L 229.203987 -158.095846 
L 229.945515 -158.095846 
L 230.687043 -158.095846 
L 231.428571 -158.095846 
L 232.1701 -158.095846 
L 232.911628 -158.095846 
L 233.653156 -158.095846 
L 234.394684 -158.095846 
L 235.136213 -158.095846 
L 235.877741 -158.095846 
L 236.619269 -158.095846 
L 237.360797 -158.095846 
L 238.102326 -158.095846 
L 238.843854 -158.095846 
L 239.585382 -158.095846 
L 240.32691 -158.095846 
L 241.068439 -158.095846 
L 241.809967 -158.095846 
L 242.551495 -158.095846 
L 243.293023 -158.095846 
L 244.034551 -158.095846 
L 244.77608 -158.095846 
L 245.517608 -158.095846 
L 246.259136 -158.095846 
L 247.000664 -158.095846 
L 247.742193 -158.095846 
L 248.483721 -158.095846 
L 249.225249 -158.095846 
L 249.966777 -158.095846 
L 250.708306 -158.095846 
L 251.449834 -158.095846 
L 252.191362 -158.095846 
L 252.93289 -158.095846 
L 253.674419 -158.095846 
L 254.415947 -158.095846 
L 255.157475 -158.095846 
L 255.899003 -158.095846 
L 256.640532 -158.095846 
L 257.38206 -158.095846 
L 258.123588 -158.095846 
L 258.865116 -158.095846 
L 259.606645 -158.095846 
L 260.348173 -158.095846 
L 261.089701 -158.095846 
L 261.831229 -158.095846 
L 262.572757 -158.095846 
L 263.314286 -158.095846 
L 264.055814 -158.095846 
L 264.797342 -158.095846 
L 265.53887 -158.095846 
L 266.280399 -158.095846 
L 267.021927 -158.095846 
L 267.763455 -158.095846 
L 268.504983 -158.095846 
L 269.246512 -158.095846 
L 269.98804 -158.095846 
L 270.729568 -158.095846 
L 271.471096 -158.095846 
L 272.212625 -158.095846 
L 272.954153 -158.095846 
L 273.695681 -158.095846 
L 274.437209 -158.095846 
L 275.178738 -158.095846 
L 275.920266 -158.095846 
L 276.661794 -158.095846 
L 277.403322 -158.095846 
L 278.14485 -158.095846 
L 278.886379 -158.095846 
L 279.627907 -158.095846 
L 280.369435 -158.095846 
L 281.110963 -158.095846 
L 281.852492 -158.095846 
L 282.59402 -158.095846 
L 283.335548 -158.095846 
L 284.077076 -158.095846 
L 284.818605 -158.095846 
L 285.560133 -158.095846 
L 286.301661 -158.095846 
L 287.043189 -158.095846 
L 287.784718 -158.095846 
L 288.526246 -158.095846 
L 289.267774 -158.095846 
L 290.009302 -158.095846 
L 290.750831 -158.095846 
L 291.492359 -158.095846 
L 292.233887 -158.095846 
L 292.975415 -158.095846 
L 293.716944 -158.095846 
L 294.458472 -158.095846 
L 295.2 -158.095846 
L 295.941528 -158.095846 
L 296.683056 -158.095846 
L 297.424585 -158.095846 
L 298.166113 -158.095846 
L 298.907641 -158.095846 
L 299.649169 -158.095846 
L 300.390698 -158.095846 
L 301.132226 -158.095846 
L 301.873754 -158.095846 
L 302.615282 -158.095846 
L 303.356811 -158.095846 
L 304.098339 -158.095846 
L 304.839867 -158.095846 
L 305.581395 -158.095846 
L 306.322924 -158.095846 
L 307.064452 -158.095846 
L 307.80598 -158.095846 
L 308.547508 -158.095846 
L 309.289037 -158.095846 
L 310.030565 -158.095846 
L 310.772093 -158.095846 
L 311.513621 -158.095846 
L 312.25515 -158.095846 
L 312.996678 -158.095846 
L 313.738206 -158.095846 
L 314.479734 -158.095846 
L 315.221262 -158.095846 
L 315.962791 -158.095846 
L 316.704319 -158.095846 
L 317.445847 -158.095846 
L 318.187375 -158.095846 
L 318.928904 -158.095846 
L 319.670432 -158.095846 
L 320.41196 -158.095846 
L 321.153488 -158.095846 
L 321.895017 -158.095846 
L 322.636545 -158.095846 
L 323.378073 -158.095846 
L 324.119601 -158.095846 
L 324.86113 -158.095846 
L 325.602658 -158.095846 
L 326.344186 -158.095846 
L 327.085714 -158.095846 
L 327.827243 -158.095846 
L 328.568771 -158.095846 
L 329.310299 -158.095846 
L 330.051827 -158.095846 
L 330.793355 -158.095846 
L 331.534884 -158.095846 
L 332.276412 -158.095846 
L 333.01794 -158.095846 
L 333.759468 -158.095846 
L 334.500997 -158.095846 
L 335.242525 -158.095846 
L 335.984053 -158.095846 
L 336.725581 -158.095846 
L 337.46711 -158.095846 
L 338.208638 -158.095846 
L 338.950166 -158.095846 
L 339.691694 -158.095846 
L 340.433223 -158.095846 
L 341.174751 -158.095846 
L 341.916279 -158.095846 
L 342.657807 -158.095846 
L 343.399336 -158.095846 
L 344.140864 -158.095846 
L 344.882392 -158.095846 
L 345.62392 -158.095846 
L 346.365449 -158.095846 
L 347.106977 -158.095846 
L 347.848505 -158.095846 
L 348.590033 -158.095846 
L 349.331561 -158.095846 
L 350.07309 -158.095846 
L 350.814618 -158.095846 
L 351.556146 -158.095846 
L 352.297674 -158.095846 
L 353.039203 -158.095846 
L 353.780731 -158.095846 
L 354.522259 -158.095846 
L 355.263787 -158.095846 
L 356.005316 -158.095846 
L 356.746844 -158.095846 
L 357.488372 -158.095846 
L 358.2299 -158.095846 
L 358.971429 -158.095846 
L 359.712957 -158.095846 
L 360.454485 -158.095846 
L 361.196013 -158.095846 
L 361.937542 -158.095846 
L 362.67907 -158.095846 
L 363.420598 -158.095846 
L 364.162126 -158.095846 
L 364.903654 -158.095846 
L 365.645183 -158.095846 
L 366.386711 -158.095846 
L 367.128239 -158.095846 
L 367.869767 -158.095846 
L 368.611296 -158.095846 
L 369.352824 -158.095846 
L 370.094352 -158.095846 
L 370.83588 -158.095846 
L 371.577409 -158.095846 
L 372.318937 -158.095846 
L 373.060465 -158.095846 
L 373.801993 -158.095846 
L 374.543522 -158.095846 
L 375.28505 -158.095846 
L 376.026578 -158.095846 
L 376.768106 -158.095846 
L 377.509635 -158.095846 
L 378.251163 -158.095846 
L 378.992691 -158.095846 
L 379.734219 -158.095846 
L 380.475748 -158.095846 
L 381.217276 -158.095846 
L 381.958804 -158.095846 
L 382.700332 -158.095846 
L 383.44186 -158.095846 
L 384.183389 -158.095846 
L 384.924917 -158.095846 
L 385.666445 -158.095846 
L 386.407973 -158.095846 
L 387.149502 -158.095846 
L 387.89103 -158.095846 
L 388.632558 -158.095846 
L 389.374086 -158.095846 
L 390.115615 -158.095846 
L 390.857143 -158.095846 
L 391.598671 -158.095846 
L 392.340199 -158.095846 
L 393.081728 -158.095846 
L 393.823256 -158.095846 
L 394.564784 -158.095846 
L 395.306312 -158.095846 
L 396.047841 -158.095846 
L 396.789369 -158.095846 
L 397.530897 -158.095846 
L 398.272425 -158.095846 
L 399.013953 -158.095846 
L 399.755482 -158.095846 
L 400.49701 -158.095846 
L 401.238538 -158.095846 
L 401.980066 -158.095846 
L 402.721595 -158.095846 
L 403.463123 -158.095846 
L 404.204651 -158.095846 
L 404.946179 -158.095846 
L 405.687708 -158.095846 
L 406.429236 -158.095846 
L 407.170764 -158.095846 
L 407.912292 -158.095846 
L 408.653821 -158.095846 
L 409.395349 -158.095846 
L 410.136877 -158.095846 
L 410.878405 -158.095846 
L 411.619934 -158.095846 
L 412.361462 -158.095846 
L 413.10299 -158.095846 
L 413.844518 -158.095846 
L 414.586047 -158.095846 
L 415.327575 -158.095846 
L 416.069103 -158.095846 
L 416.810631 -158.095846 
L 417.552159 -158.095846 
L 418.293688 -158.095846 
L 419.035216 -158.095846 
L 419.776744 -158.095846 
L 420.518272 -158.095846 
L 421.259801 -158.095846 
L 422.001329 -158.095846 
L 422.742857 -158.095846 
L 423.484385 -158.095846 
L 424.225914 -158.095846 
L 424.967442 -158.095846 
L 425.70897 -158.095846 
L 426.450498 -158.095846 
L 427.192027 -158.095846 
L 427.933555 -158.095846 
L 428.675083 -158.095846 
L 429.416611 -158.095846 
L 430.15814 -158.095846 
L 430.899668 -158.095846 
L 431.641196 -158.095846 
L 432.382724 -158.095846 
L 433.124252 -158.095846 
L 433.865781 -158.095846 
L 434.607309 -158.095846 
L 435.348837 -158.095846 
L 436.090365 -158.095846 
L 436.831894 -158.095846 
L 437.573422 -158.095846 
L 438.31495 -158.095846 
L 439.056478 -158.095846 
L 439.798007 -158.095846 
L 440.539535 -158.095846 
L 441.281063 -158.095846 
L 442.022591 -158.095846 
L 442.76412 -158.095846 
L 443.505648 -158.095846 
L 444.247176 -158.095846 
L 444.988704 -158.095846 
L 445.730233 -158.095846 
L 446.471761 -158.095846 
L 447.213289 -158.095846 
L 447.954817 -158.095846 
L 448.696346 -158.095846 
L 449.437874 -158.095846 
L 450.179402 -158.095846 
L 450.92093 -158.095846 
L 451.662458 -158.095846 
L 452.403987 -158.095846 
L 453.145515 -158.095846 
L 453.887043 -158.095846 
L 454.628571 -158.095846 
L 455.3701 -158.095846 
L 456.111628 -158.095846 
L 456.853156 -158.095846 
L 457.594684 -158.095846 
L 458.336213 -158.095846 
L 459.077741 -158.095846 
L 459.819269 -158.095846 
L 460.560797 -158.095846 
L 461.302326 -158.095846 
L 462.043854 -158.095846 
L 462.785382 -158.095846 
L 463.52691 -158.095846 
L 464.268439 -158.095846 
L 465.009967 -158.095846 
L 465.751495 -158.095846 
L 466.493023 -158.095846 
L 467.234551 -158.095846 
L 467.97608 -158.095846 
L 468.717608 -158.095846 
L 469.459136 -158.095846 
L 470.200664 -158.095846 
L 470.942193 -158.095846 
L 471.683721 -158.095846 
L 472.425249 -158.095846 
L 473.166777 -158.095846 
L 473.908306 -158.095846 
L 474.649834 -158.095846 
L 475.391362 -158.095846 
L 476.13289 -158.095846 
L 476.874419 -158.095846 
L 477.615947 -158.095846 
L 478.357475 -158.095846 
L 479.099003 -158.095846 
L 479.840532 -158.095846 
L 480.58206 -158.095846 
L 481.323588 -158.095846 
L 482.065116 -158.095846 
L 482.806645 -158.095846 
L 483.548173 -158.095846 
L 484.289701 -158.095846 
L 485.031229 -158.095846 
L 485.772757 -158.095846 
L 486.514286 -158.095846 
L 487.255814 -158.095846 
L 487.997342 -158.095846 
L 488.73887 -158.095846 
L 489.480399 -158.095846 
L 490.221927 -158.095846 
L 490.963455 -158.095846 
L 491.704983 -158.095846 
L 492.446512 -158.095846 
L 493.18804 -158.095846 
L 493.929568 -158.095846 
L 494.671096 -158.095846 
L 495.412625 -158.095846 
L 496.154153 -158.095846 
L 496.895681 -158.095846 
L 497.637209 -158.095846 
L 498.378738 -158.095846 
L 499.120266 -158.095846 
L 499.861794 -158.095846 
L 500.603322 -158.095846 
L 501.34485 -158.095846 
L 502.086379 -158.095846 
L 502.827907 -158.095846 
L 503.569435 -158.095846 
L 504.310963 -158.095846 
L 505.052492 -158.095846 
L 505.79402 -158.095846 
L 506.535548 -158.095846 
L 507.277076 -158.095846 
L 508.018605 -158.095846 
L 508.760133 -158.095846 
L 509.501661 -158.095846 
L 510.243189 -158.095846 
L 510.984718 -158.095846 
L 511.726246 -158.095846 
L 512.467774 -158.095846 
L 513.209302 -158.095846 
L 513.950831 -158.095846 
L 514.692359 -158.095846 
L 515.433887 -158.095846 
L 516.175415 -158.095846 
L 516.916944 -158.095846 
L 517.658472 -158.095846 
L 518.4 -158.095846 
L 518.4 -153.22002 
L 518.4 -153.22002 
L 517.658472 -153.22002 
L 516.916944 -153.22002 
L 516.175415 -153.22002 
L 515.433887 -153.22002 
L 514.692359 -153.22002 
L 513.950831 -153.22002 
L 513.209302 -153.22002 
L 512.467774 -153.22002 
L 511.726246 -153.22002 
L 510.984718 -153.22002 
L 510.243189 -153.22002 
L 509.501661 -153.22002 
L 508.760133 -153.22002 
L 508.018605 -153.22002 
L 507.277076 -153.22002 
L 506.535548 -153.22002 
L 505.79402 -153.22002 
L 505.052492 -153.22002 
L 504.310963 -153.22002 
L 503.569435 -153.22002 
L 502.827907 -153.22002 
L 502.086379 -153.22002 
L 501.34485 -153.22002 
L 500.603322 -153.22002 
L 499.861794 -153.22002 
L 499.120266 -153.22002 
L 498.378738 -153.22002 
L 497.637209 -153.22002 
L 496.895681 -153.22002 
L 496.154153 -153.22002 
L 495.412625 -153.22002 
L 494.671096 -153.22002 
L 493.929568 -153.22002 
L 493.18804 -153.22002 
L 492.446512 -153.22002 
L 491.704983 -153.22002 
L 490.963455 -153.22002 
L 490.221927 -153.22002 
L 489.480399 -153.22002 
L 488.73887 -153.22002 
L 487.997342 -153.22002 
L 487.255814 -153.22002 
L 486.514286 -153.22002 
L 485.772757 -153.22002 
L 485.031229 -153.22002 
L 484.289701 -153.22002 
L 483.548173 -153.22002 
L 482.806645 -153.22002 
L 482.065116 -153.22002 
L 481.323588 -153.22002 
L 480.58206 -153.22002 
L 479.840532 -153.22002 
L 479.099003 -153.22002 
L 478.357475 -153.22002 
L 477.615947 -153.22002 
L 476.874419 -153.22002 
L 476.13289 -153.22002 
L 475.391362 -153.22002 
L 474.649834 -153.22002 
L 473.908306 -153.22002 
L 473.166777 -153.22002 
L 472.425249 -153.22002 
L 471.683721 -153.22002 
L 470.942193 -153.22002 
L 470.200664 -153.22002 
L 469.459136 -153.22002 
L 468.717608 -153.22002 
L 467.97608 -153.22002 
L 467.234551 -153.22002 
L 466.493023 -153.22002 
L 465.751495 -153.22002 
L 465.009967 -153.22002 
L 464.268439 -153.22002 
L 463.52691 -153.22002 
L 462.785382 -153.22002 
L 462.043854 -153.22002 
L 461.302326 -153.22002 
L 460.560797 -153.22002 
L 459.819269 -153.22002 
L 459.077741 -153.22002 
L 458.336213 -153.22002 
L 457.594684 -153.22002 
L 456.853156 -153.22002 
L 456.111628 -153.22002 
L 455.3701 -153.22002 
L 454.628571 -153.22002 
L 453.887043 -153.22002 
L 453.145515 -153.22002 
L 452.403987 -153.22002 
L 451.662458 -153.22002 
L 450.92093 -153.22002 
L 450.179402 -153.22002 
L 449.437874 -153.22002 
L 448.696346 -153.22002 
L 447.954817 -153.22002 
L 447.213289 -153.22002 
L 446.471761 -153.22002 
L 445.730233 -153.22002 
L 444.988704 -153.22002 
L 444.247176 -153.22002 
L 443.505648 -153.22002 
L 442.76412 -153.22002 
L 442.022591 -153.22002 
L 441.281063 -153.22002 
L 440.539535 -153.22002 
L 439.798007 -153.22002 
L 439.056478 -153.22002 
L 438.31495 -153.22002 
L 437.573422 -153.22002 
L 436.831894 -153.22002 
L 436.090365 -153.22002 
L 435.348837 -153.22002 
L 434.607309 -153.22002 
L 433.865781 -153.22002 
L 433.124252 -153.22002 
L 432.382724 -153.22002 
L 431.641196 -153.22002 
L 430.899668 -153.22002 
L 430.15814 -153.22002 
L 429.416611 -153.22002 
L 428.675083 -153.22002 
L 427.933555 -153.22002 
L 427.192027 -153.22002 
L 426.450498 -153.22002 
L 425.70897 -153.22002 
L 424.967442 -153.22002 
L 424.225914 -153.22002 
L 423.484385 -153.22002 
L 422.742857 -153.22002 
L 422.001329 -153.22002 
L 421.259801 -153.22002 
L 420.518272 -153.22002 
L 419.776744 -153.22002 
L 419.035216 -153.22002 
L 418.293688 -153.22002 
L 417.552159 -153.22002 
L 416.810631 -153.22002 
L 416.069103 -153.22002 
L 415.327575 -153.22002 
L 414.586047 -153.22002 
L 413.844518 -153.22002 
L 413.10299 -153.22002 
L 412.361462 -153.22002 
L 411.619934 -153.22002 
L 410.878405 -153.22002 
L 410.136877 -153.22002 
L 409.395349 -153.22002 
L 408.653821 -153.22002 
L 407.912292 -153.22002 
L 407.170764 -153.22002 
L 406.429236 -153.22002 
L 405.687708 -153.22002 
L 404.946179 -153.22002 
L 404.204651 -153.22002 
L 403.463123 -153.22002 
L 402.721595 -153.22002 
L 401.980066 -153.22002 
L 401.238538 -153.22002 
L 400.49701 -153.22002 
L 399.755482 -153.22002 
L 399.013953 -153.22002 
L 398.272425 -153.22002 
L 397.530897 -153.22002 
L 396.789369 -153.22002 
L 396.047841 -153.22002 
L 395.306312 -153.22002 
L 394.564784 -153.22002 
L 393.823256 -153.22002 
L 393.081728 -153.22002 
L 392.340199 -153.22002 
L 391.598671 -153.22002 
L 390.857143 -153.22002 
L 390.115615 -153.22002 
L 389.374086 -153.22002 
L 388.632558 -153.22002 
L 387.89103 -153.22002 
L 387.149502 -153.22002 
L 386.407973 -153.22002 
L 385.666445 -153.22002 
L 384.924917 -153.22002 
L 384.183389 -153.22002 
L 383.44186 -153.22002 
L 382.700332 -153.22002 
L 381.958804 -153.22002 
L 381.217276 -153.22002 
L 380.475748 -153.22002 
L 379.734219 -153.22002 
L 378.992691 -153.22002 
L 378.251163 -153.22002 
L 377.509635 -153.22002 
L 376.768106 -153.22002 
L 376.026578 -153.22002 
L 375.28505 -153.22002 
L 374.543522 -153.22002 
L 373.801993 -153.22002 
L 373.060465 -153.22002 
L 372.318937 -153.22002 
L 371.577409 -153.22002 
L 370.83588 -153.22002 
L 370.094352 -153.22002 
L 369.352824 -153.22002 
L 368.611296 -153.22002 
L 367.869767 -153.22002 
L 367.128239 -153.22002 
L 366.386711 -153.22002 
L 365.645183 -153.22002 
L 364.903654 -153.22002 
L 364.162126 -153.22002 
L 363.420598 -153.22002 
L 362.67907 -153.22002 
L 361.937542 -153.22002 
L 361.196013 -153.22002 
L 360.454485 -153.22002 
L 359.712957 -153.22002 
L 358.971429 -153.22002 
L 358.2299 -153.22002 
L 357.488372 -153.22002 
L 356.746844 -153.22002 
L 356.005316 -153.22002 
L 355.263787 -153.22002 
L 354.522259 -153.22002 
L 353.780731 -153.22002 
L 353.039203 -153.22002 
L 352.297674 -153.22002 
L 351.556146 -153.22002 
L 350.814618 -153.22002 
L 350.07309 -153.22002 
L 349.331561 -153.22002 
L 348.590033 -153.22002 
L 347.848505 -153.22002 
L 347.106977 -153.22002 
L 346.365449 -153.22002 
L 345.62392 -153.22002 
L 344.882392 -153.22002 
L 344.140864 -153.22002 
L 343.399336 -153.22002 
L 342.657807 -153.22002 
L 341.916279 -153.22002 
L 341.174751 -153.22002 
L 340.433223 -153.22002 
L 339.691694 -153.22002 
L 338.950166 -153.22002 
L 338.208638 -153.22002 
L 337.46711 -153.22002 
L 336.725581 -153.22002 
L 335.984053 -153.22002 
L 335.242525 -153.22002 
L 334.500997 -153.22002 
L 333.759468 -153.22002 
L 333.01794 -153.22002 
L 332.276412 -153.22002 
L 331.534884 -153.22002 
L 330.793355 -153.22002 
L 330.051827 -153.22002 
L 329.310299 -153.22002 
L 328.568771 -153.22002 
L 327.827243 -153.22002 
L 327.085714 -153.22002 
L 326.344186 -153.22002 
L 325.602658 -153.22002 
L 324.86113 -153.22002 
L 324.119601 -153.22002 
L 323.378073 -153.22002 
L 322.636545 -153.22002 
L 321.895017 -153.22002 
L 321.153488 -153.22002 
L 320.41196 -153.22002 
L 319.670432 -153.22002 
L 318.928904 -153.22002 
L 318.187375 -153.22002 
L 317.445847 -153.22002 
L 316.704319 -153.22002 
L 315.962791 -153.22002 
L 315.221262 -153.22002 
L 314.479734 -153.22002 
L 313.738206 -153.22002 
L 312.996678 -153.22002 
L 312.25515 -153.22002 
L 311.513621 -153.22002 
L 310.772093 -153.22002 
L 310.030565 -153.22002 
L 309.289037 -153.22002 
L 308.547508 -153.22002 
L 307.80598 -153.22002 
L 307.064452 -153.22002 
L 306.322924 -153.22002 
L 305.581395 -153.22002 
L 304.839867 -153.22002 
L 304.098339 -153.22002 
L 303.356811 -153.22002 
L 302.615282 -153.22002 
L 301.873754 -153.22002 
L 301.132226 -153.22002 
L 300.390698 -153.22002 
L 299.649169 -153.22002 
L 298.907641 -153.22002 
L 298.166113 -153.22002 
L 297.424585 -153.22002 
L 296.683056 -153.22002 
L 295.941528 -153.22002 
L 295.2 -153.22002 
L 294.458472 -153.22002 
L 293.716944 -153.22002 
L 292.975415 -153.22002 
L 292.233887 -153.22002 
L 291.492359 -153.22002 
L 290.750831 -153.22002 
L 290.009302 -153.22002 
L 289.267774 -153.22002 
L 288.526246 -153.22002 
L 287.784718 -153.22002 
L 287.043189 -153.22002 
L 286.301661 -153.22002 
L 285.560133 -153.22002 
L 284.818605 -153.22002 
L 284.077076 -153.22002 
L 283.335548 -153.22002 
L 282.59402 -153.22002 
L 281.852492 -153.22002 
L 281.110963 -153.22002 
L 280.369435 -153.22002 
L 279.627907 -153.22002 
L 278.886379 -153.22002 
L 278.14485 -153.22002 
L 277.403322 -153.22002 
L 276.661794 -153.22002 
L 275.920266 -153.22002 
L 275.178738 -153.22002 
L 274.437209 -153.22002 
L 273.695681 -153.22002 
L 272.954153 -153.22002 
L 272.212625 -153.22002 
L 271.471096 -153.22002 
L 270.729568 -153.22002 
L 269.98804 -153.22002 
L 269.246512 -153.22002 
L 268.504983 -153.22002 
L 267.763455 -153.22002 
L 267.021927 -153.22002 
L 266.280399 -153.22002 
L 265.53887 -153.22002 
L 264.797342 -153.22002 
L 264.055814 -153.22002 
L 263.314286 -153.22002 
L 262.572757 -153.22002 
L 261.831229 -153.22002 
L 261.089701 -153.22002 
L 260.348173 -153.22002 
L 259.606645 -153.22002 
L 258.865116 -153.22002 
L 258.123588 -153.22002 
L 257.38206 -153.22002 
L 256.640532 -153.22002 
L 255.899003 -153.22002 
L 255.157475 -153.22002 
L 254.415947 -153.22002 
L 253.674419 -153.22002 
L 252.93289 -153.22002 
L 252.191362 -153.22002 
L 251.449834 -153.22002 
L 250.708306 -153.22002 
L 249.966777 -153.22002 
L 249.225249 -153.22002 
L 248.483721 -153.22002 
L 247.742193 -153.22002 
L 247.000664 -153.22002 
L 246.259136 -153.22002 
L 245.517608 -153.22002 
L 244.77608 -153.22002 
L 244.034551 -153.22002 
L 243.293023 -153.22002 
L 242.551495 -153.22002 
L 241.809967 -153.22002 
L 241.068439 -153.22002 
L 240.32691 -153.22002 
L 239.585382 -153.22002 
L 238.843854 -153.22002 
L 238.102326 -153.22002 
L 237.360797 -153.22002 
L 236.619269 -153.22002 
L 235.877741 -153.22002 
L 235.136213 -153.22002 
L 234.394684 -153.22002 
L 233.653156 -153.22002 
L 232.911628 -153.22002 
L 232.1701 -153.22002 
L 231.428571 -153.22002 
L 230.687043 -153.22002 
L 229.945515 -153.22002 
L 229.203987 -153.22002 
L 228.462458 -153.22002 
L 227.72093 -153.22002 
L 226.979402 -153.22002 
L 226.237874 -153.22002 
L 225.496346 -153.22002 
L 224.754817 -153.22002 
L 224.013289 -153.22002 
L 223.271761 -153.22002 
L 222.530233 -153.22002 
L 221.788704 -153.22002 
L 221.047176 -153.22002 
L 220.305648 -153.22002 
L 219.56412 -153.22002 
L 218.822591 -153.22002 
L 218.081063 -153.22002 
L 217.339535 -153.22002 
L 216.598007 -153.22002 
L 215.856478 -153.22002 
L 215.11495 -153.22002 
L 214.373422 -153.22002 
L 213.631894 -153.22002 
L 212.890365 -153.22002 
L 212.148837 -153.22002 
L 211.407309 -153.22002 
L 210.665781 -153.22002 
L 209.924252 -153.22002 
L 209.182724 -153.22002 
L 208.441196 -153.22002 
L 207.699668 -153.22002 
L 206.95814 -153.22002 
L 206.216611 -153.22002 
L 205.475083 -153.22002 
L 204.733555 -153.22002 
L 203.992027 -153.22002 
L 203.250498 -153.22002 
L 202.50897 -153.22002 
L 201.767442 -153.22002 
L 201.025914 -153.22002 
L 200.284385 -153.22002 
L 199.542857 -153.22002 
L 198.801329 -153.22002 
L 198.059801 -153.22002 
L 197.318272 -153.22002 
L 196.576744 -153.22002 
L 195.835216 -153.22002 
L 195.093688 -153.22002 
L 194.352159 -153.22002 
L 193.610631 -153.22002 
L 192.869103 -153.22002 
L 192.127575 -153.22002 
L 191.386047 -153.22002 
L 190.644518 -153.22002 
L 189.90299 -153.22002 
L 189.161462 -153.22002 
L 188.419934 -153.22002 
L 187.678405 -153.22002 
L 186.936877 -153.22002 
L 186.195349 -153.22002 
L 185.453821 -153.22002 
L 184.712292 -153.22002 
L 183.970764 -153.22002 
L 183.229236 -153.22002 
L 182.487708 -153.22002 
L 181.746179 -153.22002 
L 181.004651 -153.22002 
L 180.263123 -153.22002 
L 179.521595 -153.22002 
L 178.780066 -153.22002 
L 178.038538 -153.22002 
L 177.29701 -153.22002 
L 176.555482 -153.22002 
L 175.813953 -153.22002 
L 175.072425 -153.22002 
L 174.330897 -153.22002 
L 173.589369 -153.22002 
L 172.847841 -153.22002 
L 172.106312 -153.22002 
L 171.364784 -153.22002 
L 170.623256 -153.22002 
L 169.881728 -153.22002 
L 169.140199 -153.22002 
L 168.398671 -153.22002 
L 167.657143 -153.22002 
L 166.915615 -153.22002 
L 166.174086 -153.22002 
L 165.432558 -153.22002 
L 164.69103 -153.22002 
L 163.949502 -153.22002 
L 163.207973 -153.22002 
L 162.466445 -153.22002 
L 161.724917 -153.22002 
L 160.983389 -153.22002 
L 160.24186 -153.22002 
L 159.500332 -153.22002 
L 158.758804 -153.22002 
L 158.017276 -153.22002 
L 157.275748 -153.22002 
L 156.534219 -153.22002 
L 155.792691 -153.22002 
L 155.051163 -153.22002 
L 154.309635 -153.22002 
L 153.568106 -153.22002 
L 152.826578 -153.22002 
L 152.08505 -153.22002 
L 151.343522 -153.22002 
L 150.601993 -153.22002 
L 149.860465 -153.22002 
L 149.118937 -153.22002 
L 148.377409 -153.22002 
L 147.63588 -153.22002 
L 146.894352 -153.22002 
L 146.152824 -153.22002 
L 145.411296 -153.22002 
L 144.669767 -153.22002 
L 143.928239 -153.22002 
L 143.186711 -153.22002 
L 142.445183 -153.22002 
L 141.703654 -153.22002 
L 140.962126 -153.22002 
L 140.220598 -153.22002 
L 139.47907 -153.22002 
L 138.737542 -153.22002 
L 137.996013 -153.22002 
L 137.254485 -153.22002 
L 136.512957 -153.22002 
L 135.771429 -153.22002 
L 135.0299 -153.22002 
L 134.288372 -153.22002 
L 133.546844 -153.22002 
L 132.805316 -153.22002 
L 132.063787 -153.22002 
L 131.322259 -153.22002 
L 130.580731 -153.22002 
L 129.839203 -153.22002 
L 129.097674 -153.22002 
L 128.356146 -153.22002 
L 127.614618 -153.22002 
L 126.87309 -153.22002 
L 126.131561 -153.22002 
L 125.390033 -153.22002 
L 124.648505 -153.22002 
L 123.906977 -153.22002 
L 123.165449 -153.22002 
L 122.42392 -153.22002 
L 121.682392 -153.22002 
L 120.940864 -153.22002 
L 120.199336 -153.22002 
L 119.457807 -153.22002 
L 118.716279 -153.22002 
L 117.974751 -153.22002 
L 117.233223 -153.22002 
L 116.491694 -153.22002 
L 115.750166 -153.22002 
L 115.008638 -153.22002 
L 114.26711 -153.22002 
L 113.525581 -153.22002 
L 112.784053 -153.22002 
L 112.042525 -153.22002 
L 111.300997 -153.22002 
L 110.559468 -153.22002 
L 109.81794 -153.22002 
L 109.076412 -153.22002 
L 108.334884 -153.22002 
L 107.593355 -153.22002 
L 106.851827 -153.22002 
L 106.110299 -153.22002 
L 105.368771 -153.22002 
L 104.627243 -153.22002 
L 103.885714 -153.22002 
L 103.144186 -153.22002 
L 102.402658 -153.22002 
L 101.66113 -153.22002 
L 100.919601 -153.22002 
L 100.178073 -153.22002 
L 99.436545 -153.22002 
L 98.695017 -153.22002 
L 97.953488 -153.22002 
L 97.21196 -153.22002 
L 96.470432 -153.22002 
L 95.728904 -153.22002 
L 94.987375 -153.22002 
L 94.245847 -153.22002 
L 93.504319 -153.22002 
L 92.762791 -153.22002 
L 92.021262 -153.22002 
L 91.279734 -153.22002 
L 90.538206 -153.22002 
L 89.796678 -153.22002 
L 89.05515 -153.22002 
L 88.313621 -153.22002 
L 87.572093 -153.22002 
L 86.830565 -153.22002 
L 86.089037 -153.22002 
L 85.347508 -153.22002 
L 84.60598 -153.22002 
L 83.864452 -153.22002 
L 83.122924 -153.22002 
L 82.381395 -153.22002 
L 81.639867 -153.22002 
L 80.898339 -153.22002 
L 80.156811 -153.22002 
L 79.415282 -153.22002 
L 78.673754 -153.22002 
L 77.932226 -153.22002 
L 77.190698 -153.22002 
L 76.449169 -153.22002 
L 75.707641 -153.22002 
L 74.966113 -153.22002 
L 74.224585 -153.22002 
L 73.483056 -153.22002 
L 72.741528 -153.22002 
L 72 -153.22002 
z
" id="me1adeb6793"/>
    </defs>
    <g clip-path="url(#p1f8021de4f)">
     <use style="fill-opacity:0.15;" x="0" xlink:href="#me1adeb6793" y="360"/>
    </g>
   </g>
   <g id="matplotlib.axis_1">
    <g id="xtick_1">
     <g id="line2d_1">
      <defs>
       <path d="M 0 0 
L 0 3.5 
" id="m5d09437df1" style="stroke:#000000;stroke-width:0.8;"/>
      </defs>
      <g>
       <use style="stroke:#000000;stroke-width:0.8;" x="72" xlink:href="#m5d09437df1" y="320.4"/>
      </g>
     </g>
     <g id="text_1">
      <!-- 0.0 -->
      <g transform="translate(60.867812 338.037813)scale(0.14 -0.14)">
       <defs>
        <path d="M 2034 4250 
Q 1547 4250 1301 3770 
Q 1056 3291 1056 2328 
Q 1056 1369 1301 889 
Q 1547 409 2034 409 
Q 2525 409 2770 889 
Q 3016 1369 3016 2328 
Q 3016 3291 2770 3770 
Q 2525 4250 2034 4250 
z
M 2034 4750 
Q 2819 4750 3233 4129 
Q 3647 3509 3647 2328 
Q 3647 1150 3233 529 
Q 2819 -91 2034 -91 
Q 1250 -91 836 529 
Q 422 1150 422 2328 
Q 422 3509 836 4129 
Q 1250 4750 2034 4750 
z
" id="DejaVuSans-30" transform="scale(0.015625)"/>
        <path d="M 684 794 
L 1344 794 
L 1344 0 
L 684 0 
L 684 794 
z
" id="DejaVuSans-2e" transform="scale(0.015625)"/>
       </defs>
       <use xlink:href="#DejaVuSans-30"/>
       <use x="63.623047" xlink:href="#DejaVuSans-2e"/>
       <use x="95.410156" xlink:href="#DejaVuSans-30"/>
      </g>
     </g>
    </g>
    <g id="xtick_2">
     <g id="line2d_2">
      <g>
       <use style="stroke:#000000;stroke-width:0.8;" x="127.906222" xlink:href="#m5d09437df1" y="320.4"/>
      </g>
     </g>
     <g id="text_2">
      <!-- 2.5 -->
      <g transform="translate(116.774034 338.037813)scale(0.14 -0.14)">
       <defs>
        <path d="M 1228 531 
L 3431 531 
L 3431 0 
L 469 0 
L 469 531 
Q 828 903 1448 1529 
Q 2069 2156 2228 2338 
Q 2531 2678 2651 2914 
Q 2772 3150 2772 3378 
Q 2772 3750 2511 3984 
Q 2250 4219 1831 4219 
Q 1534 4219 1204 4116 
Q 875 4013 500 3803 
L 500 4441 
Q 881 4594 1212 4672 
Q 1544 4750 1819 4750 
Q 2544 4750 2975 4387 
Q 3406 4025 3406 3419 
Q 3406 3131 3298 2873 
Q 3191 2616 2906 2266 
Q 2828 2175 2409 1742 
Q 1991 1309 1228 531 
z
" id="DejaVuSans-32" transform="scale(0.015625)"/>
        <path d="M 691 4666 
L 3169 4666 
L 3169 4134 
L 1269 4134 
L 1269 2991 
Q 1406 3038 1543 3061 
Q 1681 3084 1819 3084 
Q 2600 3084 3056 2656 
Q 3513 2228 3513 1497 
Q 3513 744 3044 326 
Q 2575 -91 1722 -91 
Q 1428 -91 1123 -41 
Q 819 9 494 109 
L 494 744 
Q 775 591 1075 516 
Q 1375 441 1709 441 
Q 2250 441 2565 725 
Q 2881 1009 2881 1497 
Q 2881 1984 2565 2268 
Q 2250 2553 1709 2553 
Q 1456 2553 1204 2497 
Q 953 2441 691 2322 
L 691 4666 
z
" id="DejaVuSans-35" transform="scale(0.015625)"/>
       </defs>
       <use xlink:href="#DejaVuSans-32"/>
       <use x="63.623047" xlink:href="#DejaVuSans-2e"/>
       <use x="95.410156" xlink:href="#DejaVuSans-35"/>
      </g>
     </g>
    </g>
    <g id="xtick_3">
     <g id="line2d_3">
      <g>
       <use style="stroke:#000000;stroke-width:0.8;" x="183.812444" xlink:href="#m5d09437df1" y="320.4"/>
      </g>
     </g>
     <g id="text_3">
      <!-- 5.0 -->
      <g transform="translate(172.680256 338.037813)scale(0.14 -0.14)">
       <use xlink:href="#DejaVuSans-35"/>
       <use x="63.623047" xlink:href="#DejaVuSans-2e"/>
       <use x="95.410156" xlink:href="#DejaVuSans-30"/>
      </g>
     </g>
    </g>
    <g id="xtick_4">
     <g id="line2d_4">
      <g>
       <use style="stroke:#000000;stroke-width:0.8;" x="239.718665" xlink:href="#m5d09437df1" y="320.4"/>
      </g>
     </g>
     <g id="text_4">
      <!-- 7.5 -->
      <g transform="translate(228.586478 338.037813)scale(0.14 -0.14)">
       <defs>
        <path d="M 525 4666 
L 3525 4666 
L 3525 4397 
L 1831 0 
L 1172 0 
L 2766 4134 
L 525 4134 
L 525 4666 
z
" id="DejaVuSans-37" transform="scale(0.015625)"/>
       </defs>
       <use xlink:href="#DejaVuSans-37"/>
       <use x="63.623047" xlink:href="#DejaVuSans-2e"/>
       <use x="95.410156" xlink:href="#DejaVuSans-35"/>
      </g>
     </g>
    </g>
    <g id="xtick_5">
     <g id="line2d_5">
      <g>
       <use style="stroke:#000000;stroke-width:0.8;" x="295.624887" xlink:href="#m5d09437df1" y="320.4"/>
      </g>
     </g>
     <g id="text_5">
      <!-- 10.0 -->
      <g transform="translate(280.03895 338.037813)scale(0.14 -0.14)">
       <defs>
        <path d="M 794 531 
L 1825 531 
L 1825 4091 
L 703 3866 
L 703 4441 
L 1819 4666 
L 2450 4666 
L 2450 531 
L 3481 531 
L 3481 0 
L 794 0 
L 794 531 
z
" id="DejaVuSans-31" transform="scale(0.015625)"/>
       </defs>
       <use xlink:href="#DejaVuSans-31"/>
       <use x="63.623047" xlink:href="#DejaVuSans-30"/>
       <use x="127.246094" xlink:href="#DejaVuSans-2e"/>
       <use x="159.033203" xlink:href="#DejaVuSans-30"/>
      </g>
     </g>
    </g>
    <g id="xtick_6">
     <g id="line2d_6">
      <g>
       <use style="stroke:#000000;stroke-width:0.8;" x="351.531109" xlink:href="#m5d09437df1" y="320.4"/>
      </g>
     </g>
     <g id="text_6">
      <!-- 12.5 -->
      <g transform="translate(335.945172 338.037813)scale(0.14 -0.14)">
       <use xlink:href="#DejaVuSans-31"/>
       <use x="63.623047" xlink:href="#DejaVuSans-32"/>
       <use x="127.246094" xlink:href="#DejaVuSans-2e"/>
       <use x="159.033203" xlink:href="#DejaVuSans-35"/>
      </g>
     </g>
    </g>
    <g id="xtick_7">
     <g id="line2d_7">
      <g>
       <use style="stroke:#000000;stroke-width:0.8;" x="407.437331" xlink:href="#m5d09437df1" y="320.4"/>
      </g>
     </g>
     <g id="text_7">
      <!-- 15.0 -->
      <g transform="translate(391.851393 338.037813)scale(0.14 -0.14)">
       <use xlink:href="#DejaVuSans-31"/>
       <use x="63.623047" xlink:href="#DejaVuSans-35"/>
       <use x="127.246094" xlink:href="#DejaVuSans-2e"/>
       <use x="159.033203" xlink:href="#DejaVuSans-30"/>
      </g>
     </g>
    </g>
    <g id="xtick_8">
     <g id="line2d_8">
      <g>
       <use style="stroke:#000000;stroke-width:0.8;" x="463.343553" xlink:href="#m5d09437df1" y="320.4"/>
      </g>
     </g>
     <g id="text_8">
      <!-- 17.5 -->
      <g transform="translate(447.757615 338.037813)scale(0.14 -0.14)">
       <use xlink:href="#DejaVuSans-31"/>
       <use x="63.623047" xlink:href="#DejaVuSans-37"/>
       <use x="127.246094" xlink:href="#DejaVuSans-2e"/>
       <use x="159.033203" xlink:href="#DejaVuSans-35"/>
      </g>
     </g>
    </g>
    <g id="text_9">
     <!-- Time [Seconds] -->
     <g transform="translate(233.23 357.106875)scale(0.16 -0.16)">
      <defs>
       <path d="M -19 4666 
L 3928 4666 
L 3928 4134 
L 2272 4134 
L 2272 0 
L 1638 0 
L 1638 4134 
L -19 4134 
L -19 4666 
z
" id="DejaVuSans-54" transform="scale(0.015625)"/>
       <path d="M 603 3500 
L 1178 3500 
L 1178 0 
L 603 0 
L 603 3500 
z
M 603 4863 
L 1178 4863 
L 1178 4134 
L 603 4134 
L 603 4863 
z
" id="DejaVuSans-69" transform="scale(0.015625)"/>
       <path d="M 3328 2828 
Q 3544 3216 3844 3400 
Q 4144 3584 4550 3584 
Q 5097 3584 5394 3201 
Q 5691 2819 5691 2113 
L 5691 0 
L 5113 0 
L 5113 2094 
Q 5113 2597 4934 2840 
Q 4756 3084 4391 3084 
Q 3944 3084 3684 2787 
Q 3425 2491 3425 1978 
L 3425 0 
L 2847 0 
L 2847 2094 
Q 2847 2600 2669 2842 
Q 2491 3084 2119 3084 
Q 1678 3084 1418 2786 
Q 1159 2488 1159 1978 
L 1159 0 
L 581 0 
L 581 3500 
L 1159 3500 
L 1159 2956 
Q 1356 3278 1631 3431 
Q 1906 3584 2284 3584 
Q 2666 3584 2933 3390 
Q 3200 3197 3328 2828 
z
" id="DejaVuSans-6d" transform="scale(0.015625)"/>
       <path d="M 3597 1894 
L 3597 1613 
L 953 1613 
Q 991 1019 1311 708 
Q 1631 397 2203 397 
Q 2534 397 2845 478 
Q 3156 559 3463 722 
L 3463 178 
Q 3153 47 2828 -22 
Q 2503 -91 2169 -91 
Q 1331 -91 842 396 
Q 353 884 353 1716 
Q 353 2575 817 3079 
Q 1281 3584 2069 3584 
Q 2775 3584 3186 3129 
Q 3597 2675 3597 1894 
z
M 3022 2063 
Q 3016 2534 2758 2815 
Q 2500 3097 2075 3097 
Q 1594 3097 1305 2825 
Q 1016 2553 972 2059 
L 3022 2063 
z
" id="DejaVuSans-65" transform="scale(0.015625)"/>
       <path id="DejaVuSans-20" transform="scale(0.015625)"/>
       <path d="M 550 4863 
L 1875 4863 
L 1875 4416 
L 1125 4416 
L 1125 -397 
L 1875 -397 
L 1875 -844 
L 550 -844 
L 550 4863 
z
" id="DejaVuSans-5b" transform="scale(0.015625)"/>
       <path d="M 3425 4513 
L 3425 3897 
Q 3066 4069 2747 4153 
Q 2428 4238 2131 4238 
Q 1616 4238 1336 4038 
Q 1056 3838 1056 3469 
Q 1056 3159 1242 3001 
Q 1428 2844 1947 2747 
L 2328 2669 
Q 3034 2534 3370 2195 
Q 3706 1856 3706 1288 
Q 3706 609 3251 259 
Q 2797 -91 1919 -91 
Q 1588 -91 1214 -16 
Q 841 59 441 206 
L 441 856 
Q 825 641 1194 531 
Q 1563 422 1919 422 
Q 2459 422 2753 634 
Q 3047 847 3047 1241 
Q 3047 1584 2836 1778 
Q 2625 1972 2144 2069 
L 1759 2144 
Q 1053 2284 737 2584 
Q 422 2884 422 3419 
Q 422 4038 858 4394 
Q 1294 4750 2059 4750 
Q 2388 4750 2728 4690 
Q 3069 4631 3425 4513 
z
" id="DejaVuSans-53" transform="scale(0.015625)"/>
       <path d="M 3122 3366 
L 3122 2828 
Q 2878 2963 2633 3030 
Q 2388 3097 2138 3097 
Q 1578 3097 1268 2742 
Q 959 2388 959 1747 
Q 959 1106 1268 751 
Q 1578 397 2138 397 
Q 2388 397 2633 464 
Q 2878 531 3122 666 
L 3122 134 
Q 2881 22 2623 -34 
Q 2366 -91 2075 -91 
Q 1284 -91 818 406 
Q 353 903 353 1747 
Q 353 2603 823 3093 
Q 1294 3584 2113 3584 
Q 2378 3584 2631 3529 
Q 2884 3475 3122 3366 
z
" id="DejaVuSans-63" transform="scale(0.015625)"/>
       <path d="M 1959 3097 
Q 1497 3097 1228 2736 
Q 959 2375 959 1747 
Q 959 1119 1226 758 
Q 1494 397 1959 397 
Q 2419 397 2687 759 
Q 2956 1122 2956 1747 
Q 2956 2369 2687 2733 
Q 2419 3097 1959 3097 
z
M 1959 3584 
Q 2709 3584 3137 3096 
Q 3566 2609 3566 1747 
Q 3566 888 3137 398 
Q 2709 -91 1959 -91 
Q 1206 -91 779 398 
Q 353 888 353 1747 
Q 353 2609 779 3096 
Q 1206 3584 1959 3584 
z
" id="DejaVuSans-6f" transform="scale(0.015625)"/>
       <path d="M 3513 2113 
L 3513 0 
L 2938 0 
L 2938 2094 
Q 2938 2591 2744 2837 
Q 2550 3084 2163 3084 
Q 1697 3084 1428 2787 
Q 1159 2491 1159 1978 
L 1159 0 
L 581 0 
L 581 3500 
L 1159 3500 
L 1159 2956 
Q 1366 3272 1645 3428 
Q 1925 3584 2291 3584 
Q 2894 3584 3203 3211 
Q 3513 2838 3513 2113 
z
" id="DejaVuSans-6e" transform="scale(0.015625)"/>
       <path d="M 2906 2969 
L 2906 4863 
L 3481 4863 
L 3481 0 
L 2906 0 
L 2906 525 
Q 2725 213 2448 61 
Q 2172 -91 1784 -91 
Q 1150 -91 751 415 
Q 353 922 353 1747 
Q 353 2572 751 3078 
Q 1150 3584 1784 3584 
Q 2172 3584 2448 3432 
Q 2725 3281 2906 2969 
z
M 947 1747 
Q 947 1113 1208 752 
Q 1469 391 1925 391 
Q 2381 391 2643 752 
Q 2906 1113 2906 1747 
Q 2906 2381 2643 2742 
Q 2381 3103 1925 3103 
Q 1469 3103 1208 2742 
Q 947 2381 947 1747 
z
" id="DejaVuSans-64" transform="scale(0.015625)"/>
       <path d="M 2834 3397 
L 2834 2853 
Q 2591 2978 2328 3040 
Q 2066 3103 1784 3103 
Q 1356 3103 1142 2972 
Q 928 2841 928 2578 
Q 928 2378 1081 2264 
Q 1234 2150 1697 2047 
L 1894 2003 
Q 2506 1872 2764 1633 
Q 3022 1394 3022 966 
Q 3022 478 2636 193 
Q 2250 -91 1575 -91 
Q 1294 -91 989 -36 
Q 684 19 347 128 
L 347 722 
Q 666 556 975 473 
Q 1284 391 1588 391 
Q 1994 391 2212 530 
Q 2431 669 2431 922 
Q 2431 1156 2273 1281 
Q 2116 1406 1581 1522 
L 1381 1569 
Q 847 1681 609 1914 
Q 372 2147 372 2553 
Q 372 3047 722 3315 
Q 1072 3584 1716 3584 
Q 2034 3584 2315 3537 
Q 2597 3491 2834 3397 
z
" id="DejaVuSans-73" transform="scale(0.015625)"/>
       <path d="M 1947 4863 
L 1947 -844 
L 622 -844 
L 622 -397 
L 1369 -397 
L 1369 4416 
L 622 4416 
L 622 4863 
L 1947 4863 
z
" id="DejaVuSans-5d" transform="scale(0.015625)"/>
      </defs>
      <use xlink:href="#DejaVuSans-54"/>
      <use x="57.958984" xlink:href="#DejaVuSans-69"/>
      <use x="85.742188" xlink:href="#DejaVuSans-6d"/>
      <use x="183.154297" xlink:href="#DejaVuSans-65"/>
      <use x="244.677734" xlink:href="#DejaVuSans-20"/>
      <use x="276.464844" xlink:href="#DejaVuSans-5b"/>
      <use x="315.478516" xlink:href="#DejaVuSans-53"/>
      <use x="378.955078" xlink:href="#DejaVuSans-65"/>
      <use x="440.478516" xlink:href="#DejaVuSans-63"/>
      <use x="495.458984" xlink:href="#DejaVuSans-6f"/>
      <use x="556.640625" xlink:href="#DejaVuSans-6e"/>
      <use x="620.019531" xlink:href="#DejaVuSans-64"/>
      <use x="683.496094" xlink:href="#DejaVuSans-73"/>
      <use x="735.595703" xlink:href="#DejaVuSans-5d"/>
     </g>
    </g>
   </g>
   <g id="matplotlib.axis_2">
    <g id="ytick_1">
     <g id="line2d_9">
      <defs>
       <path d="M 0 0 
L -3.5 0 
" id="mec4dfafb70" style="stroke:#000000;stroke-width:0.8;"/>
      </defs>
      <g>
       <use style="stroke:#000000;stroke-width:0.8;" x="72" xlink:href="#mec4dfafb70" y="279.527207"/>
      </g>
     </g>
     <g id="text_10">
      <!-- 0.0 -->
      <g transform="translate(42.735625 284.846113)scale(0.14 -0.14)">
       <use xlink:href="#DejaVuSans-30"/>
       <use x="63.623047" xlink:href="#DejaVuSans-2e"/>
       <use x="95.410156" xlink:href="#DejaVuSans-30"/>
      </g>
     </g>
    </g>
    <g id="ytick_2">
     <g id="line2d_10">
      <g>
       <use style="stroke:#000000;stroke-width:0.8;" x="72" xlink:href="#mec4dfafb70" y="224.777718"/>
      </g>
     </g>
     <g id="text_11">
      <!-- 0.5 -->
      <g transform="translate(42.735625 230.096625)scale(0.14 -0.14)">
       <use xlink:href="#DejaVuSans-30"/>
       <use x="63.623047" xlink:href="#DejaVuSans-2e"/>
       <use x="95.410156" xlink:href="#DejaVuSans-35"/>
      </g>
     </g>
    </g>
    <g id="ytick_3">
     <g id="line2d_11">
      <g>
       <use style="stroke:#000000;stroke-width:0.8;" x="72" xlink:href="#mec4dfafb70" y="170.02823"/>
      </g>
     </g>
     <g id="text_12">
      <!-- 1.0 -->
      <g transform="translate(42.735625 175.347136)scale(0.14 -0.14)">
       <use xlink:href="#DejaVuSans-31"/>
       <use x="63.623047" xlink:href="#DejaVuSans-2e"/>
       <use x="95.410156" xlink:href="#DejaVuSans-30"/>
      </g>
     </g>
    </g>
    <g id="ytick_4">
     <g id="line2d_12">
      <g>
       <use style="stroke:#000000;stroke-width:0.8;" x="72" xlink:href="#mec4dfafb70" y="115.278741"/>
      </g>
     </g>
     <g id="text_13">
      <!-- 1.5 -->
      <g transform="translate(42.735625 120.597647)scale(0.14 -0.14)">
       <use xlink:href="#DejaVuSans-31"/>
       <use x="63.623047" xlink:href="#DejaVuSans-2e"/>
       <use x="95.410156" xlink:href="#DejaVuSans-35"/>
      </g>
     </g>
    </g>
    <g id="ytick_5">
     <g id="line2d_13">
      <g>
       <use style="stroke:#000000;stroke-width:0.8;" x="72" xlink:href="#mec4dfafb70" y="60.529252"/>
      </g>
     </g>
     <g id="text_14">
      <!-- 2.0 -->
      <g transform="translate(42.735625 65.848159)scale(0.14 -0.14)">
       <use xlink:href="#DejaVuSans-32"/>
       <use x="63.623047" xlink:href="#DejaVuSans-2e"/>
       <use x="95.410156" xlink:href="#DejaVuSans-30"/>
      </g>
     </g>
    </g>
    <g id="text_15">
     <!-- Speed [mm/s] -->
     <g transform="translate(35.408125 238.11375)rotate(-90)scale(0.16 -0.16)">
      <defs>
       <path d="M 1159 525 
L 1159 -1331 
L 581 -1331 
L 581 3500 
L 1159 3500 
L 1159 2969 
Q 1341 3281 1617 3432 
Q 1894 3584 2278 3584 
Q 2916 3584 3314 3078 
Q 3713 2572 3713 1747 
Q 3713 922 3314 415 
Q 2916 -91 2278 -91 
Q 1894 -91 1617 61 
Q 1341 213 1159 525 
z
M 3116 1747 
Q 3116 2381 2855 2742 
Q 2594 3103 2138 3103 
Q 1681 3103 1420 2742 
Q 1159 2381 1159 1747 
Q 1159 1113 1420 752 
Q 1681 391 2138 391 
Q 2594 391 2855 752 
Q 3116 1113 3116 1747 
z
" id="DejaVuSans-70" transform="scale(0.015625)"/>
       <path d="M 1625 4666 
L 2156 4666 
L 531 -594 
L 0 -594 
L 1625 4666 
z
" id="DejaVuSans-2f" transform="scale(0.015625)"/>
      </defs>
      <use xlink:href="#DejaVuSans-53"/>
      <use x="63.476562" xlink:href="#DejaVuSans-70"/>
      <use x="126.953125" xlink:href="#DejaVuSans-65"/>
      <use x="188.476562" xlink:href="#DejaVuSans-65"/>
      <use x="250" xlink:href="#DejaVuSans-64"/>
      <use x="313.476562" xlink:href="#DejaVuSans-20"/>
      <use x="345.263672" xlink:href="#DejaVuSans-5b"/>
      <use x="384.277344" xlink:href="#DejaVuSans-6d"/>
      <use x="481.689453" xlink:href="#DejaVuSans-6d"/>
      <use x="579.101562" xlink:href="#DejaVuSans-2f"/>
      <use x="612.792969" xlink:href="#DejaVuSans-73"/>
      <use x="664.892578" xlink:href="#DejaVuSans-5d"/>
     </g>
    </g>
   </g>
   <g id="line2d_14">
    <path clip-path="url(#p1f8021de4f)" d="M 72 204.342067 
L 518.4 204.342067 
" style="fill:none;stroke:#000000;stroke-dasharray:5.55,2.4;stroke-dashoffset:0;stroke-width:1.5;"/>
   </g>
   <g id="line2d_15">
    <path clip-path="url(#p1f8021de4f)" d="M 72 278.562741 
L 136.512957 278.469956 
L 137.254485 276.37372 
L 137.996013 275.955147 
L 138.737542 279.4233 
L 139.47907 280.821862 
L 140.220598 279.342703 
L 140.962126 279.635636 
L 141.703654 283.760641 
L 142.445183 260.087244 
L 143.186711 262.97633 
L 143.928239 300.419647 
L 144.669767 307.8 
L 145.411296 304.685614 
L 146.152824 293.236012 
L 146.894352 273.205478 
L 147.63588 249.130996 
L 150.601993 134.144063 
L 151.343522 109.131348 
L 152.826578 70.497381 
L 153.568106 58.964234 
L 154.309635 55.8 
L 155.051163 57.902916 
L 155.792691 66.310068 
L 156.534219 80.798986 
L 158.017276 117.089063 
L 159.500332 159.191692 
L 160.24186 181.662006 
L 160.983389 196.475878 
L 161.724917 202.428611 
L 162.466445 203.120926 
L 163.207973 191.70846 
L 163.949502 160.475106 
L 164.69103 171.012197 
L 165.432558 199.071326 
L 166.174086 194.11821 
L 166.915615 194.800908 
L 167.657143 196.073776 
L 168.398671 195.695646 
L 169.140199 195.485817 
L 169.881728 193.438784 
L 170.623256 193.808488 
L 171.364784 195.488778 
L 172.106312 196.35209 
L 172.847841 198.066822 
L 173.589369 198.325832 
L 174.330897 196.637008 
L 175.072425 196.324179 
L 176.555482 199.217568 
L 177.29701 200.044028 
L 178.038538 201.075631 
L 178.780066 201.587304 
L 179.521595 201.262016 
L 180.263123 202.084023 
L 181.004651 200.594156 
L 182.487708 201.593514 
L 183.229236 200.386179 
L 183.970764 200.679652 
L 184.712292 199.882798 
L 186.195349 202.394453 
L 187.678405 202.224797 
L 188.419934 201.415486 
L 189.161462 202.03098 
L 189.90299 203.148293 
L 190.644518 203.520754 
L 192.127575 203.262958 
L 192.869103 203.098703 
L 193.610631 204.098123 
L 194.352159 204.753308 
L 195.093688 203.954582 
L 196.576744 202.846635 
L 197.318272 203.571373 
L 198.059801 204.821246 
L 198.801329 204.292535 
L 199.542857 204.338792 
L 200.284385 205.198523 
L 201.025914 205.21555 
L 201.767442 204.547905 
L 202.50897 202.931541 
L 203.250498 203.000311 
L 203.992027 203.513918 
L 204.733555 203.11599 
L 205.475083 203.01143 
L 206.216611 203.233364 
L 206.95814 204.66754 
L 207.699668 204.980362 
L 208.441196 204.166995 
L 209.182724 204.000031 
L 209.924252 203.559261 
L 210.665781 203.729701 
L 211.407309 204.786654 
L 212.148837 204.761493 
L 212.890365 204.464973 
L 213.631894 205.583819 
L 214.373422 206.100381 
L 215.11495 205.441507 
L 215.856478 205.006993 
L 216.598007 205.365191 
L 217.339535 205.030835 
L 218.081063 204.005786 
L 218.822591 203.914429 
L 219.56412 204.41501 
L 220.305648 204.778912 
L 221.047176 205.294618 
L 221.788704 205.56813 
L 222.530233 204.801979 
L 223.271761 204.615018 
L 224.013289 203.807214 
L 224.754817 203.399124 
L 225.496346 204.321386 
L 226.237874 204.056931 
L 226.979402 203.574119 
L 227.72093 204.179275 
L 228.462458 204.943881 
L 229.203987 204.124486 
L 229.945515 203.879543 
L 230.687043 204.806182 
L 231.428571 204.839442 
L 232.1701 204.174814 
L 232.911628 204.277888 
L 234.394684 205.036726 
L 235.136213 205.867561 
L 236.619269 204.706149 
L 238.102326 206.193699 
L 238.843854 205.994326 
L 239.585382 204.484657 
L 240.32691 205.023756 
L 241.068439 206.084947 
L 242.551495 205.317542 
L 244.034551 205.785091 
L 244.77608 205.722784 
L 245.517608 204.677318 
L 246.259136 204.57339 
L 247.000664 205.580547 
L 247.742193 204.731184 
L 248.483721 204.759448 
L 249.225249 205.847612 
L 249.966777 205.607288 
L 250.708306 203.986992 
L 251.449834 204.124767 
L 252.191362 205.295512 
L 253.674419 203.873503 
L 254.415947 204.560799 
L 255.157475 205.527981 
L 255.899003 205.24742 
L 256.640532 203.943903 
L 257.38206 203.443785 
L 258.123588 204.27276 
L 258.865116 204.618455 
L 259.606645 204.337874 
L 260.348173 204.463119 
L 261.089701 204.202394 
L 261.831229 204.592372 
L 262.572757 204.747454 
L 263.314286 204.356811 
L 264.055814 204.482972 
L 264.797342 205.010785 
L 265.53887 204.900288 
L 266.280399 203.881866 
L 267.021927 203.472463 
L 267.763455 204.813359 
L 268.504983 205.389414 
L 269.246512 204.028544 
L 269.98804 204.434745 
L 270.729568 205.887194 
L 271.471096 205.809598 
L 272.212625 204.543416 
L 272.954153 205.034665 
L 273.695681 206.001653 
L 274.437209 205.5665 
L 275.178738 205.379494 
L 275.920266 205.74156 
L 276.661794 206.731395 
L 277.403322 206.59878 
L 278.14485 204.905856 
L 278.886379 204.752653 
L 279.627907 205.272652 
L 280.369435 205.27552 
L 281.110963 205.396167 
L 281.852492 204.755624 
L 283.335548 204.768488 
L 284.077076 203.904162 
L 284.818605 204.02714 
L 285.560133 205.361021 
L 286.301661 205.365606 
L 287.784718 203.724801 
L 288.526246 204.175144 
L 289.267774 205.617787 
L 290.009302 204.779235 
L 290.750831 204.185487 
L 291.492359 205.503972 
L 292.233887 206.390776 
L 292.975415 205.435424 
L 293.716944 204.782937 
L 294.458472 206.038407 
L 295.2 206.280341 
L 295.941528 205.295974 
L 296.683056 204.736554 
L 297.424585 204.588054 
L 298.166113 205.095004 
L 298.907641 204.464871 
L 299.649169 204.007986 
L 300.390698 204.580363 
L 302.615282 205.225586 
L 303.356811 204.791667 
L 304.098339 205.024565 
L 304.839867 205.398507 
L 305.581395 205.133456 
L 306.322924 205.579509 
L 307.064452 206.674081 
L 307.80598 206.455343 
L 308.547508 205.136272 
L 309.289037 204.370334 
L 310.030565 204.862947 
L 310.772093 204.886133 
L 311.513621 203.786566 
L 312.25515 203.946359 
L 312.996678 204.689866 
L 313.738206 204.391474 
L 314.479734 203.638039 
L 315.221262 203.691077 
L 315.962791 204.313758 
L 317.445847 204.274251 
L 318.928904 204.968964 
L 319.670432 205.119919 
L 320.41196 204.227864 
L 321.153488 204.509447 
L 321.895017 205.370874 
L 322.636545 205.303827 
L 323.378073 205.513238 
L 324.119601 205.342389 
L 324.86113 205.446414 
L 325.602658 205.06975 
L 326.344186 204.528975 
L 327.085714 205.289888 
L 327.827243 205.50137 
L 329.310299 204.631375 
L 330.051827 204.028965 
L 330.793355 204.890977 
L 331.534884 205.405123 
L 333.01794 204.635456 
L 333.759468 204.477862 
L 335.242525 205.617523 
L 336.725581 205.916164 
L 337.46711 205.682539 
L 338.208638 205.253301 
L 339.691694 205.186122 
L 341.916279 204.170126 
L 342.657807 204.64739 
L 343.399336 204.975148 
L 344.140864 204.621535 
L 346.365449 204.981244 
L 347.848505 204.740033 
L 348.590033 205.949786 
L 349.331561 205.795622 
L 350.07309 204.807663 
L 351.556146 205.414833 
L 352.297674 205.560706 
L 353.039203 205.242731 
L 353.780731 204.716008 
L 354.522259 204.752656 
L 355.263787 204.215494 
L 356.005316 204.044249 
L 356.746844 204.902818 
L 357.488372 204.987287 
L 358.2299 205.303287 
L 359.712957 204.059633 
L 360.454485 204.998292 
L 361.196013 205.040748 
L 361.937542 204.413283 
L 362.67907 204.712715 
L 363.420598 205.232385 
L 364.903654 205.258849 
L 365.645183 205.714635 
L 367.128239 206.055037 
L 367.869767 205.52762 
L 368.611296 205.266174 
L 369.352824 205.471926 
L 370.094352 205.212927 
L 370.83588 204.237611 
L 371.577409 203.955918 
L 372.318937 204.834594 
L 373.060465 204.942252 
L 374.543522 204.397372 
L 375.28505 204.414073 
L 376.026578 204.788307 
L 376.768106 203.979149 
L 377.509635 203.995523 
L 378.251163 205.639041 
L 379.734219 205.448572 
L 380.475748 204.862021 
L 381.217276 205.130003 
L 381.958804 206.12456 
L 382.700332 205.603654 
L 383.44186 204.885385 
L 384.183389 204.596599 
L 384.924917 204.440917 
L 385.666445 204.118333 
L 386.407973 204.325593 
L 387.149502 205.013131 
L 388.632558 205.29705 
L 389.374086 204.735324 
L 390.115615 204.551781 
L 390.857143 205.307986 
L 391.598671 204.876801 
L 392.340199 204.317074 
L 393.823256 204.895707 
L 394.564784 205.431431 
L 396.047841 204.743376 
L 396.789369 205.326806 
L 397.530897 205.414538 
L 398.272425 205.008773 
L 399.755482 206.092944 
L 401.238538 205.059407 
L 401.980066 204.84214 
L 402.721595 205.237825 
L 403.463123 205.405285 
L 404.204651 205.316979 
L 404.946179 204.606585 
L 405.687708 204.195914 
L 406.429236 204.410604 
L 407.170764 203.917302 
L 407.912292 204.054398 
L 408.653821 204.996444 
L 409.395349 205.494568 
L 410.878405 204.926035 
L 412.361462 205.558627 
L 413.10299 205.437686 
L 413.844518 204.925917 
L 415.327575 205.335689 
L 416.810631 203.731257 
L 418.293688 205.160142 
L 419.035216 204.667671 
L 419.776744 204.818097 
L 420.518272 205.937787 
L 421.259801 205.652599 
L 422.001329 204.906956 
L 422.742857 204.690151 
L 424.225914 205.460385 
L 425.70897 205.307351 
L 426.450498 204.631522 
L 427.933555 204.82185 
L 428.675083 203.635282 
L 429.416611 203.817498 
L 430.15814 204.6727 
L 430.899668 204.964328 
L 431.641196 204.499081 
L 432.382724 204.973768 
L 433.124252 205.802469 
L 433.865781 204.718448 
L 434.607309 204.974711 
L 435.348837 205.024735 
L 436.831894 205.532852 
L 437.573422 204.816134 
L 438.31495 205.087084 
L 439.056478 205.845998 
L 440.539535 204.613418 
L 441.281063 205.718096 
L 442.022591 206.174894 
L 442.76412 205.489131 
L 443.505648 205.602391 
L 444.247176 205.914274 
L 444.988704 206.002262 
L 445.730233 205.766783 
L 446.471761 205.280534 
L 447.954817 203.702052 
L 448.696346 203.787396 
L 449.437874 203.574236 
L 450.179402 202.762498 
L 450.92093 203.291189 
L 451.662458 204.126229 
L 452.403987 203.602584 
L 453.145515 203.45028 
L 453.887043 205.180219 
L 454.628571 206.150003 
L 455.3701 204.900663 
L 456.111628 205.34505 
L 456.853156 206.734066 
L 458.336213 205.851663 
L 459.077741 206.142639 
L 459.819269 206.184106 
L 460.560797 205.685057 
L 461.302326 204.351394 
L 462.043854 203.952905 
L 462.785382 204.232312 
L 463.52691 203.48495 
L 464.268439 203.215725 
L 465.009967 203.631153 
L 465.751495 203.810793 
L 468.717608 205.874953 
L 470.200664 206.281746 
L 470.942193 206.514451 
L 472.425249 205.684442 
L 473.166777 205.71794 
L 473.908306 204.541635 
L 474.649834 204.510436 
L 475.391362 205.564521 
L 476.874419 203.180876 
L 477.615947 203.837958 
L 478.357475 204.833369 
L 479.099003 204.359717 
L 479.840532 204.330328 
L 480.58206 205.145537 
L 481.323588 205.724931 
L 482.065116 205.921826 
L 482.806645 204.821993 
L 483.548173 204.798849 
L 484.289701 205.113962 
L 485.031229 204.661189 
L 487.255814 204.324511 
L 487.997342 204.349634 
L 488.73887 203.730585 
L 489.480399 203.90043 
L 490.221927 205.018595 
L 492.446512 206.643109 
L 493.18804 206.572807 
L 493.929568 206.30881 
L 494.671096 206.71273 
L 496.154153 205.158629 
L 496.895681 204.882013 
L 497.637209 203.4726 
L 498.378738 203.151918 
L 499.120266 203.333206 
L 499.861794 203.178497 
L 500.603322 203.324923 
L 501.34485 203.61182 
L 502.086379 204.176728 
L 502.827907 204.571113 
L 503.569435 205.181193 
L 504.310963 205.484502 
L 505.052492 206.550205 
L 505.79402 207.260044 
L 506.535548 206.492086 
L 507.277076 206.168012 
L 509.501661 206.216805 
L 510.984718 205.880827 
L 512.467774 205.243249 
L 514.692359 203.907038 
L 516.916944 202.545111 
L 518.4 201.959306 
L 518.4 201.959306 
" style="fill:none;stroke:#ff0000;stroke-linecap:square;stroke-width:2;"/>
   </g>
   <g id="patch_3">
    <path d="M 72 320.4 
L 72 43.2 
" style="fill:none;stroke:#000000;stroke-linecap:square;stroke-linejoin:miter;stroke-width:0.8;"/>
   </g>
   <g id="patch_4">
    <path d="M 518.4 320.4 
L 518.4 43.2 
" style="fill:none;stroke:#000000;stroke-linecap:square;stroke-linejoin:miter;stroke-width:0.8;"/>
   </g>
   <g id="patch_5">
    <path d="M 72 320.4 
L 518.4 320.4 
" style="fill:none;stroke:#000000;stroke-linecap:square;stroke-linejoin:miter;stroke-width:0.8;"/>
   </g>
   <g id="patch_6">
    <path d="M 72 43.2 
L 518.4 43.2 
" style="fill:none;stroke:#000000;stroke-linecap:square;stroke-linejoin:miter;stroke-width:0.8;"/>
   </g>
   <g id="text_16">
    <!-- Front Propogation Speed -->
    <g transform="translate(172.245312 37.2)scale(0.2 -0.2)">
     <defs>
      <path d="M 628 4666 
L 3309 4666 
L 3309 4134 
L 1259 4134 
L 1259 2759 
L 3109 2759 
L 3109 2228 
L 1259 2228 
L 1259 0 
L 628 0 
L 628 4666 
z
" id="DejaVuSans-46" transform="scale(0.015625)"/>
      <path d="M 2631 2963 
Q 2534 3019 2420 3045 
Q 2306 3072 2169 3072 
Q 1681 3072 1420 2755 
Q 1159 2438 1159 1844 
L 1159 0 
L 581 0 
L 581 3500 
L 1159 3500 
L 1159 2956 
Q 1341 3275 1631 3429 
Q 1922 3584 2338 3584 
Q 2397 3584 2469 3576 
Q 2541 3569 2628 3553 
L 2631 2963 
z
" id="DejaVuSans-72" transform="scale(0.015625)"/>
      <path d="M 1172 4494 
L 1172 3500 
L 2356 3500 
L 2356 3053 
L 1172 3053 
L 1172 1153 
Q 1172 725 1289 603 
Q 1406 481 1766 481 
L 2356 481 
L 2356 0 
L 1766 0 
Q 1100 0 847 248 
Q 594 497 594 1153 
L 594 3053 
L 172 3053 
L 172 3500 
L 594 3500 
L 594 4494 
L 1172 4494 
z
" id="DejaVuSans-74" transform="scale(0.015625)"/>
      <path d="M 1259 4147 
L 1259 2394 
L 2053 2394 
Q 2494 2394 2734 2622 
Q 2975 2850 2975 3272 
Q 2975 3691 2734 3919 
Q 2494 4147 2053 4147 
L 1259 4147 
z
M 628 4666 
L 2053 4666 
Q 2838 4666 3239 4311 
Q 3641 3956 3641 3272 
Q 3641 2581 3239 2228 
Q 2838 1875 2053 1875 
L 1259 1875 
L 1259 0 
L 628 0 
L 628 4666 
z
" id="DejaVuSans-50" transform="scale(0.015625)"/>
      <path d="M 2906 1791 
Q 2906 2416 2648 2759 
Q 2391 3103 1925 3103 
Q 1463 3103 1205 2759 
Q 947 2416 947 1791 
Q 947 1169 1205 825 
Q 1463 481 1925 481 
Q 2391 481 2648 825 
Q 2906 1169 2906 1791 
z
M 3481 434 
Q 3481 -459 3084 -895 
Q 2688 -1331 1869 -1331 
Q 1566 -1331 1297 -1286 
Q 1028 -1241 775 -1147 
L 775 -588 
Q 1028 -725 1275 -790 
Q 1522 -856 1778 -856 
Q 2344 -856 2625 -561 
Q 2906 -266 2906 331 
L 2906 616 
Q 2728 306 2450 153 
Q 2172 0 1784 0 
Q 1141 0 747 490 
Q 353 981 353 1791 
Q 353 2603 747 3093 
Q 1141 3584 1784 3584 
Q 2172 3584 2450 3431 
Q 2728 3278 2906 2969 
L 2906 3500 
L 3481 3500 
L 3481 434 
z
" id="DejaVuSans-67" transform="scale(0.015625)"/>
      <path d="M 2194 1759 
Q 1497 1759 1228 1600 
Q 959 1441 959 1056 
Q 959 750 1161 570 
Q 1363 391 1709 391 
Q 2188 391 2477 730 
Q 2766 1069 2766 1631 
L 2766 1759 
L 2194 1759 
z
M 3341 1997 
L 3341 0 
L 2766 0 
L 2766 531 
Q 2569 213 2275 61 
Q 1981 -91 1556 -91 
Q 1019 -91 701 211 
Q 384 513 384 1019 
Q 384 1609 779 1909 
Q 1175 2209 1959 2209 
L 2766 2209 
L 2766 2266 
Q 2766 2663 2505 2880 
Q 2244 3097 1772 3097 
Q 1472 3097 1187 3025 
Q 903 2953 641 2809 
L 641 3341 
Q 956 3463 1253 3523 
Q 1550 3584 1831 3584 
Q 2591 3584 2966 3190 
Q 3341 2797 3341 1997 
z
" id="DejaVuSans-61" transform="scale(0.015625)"/>
     </defs>
     <use xlink:href="#DejaVuSans-46"/>
     <use x="50.269531" xlink:href="#DejaVuSans-72"/>
     <use x="89.132812" xlink:href="#DejaVuSans-6f"/>
     <use x="150.314453" xlink:href="#DejaVuSans-6e"/>
     <use x="213.693359" xlink:href="#DejaVuSans-74"/>
     <use x="252.902344" xlink:href="#DejaVuSans-20"/>
     <use x="284.689453" xlink:href="#DejaVuSans-50"/>
     <use x="343.242188" xlink:href="#DejaVuSans-72"/>
     <use x="382.105469" xlink:href="#DejaVuSans-6f"/>
     <use x="443.287109" xlink:href="#DejaVuSans-70"/>
     <use x="506.763672" xlink:href="#DejaVuSans-6f"/>
     <use x="567.945312" xlink:href="#DejaVuSans-67"/>
     <use x="631.421875" xlink:href="#DejaVuSans-61"/>
     <use x="692.701172" xlink:href="#DejaVuSans-74"/>
     <use x="731.910156" xlink:href="#DejaVuSans-69"/>
     <use x="759.693359" xlink:href="#DejaVuSans-6f"/>
     <use x="820.875" xlink:href="#DejaVuSans-6e"/>
     <use x="884.253906" xlink:href="#DejaVuSans-20"/>
     <use x="916.041016" xlink:href="#DejaVuSans-53"/>
     <use x="979.517578" xlink:href="#DejaVuSans-70"/>
     <use x="1042.994141" xlink:href="#DejaVuSans-65"/>
     <use x="1104.517578" xlink:href="#DejaVuSans-65"/>
     <use x="1166.041016" xlink:href="#DejaVuSans-64"/>
    </g>
   </g>
   <g id="legend_1">
    <g id="patch_7">
     <path d="M 325.967812 111.175687 
L 508.6 111.175687 
Q 511.4 111.175687 511.4 108.375687 
L 511.4 53 
Q 511.4 50.2 508.6 50.2 
L 325.967812 50.2 
Q 323.167812 50.2 323.167812 53 
L 323.167812 108.375687 
Q 323.167812 111.175687 325.967812 111.175687 
z
" style="fill:#ffffff;opacity:0.8;stroke:#cccccc;stroke-linejoin:miter;"/>
    </g>
    <g id="line2d_16">
     <path d="M 328.767812 61.537812 
L 356.767812 61.537812 
" style="fill:none;stroke:#ff0000;stroke-linecap:square;stroke-width:2;"/>
    </g>
    <g id="line2d_17"/>
    <g id="text_17">
     <!-- Front speed -->
     <g transform="translate(367.967812 66.437812)scale(0.14 -0.14)">
      <use xlink:href="#DejaVuSans-46"/>
      <use x="50.269531" xlink:href="#DejaVuSans-72"/>
      <use x="89.132812" xlink:href="#DejaVuSans-6f"/>
      <use x="150.314453" xlink:href="#DejaVuSans-6e"/>
      <use x="213.693359" xlink:href="#DejaVuSans-74"/>
      <use x="252.902344" xlink:href="#DejaVuSans-20"/>
      <use x="284.689453" xlink:href="#DejaVuSans-73"/>
      <use x="336.789062" xlink:href="#DejaVuSans-70"/>
      <use x="400.265625" xlink:href="#DejaVuSans-65"/>
      <use x="461.789062" xlink:href="#DejaVuSans-65"/>
      <use x="523.3125" xlink:href="#DejaVuSans-64"/>
     </g>
    </g>
    <g id="line2d_18">
     <path d="M 328.767812 91.381437 
L 356.767812 91.381437 
" style="fill:none;stroke:#000000;stroke-dasharray:5.55,2.4;stroke-dashoffset:0;stroke-width:1.5;"/>
    </g>
    <g id="line2d_19"/>
    <g id="text_18">
     <!-- Steady state -->
     <g transform="translate(367.967812 86.987187)scale(0.14 -0.14)">
      <defs>
       <path d="M 2059 -325 
Q 1816 -950 1584 -1140 
Q 1353 -1331 966 -1331 
L 506 -1331 
L 506 -850 
L 844 -850 
Q 1081 -850 1212 -737 
Q 1344 -625 1503 -206 
L 1606 56 
L 191 3500 
L 800 3500 
L 1894 763 
L 2988 3500 
L 3597 3500 
L 2059 -325 
z
" id="DejaVuSans-79" transform="scale(0.015625)"/>
      </defs>
      <use xlink:href="#DejaVuSans-53"/>
      <use x="63.476562" xlink:href="#DejaVuSans-74"/>
      <use x="102.685547" xlink:href="#DejaVuSans-65"/>
      <use x="164.208984" xlink:href="#DejaVuSans-61"/>
      <use x="225.488281" xlink:href="#DejaVuSans-64"/>
      <use x="288.964844" xlink:href="#DejaVuSans-79"/>
      <use x="348.144531" xlink:href="#DejaVuSans-20"/>
      <use x="379.931641" xlink:href="#DejaVuSans-73"/>
      <use x="432.03125" xlink:href="#DejaVuSans-74"/>
      <use x="471.240234" xlink:href="#DejaVuSans-61"/>
      <use x="532.519531" xlink:href="#DejaVuSans-74"/>
      <use x="571.728516" xlink:href="#DejaVuSans-65"/>
     </g>
     <!-- speed = 0.69 mm/s -->
     <g transform="translate(367.967812 102.664125)scale(0.14 -0.14)">
      <defs>
       <path d="M 678 2906 
L 4684 2906 
L 4684 2381 
L 678 2381 
L 678 2906 
z
M 678 1631 
L 4684 1631 
L 4684 1100 
L 678 1100 
L 678 1631 
z
" id="DejaVuSans-3d" transform="scale(0.015625)"/>
       <path d="M 2113 2584 
Q 1688 2584 1439 2293 
Q 1191 2003 1191 1497 
Q 1191 994 1439 701 
Q 1688 409 2113 409 
Q 2538 409 2786 701 
Q 3034 994 3034 1497 
Q 3034 2003 2786 2293 
Q 2538 2584 2113 2584 
z
M 3366 4563 
L 3366 3988 
Q 3128 4100 2886 4159 
Q 2644 4219 2406 4219 
Q 1781 4219 1451 3797 
Q 1122 3375 1075 2522 
Q 1259 2794 1537 2939 
Q 1816 3084 2150 3084 
Q 2853 3084 3261 2657 
Q 3669 2231 3669 1497 
Q 3669 778 3244 343 
Q 2819 -91 2113 -91 
Q 1303 -91 875 529 
Q 447 1150 447 2328 
Q 447 3434 972 4092 
Q 1497 4750 2381 4750 
Q 2619 4750 2861 4703 
Q 3103 4656 3366 4563 
z
" id="DejaVuSans-36" transform="scale(0.015625)"/>
       <path d="M 703 97 
L 703 672 
Q 941 559 1184 500 
Q 1428 441 1663 441 
Q 2288 441 2617 861 
Q 2947 1281 2994 2138 
Q 2813 1869 2534 1725 
Q 2256 1581 1919 1581 
Q 1219 1581 811 2004 
Q 403 2428 403 3163 
Q 403 3881 828 4315 
Q 1253 4750 1959 4750 
Q 2769 4750 3195 4129 
Q 3622 3509 3622 2328 
Q 3622 1225 3098 567 
Q 2575 -91 1691 -91 
Q 1453 -91 1209 -44 
Q 966 3 703 97 
z
M 1959 2075 
Q 2384 2075 2632 2365 
Q 2881 2656 2881 3163 
Q 2881 3666 2632 3958 
Q 2384 4250 1959 4250 
Q 1534 4250 1286 3958 
Q 1038 3666 1038 3163 
Q 1038 2656 1286 2365 
Q 1534 2075 1959 2075 
z
" id="DejaVuSans-39" transform="scale(0.015625)"/>
      </defs>
      <use xlink:href="#DejaVuSans-73"/>
      <use x="52.099609" xlink:href="#DejaVuSans-70"/>
      <use x="115.576172" xlink:href="#DejaVuSans-65"/>
      <use x="177.099609" xlink:href="#DejaVuSans-65"/>
      <use x="238.623047" xlink:href="#DejaVuSans-64"/>
      <use x="302.099609" xlink:href="#DejaVuSans-20"/>
      <use x="333.886719" xlink:href="#DejaVuSans-3d"/>
      <use x="417.675781" xlink:href="#DejaVuSans-20"/>
      <use x="449.462891" xlink:href="#DejaVuSans-30"/>
      <use x="513.085938" xlink:href="#DejaVuSans-2e"/>
      <use x="544.873047" xlink:href="#DejaVuSans-36"/>
      <use x="608.496094" xlink:href="#DejaVuSans-39"/>
      <use x="672.119141" xlink:href="#DejaVuSans-20"/>
      <use x="703.90625" xlink:href="#DejaVuSans-6d"/>
      <use x="801.318359" xlink:href="#DejaVuSans-6d"/>
      <use x="898.730469" xlink:href="#DejaVuSans-2f"/>
      <use x="932.421875" xlink:href="#DejaVuSans-73"/>
     </g>
    </g>
   </g>
  </g>
 </g>
 <defs>
  <clipPath id="p1f8021de4f">
   <rect height="277.2" width="446.4" x="72" y="43.2"/>
  </clipPath>
 </defs>
</svg>
