<?xml version="1.0" encoding="utf-8" standalone="no"?>
<!DOCTYPE svg PUBLIC "-//W3C//DTD SVG 1.1//EN"
  "http://www.w3.org/Graphics/SVG/1.1/DTD/svg11.dtd">
<svg height="360pt" version="1.1" viewBox="0 0 576 360" width="576pt" xmlns="http://www.w3.org/2000/svg" xmlns:xlink="http://www.w3.org/1999/xlink">
 <metadata>
  <rdf:RDF xmlns:cc="http://creativecommons.org/ns#" xmlns:dc="http://purl.org/dc/elements/1.1/" xmlns:rdf="http://www.w3.org/1999/02/22-rdf-syntax-ns#">
   <cc:Work>
    <dc:type rdf:resource="http://purl.org/dc/dcmitype/StillImage"/>
    <dc:date>2022-06-30T14:27:17.898259</dc:date>
    <dc:format>image/svg+xml</dc:format>
    <dc:creator>
     <cc:Agent>
      <dc:title>Matplotlib v3.4.3, https://matplotlib.org/</dc:title>
     </cc:Agent>
    </dc:creator>
   </cc:Work>
  </rdf:RDF>
 </metadata>
 <defs>
  <style type="text/css">*{stroke-linecap:butt;stroke-linejoin:round;}</style>
 </defs>
 <g id="figure_1">
  <g id="patch_1">
   <path d="M 0 360 
L 576 360 
L 576 0 
L 0 0 
z
" style="fill:#ffffff;"/>
  </g>
  <g id="axes_1">
   <g id="patch_2">
    <path d="M 72 320.4 
L 518.4 320.4 
L 518.4 43.2 
L 72 43.2 
z
" style="fill:#ffffff;"/>
   </g>
   <g id="PolyCollection_1">
    <defs>
     <path d="M 72 -186.878638 
L 72 -190.640407 
L 72.49163 -190.640407 
L 72.98326 -190.640407 
L 73.47489 -190.640407 
L 73.96652 -190.640407 
L 74.45815 -190.640407 
L 74.94978 -190.640407 
L 75.44141 -190.640407 
L 75.93304 -190.640407 
L 76.42467 -190.640407 
L 76.9163 -190.640407 
L 77.40793 -190.640407 
L 77.899559 -190.640407 
L 78.391189 -190.640407 
L 78.882819 -190.640407 
L 79.374449 -190.640407 
L 79.866079 -190.640407 
L 80.357709 -190.640407 
L 80.849339 -190.640407 
L 81.340969 -190.640407 
L 81.832599 -190.640407 
L 82.324229 -190.640407 
L 82.815859 -190.640407 
L 83.307489 -190.640407 
L 83.799119 -190.640407 
L 84.290749 -190.640407 
L 84.782379 -190.640407 
L 85.274009 -190.640407 
L 85.765639 -190.640407 
L 86.257269 -190.640407 
L 86.748899 -190.640407 
L 87.240529 -190.640407 
L 87.732159 -190.640407 
L 88.223789 -190.640407 
L 88.715419 -190.640407 
L 89.207048 -190.640407 
L 89.698678 -190.640407 
L 90.190308 -190.640407 
L 90.681938 -190.640407 
L 91.173568 -190.640407 
L 91.665198 -190.640407 
L 92.156828 -190.640407 
L 92.648458 -190.640407 
L 93.140088 -190.640407 
L 93.631718 -190.640407 
L 94.123348 -190.640407 
L 94.614978 -190.640407 
L 95.106608 -190.640407 
L 95.598238 -190.640407 
L 96.089868 -190.640407 
L 96.581498 -190.640407 
L 97.073128 -190.640407 
L 97.564758 -190.640407 
L 98.056388 -190.640407 
L 98.548018 -190.640407 
L 99.039648 -190.640407 
L 99.531278 -190.640407 
L 100.022907 -190.640407 
L 100.514537 -190.640407 
L 101.006167 -190.640407 
L 101.497797 -190.640407 
L 101.989427 -190.640407 
L 102.481057 -190.640407 
L 102.972687 -190.640407 
L 103.464317 -190.640407 
L 103.955947 -190.640407 
L 104.447577 -190.640407 
L 104.939207 -190.640407 
L 105.430837 -190.640407 
L 105.922467 -190.640407 
L 106.414097 -190.640407 
L 106.905727 -190.640407 
L 107.397357 -190.640407 
L 107.888987 -190.640407 
L 108.380617 -190.640407 
L 108.872247 -190.640407 
L 109.363877 -190.640407 
L 109.855507 -190.640407 
L 110.347137 -190.640407 
L 110.838767 -190.640407 
L 111.330396 -190.640407 
L 111.822026 -190.640407 
L 112.313656 -190.640407 
L 112.805286 -190.640407 
L 113.296916 -190.640407 
L 113.788546 -190.640407 
L 114.280176 -190.640407 
L 114.771806 -190.640407 
L 115.263436 -190.640407 
L 115.755066 -190.640407 
L 116.246696 -190.640407 
L 116.738326 -190.640407 
L 117.229956 -190.640407 
L 117.721586 -190.640407 
L 118.213216 -190.640407 
L 118.704846 -190.640407 
L 119.196476 -190.640407 
L 119.688106 -190.640407 
L 120.179736 -190.640407 
L 120.671366 -190.640407 
L 121.162996 -190.640407 
L 121.654626 -190.640407 
L 122.146256 -190.640407 
L 122.637885 -190.640407 
L 123.129515 -190.640407 
L 123.621145 -190.640407 
L 124.112775 -190.640407 
L 124.604405 -190.640407 
L 125.096035 -190.640407 
L 125.587665 -190.640407 
L 126.079295 -190.640407 
L 126.570925 -190.640407 
L 127.062555 -190.640407 
L 127.554185 -190.640407 
L 128.045815 -190.640407 
L 128.537445 -190.640407 
L 129.029075 -190.640407 
L 129.520705 -190.640407 
L 130.012335 -190.640407 
L 130.503965 -190.640407 
L 130.995595 -190.640407 
L 131.487225 -190.640407 
L 131.978855 -190.640407 
L 132.470485 -190.640407 
L 132.962115 -190.640407 
L 133.453744 -190.640407 
L 133.945374 -190.640407 
L 134.437004 -190.640407 
L 134.928634 -190.640407 
L 135.420264 -190.640407 
L 135.911894 -190.640407 
L 136.403524 -190.640407 
L 136.895154 -190.640407 
L 137.386784 -190.640407 
L 137.878414 -190.640407 
L 138.370044 -190.640407 
L 138.861674 -190.640407 
L 139.353304 -190.640407 
L 139.844934 -190.640407 
L 140.336564 -190.640407 
L 140.828194 -190.640407 
L 141.319824 -190.640407 
L 141.811454 -190.640407 
L 142.303084 -190.640407 
L 142.794714 -190.640407 
L 143.286344 -190.640407 
L 143.777974 -190.640407 
L 144.269604 -190.640407 
L 144.761233 -190.640407 
L 145.252863 -190.640407 
L 145.744493 -190.640407 
L 146.236123 -190.640407 
L 146.727753 -190.640407 
L 147.219383 -190.640407 
L 147.711013 -190.640407 
L 148.202643 -190.640407 
L 148.694273 -190.640407 
L 149.185903 -190.640407 
L 149.677533 -190.640407 
L 150.169163 -190.640407 
L 150.660793 -190.640407 
L 151.152423 -190.640407 
L 151.644053 -190.640407 
L 152.135683 -190.640407 
L 152.627313 -190.640407 
L 153.118943 -190.640407 
L 153.610573 -190.640407 
L 154.102203 -190.640407 
L 154.593833 -190.640407 
L 155.085463 -190.640407 
L 155.577093 -190.640407 
L 156.068722 -190.640407 
L 156.560352 -190.640407 
L 157.051982 -190.640407 
L 157.543612 -190.640407 
L 158.035242 -190.640407 
L 158.526872 -190.640407 
L 159.018502 -190.640407 
L 159.510132 -190.640407 
L 160.001762 -190.640407 
L 160.493392 -190.640407 
L 160.985022 -190.640407 
L 161.476652 -190.640407 
L 161.968282 -190.640407 
L 162.459912 -190.640407 
L 162.951542 -190.640407 
L 163.443172 -190.640407 
L 163.934802 -190.640407 
L 164.426432 -190.640407 
L 164.918062 -190.640407 
L 165.409692 -190.640407 
L 165.901322 -190.640407 
L 166.392952 -190.640407 
L 166.884581 -190.640407 
L 167.376211 -190.640407 
L 167.867841 -190.640407 
L 168.359471 -190.640407 
L 168.851101 -190.640407 
L 169.342731 -190.640407 
L 169.834361 -190.640407 
L 170.325991 -190.640407 
L 170.817621 -190.640407 
L 171.309251 -190.640407 
L 171.800881 -190.640407 
L 172.292511 -190.640407 
L 172.784141 -190.640407 
L 173.275771 -190.640407 
L 173.767401 -190.640407 
L 174.259031 -190.640407 
L 174.750661 -190.640407 
L 175.242291 -190.640407 
L 175.733921 -190.640407 
L 176.225551 -190.640407 
L 176.717181 -190.640407 
L 177.208811 -190.640407 
L 177.700441 -190.640407 
L 178.19207 -190.640407 
L 178.6837 -190.640407 
L 179.17533 -190.640407 
L 179.66696 -190.640407 
L 180.15859 -190.640407 
L 180.65022 -190.640407 
L 181.14185 -190.640407 
L 181.63348 -190.640407 
L 182.12511 -190.640407 
L 182.61674 -190.640407 
L 183.10837 -190.640407 
L 183.6 -190.640407 
L 184.09163 -190.640407 
L 184.58326 -190.640407 
L 185.07489 -190.640407 
L 185.56652 -190.640407 
L 186.05815 -190.640407 
L 186.54978 -190.640407 
L 187.04141 -190.640407 
L 187.53304 -190.640407 
L 188.02467 -190.640407 
L 188.5163 -190.640407 
L 189.00793 -190.640407 
L 189.499559 -190.640407 
L 189.991189 -190.640407 
L 190.482819 -190.640407 
L 190.974449 -190.640407 
L 191.466079 -190.640407 
L 191.957709 -190.640407 
L 192.449339 -190.640407 
L 192.940969 -190.640407 
L 193.432599 -190.640407 
L 193.924229 -190.640407 
L 194.415859 -190.640407 
L 194.907489 -190.640407 
L 195.399119 -190.640407 
L 195.890749 -190.640407 
L 196.382379 -190.640407 
L 196.874009 -190.640407 
L 197.365639 -190.640407 
L 197.857269 -190.640407 
L 198.348899 -190.640407 
L 198.840529 -190.640407 
L 199.332159 -190.640407 
L 199.823789 -190.640407 
L 200.315419 -190.640407 
L 200.807048 -190.640407 
L 201.298678 -190.640407 
L 201.790308 -190.640407 
L 202.281938 -190.640407 
L 202.773568 -190.640407 
L 203.265198 -190.640407 
L 203.756828 -190.640407 
L 204.248458 -190.640407 
L 204.740088 -190.640407 
L 205.231718 -190.640407 
L 205.723348 -190.640407 
L 206.214978 -190.640407 
L 206.706608 -190.640407 
L 207.198238 -190.640407 
L 207.689868 -190.640407 
L 208.181498 -190.640407 
L 208.673128 -190.640407 
L 209.164758 -190.640407 
L 209.656388 -190.640407 
L 210.148018 -190.640407 
L 210.639648 -190.640407 
L 211.131278 -190.640407 
L 211.622907 -190.640407 
L 212.114537 -190.640407 
L 212.606167 -190.640407 
L 213.097797 -190.640407 
L 213.589427 -190.640407 
L 214.081057 -190.640407 
L 214.572687 -190.640407 
L 215.064317 -190.640407 
L 215.555947 -190.640407 
L 216.047577 -190.640407 
L 216.539207 -190.640407 
L 217.030837 -190.640407 
L 217.522467 -190.640407 
L 218.014097 -190.640407 
L 218.505727 -190.640407 
L 218.997357 -190.640407 
L 219.488987 -190.640407 
L 219.980617 -190.640407 
L 220.472247 -190.640407 
L 220.963877 -190.640407 
L 221.455507 -190.640407 
L 221.947137 -190.640407 
L 222.438767 -190.640407 
L 222.930396 -190.640407 
L 223.422026 -190.640407 
L 223.913656 -190.640407 
L 224.405286 -190.640407 
L 224.896916 -190.640407 
L 225.388546 -190.640407 
L 225.880176 -190.640407 
L 226.371806 -190.640407 
L 226.863436 -190.640407 
L 227.355066 -190.640407 
L 227.846696 -190.640407 
L 228.338326 -190.640407 
L 228.829956 -190.640407 
L 229.321586 -190.640407 
L 229.813216 -190.640407 
L 230.304846 -190.640407 
L 230.796476 -190.640407 
L 231.288106 -190.640407 
L 231.779736 -190.640407 
L 232.271366 -190.640407 
L 232.762996 -190.640407 
L 233.254626 -190.640407 
L 233.746256 -190.640407 
L 234.237885 -190.640407 
L 234.729515 -190.640407 
L 235.221145 -190.640407 
L 235.712775 -190.640407 
L 236.204405 -190.640407 
L 236.696035 -190.640407 
L 237.187665 -190.640407 
L 237.679295 -190.640407 
L 238.170925 -190.640407 
L 238.662555 -190.640407 
L 239.154185 -190.640407 
L 239.645815 -190.640407 
L 240.137445 -190.640407 
L 240.629075 -190.640407 
L 241.120705 -190.640407 
L 241.612335 -190.640407 
L 242.103965 -190.640407 
L 242.595595 -190.640407 
L 243.087225 -190.640407 
L 243.578855 -190.640407 
L 244.070485 -190.640407 
L 244.562115 -190.640407 
L 245.053744 -190.640407 
L 245.545374 -190.640407 
L 246.037004 -190.640407 
L 246.528634 -190.640407 
L 247.020264 -190.640407 
L 247.511894 -190.640407 
L 248.003524 -190.640407 
L 248.495154 -190.640407 
L 248.986784 -190.640407 
L 249.478414 -190.640407 
L 249.970044 -190.640407 
L 250.461674 -190.640407 
L 250.953304 -190.640407 
L 251.444934 -190.640407 
L 251.936564 -190.640407 
L 252.428194 -190.640407 
L 252.919824 -190.640407 
L 253.411454 -190.640407 
L 253.903084 -190.640407 
L 254.394714 -190.640407 
L 254.886344 -190.640407 
L 255.377974 -190.640407 
L 255.869604 -190.640407 
L 256.361233 -190.640407 
L 256.852863 -190.640407 
L 257.344493 -190.640407 
L 257.836123 -190.640407 
L 258.327753 -190.640407 
L 258.819383 -190.640407 
L 259.311013 -190.640407 
L 259.802643 -190.640407 
L 260.294273 -190.640407 
L 260.785903 -190.640407 
L 261.277533 -190.640407 
L 261.769163 -190.640407 
L 262.260793 -190.640407 
L 262.752423 -190.640407 
L 263.244053 -190.640407 
L 263.735683 -190.640407 
L 264.227313 -190.640407 
L 264.718943 -190.640407 
L 265.210573 -190.640407 
L 265.702203 -190.640407 
L 266.193833 -190.640407 
L 266.685463 -190.640407 
L 267.177093 -190.640407 
L 267.668722 -190.640407 
L 268.160352 -190.640407 
L 268.651982 -190.640407 
L 269.143612 -190.640407 
L 269.635242 -190.640407 
L 270.126872 -190.640407 
L 270.618502 -190.640407 
L 271.110132 -190.640407 
L 271.601762 -190.640407 
L 272.093392 -190.640407 
L 272.585022 -190.640407 
L 273.076652 -190.640407 
L 273.568282 -190.640407 
L 274.059912 -190.640407 
L 274.551542 -190.640407 
L 275.043172 -190.640407 
L 275.534802 -190.640407 
L 276.026432 -190.640407 
L 276.518062 -190.640407 
L 277.009692 -190.640407 
L 277.501322 -190.640407 
L 277.992952 -190.640407 
L 278.484581 -190.640407 
L 278.976211 -190.640407 
L 279.467841 -190.640407 
L 279.959471 -190.640407 
L 280.451101 -190.640407 
L 280.942731 -190.640407 
L 281.434361 -190.640407 
L 281.925991 -190.640407 
L 282.417621 -190.640407 
L 282.909251 -190.640407 
L 283.400881 -190.640407 
L 283.892511 -190.640407 
L 284.384141 -190.640407 
L 284.875771 -190.640407 
L 285.367401 -190.640407 
L 285.859031 -190.640407 
L 286.350661 -190.640407 
L 286.842291 -190.640407 
L 287.333921 -190.640407 
L 287.825551 -190.640407 
L 288.317181 -190.640407 
L 288.808811 -190.640407 
L 289.300441 -190.640407 
L 289.79207 -190.640407 
L 290.2837 -190.640407 
L 290.77533 -190.640407 
L 291.26696 -190.640407 
L 291.75859 -190.640407 
L 292.25022 -190.640407 
L 292.74185 -190.640407 
L 293.23348 -190.640407 
L 293.72511 -190.640407 
L 294.21674 -190.640407 
L 294.70837 -190.640407 
L 295.2 -190.640407 
L 295.69163 -190.640407 
L 296.18326 -190.640407 
L 296.67489 -190.640407 
L 297.16652 -190.640407 
L 297.65815 -190.640407 
L 298.14978 -190.640407 
L 298.64141 -190.640407 
L 299.13304 -190.640407 
L 299.62467 -190.640407 
L 300.1163 -190.640407 
L 300.60793 -190.640407 
L 301.099559 -190.640407 
L 301.591189 -190.640407 
L 302.082819 -190.640407 
L 302.574449 -190.640407 
L 303.066079 -190.640407 
L 303.557709 -190.640407 
L 304.049339 -190.640407 
L 304.540969 -190.640407 
L 305.032599 -190.640407 
L 305.524229 -190.640407 
L 306.015859 -190.640407 
L 306.507489 -190.640407 
L 306.999119 -190.640407 
L 307.490749 -190.640407 
L 307.982379 -190.640407 
L 308.474009 -190.640407 
L 308.965639 -190.640407 
L 309.457269 -190.640407 
L 309.948899 -190.640407 
L 310.440529 -190.640407 
L 310.932159 -190.640407 
L 311.423789 -190.640407 
L 311.915419 -190.640407 
L 312.407048 -190.640407 
L 312.898678 -190.640407 
L 313.390308 -190.640407 
L 313.881938 -190.640407 
L 314.373568 -190.640407 
L 314.865198 -190.640407 
L 315.356828 -190.640407 
L 315.848458 -190.640407 
L 316.340088 -190.640407 
L 316.831718 -190.640407 
L 317.323348 -190.640407 
L 317.814978 -190.640407 
L 318.306608 -190.640407 
L 318.798238 -190.640407 
L 319.289868 -190.640407 
L 319.781498 -190.640407 
L 320.273128 -190.640407 
L 320.764758 -190.640407 
L 321.256388 -190.640407 
L 321.748018 -190.640407 
L 322.239648 -190.640407 
L 322.731278 -190.640407 
L 323.222907 -190.640407 
L 323.714537 -190.640407 
L 324.206167 -190.640407 
L 324.697797 -190.640407 
L 325.189427 -190.640407 
L 325.681057 -190.640407 
L 326.172687 -190.640407 
L 326.664317 -190.640407 
L 327.155947 -190.640407 
L 327.647577 -190.640407 
L 328.139207 -190.640407 
L 328.630837 -190.640407 
L 329.122467 -190.640407 
L 329.614097 -190.640407 
L 330.105727 -190.640407 
L 330.597357 -190.640407 
L 331.088987 -190.640407 
L 331.580617 -190.640407 
L 332.072247 -190.640407 
L 332.563877 -190.640407 
L 333.055507 -190.640407 
L 333.547137 -190.640407 
L 334.038767 -190.640407 
L 334.530396 -190.640407 
L 335.022026 -190.640407 
L 335.513656 -190.640407 
L 336.005286 -190.640407 
L 336.496916 -190.640407 
L 336.988546 -190.640407 
L 337.480176 -190.640407 
L 337.971806 -190.640407 
L 338.463436 -190.640407 
L 338.955066 -190.640407 
L 339.446696 -190.640407 
L 339.938326 -190.640407 
L 340.429956 -190.640407 
L 340.921586 -190.640407 
L 341.413216 -190.640407 
L 341.904846 -190.640407 
L 342.396476 -190.640407 
L 342.888106 -190.640407 
L 343.379736 -190.640407 
L 343.871366 -190.640407 
L 344.362996 -190.640407 
L 344.854626 -190.640407 
L 345.346256 -190.640407 
L 345.837885 -190.640407 
L 346.329515 -190.640407 
L 346.821145 -190.640407 
L 347.312775 -190.640407 
L 347.804405 -190.640407 
L 348.296035 -190.640407 
L 348.787665 -190.640407 
L 349.279295 -190.640407 
L 349.770925 -190.640407 
L 350.262555 -190.640407 
L 350.754185 -190.640407 
L 351.245815 -190.640407 
L 351.737445 -190.640407 
L 352.229075 -190.640407 
L 352.720705 -190.640407 
L 353.212335 -190.640407 
L 353.703965 -190.640407 
L 354.195595 -190.640407 
L 354.687225 -190.640407 
L 355.178855 -190.640407 
L 355.670485 -190.640407 
L 356.162115 -190.640407 
L 356.653744 -190.640407 
L 357.145374 -190.640407 
L 357.637004 -190.640407 
L 358.128634 -190.640407 
L 358.620264 -190.640407 
L 359.111894 -190.640407 
L 359.603524 -190.640407 
L 360.095154 -190.640407 
L 360.586784 -190.640407 
L 361.078414 -190.640407 
L 361.570044 -190.640407 
L 362.061674 -190.640407 
L 362.553304 -190.640407 
L 363.044934 -190.640407 
L 363.536564 -190.640407 
L 364.028194 -190.640407 
L 364.519824 -190.640407 
L 365.011454 -190.640407 
L 365.503084 -190.640407 
L 365.994714 -190.640407 
L 366.486344 -190.640407 
L 366.977974 -190.640407 
L 367.469604 -190.640407 
L 367.961233 -190.640407 
L 368.452863 -190.640407 
L 368.944493 -190.640407 
L 369.436123 -190.640407 
L 369.927753 -190.640407 
L 370.419383 -190.640407 
L 370.911013 -190.640407 
L 371.402643 -190.640407 
L 371.894273 -190.640407 
L 372.385903 -190.640407 
L 372.877533 -190.640407 
L 373.369163 -190.640407 
L 373.860793 -190.640407 
L 374.352423 -190.640407 
L 374.844053 -190.640407 
L 375.335683 -190.640407 
L 375.827313 -190.640407 
L 376.318943 -190.640407 
L 376.810573 -190.640407 
L 377.302203 -190.640407 
L 377.793833 -190.640407 
L 378.285463 -190.640407 
L 378.777093 -190.640407 
L 379.268722 -190.640407 
L 379.760352 -190.640407 
L 380.251982 -190.640407 
L 380.743612 -190.640407 
L 381.235242 -190.640407 
L 381.726872 -190.640407 
L 382.218502 -190.640407 
L 382.710132 -190.640407 
L 383.201762 -190.640407 
L 383.693392 -190.640407 
L 384.185022 -190.640407 
L 384.676652 -190.640407 
L 385.168282 -190.640407 
L 385.659912 -190.640407 
L 386.151542 -190.640407 
L 386.643172 -190.640407 
L 387.134802 -190.640407 
L 387.626432 -190.640407 
L 388.118062 -190.640407 
L 388.609692 -190.640407 
L 389.101322 -190.640407 
L 389.592952 -190.640407 
L 390.084581 -190.640407 
L 390.576211 -190.640407 
L 391.067841 -190.640407 
L 391.559471 -190.640407 
L 392.051101 -190.640407 
L 392.542731 -190.640407 
L 393.034361 -190.640407 
L 393.525991 -190.640407 
L 394.017621 -190.640407 
L 394.509251 -190.640407 
L 395.000881 -190.640407 
L 395.492511 -190.640407 
L 395.984141 -190.640407 
L 396.475771 -190.640407 
L 396.967401 -190.640407 
L 397.459031 -190.640407 
L 397.950661 -190.640407 
L 398.442291 -190.640407 
L 398.933921 -190.640407 
L 399.425551 -190.640407 
L 399.917181 -190.640407 
L 400.408811 -190.640407 
L 400.900441 -190.640407 
L 401.39207 -190.640407 
L 401.8837 -190.640407 
L 402.37533 -190.640407 
L 402.86696 -190.640407 
L 403.35859 -190.640407 
L 403.85022 -190.640407 
L 404.34185 -190.640407 
L 404.83348 -190.640407 
L 405.32511 -190.640407 
L 405.81674 -190.640407 
L 406.30837 -190.640407 
L 406.8 -190.640407 
L 407.29163 -190.640407 
L 407.78326 -190.640407 
L 408.27489 -190.640407 
L 408.76652 -190.640407 
L 409.25815 -190.640407 
L 409.74978 -190.640407 
L 410.24141 -190.640407 
L 410.73304 -190.640407 
L 411.22467 -190.640407 
L 411.7163 -190.640407 
L 412.20793 -190.640407 
L 412.699559 -190.640407 
L 413.191189 -190.640407 
L 413.682819 -190.640407 
L 414.174449 -190.640407 
L 414.666079 -190.640407 
L 415.157709 -190.640407 
L 415.649339 -190.640407 
L 416.140969 -190.640407 
L 416.632599 -190.640407 
L 417.124229 -190.640407 
L 417.615859 -190.640407 
L 418.107489 -190.640407 
L 418.599119 -190.640407 
L 419.090749 -190.640407 
L 419.582379 -190.640407 
L 420.074009 -190.640407 
L 420.565639 -190.640407 
L 421.057269 -190.640407 
L 421.548899 -190.640407 
L 422.040529 -190.640407 
L 422.532159 -190.640407 
L 423.023789 -190.640407 
L 423.515419 -190.640407 
L 424.007048 -190.640407 
L 424.498678 -190.640407 
L 424.990308 -190.640407 
L 425.481938 -190.640407 
L 425.973568 -190.640407 
L 426.465198 -190.640407 
L 426.956828 -190.640407 
L 427.448458 -190.640407 
L 427.940088 -190.640407 
L 428.431718 -190.640407 
L 428.923348 -190.640407 
L 429.414978 -190.640407 
L 429.906608 -190.640407 
L 430.398238 -190.640407 
L 430.889868 -190.640407 
L 431.381498 -190.640407 
L 431.873128 -190.640407 
L 432.364758 -190.640407 
L 432.856388 -190.640407 
L 433.348018 -190.640407 
L 433.839648 -190.640407 
L 434.331278 -190.640407 
L 434.822907 -190.640407 
L 435.314537 -190.640407 
L 435.806167 -190.640407 
L 436.297797 -190.640407 
L 436.789427 -190.640407 
L 437.281057 -190.640407 
L 437.772687 -190.640407 
L 438.264317 -190.640407 
L 438.755947 -190.640407 
L 439.247577 -190.640407 
L 439.739207 -190.640407 
L 440.230837 -190.640407 
L 440.722467 -190.640407 
L 441.214097 -190.640407 
L 441.705727 -190.640407 
L 442.197357 -190.640407 
L 442.688987 -190.640407 
L 443.180617 -190.640407 
L 443.672247 -190.640407 
L 444.163877 -190.640407 
L 444.655507 -190.640407 
L 445.147137 -190.640407 
L 445.638767 -190.640407 
L 446.130396 -190.640407 
L 446.622026 -190.640407 
L 447.113656 -190.640407 
L 447.605286 -190.640407 
L 448.096916 -190.640407 
L 448.588546 -190.640407 
L 449.080176 -190.640407 
L 449.571806 -190.640407 
L 450.063436 -190.640407 
L 450.555066 -190.640407 
L 451.046696 -190.640407 
L 451.538326 -190.640407 
L 452.029956 -190.640407 
L 452.521586 -190.640407 
L 453.013216 -190.640407 
L 453.504846 -190.640407 
L 453.996476 -190.640407 
L 454.488106 -190.640407 
L 454.979736 -190.640407 
L 455.471366 -190.640407 
L 455.962996 -190.640407 
L 456.454626 -190.640407 
L 456.946256 -190.640407 
L 457.437885 -190.640407 
L 457.929515 -190.640407 
L 458.421145 -190.640407 
L 458.912775 -190.640407 
L 459.404405 -190.640407 
L 459.896035 -190.640407 
L 460.387665 -190.640407 
L 460.879295 -190.640407 
L 461.370925 -190.640407 
L 461.862555 -190.640407 
L 462.354185 -190.640407 
L 462.845815 -190.640407 
L 463.337445 -190.640407 
L 463.829075 -190.640407 
L 464.320705 -190.640407 
L 464.812335 -190.640407 
L 465.303965 -190.640407 
L 465.795595 -190.640407 
L 466.287225 -190.640407 
L 466.778855 -190.640407 
L 467.270485 -190.640407 
L 467.762115 -190.640407 
L 468.253744 -190.640407 
L 468.745374 -190.640407 
L 469.237004 -190.640407 
L 469.728634 -190.640407 
L 470.220264 -190.640407 
L 470.711894 -190.640407 
L 471.203524 -190.640407 
L 471.695154 -190.640407 
L 472.186784 -190.640407 
L 472.678414 -190.640407 
L 473.170044 -190.640407 
L 473.661674 -190.640407 
L 474.153304 -190.640407 
L 474.644934 -190.640407 
L 475.136564 -190.640407 
L 475.628194 -190.640407 
L 476.119824 -190.640407 
L 476.611454 -190.640407 
L 477.103084 -190.640407 
L 477.594714 -190.640407 
L 478.086344 -190.640407 
L 478.577974 -190.640407 
L 479.069604 -190.640407 
L 479.561233 -190.640407 
L 480.052863 -190.640407 
L 480.544493 -190.640407 
L 481.036123 -190.640407 
L 481.527753 -190.640407 
L 482.019383 -190.640407 
L 482.511013 -190.640407 
L 483.002643 -190.640407 
L 483.494273 -190.640407 
L 483.985903 -190.640407 
L 484.477533 -190.640407 
L 484.969163 -190.640407 
L 485.460793 -190.640407 
L 485.952423 -190.640407 
L 486.444053 -190.640407 
L 486.935683 -190.640407 
L 487.427313 -190.640407 
L 487.918943 -190.640407 
L 488.410573 -190.640407 
L 488.902203 -190.640407 
L 489.393833 -190.640407 
L 489.885463 -190.640407 
L 490.377093 -190.640407 
L 490.868722 -190.640407 
L 491.360352 -190.640407 
L 491.851982 -190.640407 
L 492.343612 -190.640407 
L 492.835242 -190.640407 
L 493.326872 -190.640407 
L 493.818502 -190.640407 
L 494.310132 -190.640407 
L 494.801762 -190.640407 
L 495.293392 -190.640407 
L 495.785022 -190.640407 
L 496.276652 -190.640407 
L 496.768282 -190.640407 
L 497.259912 -190.640407 
L 497.751542 -190.640407 
L 498.243172 -190.640407 
L 498.734802 -190.640407 
L 499.226432 -190.640407 
L 499.718062 -190.640407 
L 500.209692 -190.640407 
L 500.701322 -190.640407 
L 501.192952 -190.640407 
L 501.684581 -190.640407 
L 502.176211 -190.640407 
L 502.667841 -190.640407 
L 503.159471 -190.640407 
L 503.651101 -190.640407 
L 504.142731 -190.640407 
L 504.634361 -190.640407 
L 505.125991 -190.640407 
L 505.617621 -190.640407 
L 506.109251 -190.640407 
L 506.600881 -190.640407 
L 507.092511 -190.640407 
L 507.584141 -190.640407 
L 508.075771 -190.640407 
L 508.567401 -190.640407 
L 509.059031 -190.640407 
L 509.550661 -190.640407 
L 510.042291 -190.640407 
L 510.533921 -190.640407 
L 511.025551 -190.640407 
L 511.517181 -190.640407 
L 512.008811 -190.640407 
L 512.500441 -190.640407 
L 512.99207 -190.640407 
L 513.4837 -190.640407 
L 513.97533 -190.640407 
L 514.46696 -190.640407 
L 514.95859 -190.640407 
L 515.45022 -190.640407 
L 515.94185 -190.640407 
L 516.43348 -190.640407 
L 516.92511 -190.640407 
L 517.41674 -190.640407 
L 517.90837 -190.640407 
L 518.4 -190.640407 
L 518.4 -186.878638 
L 518.4 -186.878638 
L 517.90837 -186.878638 
L 517.41674 -186.878638 
L 516.92511 -186.878638 
L 516.43348 -186.878638 
L 515.94185 -186.878638 
L 515.45022 -186.878638 
L 514.95859 -186.878638 
L 514.46696 -186.878638 
L 513.97533 -186.878638 
L 513.4837 -186.878638 
L 512.99207 -186.878638 
L 512.500441 -186.878638 
L 512.008811 -186.878638 
L 511.517181 -186.878638 
L 511.025551 -186.878638 
L 510.533921 -186.878638 
L 510.042291 -186.878638 
L 509.550661 -186.878638 
L 509.059031 -186.878638 
L 508.567401 -186.878638 
L 508.075771 -186.878638 
L 507.584141 -186.878638 
L 507.092511 -186.878638 
L 506.600881 -186.878638 
L 506.109251 -186.878638 
L 505.617621 -186.878638 
L 505.125991 -186.878638 
L 504.634361 -186.878638 
L 504.142731 -186.878638 
L 503.651101 -186.878638 
L 503.159471 -186.878638 
L 502.667841 -186.878638 
L 502.176211 -186.878638 
L 501.684581 -186.878638 
L 501.192952 -186.878638 
L 500.701322 -186.878638 
L 500.209692 -186.878638 
L 499.718062 -186.878638 
L 499.226432 -186.878638 
L 498.734802 -186.878638 
L 498.243172 -186.878638 
L 497.751542 -186.878638 
L 497.259912 -186.878638 
L 496.768282 -186.878638 
L 496.276652 -186.878638 
L 495.785022 -186.878638 
L 495.293392 -186.878638 
L 494.801762 -186.878638 
L 494.310132 -186.878638 
L 493.818502 -186.878638 
L 493.326872 -186.878638 
L 492.835242 -186.878638 
L 492.343612 -186.878638 
L 491.851982 -186.878638 
L 491.360352 -186.878638 
L 490.868722 -186.878638 
L 490.377093 -186.878638 
L 489.885463 -186.878638 
L 489.393833 -186.878638 
L 488.902203 -186.878638 
L 488.410573 -186.878638 
L 487.918943 -186.878638 
L 487.427313 -186.878638 
L 486.935683 -186.878638 
L 486.444053 -186.878638 
L 485.952423 -186.878638 
L 485.460793 -186.878638 
L 484.969163 -186.878638 
L 484.477533 -186.878638 
L 483.985903 -186.878638 
L 483.494273 -186.878638 
L 483.002643 -186.878638 
L 482.511013 -186.878638 
L 482.019383 -186.878638 
L 481.527753 -186.878638 
L 481.036123 -186.878638 
L 480.544493 -186.878638 
L 480.052863 -186.878638 
L 479.561233 -186.878638 
L 479.069604 -186.878638 
L 478.577974 -186.878638 
L 478.086344 -186.878638 
L 477.594714 -186.878638 
L 477.103084 -186.878638 
L 476.611454 -186.878638 
L 476.119824 -186.878638 
L 475.628194 -186.878638 
L 475.136564 -186.878638 
L 474.644934 -186.878638 
L 474.153304 -186.878638 
L 473.661674 -186.878638 
L 473.170044 -186.878638 
L 472.678414 -186.878638 
L 472.186784 -186.878638 
L 471.695154 -186.878638 
L 471.203524 -186.878638 
L 470.711894 -186.878638 
L 470.220264 -186.878638 
L 469.728634 -186.878638 
L 469.237004 -186.878638 
L 468.745374 -186.878638 
L 468.253744 -186.878638 
L 467.762115 -186.878638 
L 467.270485 -186.878638 
L 466.778855 -186.878638 
L 466.287225 -186.878638 
L 465.795595 -186.878638 
L 465.303965 -186.878638 
L 464.812335 -186.878638 
L 464.320705 -186.878638 
L 463.829075 -186.878638 
L 463.337445 -186.878638 
L 462.845815 -186.878638 
L 462.354185 -186.878638 
L 461.862555 -186.878638 
L 461.370925 -186.878638 
L 460.879295 -186.878638 
L 460.387665 -186.878638 
L 459.896035 -186.878638 
L 459.404405 -186.878638 
L 458.912775 -186.878638 
L 458.421145 -186.878638 
L 457.929515 -186.878638 
L 457.437885 -186.878638 
L 456.946256 -186.878638 
L 456.454626 -186.878638 
L 455.962996 -186.878638 
L 455.471366 -186.878638 
L 454.979736 -186.878638 
L 454.488106 -186.878638 
L 453.996476 -186.878638 
L 453.504846 -186.878638 
L 453.013216 -186.878638 
L 452.521586 -186.878638 
L 452.029956 -186.878638 
L 451.538326 -186.878638 
L 451.046696 -186.878638 
L 450.555066 -186.878638 
L 450.063436 -186.878638 
L 449.571806 -186.878638 
L 449.080176 -186.878638 
L 448.588546 -186.878638 
L 448.096916 -186.878638 
L 447.605286 -186.878638 
L 447.113656 -186.878638 
L 446.622026 -186.878638 
L 446.130396 -186.878638 
L 445.638767 -186.878638 
L 445.147137 -186.878638 
L 444.655507 -186.878638 
L 444.163877 -186.878638 
L 443.672247 -186.878638 
L 443.180617 -186.878638 
L 442.688987 -186.878638 
L 442.197357 -186.878638 
L 441.705727 -186.878638 
L 441.214097 -186.878638 
L 440.722467 -186.878638 
L 440.230837 -186.878638 
L 439.739207 -186.878638 
L 439.247577 -186.878638 
L 438.755947 -186.878638 
L 438.264317 -186.878638 
L 437.772687 -186.878638 
L 437.281057 -186.878638 
L 436.789427 -186.878638 
L 436.297797 -186.878638 
L 435.806167 -186.878638 
L 435.314537 -186.878638 
L 434.822907 -186.878638 
L 434.331278 -186.878638 
L 433.839648 -186.878638 
L 433.348018 -186.878638 
L 432.856388 -186.878638 
L 432.364758 -186.878638 
L 431.873128 -186.878638 
L 431.381498 -186.878638 
L 430.889868 -186.878638 
L 430.398238 -186.878638 
L 429.906608 -186.878638 
L 429.414978 -186.878638 
L 428.923348 -186.878638 
L 428.431718 -186.878638 
L 427.940088 -186.878638 
L 427.448458 -186.878638 
L 426.956828 -186.878638 
L 426.465198 -186.878638 
L 425.973568 -186.878638 
L 425.481938 -186.878638 
L 424.990308 -186.878638 
L 424.498678 -186.878638 
L 424.007048 -186.878638 
L 423.515419 -186.878638 
L 423.023789 -186.878638 
L 422.532159 -186.878638 
L 422.040529 -186.878638 
L 421.548899 -186.878638 
L 421.057269 -186.878638 
L 420.565639 -186.878638 
L 420.074009 -186.878638 
L 419.582379 -186.878638 
L 419.090749 -186.878638 
L 418.599119 -186.878638 
L 418.107489 -186.878638 
L 417.615859 -186.878638 
L 417.124229 -186.878638 
L 416.632599 -186.878638 
L 416.140969 -186.878638 
L 415.649339 -186.878638 
L 415.157709 -186.878638 
L 414.666079 -186.878638 
L 414.174449 -186.878638 
L 413.682819 -186.878638 
L 413.191189 -186.878638 
L 412.699559 -186.878638 
L 412.20793 -186.878638 
L 411.7163 -186.878638 
L 411.22467 -186.878638 
L 410.73304 -186.878638 
L 410.24141 -186.878638 
L 409.74978 -186.878638 
L 409.25815 -186.878638 
L 408.76652 -186.878638 
L 408.27489 -186.878638 
L 407.78326 -186.878638 
L 407.29163 -186.878638 
L 406.8 -186.878638 
L 406.30837 -186.878638 
L 405.81674 -186.878638 
L 405.32511 -186.878638 
L 404.83348 -186.878638 
L 404.34185 -186.878638 
L 403.85022 -186.878638 
L 403.35859 -186.878638 
L 402.86696 -186.878638 
L 402.37533 -186.878638 
L 401.8837 -186.878638 
L 401.39207 -186.878638 
L 400.900441 -186.878638 
L 400.408811 -186.878638 
L 399.917181 -186.878638 
L 399.425551 -186.878638 
L 398.933921 -186.878638 
L 398.442291 -186.878638 
L 397.950661 -186.878638 
L 397.459031 -186.878638 
L 396.967401 -186.878638 
L 396.475771 -186.878638 
L 395.984141 -186.878638 
L 395.492511 -186.878638 
L 395.000881 -186.878638 
L 394.509251 -186.878638 
L 394.017621 -186.878638 
L 393.525991 -186.878638 
L 393.034361 -186.878638 
L 392.542731 -186.878638 
L 392.051101 -186.878638 
L 391.559471 -186.878638 
L 391.067841 -186.878638 
L 390.576211 -186.878638 
L 390.084581 -186.878638 
L 389.592952 -186.878638 
L 389.101322 -186.878638 
L 388.609692 -186.878638 
L 388.118062 -186.878638 
L 387.626432 -186.878638 
L 387.134802 -186.878638 
L 386.643172 -186.878638 
L 386.151542 -186.878638 
L 385.659912 -186.878638 
L 385.168282 -186.878638 
L 384.676652 -186.878638 
L 384.185022 -186.878638 
L 383.693392 -186.878638 
L 383.201762 -186.878638 
L 382.710132 -186.878638 
L 382.218502 -186.878638 
L 381.726872 -186.878638 
L 381.235242 -186.878638 
L 380.743612 -186.878638 
L 380.251982 -186.878638 
L 379.760352 -186.878638 
L 379.268722 -186.878638 
L 378.777093 -186.878638 
L 378.285463 -186.878638 
L 377.793833 -186.878638 
L 377.302203 -186.878638 
L 376.810573 -186.878638 
L 376.318943 -186.878638 
L 375.827313 -186.878638 
L 375.335683 -186.878638 
L 374.844053 -186.878638 
L 374.352423 -186.878638 
L 373.860793 -186.878638 
L 373.369163 -186.878638 
L 372.877533 -186.878638 
L 372.385903 -186.878638 
L 371.894273 -186.878638 
L 371.402643 -186.878638 
L 370.911013 -186.878638 
L 370.419383 -186.878638 
L 369.927753 -186.878638 
L 369.436123 -186.878638 
L 368.944493 -186.878638 
L 368.452863 -186.878638 
L 367.961233 -186.878638 
L 367.469604 -186.878638 
L 366.977974 -186.878638 
L 366.486344 -186.878638 
L 365.994714 -186.878638 
L 365.503084 -186.878638 
L 365.011454 -186.878638 
L 364.519824 -186.878638 
L 364.028194 -186.878638 
L 363.536564 -186.878638 
L 363.044934 -186.878638 
L 362.553304 -186.878638 
L 362.061674 -186.878638 
L 361.570044 -186.878638 
L 361.078414 -186.878638 
L 360.586784 -186.878638 
L 360.095154 -186.878638 
L 359.603524 -186.878638 
L 359.111894 -186.878638 
L 358.620264 -186.878638 
L 358.128634 -186.878638 
L 357.637004 -186.878638 
L 357.145374 -186.878638 
L 356.653744 -186.878638 
L 356.162115 -186.878638 
L 355.670485 -186.878638 
L 355.178855 -186.878638 
L 354.687225 -186.878638 
L 354.195595 -186.878638 
L 353.703965 -186.878638 
L 353.212335 -186.878638 
L 352.720705 -186.878638 
L 352.229075 -186.878638 
L 351.737445 -186.878638 
L 351.245815 -186.878638 
L 350.754185 -186.878638 
L 350.262555 -186.878638 
L 349.770925 -186.878638 
L 349.279295 -186.878638 
L 348.787665 -186.878638 
L 348.296035 -186.878638 
L 347.804405 -186.878638 
L 347.312775 -186.878638 
L 346.821145 -186.878638 
L 346.329515 -186.878638 
L 345.837885 -186.878638 
L 345.346256 -186.878638 
L 344.854626 -186.878638 
L 344.362996 -186.878638 
L 343.871366 -186.878638 
L 343.379736 -186.878638 
L 342.888106 -186.878638 
L 342.396476 -186.878638 
L 341.904846 -186.878638 
L 341.413216 -186.878638 
L 340.921586 -186.878638 
L 340.429956 -186.878638 
L 339.938326 -186.878638 
L 339.446696 -186.878638 
L 338.955066 -186.878638 
L 338.463436 -186.878638 
L 337.971806 -186.878638 
L 337.480176 -186.878638 
L 336.988546 -186.878638 
L 336.496916 -186.878638 
L 336.005286 -186.878638 
L 335.513656 -186.878638 
L 335.022026 -186.878638 
L 334.530396 -186.878638 
L 334.038767 -186.878638 
L 333.547137 -186.878638 
L 333.055507 -186.878638 
L 332.563877 -186.878638 
L 332.072247 -186.878638 
L 331.580617 -186.878638 
L 331.088987 -186.878638 
L 330.597357 -186.878638 
L 330.105727 -186.878638 
L 329.614097 -186.878638 
L 329.122467 -186.878638 
L 328.630837 -186.878638 
L 328.139207 -186.878638 
L 327.647577 -186.878638 
L 327.155947 -186.878638 
L 326.664317 -186.878638 
L 326.172687 -186.878638 
L 325.681057 -186.878638 
L 325.189427 -186.878638 
L 324.697797 -186.878638 
L 324.206167 -186.878638 
L 323.714537 -186.878638 
L 323.222907 -186.878638 
L 322.731278 -186.878638 
L 322.239648 -186.878638 
L 321.748018 -186.878638 
L 321.256388 -186.878638 
L 320.764758 -186.878638 
L 320.273128 -186.878638 
L 319.781498 -186.878638 
L 319.289868 -186.878638 
L 318.798238 -186.878638 
L 318.306608 -186.878638 
L 317.814978 -186.878638 
L 317.323348 -186.878638 
L 316.831718 -186.878638 
L 316.340088 -186.878638 
L 315.848458 -186.878638 
L 315.356828 -186.878638 
L 314.865198 -186.878638 
L 314.373568 -186.878638 
L 313.881938 -186.878638 
L 313.390308 -186.878638 
L 312.898678 -186.878638 
L 312.407048 -186.878638 
L 311.915419 -186.878638 
L 311.423789 -186.878638 
L 310.932159 -186.878638 
L 310.440529 -186.878638 
L 309.948899 -186.878638 
L 309.457269 -186.878638 
L 308.965639 -186.878638 
L 308.474009 -186.878638 
L 307.982379 -186.878638 
L 307.490749 -186.878638 
L 306.999119 -186.878638 
L 306.507489 -186.878638 
L 306.015859 -186.878638 
L 305.524229 -186.878638 
L 305.032599 -186.878638 
L 304.540969 -186.878638 
L 304.049339 -186.878638 
L 303.557709 -186.878638 
L 303.066079 -186.878638 
L 302.574449 -186.878638 
L 302.082819 -186.878638 
L 301.591189 -186.878638 
L 301.099559 -186.878638 
L 300.60793 -186.878638 
L 300.1163 -186.878638 
L 299.62467 -186.878638 
L 299.13304 -186.878638 
L 298.64141 -186.878638 
L 298.14978 -186.878638 
L 297.65815 -186.878638 
L 297.16652 -186.878638 
L 296.67489 -186.878638 
L 296.18326 -186.878638 
L 295.69163 -186.878638 
L 295.2 -186.878638 
L 294.70837 -186.878638 
L 294.21674 -186.878638 
L 293.72511 -186.878638 
L 293.23348 -186.878638 
L 292.74185 -186.878638 
L 292.25022 -186.878638 
L 291.75859 -186.878638 
L 291.26696 -186.878638 
L 290.77533 -186.878638 
L 290.2837 -186.878638 
L 289.79207 -186.878638 
L 289.300441 -186.878638 
L 288.808811 -186.878638 
L 288.317181 -186.878638 
L 287.825551 -186.878638 
L 287.333921 -186.878638 
L 286.842291 -186.878638 
L 286.350661 -186.878638 
L 285.859031 -186.878638 
L 285.367401 -186.878638 
L 284.875771 -186.878638 
L 284.384141 -186.878638 
L 283.892511 -186.878638 
L 283.400881 -186.878638 
L 282.909251 -186.878638 
L 282.417621 -186.878638 
L 281.925991 -186.878638 
L 281.434361 -186.878638 
L 280.942731 -186.878638 
L 280.451101 -186.878638 
L 279.959471 -186.878638 
L 279.467841 -186.878638 
L 278.976211 -186.878638 
L 278.484581 -186.878638 
L 277.992952 -186.878638 
L 277.501322 -186.878638 
L 277.009692 -186.878638 
L 276.518062 -186.878638 
L 276.026432 -186.878638 
L 275.534802 -186.878638 
L 275.043172 -186.878638 
L 274.551542 -186.878638 
L 274.059912 -186.878638 
L 273.568282 -186.878638 
L 273.076652 -186.878638 
L 272.585022 -186.878638 
L 272.093392 -186.878638 
L 271.601762 -186.878638 
L 271.110132 -186.878638 
L 270.618502 -186.878638 
L 270.126872 -186.878638 
L 269.635242 -186.878638 
L 269.143612 -186.878638 
L 268.651982 -186.878638 
L 268.160352 -186.878638 
L 267.668722 -186.878638 
L 267.177093 -186.878638 
L 266.685463 -186.878638 
L 266.193833 -186.878638 
L 265.702203 -186.878638 
L 265.210573 -186.878638 
L 264.718943 -186.878638 
L 264.227313 -186.878638 
L 263.735683 -186.878638 
L 263.244053 -186.878638 
L 262.752423 -186.878638 
L 262.260793 -186.878638 
L 261.769163 -186.878638 
L 261.277533 -186.878638 
L 260.785903 -186.878638 
L 260.294273 -186.878638 
L 259.802643 -186.878638 
L 259.311013 -186.878638 
L 258.819383 -186.878638 
L 258.327753 -186.878638 
L 257.836123 -186.878638 
L 257.344493 -186.878638 
L 256.852863 -186.878638 
L 256.361233 -186.878638 
L 255.869604 -186.878638 
L 255.377974 -186.878638 
L 254.886344 -186.878638 
L 254.394714 -186.878638 
L 253.903084 -186.878638 
L 253.411454 -186.878638 
L 252.919824 -186.878638 
L 252.428194 -186.878638 
L 251.936564 -186.878638 
L 251.444934 -186.878638 
L 250.953304 -186.878638 
L 250.461674 -186.878638 
L 249.970044 -186.878638 
L 249.478414 -186.878638 
L 248.986784 -186.878638 
L 248.495154 -186.878638 
L 248.003524 -186.878638 
L 247.511894 -186.878638 
L 247.020264 -186.878638 
L 246.528634 -186.878638 
L 246.037004 -186.878638 
L 245.545374 -186.878638 
L 245.053744 -186.878638 
L 244.562115 -186.878638 
L 244.070485 -186.878638 
L 243.578855 -186.878638 
L 243.087225 -186.878638 
L 242.595595 -186.878638 
L 242.103965 -186.878638 
L 241.612335 -186.878638 
L 241.120705 -186.878638 
L 240.629075 -186.878638 
L 240.137445 -186.878638 
L 239.645815 -186.878638 
L 239.154185 -186.878638 
L 238.662555 -186.878638 
L 238.170925 -186.878638 
L 237.679295 -186.878638 
L 237.187665 -186.878638 
L 236.696035 -186.878638 
L 236.204405 -186.878638 
L 235.712775 -186.878638 
L 235.221145 -186.878638 
L 234.729515 -186.878638 
L 234.237885 -186.878638 
L 233.746256 -186.878638 
L 233.254626 -186.878638 
L 232.762996 -186.878638 
L 232.271366 -186.878638 
L 231.779736 -186.878638 
L 231.288106 -186.878638 
L 230.796476 -186.878638 
L 230.304846 -186.878638 
L 229.813216 -186.878638 
L 229.321586 -186.878638 
L 228.829956 -186.878638 
L 228.338326 -186.878638 
L 227.846696 -186.878638 
L 227.355066 -186.878638 
L 226.863436 -186.878638 
L 226.371806 -186.878638 
L 225.880176 -186.878638 
L 225.388546 -186.878638 
L 224.896916 -186.878638 
L 224.405286 -186.878638 
L 223.913656 -186.878638 
L 223.422026 -186.878638 
L 222.930396 -186.878638 
L 222.438767 -186.878638 
L 221.947137 -186.878638 
L 221.455507 -186.878638 
L 220.963877 -186.878638 
L 220.472247 -186.878638 
L 219.980617 -186.878638 
L 219.488987 -186.878638 
L 218.997357 -186.878638 
L 218.505727 -186.878638 
L 218.014097 -186.878638 
L 217.522467 -186.878638 
L 217.030837 -186.878638 
L 216.539207 -186.878638 
L 216.047577 -186.878638 
L 215.555947 -186.878638 
L 215.064317 -186.878638 
L 214.572687 -186.878638 
L 214.081057 -186.878638 
L 213.589427 -186.878638 
L 213.097797 -186.878638 
L 212.606167 -186.878638 
L 212.114537 -186.878638 
L 211.622907 -186.878638 
L 211.131278 -186.878638 
L 210.639648 -186.878638 
L 210.148018 -186.878638 
L 209.656388 -186.878638 
L 209.164758 -186.878638 
L 208.673128 -186.878638 
L 208.181498 -186.878638 
L 207.689868 -186.878638 
L 207.198238 -186.878638 
L 206.706608 -186.878638 
L 206.214978 -186.878638 
L 205.723348 -186.878638 
L 205.231718 -186.878638 
L 204.740088 -186.878638 
L 204.248458 -186.878638 
L 203.756828 -186.878638 
L 203.265198 -186.878638 
L 202.773568 -186.878638 
L 202.281938 -186.878638 
L 201.790308 -186.878638 
L 201.298678 -186.878638 
L 200.807048 -186.878638 
L 200.315419 -186.878638 
L 199.823789 -186.878638 
L 199.332159 -186.878638 
L 198.840529 -186.878638 
L 198.348899 -186.878638 
L 197.857269 -186.878638 
L 197.365639 -186.878638 
L 196.874009 -186.878638 
L 196.382379 -186.878638 
L 195.890749 -186.878638 
L 195.399119 -186.878638 
L 194.907489 -186.878638 
L 194.415859 -186.878638 
L 193.924229 -186.878638 
L 193.432599 -186.878638 
L 192.940969 -186.878638 
L 192.449339 -186.878638 
L 191.957709 -186.878638 
L 191.466079 -186.878638 
L 190.974449 -186.878638 
L 190.482819 -186.878638 
L 189.991189 -186.878638 
L 189.499559 -186.878638 
L 189.00793 -186.878638 
L 188.5163 -186.878638 
L 188.02467 -186.878638 
L 187.53304 -186.878638 
L 187.04141 -186.878638 
L 186.54978 -186.878638 
L 186.05815 -186.878638 
L 185.56652 -186.878638 
L 185.07489 -186.878638 
L 184.58326 -186.878638 
L 184.09163 -186.878638 
L 183.6 -186.878638 
L 183.10837 -186.878638 
L 182.61674 -186.878638 
L 182.12511 -186.878638 
L 181.63348 -186.878638 
L 181.14185 -186.878638 
L 180.65022 -186.878638 
L 180.15859 -186.878638 
L 179.66696 -186.878638 
L 179.17533 -186.878638 
L 178.6837 -186.878638 
L 178.19207 -186.878638 
L 177.700441 -186.878638 
L 177.208811 -186.878638 
L 176.717181 -186.878638 
L 176.225551 -186.878638 
L 175.733921 -186.878638 
L 175.242291 -186.878638 
L 174.750661 -186.878638 
L 174.259031 -186.878638 
L 173.767401 -186.878638 
L 173.275771 -186.878638 
L 172.784141 -186.878638 
L 172.292511 -186.878638 
L 171.800881 -186.878638 
L 171.309251 -186.878638 
L 170.817621 -186.878638 
L 170.325991 -186.878638 
L 169.834361 -186.878638 
L 169.342731 -186.878638 
L 168.851101 -186.878638 
L 168.359471 -186.878638 
L 167.867841 -186.878638 
L 167.376211 -186.878638 
L 166.884581 -186.878638 
L 166.392952 -186.878638 
L 165.901322 -186.878638 
L 165.409692 -186.878638 
L 164.918062 -186.878638 
L 164.426432 -186.878638 
L 163.934802 -186.878638 
L 163.443172 -186.878638 
L 162.951542 -186.878638 
L 162.459912 -186.878638 
L 161.968282 -186.878638 
L 161.476652 -186.878638 
L 160.985022 -186.878638 
L 160.493392 -186.878638 
L 160.001762 -186.878638 
L 159.510132 -186.878638 
L 159.018502 -186.878638 
L 158.526872 -186.878638 
L 158.035242 -186.878638 
L 157.543612 -186.878638 
L 157.051982 -186.878638 
L 156.560352 -186.878638 
L 156.068722 -186.878638 
L 155.577093 -186.878638 
L 155.085463 -186.878638 
L 154.593833 -186.878638 
L 154.102203 -186.878638 
L 153.610573 -186.878638 
L 153.118943 -186.878638 
L 152.627313 -186.878638 
L 152.135683 -186.878638 
L 151.644053 -186.878638 
L 151.152423 -186.878638 
L 150.660793 -186.878638 
L 150.169163 -186.878638 
L 149.677533 -186.878638 
L 149.185903 -186.878638 
L 148.694273 -186.878638 
L 148.202643 -186.878638 
L 147.711013 -186.878638 
L 147.219383 -186.878638 
L 146.727753 -186.878638 
L 146.236123 -186.878638 
L 145.744493 -186.878638 
L 145.252863 -186.878638 
L 144.761233 -186.878638 
L 144.269604 -186.878638 
L 143.777974 -186.878638 
L 143.286344 -186.878638 
L 142.794714 -186.878638 
L 142.303084 -186.878638 
L 141.811454 -186.878638 
L 141.319824 -186.878638 
L 140.828194 -186.878638 
L 140.336564 -186.878638 
L 139.844934 -186.878638 
L 139.353304 -186.878638 
L 138.861674 -186.878638 
L 138.370044 -186.878638 
L 137.878414 -186.878638 
L 137.386784 -186.878638 
L 136.895154 -186.878638 
L 136.403524 -186.878638 
L 135.911894 -186.878638 
L 135.420264 -186.878638 
L 134.928634 -186.878638 
L 134.437004 -186.878638 
L 133.945374 -186.878638 
L 133.453744 -186.878638 
L 132.962115 -186.878638 
L 132.470485 -186.878638 
L 131.978855 -186.878638 
L 131.487225 -186.878638 
L 130.995595 -186.878638 
L 130.503965 -186.878638 
L 130.012335 -186.878638 
L 129.520705 -186.878638 
L 129.029075 -186.878638 
L 128.537445 -186.878638 
L 128.045815 -186.878638 
L 127.554185 -186.878638 
L 127.062555 -186.878638 
L 126.570925 -186.878638 
L 126.079295 -186.878638 
L 125.587665 -186.878638 
L 125.096035 -186.878638 
L 124.604405 -186.878638 
L 124.112775 -186.878638 
L 123.621145 -186.878638 
L 123.129515 -186.878638 
L 122.637885 -186.878638 
L 122.146256 -186.878638 
L 121.654626 -186.878638 
L 121.162996 -186.878638 
L 120.671366 -186.878638 
L 120.179736 -186.878638 
L 119.688106 -186.878638 
L 119.196476 -186.878638 
L 118.704846 -186.878638 
L 118.213216 -186.878638 
L 117.721586 -186.878638 
L 117.229956 -186.878638 
L 116.738326 -186.878638 
L 116.246696 -186.878638 
L 115.755066 -186.878638 
L 115.263436 -186.878638 
L 114.771806 -186.878638 
L 114.280176 -186.878638 
L 113.788546 -186.878638 
L 113.296916 -186.878638 
L 112.805286 -186.878638 
L 112.313656 -186.878638 
L 111.822026 -186.878638 
L 111.330396 -186.878638 
L 110.838767 -186.878638 
L 110.347137 -186.878638 
L 109.855507 -186.878638 
L 109.363877 -186.878638 
L 108.872247 -186.878638 
L 108.380617 -186.878638 
L 107.888987 -186.878638 
L 107.397357 -186.878638 
L 106.905727 -186.878638 
L 106.414097 -186.878638 
L 105.922467 -186.878638 
L 105.430837 -186.878638 
L 104.939207 -186.878638 
L 104.447577 -186.878638 
L 103.955947 -186.878638 
L 103.464317 -186.878638 
L 102.972687 -186.878638 
L 102.481057 -186.878638 
L 101.989427 -186.878638 
L 101.497797 -186.878638 
L 101.006167 -186.878638 
L 100.514537 -186.878638 
L 100.022907 -186.878638 
L 99.531278 -186.878638 
L 99.039648 -186.878638 
L 98.548018 -186.878638 
L 98.056388 -186.878638 
L 97.564758 -186.878638 
L 97.073128 -186.878638 
L 96.581498 -186.878638 
L 96.089868 -186.878638 
L 95.598238 -186.878638 
L 95.106608 -186.878638 
L 94.614978 -186.878638 
L 94.123348 -186.878638 
L 93.631718 -186.878638 
L 93.140088 -186.878638 
L 92.648458 -186.878638 
L 92.156828 -186.878638 
L 91.665198 -186.878638 
L 91.173568 -186.878638 
L 90.681938 -186.878638 
L 90.190308 -186.878638 
L 89.698678 -186.878638 
L 89.207048 -186.878638 
L 88.715419 -186.878638 
L 88.223789 -186.878638 
L 87.732159 -186.878638 
L 87.240529 -186.878638 
L 86.748899 -186.878638 
L 86.257269 -186.878638 
L 85.765639 -186.878638 
L 85.274009 -186.878638 
L 84.782379 -186.878638 
L 84.290749 -186.878638 
L 83.799119 -186.878638 
L 83.307489 -186.878638 
L 82.815859 -186.878638 
L 82.324229 -186.878638 
L 81.832599 -186.878638 
L 81.340969 -186.878638 
L 80.849339 -186.878638 
L 80.357709 -186.878638 
L 79.866079 -186.878638 
L 79.374449 -186.878638 
L 78.882819 -186.878638 
L 78.391189 -186.878638 
L 77.899559 -186.878638 
L 77.40793 -186.878638 
L 76.9163 -186.878638 
L 76.42467 -186.878638 
L 75.93304 -186.878638 
L 75.44141 -186.878638 
L 74.94978 -186.878638 
L 74.45815 -186.878638 
L 73.96652 -186.878638 
L 73.47489 -186.878638 
L 72.98326 -186.878638 
L 72.49163 -186.878638 
L 72 -186.878638 
z
" id="m80f49158a1"/>
    </defs>
    <g clip-path="url(#pe25e443d45)">
     <use style="fill-opacity:0.15;" x="0" xlink:href="#m80f49158a1" y="360"/>
    </g>
   </g>
   <g id="matplotlib.axis_1">
    <g id="xtick_1">
     <g id="line2d_1">
      <defs>
       <path d="M 0 0 
L 0 3.5 
" id="m4bd3a35692" style="stroke:#000000;stroke-width:0.8;"/>
      </defs>
      <g>
       <use style="stroke:#000000;stroke-width:0.8;" x="72" xlink:href="#m4bd3a35692" y="320.4"/>
      </g>
     </g>
     <g id="text_1">
      <!-- 0.0 -->
      <g transform="translate(60.867812 338.037813)scale(0.14 -0.14)">
       <defs>
        <path d="M 2034 4250 
Q 1547 4250 1301 3770 
Q 1056 3291 1056 2328 
Q 1056 1369 1301 889 
Q 1547 409 2034 409 
Q 2525 409 2770 889 
Q 3016 1369 3016 2328 
Q 3016 3291 2770 3770 
Q 2525 4250 2034 4250 
z
M 2034 4750 
Q 2819 4750 3233 4129 
Q 3647 3509 3647 2328 
Q 3647 1150 3233 529 
Q 2819 -91 2034 -91 
Q 1250 -91 836 529 
Q 422 1150 422 2328 
Q 422 3509 836 4129 
Q 1250 4750 2034 4750 
z
" id="DejaVuSans-30" transform="scale(0.015625)"/>
        <path d="M 684 794 
L 1344 794 
L 1344 0 
L 684 0 
L 684 794 
z
" id="DejaVuSans-2e" transform="scale(0.015625)"/>
       </defs>
       <use xlink:href="#DejaVuSans-30"/>
       <use x="63.623047" xlink:href="#DejaVuSans-2e"/>
       <use x="95.410156" xlink:href="#DejaVuSans-30"/>
      </g>
     </g>
    </g>
    <g id="xtick_2">
     <g id="line2d_2">
      <g>
       <use style="stroke:#000000;stroke-width:0.8;" x="127.844676" xlink:href="#m4bd3a35692" y="320.4"/>
      </g>
     </g>
     <g id="text_2">
      <!-- 2.5 -->
      <g transform="translate(116.712488 338.037813)scale(0.14 -0.14)">
       <defs>
        <path d="M 1228 531 
L 3431 531 
L 3431 0 
L 469 0 
L 469 531 
Q 828 903 1448 1529 
Q 2069 2156 2228 2338 
Q 2531 2678 2651 2914 
Q 2772 3150 2772 3378 
Q 2772 3750 2511 3984 
Q 2250 4219 1831 4219 
Q 1534 4219 1204 4116 
Q 875 4013 500 3803 
L 500 4441 
Q 881 4594 1212 4672 
Q 1544 4750 1819 4750 
Q 2544 4750 2975 4387 
Q 3406 4025 3406 3419 
Q 3406 3131 3298 2873 
Q 3191 2616 2906 2266 
Q 2828 2175 2409 1742 
Q 1991 1309 1228 531 
z
" id="DejaVuSans-32" transform="scale(0.015625)"/>
        <path d="M 691 4666 
L 3169 4666 
L 3169 4134 
L 1269 4134 
L 1269 2991 
Q 1406 3038 1543 3061 
Q 1681 3084 1819 3084 
Q 2600 3084 3056 2656 
Q 3513 2228 3513 1497 
Q 3513 744 3044 326 
Q 2575 -91 1722 -91 
Q 1428 -91 1123 -41 
Q 819 9 494 109 
L 494 744 
Q 775 591 1075 516 
Q 1375 441 1709 441 
Q 2250 441 2565 725 
Q 2881 1009 2881 1497 
Q 2881 1984 2565 2268 
Q 2250 2553 1709 2553 
Q 1456 2553 1204 2497 
Q 953 2441 691 2322 
L 691 4666 
z
" id="DejaVuSans-35" transform="scale(0.015625)"/>
       </defs>
       <use xlink:href="#DejaVuSans-32"/>
       <use x="63.623047" xlink:href="#DejaVuSans-2e"/>
       <use x="95.410156" xlink:href="#DejaVuSans-35"/>
      </g>
     </g>
    </g>
    <g id="xtick_3">
     <g id="line2d_3">
      <g>
       <use style="stroke:#000000;stroke-width:0.8;" x="183.689351" xlink:href="#m4bd3a35692" y="320.4"/>
      </g>
     </g>
     <g id="text_3">
      <!-- 5.0 -->
      <g transform="translate(172.557164 338.037813)scale(0.14 -0.14)">
       <use xlink:href="#DejaVuSans-35"/>
       <use x="63.623047" xlink:href="#DejaVuSans-2e"/>
       <use x="95.410156" xlink:href="#DejaVuSans-30"/>
      </g>
     </g>
    </g>
    <g id="xtick_4">
     <g id="line2d_4">
      <g>
       <use style="stroke:#000000;stroke-width:0.8;" x="239.534027" xlink:href="#m4bd3a35692" y="320.4"/>
      </g>
     </g>
     <g id="text_4">
      <!-- 7.5 -->
      <g transform="translate(228.40184 338.037813)scale(0.14 -0.14)">
       <defs>
        <path d="M 525 4666 
L 3525 4666 
L 3525 4397 
L 1831 0 
L 1172 0 
L 2766 4134 
L 525 4134 
L 525 4666 
z
" id="DejaVuSans-37" transform="scale(0.015625)"/>
       </defs>
       <use xlink:href="#DejaVuSans-37"/>
       <use x="63.623047" xlink:href="#DejaVuSans-2e"/>
       <use x="95.410156" xlink:href="#DejaVuSans-35"/>
      </g>
     </g>
    </g>
    <g id="xtick_5">
     <g id="line2d_5">
      <g>
       <use style="stroke:#000000;stroke-width:0.8;" x="295.378703" xlink:href="#m4bd3a35692" y="320.4"/>
      </g>
     </g>
     <g id="text_5">
      <!-- 10.0 -->
      <g transform="translate(279.792765 338.037813)scale(0.14 -0.14)">
       <defs>
        <path d="M 794 531 
L 1825 531 
L 1825 4091 
L 703 3866 
L 703 4441 
L 1819 4666 
L 2450 4666 
L 2450 531 
L 3481 531 
L 3481 0 
L 794 0 
L 794 531 
z
" id="DejaVuSans-31" transform="scale(0.015625)"/>
       </defs>
       <use xlink:href="#DejaVuSans-31"/>
       <use x="63.623047" xlink:href="#DejaVuSans-30"/>
       <use x="127.246094" xlink:href="#DejaVuSans-2e"/>
       <use x="159.033203" xlink:href="#DejaVuSans-30"/>
      </g>
     </g>
    </g>
    <g id="xtick_6">
     <g id="line2d_6">
      <g>
       <use style="stroke:#000000;stroke-width:0.8;" x="351.223379" xlink:href="#m4bd3a35692" y="320.4"/>
      </g>
     </g>
     <g id="text_6">
      <!-- 12.5 -->
      <g transform="translate(335.637441 338.037813)scale(0.14 -0.14)">
       <use xlink:href="#DejaVuSans-31"/>
       <use x="63.623047" xlink:href="#DejaVuSans-32"/>
       <use x="127.246094" xlink:href="#DejaVuSans-2e"/>
       <use x="159.033203" xlink:href="#DejaVuSans-35"/>
      </g>
     </g>
    </g>
    <g id="xtick_7">
     <g id="line2d_7">
      <g>
       <use style="stroke:#000000;stroke-width:0.8;" x="407.068054" xlink:href="#m4bd3a35692" y="320.4"/>
      </g>
     </g>
     <g id="text_7">
      <!-- 15.0 -->
      <g transform="translate(391.482117 338.037813)scale(0.14 -0.14)">
       <use xlink:href="#DejaVuSans-31"/>
       <use x="63.623047" xlink:href="#DejaVuSans-35"/>
       <use x="127.246094" xlink:href="#DejaVuSans-2e"/>
       <use x="159.033203" xlink:href="#DejaVuSans-30"/>
      </g>
     </g>
    </g>
    <g id="xtick_8">
     <g id="line2d_8">
      <g>
       <use style="stroke:#000000;stroke-width:0.8;" x="462.91273" xlink:href="#m4bd3a35692" y="320.4"/>
      </g>
     </g>
     <g id="text_8">
      <!-- 17.5 -->
      <g transform="translate(447.326793 338.037813)scale(0.14 -0.14)">
       <use xlink:href="#DejaVuSans-31"/>
       <use x="63.623047" xlink:href="#DejaVuSans-37"/>
       <use x="127.246094" xlink:href="#DejaVuSans-2e"/>
       <use x="159.033203" xlink:href="#DejaVuSans-35"/>
      </g>
     </g>
    </g>
    <g id="text_9">
     <!-- Time [Seconds] -->
     <g transform="translate(233.23 357.106875)scale(0.16 -0.16)">
      <defs>
       <path d="M -19 4666 
L 3928 4666 
L 3928 4134 
L 2272 4134 
L 2272 0 
L 1638 0 
L 1638 4134 
L -19 4134 
L -19 4666 
z
" id="DejaVuSans-54" transform="scale(0.015625)"/>
       <path d="M 603 3500 
L 1178 3500 
L 1178 0 
L 603 0 
L 603 3500 
z
M 603 4863 
L 1178 4863 
L 1178 4134 
L 603 4134 
L 603 4863 
z
" id="DejaVuSans-69" transform="scale(0.015625)"/>
       <path d="M 3328 2828 
Q 3544 3216 3844 3400 
Q 4144 3584 4550 3584 
Q 5097 3584 5394 3201 
Q 5691 2819 5691 2113 
L 5691 0 
L 5113 0 
L 5113 2094 
Q 5113 2597 4934 2840 
Q 4756 3084 4391 3084 
Q 3944 3084 3684 2787 
Q 3425 2491 3425 1978 
L 3425 0 
L 2847 0 
L 2847 2094 
Q 2847 2600 2669 2842 
Q 2491 3084 2119 3084 
Q 1678 3084 1418 2786 
Q 1159 2488 1159 1978 
L 1159 0 
L 581 0 
L 581 3500 
L 1159 3500 
L 1159 2956 
Q 1356 3278 1631 3431 
Q 1906 3584 2284 3584 
Q 2666 3584 2933 3390 
Q 3200 3197 3328 2828 
z
" id="DejaVuSans-6d" transform="scale(0.015625)"/>
       <path d="M 3597 1894 
L 3597 1613 
L 953 1613 
Q 991 1019 1311 708 
Q 1631 397 2203 397 
Q 2534 397 2845 478 
Q 3156 559 3463 722 
L 3463 178 
Q 3153 47 2828 -22 
Q 2503 -91 2169 -91 
Q 1331 -91 842 396 
Q 353 884 353 1716 
Q 353 2575 817 3079 
Q 1281 3584 2069 3584 
Q 2775 3584 3186 3129 
Q 3597 2675 3597 1894 
z
M 3022 2063 
Q 3016 2534 2758 2815 
Q 2500 3097 2075 3097 
Q 1594 3097 1305 2825 
Q 1016 2553 972 2059 
L 3022 2063 
z
" id="DejaVuSans-65" transform="scale(0.015625)"/>
       <path id="DejaVuSans-20" transform="scale(0.015625)"/>
       <path d="M 550 4863 
L 1875 4863 
L 1875 4416 
L 1125 4416 
L 1125 -397 
L 1875 -397 
L 1875 -844 
L 550 -844 
L 550 4863 
z
" id="DejaVuSans-5b" transform="scale(0.015625)"/>
       <path d="M 3425 4513 
L 3425 3897 
Q 3066 4069 2747 4153 
Q 2428 4238 2131 4238 
Q 1616 4238 1336 4038 
Q 1056 3838 1056 3469 
Q 1056 3159 1242 3001 
Q 1428 2844 1947 2747 
L 2328 2669 
Q 3034 2534 3370 2195 
Q 3706 1856 3706 1288 
Q 3706 609 3251 259 
Q 2797 -91 1919 -91 
Q 1588 -91 1214 -16 
Q 841 59 441 206 
L 441 856 
Q 825 641 1194 531 
Q 1563 422 1919 422 
Q 2459 422 2753 634 
Q 3047 847 3047 1241 
Q 3047 1584 2836 1778 
Q 2625 1972 2144 2069 
L 1759 2144 
Q 1053 2284 737 2584 
Q 422 2884 422 3419 
Q 422 4038 858 4394 
Q 1294 4750 2059 4750 
Q 2388 4750 2728 4690 
Q 3069 4631 3425 4513 
z
" id="DejaVuSans-53" transform="scale(0.015625)"/>
       <path d="M 3122 3366 
L 3122 2828 
Q 2878 2963 2633 3030 
Q 2388 3097 2138 3097 
Q 1578 3097 1268 2742 
Q 959 2388 959 1747 
Q 959 1106 1268 751 
Q 1578 397 2138 397 
Q 2388 397 2633 464 
Q 2878 531 3122 666 
L 3122 134 
Q 2881 22 2623 -34 
Q 2366 -91 2075 -91 
Q 1284 -91 818 406 
Q 353 903 353 1747 
Q 353 2603 823 3093 
Q 1294 3584 2113 3584 
Q 2378 3584 2631 3529 
Q 2884 3475 3122 3366 
z
" id="DejaVuSans-63" transform="scale(0.015625)"/>
       <path d="M 1959 3097 
Q 1497 3097 1228 2736 
Q 959 2375 959 1747 
Q 959 1119 1226 758 
Q 1494 397 1959 397 
Q 2419 397 2687 759 
Q 2956 1122 2956 1747 
Q 2956 2369 2687 2733 
Q 2419 3097 1959 3097 
z
M 1959 3584 
Q 2709 3584 3137 3096 
Q 3566 2609 3566 1747 
Q 3566 888 3137 398 
Q 2709 -91 1959 -91 
Q 1206 -91 779 398 
Q 353 888 353 1747 
Q 353 2609 779 3096 
Q 1206 3584 1959 3584 
z
" id="DejaVuSans-6f" transform="scale(0.015625)"/>
       <path d="M 3513 2113 
L 3513 0 
L 2938 0 
L 2938 2094 
Q 2938 2591 2744 2837 
Q 2550 3084 2163 3084 
Q 1697 3084 1428 2787 
Q 1159 2491 1159 1978 
L 1159 0 
L 581 0 
L 581 3500 
L 1159 3500 
L 1159 2956 
Q 1366 3272 1645 3428 
Q 1925 3584 2291 3584 
Q 2894 3584 3203 3211 
Q 3513 2838 3513 2113 
z
" id="DejaVuSans-6e" transform="scale(0.015625)"/>
       <path d="M 2906 2969 
L 2906 4863 
L 3481 4863 
L 3481 0 
L 2906 0 
L 2906 525 
Q 2725 213 2448 61 
Q 2172 -91 1784 -91 
Q 1150 -91 751 415 
Q 353 922 353 1747 
Q 353 2572 751 3078 
Q 1150 3584 1784 3584 
Q 2172 3584 2448 3432 
Q 2725 3281 2906 2969 
z
M 947 1747 
Q 947 1113 1208 752 
Q 1469 391 1925 391 
Q 2381 391 2643 752 
Q 2906 1113 2906 1747 
Q 2906 2381 2643 2742 
Q 2381 3103 1925 3103 
Q 1469 3103 1208 2742 
Q 947 2381 947 1747 
z
" id="DejaVuSans-64" transform="scale(0.015625)"/>
       <path d="M 2834 3397 
L 2834 2853 
Q 2591 2978 2328 3040 
Q 2066 3103 1784 3103 
Q 1356 3103 1142 2972 
Q 928 2841 928 2578 
Q 928 2378 1081 2264 
Q 1234 2150 1697 2047 
L 1894 2003 
Q 2506 1872 2764 1633 
Q 3022 1394 3022 966 
Q 3022 478 2636 193 
Q 2250 -91 1575 -91 
Q 1294 -91 989 -36 
Q 684 19 347 128 
L 347 722 
Q 666 556 975 473 
Q 1284 391 1588 391 
Q 1994 391 2212 530 
Q 2431 669 2431 922 
Q 2431 1156 2273 1281 
Q 2116 1406 1581 1522 
L 1381 1569 
Q 847 1681 609 1914 
Q 372 2147 372 2553 
Q 372 3047 722 3315 
Q 1072 3584 1716 3584 
Q 2034 3584 2315 3537 
Q 2597 3491 2834 3397 
z
" id="DejaVuSans-73" transform="scale(0.015625)"/>
       <path d="M 1947 4863 
L 1947 -844 
L 622 -844 
L 622 -397 
L 1369 -397 
L 1369 4416 
L 622 4416 
L 622 4863 
L 1947 4863 
z
" id="DejaVuSans-5d" transform="scale(0.015625)"/>
      </defs>
      <use xlink:href="#DejaVuSans-54"/>
      <use x="57.958984" xlink:href="#DejaVuSans-69"/>
      <use x="85.742188" xlink:href="#DejaVuSans-6d"/>
      <use x="183.154297" xlink:href="#DejaVuSans-65"/>
      <use x="244.677734" xlink:href="#DejaVuSans-20"/>
      <use x="276.464844" xlink:href="#DejaVuSans-5b"/>
      <use x="315.478516" xlink:href="#DejaVuSans-53"/>
      <use x="378.955078" xlink:href="#DejaVuSans-65"/>
      <use x="440.478516" xlink:href="#DejaVuSans-63"/>
      <use x="495.458984" xlink:href="#DejaVuSans-6f"/>
      <use x="556.640625" xlink:href="#DejaVuSans-6e"/>
      <use x="620.019531" xlink:href="#DejaVuSans-64"/>
      <use x="683.496094" xlink:href="#DejaVuSans-73"/>
      <use x="735.595703" xlink:href="#DejaVuSans-5d"/>
     </g>
    </g>
   </g>
   <g id="matplotlib.axis_2">
    <g id="ytick_1">
     <g id="line2d_9">
      <defs>
       <path d="M 0 0 
L -3.5 0 
" id="m8b7ea822e6" style="stroke:#000000;stroke-width:0.8;"/>
      </defs>
      <g>
       <use style="stroke:#000000;stroke-width:0.8;" x="72" xlink:href="#m8b7ea822e6" y="279.843966"/>
      </g>
     </g>
     <g id="text_10">
      <!-- 0.0 -->
      <g transform="translate(42.735625 285.162872)scale(0.14 -0.14)">
       <use xlink:href="#DejaVuSans-30"/>
       <use x="63.623047" xlink:href="#DejaVuSans-2e"/>
       <use x="95.410156" xlink:href="#DejaVuSans-30"/>
      </g>
     </g>
    </g>
    <g id="ytick_2">
     <g id="line2d_10">
      <g>
       <use style="stroke:#000000;stroke-width:0.8;" x="72" xlink:href="#m8b7ea822e6" y="228.188437"/>
      </g>
     </g>
     <g id="text_11">
      <!-- 0.5 -->
      <g transform="translate(42.735625 233.507343)scale(0.14 -0.14)">
       <use xlink:href="#DejaVuSans-30"/>
       <use x="63.623047" xlink:href="#DejaVuSans-2e"/>
       <use x="95.410156" xlink:href="#DejaVuSans-35"/>
      </g>
     </g>
    </g>
    <g id="ytick_3">
     <g id="line2d_11">
      <g>
       <use style="stroke:#000000;stroke-width:0.8;" x="72" xlink:href="#m8b7ea822e6" y="176.532908"/>
      </g>
     </g>
     <g id="text_12">
      <!-- 1.0 -->
      <g transform="translate(42.735625 181.851814)scale(0.14 -0.14)">
       <use xlink:href="#DejaVuSans-31"/>
       <use x="63.623047" xlink:href="#DejaVuSans-2e"/>
       <use x="95.410156" xlink:href="#DejaVuSans-30"/>
      </g>
     </g>
    </g>
    <g id="ytick_4">
     <g id="line2d_12">
      <g>
       <use style="stroke:#000000;stroke-width:0.8;" x="72" xlink:href="#m8b7ea822e6" y="124.877379"/>
      </g>
     </g>
     <g id="text_13">
      <!-- 1.5 -->
      <g transform="translate(42.735625 130.196285)scale(0.14 -0.14)">
       <use xlink:href="#DejaVuSans-31"/>
       <use x="63.623047" xlink:href="#DejaVuSans-2e"/>
       <use x="95.410156" xlink:href="#DejaVuSans-35"/>
      </g>
     </g>
    </g>
    <g id="ytick_5">
     <g id="line2d_13">
      <g>
       <use style="stroke:#000000;stroke-width:0.8;" x="72" xlink:href="#m8b7ea822e6" y="73.22185"/>
      </g>
     </g>
     <g id="text_14">
      <!-- 2.0 -->
      <g transform="translate(42.735625 78.540756)scale(0.14 -0.14)">
       <use xlink:href="#DejaVuSans-32"/>
       <use x="63.623047" xlink:href="#DejaVuSans-2e"/>
       <use x="95.410156" xlink:href="#DejaVuSans-30"/>
      </g>
     </g>
    </g>
    <g id="text_15">
     <!-- Speed [mm/s] -->
     <g transform="translate(35.408125 238.11375)rotate(-90)scale(0.16 -0.16)">
      <defs>
       <path d="M 1159 525 
L 1159 -1331 
L 581 -1331 
L 581 3500 
L 1159 3500 
L 1159 2969 
Q 1341 3281 1617 3432 
Q 1894 3584 2278 3584 
Q 2916 3584 3314 3078 
Q 3713 2572 3713 1747 
Q 3713 922 3314 415 
Q 2916 -91 2278 -91 
Q 1894 -91 1617 61 
Q 1341 213 1159 525 
z
M 3116 1747 
Q 3116 2381 2855 2742 
Q 2594 3103 2138 3103 
Q 1681 3103 1420 2742 
Q 1159 2381 1159 1747 
Q 1159 1113 1420 752 
Q 1681 391 2138 391 
Q 2594 391 2855 752 
Q 3116 1113 3116 1747 
z
" id="DejaVuSans-70" transform="scale(0.015625)"/>
       <path d="M 1625 4666 
L 2156 4666 
L 531 -594 
L 0 -594 
L 1625 4666 
z
" id="DejaVuSans-2f" transform="scale(0.015625)"/>
      </defs>
      <use xlink:href="#DejaVuSans-53"/>
      <use x="63.476562" xlink:href="#DejaVuSans-70"/>
      <use x="126.953125" xlink:href="#DejaVuSans-65"/>
      <use x="188.476562" xlink:href="#DejaVuSans-65"/>
      <use x="250" xlink:href="#DejaVuSans-64"/>
      <use x="313.476562" xlink:href="#DejaVuSans-20"/>
      <use x="345.263672" xlink:href="#DejaVuSans-5b"/>
      <use x="384.277344" xlink:href="#DejaVuSans-6d"/>
      <use x="481.689453" xlink:href="#DejaVuSans-6d"/>
      <use x="579.101562" xlink:href="#DejaVuSans-2f"/>
      <use x="612.792969" xlink:href="#DejaVuSans-73"/>
      <use x="664.892578" xlink:href="#DejaVuSans-5d"/>
     </g>
    </g>
   </g>
   <g id="line2d_14">
    <path clip-path="url(#pe25e443d45)" d="M 72 171.240477 
L 518.4 171.240477 
" style="fill:none;stroke:#000000;stroke-dasharray:5.55,2.4;stroke-dashoffset:0;stroke-width:1.5;"/>
   </g>
   <g id="line2d_15">
    <path clip-path="url(#pe25e443d45)" d="M 72 278.464032 
L 110.347137 278.407676 
L 110.838767 278.692966 
L 111.330396 277.645239 
L 111.822026 275.801488 
L 112.313656 276.263195 
L 112.805286 277.929822 
L 113.296916 279.171138 
L 113.788546 279.440402 
L 114.771806 279.093904 
L 115.263436 279.957308 
L 115.755066 281.453872 
L 116.246696 276.688242 
L 116.738326 256.443009 
L 117.229956 261.252956 
L 117.721586 286.749368 
L 118.213216 297.55218 
L 118.704846 304.954805 
L 119.196476 307.8 
L 119.688106 305.578577 
L 120.179736 299.816748 
L 120.671366 289.050293 
L 122.146256 242.549539 
L 122.637885 225.881963 
L 125.096035 127.350141 
L 126.079295 94.35693 
L 127.062555 71.202586 
L 127.554185 62.223524 
L 128.045815 57.454905 
L 128.537445 55.8 
L 129.029075 55.828562 
L 129.520705 58.49601 
L 130.503965 70.788997 
L 131.487225 90.173126 
L 132.470485 115.864326 
L 134.928634 175.813073 
L 135.420264 181.511736 
L 135.911894 184.653082 
L 136.403524 183.800206 
L 136.895154 178.468614 
L 137.386784 167.892357 
L 138.370044 134.348951 
L 139.353304 166.277054 
L 139.844934 162.155459 
L 140.336564 164.556033 
L 140.828194 165.695601 
L 141.319824 164.936534 
L 141.811454 164.690166 
L 142.303084 164.007706 
L 142.794714 163.789308 
L 143.286344 165.083414 
L 143.777974 165.842666 
L 144.269604 167.958262 
L 144.761233 167.067906 
L 145.252863 167.691443 
L 145.744493 168.722439 
L 146.236123 167.340137 
L 146.727753 167.992158 
L 147.219383 167.76505 
L 147.711013 167.024592 
L 148.202643 168.371116 
L 148.694273 168.454031 
L 149.185903 168.698391 
L 149.677533 170.776698 
L 150.169163 171.622 
L 150.660793 171.290843 
L 151.644053 171.884842 
L 152.135683 171.208098 
L 152.627313 171.228908 
L 153.118943 170.28085 
L 154.102203 172.011212 
L 154.593833 170.679677 
L 155.085463 169.864404 
L 155.577093 170.651588 
L 156.068722 170.875225 
L 157.051982 169.884592 
L 157.543612 169.747621 
L 158.035242 169.300536 
L 158.526872 169.220937 
L 159.018502 170.272522 
L 159.510132 170.448884 
L 160.001762 170.120947 
L 160.493392 169.973418 
L 160.985022 170.357764 
L 161.968282 171.750036 
L 162.459912 171.503428 
L 162.951542 170.763323 
L 163.934802 172.083076 
L 164.426432 171.647721 
L 164.918062 171.461425 
L 165.409692 171.632391 
L 165.901322 171.92751 
L 166.392952 171.869374 
L 166.884581 171.551082 
L 167.867841 171.441874 
L 168.851101 170.893467 
L 169.342731 171.162932 
L 169.834361 171.209782 
L 170.325991 170.828321 
L 170.817621 170.634843 
L 171.309251 170.899665 
L 171.800881 170.432822 
L 172.292511 170.415889 
L 172.784141 171.010773 
L 173.275771 171.139974 
L 173.767401 171.070892 
L 174.259031 170.677288 
L 175.242291 172.275321 
L 175.733921 171.902486 
L 176.717181 172.48454 
L 177.208811 172.382896 
L 177.700441 172.428528 
L 178.19207 171.673716 
L 178.6837 171.250974 
L 179.17533 171.670014 
L 179.66696 172.302877 
L 180.65022 171.757555 
L 181.14185 171.850182 
L 181.63348 172.097967 
L 182.12511 171.717659 
L 182.61674 171.827811 
L 183.10837 172.445608 
L 183.6 171.577796 
L 184.09163 171.085127 
L 186.05815 171.500619 
L 186.54978 171.744639 
L 187.04141 170.966436 
L 187.53304 170.702643 
L 188.02467 171.009049 
L 188.5163 170.920102 
L 189.00793 170.420013 
L 189.499559 170.668052 
L 189.991189 171.202314 
L 190.482819 171.113385 
L 190.974449 171.388207 
L 191.466079 170.953559 
L 192.449339 170.457618 
L 192.940969 170.618869 
L 193.432599 171.04099 
L 193.924229 171.782829 
L 194.415859 171.943848 
L 195.399119 171.343154 
L 195.890749 171.314683 
L 196.382379 172.64115 
L 196.874009 172.789381 
L 197.365639 172.478115 
L 197.857269 172.540057 
L 198.348899 172.188613 
L 199.332159 171.86307 
L 199.823789 171.216916 
L 200.807048 172.568582 
L 201.298678 172.12656 
L 201.790308 171.0336 
L 202.281938 171.039189 
L 202.773568 171.847131 
L 203.265198 171.28544 
L 203.756828 171.045173 
L 204.248458 171.306791 
L 204.740088 171.332486 
L 205.723348 170.692375 
L 206.214978 170.552214 
L 206.706608 171.23994 
L 207.198238 171.544746 
L 207.689868 171.313526 
L 208.181498 171.883917 
L 208.673128 171.740244 
L 209.164758 170.962221 
L 209.656388 170.966884 
L 210.639648 171.330241 
L 211.131278 171.829713 
L 211.622907 171.768541 
L 212.114537 171.220628 
L 212.606167 170.985077 
L 214.572687 171.060641 
L 215.064317 171.949341 
L 215.555947 172.054696 
L 216.539207 170.883466 
L 217.030837 170.859656 
L 217.522467 170.963632 
L 218.014097 171.288639 
L 218.505727 171.808256 
L 218.997357 171.549592 
L 219.488987 170.955754 
L 219.980617 171.024467 
L 220.472247 171.658012 
L 220.963877 171.26792 
L 221.455507 171.080383 
L 221.947137 172.183888 
L 222.438767 172.402436 
L 223.422026 171.091988 
L 223.913656 171.720655 
L 224.405286 171.946343 
L 224.896916 171.101283 
L 225.880176 171.544704 
L 226.371806 171.202488 
L 227.355066 170.780414 
L 227.846696 171.477287 
L 228.338326 172.419754 
L 229.321586 171.104107 
L 229.813216 171.917464 
L 230.304846 171.925679 
L 230.796476 170.626181 
L 231.779736 171.786928 
L 232.271366 171.924016 
L 232.762996 171.880518 
L 233.254626 171.142207 
L 233.746256 170.856243 
L 234.237885 171.020903 
L 234.729515 171.86878 
L 235.221145 172.361781 
L 235.712775 172.20661 
L 236.204405 172.228793 
L 236.696035 172.528555 
L 237.187665 171.58383 
L 237.679295 171.02666 
L 238.170925 171.35846 
L 238.662555 172.008846 
L 239.154185 172.041737 
L 239.645815 171.677039 
L 240.137445 171.563725 
L 240.629075 171.232595 
L 241.120705 171.204148 
L 241.612335 171.382004 
L 242.103965 171.195816 
L 242.595595 170.764866 
L 243.578855 171.636694 
L 244.070485 171.539831 
L 244.562115 170.936644 
L 245.053744 171.323035 
L 245.545374 171.866015 
L 246.037004 171.473575 
L 246.528634 171.277759 
L 247.020264 171.333206 
L 247.511894 171.502439 
L 248.003524 171.452331 
L 248.495154 171.711044 
L 248.986784 171.785525 
L 249.478414 172.207886 
L 249.970044 171.832976 
L 250.461674 171.137279 
L 250.953304 171.355631 
L 251.444934 172.152943 
L 251.936564 172.312835 
L 252.428194 171.219565 
L 252.919824 171.176523 
L 253.411454 171.460106 
L 253.903084 171.601837 
L 254.394714 170.60959 
L 254.886344 170.083091 
L 255.377974 170.944484 
L 255.869604 171.449226 
L 256.361233 171.762114 
L 257.344493 171.000023 
L 257.836123 171.527456 
L 258.819383 169.981764 
L 259.311013 171.313028 
L 259.802643 171.975897 
L 260.294273 172.07221 
L 260.785903 171.701223 
L 261.277533 171.12494 
L 261.769163 171.339246 
L 262.260793 171.777733 
L 262.752423 172.022467 
L 263.735683 171.816115 
L 264.227313 172.07881 
L 264.718943 172.182264 
L 265.210573 171.127994 
L 265.702203 171.092674 
L 266.193833 171.360416 
L 266.685463 171.414632 
L 267.177093 170.68024 
L 267.668722 170.302371 
L 268.160352 171.257477 
L 269.143612 171.9355 
L 269.635242 171.17462 
L 270.126872 170.634137 
L 270.618502 170.963878 
L 271.110132 171.51425 
L 271.601762 171.635899 
L 272.093392 171.581402 
L 273.076652 172.130924 
L 274.059912 171.136319 
L 274.551542 171.37439 
L 275.043172 171.841231 
L 275.534802 171.323329 
L 276.026432 170.213567 
L 276.518062 171.626705 
L 277.009692 172.417034 
L 277.501322 172.163255 
L 278.484581 170.86423 
L 278.976211 171.748564 
L 279.467841 172.182807 
L 279.959471 170.805284 
L 280.451101 170.641284 
L 280.942731 172.11632 
L 281.434361 171.975301 
L 281.925991 171.187655 
L 282.417621 170.719492 
L 282.909251 171.011466 
L 283.400881 171.671651 
L 283.892511 171.959572 
L 284.384141 171.749303 
L 285.367401 171.672308 
L 285.859031 171.052106 
L 286.842291 170.512373 
L 287.825551 171.685709 
L 288.317181 171.628135 
L 288.808811 170.6978 
L 289.300441 170.581313 
L 289.79207 171.700076 
L 290.2837 171.631754 
L 291.26696 169.651725 
L 291.75859 170.940752 
L 292.25022 171.83481 
L 292.74185 171.517484 
L 293.23348 171.780207 
L 294.21674 171.181068 
L 294.70837 171.409839 
L 296.18326 171.074594 
L 297.65815 171.436079 
L 298.14978 172.124378 
L 298.64141 171.66545 
L 299.13304 171.710234 
L 299.62467 171.115653 
L 300.1163 171.512196 
L 300.60793 172.558504 
L 301.099559 172.226672 
L 301.591189 171.249723 
L 302.082819 171.086087 
L 302.574449 172.423475 
L 303.066079 172.279006 
L 303.557709 171.95633 
L 304.540969 172.426039 
L 305.032599 172.869788 
L 305.524229 172.692326 
L 306.015859 171.839277 
L 306.507489 171.499577 
L 307.490749 170.269594 
L 307.982379 170.581665 
L 308.474009 171.202788 
L 308.965639 171.445421 
L 310.440529 170.113853 
L 310.932159 170.620311 
L 311.423789 171.342665 
L 312.898678 170.585968 
L 313.390308 171.382492 
L 313.881938 171.434092 
L 314.373568 170.912351 
L 314.865198 171.433604 
L 316.340088 170.984955 
L 316.831718 170.859857 
L 317.323348 171.086285 
L 318.306608 172.176884 
L 319.781498 172.323066 
L 320.273128 171.769381 
L 320.764758 171.845463 
L 321.256388 171.63049 
L 321.748018 171.729919 
L 322.239648 171.538875 
L 322.731278 171.184693 
L 323.222907 170.365957 
L 323.714537 170.558303 
L 324.206167 171.761689 
L 325.189427 171.304896 
L 325.681057 171.074867 
L 326.664317 172.461386 
L 327.155947 172.291278 
L 327.647577 171.875671 
L 328.139207 171.649573 
L 329.614097 171.719473 
L 330.105727 172.212666 
L 330.597357 171.844181 
L 331.088987 170.82008 
L 331.580617 170.645756 
L 332.072247 170.740464 
L 333.547137 171.719607 
L 334.038767 171.383514 
L 334.530396 170.377706 
L 335.513656 171.456843 
L 336.496916 171.496631 
L 337.480176 170.465481 
L 337.971806 170.233438 
L 338.463436 170.5306 
L 338.955066 170.999351 
L 339.446696 170.585781 
L 339.938326 170.697339 
L 340.429956 171.339793 
L 340.921586 172.356417 
L 341.413216 172.623008 
L 341.904846 171.734119 
L 342.888106 172.206239 
L 343.379736 172.106564 
L 344.362996 172.630755 
L 344.854626 172.189275 
L 345.346256 172.220852 
L 345.837885 171.944528 
L 346.329515 171.037663 
L 346.821145 170.847131 
L 347.312775 170.889487 
L 347.804405 171.212247 
L 348.787665 171.177965 
L 350.262555 171.122321 
L 351.245815 171.90461 
L 351.737445 172.166488 
L 352.720705 171.654891 
L 353.703965 171.90343 
L 354.195595 171.80835 
L 354.687225 171.321432 
L 355.670485 170.786395 
L 356.162115 170.669721 
L 357.145374 172.134862 
L 357.637004 171.89305 
L 358.128634 171.360485 
L 358.620264 171.233278 
L 359.111894 171.376863 
L 359.603524 171.31215 
L 360.095154 171.536236 
L 360.586784 171.327284 
L 361.078414 170.432062 
L 362.061674 170.81888 
L 362.553304 171.124309 
L 363.044934 170.957664 
L 363.536564 169.908051 
L 364.028194 170.362565 
L 364.519824 171.303776 
L 365.011454 171.147805 
L 365.503084 171.343905 
L 365.994714 172.110331 
L 366.486344 172.126265 
L 367.469604 172.547626 
L 367.961233 172.209366 
L 368.452863 172.082643 
L 368.944493 172.071358 
L 369.436123 171.926684 
L 370.911013 171.120205 
L 371.402643 170.862247 
L 371.894273 170.789792 
L 372.385903 171.249681 
L 372.877533 171.545395 
L 373.369163 171.473774 
L 374.352423 172.482922 
L 374.844053 172.558313 
L 375.335683 172.068964 
L 376.810573 171.455281 
L 377.302203 171.397553 
L 378.285463 170.865283 
L 378.777093 170.960451 
L 379.268722 170.582546 
L 380.251982 170.663782 
L 380.743612 170.508749 
L 381.726872 171.804691 
L 382.218502 171.647438 
L 382.710132 171.243313 
L 384.185022 172.016688 
L 384.676652 171.538426 
L 385.168282 170.843992 
L 385.659912 170.859192 
L 386.151542 171.05546 
L 386.643172 169.937752 
L 387.134802 169.921872 
L 387.626432 171.278036 
L 389.101322 172.037299 
L 389.592952 171.926559 
L 390.084581 172.155924 
L 390.576211 172.118424 
L 391.559471 171.549174 
L 392.051101 171.934474 
L 392.542731 171.823355 
L 393.034361 171.267351 
L 393.525991 170.369922 
L 394.017621 170.586703 
L 394.509251 171.049973 
L 395.000881 170.557105 
L 395.492511 171.053666 
L 395.984141 170.673694 
L 396.475771 170.452229 
L 397.459031 171.592035 
L 397.950661 171.710754 
L 398.442291 171.626092 
L 399.425551 171.779793 
L 399.917181 171.420553 
L 400.408811 171.921543 
L 400.900441 172.01752 
L 401.39207 171.156858 
L 402.37533 170.317062 
L 402.86696 171.027317 
L 403.35859 171.444668 
L 403.85022 171.360041 
L 404.34185 171.725227 
L 404.83348 171.784312 
L 406.30837 171.523942 
L 406.8 171.341674 
L 407.29163 171.831275 
L 407.78326 172.030562 
L 408.27489 171.126975 
L 408.76652 171.214144 
L 409.25815 171.622107 
L 409.74978 171.173181 
L 410.24141 171.214618 
L 411.22467 170.832798 
L 411.7163 171.317139 
L 413.191189 172.065184 
L 413.682819 172.669001 
L 414.174449 172.605491 
L 415.157709 171.739962 
L 415.649339 172.302224 
L 416.140969 172.501145 
L 416.632599 171.221729 
L 417.124229 170.935167 
L 417.615859 170.320534 
L 418.599119 171.157477 
L 419.090749 170.689959 
L 420.074009 170.23008 
L 421.548899 171.149336 
L 422.040529 171.902532 
L 422.532159 171.856179 
L 423.023789 171.045071 
L 423.515419 171.174343 
L 424.007048 170.934061 
L 424.990308 171.49898 
L 425.481938 170.905658 
L 425.973568 170.707143 
L 426.465198 171.052318 
L 426.956828 171.090006 
L 427.448458 171.24893 
L 428.431718 172.421868 
L 428.923348 173.226192 
L 429.414978 172.629999 
L 429.906608 172.226377 
L 430.398238 172.31727 
L 431.381498 171.439736 
L 431.873128 171.28191 
L 432.364758 170.801395 
L 432.856388 170.870872 
L 433.348018 171.4528 
L 433.839648 171.286035 
L 434.822907 171.561927 
L 435.314537 171.332135 
L 435.806167 171.423346 
L 436.297797 171.854952 
L 436.789427 171.973017 
L 437.281057 172.773112 
L 437.772687 172.675973 
L 438.264317 171.489963 
L 438.755947 171.63775 
L 439.247577 171.948903 
L 439.739207 171.859596 
L 440.230837 171.238078 
L 440.722467 170.928706 
L 441.214097 170.45159 
L 441.705727 170.50817 
L 442.197357 171.093134 
L 443.180617 171.22436 
L 443.672247 172.155331 
L 444.163877 171.865684 
L 444.655507 171.118636 
L 445.147137 171.646182 
L 445.638767 171.419903 
L 446.130396 171.628353 
L 446.622026 171.26218 
L 447.113656 170.668505 
L 448.096916 171.996555 
L 448.588546 171.417091 
L 449.080176 171.173371 
L 449.571806 171.319869 
L 450.063436 171.298089 
L 450.555066 171.661889 
L 451.046696 171.366554 
L 451.538326 171.357665 
L 452.029956 171.502628 
L 452.521586 171.235964 
L 453.013216 171.186005 
L 454.488106 171.601438 
L 454.979736 171.274862 
L 455.471366 170.395741 
L 456.454626 170.659444 
L 456.946256 170.198879 
L 457.437885 170.80197 
L 457.929515 170.961273 
L 458.421145 170.729294 
L 458.912775 171.807959 
L 459.404405 171.935947 
L 459.896035 171.024561 
L 460.387665 171.647971 
L 460.879295 171.896689 
L 461.370925 171.945997 
L 462.354185 171.6243 
L 463.337445 172.204861 
L 463.829075 171.497285 
L 464.320705 171.198617 
L 464.812335 171.617351 
L 465.303965 171.728689 
L 466.287225 170.408959 
L 467.762115 172.06671 
L 468.253744 171.396758 
L 468.745374 171.363281 
L 469.237004 172.282197 
L 469.728634 172.214847 
L 470.711894 170.501178 
L 471.203524 171.026977 
L 471.695154 171.092006 
L 472.186784 171.443634 
L 472.678414 171.560488 
L 473.170044 171.211187 
L 473.661674 171.187065 
L 474.153304 170.848116 
L 474.644934 171.071206 
L 475.136564 171.957549 
L 475.628194 172.213349 
L 476.119824 171.524254 
L 476.611454 171.347978 
L 477.103084 170.971516 
L 478.086344 172.255727 
L 478.577974 171.468374 
L 479.069604 171.585114 
L 479.561233 170.816541 
L 480.052863 170.470719 
L 480.544493 171.55587 
L 481.036123 171.187681 
L 481.527753 170.443408 
L 482.019383 171.633933 
L 482.511013 171.920469 
L 483.002643 171.346158 
L 483.494273 171.056032 
L 484.477533 172.021217 
L 484.969163 171.911142 
L 485.460793 171.442587 
L 486.444053 172.022105 
L 486.935683 171.005085 
L 487.427313 170.549882 
L 487.918943 170.804345 
L 488.410573 171.374855 
L 488.902203 171.41138 
L 489.885463 170.304164 
L 490.377093 171.188461 
L 490.868722 171.760069 
L 491.851982 170.331715 
L 492.343612 170.834158 
L 492.835242 171.681573 
L 493.818502 171.893798 
L 494.310132 172.319425 
L 495.293392 171.244833 
L 495.785022 171.325198 
L 496.276652 171.599871 
L 496.768282 172.086077 
L 497.259912 171.649425 
L 497.751542 170.900954 
L 498.243172 171.217532 
L 498.734802 171.883575 
L 499.226432 172.298002 
L 499.718062 172.005872 
L 500.209692 171.30143 
L 500.701322 171.170417 
L 501.192952 171.250544 
L 501.684581 171.627502 
L 502.176211 171.754811 
L 502.667841 171.179228 
L 503.159471 171.352243 
L 503.651101 171.924624 
L 504.142731 171.49885 
L 504.634361 171.238915 
L 505.125991 171.619111 
L 506.600881 172.188272 
L 507.092511 171.873299 
L 510.533921 171.360278 
L 514.46696 170.263109 
L 515.45022 170.217786 
L 516.43348 170.411918 
L 517.41674 170.939806 
L 518.4 171.907389 
L 518.4 171.907389 
" style="fill:none;stroke:#ff0000;stroke-linecap:square;stroke-width:2;"/>
   </g>
   <g id="patch_3">
    <path d="M 72 320.4 
L 72 43.2 
" style="fill:none;stroke:#000000;stroke-linecap:square;stroke-linejoin:miter;stroke-width:0.8;"/>
   </g>
   <g id="patch_4">
    <path d="M 518.4 320.4 
L 518.4 43.2 
" style="fill:none;stroke:#000000;stroke-linecap:square;stroke-linejoin:miter;stroke-width:0.8;"/>
   </g>
   <g id="patch_5">
    <path d="M 72 320.4 
L 518.4 320.4 
" style="fill:none;stroke:#000000;stroke-linecap:square;stroke-linejoin:miter;stroke-width:0.8;"/>
   </g>
   <g id="patch_6">
    <path d="M 72 43.2 
L 518.4 43.2 
" style="fill:none;stroke:#000000;stroke-linecap:square;stroke-linejoin:miter;stroke-width:0.8;"/>
   </g>
   <g id="text_16">
    <!-- Front Propogation Speed -->
    <g transform="translate(172.245312 37.2)scale(0.2 -0.2)">
     <defs>
      <path d="M 628 4666 
L 3309 4666 
L 3309 4134 
L 1259 4134 
L 1259 2759 
L 3109 2759 
L 3109 2228 
L 1259 2228 
L 1259 0 
L 628 0 
L 628 4666 
z
" id="DejaVuSans-46" transform="scale(0.015625)"/>
      <path d="M 2631 2963 
Q 2534 3019 2420 3045 
Q 2306 3072 2169 3072 
Q 1681 3072 1420 2755 
Q 1159 2438 1159 1844 
L 1159 0 
L 581 0 
L 581 3500 
L 1159 3500 
L 1159 2956 
Q 1341 3275 1631 3429 
Q 1922 3584 2338 3584 
Q 2397 3584 2469 3576 
Q 2541 3569 2628 3553 
L 2631 2963 
z
" id="DejaVuSans-72" transform="scale(0.015625)"/>
      <path d="M 1172 4494 
L 1172 3500 
L 2356 3500 
L 2356 3053 
L 1172 3053 
L 1172 1153 
Q 1172 725 1289 603 
Q 1406 481 1766 481 
L 2356 481 
L 2356 0 
L 1766 0 
Q 1100 0 847 248 
Q 594 497 594 1153 
L 594 3053 
L 172 3053 
L 172 3500 
L 594 3500 
L 594 4494 
L 1172 4494 
z
" id="DejaVuSans-74" transform="scale(0.015625)"/>
      <path d="M 1259 4147 
L 1259 2394 
L 2053 2394 
Q 2494 2394 2734 2622 
Q 2975 2850 2975 3272 
Q 2975 3691 2734 3919 
Q 2494 4147 2053 4147 
L 1259 4147 
z
M 628 4666 
L 2053 4666 
Q 2838 4666 3239 4311 
Q 3641 3956 3641 3272 
Q 3641 2581 3239 2228 
Q 2838 1875 2053 1875 
L 1259 1875 
L 1259 0 
L 628 0 
L 628 4666 
z
" id="DejaVuSans-50" transform="scale(0.015625)"/>
      <path d="M 2906 1791 
Q 2906 2416 2648 2759 
Q 2391 3103 1925 3103 
Q 1463 3103 1205 2759 
Q 947 2416 947 1791 
Q 947 1169 1205 825 
Q 1463 481 1925 481 
Q 2391 481 2648 825 
Q 2906 1169 2906 1791 
z
M 3481 434 
Q 3481 -459 3084 -895 
Q 2688 -1331 1869 -1331 
Q 1566 -1331 1297 -1286 
Q 1028 -1241 775 -1147 
L 775 -588 
Q 1028 -725 1275 -790 
Q 1522 -856 1778 -856 
Q 2344 -856 2625 -561 
Q 2906 -266 2906 331 
L 2906 616 
Q 2728 306 2450 153 
Q 2172 0 1784 0 
Q 1141 0 747 490 
Q 353 981 353 1791 
Q 353 2603 747 3093 
Q 1141 3584 1784 3584 
Q 2172 3584 2450 3431 
Q 2728 3278 2906 2969 
L 2906 3500 
L 3481 3500 
L 3481 434 
z
" id="DejaVuSans-67" transform="scale(0.015625)"/>
      <path d="M 2194 1759 
Q 1497 1759 1228 1600 
Q 959 1441 959 1056 
Q 959 750 1161 570 
Q 1363 391 1709 391 
Q 2188 391 2477 730 
Q 2766 1069 2766 1631 
L 2766 1759 
L 2194 1759 
z
M 3341 1997 
L 3341 0 
L 2766 0 
L 2766 531 
Q 2569 213 2275 61 
Q 1981 -91 1556 -91 
Q 1019 -91 701 211 
Q 384 513 384 1019 
Q 384 1609 779 1909 
Q 1175 2209 1959 2209 
L 2766 2209 
L 2766 2266 
Q 2766 2663 2505 2880 
Q 2244 3097 1772 3097 
Q 1472 3097 1187 3025 
Q 903 2953 641 2809 
L 641 3341 
Q 956 3463 1253 3523 
Q 1550 3584 1831 3584 
Q 2591 3584 2966 3190 
Q 3341 2797 3341 1997 
z
" id="DejaVuSans-61" transform="scale(0.015625)"/>
     </defs>
     <use xlink:href="#DejaVuSans-46"/>
     <use x="50.269531" xlink:href="#DejaVuSans-72"/>
     <use x="89.132812" xlink:href="#DejaVuSans-6f"/>
     <use x="150.314453" xlink:href="#DejaVuSans-6e"/>
     <use x="213.693359" xlink:href="#DejaVuSans-74"/>
     <use x="252.902344" xlink:href="#DejaVuSans-20"/>
     <use x="284.689453" xlink:href="#DejaVuSans-50"/>
     <use x="343.242188" xlink:href="#DejaVuSans-72"/>
     <use x="382.105469" xlink:href="#DejaVuSans-6f"/>
     <use x="443.287109" xlink:href="#DejaVuSans-70"/>
     <use x="506.763672" xlink:href="#DejaVuSans-6f"/>
     <use x="567.945312" xlink:href="#DejaVuSans-67"/>
     <use x="631.421875" xlink:href="#DejaVuSans-61"/>
     <use x="692.701172" xlink:href="#DejaVuSans-74"/>
     <use x="731.910156" xlink:href="#DejaVuSans-69"/>
     <use x="759.693359" xlink:href="#DejaVuSans-6f"/>
     <use x="820.875" xlink:href="#DejaVuSans-6e"/>
     <use x="884.253906" xlink:href="#DejaVuSans-20"/>
     <use x="916.041016" xlink:href="#DejaVuSans-53"/>
     <use x="979.517578" xlink:href="#DejaVuSans-70"/>
     <use x="1042.994141" xlink:href="#DejaVuSans-65"/>
     <use x="1104.517578" xlink:href="#DejaVuSans-65"/>
     <use x="1166.041016" xlink:href="#DejaVuSans-64"/>
    </g>
   </g>
   <g id="legend_1">
    <g id="patch_7">
     <path d="M 325.967812 111.175687 
L 508.6 111.175687 
Q 511.4 111.175687 511.4 108.375687 
L 511.4 53 
Q 511.4 50.2 508.6 50.2 
L 325.967812 50.2 
Q 323.167812 50.2 323.167812 53 
L 323.167812 108.375687 
Q 323.167812 111.175687 325.967812 111.175687 
z
" style="fill:#ffffff;opacity:0.8;stroke:#cccccc;stroke-linejoin:miter;"/>
    </g>
    <g id="line2d_16">
     <path d="M 328.767812 61.537812 
L 356.767812 61.537812 
" style="fill:none;stroke:#ff0000;stroke-linecap:square;stroke-width:2;"/>
    </g>
    <g id="line2d_17"/>
    <g id="text_17">
     <!-- Front speed -->
     <g transform="translate(367.967812 66.437812)scale(0.14 -0.14)">
      <use xlink:href="#DejaVuSans-46"/>
      <use x="50.269531" xlink:href="#DejaVuSans-72"/>
      <use x="89.132812" xlink:href="#DejaVuSans-6f"/>
      <use x="150.314453" xlink:href="#DejaVuSans-6e"/>
      <use x="213.693359" xlink:href="#DejaVuSans-74"/>
      <use x="252.902344" xlink:href="#DejaVuSans-20"/>
      <use x="284.689453" xlink:href="#DejaVuSans-73"/>
      <use x="336.789062" xlink:href="#DejaVuSans-70"/>
      <use x="400.265625" xlink:href="#DejaVuSans-65"/>
      <use x="461.789062" xlink:href="#DejaVuSans-65"/>
      <use x="523.3125" xlink:href="#DejaVuSans-64"/>
     </g>
    </g>
    <g id="line2d_18">
     <path d="M 328.767812 91.381437 
L 356.767812 91.381437 
" style="fill:none;stroke:#000000;stroke-dasharray:5.55,2.4;stroke-dashoffset:0;stroke-width:1.5;"/>
    </g>
    <g id="line2d_19"/>
    <g id="text_18">
     <!-- Steady state -->
     <g transform="translate(367.967812 86.987187)scale(0.14 -0.14)">
      <defs>
       <path d="M 2059 -325 
Q 1816 -950 1584 -1140 
Q 1353 -1331 966 -1331 
L 506 -1331 
L 506 -850 
L 844 -850 
Q 1081 -850 1212 -737 
Q 1344 -625 1503 -206 
L 1606 56 
L 191 3500 
L 800 3500 
L 1894 763 
L 2988 3500 
L 3597 3500 
L 2059 -325 
z
" id="DejaVuSans-79" transform="scale(0.015625)"/>
      </defs>
      <use xlink:href="#DejaVuSans-53"/>
      <use x="63.476562" xlink:href="#DejaVuSans-74"/>
      <use x="102.685547" xlink:href="#DejaVuSans-65"/>
      <use x="164.208984" xlink:href="#DejaVuSans-61"/>
      <use x="225.488281" xlink:href="#DejaVuSans-64"/>
      <use x="288.964844" xlink:href="#DejaVuSans-79"/>
      <use x="348.144531" xlink:href="#DejaVuSans-20"/>
      <use x="379.931641" xlink:href="#DejaVuSans-73"/>
      <use x="432.03125" xlink:href="#DejaVuSans-74"/>
      <use x="471.240234" xlink:href="#DejaVuSans-61"/>
      <use x="532.519531" xlink:href="#DejaVuSans-74"/>
      <use x="571.728516" xlink:href="#DejaVuSans-65"/>
     </g>
     <!-- speed = 1.05 mm/s -->
     <g transform="translate(367.967812 102.664125)scale(0.14 -0.14)">
      <defs>
       <path d="M 678 2906 
L 4684 2906 
L 4684 2381 
L 678 2381 
L 678 2906 
z
M 678 1631 
L 4684 1631 
L 4684 1100 
L 678 1100 
L 678 1631 
z
" id="DejaVuSans-3d" transform="scale(0.015625)"/>
      </defs>
      <use xlink:href="#DejaVuSans-73"/>
      <use x="52.099609" xlink:href="#DejaVuSans-70"/>
      <use x="115.576172" xlink:href="#DejaVuSans-65"/>
      <use x="177.099609" xlink:href="#DejaVuSans-65"/>
      <use x="238.623047" xlink:href="#DejaVuSans-64"/>
      <use x="302.099609" xlink:href="#DejaVuSans-20"/>
      <use x="333.886719" xlink:href="#DejaVuSans-3d"/>
      <use x="417.675781" xlink:href="#DejaVuSans-20"/>
      <use x="449.462891" xlink:href="#DejaVuSans-31"/>
      <use x="513.085938" xlink:href="#DejaVuSans-2e"/>
      <use x="544.873047" xlink:href="#DejaVuSans-30"/>
      <use x="608.496094" xlink:href="#DejaVuSans-35"/>
      <use x="672.119141" xlink:href="#DejaVuSans-20"/>
      <use x="703.90625" xlink:href="#DejaVuSans-6d"/>
      <use x="801.318359" xlink:href="#DejaVuSans-6d"/>
      <use x="898.730469" xlink:href="#DejaVuSans-2f"/>
      <use x="932.421875" xlink:href="#DejaVuSans-73"/>
     </g>
    </g>
   </g>
  </g>
 </g>
 <defs>
  <clipPath id="pe25e443d45">
   <rect height="277.2" width="446.4" x="72" y="43.2"/>
  </clipPath>
 </defs>
</svg>
