<?xml version="1.0" encoding="utf-8" standalone="no"?>
<!DOCTYPE svg PUBLIC "-//W3C//DTD SVG 1.1//EN"
  "http://www.w3.org/Graphics/SVG/1.1/DTD/svg11.dtd">
<svg height="360pt" version="1.1" viewBox="0 0 576 360" width="576pt" xmlns="http://www.w3.org/2000/svg" xmlns:xlink="http://www.w3.org/1999/xlink">
 <metadata>
  <rdf:RDF xmlns:cc="http://creativecommons.org/ns#" xmlns:dc="http://purl.org/dc/elements/1.1/" xmlns:rdf="http://www.w3.org/1999/02/22-rdf-syntax-ns#">
   <cc:Work>
    <dc:type rdf:resource="http://purl.org/dc/dcmitype/StillImage"/>
    <dc:date>2022-06-30T14:37:53.401304</dc:date>
    <dc:format>image/svg+xml</dc:format>
    <dc:creator>
     <cc:Agent>
      <dc:title>Matplotlib v3.4.3, https://matplotlib.org/</dc:title>
     </cc:Agent>
    </dc:creator>
   </cc:Work>
  </rdf:RDF>
 </metadata>
 <defs>
  <style type="text/css">*{stroke-linecap:butt;stroke-linejoin:round;}</style>
 </defs>
 <g id="figure_1">
  <g id="patch_1">
   <path d="M 0 360 
L 576 360 
L 576 0 
L 0 0 
z
" style="fill:#ffffff;"/>
  </g>
  <g id="axes_1">
   <g id="patch_2">
    <path d="M 72 320.4 
L 518.4 320.4 
L 518.4 43.2 
L 72 43.2 
z
" style="fill:#ffffff;"/>
   </g>
   <g id="PolyCollection_1">
    <defs>
     <path d="M 72 -199.647705 
L 72 -203.274738 
L 72.526415 -203.274738 
L 73.05283 -203.274738 
L 73.579245 -203.274738 
L 74.10566 -203.274738 
L 74.632075 -203.274738 
L 75.158491 -203.274738 
L 75.684906 -203.274738 
L 76.211321 -203.274738 
L 76.737736 -203.274738 
L 77.264151 -203.274738 
L 77.790566 -203.274738 
L 78.316981 -203.274738 
L 78.843396 -203.274738 
L 79.369811 -203.274738 
L 79.896226 -203.274738 
L 80.422642 -203.274738 
L 80.949057 -203.274738 
L 81.475472 -203.274738 
L 82.001887 -203.274738 
L 82.528302 -203.274738 
L 83.054717 -203.274738 
L 83.581132 -203.274738 
L 84.107547 -203.274738 
L 84.633962 -203.274738 
L 85.160377 -203.274738 
L 85.686792 -203.274738 
L 86.213208 -203.274738 
L 86.739623 -203.274738 
L 87.266038 -203.274738 
L 87.792453 -203.274738 
L 88.318868 -203.274738 
L 88.845283 -203.274738 
L 89.371698 -203.274738 
L 89.898113 -203.274738 
L 90.424528 -203.274738 
L 90.950943 -203.274738 
L 91.477358 -203.274738 
L 92.003774 -203.274738 
L 92.530189 -203.274738 
L 93.056604 -203.274738 
L 93.583019 -203.274738 
L 94.109434 -203.274738 
L 94.635849 -203.274738 
L 95.162264 -203.274738 
L 95.688679 -203.274738 
L 96.215094 -203.274738 
L 96.741509 -203.274738 
L 97.267925 -203.274738 
L 97.79434 -203.274738 
L 98.320755 -203.274738 
L 98.84717 -203.274738 
L 99.373585 -203.274738 
L 99.9 -203.274738 
L 100.426415 -203.274738 
L 100.95283 -203.274738 
L 101.479245 -203.274738 
L 102.00566 -203.274738 
L 102.532075 -203.274738 
L 103.058491 -203.274738 
L 103.584906 -203.274738 
L 104.111321 -203.274738 
L 104.637736 -203.274738 
L 105.164151 -203.274738 
L 105.690566 -203.274738 
L 106.216981 -203.274738 
L 106.743396 -203.274738 
L 107.269811 -203.274738 
L 107.796226 -203.274738 
L 108.322642 -203.274738 
L 108.849057 -203.274738 
L 109.375472 -203.274738 
L 109.901887 -203.274738 
L 110.428302 -203.274738 
L 110.954717 -203.274738 
L 111.481132 -203.274738 
L 112.007547 -203.274738 
L 112.533962 -203.274738 
L 113.060377 -203.274738 
L 113.586792 -203.274738 
L 114.113208 -203.274738 
L 114.639623 -203.274738 
L 115.166038 -203.274738 
L 115.692453 -203.274738 
L 116.218868 -203.274738 
L 116.745283 -203.274738 
L 117.271698 -203.274738 
L 117.798113 -203.274738 
L 118.324528 -203.274738 
L 118.850943 -203.274738 
L 119.377358 -203.274738 
L 119.903774 -203.274738 
L 120.430189 -203.274738 
L 120.956604 -203.274738 
L 121.483019 -203.274738 
L 122.009434 -203.274738 
L 122.535849 -203.274738 
L 123.062264 -203.274738 
L 123.588679 -203.274738 
L 124.115094 -203.274738 
L 124.641509 -203.274738 
L 125.167925 -203.274738 
L 125.69434 -203.274738 
L 126.220755 -203.274738 
L 126.74717 -203.274738 
L 127.273585 -203.274738 
L 127.8 -203.274738 
L 128.326415 -203.274738 
L 128.85283 -203.274738 
L 129.379245 -203.274738 
L 129.90566 -203.274738 
L 130.432075 -203.274738 
L 130.958491 -203.274738 
L 131.484906 -203.274738 
L 132.011321 -203.274738 
L 132.537736 -203.274738 
L 133.064151 -203.274738 
L 133.590566 -203.274738 
L 134.116981 -203.274738 
L 134.643396 -203.274738 
L 135.169811 -203.274738 
L 135.696226 -203.274738 
L 136.222642 -203.274738 
L 136.749057 -203.274738 
L 137.275472 -203.274738 
L 137.801887 -203.274738 
L 138.328302 -203.274738 
L 138.854717 -203.274738 
L 139.381132 -203.274738 
L 139.907547 -203.274738 
L 140.433962 -203.274738 
L 140.960377 -203.274738 
L 141.486792 -203.274738 
L 142.013208 -203.274738 
L 142.539623 -203.274738 
L 143.066038 -203.274738 
L 143.592453 -203.274738 
L 144.118868 -203.274738 
L 144.645283 -203.274738 
L 145.171698 -203.274738 
L 145.698113 -203.274738 
L 146.224528 -203.274738 
L 146.750943 -203.274738 
L 147.277358 -203.274738 
L 147.803774 -203.274738 
L 148.330189 -203.274738 
L 148.856604 -203.274738 
L 149.383019 -203.274738 
L 149.909434 -203.274738 
L 150.435849 -203.274738 
L 150.962264 -203.274738 
L 151.488679 -203.274738 
L 152.015094 -203.274738 
L 152.541509 -203.274738 
L 153.067925 -203.274738 
L 153.59434 -203.274738 
L 154.120755 -203.274738 
L 154.64717 -203.274738 
L 155.173585 -203.274738 
L 155.7 -203.274738 
L 156.226415 -203.274738 
L 156.75283 -203.274738 
L 157.279245 -203.274738 
L 157.80566 -203.274738 
L 158.332075 -203.274738 
L 158.858491 -203.274738 
L 159.384906 -203.274738 
L 159.911321 -203.274738 
L 160.437736 -203.274738 
L 160.964151 -203.274738 
L 161.490566 -203.274738 
L 162.016981 -203.274738 
L 162.543396 -203.274738 
L 163.069811 -203.274738 
L 163.596226 -203.274738 
L 164.122642 -203.274738 
L 164.649057 -203.274738 
L 165.175472 -203.274738 
L 165.701887 -203.274738 
L 166.228302 -203.274738 
L 166.754717 -203.274738 
L 167.281132 -203.274738 
L 167.807547 -203.274738 
L 168.333962 -203.274738 
L 168.860377 -203.274738 
L 169.386792 -203.274738 
L 169.913208 -203.274738 
L 170.439623 -203.274738 
L 170.966038 -203.274738 
L 171.492453 -203.274738 
L 172.018868 -203.274738 
L 172.545283 -203.274738 
L 173.071698 -203.274738 
L 173.598113 -203.274738 
L 174.124528 -203.274738 
L 174.650943 -203.274738 
L 175.177358 -203.274738 
L 175.703774 -203.274738 
L 176.230189 -203.274738 
L 176.756604 -203.274738 
L 177.283019 -203.274738 
L 177.809434 -203.274738 
L 178.335849 -203.274738 
L 178.862264 -203.274738 
L 179.388679 -203.274738 
L 179.915094 -203.274738 
L 180.441509 -203.274738 
L 180.967925 -203.274738 
L 181.49434 -203.274738 
L 182.020755 -203.274738 
L 182.54717 -203.274738 
L 183.073585 -203.274738 
L 183.6 -203.274738 
L 184.126415 -203.274738 
L 184.65283 -203.274738 
L 185.179245 -203.274738 
L 185.70566 -203.274738 
L 186.232075 -203.274738 
L 186.758491 -203.274738 
L 187.284906 -203.274738 
L 187.811321 -203.274738 
L 188.337736 -203.274738 
L 188.864151 -203.274738 
L 189.390566 -203.274738 
L 189.916981 -203.274738 
L 190.443396 -203.274738 
L 190.969811 -203.274738 
L 191.496226 -203.274738 
L 192.022642 -203.274738 
L 192.549057 -203.274738 
L 193.075472 -203.274738 
L 193.601887 -203.274738 
L 194.128302 -203.274738 
L 194.654717 -203.274738 
L 195.181132 -203.274738 
L 195.707547 -203.274738 
L 196.233962 -203.274738 
L 196.760377 -203.274738 
L 197.286792 -203.274738 
L 197.813208 -203.274738 
L 198.339623 -203.274738 
L 198.866038 -203.274738 
L 199.392453 -203.274738 
L 199.918868 -203.274738 
L 200.445283 -203.274738 
L 200.971698 -203.274738 
L 201.498113 -203.274738 
L 202.024528 -203.274738 
L 202.550943 -203.274738 
L 203.077358 -203.274738 
L 203.603774 -203.274738 
L 204.130189 -203.274738 
L 204.656604 -203.274738 
L 205.183019 -203.274738 
L 205.709434 -203.274738 
L 206.235849 -203.274738 
L 206.762264 -203.274738 
L 207.288679 -203.274738 
L 207.815094 -203.274738 
L 208.341509 -203.274738 
L 208.867925 -203.274738 
L 209.39434 -203.274738 
L 209.920755 -203.274738 
L 210.44717 -203.274738 
L 210.973585 -203.274738 
L 211.5 -203.274738 
L 212.026415 -203.274738 
L 212.55283 -203.274738 
L 213.079245 -203.274738 
L 213.60566 -203.274738 
L 214.132075 -203.274738 
L 214.658491 -203.274738 
L 215.184906 -203.274738 
L 215.711321 -203.274738 
L 216.237736 -203.274738 
L 216.764151 -203.274738 
L 217.290566 -203.274738 
L 217.816981 -203.274738 
L 218.343396 -203.274738 
L 218.869811 -203.274738 
L 219.396226 -203.274738 
L 219.922642 -203.274738 
L 220.449057 -203.274738 
L 220.975472 -203.274738 
L 221.501887 -203.274738 
L 222.028302 -203.274738 
L 222.554717 -203.274738 
L 223.081132 -203.274738 
L 223.607547 -203.274738 
L 224.133962 -203.274738 
L 224.660377 -203.274738 
L 225.186792 -203.274738 
L 225.713208 -203.274738 
L 226.239623 -203.274738 
L 226.766038 -203.274738 
L 227.292453 -203.274738 
L 227.818868 -203.274738 
L 228.345283 -203.274738 
L 228.871698 -203.274738 
L 229.398113 -203.274738 
L 229.924528 -203.274738 
L 230.450943 -203.274738 
L 230.977358 -203.274738 
L 231.503774 -203.274738 
L 232.030189 -203.274738 
L 232.556604 -203.274738 
L 233.083019 -203.274738 
L 233.609434 -203.274738 
L 234.135849 -203.274738 
L 234.662264 -203.274738 
L 235.188679 -203.274738 
L 235.715094 -203.274738 
L 236.241509 -203.274738 
L 236.767925 -203.274738 
L 237.29434 -203.274738 
L 237.820755 -203.274738 
L 238.34717 -203.274738 
L 238.873585 -203.274738 
L 239.4 -203.274738 
L 239.926415 -203.274738 
L 240.45283 -203.274738 
L 240.979245 -203.274738 
L 241.50566 -203.274738 
L 242.032075 -203.274738 
L 242.558491 -203.274738 
L 243.084906 -203.274738 
L 243.611321 -203.274738 
L 244.137736 -203.274738 
L 244.664151 -203.274738 
L 245.190566 -203.274738 
L 245.716981 -203.274738 
L 246.243396 -203.274738 
L 246.769811 -203.274738 
L 247.296226 -203.274738 
L 247.822642 -203.274738 
L 248.349057 -203.274738 
L 248.875472 -203.274738 
L 249.401887 -203.274738 
L 249.928302 -203.274738 
L 250.454717 -203.274738 
L 250.981132 -203.274738 
L 251.507547 -203.274738 
L 252.033962 -203.274738 
L 252.560377 -203.274738 
L 253.086792 -203.274738 
L 253.613208 -203.274738 
L 254.139623 -203.274738 
L 254.666038 -203.274738 
L 255.192453 -203.274738 
L 255.718868 -203.274738 
L 256.245283 -203.274738 
L 256.771698 -203.274738 
L 257.298113 -203.274738 
L 257.824528 -203.274738 
L 258.350943 -203.274738 
L 258.877358 -203.274738 
L 259.403774 -203.274738 
L 259.930189 -203.274738 
L 260.456604 -203.274738 
L 260.983019 -203.274738 
L 261.509434 -203.274738 
L 262.035849 -203.274738 
L 262.562264 -203.274738 
L 263.088679 -203.274738 
L 263.615094 -203.274738 
L 264.141509 -203.274738 
L 264.667925 -203.274738 
L 265.19434 -203.274738 
L 265.720755 -203.274738 
L 266.24717 -203.274738 
L 266.773585 -203.274738 
L 267.3 -203.274738 
L 267.826415 -203.274738 
L 268.35283 -203.274738 
L 268.879245 -203.274738 
L 269.40566 -203.274738 
L 269.932075 -203.274738 
L 270.458491 -203.274738 
L 270.984906 -203.274738 
L 271.511321 -203.274738 
L 272.037736 -203.274738 
L 272.564151 -203.274738 
L 273.090566 -203.274738 
L 273.616981 -203.274738 
L 274.143396 -203.274738 
L 274.669811 -203.274738 
L 275.196226 -203.274738 
L 275.722642 -203.274738 
L 276.249057 -203.274738 
L 276.775472 -203.274738 
L 277.301887 -203.274738 
L 277.828302 -203.274738 
L 278.354717 -203.274738 
L 278.881132 -203.274738 
L 279.407547 -203.274738 
L 279.933962 -203.274738 
L 280.460377 -203.274738 
L 280.986792 -203.274738 
L 281.513208 -203.274738 
L 282.039623 -203.274738 
L 282.566038 -203.274738 
L 283.092453 -203.274738 
L 283.618868 -203.274738 
L 284.145283 -203.274738 
L 284.671698 -203.274738 
L 285.198113 -203.274738 
L 285.724528 -203.274738 
L 286.250943 -203.274738 
L 286.777358 -203.274738 
L 287.303774 -203.274738 
L 287.830189 -203.274738 
L 288.356604 -203.274738 
L 288.883019 -203.274738 
L 289.409434 -203.274738 
L 289.935849 -203.274738 
L 290.462264 -203.274738 
L 290.988679 -203.274738 
L 291.515094 -203.274738 
L 292.041509 -203.274738 
L 292.567925 -203.274738 
L 293.09434 -203.274738 
L 293.620755 -203.274738 
L 294.14717 -203.274738 
L 294.673585 -203.274738 
L 295.2 -203.274738 
L 295.726415 -203.274738 
L 296.25283 -203.274738 
L 296.779245 -203.274738 
L 297.30566 -203.274738 
L 297.832075 -203.274738 
L 298.358491 -203.274738 
L 298.884906 -203.274738 
L 299.411321 -203.274738 
L 299.937736 -203.274738 
L 300.464151 -203.274738 
L 300.990566 -203.274738 
L 301.516981 -203.274738 
L 302.043396 -203.274738 
L 302.569811 -203.274738 
L 303.096226 -203.274738 
L 303.622642 -203.274738 
L 304.149057 -203.274738 
L 304.675472 -203.274738 
L 305.201887 -203.274738 
L 305.728302 -203.274738 
L 306.254717 -203.274738 
L 306.781132 -203.274738 
L 307.307547 -203.274738 
L 307.833962 -203.274738 
L 308.360377 -203.274738 
L 308.886792 -203.274738 
L 309.413208 -203.274738 
L 309.939623 -203.274738 
L 310.466038 -203.274738 
L 310.992453 -203.274738 
L 311.518868 -203.274738 
L 312.045283 -203.274738 
L 312.571698 -203.274738 
L 313.098113 -203.274738 
L 313.624528 -203.274738 
L 314.150943 -203.274738 
L 314.677358 -203.274738 
L 315.203774 -203.274738 
L 315.730189 -203.274738 
L 316.256604 -203.274738 
L 316.783019 -203.274738 
L 317.309434 -203.274738 
L 317.835849 -203.274738 
L 318.362264 -203.274738 
L 318.888679 -203.274738 
L 319.415094 -203.274738 
L 319.941509 -203.274738 
L 320.467925 -203.274738 
L 320.99434 -203.274738 
L 321.520755 -203.274738 
L 322.04717 -203.274738 
L 322.573585 -203.274738 
L 323.1 -203.274738 
L 323.626415 -203.274738 
L 324.15283 -203.274738 
L 324.679245 -203.274738 
L 325.20566 -203.274738 
L 325.732075 -203.274738 
L 326.258491 -203.274738 
L 326.784906 -203.274738 
L 327.311321 -203.274738 
L 327.837736 -203.274738 
L 328.364151 -203.274738 
L 328.890566 -203.274738 
L 329.416981 -203.274738 
L 329.943396 -203.274738 
L 330.469811 -203.274738 
L 330.996226 -203.274738 
L 331.522642 -203.274738 
L 332.049057 -203.274738 
L 332.575472 -203.274738 
L 333.101887 -203.274738 
L 333.628302 -203.274738 
L 334.154717 -203.274738 
L 334.681132 -203.274738 
L 335.207547 -203.274738 
L 335.733962 -203.274738 
L 336.260377 -203.274738 
L 336.786792 -203.274738 
L 337.313208 -203.274738 
L 337.839623 -203.274738 
L 338.366038 -203.274738 
L 338.892453 -203.274738 
L 339.418868 -203.274738 
L 339.945283 -203.274738 
L 340.471698 -203.274738 
L 340.998113 -203.274738 
L 341.524528 -203.274738 
L 342.050943 -203.274738 
L 342.577358 -203.274738 
L 343.103774 -203.274738 
L 343.630189 -203.274738 
L 344.156604 -203.274738 
L 344.683019 -203.274738 
L 345.209434 -203.274738 
L 345.735849 -203.274738 
L 346.262264 -203.274738 
L 346.788679 -203.274738 
L 347.315094 -203.274738 
L 347.841509 -203.274738 
L 348.367925 -203.274738 
L 348.89434 -203.274738 
L 349.420755 -203.274738 
L 349.94717 -203.274738 
L 350.473585 -203.274738 
L 351 -203.274738 
L 351.526415 -203.274738 
L 352.05283 -203.274738 
L 352.579245 -203.274738 
L 353.10566 -203.274738 
L 353.632075 -203.274738 
L 354.158491 -203.274738 
L 354.684906 -203.274738 
L 355.211321 -203.274738 
L 355.737736 -203.274738 
L 356.264151 -203.274738 
L 356.790566 -203.274738 
L 357.316981 -203.274738 
L 357.843396 -203.274738 
L 358.369811 -203.274738 
L 358.896226 -203.274738 
L 359.422642 -203.274738 
L 359.949057 -203.274738 
L 360.475472 -203.274738 
L 361.001887 -203.274738 
L 361.528302 -203.274738 
L 362.054717 -203.274738 
L 362.581132 -203.274738 
L 363.107547 -203.274738 
L 363.633962 -203.274738 
L 364.160377 -203.274738 
L 364.686792 -203.274738 
L 365.213208 -203.274738 
L 365.739623 -203.274738 
L 366.266038 -203.274738 
L 366.792453 -203.274738 
L 367.318868 -203.274738 
L 367.845283 -203.274738 
L 368.371698 -203.274738 
L 368.898113 -203.274738 
L 369.424528 -203.274738 
L 369.950943 -203.274738 
L 370.477358 -203.274738 
L 371.003774 -203.274738 
L 371.530189 -203.274738 
L 372.056604 -203.274738 
L 372.583019 -203.274738 
L 373.109434 -203.274738 
L 373.635849 -203.274738 
L 374.162264 -203.274738 
L 374.688679 -203.274738 
L 375.215094 -203.274738 
L 375.741509 -203.274738 
L 376.267925 -203.274738 
L 376.79434 -203.274738 
L 377.320755 -203.274738 
L 377.84717 -203.274738 
L 378.373585 -203.274738 
L 378.9 -203.274738 
L 379.426415 -203.274738 
L 379.95283 -203.274738 
L 380.479245 -203.274738 
L 381.00566 -203.274738 
L 381.532075 -203.274738 
L 382.058491 -203.274738 
L 382.584906 -203.274738 
L 383.111321 -203.274738 
L 383.637736 -203.274738 
L 384.164151 -203.274738 
L 384.690566 -203.274738 
L 385.216981 -203.274738 
L 385.743396 -203.274738 
L 386.269811 -203.274738 
L 386.796226 -203.274738 
L 387.322642 -203.274738 
L 387.849057 -203.274738 
L 388.375472 -203.274738 
L 388.901887 -203.274738 
L 389.428302 -203.274738 
L 389.954717 -203.274738 
L 390.481132 -203.274738 
L 391.007547 -203.274738 
L 391.533962 -203.274738 
L 392.060377 -203.274738 
L 392.586792 -203.274738 
L 393.113208 -203.274738 
L 393.639623 -203.274738 
L 394.166038 -203.274738 
L 394.692453 -203.274738 
L 395.218868 -203.274738 
L 395.745283 -203.274738 
L 396.271698 -203.274738 
L 396.798113 -203.274738 
L 397.324528 -203.274738 
L 397.850943 -203.274738 
L 398.377358 -203.274738 
L 398.903774 -203.274738 
L 399.430189 -203.274738 
L 399.956604 -203.274738 
L 400.483019 -203.274738 
L 401.009434 -203.274738 
L 401.535849 -203.274738 
L 402.062264 -203.274738 
L 402.588679 -203.274738 
L 403.115094 -203.274738 
L 403.641509 -203.274738 
L 404.167925 -203.274738 
L 404.69434 -203.274738 
L 405.220755 -203.274738 
L 405.74717 -203.274738 
L 406.273585 -203.274738 
L 406.8 -203.274738 
L 407.326415 -203.274738 
L 407.85283 -203.274738 
L 408.379245 -203.274738 
L 408.90566 -203.274738 
L 409.432075 -203.274738 
L 409.958491 -203.274738 
L 410.484906 -203.274738 
L 411.011321 -203.274738 
L 411.537736 -203.274738 
L 412.064151 -203.274738 
L 412.590566 -203.274738 
L 413.116981 -203.274738 
L 413.643396 -203.274738 
L 414.169811 -203.274738 
L 414.696226 -203.274738 
L 415.222642 -203.274738 
L 415.749057 -203.274738 
L 416.275472 -203.274738 
L 416.801887 -203.274738 
L 417.328302 -203.274738 
L 417.854717 -203.274738 
L 418.381132 -203.274738 
L 418.907547 -203.274738 
L 419.433962 -203.274738 
L 419.960377 -203.274738 
L 420.486792 -203.274738 
L 421.013208 -203.274738 
L 421.539623 -203.274738 
L 422.066038 -203.274738 
L 422.592453 -203.274738 
L 423.118868 -203.274738 
L 423.645283 -203.274738 
L 424.171698 -203.274738 
L 424.698113 -203.274738 
L 425.224528 -203.274738 
L 425.750943 -203.274738 
L 426.277358 -203.274738 
L 426.803774 -203.274738 
L 427.330189 -203.274738 
L 427.856604 -203.274738 
L 428.383019 -203.274738 
L 428.909434 -203.274738 
L 429.435849 -203.274738 
L 429.962264 -203.274738 
L 430.488679 -203.274738 
L 431.015094 -203.274738 
L 431.541509 -203.274738 
L 432.067925 -203.274738 
L 432.59434 -203.274738 
L 433.120755 -203.274738 
L 433.64717 -203.274738 
L 434.173585 -203.274738 
L 434.7 -203.274738 
L 435.226415 -203.274738 
L 435.75283 -203.274738 
L 436.279245 -203.274738 
L 436.80566 -203.274738 
L 437.332075 -203.274738 
L 437.858491 -203.274738 
L 438.384906 -203.274738 
L 438.911321 -203.274738 
L 439.437736 -203.274738 
L 439.964151 -203.274738 
L 440.490566 -203.274738 
L 441.016981 -203.274738 
L 441.543396 -203.274738 
L 442.069811 -203.274738 
L 442.596226 -203.274738 
L 443.122642 -203.274738 
L 443.649057 -203.274738 
L 444.175472 -203.274738 
L 444.701887 -203.274738 
L 445.228302 -203.274738 
L 445.754717 -203.274738 
L 446.281132 -203.274738 
L 446.807547 -203.274738 
L 447.333962 -203.274738 
L 447.860377 -203.274738 
L 448.386792 -203.274738 
L 448.913208 -203.274738 
L 449.439623 -203.274738 
L 449.966038 -203.274738 
L 450.492453 -203.274738 
L 451.018868 -203.274738 
L 451.545283 -203.274738 
L 452.071698 -203.274738 
L 452.598113 -203.274738 
L 453.124528 -203.274738 
L 453.650943 -203.274738 
L 454.177358 -203.274738 
L 454.703774 -203.274738 
L 455.230189 -203.274738 
L 455.756604 -203.274738 
L 456.283019 -203.274738 
L 456.809434 -203.274738 
L 457.335849 -203.274738 
L 457.862264 -203.274738 
L 458.388679 -203.274738 
L 458.915094 -203.274738 
L 459.441509 -203.274738 
L 459.967925 -203.274738 
L 460.49434 -203.274738 
L 461.020755 -203.274738 
L 461.54717 -203.274738 
L 462.073585 -203.274738 
L 462.6 -203.274738 
L 463.126415 -203.274738 
L 463.65283 -203.274738 
L 464.179245 -203.274738 
L 464.70566 -203.274738 
L 465.232075 -203.274738 
L 465.758491 -203.274738 
L 466.284906 -203.274738 
L 466.811321 -203.274738 
L 467.337736 -203.274738 
L 467.864151 -203.274738 
L 468.390566 -203.274738 
L 468.916981 -203.274738 
L 469.443396 -203.274738 
L 469.969811 -203.274738 
L 470.496226 -203.274738 
L 471.022642 -203.274738 
L 471.549057 -203.274738 
L 472.075472 -203.274738 
L 472.601887 -203.274738 
L 473.128302 -203.274738 
L 473.654717 -203.274738 
L 474.181132 -203.274738 
L 474.707547 -203.274738 
L 475.233962 -203.274738 
L 475.760377 -203.274738 
L 476.286792 -203.274738 
L 476.813208 -203.274738 
L 477.339623 -203.274738 
L 477.866038 -203.274738 
L 478.392453 -203.274738 
L 478.918868 -203.274738 
L 479.445283 -203.274738 
L 479.971698 -203.274738 
L 480.498113 -203.274738 
L 481.024528 -203.274738 
L 481.550943 -203.274738 
L 482.077358 -203.274738 
L 482.603774 -203.274738 
L 483.130189 -203.274738 
L 483.656604 -203.274738 
L 484.183019 -203.274738 
L 484.709434 -203.274738 
L 485.235849 -203.274738 
L 485.762264 -203.274738 
L 486.288679 -203.274738 
L 486.815094 -203.274738 
L 487.341509 -203.274738 
L 487.867925 -203.274738 
L 488.39434 -203.274738 
L 488.920755 -203.274738 
L 489.44717 -203.274738 
L 489.973585 -203.274738 
L 490.5 -203.274738 
L 491.026415 -203.274738 
L 491.55283 -203.274738 
L 492.079245 -203.274738 
L 492.60566 -203.274738 
L 493.132075 -203.274738 
L 493.658491 -203.274738 
L 494.184906 -203.274738 
L 494.711321 -203.274738 
L 495.237736 -203.274738 
L 495.764151 -203.274738 
L 496.290566 -203.274738 
L 496.816981 -203.274738 
L 497.343396 -203.274738 
L 497.869811 -203.274738 
L 498.396226 -203.274738 
L 498.922642 -203.274738 
L 499.449057 -203.274738 
L 499.975472 -203.274738 
L 500.501887 -203.274738 
L 501.028302 -203.274738 
L 501.554717 -203.274738 
L 502.081132 -203.274738 
L 502.607547 -203.274738 
L 503.133962 -203.274738 
L 503.660377 -203.274738 
L 504.186792 -203.274738 
L 504.713208 -203.274738 
L 505.239623 -203.274738 
L 505.766038 -203.274738 
L 506.292453 -203.274738 
L 506.818868 -203.274738 
L 507.345283 -203.274738 
L 507.871698 -203.274738 
L 508.398113 -203.274738 
L 508.924528 -203.274738 
L 509.450943 -203.274738 
L 509.977358 -203.274738 
L 510.503774 -203.274738 
L 511.030189 -203.274738 
L 511.556604 -203.274738 
L 512.083019 -203.274738 
L 512.609434 -203.274738 
L 513.135849 -203.274738 
L 513.662264 -203.274738 
L 514.188679 -203.274738 
L 514.715094 -203.274738 
L 515.241509 -203.274738 
L 515.767925 -203.274738 
L 516.29434 -203.274738 
L 516.820755 -203.274738 
L 517.34717 -203.274738 
L 517.873585 -203.274738 
L 518.4 -203.274738 
L 518.4 -199.647705 
L 518.4 -199.647705 
L 517.873585 -199.647705 
L 517.34717 -199.647705 
L 516.820755 -199.647705 
L 516.29434 -199.647705 
L 515.767925 -199.647705 
L 515.241509 -199.647705 
L 514.715094 -199.647705 
L 514.188679 -199.647705 
L 513.662264 -199.647705 
L 513.135849 -199.647705 
L 512.609434 -199.647705 
L 512.083019 -199.647705 
L 511.556604 -199.647705 
L 511.030189 -199.647705 
L 510.503774 -199.647705 
L 509.977358 -199.647705 
L 509.450943 -199.647705 
L 508.924528 -199.647705 
L 508.398113 -199.647705 
L 507.871698 -199.647705 
L 507.345283 -199.647705 
L 506.818868 -199.647705 
L 506.292453 -199.647705 
L 505.766038 -199.647705 
L 505.239623 -199.647705 
L 504.713208 -199.647705 
L 504.186792 -199.647705 
L 503.660377 -199.647705 
L 503.133962 -199.647705 
L 502.607547 -199.647705 
L 502.081132 -199.647705 
L 501.554717 -199.647705 
L 501.028302 -199.647705 
L 500.501887 -199.647705 
L 499.975472 -199.647705 
L 499.449057 -199.647705 
L 498.922642 -199.647705 
L 498.396226 -199.647705 
L 497.869811 -199.647705 
L 497.343396 -199.647705 
L 496.816981 -199.647705 
L 496.290566 -199.647705 
L 495.764151 -199.647705 
L 495.237736 -199.647705 
L 494.711321 -199.647705 
L 494.184906 -199.647705 
L 493.658491 -199.647705 
L 493.132075 -199.647705 
L 492.60566 -199.647705 
L 492.079245 -199.647705 
L 491.55283 -199.647705 
L 491.026415 -199.647705 
L 490.5 -199.647705 
L 489.973585 -199.647705 
L 489.44717 -199.647705 
L 488.920755 -199.647705 
L 488.39434 -199.647705 
L 487.867925 -199.647705 
L 487.341509 -199.647705 
L 486.815094 -199.647705 
L 486.288679 -199.647705 
L 485.762264 -199.647705 
L 485.235849 -199.647705 
L 484.709434 -199.647705 
L 484.183019 -199.647705 
L 483.656604 -199.647705 
L 483.130189 -199.647705 
L 482.603774 -199.647705 
L 482.077358 -199.647705 
L 481.550943 -199.647705 
L 481.024528 -199.647705 
L 480.498113 -199.647705 
L 479.971698 -199.647705 
L 479.445283 -199.647705 
L 478.918868 -199.647705 
L 478.392453 -199.647705 
L 477.866038 -199.647705 
L 477.339623 -199.647705 
L 476.813208 -199.647705 
L 476.286792 -199.647705 
L 475.760377 -199.647705 
L 475.233962 -199.647705 
L 474.707547 -199.647705 
L 474.181132 -199.647705 
L 473.654717 -199.647705 
L 473.128302 -199.647705 
L 472.601887 -199.647705 
L 472.075472 -199.647705 
L 471.549057 -199.647705 
L 471.022642 -199.647705 
L 470.496226 -199.647705 
L 469.969811 -199.647705 
L 469.443396 -199.647705 
L 468.916981 -199.647705 
L 468.390566 -199.647705 
L 467.864151 -199.647705 
L 467.337736 -199.647705 
L 466.811321 -199.647705 
L 466.284906 -199.647705 
L 465.758491 -199.647705 
L 465.232075 -199.647705 
L 464.70566 -199.647705 
L 464.179245 -199.647705 
L 463.65283 -199.647705 
L 463.126415 -199.647705 
L 462.6 -199.647705 
L 462.073585 -199.647705 
L 461.54717 -199.647705 
L 461.020755 -199.647705 
L 460.49434 -199.647705 
L 459.967925 -199.647705 
L 459.441509 -199.647705 
L 458.915094 -199.647705 
L 458.388679 -199.647705 
L 457.862264 -199.647705 
L 457.335849 -199.647705 
L 456.809434 -199.647705 
L 456.283019 -199.647705 
L 455.756604 -199.647705 
L 455.230189 -199.647705 
L 454.703774 -199.647705 
L 454.177358 -199.647705 
L 453.650943 -199.647705 
L 453.124528 -199.647705 
L 452.598113 -199.647705 
L 452.071698 -199.647705 
L 451.545283 -199.647705 
L 451.018868 -199.647705 
L 450.492453 -199.647705 
L 449.966038 -199.647705 
L 449.439623 -199.647705 
L 448.913208 -199.647705 
L 448.386792 -199.647705 
L 447.860377 -199.647705 
L 447.333962 -199.647705 
L 446.807547 -199.647705 
L 446.281132 -199.647705 
L 445.754717 -199.647705 
L 445.228302 -199.647705 
L 444.701887 -199.647705 
L 444.175472 -199.647705 
L 443.649057 -199.647705 
L 443.122642 -199.647705 
L 442.596226 -199.647705 
L 442.069811 -199.647705 
L 441.543396 -199.647705 
L 441.016981 -199.647705 
L 440.490566 -199.647705 
L 439.964151 -199.647705 
L 439.437736 -199.647705 
L 438.911321 -199.647705 
L 438.384906 -199.647705 
L 437.858491 -199.647705 
L 437.332075 -199.647705 
L 436.80566 -199.647705 
L 436.279245 -199.647705 
L 435.75283 -199.647705 
L 435.226415 -199.647705 
L 434.7 -199.647705 
L 434.173585 -199.647705 
L 433.64717 -199.647705 
L 433.120755 -199.647705 
L 432.59434 -199.647705 
L 432.067925 -199.647705 
L 431.541509 -199.647705 
L 431.015094 -199.647705 
L 430.488679 -199.647705 
L 429.962264 -199.647705 
L 429.435849 -199.647705 
L 428.909434 -199.647705 
L 428.383019 -199.647705 
L 427.856604 -199.647705 
L 427.330189 -199.647705 
L 426.803774 -199.647705 
L 426.277358 -199.647705 
L 425.750943 -199.647705 
L 425.224528 -199.647705 
L 424.698113 -199.647705 
L 424.171698 -199.647705 
L 423.645283 -199.647705 
L 423.118868 -199.647705 
L 422.592453 -199.647705 
L 422.066038 -199.647705 
L 421.539623 -199.647705 
L 421.013208 -199.647705 
L 420.486792 -199.647705 
L 419.960377 -199.647705 
L 419.433962 -199.647705 
L 418.907547 -199.647705 
L 418.381132 -199.647705 
L 417.854717 -199.647705 
L 417.328302 -199.647705 
L 416.801887 -199.647705 
L 416.275472 -199.647705 
L 415.749057 -199.647705 
L 415.222642 -199.647705 
L 414.696226 -199.647705 
L 414.169811 -199.647705 
L 413.643396 -199.647705 
L 413.116981 -199.647705 
L 412.590566 -199.647705 
L 412.064151 -199.647705 
L 411.537736 -199.647705 
L 411.011321 -199.647705 
L 410.484906 -199.647705 
L 409.958491 -199.647705 
L 409.432075 -199.647705 
L 408.90566 -199.647705 
L 408.379245 -199.647705 
L 407.85283 -199.647705 
L 407.326415 -199.647705 
L 406.8 -199.647705 
L 406.273585 -199.647705 
L 405.74717 -199.647705 
L 405.220755 -199.647705 
L 404.69434 -199.647705 
L 404.167925 -199.647705 
L 403.641509 -199.647705 
L 403.115094 -199.647705 
L 402.588679 -199.647705 
L 402.062264 -199.647705 
L 401.535849 -199.647705 
L 401.009434 -199.647705 
L 400.483019 -199.647705 
L 399.956604 -199.647705 
L 399.430189 -199.647705 
L 398.903774 -199.647705 
L 398.377358 -199.647705 
L 397.850943 -199.647705 
L 397.324528 -199.647705 
L 396.798113 -199.647705 
L 396.271698 -199.647705 
L 395.745283 -199.647705 
L 395.218868 -199.647705 
L 394.692453 -199.647705 
L 394.166038 -199.647705 
L 393.639623 -199.647705 
L 393.113208 -199.647705 
L 392.586792 -199.647705 
L 392.060377 -199.647705 
L 391.533962 -199.647705 
L 391.007547 -199.647705 
L 390.481132 -199.647705 
L 389.954717 -199.647705 
L 389.428302 -199.647705 
L 388.901887 -199.647705 
L 388.375472 -199.647705 
L 387.849057 -199.647705 
L 387.322642 -199.647705 
L 386.796226 -199.647705 
L 386.269811 -199.647705 
L 385.743396 -199.647705 
L 385.216981 -199.647705 
L 384.690566 -199.647705 
L 384.164151 -199.647705 
L 383.637736 -199.647705 
L 383.111321 -199.647705 
L 382.584906 -199.647705 
L 382.058491 -199.647705 
L 381.532075 -199.647705 
L 381.00566 -199.647705 
L 380.479245 -199.647705 
L 379.95283 -199.647705 
L 379.426415 -199.647705 
L 378.9 -199.647705 
L 378.373585 -199.647705 
L 377.84717 -199.647705 
L 377.320755 -199.647705 
L 376.79434 -199.647705 
L 376.267925 -199.647705 
L 375.741509 -199.647705 
L 375.215094 -199.647705 
L 374.688679 -199.647705 
L 374.162264 -199.647705 
L 373.635849 -199.647705 
L 373.109434 -199.647705 
L 372.583019 -199.647705 
L 372.056604 -199.647705 
L 371.530189 -199.647705 
L 371.003774 -199.647705 
L 370.477358 -199.647705 
L 369.950943 -199.647705 
L 369.424528 -199.647705 
L 368.898113 -199.647705 
L 368.371698 -199.647705 
L 367.845283 -199.647705 
L 367.318868 -199.647705 
L 366.792453 -199.647705 
L 366.266038 -199.647705 
L 365.739623 -199.647705 
L 365.213208 -199.647705 
L 364.686792 -199.647705 
L 364.160377 -199.647705 
L 363.633962 -199.647705 
L 363.107547 -199.647705 
L 362.581132 -199.647705 
L 362.054717 -199.647705 
L 361.528302 -199.647705 
L 361.001887 -199.647705 
L 360.475472 -199.647705 
L 359.949057 -199.647705 
L 359.422642 -199.647705 
L 358.896226 -199.647705 
L 358.369811 -199.647705 
L 357.843396 -199.647705 
L 357.316981 -199.647705 
L 356.790566 -199.647705 
L 356.264151 -199.647705 
L 355.737736 -199.647705 
L 355.211321 -199.647705 
L 354.684906 -199.647705 
L 354.158491 -199.647705 
L 353.632075 -199.647705 
L 353.10566 -199.647705 
L 352.579245 -199.647705 
L 352.05283 -199.647705 
L 351.526415 -199.647705 
L 351 -199.647705 
L 350.473585 -199.647705 
L 349.94717 -199.647705 
L 349.420755 -199.647705 
L 348.89434 -199.647705 
L 348.367925 -199.647705 
L 347.841509 -199.647705 
L 347.315094 -199.647705 
L 346.788679 -199.647705 
L 346.262264 -199.647705 
L 345.735849 -199.647705 
L 345.209434 -199.647705 
L 344.683019 -199.647705 
L 344.156604 -199.647705 
L 343.630189 -199.647705 
L 343.103774 -199.647705 
L 342.577358 -199.647705 
L 342.050943 -199.647705 
L 341.524528 -199.647705 
L 340.998113 -199.647705 
L 340.471698 -199.647705 
L 339.945283 -199.647705 
L 339.418868 -199.647705 
L 338.892453 -199.647705 
L 338.366038 -199.647705 
L 337.839623 -199.647705 
L 337.313208 -199.647705 
L 336.786792 -199.647705 
L 336.260377 -199.647705 
L 335.733962 -199.647705 
L 335.207547 -199.647705 
L 334.681132 -199.647705 
L 334.154717 -199.647705 
L 333.628302 -199.647705 
L 333.101887 -199.647705 
L 332.575472 -199.647705 
L 332.049057 -199.647705 
L 331.522642 -199.647705 
L 330.996226 -199.647705 
L 330.469811 -199.647705 
L 329.943396 -199.647705 
L 329.416981 -199.647705 
L 328.890566 -199.647705 
L 328.364151 -199.647705 
L 327.837736 -199.647705 
L 327.311321 -199.647705 
L 326.784906 -199.647705 
L 326.258491 -199.647705 
L 325.732075 -199.647705 
L 325.20566 -199.647705 
L 324.679245 -199.647705 
L 324.15283 -199.647705 
L 323.626415 -199.647705 
L 323.1 -199.647705 
L 322.573585 -199.647705 
L 322.04717 -199.647705 
L 321.520755 -199.647705 
L 320.99434 -199.647705 
L 320.467925 -199.647705 
L 319.941509 -199.647705 
L 319.415094 -199.647705 
L 318.888679 -199.647705 
L 318.362264 -199.647705 
L 317.835849 -199.647705 
L 317.309434 -199.647705 
L 316.783019 -199.647705 
L 316.256604 -199.647705 
L 315.730189 -199.647705 
L 315.203774 -199.647705 
L 314.677358 -199.647705 
L 314.150943 -199.647705 
L 313.624528 -199.647705 
L 313.098113 -199.647705 
L 312.571698 -199.647705 
L 312.045283 -199.647705 
L 311.518868 -199.647705 
L 310.992453 -199.647705 
L 310.466038 -199.647705 
L 309.939623 -199.647705 
L 309.413208 -199.647705 
L 308.886792 -199.647705 
L 308.360377 -199.647705 
L 307.833962 -199.647705 
L 307.307547 -199.647705 
L 306.781132 -199.647705 
L 306.254717 -199.647705 
L 305.728302 -199.647705 
L 305.201887 -199.647705 
L 304.675472 -199.647705 
L 304.149057 -199.647705 
L 303.622642 -199.647705 
L 303.096226 -199.647705 
L 302.569811 -199.647705 
L 302.043396 -199.647705 
L 301.516981 -199.647705 
L 300.990566 -199.647705 
L 300.464151 -199.647705 
L 299.937736 -199.647705 
L 299.411321 -199.647705 
L 298.884906 -199.647705 
L 298.358491 -199.647705 
L 297.832075 -199.647705 
L 297.30566 -199.647705 
L 296.779245 -199.647705 
L 296.25283 -199.647705 
L 295.726415 -199.647705 
L 295.2 -199.647705 
L 294.673585 -199.647705 
L 294.14717 -199.647705 
L 293.620755 -199.647705 
L 293.09434 -199.647705 
L 292.567925 -199.647705 
L 292.041509 -199.647705 
L 291.515094 -199.647705 
L 290.988679 -199.647705 
L 290.462264 -199.647705 
L 289.935849 -199.647705 
L 289.409434 -199.647705 
L 288.883019 -199.647705 
L 288.356604 -199.647705 
L 287.830189 -199.647705 
L 287.303774 -199.647705 
L 286.777358 -199.647705 
L 286.250943 -199.647705 
L 285.724528 -199.647705 
L 285.198113 -199.647705 
L 284.671698 -199.647705 
L 284.145283 -199.647705 
L 283.618868 -199.647705 
L 283.092453 -199.647705 
L 282.566038 -199.647705 
L 282.039623 -199.647705 
L 281.513208 -199.647705 
L 280.986792 -199.647705 
L 280.460377 -199.647705 
L 279.933962 -199.647705 
L 279.407547 -199.647705 
L 278.881132 -199.647705 
L 278.354717 -199.647705 
L 277.828302 -199.647705 
L 277.301887 -199.647705 
L 276.775472 -199.647705 
L 276.249057 -199.647705 
L 275.722642 -199.647705 
L 275.196226 -199.647705 
L 274.669811 -199.647705 
L 274.143396 -199.647705 
L 273.616981 -199.647705 
L 273.090566 -199.647705 
L 272.564151 -199.647705 
L 272.037736 -199.647705 
L 271.511321 -199.647705 
L 270.984906 -199.647705 
L 270.458491 -199.647705 
L 269.932075 -199.647705 
L 269.40566 -199.647705 
L 268.879245 -199.647705 
L 268.35283 -199.647705 
L 267.826415 -199.647705 
L 267.3 -199.647705 
L 266.773585 -199.647705 
L 266.24717 -199.647705 
L 265.720755 -199.647705 
L 265.19434 -199.647705 
L 264.667925 -199.647705 
L 264.141509 -199.647705 
L 263.615094 -199.647705 
L 263.088679 -199.647705 
L 262.562264 -199.647705 
L 262.035849 -199.647705 
L 261.509434 -199.647705 
L 260.983019 -199.647705 
L 260.456604 -199.647705 
L 259.930189 -199.647705 
L 259.403774 -199.647705 
L 258.877358 -199.647705 
L 258.350943 -199.647705 
L 257.824528 -199.647705 
L 257.298113 -199.647705 
L 256.771698 -199.647705 
L 256.245283 -199.647705 
L 255.718868 -199.647705 
L 255.192453 -199.647705 
L 254.666038 -199.647705 
L 254.139623 -199.647705 
L 253.613208 -199.647705 
L 253.086792 -199.647705 
L 252.560377 -199.647705 
L 252.033962 -199.647705 
L 251.507547 -199.647705 
L 250.981132 -199.647705 
L 250.454717 -199.647705 
L 249.928302 -199.647705 
L 249.401887 -199.647705 
L 248.875472 -199.647705 
L 248.349057 -199.647705 
L 247.822642 -199.647705 
L 247.296226 -199.647705 
L 246.769811 -199.647705 
L 246.243396 -199.647705 
L 245.716981 -199.647705 
L 245.190566 -199.647705 
L 244.664151 -199.647705 
L 244.137736 -199.647705 
L 243.611321 -199.647705 
L 243.084906 -199.647705 
L 242.558491 -199.647705 
L 242.032075 -199.647705 
L 241.50566 -199.647705 
L 240.979245 -199.647705 
L 240.45283 -199.647705 
L 239.926415 -199.647705 
L 239.4 -199.647705 
L 238.873585 -199.647705 
L 238.34717 -199.647705 
L 237.820755 -199.647705 
L 237.29434 -199.647705 
L 236.767925 -199.647705 
L 236.241509 -199.647705 
L 235.715094 -199.647705 
L 235.188679 -199.647705 
L 234.662264 -199.647705 
L 234.135849 -199.647705 
L 233.609434 -199.647705 
L 233.083019 -199.647705 
L 232.556604 -199.647705 
L 232.030189 -199.647705 
L 231.503774 -199.647705 
L 230.977358 -199.647705 
L 230.450943 -199.647705 
L 229.924528 -199.647705 
L 229.398113 -199.647705 
L 228.871698 -199.647705 
L 228.345283 -199.647705 
L 227.818868 -199.647705 
L 227.292453 -199.647705 
L 226.766038 -199.647705 
L 226.239623 -199.647705 
L 225.713208 -199.647705 
L 225.186792 -199.647705 
L 224.660377 -199.647705 
L 224.133962 -199.647705 
L 223.607547 -199.647705 
L 223.081132 -199.647705 
L 222.554717 -199.647705 
L 222.028302 -199.647705 
L 221.501887 -199.647705 
L 220.975472 -199.647705 
L 220.449057 -199.647705 
L 219.922642 -199.647705 
L 219.396226 -199.647705 
L 218.869811 -199.647705 
L 218.343396 -199.647705 
L 217.816981 -199.647705 
L 217.290566 -199.647705 
L 216.764151 -199.647705 
L 216.237736 -199.647705 
L 215.711321 -199.647705 
L 215.184906 -199.647705 
L 214.658491 -199.647705 
L 214.132075 -199.647705 
L 213.60566 -199.647705 
L 213.079245 -199.647705 
L 212.55283 -199.647705 
L 212.026415 -199.647705 
L 211.5 -199.647705 
L 210.973585 -199.647705 
L 210.44717 -199.647705 
L 209.920755 -199.647705 
L 209.39434 -199.647705 
L 208.867925 -199.647705 
L 208.341509 -199.647705 
L 207.815094 -199.647705 
L 207.288679 -199.647705 
L 206.762264 -199.647705 
L 206.235849 -199.647705 
L 205.709434 -199.647705 
L 205.183019 -199.647705 
L 204.656604 -199.647705 
L 204.130189 -199.647705 
L 203.603774 -199.647705 
L 203.077358 -199.647705 
L 202.550943 -199.647705 
L 202.024528 -199.647705 
L 201.498113 -199.647705 
L 200.971698 -199.647705 
L 200.445283 -199.647705 
L 199.918868 -199.647705 
L 199.392453 -199.647705 
L 198.866038 -199.647705 
L 198.339623 -199.647705 
L 197.813208 -199.647705 
L 197.286792 -199.647705 
L 196.760377 -199.647705 
L 196.233962 -199.647705 
L 195.707547 -199.647705 
L 195.181132 -199.647705 
L 194.654717 -199.647705 
L 194.128302 -199.647705 
L 193.601887 -199.647705 
L 193.075472 -199.647705 
L 192.549057 -199.647705 
L 192.022642 -199.647705 
L 191.496226 -199.647705 
L 190.969811 -199.647705 
L 190.443396 -199.647705 
L 189.916981 -199.647705 
L 189.390566 -199.647705 
L 188.864151 -199.647705 
L 188.337736 -199.647705 
L 187.811321 -199.647705 
L 187.284906 -199.647705 
L 186.758491 -199.647705 
L 186.232075 -199.647705 
L 185.70566 -199.647705 
L 185.179245 -199.647705 
L 184.65283 -199.647705 
L 184.126415 -199.647705 
L 183.6 -199.647705 
L 183.073585 -199.647705 
L 182.54717 -199.647705 
L 182.020755 -199.647705 
L 181.49434 -199.647705 
L 180.967925 -199.647705 
L 180.441509 -199.647705 
L 179.915094 -199.647705 
L 179.388679 -199.647705 
L 178.862264 -199.647705 
L 178.335849 -199.647705 
L 177.809434 -199.647705 
L 177.283019 -199.647705 
L 176.756604 -199.647705 
L 176.230189 -199.647705 
L 175.703774 -199.647705 
L 175.177358 -199.647705 
L 174.650943 -199.647705 
L 174.124528 -199.647705 
L 173.598113 -199.647705 
L 173.071698 -199.647705 
L 172.545283 -199.647705 
L 172.018868 -199.647705 
L 171.492453 -199.647705 
L 170.966038 -199.647705 
L 170.439623 -199.647705 
L 169.913208 -199.647705 
L 169.386792 -199.647705 
L 168.860377 -199.647705 
L 168.333962 -199.647705 
L 167.807547 -199.647705 
L 167.281132 -199.647705 
L 166.754717 -199.647705 
L 166.228302 -199.647705 
L 165.701887 -199.647705 
L 165.175472 -199.647705 
L 164.649057 -199.647705 
L 164.122642 -199.647705 
L 163.596226 -199.647705 
L 163.069811 -199.647705 
L 162.543396 -199.647705 
L 162.016981 -199.647705 
L 161.490566 -199.647705 
L 160.964151 -199.647705 
L 160.437736 -199.647705 
L 159.911321 -199.647705 
L 159.384906 -199.647705 
L 158.858491 -199.647705 
L 158.332075 -199.647705 
L 157.80566 -199.647705 
L 157.279245 -199.647705 
L 156.75283 -199.647705 
L 156.226415 -199.647705 
L 155.7 -199.647705 
L 155.173585 -199.647705 
L 154.64717 -199.647705 
L 154.120755 -199.647705 
L 153.59434 -199.647705 
L 153.067925 -199.647705 
L 152.541509 -199.647705 
L 152.015094 -199.647705 
L 151.488679 -199.647705 
L 150.962264 -199.647705 
L 150.435849 -199.647705 
L 149.909434 -199.647705 
L 149.383019 -199.647705 
L 148.856604 -199.647705 
L 148.330189 -199.647705 
L 147.803774 -199.647705 
L 147.277358 -199.647705 
L 146.750943 -199.647705 
L 146.224528 -199.647705 
L 145.698113 -199.647705 
L 145.171698 -199.647705 
L 144.645283 -199.647705 
L 144.118868 -199.647705 
L 143.592453 -199.647705 
L 143.066038 -199.647705 
L 142.539623 -199.647705 
L 142.013208 -199.647705 
L 141.486792 -199.647705 
L 140.960377 -199.647705 
L 140.433962 -199.647705 
L 139.907547 -199.647705 
L 139.381132 -199.647705 
L 138.854717 -199.647705 
L 138.328302 -199.647705 
L 137.801887 -199.647705 
L 137.275472 -199.647705 
L 136.749057 -199.647705 
L 136.222642 -199.647705 
L 135.696226 -199.647705 
L 135.169811 -199.647705 
L 134.643396 -199.647705 
L 134.116981 -199.647705 
L 133.590566 -199.647705 
L 133.064151 -199.647705 
L 132.537736 -199.647705 
L 132.011321 -199.647705 
L 131.484906 -199.647705 
L 130.958491 -199.647705 
L 130.432075 -199.647705 
L 129.90566 -199.647705 
L 129.379245 -199.647705 
L 128.85283 -199.647705 
L 128.326415 -199.647705 
L 127.8 -199.647705 
L 127.273585 -199.647705 
L 126.74717 -199.647705 
L 126.220755 -199.647705 
L 125.69434 -199.647705 
L 125.167925 -199.647705 
L 124.641509 -199.647705 
L 124.115094 -199.647705 
L 123.588679 -199.647705 
L 123.062264 -199.647705 
L 122.535849 -199.647705 
L 122.009434 -199.647705 
L 121.483019 -199.647705 
L 120.956604 -199.647705 
L 120.430189 -199.647705 
L 119.903774 -199.647705 
L 119.377358 -199.647705 
L 118.850943 -199.647705 
L 118.324528 -199.647705 
L 117.798113 -199.647705 
L 117.271698 -199.647705 
L 116.745283 -199.647705 
L 116.218868 -199.647705 
L 115.692453 -199.647705 
L 115.166038 -199.647705 
L 114.639623 -199.647705 
L 114.113208 -199.647705 
L 113.586792 -199.647705 
L 113.060377 -199.647705 
L 112.533962 -199.647705 
L 112.007547 -199.647705 
L 111.481132 -199.647705 
L 110.954717 -199.647705 
L 110.428302 -199.647705 
L 109.901887 -199.647705 
L 109.375472 -199.647705 
L 108.849057 -199.647705 
L 108.322642 -199.647705 
L 107.796226 -199.647705 
L 107.269811 -199.647705 
L 106.743396 -199.647705 
L 106.216981 -199.647705 
L 105.690566 -199.647705 
L 105.164151 -199.647705 
L 104.637736 -199.647705 
L 104.111321 -199.647705 
L 103.584906 -199.647705 
L 103.058491 -199.647705 
L 102.532075 -199.647705 
L 102.00566 -199.647705 
L 101.479245 -199.647705 
L 100.95283 -199.647705 
L 100.426415 -199.647705 
L 99.9 -199.647705 
L 99.373585 -199.647705 
L 98.84717 -199.647705 
L 98.320755 -199.647705 
L 97.79434 -199.647705 
L 97.267925 -199.647705 
L 96.741509 -199.647705 
L 96.215094 -199.647705 
L 95.688679 -199.647705 
L 95.162264 -199.647705 
L 94.635849 -199.647705 
L 94.109434 -199.647705 
L 93.583019 -199.647705 
L 93.056604 -199.647705 
L 92.530189 -199.647705 
L 92.003774 -199.647705 
L 91.477358 -199.647705 
L 90.950943 -199.647705 
L 90.424528 -199.647705 
L 89.898113 -199.647705 
L 89.371698 -199.647705 
L 88.845283 -199.647705 
L 88.318868 -199.647705 
L 87.792453 -199.647705 
L 87.266038 -199.647705 
L 86.739623 -199.647705 
L 86.213208 -199.647705 
L 85.686792 -199.647705 
L 85.160377 -199.647705 
L 84.633962 -199.647705 
L 84.107547 -199.647705 
L 83.581132 -199.647705 
L 83.054717 -199.647705 
L 82.528302 -199.647705 
L 82.001887 -199.647705 
L 81.475472 -199.647705 
L 80.949057 -199.647705 
L 80.422642 -199.647705 
L 79.896226 -199.647705 
L 79.369811 -199.647705 
L 78.843396 -199.647705 
L 78.316981 -199.647705 
L 77.790566 -199.647705 
L 77.264151 -199.647705 
L 76.737736 -199.647705 
L 76.211321 -199.647705 
L 75.684906 -199.647705 
L 75.158491 -199.647705 
L 74.632075 -199.647705 
L 74.10566 -199.647705 
L 73.579245 -199.647705 
L 73.05283 -199.647705 
L 72.526415 -199.647705 
L 72 -199.647705 
z
" id="m4d4785d0c6"/>
    </defs>
    <g clip-path="url(#p2abc535221)">
     <use style="fill-opacity:0.15;" x="0" xlink:href="#m4d4785d0c6" y="360"/>
    </g>
   </g>
   <g id="matplotlib.axis_1">
    <g id="xtick_1">
     <g id="line2d_1">
      <defs>
       <path d="M 0 0 
L 0 3.5 
" id="m8039b6b2db" style="stroke:#000000;stroke-width:0.8;"/>
      </defs>
      <g>
       <use style="stroke:#000000;stroke-width:0.8;" x="72" xlink:href="#m8039b6b2db" y="320.4"/>
      </g>
     </g>
     <g id="text_1">
      <!-- 0.0 -->
      <g transform="translate(60.867812 338.037813)scale(0.14 -0.14)">
       <defs>
        <path d="M 2034 4250 
Q 1547 4250 1301 3770 
Q 1056 3291 1056 2328 
Q 1056 1369 1301 889 
Q 1547 409 2034 409 
Q 2525 409 2770 889 
Q 3016 1369 3016 2328 
Q 3016 3291 2770 3770 
Q 2525 4250 2034 4250 
z
M 2034 4750 
Q 2819 4750 3233 4129 
Q 3647 3509 3647 2328 
Q 3647 1150 3233 529 
Q 2819 -91 2034 -91 
Q 1250 -91 836 529 
Q 422 1150 422 2328 
Q 422 3509 836 4129 
Q 1250 4750 2034 4750 
z
" id="DejaVuSans-30" transform="scale(0.015625)"/>
        <path d="M 684 794 
L 1344 794 
L 1344 0 
L 684 0 
L 684 794 
z
" id="DejaVuSans-2e" transform="scale(0.015625)"/>
       </defs>
       <use xlink:href="#DejaVuSans-30"/>
       <use x="63.623047" xlink:href="#DejaVuSans-2e"/>
       <use x="95.410156" xlink:href="#DejaVuSans-30"/>
      </g>
     </g>
    </g>
    <g id="xtick_2">
     <g id="line2d_2">
      <g>
       <use style="stroke:#000000;stroke-width:0.8;" x="127.8335" xlink:href="#m8039b6b2db" y="320.4"/>
      </g>
     </g>
     <g id="text_2">
      <!-- 2.5 -->
      <g transform="translate(116.701313 338.037813)scale(0.14 -0.14)">
       <defs>
        <path d="M 1228 531 
L 3431 531 
L 3431 0 
L 469 0 
L 469 531 
Q 828 903 1448 1529 
Q 2069 2156 2228 2338 
Q 2531 2678 2651 2914 
Q 2772 3150 2772 3378 
Q 2772 3750 2511 3984 
Q 2250 4219 1831 4219 
Q 1534 4219 1204 4116 
Q 875 4013 500 3803 
L 500 4441 
Q 881 4594 1212 4672 
Q 1544 4750 1819 4750 
Q 2544 4750 2975 4387 
Q 3406 4025 3406 3419 
Q 3406 3131 3298 2873 
Q 3191 2616 2906 2266 
Q 2828 2175 2409 1742 
Q 1991 1309 1228 531 
z
" id="DejaVuSans-32" transform="scale(0.015625)"/>
        <path d="M 691 4666 
L 3169 4666 
L 3169 4134 
L 1269 4134 
L 1269 2991 
Q 1406 3038 1543 3061 
Q 1681 3084 1819 3084 
Q 2600 3084 3056 2656 
Q 3513 2228 3513 1497 
Q 3513 744 3044 326 
Q 2575 -91 1722 -91 
Q 1428 -91 1123 -41 
Q 819 9 494 109 
L 494 744 
Q 775 591 1075 516 
Q 1375 441 1709 441 
Q 2250 441 2565 725 
Q 2881 1009 2881 1497 
Q 2881 1984 2565 2268 
Q 2250 2553 1709 2553 
Q 1456 2553 1204 2497 
Q 953 2441 691 2322 
L 691 4666 
z
" id="DejaVuSans-35" transform="scale(0.015625)"/>
       </defs>
       <use xlink:href="#DejaVuSans-32"/>
       <use x="63.623047" xlink:href="#DejaVuSans-2e"/>
       <use x="95.410156" xlink:href="#DejaVuSans-35"/>
      </g>
     </g>
    </g>
    <g id="xtick_3">
     <g id="line2d_3">
      <g>
       <use style="stroke:#000000;stroke-width:0.8;" x="183.667" xlink:href="#m8039b6b2db" y="320.4"/>
      </g>
     </g>
     <g id="text_3">
      <!-- 5.0 -->
      <g transform="translate(172.534813 338.037813)scale(0.14 -0.14)">
       <use xlink:href="#DejaVuSans-35"/>
       <use x="63.623047" xlink:href="#DejaVuSans-2e"/>
       <use x="95.410156" xlink:href="#DejaVuSans-30"/>
      </g>
     </g>
    </g>
    <g id="xtick_4">
     <g id="line2d_4">
      <g>
       <use style="stroke:#000000;stroke-width:0.8;" x="239.5005" xlink:href="#m8039b6b2db" y="320.4"/>
      </g>
     </g>
     <g id="text_4">
      <!-- 7.5 -->
      <g transform="translate(228.368313 338.037813)scale(0.14 -0.14)">
       <defs>
        <path d="M 525 4666 
L 3525 4666 
L 3525 4397 
L 1831 0 
L 1172 0 
L 2766 4134 
L 525 4134 
L 525 4666 
z
" id="DejaVuSans-37" transform="scale(0.015625)"/>
       </defs>
       <use xlink:href="#DejaVuSans-37"/>
       <use x="63.623047" xlink:href="#DejaVuSans-2e"/>
       <use x="95.410156" xlink:href="#DejaVuSans-35"/>
      </g>
     </g>
    </g>
    <g id="xtick_5">
     <g id="line2d_5">
      <g>
       <use style="stroke:#000000;stroke-width:0.8;" x="295.334" xlink:href="#m8039b6b2db" y="320.4"/>
      </g>
     </g>
     <g id="text_5">
      <!-- 10.0 -->
      <g transform="translate(279.748063 338.037813)scale(0.14 -0.14)">
       <defs>
        <path d="M 794 531 
L 1825 531 
L 1825 4091 
L 703 3866 
L 703 4441 
L 1819 4666 
L 2450 4666 
L 2450 531 
L 3481 531 
L 3481 0 
L 794 0 
L 794 531 
z
" id="DejaVuSans-31" transform="scale(0.015625)"/>
       </defs>
       <use xlink:href="#DejaVuSans-31"/>
       <use x="63.623047" xlink:href="#DejaVuSans-30"/>
       <use x="127.246094" xlink:href="#DejaVuSans-2e"/>
       <use x="159.033203" xlink:href="#DejaVuSans-30"/>
      </g>
     </g>
    </g>
    <g id="xtick_6">
     <g id="line2d_6">
      <g>
       <use style="stroke:#000000;stroke-width:0.8;" x="351.167501" xlink:href="#m8039b6b2db" y="320.4"/>
      </g>
     </g>
     <g id="text_6">
      <!-- 12.5 -->
      <g transform="translate(335.581563 338.037813)scale(0.14 -0.14)">
       <use xlink:href="#DejaVuSans-31"/>
       <use x="63.623047" xlink:href="#DejaVuSans-32"/>
       <use x="127.246094" xlink:href="#DejaVuSans-2e"/>
       <use x="159.033203" xlink:href="#DejaVuSans-35"/>
      </g>
     </g>
    </g>
    <g id="xtick_7">
     <g id="line2d_7">
      <g>
       <use style="stroke:#000000;stroke-width:0.8;" x="407.001001" xlink:href="#m8039b6b2db" y="320.4"/>
      </g>
     </g>
     <g id="text_7">
      <!-- 15.0 -->
      <g transform="translate(391.415063 338.037813)scale(0.14 -0.14)">
       <use xlink:href="#DejaVuSans-31"/>
       <use x="63.623047" xlink:href="#DejaVuSans-35"/>
       <use x="127.246094" xlink:href="#DejaVuSans-2e"/>
       <use x="159.033203" xlink:href="#DejaVuSans-30"/>
      </g>
     </g>
    </g>
    <g id="xtick_8">
     <g id="line2d_8">
      <g>
       <use style="stroke:#000000;stroke-width:0.8;" x="462.834501" xlink:href="#m8039b6b2db" y="320.4"/>
      </g>
     </g>
     <g id="text_8">
      <!-- 17.5 -->
      <g transform="translate(447.248563 338.037813)scale(0.14 -0.14)">
       <use xlink:href="#DejaVuSans-31"/>
       <use x="63.623047" xlink:href="#DejaVuSans-37"/>
       <use x="127.246094" xlink:href="#DejaVuSans-2e"/>
       <use x="159.033203" xlink:href="#DejaVuSans-35"/>
      </g>
     </g>
    </g>
    <g id="text_9">
     <!-- Time [Seconds] -->
     <g transform="translate(233.23 357.106875)scale(0.16 -0.16)">
      <defs>
       <path d="M -19 4666 
L 3928 4666 
L 3928 4134 
L 2272 4134 
L 2272 0 
L 1638 0 
L 1638 4134 
L -19 4134 
L -19 4666 
z
" id="DejaVuSans-54" transform="scale(0.015625)"/>
       <path d="M 603 3500 
L 1178 3500 
L 1178 0 
L 603 0 
L 603 3500 
z
M 603 4863 
L 1178 4863 
L 1178 4134 
L 603 4134 
L 603 4863 
z
" id="DejaVuSans-69" transform="scale(0.015625)"/>
       <path d="M 3328 2828 
Q 3544 3216 3844 3400 
Q 4144 3584 4550 3584 
Q 5097 3584 5394 3201 
Q 5691 2819 5691 2113 
L 5691 0 
L 5113 0 
L 5113 2094 
Q 5113 2597 4934 2840 
Q 4756 3084 4391 3084 
Q 3944 3084 3684 2787 
Q 3425 2491 3425 1978 
L 3425 0 
L 2847 0 
L 2847 2094 
Q 2847 2600 2669 2842 
Q 2491 3084 2119 3084 
Q 1678 3084 1418 2786 
Q 1159 2488 1159 1978 
L 1159 0 
L 581 0 
L 581 3500 
L 1159 3500 
L 1159 2956 
Q 1356 3278 1631 3431 
Q 1906 3584 2284 3584 
Q 2666 3584 2933 3390 
Q 3200 3197 3328 2828 
z
" id="DejaVuSans-6d" transform="scale(0.015625)"/>
       <path d="M 3597 1894 
L 3597 1613 
L 953 1613 
Q 991 1019 1311 708 
Q 1631 397 2203 397 
Q 2534 397 2845 478 
Q 3156 559 3463 722 
L 3463 178 
Q 3153 47 2828 -22 
Q 2503 -91 2169 -91 
Q 1331 -91 842 396 
Q 353 884 353 1716 
Q 353 2575 817 3079 
Q 1281 3584 2069 3584 
Q 2775 3584 3186 3129 
Q 3597 2675 3597 1894 
z
M 3022 2063 
Q 3016 2534 2758 2815 
Q 2500 3097 2075 3097 
Q 1594 3097 1305 2825 
Q 1016 2553 972 2059 
L 3022 2063 
z
" id="DejaVuSans-65" transform="scale(0.015625)"/>
       <path id="DejaVuSans-20" transform="scale(0.015625)"/>
       <path d="M 550 4863 
L 1875 4863 
L 1875 4416 
L 1125 4416 
L 1125 -397 
L 1875 -397 
L 1875 -844 
L 550 -844 
L 550 4863 
z
" id="DejaVuSans-5b" transform="scale(0.015625)"/>
       <path d="M 3425 4513 
L 3425 3897 
Q 3066 4069 2747 4153 
Q 2428 4238 2131 4238 
Q 1616 4238 1336 4038 
Q 1056 3838 1056 3469 
Q 1056 3159 1242 3001 
Q 1428 2844 1947 2747 
L 2328 2669 
Q 3034 2534 3370 2195 
Q 3706 1856 3706 1288 
Q 3706 609 3251 259 
Q 2797 -91 1919 -91 
Q 1588 -91 1214 -16 
Q 841 59 441 206 
L 441 856 
Q 825 641 1194 531 
Q 1563 422 1919 422 
Q 2459 422 2753 634 
Q 3047 847 3047 1241 
Q 3047 1584 2836 1778 
Q 2625 1972 2144 2069 
L 1759 2144 
Q 1053 2284 737 2584 
Q 422 2884 422 3419 
Q 422 4038 858 4394 
Q 1294 4750 2059 4750 
Q 2388 4750 2728 4690 
Q 3069 4631 3425 4513 
z
" id="DejaVuSans-53" transform="scale(0.015625)"/>
       <path d="M 3122 3366 
L 3122 2828 
Q 2878 2963 2633 3030 
Q 2388 3097 2138 3097 
Q 1578 3097 1268 2742 
Q 959 2388 959 1747 
Q 959 1106 1268 751 
Q 1578 397 2138 397 
Q 2388 397 2633 464 
Q 2878 531 3122 666 
L 3122 134 
Q 2881 22 2623 -34 
Q 2366 -91 2075 -91 
Q 1284 -91 818 406 
Q 353 903 353 1747 
Q 353 2603 823 3093 
Q 1294 3584 2113 3584 
Q 2378 3584 2631 3529 
Q 2884 3475 3122 3366 
z
" id="DejaVuSans-63" transform="scale(0.015625)"/>
       <path d="M 1959 3097 
Q 1497 3097 1228 2736 
Q 959 2375 959 1747 
Q 959 1119 1226 758 
Q 1494 397 1959 397 
Q 2419 397 2687 759 
Q 2956 1122 2956 1747 
Q 2956 2369 2687 2733 
Q 2419 3097 1959 3097 
z
M 1959 3584 
Q 2709 3584 3137 3096 
Q 3566 2609 3566 1747 
Q 3566 888 3137 398 
Q 2709 -91 1959 -91 
Q 1206 -91 779 398 
Q 353 888 353 1747 
Q 353 2609 779 3096 
Q 1206 3584 1959 3584 
z
" id="DejaVuSans-6f" transform="scale(0.015625)"/>
       <path d="M 3513 2113 
L 3513 0 
L 2938 0 
L 2938 2094 
Q 2938 2591 2744 2837 
Q 2550 3084 2163 3084 
Q 1697 3084 1428 2787 
Q 1159 2491 1159 1978 
L 1159 0 
L 581 0 
L 581 3500 
L 1159 3500 
L 1159 2956 
Q 1366 3272 1645 3428 
Q 1925 3584 2291 3584 
Q 2894 3584 3203 3211 
Q 3513 2838 3513 2113 
z
" id="DejaVuSans-6e" transform="scale(0.015625)"/>
       <path d="M 2906 2969 
L 2906 4863 
L 3481 4863 
L 3481 0 
L 2906 0 
L 2906 525 
Q 2725 213 2448 61 
Q 2172 -91 1784 -91 
Q 1150 -91 751 415 
Q 353 922 353 1747 
Q 353 2572 751 3078 
Q 1150 3584 1784 3584 
Q 2172 3584 2448 3432 
Q 2725 3281 2906 2969 
z
M 947 1747 
Q 947 1113 1208 752 
Q 1469 391 1925 391 
Q 2381 391 2643 752 
Q 2906 1113 2906 1747 
Q 2906 2381 2643 2742 
Q 2381 3103 1925 3103 
Q 1469 3103 1208 2742 
Q 947 2381 947 1747 
z
" id="DejaVuSans-64" transform="scale(0.015625)"/>
       <path d="M 2834 3397 
L 2834 2853 
Q 2591 2978 2328 3040 
Q 2066 3103 1784 3103 
Q 1356 3103 1142 2972 
Q 928 2841 928 2578 
Q 928 2378 1081 2264 
Q 1234 2150 1697 2047 
L 1894 2003 
Q 2506 1872 2764 1633 
Q 3022 1394 3022 966 
Q 3022 478 2636 193 
Q 2250 -91 1575 -91 
Q 1294 -91 989 -36 
Q 684 19 347 128 
L 347 722 
Q 666 556 975 473 
Q 1284 391 1588 391 
Q 1994 391 2212 530 
Q 2431 669 2431 922 
Q 2431 1156 2273 1281 
Q 2116 1406 1581 1522 
L 1381 1569 
Q 847 1681 609 1914 
Q 372 2147 372 2553 
Q 372 3047 722 3315 
Q 1072 3584 1716 3584 
Q 2034 3584 2315 3537 
Q 2597 3491 2834 3397 
z
" id="DejaVuSans-73" transform="scale(0.015625)"/>
       <path d="M 1947 4863 
L 1947 -844 
L 622 -844 
L 622 -397 
L 1369 -397 
L 1369 4416 
L 622 4416 
L 622 4863 
L 1947 4863 
z
" id="DejaVuSans-5d" transform="scale(0.015625)"/>
      </defs>
      <use xlink:href="#DejaVuSans-54"/>
      <use x="57.958984" xlink:href="#DejaVuSans-69"/>
      <use x="85.742188" xlink:href="#DejaVuSans-6d"/>
      <use x="183.154297" xlink:href="#DejaVuSans-65"/>
      <use x="244.677734" xlink:href="#DejaVuSans-20"/>
      <use x="276.464844" xlink:href="#DejaVuSans-5b"/>
      <use x="315.478516" xlink:href="#DejaVuSans-53"/>
      <use x="378.955078" xlink:href="#DejaVuSans-65"/>
      <use x="440.478516" xlink:href="#DejaVuSans-63"/>
      <use x="495.458984" xlink:href="#DejaVuSans-6f"/>
      <use x="556.640625" xlink:href="#DejaVuSans-6e"/>
      <use x="620.019531" xlink:href="#DejaVuSans-64"/>
      <use x="683.496094" xlink:href="#DejaVuSans-73"/>
      <use x="735.595703" xlink:href="#DejaVuSans-5d"/>
     </g>
    </g>
   </g>
   <g id="matplotlib.axis_2">
    <g id="ytick_1">
     <g id="line2d_9">
      <defs>
       <path d="M 0 0 
L -3.5 0 
" id="m5385fd09be" style="stroke:#000000;stroke-width:0.8;"/>
      </defs>
      <g>
       <use style="stroke:#000000;stroke-width:0.8;" x="72" xlink:href="#m5385fd09be" y="281.238551"/>
      </g>
     </g>
     <g id="text_10">
      <!-- 0.0 -->
      <g transform="translate(42.735625 286.557457)scale(0.14 -0.14)">
       <use xlink:href="#DejaVuSans-30"/>
       <use x="63.623047" xlink:href="#DejaVuSans-2e"/>
       <use x="95.410156" xlink:href="#DejaVuSans-30"/>
      </g>
     </g>
    </g>
    <g id="ytick_2">
     <g id="line2d_10">
      <g>
       <use style="stroke:#000000;stroke-width:0.8;" x="72" xlink:href="#m5385fd09be" y="230.448372"/>
      </g>
     </g>
     <g id="text_11">
      <!-- 0.5 -->
      <g transform="translate(42.735625 235.767279)scale(0.14 -0.14)">
       <use xlink:href="#DejaVuSans-30"/>
       <use x="63.623047" xlink:href="#DejaVuSans-2e"/>
       <use x="95.410156" xlink:href="#DejaVuSans-35"/>
      </g>
     </g>
    </g>
    <g id="ytick_3">
     <g id="line2d_11">
      <g>
       <use style="stroke:#000000;stroke-width:0.8;" x="72" xlink:href="#m5385fd09be" y="179.658194"/>
      </g>
     </g>
     <g id="text_12">
      <!-- 1.0 -->
      <g transform="translate(42.735625 184.9771)scale(0.14 -0.14)">
       <use xlink:href="#DejaVuSans-31"/>
       <use x="63.623047" xlink:href="#DejaVuSans-2e"/>
       <use x="95.410156" xlink:href="#DejaVuSans-30"/>
      </g>
     </g>
    </g>
    <g id="ytick_4">
     <g id="line2d_12">
      <g>
       <use style="stroke:#000000;stroke-width:0.8;" x="72" xlink:href="#m5385fd09be" y="128.868016"/>
      </g>
     </g>
     <g id="text_13">
      <!-- 1.5 -->
      <g transform="translate(42.735625 134.186922)scale(0.14 -0.14)">
       <use xlink:href="#DejaVuSans-31"/>
       <use x="63.623047" xlink:href="#DejaVuSans-2e"/>
       <use x="95.410156" xlink:href="#DejaVuSans-35"/>
      </g>
     </g>
    </g>
    <g id="ytick_5">
     <g id="line2d_13">
      <g>
       <use style="stroke:#000000;stroke-width:0.8;" x="72" xlink:href="#m5385fd09be" y="78.077838"/>
      </g>
     </g>
     <g id="text_14">
      <!-- 2.0 -->
      <g transform="translate(42.735625 83.396744)scale(0.14 -0.14)">
       <use xlink:href="#DejaVuSans-32"/>
       <use x="63.623047" xlink:href="#DejaVuSans-2e"/>
       <use x="95.410156" xlink:href="#DejaVuSans-30"/>
      </g>
     </g>
    </g>
    <g id="text_15">
     <!-- Speed [mm/s] -->
     <g transform="translate(35.408125 238.11375)rotate(-90)scale(0.16 -0.16)">
      <defs>
       <path d="M 1159 525 
L 1159 -1331 
L 581 -1331 
L 581 3500 
L 1159 3500 
L 1159 2969 
Q 1341 3281 1617 3432 
Q 1894 3584 2278 3584 
Q 2916 3584 3314 3078 
Q 3713 2572 3713 1747 
Q 3713 922 3314 415 
Q 2916 -91 2278 -91 
Q 1894 -91 1617 61 
Q 1341 213 1159 525 
z
M 3116 1747 
Q 3116 2381 2855 2742 
Q 2594 3103 2138 3103 
Q 1681 3103 1420 2742 
Q 1159 2381 1159 1747 
Q 1159 1113 1420 752 
Q 1681 391 2138 391 
Q 2594 391 2855 752 
Q 3116 1113 3116 1747 
z
" id="DejaVuSans-70" transform="scale(0.015625)"/>
       <path d="M 1625 4666 
L 2156 4666 
L 531 -594 
L 0 -594 
L 1625 4666 
z
" id="DejaVuSans-2f" transform="scale(0.015625)"/>
      </defs>
      <use xlink:href="#DejaVuSans-53"/>
      <use x="63.476562" xlink:href="#DejaVuSans-70"/>
      <use x="126.953125" xlink:href="#DejaVuSans-65"/>
      <use x="188.476562" xlink:href="#DejaVuSans-65"/>
      <use x="250" xlink:href="#DejaVuSans-64"/>
      <use x="313.476562" xlink:href="#DejaVuSans-20"/>
      <use x="345.263672" xlink:href="#DejaVuSans-5b"/>
      <use x="384.277344" xlink:href="#DejaVuSans-6d"/>
      <use x="481.689453" xlink:href="#DejaVuSans-6d"/>
      <use x="579.101562" xlink:href="#DejaVuSans-2f"/>
      <use x="612.792969" xlink:href="#DejaVuSans-73"/>
      <use x="664.892578" xlink:href="#DejaVuSans-5d"/>
     </g>
    </g>
   </g>
   <g id="line2d_14">
    <path clip-path="url(#p2abc535221)" d="M 72 158.538778 
L 518.4 158.538778 
" style="fill:none;stroke:#000000;stroke-dasharray:5.55,2.4;stroke-dashoffset:0;stroke-width:1.5;"/>
   </g>
   <g id="line2d_15">
    <path clip-path="url(#p2abc535221)" d="M 72 279.51295 
L 99.9 279.620082 
L 100.426415 278.819748 
L 100.95283 277.794531 
L 101.479245 277.946318 
L 102.00566 278.244438 
L 102.532075 278.768026 
L 104.111321 280.825664 
L 104.637736 280.667095 
L 105.164151 281.763814 
L 105.690566 266.342931 
L 106.216981 262.875651 
L 106.743396 283.779589 
L 107.269811 298.164594 
L 107.796226 306.136844 
L 108.322642 307.8 
L 108.849057 305.653288 
L 109.375472 296.738115 
L 110.428302 271.033834 
L 111.481132 234.034351 
L 114.639623 111.329932 
L 115.692453 83.01484 
L 116.218868 70.178214 
L 117.271698 59.67799 
L 117.798113 56.705187 
L 118.324528 55.8 
L 118.850943 58.442873 
L 119.903774 75.139941 
L 120.956604 98.392717 
L 123.062264 148.549204 
L 124.115094 167.230664 
L 124.641509 172.126916 
L 125.167925 173.007699 
L 125.69434 169.527325 
L 126.220755 160.720839 
L 126.74717 147.454805 
L 127.273585 127.670731 
L 127.8 132.927868 
L 128.326415 149.709884 
L 128.85283 150.902637 
L 129.379245 151.562573 
L 129.90566 152.025615 
L 130.432075 153.211992 
L 130.958491 152.055019 
L 131.484906 153.376217 
L 132.011321 155.029283 
L 132.537736 156.077656 
L 133.064151 155.735566 
L 133.590566 155.038438 
L 134.116981 156.082676 
L 134.643396 156.045872 
L 135.169811 157.529359 
L 135.696226 157.412984 
L 136.222642 155.66308 
L 136.749057 158.108957 
L 137.275472 158.192486 
L 137.801887 158.136702 
L 138.328302 161.32066 
L 138.854717 160.265497 
L 139.907547 157.630581 
L 140.433962 157.543476 
L 140.960377 158.9913 
L 141.486792 158.702079 
L 142.013208 158.793696 
L 142.539623 158.557373 
L 143.066038 159.73644 
L 143.592453 159.14831 
L 144.118868 157.284632 
L 144.645283 157.791528 
L 145.171698 158.121855 
L 145.698113 158.295945 
L 146.750943 158.282092 
L 147.277358 158.462454 
L 147.803774 158.268802 
L 148.330189 159.383062 
L 148.856604 158.50274 
L 149.383019 156.643087 
L 149.909434 157.578297 
L 150.435849 158.139928 
L 150.962264 158.434385 
L 151.488679 158.477986 
L 152.015094 159.894794 
L 152.541509 159.781815 
L 153.067925 158.254377 
L 153.59434 158.703332 
L 154.120755 159.892489 
L 154.64717 158.790671 
L 155.173585 158.171971 
L 155.7 160.356543 
L 156.226415 159.90595 
L 156.75283 159.63521 
L 157.279245 160.003573 
L 157.80566 158.222371 
L 158.332075 157.604361 
L 158.858491 158.560797 
L 159.384906 158.694532 
L 159.911321 159.040023 
L 160.437736 158.789983 
L 160.964151 160.259663 
L 161.490566 159.773931 
L 162.016981 157.57566 
L 162.543396 158.495265 
L 163.069811 158.581373 
L 164.122642 159.258696 
L 164.649057 159.902166 
L 165.175472 158.593105 
L 165.701887 157.811725 
L 166.228302 159.080347 
L 167.281132 158.709821 
L 167.807547 158.982211 
L 168.333962 159.024841 
L 168.860377 159.266248 
L 169.386792 159.069505 
L 169.913208 160.883352 
L 170.439623 157.731096 
L 170.966038 156.549073 
L 171.492453 158.457916 
L 172.018868 156.122008 
L 172.545283 157.224763 
L 173.071698 157.753411 
L 173.598113 159.813069 
L 174.124528 158.760741 
L 174.650943 156.863157 
L 175.177358 157.833029 
L 175.703774 157.653529 
L 177.283019 160.36153 
L 177.809434 160.091103 
L 178.335849 160.243279 
L 178.862264 161.199302 
L 179.388679 158.954719 
L 179.915094 160.331228 
L 180.441509 160.934576 
L 180.967925 158.349257 
L 181.49434 159.421921 
L 182.020755 159.679025 
L 182.54717 160.601394 
L 183.073585 158.666221 
L 183.6 158.421788 
L 184.126415 158.872757 
L 184.65283 157.916527 
L 185.179245 158.101113 
L 185.70566 156.925812 
L 186.758491 157.551899 
L 188.337736 157.788128 
L 188.864151 159.244261 
L 189.390566 158.714996 
L 189.916981 157.083508 
L 190.443396 158.638243 
L 190.969811 158.903802 
L 191.496226 161.721151 
L 192.022642 159.198823 
L 192.549057 158.700098 
L 193.075472 159.156598 
L 193.601887 157.099775 
L 194.128302 158.757845 
L 194.654717 158.053308 
L 195.181132 159.669439 
L 195.707547 159.231487 
L 196.233962 158.989939 
L 196.760377 159.636641 
L 197.286792 158.254378 
L 197.813208 158.244623 
L 198.339623 158.987161 
L 198.866038 158.993171 
L 199.392453 159.564865 
L 200.971698 160.268904 
L 201.498113 160.95664 
L 202.024528 158.9468 
L 202.550943 157.460656 
L 203.077358 159.194528 
L 203.603774 158.948838 
L 204.130189 158.968816 
L 204.656604 158.785714 
L 205.183019 160.001638 
L 205.709434 158.05404 
L 206.235849 157.010498 
L 206.762264 158.031619 
L 207.288679 155.754203 
L 207.815094 155.602869 
L 208.341509 156.601777 
L 208.867925 156.848425 
L 209.39434 158.891371 
L 209.920755 158.049646 
L 210.44717 158.748711 
L 210.973585 157.465066 
L 211.5 155.085227 
L 212.026415 158.360102 
L 212.55283 159.046333 
L 213.079245 160.827403 
L 213.60566 159.679202 
L 214.132075 160.926591 
L 214.658491 161.719367 
L 215.184906 159.188585 
L 215.711321 158.787879 
L 216.237736 158.801046 
L 216.764151 160.054788 
L 217.816981 160.883518 
L 218.343396 160.733495 
L 218.869811 158.878142 
L 219.396226 158.769227 
L 219.922642 159.366731 
L 220.449057 158.457698 
L 220.975472 158.708104 
L 222.028302 158.214031 
L 222.554717 158.034399 
L 223.081132 157.730577 
L 223.607547 157.631091 
L 224.133962 157.132344 
L 226.239623 157.881344 
L 226.766038 158.780849 
L 227.292453 158.7956 
L 227.818868 157.892836 
L 228.345283 157.460652 
L 228.871698 155.955013 
L 229.398113 156.442417 
L 229.924528 158.558976 
L 230.450943 158.648262 
L 230.977358 161.396425 
L 231.503774 158.99737 
L 232.030189 158.849658 
L 232.556604 158.535562 
L 233.083019 155.519656 
L 233.609434 158.671066 
L 234.135849 159.177988 
L 234.662264 159.884086 
L 235.188679 160.325811 
L 235.715094 161.860971 
L 236.241509 160.866616 
L 236.767925 158.429007 
L 237.29434 159.302591 
L 237.820755 159.829786 
L 238.34717 159.706918 
L 238.873585 159.930594 
L 240.45283 159.391476 
L 240.979245 158.845176 
L 241.50566 158.69849 
L 242.032075 158.343676 
L 242.558491 158.417542 
L 245.716981 157.127072 
L 246.243396 157.221168 
L 247.296226 157.948073 
L 247.822642 159.206042 
L 248.349057 158.441584 
L 248.875472 157.432082 
L 249.401887 156.789574 
L 249.928302 156.422935 
L 250.454717 157.823952 
L 250.981132 158.393626 
L 251.507547 159.309716 
L 252.033962 159.515015 
L 252.560377 161.941276 
L 253.086792 160.234667 
L 253.613208 157.899526 
L 254.139623 157.969065 
L 254.666038 157.479861 
L 255.192453 159.342363 
L 255.718868 159.430453 
L 257.298113 160.199086 
L 257.824528 159.08918 
L 258.350943 158.701608 
L 258.877358 159.353235 
L 259.403774 159.385813 
L 259.930189 158.917129 
L 260.456604 160.286592 
L 260.983019 159.310614 
L 261.509434 156.919251 
L 262.035849 157.652874 
L 262.562264 157.624911 
L 263.088679 158.121717 
L 263.615094 158.042032 
L 264.141509 159.001446 
L 264.667925 159.238741 
L 265.19434 157.562063 
L 265.720755 157.525899 
L 266.24717 157.902452 
L 266.773585 158.134816 
L 267.826415 158.967918 
L 268.35283 159.480427 
L 268.879245 160.16303 
L 269.40566 160.172927 
L 269.932075 158.141347 
L 270.458491 157.937547 
L 270.984906 159.131012 
L 271.511321 158.860069 
L 272.037736 159.362217 
L 272.564151 159.166092 
L 273.090566 160.394489 
L 273.616981 160.366044 
L 274.669811 157.563968 
L 275.196226 156.540428 
L 275.722642 157.922533 
L 276.249057 158.129118 
L 276.775472 158.732344 
L 277.301887 158.548808 
L 277.828302 157.677313 
L 279.407547 158.329829 
L 279.933962 158.833244 
L 280.460377 158.984904 
L 281.513208 159.536737 
L 282.039623 160.034364 
L 282.566038 158.229453 
L 283.092453 157.316505 
L 283.618868 159.152149 
L 284.145283 159.019583 
L 285.198113 159.34736 
L 285.724528 159.722735 
L 286.250943 158.626452 
L 286.777358 157.253171 
L 287.303774 157.887633 
L 287.830189 158.110469 
L 288.356604 157.950528 
L 288.883019 158.152534 
L 289.409434 158.070791 
L 289.935849 157.86323 
L 290.462264 158.193276 
L 290.988679 157.911728 
L 291.515094 157.795994 
L 293.09434 158.690556 
L 293.620755 158.705945 
L 294.14717 159.018532 
L 294.673585 159.879355 
L 295.726415 157.332799 
L 296.25283 158.5212 
L 296.779245 158.917149 
L 297.832075 158.791211 
L 298.358491 159.285099 
L 298.884906 158.48632 
L 299.411321 158.093225 
L 299.937736 158.670229 
L 300.990566 158.755033 
L 301.516981 158.479194 
L 302.569811 158.67184 
L 303.096226 158.69334 
L 303.622642 158.278984 
L 304.149057 159.538324 
L 304.675472 159.559165 
L 305.201887 157.605676 
L 305.728302 157.603989 
L 306.254717 158.127213 
L 306.781132 158.398242 
L 307.307547 158.404822 
L 307.833962 159.206171 
L 308.360377 159.256828 
L 308.886792 158.585267 
L 310.466038 159.207397 
L 310.992453 159.314444 
L 311.518868 158.875929 
L 312.045283 160.624289 
L 312.571698 160.025813 
L 313.098113 157.710687 
L 313.624528 158.390421 
L 314.677358 158.809981 
L 315.203774 158.793997 
L 316.256604 159.18061 
L 317.309434 158.906047 
L 317.835849 158.948056 
L 318.888679 158.702923 
L 319.415094 158.58171 
L 319.941509 158.706595 
L 320.467925 158.547407 
L 320.99434 158.219391 
L 322.04717 158.294646 
L 323.1 158.094451 
L 323.626415 158.424698 
L 324.15283 158.572899 
L 324.679245 158.491515 
L 325.20566 158.684413 
L 325.732075 159.421001 
L 326.258491 158.270717 
L 326.784906 156.839686 
L 327.311321 157.8154 
L 327.837736 158.294389 
L 328.890566 158.132525 
L 329.416981 158.632777 
L 329.943396 158.023141 
L 330.469811 157.787937 
L 330.996226 158.450443 
L 331.522642 158.476008 
L 332.575472 159.225663 
L 333.101887 159.442691 
L 333.628302 160.087141 
L 334.154717 159.394248 
L 334.681132 157.967156 
L 335.207547 157.586061 
L 335.733962 157.622589 
L 336.260377 158.124615 
L 337.313208 158.618778 
L 338.366038 158.794257 
L 340.998113 159.225639 
L 342.050943 159.058065 
L 343.103774 158.872374 
L 344.683019 158.886333 
L 345.209434 158.568717 
L 345.735849 159.303343 
L 346.262264 159.22114 
L 346.788679 157.511724 
L 347.315094 157.221305 
L 347.841509 157.765508 
L 349.420755 158.288022 
L 351 158.438884 
L 352.05283 158.784415 
L 353.10566 158.898045 
L 354.158491 159.319668 
L 354.684906 159.613935 
L 355.211321 159.76642 
L 355.737736 160.44851 
L 356.790566 157.520197 
L 357.316981 158.423684 
L 357.843396 158.484437 
L 359.949057 158.192921 
L 360.475472 159.077998 
L 361.528302 156.41533 
L 362.054717 157.32461 
L 364.160377 158.357135 
L 364.686792 158.494297 
L 366.792453 159.837992 
L 367.318868 160.544481 
L 367.845283 159.519803 
L 368.371698 157.884631 
L 368.898113 158.770733 
L 369.424528 159.288308 
L 369.950943 159.105613 
L 371.003774 158.91673 
L 371.530189 158.795499 
L 372.056604 158.299144 
L 372.583019 158.271702 
L 373.109434 158.462657 
L 373.635849 158.268063 
L 374.688679 158.069632 
L 375.215094 157.862934 
L 376.267925 157.880261 
L 377.84717 158.08739 
L 379.426415 158.278983 
L 379.95283 158.472157 
L 382.058491 159.821519 
L 382.584906 157.700567 
L 383.111321 157.531168 
L 383.637736 159.051655 
L 384.164151 158.75883 
L 384.690566 158.595488 
L 385.216981 159.736787 
L 385.743396 159.501947 
L 386.269811 157.423415 
L 386.796226 157.434948 
L 387.322642 158.11808 
L 387.849057 158.433712 
L 388.375472 158.48029 
L 388.901887 159.306551 
L 389.428302 158.980489 
L 389.954717 158.221154 
L 390.481132 158.694256 
L 391.533962 159.133038 
L 392.586792 159.318441 
L 393.113208 158.968974 
L 393.639623 159.035929 
L 394.166038 159.365179 
L 394.692453 159.306568 
L 395.218868 158.991602 
L 395.745283 160.118463 
L 396.271698 159.358961 
L 396.798113 157.467437 
L 397.850943 158.209948 
L 398.903774 158.434217 
L 399.430189 158.381704 
L 399.956604 158.212735 
L 400.483019 158.370775 
L 401.009434 158.222846 
L 401.535849 158.240525 
L 402.062264 158.39952 
L 402.588679 158.319928 
L 403.115094 158.360108 
L 403.641509 158.001025 
L 404.167925 158.114901 
L 404.69434 158.59554 
L 405.220755 158.745037 
L 405.74717 158.713963 
L 406.273585 160.055061 
L 406.8 160.184375 
L 407.326415 157.108716 
L 407.85283 156.400075 
L 408.379245 157.897093 
L 408.90566 158.342 
L 410.484906 158.960417 
L 411.011321 158.349394 
L 411.537736 157.921591 
L 412.064151 158.687947 
L 412.590566 158.584184 
L 413.116981 159.913461 
L 413.643396 158.999632 
L 414.169811 156.974001 
L 414.696226 157.924066 
L 415.222642 158.579565 
L 416.275472 159.326014 
L 416.801887 159.348064 
L 417.328302 160.133327 
L 417.854717 158.721083 
L 418.381132 157.874382 
L 418.907547 159.286272 
L 419.433962 158.961065 
L 419.960377 158.910319 
L 420.486792 158.716031 
L 421.013208 158.33578 
L 422.066038 158.546717 
L 424.171698 158.306804 
L 424.698113 157.896617 
L 425.224528 157.911438 
L 425.750943 158.358605 
L 426.277358 158.402415 
L 426.803774 158.61906 
L 427.330189 158.499306 
L 427.856604 159.15159 
L 428.383019 157.742121 
L 428.909434 156.951793 
L 429.435849 158.183113 
L 429.962264 158.682392 
L 430.488679 158.381209 
L 431.015094 157.474819 
L 431.541509 157.709498 
L 433.64717 159.320644 
L 434.173585 159.311246 
L 434.7 160.164051 
L 435.226415 158.269241 
L 435.75283 157.530568 
L 436.279245 159.270977 
L 436.80566 158.819952 
L 437.332075 158.875044 
L 438.384906 158.40472 
L 438.911321 158.687493 
L 439.964151 158.7156 
L 441.016981 158.404172 
L 441.543396 158.536441 
L 442.069811 158.373475 
L 442.596226 158.397589 
L 443.122642 158.54607 
L 444.175472 158.492233 
L 444.701887 158.111693 
L 445.228302 158.282129 
L 445.754717 158.25425 
L 446.281132 158.045056 
L 446.807547 158.449733 
L 447.333962 158.181907 
L 448.913208 158.295654 
L 449.439623 158.61523 
L 450.492453 158.874804 
L 451.018868 158.86102 
L 451.545283 159.09572 
L 452.071698 158.366586 
L 452.598113 157.856036 
L 453.124528 158.602144 
L 453.650943 158.628936 
L 454.177358 158.32473 
L 454.703774 158.550448 
L 456.283019 158.437781 
L 456.809434 159.73292 
L 457.335849 159.079637 
L 457.862264 157.110107 
L 458.388679 157.921716 
L 458.915094 158.170283 
L 459.441509 158.196366 
L 459.967925 158.615118 
L 463.126415 159.189621 
L 463.65283 158.937621 
L 464.179245 159.1642 
L 465.758491 158.911355 
L 466.284906 158.622043 
L 466.811321 158.908659 
L 467.337736 158.454313 
L 468.390566 158.429318 
L 468.916981 158.134246 
L 469.443396 158.35973 
L 470.496226 158.050447 
L 471.022642 158.170877 
L 471.549057 158.07025 
L 472.075472 158.090361 
L 472.601887 157.893741 
L 473.654717 158.079512 
L 474.181132 157.814457 
L 474.707547 158.091483 
L 475.760377 158.158405 
L 476.286792 158.682637 
L 476.813208 158.502646 
L 477.339623 158.949854 
L 477.866038 159.206338 
L 478.392453 159.968453 
L 478.918868 158.331041 
L 479.445283 157.18808 
L 479.971698 158.814668 
L 480.498113 158.636729 
L 481.550943 158.664003 
L 482.077358 158.452172 
L 483.130189 158.569189 
L 483.656604 158.301177 
L 484.183019 158.478111 
L 485.235849 158.343789 
L 485.762264 158.630772 
L 486.288679 158.272036 
L 486.815094 158.524754 
L 488.39434 158.555648 
L 488.920755 158.290613 
L 489.44717 158.599419 
L 489.973585 158.381675 
L 490.5 158.341963 
L 491.026415 158.476386 
L 491.55283 158.31546 
L 492.079245 158.528488 
L 492.60566 158.564188 
L 493.132075 158.42754 
L 493.658491 158.657845 
L 495.237736 158.57568 
L 495.764151 158.247999 
L 496.290566 158.712255 
L 496.816981 158.620167 
L 497.869811 158.607843 
L 498.396226 158.34102 
L 498.922642 158.684298 
L 499.449057 158.37707 
L 501.028302 158.277317 
L 501.554717 158.528204 
L 502.607547 158.376822 
L 503.133962 158.573947 
L 503.660377 158.520487 
L 504.186792 158.582288 
L 505.239623 158.18318 
L 505.766038 158.583919 
L 506.818868 158.575064 
L 507.871698 158.615542 
L 513.135849 157.979458 
L 514.188679 158.09285 
L 515.241509 158.410269 
L 516.29434 159.000764 
L 517.34717 159.941378 
L 518.4 161.31714 
L 518.4 161.31714 
" style="fill:none;stroke:#ff0000;stroke-linecap:square;stroke-width:2;"/>
   </g>
   <g id="patch_3">
    <path d="M 72 320.4 
L 72 43.2 
" style="fill:none;stroke:#000000;stroke-linecap:square;stroke-linejoin:miter;stroke-width:0.8;"/>
   </g>
   <g id="patch_4">
    <path d="M 518.4 320.4 
L 518.4 43.2 
" style="fill:none;stroke:#000000;stroke-linecap:square;stroke-linejoin:miter;stroke-width:0.8;"/>
   </g>
   <g id="patch_5">
    <path d="M 72 320.4 
L 518.4 320.4 
" style="fill:none;stroke:#000000;stroke-linecap:square;stroke-linejoin:miter;stroke-width:0.8;"/>
   </g>
   <g id="patch_6">
    <path d="M 72 43.2 
L 518.4 43.2 
" style="fill:none;stroke:#000000;stroke-linecap:square;stroke-linejoin:miter;stroke-width:0.8;"/>
   </g>
   <g id="text_16">
    <!-- Front Propogation Speed -->
    <g transform="translate(172.245312 37.2)scale(0.2 -0.2)">
     <defs>
      <path d="M 628 4666 
L 3309 4666 
L 3309 4134 
L 1259 4134 
L 1259 2759 
L 3109 2759 
L 3109 2228 
L 1259 2228 
L 1259 0 
L 628 0 
L 628 4666 
z
" id="DejaVuSans-46" transform="scale(0.015625)"/>
      <path d="M 2631 2963 
Q 2534 3019 2420 3045 
Q 2306 3072 2169 3072 
Q 1681 3072 1420 2755 
Q 1159 2438 1159 1844 
L 1159 0 
L 581 0 
L 581 3500 
L 1159 3500 
L 1159 2956 
Q 1341 3275 1631 3429 
Q 1922 3584 2338 3584 
Q 2397 3584 2469 3576 
Q 2541 3569 2628 3553 
L 2631 2963 
z
" id="DejaVuSans-72" transform="scale(0.015625)"/>
      <path d="M 1172 4494 
L 1172 3500 
L 2356 3500 
L 2356 3053 
L 1172 3053 
L 1172 1153 
Q 1172 725 1289 603 
Q 1406 481 1766 481 
L 2356 481 
L 2356 0 
L 1766 0 
Q 1100 0 847 248 
Q 594 497 594 1153 
L 594 3053 
L 172 3053 
L 172 3500 
L 594 3500 
L 594 4494 
L 1172 4494 
z
" id="DejaVuSans-74" transform="scale(0.015625)"/>
      <path d="M 1259 4147 
L 1259 2394 
L 2053 2394 
Q 2494 2394 2734 2622 
Q 2975 2850 2975 3272 
Q 2975 3691 2734 3919 
Q 2494 4147 2053 4147 
L 1259 4147 
z
M 628 4666 
L 2053 4666 
Q 2838 4666 3239 4311 
Q 3641 3956 3641 3272 
Q 3641 2581 3239 2228 
Q 2838 1875 2053 1875 
L 1259 1875 
L 1259 0 
L 628 0 
L 628 4666 
z
" id="DejaVuSans-50" transform="scale(0.015625)"/>
      <path d="M 2906 1791 
Q 2906 2416 2648 2759 
Q 2391 3103 1925 3103 
Q 1463 3103 1205 2759 
Q 947 2416 947 1791 
Q 947 1169 1205 825 
Q 1463 481 1925 481 
Q 2391 481 2648 825 
Q 2906 1169 2906 1791 
z
M 3481 434 
Q 3481 -459 3084 -895 
Q 2688 -1331 1869 -1331 
Q 1566 -1331 1297 -1286 
Q 1028 -1241 775 -1147 
L 775 -588 
Q 1028 -725 1275 -790 
Q 1522 -856 1778 -856 
Q 2344 -856 2625 -561 
Q 2906 -266 2906 331 
L 2906 616 
Q 2728 306 2450 153 
Q 2172 0 1784 0 
Q 1141 0 747 490 
Q 353 981 353 1791 
Q 353 2603 747 3093 
Q 1141 3584 1784 3584 
Q 2172 3584 2450 3431 
Q 2728 3278 2906 2969 
L 2906 3500 
L 3481 3500 
L 3481 434 
z
" id="DejaVuSans-67" transform="scale(0.015625)"/>
      <path d="M 2194 1759 
Q 1497 1759 1228 1600 
Q 959 1441 959 1056 
Q 959 750 1161 570 
Q 1363 391 1709 391 
Q 2188 391 2477 730 
Q 2766 1069 2766 1631 
L 2766 1759 
L 2194 1759 
z
M 3341 1997 
L 3341 0 
L 2766 0 
L 2766 531 
Q 2569 213 2275 61 
Q 1981 -91 1556 -91 
Q 1019 -91 701 211 
Q 384 513 384 1019 
Q 384 1609 779 1909 
Q 1175 2209 1959 2209 
L 2766 2209 
L 2766 2266 
Q 2766 2663 2505 2880 
Q 2244 3097 1772 3097 
Q 1472 3097 1187 3025 
Q 903 2953 641 2809 
L 641 3341 
Q 956 3463 1253 3523 
Q 1550 3584 1831 3584 
Q 2591 3584 2966 3190 
Q 3341 2797 3341 1997 
z
" id="DejaVuSans-61" transform="scale(0.015625)"/>
     </defs>
     <use xlink:href="#DejaVuSans-46"/>
     <use x="50.269531" xlink:href="#DejaVuSans-72"/>
     <use x="89.132812" xlink:href="#DejaVuSans-6f"/>
     <use x="150.314453" xlink:href="#DejaVuSans-6e"/>
     <use x="213.693359" xlink:href="#DejaVuSans-74"/>
     <use x="252.902344" xlink:href="#DejaVuSans-20"/>
     <use x="284.689453" xlink:href="#DejaVuSans-50"/>
     <use x="343.242188" xlink:href="#DejaVuSans-72"/>
     <use x="382.105469" xlink:href="#DejaVuSans-6f"/>
     <use x="443.287109" xlink:href="#DejaVuSans-70"/>
     <use x="506.763672" xlink:href="#DejaVuSans-6f"/>
     <use x="567.945312" xlink:href="#DejaVuSans-67"/>
     <use x="631.421875" xlink:href="#DejaVuSans-61"/>
     <use x="692.701172" xlink:href="#DejaVuSans-74"/>
     <use x="731.910156" xlink:href="#DejaVuSans-69"/>
     <use x="759.693359" xlink:href="#DejaVuSans-6f"/>
     <use x="820.875" xlink:href="#DejaVuSans-6e"/>
     <use x="884.253906" xlink:href="#DejaVuSans-20"/>
     <use x="916.041016" xlink:href="#DejaVuSans-53"/>
     <use x="979.517578" xlink:href="#DejaVuSans-70"/>
     <use x="1042.994141" xlink:href="#DejaVuSans-65"/>
     <use x="1104.517578" xlink:href="#DejaVuSans-65"/>
     <use x="1166.041016" xlink:href="#DejaVuSans-64"/>
    </g>
   </g>
   <g id="legend_1">
    <g id="patch_7">
     <path d="M 325.967812 111.175687 
L 508.6 111.175687 
Q 511.4 111.175687 511.4 108.375687 
L 511.4 53 
Q 511.4 50.2 508.6 50.2 
L 325.967812 50.2 
Q 323.167812 50.2 323.167812 53 
L 323.167812 108.375687 
Q 323.167812 111.175687 325.967812 111.175687 
z
" style="fill:#ffffff;opacity:0.8;stroke:#cccccc;stroke-linejoin:miter;"/>
    </g>
    <g id="line2d_16">
     <path d="M 328.767812 61.537812 
L 356.767812 61.537812 
" style="fill:none;stroke:#ff0000;stroke-linecap:square;stroke-width:2;"/>
    </g>
    <g id="line2d_17"/>
    <g id="text_17">
     <!-- Front speed -->
     <g transform="translate(367.967812 66.437812)scale(0.14 -0.14)">
      <use xlink:href="#DejaVuSans-46"/>
      <use x="50.269531" xlink:href="#DejaVuSans-72"/>
      <use x="89.132812" xlink:href="#DejaVuSans-6f"/>
      <use x="150.314453" xlink:href="#DejaVuSans-6e"/>
      <use x="213.693359" xlink:href="#DejaVuSans-74"/>
      <use x="252.902344" xlink:href="#DejaVuSans-20"/>
      <use x="284.689453" xlink:href="#DejaVuSans-73"/>
      <use x="336.789062" xlink:href="#DejaVuSans-70"/>
      <use x="400.265625" xlink:href="#DejaVuSans-65"/>
      <use x="461.789062" xlink:href="#DejaVuSans-65"/>
      <use x="523.3125" xlink:href="#DejaVuSans-64"/>
     </g>
    </g>
    <g id="line2d_18">
     <path d="M 328.767812 91.381437 
L 356.767812 91.381437 
" style="fill:none;stroke:#000000;stroke-dasharray:5.55,2.4;stroke-dashoffset:0;stroke-width:1.5;"/>
    </g>
    <g id="line2d_19"/>
    <g id="text_18">
     <!-- Steady state -->
     <g transform="translate(367.967812 86.987187)scale(0.14 -0.14)">
      <defs>
       <path d="M 2059 -325 
Q 1816 -950 1584 -1140 
Q 1353 -1331 966 -1331 
L 506 -1331 
L 506 -850 
L 844 -850 
Q 1081 -850 1212 -737 
Q 1344 -625 1503 -206 
L 1606 56 
L 191 3500 
L 800 3500 
L 1894 763 
L 2988 3500 
L 3597 3500 
L 2059 -325 
z
" id="DejaVuSans-79" transform="scale(0.015625)"/>
      </defs>
      <use xlink:href="#DejaVuSans-53"/>
      <use x="63.476562" xlink:href="#DejaVuSans-74"/>
      <use x="102.685547" xlink:href="#DejaVuSans-65"/>
      <use x="164.208984" xlink:href="#DejaVuSans-61"/>
      <use x="225.488281" xlink:href="#DejaVuSans-64"/>
      <use x="288.964844" xlink:href="#DejaVuSans-79"/>
      <use x="348.144531" xlink:href="#DejaVuSans-20"/>
      <use x="379.931641" xlink:href="#DejaVuSans-73"/>
      <use x="432.03125" xlink:href="#DejaVuSans-74"/>
      <use x="471.240234" xlink:href="#DejaVuSans-61"/>
      <use x="532.519531" xlink:href="#DejaVuSans-74"/>
      <use x="571.728516" xlink:href="#DejaVuSans-65"/>
     </g>
     <!-- speed = 1.21 mm/s -->
     <g transform="translate(367.967812 102.664125)scale(0.14 -0.14)">
      <defs>
       <path d="M 678 2906 
L 4684 2906 
L 4684 2381 
L 678 2381 
L 678 2906 
z
M 678 1631 
L 4684 1631 
L 4684 1100 
L 678 1100 
L 678 1631 
z
" id="DejaVuSans-3d" transform="scale(0.015625)"/>
      </defs>
      <use xlink:href="#DejaVuSans-73"/>
      <use x="52.099609" xlink:href="#DejaVuSans-70"/>
      <use x="115.576172" xlink:href="#DejaVuSans-65"/>
      <use x="177.099609" xlink:href="#DejaVuSans-65"/>
      <use x="238.623047" xlink:href="#DejaVuSans-64"/>
      <use x="302.099609" xlink:href="#DejaVuSans-20"/>
      <use x="333.886719" xlink:href="#DejaVuSans-3d"/>
      <use x="417.675781" xlink:href="#DejaVuSans-20"/>
      <use x="449.462891" xlink:href="#DejaVuSans-31"/>
      <use x="513.085938" xlink:href="#DejaVuSans-2e"/>
      <use x="544.873047" xlink:href="#DejaVuSans-32"/>
      <use x="608.496094" xlink:href="#DejaVuSans-31"/>
      <use x="672.119141" xlink:href="#DejaVuSans-20"/>
      <use x="703.90625" xlink:href="#DejaVuSans-6d"/>
      <use x="801.318359" xlink:href="#DejaVuSans-6d"/>
      <use x="898.730469" xlink:href="#DejaVuSans-2f"/>
      <use x="932.421875" xlink:href="#DejaVuSans-73"/>
     </g>
    </g>
   </g>
  </g>
 </g>
 <defs>
  <clipPath id="p2abc535221">
   <rect height="277.2" width="446.4" x="72" y="43.2"/>
  </clipPath>
 </defs>
</svg>
