<?xml version="1.0" encoding="utf-8" standalone="no"?>
<!DOCTYPE svg PUBLIC "-//W3C//DTD SVG 1.1//EN"
  "http://www.w3.org/Graphics/SVG/1.1/DTD/svg11.dtd">
<svg height="360pt" version="1.1" viewBox="0 0 576 360" width="576pt" xmlns="http://www.w3.org/2000/svg" xmlns:xlink="http://www.w3.org/1999/xlink">
 <metadata>
  <rdf:RDF xmlns:cc="http://creativecommons.org/ns#" xmlns:dc="http://purl.org/dc/elements/1.1/" xmlns:rdf="http://www.w3.org/1999/02/22-rdf-syntax-ns#">
   <cc:Work>
    <dc:type rdf:resource="http://purl.org/dc/dcmitype/StillImage"/>
    <dc:date>2022-06-30T14:32:30.055768</dc:date>
    <dc:format>image/svg+xml</dc:format>
    <dc:creator>
     <cc:Agent>
      <dc:title>Matplotlib v3.4.3, https://matplotlib.org/</dc:title>
     </cc:Agent>
    </dc:creator>
   </cc:Work>
  </rdf:RDF>
 </metadata>
 <defs>
  <style type="text/css">*{stroke-linecap:butt;stroke-linejoin:round;}</style>
 </defs>
 <g id="figure_1">
  <g id="patch_1">
   <path d="M 0 360 
L 576 360 
L 576 0 
L 0 0 
z
" style="fill:#ffffff;"/>
  </g>
  <g id="axes_1">
   <g id="patch_2">
    <path d="M 72 320.4 
L 518.4 320.4 
L 518.4 43.2 
L 72 43.2 
z
" style="fill:#ffffff;"/>
   </g>
   <g id="PolyCollection_1">
    <defs>
     <path d="M 72 -180.04374 
L 72 -183.529815 
L 72.52891 -183.529815 
L 73.05782 -183.529815 
L 73.58673 -183.529815 
L 74.11564 -183.529815 
L 74.64455 -183.529815 
L 75.17346 -183.529815 
L 75.70237 -183.529815 
L 76.23128 -183.529815 
L 76.76019 -183.529815 
L 77.2891 -183.529815 
L 77.818009 -183.529815 
L 78.346919 -183.529815 
L 78.875829 -183.529815 
L 79.404739 -183.529815 
L 79.933649 -183.529815 
L 80.462559 -183.529815 
L 80.991469 -183.529815 
L 81.520379 -183.529815 
L 82.049289 -183.529815 
L 82.578199 -183.529815 
L 83.107109 -183.529815 
L 83.636019 -183.529815 
L 84.164929 -183.529815 
L 84.693839 -183.529815 
L 85.222749 -183.529815 
L 85.751659 -183.529815 
L 86.280569 -183.529815 
L 86.809479 -183.529815 
L 87.338389 -183.529815 
L 87.867299 -183.529815 
L 88.396209 -183.529815 
L 88.925118 -183.529815 
L 89.454028 -183.529815 
L 89.982938 -183.529815 
L 90.511848 -183.529815 
L 91.040758 -183.529815 
L 91.569668 -183.529815 
L 92.098578 -183.529815 
L 92.627488 -183.529815 
L 93.156398 -183.529815 
L 93.685308 -183.529815 
L 94.214218 -183.529815 
L 94.743128 -183.529815 
L 95.272038 -183.529815 
L 95.800948 -183.529815 
L 96.329858 -183.529815 
L 96.858768 -183.529815 
L 97.387678 -183.529815 
L 97.916588 -183.529815 
L 98.445498 -183.529815 
L 98.974408 -183.529815 
L 99.503318 -183.529815 
L 100.032227 -183.529815 
L 100.561137 -183.529815 
L 101.090047 -183.529815 
L 101.618957 -183.529815 
L 102.147867 -183.529815 
L 102.676777 -183.529815 
L 103.205687 -183.529815 
L 103.734597 -183.529815 
L 104.263507 -183.529815 
L 104.792417 -183.529815 
L 105.321327 -183.529815 
L 105.850237 -183.529815 
L 106.379147 -183.529815 
L 106.908057 -183.529815 
L 107.436967 -183.529815 
L 107.965877 -183.529815 
L 108.494787 -183.529815 
L 109.023697 -183.529815 
L 109.552607 -183.529815 
L 110.081517 -183.529815 
L 110.610427 -183.529815 
L 111.139336 -183.529815 
L 111.668246 -183.529815 
L 112.197156 -183.529815 
L 112.726066 -183.529815 
L 113.254976 -183.529815 
L 113.783886 -183.529815 
L 114.312796 -183.529815 
L 114.841706 -183.529815 
L 115.370616 -183.529815 
L 115.899526 -183.529815 
L 116.428436 -183.529815 
L 116.957346 -183.529815 
L 117.486256 -183.529815 
L 118.015166 -183.529815 
L 118.544076 -183.529815 
L 119.072986 -183.529815 
L 119.601896 -183.529815 
L 120.130806 -183.529815 
L 120.659716 -183.529815 
L 121.188626 -183.529815 
L 121.717536 -183.529815 
L 122.246445 -183.529815 
L 122.775355 -183.529815 
L 123.304265 -183.529815 
L 123.833175 -183.529815 
L 124.362085 -183.529815 
L 124.890995 -183.529815 
L 125.419905 -183.529815 
L 125.948815 -183.529815 
L 126.477725 -183.529815 
L 127.006635 -183.529815 
L 127.535545 -183.529815 
L 128.064455 -183.529815 
L 128.593365 -183.529815 
L 129.122275 -183.529815 
L 129.651185 -183.529815 
L 130.180095 -183.529815 
L 130.709005 -183.529815 
L 131.237915 -183.529815 
L 131.766825 -183.529815 
L 132.295735 -183.529815 
L 132.824645 -183.529815 
L 133.353555 -183.529815 
L 133.882464 -183.529815 
L 134.411374 -183.529815 
L 134.940284 -183.529815 
L 135.469194 -183.529815 
L 135.998104 -183.529815 
L 136.527014 -183.529815 
L 137.055924 -183.529815 
L 137.584834 -183.529815 
L 138.113744 -183.529815 
L 138.642654 -183.529815 
L 139.171564 -183.529815 
L 139.700474 -183.529815 
L 140.229384 -183.529815 
L 140.758294 -183.529815 
L 141.287204 -183.529815 
L 141.816114 -183.529815 
L 142.345024 -183.529815 
L 142.873934 -183.529815 
L 143.402844 -183.529815 
L 143.931754 -183.529815 
L 144.460664 -183.529815 
L 144.989573 -183.529815 
L 145.518483 -183.529815 
L 146.047393 -183.529815 
L 146.576303 -183.529815 
L 147.105213 -183.529815 
L 147.634123 -183.529815 
L 148.163033 -183.529815 
L 148.691943 -183.529815 
L 149.220853 -183.529815 
L 149.749763 -183.529815 
L 150.278673 -183.529815 
L 150.807583 -183.529815 
L 151.336493 -183.529815 
L 151.865403 -183.529815 
L 152.394313 -183.529815 
L 152.923223 -183.529815 
L 153.452133 -183.529815 
L 153.981043 -183.529815 
L 154.509953 -183.529815 
L 155.038863 -183.529815 
L 155.567773 -183.529815 
L 156.096682 -183.529815 
L 156.625592 -183.529815 
L 157.154502 -183.529815 
L 157.683412 -183.529815 
L 158.212322 -183.529815 
L 158.741232 -183.529815 
L 159.270142 -183.529815 
L 159.799052 -183.529815 
L 160.327962 -183.529815 
L 160.856872 -183.529815 
L 161.385782 -183.529815 
L 161.914692 -183.529815 
L 162.443602 -183.529815 
L 162.972512 -183.529815 
L 163.501422 -183.529815 
L 164.030332 -183.529815 
L 164.559242 -183.529815 
L 165.088152 -183.529815 
L 165.617062 -183.529815 
L 166.145972 -183.529815 
L 166.674882 -183.529815 
L 167.203791 -183.529815 
L 167.732701 -183.529815 
L 168.261611 -183.529815 
L 168.790521 -183.529815 
L 169.319431 -183.529815 
L 169.848341 -183.529815 
L 170.377251 -183.529815 
L 170.906161 -183.529815 
L 171.435071 -183.529815 
L 171.963981 -183.529815 
L 172.492891 -183.529815 
L 173.021801 -183.529815 
L 173.550711 -183.529815 
L 174.079621 -183.529815 
L 174.608531 -183.529815 
L 175.137441 -183.529815 
L 175.666351 -183.529815 
L 176.195261 -183.529815 
L 176.724171 -183.529815 
L 177.253081 -183.529815 
L 177.781991 -183.529815 
L 178.3109 -183.529815 
L 178.83981 -183.529815 
L 179.36872 -183.529815 
L 179.89763 -183.529815 
L 180.42654 -183.529815 
L 180.95545 -183.529815 
L 181.48436 -183.529815 
L 182.01327 -183.529815 
L 182.54218 -183.529815 
L 183.07109 -183.529815 
L 183.6 -183.529815 
L 184.12891 -183.529815 
L 184.65782 -183.529815 
L 185.18673 -183.529815 
L 185.71564 -183.529815 
L 186.24455 -183.529815 
L 186.77346 -183.529815 
L 187.30237 -183.529815 
L 187.83128 -183.529815 
L 188.36019 -183.529815 
L 188.8891 -183.529815 
L 189.418009 -183.529815 
L 189.946919 -183.529815 
L 190.475829 -183.529815 
L 191.004739 -183.529815 
L 191.533649 -183.529815 
L 192.062559 -183.529815 
L 192.591469 -183.529815 
L 193.120379 -183.529815 
L 193.649289 -183.529815 
L 194.178199 -183.529815 
L 194.707109 -183.529815 
L 195.236019 -183.529815 
L 195.764929 -183.529815 
L 196.293839 -183.529815 
L 196.822749 -183.529815 
L 197.351659 -183.529815 
L 197.880569 -183.529815 
L 198.409479 -183.529815 
L 198.938389 -183.529815 
L 199.467299 -183.529815 
L 199.996209 -183.529815 
L 200.525118 -183.529815 
L 201.054028 -183.529815 
L 201.582938 -183.529815 
L 202.111848 -183.529815 
L 202.640758 -183.529815 
L 203.169668 -183.529815 
L 203.698578 -183.529815 
L 204.227488 -183.529815 
L 204.756398 -183.529815 
L 205.285308 -183.529815 
L 205.814218 -183.529815 
L 206.343128 -183.529815 
L 206.872038 -183.529815 
L 207.400948 -183.529815 
L 207.929858 -183.529815 
L 208.458768 -183.529815 
L 208.987678 -183.529815 
L 209.516588 -183.529815 
L 210.045498 -183.529815 
L 210.574408 -183.529815 
L 211.103318 -183.529815 
L 211.632227 -183.529815 
L 212.161137 -183.529815 
L 212.690047 -183.529815 
L 213.218957 -183.529815 
L 213.747867 -183.529815 
L 214.276777 -183.529815 
L 214.805687 -183.529815 
L 215.334597 -183.529815 
L 215.863507 -183.529815 
L 216.392417 -183.529815 
L 216.921327 -183.529815 
L 217.450237 -183.529815 
L 217.979147 -183.529815 
L 218.508057 -183.529815 
L 219.036967 -183.529815 
L 219.565877 -183.529815 
L 220.094787 -183.529815 
L 220.623697 -183.529815 
L 221.152607 -183.529815 
L 221.681517 -183.529815 
L 222.210427 -183.529815 
L 222.739336 -183.529815 
L 223.268246 -183.529815 
L 223.797156 -183.529815 
L 224.326066 -183.529815 
L 224.854976 -183.529815 
L 225.383886 -183.529815 
L 225.912796 -183.529815 
L 226.441706 -183.529815 
L 226.970616 -183.529815 
L 227.499526 -183.529815 
L 228.028436 -183.529815 
L 228.557346 -183.529815 
L 229.086256 -183.529815 
L 229.615166 -183.529815 
L 230.144076 -183.529815 
L 230.672986 -183.529815 
L 231.201896 -183.529815 
L 231.730806 -183.529815 
L 232.259716 -183.529815 
L 232.788626 -183.529815 
L 233.317536 -183.529815 
L 233.846445 -183.529815 
L 234.375355 -183.529815 
L 234.904265 -183.529815 
L 235.433175 -183.529815 
L 235.962085 -183.529815 
L 236.490995 -183.529815 
L 237.019905 -183.529815 
L 237.548815 -183.529815 
L 238.077725 -183.529815 
L 238.606635 -183.529815 
L 239.135545 -183.529815 
L 239.664455 -183.529815 
L 240.193365 -183.529815 
L 240.722275 -183.529815 
L 241.251185 -183.529815 
L 241.780095 -183.529815 
L 242.309005 -183.529815 
L 242.837915 -183.529815 
L 243.366825 -183.529815 
L 243.895735 -183.529815 
L 244.424645 -183.529815 
L 244.953555 -183.529815 
L 245.482464 -183.529815 
L 246.011374 -183.529815 
L 246.540284 -183.529815 
L 247.069194 -183.529815 
L 247.598104 -183.529815 
L 248.127014 -183.529815 
L 248.655924 -183.529815 
L 249.184834 -183.529815 
L 249.713744 -183.529815 
L 250.242654 -183.529815 
L 250.771564 -183.529815 
L 251.300474 -183.529815 
L 251.829384 -183.529815 
L 252.358294 -183.529815 
L 252.887204 -183.529815 
L 253.416114 -183.529815 
L 253.945024 -183.529815 
L 254.473934 -183.529815 
L 255.002844 -183.529815 
L 255.531754 -183.529815 
L 256.060664 -183.529815 
L 256.589573 -183.529815 
L 257.118483 -183.529815 
L 257.647393 -183.529815 
L 258.176303 -183.529815 
L 258.705213 -183.529815 
L 259.234123 -183.529815 
L 259.763033 -183.529815 
L 260.291943 -183.529815 
L 260.820853 -183.529815 
L 261.349763 -183.529815 
L 261.878673 -183.529815 
L 262.407583 -183.529815 
L 262.936493 -183.529815 
L 263.465403 -183.529815 
L 263.994313 -183.529815 
L 264.523223 -183.529815 
L 265.052133 -183.529815 
L 265.581043 -183.529815 
L 266.109953 -183.529815 
L 266.638863 -183.529815 
L 267.167773 -183.529815 
L 267.696682 -183.529815 
L 268.225592 -183.529815 
L 268.754502 -183.529815 
L 269.283412 -183.529815 
L 269.812322 -183.529815 
L 270.341232 -183.529815 
L 270.870142 -183.529815 
L 271.399052 -183.529815 
L 271.927962 -183.529815 
L 272.456872 -183.529815 
L 272.985782 -183.529815 
L 273.514692 -183.529815 
L 274.043602 -183.529815 
L 274.572512 -183.529815 
L 275.101422 -183.529815 
L 275.630332 -183.529815 
L 276.159242 -183.529815 
L 276.688152 -183.529815 
L 277.217062 -183.529815 
L 277.745972 -183.529815 
L 278.274882 -183.529815 
L 278.803791 -183.529815 
L 279.332701 -183.529815 
L 279.861611 -183.529815 
L 280.390521 -183.529815 
L 280.919431 -183.529815 
L 281.448341 -183.529815 
L 281.977251 -183.529815 
L 282.506161 -183.529815 
L 283.035071 -183.529815 
L 283.563981 -183.529815 
L 284.092891 -183.529815 
L 284.621801 -183.529815 
L 285.150711 -183.529815 
L 285.679621 -183.529815 
L 286.208531 -183.529815 
L 286.737441 -183.529815 
L 287.266351 -183.529815 
L 287.795261 -183.529815 
L 288.324171 -183.529815 
L 288.853081 -183.529815 
L 289.381991 -183.529815 
L 289.9109 -183.529815 
L 290.43981 -183.529815 
L 290.96872 -183.529815 
L 291.49763 -183.529815 
L 292.02654 -183.529815 
L 292.55545 -183.529815 
L 293.08436 -183.529815 
L 293.61327 -183.529815 
L 294.14218 -183.529815 
L 294.67109 -183.529815 
L 295.2 -183.529815 
L 295.72891 -183.529815 
L 296.25782 -183.529815 
L 296.78673 -183.529815 
L 297.31564 -183.529815 
L 297.84455 -183.529815 
L 298.37346 -183.529815 
L 298.90237 -183.529815 
L 299.43128 -183.529815 
L 299.96019 -183.529815 
L 300.4891 -183.529815 
L 301.018009 -183.529815 
L 301.546919 -183.529815 
L 302.075829 -183.529815 
L 302.604739 -183.529815 
L 303.133649 -183.529815 
L 303.662559 -183.529815 
L 304.191469 -183.529815 
L 304.720379 -183.529815 
L 305.249289 -183.529815 
L 305.778199 -183.529815 
L 306.307109 -183.529815 
L 306.836019 -183.529815 
L 307.364929 -183.529815 
L 307.893839 -183.529815 
L 308.422749 -183.529815 
L 308.951659 -183.529815 
L 309.480569 -183.529815 
L 310.009479 -183.529815 
L 310.538389 -183.529815 
L 311.067299 -183.529815 
L 311.596209 -183.529815 
L 312.125118 -183.529815 
L 312.654028 -183.529815 
L 313.182938 -183.529815 
L 313.711848 -183.529815 
L 314.240758 -183.529815 
L 314.769668 -183.529815 
L 315.298578 -183.529815 
L 315.827488 -183.529815 
L 316.356398 -183.529815 
L 316.885308 -183.529815 
L 317.414218 -183.529815 
L 317.943128 -183.529815 
L 318.472038 -183.529815 
L 319.000948 -183.529815 
L 319.529858 -183.529815 
L 320.058768 -183.529815 
L 320.587678 -183.529815 
L 321.116588 -183.529815 
L 321.645498 -183.529815 
L 322.174408 -183.529815 
L 322.703318 -183.529815 
L 323.232227 -183.529815 
L 323.761137 -183.529815 
L 324.290047 -183.529815 
L 324.818957 -183.529815 
L 325.347867 -183.529815 
L 325.876777 -183.529815 
L 326.405687 -183.529815 
L 326.934597 -183.529815 
L 327.463507 -183.529815 
L 327.992417 -183.529815 
L 328.521327 -183.529815 
L 329.050237 -183.529815 
L 329.579147 -183.529815 
L 330.108057 -183.529815 
L 330.636967 -183.529815 
L 331.165877 -183.529815 
L 331.694787 -183.529815 
L 332.223697 -183.529815 
L 332.752607 -183.529815 
L 333.281517 -183.529815 
L 333.810427 -183.529815 
L 334.339336 -183.529815 
L 334.868246 -183.529815 
L 335.397156 -183.529815 
L 335.926066 -183.529815 
L 336.454976 -183.529815 
L 336.983886 -183.529815 
L 337.512796 -183.529815 
L 338.041706 -183.529815 
L 338.570616 -183.529815 
L 339.099526 -183.529815 
L 339.628436 -183.529815 
L 340.157346 -183.529815 
L 340.686256 -183.529815 
L 341.215166 -183.529815 
L 341.744076 -183.529815 
L 342.272986 -183.529815 
L 342.801896 -183.529815 
L 343.330806 -183.529815 
L 343.859716 -183.529815 
L 344.388626 -183.529815 
L 344.917536 -183.529815 
L 345.446445 -183.529815 
L 345.975355 -183.529815 
L 346.504265 -183.529815 
L 347.033175 -183.529815 
L 347.562085 -183.529815 
L 348.090995 -183.529815 
L 348.619905 -183.529815 
L 349.148815 -183.529815 
L 349.677725 -183.529815 
L 350.206635 -183.529815 
L 350.735545 -183.529815 
L 351.264455 -183.529815 
L 351.793365 -183.529815 
L 352.322275 -183.529815 
L 352.851185 -183.529815 
L 353.380095 -183.529815 
L 353.909005 -183.529815 
L 354.437915 -183.529815 
L 354.966825 -183.529815 
L 355.495735 -183.529815 
L 356.024645 -183.529815 
L 356.553555 -183.529815 
L 357.082464 -183.529815 
L 357.611374 -183.529815 
L 358.140284 -183.529815 
L 358.669194 -183.529815 
L 359.198104 -183.529815 
L 359.727014 -183.529815 
L 360.255924 -183.529815 
L 360.784834 -183.529815 
L 361.313744 -183.529815 
L 361.842654 -183.529815 
L 362.371564 -183.529815 
L 362.900474 -183.529815 
L 363.429384 -183.529815 
L 363.958294 -183.529815 
L 364.487204 -183.529815 
L 365.016114 -183.529815 
L 365.545024 -183.529815 
L 366.073934 -183.529815 
L 366.602844 -183.529815 
L 367.131754 -183.529815 
L 367.660664 -183.529815 
L 368.189573 -183.529815 
L 368.718483 -183.529815 
L 369.247393 -183.529815 
L 369.776303 -183.529815 
L 370.305213 -183.529815 
L 370.834123 -183.529815 
L 371.363033 -183.529815 
L 371.891943 -183.529815 
L 372.420853 -183.529815 
L 372.949763 -183.529815 
L 373.478673 -183.529815 
L 374.007583 -183.529815 
L 374.536493 -183.529815 
L 375.065403 -183.529815 
L 375.594313 -183.529815 
L 376.123223 -183.529815 
L 376.652133 -183.529815 
L 377.181043 -183.529815 
L 377.709953 -183.529815 
L 378.238863 -183.529815 
L 378.767773 -183.529815 
L 379.296682 -183.529815 
L 379.825592 -183.529815 
L 380.354502 -183.529815 
L 380.883412 -183.529815 
L 381.412322 -183.529815 
L 381.941232 -183.529815 
L 382.470142 -183.529815 
L 382.999052 -183.529815 
L 383.527962 -183.529815 
L 384.056872 -183.529815 
L 384.585782 -183.529815 
L 385.114692 -183.529815 
L 385.643602 -183.529815 
L 386.172512 -183.529815 
L 386.701422 -183.529815 
L 387.230332 -183.529815 
L 387.759242 -183.529815 
L 388.288152 -183.529815 
L 388.817062 -183.529815 
L 389.345972 -183.529815 
L 389.874882 -183.529815 
L 390.403791 -183.529815 
L 390.932701 -183.529815 
L 391.461611 -183.529815 
L 391.990521 -183.529815 
L 392.519431 -183.529815 
L 393.048341 -183.529815 
L 393.577251 -183.529815 
L 394.106161 -183.529815 
L 394.635071 -183.529815 
L 395.163981 -183.529815 
L 395.692891 -183.529815 
L 396.221801 -183.529815 
L 396.750711 -183.529815 
L 397.279621 -183.529815 
L 397.808531 -183.529815 
L 398.337441 -183.529815 
L 398.866351 -183.529815 
L 399.395261 -183.529815 
L 399.924171 -183.529815 
L 400.453081 -183.529815 
L 400.981991 -183.529815 
L 401.5109 -183.529815 
L 402.03981 -183.529815 
L 402.56872 -183.529815 
L 403.09763 -183.529815 
L 403.62654 -183.529815 
L 404.15545 -183.529815 
L 404.68436 -183.529815 
L 405.21327 -183.529815 
L 405.74218 -183.529815 
L 406.27109 -183.529815 
L 406.8 -183.529815 
L 407.32891 -183.529815 
L 407.85782 -183.529815 
L 408.38673 -183.529815 
L 408.91564 -183.529815 
L 409.44455 -183.529815 
L 409.97346 -183.529815 
L 410.50237 -183.529815 
L 411.03128 -183.529815 
L 411.56019 -183.529815 
L 412.0891 -183.529815 
L 412.618009 -183.529815 
L 413.146919 -183.529815 
L 413.675829 -183.529815 
L 414.204739 -183.529815 
L 414.733649 -183.529815 
L 415.262559 -183.529815 
L 415.791469 -183.529815 
L 416.320379 -183.529815 
L 416.849289 -183.529815 
L 417.378199 -183.529815 
L 417.907109 -183.529815 
L 418.436019 -183.529815 
L 418.964929 -183.529815 
L 419.493839 -183.529815 
L 420.022749 -183.529815 
L 420.551659 -183.529815 
L 421.080569 -183.529815 
L 421.609479 -183.529815 
L 422.138389 -183.529815 
L 422.667299 -183.529815 
L 423.196209 -183.529815 
L 423.725118 -183.529815 
L 424.254028 -183.529815 
L 424.782938 -183.529815 
L 425.311848 -183.529815 
L 425.840758 -183.529815 
L 426.369668 -183.529815 
L 426.898578 -183.529815 
L 427.427488 -183.529815 
L 427.956398 -183.529815 
L 428.485308 -183.529815 
L 429.014218 -183.529815 
L 429.543128 -183.529815 
L 430.072038 -183.529815 
L 430.600948 -183.529815 
L 431.129858 -183.529815 
L 431.658768 -183.529815 
L 432.187678 -183.529815 
L 432.716588 -183.529815 
L 433.245498 -183.529815 
L 433.774408 -183.529815 
L 434.303318 -183.529815 
L 434.832227 -183.529815 
L 435.361137 -183.529815 
L 435.890047 -183.529815 
L 436.418957 -183.529815 
L 436.947867 -183.529815 
L 437.476777 -183.529815 
L 438.005687 -183.529815 
L 438.534597 -183.529815 
L 439.063507 -183.529815 
L 439.592417 -183.529815 
L 440.121327 -183.529815 
L 440.650237 -183.529815 
L 441.179147 -183.529815 
L 441.708057 -183.529815 
L 442.236967 -183.529815 
L 442.765877 -183.529815 
L 443.294787 -183.529815 
L 443.823697 -183.529815 
L 444.352607 -183.529815 
L 444.881517 -183.529815 
L 445.410427 -183.529815 
L 445.939336 -183.529815 
L 446.468246 -183.529815 
L 446.997156 -183.529815 
L 447.526066 -183.529815 
L 448.054976 -183.529815 
L 448.583886 -183.529815 
L 449.112796 -183.529815 
L 449.641706 -183.529815 
L 450.170616 -183.529815 
L 450.699526 -183.529815 
L 451.228436 -183.529815 
L 451.757346 -183.529815 
L 452.286256 -183.529815 
L 452.815166 -183.529815 
L 453.344076 -183.529815 
L 453.872986 -183.529815 
L 454.401896 -183.529815 
L 454.930806 -183.529815 
L 455.459716 -183.529815 
L 455.988626 -183.529815 
L 456.517536 -183.529815 
L 457.046445 -183.529815 
L 457.575355 -183.529815 
L 458.104265 -183.529815 
L 458.633175 -183.529815 
L 459.162085 -183.529815 
L 459.690995 -183.529815 
L 460.219905 -183.529815 
L 460.748815 -183.529815 
L 461.277725 -183.529815 
L 461.806635 -183.529815 
L 462.335545 -183.529815 
L 462.864455 -183.529815 
L 463.393365 -183.529815 
L 463.922275 -183.529815 
L 464.451185 -183.529815 
L 464.980095 -183.529815 
L 465.509005 -183.529815 
L 466.037915 -183.529815 
L 466.566825 -183.529815 
L 467.095735 -183.529815 
L 467.624645 -183.529815 
L 468.153555 -183.529815 
L 468.682464 -183.529815 
L 469.211374 -183.529815 
L 469.740284 -183.529815 
L 470.269194 -183.529815 
L 470.798104 -183.529815 
L 471.327014 -183.529815 
L 471.855924 -183.529815 
L 472.384834 -183.529815 
L 472.913744 -183.529815 
L 473.442654 -183.529815 
L 473.971564 -183.529815 
L 474.500474 -183.529815 
L 475.029384 -183.529815 
L 475.558294 -183.529815 
L 476.087204 -183.529815 
L 476.616114 -183.529815 
L 477.145024 -183.529815 
L 477.673934 -183.529815 
L 478.202844 -183.529815 
L 478.731754 -183.529815 
L 479.260664 -183.529815 
L 479.789573 -183.529815 
L 480.318483 -183.529815 
L 480.847393 -183.529815 
L 481.376303 -183.529815 
L 481.905213 -183.529815 
L 482.434123 -183.529815 
L 482.963033 -183.529815 
L 483.491943 -183.529815 
L 484.020853 -183.529815 
L 484.549763 -183.529815 
L 485.078673 -183.529815 
L 485.607583 -183.529815 
L 486.136493 -183.529815 
L 486.665403 -183.529815 
L 487.194313 -183.529815 
L 487.723223 -183.529815 
L 488.252133 -183.529815 
L 488.781043 -183.529815 
L 489.309953 -183.529815 
L 489.838863 -183.529815 
L 490.367773 -183.529815 
L 490.896682 -183.529815 
L 491.425592 -183.529815 
L 491.954502 -183.529815 
L 492.483412 -183.529815 
L 493.012322 -183.529815 
L 493.541232 -183.529815 
L 494.070142 -183.529815 
L 494.599052 -183.529815 
L 495.127962 -183.529815 
L 495.656872 -183.529815 
L 496.185782 -183.529815 
L 496.714692 -183.529815 
L 497.243602 -183.529815 
L 497.772512 -183.529815 
L 498.301422 -183.529815 
L 498.830332 -183.529815 
L 499.359242 -183.529815 
L 499.888152 -183.529815 
L 500.417062 -183.529815 
L 500.945972 -183.529815 
L 501.474882 -183.529815 
L 502.003791 -183.529815 
L 502.532701 -183.529815 
L 503.061611 -183.529815 
L 503.590521 -183.529815 
L 504.119431 -183.529815 
L 504.648341 -183.529815 
L 505.177251 -183.529815 
L 505.706161 -183.529815 
L 506.235071 -183.529815 
L 506.763981 -183.529815 
L 507.292891 -183.529815 
L 507.821801 -183.529815 
L 508.350711 -183.529815 
L 508.879621 -183.529815 
L 509.408531 -183.529815 
L 509.937441 -183.529815 
L 510.466351 -183.529815 
L 510.995261 -183.529815 
L 511.524171 -183.529815 
L 512.053081 -183.529815 
L 512.581991 -183.529815 
L 513.1109 -183.529815 
L 513.63981 -183.529815 
L 514.16872 -183.529815 
L 514.69763 -183.529815 
L 515.22654 -183.529815 
L 515.75545 -183.529815 
L 516.28436 -183.529815 
L 516.81327 -183.529815 
L 517.34218 -183.529815 
L 517.87109 -183.529815 
L 518.4 -183.529815 
L 518.4 -180.04374 
L 518.4 -180.04374 
L 517.87109 -180.04374 
L 517.34218 -180.04374 
L 516.81327 -180.04374 
L 516.28436 -180.04374 
L 515.75545 -180.04374 
L 515.22654 -180.04374 
L 514.69763 -180.04374 
L 514.16872 -180.04374 
L 513.63981 -180.04374 
L 513.1109 -180.04374 
L 512.581991 -180.04374 
L 512.053081 -180.04374 
L 511.524171 -180.04374 
L 510.995261 -180.04374 
L 510.466351 -180.04374 
L 509.937441 -180.04374 
L 509.408531 -180.04374 
L 508.879621 -180.04374 
L 508.350711 -180.04374 
L 507.821801 -180.04374 
L 507.292891 -180.04374 
L 506.763981 -180.04374 
L 506.235071 -180.04374 
L 505.706161 -180.04374 
L 505.177251 -180.04374 
L 504.648341 -180.04374 
L 504.119431 -180.04374 
L 503.590521 -180.04374 
L 503.061611 -180.04374 
L 502.532701 -180.04374 
L 502.003791 -180.04374 
L 501.474882 -180.04374 
L 500.945972 -180.04374 
L 500.417062 -180.04374 
L 499.888152 -180.04374 
L 499.359242 -180.04374 
L 498.830332 -180.04374 
L 498.301422 -180.04374 
L 497.772512 -180.04374 
L 497.243602 -180.04374 
L 496.714692 -180.04374 
L 496.185782 -180.04374 
L 495.656872 -180.04374 
L 495.127962 -180.04374 
L 494.599052 -180.04374 
L 494.070142 -180.04374 
L 493.541232 -180.04374 
L 493.012322 -180.04374 
L 492.483412 -180.04374 
L 491.954502 -180.04374 
L 491.425592 -180.04374 
L 490.896682 -180.04374 
L 490.367773 -180.04374 
L 489.838863 -180.04374 
L 489.309953 -180.04374 
L 488.781043 -180.04374 
L 488.252133 -180.04374 
L 487.723223 -180.04374 
L 487.194313 -180.04374 
L 486.665403 -180.04374 
L 486.136493 -180.04374 
L 485.607583 -180.04374 
L 485.078673 -180.04374 
L 484.549763 -180.04374 
L 484.020853 -180.04374 
L 483.491943 -180.04374 
L 482.963033 -180.04374 
L 482.434123 -180.04374 
L 481.905213 -180.04374 
L 481.376303 -180.04374 
L 480.847393 -180.04374 
L 480.318483 -180.04374 
L 479.789573 -180.04374 
L 479.260664 -180.04374 
L 478.731754 -180.04374 
L 478.202844 -180.04374 
L 477.673934 -180.04374 
L 477.145024 -180.04374 
L 476.616114 -180.04374 
L 476.087204 -180.04374 
L 475.558294 -180.04374 
L 475.029384 -180.04374 
L 474.500474 -180.04374 
L 473.971564 -180.04374 
L 473.442654 -180.04374 
L 472.913744 -180.04374 
L 472.384834 -180.04374 
L 471.855924 -180.04374 
L 471.327014 -180.04374 
L 470.798104 -180.04374 
L 470.269194 -180.04374 
L 469.740284 -180.04374 
L 469.211374 -180.04374 
L 468.682464 -180.04374 
L 468.153555 -180.04374 
L 467.624645 -180.04374 
L 467.095735 -180.04374 
L 466.566825 -180.04374 
L 466.037915 -180.04374 
L 465.509005 -180.04374 
L 464.980095 -180.04374 
L 464.451185 -180.04374 
L 463.922275 -180.04374 
L 463.393365 -180.04374 
L 462.864455 -180.04374 
L 462.335545 -180.04374 
L 461.806635 -180.04374 
L 461.277725 -180.04374 
L 460.748815 -180.04374 
L 460.219905 -180.04374 
L 459.690995 -180.04374 
L 459.162085 -180.04374 
L 458.633175 -180.04374 
L 458.104265 -180.04374 
L 457.575355 -180.04374 
L 457.046445 -180.04374 
L 456.517536 -180.04374 
L 455.988626 -180.04374 
L 455.459716 -180.04374 
L 454.930806 -180.04374 
L 454.401896 -180.04374 
L 453.872986 -180.04374 
L 453.344076 -180.04374 
L 452.815166 -180.04374 
L 452.286256 -180.04374 
L 451.757346 -180.04374 
L 451.228436 -180.04374 
L 450.699526 -180.04374 
L 450.170616 -180.04374 
L 449.641706 -180.04374 
L 449.112796 -180.04374 
L 448.583886 -180.04374 
L 448.054976 -180.04374 
L 447.526066 -180.04374 
L 446.997156 -180.04374 
L 446.468246 -180.04374 
L 445.939336 -180.04374 
L 445.410427 -180.04374 
L 444.881517 -180.04374 
L 444.352607 -180.04374 
L 443.823697 -180.04374 
L 443.294787 -180.04374 
L 442.765877 -180.04374 
L 442.236967 -180.04374 
L 441.708057 -180.04374 
L 441.179147 -180.04374 
L 440.650237 -180.04374 
L 440.121327 -180.04374 
L 439.592417 -180.04374 
L 439.063507 -180.04374 
L 438.534597 -180.04374 
L 438.005687 -180.04374 
L 437.476777 -180.04374 
L 436.947867 -180.04374 
L 436.418957 -180.04374 
L 435.890047 -180.04374 
L 435.361137 -180.04374 
L 434.832227 -180.04374 
L 434.303318 -180.04374 
L 433.774408 -180.04374 
L 433.245498 -180.04374 
L 432.716588 -180.04374 
L 432.187678 -180.04374 
L 431.658768 -180.04374 
L 431.129858 -180.04374 
L 430.600948 -180.04374 
L 430.072038 -180.04374 
L 429.543128 -180.04374 
L 429.014218 -180.04374 
L 428.485308 -180.04374 
L 427.956398 -180.04374 
L 427.427488 -180.04374 
L 426.898578 -180.04374 
L 426.369668 -180.04374 
L 425.840758 -180.04374 
L 425.311848 -180.04374 
L 424.782938 -180.04374 
L 424.254028 -180.04374 
L 423.725118 -180.04374 
L 423.196209 -180.04374 
L 422.667299 -180.04374 
L 422.138389 -180.04374 
L 421.609479 -180.04374 
L 421.080569 -180.04374 
L 420.551659 -180.04374 
L 420.022749 -180.04374 
L 419.493839 -180.04374 
L 418.964929 -180.04374 
L 418.436019 -180.04374 
L 417.907109 -180.04374 
L 417.378199 -180.04374 
L 416.849289 -180.04374 
L 416.320379 -180.04374 
L 415.791469 -180.04374 
L 415.262559 -180.04374 
L 414.733649 -180.04374 
L 414.204739 -180.04374 
L 413.675829 -180.04374 
L 413.146919 -180.04374 
L 412.618009 -180.04374 
L 412.0891 -180.04374 
L 411.56019 -180.04374 
L 411.03128 -180.04374 
L 410.50237 -180.04374 
L 409.97346 -180.04374 
L 409.44455 -180.04374 
L 408.91564 -180.04374 
L 408.38673 -180.04374 
L 407.85782 -180.04374 
L 407.32891 -180.04374 
L 406.8 -180.04374 
L 406.27109 -180.04374 
L 405.74218 -180.04374 
L 405.21327 -180.04374 
L 404.68436 -180.04374 
L 404.15545 -180.04374 
L 403.62654 -180.04374 
L 403.09763 -180.04374 
L 402.56872 -180.04374 
L 402.03981 -180.04374 
L 401.5109 -180.04374 
L 400.981991 -180.04374 
L 400.453081 -180.04374 
L 399.924171 -180.04374 
L 399.395261 -180.04374 
L 398.866351 -180.04374 
L 398.337441 -180.04374 
L 397.808531 -180.04374 
L 397.279621 -180.04374 
L 396.750711 -180.04374 
L 396.221801 -180.04374 
L 395.692891 -180.04374 
L 395.163981 -180.04374 
L 394.635071 -180.04374 
L 394.106161 -180.04374 
L 393.577251 -180.04374 
L 393.048341 -180.04374 
L 392.519431 -180.04374 
L 391.990521 -180.04374 
L 391.461611 -180.04374 
L 390.932701 -180.04374 
L 390.403791 -180.04374 
L 389.874882 -180.04374 
L 389.345972 -180.04374 
L 388.817062 -180.04374 
L 388.288152 -180.04374 
L 387.759242 -180.04374 
L 387.230332 -180.04374 
L 386.701422 -180.04374 
L 386.172512 -180.04374 
L 385.643602 -180.04374 
L 385.114692 -180.04374 
L 384.585782 -180.04374 
L 384.056872 -180.04374 
L 383.527962 -180.04374 
L 382.999052 -180.04374 
L 382.470142 -180.04374 
L 381.941232 -180.04374 
L 381.412322 -180.04374 
L 380.883412 -180.04374 
L 380.354502 -180.04374 
L 379.825592 -180.04374 
L 379.296682 -180.04374 
L 378.767773 -180.04374 
L 378.238863 -180.04374 
L 377.709953 -180.04374 
L 377.181043 -180.04374 
L 376.652133 -180.04374 
L 376.123223 -180.04374 
L 375.594313 -180.04374 
L 375.065403 -180.04374 
L 374.536493 -180.04374 
L 374.007583 -180.04374 
L 373.478673 -180.04374 
L 372.949763 -180.04374 
L 372.420853 -180.04374 
L 371.891943 -180.04374 
L 371.363033 -180.04374 
L 370.834123 -180.04374 
L 370.305213 -180.04374 
L 369.776303 -180.04374 
L 369.247393 -180.04374 
L 368.718483 -180.04374 
L 368.189573 -180.04374 
L 367.660664 -180.04374 
L 367.131754 -180.04374 
L 366.602844 -180.04374 
L 366.073934 -180.04374 
L 365.545024 -180.04374 
L 365.016114 -180.04374 
L 364.487204 -180.04374 
L 363.958294 -180.04374 
L 363.429384 -180.04374 
L 362.900474 -180.04374 
L 362.371564 -180.04374 
L 361.842654 -180.04374 
L 361.313744 -180.04374 
L 360.784834 -180.04374 
L 360.255924 -180.04374 
L 359.727014 -180.04374 
L 359.198104 -180.04374 
L 358.669194 -180.04374 
L 358.140284 -180.04374 
L 357.611374 -180.04374 
L 357.082464 -180.04374 
L 356.553555 -180.04374 
L 356.024645 -180.04374 
L 355.495735 -180.04374 
L 354.966825 -180.04374 
L 354.437915 -180.04374 
L 353.909005 -180.04374 
L 353.380095 -180.04374 
L 352.851185 -180.04374 
L 352.322275 -180.04374 
L 351.793365 -180.04374 
L 351.264455 -180.04374 
L 350.735545 -180.04374 
L 350.206635 -180.04374 
L 349.677725 -180.04374 
L 349.148815 -180.04374 
L 348.619905 -180.04374 
L 348.090995 -180.04374 
L 347.562085 -180.04374 
L 347.033175 -180.04374 
L 346.504265 -180.04374 
L 345.975355 -180.04374 
L 345.446445 -180.04374 
L 344.917536 -180.04374 
L 344.388626 -180.04374 
L 343.859716 -180.04374 
L 343.330806 -180.04374 
L 342.801896 -180.04374 
L 342.272986 -180.04374 
L 341.744076 -180.04374 
L 341.215166 -180.04374 
L 340.686256 -180.04374 
L 340.157346 -180.04374 
L 339.628436 -180.04374 
L 339.099526 -180.04374 
L 338.570616 -180.04374 
L 338.041706 -180.04374 
L 337.512796 -180.04374 
L 336.983886 -180.04374 
L 336.454976 -180.04374 
L 335.926066 -180.04374 
L 335.397156 -180.04374 
L 334.868246 -180.04374 
L 334.339336 -180.04374 
L 333.810427 -180.04374 
L 333.281517 -180.04374 
L 332.752607 -180.04374 
L 332.223697 -180.04374 
L 331.694787 -180.04374 
L 331.165877 -180.04374 
L 330.636967 -180.04374 
L 330.108057 -180.04374 
L 329.579147 -180.04374 
L 329.050237 -180.04374 
L 328.521327 -180.04374 
L 327.992417 -180.04374 
L 327.463507 -180.04374 
L 326.934597 -180.04374 
L 326.405687 -180.04374 
L 325.876777 -180.04374 
L 325.347867 -180.04374 
L 324.818957 -180.04374 
L 324.290047 -180.04374 
L 323.761137 -180.04374 
L 323.232227 -180.04374 
L 322.703318 -180.04374 
L 322.174408 -180.04374 
L 321.645498 -180.04374 
L 321.116588 -180.04374 
L 320.587678 -180.04374 
L 320.058768 -180.04374 
L 319.529858 -180.04374 
L 319.000948 -180.04374 
L 318.472038 -180.04374 
L 317.943128 -180.04374 
L 317.414218 -180.04374 
L 316.885308 -180.04374 
L 316.356398 -180.04374 
L 315.827488 -180.04374 
L 315.298578 -180.04374 
L 314.769668 -180.04374 
L 314.240758 -180.04374 
L 313.711848 -180.04374 
L 313.182938 -180.04374 
L 312.654028 -180.04374 
L 312.125118 -180.04374 
L 311.596209 -180.04374 
L 311.067299 -180.04374 
L 310.538389 -180.04374 
L 310.009479 -180.04374 
L 309.480569 -180.04374 
L 308.951659 -180.04374 
L 308.422749 -180.04374 
L 307.893839 -180.04374 
L 307.364929 -180.04374 
L 306.836019 -180.04374 
L 306.307109 -180.04374 
L 305.778199 -180.04374 
L 305.249289 -180.04374 
L 304.720379 -180.04374 
L 304.191469 -180.04374 
L 303.662559 -180.04374 
L 303.133649 -180.04374 
L 302.604739 -180.04374 
L 302.075829 -180.04374 
L 301.546919 -180.04374 
L 301.018009 -180.04374 
L 300.4891 -180.04374 
L 299.96019 -180.04374 
L 299.43128 -180.04374 
L 298.90237 -180.04374 
L 298.37346 -180.04374 
L 297.84455 -180.04374 
L 297.31564 -180.04374 
L 296.78673 -180.04374 
L 296.25782 -180.04374 
L 295.72891 -180.04374 
L 295.2 -180.04374 
L 294.67109 -180.04374 
L 294.14218 -180.04374 
L 293.61327 -180.04374 
L 293.08436 -180.04374 
L 292.55545 -180.04374 
L 292.02654 -180.04374 
L 291.49763 -180.04374 
L 290.96872 -180.04374 
L 290.43981 -180.04374 
L 289.9109 -180.04374 
L 289.381991 -180.04374 
L 288.853081 -180.04374 
L 288.324171 -180.04374 
L 287.795261 -180.04374 
L 287.266351 -180.04374 
L 286.737441 -180.04374 
L 286.208531 -180.04374 
L 285.679621 -180.04374 
L 285.150711 -180.04374 
L 284.621801 -180.04374 
L 284.092891 -180.04374 
L 283.563981 -180.04374 
L 283.035071 -180.04374 
L 282.506161 -180.04374 
L 281.977251 -180.04374 
L 281.448341 -180.04374 
L 280.919431 -180.04374 
L 280.390521 -180.04374 
L 279.861611 -180.04374 
L 279.332701 -180.04374 
L 278.803791 -180.04374 
L 278.274882 -180.04374 
L 277.745972 -180.04374 
L 277.217062 -180.04374 
L 276.688152 -180.04374 
L 276.159242 -180.04374 
L 275.630332 -180.04374 
L 275.101422 -180.04374 
L 274.572512 -180.04374 
L 274.043602 -180.04374 
L 273.514692 -180.04374 
L 272.985782 -180.04374 
L 272.456872 -180.04374 
L 271.927962 -180.04374 
L 271.399052 -180.04374 
L 270.870142 -180.04374 
L 270.341232 -180.04374 
L 269.812322 -180.04374 
L 269.283412 -180.04374 
L 268.754502 -180.04374 
L 268.225592 -180.04374 
L 267.696682 -180.04374 
L 267.167773 -180.04374 
L 266.638863 -180.04374 
L 266.109953 -180.04374 
L 265.581043 -180.04374 
L 265.052133 -180.04374 
L 264.523223 -180.04374 
L 263.994313 -180.04374 
L 263.465403 -180.04374 
L 262.936493 -180.04374 
L 262.407583 -180.04374 
L 261.878673 -180.04374 
L 261.349763 -180.04374 
L 260.820853 -180.04374 
L 260.291943 -180.04374 
L 259.763033 -180.04374 
L 259.234123 -180.04374 
L 258.705213 -180.04374 
L 258.176303 -180.04374 
L 257.647393 -180.04374 
L 257.118483 -180.04374 
L 256.589573 -180.04374 
L 256.060664 -180.04374 
L 255.531754 -180.04374 
L 255.002844 -180.04374 
L 254.473934 -180.04374 
L 253.945024 -180.04374 
L 253.416114 -180.04374 
L 252.887204 -180.04374 
L 252.358294 -180.04374 
L 251.829384 -180.04374 
L 251.300474 -180.04374 
L 250.771564 -180.04374 
L 250.242654 -180.04374 
L 249.713744 -180.04374 
L 249.184834 -180.04374 
L 248.655924 -180.04374 
L 248.127014 -180.04374 
L 247.598104 -180.04374 
L 247.069194 -180.04374 
L 246.540284 -180.04374 
L 246.011374 -180.04374 
L 245.482464 -180.04374 
L 244.953555 -180.04374 
L 244.424645 -180.04374 
L 243.895735 -180.04374 
L 243.366825 -180.04374 
L 242.837915 -180.04374 
L 242.309005 -180.04374 
L 241.780095 -180.04374 
L 241.251185 -180.04374 
L 240.722275 -180.04374 
L 240.193365 -180.04374 
L 239.664455 -180.04374 
L 239.135545 -180.04374 
L 238.606635 -180.04374 
L 238.077725 -180.04374 
L 237.548815 -180.04374 
L 237.019905 -180.04374 
L 236.490995 -180.04374 
L 235.962085 -180.04374 
L 235.433175 -180.04374 
L 234.904265 -180.04374 
L 234.375355 -180.04374 
L 233.846445 -180.04374 
L 233.317536 -180.04374 
L 232.788626 -180.04374 
L 232.259716 -180.04374 
L 231.730806 -180.04374 
L 231.201896 -180.04374 
L 230.672986 -180.04374 
L 230.144076 -180.04374 
L 229.615166 -180.04374 
L 229.086256 -180.04374 
L 228.557346 -180.04374 
L 228.028436 -180.04374 
L 227.499526 -180.04374 
L 226.970616 -180.04374 
L 226.441706 -180.04374 
L 225.912796 -180.04374 
L 225.383886 -180.04374 
L 224.854976 -180.04374 
L 224.326066 -180.04374 
L 223.797156 -180.04374 
L 223.268246 -180.04374 
L 222.739336 -180.04374 
L 222.210427 -180.04374 
L 221.681517 -180.04374 
L 221.152607 -180.04374 
L 220.623697 -180.04374 
L 220.094787 -180.04374 
L 219.565877 -180.04374 
L 219.036967 -180.04374 
L 218.508057 -180.04374 
L 217.979147 -180.04374 
L 217.450237 -180.04374 
L 216.921327 -180.04374 
L 216.392417 -180.04374 
L 215.863507 -180.04374 
L 215.334597 -180.04374 
L 214.805687 -180.04374 
L 214.276777 -180.04374 
L 213.747867 -180.04374 
L 213.218957 -180.04374 
L 212.690047 -180.04374 
L 212.161137 -180.04374 
L 211.632227 -180.04374 
L 211.103318 -180.04374 
L 210.574408 -180.04374 
L 210.045498 -180.04374 
L 209.516588 -180.04374 
L 208.987678 -180.04374 
L 208.458768 -180.04374 
L 207.929858 -180.04374 
L 207.400948 -180.04374 
L 206.872038 -180.04374 
L 206.343128 -180.04374 
L 205.814218 -180.04374 
L 205.285308 -180.04374 
L 204.756398 -180.04374 
L 204.227488 -180.04374 
L 203.698578 -180.04374 
L 203.169668 -180.04374 
L 202.640758 -180.04374 
L 202.111848 -180.04374 
L 201.582938 -180.04374 
L 201.054028 -180.04374 
L 200.525118 -180.04374 
L 199.996209 -180.04374 
L 199.467299 -180.04374 
L 198.938389 -180.04374 
L 198.409479 -180.04374 
L 197.880569 -180.04374 
L 197.351659 -180.04374 
L 196.822749 -180.04374 
L 196.293839 -180.04374 
L 195.764929 -180.04374 
L 195.236019 -180.04374 
L 194.707109 -180.04374 
L 194.178199 -180.04374 
L 193.649289 -180.04374 
L 193.120379 -180.04374 
L 192.591469 -180.04374 
L 192.062559 -180.04374 
L 191.533649 -180.04374 
L 191.004739 -180.04374 
L 190.475829 -180.04374 
L 189.946919 -180.04374 
L 189.418009 -180.04374 
L 188.8891 -180.04374 
L 188.36019 -180.04374 
L 187.83128 -180.04374 
L 187.30237 -180.04374 
L 186.77346 -180.04374 
L 186.24455 -180.04374 
L 185.71564 -180.04374 
L 185.18673 -180.04374 
L 184.65782 -180.04374 
L 184.12891 -180.04374 
L 183.6 -180.04374 
L 183.07109 -180.04374 
L 182.54218 -180.04374 
L 182.01327 -180.04374 
L 181.48436 -180.04374 
L 180.95545 -180.04374 
L 180.42654 -180.04374 
L 179.89763 -180.04374 
L 179.36872 -180.04374 
L 178.83981 -180.04374 
L 178.3109 -180.04374 
L 177.781991 -180.04374 
L 177.253081 -180.04374 
L 176.724171 -180.04374 
L 176.195261 -180.04374 
L 175.666351 -180.04374 
L 175.137441 -180.04374 
L 174.608531 -180.04374 
L 174.079621 -180.04374 
L 173.550711 -180.04374 
L 173.021801 -180.04374 
L 172.492891 -180.04374 
L 171.963981 -180.04374 
L 171.435071 -180.04374 
L 170.906161 -180.04374 
L 170.377251 -180.04374 
L 169.848341 -180.04374 
L 169.319431 -180.04374 
L 168.790521 -180.04374 
L 168.261611 -180.04374 
L 167.732701 -180.04374 
L 167.203791 -180.04374 
L 166.674882 -180.04374 
L 166.145972 -180.04374 
L 165.617062 -180.04374 
L 165.088152 -180.04374 
L 164.559242 -180.04374 
L 164.030332 -180.04374 
L 163.501422 -180.04374 
L 162.972512 -180.04374 
L 162.443602 -180.04374 
L 161.914692 -180.04374 
L 161.385782 -180.04374 
L 160.856872 -180.04374 
L 160.327962 -180.04374 
L 159.799052 -180.04374 
L 159.270142 -180.04374 
L 158.741232 -180.04374 
L 158.212322 -180.04374 
L 157.683412 -180.04374 
L 157.154502 -180.04374 
L 156.625592 -180.04374 
L 156.096682 -180.04374 
L 155.567773 -180.04374 
L 155.038863 -180.04374 
L 154.509953 -180.04374 
L 153.981043 -180.04374 
L 153.452133 -180.04374 
L 152.923223 -180.04374 
L 152.394313 -180.04374 
L 151.865403 -180.04374 
L 151.336493 -180.04374 
L 150.807583 -180.04374 
L 150.278673 -180.04374 
L 149.749763 -180.04374 
L 149.220853 -180.04374 
L 148.691943 -180.04374 
L 148.163033 -180.04374 
L 147.634123 -180.04374 
L 147.105213 -180.04374 
L 146.576303 -180.04374 
L 146.047393 -180.04374 
L 145.518483 -180.04374 
L 144.989573 -180.04374 
L 144.460664 -180.04374 
L 143.931754 -180.04374 
L 143.402844 -180.04374 
L 142.873934 -180.04374 
L 142.345024 -180.04374 
L 141.816114 -180.04374 
L 141.287204 -180.04374 
L 140.758294 -180.04374 
L 140.229384 -180.04374 
L 139.700474 -180.04374 
L 139.171564 -180.04374 
L 138.642654 -180.04374 
L 138.113744 -180.04374 
L 137.584834 -180.04374 
L 137.055924 -180.04374 
L 136.527014 -180.04374 
L 135.998104 -180.04374 
L 135.469194 -180.04374 
L 134.940284 -180.04374 
L 134.411374 -180.04374 
L 133.882464 -180.04374 
L 133.353555 -180.04374 
L 132.824645 -180.04374 
L 132.295735 -180.04374 
L 131.766825 -180.04374 
L 131.237915 -180.04374 
L 130.709005 -180.04374 
L 130.180095 -180.04374 
L 129.651185 -180.04374 
L 129.122275 -180.04374 
L 128.593365 -180.04374 
L 128.064455 -180.04374 
L 127.535545 -180.04374 
L 127.006635 -180.04374 
L 126.477725 -180.04374 
L 125.948815 -180.04374 
L 125.419905 -180.04374 
L 124.890995 -180.04374 
L 124.362085 -180.04374 
L 123.833175 -180.04374 
L 123.304265 -180.04374 
L 122.775355 -180.04374 
L 122.246445 -180.04374 
L 121.717536 -180.04374 
L 121.188626 -180.04374 
L 120.659716 -180.04374 
L 120.130806 -180.04374 
L 119.601896 -180.04374 
L 119.072986 -180.04374 
L 118.544076 -180.04374 
L 118.015166 -180.04374 
L 117.486256 -180.04374 
L 116.957346 -180.04374 
L 116.428436 -180.04374 
L 115.899526 -180.04374 
L 115.370616 -180.04374 
L 114.841706 -180.04374 
L 114.312796 -180.04374 
L 113.783886 -180.04374 
L 113.254976 -180.04374 
L 112.726066 -180.04374 
L 112.197156 -180.04374 
L 111.668246 -180.04374 
L 111.139336 -180.04374 
L 110.610427 -180.04374 
L 110.081517 -180.04374 
L 109.552607 -180.04374 
L 109.023697 -180.04374 
L 108.494787 -180.04374 
L 107.965877 -180.04374 
L 107.436967 -180.04374 
L 106.908057 -180.04374 
L 106.379147 -180.04374 
L 105.850237 -180.04374 
L 105.321327 -180.04374 
L 104.792417 -180.04374 
L 104.263507 -180.04374 
L 103.734597 -180.04374 
L 103.205687 -180.04374 
L 102.676777 -180.04374 
L 102.147867 -180.04374 
L 101.618957 -180.04374 
L 101.090047 -180.04374 
L 100.561137 -180.04374 
L 100.032227 -180.04374 
L 99.503318 -180.04374 
L 98.974408 -180.04374 
L 98.445498 -180.04374 
L 97.916588 -180.04374 
L 97.387678 -180.04374 
L 96.858768 -180.04374 
L 96.329858 -180.04374 
L 95.800948 -180.04374 
L 95.272038 -180.04374 
L 94.743128 -180.04374 
L 94.214218 -180.04374 
L 93.685308 -180.04374 
L 93.156398 -180.04374 
L 92.627488 -180.04374 
L 92.098578 -180.04374 
L 91.569668 -180.04374 
L 91.040758 -180.04374 
L 90.511848 -180.04374 
L 89.982938 -180.04374 
L 89.454028 -180.04374 
L 88.925118 -180.04374 
L 88.396209 -180.04374 
L 87.867299 -180.04374 
L 87.338389 -180.04374 
L 86.809479 -180.04374 
L 86.280569 -180.04374 
L 85.751659 -180.04374 
L 85.222749 -180.04374 
L 84.693839 -180.04374 
L 84.164929 -180.04374 
L 83.636019 -180.04374 
L 83.107109 -180.04374 
L 82.578199 -180.04374 
L 82.049289 -180.04374 
L 81.520379 -180.04374 
L 80.991469 -180.04374 
L 80.462559 -180.04374 
L 79.933649 -180.04374 
L 79.404739 -180.04374 
L 78.875829 -180.04374 
L 78.346919 -180.04374 
L 77.818009 -180.04374 
L 77.2891 -180.04374 
L 76.76019 -180.04374 
L 76.23128 -180.04374 
L 75.70237 -180.04374 
L 75.17346 -180.04374 
L 74.64455 -180.04374 
L 74.11564 -180.04374 
L 73.58673 -180.04374 
L 73.05782 -180.04374 
L 72.52891 -180.04374 
L 72 -180.04374 
z
" id="m9c17a0b788"/>
    </defs>
    <g clip-path="url(#p84b23e2ce7)">
     <use style="fill-opacity:0.15;" x="0" xlink:href="#m9c17a0b788" y="360"/>
    </g>
   </g>
   <g id="matplotlib.axis_1">
    <g id="xtick_1">
     <g id="line2d_1">
      <defs>
       <path d="M 0 0 
L 0 3.5 
" id="mfb3d33d4fe" style="stroke:#000000;stroke-width:0.8;"/>
      </defs>
      <g>
       <use style="stroke:#000000;stroke-width:0.8;" x="72" xlink:href="#mfb3d33d4fe" y="320.4"/>
      </g>
     </g>
     <g id="text_1">
      <!-- 0.0 -->
      <g transform="translate(60.867812 338.037813)scale(0.14 -0.14)">
       <defs>
        <path d="M 2034 4250 
Q 1547 4250 1301 3770 
Q 1056 3291 1056 2328 
Q 1056 1369 1301 889 
Q 1547 409 2034 409 
Q 2525 409 2770 889 
Q 3016 1369 3016 2328 
Q 3016 3291 2770 3770 
Q 2525 4250 2034 4250 
z
M 2034 4750 
Q 2819 4750 3233 4129 
Q 3647 3509 3647 2328 
Q 3647 1150 3233 529 
Q 2819 -91 2034 -91 
Q 1250 -91 836 529 
Q 422 1150 422 2328 
Q 422 3509 836 4129 
Q 1250 4750 2034 4750 
z
" id="DejaVuSans-30" transform="scale(0.015625)"/>
        <path d="M 684 794 
L 1344 794 
L 1344 0 
L 684 0 
L 684 794 
z
" id="DejaVuSans-2e" transform="scale(0.015625)"/>
       </defs>
       <use xlink:href="#DejaVuSans-30"/>
       <use x="63.623047" xlink:href="#DejaVuSans-2e"/>
       <use x="95.410156" xlink:href="#DejaVuSans-30"/>
      </g>
     </g>
    </g>
    <g id="xtick_2">
     <g id="line2d_2">
      <g>
       <use style="stroke:#000000;stroke-width:0.8;" x="127.827914" xlink:href="#mfb3d33d4fe" y="320.4"/>
      </g>
     </g>
     <g id="text_2">
      <!-- 2.5 -->
      <g transform="translate(116.695726 338.037813)scale(0.14 -0.14)">
       <defs>
        <path d="M 1228 531 
L 3431 531 
L 3431 0 
L 469 0 
L 469 531 
Q 828 903 1448 1529 
Q 2069 2156 2228 2338 
Q 2531 2678 2651 2914 
Q 2772 3150 2772 3378 
Q 2772 3750 2511 3984 
Q 2250 4219 1831 4219 
Q 1534 4219 1204 4116 
Q 875 4013 500 3803 
L 500 4441 
Q 881 4594 1212 4672 
Q 1544 4750 1819 4750 
Q 2544 4750 2975 4387 
Q 3406 4025 3406 3419 
Q 3406 3131 3298 2873 
Q 3191 2616 2906 2266 
Q 2828 2175 2409 1742 
Q 1991 1309 1228 531 
z
" id="DejaVuSans-32" transform="scale(0.015625)"/>
        <path d="M 691 4666 
L 3169 4666 
L 3169 4134 
L 1269 4134 
L 1269 2991 
Q 1406 3038 1543 3061 
Q 1681 3084 1819 3084 
Q 2600 3084 3056 2656 
Q 3513 2228 3513 1497 
Q 3513 744 3044 326 
Q 2575 -91 1722 -91 
Q 1428 -91 1123 -41 
Q 819 9 494 109 
L 494 744 
Q 775 591 1075 516 
Q 1375 441 1709 441 
Q 2250 441 2565 725 
Q 2881 1009 2881 1497 
Q 2881 1984 2565 2268 
Q 2250 2553 1709 2553 
Q 1456 2553 1204 2497 
Q 953 2441 691 2322 
L 691 4666 
z
" id="DejaVuSans-35" transform="scale(0.015625)"/>
       </defs>
       <use xlink:href="#DejaVuSans-32"/>
       <use x="63.623047" xlink:href="#DejaVuSans-2e"/>
       <use x="95.410156" xlink:href="#DejaVuSans-35"/>
      </g>
     </g>
    </g>
    <g id="xtick_3">
     <g id="line2d_3">
      <g>
       <use style="stroke:#000000;stroke-width:0.8;" x="183.655828" xlink:href="#mfb3d33d4fe" y="320.4"/>
      </g>
     </g>
     <g id="text_3">
      <!-- 5.0 -->
      <g transform="translate(172.52364 338.037813)scale(0.14 -0.14)">
       <use xlink:href="#DejaVuSans-35"/>
       <use x="63.623047" xlink:href="#DejaVuSans-2e"/>
       <use x="95.410156" xlink:href="#DejaVuSans-30"/>
      </g>
     </g>
    </g>
    <g id="xtick_4">
     <g id="line2d_4">
      <g>
       <use style="stroke:#000000;stroke-width:0.8;" x="239.483742" xlink:href="#mfb3d33d4fe" y="320.4"/>
      </g>
     </g>
     <g id="text_4">
      <!-- 7.5 -->
      <g transform="translate(228.351554 338.037813)scale(0.14 -0.14)">
       <defs>
        <path d="M 525 4666 
L 3525 4666 
L 3525 4397 
L 1831 0 
L 1172 0 
L 2766 4134 
L 525 4134 
L 525 4666 
z
" id="DejaVuSans-37" transform="scale(0.015625)"/>
       </defs>
       <use xlink:href="#DejaVuSans-37"/>
       <use x="63.623047" xlink:href="#DejaVuSans-2e"/>
       <use x="95.410156" xlink:href="#DejaVuSans-35"/>
      </g>
     </g>
    </g>
    <g id="xtick_5">
     <g id="line2d_5">
      <g>
       <use style="stroke:#000000;stroke-width:0.8;" x="295.311656" xlink:href="#mfb3d33d4fe" y="320.4"/>
      </g>
     </g>
     <g id="text_5">
      <!-- 10.0 -->
      <g transform="translate(279.725718 338.037813)scale(0.14 -0.14)">
       <defs>
        <path d="M 794 531 
L 1825 531 
L 1825 4091 
L 703 3866 
L 703 4441 
L 1819 4666 
L 2450 4666 
L 2450 531 
L 3481 531 
L 3481 0 
L 794 0 
L 794 531 
z
" id="DejaVuSans-31" transform="scale(0.015625)"/>
       </defs>
       <use xlink:href="#DejaVuSans-31"/>
       <use x="63.623047" xlink:href="#DejaVuSans-30"/>
       <use x="127.246094" xlink:href="#DejaVuSans-2e"/>
       <use x="159.033203" xlink:href="#DejaVuSans-30"/>
      </g>
     </g>
    </g>
    <g id="xtick_6">
     <g id="line2d_6">
      <g>
       <use style="stroke:#000000;stroke-width:0.8;" x="351.13957" xlink:href="#mfb3d33d4fe" y="320.4"/>
      </g>
     </g>
     <g id="text_6">
      <!-- 12.5 -->
      <g transform="translate(335.553632 338.037813)scale(0.14 -0.14)">
       <use xlink:href="#DejaVuSans-31"/>
       <use x="63.623047" xlink:href="#DejaVuSans-32"/>
       <use x="127.246094" xlink:href="#DejaVuSans-2e"/>
       <use x="159.033203" xlink:href="#DejaVuSans-35"/>
      </g>
     </g>
    </g>
    <g id="xtick_7">
     <g id="line2d_7">
      <g>
       <use style="stroke:#000000;stroke-width:0.8;" x="406.967484" xlink:href="#mfb3d33d4fe" y="320.4"/>
      </g>
     </g>
     <g id="text_7">
      <!-- 15.0 -->
      <g transform="translate(391.381546 338.037813)scale(0.14 -0.14)">
       <use xlink:href="#DejaVuSans-31"/>
       <use x="63.623047" xlink:href="#DejaVuSans-35"/>
       <use x="127.246094" xlink:href="#DejaVuSans-2e"/>
       <use x="159.033203" xlink:href="#DejaVuSans-30"/>
      </g>
     </g>
    </g>
    <g id="xtick_8">
     <g id="line2d_8">
      <g>
       <use style="stroke:#000000;stroke-width:0.8;" x="462.795398" xlink:href="#mfb3d33d4fe" y="320.4"/>
      </g>
     </g>
     <g id="text_8">
      <!-- 17.5 -->
      <g transform="translate(447.20946 338.037813)scale(0.14 -0.14)">
       <use xlink:href="#DejaVuSans-31"/>
       <use x="63.623047" xlink:href="#DejaVuSans-37"/>
       <use x="127.246094" xlink:href="#DejaVuSans-2e"/>
       <use x="159.033203" xlink:href="#DejaVuSans-35"/>
      </g>
     </g>
    </g>
    <g id="text_9">
     <!-- Time [Seconds] -->
     <g transform="translate(233.23 357.106875)scale(0.16 -0.16)">
      <defs>
       <path d="M -19 4666 
L 3928 4666 
L 3928 4134 
L 2272 4134 
L 2272 0 
L 1638 0 
L 1638 4134 
L -19 4134 
L -19 4666 
z
" id="DejaVuSans-54" transform="scale(0.015625)"/>
       <path d="M 603 3500 
L 1178 3500 
L 1178 0 
L 603 0 
L 603 3500 
z
M 603 4863 
L 1178 4863 
L 1178 4134 
L 603 4134 
L 603 4863 
z
" id="DejaVuSans-69" transform="scale(0.015625)"/>
       <path d="M 3328 2828 
Q 3544 3216 3844 3400 
Q 4144 3584 4550 3584 
Q 5097 3584 5394 3201 
Q 5691 2819 5691 2113 
L 5691 0 
L 5113 0 
L 5113 2094 
Q 5113 2597 4934 2840 
Q 4756 3084 4391 3084 
Q 3944 3084 3684 2787 
Q 3425 2491 3425 1978 
L 3425 0 
L 2847 0 
L 2847 2094 
Q 2847 2600 2669 2842 
Q 2491 3084 2119 3084 
Q 1678 3084 1418 2786 
Q 1159 2488 1159 1978 
L 1159 0 
L 581 0 
L 581 3500 
L 1159 3500 
L 1159 2956 
Q 1356 3278 1631 3431 
Q 1906 3584 2284 3584 
Q 2666 3584 2933 3390 
Q 3200 3197 3328 2828 
z
" id="DejaVuSans-6d" transform="scale(0.015625)"/>
       <path d="M 3597 1894 
L 3597 1613 
L 953 1613 
Q 991 1019 1311 708 
Q 1631 397 2203 397 
Q 2534 397 2845 478 
Q 3156 559 3463 722 
L 3463 178 
Q 3153 47 2828 -22 
Q 2503 -91 2169 -91 
Q 1331 -91 842 396 
Q 353 884 353 1716 
Q 353 2575 817 3079 
Q 1281 3584 2069 3584 
Q 2775 3584 3186 3129 
Q 3597 2675 3597 1894 
z
M 3022 2063 
Q 3016 2534 2758 2815 
Q 2500 3097 2075 3097 
Q 1594 3097 1305 2825 
Q 1016 2553 972 2059 
L 3022 2063 
z
" id="DejaVuSans-65" transform="scale(0.015625)"/>
       <path id="DejaVuSans-20" transform="scale(0.015625)"/>
       <path d="M 550 4863 
L 1875 4863 
L 1875 4416 
L 1125 4416 
L 1125 -397 
L 1875 -397 
L 1875 -844 
L 550 -844 
L 550 4863 
z
" id="DejaVuSans-5b" transform="scale(0.015625)"/>
       <path d="M 3425 4513 
L 3425 3897 
Q 3066 4069 2747 4153 
Q 2428 4238 2131 4238 
Q 1616 4238 1336 4038 
Q 1056 3838 1056 3469 
Q 1056 3159 1242 3001 
Q 1428 2844 1947 2747 
L 2328 2669 
Q 3034 2534 3370 2195 
Q 3706 1856 3706 1288 
Q 3706 609 3251 259 
Q 2797 -91 1919 -91 
Q 1588 -91 1214 -16 
Q 841 59 441 206 
L 441 856 
Q 825 641 1194 531 
Q 1563 422 1919 422 
Q 2459 422 2753 634 
Q 3047 847 3047 1241 
Q 3047 1584 2836 1778 
Q 2625 1972 2144 2069 
L 1759 2144 
Q 1053 2284 737 2584 
Q 422 2884 422 3419 
Q 422 4038 858 4394 
Q 1294 4750 2059 4750 
Q 2388 4750 2728 4690 
Q 3069 4631 3425 4513 
z
" id="DejaVuSans-53" transform="scale(0.015625)"/>
       <path d="M 3122 3366 
L 3122 2828 
Q 2878 2963 2633 3030 
Q 2388 3097 2138 3097 
Q 1578 3097 1268 2742 
Q 959 2388 959 1747 
Q 959 1106 1268 751 
Q 1578 397 2138 397 
Q 2388 397 2633 464 
Q 2878 531 3122 666 
L 3122 134 
Q 2881 22 2623 -34 
Q 2366 -91 2075 -91 
Q 1284 -91 818 406 
Q 353 903 353 1747 
Q 353 2603 823 3093 
Q 1294 3584 2113 3584 
Q 2378 3584 2631 3529 
Q 2884 3475 3122 3366 
z
" id="DejaVuSans-63" transform="scale(0.015625)"/>
       <path d="M 1959 3097 
Q 1497 3097 1228 2736 
Q 959 2375 959 1747 
Q 959 1119 1226 758 
Q 1494 397 1959 397 
Q 2419 397 2687 759 
Q 2956 1122 2956 1747 
Q 2956 2369 2687 2733 
Q 2419 3097 1959 3097 
z
M 1959 3584 
Q 2709 3584 3137 3096 
Q 3566 2609 3566 1747 
Q 3566 888 3137 398 
Q 2709 -91 1959 -91 
Q 1206 -91 779 398 
Q 353 888 353 1747 
Q 353 2609 779 3096 
Q 1206 3584 1959 3584 
z
" id="DejaVuSans-6f" transform="scale(0.015625)"/>
       <path d="M 3513 2113 
L 3513 0 
L 2938 0 
L 2938 2094 
Q 2938 2591 2744 2837 
Q 2550 3084 2163 3084 
Q 1697 3084 1428 2787 
Q 1159 2491 1159 1978 
L 1159 0 
L 581 0 
L 581 3500 
L 1159 3500 
L 1159 2956 
Q 1366 3272 1645 3428 
Q 1925 3584 2291 3584 
Q 2894 3584 3203 3211 
Q 3513 2838 3513 2113 
z
" id="DejaVuSans-6e" transform="scale(0.015625)"/>
       <path d="M 2906 2969 
L 2906 4863 
L 3481 4863 
L 3481 0 
L 2906 0 
L 2906 525 
Q 2725 213 2448 61 
Q 2172 -91 1784 -91 
Q 1150 -91 751 415 
Q 353 922 353 1747 
Q 353 2572 751 3078 
Q 1150 3584 1784 3584 
Q 2172 3584 2448 3432 
Q 2725 3281 2906 2969 
z
M 947 1747 
Q 947 1113 1208 752 
Q 1469 391 1925 391 
Q 2381 391 2643 752 
Q 2906 1113 2906 1747 
Q 2906 2381 2643 2742 
Q 2381 3103 1925 3103 
Q 1469 3103 1208 2742 
Q 947 2381 947 1747 
z
" id="DejaVuSans-64" transform="scale(0.015625)"/>
       <path d="M 2834 3397 
L 2834 2853 
Q 2591 2978 2328 3040 
Q 2066 3103 1784 3103 
Q 1356 3103 1142 2972 
Q 928 2841 928 2578 
Q 928 2378 1081 2264 
Q 1234 2150 1697 2047 
L 1894 2003 
Q 2506 1872 2764 1633 
Q 3022 1394 3022 966 
Q 3022 478 2636 193 
Q 2250 -91 1575 -91 
Q 1294 -91 989 -36 
Q 684 19 347 128 
L 347 722 
Q 666 556 975 473 
Q 1284 391 1588 391 
Q 1994 391 2212 530 
Q 2431 669 2431 922 
Q 2431 1156 2273 1281 
Q 2116 1406 1581 1522 
L 1381 1569 
Q 847 1681 609 1914 
Q 372 2147 372 2553 
Q 372 3047 722 3315 
Q 1072 3584 1716 3584 
Q 2034 3584 2315 3537 
Q 2597 3491 2834 3397 
z
" id="DejaVuSans-73" transform="scale(0.015625)"/>
       <path d="M 1947 4863 
L 1947 -844 
L 622 -844 
L 622 -397 
L 1369 -397 
L 1369 4416 
L 622 4416 
L 622 4863 
L 1947 4863 
z
" id="DejaVuSans-5d" transform="scale(0.015625)"/>
      </defs>
      <use xlink:href="#DejaVuSans-54"/>
      <use x="57.958984" xlink:href="#DejaVuSans-69"/>
      <use x="85.742188" xlink:href="#DejaVuSans-6d"/>
      <use x="183.154297" xlink:href="#DejaVuSans-65"/>
      <use x="244.677734" xlink:href="#DejaVuSans-20"/>
      <use x="276.464844" xlink:href="#DejaVuSans-5b"/>
      <use x="315.478516" xlink:href="#DejaVuSans-53"/>
      <use x="378.955078" xlink:href="#DejaVuSans-65"/>
      <use x="440.478516" xlink:href="#DejaVuSans-63"/>
      <use x="495.458984" xlink:href="#DejaVuSans-6f"/>
      <use x="556.640625" xlink:href="#DejaVuSans-6e"/>
      <use x="620.019531" xlink:href="#DejaVuSans-64"/>
      <use x="683.496094" xlink:href="#DejaVuSans-73"/>
      <use x="735.595703" xlink:href="#DejaVuSans-5d"/>
     </g>
    </g>
   </g>
   <g id="matplotlib.axis_2">
    <g id="ytick_1">
     <g id="line2d_9">
      <defs>
       <path d="M 0 0 
L -3.5 0 
" id="m74c979ba71" style="stroke:#000000;stroke-width:0.8;"/>
      </defs>
      <g>
       <use style="stroke:#000000;stroke-width:0.8;" x="72" xlink:href="#m74c979ba71" y="280.036782"/>
      </g>
     </g>
     <g id="text_10">
      <!-- 0.0 -->
      <g transform="translate(42.735625 285.355688)scale(0.14 -0.14)">
       <use xlink:href="#DejaVuSans-30"/>
       <use x="63.623047" xlink:href="#DejaVuSans-2e"/>
       <use x="95.410156" xlink:href="#DejaVuSans-30"/>
      </g>
     </g>
    </g>
    <g id="ytick_2">
     <g id="line2d_10">
      <g>
       <use style="stroke:#000000;stroke-width:0.8;" x="72" xlink:href="#m74c979ba71" y="227.896307"/>
      </g>
     </g>
     <g id="text_11">
      <!-- 0.5 -->
      <g transform="translate(42.735625 233.215214)scale(0.14 -0.14)">
       <use xlink:href="#DejaVuSans-30"/>
       <use x="63.623047" xlink:href="#DejaVuSans-2e"/>
       <use x="95.410156" xlink:href="#DejaVuSans-35"/>
      </g>
     </g>
    </g>
    <g id="ytick_3">
     <g id="line2d_11">
      <g>
       <use style="stroke:#000000;stroke-width:0.8;" x="72" xlink:href="#m74c979ba71" y="175.755833"/>
      </g>
     </g>
     <g id="text_12">
      <!-- 1.0 -->
      <g transform="translate(42.735625 181.074739)scale(0.14 -0.14)">
       <use xlink:href="#DejaVuSans-31"/>
       <use x="63.623047" xlink:href="#DejaVuSans-2e"/>
       <use x="95.410156" xlink:href="#DejaVuSans-30"/>
      </g>
     </g>
    </g>
    <g id="ytick_4">
     <g id="line2d_12">
      <g>
       <use style="stroke:#000000;stroke-width:0.8;" x="72" xlink:href="#m74c979ba71" y="123.615359"/>
      </g>
     </g>
     <g id="text_13">
      <!-- 1.5 -->
      <g transform="translate(42.735625 128.934265)scale(0.14 -0.14)">
       <use xlink:href="#DejaVuSans-31"/>
       <use x="63.623047" xlink:href="#DejaVuSans-2e"/>
       <use x="95.410156" xlink:href="#DejaVuSans-35"/>
      </g>
     </g>
    </g>
    <g id="ytick_5">
     <g id="line2d_13">
      <g>
       <use style="stroke:#000000;stroke-width:0.8;" x="72" xlink:href="#m74c979ba71" y="71.474884"/>
      </g>
     </g>
     <g id="text_14">
      <!-- 2.0 -->
      <g transform="translate(42.735625 76.793791)scale(0.14 -0.14)">
       <use xlink:href="#DejaVuSans-32"/>
       <use x="63.623047" xlink:href="#DejaVuSans-2e"/>
       <use x="95.410156" xlink:href="#DejaVuSans-30"/>
      </g>
     </g>
    </g>
    <g id="text_15">
     <!-- Speed [mm/s] -->
     <g transform="translate(35.408125 238.11375)rotate(-90)scale(0.16 -0.16)">
      <defs>
       <path d="M 1159 525 
L 1159 -1331 
L 581 -1331 
L 581 3500 
L 1159 3500 
L 1159 2969 
Q 1341 3281 1617 3432 
Q 1894 3584 2278 3584 
Q 2916 3584 3314 3078 
Q 3713 2572 3713 1747 
Q 3713 922 3314 415 
Q 2916 -91 2278 -91 
Q 1894 -91 1617 61 
Q 1341 213 1159 525 
z
M 3116 1747 
Q 3116 2381 2855 2742 
Q 2594 3103 2138 3103 
Q 1681 3103 1420 2742 
Q 1159 2381 1159 1747 
Q 1159 1113 1420 752 
Q 1681 391 2138 391 
Q 2594 391 2855 752 
Q 3116 1113 3116 1747 
z
" id="DejaVuSans-70" transform="scale(0.015625)"/>
       <path d="M 1625 4666 
L 2156 4666 
L 531 -594 
L 0 -594 
L 1625 4666 
z
" id="DejaVuSans-2f" transform="scale(0.015625)"/>
      </defs>
      <use xlink:href="#DejaVuSans-53"/>
      <use x="63.476562" xlink:href="#DejaVuSans-70"/>
      <use x="126.953125" xlink:href="#DejaVuSans-65"/>
      <use x="188.476562" xlink:href="#DejaVuSans-65"/>
      <use x="250" xlink:href="#DejaVuSans-64"/>
      <use x="313.476562" xlink:href="#DejaVuSans-20"/>
      <use x="345.263672" xlink:href="#DejaVuSans-5b"/>
      <use x="384.277344" xlink:href="#DejaVuSans-6d"/>
      <use x="481.689453" xlink:href="#DejaVuSans-6d"/>
      <use x="579.101562" xlink:href="#DejaVuSans-2f"/>
      <use x="612.792969" xlink:href="#DejaVuSans-73"/>
      <use x="664.892578" xlink:href="#DejaVuSans-5d"/>
     </g>
    </g>
   </g>
   <g id="line2d_14">
    <path clip-path="url(#p84b23e2ce7)" d="M 72 178.213222 
L 518.4 178.213222 
" style="fill:none;stroke:#000000;stroke-dasharray:5.55,2.4;stroke-dashoffset:0;stroke-width:1.5;"/>
   </g>
   <g id="line2d_15">
    <path clip-path="url(#p84b23e2ce7)" d="M 72 278.645132 
L 110.081517 278.603837 
L 110.610427 278.827767 
L 111.139336 277.384474 
L 111.668246 275.32165 
L 112.726066 279.387897 
L 113.254976 279.302251 
L 114.312796 279.936261 
L 114.841706 279.850531 
L 115.370616 279.434864 
L 115.899526 283.892514 
L 116.428436 261.831961 
L 116.957346 253.78437 
L 117.486256 283.491788 
L 118.015166 298.092871 
L 118.544076 304.918502 
L 119.072986 307.8 
L 119.601896 304.549726 
L 120.130806 296.702534 
L 120.659716 284.861272 
L 121.717536 251.866239 
L 122.775355 211.440458 
L 123.833175 165.898101 
L 124.890995 124.914847 
L 126.477725 78.236402 
L 127.006635 67.898678 
L 127.535545 60.31601 
L 128.064455 56.018025 
L 128.593365 55.8 
L 129.122275 58.539156 
L 129.651185 63.987898 
L 130.180095 71.785395 
L 131.237915 94.076902 
L 133.353555 149.019697 
L 133.882464 165.226029 
L 134.411374 177.22423 
L 134.940284 185.58648 
L 135.469194 191.700576 
L 135.998104 193.167421 
L 136.527014 189.66841 
L 137.055924 181.101493 
L 137.584834 167.699519 
L 138.113744 140.052376 
L 138.642654 147.212505 
L 139.171564 172.197407 
L 139.700474 168.426908 
L 140.229384 168.476255 
L 140.758294 170.09907 
L 141.287204 170.307078 
L 141.816114 170.787786 
L 142.345024 171.675823 
L 143.402844 174.341644 
L 143.931754 175.015226 
L 144.989573 173.275236 
L 145.518483 174.725732 
L 146.047393 174.351514 
L 147.105213 176.204025 
L 147.634123 174.810339 
L 148.163033 174.864803 
L 148.691943 175.390443 
L 149.220853 175.613658 
L 149.749763 175.700451 
L 150.278673 176.286682 
L 150.807583 176.515043 
L 151.336493 176.607036 
L 151.865403 175.972061 
L 152.394313 176.260231 
L 152.923223 176.689064 
L 153.452133 176.635935 
L 153.981043 176.437598 
L 154.509953 176.695474 
L 155.038863 177.105133 
L 156.096682 176.683063 
L 156.625592 177.369367 
L 157.154502 177.842926 
L 157.683412 177.772673 
L 158.212322 177.556097 
L 158.741232 177.581547 
L 159.270142 178.052461 
L 159.799052 178.94215 
L 160.327962 179.284561 
L 160.856872 179.163814 
L 161.385782 178.718479 
L 161.914692 178.769596 
L 162.443602 179.24694 
L 162.972512 178.262428 
L 163.501422 177.83806 
L 164.030332 178.242464 
L 164.559242 178.202035 
L 165.617062 177.458132 
L 166.145972 177.40162 
L 166.674882 177.659204 
L 167.203791 177.311258 
L 167.732701 176.679082 
L 168.261611 176.866807 
L 168.790521 177.634046 
L 169.848341 178.251888 
L 170.377251 178.199081 
L 171.435071 178.599562 
L 171.963981 178.503906 
L 173.021801 177.986711 
L 173.550711 178.118319 
L 174.079621 179.160417 
L 174.608531 179.374925 
L 175.137441 178.470905 
L 175.666351 179.126181 
L 176.195261 178.892595 
L 176.724171 178.485898 
L 177.781991 178.257897 
L 178.3109 178.64559 
L 179.36872 176.746631 
L 179.89763 176.670497 
L 180.95545 177.380638 
L 181.48436 177.907743 
L 182.01327 177.776954 
L 182.54218 177.919215 
L 183.07109 177.881481 
L 183.6 177.594951 
L 184.12891 177.622757 
L 184.65782 177.496986 
L 185.18673 178.168301 
L 186.24455 178.090679 
L 186.77346 177.478941 
L 187.30237 177.088493 
L 187.83128 178.191144 
L 188.36019 178.797686 
L 189.418009 178.196291 
L 189.946919 178.504316 
L 190.475829 179.346707 
L 191.533649 178.181087 
L 192.062559 179.013877 
L 192.591469 179.605018 
L 193.649289 178.916642 
L 194.707109 179.340079 
L 195.236019 179.245944 
L 195.764929 179.563431 
L 196.822749 178.786061 
L 197.351659 179.458024 
L 197.880569 179.187531 
L 198.409479 178.529952 
L 198.938389 178.59142 
L 199.467299 178.21468 
L 199.996209 177.277525 
L 200.525118 176.605644 
L 201.582938 178.014666 
L 202.111848 177.027305 
L 202.640758 176.717923 
L 203.169668 177.270225 
L 203.698578 178.360302 
L 204.227488 178.545133 
L 204.756398 177.641517 
L 205.285308 177.577646 
L 205.814218 178.355663 
L 206.343128 178.429916 
L 206.872038 177.868984 
L 207.400948 177.884369 
L 207.929858 178.484646 
L 208.458768 177.924512 
L 208.987678 178.194171 
L 209.516588 179.974314 
L 210.045498 179.673705 
L 210.574408 179.173137 
L 211.632227 177.723951 
L 212.161137 178.377894 
L 212.690047 178.534863 
L 213.218957 178.085159 
L 213.747867 178.848459 
L 214.276777 178.129541 
L 214.805687 177.195695 
L 215.863507 179.328319 
L 216.392417 178.864806 
L 216.921327 178.197968 
L 217.450237 178.692145 
L 217.979147 178.420076 
L 218.508057 178.275465 
L 219.036967 179.515382 
L 219.565877 180.083886 
L 220.094787 179.023013 
L 220.623697 178.727332 
L 221.152607 177.879718 
L 221.681517 178.166192 
L 222.210427 178.799137 
L 222.739336 178.702498 
L 223.268246 178.768776 
L 223.797156 178.146241 
L 224.854976 179.426579 
L 225.383886 179.012701 
L 225.912796 177.840189 
L 226.970616 179.497575 
L 228.028436 176.755849 
L 228.557346 177.992271 
L 229.086256 178.736496 
L 230.144076 177.456216 
L 231.201896 179.300595 
L 231.730806 177.938249 
L 232.259716 177.493748 
L 232.788626 177.337946 
L 233.317536 177.856443 
L 233.846445 179.449055 
L 234.375355 179.42595 
L 234.904265 178.386097 
L 235.433175 178.413408 
L 235.962085 177.50471 
L 236.490995 177.06286 
L 237.019905 178.598266 
L 237.548815 179.18091 
L 238.077725 178.501602 
L 238.606635 178.133016 
L 239.135545 178.264897 
L 239.664455 177.8496 
L 240.193365 178.40546 
L 240.722275 179.345693 
L 241.251185 179.133366 
L 241.780095 178.491018 
L 242.837915 178.142756 
L 243.895735 177.080256 
L 244.424645 177.326099 
L 245.482464 178.347584 
L 246.011374 178.836037 
L 246.540284 178.082616 
L 247.069194 177.523317 
L 247.598104 177.859006 
L 248.127014 178.346937 
L 248.655924 177.986449 
L 249.184834 177.763287 
L 249.713744 178.461644 
L 250.242654 178.966076 
L 250.771564 178.748447 
L 251.300474 178.088335 
L 251.829384 178.794326 
L 252.358294 179.009478 
L 252.887204 178.135436 
L 253.416114 177.648718 
L 253.945024 177.98445 
L 254.473934 178.905255 
L 255.002844 179.039883 
L 255.531754 179.491974 
L 256.060664 179.349924 
L 257.118483 177.669234 
L 257.647393 176.663973 
L 258.176303 177.417994 
L 258.705213 178.866404 
L 259.234123 178.842847 
L 259.763033 178.166399 
L 260.291943 178.474269 
L 260.820853 178.180669 
L 261.349763 177.368756 
L 262.407583 178.370486 
L 262.936493 179.149953 
L 263.465403 179.338718 
L 263.994313 179.104086 
L 264.523223 179.557976 
L 265.052133 178.576392 
L 265.581043 178.270977 
L 266.109953 178.793076 
L 267.167773 179.5574 
L 268.225592 178.632564 
L 268.754502 179.26657 
L 269.812322 177.342702 
L 270.870142 178.786482 
L 271.399052 178.18998 
L 271.927962 177.998798 
L 272.456872 178.67077 
L 272.985782 178.290397 
L 273.514692 177.67981 
L 274.043602 176.741039 
L 275.630332 178.304929 
L 276.159242 178.70125 
L 276.688152 178.240457 
L 277.745972 178.698004 
L 278.274882 178.671842 
L 278.803791 177.86481 
L 279.332701 177.419406 
L 279.861611 178.229105 
L 280.390521 178.780973 
L 281.448341 179.051795 
L 281.977251 178.85199 
L 282.506161 177.372112 
L 283.035071 176.791984 
L 283.563981 177.752489 
L 284.621801 179.106619 
L 285.679621 178.438561 
L 286.208531 179.059438 
L 286.737441 178.785131 
L 287.266351 178.802552 
L 287.795261 178.652087 
L 288.324171 178.331849 
L 288.853081 178.199642 
L 289.381991 178.217227 
L 289.9109 179.143208 
L 290.43981 179.278478 
L 290.96872 177.433137 
L 291.49763 177.367218 
L 292.02654 178.882748 
L 292.55545 178.95873 
L 293.08436 178.072697 
L 294.14218 178.891873 
L 295.2 177.634326 
L 295.72891 177.255187 
L 296.25782 177.824714 
L 296.78673 178.173552 
L 297.31564 178.282182 
L 299.43128 179.304038 
L 299.96019 179.211944 
L 300.4891 178.046867 
L 301.018009 177.615051 
L 301.546919 178.862532 
L 302.075829 179.482799 
L 303.133649 178.848237 
L 303.662559 178.829128 
L 304.191469 178.206377 
L 304.720379 177.913115 
L 305.249289 178.606564 
L 306.307109 178.758115 
L 306.836019 178.47295 
L 307.364929 178.499242 
L 307.893839 179.169776 
L 308.951659 179.417834 
L 309.480569 178.820059 
L 310.009479 177.661364 
L 310.538389 177.605904 
L 311.067299 178.183706 
L 311.596209 178.522409 
L 312.654028 177.193498 
L 313.182938 178.035259 
L 313.711848 178.393221 
L 314.240758 177.40546 
L 314.769668 177.398684 
L 315.298578 178.252304 
L 315.827488 178.384738 
L 316.356398 177.547452 
L 316.885308 177.128017 
L 317.414218 176.264685 
L 317.943128 176.913634 
L 318.472038 178.066568 
L 319.000948 177.413593 
L 320.058768 178.555856 
L 321.116588 179.388844 
L 322.174408 178.114903 
L 322.703318 178.19787 
L 323.232227 179.516413 
L 323.761137 179.549379 
L 324.290047 178.831932 
L 324.818957 179.312509 
L 325.347867 179.51412 
L 325.876777 178.944691 
L 326.405687 178.033452 
L 326.934597 178.227553 
L 327.463507 179.095628 
L 327.992417 178.657819 
L 328.521327 178.480394 
L 329.050237 179.064546 
L 329.579147 179.333663 
L 330.108057 179.213329 
L 330.636967 179.644822 
L 331.165877 179.385158 
L 331.694787 178.265211 
L 332.223697 178.012152 
L 332.752607 177.949354 
L 333.281517 177.751673 
L 333.810427 177.296148 
L 334.339336 177.054823 
L 334.868246 178.051279 
L 335.926066 177.736592 
L 336.454976 178.64524 
L 336.983886 178.754098 
L 337.512796 178.653401 
L 338.041706 178.411069 
L 338.570616 178.732413 
L 339.099526 178.041877 
L 340.157346 178.349719 
L 340.686256 177.809818 
L 341.215166 178.326093 
L 341.744076 178.376616 
L 342.272986 178.648517 
L 342.801896 178.257695 
L 343.330806 177.514137 
L 343.859716 177.441347 
L 344.388626 177.721771 
L 344.917536 178.451296 
L 345.446445 178.339094 
L 345.975355 177.830952 
L 347.562085 178.686254 
L 348.090995 178.547637 
L 348.619905 178.923135 
L 349.148815 178.902025 
L 349.677725 177.872018 
L 350.206635 178.67469 
L 350.735545 179.749734 
L 351.264455 179.463336 
L 351.793365 178.77109 
L 352.322275 178.873828 
L 352.851185 179.536624 
L 354.437915 178.874806 
L 354.966825 178.517654 
L 355.495735 178.304297 
L 356.553555 178.732926 
L 357.611374 176.715413 
L 359.198104 177.488397 
L 359.727014 177.557909 
L 360.255924 177.856905 
L 360.784834 176.828068 
L 361.313744 176.923479 
L 361.842654 178.180635 
L 362.371564 178.808841 
L 362.900474 179.063867 
L 363.429384 178.899122 
L 363.958294 179.056795 
L 364.487204 179.645539 
L 365.016114 179.472221 
L 365.545024 178.888821 
L 366.602844 178.829034 
L 367.131754 178.632868 
L 368.189573 177.966705 
L 368.718483 178.4235 
L 369.247393 178.622695 
L 369.776303 178.278361 
L 370.834123 176.781268 
L 371.363033 177.570386 
L 371.891943 178.843959 
L 372.420853 179.02231 
L 372.949763 177.917713 
L 373.478673 177.17025 
L 374.007583 178.029223 
L 374.536493 177.914453 
L 375.065403 177.492295 
L 375.594313 178.563705 
L 376.123223 178.921186 
L 376.652133 178.89008 
L 377.181043 179.290308 
L 377.709953 179.246443 
L 378.238863 178.541672 
L 378.767773 178.366229 
L 379.296682 178.749998 
L 379.825592 179.416431 
L 380.354502 179.891809 
L 381.941232 178.696992 
L 382.470142 177.594141 
L 383.527962 178.748769 
L 384.056872 177.995285 
L 384.585782 177.609347 
L 385.114692 177.516782 
L 385.643602 176.907787 
L 386.701422 177.311706 
L 387.230332 177.221207 
L 387.759242 178.167545 
L 388.288152 178.806349 
L 388.817062 178.789156 
L 389.345972 178.472497 
L 389.874882 178.60075 
L 390.403791 178.855555 
L 390.932701 178.68584 
L 391.990521 177.544698 
L 392.519431 177.61903 
L 393.048341 177.932196 
L 394.106161 178.370158 
L 395.163981 177.88376 
L 395.692891 178.086496 
L 396.221801 177.84397 
L 396.750711 178.577795 
L 397.279621 180.052744 
L 397.808531 179.715348 
L 398.337441 179.101621 
L 398.866351 179.01258 
L 399.395261 178.76641 
L 400.453081 178.85642 
L 400.981991 178.834142 
L 402.03981 178.173817 
L 402.56872 178.168759 
L 403.09763 178.281363 
L 403.62654 177.874629 
L 404.15545 177.98165 
L 404.68436 178.979467 
L 405.21327 178.914888 
L 405.74218 178.513791 
L 406.8 178.968752 
L 407.32891 178.003968 
L 407.85782 177.590441 
L 408.38673 177.886798 
L 408.91564 177.61347 
L 409.44455 177.657581 
L 409.97346 177.921028 
L 411.03128 178.062776 
L 411.56019 178.636467 
L 412.618009 178.555986 
L 413.675829 179.141675 
L 414.204739 179.368006 
L 414.733649 179.074846 
L 415.262559 179.501074 
L 415.791469 179.28746 
L 416.320379 178.432439 
L 416.849289 178.348121 
L 417.378199 178.524851 
L 417.907109 178.455694 
L 418.436019 178.19344 
L 418.964929 178.36021 
L 419.493839 177.850402 
L 420.022749 177.662046 
L 420.551659 178.175498 
L 421.609479 178.148699 
L 422.667299 178.376857 
L 423.196209 178.229371 
L 423.725118 178.437588 
L 424.254028 178.876883 
L 425.311848 177.201553 
L 425.840758 177.589313 
L 426.369668 178.325283 
L 426.898578 178.589712 
L 427.427488 178.505258 
L 428.485308 178.926151 
L 429.014218 178.178899 
L 429.543128 177.790996 
L 430.072038 178.312315 
L 430.600948 178.588874 
L 431.129858 178.736931 
L 431.658768 178.734218 
L 432.187678 178.397647 
L 433.245498 178.746857 
L 434.303318 177.196928 
L 434.832227 177.251255 
L 435.361137 177.527795 
L 436.418957 177.344159 
L 436.947867 177.862349 
L 438.005687 177.803254 
L 438.534597 178.805938 
L 439.063507 179.500983 
L 439.592417 179.115355 
L 440.650237 178.996974 
L 441.179147 178.567908 
L 441.708057 178.741573 
L 442.236967 179.419199 
L 442.765877 179.169553 
L 443.294787 178.494862 
L 443.823697 178.70691 
L 444.352607 178.587629 
L 444.881517 178.199057 
L 445.410427 178.648632 
L 445.939336 178.903948 
L 446.468246 178.108652 
L 447.526066 179.250959 
L 448.583886 179.53681 
L 449.641706 178.045647 
L 450.170616 177.828634 
L 450.699526 177.053095 
L 451.228436 176.725943 
L 451.757346 176.57197 
L 452.286256 176.674397 
L 452.815166 177.176442 
L 453.344076 177.29723 
L 453.872986 177.928375 
L 454.401896 178.878342 
L 454.930806 178.879787 
L 455.459716 178.357713 
L 455.988626 178.429242 
L 456.517536 179.083328 
L 457.046445 179.039197 
L 457.575355 178.343738 
L 458.104265 178.0358 
L 458.633175 178.384738 
L 459.162085 178.580057 
L 459.690995 177.8416 
L 460.219905 177.896219 
L 460.748815 178.37808 
L 461.277725 177.393974 
L 461.806635 177.039927 
L 462.335545 177.319538 
L 462.864455 177.829802 
L 463.393365 178.900813 
L 463.922275 179.357632 
L 464.451185 178.965798 
L 464.980095 178.425515 
L 465.509005 179.072021 
L 466.037915 178.688371 
L 466.566825 177.640041 
L 467.095735 177.799733 
L 467.624645 178.458432 
L 468.153555 178.265731 
L 468.682464 178.248426 
L 469.211374 178.617664 
L 469.740284 178.713318 
L 470.269194 179.05846 
L 470.798104 178.37138 
L 471.327014 178.415712 
L 471.855924 178.78787 
L 472.384834 177.981246 
L 472.913744 177.687935 
L 473.442654 177.629996 
L 473.971564 178.112186 
L 474.500474 178.826571 
L 475.029384 178.986354 
L 475.558294 178.71872 
L 476.087204 178.251911 
L 477.145024 179.03296 
L 477.673934 178.813791 
L 478.202844 179.155415 
L 479.260664 178.032029 
L 479.789573 178.573936 
L 480.318483 179.287521 
L 480.847393 179.517409 
L 481.376303 178.865004 
L 481.905213 178.461779 
L 482.434123 178.408209 
L 482.963033 177.891082 
L 483.491943 178.092996 
L 484.020853 178.556351 
L 485.078673 177.38422 
L 485.607583 177.561364 
L 486.136493 177.95995 
L 486.665403 178.215436 
L 487.194313 178.049574 
L 487.723223 177.767049 
L 488.252133 177.898466 
L 488.781043 177.698177 
L 489.309953 178.093017 
L 489.838863 178.282858 
L 490.367773 178.211149 
L 491.425592 178.628117 
L 491.954502 178.590623 
L 492.483412 178.405479 
L 493.012322 178.998599 
L 494.070142 177.287871 
L 494.599052 177.709668 
L 495.127962 178.556303 
L 495.656872 178.703131 
L 496.185782 178.683166 
L 496.714692 179.245078 
L 497.243602 178.675599 
L 497.772512 178.337861 
L 498.301422 179.270424 
L 498.830332 178.698167 
L 499.359242 177.796691 
L 499.888152 177.992656 
L 500.417062 178.027825 
L 500.945972 178.315401 
L 501.474882 178.260633 
L 502.003791 177.927197 
L 502.532701 178.421024 
L 503.061611 178.671521 
L 503.590521 177.890852 
L 504.648341 178.782438 
L 505.177251 178.869625 
L 505.706161 178.671387 
L 506.235071 177.91906 
L 506.763981 178.466917 
L 507.292891 179.3759 
L 508.350711 179.230622 
L 509.408531 178.824186 
L 510.995261 177.904982 
L 512.581991 176.983009 
L 513.63981 176.660899 
L 514.16872 176.671847 
L 514.69763 176.84115 
L 515.22654 177.204922 
L 515.75545 177.801952 
L 516.28436 178.673709 
L 516.81327 179.864336 
L 517.34218 181.420658 
L 517.87109 183.392173 
L 518.4 185.831059 
L 518.4 185.831059 
" style="fill:none;stroke:#ff0000;stroke-linecap:square;stroke-width:2;"/>
   </g>
   <g id="patch_3">
    <path d="M 72 320.4 
L 72 43.2 
" style="fill:none;stroke:#000000;stroke-linecap:square;stroke-linejoin:miter;stroke-width:0.8;"/>
   </g>
   <g id="patch_4">
    <path d="M 518.4 320.4 
L 518.4 43.2 
" style="fill:none;stroke:#000000;stroke-linecap:square;stroke-linejoin:miter;stroke-width:0.8;"/>
   </g>
   <g id="patch_5">
    <path d="M 72 320.4 
L 518.4 320.4 
" style="fill:none;stroke:#000000;stroke-linecap:square;stroke-linejoin:miter;stroke-width:0.8;"/>
   </g>
   <g id="patch_6">
    <path d="M 72 43.2 
L 518.4 43.2 
" style="fill:none;stroke:#000000;stroke-linecap:square;stroke-linejoin:miter;stroke-width:0.8;"/>
   </g>
   <g id="text_16">
    <!-- Front Propogation Speed -->
    <g transform="translate(172.245312 37.2)scale(0.2 -0.2)">
     <defs>
      <path d="M 628 4666 
L 3309 4666 
L 3309 4134 
L 1259 4134 
L 1259 2759 
L 3109 2759 
L 3109 2228 
L 1259 2228 
L 1259 0 
L 628 0 
L 628 4666 
z
" id="DejaVuSans-46" transform="scale(0.015625)"/>
      <path d="M 2631 2963 
Q 2534 3019 2420 3045 
Q 2306 3072 2169 3072 
Q 1681 3072 1420 2755 
Q 1159 2438 1159 1844 
L 1159 0 
L 581 0 
L 581 3500 
L 1159 3500 
L 1159 2956 
Q 1341 3275 1631 3429 
Q 1922 3584 2338 3584 
Q 2397 3584 2469 3576 
Q 2541 3569 2628 3553 
L 2631 2963 
z
" id="DejaVuSans-72" transform="scale(0.015625)"/>
      <path d="M 1172 4494 
L 1172 3500 
L 2356 3500 
L 2356 3053 
L 1172 3053 
L 1172 1153 
Q 1172 725 1289 603 
Q 1406 481 1766 481 
L 2356 481 
L 2356 0 
L 1766 0 
Q 1100 0 847 248 
Q 594 497 594 1153 
L 594 3053 
L 172 3053 
L 172 3500 
L 594 3500 
L 594 4494 
L 1172 4494 
z
" id="DejaVuSans-74" transform="scale(0.015625)"/>
      <path d="M 1259 4147 
L 1259 2394 
L 2053 2394 
Q 2494 2394 2734 2622 
Q 2975 2850 2975 3272 
Q 2975 3691 2734 3919 
Q 2494 4147 2053 4147 
L 1259 4147 
z
M 628 4666 
L 2053 4666 
Q 2838 4666 3239 4311 
Q 3641 3956 3641 3272 
Q 3641 2581 3239 2228 
Q 2838 1875 2053 1875 
L 1259 1875 
L 1259 0 
L 628 0 
L 628 4666 
z
" id="DejaVuSans-50" transform="scale(0.015625)"/>
      <path d="M 2906 1791 
Q 2906 2416 2648 2759 
Q 2391 3103 1925 3103 
Q 1463 3103 1205 2759 
Q 947 2416 947 1791 
Q 947 1169 1205 825 
Q 1463 481 1925 481 
Q 2391 481 2648 825 
Q 2906 1169 2906 1791 
z
M 3481 434 
Q 3481 -459 3084 -895 
Q 2688 -1331 1869 -1331 
Q 1566 -1331 1297 -1286 
Q 1028 -1241 775 -1147 
L 775 -588 
Q 1028 -725 1275 -790 
Q 1522 -856 1778 -856 
Q 2344 -856 2625 -561 
Q 2906 -266 2906 331 
L 2906 616 
Q 2728 306 2450 153 
Q 2172 0 1784 0 
Q 1141 0 747 490 
Q 353 981 353 1791 
Q 353 2603 747 3093 
Q 1141 3584 1784 3584 
Q 2172 3584 2450 3431 
Q 2728 3278 2906 2969 
L 2906 3500 
L 3481 3500 
L 3481 434 
z
" id="DejaVuSans-67" transform="scale(0.015625)"/>
      <path d="M 2194 1759 
Q 1497 1759 1228 1600 
Q 959 1441 959 1056 
Q 959 750 1161 570 
Q 1363 391 1709 391 
Q 2188 391 2477 730 
Q 2766 1069 2766 1631 
L 2766 1759 
L 2194 1759 
z
M 3341 1997 
L 3341 0 
L 2766 0 
L 2766 531 
Q 2569 213 2275 61 
Q 1981 -91 1556 -91 
Q 1019 -91 701 211 
Q 384 513 384 1019 
Q 384 1609 779 1909 
Q 1175 2209 1959 2209 
L 2766 2209 
L 2766 2266 
Q 2766 2663 2505 2880 
Q 2244 3097 1772 3097 
Q 1472 3097 1187 3025 
Q 903 2953 641 2809 
L 641 3341 
Q 956 3463 1253 3523 
Q 1550 3584 1831 3584 
Q 2591 3584 2966 3190 
Q 3341 2797 3341 1997 
z
" id="DejaVuSans-61" transform="scale(0.015625)"/>
     </defs>
     <use xlink:href="#DejaVuSans-46"/>
     <use x="50.269531" xlink:href="#DejaVuSans-72"/>
     <use x="89.132812" xlink:href="#DejaVuSans-6f"/>
     <use x="150.314453" xlink:href="#DejaVuSans-6e"/>
     <use x="213.693359" xlink:href="#DejaVuSans-74"/>
     <use x="252.902344" xlink:href="#DejaVuSans-20"/>
     <use x="284.689453" xlink:href="#DejaVuSans-50"/>
     <use x="343.242188" xlink:href="#DejaVuSans-72"/>
     <use x="382.105469" xlink:href="#DejaVuSans-6f"/>
     <use x="443.287109" xlink:href="#DejaVuSans-70"/>
     <use x="506.763672" xlink:href="#DejaVuSans-6f"/>
     <use x="567.945312" xlink:href="#DejaVuSans-67"/>
     <use x="631.421875" xlink:href="#DejaVuSans-61"/>
     <use x="692.701172" xlink:href="#DejaVuSans-74"/>
     <use x="731.910156" xlink:href="#DejaVuSans-69"/>
     <use x="759.693359" xlink:href="#DejaVuSans-6f"/>
     <use x="820.875" xlink:href="#DejaVuSans-6e"/>
     <use x="884.253906" xlink:href="#DejaVuSans-20"/>
     <use x="916.041016" xlink:href="#DejaVuSans-53"/>
     <use x="979.517578" xlink:href="#DejaVuSans-70"/>
     <use x="1042.994141" xlink:href="#DejaVuSans-65"/>
     <use x="1104.517578" xlink:href="#DejaVuSans-65"/>
     <use x="1166.041016" xlink:href="#DejaVuSans-64"/>
    </g>
   </g>
   <g id="legend_1">
    <g id="patch_7">
     <path d="M 325.967812 111.175687 
L 508.6 111.175687 
Q 511.4 111.175687 511.4 108.375687 
L 511.4 53 
Q 511.4 50.2 508.6 50.2 
L 325.967812 50.2 
Q 323.167812 50.2 323.167812 53 
L 323.167812 108.375687 
Q 323.167812 111.175687 325.967812 111.175687 
z
" style="fill:#ffffff;opacity:0.8;stroke:#cccccc;stroke-linejoin:miter;"/>
    </g>
    <g id="line2d_16">
     <path d="M 328.767812 61.537812 
L 356.767812 61.537812 
" style="fill:none;stroke:#ff0000;stroke-linecap:square;stroke-width:2;"/>
    </g>
    <g id="line2d_17"/>
    <g id="text_17">
     <!-- Front speed -->
     <g transform="translate(367.967812 66.437812)scale(0.14 -0.14)">
      <use xlink:href="#DejaVuSans-46"/>
      <use x="50.269531" xlink:href="#DejaVuSans-72"/>
      <use x="89.132812" xlink:href="#DejaVuSans-6f"/>
      <use x="150.314453" xlink:href="#DejaVuSans-6e"/>
      <use x="213.693359" xlink:href="#DejaVuSans-74"/>
      <use x="252.902344" xlink:href="#DejaVuSans-20"/>
      <use x="284.689453" xlink:href="#DejaVuSans-73"/>
      <use x="336.789062" xlink:href="#DejaVuSans-70"/>
      <use x="400.265625" xlink:href="#DejaVuSans-65"/>
      <use x="461.789062" xlink:href="#DejaVuSans-65"/>
      <use x="523.3125" xlink:href="#DejaVuSans-64"/>
     </g>
    </g>
    <g id="line2d_18">
     <path d="M 328.767812 91.381437 
L 356.767812 91.381437 
" style="fill:none;stroke:#000000;stroke-dasharray:5.55,2.4;stroke-dashoffset:0;stroke-width:1.5;"/>
    </g>
    <g id="line2d_19"/>
    <g id="text_18">
     <!-- Steady state -->
     <g transform="translate(367.967812 86.987187)scale(0.14 -0.14)">
      <defs>
       <path d="M 2059 -325 
Q 1816 -950 1584 -1140 
Q 1353 -1331 966 -1331 
L 506 -1331 
L 506 -850 
L 844 -850 
Q 1081 -850 1212 -737 
Q 1344 -625 1503 -206 
L 1606 56 
L 191 3500 
L 800 3500 
L 1894 763 
L 2988 3500 
L 3597 3500 
L 2059 -325 
z
" id="DejaVuSans-79" transform="scale(0.015625)"/>
      </defs>
      <use xlink:href="#DejaVuSans-53"/>
      <use x="63.476562" xlink:href="#DejaVuSans-74"/>
      <use x="102.685547" xlink:href="#DejaVuSans-65"/>
      <use x="164.208984" xlink:href="#DejaVuSans-61"/>
      <use x="225.488281" xlink:href="#DejaVuSans-64"/>
      <use x="288.964844" xlink:href="#DejaVuSans-79"/>
      <use x="348.144531" xlink:href="#DejaVuSans-20"/>
      <use x="379.931641" xlink:href="#DejaVuSans-73"/>
      <use x="432.03125" xlink:href="#DejaVuSans-74"/>
      <use x="471.240234" xlink:href="#DejaVuSans-61"/>
      <use x="532.519531" xlink:href="#DejaVuSans-74"/>
      <use x="571.728516" xlink:href="#DejaVuSans-65"/>
     </g>
     <!-- speed = 0.98 mm/s -->
     <g transform="translate(367.967812 102.664125)scale(0.14 -0.14)">
      <defs>
       <path d="M 678 2906 
L 4684 2906 
L 4684 2381 
L 678 2381 
L 678 2906 
z
M 678 1631 
L 4684 1631 
L 4684 1100 
L 678 1100 
L 678 1631 
z
" id="DejaVuSans-3d" transform="scale(0.015625)"/>
       <path d="M 703 97 
L 703 672 
Q 941 559 1184 500 
Q 1428 441 1663 441 
Q 2288 441 2617 861 
Q 2947 1281 2994 2138 
Q 2813 1869 2534 1725 
Q 2256 1581 1919 1581 
Q 1219 1581 811 2004 
Q 403 2428 403 3163 
Q 403 3881 828 4315 
Q 1253 4750 1959 4750 
Q 2769 4750 3195 4129 
Q 3622 3509 3622 2328 
Q 3622 1225 3098 567 
Q 2575 -91 1691 -91 
Q 1453 -91 1209 -44 
Q 966 3 703 97 
z
M 1959 2075 
Q 2384 2075 2632 2365 
Q 2881 2656 2881 3163 
Q 2881 3666 2632 3958 
Q 2384 4250 1959 4250 
Q 1534 4250 1286 3958 
Q 1038 3666 1038 3163 
Q 1038 2656 1286 2365 
Q 1534 2075 1959 2075 
z
" id="DejaVuSans-39" transform="scale(0.015625)"/>
       <path d="M 2034 2216 
Q 1584 2216 1326 1975 
Q 1069 1734 1069 1313 
Q 1069 891 1326 650 
Q 1584 409 2034 409 
Q 2484 409 2743 651 
Q 3003 894 3003 1313 
Q 3003 1734 2745 1975 
Q 2488 2216 2034 2216 
z
M 1403 2484 
Q 997 2584 770 2862 
Q 544 3141 544 3541 
Q 544 4100 942 4425 
Q 1341 4750 2034 4750 
Q 2731 4750 3128 4425 
Q 3525 4100 3525 3541 
Q 3525 3141 3298 2862 
Q 3072 2584 2669 2484 
Q 3125 2378 3379 2068 
Q 3634 1759 3634 1313 
Q 3634 634 3220 271 
Q 2806 -91 2034 -91 
Q 1263 -91 848 271 
Q 434 634 434 1313 
Q 434 1759 690 2068 
Q 947 2378 1403 2484 
z
M 1172 3481 
Q 1172 3119 1398 2916 
Q 1625 2713 2034 2713 
Q 2441 2713 2670 2916 
Q 2900 3119 2900 3481 
Q 2900 3844 2670 4047 
Q 2441 4250 2034 4250 
Q 1625 4250 1398 4047 
Q 1172 3844 1172 3481 
z
" id="DejaVuSans-38" transform="scale(0.015625)"/>
      </defs>
      <use xlink:href="#DejaVuSans-73"/>
      <use x="52.099609" xlink:href="#DejaVuSans-70"/>
      <use x="115.576172" xlink:href="#DejaVuSans-65"/>
      <use x="177.099609" xlink:href="#DejaVuSans-65"/>
      <use x="238.623047" xlink:href="#DejaVuSans-64"/>
      <use x="302.099609" xlink:href="#DejaVuSans-20"/>
      <use x="333.886719" xlink:href="#DejaVuSans-3d"/>
      <use x="417.675781" xlink:href="#DejaVuSans-20"/>
      <use x="449.462891" xlink:href="#DejaVuSans-30"/>
      <use x="513.085938" xlink:href="#DejaVuSans-2e"/>
      <use x="544.873047" xlink:href="#DejaVuSans-39"/>
      <use x="608.496094" xlink:href="#DejaVuSans-38"/>
      <use x="672.119141" xlink:href="#DejaVuSans-20"/>
      <use x="703.90625" xlink:href="#DejaVuSans-6d"/>
      <use x="801.318359" xlink:href="#DejaVuSans-6d"/>
      <use x="898.730469" xlink:href="#DejaVuSans-2f"/>
      <use x="932.421875" xlink:href="#DejaVuSans-73"/>
     </g>
    </g>
   </g>
  </g>
 </g>
 <defs>
  <clipPath id="p84b23e2ce7">
   <rect height="277.2" width="446.4" x="72" y="43.2"/>
  </clipPath>
 </defs>
</svg>
