<?xml version="1.0" encoding="utf-8" standalone="no"?>
<!DOCTYPE svg PUBLIC "-//W3C//DTD SVG 1.1//EN"
  "http://www.w3.org/Graphics/SVG/1.1/DTD/svg11.dtd">
<svg height="360pt" version="1.1" viewBox="0 0 576 360" width="576pt" xmlns="http://www.w3.org/2000/svg" xmlns:xlink="http://www.w3.org/1999/xlink">
 <metadata>
  <rdf:RDF xmlns:cc="http://creativecommons.org/ns#" xmlns:dc="http://purl.org/dc/elements/1.1/" xmlns:rdf="http://www.w3.org/1999/02/22-rdf-syntax-ns#">
   <cc:Work>
    <dc:type rdf:resource="http://purl.org/dc/dcmitype/StillImage"/>
    <dc:date>2022-06-30T14:11:08.781615</dc:date>
    <dc:format>image/svg+xml</dc:format>
    <dc:creator>
     <cc:Agent>
      <dc:title>Matplotlib v3.4.3, https://matplotlib.org/</dc:title>
     </cc:Agent>
    </dc:creator>
   </cc:Work>
  </rdf:RDF>
 </metadata>
 <defs>
  <style type="text/css">*{stroke-linecap:butt;stroke-linejoin:round;}</style>
 </defs>
 <g id="figure_1">
  <g id="patch_1">
   <path d="M 0 360 
L 576 360 
L 576 0 
L 0 0 
z
" style="fill:#ffffff;"/>
  </g>
  <g id="axes_1">
   <g id="patch_2">
    <path d="M 72 320.4 
L 518.4 320.4 
L 518.4 43.2 
L 72 43.2 
z
" style="fill:#ffffff;"/>
   </g>
   <g id="PolyCollection_1">
    <defs>
     <path d="M 72 -146.691936 
L 72 -151.82084 
L 72.788693 -151.82084 
L 73.577385 -151.82084 
L 74.366078 -151.82084 
L 75.15477 -151.82084 
L 75.943463 -151.82084 
L 76.732155 -151.82084 
L 77.520848 -151.82084 
L 78.309541 -151.82084 
L 79.098233 -151.82084 
L 79.886926 -151.82084 
L 80.675618 -151.82084 
L 81.464311 -151.82084 
L 82.253004 -151.82084 
L 83.041696 -151.82084 
L 83.830389 -151.82084 
L 84.619081 -151.82084 
L 85.407774 -151.82084 
L 86.196466 -151.82084 
L 86.985159 -151.82084 
L 87.773852 -151.82084 
L 88.562544 -151.82084 
L 89.351237 -151.82084 
L 90.139929 -151.82084 
L 90.928622 -151.82084 
L 91.717314 -151.82084 
L 92.506007 -151.82084 
L 93.2947 -151.82084 
L 94.083392 -151.82084 
L 94.872085 -151.82084 
L 95.660777 -151.82084 
L 96.44947 -151.82084 
L 97.238163 -151.82084 
L 98.026855 -151.82084 
L 98.815548 -151.82084 
L 99.60424 -151.82084 
L 100.392933 -151.82084 
L 101.181625 -151.82084 
L 101.970318 -151.82084 
L 102.759011 -151.82084 
L 103.547703 -151.82084 
L 104.336396 -151.82084 
L 105.125088 -151.82084 
L 105.913781 -151.82084 
L 106.702473 -151.82084 
L 107.491166 -151.82084 
L 108.279859 -151.82084 
L 109.068551 -151.82084 
L 109.857244 -151.82084 
L 110.645936 -151.82084 
L 111.434629 -151.82084 
L 112.223322 -151.82084 
L 113.012014 -151.82084 
L 113.800707 -151.82084 
L 114.589399 -151.82084 
L 115.378092 -151.82084 
L 116.166784 -151.82084 
L 116.955477 -151.82084 
L 117.74417 -151.82084 
L 118.532862 -151.82084 
L 119.321555 -151.82084 
L 120.110247 -151.82084 
L 120.89894 -151.82084 
L 121.687633 -151.82084 
L 122.476325 -151.82084 
L 123.265018 -151.82084 
L 124.05371 -151.82084 
L 124.842403 -151.82084 
L 125.631095 -151.82084 
L 126.419788 -151.82084 
L 127.208481 -151.82084 
L 127.997173 -151.82084 
L 128.785866 -151.82084 
L 129.574558 -151.82084 
L 130.363251 -151.82084 
L 131.151943 -151.82084 
L 131.940636 -151.82084 
L 132.729329 -151.82084 
L 133.518021 -151.82084 
L 134.306714 -151.82084 
L 135.095406 -151.82084 
L 135.884099 -151.82084 
L 136.672792 -151.82084 
L 137.461484 -151.82084 
L 138.250177 -151.82084 
L 139.038869 -151.82084 
L 139.827562 -151.82084 
L 140.616254 -151.82084 
L 141.404947 -151.82084 
L 142.19364 -151.82084 
L 142.982332 -151.82084 
L 143.771025 -151.82084 
L 144.559717 -151.82084 
L 145.34841 -151.82084 
L 146.137102 -151.82084 
L 146.925795 -151.82084 
L 147.714488 -151.82084 
L 148.50318 -151.82084 
L 149.291873 -151.82084 
L 150.080565 -151.82084 
L 150.869258 -151.82084 
L 151.657951 -151.82084 
L 152.446643 -151.82084 
L 153.235336 -151.82084 
L 154.024028 -151.82084 
L 154.812721 -151.82084 
L 155.601413 -151.82084 
L 156.390106 -151.82084 
L 157.178799 -151.82084 
L 157.967491 -151.82084 
L 158.756184 -151.82084 
L 159.544876 -151.82084 
L 160.333569 -151.82084 
L 161.122261 -151.82084 
L 161.910954 -151.82084 
L 162.699647 -151.82084 
L 163.488339 -151.82084 
L 164.277032 -151.82084 
L 165.065724 -151.82084 
L 165.854417 -151.82084 
L 166.64311 -151.82084 
L 167.431802 -151.82084 
L 168.220495 -151.82084 
L 169.009187 -151.82084 
L 169.79788 -151.82084 
L 170.586572 -151.82084 
L 171.375265 -151.82084 
L 172.163958 -151.82084 
L 172.95265 -151.82084 
L 173.741343 -151.82084 
L 174.530035 -151.82084 
L 175.318728 -151.82084 
L 176.10742 -151.82084 
L 176.896113 -151.82084 
L 177.684806 -151.82084 
L 178.473498 -151.82084 
L 179.262191 -151.82084 
L 180.050883 -151.82084 
L 180.839576 -151.82084 
L 181.628269 -151.82084 
L 182.416961 -151.82084 
L 183.205654 -151.82084 
L 183.994346 -151.82084 
L 184.783039 -151.82084 
L 185.571731 -151.82084 
L 186.360424 -151.82084 
L 187.149117 -151.82084 
L 187.937809 -151.82084 
L 188.726502 -151.82084 
L 189.515194 -151.82084 
L 190.303887 -151.82084 
L 191.09258 -151.82084 
L 191.881272 -151.82084 
L 192.669965 -151.82084 
L 193.458657 -151.82084 
L 194.24735 -151.82084 
L 195.036042 -151.82084 
L 195.824735 -151.82084 
L 196.613428 -151.82084 
L 197.40212 -151.82084 
L 198.190813 -151.82084 
L 198.979505 -151.82084 
L 199.768198 -151.82084 
L 200.55689 -151.82084 
L 201.345583 -151.82084 
L 202.134276 -151.82084 
L 202.922968 -151.82084 
L 203.711661 -151.82084 
L 204.500353 -151.82084 
L 205.289046 -151.82084 
L 206.077739 -151.82084 
L 206.866431 -151.82084 
L 207.655124 -151.82084 
L 208.443816 -151.82084 
L 209.232509 -151.82084 
L 210.021201 -151.82084 
L 210.809894 -151.82084 
L 211.598587 -151.82084 
L 212.387279 -151.82084 
L 213.175972 -151.82084 
L 213.964664 -151.82084 
L 214.753357 -151.82084 
L 215.542049 -151.82084 
L 216.330742 -151.82084 
L 217.119435 -151.82084 
L 217.908127 -151.82084 
L 218.69682 -151.82084 
L 219.485512 -151.82084 
L 220.274205 -151.82084 
L 221.062898 -151.82084 
L 221.85159 -151.82084 
L 222.640283 -151.82084 
L 223.428975 -151.82084 
L 224.217668 -151.82084 
L 225.00636 -151.82084 
L 225.795053 -151.82084 
L 226.583746 -151.82084 
L 227.372438 -151.82084 
L 228.161131 -151.82084 
L 228.949823 -151.82084 
L 229.738516 -151.82084 
L 230.527208 -151.82084 
L 231.315901 -151.82084 
L 232.104594 -151.82084 
L 232.893286 -151.82084 
L 233.681979 -151.82084 
L 234.470671 -151.82084 
L 235.259364 -151.82084 
L 236.048057 -151.82084 
L 236.836749 -151.82084 
L 237.625442 -151.82084 
L 238.414134 -151.82084 
L 239.202827 -151.82084 
L 239.991519 -151.82084 
L 240.780212 -151.82084 
L 241.568905 -151.82084 
L 242.357597 -151.82084 
L 243.14629 -151.82084 
L 243.934982 -151.82084 
L 244.723675 -151.82084 
L 245.512367 -151.82084 
L 246.30106 -151.82084 
L 247.089753 -151.82084 
L 247.878445 -151.82084 
L 248.667138 -151.82084 
L 249.45583 -151.82084 
L 250.244523 -151.82084 
L 251.033216 -151.82084 
L 251.821908 -151.82084 
L 252.610601 -151.82084 
L 253.399293 -151.82084 
L 254.187986 -151.82084 
L 254.976678 -151.82084 
L 255.765371 -151.82084 
L 256.554064 -151.82084 
L 257.342756 -151.82084 
L 258.131449 -151.82084 
L 258.920141 -151.82084 
L 259.708834 -151.82084 
L 260.497527 -151.82084 
L 261.286219 -151.82084 
L 262.074912 -151.82084 
L 262.863604 -151.82084 
L 263.652297 -151.82084 
L 264.440989 -151.82084 
L 265.229682 -151.82084 
L 266.018375 -151.82084 
L 266.807067 -151.82084 
L 267.59576 -151.82084 
L 268.384452 -151.82084 
L 269.173145 -151.82084 
L 269.961837 -151.82084 
L 270.75053 -151.82084 
L 271.539223 -151.82084 
L 272.327915 -151.82084 
L 273.116608 -151.82084 
L 273.9053 -151.82084 
L 274.693993 -151.82084 
L 275.482686 -151.82084 
L 276.271378 -151.82084 
L 277.060071 -151.82084 
L 277.848763 -151.82084 
L 278.637456 -151.82084 
L 279.426148 -151.82084 
L 280.214841 -151.82084 
L 281.003534 -151.82084 
L 281.792226 -151.82084 
L 282.580919 -151.82084 
L 283.369611 -151.82084 
L 284.158304 -151.82084 
L 284.946996 -151.82084 
L 285.735689 -151.82084 
L 286.524382 -151.82084 
L 287.313074 -151.82084 
L 288.101767 -151.82084 
L 288.890459 -151.82084 
L 289.679152 -151.82084 
L 290.467845 -151.82084 
L 291.256537 -151.82084 
L 292.04523 -151.82084 
L 292.833922 -151.82084 
L 293.622615 -151.82084 
L 294.411307 -151.82084 
L 295.2 -151.82084 
L 295.988693 -151.82084 
L 296.777385 -151.82084 
L 297.566078 -151.82084 
L 298.35477 -151.82084 
L 299.143463 -151.82084 
L 299.932155 -151.82084 
L 300.720848 -151.82084 
L 301.509541 -151.82084 
L 302.298233 -151.82084 
L 303.086926 -151.82084 
L 303.875618 -151.82084 
L 304.664311 -151.82084 
L 305.453004 -151.82084 
L 306.241696 -151.82084 
L 307.030389 -151.82084 
L 307.819081 -151.82084 
L 308.607774 -151.82084 
L 309.396466 -151.82084 
L 310.185159 -151.82084 
L 310.973852 -151.82084 
L 311.762544 -151.82084 
L 312.551237 -151.82084 
L 313.339929 -151.82084 
L 314.128622 -151.82084 
L 314.917314 -151.82084 
L 315.706007 -151.82084 
L 316.4947 -151.82084 
L 317.283392 -151.82084 
L 318.072085 -151.82084 
L 318.860777 -151.82084 
L 319.64947 -151.82084 
L 320.438163 -151.82084 
L 321.226855 -151.82084 
L 322.015548 -151.82084 
L 322.80424 -151.82084 
L 323.592933 -151.82084 
L 324.381625 -151.82084 
L 325.170318 -151.82084 
L 325.959011 -151.82084 
L 326.747703 -151.82084 
L 327.536396 -151.82084 
L 328.325088 -151.82084 
L 329.113781 -151.82084 
L 329.902473 -151.82084 
L 330.691166 -151.82084 
L 331.479859 -151.82084 
L 332.268551 -151.82084 
L 333.057244 -151.82084 
L 333.845936 -151.82084 
L 334.634629 -151.82084 
L 335.423322 -151.82084 
L 336.212014 -151.82084 
L 337.000707 -151.82084 
L 337.789399 -151.82084 
L 338.578092 -151.82084 
L 339.366784 -151.82084 
L 340.155477 -151.82084 
L 340.94417 -151.82084 
L 341.732862 -151.82084 
L 342.521555 -151.82084 
L 343.310247 -151.82084 
L 344.09894 -151.82084 
L 344.887633 -151.82084 
L 345.676325 -151.82084 
L 346.465018 -151.82084 
L 347.25371 -151.82084 
L 348.042403 -151.82084 
L 348.831095 -151.82084 
L 349.619788 -151.82084 
L 350.408481 -151.82084 
L 351.197173 -151.82084 
L 351.985866 -151.82084 
L 352.774558 -151.82084 
L 353.563251 -151.82084 
L 354.351943 -151.82084 
L 355.140636 -151.82084 
L 355.929329 -151.82084 
L 356.718021 -151.82084 
L 357.506714 -151.82084 
L 358.295406 -151.82084 
L 359.084099 -151.82084 
L 359.872792 -151.82084 
L 360.661484 -151.82084 
L 361.450177 -151.82084 
L 362.238869 -151.82084 
L 363.027562 -151.82084 
L 363.816254 -151.82084 
L 364.604947 -151.82084 
L 365.39364 -151.82084 
L 366.182332 -151.82084 
L 366.971025 -151.82084 
L 367.759717 -151.82084 
L 368.54841 -151.82084 
L 369.337102 -151.82084 
L 370.125795 -151.82084 
L 370.914488 -151.82084 
L 371.70318 -151.82084 
L 372.491873 -151.82084 
L 373.280565 -151.82084 
L 374.069258 -151.82084 
L 374.857951 -151.82084 
L 375.646643 -151.82084 
L 376.435336 -151.82084 
L 377.224028 -151.82084 
L 378.012721 -151.82084 
L 378.801413 -151.82084 
L 379.590106 -151.82084 
L 380.378799 -151.82084 
L 381.167491 -151.82084 
L 381.956184 -151.82084 
L 382.744876 -151.82084 
L 383.533569 -151.82084 
L 384.322261 -151.82084 
L 385.110954 -151.82084 
L 385.899647 -151.82084 
L 386.688339 -151.82084 
L 387.477032 -151.82084 
L 388.265724 -151.82084 
L 389.054417 -151.82084 
L 389.84311 -151.82084 
L 390.631802 -151.82084 
L 391.420495 -151.82084 
L 392.209187 -151.82084 
L 392.99788 -151.82084 
L 393.786572 -151.82084 
L 394.575265 -151.82084 
L 395.363958 -151.82084 
L 396.15265 -151.82084 
L 396.941343 -151.82084 
L 397.730035 -151.82084 
L 398.518728 -151.82084 
L 399.30742 -151.82084 
L 400.096113 -151.82084 
L 400.884806 -151.82084 
L 401.673498 -151.82084 
L 402.462191 -151.82084 
L 403.250883 -151.82084 
L 404.039576 -151.82084 
L 404.828269 -151.82084 
L 405.616961 -151.82084 
L 406.405654 -151.82084 
L 407.194346 -151.82084 
L 407.983039 -151.82084 
L 408.771731 -151.82084 
L 409.560424 -151.82084 
L 410.349117 -151.82084 
L 411.137809 -151.82084 
L 411.926502 -151.82084 
L 412.715194 -151.82084 
L 413.503887 -151.82084 
L 414.29258 -151.82084 
L 415.081272 -151.82084 
L 415.869965 -151.82084 
L 416.658657 -151.82084 
L 417.44735 -151.82084 
L 418.236042 -151.82084 
L 419.024735 -151.82084 
L 419.813428 -151.82084 
L 420.60212 -151.82084 
L 421.390813 -151.82084 
L 422.179505 -151.82084 
L 422.968198 -151.82084 
L 423.75689 -151.82084 
L 424.545583 -151.82084 
L 425.334276 -151.82084 
L 426.122968 -151.82084 
L 426.911661 -151.82084 
L 427.700353 -151.82084 
L 428.489046 -151.82084 
L 429.277739 -151.82084 
L 430.066431 -151.82084 
L 430.855124 -151.82084 
L 431.643816 -151.82084 
L 432.432509 -151.82084 
L 433.221201 -151.82084 
L 434.009894 -151.82084 
L 434.798587 -151.82084 
L 435.587279 -151.82084 
L 436.375972 -151.82084 
L 437.164664 -151.82084 
L 437.953357 -151.82084 
L 438.742049 -151.82084 
L 439.530742 -151.82084 
L 440.319435 -151.82084 
L 441.108127 -151.82084 
L 441.89682 -151.82084 
L 442.685512 -151.82084 
L 443.474205 -151.82084 
L 444.262898 -151.82084 
L 445.05159 -151.82084 
L 445.840283 -151.82084 
L 446.628975 -151.82084 
L 447.417668 -151.82084 
L 448.20636 -151.82084 
L 448.995053 -151.82084 
L 449.783746 -151.82084 
L 450.572438 -151.82084 
L 451.361131 -151.82084 
L 452.149823 -151.82084 
L 452.938516 -151.82084 
L 453.727208 -151.82084 
L 454.515901 -151.82084 
L 455.304594 -151.82084 
L 456.093286 -151.82084 
L 456.881979 -151.82084 
L 457.670671 -151.82084 
L 458.459364 -151.82084 
L 459.248057 -151.82084 
L 460.036749 -151.82084 
L 460.825442 -151.82084 
L 461.614134 -151.82084 
L 462.402827 -151.82084 
L 463.191519 -151.82084 
L 463.980212 -151.82084 
L 464.768905 -151.82084 
L 465.557597 -151.82084 
L 466.34629 -151.82084 
L 467.134982 -151.82084 
L 467.923675 -151.82084 
L 468.712367 -151.82084 
L 469.50106 -151.82084 
L 470.289753 -151.82084 
L 471.078445 -151.82084 
L 471.867138 -151.82084 
L 472.65583 -151.82084 
L 473.444523 -151.82084 
L 474.233216 -151.82084 
L 475.021908 -151.82084 
L 475.810601 -151.82084 
L 476.599293 -151.82084 
L 477.387986 -151.82084 
L 478.176678 -151.82084 
L 478.965371 -151.82084 
L 479.754064 -151.82084 
L 480.542756 -151.82084 
L 481.331449 -151.82084 
L 482.120141 -151.82084 
L 482.908834 -151.82084 
L 483.697527 -151.82084 
L 484.486219 -151.82084 
L 485.274912 -151.82084 
L 486.063604 -151.82084 
L 486.852297 -151.82084 
L 487.640989 -151.82084 
L 488.429682 -151.82084 
L 489.218375 -151.82084 
L 490.007067 -151.82084 
L 490.79576 -151.82084 
L 491.584452 -151.82084 
L 492.373145 -151.82084 
L 493.161837 -151.82084 
L 493.95053 -151.82084 
L 494.739223 -151.82084 
L 495.527915 -151.82084 
L 496.316608 -151.82084 
L 497.1053 -151.82084 
L 497.893993 -151.82084 
L 498.682686 -151.82084 
L 499.471378 -151.82084 
L 500.260071 -151.82084 
L 501.048763 -151.82084 
L 501.837456 -151.82084 
L 502.626148 -151.82084 
L 503.414841 -151.82084 
L 504.203534 -151.82084 
L 504.992226 -151.82084 
L 505.780919 -151.82084 
L 506.569611 -151.82084 
L 507.358304 -151.82084 
L 508.146996 -151.82084 
L 508.935689 -151.82084 
L 509.724382 -151.82084 
L 510.513074 -151.82084 
L 511.301767 -151.82084 
L 512.090459 -151.82084 
L 512.879152 -151.82084 
L 513.667845 -151.82084 
L 514.456537 -151.82084 
L 515.24523 -151.82084 
L 516.033922 -151.82084 
L 516.822615 -151.82084 
L 517.611307 -151.82084 
L 518.4 -151.82084 
L 518.4 -146.691936 
L 518.4 -146.691936 
L 517.611307 -146.691936 
L 516.822615 -146.691936 
L 516.033922 -146.691936 
L 515.24523 -146.691936 
L 514.456537 -146.691936 
L 513.667845 -146.691936 
L 512.879152 -146.691936 
L 512.090459 -146.691936 
L 511.301767 -146.691936 
L 510.513074 -146.691936 
L 509.724382 -146.691936 
L 508.935689 -146.691936 
L 508.146996 -146.691936 
L 507.358304 -146.691936 
L 506.569611 -146.691936 
L 505.780919 -146.691936 
L 504.992226 -146.691936 
L 504.203534 -146.691936 
L 503.414841 -146.691936 
L 502.626148 -146.691936 
L 501.837456 -146.691936 
L 501.048763 -146.691936 
L 500.260071 -146.691936 
L 499.471378 -146.691936 
L 498.682686 -146.691936 
L 497.893993 -146.691936 
L 497.1053 -146.691936 
L 496.316608 -146.691936 
L 495.527915 -146.691936 
L 494.739223 -146.691936 
L 493.95053 -146.691936 
L 493.161837 -146.691936 
L 492.373145 -146.691936 
L 491.584452 -146.691936 
L 490.79576 -146.691936 
L 490.007067 -146.691936 
L 489.218375 -146.691936 
L 488.429682 -146.691936 
L 487.640989 -146.691936 
L 486.852297 -146.691936 
L 486.063604 -146.691936 
L 485.274912 -146.691936 
L 484.486219 -146.691936 
L 483.697527 -146.691936 
L 482.908834 -146.691936 
L 482.120141 -146.691936 
L 481.331449 -146.691936 
L 480.542756 -146.691936 
L 479.754064 -146.691936 
L 478.965371 -146.691936 
L 478.176678 -146.691936 
L 477.387986 -146.691936 
L 476.599293 -146.691936 
L 475.810601 -146.691936 
L 475.021908 -146.691936 
L 474.233216 -146.691936 
L 473.444523 -146.691936 
L 472.65583 -146.691936 
L 471.867138 -146.691936 
L 471.078445 -146.691936 
L 470.289753 -146.691936 
L 469.50106 -146.691936 
L 468.712367 -146.691936 
L 467.923675 -146.691936 
L 467.134982 -146.691936 
L 466.34629 -146.691936 
L 465.557597 -146.691936 
L 464.768905 -146.691936 
L 463.980212 -146.691936 
L 463.191519 -146.691936 
L 462.402827 -146.691936 
L 461.614134 -146.691936 
L 460.825442 -146.691936 
L 460.036749 -146.691936 
L 459.248057 -146.691936 
L 458.459364 -146.691936 
L 457.670671 -146.691936 
L 456.881979 -146.691936 
L 456.093286 -146.691936 
L 455.304594 -146.691936 
L 454.515901 -146.691936 
L 453.727208 -146.691936 
L 452.938516 -146.691936 
L 452.149823 -146.691936 
L 451.361131 -146.691936 
L 450.572438 -146.691936 
L 449.783746 -146.691936 
L 448.995053 -146.691936 
L 448.20636 -146.691936 
L 447.417668 -146.691936 
L 446.628975 -146.691936 
L 445.840283 -146.691936 
L 445.05159 -146.691936 
L 444.262898 -146.691936 
L 443.474205 -146.691936 
L 442.685512 -146.691936 
L 441.89682 -146.691936 
L 441.108127 -146.691936 
L 440.319435 -146.691936 
L 439.530742 -146.691936 
L 438.742049 -146.691936 
L 437.953357 -146.691936 
L 437.164664 -146.691936 
L 436.375972 -146.691936 
L 435.587279 -146.691936 
L 434.798587 -146.691936 
L 434.009894 -146.691936 
L 433.221201 -146.691936 
L 432.432509 -146.691936 
L 431.643816 -146.691936 
L 430.855124 -146.691936 
L 430.066431 -146.691936 
L 429.277739 -146.691936 
L 428.489046 -146.691936 
L 427.700353 -146.691936 
L 426.911661 -146.691936 
L 426.122968 -146.691936 
L 425.334276 -146.691936 
L 424.545583 -146.691936 
L 423.75689 -146.691936 
L 422.968198 -146.691936 
L 422.179505 -146.691936 
L 421.390813 -146.691936 
L 420.60212 -146.691936 
L 419.813428 -146.691936 
L 419.024735 -146.691936 
L 418.236042 -146.691936 
L 417.44735 -146.691936 
L 416.658657 -146.691936 
L 415.869965 -146.691936 
L 415.081272 -146.691936 
L 414.29258 -146.691936 
L 413.503887 -146.691936 
L 412.715194 -146.691936 
L 411.926502 -146.691936 
L 411.137809 -146.691936 
L 410.349117 -146.691936 
L 409.560424 -146.691936 
L 408.771731 -146.691936 
L 407.983039 -146.691936 
L 407.194346 -146.691936 
L 406.405654 -146.691936 
L 405.616961 -146.691936 
L 404.828269 -146.691936 
L 404.039576 -146.691936 
L 403.250883 -146.691936 
L 402.462191 -146.691936 
L 401.673498 -146.691936 
L 400.884806 -146.691936 
L 400.096113 -146.691936 
L 399.30742 -146.691936 
L 398.518728 -146.691936 
L 397.730035 -146.691936 
L 396.941343 -146.691936 
L 396.15265 -146.691936 
L 395.363958 -146.691936 
L 394.575265 -146.691936 
L 393.786572 -146.691936 
L 392.99788 -146.691936 
L 392.209187 -146.691936 
L 391.420495 -146.691936 
L 390.631802 -146.691936 
L 389.84311 -146.691936 
L 389.054417 -146.691936 
L 388.265724 -146.691936 
L 387.477032 -146.691936 
L 386.688339 -146.691936 
L 385.899647 -146.691936 
L 385.110954 -146.691936 
L 384.322261 -146.691936 
L 383.533569 -146.691936 
L 382.744876 -146.691936 
L 381.956184 -146.691936 
L 381.167491 -146.691936 
L 380.378799 -146.691936 
L 379.590106 -146.691936 
L 378.801413 -146.691936 
L 378.012721 -146.691936 
L 377.224028 -146.691936 
L 376.435336 -146.691936 
L 375.646643 -146.691936 
L 374.857951 -146.691936 
L 374.069258 -146.691936 
L 373.280565 -146.691936 
L 372.491873 -146.691936 
L 371.70318 -146.691936 
L 370.914488 -146.691936 
L 370.125795 -146.691936 
L 369.337102 -146.691936 
L 368.54841 -146.691936 
L 367.759717 -146.691936 
L 366.971025 -146.691936 
L 366.182332 -146.691936 
L 365.39364 -146.691936 
L 364.604947 -146.691936 
L 363.816254 -146.691936 
L 363.027562 -146.691936 
L 362.238869 -146.691936 
L 361.450177 -146.691936 
L 360.661484 -146.691936 
L 359.872792 -146.691936 
L 359.084099 -146.691936 
L 358.295406 -146.691936 
L 357.506714 -146.691936 
L 356.718021 -146.691936 
L 355.929329 -146.691936 
L 355.140636 -146.691936 
L 354.351943 -146.691936 
L 353.563251 -146.691936 
L 352.774558 -146.691936 
L 351.985866 -146.691936 
L 351.197173 -146.691936 
L 350.408481 -146.691936 
L 349.619788 -146.691936 
L 348.831095 -146.691936 
L 348.042403 -146.691936 
L 347.25371 -146.691936 
L 346.465018 -146.691936 
L 345.676325 -146.691936 
L 344.887633 -146.691936 
L 344.09894 -146.691936 
L 343.310247 -146.691936 
L 342.521555 -146.691936 
L 341.732862 -146.691936 
L 340.94417 -146.691936 
L 340.155477 -146.691936 
L 339.366784 -146.691936 
L 338.578092 -146.691936 
L 337.789399 -146.691936 
L 337.000707 -146.691936 
L 336.212014 -146.691936 
L 335.423322 -146.691936 
L 334.634629 -146.691936 
L 333.845936 -146.691936 
L 333.057244 -146.691936 
L 332.268551 -146.691936 
L 331.479859 -146.691936 
L 330.691166 -146.691936 
L 329.902473 -146.691936 
L 329.113781 -146.691936 
L 328.325088 -146.691936 
L 327.536396 -146.691936 
L 326.747703 -146.691936 
L 325.959011 -146.691936 
L 325.170318 -146.691936 
L 324.381625 -146.691936 
L 323.592933 -146.691936 
L 322.80424 -146.691936 
L 322.015548 -146.691936 
L 321.226855 -146.691936 
L 320.438163 -146.691936 
L 319.64947 -146.691936 
L 318.860777 -146.691936 
L 318.072085 -146.691936 
L 317.283392 -146.691936 
L 316.4947 -146.691936 
L 315.706007 -146.691936 
L 314.917314 -146.691936 
L 314.128622 -146.691936 
L 313.339929 -146.691936 
L 312.551237 -146.691936 
L 311.762544 -146.691936 
L 310.973852 -146.691936 
L 310.185159 -146.691936 
L 309.396466 -146.691936 
L 308.607774 -146.691936 
L 307.819081 -146.691936 
L 307.030389 -146.691936 
L 306.241696 -146.691936 
L 305.453004 -146.691936 
L 304.664311 -146.691936 
L 303.875618 -146.691936 
L 303.086926 -146.691936 
L 302.298233 -146.691936 
L 301.509541 -146.691936 
L 300.720848 -146.691936 
L 299.932155 -146.691936 
L 299.143463 -146.691936 
L 298.35477 -146.691936 
L 297.566078 -146.691936 
L 296.777385 -146.691936 
L 295.988693 -146.691936 
L 295.2 -146.691936 
L 294.411307 -146.691936 
L 293.622615 -146.691936 
L 292.833922 -146.691936 
L 292.04523 -146.691936 
L 291.256537 -146.691936 
L 290.467845 -146.691936 
L 289.679152 -146.691936 
L 288.890459 -146.691936 
L 288.101767 -146.691936 
L 287.313074 -146.691936 
L 286.524382 -146.691936 
L 285.735689 -146.691936 
L 284.946996 -146.691936 
L 284.158304 -146.691936 
L 283.369611 -146.691936 
L 282.580919 -146.691936 
L 281.792226 -146.691936 
L 281.003534 -146.691936 
L 280.214841 -146.691936 
L 279.426148 -146.691936 
L 278.637456 -146.691936 
L 277.848763 -146.691936 
L 277.060071 -146.691936 
L 276.271378 -146.691936 
L 275.482686 -146.691936 
L 274.693993 -146.691936 
L 273.9053 -146.691936 
L 273.116608 -146.691936 
L 272.327915 -146.691936 
L 271.539223 -146.691936 
L 270.75053 -146.691936 
L 269.961837 -146.691936 
L 269.173145 -146.691936 
L 268.384452 -146.691936 
L 267.59576 -146.691936 
L 266.807067 -146.691936 
L 266.018375 -146.691936 
L 265.229682 -146.691936 
L 264.440989 -146.691936 
L 263.652297 -146.691936 
L 262.863604 -146.691936 
L 262.074912 -146.691936 
L 261.286219 -146.691936 
L 260.497527 -146.691936 
L 259.708834 -146.691936 
L 258.920141 -146.691936 
L 258.131449 -146.691936 
L 257.342756 -146.691936 
L 256.554064 -146.691936 
L 255.765371 -146.691936 
L 254.976678 -146.691936 
L 254.187986 -146.691936 
L 253.399293 -146.691936 
L 252.610601 -146.691936 
L 251.821908 -146.691936 
L 251.033216 -146.691936 
L 250.244523 -146.691936 
L 249.45583 -146.691936 
L 248.667138 -146.691936 
L 247.878445 -146.691936 
L 247.089753 -146.691936 
L 246.30106 -146.691936 
L 245.512367 -146.691936 
L 244.723675 -146.691936 
L 243.934982 -146.691936 
L 243.14629 -146.691936 
L 242.357597 -146.691936 
L 241.568905 -146.691936 
L 240.780212 -146.691936 
L 239.991519 -146.691936 
L 239.202827 -146.691936 
L 238.414134 -146.691936 
L 237.625442 -146.691936 
L 236.836749 -146.691936 
L 236.048057 -146.691936 
L 235.259364 -146.691936 
L 234.470671 -146.691936 
L 233.681979 -146.691936 
L 232.893286 -146.691936 
L 232.104594 -146.691936 
L 231.315901 -146.691936 
L 230.527208 -146.691936 
L 229.738516 -146.691936 
L 228.949823 -146.691936 
L 228.161131 -146.691936 
L 227.372438 -146.691936 
L 226.583746 -146.691936 
L 225.795053 -146.691936 
L 225.00636 -146.691936 
L 224.217668 -146.691936 
L 223.428975 -146.691936 
L 222.640283 -146.691936 
L 221.85159 -146.691936 
L 221.062898 -146.691936 
L 220.274205 -146.691936 
L 219.485512 -146.691936 
L 218.69682 -146.691936 
L 217.908127 -146.691936 
L 217.119435 -146.691936 
L 216.330742 -146.691936 
L 215.542049 -146.691936 
L 214.753357 -146.691936 
L 213.964664 -146.691936 
L 213.175972 -146.691936 
L 212.387279 -146.691936 
L 211.598587 -146.691936 
L 210.809894 -146.691936 
L 210.021201 -146.691936 
L 209.232509 -146.691936 
L 208.443816 -146.691936 
L 207.655124 -146.691936 
L 206.866431 -146.691936 
L 206.077739 -146.691936 
L 205.289046 -146.691936 
L 204.500353 -146.691936 
L 203.711661 -146.691936 
L 202.922968 -146.691936 
L 202.134276 -146.691936 
L 201.345583 -146.691936 
L 200.55689 -146.691936 
L 199.768198 -146.691936 
L 198.979505 -146.691936 
L 198.190813 -146.691936 
L 197.40212 -146.691936 
L 196.613428 -146.691936 
L 195.824735 -146.691936 
L 195.036042 -146.691936 
L 194.24735 -146.691936 
L 193.458657 -146.691936 
L 192.669965 -146.691936 
L 191.881272 -146.691936 
L 191.09258 -146.691936 
L 190.303887 -146.691936 
L 189.515194 -146.691936 
L 188.726502 -146.691936 
L 187.937809 -146.691936 
L 187.149117 -146.691936 
L 186.360424 -146.691936 
L 185.571731 -146.691936 
L 184.783039 -146.691936 
L 183.994346 -146.691936 
L 183.205654 -146.691936 
L 182.416961 -146.691936 
L 181.628269 -146.691936 
L 180.839576 -146.691936 
L 180.050883 -146.691936 
L 179.262191 -146.691936 
L 178.473498 -146.691936 
L 177.684806 -146.691936 
L 176.896113 -146.691936 
L 176.10742 -146.691936 
L 175.318728 -146.691936 
L 174.530035 -146.691936 
L 173.741343 -146.691936 
L 172.95265 -146.691936 
L 172.163958 -146.691936 
L 171.375265 -146.691936 
L 170.586572 -146.691936 
L 169.79788 -146.691936 
L 169.009187 -146.691936 
L 168.220495 -146.691936 
L 167.431802 -146.691936 
L 166.64311 -146.691936 
L 165.854417 -146.691936 
L 165.065724 -146.691936 
L 164.277032 -146.691936 
L 163.488339 -146.691936 
L 162.699647 -146.691936 
L 161.910954 -146.691936 
L 161.122261 -146.691936 
L 160.333569 -146.691936 
L 159.544876 -146.691936 
L 158.756184 -146.691936 
L 157.967491 -146.691936 
L 157.178799 -146.691936 
L 156.390106 -146.691936 
L 155.601413 -146.691936 
L 154.812721 -146.691936 
L 154.024028 -146.691936 
L 153.235336 -146.691936 
L 152.446643 -146.691936 
L 151.657951 -146.691936 
L 150.869258 -146.691936 
L 150.080565 -146.691936 
L 149.291873 -146.691936 
L 148.50318 -146.691936 
L 147.714488 -146.691936 
L 146.925795 -146.691936 
L 146.137102 -146.691936 
L 145.34841 -146.691936 
L 144.559717 -146.691936 
L 143.771025 -146.691936 
L 142.982332 -146.691936 
L 142.19364 -146.691936 
L 141.404947 -146.691936 
L 140.616254 -146.691936 
L 139.827562 -146.691936 
L 139.038869 -146.691936 
L 138.250177 -146.691936 
L 137.461484 -146.691936 
L 136.672792 -146.691936 
L 135.884099 -146.691936 
L 135.095406 -146.691936 
L 134.306714 -146.691936 
L 133.518021 -146.691936 
L 132.729329 -146.691936 
L 131.940636 -146.691936 
L 131.151943 -146.691936 
L 130.363251 -146.691936 
L 129.574558 -146.691936 
L 128.785866 -146.691936 
L 127.997173 -146.691936 
L 127.208481 -146.691936 
L 126.419788 -146.691936 
L 125.631095 -146.691936 
L 124.842403 -146.691936 
L 124.05371 -146.691936 
L 123.265018 -146.691936 
L 122.476325 -146.691936 
L 121.687633 -146.691936 
L 120.89894 -146.691936 
L 120.110247 -146.691936 
L 119.321555 -146.691936 
L 118.532862 -146.691936 
L 117.74417 -146.691936 
L 116.955477 -146.691936 
L 116.166784 -146.691936 
L 115.378092 -146.691936 
L 114.589399 -146.691936 
L 113.800707 -146.691936 
L 113.012014 -146.691936 
L 112.223322 -146.691936 
L 111.434629 -146.691936 
L 110.645936 -146.691936 
L 109.857244 -146.691936 
L 109.068551 -146.691936 
L 108.279859 -146.691936 
L 107.491166 -146.691936 
L 106.702473 -146.691936 
L 105.913781 -146.691936 
L 105.125088 -146.691936 
L 104.336396 -146.691936 
L 103.547703 -146.691936 
L 102.759011 -146.691936 
L 101.970318 -146.691936 
L 101.181625 -146.691936 
L 100.392933 -146.691936 
L 99.60424 -146.691936 
L 98.815548 -146.691936 
L 98.026855 -146.691936 
L 97.238163 -146.691936 
L 96.44947 -146.691936 
L 95.660777 -146.691936 
L 94.872085 -146.691936 
L 94.083392 -146.691936 
L 93.2947 -146.691936 
L 92.506007 -146.691936 
L 91.717314 -146.691936 
L 90.928622 -146.691936 
L 90.139929 -146.691936 
L 89.351237 -146.691936 
L 88.562544 -146.691936 
L 87.773852 -146.691936 
L 86.985159 -146.691936 
L 86.196466 -146.691936 
L 85.407774 -146.691936 
L 84.619081 -146.691936 
L 83.830389 -146.691936 
L 83.041696 -146.691936 
L 82.253004 -146.691936 
L 81.464311 -146.691936 
L 80.675618 -146.691936 
L 79.886926 -146.691936 
L 79.098233 -146.691936 
L 78.309541 -146.691936 
L 77.520848 -146.691936 
L 76.732155 -146.691936 
L 75.943463 -146.691936 
L 75.15477 -146.691936 
L 74.366078 -146.691936 
L 73.577385 -146.691936 
L 72.788693 -146.691936 
L 72 -146.691936 
z
" id="m110a20d917"/>
    </defs>
    <g clip-path="url(#p6ee3be3fa2)">
     <use style="fill-opacity:0.15;" x="0" xlink:href="#m110a20d917" y="360"/>
    </g>
   </g>
   <g id="matplotlib.axis_1">
    <g id="xtick_1">
     <g id="line2d_1">
      <defs>
       <path d="M 0 0 
L 0 3.5 
" id="m14d56e87d8" style="stroke:#000000;stroke-width:0.8;"/>
      </defs>
      <g>
       <use style="stroke:#000000;stroke-width:0.8;" x="72" xlink:href="#m14d56e87d8" y="320.4"/>
      </g>
     </g>
     <g id="text_1">
      <!-- 0.0 -->
      <g transform="translate(60.867812 338.037813)scale(0.14 -0.14)">
       <defs>
        <path d="M 2034 4250 
Q 1547 4250 1301 3770 
Q 1056 3291 1056 2328 
Q 1056 1369 1301 889 
Q 1547 409 2034 409 
Q 2525 409 2770 889 
Q 3016 1369 3016 2328 
Q 3016 3291 2770 3770 
Q 2525 4250 2034 4250 
z
M 2034 4750 
Q 2819 4750 3233 4129 
Q 3647 3509 3647 2328 
Q 3647 1150 3233 529 
Q 2819 -91 2034 -91 
Q 1250 -91 836 529 
Q 422 1150 422 2328 
Q 422 3509 836 4129 
Q 1250 4750 2034 4750 
z
" id="DejaVuSans-30" transform="scale(0.015625)"/>
        <path d="M 684 794 
L 1344 794 
L 1344 0 
L 684 0 
L 684 794 
z
" id="DejaVuSans-2e" transform="scale(0.015625)"/>
       </defs>
       <use xlink:href="#DejaVuSans-30"/>
       <use x="63.623047" xlink:href="#DejaVuSans-2e"/>
       <use x="95.410156" xlink:href="#DejaVuSans-30"/>
      </g>
     </g>
    </g>
    <g id="xtick_2">
     <g id="line2d_2">
      <g>
       <use style="stroke:#000000;stroke-width:0.8;" x="127.805581" xlink:href="#m14d56e87d8" y="320.4"/>
      </g>
     </g>
     <g id="text_2">
      <!-- 2.5 -->
      <g transform="translate(116.673393 338.037813)scale(0.14 -0.14)">
       <defs>
        <path d="M 1228 531 
L 3431 531 
L 3431 0 
L 469 0 
L 469 531 
Q 828 903 1448 1529 
Q 2069 2156 2228 2338 
Q 2531 2678 2651 2914 
Q 2772 3150 2772 3378 
Q 2772 3750 2511 3984 
Q 2250 4219 1831 4219 
Q 1534 4219 1204 4116 
Q 875 4013 500 3803 
L 500 4441 
Q 881 4594 1212 4672 
Q 1544 4750 1819 4750 
Q 2544 4750 2975 4387 
Q 3406 4025 3406 3419 
Q 3406 3131 3298 2873 
Q 3191 2616 2906 2266 
Q 2828 2175 2409 1742 
Q 1991 1309 1228 531 
z
" id="DejaVuSans-32" transform="scale(0.015625)"/>
        <path d="M 691 4666 
L 3169 4666 
L 3169 4134 
L 1269 4134 
L 1269 2991 
Q 1406 3038 1543 3061 
Q 1681 3084 1819 3084 
Q 2600 3084 3056 2656 
Q 3513 2228 3513 1497 
Q 3513 744 3044 326 
Q 2575 -91 1722 -91 
Q 1428 -91 1123 -41 
Q 819 9 494 109 
L 494 744 
Q 775 591 1075 516 
Q 1375 441 1709 441 
Q 2250 441 2565 725 
Q 2881 1009 2881 1497 
Q 2881 1984 2565 2268 
Q 2250 2553 1709 2553 
Q 1456 2553 1204 2497 
Q 953 2441 691 2322 
L 691 4666 
z
" id="DejaVuSans-35" transform="scale(0.015625)"/>
       </defs>
       <use xlink:href="#DejaVuSans-32"/>
       <use x="63.623047" xlink:href="#DejaVuSans-2e"/>
       <use x="95.410156" xlink:href="#DejaVuSans-35"/>
      </g>
     </g>
    </g>
    <g id="xtick_3">
     <g id="line2d_3">
      <g>
       <use style="stroke:#000000;stroke-width:0.8;" x="183.611161" xlink:href="#m14d56e87d8" y="320.4"/>
      </g>
     </g>
     <g id="text_3">
      <!-- 5.0 -->
      <g transform="translate(172.478974 338.037813)scale(0.14 -0.14)">
       <use xlink:href="#DejaVuSans-35"/>
       <use x="63.623047" xlink:href="#DejaVuSans-2e"/>
       <use x="95.410156" xlink:href="#DejaVuSans-30"/>
      </g>
     </g>
    </g>
    <g id="xtick_4">
     <g id="line2d_4">
      <g>
       <use style="stroke:#000000;stroke-width:0.8;" x="239.416742" xlink:href="#m14d56e87d8" y="320.4"/>
      </g>
     </g>
     <g id="text_4">
      <!-- 7.5 -->
      <g transform="translate(228.284554 338.037813)scale(0.14 -0.14)">
       <defs>
        <path d="M 525 4666 
L 3525 4666 
L 3525 4397 
L 1831 0 
L 1172 0 
L 2766 4134 
L 525 4134 
L 525 4666 
z
" id="DejaVuSans-37" transform="scale(0.015625)"/>
       </defs>
       <use xlink:href="#DejaVuSans-37"/>
       <use x="63.623047" xlink:href="#DejaVuSans-2e"/>
       <use x="95.410156" xlink:href="#DejaVuSans-35"/>
      </g>
     </g>
    </g>
    <g id="xtick_5">
     <g id="line2d_5">
      <g>
       <use style="stroke:#000000;stroke-width:0.8;" x="295.222322" xlink:href="#m14d56e87d8" y="320.4"/>
      </g>
     </g>
     <g id="text_5">
      <!-- 10.0 -->
      <g transform="translate(279.636385 338.037813)scale(0.14 -0.14)">
       <defs>
        <path d="M 794 531 
L 1825 531 
L 1825 4091 
L 703 3866 
L 703 4441 
L 1819 4666 
L 2450 4666 
L 2450 531 
L 3481 531 
L 3481 0 
L 794 0 
L 794 531 
z
" id="DejaVuSans-31" transform="scale(0.015625)"/>
       </defs>
       <use xlink:href="#DejaVuSans-31"/>
       <use x="63.623047" xlink:href="#DejaVuSans-30"/>
       <use x="127.246094" xlink:href="#DejaVuSans-2e"/>
       <use x="159.033203" xlink:href="#DejaVuSans-30"/>
      </g>
     </g>
    </g>
    <g id="xtick_6">
     <g id="line2d_6">
      <g>
       <use style="stroke:#000000;stroke-width:0.8;" x="351.027903" xlink:href="#m14d56e87d8" y="320.4"/>
      </g>
     </g>
     <g id="text_6">
      <!-- 12.5 -->
      <g transform="translate(335.441965 338.037813)scale(0.14 -0.14)">
       <use xlink:href="#DejaVuSans-31"/>
       <use x="63.623047" xlink:href="#DejaVuSans-32"/>
       <use x="127.246094" xlink:href="#DejaVuSans-2e"/>
       <use x="159.033203" xlink:href="#DejaVuSans-35"/>
      </g>
     </g>
    </g>
    <g id="xtick_7">
     <g id="line2d_7">
      <g>
       <use style="stroke:#000000;stroke-width:0.8;" x="406.833483" xlink:href="#m14d56e87d8" y="320.4"/>
      </g>
     </g>
     <g id="text_7">
      <!-- 15.0 -->
      <g transform="translate(391.247546 338.037813)scale(0.14 -0.14)">
       <use xlink:href="#DejaVuSans-31"/>
       <use x="63.623047" xlink:href="#DejaVuSans-35"/>
       <use x="127.246094" xlink:href="#DejaVuSans-2e"/>
       <use x="159.033203" xlink:href="#DejaVuSans-30"/>
      </g>
     </g>
    </g>
    <g id="xtick_8">
     <g id="line2d_8">
      <g>
       <use style="stroke:#000000;stroke-width:0.8;" x="462.639064" xlink:href="#m14d56e87d8" y="320.4"/>
      </g>
     </g>
     <g id="text_8">
      <!-- 17.5 -->
      <g transform="translate(447.053126 338.037813)scale(0.14 -0.14)">
       <use xlink:href="#DejaVuSans-31"/>
       <use x="63.623047" xlink:href="#DejaVuSans-37"/>
       <use x="127.246094" xlink:href="#DejaVuSans-2e"/>
       <use x="159.033203" xlink:href="#DejaVuSans-35"/>
      </g>
     </g>
    </g>
    <g id="text_9">
     <!-- Time [Seconds] -->
     <g transform="translate(233.23 357.106875)scale(0.16 -0.16)">
      <defs>
       <path d="M -19 4666 
L 3928 4666 
L 3928 4134 
L 2272 4134 
L 2272 0 
L 1638 0 
L 1638 4134 
L -19 4134 
L -19 4666 
z
" id="DejaVuSans-54" transform="scale(0.015625)"/>
       <path d="M 603 3500 
L 1178 3500 
L 1178 0 
L 603 0 
L 603 3500 
z
M 603 4863 
L 1178 4863 
L 1178 4134 
L 603 4134 
L 603 4863 
z
" id="DejaVuSans-69" transform="scale(0.015625)"/>
       <path d="M 3328 2828 
Q 3544 3216 3844 3400 
Q 4144 3584 4550 3584 
Q 5097 3584 5394 3201 
Q 5691 2819 5691 2113 
L 5691 0 
L 5113 0 
L 5113 2094 
Q 5113 2597 4934 2840 
Q 4756 3084 4391 3084 
Q 3944 3084 3684 2787 
Q 3425 2491 3425 1978 
L 3425 0 
L 2847 0 
L 2847 2094 
Q 2847 2600 2669 2842 
Q 2491 3084 2119 3084 
Q 1678 3084 1418 2786 
Q 1159 2488 1159 1978 
L 1159 0 
L 581 0 
L 581 3500 
L 1159 3500 
L 1159 2956 
Q 1356 3278 1631 3431 
Q 1906 3584 2284 3584 
Q 2666 3584 2933 3390 
Q 3200 3197 3328 2828 
z
" id="DejaVuSans-6d" transform="scale(0.015625)"/>
       <path d="M 3597 1894 
L 3597 1613 
L 953 1613 
Q 991 1019 1311 708 
Q 1631 397 2203 397 
Q 2534 397 2845 478 
Q 3156 559 3463 722 
L 3463 178 
Q 3153 47 2828 -22 
Q 2503 -91 2169 -91 
Q 1331 -91 842 396 
Q 353 884 353 1716 
Q 353 2575 817 3079 
Q 1281 3584 2069 3584 
Q 2775 3584 3186 3129 
Q 3597 2675 3597 1894 
z
M 3022 2063 
Q 3016 2534 2758 2815 
Q 2500 3097 2075 3097 
Q 1594 3097 1305 2825 
Q 1016 2553 972 2059 
L 3022 2063 
z
" id="DejaVuSans-65" transform="scale(0.015625)"/>
       <path id="DejaVuSans-20" transform="scale(0.015625)"/>
       <path d="M 550 4863 
L 1875 4863 
L 1875 4416 
L 1125 4416 
L 1125 -397 
L 1875 -397 
L 1875 -844 
L 550 -844 
L 550 4863 
z
" id="DejaVuSans-5b" transform="scale(0.015625)"/>
       <path d="M 3425 4513 
L 3425 3897 
Q 3066 4069 2747 4153 
Q 2428 4238 2131 4238 
Q 1616 4238 1336 4038 
Q 1056 3838 1056 3469 
Q 1056 3159 1242 3001 
Q 1428 2844 1947 2747 
L 2328 2669 
Q 3034 2534 3370 2195 
Q 3706 1856 3706 1288 
Q 3706 609 3251 259 
Q 2797 -91 1919 -91 
Q 1588 -91 1214 -16 
Q 841 59 441 206 
L 441 856 
Q 825 641 1194 531 
Q 1563 422 1919 422 
Q 2459 422 2753 634 
Q 3047 847 3047 1241 
Q 3047 1584 2836 1778 
Q 2625 1972 2144 2069 
L 1759 2144 
Q 1053 2284 737 2584 
Q 422 2884 422 3419 
Q 422 4038 858 4394 
Q 1294 4750 2059 4750 
Q 2388 4750 2728 4690 
Q 3069 4631 3425 4513 
z
" id="DejaVuSans-53" transform="scale(0.015625)"/>
       <path d="M 3122 3366 
L 3122 2828 
Q 2878 2963 2633 3030 
Q 2388 3097 2138 3097 
Q 1578 3097 1268 2742 
Q 959 2388 959 1747 
Q 959 1106 1268 751 
Q 1578 397 2138 397 
Q 2388 397 2633 464 
Q 2878 531 3122 666 
L 3122 134 
Q 2881 22 2623 -34 
Q 2366 -91 2075 -91 
Q 1284 -91 818 406 
Q 353 903 353 1747 
Q 353 2603 823 3093 
Q 1294 3584 2113 3584 
Q 2378 3584 2631 3529 
Q 2884 3475 3122 3366 
z
" id="DejaVuSans-63" transform="scale(0.015625)"/>
       <path d="M 1959 3097 
Q 1497 3097 1228 2736 
Q 959 2375 959 1747 
Q 959 1119 1226 758 
Q 1494 397 1959 397 
Q 2419 397 2687 759 
Q 2956 1122 2956 1747 
Q 2956 2369 2687 2733 
Q 2419 3097 1959 3097 
z
M 1959 3584 
Q 2709 3584 3137 3096 
Q 3566 2609 3566 1747 
Q 3566 888 3137 398 
Q 2709 -91 1959 -91 
Q 1206 -91 779 398 
Q 353 888 353 1747 
Q 353 2609 779 3096 
Q 1206 3584 1959 3584 
z
" id="DejaVuSans-6f" transform="scale(0.015625)"/>
       <path d="M 3513 2113 
L 3513 0 
L 2938 0 
L 2938 2094 
Q 2938 2591 2744 2837 
Q 2550 3084 2163 3084 
Q 1697 3084 1428 2787 
Q 1159 2491 1159 1978 
L 1159 0 
L 581 0 
L 581 3500 
L 1159 3500 
L 1159 2956 
Q 1366 3272 1645 3428 
Q 1925 3584 2291 3584 
Q 2894 3584 3203 3211 
Q 3513 2838 3513 2113 
z
" id="DejaVuSans-6e" transform="scale(0.015625)"/>
       <path d="M 2906 2969 
L 2906 4863 
L 3481 4863 
L 3481 0 
L 2906 0 
L 2906 525 
Q 2725 213 2448 61 
Q 2172 -91 1784 -91 
Q 1150 -91 751 415 
Q 353 922 353 1747 
Q 353 2572 751 3078 
Q 1150 3584 1784 3584 
Q 2172 3584 2448 3432 
Q 2725 3281 2906 2969 
z
M 947 1747 
Q 947 1113 1208 752 
Q 1469 391 1925 391 
Q 2381 391 2643 752 
Q 2906 1113 2906 1747 
Q 2906 2381 2643 2742 
Q 2381 3103 1925 3103 
Q 1469 3103 1208 2742 
Q 947 2381 947 1747 
z
" id="DejaVuSans-64" transform="scale(0.015625)"/>
       <path d="M 2834 3397 
L 2834 2853 
Q 2591 2978 2328 3040 
Q 2066 3103 1784 3103 
Q 1356 3103 1142 2972 
Q 928 2841 928 2578 
Q 928 2378 1081 2264 
Q 1234 2150 1697 2047 
L 1894 2003 
Q 2506 1872 2764 1633 
Q 3022 1394 3022 966 
Q 3022 478 2636 193 
Q 2250 -91 1575 -91 
Q 1294 -91 989 -36 
Q 684 19 347 128 
L 347 722 
Q 666 556 975 473 
Q 1284 391 1588 391 
Q 1994 391 2212 530 
Q 2431 669 2431 922 
Q 2431 1156 2273 1281 
Q 2116 1406 1581 1522 
L 1381 1569 
Q 847 1681 609 1914 
Q 372 2147 372 2553 
Q 372 3047 722 3315 
Q 1072 3584 1716 3584 
Q 2034 3584 2315 3537 
Q 2597 3491 2834 3397 
z
" id="DejaVuSans-73" transform="scale(0.015625)"/>
       <path d="M 1947 4863 
L 1947 -844 
L 622 -844 
L 622 -397 
L 1369 -397 
L 1369 4416 
L 622 4416 
L 622 4863 
L 1947 4863 
z
" id="DejaVuSans-5d" transform="scale(0.015625)"/>
      </defs>
      <use xlink:href="#DejaVuSans-54"/>
      <use x="57.958984" xlink:href="#DejaVuSans-69"/>
      <use x="85.742188" xlink:href="#DejaVuSans-6d"/>
      <use x="183.154297" xlink:href="#DejaVuSans-65"/>
      <use x="244.677734" xlink:href="#DejaVuSans-20"/>
      <use x="276.464844" xlink:href="#DejaVuSans-5b"/>
      <use x="315.478516" xlink:href="#DejaVuSans-53"/>
      <use x="378.955078" xlink:href="#DejaVuSans-65"/>
      <use x="440.478516" xlink:href="#DejaVuSans-63"/>
      <use x="495.458984" xlink:href="#DejaVuSans-6f"/>
      <use x="556.640625" xlink:href="#DejaVuSans-6e"/>
      <use x="620.019531" xlink:href="#DejaVuSans-64"/>
      <use x="683.496094" xlink:href="#DejaVuSans-73"/>
      <use x="735.595703" xlink:href="#DejaVuSans-5d"/>
     </g>
    </g>
   </g>
   <g id="matplotlib.axis_2">
    <g id="ytick_1">
     <g id="line2d_9">
      <defs>
       <path d="M 0 0 
L -3.5 0 
" id="m1543d1f691" style="stroke:#000000;stroke-width:0.8;"/>
      </defs>
      <g>
       <use style="stroke:#000000;stroke-width:0.8;" x="72" xlink:href="#m1543d1f691" y="279.790323"/>
      </g>
     </g>
     <g id="text_10">
      <!-- 0.0 -->
      <g transform="translate(42.735625 285.10923)scale(0.14 -0.14)">
       <use xlink:href="#DejaVuSans-30"/>
       <use x="63.623047" xlink:href="#DejaVuSans-2e"/>
       <use x="95.410156" xlink:href="#DejaVuSans-30"/>
      </g>
     </g>
    </g>
    <g id="ytick_2">
     <g id="line2d_10">
      <g>
       <use style="stroke:#000000;stroke-width:0.8;" x="72" xlink:href="#m1543d1f691" y="225.864076"/>
      </g>
     </g>
     <g id="text_11">
      <!-- 0.5 -->
      <g transform="translate(42.735625 231.182983)scale(0.14 -0.14)">
       <use xlink:href="#DejaVuSans-30"/>
       <use x="63.623047" xlink:href="#DejaVuSans-2e"/>
       <use x="95.410156" xlink:href="#DejaVuSans-35"/>
      </g>
     </g>
    </g>
    <g id="ytick_3">
     <g id="line2d_11">
      <g>
       <use style="stroke:#000000;stroke-width:0.8;" x="72" xlink:href="#m1543d1f691" y="171.93783"/>
      </g>
     </g>
     <g id="text_12">
      <!-- 1.0 -->
      <g transform="translate(42.735625 177.256736)scale(0.14 -0.14)">
       <use xlink:href="#DejaVuSans-31"/>
       <use x="63.623047" xlink:href="#DejaVuSans-2e"/>
       <use x="95.410156" xlink:href="#DejaVuSans-30"/>
      </g>
     </g>
    </g>
    <g id="ytick_4">
     <g id="line2d_12">
      <g>
       <use style="stroke:#000000;stroke-width:0.8;" x="72" xlink:href="#m1543d1f691" y="118.011583"/>
      </g>
     </g>
     <g id="text_13">
      <!-- 1.5 -->
      <g transform="translate(42.735625 123.330489)scale(0.14 -0.14)">
       <use xlink:href="#DejaVuSans-31"/>
       <use x="63.623047" xlink:href="#DejaVuSans-2e"/>
       <use x="95.410156" xlink:href="#DejaVuSans-35"/>
      </g>
     </g>
    </g>
    <g id="ytick_5">
     <g id="line2d_13">
      <g>
       <use style="stroke:#000000;stroke-width:0.8;" x="72" xlink:href="#m1543d1f691" y="64.085336"/>
      </g>
     </g>
     <g id="text_14">
      <!-- 2.0 -->
      <g transform="translate(42.735625 69.404242)scale(0.14 -0.14)">
       <use xlink:href="#DejaVuSans-32"/>
       <use x="63.623047" xlink:href="#DejaVuSans-2e"/>
       <use x="95.410156" xlink:href="#DejaVuSans-30"/>
      </g>
     </g>
    </g>
    <g id="text_15">
     <!-- Speed [mm/s] -->
     <g transform="translate(35.408125 238.11375)rotate(-90)scale(0.16 -0.16)">
      <defs>
       <path d="M 1159 525 
L 1159 -1331 
L 581 -1331 
L 581 3500 
L 1159 3500 
L 1159 2969 
Q 1341 3281 1617 3432 
Q 1894 3584 2278 3584 
Q 2916 3584 3314 3078 
Q 3713 2572 3713 1747 
Q 3713 922 3314 415 
Q 2916 -91 2278 -91 
Q 1894 -91 1617 61 
Q 1341 213 1159 525 
z
M 3116 1747 
Q 3116 2381 2855 2742 
Q 2594 3103 2138 3103 
Q 1681 3103 1420 2742 
Q 1159 2381 1159 1747 
Q 1159 1113 1420 752 
Q 1681 391 2138 391 
Q 2594 391 2855 752 
Q 3116 1113 3116 1747 
z
" id="DejaVuSans-70" transform="scale(0.015625)"/>
       <path d="M 1625 4666 
L 2156 4666 
L 531 -594 
L 0 -594 
L 1625 4666 
z
" id="DejaVuSans-2f" transform="scale(0.015625)"/>
      </defs>
      <use xlink:href="#DejaVuSans-53"/>
      <use x="63.476562" xlink:href="#DejaVuSans-70"/>
      <use x="126.953125" xlink:href="#DejaVuSans-65"/>
      <use x="188.476562" xlink:href="#DejaVuSans-65"/>
      <use x="250" xlink:href="#DejaVuSans-64"/>
      <use x="313.476562" xlink:href="#DejaVuSans-20"/>
      <use x="345.263672" xlink:href="#DejaVuSans-5b"/>
      <use x="384.277344" xlink:href="#DejaVuSans-6d"/>
      <use x="481.689453" xlink:href="#DejaVuSans-6d"/>
      <use x="579.101562" xlink:href="#DejaVuSans-2f"/>
      <use x="612.792969" xlink:href="#DejaVuSans-73"/>
      <use x="664.892578" xlink:href="#DejaVuSans-5d"/>
     </g>
    </g>
   </g>
   <g id="line2d_14">
    <path clip-path="url(#p6ee3be3fa2)" d="M 72 210.743612 
L 518.4 210.743612 
" style="fill:none;stroke:#000000;stroke-dasharray:5.55,2.4;stroke-dashoffset:0;stroke-width:1.5;"/>
   </g>
   <g id="line2d_15">
    <path clip-path="url(#p6ee3be3fa2)" d="M 72 278.925196 
L 142.982332 278.903958 
L 143.771025 279.058548 
L 144.559717 277.242603 
L 145.34841 276.008745 
L 146.137102 279.552182 
L 146.925795 281.601475 
L 147.714488 278.719369 
L 148.50318 284.029449 
L 149.291873 269.222876 
L 150.080565 261.835748 
L 150.869258 287.240323 
L 151.657951 304.532916 
L 152.446643 307.8 
L 153.235336 298.30825 
L 154.024028 281.657991 
L 154.812721 256.478124 
L 157.967491 123.090354 
L 158.756184 96.250783 
L 159.544876 77.666744 
L 160.333569 62.776257 
L 161.122261 55.8 
L 161.910954 57.739928 
L 162.699647 65.863297 
L 163.488339 80.819748 
L 165.065724 123.669507 
L 166.64311 169.372395 
L 167.431802 192.882449 
L 168.220495 207.5391 
L 169.009187 210.7384 
L 169.79788 208.02872 
L 170.586572 180.43907 
L 171.375265 169.262968 
L 172.163958 186.609128 
L 172.95265 191.587143 
L 174.530035 196.562236 
L 175.318728 200.666735 
L 176.10742 202.545506 
L 176.896113 201.332003 
L 177.684806 203.488374 
L 178.473498 204.690401 
L 179.262191 201.718938 
L 180.050883 202.876028 
L 180.839576 204.736133 
L 181.628269 203.375682 
L 182.416961 203.484689 
L 183.205654 204.305912 
L 183.994346 204.038324 
L 184.783039 204.845118 
L 185.571731 206.14521 
L 186.360424 206.388296 
L 187.149117 206.247505 
L 187.937809 207.021837 
L 188.726502 206.821949 
L 189.515194 207.202562 
L 190.303887 207.083811 
L 191.09258 207.097927 
L 191.881272 207.420879 
L 192.669965 206.773163 
L 195.036042 208.838404 
L 195.824735 209.133315 
L 196.613428 208.783634 
L 197.40212 209.283992 
L 198.979505 209.402934 
L 199.768198 209.761595 
L 200.55689 209.976236 
L 201.345583 209.838048 
L 202.134276 209.97052 
L 202.922968 210.266624 
L 203.711661 210.24429 
L 205.289046 209.679005 
L 206.077739 209.681351 
L 206.866431 210.092667 
L 208.443816 210.101125 
L 209.232509 210.541449 
L 212.387279 210.328427 
L 213.964664 209.955381 
L 214.753357 210.204482 
L 215.542049 210.293632 
L 216.330742 210.590773 
L 220.274205 210.822983 
L 221.062898 211.256572 
L 221.85159 211.413125 
L 223.428975 211.025674 
L 225.00636 211.473465 
L 227.372438 210.971454 
L 228.161131 211.145487 
L 228.949823 210.96473 
L 231.315901 210.895551 
L 232.893286 211.284109 
L 233.681979 211.224526 
L 234.470671 210.96116 
L 235.259364 210.990887 
L 236.048057 211.165625 
L 236.836749 210.923925 
L 237.625442 210.867817 
L 239.991519 211.249337 
L 240.780212 211.064315 
L 242.357597 211.252262 
L 243.14629 211.457486 
L 243.934982 211.402535 
L 244.723675 211.115758 
L 247.089753 211.60717 
L 252.610601 211.138687 
L 254.187986 211.327997 
L 254.976678 211.221825 
L 255.765371 211.263208 
L 256.554064 211.438594 
L 257.342756 211.444912 
L 258.131449 211.267571 
L 258.920141 211.348223 
L 259.708834 211.553094 
L 264.440989 211.370575 
L 266.018375 211.308686 
L 266.807067 211.207051 
L 267.59576 211.219227 
L 268.384452 211.492493 
L 269.173145 211.518242 
L 270.75053 211.286695 
L 271.539223 211.499952 
L 272.327915 211.556264 
L 273.9053 211.339893 
L 274.693993 211.48758 
L 275.482686 211.484814 
L 276.271378 211.292596 
L 278.637456 211.424652 
L 280.214841 211.33894 
L 281.792226 211.428398 
L 282.580919 211.287201 
L 284.946996 211.514763 
L 285.735689 211.350925 
L 288.101767 211.445052 
L 292.833922 211.395453 
L 293.622615 211.496407 
L 295.2 211.367138 
L 296.777385 211.520661 
L 298.35477 211.323752 
L 299.932155 211.514453 
L 302.298233 211.361543 
L 303.086926 211.498071 
L 304.664311 211.306946 
L 306.241696 211.478797 
L 307.819081 211.3437 
L 309.396466 211.578849 
L 310.185159 211.532305 
L 310.973852 211.356733 
L 314.128622 211.430016 
L 317.283392 211.430939 
L 325.959011 211.535488 
L 327.536396 211.456994 
L 329.113781 211.405976 
L 329.902473 211.327606 
L 332.268551 211.348254 
L 335.423322 211.44258 
L 336.212014 211.29663 
L 337.000707 211.346953 
L 337.789399 211.543707 
L 338.578092 211.539253 
L 340.155477 211.406443 
L 341.732862 211.549383 
L 342.521555 211.370626 
L 343.310247 211.366136 
L 344.09894 211.514635 
L 345.676325 211.408977 
L 354.351943 211.537719 
L 355.140636 211.379863 
L 355.929329 211.383798 
L 356.718021 211.554736 
L 358.295406 211.481829 
L 364.604947 211.421365 
L 365.39364 211.523866 
L 367.759717 211.222215 
L 370.125795 211.602722 
L 370.914488 211.482307 
L 372.491873 211.714523 
L 374.069258 211.359093 
L 374.857951 211.369987 
L 375.646643 211.533677 
L 378.012721 211.496686 
L 378.801413 211.554949 
L 380.378799 211.246502 
L 381.167491 211.200704 
L 384.322261 211.540608 
L 386.688339 211.484384 
L 387.477032 211.390667 
L 391.420495 211.578172 
L 392.209187 211.455829 
L 393.786572 211.543386 
L 394.575265 211.281288 
L 395.363958 211.245874 
L 396.941343 211.490391 
L 397.730035 211.489084 
L 398.518728 211.324062 
L 400.096113 211.578101 
L 400.884806 211.37865 
L 405.616961 211.665544 
L 406.405654 211.571968 
L 407.194346 211.329419 
L 407.983039 211.235592 
L 409.560424 211.463581 
L 411.137809 211.407331 
L 412.715194 211.503349 
L 414.29258 211.310972 
L 415.081272 211.444844 
L 415.869965 211.379919 
L 419.024735 211.499081 
L 419.813428 211.351158 
L 425.334276 211.490938 
L 426.122968 211.413523 
L 427.700353 211.504248 
L 429.277739 211.383623 
L 436.375972 211.48089 
L 437.953357 211.562758 
L 439.530742 211.408184 
L 441.108127 211.437579 
L 442.685512 211.408306 
L 444.262898 211.422572 
L 445.840283 211.427473 
L 447.417668 211.460222 
L 448.20636 211.366057 
L 450.572438 211.525083 
L 452.149823 211.34344 
L 453.727208 211.389393 
L 456.881979 211.423858 
L 459.248057 211.476578 
L 460.036749 211.551225 
L 461.614134 211.419769 
L 462.402827 211.534772 
L 471.078445 211.414164 
L 471.867138 211.51664 
L 473.444523 211.339353 
L 475.021908 211.614113 
L 478.176678 211.281655 
L 478.965371 211.19146 
L 482.908834 211.366693 
L 483.697527 211.531584 
L 486.063604 211.492455 
L 487.640989 211.571226 
L 488.429682 211.475035 
L 490.79576 211.451103 
L 492.373145 211.202679 
L 495.527915 211.4214 
L 497.893993 211.494377 
L 498.682686 211.32438 
L 500.260071 211.457525 
L 501.048763 211.530869 
L 502.626148 211.207032 
L 504.203534 211.442424 
L 505.780919 211.238186 
L 508.146996 211.50917 
L 511.301767 211.396046 
L 514.456537 211.289385 
L 516.033922 211.448093 
L 517.611307 211.91906 
L 518.4 212.322083 
L 518.4 212.322083 
" style="fill:none;stroke:#ff0000;stroke-linecap:square;stroke-width:2;"/>
   </g>
   <g id="patch_3">
    <path d="M 72 320.4 
L 72 43.2 
" style="fill:none;stroke:#000000;stroke-linecap:square;stroke-linejoin:miter;stroke-width:0.8;"/>
   </g>
   <g id="patch_4">
    <path d="M 518.4 320.4 
L 518.4 43.2 
" style="fill:none;stroke:#000000;stroke-linecap:square;stroke-linejoin:miter;stroke-width:0.8;"/>
   </g>
   <g id="patch_5">
    <path d="M 72 320.4 
L 518.4 320.4 
" style="fill:none;stroke:#000000;stroke-linecap:square;stroke-linejoin:miter;stroke-width:0.8;"/>
   </g>
   <g id="patch_6">
    <path d="M 72 43.2 
L 518.4 43.2 
" style="fill:none;stroke:#000000;stroke-linecap:square;stroke-linejoin:miter;stroke-width:0.8;"/>
   </g>
   <g id="text_16">
    <!-- Front Propogation Speed -->
    <g transform="translate(172.245312 37.2)scale(0.2 -0.2)">
     <defs>
      <path d="M 628 4666 
L 3309 4666 
L 3309 4134 
L 1259 4134 
L 1259 2759 
L 3109 2759 
L 3109 2228 
L 1259 2228 
L 1259 0 
L 628 0 
L 628 4666 
z
" id="DejaVuSans-46" transform="scale(0.015625)"/>
      <path d="M 2631 2963 
Q 2534 3019 2420 3045 
Q 2306 3072 2169 3072 
Q 1681 3072 1420 2755 
Q 1159 2438 1159 1844 
L 1159 0 
L 581 0 
L 581 3500 
L 1159 3500 
L 1159 2956 
Q 1341 3275 1631 3429 
Q 1922 3584 2338 3584 
Q 2397 3584 2469 3576 
Q 2541 3569 2628 3553 
L 2631 2963 
z
" id="DejaVuSans-72" transform="scale(0.015625)"/>
      <path d="M 1172 4494 
L 1172 3500 
L 2356 3500 
L 2356 3053 
L 1172 3053 
L 1172 1153 
Q 1172 725 1289 603 
Q 1406 481 1766 481 
L 2356 481 
L 2356 0 
L 1766 0 
Q 1100 0 847 248 
Q 594 497 594 1153 
L 594 3053 
L 172 3053 
L 172 3500 
L 594 3500 
L 594 4494 
L 1172 4494 
z
" id="DejaVuSans-74" transform="scale(0.015625)"/>
      <path d="M 1259 4147 
L 1259 2394 
L 2053 2394 
Q 2494 2394 2734 2622 
Q 2975 2850 2975 3272 
Q 2975 3691 2734 3919 
Q 2494 4147 2053 4147 
L 1259 4147 
z
M 628 4666 
L 2053 4666 
Q 2838 4666 3239 4311 
Q 3641 3956 3641 3272 
Q 3641 2581 3239 2228 
Q 2838 1875 2053 1875 
L 1259 1875 
L 1259 0 
L 628 0 
L 628 4666 
z
" id="DejaVuSans-50" transform="scale(0.015625)"/>
      <path d="M 2906 1791 
Q 2906 2416 2648 2759 
Q 2391 3103 1925 3103 
Q 1463 3103 1205 2759 
Q 947 2416 947 1791 
Q 947 1169 1205 825 
Q 1463 481 1925 481 
Q 2391 481 2648 825 
Q 2906 1169 2906 1791 
z
M 3481 434 
Q 3481 -459 3084 -895 
Q 2688 -1331 1869 -1331 
Q 1566 -1331 1297 -1286 
Q 1028 -1241 775 -1147 
L 775 -588 
Q 1028 -725 1275 -790 
Q 1522 -856 1778 -856 
Q 2344 -856 2625 -561 
Q 2906 -266 2906 331 
L 2906 616 
Q 2728 306 2450 153 
Q 2172 0 1784 0 
Q 1141 0 747 490 
Q 353 981 353 1791 
Q 353 2603 747 3093 
Q 1141 3584 1784 3584 
Q 2172 3584 2450 3431 
Q 2728 3278 2906 2969 
L 2906 3500 
L 3481 3500 
L 3481 434 
z
" id="DejaVuSans-67" transform="scale(0.015625)"/>
      <path d="M 2194 1759 
Q 1497 1759 1228 1600 
Q 959 1441 959 1056 
Q 959 750 1161 570 
Q 1363 391 1709 391 
Q 2188 391 2477 730 
Q 2766 1069 2766 1631 
L 2766 1759 
L 2194 1759 
z
M 3341 1997 
L 3341 0 
L 2766 0 
L 2766 531 
Q 2569 213 2275 61 
Q 1981 -91 1556 -91 
Q 1019 -91 701 211 
Q 384 513 384 1019 
Q 384 1609 779 1909 
Q 1175 2209 1959 2209 
L 2766 2209 
L 2766 2266 
Q 2766 2663 2505 2880 
Q 2244 3097 1772 3097 
Q 1472 3097 1187 3025 
Q 903 2953 641 2809 
L 641 3341 
Q 956 3463 1253 3523 
Q 1550 3584 1831 3584 
Q 2591 3584 2966 3190 
Q 3341 2797 3341 1997 
z
" id="DejaVuSans-61" transform="scale(0.015625)"/>
     </defs>
     <use xlink:href="#DejaVuSans-46"/>
     <use x="50.269531" xlink:href="#DejaVuSans-72"/>
     <use x="89.132812" xlink:href="#DejaVuSans-6f"/>
     <use x="150.314453" xlink:href="#DejaVuSans-6e"/>
     <use x="213.693359" xlink:href="#DejaVuSans-74"/>
     <use x="252.902344" xlink:href="#DejaVuSans-20"/>
     <use x="284.689453" xlink:href="#DejaVuSans-50"/>
     <use x="343.242188" xlink:href="#DejaVuSans-72"/>
     <use x="382.105469" xlink:href="#DejaVuSans-6f"/>
     <use x="443.287109" xlink:href="#DejaVuSans-70"/>
     <use x="506.763672" xlink:href="#DejaVuSans-6f"/>
     <use x="567.945312" xlink:href="#DejaVuSans-67"/>
     <use x="631.421875" xlink:href="#DejaVuSans-61"/>
     <use x="692.701172" xlink:href="#DejaVuSans-74"/>
     <use x="731.910156" xlink:href="#DejaVuSans-69"/>
     <use x="759.693359" xlink:href="#DejaVuSans-6f"/>
     <use x="820.875" xlink:href="#DejaVuSans-6e"/>
     <use x="884.253906" xlink:href="#DejaVuSans-20"/>
     <use x="916.041016" xlink:href="#DejaVuSans-53"/>
     <use x="979.517578" xlink:href="#DejaVuSans-70"/>
     <use x="1042.994141" xlink:href="#DejaVuSans-65"/>
     <use x="1104.517578" xlink:href="#DejaVuSans-65"/>
     <use x="1166.041016" xlink:href="#DejaVuSans-64"/>
    </g>
   </g>
   <g id="legend_1">
    <g id="patch_7">
     <path d="M 325.967812 111.175687 
L 508.6 111.175687 
Q 511.4 111.175687 511.4 108.375687 
L 511.4 53 
Q 511.4 50.2 508.6 50.2 
L 325.967812 50.2 
Q 323.167812 50.2 323.167812 53 
L 323.167812 108.375687 
Q 323.167812 111.175687 325.967812 111.175687 
z
" style="fill:#ffffff;opacity:0.8;stroke:#cccccc;stroke-linejoin:miter;"/>
    </g>
    <g id="line2d_16">
     <path d="M 328.767812 61.537812 
L 356.767812 61.537812 
" style="fill:none;stroke:#ff0000;stroke-linecap:square;stroke-width:2;"/>
    </g>
    <g id="line2d_17"/>
    <g id="text_17">
     <!-- Front speed -->
     <g transform="translate(367.967812 66.437812)scale(0.14 -0.14)">
      <use xlink:href="#DejaVuSans-46"/>
      <use x="50.269531" xlink:href="#DejaVuSans-72"/>
      <use x="89.132812" xlink:href="#DejaVuSans-6f"/>
      <use x="150.314453" xlink:href="#DejaVuSans-6e"/>
      <use x="213.693359" xlink:href="#DejaVuSans-74"/>
      <use x="252.902344" xlink:href="#DejaVuSans-20"/>
      <use x="284.689453" xlink:href="#DejaVuSans-73"/>
      <use x="336.789062" xlink:href="#DejaVuSans-70"/>
      <use x="400.265625" xlink:href="#DejaVuSans-65"/>
      <use x="461.789062" xlink:href="#DejaVuSans-65"/>
      <use x="523.3125" xlink:href="#DejaVuSans-64"/>
     </g>
    </g>
    <g id="line2d_18">
     <path d="M 328.767812 91.381437 
L 356.767812 91.381437 
" style="fill:none;stroke:#000000;stroke-dasharray:5.55,2.4;stroke-dashoffset:0;stroke-width:1.5;"/>
    </g>
    <g id="line2d_19"/>
    <g id="text_18">
     <!-- Steady state -->
     <g transform="translate(367.967812 86.987187)scale(0.14 -0.14)">
      <defs>
       <path d="M 2059 -325 
Q 1816 -950 1584 -1140 
Q 1353 -1331 966 -1331 
L 506 -1331 
L 506 -850 
L 844 -850 
Q 1081 -850 1212 -737 
Q 1344 -625 1503 -206 
L 1606 56 
L 191 3500 
L 800 3500 
L 1894 763 
L 2988 3500 
L 3597 3500 
L 2059 -325 
z
" id="DejaVuSans-79" transform="scale(0.015625)"/>
      </defs>
      <use xlink:href="#DejaVuSans-53"/>
      <use x="63.476562" xlink:href="#DejaVuSans-74"/>
      <use x="102.685547" xlink:href="#DejaVuSans-65"/>
      <use x="164.208984" xlink:href="#DejaVuSans-61"/>
      <use x="225.488281" xlink:href="#DejaVuSans-64"/>
      <use x="288.964844" xlink:href="#DejaVuSans-79"/>
      <use x="348.144531" xlink:href="#DejaVuSans-20"/>
      <use x="379.931641" xlink:href="#DejaVuSans-73"/>
      <use x="432.03125" xlink:href="#DejaVuSans-74"/>
      <use x="471.240234" xlink:href="#DejaVuSans-61"/>
      <use x="532.519531" xlink:href="#DejaVuSans-74"/>
      <use x="571.728516" xlink:href="#DejaVuSans-65"/>
     </g>
     <!-- speed = 0.64 mm/s -->
     <g transform="translate(367.967812 102.664125)scale(0.14 -0.14)">
      <defs>
       <path d="M 678 2906 
L 4684 2906 
L 4684 2381 
L 678 2381 
L 678 2906 
z
M 678 1631 
L 4684 1631 
L 4684 1100 
L 678 1100 
L 678 1631 
z
" id="DejaVuSans-3d" transform="scale(0.015625)"/>
       <path d="M 2113 2584 
Q 1688 2584 1439 2293 
Q 1191 2003 1191 1497 
Q 1191 994 1439 701 
Q 1688 409 2113 409 
Q 2538 409 2786 701 
Q 3034 994 3034 1497 
Q 3034 2003 2786 2293 
Q 2538 2584 2113 2584 
z
M 3366 4563 
L 3366 3988 
Q 3128 4100 2886 4159 
Q 2644 4219 2406 4219 
Q 1781 4219 1451 3797 
Q 1122 3375 1075 2522 
Q 1259 2794 1537 2939 
Q 1816 3084 2150 3084 
Q 2853 3084 3261 2657 
Q 3669 2231 3669 1497 
Q 3669 778 3244 343 
Q 2819 -91 2113 -91 
Q 1303 -91 875 529 
Q 447 1150 447 2328 
Q 447 3434 972 4092 
Q 1497 4750 2381 4750 
Q 2619 4750 2861 4703 
Q 3103 4656 3366 4563 
z
" id="DejaVuSans-36" transform="scale(0.015625)"/>
       <path d="M 2419 4116 
L 825 1625 
L 2419 1625 
L 2419 4116 
z
M 2253 4666 
L 3047 4666 
L 3047 1625 
L 3713 1625 
L 3713 1100 
L 3047 1100 
L 3047 0 
L 2419 0 
L 2419 1100 
L 313 1100 
L 313 1709 
L 2253 4666 
z
" id="DejaVuSans-34" transform="scale(0.015625)"/>
      </defs>
      <use xlink:href="#DejaVuSans-73"/>
      <use x="52.099609" xlink:href="#DejaVuSans-70"/>
      <use x="115.576172" xlink:href="#DejaVuSans-65"/>
      <use x="177.099609" xlink:href="#DejaVuSans-65"/>
      <use x="238.623047" xlink:href="#DejaVuSans-64"/>
      <use x="302.099609" xlink:href="#DejaVuSans-20"/>
      <use x="333.886719" xlink:href="#DejaVuSans-3d"/>
      <use x="417.675781" xlink:href="#DejaVuSans-20"/>
      <use x="449.462891" xlink:href="#DejaVuSans-30"/>
      <use x="513.085938" xlink:href="#DejaVuSans-2e"/>
      <use x="544.873047" xlink:href="#DejaVuSans-36"/>
      <use x="608.496094" xlink:href="#DejaVuSans-34"/>
      <use x="672.119141" xlink:href="#DejaVuSans-20"/>
      <use x="703.90625" xlink:href="#DejaVuSans-6d"/>
      <use x="801.318359" xlink:href="#DejaVuSans-6d"/>
      <use x="898.730469" xlink:href="#DejaVuSans-2f"/>
      <use x="932.421875" xlink:href="#DejaVuSans-73"/>
     </g>
    </g>
   </g>
  </g>
 </g>
 <defs>
  <clipPath id="p6ee3be3fa2">
   <rect height="277.2" width="446.4" x="72" y="43.2"/>
  </clipPath>
 </defs>
</svg>
