<?xml version="1.0" encoding="utf-8" standalone="no"?>
<!DOCTYPE svg PUBLIC "-//W3C//DTD SVG 1.1//EN"
  "http://www.w3.org/Graphics/SVG/1.1/DTD/svg11.dtd">
<svg height="360pt" version="1.1" viewBox="0 0 576 360" width="576pt" xmlns="http://www.w3.org/2000/svg" xmlns:xlink="http://www.w3.org/1999/xlink">
 <metadata>
  <rdf:RDF xmlns:cc="http://creativecommons.org/ns#" xmlns:dc="http://purl.org/dc/elements/1.1/" xmlns:rdf="http://www.w3.org/1999/02/22-rdf-syntax-ns#">
   <cc:Work>
    <dc:type rdf:resource="http://purl.org/dc/dcmitype/StillImage"/>
    <dc:date>2022-06-30T14:43:00.732376</dc:date>
    <dc:format>image/svg+xml</dc:format>
    <dc:creator>
     <cc:Agent>
      <dc:title>Matplotlib v3.4.3, https://matplotlib.org/</dc:title>
     </cc:Agent>
    </dc:creator>
   </cc:Work>
  </rdf:RDF>
 </metadata>
 <defs>
  <style type="text/css">*{stroke-linecap:butt;stroke-linejoin:round;}</style>
 </defs>
 <g id="figure_1">
  <g id="patch_1">
   <path d="M 0 360 
L 576 360 
L 576 0 
L 0 0 
z
" style="fill:#ffffff;"/>
  </g>
  <g id="axes_1">
   <g id="patch_2">
    <path d="M 72 320.4 
L 518.4 320.4 
L 518.4 43.2 
L 72 43.2 
z
" style="fill:#ffffff;"/>
   </g>
   <g id="PolyCollection_1">
    <defs>
     <path d="M 72 -183.500476 
L 72 -187.319193 
L 72.530797 -187.319193 
L 73.061593 -187.319193 
L 73.59239 -187.319193 
L 74.123187 -187.319193 
L 74.653983 -187.319193 
L 75.18478 -187.319193 
L 75.715577 -187.319193 
L 76.246373 -187.319193 
L 76.77717 -187.319193 
L 77.307967 -187.319193 
L 77.838763 -187.319193 
L 78.36956 -187.319193 
L 78.900357 -187.319193 
L 79.431153 -187.319193 
L 79.96195 -187.319193 
L 80.492747 -187.319193 
L 81.023543 -187.319193 
L 81.55434 -187.319193 
L 82.085137 -187.319193 
L 82.615933 -187.319193 
L 83.14673 -187.319193 
L 83.677527 -187.319193 
L 84.208323 -187.319193 
L 84.73912 -187.319193 
L 85.269917 -187.319193 
L 85.800713 -187.319193 
L 86.33151 -187.319193 
L 86.862307 -187.319193 
L 87.393103 -187.319193 
L 87.9239 -187.319193 
L 88.454697 -187.319193 
L 88.985493 -187.319193 
L 89.51629 -187.319193 
L 90.047087 -187.319193 
L 90.577883 -187.319193 
L 91.10868 -187.319193 
L 91.639477 -187.319193 
L 92.170273 -187.319193 
L 92.70107 -187.319193 
L 93.231867 -187.319193 
L 93.762663 -187.319193 
L 94.29346 -187.319193 
L 94.824257 -187.319193 
L 95.355054 -187.319193 
L 95.88585 -187.319193 
L 96.416647 -187.319193 
L 96.947444 -187.319193 
L 97.47824 -187.319193 
L 98.009037 -187.319193 
L 98.539834 -187.319193 
L 99.07063 -187.319193 
L 99.601427 -187.319193 
L 100.132224 -187.319193 
L 100.66302 -187.319193 
L 101.193817 -187.319193 
L 101.724614 -187.319193 
L 102.25541 -187.319193 
L 102.786207 -187.319193 
L 103.317004 -187.319193 
L 103.8478 -187.319193 
L 104.378597 -187.319193 
L 104.909394 -187.319193 
L 105.44019 -187.319193 
L 105.970987 -187.319193 
L 106.501784 -187.319193 
L 107.03258 -187.319193 
L 107.563377 -187.319193 
L 108.094174 -187.319193 
L 108.62497 -187.319193 
L 109.155767 -187.319193 
L 109.686564 -187.319193 
L 110.21736 -187.319193 
L 110.748157 -187.319193 
L 111.278954 -187.319193 
L 111.80975 -187.319193 
L 112.340547 -187.319193 
L 112.871344 -187.319193 
L 113.40214 -187.319193 
L 113.932937 -187.319193 
L 114.463734 -187.319193 
L 114.99453 -187.319193 
L 115.525327 -187.319193 
L 116.056124 -187.319193 
L 116.58692 -187.319193 
L 117.117717 -187.319193 
L 117.648514 -187.319193 
L 118.17931 -187.319193 
L 118.710107 -187.319193 
L 119.240904 -187.319193 
L 119.7717 -187.319193 
L 120.302497 -187.319193 
L 120.833294 -187.319193 
L 121.36409 -187.319193 
L 121.894887 -187.319193 
L 122.425684 -187.319193 
L 122.95648 -187.319193 
L 123.487277 -187.319193 
L 124.018074 -187.319193 
L 124.54887 -187.319193 
L 125.079667 -187.319193 
L 125.610464 -187.319193 
L 126.14126 -187.319193 
L 126.672057 -187.319193 
L 127.202854 -187.319193 
L 127.73365 -187.319193 
L 128.264447 -187.319193 
L 128.795244 -187.319193 
L 129.32604 -187.319193 
L 129.856837 -187.319193 
L 130.387634 -187.319193 
L 130.91843 -187.319193 
L 131.449227 -187.319193 
L 131.980024 -187.319193 
L 132.51082 -187.319193 
L 133.041617 -187.319193 
L 133.572414 -187.319193 
L 134.10321 -187.319193 
L 134.634007 -187.319193 
L 135.164804 -187.319193 
L 135.6956 -187.319193 
L 136.226397 -187.319193 
L 136.757194 -187.319193 
L 137.28799 -187.319193 
L 137.818787 -187.319193 
L 138.349584 -187.319193 
L 138.88038 -187.319193 
L 139.411177 -187.319193 
L 139.941974 -187.319193 
L 140.472771 -187.319193 
L 141.003567 -187.319193 
L 141.534364 -187.319193 
L 142.065161 -187.319193 
L 142.595957 -187.319193 
L 143.126754 -187.319193 
L 143.657551 -187.319193 
L 144.188347 -187.319193 
L 144.719144 -187.319193 
L 145.249941 -187.319193 
L 145.780737 -187.319193 
L 146.311534 -187.319193 
L 146.842331 -187.319193 
L 147.373127 -187.319193 
L 147.903924 -187.319193 
L 148.434721 -187.319193 
L 148.965517 -187.319193 
L 149.496314 -187.319193 
L 150.027111 -187.319193 
L 150.557907 -187.319193 
L 151.088704 -187.319193 
L 151.619501 -187.319193 
L 152.150297 -187.319193 
L 152.681094 -187.319193 
L 153.211891 -187.319193 
L 153.742687 -187.319193 
L 154.273484 -187.319193 
L 154.804281 -187.319193 
L 155.335077 -187.319193 
L 155.865874 -187.319193 
L 156.396671 -187.319193 
L 156.927467 -187.319193 
L 157.458264 -187.319193 
L 157.989061 -187.319193 
L 158.519857 -187.319193 
L 159.050654 -187.319193 
L 159.581451 -187.319193 
L 160.112247 -187.319193 
L 160.643044 -187.319193 
L 161.173841 -187.319193 
L 161.704637 -187.319193 
L 162.235434 -187.319193 
L 162.766231 -187.319193 
L 163.297027 -187.319193 
L 163.827824 -187.319193 
L 164.358621 -187.319193 
L 164.889417 -187.319193 
L 165.420214 -187.319193 
L 165.951011 -187.319193 
L 166.481807 -187.319193 
L 167.012604 -187.319193 
L 167.543401 -187.319193 
L 168.074197 -187.319193 
L 168.604994 -187.319193 
L 169.135791 -187.319193 
L 169.666587 -187.319193 
L 170.197384 -187.319193 
L 170.728181 -187.319193 
L 171.258977 -187.319193 
L 171.789774 -187.319193 
L 172.320571 -187.319193 
L 172.851367 -187.319193 
L 173.382164 -187.319193 
L 173.912961 -187.319193 
L 174.443757 -187.319193 
L 174.974554 -187.319193 
L 175.505351 -187.319193 
L 176.036147 -187.319193 
L 176.566944 -187.319193 
L 177.097741 -187.319193 
L 177.628537 -187.319193 
L 178.159334 -187.319193 
L 178.690131 -187.319193 
L 179.220927 -187.319193 
L 179.751724 -187.319193 
L 180.282521 -187.319193 
L 180.813317 -187.319193 
L 181.344114 -187.319193 
L 181.874911 -187.319193 
L 182.405707 -187.319193 
L 182.936504 -187.319193 
L 183.467301 -187.319193 
L 183.998098 -187.319193 
L 184.528894 -187.319193 
L 185.059691 -187.319193 
L 185.590488 -187.319193 
L 186.121284 -187.319193 
L 186.652081 -187.319193 
L 187.182878 -187.319193 
L 187.713674 -187.319193 
L 188.244471 -187.319193 
L 188.775268 -187.319193 
L 189.306064 -187.319193 
L 189.836861 -187.319193 
L 190.367658 -187.319193 
L 190.898454 -187.319193 
L 191.429251 -187.319193 
L 191.960048 -187.319193 
L 192.490844 -187.319193 
L 193.021641 -187.319193 
L 193.552438 -187.319193 
L 194.083234 -187.319193 
L 194.614031 -187.319193 
L 195.144828 -187.319193 
L 195.675624 -187.319193 
L 196.206421 -187.319193 
L 196.737218 -187.319193 
L 197.268014 -187.319193 
L 197.798811 -187.319193 
L 198.329608 -187.319193 
L 198.860404 -187.319193 
L 199.391201 -187.319193 
L 199.921998 -187.319193 
L 200.452794 -187.319193 
L 200.983591 -187.319193 
L 201.514388 -187.319193 
L 202.045184 -187.319193 
L 202.575981 -187.319193 
L 203.106778 -187.319193 
L 203.637574 -187.319193 
L 204.168371 -187.319193 
L 204.699168 -187.319193 
L 205.229964 -187.319193 
L 205.760761 -187.319193 
L 206.291558 -187.319193 
L 206.822354 -187.319193 
L 207.353151 -187.319193 
L 207.883948 -187.319193 
L 208.414744 -187.319193 
L 208.945541 -187.319193 
L 209.476338 -187.319193 
L 210.007134 -187.319193 
L 210.537931 -187.319193 
L 211.068728 -187.319193 
L 211.599524 -187.319193 
L 212.130321 -187.319193 
L 212.661118 -187.319193 
L 213.191914 -187.319193 
L 213.722711 -187.319193 
L 214.253508 -187.319193 
L 214.784304 -187.319193 
L 215.315101 -187.319193 
L 215.845898 -187.319193 
L 216.376694 -187.319193 
L 216.907491 -187.319193 
L 217.438288 -187.319193 
L 217.969084 -187.319193 
L 218.499881 -187.319193 
L 219.030678 -187.319193 
L 219.561474 -187.319193 
L 220.092271 -187.319193 
L 220.623068 -187.319193 
L 221.153864 -187.319193 
L 221.684661 -187.319193 
L 222.215458 -187.319193 
L 222.746254 -187.319193 
L 223.277051 -187.319193 
L 223.807848 -187.319193 
L 224.338644 -187.319193 
L 224.869441 -187.319193 
L 225.400238 -187.319193 
L 225.931034 -187.319193 
L 226.461831 -187.319193 
L 226.992628 -187.319193 
L 227.523424 -187.319193 
L 228.054221 -187.319193 
L 228.585018 -187.319193 
L 229.115815 -187.319193 
L 229.646611 -187.319193 
L 230.177408 -187.319193 
L 230.708205 -187.319193 
L 231.239001 -187.319193 
L 231.769798 -187.319193 
L 232.300595 -187.319193 
L 232.831391 -187.319193 
L 233.362188 -187.319193 
L 233.892985 -187.319193 
L 234.423781 -187.319193 
L 234.954578 -187.319193 
L 235.485375 -187.319193 
L 236.016171 -187.319193 
L 236.546968 -187.319193 
L 237.077765 -187.319193 
L 237.608561 -187.319193 
L 238.139358 -187.319193 
L 238.670155 -187.319193 
L 239.200951 -187.319193 
L 239.731748 -187.319193 
L 240.262545 -187.319193 
L 240.793341 -187.319193 
L 241.324138 -187.319193 
L 241.854935 -187.319193 
L 242.385731 -187.319193 
L 242.916528 -187.319193 
L 243.447325 -187.319193 
L 243.978121 -187.319193 
L 244.508918 -187.319193 
L 245.039715 -187.319193 
L 245.570511 -187.319193 
L 246.101308 -187.319193 
L 246.632105 -187.319193 
L 247.162901 -187.319193 
L 247.693698 -187.319193 
L 248.224495 -187.319193 
L 248.755291 -187.319193 
L 249.286088 -187.319193 
L 249.816885 -187.319193 
L 250.347681 -187.319193 
L 250.878478 -187.319193 
L 251.409275 -187.319193 
L 251.940071 -187.319193 
L 252.470868 -187.319193 
L 253.001665 -187.319193 
L 253.532461 -187.319193 
L 254.063258 -187.319193 
L 254.594055 -187.319193 
L 255.124851 -187.319193 
L 255.655648 -187.319193 
L 256.186445 -187.319193 
L 256.717241 -187.319193 
L 257.248038 -187.319193 
L 257.778835 -187.319193 
L 258.309631 -187.319193 
L 258.840428 -187.319193 
L 259.371225 -187.319193 
L 259.902021 -187.319193 
L 260.432818 -187.319193 
L 260.963615 -187.319193 
L 261.494411 -187.319193 
L 262.025208 -187.319193 
L 262.556005 -187.319193 
L 263.086801 -187.319193 
L 263.617598 -187.319193 
L 264.148395 -187.319193 
L 264.679191 -187.319193 
L 265.209988 -187.319193 
L 265.740785 -187.319193 
L 266.271581 -187.319193 
L 266.802378 -187.319193 
L 267.333175 -187.319193 
L 267.863971 -187.319193 
L 268.394768 -187.319193 
L 268.925565 -187.319193 
L 269.456361 -187.319193 
L 269.987158 -187.319193 
L 270.517955 -187.319193 
L 271.048751 -187.319193 
L 271.579548 -187.319193 
L 272.110345 -187.319193 
L 272.641141 -187.319193 
L 273.171938 -187.319193 
L 273.702735 -187.319193 
L 274.233532 -187.319193 
L 274.764328 -187.319193 
L 275.295125 -187.319193 
L 275.825922 -187.319193 
L 276.356718 -187.319193 
L 276.887515 -187.319193 
L 277.418312 -187.319193 
L 277.949108 -187.319193 
L 278.479905 -187.319193 
L 279.010702 -187.319193 
L 279.541498 -187.319193 
L 280.072295 -187.319193 
L 280.603092 -187.319193 
L 281.133888 -187.319193 
L 281.664685 -187.319193 
L 282.195482 -187.319193 
L 282.726278 -187.319193 
L 283.257075 -187.319193 
L 283.787872 -187.319193 
L 284.318668 -187.319193 
L 284.849465 -187.319193 
L 285.380262 -187.319193 
L 285.911058 -187.319193 
L 286.441855 -187.319193 
L 286.972652 -187.319193 
L 287.503448 -187.319193 
L 288.034245 -187.319193 
L 288.565042 -187.319193 
L 289.095838 -187.319193 
L 289.626635 -187.319193 
L 290.157432 -187.319193 
L 290.688228 -187.319193 
L 291.219025 -187.319193 
L 291.749822 -187.319193 
L 292.280618 -187.319193 
L 292.811415 -187.319193 
L 293.342212 -187.319193 
L 293.873008 -187.319193 
L 294.403805 -187.319193 
L 294.934602 -187.319193 
L 295.465398 -187.319193 
L 295.996195 -187.319193 
L 296.526992 -187.319193 
L 297.057788 -187.319193 
L 297.588585 -187.319193 
L 298.119382 -187.319193 
L 298.650178 -187.319193 
L 299.180975 -187.319193 
L 299.711772 -187.319193 
L 300.242568 -187.319193 
L 300.773365 -187.319193 
L 301.304162 -187.319193 
L 301.834958 -187.319193 
L 302.365755 -187.319193 
L 302.896552 -187.319193 
L 303.427348 -187.319193 
L 303.958145 -187.319193 
L 304.488942 -187.319193 
L 305.019738 -187.319193 
L 305.550535 -187.319193 
L 306.081332 -187.319193 
L 306.612128 -187.319193 
L 307.142925 -187.319193 
L 307.673722 -187.319193 
L 308.204518 -187.319193 
L 308.735315 -187.319193 
L 309.266112 -187.319193 
L 309.796908 -187.319193 
L 310.327705 -187.319193 
L 310.858502 -187.319193 
L 311.389298 -187.319193 
L 311.920095 -187.319193 
L 312.450892 -187.319193 
L 312.981688 -187.319193 
L 313.512485 -187.319193 
L 314.043282 -187.319193 
L 314.574078 -187.319193 
L 315.104875 -187.319193 
L 315.635672 -187.319193 
L 316.166468 -187.319193 
L 316.697265 -187.319193 
L 317.228062 -187.319193 
L 317.758859 -187.319193 
L 318.289655 -187.319193 
L 318.820452 -187.319193 
L 319.351249 -187.319193 
L 319.882045 -187.319193 
L 320.412842 -187.319193 
L 320.943639 -187.319193 
L 321.474435 -187.319193 
L 322.005232 -187.319193 
L 322.536029 -187.319193 
L 323.066825 -187.319193 
L 323.597622 -187.319193 
L 324.128419 -187.319193 
L 324.659215 -187.319193 
L 325.190012 -187.319193 
L 325.720809 -187.319193 
L 326.251605 -187.319193 
L 326.782402 -187.319193 
L 327.313199 -187.319193 
L 327.843995 -187.319193 
L 328.374792 -187.319193 
L 328.905589 -187.319193 
L 329.436385 -187.319193 
L 329.967182 -187.319193 
L 330.497979 -187.319193 
L 331.028775 -187.319193 
L 331.559572 -187.319193 
L 332.090369 -187.319193 
L 332.621165 -187.319193 
L 333.151962 -187.319193 
L 333.682759 -187.319193 
L 334.213555 -187.319193 
L 334.744352 -187.319193 
L 335.275149 -187.319193 
L 335.805945 -187.319193 
L 336.336742 -187.319193 
L 336.867539 -187.319193 
L 337.398335 -187.319193 
L 337.929132 -187.319193 
L 338.459929 -187.319193 
L 338.990725 -187.319193 
L 339.521522 -187.319193 
L 340.052319 -187.319193 
L 340.583115 -187.319193 
L 341.113912 -187.319193 
L 341.644709 -187.319193 
L 342.175505 -187.319193 
L 342.706302 -187.319193 
L 343.237099 -187.319193 
L 343.767895 -187.319193 
L 344.298692 -187.319193 
L 344.829489 -187.319193 
L 345.360285 -187.319193 
L 345.891082 -187.319193 
L 346.421879 -187.319193 
L 346.952675 -187.319193 
L 347.483472 -187.319193 
L 348.014269 -187.319193 
L 348.545065 -187.319193 
L 349.075862 -187.319193 
L 349.606659 -187.319193 
L 350.137455 -187.319193 
L 350.668252 -187.319193 
L 351.199049 -187.319193 
L 351.729845 -187.319193 
L 352.260642 -187.319193 
L 352.791439 -187.319193 
L 353.322235 -187.319193 
L 353.853032 -187.319193 
L 354.383829 -187.319193 
L 354.914625 -187.319193 
L 355.445422 -187.319193 
L 355.976219 -187.319193 
L 356.507015 -187.319193 
L 357.037812 -187.319193 
L 357.568609 -187.319193 
L 358.099405 -187.319193 
L 358.630202 -187.319193 
L 359.160999 -187.319193 
L 359.691795 -187.319193 
L 360.222592 -187.319193 
L 360.753389 -187.319193 
L 361.284185 -187.319193 
L 361.814982 -187.319193 
L 362.345779 -187.319193 
L 362.876576 -187.319193 
L 363.407372 -187.319193 
L 363.938169 -187.319193 
L 364.468966 -187.319193 
L 364.999762 -187.319193 
L 365.530559 -187.319193 
L 366.061356 -187.319193 
L 366.592152 -187.319193 
L 367.122949 -187.319193 
L 367.653746 -187.319193 
L 368.184542 -187.319193 
L 368.715339 -187.319193 
L 369.246136 -187.319193 
L 369.776932 -187.319193 
L 370.307729 -187.319193 
L 370.838526 -187.319193 
L 371.369322 -187.319193 
L 371.900119 -187.319193 
L 372.430916 -187.319193 
L 372.961712 -187.319193 
L 373.492509 -187.319193 
L 374.023306 -187.319193 
L 374.554102 -187.319193 
L 375.084899 -187.319193 
L 375.615696 -187.319193 
L 376.146492 -187.319193 
L 376.677289 -187.319193 
L 377.208086 -187.319193 
L 377.738882 -187.319193 
L 378.269679 -187.319193 
L 378.800476 -187.319193 
L 379.331272 -187.319193 
L 379.862069 -187.319193 
L 380.392866 -187.319193 
L 380.923662 -187.319193 
L 381.454459 -187.319193 
L 381.985256 -187.319193 
L 382.516052 -187.319193 
L 383.046849 -187.319193 
L 383.577646 -187.319193 
L 384.108442 -187.319193 
L 384.639239 -187.319193 
L 385.170036 -187.319193 
L 385.700832 -187.319193 
L 386.231629 -187.319193 
L 386.762426 -187.319193 
L 387.293222 -187.319193 
L 387.824019 -187.319193 
L 388.354816 -187.319193 
L 388.885612 -187.319193 
L 389.416409 -187.319193 
L 389.947206 -187.319193 
L 390.478002 -187.319193 
L 391.008799 -187.319193 
L 391.539596 -187.319193 
L 392.070392 -187.319193 
L 392.601189 -187.319193 
L 393.131986 -187.319193 
L 393.662782 -187.319193 
L 394.193579 -187.319193 
L 394.724376 -187.319193 
L 395.255172 -187.319193 
L 395.785969 -187.319193 
L 396.316766 -187.319193 
L 396.847562 -187.319193 
L 397.378359 -187.319193 
L 397.909156 -187.319193 
L 398.439952 -187.319193 
L 398.970749 -187.319193 
L 399.501546 -187.319193 
L 400.032342 -187.319193 
L 400.563139 -187.319193 
L 401.093936 -187.319193 
L 401.624732 -187.319193 
L 402.155529 -187.319193 
L 402.686326 -187.319193 
L 403.217122 -187.319193 
L 403.747919 -187.319193 
L 404.278716 -187.319193 
L 404.809512 -187.319193 
L 405.340309 -187.319193 
L 405.871106 -187.319193 
L 406.401902 -187.319193 
L 406.932699 -187.319193 
L 407.463496 -187.319193 
L 407.994293 -187.319193 
L 408.525089 -187.319193 
L 409.055886 -187.319193 
L 409.586683 -187.319193 
L 410.117479 -187.319193 
L 410.648276 -187.319193 
L 411.179073 -187.319193 
L 411.709869 -187.319193 
L 412.240666 -187.319193 
L 412.771463 -187.319193 
L 413.302259 -187.319193 
L 413.833056 -187.319193 
L 414.363853 -187.319193 
L 414.894649 -187.319193 
L 415.425446 -187.319193 
L 415.956243 -187.319193 
L 416.487039 -187.319193 
L 417.017836 -187.319193 
L 417.548633 -187.319193 
L 418.079429 -187.319193 
L 418.610226 -187.319193 
L 419.141023 -187.319193 
L 419.671819 -187.319193 
L 420.202616 -187.319193 
L 420.733413 -187.319193 
L 421.264209 -187.319193 
L 421.795006 -187.319193 
L 422.325803 -187.319193 
L 422.856599 -187.319193 
L 423.387396 -187.319193 
L 423.918193 -187.319193 
L 424.448989 -187.319193 
L 424.979786 -187.319193 
L 425.510583 -187.319193 
L 426.041379 -187.319193 
L 426.572176 -187.319193 
L 427.102973 -187.319193 
L 427.633769 -187.319193 
L 428.164566 -187.319193 
L 428.695363 -187.319193 
L 429.226159 -187.319193 
L 429.756956 -187.319193 
L 430.287753 -187.319193 
L 430.818549 -187.319193 
L 431.349346 -187.319193 
L 431.880143 -187.319193 
L 432.410939 -187.319193 
L 432.941736 -187.319193 
L 433.472533 -187.319193 
L 434.003329 -187.319193 
L 434.534126 -187.319193 
L 435.064923 -187.319193 
L 435.595719 -187.319193 
L 436.126516 -187.319193 
L 436.657313 -187.319193 
L 437.188109 -187.319193 
L 437.718906 -187.319193 
L 438.249703 -187.319193 
L 438.780499 -187.319193 
L 439.311296 -187.319193 
L 439.842093 -187.319193 
L 440.372889 -187.319193 
L 440.903686 -187.319193 
L 441.434483 -187.319193 
L 441.965279 -187.319193 
L 442.496076 -187.319193 
L 443.026873 -187.319193 
L 443.557669 -187.319193 
L 444.088466 -187.319193 
L 444.619263 -187.319193 
L 445.150059 -187.319193 
L 445.680856 -187.319193 
L 446.211653 -187.319193 
L 446.742449 -187.319193 
L 447.273246 -187.319193 
L 447.804043 -187.319193 
L 448.334839 -187.319193 
L 448.865636 -187.319193 
L 449.396433 -187.319193 
L 449.927229 -187.319193 
L 450.458026 -187.319193 
L 450.988823 -187.319193 
L 451.51962 -187.319193 
L 452.050416 -187.319193 
L 452.581213 -187.319193 
L 453.11201 -187.319193 
L 453.642806 -187.319193 
L 454.173603 -187.319193 
L 454.7044 -187.319193 
L 455.235196 -187.319193 
L 455.765993 -187.319193 
L 456.29679 -187.319193 
L 456.827586 -187.319193 
L 457.358383 -187.319193 
L 457.88918 -187.319193 
L 458.419976 -187.319193 
L 458.950773 -187.319193 
L 459.48157 -187.319193 
L 460.012366 -187.319193 
L 460.543163 -187.319193 
L 461.07396 -187.319193 
L 461.604756 -187.319193 
L 462.135553 -187.319193 
L 462.66635 -187.319193 
L 463.197146 -187.319193 
L 463.727943 -187.319193 
L 464.25874 -187.319193 
L 464.789536 -187.319193 
L 465.320333 -187.319193 
L 465.85113 -187.319193 
L 466.381926 -187.319193 
L 466.912723 -187.319193 
L 467.44352 -187.319193 
L 467.974316 -187.319193 
L 468.505113 -187.319193 
L 469.03591 -187.319193 
L 469.566706 -187.319193 
L 470.097503 -187.319193 
L 470.6283 -187.319193 
L 471.159096 -187.319193 
L 471.689893 -187.319193 
L 472.22069 -187.319193 
L 472.751486 -187.319193 
L 473.282283 -187.319193 
L 473.81308 -187.319193 
L 474.343876 -187.319193 
L 474.874673 -187.319193 
L 475.40547 -187.319193 
L 475.936266 -187.319193 
L 476.467063 -187.319193 
L 476.99786 -187.319193 
L 477.528656 -187.319193 
L 478.059453 -187.319193 
L 478.59025 -187.319193 
L 479.121046 -187.319193 
L 479.651843 -187.319193 
L 480.18264 -187.319193 
L 480.713436 -187.319193 
L 481.244233 -187.319193 
L 481.77503 -187.319193 
L 482.305826 -187.319193 
L 482.836623 -187.319193 
L 483.36742 -187.319193 
L 483.898216 -187.319193 
L 484.429013 -187.319193 
L 484.95981 -187.319193 
L 485.490606 -187.319193 
L 486.021403 -187.319193 
L 486.5522 -187.319193 
L 487.082996 -187.319193 
L 487.613793 -187.319193 
L 488.14459 -187.319193 
L 488.675386 -187.319193 
L 489.206183 -187.319193 
L 489.73698 -187.319193 
L 490.267776 -187.319193 
L 490.798573 -187.319193 
L 491.32937 -187.319193 
L 491.860166 -187.319193 
L 492.390963 -187.319193 
L 492.92176 -187.319193 
L 493.452556 -187.319193 
L 493.983353 -187.319193 
L 494.51415 -187.319193 
L 495.044946 -187.319193 
L 495.575743 -187.319193 
L 496.10654 -187.319193 
L 496.637337 -187.319193 
L 497.168133 -187.319193 
L 497.69893 -187.319193 
L 498.229727 -187.319193 
L 498.760523 -187.319193 
L 499.29132 -187.319193 
L 499.822117 -187.319193 
L 500.352913 -187.319193 
L 500.88371 -187.319193 
L 501.414507 -187.319193 
L 501.945303 -187.319193 
L 502.4761 -187.319193 
L 503.006897 -187.319193 
L 503.537693 -187.319193 
L 504.06849 -187.319193 
L 504.599287 -187.319193 
L 505.130083 -187.319193 
L 505.66088 -187.319193 
L 506.191677 -187.319193 
L 506.722473 -187.319193 
L 507.25327 -187.319193 
L 507.784067 -187.319193 
L 508.314863 -187.319193 
L 508.84566 -187.319193 
L 509.376457 -187.319193 
L 509.907253 -187.319193 
L 510.43805 -187.319193 
L 510.968847 -187.319193 
L 511.499643 -187.319193 
L 512.03044 -187.319193 
L 512.561237 -187.319193 
L 513.092033 -187.319193 
L 513.62283 -187.319193 
L 514.153627 -187.319193 
L 514.684423 -187.319193 
L 515.21522 -187.319193 
L 515.746017 -187.319193 
L 516.276813 -187.319193 
L 516.80761 -187.319193 
L 517.338407 -187.319193 
L 517.869203 -187.319193 
L 518.4 -187.319193 
L 518.4 -183.500476 
L 518.4 -183.500476 
L 517.869203 -183.500476 
L 517.338407 -183.500476 
L 516.80761 -183.500476 
L 516.276813 -183.500476 
L 515.746017 -183.500476 
L 515.21522 -183.500476 
L 514.684423 -183.500476 
L 514.153627 -183.500476 
L 513.62283 -183.500476 
L 513.092033 -183.500476 
L 512.561237 -183.500476 
L 512.03044 -183.500476 
L 511.499643 -183.500476 
L 510.968847 -183.500476 
L 510.43805 -183.500476 
L 509.907253 -183.500476 
L 509.376457 -183.500476 
L 508.84566 -183.500476 
L 508.314863 -183.500476 
L 507.784067 -183.500476 
L 507.25327 -183.500476 
L 506.722473 -183.500476 
L 506.191677 -183.500476 
L 505.66088 -183.500476 
L 505.130083 -183.500476 
L 504.599287 -183.500476 
L 504.06849 -183.500476 
L 503.537693 -183.500476 
L 503.006897 -183.500476 
L 502.4761 -183.500476 
L 501.945303 -183.500476 
L 501.414507 -183.500476 
L 500.88371 -183.500476 
L 500.352913 -183.500476 
L 499.822117 -183.500476 
L 499.29132 -183.500476 
L 498.760523 -183.500476 
L 498.229727 -183.500476 
L 497.69893 -183.500476 
L 497.168133 -183.500476 
L 496.637337 -183.500476 
L 496.10654 -183.500476 
L 495.575743 -183.500476 
L 495.044946 -183.500476 
L 494.51415 -183.500476 
L 493.983353 -183.500476 
L 493.452556 -183.500476 
L 492.92176 -183.500476 
L 492.390963 -183.500476 
L 491.860166 -183.500476 
L 491.32937 -183.500476 
L 490.798573 -183.500476 
L 490.267776 -183.500476 
L 489.73698 -183.500476 
L 489.206183 -183.500476 
L 488.675386 -183.500476 
L 488.14459 -183.500476 
L 487.613793 -183.500476 
L 487.082996 -183.500476 
L 486.5522 -183.500476 
L 486.021403 -183.500476 
L 485.490606 -183.500476 
L 484.95981 -183.500476 
L 484.429013 -183.500476 
L 483.898216 -183.500476 
L 483.36742 -183.500476 
L 482.836623 -183.500476 
L 482.305826 -183.500476 
L 481.77503 -183.500476 
L 481.244233 -183.500476 
L 480.713436 -183.500476 
L 480.18264 -183.500476 
L 479.651843 -183.500476 
L 479.121046 -183.500476 
L 478.59025 -183.500476 
L 478.059453 -183.500476 
L 477.528656 -183.500476 
L 476.99786 -183.500476 
L 476.467063 -183.500476 
L 475.936266 -183.500476 
L 475.40547 -183.500476 
L 474.874673 -183.500476 
L 474.343876 -183.500476 
L 473.81308 -183.500476 
L 473.282283 -183.500476 
L 472.751486 -183.500476 
L 472.22069 -183.500476 
L 471.689893 -183.500476 
L 471.159096 -183.500476 
L 470.6283 -183.500476 
L 470.097503 -183.500476 
L 469.566706 -183.500476 
L 469.03591 -183.500476 
L 468.505113 -183.500476 
L 467.974316 -183.500476 
L 467.44352 -183.500476 
L 466.912723 -183.500476 
L 466.381926 -183.500476 
L 465.85113 -183.500476 
L 465.320333 -183.500476 
L 464.789536 -183.500476 
L 464.25874 -183.500476 
L 463.727943 -183.500476 
L 463.197146 -183.500476 
L 462.66635 -183.500476 
L 462.135553 -183.500476 
L 461.604756 -183.500476 
L 461.07396 -183.500476 
L 460.543163 -183.500476 
L 460.012366 -183.500476 
L 459.48157 -183.500476 
L 458.950773 -183.500476 
L 458.419976 -183.500476 
L 457.88918 -183.500476 
L 457.358383 -183.500476 
L 456.827586 -183.500476 
L 456.29679 -183.500476 
L 455.765993 -183.500476 
L 455.235196 -183.500476 
L 454.7044 -183.500476 
L 454.173603 -183.500476 
L 453.642806 -183.500476 
L 453.11201 -183.500476 
L 452.581213 -183.500476 
L 452.050416 -183.500476 
L 451.51962 -183.500476 
L 450.988823 -183.500476 
L 450.458026 -183.500476 
L 449.927229 -183.500476 
L 449.396433 -183.500476 
L 448.865636 -183.500476 
L 448.334839 -183.500476 
L 447.804043 -183.500476 
L 447.273246 -183.500476 
L 446.742449 -183.500476 
L 446.211653 -183.500476 
L 445.680856 -183.500476 
L 445.150059 -183.500476 
L 444.619263 -183.500476 
L 444.088466 -183.500476 
L 443.557669 -183.500476 
L 443.026873 -183.500476 
L 442.496076 -183.500476 
L 441.965279 -183.500476 
L 441.434483 -183.500476 
L 440.903686 -183.500476 
L 440.372889 -183.500476 
L 439.842093 -183.500476 
L 439.311296 -183.500476 
L 438.780499 -183.500476 
L 438.249703 -183.500476 
L 437.718906 -183.500476 
L 437.188109 -183.500476 
L 436.657313 -183.500476 
L 436.126516 -183.500476 
L 435.595719 -183.500476 
L 435.064923 -183.500476 
L 434.534126 -183.500476 
L 434.003329 -183.500476 
L 433.472533 -183.500476 
L 432.941736 -183.500476 
L 432.410939 -183.500476 
L 431.880143 -183.500476 
L 431.349346 -183.500476 
L 430.818549 -183.500476 
L 430.287753 -183.500476 
L 429.756956 -183.500476 
L 429.226159 -183.500476 
L 428.695363 -183.500476 
L 428.164566 -183.500476 
L 427.633769 -183.500476 
L 427.102973 -183.500476 
L 426.572176 -183.500476 
L 426.041379 -183.500476 
L 425.510583 -183.500476 
L 424.979786 -183.500476 
L 424.448989 -183.500476 
L 423.918193 -183.500476 
L 423.387396 -183.500476 
L 422.856599 -183.500476 
L 422.325803 -183.500476 
L 421.795006 -183.500476 
L 421.264209 -183.500476 
L 420.733413 -183.500476 
L 420.202616 -183.500476 
L 419.671819 -183.500476 
L 419.141023 -183.500476 
L 418.610226 -183.500476 
L 418.079429 -183.500476 
L 417.548633 -183.500476 
L 417.017836 -183.500476 
L 416.487039 -183.500476 
L 415.956243 -183.500476 
L 415.425446 -183.500476 
L 414.894649 -183.500476 
L 414.363853 -183.500476 
L 413.833056 -183.500476 
L 413.302259 -183.500476 
L 412.771463 -183.500476 
L 412.240666 -183.500476 
L 411.709869 -183.500476 
L 411.179073 -183.500476 
L 410.648276 -183.500476 
L 410.117479 -183.500476 
L 409.586683 -183.500476 
L 409.055886 -183.500476 
L 408.525089 -183.500476 
L 407.994293 -183.500476 
L 407.463496 -183.500476 
L 406.932699 -183.500476 
L 406.401902 -183.500476 
L 405.871106 -183.500476 
L 405.340309 -183.500476 
L 404.809512 -183.500476 
L 404.278716 -183.500476 
L 403.747919 -183.500476 
L 403.217122 -183.500476 
L 402.686326 -183.500476 
L 402.155529 -183.500476 
L 401.624732 -183.500476 
L 401.093936 -183.500476 
L 400.563139 -183.500476 
L 400.032342 -183.500476 
L 399.501546 -183.500476 
L 398.970749 -183.500476 
L 398.439952 -183.500476 
L 397.909156 -183.500476 
L 397.378359 -183.500476 
L 396.847562 -183.500476 
L 396.316766 -183.500476 
L 395.785969 -183.500476 
L 395.255172 -183.500476 
L 394.724376 -183.500476 
L 394.193579 -183.500476 
L 393.662782 -183.500476 
L 393.131986 -183.500476 
L 392.601189 -183.500476 
L 392.070392 -183.500476 
L 391.539596 -183.500476 
L 391.008799 -183.500476 
L 390.478002 -183.500476 
L 389.947206 -183.500476 
L 389.416409 -183.500476 
L 388.885612 -183.500476 
L 388.354816 -183.500476 
L 387.824019 -183.500476 
L 387.293222 -183.500476 
L 386.762426 -183.500476 
L 386.231629 -183.500476 
L 385.700832 -183.500476 
L 385.170036 -183.500476 
L 384.639239 -183.500476 
L 384.108442 -183.500476 
L 383.577646 -183.500476 
L 383.046849 -183.500476 
L 382.516052 -183.500476 
L 381.985256 -183.500476 
L 381.454459 -183.500476 
L 380.923662 -183.500476 
L 380.392866 -183.500476 
L 379.862069 -183.500476 
L 379.331272 -183.500476 
L 378.800476 -183.500476 
L 378.269679 -183.500476 
L 377.738882 -183.500476 
L 377.208086 -183.500476 
L 376.677289 -183.500476 
L 376.146492 -183.500476 
L 375.615696 -183.500476 
L 375.084899 -183.500476 
L 374.554102 -183.500476 
L 374.023306 -183.500476 
L 373.492509 -183.500476 
L 372.961712 -183.500476 
L 372.430916 -183.500476 
L 371.900119 -183.500476 
L 371.369322 -183.500476 
L 370.838526 -183.500476 
L 370.307729 -183.500476 
L 369.776932 -183.500476 
L 369.246136 -183.500476 
L 368.715339 -183.500476 
L 368.184542 -183.500476 
L 367.653746 -183.500476 
L 367.122949 -183.500476 
L 366.592152 -183.500476 
L 366.061356 -183.500476 
L 365.530559 -183.500476 
L 364.999762 -183.500476 
L 364.468966 -183.500476 
L 363.938169 -183.500476 
L 363.407372 -183.500476 
L 362.876576 -183.500476 
L 362.345779 -183.500476 
L 361.814982 -183.500476 
L 361.284185 -183.500476 
L 360.753389 -183.500476 
L 360.222592 -183.500476 
L 359.691795 -183.500476 
L 359.160999 -183.500476 
L 358.630202 -183.500476 
L 358.099405 -183.500476 
L 357.568609 -183.500476 
L 357.037812 -183.500476 
L 356.507015 -183.500476 
L 355.976219 -183.500476 
L 355.445422 -183.500476 
L 354.914625 -183.500476 
L 354.383829 -183.500476 
L 353.853032 -183.500476 
L 353.322235 -183.500476 
L 352.791439 -183.500476 
L 352.260642 -183.500476 
L 351.729845 -183.500476 
L 351.199049 -183.500476 
L 350.668252 -183.500476 
L 350.137455 -183.500476 
L 349.606659 -183.500476 
L 349.075862 -183.500476 
L 348.545065 -183.500476 
L 348.014269 -183.500476 
L 347.483472 -183.500476 
L 346.952675 -183.500476 
L 346.421879 -183.500476 
L 345.891082 -183.500476 
L 345.360285 -183.500476 
L 344.829489 -183.500476 
L 344.298692 -183.500476 
L 343.767895 -183.500476 
L 343.237099 -183.500476 
L 342.706302 -183.500476 
L 342.175505 -183.500476 
L 341.644709 -183.500476 
L 341.113912 -183.500476 
L 340.583115 -183.500476 
L 340.052319 -183.500476 
L 339.521522 -183.500476 
L 338.990725 -183.500476 
L 338.459929 -183.500476 
L 337.929132 -183.500476 
L 337.398335 -183.500476 
L 336.867539 -183.500476 
L 336.336742 -183.500476 
L 335.805945 -183.500476 
L 335.275149 -183.500476 
L 334.744352 -183.500476 
L 334.213555 -183.500476 
L 333.682759 -183.500476 
L 333.151962 -183.500476 
L 332.621165 -183.500476 
L 332.090369 -183.500476 
L 331.559572 -183.500476 
L 331.028775 -183.500476 
L 330.497979 -183.500476 
L 329.967182 -183.500476 
L 329.436385 -183.500476 
L 328.905589 -183.500476 
L 328.374792 -183.500476 
L 327.843995 -183.500476 
L 327.313199 -183.500476 
L 326.782402 -183.500476 
L 326.251605 -183.500476 
L 325.720809 -183.500476 
L 325.190012 -183.500476 
L 324.659215 -183.500476 
L 324.128419 -183.500476 
L 323.597622 -183.500476 
L 323.066825 -183.500476 
L 322.536029 -183.500476 
L 322.005232 -183.500476 
L 321.474435 -183.500476 
L 320.943639 -183.500476 
L 320.412842 -183.500476 
L 319.882045 -183.500476 
L 319.351249 -183.500476 
L 318.820452 -183.500476 
L 318.289655 -183.500476 
L 317.758859 -183.500476 
L 317.228062 -183.500476 
L 316.697265 -183.500476 
L 316.166468 -183.500476 
L 315.635672 -183.500476 
L 315.104875 -183.500476 
L 314.574078 -183.500476 
L 314.043282 -183.500476 
L 313.512485 -183.500476 
L 312.981688 -183.500476 
L 312.450892 -183.500476 
L 311.920095 -183.500476 
L 311.389298 -183.500476 
L 310.858502 -183.500476 
L 310.327705 -183.500476 
L 309.796908 -183.500476 
L 309.266112 -183.500476 
L 308.735315 -183.500476 
L 308.204518 -183.500476 
L 307.673722 -183.500476 
L 307.142925 -183.500476 
L 306.612128 -183.500476 
L 306.081332 -183.500476 
L 305.550535 -183.500476 
L 305.019738 -183.500476 
L 304.488942 -183.500476 
L 303.958145 -183.500476 
L 303.427348 -183.500476 
L 302.896552 -183.500476 
L 302.365755 -183.500476 
L 301.834958 -183.500476 
L 301.304162 -183.500476 
L 300.773365 -183.500476 
L 300.242568 -183.500476 
L 299.711772 -183.500476 
L 299.180975 -183.500476 
L 298.650178 -183.500476 
L 298.119382 -183.500476 
L 297.588585 -183.500476 
L 297.057788 -183.500476 
L 296.526992 -183.500476 
L 295.996195 -183.500476 
L 295.465398 -183.500476 
L 294.934602 -183.500476 
L 294.403805 -183.500476 
L 293.873008 -183.500476 
L 293.342212 -183.500476 
L 292.811415 -183.500476 
L 292.280618 -183.500476 
L 291.749822 -183.500476 
L 291.219025 -183.500476 
L 290.688228 -183.500476 
L 290.157432 -183.500476 
L 289.626635 -183.500476 
L 289.095838 -183.500476 
L 288.565042 -183.500476 
L 288.034245 -183.500476 
L 287.503448 -183.500476 
L 286.972652 -183.500476 
L 286.441855 -183.500476 
L 285.911058 -183.500476 
L 285.380262 -183.500476 
L 284.849465 -183.500476 
L 284.318668 -183.500476 
L 283.787872 -183.500476 
L 283.257075 -183.500476 
L 282.726278 -183.500476 
L 282.195482 -183.500476 
L 281.664685 -183.500476 
L 281.133888 -183.500476 
L 280.603092 -183.500476 
L 280.072295 -183.500476 
L 279.541498 -183.500476 
L 279.010702 -183.500476 
L 278.479905 -183.500476 
L 277.949108 -183.500476 
L 277.418312 -183.500476 
L 276.887515 -183.500476 
L 276.356718 -183.500476 
L 275.825922 -183.500476 
L 275.295125 -183.500476 
L 274.764328 -183.500476 
L 274.233532 -183.500476 
L 273.702735 -183.500476 
L 273.171938 -183.500476 
L 272.641141 -183.500476 
L 272.110345 -183.500476 
L 271.579548 -183.500476 
L 271.048751 -183.500476 
L 270.517955 -183.500476 
L 269.987158 -183.500476 
L 269.456361 -183.500476 
L 268.925565 -183.500476 
L 268.394768 -183.500476 
L 267.863971 -183.500476 
L 267.333175 -183.500476 
L 266.802378 -183.500476 
L 266.271581 -183.500476 
L 265.740785 -183.500476 
L 265.209988 -183.500476 
L 264.679191 -183.500476 
L 264.148395 -183.500476 
L 263.617598 -183.500476 
L 263.086801 -183.500476 
L 262.556005 -183.500476 
L 262.025208 -183.500476 
L 261.494411 -183.500476 
L 260.963615 -183.500476 
L 260.432818 -183.500476 
L 259.902021 -183.500476 
L 259.371225 -183.500476 
L 258.840428 -183.500476 
L 258.309631 -183.500476 
L 257.778835 -183.500476 
L 257.248038 -183.500476 
L 256.717241 -183.500476 
L 256.186445 -183.500476 
L 255.655648 -183.500476 
L 255.124851 -183.500476 
L 254.594055 -183.500476 
L 254.063258 -183.500476 
L 253.532461 -183.500476 
L 253.001665 -183.500476 
L 252.470868 -183.500476 
L 251.940071 -183.500476 
L 251.409275 -183.500476 
L 250.878478 -183.500476 
L 250.347681 -183.500476 
L 249.816885 -183.500476 
L 249.286088 -183.500476 
L 248.755291 -183.500476 
L 248.224495 -183.500476 
L 247.693698 -183.500476 
L 247.162901 -183.500476 
L 246.632105 -183.500476 
L 246.101308 -183.500476 
L 245.570511 -183.500476 
L 245.039715 -183.500476 
L 244.508918 -183.500476 
L 243.978121 -183.500476 
L 243.447325 -183.500476 
L 242.916528 -183.500476 
L 242.385731 -183.500476 
L 241.854935 -183.500476 
L 241.324138 -183.500476 
L 240.793341 -183.500476 
L 240.262545 -183.500476 
L 239.731748 -183.500476 
L 239.200951 -183.500476 
L 238.670155 -183.500476 
L 238.139358 -183.500476 
L 237.608561 -183.500476 
L 237.077765 -183.500476 
L 236.546968 -183.500476 
L 236.016171 -183.500476 
L 235.485375 -183.500476 
L 234.954578 -183.500476 
L 234.423781 -183.500476 
L 233.892985 -183.500476 
L 233.362188 -183.500476 
L 232.831391 -183.500476 
L 232.300595 -183.500476 
L 231.769798 -183.500476 
L 231.239001 -183.500476 
L 230.708205 -183.500476 
L 230.177408 -183.500476 
L 229.646611 -183.500476 
L 229.115815 -183.500476 
L 228.585018 -183.500476 
L 228.054221 -183.500476 
L 227.523424 -183.500476 
L 226.992628 -183.500476 
L 226.461831 -183.500476 
L 225.931034 -183.500476 
L 225.400238 -183.500476 
L 224.869441 -183.500476 
L 224.338644 -183.500476 
L 223.807848 -183.500476 
L 223.277051 -183.500476 
L 222.746254 -183.500476 
L 222.215458 -183.500476 
L 221.684661 -183.500476 
L 221.153864 -183.500476 
L 220.623068 -183.500476 
L 220.092271 -183.500476 
L 219.561474 -183.500476 
L 219.030678 -183.500476 
L 218.499881 -183.500476 
L 217.969084 -183.500476 
L 217.438288 -183.500476 
L 216.907491 -183.500476 
L 216.376694 -183.500476 
L 215.845898 -183.500476 
L 215.315101 -183.500476 
L 214.784304 -183.500476 
L 214.253508 -183.500476 
L 213.722711 -183.500476 
L 213.191914 -183.500476 
L 212.661118 -183.500476 
L 212.130321 -183.500476 
L 211.599524 -183.500476 
L 211.068728 -183.500476 
L 210.537931 -183.500476 
L 210.007134 -183.500476 
L 209.476338 -183.500476 
L 208.945541 -183.500476 
L 208.414744 -183.500476 
L 207.883948 -183.500476 
L 207.353151 -183.500476 
L 206.822354 -183.500476 
L 206.291558 -183.500476 
L 205.760761 -183.500476 
L 205.229964 -183.500476 
L 204.699168 -183.500476 
L 204.168371 -183.500476 
L 203.637574 -183.500476 
L 203.106778 -183.500476 
L 202.575981 -183.500476 
L 202.045184 -183.500476 
L 201.514388 -183.500476 
L 200.983591 -183.500476 
L 200.452794 -183.500476 
L 199.921998 -183.500476 
L 199.391201 -183.500476 
L 198.860404 -183.500476 
L 198.329608 -183.500476 
L 197.798811 -183.500476 
L 197.268014 -183.500476 
L 196.737218 -183.500476 
L 196.206421 -183.500476 
L 195.675624 -183.500476 
L 195.144828 -183.500476 
L 194.614031 -183.500476 
L 194.083234 -183.500476 
L 193.552438 -183.500476 
L 193.021641 -183.500476 
L 192.490844 -183.500476 
L 191.960048 -183.500476 
L 191.429251 -183.500476 
L 190.898454 -183.500476 
L 190.367658 -183.500476 
L 189.836861 -183.500476 
L 189.306064 -183.500476 
L 188.775268 -183.500476 
L 188.244471 -183.500476 
L 187.713674 -183.500476 
L 187.182878 -183.500476 
L 186.652081 -183.500476 
L 186.121284 -183.500476 
L 185.590488 -183.500476 
L 185.059691 -183.500476 
L 184.528894 -183.500476 
L 183.998098 -183.500476 
L 183.467301 -183.500476 
L 182.936504 -183.500476 
L 182.405707 -183.500476 
L 181.874911 -183.500476 
L 181.344114 -183.500476 
L 180.813317 -183.500476 
L 180.282521 -183.500476 
L 179.751724 -183.500476 
L 179.220927 -183.500476 
L 178.690131 -183.500476 
L 178.159334 -183.500476 
L 177.628537 -183.500476 
L 177.097741 -183.500476 
L 176.566944 -183.500476 
L 176.036147 -183.500476 
L 175.505351 -183.500476 
L 174.974554 -183.500476 
L 174.443757 -183.500476 
L 173.912961 -183.500476 
L 173.382164 -183.500476 
L 172.851367 -183.500476 
L 172.320571 -183.500476 
L 171.789774 -183.500476 
L 171.258977 -183.500476 
L 170.728181 -183.500476 
L 170.197384 -183.500476 
L 169.666587 -183.500476 
L 169.135791 -183.500476 
L 168.604994 -183.500476 
L 168.074197 -183.500476 
L 167.543401 -183.500476 
L 167.012604 -183.500476 
L 166.481807 -183.500476 
L 165.951011 -183.500476 
L 165.420214 -183.500476 
L 164.889417 -183.500476 
L 164.358621 -183.500476 
L 163.827824 -183.500476 
L 163.297027 -183.500476 
L 162.766231 -183.500476 
L 162.235434 -183.500476 
L 161.704637 -183.500476 
L 161.173841 -183.500476 
L 160.643044 -183.500476 
L 160.112247 -183.500476 
L 159.581451 -183.500476 
L 159.050654 -183.500476 
L 158.519857 -183.500476 
L 157.989061 -183.500476 
L 157.458264 -183.500476 
L 156.927467 -183.500476 
L 156.396671 -183.500476 
L 155.865874 -183.500476 
L 155.335077 -183.500476 
L 154.804281 -183.500476 
L 154.273484 -183.500476 
L 153.742687 -183.500476 
L 153.211891 -183.500476 
L 152.681094 -183.500476 
L 152.150297 -183.500476 
L 151.619501 -183.500476 
L 151.088704 -183.500476 
L 150.557907 -183.500476 
L 150.027111 -183.500476 
L 149.496314 -183.500476 
L 148.965517 -183.500476 
L 148.434721 -183.500476 
L 147.903924 -183.500476 
L 147.373127 -183.500476 
L 146.842331 -183.500476 
L 146.311534 -183.500476 
L 145.780737 -183.500476 
L 145.249941 -183.500476 
L 144.719144 -183.500476 
L 144.188347 -183.500476 
L 143.657551 -183.500476 
L 143.126754 -183.500476 
L 142.595957 -183.500476 
L 142.065161 -183.500476 
L 141.534364 -183.500476 
L 141.003567 -183.500476 
L 140.472771 -183.500476 
L 139.941974 -183.500476 
L 139.411177 -183.500476 
L 138.88038 -183.500476 
L 138.349584 -183.500476 
L 137.818787 -183.500476 
L 137.28799 -183.500476 
L 136.757194 -183.500476 
L 136.226397 -183.500476 
L 135.6956 -183.500476 
L 135.164804 -183.500476 
L 134.634007 -183.500476 
L 134.10321 -183.500476 
L 133.572414 -183.500476 
L 133.041617 -183.500476 
L 132.51082 -183.500476 
L 131.980024 -183.500476 
L 131.449227 -183.500476 
L 130.91843 -183.500476 
L 130.387634 -183.500476 
L 129.856837 -183.500476 
L 129.32604 -183.500476 
L 128.795244 -183.500476 
L 128.264447 -183.500476 
L 127.73365 -183.500476 
L 127.202854 -183.500476 
L 126.672057 -183.500476 
L 126.14126 -183.500476 
L 125.610464 -183.500476 
L 125.079667 -183.500476 
L 124.54887 -183.500476 
L 124.018074 -183.500476 
L 123.487277 -183.500476 
L 122.95648 -183.500476 
L 122.425684 -183.500476 
L 121.894887 -183.500476 
L 121.36409 -183.500476 
L 120.833294 -183.500476 
L 120.302497 -183.500476 
L 119.7717 -183.500476 
L 119.240904 -183.500476 
L 118.710107 -183.500476 
L 118.17931 -183.500476 
L 117.648514 -183.500476 
L 117.117717 -183.500476 
L 116.58692 -183.500476 
L 116.056124 -183.500476 
L 115.525327 -183.500476 
L 114.99453 -183.500476 
L 114.463734 -183.500476 
L 113.932937 -183.500476 
L 113.40214 -183.500476 
L 112.871344 -183.500476 
L 112.340547 -183.500476 
L 111.80975 -183.500476 
L 111.278954 -183.500476 
L 110.748157 -183.500476 
L 110.21736 -183.500476 
L 109.686564 -183.500476 
L 109.155767 -183.500476 
L 108.62497 -183.500476 
L 108.094174 -183.500476 
L 107.563377 -183.500476 
L 107.03258 -183.500476 
L 106.501784 -183.500476 
L 105.970987 -183.500476 
L 105.44019 -183.500476 
L 104.909394 -183.500476 
L 104.378597 -183.500476 
L 103.8478 -183.500476 
L 103.317004 -183.500476 
L 102.786207 -183.500476 
L 102.25541 -183.500476 
L 101.724614 -183.500476 
L 101.193817 -183.500476 
L 100.66302 -183.500476 
L 100.132224 -183.500476 
L 99.601427 -183.500476 
L 99.07063 -183.500476 
L 98.539834 -183.500476 
L 98.009037 -183.500476 
L 97.47824 -183.500476 
L 96.947444 -183.500476 
L 96.416647 -183.500476 
L 95.88585 -183.500476 
L 95.355054 -183.500476 
L 94.824257 -183.500476 
L 94.29346 -183.500476 
L 93.762663 -183.500476 
L 93.231867 -183.500476 
L 92.70107 -183.500476 
L 92.170273 -183.500476 
L 91.639477 -183.500476 
L 91.10868 -183.500476 
L 90.577883 -183.500476 
L 90.047087 -183.500476 
L 89.51629 -183.500476 
L 88.985493 -183.500476 
L 88.454697 -183.500476 
L 87.9239 -183.500476 
L 87.393103 -183.500476 
L 86.862307 -183.500476 
L 86.33151 -183.500476 
L 85.800713 -183.500476 
L 85.269917 -183.500476 
L 84.73912 -183.500476 
L 84.208323 -183.500476 
L 83.677527 -183.500476 
L 83.14673 -183.500476 
L 82.615933 -183.500476 
L 82.085137 -183.500476 
L 81.55434 -183.500476 
L 81.023543 -183.500476 
L 80.492747 -183.500476 
L 79.96195 -183.500476 
L 79.431153 -183.500476 
L 78.900357 -183.500476 
L 78.36956 -183.500476 
L 77.838763 -183.500476 
L 77.307967 -183.500476 
L 76.77717 -183.500476 
L 76.246373 -183.500476 
L 75.715577 -183.500476 
L 75.18478 -183.500476 
L 74.653983 -183.500476 
L 74.123187 -183.500476 
L 73.59239 -183.500476 
L 73.061593 -183.500476 
L 72.530797 -183.500476 
L 72 -183.500476 
z
" id="ma425273f72"/>
    </defs>
    <g clip-path="url(#p0f1736ac04)">
     <use style="fill-opacity:0.15;" x="0" xlink:href="#ma425273f72" y="360"/>
    </g>
   </g>
   <g id="matplotlib.axis_1">
    <g id="xtick_1">
     <g id="line2d_1">
      <defs>
       <path d="M 0 0 
L 0 3.5 
" id="m154c7477be" style="stroke:#000000;stroke-width:0.8;"/>
      </defs>
      <g>
       <use style="stroke:#000000;stroke-width:0.8;" x="72" xlink:href="#m154c7477be" y="320.4"/>
      </g>
     </g>
     <g id="text_1">
      <!-- 0.0 -->
      <g transform="translate(60.867812 338.037813)scale(0.14 -0.14)">
       <defs>
        <path d="M 2034 4250 
Q 1547 4250 1301 3770 
Q 1056 3291 1056 2328 
Q 1056 1369 1301 889 
Q 1547 409 2034 409 
Q 2525 409 2770 889 
Q 3016 1369 3016 2328 
Q 3016 3291 2770 3770 
Q 2525 4250 2034 4250 
z
M 2034 4750 
Q 2819 4750 3233 4129 
Q 3647 3509 3647 2328 
Q 3647 1150 3233 529 
Q 2819 -91 2034 -91 
Q 1250 -91 836 529 
Q 422 1150 422 2328 
Q 422 3509 836 4129 
Q 1250 4750 2034 4750 
z
" id="DejaVuSans-30" transform="scale(0.015625)"/>
        <path d="M 684 794 
L 1344 794 
L 1344 0 
L 684 0 
L 684 794 
z
" id="DejaVuSans-2e" transform="scale(0.015625)"/>
       </defs>
       <use xlink:href="#DejaVuSans-30"/>
       <use x="63.623047" xlink:href="#DejaVuSans-2e"/>
       <use x="95.410156" xlink:href="#DejaVuSans-30"/>
      </g>
     </g>
    </g>
    <g id="xtick_2">
     <g id="line2d_2">
      <g>
       <use style="stroke:#000000;stroke-width:0.8;" x="127.827914" xlink:href="#m154c7477be" y="320.4"/>
      </g>
     </g>
     <g id="text_2">
      <!-- 2.5 -->
      <g transform="translate(116.695726 338.037813)scale(0.14 -0.14)">
       <defs>
        <path d="M 1228 531 
L 3431 531 
L 3431 0 
L 469 0 
L 469 531 
Q 828 903 1448 1529 
Q 2069 2156 2228 2338 
Q 2531 2678 2651 2914 
Q 2772 3150 2772 3378 
Q 2772 3750 2511 3984 
Q 2250 4219 1831 4219 
Q 1534 4219 1204 4116 
Q 875 4013 500 3803 
L 500 4441 
Q 881 4594 1212 4672 
Q 1544 4750 1819 4750 
Q 2544 4750 2975 4387 
Q 3406 4025 3406 3419 
Q 3406 3131 3298 2873 
Q 3191 2616 2906 2266 
Q 2828 2175 2409 1742 
Q 1991 1309 1228 531 
z
" id="DejaVuSans-32" transform="scale(0.015625)"/>
        <path d="M 691 4666 
L 3169 4666 
L 3169 4134 
L 1269 4134 
L 1269 2991 
Q 1406 3038 1543 3061 
Q 1681 3084 1819 3084 
Q 2600 3084 3056 2656 
Q 3513 2228 3513 1497 
Q 3513 744 3044 326 
Q 2575 -91 1722 -91 
Q 1428 -91 1123 -41 
Q 819 9 494 109 
L 494 744 
Q 775 591 1075 516 
Q 1375 441 1709 441 
Q 2250 441 2565 725 
Q 2881 1009 2881 1497 
Q 2881 1984 2565 2268 
Q 2250 2553 1709 2553 
Q 1456 2553 1204 2497 
Q 953 2441 691 2322 
L 691 4666 
z
" id="DejaVuSans-35" transform="scale(0.015625)"/>
       </defs>
       <use xlink:href="#DejaVuSans-32"/>
       <use x="63.623047" xlink:href="#DejaVuSans-2e"/>
       <use x="95.410156" xlink:href="#DejaVuSans-35"/>
      </g>
     </g>
    </g>
    <g id="xtick_3">
     <g id="line2d_3">
      <g>
       <use style="stroke:#000000;stroke-width:0.8;" x="183.655828" xlink:href="#m154c7477be" y="320.4"/>
      </g>
     </g>
     <g id="text_3">
      <!-- 5.0 -->
      <g transform="translate(172.52364 338.037813)scale(0.14 -0.14)">
       <use xlink:href="#DejaVuSans-35"/>
       <use x="63.623047" xlink:href="#DejaVuSans-2e"/>
       <use x="95.410156" xlink:href="#DejaVuSans-30"/>
      </g>
     </g>
    </g>
    <g id="xtick_4">
     <g id="line2d_4">
      <g>
       <use style="stroke:#000000;stroke-width:0.8;" x="239.483742" xlink:href="#m154c7477be" y="320.4"/>
      </g>
     </g>
     <g id="text_4">
      <!-- 7.5 -->
      <g transform="translate(228.351554 338.037813)scale(0.14 -0.14)">
       <defs>
        <path d="M 525 4666 
L 3525 4666 
L 3525 4397 
L 1831 0 
L 1172 0 
L 2766 4134 
L 525 4134 
L 525 4666 
z
" id="DejaVuSans-37" transform="scale(0.015625)"/>
       </defs>
       <use xlink:href="#DejaVuSans-37"/>
       <use x="63.623047" xlink:href="#DejaVuSans-2e"/>
       <use x="95.410156" xlink:href="#DejaVuSans-35"/>
      </g>
     </g>
    </g>
    <g id="xtick_5">
     <g id="line2d_5">
      <g>
       <use style="stroke:#000000;stroke-width:0.8;" x="295.311656" xlink:href="#m154c7477be" y="320.4"/>
      </g>
     </g>
     <g id="text_5">
      <!-- 10.0 -->
      <g transform="translate(279.725718 338.037813)scale(0.14 -0.14)">
       <defs>
        <path d="M 794 531 
L 1825 531 
L 1825 4091 
L 703 3866 
L 703 4441 
L 1819 4666 
L 2450 4666 
L 2450 531 
L 3481 531 
L 3481 0 
L 794 0 
L 794 531 
z
" id="DejaVuSans-31" transform="scale(0.015625)"/>
       </defs>
       <use xlink:href="#DejaVuSans-31"/>
       <use x="63.623047" xlink:href="#DejaVuSans-30"/>
       <use x="127.246094" xlink:href="#DejaVuSans-2e"/>
       <use x="159.033203" xlink:href="#DejaVuSans-30"/>
      </g>
     </g>
    </g>
    <g id="xtick_6">
     <g id="line2d_6">
      <g>
       <use style="stroke:#000000;stroke-width:0.8;" x="351.13957" xlink:href="#m154c7477be" y="320.4"/>
      </g>
     </g>
     <g id="text_6">
      <!-- 12.5 -->
      <g transform="translate(335.553632 338.037813)scale(0.14 -0.14)">
       <use xlink:href="#DejaVuSans-31"/>
       <use x="63.623047" xlink:href="#DejaVuSans-32"/>
       <use x="127.246094" xlink:href="#DejaVuSans-2e"/>
       <use x="159.033203" xlink:href="#DejaVuSans-35"/>
      </g>
     </g>
    </g>
    <g id="xtick_7">
     <g id="line2d_7">
      <g>
       <use style="stroke:#000000;stroke-width:0.8;" x="406.967484" xlink:href="#m154c7477be" y="320.4"/>
      </g>
     </g>
     <g id="text_7">
      <!-- 15.0 -->
      <g transform="translate(391.381546 338.037813)scale(0.14 -0.14)">
       <use xlink:href="#DejaVuSans-31"/>
       <use x="63.623047" xlink:href="#DejaVuSans-35"/>
       <use x="127.246094" xlink:href="#DejaVuSans-2e"/>
       <use x="159.033203" xlink:href="#DejaVuSans-30"/>
      </g>
     </g>
    </g>
    <g id="xtick_8">
     <g id="line2d_8">
      <g>
       <use style="stroke:#000000;stroke-width:0.8;" x="462.795398" xlink:href="#m154c7477be" y="320.4"/>
      </g>
     </g>
     <g id="text_8">
      <!-- 17.5 -->
      <g transform="translate(447.20946 338.037813)scale(0.14 -0.14)">
       <use xlink:href="#DejaVuSans-31"/>
       <use x="63.623047" xlink:href="#DejaVuSans-37"/>
       <use x="127.246094" xlink:href="#DejaVuSans-2e"/>
       <use x="159.033203" xlink:href="#DejaVuSans-35"/>
      </g>
     </g>
    </g>
    <g id="text_9">
     <!-- Time [Seconds] -->
     <g transform="translate(233.23 357.106875)scale(0.16 -0.16)">
      <defs>
       <path d="M -19 4666 
L 3928 4666 
L 3928 4134 
L 2272 4134 
L 2272 0 
L 1638 0 
L 1638 4134 
L -19 4134 
L -19 4666 
z
" id="DejaVuSans-54" transform="scale(0.015625)"/>
       <path d="M 603 3500 
L 1178 3500 
L 1178 0 
L 603 0 
L 603 3500 
z
M 603 4863 
L 1178 4863 
L 1178 4134 
L 603 4134 
L 603 4863 
z
" id="DejaVuSans-69" transform="scale(0.015625)"/>
       <path d="M 3328 2828 
Q 3544 3216 3844 3400 
Q 4144 3584 4550 3584 
Q 5097 3584 5394 3201 
Q 5691 2819 5691 2113 
L 5691 0 
L 5113 0 
L 5113 2094 
Q 5113 2597 4934 2840 
Q 4756 3084 4391 3084 
Q 3944 3084 3684 2787 
Q 3425 2491 3425 1978 
L 3425 0 
L 2847 0 
L 2847 2094 
Q 2847 2600 2669 2842 
Q 2491 3084 2119 3084 
Q 1678 3084 1418 2786 
Q 1159 2488 1159 1978 
L 1159 0 
L 581 0 
L 581 3500 
L 1159 3500 
L 1159 2956 
Q 1356 3278 1631 3431 
Q 1906 3584 2284 3584 
Q 2666 3584 2933 3390 
Q 3200 3197 3328 2828 
z
" id="DejaVuSans-6d" transform="scale(0.015625)"/>
       <path d="M 3597 1894 
L 3597 1613 
L 953 1613 
Q 991 1019 1311 708 
Q 1631 397 2203 397 
Q 2534 397 2845 478 
Q 3156 559 3463 722 
L 3463 178 
Q 3153 47 2828 -22 
Q 2503 -91 2169 -91 
Q 1331 -91 842 396 
Q 353 884 353 1716 
Q 353 2575 817 3079 
Q 1281 3584 2069 3584 
Q 2775 3584 3186 3129 
Q 3597 2675 3597 1894 
z
M 3022 2063 
Q 3016 2534 2758 2815 
Q 2500 3097 2075 3097 
Q 1594 3097 1305 2825 
Q 1016 2553 972 2059 
L 3022 2063 
z
" id="DejaVuSans-65" transform="scale(0.015625)"/>
       <path id="DejaVuSans-20" transform="scale(0.015625)"/>
       <path d="M 550 4863 
L 1875 4863 
L 1875 4416 
L 1125 4416 
L 1125 -397 
L 1875 -397 
L 1875 -844 
L 550 -844 
L 550 4863 
z
" id="DejaVuSans-5b" transform="scale(0.015625)"/>
       <path d="M 3425 4513 
L 3425 3897 
Q 3066 4069 2747 4153 
Q 2428 4238 2131 4238 
Q 1616 4238 1336 4038 
Q 1056 3838 1056 3469 
Q 1056 3159 1242 3001 
Q 1428 2844 1947 2747 
L 2328 2669 
Q 3034 2534 3370 2195 
Q 3706 1856 3706 1288 
Q 3706 609 3251 259 
Q 2797 -91 1919 -91 
Q 1588 -91 1214 -16 
Q 841 59 441 206 
L 441 856 
Q 825 641 1194 531 
Q 1563 422 1919 422 
Q 2459 422 2753 634 
Q 3047 847 3047 1241 
Q 3047 1584 2836 1778 
Q 2625 1972 2144 2069 
L 1759 2144 
Q 1053 2284 737 2584 
Q 422 2884 422 3419 
Q 422 4038 858 4394 
Q 1294 4750 2059 4750 
Q 2388 4750 2728 4690 
Q 3069 4631 3425 4513 
z
" id="DejaVuSans-53" transform="scale(0.015625)"/>
       <path d="M 3122 3366 
L 3122 2828 
Q 2878 2963 2633 3030 
Q 2388 3097 2138 3097 
Q 1578 3097 1268 2742 
Q 959 2388 959 1747 
Q 959 1106 1268 751 
Q 1578 397 2138 397 
Q 2388 397 2633 464 
Q 2878 531 3122 666 
L 3122 134 
Q 2881 22 2623 -34 
Q 2366 -91 2075 -91 
Q 1284 -91 818 406 
Q 353 903 353 1747 
Q 353 2603 823 3093 
Q 1294 3584 2113 3584 
Q 2378 3584 2631 3529 
Q 2884 3475 3122 3366 
z
" id="DejaVuSans-63" transform="scale(0.015625)"/>
       <path d="M 1959 3097 
Q 1497 3097 1228 2736 
Q 959 2375 959 1747 
Q 959 1119 1226 758 
Q 1494 397 1959 397 
Q 2419 397 2687 759 
Q 2956 1122 2956 1747 
Q 2956 2369 2687 2733 
Q 2419 3097 1959 3097 
z
M 1959 3584 
Q 2709 3584 3137 3096 
Q 3566 2609 3566 1747 
Q 3566 888 3137 398 
Q 2709 -91 1959 -91 
Q 1206 -91 779 398 
Q 353 888 353 1747 
Q 353 2609 779 3096 
Q 1206 3584 1959 3584 
z
" id="DejaVuSans-6f" transform="scale(0.015625)"/>
       <path d="M 3513 2113 
L 3513 0 
L 2938 0 
L 2938 2094 
Q 2938 2591 2744 2837 
Q 2550 3084 2163 3084 
Q 1697 3084 1428 2787 
Q 1159 2491 1159 1978 
L 1159 0 
L 581 0 
L 581 3500 
L 1159 3500 
L 1159 2956 
Q 1366 3272 1645 3428 
Q 1925 3584 2291 3584 
Q 2894 3584 3203 3211 
Q 3513 2838 3513 2113 
z
" id="DejaVuSans-6e" transform="scale(0.015625)"/>
       <path d="M 2906 2969 
L 2906 4863 
L 3481 4863 
L 3481 0 
L 2906 0 
L 2906 525 
Q 2725 213 2448 61 
Q 2172 -91 1784 -91 
Q 1150 -91 751 415 
Q 353 922 353 1747 
Q 353 2572 751 3078 
Q 1150 3584 1784 3584 
Q 2172 3584 2448 3432 
Q 2725 3281 2906 2969 
z
M 947 1747 
Q 947 1113 1208 752 
Q 1469 391 1925 391 
Q 2381 391 2643 752 
Q 2906 1113 2906 1747 
Q 2906 2381 2643 2742 
Q 2381 3103 1925 3103 
Q 1469 3103 1208 2742 
Q 947 2381 947 1747 
z
" id="DejaVuSans-64" transform="scale(0.015625)"/>
       <path d="M 2834 3397 
L 2834 2853 
Q 2591 2978 2328 3040 
Q 2066 3103 1784 3103 
Q 1356 3103 1142 2972 
Q 928 2841 928 2578 
Q 928 2378 1081 2264 
Q 1234 2150 1697 2047 
L 1894 2003 
Q 2506 1872 2764 1633 
Q 3022 1394 3022 966 
Q 3022 478 2636 193 
Q 2250 -91 1575 -91 
Q 1294 -91 989 -36 
Q 684 19 347 128 
L 347 722 
Q 666 556 975 473 
Q 1284 391 1588 391 
Q 1994 391 2212 530 
Q 2431 669 2431 922 
Q 2431 1156 2273 1281 
Q 2116 1406 1581 1522 
L 1381 1569 
Q 847 1681 609 1914 
Q 372 2147 372 2553 
Q 372 3047 722 3315 
Q 1072 3584 1716 3584 
Q 2034 3584 2315 3537 
Q 2597 3491 2834 3397 
z
" id="DejaVuSans-73" transform="scale(0.015625)"/>
       <path d="M 1947 4863 
L 1947 -844 
L 622 -844 
L 622 -397 
L 1369 -397 
L 1369 4416 
L 622 4416 
L 622 4863 
L 1947 4863 
z
" id="DejaVuSans-5d" transform="scale(0.015625)"/>
      </defs>
      <use xlink:href="#DejaVuSans-54"/>
      <use x="57.958984" xlink:href="#DejaVuSans-69"/>
      <use x="85.742188" xlink:href="#DejaVuSans-6d"/>
      <use x="183.154297" xlink:href="#DejaVuSans-65"/>
      <use x="244.677734" xlink:href="#DejaVuSans-20"/>
      <use x="276.464844" xlink:href="#DejaVuSans-5b"/>
      <use x="315.478516" xlink:href="#DejaVuSans-53"/>
      <use x="378.955078" xlink:href="#DejaVuSans-65"/>
      <use x="440.478516" xlink:href="#DejaVuSans-63"/>
      <use x="495.458984" xlink:href="#DejaVuSans-6f"/>
      <use x="556.640625" xlink:href="#DejaVuSans-6e"/>
      <use x="620.019531" xlink:href="#DejaVuSans-64"/>
      <use x="683.496094" xlink:href="#DejaVuSans-73"/>
      <use x="735.595703" xlink:href="#DejaVuSans-5d"/>
     </g>
    </g>
   </g>
   <g id="matplotlib.axis_2">
    <g id="ytick_1">
     <g id="line2d_9">
      <defs>
       <path d="M 0 0 
L -3.5 0 
" id="m2bace3e768" style="stroke:#000000;stroke-width:0.8;"/>
      </defs>
      <g>
       <use style="stroke:#000000;stroke-width:0.8;" x="72" xlink:href="#m2bace3e768" y="284.224381"/>
      </g>
     </g>
     <g id="text_10">
      <!-- 0.0 -->
      <g transform="translate(42.735625 289.543287)scale(0.14 -0.14)">
       <use xlink:href="#DejaVuSans-30"/>
       <use x="63.623047" xlink:href="#DejaVuSans-2e"/>
       <use x="95.410156" xlink:href="#DejaVuSans-30"/>
      </g>
     </g>
    </g>
    <g id="ytick_2">
     <g id="line2d_10">
      <g>
       <use style="stroke:#000000;stroke-width:0.8;" x="72" xlink:href="#m2bace3e768" y="227.950195"/>
      </g>
     </g>
     <g id="text_11">
      <!-- 0.5 -->
      <g transform="translate(42.735625 233.269102)scale(0.14 -0.14)">
       <use xlink:href="#DejaVuSans-30"/>
       <use x="63.623047" xlink:href="#DejaVuSans-2e"/>
       <use x="95.410156" xlink:href="#DejaVuSans-35"/>
      </g>
     </g>
    </g>
    <g id="ytick_3">
     <g id="line2d_11">
      <g>
       <use style="stroke:#000000;stroke-width:0.8;" x="72" xlink:href="#m2bace3e768" y="171.67601"/>
      </g>
     </g>
     <g id="text_12">
      <!-- 1.0 -->
      <g transform="translate(42.735625 176.994916)scale(0.14 -0.14)">
       <use xlink:href="#DejaVuSans-31"/>
       <use x="63.623047" xlink:href="#DejaVuSans-2e"/>
       <use x="95.410156" xlink:href="#DejaVuSans-30"/>
      </g>
     </g>
    </g>
    <g id="ytick_4">
     <g id="line2d_12">
      <g>
       <use style="stroke:#000000;stroke-width:0.8;" x="72" xlink:href="#m2bace3e768" y="115.401824"/>
      </g>
     </g>
     <g id="text_13">
      <!-- 1.5 -->
      <g transform="translate(42.735625 120.72073)scale(0.14 -0.14)">
       <use xlink:href="#DejaVuSans-31"/>
       <use x="63.623047" xlink:href="#DejaVuSans-2e"/>
       <use x="95.410156" xlink:href="#DejaVuSans-35"/>
      </g>
     </g>
    </g>
    <g id="ytick_5">
     <g id="line2d_13">
      <g>
       <use style="stroke:#000000;stroke-width:0.8;" x="72" xlink:href="#m2bace3e768" y="59.127638"/>
      </g>
     </g>
     <g id="text_14">
      <!-- 2.0 -->
      <g transform="translate(42.735625 64.446544)scale(0.14 -0.14)">
       <use xlink:href="#DejaVuSans-32"/>
       <use x="63.623047" xlink:href="#DejaVuSans-2e"/>
       <use x="95.410156" xlink:href="#DejaVuSans-30"/>
      </g>
     </g>
    </g>
    <g id="text_15">
     <!-- Speed [mm/s] -->
     <g transform="translate(35.408125 238.11375)rotate(-90)scale(0.16 -0.16)">
      <defs>
       <path d="M 1159 525 
L 1159 -1331 
L 581 -1331 
L 581 3500 
L 1159 3500 
L 1159 2969 
Q 1341 3281 1617 3432 
Q 1894 3584 2278 3584 
Q 2916 3584 3314 3078 
Q 3713 2572 3713 1747 
Q 3713 922 3314 415 
Q 2916 -91 2278 -91 
Q 1894 -91 1617 61 
Q 1341 213 1159 525 
z
M 3116 1747 
Q 3116 2381 2855 2742 
Q 2594 3103 2138 3103 
Q 1681 3103 1420 2742 
Q 1159 2381 1159 1747 
Q 1159 1113 1420 752 
Q 1681 391 2138 391 
Q 2594 391 2855 752 
Q 3116 1113 3116 1747 
z
" id="DejaVuSans-70" transform="scale(0.015625)"/>
       <path d="M 1625 4666 
L 2156 4666 
L 531 -594 
L 0 -594 
L 1625 4666 
z
" id="DejaVuSans-2f" transform="scale(0.015625)"/>
      </defs>
      <use xlink:href="#DejaVuSans-53"/>
      <use x="63.476562" xlink:href="#DejaVuSans-70"/>
      <use x="126.953125" xlink:href="#DejaVuSans-65"/>
      <use x="188.476562" xlink:href="#DejaVuSans-65"/>
      <use x="250" xlink:href="#DejaVuSans-64"/>
      <use x="313.476562" xlink:href="#DejaVuSans-20"/>
      <use x="345.263672" xlink:href="#DejaVuSans-5b"/>
      <use x="384.277344" xlink:href="#DejaVuSans-6d"/>
      <use x="481.689453" xlink:href="#DejaVuSans-6d"/>
      <use x="579.101562" xlink:href="#DejaVuSans-2f"/>
      <use x="612.792969" xlink:href="#DejaVuSans-73"/>
      <use x="664.892578" xlink:href="#DejaVuSans-5d"/>
     </g>
    </g>
   </g>
   <g id="line2d_14">
    <path clip-path="url(#p0f1736ac04)" d="M 72 174.590166 
L 518.4 174.590166 
" style="fill:none;stroke:#000000;stroke-dasharray:5.55,2.4;stroke-dashoffset:0;stroke-width:1.5;"/>
   </g>
   <g id="line2d_15">
    <path clip-path="url(#p0f1736ac04)" d="M 72 280.874727 
L 104.378597 280.951199 
L 104.909394 280.493813 
L 105.44019 282.33026 
L 105.970987 281.671093 
L 106.501784 278.072003 
L 107.03258 277.680744 
L 107.563377 277.772414 
L 108.094174 280.587104 
L 108.62497 282.073074 
L 109.155767 281.432498 
L 109.686564 281.277257 
L 110.748157 277.571596 
L 111.278954 273.298217 
L 111.80975 275.417499 
L 113.40214 306.3053 
L 113.932937 307.8 
L 114.463734 306.858964 
L 114.99453 300.493592 
L 116.056124 276.01343 
L 116.58692 261.562312 
L 118.17931 202.056007 
L 119.7717 136.800101 
L 120.833294 101.89055 
L 121.894887 73.760372 
L 122.425684 65.019035 
L 122.95648 58.60953 
L 123.487277 55.8 
L 124.018074 57.058202 
L 124.54887 61.660883 
L 125.079667 68.635612 
L 125.610464 77.455472 
L 126.672057 101.74469 
L 127.202854 116.54202 
L 128.264447 139.514138 
L 129.32604 167.173764 
L 129.856837 177.91547 
L 130.387634 183.107591 
L 130.91843 183.514087 
L 131.449227 180.555619 
L 132.51082 164.000014 
L 133.041617 155.169938 
L 133.572414 155.678733 
L 134.10321 161.31544 
L 134.634007 164.940665 
L 135.164804 167.021013 
L 135.6956 165.552217 
L 136.226397 167.058416 
L 136.757194 166.72394 
L 137.28799 166.536809 
L 137.818787 168.946172 
L 138.349584 170.390412 
L 138.88038 169.242085 
L 139.411177 170.128638 
L 139.941974 172.126146 
L 140.472771 170.364069 
L 141.003567 171.458714 
L 141.534364 171.448361 
L 142.065161 172.080775 
L 142.595957 172.98647 
L 143.126754 171.67981 
L 143.657551 171.604928 
L 144.188347 171.876627 
L 144.719144 171.579953 
L 145.249941 172.287234 
L 145.780737 173.21125 
L 146.311534 173.58707 
L 146.842331 173.537233 
L 147.373127 173.264499 
L 147.903924 173.562943 
L 148.434721 173.527712 
L 148.965517 173.681115 
L 149.496314 173.501939 
L 150.027111 173.846176 
L 150.557907 174.358212 
L 151.088704 173.860695 
L 151.619501 173.687701 
L 152.150297 174.23869 
L 152.681094 174.156987 
L 153.211891 173.906548 
L 154.273484 174.392741 
L 154.804281 174.387338 
L 155.865874 174.989354 
L 157.458264 174.560403 
L 157.989061 174.584457 
L 158.519857 174.75022 
L 159.050654 174.771161 
L 160.643044 174.473651 
L 161.704637 174.677492 
L 162.235434 174.571492 
L 163.297027 174.594174 
L 163.827824 174.436336 
L 164.889417 174.824844 
L 165.420214 174.739133 
L 165.951011 174.767871 
L 166.481807 175.050343 
L 167.012604 174.968857 
L 167.543401 174.72218 
L 169.135791 174.744719 
L 169.666587 175.042072 
L 170.197384 175.116031 
L 170.728181 174.904173 
L 171.258977 175.039346 
L 171.789774 174.931155 
L 172.320571 175.008025 
L 173.382164 174.754445 
L 173.912961 175.000754 
L 174.974554 174.293853 
L 175.505351 174.621029 
L 176.036147 174.785464 
L 176.566944 174.79881 
L 177.097741 175.071246 
L 178.159334 174.722395 
L 178.690131 174.939661 
L 179.220927 174.733146 
L 179.751724 174.383901 
L 180.282521 174.871977 
L 180.813317 175.084155 
L 181.344114 174.767746 
L 181.874911 174.9568 
L 182.936504 174.530362 
L 183.467301 174.825906 
L 185.590488 174.734174 
L 186.652081 175.190108 
L 187.182878 174.896883 
L 187.713674 175.042848 
L 188.244471 175.308665 
L 188.775268 174.946701 
L 189.306064 175.026077 
L 189.836861 175.252955 
L 190.367658 174.96709 
L 191.429251 175.317726 
L 191.960048 175.055676 
L 192.490844 175.24264 
L 193.021641 175.28741 
L 193.552438 174.979211 
L 194.083234 175.155343 
L 194.614031 175.016461 
L 195.144828 174.64358 
L 195.675624 174.824224 
L 196.737218 174.454005 
L 197.268014 174.942337 
L 198.329608 174.692719 
L 198.860404 174.933877 
L 199.921998 174.660065 
L 200.452794 174.851354 
L 201.514388 174.998465 
L 202.045184 175.276913 
L 202.575981 174.846777 
L 203.106778 174.762694 
L 203.637574 175.111187 
L 204.168371 174.754414 
L 204.699168 174.732326 
L 205.229964 175.172532 
L 206.291558 174.916386 
L 206.822354 175.004033 
L 207.353151 174.596197 
L 208.414744 175.122893 
L 208.945541 174.547804 
L 209.476338 174.858329 
L 210.007134 175.032437 
L 210.537931 174.749995 
L 211.068728 175.100929 
L 211.599524 175.291709 
L 212.130321 174.927309 
L 212.661118 175.099674 
L 213.191914 175.110437 
L 213.722711 174.789652 
L 214.784304 175.203827 
L 215.315101 175.392298 
L 215.845898 175.336659 
L 216.376694 174.829924 
L 216.907491 174.57884 
L 217.438288 174.976216 
L 218.499881 174.869597 
L 219.030678 175.095003 
L 219.561474 174.835121 
L 220.623068 175.123088 
L 221.153864 174.841556 
L 221.684661 174.697332 
L 222.215458 175.151197 
L 222.746254 175.313631 
L 224.338644 174.708233 
L 224.869441 175.189832 
L 225.400238 175.200613 
L 225.931034 174.676281 
L 226.992628 175.358692 
L 227.523424 174.649333 
L 228.585018 174.785244 
L 229.115815 174.616753 
L 229.646611 175.178892 
L 230.177408 175.037972 
L 230.708205 174.488963 
L 231.239001 174.858906 
L 231.769798 174.855731 
L 232.300595 174.658853 
L 232.831391 174.833694 
L 233.362188 174.785897 
L 233.892985 174.613392 
L 234.423781 174.769808 
L 235.485375 174.612643 
L 236.016171 175.103193 
L 236.546968 175.22832 
L 237.608561 175.158506 
L 238.139358 174.848572 
L 239.200951 175.04738 
L 239.731748 174.673304 
L 240.793341 175.04494 
L 241.324138 174.925464 
L 242.385731 175.19219 
L 242.916528 174.840495 
L 243.447325 174.855364 
L 243.978121 175.057804 
L 244.508918 174.825906 
L 245.039715 174.985735 
L 246.101308 174.531329 
L 246.632105 174.831328 
L 247.693698 174.815756 
L 248.224495 175.109603 
L 249.286088 174.43443 
L 249.816885 174.897111 
L 250.878478 174.938078 
L 251.409275 175.279943 
L 252.470868 174.932555 
L 253.001665 175.001195 
L 253.532461 174.654308 
L 254.063258 174.783098 
L 254.594055 175.077916 
L 255.124851 174.907681 
L 255.655648 174.86003 
L 256.186445 175.191273 
L 257.248038 174.982401 
L 257.778835 175.09712 
L 258.309631 174.826681 
L 258.840428 175.238904 
L 259.371225 175.306677 
L 259.902021 174.752519 
L 260.432818 175.140286 
L 260.963615 175.085514 
L 261.494411 174.556784 
L 262.025208 174.865253 
L 262.556005 174.952904 
L 263.086801 174.846251 
L 263.617598 175.096711 
L 264.679191 174.892846 
L 265.209988 175.065525 
L 266.271581 174.688018 
L 266.802378 175.01076 
L 267.333175 174.760776 
L 267.863971 174.650266 
L 268.394768 175.124932 
L 268.925565 175.18579 
L 269.987158 174.780668 
L 270.517955 174.648627 
L 271.048751 174.779828 
L 271.579548 175.040649 
L 273.171938 175.186629 
L 273.702735 174.896118 
L 274.764328 174.992293 
L 275.295125 174.673506 
L 276.356718 174.946958 
L 276.887515 174.677497 
L 277.418312 174.926783 
L 277.949108 175.048437 
L 278.479905 174.459636 
L 279.010702 174.478671 
L 279.541498 174.720084 
L 280.072295 174.623349 
L 280.603092 175.112093 
L 281.133888 175.021164 
L 281.664685 174.761227 
L 282.195482 175.266214 
L 283.257075 174.713074 
L 283.787872 175.152369 
L 284.849465 174.752875 
L 285.380262 175.065436 
L 286.441855 175.119497 
L 286.972652 175.057161 
L 287.503448 174.784784 
L 288.034245 174.87021 
L 288.565042 175.355856 
L 289.626635 174.756592 
L 290.157432 175.217345 
L 291.219025 174.88935 
L 291.749822 174.736189 
L 292.280618 174.357864 
L 293.342212 174.954743 
L 294.403805 174.883959 
L 294.934602 175.104634 
L 295.465398 174.933661 
L 296.526992 175.12996 
L 297.057788 174.650259 
L 298.119382 175.194598 
L 298.650178 175.07011 
L 299.711772 175.092707 
L 300.242568 174.698123 
L 301.304162 175.005413 
L 301.834958 174.787363 
L 302.365755 174.991643 
L 302.896552 175.048019 
L 303.427348 174.920822 
L 303.958145 175.075209 
L 305.019738 174.968065 
L 305.550535 175.109925 
L 306.081332 174.659167 
L 306.612128 174.598431 
L 307.142925 174.969449 
L 307.673722 174.791839 
L 308.204518 174.478991 
L 309.266112 174.895755 
L 309.796908 174.816281 
L 310.327705 174.88695 
L 310.858502 174.599596 
L 311.389298 174.636799 
L 311.920095 175.222747 
L 312.981688 174.697734 
L 314.043282 174.418038 
L 314.574078 174.85607 
L 315.104875 174.853809 
L 315.635672 174.596502 
L 316.697265 175.181312 
L 317.228062 175.024378 
L 318.289655 174.979943 
L 318.820452 174.824665 
L 319.351249 175.172815 
L 319.882045 175.38394 
L 320.412842 175.036407 
L 321.474435 175.295064 
L 322.005232 174.835166 
L 323.597622 174.845281 
L 324.128419 175.144817 
L 325.190012 175.098065 
L 325.720809 175.310935 
L 326.251605 175.167103 
L 326.782402 174.904433 
L 327.313199 175.325497 
L 327.843995 175.246115 
L 328.374792 174.849878 
L 328.905589 174.869289 
L 329.967182 174.672381 
L 331.028775 174.891727 
L 331.559572 174.542302 
L 332.621165 174.907302 
L 333.151962 174.882762 
L 333.682759 175.158305 
L 334.744352 174.803761 
L 335.275149 174.941721 
L 335.805945 174.71227 
L 336.867539 174.741525 
L 337.398335 174.478907 
L 338.459929 174.853135 
L 339.521522 174.432221 
L 340.052319 174.683044 
L 341.644709 175.053132 
L 342.175505 174.865128 
L 342.706302 174.944044 
L 343.237099 174.906748 
L 343.767895 174.670268 
L 344.829489 175.118444 
L 345.360285 174.931643 
L 345.891082 174.97971 
L 346.421879 175.202519 
L 348.014269 175.098145 
L 348.545065 175.070926 
L 349.075862 175.454313 
L 349.606659 175.254944 
L 350.137455 174.757008 
L 350.668252 175.039332 
L 351.199049 175.179153 
L 351.729845 174.901504 
L 352.791439 174.972251 
L 353.322235 174.663146 
L 354.383829 174.689588 
L 354.914625 174.569587 
L 355.445422 174.892265 
L 356.507015 174.475358 
L 357.037812 174.628031 
L 357.568609 174.599942 
L 358.099405 174.766797 
L 358.630202 175.062102 
L 359.160999 174.824579 
L 359.691795 174.865818 
L 360.222592 175.019268 
L 361.284185 174.621924 
L 362.345779 175.089554 
L 362.876576 174.910366 
L 363.407372 175.141923 
L 366.061356 174.917939 
L 366.592152 174.897832 
L 367.122949 174.49887 
L 367.653746 174.524566 
L 368.184542 174.996714 
L 368.715339 174.959668 
L 369.246136 174.80948 
L 370.307729 174.834607 
L 371.900119 174.549898 
L 372.430916 174.90538 
L 372.961712 175.052411 
L 373.492509 174.854878 
L 374.023306 174.862385 
L 374.554102 175.029761 
L 375.084899 174.891091 
L 376.146492 175.209299 
L 376.677289 175.192395 
L 377.208086 175.40003 
L 378.269679 174.812015 
L 380.392866 174.978701 
L 382.516052 174.610352 
L 383.046849 174.391583 
L 384.108442 174.899022 
L 384.639239 174.826349 
L 385.700832 175.104017 
L 386.231629 174.853375 
L 387.293222 175.035621 
L 387.824019 174.719757 
L 388.885612 174.561418 
L 389.416409 174.461155 
L 390.478002 174.768885 
L 391.008799 174.732446 
L 392.070392 174.836497 
L 392.601189 174.754529 
L 393.131986 174.95686 
L 394.724376 174.941758 
L 395.785969 174.78589 
L 396.847562 175.175797 
L 400.032342 174.732697 
L 400.563139 174.523382 
L 401.093936 174.845214 
L 401.624732 175.03463 
L 402.155529 174.834833 
L 402.686326 175.037411 
L 403.217122 175.006271 
L 403.747919 174.73106 
L 405.340309 174.599825 
L 405.871106 174.822743 
L 406.932699 174.591807 
L 408.525089 175.047007 
L 409.055886 175.125628 
L 409.586683 174.981529 
L 410.648276 175.333833 
L 411.179073 174.932076 
L 411.709869 174.739106 
L 412.240666 175.15406 
L 412.771463 175.161536 
L 413.302259 174.986717 
L 413.833056 175.135487 
L 414.363853 175.130355 
L 416.487039 174.703229 
L 417.017836 174.840704 
L 418.079429 174.623002 
L 418.610226 174.877347 
L 419.141023 174.725601 
L 419.671819 174.769225 
L 420.202616 175.08664 
L 420.733413 174.760452 
L 421.795006 174.638985 
L 422.325803 174.376257 
L 422.856599 174.737415 
L 423.387396 174.952808 
L 424.979786 175.172865 
L 425.510583 174.958658 
L 426.572176 175.094195 
L 427.102973 174.818176 
L 428.164566 174.881623 
L 428.695363 174.768526 
L 429.226159 174.828526 
L 429.756956 175.057412 
L 430.818549 174.703057 
L 431.349346 174.770493 
L 432.410939 174.641449 
L 432.941736 174.401275 
L 433.472533 174.299933 
L 434.534126 174.574988 
L 435.064923 174.670868 
L 436.126516 175.189241 
L 436.657313 174.987132 
L 437.188109 175.084301 
L 437.718906 175.053956 
L 438.249703 174.840501 
L 439.311296 174.943549 
L 441.965279 175.116771 
L 442.496076 174.870524 
L 443.026873 174.806832 
L 443.557669 174.919396 
L 444.088466 174.658236 
L 444.619263 174.65847 
L 445.680856 175.100922 
L 446.211653 174.799405 
L 447.804043 174.675012 
L 448.334839 174.628586 
L 448.865636 174.456632 
L 449.396433 174.440183 
L 449.927229 174.736374 
L 450.458026 174.871417 
L 450.988823 174.864587 
L 451.51962 175.16169 
L 452.581213 174.940073 
L 453.11201 175.199385 
L 454.173603 174.785608 
L 454.7044 174.812721 
L 455.765993 174.739325 
L 457.88918 174.884584 
L 458.419976 174.61772 
L 458.950773 174.500198 
L 460.543163 174.824319 
L 461.07396 175.040207 
L 461.604756 175.094867 
L 462.135553 174.8755 
L 462.66635 175.078636 
L 463.727943 174.806466 
L 464.25874 174.9589 
L 464.789536 174.76227 
L 466.381926 174.642235 
L 466.912723 174.892517 
L 467.44352 174.938713 
L 468.505113 174.841605 
L 469.03591 174.937201 
L 470.097503 174.587902 
L 471.159096 174.857772 
L 471.689893 175.045554 
L 474.874673 175.026568 
L 475.40547 174.706966 
L 475.936266 174.737992 
L 477.528656 175.242766 
L 478.059453 174.979351 
L 478.59025 175.022734 
L 479.651843 174.679116 
L 480.18264 174.81111 
L 481.244233 174.432915 
L 481.77503 174.534608 
L 482.305826 174.779253 
L 483.898216 174.834208 
L 484.95981 175.032806 
L 486.021403 174.726688 
L 486.5522 174.737073 
L 488.14459 175.120345 
L 488.675386 175.105101 
L 489.206183 174.899663 
L 489.73698 175.073824 
L 490.798573 174.536235 
L 491.32937 174.588447 
L 492.390963 174.882986 
L 493.452556 175.009096 
L 493.983353 174.803199 
L 495.044946 174.852468 
L 496.10654 174.54198 
L 497.168133 174.51629 
L 498.229727 174.957961 
L 498.760523 174.922236 
L 499.29132 175.008914 
L 500.88371 174.693444 
L 501.945303 175.006957 
L 503.006897 174.746718 
L 503.537693 174.900742 
L 504.06849 175.226027 
L 504.599287 174.890144 
L 506.722473 174.806767 
L 507.25327 174.467553 
L 509.376457 174.535913 
L 514.684423 175.074876 
L 515.746017 174.794218 
L 516.80761 174.172736 
L 517.869203 173.090078 
L 518.4 172.334126 
L 518.4 172.334126 
" style="fill:none;stroke:#ff0000;stroke-linecap:square;stroke-width:2;"/>
   </g>
   <g id="patch_3">
    <path d="M 72 320.4 
L 72 43.2 
" style="fill:none;stroke:#000000;stroke-linecap:square;stroke-linejoin:miter;stroke-width:0.8;"/>
   </g>
   <g id="patch_4">
    <path d="M 518.4 320.4 
L 518.4 43.2 
" style="fill:none;stroke:#000000;stroke-linecap:square;stroke-linejoin:miter;stroke-width:0.8;"/>
   </g>
   <g id="patch_5">
    <path d="M 72 320.4 
L 518.4 320.4 
" style="fill:none;stroke:#000000;stroke-linecap:square;stroke-linejoin:miter;stroke-width:0.8;"/>
   </g>
   <g id="patch_6">
    <path d="M 72 43.2 
L 518.4 43.2 
" style="fill:none;stroke:#000000;stroke-linecap:square;stroke-linejoin:miter;stroke-width:0.8;"/>
   </g>
   <g id="text_16">
    <!-- Front Propogation Speed -->
    <g transform="translate(172.245312 37.2)scale(0.2 -0.2)">
     <defs>
      <path d="M 628 4666 
L 3309 4666 
L 3309 4134 
L 1259 4134 
L 1259 2759 
L 3109 2759 
L 3109 2228 
L 1259 2228 
L 1259 0 
L 628 0 
L 628 4666 
z
" id="DejaVuSans-46" transform="scale(0.015625)"/>
      <path d="M 2631 2963 
Q 2534 3019 2420 3045 
Q 2306 3072 2169 3072 
Q 1681 3072 1420 2755 
Q 1159 2438 1159 1844 
L 1159 0 
L 581 0 
L 581 3500 
L 1159 3500 
L 1159 2956 
Q 1341 3275 1631 3429 
Q 1922 3584 2338 3584 
Q 2397 3584 2469 3576 
Q 2541 3569 2628 3553 
L 2631 2963 
z
" id="DejaVuSans-72" transform="scale(0.015625)"/>
      <path d="M 1172 4494 
L 1172 3500 
L 2356 3500 
L 2356 3053 
L 1172 3053 
L 1172 1153 
Q 1172 725 1289 603 
Q 1406 481 1766 481 
L 2356 481 
L 2356 0 
L 1766 0 
Q 1100 0 847 248 
Q 594 497 594 1153 
L 594 3053 
L 172 3053 
L 172 3500 
L 594 3500 
L 594 4494 
L 1172 4494 
z
" id="DejaVuSans-74" transform="scale(0.015625)"/>
      <path d="M 1259 4147 
L 1259 2394 
L 2053 2394 
Q 2494 2394 2734 2622 
Q 2975 2850 2975 3272 
Q 2975 3691 2734 3919 
Q 2494 4147 2053 4147 
L 1259 4147 
z
M 628 4666 
L 2053 4666 
Q 2838 4666 3239 4311 
Q 3641 3956 3641 3272 
Q 3641 2581 3239 2228 
Q 2838 1875 2053 1875 
L 1259 1875 
L 1259 0 
L 628 0 
L 628 4666 
z
" id="DejaVuSans-50" transform="scale(0.015625)"/>
      <path d="M 2906 1791 
Q 2906 2416 2648 2759 
Q 2391 3103 1925 3103 
Q 1463 3103 1205 2759 
Q 947 2416 947 1791 
Q 947 1169 1205 825 
Q 1463 481 1925 481 
Q 2391 481 2648 825 
Q 2906 1169 2906 1791 
z
M 3481 434 
Q 3481 -459 3084 -895 
Q 2688 -1331 1869 -1331 
Q 1566 -1331 1297 -1286 
Q 1028 -1241 775 -1147 
L 775 -588 
Q 1028 -725 1275 -790 
Q 1522 -856 1778 -856 
Q 2344 -856 2625 -561 
Q 2906 -266 2906 331 
L 2906 616 
Q 2728 306 2450 153 
Q 2172 0 1784 0 
Q 1141 0 747 490 
Q 353 981 353 1791 
Q 353 2603 747 3093 
Q 1141 3584 1784 3584 
Q 2172 3584 2450 3431 
Q 2728 3278 2906 2969 
L 2906 3500 
L 3481 3500 
L 3481 434 
z
" id="DejaVuSans-67" transform="scale(0.015625)"/>
      <path d="M 2194 1759 
Q 1497 1759 1228 1600 
Q 959 1441 959 1056 
Q 959 750 1161 570 
Q 1363 391 1709 391 
Q 2188 391 2477 730 
Q 2766 1069 2766 1631 
L 2766 1759 
L 2194 1759 
z
M 3341 1997 
L 3341 0 
L 2766 0 
L 2766 531 
Q 2569 213 2275 61 
Q 1981 -91 1556 -91 
Q 1019 -91 701 211 
Q 384 513 384 1019 
Q 384 1609 779 1909 
Q 1175 2209 1959 2209 
L 2766 2209 
L 2766 2266 
Q 2766 2663 2505 2880 
Q 2244 3097 1772 3097 
Q 1472 3097 1187 3025 
Q 903 2953 641 2809 
L 641 3341 
Q 956 3463 1253 3523 
Q 1550 3584 1831 3584 
Q 2591 3584 2966 3190 
Q 3341 2797 3341 1997 
z
" id="DejaVuSans-61" transform="scale(0.015625)"/>
     </defs>
     <use xlink:href="#DejaVuSans-46"/>
     <use x="50.269531" xlink:href="#DejaVuSans-72"/>
     <use x="89.132812" xlink:href="#DejaVuSans-6f"/>
     <use x="150.314453" xlink:href="#DejaVuSans-6e"/>
     <use x="213.693359" xlink:href="#DejaVuSans-74"/>
     <use x="252.902344" xlink:href="#DejaVuSans-20"/>
     <use x="284.689453" xlink:href="#DejaVuSans-50"/>
     <use x="343.242188" xlink:href="#DejaVuSans-72"/>
     <use x="382.105469" xlink:href="#DejaVuSans-6f"/>
     <use x="443.287109" xlink:href="#DejaVuSans-70"/>
     <use x="506.763672" xlink:href="#DejaVuSans-6f"/>
     <use x="567.945312" xlink:href="#DejaVuSans-67"/>
     <use x="631.421875" xlink:href="#DejaVuSans-61"/>
     <use x="692.701172" xlink:href="#DejaVuSans-74"/>
     <use x="731.910156" xlink:href="#DejaVuSans-69"/>
     <use x="759.693359" xlink:href="#DejaVuSans-6f"/>
     <use x="820.875" xlink:href="#DejaVuSans-6e"/>
     <use x="884.253906" xlink:href="#DejaVuSans-20"/>
     <use x="916.041016" xlink:href="#DejaVuSans-53"/>
     <use x="979.517578" xlink:href="#DejaVuSans-70"/>
     <use x="1042.994141" xlink:href="#DejaVuSans-65"/>
     <use x="1104.517578" xlink:href="#DejaVuSans-65"/>
     <use x="1166.041016" xlink:href="#DejaVuSans-64"/>
    </g>
   </g>
   <g id="legend_1">
    <g id="patch_7">
     <path d="M 325.967812 111.175687 
L 508.6 111.175687 
Q 511.4 111.175687 511.4 108.375687 
L 511.4 53 
Q 511.4 50.2 508.6 50.2 
L 325.967812 50.2 
Q 323.167812 50.2 323.167812 53 
L 323.167812 108.375687 
Q 323.167812 111.175687 325.967812 111.175687 
z
" style="fill:#ffffff;opacity:0.8;stroke:#cccccc;stroke-linejoin:miter;"/>
    </g>
    <g id="line2d_16">
     <path d="M 328.767812 61.537812 
L 356.767812 61.537812 
" style="fill:none;stroke:#ff0000;stroke-linecap:square;stroke-width:2;"/>
    </g>
    <g id="line2d_17"/>
    <g id="text_17">
     <!-- Front speed -->
     <g transform="translate(367.967812 66.437812)scale(0.14 -0.14)">
      <use xlink:href="#DejaVuSans-46"/>
      <use x="50.269531" xlink:href="#DejaVuSans-72"/>
      <use x="89.132812" xlink:href="#DejaVuSans-6f"/>
      <use x="150.314453" xlink:href="#DejaVuSans-6e"/>
      <use x="213.693359" xlink:href="#DejaVuSans-74"/>
      <use x="252.902344" xlink:href="#DejaVuSans-20"/>
      <use x="284.689453" xlink:href="#DejaVuSans-73"/>
      <use x="336.789062" xlink:href="#DejaVuSans-70"/>
      <use x="400.265625" xlink:href="#DejaVuSans-65"/>
      <use x="461.789062" xlink:href="#DejaVuSans-65"/>
      <use x="523.3125" xlink:href="#DejaVuSans-64"/>
     </g>
    </g>
    <g id="line2d_18">
     <path d="M 328.767812 91.381437 
L 356.767812 91.381437 
" style="fill:none;stroke:#000000;stroke-dasharray:5.55,2.4;stroke-dashoffset:0;stroke-width:1.5;"/>
    </g>
    <g id="line2d_19"/>
    <g id="text_18">
     <!-- Steady state -->
     <g transform="translate(367.967812 86.987187)scale(0.14 -0.14)">
      <defs>
       <path d="M 2059 -325 
Q 1816 -950 1584 -1140 
Q 1353 -1331 966 -1331 
L 506 -1331 
L 506 -850 
L 844 -850 
Q 1081 -850 1212 -737 
Q 1344 -625 1503 -206 
L 1606 56 
L 191 3500 
L 800 3500 
L 1894 763 
L 2988 3500 
L 3597 3500 
L 2059 -325 
z
" id="DejaVuSans-79" transform="scale(0.015625)"/>
      </defs>
      <use xlink:href="#DejaVuSans-53"/>
      <use x="63.476562" xlink:href="#DejaVuSans-74"/>
      <use x="102.685547" xlink:href="#DejaVuSans-65"/>
      <use x="164.208984" xlink:href="#DejaVuSans-61"/>
      <use x="225.488281" xlink:href="#DejaVuSans-64"/>
      <use x="288.964844" xlink:href="#DejaVuSans-79"/>
      <use x="348.144531" xlink:href="#DejaVuSans-20"/>
      <use x="379.931641" xlink:href="#DejaVuSans-73"/>
      <use x="432.03125" xlink:href="#DejaVuSans-74"/>
      <use x="471.240234" xlink:href="#DejaVuSans-61"/>
      <use x="532.519531" xlink:href="#DejaVuSans-74"/>
      <use x="571.728516" xlink:href="#DejaVuSans-65"/>
     </g>
     <!-- speed = 0.97 mm/s -->
     <g transform="translate(367.967812 102.664125)scale(0.14 -0.14)">
      <defs>
       <path d="M 678 2906 
L 4684 2906 
L 4684 2381 
L 678 2381 
L 678 2906 
z
M 678 1631 
L 4684 1631 
L 4684 1100 
L 678 1100 
L 678 1631 
z
" id="DejaVuSans-3d" transform="scale(0.015625)"/>
       <path d="M 703 97 
L 703 672 
Q 941 559 1184 500 
Q 1428 441 1663 441 
Q 2288 441 2617 861 
Q 2947 1281 2994 2138 
Q 2813 1869 2534 1725 
Q 2256 1581 1919 1581 
Q 1219 1581 811 2004 
Q 403 2428 403 3163 
Q 403 3881 828 4315 
Q 1253 4750 1959 4750 
Q 2769 4750 3195 4129 
Q 3622 3509 3622 2328 
Q 3622 1225 3098 567 
Q 2575 -91 1691 -91 
Q 1453 -91 1209 -44 
Q 966 3 703 97 
z
M 1959 2075 
Q 2384 2075 2632 2365 
Q 2881 2656 2881 3163 
Q 2881 3666 2632 3958 
Q 2384 4250 1959 4250 
Q 1534 4250 1286 3958 
Q 1038 3666 1038 3163 
Q 1038 2656 1286 2365 
Q 1534 2075 1959 2075 
z
" id="DejaVuSans-39" transform="scale(0.015625)"/>
      </defs>
      <use xlink:href="#DejaVuSans-73"/>
      <use x="52.099609" xlink:href="#DejaVuSans-70"/>
      <use x="115.576172" xlink:href="#DejaVuSans-65"/>
      <use x="177.099609" xlink:href="#DejaVuSans-65"/>
      <use x="238.623047" xlink:href="#DejaVuSans-64"/>
      <use x="302.099609" xlink:href="#DejaVuSans-20"/>
      <use x="333.886719" xlink:href="#DejaVuSans-3d"/>
      <use x="417.675781" xlink:href="#DejaVuSans-20"/>
      <use x="449.462891" xlink:href="#DejaVuSans-30"/>
      <use x="513.085938" xlink:href="#DejaVuSans-2e"/>
      <use x="544.873047" xlink:href="#DejaVuSans-39"/>
      <use x="608.496094" xlink:href="#DejaVuSans-37"/>
      <use x="672.119141" xlink:href="#DejaVuSans-20"/>
      <use x="703.90625" xlink:href="#DejaVuSans-6d"/>
      <use x="801.318359" xlink:href="#DejaVuSans-6d"/>
      <use x="898.730469" xlink:href="#DejaVuSans-2f"/>
      <use x="932.421875" xlink:href="#DejaVuSans-73"/>
     </g>
    </g>
   </g>
  </g>
 </g>
 <defs>
  <clipPath id="p0f1736ac04">
   <rect height="277.2" width="446.4" x="72" y="43.2"/>
  </clipPath>
 </defs>
</svg>
