<?xml version="1.0" encoding="utf-8" standalone="no"?>
<!DOCTYPE svg PUBLIC "-//W3C//DTD SVG 1.1//EN"
  "http://www.w3.org/Graphics/SVG/1.1/DTD/svg11.dtd">
<svg height="360pt" version="1.1" viewBox="0 0 576 360" width="576pt" xmlns="http://www.w3.org/2000/svg" xmlns:xlink="http://www.w3.org/1999/xlink">
 <metadata>
  <rdf:RDF xmlns:cc="http://creativecommons.org/ns#" xmlns:dc="http://purl.org/dc/elements/1.1/" xmlns:rdf="http://www.w3.org/1999/02/22-rdf-syntax-ns#">
   <cc:Work>
    <dc:type rdf:resource="http://purl.org/dc/dcmitype/StillImage"/>
    <dc:date>2022-06-30T14:46:50.489943</dc:date>
    <dc:format>image/svg+xml</dc:format>
    <dc:creator>
     <cc:Agent>
      <dc:title>Matplotlib v3.4.3, https://matplotlib.org/</dc:title>
     </cc:Agent>
    </dc:creator>
   </cc:Work>
  </rdf:RDF>
 </metadata>
 <defs>
  <style type="text/css">*{stroke-linecap:butt;stroke-linejoin:round;}</style>
 </defs>
 <g id="figure_1">
  <g id="patch_1">
   <path d="M 0 360 
L 576 360 
L 576 0 
L 0 0 
z
" style="fill:#ffffff;"/>
  </g>
  <g id="axes_1">
   <g id="patch_2">
    <path d="M 72 320.4 
L 518.4 320.4 
L 518.4 43.2 
L 72 43.2 
z
" style="fill:#ffffff;"/>
   </g>
   <g id="PolyCollection_1">
    <defs>
     <path d="M 72 -191.80749 
L 72 -196.000216 
L 72.4949 -196.000216 
L 72.9898 -196.000216 
L 73.484701 -196.000216 
L 73.979601 -196.000216 
L 74.474501 -196.000216 
L 74.969401 -196.000216 
L 75.464302 -196.000216 
L 75.959202 -196.000216 
L 76.454102 -196.000216 
L 76.949002 -196.000216 
L 77.443902 -196.000216 
L 77.938803 -196.000216 
L 78.433703 -196.000216 
L 78.928603 -196.000216 
L 79.423503 -196.000216 
L 79.918404 -196.000216 
L 80.413304 -196.000216 
L 80.908204 -196.000216 
L 81.403104 -196.000216 
L 81.898004 -196.000216 
L 82.392905 -196.000216 
L 82.887805 -196.000216 
L 83.382705 -196.000216 
L 83.877605 -196.000216 
L 84.372506 -196.000216 
L 84.867406 -196.000216 
L 85.362306 -196.000216 
L 85.857206 -196.000216 
L 86.352106 -196.000216 
L 86.847007 -196.000216 
L 87.341907 -196.000216 
L 87.836807 -196.000216 
L 88.331707 -196.000216 
L 88.826608 -196.000216 
L 89.321508 -196.000216 
L 89.816408 -196.000216 
L 90.311308 -196.000216 
L 90.806208 -196.000216 
L 91.301109 -196.000216 
L 91.796009 -196.000216 
L 92.290909 -196.000216 
L 92.785809 -196.000216 
L 93.28071 -196.000216 
L 93.77561 -196.000216 
L 94.27051 -196.000216 
L 94.76541 -196.000216 
L 95.26031 -196.000216 
L 95.755211 -196.000216 
L 96.250111 -196.000216 
L 96.745011 -196.000216 
L 97.239911 -196.000216 
L 97.734812 -196.000216 
L 98.229712 -196.000216 
L 98.724612 -196.000216 
L 99.219512 -196.000216 
L 99.714412 -196.000216 
L 100.209313 -196.000216 
L 100.704213 -196.000216 
L 101.199113 -196.000216 
L 101.694013 -196.000216 
L 102.188914 -196.000216 
L 102.683814 -196.000216 
L 103.178714 -196.000216 
L 103.673614 -196.000216 
L 104.168514 -196.000216 
L 104.663415 -196.000216 
L 105.158315 -196.000216 
L 105.653215 -196.000216 
L 106.148115 -196.000216 
L 106.643016 -196.000216 
L 107.137916 -196.000216 
L 107.632816 -196.000216 
L 108.127716 -196.000216 
L 108.622616 -196.000216 
L 109.117517 -196.000216 
L 109.612417 -196.000216 
L 110.107317 -196.000216 
L 110.602217 -196.000216 
L 111.097118 -196.000216 
L 111.592018 -196.000216 
L 112.086918 -196.000216 
L 112.581818 -196.000216 
L 113.076718 -196.000216 
L 113.571619 -196.000216 
L 114.066519 -196.000216 
L 114.561419 -196.000216 
L 115.056319 -196.000216 
L 115.55122 -196.000216 
L 116.04612 -196.000216 
L 116.54102 -196.000216 
L 117.03592 -196.000216 
L 117.53082 -196.000216 
L 118.025721 -196.000216 
L 118.520621 -196.000216 
L 119.015521 -196.000216 
L 119.510421 -196.000216 
L 120.005322 -196.000216 
L 120.500222 -196.000216 
L 120.995122 -196.000216 
L 121.490022 -196.000216 
L 121.984922 -196.000216 
L 122.479823 -196.000216 
L 122.974723 -196.000216 
L 123.469623 -196.000216 
L 123.964523 -196.000216 
L 124.459424 -196.000216 
L 124.954324 -196.000216 
L 125.449224 -196.000216 
L 125.944124 -196.000216 
L 126.439024 -196.000216 
L 126.933925 -196.000216 
L 127.428825 -196.000216 
L 127.923725 -196.000216 
L 128.418625 -196.000216 
L 128.913525 -196.000216 
L 129.408426 -196.000216 
L 129.903326 -196.000216 
L 130.398226 -196.000216 
L 130.893126 -196.000216 
L 131.388027 -196.000216 
L 131.882927 -196.000216 
L 132.377827 -196.000216 
L 132.872727 -196.000216 
L 133.367627 -196.000216 
L 133.862528 -196.000216 
L 134.357428 -196.000216 
L 134.852328 -196.000216 
L 135.347228 -196.000216 
L 135.842129 -196.000216 
L 136.337029 -196.000216 
L 136.831929 -196.000216 
L 137.326829 -196.000216 
L 137.821729 -196.000216 
L 138.31663 -196.000216 
L 138.81153 -196.000216 
L 139.30643 -196.000216 
L 139.80133 -196.000216 
L 140.296231 -196.000216 
L 140.791131 -196.000216 
L 141.286031 -196.000216 
L 141.780931 -196.000216 
L 142.275831 -196.000216 
L 142.770732 -196.000216 
L 143.265632 -196.000216 
L 143.760532 -196.000216 
L 144.255432 -196.000216 
L 144.750333 -196.000216 
L 145.245233 -196.000216 
L 145.740133 -196.000216 
L 146.235033 -196.000216 
L 146.729933 -196.000216 
L 147.224834 -196.000216 
L 147.719734 -196.000216 
L 148.214634 -196.000216 
L 148.709534 -196.000216 
L 149.204435 -196.000216 
L 149.699335 -196.000216 
L 150.194235 -196.000216 
L 150.689135 -196.000216 
L 151.184035 -196.000216 
L 151.678936 -196.000216 
L 152.173836 -196.000216 
L 152.668736 -196.000216 
L 153.163636 -196.000216 
L 153.658537 -196.000216 
L 154.153437 -196.000216 
L 154.648337 -196.000216 
L 155.143237 -196.000216 
L 155.638137 -196.000216 
L 156.133038 -196.000216 
L 156.627938 -196.000216 
L 157.122838 -196.000216 
L 157.617738 -196.000216 
L 158.112639 -196.000216 
L 158.607539 -196.000216 
L 159.102439 -196.000216 
L 159.597339 -196.000216 
L 160.092239 -196.000216 
L 160.58714 -196.000216 
L 161.08204 -196.000216 
L 161.57694 -196.000216 
L 162.07184 -196.000216 
L 162.566741 -196.000216 
L 163.061641 -196.000216 
L 163.556541 -196.000216 
L 164.051441 -196.000216 
L 164.546341 -196.000216 
L 165.041242 -196.000216 
L 165.536142 -196.000216 
L 166.031042 -196.000216 
L 166.525942 -196.000216 
L 167.020843 -196.000216 
L 167.515743 -196.000216 
L 168.010643 -196.000216 
L 168.505543 -196.000216 
L 169.000443 -196.000216 
L 169.495344 -196.000216 
L 169.990244 -196.000216 
L 170.485144 -196.000216 
L 170.980044 -196.000216 
L 171.474945 -196.000216 
L 171.969845 -196.000216 
L 172.464745 -196.000216 
L 172.959645 -196.000216 
L 173.454545 -196.000216 
L 173.949446 -196.000216 
L 174.444346 -196.000216 
L 174.939246 -196.000216 
L 175.434146 -196.000216 
L 175.929047 -196.000216 
L 176.423947 -196.000216 
L 176.918847 -196.000216 
L 177.413747 -196.000216 
L 177.908647 -196.000216 
L 178.403548 -196.000216 
L 178.898448 -196.000216 
L 179.393348 -196.000216 
L 179.888248 -196.000216 
L 180.383149 -196.000216 
L 180.878049 -196.000216 
L 181.372949 -196.000216 
L 181.867849 -196.000216 
L 182.362749 -196.000216 
L 182.85765 -196.000216 
L 183.35255 -196.000216 
L 183.84745 -196.000216 
L 184.34235 -196.000216 
L 184.837251 -196.000216 
L 185.332151 -196.000216 
L 185.827051 -196.000216 
L 186.321951 -196.000216 
L 186.816851 -196.000216 
L 187.311752 -196.000216 
L 187.806652 -196.000216 
L 188.301552 -196.000216 
L 188.796452 -196.000216 
L 189.291353 -196.000216 
L 189.786253 -196.000216 
L 190.281153 -196.000216 
L 190.776053 -196.000216 
L 191.270953 -196.000216 
L 191.765854 -196.000216 
L 192.260754 -196.000216 
L 192.755654 -196.000216 
L 193.250554 -196.000216 
L 193.745455 -196.000216 
L 194.240355 -196.000216 
L 194.735255 -196.000216 
L 195.230155 -196.000216 
L 195.725055 -196.000216 
L 196.219956 -196.000216 
L 196.714856 -196.000216 
L 197.209756 -196.000216 
L 197.704656 -196.000216 
L 198.199557 -196.000216 
L 198.694457 -196.000216 
L 199.189357 -196.000216 
L 199.684257 -196.000216 
L 200.179157 -196.000216 
L 200.674058 -196.000216 
L 201.168958 -196.000216 
L 201.663858 -196.000216 
L 202.158758 -196.000216 
L 202.653659 -196.000216 
L 203.148559 -196.000216 
L 203.643459 -196.000216 
L 204.138359 -196.000216 
L 204.633259 -196.000216 
L 205.12816 -196.000216 
L 205.62306 -196.000216 
L 206.11796 -196.000216 
L 206.61286 -196.000216 
L 207.107761 -196.000216 
L 207.602661 -196.000216 
L 208.097561 -196.000216 
L 208.592461 -196.000216 
L 209.087361 -196.000216 
L 209.582262 -196.000216 
L 210.077162 -196.000216 
L 210.572062 -196.000216 
L 211.066962 -196.000216 
L 211.561863 -196.000216 
L 212.056763 -196.000216 
L 212.551663 -196.000216 
L 213.046563 -196.000216 
L 213.541463 -196.000216 
L 214.036364 -196.000216 
L 214.531264 -196.000216 
L 215.026164 -196.000216 
L 215.521064 -196.000216 
L 216.015965 -196.000216 
L 216.510865 -196.000216 
L 217.005765 -196.000216 
L 217.500665 -196.000216 
L 217.995565 -196.000216 
L 218.490466 -196.000216 
L 218.985366 -196.000216 
L 219.480266 -196.000216 
L 219.975166 -196.000216 
L 220.470067 -196.000216 
L 220.964967 -196.000216 
L 221.459867 -196.000216 
L 221.954767 -196.000216 
L 222.449667 -196.000216 
L 222.944568 -196.000216 
L 223.439468 -196.000216 
L 223.934368 -196.000216 
L 224.429268 -196.000216 
L 224.924169 -196.000216 
L 225.419069 -196.000216 
L 225.913969 -196.000216 
L 226.408869 -196.000216 
L 226.903769 -196.000216 
L 227.39867 -196.000216 
L 227.89357 -196.000216 
L 228.38847 -196.000216 
L 228.88337 -196.000216 
L 229.378271 -196.000216 
L 229.873171 -196.000216 
L 230.368071 -196.000216 
L 230.862971 -196.000216 
L 231.357871 -196.000216 
L 231.852772 -196.000216 
L 232.347672 -196.000216 
L 232.842572 -196.000216 
L 233.337472 -196.000216 
L 233.832373 -196.000216 
L 234.327273 -196.000216 
L 234.822173 -196.000216 
L 235.317073 -196.000216 
L 235.811973 -196.000216 
L 236.306874 -196.000216 
L 236.801774 -196.000216 
L 237.296674 -196.000216 
L 237.791574 -196.000216 
L 238.286475 -196.000216 
L 238.781375 -196.000216 
L 239.276275 -196.000216 
L 239.771175 -196.000216 
L 240.266075 -196.000216 
L 240.760976 -196.000216 
L 241.255876 -196.000216 
L 241.750776 -196.000216 
L 242.245676 -196.000216 
L 242.740576 -196.000216 
L 243.235477 -196.000216 
L 243.730377 -196.000216 
L 244.225277 -196.000216 
L 244.720177 -196.000216 
L 245.215078 -196.000216 
L 245.709978 -196.000216 
L 246.204878 -196.000216 
L 246.699778 -196.000216 
L 247.194678 -196.000216 
L 247.689579 -196.000216 
L 248.184479 -196.000216 
L 248.679379 -196.000216 
L 249.174279 -196.000216 
L 249.66918 -196.000216 
L 250.16408 -196.000216 
L 250.65898 -196.000216 
L 251.15388 -196.000216 
L 251.64878 -196.000216 
L 252.143681 -196.000216 
L 252.638581 -196.000216 
L 253.133481 -196.000216 
L 253.628381 -196.000216 
L 254.123282 -196.000216 
L 254.618182 -196.000216 
L 255.113082 -196.000216 
L 255.607982 -196.000216 
L 256.102882 -196.000216 
L 256.597783 -196.000216 
L 257.092683 -196.000216 
L 257.587583 -196.000216 
L 258.082483 -196.000216 
L 258.577384 -196.000216 
L 259.072284 -196.000216 
L 259.567184 -196.000216 
L 260.062084 -196.000216 
L 260.556984 -196.000216 
L 261.051885 -196.000216 
L 261.546785 -196.000216 
L 262.041685 -196.000216 
L 262.536585 -196.000216 
L 263.031486 -196.000216 
L 263.526386 -196.000216 
L 264.021286 -196.000216 
L 264.516186 -196.000216 
L 265.011086 -196.000216 
L 265.505987 -196.000216 
L 266.000887 -196.000216 
L 266.495787 -196.000216 
L 266.990687 -196.000216 
L 267.485588 -196.000216 
L 267.980488 -196.000216 
L 268.475388 -196.000216 
L 268.970288 -196.000216 
L 269.465188 -196.000216 
L 269.960089 -196.000216 
L 270.454989 -196.000216 
L 270.949889 -196.000216 
L 271.444789 -196.000216 
L 271.93969 -196.000216 
L 272.43459 -196.000216 
L 272.92949 -196.000216 
L 273.42439 -196.000216 
L 273.91929 -196.000216 
L 274.414191 -196.000216 
L 274.909091 -196.000216 
L 275.403991 -196.000216 
L 275.898891 -196.000216 
L 276.393792 -196.000216 
L 276.888692 -196.000216 
L 277.383592 -196.000216 
L 277.878492 -196.000216 
L 278.373392 -196.000216 
L 278.868293 -196.000216 
L 279.363193 -196.000216 
L 279.858093 -196.000216 
L 280.352993 -196.000216 
L 280.847894 -196.000216 
L 281.342794 -196.000216 
L 281.837694 -196.000216 
L 282.332594 -196.000216 
L 282.827494 -196.000216 
L 283.322395 -196.000216 
L 283.817295 -196.000216 
L 284.312195 -196.000216 
L 284.807095 -196.000216 
L 285.301996 -196.000216 
L 285.796896 -196.000216 
L 286.291796 -196.000216 
L 286.786696 -196.000216 
L 287.281596 -196.000216 
L 287.776497 -196.000216 
L 288.271397 -196.000216 
L 288.766297 -196.000216 
L 289.261197 -196.000216 
L 289.756098 -196.000216 
L 290.250998 -196.000216 
L 290.745898 -196.000216 
L 291.240798 -196.000216 
L 291.735698 -196.000216 
L 292.230599 -196.000216 
L 292.725499 -196.000216 
L 293.220399 -196.000216 
L 293.715299 -196.000216 
L 294.2102 -196.000216 
L 294.7051 -196.000216 
L 295.2 -196.000216 
L 295.6949 -196.000216 
L 296.1898 -196.000216 
L 296.684701 -196.000216 
L 297.179601 -196.000216 
L 297.674501 -196.000216 
L 298.169401 -196.000216 
L 298.664302 -196.000216 
L 299.159202 -196.000216 
L 299.654102 -196.000216 
L 300.149002 -196.000216 
L 300.643902 -196.000216 
L 301.138803 -196.000216 
L 301.633703 -196.000216 
L 302.128603 -196.000216 
L 302.623503 -196.000216 
L 303.118404 -196.000216 
L 303.613304 -196.000216 
L 304.108204 -196.000216 
L 304.603104 -196.000216 
L 305.098004 -196.000216 
L 305.592905 -196.000216 
L 306.087805 -196.000216 
L 306.582705 -196.000216 
L 307.077605 -196.000216 
L 307.572506 -196.000216 
L 308.067406 -196.000216 
L 308.562306 -196.000216 
L 309.057206 -196.000216 
L 309.552106 -196.000216 
L 310.047007 -196.000216 
L 310.541907 -196.000216 
L 311.036807 -196.000216 
L 311.531707 -196.000216 
L 312.026608 -196.000216 
L 312.521508 -196.000216 
L 313.016408 -196.000216 
L 313.511308 -196.000216 
L 314.006208 -196.000216 
L 314.501109 -196.000216 
L 314.996009 -196.000216 
L 315.490909 -196.000216 
L 315.985809 -196.000216 
L 316.48071 -196.000216 
L 316.97561 -196.000216 
L 317.47051 -196.000216 
L 317.96541 -196.000216 
L 318.46031 -196.000216 
L 318.955211 -196.000216 
L 319.450111 -196.000216 
L 319.945011 -196.000216 
L 320.439911 -196.000216 
L 320.934812 -196.000216 
L 321.429712 -196.000216 
L 321.924612 -196.000216 
L 322.419512 -196.000216 
L 322.914412 -196.000216 
L 323.409313 -196.000216 
L 323.904213 -196.000216 
L 324.399113 -196.000216 
L 324.894013 -196.000216 
L 325.388914 -196.000216 
L 325.883814 -196.000216 
L 326.378714 -196.000216 
L 326.873614 -196.000216 
L 327.368514 -196.000216 
L 327.863415 -196.000216 
L 328.358315 -196.000216 
L 328.853215 -196.000216 
L 329.348115 -196.000216 
L 329.843016 -196.000216 
L 330.337916 -196.000216 
L 330.832816 -196.000216 
L 331.327716 -196.000216 
L 331.822616 -196.000216 
L 332.317517 -196.000216 
L 332.812417 -196.000216 
L 333.307317 -196.000216 
L 333.802217 -196.000216 
L 334.297118 -196.000216 
L 334.792018 -196.000216 
L 335.286918 -196.000216 
L 335.781818 -196.000216 
L 336.276718 -196.000216 
L 336.771619 -196.000216 
L 337.266519 -196.000216 
L 337.761419 -196.000216 
L 338.256319 -196.000216 
L 338.75122 -196.000216 
L 339.24612 -196.000216 
L 339.74102 -196.000216 
L 340.23592 -196.000216 
L 340.73082 -196.000216 
L 341.225721 -196.000216 
L 341.720621 -196.000216 
L 342.215521 -196.000216 
L 342.710421 -196.000216 
L 343.205322 -196.000216 
L 343.700222 -196.000216 
L 344.195122 -196.000216 
L 344.690022 -196.000216 
L 345.184922 -196.000216 
L 345.679823 -196.000216 
L 346.174723 -196.000216 
L 346.669623 -196.000216 
L 347.164523 -196.000216 
L 347.659424 -196.000216 
L 348.154324 -196.000216 
L 348.649224 -196.000216 
L 349.144124 -196.000216 
L 349.639024 -196.000216 
L 350.133925 -196.000216 
L 350.628825 -196.000216 
L 351.123725 -196.000216 
L 351.618625 -196.000216 
L 352.113525 -196.000216 
L 352.608426 -196.000216 
L 353.103326 -196.000216 
L 353.598226 -196.000216 
L 354.093126 -196.000216 
L 354.588027 -196.000216 
L 355.082927 -196.000216 
L 355.577827 -196.000216 
L 356.072727 -196.000216 
L 356.567627 -196.000216 
L 357.062528 -196.000216 
L 357.557428 -196.000216 
L 358.052328 -196.000216 
L 358.547228 -196.000216 
L 359.042129 -196.000216 
L 359.537029 -196.000216 
L 360.031929 -196.000216 
L 360.526829 -196.000216 
L 361.021729 -196.000216 
L 361.51663 -196.000216 
L 362.01153 -196.000216 
L 362.50643 -196.000216 
L 363.00133 -196.000216 
L 363.496231 -196.000216 
L 363.991131 -196.000216 
L 364.486031 -196.000216 
L 364.980931 -196.000216 
L 365.475831 -196.000216 
L 365.970732 -196.000216 
L 366.465632 -196.000216 
L 366.960532 -196.000216 
L 367.455432 -196.000216 
L 367.950333 -196.000216 
L 368.445233 -196.000216 
L 368.940133 -196.000216 
L 369.435033 -196.000216 
L 369.929933 -196.000216 
L 370.424834 -196.000216 
L 370.919734 -196.000216 
L 371.414634 -196.000216 
L 371.909534 -196.000216 
L 372.404435 -196.000216 
L 372.899335 -196.000216 
L 373.394235 -196.000216 
L 373.889135 -196.000216 
L 374.384035 -196.000216 
L 374.878936 -196.000216 
L 375.373836 -196.000216 
L 375.868736 -196.000216 
L 376.363636 -196.000216 
L 376.858537 -196.000216 
L 377.353437 -196.000216 
L 377.848337 -196.000216 
L 378.343237 -196.000216 
L 378.838137 -196.000216 
L 379.333038 -196.000216 
L 379.827938 -196.000216 
L 380.322838 -196.000216 
L 380.817738 -196.000216 
L 381.312639 -196.000216 
L 381.807539 -196.000216 
L 382.302439 -196.000216 
L 382.797339 -196.000216 
L 383.292239 -196.000216 
L 383.78714 -196.000216 
L 384.28204 -196.000216 
L 384.77694 -196.000216 
L 385.27184 -196.000216 
L 385.766741 -196.000216 
L 386.261641 -196.000216 
L 386.756541 -196.000216 
L 387.251441 -196.000216 
L 387.746341 -196.000216 
L 388.241242 -196.000216 
L 388.736142 -196.000216 
L 389.231042 -196.000216 
L 389.725942 -196.000216 
L 390.220843 -196.000216 
L 390.715743 -196.000216 
L 391.210643 -196.000216 
L 391.705543 -196.000216 
L 392.200443 -196.000216 
L 392.695344 -196.000216 
L 393.190244 -196.000216 
L 393.685144 -196.000216 
L 394.180044 -196.000216 
L 394.674945 -196.000216 
L 395.169845 -196.000216 
L 395.664745 -196.000216 
L 396.159645 -196.000216 
L 396.654545 -196.000216 
L 397.149446 -196.000216 
L 397.644346 -196.000216 
L 398.139246 -196.000216 
L 398.634146 -196.000216 
L 399.129047 -196.000216 
L 399.623947 -196.000216 
L 400.118847 -196.000216 
L 400.613747 -196.000216 
L 401.108647 -196.000216 
L 401.603548 -196.000216 
L 402.098448 -196.000216 
L 402.593348 -196.000216 
L 403.088248 -196.000216 
L 403.583149 -196.000216 
L 404.078049 -196.000216 
L 404.572949 -196.000216 
L 405.067849 -196.000216 
L 405.562749 -196.000216 
L 406.05765 -196.000216 
L 406.55255 -196.000216 
L 407.04745 -196.000216 
L 407.54235 -196.000216 
L 408.037251 -196.000216 
L 408.532151 -196.000216 
L 409.027051 -196.000216 
L 409.521951 -196.000216 
L 410.016851 -196.000216 
L 410.511752 -196.000216 
L 411.006652 -196.000216 
L 411.501552 -196.000216 
L 411.996452 -196.000216 
L 412.491353 -196.000216 
L 412.986253 -196.000216 
L 413.481153 -196.000216 
L 413.976053 -196.000216 
L 414.470953 -196.000216 
L 414.965854 -196.000216 
L 415.460754 -196.000216 
L 415.955654 -196.000216 
L 416.450554 -196.000216 
L 416.945455 -196.000216 
L 417.440355 -196.000216 
L 417.935255 -196.000216 
L 418.430155 -196.000216 
L 418.925055 -196.000216 
L 419.419956 -196.000216 
L 419.914856 -196.000216 
L 420.409756 -196.000216 
L 420.904656 -196.000216 
L 421.399557 -196.000216 
L 421.894457 -196.000216 
L 422.389357 -196.000216 
L 422.884257 -196.000216 
L 423.379157 -196.000216 
L 423.874058 -196.000216 
L 424.368958 -196.000216 
L 424.863858 -196.000216 
L 425.358758 -196.000216 
L 425.853659 -196.000216 
L 426.348559 -196.000216 
L 426.843459 -196.000216 
L 427.338359 -196.000216 
L 427.833259 -196.000216 
L 428.32816 -196.000216 
L 428.82306 -196.000216 
L 429.31796 -196.000216 
L 429.81286 -196.000216 
L 430.307761 -196.000216 
L 430.802661 -196.000216 
L 431.297561 -196.000216 
L 431.792461 -196.000216 
L 432.287361 -196.000216 
L 432.782262 -196.000216 
L 433.277162 -196.000216 
L 433.772062 -196.000216 
L 434.266962 -196.000216 
L 434.761863 -196.000216 
L 435.256763 -196.000216 
L 435.751663 -196.000216 
L 436.246563 -196.000216 
L 436.741463 -196.000216 
L 437.236364 -196.000216 
L 437.731264 -196.000216 
L 438.226164 -196.000216 
L 438.721064 -196.000216 
L 439.215965 -196.000216 
L 439.710865 -196.000216 
L 440.205765 -196.000216 
L 440.700665 -196.000216 
L 441.195565 -196.000216 
L 441.690466 -196.000216 
L 442.185366 -196.000216 
L 442.680266 -196.000216 
L 443.175166 -196.000216 
L 443.670067 -196.000216 
L 444.164967 -196.000216 
L 444.659867 -196.000216 
L 445.154767 -196.000216 
L 445.649667 -196.000216 
L 446.144568 -196.000216 
L 446.639468 -196.000216 
L 447.134368 -196.000216 
L 447.629268 -196.000216 
L 448.124169 -196.000216 
L 448.619069 -196.000216 
L 449.113969 -196.000216 
L 449.608869 -196.000216 
L 450.103769 -196.000216 
L 450.59867 -196.000216 
L 451.09357 -196.000216 
L 451.58847 -196.000216 
L 452.08337 -196.000216 
L 452.578271 -196.000216 
L 453.073171 -196.000216 
L 453.568071 -196.000216 
L 454.062971 -196.000216 
L 454.557871 -196.000216 
L 455.052772 -196.000216 
L 455.547672 -196.000216 
L 456.042572 -196.000216 
L 456.537472 -196.000216 
L 457.032373 -196.000216 
L 457.527273 -196.000216 
L 458.022173 -196.000216 
L 458.517073 -196.000216 
L 459.011973 -196.000216 
L 459.506874 -196.000216 
L 460.001774 -196.000216 
L 460.496674 -196.000216 
L 460.991574 -196.000216 
L 461.486475 -196.000216 
L 461.981375 -196.000216 
L 462.476275 -196.000216 
L 462.971175 -196.000216 
L 463.466075 -196.000216 
L 463.960976 -196.000216 
L 464.455876 -196.000216 
L 464.950776 -196.000216 
L 465.445676 -196.000216 
L 465.940576 -196.000216 
L 466.435477 -196.000216 
L 466.930377 -196.000216 
L 467.425277 -196.000216 
L 467.920177 -196.000216 
L 468.415078 -196.000216 
L 468.909978 -196.000216 
L 469.404878 -196.000216 
L 469.899778 -196.000216 
L 470.394678 -196.000216 
L 470.889579 -196.000216 
L 471.384479 -196.000216 
L 471.879379 -196.000216 
L 472.374279 -196.000216 
L 472.86918 -196.000216 
L 473.36408 -196.000216 
L 473.85898 -196.000216 
L 474.35388 -196.000216 
L 474.84878 -196.000216 
L 475.343681 -196.000216 
L 475.838581 -196.000216 
L 476.333481 -196.000216 
L 476.828381 -196.000216 
L 477.323282 -196.000216 
L 477.818182 -196.000216 
L 478.313082 -196.000216 
L 478.807982 -196.000216 
L 479.302882 -196.000216 
L 479.797783 -196.000216 
L 480.292683 -196.000216 
L 480.787583 -196.000216 
L 481.282483 -196.000216 
L 481.777384 -196.000216 
L 482.272284 -196.000216 
L 482.767184 -196.000216 
L 483.262084 -196.000216 
L 483.756984 -196.000216 
L 484.251885 -196.000216 
L 484.746785 -196.000216 
L 485.241685 -196.000216 
L 485.736585 -196.000216 
L 486.231486 -196.000216 
L 486.726386 -196.000216 
L 487.221286 -196.000216 
L 487.716186 -196.000216 
L 488.211086 -196.000216 
L 488.705987 -196.000216 
L 489.200887 -196.000216 
L 489.695787 -196.000216 
L 490.190687 -196.000216 
L 490.685588 -196.000216 
L 491.180488 -196.000216 
L 491.675388 -196.000216 
L 492.170288 -196.000216 
L 492.665188 -196.000216 
L 493.160089 -196.000216 
L 493.654989 -196.000216 
L 494.149889 -196.000216 
L 494.644789 -196.000216 
L 495.13969 -196.000216 
L 495.63459 -196.000216 
L 496.12949 -196.000216 
L 496.62439 -196.000216 
L 497.11929 -196.000216 
L 497.614191 -196.000216 
L 498.109091 -196.000216 
L 498.603991 -196.000216 
L 499.098891 -196.000216 
L 499.593792 -196.000216 
L 500.088692 -196.000216 
L 500.583592 -196.000216 
L 501.078492 -196.000216 
L 501.573392 -196.000216 
L 502.068293 -196.000216 
L 502.563193 -196.000216 
L 503.058093 -196.000216 
L 503.552993 -196.000216 
L 504.047894 -196.000216 
L 504.542794 -196.000216 
L 505.037694 -196.000216 
L 505.532594 -196.000216 
L 506.027494 -196.000216 
L 506.522395 -196.000216 
L 507.017295 -196.000216 
L 507.512195 -196.000216 
L 508.007095 -196.000216 
L 508.501996 -196.000216 
L 508.996896 -196.000216 
L 509.491796 -196.000216 
L 509.986696 -196.000216 
L 510.481596 -196.000216 
L 510.976497 -196.000216 
L 511.471397 -196.000216 
L 511.966297 -196.000216 
L 512.461197 -196.000216 
L 512.956098 -196.000216 
L 513.450998 -196.000216 
L 513.945898 -196.000216 
L 514.440798 -196.000216 
L 514.935698 -196.000216 
L 515.430599 -196.000216 
L 515.925499 -196.000216 
L 516.420399 -196.000216 
L 516.915299 -196.000216 
L 517.4102 -196.000216 
L 517.9051 -196.000216 
L 518.4 -196.000216 
L 518.4 -191.80749 
L 518.4 -191.80749 
L 517.9051 -191.80749 
L 517.4102 -191.80749 
L 516.915299 -191.80749 
L 516.420399 -191.80749 
L 515.925499 -191.80749 
L 515.430599 -191.80749 
L 514.935698 -191.80749 
L 514.440798 -191.80749 
L 513.945898 -191.80749 
L 513.450998 -191.80749 
L 512.956098 -191.80749 
L 512.461197 -191.80749 
L 511.966297 -191.80749 
L 511.471397 -191.80749 
L 510.976497 -191.80749 
L 510.481596 -191.80749 
L 509.986696 -191.80749 
L 509.491796 -191.80749 
L 508.996896 -191.80749 
L 508.501996 -191.80749 
L 508.007095 -191.80749 
L 507.512195 -191.80749 
L 507.017295 -191.80749 
L 506.522395 -191.80749 
L 506.027494 -191.80749 
L 505.532594 -191.80749 
L 505.037694 -191.80749 
L 504.542794 -191.80749 
L 504.047894 -191.80749 
L 503.552993 -191.80749 
L 503.058093 -191.80749 
L 502.563193 -191.80749 
L 502.068293 -191.80749 
L 501.573392 -191.80749 
L 501.078492 -191.80749 
L 500.583592 -191.80749 
L 500.088692 -191.80749 
L 499.593792 -191.80749 
L 499.098891 -191.80749 
L 498.603991 -191.80749 
L 498.109091 -191.80749 
L 497.614191 -191.80749 
L 497.11929 -191.80749 
L 496.62439 -191.80749 
L 496.12949 -191.80749 
L 495.63459 -191.80749 
L 495.13969 -191.80749 
L 494.644789 -191.80749 
L 494.149889 -191.80749 
L 493.654989 -191.80749 
L 493.160089 -191.80749 
L 492.665188 -191.80749 
L 492.170288 -191.80749 
L 491.675388 -191.80749 
L 491.180488 -191.80749 
L 490.685588 -191.80749 
L 490.190687 -191.80749 
L 489.695787 -191.80749 
L 489.200887 -191.80749 
L 488.705987 -191.80749 
L 488.211086 -191.80749 
L 487.716186 -191.80749 
L 487.221286 -191.80749 
L 486.726386 -191.80749 
L 486.231486 -191.80749 
L 485.736585 -191.80749 
L 485.241685 -191.80749 
L 484.746785 -191.80749 
L 484.251885 -191.80749 
L 483.756984 -191.80749 
L 483.262084 -191.80749 
L 482.767184 -191.80749 
L 482.272284 -191.80749 
L 481.777384 -191.80749 
L 481.282483 -191.80749 
L 480.787583 -191.80749 
L 480.292683 -191.80749 
L 479.797783 -191.80749 
L 479.302882 -191.80749 
L 478.807982 -191.80749 
L 478.313082 -191.80749 
L 477.818182 -191.80749 
L 477.323282 -191.80749 
L 476.828381 -191.80749 
L 476.333481 -191.80749 
L 475.838581 -191.80749 
L 475.343681 -191.80749 
L 474.84878 -191.80749 
L 474.35388 -191.80749 
L 473.85898 -191.80749 
L 473.36408 -191.80749 
L 472.86918 -191.80749 
L 472.374279 -191.80749 
L 471.879379 -191.80749 
L 471.384479 -191.80749 
L 470.889579 -191.80749 
L 470.394678 -191.80749 
L 469.899778 -191.80749 
L 469.404878 -191.80749 
L 468.909978 -191.80749 
L 468.415078 -191.80749 
L 467.920177 -191.80749 
L 467.425277 -191.80749 
L 466.930377 -191.80749 
L 466.435477 -191.80749 
L 465.940576 -191.80749 
L 465.445676 -191.80749 
L 464.950776 -191.80749 
L 464.455876 -191.80749 
L 463.960976 -191.80749 
L 463.466075 -191.80749 
L 462.971175 -191.80749 
L 462.476275 -191.80749 
L 461.981375 -191.80749 
L 461.486475 -191.80749 
L 460.991574 -191.80749 
L 460.496674 -191.80749 
L 460.001774 -191.80749 
L 459.506874 -191.80749 
L 459.011973 -191.80749 
L 458.517073 -191.80749 
L 458.022173 -191.80749 
L 457.527273 -191.80749 
L 457.032373 -191.80749 
L 456.537472 -191.80749 
L 456.042572 -191.80749 
L 455.547672 -191.80749 
L 455.052772 -191.80749 
L 454.557871 -191.80749 
L 454.062971 -191.80749 
L 453.568071 -191.80749 
L 453.073171 -191.80749 
L 452.578271 -191.80749 
L 452.08337 -191.80749 
L 451.58847 -191.80749 
L 451.09357 -191.80749 
L 450.59867 -191.80749 
L 450.103769 -191.80749 
L 449.608869 -191.80749 
L 449.113969 -191.80749 
L 448.619069 -191.80749 
L 448.124169 -191.80749 
L 447.629268 -191.80749 
L 447.134368 -191.80749 
L 446.639468 -191.80749 
L 446.144568 -191.80749 
L 445.649667 -191.80749 
L 445.154767 -191.80749 
L 444.659867 -191.80749 
L 444.164967 -191.80749 
L 443.670067 -191.80749 
L 443.175166 -191.80749 
L 442.680266 -191.80749 
L 442.185366 -191.80749 
L 441.690466 -191.80749 
L 441.195565 -191.80749 
L 440.700665 -191.80749 
L 440.205765 -191.80749 
L 439.710865 -191.80749 
L 439.215965 -191.80749 
L 438.721064 -191.80749 
L 438.226164 -191.80749 
L 437.731264 -191.80749 
L 437.236364 -191.80749 
L 436.741463 -191.80749 
L 436.246563 -191.80749 
L 435.751663 -191.80749 
L 435.256763 -191.80749 
L 434.761863 -191.80749 
L 434.266962 -191.80749 
L 433.772062 -191.80749 
L 433.277162 -191.80749 
L 432.782262 -191.80749 
L 432.287361 -191.80749 
L 431.792461 -191.80749 
L 431.297561 -191.80749 
L 430.802661 -191.80749 
L 430.307761 -191.80749 
L 429.81286 -191.80749 
L 429.31796 -191.80749 
L 428.82306 -191.80749 
L 428.32816 -191.80749 
L 427.833259 -191.80749 
L 427.338359 -191.80749 
L 426.843459 -191.80749 
L 426.348559 -191.80749 
L 425.853659 -191.80749 
L 425.358758 -191.80749 
L 424.863858 -191.80749 
L 424.368958 -191.80749 
L 423.874058 -191.80749 
L 423.379157 -191.80749 
L 422.884257 -191.80749 
L 422.389357 -191.80749 
L 421.894457 -191.80749 
L 421.399557 -191.80749 
L 420.904656 -191.80749 
L 420.409756 -191.80749 
L 419.914856 -191.80749 
L 419.419956 -191.80749 
L 418.925055 -191.80749 
L 418.430155 -191.80749 
L 417.935255 -191.80749 
L 417.440355 -191.80749 
L 416.945455 -191.80749 
L 416.450554 -191.80749 
L 415.955654 -191.80749 
L 415.460754 -191.80749 
L 414.965854 -191.80749 
L 414.470953 -191.80749 
L 413.976053 -191.80749 
L 413.481153 -191.80749 
L 412.986253 -191.80749 
L 412.491353 -191.80749 
L 411.996452 -191.80749 
L 411.501552 -191.80749 
L 411.006652 -191.80749 
L 410.511752 -191.80749 
L 410.016851 -191.80749 
L 409.521951 -191.80749 
L 409.027051 -191.80749 
L 408.532151 -191.80749 
L 408.037251 -191.80749 
L 407.54235 -191.80749 
L 407.04745 -191.80749 
L 406.55255 -191.80749 
L 406.05765 -191.80749 
L 405.562749 -191.80749 
L 405.067849 -191.80749 
L 404.572949 -191.80749 
L 404.078049 -191.80749 
L 403.583149 -191.80749 
L 403.088248 -191.80749 
L 402.593348 -191.80749 
L 402.098448 -191.80749 
L 401.603548 -191.80749 
L 401.108647 -191.80749 
L 400.613747 -191.80749 
L 400.118847 -191.80749 
L 399.623947 -191.80749 
L 399.129047 -191.80749 
L 398.634146 -191.80749 
L 398.139246 -191.80749 
L 397.644346 -191.80749 
L 397.149446 -191.80749 
L 396.654545 -191.80749 
L 396.159645 -191.80749 
L 395.664745 -191.80749 
L 395.169845 -191.80749 
L 394.674945 -191.80749 
L 394.180044 -191.80749 
L 393.685144 -191.80749 
L 393.190244 -191.80749 
L 392.695344 -191.80749 
L 392.200443 -191.80749 
L 391.705543 -191.80749 
L 391.210643 -191.80749 
L 390.715743 -191.80749 
L 390.220843 -191.80749 
L 389.725942 -191.80749 
L 389.231042 -191.80749 
L 388.736142 -191.80749 
L 388.241242 -191.80749 
L 387.746341 -191.80749 
L 387.251441 -191.80749 
L 386.756541 -191.80749 
L 386.261641 -191.80749 
L 385.766741 -191.80749 
L 385.27184 -191.80749 
L 384.77694 -191.80749 
L 384.28204 -191.80749 
L 383.78714 -191.80749 
L 383.292239 -191.80749 
L 382.797339 -191.80749 
L 382.302439 -191.80749 
L 381.807539 -191.80749 
L 381.312639 -191.80749 
L 380.817738 -191.80749 
L 380.322838 -191.80749 
L 379.827938 -191.80749 
L 379.333038 -191.80749 
L 378.838137 -191.80749 
L 378.343237 -191.80749 
L 377.848337 -191.80749 
L 377.353437 -191.80749 
L 376.858537 -191.80749 
L 376.363636 -191.80749 
L 375.868736 -191.80749 
L 375.373836 -191.80749 
L 374.878936 -191.80749 
L 374.384035 -191.80749 
L 373.889135 -191.80749 
L 373.394235 -191.80749 
L 372.899335 -191.80749 
L 372.404435 -191.80749 
L 371.909534 -191.80749 
L 371.414634 -191.80749 
L 370.919734 -191.80749 
L 370.424834 -191.80749 
L 369.929933 -191.80749 
L 369.435033 -191.80749 
L 368.940133 -191.80749 
L 368.445233 -191.80749 
L 367.950333 -191.80749 
L 367.455432 -191.80749 
L 366.960532 -191.80749 
L 366.465632 -191.80749 
L 365.970732 -191.80749 
L 365.475831 -191.80749 
L 364.980931 -191.80749 
L 364.486031 -191.80749 
L 363.991131 -191.80749 
L 363.496231 -191.80749 
L 363.00133 -191.80749 
L 362.50643 -191.80749 
L 362.01153 -191.80749 
L 361.51663 -191.80749 
L 361.021729 -191.80749 
L 360.526829 -191.80749 
L 360.031929 -191.80749 
L 359.537029 -191.80749 
L 359.042129 -191.80749 
L 358.547228 -191.80749 
L 358.052328 -191.80749 
L 357.557428 -191.80749 
L 357.062528 -191.80749 
L 356.567627 -191.80749 
L 356.072727 -191.80749 
L 355.577827 -191.80749 
L 355.082927 -191.80749 
L 354.588027 -191.80749 
L 354.093126 -191.80749 
L 353.598226 -191.80749 
L 353.103326 -191.80749 
L 352.608426 -191.80749 
L 352.113525 -191.80749 
L 351.618625 -191.80749 
L 351.123725 -191.80749 
L 350.628825 -191.80749 
L 350.133925 -191.80749 
L 349.639024 -191.80749 
L 349.144124 -191.80749 
L 348.649224 -191.80749 
L 348.154324 -191.80749 
L 347.659424 -191.80749 
L 347.164523 -191.80749 
L 346.669623 -191.80749 
L 346.174723 -191.80749 
L 345.679823 -191.80749 
L 345.184922 -191.80749 
L 344.690022 -191.80749 
L 344.195122 -191.80749 
L 343.700222 -191.80749 
L 343.205322 -191.80749 
L 342.710421 -191.80749 
L 342.215521 -191.80749 
L 341.720621 -191.80749 
L 341.225721 -191.80749 
L 340.73082 -191.80749 
L 340.23592 -191.80749 
L 339.74102 -191.80749 
L 339.24612 -191.80749 
L 338.75122 -191.80749 
L 338.256319 -191.80749 
L 337.761419 -191.80749 
L 337.266519 -191.80749 
L 336.771619 -191.80749 
L 336.276718 -191.80749 
L 335.781818 -191.80749 
L 335.286918 -191.80749 
L 334.792018 -191.80749 
L 334.297118 -191.80749 
L 333.802217 -191.80749 
L 333.307317 -191.80749 
L 332.812417 -191.80749 
L 332.317517 -191.80749 
L 331.822616 -191.80749 
L 331.327716 -191.80749 
L 330.832816 -191.80749 
L 330.337916 -191.80749 
L 329.843016 -191.80749 
L 329.348115 -191.80749 
L 328.853215 -191.80749 
L 328.358315 -191.80749 
L 327.863415 -191.80749 
L 327.368514 -191.80749 
L 326.873614 -191.80749 
L 326.378714 -191.80749 
L 325.883814 -191.80749 
L 325.388914 -191.80749 
L 324.894013 -191.80749 
L 324.399113 -191.80749 
L 323.904213 -191.80749 
L 323.409313 -191.80749 
L 322.914412 -191.80749 
L 322.419512 -191.80749 
L 321.924612 -191.80749 
L 321.429712 -191.80749 
L 320.934812 -191.80749 
L 320.439911 -191.80749 
L 319.945011 -191.80749 
L 319.450111 -191.80749 
L 318.955211 -191.80749 
L 318.46031 -191.80749 
L 317.96541 -191.80749 
L 317.47051 -191.80749 
L 316.97561 -191.80749 
L 316.48071 -191.80749 
L 315.985809 -191.80749 
L 315.490909 -191.80749 
L 314.996009 -191.80749 
L 314.501109 -191.80749 
L 314.006208 -191.80749 
L 313.511308 -191.80749 
L 313.016408 -191.80749 
L 312.521508 -191.80749 
L 312.026608 -191.80749 
L 311.531707 -191.80749 
L 311.036807 -191.80749 
L 310.541907 -191.80749 
L 310.047007 -191.80749 
L 309.552106 -191.80749 
L 309.057206 -191.80749 
L 308.562306 -191.80749 
L 308.067406 -191.80749 
L 307.572506 -191.80749 
L 307.077605 -191.80749 
L 306.582705 -191.80749 
L 306.087805 -191.80749 
L 305.592905 -191.80749 
L 305.098004 -191.80749 
L 304.603104 -191.80749 
L 304.108204 -191.80749 
L 303.613304 -191.80749 
L 303.118404 -191.80749 
L 302.623503 -191.80749 
L 302.128603 -191.80749 
L 301.633703 -191.80749 
L 301.138803 -191.80749 
L 300.643902 -191.80749 
L 300.149002 -191.80749 
L 299.654102 -191.80749 
L 299.159202 -191.80749 
L 298.664302 -191.80749 
L 298.169401 -191.80749 
L 297.674501 -191.80749 
L 297.179601 -191.80749 
L 296.684701 -191.80749 
L 296.1898 -191.80749 
L 295.6949 -191.80749 
L 295.2 -191.80749 
L 294.7051 -191.80749 
L 294.2102 -191.80749 
L 293.715299 -191.80749 
L 293.220399 -191.80749 
L 292.725499 -191.80749 
L 292.230599 -191.80749 
L 291.735698 -191.80749 
L 291.240798 -191.80749 
L 290.745898 -191.80749 
L 290.250998 -191.80749 
L 289.756098 -191.80749 
L 289.261197 -191.80749 
L 288.766297 -191.80749 
L 288.271397 -191.80749 
L 287.776497 -191.80749 
L 287.281596 -191.80749 
L 286.786696 -191.80749 
L 286.291796 -191.80749 
L 285.796896 -191.80749 
L 285.301996 -191.80749 
L 284.807095 -191.80749 
L 284.312195 -191.80749 
L 283.817295 -191.80749 
L 283.322395 -191.80749 
L 282.827494 -191.80749 
L 282.332594 -191.80749 
L 281.837694 -191.80749 
L 281.342794 -191.80749 
L 280.847894 -191.80749 
L 280.352993 -191.80749 
L 279.858093 -191.80749 
L 279.363193 -191.80749 
L 278.868293 -191.80749 
L 278.373392 -191.80749 
L 277.878492 -191.80749 
L 277.383592 -191.80749 
L 276.888692 -191.80749 
L 276.393792 -191.80749 
L 275.898891 -191.80749 
L 275.403991 -191.80749 
L 274.909091 -191.80749 
L 274.414191 -191.80749 
L 273.91929 -191.80749 
L 273.42439 -191.80749 
L 272.92949 -191.80749 
L 272.43459 -191.80749 
L 271.93969 -191.80749 
L 271.444789 -191.80749 
L 270.949889 -191.80749 
L 270.454989 -191.80749 
L 269.960089 -191.80749 
L 269.465188 -191.80749 
L 268.970288 -191.80749 
L 268.475388 -191.80749 
L 267.980488 -191.80749 
L 267.485588 -191.80749 
L 266.990687 -191.80749 
L 266.495787 -191.80749 
L 266.000887 -191.80749 
L 265.505987 -191.80749 
L 265.011086 -191.80749 
L 264.516186 -191.80749 
L 264.021286 -191.80749 
L 263.526386 -191.80749 
L 263.031486 -191.80749 
L 262.536585 -191.80749 
L 262.041685 -191.80749 
L 261.546785 -191.80749 
L 261.051885 -191.80749 
L 260.556984 -191.80749 
L 260.062084 -191.80749 
L 259.567184 -191.80749 
L 259.072284 -191.80749 
L 258.577384 -191.80749 
L 258.082483 -191.80749 
L 257.587583 -191.80749 
L 257.092683 -191.80749 
L 256.597783 -191.80749 
L 256.102882 -191.80749 
L 255.607982 -191.80749 
L 255.113082 -191.80749 
L 254.618182 -191.80749 
L 254.123282 -191.80749 
L 253.628381 -191.80749 
L 253.133481 -191.80749 
L 252.638581 -191.80749 
L 252.143681 -191.80749 
L 251.64878 -191.80749 
L 251.15388 -191.80749 
L 250.65898 -191.80749 
L 250.16408 -191.80749 
L 249.66918 -191.80749 
L 249.174279 -191.80749 
L 248.679379 -191.80749 
L 248.184479 -191.80749 
L 247.689579 -191.80749 
L 247.194678 -191.80749 
L 246.699778 -191.80749 
L 246.204878 -191.80749 
L 245.709978 -191.80749 
L 245.215078 -191.80749 
L 244.720177 -191.80749 
L 244.225277 -191.80749 
L 243.730377 -191.80749 
L 243.235477 -191.80749 
L 242.740576 -191.80749 
L 242.245676 -191.80749 
L 241.750776 -191.80749 
L 241.255876 -191.80749 
L 240.760976 -191.80749 
L 240.266075 -191.80749 
L 239.771175 -191.80749 
L 239.276275 -191.80749 
L 238.781375 -191.80749 
L 238.286475 -191.80749 
L 237.791574 -191.80749 
L 237.296674 -191.80749 
L 236.801774 -191.80749 
L 236.306874 -191.80749 
L 235.811973 -191.80749 
L 235.317073 -191.80749 
L 234.822173 -191.80749 
L 234.327273 -191.80749 
L 233.832373 -191.80749 
L 233.337472 -191.80749 
L 232.842572 -191.80749 
L 232.347672 -191.80749 
L 231.852772 -191.80749 
L 231.357871 -191.80749 
L 230.862971 -191.80749 
L 230.368071 -191.80749 
L 229.873171 -191.80749 
L 229.378271 -191.80749 
L 228.88337 -191.80749 
L 228.38847 -191.80749 
L 227.89357 -191.80749 
L 227.39867 -191.80749 
L 226.903769 -191.80749 
L 226.408869 -191.80749 
L 225.913969 -191.80749 
L 225.419069 -191.80749 
L 224.924169 -191.80749 
L 224.429268 -191.80749 
L 223.934368 -191.80749 
L 223.439468 -191.80749 
L 222.944568 -191.80749 
L 222.449667 -191.80749 
L 221.954767 -191.80749 
L 221.459867 -191.80749 
L 220.964967 -191.80749 
L 220.470067 -191.80749 
L 219.975166 -191.80749 
L 219.480266 -191.80749 
L 218.985366 -191.80749 
L 218.490466 -191.80749 
L 217.995565 -191.80749 
L 217.500665 -191.80749 
L 217.005765 -191.80749 
L 216.510865 -191.80749 
L 216.015965 -191.80749 
L 215.521064 -191.80749 
L 215.026164 -191.80749 
L 214.531264 -191.80749 
L 214.036364 -191.80749 
L 213.541463 -191.80749 
L 213.046563 -191.80749 
L 212.551663 -191.80749 
L 212.056763 -191.80749 
L 211.561863 -191.80749 
L 211.066962 -191.80749 
L 210.572062 -191.80749 
L 210.077162 -191.80749 
L 209.582262 -191.80749 
L 209.087361 -191.80749 
L 208.592461 -191.80749 
L 208.097561 -191.80749 
L 207.602661 -191.80749 
L 207.107761 -191.80749 
L 206.61286 -191.80749 
L 206.11796 -191.80749 
L 205.62306 -191.80749 
L 205.12816 -191.80749 
L 204.633259 -191.80749 
L 204.138359 -191.80749 
L 203.643459 -191.80749 
L 203.148559 -191.80749 
L 202.653659 -191.80749 
L 202.158758 -191.80749 
L 201.663858 -191.80749 
L 201.168958 -191.80749 
L 200.674058 -191.80749 
L 200.179157 -191.80749 
L 199.684257 -191.80749 
L 199.189357 -191.80749 
L 198.694457 -191.80749 
L 198.199557 -191.80749 
L 197.704656 -191.80749 
L 197.209756 -191.80749 
L 196.714856 -191.80749 
L 196.219956 -191.80749 
L 195.725055 -191.80749 
L 195.230155 -191.80749 
L 194.735255 -191.80749 
L 194.240355 -191.80749 
L 193.745455 -191.80749 
L 193.250554 -191.80749 
L 192.755654 -191.80749 
L 192.260754 -191.80749 
L 191.765854 -191.80749 
L 191.270953 -191.80749 
L 190.776053 -191.80749 
L 190.281153 -191.80749 
L 189.786253 -191.80749 
L 189.291353 -191.80749 
L 188.796452 -191.80749 
L 188.301552 -191.80749 
L 187.806652 -191.80749 
L 187.311752 -191.80749 
L 186.816851 -191.80749 
L 186.321951 -191.80749 
L 185.827051 -191.80749 
L 185.332151 -191.80749 
L 184.837251 -191.80749 
L 184.34235 -191.80749 
L 183.84745 -191.80749 
L 183.35255 -191.80749 
L 182.85765 -191.80749 
L 182.362749 -191.80749 
L 181.867849 -191.80749 
L 181.372949 -191.80749 
L 180.878049 -191.80749 
L 180.383149 -191.80749 
L 179.888248 -191.80749 
L 179.393348 -191.80749 
L 178.898448 -191.80749 
L 178.403548 -191.80749 
L 177.908647 -191.80749 
L 177.413747 -191.80749 
L 176.918847 -191.80749 
L 176.423947 -191.80749 
L 175.929047 -191.80749 
L 175.434146 -191.80749 
L 174.939246 -191.80749 
L 174.444346 -191.80749 
L 173.949446 -191.80749 
L 173.454545 -191.80749 
L 172.959645 -191.80749 
L 172.464745 -191.80749 
L 171.969845 -191.80749 
L 171.474945 -191.80749 
L 170.980044 -191.80749 
L 170.485144 -191.80749 
L 169.990244 -191.80749 
L 169.495344 -191.80749 
L 169.000443 -191.80749 
L 168.505543 -191.80749 
L 168.010643 -191.80749 
L 167.515743 -191.80749 
L 167.020843 -191.80749 
L 166.525942 -191.80749 
L 166.031042 -191.80749 
L 165.536142 -191.80749 
L 165.041242 -191.80749 
L 164.546341 -191.80749 
L 164.051441 -191.80749 
L 163.556541 -191.80749 
L 163.061641 -191.80749 
L 162.566741 -191.80749 
L 162.07184 -191.80749 
L 161.57694 -191.80749 
L 161.08204 -191.80749 
L 160.58714 -191.80749 
L 160.092239 -191.80749 
L 159.597339 -191.80749 
L 159.102439 -191.80749 
L 158.607539 -191.80749 
L 158.112639 -191.80749 
L 157.617738 -191.80749 
L 157.122838 -191.80749 
L 156.627938 -191.80749 
L 156.133038 -191.80749 
L 155.638137 -191.80749 
L 155.143237 -191.80749 
L 154.648337 -191.80749 
L 154.153437 -191.80749 
L 153.658537 -191.80749 
L 153.163636 -191.80749 
L 152.668736 -191.80749 
L 152.173836 -191.80749 
L 151.678936 -191.80749 
L 151.184035 -191.80749 
L 150.689135 -191.80749 
L 150.194235 -191.80749 
L 149.699335 -191.80749 
L 149.204435 -191.80749 
L 148.709534 -191.80749 
L 148.214634 -191.80749 
L 147.719734 -191.80749 
L 147.224834 -191.80749 
L 146.729933 -191.80749 
L 146.235033 -191.80749 
L 145.740133 -191.80749 
L 145.245233 -191.80749 
L 144.750333 -191.80749 
L 144.255432 -191.80749 
L 143.760532 -191.80749 
L 143.265632 -191.80749 
L 142.770732 -191.80749 
L 142.275831 -191.80749 
L 141.780931 -191.80749 
L 141.286031 -191.80749 
L 140.791131 -191.80749 
L 140.296231 -191.80749 
L 139.80133 -191.80749 
L 139.30643 -191.80749 
L 138.81153 -191.80749 
L 138.31663 -191.80749 
L 137.821729 -191.80749 
L 137.326829 -191.80749 
L 136.831929 -191.80749 
L 136.337029 -191.80749 
L 135.842129 -191.80749 
L 135.347228 -191.80749 
L 134.852328 -191.80749 
L 134.357428 -191.80749 
L 133.862528 -191.80749 
L 133.367627 -191.80749 
L 132.872727 -191.80749 
L 132.377827 -191.80749 
L 131.882927 -191.80749 
L 131.388027 -191.80749 
L 130.893126 -191.80749 
L 130.398226 -191.80749 
L 129.903326 -191.80749 
L 129.408426 -191.80749 
L 128.913525 -191.80749 
L 128.418625 -191.80749 
L 127.923725 -191.80749 
L 127.428825 -191.80749 
L 126.933925 -191.80749 
L 126.439024 -191.80749 
L 125.944124 -191.80749 
L 125.449224 -191.80749 
L 124.954324 -191.80749 
L 124.459424 -191.80749 
L 123.964523 -191.80749 
L 123.469623 -191.80749 
L 122.974723 -191.80749 
L 122.479823 -191.80749 
L 121.984922 -191.80749 
L 121.490022 -191.80749 
L 120.995122 -191.80749 
L 120.500222 -191.80749 
L 120.005322 -191.80749 
L 119.510421 -191.80749 
L 119.015521 -191.80749 
L 118.520621 -191.80749 
L 118.025721 -191.80749 
L 117.53082 -191.80749 
L 117.03592 -191.80749 
L 116.54102 -191.80749 
L 116.04612 -191.80749 
L 115.55122 -191.80749 
L 115.056319 -191.80749 
L 114.561419 -191.80749 
L 114.066519 -191.80749 
L 113.571619 -191.80749 
L 113.076718 -191.80749 
L 112.581818 -191.80749 
L 112.086918 -191.80749 
L 111.592018 -191.80749 
L 111.097118 -191.80749 
L 110.602217 -191.80749 
L 110.107317 -191.80749 
L 109.612417 -191.80749 
L 109.117517 -191.80749 
L 108.622616 -191.80749 
L 108.127716 -191.80749 
L 107.632816 -191.80749 
L 107.137916 -191.80749 
L 106.643016 -191.80749 
L 106.148115 -191.80749 
L 105.653215 -191.80749 
L 105.158315 -191.80749 
L 104.663415 -191.80749 
L 104.168514 -191.80749 
L 103.673614 -191.80749 
L 103.178714 -191.80749 
L 102.683814 -191.80749 
L 102.188914 -191.80749 
L 101.694013 -191.80749 
L 101.199113 -191.80749 
L 100.704213 -191.80749 
L 100.209313 -191.80749 
L 99.714412 -191.80749 
L 99.219512 -191.80749 
L 98.724612 -191.80749 
L 98.229712 -191.80749 
L 97.734812 -191.80749 
L 97.239911 -191.80749 
L 96.745011 -191.80749 
L 96.250111 -191.80749 
L 95.755211 -191.80749 
L 95.26031 -191.80749 
L 94.76541 -191.80749 
L 94.27051 -191.80749 
L 93.77561 -191.80749 
L 93.28071 -191.80749 
L 92.785809 -191.80749 
L 92.290909 -191.80749 
L 91.796009 -191.80749 
L 91.301109 -191.80749 
L 90.806208 -191.80749 
L 90.311308 -191.80749 
L 89.816408 -191.80749 
L 89.321508 -191.80749 
L 88.826608 -191.80749 
L 88.331707 -191.80749 
L 87.836807 -191.80749 
L 87.341907 -191.80749 
L 86.847007 -191.80749 
L 86.352106 -191.80749 
L 85.857206 -191.80749 
L 85.362306 -191.80749 
L 84.867406 -191.80749 
L 84.372506 -191.80749 
L 83.877605 -191.80749 
L 83.382705 -191.80749 
L 82.887805 -191.80749 
L 82.392905 -191.80749 
L 81.898004 -191.80749 
L 81.403104 -191.80749 
L 80.908204 -191.80749 
L 80.413304 -191.80749 
L 79.918404 -191.80749 
L 79.423503 -191.80749 
L 78.928603 -191.80749 
L 78.433703 -191.80749 
L 77.938803 -191.80749 
L 77.443902 -191.80749 
L 76.949002 -191.80749 
L 76.454102 -191.80749 
L 75.959202 -191.80749 
L 75.464302 -191.80749 
L 74.969401 -191.80749 
L 74.474501 -191.80749 
L 73.979601 -191.80749 
L 73.484701 -191.80749 
L 72.9898 -191.80749 
L 72.4949 -191.80749 
L 72 -191.80749 
z
" id="m5d51679001"/>
    </defs>
    <g clip-path="url(#pec1b99081b)">
     <use style="fill-opacity:0.15;" x="0" xlink:href="#m5d51679001" y="360"/>
    </g>
   </g>
   <g id="matplotlib.axis_1">
    <g id="xtick_1">
     <g id="line2d_1">
      <defs>
       <path d="M 0 0 
L 0 3.5 
" id="mf0f5849faa" style="stroke:#000000;stroke-width:0.8;"/>
      </defs>
      <g>
       <use style="stroke:#000000;stroke-width:0.8;" x="72" xlink:href="#mf0f5849faa" y="320.4"/>
      </g>
     </g>
     <g id="text_1">
      <!-- 0.0 -->
      <g transform="translate(60.867812 338.037813)scale(0.14 -0.14)">
       <defs>
        <path d="M 2034 4250 
Q 1547 4250 1301 3770 
Q 1056 3291 1056 2328 
Q 1056 1369 1301 889 
Q 1547 409 2034 409 
Q 2525 409 2770 889 
Q 3016 1369 3016 2328 
Q 3016 3291 2770 3770 
Q 2525 4250 2034 4250 
z
M 2034 4750 
Q 2819 4750 3233 4129 
Q 3647 3509 3647 2328 
Q 3647 1150 3233 529 
Q 2819 -91 2034 -91 
Q 1250 -91 836 529 
Q 422 1150 422 2328 
Q 422 3509 836 4129 
Q 1250 4750 2034 4750 
z
" id="DejaVuSans-30" transform="scale(0.015625)"/>
        <path d="M 684 794 
L 1344 794 
L 1344 0 
L 684 0 
L 684 794 
z
" id="DejaVuSans-2e" transform="scale(0.015625)"/>
       </defs>
       <use xlink:href="#DejaVuSans-30"/>
       <use x="63.623047" xlink:href="#DejaVuSans-2e"/>
       <use x="95.410156" xlink:href="#DejaVuSans-30"/>
      </g>
     </g>
    </g>
    <g id="xtick_2">
     <g id="line2d_2">
      <g>
       <use style="stroke:#000000;stroke-width:0.8;" x="127.805581" xlink:href="#mf0f5849faa" y="320.4"/>
      </g>
     </g>
     <g id="text_2">
      <!-- 2.5 -->
      <g transform="translate(116.673393 338.037813)scale(0.14 -0.14)">
       <defs>
        <path d="M 1228 531 
L 3431 531 
L 3431 0 
L 469 0 
L 469 531 
Q 828 903 1448 1529 
Q 2069 2156 2228 2338 
Q 2531 2678 2651 2914 
Q 2772 3150 2772 3378 
Q 2772 3750 2511 3984 
Q 2250 4219 1831 4219 
Q 1534 4219 1204 4116 
Q 875 4013 500 3803 
L 500 4441 
Q 881 4594 1212 4672 
Q 1544 4750 1819 4750 
Q 2544 4750 2975 4387 
Q 3406 4025 3406 3419 
Q 3406 3131 3298 2873 
Q 3191 2616 2906 2266 
Q 2828 2175 2409 1742 
Q 1991 1309 1228 531 
z
" id="DejaVuSans-32" transform="scale(0.015625)"/>
        <path d="M 691 4666 
L 3169 4666 
L 3169 4134 
L 1269 4134 
L 1269 2991 
Q 1406 3038 1543 3061 
Q 1681 3084 1819 3084 
Q 2600 3084 3056 2656 
Q 3513 2228 3513 1497 
Q 3513 744 3044 326 
Q 2575 -91 1722 -91 
Q 1428 -91 1123 -41 
Q 819 9 494 109 
L 494 744 
Q 775 591 1075 516 
Q 1375 441 1709 441 
Q 2250 441 2565 725 
Q 2881 1009 2881 1497 
Q 2881 1984 2565 2268 
Q 2250 2553 1709 2553 
Q 1456 2553 1204 2497 
Q 953 2441 691 2322 
L 691 4666 
z
" id="DejaVuSans-35" transform="scale(0.015625)"/>
       </defs>
       <use xlink:href="#DejaVuSans-32"/>
       <use x="63.623047" xlink:href="#DejaVuSans-2e"/>
       <use x="95.410156" xlink:href="#DejaVuSans-35"/>
      </g>
     </g>
    </g>
    <g id="xtick_3">
     <g id="line2d_3">
      <g>
       <use style="stroke:#000000;stroke-width:0.8;" x="183.611161" xlink:href="#mf0f5849faa" y="320.4"/>
      </g>
     </g>
     <g id="text_3">
      <!-- 5.0 -->
      <g transform="translate(172.478974 338.037813)scale(0.14 -0.14)">
       <use xlink:href="#DejaVuSans-35"/>
       <use x="63.623047" xlink:href="#DejaVuSans-2e"/>
       <use x="95.410156" xlink:href="#DejaVuSans-30"/>
      </g>
     </g>
    </g>
    <g id="xtick_4">
     <g id="line2d_4">
      <g>
       <use style="stroke:#000000;stroke-width:0.8;" x="239.416742" xlink:href="#mf0f5849faa" y="320.4"/>
      </g>
     </g>
     <g id="text_4">
      <!-- 7.5 -->
      <g transform="translate(228.284554 338.037813)scale(0.14 -0.14)">
       <defs>
        <path d="M 525 4666 
L 3525 4666 
L 3525 4397 
L 1831 0 
L 1172 0 
L 2766 4134 
L 525 4134 
L 525 4666 
z
" id="DejaVuSans-37" transform="scale(0.015625)"/>
       </defs>
       <use xlink:href="#DejaVuSans-37"/>
       <use x="63.623047" xlink:href="#DejaVuSans-2e"/>
       <use x="95.410156" xlink:href="#DejaVuSans-35"/>
      </g>
     </g>
    </g>
    <g id="xtick_5">
     <g id="line2d_5">
      <g>
       <use style="stroke:#000000;stroke-width:0.8;" x="295.222322" xlink:href="#mf0f5849faa" y="320.4"/>
      </g>
     </g>
     <g id="text_5">
      <!-- 10.0 -->
      <g transform="translate(279.636385 338.037813)scale(0.14 -0.14)">
       <defs>
        <path d="M 794 531 
L 1825 531 
L 1825 4091 
L 703 3866 
L 703 4441 
L 1819 4666 
L 2450 4666 
L 2450 531 
L 3481 531 
L 3481 0 
L 794 0 
L 794 531 
z
" id="DejaVuSans-31" transform="scale(0.015625)"/>
       </defs>
       <use xlink:href="#DejaVuSans-31"/>
       <use x="63.623047" xlink:href="#DejaVuSans-30"/>
       <use x="127.246094" xlink:href="#DejaVuSans-2e"/>
       <use x="159.033203" xlink:href="#DejaVuSans-30"/>
      </g>
     </g>
    </g>
    <g id="xtick_6">
     <g id="line2d_6">
      <g>
       <use style="stroke:#000000;stroke-width:0.8;" x="351.027903" xlink:href="#mf0f5849faa" y="320.4"/>
      </g>
     </g>
     <g id="text_6">
      <!-- 12.5 -->
      <g transform="translate(335.441965 338.037813)scale(0.14 -0.14)">
       <use xlink:href="#DejaVuSans-31"/>
       <use x="63.623047" xlink:href="#DejaVuSans-32"/>
       <use x="127.246094" xlink:href="#DejaVuSans-2e"/>
       <use x="159.033203" xlink:href="#DejaVuSans-35"/>
      </g>
     </g>
    </g>
    <g id="xtick_7">
     <g id="line2d_7">
      <g>
       <use style="stroke:#000000;stroke-width:0.8;" x="406.833483" xlink:href="#mf0f5849faa" y="320.4"/>
      </g>
     </g>
     <g id="text_7">
      <!-- 15.0 -->
      <g transform="translate(391.247546 338.037813)scale(0.14 -0.14)">
       <use xlink:href="#DejaVuSans-31"/>
       <use x="63.623047" xlink:href="#DejaVuSans-35"/>
       <use x="127.246094" xlink:href="#DejaVuSans-2e"/>
       <use x="159.033203" xlink:href="#DejaVuSans-30"/>
      </g>
     </g>
    </g>
    <g id="xtick_8">
     <g id="line2d_8">
      <g>
       <use style="stroke:#000000;stroke-width:0.8;" x="462.639064" xlink:href="#mf0f5849faa" y="320.4"/>
      </g>
     </g>
     <g id="text_8">
      <!-- 17.5 -->
      <g transform="translate(447.053126 338.037813)scale(0.14 -0.14)">
       <use xlink:href="#DejaVuSans-31"/>
       <use x="63.623047" xlink:href="#DejaVuSans-37"/>
       <use x="127.246094" xlink:href="#DejaVuSans-2e"/>
       <use x="159.033203" xlink:href="#DejaVuSans-35"/>
      </g>
     </g>
    </g>
    <g id="text_9">
     <!-- Time [Seconds] -->
     <g transform="translate(233.23 357.106875)scale(0.16 -0.16)">
      <defs>
       <path d="M -19 4666 
L 3928 4666 
L 3928 4134 
L 2272 4134 
L 2272 0 
L 1638 0 
L 1638 4134 
L -19 4134 
L -19 4666 
z
" id="DejaVuSans-54" transform="scale(0.015625)"/>
       <path d="M 603 3500 
L 1178 3500 
L 1178 0 
L 603 0 
L 603 3500 
z
M 603 4863 
L 1178 4863 
L 1178 4134 
L 603 4134 
L 603 4863 
z
" id="DejaVuSans-69" transform="scale(0.015625)"/>
       <path d="M 3328 2828 
Q 3544 3216 3844 3400 
Q 4144 3584 4550 3584 
Q 5097 3584 5394 3201 
Q 5691 2819 5691 2113 
L 5691 0 
L 5113 0 
L 5113 2094 
Q 5113 2597 4934 2840 
Q 4756 3084 4391 3084 
Q 3944 3084 3684 2787 
Q 3425 2491 3425 1978 
L 3425 0 
L 2847 0 
L 2847 2094 
Q 2847 2600 2669 2842 
Q 2491 3084 2119 3084 
Q 1678 3084 1418 2786 
Q 1159 2488 1159 1978 
L 1159 0 
L 581 0 
L 581 3500 
L 1159 3500 
L 1159 2956 
Q 1356 3278 1631 3431 
Q 1906 3584 2284 3584 
Q 2666 3584 2933 3390 
Q 3200 3197 3328 2828 
z
" id="DejaVuSans-6d" transform="scale(0.015625)"/>
       <path d="M 3597 1894 
L 3597 1613 
L 953 1613 
Q 991 1019 1311 708 
Q 1631 397 2203 397 
Q 2534 397 2845 478 
Q 3156 559 3463 722 
L 3463 178 
Q 3153 47 2828 -22 
Q 2503 -91 2169 -91 
Q 1331 -91 842 396 
Q 353 884 353 1716 
Q 353 2575 817 3079 
Q 1281 3584 2069 3584 
Q 2775 3584 3186 3129 
Q 3597 2675 3597 1894 
z
M 3022 2063 
Q 3016 2534 2758 2815 
Q 2500 3097 2075 3097 
Q 1594 3097 1305 2825 
Q 1016 2553 972 2059 
L 3022 2063 
z
" id="DejaVuSans-65" transform="scale(0.015625)"/>
       <path id="DejaVuSans-20" transform="scale(0.015625)"/>
       <path d="M 550 4863 
L 1875 4863 
L 1875 4416 
L 1125 4416 
L 1125 -397 
L 1875 -397 
L 1875 -844 
L 550 -844 
L 550 4863 
z
" id="DejaVuSans-5b" transform="scale(0.015625)"/>
       <path d="M 3425 4513 
L 3425 3897 
Q 3066 4069 2747 4153 
Q 2428 4238 2131 4238 
Q 1616 4238 1336 4038 
Q 1056 3838 1056 3469 
Q 1056 3159 1242 3001 
Q 1428 2844 1947 2747 
L 2328 2669 
Q 3034 2534 3370 2195 
Q 3706 1856 3706 1288 
Q 3706 609 3251 259 
Q 2797 -91 1919 -91 
Q 1588 -91 1214 -16 
Q 841 59 441 206 
L 441 856 
Q 825 641 1194 531 
Q 1563 422 1919 422 
Q 2459 422 2753 634 
Q 3047 847 3047 1241 
Q 3047 1584 2836 1778 
Q 2625 1972 2144 2069 
L 1759 2144 
Q 1053 2284 737 2584 
Q 422 2884 422 3419 
Q 422 4038 858 4394 
Q 1294 4750 2059 4750 
Q 2388 4750 2728 4690 
Q 3069 4631 3425 4513 
z
" id="DejaVuSans-53" transform="scale(0.015625)"/>
       <path d="M 3122 3366 
L 3122 2828 
Q 2878 2963 2633 3030 
Q 2388 3097 2138 3097 
Q 1578 3097 1268 2742 
Q 959 2388 959 1747 
Q 959 1106 1268 751 
Q 1578 397 2138 397 
Q 2388 397 2633 464 
Q 2878 531 3122 666 
L 3122 134 
Q 2881 22 2623 -34 
Q 2366 -91 2075 -91 
Q 1284 -91 818 406 
Q 353 903 353 1747 
Q 353 2603 823 3093 
Q 1294 3584 2113 3584 
Q 2378 3584 2631 3529 
Q 2884 3475 3122 3366 
z
" id="DejaVuSans-63" transform="scale(0.015625)"/>
       <path d="M 1959 3097 
Q 1497 3097 1228 2736 
Q 959 2375 959 1747 
Q 959 1119 1226 758 
Q 1494 397 1959 397 
Q 2419 397 2687 759 
Q 2956 1122 2956 1747 
Q 2956 2369 2687 2733 
Q 2419 3097 1959 3097 
z
M 1959 3584 
Q 2709 3584 3137 3096 
Q 3566 2609 3566 1747 
Q 3566 888 3137 398 
Q 2709 -91 1959 -91 
Q 1206 -91 779 398 
Q 353 888 353 1747 
Q 353 2609 779 3096 
Q 1206 3584 1959 3584 
z
" id="DejaVuSans-6f" transform="scale(0.015625)"/>
       <path d="M 3513 2113 
L 3513 0 
L 2938 0 
L 2938 2094 
Q 2938 2591 2744 2837 
Q 2550 3084 2163 3084 
Q 1697 3084 1428 2787 
Q 1159 2491 1159 1978 
L 1159 0 
L 581 0 
L 581 3500 
L 1159 3500 
L 1159 2956 
Q 1366 3272 1645 3428 
Q 1925 3584 2291 3584 
Q 2894 3584 3203 3211 
Q 3513 2838 3513 2113 
z
" id="DejaVuSans-6e" transform="scale(0.015625)"/>
       <path d="M 2906 2969 
L 2906 4863 
L 3481 4863 
L 3481 0 
L 2906 0 
L 2906 525 
Q 2725 213 2448 61 
Q 2172 -91 1784 -91 
Q 1150 -91 751 415 
Q 353 922 353 1747 
Q 353 2572 751 3078 
Q 1150 3584 1784 3584 
Q 2172 3584 2448 3432 
Q 2725 3281 2906 2969 
z
M 947 1747 
Q 947 1113 1208 752 
Q 1469 391 1925 391 
Q 2381 391 2643 752 
Q 2906 1113 2906 1747 
Q 2906 2381 2643 2742 
Q 2381 3103 1925 3103 
Q 1469 3103 1208 2742 
Q 947 2381 947 1747 
z
" id="DejaVuSans-64" transform="scale(0.015625)"/>
       <path d="M 2834 3397 
L 2834 2853 
Q 2591 2978 2328 3040 
Q 2066 3103 1784 3103 
Q 1356 3103 1142 2972 
Q 928 2841 928 2578 
Q 928 2378 1081 2264 
Q 1234 2150 1697 2047 
L 1894 2003 
Q 2506 1872 2764 1633 
Q 3022 1394 3022 966 
Q 3022 478 2636 193 
Q 2250 -91 1575 -91 
Q 1294 -91 989 -36 
Q 684 19 347 128 
L 347 722 
Q 666 556 975 473 
Q 1284 391 1588 391 
Q 1994 391 2212 530 
Q 2431 669 2431 922 
Q 2431 1156 2273 1281 
Q 2116 1406 1581 1522 
L 1381 1569 
Q 847 1681 609 1914 
Q 372 2147 372 2553 
Q 372 3047 722 3315 
Q 1072 3584 1716 3584 
Q 2034 3584 2315 3537 
Q 2597 3491 2834 3397 
z
" id="DejaVuSans-73" transform="scale(0.015625)"/>
       <path d="M 1947 4863 
L 1947 -844 
L 622 -844 
L 622 -397 
L 1369 -397 
L 1369 4416 
L 622 4416 
L 622 4863 
L 1947 4863 
z
" id="DejaVuSans-5d" transform="scale(0.015625)"/>
      </defs>
      <use xlink:href="#DejaVuSans-54"/>
      <use x="57.958984" xlink:href="#DejaVuSans-69"/>
      <use x="85.742188" xlink:href="#DejaVuSans-6d"/>
      <use x="183.154297" xlink:href="#DejaVuSans-65"/>
      <use x="244.677734" xlink:href="#DejaVuSans-20"/>
      <use x="276.464844" xlink:href="#DejaVuSans-5b"/>
      <use x="315.478516" xlink:href="#DejaVuSans-53"/>
      <use x="378.955078" xlink:href="#DejaVuSans-65"/>
      <use x="440.478516" xlink:href="#DejaVuSans-63"/>
      <use x="495.458984" xlink:href="#DejaVuSans-6f"/>
      <use x="556.640625" xlink:href="#DejaVuSans-6e"/>
      <use x="620.019531" xlink:href="#DejaVuSans-64"/>
      <use x="683.496094" xlink:href="#DejaVuSans-73"/>
      <use x="735.595703" xlink:href="#DejaVuSans-5d"/>
     </g>
    </g>
   </g>
   <g id="matplotlib.axis_2">
    <g id="ytick_1">
     <g id="line2d_9">
      <defs>
       <path d="M 0 0 
L -3.5 0 
" id="m807cf60fca" style="stroke:#000000;stroke-width:0.8;"/>
      </defs>
      <g>
       <use style="stroke:#000000;stroke-width:0.8;" x="72" xlink:href="#m807cf60fca" y="287.858249"/>
      </g>
     </g>
     <g id="text_10">
      <!-- 0.0 -->
      <g transform="translate(42.735625 293.177156)scale(0.14 -0.14)">
       <use xlink:href="#DejaVuSans-30"/>
       <use x="63.623047" xlink:href="#DejaVuSans-2e"/>
       <use x="95.410156" xlink:href="#DejaVuSans-30"/>
      </g>
     </g>
    </g>
    <g id="ytick_2">
     <g id="line2d_10">
      <g>
       <use style="stroke:#000000;stroke-width:0.8;" x="72" xlink:href="#m807cf60fca" y="229.573135"/>
      </g>
     </g>
     <g id="text_11">
      <!-- 0.5 -->
      <g transform="translate(42.735625 234.892041)scale(0.14 -0.14)">
       <use xlink:href="#DejaVuSans-30"/>
       <use x="63.623047" xlink:href="#DejaVuSans-2e"/>
       <use x="95.410156" xlink:href="#DejaVuSans-35"/>
      </g>
     </g>
    </g>
    <g id="ytick_3">
     <g id="line2d_11">
      <g>
       <use style="stroke:#000000;stroke-width:0.8;" x="72" xlink:href="#m807cf60fca" y="171.28802"/>
      </g>
     </g>
     <g id="text_12">
      <!-- 1.0 -->
      <g transform="translate(42.735625 176.606927)scale(0.14 -0.14)">
       <use xlink:href="#DejaVuSans-31"/>
       <use x="63.623047" xlink:href="#DejaVuSans-2e"/>
       <use x="95.410156" xlink:href="#DejaVuSans-30"/>
      </g>
     </g>
    </g>
    <g id="ytick_4">
     <g id="line2d_12">
      <g>
       <use style="stroke:#000000;stroke-width:0.8;" x="72" xlink:href="#m807cf60fca" y="113.002906"/>
      </g>
     </g>
     <g id="text_13">
      <!-- 1.5 -->
      <g transform="translate(42.735625 118.321812)scale(0.14 -0.14)">
       <use xlink:href="#DejaVuSans-31"/>
       <use x="63.623047" xlink:href="#DejaVuSans-2e"/>
       <use x="95.410156" xlink:href="#DejaVuSans-35"/>
      </g>
     </g>
    </g>
    <g id="ytick_5">
     <g id="line2d_13">
      <g>
       <use style="stroke:#000000;stroke-width:0.8;" x="72" xlink:href="#m807cf60fca" y="54.717791"/>
      </g>
     </g>
     <g id="text_14">
      <!-- 2.0 -->
      <g transform="translate(42.735625 60.036698)scale(0.14 -0.14)">
       <use xlink:href="#DejaVuSans-32"/>
       <use x="63.623047" xlink:href="#DejaVuSans-2e"/>
       <use x="95.410156" xlink:href="#DejaVuSans-30"/>
      </g>
     </g>
    </g>
    <g id="text_15">
     <!-- Speed [mm/s] -->
     <g transform="translate(35.408125 238.11375)rotate(-90)scale(0.16 -0.16)">
      <defs>
       <path d="M 1159 525 
L 1159 -1331 
L 581 -1331 
L 581 3500 
L 1159 3500 
L 1159 2969 
Q 1341 3281 1617 3432 
Q 1894 3584 2278 3584 
Q 2916 3584 3314 3078 
Q 3713 2572 3713 1747 
Q 3713 922 3314 415 
Q 2916 -91 2278 -91 
Q 1894 -91 1617 61 
Q 1341 213 1159 525 
z
M 3116 1747 
Q 3116 2381 2855 2742 
Q 2594 3103 2138 3103 
Q 1681 3103 1420 2742 
Q 1159 2381 1159 1747 
Q 1159 1113 1420 752 
Q 1681 391 2138 391 
Q 2594 391 2855 752 
Q 3116 1113 3116 1747 
z
" id="DejaVuSans-70" transform="scale(0.015625)"/>
       <path d="M 1625 4666 
L 2156 4666 
L 531 -594 
L 0 -594 
L 1625 4666 
z
" id="DejaVuSans-2f" transform="scale(0.015625)"/>
      </defs>
      <use xlink:href="#DejaVuSans-53"/>
      <use x="63.476562" xlink:href="#DejaVuSans-70"/>
      <use x="126.953125" xlink:href="#DejaVuSans-65"/>
      <use x="188.476562" xlink:href="#DejaVuSans-65"/>
      <use x="250" xlink:href="#DejaVuSans-64"/>
      <use x="313.476562" xlink:href="#DejaVuSans-20"/>
      <use x="345.263672" xlink:href="#DejaVuSans-5b"/>
      <use x="384.277344" xlink:href="#DejaVuSans-6d"/>
      <use x="481.689453" xlink:href="#DejaVuSans-6d"/>
      <use x="579.101562" xlink:href="#DejaVuSans-2f"/>
      <use x="612.792969" xlink:href="#DejaVuSans-73"/>
      <use x="664.892578" xlink:href="#DejaVuSans-5d"/>
     </g>
    </g>
   </g>
   <g id="line2d_14">
    <path clip-path="url(#pec1b99081b)" d="M 72 166.096147 
L 518.4 166.096147 
" style="fill:none;stroke:#000000;stroke-dasharray:5.55,2.4;stroke-dashoffset:0;stroke-width:1.5;"/>
   </g>
   <g id="line2d_15">
    <path clip-path="url(#pec1b99081b)" d="M 72 283.946497 
L 99.714412 284.015879 
L 100.209313 283.599167 
L 100.704213 285.274633 
L 101.199113 284.594887 
L 101.694013 281.188024 
L 102.188914 280.795874 
L 102.683814 280.577436 
L 103.178714 284.08615 
L 103.673614 285.334403 
L 104.168514 283.718475 
L 104.663415 283.097395 
L 105.158315 282.037405 
L 105.653215 282.433739 
L 106.148115 280.133985 
L 106.643016 279.584117 
L 107.632816 292.166695 
L 108.622616 305.856051 
L 109.117517 307.8 
L 109.612417 306.42282 
L 110.107317 301.773752 
L 110.602217 294.004408 
L 111.592018 265.691138 
L 112.086918 251.818696 
L 113.076718 214.07815 
L 114.561419 154.152802 
L 116.04612 105.147125 
L 116.54102 89.309307 
L 117.03592 77.358658 
L 118.025721 60.576475 
L 118.520621 55.8 
L 119.015521 55.8227 
L 119.510421 59.198056 
L 120.005322 63.745283 
L 120.500222 69.351531 
L 121.490022 88.012637 
L 124.954324 168.322265 
L 125.449224 172.426407 
L 126.439024 170.5592 
L 126.933925 168.233681 
L 127.428825 162.571559 
L 127.923725 153.626557 
L 128.418625 151.646879 
L 128.913525 154.256021 
L 129.408426 155.093265 
L 129.903326 156.684334 
L 130.398226 159.578499 
L 130.893126 159.76932 
L 131.388027 161.581772 
L 131.882927 162.818682 
L 132.377827 161.673284 
L 132.872727 159.216068 
L 133.367627 160.849866 
L 133.862528 164.048269 
L 134.357428 160.781693 
L 134.852328 158.889977 
L 135.347228 159.723118 
L 136.337029 162.833825 
L 136.831929 164.040531 
L 137.326829 164.76495 
L 138.31663 161.523242 
L 139.30643 164.313598 
L 139.80133 162.908605 
L 140.296231 164.582893 
L 140.791131 167.834257 
L 141.286031 168.713663 
L 141.780931 167.332043 
L 142.275831 167.097528 
L 142.770732 167.624289 
L 144.255432 165.554661 
L 144.750333 167.712694 
L 145.245233 167.684725 
L 145.740133 164.494212 
L 146.235033 165.041141 
L 146.729933 167.082472 
L 147.224834 166.019823 
L 147.719734 164.302043 
L 148.214634 163.591942 
L 148.709534 163.810848 
L 149.204435 162.923266 
L 149.699335 163.391156 
L 150.194235 164.84517 
L 150.689135 164.266643 
L 151.184035 164.94986 
L 151.678936 164.685837 
L 152.173836 164.727038 
L 153.163636 166.905267 
L 153.658537 166.613393 
L 154.153437 165.66579 
L 154.648337 166.012324 
L 155.143237 167.322977 
L 155.638137 167.734343 
L 156.133038 167.138778 
L 156.627938 166.780666 
L 157.122838 167.528557 
L 158.112639 166.820028 
L 158.607539 166.89844 
L 159.597339 165.332318 
L 160.092239 165.402629 
L 160.58714 166.564037 
L 161.08204 166.653753 
L 161.57694 165.463168 
L 162.07184 165.279784 
L 162.566741 166.24965 
L 163.061641 164.397622 
L 163.556541 164.547819 
L 164.051441 166.35523 
L 164.546341 165.885935 
L 165.041242 165.174987 
L 165.536142 165.22544 
L 166.031042 167.410454 
L 166.525942 168.810426 
L 167.020843 167.641898 
L 167.515743 167.43901 
L 168.010643 168.185383 
L 168.505543 168.688957 
L 169.000443 168.679296 
L 169.495344 166.685385 
L 169.990244 165.518846 
L 170.980044 169.191714 
L 171.969845 167.211368 
L 172.464745 167.802074 
L 172.959645 168.598858 
L 173.454545 167.640029 
L 173.949446 167.892151 
L 174.444346 168.280717 
L 174.939246 166.668701 
L 175.434146 166.487724 
L 175.929047 166.710026 
L 176.918847 166.575674 
L 177.413747 167.208498 
L 177.908647 167.273073 
L 178.403548 164.365887 
L 178.898448 164.361224 
L 179.393348 165.574131 
L 179.888248 165.095376 
L 180.383149 163.360961 
L 180.878049 163.61165 
L 181.372949 165.552466 
L 182.362749 165.661844 
L 182.85765 164.906319 
L 183.35255 164.774478 
L 183.84745 164.407262 
L 184.34235 164.956874 
L 184.837251 165.260458 
L 185.332151 167.180795 
L 185.827051 168.18437 
L 186.816851 166.058615 
L 187.311752 166.343221 
L 187.806652 169.599504 
L 188.301552 169.99737 
L 189.291353 167.884304 
L 189.786253 167.774151 
L 190.281153 168.684871 
L 191.270953 165.603171 
L 192.260754 169.115411 
L 192.755654 167.711699 
L 193.250554 164.876503 
L 193.745455 165.372299 
L 194.240355 167.229741 
L 194.735255 165.750324 
L 195.230155 165.489232 
L 195.725055 165.75956 
L 196.219956 165.769237 
L 196.714856 166.015057 
L 197.209756 165.151185 
L 197.704656 164.87328 
L 198.199557 166.510494 
L 199.189357 166.181088 
L 199.684257 167.782443 
L 200.179157 166.370688 
L 200.674058 165.917425 
L 201.168958 166.43919 
L 201.663858 166.078048 
L 202.158758 165.492162 
L 202.653659 167.126475 
L 203.148559 168.204872 
L 203.643459 165.550652 
L 204.138359 165.024423 
L 204.633259 165.45422 
L 205.12816 164.891596 
L 205.62306 164.768717 
L 206.11796 165.6342 
L 206.61286 166.749374 
L 207.107761 167.351701 
L 207.602661 166.553686 
L 208.097561 164.623133 
L 208.592461 163.355611 
L 209.087361 164.422097 
L 209.582262 166.977941 
L 210.077162 167.579335 
L 211.066962 164.569595 
L 211.561863 166.362791 
L 212.056763 167.621567 
L 212.551663 165.414611 
L 213.046563 165.526135 
L 213.541463 168.351063 
L 214.036364 168.62956 
L 214.531264 166.372643 
L 215.026164 164.823193 
L 215.521064 167.273307 
L 216.015965 168.207302 
L 216.510865 165.752977 
L 217.005765 166.197188 
L 217.500665 166.817282 
L 217.995565 166.557134 
L 218.490466 166.00235 
L 218.985366 165.251571 
L 219.975166 168.675657 
L 220.470067 167.170994 
L 220.964967 166.241468 
L 221.459867 167.202872 
L 221.954767 166.796255 
L 222.449667 165.639305 
L 223.439468 167.205837 
L 223.934368 166.777981 
L 224.429268 167.05502 
L 224.924169 166.292438 
L 225.419069 164.516207 
L 225.913969 165.319377 
L 226.408869 167.476024 
L 226.903769 168.229297 
L 227.39867 168.310898 
L 227.89357 167.851716 
L 228.38847 168.298622 
L 229.378271 165.906155 
L 229.873171 165.639243 
L 230.368071 166.549876 
L 230.862971 168.128133 
L 231.357871 168.072007 
L 232.347672 165.659595 
L 233.337472 167.389516 
L 233.832373 166.272355 
L 234.327273 164.05889 
L 234.822173 165.795965 
L 235.317073 168.128725 
L 236.306874 165.137969 
L 236.801774 165.543927 
L 237.296674 167.386872 
L 238.286475 165.105605 
L 238.781375 165.653887 
L 239.771175 166.158581 
L 240.266075 166.765532 
L 240.760976 166.410559 
L 241.255876 167.395542 
L 241.750776 167.339966 
L 242.245676 165.461359 
L 242.740576 165.602105 
L 243.235477 167.601642 
L 243.730377 168.362607 
L 244.225277 166.719 
L 244.720177 166.104137 
L 245.215078 166.01499 
L 245.709978 166.090288 
L 246.204878 164.56241 
L 246.699778 164.113548 
L 247.194678 165.541757 
L 248.184479 167.314551 
L 248.679379 166.024866 
L 249.174279 165.160387 
L 249.66918 165.755958 
L 250.16408 164.731228 
L 250.65898 164.378737 
L 251.15388 166.444364 
L 251.64878 167.148898 
L 252.143681 167.257937 
L 252.638581 167.164 
L 253.133481 165.830869 
L 253.628381 165.687247 
L 254.618182 168.254724 
L 255.113082 168.026493 
L 255.607982 167.090401 
L 256.102882 167.113217 
L 256.597783 168.452401 
L 257.092683 167.347424 
L 257.587583 165.356987 
L 258.082483 165.742126 
L 258.577384 165.969722 
L 259.567184 166.045377 
L 260.062084 167.061074 
L 260.556984 167.541093 
L 261.051885 167.572548 
L 261.546785 166.244517 
L 262.041685 164.483434 
L 262.536585 164.045518 
L 263.031486 166.157872 
L 263.526386 166.505953 
L 264.021286 165.190206 
L 264.516186 166.457016 
L 265.011086 166.708711 
L 265.505987 165.687405 
L 266.000887 165.103668 
L 266.495787 165.024464 
L 266.990687 165.124424 
L 267.485588 164.887686 
L 267.980488 164.422183 
L 268.475388 166.838804 
L 268.970288 168.194461 
L 269.465188 167.407897 
L 269.960089 165.731464 
L 270.454989 165.047854 
L 270.949889 167.376937 
L 271.444789 167.940749 
L 271.93969 165.858098 
L 272.43459 166.958273 
L 272.92949 169.056874 
L 273.42439 167.868146 
L 273.91929 166.301562 
L 274.909091 166.304589 
L 275.898891 168.695743 
L 276.393792 168.347252 
L 276.888692 168.140455 
L 277.383592 166.30968 
L 277.878492 165.251255 
L 278.373392 165.555971 
L 278.868293 164.922014 
L 279.363193 164.848132 
L 279.858093 166.285847 
L 280.352993 167.170931 
L 280.847894 165.463394 
L 281.342794 165.140949 
L 281.837694 166.530108 
L 282.332594 166.223331 
L 282.827494 164.340663 
L 283.322395 163.078004 
L 284.312195 166.276925 
L 284.807095 166.614287 
L 285.301996 166.560493 
L 285.796896 165.99579 
L 286.291796 165.928234 
L 286.786696 165.469338 
L 287.281596 165.72078 
L 287.776497 165.598652 
L 288.271397 164.838951 
L 289.261197 167.256773 
L 290.250998 168.197969 
L 291.240798 167.000581 
L 291.735698 165.705155 
L 292.230599 166.919423 
L 292.725499 168.708426 
L 293.220399 167.445514 
L 293.715299 165.594257 
L 294.2102 166.481064 
L 294.7051 168.245491 
L 295.2 167.00009 
L 295.6949 167.546131 
L 296.1898 168.429784 
L 296.684701 167.827824 
L 297.179601 169.314059 
L 297.674501 168.965934 
L 298.169401 166.671266 
L 299.159202 163.974861 
L 299.654102 164.553113 
L 300.149002 166.006704 
L 300.643902 166.683793 
L 301.633703 165.296381 
L 302.128603 165.135923 
L 302.623503 163.954534 
L 303.613304 166.009467 
L 304.108204 166.009095 
L 304.603104 165.563968 
L 305.098004 164.770873 
L 305.592905 166.137868 
L 306.087805 166.188811 
L 306.582705 164.839486 
L 307.077605 165.116172 
L 307.572506 165.113428 
L 308.067406 164.60665 
L 308.562306 163.748239 
L 309.057206 163.906956 
L 309.552106 164.64076 
L 310.047007 165.803449 
L 310.541907 168.065312 
L 311.036807 168.38303 
L 311.531707 168.474709 
L 312.026608 167.690332 
L 312.521508 167.546255 
L 313.016408 168.042279 
L 313.511308 166.914113 
L 314.006208 167.332255 
L 314.501109 166.747778 
L 315.490909 164.461047 
L 315.985809 165.319584 
L 316.48071 166.639343 
L 317.47051 166.547534 
L 317.96541 165.644844 
L 318.46031 166.484501 
L 318.955211 168.367306 
L 319.450111 167.97937 
L 319.945011 166.85682 
L 320.439911 166.336338 
L 321.429712 167.882349 
L 321.924612 168.040703 
L 322.419512 168.411727 
L 322.914412 166.28184 
L 323.409313 165.458855 
L 323.904213 165.593069 
L 324.399113 164.617768 
L 324.894013 164.429761 
L 325.883814 167.756887 
L 326.873614 164.080777 
L 327.368514 165.800542 
L 327.863415 166.797264 
L 328.358315 166.262817 
L 328.853215 165.945727 
L 330.337916 163.339538 
L 330.832816 164.289939 
L 331.327716 164.505559 
L 331.822616 164.252883 
L 333.307317 168.811136 
L 333.802217 167.92526 
L 334.297118 167.703066 
L 334.792018 168.268012 
L 335.286918 168.058259 
L 335.781818 168.388726 
L 336.276718 168.937316 
L 336.771619 169.056641 
L 337.266519 167.960197 
L 337.761419 167.717064 
L 338.256319 166.799363 
L 339.24612 164.563809 
L 339.74102 163.597195 
L 340.73082 165.566323 
L 341.225721 165.510925 
L 341.720621 164.502845 
L 342.215521 164.34684 
L 343.205322 167.31484 
L 343.700222 167.776569 
L 344.195122 167.724654 
L 344.690022 167.225147 
L 345.679823 167.291431 
L 346.174723 166.405834 
L 346.669623 166.186465 
L 347.659424 166.493707 
L 348.154324 164.953662 
L 348.649224 165.040022 
L 349.144124 167.676772 
L 349.639024 168.969995 
L 350.628825 165.593954 
L 351.123725 165.979874 
L 351.618625 165.870417 
L 352.608426 166.333198 
L 353.103326 164.966499 
L 353.598226 164.650456 
L 354.093126 165.33649 
L 355.082927 164.933496 
L 355.577827 164.176989 
L 356.072727 163.158304 
L 356.567627 164.385122 
L 357.062528 165.040608 
L 357.557428 165.437241 
L 358.052328 167.620766 
L 358.547228 167.850569 
L 359.042129 167.614367 
L 359.537029 168.77474 
L 360.031929 168.973398 
L 360.526829 168.36979 
L 361.021729 167.967928 
L 361.51663 166.710508 
L 362.01153 167.194554 
L 362.50643 167.361869 
L 363.00133 166.223797 
L 363.496231 164.408545 
L 363.991131 165.013506 
L 364.486031 166.554714 
L 364.980931 166.617334 
L 365.475831 166.545495 
L 365.970732 166.959826 
L 366.465632 167.966155 
L 366.960532 168.242854 
L 367.455432 167.99103 
L 367.950333 166.719119 
L 368.445233 166.652381 
L 368.940133 166.799158 
L 369.435033 166.647771 
L 370.424834 164.095133 
L 370.919734 165.396687 
L 371.414634 165.149751 
L 371.909534 163.282486 
L 372.404435 163.089165 
L 372.899335 163.927878 
L 373.889135 166.256427 
L 374.384035 167.273596 
L 375.373836 166.659493 
L 376.363636 167.503953 
L 376.858537 167.112281 
L 377.353437 166.424954 
L 377.848337 165.394806 
L 378.343237 165.05439 
L 378.838137 163.551441 
L 379.333038 163.640115 
L 379.827938 165.743406 
L 380.322838 166.102198 
L 380.817738 167.107957 
L 381.312639 168.442261 
L 381.807539 168.294876 
L 382.302439 167.698791 
L 382.797339 167.744821 
L 383.292239 167.544424 
L 383.78714 167.194383 
L 384.28204 167.27606 
L 384.77694 167.227672 
L 385.27184 165.445569 
L 385.766741 165.27859 
L 386.261641 164.363915 
L 386.756541 163.821568 
L 387.251441 163.679062 
L 387.746341 164.010145 
L 388.241242 165.391434 
L 388.736142 164.126054 
L 389.231042 164.363961 
L 390.220843 167.454236 
L 390.715743 167.403916 
L 391.210643 166.839404 
L 391.705543 167.201444 
L 392.200443 166.776336 
L 392.695344 168.036793 
L 393.190244 168.626363 
L 394.180044 165.23913 
L 394.674945 165.472143 
L 395.169845 165.981009 
L 395.664745 165.048223 
L 396.159645 166.315677 
L 396.654545 167.063093 
L 397.149446 166.879472 
L 397.644346 166.857478 
L 398.634146 167.149106 
L 399.129047 166.735308 
L 400.118847 167.22658 
L 400.613747 166.11607 
L 401.108647 165.972462 
L 401.603548 166.322167 
L 402.098448 165.444926 
L 402.593348 165.250457 
L 403.088248 165.748901 
L 403.583149 165.044703 
L 404.078049 164.627252 
L 405.067849 167.06234 
L 406.05765 168.793237 
L 406.55255 169.075407 
L 407.54235 168.169757 
L 408.037251 167.914469 
L 408.532151 168.461718 
L 409.027051 166.410155 
L 409.521951 165.427143 
L 410.016851 166.356069 
L 410.511752 164.234642 
L 411.006652 164.314731 
L 411.501552 165.313729 
L 411.996452 164.521117 
L 412.491353 163.26619 
L 412.986253 163.047638 
L 413.481153 164.534586 
L 413.976053 165.096738 
L 414.470953 166.62107 
L 414.965854 167.464259 
L 415.460754 166.19397 
L 415.955654 165.584282 
L 416.450554 165.619578 
L 416.945455 165.183328 
L 417.440355 165.049603 
L 417.935255 165.657732 
L 418.430155 164.866614 
L 418.925055 165.234237 
L 419.419956 165.226966 
L 419.914856 165.631665 
L 420.409756 167.380313 
L 420.904656 168.492581 
L 421.399557 170.12966 
L 421.894457 170.256945 
L 422.389357 169.04647 
L 422.884257 168.184029 
L 423.379157 167.7794 
L 424.863858 166.156954 
L 425.358758 165.059499 
L 425.853659 164.422193 
L 426.348559 164.426576 
L 427.338359 166.99036 
L 427.833259 165.404316 
L 428.32816 165.186026 
L 428.82306 166.53762 
L 429.31796 167.002701 
L 429.81286 167.969728 
L 430.307761 168.691958 
L 430.802661 166.915135 
L 431.297561 166.460445 
L 431.792461 167.846492 
L 432.782262 166.366856 
L 433.277162 166.030054 
L 433.772062 165.192416 
L 434.266962 164.022365 
L 434.761863 164.086387 
L 435.256763 166.013063 
L 435.751663 167.088123 
L 436.246563 167.826225 
L 436.741463 167.057507 
L 437.236364 166.075943 
L 438.226164 166.751696 
L 438.721064 166.857671 
L 439.215965 166.068842 
L 439.710865 164.839577 
L 440.700665 167.339975 
L 441.195565 165.87325 
L 441.690466 165.105207 
L 442.185366 166.251893 
L 442.680266 165.634545 
L 443.175166 165.383738 
L 443.670067 165.275279 
L 444.164967 166.031808 
L 444.659867 165.976529 
L 445.154767 165.088401 
L 445.649667 165.807877 
L 446.144568 165.637059 
L 446.639468 166.362299 
L 447.134368 166.39027 
L 448.124169 164.182217 
L 448.619069 165.446153 
L 449.113969 165.606799 
L 449.608869 163.585218 
L 450.103769 164.316214 
L 450.59867 165.361035 
L 451.09357 165.061647 
L 451.58847 166.568073 
L 452.08337 167.66252 
L 452.578271 167.138054 
L 453.073171 168.043428 
L 454.062971 167.241993 
L 454.557871 167.347109 
L 455.052772 167.002532 
L 455.547672 167.80534 
L 456.042572 167.85542 
L 456.537472 166.43957 
L 457.527273 167.635214 
L 458.517073 164.051522 
L 459.011973 164.183361 
L 460.496674 166.692384 
L 460.991574 165.509402 
L 461.981375 168.511542 
L 462.476275 167.5695 
L 462.971175 165.695404 
L 463.466075 164.409651 
L 463.960976 165.899869 
L 464.455876 164.489198 
L 464.950776 164.273246 
L 465.445676 166.356612 
L 465.940576 166.736896 
L 466.930377 164.233561 
L 467.425277 164.963189 
L 468.415078 168.492903 
L 469.404878 165.747831 
L 469.899778 166.121549 
L 470.394678 167.402555 
L 470.889579 168.033458 
L 471.384479 165.986463 
L 471.879379 165.810435 
L 472.374279 166.225018 
L 472.86918 164.426971 
L 473.85898 166.028044 
L 474.35388 165.551401 
L 474.84878 166.965437 
L 475.343681 166.691514 
L 475.838581 165.669354 
L 476.333481 165.284461 
L 476.828381 167.160509 
L 477.323282 167.834357 
L 478.313082 166.17893 
L 479.302882 168.639242 
L 479.797783 165.517218 
L 480.292683 164.006689 
L 480.787583 165.839649 
L 481.282483 166.621756 
L 481.777384 166.608263 
L 482.767184 164.079701 
L 483.262084 166.93837 
L 483.756984 167.165526 
L 484.251885 164.942044 
L 484.746785 163.760896 
L 485.241685 165.521191 
L 485.736585 166.753436 
L 486.231486 165.649104 
L 486.726386 166.253752 
L 487.221286 168.135488 
L 487.716186 167.739675 
L 488.211086 165.634027 
L 488.705987 164.917207 
L 489.695787 167.007387 
L 490.190687 166.210073 
L 490.685588 164.043021 
L 491.180488 164.322492 
L 491.675388 167.394654 
L 492.170288 167.973816 
L 492.665188 167.244643 
L 493.160089 165.821052 
L 493.654989 166.016791 
L 494.149889 167.106936 
L 494.644789 166.074929 
L 495.13969 166.09397 
L 495.63459 165.673047 
L 496.12949 166.909362 
L 496.62439 167.814676 
L 497.11929 166.388634 
L 497.614191 165.58914 
L 498.109091 166.062407 
L 498.603991 167.758151 
L 499.593792 166.975111 
L 500.088692 167.111604 
L 500.583592 167.59583 
L 501.078492 167.488676 
L 501.573392 166.40625 
L 502.068293 165.651674 
L 502.563193 166.563517 
L 503.058093 165.493368 
L 503.552993 164.012841 
L 504.047894 164.534168 
L 504.542794 164.325461 
L 505.037694 164.615426 
L 505.532594 163.976609 
L 506.027494 163.039836 
L 507.017295 166.136318 
L 507.512195 164.660473 
L 508.996896 164.605997 
L 509.986696 164.741974 
L 510.976497 165.031443 
L 511.966297 165.483708 
L 513.450998 166.4787 
L 514.935698 167.855459 
L 516.420399 169.599095 
L 517.9051 171.676204 
L 518.4 172.434238 
L 518.4 172.434238 
" style="fill:none;stroke:#ff0000;stroke-linecap:square;stroke-width:2;"/>
   </g>
   <g id="patch_3">
    <path d="M 72 320.4 
L 72 43.2 
" style="fill:none;stroke:#000000;stroke-linecap:square;stroke-linejoin:miter;stroke-width:0.8;"/>
   </g>
   <g id="patch_4">
    <path d="M 518.4 320.4 
L 518.4 43.2 
" style="fill:none;stroke:#000000;stroke-linecap:square;stroke-linejoin:miter;stroke-width:0.8;"/>
   </g>
   <g id="patch_5">
    <path d="M 72 320.4 
L 518.4 320.4 
" style="fill:none;stroke:#000000;stroke-linecap:square;stroke-linejoin:miter;stroke-width:0.8;"/>
   </g>
   <g id="patch_6">
    <path d="M 72 43.2 
L 518.4 43.2 
" style="fill:none;stroke:#000000;stroke-linecap:square;stroke-linejoin:miter;stroke-width:0.8;"/>
   </g>
   <g id="text_16">
    <!-- Front Propogation Speed -->
    <g transform="translate(172.245312 37.2)scale(0.2 -0.2)">
     <defs>
      <path d="M 628 4666 
L 3309 4666 
L 3309 4134 
L 1259 4134 
L 1259 2759 
L 3109 2759 
L 3109 2228 
L 1259 2228 
L 1259 0 
L 628 0 
L 628 4666 
z
" id="DejaVuSans-46" transform="scale(0.015625)"/>
      <path d="M 2631 2963 
Q 2534 3019 2420 3045 
Q 2306 3072 2169 3072 
Q 1681 3072 1420 2755 
Q 1159 2438 1159 1844 
L 1159 0 
L 581 0 
L 581 3500 
L 1159 3500 
L 1159 2956 
Q 1341 3275 1631 3429 
Q 1922 3584 2338 3584 
Q 2397 3584 2469 3576 
Q 2541 3569 2628 3553 
L 2631 2963 
z
" id="DejaVuSans-72" transform="scale(0.015625)"/>
      <path d="M 1172 4494 
L 1172 3500 
L 2356 3500 
L 2356 3053 
L 1172 3053 
L 1172 1153 
Q 1172 725 1289 603 
Q 1406 481 1766 481 
L 2356 481 
L 2356 0 
L 1766 0 
Q 1100 0 847 248 
Q 594 497 594 1153 
L 594 3053 
L 172 3053 
L 172 3500 
L 594 3500 
L 594 4494 
L 1172 4494 
z
" id="DejaVuSans-74" transform="scale(0.015625)"/>
      <path d="M 1259 4147 
L 1259 2394 
L 2053 2394 
Q 2494 2394 2734 2622 
Q 2975 2850 2975 3272 
Q 2975 3691 2734 3919 
Q 2494 4147 2053 4147 
L 1259 4147 
z
M 628 4666 
L 2053 4666 
Q 2838 4666 3239 4311 
Q 3641 3956 3641 3272 
Q 3641 2581 3239 2228 
Q 2838 1875 2053 1875 
L 1259 1875 
L 1259 0 
L 628 0 
L 628 4666 
z
" id="DejaVuSans-50" transform="scale(0.015625)"/>
      <path d="M 2906 1791 
Q 2906 2416 2648 2759 
Q 2391 3103 1925 3103 
Q 1463 3103 1205 2759 
Q 947 2416 947 1791 
Q 947 1169 1205 825 
Q 1463 481 1925 481 
Q 2391 481 2648 825 
Q 2906 1169 2906 1791 
z
M 3481 434 
Q 3481 -459 3084 -895 
Q 2688 -1331 1869 -1331 
Q 1566 -1331 1297 -1286 
Q 1028 -1241 775 -1147 
L 775 -588 
Q 1028 -725 1275 -790 
Q 1522 -856 1778 -856 
Q 2344 -856 2625 -561 
Q 2906 -266 2906 331 
L 2906 616 
Q 2728 306 2450 153 
Q 2172 0 1784 0 
Q 1141 0 747 490 
Q 353 981 353 1791 
Q 353 2603 747 3093 
Q 1141 3584 1784 3584 
Q 2172 3584 2450 3431 
Q 2728 3278 2906 2969 
L 2906 3500 
L 3481 3500 
L 3481 434 
z
" id="DejaVuSans-67" transform="scale(0.015625)"/>
      <path d="M 2194 1759 
Q 1497 1759 1228 1600 
Q 959 1441 959 1056 
Q 959 750 1161 570 
Q 1363 391 1709 391 
Q 2188 391 2477 730 
Q 2766 1069 2766 1631 
L 2766 1759 
L 2194 1759 
z
M 3341 1997 
L 3341 0 
L 2766 0 
L 2766 531 
Q 2569 213 2275 61 
Q 1981 -91 1556 -91 
Q 1019 -91 701 211 
Q 384 513 384 1019 
Q 384 1609 779 1909 
Q 1175 2209 1959 2209 
L 2766 2209 
L 2766 2266 
Q 2766 2663 2505 2880 
Q 2244 3097 1772 3097 
Q 1472 3097 1187 3025 
Q 903 2953 641 2809 
L 641 3341 
Q 956 3463 1253 3523 
Q 1550 3584 1831 3584 
Q 2591 3584 2966 3190 
Q 3341 2797 3341 1997 
z
" id="DejaVuSans-61" transform="scale(0.015625)"/>
     </defs>
     <use xlink:href="#DejaVuSans-46"/>
     <use x="50.269531" xlink:href="#DejaVuSans-72"/>
     <use x="89.132812" xlink:href="#DejaVuSans-6f"/>
     <use x="150.314453" xlink:href="#DejaVuSans-6e"/>
     <use x="213.693359" xlink:href="#DejaVuSans-74"/>
     <use x="252.902344" xlink:href="#DejaVuSans-20"/>
     <use x="284.689453" xlink:href="#DejaVuSans-50"/>
     <use x="343.242188" xlink:href="#DejaVuSans-72"/>
     <use x="382.105469" xlink:href="#DejaVuSans-6f"/>
     <use x="443.287109" xlink:href="#DejaVuSans-70"/>
     <use x="506.763672" xlink:href="#DejaVuSans-6f"/>
     <use x="567.945312" xlink:href="#DejaVuSans-67"/>
     <use x="631.421875" xlink:href="#DejaVuSans-61"/>
     <use x="692.701172" xlink:href="#DejaVuSans-74"/>
     <use x="731.910156" xlink:href="#DejaVuSans-69"/>
     <use x="759.693359" xlink:href="#DejaVuSans-6f"/>
     <use x="820.875" xlink:href="#DejaVuSans-6e"/>
     <use x="884.253906" xlink:href="#DejaVuSans-20"/>
     <use x="916.041016" xlink:href="#DejaVuSans-53"/>
     <use x="979.517578" xlink:href="#DejaVuSans-70"/>
     <use x="1042.994141" xlink:href="#DejaVuSans-65"/>
     <use x="1104.517578" xlink:href="#DejaVuSans-65"/>
     <use x="1166.041016" xlink:href="#DejaVuSans-64"/>
    </g>
   </g>
   <g id="legend_1">
    <g id="patch_7">
     <path d="M 325.967812 111.175687 
L 508.6 111.175687 
Q 511.4 111.175687 511.4 108.375687 
L 511.4 53 
Q 511.4 50.2 508.6 50.2 
L 325.967812 50.2 
Q 323.167812 50.2 323.167812 53 
L 323.167812 108.375687 
Q 323.167812 111.175687 325.967812 111.175687 
z
" style="fill:#ffffff;opacity:0.8;stroke:#cccccc;stroke-linejoin:miter;"/>
    </g>
    <g id="line2d_16">
     <path d="M 328.767812 61.537812 
L 356.767812 61.537812 
" style="fill:none;stroke:#ff0000;stroke-linecap:square;stroke-width:2;"/>
    </g>
    <g id="line2d_17"/>
    <g id="text_17">
     <!-- Front speed -->
     <g transform="translate(367.967812 66.437812)scale(0.14 -0.14)">
      <use xlink:href="#DejaVuSans-46"/>
      <use x="50.269531" xlink:href="#DejaVuSans-72"/>
      <use x="89.132812" xlink:href="#DejaVuSans-6f"/>
      <use x="150.314453" xlink:href="#DejaVuSans-6e"/>
      <use x="213.693359" xlink:href="#DejaVuSans-74"/>
      <use x="252.902344" xlink:href="#DejaVuSans-20"/>
      <use x="284.689453" xlink:href="#DejaVuSans-73"/>
      <use x="336.789062" xlink:href="#DejaVuSans-70"/>
      <use x="400.265625" xlink:href="#DejaVuSans-65"/>
      <use x="461.789062" xlink:href="#DejaVuSans-65"/>
      <use x="523.3125" xlink:href="#DejaVuSans-64"/>
     </g>
    </g>
    <g id="line2d_18">
     <path d="M 328.767812 91.381437 
L 356.767812 91.381437 
" style="fill:none;stroke:#000000;stroke-dasharray:5.55,2.4;stroke-dashoffset:0;stroke-width:1.5;"/>
    </g>
    <g id="line2d_19"/>
    <g id="text_18">
     <!-- Steady state -->
     <g transform="translate(367.967812 86.987187)scale(0.14 -0.14)">
      <defs>
       <path d="M 2059 -325 
Q 1816 -950 1584 -1140 
Q 1353 -1331 966 -1331 
L 506 -1331 
L 506 -850 
L 844 -850 
Q 1081 -850 1212 -737 
Q 1344 -625 1503 -206 
L 1606 56 
L 191 3500 
L 800 3500 
L 1894 763 
L 2988 3500 
L 3597 3500 
L 2059 -325 
z
" id="DejaVuSans-79" transform="scale(0.015625)"/>
      </defs>
      <use xlink:href="#DejaVuSans-53"/>
      <use x="63.476562" xlink:href="#DejaVuSans-74"/>
      <use x="102.685547" xlink:href="#DejaVuSans-65"/>
      <use x="164.208984" xlink:href="#DejaVuSans-61"/>
      <use x="225.488281" xlink:href="#DejaVuSans-64"/>
      <use x="288.964844" xlink:href="#DejaVuSans-79"/>
      <use x="348.144531" xlink:href="#DejaVuSans-20"/>
      <use x="379.931641" xlink:href="#DejaVuSans-73"/>
      <use x="432.03125" xlink:href="#DejaVuSans-74"/>
      <use x="471.240234" xlink:href="#DejaVuSans-61"/>
      <use x="532.519531" xlink:href="#DejaVuSans-74"/>
      <use x="571.728516" xlink:href="#DejaVuSans-65"/>
     </g>
     <!-- speed = 1.04 mm/s -->
     <g transform="translate(367.967812 102.664125)scale(0.14 -0.14)">
      <defs>
       <path d="M 678 2906 
L 4684 2906 
L 4684 2381 
L 678 2381 
L 678 2906 
z
M 678 1631 
L 4684 1631 
L 4684 1100 
L 678 1100 
L 678 1631 
z
" id="DejaVuSans-3d" transform="scale(0.015625)"/>
       <path d="M 2419 4116 
L 825 1625 
L 2419 1625 
L 2419 4116 
z
M 2253 4666 
L 3047 4666 
L 3047 1625 
L 3713 1625 
L 3713 1100 
L 3047 1100 
L 3047 0 
L 2419 0 
L 2419 1100 
L 313 1100 
L 313 1709 
L 2253 4666 
z
" id="DejaVuSans-34" transform="scale(0.015625)"/>
      </defs>
      <use xlink:href="#DejaVuSans-73"/>
      <use x="52.099609" xlink:href="#DejaVuSans-70"/>
      <use x="115.576172" xlink:href="#DejaVuSans-65"/>
      <use x="177.099609" xlink:href="#DejaVuSans-65"/>
      <use x="238.623047" xlink:href="#DejaVuSans-64"/>
      <use x="302.099609" xlink:href="#DejaVuSans-20"/>
      <use x="333.886719" xlink:href="#DejaVuSans-3d"/>
      <use x="417.675781" xlink:href="#DejaVuSans-20"/>
      <use x="449.462891" xlink:href="#DejaVuSans-31"/>
      <use x="513.085938" xlink:href="#DejaVuSans-2e"/>
      <use x="544.873047" xlink:href="#DejaVuSans-30"/>
      <use x="608.496094" xlink:href="#DejaVuSans-34"/>
      <use x="672.119141" xlink:href="#DejaVuSans-20"/>
      <use x="703.90625" xlink:href="#DejaVuSans-6d"/>
      <use x="801.318359" xlink:href="#DejaVuSans-6d"/>
      <use x="898.730469" xlink:href="#DejaVuSans-2f"/>
      <use x="932.421875" xlink:href="#DejaVuSans-73"/>
     </g>
    </g>
   </g>
  </g>
 </g>
 <defs>
  <clipPath id="pec1b99081b">
   <rect height="277.2" width="446.4" x="72" y="43.2"/>
  </clipPath>
 </defs>
</svg>
