<?xml version="1.0" encoding="utf-8" standalone="no"?>
<!DOCTYPE svg PUBLIC "-//W3C//DTD SVG 1.1//EN"
  "http://www.w3.org/Graphics/SVG/1.1/DTD/svg11.dtd">
<svg height="360pt" version="1.1" viewBox="0 0 576 360" width="576pt" xmlns="http://www.w3.org/2000/svg" xmlns:xlink="http://www.w3.org/1999/xlink">
 <metadata>
  <rdf:RDF xmlns:cc="http://creativecommons.org/ns#" xmlns:dc="http://purl.org/dc/elements/1.1/" xmlns:rdf="http://www.w3.org/1999/02/22-rdf-syntax-ns#">
   <cc:Work>
    <dc:type rdf:resource="http://purl.org/dc/dcmitype/StillImage"/>
    <dc:date>2022-06-30T14:37:30.106831</dc:date>
    <dc:format>image/svg+xml</dc:format>
    <dc:creator>
     <cc:Agent>
      <dc:title>Matplotlib v3.4.3, https://matplotlib.org/</dc:title>
     </cc:Agent>
    </dc:creator>
   </cc:Work>
  </rdf:RDF>
 </metadata>
 <defs>
  <style type="text/css">*{stroke-linecap:butt;stroke-linejoin:round;}</style>
 </defs>
 <g id="figure_1">
  <g id="patch_1">
   <path d="M 0 360 
L 576 360 
L 576 0 
L 0 0 
z
" style="fill:#ffffff;"/>
  </g>
  <g id="axes_1">
   <g id="patch_2">
    <path d="M 72 320.4 
L 518.4 320.4 
L 518.4 43.2 
L 72 43.2 
z
" style="fill:#ffffff;"/>
   </g>
   <g id="PolyCollection_1">
    <defs>
     <path d="M 72 -155.833639 
L 72 -160.896414 
L 72.751515 -160.896414 
L 73.50303 -160.896414 
L 74.254545 -160.896414 
L 75.006061 -160.896414 
L 75.757576 -160.896414 
L 76.509091 -160.896414 
L 77.260606 -160.896414 
L 78.012121 -160.896414 
L 78.763636 -160.896414 
L 79.515152 -160.896414 
L 80.266667 -160.896414 
L 81.018182 -160.896414 
L 81.769697 -160.896414 
L 82.521212 -160.896414 
L 83.272727 -160.896414 
L 84.024242 -160.896414 
L 84.775758 -160.896414 
L 85.527273 -160.896414 
L 86.278788 -160.896414 
L 87.030303 -160.896414 
L 87.781818 -160.896414 
L 88.533333 -160.896414 
L 89.284848 -160.896414 
L 90.036364 -160.896414 
L 90.787879 -160.896414 
L 91.539394 -160.896414 
L 92.290909 -160.896414 
L 93.042424 -160.896414 
L 93.793939 -160.896414 
L 94.545455 -160.896414 
L 95.29697 -160.896414 
L 96.048485 -160.896414 
L 96.8 -160.896414 
L 97.551515 -160.896414 
L 98.30303 -160.896414 
L 99.054545 -160.896414 
L 99.806061 -160.896414 
L 100.557576 -160.896414 
L 101.309091 -160.896414 
L 102.060606 -160.896414 
L 102.812121 -160.896414 
L 103.563636 -160.896414 
L 104.315152 -160.896414 
L 105.066667 -160.896414 
L 105.818182 -160.896414 
L 106.569697 -160.896414 
L 107.321212 -160.896414 
L 108.072727 -160.896414 
L 108.824242 -160.896414 
L 109.575758 -160.896414 
L 110.327273 -160.896414 
L 111.078788 -160.896414 
L 111.830303 -160.896414 
L 112.581818 -160.896414 
L 113.333333 -160.896414 
L 114.084848 -160.896414 
L 114.836364 -160.896414 
L 115.587879 -160.896414 
L 116.339394 -160.896414 
L 117.090909 -160.896414 
L 117.842424 -160.896414 
L 118.593939 -160.896414 
L 119.345455 -160.896414 
L 120.09697 -160.896414 
L 120.848485 -160.896414 
L 121.6 -160.896414 
L 122.351515 -160.896414 
L 123.10303 -160.896414 
L 123.854545 -160.896414 
L 124.606061 -160.896414 
L 125.357576 -160.896414 
L 126.109091 -160.896414 
L 126.860606 -160.896414 
L 127.612121 -160.896414 
L 128.363636 -160.896414 
L 129.115152 -160.896414 
L 129.866667 -160.896414 
L 130.618182 -160.896414 
L 131.369697 -160.896414 
L 132.121212 -160.896414 
L 132.872727 -160.896414 
L 133.624242 -160.896414 
L 134.375758 -160.896414 
L 135.127273 -160.896414 
L 135.878788 -160.896414 
L 136.630303 -160.896414 
L 137.381818 -160.896414 
L 138.133333 -160.896414 
L 138.884848 -160.896414 
L 139.636364 -160.896414 
L 140.387879 -160.896414 
L 141.139394 -160.896414 
L 141.890909 -160.896414 
L 142.642424 -160.896414 
L 143.393939 -160.896414 
L 144.145455 -160.896414 
L 144.89697 -160.896414 
L 145.648485 -160.896414 
L 146.4 -160.896414 
L 147.151515 -160.896414 
L 147.90303 -160.896414 
L 148.654545 -160.896414 
L 149.406061 -160.896414 
L 150.157576 -160.896414 
L 150.909091 -160.896414 
L 151.660606 -160.896414 
L 152.412121 -160.896414 
L 153.163636 -160.896414 
L 153.915152 -160.896414 
L 154.666667 -160.896414 
L 155.418182 -160.896414 
L 156.169697 -160.896414 
L 156.921212 -160.896414 
L 157.672727 -160.896414 
L 158.424242 -160.896414 
L 159.175758 -160.896414 
L 159.927273 -160.896414 
L 160.678788 -160.896414 
L 161.430303 -160.896414 
L 162.181818 -160.896414 
L 162.933333 -160.896414 
L 163.684848 -160.896414 
L 164.436364 -160.896414 
L 165.187879 -160.896414 
L 165.939394 -160.896414 
L 166.690909 -160.896414 
L 167.442424 -160.896414 
L 168.193939 -160.896414 
L 168.945455 -160.896414 
L 169.69697 -160.896414 
L 170.448485 -160.896414 
L 171.2 -160.896414 
L 171.951515 -160.896414 
L 172.70303 -160.896414 
L 173.454545 -160.896414 
L 174.206061 -160.896414 
L 174.957576 -160.896414 
L 175.709091 -160.896414 
L 176.460606 -160.896414 
L 177.212121 -160.896414 
L 177.963636 -160.896414 
L 178.715152 -160.896414 
L 179.466667 -160.896414 
L 180.218182 -160.896414 
L 180.969697 -160.896414 
L 181.721212 -160.896414 
L 182.472727 -160.896414 
L 183.224242 -160.896414 
L 183.975758 -160.896414 
L 184.727273 -160.896414 
L 185.478788 -160.896414 
L 186.230303 -160.896414 
L 186.981818 -160.896414 
L 187.733333 -160.896414 
L 188.484848 -160.896414 
L 189.236364 -160.896414 
L 189.987879 -160.896414 
L 190.739394 -160.896414 
L 191.490909 -160.896414 
L 192.242424 -160.896414 
L 192.993939 -160.896414 
L 193.745455 -160.896414 
L 194.49697 -160.896414 
L 195.248485 -160.896414 
L 196 -160.896414 
L 196.751515 -160.896414 
L 197.50303 -160.896414 
L 198.254545 -160.896414 
L 199.006061 -160.896414 
L 199.757576 -160.896414 
L 200.509091 -160.896414 
L 201.260606 -160.896414 
L 202.012121 -160.896414 
L 202.763636 -160.896414 
L 203.515152 -160.896414 
L 204.266667 -160.896414 
L 205.018182 -160.896414 
L 205.769697 -160.896414 
L 206.521212 -160.896414 
L 207.272727 -160.896414 
L 208.024242 -160.896414 
L 208.775758 -160.896414 
L 209.527273 -160.896414 
L 210.278788 -160.896414 
L 211.030303 -160.896414 
L 211.781818 -160.896414 
L 212.533333 -160.896414 
L 213.284848 -160.896414 
L 214.036364 -160.896414 
L 214.787879 -160.896414 
L 215.539394 -160.896414 
L 216.290909 -160.896414 
L 217.042424 -160.896414 
L 217.793939 -160.896414 
L 218.545455 -160.896414 
L 219.29697 -160.896414 
L 220.048485 -160.896414 
L 220.8 -160.896414 
L 221.551515 -160.896414 
L 222.30303 -160.896414 
L 223.054545 -160.896414 
L 223.806061 -160.896414 
L 224.557576 -160.896414 
L 225.309091 -160.896414 
L 226.060606 -160.896414 
L 226.812121 -160.896414 
L 227.563636 -160.896414 
L 228.315152 -160.896414 
L 229.066667 -160.896414 
L 229.818182 -160.896414 
L 230.569697 -160.896414 
L 231.321212 -160.896414 
L 232.072727 -160.896414 
L 232.824242 -160.896414 
L 233.575758 -160.896414 
L 234.327273 -160.896414 
L 235.078788 -160.896414 
L 235.830303 -160.896414 
L 236.581818 -160.896414 
L 237.333333 -160.896414 
L 238.084848 -160.896414 
L 238.836364 -160.896414 
L 239.587879 -160.896414 
L 240.339394 -160.896414 
L 241.090909 -160.896414 
L 241.842424 -160.896414 
L 242.593939 -160.896414 
L 243.345455 -160.896414 
L 244.09697 -160.896414 
L 244.848485 -160.896414 
L 245.6 -160.896414 
L 246.351515 -160.896414 
L 247.10303 -160.896414 
L 247.854545 -160.896414 
L 248.606061 -160.896414 
L 249.357576 -160.896414 
L 250.109091 -160.896414 
L 250.860606 -160.896414 
L 251.612121 -160.896414 
L 252.363636 -160.896414 
L 253.115152 -160.896414 
L 253.866667 -160.896414 
L 254.618182 -160.896414 
L 255.369697 -160.896414 
L 256.121212 -160.896414 
L 256.872727 -160.896414 
L 257.624242 -160.896414 
L 258.375758 -160.896414 
L 259.127273 -160.896414 
L 259.878788 -160.896414 
L 260.630303 -160.896414 
L 261.381818 -160.896414 
L 262.133333 -160.896414 
L 262.884848 -160.896414 
L 263.636364 -160.896414 
L 264.387879 -160.896414 
L 265.139394 -160.896414 
L 265.890909 -160.896414 
L 266.642424 -160.896414 
L 267.393939 -160.896414 
L 268.145455 -160.896414 
L 268.89697 -160.896414 
L 269.648485 -160.896414 
L 270.4 -160.896414 
L 271.151515 -160.896414 
L 271.90303 -160.896414 
L 272.654545 -160.896414 
L 273.406061 -160.896414 
L 274.157576 -160.896414 
L 274.909091 -160.896414 
L 275.660606 -160.896414 
L 276.412121 -160.896414 
L 277.163636 -160.896414 
L 277.915152 -160.896414 
L 278.666667 -160.896414 
L 279.418182 -160.896414 
L 280.169697 -160.896414 
L 280.921212 -160.896414 
L 281.672727 -160.896414 
L 282.424242 -160.896414 
L 283.175758 -160.896414 
L 283.927273 -160.896414 
L 284.678788 -160.896414 
L 285.430303 -160.896414 
L 286.181818 -160.896414 
L 286.933333 -160.896414 
L 287.684848 -160.896414 
L 288.436364 -160.896414 
L 289.187879 -160.896414 
L 289.939394 -160.896414 
L 290.690909 -160.896414 
L 291.442424 -160.896414 
L 292.193939 -160.896414 
L 292.945455 -160.896414 
L 293.69697 -160.896414 
L 294.448485 -160.896414 
L 295.2 -160.896414 
L 295.951515 -160.896414 
L 296.70303 -160.896414 
L 297.454545 -160.896414 
L 298.206061 -160.896414 
L 298.957576 -160.896414 
L 299.709091 -160.896414 
L 300.460606 -160.896414 
L 301.212121 -160.896414 
L 301.963636 -160.896414 
L 302.715152 -160.896414 
L 303.466667 -160.896414 
L 304.218182 -160.896414 
L 304.969697 -160.896414 
L 305.721212 -160.896414 
L 306.472727 -160.896414 
L 307.224242 -160.896414 
L 307.975758 -160.896414 
L 308.727273 -160.896414 
L 309.478788 -160.896414 
L 310.230303 -160.896414 
L 310.981818 -160.896414 
L 311.733333 -160.896414 
L 312.484848 -160.896414 
L 313.236364 -160.896414 
L 313.987879 -160.896414 
L 314.739394 -160.896414 
L 315.490909 -160.896414 
L 316.242424 -160.896414 
L 316.993939 -160.896414 
L 317.745455 -160.896414 
L 318.49697 -160.896414 
L 319.248485 -160.896414 
L 320 -160.896414 
L 320.751515 -160.896414 
L 321.50303 -160.896414 
L 322.254545 -160.896414 
L 323.006061 -160.896414 
L 323.757576 -160.896414 
L 324.509091 -160.896414 
L 325.260606 -160.896414 
L 326.012121 -160.896414 
L 326.763636 -160.896414 
L 327.515152 -160.896414 
L 328.266667 -160.896414 
L 329.018182 -160.896414 
L 329.769697 -160.896414 
L 330.521212 -160.896414 
L 331.272727 -160.896414 
L 332.024242 -160.896414 
L 332.775758 -160.896414 
L 333.527273 -160.896414 
L 334.278788 -160.896414 
L 335.030303 -160.896414 
L 335.781818 -160.896414 
L 336.533333 -160.896414 
L 337.284848 -160.896414 
L 338.036364 -160.896414 
L 338.787879 -160.896414 
L 339.539394 -160.896414 
L 340.290909 -160.896414 
L 341.042424 -160.896414 
L 341.793939 -160.896414 
L 342.545455 -160.896414 
L 343.29697 -160.896414 
L 344.048485 -160.896414 
L 344.8 -160.896414 
L 345.551515 -160.896414 
L 346.30303 -160.896414 
L 347.054545 -160.896414 
L 347.806061 -160.896414 
L 348.557576 -160.896414 
L 349.309091 -160.896414 
L 350.060606 -160.896414 
L 350.812121 -160.896414 
L 351.563636 -160.896414 
L 352.315152 -160.896414 
L 353.066667 -160.896414 
L 353.818182 -160.896414 
L 354.569697 -160.896414 
L 355.321212 -160.896414 
L 356.072727 -160.896414 
L 356.824242 -160.896414 
L 357.575758 -160.896414 
L 358.327273 -160.896414 
L 359.078788 -160.896414 
L 359.830303 -160.896414 
L 360.581818 -160.896414 
L 361.333333 -160.896414 
L 362.084848 -160.896414 
L 362.836364 -160.896414 
L 363.587879 -160.896414 
L 364.339394 -160.896414 
L 365.090909 -160.896414 
L 365.842424 -160.896414 
L 366.593939 -160.896414 
L 367.345455 -160.896414 
L 368.09697 -160.896414 
L 368.848485 -160.896414 
L 369.6 -160.896414 
L 370.351515 -160.896414 
L 371.10303 -160.896414 
L 371.854545 -160.896414 
L 372.606061 -160.896414 
L 373.357576 -160.896414 
L 374.109091 -160.896414 
L 374.860606 -160.896414 
L 375.612121 -160.896414 
L 376.363636 -160.896414 
L 377.115152 -160.896414 
L 377.866667 -160.896414 
L 378.618182 -160.896414 
L 379.369697 -160.896414 
L 380.121212 -160.896414 
L 380.872727 -160.896414 
L 381.624242 -160.896414 
L 382.375758 -160.896414 
L 383.127273 -160.896414 
L 383.878788 -160.896414 
L 384.630303 -160.896414 
L 385.381818 -160.896414 
L 386.133333 -160.896414 
L 386.884848 -160.896414 
L 387.636364 -160.896414 
L 388.387879 -160.896414 
L 389.139394 -160.896414 
L 389.890909 -160.896414 
L 390.642424 -160.896414 
L 391.393939 -160.896414 
L 392.145455 -160.896414 
L 392.89697 -160.896414 
L 393.648485 -160.896414 
L 394.4 -160.896414 
L 395.151515 -160.896414 
L 395.90303 -160.896414 
L 396.654545 -160.896414 
L 397.406061 -160.896414 
L 398.157576 -160.896414 
L 398.909091 -160.896414 
L 399.660606 -160.896414 
L 400.412121 -160.896414 
L 401.163636 -160.896414 
L 401.915152 -160.896414 
L 402.666667 -160.896414 
L 403.418182 -160.896414 
L 404.169697 -160.896414 
L 404.921212 -160.896414 
L 405.672727 -160.896414 
L 406.424242 -160.896414 
L 407.175758 -160.896414 
L 407.927273 -160.896414 
L 408.678788 -160.896414 
L 409.430303 -160.896414 
L 410.181818 -160.896414 
L 410.933333 -160.896414 
L 411.684848 -160.896414 
L 412.436364 -160.896414 
L 413.187879 -160.896414 
L 413.939394 -160.896414 
L 414.690909 -160.896414 
L 415.442424 -160.896414 
L 416.193939 -160.896414 
L 416.945455 -160.896414 
L 417.69697 -160.896414 
L 418.448485 -160.896414 
L 419.2 -160.896414 
L 419.951515 -160.896414 
L 420.70303 -160.896414 
L 421.454545 -160.896414 
L 422.206061 -160.896414 
L 422.957576 -160.896414 
L 423.709091 -160.896414 
L 424.460606 -160.896414 
L 425.212121 -160.896414 
L 425.963636 -160.896414 
L 426.715152 -160.896414 
L 427.466667 -160.896414 
L 428.218182 -160.896414 
L 428.969697 -160.896414 
L 429.721212 -160.896414 
L 430.472727 -160.896414 
L 431.224242 -160.896414 
L 431.975758 -160.896414 
L 432.727273 -160.896414 
L 433.478788 -160.896414 
L 434.230303 -160.896414 
L 434.981818 -160.896414 
L 435.733333 -160.896414 
L 436.484848 -160.896414 
L 437.236364 -160.896414 
L 437.987879 -160.896414 
L 438.739394 -160.896414 
L 439.490909 -160.896414 
L 440.242424 -160.896414 
L 440.993939 -160.896414 
L 441.745455 -160.896414 
L 442.49697 -160.896414 
L 443.248485 -160.896414 
L 444 -160.896414 
L 444.751515 -160.896414 
L 445.50303 -160.896414 
L 446.254545 -160.896414 
L 447.006061 -160.896414 
L 447.757576 -160.896414 
L 448.509091 -160.896414 
L 449.260606 -160.896414 
L 450.012121 -160.896414 
L 450.763636 -160.896414 
L 451.515152 -160.896414 
L 452.266667 -160.896414 
L 453.018182 -160.896414 
L 453.769697 -160.896414 
L 454.521212 -160.896414 
L 455.272727 -160.896414 
L 456.024242 -160.896414 
L 456.775758 -160.896414 
L 457.527273 -160.896414 
L 458.278788 -160.896414 
L 459.030303 -160.896414 
L 459.781818 -160.896414 
L 460.533333 -160.896414 
L 461.284848 -160.896414 
L 462.036364 -160.896414 
L 462.787879 -160.896414 
L 463.539394 -160.896414 
L 464.290909 -160.896414 
L 465.042424 -160.896414 
L 465.793939 -160.896414 
L 466.545455 -160.896414 
L 467.29697 -160.896414 
L 468.048485 -160.896414 
L 468.8 -160.896414 
L 469.551515 -160.896414 
L 470.30303 -160.896414 
L 471.054545 -160.896414 
L 471.806061 -160.896414 
L 472.557576 -160.896414 
L 473.309091 -160.896414 
L 474.060606 -160.896414 
L 474.812121 -160.896414 
L 475.563636 -160.896414 
L 476.315152 -160.896414 
L 477.066667 -160.896414 
L 477.818182 -160.896414 
L 478.569697 -160.896414 
L 479.321212 -160.896414 
L 480.072727 -160.896414 
L 480.824242 -160.896414 
L 481.575758 -160.896414 
L 482.327273 -160.896414 
L 483.078788 -160.896414 
L 483.830303 -160.896414 
L 484.581818 -160.896414 
L 485.333333 -160.896414 
L 486.084848 -160.896414 
L 486.836364 -160.896414 
L 487.587879 -160.896414 
L 488.339394 -160.896414 
L 489.090909 -160.896414 
L 489.842424 -160.896414 
L 490.593939 -160.896414 
L 491.345455 -160.896414 
L 492.09697 -160.896414 
L 492.848485 -160.896414 
L 493.6 -160.896414 
L 494.351515 -160.896414 
L 495.10303 -160.896414 
L 495.854545 -160.896414 
L 496.606061 -160.896414 
L 497.357576 -160.896414 
L 498.109091 -160.896414 
L 498.860606 -160.896414 
L 499.612121 -160.896414 
L 500.363636 -160.896414 
L 501.115152 -160.896414 
L 501.866667 -160.896414 
L 502.618182 -160.896414 
L 503.369697 -160.896414 
L 504.121212 -160.896414 
L 504.872727 -160.896414 
L 505.624242 -160.896414 
L 506.375758 -160.896414 
L 507.127273 -160.896414 
L 507.878788 -160.896414 
L 508.630303 -160.896414 
L 509.381818 -160.896414 
L 510.133333 -160.896414 
L 510.884848 -160.896414 
L 511.636364 -160.896414 
L 512.387879 -160.896414 
L 513.139394 -160.896414 
L 513.890909 -160.896414 
L 514.642424 -160.896414 
L 515.393939 -160.896414 
L 516.145455 -160.896414 
L 516.89697 -160.896414 
L 517.648485 -160.896414 
L 518.4 -160.896414 
L 518.4 -155.833639 
L 518.4 -155.833639 
L 517.648485 -155.833639 
L 516.89697 -155.833639 
L 516.145455 -155.833639 
L 515.393939 -155.833639 
L 514.642424 -155.833639 
L 513.890909 -155.833639 
L 513.139394 -155.833639 
L 512.387879 -155.833639 
L 511.636364 -155.833639 
L 510.884848 -155.833639 
L 510.133333 -155.833639 
L 509.381818 -155.833639 
L 508.630303 -155.833639 
L 507.878788 -155.833639 
L 507.127273 -155.833639 
L 506.375758 -155.833639 
L 505.624242 -155.833639 
L 504.872727 -155.833639 
L 504.121212 -155.833639 
L 503.369697 -155.833639 
L 502.618182 -155.833639 
L 501.866667 -155.833639 
L 501.115152 -155.833639 
L 500.363636 -155.833639 
L 499.612121 -155.833639 
L 498.860606 -155.833639 
L 498.109091 -155.833639 
L 497.357576 -155.833639 
L 496.606061 -155.833639 
L 495.854545 -155.833639 
L 495.10303 -155.833639 
L 494.351515 -155.833639 
L 493.6 -155.833639 
L 492.848485 -155.833639 
L 492.09697 -155.833639 
L 491.345455 -155.833639 
L 490.593939 -155.833639 
L 489.842424 -155.833639 
L 489.090909 -155.833639 
L 488.339394 -155.833639 
L 487.587879 -155.833639 
L 486.836364 -155.833639 
L 486.084848 -155.833639 
L 485.333333 -155.833639 
L 484.581818 -155.833639 
L 483.830303 -155.833639 
L 483.078788 -155.833639 
L 482.327273 -155.833639 
L 481.575758 -155.833639 
L 480.824242 -155.833639 
L 480.072727 -155.833639 
L 479.321212 -155.833639 
L 478.569697 -155.833639 
L 477.818182 -155.833639 
L 477.066667 -155.833639 
L 476.315152 -155.833639 
L 475.563636 -155.833639 
L 474.812121 -155.833639 
L 474.060606 -155.833639 
L 473.309091 -155.833639 
L 472.557576 -155.833639 
L 471.806061 -155.833639 
L 471.054545 -155.833639 
L 470.30303 -155.833639 
L 469.551515 -155.833639 
L 468.8 -155.833639 
L 468.048485 -155.833639 
L 467.29697 -155.833639 
L 466.545455 -155.833639 
L 465.793939 -155.833639 
L 465.042424 -155.833639 
L 464.290909 -155.833639 
L 463.539394 -155.833639 
L 462.787879 -155.833639 
L 462.036364 -155.833639 
L 461.284848 -155.833639 
L 460.533333 -155.833639 
L 459.781818 -155.833639 
L 459.030303 -155.833639 
L 458.278788 -155.833639 
L 457.527273 -155.833639 
L 456.775758 -155.833639 
L 456.024242 -155.833639 
L 455.272727 -155.833639 
L 454.521212 -155.833639 
L 453.769697 -155.833639 
L 453.018182 -155.833639 
L 452.266667 -155.833639 
L 451.515152 -155.833639 
L 450.763636 -155.833639 
L 450.012121 -155.833639 
L 449.260606 -155.833639 
L 448.509091 -155.833639 
L 447.757576 -155.833639 
L 447.006061 -155.833639 
L 446.254545 -155.833639 
L 445.50303 -155.833639 
L 444.751515 -155.833639 
L 444 -155.833639 
L 443.248485 -155.833639 
L 442.49697 -155.833639 
L 441.745455 -155.833639 
L 440.993939 -155.833639 
L 440.242424 -155.833639 
L 439.490909 -155.833639 
L 438.739394 -155.833639 
L 437.987879 -155.833639 
L 437.236364 -155.833639 
L 436.484848 -155.833639 
L 435.733333 -155.833639 
L 434.981818 -155.833639 
L 434.230303 -155.833639 
L 433.478788 -155.833639 
L 432.727273 -155.833639 
L 431.975758 -155.833639 
L 431.224242 -155.833639 
L 430.472727 -155.833639 
L 429.721212 -155.833639 
L 428.969697 -155.833639 
L 428.218182 -155.833639 
L 427.466667 -155.833639 
L 426.715152 -155.833639 
L 425.963636 -155.833639 
L 425.212121 -155.833639 
L 424.460606 -155.833639 
L 423.709091 -155.833639 
L 422.957576 -155.833639 
L 422.206061 -155.833639 
L 421.454545 -155.833639 
L 420.70303 -155.833639 
L 419.951515 -155.833639 
L 419.2 -155.833639 
L 418.448485 -155.833639 
L 417.69697 -155.833639 
L 416.945455 -155.833639 
L 416.193939 -155.833639 
L 415.442424 -155.833639 
L 414.690909 -155.833639 
L 413.939394 -155.833639 
L 413.187879 -155.833639 
L 412.436364 -155.833639 
L 411.684848 -155.833639 
L 410.933333 -155.833639 
L 410.181818 -155.833639 
L 409.430303 -155.833639 
L 408.678788 -155.833639 
L 407.927273 -155.833639 
L 407.175758 -155.833639 
L 406.424242 -155.833639 
L 405.672727 -155.833639 
L 404.921212 -155.833639 
L 404.169697 -155.833639 
L 403.418182 -155.833639 
L 402.666667 -155.833639 
L 401.915152 -155.833639 
L 401.163636 -155.833639 
L 400.412121 -155.833639 
L 399.660606 -155.833639 
L 398.909091 -155.833639 
L 398.157576 -155.833639 
L 397.406061 -155.833639 
L 396.654545 -155.833639 
L 395.90303 -155.833639 
L 395.151515 -155.833639 
L 394.4 -155.833639 
L 393.648485 -155.833639 
L 392.89697 -155.833639 
L 392.145455 -155.833639 
L 391.393939 -155.833639 
L 390.642424 -155.833639 
L 389.890909 -155.833639 
L 389.139394 -155.833639 
L 388.387879 -155.833639 
L 387.636364 -155.833639 
L 386.884848 -155.833639 
L 386.133333 -155.833639 
L 385.381818 -155.833639 
L 384.630303 -155.833639 
L 383.878788 -155.833639 
L 383.127273 -155.833639 
L 382.375758 -155.833639 
L 381.624242 -155.833639 
L 380.872727 -155.833639 
L 380.121212 -155.833639 
L 379.369697 -155.833639 
L 378.618182 -155.833639 
L 377.866667 -155.833639 
L 377.115152 -155.833639 
L 376.363636 -155.833639 
L 375.612121 -155.833639 
L 374.860606 -155.833639 
L 374.109091 -155.833639 
L 373.357576 -155.833639 
L 372.606061 -155.833639 
L 371.854545 -155.833639 
L 371.10303 -155.833639 
L 370.351515 -155.833639 
L 369.6 -155.833639 
L 368.848485 -155.833639 
L 368.09697 -155.833639 
L 367.345455 -155.833639 
L 366.593939 -155.833639 
L 365.842424 -155.833639 
L 365.090909 -155.833639 
L 364.339394 -155.833639 
L 363.587879 -155.833639 
L 362.836364 -155.833639 
L 362.084848 -155.833639 
L 361.333333 -155.833639 
L 360.581818 -155.833639 
L 359.830303 -155.833639 
L 359.078788 -155.833639 
L 358.327273 -155.833639 
L 357.575758 -155.833639 
L 356.824242 -155.833639 
L 356.072727 -155.833639 
L 355.321212 -155.833639 
L 354.569697 -155.833639 
L 353.818182 -155.833639 
L 353.066667 -155.833639 
L 352.315152 -155.833639 
L 351.563636 -155.833639 
L 350.812121 -155.833639 
L 350.060606 -155.833639 
L 349.309091 -155.833639 
L 348.557576 -155.833639 
L 347.806061 -155.833639 
L 347.054545 -155.833639 
L 346.30303 -155.833639 
L 345.551515 -155.833639 
L 344.8 -155.833639 
L 344.048485 -155.833639 
L 343.29697 -155.833639 
L 342.545455 -155.833639 
L 341.793939 -155.833639 
L 341.042424 -155.833639 
L 340.290909 -155.833639 
L 339.539394 -155.833639 
L 338.787879 -155.833639 
L 338.036364 -155.833639 
L 337.284848 -155.833639 
L 336.533333 -155.833639 
L 335.781818 -155.833639 
L 335.030303 -155.833639 
L 334.278788 -155.833639 
L 333.527273 -155.833639 
L 332.775758 -155.833639 
L 332.024242 -155.833639 
L 331.272727 -155.833639 
L 330.521212 -155.833639 
L 329.769697 -155.833639 
L 329.018182 -155.833639 
L 328.266667 -155.833639 
L 327.515152 -155.833639 
L 326.763636 -155.833639 
L 326.012121 -155.833639 
L 325.260606 -155.833639 
L 324.509091 -155.833639 
L 323.757576 -155.833639 
L 323.006061 -155.833639 
L 322.254545 -155.833639 
L 321.50303 -155.833639 
L 320.751515 -155.833639 
L 320 -155.833639 
L 319.248485 -155.833639 
L 318.49697 -155.833639 
L 317.745455 -155.833639 
L 316.993939 -155.833639 
L 316.242424 -155.833639 
L 315.490909 -155.833639 
L 314.739394 -155.833639 
L 313.987879 -155.833639 
L 313.236364 -155.833639 
L 312.484848 -155.833639 
L 311.733333 -155.833639 
L 310.981818 -155.833639 
L 310.230303 -155.833639 
L 309.478788 -155.833639 
L 308.727273 -155.833639 
L 307.975758 -155.833639 
L 307.224242 -155.833639 
L 306.472727 -155.833639 
L 305.721212 -155.833639 
L 304.969697 -155.833639 
L 304.218182 -155.833639 
L 303.466667 -155.833639 
L 302.715152 -155.833639 
L 301.963636 -155.833639 
L 301.212121 -155.833639 
L 300.460606 -155.833639 
L 299.709091 -155.833639 
L 298.957576 -155.833639 
L 298.206061 -155.833639 
L 297.454545 -155.833639 
L 296.70303 -155.833639 
L 295.951515 -155.833639 
L 295.2 -155.833639 
L 294.448485 -155.833639 
L 293.69697 -155.833639 
L 292.945455 -155.833639 
L 292.193939 -155.833639 
L 291.442424 -155.833639 
L 290.690909 -155.833639 
L 289.939394 -155.833639 
L 289.187879 -155.833639 
L 288.436364 -155.833639 
L 287.684848 -155.833639 
L 286.933333 -155.833639 
L 286.181818 -155.833639 
L 285.430303 -155.833639 
L 284.678788 -155.833639 
L 283.927273 -155.833639 
L 283.175758 -155.833639 
L 282.424242 -155.833639 
L 281.672727 -155.833639 
L 280.921212 -155.833639 
L 280.169697 -155.833639 
L 279.418182 -155.833639 
L 278.666667 -155.833639 
L 277.915152 -155.833639 
L 277.163636 -155.833639 
L 276.412121 -155.833639 
L 275.660606 -155.833639 
L 274.909091 -155.833639 
L 274.157576 -155.833639 
L 273.406061 -155.833639 
L 272.654545 -155.833639 
L 271.90303 -155.833639 
L 271.151515 -155.833639 
L 270.4 -155.833639 
L 269.648485 -155.833639 
L 268.89697 -155.833639 
L 268.145455 -155.833639 
L 267.393939 -155.833639 
L 266.642424 -155.833639 
L 265.890909 -155.833639 
L 265.139394 -155.833639 
L 264.387879 -155.833639 
L 263.636364 -155.833639 
L 262.884848 -155.833639 
L 262.133333 -155.833639 
L 261.381818 -155.833639 
L 260.630303 -155.833639 
L 259.878788 -155.833639 
L 259.127273 -155.833639 
L 258.375758 -155.833639 
L 257.624242 -155.833639 
L 256.872727 -155.833639 
L 256.121212 -155.833639 
L 255.369697 -155.833639 
L 254.618182 -155.833639 
L 253.866667 -155.833639 
L 253.115152 -155.833639 
L 252.363636 -155.833639 
L 251.612121 -155.833639 
L 250.860606 -155.833639 
L 250.109091 -155.833639 
L 249.357576 -155.833639 
L 248.606061 -155.833639 
L 247.854545 -155.833639 
L 247.10303 -155.833639 
L 246.351515 -155.833639 
L 245.6 -155.833639 
L 244.848485 -155.833639 
L 244.09697 -155.833639 
L 243.345455 -155.833639 
L 242.593939 -155.833639 
L 241.842424 -155.833639 
L 241.090909 -155.833639 
L 240.339394 -155.833639 
L 239.587879 -155.833639 
L 238.836364 -155.833639 
L 238.084848 -155.833639 
L 237.333333 -155.833639 
L 236.581818 -155.833639 
L 235.830303 -155.833639 
L 235.078788 -155.833639 
L 234.327273 -155.833639 
L 233.575758 -155.833639 
L 232.824242 -155.833639 
L 232.072727 -155.833639 
L 231.321212 -155.833639 
L 230.569697 -155.833639 
L 229.818182 -155.833639 
L 229.066667 -155.833639 
L 228.315152 -155.833639 
L 227.563636 -155.833639 
L 226.812121 -155.833639 
L 226.060606 -155.833639 
L 225.309091 -155.833639 
L 224.557576 -155.833639 
L 223.806061 -155.833639 
L 223.054545 -155.833639 
L 222.30303 -155.833639 
L 221.551515 -155.833639 
L 220.8 -155.833639 
L 220.048485 -155.833639 
L 219.29697 -155.833639 
L 218.545455 -155.833639 
L 217.793939 -155.833639 
L 217.042424 -155.833639 
L 216.290909 -155.833639 
L 215.539394 -155.833639 
L 214.787879 -155.833639 
L 214.036364 -155.833639 
L 213.284848 -155.833639 
L 212.533333 -155.833639 
L 211.781818 -155.833639 
L 211.030303 -155.833639 
L 210.278788 -155.833639 
L 209.527273 -155.833639 
L 208.775758 -155.833639 
L 208.024242 -155.833639 
L 207.272727 -155.833639 
L 206.521212 -155.833639 
L 205.769697 -155.833639 
L 205.018182 -155.833639 
L 204.266667 -155.833639 
L 203.515152 -155.833639 
L 202.763636 -155.833639 
L 202.012121 -155.833639 
L 201.260606 -155.833639 
L 200.509091 -155.833639 
L 199.757576 -155.833639 
L 199.006061 -155.833639 
L 198.254545 -155.833639 
L 197.50303 -155.833639 
L 196.751515 -155.833639 
L 196 -155.833639 
L 195.248485 -155.833639 
L 194.49697 -155.833639 
L 193.745455 -155.833639 
L 192.993939 -155.833639 
L 192.242424 -155.833639 
L 191.490909 -155.833639 
L 190.739394 -155.833639 
L 189.987879 -155.833639 
L 189.236364 -155.833639 
L 188.484848 -155.833639 
L 187.733333 -155.833639 
L 186.981818 -155.833639 
L 186.230303 -155.833639 
L 185.478788 -155.833639 
L 184.727273 -155.833639 
L 183.975758 -155.833639 
L 183.224242 -155.833639 
L 182.472727 -155.833639 
L 181.721212 -155.833639 
L 180.969697 -155.833639 
L 180.218182 -155.833639 
L 179.466667 -155.833639 
L 178.715152 -155.833639 
L 177.963636 -155.833639 
L 177.212121 -155.833639 
L 176.460606 -155.833639 
L 175.709091 -155.833639 
L 174.957576 -155.833639 
L 174.206061 -155.833639 
L 173.454545 -155.833639 
L 172.70303 -155.833639 
L 171.951515 -155.833639 
L 171.2 -155.833639 
L 170.448485 -155.833639 
L 169.69697 -155.833639 
L 168.945455 -155.833639 
L 168.193939 -155.833639 
L 167.442424 -155.833639 
L 166.690909 -155.833639 
L 165.939394 -155.833639 
L 165.187879 -155.833639 
L 164.436364 -155.833639 
L 163.684848 -155.833639 
L 162.933333 -155.833639 
L 162.181818 -155.833639 
L 161.430303 -155.833639 
L 160.678788 -155.833639 
L 159.927273 -155.833639 
L 159.175758 -155.833639 
L 158.424242 -155.833639 
L 157.672727 -155.833639 
L 156.921212 -155.833639 
L 156.169697 -155.833639 
L 155.418182 -155.833639 
L 154.666667 -155.833639 
L 153.915152 -155.833639 
L 153.163636 -155.833639 
L 152.412121 -155.833639 
L 151.660606 -155.833639 
L 150.909091 -155.833639 
L 150.157576 -155.833639 
L 149.406061 -155.833639 
L 148.654545 -155.833639 
L 147.90303 -155.833639 
L 147.151515 -155.833639 
L 146.4 -155.833639 
L 145.648485 -155.833639 
L 144.89697 -155.833639 
L 144.145455 -155.833639 
L 143.393939 -155.833639 
L 142.642424 -155.833639 
L 141.890909 -155.833639 
L 141.139394 -155.833639 
L 140.387879 -155.833639 
L 139.636364 -155.833639 
L 138.884848 -155.833639 
L 138.133333 -155.833639 
L 137.381818 -155.833639 
L 136.630303 -155.833639 
L 135.878788 -155.833639 
L 135.127273 -155.833639 
L 134.375758 -155.833639 
L 133.624242 -155.833639 
L 132.872727 -155.833639 
L 132.121212 -155.833639 
L 131.369697 -155.833639 
L 130.618182 -155.833639 
L 129.866667 -155.833639 
L 129.115152 -155.833639 
L 128.363636 -155.833639 
L 127.612121 -155.833639 
L 126.860606 -155.833639 
L 126.109091 -155.833639 
L 125.357576 -155.833639 
L 124.606061 -155.833639 
L 123.854545 -155.833639 
L 123.10303 -155.833639 
L 122.351515 -155.833639 
L 121.6 -155.833639 
L 120.848485 -155.833639 
L 120.09697 -155.833639 
L 119.345455 -155.833639 
L 118.593939 -155.833639 
L 117.842424 -155.833639 
L 117.090909 -155.833639 
L 116.339394 -155.833639 
L 115.587879 -155.833639 
L 114.836364 -155.833639 
L 114.084848 -155.833639 
L 113.333333 -155.833639 
L 112.581818 -155.833639 
L 111.830303 -155.833639 
L 111.078788 -155.833639 
L 110.327273 -155.833639 
L 109.575758 -155.833639 
L 108.824242 -155.833639 
L 108.072727 -155.833639 
L 107.321212 -155.833639 
L 106.569697 -155.833639 
L 105.818182 -155.833639 
L 105.066667 -155.833639 
L 104.315152 -155.833639 
L 103.563636 -155.833639 
L 102.812121 -155.833639 
L 102.060606 -155.833639 
L 101.309091 -155.833639 
L 100.557576 -155.833639 
L 99.806061 -155.833639 
L 99.054545 -155.833639 
L 98.30303 -155.833639 
L 97.551515 -155.833639 
L 96.8 -155.833639 
L 96.048485 -155.833639 
L 95.29697 -155.833639 
L 94.545455 -155.833639 
L 93.793939 -155.833639 
L 93.042424 -155.833639 
L 92.290909 -155.833639 
L 91.539394 -155.833639 
L 90.787879 -155.833639 
L 90.036364 -155.833639 
L 89.284848 -155.833639 
L 88.533333 -155.833639 
L 87.781818 -155.833639 
L 87.030303 -155.833639 
L 86.278788 -155.833639 
L 85.527273 -155.833639 
L 84.775758 -155.833639 
L 84.024242 -155.833639 
L 83.272727 -155.833639 
L 82.521212 -155.833639 
L 81.769697 -155.833639 
L 81.018182 -155.833639 
L 80.266667 -155.833639 
L 79.515152 -155.833639 
L 78.763636 -155.833639 
L 78.012121 -155.833639 
L 77.260606 -155.833639 
L 76.509091 -155.833639 
L 75.757576 -155.833639 
L 75.006061 -155.833639 
L 74.254545 -155.833639 
L 73.50303 -155.833639 
L 72.751515 -155.833639 
L 72 -155.833639 
z
" id="m68dbcb926b"/>
    </defs>
    <g clip-path="url(#pca32ea6768)">
     <use style="fill-opacity:0.15;" x="0" xlink:href="#m68dbcb926b" y="360"/>
    </g>
   </g>
   <g id="matplotlib.axis_1">
    <g id="xtick_1">
     <g id="line2d_1">
      <defs>
       <path d="M 0 0 
L 0 3.5 
" id="maa1f1fa977" style="stroke:#000000;stroke-width:0.8;"/>
      </defs>
      <g>
       <use style="stroke:#000000;stroke-width:0.8;" x="72" xlink:href="#maa1f1fa977" y="320.4"/>
      </g>
     </g>
     <g id="text_1">
      <!-- 0.0 -->
      <g transform="translate(60.867812 338.037813)scale(0.14 -0.14)">
       <defs>
        <path d="M 2034 4250 
Q 1547 4250 1301 3770 
Q 1056 3291 1056 2328 
Q 1056 1369 1301 889 
Q 1547 409 2034 409 
Q 2525 409 2770 889 
Q 3016 1369 3016 2328 
Q 3016 3291 2770 3770 
Q 2525 4250 2034 4250 
z
M 2034 4750 
Q 2819 4750 3233 4129 
Q 3647 3509 3647 2328 
Q 3647 1150 3233 529 
Q 2819 -91 2034 -91 
Q 1250 -91 836 529 
Q 422 1150 422 2328 
Q 422 3509 836 4129 
Q 1250 4750 2034 4750 
z
" id="DejaVuSans-30" transform="scale(0.015625)"/>
        <path d="M 684 794 
L 1344 794 
L 1344 0 
L 684 0 
L 684 794 
z
" id="DejaVuSans-2e" transform="scale(0.015625)"/>
       </defs>
       <use xlink:href="#DejaVuSans-30"/>
       <use x="63.623047" xlink:href="#DejaVuSans-2e"/>
       <use x="95.410156" xlink:href="#DejaVuSans-30"/>
      </g>
     </g>
    </g>
    <g id="xtick_2">
     <g id="line2d_2">
      <g>
       <use style="stroke:#000000;stroke-width:0.8;" x="127.822329" xlink:href="#maa1f1fa977" y="320.4"/>
      </g>
     </g>
     <g id="text_2">
      <!-- 2.5 -->
      <g transform="translate(116.690141 338.037813)scale(0.14 -0.14)">
       <defs>
        <path d="M 1228 531 
L 3431 531 
L 3431 0 
L 469 0 
L 469 531 
Q 828 903 1448 1529 
Q 2069 2156 2228 2338 
Q 2531 2678 2651 2914 
Q 2772 3150 2772 3378 
Q 2772 3750 2511 3984 
Q 2250 4219 1831 4219 
Q 1534 4219 1204 4116 
Q 875 4013 500 3803 
L 500 4441 
Q 881 4594 1212 4672 
Q 1544 4750 1819 4750 
Q 2544 4750 2975 4387 
Q 3406 4025 3406 3419 
Q 3406 3131 3298 2873 
Q 3191 2616 2906 2266 
Q 2828 2175 2409 1742 
Q 1991 1309 1228 531 
z
" id="DejaVuSans-32" transform="scale(0.015625)"/>
        <path d="M 691 4666 
L 3169 4666 
L 3169 4134 
L 1269 4134 
L 1269 2991 
Q 1406 3038 1543 3061 
Q 1681 3084 1819 3084 
Q 2600 3084 3056 2656 
Q 3513 2228 3513 1497 
Q 3513 744 3044 326 
Q 2575 -91 1722 -91 
Q 1428 -91 1123 -41 
Q 819 9 494 109 
L 494 744 
Q 775 591 1075 516 
Q 1375 441 1709 441 
Q 2250 441 2565 725 
Q 2881 1009 2881 1497 
Q 2881 1984 2565 2268 
Q 2250 2553 1709 2553 
Q 1456 2553 1204 2497 
Q 953 2441 691 2322 
L 691 4666 
z
" id="DejaVuSans-35" transform="scale(0.015625)"/>
       </defs>
       <use xlink:href="#DejaVuSans-32"/>
       <use x="63.623047" xlink:href="#DejaVuSans-2e"/>
       <use x="95.410156" xlink:href="#DejaVuSans-35"/>
      </g>
     </g>
    </g>
    <g id="xtick_3">
     <g id="line2d_3">
      <g>
       <use style="stroke:#000000;stroke-width:0.8;" x="183.644658" xlink:href="#maa1f1fa977" y="320.4"/>
      </g>
     </g>
     <g id="text_3">
      <!-- 5.0 -->
      <g transform="translate(172.51247 338.037813)scale(0.14 -0.14)">
       <use xlink:href="#DejaVuSans-35"/>
       <use x="63.623047" xlink:href="#DejaVuSans-2e"/>
       <use x="95.410156" xlink:href="#DejaVuSans-30"/>
      </g>
     </g>
    </g>
    <g id="xtick_4">
     <g id="line2d_4">
      <g>
       <use style="stroke:#000000;stroke-width:0.8;" x="239.466987" xlink:href="#maa1f1fa977" y="320.4"/>
      </g>
     </g>
     <g id="text_4">
      <!-- 7.5 -->
      <g transform="translate(228.334799 338.037813)scale(0.14 -0.14)">
       <defs>
        <path d="M 525 4666 
L 3525 4666 
L 3525 4397 
L 1831 0 
L 1172 0 
L 2766 4134 
L 525 4134 
L 525 4666 
z
" id="DejaVuSans-37" transform="scale(0.015625)"/>
       </defs>
       <use xlink:href="#DejaVuSans-37"/>
       <use x="63.623047" xlink:href="#DejaVuSans-2e"/>
       <use x="95.410156" xlink:href="#DejaVuSans-35"/>
      </g>
     </g>
    </g>
    <g id="xtick_5">
     <g id="line2d_5">
      <g>
       <use style="stroke:#000000;stroke-width:0.8;" x="295.289316" xlink:href="#maa1f1fa977" y="320.4"/>
      </g>
     </g>
     <g id="text_5">
      <!-- 10.0 -->
      <g transform="translate(279.703378 338.037813)scale(0.14 -0.14)">
       <defs>
        <path d="M 794 531 
L 1825 531 
L 1825 4091 
L 703 3866 
L 703 4441 
L 1819 4666 
L 2450 4666 
L 2450 531 
L 3481 531 
L 3481 0 
L 794 0 
L 794 531 
z
" id="DejaVuSans-31" transform="scale(0.015625)"/>
       </defs>
       <use xlink:href="#DejaVuSans-31"/>
       <use x="63.623047" xlink:href="#DejaVuSans-30"/>
       <use x="127.246094" xlink:href="#DejaVuSans-2e"/>
       <use x="159.033203" xlink:href="#DejaVuSans-30"/>
      </g>
     </g>
    </g>
    <g id="xtick_6">
     <g id="line2d_6">
      <g>
       <use style="stroke:#000000;stroke-width:0.8;" x="351.111645" xlink:href="#maa1f1fa977" y="320.4"/>
      </g>
     </g>
     <g id="text_6">
      <!-- 12.5 -->
      <g transform="translate(335.525707 338.037813)scale(0.14 -0.14)">
       <use xlink:href="#DejaVuSans-31"/>
       <use x="63.623047" xlink:href="#DejaVuSans-32"/>
       <use x="127.246094" xlink:href="#DejaVuSans-2e"/>
       <use x="159.033203" xlink:href="#DejaVuSans-35"/>
      </g>
     </g>
    </g>
    <g id="xtick_7">
     <g id="line2d_7">
      <g>
       <use style="stroke:#000000;stroke-width:0.8;" x="406.933974" xlink:href="#maa1f1fa977" y="320.4"/>
      </g>
     </g>
     <g id="text_7">
      <!-- 15.0 -->
      <g transform="translate(391.348036 338.037813)scale(0.14 -0.14)">
       <use xlink:href="#DejaVuSans-31"/>
       <use x="63.623047" xlink:href="#DejaVuSans-35"/>
       <use x="127.246094" xlink:href="#DejaVuSans-2e"/>
       <use x="159.033203" xlink:href="#DejaVuSans-30"/>
      </g>
     </g>
    </g>
    <g id="xtick_8">
     <g id="line2d_8">
      <g>
       <use style="stroke:#000000;stroke-width:0.8;" x="462.756303" xlink:href="#maa1f1fa977" y="320.4"/>
      </g>
     </g>
     <g id="text_8">
      <!-- 17.5 -->
      <g transform="translate(447.170365 338.037813)scale(0.14 -0.14)">
       <use xlink:href="#DejaVuSans-31"/>
       <use x="63.623047" xlink:href="#DejaVuSans-37"/>
       <use x="127.246094" xlink:href="#DejaVuSans-2e"/>
       <use x="159.033203" xlink:href="#DejaVuSans-35"/>
      </g>
     </g>
    </g>
    <g id="text_9">
     <!-- Time [Seconds] -->
     <g transform="translate(233.23 357.106875)scale(0.16 -0.16)">
      <defs>
       <path d="M -19 4666 
L 3928 4666 
L 3928 4134 
L 2272 4134 
L 2272 0 
L 1638 0 
L 1638 4134 
L -19 4134 
L -19 4666 
z
" id="DejaVuSans-54" transform="scale(0.015625)"/>
       <path d="M 603 3500 
L 1178 3500 
L 1178 0 
L 603 0 
L 603 3500 
z
M 603 4863 
L 1178 4863 
L 1178 4134 
L 603 4134 
L 603 4863 
z
" id="DejaVuSans-69" transform="scale(0.015625)"/>
       <path d="M 3328 2828 
Q 3544 3216 3844 3400 
Q 4144 3584 4550 3584 
Q 5097 3584 5394 3201 
Q 5691 2819 5691 2113 
L 5691 0 
L 5113 0 
L 5113 2094 
Q 5113 2597 4934 2840 
Q 4756 3084 4391 3084 
Q 3944 3084 3684 2787 
Q 3425 2491 3425 1978 
L 3425 0 
L 2847 0 
L 2847 2094 
Q 2847 2600 2669 2842 
Q 2491 3084 2119 3084 
Q 1678 3084 1418 2786 
Q 1159 2488 1159 1978 
L 1159 0 
L 581 0 
L 581 3500 
L 1159 3500 
L 1159 2956 
Q 1356 3278 1631 3431 
Q 1906 3584 2284 3584 
Q 2666 3584 2933 3390 
Q 3200 3197 3328 2828 
z
" id="DejaVuSans-6d" transform="scale(0.015625)"/>
       <path d="M 3597 1894 
L 3597 1613 
L 953 1613 
Q 991 1019 1311 708 
Q 1631 397 2203 397 
Q 2534 397 2845 478 
Q 3156 559 3463 722 
L 3463 178 
Q 3153 47 2828 -22 
Q 2503 -91 2169 -91 
Q 1331 -91 842 396 
Q 353 884 353 1716 
Q 353 2575 817 3079 
Q 1281 3584 2069 3584 
Q 2775 3584 3186 3129 
Q 3597 2675 3597 1894 
z
M 3022 2063 
Q 3016 2534 2758 2815 
Q 2500 3097 2075 3097 
Q 1594 3097 1305 2825 
Q 1016 2553 972 2059 
L 3022 2063 
z
" id="DejaVuSans-65" transform="scale(0.015625)"/>
       <path id="DejaVuSans-20" transform="scale(0.015625)"/>
       <path d="M 550 4863 
L 1875 4863 
L 1875 4416 
L 1125 4416 
L 1125 -397 
L 1875 -397 
L 1875 -844 
L 550 -844 
L 550 4863 
z
" id="DejaVuSans-5b" transform="scale(0.015625)"/>
       <path d="M 3425 4513 
L 3425 3897 
Q 3066 4069 2747 4153 
Q 2428 4238 2131 4238 
Q 1616 4238 1336 4038 
Q 1056 3838 1056 3469 
Q 1056 3159 1242 3001 
Q 1428 2844 1947 2747 
L 2328 2669 
Q 3034 2534 3370 2195 
Q 3706 1856 3706 1288 
Q 3706 609 3251 259 
Q 2797 -91 1919 -91 
Q 1588 -91 1214 -16 
Q 841 59 441 206 
L 441 856 
Q 825 641 1194 531 
Q 1563 422 1919 422 
Q 2459 422 2753 634 
Q 3047 847 3047 1241 
Q 3047 1584 2836 1778 
Q 2625 1972 2144 2069 
L 1759 2144 
Q 1053 2284 737 2584 
Q 422 2884 422 3419 
Q 422 4038 858 4394 
Q 1294 4750 2059 4750 
Q 2388 4750 2728 4690 
Q 3069 4631 3425 4513 
z
" id="DejaVuSans-53" transform="scale(0.015625)"/>
       <path d="M 3122 3366 
L 3122 2828 
Q 2878 2963 2633 3030 
Q 2388 3097 2138 3097 
Q 1578 3097 1268 2742 
Q 959 2388 959 1747 
Q 959 1106 1268 751 
Q 1578 397 2138 397 
Q 2388 397 2633 464 
Q 2878 531 3122 666 
L 3122 134 
Q 2881 22 2623 -34 
Q 2366 -91 2075 -91 
Q 1284 -91 818 406 
Q 353 903 353 1747 
Q 353 2603 823 3093 
Q 1294 3584 2113 3584 
Q 2378 3584 2631 3529 
Q 2884 3475 3122 3366 
z
" id="DejaVuSans-63" transform="scale(0.015625)"/>
       <path d="M 1959 3097 
Q 1497 3097 1228 2736 
Q 959 2375 959 1747 
Q 959 1119 1226 758 
Q 1494 397 1959 397 
Q 2419 397 2687 759 
Q 2956 1122 2956 1747 
Q 2956 2369 2687 2733 
Q 2419 3097 1959 3097 
z
M 1959 3584 
Q 2709 3584 3137 3096 
Q 3566 2609 3566 1747 
Q 3566 888 3137 398 
Q 2709 -91 1959 -91 
Q 1206 -91 779 398 
Q 353 888 353 1747 
Q 353 2609 779 3096 
Q 1206 3584 1959 3584 
z
" id="DejaVuSans-6f" transform="scale(0.015625)"/>
       <path d="M 3513 2113 
L 3513 0 
L 2938 0 
L 2938 2094 
Q 2938 2591 2744 2837 
Q 2550 3084 2163 3084 
Q 1697 3084 1428 2787 
Q 1159 2491 1159 1978 
L 1159 0 
L 581 0 
L 581 3500 
L 1159 3500 
L 1159 2956 
Q 1366 3272 1645 3428 
Q 1925 3584 2291 3584 
Q 2894 3584 3203 3211 
Q 3513 2838 3513 2113 
z
" id="DejaVuSans-6e" transform="scale(0.015625)"/>
       <path d="M 2906 2969 
L 2906 4863 
L 3481 4863 
L 3481 0 
L 2906 0 
L 2906 525 
Q 2725 213 2448 61 
Q 2172 -91 1784 -91 
Q 1150 -91 751 415 
Q 353 922 353 1747 
Q 353 2572 751 3078 
Q 1150 3584 1784 3584 
Q 2172 3584 2448 3432 
Q 2725 3281 2906 2969 
z
M 947 1747 
Q 947 1113 1208 752 
Q 1469 391 1925 391 
Q 2381 391 2643 752 
Q 2906 1113 2906 1747 
Q 2906 2381 2643 2742 
Q 2381 3103 1925 3103 
Q 1469 3103 1208 2742 
Q 947 2381 947 1747 
z
" id="DejaVuSans-64" transform="scale(0.015625)"/>
       <path d="M 2834 3397 
L 2834 2853 
Q 2591 2978 2328 3040 
Q 2066 3103 1784 3103 
Q 1356 3103 1142 2972 
Q 928 2841 928 2578 
Q 928 2378 1081 2264 
Q 1234 2150 1697 2047 
L 1894 2003 
Q 2506 1872 2764 1633 
Q 3022 1394 3022 966 
Q 3022 478 2636 193 
Q 2250 -91 1575 -91 
Q 1294 -91 989 -36 
Q 684 19 347 128 
L 347 722 
Q 666 556 975 473 
Q 1284 391 1588 391 
Q 1994 391 2212 530 
Q 2431 669 2431 922 
Q 2431 1156 2273 1281 
Q 2116 1406 1581 1522 
L 1381 1569 
Q 847 1681 609 1914 
Q 372 2147 372 2553 
Q 372 3047 722 3315 
Q 1072 3584 1716 3584 
Q 2034 3584 2315 3537 
Q 2597 3491 2834 3397 
z
" id="DejaVuSans-73" transform="scale(0.015625)"/>
       <path d="M 1947 4863 
L 1947 -844 
L 622 -844 
L 622 -397 
L 1369 -397 
L 1369 4416 
L 622 4416 
L 622 4863 
L 1947 4863 
z
" id="DejaVuSans-5d" transform="scale(0.015625)"/>
      </defs>
      <use xlink:href="#DejaVuSans-54"/>
      <use x="57.958984" xlink:href="#DejaVuSans-69"/>
      <use x="85.742188" xlink:href="#DejaVuSans-6d"/>
      <use x="183.154297" xlink:href="#DejaVuSans-65"/>
      <use x="244.677734" xlink:href="#DejaVuSans-20"/>
      <use x="276.464844" xlink:href="#DejaVuSans-5b"/>
      <use x="315.478516" xlink:href="#DejaVuSans-53"/>
      <use x="378.955078" xlink:href="#DejaVuSans-65"/>
      <use x="440.478516" xlink:href="#DejaVuSans-63"/>
      <use x="495.458984" xlink:href="#DejaVuSans-6f"/>
      <use x="556.640625" xlink:href="#DejaVuSans-6e"/>
      <use x="620.019531" xlink:href="#DejaVuSans-64"/>
      <use x="683.496094" xlink:href="#DejaVuSans-73"/>
      <use x="735.595703" xlink:href="#DejaVuSans-5d"/>
     </g>
    </g>
   </g>
   <g id="matplotlib.axis_2">
    <g id="ytick_1">
     <g id="line2d_9">
      <defs>
       <path d="M 0 0 
L -3.5 0 
" id="m740441d037" style="stroke:#000000;stroke-width:0.8;"/>
      </defs>
      <g>
       <use style="stroke:#000000;stroke-width:0.8;" x="72" xlink:href="#m740441d037" y="288.541227"/>
      </g>
     </g>
     <g id="text_10">
      <!-- 0.00 -->
      <g transform="translate(33.828125 293.860133)scale(0.14 -0.14)">
       <use xlink:href="#DejaVuSans-30"/>
       <use x="63.623047" xlink:href="#DejaVuSans-2e"/>
       <use x="95.410156" xlink:href="#DejaVuSans-30"/>
       <use x="159.033203" xlink:href="#DejaVuSans-30"/>
      </g>
     </g>
    </g>
    <g id="ytick_2">
     <g id="line2d_10">
      <g>
       <use style="stroke:#000000;stroke-width:0.8;" x="72" xlink:href="#m740441d037" y="256.539135"/>
      </g>
     </g>
     <g id="text_11">
      <!-- 0.25 -->
      <g transform="translate(33.828125 261.858041)scale(0.14 -0.14)">
       <use xlink:href="#DejaVuSans-30"/>
       <use x="63.623047" xlink:href="#DejaVuSans-2e"/>
       <use x="95.410156" xlink:href="#DejaVuSans-32"/>
       <use x="159.033203" xlink:href="#DejaVuSans-35"/>
      </g>
     </g>
    </g>
    <g id="ytick_3">
     <g id="line2d_11">
      <g>
       <use style="stroke:#000000;stroke-width:0.8;" x="72" xlink:href="#m740441d037" y="224.537043"/>
      </g>
     </g>
     <g id="text_12">
      <!-- 0.50 -->
      <g transform="translate(33.828125 229.855949)scale(0.14 -0.14)">
       <use xlink:href="#DejaVuSans-30"/>
       <use x="63.623047" xlink:href="#DejaVuSans-2e"/>
       <use x="95.410156" xlink:href="#DejaVuSans-35"/>
       <use x="159.033203" xlink:href="#DejaVuSans-30"/>
      </g>
     </g>
    </g>
    <g id="ytick_4">
     <g id="line2d_12">
      <g>
       <use style="stroke:#000000;stroke-width:0.8;" x="72" xlink:href="#m740441d037" y="192.534951"/>
      </g>
     </g>
     <g id="text_13">
      <!-- 0.75 -->
      <g transform="translate(33.828125 197.853857)scale(0.14 -0.14)">
       <use xlink:href="#DejaVuSans-30"/>
       <use x="63.623047" xlink:href="#DejaVuSans-2e"/>
       <use x="95.410156" xlink:href="#DejaVuSans-37"/>
       <use x="159.033203" xlink:href="#DejaVuSans-35"/>
      </g>
     </g>
    </g>
    <g id="ytick_5">
     <g id="line2d_13">
      <g>
       <use style="stroke:#000000;stroke-width:0.8;" x="72" xlink:href="#m740441d037" y="160.532859"/>
      </g>
     </g>
     <g id="text_14">
      <!-- 1.00 -->
      <g transform="translate(33.828125 165.851765)scale(0.14 -0.14)">
       <use xlink:href="#DejaVuSans-31"/>
       <use x="63.623047" xlink:href="#DejaVuSans-2e"/>
       <use x="95.410156" xlink:href="#DejaVuSans-30"/>
       <use x="159.033203" xlink:href="#DejaVuSans-30"/>
      </g>
     </g>
    </g>
    <g id="ytick_6">
     <g id="line2d_14">
      <g>
       <use style="stroke:#000000;stroke-width:0.8;" x="72" xlink:href="#m740441d037" y="128.530767"/>
      </g>
     </g>
     <g id="text_15">
      <!-- 1.25 -->
      <g transform="translate(33.828125 133.849673)scale(0.14 -0.14)">
       <use xlink:href="#DejaVuSans-31"/>
       <use x="63.623047" xlink:href="#DejaVuSans-2e"/>
       <use x="95.410156" xlink:href="#DejaVuSans-32"/>
       <use x="159.033203" xlink:href="#DejaVuSans-35"/>
      </g>
     </g>
    </g>
    <g id="ytick_7">
     <g id="line2d_15">
      <g>
       <use style="stroke:#000000;stroke-width:0.8;" x="72" xlink:href="#m740441d037" y="96.528675"/>
      </g>
     </g>
     <g id="text_16">
      <!-- 1.50 -->
      <g transform="translate(33.828125 101.847581)scale(0.14 -0.14)">
       <use xlink:href="#DejaVuSans-31"/>
       <use x="63.623047" xlink:href="#DejaVuSans-2e"/>
       <use x="95.410156" xlink:href="#DejaVuSans-35"/>
       <use x="159.033203" xlink:href="#DejaVuSans-30"/>
      </g>
     </g>
    </g>
    <g id="ytick_8">
     <g id="line2d_16">
      <g>
       <use style="stroke:#000000;stroke-width:0.8;" x="72" xlink:href="#m740441d037" y="64.526583"/>
      </g>
     </g>
     <g id="text_17">
      <!-- 1.75 -->
      <g transform="translate(33.828125 69.845489)scale(0.14 -0.14)">
       <use xlink:href="#DejaVuSans-31"/>
       <use x="63.623047" xlink:href="#DejaVuSans-2e"/>
       <use x="95.410156" xlink:href="#DejaVuSans-37"/>
       <use x="159.033203" xlink:href="#DejaVuSans-35"/>
      </g>
     </g>
    </g>
    <g id="text_18">
     <!-- Speed [mm/s] -->
     <g transform="translate(26.500625 238.11375)rotate(-90)scale(0.16 -0.16)">
      <defs>
       <path d="M 1159 525 
L 1159 -1331 
L 581 -1331 
L 581 3500 
L 1159 3500 
L 1159 2969 
Q 1341 3281 1617 3432 
Q 1894 3584 2278 3584 
Q 2916 3584 3314 3078 
Q 3713 2572 3713 1747 
Q 3713 922 3314 415 
Q 2916 -91 2278 -91 
Q 1894 -91 1617 61 
Q 1341 213 1159 525 
z
M 3116 1747 
Q 3116 2381 2855 2742 
Q 2594 3103 2138 3103 
Q 1681 3103 1420 2742 
Q 1159 2381 1159 1747 
Q 1159 1113 1420 752 
Q 1681 391 2138 391 
Q 2594 391 2855 752 
Q 3116 1113 3116 1747 
z
" id="DejaVuSans-70" transform="scale(0.015625)"/>
       <path d="M 1625 4666 
L 2156 4666 
L 531 -594 
L 0 -594 
L 1625 4666 
z
" id="DejaVuSans-2f" transform="scale(0.015625)"/>
      </defs>
      <use xlink:href="#DejaVuSans-53"/>
      <use x="63.476562" xlink:href="#DejaVuSans-70"/>
      <use x="126.953125" xlink:href="#DejaVuSans-65"/>
      <use x="188.476562" xlink:href="#DejaVuSans-65"/>
      <use x="250" xlink:href="#DejaVuSans-64"/>
      <use x="313.476562" xlink:href="#DejaVuSans-20"/>
      <use x="345.263672" xlink:href="#DejaVuSans-5b"/>
      <use x="384.277344" xlink:href="#DejaVuSans-6d"/>
      <use x="481.689453" xlink:href="#DejaVuSans-6d"/>
      <use x="579.101562" xlink:href="#DejaVuSans-2f"/>
      <use x="612.792969" xlink:href="#DejaVuSans-73"/>
      <use x="664.892578" xlink:href="#DejaVuSans-5d"/>
     </g>
    </g>
   </g>
   <g id="line2d_17">
    <path clip-path="url(#pca32ea6768)" d="M 72 201.634973 
L 518.4 201.634973 
" style="fill:none;stroke:#000000;stroke-dasharray:5.55,2.4;stroke-dashoffset:0;stroke-width:1.5;"/>
   </g>
   <g id="line2d_18">
    <path clip-path="url(#pca32ea6768)" d="M 72 285.802103 
L 121.6 285.746023 
L 122.351515 286.028872 
L 123.10303 284.994024 
L 123.854545 283.128202 
L 124.606061 283.690548 
L 126.109091 287.783694 
L 126.860606 289.051584 
L 127.612121 289.325121 
L 128.363636 284.818156 
L 129.115152 275.448282 
L 129.866667 281.147294 
L 130.618182 300.218071 
L 131.369697 307.8 
L 132.121212 303.932384 
L 132.872727 292.514008 
L 133.624242 272.869861 
L 134.375758 247.906284 
L 135.878788 187.054446 
L 137.381818 129.615841 
L 138.133333 103.474756 
L 138.884848 81.290752 
L 139.636364 67.157474 
L 140.387879 57.88567 
L 141.139394 55.8 
L 141.890909 58.677388 
L 142.642424 66.905468 
L 143.393939 81.113743 
L 147.151515 175.539098 
L 147.90303 190.143595 
L 148.654545 198.399743 
L 149.406061 195.321826 
L 150.157576 183.276938 
L 150.909091 168.364834 
L 151.660606 172.765308 
L 152.412121 187.284376 
L 153.163636 190.143395 
L 156.169697 195.762323 
L 157.672727 193.844532 
L 159.175758 194.951311 
L 159.927273 193.807697 
L 161.430303 195.326889 
L 162.181818 195.14751 
L 162.933333 195.695979 
L 163.684848 194.706482 
L 164.436364 196.138486 
L 165.187879 198.257066 
L 165.939394 199.715211 
L 166.690909 200.115485 
L 167.442424 198.865288 
L 168.193939 200.099824 
L 168.945455 197.677526 
L 169.69697 198.21174 
L 170.448485 199.56277 
L 171.2 196.468968 
L 171.951515 196.521621 
L 172.70303 196.064821 
L 173.454545 197.730052 
L 174.206061 200.055925 
L 174.957576 199.185304 
L 175.709091 198.873908 
L 176.460606 198.36378 
L 177.212121 198.952218 
L 177.963636 200.192607 
L 178.715152 201.013617 
L 179.466667 201.415976 
L 180.218182 201.32186 
L 180.969697 200.251823 
L 182.472727 203.535272 
L 183.224242 202.093068 
L 183.975758 200.971485 
L 184.727273 200.057471 
L 185.478788 200.842685 
L 186.230303 202.210111 
L 187.733333 201.597897 
L 188.484848 202.848373 
L 189.236364 202.928723 
L 189.987879 202.06972 
L 190.739394 199.602488 
L 191.490909 199.746442 
L 192.242424 201.510753 
L 192.993939 200.031065 
L 193.745455 199.002215 
L 194.49697 199.731246 
L 195.248485 202.125984 
L 196 202.386058 
L 196.751515 200.907447 
L 197.50303 201.009923 
L 198.254545 200.883196 
L 199.006061 200.51987 
L 199.757576 201.596034 
L 200.509091 202.338966 
L 201.260606 202.074222 
L 202.012121 203.551497 
L 202.763636 204.264525 
L 204.266667 203.193042 
L 205.018182 203.344528 
L 205.769697 202.418737 
L 206.521212 200.992344 
L 207.272727 201.402037 
L 208.024242 201.980868 
L 208.775758 202.204285 
L 210.278788 202.974328 
L 211.030303 201.775673 
L 211.781818 201.293333 
L 212.533333 200.134777 
L 213.284848 199.726804 
L 214.036364 201.66214 
L 214.787879 200.995381 
L 215.539394 199.636365 
L 216.290909 200.748856 
L 217.042424 202.100833 
L 217.793939 200.972654 
L 218.545455 200.664176 
L 219.29697 202.030324 
L 220.048485 202.036087 
L 220.8 200.970093 
L 221.551515 201.256684 
L 222.30303 201.90866 
L 223.054545 202.289807 
L 223.806061 203.438391 
L 224.557576 202.868004 
L 225.309091 202.02882 
L 226.812121 204.061917 
L 227.563636 203.690217 
L 228.315152 201.548443 
L 229.066667 202.305857 
L 229.818182 204.128874 
L 230.569697 203.748739 
L 231.321212 202.952672 
L 232.072727 203.096145 
L 232.824242 203.459578 
L 233.575758 203.457605 
L 234.327273 202.270224 
L 235.078788 202.249476 
L 235.830303 203.408466 
L 236.581818 201.974624 
L 237.333333 202.198725 
L 238.084848 203.74171 
L 238.836364 203.30589 
L 239.587879 201.094481 
L 240.339394 201.363957 
L 241.090909 202.420097 
L 241.842424 201.363927 
L 242.593939 200.944272 
L 244.09697 203.431729 
L 244.848485 202.272128 
L 245.6 200.443802 
L 246.351515 200.020243 
L 247.10303 201.26827 
L 247.854545 201.793509 
L 248.606061 201.103783 
L 249.357576 201.43145 
L 250.109091 200.700646 
L 250.860606 201.31663 
L 251.612121 202.192709 
L 252.363636 201.577491 
L 253.115152 201.496125 
L 253.866667 201.907682 
L 254.618182 201.957801 
L 255.369697 200.909742 
L 256.121212 200.236175 
L 256.872727 201.971845 
L 257.624242 202.935776 
L 258.375758 201.248831 
L 259.127273 201.814746 
L 259.878788 204.012456 
L 260.630303 204.193711 
L 261.381818 202.137236 
L 262.133333 202.674479 
L 262.884848 203.518768 
L 264.387879 203.356158 
L 265.139394 203.649541 
L 265.890909 205.192207 
L 266.642424 204.361994 
L 267.393939 202.086933 
L 268.145455 202.05105 
L 268.89697 202.680392 
L 269.648485 203.002266 
L 270.4 202.900542 
L 271.151515 201.644026 
L 271.90303 201.150466 
L 272.654545 201.266298 
L 273.406061 200.623547 
L 274.157576 201.133021 
L 274.909091 202.775266 
L 275.660606 202.462193 
L 276.412121 201.770416 
L 277.163636 200.618658 
L 277.915152 200.741529 
L 278.666667 202.306683 
L 279.418182 201.76466 
L 280.169697 201.76665 
L 280.921212 203.088851 
L 281.672727 203.723282 
L 282.424242 202.848608 
L 283.175758 202.556846 
L 283.927273 203.97997 
L 284.678788 203.671371 
L 286.181818 201.277623 
L 286.933333 201.447665 
L 287.684848 202.09301 
L 289.187879 201.09083 
L 289.939394 201.241747 
L 290.690909 201.963453 
L 291.442424 202.951417 
L 292.193939 203.140196 
L 292.945455 201.558287 
L 293.69697 202.234328 
L 294.448485 203.314446 
L 295.2 202.817002 
L 295.951515 203.873549 
L 296.70303 205.291778 
L 297.454545 204.527734 
L 298.206061 202.305159 
L 298.957576 201.143609 
L 299.709091 201.940885 
L 300.460606 201.647272 
L 301.212121 200.653618 
L 301.963636 201.353758 
L 302.715152 201.392013 
L 304.218182 200.659578 
L 304.969697 199.982669 
L 305.721212 200.382476 
L 306.472727 200.535023 
L 307.224242 201.365347 
L 307.975758 201.641969 
L 309.478788 201.547976 
L 310.230303 201.313872 
L 310.981818 202.207477 
L 312.484848 203.303811 
L 313.236364 203.292978 
L 313.987879 203.423575 
L 314.739394 202.177157 
L 315.490909 202.073733 
L 316.242424 203.308343 
L 316.993939 203.04072 
L 317.745455 202.174219 
L 318.49697 202.209774 
L 319.248485 201.953336 
L 320 201.113083 
L 320.751515 201.979852 
L 321.50303 202.176942 
L 322.254545 201.681049 
L 323.006061 200.995389 
L 323.757576 201.33233 
L 325.260606 203.873114 
L 326.012121 204.140737 
L 326.763636 202.953899 
L 327.515152 202.881474 
L 328.266667 203.047954 
L 329.018182 203.445864 
L 329.769697 202.22781 
L 330.521212 201.652417 
L 331.272727 202.203197 
L 332.024242 202.117665 
L 332.775758 202.36551 
L 334.278788 202.403668 
L 336.533333 201.361624 
L 337.284848 202.297343 
L 338.036364 203.76921 
L 338.787879 202.989748 
L 339.539394 201.391696 
L 340.290909 202.646975 
L 341.042424 203.29341 
L 341.793939 202.21626 
L 343.29697 202.004597 
L 344.048485 202.373968 
L 344.8 201.034611 
L 345.551515 200.329894 
L 346.30303 202.143473 
L 347.054545 202.321708 
L 347.806061 202.621227 
L 348.557576 202.006992 
L 349.309091 201.149775 
L 350.060606 202.343048 
L 350.812121 202.238063 
L 351.563636 201.117843 
L 352.315152 201.574873 
L 353.066667 202.434808 
L 353.818182 202.444436 
L 354.569697 202.240065 
L 355.321212 203.560984 
L 356.072727 204.021913 
L 356.824242 203.97267 
L 357.575758 202.836984 
L 358.327273 202.497382 
L 359.078788 203.316501 
L 359.830303 203.031644 
L 360.581818 201.279208 
L 361.333333 200.808359 
L 362.084848 202.650848 
L 362.836364 202.714949 
L 363.587879 201.704251 
L 364.339394 201.272375 
L 365.842424 201.991134 
L 366.593939 200.602273 
L 367.345455 200.712381 
L 368.09697 203.287341 
L 369.6 203.176414 
L 370.351515 202.248512 
L 371.10303 202.874621 
L 371.854545 204.5869 
L 373.357576 201.891789 
L 374.109091 201.447951 
L 374.860606 201.519653 
L 375.612121 200.969268 
L 376.363636 201.161697 
L 377.115152 202.574395 
L 377.866667 202.384027 
L 378.618182 202.374797 
L 379.369697 201.379896 
L 380.121212 201.051338 
L 380.872727 202.769884 
L 381.624242 202.005983 
L 382.375758 200.829448 
L 383.878788 202.211676 
L 384.630303 203.148429 
L 385.381818 202.86048 
L 386.133333 202.206999 
L 386.884848 203.138098 
L 387.636364 203.326162 
L 388.387879 202.683381 
L 389.139394 203.324683 
L 389.890909 203.580561 
L 390.642424 202.804533 
L 391.393939 202.630534 
L 392.145455 201.826086 
L 393.648485 203.284363 
L 394.4 202.481487 
L 395.151515 201.039001 
L 395.90303 200.464429 
L 396.654545 201.140503 
L 397.406061 200.530834 
L 398.157576 200.895761 
L 398.909091 202.671887 
L 399.660606 203.562 
L 400.412121 202.987191 
L 401.163636 202.077035 
L 401.915152 202.471607 
L 402.666667 203.607222 
L 403.418182 203.236144 
L 404.169697 202.149886 
L 404.921212 202.791305 
L 405.672727 203.046081 
L 406.424242 201.532609 
L 407.175758 200.545031 
L 407.927273 202.00815 
L 408.678788 203.157561 
L 409.430303 201.959978 
L 410.181818 202.259688 
L 410.933333 203.822177 
L 413.187879 202.098564 
L 413.939394 202.250403 
L 414.690909 202.74129 
L 415.442424 202.884602 
L 416.945455 200.665596 
L 417.69697 201.610119 
L 418.448485 201.773706 
L 419.2 199.688651 
L 419.951515 200.080187 
L 420.70303 201.730777 
L 421.454545 202.218631 
L 422.206061 201.684502 
L 422.957576 202.44721 
L 423.709091 203.472558 
L 424.460606 202.83847 
L 425.212121 203.29278 
L 425.963636 202.737315 
L 426.715152 203.49571 
L 427.466667 203.763025 
L 428.218182 202.280938 
L 429.721212 203.765475 
L 430.472727 202.664595 
L 431.224242 202.195934 
L 431.975758 202.803197 
L 432.727273 203.085149 
L 433.478788 202.74496 
L 434.230303 202.810085 
L 434.981818 203.436212 
L 435.733333 203.469411 
L 436.484848 203.179888 
L 437.236364 201.986562 
L 437.987879 199.895936 
L 438.739394 199.615231 
L 439.490909 200.606069 
L 440.242424 200.293016 
L 440.993939 198.682763 
L 442.49697 201.490472 
L 443.248485 200.490547 
L 444 200.879083 
L 444.751515 203.184484 
L 445.50303 203.864736 
L 446.254545 202.666374 
L 447.757576 204.703733 
L 450.763636 204.105315 
L 451.515152 202.838752 
L 452.266667 201.264296 
L 453.018182 200.991032 
L 453.769697 199.987319 
L 454.521212 199.261853 
L 455.272727 199.784987 
L 456.024242 200.062543 
L 457.527273 201.103771 
L 459.781818 203.940874 
L 461.284848 205.005917 
L 462.036364 205.091746 
L 462.787879 202.909726 
L 464.290909 203.959558 
L 465.042424 201.319771 
L 466.545455 202.055503 
L 467.29697 200.628733 
L 468.048485 199.979358 
L 468.8 200.756779 
L 469.551515 201.231951 
L 470.30303 200.982709 
L 471.054545 201.560084 
L 471.806061 202.451939 
L 472.557576 203.595591 
L 473.309091 203.122067 
L 474.060606 201.693203 
L 474.812121 201.623783 
L 475.563636 201.772997 
L 476.315152 201.709226 
L 477.066667 201.757954 
L 478.569697 201.19102 
L 480.072727 200.197555 
L 480.824242 201.465422 
L 481.575758 203.153266 
L 482.327273 203.835973 
L 483.078788 204.973547 
L 483.830303 205.224582 
L 484.581818 204.176014 
L 485.333333 205.431138 
L 486.084848 205.177738 
L 486.836364 201.989845 
L 487.587879 201.695906 
L 488.339394 200.985436 
L 489.090909 199.618357 
L 489.842424 199.677823 
L 490.593939 199.388467 
L 491.345455 199.460688 
L 492.09697 200.020781 
L 492.848485 200.993459 
L 493.6 201.342265 
L 495.10303 203.52189 
L 495.854545 204.245071 
L 496.606061 205.841125 
L 497.357576 205.28463 
L 498.109091 204.152521 
L 498.860606 204.752982 
L 499.612121 204.120681 
L 500.363636 202.890485 
L 501.115152 202.949601 
L 503.369697 199.655657 
L 504.121212 199.050402 
L 504.872727 199.938115 
L 505.624242 200.500315 
L 506.375758 201.204269 
L 507.127273 202.199828 
L 509.381818 202.658589 
L 510.884848 202.533622 
L 512.387879 202.012166 
L 515.393939 200.570956 
L 516.145455 200.371969 
L 516.89697 200.351764 
L 517.648485 200.58081 
L 518.4 201.137203 
L 518.4 201.137203 
" style="fill:none;stroke:#ff0000;stroke-linecap:square;stroke-width:2;"/>
   </g>
   <g id="patch_3">
    <path d="M 72 320.4 
L 72 43.2 
" style="fill:none;stroke:#000000;stroke-linecap:square;stroke-linejoin:miter;stroke-width:0.8;"/>
   </g>
   <g id="patch_4">
    <path d="M 518.4 320.4 
L 518.4 43.2 
" style="fill:none;stroke:#000000;stroke-linecap:square;stroke-linejoin:miter;stroke-width:0.8;"/>
   </g>
   <g id="patch_5">
    <path d="M 72 320.4 
L 518.4 320.4 
" style="fill:none;stroke:#000000;stroke-linecap:square;stroke-linejoin:miter;stroke-width:0.8;"/>
   </g>
   <g id="patch_6">
    <path d="M 72 43.2 
L 518.4 43.2 
" style="fill:none;stroke:#000000;stroke-linecap:square;stroke-linejoin:miter;stroke-width:0.8;"/>
   </g>
   <g id="text_19">
    <!-- Front Propogation Speed -->
    <g transform="translate(172.245312 37.2)scale(0.2 -0.2)">
     <defs>
      <path d="M 628 4666 
L 3309 4666 
L 3309 4134 
L 1259 4134 
L 1259 2759 
L 3109 2759 
L 3109 2228 
L 1259 2228 
L 1259 0 
L 628 0 
L 628 4666 
z
" id="DejaVuSans-46" transform="scale(0.015625)"/>
      <path d="M 2631 2963 
Q 2534 3019 2420 3045 
Q 2306 3072 2169 3072 
Q 1681 3072 1420 2755 
Q 1159 2438 1159 1844 
L 1159 0 
L 581 0 
L 581 3500 
L 1159 3500 
L 1159 2956 
Q 1341 3275 1631 3429 
Q 1922 3584 2338 3584 
Q 2397 3584 2469 3576 
Q 2541 3569 2628 3553 
L 2631 2963 
z
" id="DejaVuSans-72" transform="scale(0.015625)"/>
      <path d="M 1172 4494 
L 1172 3500 
L 2356 3500 
L 2356 3053 
L 1172 3053 
L 1172 1153 
Q 1172 725 1289 603 
Q 1406 481 1766 481 
L 2356 481 
L 2356 0 
L 1766 0 
Q 1100 0 847 248 
Q 594 497 594 1153 
L 594 3053 
L 172 3053 
L 172 3500 
L 594 3500 
L 594 4494 
L 1172 4494 
z
" id="DejaVuSans-74" transform="scale(0.015625)"/>
      <path d="M 1259 4147 
L 1259 2394 
L 2053 2394 
Q 2494 2394 2734 2622 
Q 2975 2850 2975 3272 
Q 2975 3691 2734 3919 
Q 2494 4147 2053 4147 
L 1259 4147 
z
M 628 4666 
L 2053 4666 
Q 2838 4666 3239 4311 
Q 3641 3956 3641 3272 
Q 3641 2581 3239 2228 
Q 2838 1875 2053 1875 
L 1259 1875 
L 1259 0 
L 628 0 
L 628 4666 
z
" id="DejaVuSans-50" transform="scale(0.015625)"/>
      <path d="M 2906 1791 
Q 2906 2416 2648 2759 
Q 2391 3103 1925 3103 
Q 1463 3103 1205 2759 
Q 947 2416 947 1791 
Q 947 1169 1205 825 
Q 1463 481 1925 481 
Q 2391 481 2648 825 
Q 2906 1169 2906 1791 
z
M 3481 434 
Q 3481 -459 3084 -895 
Q 2688 -1331 1869 -1331 
Q 1566 -1331 1297 -1286 
Q 1028 -1241 775 -1147 
L 775 -588 
Q 1028 -725 1275 -790 
Q 1522 -856 1778 -856 
Q 2344 -856 2625 -561 
Q 2906 -266 2906 331 
L 2906 616 
Q 2728 306 2450 153 
Q 2172 0 1784 0 
Q 1141 0 747 490 
Q 353 981 353 1791 
Q 353 2603 747 3093 
Q 1141 3584 1784 3584 
Q 2172 3584 2450 3431 
Q 2728 3278 2906 2969 
L 2906 3500 
L 3481 3500 
L 3481 434 
z
" id="DejaVuSans-67" transform="scale(0.015625)"/>
      <path d="M 2194 1759 
Q 1497 1759 1228 1600 
Q 959 1441 959 1056 
Q 959 750 1161 570 
Q 1363 391 1709 391 
Q 2188 391 2477 730 
Q 2766 1069 2766 1631 
L 2766 1759 
L 2194 1759 
z
M 3341 1997 
L 3341 0 
L 2766 0 
L 2766 531 
Q 2569 213 2275 61 
Q 1981 -91 1556 -91 
Q 1019 -91 701 211 
Q 384 513 384 1019 
Q 384 1609 779 1909 
Q 1175 2209 1959 2209 
L 2766 2209 
L 2766 2266 
Q 2766 2663 2505 2880 
Q 2244 3097 1772 3097 
Q 1472 3097 1187 3025 
Q 903 2953 641 2809 
L 641 3341 
Q 956 3463 1253 3523 
Q 1550 3584 1831 3584 
Q 2591 3584 2966 3190 
Q 3341 2797 3341 1997 
z
" id="DejaVuSans-61" transform="scale(0.015625)"/>
     </defs>
     <use xlink:href="#DejaVuSans-46"/>
     <use x="50.269531" xlink:href="#DejaVuSans-72"/>
     <use x="89.132812" xlink:href="#DejaVuSans-6f"/>
     <use x="150.314453" xlink:href="#DejaVuSans-6e"/>
     <use x="213.693359" xlink:href="#DejaVuSans-74"/>
     <use x="252.902344" xlink:href="#DejaVuSans-20"/>
     <use x="284.689453" xlink:href="#DejaVuSans-50"/>
     <use x="343.242188" xlink:href="#DejaVuSans-72"/>
     <use x="382.105469" xlink:href="#DejaVuSans-6f"/>
     <use x="443.287109" xlink:href="#DejaVuSans-70"/>
     <use x="506.763672" xlink:href="#DejaVuSans-6f"/>
     <use x="567.945312" xlink:href="#DejaVuSans-67"/>
     <use x="631.421875" xlink:href="#DejaVuSans-61"/>
     <use x="692.701172" xlink:href="#DejaVuSans-74"/>
     <use x="731.910156" xlink:href="#DejaVuSans-69"/>
     <use x="759.693359" xlink:href="#DejaVuSans-6f"/>
     <use x="820.875" xlink:href="#DejaVuSans-6e"/>
     <use x="884.253906" xlink:href="#DejaVuSans-20"/>
     <use x="916.041016" xlink:href="#DejaVuSans-53"/>
     <use x="979.517578" xlink:href="#DejaVuSans-70"/>
     <use x="1042.994141" xlink:href="#DejaVuSans-65"/>
     <use x="1104.517578" xlink:href="#DejaVuSans-65"/>
     <use x="1166.041016" xlink:href="#DejaVuSans-64"/>
    </g>
   </g>
   <g id="legend_1">
    <g id="patch_7">
     <path d="M 325.967812 111.175687 
L 508.6 111.175687 
Q 511.4 111.175687 511.4 108.375687 
L 511.4 53 
Q 511.4 50.2 508.6 50.2 
L 325.967812 50.2 
Q 323.167812 50.2 323.167812 53 
L 323.167812 108.375687 
Q 323.167812 111.175687 325.967812 111.175687 
z
" style="fill:#ffffff;opacity:0.8;stroke:#cccccc;stroke-linejoin:miter;"/>
    </g>
    <g id="line2d_19">
     <path d="M 328.767812 61.537812 
L 356.767812 61.537812 
" style="fill:none;stroke:#ff0000;stroke-linecap:square;stroke-width:2;"/>
    </g>
    <g id="line2d_20"/>
    <g id="text_20">
     <!-- Front speed -->
     <g transform="translate(367.967812 66.437812)scale(0.14 -0.14)">
      <use xlink:href="#DejaVuSans-46"/>
      <use x="50.269531" xlink:href="#DejaVuSans-72"/>
      <use x="89.132812" xlink:href="#DejaVuSans-6f"/>
      <use x="150.314453" xlink:href="#DejaVuSans-6e"/>
      <use x="213.693359" xlink:href="#DejaVuSans-74"/>
      <use x="252.902344" xlink:href="#DejaVuSans-20"/>
      <use x="284.689453" xlink:href="#DejaVuSans-73"/>
      <use x="336.789062" xlink:href="#DejaVuSans-70"/>
      <use x="400.265625" xlink:href="#DejaVuSans-65"/>
      <use x="461.789062" xlink:href="#DejaVuSans-65"/>
      <use x="523.3125" xlink:href="#DejaVuSans-64"/>
     </g>
    </g>
    <g id="line2d_21">
     <path d="M 328.767812 91.381437 
L 356.767812 91.381437 
" style="fill:none;stroke:#000000;stroke-dasharray:5.55,2.4;stroke-dashoffset:0;stroke-width:1.5;"/>
    </g>
    <g id="line2d_22"/>
    <g id="text_21">
     <!-- Steady state -->
     <g transform="translate(367.967812 86.987187)scale(0.14 -0.14)">
      <defs>
       <path d="M 2059 -325 
Q 1816 -950 1584 -1140 
Q 1353 -1331 966 -1331 
L 506 -1331 
L 506 -850 
L 844 -850 
Q 1081 -850 1212 -737 
Q 1344 -625 1503 -206 
L 1606 56 
L 191 3500 
L 800 3500 
L 1894 763 
L 2988 3500 
L 3597 3500 
L 2059 -325 
z
" id="DejaVuSans-79" transform="scale(0.015625)"/>
      </defs>
      <use xlink:href="#DejaVuSans-53"/>
      <use x="63.476562" xlink:href="#DejaVuSans-74"/>
      <use x="102.685547" xlink:href="#DejaVuSans-65"/>
      <use x="164.208984" xlink:href="#DejaVuSans-61"/>
      <use x="225.488281" xlink:href="#DejaVuSans-64"/>
      <use x="288.964844" xlink:href="#DejaVuSans-79"/>
      <use x="348.144531" xlink:href="#DejaVuSans-20"/>
      <use x="379.931641" xlink:href="#DejaVuSans-73"/>
      <use x="432.03125" xlink:href="#DejaVuSans-74"/>
      <use x="471.240234" xlink:href="#DejaVuSans-61"/>
      <use x="532.519531" xlink:href="#DejaVuSans-74"/>
      <use x="571.728516" xlink:href="#DejaVuSans-65"/>
     </g>
     <!-- speed = 0.68 mm/s -->
     <g transform="translate(367.967812 102.664125)scale(0.14 -0.14)">
      <defs>
       <path d="M 678 2906 
L 4684 2906 
L 4684 2381 
L 678 2381 
L 678 2906 
z
M 678 1631 
L 4684 1631 
L 4684 1100 
L 678 1100 
L 678 1631 
z
" id="DejaVuSans-3d" transform="scale(0.015625)"/>
       <path d="M 2113 2584 
Q 1688 2584 1439 2293 
Q 1191 2003 1191 1497 
Q 1191 994 1439 701 
Q 1688 409 2113 409 
Q 2538 409 2786 701 
Q 3034 994 3034 1497 
Q 3034 2003 2786 2293 
Q 2538 2584 2113 2584 
z
M 3366 4563 
L 3366 3988 
Q 3128 4100 2886 4159 
Q 2644 4219 2406 4219 
Q 1781 4219 1451 3797 
Q 1122 3375 1075 2522 
Q 1259 2794 1537 2939 
Q 1816 3084 2150 3084 
Q 2853 3084 3261 2657 
Q 3669 2231 3669 1497 
Q 3669 778 3244 343 
Q 2819 -91 2113 -91 
Q 1303 -91 875 529 
Q 447 1150 447 2328 
Q 447 3434 972 4092 
Q 1497 4750 2381 4750 
Q 2619 4750 2861 4703 
Q 3103 4656 3366 4563 
z
" id="DejaVuSans-36" transform="scale(0.015625)"/>
       <path d="M 2034 2216 
Q 1584 2216 1326 1975 
Q 1069 1734 1069 1313 
Q 1069 891 1326 650 
Q 1584 409 2034 409 
Q 2484 409 2743 651 
Q 3003 894 3003 1313 
Q 3003 1734 2745 1975 
Q 2488 2216 2034 2216 
z
M 1403 2484 
Q 997 2584 770 2862 
Q 544 3141 544 3541 
Q 544 4100 942 4425 
Q 1341 4750 2034 4750 
Q 2731 4750 3128 4425 
Q 3525 4100 3525 3541 
Q 3525 3141 3298 2862 
Q 3072 2584 2669 2484 
Q 3125 2378 3379 2068 
Q 3634 1759 3634 1313 
Q 3634 634 3220 271 
Q 2806 -91 2034 -91 
Q 1263 -91 848 271 
Q 434 634 434 1313 
Q 434 1759 690 2068 
Q 947 2378 1403 2484 
z
M 1172 3481 
Q 1172 3119 1398 2916 
Q 1625 2713 2034 2713 
Q 2441 2713 2670 2916 
Q 2900 3119 2900 3481 
Q 2900 3844 2670 4047 
Q 2441 4250 2034 4250 
Q 1625 4250 1398 4047 
Q 1172 3844 1172 3481 
z
" id="DejaVuSans-38" transform="scale(0.015625)"/>
      </defs>
      <use xlink:href="#DejaVuSans-73"/>
      <use x="52.099609" xlink:href="#DejaVuSans-70"/>
      <use x="115.576172" xlink:href="#DejaVuSans-65"/>
      <use x="177.099609" xlink:href="#DejaVuSans-65"/>
      <use x="238.623047" xlink:href="#DejaVuSans-64"/>
      <use x="302.099609" xlink:href="#DejaVuSans-20"/>
      <use x="333.886719" xlink:href="#DejaVuSans-3d"/>
      <use x="417.675781" xlink:href="#DejaVuSans-20"/>
      <use x="449.462891" xlink:href="#DejaVuSans-30"/>
      <use x="513.085938" xlink:href="#DejaVuSans-2e"/>
      <use x="544.873047" xlink:href="#DejaVuSans-36"/>
      <use x="608.496094" xlink:href="#DejaVuSans-38"/>
      <use x="672.119141" xlink:href="#DejaVuSans-20"/>
      <use x="703.90625" xlink:href="#DejaVuSans-6d"/>
      <use x="801.318359" xlink:href="#DejaVuSans-6d"/>
      <use x="898.730469" xlink:href="#DejaVuSans-2f"/>
      <use x="932.421875" xlink:href="#DejaVuSans-73"/>
     </g>
    </g>
   </g>
  </g>
 </g>
 <defs>
  <clipPath id="pca32ea6768">
   <rect height="277.2" width="446.4" x="72" y="43.2"/>
  </clipPath>
 </defs>
</svg>
