<?xml version="1.0" encoding="utf-8" standalone="no"?>
<!DOCTYPE svg PUBLIC "-//W3C//DTD SVG 1.1//EN"
  "http://www.w3.org/Graphics/SVG/1.1/DTD/svg11.dtd">
<svg height="360pt" version="1.1" viewBox="0 0 576 360" width="576pt" xmlns="http://www.w3.org/2000/svg" xmlns:xlink="http://www.w3.org/1999/xlink">
 <metadata>
  <rdf:RDF xmlns:cc="http://creativecommons.org/ns#" xmlns:dc="http://purl.org/dc/elements/1.1/" xmlns:rdf="http://www.w3.org/1999/02/22-rdf-syntax-ns#">
   <cc:Work>
    <dc:type rdf:resource="http://purl.org/dc/dcmitype/StillImage"/>
    <dc:date>2022-06-30T14:37:48.230609</dc:date>
    <dc:format>image/svg+xml</dc:format>
    <dc:creator>
     <cc:Agent>
      <dc:title>Matplotlib v3.4.3, https://matplotlib.org/</dc:title>
     </cc:Agent>
    </dc:creator>
   </cc:Work>
  </rdf:RDF>
 </metadata>
 <defs>
  <style type="text/css">*{stroke-linecap:butt;stroke-linejoin:round;}</style>
 </defs>
 <g id="figure_1">
  <g id="patch_1">
   <path d="M 0 360 
L 576 360 
L 576 0 
L 0 0 
z
" style="fill:#ffffff;"/>
  </g>
  <g id="axes_1">
   <g id="patch_2">
    <path d="M 72 320.4 
L 518.4 320.4 
L 518.4 43.2 
L 72 43.2 
z
" style="fill:#ffffff;"/>
   </g>
   <g id="PolyCollection_1">
    <defs>
     <path d="M 72 -185.971441 
L 72 -189.732994 
L 72.492172 -189.732994 
L 72.984344 -189.732994 
L 73.476516 -189.732994 
L 73.968688 -189.732994 
L 74.46086 -189.732994 
L 74.953032 -189.732994 
L 75.445204 -189.732994 
L 75.937376 -189.732994 
L 76.429548 -189.732994 
L 76.92172 -189.732994 
L 77.413892 -189.732994 
L 77.906064 -189.732994 
L 78.398236 -189.732994 
L 78.890408 -189.732994 
L 79.38258 -189.732994 
L 79.874752 -189.732994 
L 80.366924 -189.732994 
L 80.859096 -189.732994 
L 81.351268 -189.732994 
L 81.84344 -189.732994 
L 82.335612 -189.732994 
L 82.827784 -189.732994 
L 83.319956 -189.732994 
L 83.812128 -189.732994 
L 84.3043 -189.732994 
L 84.796472 -189.732994 
L 85.288644 -189.732994 
L 85.780816 -189.732994 
L 86.272988 -189.732994 
L 86.76516 -189.732994 
L 87.257332 -189.732994 
L 87.749504 -189.732994 
L 88.241676 -189.732994 
L 88.733848 -189.732994 
L 89.22602 -189.732994 
L 89.718192 -189.732994 
L 90.210364 -189.732994 
L 90.702536 -189.732994 
L 91.194708 -189.732994 
L 91.68688 -189.732994 
L 92.179052 -189.732994 
L 92.671224 -189.732994 
L 93.163396 -189.732994 
L 93.655568 -189.732994 
L 94.14774 -189.732994 
L 94.639912 -189.732994 
L 95.132084 -189.732994 
L 95.624256 -189.732994 
L 96.116428 -189.732994 
L 96.6086 -189.732994 
L 97.100772 -189.732994 
L 97.592944 -189.732994 
L 98.085116 -189.732994 
L 98.577288 -189.732994 
L 99.06946 -189.732994 
L 99.561632 -189.732994 
L 100.053804 -189.732994 
L 100.545976 -189.732994 
L 101.038148 -189.732994 
L 101.53032 -189.732994 
L 102.022492 -189.732994 
L 102.514664 -189.732994 
L 103.006836 -189.732994 
L 103.499008 -189.732994 
L 103.99118 -189.732994 
L 104.483352 -189.732994 
L 104.975524 -189.732994 
L 105.467696 -189.732994 
L 105.959868 -189.732994 
L 106.45204 -189.732994 
L 106.944212 -189.732994 
L 107.436384 -189.732994 
L 107.928556 -189.732994 
L 108.420728 -189.732994 
L 108.9129 -189.732994 
L 109.405072 -189.732994 
L 109.897244 -189.732994 
L 110.389416 -189.732994 
L 110.881588 -189.732994 
L 111.37376 -189.732994 
L 111.865932 -189.732994 
L 112.358104 -189.732994 
L 112.850276 -189.732994 
L 113.342448 -189.732994 
L 113.83462 -189.732994 
L 114.326792 -189.732994 
L 114.818964 -189.732994 
L 115.311136 -189.732994 
L 115.803308 -189.732994 
L 116.29548 -189.732994 
L 116.787652 -189.732994 
L 117.279824 -189.732994 
L 117.771996 -189.732994 
L 118.264168 -189.732994 
L 118.75634 -189.732994 
L 119.248512 -189.732994 
L 119.740684 -189.732994 
L 120.232856 -189.732994 
L 120.725028 -189.732994 
L 121.2172 -189.732994 
L 121.709372 -189.732994 
L 122.201544 -189.732994 
L 122.693716 -189.732994 
L 123.185888 -189.732994 
L 123.67806 -189.732994 
L 124.170232 -189.732994 
L 124.662404 -189.732994 
L 125.154576 -189.732994 
L 125.646748 -189.732994 
L 126.13892 -189.732994 
L 126.631092 -189.732994 
L 127.123264 -189.732994 
L 127.615436 -189.732994 
L 128.107607 -189.732994 
L 128.599779 -189.732994 
L 129.091951 -189.732994 
L 129.584123 -189.732994 
L 130.076295 -189.732994 
L 130.568467 -189.732994 
L 131.060639 -189.732994 
L 131.552811 -189.732994 
L 132.044983 -189.732994 
L 132.537155 -189.732994 
L 133.029327 -189.732994 
L 133.521499 -189.732994 
L 134.013671 -189.732994 
L 134.505843 -189.732994 
L 134.998015 -189.732994 
L 135.490187 -189.732994 
L 135.982359 -189.732994 
L 136.474531 -189.732994 
L 136.966703 -189.732994 
L 137.458875 -189.732994 
L 137.951047 -189.732994 
L 138.443219 -189.732994 
L 138.935391 -189.732994 
L 139.427563 -189.732994 
L 139.919735 -189.732994 
L 140.411907 -189.732994 
L 140.904079 -189.732994 
L 141.396251 -189.732994 
L 141.888423 -189.732994 
L 142.380595 -189.732994 
L 142.872767 -189.732994 
L 143.364939 -189.732994 
L 143.857111 -189.732994 
L 144.349283 -189.732994 
L 144.841455 -189.732994 
L 145.333627 -189.732994 
L 145.825799 -189.732994 
L 146.317971 -189.732994 
L 146.810143 -189.732994 
L 147.302315 -189.732994 
L 147.794487 -189.732994 
L 148.286659 -189.732994 
L 148.778831 -189.732994 
L 149.271003 -189.732994 
L 149.763175 -189.732994 
L 150.255347 -189.732994 
L 150.747519 -189.732994 
L 151.239691 -189.732994 
L 151.731863 -189.732994 
L 152.224035 -189.732994 
L 152.716207 -189.732994 
L 153.208379 -189.732994 
L 153.700551 -189.732994 
L 154.192723 -189.732994 
L 154.684895 -189.732994 
L 155.177067 -189.732994 
L 155.669239 -189.732994 
L 156.161411 -189.732994 
L 156.653583 -189.732994 
L 157.145755 -189.732994 
L 157.637927 -189.732994 
L 158.130099 -189.732994 
L 158.622271 -189.732994 
L 159.114443 -189.732994 
L 159.606615 -189.732994 
L 160.098787 -189.732994 
L 160.590959 -189.732994 
L 161.083131 -189.732994 
L 161.575303 -189.732994 
L 162.067475 -189.732994 
L 162.559647 -189.732994 
L 163.051819 -189.732994 
L 163.543991 -189.732994 
L 164.036163 -189.732994 
L 164.528335 -189.732994 
L 165.020507 -189.732994 
L 165.512679 -189.732994 
L 166.004851 -189.732994 
L 166.497023 -189.732994 
L 166.989195 -189.732994 
L 167.481367 -189.732994 
L 167.973539 -189.732994 
L 168.465711 -189.732994 
L 168.957883 -189.732994 
L 169.450055 -189.732994 
L 169.942227 -189.732994 
L 170.434399 -189.732994 
L 170.926571 -189.732994 
L 171.418743 -189.732994 
L 171.910915 -189.732994 
L 172.403087 -189.732994 
L 172.895259 -189.732994 
L 173.387431 -189.732994 
L 173.879603 -189.732994 
L 174.371775 -189.732994 
L 174.863947 -189.732994 
L 175.356119 -189.732994 
L 175.848291 -189.732994 
L 176.340463 -189.732994 
L 176.832635 -189.732994 
L 177.324807 -189.732994 
L 177.816979 -189.732994 
L 178.309151 -189.732994 
L 178.801323 -189.732994 
L 179.293495 -189.732994 
L 179.785667 -189.732994 
L 180.277839 -189.732994 
L 180.770011 -189.732994 
L 181.262183 -189.732994 
L 181.754355 -189.732994 
L 182.246527 -189.732994 
L 182.738699 -189.732994 
L 183.230871 -189.732994 
L 183.723043 -189.732994 
L 184.215215 -189.732994 
L 184.707387 -189.732994 
L 185.199559 -189.732994 
L 185.691731 -189.732994 
L 186.183903 -189.732994 
L 186.676075 -189.732994 
L 187.168247 -189.732994 
L 187.660419 -189.732994 
L 188.152591 -189.732994 
L 188.644763 -189.732994 
L 189.136935 -189.732994 
L 189.629107 -189.732994 
L 190.121279 -189.732994 
L 190.613451 -189.732994 
L 191.105623 -189.732994 
L 191.597795 -189.732994 
L 192.089967 -189.732994 
L 192.582139 -189.732994 
L 193.074311 -189.732994 
L 193.566483 -189.732994 
L 194.058655 -189.732994 
L 194.550827 -189.732994 
L 195.042999 -189.732994 
L 195.535171 -189.732994 
L 196.027343 -189.732994 
L 196.519515 -189.732994 
L 197.011687 -189.732994 
L 197.503859 -189.732994 
L 197.996031 -189.732994 
L 198.488203 -189.732994 
L 198.980375 -189.732994 
L 199.472547 -189.732994 
L 199.964719 -189.732994 
L 200.456891 -189.732994 
L 200.949063 -189.732994 
L 201.441235 -189.732994 
L 201.933407 -189.732994 
L 202.425579 -189.732994 
L 202.917751 -189.732994 
L 203.409923 -189.732994 
L 203.902095 -189.732994 
L 204.394267 -189.732994 
L 204.886439 -189.732994 
L 205.378611 -189.732994 
L 205.870783 -189.732994 
L 206.362955 -189.732994 
L 206.855127 -189.732994 
L 207.347299 -189.732994 
L 207.839471 -189.732994 
L 208.331643 -189.732994 
L 208.823815 -189.732994 
L 209.315987 -189.732994 
L 209.808159 -189.732994 
L 210.300331 -189.732994 
L 210.792503 -189.732994 
L 211.284675 -189.732994 
L 211.776847 -189.732994 
L 212.269019 -189.732994 
L 212.761191 -189.732994 
L 213.253363 -189.732994 
L 213.745535 -189.732994 
L 214.237707 -189.732994 
L 214.729879 -189.732994 
L 215.222051 -189.732994 
L 215.714223 -189.732994 
L 216.206395 -189.732994 
L 216.698567 -189.732994 
L 217.190739 -189.732994 
L 217.682911 -189.732994 
L 218.175083 -189.732994 
L 218.667255 -189.732994 
L 219.159427 -189.732994 
L 219.651599 -189.732994 
L 220.143771 -189.732994 
L 220.635943 -189.732994 
L 221.128115 -189.732994 
L 221.620287 -189.732994 
L 222.112459 -189.732994 
L 222.604631 -189.732994 
L 223.096803 -189.732994 
L 223.588975 -189.732994 
L 224.081147 -189.732994 
L 224.573319 -189.732994 
L 225.065491 -189.732994 
L 225.557663 -189.732994 
L 226.049835 -189.732994 
L 226.542007 -189.732994 
L 227.034179 -189.732994 
L 227.526351 -189.732994 
L 228.018523 -189.732994 
L 228.510695 -189.732994 
L 229.002867 -189.732994 
L 229.495039 -189.732994 
L 229.987211 -189.732994 
L 230.479383 -189.732994 
L 230.971555 -189.732994 
L 231.463727 -189.732994 
L 231.955899 -189.732994 
L 232.448071 -189.732994 
L 232.940243 -189.732994 
L 233.432415 -189.732994 
L 233.924587 -189.732994 
L 234.416759 -189.732994 
L 234.908931 -189.732994 
L 235.401103 -189.732994 
L 235.893275 -189.732994 
L 236.385447 -189.732994 
L 236.877619 -189.732994 
L 237.369791 -189.732994 
L 237.861963 -189.732994 
L 238.354135 -189.732994 
L 238.846307 -189.732994 
L 239.338479 -189.732994 
L 239.83065 -189.732994 
L 240.322822 -189.732994 
L 240.814994 -189.732994 
L 241.307166 -189.732994 
L 241.799338 -189.732994 
L 242.29151 -189.732994 
L 242.783682 -189.732994 
L 243.275854 -189.732994 
L 243.768026 -189.732994 
L 244.260198 -189.732994 
L 244.75237 -189.732994 
L 245.244542 -189.732994 
L 245.736714 -189.732994 
L 246.228886 -189.732994 
L 246.721058 -189.732994 
L 247.21323 -189.732994 
L 247.705402 -189.732994 
L 248.197574 -189.732994 
L 248.689746 -189.732994 
L 249.181918 -189.732994 
L 249.67409 -189.732994 
L 250.166262 -189.732994 
L 250.658434 -189.732994 
L 251.150606 -189.732994 
L 251.642778 -189.732994 
L 252.13495 -189.732994 
L 252.627122 -189.732994 
L 253.119294 -189.732994 
L 253.611466 -189.732994 
L 254.103638 -189.732994 
L 254.59581 -189.732994 
L 255.087982 -189.732994 
L 255.580154 -189.732994 
L 256.072326 -189.732994 
L 256.564498 -189.732994 
L 257.05667 -189.732994 
L 257.548842 -189.732994 
L 258.041014 -189.732994 
L 258.533186 -189.732994 
L 259.025358 -189.732994 
L 259.51753 -189.732994 
L 260.009702 -189.732994 
L 260.501874 -189.732994 
L 260.994046 -189.732994 
L 261.486218 -189.732994 
L 261.97839 -189.732994 
L 262.470562 -189.732994 
L 262.962734 -189.732994 
L 263.454906 -189.732994 
L 263.947078 -189.732994 
L 264.43925 -189.732994 
L 264.931422 -189.732994 
L 265.423594 -189.732994 
L 265.915766 -189.732994 
L 266.407938 -189.732994 
L 266.90011 -189.732994 
L 267.392282 -189.732994 
L 267.884454 -189.732994 
L 268.376626 -189.732994 
L 268.868798 -189.732994 
L 269.36097 -189.732994 
L 269.853142 -189.732994 
L 270.345314 -189.732994 
L 270.837486 -189.732994 
L 271.329658 -189.732994 
L 271.82183 -189.732994 
L 272.314002 -189.732994 
L 272.806174 -189.732994 
L 273.298346 -189.732994 
L 273.790518 -189.732994 
L 274.28269 -189.732994 
L 274.774862 -189.732994 
L 275.267034 -189.732994 
L 275.759206 -189.732994 
L 276.251378 -189.732994 
L 276.74355 -189.732994 
L 277.235722 -189.732994 
L 277.727894 -189.732994 
L 278.220066 -189.732994 
L 278.712238 -189.732994 
L 279.20441 -189.732994 
L 279.696582 -189.732994 
L 280.188754 -189.732994 
L 280.680926 -189.732994 
L 281.173098 -189.732994 
L 281.66527 -189.732994 
L 282.157442 -189.732994 
L 282.649614 -189.732994 
L 283.141786 -189.732994 
L 283.633958 -189.732994 
L 284.12613 -189.732994 
L 284.618302 -189.732994 
L 285.110474 -189.732994 
L 285.602646 -189.732994 
L 286.094818 -189.732994 
L 286.58699 -189.732994 
L 287.079162 -189.732994 
L 287.571334 -189.732994 
L 288.063506 -189.732994 
L 288.555678 -189.732994 
L 289.04785 -189.732994 
L 289.540022 -189.732994 
L 290.032194 -189.732994 
L 290.524366 -189.732994 
L 291.016538 -189.732994 
L 291.50871 -189.732994 
L 292.000882 -189.732994 
L 292.493054 -189.732994 
L 292.985226 -189.732994 
L 293.477398 -189.732994 
L 293.96957 -189.732994 
L 294.461742 -189.732994 
L 294.953914 -189.732994 
L 295.446086 -189.732994 
L 295.938258 -189.732994 
L 296.43043 -189.732994 
L 296.922602 -189.732994 
L 297.414774 -189.732994 
L 297.906946 -189.732994 
L 298.399118 -189.732994 
L 298.89129 -189.732994 
L 299.383462 -189.732994 
L 299.875634 -189.732994 
L 300.367806 -189.732994 
L 300.859978 -189.732994 
L 301.35215 -189.732994 
L 301.844322 -189.732994 
L 302.336494 -189.732994 
L 302.828666 -189.732994 
L 303.320838 -189.732994 
L 303.81301 -189.732994 
L 304.305182 -189.732994 
L 304.797354 -189.732994 
L 305.289526 -189.732994 
L 305.781698 -189.732994 
L 306.27387 -189.732994 
L 306.766042 -189.732994 
L 307.258214 -189.732994 
L 307.750386 -189.732994 
L 308.242558 -189.732994 
L 308.73473 -189.732994 
L 309.226902 -189.732994 
L 309.719074 -189.732994 
L 310.211246 -189.732994 
L 310.703418 -189.732994 
L 311.19559 -189.732994 
L 311.687762 -189.732994 
L 312.179934 -189.732994 
L 312.672106 -189.732994 
L 313.164278 -189.732994 
L 313.65645 -189.732994 
L 314.148622 -189.732994 
L 314.640794 -189.732994 
L 315.132966 -189.732994 
L 315.625138 -189.732994 
L 316.11731 -189.732994 
L 316.609482 -189.732994 
L 317.101654 -189.732994 
L 317.593826 -189.732994 
L 318.085998 -189.732994 
L 318.57817 -189.732994 
L 319.070342 -189.732994 
L 319.562514 -189.732994 
L 320.054686 -189.732994 
L 320.546858 -189.732994 
L 321.03903 -189.732994 
L 321.531202 -189.732994 
L 322.023374 -189.732994 
L 322.515546 -189.732994 
L 323.007718 -189.732994 
L 323.49989 -189.732994 
L 323.992062 -189.732994 
L 324.484234 -189.732994 
L 324.976406 -189.732994 
L 325.468578 -189.732994 
L 325.96075 -189.732994 
L 326.452922 -189.732994 
L 326.945094 -189.732994 
L 327.437266 -189.732994 
L 327.929438 -189.732994 
L 328.42161 -189.732994 
L 328.913782 -189.732994 
L 329.405954 -189.732994 
L 329.898126 -189.732994 
L 330.390298 -189.732994 
L 330.88247 -189.732994 
L 331.374642 -189.732994 
L 331.866814 -189.732994 
L 332.358986 -189.732994 
L 332.851158 -189.732994 
L 333.34333 -189.732994 
L 333.835502 -189.732994 
L 334.327674 -189.732994 
L 334.819846 -189.732994 
L 335.312018 -189.732994 
L 335.80419 -189.732994 
L 336.296362 -189.732994 
L 336.788534 -189.732994 
L 337.280706 -189.732994 
L 337.772878 -189.732994 
L 338.26505 -189.732994 
L 338.757222 -189.732994 
L 339.249394 -189.732994 
L 339.741566 -189.732994 
L 340.233738 -189.732994 
L 340.72591 -189.732994 
L 341.218082 -189.732994 
L 341.710254 -189.732994 
L 342.202426 -189.732994 
L 342.694598 -189.732994 
L 343.18677 -189.732994 
L 343.678942 -189.732994 
L 344.171114 -189.732994 
L 344.663286 -189.732994 
L 345.155458 -189.732994 
L 345.64763 -189.732994 
L 346.139802 -189.732994 
L 346.631974 -189.732994 
L 347.124146 -189.732994 
L 347.616318 -189.732994 
L 348.10849 -189.732994 
L 348.600662 -189.732994 
L 349.092834 -189.732994 
L 349.585006 -189.732994 
L 350.077178 -189.732994 
L 350.56935 -189.732994 
L 351.061521 -189.732994 
L 351.553693 -189.732994 
L 352.045865 -189.732994 
L 352.538037 -189.732994 
L 353.030209 -189.732994 
L 353.522381 -189.732994 
L 354.014553 -189.732994 
L 354.506725 -189.732994 
L 354.998897 -189.732994 
L 355.491069 -189.732994 
L 355.983241 -189.732994 
L 356.475413 -189.732994 
L 356.967585 -189.732994 
L 357.459757 -189.732994 
L 357.951929 -189.732994 
L 358.444101 -189.732994 
L 358.936273 -189.732994 
L 359.428445 -189.732994 
L 359.920617 -189.732994 
L 360.412789 -189.732994 
L 360.904961 -189.732994 
L 361.397133 -189.732994 
L 361.889305 -189.732994 
L 362.381477 -189.732994 
L 362.873649 -189.732994 
L 363.365821 -189.732994 
L 363.857993 -189.732994 
L 364.350165 -189.732994 
L 364.842337 -189.732994 
L 365.334509 -189.732994 
L 365.826681 -189.732994 
L 366.318853 -189.732994 
L 366.811025 -189.732994 
L 367.303197 -189.732994 
L 367.795369 -189.732994 
L 368.287541 -189.732994 
L 368.779713 -189.732994 
L 369.271885 -189.732994 
L 369.764057 -189.732994 
L 370.256229 -189.732994 
L 370.748401 -189.732994 
L 371.240573 -189.732994 
L 371.732745 -189.732994 
L 372.224917 -189.732994 
L 372.717089 -189.732994 
L 373.209261 -189.732994 
L 373.701433 -189.732994 
L 374.193605 -189.732994 
L 374.685777 -189.732994 
L 375.177949 -189.732994 
L 375.670121 -189.732994 
L 376.162293 -189.732994 
L 376.654465 -189.732994 
L 377.146637 -189.732994 
L 377.638809 -189.732994 
L 378.130981 -189.732994 
L 378.623153 -189.732994 
L 379.115325 -189.732994 
L 379.607497 -189.732994 
L 380.099669 -189.732994 
L 380.591841 -189.732994 
L 381.084013 -189.732994 
L 381.576185 -189.732994 
L 382.068357 -189.732994 
L 382.560529 -189.732994 
L 383.052701 -189.732994 
L 383.544873 -189.732994 
L 384.037045 -189.732994 
L 384.529217 -189.732994 
L 385.021389 -189.732994 
L 385.513561 -189.732994 
L 386.005733 -189.732994 
L 386.497905 -189.732994 
L 386.990077 -189.732994 
L 387.482249 -189.732994 
L 387.974421 -189.732994 
L 388.466593 -189.732994 
L 388.958765 -189.732994 
L 389.450937 -189.732994 
L 389.943109 -189.732994 
L 390.435281 -189.732994 
L 390.927453 -189.732994 
L 391.419625 -189.732994 
L 391.911797 -189.732994 
L 392.403969 -189.732994 
L 392.896141 -189.732994 
L 393.388313 -189.732994 
L 393.880485 -189.732994 
L 394.372657 -189.732994 
L 394.864829 -189.732994 
L 395.357001 -189.732994 
L 395.849173 -189.732994 
L 396.341345 -189.732994 
L 396.833517 -189.732994 
L 397.325689 -189.732994 
L 397.817861 -189.732994 
L 398.310033 -189.732994 
L 398.802205 -189.732994 
L 399.294377 -189.732994 
L 399.786549 -189.732994 
L 400.278721 -189.732994 
L 400.770893 -189.732994 
L 401.263065 -189.732994 
L 401.755237 -189.732994 
L 402.247409 -189.732994 
L 402.739581 -189.732994 
L 403.231753 -189.732994 
L 403.723925 -189.732994 
L 404.216097 -189.732994 
L 404.708269 -189.732994 
L 405.200441 -189.732994 
L 405.692613 -189.732994 
L 406.184785 -189.732994 
L 406.676957 -189.732994 
L 407.169129 -189.732994 
L 407.661301 -189.732994 
L 408.153473 -189.732994 
L 408.645645 -189.732994 
L 409.137817 -189.732994 
L 409.629989 -189.732994 
L 410.122161 -189.732994 
L 410.614333 -189.732994 
L 411.106505 -189.732994 
L 411.598677 -189.732994 
L 412.090849 -189.732994 
L 412.583021 -189.732994 
L 413.075193 -189.732994 
L 413.567365 -189.732994 
L 414.059537 -189.732994 
L 414.551709 -189.732994 
L 415.043881 -189.732994 
L 415.536053 -189.732994 
L 416.028225 -189.732994 
L 416.520397 -189.732994 
L 417.012569 -189.732994 
L 417.504741 -189.732994 
L 417.996913 -189.732994 
L 418.489085 -189.732994 
L 418.981257 -189.732994 
L 419.473429 -189.732994 
L 419.965601 -189.732994 
L 420.457773 -189.732994 
L 420.949945 -189.732994 
L 421.442117 -189.732994 
L 421.934289 -189.732994 
L 422.426461 -189.732994 
L 422.918633 -189.732994 
L 423.410805 -189.732994 
L 423.902977 -189.732994 
L 424.395149 -189.732994 
L 424.887321 -189.732994 
L 425.379493 -189.732994 
L 425.871665 -189.732994 
L 426.363837 -189.732994 
L 426.856009 -189.732994 
L 427.348181 -189.732994 
L 427.840353 -189.732994 
L 428.332525 -189.732994 
L 428.824697 -189.732994 
L 429.316869 -189.732994 
L 429.809041 -189.732994 
L 430.301213 -189.732994 
L 430.793385 -189.732994 
L 431.285557 -189.732994 
L 431.777729 -189.732994 
L 432.269901 -189.732994 
L 432.762073 -189.732994 
L 433.254245 -189.732994 
L 433.746417 -189.732994 
L 434.238589 -189.732994 
L 434.730761 -189.732994 
L 435.222933 -189.732994 
L 435.715105 -189.732994 
L 436.207277 -189.732994 
L 436.699449 -189.732994 
L 437.191621 -189.732994 
L 437.683793 -189.732994 
L 438.175965 -189.732994 
L 438.668137 -189.732994 
L 439.160309 -189.732994 
L 439.652481 -189.732994 
L 440.144653 -189.732994 
L 440.636825 -189.732994 
L 441.128997 -189.732994 
L 441.621169 -189.732994 
L 442.113341 -189.732994 
L 442.605513 -189.732994 
L 443.097685 -189.732994 
L 443.589857 -189.732994 
L 444.082029 -189.732994 
L 444.574201 -189.732994 
L 445.066373 -189.732994 
L 445.558545 -189.732994 
L 446.050717 -189.732994 
L 446.542889 -189.732994 
L 447.035061 -189.732994 
L 447.527233 -189.732994 
L 448.019405 -189.732994 
L 448.511577 -189.732994 
L 449.003749 -189.732994 
L 449.495921 -189.732994 
L 449.988093 -189.732994 
L 450.480265 -189.732994 
L 450.972437 -189.732994 
L 451.464609 -189.732994 
L 451.956781 -189.732994 
L 452.448953 -189.732994 
L 452.941125 -189.732994 
L 453.433297 -189.732994 
L 453.925469 -189.732994 
L 454.417641 -189.732994 
L 454.909813 -189.732994 
L 455.401985 -189.732994 
L 455.894157 -189.732994 
L 456.386329 -189.732994 
L 456.878501 -189.732994 
L 457.370673 -189.732994 
L 457.862845 -189.732994 
L 458.355017 -189.732994 
L 458.847189 -189.732994 
L 459.339361 -189.732994 
L 459.831533 -189.732994 
L 460.323705 -189.732994 
L 460.815877 -189.732994 
L 461.308049 -189.732994 
L 461.800221 -189.732994 
L 462.292393 -189.732994 
L 462.784564 -189.732994 
L 463.276736 -189.732994 
L 463.768908 -189.732994 
L 464.26108 -189.732994 
L 464.753252 -189.732994 
L 465.245424 -189.732994 
L 465.737596 -189.732994 
L 466.229768 -189.732994 
L 466.72194 -189.732994 
L 467.214112 -189.732994 
L 467.706284 -189.732994 
L 468.198456 -189.732994 
L 468.690628 -189.732994 
L 469.1828 -189.732994 
L 469.674972 -189.732994 
L 470.167144 -189.732994 
L 470.659316 -189.732994 
L 471.151488 -189.732994 
L 471.64366 -189.732994 
L 472.135832 -189.732994 
L 472.628004 -189.732994 
L 473.120176 -189.732994 
L 473.612348 -189.732994 
L 474.10452 -189.732994 
L 474.596692 -189.732994 
L 475.088864 -189.732994 
L 475.581036 -189.732994 
L 476.073208 -189.732994 
L 476.56538 -189.732994 
L 477.057552 -189.732994 
L 477.549724 -189.732994 
L 478.041896 -189.732994 
L 478.534068 -189.732994 
L 479.02624 -189.732994 
L 479.518412 -189.732994 
L 480.010584 -189.732994 
L 480.502756 -189.732994 
L 480.994928 -189.732994 
L 481.4871 -189.732994 
L 481.979272 -189.732994 
L 482.471444 -189.732994 
L 482.963616 -189.732994 
L 483.455788 -189.732994 
L 483.94796 -189.732994 
L 484.440132 -189.732994 
L 484.932304 -189.732994 
L 485.424476 -189.732994 
L 485.916648 -189.732994 
L 486.40882 -189.732994 
L 486.900992 -189.732994 
L 487.393164 -189.732994 
L 487.885336 -189.732994 
L 488.377508 -189.732994 
L 488.86968 -189.732994 
L 489.361852 -189.732994 
L 489.854024 -189.732994 
L 490.346196 -189.732994 
L 490.838368 -189.732994 
L 491.33054 -189.732994 
L 491.822712 -189.732994 
L 492.314884 -189.732994 
L 492.807056 -189.732994 
L 493.299228 -189.732994 
L 493.7914 -189.732994 
L 494.283572 -189.732994 
L 494.775744 -189.732994 
L 495.267916 -189.732994 
L 495.760088 -189.732994 
L 496.25226 -189.732994 
L 496.744432 -189.732994 
L 497.236604 -189.732994 
L 497.728776 -189.732994 
L 498.220948 -189.732994 
L 498.71312 -189.732994 
L 499.205292 -189.732994 
L 499.697464 -189.732994 
L 500.189636 -189.732994 
L 500.681808 -189.732994 
L 501.17398 -189.732994 
L 501.666152 -189.732994 
L 502.158324 -189.732994 
L 502.650496 -189.732994 
L 503.142668 -189.732994 
L 503.63484 -189.732994 
L 504.127012 -189.732994 
L 504.619184 -189.732994 
L 505.111356 -189.732994 
L 505.603528 -189.732994 
L 506.0957 -189.732994 
L 506.587872 -189.732994 
L 507.080044 -189.732994 
L 507.572216 -189.732994 
L 508.064388 -189.732994 
L 508.55656 -189.732994 
L 509.048732 -189.732994 
L 509.540904 -189.732994 
L 510.033076 -189.732994 
L 510.525248 -189.732994 
L 511.01742 -189.732994 
L 511.509592 -189.732994 
L 512.001764 -189.732994 
L 512.493936 -189.732994 
L 512.986108 -189.732994 
L 513.47828 -189.732994 
L 513.970452 -189.732994 
L 514.462624 -189.732994 
L 514.954796 -189.732994 
L 515.446968 -189.732994 
L 515.93914 -189.732994 
L 516.431312 -189.732994 
L 516.923484 -189.732994 
L 517.415656 -189.732994 
L 517.907828 -189.732994 
L 518.4 -189.732994 
L 518.4 -185.971441 
L 518.4 -185.971441 
L 517.907828 -185.971441 
L 517.415656 -185.971441 
L 516.923484 -185.971441 
L 516.431312 -185.971441 
L 515.93914 -185.971441 
L 515.446968 -185.971441 
L 514.954796 -185.971441 
L 514.462624 -185.971441 
L 513.970452 -185.971441 
L 513.47828 -185.971441 
L 512.986108 -185.971441 
L 512.493936 -185.971441 
L 512.001764 -185.971441 
L 511.509592 -185.971441 
L 511.01742 -185.971441 
L 510.525248 -185.971441 
L 510.033076 -185.971441 
L 509.540904 -185.971441 
L 509.048732 -185.971441 
L 508.55656 -185.971441 
L 508.064388 -185.971441 
L 507.572216 -185.971441 
L 507.080044 -185.971441 
L 506.587872 -185.971441 
L 506.0957 -185.971441 
L 505.603528 -185.971441 
L 505.111356 -185.971441 
L 504.619184 -185.971441 
L 504.127012 -185.971441 
L 503.63484 -185.971441 
L 503.142668 -185.971441 
L 502.650496 -185.971441 
L 502.158324 -185.971441 
L 501.666152 -185.971441 
L 501.17398 -185.971441 
L 500.681808 -185.971441 
L 500.189636 -185.971441 
L 499.697464 -185.971441 
L 499.205292 -185.971441 
L 498.71312 -185.971441 
L 498.220948 -185.971441 
L 497.728776 -185.971441 
L 497.236604 -185.971441 
L 496.744432 -185.971441 
L 496.25226 -185.971441 
L 495.760088 -185.971441 
L 495.267916 -185.971441 
L 494.775744 -185.971441 
L 494.283572 -185.971441 
L 493.7914 -185.971441 
L 493.299228 -185.971441 
L 492.807056 -185.971441 
L 492.314884 -185.971441 
L 491.822712 -185.971441 
L 491.33054 -185.971441 
L 490.838368 -185.971441 
L 490.346196 -185.971441 
L 489.854024 -185.971441 
L 489.361852 -185.971441 
L 488.86968 -185.971441 
L 488.377508 -185.971441 
L 487.885336 -185.971441 
L 487.393164 -185.971441 
L 486.900992 -185.971441 
L 486.40882 -185.971441 
L 485.916648 -185.971441 
L 485.424476 -185.971441 
L 484.932304 -185.971441 
L 484.440132 -185.971441 
L 483.94796 -185.971441 
L 483.455788 -185.971441 
L 482.963616 -185.971441 
L 482.471444 -185.971441 
L 481.979272 -185.971441 
L 481.4871 -185.971441 
L 480.994928 -185.971441 
L 480.502756 -185.971441 
L 480.010584 -185.971441 
L 479.518412 -185.971441 
L 479.02624 -185.971441 
L 478.534068 -185.971441 
L 478.041896 -185.971441 
L 477.549724 -185.971441 
L 477.057552 -185.971441 
L 476.56538 -185.971441 
L 476.073208 -185.971441 
L 475.581036 -185.971441 
L 475.088864 -185.971441 
L 474.596692 -185.971441 
L 474.10452 -185.971441 
L 473.612348 -185.971441 
L 473.120176 -185.971441 
L 472.628004 -185.971441 
L 472.135832 -185.971441 
L 471.64366 -185.971441 
L 471.151488 -185.971441 
L 470.659316 -185.971441 
L 470.167144 -185.971441 
L 469.674972 -185.971441 
L 469.1828 -185.971441 
L 468.690628 -185.971441 
L 468.198456 -185.971441 
L 467.706284 -185.971441 
L 467.214112 -185.971441 
L 466.72194 -185.971441 
L 466.229768 -185.971441 
L 465.737596 -185.971441 
L 465.245424 -185.971441 
L 464.753252 -185.971441 
L 464.26108 -185.971441 
L 463.768908 -185.971441 
L 463.276736 -185.971441 
L 462.784564 -185.971441 
L 462.292393 -185.971441 
L 461.800221 -185.971441 
L 461.308049 -185.971441 
L 460.815877 -185.971441 
L 460.323705 -185.971441 
L 459.831533 -185.971441 
L 459.339361 -185.971441 
L 458.847189 -185.971441 
L 458.355017 -185.971441 
L 457.862845 -185.971441 
L 457.370673 -185.971441 
L 456.878501 -185.971441 
L 456.386329 -185.971441 
L 455.894157 -185.971441 
L 455.401985 -185.971441 
L 454.909813 -185.971441 
L 454.417641 -185.971441 
L 453.925469 -185.971441 
L 453.433297 -185.971441 
L 452.941125 -185.971441 
L 452.448953 -185.971441 
L 451.956781 -185.971441 
L 451.464609 -185.971441 
L 450.972437 -185.971441 
L 450.480265 -185.971441 
L 449.988093 -185.971441 
L 449.495921 -185.971441 
L 449.003749 -185.971441 
L 448.511577 -185.971441 
L 448.019405 -185.971441 
L 447.527233 -185.971441 
L 447.035061 -185.971441 
L 446.542889 -185.971441 
L 446.050717 -185.971441 
L 445.558545 -185.971441 
L 445.066373 -185.971441 
L 444.574201 -185.971441 
L 444.082029 -185.971441 
L 443.589857 -185.971441 
L 443.097685 -185.971441 
L 442.605513 -185.971441 
L 442.113341 -185.971441 
L 441.621169 -185.971441 
L 441.128997 -185.971441 
L 440.636825 -185.971441 
L 440.144653 -185.971441 
L 439.652481 -185.971441 
L 439.160309 -185.971441 
L 438.668137 -185.971441 
L 438.175965 -185.971441 
L 437.683793 -185.971441 
L 437.191621 -185.971441 
L 436.699449 -185.971441 
L 436.207277 -185.971441 
L 435.715105 -185.971441 
L 435.222933 -185.971441 
L 434.730761 -185.971441 
L 434.238589 -185.971441 
L 433.746417 -185.971441 
L 433.254245 -185.971441 
L 432.762073 -185.971441 
L 432.269901 -185.971441 
L 431.777729 -185.971441 
L 431.285557 -185.971441 
L 430.793385 -185.971441 
L 430.301213 -185.971441 
L 429.809041 -185.971441 
L 429.316869 -185.971441 
L 428.824697 -185.971441 
L 428.332525 -185.971441 
L 427.840353 -185.971441 
L 427.348181 -185.971441 
L 426.856009 -185.971441 
L 426.363837 -185.971441 
L 425.871665 -185.971441 
L 425.379493 -185.971441 
L 424.887321 -185.971441 
L 424.395149 -185.971441 
L 423.902977 -185.971441 
L 423.410805 -185.971441 
L 422.918633 -185.971441 
L 422.426461 -185.971441 
L 421.934289 -185.971441 
L 421.442117 -185.971441 
L 420.949945 -185.971441 
L 420.457773 -185.971441 
L 419.965601 -185.971441 
L 419.473429 -185.971441 
L 418.981257 -185.971441 
L 418.489085 -185.971441 
L 417.996913 -185.971441 
L 417.504741 -185.971441 
L 417.012569 -185.971441 
L 416.520397 -185.971441 
L 416.028225 -185.971441 
L 415.536053 -185.971441 
L 415.043881 -185.971441 
L 414.551709 -185.971441 
L 414.059537 -185.971441 
L 413.567365 -185.971441 
L 413.075193 -185.971441 
L 412.583021 -185.971441 
L 412.090849 -185.971441 
L 411.598677 -185.971441 
L 411.106505 -185.971441 
L 410.614333 -185.971441 
L 410.122161 -185.971441 
L 409.629989 -185.971441 
L 409.137817 -185.971441 
L 408.645645 -185.971441 
L 408.153473 -185.971441 
L 407.661301 -185.971441 
L 407.169129 -185.971441 
L 406.676957 -185.971441 
L 406.184785 -185.971441 
L 405.692613 -185.971441 
L 405.200441 -185.971441 
L 404.708269 -185.971441 
L 404.216097 -185.971441 
L 403.723925 -185.971441 
L 403.231753 -185.971441 
L 402.739581 -185.971441 
L 402.247409 -185.971441 
L 401.755237 -185.971441 
L 401.263065 -185.971441 
L 400.770893 -185.971441 
L 400.278721 -185.971441 
L 399.786549 -185.971441 
L 399.294377 -185.971441 
L 398.802205 -185.971441 
L 398.310033 -185.971441 
L 397.817861 -185.971441 
L 397.325689 -185.971441 
L 396.833517 -185.971441 
L 396.341345 -185.971441 
L 395.849173 -185.971441 
L 395.357001 -185.971441 
L 394.864829 -185.971441 
L 394.372657 -185.971441 
L 393.880485 -185.971441 
L 393.388313 -185.971441 
L 392.896141 -185.971441 
L 392.403969 -185.971441 
L 391.911797 -185.971441 
L 391.419625 -185.971441 
L 390.927453 -185.971441 
L 390.435281 -185.971441 
L 389.943109 -185.971441 
L 389.450937 -185.971441 
L 388.958765 -185.971441 
L 388.466593 -185.971441 
L 387.974421 -185.971441 
L 387.482249 -185.971441 
L 386.990077 -185.971441 
L 386.497905 -185.971441 
L 386.005733 -185.971441 
L 385.513561 -185.971441 
L 385.021389 -185.971441 
L 384.529217 -185.971441 
L 384.037045 -185.971441 
L 383.544873 -185.971441 
L 383.052701 -185.971441 
L 382.560529 -185.971441 
L 382.068357 -185.971441 
L 381.576185 -185.971441 
L 381.084013 -185.971441 
L 380.591841 -185.971441 
L 380.099669 -185.971441 
L 379.607497 -185.971441 
L 379.115325 -185.971441 
L 378.623153 -185.971441 
L 378.130981 -185.971441 
L 377.638809 -185.971441 
L 377.146637 -185.971441 
L 376.654465 -185.971441 
L 376.162293 -185.971441 
L 375.670121 -185.971441 
L 375.177949 -185.971441 
L 374.685777 -185.971441 
L 374.193605 -185.971441 
L 373.701433 -185.971441 
L 373.209261 -185.971441 
L 372.717089 -185.971441 
L 372.224917 -185.971441 
L 371.732745 -185.971441 
L 371.240573 -185.971441 
L 370.748401 -185.971441 
L 370.256229 -185.971441 
L 369.764057 -185.971441 
L 369.271885 -185.971441 
L 368.779713 -185.971441 
L 368.287541 -185.971441 
L 367.795369 -185.971441 
L 367.303197 -185.971441 
L 366.811025 -185.971441 
L 366.318853 -185.971441 
L 365.826681 -185.971441 
L 365.334509 -185.971441 
L 364.842337 -185.971441 
L 364.350165 -185.971441 
L 363.857993 -185.971441 
L 363.365821 -185.971441 
L 362.873649 -185.971441 
L 362.381477 -185.971441 
L 361.889305 -185.971441 
L 361.397133 -185.971441 
L 360.904961 -185.971441 
L 360.412789 -185.971441 
L 359.920617 -185.971441 
L 359.428445 -185.971441 
L 358.936273 -185.971441 
L 358.444101 -185.971441 
L 357.951929 -185.971441 
L 357.459757 -185.971441 
L 356.967585 -185.971441 
L 356.475413 -185.971441 
L 355.983241 -185.971441 
L 355.491069 -185.971441 
L 354.998897 -185.971441 
L 354.506725 -185.971441 
L 354.014553 -185.971441 
L 353.522381 -185.971441 
L 353.030209 -185.971441 
L 352.538037 -185.971441 
L 352.045865 -185.971441 
L 351.553693 -185.971441 
L 351.061521 -185.971441 
L 350.56935 -185.971441 
L 350.077178 -185.971441 
L 349.585006 -185.971441 
L 349.092834 -185.971441 
L 348.600662 -185.971441 
L 348.10849 -185.971441 
L 347.616318 -185.971441 
L 347.124146 -185.971441 
L 346.631974 -185.971441 
L 346.139802 -185.971441 
L 345.64763 -185.971441 
L 345.155458 -185.971441 
L 344.663286 -185.971441 
L 344.171114 -185.971441 
L 343.678942 -185.971441 
L 343.18677 -185.971441 
L 342.694598 -185.971441 
L 342.202426 -185.971441 
L 341.710254 -185.971441 
L 341.218082 -185.971441 
L 340.72591 -185.971441 
L 340.233738 -185.971441 
L 339.741566 -185.971441 
L 339.249394 -185.971441 
L 338.757222 -185.971441 
L 338.26505 -185.971441 
L 337.772878 -185.971441 
L 337.280706 -185.971441 
L 336.788534 -185.971441 
L 336.296362 -185.971441 
L 335.80419 -185.971441 
L 335.312018 -185.971441 
L 334.819846 -185.971441 
L 334.327674 -185.971441 
L 333.835502 -185.971441 
L 333.34333 -185.971441 
L 332.851158 -185.971441 
L 332.358986 -185.971441 
L 331.866814 -185.971441 
L 331.374642 -185.971441 
L 330.88247 -185.971441 
L 330.390298 -185.971441 
L 329.898126 -185.971441 
L 329.405954 -185.971441 
L 328.913782 -185.971441 
L 328.42161 -185.971441 
L 327.929438 -185.971441 
L 327.437266 -185.971441 
L 326.945094 -185.971441 
L 326.452922 -185.971441 
L 325.96075 -185.971441 
L 325.468578 -185.971441 
L 324.976406 -185.971441 
L 324.484234 -185.971441 
L 323.992062 -185.971441 
L 323.49989 -185.971441 
L 323.007718 -185.971441 
L 322.515546 -185.971441 
L 322.023374 -185.971441 
L 321.531202 -185.971441 
L 321.03903 -185.971441 
L 320.546858 -185.971441 
L 320.054686 -185.971441 
L 319.562514 -185.971441 
L 319.070342 -185.971441 
L 318.57817 -185.971441 
L 318.085998 -185.971441 
L 317.593826 -185.971441 
L 317.101654 -185.971441 
L 316.609482 -185.971441 
L 316.11731 -185.971441 
L 315.625138 -185.971441 
L 315.132966 -185.971441 
L 314.640794 -185.971441 
L 314.148622 -185.971441 
L 313.65645 -185.971441 
L 313.164278 -185.971441 
L 312.672106 -185.971441 
L 312.179934 -185.971441 
L 311.687762 -185.971441 
L 311.19559 -185.971441 
L 310.703418 -185.971441 
L 310.211246 -185.971441 
L 309.719074 -185.971441 
L 309.226902 -185.971441 
L 308.73473 -185.971441 
L 308.242558 -185.971441 
L 307.750386 -185.971441 
L 307.258214 -185.971441 
L 306.766042 -185.971441 
L 306.27387 -185.971441 
L 305.781698 -185.971441 
L 305.289526 -185.971441 
L 304.797354 -185.971441 
L 304.305182 -185.971441 
L 303.81301 -185.971441 
L 303.320838 -185.971441 
L 302.828666 -185.971441 
L 302.336494 -185.971441 
L 301.844322 -185.971441 
L 301.35215 -185.971441 
L 300.859978 -185.971441 
L 300.367806 -185.971441 
L 299.875634 -185.971441 
L 299.383462 -185.971441 
L 298.89129 -185.971441 
L 298.399118 -185.971441 
L 297.906946 -185.971441 
L 297.414774 -185.971441 
L 296.922602 -185.971441 
L 296.43043 -185.971441 
L 295.938258 -185.971441 
L 295.446086 -185.971441 
L 294.953914 -185.971441 
L 294.461742 -185.971441 
L 293.96957 -185.971441 
L 293.477398 -185.971441 
L 292.985226 -185.971441 
L 292.493054 -185.971441 
L 292.000882 -185.971441 
L 291.50871 -185.971441 
L 291.016538 -185.971441 
L 290.524366 -185.971441 
L 290.032194 -185.971441 
L 289.540022 -185.971441 
L 289.04785 -185.971441 
L 288.555678 -185.971441 
L 288.063506 -185.971441 
L 287.571334 -185.971441 
L 287.079162 -185.971441 
L 286.58699 -185.971441 
L 286.094818 -185.971441 
L 285.602646 -185.971441 
L 285.110474 -185.971441 
L 284.618302 -185.971441 
L 284.12613 -185.971441 
L 283.633958 -185.971441 
L 283.141786 -185.971441 
L 282.649614 -185.971441 
L 282.157442 -185.971441 
L 281.66527 -185.971441 
L 281.173098 -185.971441 
L 280.680926 -185.971441 
L 280.188754 -185.971441 
L 279.696582 -185.971441 
L 279.20441 -185.971441 
L 278.712238 -185.971441 
L 278.220066 -185.971441 
L 277.727894 -185.971441 
L 277.235722 -185.971441 
L 276.74355 -185.971441 
L 276.251378 -185.971441 
L 275.759206 -185.971441 
L 275.267034 -185.971441 
L 274.774862 -185.971441 
L 274.28269 -185.971441 
L 273.790518 -185.971441 
L 273.298346 -185.971441 
L 272.806174 -185.971441 
L 272.314002 -185.971441 
L 271.82183 -185.971441 
L 271.329658 -185.971441 
L 270.837486 -185.971441 
L 270.345314 -185.971441 
L 269.853142 -185.971441 
L 269.36097 -185.971441 
L 268.868798 -185.971441 
L 268.376626 -185.971441 
L 267.884454 -185.971441 
L 267.392282 -185.971441 
L 266.90011 -185.971441 
L 266.407938 -185.971441 
L 265.915766 -185.971441 
L 265.423594 -185.971441 
L 264.931422 -185.971441 
L 264.43925 -185.971441 
L 263.947078 -185.971441 
L 263.454906 -185.971441 
L 262.962734 -185.971441 
L 262.470562 -185.971441 
L 261.97839 -185.971441 
L 261.486218 -185.971441 
L 260.994046 -185.971441 
L 260.501874 -185.971441 
L 260.009702 -185.971441 
L 259.51753 -185.971441 
L 259.025358 -185.971441 
L 258.533186 -185.971441 
L 258.041014 -185.971441 
L 257.548842 -185.971441 
L 257.05667 -185.971441 
L 256.564498 -185.971441 
L 256.072326 -185.971441 
L 255.580154 -185.971441 
L 255.087982 -185.971441 
L 254.59581 -185.971441 
L 254.103638 -185.971441 
L 253.611466 -185.971441 
L 253.119294 -185.971441 
L 252.627122 -185.971441 
L 252.13495 -185.971441 
L 251.642778 -185.971441 
L 251.150606 -185.971441 
L 250.658434 -185.971441 
L 250.166262 -185.971441 
L 249.67409 -185.971441 
L 249.181918 -185.971441 
L 248.689746 -185.971441 
L 248.197574 -185.971441 
L 247.705402 -185.971441 
L 247.21323 -185.971441 
L 246.721058 -185.971441 
L 246.228886 -185.971441 
L 245.736714 -185.971441 
L 245.244542 -185.971441 
L 244.75237 -185.971441 
L 244.260198 -185.971441 
L 243.768026 -185.971441 
L 243.275854 -185.971441 
L 242.783682 -185.971441 
L 242.29151 -185.971441 
L 241.799338 -185.971441 
L 241.307166 -185.971441 
L 240.814994 -185.971441 
L 240.322822 -185.971441 
L 239.83065 -185.971441 
L 239.338479 -185.971441 
L 238.846307 -185.971441 
L 238.354135 -185.971441 
L 237.861963 -185.971441 
L 237.369791 -185.971441 
L 236.877619 -185.971441 
L 236.385447 -185.971441 
L 235.893275 -185.971441 
L 235.401103 -185.971441 
L 234.908931 -185.971441 
L 234.416759 -185.971441 
L 233.924587 -185.971441 
L 233.432415 -185.971441 
L 232.940243 -185.971441 
L 232.448071 -185.971441 
L 231.955899 -185.971441 
L 231.463727 -185.971441 
L 230.971555 -185.971441 
L 230.479383 -185.971441 
L 229.987211 -185.971441 
L 229.495039 -185.971441 
L 229.002867 -185.971441 
L 228.510695 -185.971441 
L 228.018523 -185.971441 
L 227.526351 -185.971441 
L 227.034179 -185.971441 
L 226.542007 -185.971441 
L 226.049835 -185.971441 
L 225.557663 -185.971441 
L 225.065491 -185.971441 
L 224.573319 -185.971441 
L 224.081147 -185.971441 
L 223.588975 -185.971441 
L 223.096803 -185.971441 
L 222.604631 -185.971441 
L 222.112459 -185.971441 
L 221.620287 -185.971441 
L 221.128115 -185.971441 
L 220.635943 -185.971441 
L 220.143771 -185.971441 
L 219.651599 -185.971441 
L 219.159427 -185.971441 
L 218.667255 -185.971441 
L 218.175083 -185.971441 
L 217.682911 -185.971441 
L 217.190739 -185.971441 
L 216.698567 -185.971441 
L 216.206395 -185.971441 
L 215.714223 -185.971441 
L 215.222051 -185.971441 
L 214.729879 -185.971441 
L 214.237707 -185.971441 
L 213.745535 -185.971441 
L 213.253363 -185.971441 
L 212.761191 -185.971441 
L 212.269019 -185.971441 
L 211.776847 -185.971441 
L 211.284675 -185.971441 
L 210.792503 -185.971441 
L 210.300331 -185.971441 
L 209.808159 -185.971441 
L 209.315987 -185.971441 
L 208.823815 -185.971441 
L 208.331643 -185.971441 
L 207.839471 -185.971441 
L 207.347299 -185.971441 
L 206.855127 -185.971441 
L 206.362955 -185.971441 
L 205.870783 -185.971441 
L 205.378611 -185.971441 
L 204.886439 -185.971441 
L 204.394267 -185.971441 
L 203.902095 -185.971441 
L 203.409923 -185.971441 
L 202.917751 -185.971441 
L 202.425579 -185.971441 
L 201.933407 -185.971441 
L 201.441235 -185.971441 
L 200.949063 -185.971441 
L 200.456891 -185.971441 
L 199.964719 -185.971441 
L 199.472547 -185.971441 
L 198.980375 -185.971441 
L 198.488203 -185.971441 
L 197.996031 -185.971441 
L 197.503859 -185.971441 
L 197.011687 -185.971441 
L 196.519515 -185.971441 
L 196.027343 -185.971441 
L 195.535171 -185.971441 
L 195.042999 -185.971441 
L 194.550827 -185.971441 
L 194.058655 -185.971441 
L 193.566483 -185.971441 
L 193.074311 -185.971441 
L 192.582139 -185.971441 
L 192.089967 -185.971441 
L 191.597795 -185.971441 
L 191.105623 -185.971441 
L 190.613451 -185.971441 
L 190.121279 -185.971441 
L 189.629107 -185.971441 
L 189.136935 -185.971441 
L 188.644763 -185.971441 
L 188.152591 -185.971441 
L 187.660419 -185.971441 
L 187.168247 -185.971441 
L 186.676075 -185.971441 
L 186.183903 -185.971441 
L 185.691731 -185.971441 
L 185.199559 -185.971441 
L 184.707387 -185.971441 
L 184.215215 -185.971441 
L 183.723043 -185.971441 
L 183.230871 -185.971441 
L 182.738699 -185.971441 
L 182.246527 -185.971441 
L 181.754355 -185.971441 
L 181.262183 -185.971441 
L 180.770011 -185.971441 
L 180.277839 -185.971441 
L 179.785667 -185.971441 
L 179.293495 -185.971441 
L 178.801323 -185.971441 
L 178.309151 -185.971441 
L 177.816979 -185.971441 
L 177.324807 -185.971441 
L 176.832635 -185.971441 
L 176.340463 -185.971441 
L 175.848291 -185.971441 
L 175.356119 -185.971441 
L 174.863947 -185.971441 
L 174.371775 -185.971441 
L 173.879603 -185.971441 
L 173.387431 -185.971441 
L 172.895259 -185.971441 
L 172.403087 -185.971441 
L 171.910915 -185.971441 
L 171.418743 -185.971441 
L 170.926571 -185.971441 
L 170.434399 -185.971441 
L 169.942227 -185.971441 
L 169.450055 -185.971441 
L 168.957883 -185.971441 
L 168.465711 -185.971441 
L 167.973539 -185.971441 
L 167.481367 -185.971441 
L 166.989195 -185.971441 
L 166.497023 -185.971441 
L 166.004851 -185.971441 
L 165.512679 -185.971441 
L 165.020507 -185.971441 
L 164.528335 -185.971441 
L 164.036163 -185.971441 
L 163.543991 -185.971441 
L 163.051819 -185.971441 
L 162.559647 -185.971441 
L 162.067475 -185.971441 
L 161.575303 -185.971441 
L 161.083131 -185.971441 
L 160.590959 -185.971441 
L 160.098787 -185.971441 
L 159.606615 -185.971441 
L 159.114443 -185.971441 
L 158.622271 -185.971441 
L 158.130099 -185.971441 
L 157.637927 -185.971441 
L 157.145755 -185.971441 
L 156.653583 -185.971441 
L 156.161411 -185.971441 
L 155.669239 -185.971441 
L 155.177067 -185.971441 
L 154.684895 -185.971441 
L 154.192723 -185.971441 
L 153.700551 -185.971441 
L 153.208379 -185.971441 
L 152.716207 -185.971441 
L 152.224035 -185.971441 
L 151.731863 -185.971441 
L 151.239691 -185.971441 
L 150.747519 -185.971441 
L 150.255347 -185.971441 
L 149.763175 -185.971441 
L 149.271003 -185.971441 
L 148.778831 -185.971441 
L 148.286659 -185.971441 
L 147.794487 -185.971441 
L 147.302315 -185.971441 
L 146.810143 -185.971441 
L 146.317971 -185.971441 
L 145.825799 -185.971441 
L 145.333627 -185.971441 
L 144.841455 -185.971441 
L 144.349283 -185.971441 
L 143.857111 -185.971441 
L 143.364939 -185.971441 
L 142.872767 -185.971441 
L 142.380595 -185.971441 
L 141.888423 -185.971441 
L 141.396251 -185.971441 
L 140.904079 -185.971441 
L 140.411907 -185.971441 
L 139.919735 -185.971441 
L 139.427563 -185.971441 
L 138.935391 -185.971441 
L 138.443219 -185.971441 
L 137.951047 -185.971441 
L 137.458875 -185.971441 
L 136.966703 -185.971441 
L 136.474531 -185.971441 
L 135.982359 -185.971441 
L 135.490187 -185.971441 
L 134.998015 -185.971441 
L 134.505843 -185.971441 
L 134.013671 -185.971441 
L 133.521499 -185.971441 
L 133.029327 -185.971441 
L 132.537155 -185.971441 
L 132.044983 -185.971441 
L 131.552811 -185.971441 
L 131.060639 -185.971441 
L 130.568467 -185.971441 
L 130.076295 -185.971441 
L 129.584123 -185.971441 
L 129.091951 -185.971441 
L 128.599779 -185.971441 
L 128.107607 -185.971441 
L 127.615436 -185.971441 
L 127.123264 -185.971441 
L 126.631092 -185.971441 
L 126.13892 -185.971441 
L 125.646748 -185.971441 
L 125.154576 -185.971441 
L 124.662404 -185.971441 
L 124.170232 -185.971441 
L 123.67806 -185.971441 
L 123.185888 -185.971441 
L 122.693716 -185.971441 
L 122.201544 -185.971441 
L 121.709372 -185.971441 
L 121.2172 -185.971441 
L 120.725028 -185.971441 
L 120.232856 -185.971441 
L 119.740684 -185.971441 
L 119.248512 -185.971441 
L 118.75634 -185.971441 
L 118.264168 -185.971441 
L 117.771996 -185.971441 
L 117.279824 -185.971441 
L 116.787652 -185.971441 
L 116.29548 -185.971441 
L 115.803308 -185.971441 
L 115.311136 -185.971441 
L 114.818964 -185.971441 
L 114.326792 -185.971441 
L 113.83462 -185.971441 
L 113.342448 -185.971441 
L 112.850276 -185.971441 
L 112.358104 -185.971441 
L 111.865932 -185.971441 
L 111.37376 -185.971441 
L 110.881588 -185.971441 
L 110.389416 -185.971441 
L 109.897244 -185.971441 
L 109.405072 -185.971441 
L 108.9129 -185.971441 
L 108.420728 -185.971441 
L 107.928556 -185.971441 
L 107.436384 -185.971441 
L 106.944212 -185.971441 
L 106.45204 -185.971441 
L 105.959868 -185.971441 
L 105.467696 -185.971441 
L 104.975524 -185.971441 
L 104.483352 -185.971441 
L 103.99118 -185.971441 
L 103.499008 -185.971441 
L 103.006836 -185.971441 
L 102.514664 -185.971441 
L 102.022492 -185.971441 
L 101.53032 -185.971441 
L 101.038148 -185.971441 
L 100.545976 -185.971441 
L 100.053804 -185.971441 
L 99.561632 -185.971441 
L 99.06946 -185.971441 
L 98.577288 -185.971441 
L 98.085116 -185.971441 
L 97.592944 -185.971441 
L 97.100772 -185.971441 
L 96.6086 -185.971441 
L 96.116428 -185.971441 
L 95.624256 -185.971441 
L 95.132084 -185.971441 
L 94.639912 -185.971441 
L 94.14774 -185.971441 
L 93.655568 -185.971441 
L 93.163396 -185.971441 
L 92.671224 -185.971441 
L 92.179052 -185.971441 
L 91.68688 -185.971441 
L 91.194708 -185.971441 
L 90.702536 -185.971441 
L 90.210364 -185.971441 
L 89.718192 -185.971441 
L 89.22602 -185.971441 
L 88.733848 -185.971441 
L 88.241676 -185.971441 
L 87.749504 -185.971441 
L 87.257332 -185.971441 
L 86.76516 -185.971441 
L 86.272988 -185.971441 
L 85.780816 -185.971441 
L 85.288644 -185.971441 
L 84.796472 -185.971441 
L 84.3043 -185.971441 
L 83.812128 -185.971441 
L 83.319956 -185.971441 
L 82.827784 -185.971441 
L 82.335612 -185.971441 
L 81.84344 -185.971441 
L 81.351268 -185.971441 
L 80.859096 -185.971441 
L 80.366924 -185.971441 
L 79.874752 -185.971441 
L 79.38258 -185.971441 
L 78.890408 -185.971441 
L 78.398236 -185.971441 
L 77.906064 -185.971441 
L 77.413892 -185.971441 
L 76.92172 -185.971441 
L 76.429548 -185.971441 
L 75.937376 -185.971441 
L 75.445204 -185.971441 
L 74.953032 -185.971441 
L 74.46086 -185.971441 
L 73.968688 -185.971441 
L 73.476516 -185.971441 
L 72.984344 -185.971441 
L 72.492172 -185.971441 
L 72 -185.971441 
z
" id="m6f580a73b0"/>
    </defs>
    <g clip-path="url(#p87d3a8f1d3)">
     <use style="fill-opacity:0.15;" x="0" xlink:href="#m6f580a73b0" y="360"/>
    </g>
   </g>
   <g id="matplotlib.axis_1">
    <g id="xtick_1">
     <g id="line2d_1">
      <defs>
       <path d="M 0 0 
L 0 3.5 
" id="m6e5d4e28cd" style="stroke:#000000;stroke-width:0.8;"/>
      </defs>
      <g>
       <use style="stroke:#000000;stroke-width:0.8;" x="72" xlink:href="#m6e5d4e28cd" y="320.4"/>
      </g>
     </g>
     <g id="text_1">
      <!-- 0.0 -->
      <g transform="translate(60.867812 338.037813)scale(0.14 -0.14)">
       <defs>
        <path d="M 2034 4250 
Q 1547 4250 1301 3770 
Q 1056 3291 1056 2328 
Q 1056 1369 1301 889 
Q 1547 409 2034 409 
Q 2525 409 2770 889 
Q 3016 1369 3016 2328 
Q 3016 3291 2770 3770 
Q 2525 4250 2034 4250 
z
M 2034 4750 
Q 2819 4750 3233 4129 
Q 3647 3509 3647 2328 
Q 3647 1150 3233 529 
Q 2819 -91 2034 -91 
Q 1250 -91 836 529 
Q 422 1150 422 2328 
Q 422 3509 836 4129 
Q 1250 4750 2034 4750 
z
" id="DejaVuSans-30" transform="scale(0.015625)"/>
        <path d="M 684 794 
L 1344 794 
L 1344 0 
L 684 0 
L 684 794 
z
" id="DejaVuSans-2e" transform="scale(0.015625)"/>
       </defs>
       <use xlink:href="#DejaVuSans-30"/>
       <use x="63.623047" xlink:href="#DejaVuSans-2e"/>
       <use x="95.410156" xlink:href="#DejaVuSans-30"/>
      </g>
     </g>
    </g>
    <g id="xtick_2">
     <g id="line2d_2">
      <g>
       <use style="stroke:#000000;stroke-width:0.8;" x="127.87823" xlink:href="#m6e5d4e28cd" y="320.4"/>
      </g>
     </g>
     <g id="text_2">
      <!-- 2.5 -->
      <g transform="translate(116.746042 338.037813)scale(0.14 -0.14)">
       <defs>
        <path d="M 1228 531 
L 3431 531 
L 3431 0 
L 469 0 
L 469 531 
Q 828 903 1448 1529 
Q 2069 2156 2228 2338 
Q 2531 2678 2651 2914 
Q 2772 3150 2772 3378 
Q 2772 3750 2511 3984 
Q 2250 4219 1831 4219 
Q 1534 4219 1204 4116 
Q 875 4013 500 3803 
L 500 4441 
Q 881 4594 1212 4672 
Q 1544 4750 1819 4750 
Q 2544 4750 2975 4387 
Q 3406 4025 3406 3419 
Q 3406 3131 3298 2873 
Q 3191 2616 2906 2266 
Q 2828 2175 2409 1742 
Q 1991 1309 1228 531 
z
" id="DejaVuSans-32" transform="scale(0.015625)"/>
        <path d="M 691 4666 
L 3169 4666 
L 3169 4134 
L 1269 4134 
L 1269 2991 
Q 1406 3038 1543 3061 
Q 1681 3084 1819 3084 
Q 2600 3084 3056 2656 
Q 3513 2228 3513 1497 
Q 3513 744 3044 326 
Q 2575 -91 1722 -91 
Q 1428 -91 1123 -41 
Q 819 9 494 109 
L 494 744 
Q 775 591 1075 516 
Q 1375 441 1709 441 
Q 2250 441 2565 725 
Q 2881 1009 2881 1497 
Q 2881 1984 2565 2268 
Q 2250 2553 1709 2553 
Q 1456 2553 1204 2497 
Q 953 2441 691 2322 
L 691 4666 
z
" id="DejaVuSans-35" transform="scale(0.015625)"/>
       </defs>
       <use xlink:href="#DejaVuSans-32"/>
       <use x="63.623047" xlink:href="#DejaVuSans-2e"/>
       <use x="95.410156" xlink:href="#DejaVuSans-35"/>
      </g>
     </g>
    </g>
    <g id="xtick_3">
     <g id="line2d_3">
      <g>
       <use style="stroke:#000000;stroke-width:0.8;" x="183.756459" xlink:href="#m6e5d4e28cd" y="320.4"/>
      </g>
     </g>
     <g id="text_3">
      <!-- 5.0 -->
      <g transform="translate(172.624272 338.037813)scale(0.14 -0.14)">
       <use xlink:href="#DejaVuSans-35"/>
       <use x="63.623047" xlink:href="#DejaVuSans-2e"/>
       <use x="95.410156" xlink:href="#DejaVuSans-30"/>
      </g>
     </g>
    </g>
    <g id="xtick_4">
     <g id="line2d_4">
      <g>
       <use style="stroke:#000000;stroke-width:0.8;" x="239.634689" xlink:href="#m6e5d4e28cd" y="320.4"/>
      </g>
     </g>
     <g id="text_4">
      <!-- 7.5 -->
      <g transform="translate(228.502501 338.037813)scale(0.14 -0.14)">
       <defs>
        <path d="M 525 4666 
L 3525 4666 
L 3525 4397 
L 1831 0 
L 1172 0 
L 2766 4134 
L 525 4134 
L 525 4666 
z
" id="DejaVuSans-37" transform="scale(0.015625)"/>
       </defs>
       <use xlink:href="#DejaVuSans-37"/>
       <use x="63.623047" xlink:href="#DejaVuSans-2e"/>
       <use x="95.410156" xlink:href="#DejaVuSans-35"/>
      </g>
     </g>
    </g>
    <g id="xtick_5">
     <g id="line2d_5">
      <g>
       <use style="stroke:#000000;stroke-width:0.8;" x="295.512918" xlink:href="#m6e5d4e28cd" y="320.4"/>
      </g>
     </g>
     <g id="text_5">
      <!-- 10.0 -->
      <g transform="translate(279.926981 338.037813)scale(0.14 -0.14)">
       <defs>
        <path d="M 794 531 
L 1825 531 
L 1825 4091 
L 703 3866 
L 703 4441 
L 1819 4666 
L 2450 4666 
L 2450 531 
L 3481 531 
L 3481 0 
L 794 0 
L 794 531 
z
" id="DejaVuSans-31" transform="scale(0.015625)"/>
       </defs>
       <use xlink:href="#DejaVuSans-31"/>
       <use x="63.623047" xlink:href="#DejaVuSans-30"/>
       <use x="127.246094" xlink:href="#DejaVuSans-2e"/>
       <use x="159.033203" xlink:href="#DejaVuSans-30"/>
      </g>
     </g>
    </g>
    <g id="xtick_6">
     <g id="line2d_6">
      <g>
       <use style="stroke:#000000;stroke-width:0.8;" x="351.391148" xlink:href="#m6e5d4e28cd" y="320.4"/>
      </g>
     </g>
     <g id="text_6">
      <!-- 12.5 -->
      <g transform="translate(335.80521 338.037813)scale(0.14 -0.14)">
       <use xlink:href="#DejaVuSans-31"/>
       <use x="63.623047" xlink:href="#DejaVuSans-32"/>
       <use x="127.246094" xlink:href="#DejaVuSans-2e"/>
       <use x="159.033203" xlink:href="#DejaVuSans-35"/>
      </g>
     </g>
    </g>
    <g id="xtick_7">
     <g id="line2d_7">
      <g>
       <use style="stroke:#000000;stroke-width:0.8;" x="407.269377" xlink:href="#m6e5d4e28cd" y="320.4"/>
      </g>
     </g>
     <g id="text_7">
      <!-- 15.0 -->
      <g transform="translate(391.68344 338.037813)scale(0.14 -0.14)">
       <use xlink:href="#DejaVuSans-31"/>
       <use x="63.623047" xlink:href="#DejaVuSans-35"/>
       <use x="127.246094" xlink:href="#DejaVuSans-2e"/>
       <use x="159.033203" xlink:href="#DejaVuSans-30"/>
      </g>
     </g>
    </g>
    <g id="xtick_8">
     <g id="line2d_8">
      <g>
       <use style="stroke:#000000;stroke-width:0.8;" x="463.147607" xlink:href="#m6e5d4e28cd" y="320.4"/>
      </g>
     </g>
     <g id="text_8">
      <!-- 17.5 -->
      <g transform="translate(447.561669 338.037813)scale(0.14 -0.14)">
       <use xlink:href="#DejaVuSans-31"/>
       <use x="63.623047" xlink:href="#DejaVuSans-37"/>
       <use x="127.246094" xlink:href="#DejaVuSans-2e"/>
       <use x="159.033203" xlink:href="#DejaVuSans-35"/>
      </g>
     </g>
    </g>
    <g id="text_9">
     <!-- Time [Seconds] -->
     <g transform="translate(233.23 357.106875)scale(0.16 -0.16)">
      <defs>
       <path d="M -19 4666 
L 3928 4666 
L 3928 4134 
L 2272 4134 
L 2272 0 
L 1638 0 
L 1638 4134 
L -19 4134 
L -19 4666 
z
" id="DejaVuSans-54" transform="scale(0.015625)"/>
       <path d="M 603 3500 
L 1178 3500 
L 1178 0 
L 603 0 
L 603 3500 
z
M 603 4863 
L 1178 4863 
L 1178 4134 
L 603 4134 
L 603 4863 
z
" id="DejaVuSans-69" transform="scale(0.015625)"/>
       <path d="M 3328 2828 
Q 3544 3216 3844 3400 
Q 4144 3584 4550 3584 
Q 5097 3584 5394 3201 
Q 5691 2819 5691 2113 
L 5691 0 
L 5113 0 
L 5113 2094 
Q 5113 2597 4934 2840 
Q 4756 3084 4391 3084 
Q 3944 3084 3684 2787 
Q 3425 2491 3425 1978 
L 3425 0 
L 2847 0 
L 2847 2094 
Q 2847 2600 2669 2842 
Q 2491 3084 2119 3084 
Q 1678 3084 1418 2786 
Q 1159 2488 1159 1978 
L 1159 0 
L 581 0 
L 581 3500 
L 1159 3500 
L 1159 2956 
Q 1356 3278 1631 3431 
Q 1906 3584 2284 3584 
Q 2666 3584 2933 3390 
Q 3200 3197 3328 2828 
z
" id="DejaVuSans-6d" transform="scale(0.015625)"/>
       <path d="M 3597 1894 
L 3597 1613 
L 953 1613 
Q 991 1019 1311 708 
Q 1631 397 2203 397 
Q 2534 397 2845 478 
Q 3156 559 3463 722 
L 3463 178 
Q 3153 47 2828 -22 
Q 2503 -91 2169 -91 
Q 1331 -91 842 396 
Q 353 884 353 1716 
Q 353 2575 817 3079 
Q 1281 3584 2069 3584 
Q 2775 3584 3186 3129 
Q 3597 2675 3597 1894 
z
M 3022 2063 
Q 3016 2534 2758 2815 
Q 2500 3097 2075 3097 
Q 1594 3097 1305 2825 
Q 1016 2553 972 2059 
L 3022 2063 
z
" id="DejaVuSans-65" transform="scale(0.015625)"/>
       <path id="DejaVuSans-20" transform="scale(0.015625)"/>
       <path d="M 550 4863 
L 1875 4863 
L 1875 4416 
L 1125 4416 
L 1125 -397 
L 1875 -397 
L 1875 -844 
L 550 -844 
L 550 4863 
z
" id="DejaVuSans-5b" transform="scale(0.015625)"/>
       <path d="M 3425 4513 
L 3425 3897 
Q 3066 4069 2747 4153 
Q 2428 4238 2131 4238 
Q 1616 4238 1336 4038 
Q 1056 3838 1056 3469 
Q 1056 3159 1242 3001 
Q 1428 2844 1947 2747 
L 2328 2669 
Q 3034 2534 3370 2195 
Q 3706 1856 3706 1288 
Q 3706 609 3251 259 
Q 2797 -91 1919 -91 
Q 1588 -91 1214 -16 
Q 841 59 441 206 
L 441 856 
Q 825 641 1194 531 
Q 1563 422 1919 422 
Q 2459 422 2753 634 
Q 3047 847 3047 1241 
Q 3047 1584 2836 1778 
Q 2625 1972 2144 2069 
L 1759 2144 
Q 1053 2284 737 2584 
Q 422 2884 422 3419 
Q 422 4038 858 4394 
Q 1294 4750 2059 4750 
Q 2388 4750 2728 4690 
Q 3069 4631 3425 4513 
z
" id="DejaVuSans-53" transform="scale(0.015625)"/>
       <path d="M 3122 3366 
L 3122 2828 
Q 2878 2963 2633 3030 
Q 2388 3097 2138 3097 
Q 1578 3097 1268 2742 
Q 959 2388 959 1747 
Q 959 1106 1268 751 
Q 1578 397 2138 397 
Q 2388 397 2633 464 
Q 2878 531 3122 666 
L 3122 134 
Q 2881 22 2623 -34 
Q 2366 -91 2075 -91 
Q 1284 -91 818 406 
Q 353 903 353 1747 
Q 353 2603 823 3093 
Q 1294 3584 2113 3584 
Q 2378 3584 2631 3529 
Q 2884 3475 3122 3366 
z
" id="DejaVuSans-63" transform="scale(0.015625)"/>
       <path d="M 1959 3097 
Q 1497 3097 1228 2736 
Q 959 2375 959 1747 
Q 959 1119 1226 758 
Q 1494 397 1959 397 
Q 2419 397 2687 759 
Q 2956 1122 2956 1747 
Q 2956 2369 2687 2733 
Q 2419 3097 1959 3097 
z
M 1959 3584 
Q 2709 3584 3137 3096 
Q 3566 2609 3566 1747 
Q 3566 888 3137 398 
Q 2709 -91 1959 -91 
Q 1206 -91 779 398 
Q 353 888 353 1747 
Q 353 2609 779 3096 
Q 1206 3584 1959 3584 
z
" id="DejaVuSans-6f" transform="scale(0.015625)"/>
       <path d="M 3513 2113 
L 3513 0 
L 2938 0 
L 2938 2094 
Q 2938 2591 2744 2837 
Q 2550 3084 2163 3084 
Q 1697 3084 1428 2787 
Q 1159 2491 1159 1978 
L 1159 0 
L 581 0 
L 581 3500 
L 1159 3500 
L 1159 2956 
Q 1366 3272 1645 3428 
Q 1925 3584 2291 3584 
Q 2894 3584 3203 3211 
Q 3513 2838 3513 2113 
z
" id="DejaVuSans-6e" transform="scale(0.015625)"/>
       <path d="M 2906 2969 
L 2906 4863 
L 3481 4863 
L 3481 0 
L 2906 0 
L 2906 525 
Q 2725 213 2448 61 
Q 2172 -91 1784 -91 
Q 1150 -91 751 415 
Q 353 922 353 1747 
Q 353 2572 751 3078 
Q 1150 3584 1784 3584 
Q 2172 3584 2448 3432 
Q 2725 3281 2906 2969 
z
M 947 1747 
Q 947 1113 1208 752 
Q 1469 391 1925 391 
Q 2381 391 2643 752 
Q 2906 1113 2906 1747 
Q 2906 2381 2643 2742 
Q 2381 3103 1925 3103 
Q 1469 3103 1208 2742 
Q 947 2381 947 1747 
z
" id="DejaVuSans-64" transform="scale(0.015625)"/>
       <path d="M 2834 3397 
L 2834 2853 
Q 2591 2978 2328 3040 
Q 2066 3103 1784 3103 
Q 1356 3103 1142 2972 
Q 928 2841 928 2578 
Q 928 2378 1081 2264 
Q 1234 2150 1697 2047 
L 1894 2003 
Q 2506 1872 2764 1633 
Q 3022 1394 3022 966 
Q 3022 478 2636 193 
Q 2250 -91 1575 -91 
Q 1294 -91 989 -36 
Q 684 19 347 128 
L 347 722 
Q 666 556 975 473 
Q 1284 391 1588 391 
Q 1994 391 2212 530 
Q 2431 669 2431 922 
Q 2431 1156 2273 1281 
Q 2116 1406 1581 1522 
L 1381 1569 
Q 847 1681 609 1914 
Q 372 2147 372 2553 
Q 372 3047 722 3315 
Q 1072 3584 1716 3584 
Q 2034 3584 2315 3537 
Q 2597 3491 2834 3397 
z
" id="DejaVuSans-73" transform="scale(0.015625)"/>
       <path d="M 1947 4863 
L 1947 -844 
L 622 -844 
L 622 -397 
L 1369 -397 
L 1369 4416 
L 622 4416 
L 622 4863 
L 1947 4863 
z
" id="DejaVuSans-5d" transform="scale(0.015625)"/>
      </defs>
      <use xlink:href="#DejaVuSans-54"/>
      <use x="57.958984" xlink:href="#DejaVuSans-69"/>
      <use x="85.742188" xlink:href="#DejaVuSans-6d"/>
      <use x="183.154297" xlink:href="#DejaVuSans-65"/>
      <use x="244.677734" xlink:href="#DejaVuSans-20"/>
      <use x="276.464844" xlink:href="#DejaVuSans-5b"/>
      <use x="315.478516" xlink:href="#DejaVuSans-53"/>
      <use x="378.955078" xlink:href="#DejaVuSans-65"/>
      <use x="440.478516" xlink:href="#DejaVuSans-63"/>
      <use x="495.458984" xlink:href="#DejaVuSans-6f"/>
      <use x="556.640625" xlink:href="#DejaVuSans-6e"/>
      <use x="620.019531" xlink:href="#DejaVuSans-64"/>
      <use x="683.496094" xlink:href="#DejaVuSans-73"/>
      <use x="735.595703" xlink:href="#DejaVuSans-5d"/>
     </g>
    </g>
   </g>
   <g id="matplotlib.axis_2">
    <g id="ytick_1">
     <g id="line2d_9">
      <defs>
       <path d="M 0 0 
L -3.5 0 
" id="m6d1a359d9d" style="stroke:#000000;stroke-width:0.8;"/>
      </defs>
      <g>
       <use style="stroke:#000000;stroke-width:0.8;" x="72" xlink:href="#m6d1a359d9d" y="280.594213"/>
      </g>
     </g>
     <g id="text_10">
      <!-- 0.0 -->
      <g transform="translate(42.735625 285.91312)scale(0.14 -0.14)">
       <use xlink:href="#DejaVuSans-30"/>
       <use x="63.623047" xlink:href="#DejaVuSans-2e"/>
       <use x="95.410156" xlink:href="#DejaVuSans-30"/>
      </g>
     </g>
    </g>
    <g id="ytick_2">
     <g id="line2d_10">
      <g>
       <use style="stroke:#000000;stroke-width:0.8;" x="72" xlink:href="#m6d1a359d9d" y="228.787476"/>
      </g>
     </g>
     <g id="text_11">
      <!-- 0.5 -->
      <g transform="translate(42.735625 234.106382)scale(0.14 -0.14)">
       <use xlink:href="#DejaVuSans-30"/>
       <use x="63.623047" xlink:href="#DejaVuSans-2e"/>
       <use x="95.410156" xlink:href="#DejaVuSans-35"/>
      </g>
     </g>
    </g>
    <g id="ytick_3">
     <g id="line2d_11">
      <g>
       <use style="stroke:#000000;stroke-width:0.8;" x="72" xlink:href="#m6d1a359d9d" y="176.980738"/>
      </g>
     </g>
     <g id="text_12">
      <!-- 1.0 -->
      <g transform="translate(42.735625 182.299644)scale(0.14 -0.14)">
       <use xlink:href="#DejaVuSans-31"/>
       <use x="63.623047" xlink:href="#DejaVuSans-2e"/>
       <use x="95.410156" xlink:href="#DejaVuSans-30"/>
      </g>
     </g>
    </g>
    <g id="ytick_4">
     <g id="line2d_12">
      <g>
       <use style="stroke:#000000;stroke-width:0.8;" x="72" xlink:href="#m6d1a359d9d" y="125.174"/>
      </g>
     </g>
     <g id="text_13">
      <!-- 1.5 -->
      <g transform="translate(42.735625 130.492906)scale(0.14 -0.14)">
       <use xlink:href="#DejaVuSans-31"/>
       <use x="63.623047" xlink:href="#DejaVuSans-2e"/>
       <use x="95.410156" xlink:href="#DejaVuSans-35"/>
      </g>
     </g>
    </g>
    <g id="ytick_5">
     <g id="line2d_13">
      <g>
       <use style="stroke:#000000;stroke-width:0.8;" x="72" xlink:href="#m6d1a359d9d" y="73.367262"/>
      </g>
     </g>
     <g id="text_14">
      <!-- 2.0 -->
      <g transform="translate(42.735625 78.686169)scale(0.14 -0.14)">
       <use xlink:href="#DejaVuSans-32"/>
       <use x="63.623047" xlink:href="#DejaVuSans-2e"/>
       <use x="95.410156" xlink:href="#DejaVuSans-30"/>
      </g>
     </g>
    </g>
    <g id="text_15">
     <!-- Speed [mm/s] -->
     <g transform="translate(35.408125 238.11375)rotate(-90)scale(0.16 -0.16)">
      <defs>
       <path d="M 1159 525 
L 1159 -1331 
L 581 -1331 
L 581 3500 
L 1159 3500 
L 1159 2969 
Q 1341 3281 1617 3432 
Q 1894 3584 2278 3584 
Q 2916 3584 3314 3078 
Q 3713 2572 3713 1747 
Q 3713 922 3314 415 
Q 2916 -91 2278 -91 
Q 1894 -91 1617 61 
Q 1341 213 1159 525 
z
M 3116 1747 
Q 3116 2381 2855 2742 
Q 2594 3103 2138 3103 
Q 1681 3103 1420 2742 
Q 1159 2381 1159 1747 
Q 1159 1113 1420 752 
Q 1681 391 2138 391 
Q 2594 391 2855 752 
Q 3116 1113 3116 1747 
z
" id="DejaVuSans-70" transform="scale(0.015625)"/>
       <path d="M 1625 4666 
L 2156 4666 
L 531 -594 
L 0 -594 
L 1625 4666 
z
" id="DejaVuSans-2f" transform="scale(0.015625)"/>
      </defs>
      <use xlink:href="#DejaVuSans-53"/>
      <use x="63.476562" xlink:href="#DejaVuSans-70"/>
      <use x="126.953125" xlink:href="#DejaVuSans-65"/>
      <use x="188.476562" xlink:href="#DejaVuSans-65"/>
      <use x="250" xlink:href="#DejaVuSans-64"/>
      <use x="313.476562" xlink:href="#DejaVuSans-20"/>
      <use x="345.263672" xlink:href="#DejaVuSans-5b"/>
      <use x="384.277344" xlink:href="#DejaVuSans-6d"/>
      <use x="481.689453" xlink:href="#DejaVuSans-6d"/>
      <use x="579.101562" xlink:href="#DejaVuSans-2f"/>
      <use x="612.792969" xlink:href="#DejaVuSans-73"/>
      <use x="664.892578" xlink:href="#DejaVuSans-5d"/>
     </g>
    </g>
   </g>
   <g id="line2d_14">
    <path clip-path="url(#p87d3a8f1d3)" d="M 72 172.147783 
L 518.4 172.147783 
" style="fill:none;stroke:#000000;stroke-dasharray:5.55,2.4;stroke-dashoffset:0;stroke-width:1.5;"/>
   </g>
   <g id="line2d_15">
    <path clip-path="url(#p87d3a8f1d3)" d="M 72 279.041564 
L 104.975524 278.998643 
L 105.467696 279.232331 
L 105.959868 277.763089 
L 106.45204 275.868142 
L 106.944212 276.613879 
L 107.436384 279.361775 
L 107.928556 280.480824 
L 108.420728 280.058962 
L 109.405072 280.737314 
L 109.897244 280.631399 
L 110.389416 281.017292 
L 110.881588 277.526583 
L 111.37376 262.879072 
L 111.865932 259.852985 
L 112.850276 295.964646 
L 113.342448 304.85341 
L 113.83462 307.8 
L 114.326792 306.845484 
L 114.818964 302.037229 
L 115.311136 290.150919 
L 116.787652 243.375894 
L 118.264168 183.678749 
L 119.740684 126.750097 
L 120.725028 93.087617 
L 121.2172 80.480199 
L 122.693716 56.476173 
L 123.185888 55.8 
L 123.67806 56.274934 
L 124.170232 60.076762 
L 125.154576 73.429795 
L 126.13892 93.178557 
L 126.631092 104.726635 
L 127.615436 131.708218 
L 128.599779 157.647612 
L 129.091951 171.706234 
L 129.584123 180.655307 
L 130.076295 185.427253 
L 130.568467 188.689516 
L 131.060639 188.259895 
L 131.552811 182.299697 
L 132.044983 171.905202 
L 133.029327 139.426159 
L 133.521499 145.009658 
L 134.013671 161.591079 
L 134.505843 165.729053 
L 134.998015 165.375973 
L 135.982359 168.545699 
L 136.474531 168.397222 
L 136.966703 165.90113 
L 137.458875 166.603836 
L 137.951047 168.583506 
L 138.443219 166.289437 
L 138.935391 165.094284 
L 139.919735 170.158751 
L 140.411907 168.81971 
L 140.904079 169.390821 
L 141.396251 170.923729 
L 141.888423 169.166533 
L 142.380595 167.84119 
L 142.872767 170.009385 
L 143.364939 171.156296 
L 143.857111 169.38668 
L 144.349283 170.423267 
L 144.841455 173.147761 
L 145.333627 172.853514 
L 146.317971 173.191296 
L 146.810143 172.035111 
L 147.302315 172.194075 
L 147.794487 171.470031 
L 148.286659 171.761189 
L 148.778831 173.879386 
L 149.271003 172.897121 
L 149.763175 170.254899 
L 150.255347 170.720285 
L 150.747519 172.401749 
L 151.239691 171.935556 
L 151.731863 170.198672 
L 152.224035 169.738793 
L 152.716207 169.741092 
L 153.208379 169.887978 
L 153.700551 170.952988 
L 154.192723 171.238336 
L 154.684895 170.208343 
L 155.177067 171.112138 
L 155.669239 171.641657 
L 156.161411 171.229781 
L 156.653583 172.187266 
L 157.145755 172.809837 
L 157.637927 172.322921 
L 158.130099 172.004411 
L 159.114443 172.605931 
L 160.590959 172.682366 
L 161.083131 172.539281 
L 161.575303 171.857503 
L 162.067475 172.677348 
L 162.559647 172.734438 
L 163.051819 171.526242 
L 163.543991 170.992861 
L 164.036163 171.578044 
L 164.528335 172.671337 
L 165.020507 172.358442 
L 165.512679 171.699465 
L 166.004851 171.58544 
L 166.497023 172.481118 
L 166.989195 171.137802 
L 167.481367 171.071949 
L 167.973539 172.227275 
L 168.465711 172.073247 
L 169.450055 171.475278 
L 170.434399 174.071495 
L 170.926571 173.194976 
L 171.418743 173.014053 
L 171.910915 173.620575 
L 172.403087 173.79134 
L 172.895259 173.540894 
L 173.387431 172.166593 
L 173.879603 171.518187 
L 174.863947 174.066303 
L 175.356119 173.481317 
L 175.848291 172.481853 
L 176.340463 172.589666 
L 176.832635 173.551582 
L 177.324807 173.09739 
L 177.816979 173.118043 
L 178.309151 173.517247 
L 178.801323 172.27064 
L 179.293495 171.912473 
L 179.785667 172.269677 
L 180.770011 172.28293 
L 181.262183 172.767637 
L 181.754355 172.93569 
L 182.246527 170.924376 
L 182.738699 170.88592 
L 183.230871 171.751282 
L 183.723043 171.708593 
L 184.215215 170.471889 
L 184.707387 170.423914 
L 185.199559 171.802066 
L 185.691731 171.998407 
L 186.183903 172.02958 
L 186.676075 171.34281 
L 187.660419 171.108684 
L 188.152591 171.479467 
L 188.644763 171.567064 
L 189.136935 172.671653 
L 189.629107 173.130079 
L 190.613451 171.885177 
L 191.105623 171.978518 
L 191.597795 174.166803 
L 192.089967 174.43377 
L 192.582139 173.764695 
L 193.074311 173.485913 
L 193.566483 173.021988 
L 194.058655 173.137015 
L 194.550827 172.51373 
L 195.042999 171.423708 
L 196.027343 174.185247 
L 196.519515 173.306054 
L 197.011687 171.488447 
L 197.503859 171.690497 
L 197.996031 172.983071 
L 198.488203 172.056319 
L 198.980375 171.973722 
L 199.472547 172.370346 
L 200.456891 172.074313 
L 200.949063 171.506897 
L 201.441235 171.21067 
L 201.933407 172.269757 
L 202.425579 172.371574 
L 202.917751 172.262056 
L 203.409923 172.932664 
L 203.902095 172.070072 
L 204.394267 171.880245 
L 204.886439 172.047394 
L 205.378611 171.623956 
L 205.870783 171.564784 
L 206.362955 172.702754 
L 206.855127 173.107449 
L 207.347299 171.644804 
L 207.839471 171.207109 
L 208.823815 171.424238 
L 209.315987 171.358661 
L 209.808159 171.79646 
L 210.300331 172.673015 
L 210.792503 172.783904 
L 211.284675 172.457362 
L 211.776847 171.107303 
L 212.269019 170.8776 
L 213.745535 173.119703 
L 214.237707 172.492869 
L 214.729879 171.481426 
L 215.222051 171.838833 
L 215.714223 172.772074 
L 216.206395 171.912588 
L 216.698567 171.608433 
L 217.190739 173.242366 
L 217.682911 173.576831 
L 218.667255 171.419203 
L 219.159427 172.72388 
L 219.651599 173.418933 
L 220.143771 171.917156 
L 220.635943 172.133484 
L 221.128115 172.994629 
L 221.620287 172.727787 
L 222.604631 171.401279 
L 223.588975 174.043104 
L 224.081147 172.956122 
L 224.573319 172.204203 
L 225.065491 172.882943 
L 225.557663 172.846874 
L 226.049835 171.496726 
L 227.034179 172.831051 
L 227.526351 172.446367 
L 228.018523 172.684583 
L 228.510695 171.606323 
L 229.002867 170.969017 
L 229.495039 171.554527 
L 230.479383 173.209994 
L 230.971555 173.243723 
L 231.463727 172.893295 
L 231.955899 173.403329 
L 232.940243 171.539632 
L 233.432415 172.045844 
L 233.924587 173.02054 
L 234.416759 173.13532 
L 234.908931 172.758624 
L 235.401103 172.817882 
L 235.893275 172.068144 
L 236.385447 172.036114 
L 236.877619 172.58154 
L 237.861963 171.67916 
L 238.354135 171.840721 
L 238.846307 172.454397 
L 239.338479 172.832505 
L 239.83065 171.685682 
L 240.322822 171.647135 
L 240.814994 172.42854 
L 241.307166 171.95861 
L 241.799338 171.662326 
L 242.783682 172.381828 
L 243.768026 172.561426 
L 244.260198 172.800287 
L 244.75237 173.183512 
L 245.244542 172.390285 
L 245.736714 171.843523 
L 246.228886 171.972889 
L 246.721058 173.003895 
L 247.21323 173.684775 
L 247.705402 172.516934 
L 248.197574 172.520817 
L 249.181918 171.981969 
L 249.67409 171.436256 
L 250.166262 170.322192 
L 250.658434 171.792502 
L 251.150606 172.566105 
L 252.627122 171.632512 
L 253.119294 172.008402 
L 254.103638 170.258636 
L 255.087982 173.350961 
L 255.580154 172.916932 
L 256.072326 172.040255 
L 256.564498 171.915161 
L 257.548842 172.237517 
L 258.041014 172.730183 
L 258.533186 173.037184 
L 259.025358 173.039619 
L 259.51753 173.296569 
L 260.009702 173.313575 
L 260.501874 172.20615 
L 260.994046 172.280595 
L 261.486218 172.242599 
L 261.97839 171.898407 
L 262.470562 170.983576 
L 262.962734 170.475398 
L 263.454906 172.092447 
L 263.947078 173.018789 
L 264.43925 172.923424 
L 264.931422 172.637717 
L 265.423594 171.635212 
L 265.915766 171.4626 
L 266.90011 172.268664 
L 267.392282 173.038071 
L 268.376626 173.184308 
L 268.868798 172.383794 
L 269.36097 172.116238 
L 269.853142 172.525715 
L 270.345314 172.344353 
L 270.837486 171.865619 
L 271.329658 170.96378 
L 272.314002 173.575163 
L 272.806174 172.97442 
L 273.790518 171.303072 
L 274.28269 172.298429 
L 274.774862 173.009894 
L 275.267034 171.398539 
L 275.759206 171.253056 
L 276.251378 173.012914 
L 276.74355 173.131831 
L 277.235722 171.640488 
L 277.727894 170.788049 
L 278.712238 172.161648 
L 279.20441 172.660893 
L 279.696582 172.878192 
L 280.188754 173.273203 
L 280.680926 173.443039 
L 281.173098 172.03433 
L 281.66527 171.6675 
L 282.157442 171.493988 
L 283.141786 172.807725 
L 283.633958 172.61732 
L 284.618302 171.36679 
L 285.110474 172.327821 
L 285.602646 172.682802 
L 286.58699 170.494973 
L 287.079162 171.001925 
L 287.571334 172.438523 
L 288.063506 172.158379 
L 289.04785 172.832189 
L 289.540022 171.8893 
L 290.032194 171.817855 
L 290.524366 171.34479 
L 291.016538 172.099215 
L 291.50871 171.719811 
L 292.000882 170.842787 
L 292.985226 172.517787 
L 293.477398 173.268922 
L 293.96957 172.923249 
L 294.461742 172.403764 
L 294.953914 172.424728 
L 295.446086 172.088748 
L 295.938258 172.746295 
L 296.43043 173.164521 
L 296.922602 172.289619 
L 297.414774 171.908894 
L 297.906946 172.759379 
L 298.399118 173.142167 
L 298.89129 172.111959 
L 299.383462 173.259827 
L 299.875634 173.920708 
L 300.367806 173.487187 
L 300.859978 174.396414 
L 301.35215 173.579331 
L 301.844322 173.176058 
L 302.336494 172.300764 
L 302.828666 170.654047 
L 303.320838 171.357856 
L 303.81301 172.366187 
L 304.305182 172.962506 
L 305.289526 171.720811 
L 305.781698 171.589014 
L 306.27387 171.01713 
L 306.766042 171.650803 
L 307.258214 172.039338 
L 307.750386 171.677381 
L 308.242558 171.916676 
L 308.73473 171.671631 
L 309.226902 171.66562 
L 309.719074 171.225375 
L 310.703418 171.838689 
L 311.19559 170.990832 
L 311.687762 170.921716 
L 312.179934 170.308589 
L 312.672106 170.476129 
L 313.164278 171.061202 
L 314.148622 173.105535 
L 314.640794 173.297646 
L 315.132966 173.640836 
L 315.625138 172.998169 
L 316.11731 172.964657 
L 316.609482 173.470999 
L 317.101654 172.582431 
L 317.593826 172.598673 
L 318.085998 172.390783 
L 319.070342 170.919374 
L 319.562514 171.571689 
L 320.054686 172.485656 
L 320.546858 172.302643 
L 321.03903 172.532282 
L 321.531202 171.898194 
L 322.023374 172.499701 
L 322.515546 173.81346 
L 323.49989 172.612635 
L 323.992062 172.524678 
L 325.468578 173.515419 
L 325.96075 173.585406 
L 326.452922 172.189668 
L 326.945094 172.033448 
L 327.437266 172.069823 
L 327.929438 171.157615 
L 328.42161 171.284099 
L 329.405954 173.298575 
L 330.390298 170.762808 
L 331.374642 172.337402 
L 331.866814 172.259628 
L 332.851158 171.18956 
L 333.835502 170.179448 
L 334.327674 170.760146 
L 334.819846 171.042781 
L 335.312018 170.843957 
L 335.80419 171.621406 
L 336.788534 173.495978 
L 337.772878 173.282664 
L 338.26505 173.322204 
L 338.757222 173.159677 
L 339.741566 173.917384 
L 340.233738 174.04974 
L 340.72591 173.513604 
L 341.218082 173.32051 
L 342.694598 171.272843 
L 343.18677 170.713466 
L 343.678942 171.495785 
L 344.171114 171.809266 
L 345.155458 171.01208 
L 345.64763 171.016956 
L 346.139802 171.626452 
L 347.124146 173.01636 
L 347.616318 173.035594 
L 348.10849 172.821105 
L 349.092834 172.878584 
L 349.585006 172.615772 
L 350.077178 172.799114 
L 350.56935 172.481349 
L 351.061521 171.884847 
L 351.553693 171.080952 
L 352.045865 171.492493 
L 353.030209 173.91448 
L 354.014553 171.987511 
L 354.506725 172.467501 
L 355.491069 171.790441 
L 355.983241 172.304408 
L 356.475413 171.894803 
L 356.967585 171.33414 
L 357.459757 171.723821 
L 358.444101 171.458804 
L 358.936273 171.039138 
L 359.428445 169.790028 
L 359.920617 170.476726 
L 360.412789 171.663434 
L 360.904961 171.540298 
L 361.889305 173.082032 
L 362.381477 172.89617 
L 363.365821 173.921011 
L 364.842337 172.670348 
L 365.334509 173.07057 
L 365.826681 172.667939 
L 366.318853 171.758907 
L 366.811025 171.290675 
L 367.303197 171.539821 
L 367.795369 171.950519 
L 368.779713 172.109664 
L 369.271885 172.482232 
L 369.764057 173.454124 
L 370.256229 173.817254 
L 370.748401 173.711761 
L 371.240573 173.211197 
L 371.732745 172.994813 
L 372.224917 172.535865 
L 372.717089 172.489757 
L 374.193605 171.571241 
L 374.685777 171.335186 
L 375.177949 170.505171 
L 375.670121 170.557237 
L 376.162293 170.818429 
L 376.654465 170.722687 
L 377.146637 171.709922 
L 377.638809 172.416958 
L 379.115325 172.406101 
L 379.607497 172.729293 
L 380.099669 172.906838 
L 381.084013 171.417429 
L 381.576185 171.608103 
L 382.068357 171.564648 
L 382.560529 170.339384 
L 383.052701 170.863805 
L 383.544873 172.003623 
L 384.037045 172.597592 
L 384.529217 173.701736 
L 385.021389 173.738723 
L 385.513561 173.145344 
L 386.005733 173.510827 
L 386.497905 173.716678 
L 386.990077 173.340922 
L 387.482249 172.749649 
L 387.974421 173.179921 
L 388.466593 172.865683 
L 388.958765 172.054402 
L 389.450937 170.656462 
L 389.943109 170.545481 
L 390.435281 171.478013 
L 390.927453 170.851955 
L 391.419625 171.190727 
L 392.403969 170.67818 
L 393.388313 172.295741 
L 393.880485 172.761725 
L 394.372657 172.642246 
L 394.864829 172.36675 
L 395.849173 172.445422 
L 396.341345 173.242336 
L 396.833517 173.188202 
L 397.325689 172.041817 
L 398.310033 170.948655 
L 398.802205 171.675393 
L 399.294377 171.9176 
L 399.786549 171.961599 
L 400.278721 172.623953 
L 401.263065 172.890476 
L 401.755237 172.555786 
L 402.247409 172.408615 
L 402.739581 172.530453 
L 403.231753 173.134753 
L 403.723925 173.129666 
L 404.216097 171.943978 
L 404.708269 171.999497 
L 405.200441 172.191084 
L 405.692613 171.861229 
L 406.184785 172.037853 
L 406.676957 171.29657 
L 407.169129 171.168322 
L 407.661301 172.253779 
L 408.645645 172.773831 
L 409.137817 173.366286 
L 409.629989 174.250876 
L 410.122161 173.784335 
L 410.614333 173.11829 
L 411.106505 172.769827 
L 411.598677 173.611741 
L 412.090849 173.932757 
L 412.583021 171.703483 
L 413.075193 171.145512 
L 413.567365 171.167832 
L 414.059537 170.806665 
L 414.551709 171.043978 
L 415.043881 170.934393 
L 415.536053 170.579584 
L 416.028225 170.052418 
L 416.520397 170.195631 
L 417.012569 171.211849 
L 417.504741 171.75193 
L 417.996913 172.853872 
L 418.489085 173.09547 
L 418.981257 172.017417 
L 419.965601 171.563727 
L 420.457773 172.183388 
L 420.949945 172.037001 
L 421.442117 171.216015 
L 421.934289 171.167753 
L 422.426461 172.025394 
L 422.918633 171.954176 
L 423.410805 172.033696 
L 424.395149 173.881606 
L 424.887321 175.131202 
L 425.871665 173.809606 
L 426.363837 173.52327 
L 426.856009 172.786886 
L 427.348181 172.327454 
L 427.840353 172.177566 
L 428.332525 171.237745 
L 429.316869 171.737563 
L 429.809041 170.907355 
L 430.793385 172.642541 
L 431.285557 171.816752 
L 431.777729 171.48103 
L 432.269901 172.366811 
L 432.762073 172.693361 
L 433.254245 173.615591 
L 433.746417 173.83066 
L 434.238589 172.57095 
L 434.730761 172.8574 
L 435.222933 173.536576 
L 435.715105 172.745784 
L 436.207277 172.261738 
L 436.699449 171.951411 
L 437.683793 170.995417 
L 438.175965 171.28509 
L 439.652481 173.69713 
L 440.636825 172.049401 
L 441.128997 172.600478 
L 441.621169 172.740295 
L 442.113341 172.655972 
L 443.097685 171.270571 
L 443.589857 172.104001 
L 444.082029 173.213971 
L 444.574201 172.185729 
L 445.066373 171.490882 
L 445.558545 171.985676 
L 446.050717 171.89985 
L 446.542889 171.619293 
L 447.035061 171.702653 
L 447.527233 172.300671 
L 448.511577 171.321672 
L 449.003749 172.013882 
L 449.495921 171.991477 
L 450.480265 172.422165 
L 451.464609 170.772003 
L 451.956781 171.595855 
L 452.448953 171.749276 
L 452.941125 170.342143 
L 453.433297 170.6784 
L 453.925469 171.783724 
L 454.417641 171.252419 
L 455.401985 172.775632 
L 455.894157 172.901289 
L 456.386329 173.641458 
L 456.878501 172.916643 
L 457.370673 172.579471 
L 457.862845 173.334679 
L 458.355017 173.192465 
L 458.847189 172.823963 
L 459.339361 173.125961 
L 459.831533 172.37854 
L 460.323705 172.64833 
L 460.815877 173.226337 
L 461.308049 172.277874 
L 461.800221 170.7601 
L 462.292393 171.344946 
L 462.784564 172.128084 
L 463.276736 171.919183 
L 463.768908 172.219551 
L 464.26108 172.128724 
L 464.753252 172.947996 
L 465.245424 173.206838 
L 465.737596 173.003213 
L 466.229768 172.250062 
L 466.72194 171.027903 
L 467.214112 171.371764 
L 467.706284 170.915155 
L 468.198456 170.904848 
L 468.690628 172.303377 
L 469.1828 172.407318 
L 470.167144 171.101957 
L 470.659316 171.390918 
L 471.64366 173.520997 
L 472.135832 172.68112 
L 472.628004 171.525489 
L 473.120176 172.469345 
L 473.612348 173.134147 
L 474.10452 172.979673 
L 474.596692 172.010623 
L 475.088864 172.080955 
L 475.581036 172.723312 
L 476.073208 171.023367 
L 476.56538 171.016721 
L 477.057552 172.413531 
L 477.549724 172.455207 
L 478.041896 172.223632 
L 479.518412 172.163412 
L 480.502756 172.734377 
L 480.994928 172.56854 
L 481.4871 172.63892 
L 481.979272 173.19539 
L 482.471444 173.010609 
L 483.455788 170.644306 
L 483.94796 172.136488 
L 484.440132 172.489594 
L 484.932304 172.041524 
L 485.424476 171.877995 
L 485.916648 171.335287 
L 486.40882 171.887793 
L 486.900992 172.063995 
L 487.393164 171.843606 
L 487.885336 170.7404 
L 488.377508 171.192869 
L 488.86968 172.084366 
L 489.361852 171.442539 
L 489.854024 172.302434 
L 490.346196 173.508518 
L 490.838368 173.218601 
L 491.33054 171.872037 
L 491.822712 171.361833 
L 492.314884 172.372208 
L 492.807056 173.040155 
L 493.299228 172.54115 
L 493.7914 171.187495 
L 494.283572 171.193421 
L 494.775744 173.043968 
L 495.267916 173.195665 
L 495.760088 172.778217 
L 496.25226 172.516916 
L 496.744432 172.687884 
L 497.236604 172.371252 
L 497.728776 171.521394 
L 498.220948 172.029271 
L 498.71312 172.713142 
L 499.697464 171.913756 
L 500.189636 172.377005 
L 500.681808 171.954729 
L 501.17398 172.100839 
L 501.666152 172.911834 
L 502.158324 172.452624 
L 502.650496 173.06735 
L 503.142668 173.910731 
L 503.63484 172.570188 
L 504.127012 172.122869 
L 504.619184 172.322915 
L 505.111356 172.717875 
L 505.603528 172.930169 
L 506.0957 171.783257 
L 506.587872 171.040763 
L 507.080044 171.113649 
L 507.572216 171.470236 
L 509.048732 170.754487 
L 510.033076 170.427824 
L 511.01742 170.281374 
L 512.001764 170.364457 
L 512.986108 170.724672 
L 513.970452 171.407889 
L 514.954796 172.458253 
L 515.93914 173.918183 
L 516.923484 175.828373 
L 517.907828 178.22779 
L 518.4 179.622663 
L 518.4 179.622663 
" style="fill:none;stroke:#ff0000;stroke-linecap:square;stroke-width:2;"/>
   </g>
   <g id="patch_3">
    <path d="M 72 320.4 
L 72 43.2 
" style="fill:none;stroke:#000000;stroke-linecap:square;stroke-linejoin:miter;stroke-width:0.8;"/>
   </g>
   <g id="patch_4">
    <path d="M 518.4 320.4 
L 518.4 43.2 
" style="fill:none;stroke:#000000;stroke-linecap:square;stroke-linejoin:miter;stroke-width:0.8;"/>
   </g>
   <g id="patch_5">
    <path d="M 72 320.4 
L 518.4 320.4 
" style="fill:none;stroke:#000000;stroke-linecap:square;stroke-linejoin:miter;stroke-width:0.8;"/>
   </g>
   <g id="patch_6">
    <path d="M 72 43.2 
L 518.4 43.2 
" style="fill:none;stroke:#000000;stroke-linecap:square;stroke-linejoin:miter;stroke-width:0.8;"/>
   </g>
   <g id="text_16">
    <!-- Front Propogation Speed -->
    <g transform="translate(172.245312 37.2)scale(0.2 -0.2)">
     <defs>
      <path d="M 628 4666 
L 3309 4666 
L 3309 4134 
L 1259 4134 
L 1259 2759 
L 3109 2759 
L 3109 2228 
L 1259 2228 
L 1259 0 
L 628 0 
L 628 4666 
z
" id="DejaVuSans-46" transform="scale(0.015625)"/>
      <path d="M 2631 2963 
Q 2534 3019 2420 3045 
Q 2306 3072 2169 3072 
Q 1681 3072 1420 2755 
Q 1159 2438 1159 1844 
L 1159 0 
L 581 0 
L 581 3500 
L 1159 3500 
L 1159 2956 
Q 1341 3275 1631 3429 
Q 1922 3584 2338 3584 
Q 2397 3584 2469 3576 
Q 2541 3569 2628 3553 
L 2631 2963 
z
" id="DejaVuSans-72" transform="scale(0.015625)"/>
      <path d="M 1172 4494 
L 1172 3500 
L 2356 3500 
L 2356 3053 
L 1172 3053 
L 1172 1153 
Q 1172 725 1289 603 
Q 1406 481 1766 481 
L 2356 481 
L 2356 0 
L 1766 0 
Q 1100 0 847 248 
Q 594 497 594 1153 
L 594 3053 
L 172 3053 
L 172 3500 
L 594 3500 
L 594 4494 
L 1172 4494 
z
" id="DejaVuSans-74" transform="scale(0.015625)"/>
      <path d="M 1259 4147 
L 1259 2394 
L 2053 2394 
Q 2494 2394 2734 2622 
Q 2975 2850 2975 3272 
Q 2975 3691 2734 3919 
Q 2494 4147 2053 4147 
L 1259 4147 
z
M 628 4666 
L 2053 4666 
Q 2838 4666 3239 4311 
Q 3641 3956 3641 3272 
Q 3641 2581 3239 2228 
Q 2838 1875 2053 1875 
L 1259 1875 
L 1259 0 
L 628 0 
L 628 4666 
z
" id="DejaVuSans-50" transform="scale(0.015625)"/>
      <path d="M 2906 1791 
Q 2906 2416 2648 2759 
Q 2391 3103 1925 3103 
Q 1463 3103 1205 2759 
Q 947 2416 947 1791 
Q 947 1169 1205 825 
Q 1463 481 1925 481 
Q 2391 481 2648 825 
Q 2906 1169 2906 1791 
z
M 3481 434 
Q 3481 -459 3084 -895 
Q 2688 -1331 1869 -1331 
Q 1566 -1331 1297 -1286 
Q 1028 -1241 775 -1147 
L 775 -588 
Q 1028 -725 1275 -790 
Q 1522 -856 1778 -856 
Q 2344 -856 2625 -561 
Q 2906 -266 2906 331 
L 2906 616 
Q 2728 306 2450 153 
Q 2172 0 1784 0 
Q 1141 0 747 490 
Q 353 981 353 1791 
Q 353 2603 747 3093 
Q 1141 3584 1784 3584 
Q 2172 3584 2450 3431 
Q 2728 3278 2906 2969 
L 2906 3500 
L 3481 3500 
L 3481 434 
z
" id="DejaVuSans-67" transform="scale(0.015625)"/>
      <path d="M 2194 1759 
Q 1497 1759 1228 1600 
Q 959 1441 959 1056 
Q 959 750 1161 570 
Q 1363 391 1709 391 
Q 2188 391 2477 730 
Q 2766 1069 2766 1631 
L 2766 1759 
L 2194 1759 
z
M 3341 1997 
L 3341 0 
L 2766 0 
L 2766 531 
Q 2569 213 2275 61 
Q 1981 -91 1556 -91 
Q 1019 -91 701 211 
Q 384 513 384 1019 
Q 384 1609 779 1909 
Q 1175 2209 1959 2209 
L 2766 2209 
L 2766 2266 
Q 2766 2663 2505 2880 
Q 2244 3097 1772 3097 
Q 1472 3097 1187 3025 
Q 903 2953 641 2809 
L 641 3341 
Q 956 3463 1253 3523 
Q 1550 3584 1831 3584 
Q 2591 3584 2966 3190 
Q 3341 2797 3341 1997 
z
" id="DejaVuSans-61" transform="scale(0.015625)"/>
     </defs>
     <use xlink:href="#DejaVuSans-46"/>
     <use x="50.269531" xlink:href="#DejaVuSans-72"/>
     <use x="89.132812" xlink:href="#DejaVuSans-6f"/>
     <use x="150.314453" xlink:href="#DejaVuSans-6e"/>
     <use x="213.693359" xlink:href="#DejaVuSans-74"/>
     <use x="252.902344" xlink:href="#DejaVuSans-20"/>
     <use x="284.689453" xlink:href="#DejaVuSans-50"/>
     <use x="343.242188" xlink:href="#DejaVuSans-72"/>
     <use x="382.105469" xlink:href="#DejaVuSans-6f"/>
     <use x="443.287109" xlink:href="#DejaVuSans-70"/>
     <use x="506.763672" xlink:href="#DejaVuSans-6f"/>
     <use x="567.945312" xlink:href="#DejaVuSans-67"/>
     <use x="631.421875" xlink:href="#DejaVuSans-61"/>
     <use x="692.701172" xlink:href="#DejaVuSans-74"/>
     <use x="731.910156" xlink:href="#DejaVuSans-69"/>
     <use x="759.693359" xlink:href="#DejaVuSans-6f"/>
     <use x="820.875" xlink:href="#DejaVuSans-6e"/>
     <use x="884.253906" xlink:href="#DejaVuSans-20"/>
     <use x="916.041016" xlink:href="#DejaVuSans-53"/>
     <use x="979.517578" xlink:href="#DejaVuSans-70"/>
     <use x="1042.994141" xlink:href="#DejaVuSans-65"/>
     <use x="1104.517578" xlink:href="#DejaVuSans-65"/>
     <use x="1166.041016" xlink:href="#DejaVuSans-64"/>
    </g>
   </g>
   <g id="legend_1">
    <g id="patch_7">
     <path d="M 325.967812 111.175687 
L 508.6 111.175687 
Q 511.4 111.175687 511.4 108.375687 
L 511.4 53 
Q 511.4 50.2 508.6 50.2 
L 325.967812 50.2 
Q 323.167812 50.2 323.167812 53 
L 323.167812 108.375687 
Q 323.167812 111.175687 325.967812 111.175687 
z
" style="fill:#ffffff;opacity:0.8;stroke:#cccccc;stroke-linejoin:miter;"/>
    </g>
    <g id="line2d_16">
     <path d="M 328.767812 61.537812 
L 356.767812 61.537812 
" style="fill:none;stroke:#ff0000;stroke-linecap:square;stroke-width:2;"/>
    </g>
    <g id="line2d_17"/>
    <g id="text_17">
     <!-- Front speed -->
     <g transform="translate(367.967812 66.437812)scale(0.14 -0.14)">
      <use xlink:href="#DejaVuSans-46"/>
      <use x="50.269531" xlink:href="#DejaVuSans-72"/>
      <use x="89.132812" xlink:href="#DejaVuSans-6f"/>
      <use x="150.314453" xlink:href="#DejaVuSans-6e"/>
      <use x="213.693359" xlink:href="#DejaVuSans-74"/>
      <use x="252.902344" xlink:href="#DejaVuSans-20"/>
      <use x="284.689453" xlink:href="#DejaVuSans-73"/>
      <use x="336.789062" xlink:href="#DejaVuSans-70"/>
      <use x="400.265625" xlink:href="#DejaVuSans-65"/>
      <use x="461.789062" xlink:href="#DejaVuSans-65"/>
      <use x="523.3125" xlink:href="#DejaVuSans-64"/>
     </g>
    </g>
    <g id="line2d_18">
     <path d="M 328.767812 91.381437 
L 356.767812 91.381437 
" style="fill:none;stroke:#000000;stroke-dasharray:5.55,2.4;stroke-dashoffset:0;stroke-width:1.5;"/>
    </g>
    <g id="line2d_19"/>
    <g id="text_18">
     <!-- Steady state -->
     <g transform="translate(367.967812 86.987187)scale(0.14 -0.14)">
      <defs>
       <path d="M 2059 -325 
Q 1816 -950 1584 -1140 
Q 1353 -1331 966 -1331 
L 506 -1331 
L 506 -850 
L 844 -850 
Q 1081 -850 1212 -737 
Q 1344 -625 1503 -206 
L 1606 56 
L 191 3500 
L 800 3500 
L 1894 763 
L 2988 3500 
L 3597 3500 
L 2059 -325 
z
" id="DejaVuSans-79" transform="scale(0.015625)"/>
      </defs>
      <use xlink:href="#DejaVuSans-53"/>
      <use x="63.476562" xlink:href="#DejaVuSans-74"/>
      <use x="102.685547" xlink:href="#DejaVuSans-65"/>
      <use x="164.208984" xlink:href="#DejaVuSans-61"/>
      <use x="225.488281" xlink:href="#DejaVuSans-64"/>
      <use x="288.964844" xlink:href="#DejaVuSans-79"/>
      <use x="348.144531" xlink:href="#DejaVuSans-20"/>
      <use x="379.931641" xlink:href="#DejaVuSans-73"/>
      <use x="432.03125" xlink:href="#DejaVuSans-74"/>
      <use x="471.240234" xlink:href="#DejaVuSans-61"/>
      <use x="532.519531" xlink:href="#DejaVuSans-74"/>
      <use x="571.728516" xlink:href="#DejaVuSans-65"/>
     </g>
     <!-- speed = 1.05 mm/s -->
     <g transform="translate(367.967812 102.664125)scale(0.14 -0.14)">
      <defs>
       <path d="M 678 2906 
L 4684 2906 
L 4684 2381 
L 678 2381 
L 678 2906 
z
M 678 1631 
L 4684 1631 
L 4684 1100 
L 678 1100 
L 678 1631 
z
" id="DejaVuSans-3d" transform="scale(0.015625)"/>
      </defs>
      <use xlink:href="#DejaVuSans-73"/>
      <use x="52.099609" xlink:href="#DejaVuSans-70"/>
      <use x="115.576172" xlink:href="#DejaVuSans-65"/>
      <use x="177.099609" xlink:href="#DejaVuSans-65"/>
      <use x="238.623047" xlink:href="#DejaVuSans-64"/>
      <use x="302.099609" xlink:href="#DejaVuSans-20"/>
      <use x="333.886719" xlink:href="#DejaVuSans-3d"/>
      <use x="417.675781" xlink:href="#DejaVuSans-20"/>
      <use x="449.462891" xlink:href="#DejaVuSans-31"/>
      <use x="513.085938" xlink:href="#DejaVuSans-2e"/>
      <use x="544.873047" xlink:href="#DejaVuSans-30"/>
      <use x="608.496094" xlink:href="#DejaVuSans-35"/>
      <use x="672.119141" xlink:href="#DejaVuSans-20"/>
      <use x="703.90625" xlink:href="#DejaVuSans-6d"/>
      <use x="801.318359" xlink:href="#DejaVuSans-6d"/>
      <use x="898.730469" xlink:href="#DejaVuSans-2f"/>
      <use x="932.421875" xlink:href="#DejaVuSans-73"/>
     </g>
    </g>
   </g>
  </g>
 </g>
 <defs>
  <clipPath id="p87d3a8f1d3">
   <rect height="277.2" width="446.4" x="72" y="43.2"/>
  </clipPath>
 </defs>
</svg>
