<?xml version="1.0" encoding="utf-8" standalone="no"?>
<!DOCTYPE svg PUBLIC "-//W3C//DTD SVG 1.1//EN"
  "http://www.w3.org/Graphics/SVG/1.1/DTD/svg11.dtd">
<svg height="360pt" version="1.1" viewBox="0 0 576 360" width="576pt" xmlns="http://www.w3.org/2000/svg" xmlns:xlink="http://www.w3.org/1999/xlink">
 <metadata>
  <rdf:RDF xmlns:cc="http://creativecommons.org/ns#" xmlns:dc="http://purl.org/dc/elements/1.1/" xmlns:rdf="http://www.w3.org/1999/02/22-rdf-syntax-ns#">
   <cc:Work>
    <dc:type rdf:resource="http://purl.org/dc/dcmitype/StillImage"/>
    <dc:date>2022-06-30T14:06:00.344730</dc:date>
    <dc:format>image/svg+xml</dc:format>
    <dc:creator>
     <cc:Agent>
      <dc:title>Matplotlib v3.4.3, https://matplotlib.org/</dc:title>
     </cc:Agent>
    </dc:creator>
   </cc:Work>
  </rdf:RDF>
 </metadata>
 <defs>
  <style type="text/css">*{stroke-linecap:butt;stroke-linejoin:round;}</style>
 </defs>
 <g id="figure_1">
  <g id="patch_1">
   <path d="M 0 360 
L 576 360 
L 576 0 
L 0 0 
z
" style="fill:#ffffff;"/>
  </g>
  <g id="axes_1">
   <g id="patch_2">
    <path d="M 72 320.4 
L 518.4 320.4 
L 518.4 43.2 
L 72 43.2 
z
" style="fill:#ffffff;"/>
   </g>
   <g id="PolyCollection_1">
    <defs>
     <path d="M 72 -161.177463 
L 72 -166.557788 
L 72.648837 -166.557788 
L 73.297674 -166.557788 
L 73.946512 -166.557788 
L 74.595349 -166.557788 
L 75.244186 -166.557788 
L 75.893023 -166.557788 
L 76.54186 -166.557788 
L 77.190698 -166.557788 
L 77.839535 -166.557788 
L 78.488372 -166.557788 
L 79.137209 -166.557788 
L 79.786047 -166.557788 
L 80.434884 -166.557788 
L 81.083721 -166.557788 
L 81.732558 -166.557788 
L 82.381395 -166.557788 
L 83.030233 -166.557788 
L 83.67907 -166.557788 
L 84.327907 -166.557788 
L 84.976744 -166.557788 
L 85.625581 -166.557788 
L 86.274419 -166.557788 
L 86.923256 -166.557788 
L 87.572093 -166.557788 
L 88.22093 -166.557788 
L 88.869767 -166.557788 
L 89.518605 -166.557788 
L 90.167442 -166.557788 
L 90.816279 -166.557788 
L 91.465116 -166.557788 
L 92.113953 -166.557788 
L 92.762791 -166.557788 
L 93.411628 -166.557788 
L 94.060465 -166.557788 
L 94.709302 -166.557788 
L 95.35814 -166.557788 
L 96.006977 -166.557788 
L 96.655814 -166.557788 
L 97.304651 -166.557788 
L 97.953488 -166.557788 
L 98.602326 -166.557788 
L 99.251163 -166.557788 
L 99.9 -166.557788 
L 100.548837 -166.557788 
L 101.197674 -166.557788 
L 101.846512 -166.557788 
L 102.495349 -166.557788 
L 103.144186 -166.557788 
L 103.793023 -166.557788 
L 104.44186 -166.557788 
L 105.090698 -166.557788 
L 105.739535 -166.557788 
L 106.388372 -166.557788 
L 107.037209 -166.557788 
L 107.686047 -166.557788 
L 108.334884 -166.557788 
L 108.983721 -166.557788 
L 109.632558 -166.557788 
L 110.281395 -166.557788 
L 110.930233 -166.557788 
L 111.57907 -166.557788 
L 112.227907 -166.557788 
L 112.876744 -166.557788 
L 113.525581 -166.557788 
L 114.174419 -166.557788 
L 114.823256 -166.557788 
L 115.472093 -166.557788 
L 116.12093 -166.557788 
L 116.769767 -166.557788 
L 117.418605 -166.557788 
L 118.067442 -166.557788 
L 118.716279 -166.557788 
L 119.365116 -166.557788 
L 120.013953 -166.557788 
L 120.662791 -166.557788 
L 121.311628 -166.557788 
L 121.960465 -166.557788 
L 122.609302 -166.557788 
L 123.25814 -166.557788 
L 123.906977 -166.557788 
L 124.555814 -166.557788 
L 125.204651 -166.557788 
L 125.853488 -166.557788 
L 126.502326 -166.557788 
L 127.151163 -166.557788 
L 127.8 -166.557788 
L 128.448837 -166.557788 
L 129.097674 -166.557788 
L 129.746512 -166.557788 
L 130.395349 -166.557788 
L 131.044186 -166.557788 
L 131.693023 -166.557788 
L 132.34186 -166.557788 
L 132.990698 -166.557788 
L 133.639535 -166.557788 
L 134.288372 -166.557788 
L 134.937209 -166.557788 
L 135.586047 -166.557788 
L 136.234884 -166.557788 
L 136.883721 -166.557788 
L 137.532558 -166.557788 
L 138.181395 -166.557788 
L 138.830233 -166.557788 
L 139.47907 -166.557788 
L 140.127907 -166.557788 
L 140.776744 -166.557788 
L 141.425581 -166.557788 
L 142.074419 -166.557788 
L 142.723256 -166.557788 
L 143.372093 -166.557788 
L 144.02093 -166.557788 
L 144.669767 -166.557788 
L 145.318605 -166.557788 
L 145.967442 -166.557788 
L 146.616279 -166.557788 
L 147.265116 -166.557788 
L 147.913953 -166.557788 
L 148.562791 -166.557788 
L 149.211628 -166.557788 
L 149.860465 -166.557788 
L 150.509302 -166.557788 
L 151.15814 -166.557788 
L 151.806977 -166.557788 
L 152.455814 -166.557788 
L 153.104651 -166.557788 
L 153.753488 -166.557788 
L 154.402326 -166.557788 
L 155.051163 -166.557788 
L 155.7 -166.557788 
L 156.348837 -166.557788 
L 156.997674 -166.557788 
L 157.646512 -166.557788 
L 158.295349 -166.557788 
L 158.944186 -166.557788 
L 159.593023 -166.557788 
L 160.24186 -166.557788 
L 160.890698 -166.557788 
L 161.539535 -166.557788 
L 162.188372 -166.557788 
L 162.837209 -166.557788 
L 163.486047 -166.557788 
L 164.134884 -166.557788 
L 164.783721 -166.557788 
L 165.432558 -166.557788 
L 166.081395 -166.557788 
L 166.730233 -166.557788 
L 167.37907 -166.557788 
L 168.027907 -166.557788 
L 168.676744 -166.557788 
L 169.325581 -166.557788 
L 169.974419 -166.557788 
L 170.623256 -166.557788 
L 171.272093 -166.557788 
L 171.92093 -166.557788 
L 172.569767 -166.557788 
L 173.218605 -166.557788 
L 173.867442 -166.557788 
L 174.516279 -166.557788 
L 175.165116 -166.557788 
L 175.813953 -166.557788 
L 176.462791 -166.557788 
L 177.111628 -166.557788 
L 177.760465 -166.557788 
L 178.409302 -166.557788 
L 179.05814 -166.557788 
L 179.706977 -166.557788 
L 180.355814 -166.557788 
L 181.004651 -166.557788 
L 181.653488 -166.557788 
L 182.302326 -166.557788 
L 182.951163 -166.557788 
L 183.6 -166.557788 
L 184.248837 -166.557788 
L 184.897674 -166.557788 
L 185.546512 -166.557788 
L 186.195349 -166.557788 
L 186.844186 -166.557788 
L 187.493023 -166.557788 
L 188.14186 -166.557788 
L 188.790698 -166.557788 
L 189.439535 -166.557788 
L 190.088372 -166.557788 
L 190.737209 -166.557788 
L 191.386047 -166.557788 
L 192.034884 -166.557788 
L 192.683721 -166.557788 
L 193.332558 -166.557788 
L 193.981395 -166.557788 
L 194.630233 -166.557788 
L 195.27907 -166.557788 
L 195.927907 -166.557788 
L 196.576744 -166.557788 
L 197.225581 -166.557788 
L 197.874419 -166.557788 
L 198.523256 -166.557788 
L 199.172093 -166.557788 
L 199.82093 -166.557788 
L 200.469767 -166.557788 
L 201.118605 -166.557788 
L 201.767442 -166.557788 
L 202.416279 -166.557788 
L 203.065116 -166.557788 
L 203.713953 -166.557788 
L 204.362791 -166.557788 
L 205.011628 -166.557788 
L 205.660465 -166.557788 
L 206.309302 -166.557788 
L 206.95814 -166.557788 
L 207.606977 -166.557788 
L 208.255814 -166.557788 
L 208.904651 -166.557788 
L 209.553488 -166.557788 
L 210.202326 -166.557788 
L 210.851163 -166.557788 
L 211.5 -166.557788 
L 212.148837 -166.557788 
L 212.797674 -166.557788 
L 213.446512 -166.557788 
L 214.095349 -166.557788 
L 214.744186 -166.557788 
L 215.393023 -166.557788 
L 216.04186 -166.557788 
L 216.690698 -166.557788 
L 217.339535 -166.557788 
L 217.988372 -166.557788 
L 218.637209 -166.557788 
L 219.286047 -166.557788 
L 219.934884 -166.557788 
L 220.583721 -166.557788 
L 221.232558 -166.557788 
L 221.881395 -166.557788 
L 222.530233 -166.557788 
L 223.17907 -166.557788 
L 223.827907 -166.557788 
L 224.476744 -166.557788 
L 225.125581 -166.557788 
L 225.774419 -166.557788 
L 226.423256 -166.557788 
L 227.072093 -166.557788 
L 227.72093 -166.557788 
L 228.369767 -166.557788 
L 229.018605 -166.557788 
L 229.667442 -166.557788 
L 230.316279 -166.557788 
L 230.965116 -166.557788 
L 231.613953 -166.557788 
L 232.262791 -166.557788 
L 232.911628 -166.557788 
L 233.560465 -166.557788 
L 234.209302 -166.557788 
L 234.85814 -166.557788 
L 235.506977 -166.557788 
L 236.155814 -166.557788 
L 236.804651 -166.557788 
L 237.453488 -166.557788 
L 238.102326 -166.557788 
L 238.751163 -166.557788 
L 239.4 -166.557788 
L 240.048837 -166.557788 
L 240.697674 -166.557788 
L 241.346512 -166.557788 
L 241.995349 -166.557788 
L 242.644186 -166.557788 
L 243.293023 -166.557788 
L 243.94186 -166.557788 
L 244.590698 -166.557788 
L 245.239535 -166.557788 
L 245.888372 -166.557788 
L 246.537209 -166.557788 
L 247.186047 -166.557788 
L 247.834884 -166.557788 
L 248.483721 -166.557788 
L 249.132558 -166.557788 
L 249.781395 -166.557788 
L 250.430233 -166.557788 
L 251.07907 -166.557788 
L 251.727907 -166.557788 
L 252.376744 -166.557788 
L 253.025581 -166.557788 
L 253.674419 -166.557788 
L 254.323256 -166.557788 
L 254.972093 -166.557788 
L 255.62093 -166.557788 
L 256.269767 -166.557788 
L 256.918605 -166.557788 
L 257.567442 -166.557788 
L 258.216279 -166.557788 
L 258.865116 -166.557788 
L 259.513953 -166.557788 
L 260.162791 -166.557788 
L 260.811628 -166.557788 
L 261.460465 -166.557788 
L 262.109302 -166.557788 
L 262.75814 -166.557788 
L 263.406977 -166.557788 
L 264.055814 -166.557788 
L 264.704651 -166.557788 
L 265.353488 -166.557788 
L 266.002326 -166.557788 
L 266.651163 -166.557788 
L 267.3 -166.557788 
L 267.948837 -166.557788 
L 268.597674 -166.557788 
L 269.246512 -166.557788 
L 269.895349 -166.557788 
L 270.544186 -166.557788 
L 271.193023 -166.557788 
L 271.84186 -166.557788 
L 272.490698 -166.557788 
L 273.139535 -166.557788 
L 273.788372 -166.557788 
L 274.437209 -166.557788 
L 275.086047 -166.557788 
L 275.734884 -166.557788 
L 276.383721 -166.557788 
L 277.032558 -166.557788 
L 277.681395 -166.557788 
L 278.330233 -166.557788 
L 278.97907 -166.557788 
L 279.627907 -166.557788 
L 280.276744 -166.557788 
L 280.925581 -166.557788 
L 281.574419 -166.557788 
L 282.223256 -166.557788 
L 282.872093 -166.557788 
L 283.52093 -166.557788 
L 284.169767 -166.557788 
L 284.818605 -166.557788 
L 285.467442 -166.557788 
L 286.116279 -166.557788 
L 286.765116 -166.557788 
L 287.413953 -166.557788 
L 288.062791 -166.557788 
L 288.711628 -166.557788 
L 289.360465 -166.557788 
L 290.009302 -166.557788 
L 290.65814 -166.557788 
L 291.306977 -166.557788 
L 291.955814 -166.557788 
L 292.604651 -166.557788 
L 293.253488 -166.557788 
L 293.902326 -166.557788 
L 294.551163 -166.557788 
L 295.2 -166.557788 
L 295.848837 -166.557788 
L 296.497674 -166.557788 
L 297.146512 -166.557788 
L 297.795349 -166.557788 
L 298.444186 -166.557788 
L 299.093023 -166.557788 
L 299.74186 -166.557788 
L 300.390698 -166.557788 
L 301.039535 -166.557788 
L 301.688372 -166.557788 
L 302.337209 -166.557788 
L 302.986047 -166.557788 
L 303.634884 -166.557788 
L 304.283721 -166.557788 
L 304.932558 -166.557788 
L 305.581395 -166.557788 
L 306.230233 -166.557788 
L 306.87907 -166.557788 
L 307.527907 -166.557788 
L 308.176744 -166.557788 
L 308.825581 -166.557788 
L 309.474419 -166.557788 
L 310.123256 -166.557788 
L 310.772093 -166.557788 
L 311.42093 -166.557788 
L 312.069767 -166.557788 
L 312.718605 -166.557788 
L 313.367442 -166.557788 
L 314.016279 -166.557788 
L 314.665116 -166.557788 
L 315.313953 -166.557788 
L 315.962791 -166.557788 
L 316.611628 -166.557788 
L 317.260465 -166.557788 
L 317.909302 -166.557788 
L 318.55814 -166.557788 
L 319.206977 -166.557788 
L 319.855814 -166.557788 
L 320.504651 -166.557788 
L 321.153488 -166.557788 
L 321.802326 -166.557788 
L 322.451163 -166.557788 
L 323.1 -166.557788 
L 323.748837 -166.557788 
L 324.397674 -166.557788 
L 325.046512 -166.557788 
L 325.695349 -166.557788 
L 326.344186 -166.557788 
L 326.993023 -166.557788 
L 327.64186 -166.557788 
L 328.290698 -166.557788 
L 328.939535 -166.557788 
L 329.588372 -166.557788 
L 330.237209 -166.557788 
L 330.886047 -166.557788 
L 331.534884 -166.557788 
L 332.183721 -166.557788 
L 332.832558 -166.557788 
L 333.481395 -166.557788 
L 334.130233 -166.557788 
L 334.77907 -166.557788 
L 335.427907 -166.557788 
L 336.076744 -166.557788 
L 336.725581 -166.557788 
L 337.374419 -166.557788 
L 338.023256 -166.557788 
L 338.672093 -166.557788 
L 339.32093 -166.557788 
L 339.969767 -166.557788 
L 340.618605 -166.557788 
L 341.267442 -166.557788 
L 341.916279 -166.557788 
L 342.565116 -166.557788 
L 343.213953 -166.557788 
L 343.862791 -166.557788 
L 344.511628 -166.557788 
L 345.160465 -166.557788 
L 345.809302 -166.557788 
L 346.45814 -166.557788 
L 347.106977 -166.557788 
L 347.755814 -166.557788 
L 348.404651 -166.557788 
L 349.053488 -166.557788 
L 349.702326 -166.557788 
L 350.351163 -166.557788 
L 351 -166.557788 
L 351.648837 -166.557788 
L 352.297674 -166.557788 
L 352.946512 -166.557788 
L 353.595349 -166.557788 
L 354.244186 -166.557788 
L 354.893023 -166.557788 
L 355.54186 -166.557788 
L 356.190698 -166.557788 
L 356.839535 -166.557788 
L 357.488372 -166.557788 
L 358.137209 -166.557788 
L 358.786047 -166.557788 
L 359.434884 -166.557788 
L 360.083721 -166.557788 
L 360.732558 -166.557788 
L 361.381395 -166.557788 
L 362.030233 -166.557788 
L 362.67907 -166.557788 
L 363.327907 -166.557788 
L 363.976744 -166.557788 
L 364.625581 -166.557788 
L 365.274419 -166.557788 
L 365.923256 -166.557788 
L 366.572093 -166.557788 
L 367.22093 -166.557788 
L 367.869767 -166.557788 
L 368.518605 -166.557788 
L 369.167442 -166.557788 
L 369.816279 -166.557788 
L 370.465116 -166.557788 
L 371.113953 -166.557788 
L 371.762791 -166.557788 
L 372.411628 -166.557788 
L 373.060465 -166.557788 
L 373.709302 -166.557788 
L 374.35814 -166.557788 
L 375.006977 -166.557788 
L 375.655814 -166.557788 
L 376.304651 -166.557788 
L 376.953488 -166.557788 
L 377.602326 -166.557788 
L 378.251163 -166.557788 
L 378.9 -166.557788 
L 379.548837 -166.557788 
L 380.197674 -166.557788 
L 380.846512 -166.557788 
L 381.495349 -166.557788 
L 382.144186 -166.557788 
L 382.793023 -166.557788 
L 383.44186 -166.557788 
L 384.090698 -166.557788 
L 384.739535 -166.557788 
L 385.388372 -166.557788 
L 386.037209 -166.557788 
L 386.686047 -166.557788 
L 387.334884 -166.557788 
L 387.983721 -166.557788 
L 388.632558 -166.557788 
L 389.281395 -166.557788 
L 389.930233 -166.557788 
L 390.57907 -166.557788 
L 391.227907 -166.557788 
L 391.876744 -166.557788 
L 392.525581 -166.557788 
L 393.174419 -166.557788 
L 393.823256 -166.557788 
L 394.472093 -166.557788 
L 395.12093 -166.557788 
L 395.769767 -166.557788 
L 396.418605 -166.557788 
L 397.067442 -166.557788 
L 397.716279 -166.557788 
L 398.365116 -166.557788 
L 399.013953 -166.557788 
L 399.662791 -166.557788 
L 400.311628 -166.557788 
L 400.960465 -166.557788 
L 401.609302 -166.557788 
L 402.25814 -166.557788 
L 402.906977 -166.557788 
L 403.555814 -166.557788 
L 404.204651 -166.557788 
L 404.853488 -166.557788 
L 405.502326 -166.557788 
L 406.151163 -166.557788 
L 406.8 -166.557788 
L 407.448837 -166.557788 
L 408.097674 -166.557788 
L 408.746512 -166.557788 
L 409.395349 -166.557788 
L 410.044186 -166.557788 
L 410.693023 -166.557788 
L 411.34186 -166.557788 
L 411.990698 -166.557788 
L 412.639535 -166.557788 
L 413.288372 -166.557788 
L 413.937209 -166.557788 
L 414.586047 -166.557788 
L 415.234884 -166.557788 
L 415.883721 -166.557788 
L 416.532558 -166.557788 
L 417.181395 -166.557788 
L 417.830233 -166.557788 
L 418.47907 -166.557788 
L 419.127907 -166.557788 
L 419.776744 -166.557788 
L 420.425581 -166.557788 
L 421.074419 -166.557788 
L 421.723256 -166.557788 
L 422.372093 -166.557788 
L 423.02093 -166.557788 
L 423.669767 -166.557788 
L 424.318605 -166.557788 
L 424.967442 -166.557788 
L 425.616279 -166.557788 
L 426.265116 -166.557788 
L 426.913953 -166.557788 
L 427.562791 -166.557788 
L 428.211628 -166.557788 
L 428.860465 -166.557788 
L 429.509302 -166.557788 
L 430.15814 -166.557788 
L 430.806977 -166.557788 
L 431.455814 -166.557788 
L 432.104651 -166.557788 
L 432.753488 -166.557788 
L 433.402326 -166.557788 
L 434.051163 -166.557788 
L 434.7 -166.557788 
L 435.348837 -166.557788 
L 435.997674 -166.557788 
L 436.646512 -166.557788 
L 437.295349 -166.557788 
L 437.944186 -166.557788 
L 438.593023 -166.557788 
L 439.24186 -166.557788 
L 439.890698 -166.557788 
L 440.539535 -166.557788 
L 441.188372 -166.557788 
L 441.837209 -166.557788 
L 442.486047 -166.557788 
L 443.134884 -166.557788 
L 443.783721 -166.557788 
L 444.432558 -166.557788 
L 445.081395 -166.557788 
L 445.730233 -166.557788 
L 446.37907 -166.557788 
L 447.027907 -166.557788 
L 447.676744 -166.557788 
L 448.325581 -166.557788 
L 448.974419 -166.557788 
L 449.623256 -166.557788 
L 450.272093 -166.557788 
L 450.92093 -166.557788 
L 451.569767 -166.557788 
L 452.218605 -166.557788 
L 452.867442 -166.557788 
L 453.516279 -166.557788 
L 454.165116 -166.557788 
L 454.813953 -166.557788 
L 455.462791 -166.557788 
L 456.111628 -166.557788 
L 456.760465 -166.557788 
L 457.409302 -166.557788 
L 458.05814 -166.557788 
L 458.706977 -166.557788 
L 459.355814 -166.557788 
L 460.004651 -166.557788 
L 460.653488 -166.557788 
L 461.302326 -166.557788 
L 461.951163 -166.557788 
L 462.6 -166.557788 
L 463.248837 -166.557788 
L 463.897674 -166.557788 
L 464.546512 -166.557788 
L 465.195349 -166.557788 
L 465.844186 -166.557788 
L 466.493023 -166.557788 
L 467.14186 -166.557788 
L 467.790698 -166.557788 
L 468.439535 -166.557788 
L 469.088372 -166.557788 
L 469.737209 -166.557788 
L 470.386047 -166.557788 
L 471.034884 -166.557788 
L 471.683721 -166.557788 
L 472.332558 -166.557788 
L 472.981395 -166.557788 
L 473.630233 -166.557788 
L 474.27907 -166.557788 
L 474.927907 -166.557788 
L 475.576744 -166.557788 
L 476.225581 -166.557788 
L 476.874419 -166.557788 
L 477.523256 -166.557788 
L 478.172093 -166.557788 
L 478.82093 -166.557788 
L 479.469767 -166.557788 
L 480.118605 -166.557788 
L 480.767442 -166.557788 
L 481.416279 -166.557788 
L 482.065116 -166.557788 
L 482.713953 -166.557788 
L 483.362791 -166.557788 
L 484.011628 -166.557788 
L 484.660465 -166.557788 
L 485.309302 -166.557788 
L 485.95814 -166.557788 
L 486.606977 -166.557788 
L 487.255814 -166.557788 
L 487.904651 -166.557788 
L 488.553488 -166.557788 
L 489.202326 -166.557788 
L 489.851163 -166.557788 
L 490.5 -166.557788 
L 491.148837 -166.557788 
L 491.797674 -166.557788 
L 492.446512 -166.557788 
L 493.095349 -166.557788 
L 493.744186 -166.557788 
L 494.393023 -166.557788 
L 495.04186 -166.557788 
L 495.690698 -166.557788 
L 496.339535 -166.557788 
L 496.988372 -166.557788 
L 497.637209 -166.557788 
L 498.286047 -166.557788 
L 498.934884 -166.557788 
L 499.583721 -166.557788 
L 500.232558 -166.557788 
L 500.881395 -166.557788 
L 501.530233 -166.557788 
L 502.17907 -166.557788 
L 502.827907 -166.557788 
L 503.476744 -166.557788 
L 504.125581 -166.557788 
L 504.774419 -166.557788 
L 505.423256 -166.557788 
L 506.072093 -166.557788 
L 506.72093 -166.557788 
L 507.369767 -166.557788 
L 508.018605 -166.557788 
L 508.667442 -166.557788 
L 509.316279 -166.557788 
L 509.965116 -166.557788 
L 510.613953 -166.557788 
L 511.262791 -166.557788 
L 511.911628 -166.557788 
L 512.560465 -166.557788 
L 513.209302 -166.557788 
L 513.85814 -166.557788 
L 514.506977 -166.557788 
L 515.155814 -166.557788 
L 515.804651 -166.557788 
L 516.453488 -166.557788 
L 517.102326 -166.557788 
L 517.751163 -166.557788 
L 518.4 -166.557788 
L 518.4 -161.177463 
L 518.4 -161.177463 
L 517.751163 -161.177463 
L 517.102326 -161.177463 
L 516.453488 -161.177463 
L 515.804651 -161.177463 
L 515.155814 -161.177463 
L 514.506977 -161.177463 
L 513.85814 -161.177463 
L 513.209302 -161.177463 
L 512.560465 -161.177463 
L 511.911628 -161.177463 
L 511.262791 -161.177463 
L 510.613953 -161.177463 
L 509.965116 -161.177463 
L 509.316279 -161.177463 
L 508.667442 -161.177463 
L 508.018605 -161.177463 
L 507.369767 -161.177463 
L 506.72093 -161.177463 
L 506.072093 -161.177463 
L 505.423256 -161.177463 
L 504.774419 -161.177463 
L 504.125581 -161.177463 
L 503.476744 -161.177463 
L 502.827907 -161.177463 
L 502.17907 -161.177463 
L 501.530233 -161.177463 
L 500.881395 -161.177463 
L 500.232558 -161.177463 
L 499.583721 -161.177463 
L 498.934884 -161.177463 
L 498.286047 -161.177463 
L 497.637209 -161.177463 
L 496.988372 -161.177463 
L 496.339535 -161.177463 
L 495.690698 -161.177463 
L 495.04186 -161.177463 
L 494.393023 -161.177463 
L 493.744186 -161.177463 
L 493.095349 -161.177463 
L 492.446512 -161.177463 
L 491.797674 -161.177463 
L 491.148837 -161.177463 
L 490.5 -161.177463 
L 489.851163 -161.177463 
L 489.202326 -161.177463 
L 488.553488 -161.177463 
L 487.904651 -161.177463 
L 487.255814 -161.177463 
L 486.606977 -161.177463 
L 485.95814 -161.177463 
L 485.309302 -161.177463 
L 484.660465 -161.177463 
L 484.011628 -161.177463 
L 483.362791 -161.177463 
L 482.713953 -161.177463 
L 482.065116 -161.177463 
L 481.416279 -161.177463 
L 480.767442 -161.177463 
L 480.118605 -161.177463 
L 479.469767 -161.177463 
L 478.82093 -161.177463 
L 478.172093 -161.177463 
L 477.523256 -161.177463 
L 476.874419 -161.177463 
L 476.225581 -161.177463 
L 475.576744 -161.177463 
L 474.927907 -161.177463 
L 474.27907 -161.177463 
L 473.630233 -161.177463 
L 472.981395 -161.177463 
L 472.332558 -161.177463 
L 471.683721 -161.177463 
L 471.034884 -161.177463 
L 470.386047 -161.177463 
L 469.737209 -161.177463 
L 469.088372 -161.177463 
L 468.439535 -161.177463 
L 467.790698 -161.177463 
L 467.14186 -161.177463 
L 466.493023 -161.177463 
L 465.844186 -161.177463 
L 465.195349 -161.177463 
L 464.546512 -161.177463 
L 463.897674 -161.177463 
L 463.248837 -161.177463 
L 462.6 -161.177463 
L 461.951163 -161.177463 
L 461.302326 -161.177463 
L 460.653488 -161.177463 
L 460.004651 -161.177463 
L 459.355814 -161.177463 
L 458.706977 -161.177463 
L 458.05814 -161.177463 
L 457.409302 -161.177463 
L 456.760465 -161.177463 
L 456.111628 -161.177463 
L 455.462791 -161.177463 
L 454.813953 -161.177463 
L 454.165116 -161.177463 
L 453.516279 -161.177463 
L 452.867442 -161.177463 
L 452.218605 -161.177463 
L 451.569767 -161.177463 
L 450.92093 -161.177463 
L 450.272093 -161.177463 
L 449.623256 -161.177463 
L 448.974419 -161.177463 
L 448.325581 -161.177463 
L 447.676744 -161.177463 
L 447.027907 -161.177463 
L 446.37907 -161.177463 
L 445.730233 -161.177463 
L 445.081395 -161.177463 
L 444.432558 -161.177463 
L 443.783721 -161.177463 
L 443.134884 -161.177463 
L 442.486047 -161.177463 
L 441.837209 -161.177463 
L 441.188372 -161.177463 
L 440.539535 -161.177463 
L 439.890698 -161.177463 
L 439.24186 -161.177463 
L 438.593023 -161.177463 
L 437.944186 -161.177463 
L 437.295349 -161.177463 
L 436.646512 -161.177463 
L 435.997674 -161.177463 
L 435.348837 -161.177463 
L 434.7 -161.177463 
L 434.051163 -161.177463 
L 433.402326 -161.177463 
L 432.753488 -161.177463 
L 432.104651 -161.177463 
L 431.455814 -161.177463 
L 430.806977 -161.177463 
L 430.15814 -161.177463 
L 429.509302 -161.177463 
L 428.860465 -161.177463 
L 428.211628 -161.177463 
L 427.562791 -161.177463 
L 426.913953 -161.177463 
L 426.265116 -161.177463 
L 425.616279 -161.177463 
L 424.967442 -161.177463 
L 424.318605 -161.177463 
L 423.669767 -161.177463 
L 423.02093 -161.177463 
L 422.372093 -161.177463 
L 421.723256 -161.177463 
L 421.074419 -161.177463 
L 420.425581 -161.177463 
L 419.776744 -161.177463 
L 419.127907 -161.177463 
L 418.47907 -161.177463 
L 417.830233 -161.177463 
L 417.181395 -161.177463 
L 416.532558 -161.177463 
L 415.883721 -161.177463 
L 415.234884 -161.177463 
L 414.586047 -161.177463 
L 413.937209 -161.177463 
L 413.288372 -161.177463 
L 412.639535 -161.177463 
L 411.990698 -161.177463 
L 411.34186 -161.177463 
L 410.693023 -161.177463 
L 410.044186 -161.177463 
L 409.395349 -161.177463 
L 408.746512 -161.177463 
L 408.097674 -161.177463 
L 407.448837 -161.177463 
L 406.8 -161.177463 
L 406.151163 -161.177463 
L 405.502326 -161.177463 
L 404.853488 -161.177463 
L 404.204651 -161.177463 
L 403.555814 -161.177463 
L 402.906977 -161.177463 
L 402.25814 -161.177463 
L 401.609302 -161.177463 
L 400.960465 -161.177463 
L 400.311628 -161.177463 
L 399.662791 -161.177463 
L 399.013953 -161.177463 
L 398.365116 -161.177463 
L 397.716279 -161.177463 
L 397.067442 -161.177463 
L 396.418605 -161.177463 
L 395.769767 -161.177463 
L 395.12093 -161.177463 
L 394.472093 -161.177463 
L 393.823256 -161.177463 
L 393.174419 -161.177463 
L 392.525581 -161.177463 
L 391.876744 -161.177463 
L 391.227907 -161.177463 
L 390.57907 -161.177463 
L 389.930233 -161.177463 
L 389.281395 -161.177463 
L 388.632558 -161.177463 
L 387.983721 -161.177463 
L 387.334884 -161.177463 
L 386.686047 -161.177463 
L 386.037209 -161.177463 
L 385.388372 -161.177463 
L 384.739535 -161.177463 
L 384.090698 -161.177463 
L 383.44186 -161.177463 
L 382.793023 -161.177463 
L 382.144186 -161.177463 
L 381.495349 -161.177463 
L 380.846512 -161.177463 
L 380.197674 -161.177463 
L 379.548837 -161.177463 
L 378.9 -161.177463 
L 378.251163 -161.177463 
L 377.602326 -161.177463 
L 376.953488 -161.177463 
L 376.304651 -161.177463 
L 375.655814 -161.177463 
L 375.006977 -161.177463 
L 374.35814 -161.177463 
L 373.709302 -161.177463 
L 373.060465 -161.177463 
L 372.411628 -161.177463 
L 371.762791 -161.177463 
L 371.113953 -161.177463 
L 370.465116 -161.177463 
L 369.816279 -161.177463 
L 369.167442 -161.177463 
L 368.518605 -161.177463 
L 367.869767 -161.177463 
L 367.22093 -161.177463 
L 366.572093 -161.177463 
L 365.923256 -161.177463 
L 365.274419 -161.177463 
L 364.625581 -161.177463 
L 363.976744 -161.177463 
L 363.327907 -161.177463 
L 362.67907 -161.177463 
L 362.030233 -161.177463 
L 361.381395 -161.177463 
L 360.732558 -161.177463 
L 360.083721 -161.177463 
L 359.434884 -161.177463 
L 358.786047 -161.177463 
L 358.137209 -161.177463 
L 357.488372 -161.177463 
L 356.839535 -161.177463 
L 356.190698 -161.177463 
L 355.54186 -161.177463 
L 354.893023 -161.177463 
L 354.244186 -161.177463 
L 353.595349 -161.177463 
L 352.946512 -161.177463 
L 352.297674 -161.177463 
L 351.648837 -161.177463 
L 351 -161.177463 
L 350.351163 -161.177463 
L 349.702326 -161.177463 
L 349.053488 -161.177463 
L 348.404651 -161.177463 
L 347.755814 -161.177463 
L 347.106977 -161.177463 
L 346.45814 -161.177463 
L 345.809302 -161.177463 
L 345.160465 -161.177463 
L 344.511628 -161.177463 
L 343.862791 -161.177463 
L 343.213953 -161.177463 
L 342.565116 -161.177463 
L 341.916279 -161.177463 
L 341.267442 -161.177463 
L 340.618605 -161.177463 
L 339.969767 -161.177463 
L 339.32093 -161.177463 
L 338.672093 -161.177463 
L 338.023256 -161.177463 
L 337.374419 -161.177463 
L 336.725581 -161.177463 
L 336.076744 -161.177463 
L 335.427907 -161.177463 
L 334.77907 -161.177463 
L 334.130233 -161.177463 
L 333.481395 -161.177463 
L 332.832558 -161.177463 
L 332.183721 -161.177463 
L 331.534884 -161.177463 
L 330.886047 -161.177463 
L 330.237209 -161.177463 
L 329.588372 -161.177463 
L 328.939535 -161.177463 
L 328.290698 -161.177463 
L 327.64186 -161.177463 
L 326.993023 -161.177463 
L 326.344186 -161.177463 
L 325.695349 -161.177463 
L 325.046512 -161.177463 
L 324.397674 -161.177463 
L 323.748837 -161.177463 
L 323.1 -161.177463 
L 322.451163 -161.177463 
L 321.802326 -161.177463 
L 321.153488 -161.177463 
L 320.504651 -161.177463 
L 319.855814 -161.177463 
L 319.206977 -161.177463 
L 318.55814 -161.177463 
L 317.909302 -161.177463 
L 317.260465 -161.177463 
L 316.611628 -161.177463 
L 315.962791 -161.177463 
L 315.313953 -161.177463 
L 314.665116 -161.177463 
L 314.016279 -161.177463 
L 313.367442 -161.177463 
L 312.718605 -161.177463 
L 312.069767 -161.177463 
L 311.42093 -161.177463 
L 310.772093 -161.177463 
L 310.123256 -161.177463 
L 309.474419 -161.177463 
L 308.825581 -161.177463 
L 308.176744 -161.177463 
L 307.527907 -161.177463 
L 306.87907 -161.177463 
L 306.230233 -161.177463 
L 305.581395 -161.177463 
L 304.932558 -161.177463 
L 304.283721 -161.177463 
L 303.634884 -161.177463 
L 302.986047 -161.177463 
L 302.337209 -161.177463 
L 301.688372 -161.177463 
L 301.039535 -161.177463 
L 300.390698 -161.177463 
L 299.74186 -161.177463 
L 299.093023 -161.177463 
L 298.444186 -161.177463 
L 297.795349 -161.177463 
L 297.146512 -161.177463 
L 296.497674 -161.177463 
L 295.848837 -161.177463 
L 295.2 -161.177463 
L 294.551163 -161.177463 
L 293.902326 -161.177463 
L 293.253488 -161.177463 
L 292.604651 -161.177463 
L 291.955814 -161.177463 
L 291.306977 -161.177463 
L 290.65814 -161.177463 
L 290.009302 -161.177463 
L 289.360465 -161.177463 
L 288.711628 -161.177463 
L 288.062791 -161.177463 
L 287.413953 -161.177463 
L 286.765116 -161.177463 
L 286.116279 -161.177463 
L 285.467442 -161.177463 
L 284.818605 -161.177463 
L 284.169767 -161.177463 
L 283.52093 -161.177463 
L 282.872093 -161.177463 
L 282.223256 -161.177463 
L 281.574419 -161.177463 
L 280.925581 -161.177463 
L 280.276744 -161.177463 
L 279.627907 -161.177463 
L 278.97907 -161.177463 
L 278.330233 -161.177463 
L 277.681395 -161.177463 
L 277.032558 -161.177463 
L 276.383721 -161.177463 
L 275.734884 -161.177463 
L 275.086047 -161.177463 
L 274.437209 -161.177463 
L 273.788372 -161.177463 
L 273.139535 -161.177463 
L 272.490698 -161.177463 
L 271.84186 -161.177463 
L 271.193023 -161.177463 
L 270.544186 -161.177463 
L 269.895349 -161.177463 
L 269.246512 -161.177463 
L 268.597674 -161.177463 
L 267.948837 -161.177463 
L 267.3 -161.177463 
L 266.651163 -161.177463 
L 266.002326 -161.177463 
L 265.353488 -161.177463 
L 264.704651 -161.177463 
L 264.055814 -161.177463 
L 263.406977 -161.177463 
L 262.75814 -161.177463 
L 262.109302 -161.177463 
L 261.460465 -161.177463 
L 260.811628 -161.177463 
L 260.162791 -161.177463 
L 259.513953 -161.177463 
L 258.865116 -161.177463 
L 258.216279 -161.177463 
L 257.567442 -161.177463 
L 256.918605 -161.177463 
L 256.269767 -161.177463 
L 255.62093 -161.177463 
L 254.972093 -161.177463 
L 254.323256 -161.177463 
L 253.674419 -161.177463 
L 253.025581 -161.177463 
L 252.376744 -161.177463 
L 251.727907 -161.177463 
L 251.07907 -161.177463 
L 250.430233 -161.177463 
L 249.781395 -161.177463 
L 249.132558 -161.177463 
L 248.483721 -161.177463 
L 247.834884 -161.177463 
L 247.186047 -161.177463 
L 246.537209 -161.177463 
L 245.888372 -161.177463 
L 245.239535 -161.177463 
L 244.590698 -161.177463 
L 243.94186 -161.177463 
L 243.293023 -161.177463 
L 242.644186 -161.177463 
L 241.995349 -161.177463 
L 241.346512 -161.177463 
L 240.697674 -161.177463 
L 240.048837 -161.177463 
L 239.4 -161.177463 
L 238.751163 -161.177463 
L 238.102326 -161.177463 
L 237.453488 -161.177463 
L 236.804651 -161.177463 
L 236.155814 -161.177463 
L 235.506977 -161.177463 
L 234.85814 -161.177463 
L 234.209302 -161.177463 
L 233.560465 -161.177463 
L 232.911628 -161.177463 
L 232.262791 -161.177463 
L 231.613953 -161.177463 
L 230.965116 -161.177463 
L 230.316279 -161.177463 
L 229.667442 -161.177463 
L 229.018605 -161.177463 
L 228.369767 -161.177463 
L 227.72093 -161.177463 
L 227.072093 -161.177463 
L 226.423256 -161.177463 
L 225.774419 -161.177463 
L 225.125581 -161.177463 
L 224.476744 -161.177463 
L 223.827907 -161.177463 
L 223.17907 -161.177463 
L 222.530233 -161.177463 
L 221.881395 -161.177463 
L 221.232558 -161.177463 
L 220.583721 -161.177463 
L 219.934884 -161.177463 
L 219.286047 -161.177463 
L 218.637209 -161.177463 
L 217.988372 -161.177463 
L 217.339535 -161.177463 
L 216.690698 -161.177463 
L 216.04186 -161.177463 
L 215.393023 -161.177463 
L 214.744186 -161.177463 
L 214.095349 -161.177463 
L 213.446512 -161.177463 
L 212.797674 -161.177463 
L 212.148837 -161.177463 
L 211.5 -161.177463 
L 210.851163 -161.177463 
L 210.202326 -161.177463 
L 209.553488 -161.177463 
L 208.904651 -161.177463 
L 208.255814 -161.177463 
L 207.606977 -161.177463 
L 206.95814 -161.177463 
L 206.309302 -161.177463 
L 205.660465 -161.177463 
L 205.011628 -161.177463 
L 204.362791 -161.177463 
L 203.713953 -161.177463 
L 203.065116 -161.177463 
L 202.416279 -161.177463 
L 201.767442 -161.177463 
L 201.118605 -161.177463 
L 200.469767 -161.177463 
L 199.82093 -161.177463 
L 199.172093 -161.177463 
L 198.523256 -161.177463 
L 197.874419 -161.177463 
L 197.225581 -161.177463 
L 196.576744 -161.177463 
L 195.927907 -161.177463 
L 195.27907 -161.177463 
L 194.630233 -161.177463 
L 193.981395 -161.177463 
L 193.332558 -161.177463 
L 192.683721 -161.177463 
L 192.034884 -161.177463 
L 191.386047 -161.177463 
L 190.737209 -161.177463 
L 190.088372 -161.177463 
L 189.439535 -161.177463 
L 188.790698 -161.177463 
L 188.14186 -161.177463 
L 187.493023 -161.177463 
L 186.844186 -161.177463 
L 186.195349 -161.177463 
L 185.546512 -161.177463 
L 184.897674 -161.177463 
L 184.248837 -161.177463 
L 183.6 -161.177463 
L 182.951163 -161.177463 
L 182.302326 -161.177463 
L 181.653488 -161.177463 
L 181.004651 -161.177463 
L 180.355814 -161.177463 
L 179.706977 -161.177463 
L 179.05814 -161.177463 
L 178.409302 -161.177463 
L 177.760465 -161.177463 
L 177.111628 -161.177463 
L 176.462791 -161.177463 
L 175.813953 -161.177463 
L 175.165116 -161.177463 
L 174.516279 -161.177463 
L 173.867442 -161.177463 
L 173.218605 -161.177463 
L 172.569767 -161.177463 
L 171.92093 -161.177463 
L 171.272093 -161.177463 
L 170.623256 -161.177463 
L 169.974419 -161.177463 
L 169.325581 -161.177463 
L 168.676744 -161.177463 
L 168.027907 -161.177463 
L 167.37907 -161.177463 
L 166.730233 -161.177463 
L 166.081395 -161.177463 
L 165.432558 -161.177463 
L 164.783721 -161.177463 
L 164.134884 -161.177463 
L 163.486047 -161.177463 
L 162.837209 -161.177463 
L 162.188372 -161.177463 
L 161.539535 -161.177463 
L 160.890698 -161.177463 
L 160.24186 -161.177463 
L 159.593023 -161.177463 
L 158.944186 -161.177463 
L 158.295349 -161.177463 
L 157.646512 -161.177463 
L 156.997674 -161.177463 
L 156.348837 -161.177463 
L 155.7 -161.177463 
L 155.051163 -161.177463 
L 154.402326 -161.177463 
L 153.753488 -161.177463 
L 153.104651 -161.177463 
L 152.455814 -161.177463 
L 151.806977 -161.177463 
L 151.15814 -161.177463 
L 150.509302 -161.177463 
L 149.860465 -161.177463 
L 149.211628 -161.177463 
L 148.562791 -161.177463 
L 147.913953 -161.177463 
L 147.265116 -161.177463 
L 146.616279 -161.177463 
L 145.967442 -161.177463 
L 145.318605 -161.177463 
L 144.669767 -161.177463 
L 144.02093 -161.177463 
L 143.372093 -161.177463 
L 142.723256 -161.177463 
L 142.074419 -161.177463 
L 141.425581 -161.177463 
L 140.776744 -161.177463 
L 140.127907 -161.177463 
L 139.47907 -161.177463 
L 138.830233 -161.177463 
L 138.181395 -161.177463 
L 137.532558 -161.177463 
L 136.883721 -161.177463 
L 136.234884 -161.177463 
L 135.586047 -161.177463 
L 134.937209 -161.177463 
L 134.288372 -161.177463 
L 133.639535 -161.177463 
L 132.990698 -161.177463 
L 132.34186 -161.177463 
L 131.693023 -161.177463 
L 131.044186 -161.177463 
L 130.395349 -161.177463 
L 129.746512 -161.177463 
L 129.097674 -161.177463 
L 128.448837 -161.177463 
L 127.8 -161.177463 
L 127.151163 -161.177463 
L 126.502326 -161.177463 
L 125.853488 -161.177463 
L 125.204651 -161.177463 
L 124.555814 -161.177463 
L 123.906977 -161.177463 
L 123.25814 -161.177463 
L 122.609302 -161.177463 
L 121.960465 -161.177463 
L 121.311628 -161.177463 
L 120.662791 -161.177463 
L 120.013953 -161.177463 
L 119.365116 -161.177463 
L 118.716279 -161.177463 
L 118.067442 -161.177463 
L 117.418605 -161.177463 
L 116.769767 -161.177463 
L 116.12093 -161.177463 
L 115.472093 -161.177463 
L 114.823256 -161.177463 
L 114.174419 -161.177463 
L 113.525581 -161.177463 
L 112.876744 -161.177463 
L 112.227907 -161.177463 
L 111.57907 -161.177463 
L 110.930233 -161.177463 
L 110.281395 -161.177463 
L 109.632558 -161.177463 
L 108.983721 -161.177463 
L 108.334884 -161.177463 
L 107.686047 -161.177463 
L 107.037209 -161.177463 
L 106.388372 -161.177463 
L 105.739535 -161.177463 
L 105.090698 -161.177463 
L 104.44186 -161.177463 
L 103.793023 -161.177463 
L 103.144186 -161.177463 
L 102.495349 -161.177463 
L 101.846512 -161.177463 
L 101.197674 -161.177463 
L 100.548837 -161.177463 
L 99.9 -161.177463 
L 99.251163 -161.177463 
L 98.602326 -161.177463 
L 97.953488 -161.177463 
L 97.304651 -161.177463 
L 96.655814 -161.177463 
L 96.006977 -161.177463 
L 95.35814 -161.177463 
L 94.709302 -161.177463 
L 94.060465 -161.177463 
L 93.411628 -161.177463 
L 92.762791 -161.177463 
L 92.113953 -161.177463 
L 91.465116 -161.177463 
L 90.816279 -161.177463 
L 90.167442 -161.177463 
L 89.518605 -161.177463 
L 88.869767 -161.177463 
L 88.22093 -161.177463 
L 87.572093 -161.177463 
L 86.923256 -161.177463 
L 86.274419 -161.177463 
L 85.625581 -161.177463 
L 84.976744 -161.177463 
L 84.327907 -161.177463 
L 83.67907 -161.177463 
L 83.030233 -161.177463 
L 82.381395 -161.177463 
L 81.732558 -161.177463 
L 81.083721 -161.177463 
L 80.434884 -161.177463 
L 79.786047 -161.177463 
L 79.137209 -161.177463 
L 78.488372 -161.177463 
L 77.839535 -161.177463 
L 77.190698 -161.177463 
L 76.54186 -161.177463 
L 75.893023 -161.177463 
L 75.244186 -161.177463 
L 74.595349 -161.177463 
L 73.946512 -161.177463 
L 73.297674 -161.177463 
L 72.648837 -161.177463 
L 72 -161.177463 
z
" id="m5408a2c090"/>
    </defs>
    <g clip-path="url(#paa4ab48d1b)">
     <use style="fill-opacity:0.15;" x="0" xlink:href="#m5408a2c090" y="360"/>
    </g>
   </g>
   <g id="matplotlib.axis_1">
    <g id="xtick_1">
     <g id="line2d_1">
      <defs>
       <path d="M 0 0 
L 0 3.5 
" id="mbb9bf326f0" style="stroke:#000000;stroke-width:0.8;"/>
      </defs>
      <g>
       <use style="stroke:#000000;stroke-width:0.8;" x="72" xlink:href="#mbb9bf326f0" y="320.4"/>
      </g>
     </g>
     <g id="text_1">
      <!-- 0.0 -->
      <g transform="translate(60.867812 338.037813)scale(0.14 -0.14)">
       <defs>
        <path d="M 2034 4250 
Q 1547 4250 1301 3770 
Q 1056 3291 1056 2328 
Q 1056 1369 1301 889 
Q 1547 409 2034 409 
Q 2525 409 2770 889 
Q 3016 1369 3016 2328 
Q 3016 3291 2770 3770 
Q 2525 4250 2034 4250 
z
M 2034 4750 
Q 2819 4750 3233 4129 
Q 3647 3509 3647 2328 
Q 3647 1150 3233 529 
Q 2819 -91 2034 -91 
Q 1250 -91 836 529 
Q 422 1150 422 2328 
Q 422 3509 836 4129 
Q 1250 4750 2034 4750 
z
" id="DejaVuSans-30" transform="scale(0.015625)"/>
        <path d="M 684 794 
L 1344 794 
L 1344 0 
L 684 0 
L 684 794 
z
" id="DejaVuSans-2e" transform="scale(0.015625)"/>
       </defs>
       <use xlink:href="#DejaVuSans-30"/>
       <use x="63.623047" xlink:href="#DejaVuSans-2e"/>
       <use x="95.410156" xlink:href="#DejaVuSans-30"/>
      </g>
     </g>
    </g>
    <g id="xtick_2">
     <g id="line2d_2">
      <g>
       <use style="stroke:#000000;stroke-width:0.8;" x="127.861448" xlink:href="#mbb9bf326f0" y="320.4"/>
      </g>
     </g>
     <g id="text_2">
      <!-- 2.5 -->
      <g transform="translate(116.72926 338.037813)scale(0.14 -0.14)">
       <defs>
        <path d="M 1228 531 
L 3431 531 
L 3431 0 
L 469 0 
L 469 531 
Q 828 903 1448 1529 
Q 2069 2156 2228 2338 
Q 2531 2678 2651 2914 
Q 2772 3150 2772 3378 
Q 2772 3750 2511 3984 
Q 2250 4219 1831 4219 
Q 1534 4219 1204 4116 
Q 875 4013 500 3803 
L 500 4441 
Q 881 4594 1212 4672 
Q 1544 4750 1819 4750 
Q 2544 4750 2975 4387 
Q 3406 4025 3406 3419 
Q 3406 3131 3298 2873 
Q 3191 2616 2906 2266 
Q 2828 2175 2409 1742 
Q 1991 1309 1228 531 
z
" id="DejaVuSans-32" transform="scale(0.015625)"/>
        <path d="M 691 4666 
L 3169 4666 
L 3169 4134 
L 1269 4134 
L 1269 2991 
Q 1406 3038 1543 3061 
Q 1681 3084 1819 3084 
Q 2600 3084 3056 2656 
Q 3513 2228 3513 1497 
Q 3513 744 3044 326 
Q 2575 -91 1722 -91 
Q 1428 -91 1123 -41 
Q 819 9 494 109 
L 494 744 
Q 775 591 1075 516 
Q 1375 441 1709 441 
Q 2250 441 2565 725 
Q 2881 1009 2881 1497 
Q 2881 1984 2565 2268 
Q 2250 2553 1709 2553 
Q 1456 2553 1204 2497 
Q 953 2441 691 2322 
L 691 4666 
z
" id="DejaVuSans-35" transform="scale(0.015625)"/>
       </defs>
       <use xlink:href="#DejaVuSans-32"/>
       <use x="63.623047" xlink:href="#DejaVuSans-2e"/>
       <use x="95.410156" xlink:href="#DejaVuSans-35"/>
      </g>
     </g>
    </g>
    <g id="xtick_3">
     <g id="line2d_3">
      <g>
       <use style="stroke:#000000;stroke-width:0.8;" x="183.722895" xlink:href="#mbb9bf326f0" y="320.4"/>
      </g>
     </g>
     <g id="text_3">
      <!-- 5.0 -->
      <g transform="translate(172.590708 338.037813)scale(0.14 -0.14)">
       <use xlink:href="#DejaVuSans-35"/>
       <use x="63.623047" xlink:href="#DejaVuSans-2e"/>
       <use x="95.410156" xlink:href="#DejaVuSans-30"/>
      </g>
     </g>
    </g>
    <g id="xtick_4">
     <g id="line2d_4">
      <g>
       <use style="stroke:#000000;stroke-width:0.8;" x="239.584343" xlink:href="#mbb9bf326f0" y="320.4"/>
      </g>
     </g>
     <g id="text_4">
      <!-- 7.5 -->
      <g transform="translate(228.452155 338.037813)scale(0.14 -0.14)">
       <defs>
        <path d="M 525 4666 
L 3525 4666 
L 3525 4397 
L 1831 0 
L 1172 0 
L 2766 4134 
L 525 4134 
L 525 4666 
z
" id="DejaVuSans-37" transform="scale(0.015625)"/>
       </defs>
       <use xlink:href="#DejaVuSans-37"/>
       <use x="63.623047" xlink:href="#DejaVuSans-2e"/>
       <use x="95.410156" xlink:href="#DejaVuSans-35"/>
      </g>
     </g>
    </g>
    <g id="xtick_5">
     <g id="line2d_5">
      <g>
       <use style="stroke:#000000;stroke-width:0.8;" x="295.44579" xlink:href="#mbb9bf326f0" y="320.4"/>
      </g>
     </g>
     <g id="text_5">
      <!-- 10.0 -->
      <g transform="translate(279.859853 338.037813)scale(0.14 -0.14)">
       <defs>
        <path d="M 794 531 
L 1825 531 
L 1825 4091 
L 703 3866 
L 703 4441 
L 1819 4666 
L 2450 4666 
L 2450 531 
L 3481 531 
L 3481 0 
L 794 0 
L 794 531 
z
" id="DejaVuSans-31" transform="scale(0.015625)"/>
       </defs>
       <use xlink:href="#DejaVuSans-31"/>
       <use x="63.623047" xlink:href="#DejaVuSans-30"/>
       <use x="127.246094" xlink:href="#DejaVuSans-2e"/>
       <use x="159.033203" xlink:href="#DejaVuSans-30"/>
      </g>
     </g>
    </g>
    <g id="xtick_6">
     <g id="line2d_6">
      <g>
       <use style="stroke:#000000;stroke-width:0.8;" x="351.307238" xlink:href="#mbb9bf326f0" y="320.4"/>
      </g>
     </g>
     <g id="text_6">
      <!-- 12.5 -->
      <g transform="translate(335.7213 338.037813)scale(0.14 -0.14)">
       <use xlink:href="#DejaVuSans-31"/>
       <use x="63.623047" xlink:href="#DejaVuSans-32"/>
       <use x="127.246094" xlink:href="#DejaVuSans-2e"/>
       <use x="159.033203" xlink:href="#DejaVuSans-35"/>
      </g>
     </g>
    </g>
    <g id="xtick_7">
     <g id="line2d_7">
      <g>
       <use style="stroke:#000000;stroke-width:0.8;" x="407.168686" xlink:href="#mbb9bf326f0" y="320.4"/>
      </g>
     </g>
     <g id="text_7">
      <!-- 15.0 -->
      <g transform="translate(391.582748 338.037813)scale(0.14 -0.14)">
       <use xlink:href="#DejaVuSans-31"/>
       <use x="63.623047" xlink:href="#DejaVuSans-35"/>
       <use x="127.246094" xlink:href="#DejaVuSans-2e"/>
       <use x="159.033203" xlink:href="#DejaVuSans-30"/>
      </g>
     </g>
    </g>
    <g id="xtick_8">
     <g id="line2d_8">
      <g>
       <use style="stroke:#000000;stroke-width:0.8;" x="463.030133" xlink:href="#mbb9bf326f0" y="320.4"/>
      </g>
     </g>
     <g id="text_8">
      <!-- 17.5 -->
      <g transform="translate(447.444196 338.037813)scale(0.14 -0.14)">
       <use xlink:href="#DejaVuSans-31"/>
       <use x="63.623047" xlink:href="#DejaVuSans-37"/>
       <use x="127.246094" xlink:href="#DejaVuSans-2e"/>
       <use x="159.033203" xlink:href="#DejaVuSans-35"/>
      </g>
     </g>
    </g>
    <g id="text_9">
     <!-- Time [Seconds] -->
     <g transform="translate(233.23 357.106875)scale(0.16 -0.16)">
      <defs>
       <path d="M -19 4666 
L 3928 4666 
L 3928 4134 
L 2272 4134 
L 2272 0 
L 1638 0 
L 1638 4134 
L -19 4134 
L -19 4666 
z
" id="DejaVuSans-54" transform="scale(0.015625)"/>
       <path d="M 603 3500 
L 1178 3500 
L 1178 0 
L 603 0 
L 603 3500 
z
M 603 4863 
L 1178 4863 
L 1178 4134 
L 603 4134 
L 603 4863 
z
" id="DejaVuSans-69" transform="scale(0.015625)"/>
       <path d="M 3328 2828 
Q 3544 3216 3844 3400 
Q 4144 3584 4550 3584 
Q 5097 3584 5394 3201 
Q 5691 2819 5691 2113 
L 5691 0 
L 5113 0 
L 5113 2094 
Q 5113 2597 4934 2840 
Q 4756 3084 4391 3084 
Q 3944 3084 3684 2787 
Q 3425 2491 3425 1978 
L 3425 0 
L 2847 0 
L 2847 2094 
Q 2847 2600 2669 2842 
Q 2491 3084 2119 3084 
Q 1678 3084 1418 2786 
Q 1159 2488 1159 1978 
L 1159 0 
L 581 0 
L 581 3500 
L 1159 3500 
L 1159 2956 
Q 1356 3278 1631 3431 
Q 1906 3584 2284 3584 
Q 2666 3584 2933 3390 
Q 3200 3197 3328 2828 
z
" id="DejaVuSans-6d" transform="scale(0.015625)"/>
       <path d="M 3597 1894 
L 3597 1613 
L 953 1613 
Q 991 1019 1311 708 
Q 1631 397 2203 397 
Q 2534 397 2845 478 
Q 3156 559 3463 722 
L 3463 178 
Q 3153 47 2828 -22 
Q 2503 -91 2169 -91 
Q 1331 -91 842 396 
Q 353 884 353 1716 
Q 353 2575 817 3079 
Q 1281 3584 2069 3584 
Q 2775 3584 3186 3129 
Q 3597 2675 3597 1894 
z
M 3022 2063 
Q 3016 2534 2758 2815 
Q 2500 3097 2075 3097 
Q 1594 3097 1305 2825 
Q 1016 2553 972 2059 
L 3022 2063 
z
" id="DejaVuSans-65" transform="scale(0.015625)"/>
       <path id="DejaVuSans-20" transform="scale(0.015625)"/>
       <path d="M 550 4863 
L 1875 4863 
L 1875 4416 
L 1125 4416 
L 1125 -397 
L 1875 -397 
L 1875 -844 
L 550 -844 
L 550 4863 
z
" id="DejaVuSans-5b" transform="scale(0.015625)"/>
       <path d="M 3425 4513 
L 3425 3897 
Q 3066 4069 2747 4153 
Q 2428 4238 2131 4238 
Q 1616 4238 1336 4038 
Q 1056 3838 1056 3469 
Q 1056 3159 1242 3001 
Q 1428 2844 1947 2747 
L 2328 2669 
Q 3034 2534 3370 2195 
Q 3706 1856 3706 1288 
Q 3706 609 3251 259 
Q 2797 -91 1919 -91 
Q 1588 -91 1214 -16 
Q 841 59 441 206 
L 441 856 
Q 825 641 1194 531 
Q 1563 422 1919 422 
Q 2459 422 2753 634 
Q 3047 847 3047 1241 
Q 3047 1584 2836 1778 
Q 2625 1972 2144 2069 
L 1759 2144 
Q 1053 2284 737 2584 
Q 422 2884 422 3419 
Q 422 4038 858 4394 
Q 1294 4750 2059 4750 
Q 2388 4750 2728 4690 
Q 3069 4631 3425 4513 
z
" id="DejaVuSans-53" transform="scale(0.015625)"/>
       <path d="M 3122 3366 
L 3122 2828 
Q 2878 2963 2633 3030 
Q 2388 3097 2138 3097 
Q 1578 3097 1268 2742 
Q 959 2388 959 1747 
Q 959 1106 1268 751 
Q 1578 397 2138 397 
Q 2388 397 2633 464 
Q 2878 531 3122 666 
L 3122 134 
Q 2881 22 2623 -34 
Q 2366 -91 2075 -91 
Q 1284 -91 818 406 
Q 353 903 353 1747 
Q 353 2603 823 3093 
Q 1294 3584 2113 3584 
Q 2378 3584 2631 3529 
Q 2884 3475 3122 3366 
z
" id="DejaVuSans-63" transform="scale(0.015625)"/>
       <path d="M 1959 3097 
Q 1497 3097 1228 2736 
Q 959 2375 959 1747 
Q 959 1119 1226 758 
Q 1494 397 1959 397 
Q 2419 397 2687 759 
Q 2956 1122 2956 1747 
Q 2956 2369 2687 2733 
Q 2419 3097 1959 3097 
z
M 1959 3584 
Q 2709 3584 3137 3096 
Q 3566 2609 3566 1747 
Q 3566 888 3137 398 
Q 2709 -91 1959 -91 
Q 1206 -91 779 398 
Q 353 888 353 1747 
Q 353 2609 779 3096 
Q 1206 3584 1959 3584 
z
" id="DejaVuSans-6f" transform="scale(0.015625)"/>
       <path d="M 3513 2113 
L 3513 0 
L 2938 0 
L 2938 2094 
Q 2938 2591 2744 2837 
Q 2550 3084 2163 3084 
Q 1697 3084 1428 2787 
Q 1159 2491 1159 1978 
L 1159 0 
L 581 0 
L 581 3500 
L 1159 3500 
L 1159 2956 
Q 1366 3272 1645 3428 
Q 1925 3584 2291 3584 
Q 2894 3584 3203 3211 
Q 3513 2838 3513 2113 
z
" id="DejaVuSans-6e" transform="scale(0.015625)"/>
       <path d="M 2906 2969 
L 2906 4863 
L 3481 4863 
L 3481 0 
L 2906 0 
L 2906 525 
Q 2725 213 2448 61 
Q 2172 -91 1784 -91 
Q 1150 -91 751 415 
Q 353 922 353 1747 
Q 353 2572 751 3078 
Q 1150 3584 1784 3584 
Q 2172 3584 2448 3432 
Q 2725 3281 2906 2969 
z
M 947 1747 
Q 947 1113 1208 752 
Q 1469 391 1925 391 
Q 2381 391 2643 752 
Q 2906 1113 2906 1747 
Q 2906 2381 2643 2742 
Q 2381 3103 1925 3103 
Q 1469 3103 1208 2742 
Q 947 2381 947 1747 
z
" id="DejaVuSans-64" transform="scale(0.015625)"/>
       <path d="M 2834 3397 
L 2834 2853 
Q 2591 2978 2328 3040 
Q 2066 3103 1784 3103 
Q 1356 3103 1142 2972 
Q 928 2841 928 2578 
Q 928 2378 1081 2264 
Q 1234 2150 1697 2047 
L 1894 2003 
Q 2506 1872 2764 1633 
Q 3022 1394 3022 966 
Q 3022 478 2636 193 
Q 2250 -91 1575 -91 
Q 1294 -91 989 -36 
Q 684 19 347 128 
L 347 722 
Q 666 556 975 473 
Q 1284 391 1588 391 
Q 1994 391 2212 530 
Q 2431 669 2431 922 
Q 2431 1156 2273 1281 
Q 2116 1406 1581 1522 
L 1381 1569 
Q 847 1681 609 1914 
Q 372 2147 372 2553 
Q 372 3047 722 3315 
Q 1072 3584 1716 3584 
Q 2034 3584 2315 3537 
Q 2597 3491 2834 3397 
z
" id="DejaVuSans-73" transform="scale(0.015625)"/>
       <path d="M 1947 4863 
L 1947 -844 
L 622 -844 
L 622 -397 
L 1369 -397 
L 1369 4416 
L 622 4416 
L 622 4863 
L 1947 4863 
z
" id="DejaVuSans-5d" transform="scale(0.015625)"/>
      </defs>
      <use xlink:href="#DejaVuSans-54"/>
      <use x="57.958984" xlink:href="#DejaVuSans-69"/>
      <use x="85.742188" xlink:href="#DejaVuSans-6d"/>
      <use x="183.154297" xlink:href="#DejaVuSans-65"/>
      <use x="244.677734" xlink:href="#DejaVuSans-20"/>
      <use x="276.464844" xlink:href="#DejaVuSans-5b"/>
      <use x="315.478516" xlink:href="#DejaVuSans-53"/>
      <use x="378.955078" xlink:href="#DejaVuSans-65"/>
      <use x="440.478516" xlink:href="#DejaVuSans-63"/>
      <use x="495.458984" xlink:href="#DejaVuSans-6f"/>
      <use x="556.640625" xlink:href="#DejaVuSans-6e"/>
      <use x="620.019531" xlink:href="#DejaVuSans-64"/>
      <use x="683.496094" xlink:href="#DejaVuSans-73"/>
      <use x="735.595703" xlink:href="#DejaVuSans-5d"/>
     </g>
    </g>
   </g>
   <g id="matplotlib.axis_2">
    <g id="ytick_1">
     <g id="line2d_9">
      <defs>
       <path d="M 0 0 
L -3.5 0 
" id="mcb0eb7166d" style="stroke:#000000;stroke-width:0.8;"/>
      </defs>
      <g>
       <use style="stroke:#000000;stroke-width:0.8;" x="72" xlink:href="#mcb0eb7166d" y="277.79405"/>
      </g>
     </g>
     <g id="text_10">
      <!-- 0.0 -->
      <g transform="translate(42.735625 283.112956)scale(0.14 -0.14)">
       <use xlink:href="#DejaVuSans-30"/>
       <use x="63.623047" xlink:href="#DejaVuSans-2e"/>
       <use x="95.410156" xlink:href="#DejaVuSans-30"/>
      </g>
     </g>
    </g>
    <g id="ytick_2">
     <g id="line2d_10">
      <g>
       <use style="stroke:#000000;stroke-width:0.8;" x="72" xlink:href="#mcb0eb7166d" y="226.549094"/>
      </g>
     </g>
     <g id="text_11">
      <!-- 0.5 -->
      <g transform="translate(42.735625 231.868)scale(0.14 -0.14)">
       <use xlink:href="#DejaVuSans-30"/>
       <use x="63.623047" xlink:href="#DejaVuSans-2e"/>
       <use x="95.410156" xlink:href="#DejaVuSans-35"/>
      </g>
     </g>
    </g>
    <g id="ytick_3">
     <g id="line2d_11">
      <g>
       <use style="stroke:#000000;stroke-width:0.8;" x="72" xlink:href="#mcb0eb7166d" y="175.304137"/>
      </g>
     </g>
     <g id="text_12">
      <!-- 1.0 -->
      <g transform="translate(42.735625 180.623044)scale(0.14 -0.14)">
       <use xlink:href="#DejaVuSans-31"/>
       <use x="63.623047" xlink:href="#DejaVuSans-2e"/>
       <use x="95.410156" xlink:href="#DejaVuSans-30"/>
      </g>
     </g>
    </g>
    <g id="ytick_4">
     <g id="line2d_12">
      <g>
       <use style="stroke:#000000;stroke-width:0.8;" x="72" xlink:href="#mcb0eb7166d" y="124.059181"/>
      </g>
     </g>
     <g id="text_13">
      <!-- 1.5 -->
      <g transform="translate(42.735625 129.378087)scale(0.14 -0.14)">
       <use xlink:href="#DejaVuSans-31"/>
       <use x="63.623047" xlink:href="#DejaVuSans-2e"/>
       <use x="95.410156" xlink:href="#DejaVuSans-35"/>
      </g>
     </g>
    </g>
    <g id="ytick_5">
     <g id="line2d_13">
      <g>
       <use style="stroke:#000000;stroke-width:0.8;" x="72" xlink:href="#mcb0eb7166d" y="72.814225"/>
      </g>
     </g>
     <g id="text_14">
      <!-- 2.0 -->
      <g transform="translate(42.735625 78.133131)scale(0.14 -0.14)">
       <use xlink:href="#DejaVuSans-32"/>
       <use x="63.623047" xlink:href="#DejaVuSans-2e"/>
       <use x="95.410156" xlink:href="#DejaVuSans-30"/>
      </g>
     </g>
    </g>
    <g id="text_15">
     <!-- Speed [mm/s] -->
     <g transform="translate(35.408125 238.11375)rotate(-90)scale(0.16 -0.16)">
      <defs>
       <path d="M 1159 525 
L 1159 -1331 
L 581 -1331 
L 581 3500 
L 1159 3500 
L 1159 2969 
Q 1341 3281 1617 3432 
Q 1894 3584 2278 3584 
Q 2916 3584 3314 3078 
Q 3713 2572 3713 1747 
Q 3713 922 3314 415 
Q 2916 -91 2278 -91 
Q 1894 -91 1617 61 
Q 1341 213 1159 525 
z
M 3116 1747 
Q 3116 2381 2855 2742 
Q 2594 3103 2138 3103 
Q 1681 3103 1420 2742 
Q 1159 2381 1159 1747 
Q 1159 1113 1420 752 
Q 1681 391 2138 391 
Q 2594 391 2855 752 
Q 3116 1113 3116 1747 
z
" id="DejaVuSans-70" transform="scale(0.015625)"/>
       <path d="M 1625 4666 
L 2156 4666 
L 531 -594 
L 0 -594 
L 1625 4666 
z
" id="DejaVuSans-2f" transform="scale(0.015625)"/>
      </defs>
      <use xlink:href="#DejaVuSans-53"/>
      <use x="63.476562" xlink:href="#DejaVuSans-70"/>
      <use x="126.953125" xlink:href="#DejaVuSans-65"/>
      <use x="188.476562" xlink:href="#DejaVuSans-65"/>
      <use x="250" xlink:href="#DejaVuSans-64"/>
      <use x="313.476562" xlink:href="#DejaVuSans-20"/>
      <use x="345.263672" xlink:href="#DejaVuSans-5b"/>
      <use x="384.277344" xlink:href="#DejaVuSans-6d"/>
      <use x="481.689453" xlink:href="#DejaVuSans-6d"/>
      <use x="579.101562" xlink:href="#DejaVuSans-2f"/>
      <use x="612.792969" xlink:href="#DejaVuSans-73"/>
      <use x="664.892578" xlink:href="#DejaVuSans-5d"/>
     </g>
    </g>
   </g>
   <g id="line2d_14">
    <path clip-path="url(#paa4ab48d1b)" d="M 72 196.132375 
L 518.4 196.132375 
" style="fill:none;stroke:#000000;stroke-dasharray:5.55,2.4;stroke-dashoffset:0;stroke-width:1.5;"/>
   </g>
   <g id="line2d_15">
    <path clip-path="url(#paa4ab48d1b)" d="M 72 276.897114 
L 136.234884 276.860743 
L 136.883721 277.050347 
L 137.532558 276.340885 
L 138.181395 275.374335 
L 139.47907 276.190551 
L 140.127907 276.271481 
L 140.776744 275.5587 
L 141.425581 280.976408 
L 142.074419 267.996823 
L 142.723256 257.352897 
L 143.372093 280.959873 
L 144.02093 300.503582 
L 144.669767 307.8 
L 145.318605 307.206799 
L 145.967442 298.031838 
L 146.616279 284.767757 
L 147.913953 246.000555 
L 148.562791 226.359392 
L 149.860465 175.794507 
L 151.15814 127.233844 
L 152.455814 85.073323 
L 153.104651 71.090709 
L 153.753488 61.727494 
L 154.402326 55.8 
L 155.051163 57.558712 
L 155.7 64.051983 
L 156.348837 72.716077 
L 156.997674 86.698667 
L 158.295349 121.715038 
L 159.593023 158.526951 
L 160.24186 175.494299 
L 160.890698 187.260771 
L 161.539535 193.775906 
L 162.188372 195.229904 
L 162.837209 190.574239 
L 163.486047 167.036839 
L 164.134884 160.506689 
L 164.783721 182.206284 
L 165.432558 187.487824 
L 166.081395 185.813662 
L 166.730233 184.849914 
L 167.37907 182.641306 
L 168.027907 181.333058 
L 168.676744 181.42023 
L 169.974419 188.207415 
L 170.623256 188.993969 
L 171.272093 187.510836 
L 171.92093 189.048988 
L 172.569767 193.950196 
L 173.218605 193.721527 
L 173.867442 191.080052 
L 174.516279 193.57832 
L 175.165116 194.249334 
L 175.813953 193.763136 
L 176.462791 194.293755 
L 177.111628 193.9605 
L 177.760465 192.005799 
L 179.05814 191.525544 
L 179.706977 191.857084 
L 180.355814 193.208398 
L 181.004651 191.583056 
L 182.302326 190.357084 
L 182.951163 190.281361 
L 183.6 191.587388 
L 184.248837 193.805198 
L 184.897674 194.533771 
L 185.546512 194.146223 
L 186.195349 194.575423 
L 186.844186 195.612217 
L 187.493023 196.320402 
L 188.14186 196.507015 
L 189.439535 195.308433 
L 190.088372 197.387914 
L 190.737209 198.088666 
L 191.386047 197.018505 
L 192.683721 196.324335 
L 193.981395 196.713104 
L 194.630233 194.170034 
L 195.27907 193.313066 
L 195.927907 195.486087 
L 196.576744 196.302141 
L 197.874419 193.377161 
L 198.523256 194.768512 
L 199.172093 194.86712 
L 199.82093 194.228423 
L 201.767442 196.194612 
L 202.416279 196.190701 
L 203.065116 195.134931 
L 203.713953 195.169062 
L 204.362791 196.342964 
L 205.011628 197.810269 
L 205.660465 198.763771 
L 206.309302 197.831476 
L 206.95814 198.340081 
L 207.606977 198.573999 
L 208.255814 197.79219 
L 208.904651 197.503025 
L 209.553488 196.973946 
L 210.202326 196.044264 
L 211.5 196.663015 
L 212.148837 195.738423 
L 212.797674 196.40213 
L 213.446512 196.177448 
L 214.095349 196.082117 
L 214.744186 195.847375 
L 215.393023 194.59187 
L 216.04186 194.243677 
L 216.690698 194.951011 
L 217.339535 195.342752 
L 217.988372 194.341667 
L 218.637209 194.1079 
L 219.286047 195.422707 
L 219.934884 196.244151 
L 220.583721 195.654623 
L 221.232558 196.444816 
L 221.881395 197.445274 
L 222.530233 197.254939 
L 223.17907 196.596043 
L 223.827907 196.51007 
L 224.476744 196.308628 
L 225.125581 196.648585 
L 225.774419 198.060005 
L 226.423256 197.989566 
L 227.072093 196.843497 
L 227.72093 197.350656 
L 228.369767 199.031584 
L 229.018605 198.408666 
L 229.667442 196.651355 
L 230.316279 197.126818 
L 230.965116 197.996576 
L 231.613953 197.464027 
L 232.911628 197.667404 
L 233.560465 196.897398 
L 235.506977 197.452519 
L 236.804651 196.100396 
L 237.453488 197.986002 
L 238.102326 197.532446 
L 238.751163 195.572046 
L 239.4 195.827249 
L 240.048837 197.163476 
L 240.697674 197.296014 
L 241.346512 194.889103 
L 241.995349 194.464751 
L 242.644186 196.207265 
L 243.293023 196.367501 
L 243.94186 195.790994 
L 244.590698 195.512077 
L 245.239535 196.010216 
L 245.888372 195.937296 
L 246.537209 195.331311 
L 247.186047 195.60161 
L 247.834884 196.117883 
L 249.781395 195.441805 
L 250.430233 194.654978 
L 251.727907 197.219507 
L 253.025581 195.774293 
L 253.674419 197.020943 
L 254.323256 198.01115 
L 254.972093 196.4846 
L 255.62093 196.970828 
L 256.269767 198.529657 
L 256.918605 197.876532 
L 257.567442 196.085479 
L 258.216279 196.645316 
L 258.865116 199.249851 
L 259.513953 198.260203 
L 260.162791 197.06259 
L 260.811628 197.976632 
L 261.460465 198.604297 
L 262.109302 198.721685 
L 263.406977 196.347061 
L 264.055814 196.652245 
L 264.704651 196.107414 
L 265.353488 195.205146 
L 266.651163 196.819777 
L 267.3 196.179231 
L 267.948837 195.911803 
L 268.597674 195.932274 
L 269.246512 196.542596 
L 269.895349 195.817471 
L 270.544186 194.857014 
L 271.84186 196.895541 
L 272.490698 197.16185 
L 273.139535 196.510107 
L 273.788372 196.767758 
L 275.086047 198.174161 
L 275.734884 197.901648 
L 276.383721 196.710328 
L 277.032558 197.187715 
L 278.330233 196.034777 
L 279.627907 196.37247 
L 280.276744 197.076945 
L 280.925581 196.384862 
L 281.574419 195.489521 
L 282.223256 195.554002 
L 282.872093 196.596219 
L 283.52093 197.967774 
L 284.818605 197.850187 
L 285.467442 198.615342 
L 286.116279 196.629344 
L 286.765116 195.702393 
L 287.413953 197.537544 
L 288.062791 197.860916 
L 288.711628 197.178773 
L 289.360465 196.690662 
L 290.009302 195.975067 
L 290.65814 196.117761 
L 291.306977 195.530905 
L 291.955814 194.2433 
L 292.604651 194.958852 
L 293.253488 194.991538 
L 293.902326 194.192902 
L 294.551163 194.549787 
L 295.2 196.192593 
L 295.848837 196.584551 
L 296.497674 195.156798 
L 297.146512 195.063372 
L 297.795349 195.987489 
L 298.444186 196.643532 
L 299.093023 196.781548 
L 299.74186 198.125921 
L 300.390698 198.366616 
L 301.039535 197.920118 
L 301.688372 198.107651 
L 302.337209 197.460879 
L 302.986047 195.87222 
L 303.634884 195.150682 
L 306.230233 197.893117 
L 306.87907 197.283128 
L 307.527907 194.988902 
L 308.176744 195.060923 
L 308.825581 196.54423 
L 309.474419 196.671913 
L 310.123256 197.460034 
L 310.772093 198.001442 
L 311.42093 197.738814 
L 312.069767 197.812781 
L 312.718605 197.599678 
L 313.367442 195.623971 
L 314.016279 195.673883 
L 315.313953 198.490091 
L 315.962791 198.348526 
L 316.611628 197.8386 
L 317.260465 197.561801 
L 317.909302 195.689548 
L 318.55814 194.816207 
L 319.206977 195.166191 
L 319.855814 195.981713 
L 320.504651 197.198601 
L 321.153488 197.412904 
L 321.802326 196.790205 
L 322.451163 198.10931 
L 323.1 197.851128 
L 323.748837 196.492761 
L 324.397674 195.827064 
L 325.695349 197.023922 
L 326.344186 196.827235 
L 326.993023 197.465842 
L 327.64186 197.104672 
L 329.588372 194.388799 
L 330.237209 195.294663 
L 330.886047 195.905496 
L 331.534884 197.234388 
L 332.183721 197.88968 
L 333.481395 195.78647 
L 334.130233 195.293758 
L 334.77907 195.472286 
L 335.427907 196.279859 
L 336.076744 197.900577 
L 336.725581 198.724903 
L 337.374419 198.670732 
L 338.023256 198.316206 
L 338.672093 197.806791 
L 339.32093 196.17246 
L 339.969767 194.937931 
L 340.618605 195.680757 
L 341.267442 196.844072 
L 341.916279 197.661018 
L 342.565116 196.707798 
L 343.213953 196.032765 
L 343.862791 196.664204 
L 344.511628 194.954472 
L 345.160465 194.387973 
L 345.809302 195.61505 
L 346.45814 196.297535 
L 347.106977 197.200779 
L 347.755814 197.175315 
L 348.404651 198.298929 
L 349.053488 198.93834 
L 351 195.145999 
L 351.648837 196.518229 
L 352.946512 197.780843 
L 353.595349 198.198396 
L 354.244186 197.003113 
L 354.893023 195.546641 
L 355.54186 194.788311 
L 356.190698 195.072764 
L 356.839535 196.26564 
L 357.488372 196.804414 
L 358.137209 196.520176 
L 358.786047 196.989992 
L 360.083721 196.034938 
L 360.732558 195.012143 
L 361.381395 195.346753 
L 362.030233 197.007751 
L 362.67907 197.737318 
L 363.327907 198.918642 
L 363.976744 199.195277 
L 365.274419 197.476798 
L 365.923256 196.079768 
L 366.572093 195.412636 
L 367.22093 195.836122 
L 367.869767 197.136493 
L 368.518605 198.122374 
L 369.167442 197.216435 
L 369.816279 197.438353 
L 370.465116 197.002378 
L 371.113953 195.444423 
L 371.762791 194.811286 
L 372.411628 195.60107 
L 373.060465 196.870441 
L 373.709302 197.266743 
L 375.006977 197.682783 
L 376.304651 196.342092 
L 376.953488 195.526934 
L 377.602326 196.197904 
L 378.251163 197.14906 
L 378.9 196.387434 
L 380.197674 198.476075 
L 380.846512 196.866783 
L 381.495349 195.851724 
L 382.144186 196.449524 
L 383.44186 196.065408 
L 384.090698 196.59643 
L 384.739535 198.072442 
L 385.388372 198.450911 
L 386.686047 195.682195 
L 387.334884 194.743891 
L 387.983721 195.200143 
L 388.632558 196.570273 
L 389.281395 196.818335 
L 390.57907 196.248613 
L 391.227907 195.713454 
L 391.876744 194.689842 
L 392.525581 194.764999 
L 393.174419 196.174426 
L 393.823256 196.261342 
L 395.12093 197.872032 
L 396.418605 197.630699 
L 397.716279 197.597168 
L 398.365116 197.428615 
L 399.013953 196.808864 
L 399.662791 196.504638 
L 400.311628 197.349418 
L 400.960465 198.606865 
L 401.609302 198.681506 
L 402.25814 197.323455 
L 402.906977 197.417093 
L 403.555814 198.321046 
L 404.204651 197.515162 
L 404.853488 197.046874 
L 406.151163 196.740801 
L 406.8 195.811593 
L 408.097674 193.555496 
L 408.746512 193.915136 
L 409.395349 195.542057 
L 410.693023 194.265456 
L 411.34186 196.493443 
L 411.990698 197.001495 
L 412.639535 195.547903 
L 413.288372 196.222621 
L 413.937209 197.519684 
L 414.586047 197.860018 
L 415.234884 197.632658 
L 415.883721 198.820129 
L 416.532558 199.496324 
L 417.830233 197.682916 
L 419.776744 195.794947 
L 420.425581 194.715557 
L 421.723256 195.274169 
L 422.372093 194.441337 
L 423.02093 194.921718 
L 423.669767 195.94721 
L 424.967442 197.493555 
L 425.616279 198.994666 
L 426.265116 199.158328 
L 426.913953 197.710911 
L 427.562791 197.871422 
L 428.211628 197.029212 
L 428.860465 197.019965 
L 429.509302 197.634999 
L 430.15814 196.530938 
L 431.455814 195.799343 
L 432.753488 197.340898 
L 434.051163 195.33497 
L 434.7 196.515304 
L 435.348837 196.447192 
L 435.997674 194.965656 
L 436.646512 195.710036 
L 437.295349 196.712787 
L 437.944186 196.565608 
L 438.593023 195.949308 
L 439.24186 195.644126 
L 439.890698 195.825786 
L 440.539535 196.205249 
L 441.188372 195.762471 
L 441.837209 195.665302 
L 442.486047 196.503736 
L 443.134884 196.926995 
L 443.783721 196.698459 
L 444.432558 197.244736 
L 446.37907 199.394971 
L 447.027907 198.248663 
L 448.974419 196.690379 
L 449.623256 195.646577 
L 450.92093 195.896724 
L 451.569767 194.057346 
L 452.218605 194.623135 
L 452.867442 194.92966 
L 453.516279 194.963864 
L 455.462791 198.282261 
L 456.111628 198.622584 
L 456.760465 197.827702 
L 457.409302 197.955096 
L 458.05814 198.785691 
L 458.706977 198.399316 
L 459.355814 198.958449 
L 460.004651 198.946555 
L 460.653488 197.777459 
L 461.302326 196.107613 
L 461.951163 194.959723 
L 462.6 194.541352 
L 463.248837 194.508961 
L 463.897674 195.165592 
L 464.546512 195.183816 
L 465.844186 195.548526 
L 466.493023 196.091581 
L 467.14186 196.969824 
L 467.790698 196.499781 
L 468.439535 195.837297 
L 469.088372 197.229827 
L 470.386047 195.845976 
L 471.034884 196.626159 
L 471.683721 195.419366 
L 472.332558 195.294801 
L 472.981395 195.793736 
L 473.630233 195.894769 
L 474.27907 195.746365 
L 474.927907 196.346261 
L 475.576744 197.348171 
L 476.225581 197.636283 
L 476.874419 198.337203 
L 478.172093 195.895672 
L 478.82093 197.940786 
L 479.469767 197.696844 
L 480.118605 196.686211 
L 480.767442 197.631071 
L 482.713953 194.361636 
L 483.362791 194.482728 
L 484.011628 196.131253 
L 485.309302 196.923837 
L 485.95814 197.419083 
L 486.606977 197.715159 
L 487.255814 197.643718 
L 487.904651 197.935943 
L 488.553488 198.028878 
L 489.202326 197.773476 
L 489.851163 199.020588 
L 490.5 199.222731 
L 491.148837 196.628086 
L 491.797674 196.947545 
L 492.446512 196.83805 
L 493.095349 194.220413 
L 493.744186 194.491023 
L 494.393023 195.250028 
L 495.04186 195.340754 
L 495.690698 195.706382 
L 496.339535 195.867777 
L 496.988372 196.200114 
L 497.637209 196.870533 
L 498.286047 197.366423 
L 498.934884 196.442001 
L 499.583721 196.318203 
L 500.232558 197.782202 
L 500.881395 197.478068 
L 501.530233 196.766352 
L 502.17907 196.787313 
L 502.827907 196.518391 
L 503.476744 196.395925 
L 504.774419 195.687031 
L 505.423256 196.269841 
L 506.072093 197.030624 
L 507.369767 199.393697 
L 508.018605 199.230588 
L 508.667442 198.763321 
L 509.965116 197.360073 
L 512.560465 194.031526 
L 513.209302 193.503333 
L 513.85814 193.283087 
L 514.506977 193.483601 
L 515.155814 194.228908 
L 515.804651 195.654258 
L 516.453488 197.906118 
L 517.102326 201.142172 
L 517.751163 205.531323 
L 518.4 211.253689 
L 518.4 211.253689 
" style="fill:none;stroke:#ff0000;stroke-linecap:square;stroke-width:2;"/>
   </g>
   <g id="patch_3">
    <path d="M 72 320.4 
L 72 43.2 
" style="fill:none;stroke:#000000;stroke-linecap:square;stroke-linejoin:miter;stroke-width:0.8;"/>
   </g>
   <g id="patch_4">
    <path d="M 518.4 320.4 
L 518.4 43.2 
" style="fill:none;stroke:#000000;stroke-linecap:square;stroke-linejoin:miter;stroke-width:0.8;"/>
   </g>
   <g id="patch_5">
    <path d="M 72 320.4 
L 518.4 320.4 
" style="fill:none;stroke:#000000;stroke-linecap:square;stroke-linejoin:miter;stroke-width:0.8;"/>
   </g>
   <g id="patch_6">
    <path d="M 72 43.2 
L 518.4 43.2 
" style="fill:none;stroke:#000000;stroke-linecap:square;stroke-linejoin:miter;stroke-width:0.8;"/>
   </g>
   <g id="text_16">
    <!-- Front Propogation Speed -->
    <g transform="translate(172.245312 37.2)scale(0.2 -0.2)">
     <defs>
      <path d="M 628 4666 
L 3309 4666 
L 3309 4134 
L 1259 4134 
L 1259 2759 
L 3109 2759 
L 3109 2228 
L 1259 2228 
L 1259 0 
L 628 0 
L 628 4666 
z
" id="DejaVuSans-46" transform="scale(0.015625)"/>
      <path d="M 2631 2963 
Q 2534 3019 2420 3045 
Q 2306 3072 2169 3072 
Q 1681 3072 1420 2755 
Q 1159 2438 1159 1844 
L 1159 0 
L 581 0 
L 581 3500 
L 1159 3500 
L 1159 2956 
Q 1341 3275 1631 3429 
Q 1922 3584 2338 3584 
Q 2397 3584 2469 3576 
Q 2541 3569 2628 3553 
L 2631 2963 
z
" id="DejaVuSans-72" transform="scale(0.015625)"/>
      <path d="M 1172 4494 
L 1172 3500 
L 2356 3500 
L 2356 3053 
L 1172 3053 
L 1172 1153 
Q 1172 725 1289 603 
Q 1406 481 1766 481 
L 2356 481 
L 2356 0 
L 1766 0 
Q 1100 0 847 248 
Q 594 497 594 1153 
L 594 3053 
L 172 3053 
L 172 3500 
L 594 3500 
L 594 4494 
L 1172 4494 
z
" id="DejaVuSans-74" transform="scale(0.015625)"/>
      <path d="M 1259 4147 
L 1259 2394 
L 2053 2394 
Q 2494 2394 2734 2622 
Q 2975 2850 2975 3272 
Q 2975 3691 2734 3919 
Q 2494 4147 2053 4147 
L 1259 4147 
z
M 628 4666 
L 2053 4666 
Q 2838 4666 3239 4311 
Q 3641 3956 3641 3272 
Q 3641 2581 3239 2228 
Q 2838 1875 2053 1875 
L 1259 1875 
L 1259 0 
L 628 0 
L 628 4666 
z
" id="DejaVuSans-50" transform="scale(0.015625)"/>
      <path d="M 2906 1791 
Q 2906 2416 2648 2759 
Q 2391 3103 1925 3103 
Q 1463 3103 1205 2759 
Q 947 2416 947 1791 
Q 947 1169 1205 825 
Q 1463 481 1925 481 
Q 2391 481 2648 825 
Q 2906 1169 2906 1791 
z
M 3481 434 
Q 3481 -459 3084 -895 
Q 2688 -1331 1869 -1331 
Q 1566 -1331 1297 -1286 
Q 1028 -1241 775 -1147 
L 775 -588 
Q 1028 -725 1275 -790 
Q 1522 -856 1778 -856 
Q 2344 -856 2625 -561 
Q 2906 -266 2906 331 
L 2906 616 
Q 2728 306 2450 153 
Q 2172 0 1784 0 
Q 1141 0 747 490 
Q 353 981 353 1791 
Q 353 2603 747 3093 
Q 1141 3584 1784 3584 
Q 2172 3584 2450 3431 
Q 2728 3278 2906 2969 
L 2906 3500 
L 3481 3500 
L 3481 434 
z
" id="DejaVuSans-67" transform="scale(0.015625)"/>
      <path d="M 2194 1759 
Q 1497 1759 1228 1600 
Q 959 1441 959 1056 
Q 959 750 1161 570 
Q 1363 391 1709 391 
Q 2188 391 2477 730 
Q 2766 1069 2766 1631 
L 2766 1759 
L 2194 1759 
z
M 3341 1997 
L 3341 0 
L 2766 0 
L 2766 531 
Q 2569 213 2275 61 
Q 1981 -91 1556 -91 
Q 1019 -91 701 211 
Q 384 513 384 1019 
Q 384 1609 779 1909 
Q 1175 2209 1959 2209 
L 2766 2209 
L 2766 2266 
Q 2766 2663 2505 2880 
Q 2244 3097 1772 3097 
Q 1472 3097 1187 3025 
Q 903 2953 641 2809 
L 641 3341 
Q 956 3463 1253 3523 
Q 1550 3584 1831 3584 
Q 2591 3584 2966 3190 
Q 3341 2797 3341 1997 
z
" id="DejaVuSans-61" transform="scale(0.015625)"/>
     </defs>
     <use xlink:href="#DejaVuSans-46"/>
     <use x="50.269531" xlink:href="#DejaVuSans-72"/>
     <use x="89.132812" xlink:href="#DejaVuSans-6f"/>
     <use x="150.314453" xlink:href="#DejaVuSans-6e"/>
     <use x="213.693359" xlink:href="#DejaVuSans-74"/>
     <use x="252.902344" xlink:href="#DejaVuSans-20"/>
     <use x="284.689453" xlink:href="#DejaVuSans-50"/>
     <use x="343.242188" xlink:href="#DejaVuSans-72"/>
     <use x="382.105469" xlink:href="#DejaVuSans-6f"/>
     <use x="443.287109" xlink:href="#DejaVuSans-70"/>
     <use x="506.763672" xlink:href="#DejaVuSans-6f"/>
     <use x="567.945312" xlink:href="#DejaVuSans-67"/>
     <use x="631.421875" xlink:href="#DejaVuSans-61"/>
     <use x="692.701172" xlink:href="#DejaVuSans-74"/>
     <use x="731.910156" xlink:href="#DejaVuSans-69"/>
     <use x="759.693359" xlink:href="#DejaVuSans-6f"/>
     <use x="820.875" xlink:href="#DejaVuSans-6e"/>
     <use x="884.253906" xlink:href="#DejaVuSans-20"/>
     <use x="916.041016" xlink:href="#DejaVuSans-53"/>
     <use x="979.517578" xlink:href="#DejaVuSans-70"/>
     <use x="1042.994141" xlink:href="#DejaVuSans-65"/>
     <use x="1104.517578" xlink:href="#DejaVuSans-65"/>
     <use x="1166.041016" xlink:href="#DejaVuSans-64"/>
    </g>
   </g>
   <g id="legend_1">
    <g id="patch_7">
     <path d="M 334.875313 111.175687 
L 508.6 111.175687 
Q 511.4 111.175687 511.4 108.375687 
L 511.4 53 
Q 511.4 50.2 508.6 50.2 
L 334.875313 50.2 
Q 332.075312 50.2 332.075312 53 
L 332.075312 108.375687 
Q 332.075312 111.175687 334.875313 111.175687 
z
" style="fill:#ffffff;opacity:0.8;stroke:#cccccc;stroke-linejoin:miter;"/>
    </g>
    <g id="line2d_16">
     <path d="M 337.675313 61.537812 
L 365.675313 61.537812 
" style="fill:none;stroke:#ff0000;stroke-linecap:square;stroke-width:2;"/>
    </g>
    <g id="line2d_17"/>
    <g id="text_17">
     <!-- Front speed -->
     <g transform="translate(376.875313 66.437812)scale(0.14 -0.14)">
      <use xlink:href="#DejaVuSans-46"/>
      <use x="50.269531" xlink:href="#DejaVuSans-72"/>
      <use x="89.132812" xlink:href="#DejaVuSans-6f"/>
      <use x="150.314453" xlink:href="#DejaVuSans-6e"/>
      <use x="213.693359" xlink:href="#DejaVuSans-74"/>
      <use x="252.902344" xlink:href="#DejaVuSans-20"/>
      <use x="284.689453" xlink:href="#DejaVuSans-73"/>
      <use x="336.789062" xlink:href="#DejaVuSans-70"/>
      <use x="400.265625" xlink:href="#DejaVuSans-65"/>
      <use x="461.789062" xlink:href="#DejaVuSans-65"/>
      <use x="523.3125" xlink:href="#DejaVuSans-64"/>
     </g>
    </g>
    <g id="line2d_18">
     <path d="M 337.675313 91.381437 
L 365.675313 91.381437 
" style="fill:none;stroke:#000000;stroke-dasharray:5.55,2.4;stroke-dashoffset:0;stroke-width:1.5;"/>
    </g>
    <g id="line2d_19"/>
    <g id="text_18">
     <!-- Steady state -->
     <g transform="translate(376.875313 86.987187)scale(0.14 -0.14)">
      <defs>
       <path d="M 2059 -325 
Q 1816 -950 1584 -1140 
Q 1353 -1331 966 -1331 
L 506 -1331 
L 506 -850 
L 844 -850 
Q 1081 -850 1212 -737 
Q 1344 -625 1503 -206 
L 1606 56 
L 191 3500 
L 800 3500 
L 1894 763 
L 2988 3500 
L 3597 3500 
L 2059 -325 
z
" id="DejaVuSans-79" transform="scale(0.015625)"/>
      </defs>
      <use xlink:href="#DejaVuSans-53"/>
      <use x="63.476562" xlink:href="#DejaVuSans-74"/>
      <use x="102.685547" xlink:href="#DejaVuSans-65"/>
      <use x="164.208984" xlink:href="#DejaVuSans-61"/>
      <use x="225.488281" xlink:href="#DejaVuSans-64"/>
      <use x="288.964844" xlink:href="#DejaVuSans-79"/>
      <use x="348.144531" xlink:href="#DejaVuSans-20"/>
      <use x="379.931641" xlink:href="#DejaVuSans-73"/>
      <use x="432.03125" xlink:href="#DejaVuSans-74"/>
      <use x="471.240234" xlink:href="#DejaVuSans-61"/>
      <use x="532.519531" xlink:href="#DejaVuSans-74"/>
      <use x="571.728516" xlink:href="#DejaVuSans-65"/>
     </g>
     <!-- speed = 0.8 mm/s -->
     <g transform="translate(376.875313 102.664125)scale(0.14 -0.14)">
      <defs>
       <path d="M 678 2906 
L 4684 2906 
L 4684 2381 
L 678 2381 
L 678 2906 
z
M 678 1631 
L 4684 1631 
L 4684 1100 
L 678 1100 
L 678 1631 
z
" id="DejaVuSans-3d" transform="scale(0.015625)"/>
       <path d="M 2034 2216 
Q 1584 2216 1326 1975 
Q 1069 1734 1069 1313 
Q 1069 891 1326 650 
Q 1584 409 2034 409 
Q 2484 409 2743 651 
Q 3003 894 3003 1313 
Q 3003 1734 2745 1975 
Q 2488 2216 2034 2216 
z
M 1403 2484 
Q 997 2584 770 2862 
Q 544 3141 544 3541 
Q 544 4100 942 4425 
Q 1341 4750 2034 4750 
Q 2731 4750 3128 4425 
Q 3525 4100 3525 3541 
Q 3525 3141 3298 2862 
Q 3072 2584 2669 2484 
Q 3125 2378 3379 2068 
Q 3634 1759 3634 1313 
Q 3634 634 3220 271 
Q 2806 -91 2034 -91 
Q 1263 -91 848 271 
Q 434 634 434 1313 
Q 434 1759 690 2068 
Q 947 2378 1403 2484 
z
M 1172 3481 
Q 1172 3119 1398 2916 
Q 1625 2713 2034 2713 
Q 2441 2713 2670 2916 
Q 2900 3119 2900 3481 
Q 2900 3844 2670 4047 
Q 2441 4250 2034 4250 
Q 1625 4250 1398 4047 
Q 1172 3844 1172 3481 
z
" id="DejaVuSans-38" transform="scale(0.015625)"/>
      </defs>
      <use xlink:href="#DejaVuSans-73"/>
      <use x="52.099609" xlink:href="#DejaVuSans-70"/>
      <use x="115.576172" xlink:href="#DejaVuSans-65"/>
      <use x="177.099609" xlink:href="#DejaVuSans-65"/>
      <use x="238.623047" xlink:href="#DejaVuSans-64"/>
      <use x="302.099609" xlink:href="#DejaVuSans-20"/>
      <use x="333.886719" xlink:href="#DejaVuSans-3d"/>
      <use x="417.675781" xlink:href="#DejaVuSans-20"/>
      <use x="449.462891" xlink:href="#DejaVuSans-30"/>
      <use x="513.085938" xlink:href="#DejaVuSans-2e"/>
      <use x="544.873047" xlink:href="#DejaVuSans-38"/>
      <use x="608.496094" xlink:href="#DejaVuSans-20"/>
      <use x="640.283203" xlink:href="#DejaVuSans-6d"/>
      <use x="737.695312" xlink:href="#DejaVuSans-6d"/>
      <use x="835.107422" xlink:href="#DejaVuSans-2f"/>
      <use x="868.798828" xlink:href="#DejaVuSans-73"/>
     </g>
    </g>
   </g>
  </g>
 </g>
 <defs>
  <clipPath id="paa4ab48d1b">
   <rect height="277.2" width="446.4" x="72" y="43.2"/>
  </clipPath>
 </defs>
</svg>
