<?xml version="1.0" encoding="utf-8" standalone="no"?>
<!DOCTYPE svg PUBLIC "-//W3C//DTD SVG 1.1//EN"
  "http://www.w3.org/Graphics/SVG/1.1/DTD/svg11.dtd">
<svg height="360pt" version="1.1" viewBox="0 0 576 360" width="576pt" xmlns="http://www.w3.org/2000/svg" xmlns:xlink="http://www.w3.org/1999/xlink">
 <metadata>
  <rdf:RDF xmlns:cc="http://creativecommons.org/ns#" xmlns:dc="http://purl.org/dc/elements/1.1/" xmlns:rdf="http://www.w3.org/1999/02/22-rdf-syntax-ns#">
   <cc:Work>
    <dc:type rdf:resource="http://purl.org/dc/dcmitype/StillImage"/>
    <dc:date>2022-06-30T14:43:01.933343</dc:date>
    <dc:format>image/svg+xml</dc:format>
    <dc:creator>
     <cc:Agent>
      <dc:title>Matplotlib v3.4.3, https://matplotlib.org/</dc:title>
     </cc:Agent>
    </dc:creator>
   </cc:Work>
  </rdf:RDF>
 </metadata>
 <defs>
  <style type="text/css">*{stroke-linecap:butt;stroke-linejoin:round;}</style>
 </defs>
 <g id="figure_1">
  <g id="patch_1">
   <path d="M 0 360 
L 576 360 
L 576 0 
L 0 0 
z
" style="fill:#ffffff;"/>
  </g>
  <g id="axes_1">
   <g id="patch_2">
    <path d="M 72 320.4 
L 518.4 320.4 
L 518.4 43.2 
L 72 43.2 
z
" style="fill:#ffffff;"/>
   </g>
   <g id="PolyCollection_1">
    <defs>
     <path d="M 72 -195.174389 
L 72 -200.894829 
L 72.458316 -200.894829 
L 72.916632 -200.894829 
L 73.374949 -200.894829 
L 73.833265 -200.894829 
L 74.291581 -200.894829 
L 74.749897 -200.894829 
L 75.208214 -200.894829 
L 75.66653 -200.894829 
L 76.124846 -200.894829 
L 76.583162 -200.894829 
L 77.041478 -200.894829 
L 77.499795 -200.894829 
L 77.958111 -200.894829 
L 78.416427 -200.894829 
L 78.874743 -200.894829 
L 79.33306 -200.894829 
L 79.791376 -200.894829 
L 80.249692 -200.894829 
L 80.708008 -200.894829 
L 81.166324 -200.894829 
L 81.624641 -200.894829 
L 82.082957 -200.894829 
L 82.541273 -200.894829 
L 82.999589 -200.894829 
L 83.457906 -200.894829 
L 83.916222 -200.894829 
L 84.374538 -200.894829 
L 84.832854 -200.894829 
L 85.29117 -200.894829 
L 85.749487 -200.894829 
L 86.207803 -200.894829 
L 86.666119 -200.894829 
L 87.124435 -200.894829 
L 87.582752 -200.894829 
L 88.041068 -200.894829 
L 88.499384 -200.894829 
L 88.9577 -200.894829 
L 89.416016 -200.894829 
L 89.874333 -200.894829 
L 90.332649 -200.894829 
L 90.790965 -200.894829 
L 91.249281 -200.894829 
L 91.707598 -200.894829 
L 92.165914 -200.894829 
L 92.62423 -200.894829 
L 93.082546 -200.894829 
L 93.540862 -200.894829 
L 93.999179 -200.894829 
L 94.457495 -200.894829 
L 94.915811 -200.894829 
L 95.374127 -200.894829 
L 95.832444 -200.894829 
L 96.29076 -200.894829 
L 96.749076 -200.894829 
L 97.207392 -200.894829 
L 97.665708 -200.894829 
L 98.124025 -200.894829 
L 98.582341 -200.894829 
L 99.040657 -200.894829 
L 99.498973 -200.894829 
L 99.95729 -200.894829 
L 100.415606 -200.894829 
L 100.873922 -200.894829 
L 101.332238 -200.894829 
L 101.790554 -200.894829 
L 102.248871 -200.894829 
L 102.707187 -200.894829 
L 103.165503 -200.894829 
L 103.623819 -200.894829 
L 104.082136 -200.894829 
L 104.540452 -200.894829 
L 104.998768 -200.894829 
L 105.457084 -200.894829 
L 105.9154 -200.894829 
L 106.373717 -200.894829 
L 106.832033 -200.894829 
L 107.290349 -200.894829 
L 107.748665 -200.894829 
L 108.206982 -200.894829 
L 108.665298 -200.894829 
L 109.123614 -200.894829 
L 109.58193 -200.894829 
L 110.040246 -200.894829 
L 110.498563 -200.894829 
L 110.956879 -200.894829 
L 111.415195 -200.894829 
L 111.873511 -200.894829 
L 112.331828 -200.894829 
L 112.790144 -200.894829 
L 113.24846 -200.894829 
L 113.706776 -200.894829 
L 114.165092 -200.894829 
L 114.623409 -200.894829 
L 115.081725 -200.894829 
L 115.540041 -200.894829 
L 115.998357 -200.894829 
L 116.456674 -200.894829 
L 116.91499 -200.894829 
L 117.373306 -200.894829 
L 117.831622 -200.894829 
L 118.289938 -200.894829 
L 118.748255 -200.894829 
L 119.206571 -200.894829 
L 119.664887 -200.894829 
L 120.123203 -200.894829 
L 120.58152 -200.894829 
L 121.039836 -200.894829 
L 121.498152 -200.894829 
L 121.956468 -200.894829 
L 122.414784 -200.894829 
L 122.873101 -200.894829 
L 123.331417 -200.894829 
L 123.789733 -200.894829 
L 124.248049 -200.894829 
L 124.706366 -200.894829 
L 125.164682 -200.894829 
L 125.622998 -200.894829 
L 126.081314 -200.894829 
L 126.53963 -200.894829 
L 126.997947 -200.894829 
L 127.456263 -200.894829 
L 127.914579 -200.894829 
L 128.372895 -200.894829 
L 128.831211 -200.894829 
L 129.289528 -200.894829 
L 129.747844 -200.894829 
L 130.20616 -200.894829 
L 130.664476 -200.894829 
L 131.122793 -200.894829 
L 131.581109 -200.894829 
L 132.039425 -200.894829 
L 132.497741 -200.894829 
L 132.956057 -200.894829 
L 133.414374 -200.894829 
L 133.87269 -200.894829 
L 134.331006 -200.894829 
L 134.789322 -200.894829 
L 135.247639 -200.894829 
L 135.705955 -200.894829 
L 136.164271 -200.894829 
L 136.622587 -200.894829 
L 137.080903 -200.894829 
L 137.53922 -200.894829 
L 137.997536 -200.894829 
L 138.455852 -200.894829 
L 138.914168 -200.894829 
L 139.372485 -200.894829 
L 139.830801 -200.894829 
L 140.289117 -200.894829 
L 140.747433 -200.894829 
L 141.205749 -200.894829 
L 141.664066 -200.894829 
L 142.122382 -200.894829 
L 142.580698 -200.894829 
L 143.039014 -200.894829 
L 143.497331 -200.894829 
L 143.955647 -200.894829 
L 144.413963 -200.894829 
L 144.872279 -200.894829 
L 145.330595 -200.894829 
L 145.788912 -200.894829 
L 146.247228 -200.894829 
L 146.705544 -200.894829 
L 147.16386 -200.894829 
L 147.622177 -200.894829 
L 148.080493 -200.894829 
L 148.538809 -200.894829 
L 148.997125 -200.894829 
L 149.455441 -200.894829 
L 149.913758 -200.894829 
L 150.372074 -200.894829 
L 150.83039 -200.894829 
L 151.288706 -200.894829 
L 151.747023 -200.894829 
L 152.205339 -200.894829 
L 152.663655 -200.894829 
L 153.121971 -200.894829 
L 153.580287 -200.894829 
L 154.038604 -200.894829 
L 154.49692 -200.894829 
L 154.955236 -200.894829 
L 155.413552 -200.894829 
L 155.871869 -200.894829 
L 156.330185 -200.894829 
L 156.788501 -200.894829 
L 157.246817 -200.894829 
L 157.705133 -200.894829 
L 158.16345 -200.894829 
L 158.621766 -200.894829 
L 159.080082 -200.894829 
L 159.538398 -200.894829 
L 159.996715 -200.894829 
L 160.455031 -200.894829 
L 160.913347 -200.894829 
L 161.371663 -200.894829 
L 161.829979 -200.894829 
L 162.288296 -200.894829 
L 162.746612 -200.894829 
L 163.204928 -200.894829 
L 163.663244 -200.894829 
L 164.121561 -200.894829 
L 164.579877 -200.894829 
L 165.038193 -200.894829 
L 165.496509 -200.894829 
L 165.954825 -200.894829 
L 166.413142 -200.894829 
L 166.871458 -200.894829 
L 167.329774 -200.894829 
L 167.78809 -200.894829 
L 168.246407 -200.894829 
L 168.704723 -200.894829 
L 169.163039 -200.894829 
L 169.621355 -200.894829 
L 170.079671 -200.894829 
L 170.537988 -200.894829 
L 170.996304 -200.894829 
L 171.45462 -200.894829 
L 171.912936 -200.894829 
L 172.371253 -200.894829 
L 172.829569 -200.894829 
L 173.287885 -200.894829 
L 173.746201 -200.894829 
L 174.204517 -200.894829 
L 174.662834 -200.894829 
L 175.12115 -200.894829 
L 175.579466 -200.894829 
L 176.037782 -200.894829 
L 176.496099 -200.894829 
L 176.954415 -200.894829 
L 177.412731 -200.894829 
L 177.871047 -200.894829 
L 178.329363 -200.894829 
L 178.78768 -200.894829 
L 179.245996 -200.894829 
L 179.704312 -200.894829 
L 180.162628 -200.894829 
L 180.620945 -200.894829 
L 181.079261 -200.894829 
L 181.537577 -200.894829 
L 181.995893 -200.894829 
L 182.454209 -200.894829 
L 182.912526 -200.894829 
L 183.370842 -200.894829 
L 183.829158 -200.894829 
L 184.287474 -200.894829 
L 184.745791 -200.894829 
L 185.204107 -200.894829 
L 185.662423 -200.894829 
L 186.120739 -200.894829 
L 186.579055 -200.894829 
L 187.037372 -200.894829 
L 187.495688 -200.894829 
L 187.954004 -200.894829 
L 188.41232 -200.894829 
L 188.870637 -200.894829 
L 189.328953 -200.894829 
L 189.787269 -200.894829 
L 190.245585 -200.894829 
L 190.703901 -200.894829 
L 191.162218 -200.894829 
L 191.620534 -200.894829 
L 192.07885 -200.894829 
L 192.537166 -200.894829 
L 192.995483 -200.894829 
L 193.453799 -200.894829 
L 193.912115 -200.894829 
L 194.370431 -200.894829 
L 194.828747 -200.894829 
L 195.287064 -200.894829 
L 195.74538 -200.894829 
L 196.203696 -200.894829 
L 196.662012 -200.894829 
L 197.120329 -200.894829 
L 197.578645 -200.894829 
L 198.036961 -200.894829 
L 198.495277 -200.894829 
L 198.953593 -200.894829 
L 199.41191 -200.894829 
L 199.870226 -200.894829 
L 200.328542 -200.894829 
L 200.786858 -200.894829 
L 201.245175 -200.894829 
L 201.703491 -200.894829 
L 202.161807 -200.894829 
L 202.620123 -200.894829 
L 203.078439 -200.894829 
L 203.536756 -200.894829 
L 203.995072 -200.894829 
L 204.453388 -200.894829 
L 204.911704 -200.894829 
L 205.370021 -200.894829 
L 205.828337 -200.894829 
L 206.286653 -200.894829 
L 206.744969 -200.894829 
L 207.203285 -200.894829 
L 207.661602 -200.894829 
L 208.119918 -200.894829 
L 208.578234 -200.894829 
L 209.03655 -200.894829 
L 209.494867 -200.894829 
L 209.953183 -200.894829 
L 210.411499 -200.894829 
L 210.869815 -200.894829 
L 211.328131 -200.894829 
L 211.786448 -200.894829 
L 212.244764 -200.894829 
L 212.70308 -200.894829 
L 213.161396 -200.894829 
L 213.619713 -200.894829 
L 214.078029 -200.894829 
L 214.536345 -200.894829 
L 214.994661 -200.894829 
L 215.452977 -200.894829 
L 215.911294 -200.894829 
L 216.36961 -200.894829 
L 216.827926 -200.894829 
L 217.286242 -200.894829 
L 217.744559 -200.894829 
L 218.202875 -200.894829 
L 218.661191 -200.894829 
L 219.119507 -200.894829 
L 219.577823 -200.894829 
L 220.03614 -200.894829 
L 220.494456 -200.894829 
L 220.952772 -200.894829 
L 221.411088 -200.894829 
L 221.869405 -200.894829 
L 222.327721 -200.894829 
L 222.786037 -200.894829 
L 223.244353 -200.894829 
L 223.702669 -200.894829 
L 224.160986 -200.894829 
L 224.619302 -200.894829 
L 225.077618 -200.894829 
L 225.535934 -200.894829 
L 225.994251 -200.894829 
L 226.452567 -200.894829 
L 226.910883 -200.894829 
L 227.369199 -200.894829 
L 227.827515 -200.894829 
L 228.285832 -200.894829 
L 228.744148 -200.894829 
L 229.202464 -200.894829 
L 229.66078 -200.894829 
L 230.119097 -200.894829 
L 230.577413 -200.894829 
L 231.035729 -200.894829 
L 231.494045 -200.894829 
L 231.952361 -200.894829 
L 232.410678 -200.894829 
L 232.868994 -200.894829 
L 233.32731 -200.894829 
L 233.785626 -200.894829 
L 234.243943 -200.894829 
L 234.702259 -200.894829 
L 235.160575 -200.894829 
L 235.618891 -200.894829 
L 236.077207 -200.894829 
L 236.535524 -200.894829 
L 236.99384 -200.894829 
L 237.452156 -200.894829 
L 237.910472 -200.894829 
L 238.368789 -200.894829 
L 238.827105 -200.894829 
L 239.285421 -200.894829 
L 239.743737 -200.894829 
L 240.202053 -200.894829 
L 240.66037 -200.894829 
L 241.118686 -200.894829 
L 241.577002 -200.894829 
L 242.035318 -200.894829 
L 242.493634 -200.894829 
L 242.951951 -200.894829 
L 243.410267 -200.894829 
L 243.868583 -200.894829 
L 244.326899 -200.894829 
L 244.785216 -200.894829 
L 245.243532 -200.894829 
L 245.701848 -200.894829 
L 246.160164 -200.894829 
L 246.61848 -200.894829 
L 247.076797 -200.894829 
L 247.535113 -200.894829 
L 247.993429 -200.894829 
L 248.451745 -200.894829 
L 248.910062 -200.894829 
L 249.368378 -200.894829 
L 249.826694 -200.894829 
L 250.28501 -200.894829 
L 250.743326 -200.894829 
L 251.201643 -200.894829 
L 251.659959 -200.894829 
L 252.118275 -200.894829 
L 252.576591 -200.894829 
L 253.034908 -200.894829 
L 253.493224 -200.894829 
L 253.95154 -200.894829 
L 254.409856 -200.894829 
L 254.868172 -200.894829 
L 255.326489 -200.894829 
L 255.784805 -200.894829 
L 256.243121 -200.894829 
L 256.701437 -200.894829 
L 257.159754 -200.894829 
L 257.61807 -200.894829 
L 258.076386 -200.894829 
L 258.534702 -200.894829 
L 258.993018 -200.894829 
L 259.451335 -200.894829 
L 259.909651 -200.894829 
L 260.367967 -200.894829 
L 260.826283 -200.894829 
L 261.2846 -200.894829 
L 261.742916 -200.894829 
L 262.201232 -200.894829 
L 262.659548 -200.894829 
L 263.117864 -200.894829 
L 263.576181 -200.894829 
L 264.034497 -200.894829 
L 264.492813 -200.894829 
L 264.951129 -200.894829 
L 265.409446 -200.894829 
L 265.867762 -200.894829 
L 266.326078 -200.894829 
L 266.784394 -200.894829 
L 267.24271 -200.894829 
L 267.701027 -200.894829 
L 268.159343 -200.894829 
L 268.617659 -200.894829 
L 269.075975 -200.894829 
L 269.534292 -200.894829 
L 269.992608 -200.894829 
L 270.450924 -200.894829 
L 270.90924 -200.894829 
L 271.367556 -200.894829 
L 271.825873 -200.894829 
L 272.284189 -200.894829 
L 272.742505 -200.894829 
L 273.200821 -200.894829 
L 273.659138 -200.894829 
L 274.117454 -200.894829 
L 274.57577 -200.894829 
L 275.034086 -200.894829 
L 275.492402 -200.894829 
L 275.950719 -200.894829 
L 276.409035 -200.894829 
L 276.867351 -200.894829 
L 277.325667 -200.894829 
L 277.783984 -200.894829 
L 278.2423 -200.894829 
L 278.700616 -200.894829 
L 279.158932 -200.894829 
L 279.617248 -200.894829 
L 280.075565 -200.894829 
L 280.533881 -200.894829 
L 280.992197 -200.894829 
L 281.450513 -200.894829 
L 281.90883 -200.894829 
L 282.367146 -200.894829 
L 282.825462 -200.894829 
L 283.283778 -200.894829 
L 283.742094 -200.894829 
L 284.200411 -200.894829 
L 284.658727 -200.894829 
L 285.117043 -200.894829 
L 285.575359 -200.894829 
L 286.033676 -200.894829 
L 286.491992 -200.894829 
L 286.950308 -200.894829 
L 287.408624 -200.894829 
L 287.86694 -200.894829 
L 288.325257 -200.894829 
L 288.783573 -200.894829 
L 289.241889 -200.894829 
L 289.700205 -200.894829 
L 290.158522 -200.894829 
L 290.616838 -200.894829 
L 291.075154 -200.894829 
L 291.53347 -200.894829 
L 291.991786 -200.894829 
L 292.450103 -200.894829 
L 292.908419 -200.894829 
L 293.366735 -200.894829 
L 293.825051 -200.894829 
L 294.283368 -200.894829 
L 294.741684 -200.894829 
L 295.2 -200.894829 
L 295.658316 -200.894829 
L 296.116632 -200.894829 
L 296.574949 -200.894829 
L 297.033265 -200.894829 
L 297.491581 -200.894829 
L 297.949897 -200.894829 
L 298.408214 -200.894829 
L 298.86653 -200.894829 
L 299.324846 -200.894829 
L 299.783162 -200.894829 
L 300.241478 -200.894829 
L 300.699795 -200.894829 
L 301.158111 -200.894829 
L 301.616427 -200.894829 
L 302.074743 -200.894829 
L 302.53306 -200.894829 
L 302.991376 -200.894829 
L 303.449692 -200.894829 
L 303.908008 -200.894829 
L 304.366324 -200.894829 
L 304.824641 -200.894829 
L 305.282957 -200.894829 
L 305.741273 -200.894829 
L 306.199589 -200.894829 
L 306.657906 -200.894829 
L 307.116222 -200.894829 
L 307.574538 -200.894829 
L 308.032854 -200.894829 
L 308.49117 -200.894829 
L 308.949487 -200.894829 
L 309.407803 -200.894829 
L 309.866119 -200.894829 
L 310.324435 -200.894829 
L 310.782752 -200.894829 
L 311.241068 -200.894829 
L 311.699384 -200.894829 
L 312.1577 -200.894829 
L 312.616016 -200.894829 
L 313.074333 -200.894829 
L 313.532649 -200.894829 
L 313.990965 -200.894829 
L 314.449281 -200.894829 
L 314.907598 -200.894829 
L 315.365914 -200.894829 
L 315.82423 -200.894829 
L 316.282546 -200.894829 
L 316.740862 -200.894829 
L 317.199179 -200.894829 
L 317.657495 -200.894829 
L 318.115811 -200.894829 
L 318.574127 -200.894829 
L 319.032444 -200.894829 
L 319.49076 -200.894829 
L 319.949076 -200.894829 
L 320.407392 -200.894829 
L 320.865708 -200.894829 
L 321.324025 -200.894829 
L 321.782341 -200.894829 
L 322.240657 -200.894829 
L 322.698973 -200.894829 
L 323.15729 -200.894829 
L 323.615606 -200.894829 
L 324.073922 -200.894829 
L 324.532238 -200.894829 
L 324.990554 -200.894829 
L 325.448871 -200.894829 
L 325.907187 -200.894829 
L 326.365503 -200.894829 
L 326.823819 -200.894829 
L 327.282136 -200.894829 
L 327.740452 -200.894829 
L 328.198768 -200.894829 
L 328.657084 -200.894829 
L 329.1154 -200.894829 
L 329.573717 -200.894829 
L 330.032033 -200.894829 
L 330.490349 -200.894829 
L 330.948665 -200.894829 
L 331.406982 -200.894829 
L 331.865298 -200.894829 
L 332.323614 -200.894829 
L 332.78193 -200.894829 
L 333.240246 -200.894829 
L 333.698563 -200.894829 
L 334.156879 -200.894829 
L 334.615195 -200.894829 
L 335.073511 -200.894829 
L 335.531828 -200.894829 
L 335.990144 -200.894829 
L 336.44846 -200.894829 
L 336.906776 -200.894829 
L 337.365092 -200.894829 
L 337.823409 -200.894829 
L 338.281725 -200.894829 
L 338.740041 -200.894829 
L 339.198357 -200.894829 
L 339.656674 -200.894829 
L 340.11499 -200.894829 
L 340.573306 -200.894829 
L 341.031622 -200.894829 
L 341.489938 -200.894829 
L 341.948255 -200.894829 
L 342.406571 -200.894829 
L 342.864887 -200.894829 
L 343.323203 -200.894829 
L 343.78152 -200.894829 
L 344.239836 -200.894829 
L 344.698152 -200.894829 
L 345.156468 -200.894829 
L 345.614784 -200.894829 
L 346.073101 -200.894829 
L 346.531417 -200.894829 
L 346.989733 -200.894829 
L 347.448049 -200.894829 
L 347.906366 -200.894829 
L 348.364682 -200.894829 
L 348.822998 -200.894829 
L 349.281314 -200.894829 
L 349.73963 -200.894829 
L 350.197947 -200.894829 
L 350.656263 -200.894829 
L 351.114579 -200.894829 
L 351.572895 -200.894829 
L 352.031211 -200.894829 
L 352.489528 -200.894829 
L 352.947844 -200.894829 
L 353.40616 -200.894829 
L 353.864476 -200.894829 
L 354.322793 -200.894829 
L 354.781109 -200.894829 
L 355.239425 -200.894829 
L 355.697741 -200.894829 
L 356.156057 -200.894829 
L 356.614374 -200.894829 
L 357.07269 -200.894829 
L 357.531006 -200.894829 
L 357.989322 -200.894829 
L 358.447639 -200.894829 
L 358.905955 -200.894829 
L 359.364271 -200.894829 
L 359.822587 -200.894829 
L 360.280903 -200.894829 
L 360.73922 -200.894829 
L 361.197536 -200.894829 
L 361.655852 -200.894829 
L 362.114168 -200.894829 
L 362.572485 -200.894829 
L 363.030801 -200.894829 
L 363.489117 -200.894829 
L 363.947433 -200.894829 
L 364.405749 -200.894829 
L 364.864066 -200.894829 
L 365.322382 -200.894829 
L 365.780698 -200.894829 
L 366.239014 -200.894829 
L 366.697331 -200.894829 
L 367.155647 -200.894829 
L 367.613963 -200.894829 
L 368.072279 -200.894829 
L 368.530595 -200.894829 
L 368.988912 -200.894829 
L 369.447228 -200.894829 
L 369.905544 -200.894829 
L 370.36386 -200.894829 
L 370.822177 -200.894829 
L 371.280493 -200.894829 
L 371.738809 -200.894829 
L 372.197125 -200.894829 
L 372.655441 -200.894829 
L 373.113758 -200.894829 
L 373.572074 -200.894829 
L 374.03039 -200.894829 
L 374.488706 -200.894829 
L 374.947023 -200.894829 
L 375.405339 -200.894829 
L 375.863655 -200.894829 
L 376.321971 -200.894829 
L 376.780287 -200.894829 
L 377.238604 -200.894829 
L 377.69692 -200.894829 
L 378.155236 -200.894829 
L 378.613552 -200.894829 
L 379.071869 -200.894829 
L 379.530185 -200.894829 
L 379.988501 -200.894829 
L 380.446817 -200.894829 
L 380.905133 -200.894829 
L 381.36345 -200.894829 
L 381.821766 -200.894829 
L 382.280082 -200.894829 
L 382.738398 -200.894829 
L 383.196715 -200.894829 
L 383.655031 -200.894829 
L 384.113347 -200.894829 
L 384.571663 -200.894829 
L 385.029979 -200.894829 
L 385.488296 -200.894829 
L 385.946612 -200.894829 
L 386.404928 -200.894829 
L 386.863244 -200.894829 
L 387.321561 -200.894829 
L 387.779877 -200.894829 
L 388.238193 -200.894829 
L 388.696509 -200.894829 
L 389.154825 -200.894829 
L 389.613142 -200.894829 
L 390.071458 -200.894829 
L 390.529774 -200.894829 
L 390.98809 -200.894829 
L 391.446407 -200.894829 
L 391.904723 -200.894829 
L 392.363039 -200.894829 
L 392.821355 -200.894829 
L 393.279671 -200.894829 
L 393.737988 -200.894829 
L 394.196304 -200.894829 
L 394.65462 -200.894829 
L 395.112936 -200.894829 
L 395.571253 -200.894829 
L 396.029569 -200.894829 
L 396.487885 -200.894829 
L 396.946201 -200.894829 
L 397.404517 -200.894829 
L 397.862834 -200.894829 
L 398.32115 -200.894829 
L 398.779466 -200.894829 
L 399.237782 -200.894829 
L 399.696099 -200.894829 
L 400.154415 -200.894829 
L 400.612731 -200.894829 
L 401.071047 -200.894829 
L 401.529363 -200.894829 
L 401.98768 -200.894829 
L 402.445996 -200.894829 
L 402.904312 -200.894829 
L 403.362628 -200.894829 
L 403.820945 -200.894829 
L 404.279261 -200.894829 
L 404.737577 -200.894829 
L 405.195893 -200.894829 
L 405.654209 -200.894829 
L 406.112526 -200.894829 
L 406.570842 -200.894829 
L 407.029158 -200.894829 
L 407.487474 -200.894829 
L 407.945791 -200.894829 
L 408.404107 -200.894829 
L 408.862423 -200.894829 
L 409.320739 -200.894829 
L 409.779055 -200.894829 
L 410.237372 -200.894829 
L 410.695688 -200.894829 
L 411.154004 -200.894829 
L 411.61232 -200.894829 
L 412.070637 -200.894829 
L 412.528953 -200.894829 
L 412.987269 -200.894829 
L 413.445585 -200.894829 
L 413.903901 -200.894829 
L 414.362218 -200.894829 
L 414.820534 -200.894829 
L 415.27885 -200.894829 
L 415.737166 -200.894829 
L 416.195483 -200.894829 
L 416.653799 -200.894829 
L 417.112115 -200.894829 
L 417.570431 -200.894829 
L 418.028747 -200.894829 
L 418.487064 -200.894829 
L 418.94538 -200.894829 
L 419.403696 -200.894829 
L 419.862012 -200.894829 
L 420.320329 -200.894829 
L 420.778645 -200.894829 
L 421.236961 -200.894829 
L 421.695277 -200.894829 
L 422.153593 -200.894829 
L 422.61191 -200.894829 
L 423.070226 -200.894829 
L 423.528542 -200.894829 
L 423.986858 -200.894829 
L 424.445175 -200.894829 
L 424.903491 -200.894829 
L 425.361807 -200.894829 
L 425.820123 -200.894829 
L 426.278439 -200.894829 
L 426.736756 -200.894829 
L 427.195072 -200.894829 
L 427.653388 -200.894829 
L 428.111704 -200.894829 
L 428.570021 -200.894829 
L 429.028337 -200.894829 
L 429.486653 -200.894829 
L 429.944969 -200.894829 
L 430.403285 -200.894829 
L 430.861602 -200.894829 
L 431.319918 -200.894829 
L 431.778234 -200.894829 
L 432.23655 -200.894829 
L 432.694867 -200.894829 
L 433.153183 -200.894829 
L 433.611499 -200.894829 
L 434.069815 -200.894829 
L 434.528131 -200.894829 
L 434.986448 -200.894829 
L 435.444764 -200.894829 
L 435.90308 -200.894829 
L 436.361396 -200.894829 
L 436.819713 -200.894829 
L 437.278029 -200.894829 
L 437.736345 -200.894829 
L 438.194661 -200.894829 
L 438.652977 -200.894829 
L 439.111294 -200.894829 
L 439.56961 -200.894829 
L 440.027926 -200.894829 
L 440.486242 -200.894829 
L 440.944559 -200.894829 
L 441.402875 -200.894829 
L 441.861191 -200.894829 
L 442.319507 -200.894829 
L 442.777823 -200.894829 
L 443.23614 -200.894829 
L 443.694456 -200.894829 
L 444.152772 -200.894829 
L 444.611088 -200.894829 
L 445.069405 -200.894829 
L 445.527721 -200.894829 
L 445.986037 -200.894829 
L 446.444353 -200.894829 
L 446.902669 -200.894829 
L 447.360986 -200.894829 
L 447.819302 -200.894829 
L 448.277618 -200.894829 
L 448.735934 -200.894829 
L 449.194251 -200.894829 
L 449.652567 -200.894829 
L 450.110883 -200.894829 
L 450.569199 -200.894829 
L 451.027515 -200.894829 
L 451.485832 -200.894829 
L 451.944148 -200.894829 
L 452.402464 -200.894829 
L 452.86078 -200.894829 
L 453.319097 -200.894829 
L 453.777413 -200.894829 
L 454.235729 -200.894829 
L 454.694045 -200.894829 
L 455.152361 -200.894829 
L 455.610678 -200.894829 
L 456.068994 -200.894829 
L 456.52731 -200.894829 
L 456.985626 -200.894829 
L 457.443943 -200.894829 
L 457.902259 -200.894829 
L 458.360575 -200.894829 
L 458.818891 -200.894829 
L 459.277207 -200.894829 
L 459.735524 -200.894829 
L 460.19384 -200.894829 
L 460.652156 -200.894829 
L 461.110472 -200.894829 
L 461.568789 -200.894829 
L 462.027105 -200.894829 
L 462.485421 -200.894829 
L 462.943737 -200.894829 
L 463.402053 -200.894829 
L 463.86037 -200.894829 
L 464.318686 -200.894829 
L 464.777002 -200.894829 
L 465.235318 -200.894829 
L 465.693634 -200.894829 
L 466.151951 -200.894829 
L 466.610267 -200.894829 
L 467.068583 -200.894829 
L 467.526899 -200.894829 
L 467.985216 -200.894829 
L 468.443532 -200.894829 
L 468.901848 -200.894829 
L 469.360164 -200.894829 
L 469.81848 -200.894829 
L 470.276797 -200.894829 
L 470.735113 -200.894829 
L 471.193429 -200.894829 
L 471.651745 -200.894829 
L 472.110062 -200.894829 
L 472.568378 -200.894829 
L 473.026694 -200.894829 
L 473.48501 -200.894829 
L 473.943326 -200.894829 
L 474.401643 -200.894829 
L 474.859959 -200.894829 
L 475.318275 -200.894829 
L 475.776591 -200.894829 
L 476.234908 -200.894829 
L 476.693224 -200.894829 
L 477.15154 -200.894829 
L 477.609856 -200.894829 
L 478.068172 -200.894829 
L 478.526489 -200.894829 
L 478.984805 -200.894829 
L 479.443121 -200.894829 
L 479.901437 -200.894829 
L 480.359754 -200.894829 
L 480.81807 -200.894829 
L 481.276386 -200.894829 
L 481.734702 -200.894829 
L 482.193018 -200.894829 
L 482.651335 -200.894829 
L 483.109651 -200.894829 
L 483.567967 -200.894829 
L 484.026283 -200.894829 
L 484.4846 -200.894829 
L 484.942916 -200.894829 
L 485.401232 -200.894829 
L 485.859548 -200.894829 
L 486.317864 -200.894829 
L 486.776181 -200.894829 
L 487.234497 -200.894829 
L 487.692813 -200.894829 
L 488.151129 -200.894829 
L 488.609446 -200.894829 
L 489.067762 -200.894829 
L 489.526078 -200.894829 
L 489.984394 -200.894829 
L 490.44271 -200.894829 
L 490.901027 -200.894829 
L 491.359343 -200.894829 
L 491.817659 -200.894829 
L 492.275975 -200.894829 
L 492.734292 -200.894829 
L 493.192608 -200.894829 
L 493.650924 -200.894829 
L 494.10924 -200.894829 
L 494.567556 -200.894829 
L 495.025873 -200.894829 
L 495.484189 -200.894829 
L 495.942505 -200.894829 
L 496.400821 -200.894829 
L 496.859138 -200.894829 
L 497.317454 -200.894829 
L 497.77577 -200.894829 
L 498.234086 -200.894829 
L 498.692402 -200.894829 
L 499.150719 -200.894829 
L 499.609035 -200.894829 
L 500.067351 -200.894829 
L 500.525667 -200.894829 
L 500.983984 -200.894829 
L 501.4423 -200.894829 
L 501.900616 -200.894829 
L 502.358932 -200.894829 
L 502.817248 -200.894829 
L 503.275565 -200.894829 
L 503.733881 -200.894829 
L 504.192197 -200.894829 
L 504.650513 -200.894829 
L 505.10883 -200.894829 
L 505.567146 -200.894829 
L 506.025462 -200.894829 
L 506.483778 -200.894829 
L 506.942094 -200.894829 
L 507.400411 -200.894829 
L 507.858727 -200.894829 
L 508.317043 -200.894829 
L 508.775359 -200.894829 
L 509.233676 -200.894829 
L 509.691992 -200.894829 
L 510.150308 -200.894829 
L 510.608624 -200.894829 
L 511.06694 -200.894829 
L 511.525257 -200.894829 
L 511.983573 -200.894829 
L 512.441889 -200.894829 
L 512.900205 -200.894829 
L 513.358522 -200.894829 
L 513.816838 -200.894829 
L 514.275154 -200.894829 
L 514.73347 -200.894829 
L 515.191786 -200.894829 
L 515.650103 -200.894829 
L 516.108419 -200.894829 
L 516.566735 -200.894829 
L 517.025051 -200.894829 
L 517.483368 -200.894829 
L 517.941684 -200.894829 
L 518.4 -200.894829 
L 518.4 -195.174389 
L 518.4 -195.174389 
L 517.941684 -195.174389 
L 517.483368 -195.174389 
L 517.025051 -195.174389 
L 516.566735 -195.174389 
L 516.108419 -195.174389 
L 515.650103 -195.174389 
L 515.191786 -195.174389 
L 514.73347 -195.174389 
L 514.275154 -195.174389 
L 513.816838 -195.174389 
L 513.358522 -195.174389 
L 512.900205 -195.174389 
L 512.441889 -195.174389 
L 511.983573 -195.174389 
L 511.525257 -195.174389 
L 511.06694 -195.174389 
L 510.608624 -195.174389 
L 510.150308 -195.174389 
L 509.691992 -195.174389 
L 509.233676 -195.174389 
L 508.775359 -195.174389 
L 508.317043 -195.174389 
L 507.858727 -195.174389 
L 507.400411 -195.174389 
L 506.942094 -195.174389 
L 506.483778 -195.174389 
L 506.025462 -195.174389 
L 505.567146 -195.174389 
L 505.10883 -195.174389 
L 504.650513 -195.174389 
L 504.192197 -195.174389 
L 503.733881 -195.174389 
L 503.275565 -195.174389 
L 502.817248 -195.174389 
L 502.358932 -195.174389 
L 501.900616 -195.174389 
L 501.4423 -195.174389 
L 500.983984 -195.174389 
L 500.525667 -195.174389 
L 500.067351 -195.174389 
L 499.609035 -195.174389 
L 499.150719 -195.174389 
L 498.692402 -195.174389 
L 498.234086 -195.174389 
L 497.77577 -195.174389 
L 497.317454 -195.174389 
L 496.859138 -195.174389 
L 496.400821 -195.174389 
L 495.942505 -195.174389 
L 495.484189 -195.174389 
L 495.025873 -195.174389 
L 494.567556 -195.174389 
L 494.10924 -195.174389 
L 493.650924 -195.174389 
L 493.192608 -195.174389 
L 492.734292 -195.174389 
L 492.275975 -195.174389 
L 491.817659 -195.174389 
L 491.359343 -195.174389 
L 490.901027 -195.174389 
L 490.44271 -195.174389 
L 489.984394 -195.174389 
L 489.526078 -195.174389 
L 489.067762 -195.174389 
L 488.609446 -195.174389 
L 488.151129 -195.174389 
L 487.692813 -195.174389 
L 487.234497 -195.174389 
L 486.776181 -195.174389 
L 486.317864 -195.174389 
L 485.859548 -195.174389 
L 485.401232 -195.174389 
L 484.942916 -195.174389 
L 484.4846 -195.174389 
L 484.026283 -195.174389 
L 483.567967 -195.174389 
L 483.109651 -195.174389 
L 482.651335 -195.174389 
L 482.193018 -195.174389 
L 481.734702 -195.174389 
L 481.276386 -195.174389 
L 480.81807 -195.174389 
L 480.359754 -195.174389 
L 479.901437 -195.174389 
L 479.443121 -195.174389 
L 478.984805 -195.174389 
L 478.526489 -195.174389 
L 478.068172 -195.174389 
L 477.609856 -195.174389 
L 477.15154 -195.174389 
L 476.693224 -195.174389 
L 476.234908 -195.174389 
L 475.776591 -195.174389 
L 475.318275 -195.174389 
L 474.859959 -195.174389 
L 474.401643 -195.174389 
L 473.943326 -195.174389 
L 473.48501 -195.174389 
L 473.026694 -195.174389 
L 472.568378 -195.174389 
L 472.110062 -195.174389 
L 471.651745 -195.174389 
L 471.193429 -195.174389 
L 470.735113 -195.174389 
L 470.276797 -195.174389 
L 469.81848 -195.174389 
L 469.360164 -195.174389 
L 468.901848 -195.174389 
L 468.443532 -195.174389 
L 467.985216 -195.174389 
L 467.526899 -195.174389 
L 467.068583 -195.174389 
L 466.610267 -195.174389 
L 466.151951 -195.174389 
L 465.693634 -195.174389 
L 465.235318 -195.174389 
L 464.777002 -195.174389 
L 464.318686 -195.174389 
L 463.86037 -195.174389 
L 463.402053 -195.174389 
L 462.943737 -195.174389 
L 462.485421 -195.174389 
L 462.027105 -195.174389 
L 461.568789 -195.174389 
L 461.110472 -195.174389 
L 460.652156 -195.174389 
L 460.19384 -195.174389 
L 459.735524 -195.174389 
L 459.277207 -195.174389 
L 458.818891 -195.174389 
L 458.360575 -195.174389 
L 457.902259 -195.174389 
L 457.443943 -195.174389 
L 456.985626 -195.174389 
L 456.52731 -195.174389 
L 456.068994 -195.174389 
L 455.610678 -195.174389 
L 455.152361 -195.174389 
L 454.694045 -195.174389 
L 454.235729 -195.174389 
L 453.777413 -195.174389 
L 453.319097 -195.174389 
L 452.86078 -195.174389 
L 452.402464 -195.174389 
L 451.944148 -195.174389 
L 451.485832 -195.174389 
L 451.027515 -195.174389 
L 450.569199 -195.174389 
L 450.110883 -195.174389 
L 449.652567 -195.174389 
L 449.194251 -195.174389 
L 448.735934 -195.174389 
L 448.277618 -195.174389 
L 447.819302 -195.174389 
L 447.360986 -195.174389 
L 446.902669 -195.174389 
L 446.444353 -195.174389 
L 445.986037 -195.174389 
L 445.527721 -195.174389 
L 445.069405 -195.174389 
L 444.611088 -195.174389 
L 444.152772 -195.174389 
L 443.694456 -195.174389 
L 443.23614 -195.174389 
L 442.777823 -195.174389 
L 442.319507 -195.174389 
L 441.861191 -195.174389 
L 441.402875 -195.174389 
L 440.944559 -195.174389 
L 440.486242 -195.174389 
L 440.027926 -195.174389 
L 439.56961 -195.174389 
L 439.111294 -195.174389 
L 438.652977 -195.174389 
L 438.194661 -195.174389 
L 437.736345 -195.174389 
L 437.278029 -195.174389 
L 436.819713 -195.174389 
L 436.361396 -195.174389 
L 435.90308 -195.174389 
L 435.444764 -195.174389 
L 434.986448 -195.174389 
L 434.528131 -195.174389 
L 434.069815 -195.174389 
L 433.611499 -195.174389 
L 433.153183 -195.174389 
L 432.694867 -195.174389 
L 432.23655 -195.174389 
L 431.778234 -195.174389 
L 431.319918 -195.174389 
L 430.861602 -195.174389 
L 430.403285 -195.174389 
L 429.944969 -195.174389 
L 429.486653 -195.174389 
L 429.028337 -195.174389 
L 428.570021 -195.174389 
L 428.111704 -195.174389 
L 427.653388 -195.174389 
L 427.195072 -195.174389 
L 426.736756 -195.174389 
L 426.278439 -195.174389 
L 425.820123 -195.174389 
L 425.361807 -195.174389 
L 424.903491 -195.174389 
L 424.445175 -195.174389 
L 423.986858 -195.174389 
L 423.528542 -195.174389 
L 423.070226 -195.174389 
L 422.61191 -195.174389 
L 422.153593 -195.174389 
L 421.695277 -195.174389 
L 421.236961 -195.174389 
L 420.778645 -195.174389 
L 420.320329 -195.174389 
L 419.862012 -195.174389 
L 419.403696 -195.174389 
L 418.94538 -195.174389 
L 418.487064 -195.174389 
L 418.028747 -195.174389 
L 417.570431 -195.174389 
L 417.112115 -195.174389 
L 416.653799 -195.174389 
L 416.195483 -195.174389 
L 415.737166 -195.174389 
L 415.27885 -195.174389 
L 414.820534 -195.174389 
L 414.362218 -195.174389 
L 413.903901 -195.174389 
L 413.445585 -195.174389 
L 412.987269 -195.174389 
L 412.528953 -195.174389 
L 412.070637 -195.174389 
L 411.61232 -195.174389 
L 411.154004 -195.174389 
L 410.695688 -195.174389 
L 410.237372 -195.174389 
L 409.779055 -195.174389 
L 409.320739 -195.174389 
L 408.862423 -195.174389 
L 408.404107 -195.174389 
L 407.945791 -195.174389 
L 407.487474 -195.174389 
L 407.029158 -195.174389 
L 406.570842 -195.174389 
L 406.112526 -195.174389 
L 405.654209 -195.174389 
L 405.195893 -195.174389 
L 404.737577 -195.174389 
L 404.279261 -195.174389 
L 403.820945 -195.174389 
L 403.362628 -195.174389 
L 402.904312 -195.174389 
L 402.445996 -195.174389 
L 401.98768 -195.174389 
L 401.529363 -195.174389 
L 401.071047 -195.174389 
L 400.612731 -195.174389 
L 400.154415 -195.174389 
L 399.696099 -195.174389 
L 399.237782 -195.174389 
L 398.779466 -195.174389 
L 398.32115 -195.174389 
L 397.862834 -195.174389 
L 397.404517 -195.174389 
L 396.946201 -195.174389 
L 396.487885 -195.174389 
L 396.029569 -195.174389 
L 395.571253 -195.174389 
L 395.112936 -195.174389 
L 394.65462 -195.174389 
L 394.196304 -195.174389 
L 393.737988 -195.174389 
L 393.279671 -195.174389 
L 392.821355 -195.174389 
L 392.363039 -195.174389 
L 391.904723 -195.174389 
L 391.446407 -195.174389 
L 390.98809 -195.174389 
L 390.529774 -195.174389 
L 390.071458 -195.174389 
L 389.613142 -195.174389 
L 389.154825 -195.174389 
L 388.696509 -195.174389 
L 388.238193 -195.174389 
L 387.779877 -195.174389 
L 387.321561 -195.174389 
L 386.863244 -195.174389 
L 386.404928 -195.174389 
L 385.946612 -195.174389 
L 385.488296 -195.174389 
L 385.029979 -195.174389 
L 384.571663 -195.174389 
L 384.113347 -195.174389 
L 383.655031 -195.174389 
L 383.196715 -195.174389 
L 382.738398 -195.174389 
L 382.280082 -195.174389 
L 381.821766 -195.174389 
L 381.36345 -195.174389 
L 380.905133 -195.174389 
L 380.446817 -195.174389 
L 379.988501 -195.174389 
L 379.530185 -195.174389 
L 379.071869 -195.174389 
L 378.613552 -195.174389 
L 378.155236 -195.174389 
L 377.69692 -195.174389 
L 377.238604 -195.174389 
L 376.780287 -195.174389 
L 376.321971 -195.174389 
L 375.863655 -195.174389 
L 375.405339 -195.174389 
L 374.947023 -195.174389 
L 374.488706 -195.174389 
L 374.03039 -195.174389 
L 373.572074 -195.174389 
L 373.113758 -195.174389 
L 372.655441 -195.174389 
L 372.197125 -195.174389 
L 371.738809 -195.174389 
L 371.280493 -195.174389 
L 370.822177 -195.174389 
L 370.36386 -195.174389 
L 369.905544 -195.174389 
L 369.447228 -195.174389 
L 368.988912 -195.174389 
L 368.530595 -195.174389 
L 368.072279 -195.174389 
L 367.613963 -195.174389 
L 367.155647 -195.174389 
L 366.697331 -195.174389 
L 366.239014 -195.174389 
L 365.780698 -195.174389 
L 365.322382 -195.174389 
L 364.864066 -195.174389 
L 364.405749 -195.174389 
L 363.947433 -195.174389 
L 363.489117 -195.174389 
L 363.030801 -195.174389 
L 362.572485 -195.174389 
L 362.114168 -195.174389 
L 361.655852 -195.174389 
L 361.197536 -195.174389 
L 360.73922 -195.174389 
L 360.280903 -195.174389 
L 359.822587 -195.174389 
L 359.364271 -195.174389 
L 358.905955 -195.174389 
L 358.447639 -195.174389 
L 357.989322 -195.174389 
L 357.531006 -195.174389 
L 357.07269 -195.174389 
L 356.614374 -195.174389 
L 356.156057 -195.174389 
L 355.697741 -195.174389 
L 355.239425 -195.174389 
L 354.781109 -195.174389 
L 354.322793 -195.174389 
L 353.864476 -195.174389 
L 353.40616 -195.174389 
L 352.947844 -195.174389 
L 352.489528 -195.174389 
L 352.031211 -195.174389 
L 351.572895 -195.174389 
L 351.114579 -195.174389 
L 350.656263 -195.174389 
L 350.197947 -195.174389 
L 349.73963 -195.174389 
L 349.281314 -195.174389 
L 348.822998 -195.174389 
L 348.364682 -195.174389 
L 347.906366 -195.174389 
L 347.448049 -195.174389 
L 346.989733 -195.174389 
L 346.531417 -195.174389 
L 346.073101 -195.174389 
L 345.614784 -195.174389 
L 345.156468 -195.174389 
L 344.698152 -195.174389 
L 344.239836 -195.174389 
L 343.78152 -195.174389 
L 343.323203 -195.174389 
L 342.864887 -195.174389 
L 342.406571 -195.174389 
L 341.948255 -195.174389 
L 341.489938 -195.174389 
L 341.031622 -195.174389 
L 340.573306 -195.174389 
L 340.11499 -195.174389 
L 339.656674 -195.174389 
L 339.198357 -195.174389 
L 338.740041 -195.174389 
L 338.281725 -195.174389 
L 337.823409 -195.174389 
L 337.365092 -195.174389 
L 336.906776 -195.174389 
L 336.44846 -195.174389 
L 335.990144 -195.174389 
L 335.531828 -195.174389 
L 335.073511 -195.174389 
L 334.615195 -195.174389 
L 334.156879 -195.174389 
L 333.698563 -195.174389 
L 333.240246 -195.174389 
L 332.78193 -195.174389 
L 332.323614 -195.174389 
L 331.865298 -195.174389 
L 331.406982 -195.174389 
L 330.948665 -195.174389 
L 330.490349 -195.174389 
L 330.032033 -195.174389 
L 329.573717 -195.174389 
L 329.1154 -195.174389 
L 328.657084 -195.174389 
L 328.198768 -195.174389 
L 327.740452 -195.174389 
L 327.282136 -195.174389 
L 326.823819 -195.174389 
L 326.365503 -195.174389 
L 325.907187 -195.174389 
L 325.448871 -195.174389 
L 324.990554 -195.174389 
L 324.532238 -195.174389 
L 324.073922 -195.174389 
L 323.615606 -195.174389 
L 323.15729 -195.174389 
L 322.698973 -195.174389 
L 322.240657 -195.174389 
L 321.782341 -195.174389 
L 321.324025 -195.174389 
L 320.865708 -195.174389 
L 320.407392 -195.174389 
L 319.949076 -195.174389 
L 319.49076 -195.174389 
L 319.032444 -195.174389 
L 318.574127 -195.174389 
L 318.115811 -195.174389 
L 317.657495 -195.174389 
L 317.199179 -195.174389 
L 316.740862 -195.174389 
L 316.282546 -195.174389 
L 315.82423 -195.174389 
L 315.365914 -195.174389 
L 314.907598 -195.174389 
L 314.449281 -195.174389 
L 313.990965 -195.174389 
L 313.532649 -195.174389 
L 313.074333 -195.174389 
L 312.616016 -195.174389 
L 312.1577 -195.174389 
L 311.699384 -195.174389 
L 311.241068 -195.174389 
L 310.782752 -195.174389 
L 310.324435 -195.174389 
L 309.866119 -195.174389 
L 309.407803 -195.174389 
L 308.949487 -195.174389 
L 308.49117 -195.174389 
L 308.032854 -195.174389 
L 307.574538 -195.174389 
L 307.116222 -195.174389 
L 306.657906 -195.174389 
L 306.199589 -195.174389 
L 305.741273 -195.174389 
L 305.282957 -195.174389 
L 304.824641 -195.174389 
L 304.366324 -195.174389 
L 303.908008 -195.174389 
L 303.449692 -195.174389 
L 302.991376 -195.174389 
L 302.53306 -195.174389 
L 302.074743 -195.174389 
L 301.616427 -195.174389 
L 301.158111 -195.174389 
L 300.699795 -195.174389 
L 300.241478 -195.174389 
L 299.783162 -195.174389 
L 299.324846 -195.174389 
L 298.86653 -195.174389 
L 298.408214 -195.174389 
L 297.949897 -195.174389 
L 297.491581 -195.174389 
L 297.033265 -195.174389 
L 296.574949 -195.174389 
L 296.116632 -195.174389 
L 295.658316 -195.174389 
L 295.2 -195.174389 
L 294.741684 -195.174389 
L 294.283368 -195.174389 
L 293.825051 -195.174389 
L 293.366735 -195.174389 
L 292.908419 -195.174389 
L 292.450103 -195.174389 
L 291.991786 -195.174389 
L 291.53347 -195.174389 
L 291.075154 -195.174389 
L 290.616838 -195.174389 
L 290.158522 -195.174389 
L 289.700205 -195.174389 
L 289.241889 -195.174389 
L 288.783573 -195.174389 
L 288.325257 -195.174389 
L 287.86694 -195.174389 
L 287.408624 -195.174389 
L 286.950308 -195.174389 
L 286.491992 -195.174389 
L 286.033676 -195.174389 
L 285.575359 -195.174389 
L 285.117043 -195.174389 
L 284.658727 -195.174389 
L 284.200411 -195.174389 
L 283.742094 -195.174389 
L 283.283778 -195.174389 
L 282.825462 -195.174389 
L 282.367146 -195.174389 
L 281.90883 -195.174389 
L 281.450513 -195.174389 
L 280.992197 -195.174389 
L 280.533881 -195.174389 
L 280.075565 -195.174389 
L 279.617248 -195.174389 
L 279.158932 -195.174389 
L 278.700616 -195.174389 
L 278.2423 -195.174389 
L 277.783984 -195.174389 
L 277.325667 -195.174389 
L 276.867351 -195.174389 
L 276.409035 -195.174389 
L 275.950719 -195.174389 
L 275.492402 -195.174389 
L 275.034086 -195.174389 
L 274.57577 -195.174389 
L 274.117454 -195.174389 
L 273.659138 -195.174389 
L 273.200821 -195.174389 
L 272.742505 -195.174389 
L 272.284189 -195.174389 
L 271.825873 -195.174389 
L 271.367556 -195.174389 
L 270.90924 -195.174389 
L 270.450924 -195.174389 
L 269.992608 -195.174389 
L 269.534292 -195.174389 
L 269.075975 -195.174389 
L 268.617659 -195.174389 
L 268.159343 -195.174389 
L 267.701027 -195.174389 
L 267.24271 -195.174389 
L 266.784394 -195.174389 
L 266.326078 -195.174389 
L 265.867762 -195.174389 
L 265.409446 -195.174389 
L 264.951129 -195.174389 
L 264.492813 -195.174389 
L 264.034497 -195.174389 
L 263.576181 -195.174389 
L 263.117864 -195.174389 
L 262.659548 -195.174389 
L 262.201232 -195.174389 
L 261.742916 -195.174389 
L 261.2846 -195.174389 
L 260.826283 -195.174389 
L 260.367967 -195.174389 
L 259.909651 -195.174389 
L 259.451335 -195.174389 
L 258.993018 -195.174389 
L 258.534702 -195.174389 
L 258.076386 -195.174389 
L 257.61807 -195.174389 
L 257.159754 -195.174389 
L 256.701437 -195.174389 
L 256.243121 -195.174389 
L 255.784805 -195.174389 
L 255.326489 -195.174389 
L 254.868172 -195.174389 
L 254.409856 -195.174389 
L 253.95154 -195.174389 
L 253.493224 -195.174389 
L 253.034908 -195.174389 
L 252.576591 -195.174389 
L 252.118275 -195.174389 
L 251.659959 -195.174389 
L 251.201643 -195.174389 
L 250.743326 -195.174389 
L 250.28501 -195.174389 
L 249.826694 -195.174389 
L 249.368378 -195.174389 
L 248.910062 -195.174389 
L 248.451745 -195.174389 
L 247.993429 -195.174389 
L 247.535113 -195.174389 
L 247.076797 -195.174389 
L 246.61848 -195.174389 
L 246.160164 -195.174389 
L 245.701848 -195.174389 
L 245.243532 -195.174389 
L 244.785216 -195.174389 
L 244.326899 -195.174389 
L 243.868583 -195.174389 
L 243.410267 -195.174389 
L 242.951951 -195.174389 
L 242.493634 -195.174389 
L 242.035318 -195.174389 
L 241.577002 -195.174389 
L 241.118686 -195.174389 
L 240.66037 -195.174389 
L 240.202053 -195.174389 
L 239.743737 -195.174389 
L 239.285421 -195.174389 
L 238.827105 -195.174389 
L 238.368789 -195.174389 
L 237.910472 -195.174389 
L 237.452156 -195.174389 
L 236.99384 -195.174389 
L 236.535524 -195.174389 
L 236.077207 -195.174389 
L 235.618891 -195.174389 
L 235.160575 -195.174389 
L 234.702259 -195.174389 
L 234.243943 -195.174389 
L 233.785626 -195.174389 
L 233.32731 -195.174389 
L 232.868994 -195.174389 
L 232.410678 -195.174389 
L 231.952361 -195.174389 
L 231.494045 -195.174389 
L 231.035729 -195.174389 
L 230.577413 -195.174389 
L 230.119097 -195.174389 
L 229.66078 -195.174389 
L 229.202464 -195.174389 
L 228.744148 -195.174389 
L 228.285832 -195.174389 
L 227.827515 -195.174389 
L 227.369199 -195.174389 
L 226.910883 -195.174389 
L 226.452567 -195.174389 
L 225.994251 -195.174389 
L 225.535934 -195.174389 
L 225.077618 -195.174389 
L 224.619302 -195.174389 
L 224.160986 -195.174389 
L 223.702669 -195.174389 
L 223.244353 -195.174389 
L 222.786037 -195.174389 
L 222.327721 -195.174389 
L 221.869405 -195.174389 
L 221.411088 -195.174389 
L 220.952772 -195.174389 
L 220.494456 -195.174389 
L 220.03614 -195.174389 
L 219.577823 -195.174389 
L 219.119507 -195.174389 
L 218.661191 -195.174389 
L 218.202875 -195.174389 
L 217.744559 -195.174389 
L 217.286242 -195.174389 
L 216.827926 -195.174389 
L 216.36961 -195.174389 
L 215.911294 -195.174389 
L 215.452977 -195.174389 
L 214.994661 -195.174389 
L 214.536345 -195.174389 
L 214.078029 -195.174389 
L 213.619713 -195.174389 
L 213.161396 -195.174389 
L 212.70308 -195.174389 
L 212.244764 -195.174389 
L 211.786448 -195.174389 
L 211.328131 -195.174389 
L 210.869815 -195.174389 
L 210.411499 -195.174389 
L 209.953183 -195.174389 
L 209.494867 -195.174389 
L 209.03655 -195.174389 
L 208.578234 -195.174389 
L 208.119918 -195.174389 
L 207.661602 -195.174389 
L 207.203285 -195.174389 
L 206.744969 -195.174389 
L 206.286653 -195.174389 
L 205.828337 -195.174389 
L 205.370021 -195.174389 
L 204.911704 -195.174389 
L 204.453388 -195.174389 
L 203.995072 -195.174389 
L 203.536756 -195.174389 
L 203.078439 -195.174389 
L 202.620123 -195.174389 
L 202.161807 -195.174389 
L 201.703491 -195.174389 
L 201.245175 -195.174389 
L 200.786858 -195.174389 
L 200.328542 -195.174389 
L 199.870226 -195.174389 
L 199.41191 -195.174389 
L 198.953593 -195.174389 
L 198.495277 -195.174389 
L 198.036961 -195.174389 
L 197.578645 -195.174389 
L 197.120329 -195.174389 
L 196.662012 -195.174389 
L 196.203696 -195.174389 
L 195.74538 -195.174389 
L 195.287064 -195.174389 
L 194.828747 -195.174389 
L 194.370431 -195.174389 
L 193.912115 -195.174389 
L 193.453799 -195.174389 
L 192.995483 -195.174389 
L 192.537166 -195.174389 
L 192.07885 -195.174389 
L 191.620534 -195.174389 
L 191.162218 -195.174389 
L 190.703901 -195.174389 
L 190.245585 -195.174389 
L 189.787269 -195.174389 
L 189.328953 -195.174389 
L 188.870637 -195.174389 
L 188.41232 -195.174389 
L 187.954004 -195.174389 
L 187.495688 -195.174389 
L 187.037372 -195.174389 
L 186.579055 -195.174389 
L 186.120739 -195.174389 
L 185.662423 -195.174389 
L 185.204107 -195.174389 
L 184.745791 -195.174389 
L 184.287474 -195.174389 
L 183.829158 -195.174389 
L 183.370842 -195.174389 
L 182.912526 -195.174389 
L 182.454209 -195.174389 
L 181.995893 -195.174389 
L 181.537577 -195.174389 
L 181.079261 -195.174389 
L 180.620945 -195.174389 
L 180.162628 -195.174389 
L 179.704312 -195.174389 
L 179.245996 -195.174389 
L 178.78768 -195.174389 
L 178.329363 -195.174389 
L 177.871047 -195.174389 
L 177.412731 -195.174389 
L 176.954415 -195.174389 
L 176.496099 -195.174389 
L 176.037782 -195.174389 
L 175.579466 -195.174389 
L 175.12115 -195.174389 
L 174.662834 -195.174389 
L 174.204517 -195.174389 
L 173.746201 -195.174389 
L 173.287885 -195.174389 
L 172.829569 -195.174389 
L 172.371253 -195.174389 
L 171.912936 -195.174389 
L 171.45462 -195.174389 
L 170.996304 -195.174389 
L 170.537988 -195.174389 
L 170.079671 -195.174389 
L 169.621355 -195.174389 
L 169.163039 -195.174389 
L 168.704723 -195.174389 
L 168.246407 -195.174389 
L 167.78809 -195.174389 
L 167.329774 -195.174389 
L 166.871458 -195.174389 
L 166.413142 -195.174389 
L 165.954825 -195.174389 
L 165.496509 -195.174389 
L 165.038193 -195.174389 
L 164.579877 -195.174389 
L 164.121561 -195.174389 
L 163.663244 -195.174389 
L 163.204928 -195.174389 
L 162.746612 -195.174389 
L 162.288296 -195.174389 
L 161.829979 -195.174389 
L 161.371663 -195.174389 
L 160.913347 -195.174389 
L 160.455031 -195.174389 
L 159.996715 -195.174389 
L 159.538398 -195.174389 
L 159.080082 -195.174389 
L 158.621766 -195.174389 
L 158.16345 -195.174389 
L 157.705133 -195.174389 
L 157.246817 -195.174389 
L 156.788501 -195.174389 
L 156.330185 -195.174389 
L 155.871869 -195.174389 
L 155.413552 -195.174389 
L 154.955236 -195.174389 
L 154.49692 -195.174389 
L 154.038604 -195.174389 
L 153.580287 -195.174389 
L 153.121971 -195.174389 
L 152.663655 -195.174389 
L 152.205339 -195.174389 
L 151.747023 -195.174389 
L 151.288706 -195.174389 
L 150.83039 -195.174389 
L 150.372074 -195.174389 
L 149.913758 -195.174389 
L 149.455441 -195.174389 
L 148.997125 -195.174389 
L 148.538809 -195.174389 
L 148.080493 -195.174389 
L 147.622177 -195.174389 
L 147.16386 -195.174389 
L 146.705544 -195.174389 
L 146.247228 -195.174389 
L 145.788912 -195.174389 
L 145.330595 -195.174389 
L 144.872279 -195.174389 
L 144.413963 -195.174389 
L 143.955647 -195.174389 
L 143.497331 -195.174389 
L 143.039014 -195.174389 
L 142.580698 -195.174389 
L 142.122382 -195.174389 
L 141.664066 -195.174389 
L 141.205749 -195.174389 
L 140.747433 -195.174389 
L 140.289117 -195.174389 
L 139.830801 -195.174389 
L 139.372485 -195.174389 
L 138.914168 -195.174389 
L 138.455852 -195.174389 
L 137.997536 -195.174389 
L 137.53922 -195.174389 
L 137.080903 -195.174389 
L 136.622587 -195.174389 
L 136.164271 -195.174389 
L 135.705955 -195.174389 
L 135.247639 -195.174389 
L 134.789322 -195.174389 
L 134.331006 -195.174389 
L 133.87269 -195.174389 
L 133.414374 -195.174389 
L 132.956057 -195.174389 
L 132.497741 -195.174389 
L 132.039425 -195.174389 
L 131.581109 -195.174389 
L 131.122793 -195.174389 
L 130.664476 -195.174389 
L 130.20616 -195.174389 
L 129.747844 -195.174389 
L 129.289528 -195.174389 
L 128.831211 -195.174389 
L 128.372895 -195.174389 
L 127.914579 -195.174389 
L 127.456263 -195.174389 
L 126.997947 -195.174389 
L 126.53963 -195.174389 
L 126.081314 -195.174389 
L 125.622998 -195.174389 
L 125.164682 -195.174389 
L 124.706366 -195.174389 
L 124.248049 -195.174389 
L 123.789733 -195.174389 
L 123.331417 -195.174389 
L 122.873101 -195.174389 
L 122.414784 -195.174389 
L 121.956468 -195.174389 
L 121.498152 -195.174389 
L 121.039836 -195.174389 
L 120.58152 -195.174389 
L 120.123203 -195.174389 
L 119.664887 -195.174389 
L 119.206571 -195.174389 
L 118.748255 -195.174389 
L 118.289938 -195.174389 
L 117.831622 -195.174389 
L 117.373306 -195.174389 
L 116.91499 -195.174389 
L 116.456674 -195.174389 
L 115.998357 -195.174389 
L 115.540041 -195.174389 
L 115.081725 -195.174389 
L 114.623409 -195.174389 
L 114.165092 -195.174389 
L 113.706776 -195.174389 
L 113.24846 -195.174389 
L 112.790144 -195.174389 
L 112.331828 -195.174389 
L 111.873511 -195.174389 
L 111.415195 -195.174389 
L 110.956879 -195.174389 
L 110.498563 -195.174389 
L 110.040246 -195.174389 
L 109.58193 -195.174389 
L 109.123614 -195.174389 
L 108.665298 -195.174389 
L 108.206982 -195.174389 
L 107.748665 -195.174389 
L 107.290349 -195.174389 
L 106.832033 -195.174389 
L 106.373717 -195.174389 
L 105.9154 -195.174389 
L 105.457084 -195.174389 
L 104.998768 -195.174389 
L 104.540452 -195.174389 
L 104.082136 -195.174389 
L 103.623819 -195.174389 
L 103.165503 -195.174389 
L 102.707187 -195.174389 
L 102.248871 -195.174389 
L 101.790554 -195.174389 
L 101.332238 -195.174389 
L 100.873922 -195.174389 
L 100.415606 -195.174389 
L 99.95729 -195.174389 
L 99.498973 -195.174389 
L 99.040657 -195.174389 
L 98.582341 -195.174389 
L 98.124025 -195.174389 
L 97.665708 -195.174389 
L 97.207392 -195.174389 
L 96.749076 -195.174389 
L 96.29076 -195.174389 
L 95.832444 -195.174389 
L 95.374127 -195.174389 
L 94.915811 -195.174389 
L 94.457495 -195.174389 
L 93.999179 -195.174389 
L 93.540862 -195.174389 
L 93.082546 -195.174389 
L 92.62423 -195.174389 
L 92.165914 -195.174389 
L 91.707598 -195.174389 
L 91.249281 -195.174389 
L 90.790965 -195.174389 
L 90.332649 -195.174389 
L 89.874333 -195.174389 
L 89.416016 -195.174389 
L 88.9577 -195.174389 
L 88.499384 -195.174389 
L 88.041068 -195.174389 
L 87.582752 -195.174389 
L 87.124435 -195.174389 
L 86.666119 -195.174389 
L 86.207803 -195.174389 
L 85.749487 -195.174389 
L 85.29117 -195.174389 
L 84.832854 -195.174389 
L 84.374538 -195.174389 
L 83.916222 -195.174389 
L 83.457906 -195.174389 
L 82.999589 -195.174389 
L 82.541273 -195.174389 
L 82.082957 -195.174389 
L 81.624641 -195.174389 
L 81.166324 -195.174389 
L 80.708008 -195.174389 
L 80.249692 -195.174389 
L 79.791376 -195.174389 
L 79.33306 -195.174389 
L 78.874743 -195.174389 
L 78.416427 -195.174389 
L 77.958111 -195.174389 
L 77.499795 -195.174389 
L 77.041478 -195.174389 
L 76.583162 -195.174389 
L 76.124846 -195.174389 
L 75.66653 -195.174389 
L 75.208214 -195.174389 
L 74.749897 -195.174389 
L 74.291581 -195.174389 
L 73.833265 -195.174389 
L 73.374949 -195.174389 
L 72.916632 -195.174389 
L 72.458316 -195.174389 
L 72 -195.174389 
z
" id="ma2ced20a33"/>
    </defs>
    <g clip-path="url(#p37cba569e7)">
     <use style="fill-opacity:0.15;" x="0" xlink:href="#ma2ced20a33" y="360"/>
    </g>
   </g>
   <g id="matplotlib.axis_1">
    <g id="xtick_1">
     <g id="line2d_1">
      <defs>
       <path d="M 0 0 
L 0 3.5 
" id="mb8741bf780" style="stroke:#000000;stroke-width:0.8;"/>
      </defs>
      <g>
       <use style="stroke:#000000;stroke-width:0.8;" x="72" xlink:href="#mb8741bf780" y="320.4"/>
      </g>
     </g>
     <g id="text_1">
      <!-- 0.0 -->
      <g transform="translate(60.867812 338.037813)scale(0.14 -0.14)">
       <defs>
        <path d="M 2034 4250 
Q 1547 4250 1301 3770 
Q 1056 3291 1056 2328 
Q 1056 1369 1301 889 
Q 1547 409 2034 409 
Q 2525 409 2770 889 
Q 3016 1369 3016 2328 
Q 3016 3291 2770 3770 
Q 2525 4250 2034 4250 
z
M 2034 4750 
Q 2819 4750 3233 4129 
Q 3647 3509 3647 2328 
Q 3647 1150 3233 529 
Q 2819 -91 2034 -91 
Q 1250 -91 836 529 
Q 422 1150 422 2328 
Q 422 3509 836 4129 
Q 1250 4750 2034 4750 
z
" id="DejaVuSans-30" transform="scale(0.015625)"/>
        <path d="M 684 794 
L 1344 794 
L 1344 0 
L 684 0 
L 684 794 
z
" id="DejaVuSans-2e" transform="scale(0.015625)"/>
       </defs>
       <use xlink:href="#DejaVuSans-30"/>
       <use x="63.623047" xlink:href="#DejaVuSans-2e"/>
       <use x="95.410156" xlink:href="#DejaVuSans-30"/>
      </g>
     </g>
    </g>
    <g id="xtick_2">
     <g id="line2d_2">
      <g>
       <use style="stroke:#000000;stroke-width:0.8;" x="127.811162" xlink:href="#mb8741bf780" y="320.4"/>
      </g>
     </g>
     <g id="text_2">
      <!-- 2.5 -->
      <g transform="translate(116.678975 338.037813)scale(0.14 -0.14)">
       <defs>
        <path d="M 1228 531 
L 3431 531 
L 3431 0 
L 469 0 
L 469 531 
Q 828 903 1448 1529 
Q 2069 2156 2228 2338 
Q 2531 2678 2651 2914 
Q 2772 3150 2772 3378 
Q 2772 3750 2511 3984 
Q 2250 4219 1831 4219 
Q 1534 4219 1204 4116 
Q 875 4013 500 3803 
L 500 4441 
Q 881 4594 1212 4672 
Q 1544 4750 1819 4750 
Q 2544 4750 2975 4387 
Q 3406 4025 3406 3419 
Q 3406 3131 3298 2873 
Q 3191 2616 2906 2266 
Q 2828 2175 2409 1742 
Q 1991 1309 1228 531 
z
" id="DejaVuSans-32" transform="scale(0.015625)"/>
        <path d="M 691 4666 
L 3169 4666 
L 3169 4134 
L 1269 4134 
L 1269 2991 
Q 1406 3038 1543 3061 
Q 1681 3084 1819 3084 
Q 2600 3084 3056 2656 
Q 3513 2228 3513 1497 
Q 3513 744 3044 326 
Q 2575 -91 1722 -91 
Q 1428 -91 1123 -41 
Q 819 9 494 109 
L 494 744 
Q 775 591 1075 516 
Q 1375 441 1709 441 
Q 2250 441 2565 725 
Q 2881 1009 2881 1497 
Q 2881 1984 2565 2268 
Q 2250 2553 1709 2553 
Q 1456 2553 1204 2497 
Q 953 2441 691 2322 
L 691 4666 
z
" id="DejaVuSans-35" transform="scale(0.015625)"/>
       </defs>
       <use xlink:href="#DejaVuSans-32"/>
       <use x="63.623047" xlink:href="#DejaVuSans-2e"/>
       <use x="95.410156" xlink:href="#DejaVuSans-35"/>
      </g>
     </g>
    </g>
    <g id="xtick_3">
     <g id="line2d_3">
      <g>
       <use style="stroke:#000000;stroke-width:0.8;" x="183.622324" xlink:href="#mb8741bf780" y="320.4"/>
      </g>
     </g>
     <g id="text_3">
      <!-- 5.0 -->
      <g transform="translate(172.490137 338.037813)scale(0.14 -0.14)">
       <use xlink:href="#DejaVuSans-35"/>
       <use x="63.623047" xlink:href="#DejaVuSans-2e"/>
       <use x="95.410156" xlink:href="#DejaVuSans-30"/>
      </g>
     </g>
    </g>
    <g id="xtick_4">
     <g id="line2d_4">
      <g>
       <use style="stroke:#000000;stroke-width:0.8;" x="239.433487" xlink:href="#mb8741bf780" y="320.4"/>
      </g>
     </g>
     <g id="text_4">
      <!-- 7.5 -->
      <g transform="translate(228.301299 338.037813)scale(0.14 -0.14)">
       <defs>
        <path d="M 525 4666 
L 3525 4666 
L 3525 4397 
L 1831 0 
L 1172 0 
L 2766 4134 
L 525 4134 
L 525 4666 
z
" id="DejaVuSans-37" transform="scale(0.015625)"/>
       </defs>
       <use xlink:href="#DejaVuSans-37"/>
       <use x="63.623047" xlink:href="#DejaVuSans-2e"/>
       <use x="95.410156" xlink:href="#DejaVuSans-35"/>
      </g>
     </g>
    </g>
    <g id="xtick_5">
     <g id="line2d_5">
      <g>
       <use style="stroke:#000000;stroke-width:0.8;" x="295.244649" xlink:href="#mb8741bf780" y="320.4"/>
      </g>
     </g>
     <g id="text_5">
      <!-- 10.0 -->
      <g transform="translate(279.658711 338.037813)scale(0.14 -0.14)">
       <defs>
        <path d="M 794 531 
L 1825 531 
L 1825 4091 
L 703 3866 
L 703 4441 
L 1819 4666 
L 2450 4666 
L 2450 531 
L 3481 531 
L 3481 0 
L 794 0 
L 794 531 
z
" id="DejaVuSans-31" transform="scale(0.015625)"/>
       </defs>
       <use xlink:href="#DejaVuSans-31"/>
       <use x="63.623047" xlink:href="#DejaVuSans-30"/>
       <use x="127.246094" xlink:href="#DejaVuSans-2e"/>
       <use x="159.033203" xlink:href="#DejaVuSans-30"/>
      </g>
     </g>
    </g>
    <g id="xtick_6">
     <g id="line2d_6">
      <g>
       <use style="stroke:#000000;stroke-width:0.8;" x="351.055811" xlink:href="#mb8741bf780" y="320.4"/>
      </g>
     </g>
     <g id="text_6">
      <!-- 12.5 -->
      <g transform="translate(335.469874 338.037813)scale(0.14 -0.14)">
       <use xlink:href="#DejaVuSans-31"/>
       <use x="63.623047" xlink:href="#DejaVuSans-32"/>
       <use x="127.246094" xlink:href="#DejaVuSans-2e"/>
       <use x="159.033203" xlink:href="#DejaVuSans-35"/>
      </g>
     </g>
    </g>
    <g id="xtick_7">
     <g id="line2d_7">
      <g>
       <use style="stroke:#000000;stroke-width:0.8;" x="406.866973" xlink:href="#mb8741bf780" y="320.4"/>
      </g>
     </g>
     <g id="text_7">
      <!-- 15.0 -->
      <g transform="translate(391.281036 338.037813)scale(0.14 -0.14)">
       <use xlink:href="#DejaVuSans-31"/>
       <use x="63.623047" xlink:href="#DejaVuSans-35"/>
       <use x="127.246094" xlink:href="#DejaVuSans-2e"/>
       <use x="159.033203" xlink:href="#DejaVuSans-30"/>
      </g>
     </g>
    </g>
    <g id="xtick_8">
     <g id="line2d_8">
      <g>
       <use style="stroke:#000000;stroke-width:0.8;" x="462.678136" xlink:href="#mb8741bf780" y="320.4"/>
      </g>
     </g>
     <g id="text_8">
      <!-- 17.5 -->
      <g transform="translate(447.092198 338.037813)scale(0.14 -0.14)">
       <use xlink:href="#DejaVuSans-31"/>
       <use x="63.623047" xlink:href="#DejaVuSans-37"/>
       <use x="127.246094" xlink:href="#DejaVuSans-2e"/>
       <use x="159.033203" xlink:href="#DejaVuSans-35"/>
      </g>
     </g>
    </g>
    <g id="text_9">
     <!-- Time [Seconds] -->
     <g transform="translate(233.23 357.106875)scale(0.16 -0.16)">
      <defs>
       <path d="M -19 4666 
L 3928 4666 
L 3928 4134 
L 2272 4134 
L 2272 0 
L 1638 0 
L 1638 4134 
L -19 4134 
L -19 4666 
z
" id="DejaVuSans-54" transform="scale(0.015625)"/>
       <path d="M 603 3500 
L 1178 3500 
L 1178 0 
L 603 0 
L 603 3500 
z
M 603 4863 
L 1178 4863 
L 1178 4134 
L 603 4134 
L 603 4863 
z
" id="DejaVuSans-69" transform="scale(0.015625)"/>
       <path d="M 3328 2828 
Q 3544 3216 3844 3400 
Q 4144 3584 4550 3584 
Q 5097 3584 5394 3201 
Q 5691 2819 5691 2113 
L 5691 0 
L 5113 0 
L 5113 2094 
Q 5113 2597 4934 2840 
Q 4756 3084 4391 3084 
Q 3944 3084 3684 2787 
Q 3425 2491 3425 1978 
L 3425 0 
L 2847 0 
L 2847 2094 
Q 2847 2600 2669 2842 
Q 2491 3084 2119 3084 
Q 1678 3084 1418 2786 
Q 1159 2488 1159 1978 
L 1159 0 
L 581 0 
L 581 3500 
L 1159 3500 
L 1159 2956 
Q 1356 3278 1631 3431 
Q 1906 3584 2284 3584 
Q 2666 3584 2933 3390 
Q 3200 3197 3328 2828 
z
" id="DejaVuSans-6d" transform="scale(0.015625)"/>
       <path d="M 3597 1894 
L 3597 1613 
L 953 1613 
Q 991 1019 1311 708 
Q 1631 397 2203 397 
Q 2534 397 2845 478 
Q 3156 559 3463 722 
L 3463 178 
Q 3153 47 2828 -22 
Q 2503 -91 2169 -91 
Q 1331 -91 842 396 
Q 353 884 353 1716 
Q 353 2575 817 3079 
Q 1281 3584 2069 3584 
Q 2775 3584 3186 3129 
Q 3597 2675 3597 1894 
z
M 3022 2063 
Q 3016 2534 2758 2815 
Q 2500 3097 2075 3097 
Q 1594 3097 1305 2825 
Q 1016 2553 972 2059 
L 3022 2063 
z
" id="DejaVuSans-65" transform="scale(0.015625)"/>
       <path id="DejaVuSans-20" transform="scale(0.015625)"/>
       <path d="M 550 4863 
L 1875 4863 
L 1875 4416 
L 1125 4416 
L 1125 -397 
L 1875 -397 
L 1875 -844 
L 550 -844 
L 550 4863 
z
" id="DejaVuSans-5b" transform="scale(0.015625)"/>
       <path d="M 3425 4513 
L 3425 3897 
Q 3066 4069 2747 4153 
Q 2428 4238 2131 4238 
Q 1616 4238 1336 4038 
Q 1056 3838 1056 3469 
Q 1056 3159 1242 3001 
Q 1428 2844 1947 2747 
L 2328 2669 
Q 3034 2534 3370 2195 
Q 3706 1856 3706 1288 
Q 3706 609 3251 259 
Q 2797 -91 1919 -91 
Q 1588 -91 1214 -16 
Q 841 59 441 206 
L 441 856 
Q 825 641 1194 531 
Q 1563 422 1919 422 
Q 2459 422 2753 634 
Q 3047 847 3047 1241 
Q 3047 1584 2836 1778 
Q 2625 1972 2144 2069 
L 1759 2144 
Q 1053 2284 737 2584 
Q 422 2884 422 3419 
Q 422 4038 858 4394 
Q 1294 4750 2059 4750 
Q 2388 4750 2728 4690 
Q 3069 4631 3425 4513 
z
" id="DejaVuSans-53" transform="scale(0.015625)"/>
       <path d="M 3122 3366 
L 3122 2828 
Q 2878 2963 2633 3030 
Q 2388 3097 2138 3097 
Q 1578 3097 1268 2742 
Q 959 2388 959 1747 
Q 959 1106 1268 751 
Q 1578 397 2138 397 
Q 2388 397 2633 464 
Q 2878 531 3122 666 
L 3122 134 
Q 2881 22 2623 -34 
Q 2366 -91 2075 -91 
Q 1284 -91 818 406 
Q 353 903 353 1747 
Q 353 2603 823 3093 
Q 1294 3584 2113 3584 
Q 2378 3584 2631 3529 
Q 2884 3475 3122 3366 
z
" id="DejaVuSans-63" transform="scale(0.015625)"/>
       <path d="M 1959 3097 
Q 1497 3097 1228 2736 
Q 959 2375 959 1747 
Q 959 1119 1226 758 
Q 1494 397 1959 397 
Q 2419 397 2687 759 
Q 2956 1122 2956 1747 
Q 2956 2369 2687 2733 
Q 2419 3097 1959 3097 
z
M 1959 3584 
Q 2709 3584 3137 3096 
Q 3566 2609 3566 1747 
Q 3566 888 3137 398 
Q 2709 -91 1959 -91 
Q 1206 -91 779 398 
Q 353 888 353 1747 
Q 353 2609 779 3096 
Q 1206 3584 1959 3584 
z
" id="DejaVuSans-6f" transform="scale(0.015625)"/>
       <path d="M 3513 2113 
L 3513 0 
L 2938 0 
L 2938 2094 
Q 2938 2591 2744 2837 
Q 2550 3084 2163 3084 
Q 1697 3084 1428 2787 
Q 1159 2491 1159 1978 
L 1159 0 
L 581 0 
L 581 3500 
L 1159 3500 
L 1159 2956 
Q 1366 3272 1645 3428 
Q 1925 3584 2291 3584 
Q 2894 3584 3203 3211 
Q 3513 2838 3513 2113 
z
" id="DejaVuSans-6e" transform="scale(0.015625)"/>
       <path d="M 2906 2969 
L 2906 4863 
L 3481 4863 
L 3481 0 
L 2906 0 
L 2906 525 
Q 2725 213 2448 61 
Q 2172 -91 1784 -91 
Q 1150 -91 751 415 
Q 353 922 353 1747 
Q 353 2572 751 3078 
Q 1150 3584 1784 3584 
Q 2172 3584 2448 3432 
Q 2725 3281 2906 2969 
z
M 947 1747 
Q 947 1113 1208 752 
Q 1469 391 1925 391 
Q 2381 391 2643 752 
Q 2906 1113 2906 1747 
Q 2906 2381 2643 2742 
Q 2381 3103 1925 3103 
Q 1469 3103 1208 2742 
Q 947 2381 947 1747 
z
" id="DejaVuSans-64" transform="scale(0.015625)"/>
       <path d="M 2834 3397 
L 2834 2853 
Q 2591 2978 2328 3040 
Q 2066 3103 1784 3103 
Q 1356 3103 1142 2972 
Q 928 2841 928 2578 
Q 928 2378 1081 2264 
Q 1234 2150 1697 2047 
L 1894 2003 
Q 2506 1872 2764 1633 
Q 3022 1394 3022 966 
Q 3022 478 2636 193 
Q 2250 -91 1575 -91 
Q 1294 -91 989 -36 
Q 684 19 347 128 
L 347 722 
Q 666 556 975 473 
Q 1284 391 1588 391 
Q 1994 391 2212 530 
Q 2431 669 2431 922 
Q 2431 1156 2273 1281 
Q 2116 1406 1581 1522 
L 1381 1569 
Q 847 1681 609 1914 
Q 372 2147 372 2553 
Q 372 3047 722 3315 
Q 1072 3584 1716 3584 
Q 2034 3584 2315 3537 
Q 2597 3491 2834 3397 
z
" id="DejaVuSans-73" transform="scale(0.015625)"/>
       <path d="M 1947 4863 
L 1947 -844 
L 622 -844 
L 622 -397 
L 1369 -397 
L 1369 4416 
L 622 4416 
L 622 4863 
L 1947 4863 
z
" id="DejaVuSans-5d" transform="scale(0.015625)"/>
      </defs>
      <use xlink:href="#DejaVuSans-54"/>
      <use x="57.958984" xlink:href="#DejaVuSans-69"/>
      <use x="85.742188" xlink:href="#DejaVuSans-6d"/>
      <use x="183.154297" xlink:href="#DejaVuSans-65"/>
      <use x="244.677734" xlink:href="#DejaVuSans-20"/>
      <use x="276.464844" xlink:href="#DejaVuSans-5b"/>
      <use x="315.478516" xlink:href="#DejaVuSans-53"/>
      <use x="378.955078" xlink:href="#DejaVuSans-65"/>
      <use x="440.478516" xlink:href="#DejaVuSans-63"/>
      <use x="495.458984" xlink:href="#DejaVuSans-6f"/>
      <use x="556.640625" xlink:href="#DejaVuSans-6e"/>
      <use x="620.019531" xlink:href="#DejaVuSans-64"/>
      <use x="683.496094" xlink:href="#DejaVuSans-73"/>
      <use x="735.595703" xlink:href="#DejaVuSans-5d"/>
     </g>
    </g>
   </g>
   <g id="matplotlib.axis_2">
    <g id="ytick_1">
     <g id="line2d_9">
      <defs>
       <path d="M 0 0 
L -3.5 0 
" id="mfbc99095c2" style="stroke:#000000;stroke-width:0.8;"/>
      </defs>
      <g>
       <use style="stroke:#000000;stroke-width:0.8;" x="72" xlink:href="#mfbc99095c2" y="285.638702"/>
      </g>
     </g>
     <g id="text_10">
      <!-- 0.0 -->
      <g transform="translate(42.735625 290.957608)scale(0.14 -0.14)">
       <use xlink:href="#DejaVuSans-30"/>
       <use x="63.623047" xlink:href="#DejaVuSans-2e"/>
       <use x="95.410156" xlink:href="#DejaVuSans-30"/>
      </g>
     </g>
    </g>
    <g id="ytick_2">
     <g id="line2d_10">
      <g>
       <use style="stroke:#000000;stroke-width:0.8;" x="72" xlink:href="#mfbc99095c2" y="230.595811"/>
      </g>
     </g>
     <g id="text_11">
      <!-- 0.5 -->
      <g transform="translate(42.735625 235.914718)scale(0.14 -0.14)">
       <use xlink:href="#DejaVuSans-30"/>
       <use x="63.623047" xlink:href="#DejaVuSans-2e"/>
       <use x="95.410156" xlink:href="#DejaVuSans-35"/>
      </g>
     </g>
    </g>
    <g id="ytick_3">
     <g id="line2d_11">
      <g>
       <use style="stroke:#000000;stroke-width:0.8;" x="72" xlink:href="#mfbc99095c2" y="175.552921"/>
      </g>
     </g>
     <g id="text_12">
      <!-- 1.0 -->
      <g transform="translate(42.735625 180.871827)scale(0.14 -0.14)">
       <use xlink:href="#DejaVuSans-31"/>
       <use x="63.623047" xlink:href="#DejaVuSans-2e"/>
       <use x="95.410156" xlink:href="#DejaVuSans-30"/>
      </g>
     </g>
    </g>
    <g id="ytick_4">
     <g id="line2d_12">
      <g>
       <use style="stroke:#000000;stroke-width:0.8;" x="72" xlink:href="#mfbc99095c2" y="120.510031"/>
      </g>
     </g>
     <g id="text_13">
      <!-- 1.5 -->
      <g transform="translate(42.735625 125.828937)scale(0.14 -0.14)">
       <use xlink:href="#DejaVuSans-31"/>
       <use x="63.623047" xlink:href="#DejaVuSans-2e"/>
       <use x="95.410156" xlink:href="#DejaVuSans-35"/>
      </g>
     </g>
    </g>
    <g id="ytick_5">
     <g id="line2d_13">
      <g>
       <use style="stroke:#000000;stroke-width:0.8;" x="72" xlink:href="#mfbc99095c2" y="65.467141"/>
      </g>
     </g>
     <g id="text_14">
      <!-- 2.0 -->
      <g transform="translate(42.735625 70.786047)scale(0.14 -0.14)">
       <use xlink:href="#DejaVuSans-32"/>
       <use x="63.623047" xlink:href="#DejaVuSans-2e"/>
       <use x="95.410156" xlink:href="#DejaVuSans-30"/>
      </g>
     </g>
    </g>
    <g id="text_15">
     <!-- Speed [mm/s] -->
     <g transform="translate(35.408125 238.11375)rotate(-90)scale(0.16 -0.16)">
      <defs>
       <path d="M 1159 525 
L 1159 -1331 
L 581 -1331 
L 581 3500 
L 1159 3500 
L 1159 2969 
Q 1341 3281 1617 3432 
Q 1894 3584 2278 3584 
Q 2916 3584 3314 3078 
Q 3713 2572 3713 1747 
Q 3713 922 3314 415 
Q 2916 -91 2278 -91 
Q 1894 -91 1617 61 
Q 1341 213 1159 525 
z
M 3116 1747 
Q 3116 2381 2855 2742 
Q 2594 3103 2138 3103 
Q 1681 3103 1420 2742 
Q 1159 2381 1159 1747 
Q 1159 1113 1420 752 
Q 1681 391 2138 391 
Q 2594 391 2855 752 
Q 3116 1113 3116 1747 
z
" id="DejaVuSans-70" transform="scale(0.015625)"/>
       <path d="M 1625 4666 
L 2156 4666 
L 531 -594 
L 0 -594 
L 1625 4666 
z
" id="DejaVuSans-2f" transform="scale(0.015625)"/>
      </defs>
      <use xlink:href="#DejaVuSans-53"/>
      <use x="63.476562" xlink:href="#DejaVuSans-70"/>
      <use x="126.953125" xlink:href="#DejaVuSans-65"/>
      <use x="188.476562" xlink:href="#DejaVuSans-65"/>
      <use x="250" xlink:href="#DejaVuSans-64"/>
      <use x="313.476562" xlink:href="#DejaVuSans-20"/>
      <use x="345.263672" xlink:href="#DejaVuSans-5b"/>
      <use x="384.277344" xlink:href="#DejaVuSans-6d"/>
      <use x="481.689453" xlink:href="#DejaVuSans-6d"/>
      <use x="579.101562" xlink:href="#DejaVuSans-2f"/>
      <use x="612.792969" xlink:href="#DejaVuSans-73"/>
      <use x="664.892578" xlink:href="#DejaVuSans-5d"/>
     </g>
    </g>
   </g>
   <g id="line2d_14">
    <path clip-path="url(#p37cba569e7)" d="M 72 161.965391 
L 518.4 161.965391 
" style="fill:none;stroke:#000000;stroke-dasharray:5.55,2.4;stroke-dashoffset:0;stroke-width:1.5;"/>
   </g>
   <g id="line2d_15">
    <path clip-path="url(#p37cba569e7)" d="M 72 283.777048 
L 99.498973 283.733542 
L 99.95729 283.936636 
L 100.415606 283.215843 
L 100.873922 281.112496 
L 101.332238 280.006304 
L 101.790554 283.400125 
L 102.248871 285.175368 
L 102.707187 284.012733 
L 103.165503 284.644654 
L 103.623819 284.974638 
L 104.540452 286.009801 
L 104.998768 285.072382 
L 105.457084 280.479742 
L 105.9154 273.97046 
L 106.373717 272.018231 
L 106.832033 280.369761 
L 107.748665 299.33132 
L 108.206982 305.713 
L 108.665298 307.8 
L 109.123614 305.87863 
L 109.58193 301.447925 
L 110.040246 293.584138 
L 111.415195 254.666843 
L 113.24846 182.449575 
L 114.165092 145.378599 
L 115.540041 100.82784 
L 116.456674 77.798064 
L 117.373306 61.978688 
L 117.831622 58.592981 
L 118.289938 56.104767 
L 118.748255 55.8 
L 119.664887 60.892665 
L 120.58152 72.316288 
L 121.039836 80.098237 
L 121.956468 104.284173 
L 122.414784 111.9452 
L 122.873101 122.086177 
L 123.789733 151.069591 
L 124.248049 159.157844 
L 124.706366 164.421439 
L 125.164682 172.058416 
L 125.622998 174.341029 
L 126.081314 174.298516 
L 126.53963 171.192486 
L 126.997947 162.265444 
L 127.456263 150.216194 
L 127.914579 142.988441 
L 128.372895 143.483447 
L 128.831211 150.85983 
L 129.289528 155.74675 
L 129.747844 157.360131 
L 130.20616 158.04291 
L 130.664476 157.363746 
L 131.581109 159.586174 
L 132.039425 157.726746 
L 132.497741 157.935056 
L 132.956057 161.779552 
L 133.414374 160.024542 
L 133.87269 158.7517 
L 134.331006 160.175782 
L 134.789322 158.955795 
L 135.247639 156.40971 
L 135.705955 155.077233 
L 136.622587 159.049011 
L 137.080903 159.820717 
L 137.53922 160.003022 
L 137.997536 162.099982 
L 138.455852 162.43653 
L 138.914168 161.56025 
L 139.830801 164.601911 
L 140.289117 164.531381 
L 140.747433 164.994741 
L 141.205749 164.627732 
L 141.664066 164.594473 
L 142.122382 163.288234 
L 142.580698 159.884716 
L 143.039014 161.407517 
L 143.497331 164.547853 
L 143.955647 162.949363 
L 144.413963 159.323771 
L 144.872279 158.51003 
L 145.330595 158.343346 
L 145.788912 159.288298 
L 146.247228 159.155096 
L 146.705544 158.731078 
L 147.16386 158.674309 
L 147.622177 159.902845 
L 148.080493 160.158028 
L 148.538809 159.744339 
L 148.997125 159.783628 
L 149.455441 160.012635 
L 149.913758 161.709368 
L 150.372074 162.353457 
L 150.83039 163.546693 
L 151.288706 164.027846 
L 151.747023 164.241547 
L 152.205339 164.223217 
L 152.663655 162.11139 
L 153.121971 162.11235 
L 153.580287 161.842474 
L 154.038604 162.296159 
L 154.49692 163.907178 
L 154.955236 163.293017 
L 155.413552 161.596975 
L 155.871869 163.491686 
L 156.330185 164.827921 
L 156.788501 162.140776 
L 157.246817 158.693304 
L 157.705133 159.156535 
L 158.16345 162.202666 
L 158.621766 160.343574 
L 159.080082 160.925212 
L 159.538398 161.800063 
L 159.996715 161.994234 
L 160.455031 159.237246 
L 160.913347 158.169695 
L 161.371663 162.274764 
L 161.829979 163.088741 
L 162.288296 163.109709 
L 162.746612 163.67958 
L 163.204928 163.826479 
L 163.663244 164.731477 
L 164.579877 162.249003 
L 165.038193 163.660453 
L 165.496509 166.460823 
L 165.954825 166.936204 
L 166.413142 163.735008 
L 166.871458 161.841094 
L 167.78809 165.322791 
L 168.246407 165.967839 
L 168.704723 166.089615 
L 169.621355 164.292531 
L 170.079671 161.909171 
L 170.537988 162.048491 
L 170.996304 162.946976 
L 171.45462 162.237013 
L 171.912936 163.019591 
L 172.371253 164.151763 
L 172.829569 161.86945 
L 173.287885 161.603212 
L 173.746201 163.385289 
L 174.204517 161.313876 
L 174.662834 157.020507 
L 175.12115 158.184634 
L 175.579466 160.470688 
L 176.037782 159.910067 
L 176.496099 158.955078 
L 176.954415 158.654233 
L 177.412731 160.349852 
L 177.871047 159.888208 
L 178.78768 159.966396 
L 179.245996 160.695923 
L 179.704312 163.926977 
L 180.162628 164.365644 
L 180.620945 161.125743 
L 181.079261 161.663597 
L 181.537577 164.020221 
L 181.995893 164.17821 
L 182.454209 163.578731 
L 182.912526 164.229396 
L 183.370842 166.240741 
L 183.829158 166.066931 
L 184.287474 163.783978 
L 184.745791 162.880002 
L 185.204107 164.630377 
L 185.662423 165.167821 
L 186.120739 164.326738 
L 186.579055 161.135922 
L 187.037372 161.825509 
L 187.495688 165.513091 
L 188.41232 158.961647 
L 188.870637 160.351657 
L 189.328953 163.058977 
L 189.787269 164.250511 
L 190.703901 161.123753 
L 191.162218 161.573637 
L 191.620534 160.065584 
L 192.07885 159.952729 
L 192.537166 162.553991 
L 192.995483 162.865344 
L 193.453799 161.014549 
L 193.912115 161.125603 
L 194.370431 162.32787 
L 194.828747 161.527011 
L 195.287064 163.255748 
L 195.74538 163.966904 
L 196.203696 160.885378 
L 196.662012 159.328475 
L 197.120329 161.970502 
L 197.578645 162.582881 
L 198.036961 161.826307 
L 198.495277 161.574255 
L 198.953593 161.641738 
L 199.41191 162.05501 
L 199.870226 160.399114 
L 200.328542 159.726119 
L 200.786858 161.334999 
L 201.245175 161.914658 
L 201.703491 160.620253 
L 202.161807 161.27655 
L 202.620123 160.177088 
L 203.078439 159.624216 
L 203.536756 162.871934 
L 203.995072 164.450279 
L 204.453388 162.031125 
L 204.911704 160.560516 
L 205.828337 164.103168 
L 206.286653 161.275766 
L 206.744969 160.925031 
L 207.203285 165.102863 
L 207.661602 165.083116 
L 208.578234 161.781138 
L 209.03655 162.727109 
L 209.494867 161.677536 
L 209.953183 158.773116 
L 210.411499 160.537805 
L 210.869815 163.411595 
L 211.328131 165.241493 
L 211.786448 164.285122 
L 212.244764 160.161863 
L 212.70308 161.298771 
L 213.161396 165.395465 
L 213.619713 162.059034 
L 214.078029 162.084369 
L 214.536345 164.818475 
L 215.452977 160.88699 
L 215.911294 160.783122 
L 216.36961 162.386005 
L 216.827926 162.979805 
L 217.286242 162.740147 
L 217.744559 163.748737 
L 218.202875 162.227311 
L 218.661191 161.844051 
L 219.119507 163.671127 
L 219.577823 162.46575 
L 220.03614 162.016031 
L 220.494456 164.302946 
L 220.952772 165.598586 
L 221.869405 163.420031 
L 222.327721 161.394425 
L 222.786037 162.473153 
L 223.244353 162.84408 
L 223.702669 162.610173 
L 224.160986 162.920611 
L 224.619302 161.079231 
L 225.077618 161.211832 
L 225.535934 162.870869 
L 225.994251 163.556009 
L 226.452567 160.733106 
L 226.910883 161.466474 
L 227.369199 162.731236 
L 228.285832 159.965501 
L 228.744148 161.568719 
L 229.202464 164.91932 
L 229.66078 165.471359 
L 230.577413 162.82678 
L 231.035729 161.461808 
L 231.494045 159.246724 
L 231.952361 160.141213 
L 232.868994 164.359225 
L 233.32731 164.932193 
L 234.243943 161.425149 
L 235.160575 163.269455 
L 235.618891 159.961945 
L 236.077207 159.813111 
L 236.535524 162.161361 
L 236.99384 161.92074 
L 237.452156 161.377368 
L 237.910472 158.570039 
L 238.368789 159.789866 
L 238.827105 162.473788 
L 239.285421 161.057914 
L 239.743737 161.103169 
L 240.202053 162.130896 
L 240.66037 162.285202 
L 241.118686 161.909152 
L 241.577002 159.741145 
L 242.035318 160.646452 
L 242.493634 163.526063 
L 242.951951 161.902752 
L 243.410267 162.399025 
L 243.868583 164.198805 
L 244.326899 163.735881 
L 244.785216 163.649258 
L 245.243532 163.893312 
L 245.701848 161.335542 
L 246.160164 161.414378 
L 246.61848 162.811334 
L 247.076797 161.737766 
L 247.535113 162.447122 
L 248.451745 162.77617 
L 248.910062 163.411014 
L 249.826694 160.386947 
L 250.28501 160.343459 
L 250.743326 161.347878 
L 251.659959 164.286468 
L 252.118275 163.252186 
L 252.576591 161.30731 
L 253.034908 160.605891 
L 253.493224 158.575247 
L 253.95154 160.250758 
L 254.409856 162.910153 
L 254.868172 163.10001 
L 255.326489 161.75145 
L 255.784805 159.789418 
L 256.243121 161.555588 
L 256.701437 162.835454 
L 257.159754 162.999774 
L 257.61807 160.308216 
L 258.076386 160.09323 
L 258.534702 164.572168 
L 258.993018 165.36556 
L 259.909651 160.273132 
L 260.367967 163.562886 
L 260.826283 165.404484 
L 261.2846 161.219856 
L 261.742916 161.340763 
L 262.201232 164.135486 
L 262.659548 163.591966 
L 263.117864 163.923273 
L 263.576181 161.279877 
L 264.034497 161.624727 
L 264.492813 163.775607 
L 264.951129 161.478036 
L 265.409446 161.898378 
L 265.867762 163.243489 
L 266.784394 161.707621 
L 267.24271 162.457232 
L 267.701027 160.842118 
L 268.159343 159.910644 
L 268.617659 159.341919 
L 269.075975 160.540202 
L 269.534292 161.216883 
L 269.992608 159.747982 
L 270.450924 162.039705 
L 270.90924 163.17444 
L 271.367556 160.163823 
L 271.825873 159.198568 
L 272.284189 161.028888 
L 272.742505 161.617454 
L 273.659138 163.171606 
L 274.117454 162.544822 
L 274.57577 160.462705 
L 275.034086 160.174995 
L 275.492402 161.843028 
L 275.950719 164.12422 
L 276.409035 163.798546 
L 276.867351 162.14643 
L 277.325667 161.412984 
L 277.783984 162.27577 
L 278.2423 164.257432 
L 278.700616 163.840187 
L 279.617248 162.271446 
L 280.075565 162.076637 
L 280.533881 163.506333 
L 280.992197 164.252759 
L 281.450513 162.350069 
L 282.367146 166.724445 
L 282.825462 164.637611 
L 283.283778 164.156695 
L 283.742094 164.610387 
L 284.200411 165.335832 
L 284.658727 163.881117 
L 285.117043 162.808562 
L 285.575359 161.183016 
L 286.491992 164.435904 
L 286.950308 159.578956 
L 287.408624 159.023608 
L 287.86694 161.148027 
L 288.325257 161.198701 
L 288.783573 162.070481 
L 289.241889 161.969318 
L 289.700205 161.348137 
L 290.158522 161.168608 
L 290.616838 160.533752 
L 291.075154 160.97932 
L 291.53347 159.496161 
L 291.991786 158.690544 
L 292.450103 160.648572 
L 292.908419 160.61967 
L 293.366735 158.65987 
L 293.825051 159.023042 
L 294.283368 159.792362 
L 294.741684 159.501069 
L 295.2 160.844183 
L 295.658316 161.415583 
L 296.574949 163.139807 
L 297.033265 162.93679 
L 297.491581 165.14635 
L 297.949897 165.580941 
L 298.408214 163.775464 
L 298.86653 163.562455 
L 299.324846 163.046924 
L 299.783162 162.870607 
L 300.241478 161.543307 
L 301.158111 162.748762 
L 301.616427 161.794806 
L 302.074743 159.240157 
L 302.53306 159.371042 
L 302.991376 162.486115 
L 303.449692 163.106557 
L 303.908008 164.717568 
L 304.366324 163.996177 
L 304.824641 164.329989 
L 305.282957 166.276902 
L 305.741273 164.378703 
L 306.199589 163.54449 
L 306.657906 163.310007 
L 307.574538 163.598309 
L 308.032854 162.352374 
L 308.49117 160.281172 
L 308.949487 157.331311 
L 309.866119 162.121713 
L 310.324435 160.13966 
L 310.782752 159.793058 
L 311.241068 161.096794 
L 311.699384 163.462359 
L 312.1577 164.026465 
L 312.616016 161.796358 
L 313.074333 162.340525 
L 313.532649 161.986422 
L 313.990965 160.285478 
L 314.449281 160.188784 
L 315.365914 156.88068 
L 315.82423 157.589149 
L 316.282546 159.742612 
L 316.740862 162.499767 
L 317.199179 163.867174 
L 317.657495 162.580788 
L 318.115811 162.760358 
L 318.574127 164.405548 
L 319.032444 162.910776 
L 319.49076 165.918002 
L 319.949076 167.92141 
L 320.407392 165.617099 
L 320.865708 165.03088 
L 322.698973 161.403014 
L 323.15729 161.358914 
L 323.615606 161.837985 
L 324.073922 158.594904 
L 324.532238 158.492589 
L 324.990554 161.035423 
L 325.448871 160.952998 
L 325.907187 162.3054 
L 326.365503 162.538967 
L 326.823819 162.133187 
L 327.282136 162.836682 
L 327.740452 163.980662 
L 328.198768 165.750599 
L 328.657084 165.537456 
L 329.1154 163.597722 
L 329.573717 160.308105 
L 330.032033 159.177428 
L 330.490349 159.599769 
L 330.948665 160.180987 
L 331.406982 163.280369 
L 331.865298 163.615049 
L 332.323614 159.576998 
L 332.78193 159.528817 
L 333.240246 162.188752 
L 333.698563 163.190194 
L 334.156879 163.660534 
L 334.615195 163.680921 
L 335.073511 163.358563 
L 336.906776 158.298795 
L 338.740041 161.777098 
L 339.198357 159.459187 
L 339.656674 157.982392 
L 341.489938 167.588075 
L 341.948255 166.927262 
L 342.406571 165.15084 
L 342.864887 164.333693 
L 344.239836 163.128613 
L 344.698152 161.461172 
L 345.156468 162.587591 
L 345.614784 162.099835 
L 346.073101 159.011968 
L 346.989733 162.969663 
L 347.448049 163.420178 
L 347.906366 164.212397 
L 348.364682 163.476217 
L 348.822998 163.523724 
L 349.281314 165.595489 
L 349.73963 166.646272 
L 350.197947 165.577336 
L 350.656263 163.041823 
L 351.114579 161.439109 
L 351.572895 158.717191 
L 352.031211 159.376675 
L 352.489528 160.40197 
L 352.947844 159.976863 
L 353.40616 159.994929 
L 353.864476 158.365755 
L 354.322793 157.458341 
L 354.781109 158.566239 
L 355.239425 160.970756 
L 356.156057 163.235615 
L 356.614374 165.352482 
L 357.07269 165.100239 
L 357.531006 163.010681 
L 357.989322 162.531723 
L 358.447639 161.788749 
L 358.905955 161.481126 
L 359.822587 158.222 
L 360.280903 160.405937 
L 360.73922 160.566443 
L 361.197536 159.757069 
L 362.114168 163.459463 
L 362.572485 164.376268 
L 363.030801 165.5505 
L 363.489117 165.286608 
L 363.947433 164.331956 
L 364.405749 165.328239 
L 364.864066 164.953686 
L 365.322382 163.498075 
L 365.780698 161.18557 
L 366.239014 160.445414 
L 366.697331 160.586987 
L 367.155647 158.37481 
L 368.072279 157.295687 
L 368.530595 157.511825 
L 368.988912 159.151248 
L 369.905544 160.72445 
L 371.280493 164.569511 
L 372.197125 165.208642 
L 372.655441 164.982074 
L 374.03039 160.930971 
L 374.488706 161.286829 
L 374.947023 161.019507 
L 375.405339 159.066451 
L 375.863655 160.212672 
L 376.321971 160.949074 
L 376.780287 160.01341 
L 377.238604 161.20321 
L 377.69692 162.819935 
L 378.155236 163.697927 
L 378.613552 166.434832 
L 379.071869 166.686106 
L 379.530185 164.533512 
L 379.988501 163.722977 
L 380.446817 162.190038 
L 381.821766 159.098584 
L 382.280082 159.683217 
L 383.196715 161.18911 
L 383.655031 162.299734 
L 384.113347 163.065138 
L 384.571663 163.393772 
L 385.029979 164.033243 
L 385.488296 165.094916 
L 385.946612 165.690709 
L 386.404928 167.431038 
L 386.863244 166.867792 
L 387.321561 162.850413 
L 387.779877 160.946558 
L 388.238193 163.385632 
L 388.696509 163.10885 
L 389.154825 160.191098 
L 389.613142 160.453542 
L 390.071458 157.554374 
L 390.529774 156.357703 
L 390.98809 158.144837 
L 391.446407 158.386953 
L 391.904723 159.206076 
L 392.363039 161.31222 
L 392.821355 162.426693 
L 393.279671 161.809596 
L 393.737988 162.307691 
L 394.196304 163.067651 
L 395.571253 159.752211 
L 396.029569 158.243654 
L 396.487885 162.743861 
L 396.946201 163.23222 
L 397.404517 161.134629 
L 397.862834 162.310429 
L 398.32115 162.794484 
L 398.779466 163.960803 
L 399.696099 164.824224 
L 400.154415 164.830617 
L 400.612731 166.088953 
L 401.071047 165.618698 
L 401.529363 163.854705 
L 401.98768 163.230117 
L 402.445996 162.952775 
L 402.904312 162.080966 
L 403.362628 160.47542 
L 403.820945 160.093218 
L 404.279261 161.919967 
L 404.737577 161.348 
L 405.195893 160.502515 
L 405.654209 162.011982 
L 406.112526 162.101439 
L 407.029158 165.293634 
L 407.487474 165.094208 
L 407.945791 164.51878 
L 408.404107 164.615755 
L 408.862423 163.330386 
L 409.320739 160.965009 
L 409.779055 161.83613 
L 410.237372 163.400334 
L 411.154004 160.547117 
L 411.61232 159.930151 
L 412.070637 159.858086 
L 412.528953 161.2857 
L 412.987269 161.102867 
L 413.445585 161.591582 
L 413.903901 163.327651 
L 414.362218 164.430969 
L 414.820534 164.897061 
L 415.737166 162.197577 
L 416.195483 163.33434 
L 416.653799 163.197285 
L 417.570431 159.494555 
L 418.487064 160.075936 
L 418.94538 158.429196 
L 419.403696 159.054783 
L 419.862012 161.671346 
L 420.320329 162.90565 
L 420.778645 161.782997 
L 421.236961 161.429457 
L 421.695277 161.7007 
L 422.153593 162.93937 
L 422.61191 163.692035 
L 423.070226 162.936286 
L 423.528542 160.434182 
L 423.986858 160.277756 
L 424.445175 161.530731 
L 424.903491 159.749783 
L 425.361807 159.320058 
L 425.820123 160.741694 
L 426.736756 157.053663 
L 427.195072 159.708138 
L 427.653388 160.746821 
L 428.570021 164.949418 
L 429.944969 163.536669 
L 430.861602 166.080992 
L 431.319918 163.940565 
L 431.778234 163.191869 
L 432.23655 163.901703 
L 432.694867 162.503112 
L 433.153183 160.5363 
L 433.611499 159.979007 
L 434.069815 161.239701 
L 434.528131 161.424722 
L 434.986448 160.228376 
L 435.444764 159.966033 
L 435.90308 162.44157 
L 436.361396 162.671388 
L 436.819713 163.103482 
L 437.736345 160.124828 
L 438.194661 164.388724 
L 438.652977 163.584326 
L 439.111294 160.983576 
L 439.56961 162.639794 
L 440.027926 162.116211 
L 440.486242 160.176804 
L 441.402875 158.87679 
L 441.861191 160.99626 
L 442.319507 162.080765 
L 442.777823 159.864178 
L 443.23614 160.461865 
L 443.694456 163.169411 
L 444.152772 164.871289 
L 444.611088 164.558794 
L 445.069405 162.211002 
L 445.527721 161.292995 
L 445.986037 164.563562 
L 446.444353 162.909048 
L 446.902669 160.73697 
L 447.360986 161.691685 
L 447.819302 160.80613 
L 448.277618 161.069682 
L 448.735934 163.609237 
L 449.194251 162.512581 
L 449.652567 159.978221 
L 450.110883 163.73348 
L 451.027515 161.219247 
L 451.485832 162.465146 
L 451.944148 163.107481 
L 452.402464 166.013216 
L 452.86078 163.340393 
L 453.319097 159.92611 
L 453.777413 163.121668 
L 454.235729 164.172412 
L 455.152361 158.754875 
L 455.610678 157.971591 
L 456.068994 160.726388 
L 456.52731 162.778799 
L 457.443943 158.791679 
L 457.902259 162.838278 
L 458.818891 159.931377 
L 459.277207 159.948775 
L 459.735524 160.993576 
L 460.19384 164.789622 
L 460.652156 161.643491 
L 461.110472 161.818732 
L 461.568789 164.538767 
L 462.027105 162.181296 
L 462.485421 161.286314 
L 462.943737 159.126082 
L 463.402053 159.041397 
L 463.86037 163.993029 
L 464.318686 164.490312 
L 464.777002 162.263778 
L 465.235318 161.849403 
L 465.693634 164.320566 
L 466.151951 164.413418 
L 466.610267 163.803343 
L 467.068583 161.939012 
L 467.526899 162.399004 
L 467.985216 164.254984 
L 468.443532 160.101921 
L 468.901848 160.931556 
L 469.360164 162.767626 
L 469.81848 162.616015 
L 470.276797 164.211596 
L 470.735113 164.536017 
L 471.193429 162.148719 
L 471.651745 161.91399 
L 472.110062 164.190928 
L 472.568378 163.002644 
L 473.48501 164.347338 
L 473.943326 163.181668 
L 474.401643 161.202565 
L 474.859959 158.08916 
L 475.776591 163.825021 
L 476.234908 160.337949 
L 476.693224 157.824147 
L 477.15154 157.602181 
L 477.609856 159.62981 
L 478.068172 162.503016 
L 478.526489 161.032149 
L 478.984805 158.351824 
L 479.443121 158.469077 
L 479.901437 161.080895 
L 480.359754 158.38733 
L 480.81807 158.195787 
L 481.276386 161.098499 
L 481.734702 162.417669 
L 482.193018 163.360577 
L 482.651335 162.474411 
L 483.109651 165.426906 
L 483.567967 165.933089 
L 484.026283 162.766158 
L 484.4846 163.160055 
L 484.942916 161.141726 
L 485.401232 162.206015 
L 485.859548 166.416859 
L 487.234497 161.961769 
L 487.692813 161.837713 
L 488.151129 162.458339 
L 488.609446 163.645496 
L 489.067762 161.594027 
L 489.526078 161.784559 
L 489.984394 162.865934 
L 490.44271 160.42187 
L 490.901027 161.575732 
L 491.359343 162.076403 
L 491.817659 161.059839 
L 492.275975 161.597105 
L 492.734292 161.313379 
L 493.192608 161.304071 
L 493.650924 163.004608 
L 494.10924 163.188036 
L 494.567556 164.240547 
L 495.025873 162.947017 
L 495.484189 162.294615 
L 496.400821 162.272855 
L 496.859138 162.882508 
L 497.317454 163.161683 
L 497.77577 163.232628 
L 498.234086 161.882356 
L 498.692402 163.507615 
L 499.150719 166.286714 
L 499.609035 166.945503 
L 500.067351 165.894135 
L 500.525667 163.024665 
L 500.983984 161.014604 
L 501.4423 161.464872 
L 501.900616 161.308499 
L 502.358932 159.431451 
L 502.817248 158.188979 
L 503.275565 158.226959 
L 503.733881 160.207871 
L 504.192197 160.78457 
L 504.650513 160.522778 
L 505.10883 163.394559 
L 505.567146 162.296548 
L 506.025462 159.829279 
L 506.483778 160.940848 
L 506.942094 159.012332 
L 507.400411 158.427885 
L 508.317043 159.736769 
L 509.691992 162.33756 
L 511.525257 165.919506 
L 512.441889 167.131513 
L 512.900205 167.441177 
L 513.358522 167.486538 
L 513.816838 167.213324 
L 514.275154 166.563892 
L 514.73347 165.477226 
L 515.191786 163.88894 
L 515.650103 161.731273 
L 516.108419 158.933096 
L 517.025051 151.11383 
L 517.941684 139.794661 
L 518.4 132.608962 
L 518.4 132.608962 
" style="fill:none;stroke:#ff0000;stroke-linecap:square;stroke-width:2;"/>
   </g>
   <g id="patch_3">
    <path d="M 72 320.4 
L 72 43.2 
" style="fill:none;stroke:#000000;stroke-linecap:square;stroke-linejoin:miter;stroke-width:0.8;"/>
   </g>
   <g id="patch_4">
    <path d="M 518.4 320.4 
L 518.4 43.2 
" style="fill:none;stroke:#000000;stroke-linecap:square;stroke-linejoin:miter;stroke-width:0.8;"/>
   </g>
   <g id="patch_5">
    <path d="M 72 320.4 
L 518.4 320.4 
" style="fill:none;stroke:#000000;stroke-linecap:square;stroke-linejoin:miter;stroke-width:0.8;"/>
   </g>
   <g id="patch_6">
    <path d="M 72 43.2 
L 518.4 43.2 
" style="fill:none;stroke:#000000;stroke-linecap:square;stroke-linejoin:miter;stroke-width:0.8;"/>
   </g>
   <g id="text_16">
    <!-- Front Propogation Speed -->
    <g transform="translate(172.245312 37.2)scale(0.2 -0.2)">
     <defs>
      <path d="M 628 4666 
L 3309 4666 
L 3309 4134 
L 1259 4134 
L 1259 2759 
L 3109 2759 
L 3109 2228 
L 1259 2228 
L 1259 0 
L 628 0 
L 628 4666 
z
" id="DejaVuSans-46" transform="scale(0.015625)"/>
      <path d="M 2631 2963 
Q 2534 3019 2420 3045 
Q 2306 3072 2169 3072 
Q 1681 3072 1420 2755 
Q 1159 2438 1159 1844 
L 1159 0 
L 581 0 
L 581 3500 
L 1159 3500 
L 1159 2956 
Q 1341 3275 1631 3429 
Q 1922 3584 2338 3584 
Q 2397 3584 2469 3576 
Q 2541 3569 2628 3553 
L 2631 2963 
z
" id="DejaVuSans-72" transform="scale(0.015625)"/>
      <path d="M 1172 4494 
L 1172 3500 
L 2356 3500 
L 2356 3053 
L 1172 3053 
L 1172 1153 
Q 1172 725 1289 603 
Q 1406 481 1766 481 
L 2356 481 
L 2356 0 
L 1766 0 
Q 1100 0 847 248 
Q 594 497 594 1153 
L 594 3053 
L 172 3053 
L 172 3500 
L 594 3500 
L 594 4494 
L 1172 4494 
z
" id="DejaVuSans-74" transform="scale(0.015625)"/>
      <path d="M 1259 4147 
L 1259 2394 
L 2053 2394 
Q 2494 2394 2734 2622 
Q 2975 2850 2975 3272 
Q 2975 3691 2734 3919 
Q 2494 4147 2053 4147 
L 1259 4147 
z
M 628 4666 
L 2053 4666 
Q 2838 4666 3239 4311 
Q 3641 3956 3641 3272 
Q 3641 2581 3239 2228 
Q 2838 1875 2053 1875 
L 1259 1875 
L 1259 0 
L 628 0 
L 628 4666 
z
" id="DejaVuSans-50" transform="scale(0.015625)"/>
      <path d="M 2906 1791 
Q 2906 2416 2648 2759 
Q 2391 3103 1925 3103 
Q 1463 3103 1205 2759 
Q 947 2416 947 1791 
Q 947 1169 1205 825 
Q 1463 481 1925 481 
Q 2391 481 2648 825 
Q 2906 1169 2906 1791 
z
M 3481 434 
Q 3481 -459 3084 -895 
Q 2688 -1331 1869 -1331 
Q 1566 -1331 1297 -1286 
Q 1028 -1241 775 -1147 
L 775 -588 
Q 1028 -725 1275 -790 
Q 1522 -856 1778 -856 
Q 2344 -856 2625 -561 
Q 2906 -266 2906 331 
L 2906 616 
Q 2728 306 2450 153 
Q 2172 0 1784 0 
Q 1141 0 747 490 
Q 353 981 353 1791 
Q 353 2603 747 3093 
Q 1141 3584 1784 3584 
Q 2172 3584 2450 3431 
Q 2728 3278 2906 2969 
L 2906 3500 
L 3481 3500 
L 3481 434 
z
" id="DejaVuSans-67" transform="scale(0.015625)"/>
      <path d="M 2194 1759 
Q 1497 1759 1228 1600 
Q 959 1441 959 1056 
Q 959 750 1161 570 
Q 1363 391 1709 391 
Q 2188 391 2477 730 
Q 2766 1069 2766 1631 
L 2766 1759 
L 2194 1759 
z
M 3341 1997 
L 3341 0 
L 2766 0 
L 2766 531 
Q 2569 213 2275 61 
Q 1981 -91 1556 -91 
Q 1019 -91 701 211 
Q 384 513 384 1019 
Q 384 1609 779 1909 
Q 1175 2209 1959 2209 
L 2766 2209 
L 2766 2266 
Q 2766 2663 2505 2880 
Q 2244 3097 1772 3097 
Q 1472 3097 1187 3025 
Q 903 2953 641 2809 
L 641 3341 
Q 956 3463 1253 3523 
Q 1550 3584 1831 3584 
Q 2591 3584 2966 3190 
Q 3341 2797 3341 1997 
z
" id="DejaVuSans-61" transform="scale(0.015625)"/>
     </defs>
     <use xlink:href="#DejaVuSans-46"/>
     <use x="50.269531" xlink:href="#DejaVuSans-72"/>
     <use x="89.132812" xlink:href="#DejaVuSans-6f"/>
     <use x="150.314453" xlink:href="#DejaVuSans-6e"/>
     <use x="213.693359" xlink:href="#DejaVuSans-74"/>
     <use x="252.902344" xlink:href="#DejaVuSans-20"/>
     <use x="284.689453" xlink:href="#DejaVuSans-50"/>
     <use x="343.242188" xlink:href="#DejaVuSans-72"/>
     <use x="382.105469" xlink:href="#DejaVuSans-6f"/>
     <use x="443.287109" xlink:href="#DejaVuSans-70"/>
     <use x="506.763672" xlink:href="#DejaVuSans-6f"/>
     <use x="567.945312" xlink:href="#DejaVuSans-67"/>
     <use x="631.421875" xlink:href="#DejaVuSans-61"/>
     <use x="692.701172" xlink:href="#DejaVuSans-74"/>
     <use x="731.910156" xlink:href="#DejaVuSans-69"/>
     <use x="759.693359" xlink:href="#DejaVuSans-6f"/>
     <use x="820.875" xlink:href="#DejaVuSans-6e"/>
     <use x="884.253906" xlink:href="#DejaVuSans-20"/>
     <use x="916.041016" xlink:href="#DejaVuSans-53"/>
     <use x="979.517578" xlink:href="#DejaVuSans-70"/>
     <use x="1042.994141" xlink:href="#DejaVuSans-65"/>
     <use x="1104.517578" xlink:href="#DejaVuSans-65"/>
     <use x="1166.041016" xlink:href="#DejaVuSans-64"/>
    </g>
   </g>
   <g id="legend_1">
    <g id="patch_7">
     <path d="M 325.967812 111.175687 
L 508.6 111.175687 
Q 511.4 111.175687 511.4 108.375687 
L 511.4 53 
Q 511.4 50.2 508.6 50.2 
L 325.967812 50.2 
Q 323.167812 50.2 323.167812 53 
L 323.167812 108.375687 
Q 323.167812 111.175687 325.967812 111.175687 
z
" style="fill:#ffffff;opacity:0.8;stroke:#cccccc;stroke-linejoin:miter;"/>
    </g>
    <g id="line2d_16">
     <path d="M 328.767812 61.537812 
L 356.767812 61.537812 
" style="fill:none;stroke:#ff0000;stroke-linecap:square;stroke-width:2;"/>
    </g>
    <g id="line2d_17"/>
    <g id="text_17">
     <!-- Front speed -->
     <g transform="translate(367.967812 66.437812)scale(0.14 -0.14)">
      <use xlink:href="#DejaVuSans-46"/>
      <use x="50.269531" xlink:href="#DejaVuSans-72"/>
      <use x="89.132812" xlink:href="#DejaVuSans-6f"/>
      <use x="150.314453" xlink:href="#DejaVuSans-6e"/>
      <use x="213.693359" xlink:href="#DejaVuSans-74"/>
      <use x="252.902344" xlink:href="#DejaVuSans-20"/>
      <use x="284.689453" xlink:href="#DejaVuSans-73"/>
      <use x="336.789062" xlink:href="#DejaVuSans-70"/>
      <use x="400.265625" xlink:href="#DejaVuSans-65"/>
      <use x="461.789062" xlink:href="#DejaVuSans-65"/>
      <use x="523.3125" xlink:href="#DejaVuSans-64"/>
     </g>
    </g>
    <g id="line2d_18">
     <path d="M 328.767812 91.381437 
L 356.767812 91.381437 
" style="fill:none;stroke:#000000;stroke-dasharray:5.55,2.4;stroke-dashoffset:0;stroke-width:1.5;"/>
    </g>
    <g id="line2d_19"/>
    <g id="text_18">
     <!-- Steady state -->
     <g transform="translate(367.967812 86.987187)scale(0.14 -0.14)">
      <defs>
       <path d="M 2059 -325 
Q 1816 -950 1584 -1140 
Q 1353 -1331 966 -1331 
L 506 -1331 
L 506 -850 
L 844 -850 
Q 1081 -850 1212 -737 
Q 1344 -625 1503 -206 
L 1606 56 
L 191 3500 
L 800 3500 
L 1894 763 
L 2988 3500 
L 3597 3500 
L 2059 -325 
z
" id="DejaVuSans-79" transform="scale(0.015625)"/>
      </defs>
      <use xlink:href="#DejaVuSans-53"/>
      <use x="63.476562" xlink:href="#DejaVuSans-74"/>
      <use x="102.685547" xlink:href="#DejaVuSans-65"/>
      <use x="164.208984" xlink:href="#DejaVuSans-61"/>
      <use x="225.488281" xlink:href="#DejaVuSans-64"/>
      <use x="288.964844" xlink:href="#DejaVuSans-79"/>
      <use x="348.144531" xlink:href="#DejaVuSans-20"/>
      <use x="379.931641" xlink:href="#DejaVuSans-73"/>
      <use x="432.03125" xlink:href="#DejaVuSans-74"/>
      <use x="471.240234" xlink:href="#DejaVuSans-61"/>
      <use x="532.519531" xlink:href="#DejaVuSans-74"/>
      <use x="571.728516" xlink:href="#DejaVuSans-65"/>
     </g>
     <!-- speed = 1.12 mm/s -->
     <g transform="translate(367.967812 102.664125)scale(0.14 -0.14)">
      <defs>
       <path d="M 678 2906 
L 4684 2906 
L 4684 2381 
L 678 2381 
L 678 2906 
z
M 678 1631 
L 4684 1631 
L 4684 1100 
L 678 1100 
L 678 1631 
z
" id="DejaVuSans-3d" transform="scale(0.015625)"/>
      </defs>
      <use xlink:href="#DejaVuSans-73"/>
      <use x="52.099609" xlink:href="#DejaVuSans-70"/>
      <use x="115.576172" xlink:href="#DejaVuSans-65"/>
      <use x="177.099609" xlink:href="#DejaVuSans-65"/>
      <use x="238.623047" xlink:href="#DejaVuSans-64"/>
      <use x="302.099609" xlink:href="#DejaVuSans-20"/>
      <use x="333.886719" xlink:href="#DejaVuSans-3d"/>
      <use x="417.675781" xlink:href="#DejaVuSans-20"/>
      <use x="449.462891" xlink:href="#DejaVuSans-31"/>
      <use x="513.085938" xlink:href="#DejaVuSans-2e"/>
      <use x="544.873047" xlink:href="#DejaVuSans-31"/>
      <use x="608.496094" xlink:href="#DejaVuSans-32"/>
      <use x="672.119141" xlink:href="#DejaVuSans-20"/>
      <use x="703.90625" xlink:href="#DejaVuSans-6d"/>
      <use x="801.318359" xlink:href="#DejaVuSans-6d"/>
      <use x="898.730469" xlink:href="#DejaVuSans-2f"/>
      <use x="932.421875" xlink:href="#DejaVuSans-73"/>
     </g>
    </g>
   </g>
  </g>
 </g>
 <defs>
  <clipPath id="p37cba569e7">
   <rect height="277.2" width="446.4" x="72" y="43.2"/>
  </clipPath>
 </defs>
</svg>
