<?xml version="1.0" encoding="utf-8" standalone="no"?>
<!DOCTYPE svg PUBLIC "-//W3C//DTD SVG 1.1//EN"
  "http://www.w3.org/Graphics/SVG/1.1/DTD/svg11.dtd">
<svg height="360pt" version="1.1" viewBox="0 0 576 360" width="576pt" xmlns="http://www.w3.org/2000/svg" xmlns:xlink="http://www.w3.org/1999/xlink">
 <metadata>
  <rdf:RDF xmlns:cc="http://creativecommons.org/ns#" xmlns:dc="http://purl.org/dc/elements/1.1/" xmlns:rdf="http://www.w3.org/1999/02/22-rdf-syntax-ns#">
   <cc:Work>
    <dc:type rdf:resource="http://purl.org/dc/dcmitype/StillImage"/>
    <dc:date>2022-06-30T14:05:55.997662</dc:date>
    <dc:format>image/svg+xml</dc:format>
    <dc:creator>
     <cc:Agent>
      <dc:title>Matplotlib v3.4.3, https://matplotlib.org/</dc:title>
     </cc:Agent>
    </dc:creator>
   </cc:Work>
  </rdf:RDF>
 </metadata>
 <defs>
  <style type="text/css">*{stroke-linecap:butt;stroke-linejoin:round;}</style>
 </defs>
 <g id="figure_1">
  <g id="patch_1">
   <path d="M 0 360 
L 576 360 
L 576 0 
L 0 0 
z
" style="fill:#ffffff;"/>
  </g>
  <g id="axes_1">
   <g id="patch_2">
    <path d="M 72 320.4 
L 518.4 320.4 
L 518.4 43.2 
L 72 43.2 
z
" style="fill:#ffffff;"/>
   </g>
   <g id="PolyCollection_1">
    <defs>
     <path d="M 72 -143.758015 
L 72 -148.140264 
L 72.723501 -148.140264 
L 73.447002 -148.140264 
L 74.170502 -148.140264 
L 74.894003 -148.140264 
L 75.617504 -148.140264 
L 76.341005 -148.140264 
L 77.064506 -148.140264 
L 77.788006 -148.140264 
L 78.511507 -148.140264 
L 79.235008 -148.140264 
L 79.958509 -148.140264 
L 80.68201 -148.140264 
L 81.405511 -148.140264 
L 82.129011 -148.140264 
L 82.852512 -148.140264 
L 83.576013 -148.140264 
L 84.299514 -148.140264 
L 85.023015 -148.140264 
L 85.746515 -148.140264 
L 86.470016 -148.140264 
L 87.193517 -148.140264 
L 87.917018 -148.140264 
L 88.640519 -148.140264 
L 89.364019 -148.140264 
L 90.08752 -148.140264 
L 90.811021 -148.140264 
L 91.534522 -148.140264 
L 92.258023 -148.140264 
L 92.981524 -148.140264 
L 93.705024 -148.140264 
L 94.428525 -148.140264 
L 95.152026 -148.140264 
L 95.875527 -148.140264 
L 96.599028 -148.140264 
L 97.322528 -148.140264 
L 98.046029 -148.140264 
L 98.76953 -148.140264 
L 99.493031 -148.140264 
L 100.216532 -148.140264 
L 100.940032 -148.140264 
L 101.663533 -148.140264 
L 102.387034 -148.140264 
L 103.110535 -148.140264 
L 103.834036 -148.140264 
L 104.557536 -148.140264 
L 105.281037 -148.140264 
L 106.004538 -148.140264 
L 106.728039 -148.140264 
L 107.45154 -148.140264 
L 108.175041 -148.140264 
L 108.898541 -148.140264 
L 109.622042 -148.140264 
L 110.345543 -148.140264 
L 111.069044 -148.140264 
L 111.792545 -148.140264 
L 112.516045 -148.140264 
L 113.239546 -148.140264 
L 113.963047 -148.140264 
L 114.686548 -148.140264 
L 115.410049 -148.140264 
L 116.133549 -148.140264 
L 116.85705 -148.140264 
L 117.580551 -148.140264 
L 118.304052 -148.140264 
L 119.027553 -148.140264 
L 119.751053 -148.140264 
L 120.474554 -148.140264 
L 121.198055 -148.140264 
L 121.921556 -148.140264 
L 122.645057 -148.140264 
L 123.368558 -148.140264 
L 124.092058 -148.140264 
L 124.815559 -148.140264 
L 125.53906 -148.140264 
L 126.262561 -148.140264 
L 126.986062 -148.140264 
L 127.709562 -148.140264 
L 128.433063 -148.140264 
L 129.156564 -148.140264 
L 129.880065 -148.140264 
L 130.603566 -148.140264 
L 131.327066 -148.140264 
L 132.050567 -148.140264 
L 132.774068 -148.140264 
L 133.497569 -148.140264 
L 134.22107 -148.140264 
L 134.944571 -148.140264 
L 135.668071 -148.140264 
L 136.391572 -148.140264 
L 137.115073 -148.140264 
L 137.838574 -148.140264 
L 138.562075 -148.140264 
L 139.285575 -148.140264 
L 140.009076 -148.140264 
L 140.732577 -148.140264 
L 141.456078 -148.140264 
L 142.179579 -148.140264 
L 142.903079 -148.140264 
L 143.62658 -148.140264 
L 144.350081 -148.140264 
L 145.073582 -148.140264 
L 145.797083 -148.140264 
L 146.520583 -148.140264 
L 147.244084 -148.140264 
L 147.967585 -148.140264 
L 148.691086 -148.140264 
L 149.414587 -148.140264 
L 150.138088 -148.140264 
L 150.861588 -148.140264 
L 151.585089 -148.140264 
L 152.30859 -148.140264 
L 153.032091 -148.140264 
L 153.755592 -148.140264 
L 154.479092 -148.140264 
L 155.202593 -148.140264 
L 155.926094 -148.140264 
L 156.649595 -148.140264 
L 157.373096 -148.140264 
L 158.096596 -148.140264 
L 158.820097 -148.140264 
L 159.543598 -148.140264 
L 160.267099 -148.140264 
L 160.9906 -148.140264 
L 161.7141 -148.140264 
L 162.437601 -148.140264 
L 163.161102 -148.140264 
L 163.884603 -148.140264 
L 164.608104 -148.140264 
L 165.331605 -148.140264 
L 166.055105 -148.140264 
L 166.778606 -148.140264 
L 167.502107 -148.140264 
L 168.225608 -148.140264 
L 168.949109 -148.140264 
L 169.672609 -148.140264 
L 170.39611 -148.140264 
L 171.119611 -148.140264 
L 171.843112 -148.140264 
L 172.566613 -148.140264 
L 173.290113 -148.140264 
L 174.013614 -148.140264 
L 174.737115 -148.140264 
L 175.460616 -148.140264 
L 176.184117 -148.140264 
L 176.907618 -148.140264 
L 177.631118 -148.140264 
L 178.354619 -148.140264 
L 179.07812 -148.140264 
L 179.801621 -148.140264 
L 180.525122 -148.140264 
L 181.248622 -148.140264 
L 181.972123 -148.140264 
L 182.695624 -148.140264 
L 183.419125 -148.140264 
L 184.142626 -148.140264 
L 184.866126 -148.140264 
L 185.589627 -148.140264 
L 186.313128 -148.140264 
L 187.036629 -148.140264 
L 187.76013 -148.140264 
L 188.48363 -148.140264 
L 189.207131 -148.140264 
L 189.930632 -148.140264 
L 190.654133 -148.140264 
L 191.377634 -148.140264 
L 192.101135 -148.140264 
L 192.824635 -148.140264 
L 193.548136 -148.140264 
L 194.271637 -148.140264 
L 194.995138 -148.140264 
L 195.718639 -148.140264 
L 196.442139 -148.140264 
L 197.16564 -148.140264 
L 197.889141 -148.140264 
L 198.612642 -148.140264 
L 199.336143 -148.140264 
L 200.059643 -148.140264 
L 200.783144 -148.140264 
L 201.506645 -148.140264 
L 202.230146 -148.140264 
L 202.953647 -148.140264 
L 203.677147 -148.140264 
L 204.400648 -148.140264 
L 205.124149 -148.140264 
L 205.84765 -148.140264 
L 206.571151 -148.140264 
L 207.294652 -148.140264 
L 208.018152 -148.140264 
L 208.741653 -148.140264 
L 209.465154 -148.140264 
L 210.188655 -148.140264 
L 210.912156 -148.140264 
L 211.635656 -148.140264 
L 212.359157 -148.140264 
L 213.082658 -148.140264 
L 213.806159 -148.140264 
L 214.52966 -148.140264 
L 215.25316 -148.140264 
L 215.976661 -148.140264 
L 216.700162 -148.140264 
L 217.423663 -148.140264 
L 218.147164 -148.140264 
L 218.870665 -148.140264 
L 219.594165 -148.140264 
L 220.317666 -148.140264 
L 221.041167 -148.140264 
L 221.764668 -148.140264 
L 222.488169 -148.140264 
L 223.211669 -148.140264 
L 223.93517 -148.140264 
L 224.658671 -148.140264 
L 225.382172 -148.140264 
L 226.105673 -148.140264 
L 226.829173 -148.140264 
L 227.552674 -148.140264 
L 228.276175 -148.140264 
L 228.999676 -148.140264 
L 229.723177 -148.140264 
L 230.446677 -148.140264 
L 231.170178 -148.140264 
L 231.893679 -148.140264 
L 232.61718 -148.140264 
L 233.340681 -148.140264 
L 234.064182 -148.140264 
L 234.787682 -148.140264 
L 235.511183 -148.140264 
L 236.234684 -148.140264 
L 236.958185 -148.140264 
L 237.681686 -148.140264 
L 238.405186 -148.140264 
L 239.128687 -148.140264 
L 239.852188 -148.140264 
L 240.575689 -148.140264 
L 241.29919 -148.140264 
L 242.02269 -148.140264 
L 242.746191 -148.140264 
L 243.469692 -148.140264 
L 244.193193 -148.140264 
L 244.916694 -148.140264 
L 245.640194 -148.140264 
L 246.363695 -148.140264 
L 247.087196 -148.140264 
L 247.810697 -148.140264 
L 248.534198 -148.140264 
L 249.257699 -148.140264 
L 249.981199 -148.140264 
L 250.7047 -148.140264 
L 251.428201 -148.140264 
L 252.151702 -148.140264 
L 252.875203 -148.140264 
L 253.598703 -148.140264 
L 254.322204 -148.140264 
L 255.045705 -148.140264 
L 255.769206 -148.140264 
L 256.492707 -148.140264 
L 257.216207 -148.140264 
L 257.939708 -148.140264 
L 258.663209 -148.140264 
L 259.38671 -148.140264 
L 260.110211 -148.140264 
L 260.833712 -148.140264 
L 261.557212 -148.140264 
L 262.280713 -148.140264 
L 263.004214 -148.140264 
L 263.727715 -148.140264 
L 264.451216 -148.140264 
L 265.174716 -148.140264 
L 265.898217 -148.140264 
L 266.621718 -148.140264 
L 267.345219 -148.140264 
L 268.06872 -148.140264 
L 268.79222 -148.140264 
L 269.515721 -148.140264 
L 270.239222 -148.140264 
L 270.962723 -148.140264 
L 271.686224 -148.140264 
L 272.409724 -148.140264 
L 273.133225 -148.140264 
L 273.856726 -148.140264 
L 274.580227 -148.140264 
L 275.303728 -148.140264 
L 276.027229 -148.140264 
L 276.750729 -148.140264 
L 277.47423 -148.140264 
L 278.197731 -148.140264 
L 278.921232 -148.140264 
L 279.644733 -148.140264 
L 280.368233 -148.140264 
L 281.091734 -148.140264 
L 281.815235 -148.140264 
L 282.538736 -148.140264 
L 283.262237 -148.140264 
L 283.985737 -148.140264 
L 284.709238 -148.140264 
L 285.432739 -148.140264 
L 286.15624 -148.140264 
L 286.879741 -148.140264 
L 287.603241 -148.140264 
L 288.326742 -148.140264 
L 289.050243 -148.140264 
L 289.773744 -148.140264 
L 290.497245 -148.140264 
L 291.220746 -148.140264 
L 291.944246 -148.140264 
L 292.667747 -148.140264 
L 293.391248 -148.140264 
L 294.114749 -148.140264 
L 294.83825 -148.140264 
L 295.56175 -148.140264 
L 296.285251 -148.140264 
L 297.008752 -148.140264 
L 297.732253 -148.140264 
L 298.455754 -148.140264 
L 299.179254 -148.140264 
L 299.902755 -148.140264 
L 300.626256 -148.140264 
L 301.349757 -148.140264 
L 302.073258 -148.140264 
L 302.796759 -148.140264 
L 303.520259 -148.140264 
L 304.24376 -148.140264 
L 304.967261 -148.140264 
L 305.690762 -148.140264 
L 306.414263 -148.140264 
L 307.137763 -148.140264 
L 307.861264 -148.140264 
L 308.584765 -148.140264 
L 309.308266 -148.140264 
L 310.031767 -148.140264 
L 310.755267 -148.140264 
L 311.478768 -148.140264 
L 312.202269 -148.140264 
L 312.92577 -148.140264 
L 313.649271 -148.140264 
L 314.372771 -148.140264 
L 315.096272 -148.140264 
L 315.819773 -148.140264 
L 316.543274 -148.140264 
L 317.266775 -148.140264 
L 317.990276 -148.140264 
L 318.713776 -148.140264 
L 319.437277 -148.140264 
L 320.160778 -148.140264 
L 320.884279 -148.140264 
L 321.60778 -148.140264 
L 322.33128 -148.140264 
L 323.054781 -148.140264 
L 323.778282 -148.140264 
L 324.501783 -148.140264 
L 325.225284 -148.140264 
L 325.948784 -148.140264 
L 326.672285 -148.140264 
L 327.395786 -148.140264 
L 328.119287 -148.140264 
L 328.842788 -148.140264 
L 329.566288 -148.140264 
L 330.289789 -148.140264 
L 331.01329 -148.140264 
L 331.736791 -148.140264 
L 332.460292 -148.140264 
L 333.183793 -148.140264 
L 333.907293 -148.140264 
L 334.630794 -148.140264 
L 335.354295 -148.140264 
L 336.077796 -148.140264 
L 336.801297 -148.140264 
L 337.524797 -148.140264 
L 338.248298 -148.140264 
L 338.971799 -148.140264 
L 339.6953 -148.140264 
L 340.418801 -148.140264 
L 341.142301 -148.140264 
L 341.865802 -148.140264 
L 342.589303 -148.140264 
L 343.312804 -148.140264 
L 344.036305 -148.140264 
L 344.759806 -148.140264 
L 345.483306 -148.140264 
L 346.206807 -148.140264 
L 346.930308 -148.140264 
L 347.653809 -148.140264 
L 348.37731 -148.140264 
L 349.10081 -148.140264 
L 349.824311 -148.140264 
L 350.547812 -148.140264 
L 351.271313 -148.140264 
L 351.994814 -148.140264 
L 352.718314 -148.140264 
L 353.441815 -148.140264 
L 354.165316 -148.140264 
L 354.888817 -148.140264 
L 355.612318 -148.140264 
L 356.335818 -148.140264 
L 357.059319 -148.140264 
L 357.78282 -148.140264 
L 358.506321 -148.140264 
L 359.229822 -148.140264 
L 359.953323 -148.140264 
L 360.676823 -148.140264 
L 361.400324 -148.140264 
L 362.123825 -148.140264 
L 362.847326 -148.140264 
L 363.570827 -148.140264 
L 364.294327 -148.140264 
L 365.017828 -148.140264 
L 365.741329 -148.140264 
L 366.46483 -148.140264 
L 367.188331 -148.140264 
L 367.911831 -148.140264 
L 368.635332 -148.140264 
L 369.358833 -148.140264 
L 370.082334 -148.140264 
L 370.805835 -148.140264 
L 371.529335 -148.140264 
L 372.252836 -148.140264 
L 372.976337 -148.140264 
L 373.699838 -148.140264 
L 374.423339 -148.140264 
L 375.14684 -148.140264 
L 375.87034 -148.140264 
L 376.593841 -148.140264 
L 377.317342 -148.140264 
L 378.040843 -148.140264 
L 378.764344 -148.140264 
L 379.487844 -148.140264 
L 380.211345 -148.140264 
L 380.934846 -148.140264 
L 381.658347 -148.140264 
L 382.381848 -148.140264 
L 383.105348 -148.140264 
L 383.828849 -148.140264 
L 384.55235 -148.140264 
L 385.275851 -148.140264 
L 385.999352 -148.140264 
L 386.722853 -148.140264 
L 387.446353 -148.140264 
L 388.169854 -148.140264 
L 388.893355 -148.140264 
L 389.616856 -148.140264 
L 390.340357 -148.140264 
L 391.063857 -148.140264 
L 391.787358 -148.140264 
L 392.510859 -148.140264 
L 393.23436 -148.140264 
L 393.957861 -148.140264 
L 394.681361 -148.140264 
L 395.404862 -148.140264 
L 396.128363 -148.140264 
L 396.851864 -148.140264 
L 397.575365 -148.140264 
L 398.298865 -148.140264 
L 399.022366 -148.140264 
L 399.745867 -148.140264 
L 400.469368 -148.140264 
L 401.192869 -148.140264 
L 401.91637 -148.140264 
L 402.63987 -148.140264 
L 403.363371 -148.140264 
L 404.086872 -148.140264 
L 404.810373 -148.140264 
L 405.533874 -148.140264 
L 406.257374 -148.140264 
L 406.980875 -148.140264 
L 407.704376 -148.140264 
L 408.427877 -148.140264 
L 409.151378 -148.140264 
L 409.874878 -148.140264 
L 410.598379 -148.140264 
L 411.32188 -148.140264 
L 412.045381 -148.140264 
L 412.768882 -148.140264 
L 413.492382 -148.140264 
L 414.215883 -148.140264 
L 414.939384 -148.140264 
L 415.662885 -148.140264 
L 416.386386 -148.140264 
L 417.109887 -148.140264 
L 417.833387 -148.140264 
L 418.556888 -148.140264 
L 419.280389 -148.140264 
L 420.00389 -148.140264 
L 420.727391 -148.140264 
L 421.450891 -148.140264 
L 422.174392 -148.140264 
L 422.897893 -148.140264 
L 423.621394 -148.140264 
L 424.344895 -148.140264 
L 425.068395 -148.140264 
L 425.791896 -148.140264 
L 426.515397 -148.140264 
L 427.238898 -148.140264 
L 427.962399 -148.140264 
L 428.6859 -148.140264 
L 429.4094 -148.140264 
L 430.132901 -148.140264 
L 430.856402 -148.140264 
L 431.579903 -148.140264 
L 432.303404 -148.140264 
L 433.026904 -148.140264 
L 433.750405 -148.140264 
L 434.473906 -148.140264 
L 435.197407 -148.140264 
L 435.920908 -148.140264 
L 436.644408 -148.140264 
L 437.367909 -148.140264 
L 438.09141 -148.140264 
L 438.814911 -148.140264 
L 439.538412 -148.140264 
L 440.261912 -148.140264 
L 440.985413 -148.140264 
L 441.708914 -148.140264 
L 442.432415 -148.140264 
L 443.155916 -148.140264 
L 443.879417 -148.140264 
L 444.602917 -148.140264 
L 445.326418 -148.140264 
L 446.049919 -148.140264 
L 446.77342 -148.140264 
L 447.496921 -148.140264 
L 448.220421 -148.140264 
L 448.943922 -148.140264 
L 449.667423 -148.140264 
L 450.390924 -148.140264 
L 451.114425 -148.140264 
L 451.837925 -148.140264 
L 452.561426 -148.140264 
L 453.284927 -148.140264 
L 454.008428 -148.140264 
L 454.731929 -148.140264 
L 455.455429 -148.140264 
L 456.17893 -148.140264 
L 456.902431 -148.140264 
L 457.625932 -148.140264 
L 458.349433 -148.140264 
L 459.072934 -148.140264 
L 459.796434 -148.140264 
L 460.519935 -148.140264 
L 461.243436 -148.140264 
L 461.966937 -148.140264 
L 462.690438 -148.140264 
L 463.413938 -148.140264 
L 464.137439 -148.140264 
L 464.86094 -148.140264 
L 465.584441 -148.140264 
L 466.307942 -148.140264 
L 467.031442 -148.140264 
L 467.754943 -148.140264 
L 468.478444 -148.140264 
L 469.201945 -148.140264 
L 469.925446 -148.140264 
L 470.648947 -148.140264 
L 471.372447 -148.140264 
L 472.095948 -148.140264 
L 472.819449 -148.140264 
L 473.54295 -148.140264 
L 474.266451 -148.140264 
L 474.989951 -148.140264 
L 475.713452 -148.140264 
L 476.436953 -148.140264 
L 477.160454 -148.140264 
L 477.883955 -148.140264 
L 478.607455 -148.140264 
L 479.330956 -148.140264 
L 480.054457 -148.140264 
L 480.777958 -148.140264 
L 481.501459 -148.140264 
L 482.224959 -148.140264 
L 482.94846 -148.140264 
L 483.671961 -148.140264 
L 484.395462 -148.140264 
L 485.118963 -148.140264 
L 485.842464 -148.140264 
L 486.565964 -148.140264 
L 487.289465 -148.140264 
L 488.012966 -148.140264 
L 488.736467 -148.140264 
L 489.459968 -148.140264 
L 490.183468 -148.140264 
L 490.906969 -148.140264 
L 491.63047 -148.140264 
L 492.353971 -148.140264 
L 493.077472 -148.140264 
L 493.800972 -148.140264 
L 494.524473 -148.140264 
L 495.247974 -148.140264 
L 495.971475 -148.140264 
L 496.694976 -148.140264 
L 497.418476 -148.140264 
L 498.141977 -148.140264 
L 498.865478 -148.140264 
L 499.588979 -148.140264 
L 500.31248 -148.140264 
L 501.035981 -148.140264 
L 501.759481 -148.140264 
L 502.482982 -148.140264 
L 503.206483 -148.140264 
L 503.929984 -148.140264 
L 504.653485 -148.140264 
L 505.376985 -148.140264 
L 506.100486 -148.140264 
L 506.823987 -148.140264 
L 507.547488 -148.140264 
L 508.270989 -148.140264 
L 508.994489 -148.140264 
L 509.71799 -148.140264 
L 510.441491 -148.140264 
L 511.164992 -148.140264 
L 511.888493 -148.140264 
L 512.611994 -148.140264 
L 513.335494 -148.140264 
L 514.058995 -148.140264 
L 514.782496 -148.140264 
L 515.505997 -148.140264 
L 516.229498 -148.140264 
L 516.952998 -148.140264 
L 517.676499 -148.140264 
L 518.4 -148.140264 
L 518.4 -143.758015 
L 518.4 -143.758015 
L 517.676499 -143.758015 
L 516.952998 -143.758015 
L 516.229498 -143.758015 
L 515.505997 -143.758015 
L 514.782496 -143.758015 
L 514.058995 -143.758015 
L 513.335494 -143.758015 
L 512.611994 -143.758015 
L 511.888493 -143.758015 
L 511.164992 -143.758015 
L 510.441491 -143.758015 
L 509.71799 -143.758015 
L 508.994489 -143.758015 
L 508.270989 -143.758015 
L 507.547488 -143.758015 
L 506.823987 -143.758015 
L 506.100486 -143.758015 
L 505.376985 -143.758015 
L 504.653485 -143.758015 
L 503.929984 -143.758015 
L 503.206483 -143.758015 
L 502.482982 -143.758015 
L 501.759481 -143.758015 
L 501.035981 -143.758015 
L 500.31248 -143.758015 
L 499.588979 -143.758015 
L 498.865478 -143.758015 
L 498.141977 -143.758015 
L 497.418476 -143.758015 
L 496.694976 -143.758015 
L 495.971475 -143.758015 
L 495.247974 -143.758015 
L 494.524473 -143.758015 
L 493.800972 -143.758015 
L 493.077472 -143.758015 
L 492.353971 -143.758015 
L 491.63047 -143.758015 
L 490.906969 -143.758015 
L 490.183468 -143.758015 
L 489.459968 -143.758015 
L 488.736467 -143.758015 
L 488.012966 -143.758015 
L 487.289465 -143.758015 
L 486.565964 -143.758015 
L 485.842464 -143.758015 
L 485.118963 -143.758015 
L 484.395462 -143.758015 
L 483.671961 -143.758015 
L 482.94846 -143.758015 
L 482.224959 -143.758015 
L 481.501459 -143.758015 
L 480.777958 -143.758015 
L 480.054457 -143.758015 
L 479.330956 -143.758015 
L 478.607455 -143.758015 
L 477.883955 -143.758015 
L 477.160454 -143.758015 
L 476.436953 -143.758015 
L 475.713452 -143.758015 
L 474.989951 -143.758015 
L 474.266451 -143.758015 
L 473.54295 -143.758015 
L 472.819449 -143.758015 
L 472.095948 -143.758015 
L 471.372447 -143.758015 
L 470.648947 -143.758015 
L 469.925446 -143.758015 
L 469.201945 -143.758015 
L 468.478444 -143.758015 
L 467.754943 -143.758015 
L 467.031442 -143.758015 
L 466.307942 -143.758015 
L 465.584441 -143.758015 
L 464.86094 -143.758015 
L 464.137439 -143.758015 
L 463.413938 -143.758015 
L 462.690438 -143.758015 
L 461.966937 -143.758015 
L 461.243436 -143.758015 
L 460.519935 -143.758015 
L 459.796434 -143.758015 
L 459.072934 -143.758015 
L 458.349433 -143.758015 
L 457.625932 -143.758015 
L 456.902431 -143.758015 
L 456.17893 -143.758015 
L 455.455429 -143.758015 
L 454.731929 -143.758015 
L 454.008428 -143.758015 
L 453.284927 -143.758015 
L 452.561426 -143.758015 
L 451.837925 -143.758015 
L 451.114425 -143.758015 
L 450.390924 -143.758015 
L 449.667423 -143.758015 
L 448.943922 -143.758015 
L 448.220421 -143.758015 
L 447.496921 -143.758015 
L 446.77342 -143.758015 
L 446.049919 -143.758015 
L 445.326418 -143.758015 
L 444.602917 -143.758015 
L 443.879417 -143.758015 
L 443.155916 -143.758015 
L 442.432415 -143.758015 
L 441.708914 -143.758015 
L 440.985413 -143.758015 
L 440.261912 -143.758015 
L 439.538412 -143.758015 
L 438.814911 -143.758015 
L 438.09141 -143.758015 
L 437.367909 -143.758015 
L 436.644408 -143.758015 
L 435.920908 -143.758015 
L 435.197407 -143.758015 
L 434.473906 -143.758015 
L 433.750405 -143.758015 
L 433.026904 -143.758015 
L 432.303404 -143.758015 
L 431.579903 -143.758015 
L 430.856402 -143.758015 
L 430.132901 -143.758015 
L 429.4094 -143.758015 
L 428.6859 -143.758015 
L 427.962399 -143.758015 
L 427.238898 -143.758015 
L 426.515397 -143.758015 
L 425.791896 -143.758015 
L 425.068395 -143.758015 
L 424.344895 -143.758015 
L 423.621394 -143.758015 
L 422.897893 -143.758015 
L 422.174392 -143.758015 
L 421.450891 -143.758015 
L 420.727391 -143.758015 
L 420.00389 -143.758015 
L 419.280389 -143.758015 
L 418.556888 -143.758015 
L 417.833387 -143.758015 
L 417.109887 -143.758015 
L 416.386386 -143.758015 
L 415.662885 -143.758015 
L 414.939384 -143.758015 
L 414.215883 -143.758015 
L 413.492382 -143.758015 
L 412.768882 -143.758015 
L 412.045381 -143.758015 
L 411.32188 -143.758015 
L 410.598379 -143.758015 
L 409.874878 -143.758015 
L 409.151378 -143.758015 
L 408.427877 -143.758015 
L 407.704376 -143.758015 
L 406.980875 -143.758015 
L 406.257374 -143.758015 
L 405.533874 -143.758015 
L 404.810373 -143.758015 
L 404.086872 -143.758015 
L 403.363371 -143.758015 
L 402.63987 -143.758015 
L 401.91637 -143.758015 
L 401.192869 -143.758015 
L 400.469368 -143.758015 
L 399.745867 -143.758015 
L 399.022366 -143.758015 
L 398.298865 -143.758015 
L 397.575365 -143.758015 
L 396.851864 -143.758015 
L 396.128363 -143.758015 
L 395.404862 -143.758015 
L 394.681361 -143.758015 
L 393.957861 -143.758015 
L 393.23436 -143.758015 
L 392.510859 -143.758015 
L 391.787358 -143.758015 
L 391.063857 -143.758015 
L 390.340357 -143.758015 
L 389.616856 -143.758015 
L 388.893355 -143.758015 
L 388.169854 -143.758015 
L 387.446353 -143.758015 
L 386.722853 -143.758015 
L 385.999352 -143.758015 
L 385.275851 -143.758015 
L 384.55235 -143.758015 
L 383.828849 -143.758015 
L 383.105348 -143.758015 
L 382.381848 -143.758015 
L 381.658347 -143.758015 
L 380.934846 -143.758015 
L 380.211345 -143.758015 
L 379.487844 -143.758015 
L 378.764344 -143.758015 
L 378.040843 -143.758015 
L 377.317342 -143.758015 
L 376.593841 -143.758015 
L 375.87034 -143.758015 
L 375.14684 -143.758015 
L 374.423339 -143.758015 
L 373.699838 -143.758015 
L 372.976337 -143.758015 
L 372.252836 -143.758015 
L 371.529335 -143.758015 
L 370.805835 -143.758015 
L 370.082334 -143.758015 
L 369.358833 -143.758015 
L 368.635332 -143.758015 
L 367.911831 -143.758015 
L 367.188331 -143.758015 
L 366.46483 -143.758015 
L 365.741329 -143.758015 
L 365.017828 -143.758015 
L 364.294327 -143.758015 
L 363.570827 -143.758015 
L 362.847326 -143.758015 
L 362.123825 -143.758015 
L 361.400324 -143.758015 
L 360.676823 -143.758015 
L 359.953323 -143.758015 
L 359.229822 -143.758015 
L 358.506321 -143.758015 
L 357.78282 -143.758015 
L 357.059319 -143.758015 
L 356.335818 -143.758015 
L 355.612318 -143.758015 
L 354.888817 -143.758015 
L 354.165316 -143.758015 
L 353.441815 -143.758015 
L 352.718314 -143.758015 
L 351.994814 -143.758015 
L 351.271313 -143.758015 
L 350.547812 -143.758015 
L 349.824311 -143.758015 
L 349.10081 -143.758015 
L 348.37731 -143.758015 
L 347.653809 -143.758015 
L 346.930308 -143.758015 
L 346.206807 -143.758015 
L 345.483306 -143.758015 
L 344.759806 -143.758015 
L 344.036305 -143.758015 
L 343.312804 -143.758015 
L 342.589303 -143.758015 
L 341.865802 -143.758015 
L 341.142301 -143.758015 
L 340.418801 -143.758015 
L 339.6953 -143.758015 
L 338.971799 -143.758015 
L 338.248298 -143.758015 
L 337.524797 -143.758015 
L 336.801297 -143.758015 
L 336.077796 -143.758015 
L 335.354295 -143.758015 
L 334.630794 -143.758015 
L 333.907293 -143.758015 
L 333.183793 -143.758015 
L 332.460292 -143.758015 
L 331.736791 -143.758015 
L 331.01329 -143.758015 
L 330.289789 -143.758015 
L 329.566288 -143.758015 
L 328.842788 -143.758015 
L 328.119287 -143.758015 
L 327.395786 -143.758015 
L 326.672285 -143.758015 
L 325.948784 -143.758015 
L 325.225284 -143.758015 
L 324.501783 -143.758015 
L 323.778282 -143.758015 
L 323.054781 -143.758015 
L 322.33128 -143.758015 
L 321.60778 -143.758015 
L 320.884279 -143.758015 
L 320.160778 -143.758015 
L 319.437277 -143.758015 
L 318.713776 -143.758015 
L 317.990276 -143.758015 
L 317.266775 -143.758015 
L 316.543274 -143.758015 
L 315.819773 -143.758015 
L 315.096272 -143.758015 
L 314.372771 -143.758015 
L 313.649271 -143.758015 
L 312.92577 -143.758015 
L 312.202269 -143.758015 
L 311.478768 -143.758015 
L 310.755267 -143.758015 
L 310.031767 -143.758015 
L 309.308266 -143.758015 
L 308.584765 -143.758015 
L 307.861264 -143.758015 
L 307.137763 -143.758015 
L 306.414263 -143.758015 
L 305.690762 -143.758015 
L 304.967261 -143.758015 
L 304.24376 -143.758015 
L 303.520259 -143.758015 
L 302.796759 -143.758015 
L 302.073258 -143.758015 
L 301.349757 -143.758015 
L 300.626256 -143.758015 
L 299.902755 -143.758015 
L 299.179254 -143.758015 
L 298.455754 -143.758015 
L 297.732253 -143.758015 
L 297.008752 -143.758015 
L 296.285251 -143.758015 
L 295.56175 -143.758015 
L 294.83825 -143.758015 
L 294.114749 -143.758015 
L 293.391248 -143.758015 
L 292.667747 -143.758015 
L 291.944246 -143.758015 
L 291.220746 -143.758015 
L 290.497245 -143.758015 
L 289.773744 -143.758015 
L 289.050243 -143.758015 
L 288.326742 -143.758015 
L 287.603241 -143.758015 
L 286.879741 -143.758015 
L 286.15624 -143.758015 
L 285.432739 -143.758015 
L 284.709238 -143.758015 
L 283.985737 -143.758015 
L 283.262237 -143.758015 
L 282.538736 -143.758015 
L 281.815235 -143.758015 
L 281.091734 -143.758015 
L 280.368233 -143.758015 
L 279.644733 -143.758015 
L 278.921232 -143.758015 
L 278.197731 -143.758015 
L 277.47423 -143.758015 
L 276.750729 -143.758015 
L 276.027229 -143.758015 
L 275.303728 -143.758015 
L 274.580227 -143.758015 
L 273.856726 -143.758015 
L 273.133225 -143.758015 
L 272.409724 -143.758015 
L 271.686224 -143.758015 
L 270.962723 -143.758015 
L 270.239222 -143.758015 
L 269.515721 -143.758015 
L 268.79222 -143.758015 
L 268.06872 -143.758015 
L 267.345219 -143.758015 
L 266.621718 -143.758015 
L 265.898217 -143.758015 
L 265.174716 -143.758015 
L 264.451216 -143.758015 
L 263.727715 -143.758015 
L 263.004214 -143.758015 
L 262.280713 -143.758015 
L 261.557212 -143.758015 
L 260.833712 -143.758015 
L 260.110211 -143.758015 
L 259.38671 -143.758015 
L 258.663209 -143.758015 
L 257.939708 -143.758015 
L 257.216207 -143.758015 
L 256.492707 -143.758015 
L 255.769206 -143.758015 
L 255.045705 -143.758015 
L 254.322204 -143.758015 
L 253.598703 -143.758015 
L 252.875203 -143.758015 
L 252.151702 -143.758015 
L 251.428201 -143.758015 
L 250.7047 -143.758015 
L 249.981199 -143.758015 
L 249.257699 -143.758015 
L 248.534198 -143.758015 
L 247.810697 -143.758015 
L 247.087196 -143.758015 
L 246.363695 -143.758015 
L 245.640194 -143.758015 
L 244.916694 -143.758015 
L 244.193193 -143.758015 
L 243.469692 -143.758015 
L 242.746191 -143.758015 
L 242.02269 -143.758015 
L 241.29919 -143.758015 
L 240.575689 -143.758015 
L 239.852188 -143.758015 
L 239.128687 -143.758015 
L 238.405186 -143.758015 
L 237.681686 -143.758015 
L 236.958185 -143.758015 
L 236.234684 -143.758015 
L 235.511183 -143.758015 
L 234.787682 -143.758015 
L 234.064182 -143.758015 
L 233.340681 -143.758015 
L 232.61718 -143.758015 
L 231.893679 -143.758015 
L 231.170178 -143.758015 
L 230.446677 -143.758015 
L 229.723177 -143.758015 
L 228.999676 -143.758015 
L 228.276175 -143.758015 
L 227.552674 -143.758015 
L 226.829173 -143.758015 
L 226.105673 -143.758015 
L 225.382172 -143.758015 
L 224.658671 -143.758015 
L 223.93517 -143.758015 
L 223.211669 -143.758015 
L 222.488169 -143.758015 
L 221.764668 -143.758015 
L 221.041167 -143.758015 
L 220.317666 -143.758015 
L 219.594165 -143.758015 
L 218.870665 -143.758015 
L 218.147164 -143.758015 
L 217.423663 -143.758015 
L 216.700162 -143.758015 
L 215.976661 -143.758015 
L 215.25316 -143.758015 
L 214.52966 -143.758015 
L 213.806159 -143.758015 
L 213.082658 -143.758015 
L 212.359157 -143.758015 
L 211.635656 -143.758015 
L 210.912156 -143.758015 
L 210.188655 -143.758015 
L 209.465154 -143.758015 
L 208.741653 -143.758015 
L 208.018152 -143.758015 
L 207.294652 -143.758015 
L 206.571151 -143.758015 
L 205.84765 -143.758015 
L 205.124149 -143.758015 
L 204.400648 -143.758015 
L 203.677147 -143.758015 
L 202.953647 -143.758015 
L 202.230146 -143.758015 
L 201.506645 -143.758015 
L 200.783144 -143.758015 
L 200.059643 -143.758015 
L 199.336143 -143.758015 
L 198.612642 -143.758015 
L 197.889141 -143.758015 
L 197.16564 -143.758015 
L 196.442139 -143.758015 
L 195.718639 -143.758015 
L 194.995138 -143.758015 
L 194.271637 -143.758015 
L 193.548136 -143.758015 
L 192.824635 -143.758015 
L 192.101135 -143.758015 
L 191.377634 -143.758015 
L 190.654133 -143.758015 
L 189.930632 -143.758015 
L 189.207131 -143.758015 
L 188.48363 -143.758015 
L 187.76013 -143.758015 
L 187.036629 -143.758015 
L 186.313128 -143.758015 
L 185.589627 -143.758015 
L 184.866126 -143.758015 
L 184.142626 -143.758015 
L 183.419125 -143.758015 
L 182.695624 -143.758015 
L 181.972123 -143.758015 
L 181.248622 -143.758015 
L 180.525122 -143.758015 
L 179.801621 -143.758015 
L 179.07812 -143.758015 
L 178.354619 -143.758015 
L 177.631118 -143.758015 
L 176.907618 -143.758015 
L 176.184117 -143.758015 
L 175.460616 -143.758015 
L 174.737115 -143.758015 
L 174.013614 -143.758015 
L 173.290113 -143.758015 
L 172.566613 -143.758015 
L 171.843112 -143.758015 
L 171.119611 -143.758015 
L 170.39611 -143.758015 
L 169.672609 -143.758015 
L 168.949109 -143.758015 
L 168.225608 -143.758015 
L 167.502107 -143.758015 
L 166.778606 -143.758015 
L 166.055105 -143.758015 
L 165.331605 -143.758015 
L 164.608104 -143.758015 
L 163.884603 -143.758015 
L 163.161102 -143.758015 
L 162.437601 -143.758015 
L 161.7141 -143.758015 
L 160.9906 -143.758015 
L 160.267099 -143.758015 
L 159.543598 -143.758015 
L 158.820097 -143.758015 
L 158.096596 -143.758015 
L 157.373096 -143.758015 
L 156.649595 -143.758015 
L 155.926094 -143.758015 
L 155.202593 -143.758015 
L 154.479092 -143.758015 
L 153.755592 -143.758015 
L 153.032091 -143.758015 
L 152.30859 -143.758015 
L 151.585089 -143.758015 
L 150.861588 -143.758015 
L 150.138088 -143.758015 
L 149.414587 -143.758015 
L 148.691086 -143.758015 
L 147.967585 -143.758015 
L 147.244084 -143.758015 
L 146.520583 -143.758015 
L 145.797083 -143.758015 
L 145.073582 -143.758015 
L 144.350081 -143.758015 
L 143.62658 -143.758015 
L 142.903079 -143.758015 
L 142.179579 -143.758015 
L 141.456078 -143.758015 
L 140.732577 -143.758015 
L 140.009076 -143.758015 
L 139.285575 -143.758015 
L 138.562075 -143.758015 
L 137.838574 -143.758015 
L 137.115073 -143.758015 
L 136.391572 -143.758015 
L 135.668071 -143.758015 
L 134.944571 -143.758015 
L 134.22107 -143.758015 
L 133.497569 -143.758015 
L 132.774068 -143.758015 
L 132.050567 -143.758015 
L 131.327066 -143.758015 
L 130.603566 -143.758015 
L 129.880065 -143.758015 
L 129.156564 -143.758015 
L 128.433063 -143.758015 
L 127.709562 -143.758015 
L 126.986062 -143.758015 
L 126.262561 -143.758015 
L 125.53906 -143.758015 
L 124.815559 -143.758015 
L 124.092058 -143.758015 
L 123.368558 -143.758015 
L 122.645057 -143.758015 
L 121.921556 -143.758015 
L 121.198055 -143.758015 
L 120.474554 -143.758015 
L 119.751053 -143.758015 
L 119.027553 -143.758015 
L 118.304052 -143.758015 
L 117.580551 -143.758015 
L 116.85705 -143.758015 
L 116.133549 -143.758015 
L 115.410049 -143.758015 
L 114.686548 -143.758015 
L 113.963047 -143.758015 
L 113.239546 -143.758015 
L 112.516045 -143.758015 
L 111.792545 -143.758015 
L 111.069044 -143.758015 
L 110.345543 -143.758015 
L 109.622042 -143.758015 
L 108.898541 -143.758015 
L 108.175041 -143.758015 
L 107.45154 -143.758015 
L 106.728039 -143.758015 
L 106.004538 -143.758015 
L 105.281037 -143.758015 
L 104.557536 -143.758015 
L 103.834036 -143.758015 
L 103.110535 -143.758015 
L 102.387034 -143.758015 
L 101.663533 -143.758015 
L 100.940032 -143.758015 
L 100.216532 -143.758015 
L 99.493031 -143.758015 
L 98.76953 -143.758015 
L 98.046029 -143.758015 
L 97.322528 -143.758015 
L 96.599028 -143.758015 
L 95.875527 -143.758015 
L 95.152026 -143.758015 
L 94.428525 -143.758015 
L 93.705024 -143.758015 
L 92.981524 -143.758015 
L 92.258023 -143.758015 
L 91.534522 -143.758015 
L 90.811021 -143.758015 
L 90.08752 -143.758015 
L 89.364019 -143.758015 
L 88.640519 -143.758015 
L 87.917018 -143.758015 
L 87.193517 -143.758015 
L 86.470016 -143.758015 
L 85.746515 -143.758015 
L 85.023015 -143.758015 
L 84.299514 -143.758015 
L 83.576013 -143.758015 
L 82.852512 -143.758015 
L 82.129011 -143.758015 
L 81.405511 -143.758015 
L 80.68201 -143.758015 
L 79.958509 -143.758015 
L 79.235008 -143.758015 
L 78.511507 -143.758015 
L 77.788006 -143.758015 
L 77.064506 -143.758015 
L 76.341005 -143.758015 
L 75.617504 -143.758015 
L 74.894003 -143.758015 
L 74.170502 -143.758015 
L 73.447002 -143.758015 
L 72.723501 -143.758015 
L 72 -143.758015 
z
" id="m5e20ce8d75"/>
    </defs>
    <g clip-path="url(#p5f5570a8be)">
     <use style="fill-opacity:0.15;" x="0" xlink:href="#m5e20ce8d75" y="360"/>
    </g>
   </g>
   <g id="matplotlib.axis_1">
    <g id="xtick_1">
     <g id="line2d_1">
      <defs>
       <path d="M 0 0 
L 0 3.5 
" id="m7932769d2d" style="stroke:#000000;stroke-width:0.8;"/>
      </defs>
      <g>
       <use style="stroke:#000000;stroke-width:0.8;" x="72" xlink:href="#m7932769d2d" y="320.4"/>
      </g>
     </g>
     <g id="text_1">
      <!-- 0.0 -->
      <g transform="translate(60.867812 338.037813)scale(0.14 -0.14)">
       <defs>
        <path d="M 2034 4250 
Q 1547 4250 1301 3770 
Q 1056 3291 1056 2328 
Q 1056 1369 1301 889 
Q 1547 409 2034 409 
Q 2525 409 2770 889 
Q 3016 1369 3016 2328 
Q 3016 3291 2770 3770 
Q 2525 4250 2034 4250 
z
M 2034 4750 
Q 2819 4750 3233 4129 
Q 3647 3509 3647 2328 
Q 3647 1150 3233 529 
Q 2819 -91 2034 -91 
Q 1250 -91 836 529 
Q 422 1150 422 2328 
Q 422 3509 836 4129 
Q 1250 4750 2034 4750 
z
" id="DejaVuSans-30" transform="scale(0.015625)"/>
        <path d="M 684 794 
L 1344 794 
L 1344 0 
L 684 0 
L 684 794 
z
" id="DejaVuSans-2e" transform="scale(0.015625)"/>
       </defs>
       <use xlink:href="#DejaVuSans-30"/>
       <use x="63.623047" xlink:href="#DejaVuSans-2e"/>
       <use x="95.410156" xlink:href="#DejaVuSans-30"/>
      </g>
     </g>
    </g>
    <g id="xtick_2">
     <g id="line2d_2">
      <g>
       <use style="stroke:#000000;stroke-width:0.8;" x="127.923031" xlink:href="#m7932769d2d" y="320.4"/>
      </g>
     </g>
     <g id="text_2">
      <!-- 2.5 -->
      <g transform="translate(116.790843 338.037813)scale(0.14 -0.14)">
       <defs>
        <path d="M 1228 531 
L 3431 531 
L 3431 0 
L 469 0 
L 469 531 
Q 828 903 1448 1529 
Q 2069 2156 2228 2338 
Q 2531 2678 2651 2914 
Q 2772 3150 2772 3378 
Q 2772 3750 2511 3984 
Q 2250 4219 1831 4219 
Q 1534 4219 1204 4116 
Q 875 4013 500 3803 
L 500 4441 
Q 881 4594 1212 4672 
Q 1544 4750 1819 4750 
Q 2544 4750 2975 4387 
Q 3406 4025 3406 3419 
Q 3406 3131 3298 2873 
Q 3191 2616 2906 2266 
Q 2828 2175 2409 1742 
Q 1991 1309 1228 531 
z
" id="DejaVuSans-32" transform="scale(0.015625)"/>
        <path d="M 691 4666 
L 3169 4666 
L 3169 4134 
L 1269 4134 
L 1269 2991 
Q 1406 3038 1543 3061 
Q 1681 3084 1819 3084 
Q 2600 3084 3056 2656 
Q 3513 2228 3513 1497 
Q 3513 744 3044 326 
Q 2575 -91 1722 -91 
Q 1428 -91 1123 -41 
Q 819 9 494 109 
L 494 744 
Q 775 591 1075 516 
Q 1375 441 1709 441 
Q 2250 441 2565 725 
Q 2881 1009 2881 1497 
Q 2881 1984 2565 2268 
Q 2250 2553 1709 2553 
Q 1456 2553 1204 2497 
Q 953 2441 691 2322 
L 691 4666 
z
" id="DejaVuSans-35" transform="scale(0.015625)"/>
       </defs>
       <use xlink:href="#DejaVuSans-32"/>
       <use x="63.623047" xlink:href="#DejaVuSans-2e"/>
       <use x="95.410156" xlink:href="#DejaVuSans-35"/>
      </g>
     </g>
    </g>
    <g id="xtick_3">
     <g id="line2d_3">
      <g>
       <use style="stroke:#000000;stroke-width:0.8;" x="183.846061" xlink:href="#m7932769d2d" y="320.4"/>
      </g>
     </g>
     <g id="text_3">
      <!-- 5.0 -->
      <g transform="translate(172.713874 338.037813)scale(0.14 -0.14)">
       <use xlink:href="#DejaVuSans-35"/>
       <use x="63.623047" xlink:href="#DejaVuSans-2e"/>
       <use x="95.410156" xlink:href="#DejaVuSans-30"/>
      </g>
     </g>
    </g>
    <g id="xtick_4">
     <g id="line2d_4">
      <g>
       <use style="stroke:#000000;stroke-width:0.8;" x="239.769092" xlink:href="#m7932769d2d" y="320.4"/>
      </g>
     </g>
     <g id="text_4">
      <!-- 7.5 -->
      <g transform="translate(228.636905 338.037813)scale(0.14 -0.14)">
       <defs>
        <path d="M 525 4666 
L 3525 4666 
L 3525 4397 
L 1831 0 
L 1172 0 
L 2766 4134 
L 525 4134 
L 525 4666 
z
" id="DejaVuSans-37" transform="scale(0.015625)"/>
       </defs>
       <use xlink:href="#DejaVuSans-37"/>
       <use x="63.623047" xlink:href="#DejaVuSans-2e"/>
       <use x="95.410156" xlink:href="#DejaVuSans-35"/>
      </g>
     </g>
    </g>
    <g id="xtick_5">
     <g id="line2d_5">
      <g>
       <use style="stroke:#000000;stroke-width:0.8;" x="295.692123" xlink:href="#m7932769d2d" y="320.4"/>
      </g>
     </g>
     <g id="text_5">
      <!-- 10.0 -->
      <g transform="translate(280.106185 338.037813)scale(0.14 -0.14)">
       <defs>
        <path d="M 794 531 
L 1825 531 
L 1825 4091 
L 703 3866 
L 703 4441 
L 1819 4666 
L 2450 4666 
L 2450 531 
L 3481 531 
L 3481 0 
L 794 0 
L 794 531 
z
" id="DejaVuSans-31" transform="scale(0.015625)"/>
       </defs>
       <use xlink:href="#DejaVuSans-31"/>
       <use x="63.623047" xlink:href="#DejaVuSans-30"/>
       <use x="127.246094" xlink:href="#DejaVuSans-2e"/>
       <use x="159.033203" xlink:href="#DejaVuSans-30"/>
      </g>
     </g>
    </g>
    <g id="xtick_6">
     <g id="line2d_6">
      <g>
       <use style="stroke:#000000;stroke-width:0.8;" x="351.615153" xlink:href="#m7932769d2d" y="320.4"/>
      </g>
     </g>
     <g id="text_6">
      <!-- 12.5 -->
      <g transform="translate(336.029216 338.037813)scale(0.14 -0.14)">
       <use xlink:href="#DejaVuSans-31"/>
       <use x="63.623047" xlink:href="#DejaVuSans-32"/>
       <use x="127.246094" xlink:href="#DejaVuSans-2e"/>
       <use x="159.033203" xlink:href="#DejaVuSans-35"/>
      </g>
     </g>
    </g>
    <g id="xtick_7">
     <g id="line2d_7">
      <g>
       <use style="stroke:#000000;stroke-width:0.8;" x="407.538184" xlink:href="#m7932769d2d" y="320.4"/>
      </g>
     </g>
     <g id="text_7">
      <!-- 15.0 -->
      <g transform="translate(391.952247 338.037813)scale(0.14 -0.14)">
       <use xlink:href="#DejaVuSans-31"/>
       <use x="63.623047" xlink:href="#DejaVuSans-35"/>
       <use x="127.246094" xlink:href="#DejaVuSans-2e"/>
       <use x="159.033203" xlink:href="#DejaVuSans-30"/>
      </g>
     </g>
    </g>
    <g id="xtick_8">
     <g id="line2d_8">
      <g>
       <use style="stroke:#000000;stroke-width:0.8;" x="463.461215" xlink:href="#m7932769d2d" y="320.4"/>
      </g>
     </g>
     <g id="text_8">
      <!-- 17.5 -->
      <g transform="translate(447.875277 338.037813)scale(0.14 -0.14)">
       <use xlink:href="#DejaVuSans-31"/>
       <use x="63.623047" xlink:href="#DejaVuSans-37"/>
       <use x="127.246094" xlink:href="#DejaVuSans-2e"/>
       <use x="159.033203" xlink:href="#DejaVuSans-35"/>
      </g>
     </g>
    </g>
    <g id="text_9">
     <!-- Time [Seconds] -->
     <g transform="translate(233.23 357.106875)scale(0.16 -0.16)">
      <defs>
       <path d="M -19 4666 
L 3928 4666 
L 3928 4134 
L 2272 4134 
L 2272 0 
L 1638 0 
L 1638 4134 
L -19 4134 
L -19 4666 
z
" id="DejaVuSans-54" transform="scale(0.015625)"/>
       <path d="M 603 3500 
L 1178 3500 
L 1178 0 
L 603 0 
L 603 3500 
z
M 603 4863 
L 1178 4863 
L 1178 4134 
L 603 4134 
L 603 4863 
z
" id="DejaVuSans-69" transform="scale(0.015625)"/>
       <path d="M 3328 2828 
Q 3544 3216 3844 3400 
Q 4144 3584 4550 3584 
Q 5097 3584 5394 3201 
Q 5691 2819 5691 2113 
L 5691 0 
L 5113 0 
L 5113 2094 
Q 5113 2597 4934 2840 
Q 4756 3084 4391 3084 
Q 3944 3084 3684 2787 
Q 3425 2491 3425 1978 
L 3425 0 
L 2847 0 
L 2847 2094 
Q 2847 2600 2669 2842 
Q 2491 3084 2119 3084 
Q 1678 3084 1418 2786 
Q 1159 2488 1159 1978 
L 1159 0 
L 581 0 
L 581 3500 
L 1159 3500 
L 1159 2956 
Q 1356 3278 1631 3431 
Q 1906 3584 2284 3584 
Q 2666 3584 2933 3390 
Q 3200 3197 3328 2828 
z
" id="DejaVuSans-6d" transform="scale(0.015625)"/>
       <path d="M 3597 1894 
L 3597 1613 
L 953 1613 
Q 991 1019 1311 708 
Q 1631 397 2203 397 
Q 2534 397 2845 478 
Q 3156 559 3463 722 
L 3463 178 
Q 3153 47 2828 -22 
Q 2503 -91 2169 -91 
Q 1331 -91 842 396 
Q 353 884 353 1716 
Q 353 2575 817 3079 
Q 1281 3584 2069 3584 
Q 2775 3584 3186 3129 
Q 3597 2675 3597 1894 
z
M 3022 2063 
Q 3016 2534 2758 2815 
Q 2500 3097 2075 3097 
Q 1594 3097 1305 2825 
Q 1016 2553 972 2059 
L 3022 2063 
z
" id="DejaVuSans-65" transform="scale(0.015625)"/>
       <path id="DejaVuSans-20" transform="scale(0.015625)"/>
       <path d="M 550 4863 
L 1875 4863 
L 1875 4416 
L 1125 4416 
L 1125 -397 
L 1875 -397 
L 1875 -844 
L 550 -844 
L 550 4863 
z
" id="DejaVuSans-5b" transform="scale(0.015625)"/>
       <path d="M 3425 4513 
L 3425 3897 
Q 3066 4069 2747 4153 
Q 2428 4238 2131 4238 
Q 1616 4238 1336 4038 
Q 1056 3838 1056 3469 
Q 1056 3159 1242 3001 
Q 1428 2844 1947 2747 
L 2328 2669 
Q 3034 2534 3370 2195 
Q 3706 1856 3706 1288 
Q 3706 609 3251 259 
Q 2797 -91 1919 -91 
Q 1588 -91 1214 -16 
Q 841 59 441 206 
L 441 856 
Q 825 641 1194 531 
Q 1563 422 1919 422 
Q 2459 422 2753 634 
Q 3047 847 3047 1241 
Q 3047 1584 2836 1778 
Q 2625 1972 2144 2069 
L 1759 2144 
Q 1053 2284 737 2584 
Q 422 2884 422 3419 
Q 422 4038 858 4394 
Q 1294 4750 2059 4750 
Q 2388 4750 2728 4690 
Q 3069 4631 3425 4513 
z
" id="DejaVuSans-53" transform="scale(0.015625)"/>
       <path d="M 3122 3366 
L 3122 2828 
Q 2878 2963 2633 3030 
Q 2388 3097 2138 3097 
Q 1578 3097 1268 2742 
Q 959 2388 959 1747 
Q 959 1106 1268 751 
Q 1578 397 2138 397 
Q 2388 397 2633 464 
Q 2878 531 3122 666 
L 3122 134 
Q 2881 22 2623 -34 
Q 2366 -91 2075 -91 
Q 1284 -91 818 406 
Q 353 903 353 1747 
Q 353 2603 823 3093 
Q 1294 3584 2113 3584 
Q 2378 3584 2631 3529 
Q 2884 3475 3122 3366 
z
" id="DejaVuSans-63" transform="scale(0.015625)"/>
       <path d="M 1959 3097 
Q 1497 3097 1228 2736 
Q 959 2375 959 1747 
Q 959 1119 1226 758 
Q 1494 397 1959 397 
Q 2419 397 2687 759 
Q 2956 1122 2956 1747 
Q 2956 2369 2687 2733 
Q 2419 3097 1959 3097 
z
M 1959 3584 
Q 2709 3584 3137 3096 
Q 3566 2609 3566 1747 
Q 3566 888 3137 398 
Q 2709 -91 1959 -91 
Q 1206 -91 779 398 
Q 353 888 353 1747 
Q 353 2609 779 3096 
Q 1206 3584 1959 3584 
z
" id="DejaVuSans-6f" transform="scale(0.015625)"/>
       <path d="M 3513 2113 
L 3513 0 
L 2938 0 
L 2938 2094 
Q 2938 2591 2744 2837 
Q 2550 3084 2163 3084 
Q 1697 3084 1428 2787 
Q 1159 2491 1159 1978 
L 1159 0 
L 581 0 
L 581 3500 
L 1159 3500 
L 1159 2956 
Q 1366 3272 1645 3428 
Q 1925 3584 2291 3584 
Q 2894 3584 3203 3211 
Q 3513 2838 3513 2113 
z
" id="DejaVuSans-6e" transform="scale(0.015625)"/>
       <path d="M 2906 2969 
L 2906 4863 
L 3481 4863 
L 3481 0 
L 2906 0 
L 2906 525 
Q 2725 213 2448 61 
Q 2172 -91 1784 -91 
Q 1150 -91 751 415 
Q 353 922 353 1747 
Q 353 2572 751 3078 
Q 1150 3584 1784 3584 
Q 2172 3584 2448 3432 
Q 2725 3281 2906 2969 
z
M 947 1747 
Q 947 1113 1208 752 
Q 1469 391 1925 391 
Q 2381 391 2643 752 
Q 2906 1113 2906 1747 
Q 2906 2381 2643 2742 
Q 2381 3103 1925 3103 
Q 1469 3103 1208 2742 
Q 947 2381 947 1747 
z
" id="DejaVuSans-64" transform="scale(0.015625)"/>
       <path d="M 2834 3397 
L 2834 2853 
Q 2591 2978 2328 3040 
Q 2066 3103 1784 3103 
Q 1356 3103 1142 2972 
Q 928 2841 928 2578 
Q 928 2378 1081 2264 
Q 1234 2150 1697 2047 
L 1894 2003 
Q 2506 1872 2764 1633 
Q 3022 1394 3022 966 
Q 3022 478 2636 193 
Q 2250 -91 1575 -91 
Q 1294 -91 989 -36 
Q 684 19 347 128 
L 347 722 
Q 666 556 975 473 
Q 1284 391 1588 391 
Q 1994 391 2212 530 
Q 2431 669 2431 922 
Q 2431 1156 2273 1281 
Q 2116 1406 1581 1522 
L 1381 1569 
Q 847 1681 609 1914 
Q 372 2147 372 2553 
Q 372 3047 722 3315 
Q 1072 3584 1716 3584 
Q 2034 3584 2315 3537 
Q 2597 3491 2834 3397 
z
" id="DejaVuSans-73" transform="scale(0.015625)"/>
       <path d="M 1947 4863 
L 1947 -844 
L 622 -844 
L 622 -397 
L 1369 -397 
L 1369 4416 
L 622 4416 
L 622 4863 
L 1947 4863 
z
" id="DejaVuSans-5d" transform="scale(0.015625)"/>
      </defs>
      <use xlink:href="#DejaVuSans-54"/>
      <use x="57.958984" xlink:href="#DejaVuSans-69"/>
      <use x="85.742188" xlink:href="#DejaVuSans-6d"/>
      <use x="183.154297" xlink:href="#DejaVuSans-65"/>
      <use x="244.677734" xlink:href="#DejaVuSans-20"/>
      <use x="276.464844" xlink:href="#DejaVuSans-5b"/>
      <use x="315.478516" xlink:href="#DejaVuSans-53"/>
      <use x="378.955078" xlink:href="#DejaVuSans-65"/>
      <use x="440.478516" xlink:href="#DejaVuSans-63"/>
      <use x="495.458984" xlink:href="#DejaVuSans-6f"/>
      <use x="556.640625" xlink:href="#DejaVuSans-6e"/>
      <use x="620.019531" xlink:href="#DejaVuSans-64"/>
      <use x="683.496094" xlink:href="#DejaVuSans-73"/>
      <use x="735.595703" xlink:href="#DejaVuSans-5d"/>
     </g>
    </g>
   </g>
   <g id="matplotlib.axis_2">
    <g id="ytick_1">
     <g id="line2d_9">
      <defs>
       <path d="M 0 0 
L -3.5 0 
" id="m3d11c3274d" style="stroke:#000000;stroke-width:0.8;"/>
      </defs>
      <g>
       <use style="stroke:#000000;stroke-width:0.8;" x="72" xlink:href="#m3d11c3274d" y="285.766151"/>
      </g>
     </g>
     <g id="text_10">
      <!-- 0.0 -->
      <g transform="translate(42.735625 291.085057)scale(0.14 -0.14)">
       <use xlink:href="#DejaVuSans-30"/>
       <use x="63.623047" xlink:href="#DejaVuSans-2e"/>
       <use x="95.410156" xlink:href="#DejaVuSans-30"/>
      </g>
     </g>
    </g>
    <g id="ytick_2">
     <g id="line2d_10">
      <g>
       <use style="stroke:#000000;stroke-width:0.8;" x="72" xlink:href="#m3d11c3274d" y="233.651435"/>
      </g>
     </g>
     <g id="text_11">
      <!-- 0.5 -->
      <g transform="translate(42.735625 238.970341)scale(0.14 -0.14)">
       <use xlink:href="#DejaVuSans-30"/>
       <use x="63.623047" xlink:href="#DejaVuSans-2e"/>
       <use x="95.410156" xlink:href="#DejaVuSans-35"/>
      </g>
     </g>
    </g>
    <g id="ytick_3">
     <g id="line2d_11">
      <g>
       <use style="stroke:#000000;stroke-width:0.8;" x="72" xlink:href="#m3d11c3274d" y="181.536719"/>
      </g>
     </g>
     <g id="text_12">
      <!-- 1.0 -->
      <g transform="translate(42.735625 186.855625)scale(0.14 -0.14)">
       <use xlink:href="#DejaVuSans-31"/>
       <use x="63.623047" xlink:href="#DejaVuSans-2e"/>
       <use x="95.410156" xlink:href="#DejaVuSans-30"/>
      </g>
     </g>
    </g>
    <g id="ytick_4">
     <g id="line2d_12">
      <g>
       <use style="stroke:#000000;stroke-width:0.8;" x="72" xlink:href="#m3d11c3274d" y="129.422002"/>
      </g>
     </g>
     <g id="text_13">
      <!-- 1.5 -->
      <g transform="translate(42.735625 134.740909)scale(0.14 -0.14)">
       <use xlink:href="#DejaVuSans-31"/>
       <use x="63.623047" xlink:href="#DejaVuSans-2e"/>
       <use x="95.410156" xlink:href="#DejaVuSans-35"/>
      </g>
     </g>
    </g>
    <g id="ytick_5">
     <g id="line2d_13">
      <g>
       <use style="stroke:#000000;stroke-width:0.8;" x="72" xlink:href="#m3d11c3274d" y="77.307286"/>
      </g>
     </g>
     <g id="text_14">
      <!-- 2.0 -->
      <g transform="translate(42.735625 82.626193)scale(0.14 -0.14)">
       <use xlink:href="#DejaVuSans-32"/>
       <use x="63.623047" xlink:href="#DejaVuSans-2e"/>
       <use x="95.410156" xlink:href="#DejaVuSans-30"/>
      </g>
     </g>
    </g>
    <g id="text_15">
     <!-- Speed [mm/s] -->
     <g transform="translate(35.408125 238.11375)rotate(-90)scale(0.16 -0.16)">
      <defs>
       <path d="M 1159 525 
L 1159 -1331 
L 581 -1331 
L 581 3500 
L 1159 3500 
L 1159 2969 
Q 1341 3281 1617 3432 
Q 1894 3584 2278 3584 
Q 2916 3584 3314 3078 
Q 3713 2572 3713 1747 
Q 3713 922 3314 415 
Q 2916 -91 2278 -91 
Q 1894 -91 1617 61 
Q 1341 213 1159 525 
z
M 3116 1747 
Q 3116 2381 2855 2742 
Q 2594 3103 2138 3103 
Q 1681 3103 1420 2742 
Q 1159 2381 1159 1747 
Q 1159 1113 1420 752 
Q 1681 391 2138 391 
Q 2594 391 2855 752 
Q 3116 1113 3116 1747 
z
" id="DejaVuSans-70" transform="scale(0.015625)"/>
       <path d="M 1625 4666 
L 2156 4666 
L 531 -594 
L 0 -594 
L 1625 4666 
z
" id="DejaVuSans-2f" transform="scale(0.015625)"/>
      </defs>
      <use xlink:href="#DejaVuSans-53"/>
      <use x="63.476562" xlink:href="#DejaVuSans-70"/>
      <use x="126.953125" xlink:href="#DejaVuSans-65"/>
      <use x="188.476562" xlink:href="#DejaVuSans-65"/>
      <use x="250" xlink:href="#DejaVuSans-64"/>
      <use x="313.476562" xlink:href="#DejaVuSans-20"/>
      <use x="345.263672" xlink:href="#DejaVuSans-5b"/>
      <use x="384.277344" xlink:href="#DejaVuSans-6d"/>
      <use x="481.689453" xlink:href="#DejaVuSans-6d"/>
      <use x="579.101562" xlink:href="#DejaVuSans-2f"/>
      <use x="612.792969" xlink:href="#DejaVuSans-73"/>
      <use x="664.892578" xlink:href="#DejaVuSans-5d"/>
     </g>
    </g>
   </g>
   <g id="line2d_14">
    <path clip-path="url(#p5f5570a8be)" d="M 72 214.050861 
L 518.4 214.050861 
" style="fill:none;stroke:#000000;stroke-dasharray:5.55,2.4;stroke-dashoffset:0;stroke-width:1.5;"/>
   </g>
   <g id="line2d_15">
    <path clip-path="url(#p5f5570a8be)" d="M 72 284.933204 
L 143.62658 284.869721 
L 144.350081 285.204263 
L 145.073582 283.956175 
L 145.797083 282.463264 
L 146.520583 284.02238 
L 147.244084 286.174502 
L 147.967585 284.855463 
L 148.691086 285.963255 
L 149.414587 295.598166 
L 150.138088 266.957888 
L 150.861588 262.805015 
L 151.585089 299.705242 
L 152.30859 306.188381 
L 153.032091 307.342591 
L 153.755592 307.8 
L 154.479092 301.862359 
L 155.202593 285.010879 
L 155.926094 261.18806 
L 157.373096 202.334036 
L 158.820097 137.290341 
L 160.267099 88.149174 
L 160.9906 70.110862 
L 161.7141 60.239383 
L 162.437601 55.8 
L 163.161102 59.092391 
L 163.884603 68.611192 
L 164.608104 81.991208 
L 165.331605 100.132029 
L 168.225608 188.486917 
L 168.949109 206.622621 
L 169.672609 217.023654 
L 170.39611 221.770631 
L 171.119611 216.299963 
L 171.843112 177.920928 
L 172.566613 181.02951 
L 173.290113 203.635906 
L 174.013614 189.146706 
L 174.737115 188.886599 
L 175.460616 195.349937 
L 176.184117 200.169098 
L 176.907618 202.176658 
L 178.354619 208.183138 
L 179.07812 209.445017 
L 179.801621 209.357369 
L 180.525122 210.346056 
L 181.248622 212.455347 
L 181.972123 209.794823 
L 182.695624 209.186197 
L 183.419125 210.585197 
L 184.142626 209.613364 
L 185.589627 210.09037 
L 186.313128 209.008014 
L 187.036629 209.040222 
L 187.76013 208.81115 
L 188.48363 207.854841 
L 189.207131 208.291835 
L 189.930632 207.646195 
L 190.654133 207.8343 
L 191.377634 208.602407 
L 192.101135 208.603838 
L 194.271637 211.220265 
L 194.995138 211.932869 
L 195.718639 211.67165 
L 196.442139 212.570852 
L 197.16564 213.997997 
L 198.612642 214.648359 
L 200.059643 214.49977 
L 200.783144 215.221901 
L 201.506645 215.071945 
L 202.230146 214.115321 
L 202.953647 213.998318 
L 203.677147 213.676246 
L 204.400648 213.48839 
L 205.124149 213.99928 
L 205.84765 213.210297 
L 206.571151 212.906209 
L 207.294652 213.080227 
L 208.741653 212.269183 
L 209.465154 211.437702 
L 210.912156 212.006166 
L 211.635656 211.371624 
L 212.359157 211.519626 
L 213.082658 212.175302 
L 213.806159 213.026203 
L 214.52966 213.437918 
L 215.25316 213.270086 
L 217.423663 213.907778 
L 218.870665 215.35775 
L 219.594165 215.308005 
L 220.317666 215.899407 
L 221.041167 216.192593 
L 221.764668 215.846874 
L 222.488169 215.689896 
L 223.211669 215.768 
L 223.93517 215.451357 
L 224.658671 214.653192 
L 225.382172 214.494047 
L 226.829173 214.40798 
L 227.552674 214.241662 
L 228.276175 214.206028 
L 230.446677 213.051621 
L 231.170178 212.64374 
L 232.61718 212.895588 
L 233.340681 212.76793 
L 234.064182 212.871463 
L 234.787682 213.131273 
L 236.234684 213.33731 
L 239.852188 214.742519 
L 240.575689 214.76619 
L 241.29919 214.921528 
L 242.02269 215.544347 
L 242.746191 215.587307 
L 243.469692 215.075971 
L 244.193193 215.287268 
L 244.916694 215.991822 
L 245.640194 215.728597 
L 246.363695 214.826439 
L 247.087196 215.021715 
L 247.810697 215.503591 
L 248.534198 215.343283 
L 249.257699 215.001175 
L 249.981199 214.99241 
L 250.7047 214.845666 
L 252.151702 214.263385 
L 252.875203 214.096428 
L 253.598703 214.35984 
L 254.322204 213.892239 
L 255.045705 213.682698 
L 255.769206 214.230684 
L 256.492707 214.07804 
L 257.216207 213.300921 
L 257.939708 213.227516 
L 258.663209 213.762503 
L 259.38671 213.692231 
L 260.110211 213.428856 
L 260.833712 213.765698 
L 261.557212 214.390316 
L 262.280713 214.602248 
L 263.004214 214.342648 
L 263.727715 214.236303 
L 265.174716 214.947755 
L 267.345219 215.344767 
L 268.06872 214.803636 
L 268.79222 214.676971 
L 269.515721 214.996138 
L 270.239222 215.015179 
L 272.409724 214.163401 
L 273.133225 213.912945 
L 273.856726 213.865122 
L 275.303728 214.186969 
L 276.027229 213.648807 
L 276.750729 213.749651 
L 277.47423 214.471539 
L 278.197731 214.458029 
L 278.921232 214.014154 
L 281.091734 214.674745 
L 281.815235 214.441244 
L 282.538736 214.456935 
L 283.262237 215.199324 
L 283.985737 215.315244 
L 284.709238 214.404779 
L 285.432739 214.218381 
L 286.15624 214.671731 
L 287.603241 215.160106 
L 288.326742 214.725675 
L 289.050243 214.89634 
L 289.773744 214.900346 
L 290.497245 214.326958 
L 291.220746 214.54947 
L 291.944246 215.189884 
L 292.667747 215.085381 
L 293.391248 214.635127 
L 294.114749 214.331425 
L 294.83825 214.41656 
L 295.56175 214.644828 
L 296.285251 214.161556 
L 297.008752 213.957995 
L 297.732253 214.389005 
L 298.455754 214.56782 
L 299.179254 214.103007 
L 299.902755 213.91153 
L 301.349757 214.588783 
L 303.520259 213.824973 
L 304.24376 213.909017 
L 304.967261 214.402099 
L 305.690762 214.33537 
L 306.414263 214.004084 
L 307.137763 214.182891 
L 307.861264 214.618635 
L 309.308266 214.997778 
L 310.031767 214.496856 
L 310.755267 214.885099 
L 311.478768 215.464645 
L 312.202269 215.029952 
L 312.92577 215.266868 
L 313.649271 215.810495 
L 314.372771 215.685423 
L 315.096272 214.910648 
L 315.819773 214.430294 
L 316.543274 214.769614 
L 317.266775 214.722095 
L 317.990276 214.022789 
L 318.713776 214.026479 
L 319.437277 214.362058 
L 320.160778 214.088094 
L 320.884279 213.459312 
L 321.60778 213.333429 
L 322.33128 213.716106 
L 323.054781 213.739918 
L 323.778282 213.635682 
L 325.948784 214.126239 
L 326.672285 213.851995 
L 327.395786 213.955613 
L 328.119287 214.460211 
L 331.01329 215.015392 
L 331.736791 214.606131 
L 332.460292 214.397591 
L 333.183793 214.949063 
L 333.907293 215.040681 
L 334.630794 214.776045 
L 336.077796 214.866481 
L 336.801297 214.512378 
L 337.524797 214.84886 
L 338.248298 214.910684 
L 338.971799 214.537295 
L 339.6953 214.33901 
L 340.418801 214.43291 
L 341.865802 214.862799 
L 342.589303 214.90789 
L 344.036305 214.568201 
L 346.930308 214.34801 
L 347.653809 214.429049 
L 348.37731 214.129256 
L 349.10081 214.135693 
L 349.824311 214.484059 
L 351.994814 214.411584 
L 352.718314 214.573245 
L 354.165316 214.375686 
L 354.888817 214.977101 
L 355.612318 214.889779 
L 356.335818 214.463925 
L 357.059319 214.937487 
L 357.78282 214.982791 
L 358.506321 214.691008 
L 359.229822 214.790921 
L 362.123825 214.105446 
L 362.847326 214.573384 
L 363.570827 214.62329 
L 364.294327 214.532873 
L 365.741329 213.99192 
L 366.46483 214.517807 
L 367.188331 214.469472 
L 367.911831 214.135128 
L 369.358833 214.284408 
L 370.082334 214.101345 
L 370.805835 214.166827 
L 371.529335 214.701497 
L 372.976337 214.912456 
L 373.699838 214.764812 
L 375.14684 214.782332 
L 375.87034 214.44604 
L 376.593841 214.3644 
L 377.317342 214.106633 
L 378.040843 214.380712 
L 378.764344 214.890872 
L 379.487844 214.752149 
L 380.211345 214.430378 
L 380.934846 214.427454 
L 381.658347 214.576625 
L 382.381848 214.50549 
L 383.105348 214.183072 
L 383.828849 214.361595 
L 384.55235 215.066063 
L 385.999352 214.917283 
L 386.722853 214.574625 
L 387.446353 214.562857 
L 388.169854 215.132257 
L 389.616856 214.31947 
L 390.340357 214.227431 
L 391.063857 213.999581 
L 391.787358 213.643183 
L 392.510859 213.68193 
L 393.23436 214.119892 
L 395.404862 214.162181 
L 396.128363 214.356129 
L 396.851864 214.716589 
L 398.298865 214.251962 
L 399.022366 214.33238 
L 400.469368 214.816673 
L 401.91637 214.764727 
L 403.363371 215.089036 
L 404.086872 214.845474 
L 405.533874 215.014894 
L 406.257374 214.683353 
L 406.980875 214.519146 
L 407.704376 214.686875 
L 409.151378 214.343196 
L 409.874878 214.600373 
L 410.598379 214.413191 
L 411.32188 214.03942 
L 413.492382 213.895008 
L 414.215883 214.172181 
L 414.939384 214.610257 
L 415.662885 214.916351 
L 416.386386 214.884758 
L 417.109887 214.605615 
L 417.833387 214.609216 
L 418.556888 214.73774 
L 419.280389 214.628691 
L 420.00389 214.312117 
L 421.450891 214.738894 
L 422.174392 214.182383 
L 422.897893 213.776083 
L 424.344895 214.765036 
L 425.068395 214.647821 
L 425.791896 214.724776 
L 426.515397 215.339865 
L 427.238898 215.060426 
L 427.962399 214.567099 
L 428.6859 214.683906 
L 429.4094 215.097142 
L 430.132901 215.031425 
L 430.856402 214.606799 
L 431.579903 214.482895 
L 432.303404 214.054639 
L 433.750405 214.288822 
L 434.473906 213.660816 
L 435.197407 213.302762 
L 436.644408 214.018432 
L 438.09141 214.536305 
L 438.814911 214.727158 
L 439.538412 214.642922 
L 440.261912 214.722157 
L 440.985413 214.964083 
L 441.708914 214.643546 
L 442.432415 214.913 
L 443.155916 214.980327 
L 443.879417 214.345908 
L 445.326418 214.717389 
L 446.049919 214.42394 
L 446.77342 214.645292 
L 448.220421 214.631175 
L 449.667423 214.497293 
L 451.114425 215.044488 
L 451.837925 214.960613 
L 453.284927 213.969929 
L 454.008428 213.8165 
L 454.731929 214.141345 
L 455.455429 214.145108 
L 456.17893 213.557982 
L 456.902431 213.695111 
L 457.625932 214.176035 
L 458.349433 213.81194 
L 459.072934 213.763361 
L 459.796434 214.609939 
L 460.519935 215.029223 
L 461.243436 214.411173 
L 461.966937 214.562645 
L 462.690438 215.395225 
L 464.137439 214.908002 
L 465.584441 215.210122 
L 466.307942 215.10298 
L 467.031442 214.291417 
L 467.754943 213.933784 
L 468.478444 214.208037 
L 469.201945 213.943588 
L 469.925446 213.803415 
L 470.648947 214.085397 
L 471.372447 214.120307 
L 472.095948 214.334019 
L 472.819449 214.296129 
L 473.54295 214.55298 
L 474.266451 214.984011 
L 477.160454 215.459404 
L 477.883955 214.541036 
L 478.607455 214.561739 
L 479.330956 214.729381 
L 480.054457 213.680183 
L 480.777958 213.735455 
L 481.501459 214.418454 
L 482.224959 214.089306 
L 482.94846 213.608409 
L 483.671961 213.91141 
L 484.395462 214.520065 
L 485.118963 214.199577 
L 485.842464 214.170459 
L 487.289465 215.09473 
L 488.012966 215.13465 
L 488.736467 214.463041 
L 489.459968 214.443084 
L 490.183468 214.621391 
L 493.800972 214.272803 
L 494.524473 213.706861 
L 495.247974 213.758752 
L 495.971475 214.534737 
L 497.418476 215.172147 
L 498.141977 215.629164 
L 498.865478 215.5721 
L 499.588979 215.049872 
L 500.31248 215.390442 
L 501.035981 215.228159 
L 501.759481 214.321818 
L 503.206483 214.116169 
L 503.929984 213.719318 
L 506.100486 213.696129 
L 508.270989 214.051669 
L 510.441491 214.558499 
L 513.335494 215.322852 
L 514.782496 215.480591 
L 515.505997 215.435593 
L 516.229498 215.277102 
L 516.952998 214.979543 
L 517.676499 214.515426 
L 518.4 213.85535 
L 518.4 213.85535 
" style="fill:none;stroke:#ff0000;stroke-linecap:square;stroke-width:2;"/>
   </g>
   <g id="patch_3">
    <path d="M 72 320.4 
L 72 43.2 
" style="fill:none;stroke:#000000;stroke-linecap:square;stroke-linejoin:miter;stroke-width:0.8;"/>
   </g>
   <g id="patch_4">
    <path d="M 518.4 320.4 
L 518.4 43.2 
" style="fill:none;stroke:#000000;stroke-linecap:square;stroke-linejoin:miter;stroke-width:0.8;"/>
   </g>
   <g id="patch_5">
    <path d="M 72 320.4 
L 518.4 320.4 
" style="fill:none;stroke:#000000;stroke-linecap:square;stroke-linejoin:miter;stroke-width:0.8;"/>
   </g>
   <g id="patch_6">
    <path d="M 72 43.2 
L 518.4 43.2 
" style="fill:none;stroke:#000000;stroke-linecap:square;stroke-linejoin:miter;stroke-width:0.8;"/>
   </g>
   <g id="text_16">
    <!-- Front Propogation Speed -->
    <g transform="translate(172.245312 37.2)scale(0.2 -0.2)">
     <defs>
      <path d="M 628 4666 
L 3309 4666 
L 3309 4134 
L 1259 4134 
L 1259 2759 
L 3109 2759 
L 3109 2228 
L 1259 2228 
L 1259 0 
L 628 0 
L 628 4666 
z
" id="DejaVuSans-46" transform="scale(0.015625)"/>
      <path d="M 2631 2963 
Q 2534 3019 2420 3045 
Q 2306 3072 2169 3072 
Q 1681 3072 1420 2755 
Q 1159 2438 1159 1844 
L 1159 0 
L 581 0 
L 581 3500 
L 1159 3500 
L 1159 2956 
Q 1341 3275 1631 3429 
Q 1922 3584 2338 3584 
Q 2397 3584 2469 3576 
Q 2541 3569 2628 3553 
L 2631 2963 
z
" id="DejaVuSans-72" transform="scale(0.015625)"/>
      <path d="M 1172 4494 
L 1172 3500 
L 2356 3500 
L 2356 3053 
L 1172 3053 
L 1172 1153 
Q 1172 725 1289 603 
Q 1406 481 1766 481 
L 2356 481 
L 2356 0 
L 1766 0 
Q 1100 0 847 248 
Q 594 497 594 1153 
L 594 3053 
L 172 3053 
L 172 3500 
L 594 3500 
L 594 4494 
L 1172 4494 
z
" id="DejaVuSans-74" transform="scale(0.015625)"/>
      <path d="M 1259 4147 
L 1259 2394 
L 2053 2394 
Q 2494 2394 2734 2622 
Q 2975 2850 2975 3272 
Q 2975 3691 2734 3919 
Q 2494 4147 2053 4147 
L 1259 4147 
z
M 628 4666 
L 2053 4666 
Q 2838 4666 3239 4311 
Q 3641 3956 3641 3272 
Q 3641 2581 3239 2228 
Q 2838 1875 2053 1875 
L 1259 1875 
L 1259 0 
L 628 0 
L 628 4666 
z
" id="DejaVuSans-50" transform="scale(0.015625)"/>
      <path d="M 2906 1791 
Q 2906 2416 2648 2759 
Q 2391 3103 1925 3103 
Q 1463 3103 1205 2759 
Q 947 2416 947 1791 
Q 947 1169 1205 825 
Q 1463 481 1925 481 
Q 2391 481 2648 825 
Q 2906 1169 2906 1791 
z
M 3481 434 
Q 3481 -459 3084 -895 
Q 2688 -1331 1869 -1331 
Q 1566 -1331 1297 -1286 
Q 1028 -1241 775 -1147 
L 775 -588 
Q 1028 -725 1275 -790 
Q 1522 -856 1778 -856 
Q 2344 -856 2625 -561 
Q 2906 -266 2906 331 
L 2906 616 
Q 2728 306 2450 153 
Q 2172 0 1784 0 
Q 1141 0 747 490 
Q 353 981 353 1791 
Q 353 2603 747 3093 
Q 1141 3584 1784 3584 
Q 2172 3584 2450 3431 
Q 2728 3278 2906 2969 
L 2906 3500 
L 3481 3500 
L 3481 434 
z
" id="DejaVuSans-67" transform="scale(0.015625)"/>
      <path d="M 2194 1759 
Q 1497 1759 1228 1600 
Q 959 1441 959 1056 
Q 959 750 1161 570 
Q 1363 391 1709 391 
Q 2188 391 2477 730 
Q 2766 1069 2766 1631 
L 2766 1759 
L 2194 1759 
z
M 3341 1997 
L 3341 0 
L 2766 0 
L 2766 531 
Q 2569 213 2275 61 
Q 1981 -91 1556 -91 
Q 1019 -91 701 211 
Q 384 513 384 1019 
Q 384 1609 779 1909 
Q 1175 2209 1959 2209 
L 2766 2209 
L 2766 2266 
Q 2766 2663 2505 2880 
Q 2244 3097 1772 3097 
Q 1472 3097 1187 3025 
Q 903 2953 641 2809 
L 641 3341 
Q 956 3463 1253 3523 
Q 1550 3584 1831 3584 
Q 2591 3584 2966 3190 
Q 3341 2797 3341 1997 
z
" id="DejaVuSans-61" transform="scale(0.015625)"/>
     </defs>
     <use xlink:href="#DejaVuSans-46"/>
     <use x="50.269531" xlink:href="#DejaVuSans-72"/>
     <use x="89.132812" xlink:href="#DejaVuSans-6f"/>
     <use x="150.314453" xlink:href="#DejaVuSans-6e"/>
     <use x="213.693359" xlink:href="#DejaVuSans-74"/>
     <use x="252.902344" xlink:href="#DejaVuSans-20"/>
     <use x="284.689453" xlink:href="#DejaVuSans-50"/>
     <use x="343.242188" xlink:href="#DejaVuSans-72"/>
     <use x="382.105469" xlink:href="#DejaVuSans-6f"/>
     <use x="443.287109" xlink:href="#DejaVuSans-70"/>
     <use x="506.763672" xlink:href="#DejaVuSans-6f"/>
     <use x="567.945312" xlink:href="#DejaVuSans-67"/>
     <use x="631.421875" xlink:href="#DejaVuSans-61"/>
     <use x="692.701172" xlink:href="#DejaVuSans-74"/>
     <use x="731.910156" xlink:href="#DejaVuSans-69"/>
     <use x="759.693359" xlink:href="#DejaVuSans-6f"/>
     <use x="820.875" xlink:href="#DejaVuSans-6e"/>
     <use x="884.253906" xlink:href="#DejaVuSans-20"/>
     <use x="916.041016" xlink:href="#DejaVuSans-53"/>
     <use x="979.517578" xlink:href="#DejaVuSans-70"/>
     <use x="1042.994141" xlink:href="#DejaVuSans-65"/>
     <use x="1104.517578" xlink:href="#DejaVuSans-65"/>
     <use x="1166.041016" xlink:href="#DejaVuSans-64"/>
    </g>
   </g>
   <g id="legend_1">
    <g id="patch_7">
     <path d="M 325.967812 111.175687 
L 508.6 111.175687 
Q 511.4 111.175687 511.4 108.375687 
L 511.4 53 
Q 511.4 50.2 508.6 50.2 
L 325.967812 50.2 
Q 323.167812 50.2 323.167812 53 
L 323.167812 108.375687 
Q 323.167812 111.175687 325.967812 111.175687 
z
" style="fill:#ffffff;opacity:0.8;stroke:#cccccc;stroke-linejoin:miter;"/>
    </g>
    <g id="line2d_16">
     <path d="M 328.767812 61.537812 
L 356.767812 61.537812 
" style="fill:none;stroke:#ff0000;stroke-linecap:square;stroke-width:2;"/>
    </g>
    <g id="line2d_17"/>
    <g id="text_17">
     <!-- Front speed -->
     <g transform="translate(367.967812 66.437812)scale(0.14 -0.14)">
      <use xlink:href="#DejaVuSans-46"/>
      <use x="50.269531" xlink:href="#DejaVuSans-72"/>
      <use x="89.132812" xlink:href="#DejaVuSans-6f"/>
      <use x="150.314453" xlink:href="#DejaVuSans-6e"/>
      <use x="213.693359" xlink:href="#DejaVuSans-74"/>
      <use x="252.902344" xlink:href="#DejaVuSans-20"/>
      <use x="284.689453" xlink:href="#DejaVuSans-73"/>
      <use x="336.789062" xlink:href="#DejaVuSans-70"/>
      <use x="400.265625" xlink:href="#DejaVuSans-65"/>
      <use x="461.789062" xlink:href="#DejaVuSans-65"/>
      <use x="523.3125" xlink:href="#DejaVuSans-64"/>
     </g>
    </g>
    <g id="line2d_18">
     <path d="M 328.767812 91.381437 
L 356.767812 91.381437 
" style="fill:none;stroke:#000000;stroke-dasharray:5.55,2.4;stroke-dashoffset:0;stroke-width:1.5;"/>
    </g>
    <g id="line2d_19"/>
    <g id="text_18">
     <!-- Steady state -->
     <g transform="translate(367.967812 86.987187)scale(0.14 -0.14)">
      <defs>
       <path d="M 2059 -325 
Q 1816 -950 1584 -1140 
Q 1353 -1331 966 -1331 
L 506 -1331 
L 506 -850 
L 844 -850 
Q 1081 -850 1212 -737 
Q 1344 -625 1503 -206 
L 1606 56 
L 191 3500 
L 800 3500 
L 1894 763 
L 2988 3500 
L 3597 3500 
L 2059 -325 
z
" id="DejaVuSans-79" transform="scale(0.015625)"/>
      </defs>
      <use xlink:href="#DejaVuSans-53"/>
      <use x="63.476562" xlink:href="#DejaVuSans-74"/>
      <use x="102.685547" xlink:href="#DejaVuSans-65"/>
      <use x="164.208984" xlink:href="#DejaVuSans-61"/>
      <use x="225.488281" xlink:href="#DejaVuSans-64"/>
      <use x="288.964844" xlink:href="#DejaVuSans-79"/>
      <use x="348.144531" xlink:href="#DejaVuSans-20"/>
      <use x="379.931641" xlink:href="#DejaVuSans-73"/>
      <use x="432.03125" xlink:href="#DejaVuSans-74"/>
      <use x="471.240234" xlink:href="#DejaVuSans-61"/>
      <use x="532.519531" xlink:href="#DejaVuSans-74"/>
      <use x="571.728516" xlink:href="#DejaVuSans-65"/>
     </g>
     <!-- speed = 0.69 mm/s -->
     <g transform="translate(367.967812 102.664125)scale(0.14 -0.14)">
      <defs>
       <path d="M 678 2906 
L 4684 2906 
L 4684 2381 
L 678 2381 
L 678 2906 
z
M 678 1631 
L 4684 1631 
L 4684 1100 
L 678 1100 
L 678 1631 
z
" id="DejaVuSans-3d" transform="scale(0.015625)"/>
       <path d="M 2113 2584 
Q 1688 2584 1439 2293 
Q 1191 2003 1191 1497 
Q 1191 994 1439 701 
Q 1688 409 2113 409 
Q 2538 409 2786 701 
Q 3034 994 3034 1497 
Q 3034 2003 2786 2293 
Q 2538 2584 2113 2584 
z
M 3366 4563 
L 3366 3988 
Q 3128 4100 2886 4159 
Q 2644 4219 2406 4219 
Q 1781 4219 1451 3797 
Q 1122 3375 1075 2522 
Q 1259 2794 1537 2939 
Q 1816 3084 2150 3084 
Q 2853 3084 3261 2657 
Q 3669 2231 3669 1497 
Q 3669 778 3244 343 
Q 2819 -91 2113 -91 
Q 1303 -91 875 529 
Q 447 1150 447 2328 
Q 447 3434 972 4092 
Q 1497 4750 2381 4750 
Q 2619 4750 2861 4703 
Q 3103 4656 3366 4563 
z
" id="DejaVuSans-36" transform="scale(0.015625)"/>
       <path d="M 703 97 
L 703 672 
Q 941 559 1184 500 
Q 1428 441 1663 441 
Q 2288 441 2617 861 
Q 2947 1281 2994 2138 
Q 2813 1869 2534 1725 
Q 2256 1581 1919 1581 
Q 1219 1581 811 2004 
Q 403 2428 403 3163 
Q 403 3881 828 4315 
Q 1253 4750 1959 4750 
Q 2769 4750 3195 4129 
Q 3622 3509 3622 2328 
Q 3622 1225 3098 567 
Q 2575 -91 1691 -91 
Q 1453 -91 1209 -44 
Q 966 3 703 97 
z
M 1959 2075 
Q 2384 2075 2632 2365 
Q 2881 2656 2881 3163 
Q 2881 3666 2632 3958 
Q 2384 4250 1959 4250 
Q 1534 4250 1286 3958 
Q 1038 3666 1038 3163 
Q 1038 2656 1286 2365 
Q 1534 2075 1959 2075 
z
" id="DejaVuSans-39" transform="scale(0.015625)"/>
      </defs>
      <use xlink:href="#DejaVuSans-73"/>
      <use x="52.099609" xlink:href="#DejaVuSans-70"/>
      <use x="115.576172" xlink:href="#DejaVuSans-65"/>
      <use x="177.099609" xlink:href="#DejaVuSans-65"/>
      <use x="238.623047" xlink:href="#DejaVuSans-64"/>
      <use x="302.099609" xlink:href="#DejaVuSans-20"/>
      <use x="333.886719" xlink:href="#DejaVuSans-3d"/>
      <use x="417.675781" xlink:href="#DejaVuSans-20"/>
      <use x="449.462891" xlink:href="#DejaVuSans-30"/>
      <use x="513.085938" xlink:href="#DejaVuSans-2e"/>
      <use x="544.873047" xlink:href="#DejaVuSans-36"/>
      <use x="608.496094" xlink:href="#DejaVuSans-39"/>
      <use x="672.119141" xlink:href="#DejaVuSans-20"/>
      <use x="703.90625" xlink:href="#DejaVuSans-6d"/>
      <use x="801.318359" xlink:href="#DejaVuSans-6d"/>
      <use x="898.730469" xlink:href="#DejaVuSans-2f"/>
      <use x="932.421875" xlink:href="#DejaVuSans-73"/>
     </g>
    </g>
   </g>
  </g>
 </g>
 <defs>
  <clipPath id="p5f5570a8be">
   <rect height="277.2" width="446.4" x="72" y="43.2"/>
  </clipPath>
 </defs>
</svg>
