<?xml version="1.0" encoding="utf-8" standalone="no"?>
<!DOCTYPE svg PUBLIC "-//W3C//DTD SVG 1.1//EN"
  "http://www.w3.org/Graphics/SVG/1.1/DTD/svg11.dtd">
<svg height="360pt" version="1.1" viewBox="0 0 576 360" width="576pt" xmlns="http://www.w3.org/2000/svg" xmlns:xlink="http://www.w3.org/1999/xlink">
 <metadata>
  <rdf:RDF xmlns:cc="http://creativecommons.org/ns#" xmlns:dc="http://purl.org/dc/elements/1.1/" xmlns:rdf="http://www.w3.org/1999/02/22-rdf-syntax-ns#">
   <cc:Work>
    <dc:type rdf:resource="http://purl.org/dc/dcmitype/StillImage"/>
    <dc:date>2022-06-30T14:37:46.258047</dc:date>
    <dc:format>image/svg+xml</dc:format>
    <dc:creator>
     <cc:Agent>
      <dc:title>Matplotlib v3.4.3, https://matplotlib.org/</dc:title>
     </cc:Agent>
    </dc:creator>
   </cc:Work>
  </rdf:RDF>
 </metadata>
 <defs>
  <style type="text/css">*{stroke-linecap:butt;stroke-linejoin:round;}</style>
 </defs>
 <g id="figure_1">
  <g id="patch_1">
   <path d="M 0 360 
L 576 360 
L 576 0 
L 0 0 
z
" style="fill:#ffffff;"/>
  </g>
  <g id="axes_1">
   <g id="patch_2">
    <path d="M 72 320.4 
L 518.4 320.4 
L 518.4 43.2 
L 72 43.2 
z
" style="fill:#ffffff;"/>
   </g>
   <g id="PolyCollection_1">
    <defs>
     <path d="M 72 -175.715464 
L 72 -180.873941 
L 72.573042 -180.873941 
L 73.146085 -180.873941 
L 73.719127 -180.873941 
L 74.292169 -180.873941 
L 74.865212 -180.873941 
L 75.438254 -180.873941 
L 76.011297 -180.873941 
L 76.584339 -180.873941 
L 77.157381 -180.873941 
L 77.730424 -180.873941 
L 78.303466 -180.873941 
L 78.876508 -180.873941 
L 79.449551 -180.873941 
L 80.022593 -180.873941 
L 80.595635 -180.873941 
L 81.168678 -180.873941 
L 81.74172 -180.873941 
L 82.314763 -180.873941 
L 82.887805 -180.873941 
L 83.460847 -180.873941 
L 84.03389 -180.873941 
L 84.606932 -180.873941 
L 85.179974 -180.873941 
L 85.753017 -180.873941 
L 86.326059 -180.873941 
L 86.899101 -180.873941 
L 87.472144 -180.873941 
L 88.045186 -180.873941 
L 88.618228 -180.873941 
L 89.191271 -180.873941 
L 89.764313 -180.873941 
L 90.337356 -180.873941 
L 90.910398 -180.873941 
L 91.48344 -180.873941 
L 92.056483 -180.873941 
L 92.629525 -180.873941 
L 93.202567 -180.873941 
L 93.77561 -180.873941 
L 94.348652 -180.873941 
L 94.921694 -180.873941 
L 95.494737 -180.873941 
L 96.067779 -180.873941 
L 96.640822 -180.873941 
L 97.213864 -180.873941 
L 97.786906 -180.873941 
L 98.359949 -180.873941 
L 98.932991 -180.873941 
L 99.506033 -180.873941 
L 100.079076 -180.873941 
L 100.652118 -180.873941 
L 101.22516 -180.873941 
L 101.798203 -180.873941 
L 102.371245 -180.873941 
L 102.944288 -180.873941 
L 103.51733 -180.873941 
L 104.090372 -180.873941 
L 104.663415 -180.873941 
L 105.236457 -180.873941 
L 105.809499 -180.873941 
L 106.382542 -180.873941 
L 106.955584 -180.873941 
L 107.528626 -180.873941 
L 108.101669 -180.873941 
L 108.674711 -180.873941 
L 109.247754 -180.873941 
L 109.820796 -180.873941 
L 110.393838 -180.873941 
L 110.966881 -180.873941 
L 111.539923 -180.873941 
L 112.112965 -180.873941 
L 112.686008 -180.873941 
L 113.25905 -180.873941 
L 113.832092 -180.873941 
L 114.405135 -180.873941 
L 114.978177 -180.873941 
L 115.55122 -180.873941 
L 116.124262 -180.873941 
L 116.697304 -180.873941 
L 117.270347 -180.873941 
L 117.843389 -180.873941 
L 118.416431 -180.873941 
L 118.989474 -180.873941 
L 119.562516 -180.873941 
L 120.135558 -180.873941 
L 120.708601 -180.873941 
L 121.281643 -180.873941 
L 121.854685 -180.873941 
L 122.427728 -180.873941 
L 123.00077 -180.873941 
L 123.573813 -180.873941 
L 124.146855 -180.873941 
L 124.719897 -180.873941 
L 125.29294 -180.873941 
L 125.865982 -180.873941 
L 126.439024 -180.873941 
L 127.012067 -180.873941 
L 127.585109 -180.873941 
L 128.158151 -180.873941 
L 128.731194 -180.873941 
L 129.304236 -180.873941 
L 129.877279 -180.873941 
L 130.450321 -180.873941 
L 131.023363 -180.873941 
L 131.596406 -180.873941 
L 132.169448 -180.873941 
L 132.74249 -180.873941 
L 133.315533 -180.873941 
L 133.888575 -180.873941 
L 134.461617 -180.873941 
L 135.03466 -180.873941 
L 135.607702 -180.873941 
L 136.180745 -180.873941 
L 136.753787 -180.873941 
L 137.326829 -180.873941 
L 137.899872 -180.873941 
L 138.472914 -180.873941 
L 139.045956 -180.873941 
L 139.618999 -180.873941 
L 140.192041 -180.873941 
L 140.765083 -180.873941 
L 141.338126 -180.873941 
L 141.911168 -180.873941 
L 142.484211 -180.873941 
L 143.057253 -180.873941 
L 143.630295 -180.873941 
L 144.203338 -180.873941 
L 144.77638 -180.873941 
L 145.349422 -180.873941 
L 145.922465 -180.873941 
L 146.495507 -180.873941 
L 147.068549 -180.873941 
L 147.641592 -180.873941 
L 148.214634 -180.873941 
L 148.787677 -180.873941 
L 149.360719 -180.873941 
L 149.933761 -180.873941 
L 150.506804 -180.873941 
L 151.079846 -180.873941 
L 151.652888 -180.873941 
L 152.225931 -180.873941 
L 152.798973 -180.873941 
L 153.372015 -180.873941 
L 153.945058 -180.873941 
L 154.5181 -180.873941 
L 155.091142 -180.873941 
L 155.664185 -180.873941 
L 156.237227 -180.873941 
L 156.81027 -180.873941 
L 157.383312 -180.873941 
L 157.956354 -180.873941 
L 158.529397 -180.873941 
L 159.102439 -180.873941 
L 159.675481 -180.873941 
L 160.248524 -180.873941 
L 160.821566 -180.873941 
L 161.394608 -180.873941 
L 161.967651 -180.873941 
L 162.540693 -180.873941 
L 163.113736 -180.873941 
L 163.686778 -180.873941 
L 164.25982 -180.873941 
L 164.832863 -180.873941 
L 165.405905 -180.873941 
L 165.978947 -180.873941 
L 166.55199 -180.873941 
L 167.125032 -180.873941 
L 167.698074 -180.873941 
L 168.271117 -180.873941 
L 168.844159 -180.873941 
L 169.417202 -180.873941 
L 169.990244 -180.873941 
L 170.563286 -180.873941 
L 171.136329 -180.873941 
L 171.709371 -180.873941 
L 172.282413 -180.873941 
L 172.855456 -180.873941 
L 173.428498 -180.873941 
L 174.00154 -180.873941 
L 174.574583 -180.873941 
L 175.147625 -180.873941 
L 175.720668 -180.873941 
L 176.29371 -180.873941 
L 176.866752 -180.873941 
L 177.439795 -180.873941 
L 178.012837 -180.873941 
L 178.585879 -180.873941 
L 179.158922 -180.873941 
L 179.731964 -180.873941 
L 180.305006 -180.873941 
L 180.878049 -180.873941 
L 181.451091 -180.873941 
L 182.024134 -180.873941 
L 182.597176 -180.873941 
L 183.170218 -180.873941 
L 183.743261 -180.873941 
L 184.316303 -180.873941 
L 184.889345 -180.873941 
L 185.462388 -180.873941 
L 186.03543 -180.873941 
L 186.608472 -180.873941 
L 187.181515 -180.873941 
L 187.754557 -180.873941 
L 188.327599 -180.873941 
L 188.900642 -180.873941 
L 189.473684 -180.873941 
L 190.046727 -180.873941 
L 190.619769 -180.873941 
L 191.192811 -180.873941 
L 191.765854 -180.873941 
L 192.338896 -180.873941 
L 192.911938 -180.873941 
L 193.484981 -180.873941 
L 194.058023 -180.873941 
L 194.631065 -180.873941 
L 195.204108 -180.873941 
L 195.77715 -180.873941 
L 196.350193 -180.873941 
L 196.923235 -180.873941 
L 197.496277 -180.873941 
L 198.06932 -180.873941 
L 198.642362 -180.873941 
L 199.215404 -180.873941 
L 199.788447 -180.873941 
L 200.361489 -180.873941 
L 200.934531 -180.873941 
L 201.507574 -180.873941 
L 202.080616 -180.873941 
L 202.653659 -180.873941 
L 203.226701 -180.873941 
L 203.799743 -180.873941 
L 204.372786 -180.873941 
L 204.945828 -180.873941 
L 205.51887 -180.873941 
L 206.091913 -180.873941 
L 206.664955 -180.873941 
L 207.237997 -180.873941 
L 207.81104 -180.873941 
L 208.384082 -180.873941 
L 208.957125 -180.873941 
L 209.530167 -180.873941 
L 210.103209 -180.873941 
L 210.676252 -180.873941 
L 211.249294 -180.873941 
L 211.822336 -180.873941 
L 212.395379 -180.873941 
L 212.968421 -180.873941 
L 213.541463 -180.873941 
L 214.114506 -180.873941 
L 214.687548 -180.873941 
L 215.260591 -180.873941 
L 215.833633 -180.873941 
L 216.406675 -180.873941 
L 216.979718 -180.873941 
L 217.55276 -180.873941 
L 218.125802 -180.873941 
L 218.698845 -180.873941 
L 219.271887 -180.873941 
L 219.844929 -180.873941 
L 220.417972 -180.873941 
L 220.991014 -180.873941 
L 221.564056 -180.873941 
L 222.137099 -180.873941 
L 222.710141 -180.873941 
L 223.283184 -180.873941 
L 223.856226 -180.873941 
L 224.429268 -180.873941 
L 225.002311 -180.873941 
L 225.575353 -180.873941 
L 226.148395 -180.873941 
L 226.721438 -180.873941 
L 227.29448 -180.873941 
L 227.867522 -180.873941 
L 228.440565 -180.873941 
L 229.013607 -180.873941 
L 229.58665 -180.873941 
L 230.159692 -180.873941 
L 230.732734 -180.873941 
L 231.305777 -180.873941 
L 231.878819 -180.873941 
L 232.451861 -180.873941 
L 233.024904 -180.873941 
L 233.597946 -180.873941 
L 234.170988 -180.873941 
L 234.744031 -180.873941 
L 235.317073 -180.873941 
L 235.890116 -180.873941 
L 236.463158 -180.873941 
L 237.0362 -180.873941 
L 237.609243 -180.873941 
L 238.182285 -180.873941 
L 238.755327 -180.873941 
L 239.32837 -180.873941 
L 239.901412 -180.873941 
L 240.474454 -180.873941 
L 241.047497 -180.873941 
L 241.620539 -180.873941 
L 242.193582 -180.873941 
L 242.766624 -180.873941 
L 243.339666 -180.873941 
L 243.912709 -180.873941 
L 244.485751 -180.873941 
L 245.058793 -180.873941 
L 245.631836 -180.873941 
L 246.204878 -180.873941 
L 246.77792 -180.873941 
L 247.350963 -180.873941 
L 247.924005 -180.873941 
L 248.497047 -180.873941 
L 249.07009 -180.873941 
L 249.643132 -180.873941 
L 250.216175 -180.873941 
L 250.789217 -180.873941 
L 251.362259 -180.873941 
L 251.935302 -180.873941 
L 252.508344 -180.873941 
L 253.081386 -180.873941 
L 253.654429 -180.873941 
L 254.227471 -180.873941 
L 254.800513 -180.873941 
L 255.373556 -180.873941 
L 255.946598 -180.873941 
L 256.519641 -180.873941 
L 257.092683 -180.873941 
L 257.665725 -180.873941 
L 258.238768 -180.873941 
L 258.81181 -180.873941 
L 259.384852 -180.873941 
L 259.957895 -180.873941 
L 260.530937 -180.873941 
L 261.103979 -180.873941 
L 261.677022 -180.873941 
L 262.250064 -180.873941 
L 262.823107 -180.873941 
L 263.396149 -180.873941 
L 263.969191 -180.873941 
L 264.542234 -180.873941 
L 265.115276 -180.873941 
L 265.688318 -180.873941 
L 266.261361 -180.873941 
L 266.834403 -180.873941 
L 267.407445 -180.873941 
L 267.980488 -180.873941 
L 268.55353 -180.873941 
L 269.126573 -180.873941 
L 269.699615 -180.873941 
L 270.272657 -180.873941 
L 270.8457 -180.873941 
L 271.418742 -180.873941 
L 271.991784 -180.873941 
L 272.564827 -180.873941 
L 273.137869 -180.873941 
L 273.710911 -180.873941 
L 274.283954 -180.873941 
L 274.856996 -180.873941 
L 275.430039 -180.873941 
L 276.003081 -180.873941 
L 276.576123 -180.873941 
L 277.149166 -180.873941 
L 277.722208 -180.873941 
L 278.29525 -180.873941 
L 278.868293 -180.873941 
L 279.441335 -180.873941 
L 280.014377 -180.873941 
L 280.58742 -180.873941 
L 281.160462 -180.873941 
L 281.733504 -180.873941 
L 282.306547 -180.873941 
L 282.879589 -180.873941 
L 283.452632 -180.873941 
L 284.025674 -180.873941 
L 284.598716 -180.873941 
L 285.171759 -180.873941 
L 285.744801 -180.873941 
L 286.317843 -180.873941 
L 286.890886 -180.873941 
L 287.463928 -180.873941 
L 288.03697 -180.873941 
L 288.610013 -180.873941 
L 289.183055 -180.873941 
L 289.756098 -180.873941 
L 290.32914 -180.873941 
L 290.902182 -180.873941 
L 291.475225 -180.873941 
L 292.048267 -180.873941 
L 292.621309 -180.873941 
L 293.194352 -180.873941 
L 293.767394 -180.873941 
L 294.340436 -180.873941 
L 294.913479 -180.873941 
L 295.486521 -180.873941 
L 296.059564 -180.873941 
L 296.632606 -180.873941 
L 297.205648 -180.873941 
L 297.778691 -180.873941 
L 298.351733 -180.873941 
L 298.924775 -180.873941 
L 299.497818 -180.873941 
L 300.07086 -180.873941 
L 300.643902 -180.873941 
L 301.216945 -180.873941 
L 301.789987 -180.873941 
L 302.36303 -180.873941 
L 302.936072 -180.873941 
L 303.509114 -180.873941 
L 304.082157 -180.873941 
L 304.655199 -180.873941 
L 305.228241 -180.873941 
L 305.801284 -180.873941 
L 306.374326 -180.873941 
L 306.947368 -180.873941 
L 307.520411 -180.873941 
L 308.093453 -180.873941 
L 308.666496 -180.873941 
L 309.239538 -180.873941 
L 309.81258 -180.873941 
L 310.385623 -180.873941 
L 310.958665 -180.873941 
L 311.531707 -180.873941 
L 312.10475 -180.873941 
L 312.677792 -180.873941 
L 313.250834 -180.873941 
L 313.823877 -180.873941 
L 314.396919 -180.873941 
L 314.969961 -180.873941 
L 315.543004 -180.873941 
L 316.116046 -180.873941 
L 316.689089 -180.873941 
L 317.262131 -180.873941 
L 317.835173 -180.873941 
L 318.408216 -180.873941 
L 318.981258 -180.873941 
L 319.5543 -180.873941 
L 320.127343 -180.873941 
L 320.700385 -180.873941 
L 321.273427 -180.873941 
L 321.84647 -180.873941 
L 322.419512 -180.873941 
L 322.992555 -180.873941 
L 323.565597 -180.873941 
L 324.138639 -180.873941 
L 324.711682 -180.873941 
L 325.284724 -180.873941 
L 325.857766 -180.873941 
L 326.430809 -180.873941 
L 327.003851 -180.873941 
L 327.576893 -180.873941 
L 328.149936 -180.873941 
L 328.722978 -180.873941 
L 329.296021 -180.873941 
L 329.869063 -180.873941 
L 330.442105 -180.873941 
L 331.015148 -180.873941 
L 331.58819 -180.873941 
L 332.161232 -180.873941 
L 332.734275 -180.873941 
L 333.307317 -180.873941 
L 333.880359 -180.873941 
L 334.453402 -180.873941 
L 335.026444 -180.873941 
L 335.599487 -180.873941 
L 336.172529 -180.873941 
L 336.745571 -180.873941 
L 337.318614 -180.873941 
L 337.891656 -180.873941 
L 338.464698 -180.873941 
L 339.037741 -180.873941 
L 339.610783 -180.873941 
L 340.183825 -180.873941 
L 340.756868 -180.873941 
L 341.32991 -180.873941 
L 341.902953 -180.873941 
L 342.475995 -180.873941 
L 343.049037 -180.873941 
L 343.62208 -180.873941 
L 344.195122 -180.873941 
L 344.768164 -180.873941 
L 345.341207 -180.873941 
L 345.914249 -180.873941 
L 346.487291 -180.873941 
L 347.060334 -180.873941 
L 347.633376 -180.873941 
L 348.206418 -180.873941 
L 348.779461 -180.873941 
L 349.352503 -180.873941 
L 349.925546 -180.873941 
L 350.498588 -180.873941 
L 351.07163 -180.873941 
L 351.644673 -180.873941 
L 352.217715 -180.873941 
L 352.790757 -180.873941 
L 353.3638 -180.873941 
L 353.936842 -180.873941 
L 354.509884 -180.873941 
L 355.082927 -180.873941 
L 355.655969 -180.873941 
L 356.229012 -180.873941 
L 356.802054 -180.873941 
L 357.375096 -180.873941 
L 357.948139 -180.873941 
L 358.521181 -180.873941 
L 359.094223 -180.873941 
L 359.667266 -180.873941 
L 360.240308 -180.873941 
L 360.81335 -180.873941 
L 361.386393 -180.873941 
L 361.959435 -180.873941 
L 362.532478 -180.873941 
L 363.10552 -180.873941 
L 363.678562 -180.873941 
L 364.251605 -180.873941 
L 364.824647 -180.873941 
L 365.397689 -180.873941 
L 365.970732 -180.873941 
L 366.543774 -180.873941 
L 367.116816 -180.873941 
L 367.689859 -180.873941 
L 368.262901 -180.873941 
L 368.835944 -180.873941 
L 369.408986 -180.873941 
L 369.982028 -180.873941 
L 370.555071 -180.873941 
L 371.128113 -180.873941 
L 371.701155 -180.873941 
L 372.274198 -180.873941 
L 372.84724 -180.873941 
L 373.420282 -180.873941 
L 373.993325 -180.873941 
L 374.566367 -180.873941 
L 375.139409 -180.873941 
L 375.712452 -180.873941 
L 376.285494 -180.873941 
L 376.858537 -180.873941 
L 377.431579 -180.873941 
L 378.004621 -180.873941 
L 378.577664 -180.873941 
L 379.150706 -180.873941 
L 379.723748 -180.873941 
L 380.296791 -180.873941 
L 380.869833 -180.873941 
L 381.442875 -180.873941 
L 382.015918 -180.873941 
L 382.58896 -180.873941 
L 383.162003 -180.873941 
L 383.735045 -180.873941 
L 384.308087 -180.873941 
L 384.88113 -180.873941 
L 385.454172 -180.873941 
L 386.027214 -180.873941 
L 386.600257 -180.873941 
L 387.173299 -180.873941 
L 387.746341 -180.873941 
L 388.319384 -180.873941 
L 388.892426 -180.873941 
L 389.465469 -180.873941 
L 390.038511 -180.873941 
L 390.611553 -180.873941 
L 391.184596 -180.873941 
L 391.757638 -180.873941 
L 392.33068 -180.873941 
L 392.903723 -180.873941 
L 393.476765 -180.873941 
L 394.049807 -180.873941 
L 394.62285 -180.873941 
L 395.195892 -180.873941 
L 395.768935 -180.873941 
L 396.341977 -180.873941 
L 396.915019 -180.873941 
L 397.488062 -180.873941 
L 398.061104 -180.873941 
L 398.634146 -180.873941 
L 399.207189 -180.873941 
L 399.780231 -180.873941 
L 400.353273 -180.873941 
L 400.926316 -180.873941 
L 401.499358 -180.873941 
L 402.072401 -180.873941 
L 402.645443 -180.873941 
L 403.218485 -180.873941 
L 403.791528 -180.873941 
L 404.36457 -180.873941 
L 404.937612 -180.873941 
L 405.510655 -180.873941 
L 406.083697 -180.873941 
L 406.656739 -180.873941 
L 407.229782 -180.873941 
L 407.802824 -180.873941 
L 408.375866 -180.873941 
L 408.948909 -180.873941 
L 409.521951 -180.873941 
L 410.094994 -180.873941 
L 410.668036 -180.873941 
L 411.241078 -180.873941 
L 411.814121 -180.873941 
L 412.387163 -180.873941 
L 412.960205 -180.873941 
L 413.533248 -180.873941 
L 414.10629 -180.873941 
L 414.679332 -180.873941 
L 415.252375 -180.873941 
L 415.825417 -180.873941 
L 416.39846 -180.873941 
L 416.971502 -180.873941 
L 417.544544 -180.873941 
L 418.117587 -180.873941 
L 418.690629 -180.873941 
L 419.263671 -180.873941 
L 419.836714 -180.873941 
L 420.409756 -180.873941 
L 420.982798 -180.873941 
L 421.555841 -180.873941 
L 422.128883 -180.873941 
L 422.701926 -180.873941 
L 423.274968 -180.873941 
L 423.84801 -180.873941 
L 424.421053 -180.873941 
L 424.994095 -180.873941 
L 425.567137 -180.873941 
L 426.14018 -180.873941 
L 426.713222 -180.873941 
L 427.286264 -180.873941 
L 427.859307 -180.873941 
L 428.432349 -180.873941 
L 429.005392 -180.873941 
L 429.578434 -180.873941 
L 430.151476 -180.873941 
L 430.724519 -180.873941 
L 431.297561 -180.873941 
L 431.870603 -180.873941 
L 432.443646 -180.873941 
L 433.016688 -180.873941 
L 433.58973 -180.873941 
L 434.162773 -180.873941 
L 434.735815 -180.873941 
L 435.308858 -180.873941 
L 435.8819 -180.873941 
L 436.454942 -180.873941 
L 437.027985 -180.873941 
L 437.601027 -180.873941 
L 438.174069 -180.873941 
L 438.747112 -180.873941 
L 439.320154 -180.873941 
L 439.893196 -180.873941 
L 440.466239 -180.873941 
L 441.039281 -180.873941 
L 441.612323 -180.873941 
L 442.185366 -180.873941 
L 442.758408 -180.873941 
L 443.331451 -180.873941 
L 443.904493 -180.873941 
L 444.477535 -180.873941 
L 445.050578 -180.873941 
L 445.62362 -180.873941 
L 446.196662 -180.873941 
L 446.769705 -180.873941 
L 447.342747 -180.873941 
L 447.915789 -180.873941 
L 448.488832 -180.873941 
L 449.061874 -180.873941 
L 449.634917 -180.873941 
L 450.207959 -180.873941 
L 450.781001 -180.873941 
L 451.354044 -180.873941 
L 451.927086 -180.873941 
L 452.500128 -180.873941 
L 453.073171 -180.873941 
L 453.646213 -180.873941 
L 454.219255 -180.873941 
L 454.792298 -180.873941 
L 455.36534 -180.873941 
L 455.938383 -180.873941 
L 456.511425 -180.873941 
L 457.084467 -180.873941 
L 457.65751 -180.873941 
L 458.230552 -180.873941 
L 458.803594 -180.873941 
L 459.376637 -180.873941 
L 459.949679 -180.873941 
L 460.522721 -180.873941 
L 461.095764 -180.873941 
L 461.668806 -180.873941 
L 462.241849 -180.873941 
L 462.814891 -180.873941 
L 463.387933 -180.873941 
L 463.960976 -180.873941 
L 464.534018 -180.873941 
L 465.10706 -180.873941 
L 465.680103 -180.873941 
L 466.253145 -180.873941 
L 466.826187 -180.873941 
L 467.39923 -180.873941 
L 467.972272 -180.873941 
L 468.545315 -180.873941 
L 469.118357 -180.873941 
L 469.691399 -180.873941 
L 470.264442 -180.873941 
L 470.837484 -180.873941 
L 471.410526 -180.873941 
L 471.983569 -180.873941 
L 472.556611 -180.873941 
L 473.129653 -180.873941 
L 473.702696 -180.873941 
L 474.275738 -180.873941 
L 474.84878 -180.873941 
L 475.421823 -180.873941 
L 475.994865 -180.873941 
L 476.567908 -180.873941 
L 477.14095 -180.873941 
L 477.713992 -180.873941 
L 478.287035 -180.873941 
L 478.860077 -180.873941 
L 479.433119 -180.873941 
L 480.006162 -180.873941 
L 480.579204 -180.873941 
L 481.152246 -180.873941 
L 481.725289 -180.873941 
L 482.298331 -180.873941 
L 482.871374 -180.873941 
L 483.444416 -180.873941 
L 484.017458 -180.873941 
L 484.590501 -180.873941 
L 485.163543 -180.873941 
L 485.736585 -180.873941 
L 486.309628 -180.873941 
L 486.88267 -180.873941 
L 487.455712 -180.873941 
L 488.028755 -180.873941 
L 488.601797 -180.873941 
L 489.17484 -180.873941 
L 489.747882 -180.873941 
L 490.320924 -180.873941 
L 490.893967 -180.873941 
L 491.467009 -180.873941 
L 492.040051 -180.873941 
L 492.613094 -180.873941 
L 493.186136 -180.873941 
L 493.759178 -180.873941 
L 494.332221 -180.873941 
L 494.905263 -180.873941 
L 495.478306 -180.873941 
L 496.051348 -180.873941 
L 496.62439 -180.873941 
L 497.197433 -180.873941 
L 497.770475 -180.873941 
L 498.343517 -180.873941 
L 498.91656 -180.873941 
L 499.489602 -180.873941 
L 500.062644 -180.873941 
L 500.635687 -180.873941 
L 501.208729 -180.873941 
L 501.781772 -180.873941 
L 502.354814 -180.873941 
L 502.927856 -180.873941 
L 503.500899 -180.873941 
L 504.073941 -180.873941 
L 504.646983 -180.873941 
L 505.220026 -180.873941 
L 505.793068 -180.873941 
L 506.36611 -180.873941 
L 506.939153 -180.873941 
L 507.512195 -180.873941 
L 508.085237 -180.873941 
L 508.65828 -180.873941 
L 509.231322 -180.873941 
L 509.804365 -180.873941 
L 510.377407 -180.873941 
L 510.950449 -180.873941 
L 511.523492 -180.873941 
L 512.096534 -180.873941 
L 512.669576 -180.873941 
L 513.242619 -180.873941 
L 513.815661 -180.873941 
L 514.388703 -180.873941 
L 514.961746 -180.873941 
L 515.534788 -180.873941 
L 516.107831 -180.873941 
L 516.680873 -180.873941 
L 517.253915 -180.873941 
L 517.826958 -180.873941 
L 518.4 -180.873941 
L 518.4 -175.715464 
L 518.4 -175.715464 
L 517.826958 -175.715464 
L 517.253915 -175.715464 
L 516.680873 -175.715464 
L 516.107831 -175.715464 
L 515.534788 -175.715464 
L 514.961746 -175.715464 
L 514.388703 -175.715464 
L 513.815661 -175.715464 
L 513.242619 -175.715464 
L 512.669576 -175.715464 
L 512.096534 -175.715464 
L 511.523492 -175.715464 
L 510.950449 -175.715464 
L 510.377407 -175.715464 
L 509.804365 -175.715464 
L 509.231322 -175.715464 
L 508.65828 -175.715464 
L 508.085237 -175.715464 
L 507.512195 -175.715464 
L 506.939153 -175.715464 
L 506.36611 -175.715464 
L 505.793068 -175.715464 
L 505.220026 -175.715464 
L 504.646983 -175.715464 
L 504.073941 -175.715464 
L 503.500899 -175.715464 
L 502.927856 -175.715464 
L 502.354814 -175.715464 
L 501.781772 -175.715464 
L 501.208729 -175.715464 
L 500.635687 -175.715464 
L 500.062644 -175.715464 
L 499.489602 -175.715464 
L 498.91656 -175.715464 
L 498.343517 -175.715464 
L 497.770475 -175.715464 
L 497.197433 -175.715464 
L 496.62439 -175.715464 
L 496.051348 -175.715464 
L 495.478306 -175.715464 
L 494.905263 -175.715464 
L 494.332221 -175.715464 
L 493.759178 -175.715464 
L 493.186136 -175.715464 
L 492.613094 -175.715464 
L 492.040051 -175.715464 
L 491.467009 -175.715464 
L 490.893967 -175.715464 
L 490.320924 -175.715464 
L 489.747882 -175.715464 
L 489.17484 -175.715464 
L 488.601797 -175.715464 
L 488.028755 -175.715464 
L 487.455712 -175.715464 
L 486.88267 -175.715464 
L 486.309628 -175.715464 
L 485.736585 -175.715464 
L 485.163543 -175.715464 
L 484.590501 -175.715464 
L 484.017458 -175.715464 
L 483.444416 -175.715464 
L 482.871374 -175.715464 
L 482.298331 -175.715464 
L 481.725289 -175.715464 
L 481.152246 -175.715464 
L 480.579204 -175.715464 
L 480.006162 -175.715464 
L 479.433119 -175.715464 
L 478.860077 -175.715464 
L 478.287035 -175.715464 
L 477.713992 -175.715464 
L 477.14095 -175.715464 
L 476.567908 -175.715464 
L 475.994865 -175.715464 
L 475.421823 -175.715464 
L 474.84878 -175.715464 
L 474.275738 -175.715464 
L 473.702696 -175.715464 
L 473.129653 -175.715464 
L 472.556611 -175.715464 
L 471.983569 -175.715464 
L 471.410526 -175.715464 
L 470.837484 -175.715464 
L 470.264442 -175.715464 
L 469.691399 -175.715464 
L 469.118357 -175.715464 
L 468.545315 -175.715464 
L 467.972272 -175.715464 
L 467.39923 -175.715464 
L 466.826187 -175.715464 
L 466.253145 -175.715464 
L 465.680103 -175.715464 
L 465.10706 -175.715464 
L 464.534018 -175.715464 
L 463.960976 -175.715464 
L 463.387933 -175.715464 
L 462.814891 -175.715464 
L 462.241849 -175.715464 
L 461.668806 -175.715464 
L 461.095764 -175.715464 
L 460.522721 -175.715464 
L 459.949679 -175.715464 
L 459.376637 -175.715464 
L 458.803594 -175.715464 
L 458.230552 -175.715464 
L 457.65751 -175.715464 
L 457.084467 -175.715464 
L 456.511425 -175.715464 
L 455.938383 -175.715464 
L 455.36534 -175.715464 
L 454.792298 -175.715464 
L 454.219255 -175.715464 
L 453.646213 -175.715464 
L 453.073171 -175.715464 
L 452.500128 -175.715464 
L 451.927086 -175.715464 
L 451.354044 -175.715464 
L 450.781001 -175.715464 
L 450.207959 -175.715464 
L 449.634917 -175.715464 
L 449.061874 -175.715464 
L 448.488832 -175.715464 
L 447.915789 -175.715464 
L 447.342747 -175.715464 
L 446.769705 -175.715464 
L 446.196662 -175.715464 
L 445.62362 -175.715464 
L 445.050578 -175.715464 
L 444.477535 -175.715464 
L 443.904493 -175.715464 
L 443.331451 -175.715464 
L 442.758408 -175.715464 
L 442.185366 -175.715464 
L 441.612323 -175.715464 
L 441.039281 -175.715464 
L 440.466239 -175.715464 
L 439.893196 -175.715464 
L 439.320154 -175.715464 
L 438.747112 -175.715464 
L 438.174069 -175.715464 
L 437.601027 -175.715464 
L 437.027985 -175.715464 
L 436.454942 -175.715464 
L 435.8819 -175.715464 
L 435.308858 -175.715464 
L 434.735815 -175.715464 
L 434.162773 -175.715464 
L 433.58973 -175.715464 
L 433.016688 -175.715464 
L 432.443646 -175.715464 
L 431.870603 -175.715464 
L 431.297561 -175.715464 
L 430.724519 -175.715464 
L 430.151476 -175.715464 
L 429.578434 -175.715464 
L 429.005392 -175.715464 
L 428.432349 -175.715464 
L 427.859307 -175.715464 
L 427.286264 -175.715464 
L 426.713222 -175.715464 
L 426.14018 -175.715464 
L 425.567137 -175.715464 
L 424.994095 -175.715464 
L 424.421053 -175.715464 
L 423.84801 -175.715464 
L 423.274968 -175.715464 
L 422.701926 -175.715464 
L 422.128883 -175.715464 
L 421.555841 -175.715464 
L 420.982798 -175.715464 
L 420.409756 -175.715464 
L 419.836714 -175.715464 
L 419.263671 -175.715464 
L 418.690629 -175.715464 
L 418.117587 -175.715464 
L 417.544544 -175.715464 
L 416.971502 -175.715464 
L 416.39846 -175.715464 
L 415.825417 -175.715464 
L 415.252375 -175.715464 
L 414.679332 -175.715464 
L 414.10629 -175.715464 
L 413.533248 -175.715464 
L 412.960205 -175.715464 
L 412.387163 -175.715464 
L 411.814121 -175.715464 
L 411.241078 -175.715464 
L 410.668036 -175.715464 
L 410.094994 -175.715464 
L 409.521951 -175.715464 
L 408.948909 -175.715464 
L 408.375866 -175.715464 
L 407.802824 -175.715464 
L 407.229782 -175.715464 
L 406.656739 -175.715464 
L 406.083697 -175.715464 
L 405.510655 -175.715464 
L 404.937612 -175.715464 
L 404.36457 -175.715464 
L 403.791528 -175.715464 
L 403.218485 -175.715464 
L 402.645443 -175.715464 
L 402.072401 -175.715464 
L 401.499358 -175.715464 
L 400.926316 -175.715464 
L 400.353273 -175.715464 
L 399.780231 -175.715464 
L 399.207189 -175.715464 
L 398.634146 -175.715464 
L 398.061104 -175.715464 
L 397.488062 -175.715464 
L 396.915019 -175.715464 
L 396.341977 -175.715464 
L 395.768935 -175.715464 
L 395.195892 -175.715464 
L 394.62285 -175.715464 
L 394.049807 -175.715464 
L 393.476765 -175.715464 
L 392.903723 -175.715464 
L 392.33068 -175.715464 
L 391.757638 -175.715464 
L 391.184596 -175.715464 
L 390.611553 -175.715464 
L 390.038511 -175.715464 
L 389.465469 -175.715464 
L 388.892426 -175.715464 
L 388.319384 -175.715464 
L 387.746341 -175.715464 
L 387.173299 -175.715464 
L 386.600257 -175.715464 
L 386.027214 -175.715464 
L 385.454172 -175.715464 
L 384.88113 -175.715464 
L 384.308087 -175.715464 
L 383.735045 -175.715464 
L 383.162003 -175.715464 
L 382.58896 -175.715464 
L 382.015918 -175.715464 
L 381.442875 -175.715464 
L 380.869833 -175.715464 
L 380.296791 -175.715464 
L 379.723748 -175.715464 
L 379.150706 -175.715464 
L 378.577664 -175.715464 
L 378.004621 -175.715464 
L 377.431579 -175.715464 
L 376.858537 -175.715464 
L 376.285494 -175.715464 
L 375.712452 -175.715464 
L 375.139409 -175.715464 
L 374.566367 -175.715464 
L 373.993325 -175.715464 
L 373.420282 -175.715464 
L 372.84724 -175.715464 
L 372.274198 -175.715464 
L 371.701155 -175.715464 
L 371.128113 -175.715464 
L 370.555071 -175.715464 
L 369.982028 -175.715464 
L 369.408986 -175.715464 
L 368.835944 -175.715464 
L 368.262901 -175.715464 
L 367.689859 -175.715464 
L 367.116816 -175.715464 
L 366.543774 -175.715464 
L 365.970732 -175.715464 
L 365.397689 -175.715464 
L 364.824647 -175.715464 
L 364.251605 -175.715464 
L 363.678562 -175.715464 
L 363.10552 -175.715464 
L 362.532478 -175.715464 
L 361.959435 -175.715464 
L 361.386393 -175.715464 
L 360.81335 -175.715464 
L 360.240308 -175.715464 
L 359.667266 -175.715464 
L 359.094223 -175.715464 
L 358.521181 -175.715464 
L 357.948139 -175.715464 
L 357.375096 -175.715464 
L 356.802054 -175.715464 
L 356.229012 -175.715464 
L 355.655969 -175.715464 
L 355.082927 -175.715464 
L 354.509884 -175.715464 
L 353.936842 -175.715464 
L 353.3638 -175.715464 
L 352.790757 -175.715464 
L 352.217715 -175.715464 
L 351.644673 -175.715464 
L 351.07163 -175.715464 
L 350.498588 -175.715464 
L 349.925546 -175.715464 
L 349.352503 -175.715464 
L 348.779461 -175.715464 
L 348.206418 -175.715464 
L 347.633376 -175.715464 
L 347.060334 -175.715464 
L 346.487291 -175.715464 
L 345.914249 -175.715464 
L 345.341207 -175.715464 
L 344.768164 -175.715464 
L 344.195122 -175.715464 
L 343.62208 -175.715464 
L 343.049037 -175.715464 
L 342.475995 -175.715464 
L 341.902953 -175.715464 
L 341.32991 -175.715464 
L 340.756868 -175.715464 
L 340.183825 -175.715464 
L 339.610783 -175.715464 
L 339.037741 -175.715464 
L 338.464698 -175.715464 
L 337.891656 -175.715464 
L 337.318614 -175.715464 
L 336.745571 -175.715464 
L 336.172529 -175.715464 
L 335.599487 -175.715464 
L 335.026444 -175.715464 
L 334.453402 -175.715464 
L 333.880359 -175.715464 
L 333.307317 -175.715464 
L 332.734275 -175.715464 
L 332.161232 -175.715464 
L 331.58819 -175.715464 
L 331.015148 -175.715464 
L 330.442105 -175.715464 
L 329.869063 -175.715464 
L 329.296021 -175.715464 
L 328.722978 -175.715464 
L 328.149936 -175.715464 
L 327.576893 -175.715464 
L 327.003851 -175.715464 
L 326.430809 -175.715464 
L 325.857766 -175.715464 
L 325.284724 -175.715464 
L 324.711682 -175.715464 
L 324.138639 -175.715464 
L 323.565597 -175.715464 
L 322.992555 -175.715464 
L 322.419512 -175.715464 
L 321.84647 -175.715464 
L 321.273427 -175.715464 
L 320.700385 -175.715464 
L 320.127343 -175.715464 
L 319.5543 -175.715464 
L 318.981258 -175.715464 
L 318.408216 -175.715464 
L 317.835173 -175.715464 
L 317.262131 -175.715464 
L 316.689089 -175.715464 
L 316.116046 -175.715464 
L 315.543004 -175.715464 
L 314.969961 -175.715464 
L 314.396919 -175.715464 
L 313.823877 -175.715464 
L 313.250834 -175.715464 
L 312.677792 -175.715464 
L 312.10475 -175.715464 
L 311.531707 -175.715464 
L 310.958665 -175.715464 
L 310.385623 -175.715464 
L 309.81258 -175.715464 
L 309.239538 -175.715464 
L 308.666496 -175.715464 
L 308.093453 -175.715464 
L 307.520411 -175.715464 
L 306.947368 -175.715464 
L 306.374326 -175.715464 
L 305.801284 -175.715464 
L 305.228241 -175.715464 
L 304.655199 -175.715464 
L 304.082157 -175.715464 
L 303.509114 -175.715464 
L 302.936072 -175.715464 
L 302.36303 -175.715464 
L 301.789987 -175.715464 
L 301.216945 -175.715464 
L 300.643902 -175.715464 
L 300.07086 -175.715464 
L 299.497818 -175.715464 
L 298.924775 -175.715464 
L 298.351733 -175.715464 
L 297.778691 -175.715464 
L 297.205648 -175.715464 
L 296.632606 -175.715464 
L 296.059564 -175.715464 
L 295.486521 -175.715464 
L 294.913479 -175.715464 
L 294.340436 -175.715464 
L 293.767394 -175.715464 
L 293.194352 -175.715464 
L 292.621309 -175.715464 
L 292.048267 -175.715464 
L 291.475225 -175.715464 
L 290.902182 -175.715464 
L 290.32914 -175.715464 
L 289.756098 -175.715464 
L 289.183055 -175.715464 
L 288.610013 -175.715464 
L 288.03697 -175.715464 
L 287.463928 -175.715464 
L 286.890886 -175.715464 
L 286.317843 -175.715464 
L 285.744801 -175.715464 
L 285.171759 -175.715464 
L 284.598716 -175.715464 
L 284.025674 -175.715464 
L 283.452632 -175.715464 
L 282.879589 -175.715464 
L 282.306547 -175.715464 
L 281.733504 -175.715464 
L 281.160462 -175.715464 
L 280.58742 -175.715464 
L 280.014377 -175.715464 
L 279.441335 -175.715464 
L 278.868293 -175.715464 
L 278.29525 -175.715464 
L 277.722208 -175.715464 
L 277.149166 -175.715464 
L 276.576123 -175.715464 
L 276.003081 -175.715464 
L 275.430039 -175.715464 
L 274.856996 -175.715464 
L 274.283954 -175.715464 
L 273.710911 -175.715464 
L 273.137869 -175.715464 
L 272.564827 -175.715464 
L 271.991784 -175.715464 
L 271.418742 -175.715464 
L 270.8457 -175.715464 
L 270.272657 -175.715464 
L 269.699615 -175.715464 
L 269.126573 -175.715464 
L 268.55353 -175.715464 
L 267.980488 -175.715464 
L 267.407445 -175.715464 
L 266.834403 -175.715464 
L 266.261361 -175.715464 
L 265.688318 -175.715464 
L 265.115276 -175.715464 
L 264.542234 -175.715464 
L 263.969191 -175.715464 
L 263.396149 -175.715464 
L 262.823107 -175.715464 
L 262.250064 -175.715464 
L 261.677022 -175.715464 
L 261.103979 -175.715464 
L 260.530937 -175.715464 
L 259.957895 -175.715464 
L 259.384852 -175.715464 
L 258.81181 -175.715464 
L 258.238768 -175.715464 
L 257.665725 -175.715464 
L 257.092683 -175.715464 
L 256.519641 -175.715464 
L 255.946598 -175.715464 
L 255.373556 -175.715464 
L 254.800513 -175.715464 
L 254.227471 -175.715464 
L 253.654429 -175.715464 
L 253.081386 -175.715464 
L 252.508344 -175.715464 
L 251.935302 -175.715464 
L 251.362259 -175.715464 
L 250.789217 -175.715464 
L 250.216175 -175.715464 
L 249.643132 -175.715464 
L 249.07009 -175.715464 
L 248.497047 -175.715464 
L 247.924005 -175.715464 
L 247.350963 -175.715464 
L 246.77792 -175.715464 
L 246.204878 -175.715464 
L 245.631836 -175.715464 
L 245.058793 -175.715464 
L 244.485751 -175.715464 
L 243.912709 -175.715464 
L 243.339666 -175.715464 
L 242.766624 -175.715464 
L 242.193582 -175.715464 
L 241.620539 -175.715464 
L 241.047497 -175.715464 
L 240.474454 -175.715464 
L 239.901412 -175.715464 
L 239.32837 -175.715464 
L 238.755327 -175.715464 
L 238.182285 -175.715464 
L 237.609243 -175.715464 
L 237.0362 -175.715464 
L 236.463158 -175.715464 
L 235.890116 -175.715464 
L 235.317073 -175.715464 
L 234.744031 -175.715464 
L 234.170988 -175.715464 
L 233.597946 -175.715464 
L 233.024904 -175.715464 
L 232.451861 -175.715464 
L 231.878819 -175.715464 
L 231.305777 -175.715464 
L 230.732734 -175.715464 
L 230.159692 -175.715464 
L 229.58665 -175.715464 
L 229.013607 -175.715464 
L 228.440565 -175.715464 
L 227.867522 -175.715464 
L 227.29448 -175.715464 
L 226.721438 -175.715464 
L 226.148395 -175.715464 
L 225.575353 -175.715464 
L 225.002311 -175.715464 
L 224.429268 -175.715464 
L 223.856226 -175.715464 
L 223.283184 -175.715464 
L 222.710141 -175.715464 
L 222.137099 -175.715464 
L 221.564056 -175.715464 
L 220.991014 -175.715464 
L 220.417972 -175.715464 
L 219.844929 -175.715464 
L 219.271887 -175.715464 
L 218.698845 -175.715464 
L 218.125802 -175.715464 
L 217.55276 -175.715464 
L 216.979718 -175.715464 
L 216.406675 -175.715464 
L 215.833633 -175.715464 
L 215.260591 -175.715464 
L 214.687548 -175.715464 
L 214.114506 -175.715464 
L 213.541463 -175.715464 
L 212.968421 -175.715464 
L 212.395379 -175.715464 
L 211.822336 -175.715464 
L 211.249294 -175.715464 
L 210.676252 -175.715464 
L 210.103209 -175.715464 
L 209.530167 -175.715464 
L 208.957125 -175.715464 
L 208.384082 -175.715464 
L 207.81104 -175.715464 
L 207.237997 -175.715464 
L 206.664955 -175.715464 
L 206.091913 -175.715464 
L 205.51887 -175.715464 
L 204.945828 -175.715464 
L 204.372786 -175.715464 
L 203.799743 -175.715464 
L 203.226701 -175.715464 
L 202.653659 -175.715464 
L 202.080616 -175.715464 
L 201.507574 -175.715464 
L 200.934531 -175.715464 
L 200.361489 -175.715464 
L 199.788447 -175.715464 
L 199.215404 -175.715464 
L 198.642362 -175.715464 
L 198.06932 -175.715464 
L 197.496277 -175.715464 
L 196.923235 -175.715464 
L 196.350193 -175.715464 
L 195.77715 -175.715464 
L 195.204108 -175.715464 
L 194.631065 -175.715464 
L 194.058023 -175.715464 
L 193.484981 -175.715464 
L 192.911938 -175.715464 
L 192.338896 -175.715464 
L 191.765854 -175.715464 
L 191.192811 -175.715464 
L 190.619769 -175.715464 
L 190.046727 -175.715464 
L 189.473684 -175.715464 
L 188.900642 -175.715464 
L 188.327599 -175.715464 
L 187.754557 -175.715464 
L 187.181515 -175.715464 
L 186.608472 -175.715464 
L 186.03543 -175.715464 
L 185.462388 -175.715464 
L 184.889345 -175.715464 
L 184.316303 -175.715464 
L 183.743261 -175.715464 
L 183.170218 -175.715464 
L 182.597176 -175.715464 
L 182.024134 -175.715464 
L 181.451091 -175.715464 
L 180.878049 -175.715464 
L 180.305006 -175.715464 
L 179.731964 -175.715464 
L 179.158922 -175.715464 
L 178.585879 -175.715464 
L 178.012837 -175.715464 
L 177.439795 -175.715464 
L 176.866752 -175.715464 
L 176.29371 -175.715464 
L 175.720668 -175.715464 
L 175.147625 -175.715464 
L 174.574583 -175.715464 
L 174.00154 -175.715464 
L 173.428498 -175.715464 
L 172.855456 -175.715464 
L 172.282413 -175.715464 
L 171.709371 -175.715464 
L 171.136329 -175.715464 
L 170.563286 -175.715464 
L 169.990244 -175.715464 
L 169.417202 -175.715464 
L 168.844159 -175.715464 
L 168.271117 -175.715464 
L 167.698074 -175.715464 
L 167.125032 -175.715464 
L 166.55199 -175.715464 
L 165.978947 -175.715464 
L 165.405905 -175.715464 
L 164.832863 -175.715464 
L 164.25982 -175.715464 
L 163.686778 -175.715464 
L 163.113736 -175.715464 
L 162.540693 -175.715464 
L 161.967651 -175.715464 
L 161.394608 -175.715464 
L 160.821566 -175.715464 
L 160.248524 -175.715464 
L 159.675481 -175.715464 
L 159.102439 -175.715464 
L 158.529397 -175.715464 
L 157.956354 -175.715464 
L 157.383312 -175.715464 
L 156.81027 -175.715464 
L 156.237227 -175.715464 
L 155.664185 -175.715464 
L 155.091142 -175.715464 
L 154.5181 -175.715464 
L 153.945058 -175.715464 
L 153.372015 -175.715464 
L 152.798973 -175.715464 
L 152.225931 -175.715464 
L 151.652888 -175.715464 
L 151.079846 -175.715464 
L 150.506804 -175.715464 
L 149.933761 -175.715464 
L 149.360719 -175.715464 
L 148.787677 -175.715464 
L 148.214634 -175.715464 
L 147.641592 -175.715464 
L 147.068549 -175.715464 
L 146.495507 -175.715464 
L 145.922465 -175.715464 
L 145.349422 -175.715464 
L 144.77638 -175.715464 
L 144.203338 -175.715464 
L 143.630295 -175.715464 
L 143.057253 -175.715464 
L 142.484211 -175.715464 
L 141.911168 -175.715464 
L 141.338126 -175.715464 
L 140.765083 -175.715464 
L 140.192041 -175.715464 
L 139.618999 -175.715464 
L 139.045956 -175.715464 
L 138.472914 -175.715464 
L 137.899872 -175.715464 
L 137.326829 -175.715464 
L 136.753787 -175.715464 
L 136.180745 -175.715464 
L 135.607702 -175.715464 
L 135.03466 -175.715464 
L 134.461617 -175.715464 
L 133.888575 -175.715464 
L 133.315533 -175.715464 
L 132.74249 -175.715464 
L 132.169448 -175.715464 
L 131.596406 -175.715464 
L 131.023363 -175.715464 
L 130.450321 -175.715464 
L 129.877279 -175.715464 
L 129.304236 -175.715464 
L 128.731194 -175.715464 
L 128.158151 -175.715464 
L 127.585109 -175.715464 
L 127.012067 -175.715464 
L 126.439024 -175.715464 
L 125.865982 -175.715464 
L 125.29294 -175.715464 
L 124.719897 -175.715464 
L 124.146855 -175.715464 
L 123.573813 -175.715464 
L 123.00077 -175.715464 
L 122.427728 -175.715464 
L 121.854685 -175.715464 
L 121.281643 -175.715464 
L 120.708601 -175.715464 
L 120.135558 -175.715464 
L 119.562516 -175.715464 
L 118.989474 -175.715464 
L 118.416431 -175.715464 
L 117.843389 -175.715464 
L 117.270347 -175.715464 
L 116.697304 -175.715464 
L 116.124262 -175.715464 
L 115.55122 -175.715464 
L 114.978177 -175.715464 
L 114.405135 -175.715464 
L 113.832092 -175.715464 
L 113.25905 -175.715464 
L 112.686008 -175.715464 
L 112.112965 -175.715464 
L 111.539923 -175.715464 
L 110.966881 -175.715464 
L 110.393838 -175.715464 
L 109.820796 -175.715464 
L 109.247754 -175.715464 
L 108.674711 -175.715464 
L 108.101669 -175.715464 
L 107.528626 -175.715464 
L 106.955584 -175.715464 
L 106.382542 -175.715464 
L 105.809499 -175.715464 
L 105.236457 -175.715464 
L 104.663415 -175.715464 
L 104.090372 -175.715464 
L 103.51733 -175.715464 
L 102.944288 -175.715464 
L 102.371245 -175.715464 
L 101.798203 -175.715464 
L 101.22516 -175.715464 
L 100.652118 -175.715464 
L 100.079076 -175.715464 
L 99.506033 -175.715464 
L 98.932991 -175.715464 
L 98.359949 -175.715464 
L 97.786906 -175.715464 
L 97.213864 -175.715464 
L 96.640822 -175.715464 
L 96.067779 -175.715464 
L 95.494737 -175.715464 
L 94.921694 -175.715464 
L 94.348652 -175.715464 
L 93.77561 -175.715464 
L 93.202567 -175.715464 
L 92.629525 -175.715464 
L 92.056483 -175.715464 
L 91.48344 -175.715464 
L 90.910398 -175.715464 
L 90.337356 -175.715464 
L 89.764313 -175.715464 
L 89.191271 -175.715464 
L 88.618228 -175.715464 
L 88.045186 -175.715464 
L 87.472144 -175.715464 
L 86.899101 -175.715464 
L 86.326059 -175.715464 
L 85.753017 -175.715464 
L 85.179974 -175.715464 
L 84.606932 -175.715464 
L 84.03389 -175.715464 
L 83.460847 -175.715464 
L 82.887805 -175.715464 
L 82.314763 -175.715464 
L 81.74172 -175.715464 
L 81.168678 -175.715464 
L 80.595635 -175.715464 
L 80.022593 -175.715464 
L 79.449551 -175.715464 
L 78.876508 -175.715464 
L 78.303466 -175.715464 
L 77.730424 -175.715464 
L 77.157381 -175.715464 
L 76.584339 -175.715464 
L 76.011297 -175.715464 
L 75.438254 -175.715464 
L 74.865212 -175.715464 
L 74.292169 -175.715464 
L 73.719127 -175.715464 
L 73.146085 -175.715464 
L 72.573042 -175.715464 
L 72 -175.715464 
z
" id="mc6dcabc2b2"/>
    </defs>
    <g clip-path="url(#p986095f9ba)">
     <use style="fill-opacity:0.15;" x="0" xlink:href="#mc6dcabc2b2" y="360"/>
    </g>
   </g>
   <g id="matplotlib.axis_1">
    <g id="xtick_1">
     <g id="line2d_1">
      <defs>
       <path d="M 0 0 
L 0 3.5 
" id="m9ee6d726d4" style="stroke:#000000;stroke-width:0.8;"/>
      </defs>
      <g>
       <use style="stroke:#000000;stroke-width:0.8;" x="72" xlink:href="#m9ee6d726d4" y="320.4"/>
      </g>
     </g>
     <g id="text_1">
      <!-- 0.0 -->
      <g transform="translate(60.867812 338.037813)scale(0.14 -0.14)">
       <defs>
        <path d="M 2034 4250 
Q 1547 4250 1301 3770 
Q 1056 3291 1056 2328 
Q 1056 1369 1301 889 
Q 1547 409 2034 409 
Q 2525 409 2770 889 
Q 3016 1369 3016 2328 
Q 3016 3291 2770 3770 
Q 2525 4250 2034 4250 
z
M 2034 4750 
Q 2819 4750 3233 4129 
Q 3647 3509 3647 2328 
Q 3647 1150 3233 529 
Q 2819 -91 2034 -91 
Q 1250 -91 836 529 
Q 422 1150 422 2328 
Q 422 3509 836 4129 
Q 1250 4750 2034 4750 
z
" id="DejaVuSans-30" transform="scale(0.015625)"/>
        <path d="M 684 794 
L 1344 794 
L 1344 0 
L 684 0 
L 684 794 
z
" id="DejaVuSans-2e" transform="scale(0.015625)"/>
       </defs>
       <use xlink:href="#DejaVuSans-30"/>
       <use x="63.623047" xlink:href="#DejaVuSans-2e"/>
       <use x="95.410156" xlink:href="#DejaVuSans-30"/>
      </g>
     </g>
    </g>
    <g id="xtick_2">
     <g id="line2d_2">
      <g>
       <use style="stroke:#000000;stroke-width:0.8;" x="127.816745" xlink:href="#m9ee6d726d4" y="320.4"/>
      </g>
     </g>
     <g id="text_2">
      <!-- 2.5 -->
      <g transform="translate(116.684558 338.037813)scale(0.14 -0.14)">
       <defs>
        <path d="M 1228 531 
L 3431 531 
L 3431 0 
L 469 0 
L 469 531 
Q 828 903 1448 1529 
Q 2069 2156 2228 2338 
Q 2531 2678 2651 2914 
Q 2772 3150 2772 3378 
Q 2772 3750 2511 3984 
Q 2250 4219 1831 4219 
Q 1534 4219 1204 4116 
Q 875 4013 500 3803 
L 500 4441 
Q 881 4594 1212 4672 
Q 1544 4750 1819 4750 
Q 2544 4750 2975 4387 
Q 3406 4025 3406 3419 
Q 3406 3131 3298 2873 
Q 3191 2616 2906 2266 
Q 2828 2175 2409 1742 
Q 1991 1309 1228 531 
z
" id="DejaVuSans-32" transform="scale(0.015625)"/>
        <path d="M 691 4666 
L 3169 4666 
L 3169 4134 
L 1269 4134 
L 1269 2991 
Q 1406 3038 1543 3061 
Q 1681 3084 1819 3084 
Q 2600 3084 3056 2656 
Q 3513 2228 3513 1497 
Q 3513 744 3044 326 
Q 2575 -91 1722 -91 
Q 1428 -91 1123 -41 
Q 819 9 494 109 
L 494 744 
Q 775 591 1075 516 
Q 1375 441 1709 441 
Q 2250 441 2565 725 
Q 2881 1009 2881 1497 
Q 2881 1984 2565 2268 
Q 2250 2553 1709 2553 
Q 1456 2553 1204 2497 
Q 953 2441 691 2322 
L 691 4666 
z
" id="DejaVuSans-35" transform="scale(0.015625)"/>
       </defs>
       <use xlink:href="#DejaVuSans-32"/>
       <use x="63.623047" xlink:href="#DejaVuSans-2e"/>
       <use x="95.410156" xlink:href="#DejaVuSans-35"/>
      </g>
     </g>
    </g>
    <g id="xtick_3">
     <g id="line2d_3">
      <g>
       <use style="stroke:#000000;stroke-width:0.8;" x="183.63349" xlink:href="#m9ee6d726d4" y="320.4"/>
      </g>
     </g>
     <g id="text_3">
      <!-- 5.0 -->
      <g transform="translate(172.501303 338.037813)scale(0.14 -0.14)">
       <use xlink:href="#DejaVuSans-35"/>
       <use x="63.623047" xlink:href="#DejaVuSans-2e"/>
       <use x="95.410156" xlink:href="#DejaVuSans-30"/>
      </g>
     </g>
    </g>
    <g id="xtick_4">
     <g id="line2d_4">
      <g>
       <use style="stroke:#000000;stroke-width:0.8;" x="239.450235" xlink:href="#m9ee6d726d4" y="320.4"/>
      </g>
     </g>
     <g id="text_4">
      <!-- 7.5 -->
      <g transform="translate(228.318048 338.037813)scale(0.14 -0.14)">
       <defs>
        <path d="M 525 4666 
L 3525 4666 
L 3525 4397 
L 1831 0 
L 1172 0 
L 2766 4134 
L 525 4134 
L 525 4666 
z
" id="DejaVuSans-37" transform="scale(0.015625)"/>
       </defs>
       <use xlink:href="#DejaVuSans-37"/>
       <use x="63.623047" xlink:href="#DejaVuSans-2e"/>
       <use x="95.410156" xlink:href="#DejaVuSans-35"/>
      </g>
     </g>
    </g>
    <g id="xtick_5">
     <g id="line2d_5">
      <g>
       <use style="stroke:#000000;stroke-width:0.8;" x="295.26698" xlink:href="#m9ee6d726d4" y="320.4"/>
      </g>
     </g>
     <g id="text_5">
      <!-- 10.0 -->
      <g transform="translate(279.681043 338.037813)scale(0.14 -0.14)">
       <defs>
        <path d="M 794 531 
L 1825 531 
L 1825 4091 
L 703 3866 
L 703 4441 
L 1819 4666 
L 2450 4666 
L 2450 531 
L 3481 531 
L 3481 0 
L 794 0 
L 794 531 
z
" id="DejaVuSans-31" transform="scale(0.015625)"/>
       </defs>
       <use xlink:href="#DejaVuSans-31"/>
       <use x="63.623047" xlink:href="#DejaVuSans-30"/>
       <use x="127.246094" xlink:href="#DejaVuSans-2e"/>
       <use x="159.033203" xlink:href="#DejaVuSans-30"/>
      </g>
     </g>
    </g>
    <g id="xtick_6">
     <g id="line2d_6">
      <g>
       <use style="stroke:#000000;stroke-width:0.8;" x="351.083725" xlink:href="#m9ee6d726d4" y="320.4"/>
      </g>
     </g>
     <g id="text_6">
      <!-- 12.5 -->
      <g transform="translate(335.497788 338.037813)scale(0.14 -0.14)">
       <use xlink:href="#DejaVuSans-31"/>
       <use x="63.623047" xlink:href="#DejaVuSans-32"/>
       <use x="127.246094" xlink:href="#DejaVuSans-2e"/>
       <use x="159.033203" xlink:href="#DejaVuSans-35"/>
      </g>
     </g>
    </g>
    <g id="xtick_7">
     <g id="line2d_7">
      <g>
       <use style="stroke:#000000;stroke-width:0.8;" x="406.90047" xlink:href="#m9ee6d726d4" y="320.4"/>
      </g>
     </g>
     <g id="text_7">
      <!-- 15.0 -->
      <g transform="translate(391.314533 338.037813)scale(0.14 -0.14)">
       <use xlink:href="#DejaVuSans-31"/>
       <use x="63.623047" xlink:href="#DejaVuSans-35"/>
       <use x="127.246094" xlink:href="#DejaVuSans-2e"/>
       <use x="159.033203" xlink:href="#DejaVuSans-30"/>
      </g>
     </g>
    </g>
    <g id="xtick_8">
     <g id="line2d_8">
      <g>
       <use style="stroke:#000000;stroke-width:0.8;" x="462.717215" xlink:href="#m9ee6d726d4" y="320.4"/>
      </g>
     </g>
     <g id="text_8">
      <!-- 17.5 -->
      <g transform="translate(447.131278 338.037813)scale(0.14 -0.14)">
       <use xlink:href="#DejaVuSans-31"/>
       <use x="63.623047" xlink:href="#DejaVuSans-37"/>
       <use x="127.246094" xlink:href="#DejaVuSans-2e"/>
       <use x="159.033203" xlink:href="#DejaVuSans-35"/>
      </g>
     </g>
    </g>
    <g id="text_9">
     <!-- Time [Seconds] -->
     <g transform="translate(233.23 357.106875)scale(0.16 -0.16)">
      <defs>
       <path d="M -19 4666 
L 3928 4666 
L 3928 4134 
L 2272 4134 
L 2272 0 
L 1638 0 
L 1638 4134 
L -19 4134 
L -19 4666 
z
" id="DejaVuSans-54" transform="scale(0.015625)"/>
       <path d="M 603 3500 
L 1178 3500 
L 1178 0 
L 603 0 
L 603 3500 
z
M 603 4863 
L 1178 4863 
L 1178 4134 
L 603 4134 
L 603 4863 
z
" id="DejaVuSans-69" transform="scale(0.015625)"/>
       <path d="M 3328 2828 
Q 3544 3216 3844 3400 
Q 4144 3584 4550 3584 
Q 5097 3584 5394 3201 
Q 5691 2819 5691 2113 
L 5691 0 
L 5113 0 
L 5113 2094 
Q 5113 2597 4934 2840 
Q 4756 3084 4391 3084 
Q 3944 3084 3684 2787 
Q 3425 2491 3425 1978 
L 3425 0 
L 2847 0 
L 2847 2094 
Q 2847 2600 2669 2842 
Q 2491 3084 2119 3084 
Q 1678 3084 1418 2786 
Q 1159 2488 1159 1978 
L 1159 0 
L 581 0 
L 581 3500 
L 1159 3500 
L 1159 2956 
Q 1356 3278 1631 3431 
Q 1906 3584 2284 3584 
Q 2666 3584 2933 3390 
Q 3200 3197 3328 2828 
z
" id="DejaVuSans-6d" transform="scale(0.015625)"/>
       <path d="M 3597 1894 
L 3597 1613 
L 953 1613 
Q 991 1019 1311 708 
Q 1631 397 2203 397 
Q 2534 397 2845 478 
Q 3156 559 3463 722 
L 3463 178 
Q 3153 47 2828 -22 
Q 2503 -91 2169 -91 
Q 1331 -91 842 396 
Q 353 884 353 1716 
Q 353 2575 817 3079 
Q 1281 3584 2069 3584 
Q 2775 3584 3186 3129 
Q 3597 2675 3597 1894 
z
M 3022 2063 
Q 3016 2534 2758 2815 
Q 2500 3097 2075 3097 
Q 1594 3097 1305 2825 
Q 1016 2553 972 2059 
L 3022 2063 
z
" id="DejaVuSans-65" transform="scale(0.015625)"/>
       <path id="DejaVuSans-20" transform="scale(0.015625)"/>
       <path d="M 550 4863 
L 1875 4863 
L 1875 4416 
L 1125 4416 
L 1125 -397 
L 1875 -397 
L 1875 -844 
L 550 -844 
L 550 4863 
z
" id="DejaVuSans-5b" transform="scale(0.015625)"/>
       <path d="M 3425 4513 
L 3425 3897 
Q 3066 4069 2747 4153 
Q 2428 4238 2131 4238 
Q 1616 4238 1336 4038 
Q 1056 3838 1056 3469 
Q 1056 3159 1242 3001 
Q 1428 2844 1947 2747 
L 2328 2669 
Q 3034 2534 3370 2195 
Q 3706 1856 3706 1288 
Q 3706 609 3251 259 
Q 2797 -91 1919 -91 
Q 1588 -91 1214 -16 
Q 841 59 441 206 
L 441 856 
Q 825 641 1194 531 
Q 1563 422 1919 422 
Q 2459 422 2753 634 
Q 3047 847 3047 1241 
Q 3047 1584 2836 1778 
Q 2625 1972 2144 2069 
L 1759 2144 
Q 1053 2284 737 2584 
Q 422 2884 422 3419 
Q 422 4038 858 4394 
Q 1294 4750 2059 4750 
Q 2388 4750 2728 4690 
Q 3069 4631 3425 4513 
z
" id="DejaVuSans-53" transform="scale(0.015625)"/>
       <path d="M 3122 3366 
L 3122 2828 
Q 2878 2963 2633 3030 
Q 2388 3097 2138 3097 
Q 1578 3097 1268 2742 
Q 959 2388 959 1747 
Q 959 1106 1268 751 
Q 1578 397 2138 397 
Q 2388 397 2633 464 
Q 2878 531 3122 666 
L 3122 134 
Q 2881 22 2623 -34 
Q 2366 -91 2075 -91 
Q 1284 -91 818 406 
Q 353 903 353 1747 
Q 353 2603 823 3093 
Q 1294 3584 2113 3584 
Q 2378 3584 2631 3529 
Q 2884 3475 3122 3366 
z
" id="DejaVuSans-63" transform="scale(0.015625)"/>
       <path d="M 1959 3097 
Q 1497 3097 1228 2736 
Q 959 2375 959 1747 
Q 959 1119 1226 758 
Q 1494 397 1959 397 
Q 2419 397 2687 759 
Q 2956 1122 2956 1747 
Q 2956 2369 2687 2733 
Q 2419 3097 1959 3097 
z
M 1959 3584 
Q 2709 3584 3137 3096 
Q 3566 2609 3566 1747 
Q 3566 888 3137 398 
Q 2709 -91 1959 -91 
Q 1206 -91 779 398 
Q 353 888 353 1747 
Q 353 2609 779 3096 
Q 1206 3584 1959 3584 
z
" id="DejaVuSans-6f" transform="scale(0.015625)"/>
       <path d="M 3513 2113 
L 3513 0 
L 2938 0 
L 2938 2094 
Q 2938 2591 2744 2837 
Q 2550 3084 2163 3084 
Q 1697 3084 1428 2787 
Q 1159 2491 1159 1978 
L 1159 0 
L 581 0 
L 581 3500 
L 1159 3500 
L 1159 2956 
Q 1366 3272 1645 3428 
Q 1925 3584 2291 3584 
Q 2894 3584 3203 3211 
Q 3513 2838 3513 2113 
z
" id="DejaVuSans-6e" transform="scale(0.015625)"/>
       <path d="M 2906 2969 
L 2906 4863 
L 3481 4863 
L 3481 0 
L 2906 0 
L 2906 525 
Q 2725 213 2448 61 
Q 2172 -91 1784 -91 
Q 1150 -91 751 415 
Q 353 922 353 1747 
Q 353 2572 751 3078 
Q 1150 3584 1784 3584 
Q 2172 3584 2448 3432 
Q 2725 3281 2906 2969 
z
M 947 1747 
Q 947 1113 1208 752 
Q 1469 391 1925 391 
Q 2381 391 2643 752 
Q 2906 1113 2906 1747 
Q 2906 2381 2643 2742 
Q 2381 3103 1925 3103 
Q 1469 3103 1208 2742 
Q 947 2381 947 1747 
z
" id="DejaVuSans-64" transform="scale(0.015625)"/>
       <path d="M 2834 3397 
L 2834 2853 
Q 2591 2978 2328 3040 
Q 2066 3103 1784 3103 
Q 1356 3103 1142 2972 
Q 928 2841 928 2578 
Q 928 2378 1081 2264 
Q 1234 2150 1697 2047 
L 1894 2003 
Q 2506 1872 2764 1633 
Q 3022 1394 3022 966 
Q 3022 478 2636 193 
Q 2250 -91 1575 -91 
Q 1294 -91 989 -36 
Q 684 19 347 128 
L 347 722 
Q 666 556 975 473 
Q 1284 391 1588 391 
Q 1994 391 2212 530 
Q 2431 669 2431 922 
Q 2431 1156 2273 1281 
Q 2116 1406 1581 1522 
L 1381 1569 
Q 847 1681 609 1914 
Q 372 2147 372 2553 
Q 372 3047 722 3315 
Q 1072 3584 1716 3584 
Q 2034 3584 2315 3537 
Q 2597 3491 2834 3397 
z
" id="DejaVuSans-73" transform="scale(0.015625)"/>
       <path d="M 1947 4863 
L 1947 -844 
L 622 -844 
L 622 -397 
L 1369 -397 
L 1369 4416 
L 622 4416 
L 622 4863 
L 1947 4863 
z
" id="DejaVuSans-5d" transform="scale(0.015625)"/>
      </defs>
      <use xlink:href="#DejaVuSans-54"/>
      <use x="57.958984" xlink:href="#DejaVuSans-69"/>
      <use x="85.742188" xlink:href="#DejaVuSans-6d"/>
      <use x="183.154297" xlink:href="#DejaVuSans-65"/>
      <use x="244.677734" xlink:href="#DejaVuSans-20"/>
      <use x="276.464844" xlink:href="#DejaVuSans-5b"/>
      <use x="315.478516" xlink:href="#DejaVuSans-53"/>
      <use x="378.955078" xlink:href="#DejaVuSans-65"/>
      <use x="440.478516" xlink:href="#DejaVuSans-63"/>
      <use x="495.458984" xlink:href="#DejaVuSans-6f"/>
      <use x="556.640625" xlink:href="#DejaVuSans-6e"/>
      <use x="620.019531" xlink:href="#DejaVuSans-64"/>
      <use x="683.496094" xlink:href="#DejaVuSans-73"/>
      <use x="735.595703" xlink:href="#DejaVuSans-5d"/>
     </g>
    </g>
   </g>
   <g id="matplotlib.axis_2">
    <g id="ytick_1">
     <g id="line2d_9">
      <defs>
       <path d="M 0 0 
L -3.5 0 
" id="m7156b6842b" style="stroke:#000000;stroke-width:0.8;"/>
      </defs>
      <g>
       <use style="stroke:#000000;stroke-width:0.8;" x="72" xlink:href="#m7156b6842b" y="281.110328"/>
      </g>
     </g>
     <g id="text_10">
      <!-- 0.0 -->
      <g transform="translate(42.735625 286.429234)scale(0.14 -0.14)">
       <use xlink:href="#DejaVuSans-30"/>
       <use x="63.623047" xlink:href="#DejaVuSans-2e"/>
       <use x="95.410156" xlink:href="#DejaVuSans-30"/>
      </g>
     </g>
    </g>
    <g id="ytick_2">
     <g id="line2d_10">
      <g>
       <use style="stroke:#000000;stroke-width:0.8;" x="72" xlink:href="#m7156b6842b" y="226.345081"/>
      </g>
     </g>
     <g id="text_11">
      <!-- 0.5 -->
      <g transform="translate(42.735625 231.663988)scale(0.14 -0.14)">
       <use xlink:href="#DejaVuSans-30"/>
       <use x="63.623047" xlink:href="#DejaVuSans-2e"/>
       <use x="95.410156" xlink:href="#DejaVuSans-35"/>
      </g>
     </g>
    </g>
    <g id="ytick_3">
     <g id="line2d_11">
      <g>
       <use style="stroke:#000000;stroke-width:0.8;" x="72" xlink:href="#m7156b6842b" y="171.579835"/>
      </g>
     </g>
     <g id="text_12">
      <!-- 1.0 -->
      <g transform="translate(42.735625 176.898741)scale(0.14 -0.14)">
       <use xlink:href="#DejaVuSans-31"/>
       <use x="63.623047" xlink:href="#DejaVuSans-2e"/>
       <use x="95.410156" xlink:href="#DejaVuSans-30"/>
      </g>
     </g>
    </g>
    <g id="ytick_4">
     <g id="line2d_12">
      <g>
       <use style="stroke:#000000;stroke-width:0.8;" x="72" xlink:href="#m7156b6842b" y="116.814588"/>
      </g>
     </g>
     <g id="text_13">
      <!-- 1.5 -->
      <g transform="translate(42.735625 122.133494)scale(0.14 -0.14)">
       <use xlink:href="#DejaVuSans-31"/>
       <use x="63.623047" xlink:href="#DejaVuSans-2e"/>
       <use x="95.410156" xlink:href="#DejaVuSans-35"/>
      </g>
     </g>
    </g>
    <g id="ytick_5">
     <g id="line2d_13">
      <g>
       <use style="stroke:#000000;stroke-width:0.8;" x="72" xlink:href="#m7156b6842b" y="62.049341"/>
      </g>
     </g>
     <g id="text_14">
      <!-- 2.0 -->
      <g transform="translate(42.735625 67.368247)scale(0.14 -0.14)">
       <use xlink:href="#DejaVuSans-32"/>
       <use x="63.623047" xlink:href="#DejaVuSans-2e"/>
       <use x="95.410156" xlink:href="#DejaVuSans-30"/>
      </g>
     </g>
    </g>
    <g id="text_15">
     <!-- Speed [mm/s] -->
     <g transform="translate(35.408125 238.11375)rotate(-90)scale(0.16 -0.16)">
      <defs>
       <path d="M 1159 525 
L 1159 -1331 
L 581 -1331 
L 581 3500 
L 1159 3500 
L 1159 2969 
Q 1341 3281 1617 3432 
Q 1894 3584 2278 3584 
Q 2916 3584 3314 3078 
Q 3713 2572 3713 1747 
Q 3713 922 3314 415 
Q 2916 -91 2278 -91 
Q 1894 -91 1617 61 
Q 1341 213 1159 525 
z
M 3116 1747 
Q 3116 2381 2855 2742 
Q 2594 3103 2138 3103 
Q 1681 3103 1420 2742 
Q 1159 2381 1159 1747 
Q 1159 1113 1420 752 
Q 1681 391 2138 391 
Q 2594 391 2855 752 
Q 3116 1113 3116 1747 
z
" id="DejaVuSans-70" transform="scale(0.015625)"/>
       <path d="M 1625 4666 
L 2156 4666 
L 531 -594 
L 0 -594 
L 1625 4666 
z
" id="DejaVuSans-2f" transform="scale(0.015625)"/>
      </defs>
      <use xlink:href="#DejaVuSans-53"/>
      <use x="63.476562" xlink:href="#DejaVuSans-70"/>
      <use x="126.953125" xlink:href="#DejaVuSans-65"/>
      <use x="188.476562" xlink:href="#DejaVuSans-65"/>
      <use x="250" xlink:href="#DejaVuSans-64"/>
      <use x="313.476562" xlink:href="#DejaVuSans-20"/>
      <use x="345.263672" xlink:href="#DejaVuSans-5b"/>
      <use x="384.277344" xlink:href="#DejaVuSans-6d"/>
      <use x="481.689453" xlink:href="#DejaVuSans-6d"/>
      <use x="579.101562" xlink:href="#DejaVuSans-2f"/>
      <use x="612.792969" xlink:href="#DejaVuSans-73"/>
      <use x="664.892578" xlink:href="#DejaVuSans-5d"/>
     </g>
    </g>
   </g>
   <g id="line2d_14">
    <path clip-path="url(#p986095f9ba)" d="M 72 181.705297 
L 518.4 181.705297 
" style="fill:none;stroke:#000000;stroke-dasharray:5.55,2.4;stroke-dashoffset:0;stroke-width:1.5;"/>
   </g>
   <g id="line2d_15">
    <path clip-path="url(#p986095f9ba)" d="M 72 278.929411 
L 110.393838 278.87388 
L 110.966881 279.157632 
L 111.539923 278.111092 
L 112.112965 276.421305 
L 112.686008 277.070313 
L 113.25905 278.931337 
L 113.832092 280.002194 
L 114.978177 279.701399 
L 115.55122 279.965368 
L 116.124262 277.575409 
L 116.697304 269.42304 
L 117.270347 265.221872 
L 117.843389 277.830437 
L 118.416431 295.362511 
L 118.989474 305.034718 
L 119.562516 307.8 
L 120.135558 304.254632 
L 120.708601 295.783145 
L 121.281643 282.167656 
L 121.854685 265.438189 
L 123.00077 223.250614 
L 125.865982 110.305407 
L 127.012067 78.465435 
L 127.585109 67.04061 
L 128.158151 59.541196 
L 128.731194 55.882859 
L 129.304236 55.8 
L 129.877279 59.769904 
L 130.450321 66.930814 
L 131.023363 76.840864 
L 132.169448 103.903144 
L 135.03466 179.078585 
L 135.607702 189.041543 
L 136.180745 193.579655 
L 136.753787 192.052875 
L 137.326829 184.866586 
L 137.899872 172.368152 
L 138.472914 157.430281 
L 139.045956 152.544766 
L 139.618999 162.799277 
L 140.192041 170.23438 
L 140.765083 170.288566 
L 141.338126 171.083415 
L 142.484211 173.537154 
L 143.057253 174.429634 
L 143.630295 175.831993 
L 144.203338 175.61728 
L 145.349422 178.171375 
L 145.922465 177.242321 
L 146.495507 178.939215 
L 147.068549 179.897322 
L 147.641592 181.135979 
L 148.214634 180.377846 
L 148.787677 178.542071 
L 149.360719 180.351677 
L 149.933761 180.300619 
L 150.506804 179.263532 
L 151.079846 179.482713 
L 151.652888 180.622223 
L 152.225931 180.76359 
L 152.798973 179.28901 
L 153.372015 178.66453 
L 153.945058 178.353342 
L 154.5181 178.341959 
L 155.091142 178.128296 
L 155.664185 178.472026 
L 156.237227 178.207031 
L 156.81027 178.550599 
L 157.383312 180.015202 
L 157.956354 179.811086 
L 158.529397 179.465367 
L 159.102439 179.5427 
L 159.675481 181.606707 
L 160.248524 182.891499 
L 161.394608 182.124372 
L 161.967651 182.346367 
L 162.540693 183.317814 
L 163.686778 185.923503 
L 164.25982 185.207429 
L 164.832863 184.100657 
L 165.405905 182.284568 
L 165.978947 181.406884 
L 166.55199 181.270631 
L 167.125032 181.266702 
L 167.698074 181.998657 
L 168.271117 181.355838 
L 168.844159 181.400968 
L 169.417202 180.811725 
L 169.990244 178.770177 
L 170.563286 178.810447 
L 171.136329 180.527815 
L 171.709371 178.722026 
L 172.282413 178.207483 
L 172.855456 181.475224 
L 173.428498 183.759511 
L 174.00154 183.628151 
L 174.574583 182.262602 
L 175.147625 182.364361 
L 175.720668 182.834923 
L 176.29371 182.930207 
L 176.866752 181.937413 
L 177.439795 181.963055 
L 178.585879 183.513682 
L 179.158922 183.738412 
L 179.731964 182.855021 
L 180.305006 183.806247 
L 180.878049 182.564986 
L 181.451091 181.61489 
L 182.024134 181.953014 
L 182.597176 181.3656 
L 183.170218 180.469636 
L 183.743261 178.929039 
L 184.316303 179.271971 
L 184.889345 180.305707 
L 185.462388 180.952536 
L 186.608472 179.871753 
L 187.181515 179.457924 
L 187.754557 180.799557 
L 188.327599 181.178979 
L 188.900642 180.335972 
L 189.473684 180.28668 
L 190.619769 181.757712 
L 191.192811 180.776416 
L 191.765854 180.421565 
L 192.338896 180.248606 
L 192.911938 179.076516 
L 193.484981 179.035669 
L 194.058023 181.90522 
L 194.631065 184.034714 
L 195.204108 183.990859 
L 195.77715 183.510911 
L 196.350193 183.527634 
L 196.923235 182.702282 
L 197.496277 182.478898 
L 198.06932 184.209109 
L 198.642362 183.228736 
L 199.215404 182.472184 
L 199.788447 183.919927 
L 200.361489 185.779391 
L 200.934531 184.749305 
L 201.507574 183.148234 
L 202.080616 184.539066 
L 202.653659 183.284565 
L 203.226701 182.729404 
L 203.799743 183.840528 
L 204.372786 184.543886 
L 204.945828 182.714011 
L 205.51887 179.306595 
L 206.091913 178.228664 
L 207.237997 178.472623 
L 207.81104 179.898042 
L 208.384082 180.900326 
L 208.957125 179.434503 
L 209.530167 179.7755 
L 210.103209 180.290082 
L 210.676252 180.189655 
L 211.249294 180.885402 
L 212.395379 183.490641 
L 212.968421 183.085506 
L 213.541463 181.346907 
L 214.114506 180.64425 
L 214.687548 180.91296 
L 215.260591 184.042108 
L 215.833633 184.857329 
L 216.406675 182.822952 
L 216.979718 184.124833 
L 217.55276 183.562293 
L 218.125802 182.491804 
L 218.698845 179.92662 
L 219.271887 179.979718 
L 219.844929 183.3964 
L 220.417972 182.459309 
L 220.991014 180.959362 
L 221.564056 182.105548 
L 222.137099 181.98412 
L 222.710141 180.008468 
L 223.856226 183.564784 
L 224.429268 183.510856 
L 225.002311 182.570538 
L 225.575353 183.931783 
L 226.148395 184.557318 
L 226.721438 182.446885 
L 227.29448 183.604043 
L 227.867522 182.900843 
L 228.440565 182.408091 
L 229.013607 183.392418 
L 229.58665 182.940977 
L 230.732734 180.131367 
L 231.305777 181.053818 
L 231.878819 182.97305 
L 232.451861 183.390336 
L 233.024904 182.735245 
L 233.597946 183.391791 
L 234.170988 182.67525 
L 234.744031 180.681722 
L 235.317073 180.400444 
L 235.890116 181.465179 
L 236.463158 180.659449 
L 237.0362 180.770388 
L 237.609243 181.383679 
L 238.182285 181.762904 
L 238.755327 181.837824 
L 239.32837 180.530716 
L 239.901412 181.86149 
L 240.474454 180.719582 
L 241.047497 180.349661 
L 241.620539 182.481378 
L 242.193582 182.410578 
L 242.766624 181.304939 
L 243.339666 182.68866 
L 243.912709 182.571883 
L 244.485751 182.210089 
L 245.058793 182.707971 
L 245.631836 181.260002 
L 246.204878 181.199835 
L 246.77792 181.455227 
L 247.350963 182.944739 
L 247.924005 181.867193 
L 249.07009 184.454544 
L 249.643132 181.907757 
L 250.216175 181.827886 
L 251.362259 180.870761 
L 251.935302 180.696107 
L 252.508344 181.087009 
L 253.081386 180.830879 
L 253.654429 180.1957 
L 254.227471 180.454355 
L 254.800513 181.540967 
L 255.373556 181.675838 
L 255.946598 181.050529 
L 256.519641 182.640707 
L 257.092683 182.769331 
L 257.665725 180.967287 
L 258.238768 179.601061 
L 258.81181 181.082799 
L 259.384852 183.872337 
L 259.957895 182.535398 
L 260.530937 180.710411 
L 261.103979 182.158054 
L 261.677022 183.994892 
L 262.250064 182.512728 
L 262.823107 180.694982 
L 263.969191 182.533354 
L 264.542234 182.790787 
L 265.115276 184.031525 
L 265.688318 183.561867 
L 266.834403 181.280131 
L 267.407445 180.724852 
L 268.55353 180.02272 
L 269.126573 180.255102 
L 269.699615 181.011018 
L 270.272657 182.303318 
L 270.8457 181.603063 
L 271.418742 181.663522 
L 271.991784 182.404887 
L 272.564827 181.2867 
L 273.137869 181.887192 
L 273.710911 182.279396 
L 274.283954 183.18374 
L 274.856996 182.780412 
L 275.430039 181.159228 
L 276.003081 183.881174 
L 276.576123 184.766992 
L 277.149166 183.216903 
L 277.722208 183.469242 
L 278.29525 183.292198 
L 278.868293 182.838182 
L 279.441335 182.079085 
L 280.014377 181.575902 
L 280.58742 183.267086 
L 281.160462 183.364772 
L 281.733504 180.818284 
L 282.306547 180.16517 
L 282.879589 181.718732 
L 283.452632 182.414354 
L 284.025674 182.268132 
L 284.598716 181.321654 
L 285.171759 181.43361 
L 285.744801 180.30031 
L 286.317843 180.076877 
L 286.890886 181.894562 
L 288.03697 183.397723 
L 288.610013 183.79352 
L 289.756098 180.544739 
L 290.32914 181.616654 
L 290.902182 183.587948 
L 291.475225 184.262089 
L 292.048267 182.041769 
L 292.621309 181.641107 
L 293.194352 181.990963 
L 293.767394 181.826267 
L 294.340436 181.166788 
L 294.913479 180.714488 
L 296.059564 180.285057 
L 297.205648 181.218141 
L 297.778691 183.832386 
L 298.351733 182.61652 
L 298.924775 180.466638 
L 299.497818 181.553976 
L 300.643902 184.704236 
L 301.216945 182.432375 
L 301.789987 181.024839 
L 302.36303 182.680118 
L 302.936072 181.883825 
L 303.509114 181.607667 
L 304.082157 182.571255 
L 304.655199 181.629977 
L 305.228241 181.291447 
L 305.801284 183.356927 
L 306.374326 182.256403 
L 306.947368 179.850247 
L 307.520411 179.347066 
L 308.093453 181.048338 
L 308.666496 182.095808 
L 309.239538 181.85975 
L 309.81258 180.740078 
L 310.958665 181.653696 
L 311.531707 181.759848 
L 312.10475 184.654187 
L 312.677792 185.632383 
L 313.250834 184.209587 
L 313.823877 182.261574 
L 314.396919 183.054848 
L 314.969961 183.022436 
L 315.543004 183.259979 
L 316.116046 184.379411 
L 316.689089 182.864527 
L 317.262131 180.352012 
L 317.835173 180.758739 
L 318.408216 183.44466 
L 318.981258 182.333839 
L 319.5543 181.500378 
L 320.127343 182.450963 
L 320.700385 182.157385 
L 321.273427 182.077971 
L 321.84647 183.17852 
L 322.419512 183.282761 
L 322.992555 181.545761 
L 323.565597 181.176463 
L 324.138639 182.960596 
L 324.711682 183.73615 
L 325.857766 179.835599 
L 326.430809 179.060917 
L 327.576893 181.737352 
L 328.149936 180.635886 
L 328.722978 180.165255 
L 329.296021 181.107737 
L 329.869063 181.692192 
L 330.442105 181.33595 
L 331.015148 181.392029 
L 331.58819 179.778267 
L 332.161232 179.800374 
L 332.734275 180.543376 
L 333.307317 179.756936 
L 333.880359 181.947477 
L 334.453402 182.375149 
L 335.026444 180.635556 
L 335.599487 181.278233 
L 336.172529 182.25781 
L 336.745571 182.821344 
L 337.891656 185.152934 
L 338.464698 182.651474 
L 339.037741 181.148205 
L 339.610783 184.30917 
L 340.183825 185.407088 
L 340.756868 182.785825 
L 341.32991 182.33119 
L 341.902953 183.529969 
L 343.049037 180.972754 
L 343.62208 182.099198 
L 344.195122 182.915328 
L 344.768164 183.06991 
L 345.341207 184.062512 
L 345.914249 184.779344 
L 346.487291 183.785889 
L 347.060334 181.405179 
L 348.206418 183.596608 
L 348.779461 182.161896 
L 349.352503 181.231436 
L 350.498588 180.01656 
L 351.07163 178.743509 
L 351.644673 179.185765 
L 352.217715 182.117107 
L 352.790757 182.427654 
L 353.3638 181.245343 
L 353.936842 181.406094 
L 354.509884 181.767215 
L 355.082927 181.170272 
L 355.655969 182.576502 
L 356.229012 181.917844 
L 356.802054 179.776294 
L 358.521181 184.417692 
L 359.667266 181.408135 
L 360.240308 180.265418 
L 360.81335 180.731955 
L 361.386393 182.725423 
L 362.532478 181.102167 
L 363.10552 181.332019 
L 363.678562 180.224033 
L 364.251605 179.690541 
L 364.824647 179.811485 
L 365.397689 182.142864 
L 365.970732 182.997918 
L 366.543774 182.653574 
L 367.116816 182.644349 
L 367.689859 182.05566 
L 368.262901 184.316901 
L 368.835944 185.826097 
L 369.408986 186.625931 
L 369.982028 185.854943 
L 370.555071 183.535455 
L 371.128113 182.890163 
L 371.701155 183.060638 
L 372.274198 182.825568 
L 372.84724 181.48129 
L 373.420282 181.441295 
L 373.993325 182.790462 
L 375.139409 180.754276 
L 375.712452 180.364349 
L 376.285494 178.489824 
L 376.858537 177.915236 
L 377.431579 180.329437 
L 378.004621 180.06109 
L 378.577664 179.250777 
L 379.150706 180.878765 
L 380.296791 181.140156 
L 381.442875 182.611478 
L 382.015918 183.202441 
L 382.58896 183.58829 
L 383.162003 183.604661 
L 383.735045 184.216432 
L 384.308087 183.631856 
L 384.88113 182.098077 
L 385.454172 181.115933 
L 386.027214 182.219594 
L 386.600257 183.733311 
L 387.173299 183.652586 
L 387.746341 181.239651 
L 388.319384 180.351246 
L 389.465469 180.247939 
L 390.038511 181.027207 
L 390.611553 180.262476 
L 391.184596 180.33864 
L 391.757638 180.156796 
L 392.33068 180.677004 
L 392.903723 180.822513 
L 393.476765 181.131668 
L 394.049807 182.094914 
L 394.62285 181.383907 
L 395.195892 181.158015 
L 395.768935 184.142253 
L 396.341977 185.680252 
L 396.915019 184.258209 
L 398.061104 182.158611 
L 398.634146 182.18387 
L 399.207189 184.027589 
L 399.780231 184.189969 
L 400.353273 183.272564 
L 400.926316 183.062443 
L 401.499358 181.828429 
L 402.645443 182.859159 
L 403.218485 181.556686 
L 403.791528 182.33039 
L 404.36457 182.65059 
L 404.937612 181.686437 
L 405.510655 181.398738 
L 406.083697 180.456373 
L 406.656739 178.80169 
L 407.229782 179.282947 
L 407.802824 181.420406 
L 408.375866 181.923226 
L 408.948909 181.413416 
L 409.521951 181.064104 
L 410.094994 182.088776 
L 410.668036 182.191579 
L 411.241078 181.88588 
L 411.814121 180.835175 
L 412.387163 180.923951 
L 412.960205 182.314099 
L 413.533248 181.856023 
L 414.10629 182.208097 
L 414.679332 181.03094 
L 415.252375 180.781619 
L 415.825417 181.530567 
L 416.39846 180.739958 
L 416.971502 180.667798 
L 417.544544 182.877667 
L 418.117587 183.914133 
L 418.690629 183.209854 
L 419.263671 184.224614 
L 419.836714 183.395211 
L 420.409756 181.86569 
L 420.982798 182.693484 
L 421.555841 183.842004 
L 422.128883 184.045817 
L 423.274968 182.881557 
L 423.84801 182.516516 
L 424.421053 181.897245 
L 424.994095 181.978198 
L 425.567137 182.347048 
L 426.14018 181.760874 
L 426.713222 181.553059 
L 427.286264 181.680139 
L 427.859307 181.430485 
L 428.432349 179.957336 
L 429.005392 180.968597 
L 429.578434 182.741803 
L 430.151476 180.579727 
L 430.724519 179.625724 
L 431.297561 181.687542 
L 431.870603 182.406391 
L 432.443646 181.867744 
L 433.016688 182.77927 
L 433.58973 182.603139 
L 434.162773 182.256634 
L 434.735815 182.705219 
L 435.308858 181.146086 
L 435.8819 181.131521 
L 437.027985 182.930628 
L 437.601027 182.831565 
L 438.174069 181.344961 
L 438.747112 182.022968 
L 439.320154 181.634733 
L 439.893196 181.503522 
L 440.466239 182.982821 
L 441.039281 183.261637 
L 441.612323 181.950943 
L 442.185366 181.530151 
L 443.331451 183.089906 
L 443.904493 183.377299 
L 444.477535 182.708134 
L 445.050578 181.314245 
L 445.62362 180.722314 
L 446.196662 181.7907 
L 446.769705 181.645508 
L 447.342747 181.265185 
L 447.915789 181.681569 
L 449.061874 181.89555 
L 449.634917 182.338835 
L 450.207959 182.983573 
L 450.781001 184.674877 
L 451.354044 183.93168 
L 451.927086 181.161014 
L 452.500128 181.60858 
L 453.073171 182.249231 
L 453.646213 181.019675 
L 454.219255 181.164635 
L 454.792298 181.710928 
L 455.36534 181.562845 
L 455.938383 181.206568 
L 457.084467 180.179259 
L 457.65751 180.804038 
L 458.230552 180.880573 
L 458.803594 180.590703 
L 459.376637 179.936138 
L 459.949679 179.584863 
L 460.522721 181.297467 
L 461.095764 180.275168 
L 461.668806 180.717978 
L 462.241849 183.309291 
L 462.814891 181.899933 
L 463.387933 181.683591 
L 463.960976 184.212297 
L 464.534018 184.846798 
L 465.10706 184.123421 
L 465.680103 183.055546 
L 466.253145 182.680142 
L 466.826187 182.044441 
L 467.39923 183.472539 
L 467.972272 185.391464 
L 468.545315 184.249674 
L 469.118357 183.890252 
L 469.691399 183.073378 
L 470.264442 180.962399 
L 470.837484 181.127049 
L 471.410526 182.642456 
L 471.983569 183.43259 
L 472.556611 184.026009 
L 473.129653 183.155219 
L 473.702696 181.931289 
L 474.275738 182.015368 
L 474.84878 180.479787 
L 475.421823 178.622503 
L 475.994865 179.319412 
L 476.567908 179.420108 
L 477.14095 179.099923 
L 477.713992 178.395275 
L 478.287035 178.802466 
L 478.860077 181.306464 
L 479.433119 182.004295 
L 480.006162 181.950449 
L 480.579204 182.674203 
L 481.152246 183.003663 
L 481.725289 183.139001 
L 482.298331 183.001675 
L 482.871374 183.540938 
L 483.444416 183.100999 
L 484.590501 180.599607 
L 485.163543 181.647151 
L 485.736585 183.835219 
L 486.88267 180.069332 
L 488.028755 179.078847 
L 488.601797 179.68839 
L 489.17484 181.97634 
L 489.747882 182.640056 
L 490.320924 181.959793 
L 490.893967 181.964952 
L 491.467009 181.630047 
L 492.040051 180.47597 
L 493.186136 182.961535 
L 493.759178 181.660979 
L 494.332221 181.941168 
L 494.905263 183.439721 
L 495.478306 183.563581 
L 496.051348 184.070224 
L 496.62439 183.816974 
L 497.197433 181.933135 
L 497.770475 182.684108 
L 499.489602 179.833435 
L 500.062644 179.351957 
L 500.635687 181.350242 
L 501.208729 181.745206 
L 501.781772 182.003221 
L 502.354814 183.273919 
L 502.927856 183.986285 
L 504.073941 182.015371 
L 504.646983 183.658168 
L 505.220026 184.004566 
L 505.793068 182.739476 
L 506.36611 183.131014 
L 506.939153 183.133171 
L 507.512195 182.314358 
L 509.804365 184.774019 
L 510.950449 185.622647 
L 511.523492 185.845441 
L 512.096534 185.887964 
L 512.669576 185.713216 
L 513.242619 185.282147 
L 513.815661 184.553661 
L 514.388703 183.484614 
L 514.961746 182.029818 
L 515.534788 180.142033 
L 516.107831 177.771975 
L 516.680873 174.868312 
L 517.826958 167.244608 
L 518.4 162.411668 
L 518.4 162.411668 
" style="fill:none;stroke:#ff0000;stroke-linecap:square;stroke-width:2;"/>
   </g>
   <g id="patch_3">
    <path d="M 72 320.4 
L 72 43.2 
" style="fill:none;stroke:#000000;stroke-linecap:square;stroke-linejoin:miter;stroke-width:0.8;"/>
   </g>
   <g id="patch_4">
    <path d="M 518.4 320.4 
L 518.4 43.2 
" style="fill:none;stroke:#000000;stroke-linecap:square;stroke-linejoin:miter;stroke-width:0.8;"/>
   </g>
   <g id="patch_5">
    <path d="M 72 320.4 
L 518.4 320.4 
" style="fill:none;stroke:#000000;stroke-linecap:square;stroke-linejoin:miter;stroke-width:0.8;"/>
   </g>
   <g id="patch_6">
    <path d="M 72 43.2 
L 518.4 43.2 
" style="fill:none;stroke:#000000;stroke-linecap:square;stroke-linejoin:miter;stroke-width:0.8;"/>
   </g>
   <g id="text_16">
    <!-- Front Propogation Speed -->
    <g transform="translate(172.245312 37.2)scale(0.2 -0.2)">
     <defs>
      <path d="M 628 4666 
L 3309 4666 
L 3309 4134 
L 1259 4134 
L 1259 2759 
L 3109 2759 
L 3109 2228 
L 1259 2228 
L 1259 0 
L 628 0 
L 628 4666 
z
" id="DejaVuSans-46" transform="scale(0.015625)"/>
      <path d="M 2631 2963 
Q 2534 3019 2420 3045 
Q 2306 3072 2169 3072 
Q 1681 3072 1420 2755 
Q 1159 2438 1159 1844 
L 1159 0 
L 581 0 
L 581 3500 
L 1159 3500 
L 1159 2956 
Q 1341 3275 1631 3429 
Q 1922 3584 2338 3584 
Q 2397 3584 2469 3576 
Q 2541 3569 2628 3553 
L 2631 2963 
z
" id="DejaVuSans-72" transform="scale(0.015625)"/>
      <path d="M 1172 4494 
L 1172 3500 
L 2356 3500 
L 2356 3053 
L 1172 3053 
L 1172 1153 
Q 1172 725 1289 603 
Q 1406 481 1766 481 
L 2356 481 
L 2356 0 
L 1766 0 
Q 1100 0 847 248 
Q 594 497 594 1153 
L 594 3053 
L 172 3053 
L 172 3500 
L 594 3500 
L 594 4494 
L 1172 4494 
z
" id="DejaVuSans-74" transform="scale(0.015625)"/>
      <path d="M 1259 4147 
L 1259 2394 
L 2053 2394 
Q 2494 2394 2734 2622 
Q 2975 2850 2975 3272 
Q 2975 3691 2734 3919 
Q 2494 4147 2053 4147 
L 1259 4147 
z
M 628 4666 
L 2053 4666 
Q 2838 4666 3239 4311 
Q 3641 3956 3641 3272 
Q 3641 2581 3239 2228 
Q 2838 1875 2053 1875 
L 1259 1875 
L 1259 0 
L 628 0 
L 628 4666 
z
" id="DejaVuSans-50" transform="scale(0.015625)"/>
      <path d="M 2906 1791 
Q 2906 2416 2648 2759 
Q 2391 3103 1925 3103 
Q 1463 3103 1205 2759 
Q 947 2416 947 1791 
Q 947 1169 1205 825 
Q 1463 481 1925 481 
Q 2391 481 2648 825 
Q 2906 1169 2906 1791 
z
M 3481 434 
Q 3481 -459 3084 -895 
Q 2688 -1331 1869 -1331 
Q 1566 -1331 1297 -1286 
Q 1028 -1241 775 -1147 
L 775 -588 
Q 1028 -725 1275 -790 
Q 1522 -856 1778 -856 
Q 2344 -856 2625 -561 
Q 2906 -266 2906 331 
L 2906 616 
Q 2728 306 2450 153 
Q 2172 0 1784 0 
Q 1141 0 747 490 
Q 353 981 353 1791 
Q 353 2603 747 3093 
Q 1141 3584 1784 3584 
Q 2172 3584 2450 3431 
Q 2728 3278 2906 2969 
L 2906 3500 
L 3481 3500 
L 3481 434 
z
" id="DejaVuSans-67" transform="scale(0.015625)"/>
      <path d="M 2194 1759 
Q 1497 1759 1228 1600 
Q 959 1441 959 1056 
Q 959 750 1161 570 
Q 1363 391 1709 391 
Q 2188 391 2477 730 
Q 2766 1069 2766 1631 
L 2766 1759 
L 2194 1759 
z
M 3341 1997 
L 3341 0 
L 2766 0 
L 2766 531 
Q 2569 213 2275 61 
Q 1981 -91 1556 -91 
Q 1019 -91 701 211 
Q 384 513 384 1019 
Q 384 1609 779 1909 
Q 1175 2209 1959 2209 
L 2766 2209 
L 2766 2266 
Q 2766 2663 2505 2880 
Q 2244 3097 1772 3097 
Q 1472 3097 1187 3025 
Q 903 2953 641 2809 
L 641 3341 
Q 956 3463 1253 3523 
Q 1550 3584 1831 3584 
Q 2591 3584 2966 3190 
Q 3341 2797 3341 1997 
z
" id="DejaVuSans-61" transform="scale(0.015625)"/>
     </defs>
     <use xlink:href="#DejaVuSans-46"/>
     <use x="50.269531" xlink:href="#DejaVuSans-72"/>
     <use x="89.132812" xlink:href="#DejaVuSans-6f"/>
     <use x="150.314453" xlink:href="#DejaVuSans-6e"/>
     <use x="213.693359" xlink:href="#DejaVuSans-74"/>
     <use x="252.902344" xlink:href="#DejaVuSans-20"/>
     <use x="284.689453" xlink:href="#DejaVuSans-50"/>
     <use x="343.242188" xlink:href="#DejaVuSans-72"/>
     <use x="382.105469" xlink:href="#DejaVuSans-6f"/>
     <use x="443.287109" xlink:href="#DejaVuSans-70"/>
     <use x="506.763672" xlink:href="#DejaVuSans-6f"/>
     <use x="567.945312" xlink:href="#DejaVuSans-67"/>
     <use x="631.421875" xlink:href="#DejaVuSans-61"/>
     <use x="692.701172" xlink:href="#DejaVuSans-74"/>
     <use x="731.910156" xlink:href="#DejaVuSans-69"/>
     <use x="759.693359" xlink:href="#DejaVuSans-6f"/>
     <use x="820.875" xlink:href="#DejaVuSans-6e"/>
     <use x="884.253906" xlink:href="#DejaVuSans-20"/>
     <use x="916.041016" xlink:href="#DejaVuSans-53"/>
     <use x="979.517578" xlink:href="#DejaVuSans-70"/>
     <use x="1042.994141" xlink:href="#DejaVuSans-65"/>
     <use x="1104.517578" xlink:href="#DejaVuSans-65"/>
     <use x="1166.041016" xlink:href="#DejaVuSans-64"/>
    </g>
   </g>
   <g id="legend_1">
    <g id="patch_7">
     <path d="M 325.967812 111.175687 
L 508.6 111.175687 
Q 511.4 111.175687 511.4 108.375687 
L 511.4 53 
Q 511.4 50.2 508.6 50.2 
L 325.967812 50.2 
Q 323.167812 50.2 323.167812 53 
L 323.167812 108.375687 
Q 323.167812 111.175687 325.967812 111.175687 
z
" style="fill:#ffffff;opacity:0.8;stroke:#cccccc;stroke-linejoin:miter;"/>
    </g>
    <g id="line2d_16">
     <path d="M 328.767812 61.537812 
L 356.767812 61.537812 
" style="fill:none;stroke:#ff0000;stroke-linecap:square;stroke-width:2;"/>
    </g>
    <g id="line2d_17"/>
    <g id="text_17">
     <!-- Front speed -->
     <g transform="translate(367.967812 66.437812)scale(0.14 -0.14)">
      <use xlink:href="#DejaVuSans-46"/>
      <use x="50.269531" xlink:href="#DejaVuSans-72"/>
      <use x="89.132812" xlink:href="#DejaVuSans-6f"/>
      <use x="150.314453" xlink:href="#DejaVuSans-6e"/>
      <use x="213.693359" xlink:href="#DejaVuSans-74"/>
      <use x="252.902344" xlink:href="#DejaVuSans-20"/>
      <use x="284.689453" xlink:href="#DejaVuSans-73"/>
      <use x="336.789062" xlink:href="#DejaVuSans-70"/>
      <use x="400.265625" xlink:href="#DejaVuSans-65"/>
      <use x="461.789062" xlink:href="#DejaVuSans-65"/>
      <use x="523.3125" xlink:href="#DejaVuSans-64"/>
     </g>
    </g>
    <g id="line2d_18">
     <path d="M 328.767812 91.381437 
L 356.767812 91.381437 
" style="fill:none;stroke:#000000;stroke-dasharray:5.55,2.4;stroke-dashoffset:0;stroke-width:1.5;"/>
    </g>
    <g id="line2d_19"/>
    <g id="text_18">
     <!-- Steady state -->
     <g transform="translate(367.967812 86.987187)scale(0.14 -0.14)">
      <defs>
       <path d="M 2059 -325 
Q 1816 -950 1584 -1140 
Q 1353 -1331 966 -1331 
L 506 -1331 
L 506 -850 
L 844 -850 
Q 1081 -850 1212 -737 
Q 1344 -625 1503 -206 
L 1606 56 
L 191 3500 
L 800 3500 
L 1894 763 
L 2988 3500 
L 3597 3500 
L 2059 -325 
z
" id="DejaVuSans-79" transform="scale(0.015625)"/>
      </defs>
      <use xlink:href="#DejaVuSans-53"/>
      <use x="63.476562" xlink:href="#DejaVuSans-74"/>
      <use x="102.685547" xlink:href="#DejaVuSans-65"/>
      <use x="164.208984" xlink:href="#DejaVuSans-61"/>
      <use x="225.488281" xlink:href="#DejaVuSans-64"/>
      <use x="288.964844" xlink:href="#DejaVuSans-79"/>
      <use x="348.144531" xlink:href="#DejaVuSans-20"/>
      <use x="379.931641" xlink:href="#DejaVuSans-73"/>
      <use x="432.03125" xlink:href="#DejaVuSans-74"/>
      <use x="471.240234" xlink:href="#DejaVuSans-61"/>
      <use x="532.519531" xlink:href="#DejaVuSans-74"/>
      <use x="571.728516" xlink:href="#DejaVuSans-65"/>
     </g>
     <!-- speed = 0.91 mm/s -->
     <g transform="translate(367.967812 102.664125)scale(0.14 -0.14)">
      <defs>
       <path d="M 678 2906 
L 4684 2906 
L 4684 2381 
L 678 2381 
L 678 2906 
z
M 678 1631 
L 4684 1631 
L 4684 1100 
L 678 1100 
L 678 1631 
z
" id="DejaVuSans-3d" transform="scale(0.015625)"/>
       <path d="M 703 97 
L 703 672 
Q 941 559 1184 500 
Q 1428 441 1663 441 
Q 2288 441 2617 861 
Q 2947 1281 2994 2138 
Q 2813 1869 2534 1725 
Q 2256 1581 1919 1581 
Q 1219 1581 811 2004 
Q 403 2428 403 3163 
Q 403 3881 828 4315 
Q 1253 4750 1959 4750 
Q 2769 4750 3195 4129 
Q 3622 3509 3622 2328 
Q 3622 1225 3098 567 
Q 2575 -91 1691 -91 
Q 1453 -91 1209 -44 
Q 966 3 703 97 
z
M 1959 2075 
Q 2384 2075 2632 2365 
Q 2881 2656 2881 3163 
Q 2881 3666 2632 3958 
Q 2384 4250 1959 4250 
Q 1534 4250 1286 3958 
Q 1038 3666 1038 3163 
Q 1038 2656 1286 2365 
Q 1534 2075 1959 2075 
z
" id="DejaVuSans-39" transform="scale(0.015625)"/>
      </defs>
      <use xlink:href="#DejaVuSans-73"/>
      <use x="52.099609" xlink:href="#DejaVuSans-70"/>
      <use x="115.576172" xlink:href="#DejaVuSans-65"/>
      <use x="177.099609" xlink:href="#DejaVuSans-65"/>
      <use x="238.623047" xlink:href="#DejaVuSans-64"/>
      <use x="302.099609" xlink:href="#DejaVuSans-20"/>
      <use x="333.886719" xlink:href="#DejaVuSans-3d"/>
      <use x="417.675781" xlink:href="#DejaVuSans-20"/>
      <use x="449.462891" xlink:href="#DejaVuSans-30"/>
      <use x="513.085938" xlink:href="#DejaVuSans-2e"/>
      <use x="544.873047" xlink:href="#DejaVuSans-39"/>
      <use x="608.496094" xlink:href="#DejaVuSans-31"/>
      <use x="672.119141" xlink:href="#DejaVuSans-20"/>
      <use x="703.90625" xlink:href="#DejaVuSans-6d"/>
      <use x="801.318359" xlink:href="#DejaVuSans-6d"/>
      <use x="898.730469" xlink:href="#DejaVuSans-2f"/>
      <use x="932.421875" xlink:href="#DejaVuSans-73"/>
     </g>
    </g>
   </g>
  </g>
 </g>
 <defs>
  <clipPath id="p986095f9ba">
   <rect height="277.2" width="446.4" x="72" y="43.2"/>
  </clipPath>
 </defs>
</svg>
