<?xml version="1.0" encoding="utf-8" standalone="no"?>
<!DOCTYPE svg PUBLIC "-//W3C//DTD SVG 1.1//EN"
  "http://www.w3.org/Graphics/SVG/1.1/DTD/svg11.dtd">
<svg height="360pt" version="1.1" viewBox="0 0 576 360" width="576pt" xmlns="http://www.w3.org/2000/svg" xmlns:xlink="http://www.w3.org/1999/xlink">
 <metadata>
  <rdf:RDF xmlns:cc="http://creativecommons.org/ns#" xmlns:dc="http://purl.org/dc/elements/1.1/" xmlns:rdf="http://www.w3.org/1999/02/22-rdf-syntax-ns#">
   <cc:Work>
    <dc:type rdf:resource="http://purl.org/dc/dcmitype/StillImage"/>
    <dc:date>2022-06-30T14:26:57.962219</dc:date>
    <dc:format>image/svg+xml</dc:format>
    <dc:creator>
     <cc:Agent>
      <dc:title>Matplotlib v3.4.3, https://matplotlib.org/</dc:title>
     </cc:Agent>
    </dc:creator>
   </cc:Work>
  </rdf:RDF>
 </metadata>
 <defs>
  <style type="text/css">*{stroke-linecap:butt;stroke-linejoin:round;}</style>
 </defs>
 <g id="figure_1">
  <g id="patch_1">
   <path d="M 0 360 
L 576 360 
L 576 0 
L 0 0 
z
" style="fill:#ffffff;"/>
  </g>
  <g id="axes_1">
   <g id="patch_2">
    <path d="M 72 320.4 
L 518.4 320.4 
L 518.4 43.2 
L 72 43.2 
z
" style="fill:#ffffff;"/>
   </g>
   <g id="PolyCollection_1">
    <defs>
     <path d="M 72 -157.313489 
L 72 -161.796538 
L 72.750252 -161.796538 
L 73.500504 -161.796538 
L 74.250756 -161.796538 
L 75.001008 -161.796538 
L 75.751261 -161.796538 
L 76.501513 -161.796538 
L 77.251765 -161.796538 
L 78.002017 -161.796538 
L 78.752269 -161.796538 
L 79.502521 -161.796538 
L 80.252773 -161.796538 
L 81.003025 -161.796538 
L 81.753277 -161.796538 
L 82.503529 -161.796538 
L 83.253782 -161.796538 
L 84.004034 -161.796538 
L 84.754286 -161.796538 
L 85.504538 -161.796538 
L 86.25479 -161.796538 
L 87.005042 -161.796538 
L 87.755294 -161.796538 
L 88.505546 -161.796538 
L 89.255798 -161.796538 
L 90.00605 -161.796538 
L 90.756303 -161.796538 
L 91.506555 -161.796538 
L 92.256807 -161.796538 
L 93.007059 -161.796538 
L 93.757311 -161.796538 
L 94.507563 -161.796538 
L 95.257815 -161.796538 
L 96.008067 -161.796538 
L 96.758319 -161.796538 
L 97.508571 -161.796538 
L 98.258824 -161.796538 
L 99.009076 -161.796538 
L 99.759328 -161.796538 
L 100.50958 -161.796538 
L 101.259832 -161.796538 
L 102.010084 -161.796538 
L 102.760336 -161.796538 
L 103.510588 -161.796538 
L 104.26084 -161.796538 
L 105.011092 -161.796538 
L 105.761345 -161.796538 
L 106.511597 -161.796538 
L 107.261849 -161.796538 
L 108.012101 -161.796538 
L 108.762353 -161.796538 
L 109.512605 -161.796538 
L 110.262857 -161.796538 
L 111.013109 -161.796538 
L 111.763361 -161.796538 
L 112.513613 -161.796538 
L 113.263866 -161.796538 
L 114.014118 -161.796538 
L 114.76437 -161.796538 
L 115.514622 -161.796538 
L 116.264874 -161.796538 
L 117.015126 -161.796538 
L 117.765378 -161.796538 
L 118.51563 -161.796538 
L 119.265882 -161.796538 
L 120.016134 -161.796538 
L 120.766387 -161.796538 
L 121.516639 -161.796538 
L 122.266891 -161.796538 
L 123.017143 -161.796538 
L 123.767395 -161.796538 
L 124.517647 -161.796538 
L 125.267899 -161.796538 
L 126.018151 -161.796538 
L 126.768403 -161.796538 
L 127.518655 -161.796538 
L 128.268908 -161.796538 
L 129.01916 -161.796538 
L 129.769412 -161.796538 
L 130.519664 -161.796538 
L 131.269916 -161.796538 
L 132.020168 -161.796538 
L 132.77042 -161.796538 
L 133.520672 -161.796538 
L 134.270924 -161.796538 
L 135.021176 -161.796538 
L 135.771429 -161.796538 
L 136.521681 -161.796538 
L 137.271933 -161.796538 
L 138.022185 -161.796538 
L 138.772437 -161.796538 
L 139.522689 -161.796538 
L 140.272941 -161.796538 
L 141.023193 -161.796538 
L 141.773445 -161.796538 
L 142.523697 -161.796538 
L 143.27395 -161.796538 
L 144.024202 -161.796538 
L 144.774454 -161.796538 
L 145.524706 -161.796538 
L 146.274958 -161.796538 
L 147.02521 -161.796538 
L 147.775462 -161.796538 
L 148.525714 -161.796538 
L 149.275966 -161.796538 
L 150.026218 -161.796538 
L 150.776471 -161.796538 
L 151.526723 -161.796538 
L 152.276975 -161.796538 
L 153.027227 -161.796538 
L 153.777479 -161.796538 
L 154.527731 -161.796538 
L 155.277983 -161.796538 
L 156.028235 -161.796538 
L 156.778487 -161.796538 
L 157.528739 -161.796538 
L 158.278992 -161.796538 
L 159.029244 -161.796538 
L 159.779496 -161.796538 
L 160.529748 -161.796538 
L 161.28 -161.796538 
L 162.030252 -161.796538 
L 162.780504 -161.796538 
L 163.530756 -161.796538 
L 164.281008 -161.796538 
L 165.031261 -161.796538 
L 165.781513 -161.796538 
L 166.531765 -161.796538 
L 167.282017 -161.796538 
L 168.032269 -161.796538 
L 168.782521 -161.796538 
L 169.532773 -161.796538 
L 170.283025 -161.796538 
L 171.033277 -161.796538 
L 171.783529 -161.796538 
L 172.533782 -161.796538 
L 173.284034 -161.796538 
L 174.034286 -161.796538 
L 174.784538 -161.796538 
L 175.53479 -161.796538 
L 176.285042 -161.796538 
L 177.035294 -161.796538 
L 177.785546 -161.796538 
L 178.535798 -161.796538 
L 179.28605 -161.796538 
L 180.036303 -161.796538 
L 180.786555 -161.796538 
L 181.536807 -161.796538 
L 182.287059 -161.796538 
L 183.037311 -161.796538 
L 183.787563 -161.796538 
L 184.537815 -161.796538 
L 185.288067 -161.796538 
L 186.038319 -161.796538 
L 186.788571 -161.796538 
L 187.538824 -161.796538 
L 188.289076 -161.796538 
L 189.039328 -161.796538 
L 189.78958 -161.796538 
L 190.539832 -161.796538 
L 191.290084 -161.796538 
L 192.040336 -161.796538 
L 192.790588 -161.796538 
L 193.54084 -161.796538 
L 194.291092 -161.796538 
L 195.041345 -161.796538 
L 195.791597 -161.796538 
L 196.541849 -161.796538 
L 197.292101 -161.796538 
L 198.042353 -161.796538 
L 198.792605 -161.796538 
L 199.542857 -161.796538 
L 200.293109 -161.796538 
L 201.043361 -161.796538 
L 201.793613 -161.796538 
L 202.543866 -161.796538 
L 203.294118 -161.796538 
L 204.04437 -161.796538 
L 204.794622 -161.796538 
L 205.544874 -161.796538 
L 206.295126 -161.796538 
L 207.045378 -161.796538 
L 207.79563 -161.796538 
L 208.545882 -161.796538 
L 209.296134 -161.796538 
L 210.046387 -161.796538 
L 210.796639 -161.796538 
L 211.546891 -161.796538 
L 212.297143 -161.796538 
L 213.047395 -161.796538 
L 213.797647 -161.796538 
L 214.547899 -161.796538 
L 215.298151 -161.796538 
L 216.048403 -161.796538 
L 216.798655 -161.796538 
L 217.548908 -161.796538 
L 218.29916 -161.796538 
L 219.049412 -161.796538 
L 219.799664 -161.796538 
L 220.549916 -161.796538 
L 221.300168 -161.796538 
L 222.05042 -161.796538 
L 222.800672 -161.796538 
L 223.550924 -161.796538 
L 224.301176 -161.796538 
L 225.051429 -161.796538 
L 225.801681 -161.796538 
L 226.551933 -161.796538 
L 227.302185 -161.796538 
L 228.052437 -161.796538 
L 228.802689 -161.796538 
L 229.552941 -161.796538 
L 230.303193 -161.796538 
L 231.053445 -161.796538 
L 231.803697 -161.796538 
L 232.55395 -161.796538 
L 233.304202 -161.796538 
L 234.054454 -161.796538 
L 234.804706 -161.796538 
L 235.554958 -161.796538 
L 236.30521 -161.796538 
L 237.055462 -161.796538 
L 237.805714 -161.796538 
L 238.555966 -161.796538 
L 239.306218 -161.796538 
L 240.056471 -161.796538 
L 240.806723 -161.796538 
L 241.556975 -161.796538 
L 242.307227 -161.796538 
L 243.057479 -161.796538 
L 243.807731 -161.796538 
L 244.557983 -161.796538 
L 245.308235 -161.796538 
L 246.058487 -161.796538 
L 246.808739 -161.796538 
L 247.558992 -161.796538 
L 248.309244 -161.796538 
L 249.059496 -161.796538 
L 249.809748 -161.796538 
L 250.56 -161.796538 
L 251.310252 -161.796538 
L 252.060504 -161.796538 
L 252.810756 -161.796538 
L 253.561008 -161.796538 
L 254.311261 -161.796538 
L 255.061513 -161.796538 
L 255.811765 -161.796538 
L 256.562017 -161.796538 
L 257.312269 -161.796538 
L 258.062521 -161.796538 
L 258.812773 -161.796538 
L 259.563025 -161.796538 
L 260.313277 -161.796538 
L 261.063529 -161.796538 
L 261.813782 -161.796538 
L 262.564034 -161.796538 
L 263.314286 -161.796538 
L 264.064538 -161.796538 
L 264.81479 -161.796538 
L 265.565042 -161.796538 
L 266.315294 -161.796538 
L 267.065546 -161.796538 
L 267.815798 -161.796538 
L 268.56605 -161.796538 
L 269.316303 -161.796538 
L 270.066555 -161.796538 
L 270.816807 -161.796538 
L 271.567059 -161.796538 
L 272.317311 -161.796538 
L 273.067563 -161.796538 
L 273.817815 -161.796538 
L 274.568067 -161.796538 
L 275.318319 -161.796538 
L 276.068571 -161.796538 
L 276.818824 -161.796538 
L 277.569076 -161.796538 
L 278.319328 -161.796538 
L 279.06958 -161.796538 
L 279.819832 -161.796538 
L 280.570084 -161.796538 
L 281.320336 -161.796538 
L 282.070588 -161.796538 
L 282.82084 -161.796538 
L 283.571092 -161.796538 
L 284.321345 -161.796538 
L 285.071597 -161.796538 
L 285.821849 -161.796538 
L 286.572101 -161.796538 
L 287.322353 -161.796538 
L 288.072605 -161.796538 
L 288.822857 -161.796538 
L 289.573109 -161.796538 
L 290.323361 -161.796538 
L 291.073613 -161.796538 
L 291.823866 -161.796538 
L 292.574118 -161.796538 
L 293.32437 -161.796538 
L 294.074622 -161.796538 
L 294.824874 -161.796538 
L 295.575126 -161.796538 
L 296.325378 -161.796538 
L 297.07563 -161.796538 
L 297.825882 -161.796538 
L 298.576134 -161.796538 
L 299.326387 -161.796538 
L 300.076639 -161.796538 
L 300.826891 -161.796538 
L 301.577143 -161.796538 
L 302.327395 -161.796538 
L 303.077647 -161.796538 
L 303.827899 -161.796538 
L 304.578151 -161.796538 
L 305.328403 -161.796538 
L 306.078655 -161.796538 
L 306.828908 -161.796538 
L 307.57916 -161.796538 
L 308.329412 -161.796538 
L 309.079664 -161.796538 
L 309.829916 -161.796538 
L 310.580168 -161.796538 
L 311.33042 -161.796538 
L 312.080672 -161.796538 
L 312.830924 -161.796538 
L 313.581176 -161.796538 
L 314.331429 -161.796538 
L 315.081681 -161.796538 
L 315.831933 -161.796538 
L 316.582185 -161.796538 
L 317.332437 -161.796538 
L 318.082689 -161.796538 
L 318.832941 -161.796538 
L 319.583193 -161.796538 
L 320.333445 -161.796538 
L 321.083697 -161.796538 
L 321.83395 -161.796538 
L 322.584202 -161.796538 
L 323.334454 -161.796538 
L 324.084706 -161.796538 
L 324.834958 -161.796538 
L 325.58521 -161.796538 
L 326.335462 -161.796538 
L 327.085714 -161.796538 
L 327.835966 -161.796538 
L 328.586218 -161.796538 
L 329.336471 -161.796538 
L 330.086723 -161.796538 
L 330.836975 -161.796538 
L 331.587227 -161.796538 
L 332.337479 -161.796538 
L 333.087731 -161.796538 
L 333.837983 -161.796538 
L 334.588235 -161.796538 
L 335.338487 -161.796538 
L 336.088739 -161.796538 
L 336.838992 -161.796538 
L 337.589244 -161.796538 
L 338.339496 -161.796538 
L 339.089748 -161.796538 
L 339.84 -161.796538 
L 340.590252 -161.796538 
L 341.340504 -161.796538 
L 342.090756 -161.796538 
L 342.841008 -161.796538 
L 343.591261 -161.796538 
L 344.341513 -161.796538 
L 345.091765 -161.796538 
L 345.842017 -161.796538 
L 346.592269 -161.796538 
L 347.342521 -161.796538 
L 348.092773 -161.796538 
L 348.843025 -161.796538 
L 349.593277 -161.796538 
L 350.343529 -161.796538 
L 351.093782 -161.796538 
L 351.844034 -161.796538 
L 352.594286 -161.796538 
L 353.344538 -161.796538 
L 354.09479 -161.796538 
L 354.845042 -161.796538 
L 355.595294 -161.796538 
L 356.345546 -161.796538 
L 357.095798 -161.796538 
L 357.84605 -161.796538 
L 358.596303 -161.796538 
L 359.346555 -161.796538 
L 360.096807 -161.796538 
L 360.847059 -161.796538 
L 361.597311 -161.796538 
L 362.347563 -161.796538 
L 363.097815 -161.796538 
L 363.848067 -161.796538 
L 364.598319 -161.796538 
L 365.348571 -161.796538 
L 366.098824 -161.796538 
L 366.849076 -161.796538 
L 367.599328 -161.796538 
L 368.34958 -161.796538 
L 369.099832 -161.796538 
L 369.850084 -161.796538 
L 370.600336 -161.796538 
L 371.350588 -161.796538 
L 372.10084 -161.796538 
L 372.851092 -161.796538 
L 373.601345 -161.796538 
L 374.351597 -161.796538 
L 375.101849 -161.796538 
L 375.852101 -161.796538 
L 376.602353 -161.796538 
L 377.352605 -161.796538 
L 378.102857 -161.796538 
L 378.853109 -161.796538 
L 379.603361 -161.796538 
L 380.353613 -161.796538 
L 381.103866 -161.796538 
L 381.854118 -161.796538 
L 382.60437 -161.796538 
L 383.354622 -161.796538 
L 384.104874 -161.796538 
L 384.855126 -161.796538 
L 385.605378 -161.796538 
L 386.35563 -161.796538 
L 387.105882 -161.796538 
L 387.856134 -161.796538 
L 388.606387 -161.796538 
L 389.356639 -161.796538 
L 390.106891 -161.796538 
L 390.857143 -161.796538 
L 391.607395 -161.796538 
L 392.357647 -161.796538 
L 393.107899 -161.796538 
L 393.858151 -161.796538 
L 394.608403 -161.796538 
L 395.358655 -161.796538 
L 396.108908 -161.796538 
L 396.85916 -161.796538 
L 397.609412 -161.796538 
L 398.359664 -161.796538 
L 399.109916 -161.796538 
L 399.860168 -161.796538 
L 400.61042 -161.796538 
L 401.360672 -161.796538 
L 402.110924 -161.796538 
L 402.861176 -161.796538 
L 403.611429 -161.796538 
L 404.361681 -161.796538 
L 405.111933 -161.796538 
L 405.862185 -161.796538 
L 406.612437 -161.796538 
L 407.362689 -161.796538 
L 408.112941 -161.796538 
L 408.863193 -161.796538 
L 409.613445 -161.796538 
L 410.363697 -161.796538 
L 411.11395 -161.796538 
L 411.864202 -161.796538 
L 412.614454 -161.796538 
L 413.364706 -161.796538 
L 414.114958 -161.796538 
L 414.86521 -161.796538 
L 415.615462 -161.796538 
L 416.365714 -161.796538 
L 417.115966 -161.796538 
L 417.866218 -161.796538 
L 418.616471 -161.796538 
L 419.366723 -161.796538 
L 420.116975 -161.796538 
L 420.867227 -161.796538 
L 421.617479 -161.796538 
L 422.367731 -161.796538 
L 423.117983 -161.796538 
L 423.868235 -161.796538 
L 424.618487 -161.796538 
L 425.368739 -161.796538 
L 426.118992 -161.796538 
L 426.869244 -161.796538 
L 427.619496 -161.796538 
L 428.369748 -161.796538 
L 429.12 -161.796538 
L 429.870252 -161.796538 
L 430.620504 -161.796538 
L 431.370756 -161.796538 
L 432.121008 -161.796538 
L 432.871261 -161.796538 
L 433.621513 -161.796538 
L 434.371765 -161.796538 
L 435.122017 -161.796538 
L 435.872269 -161.796538 
L 436.622521 -161.796538 
L 437.372773 -161.796538 
L 438.123025 -161.796538 
L 438.873277 -161.796538 
L 439.623529 -161.796538 
L 440.373782 -161.796538 
L 441.124034 -161.796538 
L 441.874286 -161.796538 
L 442.624538 -161.796538 
L 443.37479 -161.796538 
L 444.125042 -161.796538 
L 444.875294 -161.796538 
L 445.625546 -161.796538 
L 446.375798 -161.796538 
L 447.12605 -161.796538 
L 447.876303 -161.796538 
L 448.626555 -161.796538 
L 449.376807 -161.796538 
L 450.127059 -161.796538 
L 450.877311 -161.796538 
L 451.627563 -161.796538 
L 452.377815 -161.796538 
L 453.128067 -161.796538 
L 453.878319 -161.796538 
L 454.628571 -161.796538 
L 455.378824 -161.796538 
L 456.129076 -161.796538 
L 456.879328 -161.796538 
L 457.62958 -161.796538 
L 458.379832 -161.796538 
L 459.130084 -161.796538 
L 459.880336 -161.796538 
L 460.630588 -161.796538 
L 461.38084 -161.796538 
L 462.131092 -161.796538 
L 462.881345 -161.796538 
L 463.631597 -161.796538 
L 464.381849 -161.796538 
L 465.132101 -161.796538 
L 465.882353 -161.796538 
L 466.632605 -161.796538 
L 467.382857 -161.796538 
L 468.133109 -161.796538 
L 468.883361 -161.796538 
L 469.633613 -161.796538 
L 470.383866 -161.796538 
L 471.134118 -161.796538 
L 471.88437 -161.796538 
L 472.634622 -161.796538 
L 473.384874 -161.796538 
L 474.135126 -161.796538 
L 474.885378 -161.796538 
L 475.63563 -161.796538 
L 476.385882 -161.796538 
L 477.136134 -161.796538 
L 477.886387 -161.796538 
L 478.636639 -161.796538 
L 479.386891 -161.796538 
L 480.137143 -161.796538 
L 480.887395 -161.796538 
L 481.637647 -161.796538 
L 482.387899 -161.796538 
L 483.138151 -161.796538 
L 483.888403 -161.796538 
L 484.638655 -161.796538 
L 485.388908 -161.796538 
L 486.13916 -161.796538 
L 486.889412 -161.796538 
L 487.639664 -161.796538 
L 488.389916 -161.796538 
L 489.140168 -161.796538 
L 489.89042 -161.796538 
L 490.640672 -161.796538 
L 491.390924 -161.796538 
L 492.141176 -161.796538 
L 492.891429 -161.796538 
L 493.641681 -161.796538 
L 494.391933 -161.796538 
L 495.142185 -161.796538 
L 495.892437 -161.796538 
L 496.642689 -161.796538 
L 497.392941 -161.796538 
L 498.143193 -161.796538 
L 498.893445 -161.796538 
L 499.643697 -161.796538 
L 500.39395 -161.796538 
L 501.144202 -161.796538 
L 501.894454 -161.796538 
L 502.644706 -161.796538 
L 503.394958 -161.796538 
L 504.14521 -161.796538 
L 504.895462 -161.796538 
L 505.645714 -161.796538 
L 506.395966 -161.796538 
L 507.146218 -161.796538 
L 507.896471 -161.796538 
L 508.646723 -161.796538 
L 509.396975 -161.796538 
L 510.147227 -161.796538 
L 510.897479 -161.796538 
L 511.647731 -161.796538 
L 512.397983 -161.796538 
L 513.148235 -161.796538 
L 513.898487 -161.796538 
L 514.648739 -161.796538 
L 515.398992 -161.796538 
L 516.149244 -161.796538 
L 516.899496 -161.796538 
L 517.649748 -161.796538 
L 518.4 -161.796538 
L 518.4 -157.313489 
L 518.4 -157.313489 
L 517.649748 -157.313489 
L 516.899496 -157.313489 
L 516.149244 -157.313489 
L 515.398992 -157.313489 
L 514.648739 -157.313489 
L 513.898487 -157.313489 
L 513.148235 -157.313489 
L 512.397983 -157.313489 
L 511.647731 -157.313489 
L 510.897479 -157.313489 
L 510.147227 -157.313489 
L 509.396975 -157.313489 
L 508.646723 -157.313489 
L 507.896471 -157.313489 
L 507.146218 -157.313489 
L 506.395966 -157.313489 
L 505.645714 -157.313489 
L 504.895462 -157.313489 
L 504.14521 -157.313489 
L 503.394958 -157.313489 
L 502.644706 -157.313489 
L 501.894454 -157.313489 
L 501.144202 -157.313489 
L 500.39395 -157.313489 
L 499.643697 -157.313489 
L 498.893445 -157.313489 
L 498.143193 -157.313489 
L 497.392941 -157.313489 
L 496.642689 -157.313489 
L 495.892437 -157.313489 
L 495.142185 -157.313489 
L 494.391933 -157.313489 
L 493.641681 -157.313489 
L 492.891429 -157.313489 
L 492.141176 -157.313489 
L 491.390924 -157.313489 
L 490.640672 -157.313489 
L 489.89042 -157.313489 
L 489.140168 -157.313489 
L 488.389916 -157.313489 
L 487.639664 -157.313489 
L 486.889412 -157.313489 
L 486.13916 -157.313489 
L 485.388908 -157.313489 
L 484.638655 -157.313489 
L 483.888403 -157.313489 
L 483.138151 -157.313489 
L 482.387899 -157.313489 
L 481.637647 -157.313489 
L 480.887395 -157.313489 
L 480.137143 -157.313489 
L 479.386891 -157.313489 
L 478.636639 -157.313489 
L 477.886387 -157.313489 
L 477.136134 -157.313489 
L 476.385882 -157.313489 
L 475.63563 -157.313489 
L 474.885378 -157.313489 
L 474.135126 -157.313489 
L 473.384874 -157.313489 
L 472.634622 -157.313489 
L 471.88437 -157.313489 
L 471.134118 -157.313489 
L 470.383866 -157.313489 
L 469.633613 -157.313489 
L 468.883361 -157.313489 
L 468.133109 -157.313489 
L 467.382857 -157.313489 
L 466.632605 -157.313489 
L 465.882353 -157.313489 
L 465.132101 -157.313489 
L 464.381849 -157.313489 
L 463.631597 -157.313489 
L 462.881345 -157.313489 
L 462.131092 -157.313489 
L 461.38084 -157.313489 
L 460.630588 -157.313489 
L 459.880336 -157.313489 
L 459.130084 -157.313489 
L 458.379832 -157.313489 
L 457.62958 -157.313489 
L 456.879328 -157.313489 
L 456.129076 -157.313489 
L 455.378824 -157.313489 
L 454.628571 -157.313489 
L 453.878319 -157.313489 
L 453.128067 -157.313489 
L 452.377815 -157.313489 
L 451.627563 -157.313489 
L 450.877311 -157.313489 
L 450.127059 -157.313489 
L 449.376807 -157.313489 
L 448.626555 -157.313489 
L 447.876303 -157.313489 
L 447.12605 -157.313489 
L 446.375798 -157.313489 
L 445.625546 -157.313489 
L 444.875294 -157.313489 
L 444.125042 -157.313489 
L 443.37479 -157.313489 
L 442.624538 -157.313489 
L 441.874286 -157.313489 
L 441.124034 -157.313489 
L 440.373782 -157.313489 
L 439.623529 -157.313489 
L 438.873277 -157.313489 
L 438.123025 -157.313489 
L 437.372773 -157.313489 
L 436.622521 -157.313489 
L 435.872269 -157.313489 
L 435.122017 -157.313489 
L 434.371765 -157.313489 
L 433.621513 -157.313489 
L 432.871261 -157.313489 
L 432.121008 -157.313489 
L 431.370756 -157.313489 
L 430.620504 -157.313489 
L 429.870252 -157.313489 
L 429.12 -157.313489 
L 428.369748 -157.313489 
L 427.619496 -157.313489 
L 426.869244 -157.313489 
L 426.118992 -157.313489 
L 425.368739 -157.313489 
L 424.618487 -157.313489 
L 423.868235 -157.313489 
L 423.117983 -157.313489 
L 422.367731 -157.313489 
L 421.617479 -157.313489 
L 420.867227 -157.313489 
L 420.116975 -157.313489 
L 419.366723 -157.313489 
L 418.616471 -157.313489 
L 417.866218 -157.313489 
L 417.115966 -157.313489 
L 416.365714 -157.313489 
L 415.615462 -157.313489 
L 414.86521 -157.313489 
L 414.114958 -157.313489 
L 413.364706 -157.313489 
L 412.614454 -157.313489 
L 411.864202 -157.313489 
L 411.11395 -157.313489 
L 410.363697 -157.313489 
L 409.613445 -157.313489 
L 408.863193 -157.313489 
L 408.112941 -157.313489 
L 407.362689 -157.313489 
L 406.612437 -157.313489 
L 405.862185 -157.313489 
L 405.111933 -157.313489 
L 404.361681 -157.313489 
L 403.611429 -157.313489 
L 402.861176 -157.313489 
L 402.110924 -157.313489 
L 401.360672 -157.313489 
L 400.61042 -157.313489 
L 399.860168 -157.313489 
L 399.109916 -157.313489 
L 398.359664 -157.313489 
L 397.609412 -157.313489 
L 396.85916 -157.313489 
L 396.108908 -157.313489 
L 395.358655 -157.313489 
L 394.608403 -157.313489 
L 393.858151 -157.313489 
L 393.107899 -157.313489 
L 392.357647 -157.313489 
L 391.607395 -157.313489 
L 390.857143 -157.313489 
L 390.106891 -157.313489 
L 389.356639 -157.313489 
L 388.606387 -157.313489 
L 387.856134 -157.313489 
L 387.105882 -157.313489 
L 386.35563 -157.313489 
L 385.605378 -157.313489 
L 384.855126 -157.313489 
L 384.104874 -157.313489 
L 383.354622 -157.313489 
L 382.60437 -157.313489 
L 381.854118 -157.313489 
L 381.103866 -157.313489 
L 380.353613 -157.313489 
L 379.603361 -157.313489 
L 378.853109 -157.313489 
L 378.102857 -157.313489 
L 377.352605 -157.313489 
L 376.602353 -157.313489 
L 375.852101 -157.313489 
L 375.101849 -157.313489 
L 374.351597 -157.313489 
L 373.601345 -157.313489 
L 372.851092 -157.313489 
L 372.10084 -157.313489 
L 371.350588 -157.313489 
L 370.600336 -157.313489 
L 369.850084 -157.313489 
L 369.099832 -157.313489 
L 368.34958 -157.313489 
L 367.599328 -157.313489 
L 366.849076 -157.313489 
L 366.098824 -157.313489 
L 365.348571 -157.313489 
L 364.598319 -157.313489 
L 363.848067 -157.313489 
L 363.097815 -157.313489 
L 362.347563 -157.313489 
L 361.597311 -157.313489 
L 360.847059 -157.313489 
L 360.096807 -157.313489 
L 359.346555 -157.313489 
L 358.596303 -157.313489 
L 357.84605 -157.313489 
L 357.095798 -157.313489 
L 356.345546 -157.313489 
L 355.595294 -157.313489 
L 354.845042 -157.313489 
L 354.09479 -157.313489 
L 353.344538 -157.313489 
L 352.594286 -157.313489 
L 351.844034 -157.313489 
L 351.093782 -157.313489 
L 350.343529 -157.313489 
L 349.593277 -157.313489 
L 348.843025 -157.313489 
L 348.092773 -157.313489 
L 347.342521 -157.313489 
L 346.592269 -157.313489 
L 345.842017 -157.313489 
L 345.091765 -157.313489 
L 344.341513 -157.313489 
L 343.591261 -157.313489 
L 342.841008 -157.313489 
L 342.090756 -157.313489 
L 341.340504 -157.313489 
L 340.590252 -157.313489 
L 339.84 -157.313489 
L 339.089748 -157.313489 
L 338.339496 -157.313489 
L 337.589244 -157.313489 
L 336.838992 -157.313489 
L 336.088739 -157.313489 
L 335.338487 -157.313489 
L 334.588235 -157.313489 
L 333.837983 -157.313489 
L 333.087731 -157.313489 
L 332.337479 -157.313489 
L 331.587227 -157.313489 
L 330.836975 -157.313489 
L 330.086723 -157.313489 
L 329.336471 -157.313489 
L 328.586218 -157.313489 
L 327.835966 -157.313489 
L 327.085714 -157.313489 
L 326.335462 -157.313489 
L 325.58521 -157.313489 
L 324.834958 -157.313489 
L 324.084706 -157.313489 
L 323.334454 -157.313489 
L 322.584202 -157.313489 
L 321.83395 -157.313489 
L 321.083697 -157.313489 
L 320.333445 -157.313489 
L 319.583193 -157.313489 
L 318.832941 -157.313489 
L 318.082689 -157.313489 
L 317.332437 -157.313489 
L 316.582185 -157.313489 
L 315.831933 -157.313489 
L 315.081681 -157.313489 
L 314.331429 -157.313489 
L 313.581176 -157.313489 
L 312.830924 -157.313489 
L 312.080672 -157.313489 
L 311.33042 -157.313489 
L 310.580168 -157.313489 
L 309.829916 -157.313489 
L 309.079664 -157.313489 
L 308.329412 -157.313489 
L 307.57916 -157.313489 
L 306.828908 -157.313489 
L 306.078655 -157.313489 
L 305.328403 -157.313489 
L 304.578151 -157.313489 
L 303.827899 -157.313489 
L 303.077647 -157.313489 
L 302.327395 -157.313489 
L 301.577143 -157.313489 
L 300.826891 -157.313489 
L 300.076639 -157.313489 
L 299.326387 -157.313489 
L 298.576134 -157.313489 
L 297.825882 -157.313489 
L 297.07563 -157.313489 
L 296.325378 -157.313489 
L 295.575126 -157.313489 
L 294.824874 -157.313489 
L 294.074622 -157.313489 
L 293.32437 -157.313489 
L 292.574118 -157.313489 
L 291.823866 -157.313489 
L 291.073613 -157.313489 
L 290.323361 -157.313489 
L 289.573109 -157.313489 
L 288.822857 -157.313489 
L 288.072605 -157.313489 
L 287.322353 -157.313489 
L 286.572101 -157.313489 
L 285.821849 -157.313489 
L 285.071597 -157.313489 
L 284.321345 -157.313489 
L 283.571092 -157.313489 
L 282.82084 -157.313489 
L 282.070588 -157.313489 
L 281.320336 -157.313489 
L 280.570084 -157.313489 
L 279.819832 -157.313489 
L 279.06958 -157.313489 
L 278.319328 -157.313489 
L 277.569076 -157.313489 
L 276.818824 -157.313489 
L 276.068571 -157.313489 
L 275.318319 -157.313489 
L 274.568067 -157.313489 
L 273.817815 -157.313489 
L 273.067563 -157.313489 
L 272.317311 -157.313489 
L 271.567059 -157.313489 
L 270.816807 -157.313489 
L 270.066555 -157.313489 
L 269.316303 -157.313489 
L 268.56605 -157.313489 
L 267.815798 -157.313489 
L 267.065546 -157.313489 
L 266.315294 -157.313489 
L 265.565042 -157.313489 
L 264.81479 -157.313489 
L 264.064538 -157.313489 
L 263.314286 -157.313489 
L 262.564034 -157.313489 
L 261.813782 -157.313489 
L 261.063529 -157.313489 
L 260.313277 -157.313489 
L 259.563025 -157.313489 
L 258.812773 -157.313489 
L 258.062521 -157.313489 
L 257.312269 -157.313489 
L 256.562017 -157.313489 
L 255.811765 -157.313489 
L 255.061513 -157.313489 
L 254.311261 -157.313489 
L 253.561008 -157.313489 
L 252.810756 -157.313489 
L 252.060504 -157.313489 
L 251.310252 -157.313489 
L 250.56 -157.313489 
L 249.809748 -157.313489 
L 249.059496 -157.313489 
L 248.309244 -157.313489 
L 247.558992 -157.313489 
L 246.808739 -157.313489 
L 246.058487 -157.313489 
L 245.308235 -157.313489 
L 244.557983 -157.313489 
L 243.807731 -157.313489 
L 243.057479 -157.313489 
L 242.307227 -157.313489 
L 241.556975 -157.313489 
L 240.806723 -157.313489 
L 240.056471 -157.313489 
L 239.306218 -157.313489 
L 238.555966 -157.313489 
L 237.805714 -157.313489 
L 237.055462 -157.313489 
L 236.30521 -157.313489 
L 235.554958 -157.313489 
L 234.804706 -157.313489 
L 234.054454 -157.313489 
L 233.304202 -157.313489 
L 232.55395 -157.313489 
L 231.803697 -157.313489 
L 231.053445 -157.313489 
L 230.303193 -157.313489 
L 229.552941 -157.313489 
L 228.802689 -157.313489 
L 228.052437 -157.313489 
L 227.302185 -157.313489 
L 226.551933 -157.313489 
L 225.801681 -157.313489 
L 225.051429 -157.313489 
L 224.301176 -157.313489 
L 223.550924 -157.313489 
L 222.800672 -157.313489 
L 222.05042 -157.313489 
L 221.300168 -157.313489 
L 220.549916 -157.313489 
L 219.799664 -157.313489 
L 219.049412 -157.313489 
L 218.29916 -157.313489 
L 217.548908 -157.313489 
L 216.798655 -157.313489 
L 216.048403 -157.313489 
L 215.298151 -157.313489 
L 214.547899 -157.313489 
L 213.797647 -157.313489 
L 213.047395 -157.313489 
L 212.297143 -157.313489 
L 211.546891 -157.313489 
L 210.796639 -157.313489 
L 210.046387 -157.313489 
L 209.296134 -157.313489 
L 208.545882 -157.313489 
L 207.79563 -157.313489 
L 207.045378 -157.313489 
L 206.295126 -157.313489 
L 205.544874 -157.313489 
L 204.794622 -157.313489 
L 204.04437 -157.313489 
L 203.294118 -157.313489 
L 202.543866 -157.313489 
L 201.793613 -157.313489 
L 201.043361 -157.313489 
L 200.293109 -157.313489 
L 199.542857 -157.313489 
L 198.792605 -157.313489 
L 198.042353 -157.313489 
L 197.292101 -157.313489 
L 196.541849 -157.313489 
L 195.791597 -157.313489 
L 195.041345 -157.313489 
L 194.291092 -157.313489 
L 193.54084 -157.313489 
L 192.790588 -157.313489 
L 192.040336 -157.313489 
L 191.290084 -157.313489 
L 190.539832 -157.313489 
L 189.78958 -157.313489 
L 189.039328 -157.313489 
L 188.289076 -157.313489 
L 187.538824 -157.313489 
L 186.788571 -157.313489 
L 186.038319 -157.313489 
L 185.288067 -157.313489 
L 184.537815 -157.313489 
L 183.787563 -157.313489 
L 183.037311 -157.313489 
L 182.287059 -157.313489 
L 181.536807 -157.313489 
L 180.786555 -157.313489 
L 180.036303 -157.313489 
L 179.28605 -157.313489 
L 178.535798 -157.313489 
L 177.785546 -157.313489 
L 177.035294 -157.313489 
L 176.285042 -157.313489 
L 175.53479 -157.313489 
L 174.784538 -157.313489 
L 174.034286 -157.313489 
L 173.284034 -157.313489 
L 172.533782 -157.313489 
L 171.783529 -157.313489 
L 171.033277 -157.313489 
L 170.283025 -157.313489 
L 169.532773 -157.313489 
L 168.782521 -157.313489 
L 168.032269 -157.313489 
L 167.282017 -157.313489 
L 166.531765 -157.313489 
L 165.781513 -157.313489 
L 165.031261 -157.313489 
L 164.281008 -157.313489 
L 163.530756 -157.313489 
L 162.780504 -157.313489 
L 162.030252 -157.313489 
L 161.28 -157.313489 
L 160.529748 -157.313489 
L 159.779496 -157.313489 
L 159.029244 -157.313489 
L 158.278992 -157.313489 
L 157.528739 -157.313489 
L 156.778487 -157.313489 
L 156.028235 -157.313489 
L 155.277983 -157.313489 
L 154.527731 -157.313489 
L 153.777479 -157.313489 
L 153.027227 -157.313489 
L 152.276975 -157.313489 
L 151.526723 -157.313489 
L 150.776471 -157.313489 
L 150.026218 -157.313489 
L 149.275966 -157.313489 
L 148.525714 -157.313489 
L 147.775462 -157.313489 
L 147.02521 -157.313489 
L 146.274958 -157.313489 
L 145.524706 -157.313489 
L 144.774454 -157.313489 
L 144.024202 -157.313489 
L 143.27395 -157.313489 
L 142.523697 -157.313489 
L 141.773445 -157.313489 
L 141.023193 -157.313489 
L 140.272941 -157.313489 
L 139.522689 -157.313489 
L 138.772437 -157.313489 
L 138.022185 -157.313489 
L 137.271933 -157.313489 
L 136.521681 -157.313489 
L 135.771429 -157.313489 
L 135.021176 -157.313489 
L 134.270924 -157.313489 
L 133.520672 -157.313489 
L 132.77042 -157.313489 
L 132.020168 -157.313489 
L 131.269916 -157.313489 
L 130.519664 -157.313489 
L 129.769412 -157.313489 
L 129.01916 -157.313489 
L 128.268908 -157.313489 
L 127.518655 -157.313489 
L 126.768403 -157.313489 
L 126.018151 -157.313489 
L 125.267899 -157.313489 
L 124.517647 -157.313489 
L 123.767395 -157.313489 
L 123.017143 -157.313489 
L 122.266891 -157.313489 
L 121.516639 -157.313489 
L 120.766387 -157.313489 
L 120.016134 -157.313489 
L 119.265882 -157.313489 
L 118.51563 -157.313489 
L 117.765378 -157.313489 
L 117.015126 -157.313489 
L 116.264874 -157.313489 
L 115.514622 -157.313489 
L 114.76437 -157.313489 
L 114.014118 -157.313489 
L 113.263866 -157.313489 
L 112.513613 -157.313489 
L 111.763361 -157.313489 
L 111.013109 -157.313489 
L 110.262857 -157.313489 
L 109.512605 -157.313489 
L 108.762353 -157.313489 
L 108.012101 -157.313489 
L 107.261849 -157.313489 
L 106.511597 -157.313489 
L 105.761345 -157.313489 
L 105.011092 -157.313489 
L 104.26084 -157.313489 
L 103.510588 -157.313489 
L 102.760336 -157.313489 
L 102.010084 -157.313489 
L 101.259832 -157.313489 
L 100.50958 -157.313489 
L 99.759328 -157.313489 
L 99.009076 -157.313489 
L 98.258824 -157.313489 
L 97.508571 -157.313489 
L 96.758319 -157.313489 
L 96.008067 -157.313489 
L 95.257815 -157.313489 
L 94.507563 -157.313489 
L 93.757311 -157.313489 
L 93.007059 -157.313489 
L 92.256807 -157.313489 
L 91.506555 -157.313489 
L 90.756303 -157.313489 
L 90.00605 -157.313489 
L 89.255798 -157.313489 
L 88.505546 -157.313489 
L 87.755294 -157.313489 
L 87.005042 -157.313489 
L 86.25479 -157.313489 
L 85.504538 -157.313489 
L 84.754286 -157.313489 
L 84.004034 -157.313489 
L 83.253782 -157.313489 
L 82.503529 -157.313489 
L 81.753277 -157.313489 
L 81.003025 -157.313489 
L 80.252773 -157.313489 
L 79.502521 -157.313489 
L 78.752269 -157.313489 
L 78.002017 -157.313489 
L 77.251765 -157.313489 
L 76.501513 -157.313489 
L 75.751261 -157.313489 
L 75.001008 -157.313489 
L 74.250756 -157.313489 
L 73.500504 -157.313489 
L 72.750252 -157.313489 
L 72 -157.313489 
z
" id="mfcfe2cb014"/>
    </defs>
    <g clip-path="url(#pa3261caef4)">
     <use style="fill-opacity:0.15;" x="0" xlink:href="#mfcfe2cb014" y="360"/>
    </g>
   </g>
   <g id="matplotlib.axis_1">
    <g id="xtick_1">
     <g id="line2d_1">
      <defs>
       <path d="M 0 0 
L 0 3.5 
" id="m7290459b4e" style="stroke:#000000;stroke-width:0.8;"/>
      </defs>
      <g>
       <use style="stroke:#000000;stroke-width:0.8;" x="72" xlink:href="#m7290459b4e" y="320.4"/>
      </g>
     </g>
     <g id="text_1">
      <!-- 0.0 -->
      <g transform="translate(60.867812 338.037813)scale(0.14 -0.14)">
       <defs>
        <path d="M 2034 4250 
Q 1547 4250 1301 3770 
Q 1056 3291 1056 2328 
Q 1056 1369 1301 889 
Q 1547 409 2034 409 
Q 2525 409 2770 889 
Q 3016 1369 3016 2328 
Q 3016 3291 2770 3770 
Q 2525 4250 2034 4250 
z
M 2034 4750 
Q 2819 4750 3233 4129 
Q 3647 3509 3647 2328 
Q 3647 1150 3233 529 
Q 2819 -91 2034 -91 
Q 1250 -91 836 529 
Q 422 1150 422 2328 
Q 422 3509 836 4129 
Q 1250 4750 2034 4750 
z
" id="DejaVuSans-30" transform="scale(0.015625)"/>
        <path d="M 684 794 
L 1344 794 
L 1344 0 
L 684 0 
L 684 794 
z
" id="DejaVuSans-2e" transform="scale(0.015625)"/>
       </defs>
       <use xlink:href="#DejaVuSans-30"/>
       <use x="63.623047" xlink:href="#DejaVuSans-2e"/>
       <use x="95.410156" xlink:href="#DejaVuSans-30"/>
      </g>
     </g>
    </g>
    <g id="xtick_2">
     <g id="line2d_2">
      <g>
       <use style="stroke:#000000;stroke-width:0.8;" x="127.883826" xlink:href="#m7290459b4e" y="320.4"/>
      </g>
     </g>
     <g id="text_2">
      <!-- 2.5 -->
      <g transform="translate(116.751638 338.037813)scale(0.14 -0.14)">
       <defs>
        <path d="M 1228 531 
L 3431 531 
L 3431 0 
L 469 0 
L 469 531 
Q 828 903 1448 1529 
Q 2069 2156 2228 2338 
Q 2531 2678 2651 2914 
Q 2772 3150 2772 3378 
Q 2772 3750 2511 3984 
Q 2250 4219 1831 4219 
Q 1534 4219 1204 4116 
Q 875 4013 500 3803 
L 500 4441 
Q 881 4594 1212 4672 
Q 1544 4750 1819 4750 
Q 2544 4750 2975 4387 
Q 3406 4025 3406 3419 
Q 3406 3131 3298 2873 
Q 3191 2616 2906 2266 
Q 2828 2175 2409 1742 
Q 1991 1309 1228 531 
z
" id="DejaVuSans-32" transform="scale(0.015625)"/>
        <path d="M 691 4666 
L 3169 4666 
L 3169 4134 
L 1269 4134 
L 1269 2991 
Q 1406 3038 1543 3061 
Q 1681 3084 1819 3084 
Q 2600 3084 3056 2656 
Q 3513 2228 3513 1497 
Q 3513 744 3044 326 
Q 2575 -91 1722 -91 
Q 1428 -91 1123 -41 
Q 819 9 494 109 
L 494 744 
Q 775 591 1075 516 
Q 1375 441 1709 441 
Q 2250 441 2565 725 
Q 2881 1009 2881 1497 
Q 2881 1984 2565 2268 
Q 2250 2553 1709 2553 
Q 1456 2553 1204 2497 
Q 953 2441 691 2322 
L 691 4666 
z
" id="DejaVuSans-35" transform="scale(0.015625)"/>
       </defs>
       <use xlink:href="#DejaVuSans-32"/>
       <use x="63.623047" xlink:href="#DejaVuSans-2e"/>
       <use x="95.410156" xlink:href="#DejaVuSans-35"/>
      </g>
     </g>
    </g>
    <g id="xtick_3">
     <g id="line2d_3">
      <g>
       <use style="stroke:#000000;stroke-width:0.8;" x="183.767651" xlink:href="#m7290459b4e" y="320.4"/>
      </g>
     </g>
     <g id="text_3">
      <!-- 5.0 -->
      <g transform="translate(172.635464 338.037813)scale(0.14 -0.14)">
       <use xlink:href="#DejaVuSans-35"/>
       <use x="63.623047" xlink:href="#DejaVuSans-2e"/>
       <use x="95.410156" xlink:href="#DejaVuSans-30"/>
      </g>
     </g>
    </g>
    <g id="xtick_4">
     <g id="line2d_4">
      <g>
       <use style="stroke:#000000;stroke-width:0.8;" x="239.651477" xlink:href="#m7290459b4e" y="320.4"/>
      </g>
     </g>
     <g id="text_4">
      <!-- 7.5 -->
      <g transform="translate(228.51929 338.037813)scale(0.14 -0.14)">
       <defs>
        <path d="M 525 4666 
L 3525 4666 
L 3525 4397 
L 1831 0 
L 1172 0 
L 2766 4134 
L 525 4134 
L 525 4666 
z
" id="DejaVuSans-37" transform="scale(0.015625)"/>
       </defs>
       <use xlink:href="#DejaVuSans-37"/>
       <use x="63.623047" xlink:href="#DejaVuSans-2e"/>
       <use x="95.410156" xlink:href="#DejaVuSans-35"/>
      </g>
     </g>
    </g>
    <g id="xtick_5">
     <g id="line2d_5">
      <g>
       <use style="stroke:#000000;stroke-width:0.8;" x="295.535303" xlink:href="#m7290459b4e" y="320.4"/>
      </g>
     </g>
     <g id="text_5">
      <!-- 10.0 -->
      <g transform="translate(279.949365 338.037813)scale(0.14 -0.14)">
       <defs>
        <path d="M 794 531 
L 1825 531 
L 1825 4091 
L 703 3866 
L 703 4441 
L 1819 4666 
L 2450 4666 
L 2450 531 
L 3481 531 
L 3481 0 
L 794 0 
L 794 531 
z
" id="DejaVuSans-31" transform="scale(0.015625)"/>
       </defs>
       <use xlink:href="#DejaVuSans-31"/>
       <use x="63.623047" xlink:href="#DejaVuSans-30"/>
       <use x="127.246094" xlink:href="#DejaVuSans-2e"/>
       <use x="159.033203" xlink:href="#DejaVuSans-30"/>
      </g>
     </g>
    </g>
    <g id="xtick_6">
     <g id="line2d_6">
      <g>
       <use style="stroke:#000000;stroke-width:0.8;" x="351.419129" xlink:href="#m7290459b4e" y="320.4"/>
      </g>
     </g>
     <g id="text_6">
      <!-- 12.5 -->
      <g transform="translate(335.833191 338.037813)scale(0.14 -0.14)">
       <use xlink:href="#DejaVuSans-31"/>
       <use x="63.623047" xlink:href="#DejaVuSans-32"/>
       <use x="127.246094" xlink:href="#DejaVuSans-2e"/>
       <use x="159.033203" xlink:href="#DejaVuSans-35"/>
      </g>
     </g>
    </g>
    <g id="xtick_7">
     <g id="line2d_7">
      <g>
       <use style="stroke:#000000;stroke-width:0.8;" x="407.302954" xlink:href="#m7290459b4e" y="320.4"/>
      </g>
     </g>
     <g id="text_7">
      <!-- 15.0 -->
      <g transform="translate(391.717017 338.037813)scale(0.14 -0.14)">
       <use xlink:href="#DejaVuSans-31"/>
       <use x="63.623047" xlink:href="#DejaVuSans-35"/>
       <use x="127.246094" xlink:href="#DejaVuSans-2e"/>
       <use x="159.033203" xlink:href="#DejaVuSans-30"/>
      </g>
     </g>
    </g>
    <g id="xtick_8">
     <g id="line2d_8">
      <g>
       <use style="stroke:#000000;stroke-width:0.8;" x="463.18678" xlink:href="#m7290459b4e" y="320.4"/>
      </g>
     </g>
     <g id="text_8">
      <!-- 17.5 -->
      <g transform="translate(447.600843 338.037813)scale(0.14 -0.14)">
       <use xlink:href="#DejaVuSans-31"/>
       <use x="63.623047" xlink:href="#DejaVuSans-37"/>
       <use x="127.246094" xlink:href="#DejaVuSans-2e"/>
       <use x="159.033203" xlink:href="#DejaVuSans-35"/>
      </g>
     </g>
    </g>
    <g id="text_9">
     <!-- Time [Seconds] -->
     <g transform="translate(233.23 357.106875)scale(0.16 -0.16)">
      <defs>
       <path d="M -19 4666 
L 3928 4666 
L 3928 4134 
L 2272 4134 
L 2272 0 
L 1638 0 
L 1638 4134 
L -19 4134 
L -19 4666 
z
" id="DejaVuSans-54" transform="scale(0.015625)"/>
       <path d="M 603 3500 
L 1178 3500 
L 1178 0 
L 603 0 
L 603 3500 
z
M 603 4863 
L 1178 4863 
L 1178 4134 
L 603 4134 
L 603 4863 
z
" id="DejaVuSans-69" transform="scale(0.015625)"/>
       <path d="M 3328 2828 
Q 3544 3216 3844 3400 
Q 4144 3584 4550 3584 
Q 5097 3584 5394 3201 
Q 5691 2819 5691 2113 
L 5691 0 
L 5113 0 
L 5113 2094 
Q 5113 2597 4934 2840 
Q 4756 3084 4391 3084 
Q 3944 3084 3684 2787 
Q 3425 2491 3425 1978 
L 3425 0 
L 2847 0 
L 2847 2094 
Q 2847 2600 2669 2842 
Q 2491 3084 2119 3084 
Q 1678 3084 1418 2786 
Q 1159 2488 1159 1978 
L 1159 0 
L 581 0 
L 581 3500 
L 1159 3500 
L 1159 2956 
Q 1356 3278 1631 3431 
Q 1906 3584 2284 3584 
Q 2666 3584 2933 3390 
Q 3200 3197 3328 2828 
z
" id="DejaVuSans-6d" transform="scale(0.015625)"/>
       <path d="M 3597 1894 
L 3597 1613 
L 953 1613 
Q 991 1019 1311 708 
Q 1631 397 2203 397 
Q 2534 397 2845 478 
Q 3156 559 3463 722 
L 3463 178 
Q 3153 47 2828 -22 
Q 2503 -91 2169 -91 
Q 1331 -91 842 396 
Q 353 884 353 1716 
Q 353 2575 817 3079 
Q 1281 3584 2069 3584 
Q 2775 3584 3186 3129 
Q 3597 2675 3597 1894 
z
M 3022 2063 
Q 3016 2534 2758 2815 
Q 2500 3097 2075 3097 
Q 1594 3097 1305 2825 
Q 1016 2553 972 2059 
L 3022 2063 
z
" id="DejaVuSans-65" transform="scale(0.015625)"/>
       <path id="DejaVuSans-20" transform="scale(0.015625)"/>
       <path d="M 550 4863 
L 1875 4863 
L 1875 4416 
L 1125 4416 
L 1125 -397 
L 1875 -397 
L 1875 -844 
L 550 -844 
L 550 4863 
z
" id="DejaVuSans-5b" transform="scale(0.015625)"/>
       <path d="M 3425 4513 
L 3425 3897 
Q 3066 4069 2747 4153 
Q 2428 4238 2131 4238 
Q 1616 4238 1336 4038 
Q 1056 3838 1056 3469 
Q 1056 3159 1242 3001 
Q 1428 2844 1947 2747 
L 2328 2669 
Q 3034 2534 3370 2195 
Q 3706 1856 3706 1288 
Q 3706 609 3251 259 
Q 2797 -91 1919 -91 
Q 1588 -91 1214 -16 
Q 841 59 441 206 
L 441 856 
Q 825 641 1194 531 
Q 1563 422 1919 422 
Q 2459 422 2753 634 
Q 3047 847 3047 1241 
Q 3047 1584 2836 1778 
Q 2625 1972 2144 2069 
L 1759 2144 
Q 1053 2284 737 2584 
Q 422 2884 422 3419 
Q 422 4038 858 4394 
Q 1294 4750 2059 4750 
Q 2388 4750 2728 4690 
Q 3069 4631 3425 4513 
z
" id="DejaVuSans-53" transform="scale(0.015625)"/>
       <path d="M 3122 3366 
L 3122 2828 
Q 2878 2963 2633 3030 
Q 2388 3097 2138 3097 
Q 1578 3097 1268 2742 
Q 959 2388 959 1747 
Q 959 1106 1268 751 
Q 1578 397 2138 397 
Q 2388 397 2633 464 
Q 2878 531 3122 666 
L 3122 134 
Q 2881 22 2623 -34 
Q 2366 -91 2075 -91 
Q 1284 -91 818 406 
Q 353 903 353 1747 
Q 353 2603 823 3093 
Q 1294 3584 2113 3584 
Q 2378 3584 2631 3529 
Q 2884 3475 3122 3366 
z
" id="DejaVuSans-63" transform="scale(0.015625)"/>
       <path d="M 1959 3097 
Q 1497 3097 1228 2736 
Q 959 2375 959 1747 
Q 959 1119 1226 758 
Q 1494 397 1959 397 
Q 2419 397 2687 759 
Q 2956 1122 2956 1747 
Q 2956 2369 2687 2733 
Q 2419 3097 1959 3097 
z
M 1959 3584 
Q 2709 3584 3137 3096 
Q 3566 2609 3566 1747 
Q 3566 888 3137 398 
Q 2709 -91 1959 -91 
Q 1206 -91 779 398 
Q 353 888 353 1747 
Q 353 2609 779 3096 
Q 1206 3584 1959 3584 
z
" id="DejaVuSans-6f" transform="scale(0.015625)"/>
       <path d="M 3513 2113 
L 3513 0 
L 2938 0 
L 2938 2094 
Q 2938 2591 2744 2837 
Q 2550 3084 2163 3084 
Q 1697 3084 1428 2787 
Q 1159 2491 1159 1978 
L 1159 0 
L 581 0 
L 581 3500 
L 1159 3500 
L 1159 2956 
Q 1366 3272 1645 3428 
Q 1925 3584 2291 3584 
Q 2894 3584 3203 3211 
Q 3513 2838 3513 2113 
z
" id="DejaVuSans-6e" transform="scale(0.015625)"/>
       <path d="M 2906 2969 
L 2906 4863 
L 3481 4863 
L 3481 0 
L 2906 0 
L 2906 525 
Q 2725 213 2448 61 
Q 2172 -91 1784 -91 
Q 1150 -91 751 415 
Q 353 922 353 1747 
Q 353 2572 751 3078 
Q 1150 3584 1784 3584 
Q 2172 3584 2448 3432 
Q 2725 3281 2906 2969 
z
M 947 1747 
Q 947 1113 1208 752 
Q 1469 391 1925 391 
Q 2381 391 2643 752 
Q 2906 1113 2906 1747 
Q 2906 2381 2643 2742 
Q 2381 3103 1925 3103 
Q 1469 3103 1208 2742 
Q 947 2381 947 1747 
z
" id="DejaVuSans-64" transform="scale(0.015625)"/>
       <path d="M 2834 3397 
L 2834 2853 
Q 2591 2978 2328 3040 
Q 2066 3103 1784 3103 
Q 1356 3103 1142 2972 
Q 928 2841 928 2578 
Q 928 2378 1081 2264 
Q 1234 2150 1697 2047 
L 1894 2003 
Q 2506 1872 2764 1633 
Q 3022 1394 3022 966 
Q 3022 478 2636 193 
Q 2250 -91 1575 -91 
Q 1294 -91 989 -36 
Q 684 19 347 128 
L 347 722 
Q 666 556 975 473 
Q 1284 391 1588 391 
Q 1994 391 2212 530 
Q 2431 669 2431 922 
Q 2431 1156 2273 1281 
Q 2116 1406 1581 1522 
L 1381 1569 
Q 847 1681 609 1914 
Q 372 2147 372 2553 
Q 372 3047 722 3315 
Q 1072 3584 1716 3584 
Q 2034 3584 2315 3537 
Q 2597 3491 2834 3397 
z
" id="DejaVuSans-73" transform="scale(0.015625)"/>
       <path d="M 1947 4863 
L 1947 -844 
L 622 -844 
L 622 -397 
L 1369 -397 
L 1369 4416 
L 622 4416 
L 622 4863 
L 1947 4863 
z
" id="DejaVuSans-5d" transform="scale(0.015625)"/>
      </defs>
      <use xlink:href="#DejaVuSans-54"/>
      <use x="57.958984" xlink:href="#DejaVuSans-69"/>
      <use x="85.742188" xlink:href="#DejaVuSans-6d"/>
      <use x="183.154297" xlink:href="#DejaVuSans-65"/>
      <use x="244.677734" xlink:href="#DejaVuSans-20"/>
      <use x="276.464844" xlink:href="#DejaVuSans-5b"/>
      <use x="315.478516" xlink:href="#DejaVuSans-53"/>
      <use x="378.955078" xlink:href="#DejaVuSans-65"/>
      <use x="440.478516" xlink:href="#DejaVuSans-63"/>
      <use x="495.458984" xlink:href="#DejaVuSans-6f"/>
      <use x="556.640625" xlink:href="#DejaVuSans-6e"/>
      <use x="620.019531" xlink:href="#DejaVuSans-64"/>
      <use x="683.496094" xlink:href="#DejaVuSans-73"/>
      <use x="735.595703" xlink:href="#DejaVuSans-5d"/>
     </g>
    </g>
   </g>
   <g id="matplotlib.axis_2">
    <g id="ytick_1">
     <g id="line2d_9">
      <defs>
       <path d="M 0 0 
L -3.5 0 
" id="m0cddb7f055" style="stroke:#000000;stroke-width:0.8;"/>
      </defs>
      <g>
       <use style="stroke:#000000;stroke-width:0.8;" x="72" xlink:href="#m0cddb7f055" y="277.103531"/>
      </g>
     </g>
     <g id="text_10">
      <!-- 0.0 -->
      <g transform="translate(42.735625 282.422437)scale(0.14 -0.14)">
       <use xlink:href="#DejaVuSans-30"/>
       <use x="63.623047" xlink:href="#DejaVuSans-2e"/>
       <use x="95.410156" xlink:href="#DejaVuSans-30"/>
      </g>
     </g>
    </g>
    <g id="ytick_2">
     <g id="line2d_10">
      <g>
       <use style="stroke:#000000;stroke-width:0.8;" x="72" xlink:href="#m0cddb7f055" y="220.941459"/>
      </g>
     </g>
     <g id="text_11">
      <!-- 0.5 -->
      <g transform="translate(42.735625 226.260365)scale(0.14 -0.14)">
       <use xlink:href="#DejaVuSans-30"/>
       <use x="63.623047" xlink:href="#DejaVuSans-2e"/>
       <use x="95.410156" xlink:href="#DejaVuSans-35"/>
      </g>
     </g>
    </g>
    <g id="ytick_3">
     <g id="line2d_11">
      <g>
       <use style="stroke:#000000;stroke-width:0.8;" x="72" xlink:href="#m0cddb7f055" y="164.779386"/>
      </g>
     </g>
     <g id="text_12">
      <!-- 1.0 -->
      <g transform="translate(42.735625 170.098293)scale(0.14 -0.14)">
       <use xlink:href="#DejaVuSans-31"/>
       <use x="63.623047" xlink:href="#DejaVuSans-2e"/>
       <use x="95.410156" xlink:href="#DejaVuSans-30"/>
      </g>
     </g>
    </g>
    <g id="ytick_4">
     <g id="line2d_12">
      <g>
       <use style="stroke:#000000;stroke-width:0.8;" x="72" xlink:href="#m0cddb7f055" y="108.617314"/>
      </g>
     </g>
     <g id="text_13">
      <!-- 1.5 -->
      <g transform="translate(42.735625 113.93622)scale(0.14 -0.14)">
       <use xlink:href="#DejaVuSans-31"/>
       <use x="63.623047" xlink:href="#DejaVuSans-2e"/>
       <use x="95.410156" xlink:href="#DejaVuSans-35"/>
      </g>
     </g>
    </g>
    <g id="ytick_5">
     <g id="line2d_13">
      <g>
       <use style="stroke:#000000;stroke-width:0.8;" x="72" xlink:href="#m0cddb7f055" y="52.455242"/>
      </g>
     </g>
     <g id="text_14">
      <!-- 2.0 -->
      <g transform="translate(42.735625 57.774148)scale(0.14 -0.14)">
       <use xlink:href="#DejaVuSans-32"/>
       <use x="63.623047" xlink:href="#DejaVuSans-2e"/>
       <use x="95.410156" xlink:href="#DejaVuSans-30"/>
      </g>
     </g>
    </g>
    <g id="text_15">
     <!-- Speed [mm/s] -->
     <g transform="translate(35.408125 238.11375)rotate(-90)scale(0.16 -0.16)">
      <defs>
       <path d="M 1159 525 
L 1159 -1331 
L 581 -1331 
L 581 3500 
L 1159 3500 
L 1159 2969 
Q 1341 3281 1617 3432 
Q 1894 3584 2278 3584 
Q 2916 3584 3314 3078 
Q 3713 2572 3713 1747 
Q 3713 922 3314 415 
Q 2916 -91 2278 -91 
Q 1894 -91 1617 61 
Q 1341 213 1159 525 
z
M 3116 1747 
Q 3116 2381 2855 2742 
Q 2594 3103 2138 3103 
Q 1681 3103 1420 2742 
Q 1159 2381 1159 1747 
Q 1159 1113 1420 752 
Q 1681 391 2138 391 
Q 2594 391 2855 752 
Q 3116 1113 3116 1747 
z
" id="DejaVuSans-70" transform="scale(0.015625)"/>
       <path d="M 1625 4666 
L 2156 4666 
L 531 -594 
L 0 -594 
L 1625 4666 
z
" id="DejaVuSans-2f" transform="scale(0.015625)"/>
      </defs>
      <use xlink:href="#DejaVuSans-53"/>
      <use x="63.476562" xlink:href="#DejaVuSans-70"/>
      <use x="126.953125" xlink:href="#DejaVuSans-65"/>
      <use x="188.476562" xlink:href="#DejaVuSans-65"/>
      <use x="250" xlink:href="#DejaVuSans-64"/>
      <use x="313.476562" xlink:href="#DejaVuSans-20"/>
      <use x="345.263672" xlink:href="#DejaVuSans-5b"/>
      <use x="384.277344" xlink:href="#DejaVuSans-6d"/>
      <use x="481.689453" xlink:href="#DejaVuSans-6d"/>
      <use x="579.101562" xlink:href="#DejaVuSans-2f"/>
      <use x="612.792969" xlink:href="#DejaVuSans-73"/>
      <use x="664.892578" xlink:href="#DejaVuSans-5d"/>
     </g>
    </g>
   </g>
   <g id="line2d_14">
    <path clip-path="url(#pa3261caef4)" d="M 72 200.444986 
L 518.4 200.444986 
" style="fill:none;stroke:#000000;stroke-dasharray:5.55,2.4;stroke-dashoffset:0;stroke-width:1.5;"/>
   </g>
   <g id="line2d_15">
    <path clip-path="url(#pa3261caef4)" d="M 72 274.925299 
L 128.268908 274.957301 
L 129.01916 274.736818 
L 129.769412 275.675474 
L 130.519664 274.189247 
L 131.269916 271.408588 
L 132.020168 274.30588 
L 132.77042 275.927841 
L 133.520672 272.138239 
L 134.270924 282.532143 
L 135.021176 260.226094 
L 135.771429 255.593744 
L 136.521681 292.47396 
L 137.271933 303.929673 
L 138.022185 307.8 
L 138.772437 301.828345 
L 139.522689 286.851423 
L 140.272941 264.769122 
L 141.773445 208.708562 
L 144.024202 123.068385 
L 144.774454 99.673245 
L 146.274958 65.167193 
L 147.02521 56.084104 
L 147.775462 55.8 
L 148.525714 60.989941 
L 149.275966 72.460202 
L 150.026218 89.847551 
L 153.777479 190.522069 
L 154.527731 201.404592 
L 155.277983 200.002201 
L 156.028235 198.077699 
L 156.778487 162.730869 
L 157.528739 162.996892 
L 158.278992 191.273579 
L 159.029244 187.809962 
L 159.779496 191.38428 
L 161.28 192.217602 
L 162.030252 192.386941 
L 162.780504 191.691971 
L 163.530756 191.264805 
L 164.281008 192.058659 
L 165.031261 191.999581 
L 165.781513 193.28886 
L 166.531765 195.417768 
L 167.282017 195.590946 
L 168.032269 193.608521 
L 168.782521 193.115618 
L 169.532773 194.324034 
L 170.283025 195.806454 
L 171.783529 197.890157 
L 172.533782 198.466776 
L 173.284034 197.798604 
L 174.034286 198.596839 
L 174.784538 196.860288 
L 175.53479 197.456579 
L 176.285042 198.291518 
L 177.035294 195.971661 
L 177.785546 196.099988 
L 178.535798 195.622495 
L 179.28605 196.894535 
L 180.036303 198.723448 
L 180.786555 198.417147 
L 181.536807 198.294841 
L 182.287059 197.330904 
L 183.037311 197.929151 
L 183.787563 199.279031 
L 185.288067 200.214606 
L 186.038319 200.035389 
L 186.788571 199.334601 
L 187.538824 200.62689 
L 188.289076 201.348234 
L 189.039328 200.332486 
L 189.78958 199.851948 
L 190.539832 199.225563 
L 191.290084 199.843214 
L 192.040336 201.078296 
L 192.790588 200.447931 
L 193.54084 200.331613 
L 194.291092 201.33802 
L 195.041345 201.314788 
L 195.791597 200.42884 
L 196.541849 198.352974 
L 197.292101 198.674575 
L 198.042353 199.774744 
L 198.792605 198.829237 
L 199.542857 198.235926 
L 200.293109 198.992046 
L 201.043361 200.941147 
L 201.793613 201.099157 
L 202.543866 200.185646 
L 203.294118 200.160624 
L 204.04437 199.746009 
L 204.794622 199.859794 
L 205.544874 201.092594 
L 206.295126 201.287535 
L 207.045378 201.110967 
L 207.79563 202.101113 
L 208.545882 202.510389 
L 210.046387 201.308553 
L 210.796639 201.350999 
L 211.546891 200.980971 
L 212.297143 199.981435 
L 213.047395 199.821147 
L 213.797647 200.424792 
L 214.547899 200.650991 
L 215.298151 201.683963 
L 216.048403 201.572074 
L 216.798655 200.342389 
L 217.548908 200.543031 
L 218.29916 199.289831 
L 219.049412 198.932074 
L 219.799664 200.202604 
L 221.300168 199.10287 
L 222.05042 200.225131 
L 222.800672 200.442543 
L 223.550924 199.69475 
L 225.051429 201.221344 
L 225.801681 200.239184 
L 226.551933 199.944918 
L 227.302185 201.025582 
L 228.052437 200.83409 
L 228.802689 200.847296 
L 229.552941 201.387108 
L 230.303193 201.286099 
L 231.053445 201.027531 
L 231.803697 201.357106 
L 232.55395 202.07886 
L 233.304202 201.739233 
L 234.054454 200.313939 
L 234.804706 200.635844 
L 235.554958 201.710548 
L 236.30521 201.565214 
L 237.055462 201.948027 
L 237.805714 201.719297 
L 238.555966 201.81424 
L 239.306218 202.508851 
L 240.056471 201.423543 
L 240.806723 201.282754 
L 241.556975 201.321621 
L 242.307227 200.886528 
L 243.057479 202.360535 
L 243.807731 202.710022 
L 244.557983 200.634487 
L 245.308235 200.040632 
L 246.058487 201.767341 
L 246.808739 201.081253 
L 247.558992 199.313005 
L 248.309244 199.786226 
L 249.059496 201.255019 
L 249.809748 201.180881 
L 250.56 199.418199 
L 251.310252 198.867848 
L 252.060504 199.912273 
L 252.810756 200.374246 
L 254.311261 200.117022 
L 255.061513 200.806731 
L 255.811765 200.204972 
L 256.562017 199.816941 
L 257.312269 200.487344 
L 258.062521 200.959431 
L 258.812773 201.217873 
L 259.563025 200.905728 
L 260.313277 200.458945 
L 261.063529 200.478381 
L 262.564034 200.970058 
L 263.314286 200.013878 
L 264.064538 200.362096 
L 264.81479 202.349202 
L 265.565042 202.160442 
L 266.315294 200.760347 
L 267.065546 201.083309 
L 267.815798 202.531796 
L 268.56605 201.648314 
L 269.316303 201.053035 
L 270.066555 201.479471 
L 270.816807 202.945608 
L 271.567059 203.1638 
L 272.317311 200.641768 
L 273.067563 200.340132 
L 273.817815 201.399071 
L 274.568067 201.406072 
L 275.318319 201.626006 
L 276.068571 200.788844 
L 276.818824 200.869937 
L 277.569076 200.38559 
L 278.319328 199.114068 
L 279.06958 199.563553 
L 279.819832 201.436707 
L 280.570084 201.611941 
L 281.320336 200.423355 
L 282.070588 199.615159 
L 282.82084 200.251909 
L 283.571092 201.217994 
L 284.321345 200.466628 
L 285.071597 200.02069 
L 285.821849 201.771333 
L 286.572101 202.788743 
L 287.322353 201.241466 
L 288.072605 200.615882 
L 288.822857 202.284915 
L 289.573109 202.764573 
L 290.323361 201.329848 
L 291.073613 200.622625 
L 291.823866 200.513212 
L 292.574118 201.498573 
L 293.32437 200.736302 
L 294.074622 199.584684 
L 295.575126 200.852933 
L 297.07563 201.483397 
L 297.825882 200.807824 
L 298.576134 200.938537 
L 299.326387 201.670979 
L 300.076639 201.241857 
L 300.826891 201.621466 
L 301.577143 203.529468 
L 302.327395 203.362097 
L 303.077647 201.127003 
L 303.827899 200.315489 
L 304.578151 200.989891 
L 305.328403 200.852575 
L 306.078655 199.728044 
L 306.828908 199.846967 
L 307.57916 200.612092 
L 308.329412 200.392492 
L 309.079664 199.39682 
L 309.829916 198.681877 
L 310.580168 199.535281 
L 311.33042 200.057102 
L 312.830924 200.351021 
L 313.581176 200.636829 
L 314.331429 201.235388 
L 315.081681 200.131787 
L 315.831933 200.484036 
L 316.582185 201.442208 
L 317.332437 201.334908 
L 318.082689 201.558517 
L 318.832941 201.588587 
L 319.583193 201.188635 
L 321.083697 200.809057 
L 321.83395 200.871985 
L 322.584202 200.690274 
L 323.334454 201.581091 
L 324.084706 201.163386 
L 324.834958 199.393057 
L 325.58521 200.888241 
L 326.335462 201.48377 
L 327.085714 200.931929 
L 327.835966 200.543968 
L 328.586218 200.636838 
L 330.086723 202.304413 
L 330.836975 202.543732 
L 331.587227 201.79949 
L 332.337479 201.61862 
L 333.837983 201.619319 
L 334.588235 200.749493 
L 335.338487 200.783274 
L 336.088739 201.15403 
L 336.838992 200.490563 
L 337.589244 200.415473 
L 338.339496 201.013609 
L 339.089748 201.185467 
L 340.590252 200.323773 
L 341.340504 200.478307 
L 342.090756 201.364834 
L 342.841008 201.47675 
L 343.591261 201.450735 
L 344.341513 200.832455 
L 345.091765 201.76192 
L 345.842017 201.67536 
L 346.592269 200.249889 
L 347.342521 200.967316 
L 348.092773 201.020887 
L 348.843025 200.932286 
L 349.593277 200.128311 
L 350.343529 199.581358 
L 351.093782 200.788789 
L 352.594286 201.094118 
L 353.344538 201.024409 
L 354.09479 200.342215 
L 354.845042 201.001948 
L 355.595294 200.937258 
L 356.345546 200.262224 
L 357.84605 200.927447 
L 359.346555 200.762938 
L 360.096807 201.962998 
L 360.847059 202.209206 
L 361.597311 201.897724 
L 362.347563 201.036042 
L 363.097815 201.286681 
L 363.848067 201.996704 
L 364.598319 201.300855 
L 365.348571 200.331593 
L 366.098824 200.027677 
L 366.849076 201.334874 
L 367.599328 201.384653 
L 368.34958 200.445234 
L 369.099832 200.284409 
L 370.600336 200.710769 
L 371.350588 199.906664 
L 372.10084 199.892577 
L 372.851092 201.621415 
L 374.351597 201.779825 
L 375.101849 201.250954 
L 375.852101 201.65231 
L 376.602353 202.83822 
L 378.102857 200.955077 
L 378.853109 200.789961 
L 379.603361 200.809118 
L 380.353613 200.274004 
L 381.103866 200.209496 
L 381.854118 201.070638 
L 382.60437 201.129288 
L 383.354622 201.059653 
L 384.104874 200.002236 
L 384.855126 199.985198 
L 385.605378 201.343844 
L 387.105882 200.033264 
L 388.606387 200.821519 
L 389.356639 201.46104 
L 390.106891 201.46028 
L 390.857143 201.117646 
L 391.607395 201.519549 
L 392.357647 201.590767 
L 393.107899 201.146796 
L 393.858151 201.657219 
L 394.608403 201.888972 
L 395.358655 201.18602 
L 396.85916 200.601627 
L 397.609412 201.210457 
L 398.359664 201.58312 
L 399.109916 201.096559 
L 399.860168 199.887734 
L 400.61042 199.628056 
L 401.360672 200.223589 
L 402.110924 199.695923 
L 402.861176 200.054556 
L 403.611429 201.360952 
L 404.361681 202.218088 
L 405.111933 201.67585 
L 405.862185 200.844939 
L 406.612437 201.345537 
L 407.362689 202.175678 
L 408.112941 201.862433 
L 408.863193 201.122872 
L 409.613445 201.544226 
L 410.363697 201.75975 
L 411.11395 200.743453 
L 411.864202 199.938176 
L 412.614454 200.990174 
L 413.364706 201.728383 
L 414.114958 200.60464 
L 414.86521 200.891563 
L 415.615462 202.098016 
L 417.866218 200.861083 
L 420.116975 201.329645 
L 420.867227 200.687943 
L 421.617479 199.571933 
L 422.367731 200.45947 
L 423.117983 200.576477 
L 423.868235 198.897556 
L 424.618487 199.245164 
L 425.368739 200.394169 
L 426.118992 200.845844 
L 426.869244 200.553762 
L 427.619496 201.103326 
L 428.369748 201.795543 
L 429.12 201.334264 
L 429.870252 201.770197 
L 430.620504 201.327284 
L 431.370756 201.769401 
L 432.121008 202.006376 
L 432.871261 201.083642 
L 433.621513 201.598304 
L 434.371765 202.292771 
L 435.122017 201.481795 
L 435.872269 200.984172 
L 436.622521 201.329117 
L 438.873277 201.676801 
L 439.623529 201.923883 
L 440.373782 201.803608 
L 441.124034 201.497649 
L 441.874286 200.742019 
L 442.624538 199.206236 
L 443.37479 198.945602 
L 444.125042 199.822178 
L 444.875294 199.42404 
L 445.625546 198.109444 
L 447.12605 200.309741 
L 447.876303 199.573589 
L 448.626555 200.097851 
L 449.376807 201.728846 
L 450.127059 202.097218 
L 450.877311 201.686112 
L 451.627563 202.747011 
L 452.377815 202.85806 
L 453.128067 202.571836 
L 453.878319 202.728809 
L 454.628571 202.71067 
L 455.378824 202.537961 
L 456.879328 200.099847 
L 457.62958 199.993958 
L 458.379832 199.151127 
L 459.130084 198.672964 
L 459.880336 198.993511 
L 460.630588 199.03761 
L 461.38084 199.646288 
L 462.131092 199.694117 
L 462.881345 200.686955 
L 463.631597 201.930007 
L 465.882353 203.161027 
L 466.632605 203.290307 
L 467.382857 201.706552 
L 468.133109 201.910825 
L 468.883361 201.887032 
L 469.633613 200.356069 
L 470.383866 200.967224 
L 471.134118 200.699138 
L 471.88437 199.648749 
L 472.634622 199.562833 
L 473.384874 200.161599 
L 474.885378 200.010046 
L 475.63563 200.592261 
L 477.136134 202.136236 
L 477.886387 201.149197 
L 478.636639 200.606003 
L 479.386891 200.845003 
L 480.137143 200.640776 
L 480.887395 200.601497 
L 482.387899 200.270167 
L 483.138151 200.286701 
L 483.888403 199.202231 
L 484.638655 199.272798 
L 485.388908 200.831018 
L 486.13916 201.643567 
L 486.889412 202.26426 
L 487.639664 203.082448 
L 488.389916 203.178368 
L 489.140168 202.377118 
L 489.89042 203.010542 
L 490.640672 202.538684 
L 491.390924 201.080824 
L 492.141176 200.854898 
L 492.891429 199.645425 
L 493.641681 199.024733 
L 494.391933 199.212877 
L 495.142185 199.039503 
L 495.892437 199.2115 
L 496.642689 199.550661 
L 497.392941 200.361528 
L 498.143193 200.737681 
L 499.643697 201.84479 
L 500.39395 203.044278 
L 501.144202 203.933583 
L 501.894454 202.658483 
L 502.644706 202.159335 
L 503.394958 202.896975 
L 504.14521 202.30988 
L 504.895462 201.19825 
L 506.395966 200.198812 
L 507.146218 199.947458 
L 510.147227 199.583388 
L 511.647731 199.896353 
L 513.148235 200.568261 
L 514.648739 201.524214 
L 518.4 204.217574 
L 518.4 204.217574 
" style="fill:none;stroke:#ff0000;stroke-linecap:square;stroke-width:2;"/>
   </g>
   <g id="patch_3">
    <path d="M 72 320.4 
L 72 43.2 
" style="fill:none;stroke:#000000;stroke-linecap:square;stroke-linejoin:miter;stroke-width:0.8;"/>
   </g>
   <g id="patch_4">
    <path d="M 518.4 320.4 
L 518.4 43.2 
" style="fill:none;stroke:#000000;stroke-linecap:square;stroke-linejoin:miter;stroke-width:0.8;"/>
   </g>
   <g id="patch_5">
    <path d="M 72 320.4 
L 518.4 320.4 
" style="fill:none;stroke:#000000;stroke-linecap:square;stroke-linejoin:miter;stroke-width:0.8;"/>
   </g>
   <g id="patch_6">
    <path d="M 72 43.2 
L 518.4 43.2 
" style="fill:none;stroke:#000000;stroke-linecap:square;stroke-linejoin:miter;stroke-width:0.8;"/>
   </g>
   <g id="text_16">
    <!-- Front Propogation Speed -->
    <g transform="translate(172.245312 37.2)scale(0.2 -0.2)">
     <defs>
      <path d="M 628 4666 
L 3309 4666 
L 3309 4134 
L 1259 4134 
L 1259 2759 
L 3109 2759 
L 3109 2228 
L 1259 2228 
L 1259 0 
L 628 0 
L 628 4666 
z
" id="DejaVuSans-46" transform="scale(0.015625)"/>
      <path d="M 2631 2963 
Q 2534 3019 2420 3045 
Q 2306 3072 2169 3072 
Q 1681 3072 1420 2755 
Q 1159 2438 1159 1844 
L 1159 0 
L 581 0 
L 581 3500 
L 1159 3500 
L 1159 2956 
Q 1341 3275 1631 3429 
Q 1922 3584 2338 3584 
Q 2397 3584 2469 3576 
Q 2541 3569 2628 3553 
L 2631 2963 
z
" id="DejaVuSans-72" transform="scale(0.015625)"/>
      <path d="M 1172 4494 
L 1172 3500 
L 2356 3500 
L 2356 3053 
L 1172 3053 
L 1172 1153 
Q 1172 725 1289 603 
Q 1406 481 1766 481 
L 2356 481 
L 2356 0 
L 1766 0 
Q 1100 0 847 248 
Q 594 497 594 1153 
L 594 3053 
L 172 3053 
L 172 3500 
L 594 3500 
L 594 4494 
L 1172 4494 
z
" id="DejaVuSans-74" transform="scale(0.015625)"/>
      <path d="M 1259 4147 
L 1259 2394 
L 2053 2394 
Q 2494 2394 2734 2622 
Q 2975 2850 2975 3272 
Q 2975 3691 2734 3919 
Q 2494 4147 2053 4147 
L 1259 4147 
z
M 628 4666 
L 2053 4666 
Q 2838 4666 3239 4311 
Q 3641 3956 3641 3272 
Q 3641 2581 3239 2228 
Q 2838 1875 2053 1875 
L 1259 1875 
L 1259 0 
L 628 0 
L 628 4666 
z
" id="DejaVuSans-50" transform="scale(0.015625)"/>
      <path d="M 2906 1791 
Q 2906 2416 2648 2759 
Q 2391 3103 1925 3103 
Q 1463 3103 1205 2759 
Q 947 2416 947 1791 
Q 947 1169 1205 825 
Q 1463 481 1925 481 
Q 2391 481 2648 825 
Q 2906 1169 2906 1791 
z
M 3481 434 
Q 3481 -459 3084 -895 
Q 2688 -1331 1869 -1331 
Q 1566 -1331 1297 -1286 
Q 1028 -1241 775 -1147 
L 775 -588 
Q 1028 -725 1275 -790 
Q 1522 -856 1778 -856 
Q 2344 -856 2625 -561 
Q 2906 -266 2906 331 
L 2906 616 
Q 2728 306 2450 153 
Q 2172 0 1784 0 
Q 1141 0 747 490 
Q 353 981 353 1791 
Q 353 2603 747 3093 
Q 1141 3584 1784 3584 
Q 2172 3584 2450 3431 
Q 2728 3278 2906 2969 
L 2906 3500 
L 3481 3500 
L 3481 434 
z
" id="DejaVuSans-67" transform="scale(0.015625)"/>
      <path d="M 2194 1759 
Q 1497 1759 1228 1600 
Q 959 1441 959 1056 
Q 959 750 1161 570 
Q 1363 391 1709 391 
Q 2188 391 2477 730 
Q 2766 1069 2766 1631 
L 2766 1759 
L 2194 1759 
z
M 3341 1997 
L 3341 0 
L 2766 0 
L 2766 531 
Q 2569 213 2275 61 
Q 1981 -91 1556 -91 
Q 1019 -91 701 211 
Q 384 513 384 1019 
Q 384 1609 779 1909 
Q 1175 2209 1959 2209 
L 2766 2209 
L 2766 2266 
Q 2766 2663 2505 2880 
Q 2244 3097 1772 3097 
Q 1472 3097 1187 3025 
Q 903 2953 641 2809 
L 641 3341 
Q 956 3463 1253 3523 
Q 1550 3584 1831 3584 
Q 2591 3584 2966 3190 
Q 3341 2797 3341 1997 
z
" id="DejaVuSans-61" transform="scale(0.015625)"/>
     </defs>
     <use xlink:href="#DejaVuSans-46"/>
     <use x="50.269531" xlink:href="#DejaVuSans-72"/>
     <use x="89.132812" xlink:href="#DejaVuSans-6f"/>
     <use x="150.314453" xlink:href="#DejaVuSans-6e"/>
     <use x="213.693359" xlink:href="#DejaVuSans-74"/>
     <use x="252.902344" xlink:href="#DejaVuSans-20"/>
     <use x="284.689453" xlink:href="#DejaVuSans-50"/>
     <use x="343.242188" xlink:href="#DejaVuSans-72"/>
     <use x="382.105469" xlink:href="#DejaVuSans-6f"/>
     <use x="443.287109" xlink:href="#DejaVuSans-70"/>
     <use x="506.763672" xlink:href="#DejaVuSans-6f"/>
     <use x="567.945312" xlink:href="#DejaVuSans-67"/>
     <use x="631.421875" xlink:href="#DejaVuSans-61"/>
     <use x="692.701172" xlink:href="#DejaVuSans-74"/>
     <use x="731.910156" xlink:href="#DejaVuSans-69"/>
     <use x="759.693359" xlink:href="#DejaVuSans-6f"/>
     <use x="820.875" xlink:href="#DejaVuSans-6e"/>
     <use x="884.253906" xlink:href="#DejaVuSans-20"/>
     <use x="916.041016" xlink:href="#DejaVuSans-53"/>
     <use x="979.517578" xlink:href="#DejaVuSans-70"/>
     <use x="1042.994141" xlink:href="#DejaVuSans-65"/>
     <use x="1104.517578" xlink:href="#DejaVuSans-65"/>
     <use x="1166.041016" xlink:href="#DejaVuSans-64"/>
    </g>
   </g>
   <g id="legend_1">
    <g id="patch_7">
     <path d="M 325.967812 111.175687 
L 508.6 111.175687 
Q 511.4 111.175687 511.4 108.375687 
L 511.4 53 
Q 511.4 50.2 508.6 50.2 
L 325.967812 50.2 
Q 323.167812 50.2 323.167812 53 
L 323.167812 108.375687 
Q 323.167812 111.175687 325.967812 111.175687 
z
" style="fill:#ffffff;opacity:0.8;stroke:#cccccc;stroke-linejoin:miter;"/>
    </g>
    <g id="line2d_16">
     <path d="M 328.767812 61.537812 
L 356.767812 61.537812 
" style="fill:none;stroke:#ff0000;stroke-linecap:square;stroke-width:2;"/>
    </g>
    <g id="line2d_17"/>
    <g id="text_17">
     <!-- Front speed -->
     <g transform="translate(367.967812 66.437812)scale(0.14 -0.14)">
      <use xlink:href="#DejaVuSans-46"/>
      <use x="50.269531" xlink:href="#DejaVuSans-72"/>
      <use x="89.132812" xlink:href="#DejaVuSans-6f"/>
      <use x="150.314453" xlink:href="#DejaVuSans-6e"/>
      <use x="213.693359" xlink:href="#DejaVuSans-74"/>
      <use x="252.902344" xlink:href="#DejaVuSans-20"/>
      <use x="284.689453" xlink:href="#DejaVuSans-73"/>
      <use x="336.789062" xlink:href="#DejaVuSans-70"/>
      <use x="400.265625" xlink:href="#DejaVuSans-65"/>
      <use x="461.789062" xlink:href="#DejaVuSans-65"/>
      <use x="523.3125" xlink:href="#DejaVuSans-64"/>
     </g>
    </g>
    <g id="line2d_18">
     <path d="M 328.767812 91.381437 
L 356.767812 91.381437 
" style="fill:none;stroke:#000000;stroke-dasharray:5.55,2.4;stroke-dashoffset:0;stroke-width:1.5;"/>
    </g>
    <g id="line2d_19"/>
    <g id="text_18">
     <!-- Steady state -->
     <g transform="translate(367.967812 86.987187)scale(0.14 -0.14)">
      <defs>
       <path d="M 2059 -325 
Q 1816 -950 1584 -1140 
Q 1353 -1331 966 -1331 
L 506 -1331 
L 506 -850 
L 844 -850 
Q 1081 -850 1212 -737 
Q 1344 -625 1503 -206 
L 1606 56 
L 191 3500 
L 800 3500 
L 1894 763 
L 2988 3500 
L 3597 3500 
L 2059 -325 
z
" id="DejaVuSans-79" transform="scale(0.015625)"/>
      </defs>
      <use xlink:href="#DejaVuSans-53"/>
      <use x="63.476562" xlink:href="#DejaVuSans-74"/>
      <use x="102.685547" xlink:href="#DejaVuSans-65"/>
      <use x="164.208984" xlink:href="#DejaVuSans-61"/>
      <use x="225.488281" xlink:href="#DejaVuSans-64"/>
      <use x="288.964844" xlink:href="#DejaVuSans-79"/>
      <use x="348.144531" xlink:href="#DejaVuSans-20"/>
      <use x="379.931641" xlink:href="#DejaVuSans-73"/>
      <use x="432.03125" xlink:href="#DejaVuSans-74"/>
      <use x="471.240234" xlink:href="#DejaVuSans-61"/>
      <use x="532.519531" xlink:href="#DejaVuSans-74"/>
      <use x="571.728516" xlink:href="#DejaVuSans-65"/>
     </g>
     <!-- speed = 0.68 mm/s -->
     <g transform="translate(367.967812 102.664125)scale(0.14 -0.14)">
      <defs>
       <path d="M 678 2906 
L 4684 2906 
L 4684 2381 
L 678 2381 
L 678 2906 
z
M 678 1631 
L 4684 1631 
L 4684 1100 
L 678 1100 
L 678 1631 
z
" id="DejaVuSans-3d" transform="scale(0.015625)"/>
       <path d="M 2113 2584 
Q 1688 2584 1439 2293 
Q 1191 2003 1191 1497 
Q 1191 994 1439 701 
Q 1688 409 2113 409 
Q 2538 409 2786 701 
Q 3034 994 3034 1497 
Q 3034 2003 2786 2293 
Q 2538 2584 2113 2584 
z
M 3366 4563 
L 3366 3988 
Q 3128 4100 2886 4159 
Q 2644 4219 2406 4219 
Q 1781 4219 1451 3797 
Q 1122 3375 1075 2522 
Q 1259 2794 1537 2939 
Q 1816 3084 2150 3084 
Q 2853 3084 3261 2657 
Q 3669 2231 3669 1497 
Q 3669 778 3244 343 
Q 2819 -91 2113 -91 
Q 1303 -91 875 529 
Q 447 1150 447 2328 
Q 447 3434 972 4092 
Q 1497 4750 2381 4750 
Q 2619 4750 2861 4703 
Q 3103 4656 3366 4563 
z
" id="DejaVuSans-36" transform="scale(0.015625)"/>
       <path d="M 2034 2216 
Q 1584 2216 1326 1975 
Q 1069 1734 1069 1313 
Q 1069 891 1326 650 
Q 1584 409 2034 409 
Q 2484 409 2743 651 
Q 3003 894 3003 1313 
Q 3003 1734 2745 1975 
Q 2488 2216 2034 2216 
z
M 1403 2484 
Q 997 2584 770 2862 
Q 544 3141 544 3541 
Q 544 4100 942 4425 
Q 1341 4750 2034 4750 
Q 2731 4750 3128 4425 
Q 3525 4100 3525 3541 
Q 3525 3141 3298 2862 
Q 3072 2584 2669 2484 
Q 3125 2378 3379 2068 
Q 3634 1759 3634 1313 
Q 3634 634 3220 271 
Q 2806 -91 2034 -91 
Q 1263 -91 848 271 
Q 434 634 434 1313 
Q 434 1759 690 2068 
Q 947 2378 1403 2484 
z
M 1172 3481 
Q 1172 3119 1398 2916 
Q 1625 2713 2034 2713 
Q 2441 2713 2670 2916 
Q 2900 3119 2900 3481 
Q 2900 3844 2670 4047 
Q 2441 4250 2034 4250 
Q 1625 4250 1398 4047 
Q 1172 3844 1172 3481 
z
" id="DejaVuSans-38" transform="scale(0.015625)"/>
      </defs>
      <use xlink:href="#DejaVuSans-73"/>
      <use x="52.099609" xlink:href="#DejaVuSans-70"/>
      <use x="115.576172" xlink:href="#DejaVuSans-65"/>
      <use x="177.099609" xlink:href="#DejaVuSans-65"/>
      <use x="238.623047" xlink:href="#DejaVuSans-64"/>
      <use x="302.099609" xlink:href="#DejaVuSans-20"/>
      <use x="333.886719" xlink:href="#DejaVuSans-3d"/>
      <use x="417.675781" xlink:href="#DejaVuSans-20"/>
      <use x="449.462891" xlink:href="#DejaVuSans-30"/>
      <use x="513.085938" xlink:href="#DejaVuSans-2e"/>
      <use x="544.873047" xlink:href="#DejaVuSans-36"/>
      <use x="608.496094" xlink:href="#DejaVuSans-38"/>
      <use x="672.119141" xlink:href="#DejaVuSans-20"/>
      <use x="703.90625" xlink:href="#DejaVuSans-6d"/>
      <use x="801.318359" xlink:href="#DejaVuSans-6d"/>
      <use x="898.730469" xlink:href="#DejaVuSans-2f"/>
      <use x="932.421875" xlink:href="#DejaVuSans-73"/>
     </g>
    </g>
   </g>
  </g>
 </g>
 <defs>
  <clipPath id="pa3261caef4">
   <rect height="277.2" width="446.4" x="72" y="43.2"/>
  </clipPath>
 </defs>
</svg>
