<?xml version="1.0" encoding="utf-8" standalone="no"?>
<!DOCTYPE svg PUBLIC "-//W3C//DTD SVG 1.1//EN"
  "http://www.w3.org/Graphics/SVG/1.1/DTD/svg11.dtd">
<svg height="360pt" version="1.1" viewBox="0 0 576 360" width="576pt" xmlns="http://www.w3.org/2000/svg" xmlns:xlink="http://www.w3.org/1999/xlink">
 <metadata>
  <rdf:RDF xmlns:cc="http://creativecommons.org/ns#" xmlns:dc="http://purl.org/dc/elements/1.1/" xmlns:rdf="http://www.w3.org/1999/02/22-rdf-syntax-ns#">
   <cc:Work>
    <dc:type rdf:resource="http://purl.org/dc/dcmitype/StillImage"/>
    <dc:date>2022-06-30T14:21:58.165028</dc:date>
    <dc:format>image/svg+xml</dc:format>
    <dc:creator>
     <cc:Agent>
      <dc:title>Matplotlib v3.4.3, https://matplotlib.org/</dc:title>
     </cc:Agent>
    </dc:creator>
   </cc:Work>
  </rdf:RDF>
 </metadata>
 <defs>
  <style type="text/css">*{stroke-linecap:butt;stroke-linejoin:round;}</style>
 </defs>
 <g id="figure_1">
  <g id="patch_1">
   <path d="M 0 360 
L 576 360 
L 576 0 
L 0 0 
z
" style="fill:#ffffff;"/>
  </g>
  <g id="axes_1">
   <g id="patch_2">
    <path d="M 72 320.4 
L 518.4 320.4 
L 518.4 43.2 
L 72 43.2 
z
" style="fill:#ffffff;"/>
   </g>
   <g id="PolyCollection_1">
    <defs>
     <path d="M 72 -168.610528 
L 72 -174.841478 
L 72.611507 -174.841478 
L 73.223014 -174.841478 
L 73.834521 -174.841478 
L 74.446027 -174.841478 
L 75.057534 -174.841478 
L 75.669041 -174.841478 
L 76.280548 -174.841478 
L 76.892055 -174.841478 
L 77.503562 -174.841478 
L 78.115068 -174.841478 
L 78.726575 -174.841478 
L 79.338082 -174.841478 
L 79.949589 -174.841478 
L 80.561096 -174.841478 
L 81.172603 -174.841478 
L 81.78411 -174.841478 
L 82.395616 -174.841478 
L 83.007123 -174.841478 
L 83.61863 -174.841478 
L 84.230137 -174.841478 
L 84.841644 -174.841478 
L 85.453151 -174.841478 
L 86.064658 -174.841478 
L 86.676164 -174.841478 
L 87.287671 -174.841478 
L 87.899178 -174.841478 
L 88.510685 -174.841478 
L 89.122192 -174.841478 
L 89.733699 -174.841478 
L 90.345205 -174.841478 
L 90.956712 -174.841478 
L 91.568219 -174.841478 
L 92.179726 -174.841478 
L 92.791233 -174.841478 
L 93.40274 -174.841478 
L 94.014247 -174.841478 
L 94.625753 -174.841478 
L 95.23726 -174.841478 
L 95.848767 -174.841478 
L 96.460274 -174.841478 
L 97.071781 -174.841478 
L 97.683288 -174.841478 
L 98.294795 -174.841478 
L 98.906301 -174.841478 
L 99.517808 -174.841478 
L 100.129315 -174.841478 
L 100.740822 -174.841478 
L 101.352329 -174.841478 
L 101.963836 -174.841478 
L 102.575342 -174.841478 
L 103.186849 -174.841478 
L 103.798356 -174.841478 
L 104.409863 -174.841478 
L 105.02137 -174.841478 
L 105.632877 -174.841478 
L 106.244384 -174.841478 
L 106.85589 -174.841478 
L 107.467397 -174.841478 
L 108.078904 -174.841478 
L 108.690411 -174.841478 
L 109.301918 -174.841478 
L 109.913425 -174.841478 
L 110.524932 -174.841478 
L 111.136438 -174.841478 
L 111.747945 -174.841478 
L 112.359452 -174.841478 
L 112.970959 -174.841478 
L 113.582466 -174.841478 
L 114.193973 -174.841478 
L 114.805479 -174.841478 
L 115.416986 -174.841478 
L 116.028493 -174.841478 
L 116.64 -174.841478 
L 117.251507 -174.841478 
L 117.863014 -174.841478 
L 118.474521 -174.841478 
L 119.086027 -174.841478 
L 119.697534 -174.841478 
L 120.309041 -174.841478 
L 120.920548 -174.841478 
L 121.532055 -174.841478 
L 122.143562 -174.841478 
L 122.755068 -174.841478 
L 123.366575 -174.841478 
L 123.978082 -174.841478 
L 124.589589 -174.841478 
L 125.201096 -174.841478 
L 125.812603 -174.841478 
L 126.42411 -174.841478 
L 127.035616 -174.841478 
L 127.647123 -174.841478 
L 128.25863 -174.841478 
L 128.870137 -174.841478 
L 129.481644 -174.841478 
L 130.093151 -174.841478 
L 130.704658 -174.841478 
L 131.316164 -174.841478 
L 131.927671 -174.841478 
L 132.539178 -174.841478 
L 133.150685 -174.841478 
L 133.762192 -174.841478 
L 134.373699 -174.841478 
L 134.985205 -174.841478 
L 135.596712 -174.841478 
L 136.208219 -174.841478 
L 136.819726 -174.841478 
L 137.431233 -174.841478 
L 138.04274 -174.841478 
L 138.654247 -174.841478 
L 139.265753 -174.841478 
L 139.87726 -174.841478 
L 140.488767 -174.841478 
L 141.100274 -174.841478 
L 141.711781 -174.841478 
L 142.323288 -174.841478 
L 142.934795 -174.841478 
L 143.546301 -174.841478 
L 144.157808 -174.841478 
L 144.769315 -174.841478 
L 145.380822 -174.841478 
L 145.992329 -174.841478 
L 146.603836 -174.841478 
L 147.215342 -174.841478 
L 147.826849 -174.841478 
L 148.438356 -174.841478 
L 149.049863 -174.841478 
L 149.66137 -174.841478 
L 150.272877 -174.841478 
L 150.884384 -174.841478 
L 151.49589 -174.841478 
L 152.107397 -174.841478 
L 152.718904 -174.841478 
L 153.330411 -174.841478 
L 153.941918 -174.841478 
L 154.553425 -174.841478 
L 155.164932 -174.841478 
L 155.776438 -174.841478 
L 156.387945 -174.841478 
L 156.999452 -174.841478 
L 157.610959 -174.841478 
L 158.222466 -174.841478 
L 158.833973 -174.841478 
L 159.445479 -174.841478 
L 160.056986 -174.841478 
L 160.668493 -174.841478 
L 161.28 -174.841478 
L 161.891507 -174.841478 
L 162.503014 -174.841478 
L 163.114521 -174.841478 
L 163.726027 -174.841478 
L 164.337534 -174.841478 
L 164.949041 -174.841478 
L 165.560548 -174.841478 
L 166.172055 -174.841478 
L 166.783562 -174.841478 
L 167.395068 -174.841478 
L 168.006575 -174.841478 
L 168.618082 -174.841478 
L 169.229589 -174.841478 
L 169.841096 -174.841478 
L 170.452603 -174.841478 
L 171.06411 -174.841478 
L 171.675616 -174.841478 
L 172.287123 -174.841478 
L 172.89863 -174.841478 
L 173.510137 -174.841478 
L 174.121644 -174.841478 
L 174.733151 -174.841478 
L 175.344658 -174.841478 
L 175.956164 -174.841478 
L 176.567671 -174.841478 
L 177.179178 -174.841478 
L 177.790685 -174.841478 
L 178.402192 -174.841478 
L 179.013699 -174.841478 
L 179.625205 -174.841478 
L 180.236712 -174.841478 
L 180.848219 -174.841478 
L 181.459726 -174.841478 
L 182.071233 -174.841478 
L 182.68274 -174.841478 
L 183.294247 -174.841478 
L 183.905753 -174.841478 
L 184.51726 -174.841478 
L 185.128767 -174.841478 
L 185.740274 -174.841478 
L 186.351781 -174.841478 
L 186.963288 -174.841478 
L 187.574795 -174.841478 
L 188.186301 -174.841478 
L 188.797808 -174.841478 
L 189.409315 -174.841478 
L 190.020822 -174.841478 
L 190.632329 -174.841478 
L 191.243836 -174.841478 
L 191.855342 -174.841478 
L 192.466849 -174.841478 
L 193.078356 -174.841478 
L 193.689863 -174.841478 
L 194.30137 -174.841478 
L 194.912877 -174.841478 
L 195.524384 -174.841478 
L 196.13589 -174.841478 
L 196.747397 -174.841478 
L 197.358904 -174.841478 
L 197.970411 -174.841478 
L 198.581918 -174.841478 
L 199.193425 -174.841478 
L 199.804932 -174.841478 
L 200.416438 -174.841478 
L 201.027945 -174.841478 
L 201.639452 -174.841478 
L 202.250959 -174.841478 
L 202.862466 -174.841478 
L 203.473973 -174.841478 
L 204.085479 -174.841478 
L 204.696986 -174.841478 
L 205.308493 -174.841478 
L 205.92 -174.841478 
L 206.531507 -174.841478 
L 207.143014 -174.841478 
L 207.754521 -174.841478 
L 208.366027 -174.841478 
L 208.977534 -174.841478 
L 209.589041 -174.841478 
L 210.200548 -174.841478 
L 210.812055 -174.841478 
L 211.423562 -174.841478 
L 212.035068 -174.841478 
L 212.646575 -174.841478 
L 213.258082 -174.841478 
L 213.869589 -174.841478 
L 214.481096 -174.841478 
L 215.092603 -174.841478 
L 215.70411 -174.841478 
L 216.315616 -174.841478 
L 216.927123 -174.841478 
L 217.53863 -174.841478 
L 218.150137 -174.841478 
L 218.761644 -174.841478 
L 219.373151 -174.841478 
L 219.984658 -174.841478 
L 220.596164 -174.841478 
L 221.207671 -174.841478 
L 221.819178 -174.841478 
L 222.430685 -174.841478 
L 223.042192 -174.841478 
L 223.653699 -174.841478 
L 224.265205 -174.841478 
L 224.876712 -174.841478 
L 225.488219 -174.841478 
L 226.099726 -174.841478 
L 226.711233 -174.841478 
L 227.32274 -174.841478 
L 227.934247 -174.841478 
L 228.545753 -174.841478 
L 229.15726 -174.841478 
L 229.768767 -174.841478 
L 230.380274 -174.841478 
L 230.991781 -174.841478 
L 231.603288 -174.841478 
L 232.214795 -174.841478 
L 232.826301 -174.841478 
L 233.437808 -174.841478 
L 234.049315 -174.841478 
L 234.660822 -174.841478 
L 235.272329 -174.841478 
L 235.883836 -174.841478 
L 236.495342 -174.841478 
L 237.106849 -174.841478 
L 237.718356 -174.841478 
L 238.329863 -174.841478 
L 238.94137 -174.841478 
L 239.552877 -174.841478 
L 240.164384 -174.841478 
L 240.77589 -174.841478 
L 241.387397 -174.841478 
L 241.998904 -174.841478 
L 242.610411 -174.841478 
L 243.221918 -174.841478 
L 243.833425 -174.841478 
L 244.444932 -174.841478 
L 245.056438 -174.841478 
L 245.667945 -174.841478 
L 246.279452 -174.841478 
L 246.890959 -174.841478 
L 247.502466 -174.841478 
L 248.113973 -174.841478 
L 248.725479 -174.841478 
L 249.336986 -174.841478 
L 249.948493 -174.841478 
L 250.56 -174.841478 
L 251.171507 -174.841478 
L 251.783014 -174.841478 
L 252.394521 -174.841478 
L 253.006027 -174.841478 
L 253.617534 -174.841478 
L 254.229041 -174.841478 
L 254.840548 -174.841478 
L 255.452055 -174.841478 
L 256.063562 -174.841478 
L 256.675068 -174.841478 
L 257.286575 -174.841478 
L 257.898082 -174.841478 
L 258.509589 -174.841478 
L 259.121096 -174.841478 
L 259.732603 -174.841478 
L 260.34411 -174.841478 
L 260.955616 -174.841478 
L 261.567123 -174.841478 
L 262.17863 -174.841478 
L 262.790137 -174.841478 
L 263.401644 -174.841478 
L 264.013151 -174.841478 
L 264.624658 -174.841478 
L 265.236164 -174.841478 
L 265.847671 -174.841478 
L 266.459178 -174.841478 
L 267.070685 -174.841478 
L 267.682192 -174.841478 
L 268.293699 -174.841478 
L 268.905205 -174.841478 
L 269.516712 -174.841478 
L 270.128219 -174.841478 
L 270.739726 -174.841478 
L 271.351233 -174.841478 
L 271.96274 -174.841478 
L 272.574247 -174.841478 
L 273.185753 -174.841478 
L 273.79726 -174.841478 
L 274.408767 -174.841478 
L 275.020274 -174.841478 
L 275.631781 -174.841478 
L 276.243288 -174.841478 
L 276.854795 -174.841478 
L 277.466301 -174.841478 
L 278.077808 -174.841478 
L 278.689315 -174.841478 
L 279.300822 -174.841478 
L 279.912329 -174.841478 
L 280.523836 -174.841478 
L 281.135342 -174.841478 
L 281.746849 -174.841478 
L 282.358356 -174.841478 
L 282.969863 -174.841478 
L 283.58137 -174.841478 
L 284.192877 -174.841478 
L 284.804384 -174.841478 
L 285.41589 -174.841478 
L 286.027397 -174.841478 
L 286.638904 -174.841478 
L 287.250411 -174.841478 
L 287.861918 -174.841478 
L 288.473425 -174.841478 
L 289.084932 -174.841478 
L 289.696438 -174.841478 
L 290.307945 -174.841478 
L 290.919452 -174.841478 
L 291.530959 -174.841478 
L 292.142466 -174.841478 
L 292.753973 -174.841478 
L 293.365479 -174.841478 
L 293.976986 -174.841478 
L 294.588493 -174.841478 
L 295.2 -174.841478 
L 295.811507 -174.841478 
L 296.423014 -174.841478 
L 297.034521 -174.841478 
L 297.646027 -174.841478 
L 298.257534 -174.841478 
L 298.869041 -174.841478 
L 299.480548 -174.841478 
L 300.092055 -174.841478 
L 300.703562 -174.841478 
L 301.315068 -174.841478 
L 301.926575 -174.841478 
L 302.538082 -174.841478 
L 303.149589 -174.841478 
L 303.761096 -174.841478 
L 304.372603 -174.841478 
L 304.98411 -174.841478 
L 305.595616 -174.841478 
L 306.207123 -174.841478 
L 306.81863 -174.841478 
L 307.430137 -174.841478 
L 308.041644 -174.841478 
L 308.653151 -174.841478 
L 309.264658 -174.841478 
L 309.876164 -174.841478 
L 310.487671 -174.841478 
L 311.099178 -174.841478 
L 311.710685 -174.841478 
L 312.322192 -174.841478 
L 312.933699 -174.841478 
L 313.545205 -174.841478 
L 314.156712 -174.841478 
L 314.768219 -174.841478 
L 315.379726 -174.841478 
L 315.991233 -174.841478 
L 316.60274 -174.841478 
L 317.214247 -174.841478 
L 317.825753 -174.841478 
L 318.43726 -174.841478 
L 319.048767 -174.841478 
L 319.660274 -174.841478 
L 320.271781 -174.841478 
L 320.883288 -174.841478 
L 321.494795 -174.841478 
L 322.106301 -174.841478 
L 322.717808 -174.841478 
L 323.329315 -174.841478 
L 323.940822 -174.841478 
L 324.552329 -174.841478 
L 325.163836 -174.841478 
L 325.775342 -174.841478 
L 326.386849 -174.841478 
L 326.998356 -174.841478 
L 327.609863 -174.841478 
L 328.22137 -174.841478 
L 328.832877 -174.841478 
L 329.444384 -174.841478 
L 330.05589 -174.841478 
L 330.667397 -174.841478 
L 331.278904 -174.841478 
L 331.890411 -174.841478 
L 332.501918 -174.841478 
L 333.113425 -174.841478 
L 333.724932 -174.841478 
L 334.336438 -174.841478 
L 334.947945 -174.841478 
L 335.559452 -174.841478 
L 336.170959 -174.841478 
L 336.782466 -174.841478 
L 337.393973 -174.841478 
L 338.005479 -174.841478 
L 338.616986 -174.841478 
L 339.228493 -174.841478 
L 339.84 -174.841478 
L 340.451507 -174.841478 
L 341.063014 -174.841478 
L 341.674521 -174.841478 
L 342.286027 -174.841478 
L 342.897534 -174.841478 
L 343.509041 -174.841478 
L 344.120548 -174.841478 
L 344.732055 -174.841478 
L 345.343562 -174.841478 
L 345.955068 -174.841478 
L 346.566575 -174.841478 
L 347.178082 -174.841478 
L 347.789589 -174.841478 
L 348.401096 -174.841478 
L 349.012603 -174.841478 
L 349.62411 -174.841478 
L 350.235616 -174.841478 
L 350.847123 -174.841478 
L 351.45863 -174.841478 
L 352.070137 -174.841478 
L 352.681644 -174.841478 
L 353.293151 -174.841478 
L 353.904658 -174.841478 
L 354.516164 -174.841478 
L 355.127671 -174.841478 
L 355.739178 -174.841478 
L 356.350685 -174.841478 
L 356.962192 -174.841478 
L 357.573699 -174.841478 
L 358.185205 -174.841478 
L 358.796712 -174.841478 
L 359.408219 -174.841478 
L 360.019726 -174.841478 
L 360.631233 -174.841478 
L 361.24274 -174.841478 
L 361.854247 -174.841478 
L 362.465753 -174.841478 
L 363.07726 -174.841478 
L 363.688767 -174.841478 
L 364.300274 -174.841478 
L 364.911781 -174.841478 
L 365.523288 -174.841478 
L 366.134795 -174.841478 
L 366.746301 -174.841478 
L 367.357808 -174.841478 
L 367.969315 -174.841478 
L 368.580822 -174.841478 
L 369.192329 -174.841478 
L 369.803836 -174.841478 
L 370.415342 -174.841478 
L 371.026849 -174.841478 
L 371.638356 -174.841478 
L 372.249863 -174.841478 
L 372.86137 -174.841478 
L 373.472877 -174.841478 
L 374.084384 -174.841478 
L 374.69589 -174.841478 
L 375.307397 -174.841478 
L 375.918904 -174.841478 
L 376.530411 -174.841478 
L 377.141918 -174.841478 
L 377.753425 -174.841478 
L 378.364932 -174.841478 
L 378.976438 -174.841478 
L 379.587945 -174.841478 
L 380.199452 -174.841478 
L 380.810959 -174.841478 
L 381.422466 -174.841478 
L 382.033973 -174.841478 
L 382.645479 -174.841478 
L 383.256986 -174.841478 
L 383.868493 -174.841478 
L 384.48 -174.841478 
L 385.091507 -174.841478 
L 385.703014 -174.841478 
L 386.314521 -174.841478 
L 386.926027 -174.841478 
L 387.537534 -174.841478 
L 388.149041 -174.841478 
L 388.760548 -174.841478 
L 389.372055 -174.841478 
L 389.983562 -174.841478 
L 390.595068 -174.841478 
L 391.206575 -174.841478 
L 391.818082 -174.841478 
L 392.429589 -174.841478 
L 393.041096 -174.841478 
L 393.652603 -174.841478 
L 394.26411 -174.841478 
L 394.875616 -174.841478 
L 395.487123 -174.841478 
L 396.09863 -174.841478 
L 396.710137 -174.841478 
L 397.321644 -174.841478 
L 397.933151 -174.841478 
L 398.544658 -174.841478 
L 399.156164 -174.841478 
L 399.767671 -174.841478 
L 400.379178 -174.841478 
L 400.990685 -174.841478 
L 401.602192 -174.841478 
L 402.213699 -174.841478 
L 402.825205 -174.841478 
L 403.436712 -174.841478 
L 404.048219 -174.841478 
L 404.659726 -174.841478 
L 405.271233 -174.841478 
L 405.88274 -174.841478 
L 406.494247 -174.841478 
L 407.105753 -174.841478 
L 407.71726 -174.841478 
L 408.328767 -174.841478 
L 408.940274 -174.841478 
L 409.551781 -174.841478 
L 410.163288 -174.841478 
L 410.774795 -174.841478 
L 411.386301 -174.841478 
L 411.997808 -174.841478 
L 412.609315 -174.841478 
L 413.220822 -174.841478 
L 413.832329 -174.841478 
L 414.443836 -174.841478 
L 415.055342 -174.841478 
L 415.666849 -174.841478 
L 416.278356 -174.841478 
L 416.889863 -174.841478 
L 417.50137 -174.841478 
L 418.112877 -174.841478 
L 418.724384 -174.841478 
L 419.33589 -174.841478 
L 419.947397 -174.841478 
L 420.558904 -174.841478 
L 421.170411 -174.841478 
L 421.781918 -174.841478 
L 422.393425 -174.841478 
L 423.004932 -174.841478 
L 423.616438 -174.841478 
L 424.227945 -174.841478 
L 424.839452 -174.841478 
L 425.450959 -174.841478 
L 426.062466 -174.841478 
L 426.673973 -174.841478 
L 427.285479 -174.841478 
L 427.896986 -174.841478 
L 428.508493 -174.841478 
L 429.12 -174.841478 
L 429.731507 -174.841478 
L 430.343014 -174.841478 
L 430.954521 -174.841478 
L 431.566027 -174.841478 
L 432.177534 -174.841478 
L 432.789041 -174.841478 
L 433.400548 -174.841478 
L 434.012055 -174.841478 
L 434.623562 -174.841478 
L 435.235068 -174.841478 
L 435.846575 -174.841478 
L 436.458082 -174.841478 
L 437.069589 -174.841478 
L 437.681096 -174.841478 
L 438.292603 -174.841478 
L 438.90411 -174.841478 
L 439.515616 -174.841478 
L 440.127123 -174.841478 
L 440.73863 -174.841478 
L 441.350137 -174.841478 
L 441.961644 -174.841478 
L 442.573151 -174.841478 
L 443.184658 -174.841478 
L 443.796164 -174.841478 
L 444.407671 -174.841478 
L 445.019178 -174.841478 
L 445.630685 -174.841478 
L 446.242192 -174.841478 
L 446.853699 -174.841478 
L 447.465205 -174.841478 
L 448.076712 -174.841478 
L 448.688219 -174.841478 
L 449.299726 -174.841478 
L 449.911233 -174.841478 
L 450.52274 -174.841478 
L 451.134247 -174.841478 
L 451.745753 -174.841478 
L 452.35726 -174.841478 
L 452.968767 -174.841478 
L 453.580274 -174.841478 
L 454.191781 -174.841478 
L 454.803288 -174.841478 
L 455.414795 -174.841478 
L 456.026301 -174.841478 
L 456.637808 -174.841478 
L 457.249315 -174.841478 
L 457.860822 -174.841478 
L 458.472329 -174.841478 
L 459.083836 -174.841478 
L 459.695342 -174.841478 
L 460.306849 -174.841478 
L 460.918356 -174.841478 
L 461.529863 -174.841478 
L 462.14137 -174.841478 
L 462.752877 -174.841478 
L 463.364384 -174.841478 
L 463.97589 -174.841478 
L 464.587397 -174.841478 
L 465.198904 -174.841478 
L 465.810411 -174.841478 
L 466.421918 -174.841478 
L 467.033425 -174.841478 
L 467.644932 -174.841478 
L 468.256438 -174.841478 
L 468.867945 -174.841478 
L 469.479452 -174.841478 
L 470.090959 -174.841478 
L 470.702466 -174.841478 
L 471.313973 -174.841478 
L 471.925479 -174.841478 
L 472.536986 -174.841478 
L 473.148493 -174.841478 
L 473.76 -174.841478 
L 474.371507 -174.841478 
L 474.983014 -174.841478 
L 475.594521 -174.841478 
L 476.206027 -174.841478 
L 476.817534 -174.841478 
L 477.429041 -174.841478 
L 478.040548 -174.841478 
L 478.652055 -174.841478 
L 479.263562 -174.841478 
L 479.875068 -174.841478 
L 480.486575 -174.841478 
L 481.098082 -174.841478 
L 481.709589 -174.841478 
L 482.321096 -174.841478 
L 482.932603 -174.841478 
L 483.54411 -174.841478 
L 484.155616 -174.841478 
L 484.767123 -174.841478 
L 485.37863 -174.841478 
L 485.990137 -174.841478 
L 486.601644 -174.841478 
L 487.213151 -174.841478 
L 487.824658 -174.841478 
L 488.436164 -174.841478 
L 489.047671 -174.841478 
L 489.659178 -174.841478 
L 490.270685 -174.841478 
L 490.882192 -174.841478 
L 491.493699 -174.841478 
L 492.105205 -174.841478 
L 492.716712 -174.841478 
L 493.328219 -174.841478 
L 493.939726 -174.841478 
L 494.551233 -174.841478 
L 495.16274 -174.841478 
L 495.774247 -174.841478 
L 496.385753 -174.841478 
L 496.99726 -174.841478 
L 497.608767 -174.841478 
L 498.220274 -174.841478 
L 498.831781 -174.841478 
L 499.443288 -174.841478 
L 500.054795 -174.841478 
L 500.666301 -174.841478 
L 501.277808 -174.841478 
L 501.889315 -174.841478 
L 502.500822 -174.841478 
L 503.112329 -174.841478 
L 503.723836 -174.841478 
L 504.335342 -174.841478 
L 504.946849 -174.841478 
L 505.558356 -174.841478 
L 506.169863 -174.841478 
L 506.78137 -174.841478 
L 507.392877 -174.841478 
L 508.004384 -174.841478 
L 508.61589 -174.841478 
L 509.227397 -174.841478 
L 509.838904 -174.841478 
L 510.450411 -174.841478 
L 511.061918 -174.841478 
L 511.673425 -174.841478 
L 512.284932 -174.841478 
L 512.896438 -174.841478 
L 513.507945 -174.841478 
L 514.119452 -174.841478 
L 514.730959 -174.841478 
L 515.342466 -174.841478 
L 515.953973 -174.841478 
L 516.565479 -174.841478 
L 517.176986 -174.841478 
L 517.788493 -174.841478 
L 518.4 -174.841478 
L 518.4 -168.610528 
L 518.4 -168.610528 
L 517.788493 -168.610528 
L 517.176986 -168.610528 
L 516.565479 -168.610528 
L 515.953973 -168.610528 
L 515.342466 -168.610528 
L 514.730959 -168.610528 
L 514.119452 -168.610528 
L 513.507945 -168.610528 
L 512.896438 -168.610528 
L 512.284932 -168.610528 
L 511.673425 -168.610528 
L 511.061918 -168.610528 
L 510.450411 -168.610528 
L 509.838904 -168.610528 
L 509.227397 -168.610528 
L 508.61589 -168.610528 
L 508.004384 -168.610528 
L 507.392877 -168.610528 
L 506.78137 -168.610528 
L 506.169863 -168.610528 
L 505.558356 -168.610528 
L 504.946849 -168.610528 
L 504.335342 -168.610528 
L 503.723836 -168.610528 
L 503.112329 -168.610528 
L 502.500822 -168.610528 
L 501.889315 -168.610528 
L 501.277808 -168.610528 
L 500.666301 -168.610528 
L 500.054795 -168.610528 
L 499.443288 -168.610528 
L 498.831781 -168.610528 
L 498.220274 -168.610528 
L 497.608767 -168.610528 
L 496.99726 -168.610528 
L 496.385753 -168.610528 
L 495.774247 -168.610528 
L 495.16274 -168.610528 
L 494.551233 -168.610528 
L 493.939726 -168.610528 
L 493.328219 -168.610528 
L 492.716712 -168.610528 
L 492.105205 -168.610528 
L 491.493699 -168.610528 
L 490.882192 -168.610528 
L 490.270685 -168.610528 
L 489.659178 -168.610528 
L 489.047671 -168.610528 
L 488.436164 -168.610528 
L 487.824658 -168.610528 
L 487.213151 -168.610528 
L 486.601644 -168.610528 
L 485.990137 -168.610528 
L 485.37863 -168.610528 
L 484.767123 -168.610528 
L 484.155616 -168.610528 
L 483.54411 -168.610528 
L 482.932603 -168.610528 
L 482.321096 -168.610528 
L 481.709589 -168.610528 
L 481.098082 -168.610528 
L 480.486575 -168.610528 
L 479.875068 -168.610528 
L 479.263562 -168.610528 
L 478.652055 -168.610528 
L 478.040548 -168.610528 
L 477.429041 -168.610528 
L 476.817534 -168.610528 
L 476.206027 -168.610528 
L 475.594521 -168.610528 
L 474.983014 -168.610528 
L 474.371507 -168.610528 
L 473.76 -168.610528 
L 473.148493 -168.610528 
L 472.536986 -168.610528 
L 471.925479 -168.610528 
L 471.313973 -168.610528 
L 470.702466 -168.610528 
L 470.090959 -168.610528 
L 469.479452 -168.610528 
L 468.867945 -168.610528 
L 468.256438 -168.610528 
L 467.644932 -168.610528 
L 467.033425 -168.610528 
L 466.421918 -168.610528 
L 465.810411 -168.610528 
L 465.198904 -168.610528 
L 464.587397 -168.610528 
L 463.97589 -168.610528 
L 463.364384 -168.610528 
L 462.752877 -168.610528 
L 462.14137 -168.610528 
L 461.529863 -168.610528 
L 460.918356 -168.610528 
L 460.306849 -168.610528 
L 459.695342 -168.610528 
L 459.083836 -168.610528 
L 458.472329 -168.610528 
L 457.860822 -168.610528 
L 457.249315 -168.610528 
L 456.637808 -168.610528 
L 456.026301 -168.610528 
L 455.414795 -168.610528 
L 454.803288 -168.610528 
L 454.191781 -168.610528 
L 453.580274 -168.610528 
L 452.968767 -168.610528 
L 452.35726 -168.610528 
L 451.745753 -168.610528 
L 451.134247 -168.610528 
L 450.52274 -168.610528 
L 449.911233 -168.610528 
L 449.299726 -168.610528 
L 448.688219 -168.610528 
L 448.076712 -168.610528 
L 447.465205 -168.610528 
L 446.853699 -168.610528 
L 446.242192 -168.610528 
L 445.630685 -168.610528 
L 445.019178 -168.610528 
L 444.407671 -168.610528 
L 443.796164 -168.610528 
L 443.184658 -168.610528 
L 442.573151 -168.610528 
L 441.961644 -168.610528 
L 441.350137 -168.610528 
L 440.73863 -168.610528 
L 440.127123 -168.610528 
L 439.515616 -168.610528 
L 438.90411 -168.610528 
L 438.292603 -168.610528 
L 437.681096 -168.610528 
L 437.069589 -168.610528 
L 436.458082 -168.610528 
L 435.846575 -168.610528 
L 435.235068 -168.610528 
L 434.623562 -168.610528 
L 434.012055 -168.610528 
L 433.400548 -168.610528 
L 432.789041 -168.610528 
L 432.177534 -168.610528 
L 431.566027 -168.610528 
L 430.954521 -168.610528 
L 430.343014 -168.610528 
L 429.731507 -168.610528 
L 429.12 -168.610528 
L 428.508493 -168.610528 
L 427.896986 -168.610528 
L 427.285479 -168.610528 
L 426.673973 -168.610528 
L 426.062466 -168.610528 
L 425.450959 -168.610528 
L 424.839452 -168.610528 
L 424.227945 -168.610528 
L 423.616438 -168.610528 
L 423.004932 -168.610528 
L 422.393425 -168.610528 
L 421.781918 -168.610528 
L 421.170411 -168.610528 
L 420.558904 -168.610528 
L 419.947397 -168.610528 
L 419.33589 -168.610528 
L 418.724384 -168.610528 
L 418.112877 -168.610528 
L 417.50137 -168.610528 
L 416.889863 -168.610528 
L 416.278356 -168.610528 
L 415.666849 -168.610528 
L 415.055342 -168.610528 
L 414.443836 -168.610528 
L 413.832329 -168.610528 
L 413.220822 -168.610528 
L 412.609315 -168.610528 
L 411.997808 -168.610528 
L 411.386301 -168.610528 
L 410.774795 -168.610528 
L 410.163288 -168.610528 
L 409.551781 -168.610528 
L 408.940274 -168.610528 
L 408.328767 -168.610528 
L 407.71726 -168.610528 
L 407.105753 -168.610528 
L 406.494247 -168.610528 
L 405.88274 -168.610528 
L 405.271233 -168.610528 
L 404.659726 -168.610528 
L 404.048219 -168.610528 
L 403.436712 -168.610528 
L 402.825205 -168.610528 
L 402.213699 -168.610528 
L 401.602192 -168.610528 
L 400.990685 -168.610528 
L 400.379178 -168.610528 
L 399.767671 -168.610528 
L 399.156164 -168.610528 
L 398.544658 -168.610528 
L 397.933151 -168.610528 
L 397.321644 -168.610528 
L 396.710137 -168.610528 
L 396.09863 -168.610528 
L 395.487123 -168.610528 
L 394.875616 -168.610528 
L 394.26411 -168.610528 
L 393.652603 -168.610528 
L 393.041096 -168.610528 
L 392.429589 -168.610528 
L 391.818082 -168.610528 
L 391.206575 -168.610528 
L 390.595068 -168.610528 
L 389.983562 -168.610528 
L 389.372055 -168.610528 
L 388.760548 -168.610528 
L 388.149041 -168.610528 
L 387.537534 -168.610528 
L 386.926027 -168.610528 
L 386.314521 -168.610528 
L 385.703014 -168.610528 
L 385.091507 -168.610528 
L 384.48 -168.610528 
L 383.868493 -168.610528 
L 383.256986 -168.610528 
L 382.645479 -168.610528 
L 382.033973 -168.610528 
L 381.422466 -168.610528 
L 380.810959 -168.610528 
L 380.199452 -168.610528 
L 379.587945 -168.610528 
L 378.976438 -168.610528 
L 378.364932 -168.610528 
L 377.753425 -168.610528 
L 377.141918 -168.610528 
L 376.530411 -168.610528 
L 375.918904 -168.610528 
L 375.307397 -168.610528 
L 374.69589 -168.610528 
L 374.084384 -168.610528 
L 373.472877 -168.610528 
L 372.86137 -168.610528 
L 372.249863 -168.610528 
L 371.638356 -168.610528 
L 371.026849 -168.610528 
L 370.415342 -168.610528 
L 369.803836 -168.610528 
L 369.192329 -168.610528 
L 368.580822 -168.610528 
L 367.969315 -168.610528 
L 367.357808 -168.610528 
L 366.746301 -168.610528 
L 366.134795 -168.610528 
L 365.523288 -168.610528 
L 364.911781 -168.610528 
L 364.300274 -168.610528 
L 363.688767 -168.610528 
L 363.07726 -168.610528 
L 362.465753 -168.610528 
L 361.854247 -168.610528 
L 361.24274 -168.610528 
L 360.631233 -168.610528 
L 360.019726 -168.610528 
L 359.408219 -168.610528 
L 358.796712 -168.610528 
L 358.185205 -168.610528 
L 357.573699 -168.610528 
L 356.962192 -168.610528 
L 356.350685 -168.610528 
L 355.739178 -168.610528 
L 355.127671 -168.610528 
L 354.516164 -168.610528 
L 353.904658 -168.610528 
L 353.293151 -168.610528 
L 352.681644 -168.610528 
L 352.070137 -168.610528 
L 351.45863 -168.610528 
L 350.847123 -168.610528 
L 350.235616 -168.610528 
L 349.62411 -168.610528 
L 349.012603 -168.610528 
L 348.401096 -168.610528 
L 347.789589 -168.610528 
L 347.178082 -168.610528 
L 346.566575 -168.610528 
L 345.955068 -168.610528 
L 345.343562 -168.610528 
L 344.732055 -168.610528 
L 344.120548 -168.610528 
L 343.509041 -168.610528 
L 342.897534 -168.610528 
L 342.286027 -168.610528 
L 341.674521 -168.610528 
L 341.063014 -168.610528 
L 340.451507 -168.610528 
L 339.84 -168.610528 
L 339.228493 -168.610528 
L 338.616986 -168.610528 
L 338.005479 -168.610528 
L 337.393973 -168.610528 
L 336.782466 -168.610528 
L 336.170959 -168.610528 
L 335.559452 -168.610528 
L 334.947945 -168.610528 
L 334.336438 -168.610528 
L 333.724932 -168.610528 
L 333.113425 -168.610528 
L 332.501918 -168.610528 
L 331.890411 -168.610528 
L 331.278904 -168.610528 
L 330.667397 -168.610528 
L 330.05589 -168.610528 
L 329.444384 -168.610528 
L 328.832877 -168.610528 
L 328.22137 -168.610528 
L 327.609863 -168.610528 
L 326.998356 -168.610528 
L 326.386849 -168.610528 
L 325.775342 -168.610528 
L 325.163836 -168.610528 
L 324.552329 -168.610528 
L 323.940822 -168.610528 
L 323.329315 -168.610528 
L 322.717808 -168.610528 
L 322.106301 -168.610528 
L 321.494795 -168.610528 
L 320.883288 -168.610528 
L 320.271781 -168.610528 
L 319.660274 -168.610528 
L 319.048767 -168.610528 
L 318.43726 -168.610528 
L 317.825753 -168.610528 
L 317.214247 -168.610528 
L 316.60274 -168.610528 
L 315.991233 -168.610528 
L 315.379726 -168.610528 
L 314.768219 -168.610528 
L 314.156712 -168.610528 
L 313.545205 -168.610528 
L 312.933699 -168.610528 
L 312.322192 -168.610528 
L 311.710685 -168.610528 
L 311.099178 -168.610528 
L 310.487671 -168.610528 
L 309.876164 -168.610528 
L 309.264658 -168.610528 
L 308.653151 -168.610528 
L 308.041644 -168.610528 
L 307.430137 -168.610528 
L 306.81863 -168.610528 
L 306.207123 -168.610528 
L 305.595616 -168.610528 
L 304.98411 -168.610528 
L 304.372603 -168.610528 
L 303.761096 -168.610528 
L 303.149589 -168.610528 
L 302.538082 -168.610528 
L 301.926575 -168.610528 
L 301.315068 -168.610528 
L 300.703562 -168.610528 
L 300.092055 -168.610528 
L 299.480548 -168.610528 
L 298.869041 -168.610528 
L 298.257534 -168.610528 
L 297.646027 -168.610528 
L 297.034521 -168.610528 
L 296.423014 -168.610528 
L 295.811507 -168.610528 
L 295.2 -168.610528 
L 294.588493 -168.610528 
L 293.976986 -168.610528 
L 293.365479 -168.610528 
L 292.753973 -168.610528 
L 292.142466 -168.610528 
L 291.530959 -168.610528 
L 290.919452 -168.610528 
L 290.307945 -168.610528 
L 289.696438 -168.610528 
L 289.084932 -168.610528 
L 288.473425 -168.610528 
L 287.861918 -168.610528 
L 287.250411 -168.610528 
L 286.638904 -168.610528 
L 286.027397 -168.610528 
L 285.41589 -168.610528 
L 284.804384 -168.610528 
L 284.192877 -168.610528 
L 283.58137 -168.610528 
L 282.969863 -168.610528 
L 282.358356 -168.610528 
L 281.746849 -168.610528 
L 281.135342 -168.610528 
L 280.523836 -168.610528 
L 279.912329 -168.610528 
L 279.300822 -168.610528 
L 278.689315 -168.610528 
L 278.077808 -168.610528 
L 277.466301 -168.610528 
L 276.854795 -168.610528 
L 276.243288 -168.610528 
L 275.631781 -168.610528 
L 275.020274 -168.610528 
L 274.408767 -168.610528 
L 273.79726 -168.610528 
L 273.185753 -168.610528 
L 272.574247 -168.610528 
L 271.96274 -168.610528 
L 271.351233 -168.610528 
L 270.739726 -168.610528 
L 270.128219 -168.610528 
L 269.516712 -168.610528 
L 268.905205 -168.610528 
L 268.293699 -168.610528 
L 267.682192 -168.610528 
L 267.070685 -168.610528 
L 266.459178 -168.610528 
L 265.847671 -168.610528 
L 265.236164 -168.610528 
L 264.624658 -168.610528 
L 264.013151 -168.610528 
L 263.401644 -168.610528 
L 262.790137 -168.610528 
L 262.17863 -168.610528 
L 261.567123 -168.610528 
L 260.955616 -168.610528 
L 260.34411 -168.610528 
L 259.732603 -168.610528 
L 259.121096 -168.610528 
L 258.509589 -168.610528 
L 257.898082 -168.610528 
L 257.286575 -168.610528 
L 256.675068 -168.610528 
L 256.063562 -168.610528 
L 255.452055 -168.610528 
L 254.840548 -168.610528 
L 254.229041 -168.610528 
L 253.617534 -168.610528 
L 253.006027 -168.610528 
L 252.394521 -168.610528 
L 251.783014 -168.610528 
L 251.171507 -168.610528 
L 250.56 -168.610528 
L 249.948493 -168.610528 
L 249.336986 -168.610528 
L 248.725479 -168.610528 
L 248.113973 -168.610528 
L 247.502466 -168.610528 
L 246.890959 -168.610528 
L 246.279452 -168.610528 
L 245.667945 -168.610528 
L 245.056438 -168.610528 
L 244.444932 -168.610528 
L 243.833425 -168.610528 
L 243.221918 -168.610528 
L 242.610411 -168.610528 
L 241.998904 -168.610528 
L 241.387397 -168.610528 
L 240.77589 -168.610528 
L 240.164384 -168.610528 
L 239.552877 -168.610528 
L 238.94137 -168.610528 
L 238.329863 -168.610528 
L 237.718356 -168.610528 
L 237.106849 -168.610528 
L 236.495342 -168.610528 
L 235.883836 -168.610528 
L 235.272329 -168.610528 
L 234.660822 -168.610528 
L 234.049315 -168.610528 
L 233.437808 -168.610528 
L 232.826301 -168.610528 
L 232.214795 -168.610528 
L 231.603288 -168.610528 
L 230.991781 -168.610528 
L 230.380274 -168.610528 
L 229.768767 -168.610528 
L 229.15726 -168.610528 
L 228.545753 -168.610528 
L 227.934247 -168.610528 
L 227.32274 -168.610528 
L 226.711233 -168.610528 
L 226.099726 -168.610528 
L 225.488219 -168.610528 
L 224.876712 -168.610528 
L 224.265205 -168.610528 
L 223.653699 -168.610528 
L 223.042192 -168.610528 
L 222.430685 -168.610528 
L 221.819178 -168.610528 
L 221.207671 -168.610528 
L 220.596164 -168.610528 
L 219.984658 -168.610528 
L 219.373151 -168.610528 
L 218.761644 -168.610528 
L 218.150137 -168.610528 
L 217.53863 -168.610528 
L 216.927123 -168.610528 
L 216.315616 -168.610528 
L 215.70411 -168.610528 
L 215.092603 -168.610528 
L 214.481096 -168.610528 
L 213.869589 -168.610528 
L 213.258082 -168.610528 
L 212.646575 -168.610528 
L 212.035068 -168.610528 
L 211.423562 -168.610528 
L 210.812055 -168.610528 
L 210.200548 -168.610528 
L 209.589041 -168.610528 
L 208.977534 -168.610528 
L 208.366027 -168.610528 
L 207.754521 -168.610528 
L 207.143014 -168.610528 
L 206.531507 -168.610528 
L 205.92 -168.610528 
L 205.308493 -168.610528 
L 204.696986 -168.610528 
L 204.085479 -168.610528 
L 203.473973 -168.610528 
L 202.862466 -168.610528 
L 202.250959 -168.610528 
L 201.639452 -168.610528 
L 201.027945 -168.610528 
L 200.416438 -168.610528 
L 199.804932 -168.610528 
L 199.193425 -168.610528 
L 198.581918 -168.610528 
L 197.970411 -168.610528 
L 197.358904 -168.610528 
L 196.747397 -168.610528 
L 196.13589 -168.610528 
L 195.524384 -168.610528 
L 194.912877 -168.610528 
L 194.30137 -168.610528 
L 193.689863 -168.610528 
L 193.078356 -168.610528 
L 192.466849 -168.610528 
L 191.855342 -168.610528 
L 191.243836 -168.610528 
L 190.632329 -168.610528 
L 190.020822 -168.610528 
L 189.409315 -168.610528 
L 188.797808 -168.610528 
L 188.186301 -168.610528 
L 187.574795 -168.610528 
L 186.963288 -168.610528 
L 186.351781 -168.610528 
L 185.740274 -168.610528 
L 185.128767 -168.610528 
L 184.51726 -168.610528 
L 183.905753 -168.610528 
L 183.294247 -168.610528 
L 182.68274 -168.610528 
L 182.071233 -168.610528 
L 181.459726 -168.610528 
L 180.848219 -168.610528 
L 180.236712 -168.610528 
L 179.625205 -168.610528 
L 179.013699 -168.610528 
L 178.402192 -168.610528 
L 177.790685 -168.610528 
L 177.179178 -168.610528 
L 176.567671 -168.610528 
L 175.956164 -168.610528 
L 175.344658 -168.610528 
L 174.733151 -168.610528 
L 174.121644 -168.610528 
L 173.510137 -168.610528 
L 172.89863 -168.610528 
L 172.287123 -168.610528 
L 171.675616 -168.610528 
L 171.06411 -168.610528 
L 170.452603 -168.610528 
L 169.841096 -168.610528 
L 169.229589 -168.610528 
L 168.618082 -168.610528 
L 168.006575 -168.610528 
L 167.395068 -168.610528 
L 166.783562 -168.610528 
L 166.172055 -168.610528 
L 165.560548 -168.610528 
L 164.949041 -168.610528 
L 164.337534 -168.610528 
L 163.726027 -168.610528 
L 163.114521 -168.610528 
L 162.503014 -168.610528 
L 161.891507 -168.610528 
L 161.28 -168.610528 
L 160.668493 -168.610528 
L 160.056986 -168.610528 
L 159.445479 -168.610528 
L 158.833973 -168.610528 
L 158.222466 -168.610528 
L 157.610959 -168.610528 
L 156.999452 -168.610528 
L 156.387945 -168.610528 
L 155.776438 -168.610528 
L 155.164932 -168.610528 
L 154.553425 -168.610528 
L 153.941918 -168.610528 
L 153.330411 -168.610528 
L 152.718904 -168.610528 
L 152.107397 -168.610528 
L 151.49589 -168.610528 
L 150.884384 -168.610528 
L 150.272877 -168.610528 
L 149.66137 -168.610528 
L 149.049863 -168.610528 
L 148.438356 -168.610528 
L 147.826849 -168.610528 
L 147.215342 -168.610528 
L 146.603836 -168.610528 
L 145.992329 -168.610528 
L 145.380822 -168.610528 
L 144.769315 -168.610528 
L 144.157808 -168.610528 
L 143.546301 -168.610528 
L 142.934795 -168.610528 
L 142.323288 -168.610528 
L 141.711781 -168.610528 
L 141.100274 -168.610528 
L 140.488767 -168.610528 
L 139.87726 -168.610528 
L 139.265753 -168.610528 
L 138.654247 -168.610528 
L 138.04274 -168.610528 
L 137.431233 -168.610528 
L 136.819726 -168.610528 
L 136.208219 -168.610528 
L 135.596712 -168.610528 
L 134.985205 -168.610528 
L 134.373699 -168.610528 
L 133.762192 -168.610528 
L 133.150685 -168.610528 
L 132.539178 -168.610528 
L 131.927671 -168.610528 
L 131.316164 -168.610528 
L 130.704658 -168.610528 
L 130.093151 -168.610528 
L 129.481644 -168.610528 
L 128.870137 -168.610528 
L 128.25863 -168.610528 
L 127.647123 -168.610528 
L 127.035616 -168.610528 
L 126.42411 -168.610528 
L 125.812603 -168.610528 
L 125.201096 -168.610528 
L 124.589589 -168.610528 
L 123.978082 -168.610528 
L 123.366575 -168.610528 
L 122.755068 -168.610528 
L 122.143562 -168.610528 
L 121.532055 -168.610528 
L 120.920548 -168.610528 
L 120.309041 -168.610528 
L 119.697534 -168.610528 
L 119.086027 -168.610528 
L 118.474521 -168.610528 
L 117.863014 -168.610528 
L 117.251507 -168.610528 
L 116.64 -168.610528 
L 116.028493 -168.610528 
L 115.416986 -168.610528 
L 114.805479 -168.610528 
L 114.193973 -168.610528 
L 113.582466 -168.610528 
L 112.970959 -168.610528 
L 112.359452 -168.610528 
L 111.747945 -168.610528 
L 111.136438 -168.610528 
L 110.524932 -168.610528 
L 109.913425 -168.610528 
L 109.301918 -168.610528 
L 108.690411 -168.610528 
L 108.078904 -168.610528 
L 107.467397 -168.610528 
L 106.85589 -168.610528 
L 106.244384 -168.610528 
L 105.632877 -168.610528 
L 105.02137 -168.610528 
L 104.409863 -168.610528 
L 103.798356 -168.610528 
L 103.186849 -168.610528 
L 102.575342 -168.610528 
L 101.963836 -168.610528 
L 101.352329 -168.610528 
L 100.740822 -168.610528 
L 100.129315 -168.610528 
L 99.517808 -168.610528 
L 98.906301 -168.610528 
L 98.294795 -168.610528 
L 97.683288 -168.610528 
L 97.071781 -168.610528 
L 96.460274 -168.610528 
L 95.848767 -168.610528 
L 95.23726 -168.610528 
L 94.625753 -168.610528 
L 94.014247 -168.610528 
L 93.40274 -168.610528 
L 92.791233 -168.610528 
L 92.179726 -168.610528 
L 91.568219 -168.610528 
L 90.956712 -168.610528 
L 90.345205 -168.610528 
L 89.733699 -168.610528 
L 89.122192 -168.610528 
L 88.510685 -168.610528 
L 87.899178 -168.610528 
L 87.287671 -168.610528 
L 86.676164 -168.610528 
L 86.064658 -168.610528 
L 85.453151 -168.610528 
L 84.841644 -168.610528 
L 84.230137 -168.610528 
L 83.61863 -168.610528 
L 83.007123 -168.610528 
L 82.395616 -168.610528 
L 81.78411 -168.610528 
L 81.172603 -168.610528 
L 80.561096 -168.610528 
L 79.949589 -168.610528 
L 79.338082 -168.610528 
L 78.726575 -168.610528 
L 78.115068 -168.610528 
L 77.503562 -168.610528 
L 76.892055 -168.610528 
L 76.280548 -168.610528 
L 75.669041 -168.610528 
L 75.057534 -168.610528 
L 74.446027 -168.610528 
L 73.834521 -168.610528 
L 73.223014 -168.610528 
L 72.611507 -168.610528 
L 72 -168.610528 
z
" id="m607396f539"/>
    </defs>
    <g clip-path="url(#p5b26c19a58)">
     <use style="fill-opacity:0.15;" x="0" xlink:href="#m607396f539" y="360"/>
    </g>
   </g>
   <g id="matplotlib.axis_1">
    <g id="xtick_1">
     <g id="line2d_1">
      <defs>
       <path d="M 0 0 
L 0 3.5 
" id="m92ce312e5b" style="stroke:#000000;stroke-width:0.8;"/>
      </defs>
      <g>
       <use style="stroke:#000000;stroke-width:0.8;" x="72" xlink:href="#m92ce312e5b" y="320.4"/>
      </g>
     </g>
     <g id="text_1">
      <!-- 0.0 -->
      <g transform="translate(60.867812 338.037813)scale(0.14 -0.14)">
       <defs>
        <path d="M 2034 4250 
Q 1547 4250 1301 3770 
Q 1056 3291 1056 2328 
Q 1056 1369 1301 889 
Q 1547 409 2034 409 
Q 2525 409 2770 889 
Q 3016 1369 3016 2328 
Q 3016 3291 2770 3770 
Q 2525 4250 2034 4250 
z
M 2034 4750 
Q 2819 4750 3233 4129 
Q 3647 3509 3647 2328 
Q 3647 1150 3233 529 
Q 2819 -91 2034 -91 
Q 1250 -91 836 529 
Q 422 1150 422 2328 
Q 422 3509 836 4129 
Q 1250 4750 2034 4750 
z
" id="DejaVuSans-30" transform="scale(0.015625)"/>
        <path d="M 684 794 
L 1344 794 
L 1344 0 
L 684 0 
L 684 794 
z
" id="DejaVuSans-2e" transform="scale(0.015625)"/>
       </defs>
       <use xlink:href="#DejaVuSans-30"/>
       <use x="63.623047" xlink:href="#DejaVuSans-2e"/>
       <use x="95.410156" xlink:href="#DejaVuSans-30"/>
      </g>
     </g>
    </g>
    <g id="xtick_2">
     <g id="line2d_2">
      <g>
       <use style="stroke:#000000;stroke-width:0.8;" x="127.861448" xlink:href="#m92ce312e5b" y="320.4"/>
      </g>
     </g>
     <g id="text_2">
      <!-- 2.5 -->
      <g transform="translate(116.72926 338.037813)scale(0.14 -0.14)">
       <defs>
        <path d="M 1228 531 
L 3431 531 
L 3431 0 
L 469 0 
L 469 531 
Q 828 903 1448 1529 
Q 2069 2156 2228 2338 
Q 2531 2678 2651 2914 
Q 2772 3150 2772 3378 
Q 2772 3750 2511 3984 
Q 2250 4219 1831 4219 
Q 1534 4219 1204 4116 
Q 875 4013 500 3803 
L 500 4441 
Q 881 4594 1212 4672 
Q 1544 4750 1819 4750 
Q 2544 4750 2975 4387 
Q 3406 4025 3406 3419 
Q 3406 3131 3298 2873 
Q 3191 2616 2906 2266 
Q 2828 2175 2409 1742 
Q 1991 1309 1228 531 
z
" id="DejaVuSans-32" transform="scale(0.015625)"/>
        <path d="M 691 4666 
L 3169 4666 
L 3169 4134 
L 1269 4134 
L 1269 2991 
Q 1406 3038 1543 3061 
Q 1681 3084 1819 3084 
Q 2600 3084 3056 2656 
Q 3513 2228 3513 1497 
Q 3513 744 3044 326 
Q 2575 -91 1722 -91 
Q 1428 -91 1123 -41 
Q 819 9 494 109 
L 494 744 
Q 775 591 1075 516 
Q 1375 441 1709 441 
Q 2250 441 2565 725 
Q 2881 1009 2881 1497 
Q 2881 1984 2565 2268 
Q 2250 2553 1709 2553 
Q 1456 2553 1204 2497 
Q 953 2441 691 2322 
L 691 4666 
z
" id="DejaVuSans-35" transform="scale(0.015625)"/>
       </defs>
       <use xlink:href="#DejaVuSans-32"/>
       <use x="63.623047" xlink:href="#DejaVuSans-2e"/>
       <use x="95.410156" xlink:href="#DejaVuSans-35"/>
      </g>
     </g>
    </g>
    <g id="xtick_3">
     <g id="line2d_3">
      <g>
       <use style="stroke:#000000;stroke-width:0.8;" x="183.722895" xlink:href="#m92ce312e5b" y="320.4"/>
      </g>
     </g>
     <g id="text_3">
      <!-- 5.0 -->
      <g transform="translate(172.590708 338.037813)scale(0.14 -0.14)">
       <use xlink:href="#DejaVuSans-35"/>
       <use x="63.623047" xlink:href="#DejaVuSans-2e"/>
       <use x="95.410156" xlink:href="#DejaVuSans-30"/>
      </g>
     </g>
    </g>
    <g id="xtick_4">
     <g id="line2d_4">
      <g>
       <use style="stroke:#000000;stroke-width:0.8;" x="239.584343" xlink:href="#m92ce312e5b" y="320.4"/>
      </g>
     </g>
     <g id="text_4">
      <!-- 7.5 -->
      <g transform="translate(228.452155 338.037813)scale(0.14 -0.14)">
       <defs>
        <path d="M 525 4666 
L 3525 4666 
L 3525 4397 
L 1831 0 
L 1172 0 
L 2766 4134 
L 525 4134 
L 525 4666 
z
" id="DejaVuSans-37" transform="scale(0.015625)"/>
       </defs>
       <use xlink:href="#DejaVuSans-37"/>
       <use x="63.623047" xlink:href="#DejaVuSans-2e"/>
       <use x="95.410156" xlink:href="#DejaVuSans-35"/>
      </g>
     </g>
    </g>
    <g id="xtick_5">
     <g id="line2d_5">
      <g>
       <use style="stroke:#000000;stroke-width:0.8;" x="295.44579" xlink:href="#m92ce312e5b" y="320.4"/>
      </g>
     </g>
     <g id="text_5">
      <!-- 10.0 -->
      <g transform="translate(279.859853 338.037813)scale(0.14 -0.14)">
       <defs>
        <path d="M 794 531 
L 1825 531 
L 1825 4091 
L 703 3866 
L 703 4441 
L 1819 4666 
L 2450 4666 
L 2450 531 
L 3481 531 
L 3481 0 
L 794 0 
L 794 531 
z
" id="DejaVuSans-31" transform="scale(0.015625)"/>
       </defs>
       <use xlink:href="#DejaVuSans-31"/>
       <use x="63.623047" xlink:href="#DejaVuSans-30"/>
       <use x="127.246094" xlink:href="#DejaVuSans-2e"/>
       <use x="159.033203" xlink:href="#DejaVuSans-30"/>
      </g>
     </g>
    </g>
    <g id="xtick_6">
     <g id="line2d_6">
      <g>
       <use style="stroke:#000000;stroke-width:0.8;" x="351.307238" xlink:href="#m92ce312e5b" y="320.4"/>
      </g>
     </g>
     <g id="text_6">
      <!-- 12.5 -->
      <g transform="translate(335.7213 338.037813)scale(0.14 -0.14)">
       <use xlink:href="#DejaVuSans-31"/>
       <use x="63.623047" xlink:href="#DejaVuSans-32"/>
       <use x="127.246094" xlink:href="#DejaVuSans-2e"/>
       <use x="159.033203" xlink:href="#DejaVuSans-35"/>
      </g>
     </g>
    </g>
    <g id="xtick_7">
     <g id="line2d_7">
      <g>
       <use style="stroke:#000000;stroke-width:0.8;" x="407.168686" xlink:href="#m92ce312e5b" y="320.4"/>
      </g>
     </g>
     <g id="text_7">
      <!-- 15.0 -->
      <g transform="translate(391.582748 338.037813)scale(0.14 -0.14)">
       <use xlink:href="#DejaVuSans-31"/>
       <use x="63.623047" xlink:href="#DejaVuSans-35"/>
       <use x="127.246094" xlink:href="#DejaVuSans-2e"/>
       <use x="159.033203" xlink:href="#DejaVuSans-30"/>
      </g>
     </g>
    </g>
    <g id="xtick_8">
     <g id="line2d_8">
      <g>
       <use style="stroke:#000000;stroke-width:0.8;" x="463.030133" xlink:href="#m92ce312e5b" y="320.4"/>
      </g>
     </g>
     <g id="text_8">
      <!-- 17.5 -->
      <g transform="translate(447.444196 338.037813)scale(0.14 -0.14)">
       <use xlink:href="#DejaVuSans-31"/>
       <use x="63.623047" xlink:href="#DejaVuSans-37"/>
       <use x="127.246094" xlink:href="#DejaVuSans-2e"/>
       <use x="159.033203" xlink:href="#DejaVuSans-35"/>
      </g>
     </g>
    </g>
    <g id="text_9">
     <!-- Time [Seconds] -->
     <g transform="translate(233.23 357.106875)scale(0.16 -0.16)">
      <defs>
       <path d="M -19 4666 
L 3928 4666 
L 3928 4134 
L 2272 4134 
L 2272 0 
L 1638 0 
L 1638 4134 
L -19 4134 
L -19 4666 
z
" id="DejaVuSans-54" transform="scale(0.015625)"/>
       <path d="M 603 3500 
L 1178 3500 
L 1178 0 
L 603 0 
L 603 3500 
z
M 603 4863 
L 1178 4863 
L 1178 4134 
L 603 4134 
L 603 4863 
z
" id="DejaVuSans-69" transform="scale(0.015625)"/>
       <path d="M 3328 2828 
Q 3544 3216 3844 3400 
Q 4144 3584 4550 3584 
Q 5097 3584 5394 3201 
Q 5691 2819 5691 2113 
L 5691 0 
L 5113 0 
L 5113 2094 
Q 5113 2597 4934 2840 
Q 4756 3084 4391 3084 
Q 3944 3084 3684 2787 
Q 3425 2491 3425 1978 
L 3425 0 
L 2847 0 
L 2847 2094 
Q 2847 2600 2669 2842 
Q 2491 3084 2119 3084 
Q 1678 3084 1418 2786 
Q 1159 2488 1159 1978 
L 1159 0 
L 581 0 
L 581 3500 
L 1159 3500 
L 1159 2956 
Q 1356 3278 1631 3431 
Q 1906 3584 2284 3584 
Q 2666 3584 2933 3390 
Q 3200 3197 3328 2828 
z
" id="DejaVuSans-6d" transform="scale(0.015625)"/>
       <path d="M 3597 1894 
L 3597 1613 
L 953 1613 
Q 991 1019 1311 708 
Q 1631 397 2203 397 
Q 2534 397 2845 478 
Q 3156 559 3463 722 
L 3463 178 
Q 3153 47 2828 -22 
Q 2503 -91 2169 -91 
Q 1331 -91 842 396 
Q 353 884 353 1716 
Q 353 2575 817 3079 
Q 1281 3584 2069 3584 
Q 2775 3584 3186 3129 
Q 3597 2675 3597 1894 
z
M 3022 2063 
Q 3016 2534 2758 2815 
Q 2500 3097 2075 3097 
Q 1594 3097 1305 2825 
Q 1016 2553 972 2059 
L 3022 2063 
z
" id="DejaVuSans-65" transform="scale(0.015625)"/>
       <path id="DejaVuSans-20" transform="scale(0.015625)"/>
       <path d="M 550 4863 
L 1875 4863 
L 1875 4416 
L 1125 4416 
L 1125 -397 
L 1875 -397 
L 1875 -844 
L 550 -844 
L 550 4863 
z
" id="DejaVuSans-5b" transform="scale(0.015625)"/>
       <path d="M 3425 4513 
L 3425 3897 
Q 3066 4069 2747 4153 
Q 2428 4238 2131 4238 
Q 1616 4238 1336 4038 
Q 1056 3838 1056 3469 
Q 1056 3159 1242 3001 
Q 1428 2844 1947 2747 
L 2328 2669 
Q 3034 2534 3370 2195 
Q 3706 1856 3706 1288 
Q 3706 609 3251 259 
Q 2797 -91 1919 -91 
Q 1588 -91 1214 -16 
Q 841 59 441 206 
L 441 856 
Q 825 641 1194 531 
Q 1563 422 1919 422 
Q 2459 422 2753 634 
Q 3047 847 3047 1241 
Q 3047 1584 2836 1778 
Q 2625 1972 2144 2069 
L 1759 2144 
Q 1053 2284 737 2584 
Q 422 2884 422 3419 
Q 422 4038 858 4394 
Q 1294 4750 2059 4750 
Q 2388 4750 2728 4690 
Q 3069 4631 3425 4513 
z
" id="DejaVuSans-53" transform="scale(0.015625)"/>
       <path d="M 3122 3366 
L 3122 2828 
Q 2878 2963 2633 3030 
Q 2388 3097 2138 3097 
Q 1578 3097 1268 2742 
Q 959 2388 959 1747 
Q 959 1106 1268 751 
Q 1578 397 2138 397 
Q 2388 397 2633 464 
Q 2878 531 3122 666 
L 3122 134 
Q 2881 22 2623 -34 
Q 2366 -91 2075 -91 
Q 1284 -91 818 406 
Q 353 903 353 1747 
Q 353 2603 823 3093 
Q 1294 3584 2113 3584 
Q 2378 3584 2631 3529 
Q 2884 3475 3122 3366 
z
" id="DejaVuSans-63" transform="scale(0.015625)"/>
       <path d="M 1959 3097 
Q 1497 3097 1228 2736 
Q 959 2375 959 1747 
Q 959 1119 1226 758 
Q 1494 397 1959 397 
Q 2419 397 2687 759 
Q 2956 1122 2956 1747 
Q 2956 2369 2687 2733 
Q 2419 3097 1959 3097 
z
M 1959 3584 
Q 2709 3584 3137 3096 
Q 3566 2609 3566 1747 
Q 3566 888 3137 398 
Q 2709 -91 1959 -91 
Q 1206 -91 779 398 
Q 353 888 353 1747 
Q 353 2609 779 3096 
Q 1206 3584 1959 3584 
z
" id="DejaVuSans-6f" transform="scale(0.015625)"/>
       <path d="M 3513 2113 
L 3513 0 
L 2938 0 
L 2938 2094 
Q 2938 2591 2744 2837 
Q 2550 3084 2163 3084 
Q 1697 3084 1428 2787 
Q 1159 2491 1159 1978 
L 1159 0 
L 581 0 
L 581 3500 
L 1159 3500 
L 1159 2956 
Q 1366 3272 1645 3428 
Q 1925 3584 2291 3584 
Q 2894 3584 3203 3211 
Q 3513 2838 3513 2113 
z
" id="DejaVuSans-6e" transform="scale(0.015625)"/>
       <path d="M 2906 2969 
L 2906 4863 
L 3481 4863 
L 3481 0 
L 2906 0 
L 2906 525 
Q 2725 213 2448 61 
Q 2172 -91 1784 -91 
Q 1150 -91 751 415 
Q 353 922 353 1747 
Q 353 2572 751 3078 
Q 1150 3584 1784 3584 
Q 2172 3584 2448 3432 
Q 2725 3281 2906 2969 
z
M 947 1747 
Q 947 1113 1208 752 
Q 1469 391 1925 391 
Q 2381 391 2643 752 
Q 2906 1113 2906 1747 
Q 2906 2381 2643 2742 
Q 2381 3103 1925 3103 
Q 1469 3103 1208 2742 
Q 947 2381 947 1747 
z
" id="DejaVuSans-64" transform="scale(0.015625)"/>
       <path d="M 2834 3397 
L 2834 2853 
Q 2591 2978 2328 3040 
Q 2066 3103 1784 3103 
Q 1356 3103 1142 2972 
Q 928 2841 928 2578 
Q 928 2378 1081 2264 
Q 1234 2150 1697 2047 
L 1894 2003 
Q 2506 1872 2764 1633 
Q 3022 1394 3022 966 
Q 3022 478 2636 193 
Q 2250 -91 1575 -91 
Q 1294 -91 989 -36 
Q 684 19 347 128 
L 347 722 
Q 666 556 975 473 
Q 1284 391 1588 391 
Q 1994 391 2212 530 
Q 2431 669 2431 922 
Q 2431 1156 2273 1281 
Q 2116 1406 1581 1522 
L 1381 1569 
Q 847 1681 609 1914 
Q 372 2147 372 2553 
Q 372 3047 722 3315 
Q 1072 3584 1716 3584 
Q 2034 3584 2315 3537 
Q 2597 3491 2834 3397 
z
" id="DejaVuSans-73" transform="scale(0.015625)"/>
       <path d="M 1947 4863 
L 1947 -844 
L 622 -844 
L 622 -397 
L 1369 -397 
L 1369 4416 
L 622 4416 
L 622 4863 
L 1947 4863 
z
" id="DejaVuSans-5d" transform="scale(0.015625)"/>
      </defs>
      <use xlink:href="#DejaVuSans-54"/>
      <use x="57.958984" xlink:href="#DejaVuSans-69"/>
      <use x="85.742188" xlink:href="#DejaVuSans-6d"/>
      <use x="183.154297" xlink:href="#DejaVuSans-65"/>
      <use x="244.677734" xlink:href="#DejaVuSans-20"/>
      <use x="276.464844" xlink:href="#DejaVuSans-5b"/>
      <use x="315.478516" xlink:href="#DejaVuSans-53"/>
      <use x="378.955078" xlink:href="#DejaVuSans-65"/>
      <use x="440.478516" xlink:href="#DejaVuSans-63"/>
      <use x="495.458984" xlink:href="#DejaVuSans-6f"/>
      <use x="556.640625" xlink:href="#DejaVuSans-6e"/>
      <use x="620.019531" xlink:href="#DejaVuSans-64"/>
      <use x="683.496094" xlink:href="#DejaVuSans-73"/>
      <use x="735.595703" xlink:href="#DejaVuSans-5d"/>
     </g>
    </g>
   </g>
   <g id="matplotlib.axis_2">
    <g id="ytick_1">
     <g id="line2d_9">
      <defs>
       <path d="M 0 0 
L -3.5 0 
" id="m624c650806" style="stroke:#000000;stroke-width:0.8;"/>
      </defs>
      <g>
       <use style="stroke:#000000;stroke-width:0.8;" x="72" xlink:href="#m624c650806" y="281.473568"/>
      </g>
     </g>
     <g id="text_10">
      <!-- 0.0 -->
      <g transform="translate(42.735625 286.792474)scale(0.14 -0.14)">
       <use xlink:href="#DejaVuSans-30"/>
       <use x="63.623047" xlink:href="#DejaVuSans-2e"/>
       <use x="95.410156" xlink:href="#DejaVuSans-30"/>
      </g>
     </g>
    </g>
    <g id="ytick_2">
     <g id="line2d_10">
      <g>
       <use style="stroke:#000000;stroke-width:0.8;" x="72" xlink:href="#m624c650806" y="226.699679"/>
      </g>
     </g>
     <g id="text_11">
      <!-- 0.5 -->
      <g transform="translate(42.735625 232.018585)scale(0.14 -0.14)">
       <use xlink:href="#DejaVuSans-30"/>
       <use x="63.623047" xlink:href="#DejaVuSans-2e"/>
       <use x="95.410156" xlink:href="#DejaVuSans-35"/>
      </g>
     </g>
    </g>
    <g id="ytick_3">
     <g id="line2d_11">
      <g>
       <use style="stroke:#000000;stroke-width:0.8;" x="72" xlink:href="#m624c650806" y="171.92579"/>
      </g>
     </g>
     <g id="text_12">
      <!-- 1.0 -->
      <g transform="translate(42.735625 177.244696)scale(0.14 -0.14)">
       <use xlink:href="#DejaVuSans-31"/>
       <use x="63.623047" xlink:href="#DejaVuSans-2e"/>
       <use x="95.410156" xlink:href="#DejaVuSans-30"/>
      </g>
     </g>
    </g>
    <g id="ytick_4">
     <g id="line2d_12">
      <g>
       <use style="stroke:#000000;stroke-width:0.8;" x="72" xlink:href="#m624c650806" y="117.151901"/>
      </g>
     </g>
     <g id="text_13">
      <!-- 1.5 -->
      <g transform="translate(42.735625 122.470807)scale(0.14 -0.14)">
       <use xlink:href="#DejaVuSans-31"/>
       <use x="63.623047" xlink:href="#DejaVuSans-2e"/>
       <use x="95.410156" xlink:href="#DejaVuSans-35"/>
      </g>
     </g>
    </g>
    <g id="ytick_5">
     <g id="line2d_13">
      <g>
       <use style="stroke:#000000;stroke-width:0.8;" x="72" xlink:href="#m624c650806" y="62.378012"/>
      </g>
     </g>
     <g id="text_14">
      <!-- 2.0 -->
      <g transform="translate(42.735625 67.696918)scale(0.14 -0.14)">
       <use xlink:href="#DejaVuSans-32"/>
       <use x="63.623047" xlink:href="#DejaVuSans-2e"/>
       <use x="95.410156" xlink:href="#DejaVuSans-30"/>
      </g>
     </g>
    </g>
    <g id="text_15">
     <!-- Speed [mm/s] -->
     <g transform="translate(35.408125 238.11375)rotate(-90)scale(0.16 -0.16)">
      <defs>
       <path d="M 1159 525 
L 1159 -1331 
L 581 -1331 
L 581 3500 
L 1159 3500 
L 1159 2969 
Q 1341 3281 1617 3432 
Q 1894 3584 2278 3584 
Q 2916 3584 3314 3078 
Q 3713 2572 3713 1747 
Q 3713 922 3314 415 
Q 2916 -91 2278 -91 
Q 1894 -91 1617 61 
Q 1341 213 1159 525 
z
M 3116 1747 
Q 3116 2381 2855 2742 
Q 2594 3103 2138 3103 
Q 1681 3103 1420 2742 
Q 1159 2381 1159 1747 
Q 1159 1113 1420 752 
Q 1681 391 2138 391 
Q 2594 391 2855 752 
Q 3116 1113 3116 1747 
z
" id="DejaVuSans-70" transform="scale(0.015625)"/>
       <path d="M 1625 4666 
L 2156 4666 
L 531 -594 
L 0 -594 
L 1625 4666 
z
" id="DejaVuSans-2f" transform="scale(0.015625)"/>
      </defs>
      <use xlink:href="#DejaVuSans-53"/>
      <use x="63.476562" xlink:href="#DejaVuSans-70"/>
      <use x="126.953125" xlink:href="#DejaVuSans-65"/>
      <use x="188.476562" xlink:href="#DejaVuSans-65"/>
      <use x="250" xlink:href="#DejaVuSans-64"/>
      <use x="313.476562" xlink:href="#DejaVuSans-20"/>
      <use x="345.263672" xlink:href="#DejaVuSans-5b"/>
      <use x="384.277344" xlink:href="#DejaVuSans-6d"/>
      <use x="481.689453" xlink:href="#DejaVuSans-6d"/>
      <use x="579.101562" xlink:href="#DejaVuSans-2f"/>
      <use x="612.792969" xlink:href="#DejaVuSans-73"/>
      <use x="664.892578" xlink:href="#DejaVuSans-5d"/>
     </g>
    </g>
   </g>
   <g id="line2d_14">
    <path clip-path="url(#p5b26c19a58)" d="M 72 188.273997 
L 518.4 188.273997 
" style="fill:none;stroke:#000000;stroke-dasharray:5.55,2.4;stroke-dashoffset:0;stroke-width:1.5;"/>
   </g>
   <g id="line2d_15">
    <path clip-path="url(#p5b26c19a58)" d="M 72 280.296479 
L 122.143562 280.21923 
L 122.755068 280.626582 
L 123.978082 277.299806 
L 124.589589 278.844128 
L 125.201096 280.876879 
L 125.812603 281.427533 
L 126.42411 281.458053 
L 127.035616 279.256327 
L 127.647123 289.536165 
L 128.25863 269.161522 
L 128.870137 256.884156 
L 129.481644 283.886877 
L 130.093151 295.055879 
L 130.704658 303.850737 
L 131.316164 307.8 
L 131.927671 304.585869 
L 132.539178 295.692225 
L 133.150685 281.95859 
L 133.762192 264.261822 
L 134.985205 218.834595 
L 137.431233 121.345422 
L 138.654247 83.188608 
L 139.265753 70.450316 
L 139.87726 60.973026 
L 140.488767 56.023892 
L 141.100274 55.8 
L 141.711781 57.652807 
L 142.323288 62.819463 
L 142.934795 71.691151 
L 144.157808 101.404661 
L 146.603836 168.551432 
L 147.215342 182.181751 
L 147.826849 190.187917 
L 148.438356 194.293477 
L 149.049863 192.536386 
L 149.66137 185.162999 
L 150.272877 152.857809 
L 150.884384 151.635769 
L 151.49589 172.445603 
L 152.107397 167.218162 
L 152.718904 170.614155 
L 153.330411 171.633162 
L 153.941918 173.876907 
L 154.553425 178.096887 
L 155.164932 179.543567 
L 155.776438 181.729037 
L 156.387945 181.445689 
L 156.999452 181.931429 
L 157.610959 185.834773 
L 158.222466 186.046515 
L 158.833973 186.060147 
L 160.056986 188.836425 
L 160.668493 189.651918 
L 161.28 188.630422 
L 161.891507 188.617088 
L 162.503014 190.011786 
L 163.114521 187.667209 
L 163.726027 184.82156 
L 164.337534 184.364628 
L 165.560548 185.270341 
L 166.172055 183.802756 
L 166.783562 183.381663 
L 167.395068 181.711913 
L 168.006575 180.885677 
L 168.618082 183.911943 
L 169.229589 186.049944 
L 169.841096 186.681879 
L 170.452603 186.348378 
L 171.06411 187.472434 
L 171.675616 187.858089 
L 172.287123 188.995482 
L 172.89863 188.40374 
L 173.510137 186.87598 
L 174.121644 188.804154 
L 174.733151 189.30194 
L 175.344658 189.039145 
L 176.567671 192.734838 
L 177.790685 188.835979 
L 178.402192 184.601953 
L 179.013699 183.672443 
L 179.625205 187.777545 
L 180.236712 187.38022 
L 180.848219 185.087745 
L 181.459726 185.477244 
L 182.071233 188.891974 
L 182.68274 189.532487 
L 183.294247 186.453304 
L 183.905753 186.895386 
L 184.51726 186.654794 
L 185.128767 184.290666 
L 185.740274 185.994214 
L 186.351781 187.13231 
L 186.963288 187.780244 
L 187.574795 190.164993 
L 188.186301 191.016665 
L 188.797808 189.412329 
L 189.409315 187.159158 
L 190.020822 190.500947 
L 190.632329 194.63576 
L 191.855342 189.541158 
L 192.466849 189.457431 
L 193.078356 191.12272 
L 193.689863 192.422418 
L 194.912877 186.037372 
L 195.524384 187.939615 
L 196.13589 188.095179 
L 196.747397 185.945632 
L 197.358904 186.964678 
L 197.970411 187.090639 
L 198.581918 189.00348 
L 199.193425 189.248445 
L 199.804932 184.977691 
L 200.416438 181.991895 
L 201.027945 184.806597 
L 201.639452 188.555819 
L 202.250959 186.012505 
L 202.862466 182.896698 
L 204.085479 190.700806 
L 204.696986 190.152058 
L 205.308493 187.485474 
L 205.92 188.445681 
L 206.531507 190.105868 
L 207.143014 188.770748 
L 207.754521 189.00871 
L 208.366027 186.379382 
L 208.977534 188.199653 
L 209.589041 193.17684 
L 210.200548 192.46807 
L 210.812055 188.686078 
L 211.423562 190.142994 
L 212.035068 194.134478 
L 212.646575 192.382736 
L 213.258082 188.171116 
L 213.869589 189.151624 
L 214.481096 192.200495 
L 215.092603 189.678117 
L 215.70411 189.869633 
L 216.315616 191.020776 
L 216.927123 191.200679 
L 217.53863 190.207751 
L 218.150137 187.907932 
L 218.761644 187.891761 
L 219.373151 188.774221 
L 219.984658 189.446393 
L 220.596164 190.899326 
L 221.207671 191.516934 
L 221.819178 186.676718 
L 222.430685 185.418904 
L 223.042192 188.7764 
L 223.653699 187.915709 
L 224.265205 185.453329 
L 224.876712 186.167209 
L 225.488219 189.970723 
L 226.099726 188.389667 
L 226.711233 185.767946 
L 227.32274 185.065307 
L 227.934247 187.664433 
L 228.545753 188.875638 
L 229.15726 186.230863 
L 229.768767 184.140663 
L 230.380274 183.549445 
L 230.991781 186.677107 
L 231.603288 187.825658 
L 232.214795 185.879031 
L 232.826301 185.950932 
L 233.437808 189.253211 
L 234.049315 190.094935 
L 234.660822 188.140438 
L 235.272329 188.3623 
L 235.883836 191.643699 
L 236.495342 191.845998 
L 237.106849 188.350628 
L 237.718356 189.664004 
L 238.329863 194.292385 
L 238.94137 194.183465 
L 239.552877 189.453737 
L 240.164384 189.65818 
L 240.77589 191.129512 
L 241.387397 191.951185 
L 241.998904 194.062041 
L 242.610411 191.753164 
L 243.221918 191.017764 
L 243.833425 189.139434 
L 244.444932 185.985333 
L 245.056438 186.601027 
L 245.667945 188.166126 
L 246.279452 187.969687 
L 247.502466 186.8667 
L 248.113973 185.9234 
L 248.725479 185.852477 
L 249.336986 186.158634 
L 249.948493 189.154316 
L 250.56 191.216796 
L 251.171507 188.274802 
L 251.783014 185.909966 
L 252.394521 189.983647 
L 253.006027 191.768864 
L 253.617534 190.065728 
L 254.229041 189.074333 
L 255.452055 190.06703 
L 256.063562 187.576534 
L 256.675068 187.694003 
L 257.286575 190.025677 
L 257.898082 189.856313 
L 258.509589 187.978741 
L 259.121096 186.671204 
L 260.34411 188.952255 
L 260.955616 187.564251 
L 261.567123 186.9567 
L 262.17863 188.533295 
L 262.790137 191.84648 
L 263.401644 194.089274 
L 264.013151 191.478253 
L 264.624658 188.08075 
L 265.236164 190.330519 
L 265.847671 190.667374 
L 266.459178 188.131739 
L 267.682192 191.166976 
L 268.293699 190.184358 
L 268.905205 189.53717 
L 269.516712 185.39398 
L 270.128219 184.072301 
L 270.739726 184.116717 
L 271.351233 184.294124 
L 271.96274 186.150714 
L 272.574247 186.169021 
L 273.79726 182.855007 
L 274.408767 185.474861 
L 275.020274 187.441037 
L 275.631781 187.553972 
L 276.243288 188.268554 
L 276.854795 189.852418 
L 277.466301 190.254988 
L 278.077808 188.252417 
L 278.689315 191.037622 
L 279.300822 192.891923 
L 279.912329 189.869738 
L 280.523836 188.491612 
L 281.135342 188.12842 
L 281.746849 189.447728 
L 282.358356 188.784135 
L 282.969863 188.732365 
L 283.58137 188.326621 
L 284.192877 187.599361 
L 284.804384 190.024338 
L 285.41589 189.769149 
L 286.027397 187.318218 
L 287.250411 190.775319 
L 287.861918 188.919537 
L 288.473425 188.712996 
L 289.084932 187.877464 
L 289.696438 187.330024 
L 290.307945 189.005058 
L 290.919452 190.150008 
L 291.530959 187.762909 
L 292.142466 189.317737 
L 292.753973 191.90193 
L 293.365479 191.590295 
L 293.976986 189.008149 
L 294.588493 187.970663 
L 295.2 188.686084 
L 295.811507 187.265105 
L 297.034521 188.099546 
L 297.646027 189.79425 
L 298.257534 190.909439 
L 299.480548 187.447634 
L 300.092055 187.571419 
L 300.703562 190.797953 
L 301.315068 189.940022 
L 301.926575 186.359854 
L 302.538082 188.098902 
L 303.149589 189.216856 
L 303.761096 189.572 
L 304.372603 187.386748 
L 304.98411 184.732721 
L 308.041644 189.56034 
L 308.653151 189.571945 
L 309.264658 188.713186 
L 309.876164 189.383837 
L 310.487671 189.577531 
L 311.099178 190.207912 
L 311.710685 190.347033 
L 312.322192 190.751363 
L 312.933699 191.853214 
L 313.545205 191.199957 
L 314.768219 189.152389 
L 315.379726 188.783843 
L 315.991233 188.717912 
L 316.60274 189.453308 
L 317.214247 189.489919 
L 317.825753 189.359012 
L 318.43726 186.720804 
L 319.048767 186.094117 
L 319.660274 189.679849 
L 320.271781 189.335137 
L 320.883288 187.085677 
L 321.494795 189.069967 
L 322.106301 190.363837 
L 322.717808 189.804519 
L 323.329315 188.994392 
L 323.940822 186.855114 
L 324.552329 188.319862 
L 325.163836 188.675175 
L 326.386849 187.506435 
L 326.998356 189.560736 
L 327.609863 192.405089 
L 328.22137 190.048943 
L 328.832877 187.195499 
L 329.444384 185.922257 
L 330.05589 187.264178 
L 330.667397 186.098213 
L 331.278904 186.167532 
L 331.890411 188.432859 
L 332.501918 187.878838 
L 333.113425 189.714682 
L 333.724932 187.726318 
L 334.336438 186.87219 
L 334.947945 188.982214 
L 335.559452 188.692589 
L 336.170959 188.817175 
L 336.782466 191.004648 
L 337.393973 192.757257 
L 338.005479 192.539893 
L 338.616986 190.754853 
L 339.228493 187.640641 
L 339.84 187.127016 
L 340.451507 187.614674 
L 341.063014 188.89708 
L 341.674521 189.420162 
L 342.286027 188.992606 
L 343.509041 189.103859 
L 344.120548 188.166982 
L 344.732055 188.8398 
L 345.343562 188.737741 
L 345.955068 187.4455 
L 346.566575 189.007256 
L 347.178082 189.356011 
L 347.789589 188.639511 
L 348.401096 188.990634 
L 349.012603 189.500122 
L 349.62411 189.314018 
L 350.235616 186.906511 
L 350.847123 184.971632 
L 351.45863 188.591835 
L 352.070137 193.024484 
L 352.681644 190.195536 
L 353.293151 188.714519 
L 353.904658 191.759021 
L 355.127671 187.623207 
L 355.739178 186.904865 
L 356.962192 190.26445 
L 358.796712 187.915402 
L 359.408219 189.22825 
L 360.019726 189.390778 
L 360.631233 186.556874 
L 361.24274 186.159877 
L 361.854247 188.356054 
L 362.465753 189.57369 
L 363.07726 187.877184 
L 364.911781 185.703804 
L 365.523288 187.167601 
L 366.134795 187.946926 
L 366.746301 189.607006 
L 367.357808 189.618762 
L 367.969315 190.953204 
L 368.580822 192.000036 
L 369.192329 189.592929 
L 369.803836 189.06403 
L 370.415342 192.07586 
L 371.026849 191.460867 
L 371.638356 190.29952 
L 372.249863 189.993958 
L 372.86137 190.463153 
L 373.472877 192.636272 
L 374.084384 191.544103 
L 374.69589 189.457847 
L 375.307397 189.026414 
L 375.918904 188.844775 
L 376.530411 185.853486 
L 377.141918 185.476959 
L 377.753425 185.574831 
L 378.364932 186.126601 
L 378.976438 187.172654 
L 379.587945 184.057521 
L 380.199452 182.321645 
L 381.422466 190.33108 
L 382.645479 185.627143 
L 383.256986 190.171882 
L 383.868493 190.01987 
L 384.48 187.538065 
L 385.091507 188.921443 
L 385.703014 191.547097 
L 386.314521 191.382374 
L 386.926027 190.934567 
L 387.537534 191.997601 
L 388.149041 190.253862 
L 388.760548 189.798964 
L 389.983562 188.127144 
L 390.595068 187.879124 
L 391.206575 185.128104 
L 391.818082 185.07927 
L 392.429589 188.733159 
L 393.041096 187.894263 
L 393.652603 187.753784 
L 394.26411 190.914762 
L 394.875616 191.909996 
L 395.487123 190.107933 
L 396.09863 191.007578 
L 396.710137 192.684816 
L 397.321644 190.119267 
L 397.933151 189.096778 
L 398.544658 188.630732 
L 399.156164 187.501997 
L 399.767671 187.286691 
L 400.379178 188.860191 
L 400.990685 189.773162 
L 401.602192 187.249682 
L 402.213699 187.833641 
L 402.825205 190.871556 
L 403.436712 190.278792 
L 404.048219 185.2293 
L 404.659726 185.599156 
L 405.271233 188.541432 
L 405.88274 184.950628 
L 406.494247 184.367823 
L 407.105753 186.996038 
L 407.71726 188.118767 
L 408.328767 188.05532 
L 408.940274 186.380792 
L 409.551781 187.088132 
L 410.163288 189.019257 
L 410.774795 189.954899 
L 411.386301 190.57781 
L 411.997808 190.748948 
L 412.609315 190.240493 
L 413.220822 189.931622 
L 413.832329 190.745578 
L 414.443836 189.645875 
L 415.055342 189.728945 
L 415.666849 190.897037 
L 416.278356 191.224061 
L 416.889863 190.245609 
L 417.50137 187.789439 
L 418.112877 188.655544 
L 418.724384 188.603651 
L 419.33589 186.830695 
L 420.558904 183.927048 
L 421.170411 185.28776 
L 421.781918 188.312203 
L 422.393425 190.156002 
L 423.004932 188.704259 
L 423.616438 187.714674 
L 424.227945 191.205912 
L 424.839452 192.512915 
L 425.450959 191.580279 
L 426.062466 191.917674 
L 426.673973 193.217783 
L 427.285479 192.844198 
L 427.896986 189.106794 
L 428.508493 187.972417 
L 429.12 188.6389 
L 429.731507 188.104727 
L 430.343014 187.350277 
L 430.954521 185.507983 
L 431.566027 185.712527 
L 432.789041 186.693109 
L 433.400548 186.551906 
L 434.012055 185.483354 
L 435.235068 189.811586 
L 435.846575 187.442745 
L 436.458082 185.547549 
L 437.069589 188.381452 
L 438.292603 185.9476 
L 438.90411 187.863544 
L 439.515616 188.628864 
L 440.127123 189.13205 
L 440.73863 189.174885 
L 441.350137 188.999691 
L 441.961644 187.597144 
L 442.573151 189.866994 
L 443.184658 190.13631 
L 443.796164 189.397724 
L 444.407671 191.3107 
L 445.019178 188.24716 
L 445.630685 187.487222 
L 446.242192 189.736476 
L 447.465205 186.994981 
L 448.076712 188.896817 
L 448.688219 189.262765 
L 449.911233 187.571756 
L 450.52274 188.052649 
L 451.134247 190.734679 
L 452.35726 188.567443 
L 452.968767 189.564145 
L 453.580274 189.685448 
L 454.191781 190.356009 
L 454.803288 192.246654 
L 455.414795 189.16587 
L 456.026301 188.527123 
L 456.637808 192.187415 
L 457.860822 185.601982 
L 458.472329 187.623233 
L 459.083836 187.877552 
L 459.695342 185.413364 
L 460.306849 185.985027 
L 460.918356 187.182018 
L 461.529863 188.096644 
L 462.14137 188.78679 
L 462.752877 186.727425 
L 463.364384 187.301456 
L 463.97589 188.682775 
L 464.587397 189.135559 
L 465.198904 187.950218 
L 465.810411 188.581585 
L 466.421918 191.168516 
L 467.033425 189.872411 
L 467.644932 189.721636 
L 468.256438 188.560397 
L 468.867945 187.814383 
L 469.479452 188.067777 
L 470.090959 190.198346 
L 470.702466 192.772626 
L 471.313973 191.83964 
L 471.925479 191.736527 
L 472.536986 189.872603 
L 473.148493 190.355873 
L 473.76 191.042497 
L 474.371507 190.383744 
L 474.983014 191.047068 
L 475.594521 190.591207 
L 476.206027 191.20418 
L 476.817534 190.863245 
L 477.429041 188.575027 
L 478.040548 187.669447 
L 478.652055 187.365449 
L 479.263562 185.624795 
L 479.875068 186.603998 
L 480.486575 189.456783 
L 481.098082 190.203197 
L 481.709589 187.925373 
L 482.321096 187.076347 
L 482.932603 188.664268 
L 483.54411 191.169432 
L 484.155616 191.700993 
L 484.767123 188.95851 
L 485.37863 189.312539 
L 485.990137 188.819778 
L 487.213151 186.300425 
L 487.824658 185.404623 
L 488.436164 186.60065 
L 489.047671 186.77086 
L 489.659178 186.789713 
L 490.270685 185.697184 
L 490.882192 186.600035 
L 491.493699 189.754999 
L 492.105205 191.359219 
L 492.716712 190.52387 
L 493.328219 188.460227 
L 493.939726 187.317126 
L 494.551233 185.899572 
L 495.16274 187.567488 
L 495.774247 189.671412 
L 496.385753 188.682587 
L 496.99726 188.592951 
L 497.608767 187.537093 
L 498.220274 187.409451 
L 499.443288 190.129537 
L 500.054795 189.241935 
L 500.666301 188.132554 
L 501.277808 189.681761 
L 501.889315 190.404371 
L 502.500822 192.670552 
L 503.112329 192.884283 
L 503.723836 189.407933 
L 504.335342 188.999701 
L 504.946849 189.937316 
L 505.558356 190.566181 
L 506.169863 189.31359 
L 506.78137 187.605848 
L 508.61589 188.222014 
L 509.838904 189.004901 
L 511.673425 190.360047 
L 512.284932 190.692558 
L 512.896438 190.87472 
L 513.507945 190.841291 
L 514.119452 190.519833 
L 514.730959 189.830712 
L 515.342466 188.6871 
L 515.953973 186.99497 
L 516.565479 184.653102 
L 517.176986 181.553078 
L 517.788493 177.579287 
L 518.4 172.60892 
L 518.4 172.60892 
" style="fill:none;stroke:#ff0000;stroke-linecap:square;stroke-width:2;"/>
   </g>
   <g id="patch_3">
    <path d="M 72 320.4 
L 72 43.2 
" style="fill:none;stroke:#000000;stroke-linecap:square;stroke-linejoin:miter;stroke-width:0.8;"/>
   </g>
   <g id="patch_4">
    <path d="M 518.4 320.4 
L 518.4 43.2 
" style="fill:none;stroke:#000000;stroke-linecap:square;stroke-linejoin:miter;stroke-width:0.8;"/>
   </g>
   <g id="patch_5">
    <path d="M 72 320.4 
L 518.4 320.4 
" style="fill:none;stroke:#000000;stroke-linecap:square;stroke-linejoin:miter;stroke-width:0.8;"/>
   </g>
   <g id="patch_6">
    <path d="M 72 43.2 
L 518.4 43.2 
" style="fill:none;stroke:#000000;stroke-linecap:square;stroke-linejoin:miter;stroke-width:0.8;"/>
   </g>
   <g id="text_16">
    <!-- Front Propogation Speed -->
    <g transform="translate(172.245312 37.2)scale(0.2 -0.2)">
     <defs>
      <path d="M 628 4666 
L 3309 4666 
L 3309 4134 
L 1259 4134 
L 1259 2759 
L 3109 2759 
L 3109 2228 
L 1259 2228 
L 1259 0 
L 628 0 
L 628 4666 
z
" id="DejaVuSans-46" transform="scale(0.015625)"/>
      <path d="M 2631 2963 
Q 2534 3019 2420 3045 
Q 2306 3072 2169 3072 
Q 1681 3072 1420 2755 
Q 1159 2438 1159 1844 
L 1159 0 
L 581 0 
L 581 3500 
L 1159 3500 
L 1159 2956 
Q 1341 3275 1631 3429 
Q 1922 3584 2338 3584 
Q 2397 3584 2469 3576 
Q 2541 3569 2628 3553 
L 2631 2963 
z
" id="DejaVuSans-72" transform="scale(0.015625)"/>
      <path d="M 1172 4494 
L 1172 3500 
L 2356 3500 
L 2356 3053 
L 1172 3053 
L 1172 1153 
Q 1172 725 1289 603 
Q 1406 481 1766 481 
L 2356 481 
L 2356 0 
L 1766 0 
Q 1100 0 847 248 
Q 594 497 594 1153 
L 594 3053 
L 172 3053 
L 172 3500 
L 594 3500 
L 594 4494 
L 1172 4494 
z
" id="DejaVuSans-74" transform="scale(0.015625)"/>
      <path d="M 1259 4147 
L 1259 2394 
L 2053 2394 
Q 2494 2394 2734 2622 
Q 2975 2850 2975 3272 
Q 2975 3691 2734 3919 
Q 2494 4147 2053 4147 
L 1259 4147 
z
M 628 4666 
L 2053 4666 
Q 2838 4666 3239 4311 
Q 3641 3956 3641 3272 
Q 3641 2581 3239 2228 
Q 2838 1875 2053 1875 
L 1259 1875 
L 1259 0 
L 628 0 
L 628 4666 
z
" id="DejaVuSans-50" transform="scale(0.015625)"/>
      <path d="M 2906 1791 
Q 2906 2416 2648 2759 
Q 2391 3103 1925 3103 
Q 1463 3103 1205 2759 
Q 947 2416 947 1791 
Q 947 1169 1205 825 
Q 1463 481 1925 481 
Q 2391 481 2648 825 
Q 2906 1169 2906 1791 
z
M 3481 434 
Q 3481 -459 3084 -895 
Q 2688 -1331 1869 -1331 
Q 1566 -1331 1297 -1286 
Q 1028 -1241 775 -1147 
L 775 -588 
Q 1028 -725 1275 -790 
Q 1522 -856 1778 -856 
Q 2344 -856 2625 -561 
Q 2906 -266 2906 331 
L 2906 616 
Q 2728 306 2450 153 
Q 2172 0 1784 0 
Q 1141 0 747 490 
Q 353 981 353 1791 
Q 353 2603 747 3093 
Q 1141 3584 1784 3584 
Q 2172 3584 2450 3431 
Q 2728 3278 2906 2969 
L 2906 3500 
L 3481 3500 
L 3481 434 
z
" id="DejaVuSans-67" transform="scale(0.015625)"/>
      <path d="M 2194 1759 
Q 1497 1759 1228 1600 
Q 959 1441 959 1056 
Q 959 750 1161 570 
Q 1363 391 1709 391 
Q 2188 391 2477 730 
Q 2766 1069 2766 1631 
L 2766 1759 
L 2194 1759 
z
M 3341 1997 
L 3341 0 
L 2766 0 
L 2766 531 
Q 2569 213 2275 61 
Q 1981 -91 1556 -91 
Q 1019 -91 701 211 
Q 384 513 384 1019 
Q 384 1609 779 1909 
Q 1175 2209 1959 2209 
L 2766 2209 
L 2766 2266 
Q 2766 2663 2505 2880 
Q 2244 3097 1772 3097 
Q 1472 3097 1187 3025 
Q 903 2953 641 2809 
L 641 3341 
Q 956 3463 1253 3523 
Q 1550 3584 1831 3584 
Q 2591 3584 2966 3190 
Q 3341 2797 3341 1997 
z
" id="DejaVuSans-61" transform="scale(0.015625)"/>
     </defs>
     <use xlink:href="#DejaVuSans-46"/>
     <use x="50.269531" xlink:href="#DejaVuSans-72"/>
     <use x="89.132812" xlink:href="#DejaVuSans-6f"/>
     <use x="150.314453" xlink:href="#DejaVuSans-6e"/>
     <use x="213.693359" xlink:href="#DejaVuSans-74"/>
     <use x="252.902344" xlink:href="#DejaVuSans-20"/>
     <use x="284.689453" xlink:href="#DejaVuSans-50"/>
     <use x="343.242188" xlink:href="#DejaVuSans-72"/>
     <use x="382.105469" xlink:href="#DejaVuSans-6f"/>
     <use x="443.287109" xlink:href="#DejaVuSans-70"/>
     <use x="506.763672" xlink:href="#DejaVuSans-6f"/>
     <use x="567.945312" xlink:href="#DejaVuSans-67"/>
     <use x="631.421875" xlink:href="#DejaVuSans-61"/>
     <use x="692.701172" xlink:href="#DejaVuSans-74"/>
     <use x="731.910156" xlink:href="#DejaVuSans-69"/>
     <use x="759.693359" xlink:href="#DejaVuSans-6f"/>
     <use x="820.875" xlink:href="#DejaVuSans-6e"/>
     <use x="884.253906" xlink:href="#DejaVuSans-20"/>
     <use x="916.041016" xlink:href="#DejaVuSans-53"/>
     <use x="979.517578" xlink:href="#DejaVuSans-70"/>
     <use x="1042.994141" xlink:href="#DejaVuSans-65"/>
     <use x="1104.517578" xlink:href="#DejaVuSans-65"/>
     <use x="1166.041016" xlink:href="#DejaVuSans-64"/>
    </g>
   </g>
   <g id="legend_1">
    <g id="patch_7">
     <path d="M 325.967812 111.175687 
L 508.6 111.175687 
Q 511.4 111.175687 511.4 108.375687 
L 511.4 53 
Q 511.4 50.2 508.6 50.2 
L 325.967812 50.2 
Q 323.167812 50.2 323.167812 53 
L 323.167812 108.375687 
Q 323.167812 111.175687 325.967812 111.175687 
z
" style="fill:#ffffff;opacity:0.8;stroke:#cccccc;stroke-linejoin:miter;"/>
    </g>
    <g id="line2d_16">
     <path d="M 328.767812 61.537812 
L 356.767812 61.537812 
" style="fill:none;stroke:#ff0000;stroke-linecap:square;stroke-width:2;"/>
    </g>
    <g id="line2d_17"/>
    <g id="text_17">
     <!-- Front speed -->
     <g transform="translate(367.967812 66.437812)scale(0.14 -0.14)">
      <use xlink:href="#DejaVuSans-46"/>
      <use x="50.269531" xlink:href="#DejaVuSans-72"/>
      <use x="89.132812" xlink:href="#DejaVuSans-6f"/>
      <use x="150.314453" xlink:href="#DejaVuSans-6e"/>
      <use x="213.693359" xlink:href="#DejaVuSans-74"/>
      <use x="252.902344" xlink:href="#DejaVuSans-20"/>
      <use x="284.689453" xlink:href="#DejaVuSans-73"/>
      <use x="336.789062" xlink:href="#DejaVuSans-70"/>
      <use x="400.265625" xlink:href="#DejaVuSans-65"/>
      <use x="461.789062" xlink:href="#DejaVuSans-65"/>
      <use x="523.3125" xlink:href="#DejaVuSans-64"/>
     </g>
    </g>
    <g id="line2d_18">
     <path d="M 328.767812 91.381437 
L 356.767812 91.381437 
" style="fill:none;stroke:#000000;stroke-dasharray:5.55,2.4;stroke-dashoffset:0;stroke-width:1.5;"/>
    </g>
    <g id="line2d_19"/>
    <g id="text_18">
     <!-- Steady state -->
     <g transform="translate(367.967812 86.987187)scale(0.14 -0.14)">
      <defs>
       <path d="M 2059 -325 
Q 1816 -950 1584 -1140 
Q 1353 -1331 966 -1331 
L 506 -1331 
L 506 -850 
L 844 -850 
Q 1081 -850 1212 -737 
Q 1344 -625 1503 -206 
L 1606 56 
L 191 3500 
L 800 3500 
L 1894 763 
L 2988 3500 
L 3597 3500 
L 2059 -325 
z
" id="DejaVuSans-79" transform="scale(0.015625)"/>
      </defs>
      <use xlink:href="#DejaVuSans-53"/>
      <use x="63.476562" xlink:href="#DejaVuSans-74"/>
      <use x="102.685547" xlink:href="#DejaVuSans-65"/>
      <use x="164.208984" xlink:href="#DejaVuSans-61"/>
      <use x="225.488281" xlink:href="#DejaVuSans-64"/>
      <use x="288.964844" xlink:href="#DejaVuSans-79"/>
      <use x="348.144531" xlink:href="#DejaVuSans-20"/>
      <use x="379.931641" xlink:href="#DejaVuSans-73"/>
      <use x="432.03125" xlink:href="#DejaVuSans-74"/>
      <use x="471.240234" xlink:href="#DejaVuSans-61"/>
      <use x="532.519531" xlink:href="#DejaVuSans-74"/>
      <use x="571.728516" xlink:href="#DejaVuSans-65"/>
     </g>
     <!-- speed = 0.85 mm/s -->
     <g transform="translate(367.967812 102.664125)scale(0.14 -0.14)">
      <defs>
       <path d="M 678 2906 
L 4684 2906 
L 4684 2381 
L 678 2381 
L 678 2906 
z
M 678 1631 
L 4684 1631 
L 4684 1100 
L 678 1100 
L 678 1631 
z
" id="DejaVuSans-3d" transform="scale(0.015625)"/>
       <path d="M 2034 2216 
Q 1584 2216 1326 1975 
Q 1069 1734 1069 1313 
Q 1069 891 1326 650 
Q 1584 409 2034 409 
Q 2484 409 2743 651 
Q 3003 894 3003 1313 
Q 3003 1734 2745 1975 
Q 2488 2216 2034 2216 
z
M 1403 2484 
Q 997 2584 770 2862 
Q 544 3141 544 3541 
Q 544 4100 942 4425 
Q 1341 4750 2034 4750 
Q 2731 4750 3128 4425 
Q 3525 4100 3525 3541 
Q 3525 3141 3298 2862 
Q 3072 2584 2669 2484 
Q 3125 2378 3379 2068 
Q 3634 1759 3634 1313 
Q 3634 634 3220 271 
Q 2806 -91 2034 -91 
Q 1263 -91 848 271 
Q 434 634 434 1313 
Q 434 1759 690 2068 
Q 947 2378 1403 2484 
z
M 1172 3481 
Q 1172 3119 1398 2916 
Q 1625 2713 2034 2713 
Q 2441 2713 2670 2916 
Q 2900 3119 2900 3481 
Q 2900 3844 2670 4047 
Q 2441 4250 2034 4250 
Q 1625 4250 1398 4047 
Q 1172 3844 1172 3481 
z
" id="DejaVuSans-38" transform="scale(0.015625)"/>
      </defs>
      <use xlink:href="#DejaVuSans-73"/>
      <use x="52.099609" xlink:href="#DejaVuSans-70"/>
      <use x="115.576172" xlink:href="#DejaVuSans-65"/>
      <use x="177.099609" xlink:href="#DejaVuSans-65"/>
      <use x="238.623047" xlink:href="#DejaVuSans-64"/>
      <use x="302.099609" xlink:href="#DejaVuSans-20"/>
      <use x="333.886719" xlink:href="#DejaVuSans-3d"/>
      <use x="417.675781" xlink:href="#DejaVuSans-20"/>
      <use x="449.462891" xlink:href="#DejaVuSans-30"/>
      <use x="513.085938" xlink:href="#DejaVuSans-2e"/>
      <use x="544.873047" xlink:href="#DejaVuSans-38"/>
      <use x="608.496094" xlink:href="#DejaVuSans-35"/>
      <use x="672.119141" xlink:href="#DejaVuSans-20"/>
      <use x="703.90625" xlink:href="#DejaVuSans-6d"/>
      <use x="801.318359" xlink:href="#DejaVuSans-6d"/>
      <use x="898.730469" xlink:href="#DejaVuSans-2f"/>
      <use x="932.421875" xlink:href="#DejaVuSans-73"/>
     </g>
    </g>
   </g>
  </g>
 </g>
 <defs>
  <clipPath id="p5b26c19a58">
   <rect height="277.2" width="446.4" x="72" y="43.2"/>
  </clipPath>
 </defs>
</svg>
