<?xml version="1.0" encoding="utf-8" standalone="no"?>
<!DOCTYPE svg PUBLIC "-//W3C//DTD SVG 1.1//EN"
  "http://www.w3.org/Graphics/SVG/1.1/DTD/svg11.dtd">
<svg height="360pt" version="1.1" viewBox="0 0 576 360" width="576pt" xmlns="http://www.w3.org/2000/svg" xmlns:xlink="http://www.w3.org/1999/xlink">
 <metadata>
  <rdf:RDF xmlns:cc="http://creativecommons.org/ns#" xmlns:dc="http://purl.org/dc/elements/1.1/" xmlns:rdf="http://www.w3.org/1999/02/22-rdf-syntax-ns#">
   <cc:Work>
    <dc:type rdf:resource="http://purl.org/dc/dcmitype/StillImage"/>
    <dc:date>2022-06-30T14:46:46.402222</dc:date>
    <dc:format>image/svg+xml</dc:format>
    <dc:creator>
     <cc:Agent>
      <dc:title>Matplotlib v3.4.3, https://matplotlib.org/</dc:title>
     </cc:Agent>
    </dc:creator>
   </cc:Work>
  </rdf:RDF>
 </metadata>
 <defs>
  <style type="text/css">*{stroke-linecap:butt;stroke-linejoin:round;}</style>
 </defs>
 <g id="figure_1">
  <g id="patch_1">
   <path d="M 0 360 
L 576 360 
L 576 0 
L 0 0 
z
" style="fill:#ffffff;"/>
  </g>
  <g id="axes_1">
   <g id="patch_2">
    <path d="M 72 320.4 
L 518.4 320.4 
L 518.4 43.2 
L 72 43.2 
z
" style="fill:#ffffff;"/>
   </g>
   <g id="PolyCollection_1">
    <defs>
     <path d="M 72 -181.234025 
L 72 -185.880258 
L 72.57974 -185.880258 
L 73.159481 -185.880258 
L 73.739221 -185.880258 
L 74.318961 -185.880258 
L 74.898701 -185.880258 
L 75.478442 -185.880258 
L 76.058182 -185.880258 
L 76.637922 -185.880258 
L 77.217662 -185.880258 
L 77.797403 -185.880258 
L 78.377143 -185.880258 
L 78.956883 -185.880258 
L 79.536623 -185.880258 
L 80.116364 -185.880258 
L 80.696104 -185.880258 
L 81.275844 -185.880258 
L 81.855584 -185.880258 
L 82.435325 -185.880258 
L 83.015065 -185.880258 
L 83.594805 -185.880258 
L 84.174545 -185.880258 
L 84.754286 -185.880258 
L 85.334026 -185.880258 
L 85.913766 -185.880258 
L 86.493506 -185.880258 
L 87.073247 -185.880258 
L 87.652987 -185.880258 
L 88.232727 -185.880258 
L 88.812468 -185.880258 
L 89.392208 -185.880258 
L 89.971948 -185.880258 
L 90.551688 -185.880258 
L 91.131429 -185.880258 
L 91.711169 -185.880258 
L 92.290909 -185.880258 
L 92.870649 -185.880258 
L 93.45039 -185.880258 
L 94.03013 -185.880258 
L 94.60987 -185.880258 
L 95.18961 -185.880258 
L 95.769351 -185.880258 
L 96.349091 -185.880258 
L 96.928831 -185.880258 
L 97.508571 -185.880258 
L 98.088312 -185.880258 
L 98.668052 -185.880258 
L 99.247792 -185.880258 
L 99.827532 -185.880258 
L 100.407273 -185.880258 
L 100.987013 -185.880258 
L 101.566753 -185.880258 
L 102.146494 -185.880258 
L 102.726234 -185.880258 
L 103.305974 -185.880258 
L 103.885714 -185.880258 
L 104.465455 -185.880258 
L 105.045195 -185.880258 
L 105.624935 -185.880258 
L 106.204675 -185.880258 
L 106.784416 -185.880258 
L 107.364156 -185.880258 
L 107.943896 -185.880258 
L 108.523636 -185.880258 
L 109.103377 -185.880258 
L 109.683117 -185.880258 
L 110.262857 -185.880258 
L 110.842597 -185.880258 
L 111.422338 -185.880258 
L 112.002078 -185.880258 
L 112.581818 -185.880258 
L 113.161558 -185.880258 
L 113.741299 -185.880258 
L 114.321039 -185.880258 
L 114.900779 -185.880258 
L 115.480519 -185.880258 
L 116.06026 -185.880258 
L 116.64 -185.880258 
L 117.21974 -185.880258 
L 117.799481 -185.880258 
L 118.379221 -185.880258 
L 118.958961 -185.880258 
L 119.538701 -185.880258 
L 120.118442 -185.880258 
L 120.698182 -185.880258 
L 121.277922 -185.880258 
L 121.857662 -185.880258 
L 122.437403 -185.880258 
L 123.017143 -185.880258 
L 123.596883 -185.880258 
L 124.176623 -185.880258 
L 124.756364 -185.880258 
L 125.336104 -185.880258 
L 125.915844 -185.880258 
L 126.495584 -185.880258 
L 127.075325 -185.880258 
L 127.655065 -185.880258 
L 128.234805 -185.880258 
L 128.814545 -185.880258 
L 129.394286 -185.880258 
L 129.974026 -185.880258 
L 130.553766 -185.880258 
L 131.133506 -185.880258 
L 131.713247 -185.880258 
L 132.292987 -185.880258 
L 132.872727 -185.880258 
L 133.452468 -185.880258 
L 134.032208 -185.880258 
L 134.611948 -185.880258 
L 135.191688 -185.880258 
L 135.771429 -185.880258 
L 136.351169 -185.880258 
L 136.930909 -185.880258 
L 137.510649 -185.880258 
L 138.09039 -185.880258 
L 138.67013 -185.880258 
L 139.24987 -185.880258 
L 139.82961 -185.880258 
L 140.409351 -185.880258 
L 140.989091 -185.880258 
L 141.568831 -185.880258 
L 142.148571 -185.880258 
L 142.728312 -185.880258 
L 143.308052 -185.880258 
L 143.887792 -185.880258 
L 144.467532 -185.880258 
L 145.047273 -185.880258 
L 145.627013 -185.880258 
L 146.206753 -185.880258 
L 146.786494 -185.880258 
L 147.366234 -185.880258 
L 147.945974 -185.880258 
L 148.525714 -185.880258 
L 149.105455 -185.880258 
L 149.685195 -185.880258 
L 150.264935 -185.880258 
L 150.844675 -185.880258 
L 151.424416 -185.880258 
L 152.004156 -185.880258 
L 152.583896 -185.880258 
L 153.163636 -185.880258 
L 153.743377 -185.880258 
L 154.323117 -185.880258 
L 154.902857 -185.880258 
L 155.482597 -185.880258 
L 156.062338 -185.880258 
L 156.642078 -185.880258 
L 157.221818 -185.880258 
L 157.801558 -185.880258 
L 158.381299 -185.880258 
L 158.961039 -185.880258 
L 159.540779 -185.880258 
L 160.120519 -185.880258 
L 160.70026 -185.880258 
L 161.28 -185.880258 
L 161.85974 -185.880258 
L 162.439481 -185.880258 
L 163.019221 -185.880258 
L 163.598961 -185.880258 
L 164.178701 -185.880258 
L 164.758442 -185.880258 
L 165.338182 -185.880258 
L 165.917922 -185.880258 
L 166.497662 -185.880258 
L 167.077403 -185.880258 
L 167.657143 -185.880258 
L 168.236883 -185.880258 
L 168.816623 -185.880258 
L 169.396364 -185.880258 
L 169.976104 -185.880258 
L 170.555844 -185.880258 
L 171.135584 -185.880258 
L 171.715325 -185.880258 
L 172.295065 -185.880258 
L 172.874805 -185.880258 
L 173.454545 -185.880258 
L 174.034286 -185.880258 
L 174.614026 -185.880258 
L 175.193766 -185.880258 
L 175.773506 -185.880258 
L 176.353247 -185.880258 
L 176.932987 -185.880258 
L 177.512727 -185.880258 
L 178.092468 -185.880258 
L 178.672208 -185.880258 
L 179.251948 -185.880258 
L 179.831688 -185.880258 
L 180.411429 -185.880258 
L 180.991169 -185.880258 
L 181.570909 -185.880258 
L 182.150649 -185.880258 
L 182.73039 -185.880258 
L 183.31013 -185.880258 
L 183.88987 -185.880258 
L 184.46961 -185.880258 
L 185.049351 -185.880258 
L 185.629091 -185.880258 
L 186.208831 -185.880258 
L 186.788571 -185.880258 
L 187.368312 -185.880258 
L 187.948052 -185.880258 
L 188.527792 -185.880258 
L 189.107532 -185.880258 
L 189.687273 -185.880258 
L 190.267013 -185.880258 
L 190.846753 -185.880258 
L 191.426494 -185.880258 
L 192.006234 -185.880258 
L 192.585974 -185.880258 
L 193.165714 -185.880258 
L 193.745455 -185.880258 
L 194.325195 -185.880258 
L 194.904935 -185.880258 
L 195.484675 -185.880258 
L 196.064416 -185.880258 
L 196.644156 -185.880258 
L 197.223896 -185.880258 
L 197.803636 -185.880258 
L 198.383377 -185.880258 
L 198.963117 -185.880258 
L 199.542857 -185.880258 
L 200.122597 -185.880258 
L 200.702338 -185.880258 
L 201.282078 -185.880258 
L 201.861818 -185.880258 
L 202.441558 -185.880258 
L 203.021299 -185.880258 
L 203.601039 -185.880258 
L 204.180779 -185.880258 
L 204.760519 -185.880258 
L 205.34026 -185.880258 
L 205.92 -185.880258 
L 206.49974 -185.880258 
L 207.079481 -185.880258 
L 207.659221 -185.880258 
L 208.238961 -185.880258 
L 208.818701 -185.880258 
L 209.398442 -185.880258 
L 209.978182 -185.880258 
L 210.557922 -185.880258 
L 211.137662 -185.880258 
L 211.717403 -185.880258 
L 212.297143 -185.880258 
L 212.876883 -185.880258 
L 213.456623 -185.880258 
L 214.036364 -185.880258 
L 214.616104 -185.880258 
L 215.195844 -185.880258 
L 215.775584 -185.880258 
L 216.355325 -185.880258 
L 216.935065 -185.880258 
L 217.514805 -185.880258 
L 218.094545 -185.880258 
L 218.674286 -185.880258 
L 219.254026 -185.880258 
L 219.833766 -185.880258 
L 220.413506 -185.880258 
L 220.993247 -185.880258 
L 221.572987 -185.880258 
L 222.152727 -185.880258 
L 222.732468 -185.880258 
L 223.312208 -185.880258 
L 223.891948 -185.880258 
L 224.471688 -185.880258 
L 225.051429 -185.880258 
L 225.631169 -185.880258 
L 226.210909 -185.880258 
L 226.790649 -185.880258 
L 227.37039 -185.880258 
L 227.95013 -185.880258 
L 228.52987 -185.880258 
L 229.10961 -185.880258 
L 229.689351 -185.880258 
L 230.269091 -185.880258 
L 230.848831 -185.880258 
L 231.428571 -185.880258 
L 232.008312 -185.880258 
L 232.588052 -185.880258 
L 233.167792 -185.880258 
L 233.747532 -185.880258 
L 234.327273 -185.880258 
L 234.907013 -185.880258 
L 235.486753 -185.880258 
L 236.066494 -185.880258 
L 236.646234 -185.880258 
L 237.225974 -185.880258 
L 237.805714 -185.880258 
L 238.385455 -185.880258 
L 238.965195 -185.880258 
L 239.544935 -185.880258 
L 240.124675 -185.880258 
L 240.704416 -185.880258 
L 241.284156 -185.880258 
L 241.863896 -185.880258 
L 242.443636 -185.880258 
L 243.023377 -185.880258 
L 243.603117 -185.880258 
L 244.182857 -185.880258 
L 244.762597 -185.880258 
L 245.342338 -185.880258 
L 245.922078 -185.880258 
L 246.501818 -185.880258 
L 247.081558 -185.880258 
L 247.661299 -185.880258 
L 248.241039 -185.880258 
L 248.820779 -185.880258 
L 249.400519 -185.880258 
L 249.98026 -185.880258 
L 250.56 -185.880258 
L 251.13974 -185.880258 
L 251.719481 -185.880258 
L 252.299221 -185.880258 
L 252.878961 -185.880258 
L 253.458701 -185.880258 
L 254.038442 -185.880258 
L 254.618182 -185.880258 
L 255.197922 -185.880258 
L 255.777662 -185.880258 
L 256.357403 -185.880258 
L 256.937143 -185.880258 
L 257.516883 -185.880258 
L 258.096623 -185.880258 
L 258.676364 -185.880258 
L 259.256104 -185.880258 
L 259.835844 -185.880258 
L 260.415584 -185.880258 
L 260.995325 -185.880258 
L 261.575065 -185.880258 
L 262.154805 -185.880258 
L 262.734545 -185.880258 
L 263.314286 -185.880258 
L 263.894026 -185.880258 
L 264.473766 -185.880258 
L 265.053506 -185.880258 
L 265.633247 -185.880258 
L 266.212987 -185.880258 
L 266.792727 -185.880258 
L 267.372468 -185.880258 
L 267.952208 -185.880258 
L 268.531948 -185.880258 
L 269.111688 -185.880258 
L 269.691429 -185.880258 
L 270.271169 -185.880258 
L 270.850909 -185.880258 
L 271.430649 -185.880258 
L 272.01039 -185.880258 
L 272.59013 -185.880258 
L 273.16987 -185.880258 
L 273.74961 -185.880258 
L 274.329351 -185.880258 
L 274.909091 -185.880258 
L 275.488831 -185.880258 
L 276.068571 -185.880258 
L 276.648312 -185.880258 
L 277.228052 -185.880258 
L 277.807792 -185.880258 
L 278.387532 -185.880258 
L 278.967273 -185.880258 
L 279.547013 -185.880258 
L 280.126753 -185.880258 
L 280.706494 -185.880258 
L 281.286234 -185.880258 
L 281.865974 -185.880258 
L 282.445714 -185.880258 
L 283.025455 -185.880258 
L 283.605195 -185.880258 
L 284.184935 -185.880258 
L 284.764675 -185.880258 
L 285.344416 -185.880258 
L 285.924156 -185.880258 
L 286.503896 -185.880258 
L 287.083636 -185.880258 
L 287.663377 -185.880258 
L 288.243117 -185.880258 
L 288.822857 -185.880258 
L 289.402597 -185.880258 
L 289.982338 -185.880258 
L 290.562078 -185.880258 
L 291.141818 -185.880258 
L 291.721558 -185.880258 
L 292.301299 -185.880258 
L 292.881039 -185.880258 
L 293.460779 -185.880258 
L 294.040519 -185.880258 
L 294.62026 -185.880258 
L 295.2 -185.880258 
L 295.77974 -185.880258 
L 296.359481 -185.880258 
L 296.939221 -185.880258 
L 297.518961 -185.880258 
L 298.098701 -185.880258 
L 298.678442 -185.880258 
L 299.258182 -185.880258 
L 299.837922 -185.880258 
L 300.417662 -185.880258 
L 300.997403 -185.880258 
L 301.577143 -185.880258 
L 302.156883 -185.880258 
L 302.736623 -185.880258 
L 303.316364 -185.880258 
L 303.896104 -185.880258 
L 304.475844 -185.880258 
L 305.055584 -185.880258 
L 305.635325 -185.880258 
L 306.215065 -185.880258 
L 306.794805 -185.880258 
L 307.374545 -185.880258 
L 307.954286 -185.880258 
L 308.534026 -185.880258 
L 309.113766 -185.880258 
L 309.693506 -185.880258 
L 310.273247 -185.880258 
L 310.852987 -185.880258 
L 311.432727 -185.880258 
L 312.012468 -185.880258 
L 312.592208 -185.880258 
L 313.171948 -185.880258 
L 313.751688 -185.880258 
L 314.331429 -185.880258 
L 314.911169 -185.880258 
L 315.490909 -185.880258 
L 316.070649 -185.880258 
L 316.65039 -185.880258 
L 317.23013 -185.880258 
L 317.80987 -185.880258 
L 318.38961 -185.880258 
L 318.969351 -185.880258 
L 319.549091 -185.880258 
L 320.128831 -185.880258 
L 320.708571 -185.880258 
L 321.288312 -185.880258 
L 321.868052 -185.880258 
L 322.447792 -185.880258 
L 323.027532 -185.880258 
L 323.607273 -185.880258 
L 324.187013 -185.880258 
L 324.766753 -185.880258 
L 325.346494 -185.880258 
L 325.926234 -185.880258 
L 326.505974 -185.880258 
L 327.085714 -185.880258 
L 327.665455 -185.880258 
L 328.245195 -185.880258 
L 328.824935 -185.880258 
L 329.404675 -185.880258 
L 329.984416 -185.880258 
L 330.564156 -185.880258 
L 331.143896 -185.880258 
L 331.723636 -185.880258 
L 332.303377 -185.880258 
L 332.883117 -185.880258 
L 333.462857 -185.880258 
L 334.042597 -185.880258 
L 334.622338 -185.880258 
L 335.202078 -185.880258 
L 335.781818 -185.880258 
L 336.361558 -185.880258 
L 336.941299 -185.880258 
L 337.521039 -185.880258 
L 338.100779 -185.880258 
L 338.680519 -185.880258 
L 339.26026 -185.880258 
L 339.84 -185.880258 
L 340.41974 -185.880258 
L 340.999481 -185.880258 
L 341.579221 -185.880258 
L 342.158961 -185.880258 
L 342.738701 -185.880258 
L 343.318442 -185.880258 
L 343.898182 -185.880258 
L 344.477922 -185.880258 
L 345.057662 -185.880258 
L 345.637403 -185.880258 
L 346.217143 -185.880258 
L 346.796883 -185.880258 
L 347.376623 -185.880258 
L 347.956364 -185.880258 
L 348.536104 -185.880258 
L 349.115844 -185.880258 
L 349.695584 -185.880258 
L 350.275325 -185.880258 
L 350.855065 -185.880258 
L 351.434805 -185.880258 
L 352.014545 -185.880258 
L 352.594286 -185.880258 
L 353.174026 -185.880258 
L 353.753766 -185.880258 
L 354.333506 -185.880258 
L 354.913247 -185.880258 
L 355.492987 -185.880258 
L 356.072727 -185.880258 
L 356.652468 -185.880258 
L 357.232208 -185.880258 
L 357.811948 -185.880258 
L 358.391688 -185.880258 
L 358.971429 -185.880258 
L 359.551169 -185.880258 
L 360.130909 -185.880258 
L 360.710649 -185.880258 
L 361.29039 -185.880258 
L 361.87013 -185.880258 
L 362.44987 -185.880258 
L 363.02961 -185.880258 
L 363.609351 -185.880258 
L 364.189091 -185.880258 
L 364.768831 -185.880258 
L 365.348571 -185.880258 
L 365.928312 -185.880258 
L 366.508052 -185.880258 
L 367.087792 -185.880258 
L 367.667532 -185.880258 
L 368.247273 -185.880258 
L 368.827013 -185.880258 
L 369.406753 -185.880258 
L 369.986494 -185.880258 
L 370.566234 -185.880258 
L 371.145974 -185.880258 
L 371.725714 -185.880258 
L 372.305455 -185.880258 
L 372.885195 -185.880258 
L 373.464935 -185.880258 
L 374.044675 -185.880258 
L 374.624416 -185.880258 
L 375.204156 -185.880258 
L 375.783896 -185.880258 
L 376.363636 -185.880258 
L 376.943377 -185.880258 
L 377.523117 -185.880258 
L 378.102857 -185.880258 
L 378.682597 -185.880258 
L 379.262338 -185.880258 
L 379.842078 -185.880258 
L 380.421818 -185.880258 
L 381.001558 -185.880258 
L 381.581299 -185.880258 
L 382.161039 -185.880258 
L 382.740779 -185.880258 
L 383.320519 -185.880258 
L 383.90026 -185.880258 
L 384.48 -185.880258 
L 385.05974 -185.880258 
L 385.639481 -185.880258 
L 386.219221 -185.880258 
L 386.798961 -185.880258 
L 387.378701 -185.880258 
L 387.958442 -185.880258 
L 388.538182 -185.880258 
L 389.117922 -185.880258 
L 389.697662 -185.880258 
L 390.277403 -185.880258 
L 390.857143 -185.880258 
L 391.436883 -185.880258 
L 392.016623 -185.880258 
L 392.596364 -185.880258 
L 393.176104 -185.880258 
L 393.755844 -185.880258 
L 394.335584 -185.880258 
L 394.915325 -185.880258 
L 395.495065 -185.880258 
L 396.074805 -185.880258 
L 396.654545 -185.880258 
L 397.234286 -185.880258 
L 397.814026 -185.880258 
L 398.393766 -185.880258 
L 398.973506 -185.880258 
L 399.553247 -185.880258 
L 400.132987 -185.880258 
L 400.712727 -185.880258 
L 401.292468 -185.880258 
L 401.872208 -185.880258 
L 402.451948 -185.880258 
L 403.031688 -185.880258 
L 403.611429 -185.880258 
L 404.191169 -185.880258 
L 404.770909 -185.880258 
L 405.350649 -185.880258 
L 405.93039 -185.880258 
L 406.51013 -185.880258 
L 407.08987 -185.880258 
L 407.66961 -185.880258 
L 408.249351 -185.880258 
L 408.829091 -185.880258 
L 409.408831 -185.880258 
L 409.988571 -185.880258 
L 410.568312 -185.880258 
L 411.148052 -185.880258 
L 411.727792 -185.880258 
L 412.307532 -185.880258 
L 412.887273 -185.880258 
L 413.467013 -185.880258 
L 414.046753 -185.880258 
L 414.626494 -185.880258 
L 415.206234 -185.880258 
L 415.785974 -185.880258 
L 416.365714 -185.880258 
L 416.945455 -185.880258 
L 417.525195 -185.880258 
L 418.104935 -185.880258 
L 418.684675 -185.880258 
L 419.264416 -185.880258 
L 419.844156 -185.880258 
L 420.423896 -185.880258 
L 421.003636 -185.880258 
L 421.583377 -185.880258 
L 422.163117 -185.880258 
L 422.742857 -185.880258 
L 423.322597 -185.880258 
L 423.902338 -185.880258 
L 424.482078 -185.880258 
L 425.061818 -185.880258 
L 425.641558 -185.880258 
L 426.221299 -185.880258 
L 426.801039 -185.880258 
L 427.380779 -185.880258 
L 427.960519 -185.880258 
L 428.54026 -185.880258 
L 429.12 -185.880258 
L 429.69974 -185.880258 
L 430.279481 -185.880258 
L 430.859221 -185.880258 
L 431.438961 -185.880258 
L 432.018701 -185.880258 
L 432.598442 -185.880258 
L 433.178182 -185.880258 
L 433.757922 -185.880258 
L 434.337662 -185.880258 
L 434.917403 -185.880258 
L 435.497143 -185.880258 
L 436.076883 -185.880258 
L 436.656623 -185.880258 
L 437.236364 -185.880258 
L 437.816104 -185.880258 
L 438.395844 -185.880258 
L 438.975584 -185.880258 
L 439.555325 -185.880258 
L 440.135065 -185.880258 
L 440.714805 -185.880258 
L 441.294545 -185.880258 
L 441.874286 -185.880258 
L 442.454026 -185.880258 
L 443.033766 -185.880258 
L 443.613506 -185.880258 
L 444.193247 -185.880258 
L 444.772987 -185.880258 
L 445.352727 -185.880258 
L 445.932468 -185.880258 
L 446.512208 -185.880258 
L 447.091948 -185.880258 
L 447.671688 -185.880258 
L 448.251429 -185.880258 
L 448.831169 -185.880258 
L 449.410909 -185.880258 
L 449.990649 -185.880258 
L 450.57039 -185.880258 
L 451.15013 -185.880258 
L 451.72987 -185.880258 
L 452.30961 -185.880258 
L 452.889351 -185.880258 
L 453.469091 -185.880258 
L 454.048831 -185.880258 
L 454.628571 -185.880258 
L 455.208312 -185.880258 
L 455.788052 -185.880258 
L 456.367792 -185.880258 
L 456.947532 -185.880258 
L 457.527273 -185.880258 
L 458.107013 -185.880258 
L 458.686753 -185.880258 
L 459.266494 -185.880258 
L 459.846234 -185.880258 
L 460.425974 -185.880258 
L 461.005714 -185.880258 
L 461.585455 -185.880258 
L 462.165195 -185.880258 
L 462.744935 -185.880258 
L 463.324675 -185.880258 
L 463.904416 -185.880258 
L 464.484156 -185.880258 
L 465.063896 -185.880258 
L 465.643636 -185.880258 
L 466.223377 -185.880258 
L 466.803117 -185.880258 
L 467.382857 -185.880258 
L 467.962597 -185.880258 
L 468.542338 -185.880258 
L 469.122078 -185.880258 
L 469.701818 -185.880258 
L 470.281558 -185.880258 
L 470.861299 -185.880258 
L 471.441039 -185.880258 
L 472.020779 -185.880258 
L 472.600519 -185.880258 
L 473.18026 -185.880258 
L 473.76 -185.880258 
L 474.33974 -185.880258 
L 474.919481 -185.880258 
L 475.499221 -185.880258 
L 476.078961 -185.880258 
L 476.658701 -185.880258 
L 477.238442 -185.880258 
L 477.818182 -185.880258 
L 478.397922 -185.880258 
L 478.977662 -185.880258 
L 479.557403 -185.880258 
L 480.137143 -185.880258 
L 480.716883 -185.880258 
L 481.296623 -185.880258 
L 481.876364 -185.880258 
L 482.456104 -185.880258 
L 483.035844 -185.880258 
L 483.615584 -185.880258 
L 484.195325 -185.880258 
L 484.775065 -185.880258 
L 485.354805 -185.880258 
L 485.934545 -185.880258 
L 486.514286 -185.880258 
L 487.094026 -185.880258 
L 487.673766 -185.880258 
L 488.253506 -185.880258 
L 488.833247 -185.880258 
L 489.412987 -185.880258 
L 489.992727 -185.880258 
L 490.572468 -185.880258 
L 491.152208 -185.880258 
L 491.731948 -185.880258 
L 492.311688 -185.880258 
L 492.891429 -185.880258 
L 493.471169 -185.880258 
L 494.050909 -185.880258 
L 494.630649 -185.880258 
L 495.21039 -185.880258 
L 495.79013 -185.880258 
L 496.36987 -185.880258 
L 496.94961 -185.880258 
L 497.529351 -185.880258 
L 498.109091 -185.880258 
L 498.688831 -185.880258 
L 499.268571 -185.880258 
L 499.848312 -185.880258 
L 500.428052 -185.880258 
L 501.007792 -185.880258 
L 501.587532 -185.880258 
L 502.167273 -185.880258 
L 502.747013 -185.880258 
L 503.326753 -185.880258 
L 503.906494 -185.880258 
L 504.486234 -185.880258 
L 505.065974 -185.880258 
L 505.645714 -185.880258 
L 506.225455 -185.880258 
L 506.805195 -185.880258 
L 507.384935 -185.880258 
L 507.964675 -185.880258 
L 508.544416 -185.880258 
L 509.124156 -185.880258 
L 509.703896 -185.880258 
L 510.283636 -185.880258 
L 510.863377 -185.880258 
L 511.443117 -185.880258 
L 512.022857 -185.880258 
L 512.602597 -185.880258 
L 513.182338 -185.880258 
L 513.762078 -185.880258 
L 514.341818 -185.880258 
L 514.921558 -185.880258 
L 515.501299 -185.880258 
L 516.081039 -185.880258 
L 516.660779 -185.880258 
L 517.240519 -185.880258 
L 517.82026 -185.880258 
L 518.4 -185.880258 
L 518.4 -181.234025 
L 518.4 -181.234025 
L 517.82026 -181.234025 
L 517.240519 -181.234025 
L 516.660779 -181.234025 
L 516.081039 -181.234025 
L 515.501299 -181.234025 
L 514.921558 -181.234025 
L 514.341818 -181.234025 
L 513.762078 -181.234025 
L 513.182338 -181.234025 
L 512.602597 -181.234025 
L 512.022857 -181.234025 
L 511.443117 -181.234025 
L 510.863377 -181.234025 
L 510.283636 -181.234025 
L 509.703896 -181.234025 
L 509.124156 -181.234025 
L 508.544416 -181.234025 
L 507.964675 -181.234025 
L 507.384935 -181.234025 
L 506.805195 -181.234025 
L 506.225455 -181.234025 
L 505.645714 -181.234025 
L 505.065974 -181.234025 
L 504.486234 -181.234025 
L 503.906494 -181.234025 
L 503.326753 -181.234025 
L 502.747013 -181.234025 
L 502.167273 -181.234025 
L 501.587532 -181.234025 
L 501.007792 -181.234025 
L 500.428052 -181.234025 
L 499.848312 -181.234025 
L 499.268571 -181.234025 
L 498.688831 -181.234025 
L 498.109091 -181.234025 
L 497.529351 -181.234025 
L 496.94961 -181.234025 
L 496.36987 -181.234025 
L 495.79013 -181.234025 
L 495.21039 -181.234025 
L 494.630649 -181.234025 
L 494.050909 -181.234025 
L 493.471169 -181.234025 
L 492.891429 -181.234025 
L 492.311688 -181.234025 
L 491.731948 -181.234025 
L 491.152208 -181.234025 
L 490.572468 -181.234025 
L 489.992727 -181.234025 
L 489.412987 -181.234025 
L 488.833247 -181.234025 
L 488.253506 -181.234025 
L 487.673766 -181.234025 
L 487.094026 -181.234025 
L 486.514286 -181.234025 
L 485.934545 -181.234025 
L 485.354805 -181.234025 
L 484.775065 -181.234025 
L 484.195325 -181.234025 
L 483.615584 -181.234025 
L 483.035844 -181.234025 
L 482.456104 -181.234025 
L 481.876364 -181.234025 
L 481.296623 -181.234025 
L 480.716883 -181.234025 
L 480.137143 -181.234025 
L 479.557403 -181.234025 
L 478.977662 -181.234025 
L 478.397922 -181.234025 
L 477.818182 -181.234025 
L 477.238442 -181.234025 
L 476.658701 -181.234025 
L 476.078961 -181.234025 
L 475.499221 -181.234025 
L 474.919481 -181.234025 
L 474.33974 -181.234025 
L 473.76 -181.234025 
L 473.18026 -181.234025 
L 472.600519 -181.234025 
L 472.020779 -181.234025 
L 471.441039 -181.234025 
L 470.861299 -181.234025 
L 470.281558 -181.234025 
L 469.701818 -181.234025 
L 469.122078 -181.234025 
L 468.542338 -181.234025 
L 467.962597 -181.234025 
L 467.382857 -181.234025 
L 466.803117 -181.234025 
L 466.223377 -181.234025 
L 465.643636 -181.234025 
L 465.063896 -181.234025 
L 464.484156 -181.234025 
L 463.904416 -181.234025 
L 463.324675 -181.234025 
L 462.744935 -181.234025 
L 462.165195 -181.234025 
L 461.585455 -181.234025 
L 461.005714 -181.234025 
L 460.425974 -181.234025 
L 459.846234 -181.234025 
L 459.266494 -181.234025 
L 458.686753 -181.234025 
L 458.107013 -181.234025 
L 457.527273 -181.234025 
L 456.947532 -181.234025 
L 456.367792 -181.234025 
L 455.788052 -181.234025 
L 455.208312 -181.234025 
L 454.628571 -181.234025 
L 454.048831 -181.234025 
L 453.469091 -181.234025 
L 452.889351 -181.234025 
L 452.30961 -181.234025 
L 451.72987 -181.234025 
L 451.15013 -181.234025 
L 450.57039 -181.234025 
L 449.990649 -181.234025 
L 449.410909 -181.234025 
L 448.831169 -181.234025 
L 448.251429 -181.234025 
L 447.671688 -181.234025 
L 447.091948 -181.234025 
L 446.512208 -181.234025 
L 445.932468 -181.234025 
L 445.352727 -181.234025 
L 444.772987 -181.234025 
L 444.193247 -181.234025 
L 443.613506 -181.234025 
L 443.033766 -181.234025 
L 442.454026 -181.234025 
L 441.874286 -181.234025 
L 441.294545 -181.234025 
L 440.714805 -181.234025 
L 440.135065 -181.234025 
L 439.555325 -181.234025 
L 438.975584 -181.234025 
L 438.395844 -181.234025 
L 437.816104 -181.234025 
L 437.236364 -181.234025 
L 436.656623 -181.234025 
L 436.076883 -181.234025 
L 435.497143 -181.234025 
L 434.917403 -181.234025 
L 434.337662 -181.234025 
L 433.757922 -181.234025 
L 433.178182 -181.234025 
L 432.598442 -181.234025 
L 432.018701 -181.234025 
L 431.438961 -181.234025 
L 430.859221 -181.234025 
L 430.279481 -181.234025 
L 429.69974 -181.234025 
L 429.12 -181.234025 
L 428.54026 -181.234025 
L 427.960519 -181.234025 
L 427.380779 -181.234025 
L 426.801039 -181.234025 
L 426.221299 -181.234025 
L 425.641558 -181.234025 
L 425.061818 -181.234025 
L 424.482078 -181.234025 
L 423.902338 -181.234025 
L 423.322597 -181.234025 
L 422.742857 -181.234025 
L 422.163117 -181.234025 
L 421.583377 -181.234025 
L 421.003636 -181.234025 
L 420.423896 -181.234025 
L 419.844156 -181.234025 
L 419.264416 -181.234025 
L 418.684675 -181.234025 
L 418.104935 -181.234025 
L 417.525195 -181.234025 
L 416.945455 -181.234025 
L 416.365714 -181.234025 
L 415.785974 -181.234025 
L 415.206234 -181.234025 
L 414.626494 -181.234025 
L 414.046753 -181.234025 
L 413.467013 -181.234025 
L 412.887273 -181.234025 
L 412.307532 -181.234025 
L 411.727792 -181.234025 
L 411.148052 -181.234025 
L 410.568312 -181.234025 
L 409.988571 -181.234025 
L 409.408831 -181.234025 
L 408.829091 -181.234025 
L 408.249351 -181.234025 
L 407.66961 -181.234025 
L 407.08987 -181.234025 
L 406.51013 -181.234025 
L 405.93039 -181.234025 
L 405.350649 -181.234025 
L 404.770909 -181.234025 
L 404.191169 -181.234025 
L 403.611429 -181.234025 
L 403.031688 -181.234025 
L 402.451948 -181.234025 
L 401.872208 -181.234025 
L 401.292468 -181.234025 
L 400.712727 -181.234025 
L 400.132987 -181.234025 
L 399.553247 -181.234025 
L 398.973506 -181.234025 
L 398.393766 -181.234025 
L 397.814026 -181.234025 
L 397.234286 -181.234025 
L 396.654545 -181.234025 
L 396.074805 -181.234025 
L 395.495065 -181.234025 
L 394.915325 -181.234025 
L 394.335584 -181.234025 
L 393.755844 -181.234025 
L 393.176104 -181.234025 
L 392.596364 -181.234025 
L 392.016623 -181.234025 
L 391.436883 -181.234025 
L 390.857143 -181.234025 
L 390.277403 -181.234025 
L 389.697662 -181.234025 
L 389.117922 -181.234025 
L 388.538182 -181.234025 
L 387.958442 -181.234025 
L 387.378701 -181.234025 
L 386.798961 -181.234025 
L 386.219221 -181.234025 
L 385.639481 -181.234025 
L 385.05974 -181.234025 
L 384.48 -181.234025 
L 383.90026 -181.234025 
L 383.320519 -181.234025 
L 382.740779 -181.234025 
L 382.161039 -181.234025 
L 381.581299 -181.234025 
L 381.001558 -181.234025 
L 380.421818 -181.234025 
L 379.842078 -181.234025 
L 379.262338 -181.234025 
L 378.682597 -181.234025 
L 378.102857 -181.234025 
L 377.523117 -181.234025 
L 376.943377 -181.234025 
L 376.363636 -181.234025 
L 375.783896 -181.234025 
L 375.204156 -181.234025 
L 374.624416 -181.234025 
L 374.044675 -181.234025 
L 373.464935 -181.234025 
L 372.885195 -181.234025 
L 372.305455 -181.234025 
L 371.725714 -181.234025 
L 371.145974 -181.234025 
L 370.566234 -181.234025 
L 369.986494 -181.234025 
L 369.406753 -181.234025 
L 368.827013 -181.234025 
L 368.247273 -181.234025 
L 367.667532 -181.234025 
L 367.087792 -181.234025 
L 366.508052 -181.234025 
L 365.928312 -181.234025 
L 365.348571 -181.234025 
L 364.768831 -181.234025 
L 364.189091 -181.234025 
L 363.609351 -181.234025 
L 363.02961 -181.234025 
L 362.44987 -181.234025 
L 361.87013 -181.234025 
L 361.29039 -181.234025 
L 360.710649 -181.234025 
L 360.130909 -181.234025 
L 359.551169 -181.234025 
L 358.971429 -181.234025 
L 358.391688 -181.234025 
L 357.811948 -181.234025 
L 357.232208 -181.234025 
L 356.652468 -181.234025 
L 356.072727 -181.234025 
L 355.492987 -181.234025 
L 354.913247 -181.234025 
L 354.333506 -181.234025 
L 353.753766 -181.234025 
L 353.174026 -181.234025 
L 352.594286 -181.234025 
L 352.014545 -181.234025 
L 351.434805 -181.234025 
L 350.855065 -181.234025 
L 350.275325 -181.234025 
L 349.695584 -181.234025 
L 349.115844 -181.234025 
L 348.536104 -181.234025 
L 347.956364 -181.234025 
L 347.376623 -181.234025 
L 346.796883 -181.234025 
L 346.217143 -181.234025 
L 345.637403 -181.234025 
L 345.057662 -181.234025 
L 344.477922 -181.234025 
L 343.898182 -181.234025 
L 343.318442 -181.234025 
L 342.738701 -181.234025 
L 342.158961 -181.234025 
L 341.579221 -181.234025 
L 340.999481 -181.234025 
L 340.41974 -181.234025 
L 339.84 -181.234025 
L 339.26026 -181.234025 
L 338.680519 -181.234025 
L 338.100779 -181.234025 
L 337.521039 -181.234025 
L 336.941299 -181.234025 
L 336.361558 -181.234025 
L 335.781818 -181.234025 
L 335.202078 -181.234025 
L 334.622338 -181.234025 
L 334.042597 -181.234025 
L 333.462857 -181.234025 
L 332.883117 -181.234025 
L 332.303377 -181.234025 
L 331.723636 -181.234025 
L 331.143896 -181.234025 
L 330.564156 -181.234025 
L 329.984416 -181.234025 
L 329.404675 -181.234025 
L 328.824935 -181.234025 
L 328.245195 -181.234025 
L 327.665455 -181.234025 
L 327.085714 -181.234025 
L 326.505974 -181.234025 
L 325.926234 -181.234025 
L 325.346494 -181.234025 
L 324.766753 -181.234025 
L 324.187013 -181.234025 
L 323.607273 -181.234025 
L 323.027532 -181.234025 
L 322.447792 -181.234025 
L 321.868052 -181.234025 
L 321.288312 -181.234025 
L 320.708571 -181.234025 
L 320.128831 -181.234025 
L 319.549091 -181.234025 
L 318.969351 -181.234025 
L 318.38961 -181.234025 
L 317.80987 -181.234025 
L 317.23013 -181.234025 
L 316.65039 -181.234025 
L 316.070649 -181.234025 
L 315.490909 -181.234025 
L 314.911169 -181.234025 
L 314.331429 -181.234025 
L 313.751688 -181.234025 
L 313.171948 -181.234025 
L 312.592208 -181.234025 
L 312.012468 -181.234025 
L 311.432727 -181.234025 
L 310.852987 -181.234025 
L 310.273247 -181.234025 
L 309.693506 -181.234025 
L 309.113766 -181.234025 
L 308.534026 -181.234025 
L 307.954286 -181.234025 
L 307.374545 -181.234025 
L 306.794805 -181.234025 
L 306.215065 -181.234025 
L 305.635325 -181.234025 
L 305.055584 -181.234025 
L 304.475844 -181.234025 
L 303.896104 -181.234025 
L 303.316364 -181.234025 
L 302.736623 -181.234025 
L 302.156883 -181.234025 
L 301.577143 -181.234025 
L 300.997403 -181.234025 
L 300.417662 -181.234025 
L 299.837922 -181.234025 
L 299.258182 -181.234025 
L 298.678442 -181.234025 
L 298.098701 -181.234025 
L 297.518961 -181.234025 
L 296.939221 -181.234025 
L 296.359481 -181.234025 
L 295.77974 -181.234025 
L 295.2 -181.234025 
L 294.62026 -181.234025 
L 294.040519 -181.234025 
L 293.460779 -181.234025 
L 292.881039 -181.234025 
L 292.301299 -181.234025 
L 291.721558 -181.234025 
L 291.141818 -181.234025 
L 290.562078 -181.234025 
L 289.982338 -181.234025 
L 289.402597 -181.234025 
L 288.822857 -181.234025 
L 288.243117 -181.234025 
L 287.663377 -181.234025 
L 287.083636 -181.234025 
L 286.503896 -181.234025 
L 285.924156 -181.234025 
L 285.344416 -181.234025 
L 284.764675 -181.234025 
L 284.184935 -181.234025 
L 283.605195 -181.234025 
L 283.025455 -181.234025 
L 282.445714 -181.234025 
L 281.865974 -181.234025 
L 281.286234 -181.234025 
L 280.706494 -181.234025 
L 280.126753 -181.234025 
L 279.547013 -181.234025 
L 278.967273 -181.234025 
L 278.387532 -181.234025 
L 277.807792 -181.234025 
L 277.228052 -181.234025 
L 276.648312 -181.234025 
L 276.068571 -181.234025 
L 275.488831 -181.234025 
L 274.909091 -181.234025 
L 274.329351 -181.234025 
L 273.74961 -181.234025 
L 273.16987 -181.234025 
L 272.59013 -181.234025 
L 272.01039 -181.234025 
L 271.430649 -181.234025 
L 270.850909 -181.234025 
L 270.271169 -181.234025 
L 269.691429 -181.234025 
L 269.111688 -181.234025 
L 268.531948 -181.234025 
L 267.952208 -181.234025 
L 267.372468 -181.234025 
L 266.792727 -181.234025 
L 266.212987 -181.234025 
L 265.633247 -181.234025 
L 265.053506 -181.234025 
L 264.473766 -181.234025 
L 263.894026 -181.234025 
L 263.314286 -181.234025 
L 262.734545 -181.234025 
L 262.154805 -181.234025 
L 261.575065 -181.234025 
L 260.995325 -181.234025 
L 260.415584 -181.234025 
L 259.835844 -181.234025 
L 259.256104 -181.234025 
L 258.676364 -181.234025 
L 258.096623 -181.234025 
L 257.516883 -181.234025 
L 256.937143 -181.234025 
L 256.357403 -181.234025 
L 255.777662 -181.234025 
L 255.197922 -181.234025 
L 254.618182 -181.234025 
L 254.038442 -181.234025 
L 253.458701 -181.234025 
L 252.878961 -181.234025 
L 252.299221 -181.234025 
L 251.719481 -181.234025 
L 251.13974 -181.234025 
L 250.56 -181.234025 
L 249.98026 -181.234025 
L 249.400519 -181.234025 
L 248.820779 -181.234025 
L 248.241039 -181.234025 
L 247.661299 -181.234025 
L 247.081558 -181.234025 
L 246.501818 -181.234025 
L 245.922078 -181.234025 
L 245.342338 -181.234025 
L 244.762597 -181.234025 
L 244.182857 -181.234025 
L 243.603117 -181.234025 
L 243.023377 -181.234025 
L 242.443636 -181.234025 
L 241.863896 -181.234025 
L 241.284156 -181.234025 
L 240.704416 -181.234025 
L 240.124675 -181.234025 
L 239.544935 -181.234025 
L 238.965195 -181.234025 
L 238.385455 -181.234025 
L 237.805714 -181.234025 
L 237.225974 -181.234025 
L 236.646234 -181.234025 
L 236.066494 -181.234025 
L 235.486753 -181.234025 
L 234.907013 -181.234025 
L 234.327273 -181.234025 
L 233.747532 -181.234025 
L 233.167792 -181.234025 
L 232.588052 -181.234025 
L 232.008312 -181.234025 
L 231.428571 -181.234025 
L 230.848831 -181.234025 
L 230.269091 -181.234025 
L 229.689351 -181.234025 
L 229.10961 -181.234025 
L 228.52987 -181.234025 
L 227.95013 -181.234025 
L 227.37039 -181.234025 
L 226.790649 -181.234025 
L 226.210909 -181.234025 
L 225.631169 -181.234025 
L 225.051429 -181.234025 
L 224.471688 -181.234025 
L 223.891948 -181.234025 
L 223.312208 -181.234025 
L 222.732468 -181.234025 
L 222.152727 -181.234025 
L 221.572987 -181.234025 
L 220.993247 -181.234025 
L 220.413506 -181.234025 
L 219.833766 -181.234025 
L 219.254026 -181.234025 
L 218.674286 -181.234025 
L 218.094545 -181.234025 
L 217.514805 -181.234025 
L 216.935065 -181.234025 
L 216.355325 -181.234025 
L 215.775584 -181.234025 
L 215.195844 -181.234025 
L 214.616104 -181.234025 
L 214.036364 -181.234025 
L 213.456623 -181.234025 
L 212.876883 -181.234025 
L 212.297143 -181.234025 
L 211.717403 -181.234025 
L 211.137662 -181.234025 
L 210.557922 -181.234025 
L 209.978182 -181.234025 
L 209.398442 -181.234025 
L 208.818701 -181.234025 
L 208.238961 -181.234025 
L 207.659221 -181.234025 
L 207.079481 -181.234025 
L 206.49974 -181.234025 
L 205.92 -181.234025 
L 205.34026 -181.234025 
L 204.760519 -181.234025 
L 204.180779 -181.234025 
L 203.601039 -181.234025 
L 203.021299 -181.234025 
L 202.441558 -181.234025 
L 201.861818 -181.234025 
L 201.282078 -181.234025 
L 200.702338 -181.234025 
L 200.122597 -181.234025 
L 199.542857 -181.234025 
L 198.963117 -181.234025 
L 198.383377 -181.234025 
L 197.803636 -181.234025 
L 197.223896 -181.234025 
L 196.644156 -181.234025 
L 196.064416 -181.234025 
L 195.484675 -181.234025 
L 194.904935 -181.234025 
L 194.325195 -181.234025 
L 193.745455 -181.234025 
L 193.165714 -181.234025 
L 192.585974 -181.234025 
L 192.006234 -181.234025 
L 191.426494 -181.234025 
L 190.846753 -181.234025 
L 190.267013 -181.234025 
L 189.687273 -181.234025 
L 189.107532 -181.234025 
L 188.527792 -181.234025 
L 187.948052 -181.234025 
L 187.368312 -181.234025 
L 186.788571 -181.234025 
L 186.208831 -181.234025 
L 185.629091 -181.234025 
L 185.049351 -181.234025 
L 184.46961 -181.234025 
L 183.88987 -181.234025 
L 183.31013 -181.234025 
L 182.73039 -181.234025 
L 182.150649 -181.234025 
L 181.570909 -181.234025 
L 180.991169 -181.234025 
L 180.411429 -181.234025 
L 179.831688 -181.234025 
L 179.251948 -181.234025 
L 178.672208 -181.234025 
L 178.092468 -181.234025 
L 177.512727 -181.234025 
L 176.932987 -181.234025 
L 176.353247 -181.234025 
L 175.773506 -181.234025 
L 175.193766 -181.234025 
L 174.614026 -181.234025 
L 174.034286 -181.234025 
L 173.454545 -181.234025 
L 172.874805 -181.234025 
L 172.295065 -181.234025 
L 171.715325 -181.234025 
L 171.135584 -181.234025 
L 170.555844 -181.234025 
L 169.976104 -181.234025 
L 169.396364 -181.234025 
L 168.816623 -181.234025 
L 168.236883 -181.234025 
L 167.657143 -181.234025 
L 167.077403 -181.234025 
L 166.497662 -181.234025 
L 165.917922 -181.234025 
L 165.338182 -181.234025 
L 164.758442 -181.234025 
L 164.178701 -181.234025 
L 163.598961 -181.234025 
L 163.019221 -181.234025 
L 162.439481 -181.234025 
L 161.85974 -181.234025 
L 161.28 -181.234025 
L 160.70026 -181.234025 
L 160.120519 -181.234025 
L 159.540779 -181.234025 
L 158.961039 -181.234025 
L 158.381299 -181.234025 
L 157.801558 -181.234025 
L 157.221818 -181.234025 
L 156.642078 -181.234025 
L 156.062338 -181.234025 
L 155.482597 -181.234025 
L 154.902857 -181.234025 
L 154.323117 -181.234025 
L 153.743377 -181.234025 
L 153.163636 -181.234025 
L 152.583896 -181.234025 
L 152.004156 -181.234025 
L 151.424416 -181.234025 
L 150.844675 -181.234025 
L 150.264935 -181.234025 
L 149.685195 -181.234025 
L 149.105455 -181.234025 
L 148.525714 -181.234025 
L 147.945974 -181.234025 
L 147.366234 -181.234025 
L 146.786494 -181.234025 
L 146.206753 -181.234025 
L 145.627013 -181.234025 
L 145.047273 -181.234025 
L 144.467532 -181.234025 
L 143.887792 -181.234025 
L 143.308052 -181.234025 
L 142.728312 -181.234025 
L 142.148571 -181.234025 
L 141.568831 -181.234025 
L 140.989091 -181.234025 
L 140.409351 -181.234025 
L 139.82961 -181.234025 
L 139.24987 -181.234025 
L 138.67013 -181.234025 
L 138.09039 -181.234025 
L 137.510649 -181.234025 
L 136.930909 -181.234025 
L 136.351169 -181.234025 
L 135.771429 -181.234025 
L 135.191688 -181.234025 
L 134.611948 -181.234025 
L 134.032208 -181.234025 
L 133.452468 -181.234025 
L 132.872727 -181.234025 
L 132.292987 -181.234025 
L 131.713247 -181.234025 
L 131.133506 -181.234025 
L 130.553766 -181.234025 
L 129.974026 -181.234025 
L 129.394286 -181.234025 
L 128.814545 -181.234025 
L 128.234805 -181.234025 
L 127.655065 -181.234025 
L 127.075325 -181.234025 
L 126.495584 -181.234025 
L 125.915844 -181.234025 
L 125.336104 -181.234025 
L 124.756364 -181.234025 
L 124.176623 -181.234025 
L 123.596883 -181.234025 
L 123.017143 -181.234025 
L 122.437403 -181.234025 
L 121.857662 -181.234025 
L 121.277922 -181.234025 
L 120.698182 -181.234025 
L 120.118442 -181.234025 
L 119.538701 -181.234025 
L 118.958961 -181.234025 
L 118.379221 -181.234025 
L 117.799481 -181.234025 
L 117.21974 -181.234025 
L 116.64 -181.234025 
L 116.06026 -181.234025 
L 115.480519 -181.234025 
L 114.900779 -181.234025 
L 114.321039 -181.234025 
L 113.741299 -181.234025 
L 113.161558 -181.234025 
L 112.581818 -181.234025 
L 112.002078 -181.234025 
L 111.422338 -181.234025 
L 110.842597 -181.234025 
L 110.262857 -181.234025 
L 109.683117 -181.234025 
L 109.103377 -181.234025 
L 108.523636 -181.234025 
L 107.943896 -181.234025 
L 107.364156 -181.234025 
L 106.784416 -181.234025 
L 106.204675 -181.234025 
L 105.624935 -181.234025 
L 105.045195 -181.234025 
L 104.465455 -181.234025 
L 103.885714 -181.234025 
L 103.305974 -181.234025 
L 102.726234 -181.234025 
L 102.146494 -181.234025 
L 101.566753 -181.234025 
L 100.987013 -181.234025 
L 100.407273 -181.234025 
L 99.827532 -181.234025 
L 99.247792 -181.234025 
L 98.668052 -181.234025 
L 98.088312 -181.234025 
L 97.508571 -181.234025 
L 96.928831 -181.234025 
L 96.349091 -181.234025 
L 95.769351 -181.234025 
L 95.18961 -181.234025 
L 94.60987 -181.234025 
L 94.03013 -181.234025 
L 93.45039 -181.234025 
L 92.870649 -181.234025 
L 92.290909 -181.234025 
L 91.711169 -181.234025 
L 91.131429 -181.234025 
L 90.551688 -181.234025 
L 89.971948 -181.234025 
L 89.392208 -181.234025 
L 88.812468 -181.234025 
L 88.232727 -181.234025 
L 87.652987 -181.234025 
L 87.073247 -181.234025 
L 86.493506 -181.234025 
L 85.913766 -181.234025 
L 85.334026 -181.234025 
L 84.754286 -181.234025 
L 84.174545 -181.234025 
L 83.594805 -181.234025 
L 83.015065 -181.234025 
L 82.435325 -181.234025 
L 81.855584 -181.234025 
L 81.275844 -181.234025 
L 80.696104 -181.234025 
L 80.116364 -181.234025 
L 79.536623 -181.234025 
L 78.956883 -181.234025 
L 78.377143 -181.234025 
L 77.797403 -181.234025 
L 77.217662 -181.234025 
L 76.637922 -181.234025 
L 76.058182 -181.234025 
L 75.478442 -181.234025 
L 74.898701 -181.234025 
L 74.318961 -181.234025 
L 73.739221 -181.234025 
L 73.159481 -181.234025 
L 72.57974 -181.234025 
L 72 -181.234025 
z
" id="m5278f1299b"/>
    </defs>
    <g clip-path="url(#p7d73a2a889)">
     <use style="fill-opacity:0.15;" x="0" xlink:href="#m5278f1299b" y="360"/>
    </g>
   </g>
   <g id="matplotlib.axis_1">
    <g id="xtick_1">
     <g id="line2d_1">
      <defs>
       <path d="M 0 0 
L 0 3.5 
" id="m68e875a433" style="stroke:#000000;stroke-width:0.8;"/>
      </defs>
      <g>
       <use style="stroke:#000000;stroke-width:0.8;" x="72" xlink:href="#m68e875a433" y="320.4"/>
      </g>
     </g>
     <g id="text_1">
      <!-- 0.0 -->
      <g transform="translate(60.867812 338.037813)scale(0.14 -0.14)">
       <defs>
        <path d="M 2034 4250 
Q 1547 4250 1301 3770 
Q 1056 3291 1056 2328 
Q 1056 1369 1301 889 
Q 1547 409 2034 409 
Q 2525 409 2770 889 
Q 3016 1369 3016 2328 
Q 3016 3291 2770 3770 
Q 2525 4250 2034 4250 
z
M 2034 4750 
Q 2819 4750 3233 4129 
Q 3647 3509 3647 2328 
Q 3647 1150 3233 529 
Q 2819 -91 2034 -91 
Q 1250 -91 836 529 
Q 422 1150 422 2328 
Q 422 3509 836 4129 
Q 1250 4750 2034 4750 
z
" id="DejaVuSans-30" transform="scale(0.015625)"/>
        <path d="M 684 794 
L 1344 794 
L 1344 0 
L 684 0 
L 684 794 
z
" id="DejaVuSans-2e" transform="scale(0.015625)"/>
       </defs>
       <use xlink:href="#DejaVuSans-30"/>
       <use x="63.623047" xlink:href="#DejaVuSans-2e"/>
       <use x="95.410156" xlink:href="#DejaVuSans-30"/>
      </g>
     </g>
    </g>
    <g id="xtick_2">
     <g id="line2d_2">
      <g>
       <use style="stroke:#000000;stroke-width:0.8;" x="127.850265" xlink:href="#m68e875a433" y="320.4"/>
      </g>
     </g>
     <g id="text_2">
      <!-- 2.5 -->
      <g transform="translate(116.718078 338.037813)scale(0.14 -0.14)">
       <defs>
        <path d="M 1228 531 
L 3431 531 
L 3431 0 
L 469 0 
L 469 531 
Q 828 903 1448 1529 
Q 2069 2156 2228 2338 
Q 2531 2678 2651 2914 
Q 2772 3150 2772 3378 
Q 2772 3750 2511 3984 
Q 2250 4219 1831 4219 
Q 1534 4219 1204 4116 
Q 875 4013 500 3803 
L 500 4441 
Q 881 4594 1212 4672 
Q 1544 4750 1819 4750 
Q 2544 4750 2975 4387 
Q 3406 4025 3406 3419 
Q 3406 3131 3298 2873 
Q 3191 2616 2906 2266 
Q 2828 2175 2409 1742 
Q 1991 1309 1228 531 
z
" id="DejaVuSans-32" transform="scale(0.015625)"/>
        <path d="M 691 4666 
L 3169 4666 
L 3169 4134 
L 1269 4134 
L 1269 2991 
Q 1406 3038 1543 3061 
Q 1681 3084 1819 3084 
Q 2600 3084 3056 2656 
Q 3513 2228 3513 1497 
Q 3513 744 3044 326 
Q 2575 -91 1722 -91 
Q 1428 -91 1123 -41 
Q 819 9 494 109 
L 494 744 
Q 775 591 1075 516 
Q 1375 441 1709 441 
Q 2250 441 2565 725 
Q 2881 1009 2881 1497 
Q 2881 1984 2565 2268 
Q 2250 2553 1709 2553 
Q 1456 2553 1204 2497 
Q 953 2441 691 2322 
L 691 4666 
z
" id="DejaVuSans-35" transform="scale(0.015625)"/>
       </defs>
       <use xlink:href="#DejaVuSans-32"/>
       <use x="63.623047" xlink:href="#DejaVuSans-2e"/>
       <use x="95.410156" xlink:href="#DejaVuSans-35"/>
      </g>
     </g>
    </g>
    <g id="xtick_3">
     <g id="line2d_3">
      <g>
       <use style="stroke:#000000;stroke-width:0.8;" x="183.70053" xlink:href="#m68e875a433" y="320.4"/>
      </g>
     </g>
     <g id="text_3">
      <!-- 5.0 -->
      <g transform="translate(172.568343 338.037813)scale(0.14 -0.14)">
       <use xlink:href="#DejaVuSans-35"/>
       <use x="63.623047" xlink:href="#DejaVuSans-2e"/>
       <use x="95.410156" xlink:href="#DejaVuSans-30"/>
      </g>
     </g>
    </g>
    <g id="xtick_4">
     <g id="line2d_4">
      <g>
       <use style="stroke:#000000;stroke-width:0.8;" x="239.550796" xlink:href="#m68e875a433" y="320.4"/>
      </g>
     </g>
     <g id="text_4">
      <!-- 7.5 -->
      <g transform="translate(228.418608 338.037813)scale(0.14 -0.14)">
       <defs>
        <path d="M 525 4666 
L 3525 4666 
L 3525 4397 
L 1831 0 
L 1172 0 
L 2766 4134 
L 525 4134 
L 525 4666 
z
" id="DejaVuSans-37" transform="scale(0.015625)"/>
       </defs>
       <use xlink:href="#DejaVuSans-37"/>
       <use x="63.623047" xlink:href="#DejaVuSans-2e"/>
       <use x="95.410156" xlink:href="#DejaVuSans-35"/>
      </g>
     </g>
    </g>
    <g id="xtick_5">
     <g id="line2d_5">
      <g>
       <use style="stroke:#000000;stroke-width:0.8;" x="295.401061" xlink:href="#m68e875a433" y="320.4"/>
      </g>
     </g>
     <g id="text_5">
      <!-- 10.0 -->
      <g transform="translate(279.815123 338.037813)scale(0.14 -0.14)">
       <defs>
        <path d="M 794 531 
L 1825 531 
L 1825 4091 
L 703 3866 
L 703 4441 
L 1819 4666 
L 2450 4666 
L 2450 531 
L 3481 531 
L 3481 0 
L 794 0 
L 794 531 
z
" id="DejaVuSans-31" transform="scale(0.015625)"/>
       </defs>
       <use xlink:href="#DejaVuSans-31"/>
       <use x="63.623047" xlink:href="#DejaVuSans-30"/>
       <use x="127.246094" xlink:href="#DejaVuSans-2e"/>
       <use x="159.033203" xlink:href="#DejaVuSans-30"/>
      </g>
     </g>
    </g>
    <g id="xtick_6">
     <g id="line2d_6">
      <g>
       <use style="stroke:#000000;stroke-width:0.8;" x="351.251326" xlink:href="#m68e875a433" y="320.4"/>
      </g>
     </g>
     <g id="text_6">
      <!-- 12.5 -->
      <g transform="translate(335.665389 338.037813)scale(0.14 -0.14)">
       <use xlink:href="#DejaVuSans-31"/>
       <use x="63.623047" xlink:href="#DejaVuSans-32"/>
       <use x="127.246094" xlink:href="#DejaVuSans-2e"/>
       <use x="159.033203" xlink:href="#DejaVuSans-35"/>
      </g>
     </g>
    </g>
    <g id="xtick_7">
     <g id="line2d_7">
      <g>
       <use style="stroke:#000000;stroke-width:0.8;" x="407.101591" xlink:href="#m68e875a433" y="320.4"/>
      </g>
     </g>
     <g id="text_7">
      <!-- 15.0 -->
      <g transform="translate(391.515654 338.037813)scale(0.14 -0.14)">
       <use xlink:href="#DejaVuSans-31"/>
       <use x="63.623047" xlink:href="#DejaVuSans-35"/>
       <use x="127.246094" xlink:href="#DejaVuSans-2e"/>
       <use x="159.033203" xlink:href="#DejaVuSans-30"/>
      </g>
     </g>
    </g>
    <g id="xtick_8">
     <g id="line2d_8">
      <g>
       <use style="stroke:#000000;stroke-width:0.8;" x="462.951857" xlink:href="#m68e875a433" y="320.4"/>
      </g>
     </g>
     <g id="text_8">
      <!-- 17.5 -->
      <g transform="translate(447.365919 338.037813)scale(0.14 -0.14)">
       <use xlink:href="#DejaVuSans-31"/>
       <use x="63.623047" xlink:href="#DejaVuSans-37"/>
       <use x="127.246094" xlink:href="#DejaVuSans-2e"/>
       <use x="159.033203" xlink:href="#DejaVuSans-35"/>
      </g>
     </g>
    </g>
    <g id="text_9">
     <!-- Time [Seconds] -->
     <g transform="translate(233.23 357.106875)scale(0.16 -0.16)">
      <defs>
       <path d="M -19 4666 
L 3928 4666 
L 3928 4134 
L 2272 4134 
L 2272 0 
L 1638 0 
L 1638 4134 
L -19 4134 
L -19 4666 
z
" id="DejaVuSans-54" transform="scale(0.015625)"/>
       <path d="M 603 3500 
L 1178 3500 
L 1178 0 
L 603 0 
L 603 3500 
z
M 603 4863 
L 1178 4863 
L 1178 4134 
L 603 4134 
L 603 4863 
z
" id="DejaVuSans-69" transform="scale(0.015625)"/>
       <path d="M 3328 2828 
Q 3544 3216 3844 3400 
Q 4144 3584 4550 3584 
Q 5097 3584 5394 3201 
Q 5691 2819 5691 2113 
L 5691 0 
L 5113 0 
L 5113 2094 
Q 5113 2597 4934 2840 
Q 4756 3084 4391 3084 
Q 3944 3084 3684 2787 
Q 3425 2491 3425 1978 
L 3425 0 
L 2847 0 
L 2847 2094 
Q 2847 2600 2669 2842 
Q 2491 3084 2119 3084 
Q 1678 3084 1418 2786 
Q 1159 2488 1159 1978 
L 1159 0 
L 581 0 
L 581 3500 
L 1159 3500 
L 1159 2956 
Q 1356 3278 1631 3431 
Q 1906 3584 2284 3584 
Q 2666 3584 2933 3390 
Q 3200 3197 3328 2828 
z
" id="DejaVuSans-6d" transform="scale(0.015625)"/>
       <path d="M 3597 1894 
L 3597 1613 
L 953 1613 
Q 991 1019 1311 708 
Q 1631 397 2203 397 
Q 2534 397 2845 478 
Q 3156 559 3463 722 
L 3463 178 
Q 3153 47 2828 -22 
Q 2503 -91 2169 -91 
Q 1331 -91 842 396 
Q 353 884 353 1716 
Q 353 2575 817 3079 
Q 1281 3584 2069 3584 
Q 2775 3584 3186 3129 
Q 3597 2675 3597 1894 
z
M 3022 2063 
Q 3016 2534 2758 2815 
Q 2500 3097 2075 3097 
Q 1594 3097 1305 2825 
Q 1016 2553 972 2059 
L 3022 2063 
z
" id="DejaVuSans-65" transform="scale(0.015625)"/>
       <path id="DejaVuSans-20" transform="scale(0.015625)"/>
       <path d="M 550 4863 
L 1875 4863 
L 1875 4416 
L 1125 4416 
L 1125 -397 
L 1875 -397 
L 1875 -844 
L 550 -844 
L 550 4863 
z
" id="DejaVuSans-5b" transform="scale(0.015625)"/>
       <path d="M 3425 4513 
L 3425 3897 
Q 3066 4069 2747 4153 
Q 2428 4238 2131 4238 
Q 1616 4238 1336 4038 
Q 1056 3838 1056 3469 
Q 1056 3159 1242 3001 
Q 1428 2844 1947 2747 
L 2328 2669 
Q 3034 2534 3370 2195 
Q 3706 1856 3706 1288 
Q 3706 609 3251 259 
Q 2797 -91 1919 -91 
Q 1588 -91 1214 -16 
Q 841 59 441 206 
L 441 856 
Q 825 641 1194 531 
Q 1563 422 1919 422 
Q 2459 422 2753 634 
Q 3047 847 3047 1241 
Q 3047 1584 2836 1778 
Q 2625 1972 2144 2069 
L 1759 2144 
Q 1053 2284 737 2584 
Q 422 2884 422 3419 
Q 422 4038 858 4394 
Q 1294 4750 2059 4750 
Q 2388 4750 2728 4690 
Q 3069 4631 3425 4513 
z
" id="DejaVuSans-53" transform="scale(0.015625)"/>
       <path d="M 3122 3366 
L 3122 2828 
Q 2878 2963 2633 3030 
Q 2388 3097 2138 3097 
Q 1578 3097 1268 2742 
Q 959 2388 959 1747 
Q 959 1106 1268 751 
Q 1578 397 2138 397 
Q 2388 397 2633 464 
Q 2878 531 3122 666 
L 3122 134 
Q 2881 22 2623 -34 
Q 2366 -91 2075 -91 
Q 1284 -91 818 406 
Q 353 903 353 1747 
Q 353 2603 823 3093 
Q 1294 3584 2113 3584 
Q 2378 3584 2631 3529 
Q 2884 3475 3122 3366 
z
" id="DejaVuSans-63" transform="scale(0.015625)"/>
       <path d="M 1959 3097 
Q 1497 3097 1228 2736 
Q 959 2375 959 1747 
Q 959 1119 1226 758 
Q 1494 397 1959 397 
Q 2419 397 2687 759 
Q 2956 1122 2956 1747 
Q 2956 2369 2687 2733 
Q 2419 3097 1959 3097 
z
M 1959 3584 
Q 2709 3584 3137 3096 
Q 3566 2609 3566 1747 
Q 3566 888 3137 398 
Q 2709 -91 1959 -91 
Q 1206 -91 779 398 
Q 353 888 353 1747 
Q 353 2609 779 3096 
Q 1206 3584 1959 3584 
z
" id="DejaVuSans-6f" transform="scale(0.015625)"/>
       <path d="M 3513 2113 
L 3513 0 
L 2938 0 
L 2938 2094 
Q 2938 2591 2744 2837 
Q 2550 3084 2163 3084 
Q 1697 3084 1428 2787 
Q 1159 2491 1159 1978 
L 1159 0 
L 581 0 
L 581 3500 
L 1159 3500 
L 1159 2956 
Q 1366 3272 1645 3428 
Q 1925 3584 2291 3584 
Q 2894 3584 3203 3211 
Q 3513 2838 3513 2113 
z
" id="DejaVuSans-6e" transform="scale(0.015625)"/>
       <path d="M 2906 2969 
L 2906 4863 
L 3481 4863 
L 3481 0 
L 2906 0 
L 2906 525 
Q 2725 213 2448 61 
Q 2172 -91 1784 -91 
Q 1150 -91 751 415 
Q 353 922 353 1747 
Q 353 2572 751 3078 
Q 1150 3584 1784 3584 
Q 2172 3584 2448 3432 
Q 2725 3281 2906 2969 
z
M 947 1747 
Q 947 1113 1208 752 
Q 1469 391 1925 391 
Q 2381 391 2643 752 
Q 2906 1113 2906 1747 
Q 2906 2381 2643 2742 
Q 2381 3103 1925 3103 
Q 1469 3103 1208 2742 
Q 947 2381 947 1747 
z
" id="DejaVuSans-64" transform="scale(0.015625)"/>
       <path d="M 2834 3397 
L 2834 2853 
Q 2591 2978 2328 3040 
Q 2066 3103 1784 3103 
Q 1356 3103 1142 2972 
Q 928 2841 928 2578 
Q 928 2378 1081 2264 
Q 1234 2150 1697 2047 
L 1894 2003 
Q 2506 1872 2764 1633 
Q 3022 1394 3022 966 
Q 3022 478 2636 193 
Q 2250 -91 1575 -91 
Q 1294 -91 989 -36 
Q 684 19 347 128 
L 347 722 
Q 666 556 975 473 
Q 1284 391 1588 391 
Q 1994 391 2212 530 
Q 2431 669 2431 922 
Q 2431 1156 2273 1281 
Q 2116 1406 1581 1522 
L 1381 1569 
Q 847 1681 609 1914 
Q 372 2147 372 2553 
Q 372 3047 722 3315 
Q 1072 3584 1716 3584 
Q 2034 3584 2315 3537 
Q 2597 3491 2834 3397 
z
" id="DejaVuSans-73" transform="scale(0.015625)"/>
       <path d="M 1947 4863 
L 1947 -844 
L 622 -844 
L 622 -397 
L 1369 -397 
L 1369 4416 
L 622 4416 
L 622 4863 
L 1947 4863 
z
" id="DejaVuSans-5d" transform="scale(0.015625)"/>
      </defs>
      <use xlink:href="#DejaVuSans-54"/>
      <use x="57.958984" xlink:href="#DejaVuSans-69"/>
      <use x="85.742188" xlink:href="#DejaVuSans-6d"/>
      <use x="183.154297" xlink:href="#DejaVuSans-65"/>
      <use x="244.677734" xlink:href="#DejaVuSans-20"/>
      <use x="276.464844" xlink:href="#DejaVuSans-5b"/>
      <use x="315.478516" xlink:href="#DejaVuSans-53"/>
      <use x="378.955078" xlink:href="#DejaVuSans-65"/>
      <use x="440.478516" xlink:href="#DejaVuSans-63"/>
      <use x="495.458984" xlink:href="#DejaVuSans-6f"/>
      <use x="556.640625" xlink:href="#DejaVuSans-6e"/>
      <use x="620.019531" xlink:href="#DejaVuSans-64"/>
      <use x="683.496094" xlink:href="#DejaVuSans-73"/>
      <use x="735.595703" xlink:href="#DejaVuSans-5d"/>
     </g>
    </g>
   </g>
   <g id="matplotlib.axis_2">
    <g id="ytick_1">
     <g id="line2d_9">
      <defs>
       <path d="M 0 0 
L -3.5 0 
" id="mf2006ff0f8" style="stroke:#000000;stroke-width:0.8;"/>
      </defs>
      <g>
       <use style="stroke:#000000;stroke-width:0.8;" x="72" xlink:href="#mf2006ff0f8" y="293.001005"/>
      </g>
     </g>
     <g id="text_10">
      <!-- 0.00 -->
      <g transform="translate(33.828125 298.319911)scale(0.14 -0.14)">
       <use xlink:href="#DejaVuSans-30"/>
       <use x="63.623047" xlink:href="#DejaVuSans-2e"/>
       <use x="95.410156" xlink:href="#DejaVuSans-30"/>
       <use x="159.033203" xlink:href="#DejaVuSans-30"/>
      </g>
     </g>
    </g>
    <g id="ytick_2">
     <g id="line2d_10">
      <g>
       <use style="stroke:#000000;stroke-width:0.8;" x="72" xlink:href="#mf2006ff0f8" y="260.790533"/>
      </g>
     </g>
     <g id="text_11">
      <!-- 0.25 -->
      <g transform="translate(33.828125 266.109439)scale(0.14 -0.14)">
       <use xlink:href="#DejaVuSans-30"/>
       <use x="63.623047" xlink:href="#DejaVuSans-2e"/>
       <use x="95.410156" xlink:href="#DejaVuSans-32"/>
       <use x="159.033203" xlink:href="#DejaVuSans-35"/>
      </g>
     </g>
    </g>
    <g id="ytick_3">
     <g id="line2d_11">
      <g>
       <use style="stroke:#000000;stroke-width:0.8;" x="72" xlink:href="#mf2006ff0f8" y="228.580061"/>
      </g>
     </g>
     <g id="text_12">
      <!-- 0.50 -->
      <g transform="translate(33.828125 233.898967)scale(0.14 -0.14)">
       <use xlink:href="#DejaVuSans-30"/>
       <use x="63.623047" xlink:href="#DejaVuSans-2e"/>
       <use x="95.410156" xlink:href="#DejaVuSans-35"/>
       <use x="159.033203" xlink:href="#DejaVuSans-30"/>
      </g>
     </g>
    </g>
    <g id="ytick_4">
     <g id="line2d_12">
      <g>
       <use style="stroke:#000000;stroke-width:0.8;" x="72" xlink:href="#mf2006ff0f8" y="196.36959"/>
      </g>
     </g>
     <g id="text_13">
      <!-- 0.75 -->
      <g transform="translate(33.828125 201.688496)scale(0.14 -0.14)">
       <use xlink:href="#DejaVuSans-30"/>
       <use x="63.623047" xlink:href="#DejaVuSans-2e"/>
       <use x="95.410156" xlink:href="#DejaVuSans-37"/>
       <use x="159.033203" xlink:href="#DejaVuSans-35"/>
      </g>
     </g>
    </g>
    <g id="ytick_5">
     <g id="line2d_13">
      <g>
       <use style="stroke:#000000;stroke-width:0.8;" x="72" xlink:href="#mf2006ff0f8" y="164.159118"/>
      </g>
     </g>
     <g id="text_14">
      <!-- 1.00 -->
      <g transform="translate(33.828125 169.478024)scale(0.14 -0.14)">
       <use xlink:href="#DejaVuSans-31"/>
       <use x="63.623047" xlink:href="#DejaVuSans-2e"/>
       <use x="95.410156" xlink:href="#DejaVuSans-30"/>
       <use x="159.033203" xlink:href="#DejaVuSans-30"/>
      </g>
     </g>
    </g>
    <g id="ytick_6">
     <g id="line2d_14">
      <g>
       <use style="stroke:#000000;stroke-width:0.8;" x="72" xlink:href="#mf2006ff0f8" y="131.948646"/>
      </g>
     </g>
     <g id="text_15">
      <!-- 1.25 -->
      <g transform="translate(33.828125 137.267552)scale(0.14 -0.14)">
       <use xlink:href="#DejaVuSans-31"/>
       <use x="63.623047" xlink:href="#DejaVuSans-2e"/>
       <use x="95.410156" xlink:href="#DejaVuSans-32"/>
       <use x="159.033203" xlink:href="#DejaVuSans-35"/>
      </g>
     </g>
    </g>
    <g id="ytick_7">
     <g id="line2d_15">
      <g>
       <use style="stroke:#000000;stroke-width:0.8;" x="72" xlink:href="#mf2006ff0f8" y="99.738174"/>
      </g>
     </g>
     <g id="text_16">
      <!-- 1.50 -->
      <g transform="translate(33.828125 105.057081)scale(0.14 -0.14)">
       <use xlink:href="#DejaVuSans-31"/>
       <use x="63.623047" xlink:href="#DejaVuSans-2e"/>
       <use x="95.410156" xlink:href="#DejaVuSans-35"/>
       <use x="159.033203" xlink:href="#DejaVuSans-30"/>
      </g>
     </g>
    </g>
    <g id="ytick_8">
     <g id="line2d_16">
      <g>
       <use style="stroke:#000000;stroke-width:0.8;" x="72" xlink:href="#mf2006ff0f8" y="67.527703"/>
      </g>
     </g>
     <g id="text_17">
      <!-- 1.75 -->
      <g transform="translate(33.828125 72.846609)scale(0.14 -0.14)">
       <use xlink:href="#DejaVuSans-31"/>
       <use x="63.623047" xlink:href="#DejaVuSans-2e"/>
       <use x="95.410156" xlink:href="#DejaVuSans-37"/>
       <use x="159.033203" xlink:href="#DejaVuSans-35"/>
      </g>
     </g>
    </g>
    <g id="text_18">
     <!-- Speed [mm/s] -->
     <g transform="translate(26.500625 238.11375)rotate(-90)scale(0.16 -0.16)">
      <defs>
       <path d="M 1159 525 
L 1159 -1331 
L 581 -1331 
L 581 3500 
L 1159 3500 
L 1159 2969 
Q 1341 3281 1617 3432 
Q 1894 3584 2278 3584 
Q 2916 3584 3314 3078 
Q 3713 2572 3713 1747 
Q 3713 922 3314 415 
Q 2916 -91 2278 -91 
Q 1894 -91 1617 61 
Q 1341 213 1159 525 
z
M 3116 1747 
Q 3116 2381 2855 2742 
Q 2594 3103 2138 3103 
Q 1681 3103 1420 2742 
Q 1159 2381 1159 1747 
Q 1159 1113 1420 752 
Q 1681 391 2138 391 
Q 2594 391 2855 752 
Q 3116 1113 3116 1747 
z
" id="DejaVuSans-70" transform="scale(0.015625)"/>
       <path d="M 1625 4666 
L 2156 4666 
L 531 -594 
L 0 -594 
L 1625 4666 
z
" id="DejaVuSans-2f" transform="scale(0.015625)"/>
      </defs>
      <use xlink:href="#DejaVuSans-53"/>
      <use x="63.476562" xlink:href="#DejaVuSans-70"/>
      <use x="126.953125" xlink:href="#DejaVuSans-65"/>
      <use x="188.476562" xlink:href="#DejaVuSans-65"/>
      <use x="250" xlink:href="#DejaVuSans-64"/>
      <use x="313.476562" xlink:href="#DejaVuSans-20"/>
      <use x="345.263672" xlink:href="#DejaVuSans-5b"/>
      <use x="384.277344" xlink:href="#DejaVuSans-6d"/>
      <use x="481.689453" xlink:href="#DejaVuSans-6d"/>
      <use x="579.101562" xlink:href="#DejaVuSans-2f"/>
      <use x="612.792969" xlink:href="#DejaVuSans-73"/>
      <use x="664.892578" xlink:href="#DejaVuSans-5d"/>
     </g>
    </g>
   </g>
   <g id="line2d_17">
    <path clip-path="url(#p7d73a2a889)" d="M 72 176.442858 
L 518.4 176.442858 
" style="fill:none;stroke:#000000;stroke-dasharray:5.55,2.4;stroke-dashoffset:0;stroke-width:1.5;"/>
   </g>
   <g id="line2d_18">
    <path clip-path="url(#p7d73a2a889)" d="M 72 289.177803 
L 105.045195 289.134885 
L 105.624935 289.370789 
L 106.204675 287.886818 
L 106.784416 286.047826 
L 107.364156 287.293686 
L 107.943896 289.794349 
L 108.523636 290.346549 
L 109.103377 288.995317 
L 109.683117 289.618828 
L 110.262857 290.504738 
L 110.842597 290.504314 
L 111.422338 288.229398 
L 112.002078 285.457223 
L 112.581818 288.157006 
L 113.741299 303.641456 
L 114.321039 307.8 
L 114.900779 304.72561 
L 115.480519 297.132586 
L 116.06026 287.644845 
L 116.64 273.815115 
L 117.799481 235.692769 
L 118.958961 192.438894 
L 120.118442 144.649587 
L 121.277922 103.924413 
L 121.857662 87.591202 
L 122.437403 74.575835 
L 123.017143 64.2723 
L 123.596883 58.174496 
L 124.176623 55.8 
L 124.756364 56.818092 
L 125.336104 61.500788 
L 125.915844 69.055711 
L 127.075325 91.158726 
L 128.814545 130.783443 
L 129.974026 160.925127 
L 130.553766 168.385029 
L 131.713247 178.653535 
L 132.292987 177.739203 
L 132.872727 172.256564 
L 133.452468 163.883028 
L 134.032208 157.847029 
L 134.611948 157.948145 
L 135.771429 165.640492 
L 136.351169 166.024382 
L 136.930909 164.225572 
L 137.510649 165.072478 
L 138.09039 168.149713 
L 138.67013 168.925398 
L 139.24987 170.042297 
L 139.82961 170.48971 
L 140.409351 172.359712 
L 140.989091 173.301328 
L 141.568831 173.087524 
L 142.148571 173.309923 
L 142.728312 173.040771 
L 143.308052 174.176748 
L 143.887792 174.901304 
L 144.467532 173.576479 
L 145.047273 173.358172 
L 145.627013 174.089396 
L 146.206753 174.024933 
L 146.786494 174.301726 
L 147.945974 175.365612 
L 149.105455 174.25991 
L 149.685195 174.126466 
L 150.264935 174.191856 
L 150.844675 173.010365 
L 152.004156 174.971799 
L 152.583896 173.733612 
L 153.743377 175.319286 
L 154.323117 175.056717 
L 154.902857 175.632189 
L 155.482597 175.510111 
L 156.062338 175.953159 
L 157.221818 177.221822 
L 157.801558 177.22329 
L 158.381299 176.948874 
L 158.961039 177.722328 
L 159.540779 179.141386 
L 160.120519 179.713857 
L 160.70026 178.698428 
L 161.28 177.225297 
L 161.85974 176.37709 
L 162.439481 177.335856 
L 163.019221 177.313339 
L 163.598961 176.996513 
L 164.178701 175.966018 
L 164.758442 175.976055 
L 165.338182 176.62199 
L 166.497662 174.197819 
L 167.077403 174.969224 
L 167.657143 174.911034 
L 168.236883 174.325054 
L 168.816623 175.682957 
L 169.396364 177.637482 
L 169.976104 178.215333 
L 171.135584 177.090874 
L 171.715325 177.102012 
L 172.295065 177.385836 
L 172.874805 176.648185 
L 174.034286 177.36992 
L 174.614026 177.75094 
L 175.193766 178.281513 
L 175.773506 177.681762 
L 176.353247 178.398474 
L 176.932987 178.018491 
L 177.512727 176.302437 
L 178.092468 176.539851 
L 178.672208 177.1164 
L 179.251948 176.392059 
L 179.831688 174.113764 
L 180.411429 174.076643 
L 180.991169 175.398343 
L 181.570909 175.829604 
L 182.150649 175.818686 
L 182.73039 175.424157 
L 183.31013 174.609554 
L 184.46961 177.176052 
L 185.049351 174.841265 
L 185.629091 174.367223 
L 186.208831 175.965595 
L 186.788571 176.427686 
L 187.368312 175.652028 
L 187.948052 175.619225 
L 188.527792 175.159702 
L 189.107532 174.426668 
L 189.687273 175.036032 
L 190.267013 176.225227 
L 190.846753 177.678801 
L 191.426494 178.616876 
L 192.006234 178.088604 
L 192.585974 178.054161 
L 193.165714 177.28699 
L 193.745455 177.082345 
L 194.325195 179.114578 
L 194.904935 178.42342 
L 195.484675 177.179767 
L 196.064416 178.207479 
L 196.644156 179.839345 
L 197.223896 179.366788 
L 197.803636 178.184999 
L 198.383377 178.957284 
L 198.963117 178.162167 
L 199.542857 177.605438 
L 200.122597 178.484875 
L 200.702338 179.093884 
L 201.861818 174.551538 
L 202.441558 174.67394 
L 203.021299 174.039703 
L 203.601039 174.354908 
L 204.180779 175.492596 
L 204.760519 175.83163 
L 205.34026 174.345681 
L 206.49974 175.363303 
L 207.079481 174.968107 
L 207.659221 175.670056 
L 208.238961 177.432282 
L 208.818701 178.415463 
L 209.398442 176.775806 
L 209.978182 175.992272 
L 210.557922 175.950902 
L 211.137662 176.844117 
L 211.717403 178.348837 
L 212.876883 178.993314 
L 213.456623 178.925136 
L 214.036364 178.104255 
L 215.195844 174.952903 
L 215.775584 176.253009 
L 216.355325 178.693379 
L 216.935065 176.130557 
L 217.514805 175.568112 
L 218.094545 177.659926 
L 219.254026 175.371273 
L 220.413506 177.575697 
L 220.993247 177.423304 
L 222.152727 176.832358 
L 222.732468 177.314548 
L 223.312208 177.262349 
L 223.891948 178.501431 
L 225.051429 177.282908 
L 225.631169 177.97636 
L 226.210909 178.162084 
L 226.790649 176.979065 
L 227.37039 175.357729 
L 227.95013 176.598807 
L 228.52987 178.622878 
L 229.10961 179.13387 
L 230.269091 177.432714 
L 231.428571 176.572534 
L 232.008312 176.957317 
L 232.588052 176.291589 
L 233.167792 175.800175 
L 233.747532 176.919788 
L 234.327273 177.575961 
L 234.907013 177.154321 
L 235.486753 176.147785 
L 236.066494 176.57894 
L 236.646234 176.282506 
L 237.225974 175.293409 
L 238.385455 176.917085 
L 238.965195 175.809772 
L 239.544935 177.393719 
L 240.124675 178.401934 
L 240.704416 176.10024 
L 241.284156 176.377027 
L 241.863896 176.85944 
L 242.443636 175.930996 
L 243.603117 176.195202 
L 244.182857 175.861753 
L 244.762597 177.371009 
L 245.342338 178.322441 
L 245.922078 177.554987 
L 247.081558 176.787577 
L 247.661299 176.915752 
L 248.820779 175.908214 
L 249.400519 176.796085 
L 249.98026 176.161788 
L 250.56 176.220207 
L 251.13974 176.440347 
L 251.719481 176.101495 
L 252.299221 176.489012 
L 252.878961 177.119252 
L 253.458701 177.197814 
L 254.038442 176.300118 
L 254.618182 175.171418 
L 255.197922 175.622343 
L 255.777662 177.948001 
L 256.357403 177.539994 
L 256.937143 175.860689 
L 257.516883 176.501257 
L 258.096623 178.493475 
L 258.676364 177.700202 
L 259.256104 175.481483 
L 259.835844 176.121246 
L 260.415584 177.35686 
L 260.995325 177.6137 
L 261.575065 178.386578 
L 262.154805 178.64438 
L 262.734545 177.881954 
L 263.894026 175.500116 
L 264.473766 174.884315 
L 265.053506 175.101736 
L 266.792727 176.568343 
L 267.372468 176.604019 
L 267.952208 176.761253 
L 268.531948 177.188017 
L 269.111688 176.167288 
L 269.691429 176.549063 
L 270.271169 177.144494 
L 270.850909 178.662378 
L 271.430649 178.440714 
L 272.01039 175.981329 
L 273.16987 179.536647 
L 273.74961 177.919718 
L 274.329351 177.850527 
L 274.909091 178.100961 
L 275.488831 177.160356 
L 276.648312 177.040817 
L 277.228052 177.895964 
L 277.807792 177.449054 
L 278.387532 175.898786 
L 278.967273 175.77459 
L 279.547013 176.712865 
L 280.126753 176.937732 
L 280.706494 176.706678 
L 281.286234 176.656147 
L 281.865974 176.347468 
L 282.445714 175.161176 
L 283.025455 175.085893 
L 283.605195 176.468928 
L 284.764675 178.038402 
L 285.344416 177.533623 
L 285.924156 176.523326 
L 286.503896 175.933227 
L 287.083636 176.560234 
L 287.663377 178.169908 
L 288.243117 177.628992 
L 288.822857 176.519938 
L 289.402597 177.164373 
L 289.982338 177.381394 
L 290.562078 177.17764 
L 291.141818 176.072217 
L 291.721558 176.118121 
L 292.881039 175.699026 
L 293.460779 176.021729 
L 294.040519 176.124737 
L 294.62026 178.521037 
L 295.2 177.561534 
L 295.77974 175.275679 
L 296.359481 176.075626 
L 296.939221 177.822101 
L 297.518961 178.702301 
L 298.098701 176.551695 
L 298.678442 176.168063 
L 299.258182 177.467304 
L 299.837922 176.771934 
L 300.417662 177.369221 
L 300.997403 176.87021 
L 301.577143 176.535334 
L 302.156883 178.001648 
L 302.736623 179.124682 
L 303.896104 175.292133 
L 304.475844 175.798244 
L 305.055584 176.499371 
L 305.635325 176.873827 
L 306.215065 175.865295 
L 306.794805 175.578169 
L 307.374545 177.016947 
L 307.954286 176.744377 
L 308.534026 176.636842 
L 309.113766 178.674067 
L 309.693506 178.808786 
L 310.273247 176.958964 
L 312.012468 176.990207 
L 312.592208 178.977215 
L 313.171948 178.994371 
L 314.331429 175.355875 
L 315.490909 178.538492 
L 316.070649 176.762671 
L 317.23013 177.030095 
L 317.80987 176.732555 
L 318.38961 177.476928 
L 318.969351 177.985801 
L 319.549091 177.794199 
L 320.128831 175.912585 
L 320.708571 176.87146 
L 321.288312 178.277189 
L 322.447792 175.898665 
L 323.027532 174.812337 
L 323.607273 175.289853 
L 324.187013 176.982765 
L 324.766753 176.338997 
L 325.346494 175.118537 
L 325.926234 175.490263 
L 326.505974 176.463207 
L 327.085714 176.129856 
L 327.665455 176.060666 
L 328.824935 174.869248 
L 329.404675 176.369279 
L 329.984416 174.687708 
L 330.564156 175.300057 
L 331.143896 178.110504 
L 331.723636 176.355459 
L 332.303377 175.90701 
L 332.883117 176.671825 
L 333.462857 177.032568 
L 334.622338 179.507214 
L 335.781818 176.019421 
L 336.361558 178.406009 
L 336.941299 180.242732 
L 337.521039 178.791402 
L 338.100779 176.771102 
L 338.680519 176.972633 
L 339.26026 177.622475 
L 339.84 176.251171 
L 340.41974 176.334637 
L 340.999481 177.848561 
L 341.579221 177.976156 
L 342.158961 177.984788 
L 342.738701 178.79954 
L 343.318442 178.320756 
L 343.898182 176.631873 
L 345.057662 178.283414 
L 345.637403 177.051445 
L 346.217143 176.383004 
L 346.796883 175.931061 
L 347.376623 175.770684 
L 347.956364 174.400344 
L 348.536104 174.392283 
L 349.115844 176.908685 
L 349.695584 177.432683 
L 350.275325 176.50559 
L 350.855065 176.378026 
L 351.434805 176.779884 
L 352.014545 176.138387 
L 352.594286 177.515175 
L 353.174026 177.287495 
L 353.753766 174.842443 
L 354.333506 175.984205 
L 354.913247 177.882591 
L 355.492987 178.585687 
L 356.652468 176.257991 
L 357.232208 175.344238 
L 357.811948 175.718196 
L 358.391688 177.465736 
L 358.971429 177.153662 
L 359.551169 176.311093 
L 360.130909 176.275901 
L 360.710649 175.375854 
L 361.29039 175.080714 
L 361.87013 175.110827 
L 363.02961 178.462937 
L 363.609351 177.535623 
L 364.189091 176.824533 
L 364.768831 176.923018 
L 365.348571 178.813615 
L 365.928312 179.809349 
L 366.508052 180.269407 
L 367.087792 179.210163 
L 367.667532 177.635446 
L 368.247273 177.905811 
L 368.827013 177.974735 
L 369.406753 177.614577 
L 369.986494 176.415104 
L 370.566234 176.482706 
L 371.145974 177.831721 
L 372.305455 175.385214 
L 372.885195 175.24375 
L 373.464935 174.085794 
L 374.044675 174.019439 
L 374.624416 175.403922 
L 375.204156 174.801828 
L 375.783896 174.41487 
L 376.363636 175.669677 
L 376.943377 175.77348 
L 377.523117 175.738496 
L 378.102857 176.244001 
L 379.262338 177.890101 
L 379.842078 178.213722 
L 380.421818 178.062652 
L 381.001558 179.069453 
L 381.581299 178.457769 
L 382.161039 176.839458 
L 382.740779 176.255536 
L 383.90026 178.574724 
L 384.48 178.245441 
L 385.05974 176.801356 
L 385.639481 176.1204 
L 386.219221 175.940289 
L 386.798961 175.995087 
L 387.378701 176.802324 
L 387.958442 175.678437 
L 388.538182 175.146205 
L 389.117922 175.382158 
L 389.697662 176.392824 
L 390.277403 175.962178 
L 390.857143 176.071783 
L 391.436883 177.044632 
L 392.016623 176.046511 
L 392.596364 176.654605 
L 393.176104 179.05872 
L 393.755844 179.228806 
L 394.335584 177.93091 
L 394.915325 177.684917 
L 395.495065 176.871526 
L 396.074805 177.545093 
L 396.654545 178.917723 
L 397.234286 178.400232 
L 397.814026 178.161329 
L 398.393766 177.720901 
L 398.973506 176.181604 
L 399.553247 177.23226 
L 400.132987 177.116628 
L 400.712727 175.654954 
L 401.292468 176.917012 
L 401.872208 176.794013 
L 402.451948 175.754894 
L 403.031688 176.220505 
L 403.611429 174.569976 
L 404.191169 173.974361 
L 404.770909 175.967237 
L 405.350649 176.946881 
L 405.93039 177.176486 
L 406.51013 176.332336 
L 407.08987 176.167005 
L 407.66961 177.159773 
L 408.249351 177.709776 
L 408.829091 176.466394 
L 409.408831 175.974956 
L 409.988571 176.718507 
L 410.568312 176.68926 
L 411.148052 176.944116 
L 411.727792 176.845627 
L 412.307532 175.477919 
L 413.467013 176.413945 
L 414.046753 174.888886 
L 414.626494 175.772048 
L 415.206234 177.995185 
L 415.785974 177.905237 
L 416.365714 178.038607 
L 416.945455 177.768323 
L 417.525195 176.655371 
L 418.104935 177.229565 
L 418.684675 178.204574 
L 419.264416 178.408631 
L 419.844156 178.268774 
L 420.423896 177.827499 
L 421.003636 177.228823 
L 421.583377 177.597753 
L 422.742857 175.977734 
L 423.322597 177.037699 
L 423.902338 176.952678 
L 424.482078 176.581618 
L 425.061818 176.45066 
L 425.641558 175.557486 
L 426.801039 177.306979 
L 427.380779 176.204182 
L 428.54026 175.767733 
L 429.12 175.791603 
L 429.69974 176.081336 
L 430.279481 176.798686 
L 430.859221 176.746366 
L 432.018701 178.329341 
L 432.598442 176.966417 
L 433.178182 176.9054 
L 434.337662 178.853046 
L 434.917403 178.325074 
L 435.497143 177.058676 
L 436.076883 177.15661 
L 436.656623 176.741119 
L 437.236364 177.250702 
L 437.816104 178.147539 
L 438.395844 177.953256 
L 438.975584 176.655361 
L 439.555325 176.395833 
L 440.135065 177.121942 
L 440.714805 177.340171 
L 441.294545 177.155371 
L 441.874286 176.7794 
L 442.454026 175.708347 
L 443.033766 174.919303 
L 443.613506 175.65936 
L 444.193247 175.789078 
L 444.772987 175.744236 
L 445.352727 175.978952 
L 445.932468 175.907129 
L 447.091948 176.571512 
L 447.671688 177.566277 
L 448.251429 179.282138 
L 448.831169 178.767866 
L 449.410909 177.318244 
L 449.990649 177.307491 
L 451.15013 175.562554 
L 451.72987 176.35638 
L 452.30961 176.821046 
L 453.469091 176.521189 
L 454.048831 176.145773 
L 454.628571 175.991006 
L 455.208312 176.124778 
L 455.788052 175.973599 
L 456.367792 176.166589 
L 456.947532 175.191877 
L 457.527273 174.622183 
L 458.107013 175.912171 
L 458.686753 175.606909 
L 459.266494 176.288362 
L 459.846234 177.554329 
L 460.425974 176.711017 
L 461.005714 177.155153 
L 461.585455 178.817642 
L 462.165195 178.256625 
L 462.744935 178.443186 
L 463.324675 177.88704 
L 463.904416 176.760361 
L 464.484156 176.777164 
L 465.063896 177.731604 
L 465.643636 179.033883 
L 466.223377 178.375934 
L 466.803117 178.471743 
L 467.382857 176.690398 
L 467.962597 175.55519 
L 468.542338 177.094586 
L 469.701818 178.254043 
L 470.281558 178.512743 
L 470.861299 177.434258 
L 471.441039 176.777019 
L 472.020779 176.965298 
L 472.600519 174.483016 
L 473.18026 173.967919 
L 473.76 175.320599 
L 474.33974 174.879041 
L 474.919481 174.015613 
L 475.499221 173.74262 
L 476.658701 176.918329 
L 477.238442 176.906047 
L 477.818182 176.717234 
L 478.397922 177.545349 
L 478.977662 177.509339 
L 479.557403 177.212423 
L 480.137143 177.427639 
L 481.296623 177.438835 
L 481.876364 176.077703 
L 482.456104 175.192969 
L 483.035844 177.145531 
L 483.615584 177.324848 
L 484.195325 175.505254 
L 484.775065 175.941676 
L 485.354805 174.414586 
L 485.934545 174.182395 
L 486.514286 176.895085 
L 487.094026 177.691804 
L 487.673766 177.691439 
L 488.253506 177.226646 
L 488.833247 177.22249 
L 489.412987 176.107565 
L 490.572468 177.758244 
L 491.152208 176.604805 
L 492.311688 178.135588 
L 492.891429 177.285743 
L 494.050909 178.470716 
L 494.630649 176.829177 
L 495.21039 177.093605 
L 496.36987 175.686391 
L 496.94961 175.405486 
L 497.529351 174.410019 
L 498.109091 175.529164 
L 498.688831 176.362916 
L 499.268571 176.444694 
L 500.428052 178.621592 
L 501.007792 177.459525 
L 501.587532 176.592463 
L 502.167273 178.278664 
L 502.747013 179.163604 
L 503.906494 177.640498 
L 504.486234 177.611063 
L 505.065974 178.015639 
L 505.645714 177.168907 
L 506.225455 177.323797 
L 506.805195 177.113563 
L 507.384935 175.679346 
L 508.544416 175.20044 
L 509.124156 175.139752 
L 510.283636 175.355917 
L 511.443117 175.929093 
L 513.762078 177.290109 
L 514.341818 177.444282 
L 514.921558 177.422125 
L 515.501299 177.162731 
L 516.081039 176.599502 
L 516.660779 175.660148 
L 517.240519 174.266688 
L 517.82026 172.33545 
L 518.4 169.777073 
L 518.4 169.777073 
" style="fill:none;stroke:#ff0000;stroke-linecap:square;stroke-width:2;"/>
   </g>
   <g id="patch_3">
    <path d="M 72 320.4 
L 72 43.2 
" style="fill:none;stroke:#000000;stroke-linecap:square;stroke-linejoin:miter;stroke-width:0.8;"/>
   </g>
   <g id="patch_4">
    <path d="M 518.4 320.4 
L 518.4 43.2 
" style="fill:none;stroke:#000000;stroke-linecap:square;stroke-linejoin:miter;stroke-width:0.8;"/>
   </g>
   <g id="patch_5">
    <path d="M 72 320.4 
L 518.4 320.4 
" style="fill:none;stroke:#000000;stroke-linecap:square;stroke-linejoin:miter;stroke-width:0.8;"/>
   </g>
   <g id="patch_6">
    <path d="M 72 43.2 
L 518.4 43.2 
" style="fill:none;stroke:#000000;stroke-linecap:square;stroke-linejoin:miter;stroke-width:0.8;"/>
   </g>
   <g id="text_19">
    <!-- Front Propogation Speed -->
    <g transform="translate(172.245312 37.2)scale(0.2 -0.2)">
     <defs>
      <path d="M 628 4666 
L 3309 4666 
L 3309 4134 
L 1259 4134 
L 1259 2759 
L 3109 2759 
L 3109 2228 
L 1259 2228 
L 1259 0 
L 628 0 
L 628 4666 
z
" id="DejaVuSans-46" transform="scale(0.015625)"/>
      <path d="M 2631 2963 
Q 2534 3019 2420 3045 
Q 2306 3072 2169 3072 
Q 1681 3072 1420 2755 
Q 1159 2438 1159 1844 
L 1159 0 
L 581 0 
L 581 3500 
L 1159 3500 
L 1159 2956 
Q 1341 3275 1631 3429 
Q 1922 3584 2338 3584 
Q 2397 3584 2469 3576 
Q 2541 3569 2628 3553 
L 2631 2963 
z
" id="DejaVuSans-72" transform="scale(0.015625)"/>
      <path d="M 1172 4494 
L 1172 3500 
L 2356 3500 
L 2356 3053 
L 1172 3053 
L 1172 1153 
Q 1172 725 1289 603 
Q 1406 481 1766 481 
L 2356 481 
L 2356 0 
L 1766 0 
Q 1100 0 847 248 
Q 594 497 594 1153 
L 594 3053 
L 172 3053 
L 172 3500 
L 594 3500 
L 594 4494 
L 1172 4494 
z
" id="DejaVuSans-74" transform="scale(0.015625)"/>
      <path d="M 1259 4147 
L 1259 2394 
L 2053 2394 
Q 2494 2394 2734 2622 
Q 2975 2850 2975 3272 
Q 2975 3691 2734 3919 
Q 2494 4147 2053 4147 
L 1259 4147 
z
M 628 4666 
L 2053 4666 
Q 2838 4666 3239 4311 
Q 3641 3956 3641 3272 
Q 3641 2581 3239 2228 
Q 2838 1875 2053 1875 
L 1259 1875 
L 1259 0 
L 628 0 
L 628 4666 
z
" id="DejaVuSans-50" transform="scale(0.015625)"/>
      <path d="M 2906 1791 
Q 2906 2416 2648 2759 
Q 2391 3103 1925 3103 
Q 1463 3103 1205 2759 
Q 947 2416 947 1791 
Q 947 1169 1205 825 
Q 1463 481 1925 481 
Q 2391 481 2648 825 
Q 2906 1169 2906 1791 
z
M 3481 434 
Q 3481 -459 3084 -895 
Q 2688 -1331 1869 -1331 
Q 1566 -1331 1297 -1286 
Q 1028 -1241 775 -1147 
L 775 -588 
Q 1028 -725 1275 -790 
Q 1522 -856 1778 -856 
Q 2344 -856 2625 -561 
Q 2906 -266 2906 331 
L 2906 616 
Q 2728 306 2450 153 
Q 2172 0 1784 0 
Q 1141 0 747 490 
Q 353 981 353 1791 
Q 353 2603 747 3093 
Q 1141 3584 1784 3584 
Q 2172 3584 2450 3431 
Q 2728 3278 2906 2969 
L 2906 3500 
L 3481 3500 
L 3481 434 
z
" id="DejaVuSans-67" transform="scale(0.015625)"/>
      <path d="M 2194 1759 
Q 1497 1759 1228 1600 
Q 959 1441 959 1056 
Q 959 750 1161 570 
Q 1363 391 1709 391 
Q 2188 391 2477 730 
Q 2766 1069 2766 1631 
L 2766 1759 
L 2194 1759 
z
M 3341 1997 
L 3341 0 
L 2766 0 
L 2766 531 
Q 2569 213 2275 61 
Q 1981 -91 1556 -91 
Q 1019 -91 701 211 
Q 384 513 384 1019 
Q 384 1609 779 1909 
Q 1175 2209 1959 2209 
L 2766 2209 
L 2766 2266 
Q 2766 2663 2505 2880 
Q 2244 3097 1772 3097 
Q 1472 3097 1187 3025 
Q 903 2953 641 2809 
L 641 3341 
Q 956 3463 1253 3523 
Q 1550 3584 1831 3584 
Q 2591 3584 2966 3190 
Q 3341 2797 3341 1997 
z
" id="DejaVuSans-61" transform="scale(0.015625)"/>
     </defs>
     <use xlink:href="#DejaVuSans-46"/>
     <use x="50.269531" xlink:href="#DejaVuSans-72"/>
     <use x="89.132812" xlink:href="#DejaVuSans-6f"/>
     <use x="150.314453" xlink:href="#DejaVuSans-6e"/>
     <use x="213.693359" xlink:href="#DejaVuSans-74"/>
     <use x="252.902344" xlink:href="#DejaVuSans-20"/>
     <use x="284.689453" xlink:href="#DejaVuSans-50"/>
     <use x="343.242188" xlink:href="#DejaVuSans-72"/>
     <use x="382.105469" xlink:href="#DejaVuSans-6f"/>
     <use x="443.287109" xlink:href="#DejaVuSans-70"/>
     <use x="506.763672" xlink:href="#DejaVuSans-6f"/>
     <use x="567.945312" xlink:href="#DejaVuSans-67"/>
     <use x="631.421875" xlink:href="#DejaVuSans-61"/>
     <use x="692.701172" xlink:href="#DejaVuSans-74"/>
     <use x="731.910156" xlink:href="#DejaVuSans-69"/>
     <use x="759.693359" xlink:href="#DejaVuSans-6f"/>
     <use x="820.875" xlink:href="#DejaVuSans-6e"/>
     <use x="884.253906" xlink:href="#DejaVuSans-20"/>
     <use x="916.041016" xlink:href="#DejaVuSans-53"/>
     <use x="979.517578" xlink:href="#DejaVuSans-70"/>
     <use x="1042.994141" xlink:href="#DejaVuSans-65"/>
     <use x="1104.517578" xlink:href="#DejaVuSans-65"/>
     <use x="1166.041016" xlink:href="#DejaVuSans-64"/>
    </g>
   </g>
   <g id="legend_1">
    <g id="patch_7">
     <path d="M 334.875313 111.175687 
L 508.6 111.175687 
Q 511.4 111.175687 511.4 108.375687 
L 511.4 53 
Q 511.4 50.2 508.6 50.2 
L 334.875313 50.2 
Q 332.075312 50.2 332.075312 53 
L 332.075312 108.375687 
Q 332.075312 111.175687 334.875313 111.175687 
z
" style="fill:#ffffff;opacity:0.8;stroke:#cccccc;stroke-linejoin:miter;"/>
    </g>
    <g id="line2d_19">
     <path d="M 337.675313 61.537812 
L 365.675313 61.537812 
" style="fill:none;stroke:#ff0000;stroke-linecap:square;stroke-width:2;"/>
    </g>
    <g id="line2d_20"/>
    <g id="text_20">
     <!-- Front speed -->
     <g transform="translate(376.875313 66.437812)scale(0.14 -0.14)">
      <use xlink:href="#DejaVuSans-46"/>
      <use x="50.269531" xlink:href="#DejaVuSans-72"/>
      <use x="89.132812" xlink:href="#DejaVuSans-6f"/>
      <use x="150.314453" xlink:href="#DejaVuSans-6e"/>
      <use x="213.693359" xlink:href="#DejaVuSans-74"/>
      <use x="252.902344" xlink:href="#DejaVuSans-20"/>
      <use x="284.689453" xlink:href="#DejaVuSans-73"/>
      <use x="336.789062" xlink:href="#DejaVuSans-70"/>
      <use x="400.265625" xlink:href="#DejaVuSans-65"/>
      <use x="461.789062" xlink:href="#DejaVuSans-65"/>
      <use x="523.3125" xlink:href="#DejaVuSans-64"/>
     </g>
    </g>
    <g id="line2d_21">
     <path d="M 337.675313 91.381437 
L 365.675313 91.381437 
" style="fill:none;stroke:#000000;stroke-dasharray:5.55,2.4;stroke-dashoffset:0;stroke-width:1.5;"/>
    </g>
    <g id="line2d_22"/>
    <g id="text_21">
     <!-- Steady state -->
     <g transform="translate(376.875313 86.987187)scale(0.14 -0.14)">
      <defs>
       <path d="M 2059 -325 
Q 1816 -950 1584 -1140 
Q 1353 -1331 966 -1331 
L 506 -1331 
L 506 -850 
L 844 -850 
Q 1081 -850 1212 -737 
Q 1344 -625 1503 -206 
L 1606 56 
L 191 3500 
L 800 3500 
L 1894 763 
L 2988 3500 
L 3597 3500 
L 2059 -325 
z
" id="DejaVuSans-79" transform="scale(0.015625)"/>
      </defs>
      <use xlink:href="#DejaVuSans-53"/>
      <use x="63.476562" xlink:href="#DejaVuSans-74"/>
      <use x="102.685547" xlink:href="#DejaVuSans-65"/>
      <use x="164.208984" xlink:href="#DejaVuSans-61"/>
      <use x="225.488281" xlink:href="#DejaVuSans-64"/>
      <use x="288.964844" xlink:href="#DejaVuSans-79"/>
      <use x="348.144531" xlink:href="#DejaVuSans-20"/>
      <use x="379.931641" xlink:href="#DejaVuSans-73"/>
      <use x="432.03125" xlink:href="#DejaVuSans-74"/>
      <use x="471.240234" xlink:href="#DejaVuSans-61"/>
      <use x="532.519531" xlink:href="#DejaVuSans-74"/>
      <use x="571.728516" xlink:href="#DejaVuSans-65"/>
     </g>
     <!-- speed = 0.9 mm/s -->
     <g transform="translate(376.875313 102.664125)scale(0.14 -0.14)">
      <defs>
       <path d="M 678 2906 
L 4684 2906 
L 4684 2381 
L 678 2381 
L 678 2906 
z
M 678 1631 
L 4684 1631 
L 4684 1100 
L 678 1100 
L 678 1631 
z
" id="DejaVuSans-3d" transform="scale(0.015625)"/>
       <path d="M 703 97 
L 703 672 
Q 941 559 1184 500 
Q 1428 441 1663 441 
Q 2288 441 2617 861 
Q 2947 1281 2994 2138 
Q 2813 1869 2534 1725 
Q 2256 1581 1919 1581 
Q 1219 1581 811 2004 
Q 403 2428 403 3163 
Q 403 3881 828 4315 
Q 1253 4750 1959 4750 
Q 2769 4750 3195 4129 
Q 3622 3509 3622 2328 
Q 3622 1225 3098 567 
Q 2575 -91 1691 -91 
Q 1453 -91 1209 -44 
Q 966 3 703 97 
z
M 1959 2075 
Q 2384 2075 2632 2365 
Q 2881 2656 2881 3163 
Q 2881 3666 2632 3958 
Q 2384 4250 1959 4250 
Q 1534 4250 1286 3958 
Q 1038 3666 1038 3163 
Q 1038 2656 1286 2365 
Q 1534 2075 1959 2075 
z
" id="DejaVuSans-39" transform="scale(0.015625)"/>
      </defs>
      <use xlink:href="#DejaVuSans-73"/>
      <use x="52.099609" xlink:href="#DejaVuSans-70"/>
      <use x="115.576172" xlink:href="#DejaVuSans-65"/>
      <use x="177.099609" xlink:href="#DejaVuSans-65"/>
      <use x="238.623047" xlink:href="#DejaVuSans-64"/>
      <use x="302.099609" xlink:href="#DejaVuSans-20"/>
      <use x="333.886719" xlink:href="#DejaVuSans-3d"/>
      <use x="417.675781" xlink:href="#DejaVuSans-20"/>
      <use x="449.462891" xlink:href="#DejaVuSans-30"/>
      <use x="513.085938" xlink:href="#DejaVuSans-2e"/>
      <use x="544.873047" xlink:href="#DejaVuSans-39"/>
      <use x="608.496094" xlink:href="#DejaVuSans-20"/>
      <use x="640.283203" xlink:href="#DejaVuSans-6d"/>
      <use x="737.695312" xlink:href="#DejaVuSans-6d"/>
      <use x="835.107422" xlink:href="#DejaVuSans-2f"/>
      <use x="868.798828" xlink:href="#DejaVuSans-73"/>
     </g>
    </g>
   </g>
  </g>
 </g>
 <defs>
  <clipPath id="p7d73a2a889">
   <rect height="277.2" width="446.4" x="72" y="43.2"/>
  </clipPath>
 </defs>
</svg>
