<?xml version="1.0" encoding="utf-8" standalone="no"?>
<!DOCTYPE svg PUBLIC "-//W3C//DTD SVG 1.1//EN"
  "http://www.w3.org/Graphics/SVG/1.1/DTD/svg11.dtd">
<svg height="360pt" version="1.1" viewBox="0 0 576 360" width="576pt" xmlns="http://www.w3.org/2000/svg" xmlns:xlink="http://www.w3.org/1999/xlink">
 <metadata>
  <rdf:RDF xmlns:cc="http://creativecommons.org/ns#" xmlns:dc="http://purl.org/dc/elements/1.1/" xmlns:rdf="http://www.w3.org/1999/02/22-rdf-syntax-ns#">
   <cc:Work>
    <dc:type rdf:resource="http://purl.org/dc/dcmitype/StillImage"/>
    <dc:date>2022-06-30T14:11:23.837704</dc:date>
    <dc:format>image/svg+xml</dc:format>
    <dc:creator>
     <cc:Agent>
      <dc:title>Matplotlib v3.4.3, https://matplotlib.org/</dc:title>
     </cc:Agent>
    </dc:creator>
   </cc:Work>
  </rdf:RDF>
 </metadata>
 <defs>
  <style type="text/css">*{stroke-linecap:butt;stroke-linejoin:round;}</style>
 </defs>
 <g id="figure_1">
  <g id="patch_1">
   <path d="M 0 360 
L 576 360 
L 576 0 
L 0 0 
z
" style="fill:#ffffff;"/>
  </g>
  <g id="axes_1">
   <g id="patch_2">
    <path d="M 72 320.4 
L 518.4 320.4 
L 518.4 43.2 
L 72 43.2 
z
" style="fill:#ffffff;"/>
   </g>
   <g id="PolyCollection_1">
    <defs>
     <path d="M 72 -194.299786 
L 72 -198.175293 
L 72.451822 -198.175293 
L 72.903644 -198.175293 
L 73.355466 -198.175293 
L 73.807287 -198.175293 
L 74.259109 -198.175293 
L 74.710931 -198.175293 
L 75.162753 -198.175293 
L 75.614575 -198.175293 
L 76.066397 -198.175293 
L 76.518219 -198.175293 
L 76.97004 -198.175293 
L 77.421862 -198.175293 
L 77.873684 -198.175293 
L 78.325506 -198.175293 
L 78.777328 -198.175293 
L 79.22915 -198.175293 
L 79.680972 -198.175293 
L 80.132794 -198.175293 
L 80.584615 -198.175293 
L 81.036437 -198.175293 
L 81.488259 -198.175293 
L 81.940081 -198.175293 
L 82.391903 -198.175293 
L 82.843725 -198.175293 
L 83.295547 -198.175293 
L 83.747368 -198.175293 
L 84.19919 -198.175293 
L 84.651012 -198.175293 
L 85.102834 -198.175293 
L 85.554656 -198.175293 
L 86.006478 -198.175293 
L 86.4583 -198.175293 
L 86.910121 -198.175293 
L 87.361943 -198.175293 
L 87.813765 -198.175293 
L 88.265587 -198.175293 
L 88.717409 -198.175293 
L 89.169231 -198.175293 
L 89.621053 -198.175293 
L 90.072874 -198.175293 
L 90.524696 -198.175293 
L 90.976518 -198.175293 
L 91.42834 -198.175293 
L 91.880162 -198.175293 
L 92.331984 -198.175293 
L 92.783806 -198.175293 
L 93.235628 -198.175293 
L 93.687449 -198.175293 
L 94.139271 -198.175293 
L 94.591093 -198.175293 
L 95.042915 -198.175293 
L 95.494737 -198.175293 
L 95.946559 -198.175293 
L 96.398381 -198.175293 
L 96.850202 -198.175293 
L 97.302024 -198.175293 
L 97.753846 -198.175293 
L 98.205668 -198.175293 
L 98.65749 -198.175293 
L 99.109312 -198.175293 
L 99.561134 -198.175293 
L 100.012955 -198.175293 
L 100.464777 -198.175293 
L 100.916599 -198.175293 
L 101.368421 -198.175293 
L 101.820243 -198.175293 
L 102.272065 -198.175293 
L 102.723887 -198.175293 
L 103.175709 -198.175293 
L 103.62753 -198.175293 
L 104.079352 -198.175293 
L 104.531174 -198.175293 
L 104.982996 -198.175293 
L 105.434818 -198.175293 
L 105.88664 -198.175293 
L 106.338462 -198.175293 
L 106.790283 -198.175293 
L 107.242105 -198.175293 
L 107.693927 -198.175293 
L 108.145749 -198.175293 
L 108.597571 -198.175293 
L 109.049393 -198.175293 
L 109.501215 -198.175293 
L 109.953036 -198.175293 
L 110.404858 -198.175293 
L 110.85668 -198.175293 
L 111.308502 -198.175293 
L 111.760324 -198.175293 
L 112.212146 -198.175293 
L 112.663968 -198.175293 
L 113.115789 -198.175293 
L 113.567611 -198.175293 
L 114.019433 -198.175293 
L 114.471255 -198.175293 
L 114.923077 -198.175293 
L 115.374899 -198.175293 
L 115.826721 -198.175293 
L 116.278543 -198.175293 
L 116.730364 -198.175293 
L 117.182186 -198.175293 
L 117.634008 -198.175293 
L 118.08583 -198.175293 
L 118.537652 -198.175293 
L 118.989474 -198.175293 
L 119.441296 -198.175293 
L 119.893117 -198.175293 
L 120.344939 -198.175293 
L 120.796761 -198.175293 
L 121.248583 -198.175293 
L 121.700405 -198.175293 
L 122.152227 -198.175293 
L 122.604049 -198.175293 
L 123.05587 -198.175293 
L 123.507692 -198.175293 
L 123.959514 -198.175293 
L 124.411336 -198.175293 
L 124.863158 -198.175293 
L 125.31498 -198.175293 
L 125.766802 -198.175293 
L 126.218623 -198.175293 
L 126.670445 -198.175293 
L 127.122267 -198.175293 
L 127.574089 -198.175293 
L 128.025911 -198.175293 
L 128.477733 -198.175293 
L 128.929555 -198.175293 
L 129.381377 -198.175293 
L 129.833198 -198.175293 
L 130.28502 -198.175293 
L 130.736842 -198.175293 
L 131.188664 -198.175293 
L 131.640486 -198.175293 
L 132.092308 -198.175293 
L 132.54413 -198.175293 
L 132.995951 -198.175293 
L 133.447773 -198.175293 
L 133.899595 -198.175293 
L 134.351417 -198.175293 
L 134.803239 -198.175293 
L 135.255061 -198.175293 
L 135.706883 -198.175293 
L 136.158704 -198.175293 
L 136.610526 -198.175293 
L 137.062348 -198.175293 
L 137.51417 -198.175293 
L 137.965992 -198.175293 
L 138.417814 -198.175293 
L 138.869636 -198.175293 
L 139.321457 -198.175293 
L 139.773279 -198.175293 
L 140.225101 -198.175293 
L 140.676923 -198.175293 
L 141.128745 -198.175293 
L 141.580567 -198.175293 
L 142.032389 -198.175293 
L 142.484211 -198.175293 
L 142.936032 -198.175293 
L 143.387854 -198.175293 
L 143.839676 -198.175293 
L 144.291498 -198.175293 
L 144.74332 -198.175293 
L 145.195142 -198.175293 
L 145.646964 -198.175293 
L 146.098785 -198.175293 
L 146.550607 -198.175293 
L 147.002429 -198.175293 
L 147.454251 -198.175293 
L 147.906073 -198.175293 
L 148.357895 -198.175293 
L 148.809717 -198.175293 
L 149.261538 -198.175293 
L 149.71336 -198.175293 
L 150.165182 -198.175293 
L 150.617004 -198.175293 
L 151.068826 -198.175293 
L 151.520648 -198.175293 
L 151.97247 -198.175293 
L 152.424291 -198.175293 
L 152.876113 -198.175293 
L 153.327935 -198.175293 
L 153.779757 -198.175293 
L 154.231579 -198.175293 
L 154.683401 -198.175293 
L 155.135223 -198.175293 
L 155.587045 -198.175293 
L 156.038866 -198.175293 
L 156.490688 -198.175293 
L 156.94251 -198.175293 
L 157.394332 -198.175293 
L 157.846154 -198.175293 
L 158.297976 -198.175293 
L 158.749798 -198.175293 
L 159.201619 -198.175293 
L 159.653441 -198.175293 
L 160.105263 -198.175293 
L 160.557085 -198.175293 
L 161.008907 -198.175293 
L 161.460729 -198.175293 
L 161.912551 -198.175293 
L 162.364372 -198.175293 
L 162.816194 -198.175293 
L 163.268016 -198.175293 
L 163.719838 -198.175293 
L 164.17166 -198.175293 
L 164.623482 -198.175293 
L 165.075304 -198.175293 
L 165.527126 -198.175293 
L 165.978947 -198.175293 
L 166.430769 -198.175293 
L 166.882591 -198.175293 
L 167.334413 -198.175293 
L 167.786235 -198.175293 
L 168.238057 -198.175293 
L 168.689879 -198.175293 
L 169.1417 -198.175293 
L 169.593522 -198.175293 
L 170.045344 -198.175293 
L 170.497166 -198.175293 
L 170.948988 -198.175293 
L 171.40081 -198.175293 
L 171.852632 -198.175293 
L 172.304453 -198.175293 
L 172.756275 -198.175293 
L 173.208097 -198.175293 
L 173.659919 -198.175293 
L 174.111741 -198.175293 
L 174.563563 -198.175293 
L 175.015385 -198.175293 
L 175.467206 -198.175293 
L 175.919028 -198.175293 
L 176.37085 -198.175293 
L 176.822672 -198.175293 
L 177.274494 -198.175293 
L 177.726316 -198.175293 
L 178.178138 -198.175293 
L 178.62996 -198.175293 
L 179.081781 -198.175293 
L 179.533603 -198.175293 
L 179.985425 -198.175293 
L 180.437247 -198.175293 
L 180.889069 -198.175293 
L 181.340891 -198.175293 
L 181.792713 -198.175293 
L 182.244534 -198.175293 
L 182.696356 -198.175293 
L 183.148178 -198.175293 
L 183.6 -198.175293 
L 184.051822 -198.175293 
L 184.503644 -198.175293 
L 184.955466 -198.175293 
L 185.407287 -198.175293 
L 185.859109 -198.175293 
L 186.310931 -198.175293 
L 186.762753 -198.175293 
L 187.214575 -198.175293 
L 187.666397 -198.175293 
L 188.118219 -198.175293 
L 188.57004 -198.175293 
L 189.021862 -198.175293 
L 189.473684 -198.175293 
L 189.925506 -198.175293 
L 190.377328 -198.175293 
L 190.82915 -198.175293 
L 191.280972 -198.175293 
L 191.732794 -198.175293 
L 192.184615 -198.175293 
L 192.636437 -198.175293 
L 193.088259 -198.175293 
L 193.540081 -198.175293 
L 193.991903 -198.175293 
L 194.443725 -198.175293 
L 194.895547 -198.175293 
L 195.347368 -198.175293 
L 195.79919 -198.175293 
L 196.251012 -198.175293 
L 196.702834 -198.175293 
L 197.154656 -198.175293 
L 197.606478 -198.175293 
L 198.0583 -198.175293 
L 198.510121 -198.175293 
L 198.961943 -198.175293 
L 199.413765 -198.175293 
L 199.865587 -198.175293 
L 200.317409 -198.175293 
L 200.769231 -198.175293 
L 201.221053 -198.175293 
L 201.672874 -198.175293 
L 202.124696 -198.175293 
L 202.576518 -198.175293 
L 203.02834 -198.175293 
L 203.480162 -198.175293 
L 203.931984 -198.175293 
L 204.383806 -198.175293 
L 204.835628 -198.175293 
L 205.287449 -198.175293 
L 205.739271 -198.175293 
L 206.191093 -198.175293 
L 206.642915 -198.175293 
L 207.094737 -198.175293 
L 207.546559 -198.175293 
L 207.998381 -198.175293 
L 208.450202 -198.175293 
L 208.902024 -198.175293 
L 209.353846 -198.175293 
L 209.805668 -198.175293 
L 210.25749 -198.175293 
L 210.709312 -198.175293 
L 211.161134 -198.175293 
L 211.612955 -198.175293 
L 212.064777 -198.175293 
L 212.516599 -198.175293 
L 212.968421 -198.175293 
L 213.420243 -198.175293 
L 213.872065 -198.175293 
L 214.323887 -198.175293 
L 214.775709 -198.175293 
L 215.22753 -198.175293 
L 215.679352 -198.175293 
L 216.131174 -198.175293 
L 216.582996 -198.175293 
L 217.034818 -198.175293 
L 217.48664 -198.175293 
L 217.938462 -198.175293 
L 218.390283 -198.175293 
L 218.842105 -198.175293 
L 219.293927 -198.175293 
L 219.745749 -198.175293 
L 220.197571 -198.175293 
L 220.649393 -198.175293 
L 221.101215 -198.175293 
L 221.553036 -198.175293 
L 222.004858 -198.175293 
L 222.45668 -198.175293 
L 222.908502 -198.175293 
L 223.360324 -198.175293 
L 223.812146 -198.175293 
L 224.263968 -198.175293 
L 224.715789 -198.175293 
L 225.167611 -198.175293 
L 225.619433 -198.175293 
L 226.071255 -198.175293 
L 226.523077 -198.175293 
L 226.974899 -198.175293 
L 227.426721 -198.175293 
L 227.878543 -198.175293 
L 228.330364 -198.175293 
L 228.782186 -198.175293 
L 229.234008 -198.175293 
L 229.68583 -198.175293 
L 230.137652 -198.175293 
L 230.589474 -198.175293 
L 231.041296 -198.175293 
L 231.493117 -198.175293 
L 231.944939 -198.175293 
L 232.396761 -198.175293 
L 232.848583 -198.175293 
L 233.300405 -198.175293 
L 233.752227 -198.175293 
L 234.204049 -198.175293 
L 234.65587 -198.175293 
L 235.107692 -198.175293 
L 235.559514 -198.175293 
L 236.011336 -198.175293 
L 236.463158 -198.175293 
L 236.91498 -198.175293 
L 237.366802 -198.175293 
L 237.818623 -198.175293 
L 238.270445 -198.175293 
L 238.722267 -198.175293 
L 239.174089 -198.175293 
L 239.625911 -198.175293 
L 240.077733 -198.175293 
L 240.529555 -198.175293 
L 240.981377 -198.175293 
L 241.433198 -198.175293 
L 241.88502 -198.175293 
L 242.336842 -198.175293 
L 242.788664 -198.175293 
L 243.240486 -198.175293 
L 243.692308 -198.175293 
L 244.14413 -198.175293 
L 244.595951 -198.175293 
L 245.047773 -198.175293 
L 245.499595 -198.175293 
L 245.951417 -198.175293 
L 246.403239 -198.175293 
L 246.855061 -198.175293 
L 247.306883 -198.175293 
L 247.758704 -198.175293 
L 248.210526 -198.175293 
L 248.662348 -198.175293 
L 249.11417 -198.175293 
L 249.565992 -198.175293 
L 250.017814 -198.175293 
L 250.469636 -198.175293 
L 250.921457 -198.175293 
L 251.373279 -198.175293 
L 251.825101 -198.175293 
L 252.276923 -198.175293 
L 252.728745 -198.175293 
L 253.180567 -198.175293 
L 253.632389 -198.175293 
L 254.084211 -198.175293 
L 254.536032 -198.175293 
L 254.987854 -198.175293 
L 255.439676 -198.175293 
L 255.891498 -198.175293 
L 256.34332 -198.175293 
L 256.795142 -198.175293 
L 257.246964 -198.175293 
L 257.698785 -198.175293 
L 258.150607 -198.175293 
L 258.602429 -198.175293 
L 259.054251 -198.175293 
L 259.506073 -198.175293 
L 259.957895 -198.175293 
L 260.409717 -198.175293 
L 260.861538 -198.175293 
L 261.31336 -198.175293 
L 261.765182 -198.175293 
L 262.217004 -198.175293 
L 262.668826 -198.175293 
L 263.120648 -198.175293 
L 263.57247 -198.175293 
L 264.024291 -198.175293 
L 264.476113 -198.175293 
L 264.927935 -198.175293 
L 265.379757 -198.175293 
L 265.831579 -198.175293 
L 266.283401 -198.175293 
L 266.735223 -198.175293 
L 267.187045 -198.175293 
L 267.638866 -198.175293 
L 268.090688 -198.175293 
L 268.54251 -198.175293 
L 268.994332 -198.175293 
L 269.446154 -198.175293 
L 269.897976 -198.175293 
L 270.349798 -198.175293 
L 270.801619 -198.175293 
L 271.253441 -198.175293 
L 271.705263 -198.175293 
L 272.157085 -198.175293 
L 272.608907 -198.175293 
L 273.060729 -198.175293 
L 273.512551 -198.175293 
L 273.964372 -198.175293 
L 274.416194 -198.175293 
L 274.868016 -198.175293 
L 275.319838 -198.175293 
L 275.77166 -198.175293 
L 276.223482 -198.175293 
L 276.675304 -198.175293 
L 277.127126 -198.175293 
L 277.578947 -198.175293 
L 278.030769 -198.175293 
L 278.482591 -198.175293 
L 278.934413 -198.175293 
L 279.386235 -198.175293 
L 279.838057 -198.175293 
L 280.289879 -198.175293 
L 280.7417 -198.175293 
L 281.193522 -198.175293 
L 281.645344 -198.175293 
L 282.097166 -198.175293 
L 282.548988 -198.175293 
L 283.00081 -198.175293 
L 283.452632 -198.175293 
L 283.904453 -198.175293 
L 284.356275 -198.175293 
L 284.808097 -198.175293 
L 285.259919 -198.175293 
L 285.711741 -198.175293 
L 286.163563 -198.175293 
L 286.615385 -198.175293 
L 287.067206 -198.175293 
L 287.519028 -198.175293 
L 287.97085 -198.175293 
L 288.422672 -198.175293 
L 288.874494 -198.175293 
L 289.326316 -198.175293 
L 289.778138 -198.175293 
L 290.22996 -198.175293 
L 290.681781 -198.175293 
L 291.133603 -198.175293 
L 291.585425 -198.175293 
L 292.037247 -198.175293 
L 292.489069 -198.175293 
L 292.940891 -198.175293 
L 293.392713 -198.175293 
L 293.844534 -198.175293 
L 294.296356 -198.175293 
L 294.748178 -198.175293 
L 295.2 -198.175293 
L 295.651822 -198.175293 
L 296.103644 -198.175293 
L 296.555466 -198.175293 
L 297.007287 -198.175293 
L 297.459109 -198.175293 
L 297.910931 -198.175293 
L 298.362753 -198.175293 
L 298.814575 -198.175293 
L 299.266397 -198.175293 
L 299.718219 -198.175293 
L 300.17004 -198.175293 
L 300.621862 -198.175293 
L 301.073684 -198.175293 
L 301.525506 -198.175293 
L 301.977328 -198.175293 
L 302.42915 -198.175293 
L 302.880972 -198.175293 
L 303.332794 -198.175293 
L 303.784615 -198.175293 
L 304.236437 -198.175293 
L 304.688259 -198.175293 
L 305.140081 -198.175293 
L 305.591903 -198.175293 
L 306.043725 -198.175293 
L 306.495547 -198.175293 
L 306.947368 -198.175293 
L 307.39919 -198.175293 
L 307.851012 -198.175293 
L 308.302834 -198.175293 
L 308.754656 -198.175293 
L 309.206478 -198.175293 
L 309.6583 -198.175293 
L 310.110121 -198.175293 
L 310.561943 -198.175293 
L 311.013765 -198.175293 
L 311.465587 -198.175293 
L 311.917409 -198.175293 
L 312.369231 -198.175293 
L 312.821053 -198.175293 
L 313.272874 -198.175293 
L 313.724696 -198.175293 
L 314.176518 -198.175293 
L 314.62834 -198.175293 
L 315.080162 -198.175293 
L 315.531984 -198.175293 
L 315.983806 -198.175293 
L 316.435628 -198.175293 
L 316.887449 -198.175293 
L 317.339271 -198.175293 
L 317.791093 -198.175293 
L 318.242915 -198.175293 
L 318.694737 -198.175293 
L 319.146559 -198.175293 
L 319.598381 -198.175293 
L 320.050202 -198.175293 
L 320.502024 -198.175293 
L 320.953846 -198.175293 
L 321.405668 -198.175293 
L 321.85749 -198.175293 
L 322.309312 -198.175293 
L 322.761134 -198.175293 
L 323.212955 -198.175293 
L 323.664777 -198.175293 
L 324.116599 -198.175293 
L 324.568421 -198.175293 
L 325.020243 -198.175293 
L 325.472065 -198.175293 
L 325.923887 -198.175293 
L 326.375709 -198.175293 
L 326.82753 -198.175293 
L 327.279352 -198.175293 
L 327.731174 -198.175293 
L 328.182996 -198.175293 
L 328.634818 -198.175293 
L 329.08664 -198.175293 
L 329.538462 -198.175293 
L 329.990283 -198.175293 
L 330.442105 -198.175293 
L 330.893927 -198.175293 
L 331.345749 -198.175293 
L 331.797571 -198.175293 
L 332.249393 -198.175293 
L 332.701215 -198.175293 
L 333.153036 -198.175293 
L 333.604858 -198.175293 
L 334.05668 -198.175293 
L 334.508502 -198.175293 
L 334.960324 -198.175293 
L 335.412146 -198.175293 
L 335.863968 -198.175293 
L 336.315789 -198.175293 
L 336.767611 -198.175293 
L 337.219433 -198.175293 
L 337.671255 -198.175293 
L 338.123077 -198.175293 
L 338.574899 -198.175293 
L 339.026721 -198.175293 
L 339.478543 -198.175293 
L 339.930364 -198.175293 
L 340.382186 -198.175293 
L 340.834008 -198.175293 
L 341.28583 -198.175293 
L 341.737652 -198.175293 
L 342.189474 -198.175293 
L 342.641296 -198.175293 
L 343.093117 -198.175293 
L 343.544939 -198.175293 
L 343.996761 -198.175293 
L 344.448583 -198.175293 
L 344.900405 -198.175293 
L 345.352227 -198.175293 
L 345.804049 -198.175293 
L 346.25587 -198.175293 
L 346.707692 -198.175293 
L 347.159514 -198.175293 
L 347.611336 -198.175293 
L 348.063158 -198.175293 
L 348.51498 -198.175293 
L 348.966802 -198.175293 
L 349.418623 -198.175293 
L 349.870445 -198.175293 
L 350.322267 -198.175293 
L 350.774089 -198.175293 
L 351.225911 -198.175293 
L 351.677733 -198.175293 
L 352.129555 -198.175293 
L 352.581377 -198.175293 
L 353.033198 -198.175293 
L 353.48502 -198.175293 
L 353.936842 -198.175293 
L 354.388664 -198.175293 
L 354.840486 -198.175293 
L 355.292308 -198.175293 
L 355.74413 -198.175293 
L 356.195951 -198.175293 
L 356.647773 -198.175293 
L 357.099595 -198.175293 
L 357.551417 -198.175293 
L 358.003239 -198.175293 
L 358.455061 -198.175293 
L 358.906883 -198.175293 
L 359.358704 -198.175293 
L 359.810526 -198.175293 
L 360.262348 -198.175293 
L 360.71417 -198.175293 
L 361.165992 -198.175293 
L 361.617814 -198.175293 
L 362.069636 -198.175293 
L 362.521457 -198.175293 
L 362.973279 -198.175293 
L 363.425101 -198.175293 
L 363.876923 -198.175293 
L 364.328745 -198.175293 
L 364.780567 -198.175293 
L 365.232389 -198.175293 
L 365.684211 -198.175293 
L 366.136032 -198.175293 
L 366.587854 -198.175293 
L 367.039676 -198.175293 
L 367.491498 -198.175293 
L 367.94332 -198.175293 
L 368.395142 -198.175293 
L 368.846964 -198.175293 
L 369.298785 -198.175293 
L 369.750607 -198.175293 
L 370.202429 -198.175293 
L 370.654251 -198.175293 
L 371.106073 -198.175293 
L 371.557895 -198.175293 
L 372.009717 -198.175293 
L 372.461538 -198.175293 
L 372.91336 -198.175293 
L 373.365182 -198.175293 
L 373.817004 -198.175293 
L 374.268826 -198.175293 
L 374.720648 -198.175293 
L 375.17247 -198.175293 
L 375.624291 -198.175293 
L 376.076113 -198.175293 
L 376.527935 -198.175293 
L 376.979757 -198.175293 
L 377.431579 -198.175293 
L 377.883401 -198.175293 
L 378.335223 -198.175293 
L 378.787045 -198.175293 
L 379.238866 -198.175293 
L 379.690688 -198.175293 
L 380.14251 -198.175293 
L 380.594332 -198.175293 
L 381.046154 -198.175293 
L 381.497976 -198.175293 
L 381.949798 -198.175293 
L 382.401619 -198.175293 
L 382.853441 -198.175293 
L 383.305263 -198.175293 
L 383.757085 -198.175293 
L 384.208907 -198.175293 
L 384.660729 -198.175293 
L 385.112551 -198.175293 
L 385.564372 -198.175293 
L 386.016194 -198.175293 
L 386.468016 -198.175293 
L 386.919838 -198.175293 
L 387.37166 -198.175293 
L 387.823482 -198.175293 
L 388.275304 -198.175293 
L 388.727126 -198.175293 
L 389.178947 -198.175293 
L 389.630769 -198.175293 
L 390.082591 -198.175293 
L 390.534413 -198.175293 
L 390.986235 -198.175293 
L 391.438057 -198.175293 
L 391.889879 -198.175293 
L 392.3417 -198.175293 
L 392.793522 -198.175293 
L 393.245344 -198.175293 
L 393.697166 -198.175293 
L 394.148988 -198.175293 
L 394.60081 -198.175293 
L 395.052632 -198.175293 
L 395.504453 -198.175293 
L 395.956275 -198.175293 
L 396.408097 -198.175293 
L 396.859919 -198.175293 
L 397.311741 -198.175293 
L 397.763563 -198.175293 
L 398.215385 -198.175293 
L 398.667206 -198.175293 
L 399.119028 -198.175293 
L 399.57085 -198.175293 
L 400.022672 -198.175293 
L 400.474494 -198.175293 
L 400.926316 -198.175293 
L 401.378138 -198.175293 
L 401.82996 -198.175293 
L 402.281781 -198.175293 
L 402.733603 -198.175293 
L 403.185425 -198.175293 
L 403.637247 -198.175293 
L 404.089069 -198.175293 
L 404.540891 -198.175293 
L 404.992713 -198.175293 
L 405.444534 -198.175293 
L 405.896356 -198.175293 
L 406.348178 -198.175293 
L 406.8 -198.175293 
L 407.251822 -198.175293 
L 407.703644 -198.175293 
L 408.155466 -198.175293 
L 408.607287 -198.175293 
L 409.059109 -198.175293 
L 409.510931 -198.175293 
L 409.962753 -198.175293 
L 410.414575 -198.175293 
L 410.866397 -198.175293 
L 411.318219 -198.175293 
L 411.77004 -198.175293 
L 412.221862 -198.175293 
L 412.673684 -198.175293 
L 413.125506 -198.175293 
L 413.577328 -198.175293 
L 414.02915 -198.175293 
L 414.480972 -198.175293 
L 414.932794 -198.175293 
L 415.384615 -198.175293 
L 415.836437 -198.175293 
L 416.288259 -198.175293 
L 416.740081 -198.175293 
L 417.191903 -198.175293 
L 417.643725 -198.175293 
L 418.095547 -198.175293 
L 418.547368 -198.175293 
L 418.99919 -198.175293 
L 419.451012 -198.175293 
L 419.902834 -198.175293 
L 420.354656 -198.175293 
L 420.806478 -198.175293 
L 421.2583 -198.175293 
L 421.710121 -198.175293 
L 422.161943 -198.175293 
L 422.613765 -198.175293 
L 423.065587 -198.175293 
L 423.517409 -198.175293 
L 423.969231 -198.175293 
L 424.421053 -198.175293 
L 424.872874 -198.175293 
L 425.324696 -198.175293 
L 425.776518 -198.175293 
L 426.22834 -198.175293 
L 426.680162 -198.175293 
L 427.131984 -198.175293 
L 427.583806 -198.175293 
L 428.035628 -198.175293 
L 428.487449 -198.175293 
L 428.939271 -198.175293 
L 429.391093 -198.175293 
L 429.842915 -198.175293 
L 430.294737 -198.175293 
L 430.746559 -198.175293 
L 431.198381 -198.175293 
L 431.650202 -198.175293 
L 432.102024 -198.175293 
L 432.553846 -198.175293 
L 433.005668 -198.175293 
L 433.45749 -198.175293 
L 433.909312 -198.175293 
L 434.361134 -198.175293 
L 434.812955 -198.175293 
L 435.264777 -198.175293 
L 435.716599 -198.175293 
L 436.168421 -198.175293 
L 436.620243 -198.175293 
L 437.072065 -198.175293 
L 437.523887 -198.175293 
L 437.975709 -198.175293 
L 438.42753 -198.175293 
L 438.879352 -198.175293 
L 439.331174 -198.175293 
L 439.782996 -198.175293 
L 440.234818 -198.175293 
L 440.68664 -198.175293 
L 441.138462 -198.175293 
L 441.590283 -198.175293 
L 442.042105 -198.175293 
L 442.493927 -198.175293 
L 442.945749 -198.175293 
L 443.397571 -198.175293 
L 443.849393 -198.175293 
L 444.301215 -198.175293 
L 444.753036 -198.175293 
L 445.204858 -198.175293 
L 445.65668 -198.175293 
L 446.108502 -198.175293 
L 446.560324 -198.175293 
L 447.012146 -198.175293 
L 447.463968 -198.175293 
L 447.915789 -198.175293 
L 448.367611 -198.175293 
L 448.819433 -198.175293 
L 449.271255 -198.175293 
L 449.723077 -198.175293 
L 450.174899 -198.175293 
L 450.626721 -198.175293 
L 451.078543 -198.175293 
L 451.530364 -198.175293 
L 451.982186 -198.175293 
L 452.434008 -198.175293 
L 452.88583 -198.175293 
L 453.337652 -198.175293 
L 453.789474 -198.175293 
L 454.241296 -198.175293 
L 454.693117 -198.175293 
L 455.144939 -198.175293 
L 455.596761 -198.175293 
L 456.048583 -198.175293 
L 456.500405 -198.175293 
L 456.952227 -198.175293 
L 457.404049 -198.175293 
L 457.85587 -198.175293 
L 458.307692 -198.175293 
L 458.759514 -198.175293 
L 459.211336 -198.175293 
L 459.663158 -198.175293 
L 460.11498 -198.175293 
L 460.566802 -198.175293 
L 461.018623 -198.175293 
L 461.470445 -198.175293 
L 461.922267 -198.175293 
L 462.374089 -198.175293 
L 462.825911 -198.175293 
L 463.277733 -198.175293 
L 463.729555 -198.175293 
L 464.181377 -198.175293 
L 464.633198 -198.175293 
L 465.08502 -198.175293 
L 465.536842 -198.175293 
L 465.988664 -198.175293 
L 466.440486 -198.175293 
L 466.892308 -198.175293 
L 467.34413 -198.175293 
L 467.795951 -198.175293 
L 468.247773 -198.175293 
L 468.699595 -198.175293 
L 469.151417 -198.175293 
L 469.603239 -198.175293 
L 470.055061 -198.175293 
L 470.506883 -198.175293 
L 470.958704 -198.175293 
L 471.410526 -198.175293 
L 471.862348 -198.175293 
L 472.31417 -198.175293 
L 472.765992 -198.175293 
L 473.217814 -198.175293 
L 473.669636 -198.175293 
L 474.121457 -198.175293 
L 474.573279 -198.175293 
L 475.025101 -198.175293 
L 475.476923 -198.175293 
L 475.928745 -198.175293 
L 476.380567 -198.175293 
L 476.832389 -198.175293 
L 477.284211 -198.175293 
L 477.736032 -198.175293 
L 478.187854 -198.175293 
L 478.639676 -198.175293 
L 479.091498 -198.175293 
L 479.54332 -198.175293 
L 479.995142 -198.175293 
L 480.446964 -198.175293 
L 480.898785 -198.175293 
L 481.350607 -198.175293 
L 481.802429 -198.175293 
L 482.254251 -198.175293 
L 482.706073 -198.175293 
L 483.157895 -198.175293 
L 483.609717 -198.175293 
L 484.061538 -198.175293 
L 484.51336 -198.175293 
L 484.965182 -198.175293 
L 485.417004 -198.175293 
L 485.868826 -198.175293 
L 486.320648 -198.175293 
L 486.77247 -198.175293 
L 487.224291 -198.175293 
L 487.676113 -198.175293 
L 488.127935 -198.175293 
L 488.579757 -198.175293 
L 489.031579 -198.175293 
L 489.483401 -198.175293 
L 489.935223 -198.175293 
L 490.387045 -198.175293 
L 490.838866 -198.175293 
L 491.290688 -198.175293 
L 491.74251 -198.175293 
L 492.194332 -198.175293 
L 492.646154 -198.175293 
L 493.097976 -198.175293 
L 493.549798 -198.175293 
L 494.001619 -198.175293 
L 494.453441 -198.175293 
L 494.905263 -198.175293 
L 495.357085 -198.175293 
L 495.808907 -198.175293 
L 496.260729 -198.175293 
L 496.712551 -198.175293 
L 497.164372 -198.175293 
L 497.616194 -198.175293 
L 498.068016 -198.175293 
L 498.519838 -198.175293 
L 498.97166 -198.175293 
L 499.423482 -198.175293 
L 499.875304 -198.175293 
L 500.327126 -198.175293 
L 500.778947 -198.175293 
L 501.230769 -198.175293 
L 501.682591 -198.175293 
L 502.134413 -198.175293 
L 502.586235 -198.175293 
L 503.038057 -198.175293 
L 503.489879 -198.175293 
L 503.9417 -198.175293 
L 504.393522 -198.175293 
L 504.845344 -198.175293 
L 505.297166 -198.175293 
L 505.748988 -198.175293 
L 506.20081 -198.175293 
L 506.652632 -198.175293 
L 507.104453 -198.175293 
L 507.556275 -198.175293 
L 508.008097 -198.175293 
L 508.459919 -198.175293 
L 508.911741 -198.175293 
L 509.363563 -198.175293 
L 509.815385 -198.175293 
L 510.267206 -198.175293 
L 510.719028 -198.175293 
L 511.17085 -198.175293 
L 511.622672 -198.175293 
L 512.074494 -198.175293 
L 512.526316 -198.175293 
L 512.978138 -198.175293 
L 513.42996 -198.175293 
L 513.881781 -198.175293 
L 514.333603 -198.175293 
L 514.785425 -198.175293 
L 515.237247 -198.175293 
L 515.689069 -198.175293 
L 516.140891 -198.175293 
L 516.592713 -198.175293 
L 517.044534 -198.175293 
L 517.496356 -198.175293 
L 517.948178 -198.175293 
L 518.4 -198.175293 
L 518.4 -194.299786 
L 518.4 -194.299786 
L 517.948178 -194.299786 
L 517.496356 -194.299786 
L 517.044534 -194.299786 
L 516.592713 -194.299786 
L 516.140891 -194.299786 
L 515.689069 -194.299786 
L 515.237247 -194.299786 
L 514.785425 -194.299786 
L 514.333603 -194.299786 
L 513.881781 -194.299786 
L 513.42996 -194.299786 
L 512.978138 -194.299786 
L 512.526316 -194.299786 
L 512.074494 -194.299786 
L 511.622672 -194.299786 
L 511.17085 -194.299786 
L 510.719028 -194.299786 
L 510.267206 -194.299786 
L 509.815385 -194.299786 
L 509.363563 -194.299786 
L 508.911741 -194.299786 
L 508.459919 -194.299786 
L 508.008097 -194.299786 
L 507.556275 -194.299786 
L 507.104453 -194.299786 
L 506.652632 -194.299786 
L 506.20081 -194.299786 
L 505.748988 -194.299786 
L 505.297166 -194.299786 
L 504.845344 -194.299786 
L 504.393522 -194.299786 
L 503.9417 -194.299786 
L 503.489879 -194.299786 
L 503.038057 -194.299786 
L 502.586235 -194.299786 
L 502.134413 -194.299786 
L 501.682591 -194.299786 
L 501.230769 -194.299786 
L 500.778947 -194.299786 
L 500.327126 -194.299786 
L 499.875304 -194.299786 
L 499.423482 -194.299786 
L 498.97166 -194.299786 
L 498.519838 -194.299786 
L 498.068016 -194.299786 
L 497.616194 -194.299786 
L 497.164372 -194.299786 
L 496.712551 -194.299786 
L 496.260729 -194.299786 
L 495.808907 -194.299786 
L 495.357085 -194.299786 
L 494.905263 -194.299786 
L 494.453441 -194.299786 
L 494.001619 -194.299786 
L 493.549798 -194.299786 
L 493.097976 -194.299786 
L 492.646154 -194.299786 
L 492.194332 -194.299786 
L 491.74251 -194.299786 
L 491.290688 -194.299786 
L 490.838866 -194.299786 
L 490.387045 -194.299786 
L 489.935223 -194.299786 
L 489.483401 -194.299786 
L 489.031579 -194.299786 
L 488.579757 -194.299786 
L 488.127935 -194.299786 
L 487.676113 -194.299786 
L 487.224291 -194.299786 
L 486.77247 -194.299786 
L 486.320648 -194.299786 
L 485.868826 -194.299786 
L 485.417004 -194.299786 
L 484.965182 -194.299786 
L 484.51336 -194.299786 
L 484.061538 -194.299786 
L 483.609717 -194.299786 
L 483.157895 -194.299786 
L 482.706073 -194.299786 
L 482.254251 -194.299786 
L 481.802429 -194.299786 
L 481.350607 -194.299786 
L 480.898785 -194.299786 
L 480.446964 -194.299786 
L 479.995142 -194.299786 
L 479.54332 -194.299786 
L 479.091498 -194.299786 
L 478.639676 -194.299786 
L 478.187854 -194.299786 
L 477.736032 -194.299786 
L 477.284211 -194.299786 
L 476.832389 -194.299786 
L 476.380567 -194.299786 
L 475.928745 -194.299786 
L 475.476923 -194.299786 
L 475.025101 -194.299786 
L 474.573279 -194.299786 
L 474.121457 -194.299786 
L 473.669636 -194.299786 
L 473.217814 -194.299786 
L 472.765992 -194.299786 
L 472.31417 -194.299786 
L 471.862348 -194.299786 
L 471.410526 -194.299786 
L 470.958704 -194.299786 
L 470.506883 -194.299786 
L 470.055061 -194.299786 
L 469.603239 -194.299786 
L 469.151417 -194.299786 
L 468.699595 -194.299786 
L 468.247773 -194.299786 
L 467.795951 -194.299786 
L 467.34413 -194.299786 
L 466.892308 -194.299786 
L 466.440486 -194.299786 
L 465.988664 -194.299786 
L 465.536842 -194.299786 
L 465.08502 -194.299786 
L 464.633198 -194.299786 
L 464.181377 -194.299786 
L 463.729555 -194.299786 
L 463.277733 -194.299786 
L 462.825911 -194.299786 
L 462.374089 -194.299786 
L 461.922267 -194.299786 
L 461.470445 -194.299786 
L 461.018623 -194.299786 
L 460.566802 -194.299786 
L 460.11498 -194.299786 
L 459.663158 -194.299786 
L 459.211336 -194.299786 
L 458.759514 -194.299786 
L 458.307692 -194.299786 
L 457.85587 -194.299786 
L 457.404049 -194.299786 
L 456.952227 -194.299786 
L 456.500405 -194.299786 
L 456.048583 -194.299786 
L 455.596761 -194.299786 
L 455.144939 -194.299786 
L 454.693117 -194.299786 
L 454.241296 -194.299786 
L 453.789474 -194.299786 
L 453.337652 -194.299786 
L 452.88583 -194.299786 
L 452.434008 -194.299786 
L 451.982186 -194.299786 
L 451.530364 -194.299786 
L 451.078543 -194.299786 
L 450.626721 -194.299786 
L 450.174899 -194.299786 
L 449.723077 -194.299786 
L 449.271255 -194.299786 
L 448.819433 -194.299786 
L 448.367611 -194.299786 
L 447.915789 -194.299786 
L 447.463968 -194.299786 
L 447.012146 -194.299786 
L 446.560324 -194.299786 
L 446.108502 -194.299786 
L 445.65668 -194.299786 
L 445.204858 -194.299786 
L 444.753036 -194.299786 
L 444.301215 -194.299786 
L 443.849393 -194.299786 
L 443.397571 -194.299786 
L 442.945749 -194.299786 
L 442.493927 -194.299786 
L 442.042105 -194.299786 
L 441.590283 -194.299786 
L 441.138462 -194.299786 
L 440.68664 -194.299786 
L 440.234818 -194.299786 
L 439.782996 -194.299786 
L 439.331174 -194.299786 
L 438.879352 -194.299786 
L 438.42753 -194.299786 
L 437.975709 -194.299786 
L 437.523887 -194.299786 
L 437.072065 -194.299786 
L 436.620243 -194.299786 
L 436.168421 -194.299786 
L 435.716599 -194.299786 
L 435.264777 -194.299786 
L 434.812955 -194.299786 
L 434.361134 -194.299786 
L 433.909312 -194.299786 
L 433.45749 -194.299786 
L 433.005668 -194.299786 
L 432.553846 -194.299786 
L 432.102024 -194.299786 
L 431.650202 -194.299786 
L 431.198381 -194.299786 
L 430.746559 -194.299786 
L 430.294737 -194.299786 
L 429.842915 -194.299786 
L 429.391093 -194.299786 
L 428.939271 -194.299786 
L 428.487449 -194.299786 
L 428.035628 -194.299786 
L 427.583806 -194.299786 
L 427.131984 -194.299786 
L 426.680162 -194.299786 
L 426.22834 -194.299786 
L 425.776518 -194.299786 
L 425.324696 -194.299786 
L 424.872874 -194.299786 
L 424.421053 -194.299786 
L 423.969231 -194.299786 
L 423.517409 -194.299786 
L 423.065587 -194.299786 
L 422.613765 -194.299786 
L 422.161943 -194.299786 
L 421.710121 -194.299786 
L 421.2583 -194.299786 
L 420.806478 -194.299786 
L 420.354656 -194.299786 
L 419.902834 -194.299786 
L 419.451012 -194.299786 
L 418.99919 -194.299786 
L 418.547368 -194.299786 
L 418.095547 -194.299786 
L 417.643725 -194.299786 
L 417.191903 -194.299786 
L 416.740081 -194.299786 
L 416.288259 -194.299786 
L 415.836437 -194.299786 
L 415.384615 -194.299786 
L 414.932794 -194.299786 
L 414.480972 -194.299786 
L 414.02915 -194.299786 
L 413.577328 -194.299786 
L 413.125506 -194.299786 
L 412.673684 -194.299786 
L 412.221862 -194.299786 
L 411.77004 -194.299786 
L 411.318219 -194.299786 
L 410.866397 -194.299786 
L 410.414575 -194.299786 
L 409.962753 -194.299786 
L 409.510931 -194.299786 
L 409.059109 -194.299786 
L 408.607287 -194.299786 
L 408.155466 -194.299786 
L 407.703644 -194.299786 
L 407.251822 -194.299786 
L 406.8 -194.299786 
L 406.348178 -194.299786 
L 405.896356 -194.299786 
L 405.444534 -194.299786 
L 404.992713 -194.299786 
L 404.540891 -194.299786 
L 404.089069 -194.299786 
L 403.637247 -194.299786 
L 403.185425 -194.299786 
L 402.733603 -194.299786 
L 402.281781 -194.299786 
L 401.82996 -194.299786 
L 401.378138 -194.299786 
L 400.926316 -194.299786 
L 400.474494 -194.299786 
L 400.022672 -194.299786 
L 399.57085 -194.299786 
L 399.119028 -194.299786 
L 398.667206 -194.299786 
L 398.215385 -194.299786 
L 397.763563 -194.299786 
L 397.311741 -194.299786 
L 396.859919 -194.299786 
L 396.408097 -194.299786 
L 395.956275 -194.299786 
L 395.504453 -194.299786 
L 395.052632 -194.299786 
L 394.60081 -194.299786 
L 394.148988 -194.299786 
L 393.697166 -194.299786 
L 393.245344 -194.299786 
L 392.793522 -194.299786 
L 392.3417 -194.299786 
L 391.889879 -194.299786 
L 391.438057 -194.299786 
L 390.986235 -194.299786 
L 390.534413 -194.299786 
L 390.082591 -194.299786 
L 389.630769 -194.299786 
L 389.178947 -194.299786 
L 388.727126 -194.299786 
L 388.275304 -194.299786 
L 387.823482 -194.299786 
L 387.37166 -194.299786 
L 386.919838 -194.299786 
L 386.468016 -194.299786 
L 386.016194 -194.299786 
L 385.564372 -194.299786 
L 385.112551 -194.299786 
L 384.660729 -194.299786 
L 384.208907 -194.299786 
L 383.757085 -194.299786 
L 383.305263 -194.299786 
L 382.853441 -194.299786 
L 382.401619 -194.299786 
L 381.949798 -194.299786 
L 381.497976 -194.299786 
L 381.046154 -194.299786 
L 380.594332 -194.299786 
L 380.14251 -194.299786 
L 379.690688 -194.299786 
L 379.238866 -194.299786 
L 378.787045 -194.299786 
L 378.335223 -194.299786 
L 377.883401 -194.299786 
L 377.431579 -194.299786 
L 376.979757 -194.299786 
L 376.527935 -194.299786 
L 376.076113 -194.299786 
L 375.624291 -194.299786 
L 375.17247 -194.299786 
L 374.720648 -194.299786 
L 374.268826 -194.299786 
L 373.817004 -194.299786 
L 373.365182 -194.299786 
L 372.91336 -194.299786 
L 372.461538 -194.299786 
L 372.009717 -194.299786 
L 371.557895 -194.299786 
L 371.106073 -194.299786 
L 370.654251 -194.299786 
L 370.202429 -194.299786 
L 369.750607 -194.299786 
L 369.298785 -194.299786 
L 368.846964 -194.299786 
L 368.395142 -194.299786 
L 367.94332 -194.299786 
L 367.491498 -194.299786 
L 367.039676 -194.299786 
L 366.587854 -194.299786 
L 366.136032 -194.299786 
L 365.684211 -194.299786 
L 365.232389 -194.299786 
L 364.780567 -194.299786 
L 364.328745 -194.299786 
L 363.876923 -194.299786 
L 363.425101 -194.299786 
L 362.973279 -194.299786 
L 362.521457 -194.299786 
L 362.069636 -194.299786 
L 361.617814 -194.299786 
L 361.165992 -194.299786 
L 360.71417 -194.299786 
L 360.262348 -194.299786 
L 359.810526 -194.299786 
L 359.358704 -194.299786 
L 358.906883 -194.299786 
L 358.455061 -194.299786 
L 358.003239 -194.299786 
L 357.551417 -194.299786 
L 357.099595 -194.299786 
L 356.647773 -194.299786 
L 356.195951 -194.299786 
L 355.74413 -194.299786 
L 355.292308 -194.299786 
L 354.840486 -194.299786 
L 354.388664 -194.299786 
L 353.936842 -194.299786 
L 353.48502 -194.299786 
L 353.033198 -194.299786 
L 352.581377 -194.299786 
L 352.129555 -194.299786 
L 351.677733 -194.299786 
L 351.225911 -194.299786 
L 350.774089 -194.299786 
L 350.322267 -194.299786 
L 349.870445 -194.299786 
L 349.418623 -194.299786 
L 348.966802 -194.299786 
L 348.51498 -194.299786 
L 348.063158 -194.299786 
L 347.611336 -194.299786 
L 347.159514 -194.299786 
L 346.707692 -194.299786 
L 346.25587 -194.299786 
L 345.804049 -194.299786 
L 345.352227 -194.299786 
L 344.900405 -194.299786 
L 344.448583 -194.299786 
L 343.996761 -194.299786 
L 343.544939 -194.299786 
L 343.093117 -194.299786 
L 342.641296 -194.299786 
L 342.189474 -194.299786 
L 341.737652 -194.299786 
L 341.28583 -194.299786 
L 340.834008 -194.299786 
L 340.382186 -194.299786 
L 339.930364 -194.299786 
L 339.478543 -194.299786 
L 339.026721 -194.299786 
L 338.574899 -194.299786 
L 338.123077 -194.299786 
L 337.671255 -194.299786 
L 337.219433 -194.299786 
L 336.767611 -194.299786 
L 336.315789 -194.299786 
L 335.863968 -194.299786 
L 335.412146 -194.299786 
L 334.960324 -194.299786 
L 334.508502 -194.299786 
L 334.05668 -194.299786 
L 333.604858 -194.299786 
L 333.153036 -194.299786 
L 332.701215 -194.299786 
L 332.249393 -194.299786 
L 331.797571 -194.299786 
L 331.345749 -194.299786 
L 330.893927 -194.299786 
L 330.442105 -194.299786 
L 329.990283 -194.299786 
L 329.538462 -194.299786 
L 329.08664 -194.299786 
L 328.634818 -194.299786 
L 328.182996 -194.299786 
L 327.731174 -194.299786 
L 327.279352 -194.299786 
L 326.82753 -194.299786 
L 326.375709 -194.299786 
L 325.923887 -194.299786 
L 325.472065 -194.299786 
L 325.020243 -194.299786 
L 324.568421 -194.299786 
L 324.116599 -194.299786 
L 323.664777 -194.299786 
L 323.212955 -194.299786 
L 322.761134 -194.299786 
L 322.309312 -194.299786 
L 321.85749 -194.299786 
L 321.405668 -194.299786 
L 320.953846 -194.299786 
L 320.502024 -194.299786 
L 320.050202 -194.299786 
L 319.598381 -194.299786 
L 319.146559 -194.299786 
L 318.694737 -194.299786 
L 318.242915 -194.299786 
L 317.791093 -194.299786 
L 317.339271 -194.299786 
L 316.887449 -194.299786 
L 316.435628 -194.299786 
L 315.983806 -194.299786 
L 315.531984 -194.299786 
L 315.080162 -194.299786 
L 314.62834 -194.299786 
L 314.176518 -194.299786 
L 313.724696 -194.299786 
L 313.272874 -194.299786 
L 312.821053 -194.299786 
L 312.369231 -194.299786 
L 311.917409 -194.299786 
L 311.465587 -194.299786 
L 311.013765 -194.299786 
L 310.561943 -194.299786 
L 310.110121 -194.299786 
L 309.6583 -194.299786 
L 309.206478 -194.299786 
L 308.754656 -194.299786 
L 308.302834 -194.299786 
L 307.851012 -194.299786 
L 307.39919 -194.299786 
L 306.947368 -194.299786 
L 306.495547 -194.299786 
L 306.043725 -194.299786 
L 305.591903 -194.299786 
L 305.140081 -194.299786 
L 304.688259 -194.299786 
L 304.236437 -194.299786 
L 303.784615 -194.299786 
L 303.332794 -194.299786 
L 302.880972 -194.299786 
L 302.42915 -194.299786 
L 301.977328 -194.299786 
L 301.525506 -194.299786 
L 301.073684 -194.299786 
L 300.621862 -194.299786 
L 300.17004 -194.299786 
L 299.718219 -194.299786 
L 299.266397 -194.299786 
L 298.814575 -194.299786 
L 298.362753 -194.299786 
L 297.910931 -194.299786 
L 297.459109 -194.299786 
L 297.007287 -194.299786 
L 296.555466 -194.299786 
L 296.103644 -194.299786 
L 295.651822 -194.299786 
L 295.2 -194.299786 
L 294.748178 -194.299786 
L 294.296356 -194.299786 
L 293.844534 -194.299786 
L 293.392713 -194.299786 
L 292.940891 -194.299786 
L 292.489069 -194.299786 
L 292.037247 -194.299786 
L 291.585425 -194.299786 
L 291.133603 -194.299786 
L 290.681781 -194.299786 
L 290.22996 -194.299786 
L 289.778138 -194.299786 
L 289.326316 -194.299786 
L 288.874494 -194.299786 
L 288.422672 -194.299786 
L 287.97085 -194.299786 
L 287.519028 -194.299786 
L 287.067206 -194.299786 
L 286.615385 -194.299786 
L 286.163563 -194.299786 
L 285.711741 -194.299786 
L 285.259919 -194.299786 
L 284.808097 -194.299786 
L 284.356275 -194.299786 
L 283.904453 -194.299786 
L 283.452632 -194.299786 
L 283.00081 -194.299786 
L 282.548988 -194.299786 
L 282.097166 -194.299786 
L 281.645344 -194.299786 
L 281.193522 -194.299786 
L 280.7417 -194.299786 
L 280.289879 -194.299786 
L 279.838057 -194.299786 
L 279.386235 -194.299786 
L 278.934413 -194.299786 
L 278.482591 -194.299786 
L 278.030769 -194.299786 
L 277.578947 -194.299786 
L 277.127126 -194.299786 
L 276.675304 -194.299786 
L 276.223482 -194.299786 
L 275.77166 -194.299786 
L 275.319838 -194.299786 
L 274.868016 -194.299786 
L 274.416194 -194.299786 
L 273.964372 -194.299786 
L 273.512551 -194.299786 
L 273.060729 -194.299786 
L 272.608907 -194.299786 
L 272.157085 -194.299786 
L 271.705263 -194.299786 
L 271.253441 -194.299786 
L 270.801619 -194.299786 
L 270.349798 -194.299786 
L 269.897976 -194.299786 
L 269.446154 -194.299786 
L 268.994332 -194.299786 
L 268.54251 -194.299786 
L 268.090688 -194.299786 
L 267.638866 -194.299786 
L 267.187045 -194.299786 
L 266.735223 -194.299786 
L 266.283401 -194.299786 
L 265.831579 -194.299786 
L 265.379757 -194.299786 
L 264.927935 -194.299786 
L 264.476113 -194.299786 
L 264.024291 -194.299786 
L 263.57247 -194.299786 
L 263.120648 -194.299786 
L 262.668826 -194.299786 
L 262.217004 -194.299786 
L 261.765182 -194.299786 
L 261.31336 -194.299786 
L 260.861538 -194.299786 
L 260.409717 -194.299786 
L 259.957895 -194.299786 
L 259.506073 -194.299786 
L 259.054251 -194.299786 
L 258.602429 -194.299786 
L 258.150607 -194.299786 
L 257.698785 -194.299786 
L 257.246964 -194.299786 
L 256.795142 -194.299786 
L 256.34332 -194.299786 
L 255.891498 -194.299786 
L 255.439676 -194.299786 
L 254.987854 -194.299786 
L 254.536032 -194.299786 
L 254.084211 -194.299786 
L 253.632389 -194.299786 
L 253.180567 -194.299786 
L 252.728745 -194.299786 
L 252.276923 -194.299786 
L 251.825101 -194.299786 
L 251.373279 -194.299786 
L 250.921457 -194.299786 
L 250.469636 -194.299786 
L 250.017814 -194.299786 
L 249.565992 -194.299786 
L 249.11417 -194.299786 
L 248.662348 -194.299786 
L 248.210526 -194.299786 
L 247.758704 -194.299786 
L 247.306883 -194.299786 
L 246.855061 -194.299786 
L 246.403239 -194.299786 
L 245.951417 -194.299786 
L 245.499595 -194.299786 
L 245.047773 -194.299786 
L 244.595951 -194.299786 
L 244.14413 -194.299786 
L 243.692308 -194.299786 
L 243.240486 -194.299786 
L 242.788664 -194.299786 
L 242.336842 -194.299786 
L 241.88502 -194.299786 
L 241.433198 -194.299786 
L 240.981377 -194.299786 
L 240.529555 -194.299786 
L 240.077733 -194.299786 
L 239.625911 -194.299786 
L 239.174089 -194.299786 
L 238.722267 -194.299786 
L 238.270445 -194.299786 
L 237.818623 -194.299786 
L 237.366802 -194.299786 
L 236.91498 -194.299786 
L 236.463158 -194.299786 
L 236.011336 -194.299786 
L 235.559514 -194.299786 
L 235.107692 -194.299786 
L 234.65587 -194.299786 
L 234.204049 -194.299786 
L 233.752227 -194.299786 
L 233.300405 -194.299786 
L 232.848583 -194.299786 
L 232.396761 -194.299786 
L 231.944939 -194.299786 
L 231.493117 -194.299786 
L 231.041296 -194.299786 
L 230.589474 -194.299786 
L 230.137652 -194.299786 
L 229.68583 -194.299786 
L 229.234008 -194.299786 
L 228.782186 -194.299786 
L 228.330364 -194.299786 
L 227.878543 -194.299786 
L 227.426721 -194.299786 
L 226.974899 -194.299786 
L 226.523077 -194.299786 
L 226.071255 -194.299786 
L 225.619433 -194.299786 
L 225.167611 -194.299786 
L 224.715789 -194.299786 
L 224.263968 -194.299786 
L 223.812146 -194.299786 
L 223.360324 -194.299786 
L 222.908502 -194.299786 
L 222.45668 -194.299786 
L 222.004858 -194.299786 
L 221.553036 -194.299786 
L 221.101215 -194.299786 
L 220.649393 -194.299786 
L 220.197571 -194.299786 
L 219.745749 -194.299786 
L 219.293927 -194.299786 
L 218.842105 -194.299786 
L 218.390283 -194.299786 
L 217.938462 -194.299786 
L 217.48664 -194.299786 
L 217.034818 -194.299786 
L 216.582996 -194.299786 
L 216.131174 -194.299786 
L 215.679352 -194.299786 
L 215.22753 -194.299786 
L 214.775709 -194.299786 
L 214.323887 -194.299786 
L 213.872065 -194.299786 
L 213.420243 -194.299786 
L 212.968421 -194.299786 
L 212.516599 -194.299786 
L 212.064777 -194.299786 
L 211.612955 -194.299786 
L 211.161134 -194.299786 
L 210.709312 -194.299786 
L 210.25749 -194.299786 
L 209.805668 -194.299786 
L 209.353846 -194.299786 
L 208.902024 -194.299786 
L 208.450202 -194.299786 
L 207.998381 -194.299786 
L 207.546559 -194.299786 
L 207.094737 -194.299786 
L 206.642915 -194.299786 
L 206.191093 -194.299786 
L 205.739271 -194.299786 
L 205.287449 -194.299786 
L 204.835628 -194.299786 
L 204.383806 -194.299786 
L 203.931984 -194.299786 
L 203.480162 -194.299786 
L 203.02834 -194.299786 
L 202.576518 -194.299786 
L 202.124696 -194.299786 
L 201.672874 -194.299786 
L 201.221053 -194.299786 
L 200.769231 -194.299786 
L 200.317409 -194.299786 
L 199.865587 -194.299786 
L 199.413765 -194.299786 
L 198.961943 -194.299786 
L 198.510121 -194.299786 
L 198.0583 -194.299786 
L 197.606478 -194.299786 
L 197.154656 -194.299786 
L 196.702834 -194.299786 
L 196.251012 -194.299786 
L 195.79919 -194.299786 
L 195.347368 -194.299786 
L 194.895547 -194.299786 
L 194.443725 -194.299786 
L 193.991903 -194.299786 
L 193.540081 -194.299786 
L 193.088259 -194.299786 
L 192.636437 -194.299786 
L 192.184615 -194.299786 
L 191.732794 -194.299786 
L 191.280972 -194.299786 
L 190.82915 -194.299786 
L 190.377328 -194.299786 
L 189.925506 -194.299786 
L 189.473684 -194.299786 
L 189.021862 -194.299786 
L 188.57004 -194.299786 
L 188.118219 -194.299786 
L 187.666397 -194.299786 
L 187.214575 -194.299786 
L 186.762753 -194.299786 
L 186.310931 -194.299786 
L 185.859109 -194.299786 
L 185.407287 -194.299786 
L 184.955466 -194.299786 
L 184.503644 -194.299786 
L 184.051822 -194.299786 
L 183.6 -194.299786 
L 183.148178 -194.299786 
L 182.696356 -194.299786 
L 182.244534 -194.299786 
L 181.792713 -194.299786 
L 181.340891 -194.299786 
L 180.889069 -194.299786 
L 180.437247 -194.299786 
L 179.985425 -194.299786 
L 179.533603 -194.299786 
L 179.081781 -194.299786 
L 178.62996 -194.299786 
L 178.178138 -194.299786 
L 177.726316 -194.299786 
L 177.274494 -194.299786 
L 176.822672 -194.299786 
L 176.37085 -194.299786 
L 175.919028 -194.299786 
L 175.467206 -194.299786 
L 175.015385 -194.299786 
L 174.563563 -194.299786 
L 174.111741 -194.299786 
L 173.659919 -194.299786 
L 173.208097 -194.299786 
L 172.756275 -194.299786 
L 172.304453 -194.299786 
L 171.852632 -194.299786 
L 171.40081 -194.299786 
L 170.948988 -194.299786 
L 170.497166 -194.299786 
L 170.045344 -194.299786 
L 169.593522 -194.299786 
L 169.1417 -194.299786 
L 168.689879 -194.299786 
L 168.238057 -194.299786 
L 167.786235 -194.299786 
L 167.334413 -194.299786 
L 166.882591 -194.299786 
L 166.430769 -194.299786 
L 165.978947 -194.299786 
L 165.527126 -194.299786 
L 165.075304 -194.299786 
L 164.623482 -194.299786 
L 164.17166 -194.299786 
L 163.719838 -194.299786 
L 163.268016 -194.299786 
L 162.816194 -194.299786 
L 162.364372 -194.299786 
L 161.912551 -194.299786 
L 161.460729 -194.299786 
L 161.008907 -194.299786 
L 160.557085 -194.299786 
L 160.105263 -194.299786 
L 159.653441 -194.299786 
L 159.201619 -194.299786 
L 158.749798 -194.299786 
L 158.297976 -194.299786 
L 157.846154 -194.299786 
L 157.394332 -194.299786 
L 156.94251 -194.299786 
L 156.490688 -194.299786 
L 156.038866 -194.299786 
L 155.587045 -194.299786 
L 155.135223 -194.299786 
L 154.683401 -194.299786 
L 154.231579 -194.299786 
L 153.779757 -194.299786 
L 153.327935 -194.299786 
L 152.876113 -194.299786 
L 152.424291 -194.299786 
L 151.97247 -194.299786 
L 151.520648 -194.299786 
L 151.068826 -194.299786 
L 150.617004 -194.299786 
L 150.165182 -194.299786 
L 149.71336 -194.299786 
L 149.261538 -194.299786 
L 148.809717 -194.299786 
L 148.357895 -194.299786 
L 147.906073 -194.299786 
L 147.454251 -194.299786 
L 147.002429 -194.299786 
L 146.550607 -194.299786 
L 146.098785 -194.299786 
L 145.646964 -194.299786 
L 145.195142 -194.299786 
L 144.74332 -194.299786 
L 144.291498 -194.299786 
L 143.839676 -194.299786 
L 143.387854 -194.299786 
L 142.936032 -194.299786 
L 142.484211 -194.299786 
L 142.032389 -194.299786 
L 141.580567 -194.299786 
L 141.128745 -194.299786 
L 140.676923 -194.299786 
L 140.225101 -194.299786 
L 139.773279 -194.299786 
L 139.321457 -194.299786 
L 138.869636 -194.299786 
L 138.417814 -194.299786 
L 137.965992 -194.299786 
L 137.51417 -194.299786 
L 137.062348 -194.299786 
L 136.610526 -194.299786 
L 136.158704 -194.299786 
L 135.706883 -194.299786 
L 135.255061 -194.299786 
L 134.803239 -194.299786 
L 134.351417 -194.299786 
L 133.899595 -194.299786 
L 133.447773 -194.299786 
L 132.995951 -194.299786 
L 132.54413 -194.299786 
L 132.092308 -194.299786 
L 131.640486 -194.299786 
L 131.188664 -194.299786 
L 130.736842 -194.299786 
L 130.28502 -194.299786 
L 129.833198 -194.299786 
L 129.381377 -194.299786 
L 128.929555 -194.299786 
L 128.477733 -194.299786 
L 128.025911 -194.299786 
L 127.574089 -194.299786 
L 127.122267 -194.299786 
L 126.670445 -194.299786 
L 126.218623 -194.299786 
L 125.766802 -194.299786 
L 125.31498 -194.299786 
L 124.863158 -194.299786 
L 124.411336 -194.299786 
L 123.959514 -194.299786 
L 123.507692 -194.299786 
L 123.05587 -194.299786 
L 122.604049 -194.299786 
L 122.152227 -194.299786 
L 121.700405 -194.299786 
L 121.248583 -194.299786 
L 120.796761 -194.299786 
L 120.344939 -194.299786 
L 119.893117 -194.299786 
L 119.441296 -194.299786 
L 118.989474 -194.299786 
L 118.537652 -194.299786 
L 118.08583 -194.299786 
L 117.634008 -194.299786 
L 117.182186 -194.299786 
L 116.730364 -194.299786 
L 116.278543 -194.299786 
L 115.826721 -194.299786 
L 115.374899 -194.299786 
L 114.923077 -194.299786 
L 114.471255 -194.299786 
L 114.019433 -194.299786 
L 113.567611 -194.299786 
L 113.115789 -194.299786 
L 112.663968 -194.299786 
L 112.212146 -194.299786 
L 111.760324 -194.299786 
L 111.308502 -194.299786 
L 110.85668 -194.299786 
L 110.404858 -194.299786 
L 109.953036 -194.299786 
L 109.501215 -194.299786 
L 109.049393 -194.299786 
L 108.597571 -194.299786 
L 108.145749 -194.299786 
L 107.693927 -194.299786 
L 107.242105 -194.299786 
L 106.790283 -194.299786 
L 106.338462 -194.299786 
L 105.88664 -194.299786 
L 105.434818 -194.299786 
L 104.982996 -194.299786 
L 104.531174 -194.299786 
L 104.079352 -194.299786 
L 103.62753 -194.299786 
L 103.175709 -194.299786 
L 102.723887 -194.299786 
L 102.272065 -194.299786 
L 101.820243 -194.299786 
L 101.368421 -194.299786 
L 100.916599 -194.299786 
L 100.464777 -194.299786 
L 100.012955 -194.299786 
L 99.561134 -194.299786 
L 99.109312 -194.299786 
L 98.65749 -194.299786 
L 98.205668 -194.299786 
L 97.753846 -194.299786 
L 97.302024 -194.299786 
L 96.850202 -194.299786 
L 96.398381 -194.299786 
L 95.946559 -194.299786 
L 95.494737 -194.299786 
L 95.042915 -194.299786 
L 94.591093 -194.299786 
L 94.139271 -194.299786 
L 93.687449 -194.299786 
L 93.235628 -194.299786 
L 92.783806 -194.299786 
L 92.331984 -194.299786 
L 91.880162 -194.299786 
L 91.42834 -194.299786 
L 90.976518 -194.299786 
L 90.524696 -194.299786 
L 90.072874 -194.299786 
L 89.621053 -194.299786 
L 89.169231 -194.299786 
L 88.717409 -194.299786 
L 88.265587 -194.299786 
L 87.813765 -194.299786 
L 87.361943 -194.299786 
L 86.910121 -194.299786 
L 86.4583 -194.299786 
L 86.006478 -194.299786 
L 85.554656 -194.299786 
L 85.102834 -194.299786 
L 84.651012 -194.299786 
L 84.19919 -194.299786 
L 83.747368 -194.299786 
L 83.295547 -194.299786 
L 82.843725 -194.299786 
L 82.391903 -194.299786 
L 81.940081 -194.299786 
L 81.488259 -194.299786 
L 81.036437 -194.299786 
L 80.584615 -194.299786 
L 80.132794 -194.299786 
L 79.680972 -194.299786 
L 79.22915 -194.299786 
L 78.777328 -194.299786 
L 78.325506 -194.299786 
L 77.873684 -194.299786 
L 77.421862 -194.299786 
L 76.97004 -194.299786 
L 76.518219 -194.299786 
L 76.066397 -194.299786 
L 75.614575 -194.299786 
L 75.162753 -194.299786 
L 74.710931 -194.299786 
L 74.259109 -194.299786 
L 73.807287 -194.299786 
L 73.355466 -194.299786 
L 72.903644 -194.299786 
L 72.451822 -194.299786 
L 72 -194.299786 
z
" id="m36f21930ed"/>
    </defs>
    <g clip-path="url(#p4e323c17f2)">
     <use style="fill-opacity:0.15;" x="0" xlink:href="#m36f21930ed" y="360"/>
    </g>
   </g>
   <g id="matplotlib.axis_1">
    <g id="xtick_1">
     <g id="line2d_1">
      <defs>
       <path d="M 0 0 
L 0 3.5 
" id="m234cd623f7" style="stroke:#000000;stroke-width:0.8;"/>
      </defs>
      <g>
       <use style="stroke:#000000;stroke-width:0.8;" x="72" xlink:href="#m234cd623f7" y="320.4"/>
      </g>
     </g>
     <g id="text_1">
      <!-- 0.0 -->
      <g transform="translate(60.867812 338.037813)scale(0.14 -0.14)">
       <defs>
        <path d="M 2034 4250 
Q 1547 4250 1301 3770 
Q 1056 3291 1056 2328 
Q 1056 1369 1301 889 
Q 1547 409 2034 409 
Q 2525 409 2770 889 
Q 3016 1369 3016 2328 
Q 3016 3291 2770 3770 
Q 2525 4250 2034 4250 
z
M 2034 4750 
Q 2819 4750 3233 4129 
Q 3647 3509 3647 2328 
Q 3647 1150 3233 529 
Q 2819 -91 2034 -91 
Q 1250 -91 836 529 
Q 422 1150 422 2328 
Q 422 3509 836 4129 
Q 1250 4750 2034 4750 
z
" id="DejaVuSans-30" transform="scale(0.015625)"/>
        <path d="M 684 794 
L 1344 794 
L 1344 0 
L 684 0 
L 684 794 
z
" id="DejaVuSans-2e" transform="scale(0.015625)"/>
       </defs>
       <use xlink:href="#DejaVuSans-30"/>
       <use x="63.623047" xlink:href="#DejaVuSans-2e"/>
       <use x="95.410156" xlink:href="#DejaVuSans-30"/>
      </g>
     </g>
    </g>
    <g id="xtick_2">
     <g id="line2d_2">
      <g>
       <use style="stroke:#000000;stroke-width:0.8;" x="127.8335" xlink:href="#m234cd623f7" y="320.4"/>
      </g>
     </g>
     <g id="text_2">
      <!-- 2.5 -->
      <g transform="translate(116.701313 338.037813)scale(0.14 -0.14)">
       <defs>
        <path d="M 1228 531 
L 3431 531 
L 3431 0 
L 469 0 
L 469 531 
Q 828 903 1448 1529 
Q 2069 2156 2228 2338 
Q 2531 2678 2651 2914 
Q 2772 3150 2772 3378 
Q 2772 3750 2511 3984 
Q 2250 4219 1831 4219 
Q 1534 4219 1204 4116 
Q 875 4013 500 3803 
L 500 4441 
Q 881 4594 1212 4672 
Q 1544 4750 1819 4750 
Q 2544 4750 2975 4387 
Q 3406 4025 3406 3419 
Q 3406 3131 3298 2873 
Q 3191 2616 2906 2266 
Q 2828 2175 2409 1742 
Q 1991 1309 1228 531 
z
" id="DejaVuSans-32" transform="scale(0.015625)"/>
        <path d="M 691 4666 
L 3169 4666 
L 3169 4134 
L 1269 4134 
L 1269 2991 
Q 1406 3038 1543 3061 
Q 1681 3084 1819 3084 
Q 2600 3084 3056 2656 
Q 3513 2228 3513 1497 
Q 3513 744 3044 326 
Q 2575 -91 1722 -91 
Q 1428 -91 1123 -41 
Q 819 9 494 109 
L 494 744 
Q 775 591 1075 516 
Q 1375 441 1709 441 
Q 2250 441 2565 725 
Q 2881 1009 2881 1497 
Q 2881 1984 2565 2268 
Q 2250 2553 1709 2553 
Q 1456 2553 1204 2497 
Q 953 2441 691 2322 
L 691 4666 
z
" id="DejaVuSans-35" transform="scale(0.015625)"/>
       </defs>
       <use xlink:href="#DejaVuSans-32"/>
       <use x="63.623047" xlink:href="#DejaVuSans-2e"/>
       <use x="95.410156" xlink:href="#DejaVuSans-35"/>
      </g>
     </g>
    </g>
    <g id="xtick_3">
     <g id="line2d_3">
      <g>
       <use style="stroke:#000000;stroke-width:0.8;" x="183.667" xlink:href="#m234cd623f7" y="320.4"/>
      </g>
     </g>
     <g id="text_3">
      <!-- 5.0 -->
      <g transform="translate(172.534813 338.037813)scale(0.14 -0.14)">
       <use xlink:href="#DejaVuSans-35"/>
       <use x="63.623047" xlink:href="#DejaVuSans-2e"/>
       <use x="95.410156" xlink:href="#DejaVuSans-30"/>
      </g>
     </g>
    </g>
    <g id="xtick_4">
     <g id="line2d_4">
      <g>
       <use style="stroke:#000000;stroke-width:0.8;" x="239.5005" xlink:href="#m234cd623f7" y="320.4"/>
      </g>
     </g>
     <g id="text_4">
      <!-- 7.5 -->
      <g transform="translate(228.368313 338.037813)scale(0.14 -0.14)">
       <defs>
        <path d="M 525 4666 
L 3525 4666 
L 3525 4397 
L 1831 0 
L 1172 0 
L 2766 4134 
L 525 4134 
L 525 4666 
z
" id="DejaVuSans-37" transform="scale(0.015625)"/>
       </defs>
       <use xlink:href="#DejaVuSans-37"/>
       <use x="63.623047" xlink:href="#DejaVuSans-2e"/>
       <use x="95.410156" xlink:href="#DejaVuSans-35"/>
      </g>
     </g>
    </g>
    <g id="xtick_5">
     <g id="line2d_5">
      <g>
       <use style="stroke:#000000;stroke-width:0.8;" x="295.334" xlink:href="#m234cd623f7" y="320.4"/>
      </g>
     </g>
     <g id="text_5">
      <!-- 10.0 -->
      <g transform="translate(279.748063 338.037813)scale(0.14 -0.14)">
       <defs>
        <path d="M 794 531 
L 1825 531 
L 1825 4091 
L 703 3866 
L 703 4441 
L 1819 4666 
L 2450 4666 
L 2450 531 
L 3481 531 
L 3481 0 
L 794 0 
L 794 531 
z
" id="DejaVuSans-31" transform="scale(0.015625)"/>
       </defs>
       <use xlink:href="#DejaVuSans-31"/>
       <use x="63.623047" xlink:href="#DejaVuSans-30"/>
       <use x="127.246094" xlink:href="#DejaVuSans-2e"/>
       <use x="159.033203" xlink:href="#DejaVuSans-30"/>
      </g>
     </g>
    </g>
    <g id="xtick_6">
     <g id="line2d_6">
      <g>
       <use style="stroke:#000000;stroke-width:0.8;" x="351.167501" xlink:href="#m234cd623f7" y="320.4"/>
      </g>
     </g>
     <g id="text_6">
      <!-- 12.5 -->
      <g transform="translate(335.581563 338.037813)scale(0.14 -0.14)">
       <use xlink:href="#DejaVuSans-31"/>
       <use x="63.623047" xlink:href="#DejaVuSans-32"/>
       <use x="127.246094" xlink:href="#DejaVuSans-2e"/>
       <use x="159.033203" xlink:href="#DejaVuSans-35"/>
      </g>
     </g>
    </g>
    <g id="xtick_7">
     <g id="line2d_7">
      <g>
       <use style="stroke:#000000;stroke-width:0.8;" x="407.001001" xlink:href="#m234cd623f7" y="320.4"/>
      </g>
     </g>
     <g id="text_7">
      <!-- 15.0 -->
      <g transform="translate(391.415063 338.037813)scale(0.14 -0.14)">
       <use xlink:href="#DejaVuSans-31"/>
       <use x="63.623047" xlink:href="#DejaVuSans-35"/>
       <use x="127.246094" xlink:href="#DejaVuSans-2e"/>
       <use x="159.033203" xlink:href="#DejaVuSans-30"/>
      </g>
     </g>
    </g>
    <g id="xtick_8">
     <g id="line2d_8">
      <g>
       <use style="stroke:#000000;stroke-width:0.8;" x="462.834501" xlink:href="#m234cd623f7" y="320.4"/>
      </g>
     </g>
     <g id="text_8">
      <!-- 17.5 -->
      <g transform="translate(447.248563 338.037813)scale(0.14 -0.14)">
       <use xlink:href="#DejaVuSans-31"/>
       <use x="63.623047" xlink:href="#DejaVuSans-37"/>
       <use x="127.246094" xlink:href="#DejaVuSans-2e"/>
       <use x="159.033203" xlink:href="#DejaVuSans-35"/>
      </g>
     </g>
    </g>
    <g id="text_9">
     <!-- Time [Seconds] -->
     <g transform="translate(233.23 357.106875)scale(0.16 -0.16)">
      <defs>
       <path d="M -19 4666 
L 3928 4666 
L 3928 4134 
L 2272 4134 
L 2272 0 
L 1638 0 
L 1638 4134 
L -19 4134 
L -19 4666 
z
" id="DejaVuSans-54" transform="scale(0.015625)"/>
       <path d="M 603 3500 
L 1178 3500 
L 1178 0 
L 603 0 
L 603 3500 
z
M 603 4863 
L 1178 4863 
L 1178 4134 
L 603 4134 
L 603 4863 
z
" id="DejaVuSans-69" transform="scale(0.015625)"/>
       <path d="M 3328 2828 
Q 3544 3216 3844 3400 
Q 4144 3584 4550 3584 
Q 5097 3584 5394 3201 
Q 5691 2819 5691 2113 
L 5691 0 
L 5113 0 
L 5113 2094 
Q 5113 2597 4934 2840 
Q 4756 3084 4391 3084 
Q 3944 3084 3684 2787 
Q 3425 2491 3425 1978 
L 3425 0 
L 2847 0 
L 2847 2094 
Q 2847 2600 2669 2842 
Q 2491 3084 2119 3084 
Q 1678 3084 1418 2786 
Q 1159 2488 1159 1978 
L 1159 0 
L 581 0 
L 581 3500 
L 1159 3500 
L 1159 2956 
Q 1356 3278 1631 3431 
Q 1906 3584 2284 3584 
Q 2666 3584 2933 3390 
Q 3200 3197 3328 2828 
z
" id="DejaVuSans-6d" transform="scale(0.015625)"/>
       <path d="M 3597 1894 
L 3597 1613 
L 953 1613 
Q 991 1019 1311 708 
Q 1631 397 2203 397 
Q 2534 397 2845 478 
Q 3156 559 3463 722 
L 3463 178 
Q 3153 47 2828 -22 
Q 2503 -91 2169 -91 
Q 1331 -91 842 396 
Q 353 884 353 1716 
Q 353 2575 817 3079 
Q 1281 3584 2069 3584 
Q 2775 3584 3186 3129 
Q 3597 2675 3597 1894 
z
M 3022 2063 
Q 3016 2534 2758 2815 
Q 2500 3097 2075 3097 
Q 1594 3097 1305 2825 
Q 1016 2553 972 2059 
L 3022 2063 
z
" id="DejaVuSans-65" transform="scale(0.015625)"/>
       <path id="DejaVuSans-20" transform="scale(0.015625)"/>
       <path d="M 550 4863 
L 1875 4863 
L 1875 4416 
L 1125 4416 
L 1125 -397 
L 1875 -397 
L 1875 -844 
L 550 -844 
L 550 4863 
z
" id="DejaVuSans-5b" transform="scale(0.015625)"/>
       <path d="M 3425 4513 
L 3425 3897 
Q 3066 4069 2747 4153 
Q 2428 4238 2131 4238 
Q 1616 4238 1336 4038 
Q 1056 3838 1056 3469 
Q 1056 3159 1242 3001 
Q 1428 2844 1947 2747 
L 2328 2669 
Q 3034 2534 3370 2195 
Q 3706 1856 3706 1288 
Q 3706 609 3251 259 
Q 2797 -91 1919 -91 
Q 1588 -91 1214 -16 
Q 841 59 441 206 
L 441 856 
Q 825 641 1194 531 
Q 1563 422 1919 422 
Q 2459 422 2753 634 
Q 3047 847 3047 1241 
Q 3047 1584 2836 1778 
Q 2625 1972 2144 2069 
L 1759 2144 
Q 1053 2284 737 2584 
Q 422 2884 422 3419 
Q 422 4038 858 4394 
Q 1294 4750 2059 4750 
Q 2388 4750 2728 4690 
Q 3069 4631 3425 4513 
z
" id="DejaVuSans-53" transform="scale(0.015625)"/>
       <path d="M 3122 3366 
L 3122 2828 
Q 2878 2963 2633 3030 
Q 2388 3097 2138 3097 
Q 1578 3097 1268 2742 
Q 959 2388 959 1747 
Q 959 1106 1268 751 
Q 1578 397 2138 397 
Q 2388 397 2633 464 
Q 2878 531 3122 666 
L 3122 134 
Q 2881 22 2623 -34 
Q 2366 -91 2075 -91 
Q 1284 -91 818 406 
Q 353 903 353 1747 
Q 353 2603 823 3093 
Q 1294 3584 2113 3584 
Q 2378 3584 2631 3529 
Q 2884 3475 3122 3366 
z
" id="DejaVuSans-63" transform="scale(0.015625)"/>
       <path d="M 1959 3097 
Q 1497 3097 1228 2736 
Q 959 2375 959 1747 
Q 959 1119 1226 758 
Q 1494 397 1959 397 
Q 2419 397 2687 759 
Q 2956 1122 2956 1747 
Q 2956 2369 2687 2733 
Q 2419 3097 1959 3097 
z
M 1959 3584 
Q 2709 3584 3137 3096 
Q 3566 2609 3566 1747 
Q 3566 888 3137 398 
Q 2709 -91 1959 -91 
Q 1206 -91 779 398 
Q 353 888 353 1747 
Q 353 2609 779 3096 
Q 1206 3584 1959 3584 
z
" id="DejaVuSans-6f" transform="scale(0.015625)"/>
       <path d="M 3513 2113 
L 3513 0 
L 2938 0 
L 2938 2094 
Q 2938 2591 2744 2837 
Q 2550 3084 2163 3084 
Q 1697 3084 1428 2787 
Q 1159 2491 1159 1978 
L 1159 0 
L 581 0 
L 581 3500 
L 1159 3500 
L 1159 2956 
Q 1366 3272 1645 3428 
Q 1925 3584 2291 3584 
Q 2894 3584 3203 3211 
Q 3513 2838 3513 2113 
z
" id="DejaVuSans-6e" transform="scale(0.015625)"/>
       <path d="M 2906 2969 
L 2906 4863 
L 3481 4863 
L 3481 0 
L 2906 0 
L 2906 525 
Q 2725 213 2448 61 
Q 2172 -91 1784 -91 
Q 1150 -91 751 415 
Q 353 922 353 1747 
Q 353 2572 751 3078 
Q 1150 3584 1784 3584 
Q 2172 3584 2448 3432 
Q 2725 3281 2906 2969 
z
M 947 1747 
Q 947 1113 1208 752 
Q 1469 391 1925 391 
Q 2381 391 2643 752 
Q 2906 1113 2906 1747 
Q 2906 2381 2643 2742 
Q 2381 3103 1925 3103 
Q 1469 3103 1208 2742 
Q 947 2381 947 1747 
z
" id="DejaVuSans-64" transform="scale(0.015625)"/>
       <path d="M 2834 3397 
L 2834 2853 
Q 2591 2978 2328 3040 
Q 2066 3103 1784 3103 
Q 1356 3103 1142 2972 
Q 928 2841 928 2578 
Q 928 2378 1081 2264 
Q 1234 2150 1697 2047 
L 1894 2003 
Q 2506 1872 2764 1633 
Q 3022 1394 3022 966 
Q 3022 478 2636 193 
Q 2250 -91 1575 -91 
Q 1294 -91 989 -36 
Q 684 19 347 128 
L 347 722 
Q 666 556 975 473 
Q 1284 391 1588 391 
Q 1994 391 2212 530 
Q 2431 669 2431 922 
Q 2431 1156 2273 1281 
Q 2116 1406 1581 1522 
L 1381 1569 
Q 847 1681 609 1914 
Q 372 2147 372 2553 
Q 372 3047 722 3315 
Q 1072 3584 1716 3584 
Q 2034 3584 2315 3537 
Q 2597 3491 2834 3397 
z
" id="DejaVuSans-73" transform="scale(0.015625)"/>
       <path d="M 1947 4863 
L 1947 -844 
L 622 -844 
L 622 -397 
L 1369 -397 
L 1369 4416 
L 622 4416 
L 622 4863 
L 1947 4863 
z
" id="DejaVuSans-5d" transform="scale(0.015625)"/>
      </defs>
      <use xlink:href="#DejaVuSans-54"/>
      <use x="57.958984" xlink:href="#DejaVuSans-69"/>
      <use x="85.742188" xlink:href="#DejaVuSans-6d"/>
      <use x="183.154297" xlink:href="#DejaVuSans-65"/>
      <use x="244.677734" xlink:href="#DejaVuSans-20"/>
      <use x="276.464844" xlink:href="#DejaVuSans-5b"/>
      <use x="315.478516" xlink:href="#DejaVuSans-53"/>
      <use x="378.955078" xlink:href="#DejaVuSans-65"/>
      <use x="440.478516" xlink:href="#DejaVuSans-63"/>
      <use x="495.458984" xlink:href="#DejaVuSans-6f"/>
      <use x="556.640625" xlink:href="#DejaVuSans-6e"/>
      <use x="620.019531" xlink:href="#DejaVuSans-64"/>
      <use x="683.496094" xlink:href="#DejaVuSans-73"/>
      <use x="735.595703" xlink:href="#DejaVuSans-5d"/>
     </g>
    </g>
   </g>
   <g id="matplotlib.axis_2">
    <g id="ytick_1">
     <g id="line2d_9">
      <defs>
       <path d="M 0 0 
L -3.5 0 
" id="m6500eac9c2" style="stroke:#000000;stroke-width:0.8;"/>
      </defs>
      <g>
       <use style="stroke:#000000;stroke-width:0.8;" x="72" xlink:href="#m6500eac9c2" y="273.053876"/>
      </g>
     </g>
     <g id="text_10">
      <!-- 0.0 -->
      <g transform="translate(42.735625 278.372782)scale(0.14 -0.14)">
       <use xlink:href="#DejaVuSans-30"/>
       <use x="63.623047" xlink:href="#DejaVuSans-2e"/>
       <use x="95.410156" xlink:href="#DejaVuSans-30"/>
      </g>
     </g>
    </g>
    <g id="ytick_2">
     <g id="line2d_10">
      <g>
       <use style="stroke:#000000;stroke-width:0.8;" x="72" xlink:href="#m6500eac9c2" y="224.929748"/>
      </g>
     </g>
     <g id="text_11">
      <!-- 0.5 -->
      <g transform="translate(42.735625 230.248654)scale(0.14 -0.14)">
       <use xlink:href="#DejaVuSans-30"/>
       <use x="63.623047" xlink:href="#DejaVuSans-2e"/>
       <use x="95.410156" xlink:href="#DejaVuSans-35"/>
      </g>
     </g>
    </g>
    <g id="ytick_3">
     <g id="line2d_11">
      <g>
       <use style="stroke:#000000;stroke-width:0.8;" x="72" xlink:href="#m6500eac9c2" y="176.80562"/>
      </g>
     </g>
     <g id="text_12">
      <!-- 1.0 -->
      <g transform="translate(42.735625 182.124527)scale(0.14 -0.14)">
       <use xlink:href="#DejaVuSans-31"/>
       <use x="63.623047" xlink:href="#DejaVuSans-2e"/>
       <use x="95.410156" xlink:href="#DejaVuSans-30"/>
      </g>
     </g>
    </g>
    <g id="ytick_4">
     <g id="line2d_12">
      <g>
       <use style="stroke:#000000;stroke-width:0.8;" x="72" xlink:href="#m6500eac9c2" y="128.681492"/>
      </g>
     </g>
     <g id="text_13">
      <!-- 1.5 -->
      <g transform="translate(42.735625 134.000399)scale(0.14 -0.14)">
       <use xlink:href="#DejaVuSans-31"/>
       <use x="63.623047" xlink:href="#DejaVuSans-2e"/>
       <use x="95.410156" xlink:href="#DejaVuSans-35"/>
      </g>
     </g>
    </g>
    <g id="ytick_5">
     <g id="line2d_13">
      <g>
       <use style="stroke:#000000;stroke-width:0.8;" x="72" xlink:href="#m6500eac9c2" y="80.557365"/>
      </g>
     </g>
     <g id="text_14">
      <!-- 2.0 -->
      <g transform="translate(42.735625 85.876271)scale(0.14 -0.14)">
       <use xlink:href="#DejaVuSans-32"/>
       <use x="63.623047" xlink:href="#DejaVuSans-2e"/>
       <use x="95.410156" xlink:href="#DejaVuSans-30"/>
      </g>
     </g>
    </g>
    <g id="text_15">
     <!-- Speed [mm/s] -->
     <g transform="translate(35.408125 238.11375)rotate(-90)scale(0.16 -0.16)">
      <defs>
       <path d="M 1159 525 
L 1159 -1331 
L 581 -1331 
L 581 3500 
L 1159 3500 
L 1159 2969 
Q 1341 3281 1617 3432 
Q 1894 3584 2278 3584 
Q 2916 3584 3314 3078 
Q 3713 2572 3713 1747 
Q 3713 922 3314 415 
Q 2916 -91 2278 -91 
Q 1894 -91 1617 61 
Q 1341 213 1159 525 
z
M 3116 1747 
Q 3116 2381 2855 2742 
Q 2594 3103 2138 3103 
Q 1681 3103 1420 2742 
Q 1159 2381 1159 1747 
Q 1159 1113 1420 752 
Q 1681 391 2138 391 
Q 2594 391 2855 752 
Q 3116 1113 3116 1747 
z
" id="DejaVuSans-70" transform="scale(0.015625)"/>
       <path d="M 1625 4666 
L 2156 4666 
L 531 -594 
L 0 -594 
L 1625 4666 
z
" id="DejaVuSans-2f" transform="scale(0.015625)"/>
      </defs>
      <use xlink:href="#DejaVuSans-53"/>
      <use x="63.476562" xlink:href="#DejaVuSans-70"/>
      <use x="126.953125" xlink:href="#DejaVuSans-65"/>
      <use x="188.476562" xlink:href="#DejaVuSans-65"/>
      <use x="250" xlink:href="#DejaVuSans-64"/>
      <use x="313.476562" xlink:href="#DejaVuSans-20"/>
      <use x="345.263672" xlink:href="#DejaVuSans-5b"/>
      <use x="384.277344" xlink:href="#DejaVuSans-6d"/>
      <use x="481.689453" xlink:href="#DejaVuSans-6d"/>
      <use x="579.101562" xlink:href="#DejaVuSans-2f"/>
      <use x="612.792969" xlink:href="#DejaVuSans-73"/>
      <use x="664.892578" xlink:href="#DejaVuSans-5d"/>
     </g>
    </g>
   </g>
   <g id="line2d_14">
    <path clip-path="url(#p4e323c17f2)" d="M 72 163.76246 
L 518.4 163.76246 
" style="fill:none;stroke:#000000;stroke-dasharray:5.55,2.4;stroke-dashoffset:0;stroke-width:1.5;"/>
   </g>
   <g id="line2d_15">
    <path clip-path="url(#p4e323c17f2)" d="M 72 271.913494 
L 116.730364 271.979137 
L 117.182186 271.587181 
L 117.634008 273.158068 
L 118.08583 272.620014 
L 118.537652 269.461815 
L 118.989474 268.920867 
L 119.441296 269.242221 
L 120.796761 271.217501 
L 121.248583 269.849808 
L 121.700405 279.759178 
L 122.604049 241.840189 
L 123.05587 267.572053 
L 123.507692 286.328098 
L 123.959514 299.008135 
L 124.411336 305.594194 
L 124.863158 307.8 
L 125.31498 306.71062 
L 125.766802 300.050157 
L 126.670445 276.340135 
L 128.477733 223.128003 
L 129.381377 197.610656 
L 131.640486 114.016281 
L 132.995951 74.258965 
L 133.447773 66.606988 
L 133.899595 61.332612 
L 134.351417 57.910588 
L 134.803239 55.8 
L 135.255061 56.117782 
L 135.706883 58.83111 
L 136.158704 63.146813 
L 136.610526 69.541504 
L 137.965992 100.342819 
L 139.773279 143.75609 
L 140.225101 150.617095 
L 140.676923 160.166165 
L 141.128745 166.047783 
L 141.580567 168.947667 
L 142.032389 169.268447 
L 142.484211 165.600759 
L 143.387854 150.604337 
L 143.839676 122.928915 
L 144.291498 128.723248 
L 144.74332 160.720296 
L 145.195142 162.884021 
L 145.646964 163.775347 
L 146.098785 163.582103 
L 146.550607 163.658822 
L 147.002429 162.366295 
L 147.906073 153.357769 
L 148.357895 152.512937 
L 148.809717 151.230009 
L 149.261538 152.797528 
L 149.71336 155.426791 
L 150.165182 157.222345 
L 150.617004 160.77549 
L 151.068826 161.851337 
L 151.520648 161.206362 
L 151.97247 162.245923 
L 152.424291 162.873405 
L 152.876113 162.546525 
L 153.327935 162.926942 
L 153.779757 162.83582 
L 154.231579 161.20567 
L 154.683401 161.828121 
L 155.135223 163.611604 
L 155.587045 164.057153 
L 156.038866 163.793129 
L 156.490688 162.914003 
L 156.94251 163.398142 
L 157.394332 163.14144 
L 157.846154 162.08495 
L 158.297976 162.474913 
L 158.749798 164.157665 
L 159.201619 164.059951 
L 159.653441 162.4863 
L 160.105263 162.346135 
L 160.557085 162.870418 
L 161.460729 162.110435 
L 161.912551 162.410966 
L 162.364372 162.555372 
L 162.816194 162.822467 
L 163.719838 162.358986 
L 164.17166 162.1339 
L 164.623482 162.353259 
L 165.075304 163.196856 
L 165.978947 164.066845 
L 166.430769 164.255566 
L 167.334413 164.279923 
L 167.786235 163.669462 
L 168.689879 163.719834 
L 169.1417 163.802798 
L 169.593522 164.38055 
L 170.045344 164.461044 
L 170.497166 163.964408 
L 171.40081 164.791725 
L 172.304453 163.169818 
L 172.756275 162.82168 
L 173.208097 163.195787 
L 173.659919 162.821444 
L 174.111741 163.23166 
L 174.563563 163.928825 
L 175.015385 163.998415 
L 175.467206 163.053745 
L 175.919028 162.64393 
L 176.37085 164.016423 
L 176.822672 164.35487 
L 177.274494 164.294444 
L 178.178138 164.468913 
L 178.62996 165.125787 
L 179.081781 164.985806 
L 179.533603 164.202288 
L 179.985425 164.542765 
L 180.437247 165.715672 
L 180.889069 165.965115 
L 181.340891 164.740824 
L 181.792713 164.006296 
L 182.696356 165.253154 
L 183.6 165.352129 
L 184.051822 165.59226 
L 184.503644 164.765502 
L 184.955466 163.312128 
L 185.407287 163.59517 
L 185.859109 164.136971 
L 186.310931 163.946535 
L 186.762753 164.041852 
L 187.214575 164.538203 
L 187.666397 164.393626 
L 188.118219 163.628346 
L 188.57004 163.865114 
L 189.021862 163.652153 
L 189.473684 162.305693 
L 189.925506 162.116349 
L 190.377328 162.629137 
L 190.82915 162.934356 
L 191.280972 162.794716 
L 191.732794 162.944775 
L 192.184615 163.416997 
L 193.088259 163.152212 
L 193.540081 163.718877 
L 193.991903 163.784123 
L 194.443725 163.724536 
L 194.895547 164.256119 
L 195.347368 164.036423 
L 195.79919 164.317641 
L 196.251012 164.382226 
L 197.606478 164.988239 
L 198.0583 165.517901 
L 198.961943 165.277445 
L 199.413765 164.564407 
L 199.865587 164.545188 
L 200.317409 165.334327 
L 200.769231 165.078459 
L 201.221053 164.364544 
L 201.672874 164.210213 
L 202.124696 164.731712 
L 202.576518 164.397239 
L 203.02834 163.01438 
L 203.480162 163.127434 
L 203.931984 163.985917 
L 204.383806 164.561824 
L 204.835628 164.560802 
L 205.739271 163.405934 
L 206.191093 162.358289 
L 206.642915 162.511754 
L 207.094737 163.907833 
L 207.546559 164.300322 
L 207.998381 163.631612 
L 208.450202 163.567905 
L 208.902024 164.075495 
L 209.353846 164.172103 
L 209.805668 163.712432 
L 210.709312 164.541954 
L 211.161134 163.339475 
L 211.612955 163.122762 
L 212.064777 163.607076 
L 212.516599 163.727606 
L 212.968421 164.139593 
L 213.872065 163.56989 
L 214.775709 163.274433 
L 215.22753 163.744218 
L 215.679352 162.928979 
L 216.131174 162.693425 
L 216.582996 163.530265 
L 217.034818 163.73252 
L 217.48664 163.037878 
L 217.938462 163.10036 
L 218.390283 164.519865 
L 218.842105 164.61272 
L 219.293927 163.315851 
L 219.745749 162.733983 
L 220.197571 164.169383 
L 220.649393 164.796088 
L 221.101215 163.613592 
L 221.553036 164.019233 
L 222.004858 165.451341 
L 222.45668 165.357619 
L 222.908502 164.712705 
L 223.360324 164.324541 
L 223.812146 164.291947 
L 224.263968 163.636164 
L 224.715789 163.300121 
L 225.619433 165.082759 
L 226.071255 165.495535 
L 226.523077 164.803476 
L 226.974899 163.300943 
L 227.878543 164.226119 
L 228.330364 163.808198 
L 228.782186 164.658067 
L 229.234008 164.294852 
L 229.68583 163.172026 
L 230.137652 163.323119 
L 230.589474 163.629133 
L 231.041296 163.615944 
L 231.493117 163.336245 
L 231.944939 164.262852 
L 232.396761 164.718094 
L 232.848583 163.660948 
L 233.300405 163.921301 
L 233.752227 164.664109 
L 234.204049 164.315797 
L 234.65587 164.328865 
L 235.559514 165.145439 
L 236.011336 165.150019 
L 236.463158 164.628922 
L 236.91498 163.507818 
L 237.366802 163.615682 
L 237.818623 164.674206 
L 238.270445 165.00706 
L 239.174089 163.159873 
L 239.625911 164.070983 
L 240.077733 164.684958 
L 240.529555 164.142238 
L 240.981377 163.106127 
L 241.433198 163.517054 
L 241.88502 164.138411 
L 242.788664 162.762129 
L 243.240486 163.386161 
L 243.692308 164.720992 
L 244.14413 164.825434 
L 244.595951 164.040078 
L 245.499595 163.439848 
L 245.951417 162.931586 
L 246.403239 163.412158 
L 247.306883 165.050307 
L 247.758704 165.2645 
L 248.662348 163.846306 
L 249.565992 164.789134 
L 250.017814 163.78674 
L 250.469636 163.580108 
L 250.921457 164.066096 
L 251.373279 164.105047 
L 251.825101 163.639474 
L 252.276923 162.952775 
L 252.728745 162.884721 
L 253.180567 163.946046 
L 253.632389 164.005833 
L 254.084211 163.246691 
L 254.987854 164.160347 
L 255.439676 163.873983 
L 255.891498 162.883064 
L 256.34332 163.43259 
L 256.795142 164.371755 
L 257.246964 164.090255 
L 257.698785 164.484239 
L 258.150607 164.637863 
L 258.602429 164.322934 
L 259.054251 164.825263 
L 259.506073 164.842633 
L 259.957895 163.654685 
L 260.409717 163.44097 
L 260.861538 164.330297 
L 261.31336 164.888403 
L 261.765182 163.681554 
L 262.217004 163.32557 
L 262.668826 164.099709 
L 263.120648 164.15262 
L 264.024291 163.383813 
L 264.476113 163.246571 
L 264.927935 163.65784 
L 265.831579 164.797563 
L 266.283401 164.440338 
L 266.735223 163.63554 
L 267.187045 163.519986 
L 267.638866 162.936772 
L 268.090688 163.284079 
L 268.54251 164.309565 
L 268.994332 164.917327 
L 269.897976 163.382217 
L 270.349798 164.210846 
L 270.801619 164.76879 
L 271.253441 164.881988 
L 271.705263 163.945855 
L 272.157085 163.728389 
L 272.608907 164.871013 
L 273.060729 165.116928 
L 273.964372 163.459407 
L 274.416194 164.013606 
L 274.868016 164.827971 
L 275.319838 163.543499 
L 275.77166 163.379159 
L 276.223482 164.442532 
L 276.675304 164.08444 
L 277.127126 164.002232 
L 277.578947 163.730232 
L 278.030769 163.657633 
L 278.482591 163.969298 
L 278.934413 163.294887 
L 279.386235 163.407837 
L 279.838057 164.091956 
L 280.289879 164.202197 
L 280.7417 163.78096 
L 281.193522 164.092851 
L 281.645344 164.176569 
L 282.097166 163.461409 
L 282.548988 163.310995 
L 283.00081 163.47854 
L 283.904453 163.012017 
L 284.356275 163.441312 
L 284.808097 164.065486 
L 285.259919 163.670662 
L 285.711741 163.026567 
L 286.163563 163.349796 
L 286.615385 163.911833 
L 287.519028 164.253299 
L 287.97085 164.195837 
L 288.422672 163.308226 
L 288.874494 162.965889 
L 289.778138 164.833763 
L 290.22996 164.748743 
L 291.133603 163.857526 
L 291.585425 164.561818 
L 292.037247 164.797265 
L 292.489069 164.61832 
L 292.940891 164.707932 
L 293.844534 163.865778 
L 294.296356 164.052816 
L 294.748178 164.858542 
L 295.2 164.434244 
L 295.651822 164.549256 
L 296.103644 165.134016 
L 296.555466 164.710012 
L 297.007287 164.594093 
L 297.459109 164.81179 
L 297.910931 164.875458 
L 298.362753 164.671283 
L 299.266397 163.612415 
L 299.718219 163.629261 
L 300.17004 163.940415 
L 301.073684 162.5671 
L 301.977328 163.162404 
L 302.42915 163.468757 
L 302.880972 163.960833 
L 303.784615 163.303994 
L 304.236437 163.433271 
L 304.688259 163.749119 
L 305.140081 163.59596 
L 305.591903 162.658979 
L 306.043725 163.248095 
L 306.495547 164.052552 
L 307.39919 163.017912 
L 308.754656 163.376859 
L 310.110121 164.253536 
L 310.561943 164.979694 
L 311.013765 165.455014 
L 311.465587 165.024404 
L 312.369231 164.58372 
L 313.272874 164.309409 
L 313.724696 163.496603 
L 314.62834 164.602917 
L 315.531984 163.07114 
L 315.983806 163.026527 
L 316.435628 164.123012 
L 316.887449 164.269591 
L 317.339271 164.74445 
L 318.242915 164.626705 
L 318.694737 165.413803 
L 319.598381 164.408861 
L 320.502024 164.375855 
L 320.953846 164.670778 
L 321.405668 164.022648 
L 321.85749 163.792814 
L 322.309312 163.276176 
L 322.761134 161.863685 
L 323.212955 162.66649 
L 323.664777 163.779328 
L 324.116599 163.181198 
L 324.568421 162.92291 
L 325.472065 164.400039 
L 325.923887 164.124494 
L 326.82753 164.108071 
L 327.279352 163.581937 
L 328.182996 163.273537 
L 329.08664 161.940815 
L 330.442105 164.61041 
L 330.893927 164.668135 
L 331.345749 164.501686 
L 331.797571 165.085732 
L 332.249393 165.376822 
L 332.701215 164.751328 
L 333.153036 165.640502 
L 333.604858 166.014545 
L 334.05668 164.927078 
L 334.960324 164.428858 
L 335.412146 163.883551 
L 335.863968 164.254636 
L 336.767611 163.082856 
L 337.219433 163.352346 
L 337.671255 163.093029 
L 338.574899 162.96611 
L 339.478543 163.951246 
L 339.930364 164.094939 
L 340.382186 163.968471 
L 340.834008 164.229074 
L 341.737652 165.654161 
L 342.189474 165.084181 
L 343.093117 163.147136 
L 343.544939 163.766543 
L 343.996761 163.759177 
L 344.448583 163.381681 
L 344.900405 164.683016 
L 345.352227 164.536286 
L 345.804049 163.052834 
L 346.25587 163.192475 
L 346.707692 164.32876 
L 347.159514 164.620647 
L 347.611336 164.725797 
L 348.51498 164.409528 
L 349.418623 163.291666 
L 349.870445 162.973898 
L 350.322267 162.232237 
L 351.677733 163.198886 
L 352.129555 163.396357 
L 352.581377 162.338437 
L 353.033198 162.500288 
L 353.48502 163.636697 
L 353.936842 164.141725 
L 354.840486 166.025559 
L 355.74413 164.870878 
L 356.195951 164.789348 
L 357.099595 164.311679 
L 357.551417 164.352731 
L 358.003239 163.706324 
L 358.455061 164.419606 
L 358.906883 164.324562 
L 359.358704 163.215476 
L 361.165992 165.025791 
L 361.617814 164.747995 
L 362.069636 164.62258 
L 362.521457 165.31402 
L 362.973279 165.788835 
L 363.425101 165.373392 
L 363.876923 164.20238 
L 364.780567 162.747581 
L 365.232389 163.11203 
L 365.684211 163.330043 
L 366.136032 163.224368 
L 366.587854 162.905952 
L 367.039676 161.99669 
L 367.491498 162.119449 
L 368.395142 163.535624 
L 369.298785 164.335833 
L 369.750607 165.19497 
L 370.202429 165.307583 
L 370.654251 164.474097 
L 371.557895 163.996963 
L 372.009717 163.752466 
L 372.461538 163.281753 
L 372.91336 162.63144 
L 373.365182 163.130183 
L 373.817004 163.26221 
L 374.268826 163.080278 
L 374.720648 163.945817 
L 375.17247 164.467125 
L 375.624291 164.654087 
L 376.076113 165.331201 
L 376.527935 165.151485 
L 376.979757 164.541977 
L 377.431579 165.214822 
L 377.883401 165.083931 
L 378.335223 164.447952 
L 378.787045 163.584949 
L 379.238866 163.306496 
L 379.690688 163.448361 
L 380.14251 162.715357 
L 380.594332 162.282148 
L 381.046154 162.711537 
L 381.497976 162.698216 
L 381.949798 162.331388 
L 382.401619 162.967853 
L 384.208907 164.797993 
L 385.112551 165.168558 
L 385.564372 165.072712 
L 386.468016 164.101132 
L 386.919838 164.068282 
L 387.37166 163.771793 
L 387.823482 162.827148 
L 388.275304 162.552023 
L 389.178947 164.184311 
L 389.630769 163.394731 
L 390.082591 163.305949 
L 390.534413 164.18535 
L 390.986235 164.515655 
L 391.438057 165.557076 
L 391.889879 165.878987 
L 392.3417 165.304476 
L 393.697166 164.166428 
L 394.148988 163.498621 
L 395.052632 163.374223 
L 395.504453 163.155427 
L 395.956275 163.653742 
L 396.408097 163.963095 
L 397.311741 164.378102 
L 398.215385 164.721839 
L 398.667206 164.870941 
L 399.119028 165.616997 
L 399.57085 165.738304 
L 400.474494 163.820749 
L 400.926316 164.380715 
L 401.378138 164.25387 
L 401.82996 163.382583 
L 402.281781 163.941896 
L 402.733603 163.364111 
L 403.185425 161.946872 
L 403.637247 161.988728 
L 404.089069 162.847948 
L 404.540891 162.837638 
L 404.992713 163.203364 
L 405.444534 163.814434 
L 405.896356 164.177919 
L 406.8 164.312071 
L 407.251822 163.971942 
L 407.703644 163.440608 
L 408.155466 163.553441 
L 408.607287 162.8957 
L 409.059109 162.599103 
L 409.962753 164.008418 
L 410.414575 164.247891 
L 410.866397 164.00115 
L 411.318219 164.104434 
L 411.77004 164.783633 
L 412.221862 164.976057 
L 412.673684 164.751891 
L 413.577328 165.452133 
L 414.480972 164.535899 
L 414.932794 164.628184 
L 415.384615 164.112629 
L 416.288259 163.812032 
L 416.740081 163.420694 
L 417.191903 163.674745 
L 417.643725 163.566002 
L 418.095547 163.67844 
L 418.547368 164.110847 
L 418.99919 164.215332 
L 419.451012 164.810512 
L 419.902834 165.183966 
L 420.354656 164.788004 
L 421.2583 164.968567 
L 421.710121 164.181858 
L 422.161943 163.64456 
L 422.613765 164.165965 
L 423.065587 163.629969 
L 423.517409 163.923808 
L 423.969231 164.016426 
L 424.421053 162.796838 
L 424.872874 162.867501 
L 425.324696 163.778219 
L 425.776518 163.987312 
L 426.22834 163.93168 
L 426.680162 164.584736 
L 427.583806 165.13906 
L 428.035628 164.557654 
L 428.487449 163.737088 
L 428.939271 164.279518 
L 429.391093 164.337708 
L 430.294737 162.682726 
L 430.746559 162.610359 
L 431.198381 162.788308 
L 431.650202 163.110452 
L 433.005668 164.424587 
L 433.45749 163.8804 
L 433.909312 163.699008 
L 434.361134 163.751015 
L 434.812955 164.467442 
L 435.264777 164.769955 
L 435.716599 164.236155 
L 436.168421 163.262466 
L 436.620243 163.249399 
L 437.072065 163.636374 
L 438.42753 163.005505 
L 438.879352 162.31424 
L 439.331174 162.286616 
L 439.782996 163.16021 
L 440.234818 163.54303 
L 440.68664 164.564385 
L 441.138462 164.874289 
L 441.590283 164.555754 
L 442.042105 164.40729 
L 442.493927 164.636458 
L 443.397571 165.381292 
L 443.849393 164.377718 
L 444.301215 164.308002 
L 444.753036 164.595184 
L 445.204858 164.390835 
L 445.65668 163.548164 
L 446.108502 163.267537 
L 446.560324 163.778793 
L 447.012146 163.717168 
L 447.463968 163.472039 
L 447.915789 163.39705 
L 448.367611 164.43703 
L 448.819433 164.400952 
L 449.271255 164.55159 
L 450.174899 163.26059 
L 450.626721 164.89785 
L 451.078543 164.44785 
L 451.530364 163.279767 
L 451.982186 164.050407 
L 452.434008 164.086215 
L 452.88583 163.570669 
L 453.337652 163.572036 
L 453.789474 162.99085 
L 454.693117 164.275303 
L 455.144939 163.505327 
L 455.596761 163.443926 
L 456.048583 164.465057 
L 456.500405 165.147915 
L 457.85587 163.663626 
L 458.307692 164.779269 
L 458.759514 164.30157 
L 459.211336 162.945315 
L 459.663158 164.036325 
L 460.11498 163.77841 
L 460.566802 163.14008 
L 461.018623 164.388709 
L 461.470445 164.508302 
L 461.922267 163.65229 
L 462.374089 163.973137 
L 462.825911 163.710606 
L 463.277733 163.622776 
L 463.729555 164.664372 
L 464.181377 164.67322 
L 464.633198 164.811389 
L 465.08502 164.697575 
L 465.536842 163.322559 
L 465.988664 164.188682 
L 466.440486 164.799138 
L 466.892308 163.815282 
L 467.34413 163.379321 
L 468.247773 163.123129 
L 468.699595 163.992023 
L 469.151417 164.418687 
L 469.603239 163.308157 
L 470.055061 163.873373 
L 470.506883 163.832601 
L 470.958704 163.431944 
L 471.410526 163.877303 
L 471.862348 163.988435 
L 472.31417 164.617445 
L 472.765992 164.073335 
L 473.217814 163.863209 
L 473.669636 165.084347 
L 474.121457 164.554908 
L 474.573279 163.709461 
L 475.476923 163.345887 
L 475.928745 164.155511 
L 476.380567 164.6983 
L 476.832389 164.104681 
L 477.284211 164.161961 
L 477.736032 164.74952 
L 478.187854 163.847324 
L 479.091498 164.72315 
L 479.54332 163.999501 
L 479.995142 163.704937 
L 480.446964 163.207651 
L 480.898785 163.698691 
L 481.350607 164.541542 
L 481.802429 164.172051 
L 482.254251 164.254148 
L 482.706073 164.911942 
L 483.157895 164.79567 
L 483.609717 164.063906 
L 484.965182 164.526133 
L 485.417004 165.493056 
L 485.868826 164.124454 
L 486.320648 163.743 
L 486.77247 163.521068 
L 487.224291 163.001048 
L 487.676113 164.344549 
L 488.127935 163.942564 
L 488.579757 162.727111 
L 489.031579 162.389633 
L 489.483401 162.359607 
L 489.935223 163.271339 
L 490.387045 163.751904 
L 490.838866 162.572427 
L 491.290688 162.010554 
L 491.74251 162.913073 
L 492.194332 162.998995 
L 492.646154 162.358083 
L 493.097976 163.234223 
L 494.453441 163.814594 
L 494.905263 164.368107 
L 495.357085 165.416554 
L 495.808907 164.72056 
L 496.260729 164.545033 
L 496.712551 164.937197 
L 497.164372 163.949873 
L 497.616194 164.515694 
L 498.068016 165.534861 
L 498.519838 164.818642 
L 498.97166 164.618159 
L 499.423482 163.768661 
L 499.875304 163.289334 
L 500.327126 164.865116 
L 500.778947 165.092472 
L 501.230769 163.546593 
L 501.682591 163.560037 
L 502.134413 164.503378 
L 503.489879 163.671784 
L 503.9417 163.872052 
L 504.393522 164.603233 
L 504.845344 163.940152 
L 505.297166 163.526471 
L 506.652632 164.824104 
L 507.104453 164.067371 
L 507.556275 162.564901 
L 508.459919 162.949128 
L 509.363563 163.595709 
L 511.17085 165.32614 
L 512.074494 166.141123 
L 512.978138 166.680727 
L 513.42996 166.777354 
L 513.881781 166.716548 
L 514.333603 166.463887 
L 514.785425 165.982596 
L 515.237247 165.233555 
L 515.689069 164.175292 
L 516.140891 162.763986 
L 517.044534 158.695219 
L 517.948178 152.629705 
L 518.4 148.713657 
L 518.4 148.713657 
" style="fill:none;stroke:#ff0000;stroke-linecap:square;stroke-width:2;"/>
   </g>
   <g id="patch_3">
    <path d="M 72 320.4 
L 72 43.2 
" style="fill:none;stroke:#000000;stroke-linecap:square;stroke-linejoin:miter;stroke-width:0.8;"/>
   </g>
   <g id="patch_4">
    <path d="M 518.4 320.4 
L 518.4 43.2 
" style="fill:none;stroke:#000000;stroke-linecap:square;stroke-linejoin:miter;stroke-width:0.8;"/>
   </g>
   <g id="patch_5">
    <path d="M 72 320.4 
L 518.4 320.4 
" style="fill:none;stroke:#000000;stroke-linecap:square;stroke-linejoin:miter;stroke-width:0.8;"/>
   </g>
   <g id="patch_6">
    <path d="M 72 43.2 
L 518.4 43.2 
" style="fill:none;stroke:#000000;stroke-linecap:square;stroke-linejoin:miter;stroke-width:0.8;"/>
   </g>
   <g id="text_16">
    <!-- Front Propogation Speed -->
    <g transform="translate(172.245312 37.2)scale(0.2 -0.2)">
     <defs>
      <path d="M 628 4666 
L 3309 4666 
L 3309 4134 
L 1259 4134 
L 1259 2759 
L 3109 2759 
L 3109 2228 
L 1259 2228 
L 1259 0 
L 628 0 
L 628 4666 
z
" id="DejaVuSans-46" transform="scale(0.015625)"/>
      <path d="M 2631 2963 
Q 2534 3019 2420 3045 
Q 2306 3072 2169 3072 
Q 1681 3072 1420 2755 
Q 1159 2438 1159 1844 
L 1159 0 
L 581 0 
L 581 3500 
L 1159 3500 
L 1159 2956 
Q 1341 3275 1631 3429 
Q 1922 3584 2338 3584 
Q 2397 3584 2469 3576 
Q 2541 3569 2628 3553 
L 2631 2963 
z
" id="DejaVuSans-72" transform="scale(0.015625)"/>
      <path d="M 1172 4494 
L 1172 3500 
L 2356 3500 
L 2356 3053 
L 1172 3053 
L 1172 1153 
Q 1172 725 1289 603 
Q 1406 481 1766 481 
L 2356 481 
L 2356 0 
L 1766 0 
Q 1100 0 847 248 
Q 594 497 594 1153 
L 594 3053 
L 172 3053 
L 172 3500 
L 594 3500 
L 594 4494 
L 1172 4494 
z
" id="DejaVuSans-74" transform="scale(0.015625)"/>
      <path d="M 1259 4147 
L 1259 2394 
L 2053 2394 
Q 2494 2394 2734 2622 
Q 2975 2850 2975 3272 
Q 2975 3691 2734 3919 
Q 2494 4147 2053 4147 
L 1259 4147 
z
M 628 4666 
L 2053 4666 
Q 2838 4666 3239 4311 
Q 3641 3956 3641 3272 
Q 3641 2581 3239 2228 
Q 2838 1875 2053 1875 
L 1259 1875 
L 1259 0 
L 628 0 
L 628 4666 
z
" id="DejaVuSans-50" transform="scale(0.015625)"/>
      <path d="M 2906 1791 
Q 2906 2416 2648 2759 
Q 2391 3103 1925 3103 
Q 1463 3103 1205 2759 
Q 947 2416 947 1791 
Q 947 1169 1205 825 
Q 1463 481 1925 481 
Q 2391 481 2648 825 
Q 2906 1169 2906 1791 
z
M 3481 434 
Q 3481 -459 3084 -895 
Q 2688 -1331 1869 -1331 
Q 1566 -1331 1297 -1286 
Q 1028 -1241 775 -1147 
L 775 -588 
Q 1028 -725 1275 -790 
Q 1522 -856 1778 -856 
Q 2344 -856 2625 -561 
Q 2906 -266 2906 331 
L 2906 616 
Q 2728 306 2450 153 
Q 2172 0 1784 0 
Q 1141 0 747 490 
Q 353 981 353 1791 
Q 353 2603 747 3093 
Q 1141 3584 1784 3584 
Q 2172 3584 2450 3431 
Q 2728 3278 2906 2969 
L 2906 3500 
L 3481 3500 
L 3481 434 
z
" id="DejaVuSans-67" transform="scale(0.015625)"/>
      <path d="M 2194 1759 
Q 1497 1759 1228 1600 
Q 959 1441 959 1056 
Q 959 750 1161 570 
Q 1363 391 1709 391 
Q 2188 391 2477 730 
Q 2766 1069 2766 1631 
L 2766 1759 
L 2194 1759 
z
M 3341 1997 
L 3341 0 
L 2766 0 
L 2766 531 
Q 2569 213 2275 61 
Q 1981 -91 1556 -91 
Q 1019 -91 701 211 
Q 384 513 384 1019 
Q 384 1609 779 1909 
Q 1175 2209 1959 2209 
L 2766 2209 
L 2766 2266 
Q 2766 2663 2505 2880 
Q 2244 3097 1772 3097 
Q 1472 3097 1187 3025 
Q 903 2953 641 2809 
L 641 3341 
Q 956 3463 1253 3523 
Q 1550 3584 1831 3584 
Q 2591 3584 2966 3190 
Q 3341 2797 3341 1997 
z
" id="DejaVuSans-61" transform="scale(0.015625)"/>
     </defs>
     <use xlink:href="#DejaVuSans-46"/>
     <use x="50.269531" xlink:href="#DejaVuSans-72"/>
     <use x="89.132812" xlink:href="#DejaVuSans-6f"/>
     <use x="150.314453" xlink:href="#DejaVuSans-6e"/>
     <use x="213.693359" xlink:href="#DejaVuSans-74"/>
     <use x="252.902344" xlink:href="#DejaVuSans-20"/>
     <use x="284.689453" xlink:href="#DejaVuSans-50"/>
     <use x="343.242188" xlink:href="#DejaVuSans-72"/>
     <use x="382.105469" xlink:href="#DejaVuSans-6f"/>
     <use x="443.287109" xlink:href="#DejaVuSans-70"/>
     <use x="506.763672" xlink:href="#DejaVuSans-6f"/>
     <use x="567.945312" xlink:href="#DejaVuSans-67"/>
     <use x="631.421875" xlink:href="#DejaVuSans-61"/>
     <use x="692.701172" xlink:href="#DejaVuSans-74"/>
     <use x="731.910156" xlink:href="#DejaVuSans-69"/>
     <use x="759.693359" xlink:href="#DejaVuSans-6f"/>
     <use x="820.875" xlink:href="#DejaVuSans-6e"/>
     <use x="884.253906" xlink:href="#DejaVuSans-20"/>
     <use x="916.041016" xlink:href="#DejaVuSans-53"/>
     <use x="979.517578" xlink:href="#DejaVuSans-70"/>
     <use x="1042.994141" xlink:href="#DejaVuSans-65"/>
     <use x="1104.517578" xlink:href="#DejaVuSans-65"/>
     <use x="1166.041016" xlink:href="#DejaVuSans-64"/>
    </g>
   </g>
   <g id="legend_1">
    <g id="patch_7">
     <path d="M 325.967812 111.175687 
L 508.6 111.175687 
Q 511.4 111.175687 511.4 108.375687 
L 511.4 53 
Q 511.4 50.2 508.6 50.2 
L 325.967812 50.2 
Q 323.167812 50.2 323.167812 53 
L 323.167812 108.375687 
Q 323.167812 111.175687 325.967812 111.175687 
z
" style="fill:#ffffff;opacity:0.8;stroke:#cccccc;stroke-linejoin:miter;"/>
    </g>
    <g id="line2d_16">
     <path d="M 328.767812 61.537812 
L 356.767812 61.537812 
" style="fill:none;stroke:#ff0000;stroke-linecap:square;stroke-width:2;"/>
    </g>
    <g id="line2d_17"/>
    <g id="text_17">
     <!-- Front speed -->
     <g transform="translate(367.967812 66.437812)scale(0.14 -0.14)">
      <use xlink:href="#DejaVuSans-46"/>
      <use x="50.269531" xlink:href="#DejaVuSans-72"/>
      <use x="89.132812" xlink:href="#DejaVuSans-6f"/>
      <use x="150.314453" xlink:href="#DejaVuSans-6e"/>
      <use x="213.693359" xlink:href="#DejaVuSans-74"/>
      <use x="252.902344" xlink:href="#DejaVuSans-20"/>
      <use x="284.689453" xlink:href="#DejaVuSans-73"/>
      <use x="336.789062" xlink:href="#DejaVuSans-70"/>
      <use x="400.265625" xlink:href="#DejaVuSans-65"/>
      <use x="461.789062" xlink:href="#DejaVuSans-65"/>
      <use x="523.3125" xlink:href="#DejaVuSans-64"/>
     </g>
    </g>
    <g id="line2d_18">
     <path d="M 328.767812 91.381437 
L 356.767812 91.381437 
" style="fill:none;stroke:#000000;stroke-dasharray:5.55,2.4;stroke-dashoffset:0;stroke-width:1.5;"/>
    </g>
    <g id="line2d_19"/>
    <g id="text_18">
     <!-- Steady state -->
     <g transform="translate(367.967812 86.987187)scale(0.14 -0.14)">
      <defs>
       <path d="M 2059 -325 
Q 1816 -950 1584 -1140 
Q 1353 -1331 966 -1331 
L 506 -1331 
L 506 -850 
L 844 -850 
Q 1081 -850 1212 -737 
Q 1344 -625 1503 -206 
L 1606 56 
L 191 3500 
L 800 3500 
L 1894 763 
L 2988 3500 
L 3597 3500 
L 2059 -325 
z
" id="DejaVuSans-79" transform="scale(0.015625)"/>
      </defs>
      <use xlink:href="#DejaVuSans-53"/>
      <use x="63.476562" xlink:href="#DejaVuSans-74"/>
      <use x="102.685547" xlink:href="#DejaVuSans-65"/>
      <use x="164.208984" xlink:href="#DejaVuSans-61"/>
      <use x="225.488281" xlink:href="#DejaVuSans-64"/>
      <use x="288.964844" xlink:href="#DejaVuSans-79"/>
      <use x="348.144531" xlink:href="#DejaVuSans-20"/>
      <use x="379.931641" xlink:href="#DejaVuSans-73"/>
      <use x="432.03125" xlink:href="#DejaVuSans-74"/>
      <use x="471.240234" xlink:href="#DejaVuSans-61"/>
      <use x="532.519531" xlink:href="#DejaVuSans-74"/>
      <use x="571.728516" xlink:href="#DejaVuSans-65"/>
     </g>
     <!-- speed = 1.14 mm/s -->
     <g transform="translate(367.967812 102.664125)scale(0.14 -0.14)">
      <defs>
       <path d="M 678 2906 
L 4684 2906 
L 4684 2381 
L 678 2381 
L 678 2906 
z
M 678 1631 
L 4684 1631 
L 4684 1100 
L 678 1100 
L 678 1631 
z
" id="DejaVuSans-3d" transform="scale(0.015625)"/>
       <path d="M 2419 4116 
L 825 1625 
L 2419 1625 
L 2419 4116 
z
M 2253 4666 
L 3047 4666 
L 3047 1625 
L 3713 1625 
L 3713 1100 
L 3047 1100 
L 3047 0 
L 2419 0 
L 2419 1100 
L 313 1100 
L 313 1709 
L 2253 4666 
z
" id="DejaVuSans-34" transform="scale(0.015625)"/>
      </defs>
      <use xlink:href="#DejaVuSans-73"/>
      <use x="52.099609" xlink:href="#DejaVuSans-70"/>
      <use x="115.576172" xlink:href="#DejaVuSans-65"/>
      <use x="177.099609" xlink:href="#DejaVuSans-65"/>
      <use x="238.623047" xlink:href="#DejaVuSans-64"/>
      <use x="302.099609" xlink:href="#DejaVuSans-20"/>
      <use x="333.886719" xlink:href="#DejaVuSans-3d"/>
      <use x="417.675781" xlink:href="#DejaVuSans-20"/>
      <use x="449.462891" xlink:href="#DejaVuSans-31"/>
      <use x="513.085938" xlink:href="#DejaVuSans-2e"/>
      <use x="544.873047" xlink:href="#DejaVuSans-31"/>
      <use x="608.496094" xlink:href="#DejaVuSans-34"/>
      <use x="672.119141" xlink:href="#DejaVuSans-20"/>
      <use x="703.90625" xlink:href="#DejaVuSans-6d"/>
      <use x="801.318359" xlink:href="#DejaVuSans-6d"/>
      <use x="898.730469" xlink:href="#DejaVuSans-2f"/>
      <use x="932.421875" xlink:href="#DejaVuSans-73"/>
     </g>
    </g>
   </g>
  </g>
 </g>
 <defs>
  <clipPath id="p4e323c17f2">
   <rect height="277.2" width="446.4" x="72" y="43.2"/>
  </clipPath>
 </defs>
</svg>
