<?xml version="1.0" encoding="utf-8" standalone="no"?>
<!DOCTYPE svg PUBLIC "-//W3C//DTD SVG 1.1//EN"
  "http://www.w3.org/Graphics/SVG/1.1/DTD/svg11.dtd">
<svg height="360pt" version="1.1" viewBox="0 0 576 360" width="576pt" xmlns="http://www.w3.org/2000/svg" xmlns:xlink="http://www.w3.org/1999/xlink">
 <metadata>
  <rdf:RDF xmlns:cc="http://creativecommons.org/ns#" xmlns:dc="http://purl.org/dc/elements/1.1/" xmlns:rdf="http://www.w3.org/1999/02/22-rdf-syntax-ns#">
   <cc:Work>
    <dc:type rdf:resource="http://purl.org/dc/dcmitype/StillImage"/>
    <dc:date>2022-06-30T14:42:39.977250</dc:date>
    <dc:format>image/svg+xml</dc:format>
    <dc:creator>
     <cc:Agent>
      <dc:title>Matplotlib v3.4.3, https://matplotlib.org/</dc:title>
     </cc:Agent>
    </dc:creator>
   </cc:Work>
  </rdf:RDF>
 </metadata>
 <defs>
  <style type="text/css">*{stroke-linecap:butt;stroke-linejoin:round;}</style>
 </defs>
 <g id="figure_1">
  <g id="patch_1">
   <path d="M 0 360 
L 576 360 
L 576 0 
L 0 0 
z
" style="fill:#ffffff;"/>
  </g>
  <g id="axes_1">
   <g id="patch_2">
    <path d="M 72 320.4 
L 518.4 320.4 
L 518.4 43.2 
L 72 43.2 
z
" style="fill:#ffffff;"/>
   </g>
   <g id="PolyCollection_1">
    <defs>
     <path d="M 72 -131.676433 
L 72 -141.754023 
L 73.1625 -141.754023 
L 74.325 -141.754023 
L 75.4875 -141.754023 
L 76.65 -141.754023 
L 77.8125 -141.754023 
L 78.975 -141.754023 
L 80.1375 -141.754023 
L 81.3 -141.754023 
L 82.4625 -141.754023 
L 83.625 -141.754023 
L 84.7875 -141.754023 
L 85.95 -141.754023 
L 87.1125 -141.754023 
L 88.275 -141.754023 
L 89.4375 -141.754023 
L 90.6 -141.754023 
L 91.7625 -141.754023 
L 92.925 -141.754023 
L 94.0875 -141.754023 
L 95.25 -141.754023 
L 96.4125 -141.754023 
L 97.575 -141.754023 
L 98.7375 -141.754023 
L 99.9 -141.754023 
L 101.0625 -141.754023 
L 102.225 -141.754023 
L 103.3875 -141.754023 
L 104.55 -141.754023 
L 105.7125 -141.754023 
L 106.875 -141.754023 
L 108.0375 -141.754023 
L 109.2 -141.754023 
L 110.3625 -141.754023 
L 111.525 -141.754023 
L 112.6875 -141.754023 
L 113.85 -141.754023 
L 115.0125 -141.754023 
L 116.175 -141.754023 
L 117.3375 -141.754023 
L 118.5 -141.754023 
L 119.6625 -141.754023 
L 120.825 -141.754023 
L 121.9875 -141.754023 
L 123.15 -141.754023 
L 124.3125 -141.754023 
L 125.475 -141.754023 
L 126.6375 -141.754023 
L 127.8 -141.754023 
L 128.9625 -141.754023 
L 130.125 -141.754023 
L 131.2875 -141.754023 
L 132.45 -141.754023 
L 133.6125 -141.754023 
L 134.775 -141.754023 
L 135.9375 -141.754023 
L 137.1 -141.754023 
L 138.2625 -141.754023 
L 139.425 -141.754023 
L 140.5875 -141.754023 
L 141.75 -141.754023 
L 142.9125 -141.754023 
L 144.075 -141.754023 
L 145.2375 -141.754023 
L 146.4 -141.754023 
L 147.5625 -141.754023 
L 148.725 -141.754023 
L 149.8875 -141.754023 
L 151.05 -141.754023 
L 152.2125 -141.754023 
L 153.375 -141.754023 
L 154.5375 -141.754023 
L 155.7 -141.754023 
L 156.8625 -141.754023 
L 158.025 -141.754023 
L 159.1875 -141.754023 
L 160.35 -141.754023 
L 161.5125 -141.754023 
L 162.675 -141.754023 
L 163.8375 -141.754023 
L 165 -141.754023 
L 166.1625 -141.754023 
L 167.325 -141.754023 
L 168.4875 -141.754023 
L 169.65 -141.754023 
L 170.8125 -141.754023 
L 171.975 -141.754023 
L 173.1375 -141.754023 
L 174.3 -141.754023 
L 175.4625 -141.754023 
L 176.625 -141.754023 
L 177.7875 -141.754023 
L 178.95 -141.754023 
L 180.1125 -141.754023 
L 181.275 -141.754023 
L 182.4375 -141.754023 
L 183.6 -141.754023 
L 184.7625 -141.754023 
L 185.925 -141.754023 
L 187.0875 -141.754023 
L 188.25 -141.754023 
L 189.4125 -141.754023 
L 190.575 -141.754023 
L 191.7375 -141.754023 
L 192.9 -141.754023 
L 194.0625 -141.754023 
L 195.225 -141.754023 
L 196.3875 -141.754023 
L 197.55 -141.754023 
L 198.7125 -141.754023 
L 199.875 -141.754023 
L 201.0375 -141.754023 
L 202.2 -141.754023 
L 203.3625 -141.754023 
L 204.525 -141.754023 
L 205.6875 -141.754023 
L 206.85 -141.754023 
L 208.0125 -141.754023 
L 209.175 -141.754023 
L 210.3375 -141.754023 
L 211.5 -141.754023 
L 212.6625 -141.754023 
L 213.825 -141.754023 
L 214.9875 -141.754023 
L 216.15 -141.754023 
L 217.3125 -141.754023 
L 218.475 -141.754023 
L 219.6375 -141.754023 
L 220.8 -141.754023 
L 221.9625 -141.754023 
L 223.125 -141.754023 
L 224.2875 -141.754023 
L 225.45 -141.754023 
L 226.6125 -141.754023 
L 227.775 -141.754023 
L 228.9375 -141.754023 
L 230.1 -141.754023 
L 231.2625 -141.754023 
L 232.425 -141.754023 
L 233.5875 -141.754023 
L 234.75 -141.754023 
L 235.9125 -141.754023 
L 237.075 -141.754023 
L 238.2375 -141.754023 
L 239.4 -141.754023 
L 240.5625 -141.754023 
L 241.725 -141.754023 
L 242.8875 -141.754023 
L 244.05 -141.754023 
L 245.2125 -141.754023 
L 246.375 -141.754023 
L 247.5375 -141.754023 
L 248.7 -141.754023 
L 249.8625 -141.754023 
L 251.025 -141.754023 
L 252.1875 -141.754023 
L 253.35 -141.754023 
L 254.5125 -141.754023 
L 255.675 -141.754023 
L 256.8375 -141.754023 
L 258 -141.754023 
L 259.1625 -141.754023 
L 260.325 -141.754023 
L 261.4875 -141.754023 
L 262.65 -141.754023 
L 263.8125 -141.754023 
L 264.975 -141.754023 
L 266.1375 -141.754023 
L 267.3 -141.754023 
L 268.4625 -141.754023 
L 269.625 -141.754023 
L 270.7875 -141.754023 
L 271.95 -141.754023 
L 273.1125 -141.754023 
L 274.275 -141.754023 
L 275.4375 -141.754023 
L 276.6 -141.754023 
L 277.7625 -141.754023 
L 278.925 -141.754023 
L 280.0875 -141.754023 
L 281.25 -141.754023 
L 282.4125 -141.754023 
L 283.575 -141.754023 
L 284.7375 -141.754023 
L 285.9 -141.754023 
L 287.0625 -141.754023 
L 288.225 -141.754023 
L 289.3875 -141.754023 
L 290.55 -141.754023 
L 291.7125 -141.754023 
L 292.875 -141.754023 
L 294.0375 -141.754023 
L 295.2 -141.754023 
L 296.3625 -141.754023 
L 297.525 -141.754023 
L 298.6875 -141.754023 
L 299.85 -141.754023 
L 301.0125 -141.754023 
L 302.175 -141.754023 
L 303.3375 -141.754023 
L 304.5 -141.754023 
L 305.6625 -141.754023 
L 306.825 -141.754023 
L 307.9875 -141.754023 
L 309.15 -141.754023 
L 310.3125 -141.754023 
L 311.475 -141.754023 
L 312.6375 -141.754023 
L 313.8 -141.754023 
L 314.9625 -141.754023 
L 316.125 -141.754023 
L 317.2875 -141.754023 
L 318.45 -141.754023 
L 319.6125 -141.754023 
L 320.775 -141.754023 
L 321.9375 -141.754023 
L 323.1 -141.754023 
L 324.2625 -141.754023 
L 325.425 -141.754023 
L 326.5875 -141.754023 
L 327.75 -141.754023 
L 328.9125 -141.754023 
L 330.075 -141.754023 
L 331.2375 -141.754023 
L 332.4 -141.754023 
L 333.5625 -141.754023 
L 334.725 -141.754023 
L 335.8875 -141.754023 
L 337.05 -141.754023 
L 338.2125 -141.754023 
L 339.375 -141.754023 
L 340.5375 -141.754023 
L 341.7 -141.754023 
L 342.8625 -141.754023 
L 344.025 -141.754023 
L 345.1875 -141.754023 
L 346.35 -141.754023 
L 347.5125 -141.754023 
L 348.675 -141.754023 
L 349.8375 -141.754023 
L 351 -141.754023 
L 352.1625 -141.754023 
L 353.325 -141.754023 
L 354.4875 -141.754023 
L 355.65 -141.754023 
L 356.8125 -141.754023 
L 357.975 -141.754023 
L 359.1375 -141.754023 
L 360.3 -141.754023 
L 361.4625 -141.754023 
L 362.625 -141.754023 
L 363.7875 -141.754023 
L 364.95 -141.754023 
L 366.1125 -141.754023 
L 367.275 -141.754023 
L 368.4375 -141.754023 
L 369.6 -141.754023 
L 370.7625 -141.754023 
L 371.925 -141.754023 
L 373.0875 -141.754023 
L 374.25 -141.754023 
L 375.4125 -141.754023 
L 376.575 -141.754023 
L 377.7375 -141.754023 
L 378.9 -141.754023 
L 380.0625 -141.754023 
L 381.225 -141.754023 
L 382.3875 -141.754023 
L 383.55 -141.754023 
L 384.7125 -141.754023 
L 385.875 -141.754023 
L 387.0375 -141.754023 
L 388.2 -141.754023 
L 389.3625 -141.754023 
L 390.525 -141.754023 
L 391.6875 -141.754023 
L 392.85 -141.754023 
L 394.0125 -141.754023 
L 395.175 -141.754023 
L 396.3375 -141.754023 
L 397.5 -141.754023 
L 398.6625 -141.754023 
L 399.825 -141.754023 
L 400.9875 -141.754023 
L 402.15 -141.754023 
L 403.3125 -141.754023 
L 404.475 -141.754023 
L 405.6375 -141.754023 
L 406.8 -141.754023 
L 407.9625 -141.754023 
L 409.125 -141.754023 
L 410.2875 -141.754023 
L 411.45 -141.754023 
L 412.6125 -141.754023 
L 413.775 -141.754023 
L 414.9375 -141.754023 
L 416.1 -141.754023 
L 417.2625 -141.754023 
L 418.425 -141.754023 
L 419.5875 -141.754023 
L 420.75 -141.754023 
L 421.9125 -141.754023 
L 423.075 -141.754023 
L 424.2375 -141.754023 
L 425.4 -141.754023 
L 426.5625 -141.754023 
L 427.725 -141.754023 
L 428.8875 -141.754023 
L 430.05 -141.754023 
L 431.2125 -141.754023 
L 432.375 -141.754023 
L 433.5375 -141.754023 
L 434.7 -141.754023 
L 435.8625 -141.754023 
L 437.025 -141.754023 
L 438.1875 -141.754023 
L 439.35 -141.754023 
L 440.5125 -141.754023 
L 441.675 -141.754023 
L 442.8375 -141.754023 
L 444 -141.754023 
L 445.1625 -141.754023 
L 446.325 -141.754023 
L 447.4875 -141.754023 
L 448.65 -141.754023 
L 449.8125 -141.754023 
L 450.975 -141.754023 
L 452.1375 -141.754023 
L 453.3 -141.754023 
L 454.4625 -141.754023 
L 455.625 -141.754023 
L 456.7875 -141.754023 
L 457.95 -141.754023 
L 459.1125 -141.754023 
L 460.275 -141.754023 
L 461.4375 -141.754023 
L 462.6 -141.754023 
L 463.7625 -141.754023 
L 464.925 -141.754023 
L 466.0875 -141.754023 
L 467.25 -141.754023 
L 468.4125 -141.754023 
L 469.575 -141.754023 
L 470.7375 -141.754023 
L 471.9 -141.754023 
L 473.0625 -141.754023 
L 474.225 -141.754023 
L 475.3875 -141.754023 
L 476.55 -141.754023 
L 477.7125 -141.754023 
L 478.875 -141.754023 
L 480.0375 -141.754023 
L 481.2 -141.754023 
L 482.3625 -141.754023 
L 483.525 -141.754023 
L 484.6875 -141.754023 
L 485.85 -141.754023 
L 487.0125 -141.754023 
L 488.175 -141.754023 
L 489.3375 -141.754023 
L 490.5 -141.754023 
L 491.6625 -141.754023 
L 492.825 -141.754023 
L 493.9875 -141.754023 
L 495.15 -141.754023 
L 496.3125 -141.754023 
L 497.475 -141.754023 
L 498.6375 -141.754023 
L 499.8 -141.754023 
L 500.9625 -141.754023 
L 502.125 -141.754023 
L 503.2875 -141.754023 
L 504.45 -141.754023 
L 505.6125 -141.754023 
L 506.775 -141.754023 
L 507.9375 -141.754023 
L 509.1 -141.754023 
L 510.2625 -141.754023 
L 511.425 -141.754023 
L 512.5875 -141.754023 
L 513.75 -141.754023 
L 514.9125 -141.754023 
L 516.075 -141.754023 
L 517.2375 -141.754023 
L 518.4 -141.754023 
L 518.4 -131.676433 
L 518.4 -131.676433 
L 517.2375 -131.676433 
L 516.075 -131.676433 
L 514.9125 -131.676433 
L 513.75 -131.676433 
L 512.5875 -131.676433 
L 511.425 -131.676433 
L 510.2625 -131.676433 
L 509.1 -131.676433 
L 507.9375 -131.676433 
L 506.775 -131.676433 
L 505.6125 -131.676433 
L 504.45 -131.676433 
L 503.2875 -131.676433 
L 502.125 -131.676433 
L 500.9625 -131.676433 
L 499.8 -131.676433 
L 498.6375 -131.676433 
L 497.475 -131.676433 
L 496.3125 -131.676433 
L 495.15 -131.676433 
L 493.9875 -131.676433 
L 492.825 -131.676433 
L 491.6625 -131.676433 
L 490.5 -131.676433 
L 489.3375 -131.676433 
L 488.175 -131.676433 
L 487.0125 -131.676433 
L 485.85 -131.676433 
L 484.6875 -131.676433 
L 483.525 -131.676433 
L 482.3625 -131.676433 
L 481.2 -131.676433 
L 480.0375 -131.676433 
L 478.875 -131.676433 
L 477.7125 -131.676433 
L 476.55 -131.676433 
L 475.3875 -131.676433 
L 474.225 -131.676433 
L 473.0625 -131.676433 
L 471.9 -131.676433 
L 470.7375 -131.676433 
L 469.575 -131.676433 
L 468.4125 -131.676433 
L 467.25 -131.676433 
L 466.0875 -131.676433 
L 464.925 -131.676433 
L 463.7625 -131.676433 
L 462.6 -131.676433 
L 461.4375 -131.676433 
L 460.275 -131.676433 
L 459.1125 -131.676433 
L 457.95 -131.676433 
L 456.7875 -131.676433 
L 455.625 -131.676433 
L 454.4625 -131.676433 
L 453.3 -131.676433 
L 452.1375 -131.676433 
L 450.975 -131.676433 
L 449.8125 -131.676433 
L 448.65 -131.676433 
L 447.4875 -131.676433 
L 446.325 -131.676433 
L 445.1625 -131.676433 
L 444 -131.676433 
L 442.8375 -131.676433 
L 441.675 -131.676433 
L 440.5125 -131.676433 
L 439.35 -131.676433 
L 438.1875 -131.676433 
L 437.025 -131.676433 
L 435.8625 -131.676433 
L 434.7 -131.676433 
L 433.5375 -131.676433 
L 432.375 -131.676433 
L 431.2125 -131.676433 
L 430.05 -131.676433 
L 428.8875 -131.676433 
L 427.725 -131.676433 
L 426.5625 -131.676433 
L 425.4 -131.676433 
L 424.2375 -131.676433 
L 423.075 -131.676433 
L 421.9125 -131.676433 
L 420.75 -131.676433 
L 419.5875 -131.676433 
L 418.425 -131.676433 
L 417.2625 -131.676433 
L 416.1 -131.676433 
L 414.9375 -131.676433 
L 413.775 -131.676433 
L 412.6125 -131.676433 
L 411.45 -131.676433 
L 410.2875 -131.676433 
L 409.125 -131.676433 
L 407.9625 -131.676433 
L 406.8 -131.676433 
L 405.6375 -131.676433 
L 404.475 -131.676433 
L 403.3125 -131.676433 
L 402.15 -131.676433 
L 400.9875 -131.676433 
L 399.825 -131.676433 
L 398.6625 -131.676433 
L 397.5 -131.676433 
L 396.3375 -131.676433 
L 395.175 -131.676433 
L 394.0125 -131.676433 
L 392.85 -131.676433 
L 391.6875 -131.676433 
L 390.525 -131.676433 
L 389.3625 -131.676433 
L 388.2 -131.676433 
L 387.0375 -131.676433 
L 385.875 -131.676433 
L 384.7125 -131.676433 
L 383.55 -131.676433 
L 382.3875 -131.676433 
L 381.225 -131.676433 
L 380.0625 -131.676433 
L 378.9 -131.676433 
L 377.7375 -131.676433 
L 376.575 -131.676433 
L 375.4125 -131.676433 
L 374.25 -131.676433 
L 373.0875 -131.676433 
L 371.925 -131.676433 
L 370.7625 -131.676433 
L 369.6 -131.676433 
L 368.4375 -131.676433 
L 367.275 -131.676433 
L 366.1125 -131.676433 
L 364.95 -131.676433 
L 363.7875 -131.676433 
L 362.625 -131.676433 
L 361.4625 -131.676433 
L 360.3 -131.676433 
L 359.1375 -131.676433 
L 357.975 -131.676433 
L 356.8125 -131.676433 
L 355.65 -131.676433 
L 354.4875 -131.676433 
L 353.325 -131.676433 
L 352.1625 -131.676433 
L 351 -131.676433 
L 349.8375 -131.676433 
L 348.675 -131.676433 
L 347.5125 -131.676433 
L 346.35 -131.676433 
L 345.1875 -131.676433 
L 344.025 -131.676433 
L 342.8625 -131.676433 
L 341.7 -131.676433 
L 340.5375 -131.676433 
L 339.375 -131.676433 
L 338.2125 -131.676433 
L 337.05 -131.676433 
L 335.8875 -131.676433 
L 334.725 -131.676433 
L 333.5625 -131.676433 
L 332.4 -131.676433 
L 331.2375 -131.676433 
L 330.075 -131.676433 
L 328.9125 -131.676433 
L 327.75 -131.676433 
L 326.5875 -131.676433 
L 325.425 -131.676433 
L 324.2625 -131.676433 
L 323.1 -131.676433 
L 321.9375 -131.676433 
L 320.775 -131.676433 
L 319.6125 -131.676433 
L 318.45 -131.676433 
L 317.2875 -131.676433 
L 316.125 -131.676433 
L 314.9625 -131.676433 
L 313.8 -131.676433 
L 312.6375 -131.676433 
L 311.475 -131.676433 
L 310.3125 -131.676433 
L 309.15 -131.676433 
L 307.9875 -131.676433 
L 306.825 -131.676433 
L 305.6625 -131.676433 
L 304.5 -131.676433 
L 303.3375 -131.676433 
L 302.175 -131.676433 
L 301.0125 -131.676433 
L 299.85 -131.676433 
L 298.6875 -131.676433 
L 297.525 -131.676433 
L 296.3625 -131.676433 
L 295.2 -131.676433 
L 294.0375 -131.676433 
L 292.875 -131.676433 
L 291.7125 -131.676433 
L 290.55 -131.676433 
L 289.3875 -131.676433 
L 288.225 -131.676433 
L 287.0625 -131.676433 
L 285.9 -131.676433 
L 284.7375 -131.676433 
L 283.575 -131.676433 
L 282.4125 -131.676433 
L 281.25 -131.676433 
L 280.0875 -131.676433 
L 278.925 -131.676433 
L 277.7625 -131.676433 
L 276.6 -131.676433 
L 275.4375 -131.676433 
L 274.275 -131.676433 
L 273.1125 -131.676433 
L 271.95 -131.676433 
L 270.7875 -131.676433 
L 269.625 -131.676433 
L 268.4625 -131.676433 
L 267.3 -131.676433 
L 266.1375 -131.676433 
L 264.975 -131.676433 
L 263.8125 -131.676433 
L 262.65 -131.676433 
L 261.4875 -131.676433 
L 260.325 -131.676433 
L 259.1625 -131.676433 
L 258 -131.676433 
L 256.8375 -131.676433 
L 255.675 -131.676433 
L 254.5125 -131.676433 
L 253.35 -131.676433 
L 252.1875 -131.676433 
L 251.025 -131.676433 
L 249.8625 -131.676433 
L 248.7 -131.676433 
L 247.5375 -131.676433 
L 246.375 -131.676433 
L 245.2125 -131.676433 
L 244.05 -131.676433 
L 242.8875 -131.676433 
L 241.725 -131.676433 
L 240.5625 -131.676433 
L 239.4 -131.676433 
L 238.2375 -131.676433 
L 237.075 -131.676433 
L 235.9125 -131.676433 
L 234.75 -131.676433 
L 233.5875 -131.676433 
L 232.425 -131.676433 
L 231.2625 -131.676433 
L 230.1 -131.676433 
L 228.9375 -131.676433 
L 227.775 -131.676433 
L 226.6125 -131.676433 
L 225.45 -131.676433 
L 224.2875 -131.676433 
L 223.125 -131.676433 
L 221.9625 -131.676433 
L 220.8 -131.676433 
L 219.6375 -131.676433 
L 218.475 -131.676433 
L 217.3125 -131.676433 
L 216.15 -131.676433 
L 214.9875 -131.676433 
L 213.825 -131.676433 
L 212.6625 -131.676433 
L 211.5 -131.676433 
L 210.3375 -131.676433 
L 209.175 -131.676433 
L 208.0125 -131.676433 
L 206.85 -131.676433 
L 205.6875 -131.676433 
L 204.525 -131.676433 
L 203.3625 -131.676433 
L 202.2 -131.676433 
L 201.0375 -131.676433 
L 199.875 -131.676433 
L 198.7125 -131.676433 
L 197.55 -131.676433 
L 196.3875 -131.676433 
L 195.225 -131.676433 
L 194.0625 -131.676433 
L 192.9 -131.676433 
L 191.7375 -131.676433 
L 190.575 -131.676433 
L 189.4125 -131.676433 
L 188.25 -131.676433 
L 187.0875 -131.676433 
L 185.925 -131.676433 
L 184.7625 -131.676433 
L 183.6 -131.676433 
L 182.4375 -131.676433 
L 181.275 -131.676433 
L 180.1125 -131.676433 
L 178.95 -131.676433 
L 177.7875 -131.676433 
L 176.625 -131.676433 
L 175.4625 -131.676433 
L 174.3 -131.676433 
L 173.1375 -131.676433 
L 171.975 -131.676433 
L 170.8125 -131.676433 
L 169.65 -131.676433 
L 168.4875 -131.676433 
L 167.325 -131.676433 
L 166.1625 -131.676433 
L 165 -131.676433 
L 163.8375 -131.676433 
L 162.675 -131.676433 
L 161.5125 -131.676433 
L 160.35 -131.676433 
L 159.1875 -131.676433 
L 158.025 -131.676433 
L 156.8625 -131.676433 
L 155.7 -131.676433 
L 154.5375 -131.676433 
L 153.375 -131.676433 
L 152.2125 -131.676433 
L 151.05 -131.676433 
L 149.8875 -131.676433 
L 148.725 -131.676433 
L 147.5625 -131.676433 
L 146.4 -131.676433 
L 145.2375 -131.676433 
L 144.075 -131.676433 
L 142.9125 -131.676433 
L 141.75 -131.676433 
L 140.5875 -131.676433 
L 139.425 -131.676433 
L 138.2625 -131.676433 
L 137.1 -131.676433 
L 135.9375 -131.676433 
L 134.775 -131.676433 
L 133.6125 -131.676433 
L 132.45 -131.676433 
L 131.2875 -131.676433 
L 130.125 -131.676433 
L 128.9625 -131.676433 
L 127.8 -131.676433 
L 126.6375 -131.676433 
L 125.475 -131.676433 
L 124.3125 -131.676433 
L 123.15 -131.676433 
L 121.9875 -131.676433 
L 120.825 -131.676433 
L 119.6625 -131.676433 
L 118.5 -131.676433 
L 117.3375 -131.676433 
L 116.175 -131.676433 
L 115.0125 -131.676433 
L 113.85 -131.676433 
L 112.6875 -131.676433 
L 111.525 -131.676433 
L 110.3625 -131.676433 
L 109.2 -131.676433 
L 108.0375 -131.676433 
L 106.875 -131.676433 
L 105.7125 -131.676433 
L 104.55 -131.676433 
L 103.3875 -131.676433 
L 102.225 -131.676433 
L 101.0625 -131.676433 
L 99.9 -131.676433 
L 98.7375 -131.676433 
L 97.575 -131.676433 
L 96.4125 -131.676433 
L 95.25 -131.676433 
L 94.0875 -131.676433 
L 92.925 -131.676433 
L 91.7625 -131.676433 
L 90.6 -131.676433 
L 89.4375 -131.676433 
L 88.275 -131.676433 
L 87.1125 -131.676433 
L 85.95 -131.676433 
L 84.7875 -131.676433 
L 83.625 -131.676433 
L 82.4625 -131.676433 
L 81.3 -131.676433 
L 80.1375 -131.676433 
L 78.975 -131.676433 
L 77.8125 -131.676433 
L 76.65 -131.676433 
L 75.4875 -131.676433 
L 74.325 -131.676433 
L 73.1625 -131.676433 
L 72 -131.676433 
z
" id="m0d41dde396"/>
    </defs>
    <g clip-path="url(#p6a85860c61)">
     <use style="fill-opacity:0.15;" x="0" xlink:href="#m0d41dde396" y="360"/>
    </g>
   </g>
   <g id="matplotlib.axis_1">
    <g id="xtick_1">
     <g id="line2d_1">
      <defs>
       <path d="M 0 0 
L 0 3.5 
" id="ma81b7b7a44" style="stroke:#000000;stroke-width:0.8;"/>
      </defs>
      <g>
       <use style="stroke:#000000;stroke-width:0.8;" x="72" xlink:href="#ma81b7b7a44" y="320.4"/>
      </g>
     </g>
     <g id="text_1">
      <!-- 0.0 -->
      <g transform="translate(60.867812 338.037813)scale(0.14 -0.14)">
       <defs>
        <path d="M 2034 4250 
Q 1547 4250 1301 3770 
Q 1056 3291 1056 2328 
Q 1056 1369 1301 889 
Q 1547 409 2034 409 
Q 2525 409 2770 889 
Q 3016 1369 3016 2328 
Q 3016 3291 2770 3770 
Q 2525 4250 2034 4250 
z
M 2034 4750 
Q 2819 4750 3233 4129 
Q 3647 3509 3647 2328 
Q 3647 1150 3233 529 
Q 2819 -91 2034 -91 
Q 1250 -91 836 529 
Q 422 1150 422 2328 
Q 422 3509 836 4129 
Q 1250 4750 2034 4750 
z
" id="DejaVuSans-30" transform="scale(0.015625)"/>
        <path d="M 684 794 
L 1344 794 
L 1344 0 
L 684 0 
L 684 794 
z
" id="DejaVuSans-2e" transform="scale(0.015625)"/>
       </defs>
       <use xlink:href="#DejaVuSans-30"/>
       <use x="63.623047" xlink:href="#DejaVuSans-2e"/>
       <use x="95.410156" xlink:href="#DejaVuSans-30"/>
      </g>
     </g>
    </g>
    <g id="xtick_2">
     <g id="line2d_2">
      <g>
       <use style="stroke:#000000;stroke-width:0.8;" x="127.850265" xlink:href="#ma81b7b7a44" y="320.4"/>
      </g>
     </g>
     <g id="text_2">
      <!-- 2.5 -->
      <g transform="translate(116.718078 338.037813)scale(0.14 -0.14)">
       <defs>
        <path d="M 1228 531 
L 3431 531 
L 3431 0 
L 469 0 
L 469 531 
Q 828 903 1448 1529 
Q 2069 2156 2228 2338 
Q 2531 2678 2651 2914 
Q 2772 3150 2772 3378 
Q 2772 3750 2511 3984 
Q 2250 4219 1831 4219 
Q 1534 4219 1204 4116 
Q 875 4013 500 3803 
L 500 4441 
Q 881 4594 1212 4672 
Q 1544 4750 1819 4750 
Q 2544 4750 2975 4387 
Q 3406 4025 3406 3419 
Q 3406 3131 3298 2873 
Q 3191 2616 2906 2266 
Q 2828 2175 2409 1742 
Q 1991 1309 1228 531 
z
" id="DejaVuSans-32" transform="scale(0.015625)"/>
        <path d="M 691 4666 
L 3169 4666 
L 3169 4134 
L 1269 4134 
L 1269 2991 
Q 1406 3038 1543 3061 
Q 1681 3084 1819 3084 
Q 2600 3084 3056 2656 
Q 3513 2228 3513 1497 
Q 3513 744 3044 326 
Q 2575 -91 1722 -91 
Q 1428 -91 1123 -41 
Q 819 9 494 109 
L 494 744 
Q 775 591 1075 516 
Q 1375 441 1709 441 
Q 2250 441 2565 725 
Q 2881 1009 2881 1497 
Q 2881 1984 2565 2268 
Q 2250 2553 1709 2553 
Q 1456 2553 1204 2497 
Q 953 2441 691 2322 
L 691 4666 
z
" id="DejaVuSans-35" transform="scale(0.015625)"/>
       </defs>
       <use xlink:href="#DejaVuSans-32"/>
       <use x="63.623047" xlink:href="#DejaVuSans-2e"/>
       <use x="95.410156" xlink:href="#DejaVuSans-35"/>
      </g>
     </g>
    </g>
    <g id="xtick_3">
     <g id="line2d_3">
      <g>
       <use style="stroke:#000000;stroke-width:0.8;" x="183.70053" xlink:href="#ma81b7b7a44" y="320.4"/>
      </g>
     </g>
     <g id="text_3">
      <!-- 5.0 -->
      <g transform="translate(172.568343 338.037813)scale(0.14 -0.14)">
       <use xlink:href="#DejaVuSans-35"/>
       <use x="63.623047" xlink:href="#DejaVuSans-2e"/>
       <use x="95.410156" xlink:href="#DejaVuSans-30"/>
      </g>
     </g>
    </g>
    <g id="xtick_4">
     <g id="line2d_4">
      <g>
       <use style="stroke:#000000;stroke-width:0.8;" x="239.550796" xlink:href="#ma81b7b7a44" y="320.4"/>
      </g>
     </g>
     <g id="text_4">
      <!-- 7.5 -->
      <g transform="translate(228.418608 338.037813)scale(0.14 -0.14)">
       <defs>
        <path d="M 525 4666 
L 3525 4666 
L 3525 4397 
L 1831 0 
L 1172 0 
L 2766 4134 
L 525 4134 
L 525 4666 
z
" id="DejaVuSans-37" transform="scale(0.015625)"/>
       </defs>
       <use xlink:href="#DejaVuSans-37"/>
       <use x="63.623047" xlink:href="#DejaVuSans-2e"/>
       <use x="95.410156" xlink:href="#DejaVuSans-35"/>
      </g>
     </g>
    </g>
    <g id="xtick_5">
     <g id="line2d_5">
      <g>
       <use style="stroke:#000000;stroke-width:0.8;" x="295.401061" xlink:href="#ma81b7b7a44" y="320.4"/>
      </g>
     </g>
     <g id="text_5">
      <!-- 10.0 -->
      <g transform="translate(279.815123 338.037813)scale(0.14 -0.14)">
       <defs>
        <path d="M 794 531 
L 1825 531 
L 1825 4091 
L 703 3866 
L 703 4441 
L 1819 4666 
L 2450 4666 
L 2450 531 
L 3481 531 
L 3481 0 
L 794 0 
L 794 531 
z
" id="DejaVuSans-31" transform="scale(0.015625)"/>
       </defs>
       <use xlink:href="#DejaVuSans-31"/>
       <use x="63.623047" xlink:href="#DejaVuSans-30"/>
       <use x="127.246094" xlink:href="#DejaVuSans-2e"/>
       <use x="159.033203" xlink:href="#DejaVuSans-30"/>
      </g>
     </g>
    </g>
    <g id="xtick_6">
     <g id="line2d_6">
      <g>
       <use style="stroke:#000000;stroke-width:0.8;" x="351.251326" xlink:href="#ma81b7b7a44" y="320.4"/>
      </g>
     </g>
     <g id="text_6">
      <!-- 12.5 -->
      <g transform="translate(335.665389 338.037813)scale(0.14 -0.14)">
       <use xlink:href="#DejaVuSans-31"/>
       <use x="63.623047" xlink:href="#DejaVuSans-32"/>
       <use x="127.246094" xlink:href="#DejaVuSans-2e"/>
       <use x="159.033203" xlink:href="#DejaVuSans-35"/>
      </g>
     </g>
    </g>
    <g id="xtick_7">
     <g id="line2d_7">
      <g>
       <use style="stroke:#000000;stroke-width:0.8;" x="407.101591" xlink:href="#ma81b7b7a44" y="320.4"/>
      </g>
     </g>
     <g id="text_7">
      <!-- 15.0 -->
      <g transform="translate(391.515654 338.037813)scale(0.14 -0.14)">
       <use xlink:href="#DejaVuSans-31"/>
       <use x="63.623047" xlink:href="#DejaVuSans-35"/>
       <use x="127.246094" xlink:href="#DejaVuSans-2e"/>
       <use x="159.033203" xlink:href="#DejaVuSans-30"/>
      </g>
     </g>
    </g>
    <g id="xtick_8">
     <g id="line2d_8">
      <g>
       <use style="stroke:#000000;stroke-width:0.8;" x="462.951857" xlink:href="#ma81b7b7a44" y="320.4"/>
      </g>
     </g>
     <g id="text_8">
      <!-- 17.5 -->
      <g transform="translate(447.365919 338.037813)scale(0.14 -0.14)">
       <use xlink:href="#DejaVuSans-31"/>
       <use x="63.623047" xlink:href="#DejaVuSans-37"/>
       <use x="127.246094" xlink:href="#DejaVuSans-2e"/>
       <use x="159.033203" xlink:href="#DejaVuSans-35"/>
      </g>
     </g>
    </g>
    <g id="text_9">
     <!-- Time [Seconds] -->
     <g transform="translate(233.23 357.106875)scale(0.16 -0.16)">
      <defs>
       <path d="M -19 4666 
L 3928 4666 
L 3928 4134 
L 2272 4134 
L 2272 0 
L 1638 0 
L 1638 4134 
L -19 4134 
L -19 4666 
z
" id="DejaVuSans-54" transform="scale(0.015625)"/>
       <path d="M 603 3500 
L 1178 3500 
L 1178 0 
L 603 0 
L 603 3500 
z
M 603 4863 
L 1178 4863 
L 1178 4134 
L 603 4134 
L 603 4863 
z
" id="DejaVuSans-69" transform="scale(0.015625)"/>
       <path d="M 3328 2828 
Q 3544 3216 3844 3400 
Q 4144 3584 4550 3584 
Q 5097 3584 5394 3201 
Q 5691 2819 5691 2113 
L 5691 0 
L 5113 0 
L 5113 2094 
Q 5113 2597 4934 2840 
Q 4756 3084 4391 3084 
Q 3944 3084 3684 2787 
Q 3425 2491 3425 1978 
L 3425 0 
L 2847 0 
L 2847 2094 
Q 2847 2600 2669 2842 
Q 2491 3084 2119 3084 
Q 1678 3084 1418 2786 
Q 1159 2488 1159 1978 
L 1159 0 
L 581 0 
L 581 3500 
L 1159 3500 
L 1159 2956 
Q 1356 3278 1631 3431 
Q 1906 3584 2284 3584 
Q 2666 3584 2933 3390 
Q 3200 3197 3328 2828 
z
" id="DejaVuSans-6d" transform="scale(0.015625)"/>
       <path d="M 3597 1894 
L 3597 1613 
L 953 1613 
Q 991 1019 1311 708 
Q 1631 397 2203 397 
Q 2534 397 2845 478 
Q 3156 559 3463 722 
L 3463 178 
Q 3153 47 2828 -22 
Q 2503 -91 2169 -91 
Q 1331 -91 842 396 
Q 353 884 353 1716 
Q 353 2575 817 3079 
Q 1281 3584 2069 3584 
Q 2775 3584 3186 3129 
Q 3597 2675 3597 1894 
z
M 3022 2063 
Q 3016 2534 2758 2815 
Q 2500 3097 2075 3097 
Q 1594 3097 1305 2825 
Q 1016 2553 972 2059 
L 3022 2063 
z
" id="DejaVuSans-65" transform="scale(0.015625)"/>
       <path id="DejaVuSans-20" transform="scale(0.015625)"/>
       <path d="M 550 4863 
L 1875 4863 
L 1875 4416 
L 1125 4416 
L 1125 -397 
L 1875 -397 
L 1875 -844 
L 550 -844 
L 550 4863 
z
" id="DejaVuSans-5b" transform="scale(0.015625)"/>
       <path d="M 3425 4513 
L 3425 3897 
Q 3066 4069 2747 4153 
Q 2428 4238 2131 4238 
Q 1616 4238 1336 4038 
Q 1056 3838 1056 3469 
Q 1056 3159 1242 3001 
Q 1428 2844 1947 2747 
L 2328 2669 
Q 3034 2534 3370 2195 
Q 3706 1856 3706 1288 
Q 3706 609 3251 259 
Q 2797 -91 1919 -91 
Q 1588 -91 1214 -16 
Q 841 59 441 206 
L 441 856 
Q 825 641 1194 531 
Q 1563 422 1919 422 
Q 2459 422 2753 634 
Q 3047 847 3047 1241 
Q 3047 1584 2836 1778 
Q 2625 1972 2144 2069 
L 1759 2144 
Q 1053 2284 737 2584 
Q 422 2884 422 3419 
Q 422 4038 858 4394 
Q 1294 4750 2059 4750 
Q 2388 4750 2728 4690 
Q 3069 4631 3425 4513 
z
" id="DejaVuSans-53" transform="scale(0.015625)"/>
       <path d="M 3122 3366 
L 3122 2828 
Q 2878 2963 2633 3030 
Q 2388 3097 2138 3097 
Q 1578 3097 1268 2742 
Q 959 2388 959 1747 
Q 959 1106 1268 751 
Q 1578 397 2138 397 
Q 2388 397 2633 464 
Q 2878 531 3122 666 
L 3122 134 
Q 2881 22 2623 -34 
Q 2366 -91 2075 -91 
Q 1284 -91 818 406 
Q 353 903 353 1747 
Q 353 2603 823 3093 
Q 1294 3584 2113 3584 
Q 2378 3584 2631 3529 
Q 2884 3475 3122 3366 
z
" id="DejaVuSans-63" transform="scale(0.015625)"/>
       <path d="M 1959 3097 
Q 1497 3097 1228 2736 
Q 959 2375 959 1747 
Q 959 1119 1226 758 
Q 1494 397 1959 397 
Q 2419 397 2687 759 
Q 2956 1122 2956 1747 
Q 2956 2369 2687 2733 
Q 2419 3097 1959 3097 
z
M 1959 3584 
Q 2709 3584 3137 3096 
Q 3566 2609 3566 1747 
Q 3566 888 3137 398 
Q 2709 -91 1959 -91 
Q 1206 -91 779 398 
Q 353 888 353 1747 
Q 353 2609 779 3096 
Q 1206 3584 1959 3584 
z
" id="DejaVuSans-6f" transform="scale(0.015625)"/>
       <path d="M 3513 2113 
L 3513 0 
L 2938 0 
L 2938 2094 
Q 2938 2591 2744 2837 
Q 2550 3084 2163 3084 
Q 1697 3084 1428 2787 
Q 1159 2491 1159 1978 
L 1159 0 
L 581 0 
L 581 3500 
L 1159 3500 
L 1159 2956 
Q 1366 3272 1645 3428 
Q 1925 3584 2291 3584 
Q 2894 3584 3203 3211 
Q 3513 2838 3513 2113 
z
" id="DejaVuSans-6e" transform="scale(0.015625)"/>
       <path d="M 2906 2969 
L 2906 4863 
L 3481 4863 
L 3481 0 
L 2906 0 
L 2906 525 
Q 2725 213 2448 61 
Q 2172 -91 1784 -91 
Q 1150 -91 751 415 
Q 353 922 353 1747 
Q 353 2572 751 3078 
Q 1150 3584 1784 3584 
Q 2172 3584 2448 3432 
Q 2725 3281 2906 2969 
z
M 947 1747 
Q 947 1113 1208 752 
Q 1469 391 1925 391 
Q 2381 391 2643 752 
Q 2906 1113 2906 1747 
Q 2906 2381 2643 2742 
Q 2381 3103 1925 3103 
Q 1469 3103 1208 2742 
Q 947 2381 947 1747 
z
" id="DejaVuSans-64" transform="scale(0.015625)"/>
       <path d="M 2834 3397 
L 2834 2853 
Q 2591 2978 2328 3040 
Q 2066 3103 1784 3103 
Q 1356 3103 1142 2972 
Q 928 2841 928 2578 
Q 928 2378 1081 2264 
Q 1234 2150 1697 2047 
L 1894 2003 
Q 2506 1872 2764 1633 
Q 3022 1394 3022 966 
Q 3022 478 2636 193 
Q 2250 -91 1575 -91 
Q 1294 -91 989 -36 
Q 684 19 347 128 
L 347 722 
Q 666 556 975 473 
Q 1284 391 1588 391 
Q 1994 391 2212 530 
Q 2431 669 2431 922 
Q 2431 1156 2273 1281 
Q 2116 1406 1581 1522 
L 1381 1569 
Q 847 1681 609 1914 
Q 372 2147 372 2553 
Q 372 3047 722 3315 
Q 1072 3584 1716 3584 
Q 2034 3584 2315 3537 
Q 2597 3491 2834 3397 
z
" id="DejaVuSans-73" transform="scale(0.015625)"/>
       <path d="M 1947 4863 
L 1947 -844 
L 622 -844 
L 622 -397 
L 1369 -397 
L 1369 4416 
L 622 4416 
L 622 4863 
L 1947 4863 
z
" id="DejaVuSans-5d" transform="scale(0.015625)"/>
      </defs>
      <use xlink:href="#DejaVuSans-54"/>
      <use x="57.958984" xlink:href="#DejaVuSans-69"/>
      <use x="85.742188" xlink:href="#DejaVuSans-6d"/>
      <use x="183.154297" xlink:href="#DejaVuSans-65"/>
      <use x="244.677734" xlink:href="#DejaVuSans-20"/>
      <use x="276.464844" xlink:href="#DejaVuSans-5b"/>
      <use x="315.478516" xlink:href="#DejaVuSans-53"/>
      <use x="378.955078" xlink:href="#DejaVuSans-65"/>
      <use x="440.478516" xlink:href="#DejaVuSans-63"/>
      <use x="495.458984" xlink:href="#DejaVuSans-6f"/>
      <use x="556.640625" xlink:href="#DejaVuSans-6e"/>
      <use x="620.019531" xlink:href="#DejaVuSans-64"/>
      <use x="683.496094" xlink:href="#DejaVuSans-73"/>
      <use x="735.595703" xlink:href="#DejaVuSans-5d"/>
     </g>
    </g>
   </g>
   <g id="matplotlib.axis_2">
    <g id="ytick_1">
     <g id="line2d_9">
      <defs>
       <path d="M 0 0 
L -3.5 0 
" id="m349235b123" style="stroke:#000000;stroke-width:0.8;"/>
      </defs>
      <g>
       <use style="stroke:#000000;stroke-width:0.8;" x="72" xlink:href="#m349235b123" y="306.433728"/>
      </g>
     </g>
     <g id="text_10">
      <!-- 0.0 -->
      <g transform="translate(42.735625 311.752634)scale(0.14 -0.14)">
       <use xlink:href="#DejaVuSans-30"/>
       <use x="63.623047" xlink:href="#DejaVuSans-2e"/>
       <use x="95.410156" xlink:href="#DejaVuSans-30"/>
      </g>
     </g>
    </g>
    <g id="ytick_2">
     <g id="line2d_10">
      <g>
       <use style="stroke:#000000;stroke-width:0.8;" x="72" xlink:href="#m349235b123" y="273.403406"/>
      </g>
     </g>
     <g id="text_11">
      <!-- 0.2 -->
      <g transform="translate(42.735625 278.722312)scale(0.14 -0.14)">
       <use xlink:href="#DejaVuSans-30"/>
       <use x="63.623047" xlink:href="#DejaVuSans-2e"/>
       <use x="95.410156" xlink:href="#DejaVuSans-32"/>
      </g>
     </g>
    </g>
    <g id="ytick_3">
     <g id="line2d_11">
      <g>
       <use style="stroke:#000000;stroke-width:0.8;" x="72" xlink:href="#m349235b123" y="240.373083"/>
      </g>
     </g>
     <g id="text_12">
      <!-- 0.4 -->
      <g transform="translate(42.735625 245.691989)scale(0.14 -0.14)">
       <defs>
        <path d="M 2419 4116 
L 825 1625 
L 2419 1625 
L 2419 4116 
z
M 2253 4666 
L 3047 4666 
L 3047 1625 
L 3713 1625 
L 3713 1100 
L 3047 1100 
L 3047 0 
L 2419 0 
L 2419 1100 
L 313 1100 
L 313 1709 
L 2253 4666 
z
" id="DejaVuSans-34" transform="scale(0.015625)"/>
       </defs>
       <use xlink:href="#DejaVuSans-30"/>
       <use x="63.623047" xlink:href="#DejaVuSans-2e"/>
       <use x="95.410156" xlink:href="#DejaVuSans-34"/>
      </g>
     </g>
    </g>
    <g id="ytick_4">
     <g id="line2d_12">
      <g>
       <use style="stroke:#000000;stroke-width:0.8;" x="72" xlink:href="#m349235b123" y="207.34276"/>
      </g>
     </g>
     <g id="text_13">
      <!-- 0.6 -->
      <g transform="translate(42.735625 212.661667)scale(0.14 -0.14)">
       <defs>
        <path d="M 2113 2584 
Q 1688 2584 1439 2293 
Q 1191 2003 1191 1497 
Q 1191 994 1439 701 
Q 1688 409 2113 409 
Q 2538 409 2786 701 
Q 3034 994 3034 1497 
Q 3034 2003 2786 2293 
Q 2538 2584 2113 2584 
z
M 3366 4563 
L 3366 3988 
Q 3128 4100 2886 4159 
Q 2644 4219 2406 4219 
Q 1781 4219 1451 3797 
Q 1122 3375 1075 2522 
Q 1259 2794 1537 2939 
Q 1816 3084 2150 3084 
Q 2853 3084 3261 2657 
Q 3669 2231 3669 1497 
Q 3669 778 3244 343 
Q 2819 -91 2113 -91 
Q 1303 -91 875 529 
Q 447 1150 447 2328 
Q 447 3434 972 4092 
Q 1497 4750 2381 4750 
Q 2619 4750 2861 4703 
Q 3103 4656 3366 4563 
z
" id="DejaVuSans-36" transform="scale(0.015625)"/>
       </defs>
       <use xlink:href="#DejaVuSans-30"/>
       <use x="63.623047" xlink:href="#DejaVuSans-2e"/>
       <use x="95.410156" xlink:href="#DejaVuSans-36"/>
      </g>
     </g>
    </g>
    <g id="ytick_5">
     <g id="line2d_13">
      <g>
       <use style="stroke:#000000;stroke-width:0.8;" x="72" xlink:href="#m349235b123" y="174.312438"/>
      </g>
     </g>
     <g id="text_14">
      <!-- 0.8 -->
      <g transform="translate(42.735625 179.631344)scale(0.14 -0.14)">
       <defs>
        <path d="M 2034 2216 
Q 1584 2216 1326 1975 
Q 1069 1734 1069 1313 
Q 1069 891 1326 650 
Q 1584 409 2034 409 
Q 2484 409 2743 651 
Q 3003 894 3003 1313 
Q 3003 1734 2745 1975 
Q 2488 2216 2034 2216 
z
M 1403 2484 
Q 997 2584 770 2862 
Q 544 3141 544 3541 
Q 544 4100 942 4425 
Q 1341 4750 2034 4750 
Q 2731 4750 3128 4425 
Q 3525 4100 3525 3541 
Q 3525 3141 3298 2862 
Q 3072 2584 2669 2484 
Q 3125 2378 3379 2068 
Q 3634 1759 3634 1313 
Q 3634 634 3220 271 
Q 2806 -91 2034 -91 
Q 1263 -91 848 271 
Q 434 634 434 1313 
Q 434 1759 690 2068 
Q 947 2378 1403 2484 
z
M 1172 3481 
Q 1172 3119 1398 2916 
Q 1625 2713 2034 2713 
Q 2441 2713 2670 2916 
Q 2900 3119 2900 3481 
Q 2900 3844 2670 4047 
Q 2441 4250 2034 4250 
Q 1625 4250 1398 4047 
Q 1172 3844 1172 3481 
z
" id="DejaVuSans-38" transform="scale(0.015625)"/>
       </defs>
       <use xlink:href="#DejaVuSans-30"/>
       <use x="63.623047" xlink:href="#DejaVuSans-2e"/>
       <use x="95.410156" xlink:href="#DejaVuSans-38"/>
      </g>
     </g>
    </g>
    <g id="ytick_6">
     <g id="line2d_14">
      <g>
       <use style="stroke:#000000;stroke-width:0.8;" x="72" xlink:href="#m349235b123" y="141.282115"/>
      </g>
     </g>
     <g id="text_15">
      <!-- 1.0 -->
      <g transform="translate(42.735625 146.601022)scale(0.14 -0.14)">
       <use xlink:href="#DejaVuSans-31"/>
       <use x="63.623047" xlink:href="#DejaVuSans-2e"/>
       <use x="95.410156" xlink:href="#DejaVuSans-30"/>
      </g>
     </g>
    </g>
    <g id="ytick_7">
     <g id="line2d_15">
      <g>
       <use style="stroke:#000000;stroke-width:0.8;" x="72" xlink:href="#m349235b123" y="108.251793"/>
      </g>
     </g>
     <g id="text_16">
      <!-- 1.2 -->
      <g transform="translate(42.735625 113.570699)scale(0.14 -0.14)">
       <use xlink:href="#DejaVuSans-31"/>
       <use x="63.623047" xlink:href="#DejaVuSans-2e"/>
       <use x="95.410156" xlink:href="#DejaVuSans-32"/>
      </g>
     </g>
    </g>
    <g id="ytick_8">
     <g id="line2d_16">
      <g>
       <use style="stroke:#000000;stroke-width:0.8;" x="72" xlink:href="#m349235b123" y="75.22147"/>
      </g>
     </g>
     <g id="text_17">
      <!-- 1.4 -->
      <g transform="translate(42.735625 80.540376)scale(0.14 -0.14)">
       <use xlink:href="#DejaVuSans-31"/>
       <use x="63.623047" xlink:href="#DejaVuSans-2e"/>
       <use x="95.410156" xlink:href="#DejaVuSans-34"/>
      </g>
     </g>
    </g>
    <g id="text_18">
     <!-- Speed [mm/s] -->
     <g transform="translate(35.408125 238.11375)rotate(-90)scale(0.16 -0.16)">
      <defs>
       <path d="M 1159 525 
L 1159 -1331 
L 581 -1331 
L 581 3500 
L 1159 3500 
L 1159 2969 
Q 1341 3281 1617 3432 
Q 1894 3584 2278 3584 
Q 2916 3584 3314 3078 
Q 3713 2572 3713 1747 
Q 3713 922 3314 415 
Q 2916 -91 2278 -91 
Q 1894 -91 1617 61 
Q 1341 213 1159 525 
z
M 3116 1747 
Q 3116 2381 2855 2742 
Q 2594 3103 2138 3103 
Q 1681 3103 1420 2742 
Q 1159 2381 1159 1747 
Q 1159 1113 1420 752 
Q 1681 391 2138 391 
Q 2594 391 2855 752 
Q 3116 1113 3116 1747 
z
" id="DejaVuSans-70" transform="scale(0.015625)"/>
       <path d="M 1625 4666 
L 2156 4666 
L 531 -594 
L 0 -594 
L 1625 4666 
z
" id="DejaVuSans-2f" transform="scale(0.015625)"/>
      </defs>
      <use xlink:href="#DejaVuSans-53"/>
      <use x="63.476562" xlink:href="#DejaVuSans-70"/>
      <use x="126.953125" xlink:href="#DejaVuSans-65"/>
      <use x="188.476562" xlink:href="#DejaVuSans-65"/>
      <use x="250" xlink:href="#DejaVuSans-64"/>
      <use x="313.476562" xlink:href="#DejaVuSans-20"/>
      <use x="345.263672" xlink:href="#DejaVuSans-5b"/>
      <use x="384.277344" xlink:href="#DejaVuSans-6d"/>
      <use x="481.689453" xlink:href="#DejaVuSans-6d"/>
      <use x="579.101562" xlink:href="#DejaVuSans-2f"/>
      <use x="612.792969" xlink:href="#DejaVuSans-73"/>
      <use x="664.892578" xlink:href="#DejaVuSans-5d"/>
     </g>
    </g>
   </g>
   <g id="line2d_17">
    <path clip-path="url(#p6a85860c61)" d="M 72 223.284772 
L 518.4 223.284772 
" style="fill:none;stroke:#000000;stroke-dasharray:5.55,2.4;stroke-dashoffset:0;stroke-width:1.5;"/>
   </g>
   <g id="line2d_18">
    <path clip-path="url(#p6a85860c61)" d="M 72 301.703096 
L 128.9625 301.618077 
L 130.125 302.085207 
L 131.2875 300.274849 
L 132.45 299.257768 
L 133.6125 300.90667 
L 135.9375 307.8 
L 138.2625 301.238809 
L 139.425 302.068815 
L 140.5875 299.981384 
L 141.75 280.433682 
L 142.9125 243.535637 
L 144.075 202.255046 
L 146.4 107.800762 
L 147.5625 76.893822 
L 148.725 56.950107 
L 149.8875 55.8 
L 151.05 70.925291 
L 152.2125 92.971134 
L 153.375 121.309796 
L 154.5375 153.22888 
L 155.7 181.80876 
L 156.8625 199.819914 
L 158.025 200.805539 
L 159.1875 195.297858 
L 160.35 193.812253 
L 161.5125 198.351861 
L 162.675 200.022551 
L 163.8375 200.419802 
L 165 205.919624 
L 166.1625 206.669821 
L 167.325 206.660034 
L 168.4875 208.67472 
L 169.65 206.58607 
L 171.975 213.022777 
L 173.1375 213.135107 
L 174.3 216.227485 
L 175.4625 217.961653 
L 176.625 219.127167 
L 177.7875 217.660131 
L 178.95 216.497989 
L 180.1125 216.929232 
L 181.275 215.642624 
L 182.4375 216.439178 
L 183.6 216.152608 
L 184.7625 213.32145 
L 185.925 214.976348 
L 187.0875 219.991336 
L 188.25 219.734746 
L 189.4125 222.184745 
L 190.575 226.854279 
L 191.7375 228.000871 
L 192.9 228.385747 
L 195.225 223.564889 
L 196.3875 219.035694 
L 197.55 218.918021 
L 198.7125 220.929064 
L 199.875 220.212875 
L 201.0375 222.275338 
L 202.2 222.210799 
L 203.3625 219.867061 
L 204.525 221.109458 
L 205.6875 223.769864 
L 206.85 224.579306 
L 208.0125 224.134532 
L 209.175 220.516694 
L 210.3375 221.365688 
L 211.5 223.389958 
L 212.6625 218.451483 
L 213.825 220.386704 
L 214.9875 225.614664 
L 216.15 226.336677 
L 217.3125 223.682273 
L 218.475 222.828732 
L 219.6375 224.525371 
L 220.8 224.382704 
L 221.9625 226.649849 
L 223.125 226.296413 
L 225.45 215.6548 
L 226.6125 216.899375 
L 227.775 219.516933 
L 228.9375 221.121952 
L 230.1 225.01837 
L 231.2625 229.719522 
L 232.425 231.27436 
L 233.5875 226.901428 
L 234.75 224.102091 
L 235.9125 223.386057 
L 237.075 224.107953 
L 238.2375 221.405901 
L 239.4 217.72309 
L 240.5625 219.464304 
L 242.8875 224.733973 
L 244.05 228.101416 
L 245.2125 230.60719 
L 246.375 226.367425 
L 247.5375 223.893342 
L 248.7 225.058711 
L 249.8625 223.614776 
L 253.35 221.540804 
L 254.5125 221.358613 
L 255.675 223.20379 
L 256.8375 224.498564 
L 258 224.721071 
L 260.325 224.176989 
L 261.4875 226.110947 
L 262.65 227.229002 
L 263.8125 227.185331 
L 264.975 226.796381 
L 266.1375 225.992368 
L 268.4625 223.853171 
L 269.625 222.75921 
L 270.7875 222.107444 
L 271.95 222.003127 
L 273.1125 222.10128 
L 274.275 222.477779 
L 275.4375 223.53789 
L 276.6 226.375427 
L 277.7625 227.291013 
L 278.925 224.235675 
L 280.0875 223.695049 
L 281.25 224.655989 
L 282.4125 224.411684 
L 284.7375 224.475359 
L 285.9 224.416323 
L 288.225 224.924295 
L 289.3875 224.538774 
L 290.55 225.211399 
L 292.875 223.51836 
L 294.0375 224.74562 
L 297.525 225.511081 
L 298.6875 225.433309 
L 299.85 225.240865 
L 301.0125 226.419615 
L 302.175 223.427588 
L 303.3375 221.030892 
L 304.5 225.617293 
L 305.6625 225.089901 
L 306.825 223.946062 
L 307.9875 227.253639 
L 309.15 227.575948 
L 310.3125 227.113172 
L 311.475 228.384516 
L 312.6375 226.74931 
L 313.8 224.670452 
L 314.9625 224.115744 
L 316.125 222.560391 
L 317.2875 221.666402 
L 318.45 221.489512 
L 319.6125 221.782085 
L 320.775 222.84263 
L 321.9375 226.691661 
L 323.1 224.490643 
L 324.2625 219.982661 
L 325.425 224.409129 
L 326.5875 227.512136 
L 327.75 224.700063 
L 328.9125 224.977008 
L 330.075 227.401045 
L 331.2375 228.305485 
L 332.4 229.043396 
L 333.5625 228.211275 
L 335.8875 225.494895 
L 338.2125 221.915211 
L 339.375 220.971826 
L 340.5375 220.650047 
L 341.7 220.822593 
L 342.8625 223.134555 
L 344.025 224.493922 
L 345.1875 222.475544 
L 346.35 223.544504 
L 347.5125 228.328519 
L 348.675 226.107369 
L 349.8375 223.143697 
L 351 224.680658 
L 353.325 224.95599 
L 354.4875 224.563732 
L 355.65 225.066296 
L 356.8125 225.884908 
L 357.975 222.893674 
L 359.1375 222.332807 
L 360.3 225.585151 
L 361.4625 226.846799 
L 362.625 227.269999 
L 364.95 227.060178 
L 366.1125 226.508668 
L 367.275 225.449648 
L 368.4375 223.972994 
L 369.6 224.651054 
L 370.7625 222.859323 
L 371.925 219.153582 
L 373.0875 220.759016 
L 374.25 223.701501 
L 375.4125 225.582991 
L 376.575 228.317426 
L 377.7375 230.047308 
L 378.9 226.698388 
L 380.0625 224.72862 
L 381.225 225.644295 
L 382.3875 225.598448 
L 383.55 221.582521 
L 384.7125 219.655033 
L 385.875 222.754815 
L 387.0375 224.156513 
L 389.3625 226.445243 
L 390.525 229.447747 
L 391.6875 228.453801 
L 392.85 224.311665 
L 395.175 223.855354 
L 396.3375 222.701157 
L 397.5 222.076377 
L 398.6625 222.222489 
L 399.825 222.630614 
L 400.9875 223.373417 
L 402.15 225.410847 
L 403.3125 227.913586 
L 404.475 225.04466 
L 405.6375 223.260469 
L 406.8 224.964554 
L 407.9625 226.318624 
L 410.2875 221.021549 
L 411.45 225.697467 
L 412.6125 226.914174 
L 413.775 224.652609 
L 414.9375 225.839361 
L 416.1 230.009358 
L 417.2625 227.647606 
L 418.425 224.874899 
L 419.5875 228.536659 
L 420.75 228.215387 
L 421.9125 224.228605 
L 423.075 223.663432 
L 424.2375 226.571803 
L 426.5625 220.996618 
L 427.725 226.117387 
L 428.8875 227.866177 
L 430.05 223.508331 
L 431.2125 222.945473 
L 432.375 226.864046 
L 433.5375 226.415191 
L 434.7 222.845461 
L 435.8625 222.537351 
L 437.025 226.410296 
L 438.1875 221.605522 
L 439.35 217.746734 
L 440.5125 223.024764 
L 441.675 225.558117 
L 442.8375 221.500829 
L 444 220.238033 
L 445.1625 228.096128 
L 446.325 227.750696 
L 447.4875 223.663764 
L 448.65 227.91877 
L 449.8125 228.444339 
L 450.975 226.978528 
L 452.1375 227.82257 
L 453.3 226.161675 
L 456.7875 222.410255 
L 457.95 222.812083 
L 459.1125 221.035753 
L 460.275 219.782201 
L 461.4375 221.704166 
L 462.6 225.058472 
L 463.7625 224.093534 
L 464.925 222.125166 
L 466.0875 226.160945 
L 467.25 227.491493 
L 468.4125 224.470347 
L 469.575 223.715522 
L 470.7375 224.744239 
L 471.9 225.207462 
L 473.0625 224.790273 
L 474.225 223.964427 
L 475.3875 224.700666 
L 476.55 225.14594 
L 477.7125 225.281469 
L 478.875 225.057507 
L 481.2 225.117579 
L 483.525 224.471643 
L 484.6875 224.532369 
L 485.85 224.393054 
L 487.0125 224.087385 
L 489.3375 224.34042 
L 491.6625 224.738607 
L 492.825 225.442438 
L 493.9875 224.978857 
L 495.15 224.304976 
L 496.3125 224.601005 
L 497.475 224.507394 
L 500.9625 224.692488 
L 503.2875 224.615485 
L 504.45 224.54905 
L 505.6125 224.806647 
L 506.775 224.781471 
L 507.9375 224.501243 
L 511.425 224.530018 
L 516.075 224.66152 
L 517.2375 224.560112 
L 518.4 224.331974 
L 518.4 224.331974 
" style="fill:none;stroke:#ff0000;stroke-linecap:square;stroke-width:2;"/>
   </g>
   <g id="patch_3">
    <path d="M 72 320.4 
L 72 43.2 
" style="fill:none;stroke:#000000;stroke-linecap:square;stroke-linejoin:miter;stroke-width:0.8;"/>
   </g>
   <g id="patch_4">
    <path d="M 518.4 320.4 
L 518.4 43.2 
" style="fill:none;stroke:#000000;stroke-linecap:square;stroke-linejoin:miter;stroke-width:0.8;"/>
   </g>
   <g id="patch_5">
    <path d="M 72 320.4 
L 518.4 320.4 
" style="fill:none;stroke:#000000;stroke-linecap:square;stroke-linejoin:miter;stroke-width:0.8;"/>
   </g>
   <g id="patch_6">
    <path d="M 72 43.2 
L 518.4 43.2 
" style="fill:none;stroke:#000000;stroke-linecap:square;stroke-linejoin:miter;stroke-width:0.8;"/>
   </g>
   <g id="text_19">
    <!-- Front Propogation Speed -->
    <g transform="translate(172.245312 37.2)scale(0.2 -0.2)">
     <defs>
      <path d="M 628 4666 
L 3309 4666 
L 3309 4134 
L 1259 4134 
L 1259 2759 
L 3109 2759 
L 3109 2228 
L 1259 2228 
L 1259 0 
L 628 0 
L 628 4666 
z
" id="DejaVuSans-46" transform="scale(0.015625)"/>
      <path d="M 2631 2963 
Q 2534 3019 2420 3045 
Q 2306 3072 2169 3072 
Q 1681 3072 1420 2755 
Q 1159 2438 1159 1844 
L 1159 0 
L 581 0 
L 581 3500 
L 1159 3500 
L 1159 2956 
Q 1341 3275 1631 3429 
Q 1922 3584 2338 3584 
Q 2397 3584 2469 3576 
Q 2541 3569 2628 3553 
L 2631 2963 
z
" id="DejaVuSans-72" transform="scale(0.015625)"/>
      <path d="M 1172 4494 
L 1172 3500 
L 2356 3500 
L 2356 3053 
L 1172 3053 
L 1172 1153 
Q 1172 725 1289 603 
Q 1406 481 1766 481 
L 2356 481 
L 2356 0 
L 1766 0 
Q 1100 0 847 248 
Q 594 497 594 1153 
L 594 3053 
L 172 3053 
L 172 3500 
L 594 3500 
L 594 4494 
L 1172 4494 
z
" id="DejaVuSans-74" transform="scale(0.015625)"/>
      <path d="M 1259 4147 
L 1259 2394 
L 2053 2394 
Q 2494 2394 2734 2622 
Q 2975 2850 2975 3272 
Q 2975 3691 2734 3919 
Q 2494 4147 2053 4147 
L 1259 4147 
z
M 628 4666 
L 2053 4666 
Q 2838 4666 3239 4311 
Q 3641 3956 3641 3272 
Q 3641 2581 3239 2228 
Q 2838 1875 2053 1875 
L 1259 1875 
L 1259 0 
L 628 0 
L 628 4666 
z
" id="DejaVuSans-50" transform="scale(0.015625)"/>
      <path d="M 2906 1791 
Q 2906 2416 2648 2759 
Q 2391 3103 1925 3103 
Q 1463 3103 1205 2759 
Q 947 2416 947 1791 
Q 947 1169 1205 825 
Q 1463 481 1925 481 
Q 2391 481 2648 825 
Q 2906 1169 2906 1791 
z
M 3481 434 
Q 3481 -459 3084 -895 
Q 2688 -1331 1869 -1331 
Q 1566 -1331 1297 -1286 
Q 1028 -1241 775 -1147 
L 775 -588 
Q 1028 -725 1275 -790 
Q 1522 -856 1778 -856 
Q 2344 -856 2625 -561 
Q 2906 -266 2906 331 
L 2906 616 
Q 2728 306 2450 153 
Q 2172 0 1784 0 
Q 1141 0 747 490 
Q 353 981 353 1791 
Q 353 2603 747 3093 
Q 1141 3584 1784 3584 
Q 2172 3584 2450 3431 
Q 2728 3278 2906 2969 
L 2906 3500 
L 3481 3500 
L 3481 434 
z
" id="DejaVuSans-67" transform="scale(0.015625)"/>
      <path d="M 2194 1759 
Q 1497 1759 1228 1600 
Q 959 1441 959 1056 
Q 959 750 1161 570 
Q 1363 391 1709 391 
Q 2188 391 2477 730 
Q 2766 1069 2766 1631 
L 2766 1759 
L 2194 1759 
z
M 3341 1997 
L 3341 0 
L 2766 0 
L 2766 531 
Q 2569 213 2275 61 
Q 1981 -91 1556 -91 
Q 1019 -91 701 211 
Q 384 513 384 1019 
Q 384 1609 779 1909 
Q 1175 2209 1959 2209 
L 2766 2209 
L 2766 2266 
Q 2766 2663 2505 2880 
Q 2244 3097 1772 3097 
Q 1472 3097 1187 3025 
Q 903 2953 641 2809 
L 641 3341 
Q 956 3463 1253 3523 
Q 1550 3584 1831 3584 
Q 2591 3584 2966 3190 
Q 3341 2797 3341 1997 
z
" id="DejaVuSans-61" transform="scale(0.015625)"/>
     </defs>
     <use xlink:href="#DejaVuSans-46"/>
     <use x="50.269531" xlink:href="#DejaVuSans-72"/>
     <use x="89.132812" xlink:href="#DejaVuSans-6f"/>
     <use x="150.314453" xlink:href="#DejaVuSans-6e"/>
     <use x="213.693359" xlink:href="#DejaVuSans-74"/>
     <use x="252.902344" xlink:href="#DejaVuSans-20"/>
     <use x="284.689453" xlink:href="#DejaVuSans-50"/>
     <use x="343.242188" xlink:href="#DejaVuSans-72"/>
     <use x="382.105469" xlink:href="#DejaVuSans-6f"/>
     <use x="443.287109" xlink:href="#DejaVuSans-70"/>
     <use x="506.763672" xlink:href="#DejaVuSans-6f"/>
     <use x="567.945312" xlink:href="#DejaVuSans-67"/>
     <use x="631.421875" xlink:href="#DejaVuSans-61"/>
     <use x="692.701172" xlink:href="#DejaVuSans-74"/>
     <use x="731.910156" xlink:href="#DejaVuSans-69"/>
     <use x="759.693359" xlink:href="#DejaVuSans-6f"/>
     <use x="820.875" xlink:href="#DejaVuSans-6e"/>
     <use x="884.253906" xlink:href="#DejaVuSans-20"/>
     <use x="916.041016" xlink:href="#DejaVuSans-53"/>
     <use x="979.517578" xlink:href="#DejaVuSans-70"/>
     <use x="1042.994141" xlink:href="#DejaVuSans-65"/>
     <use x="1104.517578" xlink:href="#DejaVuSans-65"/>
     <use x="1166.041016" xlink:href="#DejaVuSans-64"/>
    </g>
   </g>
   <g id="legend_1">
    <g id="patch_7">
     <path d="M 334.875313 111.175687 
L 508.6 111.175687 
Q 511.4 111.175687 511.4 108.375687 
L 511.4 53 
Q 511.4 50.2 508.6 50.2 
L 334.875313 50.2 
Q 332.075312 50.2 332.075312 53 
L 332.075312 108.375687 
Q 332.075312 111.175687 334.875313 111.175687 
z
" style="fill:#ffffff;opacity:0.8;stroke:#cccccc;stroke-linejoin:miter;"/>
    </g>
    <g id="line2d_19">
     <path d="M 337.675313 61.537812 
L 365.675313 61.537812 
" style="fill:none;stroke:#ff0000;stroke-linecap:square;stroke-width:2;"/>
    </g>
    <g id="line2d_20"/>
    <g id="text_20">
     <!-- Front speed -->
     <g transform="translate(376.875313 66.437812)scale(0.14 -0.14)">
      <use xlink:href="#DejaVuSans-46"/>
      <use x="50.269531" xlink:href="#DejaVuSans-72"/>
      <use x="89.132812" xlink:href="#DejaVuSans-6f"/>
      <use x="150.314453" xlink:href="#DejaVuSans-6e"/>
      <use x="213.693359" xlink:href="#DejaVuSans-74"/>
      <use x="252.902344" xlink:href="#DejaVuSans-20"/>
      <use x="284.689453" xlink:href="#DejaVuSans-73"/>
      <use x="336.789062" xlink:href="#DejaVuSans-70"/>
      <use x="400.265625" xlink:href="#DejaVuSans-65"/>
      <use x="461.789062" xlink:href="#DejaVuSans-65"/>
      <use x="523.3125" xlink:href="#DejaVuSans-64"/>
     </g>
    </g>
    <g id="line2d_21">
     <path d="M 337.675313 91.381437 
L 365.675313 91.381437 
" style="fill:none;stroke:#000000;stroke-dasharray:5.55,2.4;stroke-dashoffset:0;stroke-width:1.5;"/>
    </g>
    <g id="line2d_22"/>
    <g id="text_21">
     <!-- Steady state -->
     <g transform="translate(376.875313 86.987187)scale(0.14 -0.14)">
      <defs>
       <path d="M 2059 -325 
Q 1816 -950 1584 -1140 
Q 1353 -1331 966 -1331 
L 506 -1331 
L 506 -850 
L 844 -850 
Q 1081 -850 1212 -737 
Q 1344 -625 1503 -206 
L 1606 56 
L 191 3500 
L 800 3500 
L 1894 763 
L 2988 3500 
L 3597 3500 
L 2059 -325 
z
" id="DejaVuSans-79" transform="scale(0.015625)"/>
      </defs>
      <use xlink:href="#DejaVuSans-53"/>
      <use x="63.476562" xlink:href="#DejaVuSans-74"/>
      <use x="102.685547" xlink:href="#DejaVuSans-65"/>
      <use x="164.208984" xlink:href="#DejaVuSans-61"/>
      <use x="225.488281" xlink:href="#DejaVuSans-64"/>
      <use x="288.964844" xlink:href="#DejaVuSans-79"/>
      <use x="348.144531" xlink:href="#DejaVuSans-20"/>
      <use x="379.931641" xlink:href="#DejaVuSans-73"/>
      <use x="432.03125" xlink:href="#DejaVuSans-74"/>
      <use x="471.240234" xlink:href="#DejaVuSans-61"/>
      <use x="532.519531" xlink:href="#DejaVuSans-74"/>
      <use x="571.728516" xlink:href="#DejaVuSans-65"/>
     </g>
     <!-- speed = 0.5 mm/s -->
     <g transform="translate(376.875313 102.664125)scale(0.14 -0.14)">
      <defs>
       <path d="M 678 2906 
L 4684 2906 
L 4684 2381 
L 678 2381 
L 678 2906 
z
M 678 1631 
L 4684 1631 
L 4684 1100 
L 678 1100 
L 678 1631 
z
" id="DejaVuSans-3d" transform="scale(0.015625)"/>
      </defs>
      <use xlink:href="#DejaVuSans-73"/>
      <use x="52.099609" xlink:href="#DejaVuSans-70"/>
      <use x="115.576172" xlink:href="#DejaVuSans-65"/>
      <use x="177.099609" xlink:href="#DejaVuSans-65"/>
      <use x="238.623047" xlink:href="#DejaVuSans-64"/>
      <use x="302.099609" xlink:href="#DejaVuSans-20"/>
      <use x="333.886719" xlink:href="#DejaVuSans-3d"/>
      <use x="417.675781" xlink:href="#DejaVuSans-20"/>
      <use x="449.462891" xlink:href="#DejaVuSans-30"/>
      <use x="513.085938" xlink:href="#DejaVuSans-2e"/>
      <use x="544.873047" xlink:href="#DejaVuSans-35"/>
      <use x="608.496094" xlink:href="#DejaVuSans-20"/>
      <use x="640.283203" xlink:href="#DejaVuSans-6d"/>
      <use x="737.695312" xlink:href="#DejaVuSans-6d"/>
      <use x="835.107422" xlink:href="#DejaVuSans-2f"/>
      <use x="868.798828" xlink:href="#DejaVuSans-73"/>
     </g>
    </g>
   </g>
  </g>
 </g>
 <defs>
  <clipPath id="p6a85860c61">
   <rect height="277.2" width="446.4" x="72" y="43.2"/>
  </clipPath>
 </defs>
</svg>
