<?xml version="1.0" encoding="utf-8" standalone="no"?>
<!DOCTYPE svg PUBLIC "-//W3C//DTD SVG 1.1//EN"
  "http://www.w3.org/Graphics/SVG/1.1/DTD/svg11.dtd">
<svg height="360pt" version="1.1" viewBox="0 0 576 360" width="576pt" xmlns="http://www.w3.org/2000/svg" xmlns:xlink="http://www.w3.org/1999/xlink">
 <metadata>
  <rdf:RDF xmlns:cc="http://creativecommons.org/ns#" xmlns:dc="http://purl.org/dc/elements/1.1/" xmlns:rdf="http://www.w3.org/1999/02/22-rdf-syntax-ns#">
   <cc:Work>
    <dc:type rdf:resource="http://purl.org/dc/dcmitype/StillImage"/>
    <dc:date>2022-06-30T14:37:37.123223</dc:date>
    <dc:format>image/svg+xml</dc:format>
    <dc:creator>
     <cc:Agent>
      <dc:title>Matplotlib v3.4.3, https://matplotlib.org/</dc:title>
     </cc:Agent>
    </dc:creator>
   </cc:Work>
  </rdf:RDF>
 </metadata>
 <defs>
  <style type="text/css">*{stroke-linecap:butt;stroke-linejoin:round;}</style>
 </defs>
 <g id="figure_1">
  <g id="patch_1">
   <path d="M 0 360 
L 576 360 
L 576 0 
L 0 0 
z
" style="fill:#ffffff;"/>
  </g>
  <g id="axes_1">
   <g id="patch_2">
    <path d="M 72 320.4 
L 518.4 320.4 
L 518.4 43.2 
L 72 43.2 
z
" style="fill:#ffffff;"/>
   </g>
   <g id="PolyCollection_1">
    <defs>
     <path d="M 72 -138.328808 
L 72 -145.768293 
L 72.918519 -145.768293 
L 73.837037 -145.768293 
L 74.755556 -145.768293 
L 75.674074 -145.768293 
L 76.592593 -145.768293 
L 77.511111 -145.768293 
L 78.42963 -145.768293 
L 79.348148 -145.768293 
L 80.266667 -145.768293 
L 81.185185 -145.768293 
L 82.103704 -145.768293 
L 83.022222 -145.768293 
L 83.940741 -145.768293 
L 84.859259 -145.768293 
L 85.777778 -145.768293 
L 86.696296 -145.768293 
L 87.614815 -145.768293 
L 88.533333 -145.768293 
L 89.451852 -145.768293 
L 90.37037 -145.768293 
L 91.288889 -145.768293 
L 92.207407 -145.768293 
L 93.125926 -145.768293 
L 94.044444 -145.768293 
L 94.962963 -145.768293 
L 95.881481 -145.768293 
L 96.8 -145.768293 
L 97.718519 -145.768293 
L 98.637037 -145.768293 
L 99.555556 -145.768293 
L 100.474074 -145.768293 
L 101.392593 -145.768293 
L 102.311111 -145.768293 
L 103.22963 -145.768293 
L 104.148148 -145.768293 
L 105.066667 -145.768293 
L 105.985185 -145.768293 
L 106.903704 -145.768293 
L 107.822222 -145.768293 
L 108.740741 -145.768293 
L 109.659259 -145.768293 
L 110.577778 -145.768293 
L 111.496296 -145.768293 
L 112.414815 -145.768293 
L 113.333333 -145.768293 
L 114.251852 -145.768293 
L 115.17037 -145.768293 
L 116.088889 -145.768293 
L 117.007407 -145.768293 
L 117.925926 -145.768293 
L 118.844444 -145.768293 
L 119.762963 -145.768293 
L 120.681481 -145.768293 
L 121.6 -145.768293 
L 122.518519 -145.768293 
L 123.437037 -145.768293 
L 124.355556 -145.768293 
L 125.274074 -145.768293 
L 126.192593 -145.768293 
L 127.111111 -145.768293 
L 128.02963 -145.768293 
L 128.948148 -145.768293 
L 129.866667 -145.768293 
L 130.785185 -145.768293 
L 131.703704 -145.768293 
L 132.622222 -145.768293 
L 133.540741 -145.768293 
L 134.459259 -145.768293 
L 135.377778 -145.768293 
L 136.296296 -145.768293 
L 137.214815 -145.768293 
L 138.133333 -145.768293 
L 139.051852 -145.768293 
L 139.97037 -145.768293 
L 140.888889 -145.768293 
L 141.807407 -145.768293 
L 142.725926 -145.768293 
L 143.644444 -145.768293 
L 144.562963 -145.768293 
L 145.481481 -145.768293 
L 146.4 -145.768293 
L 147.318519 -145.768293 
L 148.237037 -145.768293 
L 149.155556 -145.768293 
L 150.074074 -145.768293 
L 150.992593 -145.768293 
L 151.911111 -145.768293 
L 152.82963 -145.768293 
L 153.748148 -145.768293 
L 154.666667 -145.768293 
L 155.585185 -145.768293 
L 156.503704 -145.768293 
L 157.422222 -145.768293 
L 158.340741 -145.768293 
L 159.259259 -145.768293 
L 160.177778 -145.768293 
L 161.096296 -145.768293 
L 162.014815 -145.768293 
L 162.933333 -145.768293 
L 163.851852 -145.768293 
L 164.77037 -145.768293 
L 165.688889 -145.768293 
L 166.607407 -145.768293 
L 167.525926 -145.768293 
L 168.444444 -145.768293 
L 169.362963 -145.768293 
L 170.281481 -145.768293 
L 171.2 -145.768293 
L 172.118519 -145.768293 
L 173.037037 -145.768293 
L 173.955556 -145.768293 
L 174.874074 -145.768293 
L 175.792593 -145.768293 
L 176.711111 -145.768293 
L 177.62963 -145.768293 
L 178.548148 -145.768293 
L 179.466667 -145.768293 
L 180.385185 -145.768293 
L 181.303704 -145.768293 
L 182.222222 -145.768293 
L 183.140741 -145.768293 
L 184.059259 -145.768293 
L 184.977778 -145.768293 
L 185.896296 -145.768293 
L 186.814815 -145.768293 
L 187.733333 -145.768293 
L 188.651852 -145.768293 
L 189.57037 -145.768293 
L 190.488889 -145.768293 
L 191.407407 -145.768293 
L 192.325926 -145.768293 
L 193.244444 -145.768293 
L 194.162963 -145.768293 
L 195.081481 -145.768293 
L 196 -145.768293 
L 196.918519 -145.768293 
L 197.837037 -145.768293 
L 198.755556 -145.768293 
L 199.674074 -145.768293 
L 200.592593 -145.768293 
L 201.511111 -145.768293 
L 202.42963 -145.768293 
L 203.348148 -145.768293 
L 204.266667 -145.768293 
L 205.185185 -145.768293 
L 206.103704 -145.768293 
L 207.022222 -145.768293 
L 207.940741 -145.768293 
L 208.859259 -145.768293 
L 209.777778 -145.768293 
L 210.696296 -145.768293 
L 211.614815 -145.768293 
L 212.533333 -145.768293 
L 213.451852 -145.768293 
L 214.37037 -145.768293 
L 215.288889 -145.768293 
L 216.207407 -145.768293 
L 217.125926 -145.768293 
L 218.044444 -145.768293 
L 218.962963 -145.768293 
L 219.881481 -145.768293 
L 220.8 -145.768293 
L 221.718519 -145.768293 
L 222.637037 -145.768293 
L 223.555556 -145.768293 
L 224.474074 -145.768293 
L 225.392593 -145.768293 
L 226.311111 -145.768293 
L 227.22963 -145.768293 
L 228.148148 -145.768293 
L 229.066667 -145.768293 
L 229.985185 -145.768293 
L 230.903704 -145.768293 
L 231.822222 -145.768293 
L 232.740741 -145.768293 
L 233.659259 -145.768293 
L 234.577778 -145.768293 
L 235.496296 -145.768293 
L 236.414815 -145.768293 
L 237.333333 -145.768293 
L 238.251852 -145.768293 
L 239.17037 -145.768293 
L 240.088889 -145.768293 
L 241.007407 -145.768293 
L 241.925926 -145.768293 
L 242.844444 -145.768293 
L 243.762963 -145.768293 
L 244.681481 -145.768293 
L 245.6 -145.768293 
L 246.518519 -145.768293 
L 247.437037 -145.768293 
L 248.355556 -145.768293 
L 249.274074 -145.768293 
L 250.192593 -145.768293 
L 251.111111 -145.768293 
L 252.02963 -145.768293 
L 252.948148 -145.768293 
L 253.866667 -145.768293 
L 254.785185 -145.768293 
L 255.703704 -145.768293 
L 256.622222 -145.768293 
L 257.540741 -145.768293 
L 258.459259 -145.768293 
L 259.377778 -145.768293 
L 260.296296 -145.768293 
L 261.214815 -145.768293 
L 262.133333 -145.768293 
L 263.051852 -145.768293 
L 263.97037 -145.768293 
L 264.888889 -145.768293 
L 265.807407 -145.768293 
L 266.725926 -145.768293 
L 267.644444 -145.768293 
L 268.562963 -145.768293 
L 269.481481 -145.768293 
L 270.4 -145.768293 
L 271.318519 -145.768293 
L 272.237037 -145.768293 
L 273.155556 -145.768293 
L 274.074074 -145.768293 
L 274.992593 -145.768293 
L 275.911111 -145.768293 
L 276.82963 -145.768293 
L 277.748148 -145.768293 
L 278.666667 -145.768293 
L 279.585185 -145.768293 
L 280.503704 -145.768293 
L 281.422222 -145.768293 
L 282.340741 -145.768293 
L 283.259259 -145.768293 
L 284.177778 -145.768293 
L 285.096296 -145.768293 
L 286.014815 -145.768293 
L 286.933333 -145.768293 
L 287.851852 -145.768293 
L 288.77037 -145.768293 
L 289.688889 -145.768293 
L 290.607407 -145.768293 
L 291.525926 -145.768293 
L 292.444444 -145.768293 
L 293.362963 -145.768293 
L 294.281481 -145.768293 
L 295.2 -145.768293 
L 296.118519 -145.768293 
L 297.037037 -145.768293 
L 297.955556 -145.768293 
L 298.874074 -145.768293 
L 299.792593 -145.768293 
L 300.711111 -145.768293 
L 301.62963 -145.768293 
L 302.548148 -145.768293 
L 303.466667 -145.768293 
L 304.385185 -145.768293 
L 305.303704 -145.768293 
L 306.222222 -145.768293 
L 307.140741 -145.768293 
L 308.059259 -145.768293 
L 308.977778 -145.768293 
L 309.896296 -145.768293 
L 310.814815 -145.768293 
L 311.733333 -145.768293 
L 312.651852 -145.768293 
L 313.57037 -145.768293 
L 314.488889 -145.768293 
L 315.407407 -145.768293 
L 316.325926 -145.768293 
L 317.244444 -145.768293 
L 318.162963 -145.768293 
L 319.081481 -145.768293 
L 320 -145.768293 
L 320.918519 -145.768293 
L 321.837037 -145.768293 
L 322.755556 -145.768293 
L 323.674074 -145.768293 
L 324.592593 -145.768293 
L 325.511111 -145.768293 
L 326.42963 -145.768293 
L 327.348148 -145.768293 
L 328.266667 -145.768293 
L 329.185185 -145.768293 
L 330.103704 -145.768293 
L 331.022222 -145.768293 
L 331.940741 -145.768293 
L 332.859259 -145.768293 
L 333.777778 -145.768293 
L 334.696296 -145.768293 
L 335.614815 -145.768293 
L 336.533333 -145.768293 
L 337.451852 -145.768293 
L 338.37037 -145.768293 
L 339.288889 -145.768293 
L 340.207407 -145.768293 
L 341.125926 -145.768293 
L 342.044444 -145.768293 
L 342.962963 -145.768293 
L 343.881481 -145.768293 
L 344.8 -145.768293 
L 345.718519 -145.768293 
L 346.637037 -145.768293 
L 347.555556 -145.768293 
L 348.474074 -145.768293 
L 349.392593 -145.768293 
L 350.311111 -145.768293 
L 351.22963 -145.768293 
L 352.148148 -145.768293 
L 353.066667 -145.768293 
L 353.985185 -145.768293 
L 354.903704 -145.768293 
L 355.822222 -145.768293 
L 356.740741 -145.768293 
L 357.659259 -145.768293 
L 358.577778 -145.768293 
L 359.496296 -145.768293 
L 360.414815 -145.768293 
L 361.333333 -145.768293 
L 362.251852 -145.768293 
L 363.17037 -145.768293 
L 364.088889 -145.768293 
L 365.007407 -145.768293 
L 365.925926 -145.768293 
L 366.844444 -145.768293 
L 367.762963 -145.768293 
L 368.681481 -145.768293 
L 369.6 -145.768293 
L 370.518519 -145.768293 
L 371.437037 -145.768293 
L 372.355556 -145.768293 
L 373.274074 -145.768293 
L 374.192593 -145.768293 
L 375.111111 -145.768293 
L 376.02963 -145.768293 
L 376.948148 -145.768293 
L 377.866667 -145.768293 
L 378.785185 -145.768293 
L 379.703704 -145.768293 
L 380.622222 -145.768293 
L 381.540741 -145.768293 
L 382.459259 -145.768293 
L 383.377778 -145.768293 
L 384.296296 -145.768293 
L 385.214815 -145.768293 
L 386.133333 -145.768293 
L 387.051852 -145.768293 
L 387.97037 -145.768293 
L 388.888889 -145.768293 
L 389.807407 -145.768293 
L 390.725926 -145.768293 
L 391.644444 -145.768293 
L 392.562963 -145.768293 
L 393.481481 -145.768293 
L 394.4 -145.768293 
L 395.318519 -145.768293 
L 396.237037 -145.768293 
L 397.155556 -145.768293 
L 398.074074 -145.768293 
L 398.992593 -145.768293 
L 399.911111 -145.768293 
L 400.82963 -145.768293 
L 401.748148 -145.768293 
L 402.666667 -145.768293 
L 403.585185 -145.768293 
L 404.503704 -145.768293 
L 405.422222 -145.768293 
L 406.340741 -145.768293 
L 407.259259 -145.768293 
L 408.177778 -145.768293 
L 409.096296 -145.768293 
L 410.014815 -145.768293 
L 410.933333 -145.768293 
L 411.851852 -145.768293 
L 412.77037 -145.768293 
L 413.688889 -145.768293 
L 414.607407 -145.768293 
L 415.525926 -145.768293 
L 416.444444 -145.768293 
L 417.362963 -145.768293 
L 418.281481 -145.768293 
L 419.2 -145.768293 
L 420.118519 -145.768293 
L 421.037037 -145.768293 
L 421.955556 -145.768293 
L 422.874074 -145.768293 
L 423.792593 -145.768293 
L 424.711111 -145.768293 
L 425.62963 -145.768293 
L 426.548148 -145.768293 
L 427.466667 -145.768293 
L 428.385185 -145.768293 
L 429.303704 -145.768293 
L 430.222222 -145.768293 
L 431.140741 -145.768293 
L 432.059259 -145.768293 
L 432.977778 -145.768293 
L 433.896296 -145.768293 
L 434.814815 -145.768293 
L 435.733333 -145.768293 
L 436.651852 -145.768293 
L 437.57037 -145.768293 
L 438.488889 -145.768293 
L 439.407407 -145.768293 
L 440.325926 -145.768293 
L 441.244444 -145.768293 
L 442.162963 -145.768293 
L 443.081481 -145.768293 
L 444 -145.768293 
L 444.918519 -145.768293 
L 445.837037 -145.768293 
L 446.755556 -145.768293 
L 447.674074 -145.768293 
L 448.592593 -145.768293 
L 449.511111 -145.768293 
L 450.42963 -145.768293 
L 451.348148 -145.768293 
L 452.266667 -145.768293 
L 453.185185 -145.768293 
L 454.103704 -145.768293 
L 455.022222 -145.768293 
L 455.940741 -145.768293 
L 456.859259 -145.768293 
L 457.777778 -145.768293 
L 458.696296 -145.768293 
L 459.614815 -145.768293 
L 460.533333 -145.768293 
L 461.451852 -145.768293 
L 462.37037 -145.768293 
L 463.288889 -145.768293 
L 464.207407 -145.768293 
L 465.125926 -145.768293 
L 466.044444 -145.768293 
L 466.962963 -145.768293 
L 467.881481 -145.768293 
L 468.8 -145.768293 
L 469.718519 -145.768293 
L 470.637037 -145.768293 
L 471.555556 -145.768293 
L 472.474074 -145.768293 
L 473.392593 -145.768293 
L 474.311111 -145.768293 
L 475.22963 -145.768293 
L 476.148148 -145.768293 
L 477.066667 -145.768293 
L 477.985185 -145.768293 
L 478.903704 -145.768293 
L 479.822222 -145.768293 
L 480.740741 -145.768293 
L 481.659259 -145.768293 
L 482.577778 -145.768293 
L 483.496296 -145.768293 
L 484.414815 -145.768293 
L 485.333333 -145.768293 
L 486.251852 -145.768293 
L 487.17037 -145.768293 
L 488.088889 -145.768293 
L 489.007407 -145.768293 
L 489.925926 -145.768293 
L 490.844444 -145.768293 
L 491.762963 -145.768293 
L 492.681481 -145.768293 
L 493.6 -145.768293 
L 494.518519 -145.768293 
L 495.437037 -145.768293 
L 496.355556 -145.768293 
L 497.274074 -145.768293 
L 498.192593 -145.768293 
L 499.111111 -145.768293 
L 500.02963 -145.768293 
L 500.948148 -145.768293 
L 501.866667 -145.768293 
L 502.785185 -145.768293 
L 503.703704 -145.768293 
L 504.622222 -145.768293 
L 505.540741 -145.768293 
L 506.459259 -145.768293 
L 507.377778 -145.768293 
L 508.296296 -145.768293 
L 509.214815 -145.768293 
L 510.133333 -145.768293 
L 511.051852 -145.768293 
L 511.97037 -145.768293 
L 512.888889 -145.768293 
L 513.807407 -145.768293 
L 514.725926 -145.768293 
L 515.644444 -145.768293 
L 516.562963 -145.768293 
L 517.481481 -145.768293 
L 518.4 -145.768293 
L 518.4 -138.328808 
L 518.4 -138.328808 
L 517.481481 -138.328808 
L 516.562963 -138.328808 
L 515.644444 -138.328808 
L 514.725926 -138.328808 
L 513.807407 -138.328808 
L 512.888889 -138.328808 
L 511.97037 -138.328808 
L 511.051852 -138.328808 
L 510.133333 -138.328808 
L 509.214815 -138.328808 
L 508.296296 -138.328808 
L 507.377778 -138.328808 
L 506.459259 -138.328808 
L 505.540741 -138.328808 
L 504.622222 -138.328808 
L 503.703704 -138.328808 
L 502.785185 -138.328808 
L 501.866667 -138.328808 
L 500.948148 -138.328808 
L 500.02963 -138.328808 
L 499.111111 -138.328808 
L 498.192593 -138.328808 
L 497.274074 -138.328808 
L 496.355556 -138.328808 
L 495.437037 -138.328808 
L 494.518519 -138.328808 
L 493.6 -138.328808 
L 492.681481 -138.328808 
L 491.762963 -138.328808 
L 490.844444 -138.328808 
L 489.925926 -138.328808 
L 489.007407 -138.328808 
L 488.088889 -138.328808 
L 487.17037 -138.328808 
L 486.251852 -138.328808 
L 485.333333 -138.328808 
L 484.414815 -138.328808 
L 483.496296 -138.328808 
L 482.577778 -138.328808 
L 481.659259 -138.328808 
L 480.740741 -138.328808 
L 479.822222 -138.328808 
L 478.903704 -138.328808 
L 477.985185 -138.328808 
L 477.066667 -138.328808 
L 476.148148 -138.328808 
L 475.22963 -138.328808 
L 474.311111 -138.328808 
L 473.392593 -138.328808 
L 472.474074 -138.328808 
L 471.555556 -138.328808 
L 470.637037 -138.328808 
L 469.718519 -138.328808 
L 468.8 -138.328808 
L 467.881481 -138.328808 
L 466.962963 -138.328808 
L 466.044444 -138.328808 
L 465.125926 -138.328808 
L 464.207407 -138.328808 
L 463.288889 -138.328808 
L 462.37037 -138.328808 
L 461.451852 -138.328808 
L 460.533333 -138.328808 
L 459.614815 -138.328808 
L 458.696296 -138.328808 
L 457.777778 -138.328808 
L 456.859259 -138.328808 
L 455.940741 -138.328808 
L 455.022222 -138.328808 
L 454.103704 -138.328808 
L 453.185185 -138.328808 
L 452.266667 -138.328808 
L 451.348148 -138.328808 
L 450.42963 -138.328808 
L 449.511111 -138.328808 
L 448.592593 -138.328808 
L 447.674074 -138.328808 
L 446.755556 -138.328808 
L 445.837037 -138.328808 
L 444.918519 -138.328808 
L 444 -138.328808 
L 443.081481 -138.328808 
L 442.162963 -138.328808 
L 441.244444 -138.328808 
L 440.325926 -138.328808 
L 439.407407 -138.328808 
L 438.488889 -138.328808 
L 437.57037 -138.328808 
L 436.651852 -138.328808 
L 435.733333 -138.328808 
L 434.814815 -138.328808 
L 433.896296 -138.328808 
L 432.977778 -138.328808 
L 432.059259 -138.328808 
L 431.140741 -138.328808 
L 430.222222 -138.328808 
L 429.303704 -138.328808 
L 428.385185 -138.328808 
L 427.466667 -138.328808 
L 426.548148 -138.328808 
L 425.62963 -138.328808 
L 424.711111 -138.328808 
L 423.792593 -138.328808 
L 422.874074 -138.328808 
L 421.955556 -138.328808 
L 421.037037 -138.328808 
L 420.118519 -138.328808 
L 419.2 -138.328808 
L 418.281481 -138.328808 
L 417.362963 -138.328808 
L 416.444444 -138.328808 
L 415.525926 -138.328808 
L 414.607407 -138.328808 
L 413.688889 -138.328808 
L 412.77037 -138.328808 
L 411.851852 -138.328808 
L 410.933333 -138.328808 
L 410.014815 -138.328808 
L 409.096296 -138.328808 
L 408.177778 -138.328808 
L 407.259259 -138.328808 
L 406.340741 -138.328808 
L 405.422222 -138.328808 
L 404.503704 -138.328808 
L 403.585185 -138.328808 
L 402.666667 -138.328808 
L 401.748148 -138.328808 
L 400.82963 -138.328808 
L 399.911111 -138.328808 
L 398.992593 -138.328808 
L 398.074074 -138.328808 
L 397.155556 -138.328808 
L 396.237037 -138.328808 
L 395.318519 -138.328808 
L 394.4 -138.328808 
L 393.481481 -138.328808 
L 392.562963 -138.328808 
L 391.644444 -138.328808 
L 390.725926 -138.328808 
L 389.807407 -138.328808 
L 388.888889 -138.328808 
L 387.97037 -138.328808 
L 387.051852 -138.328808 
L 386.133333 -138.328808 
L 385.214815 -138.328808 
L 384.296296 -138.328808 
L 383.377778 -138.328808 
L 382.459259 -138.328808 
L 381.540741 -138.328808 
L 380.622222 -138.328808 
L 379.703704 -138.328808 
L 378.785185 -138.328808 
L 377.866667 -138.328808 
L 376.948148 -138.328808 
L 376.02963 -138.328808 
L 375.111111 -138.328808 
L 374.192593 -138.328808 
L 373.274074 -138.328808 
L 372.355556 -138.328808 
L 371.437037 -138.328808 
L 370.518519 -138.328808 
L 369.6 -138.328808 
L 368.681481 -138.328808 
L 367.762963 -138.328808 
L 366.844444 -138.328808 
L 365.925926 -138.328808 
L 365.007407 -138.328808 
L 364.088889 -138.328808 
L 363.17037 -138.328808 
L 362.251852 -138.328808 
L 361.333333 -138.328808 
L 360.414815 -138.328808 
L 359.496296 -138.328808 
L 358.577778 -138.328808 
L 357.659259 -138.328808 
L 356.740741 -138.328808 
L 355.822222 -138.328808 
L 354.903704 -138.328808 
L 353.985185 -138.328808 
L 353.066667 -138.328808 
L 352.148148 -138.328808 
L 351.22963 -138.328808 
L 350.311111 -138.328808 
L 349.392593 -138.328808 
L 348.474074 -138.328808 
L 347.555556 -138.328808 
L 346.637037 -138.328808 
L 345.718519 -138.328808 
L 344.8 -138.328808 
L 343.881481 -138.328808 
L 342.962963 -138.328808 
L 342.044444 -138.328808 
L 341.125926 -138.328808 
L 340.207407 -138.328808 
L 339.288889 -138.328808 
L 338.37037 -138.328808 
L 337.451852 -138.328808 
L 336.533333 -138.328808 
L 335.614815 -138.328808 
L 334.696296 -138.328808 
L 333.777778 -138.328808 
L 332.859259 -138.328808 
L 331.940741 -138.328808 
L 331.022222 -138.328808 
L 330.103704 -138.328808 
L 329.185185 -138.328808 
L 328.266667 -138.328808 
L 327.348148 -138.328808 
L 326.42963 -138.328808 
L 325.511111 -138.328808 
L 324.592593 -138.328808 
L 323.674074 -138.328808 
L 322.755556 -138.328808 
L 321.837037 -138.328808 
L 320.918519 -138.328808 
L 320 -138.328808 
L 319.081481 -138.328808 
L 318.162963 -138.328808 
L 317.244444 -138.328808 
L 316.325926 -138.328808 
L 315.407407 -138.328808 
L 314.488889 -138.328808 
L 313.57037 -138.328808 
L 312.651852 -138.328808 
L 311.733333 -138.328808 
L 310.814815 -138.328808 
L 309.896296 -138.328808 
L 308.977778 -138.328808 
L 308.059259 -138.328808 
L 307.140741 -138.328808 
L 306.222222 -138.328808 
L 305.303704 -138.328808 
L 304.385185 -138.328808 
L 303.466667 -138.328808 
L 302.548148 -138.328808 
L 301.62963 -138.328808 
L 300.711111 -138.328808 
L 299.792593 -138.328808 
L 298.874074 -138.328808 
L 297.955556 -138.328808 
L 297.037037 -138.328808 
L 296.118519 -138.328808 
L 295.2 -138.328808 
L 294.281481 -138.328808 
L 293.362963 -138.328808 
L 292.444444 -138.328808 
L 291.525926 -138.328808 
L 290.607407 -138.328808 
L 289.688889 -138.328808 
L 288.77037 -138.328808 
L 287.851852 -138.328808 
L 286.933333 -138.328808 
L 286.014815 -138.328808 
L 285.096296 -138.328808 
L 284.177778 -138.328808 
L 283.259259 -138.328808 
L 282.340741 -138.328808 
L 281.422222 -138.328808 
L 280.503704 -138.328808 
L 279.585185 -138.328808 
L 278.666667 -138.328808 
L 277.748148 -138.328808 
L 276.82963 -138.328808 
L 275.911111 -138.328808 
L 274.992593 -138.328808 
L 274.074074 -138.328808 
L 273.155556 -138.328808 
L 272.237037 -138.328808 
L 271.318519 -138.328808 
L 270.4 -138.328808 
L 269.481481 -138.328808 
L 268.562963 -138.328808 
L 267.644444 -138.328808 
L 266.725926 -138.328808 
L 265.807407 -138.328808 
L 264.888889 -138.328808 
L 263.97037 -138.328808 
L 263.051852 -138.328808 
L 262.133333 -138.328808 
L 261.214815 -138.328808 
L 260.296296 -138.328808 
L 259.377778 -138.328808 
L 258.459259 -138.328808 
L 257.540741 -138.328808 
L 256.622222 -138.328808 
L 255.703704 -138.328808 
L 254.785185 -138.328808 
L 253.866667 -138.328808 
L 252.948148 -138.328808 
L 252.02963 -138.328808 
L 251.111111 -138.328808 
L 250.192593 -138.328808 
L 249.274074 -138.328808 
L 248.355556 -138.328808 
L 247.437037 -138.328808 
L 246.518519 -138.328808 
L 245.6 -138.328808 
L 244.681481 -138.328808 
L 243.762963 -138.328808 
L 242.844444 -138.328808 
L 241.925926 -138.328808 
L 241.007407 -138.328808 
L 240.088889 -138.328808 
L 239.17037 -138.328808 
L 238.251852 -138.328808 
L 237.333333 -138.328808 
L 236.414815 -138.328808 
L 235.496296 -138.328808 
L 234.577778 -138.328808 
L 233.659259 -138.328808 
L 232.740741 -138.328808 
L 231.822222 -138.328808 
L 230.903704 -138.328808 
L 229.985185 -138.328808 
L 229.066667 -138.328808 
L 228.148148 -138.328808 
L 227.22963 -138.328808 
L 226.311111 -138.328808 
L 225.392593 -138.328808 
L 224.474074 -138.328808 
L 223.555556 -138.328808 
L 222.637037 -138.328808 
L 221.718519 -138.328808 
L 220.8 -138.328808 
L 219.881481 -138.328808 
L 218.962963 -138.328808 
L 218.044444 -138.328808 
L 217.125926 -138.328808 
L 216.207407 -138.328808 
L 215.288889 -138.328808 
L 214.37037 -138.328808 
L 213.451852 -138.328808 
L 212.533333 -138.328808 
L 211.614815 -138.328808 
L 210.696296 -138.328808 
L 209.777778 -138.328808 
L 208.859259 -138.328808 
L 207.940741 -138.328808 
L 207.022222 -138.328808 
L 206.103704 -138.328808 
L 205.185185 -138.328808 
L 204.266667 -138.328808 
L 203.348148 -138.328808 
L 202.42963 -138.328808 
L 201.511111 -138.328808 
L 200.592593 -138.328808 
L 199.674074 -138.328808 
L 198.755556 -138.328808 
L 197.837037 -138.328808 
L 196.918519 -138.328808 
L 196 -138.328808 
L 195.081481 -138.328808 
L 194.162963 -138.328808 
L 193.244444 -138.328808 
L 192.325926 -138.328808 
L 191.407407 -138.328808 
L 190.488889 -138.328808 
L 189.57037 -138.328808 
L 188.651852 -138.328808 
L 187.733333 -138.328808 
L 186.814815 -138.328808 
L 185.896296 -138.328808 
L 184.977778 -138.328808 
L 184.059259 -138.328808 
L 183.140741 -138.328808 
L 182.222222 -138.328808 
L 181.303704 -138.328808 
L 180.385185 -138.328808 
L 179.466667 -138.328808 
L 178.548148 -138.328808 
L 177.62963 -138.328808 
L 176.711111 -138.328808 
L 175.792593 -138.328808 
L 174.874074 -138.328808 
L 173.955556 -138.328808 
L 173.037037 -138.328808 
L 172.118519 -138.328808 
L 171.2 -138.328808 
L 170.281481 -138.328808 
L 169.362963 -138.328808 
L 168.444444 -138.328808 
L 167.525926 -138.328808 
L 166.607407 -138.328808 
L 165.688889 -138.328808 
L 164.77037 -138.328808 
L 163.851852 -138.328808 
L 162.933333 -138.328808 
L 162.014815 -138.328808 
L 161.096296 -138.328808 
L 160.177778 -138.328808 
L 159.259259 -138.328808 
L 158.340741 -138.328808 
L 157.422222 -138.328808 
L 156.503704 -138.328808 
L 155.585185 -138.328808 
L 154.666667 -138.328808 
L 153.748148 -138.328808 
L 152.82963 -138.328808 
L 151.911111 -138.328808 
L 150.992593 -138.328808 
L 150.074074 -138.328808 
L 149.155556 -138.328808 
L 148.237037 -138.328808 
L 147.318519 -138.328808 
L 146.4 -138.328808 
L 145.481481 -138.328808 
L 144.562963 -138.328808 
L 143.644444 -138.328808 
L 142.725926 -138.328808 
L 141.807407 -138.328808 
L 140.888889 -138.328808 
L 139.97037 -138.328808 
L 139.051852 -138.328808 
L 138.133333 -138.328808 
L 137.214815 -138.328808 
L 136.296296 -138.328808 
L 135.377778 -138.328808 
L 134.459259 -138.328808 
L 133.540741 -138.328808 
L 132.622222 -138.328808 
L 131.703704 -138.328808 
L 130.785185 -138.328808 
L 129.866667 -138.328808 
L 128.948148 -138.328808 
L 128.02963 -138.328808 
L 127.111111 -138.328808 
L 126.192593 -138.328808 
L 125.274074 -138.328808 
L 124.355556 -138.328808 
L 123.437037 -138.328808 
L 122.518519 -138.328808 
L 121.6 -138.328808 
L 120.681481 -138.328808 
L 119.762963 -138.328808 
L 118.844444 -138.328808 
L 117.925926 -138.328808 
L 117.007407 -138.328808 
L 116.088889 -138.328808 
L 115.17037 -138.328808 
L 114.251852 -138.328808 
L 113.333333 -138.328808 
L 112.414815 -138.328808 
L 111.496296 -138.328808 
L 110.577778 -138.328808 
L 109.659259 -138.328808 
L 108.740741 -138.328808 
L 107.822222 -138.328808 
L 106.903704 -138.328808 
L 105.985185 -138.328808 
L 105.066667 -138.328808 
L 104.148148 -138.328808 
L 103.22963 -138.328808 
L 102.311111 -138.328808 
L 101.392593 -138.328808 
L 100.474074 -138.328808 
L 99.555556 -138.328808 
L 98.637037 -138.328808 
L 97.718519 -138.328808 
L 96.8 -138.328808 
L 95.881481 -138.328808 
L 94.962963 -138.328808 
L 94.044444 -138.328808 
L 93.125926 -138.328808 
L 92.207407 -138.328808 
L 91.288889 -138.328808 
L 90.37037 -138.328808 
L 89.451852 -138.328808 
L 88.533333 -138.328808 
L 87.614815 -138.328808 
L 86.696296 -138.328808 
L 85.777778 -138.328808 
L 84.859259 -138.328808 
L 83.940741 -138.328808 
L 83.022222 -138.328808 
L 82.103704 -138.328808 
L 81.185185 -138.328808 
L 80.266667 -138.328808 
L 79.348148 -138.328808 
L 78.42963 -138.328808 
L 77.511111 -138.328808 
L 76.592593 -138.328808 
L 75.674074 -138.328808 
L 74.755556 -138.328808 
L 73.837037 -138.328808 
L 72.918519 -138.328808 
L 72 -138.328808 
z
" id="m722ae408e0"/>
    </defs>
    <g clip-path="url(#pb9752f822a)">
     <use style="fill-opacity:0.15;" x="0" xlink:href="#m722ae408e0" y="360"/>
    </g>
   </g>
   <g id="matplotlib.axis_1">
    <g id="xtick_1">
     <g id="line2d_1">
      <defs>
       <path d="M 0 0 
L 0 3.5 
" id="m7e3c738a12" style="stroke:#000000;stroke-width:0.8;"/>
      </defs>
      <g>
       <use style="stroke:#000000;stroke-width:0.8;" x="72" xlink:href="#m7e3c738a12" y="320.4"/>
      </g>
     </g>
     <g id="text_1">
      <!-- 0.0 -->
      <g transform="translate(60.867812 338.037813)scale(0.14 -0.14)">
       <defs>
        <path d="M 2034 4250 
Q 1547 4250 1301 3770 
Q 1056 3291 1056 2328 
Q 1056 1369 1301 889 
Q 1547 409 2034 409 
Q 2525 409 2770 889 
Q 3016 1369 3016 2328 
Q 3016 3291 2770 3770 
Q 2525 4250 2034 4250 
z
M 2034 4750 
Q 2819 4750 3233 4129 
Q 3647 3509 3647 2328 
Q 3647 1150 3233 529 
Q 2819 -91 2034 -91 
Q 1250 -91 836 529 
Q 422 1150 422 2328 
Q 422 3509 836 4129 
Q 1250 4750 2034 4750 
z
" id="DejaVuSans-30" transform="scale(0.015625)"/>
        <path d="M 684 794 
L 1344 794 
L 1344 0 
L 684 0 
L 684 794 
z
" id="DejaVuSans-2e" transform="scale(0.015625)"/>
       </defs>
       <use xlink:href="#DejaVuSans-30"/>
       <use x="63.623047" xlink:href="#DejaVuSans-2e"/>
       <use x="95.410156" xlink:href="#DejaVuSans-30"/>
      </g>
     </g>
    </g>
    <g id="xtick_2">
     <g id="line2d_2">
      <g>
       <use style="stroke:#000000;stroke-width:0.8;" x="127.839087" xlink:href="#m7e3c738a12" y="320.4"/>
      </g>
     </g>
     <g id="text_2">
      <!-- 2.5 -->
      <g transform="translate(116.7069 338.037813)scale(0.14 -0.14)">
       <defs>
        <path d="M 1228 531 
L 3431 531 
L 3431 0 
L 469 0 
L 469 531 
Q 828 903 1448 1529 
Q 2069 2156 2228 2338 
Q 2531 2678 2651 2914 
Q 2772 3150 2772 3378 
Q 2772 3750 2511 3984 
Q 2250 4219 1831 4219 
Q 1534 4219 1204 4116 
Q 875 4013 500 3803 
L 500 4441 
Q 881 4594 1212 4672 
Q 1544 4750 1819 4750 
Q 2544 4750 2975 4387 
Q 3406 4025 3406 3419 
Q 3406 3131 3298 2873 
Q 3191 2616 2906 2266 
Q 2828 2175 2409 1742 
Q 1991 1309 1228 531 
z
" id="DejaVuSans-32" transform="scale(0.015625)"/>
        <path d="M 691 4666 
L 3169 4666 
L 3169 4134 
L 1269 4134 
L 1269 2991 
Q 1406 3038 1543 3061 
Q 1681 3084 1819 3084 
Q 2600 3084 3056 2656 
Q 3513 2228 3513 1497 
Q 3513 744 3044 326 
Q 2575 -91 1722 -91 
Q 1428 -91 1123 -41 
Q 819 9 494 109 
L 494 744 
Q 775 591 1075 516 
Q 1375 441 1709 441 
Q 2250 441 2565 725 
Q 2881 1009 2881 1497 
Q 2881 1984 2565 2268 
Q 2250 2553 1709 2553 
Q 1456 2553 1204 2497 
Q 953 2441 691 2322 
L 691 4666 
z
" id="DejaVuSans-35" transform="scale(0.015625)"/>
       </defs>
       <use xlink:href="#DejaVuSans-32"/>
       <use x="63.623047" xlink:href="#DejaVuSans-2e"/>
       <use x="95.410156" xlink:href="#DejaVuSans-35"/>
      </g>
     </g>
    </g>
    <g id="xtick_3">
     <g id="line2d_3">
      <g>
       <use style="stroke:#000000;stroke-width:0.8;" x="183.678175" xlink:href="#m7e3c738a12" y="320.4"/>
      </g>
     </g>
     <g id="text_3">
      <!-- 5.0 -->
      <g transform="translate(172.545987 338.037813)scale(0.14 -0.14)">
       <use xlink:href="#DejaVuSans-35"/>
       <use x="63.623047" xlink:href="#DejaVuSans-2e"/>
       <use x="95.410156" xlink:href="#DejaVuSans-30"/>
      </g>
     </g>
    </g>
    <g id="xtick_4">
     <g id="line2d_4">
      <g>
       <use style="stroke:#000000;stroke-width:0.8;" x="239.517262" xlink:href="#m7e3c738a12" y="320.4"/>
      </g>
     </g>
     <g id="text_4">
      <!-- 7.5 -->
      <g transform="translate(228.385075 338.037813)scale(0.14 -0.14)">
       <defs>
        <path d="M 525 4666 
L 3525 4666 
L 3525 4397 
L 1831 0 
L 1172 0 
L 2766 4134 
L 525 4134 
L 525 4666 
z
" id="DejaVuSans-37" transform="scale(0.015625)"/>
       </defs>
       <use xlink:href="#DejaVuSans-37"/>
       <use x="63.623047" xlink:href="#DejaVuSans-2e"/>
       <use x="95.410156" xlink:href="#DejaVuSans-35"/>
      </g>
     </g>
    </g>
    <g id="xtick_5">
     <g id="line2d_5">
      <g>
       <use style="stroke:#000000;stroke-width:0.8;" x="295.356349" xlink:href="#m7e3c738a12" y="320.4"/>
      </g>
     </g>
     <g id="text_5">
      <!-- 10.0 -->
      <g transform="translate(279.770412 338.037813)scale(0.14 -0.14)">
       <defs>
        <path d="M 794 531 
L 1825 531 
L 1825 4091 
L 703 3866 
L 703 4441 
L 1819 4666 
L 2450 4666 
L 2450 531 
L 3481 531 
L 3481 0 
L 794 0 
L 794 531 
z
" id="DejaVuSans-31" transform="scale(0.015625)"/>
       </defs>
       <use xlink:href="#DejaVuSans-31"/>
       <use x="63.623047" xlink:href="#DejaVuSans-30"/>
       <use x="127.246094" xlink:href="#DejaVuSans-2e"/>
       <use x="159.033203" xlink:href="#DejaVuSans-30"/>
      </g>
     </g>
    </g>
    <g id="xtick_6">
     <g id="line2d_6">
      <g>
       <use style="stroke:#000000;stroke-width:0.8;" x="351.195437" xlink:href="#m7e3c738a12" y="320.4"/>
      </g>
     </g>
     <g id="text_6">
      <!-- 12.5 -->
      <g transform="translate(335.609499 338.037813)scale(0.14 -0.14)">
       <use xlink:href="#DejaVuSans-31"/>
       <use x="63.623047" xlink:href="#DejaVuSans-32"/>
       <use x="127.246094" xlink:href="#DejaVuSans-2e"/>
       <use x="159.033203" xlink:href="#DejaVuSans-35"/>
      </g>
     </g>
    </g>
    <g id="xtick_7">
     <g id="line2d_7">
      <g>
       <use style="stroke:#000000;stroke-width:0.8;" x="407.034524" xlink:href="#m7e3c738a12" y="320.4"/>
      </g>
     </g>
     <g id="text_7">
      <!-- 15.0 -->
      <g transform="translate(391.448587 338.037813)scale(0.14 -0.14)">
       <use xlink:href="#DejaVuSans-31"/>
       <use x="63.623047" xlink:href="#DejaVuSans-35"/>
       <use x="127.246094" xlink:href="#DejaVuSans-2e"/>
       <use x="159.033203" xlink:href="#DejaVuSans-30"/>
      </g>
     </g>
    </g>
    <g id="xtick_8">
     <g id="line2d_8">
      <g>
       <use style="stroke:#000000;stroke-width:0.8;" x="462.873612" xlink:href="#m7e3c738a12" y="320.4"/>
      </g>
     </g>
     <g id="text_8">
      <!-- 17.5 -->
      <g transform="translate(447.287674 338.037813)scale(0.14 -0.14)">
       <use xlink:href="#DejaVuSans-31"/>
       <use x="63.623047" xlink:href="#DejaVuSans-37"/>
       <use x="127.246094" xlink:href="#DejaVuSans-2e"/>
       <use x="159.033203" xlink:href="#DejaVuSans-35"/>
      </g>
     </g>
    </g>
    <g id="text_9">
     <!-- Time [Seconds] -->
     <g transform="translate(233.23 357.106875)scale(0.16 -0.16)">
      <defs>
       <path d="M -19 4666 
L 3928 4666 
L 3928 4134 
L 2272 4134 
L 2272 0 
L 1638 0 
L 1638 4134 
L -19 4134 
L -19 4666 
z
" id="DejaVuSans-54" transform="scale(0.015625)"/>
       <path d="M 603 3500 
L 1178 3500 
L 1178 0 
L 603 0 
L 603 3500 
z
M 603 4863 
L 1178 4863 
L 1178 4134 
L 603 4134 
L 603 4863 
z
" id="DejaVuSans-69" transform="scale(0.015625)"/>
       <path d="M 3328 2828 
Q 3544 3216 3844 3400 
Q 4144 3584 4550 3584 
Q 5097 3584 5394 3201 
Q 5691 2819 5691 2113 
L 5691 0 
L 5113 0 
L 5113 2094 
Q 5113 2597 4934 2840 
Q 4756 3084 4391 3084 
Q 3944 3084 3684 2787 
Q 3425 2491 3425 1978 
L 3425 0 
L 2847 0 
L 2847 2094 
Q 2847 2600 2669 2842 
Q 2491 3084 2119 3084 
Q 1678 3084 1418 2786 
Q 1159 2488 1159 1978 
L 1159 0 
L 581 0 
L 581 3500 
L 1159 3500 
L 1159 2956 
Q 1356 3278 1631 3431 
Q 1906 3584 2284 3584 
Q 2666 3584 2933 3390 
Q 3200 3197 3328 2828 
z
" id="DejaVuSans-6d" transform="scale(0.015625)"/>
       <path d="M 3597 1894 
L 3597 1613 
L 953 1613 
Q 991 1019 1311 708 
Q 1631 397 2203 397 
Q 2534 397 2845 478 
Q 3156 559 3463 722 
L 3463 178 
Q 3153 47 2828 -22 
Q 2503 -91 2169 -91 
Q 1331 -91 842 396 
Q 353 884 353 1716 
Q 353 2575 817 3079 
Q 1281 3584 2069 3584 
Q 2775 3584 3186 3129 
Q 3597 2675 3597 1894 
z
M 3022 2063 
Q 3016 2534 2758 2815 
Q 2500 3097 2075 3097 
Q 1594 3097 1305 2825 
Q 1016 2553 972 2059 
L 3022 2063 
z
" id="DejaVuSans-65" transform="scale(0.015625)"/>
       <path id="DejaVuSans-20" transform="scale(0.015625)"/>
       <path d="M 550 4863 
L 1875 4863 
L 1875 4416 
L 1125 4416 
L 1125 -397 
L 1875 -397 
L 1875 -844 
L 550 -844 
L 550 4863 
z
" id="DejaVuSans-5b" transform="scale(0.015625)"/>
       <path d="M 3425 4513 
L 3425 3897 
Q 3066 4069 2747 4153 
Q 2428 4238 2131 4238 
Q 1616 4238 1336 4038 
Q 1056 3838 1056 3469 
Q 1056 3159 1242 3001 
Q 1428 2844 1947 2747 
L 2328 2669 
Q 3034 2534 3370 2195 
Q 3706 1856 3706 1288 
Q 3706 609 3251 259 
Q 2797 -91 1919 -91 
Q 1588 -91 1214 -16 
Q 841 59 441 206 
L 441 856 
Q 825 641 1194 531 
Q 1563 422 1919 422 
Q 2459 422 2753 634 
Q 3047 847 3047 1241 
Q 3047 1584 2836 1778 
Q 2625 1972 2144 2069 
L 1759 2144 
Q 1053 2284 737 2584 
Q 422 2884 422 3419 
Q 422 4038 858 4394 
Q 1294 4750 2059 4750 
Q 2388 4750 2728 4690 
Q 3069 4631 3425 4513 
z
" id="DejaVuSans-53" transform="scale(0.015625)"/>
       <path d="M 3122 3366 
L 3122 2828 
Q 2878 2963 2633 3030 
Q 2388 3097 2138 3097 
Q 1578 3097 1268 2742 
Q 959 2388 959 1747 
Q 959 1106 1268 751 
Q 1578 397 2138 397 
Q 2388 397 2633 464 
Q 2878 531 3122 666 
L 3122 134 
Q 2881 22 2623 -34 
Q 2366 -91 2075 -91 
Q 1284 -91 818 406 
Q 353 903 353 1747 
Q 353 2603 823 3093 
Q 1294 3584 2113 3584 
Q 2378 3584 2631 3529 
Q 2884 3475 3122 3366 
z
" id="DejaVuSans-63" transform="scale(0.015625)"/>
       <path d="M 1959 3097 
Q 1497 3097 1228 2736 
Q 959 2375 959 1747 
Q 959 1119 1226 758 
Q 1494 397 1959 397 
Q 2419 397 2687 759 
Q 2956 1122 2956 1747 
Q 2956 2369 2687 2733 
Q 2419 3097 1959 3097 
z
M 1959 3584 
Q 2709 3584 3137 3096 
Q 3566 2609 3566 1747 
Q 3566 888 3137 398 
Q 2709 -91 1959 -91 
Q 1206 -91 779 398 
Q 353 888 353 1747 
Q 353 2609 779 3096 
Q 1206 3584 1959 3584 
z
" id="DejaVuSans-6f" transform="scale(0.015625)"/>
       <path d="M 3513 2113 
L 3513 0 
L 2938 0 
L 2938 2094 
Q 2938 2591 2744 2837 
Q 2550 3084 2163 3084 
Q 1697 3084 1428 2787 
Q 1159 2491 1159 1978 
L 1159 0 
L 581 0 
L 581 3500 
L 1159 3500 
L 1159 2956 
Q 1366 3272 1645 3428 
Q 1925 3584 2291 3584 
Q 2894 3584 3203 3211 
Q 3513 2838 3513 2113 
z
" id="DejaVuSans-6e" transform="scale(0.015625)"/>
       <path d="M 2906 2969 
L 2906 4863 
L 3481 4863 
L 3481 0 
L 2906 0 
L 2906 525 
Q 2725 213 2448 61 
Q 2172 -91 1784 -91 
Q 1150 -91 751 415 
Q 353 922 353 1747 
Q 353 2572 751 3078 
Q 1150 3584 1784 3584 
Q 2172 3584 2448 3432 
Q 2725 3281 2906 2969 
z
M 947 1747 
Q 947 1113 1208 752 
Q 1469 391 1925 391 
Q 2381 391 2643 752 
Q 2906 1113 2906 1747 
Q 2906 2381 2643 2742 
Q 2381 3103 1925 3103 
Q 1469 3103 1208 2742 
Q 947 2381 947 1747 
z
" id="DejaVuSans-64" transform="scale(0.015625)"/>
       <path d="M 2834 3397 
L 2834 2853 
Q 2591 2978 2328 3040 
Q 2066 3103 1784 3103 
Q 1356 3103 1142 2972 
Q 928 2841 928 2578 
Q 928 2378 1081 2264 
Q 1234 2150 1697 2047 
L 1894 2003 
Q 2506 1872 2764 1633 
Q 3022 1394 3022 966 
Q 3022 478 2636 193 
Q 2250 -91 1575 -91 
Q 1294 -91 989 -36 
Q 684 19 347 128 
L 347 722 
Q 666 556 975 473 
Q 1284 391 1588 391 
Q 1994 391 2212 530 
Q 2431 669 2431 922 
Q 2431 1156 2273 1281 
Q 2116 1406 1581 1522 
L 1381 1569 
Q 847 1681 609 1914 
Q 372 2147 372 2553 
Q 372 3047 722 3315 
Q 1072 3584 1716 3584 
Q 2034 3584 2315 3537 
Q 2597 3491 2834 3397 
z
" id="DejaVuSans-73" transform="scale(0.015625)"/>
       <path d="M 1947 4863 
L 1947 -844 
L 622 -844 
L 622 -397 
L 1369 -397 
L 1369 4416 
L 622 4416 
L 622 4863 
L 1947 4863 
z
" id="DejaVuSans-5d" transform="scale(0.015625)"/>
      </defs>
      <use xlink:href="#DejaVuSans-54"/>
      <use x="57.958984" xlink:href="#DejaVuSans-69"/>
      <use x="85.742188" xlink:href="#DejaVuSans-6d"/>
      <use x="183.154297" xlink:href="#DejaVuSans-65"/>
      <use x="244.677734" xlink:href="#DejaVuSans-20"/>
      <use x="276.464844" xlink:href="#DejaVuSans-5b"/>
      <use x="315.478516" xlink:href="#DejaVuSans-53"/>
      <use x="378.955078" xlink:href="#DejaVuSans-65"/>
      <use x="440.478516" xlink:href="#DejaVuSans-63"/>
      <use x="495.458984" xlink:href="#DejaVuSans-6f"/>
      <use x="556.640625" xlink:href="#DejaVuSans-6e"/>
      <use x="620.019531" xlink:href="#DejaVuSans-64"/>
      <use x="683.496094" xlink:href="#DejaVuSans-73"/>
      <use x="735.595703" xlink:href="#DejaVuSans-5d"/>
     </g>
    </g>
   </g>
   <g id="matplotlib.axis_2">
    <g id="ytick_1">
     <g id="line2d_9">
      <defs>
       <path d="M 0 0 
L -3.5 0 
" id="m6a6e154a95" style="stroke:#000000;stroke-width:0.8;"/>
      </defs>
      <g>
       <use style="stroke:#000000;stroke-width:0.8;" x="72" xlink:href="#m6a6e154a95" y="296.89857"/>
      </g>
     </g>
     <g id="text_10">
      <!-- 0.00 -->
      <g transform="translate(33.828125 302.217476)scale(0.14 -0.14)">
       <use xlink:href="#DejaVuSans-30"/>
       <use x="63.623047" xlink:href="#DejaVuSans-2e"/>
       <use x="95.410156" xlink:href="#DejaVuSans-30"/>
       <use x="159.033203" xlink:href="#DejaVuSans-30"/>
      </g>
     </g>
    </g>
    <g id="ytick_2">
     <g id="line2d_10">
      <g>
       <use style="stroke:#000000;stroke-width:0.8;" x="72" xlink:href="#m6a6e154a95" y="260.580893"/>
      </g>
     </g>
     <g id="text_11">
      <!-- 0.25 -->
      <g transform="translate(33.828125 265.899799)scale(0.14 -0.14)">
       <use xlink:href="#DejaVuSans-30"/>
       <use x="63.623047" xlink:href="#DejaVuSans-2e"/>
       <use x="95.410156" xlink:href="#DejaVuSans-32"/>
       <use x="159.033203" xlink:href="#DejaVuSans-35"/>
      </g>
     </g>
    </g>
    <g id="ytick_3">
     <g id="line2d_11">
      <g>
       <use style="stroke:#000000;stroke-width:0.8;" x="72" xlink:href="#m6a6e154a95" y="224.263216"/>
      </g>
     </g>
     <g id="text_12">
      <!-- 0.50 -->
      <g transform="translate(33.828125 229.582122)scale(0.14 -0.14)">
       <use xlink:href="#DejaVuSans-30"/>
       <use x="63.623047" xlink:href="#DejaVuSans-2e"/>
       <use x="95.410156" xlink:href="#DejaVuSans-35"/>
       <use x="159.033203" xlink:href="#DejaVuSans-30"/>
      </g>
     </g>
    </g>
    <g id="ytick_4">
     <g id="line2d_12">
      <g>
       <use style="stroke:#000000;stroke-width:0.8;" x="72" xlink:href="#m6a6e154a95" y="187.94554"/>
      </g>
     </g>
     <g id="text_13">
      <!-- 0.75 -->
      <g transform="translate(33.828125 193.264446)scale(0.14 -0.14)">
       <use xlink:href="#DejaVuSans-30"/>
       <use x="63.623047" xlink:href="#DejaVuSans-2e"/>
       <use x="95.410156" xlink:href="#DejaVuSans-37"/>
       <use x="159.033203" xlink:href="#DejaVuSans-35"/>
      </g>
     </g>
    </g>
    <g id="ytick_5">
     <g id="line2d_13">
      <g>
       <use style="stroke:#000000;stroke-width:0.8;" x="72" xlink:href="#m6a6e154a95" y="151.627863"/>
      </g>
     </g>
     <g id="text_14">
      <!-- 1.00 -->
      <g transform="translate(33.828125 156.946769)scale(0.14 -0.14)">
       <use xlink:href="#DejaVuSans-31"/>
       <use x="63.623047" xlink:href="#DejaVuSans-2e"/>
       <use x="95.410156" xlink:href="#DejaVuSans-30"/>
       <use x="159.033203" xlink:href="#DejaVuSans-30"/>
      </g>
     </g>
    </g>
    <g id="ytick_6">
     <g id="line2d_14">
      <g>
       <use style="stroke:#000000;stroke-width:0.8;" x="72" xlink:href="#m6a6e154a95" y="115.310186"/>
      </g>
     </g>
     <g id="text_15">
      <!-- 1.25 -->
      <g transform="translate(33.828125 120.629092)scale(0.14 -0.14)">
       <use xlink:href="#DejaVuSans-31"/>
       <use x="63.623047" xlink:href="#DejaVuSans-2e"/>
       <use x="95.410156" xlink:href="#DejaVuSans-32"/>
       <use x="159.033203" xlink:href="#DejaVuSans-35"/>
      </g>
     </g>
    </g>
    <g id="ytick_7">
     <g id="line2d_15">
      <g>
       <use style="stroke:#000000;stroke-width:0.8;" x="72" xlink:href="#m6a6e154a95" y="78.992509"/>
      </g>
     </g>
     <g id="text_16">
      <!-- 1.50 -->
      <g transform="translate(33.828125 84.311416)scale(0.14 -0.14)">
       <use xlink:href="#DejaVuSans-31"/>
       <use x="63.623047" xlink:href="#DejaVuSans-2e"/>
       <use x="95.410156" xlink:href="#DejaVuSans-35"/>
       <use x="159.033203" xlink:href="#DejaVuSans-30"/>
      </g>
     </g>
    </g>
    <g id="text_17">
     <!-- Speed [mm/s] -->
     <g transform="translate(26.500625 238.11375)rotate(-90)scale(0.16 -0.16)">
      <defs>
       <path d="M 1159 525 
L 1159 -1331 
L 581 -1331 
L 581 3500 
L 1159 3500 
L 1159 2969 
Q 1341 3281 1617 3432 
Q 1894 3584 2278 3584 
Q 2916 3584 3314 3078 
Q 3713 2572 3713 1747 
Q 3713 922 3314 415 
Q 2916 -91 2278 -91 
Q 1894 -91 1617 61 
Q 1341 213 1159 525 
z
M 3116 1747 
Q 3116 2381 2855 2742 
Q 2594 3103 2138 3103 
Q 1681 3103 1420 2742 
Q 1159 2381 1159 1747 
Q 1159 1113 1420 752 
Q 1681 391 2138 391 
Q 2594 391 2855 752 
Q 3116 1113 3116 1747 
z
" id="DejaVuSans-70" transform="scale(0.015625)"/>
       <path d="M 1625 4666 
L 2156 4666 
L 531 -594 
L 0 -594 
L 1625 4666 
z
" id="DejaVuSans-2f" transform="scale(0.015625)"/>
      </defs>
      <use xlink:href="#DejaVuSans-53"/>
      <use x="63.476562" xlink:href="#DejaVuSans-70"/>
      <use x="126.953125" xlink:href="#DejaVuSans-65"/>
      <use x="188.476562" xlink:href="#DejaVuSans-65"/>
      <use x="250" xlink:href="#DejaVuSans-64"/>
      <use x="313.476562" xlink:href="#DejaVuSans-20"/>
      <use x="345.263672" xlink:href="#DejaVuSans-5b"/>
      <use x="384.277344" xlink:href="#DejaVuSans-6d"/>
      <use x="481.689453" xlink:href="#DejaVuSans-6d"/>
      <use x="579.101562" xlink:href="#DejaVuSans-2f"/>
      <use x="612.792969" xlink:href="#DejaVuSans-73"/>
      <use x="664.892578" xlink:href="#DejaVuSans-5d"/>
     </g>
    </g>
   </g>
   <g id="line2d_16">
    <path clip-path="url(#pb9752f822a)" d="M 72 217.95145 
L 518.4 217.95145 
" style="fill:none;stroke:#000000;stroke-dasharray:5.55,2.4;stroke-dashoffset:0;stroke-width:1.5;"/>
   </g>
   <g id="line2d_17">
    <path clip-path="url(#pb9752f822a)" d="M 72 292.718786 
L 129.866667 292.801678 
L 130.785185 292.514041 
L 131.703704 289.585679 
L 132.622222 290.143307 
L 133.540741 293.742335 
L 134.459259 295.655561 
L 135.377778 297.141559 
L 136.296296 291.783652 
L 137.214815 291.421318 
L 138.133333 301.958989 
L 139.051852 307.8 
L 139.97037 300.990049 
L 140.888889 280.551027 
L 141.807407 249.911775 
L 144.562963 140.097691 
L 145.481481 107.951293 
L 146.4 80.933603 
L 147.318519 61.912878 
L 148.237037 55.8 
L 149.155556 61.655325 
L 150.074074 73.677503 
L 150.992593 94.437792 
L 153.748148 168.300336 
L 154.666667 190.675044 
L 155.585185 202.690386 
L 156.503704 203.73885 
L 157.422222 192.278765 
L 158.340741 185.779343 
L 160.177778 196.091353 
L 161.096296 199.329459 
L 162.014815 200.364461 
L 162.933333 200.938359 
L 163.851852 200.293993 
L 164.77037 202.018744 
L 165.688889 206.215334 
L 166.607407 207.620837 
L 167.525926 208.383469 
L 168.444444 207.418416 
L 169.362963 208.5449 
L 170.281481 210.73576 
L 171.2 209.203911 
L 172.118519 209.899485 
L 173.037037 211.436601 
L 173.955556 210.982104 
L 174.874074 210.888534 
L 175.792593 212.079273 
L 176.711111 212.313149 
L 177.62963 212.328441 
L 178.548148 213.289433 
L 179.466667 212.887108 
L 180.385185 212.302423 
L 181.303704 213.093652 
L 182.222222 213.577734 
L 183.140741 213.925058 
L 184.059259 214.631647 
L 184.977778 216.292129 
L 185.896296 217.143822 
L 186.814815 217.37227 
L 187.733333 218.934483 
L 188.651852 219.818222 
L 190.488889 216.433347 
L 191.407407 215.762286 
L 192.325926 215.761956 
L 193.244444 216.853198 
L 194.162963 217.242504 
L 195.081481 216.841313 
L 196 216.634771 
L 196.918519 215.03249 
L 197.837037 214.553698 
L 199.674074 218.05008 
L 200.592593 217.804516 
L 201.511111 217.278212 
L 202.42963 218.13059 
L 204.266667 217.468408 
L 205.185185 215.850407 
L 206.103704 215.190628 
L 207.022222 215.158631 
L 207.940741 215.600765 
L 208.859259 218.357829 
L 210.696296 218.604984 
L 211.614815 219.99756 
L 213.451852 221.849648 
L 214.37037 220.150693 
L 215.288889 219.25544 
L 216.207407 221.89974 
L 217.125926 222.081189 
L 218.044444 216.925674 
L 218.962963 215.615517 
L 219.881481 217.187911 
L 220.8 217.062652 
L 221.718519 216.316099 
L 222.637037 215.958139 
L 223.555556 216.658357 
L 224.474074 217.686431 
L 225.392593 219.489743 
L 226.311111 218.762328 
L 227.22963 216.139687 
L 228.148148 216.409463 
L 229.066667 218.403357 
L 229.985185 218.352314 
L 230.903704 214.997663 
L 231.822222 215.578141 
L 232.740741 220.079672 
L 233.659259 221.876919 
L 234.577778 221.351082 
L 235.496296 219.315012 
L 236.414815 219.07973 
L 237.333333 221.791004 
L 238.251852 222.856875 
L 239.17037 218.768647 
L 240.088889 219.168882 
L 241.007407 221.024486 
L 241.925926 219.097717 
L 242.844444 218.452373 
L 243.762963 218.466894 
L 244.681481 217.682751 
L 245.6 218.995614 
L 246.518519 222.130467 
L 247.437037 221.35177 
L 248.355556 217.493982 
L 249.274074 217.911954 
L 250.192593 221.290904 
L 251.111111 220.115451 
L 252.02963 215.575838 
L 252.948148 215.920733 
L 253.866667 219.22778 
L 254.785185 219.999245 
L 255.703704 218.351721 
L 256.622222 216.974129 
L 257.540741 217.200211 
L 258.459259 217.573183 
L 259.377778 218.819383 
L 260.296296 216.685773 
L 261.214815 217.372544 
L 262.133333 218.835222 
L 263.051852 218.070381 
L 263.97037 217.763035 
L 265.807407 215.592374 
L 266.725926 216.905151 
L 267.644444 219.30877 
L 269.481481 216.965253 
L 270.4 218.991111 
L 271.318519 220.260804 
L 272.237037 218.419892 
L 273.155556 217.512097 
L 274.074074 219.618474 
L 274.992593 220.496635 
L 275.911111 220.517208 
L 276.82963 219.778814 
L 277.748148 219.201776 
L 278.666667 220.533972 
L 279.585185 219.618205 
L 280.503704 220.679331 
L 281.422222 222.439828 
L 284.177778 220.82753 
L 285.096296 219.718532 
L 286.014815 218.98551 
L 286.933333 218.467191 
L 288.77037 220.132839 
L 289.688889 219.218581 
L 290.607407 218.842577 
L 291.525926 219.658619 
L 293.362963 219.921177 
L 294.281481 220.798447 
L 295.2 220.141279 
L 296.118519 218.84619 
L 297.037037 218.896679 
L 297.955556 218.510041 
L 298.874074 216.813461 
L 299.792593 215.4103 
L 300.711111 214.395525 
L 301.62963 214.970818 
L 302.548148 216.719784 
L 303.466667 217.471291 
L 304.385185 217.888306 
L 305.303704 219.205185 
L 306.222222 218.937586 
L 307.140741 217.0875 
L 308.059259 217.111545 
L 308.977778 220.746143 
L 309.896296 221.320612 
L 310.814815 219.57368 
L 311.733333 217.046937 
L 312.651852 217.32956 
L 313.57037 221.879145 
L 314.488889 222.450474 
L 315.407407 220.907417 
L 316.325926 221.437167 
L 317.244444 221.766429 
L 318.162963 220.197374 
L 319.081481 218.851482 
L 320 218.85676 
L 320.918519 219.549402 
L 321.837037 218.852047 
L 322.755556 216.655279 
L 323.674074 217.457465 
L 324.592593 218.482209 
L 325.511111 216.874885 
L 326.42963 217.425804 
L 327.348148 219.066137 
L 328.266667 218.146119 
L 329.185185 217.396974 
L 330.103704 219.623614 
L 331.022222 220.569099 
L 331.940741 219.99033 
L 332.859259 218.916137 
L 333.777778 218.863707 
L 334.696296 221.776852 
L 335.614815 219.359902 
L 336.533333 217.553085 
L 337.451852 220.239034 
L 338.37037 219.206998 
L 339.288889 216.717413 
L 340.207407 216.399987 
L 341.125926 218.211011 
L 342.044444 218.834797 
L 342.962963 216.613201 
L 343.881481 216.049421 
L 344.8 218.960253 
L 345.718519 218.170205 
L 346.637037 217.018341 
L 347.555556 221.18776 
L 348.474074 224.231355 
L 349.392593 222.943864 
L 350.311111 220.268968 
L 351.22963 220.06252 
L 352.148148 220.834282 
L 353.066667 220.846252 
L 353.985185 219.893884 
L 354.903704 219.899294 
L 355.822222 222.932104 
L 356.740741 222.043364 
L 357.659259 219.471643 
L 358.577778 218.735488 
L 359.496296 217.22663 
L 360.414815 216.448734 
L 361.333333 217.413263 
L 362.251852 221.031214 
L 363.17037 221.595603 
L 364.088889 218.977224 
L 366.844444 215.399104 
L 367.762963 215.068769 
L 368.681481 219.57002 
L 369.6 221.389425 
L 370.518519 219.386381 
L 371.437037 220.233664 
L 372.355556 222.521679 
L 373.274074 221.748005 
L 374.192593 220.002896 
L 375.111111 217.429041 
L 376.02963 216.096016 
L 376.948148 219.259669 
L 377.866667 220.318935 
L 378.785185 220.408619 
L 379.703704 219.020422 
L 380.622222 215.937377 
L 381.540741 214.33179 
L 382.459259 215.390631 
L 385.214815 220.374166 
L 387.051852 222.423531 
L 387.97037 222.555221 
L 388.888889 219.582361 
L 389.807407 219.374207 
L 390.725926 218.43769 
L 391.644444 215.246488 
L 392.562963 217.166138 
L 393.481481 220.509089 
L 394.4 220.581964 
L 395.318519 220.494495 
L 396.237037 218.66004 
L 397.155556 216.050355 
L 398.074074 215.868623 
L 398.992593 217.761233 
L 399.911111 221.225739 
L 400.82963 219.785091 
L 401.748148 219.384005 
L 402.666667 222.046346 
L 403.585185 221.14719 
L 404.503704 218.216768 
L 405.422222 216.909302 
L 407.259259 220.599226 
L 408.177778 220.224029 
L 409.096296 221.076814 
L 410.014815 221.443548 
L 410.933333 221.241744 
L 411.851852 220.050742 
L 412.77037 215.891853 
L 413.688889 216.37736 
L 414.607407 217.054036 
L 415.525926 216.896001 
L 416.444444 219.207399 
L 417.362963 219.8977 
L 418.281481 219.336595 
L 419.2 216.986168 
L 420.118519 217.305255 
L 421.037037 217.782783 
L 421.955556 215.380413 
L 422.874074 216.580441 
L 423.792593 220.676686 
L 424.711111 221.640774 
L 425.62963 221.864026 
L 426.548148 221.892179 
L 427.466667 221.794273 
L 428.385185 220.887814 
L 429.303704 216.413529 
L 430.222222 216.31529 
L 431.140741 219.199644 
L 432.059259 220.402779 
L 432.977778 220.761196 
L 433.896296 219.018128 
L 434.814815 218.726731 
L 435.733333 216.308992 
L 436.651852 214.843231 
L 437.57037 215.8774 
L 438.488889 218.319647 
L 439.407407 219.404685 
L 440.325926 219.178393 
L 441.244444 221.061776 
L 442.162963 222.037497 
L 443.081481 221.372818 
L 444 219.018907 
L 444.918519 218.425877 
L 445.837037 218.932525 
L 446.755556 218.5654 
L 448.592593 220.875092 
L 449.511111 220.629633 
L 450.42963 219.320964 
L 451.348148 216.960737 
L 452.266667 217.457644 
L 453.185185 217.158394 
L 454.103704 217.809041 
L 455.022222 220.897086 
L 455.940741 221.090868 
L 456.859259 220.598366 
L 457.777778 220.779955 
L 458.696296 218.342614 
L 459.614815 216.427315 
L 461.451852 213.811612 
L 462.37037 215.892627 
L 463.288889 219.75045 
L 464.207407 222.210975 
L 466.044444 222.13583 
L 466.962963 221.567629 
L 467.881481 217.454899 
L 468.8 216.836727 
L 469.718519 219.542776 
L 470.637037 220.620188 
L 471.555556 221.104432 
L 473.392593 218.765109 
L 475.22963 213.517522 
L 476.148148 215.883725 
L 477.066667 217.095061 
L 477.985185 218.030829 
L 478.903704 221.537721 
L 480.740741 222.136489 
L 481.659259 221.253177 
L 482.577778 218.099931 
L 483.496296 219.005229 
L 484.414815 220.196028 
L 485.333333 217.73292 
L 486.251852 217.063696 
L 487.17037 219.526095 
L 488.088889 219.987525 
L 489.007407 215.27665 
L 489.925926 215.594802 
L 490.844444 218.223943 
L 491.762963 217.707228 
L 492.681481 217.856276 
L 494.518519 222.421424 
L 495.437037 222.436924 
L 496.355556 222.247436 
L 497.274074 222.728253 
L 498.192593 219.342279 
L 499.111111 217.181757 
L 500.02963 219.7241 
L 500.948148 218.40547 
L 501.866667 218.35204 
L 502.785185 217.96401 
L 503.703704 218.374156 
L 504.622222 219.172726 
L 505.540741 218.106537 
L 506.459259 215.802012 
L 508.296296 215.940867 
L 509.214815 216.319958 
L 510.133333 217.041503 
L 513.807407 220.841187 
L 514.725926 221.01498 
L 515.644444 220.325823 
L 516.562963 218.422117 
L 517.481481 214.909205 
L 518.4 209.349375 
L 518.4 209.349375 
" style="fill:none;stroke:#ff0000;stroke-linecap:square;stroke-width:2;"/>
   </g>
   <g id="patch_3">
    <path d="M 72 320.4 
L 72 43.2 
" style="fill:none;stroke:#000000;stroke-linecap:square;stroke-linejoin:miter;stroke-width:0.8;"/>
   </g>
   <g id="patch_4">
    <path d="M 518.4 320.4 
L 518.4 43.2 
" style="fill:none;stroke:#000000;stroke-linecap:square;stroke-linejoin:miter;stroke-width:0.8;"/>
   </g>
   <g id="patch_5">
    <path d="M 72 320.4 
L 518.4 320.4 
" style="fill:none;stroke:#000000;stroke-linecap:square;stroke-linejoin:miter;stroke-width:0.8;"/>
   </g>
   <g id="patch_6">
    <path d="M 72 43.2 
L 518.4 43.2 
" style="fill:none;stroke:#000000;stroke-linecap:square;stroke-linejoin:miter;stroke-width:0.8;"/>
   </g>
   <g id="text_18">
    <!-- Front Propogation Speed -->
    <g transform="translate(172.245312 37.2)scale(0.2 -0.2)">
     <defs>
      <path d="M 628 4666 
L 3309 4666 
L 3309 4134 
L 1259 4134 
L 1259 2759 
L 3109 2759 
L 3109 2228 
L 1259 2228 
L 1259 0 
L 628 0 
L 628 4666 
z
" id="DejaVuSans-46" transform="scale(0.015625)"/>
      <path d="M 2631 2963 
Q 2534 3019 2420 3045 
Q 2306 3072 2169 3072 
Q 1681 3072 1420 2755 
Q 1159 2438 1159 1844 
L 1159 0 
L 581 0 
L 581 3500 
L 1159 3500 
L 1159 2956 
Q 1341 3275 1631 3429 
Q 1922 3584 2338 3584 
Q 2397 3584 2469 3576 
Q 2541 3569 2628 3553 
L 2631 2963 
z
" id="DejaVuSans-72" transform="scale(0.015625)"/>
      <path d="M 1172 4494 
L 1172 3500 
L 2356 3500 
L 2356 3053 
L 1172 3053 
L 1172 1153 
Q 1172 725 1289 603 
Q 1406 481 1766 481 
L 2356 481 
L 2356 0 
L 1766 0 
Q 1100 0 847 248 
Q 594 497 594 1153 
L 594 3053 
L 172 3053 
L 172 3500 
L 594 3500 
L 594 4494 
L 1172 4494 
z
" id="DejaVuSans-74" transform="scale(0.015625)"/>
      <path d="M 1259 4147 
L 1259 2394 
L 2053 2394 
Q 2494 2394 2734 2622 
Q 2975 2850 2975 3272 
Q 2975 3691 2734 3919 
Q 2494 4147 2053 4147 
L 1259 4147 
z
M 628 4666 
L 2053 4666 
Q 2838 4666 3239 4311 
Q 3641 3956 3641 3272 
Q 3641 2581 3239 2228 
Q 2838 1875 2053 1875 
L 1259 1875 
L 1259 0 
L 628 0 
L 628 4666 
z
" id="DejaVuSans-50" transform="scale(0.015625)"/>
      <path d="M 2906 1791 
Q 2906 2416 2648 2759 
Q 2391 3103 1925 3103 
Q 1463 3103 1205 2759 
Q 947 2416 947 1791 
Q 947 1169 1205 825 
Q 1463 481 1925 481 
Q 2391 481 2648 825 
Q 2906 1169 2906 1791 
z
M 3481 434 
Q 3481 -459 3084 -895 
Q 2688 -1331 1869 -1331 
Q 1566 -1331 1297 -1286 
Q 1028 -1241 775 -1147 
L 775 -588 
Q 1028 -725 1275 -790 
Q 1522 -856 1778 -856 
Q 2344 -856 2625 -561 
Q 2906 -266 2906 331 
L 2906 616 
Q 2728 306 2450 153 
Q 2172 0 1784 0 
Q 1141 0 747 490 
Q 353 981 353 1791 
Q 353 2603 747 3093 
Q 1141 3584 1784 3584 
Q 2172 3584 2450 3431 
Q 2728 3278 2906 2969 
L 2906 3500 
L 3481 3500 
L 3481 434 
z
" id="DejaVuSans-67" transform="scale(0.015625)"/>
      <path d="M 2194 1759 
Q 1497 1759 1228 1600 
Q 959 1441 959 1056 
Q 959 750 1161 570 
Q 1363 391 1709 391 
Q 2188 391 2477 730 
Q 2766 1069 2766 1631 
L 2766 1759 
L 2194 1759 
z
M 3341 1997 
L 3341 0 
L 2766 0 
L 2766 531 
Q 2569 213 2275 61 
Q 1981 -91 1556 -91 
Q 1019 -91 701 211 
Q 384 513 384 1019 
Q 384 1609 779 1909 
Q 1175 2209 1959 2209 
L 2766 2209 
L 2766 2266 
Q 2766 2663 2505 2880 
Q 2244 3097 1772 3097 
Q 1472 3097 1187 3025 
Q 903 2953 641 2809 
L 641 3341 
Q 956 3463 1253 3523 
Q 1550 3584 1831 3584 
Q 2591 3584 2966 3190 
Q 3341 2797 3341 1997 
z
" id="DejaVuSans-61" transform="scale(0.015625)"/>
     </defs>
     <use xlink:href="#DejaVuSans-46"/>
     <use x="50.269531" xlink:href="#DejaVuSans-72"/>
     <use x="89.132812" xlink:href="#DejaVuSans-6f"/>
     <use x="150.314453" xlink:href="#DejaVuSans-6e"/>
     <use x="213.693359" xlink:href="#DejaVuSans-74"/>
     <use x="252.902344" xlink:href="#DejaVuSans-20"/>
     <use x="284.689453" xlink:href="#DejaVuSans-50"/>
     <use x="343.242188" xlink:href="#DejaVuSans-72"/>
     <use x="382.105469" xlink:href="#DejaVuSans-6f"/>
     <use x="443.287109" xlink:href="#DejaVuSans-70"/>
     <use x="506.763672" xlink:href="#DejaVuSans-6f"/>
     <use x="567.945312" xlink:href="#DejaVuSans-67"/>
     <use x="631.421875" xlink:href="#DejaVuSans-61"/>
     <use x="692.701172" xlink:href="#DejaVuSans-74"/>
     <use x="731.910156" xlink:href="#DejaVuSans-69"/>
     <use x="759.693359" xlink:href="#DejaVuSans-6f"/>
     <use x="820.875" xlink:href="#DejaVuSans-6e"/>
     <use x="884.253906" xlink:href="#DejaVuSans-20"/>
     <use x="916.041016" xlink:href="#DejaVuSans-53"/>
     <use x="979.517578" xlink:href="#DejaVuSans-70"/>
     <use x="1042.994141" xlink:href="#DejaVuSans-65"/>
     <use x="1104.517578" xlink:href="#DejaVuSans-65"/>
     <use x="1166.041016" xlink:href="#DejaVuSans-64"/>
    </g>
   </g>
   <g id="legend_1">
    <g id="patch_7">
     <path d="M 325.967812 111.175687 
L 508.6 111.175687 
Q 511.4 111.175687 511.4 108.375687 
L 511.4 53 
Q 511.4 50.2 508.6 50.2 
L 325.967812 50.2 
Q 323.167812 50.2 323.167812 53 
L 323.167812 108.375687 
Q 323.167812 111.175687 325.967812 111.175687 
z
" style="fill:#ffffff;opacity:0.8;stroke:#cccccc;stroke-linejoin:miter;"/>
    </g>
    <g id="line2d_18">
     <path d="M 328.767812 61.537812 
L 356.767812 61.537812 
" style="fill:none;stroke:#ff0000;stroke-linecap:square;stroke-width:2;"/>
    </g>
    <g id="line2d_19"/>
    <g id="text_19">
     <!-- Front speed -->
     <g transform="translate(367.967812 66.437812)scale(0.14 -0.14)">
      <use xlink:href="#DejaVuSans-46"/>
      <use x="50.269531" xlink:href="#DejaVuSans-72"/>
      <use x="89.132812" xlink:href="#DejaVuSans-6f"/>
      <use x="150.314453" xlink:href="#DejaVuSans-6e"/>
      <use x="213.693359" xlink:href="#DejaVuSans-74"/>
      <use x="252.902344" xlink:href="#DejaVuSans-20"/>
      <use x="284.689453" xlink:href="#DejaVuSans-73"/>
      <use x="336.789062" xlink:href="#DejaVuSans-70"/>
      <use x="400.265625" xlink:href="#DejaVuSans-65"/>
      <use x="461.789062" xlink:href="#DejaVuSans-65"/>
      <use x="523.3125" xlink:href="#DejaVuSans-64"/>
     </g>
    </g>
    <g id="line2d_20">
     <path d="M 328.767812 91.381437 
L 356.767812 91.381437 
" style="fill:none;stroke:#000000;stroke-dasharray:5.55,2.4;stroke-dashoffset:0;stroke-width:1.5;"/>
    </g>
    <g id="line2d_21"/>
    <g id="text_20">
     <!-- Steady state -->
     <g transform="translate(367.967812 86.987187)scale(0.14 -0.14)">
      <defs>
       <path d="M 2059 -325 
Q 1816 -950 1584 -1140 
Q 1353 -1331 966 -1331 
L 506 -1331 
L 506 -850 
L 844 -850 
Q 1081 -850 1212 -737 
Q 1344 -625 1503 -206 
L 1606 56 
L 191 3500 
L 800 3500 
L 1894 763 
L 2988 3500 
L 3597 3500 
L 2059 -325 
z
" id="DejaVuSans-79" transform="scale(0.015625)"/>
      </defs>
      <use xlink:href="#DejaVuSans-53"/>
      <use x="63.476562" xlink:href="#DejaVuSans-74"/>
      <use x="102.685547" xlink:href="#DejaVuSans-65"/>
      <use x="164.208984" xlink:href="#DejaVuSans-61"/>
      <use x="225.488281" xlink:href="#DejaVuSans-64"/>
      <use x="288.964844" xlink:href="#DejaVuSans-79"/>
      <use x="348.144531" xlink:href="#DejaVuSans-20"/>
      <use x="379.931641" xlink:href="#DejaVuSans-73"/>
      <use x="432.03125" xlink:href="#DejaVuSans-74"/>
      <use x="471.240234" xlink:href="#DejaVuSans-61"/>
      <use x="532.519531" xlink:href="#DejaVuSans-74"/>
      <use x="571.728516" xlink:href="#DejaVuSans-65"/>
     </g>
     <!-- speed = 0.54 mm/s -->
     <g transform="translate(367.967812 102.664125)scale(0.14 -0.14)">
      <defs>
       <path d="M 678 2906 
L 4684 2906 
L 4684 2381 
L 678 2381 
L 678 2906 
z
M 678 1631 
L 4684 1631 
L 4684 1100 
L 678 1100 
L 678 1631 
z
" id="DejaVuSans-3d" transform="scale(0.015625)"/>
       <path d="M 2419 4116 
L 825 1625 
L 2419 1625 
L 2419 4116 
z
M 2253 4666 
L 3047 4666 
L 3047 1625 
L 3713 1625 
L 3713 1100 
L 3047 1100 
L 3047 0 
L 2419 0 
L 2419 1100 
L 313 1100 
L 313 1709 
L 2253 4666 
z
" id="DejaVuSans-34" transform="scale(0.015625)"/>
      </defs>
      <use xlink:href="#DejaVuSans-73"/>
      <use x="52.099609" xlink:href="#DejaVuSans-70"/>
      <use x="115.576172" xlink:href="#DejaVuSans-65"/>
      <use x="177.099609" xlink:href="#DejaVuSans-65"/>
      <use x="238.623047" xlink:href="#DejaVuSans-64"/>
      <use x="302.099609" xlink:href="#DejaVuSans-20"/>
      <use x="333.886719" xlink:href="#DejaVuSans-3d"/>
      <use x="417.675781" xlink:href="#DejaVuSans-20"/>
      <use x="449.462891" xlink:href="#DejaVuSans-30"/>
      <use x="513.085938" xlink:href="#DejaVuSans-2e"/>
      <use x="544.873047" xlink:href="#DejaVuSans-35"/>
      <use x="608.496094" xlink:href="#DejaVuSans-34"/>
      <use x="672.119141" xlink:href="#DejaVuSans-20"/>
      <use x="703.90625" xlink:href="#DejaVuSans-6d"/>
      <use x="801.318359" xlink:href="#DejaVuSans-6d"/>
      <use x="898.730469" xlink:href="#DejaVuSans-2f"/>
      <use x="932.421875" xlink:href="#DejaVuSans-73"/>
     </g>
    </g>
   </g>
  </g>
 </g>
 <defs>
  <clipPath id="pb9752f822a">
   <rect height="277.2" width="446.4" x="72" y="43.2"/>
  </clipPath>
 </defs>
</svg>
