<?xml version="1.0" encoding="utf-8" standalone="no"?>
<!DOCTYPE svg PUBLIC "-//W3C//DTD SVG 1.1//EN"
  "http://www.w3.org/Graphics/SVG/1.1/DTD/svg11.dtd">
<svg height="360pt" version="1.1" viewBox="0 0 576 360" width="576pt" xmlns="http://www.w3.org/2000/svg" xmlns:xlink="http://www.w3.org/1999/xlink">
 <metadata>
  <rdf:RDF xmlns:cc="http://creativecommons.org/ns#" xmlns:dc="http://purl.org/dc/elements/1.1/" xmlns:rdf="http://www.w3.org/1999/02/22-rdf-syntax-ns#">
   <cc:Work>
    <dc:type rdf:resource="http://purl.org/dc/dcmitype/StillImage"/>
    <dc:date>2022-06-30T14:42:53.471826</dc:date>
    <dc:format>image/svg+xml</dc:format>
    <dc:creator>
     <cc:Agent>
      <dc:title>Matplotlib v3.4.3, https://matplotlib.org/</dc:title>
     </cc:Agent>
    </dc:creator>
   </cc:Work>
  </rdf:RDF>
 </metadata>
 <defs>
  <style type="text/css">*{stroke-linecap:butt;stroke-linejoin:round;}</style>
 </defs>
 <g id="figure_1">
  <g id="patch_1">
   <path d="M 0 360 
L 576 360 
L 576 0 
L 0 0 
z
" style="fill:#ffffff;"/>
  </g>
  <g id="axes_1">
   <g id="patch_2">
    <path d="M 72 320.4 
L 518.4 320.4 
L 518.4 43.2 
L 72 43.2 
z
" style="fill:#ffffff;"/>
   </g>
   <g id="PolyCollection_1">
    <defs>
     <path d="M 72 -160.375078 
L 72 -166.749376 
L 72.705213 -166.749376 
L 73.410427 -166.749376 
L 74.11564 -166.749376 
L 74.820853 -166.749376 
L 75.526066 -166.749376 
L 76.23128 -166.749376 
L 76.936493 -166.749376 
L 77.641706 -166.749376 
L 78.346919 -166.749376 
L 79.052133 -166.749376 
L 79.757346 -166.749376 
L 80.462559 -166.749376 
L 81.167773 -166.749376 
L 81.872986 -166.749376 
L 82.578199 -166.749376 
L 83.283412 -166.749376 
L 83.988626 -166.749376 
L 84.693839 -166.749376 
L 85.399052 -166.749376 
L 86.104265 -166.749376 
L 86.809479 -166.749376 
L 87.514692 -166.749376 
L 88.219905 -166.749376 
L 88.925118 -166.749376 
L 89.630332 -166.749376 
L 90.335545 -166.749376 
L 91.040758 -166.749376 
L 91.745972 -166.749376 
L 92.451185 -166.749376 
L 93.156398 -166.749376 
L 93.861611 -166.749376 
L 94.566825 -166.749376 
L 95.272038 -166.749376 
L 95.977251 -166.749376 
L 96.682464 -166.749376 
L 97.387678 -166.749376 
L 98.092891 -166.749376 
L 98.798104 -166.749376 
L 99.503318 -166.749376 
L 100.208531 -166.749376 
L 100.913744 -166.749376 
L 101.618957 -166.749376 
L 102.324171 -166.749376 
L 103.029384 -166.749376 
L 103.734597 -166.749376 
L 104.43981 -166.749376 
L 105.145024 -166.749376 
L 105.850237 -166.749376 
L 106.55545 -166.749376 
L 107.260664 -166.749376 
L 107.965877 -166.749376 
L 108.67109 -166.749376 
L 109.376303 -166.749376 
L 110.081517 -166.749376 
L 110.78673 -166.749376 
L 111.491943 -166.749376 
L 112.197156 -166.749376 
L 112.90237 -166.749376 
L 113.607583 -166.749376 
L 114.312796 -166.749376 
L 115.018009 -166.749376 
L 115.723223 -166.749376 
L 116.428436 -166.749376 
L 117.133649 -166.749376 
L 117.838863 -166.749376 
L 118.544076 -166.749376 
L 119.249289 -166.749376 
L 119.954502 -166.749376 
L 120.659716 -166.749376 
L 121.364929 -166.749376 
L 122.070142 -166.749376 
L 122.775355 -166.749376 
L 123.480569 -166.749376 
L 124.185782 -166.749376 
L 124.890995 -166.749376 
L 125.596209 -166.749376 
L 126.301422 -166.749376 
L 127.006635 -166.749376 
L 127.711848 -166.749376 
L 128.417062 -166.749376 
L 129.122275 -166.749376 
L 129.827488 -166.749376 
L 130.532701 -166.749376 
L 131.237915 -166.749376 
L 131.943128 -166.749376 
L 132.648341 -166.749376 
L 133.353555 -166.749376 
L 134.058768 -166.749376 
L 134.763981 -166.749376 
L 135.469194 -166.749376 
L 136.174408 -166.749376 
L 136.879621 -166.749376 
L 137.584834 -166.749376 
L 138.290047 -166.749376 
L 138.995261 -166.749376 
L 139.700474 -166.749376 
L 140.405687 -166.749376 
L 141.1109 -166.749376 
L 141.816114 -166.749376 
L 142.521327 -166.749376 
L 143.22654 -166.749376 
L 143.931754 -166.749376 
L 144.636967 -166.749376 
L 145.34218 -166.749376 
L 146.047393 -166.749376 
L 146.752607 -166.749376 
L 147.45782 -166.749376 
L 148.163033 -166.749376 
L 148.868246 -166.749376 
L 149.57346 -166.749376 
L 150.278673 -166.749376 
L 150.983886 -166.749376 
L 151.6891 -166.749376 
L 152.394313 -166.749376 
L 153.099526 -166.749376 
L 153.804739 -166.749376 
L 154.509953 -166.749376 
L 155.215166 -166.749376 
L 155.920379 -166.749376 
L 156.625592 -166.749376 
L 157.330806 -166.749376 
L 158.036019 -166.749376 
L 158.741232 -166.749376 
L 159.446445 -166.749376 
L 160.151659 -166.749376 
L 160.856872 -166.749376 
L 161.562085 -166.749376 
L 162.267299 -166.749376 
L 162.972512 -166.749376 
L 163.677725 -166.749376 
L 164.382938 -166.749376 
L 165.088152 -166.749376 
L 165.793365 -166.749376 
L 166.498578 -166.749376 
L 167.203791 -166.749376 
L 167.909005 -166.749376 
L 168.614218 -166.749376 
L 169.319431 -166.749376 
L 170.024645 -166.749376 
L 170.729858 -166.749376 
L 171.435071 -166.749376 
L 172.140284 -166.749376 
L 172.845498 -166.749376 
L 173.550711 -166.749376 
L 174.255924 -166.749376 
L 174.961137 -166.749376 
L 175.666351 -166.749376 
L 176.371564 -166.749376 
L 177.076777 -166.749376 
L 177.781991 -166.749376 
L 178.487204 -166.749376 
L 179.192417 -166.749376 
L 179.89763 -166.749376 
L 180.602844 -166.749376 
L 181.308057 -166.749376 
L 182.01327 -166.749376 
L 182.718483 -166.749376 
L 183.423697 -166.749376 
L 184.12891 -166.749376 
L 184.834123 -166.749376 
L 185.539336 -166.749376 
L 186.24455 -166.749376 
L 186.949763 -166.749376 
L 187.654976 -166.749376 
L 188.36019 -166.749376 
L 189.065403 -166.749376 
L 189.770616 -166.749376 
L 190.475829 -166.749376 
L 191.181043 -166.749376 
L 191.886256 -166.749376 
L 192.591469 -166.749376 
L 193.296682 -166.749376 
L 194.001896 -166.749376 
L 194.707109 -166.749376 
L 195.412322 -166.749376 
L 196.117536 -166.749376 
L 196.822749 -166.749376 
L 197.527962 -166.749376 
L 198.233175 -166.749376 
L 198.938389 -166.749376 
L 199.643602 -166.749376 
L 200.348815 -166.749376 
L 201.054028 -166.749376 
L 201.759242 -166.749376 
L 202.464455 -166.749376 
L 203.169668 -166.749376 
L 203.874882 -166.749376 
L 204.580095 -166.749376 
L 205.285308 -166.749376 
L 205.990521 -166.749376 
L 206.695735 -166.749376 
L 207.400948 -166.749376 
L 208.106161 -166.749376 
L 208.811374 -166.749376 
L 209.516588 -166.749376 
L 210.221801 -166.749376 
L 210.927014 -166.749376 
L 211.632227 -166.749376 
L 212.337441 -166.749376 
L 213.042654 -166.749376 
L 213.747867 -166.749376 
L 214.453081 -166.749376 
L 215.158294 -166.749376 
L 215.863507 -166.749376 
L 216.56872 -166.749376 
L 217.273934 -166.749376 
L 217.979147 -166.749376 
L 218.68436 -166.749376 
L 219.389573 -166.749376 
L 220.094787 -166.749376 
L 220.8 -166.749376 
L 221.505213 -166.749376 
L 222.210427 -166.749376 
L 222.91564 -166.749376 
L 223.620853 -166.749376 
L 224.326066 -166.749376 
L 225.03128 -166.749376 
L 225.736493 -166.749376 
L 226.441706 -166.749376 
L 227.146919 -166.749376 
L 227.852133 -166.749376 
L 228.557346 -166.749376 
L 229.262559 -166.749376 
L 229.967773 -166.749376 
L 230.672986 -166.749376 
L 231.378199 -166.749376 
L 232.083412 -166.749376 
L 232.788626 -166.749376 
L 233.493839 -166.749376 
L 234.199052 -166.749376 
L 234.904265 -166.749376 
L 235.609479 -166.749376 
L 236.314692 -166.749376 
L 237.019905 -166.749376 
L 237.725118 -166.749376 
L 238.430332 -166.749376 
L 239.135545 -166.749376 
L 239.840758 -166.749376 
L 240.545972 -166.749376 
L 241.251185 -166.749376 
L 241.956398 -166.749376 
L 242.661611 -166.749376 
L 243.366825 -166.749376 
L 244.072038 -166.749376 
L 244.777251 -166.749376 
L 245.482464 -166.749376 
L 246.187678 -166.749376 
L 246.892891 -166.749376 
L 247.598104 -166.749376 
L 248.303318 -166.749376 
L 249.008531 -166.749376 
L 249.713744 -166.749376 
L 250.418957 -166.749376 
L 251.124171 -166.749376 
L 251.829384 -166.749376 
L 252.534597 -166.749376 
L 253.23981 -166.749376 
L 253.945024 -166.749376 
L 254.650237 -166.749376 
L 255.35545 -166.749376 
L 256.060664 -166.749376 
L 256.765877 -166.749376 
L 257.47109 -166.749376 
L 258.176303 -166.749376 
L 258.881517 -166.749376 
L 259.58673 -166.749376 
L 260.291943 -166.749376 
L 260.997156 -166.749376 
L 261.70237 -166.749376 
L 262.407583 -166.749376 
L 263.112796 -166.749376 
L 263.818009 -166.749376 
L 264.523223 -166.749376 
L 265.228436 -166.749376 
L 265.933649 -166.749376 
L 266.638863 -166.749376 
L 267.344076 -166.749376 
L 268.049289 -166.749376 
L 268.754502 -166.749376 
L 269.459716 -166.749376 
L 270.164929 -166.749376 
L 270.870142 -166.749376 
L 271.575355 -166.749376 
L 272.280569 -166.749376 
L 272.985782 -166.749376 
L 273.690995 -166.749376 
L 274.396209 -166.749376 
L 275.101422 -166.749376 
L 275.806635 -166.749376 
L 276.511848 -166.749376 
L 277.217062 -166.749376 
L 277.922275 -166.749376 
L 278.627488 -166.749376 
L 279.332701 -166.749376 
L 280.037915 -166.749376 
L 280.743128 -166.749376 
L 281.448341 -166.749376 
L 282.153555 -166.749376 
L 282.858768 -166.749376 
L 283.563981 -166.749376 
L 284.269194 -166.749376 
L 284.974408 -166.749376 
L 285.679621 -166.749376 
L 286.384834 -166.749376 
L 287.090047 -166.749376 
L 287.795261 -166.749376 
L 288.500474 -166.749376 
L 289.205687 -166.749376 
L 289.9109 -166.749376 
L 290.616114 -166.749376 
L 291.321327 -166.749376 
L 292.02654 -166.749376 
L 292.731754 -166.749376 
L 293.436967 -166.749376 
L 294.14218 -166.749376 
L 294.847393 -166.749376 
L 295.552607 -166.749376 
L 296.25782 -166.749376 
L 296.963033 -166.749376 
L 297.668246 -166.749376 
L 298.37346 -166.749376 
L 299.078673 -166.749376 
L 299.783886 -166.749376 
L 300.4891 -166.749376 
L 301.194313 -166.749376 
L 301.899526 -166.749376 
L 302.604739 -166.749376 
L 303.309953 -166.749376 
L 304.015166 -166.749376 
L 304.720379 -166.749376 
L 305.425592 -166.749376 
L 306.130806 -166.749376 
L 306.836019 -166.749376 
L 307.541232 -166.749376 
L 308.246445 -166.749376 
L 308.951659 -166.749376 
L 309.656872 -166.749376 
L 310.362085 -166.749376 
L 311.067299 -166.749376 
L 311.772512 -166.749376 
L 312.477725 -166.749376 
L 313.182938 -166.749376 
L 313.888152 -166.749376 
L 314.593365 -166.749376 
L 315.298578 -166.749376 
L 316.003791 -166.749376 
L 316.709005 -166.749376 
L 317.414218 -166.749376 
L 318.119431 -166.749376 
L 318.824645 -166.749376 
L 319.529858 -166.749376 
L 320.235071 -166.749376 
L 320.940284 -166.749376 
L 321.645498 -166.749376 
L 322.350711 -166.749376 
L 323.055924 -166.749376 
L 323.761137 -166.749376 
L 324.466351 -166.749376 
L 325.171564 -166.749376 
L 325.876777 -166.749376 
L 326.581991 -166.749376 
L 327.287204 -166.749376 
L 327.992417 -166.749376 
L 328.69763 -166.749376 
L 329.402844 -166.749376 
L 330.108057 -166.749376 
L 330.81327 -166.749376 
L 331.518483 -166.749376 
L 332.223697 -166.749376 
L 332.92891 -166.749376 
L 333.634123 -166.749376 
L 334.339336 -166.749376 
L 335.04455 -166.749376 
L 335.749763 -166.749376 
L 336.454976 -166.749376 
L 337.16019 -166.749376 
L 337.865403 -166.749376 
L 338.570616 -166.749376 
L 339.275829 -166.749376 
L 339.981043 -166.749376 
L 340.686256 -166.749376 
L 341.391469 -166.749376 
L 342.096682 -166.749376 
L 342.801896 -166.749376 
L 343.507109 -166.749376 
L 344.212322 -166.749376 
L 344.917536 -166.749376 
L 345.622749 -166.749376 
L 346.327962 -166.749376 
L 347.033175 -166.749376 
L 347.738389 -166.749376 
L 348.443602 -166.749376 
L 349.148815 -166.749376 
L 349.854028 -166.749376 
L 350.559242 -166.749376 
L 351.264455 -166.749376 
L 351.969668 -166.749376 
L 352.674882 -166.749376 
L 353.380095 -166.749376 
L 354.085308 -166.749376 
L 354.790521 -166.749376 
L 355.495735 -166.749376 
L 356.200948 -166.749376 
L 356.906161 -166.749376 
L 357.611374 -166.749376 
L 358.316588 -166.749376 
L 359.021801 -166.749376 
L 359.727014 -166.749376 
L 360.432227 -166.749376 
L 361.137441 -166.749376 
L 361.842654 -166.749376 
L 362.547867 -166.749376 
L 363.253081 -166.749376 
L 363.958294 -166.749376 
L 364.663507 -166.749376 
L 365.36872 -166.749376 
L 366.073934 -166.749376 
L 366.779147 -166.749376 
L 367.48436 -166.749376 
L 368.189573 -166.749376 
L 368.894787 -166.749376 
L 369.6 -166.749376 
L 370.305213 -166.749376 
L 371.010427 -166.749376 
L 371.71564 -166.749376 
L 372.420853 -166.749376 
L 373.126066 -166.749376 
L 373.83128 -166.749376 
L 374.536493 -166.749376 
L 375.241706 -166.749376 
L 375.946919 -166.749376 
L 376.652133 -166.749376 
L 377.357346 -166.749376 
L 378.062559 -166.749376 
L 378.767773 -166.749376 
L 379.472986 -166.749376 
L 380.178199 -166.749376 
L 380.883412 -166.749376 
L 381.588626 -166.749376 
L 382.293839 -166.749376 
L 382.999052 -166.749376 
L 383.704265 -166.749376 
L 384.409479 -166.749376 
L 385.114692 -166.749376 
L 385.819905 -166.749376 
L 386.525118 -166.749376 
L 387.230332 -166.749376 
L 387.935545 -166.749376 
L 388.640758 -166.749376 
L 389.345972 -166.749376 
L 390.051185 -166.749376 
L 390.756398 -166.749376 
L 391.461611 -166.749376 
L 392.166825 -166.749376 
L 392.872038 -166.749376 
L 393.577251 -166.749376 
L 394.282464 -166.749376 
L 394.987678 -166.749376 
L 395.692891 -166.749376 
L 396.398104 -166.749376 
L 397.103318 -166.749376 
L 397.808531 -166.749376 
L 398.513744 -166.749376 
L 399.218957 -166.749376 
L 399.924171 -166.749376 
L 400.629384 -166.749376 
L 401.334597 -166.749376 
L 402.03981 -166.749376 
L 402.745024 -166.749376 
L 403.450237 -166.749376 
L 404.15545 -166.749376 
L 404.860664 -166.749376 
L 405.565877 -166.749376 
L 406.27109 -166.749376 
L 406.976303 -166.749376 
L 407.681517 -166.749376 
L 408.38673 -166.749376 
L 409.091943 -166.749376 
L 409.797156 -166.749376 
L 410.50237 -166.749376 
L 411.207583 -166.749376 
L 411.912796 -166.749376 
L 412.618009 -166.749376 
L 413.323223 -166.749376 
L 414.028436 -166.749376 
L 414.733649 -166.749376 
L 415.438863 -166.749376 
L 416.144076 -166.749376 
L 416.849289 -166.749376 
L 417.554502 -166.749376 
L 418.259716 -166.749376 
L 418.964929 -166.749376 
L 419.670142 -166.749376 
L 420.375355 -166.749376 
L 421.080569 -166.749376 
L 421.785782 -166.749376 
L 422.490995 -166.749376 
L 423.196209 -166.749376 
L 423.901422 -166.749376 
L 424.606635 -166.749376 
L 425.311848 -166.749376 
L 426.017062 -166.749376 
L 426.722275 -166.749376 
L 427.427488 -166.749376 
L 428.132701 -166.749376 
L 428.837915 -166.749376 
L 429.543128 -166.749376 
L 430.248341 -166.749376 
L 430.953555 -166.749376 
L 431.658768 -166.749376 
L 432.363981 -166.749376 
L 433.069194 -166.749376 
L 433.774408 -166.749376 
L 434.479621 -166.749376 
L 435.184834 -166.749376 
L 435.890047 -166.749376 
L 436.595261 -166.749376 
L 437.300474 -166.749376 
L 438.005687 -166.749376 
L 438.7109 -166.749376 
L 439.416114 -166.749376 
L 440.121327 -166.749376 
L 440.82654 -166.749376 
L 441.531754 -166.749376 
L 442.236967 -166.749376 
L 442.94218 -166.749376 
L 443.647393 -166.749376 
L 444.352607 -166.749376 
L 445.05782 -166.749376 
L 445.763033 -166.749376 
L 446.468246 -166.749376 
L 447.17346 -166.749376 
L 447.878673 -166.749376 
L 448.583886 -166.749376 
L 449.2891 -166.749376 
L 449.994313 -166.749376 
L 450.699526 -166.749376 
L 451.404739 -166.749376 
L 452.109953 -166.749376 
L 452.815166 -166.749376 
L 453.520379 -166.749376 
L 454.225592 -166.749376 
L 454.930806 -166.749376 
L 455.636019 -166.749376 
L 456.341232 -166.749376 
L 457.046445 -166.749376 
L 457.751659 -166.749376 
L 458.456872 -166.749376 
L 459.162085 -166.749376 
L 459.867299 -166.749376 
L 460.572512 -166.749376 
L 461.277725 -166.749376 
L 461.982938 -166.749376 
L 462.688152 -166.749376 
L 463.393365 -166.749376 
L 464.098578 -166.749376 
L 464.803791 -166.749376 
L 465.509005 -166.749376 
L 466.214218 -166.749376 
L 466.919431 -166.749376 
L 467.624645 -166.749376 
L 468.329858 -166.749376 
L 469.035071 -166.749376 
L 469.740284 -166.749376 
L 470.445498 -166.749376 
L 471.150711 -166.749376 
L 471.855924 -166.749376 
L 472.561137 -166.749376 
L 473.266351 -166.749376 
L 473.971564 -166.749376 
L 474.676777 -166.749376 
L 475.381991 -166.749376 
L 476.087204 -166.749376 
L 476.792417 -166.749376 
L 477.49763 -166.749376 
L 478.202844 -166.749376 
L 478.908057 -166.749376 
L 479.61327 -166.749376 
L 480.318483 -166.749376 
L 481.023697 -166.749376 
L 481.72891 -166.749376 
L 482.434123 -166.749376 
L 483.139336 -166.749376 
L 483.84455 -166.749376 
L 484.549763 -166.749376 
L 485.254976 -166.749376 
L 485.96019 -166.749376 
L 486.665403 -166.749376 
L 487.370616 -166.749376 
L 488.075829 -166.749376 
L 488.781043 -166.749376 
L 489.486256 -166.749376 
L 490.191469 -166.749376 
L 490.896682 -166.749376 
L 491.601896 -166.749376 
L 492.307109 -166.749376 
L 493.012322 -166.749376 
L 493.717536 -166.749376 
L 494.422749 -166.749376 
L 495.127962 -166.749376 
L 495.833175 -166.749376 
L 496.538389 -166.749376 
L 497.243602 -166.749376 
L 497.948815 -166.749376 
L 498.654028 -166.749376 
L 499.359242 -166.749376 
L 500.064455 -166.749376 
L 500.769668 -166.749376 
L 501.474882 -166.749376 
L 502.180095 -166.749376 
L 502.885308 -166.749376 
L 503.590521 -166.749376 
L 504.295735 -166.749376 
L 505.000948 -166.749376 
L 505.706161 -166.749376 
L 506.411374 -166.749376 
L 507.116588 -166.749376 
L 507.821801 -166.749376 
L 508.527014 -166.749376 
L 509.232227 -166.749376 
L 509.937441 -166.749376 
L 510.642654 -166.749376 
L 511.347867 -166.749376 
L 512.053081 -166.749376 
L 512.758294 -166.749376 
L 513.463507 -166.749376 
L 514.16872 -166.749376 
L 514.873934 -166.749376 
L 515.579147 -166.749376 
L 516.28436 -166.749376 
L 516.989573 -166.749376 
L 517.694787 -166.749376 
L 518.4 -166.749376 
L 518.4 -160.375078 
L 518.4 -160.375078 
L 517.694787 -160.375078 
L 516.989573 -160.375078 
L 516.28436 -160.375078 
L 515.579147 -160.375078 
L 514.873934 -160.375078 
L 514.16872 -160.375078 
L 513.463507 -160.375078 
L 512.758294 -160.375078 
L 512.053081 -160.375078 
L 511.347867 -160.375078 
L 510.642654 -160.375078 
L 509.937441 -160.375078 
L 509.232227 -160.375078 
L 508.527014 -160.375078 
L 507.821801 -160.375078 
L 507.116588 -160.375078 
L 506.411374 -160.375078 
L 505.706161 -160.375078 
L 505.000948 -160.375078 
L 504.295735 -160.375078 
L 503.590521 -160.375078 
L 502.885308 -160.375078 
L 502.180095 -160.375078 
L 501.474882 -160.375078 
L 500.769668 -160.375078 
L 500.064455 -160.375078 
L 499.359242 -160.375078 
L 498.654028 -160.375078 
L 497.948815 -160.375078 
L 497.243602 -160.375078 
L 496.538389 -160.375078 
L 495.833175 -160.375078 
L 495.127962 -160.375078 
L 494.422749 -160.375078 
L 493.717536 -160.375078 
L 493.012322 -160.375078 
L 492.307109 -160.375078 
L 491.601896 -160.375078 
L 490.896682 -160.375078 
L 490.191469 -160.375078 
L 489.486256 -160.375078 
L 488.781043 -160.375078 
L 488.075829 -160.375078 
L 487.370616 -160.375078 
L 486.665403 -160.375078 
L 485.96019 -160.375078 
L 485.254976 -160.375078 
L 484.549763 -160.375078 
L 483.84455 -160.375078 
L 483.139336 -160.375078 
L 482.434123 -160.375078 
L 481.72891 -160.375078 
L 481.023697 -160.375078 
L 480.318483 -160.375078 
L 479.61327 -160.375078 
L 478.908057 -160.375078 
L 478.202844 -160.375078 
L 477.49763 -160.375078 
L 476.792417 -160.375078 
L 476.087204 -160.375078 
L 475.381991 -160.375078 
L 474.676777 -160.375078 
L 473.971564 -160.375078 
L 473.266351 -160.375078 
L 472.561137 -160.375078 
L 471.855924 -160.375078 
L 471.150711 -160.375078 
L 470.445498 -160.375078 
L 469.740284 -160.375078 
L 469.035071 -160.375078 
L 468.329858 -160.375078 
L 467.624645 -160.375078 
L 466.919431 -160.375078 
L 466.214218 -160.375078 
L 465.509005 -160.375078 
L 464.803791 -160.375078 
L 464.098578 -160.375078 
L 463.393365 -160.375078 
L 462.688152 -160.375078 
L 461.982938 -160.375078 
L 461.277725 -160.375078 
L 460.572512 -160.375078 
L 459.867299 -160.375078 
L 459.162085 -160.375078 
L 458.456872 -160.375078 
L 457.751659 -160.375078 
L 457.046445 -160.375078 
L 456.341232 -160.375078 
L 455.636019 -160.375078 
L 454.930806 -160.375078 
L 454.225592 -160.375078 
L 453.520379 -160.375078 
L 452.815166 -160.375078 
L 452.109953 -160.375078 
L 451.404739 -160.375078 
L 450.699526 -160.375078 
L 449.994313 -160.375078 
L 449.2891 -160.375078 
L 448.583886 -160.375078 
L 447.878673 -160.375078 
L 447.17346 -160.375078 
L 446.468246 -160.375078 
L 445.763033 -160.375078 
L 445.05782 -160.375078 
L 444.352607 -160.375078 
L 443.647393 -160.375078 
L 442.94218 -160.375078 
L 442.236967 -160.375078 
L 441.531754 -160.375078 
L 440.82654 -160.375078 
L 440.121327 -160.375078 
L 439.416114 -160.375078 
L 438.7109 -160.375078 
L 438.005687 -160.375078 
L 437.300474 -160.375078 
L 436.595261 -160.375078 
L 435.890047 -160.375078 
L 435.184834 -160.375078 
L 434.479621 -160.375078 
L 433.774408 -160.375078 
L 433.069194 -160.375078 
L 432.363981 -160.375078 
L 431.658768 -160.375078 
L 430.953555 -160.375078 
L 430.248341 -160.375078 
L 429.543128 -160.375078 
L 428.837915 -160.375078 
L 428.132701 -160.375078 
L 427.427488 -160.375078 
L 426.722275 -160.375078 
L 426.017062 -160.375078 
L 425.311848 -160.375078 
L 424.606635 -160.375078 
L 423.901422 -160.375078 
L 423.196209 -160.375078 
L 422.490995 -160.375078 
L 421.785782 -160.375078 
L 421.080569 -160.375078 
L 420.375355 -160.375078 
L 419.670142 -160.375078 
L 418.964929 -160.375078 
L 418.259716 -160.375078 
L 417.554502 -160.375078 
L 416.849289 -160.375078 
L 416.144076 -160.375078 
L 415.438863 -160.375078 
L 414.733649 -160.375078 
L 414.028436 -160.375078 
L 413.323223 -160.375078 
L 412.618009 -160.375078 
L 411.912796 -160.375078 
L 411.207583 -160.375078 
L 410.50237 -160.375078 
L 409.797156 -160.375078 
L 409.091943 -160.375078 
L 408.38673 -160.375078 
L 407.681517 -160.375078 
L 406.976303 -160.375078 
L 406.27109 -160.375078 
L 405.565877 -160.375078 
L 404.860664 -160.375078 
L 404.15545 -160.375078 
L 403.450237 -160.375078 
L 402.745024 -160.375078 
L 402.03981 -160.375078 
L 401.334597 -160.375078 
L 400.629384 -160.375078 
L 399.924171 -160.375078 
L 399.218957 -160.375078 
L 398.513744 -160.375078 
L 397.808531 -160.375078 
L 397.103318 -160.375078 
L 396.398104 -160.375078 
L 395.692891 -160.375078 
L 394.987678 -160.375078 
L 394.282464 -160.375078 
L 393.577251 -160.375078 
L 392.872038 -160.375078 
L 392.166825 -160.375078 
L 391.461611 -160.375078 
L 390.756398 -160.375078 
L 390.051185 -160.375078 
L 389.345972 -160.375078 
L 388.640758 -160.375078 
L 387.935545 -160.375078 
L 387.230332 -160.375078 
L 386.525118 -160.375078 
L 385.819905 -160.375078 
L 385.114692 -160.375078 
L 384.409479 -160.375078 
L 383.704265 -160.375078 
L 382.999052 -160.375078 
L 382.293839 -160.375078 
L 381.588626 -160.375078 
L 380.883412 -160.375078 
L 380.178199 -160.375078 
L 379.472986 -160.375078 
L 378.767773 -160.375078 
L 378.062559 -160.375078 
L 377.357346 -160.375078 
L 376.652133 -160.375078 
L 375.946919 -160.375078 
L 375.241706 -160.375078 
L 374.536493 -160.375078 
L 373.83128 -160.375078 
L 373.126066 -160.375078 
L 372.420853 -160.375078 
L 371.71564 -160.375078 
L 371.010427 -160.375078 
L 370.305213 -160.375078 
L 369.6 -160.375078 
L 368.894787 -160.375078 
L 368.189573 -160.375078 
L 367.48436 -160.375078 
L 366.779147 -160.375078 
L 366.073934 -160.375078 
L 365.36872 -160.375078 
L 364.663507 -160.375078 
L 363.958294 -160.375078 
L 363.253081 -160.375078 
L 362.547867 -160.375078 
L 361.842654 -160.375078 
L 361.137441 -160.375078 
L 360.432227 -160.375078 
L 359.727014 -160.375078 
L 359.021801 -160.375078 
L 358.316588 -160.375078 
L 357.611374 -160.375078 
L 356.906161 -160.375078 
L 356.200948 -160.375078 
L 355.495735 -160.375078 
L 354.790521 -160.375078 
L 354.085308 -160.375078 
L 353.380095 -160.375078 
L 352.674882 -160.375078 
L 351.969668 -160.375078 
L 351.264455 -160.375078 
L 350.559242 -160.375078 
L 349.854028 -160.375078 
L 349.148815 -160.375078 
L 348.443602 -160.375078 
L 347.738389 -160.375078 
L 347.033175 -160.375078 
L 346.327962 -160.375078 
L 345.622749 -160.375078 
L 344.917536 -160.375078 
L 344.212322 -160.375078 
L 343.507109 -160.375078 
L 342.801896 -160.375078 
L 342.096682 -160.375078 
L 341.391469 -160.375078 
L 340.686256 -160.375078 
L 339.981043 -160.375078 
L 339.275829 -160.375078 
L 338.570616 -160.375078 
L 337.865403 -160.375078 
L 337.16019 -160.375078 
L 336.454976 -160.375078 
L 335.749763 -160.375078 
L 335.04455 -160.375078 
L 334.339336 -160.375078 
L 333.634123 -160.375078 
L 332.92891 -160.375078 
L 332.223697 -160.375078 
L 331.518483 -160.375078 
L 330.81327 -160.375078 
L 330.108057 -160.375078 
L 329.402844 -160.375078 
L 328.69763 -160.375078 
L 327.992417 -160.375078 
L 327.287204 -160.375078 
L 326.581991 -160.375078 
L 325.876777 -160.375078 
L 325.171564 -160.375078 
L 324.466351 -160.375078 
L 323.761137 -160.375078 
L 323.055924 -160.375078 
L 322.350711 -160.375078 
L 321.645498 -160.375078 
L 320.940284 -160.375078 
L 320.235071 -160.375078 
L 319.529858 -160.375078 
L 318.824645 -160.375078 
L 318.119431 -160.375078 
L 317.414218 -160.375078 
L 316.709005 -160.375078 
L 316.003791 -160.375078 
L 315.298578 -160.375078 
L 314.593365 -160.375078 
L 313.888152 -160.375078 
L 313.182938 -160.375078 
L 312.477725 -160.375078 
L 311.772512 -160.375078 
L 311.067299 -160.375078 
L 310.362085 -160.375078 
L 309.656872 -160.375078 
L 308.951659 -160.375078 
L 308.246445 -160.375078 
L 307.541232 -160.375078 
L 306.836019 -160.375078 
L 306.130806 -160.375078 
L 305.425592 -160.375078 
L 304.720379 -160.375078 
L 304.015166 -160.375078 
L 303.309953 -160.375078 
L 302.604739 -160.375078 
L 301.899526 -160.375078 
L 301.194313 -160.375078 
L 300.4891 -160.375078 
L 299.783886 -160.375078 
L 299.078673 -160.375078 
L 298.37346 -160.375078 
L 297.668246 -160.375078 
L 296.963033 -160.375078 
L 296.25782 -160.375078 
L 295.552607 -160.375078 
L 294.847393 -160.375078 
L 294.14218 -160.375078 
L 293.436967 -160.375078 
L 292.731754 -160.375078 
L 292.02654 -160.375078 
L 291.321327 -160.375078 
L 290.616114 -160.375078 
L 289.9109 -160.375078 
L 289.205687 -160.375078 
L 288.500474 -160.375078 
L 287.795261 -160.375078 
L 287.090047 -160.375078 
L 286.384834 -160.375078 
L 285.679621 -160.375078 
L 284.974408 -160.375078 
L 284.269194 -160.375078 
L 283.563981 -160.375078 
L 282.858768 -160.375078 
L 282.153555 -160.375078 
L 281.448341 -160.375078 
L 280.743128 -160.375078 
L 280.037915 -160.375078 
L 279.332701 -160.375078 
L 278.627488 -160.375078 
L 277.922275 -160.375078 
L 277.217062 -160.375078 
L 276.511848 -160.375078 
L 275.806635 -160.375078 
L 275.101422 -160.375078 
L 274.396209 -160.375078 
L 273.690995 -160.375078 
L 272.985782 -160.375078 
L 272.280569 -160.375078 
L 271.575355 -160.375078 
L 270.870142 -160.375078 
L 270.164929 -160.375078 
L 269.459716 -160.375078 
L 268.754502 -160.375078 
L 268.049289 -160.375078 
L 267.344076 -160.375078 
L 266.638863 -160.375078 
L 265.933649 -160.375078 
L 265.228436 -160.375078 
L 264.523223 -160.375078 
L 263.818009 -160.375078 
L 263.112796 -160.375078 
L 262.407583 -160.375078 
L 261.70237 -160.375078 
L 260.997156 -160.375078 
L 260.291943 -160.375078 
L 259.58673 -160.375078 
L 258.881517 -160.375078 
L 258.176303 -160.375078 
L 257.47109 -160.375078 
L 256.765877 -160.375078 
L 256.060664 -160.375078 
L 255.35545 -160.375078 
L 254.650237 -160.375078 
L 253.945024 -160.375078 
L 253.23981 -160.375078 
L 252.534597 -160.375078 
L 251.829384 -160.375078 
L 251.124171 -160.375078 
L 250.418957 -160.375078 
L 249.713744 -160.375078 
L 249.008531 -160.375078 
L 248.303318 -160.375078 
L 247.598104 -160.375078 
L 246.892891 -160.375078 
L 246.187678 -160.375078 
L 245.482464 -160.375078 
L 244.777251 -160.375078 
L 244.072038 -160.375078 
L 243.366825 -160.375078 
L 242.661611 -160.375078 
L 241.956398 -160.375078 
L 241.251185 -160.375078 
L 240.545972 -160.375078 
L 239.840758 -160.375078 
L 239.135545 -160.375078 
L 238.430332 -160.375078 
L 237.725118 -160.375078 
L 237.019905 -160.375078 
L 236.314692 -160.375078 
L 235.609479 -160.375078 
L 234.904265 -160.375078 
L 234.199052 -160.375078 
L 233.493839 -160.375078 
L 232.788626 -160.375078 
L 232.083412 -160.375078 
L 231.378199 -160.375078 
L 230.672986 -160.375078 
L 229.967773 -160.375078 
L 229.262559 -160.375078 
L 228.557346 -160.375078 
L 227.852133 -160.375078 
L 227.146919 -160.375078 
L 226.441706 -160.375078 
L 225.736493 -160.375078 
L 225.03128 -160.375078 
L 224.326066 -160.375078 
L 223.620853 -160.375078 
L 222.91564 -160.375078 
L 222.210427 -160.375078 
L 221.505213 -160.375078 
L 220.8 -160.375078 
L 220.094787 -160.375078 
L 219.389573 -160.375078 
L 218.68436 -160.375078 
L 217.979147 -160.375078 
L 217.273934 -160.375078 
L 216.56872 -160.375078 
L 215.863507 -160.375078 
L 215.158294 -160.375078 
L 214.453081 -160.375078 
L 213.747867 -160.375078 
L 213.042654 -160.375078 
L 212.337441 -160.375078 
L 211.632227 -160.375078 
L 210.927014 -160.375078 
L 210.221801 -160.375078 
L 209.516588 -160.375078 
L 208.811374 -160.375078 
L 208.106161 -160.375078 
L 207.400948 -160.375078 
L 206.695735 -160.375078 
L 205.990521 -160.375078 
L 205.285308 -160.375078 
L 204.580095 -160.375078 
L 203.874882 -160.375078 
L 203.169668 -160.375078 
L 202.464455 -160.375078 
L 201.759242 -160.375078 
L 201.054028 -160.375078 
L 200.348815 -160.375078 
L 199.643602 -160.375078 
L 198.938389 -160.375078 
L 198.233175 -160.375078 
L 197.527962 -160.375078 
L 196.822749 -160.375078 
L 196.117536 -160.375078 
L 195.412322 -160.375078 
L 194.707109 -160.375078 
L 194.001896 -160.375078 
L 193.296682 -160.375078 
L 192.591469 -160.375078 
L 191.886256 -160.375078 
L 191.181043 -160.375078 
L 190.475829 -160.375078 
L 189.770616 -160.375078 
L 189.065403 -160.375078 
L 188.36019 -160.375078 
L 187.654976 -160.375078 
L 186.949763 -160.375078 
L 186.24455 -160.375078 
L 185.539336 -160.375078 
L 184.834123 -160.375078 
L 184.12891 -160.375078 
L 183.423697 -160.375078 
L 182.718483 -160.375078 
L 182.01327 -160.375078 
L 181.308057 -160.375078 
L 180.602844 -160.375078 
L 179.89763 -160.375078 
L 179.192417 -160.375078 
L 178.487204 -160.375078 
L 177.781991 -160.375078 
L 177.076777 -160.375078 
L 176.371564 -160.375078 
L 175.666351 -160.375078 
L 174.961137 -160.375078 
L 174.255924 -160.375078 
L 173.550711 -160.375078 
L 172.845498 -160.375078 
L 172.140284 -160.375078 
L 171.435071 -160.375078 
L 170.729858 -160.375078 
L 170.024645 -160.375078 
L 169.319431 -160.375078 
L 168.614218 -160.375078 
L 167.909005 -160.375078 
L 167.203791 -160.375078 
L 166.498578 -160.375078 
L 165.793365 -160.375078 
L 165.088152 -160.375078 
L 164.382938 -160.375078 
L 163.677725 -160.375078 
L 162.972512 -160.375078 
L 162.267299 -160.375078 
L 161.562085 -160.375078 
L 160.856872 -160.375078 
L 160.151659 -160.375078 
L 159.446445 -160.375078 
L 158.741232 -160.375078 
L 158.036019 -160.375078 
L 157.330806 -160.375078 
L 156.625592 -160.375078 
L 155.920379 -160.375078 
L 155.215166 -160.375078 
L 154.509953 -160.375078 
L 153.804739 -160.375078 
L 153.099526 -160.375078 
L 152.394313 -160.375078 
L 151.6891 -160.375078 
L 150.983886 -160.375078 
L 150.278673 -160.375078 
L 149.57346 -160.375078 
L 148.868246 -160.375078 
L 148.163033 -160.375078 
L 147.45782 -160.375078 
L 146.752607 -160.375078 
L 146.047393 -160.375078 
L 145.34218 -160.375078 
L 144.636967 -160.375078 
L 143.931754 -160.375078 
L 143.22654 -160.375078 
L 142.521327 -160.375078 
L 141.816114 -160.375078 
L 141.1109 -160.375078 
L 140.405687 -160.375078 
L 139.700474 -160.375078 
L 138.995261 -160.375078 
L 138.290047 -160.375078 
L 137.584834 -160.375078 
L 136.879621 -160.375078 
L 136.174408 -160.375078 
L 135.469194 -160.375078 
L 134.763981 -160.375078 
L 134.058768 -160.375078 
L 133.353555 -160.375078 
L 132.648341 -160.375078 
L 131.943128 -160.375078 
L 131.237915 -160.375078 
L 130.532701 -160.375078 
L 129.827488 -160.375078 
L 129.122275 -160.375078 
L 128.417062 -160.375078 
L 127.711848 -160.375078 
L 127.006635 -160.375078 
L 126.301422 -160.375078 
L 125.596209 -160.375078 
L 124.890995 -160.375078 
L 124.185782 -160.375078 
L 123.480569 -160.375078 
L 122.775355 -160.375078 
L 122.070142 -160.375078 
L 121.364929 -160.375078 
L 120.659716 -160.375078 
L 119.954502 -160.375078 
L 119.249289 -160.375078 
L 118.544076 -160.375078 
L 117.838863 -160.375078 
L 117.133649 -160.375078 
L 116.428436 -160.375078 
L 115.723223 -160.375078 
L 115.018009 -160.375078 
L 114.312796 -160.375078 
L 113.607583 -160.375078 
L 112.90237 -160.375078 
L 112.197156 -160.375078 
L 111.491943 -160.375078 
L 110.78673 -160.375078 
L 110.081517 -160.375078 
L 109.376303 -160.375078 
L 108.67109 -160.375078 
L 107.965877 -160.375078 
L 107.260664 -160.375078 
L 106.55545 -160.375078 
L 105.850237 -160.375078 
L 105.145024 -160.375078 
L 104.43981 -160.375078 
L 103.734597 -160.375078 
L 103.029384 -160.375078 
L 102.324171 -160.375078 
L 101.618957 -160.375078 
L 100.913744 -160.375078 
L 100.208531 -160.375078 
L 99.503318 -160.375078 
L 98.798104 -160.375078 
L 98.092891 -160.375078 
L 97.387678 -160.375078 
L 96.682464 -160.375078 
L 95.977251 -160.375078 
L 95.272038 -160.375078 
L 94.566825 -160.375078 
L 93.861611 -160.375078 
L 93.156398 -160.375078 
L 92.451185 -160.375078 
L 91.745972 -160.375078 
L 91.040758 -160.375078 
L 90.335545 -160.375078 
L 89.630332 -160.375078 
L 88.925118 -160.375078 
L 88.219905 -160.375078 
L 87.514692 -160.375078 
L 86.809479 -160.375078 
L 86.104265 -160.375078 
L 85.399052 -160.375078 
L 84.693839 -160.375078 
L 83.988626 -160.375078 
L 83.283412 -160.375078 
L 82.578199 -160.375078 
L 81.872986 -160.375078 
L 81.167773 -160.375078 
L 80.462559 -160.375078 
L 79.757346 -160.375078 
L 79.052133 -160.375078 
L 78.346919 -160.375078 
L 77.641706 -160.375078 
L 76.936493 -160.375078 
L 76.23128 -160.375078 
L 75.526066 -160.375078 
L 74.820853 -160.375078 
L 74.11564 -160.375078 
L 73.410427 -160.375078 
L 72.705213 -160.375078 
L 72 -160.375078 
z
" id="m8e1906093b"/>
    </defs>
    <g clip-path="url(#pd9e6d3a3ee)">
     <use style="fill-opacity:0.15;" x="0" xlink:href="#m8e1906093b" y="360"/>
    </g>
   </g>
   <g id="matplotlib.axis_1">
    <g id="xtick_1">
     <g id="line2d_1">
      <defs>
       <path d="M 0 0 
L 0 3.5 
" id="m24c577fa43" style="stroke:#000000;stroke-width:0.8;"/>
      </defs>
      <g>
       <use style="stroke:#000000;stroke-width:0.8;" x="72" xlink:href="#m24c577fa43" y="320.4"/>
      </g>
     </g>
     <g id="text_1">
      <!-- 0.0 -->
      <g transform="translate(60.867812 338.037813)scale(0.14 -0.14)">
       <defs>
        <path d="M 2034 4250 
Q 1547 4250 1301 3770 
Q 1056 3291 1056 2328 
Q 1056 1369 1301 889 
Q 1547 409 2034 409 
Q 2525 409 2770 889 
Q 3016 1369 3016 2328 
Q 3016 3291 2770 3770 
Q 2525 4250 2034 4250 
z
M 2034 4750 
Q 2819 4750 3233 4129 
Q 3647 3509 3647 2328 
Q 3647 1150 3233 529 
Q 2819 -91 2034 -91 
Q 1250 -91 836 529 
Q 422 1150 422 2328 
Q 422 3509 836 4129 
Q 1250 4750 2034 4750 
z
" id="DejaVuSans-30" transform="scale(0.015625)"/>
        <path d="M 684 794 
L 1344 794 
L 1344 0 
L 684 0 
L 684 794 
z
" id="DejaVuSans-2e" transform="scale(0.015625)"/>
       </defs>
       <use xlink:href="#DejaVuSans-30"/>
       <use x="63.623047" xlink:href="#DejaVuSans-2e"/>
       <use x="95.410156" xlink:href="#DejaVuSans-30"/>
      </g>
     </g>
    </g>
    <g id="xtick_2">
     <g id="line2d_2">
      <g>
       <use style="stroke:#000000;stroke-width:0.8;" x="127.811162" xlink:href="#m24c577fa43" y="320.4"/>
      </g>
     </g>
     <g id="text_2">
      <!-- 2.5 -->
      <g transform="translate(116.678975 338.037813)scale(0.14 -0.14)">
       <defs>
        <path d="M 1228 531 
L 3431 531 
L 3431 0 
L 469 0 
L 469 531 
Q 828 903 1448 1529 
Q 2069 2156 2228 2338 
Q 2531 2678 2651 2914 
Q 2772 3150 2772 3378 
Q 2772 3750 2511 3984 
Q 2250 4219 1831 4219 
Q 1534 4219 1204 4116 
Q 875 4013 500 3803 
L 500 4441 
Q 881 4594 1212 4672 
Q 1544 4750 1819 4750 
Q 2544 4750 2975 4387 
Q 3406 4025 3406 3419 
Q 3406 3131 3298 2873 
Q 3191 2616 2906 2266 
Q 2828 2175 2409 1742 
Q 1991 1309 1228 531 
z
" id="DejaVuSans-32" transform="scale(0.015625)"/>
        <path d="M 691 4666 
L 3169 4666 
L 3169 4134 
L 1269 4134 
L 1269 2991 
Q 1406 3038 1543 3061 
Q 1681 3084 1819 3084 
Q 2600 3084 3056 2656 
Q 3513 2228 3513 1497 
Q 3513 744 3044 326 
Q 2575 -91 1722 -91 
Q 1428 -91 1123 -41 
Q 819 9 494 109 
L 494 744 
Q 775 591 1075 516 
Q 1375 441 1709 441 
Q 2250 441 2565 725 
Q 2881 1009 2881 1497 
Q 2881 1984 2565 2268 
Q 2250 2553 1709 2553 
Q 1456 2553 1204 2497 
Q 953 2441 691 2322 
L 691 4666 
z
" id="DejaVuSans-35" transform="scale(0.015625)"/>
       </defs>
       <use xlink:href="#DejaVuSans-32"/>
       <use x="63.623047" xlink:href="#DejaVuSans-2e"/>
       <use x="95.410156" xlink:href="#DejaVuSans-35"/>
      </g>
     </g>
    </g>
    <g id="xtick_3">
     <g id="line2d_3">
      <g>
       <use style="stroke:#000000;stroke-width:0.8;" x="183.622324" xlink:href="#m24c577fa43" y="320.4"/>
      </g>
     </g>
     <g id="text_3">
      <!-- 5.0 -->
      <g transform="translate(172.490137 338.037813)scale(0.14 -0.14)">
       <use xlink:href="#DejaVuSans-35"/>
       <use x="63.623047" xlink:href="#DejaVuSans-2e"/>
       <use x="95.410156" xlink:href="#DejaVuSans-30"/>
      </g>
     </g>
    </g>
    <g id="xtick_4">
     <g id="line2d_4">
      <g>
       <use style="stroke:#000000;stroke-width:0.8;" x="239.433487" xlink:href="#m24c577fa43" y="320.4"/>
      </g>
     </g>
     <g id="text_4">
      <!-- 7.5 -->
      <g transform="translate(228.301299 338.037813)scale(0.14 -0.14)">
       <defs>
        <path d="M 525 4666 
L 3525 4666 
L 3525 4397 
L 1831 0 
L 1172 0 
L 2766 4134 
L 525 4134 
L 525 4666 
z
" id="DejaVuSans-37" transform="scale(0.015625)"/>
       </defs>
       <use xlink:href="#DejaVuSans-37"/>
       <use x="63.623047" xlink:href="#DejaVuSans-2e"/>
       <use x="95.410156" xlink:href="#DejaVuSans-35"/>
      </g>
     </g>
    </g>
    <g id="xtick_5">
     <g id="line2d_5">
      <g>
       <use style="stroke:#000000;stroke-width:0.8;" x="295.244649" xlink:href="#m24c577fa43" y="320.4"/>
      </g>
     </g>
     <g id="text_5">
      <!-- 10.0 -->
      <g transform="translate(279.658711 338.037813)scale(0.14 -0.14)">
       <defs>
        <path d="M 794 531 
L 1825 531 
L 1825 4091 
L 703 3866 
L 703 4441 
L 1819 4666 
L 2450 4666 
L 2450 531 
L 3481 531 
L 3481 0 
L 794 0 
L 794 531 
z
" id="DejaVuSans-31" transform="scale(0.015625)"/>
       </defs>
       <use xlink:href="#DejaVuSans-31"/>
       <use x="63.623047" xlink:href="#DejaVuSans-30"/>
       <use x="127.246094" xlink:href="#DejaVuSans-2e"/>
       <use x="159.033203" xlink:href="#DejaVuSans-30"/>
      </g>
     </g>
    </g>
    <g id="xtick_6">
     <g id="line2d_6">
      <g>
       <use style="stroke:#000000;stroke-width:0.8;" x="351.055811" xlink:href="#m24c577fa43" y="320.4"/>
      </g>
     </g>
     <g id="text_6">
      <!-- 12.5 -->
      <g transform="translate(335.469874 338.037813)scale(0.14 -0.14)">
       <use xlink:href="#DejaVuSans-31"/>
       <use x="63.623047" xlink:href="#DejaVuSans-32"/>
       <use x="127.246094" xlink:href="#DejaVuSans-2e"/>
       <use x="159.033203" xlink:href="#DejaVuSans-35"/>
      </g>
     </g>
    </g>
    <g id="xtick_7">
     <g id="line2d_7">
      <g>
       <use style="stroke:#000000;stroke-width:0.8;" x="406.866973" xlink:href="#m24c577fa43" y="320.4"/>
      </g>
     </g>
     <g id="text_7">
      <!-- 15.0 -->
      <g transform="translate(391.281036 338.037813)scale(0.14 -0.14)">
       <use xlink:href="#DejaVuSans-31"/>
       <use x="63.623047" xlink:href="#DejaVuSans-35"/>
       <use x="127.246094" xlink:href="#DejaVuSans-2e"/>
       <use x="159.033203" xlink:href="#DejaVuSans-30"/>
      </g>
     </g>
    </g>
    <g id="xtick_8">
     <g id="line2d_8">
      <g>
       <use style="stroke:#000000;stroke-width:0.8;" x="462.678136" xlink:href="#m24c577fa43" y="320.4"/>
      </g>
     </g>
     <g id="text_8">
      <!-- 17.5 -->
      <g transform="translate(447.092198 338.037813)scale(0.14 -0.14)">
       <use xlink:href="#DejaVuSans-31"/>
       <use x="63.623047" xlink:href="#DejaVuSans-37"/>
       <use x="127.246094" xlink:href="#DejaVuSans-2e"/>
       <use x="159.033203" xlink:href="#DejaVuSans-35"/>
      </g>
     </g>
    </g>
    <g id="text_9">
     <!-- Time [Seconds] -->
     <g transform="translate(233.23 357.106875)scale(0.16 -0.16)">
      <defs>
       <path d="M -19 4666 
L 3928 4666 
L 3928 4134 
L 2272 4134 
L 2272 0 
L 1638 0 
L 1638 4134 
L -19 4134 
L -19 4666 
z
" id="DejaVuSans-54" transform="scale(0.015625)"/>
       <path d="M 603 3500 
L 1178 3500 
L 1178 0 
L 603 0 
L 603 3500 
z
M 603 4863 
L 1178 4863 
L 1178 4134 
L 603 4134 
L 603 4863 
z
" id="DejaVuSans-69" transform="scale(0.015625)"/>
       <path d="M 3328 2828 
Q 3544 3216 3844 3400 
Q 4144 3584 4550 3584 
Q 5097 3584 5394 3201 
Q 5691 2819 5691 2113 
L 5691 0 
L 5113 0 
L 5113 2094 
Q 5113 2597 4934 2840 
Q 4756 3084 4391 3084 
Q 3944 3084 3684 2787 
Q 3425 2491 3425 1978 
L 3425 0 
L 2847 0 
L 2847 2094 
Q 2847 2600 2669 2842 
Q 2491 3084 2119 3084 
Q 1678 3084 1418 2786 
Q 1159 2488 1159 1978 
L 1159 0 
L 581 0 
L 581 3500 
L 1159 3500 
L 1159 2956 
Q 1356 3278 1631 3431 
Q 1906 3584 2284 3584 
Q 2666 3584 2933 3390 
Q 3200 3197 3328 2828 
z
" id="DejaVuSans-6d" transform="scale(0.015625)"/>
       <path d="M 3597 1894 
L 3597 1613 
L 953 1613 
Q 991 1019 1311 708 
Q 1631 397 2203 397 
Q 2534 397 2845 478 
Q 3156 559 3463 722 
L 3463 178 
Q 3153 47 2828 -22 
Q 2503 -91 2169 -91 
Q 1331 -91 842 396 
Q 353 884 353 1716 
Q 353 2575 817 3079 
Q 1281 3584 2069 3584 
Q 2775 3584 3186 3129 
Q 3597 2675 3597 1894 
z
M 3022 2063 
Q 3016 2534 2758 2815 
Q 2500 3097 2075 3097 
Q 1594 3097 1305 2825 
Q 1016 2553 972 2059 
L 3022 2063 
z
" id="DejaVuSans-65" transform="scale(0.015625)"/>
       <path id="DejaVuSans-20" transform="scale(0.015625)"/>
       <path d="M 550 4863 
L 1875 4863 
L 1875 4416 
L 1125 4416 
L 1125 -397 
L 1875 -397 
L 1875 -844 
L 550 -844 
L 550 4863 
z
" id="DejaVuSans-5b" transform="scale(0.015625)"/>
       <path d="M 3425 4513 
L 3425 3897 
Q 3066 4069 2747 4153 
Q 2428 4238 2131 4238 
Q 1616 4238 1336 4038 
Q 1056 3838 1056 3469 
Q 1056 3159 1242 3001 
Q 1428 2844 1947 2747 
L 2328 2669 
Q 3034 2534 3370 2195 
Q 3706 1856 3706 1288 
Q 3706 609 3251 259 
Q 2797 -91 1919 -91 
Q 1588 -91 1214 -16 
Q 841 59 441 206 
L 441 856 
Q 825 641 1194 531 
Q 1563 422 1919 422 
Q 2459 422 2753 634 
Q 3047 847 3047 1241 
Q 3047 1584 2836 1778 
Q 2625 1972 2144 2069 
L 1759 2144 
Q 1053 2284 737 2584 
Q 422 2884 422 3419 
Q 422 4038 858 4394 
Q 1294 4750 2059 4750 
Q 2388 4750 2728 4690 
Q 3069 4631 3425 4513 
z
" id="DejaVuSans-53" transform="scale(0.015625)"/>
       <path d="M 3122 3366 
L 3122 2828 
Q 2878 2963 2633 3030 
Q 2388 3097 2138 3097 
Q 1578 3097 1268 2742 
Q 959 2388 959 1747 
Q 959 1106 1268 751 
Q 1578 397 2138 397 
Q 2388 397 2633 464 
Q 2878 531 3122 666 
L 3122 134 
Q 2881 22 2623 -34 
Q 2366 -91 2075 -91 
Q 1284 -91 818 406 
Q 353 903 353 1747 
Q 353 2603 823 3093 
Q 1294 3584 2113 3584 
Q 2378 3584 2631 3529 
Q 2884 3475 3122 3366 
z
" id="DejaVuSans-63" transform="scale(0.015625)"/>
       <path d="M 1959 3097 
Q 1497 3097 1228 2736 
Q 959 2375 959 1747 
Q 959 1119 1226 758 
Q 1494 397 1959 397 
Q 2419 397 2687 759 
Q 2956 1122 2956 1747 
Q 2956 2369 2687 2733 
Q 2419 3097 1959 3097 
z
M 1959 3584 
Q 2709 3584 3137 3096 
Q 3566 2609 3566 1747 
Q 3566 888 3137 398 
Q 2709 -91 1959 -91 
Q 1206 -91 779 398 
Q 353 888 353 1747 
Q 353 2609 779 3096 
Q 1206 3584 1959 3584 
z
" id="DejaVuSans-6f" transform="scale(0.015625)"/>
       <path d="M 3513 2113 
L 3513 0 
L 2938 0 
L 2938 2094 
Q 2938 2591 2744 2837 
Q 2550 3084 2163 3084 
Q 1697 3084 1428 2787 
Q 1159 2491 1159 1978 
L 1159 0 
L 581 0 
L 581 3500 
L 1159 3500 
L 1159 2956 
Q 1366 3272 1645 3428 
Q 1925 3584 2291 3584 
Q 2894 3584 3203 3211 
Q 3513 2838 3513 2113 
z
" id="DejaVuSans-6e" transform="scale(0.015625)"/>
       <path d="M 2906 2969 
L 2906 4863 
L 3481 4863 
L 3481 0 
L 2906 0 
L 2906 525 
Q 2725 213 2448 61 
Q 2172 -91 1784 -91 
Q 1150 -91 751 415 
Q 353 922 353 1747 
Q 353 2572 751 3078 
Q 1150 3584 1784 3584 
Q 2172 3584 2448 3432 
Q 2725 3281 2906 2969 
z
M 947 1747 
Q 947 1113 1208 752 
Q 1469 391 1925 391 
Q 2381 391 2643 752 
Q 2906 1113 2906 1747 
Q 2906 2381 2643 2742 
Q 2381 3103 1925 3103 
Q 1469 3103 1208 2742 
Q 947 2381 947 1747 
z
" id="DejaVuSans-64" transform="scale(0.015625)"/>
       <path d="M 2834 3397 
L 2834 2853 
Q 2591 2978 2328 3040 
Q 2066 3103 1784 3103 
Q 1356 3103 1142 2972 
Q 928 2841 928 2578 
Q 928 2378 1081 2264 
Q 1234 2150 1697 2047 
L 1894 2003 
Q 2506 1872 2764 1633 
Q 3022 1394 3022 966 
Q 3022 478 2636 193 
Q 2250 -91 1575 -91 
Q 1294 -91 989 -36 
Q 684 19 347 128 
L 347 722 
Q 666 556 975 473 
Q 1284 391 1588 391 
Q 1994 391 2212 530 
Q 2431 669 2431 922 
Q 2431 1156 2273 1281 
Q 2116 1406 1581 1522 
L 1381 1569 
Q 847 1681 609 1914 
Q 372 2147 372 2553 
Q 372 3047 722 3315 
Q 1072 3584 1716 3584 
Q 2034 3584 2315 3537 
Q 2597 3491 2834 3397 
z
" id="DejaVuSans-73" transform="scale(0.015625)"/>
       <path d="M 1947 4863 
L 1947 -844 
L 622 -844 
L 622 -397 
L 1369 -397 
L 1369 4416 
L 622 4416 
L 622 4863 
L 1947 4863 
z
" id="DejaVuSans-5d" transform="scale(0.015625)"/>
      </defs>
      <use xlink:href="#DejaVuSans-54"/>
      <use x="57.958984" xlink:href="#DejaVuSans-69"/>
      <use x="85.742188" xlink:href="#DejaVuSans-6d"/>
      <use x="183.154297" xlink:href="#DejaVuSans-65"/>
      <use x="244.677734" xlink:href="#DejaVuSans-20"/>
      <use x="276.464844" xlink:href="#DejaVuSans-5b"/>
      <use x="315.478516" xlink:href="#DejaVuSans-53"/>
      <use x="378.955078" xlink:href="#DejaVuSans-65"/>
      <use x="440.478516" xlink:href="#DejaVuSans-63"/>
      <use x="495.458984" xlink:href="#DejaVuSans-6f"/>
      <use x="556.640625" xlink:href="#DejaVuSans-6e"/>
      <use x="620.019531" xlink:href="#DejaVuSans-64"/>
      <use x="683.496094" xlink:href="#DejaVuSans-73"/>
      <use x="735.595703" xlink:href="#DejaVuSans-5d"/>
     </g>
    </g>
   </g>
   <g id="matplotlib.axis_2">
    <g id="ytick_1">
     <g id="line2d_9">
      <defs>
       <path d="M 0 0 
L -3.5 0 
" id="mae1f162fbc" style="stroke:#000000;stroke-width:0.8;"/>
      </defs>
      <g>
       <use style="stroke:#000000;stroke-width:0.8;" x="72" xlink:href="#mae1f162fbc" y="294.233474"/>
      </g>
     </g>
     <g id="text_10">
      <!-- 0.00 -->
      <g transform="translate(33.828125 299.552381)scale(0.14 -0.14)">
       <use xlink:href="#DejaVuSans-30"/>
       <use x="63.623047" xlink:href="#DejaVuSans-2e"/>
       <use x="95.410156" xlink:href="#DejaVuSans-30"/>
       <use x="159.033203" xlink:href="#DejaVuSans-30"/>
      </g>
     </g>
    </g>
    <g id="ytick_2">
     <g id="line2d_10">
      <g>
       <use style="stroke:#000000;stroke-width:0.8;" x="72" xlink:href="#mae1f162fbc" y="260.672985"/>
      </g>
     </g>
     <g id="text_11">
      <!-- 0.25 -->
      <g transform="translate(33.828125 265.991891)scale(0.14 -0.14)">
       <use xlink:href="#DejaVuSans-30"/>
       <use x="63.623047" xlink:href="#DejaVuSans-2e"/>
       <use x="95.410156" xlink:href="#DejaVuSans-32"/>
       <use x="159.033203" xlink:href="#DejaVuSans-35"/>
      </g>
     </g>
    </g>
    <g id="ytick_3">
     <g id="line2d_11">
      <g>
       <use style="stroke:#000000;stroke-width:0.8;" x="72" xlink:href="#mae1f162fbc" y="227.112495"/>
      </g>
     </g>
     <g id="text_12">
      <!-- 0.50 -->
      <g transform="translate(33.828125 232.431401)scale(0.14 -0.14)">
       <use xlink:href="#DejaVuSans-30"/>
       <use x="63.623047" xlink:href="#DejaVuSans-2e"/>
       <use x="95.410156" xlink:href="#DejaVuSans-35"/>
       <use x="159.033203" xlink:href="#DejaVuSans-30"/>
      </g>
     </g>
    </g>
    <g id="ytick_4">
     <g id="line2d_12">
      <g>
       <use style="stroke:#000000;stroke-width:0.8;" x="72" xlink:href="#mae1f162fbc" y="193.552005"/>
      </g>
     </g>
     <g id="text_13">
      <!-- 0.75 -->
      <g transform="translate(33.828125 198.870912)scale(0.14 -0.14)">
       <use xlink:href="#DejaVuSans-30"/>
       <use x="63.623047" xlink:href="#DejaVuSans-2e"/>
       <use x="95.410156" xlink:href="#DejaVuSans-37"/>
       <use x="159.033203" xlink:href="#DejaVuSans-35"/>
      </g>
     </g>
    </g>
    <g id="ytick_5">
     <g id="line2d_13">
      <g>
       <use style="stroke:#000000;stroke-width:0.8;" x="72" xlink:href="#mae1f162fbc" y="159.991516"/>
      </g>
     </g>
     <g id="text_14">
      <!-- 1.00 -->
      <g transform="translate(33.828125 165.310422)scale(0.14 -0.14)">
       <use xlink:href="#DejaVuSans-31"/>
       <use x="63.623047" xlink:href="#DejaVuSans-2e"/>
       <use x="95.410156" xlink:href="#DejaVuSans-30"/>
       <use x="159.033203" xlink:href="#DejaVuSans-30"/>
      </g>
     </g>
    </g>
    <g id="ytick_6">
     <g id="line2d_14">
      <g>
       <use style="stroke:#000000;stroke-width:0.8;" x="72" xlink:href="#mae1f162fbc" y="126.431026"/>
      </g>
     </g>
     <g id="text_15">
      <!-- 1.25 -->
      <g transform="translate(33.828125 131.749932)scale(0.14 -0.14)">
       <use xlink:href="#DejaVuSans-31"/>
       <use x="63.623047" xlink:href="#DejaVuSans-2e"/>
       <use x="95.410156" xlink:href="#DejaVuSans-32"/>
       <use x="159.033203" xlink:href="#DejaVuSans-35"/>
      </g>
     </g>
    </g>
    <g id="ytick_7">
     <g id="line2d_15">
      <g>
       <use style="stroke:#000000;stroke-width:0.8;" x="72" xlink:href="#mae1f162fbc" y="92.870536"/>
      </g>
     </g>
     <g id="text_16">
      <!-- 1.50 -->
      <g transform="translate(33.828125 98.189442)scale(0.14 -0.14)">
       <use xlink:href="#DejaVuSans-31"/>
       <use x="63.623047" xlink:href="#DejaVuSans-2e"/>
       <use x="95.410156" xlink:href="#DejaVuSans-35"/>
       <use x="159.033203" xlink:href="#DejaVuSans-30"/>
      </g>
     </g>
    </g>
    <g id="ytick_8">
     <g id="line2d_16">
      <g>
       <use style="stroke:#000000;stroke-width:0.8;" x="72" xlink:href="#mae1f162fbc" y="59.310046"/>
      </g>
     </g>
     <g id="text_17">
      <!-- 1.75 -->
      <g transform="translate(33.828125 64.628953)scale(0.14 -0.14)">
       <use xlink:href="#DejaVuSans-31"/>
       <use x="63.623047" xlink:href="#DejaVuSans-2e"/>
       <use x="95.410156" xlink:href="#DejaVuSans-37"/>
       <use x="159.033203" xlink:href="#DejaVuSans-35"/>
      </g>
     </g>
    </g>
    <g id="text_18">
     <!-- Speed [mm/s] -->
     <g transform="translate(26.500625 238.11375)rotate(-90)scale(0.16 -0.16)">
      <defs>
       <path d="M 1159 525 
L 1159 -1331 
L 581 -1331 
L 581 3500 
L 1159 3500 
L 1159 2969 
Q 1341 3281 1617 3432 
Q 1894 3584 2278 3584 
Q 2916 3584 3314 3078 
Q 3713 2572 3713 1747 
Q 3713 922 3314 415 
Q 2916 -91 2278 -91 
Q 1894 -91 1617 61 
Q 1341 213 1159 525 
z
M 3116 1747 
Q 3116 2381 2855 2742 
Q 2594 3103 2138 3103 
Q 1681 3103 1420 2742 
Q 1159 2381 1159 1747 
Q 1159 1113 1420 752 
Q 1681 391 2138 391 
Q 2594 391 2855 752 
Q 3116 1113 3116 1747 
z
" id="DejaVuSans-70" transform="scale(0.015625)"/>
       <path d="M 1625 4666 
L 2156 4666 
L 531 -594 
L 0 -594 
L 1625 4666 
z
" id="DejaVuSans-2f" transform="scale(0.015625)"/>
      </defs>
      <use xlink:href="#DejaVuSans-53"/>
      <use x="63.476562" xlink:href="#DejaVuSans-70"/>
      <use x="126.953125" xlink:href="#DejaVuSans-65"/>
      <use x="188.476562" xlink:href="#DejaVuSans-65"/>
      <use x="250" xlink:href="#DejaVuSans-64"/>
      <use x="313.476562" xlink:href="#DejaVuSans-20"/>
      <use x="345.263672" xlink:href="#DejaVuSans-5b"/>
      <use x="384.277344" xlink:href="#DejaVuSans-6d"/>
      <use x="481.689453" xlink:href="#DejaVuSans-6d"/>
      <use x="579.101562" xlink:href="#DejaVuSans-2f"/>
      <use x="612.792969" xlink:href="#DejaVuSans-73"/>
      <use x="664.892578" xlink:href="#DejaVuSans-5d"/>
     </g>
    </g>
   </g>
   <g id="line2d_17">
    <path clip-path="url(#pd9e6d3a3ee)" d="M 72 196.437773 
L 518.4 196.437773 
" style="fill:none;stroke:#000000;stroke-dasharray:5.55,2.4;stroke-dashoffset:0;stroke-width:1.5;"/>
   </g>
   <g id="line2d_18">
    <path clip-path="url(#pd9e6d3a3ee)" d="M 72 291.052385 
L 115.723223 290.974385 
L 116.428436 291.379451 
L 117.133649 289.868391 
L 117.838863 287.786018 
L 118.544076 288.862081 
L 119.954502 293.113094 
L 120.659716 294.628086 
L 121.364929 293.845558 
L 122.070142 292.544281 
L 122.775355 288.115145 
L 123.480569 286.410977 
L 124.185782 292.679798 
L 124.890995 303.618932 
L 125.596209 307.8 
L 126.301422 302.087898 
L 127.006635 291.057208 
L 127.711848 272.473868 
L 128.417062 249.633179 
L 129.827488 194.448509 
L 131.237915 138.347968 
L 132.648341 91.548751 
L 133.353555 74.527781 
L 134.058768 62.235162 
L 134.763981 55.8 
L 135.469194 56.814711 
L 136.174408 60.118484 
L 136.879621 66.938836 
L 138.290047 97.661452 
L 138.995261 113.965867 
L 140.405687 152.792836 
L 141.816114 181.202189 
L 142.521327 188.016187 
L 143.22654 188.785796 
L 143.931754 184.976248 
L 144.636967 172.632438 
L 145.34218 169.374712 
L 146.047393 174.787983 
L 146.752607 182.730732 
L 147.45782 184.632084 
L 148.163033 185.036863 
L 148.868246 189.533175 
L 149.57346 189.301628 
L 150.278673 190.156006 
L 150.983886 190.320683 
L 151.6891 190.326813 
L 152.394313 189.488663 
L 153.099526 191.027856 
L 153.804739 191.742414 
L 154.509953 191.465402 
L 155.215166 191.83962 
L 155.920379 190.53718 
L 156.625592 191.38662 
L 157.330806 195.000099 
L 158.036019 192.391613 
L 158.741232 190.845655 
L 159.446445 194.151463 
L 160.151659 195.423326 
L 160.856872 196.346382 
L 161.562085 195.856671 
L 162.267299 194.86655 
L 162.972512 191.398498 
L 163.677725 191.027914 
L 164.382938 191.486335 
L 165.088152 192.889255 
L 165.793365 193.836912 
L 166.498578 190.790767 
L 167.203791 191.969675 
L 167.909005 192.586879 
L 168.614218 191.385866 
L 169.319431 190.62714 
L 170.024645 194.858757 
L 170.729858 197.731567 
L 171.435071 196.151516 
L 172.140284 195.214113 
L 172.845498 196.154429 
L 173.550711 197.953011 
L 174.255924 197.089571 
L 174.961137 196.719758 
L 175.666351 196.785659 
L 176.371564 197.192937 
L 177.076777 197.257095 
L 177.781991 196.05539 
L 178.487204 196.504094 
L 179.192417 198.895112 
L 179.89763 197.232392 
L 180.602844 195.930122 
L 181.308057 195.341608 
L 182.01327 194.943642 
L 182.718483 196.184335 
L 183.423697 195.67378 
L 184.12891 193.581153 
L 184.834123 190.893304 
L 186.24455 196.409401 
L 186.949763 196.349245 
L 187.654976 196.704547 
L 188.36019 195.813596 
L 189.065403 195.243352 
L 189.770616 195.616811 
L 190.475829 193.607739 
L 191.181043 194.815481 
L 191.886256 200.68341 
L 192.591469 201.632885 
L 193.296682 198.924997 
L 194.001896 197.350537 
L 194.707109 200.740527 
L 195.412322 202.037612 
L 196.117536 197.605747 
L 196.822749 194.756524 
L 198.233175 196.774912 
L 198.938389 197.009032 
L 199.643602 197.511031 
L 200.348815 196.68544 
L 201.054028 198.349367 
L 201.759242 196.851167 
L 202.464455 193.681379 
L 203.169668 192.778009 
L 203.874882 192.974385 
L 204.580095 195.502178 
L 205.285308 195.79237 
L 205.990521 193.270509 
L 206.695735 191.870796 
L 207.400948 194.953183 
L 208.106161 197.276888 
L 208.811374 196.332871 
L 209.516588 195.007298 
L 210.221801 196.172506 
L 210.927014 198.191034 
L 211.632227 197.782241 
L 212.337441 196.223874 
L 213.042654 196.271242 
L 213.747867 199.03719 
L 214.453081 199.824998 
L 215.158294 197.526882 
L 215.863507 198.50245 
L 216.56872 199.807354 
L 217.273934 199.722465 
L 217.979147 198.52938 
L 218.68436 198.384585 
L 220.094787 198.497589 
L 220.8 200.046554 
L 221.505213 199.281017 
L 222.210427 197.39522 
L 222.91564 198.490923 
L 223.620853 197.911592 
L 224.326066 195.907857 
L 225.03128 198.042187 
L 225.736493 199.530892 
L 227.146919 197.505017 
L 227.852133 198.09693 
L 228.557346 195.51547 
L 229.262559 195.474546 
L 229.967773 197.337071 
L 230.672986 196.132935 
L 231.378199 195.602422 
L 232.083412 194.799487 
L 232.788626 194.770923 
L 233.493839 194.965263 
L 234.904265 194.28585 
L 235.609479 194.908405 
L 236.314692 196.848153 
L 237.725118 193.922791 
L 238.430332 193.817023 
L 239.135545 196.414694 
L 239.840758 197.743031 
L 240.545972 195.96899 
L 241.251185 193.368126 
L 241.956398 195.241537 
L 242.661611 197.507002 
L 243.366825 196.62316 
L 244.072038 195.266991 
L 245.482464 198.162731 
L 246.187678 197.332993 
L 246.892891 198.498079 
L 247.598104 199.42371 
L 249.008531 198.292446 
L 249.713744 199.110784 
L 250.418957 197.191252 
L 251.124171 199.408543 
L 251.829384 202.059485 
L 253.945024 197.041839 
L 254.650237 197.66674 
L 255.35545 199.574338 
L 256.060664 196.426065 
L 256.765877 195.767714 
L 257.47109 196.990215 
L 258.176303 195.132432 
L 258.881517 192.769664 
L 260.291943 196.833144 
L 260.997156 197.137901 
L 261.70237 195.623924 
L 262.407583 195.054624 
L 263.112796 195.811122 
L 263.818009 195.406629 
L 264.523223 196.048592 
L 265.228436 198.037663 
L 265.933649 198.472562 
L 266.638863 197.38576 
L 267.344076 198.011752 
L 268.049289 199.673045 
L 269.459716 199.063827 
L 270.164929 199.172609 
L 270.870142 197.187376 
L 271.575355 195.884698 
L 272.280569 195.515432 
L 272.985782 197.938431 
L 273.690995 197.788896 
L 274.396209 194.968075 
L 275.101422 195.460239 
L 275.806635 197.459785 
L 276.511848 197.275136 
L 277.217062 197.742745 
L 277.922275 197.743299 
L 278.627488 199.46442 
L 279.332701 200.420994 
L 280.037915 198.718349 
L 280.743128 199.768792 
L 281.448341 199.244309 
L 282.153555 196.920152 
L 282.858768 196.402387 
L 283.563981 195.611451 
L 284.269194 196.525686 
L 284.974408 196.496137 
L 285.679621 192.892348 
L 286.384834 194.592377 
L 287.090047 196.918257 
L 287.795261 192.821594 
L 288.500474 189.692192 
L 289.205687 192.200677 
L 289.9109 196.537462 
L 290.616114 196.151049 
L 291.321327 195.410823 
L 292.02654 195.615983 
L 292.731754 194.776448 
L 293.436967 196.153618 
L 294.14218 197.195912 
L 294.847393 198.484797 
L 296.25782 199.80498 
L 296.963033 199.618655 
L 297.668246 197.035575 
L 298.37346 196.308415 
L 299.078673 197.451169 
L 299.783886 196.740016 
L 300.4891 195.657359 
L 301.194313 196.492447 
L 301.899526 198.829367 
L 302.604739 198.770633 
L 303.309953 195.293049 
L 304.015166 194.66649 
L 304.720379 194.644921 
L 305.425592 194.946128 
L 306.130806 196.877982 
L 306.836019 197.794451 
L 308.246445 201.384759 
L 308.951659 199.61894 
L 309.656872 196.214762 
L 310.362085 196.700267 
L 311.067299 196.687258 
L 311.772512 197.3835 
L 312.477725 198.299902 
L 313.182938 199.507704 
L 313.888152 198.485295 
L 314.593365 196.00754 
L 315.298578 197.074512 
L 316.003791 196.674431 
L 316.709005 195.207932 
L 317.414218 195.340934 
L 318.119431 198.029695 
L 318.824645 199.02399 
L 319.529858 197.517531 
L 320.940284 200.348108 
L 321.645498 196.575945 
L 322.350711 195.042647 
L 323.055924 196.358283 
L 323.761137 198.520674 
L 324.466351 198.447949 
L 325.171564 196.321723 
L 325.876777 195.933479 
L 326.581991 195.103129 
L 327.287204 194.552733 
L 327.992417 195.067703 
L 328.69763 193.830955 
L 329.402844 195.492622 
L 330.108057 196.682378 
L 330.81327 196.835219 
L 331.518483 197.686417 
L 332.223697 196.608132 
L 332.92891 193.611674 
L 333.634123 194.160841 
L 334.339336 198.297385 
L 335.04455 200.285717 
L 335.749763 200.632703 
L 336.454976 199.970491 
L 337.16019 200.757242 
L 337.865403 199.606643 
L 338.570616 196.894098 
L 339.275829 194.914573 
L 339.981043 195.476371 
L 340.686256 197.105232 
L 341.391469 196.606452 
L 342.096682 197.99296 
L 342.801896 198.38357 
L 343.507109 194.742429 
L 344.212322 193.902815 
L 344.917536 193.463691 
L 345.622749 193.742251 
L 346.327962 195.545175 
L 347.033175 196.989413 
L 347.738389 199.71491 
L 348.443602 200.358521 
L 349.854028 199.111939 
L 350.559242 197.201022 
L 351.264455 195.981878 
L 351.969668 196.238632 
L 352.674882 198.376319 
L 353.380095 198.776571 
L 354.085308 196.905768 
L 354.790521 196.305702 
L 356.200948 196.197256 
L 356.906161 194.282981 
L 357.611374 194.029134 
L 358.316588 196.788382 
L 359.021801 198.177835 
L 359.727014 197.92704 
L 360.432227 196.900541 
L 361.137441 194.525729 
L 362.547867 195.886334 
L 363.253081 196.778675 
L 363.958294 199.714719 
L 365.36872 199.543724 
L 366.073934 200.370836 
L 366.779147 198.187652 
L 367.48436 196.756915 
L 368.189573 196.601671 
L 368.894787 195.820997 
L 369.6 196.995926 
L 370.305213 198.802894 
L 371.010427 199.910367 
L 371.71564 198.40588 
L 373.126066 194.035856 
L 373.83128 192.701176 
L 374.536493 194.048184 
L 375.241706 195.89398 
L 375.946919 198.435004 
L 376.652133 200.090313 
L 377.357346 198.899968 
L 378.062559 197.456279 
L 378.767773 195.545823 
L 379.472986 196.173794 
L 380.178199 197.523324 
L 380.883412 197.686212 
L 381.588626 199.559654 
L 382.293839 197.914421 
L 382.999052 196.638125 
L 383.704265 198.382462 
L 385.114692 195.109308 
L 385.819905 196.754301 
L 387.230332 198.159636 
L 387.935545 199.84243 
L 388.640758 199.479817 
L 389.345972 198.594996 
L 390.051185 196.400473 
L 390.756398 195.180508 
L 391.461611 194.640319 
L 392.166825 195.492235 
L 392.872038 197.623471 
L 393.577251 196.707442 
L 394.282464 194.780797 
L 394.987678 194.377455 
L 395.692891 193.190605 
L 396.398104 193.484374 
L 397.103318 195.191823 
L 397.808531 197.610938 
L 398.513744 197.09247 
L 399.218957 197.995478 
L 399.924171 200.625188 
L 400.629384 199.386855 
L 401.334597 199.553686 
L 402.03981 198.437773 
L 403.450237 199.764092 
L 404.15545 196.336735 
L 404.860664 196.808893 
L 405.565877 201.374916 
L 406.27109 199.54713 
L 406.976303 196.098125 
L 407.681517 197.733795 
L 408.38673 197.433461 
L 409.091943 196.627924 
L 410.50237 198.872659 
L 411.207583 198.386897 
L 411.912796 194.786939 
L 412.618009 193.146895 
L 413.323223 192.1937 
L 414.028436 192.137365 
L 414.733649 194.084987 
L 415.438863 194.69763 
L 416.144076 193.253117 
L 416.849289 194.003948 
L 417.554502 197.238644 
L 418.259716 198.105571 
L 418.964929 196.318405 
L 419.670142 196.461928 
L 420.375355 198.91104 
L 421.080569 199.960808 
L 421.785782 200.143102 
L 422.490995 200.025329 
L 423.196209 201.484753 
L 423.901422 201.08614 
L 424.606635 198.43655 
L 425.311848 196.796848 
L 426.017062 194.398471 
L 426.722275 193.825965 
L 427.427488 195.441455 
L 428.132701 193.341567 
L 428.837915 192.612571 
L 429.543128 194.794469 
L 430.248341 193.846614 
L 430.953555 194.896851 
L 431.658768 198.702696 
L 432.363981 200.857539 
L 433.069194 201.620033 
L 433.774408 201.778255 
L 434.479621 200.036662 
L 435.184834 199.803982 
L 435.890047 200.107106 
L 436.595261 197.271573 
L 437.300474 197.094494 
L 438.005687 196.43643 
L 438.7109 194.243729 
L 439.416114 195.630767 
L 440.121327 196.083438 
L 440.82654 193.982697 
L 441.531754 194.671623 
L 442.236967 196.826579 
L 442.94218 194.748754 
L 443.647393 195.357968 
L 444.352607 197.548106 
L 445.05782 196.706939 
L 445.763033 196.477824 
L 446.468246 195.926359 
L 447.17346 195.88946 
L 447.878673 196.135527 
L 448.583886 196.253768 
L 449.2891 196.15389 
L 449.994313 196.583878 
L 450.699526 195.671446 
L 451.404739 195.402817 
L 452.109953 195.60469 
L 452.815166 197.113687 
L 453.520379 199.797569 
L 454.225592 200.407026 
L 455.636019 202.691688 
L 456.341232 200.542612 
L 457.046445 199.075694 
L 457.751659 199.274671 
L 458.456872 196.366581 
L 459.867299 195.260438 
L 460.572512 191.88045 
L 461.277725 191.908277 
L 461.982938 192.969608 
L 462.688152 193.414476 
L 463.393365 193.241522 
L 464.098578 194.129558 
L 464.803791 197.228803 
L 465.509005 200.867537 
L 466.214218 202.46705 
L 466.919431 199.612437 
L 467.624645 199.478938 
L 468.329858 202.097063 
L 469.035071 200.991426 
L 469.740284 199.536203 
L 470.445498 200.457917 
L 471.150711 198.956645 
L 471.855924 196.430508 
L 472.561137 192.454272 
L 473.266351 191.18836 
L 473.971564 193.274075 
L 474.676777 193.636066 
L 476.792417 195.76876 
L 477.49763 197.1299 
L 478.202844 197.673788 
L 478.908057 196.139497 
L 479.61327 196.349674 
L 480.318483 197.841041 
L 481.023697 198.207032 
L 481.72891 196.14312 
L 482.434123 195.931921 
L 483.139336 196.903059 
L 483.84455 193.93978 
L 484.549763 193.251761 
L 485.254976 193.565967 
L 485.96019 194.622012 
L 486.665403 196.974151 
L 487.370616 198.55954 
L 488.075829 199.106928 
L 488.781043 196.769978 
L 489.486256 197.964525 
L 490.191469 199.946283 
L 490.896682 197.512617 
L 491.601896 199.16519 
L 492.307109 201.282479 
L 493.012322 198.237072 
L 494.422749 193.915895 
L 495.833175 193.709625 
L 496.538389 193.552824 
L 497.243602 195.883164 
L 497.948815 196.94903 
L 498.654028 197.693277 
L 499.359242 198.891425 
L 500.064455 200.363611 
L 500.769668 199.428645 
L 501.474882 199.069216 
L 502.180095 201.222977 
L 502.885308 200.923042 
L 503.590521 199.481553 
L 504.295735 200.339653 
L 505.000948 197.123298 
L 505.706161 193.169575 
L 506.411374 193.663948 
L 507.116588 193.876871 
L 507.821801 193.824897 
L 508.527014 193.897828 
L 509.232227 194.203517 
L 509.937441 194.729453 
L 510.642654 195.453052 
L 512.053081 197.352512 
L 514.16872 200.540162 
L 514.873934 201.411185 
L 515.579147 202.039648 
L 516.28436 202.322358 
L 516.989573 202.146048 
L 517.694787 201.387375 
L 518.4 199.912921 
L 518.4 199.912921 
" style="fill:none;stroke:#ff0000;stroke-linecap:square;stroke-width:2;"/>
   </g>
   <g id="patch_3">
    <path d="M 72 320.4 
L 72 43.2 
" style="fill:none;stroke:#000000;stroke-linecap:square;stroke-linejoin:miter;stroke-width:0.8;"/>
   </g>
   <g id="patch_4">
    <path d="M 518.4 320.4 
L 518.4 43.2 
" style="fill:none;stroke:#000000;stroke-linecap:square;stroke-linejoin:miter;stroke-width:0.8;"/>
   </g>
   <g id="patch_5">
    <path d="M 72 320.4 
L 518.4 320.4 
" style="fill:none;stroke:#000000;stroke-linecap:square;stroke-linejoin:miter;stroke-width:0.8;"/>
   </g>
   <g id="patch_6">
    <path d="M 72 43.2 
L 518.4 43.2 
" style="fill:none;stroke:#000000;stroke-linecap:square;stroke-linejoin:miter;stroke-width:0.8;"/>
   </g>
   <g id="text_19">
    <!-- Front Propogation Speed -->
    <g transform="translate(172.245312 37.2)scale(0.2 -0.2)">
     <defs>
      <path d="M 628 4666 
L 3309 4666 
L 3309 4134 
L 1259 4134 
L 1259 2759 
L 3109 2759 
L 3109 2228 
L 1259 2228 
L 1259 0 
L 628 0 
L 628 4666 
z
" id="DejaVuSans-46" transform="scale(0.015625)"/>
      <path d="M 2631 2963 
Q 2534 3019 2420 3045 
Q 2306 3072 2169 3072 
Q 1681 3072 1420 2755 
Q 1159 2438 1159 1844 
L 1159 0 
L 581 0 
L 581 3500 
L 1159 3500 
L 1159 2956 
Q 1341 3275 1631 3429 
Q 1922 3584 2338 3584 
Q 2397 3584 2469 3576 
Q 2541 3569 2628 3553 
L 2631 2963 
z
" id="DejaVuSans-72" transform="scale(0.015625)"/>
      <path d="M 1172 4494 
L 1172 3500 
L 2356 3500 
L 2356 3053 
L 1172 3053 
L 1172 1153 
Q 1172 725 1289 603 
Q 1406 481 1766 481 
L 2356 481 
L 2356 0 
L 1766 0 
Q 1100 0 847 248 
Q 594 497 594 1153 
L 594 3053 
L 172 3053 
L 172 3500 
L 594 3500 
L 594 4494 
L 1172 4494 
z
" id="DejaVuSans-74" transform="scale(0.015625)"/>
      <path d="M 1259 4147 
L 1259 2394 
L 2053 2394 
Q 2494 2394 2734 2622 
Q 2975 2850 2975 3272 
Q 2975 3691 2734 3919 
Q 2494 4147 2053 4147 
L 1259 4147 
z
M 628 4666 
L 2053 4666 
Q 2838 4666 3239 4311 
Q 3641 3956 3641 3272 
Q 3641 2581 3239 2228 
Q 2838 1875 2053 1875 
L 1259 1875 
L 1259 0 
L 628 0 
L 628 4666 
z
" id="DejaVuSans-50" transform="scale(0.015625)"/>
      <path d="M 2906 1791 
Q 2906 2416 2648 2759 
Q 2391 3103 1925 3103 
Q 1463 3103 1205 2759 
Q 947 2416 947 1791 
Q 947 1169 1205 825 
Q 1463 481 1925 481 
Q 2391 481 2648 825 
Q 2906 1169 2906 1791 
z
M 3481 434 
Q 3481 -459 3084 -895 
Q 2688 -1331 1869 -1331 
Q 1566 -1331 1297 -1286 
Q 1028 -1241 775 -1147 
L 775 -588 
Q 1028 -725 1275 -790 
Q 1522 -856 1778 -856 
Q 2344 -856 2625 -561 
Q 2906 -266 2906 331 
L 2906 616 
Q 2728 306 2450 153 
Q 2172 0 1784 0 
Q 1141 0 747 490 
Q 353 981 353 1791 
Q 353 2603 747 3093 
Q 1141 3584 1784 3584 
Q 2172 3584 2450 3431 
Q 2728 3278 2906 2969 
L 2906 3500 
L 3481 3500 
L 3481 434 
z
" id="DejaVuSans-67" transform="scale(0.015625)"/>
      <path d="M 2194 1759 
Q 1497 1759 1228 1600 
Q 959 1441 959 1056 
Q 959 750 1161 570 
Q 1363 391 1709 391 
Q 2188 391 2477 730 
Q 2766 1069 2766 1631 
L 2766 1759 
L 2194 1759 
z
M 3341 1997 
L 3341 0 
L 2766 0 
L 2766 531 
Q 2569 213 2275 61 
Q 1981 -91 1556 -91 
Q 1019 -91 701 211 
Q 384 513 384 1019 
Q 384 1609 779 1909 
Q 1175 2209 1959 2209 
L 2766 2209 
L 2766 2266 
Q 2766 2663 2505 2880 
Q 2244 3097 1772 3097 
Q 1472 3097 1187 3025 
Q 903 2953 641 2809 
L 641 3341 
Q 956 3463 1253 3523 
Q 1550 3584 1831 3584 
Q 2591 3584 2966 3190 
Q 3341 2797 3341 1997 
z
" id="DejaVuSans-61" transform="scale(0.015625)"/>
     </defs>
     <use xlink:href="#DejaVuSans-46"/>
     <use x="50.269531" xlink:href="#DejaVuSans-72"/>
     <use x="89.132812" xlink:href="#DejaVuSans-6f"/>
     <use x="150.314453" xlink:href="#DejaVuSans-6e"/>
     <use x="213.693359" xlink:href="#DejaVuSans-74"/>
     <use x="252.902344" xlink:href="#DejaVuSans-20"/>
     <use x="284.689453" xlink:href="#DejaVuSans-50"/>
     <use x="343.242188" xlink:href="#DejaVuSans-72"/>
     <use x="382.105469" xlink:href="#DejaVuSans-6f"/>
     <use x="443.287109" xlink:href="#DejaVuSans-70"/>
     <use x="506.763672" xlink:href="#DejaVuSans-6f"/>
     <use x="567.945312" xlink:href="#DejaVuSans-67"/>
     <use x="631.421875" xlink:href="#DejaVuSans-61"/>
     <use x="692.701172" xlink:href="#DejaVuSans-74"/>
     <use x="731.910156" xlink:href="#DejaVuSans-69"/>
     <use x="759.693359" xlink:href="#DejaVuSans-6f"/>
     <use x="820.875" xlink:href="#DejaVuSans-6e"/>
     <use x="884.253906" xlink:href="#DejaVuSans-20"/>
     <use x="916.041016" xlink:href="#DejaVuSans-53"/>
     <use x="979.517578" xlink:href="#DejaVuSans-70"/>
     <use x="1042.994141" xlink:href="#DejaVuSans-65"/>
     <use x="1104.517578" xlink:href="#DejaVuSans-65"/>
     <use x="1166.041016" xlink:href="#DejaVuSans-64"/>
    </g>
   </g>
   <g id="legend_1">
    <g id="patch_7">
     <path d="M 325.967812 111.175687 
L 508.6 111.175687 
Q 511.4 111.175687 511.4 108.375687 
L 511.4 53 
Q 511.4 50.2 508.6 50.2 
L 325.967812 50.2 
Q 323.167812 50.2 323.167812 53 
L 323.167812 108.375687 
Q 323.167812 111.175687 325.967812 111.175687 
z
" style="fill:#ffffff;opacity:0.8;stroke:#cccccc;stroke-linejoin:miter;"/>
    </g>
    <g id="line2d_19">
     <path d="M 328.767812 61.537812 
L 356.767812 61.537812 
" style="fill:none;stroke:#ff0000;stroke-linecap:square;stroke-width:2;"/>
    </g>
    <g id="line2d_20"/>
    <g id="text_20">
     <!-- Front speed -->
     <g transform="translate(367.967812 66.437812)scale(0.14 -0.14)">
      <use xlink:href="#DejaVuSans-46"/>
      <use x="50.269531" xlink:href="#DejaVuSans-72"/>
      <use x="89.132812" xlink:href="#DejaVuSans-6f"/>
      <use x="150.314453" xlink:href="#DejaVuSans-6e"/>
      <use x="213.693359" xlink:href="#DejaVuSans-74"/>
      <use x="252.902344" xlink:href="#DejaVuSans-20"/>
      <use x="284.689453" xlink:href="#DejaVuSans-73"/>
      <use x="336.789062" xlink:href="#DejaVuSans-70"/>
      <use x="400.265625" xlink:href="#DejaVuSans-65"/>
      <use x="461.789062" xlink:href="#DejaVuSans-65"/>
      <use x="523.3125" xlink:href="#DejaVuSans-64"/>
     </g>
    </g>
    <g id="line2d_21">
     <path d="M 328.767812 91.381437 
L 356.767812 91.381437 
" style="fill:none;stroke:#000000;stroke-dasharray:5.55,2.4;stroke-dashoffset:0;stroke-width:1.5;"/>
    </g>
    <g id="line2d_22"/>
    <g id="text_21">
     <!-- Steady state -->
     <g transform="translate(367.967812 86.987187)scale(0.14 -0.14)">
      <defs>
       <path d="M 2059 -325 
Q 1816 -950 1584 -1140 
Q 1353 -1331 966 -1331 
L 506 -1331 
L 506 -850 
L 844 -850 
Q 1081 -850 1212 -737 
Q 1344 -625 1503 -206 
L 1606 56 
L 191 3500 
L 800 3500 
L 1894 763 
L 2988 3500 
L 3597 3500 
L 2059 -325 
z
" id="DejaVuSans-79" transform="scale(0.015625)"/>
      </defs>
      <use xlink:href="#DejaVuSans-53"/>
      <use x="63.476562" xlink:href="#DejaVuSans-74"/>
      <use x="102.685547" xlink:href="#DejaVuSans-65"/>
      <use x="164.208984" xlink:href="#DejaVuSans-61"/>
      <use x="225.488281" xlink:href="#DejaVuSans-64"/>
      <use x="288.964844" xlink:href="#DejaVuSans-79"/>
      <use x="348.144531" xlink:href="#DejaVuSans-20"/>
      <use x="379.931641" xlink:href="#DejaVuSans-73"/>
      <use x="432.03125" xlink:href="#DejaVuSans-74"/>
      <use x="471.240234" xlink:href="#DejaVuSans-61"/>
      <use x="532.519531" xlink:href="#DejaVuSans-74"/>
      <use x="571.728516" xlink:href="#DejaVuSans-65"/>
     </g>
     <!-- speed = 0.73 mm/s -->
     <g transform="translate(367.967812 102.664125)scale(0.14 -0.14)">
      <defs>
       <path d="M 678 2906 
L 4684 2906 
L 4684 2381 
L 678 2381 
L 678 2906 
z
M 678 1631 
L 4684 1631 
L 4684 1100 
L 678 1100 
L 678 1631 
z
" id="DejaVuSans-3d" transform="scale(0.015625)"/>
       <path d="M 2597 2516 
Q 3050 2419 3304 2112 
Q 3559 1806 3559 1356 
Q 3559 666 3084 287 
Q 2609 -91 1734 -91 
Q 1441 -91 1130 -33 
Q 819 25 488 141 
L 488 750 
Q 750 597 1062 519 
Q 1375 441 1716 441 
Q 2309 441 2620 675 
Q 2931 909 2931 1356 
Q 2931 1769 2642 2001 
Q 2353 2234 1838 2234 
L 1294 2234 
L 1294 2753 
L 1863 2753 
Q 2328 2753 2575 2939 
Q 2822 3125 2822 3475 
Q 2822 3834 2567 4026 
Q 2313 4219 1838 4219 
Q 1578 4219 1281 4162 
Q 984 4106 628 3988 
L 628 4550 
Q 988 4650 1302 4700 
Q 1616 4750 1894 4750 
Q 2613 4750 3031 4423 
Q 3450 4097 3450 3541 
Q 3450 3153 3228 2886 
Q 3006 2619 2597 2516 
z
" id="DejaVuSans-33" transform="scale(0.015625)"/>
      </defs>
      <use xlink:href="#DejaVuSans-73"/>
      <use x="52.099609" xlink:href="#DejaVuSans-70"/>
      <use x="115.576172" xlink:href="#DejaVuSans-65"/>
      <use x="177.099609" xlink:href="#DejaVuSans-65"/>
      <use x="238.623047" xlink:href="#DejaVuSans-64"/>
      <use x="302.099609" xlink:href="#DejaVuSans-20"/>
      <use x="333.886719" xlink:href="#DejaVuSans-3d"/>
      <use x="417.675781" xlink:href="#DejaVuSans-20"/>
      <use x="449.462891" xlink:href="#DejaVuSans-30"/>
      <use x="513.085938" xlink:href="#DejaVuSans-2e"/>
      <use x="544.873047" xlink:href="#DejaVuSans-37"/>
      <use x="608.496094" xlink:href="#DejaVuSans-33"/>
      <use x="672.119141" xlink:href="#DejaVuSans-20"/>
      <use x="703.90625" xlink:href="#DejaVuSans-6d"/>
      <use x="801.318359" xlink:href="#DejaVuSans-6d"/>
      <use x="898.730469" xlink:href="#DejaVuSans-2f"/>
      <use x="932.421875" xlink:href="#DejaVuSans-73"/>
     </g>
    </g>
   </g>
  </g>
 </g>
 <defs>
  <clipPath id="pd9e6d3a3ee">
   <rect height="277.2" width="446.4" x="72" y="43.2"/>
  </clipPath>
 </defs>
</svg>
