<?xml version="1.0" encoding="utf-8" standalone="no"?>
<!DOCTYPE svg PUBLIC "-//W3C//DTD SVG 1.1//EN"
  "http://www.w3.org/Graphics/SVG/1.1/DTD/svg11.dtd">
<svg height="360pt" version="1.1" viewBox="0 0 576 360" width="576pt" xmlns="http://www.w3.org/2000/svg" xmlns:xlink="http://www.w3.org/1999/xlink">
 <metadata>
  <rdf:RDF xmlns:cc="http://creativecommons.org/ns#" xmlns:dc="http://purl.org/dc/elements/1.1/" xmlns:rdf="http://www.w3.org/1999/02/22-rdf-syntax-ns#">
   <cc:Work>
    <dc:type rdf:resource="http://purl.org/dc/dcmitype/StillImage"/>
    <dc:date>2022-06-30T14:11:18.101189</dc:date>
    <dc:format>image/svg+xml</dc:format>
    <dc:creator>
     <cc:Agent>
      <dc:title>Matplotlib v3.4.3, https://matplotlib.org/</dc:title>
     </cc:Agent>
    </dc:creator>
   </cc:Work>
  </rdf:RDF>
 </metadata>
 <defs>
  <style type="text/css">*{stroke-linecap:butt;stroke-linejoin:round;}</style>
 </defs>
 <g id="figure_1">
  <g id="patch_1">
   <path d="M 0 360 
L 576 360 
L 576 0 
L 0 0 
z
" style="fill:#ffffff;"/>
  </g>
  <g id="axes_1">
   <g id="patch_2">
    <path d="M 72 320.4 
L 518.4 320.4 
L 518.4 43.2 
L 72 43.2 
z
" style="fill:#ffffff;"/>
   </g>
   <g id="PolyCollection_1">
    <defs>
     <path d="M 72 -153.389514 
L 72 -157.714967 
L 72.695327 -157.714967 
L 73.390654 -157.714967 
L 74.085981 -157.714967 
L 74.781308 -157.714967 
L 75.476636 -157.714967 
L 76.171963 -157.714967 
L 76.86729 -157.714967 
L 77.562617 -157.714967 
L 78.257944 -157.714967 
L 78.953271 -157.714967 
L 79.648598 -157.714967 
L 80.343925 -157.714967 
L 81.039252 -157.714967 
L 81.734579 -157.714967 
L 82.429907 -157.714967 
L 83.125234 -157.714967 
L 83.820561 -157.714967 
L 84.515888 -157.714967 
L 85.211215 -157.714967 
L 85.906542 -157.714967 
L 86.601869 -157.714967 
L 87.297196 -157.714967 
L 87.992523 -157.714967 
L 88.68785 -157.714967 
L 89.383178 -157.714967 
L 90.078505 -157.714967 
L 90.773832 -157.714967 
L 91.469159 -157.714967 
L 92.164486 -157.714967 
L 92.859813 -157.714967 
L 93.55514 -157.714967 
L 94.250467 -157.714967 
L 94.945794 -157.714967 
L 95.641121 -157.714967 
L 96.336449 -157.714967 
L 97.031776 -157.714967 
L 97.727103 -157.714967 
L 98.42243 -157.714967 
L 99.117757 -157.714967 
L 99.813084 -157.714967 
L 100.508411 -157.714967 
L 101.203738 -157.714967 
L 101.899065 -157.714967 
L 102.594393 -157.714967 
L 103.28972 -157.714967 
L 103.985047 -157.714967 
L 104.680374 -157.714967 
L 105.375701 -157.714967 
L 106.071028 -157.714967 
L 106.766355 -157.714967 
L 107.461682 -157.714967 
L 108.157009 -157.714967 
L 108.852336 -157.714967 
L 109.547664 -157.714967 
L 110.242991 -157.714967 
L 110.938318 -157.714967 
L 111.633645 -157.714967 
L 112.328972 -157.714967 
L 113.024299 -157.714967 
L 113.719626 -157.714967 
L 114.414953 -157.714967 
L 115.11028 -157.714967 
L 115.805607 -157.714967 
L 116.500935 -157.714967 
L 117.196262 -157.714967 
L 117.891589 -157.714967 
L 118.586916 -157.714967 
L 119.282243 -157.714967 
L 119.97757 -157.714967 
L 120.672897 -157.714967 
L 121.368224 -157.714967 
L 122.063551 -157.714967 
L 122.758879 -157.714967 
L 123.454206 -157.714967 
L 124.149533 -157.714967 
L 124.84486 -157.714967 
L 125.540187 -157.714967 
L 126.235514 -157.714967 
L 126.930841 -157.714967 
L 127.626168 -157.714967 
L 128.321495 -157.714967 
L 129.016822 -157.714967 
L 129.71215 -157.714967 
L 130.407477 -157.714967 
L 131.102804 -157.714967 
L 131.798131 -157.714967 
L 132.493458 -157.714967 
L 133.188785 -157.714967 
L 133.884112 -157.714967 
L 134.579439 -157.714967 
L 135.274766 -157.714967 
L 135.970093 -157.714967 
L 136.665421 -157.714967 
L 137.360748 -157.714967 
L 138.056075 -157.714967 
L 138.751402 -157.714967 
L 139.446729 -157.714967 
L 140.142056 -157.714967 
L 140.837383 -157.714967 
L 141.53271 -157.714967 
L 142.228037 -157.714967 
L 142.923364 -157.714967 
L 143.618692 -157.714967 
L 144.314019 -157.714967 
L 145.009346 -157.714967 
L 145.704673 -157.714967 
L 146.4 -157.714967 
L 147.095327 -157.714967 
L 147.790654 -157.714967 
L 148.485981 -157.714967 
L 149.181308 -157.714967 
L 149.876636 -157.714967 
L 150.571963 -157.714967 
L 151.26729 -157.714967 
L 151.962617 -157.714967 
L 152.657944 -157.714967 
L 153.353271 -157.714967 
L 154.048598 -157.714967 
L 154.743925 -157.714967 
L 155.439252 -157.714967 
L 156.134579 -157.714967 
L 156.829907 -157.714967 
L 157.525234 -157.714967 
L 158.220561 -157.714967 
L 158.915888 -157.714967 
L 159.611215 -157.714967 
L 160.306542 -157.714967 
L 161.001869 -157.714967 
L 161.697196 -157.714967 
L 162.392523 -157.714967 
L 163.08785 -157.714967 
L 163.783178 -157.714967 
L 164.478505 -157.714967 
L 165.173832 -157.714967 
L 165.869159 -157.714967 
L 166.564486 -157.714967 
L 167.259813 -157.714967 
L 167.95514 -157.714967 
L 168.650467 -157.714967 
L 169.345794 -157.714967 
L 170.041121 -157.714967 
L 170.736449 -157.714967 
L 171.431776 -157.714967 
L 172.127103 -157.714967 
L 172.82243 -157.714967 
L 173.517757 -157.714967 
L 174.213084 -157.714967 
L 174.908411 -157.714967 
L 175.603738 -157.714967 
L 176.299065 -157.714967 
L 176.994393 -157.714967 
L 177.68972 -157.714967 
L 178.385047 -157.714967 
L 179.080374 -157.714967 
L 179.775701 -157.714967 
L 180.471028 -157.714967 
L 181.166355 -157.714967 
L 181.861682 -157.714967 
L 182.557009 -157.714967 
L 183.252336 -157.714967 
L 183.947664 -157.714967 
L 184.642991 -157.714967 
L 185.338318 -157.714967 
L 186.033645 -157.714967 
L 186.728972 -157.714967 
L 187.424299 -157.714967 
L 188.119626 -157.714967 
L 188.814953 -157.714967 
L 189.51028 -157.714967 
L 190.205607 -157.714967 
L 190.900935 -157.714967 
L 191.596262 -157.714967 
L 192.291589 -157.714967 
L 192.986916 -157.714967 
L 193.682243 -157.714967 
L 194.37757 -157.714967 
L 195.072897 -157.714967 
L 195.768224 -157.714967 
L 196.463551 -157.714967 
L 197.158879 -157.714967 
L 197.854206 -157.714967 
L 198.549533 -157.714967 
L 199.24486 -157.714967 
L 199.940187 -157.714967 
L 200.635514 -157.714967 
L 201.330841 -157.714967 
L 202.026168 -157.714967 
L 202.721495 -157.714967 
L 203.416822 -157.714967 
L 204.11215 -157.714967 
L 204.807477 -157.714967 
L 205.502804 -157.714967 
L 206.198131 -157.714967 
L 206.893458 -157.714967 
L 207.588785 -157.714967 
L 208.284112 -157.714967 
L 208.979439 -157.714967 
L 209.674766 -157.714967 
L 210.370093 -157.714967 
L 211.065421 -157.714967 
L 211.760748 -157.714967 
L 212.456075 -157.714967 
L 213.151402 -157.714967 
L 213.846729 -157.714967 
L 214.542056 -157.714967 
L 215.237383 -157.714967 
L 215.93271 -157.714967 
L 216.628037 -157.714967 
L 217.323364 -157.714967 
L 218.018692 -157.714967 
L 218.714019 -157.714967 
L 219.409346 -157.714967 
L 220.104673 -157.714967 
L 220.8 -157.714967 
L 221.495327 -157.714967 
L 222.190654 -157.714967 
L 222.885981 -157.714967 
L 223.581308 -157.714967 
L 224.276636 -157.714967 
L 224.971963 -157.714967 
L 225.66729 -157.714967 
L 226.362617 -157.714967 
L 227.057944 -157.714967 
L 227.753271 -157.714967 
L 228.448598 -157.714967 
L 229.143925 -157.714967 
L 229.839252 -157.714967 
L 230.534579 -157.714967 
L 231.229907 -157.714967 
L 231.925234 -157.714967 
L 232.620561 -157.714967 
L 233.315888 -157.714967 
L 234.011215 -157.714967 
L 234.706542 -157.714967 
L 235.401869 -157.714967 
L 236.097196 -157.714967 
L 236.792523 -157.714967 
L 237.48785 -157.714967 
L 238.183178 -157.714967 
L 238.878505 -157.714967 
L 239.573832 -157.714967 
L 240.269159 -157.714967 
L 240.964486 -157.714967 
L 241.659813 -157.714967 
L 242.35514 -157.714967 
L 243.050467 -157.714967 
L 243.745794 -157.714967 
L 244.441121 -157.714967 
L 245.136449 -157.714967 
L 245.831776 -157.714967 
L 246.527103 -157.714967 
L 247.22243 -157.714967 
L 247.917757 -157.714967 
L 248.613084 -157.714967 
L 249.308411 -157.714967 
L 250.003738 -157.714967 
L 250.699065 -157.714967 
L 251.394393 -157.714967 
L 252.08972 -157.714967 
L 252.785047 -157.714967 
L 253.480374 -157.714967 
L 254.175701 -157.714967 
L 254.871028 -157.714967 
L 255.566355 -157.714967 
L 256.261682 -157.714967 
L 256.957009 -157.714967 
L 257.652336 -157.714967 
L 258.347664 -157.714967 
L 259.042991 -157.714967 
L 259.738318 -157.714967 
L 260.433645 -157.714967 
L 261.128972 -157.714967 
L 261.824299 -157.714967 
L 262.519626 -157.714967 
L 263.214953 -157.714967 
L 263.91028 -157.714967 
L 264.605607 -157.714967 
L 265.300935 -157.714967 
L 265.996262 -157.714967 
L 266.691589 -157.714967 
L 267.386916 -157.714967 
L 268.082243 -157.714967 
L 268.77757 -157.714967 
L 269.472897 -157.714967 
L 270.168224 -157.714967 
L 270.863551 -157.714967 
L 271.558879 -157.714967 
L 272.254206 -157.714967 
L 272.949533 -157.714967 
L 273.64486 -157.714967 
L 274.340187 -157.714967 
L 275.035514 -157.714967 
L 275.730841 -157.714967 
L 276.426168 -157.714967 
L 277.121495 -157.714967 
L 277.816822 -157.714967 
L 278.51215 -157.714967 
L 279.207477 -157.714967 
L 279.902804 -157.714967 
L 280.598131 -157.714967 
L 281.293458 -157.714967 
L 281.988785 -157.714967 
L 282.684112 -157.714967 
L 283.379439 -157.714967 
L 284.074766 -157.714967 
L 284.770093 -157.714967 
L 285.465421 -157.714967 
L 286.160748 -157.714967 
L 286.856075 -157.714967 
L 287.551402 -157.714967 
L 288.246729 -157.714967 
L 288.942056 -157.714967 
L 289.637383 -157.714967 
L 290.33271 -157.714967 
L 291.028037 -157.714967 
L 291.723364 -157.714967 
L 292.418692 -157.714967 
L 293.114019 -157.714967 
L 293.809346 -157.714967 
L 294.504673 -157.714967 
L 295.2 -157.714967 
L 295.895327 -157.714967 
L 296.590654 -157.714967 
L 297.285981 -157.714967 
L 297.981308 -157.714967 
L 298.676636 -157.714967 
L 299.371963 -157.714967 
L 300.06729 -157.714967 
L 300.762617 -157.714967 
L 301.457944 -157.714967 
L 302.153271 -157.714967 
L 302.848598 -157.714967 
L 303.543925 -157.714967 
L 304.239252 -157.714967 
L 304.934579 -157.714967 
L 305.629907 -157.714967 
L 306.325234 -157.714967 
L 307.020561 -157.714967 
L 307.715888 -157.714967 
L 308.411215 -157.714967 
L 309.106542 -157.714967 
L 309.801869 -157.714967 
L 310.497196 -157.714967 
L 311.192523 -157.714967 
L 311.88785 -157.714967 
L 312.583178 -157.714967 
L 313.278505 -157.714967 
L 313.973832 -157.714967 
L 314.669159 -157.714967 
L 315.364486 -157.714967 
L 316.059813 -157.714967 
L 316.75514 -157.714967 
L 317.450467 -157.714967 
L 318.145794 -157.714967 
L 318.841121 -157.714967 
L 319.536449 -157.714967 
L 320.231776 -157.714967 
L 320.927103 -157.714967 
L 321.62243 -157.714967 
L 322.317757 -157.714967 
L 323.013084 -157.714967 
L 323.708411 -157.714967 
L 324.403738 -157.714967 
L 325.099065 -157.714967 
L 325.794393 -157.714967 
L 326.48972 -157.714967 
L 327.185047 -157.714967 
L 327.880374 -157.714967 
L 328.575701 -157.714967 
L 329.271028 -157.714967 
L 329.966355 -157.714967 
L 330.661682 -157.714967 
L 331.357009 -157.714967 
L 332.052336 -157.714967 
L 332.747664 -157.714967 
L 333.442991 -157.714967 
L 334.138318 -157.714967 
L 334.833645 -157.714967 
L 335.528972 -157.714967 
L 336.224299 -157.714967 
L 336.919626 -157.714967 
L 337.614953 -157.714967 
L 338.31028 -157.714967 
L 339.005607 -157.714967 
L 339.700935 -157.714967 
L 340.396262 -157.714967 
L 341.091589 -157.714967 
L 341.786916 -157.714967 
L 342.482243 -157.714967 
L 343.17757 -157.714967 
L 343.872897 -157.714967 
L 344.568224 -157.714967 
L 345.263551 -157.714967 
L 345.958879 -157.714967 
L 346.654206 -157.714967 
L 347.349533 -157.714967 
L 348.04486 -157.714967 
L 348.740187 -157.714967 
L 349.435514 -157.714967 
L 350.130841 -157.714967 
L 350.826168 -157.714967 
L 351.521495 -157.714967 
L 352.216822 -157.714967 
L 352.91215 -157.714967 
L 353.607477 -157.714967 
L 354.302804 -157.714967 
L 354.998131 -157.714967 
L 355.693458 -157.714967 
L 356.388785 -157.714967 
L 357.084112 -157.714967 
L 357.779439 -157.714967 
L 358.474766 -157.714967 
L 359.170093 -157.714967 
L 359.865421 -157.714967 
L 360.560748 -157.714967 
L 361.256075 -157.714967 
L 361.951402 -157.714967 
L 362.646729 -157.714967 
L 363.342056 -157.714967 
L 364.037383 -157.714967 
L 364.73271 -157.714967 
L 365.428037 -157.714967 
L 366.123364 -157.714967 
L 366.818692 -157.714967 
L 367.514019 -157.714967 
L 368.209346 -157.714967 
L 368.904673 -157.714967 
L 369.6 -157.714967 
L 370.295327 -157.714967 
L 370.990654 -157.714967 
L 371.685981 -157.714967 
L 372.381308 -157.714967 
L 373.076636 -157.714967 
L 373.771963 -157.714967 
L 374.46729 -157.714967 
L 375.162617 -157.714967 
L 375.857944 -157.714967 
L 376.553271 -157.714967 
L 377.248598 -157.714967 
L 377.943925 -157.714967 
L 378.639252 -157.714967 
L 379.334579 -157.714967 
L 380.029907 -157.714967 
L 380.725234 -157.714967 
L 381.420561 -157.714967 
L 382.115888 -157.714967 
L 382.811215 -157.714967 
L 383.506542 -157.714967 
L 384.201869 -157.714967 
L 384.897196 -157.714967 
L 385.592523 -157.714967 
L 386.28785 -157.714967 
L 386.983178 -157.714967 
L 387.678505 -157.714967 
L 388.373832 -157.714967 
L 389.069159 -157.714967 
L 389.764486 -157.714967 
L 390.459813 -157.714967 
L 391.15514 -157.714967 
L 391.850467 -157.714967 
L 392.545794 -157.714967 
L 393.241121 -157.714967 
L 393.936449 -157.714967 
L 394.631776 -157.714967 
L 395.327103 -157.714967 
L 396.02243 -157.714967 
L 396.717757 -157.714967 
L 397.413084 -157.714967 
L 398.108411 -157.714967 
L 398.803738 -157.714967 
L 399.499065 -157.714967 
L 400.194393 -157.714967 
L 400.88972 -157.714967 
L 401.585047 -157.714967 
L 402.280374 -157.714967 
L 402.975701 -157.714967 
L 403.671028 -157.714967 
L 404.366355 -157.714967 
L 405.061682 -157.714967 
L 405.757009 -157.714967 
L 406.452336 -157.714967 
L 407.147664 -157.714967 
L 407.842991 -157.714967 
L 408.538318 -157.714967 
L 409.233645 -157.714967 
L 409.928972 -157.714967 
L 410.624299 -157.714967 
L 411.319626 -157.714967 
L 412.014953 -157.714967 
L 412.71028 -157.714967 
L 413.405607 -157.714967 
L 414.100935 -157.714967 
L 414.796262 -157.714967 
L 415.491589 -157.714967 
L 416.186916 -157.714967 
L 416.882243 -157.714967 
L 417.57757 -157.714967 
L 418.272897 -157.714967 
L 418.968224 -157.714967 
L 419.663551 -157.714967 
L 420.358879 -157.714967 
L 421.054206 -157.714967 
L 421.749533 -157.714967 
L 422.44486 -157.714967 
L 423.140187 -157.714967 
L 423.835514 -157.714967 
L 424.530841 -157.714967 
L 425.226168 -157.714967 
L 425.921495 -157.714967 
L 426.616822 -157.714967 
L 427.31215 -157.714967 
L 428.007477 -157.714967 
L 428.702804 -157.714967 
L 429.398131 -157.714967 
L 430.093458 -157.714967 
L 430.788785 -157.714967 
L 431.484112 -157.714967 
L 432.179439 -157.714967 
L 432.874766 -157.714967 
L 433.570093 -157.714967 
L 434.265421 -157.714967 
L 434.960748 -157.714967 
L 435.656075 -157.714967 
L 436.351402 -157.714967 
L 437.046729 -157.714967 
L 437.742056 -157.714967 
L 438.437383 -157.714967 
L 439.13271 -157.714967 
L 439.828037 -157.714967 
L 440.523364 -157.714967 
L 441.218692 -157.714967 
L 441.914019 -157.714967 
L 442.609346 -157.714967 
L 443.304673 -157.714967 
L 444 -157.714967 
L 444.695327 -157.714967 
L 445.390654 -157.714967 
L 446.085981 -157.714967 
L 446.781308 -157.714967 
L 447.476636 -157.714967 
L 448.171963 -157.714967 
L 448.86729 -157.714967 
L 449.562617 -157.714967 
L 450.257944 -157.714967 
L 450.953271 -157.714967 
L 451.648598 -157.714967 
L 452.343925 -157.714967 
L 453.039252 -157.714967 
L 453.734579 -157.714967 
L 454.429907 -157.714967 
L 455.125234 -157.714967 
L 455.820561 -157.714967 
L 456.515888 -157.714967 
L 457.211215 -157.714967 
L 457.906542 -157.714967 
L 458.601869 -157.714967 
L 459.297196 -157.714967 
L 459.992523 -157.714967 
L 460.68785 -157.714967 
L 461.383178 -157.714967 
L 462.078505 -157.714967 
L 462.773832 -157.714967 
L 463.469159 -157.714967 
L 464.164486 -157.714967 
L 464.859813 -157.714967 
L 465.55514 -157.714967 
L 466.250467 -157.714967 
L 466.945794 -157.714967 
L 467.641121 -157.714967 
L 468.336449 -157.714967 
L 469.031776 -157.714967 
L 469.727103 -157.714967 
L 470.42243 -157.714967 
L 471.117757 -157.714967 
L 471.813084 -157.714967 
L 472.508411 -157.714967 
L 473.203738 -157.714967 
L 473.899065 -157.714967 
L 474.594393 -157.714967 
L 475.28972 -157.714967 
L 475.985047 -157.714967 
L 476.680374 -157.714967 
L 477.375701 -157.714967 
L 478.071028 -157.714967 
L 478.766355 -157.714967 
L 479.461682 -157.714967 
L 480.157009 -157.714967 
L 480.852336 -157.714967 
L 481.547664 -157.714967 
L 482.242991 -157.714967 
L 482.938318 -157.714967 
L 483.633645 -157.714967 
L 484.328972 -157.714967 
L 485.024299 -157.714967 
L 485.719626 -157.714967 
L 486.414953 -157.714967 
L 487.11028 -157.714967 
L 487.805607 -157.714967 
L 488.500935 -157.714967 
L 489.196262 -157.714967 
L 489.891589 -157.714967 
L 490.586916 -157.714967 
L 491.282243 -157.714967 
L 491.97757 -157.714967 
L 492.672897 -157.714967 
L 493.368224 -157.714967 
L 494.063551 -157.714967 
L 494.758879 -157.714967 
L 495.454206 -157.714967 
L 496.149533 -157.714967 
L 496.84486 -157.714967 
L 497.540187 -157.714967 
L 498.235514 -157.714967 
L 498.930841 -157.714967 
L 499.626168 -157.714967 
L 500.321495 -157.714967 
L 501.016822 -157.714967 
L 501.71215 -157.714967 
L 502.407477 -157.714967 
L 503.102804 -157.714967 
L 503.798131 -157.714967 
L 504.493458 -157.714967 
L 505.188785 -157.714967 
L 505.884112 -157.714967 
L 506.579439 -157.714967 
L 507.274766 -157.714967 
L 507.970093 -157.714967 
L 508.665421 -157.714967 
L 509.360748 -157.714967 
L 510.056075 -157.714967 
L 510.751402 -157.714967 
L 511.446729 -157.714967 
L 512.142056 -157.714967 
L 512.837383 -157.714967 
L 513.53271 -157.714967 
L 514.228037 -157.714967 
L 514.923364 -157.714967 
L 515.618692 -157.714967 
L 516.314019 -157.714967 
L 517.009346 -157.714967 
L 517.704673 -157.714967 
L 518.4 -157.714967 
L 518.4 -153.389514 
L 518.4 -153.389514 
L 517.704673 -153.389514 
L 517.009346 -153.389514 
L 516.314019 -153.389514 
L 515.618692 -153.389514 
L 514.923364 -153.389514 
L 514.228037 -153.389514 
L 513.53271 -153.389514 
L 512.837383 -153.389514 
L 512.142056 -153.389514 
L 511.446729 -153.389514 
L 510.751402 -153.389514 
L 510.056075 -153.389514 
L 509.360748 -153.389514 
L 508.665421 -153.389514 
L 507.970093 -153.389514 
L 507.274766 -153.389514 
L 506.579439 -153.389514 
L 505.884112 -153.389514 
L 505.188785 -153.389514 
L 504.493458 -153.389514 
L 503.798131 -153.389514 
L 503.102804 -153.389514 
L 502.407477 -153.389514 
L 501.71215 -153.389514 
L 501.016822 -153.389514 
L 500.321495 -153.389514 
L 499.626168 -153.389514 
L 498.930841 -153.389514 
L 498.235514 -153.389514 
L 497.540187 -153.389514 
L 496.84486 -153.389514 
L 496.149533 -153.389514 
L 495.454206 -153.389514 
L 494.758879 -153.389514 
L 494.063551 -153.389514 
L 493.368224 -153.389514 
L 492.672897 -153.389514 
L 491.97757 -153.389514 
L 491.282243 -153.389514 
L 490.586916 -153.389514 
L 489.891589 -153.389514 
L 489.196262 -153.389514 
L 488.500935 -153.389514 
L 487.805607 -153.389514 
L 487.11028 -153.389514 
L 486.414953 -153.389514 
L 485.719626 -153.389514 
L 485.024299 -153.389514 
L 484.328972 -153.389514 
L 483.633645 -153.389514 
L 482.938318 -153.389514 
L 482.242991 -153.389514 
L 481.547664 -153.389514 
L 480.852336 -153.389514 
L 480.157009 -153.389514 
L 479.461682 -153.389514 
L 478.766355 -153.389514 
L 478.071028 -153.389514 
L 477.375701 -153.389514 
L 476.680374 -153.389514 
L 475.985047 -153.389514 
L 475.28972 -153.389514 
L 474.594393 -153.389514 
L 473.899065 -153.389514 
L 473.203738 -153.389514 
L 472.508411 -153.389514 
L 471.813084 -153.389514 
L 471.117757 -153.389514 
L 470.42243 -153.389514 
L 469.727103 -153.389514 
L 469.031776 -153.389514 
L 468.336449 -153.389514 
L 467.641121 -153.389514 
L 466.945794 -153.389514 
L 466.250467 -153.389514 
L 465.55514 -153.389514 
L 464.859813 -153.389514 
L 464.164486 -153.389514 
L 463.469159 -153.389514 
L 462.773832 -153.389514 
L 462.078505 -153.389514 
L 461.383178 -153.389514 
L 460.68785 -153.389514 
L 459.992523 -153.389514 
L 459.297196 -153.389514 
L 458.601869 -153.389514 
L 457.906542 -153.389514 
L 457.211215 -153.389514 
L 456.515888 -153.389514 
L 455.820561 -153.389514 
L 455.125234 -153.389514 
L 454.429907 -153.389514 
L 453.734579 -153.389514 
L 453.039252 -153.389514 
L 452.343925 -153.389514 
L 451.648598 -153.389514 
L 450.953271 -153.389514 
L 450.257944 -153.389514 
L 449.562617 -153.389514 
L 448.86729 -153.389514 
L 448.171963 -153.389514 
L 447.476636 -153.389514 
L 446.781308 -153.389514 
L 446.085981 -153.389514 
L 445.390654 -153.389514 
L 444.695327 -153.389514 
L 444 -153.389514 
L 443.304673 -153.389514 
L 442.609346 -153.389514 
L 441.914019 -153.389514 
L 441.218692 -153.389514 
L 440.523364 -153.389514 
L 439.828037 -153.389514 
L 439.13271 -153.389514 
L 438.437383 -153.389514 
L 437.742056 -153.389514 
L 437.046729 -153.389514 
L 436.351402 -153.389514 
L 435.656075 -153.389514 
L 434.960748 -153.389514 
L 434.265421 -153.389514 
L 433.570093 -153.389514 
L 432.874766 -153.389514 
L 432.179439 -153.389514 
L 431.484112 -153.389514 
L 430.788785 -153.389514 
L 430.093458 -153.389514 
L 429.398131 -153.389514 
L 428.702804 -153.389514 
L 428.007477 -153.389514 
L 427.31215 -153.389514 
L 426.616822 -153.389514 
L 425.921495 -153.389514 
L 425.226168 -153.389514 
L 424.530841 -153.389514 
L 423.835514 -153.389514 
L 423.140187 -153.389514 
L 422.44486 -153.389514 
L 421.749533 -153.389514 
L 421.054206 -153.389514 
L 420.358879 -153.389514 
L 419.663551 -153.389514 
L 418.968224 -153.389514 
L 418.272897 -153.389514 
L 417.57757 -153.389514 
L 416.882243 -153.389514 
L 416.186916 -153.389514 
L 415.491589 -153.389514 
L 414.796262 -153.389514 
L 414.100935 -153.389514 
L 413.405607 -153.389514 
L 412.71028 -153.389514 
L 412.014953 -153.389514 
L 411.319626 -153.389514 
L 410.624299 -153.389514 
L 409.928972 -153.389514 
L 409.233645 -153.389514 
L 408.538318 -153.389514 
L 407.842991 -153.389514 
L 407.147664 -153.389514 
L 406.452336 -153.389514 
L 405.757009 -153.389514 
L 405.061682 -153.389514 
L 404.366355 -153.389514 
L 403.671028 -153.389514 
L 402.975701 -153.389514 
L 402.280374 -153.389514 
L 401.585047 -153.389514 
L 400.88972 -153.389514 
L 400.194393 -153.389514 
L 399.499065 -153.389514 
L 398.803738 -153.389514 
L 398.108411 -153.389514 
L 397.413084 -153.389514 
L 396.717757 -153.389514 
L 396.02243 -153.389514 
L 395.327103 -153.389514 
L 394.631776 -153.389514 
L 393.936449 -153.389514 
L 393.241121 -153.389514 
L 392.545794 -153.389514 
L 391.850467 -153.389514 
L 391.15514 -153.389514 
L 390.459813 -153.389514 
L 389.764486 -153.389514 
L 389.069159 -153.389514 
L 388.373832 -153.389514 
L 387.678505 -153.389514 
L 386.983178 -153.389514 
L 386.28785 -153.389514 
L 385.592523 -153.389514 
L 384.897196 -153.389514 
L 384.201869 -153.389514 
L 383.506542 -153.389514 
L 382.811215 -153.389514 
L 382.115888 -153.389514 
L 381.420561 -153.389514 
L 380.725234 -153.389514 
L 380.029907 -153.389514 
L 379.334579 -153.389514 
L 378.639252 -153.389514 
L 377.943925 -153.389514 
L 377.248598 -153.389514 
L 376.553271 -153.389514 
L 375.857944 -153.389514 
L 375.162617 -153.389514 
L 374.46729 -153.389514 
L 373.771963 -153.389514 
L 373.076636 -153.389514 
L 372.381308 -153.389514 
L 371.685981 -153.389514 
L 370.990654 -153.389514 
L 370.295327 -153.389514 
L 369.6 -153.389514 
L 368.904673 -153.389514 
L 368.209346 -153.389514 
L 367.514019 -153.389514 
L 366.818692 -153.389514 
L 366.123364 -153.389514 
L 365.428037 -153.389514 
L 364.73271 -153.389514 
L 364.037383 -153.389514 
L 363.342056 -153.389514 
L 362.646729 -153.389514 
L 361.951402 -153.389514 
L 361.256075 -153.389514 
L 360.560748 -153.389514 
L 359.865421 -153.389514 
L 359.170093 -153.389514 
L 358.474766 -153.389514 
L 357.779439 -153.389514 
L 357.084112 -153.389514 
L 356.388785 -153.389514 
L 355.693458 -153.389514 
L 354.998131 -153.389514 
L 354.302804 -153.389514 
L 353.607477 -153.389514 
L 352.91215 -153.389514 
L 352.216822 -153.389514 
L 351.521495 -153.389514 
L 350.826168 -153.389514 
L 350.130841 -153.389514 
L 349.435514 -153.389514 
L 348.740187 -153.389514 
L 348.04486 -153.389514 
L 347.349533 -153.389514 
L 346.654206 -153.389514 
L 345.958879 -153.389514 
L 345.263551 -153.389514 
L 344.568224 -153.389514 
L 343.872897 -153.389514 
L 343.17757 -153.389514 
L 342.482243 -153.389514 
L 341.786916 -153.389514 
L 341.091589 -153.389514 
L 340.396262 -153.389514 
L 339.700935 -153.389514 
L 339.005607 -153.389514 
L 338.31028 -153.389514 
L 337.614953 -153.389514 
L 336.919626 -153.389514 
L 336.224299 -153.389514 
L 335.528972 -153.389514 
L 334.833645 -153.389514 
L 334.138318 -153.389514 
L 333.442991 -153.389514 
L 332.747664 -153.389514 
L 332.052336 -153.389514 
L 331.357009 -153.389514 
L 330.661682 -153.389514 
L 329.966355 -153.389514 
L 329.271028 -153.389514 
L 328.575701 -153.389514 
L 327.880374 -153.389514 
L 327.185047 -153.389514 
L 326.48972 -153.389514 
L 325.794393 -153.389514 
L 325.099065 -153.389514 
L 324.403738 -153.389514 
L 323.708411 -153.389514 
L 323.013084 -153.389514 
L 322.317757 -153.389514 
L 321.62243 -153.389514 
L 320.927103 -153.389514 
L 320.231776 -153.389514 
L 319.536449 -153.389514 
L 318.841121 -153.389514 
L 318.145794 -153.389514 
L 317.450467 -153.389514 
L 316.75514 -153.389514 
L 316.059813 -153.389514 
L 315.364486 -153.389514 
L 314.669159 -153.389514 
L 313.973832 -153.389514 
L 313.278505 -153.389514 
L 312.583178 -153.389514 
L 311.88785 -153.389514 
L 311.192523 -153.389514 
L 310.497196 -153.389514 
L 309.801869 -153.389514 
L 309.106542 -153.389514 
L 308.411215 -153.389514 
L 307.715888 -153.389514 
L 307.020561 -153.389514 
L 306.325234 -153.389514 
L 305.629907 -153.389514 
L 304.934579 -153.389514 
L 304.239252 -153.389514 
L 303.543925 -153.389514 
L 302.848598 -153.389514 
L 302.153271 -153.389514 
L 301.457944 -153.389514 
L 300.762617 -153.389514 
L 300.06729 -153.389514 
L 299.371963 -153.389514 
L 298.676636 -153.389514 
L 297.981308 -153.389514 
L 297.285981 -153.389514 
L 296.590654 -153.389514 
L 295.895327 -153.389514 
L 295.2 -153.389514 
L 294.504673 -153.389514 
L 293.809346 -153.389514 
L 293.114019 -153.389514 
L 292.418692 -153.389514 
L 291.723364 -153.389514 
L 291.028037 -153.389514 
L 290.33271 -153.389514 
L 289.637383 -153.389514 
L 288.942056 -153.389514 
L 288.246729 -153.389514 
L 287.551402 -153.389514 
L 286.856075 -153.389514 
L 286.160748 -153.389514 
L 285.465421 -153.389514 
L 284.770093 -153.389514 
L 284.074766 -153.389514 
L 283.379439 -153.389514 
L 282.684112 -153.389514 
L 281.988785 -153.389514 
L 281.293458 -153.389514 
L 280.598131 -153.389514 
L 279.902804 -153.389514 
L 279.207477 -153.389514 
L 278.51215 -153.389514 
L 277.816822 -153.389514 
L 277.121495 -153.389514 
L 276.426168 -153.389514 
L 275.730841 -153.389514 
L 275.035514 -153.389514 
L 274.340187 -153.389514 
L 273.64486 -153.389514 
L 272.949533 -153.389514 
L 272.254206 -153.389514 
L 271.558879 -153.389514 
L 270.863551 -153.389514 
L 270.168224 -153.389514 
L 269.472897 -153.389514 
L 268.77757 -153.389514 
L 268.082243 -153.389514 
L 267.386916 -153.389514 
L 266.691589 -153.389514 
L 265.996262 -153.389514 
L 265.300935 -153.389514 
L 264.605607 -153.389514 
L 263.91028 -153.389514 
L 263.214953 -153.389514 
L 262.519626 -153.389514 
L 261.824299 -153.389514 
L 261.128972 -153.389514 
L 260.433645 -153.389514 
L 259.738318 -153.389514 
L 259.042991 -153.389514 
L 258.347664 -153.389514 
L 257.652336 -153.389514 
L 256.957009 -153.389514 
L 256.261682 -153.389514 
L 255.566355 -153.389514 
L 254.871028 -153.389514 
L 254.175701 -153.389514 
L 253.480374 -153.389514 
L 252.785047 -153.389514 
L 252.08972 -153.389514 
L 251.394393 -153.389514 
L 250.699065 -153.389514 
L 250.003738 -153.389514 
L 249.308411 -153.389514 
L 248.613084 -153.389514 
L 247.917757 -153.389514 
L 247.22243 -153.389514 
L 246.527103 -153.389514 
L 245.831776 -153.389514 
L 245.136449 -153.389514 
L 244.441121 -153.389514 
L 243.745794 -153.389514 
L 243.050467 -153.389514 
L 242.35514 -153.389514 
L 241.659813 -153.389514 
L 240.964486 -153.389514 
L 240.269159 -153.389514 
L 239.573832 -153.389514 
L 238.878505 -153.389514 
L 238.183178 -153.389514 
L 237.48785 -153.389514 
L 236.792523 -153.389514 
L 236.097196 -153.389514 
L 235.401869 -153.389514 
L 234.706542 -153.389514 
L 234.011215 -153.389514 
L 233.315888 -153.389514 
L 232.620561 -153.389514 
L 231.925234 -153.389514 
L 231.229907 -153.389514 
L 230.534579 -153.389514 
L 229.839252 -153.389514 
L 229.143925 -153.389514 
L 228.448598 -153.389514 
L 227.753271 -153.389514 
L 227.057944 -153.389514 
L 226.362617 -153.389514 
L 225.66729 -153.389514 
L 224.971963 -153.389514 
L 224.276636 -153.389514 
L 223.581308 -153.389514 
L 222.885981 -153.389514 
L 222.190654 -153.389514 
L 221.495327 -153.389514 
L 220.8 -153.389514 
L 220.104673 -153.389514 
L 219.409346 -153.389514 
L 218.714019 -153.389514 
L 218.018692 -153.389514 
L 217.323364 -153.389514 
L 216.628037 -153.389514 
L 215.93271 -153.389514 
L 215.237383 -153.389514 
L 214.542056 -153.389514 
L 213.846729 -153.389514 
L 213.151402 -153.389514 
L 212.456075 -153.389514 
L 211.760748 -153.389514 
L 211.065421 -153.389514 
L 210.370093 -153.389514 
L 209.674766 -153.389514 
L 208.979439 -153.389514 
L 208.284112 -153.389514 
L 207.588785 -153.389514 
L 206.893458 -153.389514 
L 206.198131 -153.389514 
L 205.502804 -153.389514 
L 204.807477 -153.389514 
L 204.11215 -153.389514 
L 203.416822 -153.389514 
L 202.721495 -153.389514 
L 202.026168 -153.389514 
L 201.330841 -153.389514 
L 200.635514 -153.389514 
L 199.940187 -153.389514 
L 199.24486 -153.389514 
L 198.549533 -153.389514 
L 197.854206 -153.389514 
L 197.158879 -153.389514 
L 196.463551 -153.389514 
L 195.768224 -153.389514 
L 195.072897 -153.389514 
L 194.37757 -153.389514 
L 193.682243 -153.389514 
L 192.986916 -153.389514 
L 192.291589 -153.389514 
L 191.596262 -153.389514 
L 190.900935 -153.389514 
L 190.205607 -153.389514 
L 189.51028 -153.389514 
L 188.814953 -153.389514 
L 188.119626 -153.389514 
L 187.424299 -153.389514 
L 186.728972 -153.389514 
L 186.033645 -153.389514 
L 185.338318 -153.389514 
L 184.642991 -153.389514 
L 183.947664 -153.389514 
L 183.252336 -153.389514 
L 182.557009 -153.389514 
L 181.861682 -153.389514 
L 181.166355 -153.389514 
L 180.471028 -153.389514 
L 179.775701 -153.389514 
L 179.080374 -153.389514 
L 178.385047 -153.389514 
L 177.68972 -153.389514 
L 176.994393 -153.389514 
L 176.299065 -153.389514 
L 175.603738 -153.389514 
L 174.908411 -153.389514 
L 174.213084 -153.389514 
L 173.517757 -153.389514 
L 172.82243 -153.389514 
L 172.127103 -153.389514 
L 171.431776 -153.389514 
L 170.736449 -153.389514 
L 170.041121 -153.389514 
L 169.345794 -153.389514 
L 168.650467 -153.389514 
L 167.95514 -153.389514 
L 167.259813 -153.389514 
L 166.564486 -153.389514 
L 165.869159 -153.389514 
L 165.173832 -153.389514 
L 164.478505 -153.389514 
L 163.783178 -153.389514 
L 163.08785 -153.389514 
L 162.392523 -153.389514 
L 161.697196 -153.389514 
L 161.001869 -153.389514 
L 160.306542 -153.389514 
L 159.611215 -153.389514 
L 158.915888 -153.389514 
L 158.220561 -153.389514 
L 157.525234 -153.389514 
L 156.829907 -153.389514 
L 156.134579 -153.389514 
L 155.439252 -153.389514 
L 154.743925 -153.389514 
L 154.048598 -153.389514 
L 153.353271 -153.389514 
L 152.657944 -153.389514 
L 151.962617 -153.389514 
L 151.26729 -153.389514 
L 150.571963 -153.389514 
L 149.876636 -153.389514 
L 149.181308 -153.389514 
L 148.485981 -153.389514 
L 147.790654 -153.389514 
L 147.095327 -153.389514 
L 146.4 -153.389514 
L 145.704673 -153.389514 
L 145.009346 -153.389514 
L 144.314019 -153.389514 
L 143.618692 -153.389514 
L 142.923364 -153.389514 
L 142.228037 -153.389514 
L 141.53271 -153.389514 
L 140.837383 -153.389514 
L 140.142056 -153.389514 
L 139.446729 -153.389514 
L 138.751402 -153.389514 
L 138.056075 -153.389514 
L 137.360748 -153.389514 
L 136.665421 -153.389514 
L 135.970093 -153.389514 
L 135.274766 -153.389514 
L 134.579439 -153.389514 
L 133.884112 -153.389514 
L 133.188785 -153.389514 
L 132.493458 -153.389514 
L 131.798131 -153.389514 
L 131.102804 -153.389514 
L 130.407477 -153.389514 
L 129.71215 -153.389514 
L 129.016822 -153.389514 
L 128.321495 -153.389514 
L 127.626168 -153.389514 
L 126.930841 -153.389514 
L 126.235514 -153.389514 
L 125.540187 -153.389514 
L 124.84486 -153.389514 
L 124.149533 -153.389514 
L 123.454206 -153.389514 
L 122.758879 -153.389514 
L 122.063551 -153.389514 
L 121.368224 -153.389514 
L 120.672897 -153.389514 
L 119.97757 -153.389514 
L 119.282243 -153.389514 
L 118.586916 -153.389514 
L 117.891589 -153.389514 
L 117.196262 -153.389514 
L 116.500935 -153.389514 
L 115.805607 -153.389514 
L 115.11028 -153.389514 
L 114.414953 -153.389514 
L 113.719626 -153.389514 
L 113.024299 -153.389514 
L 112.328972 -153.389514 
L 111.633645 -153.389514 
L 110.938318 -153.389514 
L 110.242991 -153.389514 
L 109.547664 -153.389514 
L 108.852336 -153.389514 
L 108.157009 -153.389514 
L 107.461682 -153.389514 
L 106.766355 -153.389514 
L 106.071028 -153.389514 
L 105.375701 -153.389514 
L 104.680374 -153.389514 
L 103.985047 -153.389514 
L 103.28972 -153.389514 
L 102.594393 -153.389514 
L 101.899065 -153.389514 
L 101.203738 -153.389514 
L 100.508411 -153.389514 
L 99.813084 -153.389514 
L 99.117757 -153.389514 
L 98.42243 -153.389514 
L 97.727103 -153.389514 
L 97.031776 -153.389514 
L 96.336449 -153.389514 
L 95.641121 -153.389514 
L 94.945794 -153.389514 
L 94.250467 -153.389514 
L 93.55514 -153.389514 
L 92.859813 -153.389514 
L 92.164486 -153.389514 
L 91.469159 -153.389514 
L 90.773832 -153.389514 
L 90.078505 -153.389514 
L 89.383178 -153.389514 
L 88.68785 -153.389514 
L 87.992523 -153.389514 
L 87.297196 -153.389514 
L 86.601869 -153.389514 
L 85.906542 -153.389514 
L 85.211215 -153.389514 
L 84.515888 -153.389514 
L 83.820561 -153.389514 
L 83.125234 -153.389514 
L 82.429907 -153.389514 
L 81.734579 -153.389514 
L 81.039252 -153.389514 
L 80.343925 -153.389514 
L 79.648598 -153.389514 
L 78.953271 -153.389514 
L 78.257944 -153.389514 
L 77.562617 -153.389514 
L 76.86729 -153.389514 
L 76.171963 -153.389514 
L 75.476636 -153.389514 
L 74.781308 -153.389514 
L 74.085981 -153.389514 
L 73.390654 -153.389514 
L 72.695327 -153.389514 
L 72 -153.389514 
z
" id="m8cb6025829"/>
    </defs>
    <g clip-path="url(#pab2025bbb9)">
     <use style="fill-opacity:0.15;" x="0" xlink:href="#m8cb6025829" y="360"/>
    </g>
   </g>
   <g id="matplotlib.axis_1">
    <g id="xtick_1">
     <g id="line2d_1">
      <defs>
       <path d="M 0 0 
L 0 3.5 
" id="m1b4936259d" style="stroke:#000000;stroke-width:0.8;"/>
      </defs>
      <g>
       <use style="stroke:#000000;stroke-width:0.8;" x="72" xlink:href="#m1b4936259d" y="320.4"/>
      </g>
     </g>
     <g id="text_1">
      <!-- 0.0 -->
      <g transform="translate(60.867812 338.037813)scale(0.14 -0.14)">
       <defs>
        <path d="M 2034 4250 
Q 1547 4250 1301 3770 
Q 1056 3291 1056 2328 
Q 1056 1369 1301 889 
Q 1547 409 2034 409 
Q 2525 409 2770 889 
Q 3016 1369 3016 2328 
Q 3016 3291 2770 3770 
Q 2525 4250 2034 4250 
z
M 2034 4750 
Q 2819 4750 3233 4129 
Q 3647 3509 3647 2328 
Q 3647 1150 3233 529 
Q 2819 -91 2034 -91 
Q 1250 -91 836 529 
Q 422 1150 422 2328 
Q 422 3509 836 4129 
Q 1250 4750 2034 4750 
z
" id="DejaVuSans-30" transform="scale(0.015625)"/>
        <path d="M 684 794 
L 1344 794 
L 1344 0 
L 684 0 
L 684 794 
z
" id="DejaVuSans-2e" transform="scale(0.015625)"/>
       </defs>
       <use xlink:href="#DejaVuSans-30"/>
       <use x="63.623047" xlink:href="#DejaVuSans-2e"/>
       <use x="95.410156" xlink:href="#DejaVuSans-30"/>
      </g>
     </g>
    </g>
    <g id="xtick_2">
     <g id="line2d_2">
      <g>
       <use style="stroke:#000000;stroke-width:0.8;" x="127.822329" xlink:href="#m1b4936259d" y="320.4"/>
      </g>
     </g>
     <g id="text_2">
      <!-- 2.5 -->
      <g transform="translate(116.690141 338.037813)scale(0.14 -0.14)">
       <defs>
        <path d="M 1228 531 
L 3431 531 
L 3431 0 
L 469 0 
L 469 531 
Q 828 903 1448 1529 
Q 2069 2156 2228 2338 
Q 2531 2678 2651 2914 
Q 2772 3150 2772 3378 
Q 2772 3750 2511 3984 
Q 2250 4219 1831 4219 
Q 1534 4219 1204 4116 
Q 875 4013 500 3803 
L 500 4441 
Q 881 4594 1212 4672 
Q 1544 4750 1819 4750 
Q 2544 4750 2975 4387 
Q 3406 4025 3406 3419 
Q 3406 3131 3298 2873 
Q 3191 2616 2906 2266 
Q 2828 2175 2409 1742 
Q 1991 1309 1228 531 
z
" id="DejaVuSans-32" transform="scale(0.015625)"/>
        <path d="M 691 4666 
L 3169 4666 
L 3169 4134 
L 1269 4134 
L 1269 2991 
Q 1406 3038 1543 3061 
Q 1681 3084 1819 3084 
Q 2600 3084 3056 2656 
Q 3513 2228 3513 1497 
Q 3513 744 3044 326 
Q 2575 -91 1722 -91 
Q 1428 -91 1123 -41 
Q 819 9 494 109 
L 494 744 
Q 775 591 1075 516 
Q 1375 441 1709 441 
Q 2250 441 2565 725 
Q 2881 1009 2881 1497 
Q 2881 1984 2565 2268 
Q 2250 2553 1709 2553 
Q 1456 2553 1204 2497 
Q 953 2441 691 2322 
L 691 4666 
z
" id="DejaVuSans-35" transform="scale(0.015625)"/>
       </defs>
       <use xlink:href="#DejaVuSans-32"/>
       <use x="63.623047" xlink:href="#DejaVuSans-2e"/>
       <use x="95.410156" xlink:href="#DejaVuSans-35"/>
      </g>
     </g>
    </g>
    <g id="xtick_3">
     <g id="line2d_3">
      <g>
       <use style="stroke:#000000;stroke-width:0.8;" x="183.644658" xlink:href="#m1b4936259d" y="320.4"/>
      </g>
     </g>
     <g id="text_3">
      <!-- 5.0 -->
      <g transform="translate(172.51247 338.037813)scale(0.14 -0.14)">
       <use xlink:href="#DejaVuSans-35"/>
       <use x="63.623047" xlink:href="#DejaVuSans-2e"/>
       <use x="95.410156" xlink:href="#DejaVuSans-30"/>
      </g>
     </g>
    </g>
    <g id="xtick_4">
     <g id="line2d_4">
      <g>
       <use style="stroke:#000000;stroke-width:0.8;" x="239.466987" xlink:href="#m1b4936259d" y="320.4"/>
      </g>
     </g>
     <g id="text_4">
      <!-- 7.5 -->
      <g transform="translate(228.334799 338.037813)scale(0.14 -0.14)">
       <defs>
        <path d="M 525 4666 
L 3525 4666 
L 3525 4397 
L 1831 0 
L 1172 0 
L 2766 4134 
L 525 4134 
L 525 4666 
z
" id="DejaVuSans-37" transform="scale(0.015625)"/>
       </defs>
       <use xlink:href="#DejaVuSans-37"/>
       <use x="63.623047" xlink:href="#DejaVuSans-2e"/>
       <use x="95.410156" xlink:href="#DejaVuSans-35"/>
      </g>
     </g>
    </g>
    <g id="xtick_5">
     <g id="line2d_5">
      <g>
       <use style="stroke:#000000;stroke-width:0.8;" x="295.289316" xlink:href="#m1b4936259d" y="320.4"/>
      </g>
     </g>
     <g id="text_5">
      <!-- 10.0 -->
      <g transform="translate(279.703378 338.037813)scale(0.14 -0.14)">
       <defs>
        <path d="M 794 531 
L 1825 531 
L 1825 4091 
L 703 3866 
L 703 4441 
L 1819 4666 
L 2450 4666 
L 2450 531 
L 3481 531 
L 3481 0 
L 794 0 
L 794 531 
z
" id="DejaVuSans-31" transform="scale(0.015625)"/>
       </defs>
       <use xlink:href="#DejaVuSans-31"/>
       <use x="63.623047" xlink:href="#DejaVuSans-30"/>
       <use x="127.246094" xlink:href="#DejaVuSans-2e"/>
       <use x="159.033203" xlink:href="#DejaVuSans-30"/>
      </g>
     </g>
    </g>
    <g id="xtick_6">
     <g id="line2d_6">
      <g>
       <use style="stroke:#000000;stroke-width:0.8;" x="351.111645" xlink:href="#m1b4936259d" y="320.4"/>
      </g>
     </g>
     <g id="text_6">
      <!-- 12.5 -->
      <g transform="translate(335.525707 338.037813)scale(0.14 -0.14)">
       <use xlink:href="#DejaVuSans-31"/>
       <use x="63.623047" xlink:href="#DejaVuSans-32"/>
       <use x="127.246094" xlink:href="#DejaVuSans-2e"/>
       <use x="159.033203" xlink:href="#DejaVuSans-35"/>
      </g>
     </g>
    </g>
    <g id="xtick_7">
     <g id="line2d_7">
      <g>
       <use style="stroke:#000000;stroke-width:0.8;" x="406.933974" xlink:href="#m1b4936259d" y="320.4"/>
      </g>
     </g>
     <g id="text_7">
      <!-- 15.0 -->
      <g transform="translate(391.348036 338.037813)scale(0.14 -0.14)">
       <use xlink:href="#DejaVuSans-31"/>
       <use x="63.623047" xlink:href="#DejaVuSans-35"/>
       <use x="127.246094" xlink:href="#DejaVuSans-2e"/>
       <use x="159.033203" xlink:href="#DejaVuSans-30"/>
      </g>
     </g>
    </g>
    <g id="xtick_8">
     <g id="line2d_8">
      <g>
       <use style="stroke:#000000;stroke-width:0.8;" x="462.756303" xlink:href="#m1b4936259d" y="320.4"/>
      </g>
     </g>
     <g id="text_8">
      <!-- 17.5 -->
      <g transform="translate(447.170365 338.037813)scale(0.14 -0.14)">
       <use xlink:href="#DejaVuSans-31"/>
       <use x="63.623047" xlink:href="#DejaVuSans-37"/>
       <use x="127.246094" xlink:href="#DejaVuSans-2e"/>
       <use x="159.033203" xlink:href="#DejaVuSans-35"/>
      </g>
     </g>
    </g>
    <g id="text_9">
     <!-- Time [Seconds] -->
     <g transform="translate(233.23 357.106875)scale(0.16 -0.16)">
      <defs>
       <path d="M -19 4666 
L 3928 4666 
L 3928 4134 
L 2272 4134 
L 2272 0 
L 1638 0 
L 1638 4134 
L -19 4134 
L -19 4666 
z
" id="DejaVuSans-54" transform="scale(0.015625)"/>
       <path d="M 603 3500 
L 1178 3500 
L 1178 0 
L 603 0 
L 603 3500 
z
M 603 4863 
L 1178 4863 
L 1178 4134 
L 603 4134 
L 603 4863 
z
" id="DejaVuSans-69" transform="scale(0.015625)"/>
       <path d="M 3328 2828 
Q 3544 3216 3844 3400 
Q 4144 3584 4550 3584 
Q 5097 3584 5394 3201 
Q 5691 2819 5691 2113 
L 5691 0 
L 5113 0 
L 5113 2094 
Q 5113 2597 4934 2840 
Q 4756 3084 4391 3084 
Q 3944 3084 3684 2787 
Q 3425 2491 3425 1978 
L 3425 0 
L 2847 0 
L 2847 2094 
Q 2847 2600 2669 2842 
Q 2491 3084 2119 3084 
Q 1678 3084 1418 2786 
Q 1159 2488 1159 1978 
L 1159 0 
L 581 0 
L 581 3500 
L 1159 3500 
L 1159 2956 
Q 1356 3278 1631 3431 
Q 1906 3584 2284 3584 
Q 2666 3584 2933 3390 
Q 3200 3197 3328 2828 
z
" id="DejaVuSans-6d" transform="scale(0.015625)"/>
       <path d="M 3597 1894 
L 3597 1613 
L 953 1613 
Q 991 1019 1311 708 
Q 1631 397 2203 397 
Q 2534 397 2845 478 
Q 3156 559 3463 722 
L 3463 178 
Q 3153 47 2828 -22 
Q 2503 -91 2169 -91 
Q 1331 -91 842 396 
Q 353 884 353 1716 
Q 353 2575 817 3079 
Q 1281 3584 2069 3584 
Q 2775 3584 3186 3129 
Q 3597 2675 3597 1894 
z
M 3022 2063 
Q 3016 2534 2758 2815 
Q 2500 3097 2075 3097 
Q 1594 3097 1305 2825 
Q 1016 2553 972 2059 
L 3022 2063 
z
" id="DejaVuSans-65" transform="scale(0.015625)"/>
       <path id="DejaVuSans-20" transform="scale(0.015625)"/>
       <path d="M 550 4863 
L 1875 4863 
L 1875 4416 
L 1125 4416 
L 1125 -397 
L 1875 -397 
L 1875 -844 
L 550 -844 
L 550 4863 
z
" id="DejaVuSans-5b" transform="scale(0.015625)"/>
       <path d="M 3425 4513 
L 3425 3897 
Q 3066 4069 2747 4153 
Q 2428 4238 2131 4238 
Q 1616 4238 1336 4038 
Q 1056 3838 1056 3469 
Q 1056 3159 1242 3001 
Q 1428 2844 1947 2747 
L 2328 2669 
Q 3034 2534 3370 2195 
Q 3706 1856 3706 1288 
Q 3706 609 3251 259 
Q 2797 -91 1919 -91 
Q 1588 -91 1214 -16 
Q 841 59 441 206 
L 441 856 
Q 825 641 1194 531 
Q 1563 422 1919 422 
Q 2459 422 2753 634 
Q 3047 847 3047 1241 
Q 3047 1584 2836 1778 
Q 2625 1972 2144 2069 
L 1759 2144 
Q 1053 2284 737 2584 
Q 422 2884 422 3419 
Q 422 4038 858 4394 
Q 1294 4750 2059 4750 
Q 2388 4750 2728 4690 
Q 3069 4631 3425 4513 
z
" id="DejaVuSans-53" transform="scale(0.015625)"/>
       <path d="M 3122 3366 
L 3122 2828 
Q 2878 2963 2633 3030 
Q 2388 3097 2138 3097 
Q 1578 3097 1268 2742 
Q 959 2388 959 1747 
Q 959 1106 1268 751 
Q 1578 397 2138 397 
Q 2388 397 2633 464 
Q 2878 531 3122 666 
L 3122 134 
Q 2881 22 2623 -34 
Q 2366 -91 2075 -91 
Q 1284 -91 818 406 
Q 353 903 353 1747 
Q 353 2603 823 3093 
Q 1294 3584 2113 3584 
Q 2378 3584 2631 3529 
Q 2884 3475 3122 3366 
z
" id="DejaVuSans-63" transform="scale(0.015625)"/>
       <path d="M 1959 3097 
Q 1497 3097 1228 2736 
Q 959 2375 959 1747 
Q 959 1119 1226 758 
Q 1494 397 1959 397 
Q 2419 397 2687 759 
Q 2956 1122 2956 1747 
Q 2956 2369 2687 2733 
Q 2419 3097 1959 3097 
z
M 1959 3584 
Q 2709 3584 3137 3096 
Q 3566 2609 3566 1747 
Q 3566 888 3137 398 
Q 2709 -91 1959 -91 
Q 1206 -91 779 398 
Q 353 888 353 1747 
Q 353 2609 779 3096 
Q 1206 3584 1959 3584 
z
" id="DejaVuSans-6f" transform="scale(0.015625)"/>
       <path d="M 3513 2113 
L 3513 0 
L 2938 0 
L 2938 2094 
Q 2938 2591 2744 2837 
Q 2550 3084 2163 3084 
Q 1697 3084 1428 2787 
Q 1159 2491 1159 1978 
L 1159 0 
L 581 0 
L 581 3500 
L 1159 3500 
L 1159 2956 
Q 1366 3272 1645 3428 
Q 1925 3584 2291 3584 
Q 2894 3584 3203 3211 
Q 3513 2838 3513 2113 
z
" id="DejaVuSans-6e" transform="scale(0.015625)"/>
       <path d="M 2906 2969 
L 2906 4863 
L 3481 4863 
L 3481 0 
L 2906 0 
L 2906 525 
Q 2725 213 2448 61 
Q 2172 -91 1784 -91 
Q 1150 -91 751 415 
Q 353 922 353 1747 
Q 353 2572 751 3078 
Q 1150 3584 1784 3584 
Q 2172 3584 2448 3432 
Q 2725 3281 2906 2969 
z
M 947 1747 
Q 947 1113 1208 752 
Q 1469 391 1925 391 
Q 2381 391 2643 752 
Q 2906 1113 2906 1747 
Q 2906 2381 2643 2742 
Q 2381 3103 1925 3103 
Q 1469 3103 1208 2742 
Q 947 2381 947 1747 
z
" id="DejaVuSans-64" transform="scale(0.015625)"/>
       <path d="M 2834 3397 
L 2834 2853 
Q 2591 2978 2328 3040 
Q 2066 3103 1784 3103 
Q 1356 3103 1142 2972 
Q 928 2841 928 2578 
Q 928 2378 1081 2264 
Q 1234 2150 1697 2047 
L 1894 2003 
Q 2506 1872 2764 1633 
Q 3022 1394 3022 966 
Q 3022 478 2636 193 
Q 2250 -91 1575 -91 
Q 1294 -91 989 -36 
Q 684 19 347 128 
L 347 722 
Q 666 556 975 473 
Q 1284 391 1588 391 
Q 1994 391 2212 530 
Q 2431 669 2431 922 
Q 2431 1156 2273 1281 
Q 2116 1406 1581 1522 
L 1381 1569 
Q 847 1681 609 1914 
Q 372 2147 372 2553 
Q 372 3047 722 3315 
Q 1072 3584 1716 3584 
Q 2034 3584 2315 3537 
Q 2597 3491 2834 3397 
z
" id="DejaVuSans-73" transform="scale(0.015625)"/>
       <path d="M 1947 4863 
L 1947 -844 
L 622 -844 
L 622 -397 
L 1369 -397 
L 1369 4416 
L 622 4416 
L 622 4863 
L 1947 4863 
z
" id="DejaVuSans-5d" transform="scale(0.015625)"/>
      </defs>
      <use xlink:href="#DejaVuSans-54"/>
      <use x="57.958984" xlink:href="#DejaVuSans-69"/>
      <use x="85.742188" xlink:href="#DejaVuSans-6d"/>
      <use x="183.154297" xlink:href="#DejaVuSans-65"/>
      <use x="244.677734" xlink:href="#DejaVuSans-20"/>
      <use x="276.464844" xlink:href="#DejaVuSans-5b"/>
      <use x="315.478516" xlink:href="#DejaVuSans-53"/>
      <use x="378.955078" xlink:href="#DejaVuSans-65"/>
      <use x="440.478516" xlink:href="#DejaVuSans-63"/>
      <use x="495.458984" xlink:href="#DejaVuSans-6f"/>
      <use x="556.640625" xlink:href="#DejaVuSans-6e"/>
      <use x="620.019531" xlink:href="#DejaVuSans-64"/>
      <use x="683.496094" xlink:href="#DejaVuSans-73"/>
      <use x="735.595703" xlink:href="#DejaVuSans-5d"/>
     </g>
    </g>
   </g>
   <g id="matplotlib.axis_2">
    <g id="ytick_1">
     <g id="line2d_9">
      <defs>
       <path d="M 0 0 
L -3.5 0 
" id="m39fe24384a" style="stroke:#000000;stroke-width:0.8;"/>
      </defs>
      <g>
       <use style="stroke:#000000;stroke-width:0.8;" x="72" xlink:href="#m39fe24384a" y="281.320393"/>
      </g>
     </g>
     <g id="text_10">
      <!-- 0.0 -->
      <g transform="translate(42.735625 286.639299)scale(0.14 -0.14)">
       <use xlink:href="#DejaVuSans-30"/>
       <use x="63.623047" xlink:href="#DejaVuSans-2e"/>
       <use x="95.410156" xlink:href="#DejaVuSans-30"/>
      </g>
     </g>
    </g>
    <g id="ytick_2">
     <g id="line2d_10">
      <g>
       <use style="stroke:#000000;stroke-width:0.8;" x="72" xlink:href="#m39fe24384a" y="229.315014"/>
      </g>
     </g>
     <g id="text_11">
      <!-- 0.5 -->
      <g transform="translate(42.735625 234.63392)scale(0.14 -0.14)">
       <use xlink:href="#DejaVuSans-30"/>
       <use x="63.623047" xlink:href="#DejaVuSans-2e"/>
       <use x="95.410156" xlink:href="#DejaVuSans-35"/>
      </g>
     </g>
    </g>
    <g id="ytick_3">
     <g id="line2d_11">
      <g>
       <use style="stroke:#000000;stroke-width:0.8;" x="72" xlink:href="#m39fe24384a" y="177.309634"/>
      </g>
     </g>
     <g id="text_12">
      <!-- 1.0 -->
      <g transform="translate(42.735625 182.62854)scale(0.14 -0.14)">
       <use xlink:href="#DejaVuSans-31"/>
       <use x="63.623047" xlink:href="#DejaVuSans-2e"/>
       <use x="95.410156" xlink:href="#DejaVuSans-30"/>
      </g>
     </g>
    </g>
    <g id="ytick_4">
     <g id="line2d_12">
      <g>
       <use style="stroke:#000000;stroke-width:0.8;" x="72" xlink:href="#m39fe24384a" y="125.304254"/>
      </g>
     </g>
     <g id="text_13">
      <!-- 1.5 -->
      <g transform="translate(42.735625 130.623161)scale(0.14 -0.14)">
       <use xlink:href="#DejaVuSans-31"/>
       <use x="63.623047" xlink:href="#DejaVuSans-2e"/>
       <use x="95.410156" xlink:href="#DejaVuSans-35"/>
      </g>
     </g>
    </g>
    <g id="ytick_5">
     <g id="line2d_13">
      <g>
       <use style="stroke:#000000;stroke-width:0.8;" x="72" xlink:href="#m39fe24384a" y="73.298875"/>
      </g>
     </g>
     <g id="text_14">
      <!-- 2.0 -->
      <g transform="translate(42.735625 78.617781)scale(0.14 -0.14)">
       <use xlink:href="#DejaVuSans-32"/>
       <use x="63.623047" xlink:href="#DejaVuSans-2e"/>
       <use x="95.410156" xlink:href="#DejaVuSans-30"/>
      </g>
     </g>
    </g>
    <g id="text_15">
     <!-- Speed [mm/s] -->
     <g transform="translate(35.408125 238.11375)rotate(-90)scale(0.16 -0.16)">
      <defs>
       <path d="M 1159 525 
L 1159 -1331 
L 581 -1331 
L 581 3500 
L 1159 3500 
L 1159 2969 
Q 1341 3281 1617 3432 
Q 1894 3584 2278 3584 
Q 2916 3584 3314 3078 
Q 3713 2572 3713 1747 
Q 3713 922 3314 415 
Q 2916 -91 2278 -91 
Q 1894 -91 1617 61 
Q 1341 213 1159 525 
z
M 3116 1747 
Q 3116 2381 2855 2742 
Q 2594 3103 2138 3103 
Q 1681 3103 1420 2742 
Q 1159 2381 1159 1747 
Q 1159 1113 1420 752 
Q 1681 391 2138 391 
Q 2594 391 2855 752 
Q 3116 1113 3116 1747 
z
" id="DejaVuSans-70" transform="scale(0.015625)"/>
       <path d="M 1625 4666 
L 2156 4666 
L 531 -594 
L 0 -594 
L 1625 4666 
z
" id="DejaVuSans-2f" transform="scale(0.015625)"/>
      </defs>
      <use xlink:href="#DejaVuSans-53"/>
      <use x="63.476562" xlink:href="#DejaVuSans-70"/>
      <use x="126.953125" xlink:href="#DejaVuSans-65"/>
      <use x="188.476562" xlink:href="#DejaVuSans-65"/>
      <use x="250" xlink:href="#DejaVuSans-64"/>
      <use x="313.476562" xlink:href="#DejaVuSans-20"/>
      <use x="345.263672" xlink:href="#DejaVuSans-5b"/>
      <use x="384.277344" xlink:href="#DejaVuSans-6d"/>
      <use x="481.689453" xlink:href="#DejaVuSans-6d"/>
      <use x="579.101562" xlink:href="#DejaVuSans-2f"/>
      <use x="612.792969" xlink:href="#DejaVuSans-73"/>
      <use x="664.892578" xlink:href="#DejaVuSans-5d"/>
     </g>
    </g>
   </g>
   <g id="line2d_14">
    <path clip-path="url(#pab2025bbb9)" d="M 72 204.447759 
L 518.4 204.447759 
" style="fill:none;stroke:#000000;stroke-dasharray:5.55,2.4;stroke-dashoffset:0;stroke-width:1.5;"/>
   </g>
   <g id="line2d_15">
    <path clip-path="url(#pab2025bbb9)" d="M 72 280.405879 
L 135.970093 280.48915 
L 136.665421 280.140352 
L 137.360748 278.541069 
L 138.056075 278.480563 
L 138.751402 280.720283 
L 139.446729 281.683864 
L 140.142056 280.61457 
L 140.837383 278.551913 
L 141.53271 291.621029 
L 142.228037 266.976688 
L 142.923364 257.884283 
L 143.618692 291.837409 
L 144.314019 301.32572 
L 145.009346 307.8 
L 145.704673 303.772257 
L 146.4 291.976956 
L 147.095327 276.04619 
L 147.790654 254.579017 
L 149.181308 200.657371 
L 150.571963 143.259705 
L 151.962617 94.627089 
L 152.657944 75.144864 
L 153.353271 63.514427 
L 154.048598 56.627862 
L 154.743925 55.8 
L 155.439252 61.48452 
L 156.134579 72.018806 
L 156.829907 85.076764 
L 158.220561 122.085059 
L 161.001869 200.667961 
L 161.697196 207.157019 
L 162.392523 209.419174 
L 163.08785 209.134927 
L 163.783178 173.158862 
L 164.478505 173.386519 
L 165.173832 197.488209 
L 165.869159 190.264123 
L 166.564486 193.555641 
L 167.259813 192.140594 
L 167.95514 192.255917 
L 168.650467 194.700884 
L 169.345794 195.298901 
L 170.041121 196.362667 
L 170.736449 197.908245 
L 171.431776 198.206343 
L 172.127103 198.99033 
L 172.82243 199.303741 
L 173.517757 197.21981 
L 174.213084 198.392204 
L 174.908411 199.962177 
L 175.603738 199.524179 
L 176.299065 200.879309 
L 176.994393 202.590916 
L 177.68972 202.652438 
L 178.385047 200.660459 
L 179.080374 201.10014 
L 179.775701 200.155218 
L 180.471028 200.209635 
L 181.166355 200.860762 
L 181.861682 200.861453 
L 182.557009 201.688636 
L 183.252336 199.98035 
L 183.947664 200.175985 
L 184.642991 201.244443 
L 185.338318 201.457786 
L 186.728972 202.514319 
L 187.424299 203.6572 
L 188.119626 203.896624 
L 188.814953 202.847448 
L 189.51028 203.411272 
L 190.205607 204.436305 
L 190.900935 203.87419 
L 191.596262 204.104034 
L 192.291589 204.470089 
L 193.682243 204.459604 
L 194.37757 203.933518 
L 195.072897 204.037027 
L 195.768224 205.475044 
L 196.463551 204.602859 
L 197.158879 203.492466 
L 197.854206 203.414747 
L 198.549533 203.198881 
L 199.24486 203.86352 
L 199.940187 203.663151 
L 201.330841 201.879558 
L 202.721495 204.191862 
L 203.416822 204.198092 
L 204.11215 204.60472 
L 205.502804 203.733474 
L 206.198131 204.017421 
L 206.893458 203.191154 
L 207.588785 203.816853 
L 208.284112 206.481504 
L 208.979439 206.965277 
L 209.674766 205.558058 
L 210.370093 204.613863 
L 211.065421 206.422409 
L 211.760748 206.909844 
L 212.456075 204.786708 
L 213.151402 203.710203 
L 213.846729 204.024764 
L 214.542056 204.533457 
L 215.93271 205.016655 
L 216.628037 204.566796 
L 217.323364 205.481646 
L 218.018692 204.931543 
L 218.714019 203.333475 
L 219.409346 203.112181 
L 220.104673 203.242001 
L 220.8 204.268797 
L 221.495327 204.366917 
L 222.190654 203.043665 
L 222.885981 202.568296 
L 223.581308 204.145906 
L 224.276636 204.991168 
L 224.971963 204.402535 
L 225.66729 203.959848 
L 226.362617 204.340092 
L 227.057944 204.964352 
L 227.753271 204.971935 
L 228.448598 204.262863 
L 229.143925 204.44066 
L 229.839252 205.887437 
L 230.534579 205.942294 
L 231.229907 204.775543 
L 232.620561 206.415225 
L 233.315888 206.275672 
L 234.011215 205.820435 
L 234.706542 205.627983 
L 235.401869 205.588819 
L 236.097196 205.728738 
L 236.792523 206.357552 
L 237.48785 205.908132 
L 238.183178 205.170858 
L 238.878505 205.804839 
L 239.573832 205.349568 
L 240.269159 204.273264 
L 240.964486 205.30164 
L 241.659813 205.988221 
L 243.050467 204.993944 
L 243.745794 204.97191 
L 244.441121 204.347233 
L 245.136449 204.433872 
L 245.831776 205.032868 
L 246.527103 204.516561 
L 247.22243 204.346474 
L 247.917757 204.015394 
L 248.613084 203.909305 
L 249.308411 204.093833 
L 250.003738 203.871194 
L 251.394393 204.10304 
L 252.08972 204.634732 
L 252.785047 203.946097 
L 253.480374 203.451234 
L 254.175701 203.489728 
L 254.871028 204.636524 
L 255.566355 205.255553 
L 256.261682 204.219492 
L 256.957009 203.591532 
L 258.347664 204.953191 
L 259.042991 204.764365 
L 259.738318 204.252801 
L 260.433645 204.883236 
L 261.128972 205.363625 
L 261.824299 204.998979 
L 262.519626 205.46778 
L 263.214953 206.098817 
L 263.91028 205.893026 
L 264.605607 205.471943 
L 265.300935 205.760836 
L 265.996262 205.135981 
L 267.386916 207.055715 
L 268.082243 206.217435 
L 268.77757 205.581853 
L 269.472897 204.679839 
L 270.168224 205.035336 
L 270.863551 206.027199 
L 271.558879 204.66872 
L 272.254206 204.557478 
L 272.949533 204.957143 
L 274.340187 203.237396 
L 275.035514 203.947427 
L 275.730841 204.947677 
L 276.426168 205.137848 
L 277.121495 204.263348 
L 277.816822 204.060965 
L 278.51215 204.703587 
L 279.207477 204.128144 
L 279.902804 204.313701 
L 280.598131 205.334969 
L 281.293458 205.398304 
L 281.988785 204.977617 
L 282.684112 205.237335 
L 283.379439 205.888442 
L 285.465421 205.734426 
L 286.160748 204.817072 
L 286.856075 204.309512 
L 287.551402 204.361927 
L 288.246729 205.665654 
L 288.942056 205.407118 
L 289.637383 204.076253 
L 290.33271 204.170869 
L 291.028037 205.01229 
L 292.418692 205.34368 
L 293.114019 205.057821 
L 293.809346 205.834317 
L 294.504673 206.350532 
L 295.2 205.77185 
L 295.895327 206.176287 
L 296.590654 205.760689 
L 297.285981 204.952441 
L 298.676636 204.209215 
L 299.371963 204.820329 
L 300.06729 204.704111 
L 300.762617 203.282184 
L 301.457944 203.937333 
L 302.153271 204.838285 
L 303.543925 201.860509 
L 304.239252 202.803163 
L 304.934579 204.681704 
L 305.629907 204.701929 
L 306.325234 204.213062 
L 307.020561 204.278807 
L 307.715888 203.788837 
L 308.411215 204.235593 
L 309.801869 205.636306 
L 311.192523 205.998204 
L 311.88785 205.957668 
L 312.583178 205.199419 
L 313.278505 205.018281 
L 313.973832 205.106317 
L 315.364486 204.435643 
L 316.059813 205.013583 
L 316.75514 206.223771 
L 317.450467 205.89949 
L 318.145794 204.218131 
L 318.841121 203.923154 
L 319.536449 203.774412 
L 320.231776 203.965106 
L 320.927103 204.716632 
L 321.62243 204.929473 
L 323.013084 206.845923 
L 323.708411 205.998581 
L 324.403738 204.553076 
L 325.099065 204.538027 
L 325.794393 204.661766 
L 326.48972 205.288712 
L 327.185047 205.558221 
L 327.880374 205.993951 
L 328.575701 205.703417 
L 329.271028 204.504112 
L 329.966355 204.924805 
L 330.661682 204.708725 
L 331.357009 204.083842 
L 332.052336 204.188429 
L 332.747664 205.22273 
L 333.442991 205.818466 
L 334.138318 205.403125 
L 334.833645 205.886269 
L 335.528972 206.1931 
L 336.224299 204.651628 
L 336.919626 203.99692 
L 337.614953 204.729528 
L 338.31028 205.679221 
L 339.005607 205.515066 
L 339.700935 204.524657 
L 342.482243 203.732198 
L 343.17757 203.359923 
L 343.872897 204.586326 
L 344.568224 204.957509 
L 345.263551 204.925257 
L 345.958879 205.183111 
L 346.654206 204.609769 
L 347.349533 203.6178 
L 348.04486 203.914363 
L 348.740187 205.421465 
L 349.435514 206.263881 
L 350.130841 206.440135 
L 350.826168 206.408829 
L 351.521495 206.737814 
L 352.91215 204.601168 
L 353.607477 204.026776 
L 354.302804 204.176329 
L 354.998131 204.89819 
L 355.693458 204.7815 
L 356.388785 205.371768 
L 357.084112 205.656333 
L 357.779439 204.192383 
L 359.170093 203.6021 
L 359.865421 203.696253 
L 360.560748 204.477644 
L 361.256075 204.975063 
L 361.951402 206.099153 
L 362.646729 206.64602 
L 364.037383 205.56691 
L 364.73271 204.922785 
L 366.123364 204.430016 
L 366.818692 205.064296 
L 367.514019 205.345742 
L 368.209346 204.663636 
L 369.6 204.772579 
L 370.295327 204.597817 
L 370.990654 203.742162 
L 371.685981 203.875269 
L 372.381308 205.30068 
L 373.076636 205.594743 
L 374.46729 204.871246 
L 375.162617 204.073351 
L 375.857944 204.313278 
L 376.553271 204.377763 
L 377.248598 204.697164 
L 377.943925 205.935561 
L 378.639252 206.033438 
L 379.334579 205.951897 
L 380.029907 206.304293 
L 380.725234 205.21583 
L 381.420561 204.648406 
L 382.811215 204.216935 
L 384.897196 206.177663 
L 386.28785 204.773394 
L 387.678505 203.042436 
L 388.373832 203.338076 
L 390.459813 206.337102 
L 391.15514 205.836142 
L 392.545794 204.476824 
L 393.936449 205.166974 
L 394.631776 205.148304 
L 395.327103 206.127299 
L 396.02243 205.335141 
L 396.717757 204.740125 
L 397.413084 205.631444 
L 398.803738 203.89286 
L 400.194393 205.150672 
L 400.88972 205.480925 
L 401.585047 206.023932 
L 402.975701 205.656491 
L 403.671028 204.863296 
L 405.061682 203.855718 
L 405.757009 203.956061 
L 406.452336 205.230391 
L 407.147664 204.890908 
L 407.842991 203.989977 
L 408.538318 203.791262 
L 409.233645 203.268176 
L 409.928972 203.506592 
L 410.624299 204.118447 
L 411.319626 204.954882 
L 412.014953 204.810164 
L 412.71028 205.466184 
L 413.405607 206.535105 
L 414.100935 205.939639 
L 414.796262 206.003514 
L 415.491589 205.415298 
L 416.882243 206.218962 
L 417.57757 204.808187 
L 418.272897 204.966618 
L 418.968224 206.95797 
L 419.663551 205.91644 
L 420.358879 204.395873 
L 421.054206 205.153174 
L 421.749533 205.253506 
L 422.44486 204.943939 
L 423.140187 205.012685 
L 423.835514 205.639687 
L 424.530841 205.583729 
L 425.226168 204.34538 
L 426.616822 202.495791 
L 427.31215 202.730037 
L 428.007477 203.655817 
L 428.702804 203.751537 
L 429.398131 203.184173 
L 430.093458 203.6279 
L 430.788785 205.048596 
L 431.484112 205.768764 
L 432.179439 204.797165 
L 432.874766 204.722203 
L 433.570093 205.934277 
L 434.265421 206.38431 
L 435.656075 206.195242 
L 436.351402 206.949056 
L 437.046729 206.602755 
L 437.742056 205.423641 
L 438.437383 204.824299 
L 439.13271 203.71564 
L 439.828037 203.249752 
L 440.523364 203.965429 
L 441.218692 203.159171 
L 441.914019 202.811396 
L 442.609346 203.780362 
L 443.304673 203.510315 
L 444 204.05048 
L 444.695327 205.468475 
L 445.390654 206.550833 
L 446.085981 207.018767 
L 446.781308 207.290529 
L 448.171963 206.186679 
L 448.86729 206.376134 
L 449.562617 205.012614 
L 450.953271 204.714936 
L 451.648598 203.679133 
L 452.343925 204.455224 
L 453.039252 204.778198 
L 453.734579 203.65733 
L 454.429907 203.816872 
L 455.125234 204.831536 
L 455.820561 203.795115 
L 456.515888 204.156127 
L 457.211215 205.191814 
L 457.906542 204.79002 
L 458.601869 204.74376 
L 459.297196 204.489529 
L 461.383178 204.197035 
L 462.078505 204.356984 
L 462.773832 204.756866 
L 463.469159 204.18036 
L 464.164486 204.135091 
L 464.859813 204.38354 
L 465.55514 205.044496 
L 466.250467 206.169503 
L 466.945794 206.393921 
L 468.336449 207.502093 
L 469.031776 206.912494 
L 469.727103 205.776891 
L 470.42243 205.721113 
L 471.117757 204.887161 
L 472.508411 204.040392 
L 473.203738 202.594828 
L 473.899065 202.825271 
L 474.594393 203.2518 
L 475.28972 203.410579 
L 475.985047 203.210495 
L 476.680374 203.723801 
L 477.375701 204.96418 
L 478.071028 206.461107 
L 478.766355 207.189175 
L 479.461682 206.027136 
L 480.157009 206.12182 
L 480.852336 207.09923 
L 481.547664 206.771965 
L 482.242991 205.957946 
L 482.938318 206.323611 
L 483.633645 205.938547 
L 484.328972 204.852871 
L 485.024299 202.898224 
L 485.719626 202.403992 
L 486.414953 203.423436 
L 487.11028 203.361954 
L 487.805607 203.716655 
L 488.500935 203.847436 
L 489.196262 204.222981 
L 489.891589 204.924924 
L 490.586916 204.946577 
L 491.282243 204.304186 
L 491.97757 204.6748 
L 492.672897 205.340856 
L 493.368224 205.324582 
L 494.063551 204.418568 
L 494.758879 204.291045 
L 495.454206 204.913171 
L 496.149533 203.905749 
L 496.84486 203.537086 
L 497.540187 203.497749 
L 498.235514 204.154984 
L 498.930841 205.313512 
L 500.321495 206.018407 
L 501.016822 205.174891 
L 501.71215 205.377009 
L 502.407477 206.011658 
L 503.102804 205.166859 
L 503.798131 205.763091 
L 504.493458 206.799567 
L 505.884112 204.312289 
L 506.579439 203.479584 
L 508.665421 203.45661 
L 509.360748 203.622002 
L 510.056075 203.925315 
L 511.446729 204.877458 
L 514.228037 207.246921 
L 514.923364 207.653693 
L 515.618692 207.858001 
L 516.314019 207.782008 
L 517.009346 207.340036 
L 517.704673 206.438564 
L 518.4 204.976231 
L 518.4 204.976231 
" style="fill:none;stroke:#ff0000;stroke-linecap:square;stroke-width:2;"/>
   </g>
   <g id="patch_3">
    <path d="M 72 320.4 
L 72 43.2 
" style="fill:none;stroke:#000000;stroke-linecap:square;stroke-linejoin:miter;stroke-width:0.8;"/>
   </g>
   <g id="patch_4">
    <path d="M 518.4 320.4 
L 518.4 43.2 
" style="fill:none;stroke:#000000;stroke-linecap:square;stroke-linejoin:miter;stroke-width:0.8;"/>
   </g>
   <g id="patch_5">
    <path d="M 72 320.4 
L 518.4 320.4 
" style="fill:none;stroke:#000000;stroke-linecap:square;stroke-linejoin:miter;stroke-width:0.8;"/>
   </g>
   <g id="patch_6">
    <path d="M 72 43.2 
L 518.4 43.2 
" style="fill:none;stroke:#000000;stroke-linecap:square;stroke-linejoin:miter;stroke-width:0.8;"/>
   </g>
   <g id="text_16">
    <!-- Front Propogation Speed -->
    <g transform="translate(172.245312 37.2)scale(0.2 -0.2)">
     <defs>
      <path d="M 628 4666 
L 3309 4666 
L 3309 4134 
L 1259 4134 
L 1259 2759 
L 3109 2759 
L 3109 2228 
L 1259 2228 
L 1259 0 
L 628 0 
L 628 4666 
z
" id="DejaVuSans-46" transform="scale(0.015625)"/>
      <path d="M 2631 2963 
Q 2534 3019 2420 3045 
Q 2306 3072 2169 3072 
Q 1681 3072 1420 2755 
Q 1159 2438 1159 1844 
L 1159 0 
L 581 0 
L 581 3500 
L 1159 3500 
L 1159 2956 
Q 1341 3275 1631 3429 
Q 1922 3584 2338 3584 
Q 2397 3584 2469 3576 
Q 2541 3569 2628 3553 
L 2631 2963 
z
" id="DejaVuSans-72" transform="scale(0.015625)"/>
      <path d="M 1172 4494 
L 1172 3500 
L 2356 3500 
L 2356 3053 
L 1172 3053 
L 1172 1153 
Q 1172 725 1289 603 
Q 1406 481 1766 481 
L 2356 481 
L 2356 0 
L 1766 0 
Q 1100 0 847 248 
Q 594 497 594 1153 
L 594 3053 
L 172 3053 
L 172 3500 
L 594 3500 
L 594 4494 
L 1172 4494 
z
" id="DejaVuSans-74" transform="scale(0.015625)"/>
      <path d="M 1259 4147 
L 1259 2394 
L 2053 2394 
Q 2494 2394 2734 2622 
Q 2975 2850 2975 3272 
Q 2975 3691 2734 3919 
Q 2494 4147 2053 4147 
L 1259 4147 
z
M 628 4666 
L 2053 4666 
Q 2838 4666 3239 4311 
Q 3641 3956 3641 3272 
Q 3641 2581 3239 2228 
Q 2838 1875 2053 1875 
L 1259 1875 
L 1259 0 
L 628 0 
L 628 4666 
z
" id="DejaVuSans-50" transform="scale(0.015625)"/>
      <path d="M 2906 1791 
Q 2906 2416 2648 2759 
Q 2391 3103 1925 3103 
Q 1463 3103 1205 2759 
Q 947 2416 947 1791 
Q 947 1169 1205 825 
Q 1463 481 1925 481 
Q 2391 481 2648 825 
Q 2906 1169 2906 1791 
z
M 3481 434 
Q 3481 -459 3084 -895 
Q 2688 -1331 1869 -1331 
Q 1566 -1331 1297 -1286 
Q 1028 -1241 775 -1147 
L 775 -588 
Q 1028 -725 1275 -790 
Q 1522 -856 1778 -856 
Q 2344 -856 2625 -561 
Q 2906 -266 2906 331 
L 2906 616 
Q 2728 306 2450 153 
Q 2172 0 1784 0 
Q 1141 0 747 490 
Q 353 981 353 1791 
Q 353 2603 747 3093 
Q 1141 3584 1784 3584 
Q 2172 3584 2450 3431 
Q 2728 3278 2906 2969 
L 2906 3500 
L 3481 3500 
L 3481 434 
z
" id="DejaVuSans-67" transform="scale(0.015625)"/>
      <path d="M 2194 1759 
Q 1497 1759 1228 1600 
Q 959 1441 959 1056 
Q 959 750 1161 570 
Q 1363 391 1709 391 
Q 2188 391 2477 730 
Q 2766 1069 2766 1631 
L 2766 1759 
L 2194 1759 
z
M 3341 1997 
L 3341 0 
L 2766 0 
L 2766 531 
Q 2569 213 2275 61 
Q 1981 -91 1556 -91 
Q 1019 -91 701 211 
Q 384 513 384 1019 
Q 384 1609 779 1909 
Q 1175 2209 1959 2209 
L 2766 2209 
L 2766 2266 
Q 2766 2663 2505 2880 
Q 2244 3097 1772 3097 
Q 1472 3097 1187 3025 
Q 903 2953 641 2809 
L 641 3341 
Q 956 3463 1253 3523 
Q 1550 3584 1831 3584 
Q 2591 3584 2966 3190 
Q 3341 2797 3341 1997 
z
" id="DejaVuSans-61" transform="scale(0.015625)"/>
     </defs>
     <use xlink:href="#DejaVuSans-46"/>
     <use x="50.269531" xlink:href="#DejaVuSans-72"/>
     <use x="89.132812" xlink:href="#DejaVuSans-6f"/>
     <use x="150.314453" xlink:href="#DejaVuSans-6e"/>
     <use x="213.693359" xlink:href="#DejaVuSans-74"/>
     <use x="252.902344" xlink:href="#DejaVuSans-20"/>
     <use x="284.689453" xlink:href="#DejaVuSans-50"/>
     <use x="343.242188" xlink:href="#DejaVuSans-72"/>
     <use x="382.105469" xlink:href="#DejaVuSans-6f"/>
     <use x="443.287109" xlink:href="#DejaVuSans-70"/>
     <use x="506.763672" xlink:href="#DejaVuSans-6f"/>
     <use x="567.945312" xlink:href="#DejaVuSans-67"/>
     <use x="631.421875" xlink:href="#DejaVuSans-61"/>
     <use x="692.701172" xlink:href="#DejaVuSans-74"/>
     <use x="731.910156" xlink:href="#DejaVuSans-69"/>
     <use x="759.693359" xlink:href="#DejaVuSans-6f"/>
     <use x="820.875" xlink:href="#DejaVuSans-6e"/>
     <use x="884.253906" xlink:href="#DejaVuSans-20"/>
     <use x="916.041016" xlink:href="#DejaVuSans-53"/>
     <use x="979.517578" xlink:href="#DejaVuSans-70"/>
     <use x="1042.994141" xlink:href="#DejaVuSans-65"/>
     <use x="1104.517578" xlink:href="#DejaVuSans-65"/>
     <use x="1166.041016" xlink:href="#DejaVuSans-64"/>
    </g>
   </g>
   <g id="legend_1">
    <g id="patch_7">
     <path d="M 325.967812 111.175687 
L 508.6 111.175687 
Q 511.4 111.175687 511.4 108.375687 
L 511.4 53 
Q 511.4 50.2 508.6 50.2 
L 325.967812 50.2 
Q 323.167812 50.2 323.167812 53 
L 323.167812 108.375687 
Q 323.167812 111.175687 325.967812 111.175687 
z
" style="fill:#ffffff;opacity:0.8;stroke:#cccccc;stroke-linejoin:miter;"/>
    </g>
    <g id="line2d_16">
     <path d="M 328.767812 61.537812 
L 356.767812 61.537812 
" style="fill:none;stroke:#ff0000;stroke-linecap:square;stroke-width:2;"/>
    </g>
    <g id="line2d_17"/>
    <g id="text_17">
     <!-- Front speed -->
     <g transform="translate(367.967812 66.437812)scale(0.14 -0.14)">
      <use xlink:href="#DejaVuSans-46"/>
      <use x="50.269531" xlink:href="#DejaVuSans-72"/>
      <use x="89.132812" xlink:href="#DejaVuSans-6f"/>
      <use x="150.314453" xlink:href="#DejaVuSans-6e"/>
      <use x="213.693359" xlink:href="#DejaVuSans-74"/>
      <use x="252.902344" xlink:href="#DejaVuSans-20"/>
      <use x="284.689453" xlink:href="#DejaVuSans-73"/>
      <use x="336.789062" xlink:href="#DejaVuSans-70"/>
      <use x="400.265625" xlink:href="#DejaVuSans-65"/>
      <use x="461.789062" xlink:href="#DejaVuSans-65"/>
      <use x="523.3125" xlink:href="#DejaVuSans-64"/>
     </g>
    </g>
    <g id="line2d_18">
     <path d="M 328.767812 91.381437 
L 356.767812 91.381437 
" style="fill:none;stroke:#000000;stroke-dasharray:5.55,2.4;stroke-dashoffset:0;stroke-width:1.5;"/>
    </g>
    <g id="line2d_19"/>
    <g id="text_18">
     <!-- Steady state -->
     <g transform="translate(367.967812 86.987187)scale(0.14 -0.14)">
      <defs>
       <path d="M 2059 -325 
Q 1816 -950 1584 -1140 
Q 1353 -1331 966 -1331 
L 506 -1331 
L 506 -850 
L 844 -850 
Q 1081 -850 1212 -737 
Q 1344 -625 1503 -206 
L 1606 56 
L 191 3500 
L 800 3500 
L 1894 763 
L 2988 3500 
L 3597 3500 
L 2059 -325 
z
" id="DejaVuSans-79" transform="scale(0.015625)"/>
      </defs>
      <use xlink:href="#DejaVuSans-53"/>
      <use x="63.476562" xlink:href="#DejaVuSans-74"/>
      <use x="102.685547" xlink:href="#DejaVuSans-65"/>
      <use x="164.208984" xlink:href="#DejaVuSans-61"/>
      <use x="225.488281" xlink:href="#DejaVuSans-64"/>
      <use x="288.964844" xlink:href="#DejaVuSans-79"/>
      <use x="348.144531" xlink:href="#DejaVuSans-20"/>
      <use x="379.931641" xlink:href="#DejaVuSans-73"/>
      <use x="432.03125" xlink:href="#DejaVuSans-74"/>
      <use x="471.240234" xlink:href="#DejaVuSans-61"/>
      <use x="532.519531" xlink:href="#DejaVuSans-74"/>
      <use x="571.728516" xlink:href="#DejaVuSans-65"/>
     </g>
     <!-- speed = 0.74 mm/s -->
     <g transform="translate(367.967812 102.664125)scale(0.14 -0.14)">
      <defs>
       <path d="M 678 2906 
L 4684 2906 
L 4684 2381 
L 678 2381 
L 678 2906 
z
M 678 1631 
L 4684 1631 
L 4684 1100 
L 678 1100 
L 678 1631 
z
" id="DejaVuSans-3d" transform="scale(0.015625)"/>
       <path d="M 2419 4116 
L 825 1625 
L 2419 1625 
L 2419 4116 
z
M 2253 4666 
L 3047 4666 
L 3047 1625 
L 3713 1625 
L 3713 1100 
L 3047 1100 
L 3047 0 
L 2419 0 
L 2419 1100 
L 313 1100 
L 313 1709 
L 2253 4666 
z
" id="DejaVuSans-34" transform="scale(0.015625)"/>
      </defs>
      <use xlink:href="#DejaVuSans-73"/>
      <use x="52.099609" xlink:href="#DejaVuSans-70"/>
      <use x="115.576172" xlink:href="#DejaVuSans-65"/>
      <use x="177.099609" xlink:href="#DejaVuSans-65"/>
      <use x="238.623047" xlink:href="#DejaVuSans-64"/>
      <use x="302.099609" xlink:href="#DejaVuSans-20"/>
      <use x="333.886719" xlink:href="#DejaVuSans-3d"/>
      <use x="417.675781" xlink:href="#DejaVuSans-20"/>
      <use x="449.462891" xlink:href="#DejaVuSans-30"/>
      <use x="513.085938" xlink:href="#DejaVuSans-2e"/>
      <use x="544.873047" xlink:href="#DejaVuSans-37"/>
      <use x="608.496094" xlink:href="#DejaVuSans-34"/>
      <use x="672.119141" xlink:href="#DejaVuSans-20"/>
      <use x="703.90625" xlink:href="#DejaVuSans-6d"/>
      <use x="801.318359" xlink:href="#DejaVuSans-6d"/>
      <use x="898.730469" xlink:href="#DejaVuSans-2f"/>
      <use x="932.421875" xlink:href="#DejaVuSans-73"/>
     </g>
    </g>
   </g>
  </g>
 </g>
 <defs>
  <clipPath id="pab2025bbb9">
   <rect height="277.2" width="446.4" x="72" y="43.2"/>
  </clipPath>
 </defs>
</svg>
