<?xml version="1.0" encoding="utf-8" standalone="no"?>
<!DOCTYPE svg PUBLIC "-//W3C//DTD SVG 1.1//EN"
  "http://www.w3.org/Graphics/SVG/1.1/DTD/svg11.dtd">
<svg height="360pt" version="1.1" viewBox="0 0 576 360" width="576pt" xmlns="http://www.w3.org/2000/svg" xmlns:xlink="http://www.w3.org/1999/xlink">
 <metadata>
  <rdf:RDF xmlns:cc="http://creativecommons.org/ns#" xmlns:dc="http://purl.org/dc/elements/1.1/" xmlns:rdf="http://www.w3.org/1999/02/22-rdf-syntax-ns#">
   <cc:Work>
    <dc:type rdf:resource="http://purl.org/dc/dcmitype/StillImage"/>
    <dc:date>2022-06-30T14:06:10.761188</dc:date>
    <dc:format>image/svg+xml</dc:format>
    <dc:creator>
     <cc:Agent>
      <dc:title>Matplotlib v3.4.3, https://matplotlib.org/</dc:title>
     </cc:Agent>
    </dc:creator>
   </cc:Work>
  </rdf:RDF>
 </metadata>
 <defs>
  <style type="text/css">*{stroke-linecap:butt;stroke-linejoin:round;}</style>
 </defs>
 <g id="figure_1">
  <g id="patch_1">
   <path d="M 0 360 
L 576 360 
L 576 0 
L 0 0 
z
" style="fill:#ffffff;"/>
  </g>
  <g id="axes_1">
   <g id="patch_2">
    <path d="M 72 320.4 
L 518.4 320.4 
L 518.4 43.2 
L 72 43.2 
z
" style="fill:#ffffff;"/>
   </g>
   <g id="matplotlib.axis_1">
    <g id="xtick_1">
     <g id="line2d_1">
      <defs>
       <path d="M 0 0 
L 0 3.5 
" id="m95e035541c" style="stroke:#000000;stroke-width:0.8;"/>
      </defs>
      <g>
       <use style="stroke:#000000;stroke-width:0.8;" x="72" xlink:href="#m95e035541c" y="320.4"/>
      </g>
     </g>
     <g id="text_1">
      <!-- 0.0 -->
      <g transform="translate(60.867812 338.037813)scale(0.14 -0.14)">
       <defs>
        <path d="M 2034 4250 
Q 1547 4250 1301 3770 
Q 1056 3291 1056 2328 
Q 1056 1369 1301 889 
Q 1547 409 2034 409 
Q 2525 409 2770 889 
Q 3016 1369 3016 2328 
Q 3016 3291 2770 3770 
Q 2525 4250 2034 4250 
z
M 2034 4750 
Q 2819 4750 3233 4129 
Q 3647 3509 3647 2328 
Q 3647 1150 3233 529 
Q 2819 -91 2034 -91 
Q 1250 -91 836 529 
Q 422 1150 422 2328 
Q 422 3509 836 4129 
Q 1250 4750 2034 4750 
z
" id="DejaVuSans-30" transform="scale(0.015625)"/>
        <path d="M 684 794 
L 1344 794 
L 1344 0 
L 684 0 
L 684 794 
z
" id="DejaVuSans-2e" transform="scale(0.015625)"/>
       </defs>
       <use xlink:href="#DejaVuSans-30"/>
       <use x="63.623047" xlink:href="#DejaVuSans-2e"/>
       <use x="95.410156" xlink:href="#DejaVuSans-30"/>
      </g>
     </g>
    </g>
    <g id="xtick_2">
     <g id="line2d_2">
      <g>
       <use style="stroke:#000000;stroke-width:0.8;" x="127.822329" xlink:href="#m95e035541c" y="320.4"/>
      </g>
     </g>
     <g id="text_2">
      <!-- 2.5 -->
      <g transform="translate(116.690141 338.037813)scale(0.14 -0.14)">
       <defs>
        <path d="M 1228 531 
L 3431 531 
L 3431 0 
L 469 0 
L 469 531 
Q 828 903 1448 1529 
Q 2069 2156 2228 2338 
Q 2531 2678 2651 2914 
Q 2772 3150 2772 3378 
Q 2772 3750 2511 3984 
Q 2250 4219 1831 4219 
Q 1534 4219 1204 4116 
Q 875 4013 500 3803 
L 500 4441 
Q 881 4594 1212 4672 
Q 1544 4750 1819 4750 
Q 2544 4750 2975 4387 
Q 3406 4025 3406 3419 
Q 3406 3131 3298 2873 
Q 3191 2616 2906 2266 
Q 2828 2175 2409 1742 
Q 1991 1309 1228 531 
z
" id="DejaVuSans-32" transform="scale(0.015625)"/>
        <path d="M 691 4666 
L 3169 4666 
L 3169 4134 
L 1269 4134 
L 1269 2991 
Q 1406 3038 1543 3061 
Q 1681 3084 1819 3084 
Q 2600 3084 3056 2656 
Q 3513 2228 3513 1497 
Q 3513 744 3044 326 
Q 2575 -91 1722 -91 
Q 1428 -91 1123 -41 
Q 819 9 494 109 
L 494 744 
Q 775 591 1075 516 
Q 1375 441 1709 441 
Q 2250 441 2565 725 
Q 2881 1009 2881 1497 
Q 2881 1984 2565 2268 
Q 2250 2553 1709 2553 
Q 1456 2553 1204 2497 
Q 953 2441 691 2322 
L 691 4666 
z
" id="DejaVuSans-35" transform="scale(0.015625)"/>
       </defs>
       <use xlink:href="#DejaVuSans-32"/>
       <use x="63.623047" xlink:href="#DejaVuSans-2e"/>
       <use x="95.410156" xlink:href="#DejaVuSans-35"/>
      </g>
     </g>
    </g>
    <g id="xtick_3">
     <g id="line2d_3">
      <g>
       <use style="stroke:#000000;stroke-width:0.8;" x="183.644658" xlink:href="#m95e035541c" y="320.4"/>
      </g>
     </g>
     <g id="text_3">
      <!-- 5.0 -->
      <g transform="translate(172.51247 338.037813)scale(0.14 -0.14)">
       <use xlink:href="#DejaVuSans-35"/>
       <use x="63.623047" xlink:href="#DejaVuSans-2e"/>
       <use x="95.410156" xlink:href="#DejaVuSans-30"/>
      </g>
     </g>
    </g>
    <g id="xtick_4">
     <g id="line2d_4">
      <g>
       <use style="stroke:#000000;stroke-width:0.8;" x="239.466987" xlink:href="#m95e035541c" y="320.4"/>
      </g>
     </g>
     <g id="text_4">
      <!-- 7.5 -->
      <g transform="translate(228.334799 338.037813)scale(0.14 -0.14)">
       <defs>
        <path d="M 525 4666 
L 3525 4666 
L 3525 4397 
L 1831 0 
L 1172 0 
L 2766 4134 
L 525 4134 
L 525 4666 
z
" id="DejaVuSans-37" transform="scale(0.015625)"/>
       </defs>
       <use xlink:href="#DejaVuSans-37"/>
       <use x="63.623047" xlink:href="#DejaVuSans-2e"/>
       <use x="95.410156" xlink:href="#DejaVuSans-35"/>
      </g>
     </g>
    </g>
    <g id="xtick_5">
     <g id="line2d_5">
      <g>
       <use style="stroke:#000000;stroke-width:0.8;" x="295.289316" xlink:href="#m95e035541c" y="320.4"/>
      </g>
     </g>
     <g id="text_5">
      <!-- 10.0 -->
      <g transform="translate(279.703378 338.037813)scale(0.14 -0.14)">
       <defs>
        <path d="M 794 531 
L 1825 531 
L 1825 4091 
L 703 3866 
L 703 4441 
L 1819 4666 
L 2450 4666 
L 2450 531 
L 3481 531 
L 3481 0 
L 794 0 
L 794 531 
z
" id="DejaVuSans-31" transform="scale(0.015625)"/>
       </defs>
       <use xlink:href="#DejaVuSans-31"/>
       <use x="63.623047" xlink:href="#DejaVuSans-30"/>
       <use x="127.246094" xlink:href="#DejaVuSans-2e"/>
       <use x="159.033203" xlink:href="#DejaVuSans-30"/>
      </g>
     </g>
    </g>
    <g id="xtick_6">
     <g id="line2d_6">
      <g>
       <use style="stroke:#000000;stroke-width:0.8;" x="351.111645" xlink:href="#m95e035541c" y="320.4"/>
      </g>
     </g>
     <g id="text_6">
      <!-- 12.5 -->
      <g transform="translate(335.525707 338.037813)scale(0.14 -0.14)">
       <use xlink:href="#DejaVuSans-31"/>
       <use x="63.623047" xlink:href="#DejaVuSans-32"/>
       <use x="127.246094" xlink:href="#DejaVuSans-2e"/>
       <use x="159.033203" xlink:href="#DejaVuSans-35"/>
      </g>
     </g>
    </g>
    <g id="xtick_7">
     <g id="line2d_7">
      <g>
       <use style="stroke:#000000;stroke-width:0.8;" x="406.933974" xlink:href="#m95e035541c" y="320.4"/>
      </g>
     </g>
     <g id="text_7">
      <!-- 15.0 -->
      <g transform="translate(391.348036 338.037813)scale(0.14 -0.14)">
       <use xlink:href="#DejaVuSans-31"/>
       <use x="63.623047" xlink:href="#DejaVuSans-35"/>
       <use x="127.246094" xlink:href="#DejaVuSans-2e"/>
       <use x="159.033203" xlink:href="#DejaVuSans-30"/>
      </g>
     </g>
    </g>
    <g id="xtick_8">
     <g id="line2d_8">
      <g>
       <use style="stroke:#000000;stroke-width:0.8;" x="462.756303" xlink:href="#m95e035541c" y="320.4"/>
      </g>
     </g>
     <g id="text_8">
      <!-- 17.5 -->
      <g transform="translate(447.170365 338.037813)scale(0.14 -0.14)">
       <use xlink:href="#DejaVuSans-31"/>
       <use x="63.623047" xlink:href="#DejaVuSans-37"/>
       <use x="127.246094" xlink:href="#DejaVuSans-2e"/>
       <use x="159.033203" xlink:href="#DejaVuSans-35"/>
      </g>
     </g>
    </g>
    <g id="text_9">
     <!-- Time [Seconds] -->
     <g transform="translate(233.23 357.106875)scale(0.16 -0.16)">
      <defs>
       <path d="M -19 4666 
L 3928 4666 
L 3928 4134 
L 2272 4134 
L 2272 0 
L 1638 0 
L 1638 4134 
L -19 4134 
L -19 4666 
z
" id="DejaVuSans-54" transform="scale(0.015625)"/>
       <path d="M 603 3500 
L 1178 3500 
L 1178 0 
L 603 0 
L 603 3500 
z
M 603 4863 
L 1178 4863 
L 1178 4134 
L 603 4134 
L 603 4863 
z
" id="DejaVuSans-69" transform="scale(0.015625)"/>
       <path d="M 3328 2828 
Q 3544 3216 3844 3400 
Q 4144 3584 4550 3584 
Q 5097 3584 5394 3201 
Q 5691 2819 5691 2113 
L 5691 0 
L 5113 0 
L 5113 2094 
Q 5113 2597 4934 2840 
Q 4756 3084 4391 3084 
Q 3944 3084 3684 2787 
Q 3425 2491 3425 1978 
L 3425 0 
L 2847 0 
L 2847 2094 
Q 2847 2600 2669 2842 
Q 2491 3084 2119 3084 
Q 1678 3084 1418 2786 
Q 1159 2488 1159 1978 
L 1159 0 
L 581 0 
L 581 3500 
L 1159 3500 
L 1159 2956 
Q 1356 3278 1631 3431 
Q 1906 3584 2284 3584 
Q 2666 3584 2933 3390 
Q 3200 3197 3328 2828 
z
" id="DejaVuSans-6d" transform="scale(0.015625)"/>
       <path d="M 3597 1894 
L 3597 1613 
L 953 1613 
Q 991 1019 1311 708 
Q 1631 397 2203 397 
Q 2534 397 2845 478 
Q 3156 559 3463 722 
L 3463 178 
Q 3153 47 2828 -22 
Q 2503 -91 2169 -91 
Q 1331 -91 842 396 
Q 353 884 353 1716 
Q 353 2575 817 3079 
Q 1281 3584 2069 3584 
Q 2775 3584 3186 3129 
Q 3597 2675 3597 1894 
z
M 3022 2063 
Q 3016 2534 2758 2815 
Q 2500 3097 2075 3097 
Q 1594 3097 1305 2825 
Q 1016 2553 972 2059 
L 3022 2063 
z
" id="DejaVuSans-65" transform="scale(0.015625)"/>
       <path id="DejaVuSans-20" transform="scale(0.015625)"/>
       <path d="M 550 4863 
L 1875 4863 
L 1875 4416 
L 1125 4416 
L 1125 -397 
L 1875 -397 
L 1875 -844 
L 550 -844 
L 550 4863 
z
" id="DejaVuSans-5b" transform="scale(0.015625)"/>
       <path d="M 3425 4513 
L 3425 3897 
Q 3066 4069 2747 4153 
Q 2428 4238 2131 4238 
Q 1616 4238 1336 4038 
Q 1056 3838 1056 3469 
Q 1056 3159 1242 3001 
Q 1428 2844 1947 2747 
L 2328 2669 
Q 3034 2534 3370 2195 
Q 3706 1856 3706 1288 
Q 3706 609 3251 259 
Q 2797 -91 1919 -91 
Q 1588 -91 1214 -16 
Q 841 59 441 206 
L 441 856 
Q 825 641 1194 531 
Q 1563 422 1919 422 
Q 2459 422 2753 634 
Q 3047 847 3047 1241 
Q 3047 1584 2836 1778 
Q 2625 1972 2144 2069 
L 1759 2144 
Q 1053 2284 737 2584 
Q 422 2884 422 3419 
Q 422 4038 858 4394 
Q 1294 4750 2059 4750 
Q 2388 4750 2728 4690 
Q 3069 4631 3425 4513 
z
" id="DejaVuSans-53" transform="scale(0.015625)"/>
       <path d="M 3122 3366 
L 3122 2828 
Q 2878 2963 2633 3030 
Q 2388 3097 2138 3097 
Q 1578 3097 1268 2742 
Q 959 2388 959 1747 
Q 959 1106 1268 751 
Q 1578 397 2138 397 
Q 2388 397 2633 464 
Q 2878 531 3122 666 
L 3122 134 
Q 2881 22 2623 -34 
Q 2366 -91 2075 -91 
Q 1284 -91 818 406 
Q 353 903 353 1747 
Q 353 2603 823 3093 
Q 1294 3584 2113 3584 
Q 2378 3584 2631 3529 
Q 2884 3475 3122 3366 
z
" id="DejaVuSans-63" transform="scale(0.015625)"/>
       <path d="M 1959 3097 
Q 1497 3097 1228 2736 
Q 959 2375 959 1747 
Q 959 1119 1226 758 
Q 1494 397 1959 397 
Q 2419 397 2687 759 
Q 2956 1122 2956 1747 
Q 2956 2369 2687 2733 
Q 2419 3097 1959 3097 
z
M 1959 3584 
Q 2709 3584 3137 3096 
Q 3566 2609 3566 1747 
Q 3566 888 3137 398 
Q 2709 -91 1959 -91 
Q 1206 -91 779 398 
Q 353 888 353 1747 
Q 353 2609 779 3096 
Q 1206 3584 1959 3584 
z
" id="DejaVuSans-6f" transform="scale(0.015625)"/>
       <path d="M 3513 2113 
L 3513 0 
L 2938 0 
L 2938 2094 
Q 2938 2591 2744 2837 
Q 2550 3084 2163 3084 
Q 1697 3084 1428 2787 
Q 1159 2491 1159 1978 
L 1159 0 
L 581 0 
L 581 3500 
L 1159 3500 
L 1159 2956 
Q 1366 3272 1645 3428 
Q 1925 3584 2291 3584 
Q 2894 3584 3203 3211 
Q 3513 2838 3513 2113 
z
" id="DejaVuSans-6e" transform="scale(0.015625)"/>
       <path d="M 2906 2969 
L 2906 4863 
L 3481 4863 
L 3481 0 
L 2906 0 
L 2906 525 
Q 2725 213 2448 61 
Q 2172 -91 1784 -91 
Q 1150 -91 751 415 
Q 353 922 353 1747 
Q 353 2572 751 3078 
Q 1150 3584 1784 3584 
Q 2172 3584 2448 3432 
Q 2725 3281 2906 2969 
z
M 947 1747 
Q 947 1113 1208 752 
Q 1469 391 1925 391 
Q 2381 391 2643 752 
Q 2906 1113 2906 1747 
Q 2906 2381 2643 2742 
Q 2381 3103 1925 3103 
Q 1469 3103 1208 2742 
Q 947 2381 947 1747 
z
" id="DejaVuSans-64" transform="scale(0.015625)"/>
       <path d="M 2834 3397 
L 2834 2853 
Q 2591 2978 2328 3040 
Q 2066 3103 1784 3103 
Q 1356 3103 1142 2972 
Q 928 2841 928 2578 
Q 928 2378 1081 2264 
Q 1234 2150 1697 2047 
L 1894 2003 
Q 2506 1872 2764 1633 
Q 3022 1394 3022 966 
Q 3022 478 2636 193 
Q 2250 -91 1575 -91 
Q 1294 -91 989 -36 
Q 684 19 347 128 
L 347 722 
Q 666 556 975 473 
Q 1284 391 1588 391 
Q 1994 391 2212 530 
Q 2431 669 2431 922 
Q 2431 1156 2273 1281 
Q 2116 1406 1581 1522 
L 1381 1569 
Q 847 1681 609 1914 
Q 372 2147 372 2553 
Q 372 3047 722 3315 
Q 1072 3584 1716 3584 
Q 2034 3584 2315 3537 
Q 2597 3491 2834 3397 
z
" id="DejaVuSans-73" transform="scale(0.015625)"/>
       <path d="M 1947 4863 
L 1947 -844 
L 622 -844 
L 622 -397 
L 1369 -397 
L 1369 4416 
L 622 4416 
L 622 4863 
L 1947 4863 
z
" id="DejaVuSans-5d" transform="scale(0.015625)"/>
      </defs>
      <use xlink:href="#DejaVuSans-54"/>
      <use x="57.958984" xlink:href="#DejaVuSans-69"/>
      <use x="85.742188" xlink:href="#DejaVuSans-6d"/>
      <use x="183.154297" xlink:href="#DejaVuSans-65"/>
      <use x="244.677734" xlink:href="#DejaVuSans-20"/>
      <use x="276.464844" xlink:href="#DejaVuSans-5b"/>
      <use x="315.478516" xlink:href="#DejaVuSans-53"/>
      <use x="378.955078" xlink:href="#DejaVuSans-65"/>
      <use x="440.478516" xlink:href="#DejaVuSans-63"/>
      <use x="495.458984" xlink:href="#DejaVuSans-6f"/>
      <use x="556.640625" xlink:href="#DejaVuSans-6e"/>
      <use x="620.019531" xlink:href="#DejaVuSans-64"/>
      <use x="683.496094" xlink:href="#DejaVuSans-73"/>
      <use x="735.595703" xlink:href="#DejaVuSans-5d"/>
     </g>
    </g>
   </g>
   <g id="matplotlib.axis_2">
    <g id="ytick_1">
     <g id="line2d_9">
      <defs>
       <path d="M 0 0 
L -3.5 0 
" id="mef94eb1681" style="stroke:#000000;stroke-width:0.8;"/>
      </defs>
      <g>
       <use style="stroke:#000000;stroke-width:0.8;" x="72" xlink:href="#mef94eb1681" y="307.8"/>
      </g>
     </g>
     <g id="text_10">
      <!-- 0.0 -->
      <g transform="translate(42.735625 313.118906)scale(0.14 -0.14)">
       <use xlink:href="#DejaVuSans-30"/>
       <use x="63.623047" xlink:href="#DejaVuSans-2e"/>
       <use x="95.410156" xlink:href="#DejaVuSans-30"/>
      </g>
     </g>
    </g>
    <g id="ytick_2">
     <g id="line2d_10">
      <g>
       <use style="stroke:#000000;stroke-width:0.8;" x="72" xlink:href="#mef94eb1681" y="273.819417"/>
      </g>
     </g>
     <g id="text_11">
      <!-- 2.5 -->
      <g transform="translate(42.735625 279.138324)scale(0.14 -0.14)">
       <use xlink:href="#DejaVuSans-32"/>
       <use x="63.623047" xlink:href="#DejaVuSans-2e"/>
       <use x="95.410156" xlink:href="#DejaVuSans-35"/>
      </g>
     </g>
    </g>
    <g id="ytick_3">
     <g id="line2d_11">
      <g>
       <use style="stroke:#000000;stroke-width:0.8;" x="72" xlink:href="#mef94eb1681" y="239.838835"/>
      </g>
     </g>
     <g id="text_12">
      <!-- 5.0 -->
      <g transform="translate(42.735625 245.157741)scale(0.14 -0.14)">
       <use xlink:href="#DejaVuSans-35"/>
       <use x="63.623047" xlink:href="#DejaVuSans-2e"/>
       <use x="95.410156" xlink:href="#DejaVuSans-30"/>
      </g>
     </g>
    </g>
    <g id="ytick_4">
     <g id="line2d_12">
      <g>
       <use style="stroke:#000000;stroke-width:0.8;" x="72" xlink:href="#mef94eb1681" y="205.858252"/>
      </g>
     </g>
     <g id="text_13">
      <!-- 7.5 -->
      <g transform="translate(42.735625 211.177159)scale(0.14 -0.14)">
       <use xlink:href="#DejaVuSans-37"/>
       <use x="63.623047" xlink:href="#DejaVuSans-2e"/>
       <use x="95.410156" xlink:href="#DejaVuSans-35"/>
      </g>
     </g>
    </g>
    <g id="ytick_5">
     <g id="line2d_13">
      <g>
       <use style="stroke:#000000;stroke-width:0.8;" x="72" xlink:href="#mef94eb1681" y="171.87767"/>
      </g>
     </g>
     <g id="text_14">
      <!-- 10.0 -->
      <g transform="translate(33.828125 177.196576)scale(0.14 -0.14)">
       <use xlink:href="#DejaVuSans-31"/>
       <use x="63.623047" xlink:href="#DejaVuSans-30"/>
       <use x="127.246094" xlink:href="#DejaVuSans-2e"/>
       <use x="159.033203" xlink:href="#DejaVuSans-30"/>
      </g>
     </g>
    </g>
    <g id="ytick_6">
     <g id="line2d_14">
      <g>
       <use style="stroke:#000000;stroke-width:0.8;" x="72" xlink:href="#mef94eb1681" y="137.897087"/>
      </g>
     </g>
     <g id="text_15">
      <!-- 12.5 -->
      <g transform="translate(33.828125 143.215994)scale(0.14 -0.14)">
       <use xlink:href="#DejaVuSans-31"/>
       <use x="63.623047" xlink:href="#DejaVuSans-32"/>
       <use x="127.246094" xlink:href="#DejaVuSans-2e"/>
       <use x="159.033203" xlink:href="#DejaVuSans-35"/>
      </g>
     </g>
    </g>
    <g id="ytick_7">
     <g id="line2d_15">
      <g>
       <use style="stroke:#000000;stroke-width:0.8;" x="72" xlink:href="#mef94eb1681" y="103.916505"/>
      </g>
     </g>
     <g id="text_16">
      <!-- 15.0 -->
      <g transform="translate(33.828125 109.235411)scale(0.14 -0.14)">
       <use xlink:href="#DejaVuSans-31"/>
       <use x="63.623047" xlink:href="#DejaVuSans-35"/>
       <use x="127.246094" xlink:href="#DejaVuSans-2e"/>
       <use x="159.033203" xlink:href="#DejaVuSans-30"/>
      </g>
     </g>
    </g>
    <g id="ytick_8">
     <g id="line2d_16">
      <g>
       <use style="stroke:#000000;stroke-width:0.8;" x="72" xlink:href="#mef94eb1681" y="69.935922"/>
      </g>
     </g>
     <g id="text_17">
      <!-- 17.5 -->
      <g transform="translate(33.828125 75.254829)scale(0.14 -0.14)">
       <use xlink:href="#DejaVuSans-31"/>
       <use x="63.623047" xlink:href="#DejaVuSans-37"/>
       <use x="127.246094" xlink:href="#DejaVuSans-2e"/>
       <use x="159.033203" xlink:href="#DejaVuSans-35"/>
      </g>
     </g>
    </g>
    <g id="text_18">
     <!-- Position [mm] -->
     <g transform="translate(26.500625 237.3125)rotate(-90)scale(0.16 -0.16)">
      <defs>
       <path d="M 1259 4147 
L 1259 2394 
L 2053 2394 
Q 2494 2394 2734 2622 
Q 2975 2850 2975 3272 
Q 2975 3691 2734 3919 
Q 2494 4147 2053 4147 
L 1259 4147 
z
M 628 4666 
L 2053 4666 
Q 2838 4666 3239 4311 
Q 3641 3956 3641 3272 
Q 3641 2581 3239 2228 
Q 2838 1875 2053 1875 
L 1259 1875 
L 1259 0 
L 628 0 
L 628 4666 
z
" id="DejaVuSans-50" transform="scale(0.015625)"/>
       <path d="M 1172 4494 
L 1172 3500 
L 2356 3500 
L 2356 3053 
L 1172 3053 
L 1172 1153 
Q 1172 725 1289 603 
Q 1406 481 1766 481 
L 2356 481 
L 2356 0 
L 1766 0 
Q 1100 0 847 248 
Q 594 497 594 1153 
L 594 3053 
L 172 3053 
L 172 3500 
L 594 3500 
L 594 4494 
L 1172 4494 
z
" id="DejaVuSans-74" transform="scale(0.015625)"/>
      </defs>
      <use xlink:href="#DejaVuSans-50"/>
      <use x="56.677734" xlink:href="#DejaVuSans-6f"/>
      <use x="117.859375" xlink:href="#DejaVuSans-73"/>
      <use x="169.958984" xlink:href="#DejaVuSans-69"/>
      <use x="197.742188" xlink:href="#DejaVuSans-74"/>
      <use x="236.951172" xlink:href="#DejaVuSans-69"/>
      <use x="264.734375" xlink:href="#DejaVuSans-6f"/>
      <use x="325.916016" xlink:href="#DejaVuSans-6e"/>
      <use x="389.294922" xlink:href="#DejaVuSans-20"/>
      <use x="421.082031" xlink:href="#DejaVuSans-5b"/>
      <use x="460.095703" xlink:href="#DejaVuSans-6d"/>
      <use x="557.507812" xlink:href="#DejaVuSans-6d"/>
      <use x="654.919922" xlink:href="#DejaVuSans-5d"/>
     </g>
    </g>
   </g>
   <g id="line2d_17">
    <path clip-path="url(#paec371b864)" d="M 72 307.8 
L 135.114894 307.400929 
L 135.421277 307.593165 
L 139.097872 306.047403 
L 139.404255 306.326479 
L 139.710638 305.417936 
L 140.017021 302.873632 
L 140.93617 301.445944 
L 142.161702 300.864476 
L 143.080851 300.037208 
L 143.387234 299.691888 
L 143.693617 298.148209 
L 144.306383 297.777124 
L 146.144681 296.490793 
L 146.451064 296.580559 
L 151.046809 292.658922 
L 151.353191 292.309227 
L 151.659574 292.189747 
L 152.27234 291.786715 
L 152.885106 291.453857 
L 153.497872 290.988411 
L 153.804255 290.880813 
L 154.417021 290.326331 
L 154.723404 290.376007 
L 155.642553 289.713681 
L 156.868085 288.869096 
L 160.851064 286.037867 
L 161.46383 285.683988 
L 162.689362 284.770988 
L 163.914894 283.939754 
L 164.221277 283.744294 
L 164.52766 283.694695 
L 164.834043 283.345 
L 165.140426 283.358142 
L 165.446809 282.95504 
L 165.753191 283.009509 
L 166.059574 282.621758 
L 166.365957 282.615945 
L 167.285106 281.945558 
L 167.591489 281.803637 
L 167.897872 281.404527 
L 168.204255 281.384283 
L 168.510638 280.997367 
L 168.817021 280.99072 
L 169.429787 280.33238 
L 169.73617 280.117183 
L 170.042553 280.179547 
L 170.655319 279.514468 
L 176.782979 275.604249 
L 177.089362 275.574134 
L 177.395745 275.176562 
L 178.621277 274.37726 
L 178.92766 274.426847 
L 179.234043 273.999879 
L 179.540426 274.047486 
L 179.846809 273.608344 
L 180.153191 273.668126 
L 181.378723 272.607958 
L 181.685106 272.408132 
L 181.991489 272.486623 
L 182.604255 271.808656 
L 182.910638 271.60883 
L 183.217021 271.648364 
L 183.829787 271.067322 
L 184.442553 270.780187 
L 185.361702 270.039353 
L 186.587234 269.354977 
L 186.893617 269.235346 
L 187.506383 268.675835 
L 187.812766 268.637332 
L 188.425532 268.070225 
L 189.957447 267.071098 
L 190.26383 267.204795 
L 191.182979 266.338185 
L 191.795745 265.901272 
L 192.102128 265.937975 
L 192.714894 265.301796 
L 193.021277 265.10197 
L 193.32766 265.099715 
L 193.940426 264.680586 
L 195.778723 263.38242 
L 196.085106 263.273251 
L 196.391489 262.963291 
L 196.697872 262.930658 
L 197.310638 262.362667 
L 197.617021 262.162842 
L 197.923404 262.156964 
L 198.229787 261.793836 
L 198.53617 261.832878 
L 198.842553 261.400273 
L 200.068085 260.564238 
L 200.374468 260.687492 
L 200.987234 259.993888 
L 201.906383 259.394412 
L 202.212766 259.389326 
L 202.519149 259.089861 
L 202.825532 258.970197 
L 203.744681 258.327827 
L 204.051064 258.1768 
L 204.970213 257.425284 
L 206.195745 256.831715 
L 206.502128 256.430955 
L 208.953191 254.85668 
L 209.259574 254.977103 
L 209.565957 254.531534 
L 209.87234 254.557973 
L 210.178723 254.261262 
L 210.485106 254.128894 
L 210.791489 253.776751 
L 211.097872 253.706924 
L 211.404255 253.383187 
L 211.710638 253.259808 
L 212.323404 252.840678 
L 216 250.318948 
L 216.306383 250.368384 
L 216.612766 249.941506 
L 216.919149 249.989024 
L 217.225532 249.593361 
L 217.531915 249.685843 
L 217.838298 249.199797 
L 218.144681 249.266714 
L 218.451064 248.806234 
L 219.06383 248.34982 
L 219.370213 248.428455 
L 219.676596 248.042085 
L 219.982979 248.009325 
L 220.595745 247.379819 
L 220.902128 247.179993 
L 221.208511 247.130289 
L 222.740426 245.981041 
L 223.659574 245.573414 
L 224.27234 245.013903 
L 224.578723 244.972538 
L 224.885106 244.622844 
L 225.191489 244.578975 
L 225.497872 244.22928 
L 225.804255 244.284414 
L 226.110638 243.843593 
L 227.029787 243.352413 
L 227.33617 243.072658 
L 227.642553 243.137195 
L 227.948936 242.705996 
L 228.255319 242.718065 
L 228.868085 242.042785 
L 229.174468 241.84296 
L 229.480851 241.879806 
L 229.787234 241.647192 
L 230.4 241.072784 
L 230.706383 241.00077 
L 232.851064 239.588547 
L 233.157447 239.469923 
L 233.770213 238.910412 
L 234.076596 238.872301 
L 234.382979 238.522606 
L 234.689362 238.478737 
L 235.302128 237.904704 
L 235.914894 237.584565 
L 236.221277 237.484653 
L 236.834043 236.934703 
L 237.140426 237.007676 
L 237.446809 236.605759 
L 237.753191 236.588547 
L 238.059574 236.212195 
L 238.365957 236.169417 
L 238.67234 235.818631 
L 238.978723 235.750288 
L 239.285106 235.454723 
L 239.591489 235.331158 
L 240.817021 234.452122 
L 241.123404 234.295347 
L 241.73617 233.766622 
L 242.655319 233.194733 
L 242.961702 233.165627 
L 243.268085 232.815932 
L 243.574468 232.773253 
L 244.187234 232.197145 
L 244.493617 231.99732 
L 244.8 232.073724 
L 245.106383 231.635241 
L 245.719149 231.198018 
L 246.638298 230.914687 
L 246.944681 230.505521 
L 247.251064 230.459028 
L 247.557447 230.111957 
L 247.86383 230.039898 
L 248.782979 229.22889 
L 250.621277 228.19511 
L 250.92766 227.903474 
L 251.234043 227.801546 
L 251.846809 227.259762 
L 252.153191 227.065214 
L 252.459574 227.068643 
L 252.765957 226.715695 
L 253.07234 226.689282 
L 253.378723 226.322131 
L 253.685106 226.373242 
L 253.991489 225.928567 
L 254.297872 226.022288 
L 254.604255 225.535004 
L 254.910638 225.627675 
L 255.217021 225.158317 
L 255.829787 224.85723 
L 256.13617 224.781915 
L 256.748936 224.120808 
L 257.055319 223.920983 
L 257.361702 223.91038 
L 258.280851 223.121681 
L 258.587234 223.072121 
L 259.506383 222.488436 
L 260.119149 221.951855 
L 262.570213 220.605312 
L 262.876596 220.221894 
L 263.182979 220.321806 
L 263.489362 219.82833 
L 263.795745 219.917286 
L 264.102128 219.434766 
L 264.714894 218.9836 
L 265.021277 219.079027 
L 265.32766 218.668869 
L 265.634043 218.659897 
L 265.940426 218.305046 
L 266.246809 218.227173 
L 266.553191 217.911482 
L 266.859574 217.780861 
L 267.778723 217.014472 
L 268.391489 216.769448 
L 268.697872 216.437595 
L 269.310638 216.204395 
L 269.923404 215.644884 
L 270.229787 215.601071 
L 270.53617 215.251376 
L 270.842553 215.207507 
L 271.148936 214.857813 
L 271.455319 214.900702 
L 271.761702 214.470376 
L 272.068085 214.521342 
L 273.6 213.276041 
L 273.906383 213.368638 
L 274.212766 212.940965 
L 274.519149 212.949508 
L 275.131915 212.329719 
L 275.744681 212.094401 
L 276.970213 211.107088 
L 277.582979 210.813083 
L 277.889362 210.671534 
L 278.195745 210.393954 
L 278.502128 210.287961 
L 278.808511 209.938266 
L 279.114894 209.894397 
L 279.421277 209.544703 
L 279.72766 209.500833 
L 280.340426 208.938135 
L 281.259574 208.338658 
L 281.565957 208.437372 
L 281.87234 208.021419 
L 282.178723 208.058011 
L 282.485106 207.627855 
L 282.791489 207.658248 
L 283.097872 207.234291 
L 283.404255 207.239119 
L 284.017021 206.569356 
L 284.629787 206.217862 
L 285.242553 205.961628 
L 286.161702 205.317443 
L 287.693617 204.264435 
L 288 204.204635 
L 288.612766 203.717658 
L 289.225532 203.230576 
L 290.144681 202.6311 
L 290.451064 202.665524 
L 290.757447 202.263774 
L 291.06383 202.353401 
L 291.370213 201.883014 
L 292.595745 201.100253 
L 293.208511 200.661972 
L 293.514894 200.690471 
L 293.821277 200.346926 
L 294.12766 200.271341 
L 294.434043 199.983593 
L 295.046809 199.61077 
L 295.659574 199.092495 
L 296.27234 198.823642 
L 296.885106 198.293193 
L 298.417021 197.321323 
L 298.723404 197.305571 
L 299.029787 196.950664 
L 299.33617 196.965042 
L 299.642553 196.5571 
L 299.948936 196.614088 
L 300.255319 196.163536 
L 300.868085 195.724589 
L 301.174468 195.859117 
L 301.787234 195.154239 
L 302.706383 194.554763 
L 303.012766 194.560952 
L 303.319149 194.246689 
L 303.625532 194.141822 
L 304.544681 193.490526 
L 305.157447 193.055516 
L 306.689362 192.005397 
L 306.995745 191.986259 
L 307.302128 191.586608 
L 307.608511 191.600961 
L 308.221277 191.114271 
L 309.140426 190.416681 
L 309.753191 190.017031 
L 310.059574 190.148728 
L 310.365957 189.687187 
L 311.591489 188.893271 
L 311.897872 188.850563 
L 312.817021 188.047903 
L 313.429787 187.648252 
L 313.73617 187.593174 
L 314.042553 187.410294 
L 314.655319 186.878076 
L 315.880851 186.229603 
L 316.187234 185.879909 
L 316.493617 185.83604 
L 317.106383 185.279473 
L 317.719149 184.970979 
L 318.025532 184.871066 
L 318.638298 184.33462 
L 318.944681 184.438339 
L 319.251064 183.963061 
L 319.557447 184.01921 
L 319.86383 183.569497 
L 320.170213 183.60008 
L 320.476596 183.197738 
L 320.782979 183.18095 
L 321.395745 182.54017 
L 321.702128 182.340344 
L 322.008511 182.301914 
L 322.92766 181.65265 
L 324.765957 180.45213 
L 325.378723 179.971565 
L 325.685106 179.77174 
L 325.991489 179.735802 
L 326.604255 179.172264 
L 326.910638 178.972438 
L 327.217021 179.05366 
L 328.13617 178.231129 
L 328.442553 178.30882 
L 329.055319 177.602787 
L 329.974468 177.00331 
L 330.280851 177.051432 
L 332.731915 175.234008 
L 333.957447 174.46359 
L 334.26383 174.422692 
L 334.570213 174.072997 
L 334.876596 174.029128 
L 335.182979 173.679434 
L 335.489362 173.635564 
L 335.795745 173.28587 
L 336.102128 173.34905 
L 336.408511 172.901332 
L 336.714894 172.96969 
L 337.021277 172.549713 
L 337.32766 172.590329 
L 337.634043 172.15615 
L 337.940426 172.179302 
L 338.553191 171.495577 
L 340.697872 170.115848 
L 341.004255 170.059907 
L 342.842553 168.785488 
L 343.148936 168.710955 
L 343.455319 168.328576 
L 345.293617 167.157671 
L 345.6 167.205888 
L 345.906383 166.792069 
L 346.212766 166.885719 
L 346.519149 166.411884 
L 346.825532 166.506359 
L 347.744681 165.627743 
L 348.970213 164.788892 
L 349.889362 164.227718 
L 350.502128 163.966253 
L 351.421277 163.219415 
L 352.034043 162.958373 
L 352.646809 162.420113 
L 353.565957 161.84774 
L 353.87234 161.837889 
L 354.485106 161.250287 
L 354.791489 161.050461 
L 355.097872 161.154452 
L 355.404255 160.691831 
L 355.710638 160.7993 
L 356.017021 160.31397 
L 357.242553 159.524252 
L 357.548936 159.501135 
L 357.855319 159.168547 
L 358.161702 159.082005 
L 358.468085 158.774984 
L 358.774468 158.662876 
L 360.306383 157.511856 
L 360.919149 157.2517 
L 361.531915 156.712555 
L 362.451064 156.113078 
L 362.757447 156.133279 
L 363.06383 155.723943 
L 365.514894 154.143951 
L 365.821277 154.250652 
L 366.12766 153.824522 
L 366.434043 153.831522 
L 366.740426 153.461873 
L 367.046809 153.400442 
L 367.353191 153.06831 
L 367.659574 152.952486 
L 368.578723 152.174823 
L 368.885106 152.114227 
L 370.417021 151.151462 
L 370.723404 150.816062 
L 371.029787 150.757898 
L 371.642553 150.205695 
L 372.561702 149.606218 
L 372.868085 149.669948 
L 374.4 148.436392 
L 374.706383 148.540263 
L 375.012766 148.097792 
L 375.319149 148.121133 
L 375.931915 147.492419 
L 376.544681 147.200621 
L 376.851064 146.920865 
L 377.157447 146.822968 
L 378.076596 146.067613 
L 378.689362 145.827187 
L 378.995745 145.488437 
L 379.608511 145.259376 
L 380.52766 144.498136 
L 381.446809 143.89866 
L 381.753191 143.965338 
L 382.059574 143.528115 
L 382.365957 143.585978 
L 382.67234 143.178246 
L 382.978723 143.206618 
L 383.285106 142.784682 
L 383.591489 142.829874 
L 383.897872 142.391119 
L 384.204255 142.410744 
L 384.510638 141.997555 
L 384.817021 141.991615 
L 385.123404 141.628694 
L 385.429787 141.572485 
L 386.042553 140.936598 
L 390.025532 138.390927 
L 390.331915 138.191102 
L 390.638298 138.163859 
L 391.251064 137.591625 
L 391.557447 137.3918 
L 391.86383 137.502008 
L 392.170213 137.038667 
L 392.782979 136.769065 
L 393.089362 136.740978 
L 393.702128 136.022148 
L 395.540426 134.864996 
L 396.153191 134.597235 
L 397.07234 133.853195 
L 397.685106 133.586906 
L 397.991489 133.306542 
L 398.297872 133.239825 
L 398.604255 132.887412 
L 398.910638 132.850749 
L 399.523404 132.283718 
L 399.829787 132.083892 
L 400.13617 132.097206 
L 400.442553 131.713927 
L 400.748936 131.746252 
L 401.055319 131.320364 
L 401.668085 130.88494 
L 402.587234 130.434989 
L 403.506383 129.715114 
L 404.731915 128.915812 
L 405.038298 128.894318 
L 406.876596 127.596152 
L 407.182979 127.486668 
L 407.795745 126.946684 
L 412.085106 124.241554 
L 412.697872 123.935093 
L 413.004255 123.655338 
L 413.310638 123.603059 
L 413.617021 123.303278 
L 413.923404 123.183929 
L 414.842553 122.408952 
L 415.455319 122.173558 
L 416.068085 121.638776 
L 417.293617 120.992867 
L 417.906383 120.439824 
L 418.519149 120.133679 
L 418.825532 120.033766 
L 420.357447 118.870347 
L 421.276596 118.27087 
L 421.582979 118.352576 
L 421.889362 117.990168 
L 422.195745 117.920691 
L 422.502128 117.596605 
L 422.808511 117.47354 
L 423.72766 116.701393 
L 424.034043 116.635281 
L 424.953191 116.073321 
L 425.565957 115.531567 
L 428.017021 114.021822 
L 428.629787 113.822906 
L 428.93617 113.413215 
L 429.242553 113.443545 
L 429.548936 113.019651 
L 429.855319 113.061316 
L 430.161702 112.626087 
L 430.468085 112.642187 
L 430.774468 112.232524 
L 431.080851 112.223057 
L 431.387234 111.863943 
L 431.693617 111.803927 
L 433.838298 110.194533 
L 434.451064 109.964522 
L 434.757447 109.597069 
L 437.208511 108.049134 
L 437.514894 108.118296 
L 437.821277 107.66545 
L 438.434043 107.406343 
L 438.740426 107.359575 
L 439.046809 106.919413 
L 439.353191 106.931798 
L 439.659574 106.52585 
L 439.965957 106.512668 
L 440.578723 105.856627 
L 441.191489 105.502274 
L 441.804255 105.228216 
L 442.723404 104.486975 
L 443.33617 104.215438 
L 443.642553 103.957114 
L 443.948936 103.866608 
L 444.255319 103.537984 
L 444.561702 103.479282 
L 444.868085 103.129587 
L 445.174468 103.085718 
L 445.480851 102.736024 
L 445.787234 102.692154 
L 446.4 102.118196 
L 447.319149 101.51872 
L 447.625532 101.654965 
L 448.544681 100.786215 
L 449.157447 100.348894 
L 449.46383 100.383149 
L 450.076596 99.749417 
L 451.914894 98.665854 
L 452.834043 98.115201 
L 453.140426 97.827595 
L 453.446809 97.768695 
L 453.753191 97.380638 
L 454.365957 96.989336 
L 454.67234 96.986495 
L 455.285106 96.607135 
L 455.591489 96.242222 
L 455.897872 96.286616 
L 456.204255 95.848659 
L 457.429787 95.01186 
L 458.348936 94.706484 
L 458.655319 94.325375 
L 458.961702 94.253631 
L 459.268085 93.931811 
L 459.574468 93.834501 
L 459.880851 93.538247 
L 460.493617 93.178667 
L 461.719149 92.408527 
L 462.025532 92.117206 
L 462.331915 92.014963 
L 462.638298 91.698076 
L 462.944681 91.6214 
L 463.251064 91.278947 
L 463.557447 91.281885 
L 463.86383 90.879596 
L 464.170213 90.902525 
L 466.92766 88.90465 
L 467.234043 89.003148 
L 468.153191 88.182828 
L 468.459574 88.124112 
L 468.765957 87.831573 
L 469.07234 87.704982 
L 469.685106 87.285853 
L 474.280851 84.255391 
L 474.893617 84.059834 
L 475.2 83.648184 
L 475.506383 83.711888 
L 475.812766 83.25462 
L 476.119149 83.292759 
L 476.425532 82.861056 
L 476.731915 82.873629 
L 477.038298 82.490726 
L 477.344681 82.4545 
L 477.651064 82.1249 
L 477.957447 82.01897 
L 478.570213 81.575464 
L 479.795745 80.737204 
L 480.102128 80.591305 
L 480.408511 80.318075 
L 480.714894 80.232895 
L 481.021277 79.858672 
L 481.32766 79.814488 
L 481.940426 79.258836 
L 482.246809 79.059011 
L 482.553191 79.027361 
L 483.165957 78.459534 
L 483.47234 78.259709 
L 483.778723 78.355224 
L 484.391489 77.689359 
L 484.697872 77.489534 
L 485.004255 77.58237 
L 485.310638 77.154382 
L 485.617021 77.16324 
L 486.229787 76.490407 
L 486.53617 76.290581 
L 486.842553 76.324981 
L 487.761702 75.520406 
L 488.068085 75.445945 
L 490.519149 73.75812 
L 490.825532 73.714251 
L 491.438298 73.151627 
L 491.744681 72.951801 
L 492.051064 72.929852 
L 492.66383 72.352325 
L 492.970213 72.1525 
L 493.276596 72.271254 
L 493.582979 71.802785 
L 493.889362 71.891893 
L 494.502128 71.182499 
L 495.421277 70.583023 
L 495.72766 70.614592 
L 496.034043 70.294899 
L 496.340426 70.195462 
L 496.953191 69.623987 
L 497.565957 69.331455 
L 499.710638 68.003943 
L 500.017021 67.639908 
L 500.323404 67.614013 
L 500.93617 67.044418 
L 501.242553 66.844592 
L 501.548936 66.878416 
L 502.161702 66.245116 
L 502.468085 66.045291 
L 502.774468 66.187283 
L 503.080851 65.704872 
L 504 65.07529 
L 504.306383 64.875464 
L 504.612766 64.904203 
L 505.225532 64.275988 
L 505.531915 64.076163 
L 505.838298 64.065943 
L 506.451064 63.646814 
L 509.514894 61.510389 
L 509.821277 61.518813 
L 510.434043 61.03481 
L 510.740426 60.755055 
L 511.046809 60.826981 
L 511.353191 60.376954 
L 512.578723 59.53843 
L 512.885106 59.65372 
L 513.804255 58.813809 
L 514.110638 58.804763 
L 514.417021 58.460106 
L 514.723404 58.355554 
L 515.029787 58.066542 
L 515.33617 57.936425 
L 515.948936 57.517295 
L 518.4 55.8 
L 518.4 55.8 
" style="fill:none;stroke:#ff0000;stroke-linecap:square;stroke-width:2;"/>
   </g>
   <g id="patch_3">
    <path d="M 72 320.4 
L 72 43.2 
" style="fill:none;stroke:#000000;stroke-linecap:square;stroke-linejoin:miter;stroke-width:0.8;"/>
   </g>
   <g id="patch_4">
    <path d="M 518.4 320.4 
L 518.4 43.2 
" style="fill:none;stroke:#000000;stroke-linecap:square;stroke-linejoin:miter;stroke-width:0.8;"/>
   </g>
   <g id="patch_5">
    <path d="M 72 320.4 
L 518.4 320.4 
" style="fill:none;stroke:#000000;stroke-linecap:square;stroke-linejoin:miter;stroke-width:0.8;"/>
   </g>
   <g id="patch_6">
    <path d="M 72 43.2 
L 518.4 43.2 
" style="fill:none;stroke:#000000;stroke-linecap:square;stroke-linejoin:miter;stroke-width:0.8;"/>
   </g>
   <g id="text_19">
    <!-- Front Position -->
    <g transform="translate(227.804688 37.2)scale(0.2 -0.2)">
     <defs>
      <path d="M 628 4666 
L 3309 4666 
L 3309 4134 
L 1259 4134 
L 1259 2759 
L 3109 2759 
L 3109 2228 
L 1259 2228 
L 1259 0 
L 628 0 
L 628 4666 
z
" id="DejaVuSans-46" transform="scale(0.015625)"/>
      <path d="M 2631 2963 
Q 2534 3019 2420 3045 
Q 2306 3072 2169 3072 
Q 1681 3072 1420 2755 
Q 1159 2438 1159 1844 
L 1159 0 
L 581 0 
L 581 3500 
L 1159 3500 
L 1159 2956 
Q 1341 3275 1631 3429 
Q 1922 3584 2338 3584 
Q 2397 3584 2469 3576 
Q 2541 3569 2628 3553 
L 2631 2963 
z
" id="DejaVuSans-72" transform="scale(0.015625)"/>
     </defs>
     <use xlink:href="#DejaVuSans-46"/>
     <use x="50.269531" xlink:href="#DejaVuSans-72"/>
     <use x="89.132812" xlink:href="#DejaVuSans-6f"/>
     <use x="150.314453" xlink:href="#DejaVuSans-6e"/>
     <use x="213.693359" xlink:href="#DejaVuSans-74"/>
     <use x="252.902344" xlink:href="#DejaVuSans-20"/>
     <use x="284.689453" xlink:href="#DejaVuSans-50"/>
     <use x="341.367188" xlink:href="#DejaVuSans-6f"/>
     <use x="402.548828" xlink:href="#DejaVuSans-73"/>
     <use x="454.648438" xlink:href="#DejaVuSans-69"/>
     <use x="482.431641" xlink:href="#DejaVuSans-74"/>
     <use x="521.640625" xlink:href="#DejaVuSans-69"/>
     <use x="549.423828" xlink:href="#DejaVuSans-6f"/>
     <use x="610.605469" xlink:href="#DejaVuSans-6e"/>
    </g>
   </g>
  </g>
 </g>
 <defs>
  <clipPath id="paec371b864">
   <rect height="277.2" width="446.4" x="72" y="43.2"/>
  </clipPath>
 </defs>
</svg>
