<?xml version="1.0" encoding="utf-8" standalone="no"?>
<!DOCTYPE svg PUBLIC "-//W3C//DTD SVG 1.1//EN"
  "http://www.w3.org/Graphics/SVG/1.1/DTD/svg11.dtd">
<svg height="360pt" version="1.1" viewBox="0 0 576 360" width="576pt" xmlns="http://www.w3.org/2000/svg" xmlns:xlink="http://www.w3.org/1999/xlink">
 <metadata>
  <rdf:RDF xmlns:cc="http://creativecommons.org/ns#" xmlns:dc="http://purl.org/dc/elements/1.1/" xmlns:rdf="http://www.w3.org/1999/02/22-rdf-syntax-ns#">
   <cc:Work>
    <dc:type rdf:resource="http://purl.org/dc/dcmitype/StillImage"/>
    <dc:date>2022-06-30T14:22:02.099605</dc:date>
    <dc:format>image/svg+xml</dc:format>
    <dc:creator>
     <cc:Agent>
      <dc:title>Matplotlib v3.4.3, https://matplotlib.org/</dc:title>
     </cc:Agent>
    </dc:creator>
   </cc:Work>
  </rdf:RDF>
 </metadata>
 <defs>
  <style type="text/css">*{stroke-linecap:butt;stroke-linejoin:round;}</style>
 </defs>
 <g id="figure_1">
  <g id="patch_1">
   <path d="M 0 360 
L 576 360 
L 576 0 
L 0 0 
z
" style="fill:#ffffff;"/>
  </g>
  <g id="axes_1">
   <g id="patch_2">
    <path d="M 72 320.4 
L 518.4 320.4 
L 518.4 43.2 
L 72 43.2 
z
" style="fill:#ffffff;"/>
   </g>
   <g id="PolyCollection_1">
    <defs>
     <path d="M 72 -177.193604 
L 72 -182.381112 
L 72.525795 -182.381112 
L 73.05159 -182.381112 
L 73.577385 -182.381112 
L 74.10318 -182.381112 
L 74.628975 -182.381112 
L 75.15477 -182.381112 
L 75.680565 -182.381112 
L 76.20636 -182.381112 
L 76.732155 -182.381112 
L 77.257951 -182.381112 
L 77.783746 -182.381112 
L 78.309541 -182.381112 
L 78.835336 -182.381112 
L 79.361131 -182.381112 
L 79.886926 -182.381112 
L 80.412721 -182.381112 
L 80.938516 -182.381112 
L 81.464311 -182.381112 
L 81.990106 -182.381112 
L 82.515901 -182.381112 
L 83.041696 -182.381112 
L 83.567491 -182.381112 
L 84.093286 -182.381112 
L 84.619081 -182.381112 
L 85.144876 -182.381112 
L 85.670671 -182.381112 
L 86.196466 -182.381112 
L 86.722261 -182.381112 
L 87.248057 -182.381112 
L 87.773852 -182.381112 
L 88.299647 -182.381112 
L 88.825442 -182.381112 
L 89.351237 -182.381112 
L 89.877032 -182.381112 
L 90.402827 -182.381112 
L 90.928622 -182.381112 
L 91.454417 -182.381112 
L 91.980212 -182.381112 
L 92.506007 -182.381112 
L 93.031802 -182.381112 
L 93.557597 -182.381112 
L 94.083392 -182.381112 
L 94.609187 -182.381112 
L 95.134982 -182.381112 
L 95.660777 -182.381112 
L 96.186572 -182.381112 
L 96.712367 -182.381112 
L 97.238163 -182.381112 
L 97.763958 -182.381112 
L 98.289753 -182.381112 
L 98.815548 -182.381112 
L 99.341343 -182.381112 
L 99.867138 -182.381112 
L 100.392933 -182.381112 
L 100.918728 -182.381112 
L 101.444523 -182.381112 
L 101.970318 -182.381112 
L 102.496113 -182.381112 
L 103.021908 -182.381112 
L 103.547703 -182.381112 
L 104.073498 -182.381112 
L 104.599293 -182.381112 
L 105.125088 -182.381112 
L 105.650883 -182.381112 
L 106.176678 -182.381112 
L 106.702473 -182.381112 
L 107.228269 -182.381112 
L 107.754064 -182.381112 
L 108.279859 -182.381112 
L 108.805654 -182.381112 
L 109.331449 -182.381112 
L 109.857244 -182.381112 
L 110.383039 -182.381112 
L 110.908834 -182.381112 
L 111.434629 -182.381112 
L 111.960424 -182.381112 
L 112.486219 -182.381112 
L 113.012014 -182.381112 
L 113.537809 -182.381112 
L 114.063604 -182.381112 
L 114.589399 -182.381112 
L 115.115194 -182.381112 
L 115.640989 -182.381112 
L 116.166784 -182.381112 
L 116.69258 -182.381112 
L 117.218375 -182.381112 
L 117.74417 -182.381112 
L 118.269965 -182.381112 
L 118.79576 -182.381112 
L 119.321555 -182.381112 
L 119.84735 -182.381112 
L 120.373145 -182.381112 
L 120.89894 -182.381112 
L 121.424735 -182.381112 
L 121.95053 -182.381112 
L 122.476325 -182.381112 
L 123.00212 -182.381112 
L 123.527915 -182.381112 
L 124.05371 -182.381112 
L 124.579505 -182.381112 
L 125.1053 -182.381112 
L 125.631095 -182.381112 
L 126.15689 -182.381112 
L 126.682686 -182.381112 
L 127.208481 -182.381112 
L 127.734276 -182.381112 
L 128.260071 -182.381112 
L 128.785866 -182.381112 
L 129.311661 -182.381112 
L 129.837456 -182.381112 
L 130.363251 -182.381112 
L 130.889046 -182.381112 
L 131.414841 -182.381112 
L 131.940636 -182.381112 
L 132.466431 -182.381112 
L 132.992226 -182.381112 
L 133.518021 -182.381112 
L 134.043816 -182.381112 
L 134.569611 -182.381112 
L 135.095406 -182.381112 
L 135.621201 -182.381112 
L 136.146996 -182.381112 
L 136.672792 -182.381112 
L 137.198587 -182.381112 
L 137.724382 -182.381112 
L 138.250177 -182.381112 
L 138.775972 -182.381112 
L 139.301767 -182.381112 
L 139.827562 -182.381112 
L 140.353357 -182.381112 
L 140.879152 -182.381112 
L 141.404947 -182.381112 
L 141.930742 -182.381112 
L 142.456537 -182.381112 
L 142.982332 -182.381112 
L 143.508127 -182.381112 
L 144.033922 -182.381112 
L 144.559717 -182.381112 
L 145.085512 -182.381112 
L 145.611307 -182.381112 
L 146.137102 -182.381112 
L 146.662898 -182.381112 
L 147.188693 -182.381112 
L 147.714488 -182.381112 
L 148.240283 -182.381112 
L 148.766078 -182.381112 
L 149.291873 -182.381112 
L 149.817668 -182.381112 
L 150.343463 -182.381112 
L 150.869258 -182.381112 
L 151.395053 -182.381112 
L 151.920848 -182.381112 
L 152.446643 -182.381112 
L 152.972438 -182.381112 
L 153.498233 -182.381112 
L 154.024028 -182.381112 
L 154.549823 -182.381112 
L 155.075618 -182.381112 
L 155.601413 -182.381112 
L 156.127208 -182.381112 
L 156.653004 -182.381112 
L 157.178799 -182.381112 
L 157.704594 -182.381112 
L 158.230389 -182.381112 
L 158.756184 -182.381112 
L 159.281979 -182.381112 
L 159.807774 -182.381112 
L 160.333569 -182.381112 
L 160.859364 -182.381112 
L 161.385159 -182.381112 
L 161.910954 -182.381112 
L 162.436749 -182.381112 
L 162.962544 -182.381112 
L 163.488339 -182.381112 
L 164.014134 -182.381112 
L 164.539929 -182.381112 
L 165.065724 -182.381112 
L 165.591519 -182.381112 
L 166.117314 -182.381112 
L 166.64311 -182.381112 
L 167.168905 -182.381112 
L 167.6947 -182.381112 
L 168.220495 -182.381112 
L 168.74629 -182.381112 
L 169.272085 -182.381112 
L 169.79788 -182.381112 
L 170.323675 -182.381112 
L 170.84947 -182.381112 
L 171.375265 -182.381112 
L 171.90106 -182.381112 
L 172.426855 -182.381112 
L 172.95265 -182.381112 
L 173.478445 -182.381112 
L 174.00424 -182.381112 
L 174.530035 -182.381112 
L 175.05583 -182.381112 
L 175.581625 -182.381112 
L 176.10742 -182.381112 
L 176.633216 -182.381112 
L 177.159011 -182.381112 
L 177.684806 -182.381112 
L 178.210601 -182.381112 
L 178.736396 -182.381112 
L 179.262191 -182.381112 
L 179.787986 -182.381112 
L 180.313781 -182.381112 
L 180.839576 -182.381112 
L 181.365371 -182.381112 
L 181.891166 -182.381112 
L 182.416961 -182.381112 
L 182.942756 -182.381112 
L 183.468551 -182.381112 
L 183.994346 -182.381112 
L 184.520141 -182.381112 
L 185.045936 -182.381112 
L 185.571731 -182.381112 
L 186.097527 -182.381112 
L 186.623322 -182.381112 
L 187.149117 -182.381112 
L 187.674912 -182.381112 
L 188.200707 -182.381112 
L 188.726502 -182.381112 
L 189.252297 -182.381112 
L 189.778092 -182.381112 
L 190.303887 -182.381112 
L 190.829682 -182.381112 
L 191.355477 -182.381112 
L 191.881272 -182.381112 
L 192.407067 -182.381112 
L 192.932862 -182.381112 
L 193.458657 -182.381112 
L 193.984452 -182.381112 
L 194.510247 -182.381112 
L 195.036042 -182.381112 
L 195.561837 -182.381112 
L 196.087633 -182.381112 
L 196.613428 -182.381112 
L 197.139223 -182.381112 
L 197.665018 -182.381112 
L 198.190813 -182.381112 
L 198.716608 -182.381112 
L 199.242403 -182.381112 
L 199.768198 -182.381112 
L 200.293993 -182.381112 
L 200.819788 -182.381112 
L 201.345583 -182.381112 
L 201.871378 -182.381112 
L 202.397173 -182.381112 
L 202.922968 -182.381112 
L 203.448763 -182.381112 
L 203.974558 -182.381112 
L 204.500353 -182.381112 
L 205.026148 -182.381112 
L 205.551943 -182.381112 
L 206.077739 -182.381112 
L 206.603534 -182.381112 
L 207.129329 -182.381112 
L 207.655124 -182.381112 
L 208.180919 -182.381112 
L 208.706714 -182.381112 
L 209.232509 -182.381112 
L 209.758304 -182.381112 
L 210.284099 -182.381112 
L 210.809894 -182.381112 
L 211.335689 -182.381112 
L 211.861484 -182.381112 
L 212.387279 -182.381112 
L 212.913074 -182.381112 
L 213.438869 -182.381112 
L 213.964664 -182.381112 
L 214.490459 -182.381112 
L 215.016254 -182.381112 
L 215.542049 -182.381112 
L 216.067845 -182.381112 
L 216.59364 -182.381112 
L 217.119435 -182.381112 
L 217.64523 -182.381112 
L 218.171025 -182.381112 
L 218.69682 -182.381112 
L 219.222615 -182.381112 
L 219.74841 -182.381112 
L 220.274205 -182.381112 
L 220.8 -182.381112 
L 221.325795 -182.381112 
L 221.85159 -182.381112 
L 222.377385 -182.381112 
L 222.90318 -182.381112 
L 223.428975 -182.381112 
L 223.95477 -182.381112 
L 224.480565 -182.381112 
L 225.00636 -182.381112 
L 225.532155 -182.381112 
L 226.057951 -182.381112 
L 226.583746 -182.381112 
L 227.109541 -182.381112 
L 227.635336 -182.381112 
L 228.161131 -182.381112 
L 228.686926 -182.381112 
L 229.212721 -182.381112 
L 229.738516 -182.381112 
L 230.264311 -182.381112 
L 230.790106 -182.381112 
L 231.315901 -182.381112 
L 231.841696 -182.381112 
L 232.367491 -182.381112 
L 232.893286 -182.381112 
L 233.419081 -182.381112 
L 233.944876 -182.381112 
L 234.470671 -182.381112 
L 234.996466 -182.381112 
L 235.522261 -182.381112 
L 236.048057 -182.381112 
L 236.573852 -182.381112 
L 237.099647 -182.381112 
L 237.625442 -182.381112 
L 238.151237 -182.381112 
L 238.677032 -182.381112 
L 239.202827 -182.381112 
L 239.728622 -182.381112 
L 240.254417 -182.381112 
L 240.780212 -182.381112 
L 241.306007 -182.381112 
L 241.831802 -182.381112 
L 242.357597 -182.381112 
L 242.883392 -182.381112 
L 243.409187 -182.381112 
L 243.934982 -182.381112 
L 244.460777 -182.381112 
L 244.986572 -182.381112 
L 245.512367 -182.381112 
L 246.038163 -182.381112 
L 246.563958 -182.381112 
L 247.089753 -182.381112 
L 247.615548 -182.381112 
L 248.141343 -182.381112 
L 248.667138 -182.381112 
L 249.192933 -182.381112 
L 249.718728 -182.381112 
L 250.244523 -182.381112 
L 250.770318 -182.381112 
L 251.296113 -182.381112 
L 251.821908 -182.381112 
L 252.347703 -182.381112 
L 252.873498 -182.381112 
L 253.399293 -182.381112 
L 253.925088 -182.381112 
L 254.450883 -182.381112 
L 254.976678 -182.381112 
L 255.502473 -182.381112 
L 256.028269 -182.381112 
L 256.554064 -182.381112 
L 257.079859 -182.381112 
L 257.605654 -182.381112 
L 258.131449 -182.381112 
L 258.657244 -182.381112 
L 259.183039 -182.381112 
L 259.708834 -182.381112 
L 260.234629 -182.381112 
L 260.760424 -182.381112 
L 261.286219 -182.381112 
L 261.812014 -182.381112 
L 262.337809 -182.381112 
L 262.863604 -182.381112 
L 263.389399 -182.381112 
L 263.915194 -182.381112 
L 264.440989 -182.381112 
L 264.966784 -182.381112 
L 265.49258 -182.381112 
L 266.018375 -182.381112 
L 266.54417 -182.381112 
L 267.069965 -182.381112 
L 267.59576 -182.381112 
L 268.121555 -182.381112 
L 268.64735 -182.381112 
L 269.173145 -182.381112 
L 269.69894 -182.381112 
L 270.224735 -182.381112 
L 270.75053 -182.381112 
L 271.276325 -182.381112 
L 271.80212 -182.381112 
L 272.327915 -182.381112 
L 272.85371 -182.381112 
L 273.379505 -182.381112 
L 273.9053 -182.381112 
L 274.431095 -182.381112 
L 274.95689 -182.381112 
L 275.482686 -182.381112 
L 276.008481 -182.381112 
L 276.534276 -182.381112 
L 277.060071 -182.381112 
L 277.585866 -182.381112 
L 278.111661 -182.381112 
L 278.637456 -182.381112 
L 279.163251 -182.381112 
L 279.689046 -182.381112 
L 280.214841 -182.381112 
L 280.740636 -182.381112 
L 281.266431 -182.381112 
L 281.792226 -182.381112 
L 282.318021 -182.381112 
L 282.843816 -182.381112 
L 283.369611 -182.381112 
L 283.895406 -182.381112 
L 284.421201 -182.381112 
L 284.946996 -182.381112 
L 285.472792 -182.381112 
L 285.998587 -182.381112 
L 286.524382 -182.381112 
L 287.050177 -182.381112 
L 287.575972 -182.381112 
L 288.101767 -182.381112 
L 288.627562 -182.381112 
L 289.153357 -182.381112 
L 289.679152 -182.381112 
L 290.204947 -182.381112 
L 290.730742 -182.381112 
L 291.256537 -182.381112 
L 291.782332 -182.381112 
L 292.308127 -182.381112 
L 292.833922 -182.381112 
L 293.359717 -182.381112 
L 293.885512 -182.381112 
L 294.411307 -182.381112 
L 294.937102 -182.381112 
L 295.462898 -182.381112 
L 295.988693 -182.381112 
L 296.514488 -182.381112 
L 297.040283 -182.381112 
L 297.566078 -182.381112 
L 298.091873 -182.381112 
L 298.617668 -182.381112 
L 299.143463 -182.381112 
L 299.669258 -182.381112 
L 300.195053 -182.381112 
L 300.720848 -182.381112 
L 301.246643 -182.381112 
L 301.772438 -182.381112 
L 302.298233 -182.381112 
L 302.824028 -182.381112 
L 303.349823 -182.381112 
L 303.875618 -182.381112 
L 304.401413 -182.381112 
L 304.927208 -182.381112 
L 305.453004 -182.381112 
L 305.978799 -182.381112 
L 306.504594 -182.381112 
L 307.030389 -182.381112 
L 307.556184 -182.381112 
L 308.081979 -182.381112 
L 308.607774 -182.381112 
L 309.133569 -182.381112 
L 309.659364 -182.381112 
L 310.185159 -182.381112 
L 310.710954 -182.381112 
L 311.236749 -182.381112 
L 311.762544 -182.381112 
L 312.288339 -182.381112 
L 312.814134 -182.381112 
L 313.339929 -182.381112 
L 313.865724 -182.381112 
L 314.391519 -182.381112 
L 314.917314 -182.381112 
L 315.44311 -182.381112 
L 315.968905 -182.381112 
L 316.4947 -182.381112 
L 317.020495 -182.381112 
L 317.54629 -182.381112 
L 318.072085 -182.381112 
L 318.59788 -182.381112 
L 319.123675 -182.381112 
L 319.64947 -182.381112 
L 320.175265 -182.381112 
L 320.70106 -182.381112 
L 321.226855 -182.381112 
L 321.75265 -182.381112 
L 322.278445 -182.381112 
L 322.80424 -182.381112 
L 323.330035 -182.381112 
L 323.85583 -182.381112 
L 324.381625 -182.381112 
L 324.90742 -182.381112 
L 325.433216 -182.381112 
L 325.959011 -182.381112 
L 326.484806 -182.381112 
L 327.010601 -182.381112 
L 327.536396 -182.381112 
L 328.062191 -182.381112 
L 328.587986 -182.381112 
L 329.113781 -182.381112 
L 329.639576 -182.381112 
L 330.165371 -182.381112 
L 330.691166 -182.381112 
L 331.216961 -182.381112 
L 331.742756 -182.381112 
L 332.268551 -182.381112 
L 332.794346 -182.381112 
L 333.320141 -182.381112 
L 333.845936 -182.381112 
L 334.371731 -182.381112 
L 334.897527 -182.381112 
L 335.423322 -182.381112 
L 335.949117 -182.381112 
L 336.474912 -182.381112 
L 337.000707 -182.381112 
L 337.526502 -182.381112 
L 338.052297 -182.381112 
L 338.578092 -182.381112 
L 339.103887 -182.381112 
L 339.629682 -182.381112 
L 340.155477 -182.381112 
L 340.681272 -182.381112 
L 341.207067 -182.381112 
L 341.732862 -182.381112 
L 342.258657 -182.381112 
L 342.784452 -182.381112 
L 343.310247 -182.381112 
L 343.836042 -182.381112 
L 344.361837 -182.381112 
L 344.887633 -182.381112 
L 345.413428 -182.381112 
L 345.939223 -182.381112 
L 346.465018 -182.381112 
L 346.990813 -182.381112 
L 347.516608 -182.381112 
L 348.042403 -182.381112 
L 348.568198 -182.381112 
L 349.093993 -182.381112 
L 349.619788 -182.381112 
L 350.145583 -182.381112 
L 350.671378 -182.381112 
L 351.197173 -182.381112 
L 351.722968 -182.381112 
L 352.248763 -182.381112 
L 352.774558 -182.381112 
L 353.300353 -182.381112 
L 353.826148 -182.381112 
L 354.351943 -182.381112 
L 354.877739 -182.381112 
L 355.403534 -182.381112 
L 355.929329 -182.381112 
L 356.455124 -182.381112 
L 356.980919 -182.381112 
L 357.506714 -182.381112 
L 358.032509 -182.381112 
L 358.558304 -182.381112 
L 359.084099 -182.381112 
L 359.609894 -182.381112 
L 360.135689 -182.381112 
L 360.661484 -182.381112 
L 361.187279 -182.381112 
L 361.713074 -182.381112 
L 362.238869 -182.381112 
L 362.764664 -182.381112 
L 363.290459 -182.381112 
L 363.816254 -182.381112 
L 364.342049 -182.381112 
L 364.867845 -182.381112 
L 365.39364 -182.381112 
L 365.919435 -182.381112 
L 366.44523 -182.381112 
L 366.971025 -182.381112 
L 367.49682 -182.381112 
L 368.022615 -182.381112 
L 368.54841 -182.381112 
L 369.074205 -182.381112 
L 369.6 -182.381112 
L 370.125795 -182.381112 
L 370.65159 -182.381112 
L 371.177385 -182.381112 
L 371.70318 -182.381112 
L 372.228975 -182.381112 
L 372.75477 -182.381112 
L 373.280565 -182.381112 
L 373.80636 -182.381112 
L 374.332155 -182.381112 
L 374.857951 -182.381112 
L 375.383746 -182.381112 
L 375.909541 -182.381112 
L 376.435336 -182.381112 
L 376.961131 -182.381112 
L 377.486926 -182.381112 
L 378.012721 -182.381112 
L 378.538516 -182.381112 
L 379.064311 -182.381112 
L 379.590106 -182.381112 
L 380.115901 -182.381112 
L 380.641696 -182.381112 
L 381.167491 -182.381112 
L 381.693286 -182.381112 
L 382.219081 -182.381112 
L 382.744876 -182.381112 
L 383.270671 -182.381112 
L 383.796466 -182.381112 
L 384.322261 -182.381112 
L 384.848057 -182.381112 
L 385.373852 -182.381112 
L 385.899647 -182.381112 
L 386.425442 -182.381112 
L 386.951237 -182.381112 
L 387.477032 -182.381112 
L 388.002827 -182.381112 
L 388.528622 -182.381112 
L 389.054417 -182.381112 
L 389.580212 -182.381112 
L 390.106007 -182.381112 
L 390.631802 -182.381112 
L 391.157597 -182.381112 
L 391.683392 -182.381112 
L 392.209187 -182.381112 
L 392.734982 -182.381112 
L 393.260777 -182.381112 
L 393.786572 -182.381112 
L 394.312367 -182.381112 
L 394.838163 -182.381112 
L 395.363958 -182.381112 
L 395.889753 -182.381112 
L 396.415548 -182.381112 
L 396.941343 -182.381112 
L 397.467138 -182.381112 
L 397.992933 -182.381112 
L 398.518728 -182.381112 
L 399.044523 -182.381112 
L 399.570318 -182.381112 
L 400.096113 -182.381112 
L 400.621908 -182.381112 
L 401.147703 -182.381112 
L 401.673498 -182.381112 
L 402.199293 -182.381112 
L 402.725088 -182.381112 
L 403.250883 -182.381112 
L 403.776678 -182.381112 
L 404.302473 -182.381112 
L 404.828269 -182.381112 
L 405.354064 -182.381112 
L 405.879859 -182.381112 
L 406.405654 -182.381112 
L 406.931449 -182.381112 
L 407.457244 -182.381112 
L 407.983039 -182.381112 
L 408.508834 -182.381112 
L 409.034629 -182.381112 
L 409.560424 -182.381112 
L 410.086219 -182.381112 
L 410.612014 -182.381112 
L 411.137809 -182.381112 
L 411.663604 -182.381112 
L 412.189399 -182.381112 
L 412.715194 -182.381112 
L 413.240989 -182.381112 
L 413.766784 -182.381112 
L 414.29258 -182.381112 
L 414.818375 -182.381112 
L 415.34417 -182.381112 
L 415.869965 -182.381112 
L 416.39576 -182.381112 
L 416.921555 -182.381112 
L 417.44735 -182.381112 
L 417.973145 -182.381112 
L 418.49894 -182.381112 
L 419.024735 -182.381112 
L 419.55053 -182.381112 
L 420.076325 -182.381112 
L 420.60212 -182.381112 
L 421.127915 -182.381112 
L 421.65371 -182.381112 
L 422.179505 -182.381112 
L 422.7053 -182.381112 
L 423.231095 -182.381112 
L 423.75689 -182.381112 
L 424.282686 -182.381112 
L 424.808481 -182.381112 
L 425.334276 -182.381112 
L 425.860071 -182.381112 
L 426.385866 -182.381112 
L 426.911661 -182.381112 
L 427.437456 -182.381112 
L 427.963251 -182.381112 
L 428.489046 -182.381112 
L 429.014841 -182.381112 
L 429.540636 -182.381112 
L 430.066431 -182.381112 
L 430.592226 -182.381112 
L 431.118021 -182.381112 
L 431.643816 -182.381112 
L 432.169611 -182.381112 
L 432.695406 -182.381112 
L 433.221201 -182.381112 
L 433.746996 -182.381112 
L 434.272792 -182.381112 
L 434.798587 -182.381112 
L 435.324382 -182.381112 
L 435.850177 -182.381112 
L 436.375972 -182.381112 
L 436.901767 -182.381112 
L 437.427562 -182.381112 
L 437.953357 -182.381112 
L 438.479152 -182.381112 
L 439.004947 -182.381112 
L 439.530742 -182.381112 
L 440.056537 -182.381112 
L 440.582332 -182.381112 
L 441.108127 -182.381112 
L 441.633922 -182.381112 
L 442.159717 -182.381112 
L 442.685512 -182.381112 
L 443.211307 -182.381112 
L 443.737102 -182.381112 
L 444.262898 -182.381112 
L 444.788693 -182.381112 
L 445.314488 -182.381112 
L 445.840283 -182.381112 
L 446.366078 -182.381112 
L 446.891873 -182.381112 
L 447.417668 -182.381112 
L 447.943463 -182.381112 
L 448.469258 -182.381112 
L 448.995053 -182.381112 
L 449.520848 -182.381112 
L 450.046643 -182.381112 
L 450.572438 -182.381112 
L 451.098233 -182.381112 
L 451.624028 -182.381112 
L 452.149823 -182.381112 
L 452.675618 -182.381112 
L 453.201413 -182.381112 
L 453.727208 -182.381112 
L 454.253004 -182.381112 
L 454.778799 -182.381112 
L 455.304594 -182.381112 
L 455.830389 -182.381112 
L 456.356184 -182.381112 
L 456.881979 -182.381112 
L 457.407774 -182.381112 
L 457.933569 -182.381112 
L 458.459364 -182.381112 
L 458.985159 -182.381112 
L 459.510954 -182.381112 
L 460.036749 -182.381112 
L 460.562544 -182.381112 
L 461.088339 -182.381112 
L 461.614134 -182.381112 
L 462.139929 -182.381112 
L 462.665724 -182.381112 
L 463.191519 -182.381112 
L 463.717314 -182.381112 
L 464.24311 -182.381112 
L 464.768905 -182.381112 
L 465.2947 -182.381112 
L 465.820495 -182.381112 
L 466.34629 -182.381112 
L 466.872085 -182.381112 
L 467.39788 -182.381112 
L 467.923675 -182.381112 
L 468.44947 -182.381112 
L 468.975265 -182.381112 
L 469.50106 -182.381112 
L 470.026855 -182.381112 
L 470.55265 -182.381112 
L 471.078445 -182.381112 
L 471.60424 -182.381112 
L 472.130035 -182.381112 
L 472.65583 -182.381112 
L 473.181625 -182.381112 
L 473.70742 -182.381112 
L 474.233216 -182.381112 
L 474.759011 -182.381112 
L 475.284806 -182.381112 
L 475.810601 -182.381112 
L 476.336396 -182.381112 
L 476.862191 -182.381112 
L 477.387986 -182.381112 
L 477.913781 -182.381112 
L 478.439576 -182.381112 
L 478.965371 -182.381112 
L 479.491166 -182.381112 
L 480.016961 -182.381112 
L 480.542756 -182.381112 
L 481.068551 -182.381112 
L 481.594346 -182.381112 
L 482.120141 -182.381112 
L 482.645936 -182.381112 
L 483.171731 -182.381112 
L 483.697527 -182.381112 
L 484.223322 -182.381112 
L 484.749117 -182.381112 
L 485.274912 -182.381112 
L 485.800707 -182.381112 
L 486.326502 -182.381112 
L 486.852297 -182.381112 
L 487.378092 -182.381112 
L 487.903887 -182.381112 
L 488.429682 -182.381112 
L 488.955477 -182.381112 
L 489.481272 -182.381112 
L 490.007067 -182.381112 
L 490.532862 -182.381112 
L 491.058657 -182.381112 
L 491.584452 -182.381112 
L 492.110247 -182.381112 
L 492.636042 -182.381112 
L 493.161837 -182.381112 
L 493.687633 -182.381112 
L 494.213428 -182.381112 
L 494.739223 -182.381112 
L 495.265018 -182.381112 
L 495.790813 -182.381112 
L 496.316608 -182.381112 
L 496.842403 -182.381112 
L 497.368198 -182.381112 
L 497.893993 -182.381112 
L 498.419788 -182.381112 
L 498.945583 -182.381112 
L 499.471378 -182.381112 
L 499.997173 -182.381112 
L 500.522968 -182.381112 
L 501.048763 -182.381112 
L 501.574558 -182.381112 
L 502.100353 -182.381112 
L 502.626148 -182.381112 
L 503.151943 -182.381112 
L 503.677739 -182.381112 
L 504.203534 -182.381112 
L 504.729329 -182.381112 
L 505.255124 -182.381112 
L 505.780919 -182.381112 
L 506.306714 -182.381112 
L 506.832509 -182.381112 
L 507.358304 -182.381112 
L 507.884099 -182.381112 
L 508.409894 -182.381112 
L 508.935689 -182.381112 
L 509.461484 -182.381112 
L 509.987279 -182.381112 
L 510.513074 -182.381112 
L 511.038869 -182.381112 
L 511.564664 -182.381112 
L 512.090459 -182.381112 
L 512.616254 -182.381112 
L 513.142049 -182.381112 
L 513.667845 -182.381112 
L 514.19364 -182.381112 
L 514.719435 -182.381112 
L 515.24523 -182.381112 
L 515.771025 -182.381112 
L 516.29682 -182.381112 
L 516.822615 -182.381112 
L 517.34841 -182.381112 
L 517.874205 -182.381112 
L 518.4 -182.381112 
L 518.4 -177.193604 
L 518.4 -177.193604 
L 517.874205 -177.193604 
L 517.34841 -177.193604 
L 516.822615 -177.193604 
L 516.29682 -177.193604 
L 515.771025 -177.193604 
L 515.24523 -177.193604 
L 514.719435 -177.193604 
L 514.19364 -177.193604 
L 513.667845 -177.193604 
L 513.142049 -177.193604 
L 512.616254 -177.193604 
L 512.090459 -177.193604 
L 511.564664 -177.193604 
L 511.038869 -177.193604 
L 510.513074 -177.193604 
L 509.987279 -177.193604 
L 509.461484 -177.193604 
L 508.935689 -177.193604 
L 508.409894 -177.193604 
L 507.884099 -177.193604 
L 507.358304 -177.193604 
L 506.832509 -177.193604 
L 506.306714 -177.193604 
L 505.780919 -177.193604 
L 505.255124 -177.193604 
L 504.729329 -177.193604 
L 504.203534 -177.193604 
L 503.677739 -177.193604 
L 503.151943 -177.193604 
L 502.626148 -177.193604 
L 502.100353 -177.193604 
L 501.574558 -177.193604 
L 501.048763 -177.193604 
L 500.522968 -177.193604 
L 499.997173 -177.193604 
L 499.471378 -177.193604 
L 498.945583 -177.193604 
L 498.419788 -177.193604 
L 497.893993 -177.193604 
L 497.368198 -177.193604 
L 496.842403 -177.193604 
L 496.316608 -177.193604 
L 495.790813 -177.193604 
L 495.265018 -177.193604 
L 494.739223 -177.193604 
L 494.213428 -177.193604 
L 493.687633 -177.193604 
L 493.161837 -177.193604 
L 492.636042 -177.193604 
L 492.110247 -177.193604 
L 491.584452 -177.193604 
L 491.058657 -177.193604 
L 490.532862 -177.193604 
L 490.007067 -177.193604 
L 489.481272 -177.193604 
L 488.955477 -177.193604 
L 488.429682 -177.193604 
L 487.903887 -177.193604 
L 487.378092 -177.193604 
L 486.852297 -177.193604 
L 486.326502 -177.193604 
L 485.800707 -177.193604 
L 485.274912 -177.193604 
L 484.749117 -177.193604 
L 484.223322 -177.193604 
L 483.697527 -177.193604 
L 483.171731 -177.193604 
L 482.645936 -177.193604 
L 482.120141 -177.193604 
L 481.594346 -177.193604 
L 481.068551 -177.193604 
L 480.542756 -177.193604 
L 480.016961 -177.193604 
L 479.491166 -177.193604 
L 478.965371 -177.193604 
L 478.439576 -177.193604 
L 477.913781 -177.193604 
L 477.387986 -177.193604 
L 476.862191 -177.193604 
L 476.336396 -177.193604 
L 475.810601 -177.193604 
L 475.284806 -177.193604 
L 474.759011 -177.193604 
L 474.233216 -177.193604 
L 473.70742 -177.193604 
L 473.181625 -177.193604 
L 472.65583 -177.193604 
L 472.130035 -177.193604 
L 471.60424 -177.193604 
L 471.078445 -177.193604 
L 470.55265 -177.193604 
L 470.026855 -177.193604 
L 469.50106 -177.193604 
L 468.975265 -177.193604 
L 468.44947 -177.193604 
L 467.923675 -177.193604 
L 467.39788 -177.193604 
L 466.872085 -177.193604 
L 466.34629 -177.193604 
L 465.820495 -177.193604 
L 465.2947 -177.193604 
L 464.768905 -177.193604 
L 464.24311 -177.193604 
L 463.717314 -177.193604 
L 463.191519 -177.193604 
L 462.665724 -177.193604 
L 462.139929 -177.193604 
L 461.614134 -177.193604 
L 461.088339 -177.193604 
L 460.562544 -177.193604 
L 460.036749 -177.193604 
L 459.510954 -177.193604 
L 458.985159 -177.193604 
L 458.459364 -177.193604 
L 457.933569 -177.193604 
L 457.407774 -177.193604 
L 456.881979 -177.193604 
L 456.356184 -177.193604 
L 455.830389 -177.193604 
L 455.304594 -177.193604 
L 454.778799 -177.193604 
L 454.253004 -177.193604 
L 453.727208 -177.193604 
L 453.201413 -177.193604 
L 452.675618 -177.193604 
L 452.149823 -177.193604 
L 451.624028 -177.193604 
L 451.098233 -177.193604 
L 450.572438 -177.193604 
L 450.046643 -177.193604 
L 449.520848 -177.193604 
L 448.995053 -177.193604 
L 448.469258 -177.193604 
L 447.943463 -177.193604 
L 447.417668 -177.193604 
L 446.891873 -177.193604 
L 446.366078 -177.193604 
L 445.840283 -177.193604 
L 445.314488 -177.193604 
L 444.788693 -177.193604 
L 444.262898 -177.193604 
L 443.737102 -177.193604 
L 443.211307 -177.193604 
L 442.685512 -177.193604 
L 442.159717 -177.193604 
L 441.633922 -177.193604 
L 441.108127 -177.193604 
L 440.582332 -177.193604 
L 440.056537 -177.193604 
L 439.530742 -177.193604 
L 439.004947 -177.193604 
L 438.479152 -177.193604 
L 437.953357 -177.193604 
L 437.427562 -177.193604 
L 436.901767 -177.193604 
L 436.375972 -177.193604 
L 435.850177 -177.193604 
L 435.324382 -177.193604 
L 434.798587 -177.193604 
L 434.272792 -177.193604 
L 433.746996 -177.193604 
L 433.221201 -177.193604 
L 432.695406 -177.193604 
L 432.169611 -177.193604 
L 431.643816 -177.193604 
L 431.118021 -177.193604 
L 430.592226 -177.193604 
L 430.066431 -177.193604 
L 429.540636 -177.193604 
L 429.014841 -177.193604 
L 428.489046 -177.193604 
L 427.963251 -177.193604 
L 427.437456 -177.193604 
L 426.911661 -177.193604 
L 426.385866 -177.193604 
L 425.860071 -177.193604 
L 425.334276 -177.193604 
L 424.808481 -177.193604 
L 424.282686 -177.193604 
L 423.75689 -177.193604 
L 423.231095 -177.193604 
L 422.7053 -177.193604 
L 422.179505 -177.193604 
L 421.65371 -177.193604 
L 421.127915 -177.193604 
L 420.60212 -177.193604 
L 420.076325 -177.193604 
L 419.55053 -177.193604 
L 419.024735 -177.193604 
L 418.49894 -177.193604 
L 417.973145 -177.193604 
L 417.44735 -177.193604 
L 416.921555 -177.193604 
L 416.39576 -177.193604 
L 415.869965 -177.193604 
L 415.34417 -177.193604 
L 414.818375 -177.193604 
L 414.29258 -177.193604 
L 413.766784 -177.193604 
L 413.240989 -177.193604 
L 412.715194 -177.193604 
L 412.189399 -177.193604 
L 411.663604 -177.193604 
L 411.137809 -177.193604 
L 410.612014 -177.193604 
L 410.086219 -177.193604 
L 409.560424 -177.193604 
L 409.034629 -177.193604 
L 408.508834 -177.193604 
L 407.983039 -177.193604 
L 407.457244 -177.193604 
L 406.931449 -177.193604 
L 406.405654 -177.193604 
L 405.879859 -177.193604 
L 405.354064 -177.193604 
L 404.828269 -177.193604 
L 404.302473 -177.193604 
L 403.776678 -177.193604 
L 403.250883 -177.193604 
L 402.725088 -177.193604 
L 402.199293 -177.193604 
L 401.673498 -177.193604 
L 401.147703 -177.193604 
L 400.621908 -177.193604 
L 400.096113 -177.193604 
L 399.570318 -177.193604 
L 399.044523 -177.193604 
L 398.518728 -177.193604 
L 397.992933 -177.193604 
L 397.467138 -177.193604 
L 396.941343 -177.193604 
L 396.415548 -177.193604 
L 395.889753 -177.193604 
L 395.363958 -177.193604 
L 394.838163 -177.193604 
L 394.312367 -177.193604 
L 393.786572 -177.193604 
L 393.260777 -177.193604 
L 392.734982 -177.193604 
L 392.209187 -177.193604 
L 391.683392 -177.193604 
L 391.157597 -177.193604 
L 390.631802 -177.193604 
L 390.106007 -177.193604 
L 389.580212 -177.193604 
L 389.054417 -177.193604 
L 388.528622 -177.193604 
L 388.002827 -177.193604 
L 387.477032 -177.193604 
L 386.951237 -177.193604 
L 386.425442 -177.193604 
L 385.899647 -177.193604 
L 385.373852 -177.193604 
L 384.848057 -177.193604 
L 384.322261 -177.193604 
L 383.796466 -177.193604 
L 383.270671 -177.193604 
L 382.744876 -177.193604 
L 382.219081 -177.193604 
L 381.693286 -177.193604 
L 381.167491 -177.193604 
L 380.641696 -177.193604 
L 380.115901 -177.193604 
L 379.590106 -177.193604 
L 379.064311 -177.193604 
L 378.538516 -177.193604 
L 378.012721 -177.193604 
L 377.486926 -177.193604 
L 376.961131 -177.193604 
L 376.435336 -177.193604 
L 375.909541 -177.193604 
L 375.383746 -177.193604 
L 374.857951 -177.193604 
L 374.332155 -177.193604 
L 373.80636 -177.193604 
L 373.280565 -177.193604 
L 372.75477 -177.193604 
L 372.228975 -177.193604 
L 371.70318 -177.193604 
L 371.177385 -177.193604 
L 370.65159 -177.193604 
L 370.125795 -177.193604 
L 369.6 -177.193604 
L 369.074205 -177.193604 
L 368.54841 -177.193604 
L 368.022615 -177.193604 
L 367.49682 -177.193604 
L 366.971025 -177.193604 
L 366.44523 -177.193604 
L 365.919435 -177.193604 
L 365.39364 -177.193604 
L 364.867845 -177.193604 
L 364.342049 -177.193604 
L 363.816254 -177.193604 
L 363.290459 -177.193604 
L 362.764664 -177.193604 
L 362.238869 -177.193604 
L 361.713074 -177.193604 
L 361.187279 -177.193604 
L 360.661484 -177.193604 
L 360.135689 -177.193604 
L 359.609894 -177.193604 
L 359.084099 -177.193604 
L 358.558304 -177.193604 
L 358.032509 -177.193604 
L 357.506714 -177.193604 
L 356.980919 -177.193604 
L 356.455124 -177.193604 
L 355.929329 -177.193604 
L 355.403534 -177.193604 
L 354.877739 -177.193604 
L 354.351943 -177.193604 
L 353.826148 -177.193604 
L 353.300353 -177.193604 
L 352.774558 -177.193604 
L 352.248763 -177.193604 
L 351.722968 -177.193604 
L 351.197173 -177.193604 
L 350.671378 -177.193604 
L 350.145583 -177.193604 
L 349.619788 -177.193604 
L 349.093993 -177.193604 
L 348.568198 -177.193604 
L 348.042403 -177.193604 
L 347.516608 -177.193604 
L 346.990813 -177.193604 
L 346.465018 -177.193604 
L 345.939223 -177.193604 
L 345.413428 -177.193604 
L 344.887633 -177.193604 
L 344.361837 -177.193604 
L 343.836042 -177.193604 
L 343.310247 -177.193604 
L 342.784452 -177.193604 
L 342.258657 -177.193604 
L 341.732862 -177.193604 
L 341.207067 -177.193604 
L 340.681272 -177.193604 
L 340.155477 -177.193604 
L 339.629682 -177.193604 
L 339.103887 -177.193604 
L 338.578092 -177.193604 
L 338.052297 -177.193604 
L 337.526502 -177.193604 
L 337.000707 -177.193604 
L 336.474912 -177.193604 
L 335.949117 -177.193604 
L 335.423322 -177.193604 
L 334.897527 -177.193604 
L 334.371731 -177.193604 
L 333.845936 -177.193604 
L 333.320141 -177.193604 
L 332.794346 -177.193604 
L 332.268551 -177.193604 
L 331.742756 -177.193604 
L 331.216961 -177.193604 
L 330.691166 -177.193604 
L 330.165371 -177.193604 
L 329.639576 -177.193604 
L 329.113781 -177.193604 
L 328.587986 -177.193604 
L 328.062191 -177.193604 
L 327.536396 -177.193604 
L 327.010601 -177.193604 
L 326.484806 -177.193604 
L 325.959011 -177.193604 
L 325.433216 -177.193604 
L 324.90742 -177.193604 
L 324.381625 -177.193604 
L 323.85583 -177.193604 
L 323.330035 -177.193604 
L 322.80424 -177.193604 
L 322.278445 -177.193604 
L 321.75265 -177.193604 
L 321.226855 -177.193604 
L 320.70106 -177.193604 
L 320.175265 -177.193604 
L 319.64947 -177.193604 
L 319.123675 -177.193604 
L 318.59788 -177.193604 
L 318.072085 -177.193604 
L 317.54629 -177.193604 
L 317.020495 -177.193604 
L 316.4947 -177.193604 
L 315.968905 -177.193604 
L 315.44311 -177.193604 
L 314.917314 -177.193604 
L 314.391519 -177.193604 
L 313.865724 -177.193604 
L 313.339929 -177.193604 
L 312.814134 -177.193604 
L 312.288339 -177.193604 
L 311.762544 -177.193604 
L 311.236749 -177.193604 
L 310.710954 -177.193604 
L 310.185159 -177.193604 
L 309.659364 -177.193604 
L 309.133569 -177.193604 
L 308.607774 -177.193604 
L 308.081979 -177.193604 
L 307.556184 -177.193604 
L 307.030389 -177.193604 
L 306.504594 -177.193604 
L 305.978799 -177.193604 
L 305.453004 -177.193604 
L 304.927208 -177.193604 
L 304.401413 -177.193604 
L 303.875618 -177.193604 
L 303.349823 -177.193604 
L 302.824028 -177.193604 
L 302.298233 -177.193604 
L 301.772438 -177.193604 
L 301.246643 -177.193604 
L 300.720848 -177.193604 
L 300.195053 -177.193604 
L 299.669258 -177.193604 
L 299.143463 -177.193604 
L 298.617668 -177.193604 
L 298.091873 -177.193604 
L 297.566078 -177.193604 
L 297.040283 -177.193604 
L 296.514488 -177.193604 
L 295.988693 -177.193604 
L 295.462898 -177.193604 
L 294.937102 -177.193604 
L 294.411307 -177.193604 
L 293.885512 -177.193604 
L 293.359717 -177.193604 
L 292.833922 -177.193604 
L 292.308127 -177.193604 
L 291.782332 -177.193604 
L 291.256537 -177.193604 
L 290.730742 -177.193604 
L 290.204947 -177.193604 
L 289.679152 -177.193604 
L 289.153357 -177.193604 
L 288.627562 -177.193604 
L 288.101767 -177.193604 
L 287.575972 -177.193604 
L 287.050177 -177.193604 
L 286.524382 -177.193604 
L 285.998587 -177.193604 
L 285.472792 -177.193604 
L 284.946996 -177.193604 
L 284.421201 -177.193604 
L 283.895406 -177.193604 
L 283.369611 -177.193604 
L 282.843816 -177.193604 
L 282.318021 -177.193604 
L 281.792226 -177.193604 
L 281.266431 -177.193604 
L 280.740636 -177.193604 
L 280.214841 -177.193604 
L 279.689046 -177.193604 
L 279.163251 -177.193604 
L 278.637456 -177.193604 
L 278.111661 -177.193604 
L 277.585866 -177.193604 
L 277.060071 -177.193604 
L 276.534276 -177.193604 
L 276.008481 -177.193604 
L 275.482686 -177.193604 
L 274.95689 -177.193604 
L 274.431095 -177.193604 
L 273.9053 -177.193604 
L 273.379505 -177.193604 
L 272.85371 -177.193604 
L 272.327915 -177.193604 
L 271.80212 -177.193604 
L 271.276325 -177.193604 
L 270.75053 -177.193604 
L 270.224735 -177.193604 
L 269.69894 -177.193604 
L 269.173145 -177.193604 
L 268.64735 -177.193604 
L 268.121555 -177.193604 
L 267.59576 -177.193604 
L 267.069965 -177.193604 
L 266.54417 -177.193604 
L 266.018375 -177.193604 
L 265.49258 -177.193604 
L 264.966784 -177.193604 
L 264.440989 -177.193604 
L 263.915194 -177.193604 
L 263.389399 -177.193604 
L 262.863604 -177.193604 
L 262.337809 -177.193604 
L 261.812014 -177.193604 
L 261.286219 -177.193604 
L 260.760424 -177.193604 
L 260.234629 -177.193604 
L 259.708834 -177.193604 
L 259.183039 -177.193604 
L 258.657244 -177.193604 
L 258.131449 -177.193604 
L 257.605654 -177.193604 
L 257.079859 -177.193604 
L 256.554064 -177.193604 
L 256.028269 -177.193604 
L 255.502473 -177.193604 
L 254.976678 -177.193604 
L 254.450883 -177.193604 
L 253.925088 -177.193604 
L 253.399293 -177.193604 
L 252.873498 -177.193604 
L 252.347703 -177.193604 
L 251.821908 -177.193604 
L 251.296113 -177.193604 
L 250.770318 -177.193604 
L 250.244523 -177.193604 
L 249.718728 -177.193604 
L 249.192933 -177.193604 
L 248.667138 -177.193604 
L 248.141343 -177.193604 
L 247.615548 -177.193604 
L 247.089753 -177.193604 
L 246.563958 -177.193604 
L 246.038163 -177.193604 
L 245.512367 -177.193604 
L 244.986572 -177.193604 
L 244.460777 -177.193604 
L 243.934982 -177.193604 
L 243.409187 -177.193604 
L 242.883392 -177.193604 
L 242.357597 -177.193604 
L 241.831802 -177.193604 
L 241.306007 -177.193604 
L 240.780212 -177.193604 
L 240.254417 -177.193604 
L 239.728622 -177.193604 
L 239.202827 -177.193604 
L 238.677032 -177.193604 
L 238.151237 -177.193604 
L 237.625442 -177.193604 
L 237.099647 -177.193604 
L 236.573852 -177.193604 
L 236.048057 -177.193604 
L 235.522261 -177.193604 
L 234.996466 -177.193604 
L 234.470671 -177.193604 
L 233.944876 -177.193604 
L 233.419081 -177.193604 
L 232.893286 -177.193604 
L 232.367491 -177.193604 
L 231.841696 -177.193604 
L 231.315901 -177.193604 
L 230.790106 -177.193604 
L 230.264311 -177.193604 
L 229.738516 -177.193604 
L 229.212721 -177.193604 
L 228.686926 -177.193604 
L 228.161131 -177.193604 
L 227.635336 -177.193604 
L 227.109541 -177.193604 
L 226.583746 -177.193604 
L 226.057951 -177.193604 
L 225.532155 -177.193604 
L 225.00636 -177.193604 
L 224.480565 -177.193604 
L 223.95477 -177.193604 
L 223.428975 -177.193604 
L 222.90318 -177.193604 
L 222.377385 -177.193604 
L 221.85159 -177.193604 
L 221.325795 -177.193604 
L 220.8 -177.193604 
L 220.274205 -177.193604 
L 219.74841 -177.193604 
L 219.222615 -177.193604 
L 218.69682 -177.193604 
L 218.171025 -177.193604 
L 217.64523 -177.193604 
L 217.119435 -177.193604 
L 216.59364 -177.193604 
L 216.067845 -177.193604 
L 215.542049 -177.193604 
L 215.016254 -177.193604 
L 214.490459 -177.193604 
L 213.964664 -177.193604 
L 213.438869 -177.193604 
L 212.913074 -177.193604 
L 212.387279 -177.193604 
L 211.861484 -177.193604 
L 211.335689 -177.193604 
L 210.809894 -177.193604 
L 210.284099 -177.193604 
L 209.758304 -177.193604 
L 209.232509 -177.193604 
L 208.706714 -177.193604 
L 208.180919 -177.193604 
L 207.655124 -177.193604 
L 207.129329 -177.193604 
L 206.603534 -177.193604 
L 206.077739 -177.193604 
L 205.551943 -177.193604 
L 205.026148 -177.193604 
L 204.500353 -177.193604 
L 203.974558 -177.193604 
L 203.448763 -177.193604 
L 202.922968 -177.193604 
L 202.397173 -177.193604 
L 201.871378 -177.193604 
L 201.345583 -177.193604 
L 200.819788 -177.193604 
L 200.293993 -177.193604 
L 199.768198 -177.193604 
L 199.242403 -177.193604 
L 198.716608 -177.193604 
L 198.190813 -177.193604 
L 197.665018 -177.193604 
L 197.139223 -177.193604 
L 196.613428 -177.193604 
L 196.087633 -177.193604 
L 195.561837 -177.193604 
L 195.036042 -177.193604 
L 194.510247 -177.193604 
L 193.984452 -177.193604 
L 193.458657 -177.193604 
L 192.932862 -177.193604 
L 192.407067 -177.193604 
L 191.881272 -177.193604 
L 191.355477 -177.193604 
L 190.829682 -177.193604 
L 190.303887 -177.193604 
L 189.778092 -177.193604 
L 189.252297 -177.193604 
L 188.726502 -177.193604 
L 188.200707 -177.193604 
L 187.674912 -177.193604 
L 187.149117 -177.193604 
L 186.623322 -177.193604 
L 186.097527 -177.193604 
L 185.571731 -177.193604 
L 185.045936 -177.193604 
L 184.520141 -177.193604 
L 183.994346 -177.193604 
L 183.468551 -177.193604 
L 182.942756 -177.193604 
L 182.416961 -177.193604 
L 181.891166 -177.193604 
L 181.365371 -177.193604 
L 180.839576 -177.193604 
L 180.313781 -177.193604 
L 179.787986 -177.193604 
L 179.262191 -177.193604 
L 178.736396 -177.193604 
L 178.210601 -177.193604 
L 177.684806 -177.193604 
L 177.159011 -177.193604 
L 176.633216 -177.193604 
L 176.10742 -177.193604 
L 175.581625 -177.193604 
L 175.05583 -177.193604 
L 174.530035 -177.193604 
L 174.00424 -177.193604 
L 173.478445 -177.193604 
L 172.95265 -177.193604 
L 172.426855 -177.193604 
L 171.90106 -177.193604 
L 171.375265 -177.193604 
L 170.84947 -177.193604 
L 170.323675 -177.193604 
L 169.79788 -177.193604 
L 169.272085 -177.193604 
L 168.74629 -177.193604 
L 168.220495 -177.193604 
L 167.6947 -177.193604 
L 167.168905 -177.193604 
L 166.64311 -177.193604 
L 166.117314 -177.193604 
L 165.591519 -177.193604 
L 165.065724 -177.193604 
L 164.539929 -177.193604 
L 164.014134 -177.193604 
L 163.488339 -177.193604 
L 162.962544 -177.193604 
L 162.436749 -177.193604 
L 161.910954 -177.193604 
L 161.385159 -177.193604 
L 160.859364 -177.193604 
L 160.333569 -177.193604 
L 159.807774 -177.193604 
L 159.281979 -177.193604 
L 158.756184 -177.193604 
L 158.230389 -177.193604 
L 157.704594 -177.193604 
L 157.178799 -177.193604 
L 156.653004 -177.193604 
L 156.127208 -177.193604 
L 155.601413 -177.193604 
L 155.075618 -177.193604 
L 154.549823 -177.193604 
L 154.024028 -177.193604 
L 153.498233 -177.193604 
L 152.972438 -177.193604 
L 152.446643 -177.193604 
L 151.920848 -177.193604 
L 151.395053 -177.193604 
L 150.869258 -177.193604 
L 150.343463 -177.193604 
L 149.817668 -177.193604 
L 149.291873 -177.193604 
L 148.766078 -177.193604 
L 148.240283 -177.193604 
L 147.714488 -177.193604 
L 147.188693 -177.193604 
L 146.662898 -177.193604 
L 146.137102 -177.193604 
L 145.611307 -177.193604 
L 145.085512 -177.193604 
L 144.559717 -177.193604 
L 144.033922 -177.193604 
L 143.508127 -177.193604 
L 142.982332 -177.193604 
L 142.456537 -177.193604 
L 141.930742 -177.193604 
L 141.404947 -177.193604 
L 140.879152 -177.193604 
L 140.353357 -177.193604 
L 139.827562 -177.193604 
L 139.301767 -177.193604 
L 138.775972 -177.193604 
L 138.250177 -177.193604 
L 137.724382 -177.193604 
L 137.198587 -177.193604 
L 136.672792 -177.193604 
L 136.146996 -177.193604 
L 135.621201 -177.193604 
L 135.095406 -177.193604 
L 134.569611 -177.193604 
L 134.043816 -177.193604 
L 133.518021 -177.193604 
L 132.992226 -177.193604 
L 132.466431 -177.193604 
L 131.940636 -177.193604 
L 131.414841 -177.193604 
L 130.889046 -177.193604 
L 130.363251 -177.193604 
L 129.837456 -177.193604 
L 129.311661 -177.193604 
L 128.785866 -177.193604 
L 128.260071 -177.193604 
L 127.734276 -177.193604 
L 127.208481 -177.193604 
L 126.682686 -177.193604 
L 126.15689 -177.193604 
L 125.631095 -177.193604 
L 125.1053 -177.193604 
L 124.579505 -177.193604 
L 124.05371 -177.193604 
L 123.527915 -177.193604 
L 123.00212 -177.193604 
L 122.476325 -177.193604 
L 121.95053 -177.193604 
L 121.424735 -177.193604 
L 120.89894 -177.193604 
L 120.373145 -177.193604 
L 119.84735 -177.193604 
L 119.321555 -177.193604 
L 118.79576 -177.193604 
L 118.269965 -177.193604 
L 117.74417 -177.193604 
L 117.218375 -177.193604 
L 116.69258 -177.193604 
L 116.166784 -177.193604 
L 115.640989 -177.193604 
L 115.115194 -177.193604 
L 114.589399 -177.193604 
L 114.063604 -177.193604 
L 113.537809 -177.193604 
L 113.012014 -177.193604 
L 112.486219 -177.193604 
L 111.960424 -177.193604 
L 111.434629 -177.193604 
L 110.908834 -177.193604 
L 110.383039 -177.193604 
L 109.857244 -177.193604 
L 109.331449 -177.193604 
L 108.805654 -177.193604 
L 108.279859 -177.193604 
L 107.754064 -177.193604 
L 107.228269 -177.193604 
L 106.702473 -177.193604 
L 106.176678 -177.193604 
L 105.650883 -177.193604 
L 105.125088 -177.193604 
L 104.599293 -177.193604 
L 104.073498 -177.193604 
L 103.547703 -177.193604 
L 103.021908 -177.193604 
L 102.496113 -177.193604 
L 101.970318 -177.193604 
L 101.444523 -177.193604 
L 100.918728 -177.193604 
L 100.392933 -177.193604 
L 99.867138 -177.193604 
L 99.341343 -177.193604 
L 98.815548 -177.193604 
L 98.289753 -177.193604 
L 97.763958 -177.193604 
L 97.238163 -177.193604 
L 96.712367 -177.193604 
L 96.186572 -177.193604 
L 95.660777 -177.193604 
L 95.134982 -177.193604 
L 94.609187 -177.193604 
L 94.083392 -177.193604 
L 93.557597 -177.193604 
L 93.031802 -177.193604 
L 92.506007 -177.193604 
L 91.980212 -177.193604 
L 91.454417 -177.193604 
L 90.928622 -177.193604 
L 90.402827 -177.193604 
L 89.877032 -177.193604 
L 89.351237 -177.193604 
L 88.825442 -177.193604 
L 88.299647 -177.193604 
L 87.773852 -177.193604 
L 87.248057 -177.193604 
L 86.722261 -177.193604 
L 86.196466 -177.193604 
L 85.670671 -177.193604 
L 85.144876 -177.193604 
L 84.619081 -177.193604 
L 84.093286 -177.193604 
L 83.567491 -177.193604 
L 83.041696 -177.193604 
L 82.515901 -177.193604 
L 81.990106 -177.193604 
L 81.464311 -177.193604 
L 80.938516 -177.193604 
L 80.412721 -177.193604 
L 79.886926 -177.193604 
L 79.361131 -177.193604 
L 78.835336 -177.193604 
L 78.309541 -177.193604 
L 77.783746 -177.193604 
L 77.257951 -177.193604 
L 76.732155 -177.193604 
L 76.20636 -177.193604 
L 75.680565 -177.193604 
L 75.15477 -177.193604 
L 74.628975 -177.193604 
L 74.10318 -177.193604 
L 73.577385 -177.193604 
L 73.05159 -177.193604 
L 72.525795 -177.193604 
L 72 -177.193604 
z
" id="me20801a502"/>
    </defs>
    <g clip-path="url(#pe15adb8878)">
     <use style="fill-opacity:0.15;" x="0" xlink:href="#me20801a502" y="360"/>
    </g>
   </g>
   <g id="matplotlib.axis_1">
    <g id="xtick_1">
     <g id="line2d_1">
      <defs>
       <path d="M 0 0 
L 0 3.5 
" id="m3416cb5e1f" style="stroke:#000000;stroke-width:0.8;"/>
      </defs>
      <g>
       <use style="stroke:#000000;stroke-width:0.8;" x="72" xlink:href="#m3416cb5e1f" y="320.4"/>
      </g>
     </g>
     <g id="text_1">
      <!-- 0.0 -->
      <g transform="translate(60.867812 338.037813)scale(0.14 -0.14)">
       <defs>
        <path d="M 2034 4250 
Q 1547 4250 1301 3770 
Q 1056 3291 1056 2328 
Q 1056 1369 1301 889 
Q 1547 409 2034 409 
Q 2525 409 2770 889 
Q 3016 1369 3016 2328 
Q 3016 3291 2770 3770 
Q 2525 4250 2034 4250 
z
M 2034 4750 
Q 2819 4750 3233 4129 
Q 3647 3509 3647 2328 
Q 3647 1150 3233 529 
Q 2819 -91 2034 -91 
Q 1250 -91 836 529 
Q 422 1150 422 2328 
Q 422 3509 836 4129 
Q 1250 4750 2034 4750 
z
" id="DejaVuSans-30" transform="scale(0.015625)"/>
        <path d="M 684 794 
L 1344 794 
L 1344 0 
L 684 0 
L 684 794 
z
" id="DejaVuSans-2e" transform="scale(0.015625)"/>
       </defs>
       <use xlink:href="#DejaVuSans-30"/>
       <use x="63.623047" xlink:href="#DejaVuSans-2e"/>
       <use x="95.410156" xlink:href="#DejaVuSans-30"/>
      </g>
     </g>
    </g>
    <g id="xtick_2">
     <g id="line2d_2">
      <g>
       <use style="stroke:#000000;stroke-width:0.8;" x="127.855856" xlink:href="#m3416cb5e1f" y="320.4"/>
      </g>
     </g>
     <g id="text_2">
      <!-- 2.5 -->
      <g transform="translate(116.723668 338.037813)scale(0.14 -0.14)">
       <defs>
        <path d="M 1228 531 
L 3431 531 
L 3431 0 
L 469 0 
L 469 531 
Q 828 903 1448 1529 
Q 2069 2156 2228 2338 
Q 2531 2678 2651 2914 
Q 2772 3150 2772 3378 
Q 2772 3750 2511 3984 
Q 2250 4219 1831 4219 
Q 1534 4219 1204 4116 
Q 875 4013 500 3803 
L 500 4441 
Q 881 4594 1212 4672 
Q 1544 4750 1819 4750 
Q 2544 4750 2975 4387 
Q 3406 4025 3406 3419 
Q 3406 3131 3298 2873 
Q 3191 2616 2906 2266 
Q 2828 2175 2409 1742 
Q 1991 1309 1228 531 
z
" id="DejaVuSans-32" transform="scale(0.015625)"/>
        <path d="M 691 4666 
L 3169 4666 
L 3169 4134 
L 1269 4134 
L 1269 2991 
Q 1406 3038 1543 3061 
Q 1681 3084 1819 3084 
Q 2600 3084 3056 2656 
Q 3513 2228 3513 1497 
Q 3513 744 3044 326 
Q 2575 -91 1722 -91 
Q 1428 -91 1123 -41 
Q 819 9 494 109 
L 494 744 
Q 775 591 1075 516 
Q 1375 441 1709 441 
Q 2250 441 2565 725 
Q 2881 1009 2881 1497 
Q 2881 1984 2565 2268 
Q 2250 2553 1709 2553 
Q 1456 2553 1204 2497 
Q 953 2441 691 2322 
L 691 4666 
z
" id="DejaVuSans-35" transform="scale(0.015625)"/>
       </defs>
       <use xlink:href="#DejaVuSans-32"/>
       <use x="63.623047" xlink:href="#DejaVuSans-2e"/>
       <use x="95.410156" xlink:href="#DejaVuSans-35"/>
      </g>
     </g>
    </g>
    <g id="xtick_3">
     <g id="line2d_3">
      <g>
       <use style="stroke:#000000;stroke-width:0.8;" x="183.711712" xlink:href="#m3416cb5e1f" y="320.4"/>
      </g>
     </g>
     <g id="text_3">
      <!-- 5.0 -->
      <g transform="translate(172.579524 338.037813)scale(0.14 -0.14)">
       <use xlink:href="#DejaVuSans-35"/>
       <use x="63.623047" xlink:href="#DejaVuSans-2e"/>
       <use x="95.410156" xlink:href="#DejaVuSans-30"/>
      </g>
     </g>
    </g>
    <g id="xtick_4">
     <g id="line2d_4">
      <g>
       <use style="stroke:#000000;stroke-width:0.8;" x="239.567568" xlink:href="#m3416cb5e1f" y="320.4"/>
      </g>
     </g>
     <g id="text_4">
      <!-- 7.5 -->
      <g transform="translate(228.43538 338.037813)scale(0.14 -0.14)">
       <defs>
        <path d="M 525 4666 
L 3525 4666 
L 3525 4397 
L 1831 0 
L 1172 0 
L 2766 4134 
L 525 4134 
L 525 4666 
z
" id="DejaVuSans-37" transform="scale(0.015625)"/>
       </defs>
       <use xlink:href="#DejaVuSans-37"/>
       <use x="63.623047" xlink:href="#DejaVuSans-2e"/>
       <use x="95.410156" xlink:href="#DejaVuSans-35"/>
      </g>
     </g>
    </g>
    <g id="xtick_5">
     <g id="line2d_5">
      <g>
       <use style="stroke:#000000;stroke-width:0.8;" x="295.423423" xlink:href="#m3416cb5e1f" y="320.4"/>
      </g>
     </g>
     <g id="text_5">
      <!-- 10.0 -->
      <g transform="translate(279.837486 338.037813)scale(0.14 -0.14)">
       <defs>
        <path d="M 794 531 
L 1825 531 
L 1825 4091 
L 703 3866 
L 703 4441 
L 1819 4666 
L 2450 4666 
L 2450 531 
L 3481 531 
L 3481 0 
L 794 0 
L 794 531 
z
" id="DejaVuSans-31" transform="scale(0.015625)"/>
       </defs>
       <use xlink:href="#DejaVuSans-31"/>
       <use x="63.623047" xlink:href="#DejaVuSans-30"/>
       <use x="127.246094" xlink:href="#DejaVuSans-2e"/>
       <use x="159.033203" xlink:href="#DejaVuSans-30"/>
      </g>
     </g>
    </g>
    <g id="xtick_6">
     <g id="line2d_6">
      <g>
       <use style="stroke:#000000;stroke-width:0.8;" x="351.279279" xlink:href="#m3416cb5e1f" y="320.4"/>
      </g>
     </g>
     <g id="text_6">
      <!-- 12.5 -->
      <g transform="translate(335.693342 338.037813)scale(0.14 -0.14)">
       <use xlink:href="#DejaVuSans-31"/>
       <use x="63.623047" xlink:href="#DejaVuSans-32"/>
       <use x="127.246094" xlink:href="#DejaVuSans-2e"/>
       <use x="159.033203" xlink:href="#DejaVuSans-35"/>
      </g>
     </g>
    </g>
    <g id="xtick_7">
     <g id="line2d_7">
      <g>
       <use style="stroke:#000000;stroke-width:0.8;" x="407.135135" xlink:href="#m3416cb5e1f" y="320.4"/>
      </g>
     </g>
     <g id="text_7">
      <!-- 15.0 -->
      <g transform="translate(391.549198 338.037813)scale(0.14 -0.14)">
       <use xlink:href="#DejaVuSans-31"/>
       <use x="63.623047" xlink:href="#DejaVuSans-35"/>
       <use x="127.246094" xlink:href="#DejaVuSans-2e"/>
       <use x="159.033203" xlink:href="#DejaVuSans-30"/>
      </g>
     </g>
    </g>
    <g id="xtick_8">
     <g id="line2d_8">
      <g>
       <use style="stroke:#000000;stroke-width:0.8;" x="462.990991" xlink:href="#m3416cb5e1f" y="320.4"/>
      </g>
     </g>
     <g id="text_8">
      <!-- 17.5 -->
      <g transform="translate(447.405053 338.037813)scale(0.14 -0.14)">
       <use xlink:href="#DejaVuSans-31"/>
       <use x="63.623047" xlink:href="#DejaVuSans-37"/>
       <use x="127.246094" xlink:href="#DejaVuSans-2e"/>
       <use x="159.033203" xlink:href="#DejaVuSans-35"/>
      </g>
     </g>
    </g>
    <g id="text_9">
     <!-- Time [Seconds] -->
     <g transform="translate(233.23 357.106875)scale(0.16 -0.16)">
      <defs>
       <path d="M -19 4666 
L 3928 4666 
L 3928 4134 
L 2272 4134 
L 2272 0 
L 1638 0 
L 1638 4134 
L -19 4134 
L -19 4666 
z
" id="DejaVuSans-54" transform="scale(0.015625)"/>
       <path d="M 603 3500 
L 1178 3500 
L 1178 0 
L 603 0 
L 603 3500 
z
M 603 4863 
L 1178 4863 
L 1178 4134 
L 603 4134 
L 603 4863 
z
" id="DejaVuSans-69" transform="scale(0.015625)"/>
       <path d="M 3328 2828 
Q 3544 3216 3844 3400 
Q 4144 3584 4550 3584 
Q 5097 3584 5394 3201 
Q 5691 2819 5691 2113 
L 5691 0 
L 5113 0 
L 5113 2094 
Q 5113 2597 4934 2840 
Q 4756 3084 4391 3084 
Q 3944 3084 3684 2787 
Q 3425 2491 3425 1978 
L 3425 0 
L 2847 0 
L 2847 2094 
Q 2847 2600 2669 2842 
Q 2491 3084 2119 3084 
Q 1678 3084 1418 2786 
Q 1159 2488 1159 1978 
L 1159 0 
L 581 0 
L 581 3500 
L 1159 3500 
L 1159 2956 
Q 1356 3278 1631 3431 
Q 1906 3584 2284 3584 
Q 2666 3584 2933 3390 
Q 3200 3197 3328 2828 
z
" id="DejaVuSans-6d" transform="scale(0.015625)"/>
       <path d="M 3597 1894 
L 3597 1613 
L 953 1613 
Q 991 1019 1311 708 
Q 1631 397 2203 397 
Q 2534 397 2845 478 
Q 3156 559 3463 722 
L 3463 178 
Q 3153 47 2828 -22 
Q 2503 -91 2169 -91 
Q 1331 -91 842 396 
Q 353 884 353 1716 
Q 353 2575 817 3079 
Q 1281 3584 2069 3584 
Q 2775 3584 3186 3129 
Q 3597 2675 3597 1894 
z
M 3022 2063 
Q 3016 2534 2758 2815 
Q 2500 3097 2075 3097 
Q 1594 3097 1305 2825 
Q 1016 2553 972 2059 
L 3022 2063 
z
" id="DejaVuSans-65" transform="scale(0.015625)"/>
       <path id="DejaVuSans-20" transform="scale(0.015625)"/>
       <path d="M 550 4863 
L 1875 4863 
L 1875 4416 
L 1125 4416 
L 1125 -397 
L 1875 -397 
L 1875 -844 
L 550 -844 
L 550 4863 
z
" id="DejaVuSans-5b" transform="scale(0.015625)"/>
       <path d="M 3425 4513 
L 3425 3897 
Q 3066 4069 2747 4153 
Q 2428 4238 2131 4238 
Q 1616 4238 1336 4038 
Q 1056 3838 1056 3469 
Q 1056 3159 1242 3001 
Q 1428 2844 1947 2747 
L 2328 2669 
Q 3034 2534 3370 2195 
Q 3706 1856 3706 1288 
Q 3706 609 3251 259 
Q 2797 -91 1919 -91 
Q 1588 -91 1214 -16 
Q 841 59 441 206 
L 441 856 
Q 825 641 1194 531 
Q 1563 422 1919 422 
Q 2459 422 2753 634 
Q 3047 847 3047 1241 
Q 3047 1584 2836 1778 
Q 2625 1972 2144 2069 
L 1759 2144 
Q 1053 2284 737 2584 
Q 422 2884 422 3419 
Q 422 4038 858 4394 
Q 1294 4750 2059 4750 
Q 2388 4750 2728 4690 
Q 3069 4631 3425 4513 
z
" id="DejaVuSans-53" transform="scale(0.015625)"/>
       <path d="M 3122 3366 
L 3122 2828 
Q 2878 2963 2633 3030 
Q 2388 3097 2138 3097 
Q 1578 3097 1268 2742 
Q 959 2388 959 1747 
Q 959 1106 1268 751 
Q 1578 397 2138 397 
Q 2388 397 2633 464 
Q 2878 531 3122 666 
L 3122 134 
Q 2881 22 2623 -34 
Q 2366 -91 2075 -91 
Q 1284 -91 818 406 
Q 353 903 353 1747 
Q 353 2603 823 3093 
Q 1294 3584 2113 3584 
Q 2378 3584 2631 3529 
Q 2884 3475 3122 3366 
z
" id="DejaVuSans-63" transform="scale(0.015625)"/>
       <path d="M 1959 3097 
Q 1497 3097 1228 2736 
Q 959 2375 959 1747 
Q 959 1119 1226 758 
Q 1494 397 1959 397 
Q 2419 397 2687 759 
Q 2956 1122 2956 1747 
Q 2956 2369 2687 2733 
Q 2419 3097 1959 3097 
z
M 1959 3584 
Q 2709 3584 3137 3096 
Q 3566 2609 3566 1747 
Q 3566 888 3137 398 
Q 2709 -91 1959 -91 
Q 1206 -91 779 398 
Q 353 888 353 1747 
Q 353 2609 779 3096 
Q 1206 3584 1959 3584 
z
" id="DejaVuSans-6f" transform="scale(0.015625)"/>
       <path d="M 3513 2113 
L 3513 0 
L 2938 0 
L 2938 2094 
Q 2938 2591 2744 2837 
Q 2550 3084 2163 3084 
Q 1697 3084 1428 2787 
Q 1159 2491 1159 1978 
L 1159 0 
L 581 0 
L 581 3500 
L 1159 3500 
L 1159 2956 
Q 1366 3272 1645 3428 
Q 1925 3584 2291 3584 
Q 2894 3584 3203 3211 
Q 3513 2838 3513 2113 
z
" id="DejaVuSans-6e" transform="scale(0.015625)"/>
       <path d="M 2906 2969 
L 2906 4863 
L 3481 4863 
L 3481 0 
L 2906 0 
L 2906 525 
Q 2725 213 2448 61 
Q 2172 -91 1784 -91 
Q 1150 -91 751 415 
Q 353 922 353 1747 
Q 353 2572 751 3078 
Q 1150 3584 1784 3584 
Q 2172 3584 2448 3432 
Q 2725 3281 2906 2969 
z
M 947 1747 
Q 947 1113 1208 752 
Q 1469 391 1925 391 
Q 2381 391 2643 752 
Q 2906 1113 2906 1747 
Q 2906 2381 2643 2742 
Q 2381 3103 1925 3103 
Q 1469 3103 1208 2742 
Q 947 2381 947 1747 
z
" id="DejaVuSans-64" transform="scale(0.015625)"/>
       <path d="M 2834 3397 
L 2834 2853 
Q 2591 2978 2328 3040 
Q 2066 3103 1784 3103 
Q 1356 3103 1142 2972 
Q 928 2841 928 2578 
Q 928 2378 1081 2264 
Q 1234 2150 1697 2047 
L 1894 2003 
Q 2506 1872 2764 1633 
Q 3022 1394 3022 966 
Q 3022 478 2636 193 
Q 2250 -91 1575 -91 
Q 1294 -91 989 -36 
Q 684 19 347 128 
L 347 722 
Q 666 556 975 473 
Q 1284 391 1588 391 
Q 1994 391 2212 530 
Q 2431 669 2431 922 
Q 2431 1156 2273 1281 
Q 2116 1406 1581 1522 
L 1381 1569 
Q 847 1681 609 1914 
Q 372 2147 372 2553 
Q 372 3047 722 3315 
Q 1072 3584 1716 3584 
Q 2034 3584 2315 3537 
Q 2597 3491 2834 3397 
z
" id="DejaVuSans-73" transform="scale(0.015625)"/>
       <path d="M 1947 4863 
L 1947 -844 
L 622 -844 
L 622 -397 
L 1369 -397 
L 1369 4416 
L 622 4416 
L 622 4863 
L 1947 4863 
z
" id="DejaVuSans-5d" transform="scale(0.015625)"/>
      </defs>
      <use xlink:href="#DejaVuSans-54"/>
      <use x="57.958984" xlink:href="#DejaVuSans-69"/>
      <use x="85.742188" xlink:href="#DejaVuSans-6d"/>
      <use x="183.154297" xlink:href="#DejaVuSans-65"/>
      <use x="244.677734" xlink:href="#DejaVuSans-20"/>
      <use x="276.464844" xlink:href="#DejaVuSans-5b"/>
      <use x="315.478516" xlink:href="#DejaVuSans-53"/>
      <use x="378.955078" xlink:href="#DejaVuSans-65"/>
      <use x="440.478516" xlink:href="#DejaVuSans-63"/>
      <use x="495.458984" xlink:href="#DejaVuSans-6f"/>
      <use x="556.640625" xlink:href="#DejaVuSans-6e"/>
      <use x="620.019531" xlink:href="#DejaVuSans-64"/>
      <use x="683.496094" xlink:href="#DejaVuSans-73"/>
      <use x="735.595703" xlink:href="#DejaVuSans-5d"/>
     </g>
    </g>
   </g>
   <g id="matplotlib.axis_2">
    <g id="ytick_1">
     <g id="line2d_9">
      <defs>
       <path d="M 0 0 
L -3.5 0 
" id="m3ff5020e09" style="stroke:#000000;stroke-width:0.8;"/>
      </defs>
      <g>
       <use style="stroke:#000000;stroke-width:0.8;" x="72" xlink:href="#m3ff5020e09" y="279.773238"/>
      </g>
     </g>
     <g id="text_10">
      <!-- 0.0 -->
      <g transform="translate(42.735625 285.092144)scale(0.14 -0.14)">
       <use xlink:href="#DejaVuSans-30"/>
       <use x="63.623047" xlink:href="#DejaVuSans-2e"/>
       <use x="95.410156" xlink:href="#DejaVuSans-30"/>
      </g>
     </g>
    </g>
    <g id="ytick_2">
     <g id="line2d_10">
      <g>
       <use style="stroke:#000000;stroke-width:0.8;" x="72" xlink:href="#m3ff5020e09" y="228.995193"/>
      </g>
     </g>
     <g id="text_11">
      <!-- 0.5 -->
      <g transform="translate(42.735625 234.314099)scale(0.14 -0.14)">
       <use xlink:href="#DejaVuSans-30"/>
       <use x="63.623047" xlink:href="#DejaVuSans-2e"/>
       <use x="95.410156" xlink:href="#DejaVuSans-35"/>
      </g>
     </g>
    </g>
    <g id="ytick_3">
     <g id="line2d_11">
      <g>
       <use style="stroke:#000000;stroke-width:0.8;" x="72" xlink:href="#m3ff5020e09" y="178.217148"/>
      </g>
     </g>
     <g id="text_12">
      <!-- 1.0 -->
      <g transform="translate(42.735625 183.536054)scale(0.14 -0.14)">
       <use xlink:href="#DejaVuSans-31"/>
       <use x="63.623047" xlink:href="#DejaVuSans-2e"/>
       <use x="95.410156" xlink:href="#DejaVuSans-30"/>
      </g>
     </g>
    </g>
    <g id="ytick_4">
     <g id="line2d_12">
      <g>
       <use style="stroke:#000000;stroke-width:0.8;" x="72" xlink:href="#m3ff5020e09" y="127.439103"/>
      </g>
     </g>
     <g id="text_13">
      <!-- 1.5 -->
      <g transform="translate(42.735625 132.758009)scale(0.14 -0.14)">
       <use xlink:href="#DejaVuSans-31"/>
       <use x="63.623047" xlink:href="#DejaVuSans-2e"/>
       <use x="95.410156" xlink:href="#DejaVuSans-35"/>
      </g>
     </g>
    </g>
    <g id="ytick_5">
     <g id="line2d_13">
      <g>
       <use style="stroke:#000000;stroke-width:0.8;" x="72" xlink:href="#m3ff5020e09" y="76.661058"/>
      </g>
     </g>
     <g id="text_14">
      <!-- 2.0 -->
      <g transform="translate(42.735625 81.979964)scale(0.14 -0.14)">
       <use xlink:href="#DejaVuSans-32"/>
       <use x="63.623047" xlink:href="#DejaVuSans-2e"/>
       <use x="95.410156" xlink:href="#DejaVuSans-30"/>
      </g>
     </g>
    </g>
    <g id="text_15">
     <!-- Speed [mm/s] -->
     <g transform="translate(35.408125 238.11375)rotate(-90)scale(0.16 -0.16)">
      <defs>
       <path d="M 1159 525 
L 1159 -1331 
L 581 -1331 
L 581 3500 
L 1159 3500 
L 1159 2969 
Q 1341 3281 1617 3432 
Q 1894 3584 2278 3584 
Q 2916 3584 3314 3078 
Q 3713 2572 3713 1747 
Q 3713 922 3314 415 
Q 2916 -91 2278 -91 
Q 1894 -91 1617 61 
Q 1341 213 1159 525 
z
M 3116 1747 
Q 3116 2381 2855 2742 
Q 2594 3103 2138 3103 
Q 1681 3103 1420 2742 
Q 1159 2381 1159 1747 
Q 1159 1113 1420 752 
Q 1681 391 2138 391 
Q 2594 391 2855 752 
Q 3116 1113 3116 1747 
z
" id="DejaVuSans-70" transform="scale(0.015625)"/>
       <path d="M 1625 4666 
L 2156 4666 
L 531 -594 
L 0 -594 
L 1625 4666 
z
" id="DejaVuSans-2f" transform="scale(0.015625)"/>
      </defs>
      <use xlink:href="#DejaVuSans-53"/>
      <use x="63.476562" xlink:href="#DejaVuSans-70"/>
      <use x="126.953125" xlink:href="#DejaVuSans-65"/>
      <use x="188.476562" xlink:href="#DejaVuSans-65"/>
      <use x="250" xlink:href="#DejaVuSans-64"/>
      <use x="313.476562" xlink:href="#DejaVuSans-20"/>
      <use x="345.263672" xlink:href="#DejaVuSans-5b"/>
      <use x="384.277344" xlink:href="#DejaVuSans-6d"/>
      <use x="481.689453" xlink:href="#DejaVuSans-6d"/>
      <use x="579.101562" xlink:href="#DejaVuSans-2f"/>
      <use x="612.792969" xlink:href="#DejaVuSans-73"/>
      <use x="664.892578" xlink:href="#DejaVuSans-5d"/>
     </g>
    </g>
   </g>
   <g id="line2d_14">
    <path clip-path="url(#pe15adb8878)" d="M 72 180.212642 
L 518.4 180.212642 
" style="fill:none;stroke:#000000;stroke-dasharray:5.55,2.4;stroke-dashoffset:0;stroke-width:1.5;"/>
   </g>
   <g id="line2d_15">
    <path clip-path="url(#pe15adb8878)" d="M 72 278.560386 
L 116.69258 278.513891 
L 117.74417 276.039027 
L 118.269965 277.049869 
L 118.79576 278.87097 
L 119.321555 279.629143 
L 120.373145 279.264602 
L 120.89894 277.776649 
L 121.424735 284.660786 
L 121.95053 266.859798 
L 122.476325 255.085329 
L 123.00212 276.477224 
L 123.527915 290.952488 
L 124.05371 301.717204 
L 124.579505 307.282689 
L 125.1053 307.8 
L 125.631095 302.855568 
L 126.15689 293.515311 
L 126.682686 280.625914 
L 127.734276 246.086513 
L 128.260071 226.125511 
L 129.311661 180.327063 
L 130.889046 119.8921 
L 131.940636 86.56852 
L 132.466431 74.221106 
L 132.992226 64.6144 
L 133.518021 58.163601 
L 134.043816 55.8 
L 134.569611 56.408076 
L 135.095406 59.706635 
L 135.621201 65.678055 
L 136.146996 74.534531 
L 137.198587 98.332692 
L 140.353357 181.649604 
L 140.879152 188.633852 
L 141.404947 192.14888 
L 141.930742 191.350981 
L 142.456537 184.830005 
L 142.982332 175.934702 
L 143.508127 148.628581 
L 144.033922 147.273032 
L 144.559717 167.115633 
L 145.085512 167.386372 
L 145.611307 169.199597 
L 146.662898 171.54687 
L 147.188693 171.453759 
L 148.240283 174.569511 
L 149.291873 176.227017 
L 149.817668 176.130719 
L 150.343463 175.519065 
L 150.869258 176.158773 
L 151.395053 175.312392 
L 151.920848 176.893377 
L 152.446643 177.355098 
L 152.972438 175.479351 
L 153.498233 175.860866 
L 154.024028 176.708704 
L 154.549823 177.214417 
L 155.075618 176.7857 
L 155.601413 177.02862 
L 156.127208 176.638091 
L 156.653004 176.395109 
L 157.178799 175.58199 
L 157.704594 176.336096 
L 158.230389 177.335759 
L 158.756184 176.815237 
L 159.281979 177.092407 
L 159.807774 177.804772 
L 160.859364 178.550065 
L 161.385159 178.52671 
L 162.436749 180.202858 
L 162.962544 181.216573 
L 163.488339 180.397443 
L 164.014134 179.916523 
L 165.065724 183.654611 
L 165.591519 183.742954 
L 166.117314 183.393198 
L 166.64311 182.26288 
L 167.168905 181.829005 
L 167.6947 182.371375 
L 168.220495 180.387237 
L 168.74629 179.582243 
L 169.272085 180.463875 
L 169.79788 180.072012 
L 170.84947 178.98978 
L 171.375265 179.030578 
L 171.90106 179.192067 
L 172.426855 177.591152 
L 172.95265 176.61287 
L 174.00424 179.340624 
L 174.530035 179.864734 
L 175.05583 180.810612 
L 175.581625 180.671392 
L 176.10742 181.271085 
L 176.633216 181.351908 
L 177.159011 180.865799 
L 177.684806 179.778472 
L 178.210601 179.468731 
L 178.736396 180.056398 
L 179.262191 182.577031 
L 179.787986 182.743494 
L 180.313781 181.064268 
L 180.839576 181.779985 
L 181.365371 181.297399 
L 182.416961 180.696537 
L 182.942756 180.626854 
L 183.468551 180.850134 
L 184.520141 176.626999 
L 185.045936 176.093247 
L 185.571731 177.074054 
L 186.097527 179.148998 
L 186.623322 179.691149 
L 187.149117 179.061326 
L 187.674912 179.023696 
L 188.200707 179.30937 
L 188.726502 178.258178 
L 189.252297 177.730566 
L 189.778092 178.301223 
L 190.303887 179.510224 
L 190.829682 179.269522 
L 191.355477 179.203283 
L 191.881272 177.997659 
L 192.407067 177.425295 
L 192.932862 179.78203 
L 193.458657 181.002907 
L 193.984452 180.579232 
L 194.510247 179.513479 
L 195.036042 180.869011 
L 195.561837 183.222869 
L 196.087633 181.165787 
L 196.613428 179.940449 
L 197.139223 182.388481 
L 197.665018 183.100938 
L 198.190813 182.070038 
L 198.716608 181.628232 
L 199.242403 182.370137 
L 199.768198 182.016332 
L 200.293993 181.499337 
L 200.819788 182.863046 
L 201.345583 181.789582 
L 201.871378 181.066476 
L 202.397173 182.099387 
L 202.922968 182.460992 
L 203.448763 181.080826 
L 203.974558 180.913794 
L 204.500353 180.567733 
L 205.026148 178.048414 
L 205.551943 176.519157 
L 206.603534 179.477366 
L 207.129329 177.427842 
L 207.655124 176.888684 
L 208.180919 177.63125 
L 208.706714 179.639236 
L 209.232509 180.458194 
L 209.758304 178.913973 
L 210.284099 178.77588 
L 210.809894 180.49532 
L 211.335689 180.584898 
L 211.861484 179.118438 
L 212.387279 179.163864 
L 212.913074 180.895608 
L 213.438869 179.71398 
L 213.964664 179.899214 
L 214.490459 183.797611 
L 215.016254 183.326765 
L 215.542049 182.027006 
L 216.067845 180.375679 
L 216.59364 179.431861 
L 217.119435 180.97392 
L 217.64523 180.473351 
L 218.171025 179.736967 
L 218.69682 181.641838 
L 219.222615 179.623903 
L 219.74841 178.280923 
L 220.274205 181.19178 
L 220.8 182.671351 
L 221.325795 180.709916 
L 221.85159 180.013326 
L 222.377385 181.235285 
L 222.90318 179.874907 
L 223.428975 180.224833 
L 223.95477 183.04917 
L 224.480565 183.751622 
L 225.00636 181.113805 
L 225.532155 181.457091 
L 226.057951 179.977688 
L 226.583746 180.12163 
L 227.109541 181.596098 
L 227.635336 181.336401 
L 228.161131 181.396617 
L 228.686926 180.655029 
L 229.212721 181.413023 
L 229.738516 181.940572 
L 230.264311 181.5905 
L 230.790106 179.359416 
L 231.315901 180.659486 
L 231.841696 183.19727 
L 232.893286 177.069984 
L 233.944876 181.664715 
L 234.470671 180.559009 
L 234.996466 178.275628 
L 235.522261 180.017885 
L 236.048057 182.614848 
L 236.573852 179.434809 
L 237.099647 177.784161 
L 237.625442 178.025542 
L 238.151237 179.098141 
L 238.677032 181.564294 
L 239.202827 181.580207 
L 239.728622 179.747552 
L 240.254417 179.846888 
L 240.780212 177.967586 
L 241.306007 177.137208 
L 241.831802 180.120223 
L 242.357597 181.956541 
L 243.409187 179.460037 
L 243.934982 179.853149 
L 244.460777 179.128025 
L 245.512367 182.60504 
L 246.038163 181.888175 
L 247.089753 181.35396 
L 247.615548 179.829523 
L 248.141343 179.189999 
L 248.667138 177.852805 
L 249.192933 178.435118 
L 249.718728 180.174859 
L 250.244523 181.377679 
L 250.770318 181.609018 
L 251.296113 180.791506 
L 251.821908 178.945075 
L 252.347703 177.915108 
L 252.873498 179.90357 
L 253.399293 179.888985 
L 253.925088 179.457331 
L 254.450883 180.06464 
L 254.976678 181.193661 
L 255.502473 180.949407 
L 256.028269 180.114906 
L 256.554064 181.327232 
L 257.079859 181.614796 
L 258.131449 178.87228 
L 258.657244 179.746086 
L 259.183039 181.857604 
L 259.708834 181.581124 
L 260.760424 183.416012 
L 261.286219 181.437641 
L 261.812014 178.787025 
L 262.337809 176.867046 
L 262.863604 178.183889 
L 263.389399 180.467835 
L 263.915194 180.859778 
L 264.440989 179.555725 
L 265.49258 180.289093 
L 266.018375 178.28753 
L 266.54417 178.511294 
L 267.069965 179.917873 
L 267.59576 181.885901 
L 268.121555 182.482181 
L 268.64735 180.941184 
L 269.173145 181.92679 
L 269.69894 181.537676 
L 270.224735 179.658042 
L 270.75053 180.369614 
L 271.276325 181.314016 
L 271.80212 183.400157 
L 272.327915 183.401613 
L 272.85371 181.152717 
L 273.379505 181.2491 
L 273.9053 180.915069 
L 274.431095 179.394975 
L 274.95689 179.218918 
L 275.482686 180.588068 
L 276.008481 180.536539 
L 276.534276 180.245234 
L 277.060071 180.748695 
L 277.585866 181.44775 
L 278.637456 176.833536 
L 279.689046 179.969265 
L 280.214841 180.250957 
L 280.740636 182.389572 
L 281.266431 181.97212 
L 281.792226 181.312108 
L 282.318021 181.666262 
L 283.369611 180.688698 
L 283.895406 179.295157 
L 284.421201 179.885824 
L 285.998587 182.57915 
L 286.524382 181.869999 
L 287.050177 178.543642 
L 287.575972 176.62032 
L 288.627562 179.816608 
L 289.679152 180.936879 
L 290.204947 180.396422 
L 290.730742 180.659828 
L 291.256537 179.97667 
L 291.782332 178.997259 
L 292.308127 180.557179 
L 292.833922 179.63302 
L 293.359717 179.327577 
L 293.885512 179.255238 
L 294.411307 180.469155 
L 294.937102 182.984742 
L 295.462898 179.686814 
L 295.988693 177.170294 
L 296.514488 180.134631 
L 297.040283 182.420948 
L 298.091873 179.803232 
L 298.617668 181.223474 
L 299.143463 181.298582 
L 299.669258 179.117034 
L 300.195053 178.14353 
L 300.720848 178.42855 
L 301.246643 180.878838 
L 302.298233 181.220819 
L 302.824028 181.893022 
L 303.349823 181.618479 
L 304.401413 182.79283 
L 304.927208 180.812358 
L 305.453004 178.138034 
L 306.504594 183.502315 
L 307.030389 182.769976 
L 307.556184 181.170265 
L 308.081979 181.326577 
L 308.607774 181.038965 
L 309.133569 179.71183 
L 309.659364 179.574932 
L 310.185159 181.316061 
L 310.710954 181.259999 
L 311.762544 179.898593 
L 312.288339 179.818378 
L 312.814134 181.359172 
L 313.339929 181.920557 
L 313.865724 181.839412 
L 314.391519 178.95857 
L 314.917314 177.972904 
L 315.44311 179.199319 
L 315.968905 180.102626 
L 316.4947 179.880282 
L 317.020495 177.895916 
L 318.072085 181.160253 
L 319.123675 177.783459 
L 319.64947 179.543319 
L 320.175265 182.06796 
L 321.226855 178.365817 
L 321.75265 177.543263 
L 322.278445 177.082823 
L 322.80424 179.602301 
L 323.85583 178.370307 
L 324.381625 181.152404 
L 324.90742 181.292283 
L 325.433216 181.969477 
L 325.959011 182.229008 
L 326.484806 180.721478 
L 327.010601 180.233227 
L 328.062191 183.258542 
L 328.587986 181.992804 
L 329.113781 181.774057 
L 329.639576 183.632592 
L 330.165371 182.5267 
L 330.691166 180.342041 
L 331.216961 179.638187 
L 331.742756 181.471602 
L 332.268551 180.662623 
L 332.794346 180.225686 
L 333.320141 182.217088 
L 334.371731 182.634074 
L 334.897527 182.853064 
L 335.423322 183.474697 
L 335.949117 182.090233 
L 336.474912 179.838544 
L 337.000707 179.365317 
L 337.526502 179.127269 
L 338.052297 179.025298 
L 338.578092 177.48461 
L 339.103887 177.180631 
L 339.629682 178.93971 
L 340.155477 178.75462 
L 340.681272 178.994949 
L 341.207067 180.962592 
L 341.732862 181.531396 
L 342.258657 180.610009 
L 342.784452 181.088106 
L 343.310247 180.707734 
L 343.836042 179.246714 
L 344.361837 179.814537 
L 344.887633 179.770586 
L 345.413428 179.918845 
L 345.939223 180.885672 
L 346.990813 181.082985 
L 348.042403 178.57745 
L 348.568198 178.184744 
L 349.093993 179.122665 
L 349.619788 181.364344 
L 350.145583 179.828366 
L 350.671378 178.767522 
L 351.197173 180.112295 
L 351.722968 180.880968 
L 352.248763 180.563195 
L 352.774558 180.029995 
L 353.300353 181.516061 
L 353.826148 180.040533 
L 354.351943 179.479764 
L 354.877739 182.103694 
L 355.403534 182.331644 
L 355.929329 182.306993 
L 356.455124 181.820391 
L 356.980919 182.314859 
L 357.506714 183.14395 
L 358.032509 182.547208 
L 358.558304 182.538311 
L 359.084099 182.295003 
L 359.609894 181.280798 
L 360.135689 180.521752 
L 361.187279 181.858474 
L 361.713074 177.644675 
L 362.238869 175.841191 
L 362.764664 178.554122 
L 363.290459 178.882789 
L 363.816254 178.381203 
L 364.867845 177.919238 
L 365.39364 176.781339 
L 365.919435 177.274645 
L 366.44523 179.816952 
L 366.971025 181.182536 
L 367.49682 181.066266 
L 368.54841 181.625982 
L 369.074205 182.857398 
L 369.6 182.13042 
L 370.125795 180.578141 
L 370.65159 180.690795 
L 371.177385 181.159849 
L 371.70318 180.433825 
L 372.75477 179.663956 
L 373.80636 181.093694 
L 374.332155 180.790839 
L 374.857951 179.452607 
L 375.383746 177.177415 
L 376.435336 181.880921 
L 376.961131 182.003433 
L 377.486926 179.334907 
L 378.012721 178.286176 
L 378.538516 180.129065 
L 379.590106 178.778513 
L 380.115901 181.120164 
L 380.641696 181.970889 
L 381.167491 181.637384 
L 381.693286 182.885799 
L 382.219081 181.758726 
L 382.744876 179.780658 
L 383.270671 179.546458 
L 383.796466 181.220676 
L 384.322261 183.590749 
L 384.848057 183.644435 
L 385.373852 182.628282 
L 385.899647 182.215167 
L 386.425442 181.352048 
L 386.951237 179.009185 
L 387.477032 179.996014 
L 388.002827 181.421558 
L 389.054417 178.83824 
L 389.580212 178.85548 
L 390.106007 177.676976 
L 391.157597 177.687096 
L 391.683392 178.183784 
L 392.209187 180.378988 
L 392.734982 181.482981 
L 393.260777 181.419281 
L 393.786572 180.25814 
L 394.312367 180.575695 
L 394.838163 181.56113 
L 395.363958 181.208089 
L 396.415548 178.293092 
L 396.941343 178.56848 
L 397.467138 179.516431 
L 398.518728 180.440576 
L 399.044523 179.227298 
L 399.570318 179.415291 
L 400.096113 179.927137 
L 400.621908 179.308775 
L 401.147703 181.166683 
L 401.673498 184.304066 
L 402.199293 183.523688 
L 402.725088 181.90847 
L 403.250883 182.008838 
L 403.776678 181.185026 
L 404.828269 181.953982 
L 405.879859 180.247623 
L 406.931449 180.03942 
L 407.457244 180.439267 
L 407.983039 178.961697 
L 408.508834 178.991892 
L 409.034629 181.677787 
L 409.560424 181.766285 
L 410.086219 181.009975 
L 410.612014 181.10307 
L 411.137809 181.507265 
L 411.663604 179.598795 
L 412.189399 178.749448 
L 412.715194 179.524414 
L 413.240989 178.927672 
L 413.766784 178.691311 
L 414.29258 178.823538 
L 415.34417 180.056624 
L 415.869965 181.071058 
L 416.39576 181.204659 
L 416.921555 180.708347 
L 417.44735 181.011563 
L 417.973145 181.781305 
L 418.49894 183.300277 
L 419.024735 182.682762 
L 420.076325 182.356831 
L 420.60212 180.795776 
L 421.127915 180.770909 
L 421.65371 181.354294 
L 422.179505 181.098591 
L 422.7053 180.228892 
L 423.231095 180.220729 
L 423.75689 179.318721 
L 424.282686 178.936694 
L 425.334276 180.744674 
L 425.860071 180.018034 
L 426.385866 179.054859 
L 426.911661 179.948341 
L 427.437456 180.026392 
L 427.963251 181.137892 
L 428.489046 181.171464 
L 429.014841 178.962056 
L 429.540636 177.543309 
L 430.066431 178.376048 
L 430.592226 180.433559 
L 431.118021 181.408237 
L 431.643816 181.670757 
L 432.695406 181.920682 
L 433.221201 179.937583 
L 433.746996 178.987346 
L 434.272792 180.2526 
L 434.798587 180.784611 
L 435.324382 181.061463 
L 435.850177 181.056806 
L 436.375972 180.762419 
L 436.901767 181.346354 
L 437.427562 181.146557 
L 438.479152 177.509987 
L 439.004947 177.289421 
L 439.530742 178.26603 
L 440.056537 178.479629 
L 440.582332 177.590521 
L 441.108127 178.067583 
L 441.633922 178.922091 
L 442.159717 178.546699 
L 443.211307 182.813363 
L 443.737102 182.779874 
L 444.262898 182.442963 
L 444.788693 181.79628 
L 445.314488 181.804646 
L 445.840283 182.159932 
L 446.366078 182.741588 
L 446.891873 183.144375 
L 447.417668 181.204954 
L 447.943463 180.862758 
L 448.469258 182.077681 
L 448.995053 180.492225 
L 450.046643 180.750798 
L 450.572438 179.67416 
L 451.624028 181.794345 
L 452.675618 183.476531 
L 453.201413 182.474305 
L 453.727208 179.25504 
L 454.253004 178.095576 
L 454.778799 177.264675 
L 455.304594 176.868819 
L 455.830389 176.279433 
L 456.356184 175.860022 
L 456.881979 177.456227 
L 457.407774 178.238497 
L 457.933569 179.510092 
L 458.459364 181.521368 
L 458.985159 181.795947 
L 459.510954 180.953736 
L 460.036749 181.099976 
L 460.562544 181.784316 
L 461.088339 181.37899 
L 461.614134 181.729619 
L 462.139929 180.630735 
L 462.665724 179.076206 
L 463.191519 180.249394 
L 463.717314 179.048738 
L 464.24311 178.934918 
L 464.768905 180.462616 
L 465.2947 178.120277 
L 465.820495 176.395681 
L 466.34629 177.655651 
L 467.39788 180.844561 
L 467.923675 181.912445 
L 468.44947 182.465874 
L 468.975265 181.478675 
L 469.50106 181.492488 
L 470.026855 180.912062 
L 470.55265 179.432512 
L 471.078445 180.374957 
L 471.60424 180.602195 
L 472.130035 179.224176 
L 473.181625 181.607445 
L 473.70742 181.412872 
L 474.233216 182.282778 
L 474.759011 180.30135 
L 475.284806 179.18563 
L 475.810601 181.906794 
L 476.862191 178.317842 
L 477.387986 178.36314 
L 477.913781 179.088523 
L 478.439576 180.903453 
L 478.965371 181.876187 
L 479.491166 181.295142 
L 480.016961 180.982211 
L 481.068551 180.998809 
L 481.594346 181.940645 
L 482.120141 181.999458 
L 483.171731 181.194005 
L 483.697527 180.180879 
L 484.223322 181.142533 
L 484.749117 184.185232 
L 485.274912 182.796865 
L 485.800707 180.827579 
L 486.326502 180.886005 
L 486.852297 179.450976 
L 487.378092 180.048763 
L 487.903887 181.946834 
L 488.429682 179.674991 
L 488.955477 179.24133 
L 489.481272 180.120081 
L 490.007067 178.786515 
L 491.058657 180.418562 
L 491.584452 178.993941 
L 492.110247 179.632016 
L 492.636042 179.383301 
L 493.161837 177.514633 
L 493.687633 179.944269 
L 494.213428 181.515471 
L 494.739223 180.626428 
L 495.265018 179.991432 
L 495.790813 181.16313 
L 496.316608 180.519309 
L 496.842403 181.3126 
L 497.368198 180.177826 
L 497.893993 177.679689 
L 498.419788 179.75008 
L 498.945583 179.932307 
L 499.471378 179.533859 
L 499.997173 180.645516 
L 500.522968 182.668812 
L 501.048763 182.571591 
L 501.574558 181.092658 
L 502.100353 181.25399 
L 502.626148 182.57059 
L 503.677739 178.757719 
L 504.203534 179.220408 
L 504.729329 179.386426 
L 505.255124 180.62208 
L 505.780919 179.585788 
L 506.306714 179.265949 
L 506.832509 179.754819 
L 507.358304 180.558947 
L 507.884099 180.330361 
L 510.513074 178.113509 
L 511.564664 177.598881 
L 512.090459 177.512725 
L 512.616254 177.576228 
L 513.142049 177.818173 
L 513.667845 178.269034 
L 514.19364 178.960981 
L 514.719435 179.927878 
L 515.24523 181.205279 
L 515.771025 182.830435 
L 516.822615 187.281477 
L 517.874205 193.612871 
L 518.4 197.594819 
L 518.4 197.594819 
" style="fill:none;stroke:#ff0000;stroke-linecap:square;stroke-width:2;"/>
   </g>
   <g id="patch_3">
    <path d="M 72 320.4 
L 72 43.2 
" style="fill:none;stroke:#000000;stroke-linecap:square;stroke-linejoin:miter;stroke-width:0.8;"/>
   </g>
   <g id="patch_4">
    <path d="M 518.4 320.4 
L 518.4 43.2 
" style="fill:none;stroke:#000000;stroke-linecap:square;stroke-linejoin:miter;stroke-width:0.8;"/>
   </g>
   <g id="patch_5">
    <path d="M 72 320.4 
L 518.4 320.4 
" style="fill:none;stroke:#000000;stroke-linecap:square;stroke-linejoin:miter;stroke-width:0.8;"/>
   </g>
   <g id="patch_6">
    <path d="M 72 43.2 
L 518.4 43.2 
" style="fill:none;stroke:#000000;stroke-linecap:square;stroke-linejoin:miter;stroke-width:0.8;"/>
   </g>
   <g id="text_16">
    <!-- Front Propogation Speed -->
    <g transform="translate(172.245312 37.2)scale(0.2 -0.2)">
     <defs>
      <path d="M 628 4666 
L 3309 4666 
L 3309 4134 
L 1259 4134 
L 1259 2759 
L 3109 2759 
L 3109 2228 
L 1259 2228 
L 1259 0 
L 628 0 
L 628 4666 
z
" id="DejaVuSans-46" transform="scale(0.015625)"/>
      <path d="M 2631 2963 
Q 2534 3019 2420 3045 
Q 2306 3072 2169 3072 
Q 1681 3072 1420 2755 
Q 1159 2438 1159 1844 
L 1159 0 
L 581 0 
L 581 3500 
L 1159 3500 
L 1159 2956 
Q 1341 3275 1631 3429 
Q 1922 3584 2338 3584 
Q 2397 3584 2469 3576 
Q 2541 3569 2628 3553 
L 2631 2963 
z
" id="DejaVuSans-72" transform="scale(0.015625)"/>
      <path d="M 1172 4494 
L 1172 3500 
L 2356 3500 
L 2356 3053 
L 1172 3053 
L 1172 1153 
Q 1172 725 1289 603 
Q 1406 481 1766 481 
L 2356 481 
L 2356 0 
L 1766 0 
Q 1100 0 847 248 
Q 594 497 594 1153 
L 594 3053 
L 172 3053 
L 172 3500 
L 594 3500 
L 594 4494 
L 1172 4494 
z
" id="DejaVuSans-74" transform="scale(0.015625)"/>
      <path d="M 1259 4147 
L 1259 2394 
L 2053 2394 
Q 2494 2394 2734 2622 
Q 2975 2850 2975 3272 
Q 2975 3691 2734 3919 
Q 2494 4147 2053 4147 
L 1259 4147 
z
M 628 4666 
L 2053 4666 
Q 2838 4666 3239 4311 
Q 3641 3956 3641 3272 
Q 3641 2581 3239 2228 
Q 2838 1875 2053 1875 
L 1259 1875 
L 1259 0 
L 628 0 
L 628 4666 
z
" id="DejaVuSans-50" transform="scale(0.015625)"/>
      <path d="M 2906 1791 
Q 2906 2416 2648 2759 
Q 2391 3103 1925 3103 
Q 1463 3103 1205 2759 
Q 947 2416 947 1791 
Q 947 1169 1205 825 
Q 1463 481 1925 481 
Q 2391 481 2648 825 
Q 2906 1169 2906 1791 
z
M 3481 434 
Q 3481 -459 3084 -895 
Q 2688 -1331 1869 -1331 
Q 1566 -1331 1297 -1286 
Q 1028 -1241 775 -1147 
L 775 -588 
Q 1028 -725 1275 -790 
Q 1522 -856 1778 -856 
Q 2344 -856 2625 -561 
Q 2906 -266 2906 331 
L 2906 616 
Q 2728 306 2450 153 
Q 2172 0 1784 0 
Q 1141 0 747 490 
Q 353 981 353 1791 
Q 353 2603 747 3093 
Q 1141 3584 1784 3584 
Q 2172 3584 2450 3431 
Q 2728 3278 2906 2969 
L 2906 3500 
L 3481 3500 
L 3481 434 
z
" id="DejaVuSans-67" transform="scale(0.015625)"/>
      <path d="M 2194 1759 
Q 1497 1759 1228 1600 
Q 959 1441 959 1056 
Q 959 750 1161 570 
Q 1363 391 1709 391 
Q 2188 391 2477 730 
Q 2766 1069 2766 1631 
L 2766 1759 
L 2194 1759 
z
M 3341 1997 
L 3341 0 
L 2766 0 
L 2766 531 
Q 2569 213 2275 61 
Q 1981 -91 1556 -91 
Q 1019 -91 701 211 
Q 384 513 384 1019 
Q 384 1609 779 1909 
Q 1175 2209 1959 2209 
L 2766 2209 
L 2766 2266 
Q 2766 2663 2505 2880 
Q 2244 3097 1772 3097 
Q 1472 3097 1187 3025 
Q 903 2953 641 2809 
L 641 3341 
Q 956 3463 1253 3523 
Q 1550 3584 1831 3584 
Q 2591 3584 2966 3190 
Q 3341 2797 3341 1997 
z
" id="DejaVuSans-61" transform="scale(0.015625)"/>
     </defs>
     <use xlink:href="#DejaVuSans-46"/>
     <use x="50.269531" xlink:href="#DejaVuSans-72"/>
     <use x="89.132812" xlink:href="#DejaVuSans-6f"/>
     <use x="150.314453" xlink:href="#DejaVuSans-6e"/>
     <use x="213.693359" xlink:href="#DejaVuSans-74"/>
     <use x="252.902344" xlink:href="#DejaVuSans-20"/>
     <use x="284.689453" xlink:href="#DejaVuSans-50"/>
     <use x="343.242188" xlink:href="#DejaVuSans-72"/>
     <use x="382.105469" xlink:href="#DejaVuSans-6f"/>
     <use x="443.287109" xlink:href="#DejaVuSans-70"/>
     <use x="506.763672" xlink:href="#DejaVuSans-6f"/>
     <use x="567.945312" xlink:href="#DejaVuSans-67"/>
     <use x="631.421875" xlink:href="#DejaVuSans-61"/>
     <use x="692.701172" xlink:href="#DejaVuSans-74"/>
     <use x="731.910156" xlink:href="#DejaVuSans-69"/>
     <use x="759.693359" xlink:href="#DejaVuSans-6f"/>
     <use x="820.875" xlink:href="#DejaVuSans-6e"/>
     <use x="884.253906" xlink:href="#DejaVuSans-20"/>
     <use x="916.041016" xlink:href="#DejaVuSans-53"/>
     <use x="979.517578" xlink:href="#DejaVuSans-70"/>
     <use x="1042.994141" xlink:href="#DejaVuSans-65"/>
     <use x="1104.517578" xlink:href="#DejaVuSans-65"/>
     <use x="1166.041016" xlink:href="#DejaVuSans-64"/>
    </g>
   </g>
   <g id="legend_1">
    <g id="patch_7">
     <path d="M 325.967812 111.175687 
L 508.6 111.175687 
Q 511.4 111.175687 511.4 108.375687 
L 511.4 53 
Q 511.4 50.2 508.6 50.2 
L 325.967812 50.2 
Q 323.167812 50.2 323.167812 53 
L 323.167812 108.375687 
Q 323.167812 111.175687 325.967812 111.175687 
z
" style="fill:#ffffff;opacity:0.8;stroke:#cccccc;stroke-linejoin:miter;"/>
    </g>
    <g id="line2d_16">
     <path d="M 328.767812 61.537812 
L 356.767812 61.537812 
" style="fill:none;stroke:#ff0000;stroke-linecap:square;stroke-width:2;"/>
    </g>
    <g id="line2d_17"/>
    <g id="text_17">
     <!-- Front speed -->
     <g transform="translate(367.967812 66.437812)scale(0.14 -0.14)">
      <use xlink:href="#DejaVuSans-46"/>
      <use x="50.269531" xlink:href="#DejaVuSans-72"/>
      <use x="89.132812" xlink:href="#DejaVuSans-6f"/>
      <use x="150.314453" xlink:href="#DejaVuSans-6e"/>
      <use x="213.693359" xlink:href="#DejaVuSans-74"/>
      <use x="252.902344" xlink:href="#DejaVuSans-20"/>
      <use x="284.689453" xlink:href="#DejaVuSans-73"/>
      <use x="336.789062" xlink:href="#DejaVuSans-70"/>
      <use x="400.265625" xlink:href="#DejaVuSans-65"/>
      <use x="461.789062" xlink:href="#DejaVuSans-65"/>
      <use x="523.3125" xlink:href="#DejaVuSans-64"/>
     </g>
    </g>
    <g id="line2d_18">
     <path d="M 328.767812 91.381437 
L 356.767812 91.381437 
" style="fill:none;stroke:#000000;stroke-dasharray:5.55,2.4;stroke-dashoffset:0;stroke-width:1.5;"/>
    </g>
    <g id="line2d_19"/>
    <g id="text_18">
     <!-- Steady state -->
     <g transform="translate(367.967812 86.987187)scale(0.14 -0.14)">
      <defs>
       <path d="M 2059 -325 
Q 1816 -950 1584 -1140 
Q 1353 -1331 966 -1331 
L 506 -1331 
L 506 -850 
L 844 -850 
Q 1081 -850 1212 -737 
Q 1344 -625 1503 -206 
L 1606 56 
L 191 3500 
L 800 3500 
L 1894 763 
L 2988 3500 
L 3597 3500 
L 2059 -325 
z
" id="DejaVuSans-79" transform="scale(0.015625)"/>
      </defs>
      <use xlink:href="#DejaVuSans-53"/>
      <use x="63.476562" xlink:href="#DejaVuSans-74"/>
      <use x="102.685547" xlink:href="#DejaVuSans-65"/>
      <use x="164.208984" xlink:href="#DejaVuSans-61"/>
      <use x="225.488281" xlink:href="#DejaVuSans-64"/>
      <use x="288.964844" xlink:href="#DejaVuSans-79"/>
      <use x="348.144531" xlink:href="#DejaVuSans-20"/>
      <use x="379.931641" xlink:href="#DejaVuSans-73"/>
      <use x="432.03125" xlink:href="#DejaVuSans-74"/>
      <use x="471.240234" xlink:href="#DejaVuSans-61"/>
      <use x="532.519531" xlink:href="#DejaVuSans-74"/>
      <use x="571.728516" xlink:href="#DejaVuSans-65"/>
     </g>
     <!-- speed = 0.98 mm/s -->
     <g transform="translate(367.967812 102.664125)scale(0.14 -0.14)">
      <defs>
       <path d="M 678 2906 
L 4684 2906 
L 4684 2381 
L 678 2381 
L 678 2906 
z
M 678 1631 
L 4684 1631 
L 4684 1100 
L 678 1100 
L 678 1631 
z
" id="DejaVuSans-3d" transform="scale(0.015625)"/>
       <path d="M 703 97 
L 703 672 
Q 941 559 1184 500 
Q 1428 441 1663 441 
Q 2288 441 2617 861 
Q 2947 1281 2994 2138 
Q 2813 1869 2534 1725 
Q 2256 1581 1919 1581 
Q 1219 1581 811 2004 
Q 403 2428 403 3163 
Q 403 3881 828 4315 
Q 1253 4750 1959 4750 
Q 2769 4750 3195 4129 
Q 3622 3509 3622 2328 
Q 3622 1225 3098 567 
Q 2575 -91 1691 -91 
Q 1453 -91 1209 -44 
Q 966 3 703 97 
z
M 1959 2075 
Q 2384 2075 2632 2365 
Q 2881 2656 2881 3163 
Q 2881 3666 2632 3958 
Q 2384 4250 1959 4250 
Q 1534 4250 1286 3958 
Q 1038 3666 1038 3163 
Q 1038 2656 1286 2365 
Q 1534 2075 1959 2075 
z
" id="DejaVuSans-39" transform="scale(0.015625)"/>
       <path d="M 2034 2216 
Q 1584 2216 1326 1975 
Q 1069 1734 1069 1313 
Q 1069 891 1326 650 
Q 1584 409 2034 409 
Q 2484 409 2743 651 
Q 3003 894 3003 1313 
Q 3003 1734 2745 1975 
Q 2488 2216 2034 2216 
z
M 1403 2484 
Q 997 2584 770 2862 
Q 544 3141 544 3541 
Q 544 4100 942 4425 
Q 1341 4750 2034 4750 
Q 2731 4750 3128 4425 
Q 3525 4100 3525 3541 
Q 3525 3141 3298 2862 
Q 3072 2584 2669 2484 
Q 3125 2378 3379 2068 
Q 3634 1759 3634 1313 
Q 3634 634 3220 271 
Q 2806 -91 2034 -91 
Q 1263 -91 848 271 
Q 434 634 434 1313 
Q 434 1759 690 2068 
Q 947 2378 1403 2484 
z
M 1172 3481 
Q 1172 3119 1398 2916 
Q 1625 2713 2034 2713 
Q 2441 2713 2670 2916 
Q 2900 3119 2900 3481 
Q 2900 3844 2670 4047 
Q 2441 4250 2034 4250 
Q 1625 4250 1398 4047 
Q 1172 3844 1172 3481 
z
" id="DejaVuSans-38" transform="scale(0.015625)"/>
      </defs>
      <use xlink:href="#DejaVuSans-73"/>
      <use x="52.099609" xlink:href="#DejaVuSans-70"/>
      <use x="115.576172" xlink:href="#DejaVuSans-65"/>
      <use x="177.099609" xlink:href="#DejaVuSans-65"/>
      <use x="238.623047" xlink:href="#DejaVuSans-64"/>
      <use x="302.099609" xlink:href="#DejaVuSans-20"/>
      <use x="333.886719" xlink:href="#DejaVuSans-3d"/>
      <use x="417.675781" xlink:href="#DejaVuSans-20"/>
      <use x="449.462891" xlink:href="#DejaVuSans-30"/>
      <use x="513.085938" xlink:href="#DejaVuSans-2e"/>
      <use x="544.873047" xlink:href="#DejaVuSans-39"/>
      <use x="608.496094" xlink:href="#DejaVuSans-38"/>
      <use x="672.119141" xlink:href="#DejaVuSans-20"/>
      <use x="703.90625" xlink:href="#DejaVuSans-6d"/>
      <use x="801.318359" xlink:href="#DejaVuSans-6d"/>
      <use x="898.730469" xlink:href="#DejaVuSans-2f"/>
      <use x="932.421875" xlink:href="#DejaVuSans-73"/>
     </g>
    </g>
   </g>
  </g>
 </g>
 <defs>
  <clipPath id="pe15adb8878">
   <rect height="277.2" width="446.4" x="72" y="43.2"/>
  </clipPath>
 </defs>
</svg>
