<?xml version="1.0" encoding="utf-8" standalone="no"?>
<!DOCTYPE svg PUBLIC "-//W3C//DTD SVG 1.1//EN"
  "http://www.w3.org/Graphics/SVG/1.1/DTD/svg11.dtd">
<svg height="360pt" version="1.1" viewBox="0 0 576 360" width="576pt" xmlns="http://www.w3.org/2000/svg" xmlns:xlink="http://www.w3.org/1999/xlink">
 <metadata>
  <rdf:RDF xmlns:cc="http://creativecommons.org/ns#" xmlns:dc="http://purl.org/dc/elements/1.1/" xmlns:rdf="http://www.w3.org/1999/02/22-rdf-syntax-ns#">
   <cc:Work>
    <dc:type rdf:resource="http://purl.org/dc/dcmitype/StillImage"/>
    <dc:date>2022-06-30T14:16:50.039347</dc:date>
    <dc:format>image/svg+xml</dc:format>
    <dc:creator>
     <cc:Agent>
      <dc:title>Matplotlib v3.4.3, https://matplotlib.org/</dc:title>
     </cc:Agent>
    </dc:creator>
   </cc:Work>
  </rdf:RDF>
 </metadata>
 <defs>
  <style type="text/css">*{stroke-linecap:butt;stroke-linejoin:round;}</style>
 </defs>
 <g id="figure_1">
  <g id="patch_1">
   <path d="M 0 360 
L 576 360 
L 576 0 
L 0 0 
z
" style="fill:#ffffff;"/>
  </g>
  <g id="axes_1">
   <g id="patch_2">
    <path d="M 72 320.4 
L 518.4 320.4 
L 518.4 43.2 
L 72 43.2 
z
" style="fill:#ffffff;"/>
   </g>
   <g id="PolyCollection_1">
    <defs>
     <path d="M 72 -183.557965 
L 72 -187.008332 
L 72.485217 -187.008332 
L 72.970435 -187.008332 
L 73.455652 -187.008332 
L 73.94087 -187.008332 
L 74.426087 -187.008332 
L 74.911304 -187.008332 
L 75.396522 -187.008332 
L 75.881739 -187.008332 
L 76.366957 -187.008332 
L 76.852174 -187.008332 
L 77.337391 -187.008332 
L 77.822609 -187.008332 
L 78.307826 -187.008332 
L 78.793043 -187.008332 
L 79.278261 -187.008332 
L 79.763478 -187.008332 
L 80.248696 -187.008332 
L 80.733913 -187.008332 
L 81.21913 -187.008332 
L 81.704348 -187.008332 
L 82.189565 -187.008332 
L 82.674783 -187.008332 
L 83.16 -187.008332 
L 83.645217 -187.008332 
L 84.130435 -187.008332 
L 84.615652 -187.008332 
L 85.10087 -187.008332 
L 85.586087 -187.008332 
L 86.071304 -187.008332 
L 86.556522 -187.008332 
L 87.041739 -187.008332 
L 87.526957 -187.008332 
L 88.012174 -187.008332 
L 88.497391 -187.008332 
L 88.982609 -187.008332 
L 89.467826 -187.008332 
L 89.953043 -187.008332 
L 90.438261 -187.008332 
L 90.923478 -187.008332 
L 91.408696 -187.008332 
L 91.893913 -187.008332 
L 92.37913 -187.008332 
L 92.864348 -187.008332 
L 93.349565 -187.008332 
L 93.834783 -187.008332 
L 94.32 -187.008332 
L 94.805217 -187.008332 
L 95.290435 -187.008332 
L 95.775652 -187.008332 
L 96.26087 -187.008332 
L 96.746087 -187.008332 
L 97.231304 -187.008332 
L 97.716522 -187.008332 
L 98.201739 -187.008332 
L 98.686957 -187.008332 
L 99.172174 -187.008332 
L 99.657391 -187.008332 
L 100.142609 -187.008332 
L 100.627826 -187.008332 
L 101.113043 -187.008332 
L 101.598261 -187.008332 
L 102.083478 -187.008332 
L 102.568696 -187.008332 
L 103.053913 -187.008332 
L 103.53913 -187.008332 
L 104.024348 -187.008332 
L 104.509565 -187.008332 
L 104.994783 -187.008332 
L 105.48 -187.008332 
L 105.965217 -187.008332 
L 106.450435 -187.008332 
L 106.935652 -187.008332 
L 107.42087 -187.008332 
L 107.906087 -187.008332 
L 108.391304 -187.008332 
L 108.876522 -187.008332 
L 109.361739 -187.008332 
L 109.846957 -187.008332 
L 110.332174 -187.008332 
L 110.817391 -187.008332 
L 111.302609 -187.008332 
L 111.787826 -187.008332 
L 112.273043 -187.008332 
L 112.758261 -187.008332 
L 113.243478 -187.008332 
L 113.728696 -187.008332 
L 114.213913 -187.008332 
L 114.69913 -187.008332 
L 115.184348 -187.008332 
L 115.669565 -187.008332 
L 116.154783 -187.008332 
L 116.64 -187.008332 
L 117.125217 -187.008332 
L 117.610435 -187.008332 
L 118.095652 -187.008332 
L 118.58087 -187.008332 
L 119.066087 -187.008332 
L 119.551304 -187.008332 
L 120.036522 -187.008332 
L 120.521739 -187.008332 
L 121.006957 -187.008332 
L 121.492174 -187.008332 
L 121.977391 -187.008332 
L 122.462609 -187.008332 
L 122.947826 -187.008332 
L 123.433043 -187.008332 
L 123.918261 -187.008332 
L 124.403478 -187.008332 
L 124.888696 -187.008332 
L 125.373913 -187.008332 
L 125.85913 -187.008332 
L 126.344348 -187.008332 
L 126.829565 -187.008332 
L 127.314783 -187.008332 
L 127.8 -187.008332 
L 128.285217 -187.008332 
L 128.770435 -187.008332 
L 129.255652 -187.008332 
L 129.74087 -187.008332 
L 130.226087 -187.008332 
L 130.711304 -187.008332 
L 131.196522 -187.008332 
L 131.681739 -187.008332 
L 132.166957 -187.008332 
L 132.652174 -187.008332 
L 133.137391 -187.008332 
L 133.622609 -187.008332 
L 134.107826 -187.008332 
L 134.593043 -187.008332 
L 135.078261 -187.008332 
L 135.563478 -187.008332 
L 136.048696 -187.008332 
L 136.533913 -187.008332 
L 137.01913 -187.008332 
L 137.504348 -187.008332 
L 137.989565 -187.008332 
L 138.474783 -187.008332 
L 138.96 -187.008332 
L 139.445217 -187.008332 
L 139.930435 -187.008332 
L 140.415652 -187.008332 
L 140.90087 -187.008332 
L 141.386087 -187.008332 
L 141.871304 -187.008332 
L 142.356522 -187.008332 
L 142.841739 -187.008332 
L 143.326957 -187.008332 
L 143.812174 -187.008332 
L 144.297391 -187.008332 
L 144.782609 -187.008332 
L 145.267826 -187.008332 
L 145.753043 -187.008332 
L 146.238261 -187.008332 
L 146.723478 -187.008332 
L 147.208696 -187.008332 
L 147.693913 -187.008332 
L 148.17913 -187.008332 
L 148.664348 -187.008332 
L 149.149565 -187.008332 
L 149.634783 -187.008332 
L 150.12 -187.008332 
L 150.605217 -187.008332 
L 151.090435 -187.008332 
L 151.575652 -187.008332 
L 152.06087 -187.008332 
L 152.546087 -187.008332 
L 153.031304 -187.008332 
L 153.516522 -187.008332 
L 154.001739 -187.008332 
L 154.486957 -187.008332 
L 154.972174 -187.008332 
L 155.457391 -187.008332 
L 155.942609 -187.008332 
L 156.427826 -187.008332 
L 156.913043 -187.008332 
L 157.398261 -187.008332 
L 157.883478 -187.008332 
L 158.368696 -187.008332 
L 158.853913 -187.008332 
L 159.33913 -187.008332 
L 159.824348 -187.008332 
L 160.309565 -187.008332 
L 160.794783 -187.008332 
L 161.28 -187.008332 
L 161.765217 -187.008332 
L 162.250435 -187.008332 
L 162.735652 -187.008332 
L 163.22087 -187.008332 
L 163.706087 -187.008332 
L 164.191304 -187.008332 
L 164.676522 -187.008332 
L 165.161739 -187.008332 
L 165.646957 -187.008332 
L 166.132174 -187.008332 
L 166.617391 -187.008332 
L 167.102609 -187.008332 
L 167.587826 -187.008332 
L 168.073043 -187.008332 
L 168.558261 -187.008332 
L 169.043478 -187.008332 
L 169.528696 -187.008332 
L 170.013913 -187.008332 
L 170.49913 -187.008332 
L 170.984348 -187.008332 
L 171.469565 -187.008332 
L 171.954783 -187.008332 
L 172.44 -187.008332 
L 172.925217 -187.008332 
L 173.410435 -187.008332 
L 173.895652 -187.008332 
L 174.38087 -187.008332 
L 174.866087 -187.008332 
L 175.351304 -187.008332 
L 175.836522 -187.008332 
L 176.321739 -187.008332 
L 176.806957 -187.008332 
L 177.292174 -187.008332 
L 177.777391 -187.008332 
L 178.262609 -187.008332 
L 178.747826 -187.008332 
L 179.233043 -187.008332 
L 179.718261 -187.008332 
L 180.203478 -187.008332 
L 180.688696 -187.008332 
L 181.173913 -187.008332 
L 181.65913 -187.008332 
L 182.144348 -187.008332 
L 182.629565 -187.008332 
L 183.114783 -187.008332 
L 183.6 -187.008332 
L 184.085217 -187.008332 
L 184.570435 -187.008332 
L 185.055652 -187.008332 
L 185.54087 -187.008332 
L 186.026087 -187.008332 
L 186.511304 -187.008332 
L 186.996522 -187.008332 
L 187.481739 -187.008332 
L 187.966957 -187.008332 
L 188.452174 -187.008332 
L 188.937391 -187.008332 
L 189.422609 -187.008332 
L 189.907826 -187.008332 
L 190.393043 -187.008332 
L 190.878261 -187.008332 
L 191.363478 -187.008332 
L 191.848696 -187.008332 
L 192.333913 -187.008332 
L 192.81913 -187.008332 
L 193.304348 -187.008332 
L 193.789565 -187.008332 
L 194.274783 -187.008332 
L 194.76 -187.008332 
L 195.245217 -187.008332 
L 195.730435 -187.008332 
L 196.215652 -187.008332 
L 196.70087 -187.008332 
L 197.186087 -187.008332 
L 197.671304 -187.008332 
L 198.156522 -187.008332 
L 198.641739 -187.008332 
L 199.126957 -187.008332 
L 199.612174 -187.008332 
L 200.097391 -187.008332 
L 200.582609 -187.008332 
L 201.067826 -187.008332 
L 201.553043 -187.008332 
L 202.038261 -187.008332 
L 202.523478 -187.008332 
L 203.008696 -187.008332 
L 203.493913 -187.008332 
L 203.97913 -187.008332 
L 204.464348 -187.008332 
L 204.949565 -187.008332 
L 205.434783 -187.008332 
L 205.92 -187.008332 
L 206.405217 -187.008332 
L 206.890435 -187.008332 
L 207.375652 -187.008332 
L 207.86087 -187.008332 
L 208.346087 -187.008332 
L 208.831304 -187.008332 
L 209.316522 -187.008332 
L 209.801739 -187.008332 
L 210.286957 -187.008332 
L 210.772174 -187.008332 
L 211.257391 -187.008332 
L 211.742609 -187.008332 
L 212.227826 -187.008332 
L 212.713043 -187.008332 
L 213.198261 -187.008332 
L 213.683478 -187.008332 
L 214.168696 -187.008332 
L 214.653913 -187.008332 
L 215.13913 -187.008332 
L 215.624348 -187.008332 
L 216.109565 -187.008332 
L 216.594783 -187.008332 
L 217.08 -187.008332 
L 217.565217 -187.008332 
L 218.050435 -187.008332 
L 218.535652 -187.008332 
L 219.02087 -187.008332 
L 219.506087 -187.008332 
L 219.991304 -187.008332 
L 220.476522 -187.008332 
L 220.961739 -187.008332 
L 221.446957 -187.008332 
L 221.932174 -187.008332 
L 222.417391 -187.008332 
L 222.902609 -187.008332 
L 223.387826 -187.008332 
L 223.873043 -187.008332 
L 224.358261 -187.008332 
L 224.843478 -187.008332 
L 225.328696 -187.008332 
L 225.813913 -187.008332 
L 226.29913 -187.008332 
L 226.784348 -187.008332 
L 227.269565 -187.008332 
L 227.754783 -187.008332 
L 228.24 -187.008332 
L 228.725217 -187.008332 
L 229.210435 -187.008332 
L 229.695652 -187.008332 
L 230.18087 -187.008332 
L 230.666087 -187.008332 
L 231.151304 -187.008332 
L 231.636522 -187.008332 
L 232.121739 -187.008332 
L 232.606957 -187.008332 
L 233.092174 -187.008332 
L 233.577391 -187.008332 
L 234.062609 -187.008332 
L 234.547826 -187.008332 
L 235.033043 -187.008332 
L 235.518261 -187.008332 
L 236.003478 -187.008332 
L 236.488696 -187.008332 
L 236.973913 -187.008332 
L 237.45913 -187.008332 
L 237.944348 -187.008332 
L 238.429565 -187.008332 
L 238.914783 -187.008332 
L 239.4 -187.008332 
L 239.885217 -187.008332 
L 240.370435 -187.008332 
L 240.855652 -187.008332 
L 241.34087 -187.008332 
L 241.826087 -187.008332 
L 242.311304 -187.008332 
L 242.796522 -187.008332 
L 243.281739 -187.008332 
L 243.766957 -187.008332 
L 244.252174 -187.008332 
L 244.737391 -187.008332 
L 245.222609 -187.008332 
L 245.707826 -187.008332 
L 246.193043 -187.008332 
L 246.678261 -187.008332 
L 247.163478 -187.008332 
L 247.648696 -187.008332 
L 248.133913 -187.008332 
L 248.61913 -187.008332 
L 249.104348 -187.008332 
L 249.589565 -187.008332 
L 250.074783 -187.008332 
L 250.56 -187.008332 
L 251.045217 -187.008332 
L 251.530435 -187.008332 
L 252.015652 -187.008332 
L 252.50087 -187.008332 
L 252.986087 -187.008332 
L 253.471304 -187.008332 
L 253.956522 -187.008332 
L 254.441739 -187.008332 
L 254.926957 -187.008332 
L 255.412174 -187.008332 
L 255.897391 -187.008332 
L 256.382609 -187.008332 
L 256.867826 -187.008332 
L 257.353043 -187.008332 
L 257.838261 -187.008332 
L 258.323478 -187.008332 
L 258.808696 -187.008332 
L 259.293913 -187.008332 
L 259.77913 -187.008332 
L 260.264348 -187.008332 
L 260.749565 -187.008332 
L 261.234783 -187.008332 
L 261.72 -187.008332 
L 262.205217 -187.008332 
L 262.690435 -187.008332 
L 263.175652 -187.008332 
L 263.66087 -187.008332 
L 264.146087 -187.008332 
L 264.631304 -187.008332 
L 265.116522 -187.008332 
L 265.601739 -187.008332 
L 266.086957 -187.008332 
L 266.572174 -187.008332 
L 267.057391 -187.008332 
L 267.542609 -187.008332 
L 268.027826 -187.008332 
L 268.513043 -187.008332 
L 268.998261 -187.008332 
L 269.483478 -187.008332 
L 269.968696 -187.008332 
L 270.453913 -187.008332 
L 270.93913 -187.008332 
L 271.424348 -187.008332 
L 271.909565 -187.008332 
L 272.394783 -187.008332 
L 272.88 -187.008332 
L 273.365217 -187.008332 
L 273.850435 -187.008332 
L 274.335652 -187.008332 
L 274.82087 -187.008332 
L 275.306087 -187.008332 
L 275.791304 -187.008332 
L 276.276522 -187.008332 
L 276.761739 -187.008332 
L 277.246957 -187.008332 
L 277.732174 -187.008332 
L 278.217391 -187.008332 
L 278.702609 -187.008332 
L 279.187826 -187.008332 
L 279.673043 -187.008332 
L 280.158261 -187.008332 
L 280.643478 -187.008332 
L 281.128696 -187.008332 
L 281.613913 -187.008332 
L 282.09913 -187.008332 
L 282.584348 -187.008332 
L 283.069565 -187.008332 
L 283.554783 -187.008332 
L 284.04 -187.008332 
L 284.525217 -187.008332 
L 285.010435 -187.008332 
L 285.495652 -187.008332 
L 285.98087 -187.008332 
L 286.466087 -187.008332 
L 286.951304 -187.008332 
L 287.436522 -187.008332 
L 287.921739 -187.008332 
L 288.406957 -187.008332 
L 288.892174 -187.008332 
L 289.377391 -187.008332 
L 289.862609 -187.008332 
L 290.347826 -187.008332 
L 290.833043 -187.008332 
L 291.318261 -187.008332 
L 291.803478 -187.008332 
L 292.288696 -187.008332 
L 292.773913 -187.008332 
L 293.25913 -187.008332 
L 293.744348 -187.008332 
L 294.229565 -187.008332 
L 294.714783 -187.008332 
L 295.2 -187.008332 
L 295.685217 -187.008332 
L 296.170435 -187.008332 
L 296.655652 -187.008332 
L 297.14087 -187.008332 
L 297.626087 -187.008332 
L 298.111304 -187.008332 
L 298.596522 -187.008332 
L 299.081739 -187.008332 
L 299.566957 -187.008332 
L 300.052174 -187.008332 
L 300.537391 -187.008332 
L 301.022609 -187.008332 
L 301.507826 -187.008332 
L 301.993043 -187.008332 
L 302.478261 -187.008332 
L 302.963478 -187.008332 
L 303.448696 -187.008332 
L 303.933913 -187.008332 
L 304.41913 -187.008332 
L 304.904348 -187.008332 
L 305.389565 -187.008332 
L 305.874783 -187.008332 
L 306.36 -187.008332 
L 306.845217 -187.008332 
L 307.330435 -187.008332 
L 307.815652 -187.008332 
L 308.30087 -187.008332 
L 308.786087 -187.008332 
L 309.271304 -187.008332 
L 309.756522 -187.008332 
L 310.241739 -187.008332 
L 310.726957 -187.008332 
L 311.212174 -187.008332 
L 311.697391 -187.008332 
L 312.182609 -187.008332 
L 312.667826 -187.008332 
L 313.153043 -187.008332 
L 313.638261 -187.008332 
L 314.123478 -187.008332 
L 314.608696 -187.008332 
L 315.093913 -187.008332 
L 315.57913 -187.008332 
L 316.064348 -187.008332 
L 316.549565 -187.008332 
L 317.034783 -187.008332 
L 317.52 -187.008332 
L 318.005217 -187.008332 
L 318.490435 -187.008332 
L 318.975652 -187.008332 
L 319.46087 -187.008332 
L 319.946087 -187.008332 
L 320.431304 -187.008332 
L 320.916522 -187.008332 
L 321.401739 -187.008332 
L 321.886957 -187.008332 
L 322.372174 -187.008332 
L 322.857391 -187.008332 
L 323.342609 -187.008332 
L 323.827826 -187.008332 
L 324.313043 -187.008332 
L 324.798261 -187.008332 
L 325.283478 -187.008332 
L 325.768696 -187.008332 
L 326.253913 -187.008332 
L 326.73913 -187.008332 
L 327.224348 -187.008332 
L 327.709565 -187.008332 
L 328.194783 -187.008332 
L 328.68 -187.008332 
L 329.165217 -187.008332 
L 329.650435 -187.008332 
L 330.135652 -187.008332 
L 330.62087 -187.008332 
L 331.106087 -187.008332 
L 331.591304 -187.008332 
L 332.076522 -187.008332 
L 332.561739 -187.008332 
L 333.046957 -187.008332 
L 333.532174 -187.008332 
L 334.017391 -187.008332 
L 334.502609 -187.008332 
L 334.987826 -187.008332 
L 335.473043 -187.008332 
L 335.958261 -187.008332 
L 336.443478 -187.008332 
L 336.928696 -187.008332 
L 337.413913 -187.008332 
L 337.89913 -187.008332 
L 338.384348 -187.008332 
L 338.869565 -187.008332 
L 339.354783 -187.008332 
L 339.84 -187.008332 
L 340.325217 -187.008332 
L 340.810435 -187.008332 
L 341.295652 -187.008332 
L 341.78087 -187.008332 
L 342.266087 -187.008332 
L 342.751304 -187.008332 
L 343.236522 -187.008332 
L 343.721739 -187.008332 
L 344.206957 -187.008332 
L 344.692174 -187.008332 
L 345.177391 -187.008332 
L 345.662609 -187.008332 
L 346.147826 -187.008332 
L 346.633043 -187.008332 
L 347.118261 -187.008332 
L 347.603478 -187.008332 
L 348.088696 -187.008332 
L 348.573913 -187.008332 
L 349.05913 -187.008332 
L 349.544348 -187.008332 
L 350.029565 -187.008332 
L 350.514783 -187.008332 
L 351 -187.008332 
L 351.485217 -187.008332 
L 351.970435 -187.008332 
L 352.455652 -187.008332 
L 352.94087 -187.008332 
L 353.426087 -187.008332 
L 353.911304 -187.008332 
L 354.396522 -187.008332 
L 354.881739 -187.008332 
L 355.366957 -187.008332 
L 355.852174 -187.008332 
L 356.337391 -187.008332 
L 356.822609 -187.008332 
L 357.307826 -187.008332 
L 357.793043 -187.008332 
L 358.278261 -187.008332 
L 358.763478 -187.008332 
L 359.248696 -187.008332 
L 359.733913 -187.008332 
L 360.21913 -187.008332 
L 360.704348 -187.008332 
L 361.189565 -187.008332 
L 361.674783 -187.008332 
L 362.16 -187.008332 
L 362.645217 -187.008332 
L 363.130435 -187.008332 
L 363.615652 -187.008332 
L 364.10087 -187.008332 
L 364.586087 -187.008332 
L 365.071304 -187.008332 
L 365.556522 -187.008332 
L 366.041739 -187.008332 
L 366.526957 -187.008332 
L 367.012174 -187.008332 
L 367.497391 -187.008332 
L 367.982609 -187.008332 
L 368.467826 -187.008332 
L 368.953043 -187.008332 
L 369.438261 -187.008332 
L 369.923478 -187.008332 
L 370.408696 -187.008332 
L 370.893913 -187.008332 
L 371.37913 -187.008332 
L 371.864348 -187.008332 
L 372.349565 -187.008332 
L 372.834783 -187.008332 
L 373.32 -187.008332 
L 373.805217 -187.008332 
L 374.290435 -187.008332 
L 374.775652 -187.008332 
L 375.26087 -187.008332 
L 375.746087 -187.008332 
L 376.231304 -187.008332 
L 376.716522 -187.008332 
L 377.201739 -187.008332 
L 377.686957 -187.008332 
L 378.172174 -187.008332 
L 378.657391 -187.008332 
L 379.142609 -187.008332 
L 379.627826 -187.008332 
L 380.113043 -187.008332 
L 380.598261 -187.008332 
L 381.083478 -187.008332 
L 381.568696 -187.008332 
L 382.053913 -187.008332 
L 382.53913 -187.008332 
L 383.024348 -187.008332 
L 383.509565 -187.008332 
L 383.994783 -187.008332 
L 384.48 -187.008332 
L 384.965217 -187.008332 
L 385.450435 -187.008332 
L 385.935652 -187.008332 
L 386.42087 -187.008332 
L 386.906087 -187.008332 
L 387.391304 -187.008332 
L 387.876522 -187.008332 
L 388.361739 -187.008332 
L 388.846957 -187.008332 
L 389.332174 -187.008332 
L 389.817391 -187.008332 
L 390.302609 -187.008332 
L 390.787826 -187.008332 
L 391.273043 -187.008332 
L 391.758261 -187.008332 
L 392.243478 -187.008332 
L 392.728696 -187.008332 
L 393.213913 -187.008332 
L 393.69913 -187.008332 
L 394.184348 -187.008332 
L 394.669565 -187.008332 
L 395.154783 -187.008332 
L 395.64 -187.008332 
L 396.125217 -187.008332 
L 396.610435 -187.008332 
L 397.095652 -187.008332 
L 397.58087 -187.008332 
L 398.066087 -187.008332 
L 398.551304 -187.008332 
L 399.036522 -187.008332 
L 399.521739 -187.008332 
L 400.006957 -187.008332 
L 400.492174 -187.008332 
L 400.977391 -187.008332 
L 401.462609 -187.008332 
L 401.947826 -187.008332 
L 402.433043 -187.008332 
L 402.918261 -187.008332 
L 403.403478 -187.008332 
L 403.888696 -187.008332 
L 404.373913 -187.008332 
L 404.85913 -187.008332 
L 405.344348 -187.008332 
L 405.829565 -187.008332 
L 406.314783 -187.008332 
L 406.8 -187.008332 
L 407.285217 -187.008332 
L 407.770435 -187.008332 
L 408.255652 -187.008332 
L 408.74087 -187.008332 
L 409.226087 -187.008332 
L 409.711304 -187.008332 
L 410.196522 -187.008332 
L 410.681739 -187.008332 
L 411.166957 -187.008332 
L 411.652174 -187.008332 
L 412.137391 -187.008332 
L 412.622609 -187.008332 
L 413.107826 -187.008332 
L 413.593043 -187.008332 
L 414.078261 -187.008332 
L 414.563478 -187.008332 
L 415.048696 -187.008332 
L 415.533913 -187.008332 
L 416.01913 -187.008332 
L 416.504348 -187.008332 
L 416.989565 -187.008332 
L 417.474783 -187.008332 
L 417.96 -187.008332 
L 418.445217 -187.008332 
L 418.930435 -187.008332 
L 419.415652 -187.008332 
L 419.90087 -187.008332 
L 420.386087 -187.008332 
L 420.871304 -187.008332 
L 421.356522 -187.008332 
L 421.841739 -187.008332 
L 422.326957 -187.008332 
L 422.812174 -187.008332 
L 423.297391 -187.008332 
L 423.782609 -187.008332 
L 424.267826 -187.008332 
L 424.753043 -187.008332 
L 425.238261 -187.008332 
L 425.723478 -187.008332 
L 426.208696 -187.008332 
L 426.693913 -187.008332 
L 427.17913 -187.008332 
L 427.664348 -187.008332 
L 428.149565 -187.008332 
L 428.634783 -187.008332 
L 429.12 -187.008332 
L 429.605217 -187.008332 
L 430.090435 -187.008332 
L 430.575652 -187.008332 
L 431.06087 -187.008332 
L 431.546087 -187.008332 
L 432.031304 -187.008332 
L 432.516522 -187.008332 
L 433.001739 -187.008332 
L 433.486957 -187.008332 
L 433.972174 -187.008332 
L 434.457391 -187.008332 
L 434.942609 -187.008332 
L 435.427826 -187.008332 
L 435.913043 -187.008332 
L 436.398261 -187.008332 
L 436.883478 -187.008332 
L 437.368696 -187.008332 
L 437.853913 -187.008332 
L 438.33913 -187.008332 
L 438.824348 -187.008332 
L 439.309565 -187.008332 
L 439.794783 -187.008332 
L 440.28 -187.008332 
L 440.765217 -187.008332 
L 441.250435 -187.008332 
L 441.735652 -187.008332 
L 442.22087 -187.008332 
L 442.706087 -187.008332 
L 443.191304 -187.008332 
L 443.676522 -187.008332 
L 444.161739 -187.008332 
L 444.646957 -187.008332 
L 445.132174 -187.008332 
L 445.617391 -187.008332 
L 446.102609 -187.008332 
L 446.587826 -187.008332 
L 447.073043 -187.008332 
L 447.558261 -187.008332 
L 448.043478 -187.008332 
L 448.528696 -187.008332 
L 449.013913 -187.008332 
L 449.49913 -187.008332 
L 449.984348 -187.008332 
L 450.469565 -187.008332 
L 450.954783 -187.008332 
L 451.44 -187.008332 
L 451.925217 -187.008332 
L 452.410435 -187.008332 
L 452.895652 -187.008332 
L 453.38087 -187.008332 
L 453.866087 -187.008332 
L 454.351304 -187.008332 
L 454.836522 -187.008332 
L 455.321739 -187.008332 
L 455.806957 -187.008332 
L 456.292174 -187.008332 
L 456.777391 -187.008332 
L 457.262609 -187.008332 
L 457.747826 -187.008332 
L 458.233043 -187.008332 
L 458.718261 -187.008332 
L 459.203478 -187.008332 
L 459.688696 -187.008332 
L 460.173913 -187.008332 
L 460.65913 -187.008332 
L 461.144348 -187.008332 
L 461.629565 -187.008332 
L 462.114783 -187.008332 
L 462.6 -187.008332 
L 463.085217 -187.008332 
L 463.570435 -187.008332 
L 464.055652 -187.008332 
L 464.54087 -187.008332 
L 465.026087 -187.008332 
L 465.511304 -187.008332 
L 465.996522 -187.008332 
L 466.481739 -187.008332 
L 466.966957 -187.008332 
L 467.452174 -187.008332 
L 467.937391 -187.008332 
L 468.422609 -187.008332 
L 468.907826 -187.008332 
L 469.393043 -187.008332 
L 469.878261 -187.008332 
L 470.363478 -187.008332 
L 470.848696 -187.008332 
L 471.333913 -187.008332 
L 471.81913 -187.008332 
L 472.304348 -187.008332 
L 472.789565 -187.008332 
L 473.274783 -187.008332 
L 473.76 -187.008332 
L 474.245217 -187.008332 
L 474.730435 -187.008332 
L 475.215652 -187.008332 
L 475.70087 -187.008332 
L 476.186087 -187.008332 
L 476.671304 -187.008332 
L 477.156522 -187.008332 
L 477.641739 -187.008332 
L 478.126957 -187.008332 
L 478.612174 -187.008332 
L 479.097391 -187.008332 
L 479.582609 -187.008332 
L 480.067826 -187.008332 
L 480.553043 -187.008332 
L 481.038261 -187.008332 
L 481.523478 -187.008332 
L 482.008696 -187.008332 
L 482.493913 -187.008332 
L 482.97913 -187.008332 
L 483.464348 -187.008332 
L 483.949565 -187.008332 
L 484.434783 -187.008332 
L 484.92 -187.008332 
L 485.405217 -187.008332 
L 485.890435 -187.008332 
L 486.375652 -187.008332 
L 486.86087 -187.008332 
L 487.346087 -187.008332 
L 487.831304 -187.008332 
L 488.316522 -187.008332 
L 488.801739 -187.008332 
L 489.286957 -187.008332 
L 489.772174 -187.008332 
L 490.257391 -187.008332 
L 490.742609 -187.008332 
L 491.227826 -187.008332 
L 491.713043 -187.008332 
L 492.198261 -187.008332 
L 492.683478 -187.008332 
L 493.168696 -187.008332 
L 493.653913 -187.008332 
L 494.13913 -187.008332 
L 494.624348 -187.008332 
L 495.109565 -187.008332 
L 495.594783 -187.008332 
L 496.08 -187.008332 
L 496.565217 -187.008332 
L 497.050435 -187.008332 
L 497.535652 -187.008332 
L 498.02087 -187.008332 
L 498.506087 -187.008332 
L 498.991304 -187.008332 
L 499.476522 -187.008332 
L 499.961739 -187.008332 
L 500.446957 -187.008332 
L 500.932174 -187.008332 
L 501.417391 -187.008332 
L 501.902609 -187.008332 
L 502.387826 -187.008332 
L 502.873043 -187.008332 
L 503.358261 -187.008332 
L 503.843478 -187.008332 
L 504.328696 -187.008332 
L 504.813913 -187.008332 
L 505.29913 -187.008332 
L 505.784348 -187.008332 
L 506.269565 -187.008332 
L 506.754783 -187.008332 
L 507.24 -187.008332 
L 507.725217 -187.008332 
L 508.210435 -187.008332 
L 508.695652 -187.008332 
L 509.18087 -187.008332 
L 509.666087 -187.008332 
L 510.151304 -187.008332 
L 510.636522 -187.008332 
L 511.121739 -187.008332 
L 511.606957 -187.008332 
L 512.092174 -187.008332 
L 512.577391 -187.008332 
L 513.062609 -187.008332 
L 513.547826 -187.008332 
L 514.033043 -187.008332 
L 514.518261 -187.008332 
L 515.003478 -187.008332 
L 515.488696 -187.008332 
L 515.973913 -187.008332 
L 516.45913 -187.008332 
L 516.944348 -187.008332 
L 517.429565 -187.008332 
L 517.914783 -187.008332 
L 518.4 -187.008332 
L 518.4 -183.557965 
L 518.4 -183.557965 
L 517.914783 -183.557965 
L 517.429565 -183.557965 
L 516.944348 -183.557965 
L 516.45913 -183.557965 
L 515.973913 -183.557965 
L 515.488696 -183.557965 
L 515.003478 -183.557965 
L 514.518261 -183.557965 
L 514.033043 -183.557965 
L 513.547826 -183.557965 
L 513.062609 -183.557965 
L 512.577391 -183.557965 
L 512.092174 -183.557965 
L 511.606957 -183.557965 
L 511.121739 -183.557965 
L 510.636522 -183.557965 
L 510.151304 -183.557965 
L 509.666087 -183.557965 
L 509.18087 -183.557965 
L 508.695652 -183.557965 
L 508.210435 -183.557965 
L 507.725217 -183.557965 
L 507.24 -183.557965 
L 506.754783 -183.557965 
L 506.269565 -183.557965 
L 505.784348 -183.557965 
L 505.29913 -183.557965 
L 504.813913 -183.557965 
L 504.328696 -183.557965 
L 503.843478 -183.557965 
L 503.358261 -183.557965 
L 502.873043 -183.557965 
L 502.387826 -183.557965 
L 501.902609 -183.557965 
L 501.417391 -183.557965 
L 500.932174 -183.557965 
L 500.446957 -183.557965 
L 499.961739 -183.557965 
L 499.476522 -183.557965 
L 498.991304 -183.557965 
L 498.506087 -183.557965 
L 498.02087 -183.557965 
L 497.535652 -183.557965 
L 497.050435 -183.557965 
L 496.565217 -183.557965 
L 496.08 -183.557965 
L 495.594783 -183.557965 
L 495.109565 -183.557965 
L 494.624348 -183.557965 
L 494.13913 -183.557965 
L 493.653913 -183.557965 
L 493.168696 -183.557965 
L 492.683478 -183.557965 
L 492.198261 -183.557965 
L 491.713043 -183.557965 
L 491.227826 -183.557965 
L 490.742609 -183.557965 
L 490.257391 -183.557965 
L 489.772174 -183.557965 
L 489.286957 -183.557965 
L 488.801739 -183.557965 
L 488.316522 -183.557965 
L 487.831304 -183.557965 
L 487.346087 -183.557965 
L 486.86087 -183.557965 
L 486.375652 -183.557965 
L 485.890435 -183.557965 
L 485.405217 -183.557965 
L 484.92 -183.557965 
L 484.434783 -183.557965 
L 483.949565 -183.557965 
L 483.464348 -183.557965 
L 482.97913 -183.557965 
L 482.493913 -183.557965 
L 482.008696 -183.557965 
L 481.523478 -183.557965 
L 481.038261 -183.557965 
L 480.553043 -183.557965 
L 480.067826 -183.557965 
L 479.582609 -183.557965 
L 479.097391 -183.557965 
L 478.612174 -183.557965 
L 478.126957 -183.557965 
L 477.641739 -183.557965 
L 477.156522 -183.557965 
L 476.671304 -183.557965 
L 476.186087 -183.557965 
L 475.70087 -183.557965 
L 475.215652 -183.557965 
L 474.730435 -183.557965 
L 474.245217 -183.557965 
L 473.76 -183.557965 
L 473.274783 -183.557965 
L 472.789565 -183.557965 
L 472.304348 -183.557965 
L 471.81913 -183.557965 
L 471.333913 -183.557965 
L 470.848696 -183.557965 
L 470.363478 -183.557965 
L 469.878261 -183.557965 
L 469.393043 -183.557965 
L 468.907826 -183.557965 
L 468.422609 -183.557965 
L 467.937391 -183.557965 
L 467.452174 -183.557965 
L 466.966957 -183.557965 
L 466.481739 -183.557965 
L 465.996522 -183.557965 
L 465.511304 -183.557965 
L 465.026087 -183.557965 
L 464.54087 -183.557965 
L 464.055652 -183.557965 
L 463.570435 -183.557965 
L 463.085217 -183.557965 
L 462.6 -183.557965 
L 462.114783 -183.557965 
L 461.629565 -183.557965 
L 461.144348 -183.557965 
L 460.65913 -183.557965 
L 460.173913 -183.557965 
L 459.688696 -183.557965 
L 459.203478 -183.557965 
L 458.718261 -183.557965 
L 458.233043 -183.557965 
L 457.747826 -183.557965 
L 457.262609 -183.557965 
L 456.777391 -183.557965 
L 456.292174 -183.557965 
L 455.806957 -183.557965 
L 455.321739 -183.557965 
L 454.836522 -183.557965 
L 454.351304 -183.557965 
L 453.866087 -183.557965 
L 453.38087 -183.557965 
L 452.895652 -183.557965 
L 452.410435 -183.557965 
L 451.925217 -183.557965 
L 451.44 -183.557965 
L 450.954783 -183.557965 
L 450.469565 -183.557965 
L 449.984348 -183.557965 
L 449.49913 -183.557965 
L 449.013913 -183.557965 
L 448.528696 -183.557965 
L 448.043478 -183.557965 
L 447.558261 -183.557965 
L 447.073043 -183.557965 
L 446.587826 -183.557965 
L 446.102609 -183.557965 
L 445.617391 -183.557965 
L 445.132174 -183.557965 
L 444.646957 -183.557965 
L 444.161739 -183.557965 
L 443.676522 -183.557965 
L 443.191304 -183.557965 
L 442.706087 -183.557965 
L 442.22087 -183.557965 
L 441.735652 -183.557965 
L 441.250435 -183.557965 
L 440.765217 -183.557965 
L 440.28 -183.557965 
L 439.794783 -183.557965 
L 439.309565 -183.557965 
L 438.824348 -183.557965 
L 438.33913 -183.557965 
L 437.853913 -183.557965 
L 437.368696 -183.557965 
L 436.883478 -183.557965 
L 436.398261 -183.557965 
L 435.913043 -183.557965 
L 435.427826 -183.557965 
L 434.942609 -183.557965 
L 434.457391 -183.557965 
L 433.972174 -183.557965 
L 433.486957 -183.557965 
L 433.001739 -183.557965 
L 432.516522 -183.557965 
L 432.031304 -183.557965 
L 431.546087 -183.557965 
L 431.06087 -183.557965 
L 430.575652 -183.557965 
L 430.090435 -183.557965 
L 429.605217 -183.557965 
L 429.12 -183.557965 
L 428.634783 -183.557965 
L 428.149565 -183.557965 
L 427.664348 -183.557965 
L 427.17913 -183.557965 
L 426.693913 -183.557965 
L 426.208696 -183.557965 
L 425.723478 -183.557965 
L 425.238261 -183.557965 
L 424.753043 -183.557965 
L 424.267826 -183.557965 
L 423.782609 -183.557965 
L 423.297391 -183.557965 
L 422.812174 -183.557965 
L 422.326957 -183.557965 
L 421.841739 -183.557965 
L 421.356522 -183.557965 
L 420.871304 -183.557965 
L 420.386087 -183.557965 
L 419.90087 -183.557965 
L 419.415652 -183.557965 
L 418.930435 -183.557965 
L 418.445217 -183.557965 
L 417.96 -183.557965 
L 417.474783 -183.557965 
L 416.989565 -183.557965 
L 416.504348 -183.557965 
L 416.01913 -183.557965 
L 415.533913 -183.557965 
L 415.048696 -183.557965 
L 414.563478 -183.557965 
L 414.078261 -183.557965 
L 413.593043 -183.557965 
L 413.107826 -183.557965 
L 412.622609 -183.557965 
L 412.137391 -183.557965 
L 411.652174 -183.557965 
L 411.166957 -183.557965 
L 410.681739 -183.557965 
L 410.196522 -183.557965 
L 409.711304 -183.557965 
L 409.226087 -183.557965 
L 408.74087 -183.557965 
L 408.255652 -183.557965 
L 407.770435 -183.557965 
L 407.285217 -183.557965 
L 406.8 -183.557965 
L 406.314783 -183.557965 
L 405.829565 -183.557965 
L 405.344348 -183.557965 
L 404.85913 -183.557965 
L 404.373913 -183.557965 
L 403.888696 -183.557965 
L 403.403478 -183.557965 
L 402.918261 -183.557965 
L 402.433043 -183.557965 
L 401.947826 -183.557965 
L 401.462609 -183.557965 
L 400.977391 -183.557965 
L 400.492174 -183.557965 
L 400.006957 -183.557965 
L 399.521739 -183.557965 
L 399.036522 -183.557965 
L 398.551304 -183.557965 
L 398.066087 -183.557965 
L 397.58087 -183.557965 
L 397.095652 -183.557965 
L 396.610435 -183.557965 
L 396.125217 -183.557965 
L 395.64 -183.557965 
L 395.154783 -183.557965 
L 394.669565 -183.557965 
L 394.184348 -183.557965 
L 393.69913 -183.557965 
L 393.213913 -183.557965 
L 392.728696 -183.557965 
L 392.243478 -183.557965 
L 391.758261 -183.557965 
L 391.273043 -183.557965 
L 390.787826 -183.557965 
L 390.302609 -183.557965 
L 389.817391 -183.557965 
L 389.332174 -183.557965 
L 388.846957 -183.557965 
L 388.361739 -183.557965 
L 387.876522 -183.557965 
L 387.391304 -183.557965 
L 386.906087 -183.557965 
L 386.42087 -183.557965 
L 385.935652 -183.557965 
L 385.450435 -183.557965 
L 384.965217 -183.557965 
L 384.48 -183.557965 
L 383.994783 -183.557965 
L 383.509565 -183.557965 
L 383.024348 -183.557965 
L 382.53913 -183.557965 
L 382.053913 -183.557965 
L 381.568696 -183.557965 
L 381.083478 -183.557965 
L 380.598261 -183.557965 
L 380.113043 -183.557965 
L 379.627826 -183.557965 
L 379.142609 -183.557965 
L 378.657391 -183.557965 
L 378.172174 -183.557965 
L 377.686957 -183.557965 
L 377.201739 -183.557965 
L 376.716522 -183.557965 
L 376.231304 -183.557965 
L 375.746087 -183.557965 
L 375.26087 -183.557965 
L 374.775652 -183.557965 
L 374.290435 -183.557965 
L 373.805217 -183.557965 
L 373.32 -183.557965 
L 372.834783 -183.557965 
L 372.349565 -183.557965 
L 371.864348 -183.557965 
L 371.37913 -183.557965 
L 370.893913 -183.557965 
L 370.408696 -183.557965 
L 369.923478 -183.557965 
L 369.438261 -183.557965 
L 368.953043 -183.557965 
L 368.467826 -183.557965 
L 367.982609 -183.557965 
L 367.497391 -183.557965 
L 367.012174 -183.557965 
L 366.526957 -183.557965 
L 366.041739 -183.557965 
L 365.556522 -183.557965 
L 365.071304 -183.557965 
L 364.586087 -183.557965 
L 364.10087 -183.557965 
L 363.615652 -183.557965 
L 363.130435 -183.557965 
L 362.645217 -183.557965 
L 362.16 -183.557965 
L 361.674783 -183.557965 
L 361.189565 -183.557965 
L 360.704348 -183.557965 
L 360.21913 -183.557965 
L 359.733913 -183.557965 
L 359.248696 -183.557965 
L 358.763478 -183.557965 
L 358.278261 -183.557965 
L 357.793043 -183.557965 
L 357.307826 -183.557965 
L 356.822609 -183.557965 
L 356.337391 -183.557965 
L 355.852174 -183.557965 
L 355.366957 -183.557965 
L 354.881739 -183.557965 
L 354.396522 -183.557965 
L 353.911304 -183.557965 
L 353.426087 -183.557965 
L 352.94087 -183.557965 
L 352.455652 -183.557965 
L 351.970435 -183.557965 
L 351.485217 -183.557965 
L 351 -183.557965 
L 350.514783 -183.557965 
L 350.029565 -183.557965 
L 349.544348 -183.557965 
L 349.05913 -183.557965 
L 348.573913 -183.557965 
L 348.088696 -183.557965 
L 347.603478 -183.557965 
L 347.118261 -183.557965 
L 346.633043 -183.557965 
L 346.147826 -183.557965 
L 345.662609 -183.557965 
L 345.177391 -183.557965 
L 344.692174 -183.557965 
L 344.206957 -183.557965 
L 343.721739 -183.557965 
L 343.236522 -183.557965 
L 342.751304 -183.557965 
L 342.266087 -183.557965 
L 341.78087 -183.557965 
L 341.295652 -183.557965 
L 340.810435 -183.557965 
L 340.325217 -183.557965 
L 339.84 -183.557965 
L 339.354783 -183.557965 
L 338.869565 -183.557965 
L 338.384348 -183.557965 
L 337.89913 -183.557965 
L 337.413913 -183.557965 
L 336.928696 -183.557965 
L 336.443478 -183.557965 
L 335.958261 -183.557965 
L 335.473043 -183.557965 
L 334.987826 -183.557965 
L 334.502609 -183.557965 
L 334.017391 -183.557965 
L 333.532174 -183.557965 
L 333.046957 -183.557965 
L 332.561739 -183.557965 
L 332.076522 -183.557965 
L 331.591304 -183.557965 
L 331.106087 -183.557965 
L 330.62087 -183.557965 
L 330.135652 -183.557965 
L 329.650435 -183.557965 
L 329.165217 -183.557965 
L 328.68 -183.557965 
L 328.194783 -183.557965 
L 327.709565 -183.557965 
L 327.224348 -183.557965 
L 326.73913 -183.557965 
L 326.253913 -183.557965 
L 325.768696 -183.557965 
L 325.283478 -183.557965 
L 324.798261 -183.557965 
L 324.313043 -183.557965 
L 323.827826 -183.557965 
L 323.342609 -183.557965 
L 322.857391 -183.557965 
L 322.372174 -183.557965 
L 321.886957 -183.557965 
L 321.401739 -183.557965 
L 320.916522 -183.557965 
L 320.431304 -183.557965 
L 319.946087 -183.557965 
L 319.46087 -183.557965 
L 318.975652 -183.557965 
L 318.490435 -183.557965 
L 318.005217 -183.557965 
L 317.52 -183.557965 
L 317.034783 -183.557965 
L 316.549565 -183.557965 
L 316.064348 -183.557965 
L 315.57913 -183.557965 
L 315.093913 -183.557965 
L 314.608696 -183.557965 
L 314.123478 -183.557965 
L 313.638261 -183.557965 
L 313.153043 -183.557965 
L 312.667826 -183.557965 
L 312.182609 -183.557965 
L 311.697391 -183.557965 
L 311.212174 -183.557965 
L 310.726957 -183.557965 
L 310.241739 -183.557965 
L 309.756522 -183.557965 
L 309.271304 -183.557965 
L 308.786087 -183.557965 
L 308.30087 -183.557965 
L 307.815652 -183.557965 
L 307.330435 -183.557965 
L 306.845217 -183.557965 
L 306.36 -183.557965 
L 305.874783 -183.557965 
L 305.389565 -183.557965 
L 304.904348 -183.557965 
L 304.41913 -183.557965 
L 303.933913 -183.557965 
L 303.448696 -183.557965 
L 302.963478 -183.557965 
L 302.478261 -183.557965 
L 301.993043 -183.557965 
L 301.507826 -183.557965 
L 301.022609 -183.557965 
L 300.537391 -183.557965 
L 300.052174 -183.557965 
L 299.566957 -183.557965 
L 299.081739 -183.557965 
L 298.596522 -183.557965 
L 298.111304 -183.557965 
L 297.626087 -183.557965 
L 297.14087 -183.557965 
L 296.655652 -183.557965 
L 296.170435 -183.557965 
L 295.685217 -183.557965 
L 295.2 -183.557965 
L 294.714783 -183.557965 
L 294.229565 -183.557965 
L 293.744348 -183.557965 
L 293.25913 -183.557965 
L 292.773913 -183.557965 
L 292.288696 -183.557965 
L 291.803478 -183.557965 
L 291.318261 -183.557965 
L 290.833043 -183.557965 
L 290.347826 -183.557965 
L 289.862609 -183.557965 
L 289.377391 -183.557965 
L 288.892174 -183.557965 
L 288.406957 -183.557965 
L 287.921739 -183.557965 
L 287.436522 -183.557965 
L 286.951304 -183.557965 
L 286.466087 -183.557965 
L 285.98087 -183.557965 
L 285.495652 -183.557965 
L 285.010435 -183.557965 
L 284.525217 -183.557965 
L 284.04 -183.557965 
L 283.554783 -183.557965 
L 283.069565 -183.557965 
L 282.584348 -183.557965 
L 282.09913 -183.557965 
L 281.613913 -183.557965 
L 281.128696 -183.557965 
L 280.643478 -183.557965 
L 280.158261 -183.557965 
L 279.673043 -183.557965 
L 279.187826 -183.557965 
L 278.702609 -183.557965 
L 278.217391 -183.557965 
L 277.732174 -183.557965 
L 277.246957 -183.557965 
L 276.761739 -183.557965 
L 276.276522 -183.557965 
L 275.791304 -183.557965 
L 275.306087 -183.557965 
L 274.82087 -183.557965 
L 274.335652 -183.557965 
L 273.850435 -183.557965 
L 273.365217 -183.557965 
L 272.88 -183.557965 
L 272.394783 -183.557965 
L 271.909565 -183.557965 
L 271.424348 -183.557965 
L 270.93913 -183.557965 
L 270.453913 -183.557965 
L 269.968696 -183.557965 
L 269.483478 -183.557965 
L 268.998261 -183.557965 
L 268.513043 -183.557965 
L 268.027826 -183.557965 
L 267.542609 -183.557965 
L 267.057391 -183.557965 
L 266.572174 -183.557965 
L 266.086957 -183.557965 
L 265.601739 -183.557965 
L 265.116522 -183.557965 
L 264.631304 -183.557965 
L 264.146087 -183.557965 
L 263.66087 -183.557965 
L 263.175652 -183.557965 
L 262.690435 -183.557965 
L 262.205217 -183.557965 
L 261.72 -183.557965 
L 261.234783 -183.557965 
L 260.749565 -183.557965 
L 260.264348 -183.557965 
L 259.77913 -183.557965 
L 259.293913 -183.557965 
L 258.808696 -183.557965 
L 258.323478 -183.557965 
L 257.838261 -183.557965 
L 257.353043 -183.557965 
L 256.867826 -183.557965 
L 256.382609 -183.557965 
L 255.897391 -183.557965 
L 255.412174 -183.557965 
L 254.926957 -183.557965 
L 254.441739 -183.557965 
L 253.956522 -183.557965 
L 253.471304 -183.557965 
L 252.986087 -183.557965 
L 252.50087 -183.557965 
L 252.015652 -183.557965 
L 251.530435 -183.557965 
L 251.045217 -183.557965 
L 250.56 -183.557965 
L 250.074783 -183.557965 
L 249.589565 -183.557965 
L 249.104348 -183.557965 
L 248.61913 -183.557965 
L 248.133913 -183.557965 
L 247.648696 -183.557965 
L 247.163478 -183.557965 
L 246.678261 -183.557965 
L 246.193043 -183.557965 
L 245.707826 -183.557965 
L 245.222609 -183.557965 
L 244.737391 -183.557965 
L 244.252174 -183.557965 
L 243.766957 -183.557965 
L 243.281739 -183.557965 
L 242.796522 -183.557965 
L 242.311304 -183.557965 
L 241.826087 -183.557965 
L 241.34087 -183.557965 
L 240.855652 -183.557965 
L 240.370435 -183.557965 
L 239.885217 -183.557965 
L 239.4 -183.557965 
L 238.914783 -183.557965 
L 238.429565 -183.557965 
L 237.944348 -183.557965 
L 237.45913 -183.557965 
L 236.973913 -183.557965 
L 236.488696 -183.557965 
L 236.003478 -183.557965 
L 235.518261 -183.557965 
L 235.033043 -183.557965 
L 234.547826 -183.557965 
L 234.062609 -183.557965 
L 233.577391 -183.557965 
L 233.092174 -183.557965 
L 232.606957 -183.557965 
L 232.121739 -183.557965 
L 231.636522 -183.557965 
L 231.151304 -183.557965 
L 230.666087 -183.557965 
L 230.18087 -183.557965 
L 229.695652 -183.557965 
L 229.210435 -183.557965 
L 228.725217 -183.557965 
L 228.24 -183.557965 
L 227.754783 -183.557965 
L 227.269565 -183.557965 
L 226.784348 -183.557965 
L 226.29913 -183.557965 
L 225.813913 -183.557965 
L 225.328696 -183.557965 
L 224.843478 -183.557965 
L 224.358261 -183.557965 
L 223.873043 -183.557965 
L 223.387826 -183.557965 
L 222.902609 -183.557965 
L 222.417391 -183.557965 
L 221.932174 -183.557965 
L 221.446957 -183.557965 
L 220.961739 -183.557965 
L 220.476522 -183.557965 
L 219.991304 -183.557965 
L 219.506087 -183.557965 
L 219.02087 -183.557965 
L 218.535652 -183.557965 
L 218.050435 -183.557965 
L 217.565217 -183.557965 
L 217.08 -183.557965 
L 216.594783 -183.557965 
L 216.109565 -183.557965 
L 215.624348 -183.557965 
L 215.13913 -183.557965 
L 214.653913 -183.557965 
L 214.168696 -183.557965 
L 213.683478 -183.557965 
L 213.198261 -183.557965 
L 212.713043 -183.557965 
L 212.227826 -183.557965 
L 211.742609 -183.557965 
L 211.257391 -183.557965 
L 210.772174 -183.557965 
L 210.286957 -183.557965 
L 209.801739 -183.557965 
L 209.316522 -183.557965 
L 208.831304 -183.557965 
L 208.346087 -183.557965 
L 207.86087 -183.557965 
L 207.375652 -183.557965 
L 206.890435 -183.557965 
L 206.405217 -183.557965 
L 205.92 -183.557965 
L 205.434783 -183.557965 
L 204.949565 -183.557965 
L 204.464348 -183.557965 
L 203.97913 -183.557965 
L 203.493913 -183.557965 
L 203.008696 -183.557965 
L 202.523478 -183.557965 
L 202.038261 -183.557965 
L 201.553043 -183.557965 
L 201.067826 -183.557965 
L 200.582609 -183.557965 
L 200.097391 -183.557965 
L 199.612174 -183.557965 
L 199.126957 -183.557965 
L 198.641739 -183.557965 
L 198.156522 -183.557965 
L 197.671304 -183.557965 
L 197.186087 -183.557965 
L 196.70087 -183.557965 
L 196.215652 -183.557965 
L 195.730435 -183.557965 
L 195.245217 -183.557965 
L 194.76 -183.557965 
L 194.274783 -183.557965 
L 193.789565 -183.557965 
L 193.304348 -183.557965 
L 192.81913 -183.557965 
L 192.333913 -183.557965 
L 191.848696 -183.557965 
L 191.363478 -183.557965 
L 190.878261 -183.557965 
L 190.393043 -183.557965 
L 189.907826 -183.557965 
L 189.422609 -183.557965 
L 188.937391 -183.557965 
L 188.452174 -183.557965 
L 187.966957 -183.557965 
L 187.481739 -183.557965 
L 186.996522 -183.557965 
L 186.511304 -183.557965 
L 186.026087 -183.557965 
L 185.54087 -183.557965 
L 185.055652 -183.557965 
L 184.570435 -183.557965 
L 184.085217 -183.557965 
L 183.6 -183.557965 
L 183.114783 -183.557965 
L 182.629565 -183.557965 
L 182.144348 -183.557965 
L 181.65913 -183.557965 
L 181.173913 -183.557965 
L 180.688696 -183.557965 
L 180.203478 -183.557965 
L 179.718261 -183.557965 
L 179.233043 -183.557965 
L 178.747826 -183.557965 
L 178.262609 -183.557965 
L 177.777391 -183.557965 
L 177.292174 -183.557965 
L 176.806957 -183.557965 
L 176.321739 -183.557965 
L 175.836522 -183.557965 
L 175.351304 -183.557965 
L 174.866087 -183.557965 
L 174.38087 -183.557965 
L 173.895652 -183.557965 
L 173.410435 -183.557965 
L 172.925217 -183.557965 
L 172.44 -183.557965 
L 171.954783 -183.557965 
L 171.469565 -183.557965 
L 170.984348 -183.557965 
L 170.49913 -183.557965 
L 170.013913 -183.557965 
L 169.528696 -183.557965 
L 169.043478 -183.557965 
L 168.558261 -183.557965 
L 168.073043 -183.557965 
L 167.587826 -183.557965 
L 167.102609 -183.557965 
L 166.617391 -183.557965 
L 166.132174 -183.557965 
L 165.646957 -183.557965 
L 165.161739 -183.557965 
L 164.676522 -183.557965 
L 164.191304 -183.557965 
L 163.706087 -183.557965 
L 163.22087 -183.557965 
L 162.735652 -183.557965 
L 162.250435 -183.557965 
L 161.765217 -183.557965 
L 161.28 -183.557965 
L 160.794783 -183.557965 
L 160.309565 -183.557965 
L 159.824348 -183.557965 
L 159.33913 -183.557965 
L 158.853913 -183.557965 
L 158.368696 -183.557965 
L 157.883478 -183.557965 
L 157.398261 -183.557965 
L 156.913043 -183.557965 
L 156.427826 -183.557965 
L 155.942609 -183.557965 
L 155.457391 -183.557965 
L 154.972174 -183.557965 
L 154.486957 -183.557965 
L 154.001739 -183.557965 
L 153.516522 -183.557965 
L 153.031304 -183.557965 
L 152.546087 -183.557965 
L 152.06087 -183.557965 
L 151.575652 -183.557965 
L 151.090435 -183.557965 
L 150.605217 -183.557965 
L 150.12 -183.557965 
L 149.634783 -183.557965 
L 149.149565 -183.557965 
L 148.664348 -183.557965 
L 148.17913 -183.557965 
L 147.693913 -183.557965 
L 147.208696 -183.557965 
L 146.723478 -183.557965 
L 146.238261 -183.557965 
L 145.753043 -183.557965 
L 145.267826 -183.557965 
L 144.782609 -183.557965 
L 144.297391 -183.557965 
L 143.812174 -183.557965 
L 143.326957 -183.557965 
L 142.841739 -183.557965 
L 142.356522 -183.557965 
L 141.871304 -183.557965 
L 141.386087 -183.557965 
L 140.90087 -183.557965 
L 140.415652 -183.557965 
L 139.930435 -183.557965 
L 139.445217 -183.557965 
L 138.96 -183.557965 
L 138.474783 -183.557965 
L 137.989565 -183.557965 
L 137.504348 -183.557965 
L 137.01913 -183.557965 
L 136.533913 -183.557965 
L 136.048696 -183.557965 
L 135.563478 -183.557965 
L 135.078261 -183.557965 
L 134.593043 -183.557965 
L 134.107826 -183.557965 
L 133.622609 -183.557965 
L 133.137391 -183.557965 
L 132.652174 -183.557965 
L 132.166957 -183.557965 
L 131.681739 -183.557965 
L 131.196522 -183.557965 
L 130.711304 -183.557965 
L 130.226087 -183.557965 
L 129.74087 -183.557965 
L 129.255652 -183.557965 
L 128.770435 -183.557965 
L 128.285217 -183.557965 
L 127.8 -183.557965 
L 127.314783 -183.557965 
L 126.829565 -183.557965 
L 126.344348 -183.557965 
L 125.85913 -183.557965 
L 125.373913 -183.557965 
L 124.888696 -183.557965 
L 124.403478 -183.557965 
L 123.918261 -183.557965 
L 123.433043 -183.557965 
L 122.947826 -183.557965 
L 122.462609 -183.557965 
L 121.977391 -183.557965 
L 121.492174 -183.557965 
L 121.006957 -183.557965 
L 120.521739 -183.557965 
L 120.036522 -183.557965 
L 119.551304 -183.557965 
L 119.066087 -183.557965 
L 118.58087 -183.557965 
L 118.095652 -183.557965 
L 117.610435 -183.557965 
L 117.125217 -183.557965 
L 116.64 -183.557965 
L 116.154783 -183.557965 
L 115.669565 -183.557965 
L 115.184348 -183.557965 
L 114.69913 -183.557965 
L 114.213913 -183.557965 
L 113.728696 -183.557965 
L 113.243478 -183.557965 
L 112.758261 -183.557965 
L 112.273043 -183.557965 
L 111.787826 -183.557965 
L 111.302609 -183.557965 
L 110.817391 -183.557965 
L 110.332174 -183.557965 
L 109.846957 -183.557965 
L 109.361739 -183.557965 
L 108.876522 -183.557965 
L 108.391304 -183.557965 
L 107.906087 -183.557965 
L 107.42087 -183.557965 
L 106.935652 -183.557965 
L 106.450435 -183.557965 
L 105.965217 -183.557965 
L 105.48 -183.557965 
L 104.994783 -183.557965 
L 104.509565 -183.557965 
L 104.024348 -183.557965 
L 103.53913 -183.557965 
L 103.053913 -183.557965 
L 102.568696 -183.557965 
L 102.083478 -183.557965 
L 101.598261 -183.557965 
L 101.113043 -183.557965 
L 100.627826 -183.557965 
L 100.142609 -183.557965 
L 99.657391 -183.557965 
L 99.172174 -183.557965 
L 98.686957 -183.557965 
L 98.201739 -183.557965 
L 97.716522 -183.557965 
L 97.231304 -183.557965 
L 96.746087 -183.557965 
L 96.26087 -183.557965 
L 95.775652 -183.557965 
L 95.290435 -183.557965 
L 94.805217 -183.557965 
L 94.32 -183.557965 
L 93.834783 -183.557965 
L 93.349565 -183.557965 
L 92.864348 -183.557965 
L 92.37913 -183.557965 
L 91.893913 -183.557965 
L 91.408696 -183.557965 
L 90.923478 -183.557965 
L 90.438261 -183.557965 
L 89.953043 -183.557965 
L 89.467826 -183.557965 
L 88.982609 -183.557965 
L 88.497391 -183.557965 
L 88.012174 -183.557965 
L 87.526957 -183.557965 
L 87.041739 -183.557965 
L 86.556522 -183.557965 
L 86.071304 -183.557965 
L 85.586087 -183.557965 
L 85.10087 -183.557965 
L 84.615652 -183.557965 
L 84.130435 -183.557965 
L 83.645217 -183.557965 
L 83.16 -183.557965 
L 82.674783 -183.557965 
L 82.189565 -183.557965 
L 81.704348 -183.557965 
L 81.21913 -183.557965 
L 80.733913 -183.557965 
L 80.248696 -183.557965 
L 79.763478 -183.557965 
L 79.278261 -183.557965 
L 78.793043 -183.557965 
L 78.307826 -183.557965 
L 77.822609 -183.557965 
L 77.337391 -183.557965 
L 76.852174 -183.557965 
L 76.366957 -183.557965 
L 75.881739 -183.557965 
L 75.396522 -183.557965 
L 74.911304 -183.557965 
L 74.426087 -183.557965 
L 73.94087 -183.557965 
L 73.455652 -183.557965 
L 72.970435 -183.557965 
L 72.485217 -183.557965 
L 72 -183.557965 
z
" id="m5c419b527d"/>
    </defs>
    <g clip-path="url(#p047caa6999)">
     <use style="fill-opacity:0.15;" x="0" xlink:href="#m5c419b527d" y="360"/>
    </g>
   </g>
   <g id="matplotlib.axis_1">
    <g id="xtick_1">
     <g id="line2d_1">
      <defs>
       <path d="M 0 0 
L 0 3.5 
" id="m0b79e121b7" style="stroke:#000000;stroke-width:0.8;"/>
      </defs>
      <g>
       <use style="stroke:#000000;stroke-width:0.8;" x="72" xlink:href="#m0b79e121b7" y="320.4"/>
      </g>
     </g>
     <g id="text_1">
      <!-- 0.0 -->
      <g transform="translate(60.867812 338.037813)scale(0.14 -0.14)">
       <defs>
        <path d="M 2034 4250 
Q 1547 4250 1301 3770 
Q 1056 3291 1056 2328 
Q 1056 1369 1301 889 
Q 1547 409 2034 409 
Q 2525 409 2770 889 
Q 3016 1369 3016 2328 
Q 3016 3291 2770 3770 
Q 2525 4250 2034 4250 
z
M 2034 4750 
Q 2819 4750 3233 4129 
Q 3647 3509 3647 2328 
Q 3647 1150 3233 529 
Q 2819 -91 2034 -91 
Q 1250 -91 836 529 
Q 422 1150 422 2328 
Q 422 3509 836 4129 
Q 1250 4750 2034 4750 
z
" id="DejaVuSans-30" transform="scale(0.015625)"/>
        <path d="M 684 794 
L 1344 794 
L 1344 0 
L 684 0 
L 684 794 
z
" id="DejaVuSans-2e" transform="scale(0.015625)"/>
       </defs>
       <use xlink:href="#DejaVuSans-30"/>
       <use x="63.623047" xlink:href="#DejaVuSans-2e"/>
       <use x="95.410156" xlink:href="#DejaVuSans-30"/>
      </g>
     </g>
    </g>
    <g id="xtick_2">
     <g id="line2d_2">
      <g>
       <use style="stroke:#000000;stroke-width:0.8;" x="127.827914" xlink:href="#m0b79e121b7" y="320.4"/>
      </g>
     </g>
     <g id="text_2">
      <!-- 2.5 -->
      <g transform="translate(116.695726 338.037813)scale(0.14 -0.14)">
       <defs>
        <path d="M 1228 531 
L 3431 531 
L 3431 0 
L 469 0 
L 469 531 
Q 828 903 1448 1529 
Q 2069 2156 2228 2338 
Q 2531 2678 2651 2914 
Q 2772 3150 2772 3378 
Q 2772 3750 2511 3984 
Q 2250 4219 1831 4219 
Q 1534 4219 1204 4116 
Q 875 4013 500 3803 
L 500 4441 
Q 881 4594 1212 4672 
Q 1544 4750 1819 4750 
Q 2544 4750 2975 4387 
Q 3406 4025 3406 3419 
Q 3406 3131 3298 2873 
Q 3191 2616 2906 2266 
Q 2828 2175 2409 1742 
Q 1991 1309 1228 531 
z
" id="DejaVuSans-32" transform="scale(0.015625)"/>
        <path d="M 691 4666 
L 3169 4666 
L 3169 4134 
L 1269 4134 
L 1269 2991 
Q 1406 3038 1543 3061 
Q 1681 3084 1819 3084 
Q 2600 3084 3056 2656 
Q 3513 2228 3513 1497 
Q 3513 744 3044 326 
Q 2575 -91 1722 -91 
Q 1428 -91 1123 -41 
Q 819 9 494 109 
L 494 744 
Q 775 591 1075 516 
Q 1375 441 1709 441 
Q 2250 441 2565 725 
Q 2881 1009 2881 1497 
Q 2881 1984 2565 2268 
Q 2250 2553 1709 2553 
Q 1456 2553 1204 2497 
Q 953 2441 691 2322 
L 691 4666 
z
" id="DejaVuSans-35" transform="scale(0.015625)"/>
       </defs>
       <use xlink:href="#DejaVuSans-32"/>
       <use x="63.623047" xlink:href="#DejaVuSans-2e"/>
       <use x="95.410156" xlink:href="#DejaVuSans-35"/>
      </g>
     </g>
    </g>
    <g id="xtick_3">
     <g id="line2d_3">
      <g>
       <use style="stroke:#000000;stroke-width:0.8;" x="183.655828" xlink:href="#m0b79e121b7" y="320.4"/>
      </g>
     </g>
     <g id="text_3">
      <!-- 5.0 -->
      <g transform="translate(172.52364 338.037813)scale(0.14 -0.14)">
       <use xlink:href="#DejaVuSans-35"/>
       <use x="63.623047" xlink:href="#DejaVuSans-2e"/>
       <use x="95.410156" xlink:href="#DejaVuSans-30"/>
      </g>
     </g>
    </g>
    <g id="xtick_4">
     <g id="line2d_4">
      <g>
       <use style="stroke:#000000;stroke-width:0.8;" x="239.483742" xlink:href="#m0b79e121b7" y="320.4"/>
      </g>
     </g>
     <g id="text_4">
      <!-- 7.5 -->
      <g transform="translate(228.351554 338.037813)scale(0.14 -0.14)">
       <defs>
        <path d="M 525 4666 
L 3525 4666 
L 3525 4397 
L 1831 0 
L 1172 0 
L 2766 4134 
L 525 4134 
L 525 4666 
z
" id="DejaVuSans-37" transform="scale(0.015625)"/>
       </defs>
       <use xlink:href="#DejaVuSans-37"/>
       <use x="63.623047" xlink:href="#DejaVuSans-2e"/>
       <use x="95.410156" xlink:href="#DejaVuSans-35"/>
      </g>
     </g>
    </g>
    <g id="xtick_5">
     <g id="line2d_5">
      <g>
       <use style="stroke:#000000;stroke-width:0.8;" x="295.311656" xlink:href="#m0b79e121b7" y="320.4"/>
      </g>
     </g>
     <g id="text_5">
      <!-- 10.0 -->
      <g transform="translate(279.725718 338.037813)scale(0.14 -0.14)">
       <defs>
        <path d="M 794 531 
L 1825 531 
L 1825 4091 
L 703 3866 
L 703 4441 
L 1819 4666 
L 2450 4666 
L 2450 531 
L 3481 531 
L 3481 0 
L 794 0 
L 794 531 
z
" id="DejaVuSans-31" transform="scale(0.015625)"/>
       </defs>
       <use xlink:href="#DejaVuSans-31"/>
       <use x="63.623047" xlink:href="#DejaVuSans-30"/>
       <use x="127.246094" xlink:href="#DejaVuSans-2e"/>
       <use x="159.033203" xlink:href="#DejaVuSans-30"/>
      </g>
     </g>
    </g>
    <g id="xtick_6">
     <g id="line2d_6">
      <g>
       <use style="stroke:#000000;stroke-width:0.8;" x="351.13957" xlink:href="#m0b79e121b7" y="320.4"/>
      </g>
     </g>
     <g id="text_6">
      <!-- 12.5 -->
      <g transform="translate(335.553632 338.037813)scale(0.14 -0.14)">
       <use xlink:href="#DejaVuSans-31"/>
       <use x="63.623047" xlink:href="#DejaVuSans-32"/>
       <use x="127.246094" xlink:href="#DejaVuSans-2e"/>
       <use x="159.033203" xlink:href="#DejaVuSans-35"/>
      </g>
     </g>
    </g>
    <g id="xtick_7">
     <g id="line2d_7">
      <g>
       <use style="stroke:#000000;stroke-width:0.8;" x="406.967484" xlink:href="#m0b79e121b7" y="320.4"/>
      </g>
     </g>
     <g id="text_7">
      <!-- 15.0 -->
      <g transform="translate(391.381546 338.037813)scale(0.14 -0.14)">
       <use xlink:href="#DejaVuSans-31"/>
       <use x="63.623047" xlink:href="#DejaVuSans-35"/>
       <use x="127.246094" xlink:href="#DejaVuSans-2e"/>
       <use x="159.033203" xlink:href="#DejaVuSans-30"/>
      </g>
     </g>
    </g>
    <g id="xtick_8">
     <g id="line2d_8">
      <g>
       <use style="stroke:#000000;stroke-width:0.8;" x="462.795398" xlink:href="#m0b79e121b7" y="320.4"/>
      </g>
     </g>
     <g id="text_8">
      <!-- 17.5 -->
      <g transform="translate(447.20946 338.037813)scale(0.14 -0.14)">
       <use xlink:href="#DejaVuSans-31"/>
       <use x="63.623047" xlink:href="#DejaVuSans-37"/>
       <use x="127.246094" xlink:href="#DejaVuSans-2e"/>
       <use x="159.033203" xlink:href="#DejaVuSans-35"/>
      </g>
     </g>
    </g>
    <g id="text_9">
     <!-- Time [Seconds] -->
     <g transform="translate(233.23 357.106875)scale(0.16 -0.16)">
      <defs>
       <path d="M -19 4666 
L 3928 4666 
L 3928 4134 
L 2272 4134 
L 2272 0 
L 1638 0 
L 1638 4134 
L -19 4134 
L -19 4666 
z
" id="DejaVuSans-54" transform="scale(0.015625)"/>
       <path d="M 603 3500 
L 1178 3500 
L 1178 0 
L 603 0 
L 603 3500 
z
M 603 4863 
L 1178 4863 
L 1178 4134 
L 603 4134 
L 603 4863 
z
" id="DejaVuSans-69" transform="scale(0.015625)"/>
       <path d="M 3328 2828 
Q 3544 3216 3844 3400 
Q 4144 3584 4550 3584 
Q 5097 3584 5394 3201 
Q 5691 2819 5691 2113 
L 5691 0 
L 5113 0 
L 5113 2094 
Q 5113 2597 4934 2840 
Q 4756 3084 4391 3084 
Q 3944 3084 3684 2787 
Q 3425 2491 3425 1978 
L 3425 0 
L 2847 0 
L 2847 2094 
Q 2847 2600 2669 2842 
Q 2491 3084 2119 3084 
Q 1678 3084 1418 2786 
Q 1159 2488 1159 1978 
L 1159 0 
L 581 0 
L 581 3500 
L 1159 3500 
L 1159 2956 
Q 1356 3278 1631 3431 
Q 1906 3584 2284 3584 
Q 2666 3584 2933 3390 
Q 3200 3197 3328 2828 
z
" id="DejaVuSans-6d" transform="scale(0.015625)"/>
       <path d="M 3597 1894 
L 3597 1613 
L 953 1613 
Q 991 1019 1311 708 
Q 1631 397 2203 397 
Q 2534 397 2845 478 
Q 3156 559 3463 722 
L 3463 178 
Q 3153 47 2828 -22 
Q 2503 -91 2169 -91 
Q 1331 -91 842 396 
Q 353 884 353 1716 
Q 353 2575 817 3079 
Q 1281 3584 2069 3584 
Q 2775 3584 3186 3129 
Q 3597 2675 3597 1894 
z
M 3022 2063 
Q 3016 2534 2758 2815 
Q 2500 3097 2075 3097 
Q 1594 3097 1305 2825 
Q 1016 2553 972 2059 
L 3022 2063 
z
" id="DejaVuSans-65" transform="scale(0.015625)"/>
       <path id="DejaVuSans-20" transform="scale(0.015625)"/>
       <path d="M 550 4863 
L 1875 4863 
L 1875 4416 
L 1125 4416 
L 1125 -397 
L 1875 -397 
L 1875 -844 
L 550 -844 
L 550 4863 
z
" id="DejaVuSans-5b" transform="scale(0.015625)"/>
       <path d="M 3425 4513 
L 3425 3897 
Q 3066 4069 2747 4153 
Q 2428 4238 2131 4238 
Q 1616 4238 1336 4038 
Q 1056 3838 1056 3469 
Q 1056 3159 1242 3001 
Q 1428 2844 1947 2747 
L 2328 2669 
Q 3034 2534 3370 2195 
Q 3706 1856 3706 1288 
Q 3706 609 3251 259 
Q 2797 -91 1919 -91 
Q 1588 -91 1214 -16 
Q 841 59 441 206 
L 441 856 
Q 825 641 1194 531 
Q 1563 422 1919 422 
Q 2459 422 2753 634 
Q 3047 847 3047 1241 
Q 3047 1584 2836 1778 
Q 2625 1972 2144 2069 
L 1759 2144 
Q 1053 2284 737 2584 
Q 422 2884 422 3419 
Q 422 4038 858 4394 
Q 1294 4750 2059 4750 
Q 2388 4750 2728 4690 
Q 3069 4631 3425 4513 
z
" id="DejaVuSans-53" transform="scale(0.015625)"/>
       <path d="M 3122 3366 
L 3122 2828 
Q 2878 2963 2633 3030 
Q 2388 3097 2138 3097 
Q 1578 3097 1268 2742 
Q 959 2388 959 1747 
Q 959 1106 1268 751 
Q 1578 397 2138 397 
Q 2388 397 2633 464 
Q 2878 531 3122 666 
L 3122 134 
Q 2881 22 2623 -34 
Q 2366 -91 2075 -91 
Q 1284 -91 818 406 
Q 353 903 353 1747 
Q 353 2603 823 3093 
Q 1294 3584 2113 3584 
Q 2378 3584 2631 3529 
Q 2884 3475 3122 3366 
z
" id="DejaVuSans-63" transform="scale(0.015625)"/>
       <path d="M 1959 3097 
Q 1497 3097 1228 2736 
Q 959 2375 959 1747 
Q 959 1119 1226 758 
Q 1494 397 1959 397 
Q 2419 397 2687 759 
Q 2956 1122 2956 1747 
Q 2956 2369 2687 2733 
Q 2419 3097 1959 3097 
z
M 1959 3584 
Q 2709 3584 3137 3096 
Q 3566 2609 3566 1747 
Q 3566 888 3137 398 
Q 2709 -91 1959 -91 
Q 1206 -91 779 398 
Q 353 888 353 1747 
Q 353 2609 779 3096 
Q 1206 3584 1959 3584 
z
" id="DejaVuSans-6f" transform="scale(0.015625)"/>
       <path d="M 3513 2113 
L 3513 0 
L 2938 0 
L 2938 2094 
Q 2938 2591 2744 2837 
Q 2550 3084 2163 3084 
Q 1697 3084 1428 2787 
Q 1159 2491 1159 1978 
L 1159 0 
L 581 0 
L 581 3500 
L 1159 3500 
L 1159 2956 
Q 1366 3272 1645 3428 
Q 1925 3584 2291 3584 
Q 2894 3584 3203 3211 
Q 3513 2838 3513 2113 
z
" id="DejaVuSans-6e" transform="scale(0.015625)"/>
       <path d="M 2906 2969 
L 2906 4863 
L 3481 4863 
L 3481 0 
L 2906 0 
L 2906 525 
Q 2725 213 2448 61 
Q 2172 -91 1784 -91 
Q 1150 -91 751 415 
Q 353 922 353 1747 
Q 353 2572 751 3078 
Q 1150 3584 1784 3584 
Q 2172 3584 2448 3432 
Q 2725 3281 2906 2969 
z
M 947 1747 
Q 947 1113 1208 752 
Q 1469 391 1925 391 
Q 2381 391 2643 752 
Q 2906 1113 2906 1747 
Q 2906 2381 2643 2742 
Q 2381 3103 1925 3103 
Q 1469 3103 1208 2742 
Q 947 2381 947 1747 
z
" id="DejaVuSans-64" transform="scale(0.015625)"/>
       <path d="M 2834 3397 
L 2834 2853 
Q 2591 2978 2328 3040 
Q 2066 3103 1784 3103 
Q 1356 3103 1142 2972 
Q 928 2841 928 2578 
Q 928 2378 1081 2264 
Q 1234 2150 1697 2047 
L 1894 2003 
Q 2506 1872 2764 1633 
Q 3022 1394 3022 966 
Q 3022 478 2636 193 
Q 2250 -91 1575 -91 
Q 1294 -91 989 -36 
Q 684 19 347 128 
L 347 722 
Q 666 556 975 473 
Q 1284 391 1588 391 
Q 1994 391 2212 530 
Q 2431 669 2431 922 
Q 2431 1156 2273 1281 
Q 2116 1406 1581 1522 
L 1381 1569 
Q 847 1681 609 1914 
Q 372 2147 372 2553 
Q 372 3047 722 3315 
Q 1072 3584 1716 3584 
Q 2034 3584 2315 3537 
Q 2597 3491 2834 3397 
z
" id="DejaVuSans-73" transform="scale(0.015625)"/>
       <path d="M 1947 4863 
L 1947 -844 
L 622 -844 
L 622 -397 
L 1369 -397 
L 1369 4416 
L 622 4416 
L 622 4863 
L 1947 4863 
z
" id="DejaVuSans-5d" transform="scale(0.015625)"/>
      </defs>
      <use xlink:href="#DejaVuSans-54"/>
      <use x="57.958984" xlink:href="#DejaVuSans-69"/>
      <use x="85.742188" xlink:href="#DejaVuSans-6d"/>
      <use x="183.154297" xlink:href="#DejaVuSans-65"/>
      <use x="244.677734" xlink:href="#DejaVuSans-20"/>
      <use x="276.464844" xlink:href="#DejaVuSans-5b"/>
      <use x="315.478516" xlink:href="#DejaVuSans-53"/>
      <use x="378.955078" xlink:href="#DejaVuSans-65"/>
      <use x="440.478516" xlink:href="#DejaVuSans-63"/>
      <use x="495.458984" xlink:href="#DejaVuSans-6f"/>
      <use x="556.640625" xlink:href="#DejaVuSans-6e"/>
      <use x="620.019531" xlink:href="#DejaVuSans-64"/>
      <use x="683.496094" xlink:href="#DejaVuSans-73"/>
      <use x="735.595703" xlink:href="#DejaVuSans-5d"/>
     </g>
    </g>
   </g>
   <g id="matplotlib.axis_2">
    <g id="ytick_1">
     <g id="line2d_9">
      <defs>
       <path d="M 0 0 
L -3.5 0 
" id="ma4509f225b" style="stroke:#000000;stroke-width:0.8;"/>
      </defs>
      <g>
       <use style="stroke:#000000;stroke-width:0.8;" x="72" xlink:href="#ma4509f225b" y="278.593804"/>
      </g>
     </g>
     <g id="text_10">
      <!-- 0.0 -->
      <g transform="translate(42.735625 283.91271)scale(0.14 -0.14)">
       <use xlink:href="#DejaVuSans-30"/>
       <use x="63.623047" xlink:href="#DejaVuSans-2e"/>
       <use x="95.410156" xlink:href="#DejaVuSans-30"/>
      </g>
     </g>
    </g>
    <g id="ytick_2">
     <g id="line2d_10">
      <g>
       <use style="stroke:#000000;stroke-width:0.8;" x="72" xlink:href="#ma4509f225b" y="229.36826"/>
      </g>
     </g>
     <g id="text_11">
      <!-- 0.5 -->
      <g transform="translate(42.735625 234.687166)scale(0.14 -0.14)">
       <use xlink:href="#DejaVuSans-30"/>
       <use x="63.623047" xlink:href="#DejaVuSans-2e"/>
       <use x="95.410156" xlink:href="#DejaVuSans-35"/>
      </g>
     </g>
    </g>
    <g id="ytick_3">
     <g id="line2d_11">
      <g>
       <use style="stroke:#000000;stroke-width:0.8;" x="72" xlink:href="#ma4509f225b" y="180.142716"/>
      </g>
     </g>
     <g id="text_12">
      <!-- 1.0 -->
      <g transform="translate(42.735625 185.461622)scale(0.14 -0.14)">
       <use xlink:href="#DejaVuSans-31"/>
       <use x="63.623047" xlink:href="#DejaVuSans-2e"/>
       <use x="95.410156" xlink:href="#DejaVuSans-30"/>
      </g>
     </g>
    </g>
    <g id="ytick_4">
     <g id="line2d_12">
      <g>
       <use style="stroke:#000000;stroke-width:0.8;" x="72" xlink:href="#ma4509f225b" y="130.917172"/>
      </g>
     </g>
     <g id="text_13">
      <!-- 1.5 -->
      <g transform="translate(42.735625 136.236078)scale(0.14 -0.14)">
       <use xlink:href="#DejaVuSans-31"/>
       <use x="63.623047" xlink:href="#DejaVuSans-2e"/>
       <use x="95.410156" xlink:href="#DejaVuSans-35"/>
      </g>
     </g>
    </g>
    <g id="ytick_5">
     <g id="line2d_13">
      <g>
       <use style="stroke:#000000;stroke-width:0.8;" x="72" xlink:href="#ma4509f225b" y="81.691627"/>
      </g>
     </g>
     <g id="text_14">
      <!-- 2.0 -->
      <g transform="translate(42.735625 87.010534)scale(0.14 -0.14)">
       <use xlink:href="#DejaVuSans-32"/>
       <use x="63.623047" xlink:href="#DejaVuSans-2e"/>
       <use x="95.410156" xlink:href="#DejaVuSans-30"/>
      </g>
     </g>
    </g>
    <g id="text_15">
     <!-- Speed [mm/s] -->
     <g transform="translate(35.408125 238.11375)rotate(-90)scale(0.16 -0.16)">
      <defs>
       <path d="M 1159 525 
L 1159 -1331 
L 581 -1331 
L 581 3500 
L 1159 3500 
L 1159 2969 
Q 1341 3281 1617 3432 
Q 1894 3584 2278 3584 
Q 2916 3584 3314 3078 
Q 3713 2572 3713 1747 
Q 3713 922 3314 415 
Q 2916 -91 2278 -91 
Q 1894 -91 1617 61 
Q 1341 213 1159 525 
z
M 3116 1747 
Q 3116 2381 2855 2742 
Q 2594 3103 2138 3103 
Q 1681 3103 1420 2742 
Q 1159 2381 1159 1747 
Q 1159 1113 1420 752 
Q 1681 391 2138 391 
Q 2594 391 2855 752 
Q 3116 1113 3116 1747 
z
" id="DejaVuSans-70" transform="scale(0.015625)"/>
       <path d="M 1625 4666 
L 2156 4666 
L 531 -594 
L 0 -594 
L 1625 4666 
z
" id="DejaVuSans-2f" transform="scale(0.015625)"/>
      </defs>
      <use xlink:href="#DejaVuSans-53"/>
      <use x="63.476562" xlink:href="#DejaVuSans-70"/>
      <use x="126.953125" xlink:href="#DejaVuSans-65"/>
      <use x="188.476562" xlink:href="#DejaVuSans-65"/>
      <use x="250" xlink:href="#DejaVuSans-64"/>
      <use x="313.476562" xlink:href="#DejaVuSans-20"/>
      <use x="345.263672" xlink:href="#DejaVuSans-5b"/>
      <use x="384.277344" xlink:href="#DejaVuSans-6d"/>
      <use x="481.689453" xlink:href="#DejaVuSans-6d"/>
      <use x="579.101562" xlink:href="#DejaVuSans-2f"/>
      <use x="612.792969" xlink:href="#DejaVuSans-73"/>
      <use x="664.892578" xlink:href="#DejaVuSans-5d"/>
     </g>
    </g>
   </g>
   <g id="line2d_14">
    <path clip-path="url(#p047caa6999)" d="M 72 174.716852 
L 518.4 174.716852 
" style="fill:none;stroke:#000000;stroke-dasharray:5.55,2.4;stroke-dashoffset:0;stroke-width:1.5;"/>
   </g>
   <g id="line2d_15">
    <path clip-path="url(#p047caa6999)" d="M 72 277.421767 
L 116.154783 277.394285 
L 116.64 277.537187 
L 117.125217 276.93243 
L 117.610435 276.04576 
L 118.095652 276.034267 
L 118.58087 276.348399 
L 119.066087 276.460025 
L 119.551304 276.701068 
L 120.036522 276.815101 
L 121.006957 276.857034 
L 121.492174 284.848737 
L 121.977391 262.780048 
L 122.462609 253.851562 
L 122.947826 279.738213 
L 123.918261 298.318793 
L 124.403478 305.146019 
L 124.888696 307.8 
L 125.373913 305.930243 
L 125.85913 300.179446 
L 126.344348 291.113837 
L 127.314783 264.148318 
L 127.8 247.875004 
L 128.770435 207.180718 
L 131.681739 97.471436 
L 132.652174 72.978408 
L 133.137391 65.040652 
L 133.622609 59.766193 
L 134.107826 56.613974 
L 134.593043 55.8 
L 135.078261 57.737918 
L 135.563478 61.575446 
L 136.533913 76.708882 
L 137.01913 87.128557 
L 139.930435 163.498761 
L 140.415652 173.667541 
L 140.90087 181.457746 
L 141.386087 186.01803 
L 141.871304 186.758368 
L 142.356522 184.121181 
L 142.841739 177.931661 
L 143.326957 167.590591 
L 143.812174 139.130116 
L 144.297391 146.360839 
L 144.782609 167.321136 
L 145.267826 160.576564 
L 145.753043 163.425429 
L 146.238261 165.245742 
L 147.208696 167.346737 
L 147.693913 168.518236 
L 148.17913 169.287687 
L 148.664348 169.84623 
L 149.149565 171.286018 
L 149.634783 171.387941 
L 150.12 169.301723 
L 150.605217 171.559301 
L 151.090435 172.401473 
L 151.575652 170.741559 
L 152.06087 171.465199 
L 152.546087 171.334781 
L 153.031304 170.795369 
L 153.516522 171.599943 
L 154.001739 171.707717 
L 154.486957 172.0979 
L 154.972174 173.336055 
L 155.457391 173.993162 
L 155.942609 174.236811 
L 156.913043 174.120763 
L 157.398261 173.680273 
L 157.883478 173.80969 
L 158.368696 173.413324 
L 159.33913 174.53513 
L 159.824348 173.539451 
L 160.309565 173.283688 
L 160.794783 173.902902 
L 161.765217 173.289926 
L 162.735652 173.740884 
L 163.22087 173.445508 
L 163.706087 173.552309 
L 164.191304 173.859203 
L 164.676522 173.931818 
L 165.646957 173.63144 
L 166.132174 174.22842 
L 167.102609 175.074925 
L 167.587826 174.901644 
L 168.073043 174.430397 
L 169.528696 174.908367 
L 170.013913 174.692485 
L 170.49913 174.726118 
L 170.984348 175.10765 
L 171.954783 174.74578 
L 172.44 174.928806 
L 172.925217 174.913523 
L 173.410435 174.764072 
L 174.38087 174.8638 
L 174.866087 174.590376 
L 175.836522 174.456268 
L 176.321739 174.72955 
L 176.806957 174.603476 
L 177.292174 174.608688 
L 177.777391 174.791547 
L 178.262609 174.551873 
L 179.233043 174.676377 
L 180.203478 175.281175 
L 181.65913 175.121705 
L 182.144348 175.460556 
L 182.629565 175.488041 
L 183.114783 174.943234 
L 183.6 174.901104 
L 184.570435 175.251503 
L 185.54087 174.909837 
L 186.026087 175.113365 
L 186.996522 175.171894 
L 187.481739 175.132996 
L 187.966957 174.876149 
L 188.452174 174.746384 
L 188.937391 175.026195 
L 189.907826 174.596443 
L 190.393043 174.577484 
L 191.363478 175.034031 
L 191.848696 174.671562 
L 192.333913 174.607171 
L 192.81913 174.698453 
L 193.304348 174.47684 
L 193.789565 174.558316 
L 194.274783 174.458404 
L 195.245217 174.837327 
L 196.215652 174.681815 
L 196.70087 174.483738 
L 197.671304 174.79155 
L 198.156522 174.982792 
L 199.126957 175.070472 
L 199.612174 175.193595 
L 200.582609 174.898057 
L 201.553043 175.540646 
L 202.523478 175.048327 
L 203.493913 175.431564 
L 203.97913 175.268272 
L 204.949565 174.637954 
L 205.434783 175.006389 
L 205.92 175.223585 
L 206.890435 174.560836 
L 207.375652 174.515185 
L 207.86087 174.913374 
L 208.831304 174.76859 
L 209.316522 174.926635 
L 209.801739 174.771652 
L 210.286957 174.735114 
L 211.257391 174.865558 
L 211.742609 174.753979 
L 212.227826 174.759746 
L 212.713043 175.133843 
L 213.198261 175.229682 
L 213.683478 174.879893 
L 214.168696 174.773696 
L 214.653913 174.969223 
L 215.13913 174.871275 
L 216.109565 175.11833 
L 216.594783 174.928041 
L 217.08 174.588734 
L 218.050435 174.599308 
L 218.535652 174.480063 
L 219.506087 174.82073 
L 219.991304 174.756257 
L 220.476522 174.931518 
L 221.446957 174.826534 
L 221.932174 174.514494 
L 222.417391 174.48049 
L 222.902609 175.04287 
L 223.387826 175.184792 
L 223.873043 174.865794 
L 224.358261 174.680632 
L 224.843478 175.269358 
L 225.328696 175.33644 
L 225.813913 175.017205 
L 226.29913 175.053193 
L 227.269565 175.463432 
L 228.24 174.921878 
L 229.210435 174.971065 
L 229.695652 174.767122 
L 230.666087 174.746792 
L 231.151304 174.936813 
L 232.121739 174.870823 
L 233.092174 175.272881 
L 233.577391 174.970506 
L 234.062609 175.071718 
L 234.547826 175.343175 
L 235.033043 175.11991 
L 235.518261 174.719639 
L 236.003478 174.644693 
L 236.488696 175.135921 
L 236.973913 175.216359 
L 238.429565 174.598667 
L 238.914783 174.652904 
L 239.4 175.075099 
L 239.885217 175.068 
L 240.370435 174.856532 
L 240.855652 174.994707 
L 241.826087 174.796891 
L 242.311304 175.047977 
L 243.281739 174.936874 
L 243.766957 174.922782 
L 244.252174 175.144141 
L 244.737391 175.098339 
L 246.193043 174.594439 
L 246.678261 175.032771 
L 247.163478 174.837529 
L 247.648696 174.836111 
L 248.133913 175.054779 
L 250.56 174.853866 
L 251.530435 174.686987 
L 252.50087 174.873727 
L 252.986087 174.704195 
L 253.471304 174.689229 
L 254.441739 174.895179 
L 255.412174 174.794813 
L 255.897391 175.239356 
L 256.382609 175.42836 
L 256.867826 175.102895 
L 257.353043 174.959631 
L 258.323478 175.401522 
L 259.77913 174.79509 
L 260.264348 175.076231 
L 261.234783 175.060031 
L 262.205217 174.545137 
L 263.175652 174.552867 
L 264.146087 175.015374 
L 264.631304 174.773764 
L 265.601739 175.001631 
L 266.572174 174.727219 
L 267.057391 175.009957 
L 267.542609 175.152176 
L 268.027826 174.987443 
L 268.513043 175.02938 
L 268.998261 174.835594 
L 269.483478 174.859983 
L 270.453913 174.7601 
L 270.93913 174.98957 
L 271.424348 174.593235 
L 271.909565 174.530144 
L 272.394783 174.704216 
L 273.365217 175.287761 
L 274.335652 174.788006 
L 275.306087 174.795903 
L 276.276522 174.946273 
L 276.761739 174.809678 
L 277.246957 174.841432 
L 278.217391 175.144756 
L 279.187826 175.022237 
L 279.673043 175.192586 
L 280.158261 175.02306 
L 280.643478 175.014884 
L 281.128696 175.22448 
L 281.613913 175.114423 
L 282.09913 175.159022 
L 283.069565 174.765323 
L 283.554783 174.922304 
L 284.525217 174.886352 
L 285.495652 175.256773 
L 286.466087 174.806978 
L 287.436522 175.091547 
L 288.406957 175.022258 
L 288.892174 175.31181 
L 289.377391 175.374452 
L 289.862609 174.874729 
L 290.347826 174.661861 
L 290.833043 174.791659 
L 291.803478 174.688615 
L 292.288696 174.93236 
L 292.773913 174.805908 
L 293.25913 174.288817 
L 293.744348 174.519835 
L 294.229565 174.882052 
L 294.714783 174.766625 
L 295.2 174.384079 
L 295.685217 174.171025 
L 296.655652 174.850436 
L 297.14087 174.791436 
L 297.626087 174.856933 
L 298.596522 174.572307 
L 299.566957 175.040693 
L 300.537391 174.851987 
L 301.507826 175.178234 
L 302.478261 175.388611 
L 303.933913 174.917299 
L 304.41913 175.106624 
L 304.904348 175.160646 
L 306.36 174.911036 
L 306.845217 175.049986 
L 307.330435 174.92008 
L 307.815652 174.987143 
L 308.30087 175.249169 
L 308.786087 175.357637 
L 310.241739 175.192286 
L 310.726957 175.169169 
L 311.212174 174.897251 
L 311.697391 174.435669 
L 312.182609 174.657931 
L 312.667826 175.03026 
L 313.638261 174.614518 
L 314.123478 174.861677 
L 314.608696 174.87846 
L 315.093913 174.639469 
L 316.549565 174.92889 
L 317.034783 174.701341 
L 317.52 175.022111 
L 318.005217 175.172373 
L 318.490435 174.825143 
L 319.46087 174.51822 
L 319.946087 174.676161 
L 321.886957 174.566792 
L 322.372174 174.905963 
L 323.827826 175.245761 
L 324.313043 174.834806 
L 324.798261 174.817876 
L 325.283478 174.978169 
L 326.253913 174.951067 
L 327.224348 174.4825 
L 328.194783 174.836407 
L 328.68 174.728131 
L 329.165217 174.756686 
L 330.135652 175.042206 
L 331.106087 175.004045 
L 331.591304 175.368272 
L 332.076522 175.532401 
L 332.561739 175.287099 
L 333.532174 175.105682 
L 334.502609 175.474507 
L 335.473043 174.691143 
L 335.958261 175.068847 
L 336.443478 174.924182 
L 336.928696 174.469601 
L 337.413913 174.891039 
L 337.89913 175.124166 
L 339.354783 174.861782 
L 339.84 174.980004 
L 340.810435 174.629694 
L 341.78087 174.581574 
L 342.266087 174.171025 
L 342.751304 174.064636 
L 343.236522 174.407236 
L 344.692174 174.558179 
L 345.177391 175.072376 
L 345.662609 175.060714 
L 346.147826 174.824709 
L 347.118261 175.086756 
L 349.544348 175.283755 
L 350.514783 174.69651 
L 351.485217 174.568249 
L 352.455652 174.959469 
L 352.94087 174.82975 
L 353.911304 174.964161 
L 354.396522 174.802679 
L 354.881739 174.882019 
L 355.852174 175.325558 
L 356.822609 174.969469 
L 357.793043 175.135762 
L 358.278261 174.73805 
L 358.763478 174.631324 
L 359.248696 175.044378 
L 359.733913 174.960017 
L 360.21913 174.696059 
L 361.674783 175.375923 
L 362.645217 175.110006 
L 363.615652 175.070074 
L 365.071304 174.839405 
L 365.556522 174.589672 
L 366.526957 174.478175 
L 367.012174 174.714916 
L 367.497391 174.453145 
L 367.982609 174.368811 
L 368.467826 174.670154 
L 368.953043 174.639379 
L 369.438261 174.876967 
L 371.37913 175.082553 
L 371.864348 175.010043 
L 372.349565 175.118221 
L 374.290435 174.926913 
L 374.775652 174.663811 
L 375.26087 174.872104 
L 376.231304 174.822331 
L 377.201739 175.493941 
L 378.172174 175.178099 
L 379.142609 175.28121 
L 381.083478 174.886233 
L 382.053913 174.393019 
L 383.509565 174.515979 
L 383.994783 174.136003 
L 384.48 174.21852 
L 384.965217 174.703965 
L 385.450435 174.884121 
L 387.391304 174.957568 
L 388.846957 175.11459 
L 389.332174 174.771192 
L 390.302609 174.810875 
L 390.787826 174.590703 
L 391.758261 174.822585 
L 392.728696 175.484717 
L 396.125217 174.862872 
L 396.610435 174.904093 
L 397.095652 174.805979 
L 397.58087 174.409751 
L 398.066087 174.393512 
L 399.036522 174.812462 
L 399.521739 174.824532 
L 400.006957 174.392518 
L 400.492174 174.533766 
L 400.977391 174.966541 
L 401.947826 175.069889 
L 402.918261 175.102504 
L 404.85913 175.163557 
L 405.829565 174.367603 
L 406.8 174.810085 
L 407.285217 174.742504 
L 407.770435 174.832033 
L 408.255652 174.795627 
L 409.226087 175.071288 
L 412.137391 174.99976 
L 412.622609 174.786823 
L 413.593043 174.731081 
L 414.078261 174.844429 
L 415.048696 174.639969 
L 416.504348 175.310048 
L 417.96 175.148045 
L 418.930435 175.138701 
L 419.415652 175.085281 
L 419.90087 175.268337 
L 420.871304 174.719622 
L 421.356522 174.87778 
L 421.841739 174.541526 
L 422.812174 174.906272 
L 423.297391 174.399981 
L 423.782609 174.280348 
L 424.753043 174.8109 
L 425.238261 174.740099 
L 426.208696 175.064252 
L 426.693913 174.690589 
L 427.17913 174.59033 
L 427.664348 174.776122 
L 428.149565 174.816574 
L 428.634783 174.720855 
L 429.12 174.770234 
L 429.605217 174.599888 
L 430.575652 174.727714 
L 431.06087 174.554205 
L 432.031304 175.375575 
L 433.001739 175.568738 
L 433.486957 175.683872 
L 433.972174 175.498698 
L 434.457391 175.139654 
L 435.427826 174.977537 
L 436.398261 175.129675 
L 436.883478 174.798613 
L 437.853913 175.096811 
L 438.33913 175.001192 
L 439.309565 174.485609 
L 440.28 175.061348 
L 440.765217 175.196265 
L 441.250435 175.206213 
L 441.735652 175.033488 
L 442.22087 174.589409 
L 442.706087 174.481561 
L 443.191304 174.977607 
L 443.676522 174.983751 
L 444.646957 174.684976 
L 445.132174 174.34461 
L 445.617391 174.376993 
L 446.102609 174.824758 
L 446.587826 174.913577 
L 447.073043 174.650281 
L 447.558261 175.0362 
L 448.043478 175.137268 
L 448.528696 174.890993 
L 449.013913 175.079216 
L 450.469565 175.158687 
L 450.954783 175.041332 
L 451.925217 175.125598 
L 452.410435 174.702609 
L 452.895652 174.582693 
L 453.38087 174.951239 
L 453.866087 174.85665 
L 454.351304 174.943606 
L 454.836522 175.159672 
L 455.321739 174.867124 
L 455.806957 174.800944 
L 456.292174 174.937519 
L 456.777391 174.873504 
L 457.262609 174.958032 
L 457.747826 175.174456 
L 458.233043 174.967065 
L 458.718261 174.524042 
L 459.688696 174.962383 
L 460.173913 174.803582 
L 460.65913 174.421974 
L 461.144348 174.37449 
L 461.629565 174.812577 
L 462.114783 174.778491 
L 463.085217 175.114522 
L 463.570435 174.862471 
L 464.54087 174.82386 
L 465.026087 175.137088 
L 465.511304 175.093466 
L 465.996522 174.869182 
L 466.966957 175.040133 
L 467.452174 174.889292 
L 468.422609 174.860936 
L 468.907826 174.473635 
L 469.393043 174.677815 
L 469.878261 174.692021 
L 470.363478 174.530754 
L 471.333913 175.132835 
L 471.81913 175.227743 
L 472.304348 175.093027 
L 472.789565 175.172903 
L 473.274783 175.408252 
L 473.76 174.763592 
L 474.245217 174.634957 
L 474.730435 174.885544 
L 475.215652 174.778208 
L 475.70087 174.806779 
L 476.186087 175.117212 
L 476.671304 174.955389 
L 477.156522 174.541746 
L 477.641739 174.80722 
L 478.612174 174.876945 
L 479.097391 175.126631 
L 480.553043 174.783334 
L 481.038261 175.048015 
L 481.523478 175.062912 
L 482.008696 174.724317 
L 482.493913 174.57032 
L 482.97913 174.768844 
L 483.949565 174.432487 
L 484.434783 174.989459 
L 485.405217 174.832024 
L 485.890435 175.111327 
L 486.375652 174.676566 
L 488.316522 175.192799 
L 489.772174 175.124155 
L 490.257391 175.057346 
L 490.742609 174.761708 
L 491.713043 175.100901 
L 492.198261 174.933857 
L 492.683478 175.078269 
L 493.653913 174.801349 
L 494.13913 175.063806 
L 495.594783 174.570636 
L 496.08 174.839669 
L 496.565217 174.917193 
L 497.050435 174.840519 
L 497.535652 175.105927 
L 498.02087 175.146463 
L 498.506087 174.838782 
L 499.476522 174.978848 
L 499.961739 174.795994 
L 500.446957 174.928704 
L 501.417391 174.557603 
L 502.387826 175.06879 
L 502.873043 175.055066 
L 503.358261 174.781792 
L 504.813913 174.853721 
L 505.784348 174.664208 
L 506.269565 175.09021 
L 507.24 174.781297 
L 508.695652 174.953415 
L 512.092174 175.427 
L 513.547826 175.399664 
L 514.518261 175.206606 
L 515.488696 174.816394 
L 516.45913 174.173574 
L 517.429565 173.217049 
L 518.4 171.880076 
L 518.4 171.880076 
" style="fill:none;stroke:#ff0000;stroke-linecap:square;stroke-width:2;"/>
   </g>
   <g id="patch_3">
    <path d="M 72 320.4 
L 72 43.2 
" style="fill:none;stroke:#000000;stroke-linecap:square;stroke-linejoin:miter;stroke-width:0.8;"/>
   </g>
   <g id="patch_4">
    <path d="M 518.4 320.4 
L 518.4 43.2 
" style="fill:none;stroke:#000000;stroke-linecap:square;stroke-linejoin:miter;stroke-width:0.8;"/>
   </g>
   <g id="patch_5">
    <path d="M 72 320.4 
L 518.4 320.4 
" style="fill:none;stroke:#000000;stroke-linecap:square;stroke-linejoin:miter;stroke-width:0.8;"/>
   </g>
   <g id="patch_6">
    <path d="M 72 43.2 
L 518.4 43.2 
" style="fill:none;stroke:#000000;stroke-linecap:square;stroke-linejoin:miter;stroke-width:0.8;"/>
   </g>
   <g id="text_16">
    <!-- Front Propogation Speed -->
    <g transform="translate(172.245312 37.2)scale(0.2 -0.2)">
     <defs>
      <path d="M 628 4666 
L 3309 4666 
L 3309 4134 
L 1259 4134 
L 1259 2759 
L 3109 2759 
L 3109 2228 
L 1259 2228 
L 1259 0 
L 628 0 
L 628 4666 
z
" id="DejaVuSans-46" transform="scale(0.015625)"/>
      <path d="M 2631 2963 
Q 2534 3019 2420 3045 
Q 2306 3072 2169 3072 
Q 1681 3072 1420 2755 
Q 1159 2438 1159 1844 
L 1159 0 
L 581 0 
L 581 3500 
L 1159 3500 
L 1159 2956 
Q 1341 3275 1631 3429 
Q 1922 3584 2338 3584 
Q 2397 3584 2469 3576 
Q 2541 3569 2628 3553 
L 2631 2963 
z
" id="DejaVuSans-72" transform="scale(0.015625)"/>
      <path d="M 1172 4494 
L 1172 3500 
L 2356 3500 
L 2356 3053 
L 1172 3053 
L 1172 1153 
Q 1172 725 1289 603 
Q 1406 481 1766 481 
L 2356 481 
L 2356 0 
L 1766 0 
Q 1100 0 847 248 
Q 594 497 594 1153 
L 594 3053 
L 172 3053 
L 172 3500 
L 594 3500 
L 594 4494 
L 1172 4494 
z
" id="DejaVuSans-74" transform="scale(0.015625)"/>
      <path d="M 1259 4147 
L 1259 2394 
L 2053 2394 
Q 2494 2394 2734 2622 
Q 2975 2850 2975 3272 
Q 2975 3691 2734 3919 
Q 2494 4147 2053 4147 
L 1259 4147 
z
M 628 4666 
L 2053 4666 
Q 2838 4666 3239 4311 
Q 3641 3956 3641 3272 
Q 3641 2581 3239 2228 
Q 2838 1875 2053 1875 
L 1259 1875 
L 1259 0 
L 628 0 
L 628 4666 
z
" id="DejaVuSans-50" transform="scale(0.015625)"/>
      <path d="M 2906 1791 
Q 2906 2416 2648 2759 
Q 2391 3103 1925 3103 
Q 1463 3103 1205 2759 
Q 947 2416 947 1791 
Q 947 1169 1205 825 
Q 1463 481 1925 481 
Q 2391 481 2648 825 
Q 2906 1169 2906 1791 
z
M 3481 434 
Q 3481 -459 3084 -895 
Q 2688 -1331 1869 -1331 
Q 1566 -1331 1297 -1286 
Q 1028 -1241 775 -1147 
L 775 -588 
Q 1028 -725 1275 -790 
Q 1522 -856 1778 -856 
Q 2344 -856 2625 -561 
Q 2906 -266 2906 331 
L 2906 616 
Q 2728 306 2450 153 
Q 2172 0 1784 0 
Q 1141 0 747 490 
Q 353 981 353 1791 
Q 353 2603 747 3093 
Q 1141 3584 1784 3584 
Q 2172 3584 2450 3431 
Q 2728 3278 2906 2969 
L 2906 3500 
L 3481 3500 
L 3481 434 
z
" id="DejaVuSans-67" transform="scale(0.015625)"/>
      <path d="M 2194 1759 
Q 1497 1759 1228 1600 
Q 959 1441 959 1056 
Q 959 750 1161 570 
Q 1363 391 1709 391 
Q 2188 391 2477 730 
Q 2766 1069 2766 1631 
L 2766 1759 
L 2194 1759 
z
M 3341 1997 
L 3341 0 
L 2766 0 
L 2766 531 
Q 2569 213 2275 61 
Q 1981 -91 1556 -91 
Q 1019 -91 701 211 
Q 384 513 384 1019 
Q 384 1609 779 1909 
Q 1175 2209 1959 2209 
L 2766 2209 
L 2766 2266 
Q 2766 2663 2505 2880 
Q 2244 3097 1772 3097 
Q 1472 3097 1187 3025 
Q 903 2953 641 2809 
L 641 3341 
Q 956 3463 1253 3523 
Q 1550 3584 1831 3584 
Q 2591 3584 2966 3190 
Q 3341 2797 3341 1997 
z
" id="DejaVuSans-61" transform="scale(0.015625)"/>
     </defs>
     <use xlink:href="#DejaVuSans-46"/>
     <use x="50.269531" xlink:href="#DejaVuSans-72"/>
     <use x="89.132812" xlink:href="#DejaVuSans-6f"/>
     <use x="150.314453" xlink:href="#DejaVuSans-6e"/>
     <use x="213.693359" xlink:href="#DejaVuSans-74"/>
     <use x="252.902344" xlink:href="#DejaVuSans-20"/>
     <use x="284.689453" xlink:href="#DejaVuSans-50"/>
     <use x="343.242188" xlink:href="#DejaVuSans-72"/>
     <use x="382.105469" xlink:href="#DejaVuSans-6f"/>
     <use x="443.287109" xlink:href="#DejaVuSans-70"/>
     <use x="506.763672" xlink:href="#DejaVuSans-6f"/>
     <use x="567.945312" xlink:href="#DejaVuSans-67"/>
     <use x="631.421875" xlink:href="#DejaVuSans-61"/>
     <use x="692.701172" xlink:href="#DejaVuSans-74"/>
     <use x="731.910156" xlink:href="#DejaVuSans-69"/>
     <use x="759.693359" xlink:href="#DejaVuSans-6f"/>
     <use x="820.875" xlink:href="#DejaVuSans-6e"/>
     <use x="884.253906" xlink:href="#DejaVuSans-20"/>
     <use x="916.041016" xlink:href="#DejaVuSans-53"/>
     <use x="979.517578" xlink:href="#DejaVuSans-70"/>
     <use x="1042.994141" xlink:href="#DejaVuSans-65"/>
     <use x="1104.517578" xlink:href="#DejaVuSans-65"/>
     <use x="1166.041016" xlink:href="#DejaVuSans-64"/>
    </g>
   </g>
   <g id="legend_1">
    <g id="patch_7">
     <path d="M 325.967812 111.175687 
L 508.6 111.175687 
Q 511.4 111.175687 511.4 108.375687 
L 511.4 53 
Q 511.4 50.2 508.6 50.2 
L 325.967812 50.2 
Q 323.167812 50.2 323.167812 53 
L 323.167812 108.375687 
Q 323.167812 111.175687 325.967812 111.175687 
z
" style="fill:#ffffff;opacity:0.8;stroke:#cccccc;stroke-linejoin:miter;"/>
    </g>
    <g id="line2d_16">
     <path d="M 328.767812 61.537812 
L 356.767812 61.537812 
" style="fill:none;stroke:#ff0000;stroke-linecap:square;stroke-width:2;"/>
    </g>
    <g id="line2d_17"/>
    <g id="text_17">
     <!-- Front speed -->
     <g transform="translate(367.967812 66.437812)scale(0.14 -0.14)">
      <use xlink:href="#DejaVuSans-46"/>
      <use x="50.269531" xlink:href="#DejaVuSans-72"/>
      <use x="89.132812" xlink:href="#DejaVuSans-6f"/>
      <use x="150.314453" xlink:href="#DejaVuSans-6e"/>
      <use x="213.693359" xlink:href="#DejaVuSans-74"/>
      <use x="252.902344" xlink:href="#DejaVuSans-20"/>
      <use x="284.689453" xlink:href="#DejaVuSans-73"/>
      <use x="336.789062" xlink:href="#DejaVuSans-70"/>
      <use x="400.265625" xlink:href="#DejaVuSans-65"/>
      <use x="461.789062" xlink:href="#DejaVuSans-65"/>
      <use x="523.3125" xlink:href="#DejaVuSans-64"/>
     </g>
    </g>
    <g id="line2d_18">
     <path d="M 328.767812 91.381437 
L 356.767812 91.381437 
" style="fill:none;stroke:#000000;stroke-dasharray:5.55,2.4;stroke-dashoffset:0;stroke-width:1.5;"/>
    </g>
    <g id="line2d_19"/>
    <g id="text_18">
     <!-- Steady state -->
     <g transform="translate(367.967812 86.987187)scale(0.14 -0.14)">
      <defs>
       <path d="M 2059 -325 
Q 1816 -950 1584 -1140 
Q 1353 -1331 966 -1331 
L 506 -1331 
L 506 -850 
L 844 -850 
Q 1081 -850 1212 -737 
Q 1344 -625 1503 -206 
L 1606 56 
L 191 3500 
L 800 3500 
L 1894 763 
L 2988 3500 
L 3597 3500 
L 2059 -325 
z
" id="DejaVuSans-79" transform="scale(0.015625)"/>
      </defs>
      <use xlink:href="#DejaVuSans-53"/>
      <use x="63.476562" xlink:href="#DejaVuSans-74"/>
      <use x="102.685547" xlink:href="#DejaVuSans-65"/>
      <use x="164.208984" xlink:href="#DejaVuSans-61"/>
      <use x="225.488281" xlink:href="#DejaVuSans-64"/>
      <use x="288.964844" xlink:href="#DejaVuSans-79"/>
      <use x="348.144531" xlink:href="#DejaVuSans-20"/>
      <use x="379.931641" xlink:href="#DejaVuSans-73"/>
      <use x="432.03125" xlink:href="#DejaVuSans-74"/>
      <use x="471.240234" xlink:href="#DejaVuSans-61"/>
      <use x="532.519531" xlink:href="#DejaVuSans-74"/>
      <use x="571.728516" xlink:href="#DejaVuSans-65"/>
     </g>
     <!-- speed = 1.06 mm/s -->
     <g transform="translate(367.967812 102.664125)scale(0.14 -0.14)">
      <defs>
       <path d="M 678 2906 
L 4684 2906 
L 4684 2381 
L 678 2381 
L 678 2906 
z
M 678 1631 
L 4684 1631 
L 4684 1100 
L 678 1100 
L 678 1631 
z
" id="DejaVuSans-3d" transform="scale(0.015625)"/>
       <path d="M 2113 2584 
Q 1688 2584 1439 2293 
Q 1191 2003 1191 1497 
Q 1191 994 1439 701 
Q 1688 409 2113 409 
Q 2538 409 2786 701 
Q 3034 994 3034 1497 
Q 3034 2003 2786 2293 
Q 2538 2584 2113 2584 
z
M 3366 4563 
L 3366 3988 
Q 3128 4100 2886 4159 
Q 2644 4219 2406 4219 
Q 1781 4219 1451 3797 
Q 1122 3375 1075 2522 
Q 1259 2794 1537 2939 
Q 1816 3084 2150 3084 
Q 2853 3084 3261 2657 
Q 3669 2231 3669 1497 
Q 3669 778 3244 343 
Q 2819 -91 2113 -91 
Q 1303 -91 875 529 
Q 447 1150 447 2328 
Q 447 3434 972 4092 
Q 1497 4750 2381 4750 
Q 2619 4750 2861 4703 
Q 3103 4656 3366 4563 
z
" id="DejaVuSans-36" transform="scale(0.015625)"/>
      </defs>
      <use xlink:href="#DejaVuSans-73"/>
      <use x="52.099609" xlink:href="#DejaVuSans-70"/>
      <use x="115.576172" xlink:href="#DejaVuSans-65"/>
      <use x="177.099609" xlink:href="#DejaVuSans-65"/>
      <use x="238.623047" xlink:href="#DejaVuSans-64"/>
      <use x="302.099609" xlink:href="#DejaVuSans-20"/>
      <use x="333.886719" xlink:href="#DejaVuSans-3d"/>
      <use x="417.675781" xlink:href="#DejaVuSans-20"/>
      <use x="449.462891" xlink:href="#DejaVuSans-31"/>
      <use x="513.085938" xlink:href="#DejaVuSans-2e"/>
      <use x="544.873047" xlink:href="#DejaVuSans-30"/>
      <use x="608.496094" xlink:href="#DejaVuSans-36"/>
      <use x="672.119141" xlink:href="#DejaVuSans-20"/>
      <use x="703.90625" xlink:href="#DejaVuSans-6d"/>
      <use x="801.318359" xlink:href="#DejaVuSans-6d"/>
      <use x="898.730469" xlink:href="#DejaVuSans-2f"/>
      <use x="932.421875" xlink:href="#DejaVuSans-73"/>
     </g>
    </g>
   </g>
  </g>
 </g>
 <defs>
  <clipPath id="p047caa6999">
   <rect height="277.2" width="446.4" x="72" y="43.2"/>
  </clipPath>
 </defs>
</svg>
