<?xml version="1.0" encoding="utf-8" standalone="no"?>
<!DOCTYPE svg PUBLIC "-//W3C//DTD SVG 1.1//EN"
  "http://www.w3.org/Graphics/SVG/1.1/DTD/svg11.dtd">
<svg height="360pt" version="1.1" viewBox="0 0 576 360" width="576pt" xmlns="http://www.w3.org/2000/svg" xmlns:xlink="http://www.w3.org/1999/xlink">
 <metadata>
  <rdf:RDF xmlns:cc="http://creativecommons.org/ns#" xmlns:dc="http://purl.org/dc/elements/1.1/" xmlns:rdf="http://www.w3.org/1999/02/22-rdf-syntax-ns#">
   <cc:Work>
    <dc:type rdf:resource="http://purl.org/dc/dcmitype/StillImage"/>
    <dc:date>2022-06-30T14:32:24.272492</dc:date>
    <dc:format>image/svg+xml</dc:format>
    <dc:creator>
     <cc:Agent>
      <dc:title>Matplotlib v3.4.3, https://matplotlib.org/</dc:title>
     </cc:Agent>
    </dc:creator>
   </cc:Work>
  </rdf:RDF>
 </metadata>
 <defs>
  <style type="text/css">*{stroke-linecap:butt;stroke-linejoin:round;}</style>
 </defs>
 <g id="figure_1">
  <g id="patch_1">
   <path d="M 0 360 
L 576 360 
L 576 0 
L 0 0 
z
" style="fill:#ffffff;"/>
  </g>
  <g id="axes_1">
   <g id="patch_2">
    <path d="M 72 320.4 
L 518.4 320.4 
L 518.4 43.2 
L 72 43.2 
z
" style="fill:#ffffff;"/>
   </g>
   <g id="PolyCollection_1">
    <defs>
     <path d="M 72 -164.076778 
L 72 -169.611656 
L 72.705213 -169.611656 
L 73.410427 -169.611656 
L 74.11564 -169.611656 
L 74.820853 -169.611656 
L 75.526066 -169.611656 
L 76.23128 -169.611656 
L 76.936493 -169.611656 
L 77.641706 -169.611656 
L 78.346919 -169.611656 
L 79.052133 -169.611656 
L 79.757346 -169.611656 
L 80.462559 -169.611656 
L 81.167773 -169.611656 
L 81.872986 -169.611656 
L 82.578199 -169.611656 
L 83.283412 -169.611656 
L 83.988626 -169.611656 
L 84.693839 -169.611656 
L 85.399052 -169.611656 
L 86.104265 -169.611656 
L 86.809479 -169.611656 
L 87.514692 -169.611656 
L 88.219905 -169.611656 
L 88.925118 -169.611656 
L 89.630332 -169.611656 
L 90.335545 -169.611656 
L 91.040758 -169.611656 
L 91.745972 -169.611656 
L 92.451185 -169.611656 
L 93.156398 -169.611656 
L 93.861611 -169.611656 
L 94.566825 -169.611656 
L 95.272038 -169.611656 
L 95.977251 -169.611656 
L 96.682464 -169.611656 
L 97.387678 -169.611656 
L 98.092891 -169.611656 
L 98.798104 -169.611656 
L 99.503318 -169.611656 
L 100.208531 -169.611656 
L 100.913744 -169.611656 
L 101.618957 -169.611656 
L 102.324171 -169.611656 
L 103.029384 -169.611656 
L 103.734597 -169.611656 
L 104.43981 -169.611656 
L 105.145024 -169.611656 
L 105.850237 -169.611656 
L 106.55545 -169.611656 
L 107.260664 -169.611656 
L 107.965877 -169.611656 
L 108.67109 -169.611656 
L 109.376303 -169.611656 
L 110.081517 -169.611656 
L 110.78673 -169.611656 
L 111.491943 -169.611656 
L 112.197156 -169.611656 
L 112.90237 -169.611656 
L 113.607583 -169.611656 
L 114.312796 -169.611656 
L 115.018009 -169.611656 
L 115.723223 -169.611656 
L 116.428436 -169.611656 
L 117.133649 -169.611656 
L 117.838863 -169.611656 
L 118.544076 -169.611656 
L 119.249289 -169.611656 
L 119.954502 -169.611656 
L 120.659716 -169.611656 
L 121.364929 -169.611656 
L 122.070142 -169.611656 
L 122.775355 -169.611656 
L 123.480569 -169.611656 
L 124.185782 -169.611656 
L 124.890995 -169.611656 
L 125.596209 -169.611656 
L 126.301422 -169.611656 
L 127.006635 -169.611656 
L 127.711848 -169.611656 
L 128.417062 -169.611656 
L 129.122275 -169.611656 
L 129.827488 -169.611656 
L 130.532701 -169.611656 
L 131.237915 -169.611656 
L 131.943128 -169.611656 
L 132.648341 -169.611656 
L 133.353555 -169.611656 
L 134.058768 -169.611656 
L 134.763981 -169.611656 
L 135.469194 -169.611656 
L 136.174408 -169.611656 
L 136.879621 -169.611656 
L 137.584834 -169.611656 
L 138.290047 -169.611656 
L 138.995261 -169.611656 
L 139.700474 -169.611656 
L 140.405687 -169.611656 
L 141.1109 -169.611656 
L 141.816114 -169.611656 
L 142.521327 -169.611656 
L 143.22654 -169.611656 
L 143.931754 -169.611656 
L 144.636967 -169.611656 
L 145.34218 -169.611656 
L 146.047393 -169.611656 
L 146.752607 -169.611656 
L 147.45782 -169.611656 
L 148.163033 -169.611656 
L 148.868246 -169.611656 
L 149.57346 -169.611656 
L 150.278673 -169.611656 
L 150.983886 -169.611656 
L 151.6891 -169.611656 
L 152.394313 -169.611656 
L 153.099526 -169.611656 
L 153.804739 -169.611656 
L 154.509953 -169.611656 
L 155.215166 -169.611656 
L 155.920379 -169.611656 
L 156.625592 -169.611656 
L 157.330806 -169.611656 
L 158.036019 -169.611656 
L 158.741232 -169.611656 
L 159.446445 -169.611656 
L 160.151659 -169.611656 
L 160.856872 -169.611656 
L 161.562085 -169.611656 
L 162.267299 -169.611656 
L 162.972512 -169.611656 
L 163.677725 -169.611656 
L 164.382938 -169.611656 
L 165.088152 -169.611656 
L 165.793365 -169.611656 
L 166.498578 -169.611656 
L 167.203791 -169.611656 
L 167.909005 -169.611656 
L 168.614218 -169.611656 
L 169.319431 -169.611656 
L 170.024645 -169.611656 
L 170.729858 -169.611656 
L 171.435071 -169.611656 
L 172.140284 -169.611656 
L 172.845498 -169.611656 
L 173.550711 -169.611656 
L 174.255924 -169.611656 
L 174.961137 -169.611656 
L 175.666351 -169.611656 
L 176.371564 -169.611656 
L 177.076777 -169.611656 
L 177.781991 -169.611656 
L 178.487204 -169.611656 
L 179.192417 -169.611656 
L 179.89763 -169.611656 
L 180.602844 -169.611656 
L 181.308057 -169.611656 
L 182.01327 -169.611656 
L 182.718483 -169.611656 
L 183.423697 -169.611656 
L 184.12891 -169.611656 
L 184.834123 -169.611656 
L 185.539336 -169.611656 
L 186.24455 -169.611656 
L 186.949763 -169.611656 
L 187.654976 -169.611656 
L 188.36019 -169.611656 
L 189.065403 -169.611656 
L 189.770616 -169.611656 
L 190.475829 -169.611656 
L 191.181043 -169.611656 
L 191.886256 -169.611656 
L 192.591469 -169.611656 
L 193.296682 -169.611656 
L 194.001896 -169.611656 
L 194.707109 -169.611656 
L 195.412322 -169.611656 
L 196.117536 -169.611656 
L 196.822749 -169.611656 
L 197.527962 -169.611656 
L 198.233175 -169.611656 
L 198.938389 -169.611656 
L 199.643602 -169.611656 
L 200.348815 -169.611656 
L 201.054028 -169.611656 
L 201.759242 -169.611656 
L 202.464455 -169.611656 
L 203.169668 -169.611656 
L 203.874882 -169.611656 
L 204.580095 -169.611656 
L 205.285308 -169.611656 
L 205.990521 -169.611656 
L 206.695735 -169.611656 
L 207.400948 -169.611656 
L 208.106161 -169.611656 
L 208.811374 -169.611656 
L 209.516588 -169.611656 
L 210.221801 -169.611656 
L 210.927014 -169.611656 
L 211.632227 -169.611656 
L 212.337441 -169.611656 
L 213.042654 -169.611656 
L 213.747867 -169.611656 
L 214.453081 -169.611656 
L 215.158294 -169.611656 
L 215.863507 -169.611656 
L 216.56872 -169.611656 
L 217.273934 -169.611656 
L 217.979147 -169.611656 
L 218.68436 -169.611656 
L 219.389573 -169.611656 
L 220.094787 -169.611656 
L 220.8 -169.611656 
L 221.505213 -169.611656 
L 222.210427 -169.611656 
L 222.91564 -169.611656 
L 223.620853 -169.611656 
L 224.326066 -169.611656 
L 225.03128 -169.611656 
L 225.736493 -169.611656 
L 226.441706 -169.611656 
L 227.146919 -169.611656 
L 227.852133 -169.611656 
L 228.557346 -169.611656 
L 229.262559 -169.611656 
L 229.967773 -169.611656 
L 230.672986 -169.611656 
L 231.378199 -169.611656 
L 232.083412 -169.611656 
L 232.788626 -169.611656 
L 233.493839 -169.611656 
L 234.199052 -169.611656 
L 234.904265 -169.611656 
L 235.609479 -169.611656 
L 236.314692 -169.611656 
L 237.019905 -169.611656 
L 237.725118 -169.611656 
L 238.430332 -169.611656 
L 239.135545 -169.611656 
L 239.840758 -169.611656 
L 240.545972 -169.611656 
L 241.251185 -169.611656 
L 241.956398 -169.611656 
L 242.661611 -169.611656 
L 243.366825 -169.611656 
L 244.072038 -169.611656 
L 244.777251 -169.611656 
L 245.482464 -169.611656 
L 246.187678 -169.611656 
L 246.892891 -169.611656 
L 247.598104 -169.611656 
L 248.303318 -169.611656 
L 249.008531 -169.611656 
L 249.713744 -169.611656 
L 250.418957 -169.611656 
L 251.124171 -169.611656 
L 251.829384 -169.611656 
L 252.534597 -169.611656 
L 253.23981 -169.611656 
L 253.945024 -169.611656 
L 254.650237 -169.611656 
L 255.35545 -169.611656 
L 256.060664 -169.611656 
L 256.765877 -169.611656 
L 257.47109 -169.611656 
L 258.176303 -169.611656 
L 258.881517 -169.611656 
L 259.58673 -169.611656 
L 260.291943 -169.611656 
L 260.997156 -169.611656 
L 261.70237 -169.611656 
L 262.407583 -169.611656 
L 263.112796 -169.611656 
L 263.818009 -169.611656 
L 264.523223 -169.611656 
L 265.228436 -169.611656 
L 265.933649 -169.611656 
L 266.638863 -169.611656 
L 267.344076 -169.611656 
L 268.049289 -169.611656 
L 268.754502 -169.611656 
L 269.459716 -169.611656 
L 270.164929 -169.611656 
L 270.870142 -169.611656 
L 271.575355 -169.611656 
L 272.280569 -169.611656 
L 272.985782 -169.611656 
L 273.690995 -169.611656 
L 274.396209 -169.611656 
L 275.101422 -169.611656 
L 275.806635 -169.611656 
L 276.511848 -169.611656 
L 277.217062 -169.611656 
L 277.922275 -169.611656 
L 278.627488 -169.611656 
L 279.332701 -169.611656 
L 280.037915 -169.611656 
L 280.743128 -169.611656 
L 281.448341 -169.611656 
L 282.153555 -169.611656 
L 282.858768 -169.611656 
L 283.563981 -169.611656 
L 284.269194 -169.611656 
L 284.974408 -169.611656 
L 285.679621 -169.611656 
L 286.384834 -169.611656 
L 287.090047 -169.611656 
L 287.795261 -169.611656 
L 288.500474 -169.611656 
L 289.205687 -169.611656 
L 289.9109 -169.611656 
L 290.616114 -169.611656 
L 291.321327 -169.611656 
L 292.02654 -169.611656 
L 292.731754 -169.611656 
L 293.436967 -169.611656 
L 294.14218 -169.611656 
L 294.847393 -169.611656 
L 295.552607 -169.611656 
L 296.25782 -169.611656 
L 296.963033 -169.611656 
L 297.668246 -169.611656 
L 298.37346 -169.611656 
L 299.078673 -169.611656 
L 299.783886 -169.611656 
L 300.4891 -169.611656 
L 301.194313 -169.611656 
L 301.899526 -169.611656 
L 302.604739 -169.611656 
L 303.309953 -169.611656 
L 304.015166 -169.611656 
L 304.720379 -169.611656 
L 305.425592 -169.611656 
L 306.130806 -169.611656 
L 306.836019 -169.611656 
L 307.541232 -169.611656 
L 308.246445 -169.611656 
L 308.951659 -169.611656 
L 309.656872 -169.611656 
L 310.362085 -169.611656 
L 311.067299 -169.611656 
L 311.772512 -169.611656 
L 312.477725 -169.611656 
L 313.182938 -169.611656 
L 313.888152 -169.611656 
L 314.593365 -169.611656 
L 315.298578 -169.611656 
L 316.003791 -169.611656 
L 316.709005 -169.611656 
L 317.414218 -169.611656 
L 318.119431 -169.611656 
L 318.824645 -169.611656 
L 319.529858 -169.611656 
L 320.235071 -169.611656 
L 320.940284 -169.611656 
L 321.645498 -169.611656 
L 322.350711 -169.611656 
L 323.055924 -169.611656 
L 323.761137 -169.611656 
L 324.466351 -169.611656 
L 325.171564 -169.611656 
L 325.876777 -169.611656 
L 326.581991 -169.611656 
L 327.287204 -169.611656 
L 327.992417 -169.611656 
L 328.69763 -169.611656 
L 329.402844 -169.611656 
L 330.108057 -169.611656 
L 330.81327 -169.611656 
L 331.518483 -169.611656 
L 332.223697 -169.611656 
L 332.92891 -169.611656 
L 333.634123 -169.611656 
L 334.339336 -169.611656 
L 335.04455 -169.611656 
L 335.749763 -169.611656 
L 336.454976 -169.611656 
L 337.16019 -169.611656 
L 337.865403 -169.611656 
L 338.570616 -169.611656 
L 339.275829 -169.611656 
L 339.981043 -169.611656 
L 340.686256 -169.611656 
L 341.391469 -169.611656 
L 342.096682 -169.611656 
L 342.801896 -169.611656 
L 343.507109 -169.611656 
L 344.212322 -169.611656 
L 344.917536 -169.611656 
L 345.622749 -169.611656 
L 346.327962 -169.611656 
L 347.033175 -169.611656 
L 347.738389 -169.611656 
L 348.443602 -169.611656 
L 349.148815 -169.611656 
L 349.854028 -169.611656 
L 350.559242 -169.611656 
L 351.264455 -169.611656 
L 351.969668 -169.611656 
L 352.674882 -169.611656 
L 353.380095 -169.611656 
L 354.085308 -169.611656 
L 354.790521 -169.611656 
L 355.495735 -169.611656 
L 356.200948 -169.611656 
L 356.906161 -169.611656 
L 357.611374 -169.611656 
L 358.316588 -169.611656 
L 359.021801 -169.611656 
L 359.727014 -169.611656 
L 360.432227 -169.611656 
L 361.137441 -169.611656 
L 361.842654 -169.611656 
L 362.547867 -169.611656 
L 363.253081 -169.611656 
L 363.958294 -169.611656 
L 364.663507 -169.611656 
L 365.36872 -169.611656 
L 366.073934 -169.611656 
L 366.779147 -169.611656 
L 367.48436 -169.611656 
L 368.189573 -169.611656 
L 368.894787 -169.611656 
L 369.6 -169.611656 
L 370.305213 -169.611656 
L 371.010427 -169.611656 
L 371.71564 -169.611656 
L 372.420853 -169.611656 
L 373.126066 -169.611656 
L 373.83128 -169.611656 
L 374.536493 -169.611656 
L 375.241706 -169.611656 
L 375.946919 -169.611656 
L 376.652133 -169.611656 
L 377.357346 -169.611656 
L 378.062559 -169.611656 
L 378.767773 -169.611656 
L 379.472986 -169.611656 
L 380.178199 -169.611656 
L 380.883412 -169.611656 
L 381.588626 -169.611656 
L 382.293839 -169.611656 
L 382.999052 -169.611656 
L 383.704265 -169.611656 
L 384.409479 -169.611656 
L 385.114692 -169.611656 
L 385.819905 -169.611656 
L 386.525118 -169.611656 
L 387.230332 -169.611656 
L 387.935545 -169.611656 
L 388.640758 -169.611656 
L 389.345972 -169.611656 
L 390.051185 -169.611656 
L 390.756398 -169.611656 
L 391.461611 -169.611656 
L 392.166825 -169.611656 
L 392.872038 -169.611656 
L 393.577251 -169.611656 
L 394.282464 -169.611656 
L 394.987678 -169.611656 
L 395.692891 -169.611656 
L 396.398104 -169.611656 
L 397.103318 -169.611656 
L 397.808531 -169.611656 
L 398.513744 -169.611656 
L 399.218957 -169.611656 
L 399.924171 -169.611656 
L 400.629384 -169.611656 
L 401.334597 -169.611656 
L 402.03981 -169.611656 
L 402.745024 -169.611656 
L 403.450237 -169.611656 
L 404.15545 -169.611656 
L 404.860664 -169.611656 
L 405.565877 -169.611656 
L 406.27109 -169.611656 
L 406.976303 -169.611656 
L 407.681517 -169.611656 
L 408.38673 -169.611656 
L 409.091943 -169.611656 
L 409.797156 -169.611656 
L 410.50237 -169.611656 
L 411.207583 -169.611656 
L 411.912796 -169.611656 
L 412.618009 -169.611656 
L 413.323223 -169.611656 
L 414.028436 -169.611656 
L 414.733649 -169.611656 
L 415.438863 -169.611656 
L 416.144076 -169.611656 
L 416.849289 -169.611656 
L 417.554502 -169.611656 
L 418.259716 -169.611656 
L 418.964929 -169.611656 
L 419.670142 -169.611656 
L 420.375355 -169.611656 
L 421.080569 -169.611656 
L 421.785782 -169.611656 
L 422.490995 -169.611656 
L 423.196209 -169.611656 
L 423.901422 -169.611656 
L 424.606635 -169.611656 
L 425.311848 -169.611656 
L 426.017062 -169.611656 
L 426.722275 -169.611656 
L 427.427488 -169.611656 
L 428.132701 -169.611656 
L 428.837915 -169.611656 
L 429.543128 -169.611656 
L 430.248341 -169.611656 
L 430.953555 -169.611656 
L 431.658768 -169.611656 
L 432.363981 -169.611656 
L 433.069194 -169.611656 
L 433.774408 -169.611656 
L 434.479621 -169.611656 
L 435.184834 -169.611656 
L 435.890047 -169.611656 
L 436.595261 -169.611656 
L 437.300474 -169.611656 
L 438.005687 -169.611656 
L 438.7109 -169.611656 
L 439.416114 -169.611656 
L 440.121327 -169.611656 
L 440.82654 -169.611656 
L 441.531754 -169.611656 
L 442.236967 -169.611656 
L 442.94218 -169.611656 
L 443.647393 -169.611656 
L 444.352607 -169.611656 
L 445.05782 -169.611656 
L 445.763033 -169.611656 
L 446.468246 -169.611656 
L 447.17346 -169.611656 
L 447.878673 -169.611656 
L 448.583886 -169.611656 
L 449.2891 -169.611656 
L 449.994313 -169.611656 
L 450.699526 -169.611656 
L 451.404739 -169.611656 
L 452.109953 -169.611656 
L 452.815166 -169.611656 
L 453.520379 -169.611656 
L 454.225592 -169.611656 
L 454.930806 -169.611656 
L 455.636019 -169.611656 
L 456.341232 -169.611656 
L 457.046445 -169.611656 
L 457.751659 -169.611656 
L 458.456872 -169.611656 
L 459.162085 -169.611656 
L 459.867299 -169.611656 
L 460.572512 -169.611656 
L 461.277725 -169.611656 
L 461.982938 -169.611656 
L 462.688152 -169.611656 
L 463.393365 -169.611656 
L 464.098578 -169.611656 
L 464.803791 -169.611656 
L 465.509005 -169.611656 
L 466.214218 -169.611656 
L 466.919431 -169.611656 
L 467.624645 -169.611656 
L 468.329858 -169.611656 
L 469.035071 -169.611656 
L 469.740284 -169.611656 
L 470.445498 -169.611656 
L 471.150711 -169.611656 
L 471.855924 -169.611656 
L 472.561137 -169.611656 
L 473.266351 -169.611656 
L 473.971564 -169.611656 
L 474.676777 -169.611656 
L 475.381991 -169.611656 
L 476.087204 -169.611656 
L 476.792417 -169.611656 
L 477.49763 -169.611656 
L 478.202844 -169.611656 
L 478.908057 -169.611656 
L 479.61327 -169.611656 
L 480.318483 -169.611656 
L 481.023697 -169.611656 
L 481.72891 -169.611656 
L 482.434123 -169.611656 
L 483.139336 -169.611656 
L 483.84455 -169.611656 
L 484.549763 -169.611656 
L 485.254976 -169.611656 
L 485.96019 -169.611656 
L 486.665403 -169.611656 
L 487.370616 -169.611656 
L 488.075829 -169.611656 
L 488.781043 -169.611656 
L 489.486256 -169.611656 
L 490.191469 -169.611656 
L 490.896682 -169.611656 
L 491.601896 -169.611656 
L 492.307109 -169.611656 
L 493.012322 -169.611656 
L 493.717536 -169.611656 
L 494.422749 -169.611656 
L 495.127962 -169.611656 
L 495.833175 -169.611656 
L 496.538389 -169.611656 
L 497.243602 -169.611656 
L 497.948815 -169.611656 
L 498.654028 -169.611656 
L 499.359242 -169.611656 
L 500.064455 -169.611656 
L 500.769668 -169.611656 
L 501.474882 -169.611656 
L 502.180095 -169.611656 
L 502.885308 -169.611656 
L 503.590521 -169.611656 
L 504.295735 -169.611656 
L 505.000948 -169.611656 
L 505.706161 -169.611656 
L 506.411374 -169.611656 
L 507.116588 -169.611656 
L 507.821801 -169.611656 
L 508.527014 -169.611656 
L 509.232227 -169.611656 
L 509.937441 -169.611656 
L 510.642654 -169.611656 
L 511.347867 -169.611656 
L 512.053081 -169.611656 
L 512.758294 -169.611656 
L 513.463507 -169.611656 
L 514.16872 -169.611656 
L 514.873934 -169.611656 
L 515.579147 -169.611656 
L 516.28436 -169.611656 
L 516.989573 -169.611656 
L 517.694787 -169.611656 
L 518.4 -169.611656 
L 518.4 -164.076778 
L 518.4 -164.076778 
L 517.694787 -164.076778 
L 516.989573 -164.076778 
L 516.28436 -164.076778 
L 515.579147 -164.076778 
L 514.873934 -164.076778 
L 514.16872 -164.076778 
L 513.463507 -164.076778 
L 512.758294 -164.076778 
L 512.053081 -164.076778 
L 511.347867 -164.076778 
L 510.642654 -164.076778 
L 509.937441 -164.076778 
L 509.232227 -164.076778 
L 508.527014 -164.076778 
L 507.821801 -164.076778 
L 507.116588 -164.076778 
L 506.411374 -164.076778 
L 505.706161 -164.076778 
L 505.000948 -164.076778 
L 504.295735 -164.076778 
L 503.590521 -164.076778 
L 502.885308 -164.076778 
L 502.180095 -164.076778 
L 501.474882 -164.076778 
L 500.769668 -164.076778 
L 500.064455 -164.076778 
L 499.359242 -164.076778 
L 498.654028 -164.076778 
L 497.948815 -164.076778 
L 497.243602 -164.076778 
L 496.538389 -164.076778 
L 495.833175 -164.076778 
L 495.127962 -164.076778 
L 494.422749 -164.076778 
L 493.717536 -164.076778 
L 493.012322 -164.076778 
L 492.307109 -164.076778 
L 491.601896 -164.076778 
L 490.896682 -164.076778 
L 490.191469 -164.076778 
L 489.486256 -164.076778 
L 488.781043 -164.076778 
L 488.075829 -164.076778 
L 487.370616 -164.076778 
L 486.665403 -164.076778 
L 485.96019 -164.076778 
L 485.254976 -164.076778 
L 484.549763 -164.076778 
L 483.84455 -164.076778 
L 483.139336 -164.076778 
L 482.434123 -164.076778 
L 481.72891 -164.076778 
L 481.023697 -164.076778 
L 480.318483 -164.076778 
L 479.61327 -164.076778 
L 478.908057 -164.076778 
L 478.202844 -164.076778 
L 477.49763 -164.076778 
L 476.792417 -164.076778 
L 476.087204 -164.076778 
L 475.381991 -164.076778 
L 474.676777 -164.076778 
L 473.971564 -164.076778 
L 473.266351 -164.076778 
L 472.561137 -164.076778 
L 471.855924 -164.076778 
L 471.150711 -164.076778 
L 470.445498 -164.076778 
L 469.740284 -164.076778 
L 469.035071 -164.076778 
L 468.329858 -164.076778 
L 467.624645 -164.076778 
L 466.919431 -164.076778 
L 466.214218 -164.076778 
L 465.509005 -164.076778 
L 464.803791 -164.076778 
L 464.098578 -164.076778 
L 463.393365 -164.076778 
L 462.688152 -164.076778 
L 461.982938 -164.076778 
L 461.277725 -164.076778 
L 460.572512 -164.076778 
L 459.867299 -164.076778 
L 459.162085 -164.076778 
L 458.456872 -164.076778 
L 457.751659 -164.076778 
L 457.046445 -164.076778 
L 456.341232 -164.076778 
L 455.636019 -164.076778 
L 454.930806 -164.076778 
L 454.225592 -164.076778 
L 453.520379 -164.076778 
L 452.815166 -164.076778 
L 452.109953 -164.076778 
L 451.404739 -164.076778 
L 450.699526 -164.076778 
L 449.994313 -164.076778 
L 449.2891 -164.076778 
L 448.583886 -164.076778 
L 447.878673 -164.076778 
L 447.17346 -164.076778 
L 446.468246 -164.076778 
L 445.763033 -164.076778 
L 445.05782 -164.076778 
L 444.352607 -164.076778 
L 443.647393 -164.076778 
L 442.94218 -164.076778 
L 442.236967 -164.076778 
L 441.531754 -164.076778 
L 440.82654 -164.076778 
L 440.121327 -164.076778 
L 439.416114 -164.076778 
L 438.7109 -164.076778 
L 438.005687 -164.076778 
L 437.300474 -164.076778 
L 436.595261 -164.076778 
L 435.890047 -164.076778 
L 435.184834 -164.076778 
L 434.479621 -164.076778 
L 433.774408 -164.076778 
L 433.069194 -164.076778 
L 432.363981 -164.076778 
L 431.658768 -164.076778 
L 430.953555 -164.076778 
L 430.248341 -164.076778 
L 429.543128 -164.076778 
L 428.837915 -164.076778 
L 428.132701 -164.076778 
L 427.427488 -164.076778 
L 426.722275 -164.076778 
L 426.017062 -164.076778 
L 425.311848 -164.076778 
L 424.606635 -164.076778 
L 423.901422 -164.076778 
L 423.196209 -164.076778 
L 422.490995 -164.076778 
L 421.785782 -164.076778 
L 421.080569 -164.076778 
L 420.375355 -164.076778 
L 419.670142 -164.076778 
L 418.964929 -164.076778 
L 418.259716 -164.076778 
L 417.554502 -164.076778 
L 416.849289 -164.076778 
L 416.144076 -164.076778 
L 415.438863 -164.076778 
L 414.733649 -164.076778 
L 414.028436 -164.076778 
L 413.323223 -164.076778 
L 412.618009 -164.076778 
L 411.912796 -164.076778 
L 411.207583 -164.076778 
L 410.50237 -164.076778 
L 409.797156 -164.076778 
L 409.091943 -164.076778 
L 408.38673 -164.076778 
L 407.681517 -164.076778 
L 406.976303 -164.076778 
L 406.27109 -164.076778 
L 405.565877 -164.076778 
L 404.860664 -164.076778 
L 404.15545 -164.076778 
L 403.450237 -164.076778 
L 402.745024 -164.076778 
L 402.03981 -164.076778 
L 401.334597 -164.076778 
L 400.629384 -164.076778 
L 399.924171 -164.076778 
L 399.218957 -164.076778 
L 398.513744 -164.076778 
L 397.808531 -164.076778 
L 397.103318 -164.076778 
L 396.398104 -164.076778 
L 395.692891 -164.076778 
L 394.987678 -164.076778 
L 394.282464 -164.076778 
L 393.577251 -164.076778 
L 392.872038 -164.076778 
L 392.166825 -164.076778 
L 391.461611 -164.076778 
L 390.756398 -164.076778 
L 390.051185 -164.076778 
L 389.345972 -164.076778 
L 388.640758 -164.076778 
L 387.935545 -164.076778 
L 387.230332 -164.076778 
L 386.525118 -164.076778 
L 385.819905 -164.076778 
L 385.114692 -164.076778 
L 384.409479 -164.076778 
L 383.704265 -164.076778 
L 382.999052 -164.076778 
L 382.293839 -164.076778 
L 381.588626 -164.076778 
L 380.883412 -164.076778 
L 380.178199 -164.076778 
L 379.472986 -164.076778 
L 378.767773 -164.076778 
L 378.062559 -164.076778 
L 377.357346 -164.076778 
L 376.652133 -164.076778 
L 375.946919 -164.076778 
L 375.241706 -164.076778 
L 374.536493 -164.076778 
L 373.83128 -164.076778 
L 373.126066 -164.076778 
L 372.420853 -164.076778 
L 371.71564 -164.076778 
L 371.010427 -164.076778 
L 370.305213 -164.076778 
L 369.6 -164.076778 
L 368.894787 -164.076778 
L 368.189573 -164.076778 
L 367.48436 -164.076778 
L 366.779147 -164.076778 
L 366.073934 -164.076778 
L 365.36872 -164.076778 
L 364.663507 -164.076778 
L 363.958294 -164.076778 
L 363.253081 -164.076778 
L 362.547867 -164.076778 
L 361.842654 -164.076778 
L 361.137441 -164.076778 
L 360.432227 -164.076778 
L 359.727014 -164.076778 
L 359.021801 -164.076778 
L 358.316588 -164.076778 
L 357.611374 -164.076778 
L 356.906161 -164.076778 
L 356.200948 -164.076778 
L 355.495735 -164.076778 
L 354.790521 -164.076778 
L 354.085308 -164.076778 
L 353.380095 -164.076778 
L 352.674882 -164.076778 
L 351.969668 -164.076778 
L 351.264455 -164.076778 
L 350.559242 -164.076778 
L 349.854028 -164.076778 
L 349.148815 -164.076778 
L 348.443602 -164.076778 
L 347.738389 -164.076778 
L 347.033175 -164.076778 
L 346.327962 -164.076778 
L 345.622749 -164.076778 
L 344.917536 -164.076778 
L 344.212322 -164.076778 
L 343.507109 -164.076778 
L 342.801896 -164.076778 
L 342.096682 -164.076778 
L 341.391469 -164.076778 
L 340.686256 -164.076778 
L 339.981043 -164.076778 
L 339.275829 -164.076778 
L 338.570616 -164.076778 
L 337.865403 -164.076778 
L 337.16019 -164.076778 
L 336.454976 -164.076778 
L 335.749763 -164.076778 
L 335.04455 -164.076778 
L 334.339336 -164.076778 
L 333.634123 -164.076778 
L 332.92891 -164.076778 
L 332.223697 -164.076778 
L 331.518483 -164.076778 
L 330.81327 -164.076778 
L 330.108057 -164.076778 
L 329.402844 -164.076778 
L 328.69763 -164.076778 
L 327.992417 -164.076778 
L 327.287204 -164.076778 
L 326.581991 -164.076778 
L 325.876777 -164.076778 
L 325.171564 -164.076778 
L 324.466351 -164.076778 
L 323.761137 -164.076778 
L 323.055924 -164.076778 
L 322.350711 -164.076778 
L 321.645498 -164.076778 
L 320.940284 -164.076778 
L 320.235071 -164.076778 
L 319.529858 -164.076778 
L 318.824645 -164.076778 
L 318.119431 -164.076778 
L 317.414218 -164.076778 
L 316.709005 -164.076778 
L 316.003791 -164.076778 
L 315.298578 -164.076778 
L 314.593365 -164.076778 
L 313.888152 -164.076778 
L 313.182938 -164.076778 
L 312.477725 -164.076778 
L 311.772512 -164.076778 
L 311.067299 -164.076778 
L 310.362085 -164.076778 
L 309.656872 -164.076778 
L 308.951659 -164.076778 
L 308.246445 -164.076778 
L 307.541232 -164.076778 
L 306.836019 -164.076778 
L 306.130806 -164.076778 
L 305.425592 -164.076778 
L 304.720379 -164.076778 
L 304.015166 -164.076778 
L 303.309953 -164.076778 
L 302.604739 -164.076778 
L 301.899526 -164.076778 
L 301.194313 -164.076778 
L 300.4891 -164.076778 
L 299.783886 -164.076778 
L 299.078673 -164.076778 
L 298.37346 -164.076778 
L 297.668246 -164.076778 
L 296.963033 -164.076778 
L 296.25782 -164.076778 
L 295.552607 -164.076778 
L 294.847393 -164.076778 
L 294.14218 -164.076778 
L 293.436967 -164.076778 
L 292.731754 -164.076778 
L 292.02654 -164.076778 
L 291.321327 -164.076778 
L 290.616114 -164.076778 
L 289.9109 -164.076778 
L 289.205687 -164.076778 
L 288.500474 -164.076778 
L 287.795261 -164.076778 
L 287.090047 -164.076778 
L 286.384834 -164.076778 
L 285.679621 -164.076778 
L 284.974408 -164.076778 
L 284.269194 -164.076778 
L 283.563981 -164.076778 
L 282.858768 -164.076778 
L 282.153555 -164.076778 
L 281.448341 -164.076778 
L 280.743128 -164.076778 
L 280.037915 -164.076778 
L 279.332701 -164.076778 
L 278.627488 -164.076778 
L 277.922275 -164.076778 
L 277.217062 -164.076778 
L 276.511848 -164.076778 
L 275.806635 -164.076778 
L 275.101422 -164.076778 
L 274.396209 -164.076778 
L 273.690995 -164.076778 
L 272.985782 -164.076778 
L 272.280569 -164.076778 
L 271.575355 -164.076778 
L 270.870142 -164.076778 
L 270.164929 -164.076778 
L 269.459716 -164.076778 
L 268.754502 -164.076778 
L 268.049289 -164.076778 
L 267.344076 -164.076778 
L 266.638863 -164.076778 
L 265.933649 -164.076778 
L 265.228436 -164.076778 
L 264.523223 -164.076778 
L 263.818009 -164.076778 
L 263.112796 -164.076778 
L 262.407583 -164.076778 
L 261.70237 -164.076778 
L 260.997156 -164.076778 
L 260.291943 -164.076778 
L 259.58673 -164.076778 
L 258.881517 -164.076778 
L 258.176303 -164.076778 
L 257.47109 -164.076778 
L 256.765877 -164.076778 
L 256.060664 -164.076778 
L 255.35545 -164.076778 
L 254.650237 -164.076778 
L 253.945024 -164.076778 
L 253.23981 -164.076778 
L 252.534597 -164.076778 
L 251.829384 -164.076778 
L 251.124171 -164.076778 
L 250.418957 -164.076778 
L 249.713744 -164.076778 
L 249.008531 -164.076778 
L 248.303318 -164.076778 
L 247.598104 -164.076778 
L 246.892891 -164.076778 
L 246.187678 -164.076778 
L 245.482464 -164.076778 
L 244.777251 -164.076778 
L 244.072038 -164.076778 
L 243.366825 -164.076778 
L 242.661611 -164.076778 
L 241.956398 -164.076778 
L 241.251185 -164.076778 
L 240.545972 -164.076778 
L 239.840758 -164.076778 
L 239.135545 -164.076778 
L 238.430332 -164.076778 
L 237.725118 -164.076778 
L 237.019905 -164.076778 
L 236.314692 -164.076778 
L 235.609479 -164.076778 
L 234.904265 -164.076778 
L 234.199052 -164.076778 
L 233.493839 -164.076778 
L 232.788626 -164.076778 
L 232.083412 -164.076778 
L 231.378199 -164.076778 
L 230.672986 -164.076778 
L 229.967773 -164.076778 
L 229.262559 -164.076778 
L 228.557346 -164.076778 
L 227.852133 -164.076778 
L 227.146919 -164.076778 
L 226.441706 -164.076778 
L 225.736493 -164.076778 
L 225.03128 -164.076778 
L 224.326066 -164.076778 
L 223.620853 -164.076778 
L 222.91564 -164.076778 
L 222.210427 -164.076778 
L 221.505213 -164.076778 
L 220.8 -164.076778 
L 220.094787 -164.076778 
L 219.389573 -164.076778 
L 218.68436 -164.076778 
L 217.979147 -164.076778 
L 217.273934 -164.076778 
L 216.56872 -164.076778 
L 215.863507 -164.076778 
L 215.158294 -164.076778 
L 214.453081 -164.076778 
L 213.747867 -164.076778 
L 213.042654 -164.076778 
L 212.337441 -164.076778 
L 211.632227 -164.076778 
L 210.927014 -164.076778 
L 210.221801 -164.076778 
L 209.516588 -164.076778 
L 208.811374 -164.076778 
L 208.106161 -164.076778 
L 207.400948 -164.076778 
L 206.695735 -164.076778 
L 205.990521 -164.076778 
L 205.285308 -164.076778 
L 204.580095 -164.076778 
L 203.874882 -164.076778 
L 203.169668 -164.076778 
L 202.464455 -164.076778 
L 201.759242 -164.076778 
L 201.054028 -164.076778 
L 200.348815 -164.076778 
L 199.643602 -164.076778 
L 198.938389 -164.076778 
L 198.233175 -164.076778 
L 197.527962 -164.076778 
L 196.822749 -164.076778 
L 196.117536 -164.076778 
L 195.412322 -164.076778 
L 194.707109 -164.076778 
L 194.001896 -164.076778 
L 193.296682 -164.076778 
L 192.591469 -164.076778 
L 191.886256 -164.076778 
L 191.181043 -164.076778 
L 190.475829 -164.076778 
L 189.770616 -164.076778 
L 189.065403 -164.076778 
L 188.36019 -164.076778 
L 187.654976 -164.076778 
L 186.949763 -164.076778 
L 186.24455 -164.076778 
L 185.539336 -164.076778 
L 184.834123 -164.076778 
L 184.12891 -164.076778 
L 183.423697 -164.076778 
L 182.718483 -164.076778 
L 182.01327 -164.076778 
L 181.308057 -164.076778 
L 180.602844 -164.076778 
L 179.89763 -164.076778 
L 179.192417 -164.076778 
L 178.487204 -164.076778 
L 177.781991 -164.076778 
L 177.076777 -164.076778 
L 176.371564 -164.076778 
L 175.666351 -164.076778 
L 174.961137 -164.076778 
L 174.255924 -164.076778 
L 173.550711 -164.076778 
L 172.845498 -164.076778 
L 172.140284 -164.076778 
L 171.435071 -164.076778 
L 170.729858 -164.076778 
L 170.024645 -164.076778 
L 169.319431 -164.076778 
L 168.614218 -164.076778 
L 167.909005 -164.076778 
L 167.203791 -164.076778 
L 166.498578 -164.076778 
L 165.793365 -164.076778 
L 165.088152 -164.076778 
L 164.382938 -164.076778 
L 163.677725 -164.076778 
L 162.972512 -164.076778 
L 162.267299 -164.076778 
L 161.562085 -164.076778 
L 160.856872 -164.076778 
L 160.151659 -164.076778 
L 159.446445 -164.076778 
L 158.741232 -164.076778 
L 158.036019 -164.076778 
L 157.330806 -164.076778 
L 156.625592 -164.076778 
L 155.920379 -164.076778 
L 155.215166 -164.076778 
L 154.509953 -164.076778 
L 153.804739 -164.076778 
L 153.099526 -164.076778 
L 152.394313 -164.076778 
L 151.6891 -164.076778 
L 150.983886 -164.076778 
L 150.278673 -164.076778 
L 149.57346 -164.076778 
L 148.868246 -164.076778 
L 148.163033 -164.076778 
L 147.45782 -164.076778 
L 146.752607 -164.076778 
L 146.047393 -164.076778 
L 145.34218 -164.076778 
L 144.636967 -164.076778 
L 143.931754 -164.076778 
L 143.22654 -164.076778 
L 142.521327 -164.076778 
L 141.816114 -164.076778 
L 141.1109 -164.076778 
L 140.405687 -164.076778 
L 139.700474 -164.076778 
L 138.995261 -164.076778 
L 138.290047 -164.076778 
L 137.584834 -164.076778 
L 136.879621 -164.076778 
L 136.174408 -164.076778 
L 135.469194 -164.076778 
L 134.763981 -164.076778 
L 134.058768 -164.076778 
L 133.353555 -164.076778 
L 132.648341 -164.076778 
L 131.943128 -164.076778 
L 131.237915 -164.076778 
L 130.532701 -164.076778 
L 129.827488 -164.076778 
L 129.122275 -164.076778 
L 128.417062 -164.076778 
L 127.711848 -164.076778 
L 127.006635 -164.076778 
L 126.301422 -164.076778 
L 125.596209 -164.076778 
L 124.890995 -164.076778 
L 124.185782 -164.076778 
L 123.480569 -164.076778 
L 122.775355 -164.076778 
L 122.070142 -164.076778 
L 121.364929 -164.076778 
L 120.659716 -164.076778 
L 119.954502 -164.076778 
L 119.249289 -164.076778 
L 118.544076 -164.076778 
L 117.838863 -164.076778 
L 117.133649 -164.076778 
L 116.428436 -164.076778 
L 115.723223 -164.076778 
L 115.018009 -164.076778 
L 114.312796 -164.076778 
L 113.607583 -164.076778 
L 112.90237 -164.076778 
L 112.197156 -164.076778 
L 111.491943 -164.076778 
L 110.78673 -164.076778 
L 110.081517 -164.076778 
L 109.376303 -164.076778 
L 108.67109 -164.076778 
L 107.965877 -164.076778 
L 107.260664 -164.076778 
L 106.55545 -164.076778 
L 105.850237 -164.076778 
L 105.145024 -164.076778 
L 104.43981 -164.076778 
L 103.734597 -164.076778 
L 103.029384 -164.076778 
L 102.324171 -164.076778 
L 101.618957 -164.076778 
L 100.913744 -164.076778 
L 100.208531 -164.076778 
L 99.503318 -164.076778 
L 98.798104 -164.076778 
L 98.092891 -164.076778 
L 97.387678 -164.076778 
L 96.682464 -164.076778 
L 95.977251 -164.076778 
L 95.272038 -164.076778 
L 94.566825 -164.076778 
L 93.861611 -164.076778 
L 93.156398 -164.076778 
L 92.451185 -164.076778 
L 91.745972 -164.076778 
L 91.040758 -164.076778 
L 90.335545 -164.076778 
L 89.630332 -164.076778 
L 88.925118 -164.076778 
L 88.219905 -164.076778 
L 87.514692 -164.076778 
L 86.809479 -164.076778 
L 86.104265 -164.076778 
L 85.399052 -164.076778 
L 84.693839 -164.076778 
L 83.988626 -164.076778 
L 83.283412 -164.076778 
L 82.578199 -164.076778 
L 81.872986 -164.076778 
L 81.167773 -164.076778 
L 80.462559 -164.076778 
L 79.757346 -164.076778 
L 79.052133 -164.076778 
L 78.346919 -164.076778 
L 77.641706 -164.076778 
L 76.936493 -164.076778 
L 76.23128 -164.076778 
L 75.526066 -164.076778 
L 74.820853 -164.076778 
L 74.11564 -164.076778 
L 73.410427 -164.076778 
L 72.705213 -164.076778 
L 72 -164.076778 
z
" id="m6a93410716"/>
    </defs>
    <g clip-path="url(#pd66dc43ca4)">
     <use style="fill-opacity:0.15;" x="0" xlink:href="#m6a93410716" y="360"/>
    </g>
   </g>
   <g id="matplotlib.axis_1">
    <g id="xtick_1">
     <g id="line2d_1">
      <defs>
       <path d="M 0 0 
L 0 3.5 
" id="m989ff16866" style="stroke:#000000;stroke-width:0.8;"/>
      </defs>
      <g>
       <use style="stroke:#000000;stroke-width:0.8;" x="72" xlink:href="#m989ff16866" y="320.4"/>
      </g>
     </g>
     <g id="text_1">
      <!-- 0.0 -->
      <g transform="translate(60.867812 338.037813)scale(0.14 -0.14)">
       <defs>
        <path d="M 2034 4250 
Q 1547 4250 1301 3770 
Q 1056 3291 1056 2328 
Q 1056 1369 1301 889 
Q 1547 409 2034 409 
Q 2525 409 2770 889 
Q 3016 1369 3016 2328 
Q 3016 3291 2770 3770 
Q 2525 4250 2034 4250 
z
M 2034 4750 
Q 2819 4750 3233 4129 
Q 3647 3509 3647 2328 
Q 3647 1150 3233 529 
Q 2819 -91 2034 -91 
Q 1250 -91 836 529 
Q 422 1150 422 2328 
Q 422 3509 836 4129 
Q 1250 4750 2034 4750 
z
" id="DejaVuSans-30" transform="scale(0.015625)"/>
        <path d="M 684 794 
L 1344 794 
L 1344 0 
L 684 0 
L 684 794 
z
" id="DejaVuSans-2e" transform="scale(0.015625)"/>
       </defs>
       <use xlink:href="#DejaVuSans-30"/>
       <use x="63.623047" xlink:href="#DejaVuSans-2e"/>
       <use x="95.410156" xlink:href="#DejaVuSans-30"/>
      </g>
     </g>
    </g>
    <g id="xtick_2">
     <g id="line2d_2">
      <g>
       <use style="stroke:#000000;stroke-width:0.8;" x="127.816745" xlink:href="#m989ff16866" y="320.4"/>
      </g>
     </g>
     <g id="text_2">
      <!-- 2.5 -->
      <g transform="translate(116.684558 338.037813)scale(0.14 -0.14)">
       <defs>
        <path d="M 1228 531 
L 3431 531 
L 3431 0 
L 469 0 
L 469 531 
Q 828 903 1448 1529 
Q 2069 2156 2228 2338 
Q 2531 2678 2651 2914 
Q 2772 3150 2772 3378 
Q 2772 3750 2511 3984 
Q 2250 4219 1831 4219 
Q 1534 4219 1204 4116 
Q 875 4013 500 3803 
L 500 4441 
Q 881 4594 1212 4672 
Q 1544 4750 1819 4750 
Q 2544 4750 2975 4387 
Q 3406 4025 3406 3419 
Q 3406 3131 3298 2873 
Q 3191 2616 2906 2266 
Q 2828 2175 2409 1742 
Q 1991 1309 1228 531 
z
" id="DejaVuSans-32" transform="scale(0.015625)"/>
        <path d="M 691 4666 
L 3169 4666 
L 3169 4134 
L 1269 4134 
L 1269 2991 
Q 1406 3038 1543 3061 
Q 1681 3084 1819 3084 
Q 2600 3084 3056 2656 
Q 3513 2228 3513 1497 
Q 3513 744 3044 326 
Q 2575 -91 1722 -91 
Q 1428 -91 1123 -41 
Q 819 9 494 109 
L 494 744 
Q 775 591 1075 516 
Q 1375 441 1709 441 
Q 2250 441 2565 725 
Q 2881 1009 2881 1497 
Q 2881 1984 2565 2268 
Q 2250 2553 1709 2553 
Q 1456 2553 1204 2497 
Q 953 2441 691 2322 
L 691 4666 
z
" id="DejaVuSans-35" transform="scale(0.015625)"/>
       </defs>
       <use xlink:href="#DejaVuSans-32"/>
       <use x="63.623047" xlink:href="#DejaVuSans-2e"/>
       <use x="95.410156" xlink:href="#DejaVuSans-35"/>
      </g>
     </g>
    </g>
    <g id="xtick_3">
     <g id="line2d_3">
      <g>
       <use style="stroke:#000000;stroke-width:0.8;" x="183.63349" xlink:href="#m989ff16866" y="320.4"/>
      </g>
     </g>
     <g id="text_3">
      <!-- 5.0 -->
      <g transform="translate(172.501303 338.037813)scale(0.14 -0.14)">
       <use xlink:href="#DejaVuSans-35"/>
       <use x="63.623047" xlink:href="#DejaVuSans-2e"/>
       <use x="95.410156" xlink:href="#DejaVuSans-30"/>
      </g>
     </g>
    </g>
    <g id="xtick_4">
     <g id="line2d_4">
      <g>
       <use style="stroke:#000000;stroke-width:0.8;" x="239.450235" xlink:href="#m989ff16866" y="320.4"/>
      </g>
     </g>
     <g id="text_4">
      <!-- 7.5 -->
      <g transform="translate(228.318048 338.037813)scale(0.14 -0.14)">
       <defs>
        <path d="M 525 4666 
L 3525 4666 
L 3525 4397 
L 1831 0 
L 1172 0 
L 2766 4134 
L 525 4134 
L 525 4666 
z
" id="DejaVuSans-37" transform="scale(0.015625)"/>
       </defs>
       <use xlink:href="#DejaVuSans-37"/>
       <use x="63.623047" xlink:href="#DejaVuSans-2e"/>
       <use x="95.410156" xlink:href="#DejaVuSans-35"/>
      </g>
     </g>
    </g>
    <g id="xtick_5">
     <g id="line2d_5">
      <g>
       <use style="stroke:#000000;stroke-width:0.8;" x="295.26698" xlink:href="#m989ff16866" y="320.4"/>
      </g>
     </g>
     <g id="text_5">
      <!-- 10.0 -->
      <g transform="translate(279.681043 338.037813)scale(0.14 -0.14)">
       <defs>
        <path d="M 794 531 
L 1825 531 
L 1825 4091 
L 703 3866 
L 703 4441 
L 1819 4666 
L 2450 4666 
L 2450 531 
L 3481 531 
L 3481 0 
L 794 0 
L 794 531 
z
" id="DejaVuSans-31" transform="scale(0.015625)"/>
       </defs>
       <use xlink:href="#DejaVuSans-31"/>
       <use x="63.623047" xlink:href="#DejaVuSans-30"/>
       <use x="127.246094" xlink:href="#DejaVuSans-2e"/>
       <use x="159.033203" xlink:href="#DejaVuSans-30"/>
      </g>
     </g>
    </g>
    <g id="xtick_6">
     <g id="line2d_6">
      <g>
       <use style="stroke:#000000;stroke-width:0.8;" x="351.083725" xlink:href="#m989ff16866" y="320.4"/>
      </g>
     </g>
     <g id="text_6">
      <!-- 12.5 -->
      <g transform="translate(335.497788 338.037813)scale(0.14 -0.14)">
       <use xlink:href="#DejaVuSans-31"/>
       <use x="63.623047" xlink:href="#DejaVuSans-32"/>
       <use x="127.246094" xlink:href="#DejaVuSans-2e"/>
       <use x="159.033203" xlink:href="#DejaVuSans-35"/>
      </g>
     </g>
    </g>
    <g id="xtick_7">
     <g id="line2d_7">
      <g>
       <use style="stroke:#000000;stroke-width:0.8;" x="406.90047" xlink:href="#m989ff16866" y="320.4"/>
      </g>
     </g>
     <g id="text_7">
      <!-- 15.0 -->
      <g transform="translate(391.314533 338.037813)scale(0.14 -0.14)">
       <use xlink:href="#DejaVuSans-31"/>
       <use x="63.623047" xlink:href="#DejaVuSans-35"/>
       <use x="127.246094" xlink:href="#DejaVuSans-2e"/>
       <use x="159.033203" xlink:href="#DejaVuSans-30"/>
      </g>
     </g>
    </g>
    <g id="xtick_8">
     <g id="line2d_8">
      <g>
       <use style="stroke:#000000;stroke-width:0.8;" x="462.717215" xlink:href="#m989ff16866" y="320.4"/>
      </g>
     </g>
     <g id="text_8">
      <!-- 17.5 -->
      <g transform="translate(447.131278 338.037813)scale(0.14 -0.14)">
       <use xlink:href="#DejaVuSans-31"/>
       <use x="63.623047" xlink:href="#DejaVuSans-37"/>
       <use x="127.246094" xlink:href="#DejaVuSans-2e"/>
       <use x="159.033203" xlink:href="#DejaVuSans-35"/>
      </g>
     </g>
    </g>
    <g id="text_9">
     <!-- Time [Seconds] -->
     <g transform="translate(233.23 357.106875)scale(0.16 -0.16)">
      <defs>
       <path d="M -19 4666 
L 3928 4666 
L 3928 4134 
L 2272 4134 
L 2272 0 
L 1638 0 
L 1638 4134 
L -19 4134 
L -19 4666 
z
" id="DejaVuSans-54" transform="scale(0.015625)"/>
       <path d="M 603 3500 
L 1178 3500 
L 1178 0 
L 603 0 
L 603 3500 
z
M 603 4863 
L 1178 4863 
L 1178 4134 
L 603 4134 
L 603 4863 
z
" id="DejaVuSans-69" transform="scale(0.015625)"/>
       <path d="M 3328 2828 
Q 3544 3216 3844 3400 
Q 4144 3584 4550 3584 
Q 5097 3584 5394 3201 
Q 5691 2819 5691 2113 
L 5691 0 
L 5113 0 
L 5113 2094 
Q 5113 2597 4934 2840 
Q 4756 3084 4391 3084 
Q 3944 3084 3684 2787 
Q 3425 2491 3425 1978 
L 3425 0 
L 2847 0 
L 2847 2094 
Q 2847 2600 2669 2842 
Q 2491 3084 2119 3084 
Q 1678 3084 1418 2786 
Q 1159 2488 1159 1978 
L 1159 0 
L 581 0 
L 581 3500 
L 1159 3500 
L 1159 2956 
Q 1356 3278 1631 3431 
Q 1906 3584 2284 3584 
Q 2666 3584 2933 3390 
Q 3200 3197 3328 2828 
z
" id="DejaVuSans-6d" transform="scale(0.015625)"/>
       <path d="M 3597 1894 
L 3597 1613 
L 953 1613 
Q 991 1019 1311 708 
Q 1631 397 2203 397 
Q 2534 397 2845 478 
Q 3156 559 3463 722 
L 3463 178 
Q 3153 47 2828 -22 
Q 2503 -91 2169 -91 
Q 1331 -91 842 396 
Q 353 884 353 1716 
Q 353 2575 817 3079 
Q 1281 3584 2069 3584 
Q 2775 3584 3186 3129 
Q 3597 2675 3597 1894 
z
M 3022 2063 
Q 3016 2534 2758 2815 
Q 2500 3097 2075 3097 
Q 1594 3097 1305 2825 
Q 1016 2553 972 2059 
L 3022 2063 
z
" id="DejaVuSans-65" transform="scale(0.015625)"/>
       <path id="DejaVuSans-20" transform="scale(0.015625)"/>
       <path d="M 550 4863 
L 1875 4863 
L 1875 4416 
L 1125 4416 
L 1125 -397 
L 1875 -397 
L 1875 -844 
L 550 -844 
L 550 4863 
z
" id="DejaVuSans-5b" transform="scale(0.015625)"/>
       <path d="M 3425 4513 
L 3425 3897 
Q 3066 4069 2747 4153 
Q 2428 4238 2131 4238 
Q 1616 4238 1336 4038 
Q 1056 3838 1056 3469 
Q 1056 3159 1242 3001 
Q 1428 2844 1947 2747 
L 2328 2669 
Q 3034 2534 3370 2195 
Q 3706 1856 3706 1288 
Q 3706 609 3251 259 
Q 2797 -91 1919 -91 
Q 1588 -91 1214 -16 
Q 841 59 441 206 
L 441 856 
Q 825 641 1194 531 
Q 1563 422 1919 422 
Q 2459 422 2753 634 
Q 3047 847 3047 1241 
Q 3047 1584 2836 1778 
Q 2625 1972 2144 2069 
L 1759 2144 
Q 1053 2284 737 2584 
Q 422 2884 422 3419 
Q 422 4038 858 4394 
Q 1294 4750 2059 4750 
Q 2388 4750 2728 4690 
Q 3069 4631 3425 4513 
z
" id="DejaVuSans-53" transform="scale(0.015625)"/>
       <path d="M 3122 3366 
L 3122 2828 
Q 2878 2963 2633 3030 
Q 2388 3097 2138 3097 
Q 1578 3097 1268 2742 
Q 959 2388 959 1747 
Q 959 1106 1268 751 
Q 1578 397 2138 397 
Q 2388 397 2633 464 
Q 2878 531 3122 666 
L 3122 134 
Q 2881 22 2623 -34 
Q 2366 -91 2075 -91 
Q 1284 -91 818 406 
Q 353 903 353 1747 
Q 353 2603 823 3093 
Q 1294 3584 2113 3584 
Q 2378 3584 2631 3529 
Q 2884 3475 3122 3366 
z
" id="DejaVuSans-63" transform="scale(0.015625)"/>
       <path d="M 1959 3097 
Q 1497 3097 1228 2736 
Q 959 2375 959 1747 
Q 959 1119 1226 758 
Q 1494 397 1959 397 
Q 2419 397 2687 759 
Q 2956 1122 2956 1747 
Q 2956 2369 2687 2733 
Q 2419 3097 1959 3097 
z
M 1959 3584 
Q 2709 3584 3137 3096 
Q 3566 2609 3566 1747 
Q 3566 888 3137 398 
Q 2709 -91 1959 -91 
Q 1206 -91 779 398 
Q 353 888 353 1747 
Q 353 2609 779 3096 
Q 1206 3584 1959 3584 
z
" id="DejaVuSans-6f" transform="scale(0.015625)"/>
       <path d="M 3513 2113 
L 3513 0 
L 2938 0 
L 2938 2094 
Q 2938 2591 2744 2837 
Q 2550 3084 2163 3084 
Q 1697 3084 1428 2787 
Q 1159 2491 1159 1978 
L 1159 0 
L 581 0 
L 581 3500 
L 1159 3500 
L 1159 2956 
Q 1366 3272 1645 3428 
Q 1925 3584 2291 3584 
Q 2894 3584 3203 3211 
Q 3513 2838 3513 2113 
z
" id="DejaVuSans-6e" transform="scale(0.015625)"/>
       <path d="M 2906 2969 
L 2906 4863 
L 3481 4863 
L 3481 0 
L 2906 0 
L 2906 525 
Q 2725 213 2448 61 
Q 2172 -91 1784 -91 
Q 1150 -91 751 415 
Q 353 922 353 1747 
Q 353 2572 751 3078 
Q 1150 3584 1784 3584 
Q 2172 3584 2448 3432 
Q 2725 3281 2906 2969 
z
M 947 1747 
Q 947 1113 1208 752 
Q 1469 391 1925 391 
Q 2381 391 2643 752 
Q 2906 1113 2906 1747 
Q 2906 2381 2643 2742 
Q 2381 3103 1925 3103 
Q 1469 3103 1208 2742 
Q 947 2381 947 1747 
z
" id="DejaVuSans-64" transform="scale(0.015625)"/>
       <path d="M 2834 3397 
L 2834 2853 
Q 2591 2978 2328 3040 
Q 2066 3103 1784 3103 
Q 1356 3103 1142 2972 
Q 928 2841 928 2578 
Q 928 2378 1081 2264 
Q 1234 2150 1697 2047 
L 1894 2003 
Q 2506 1872 2764 1633 
Q 3022 1394 3022 966 
Q 3022 478 2636 193 
Q 2250 -91 1575 -91 
Q 1294 -91 989 -36 
Q 684 19 347 128 
L 347 722 
Q 666 556 975 473 
Q 1284 391 1588 391 
Q 1994 391 2212 530 
Q 2431 669 2431 922 
Q 2431 1156 2273 1281 
Q 2116 1406 1581 1522 
L 1381 1569 
Q 847 1681 609 1914 
Q 372 2147 372 2553 
Q 372 3047 722 3315 
Q 1072 3584 1716 3584 
Q 2034 3584 2315 3537 
Q 2597 3491 2834 3397 
z
" id="DejaVuSans-73" transform="scale(0.015625)"/>
       <path d="M 1947 4863 
L 1947 -844 
L 622 -844 
L 622 -397 
L 1369 -397 
L 1369 4416 
L 622 4416 
L 622 4863 
L 1947 4863 
z
" id="DejaVuSans-5d" transform="scale(0.015625)"/>
      </defs>
      <use xlink:href="#DejaVuSans-54"/>
      <use x="57.958984" xlink:href="#DejaVuSans-69"/>
      <use x="85.742188" xlink:href="#DejaVuSans-6d"/>
      <use x="183.154297" xlink:href="#DejaVuSans-65"/>
      <use x="244.677734" xlink:href="#DejaVuSans-20"/>
      <use x="276.464844" xlink:href="#DejaVuSans-5b"/>
      <use x="315.478516" xlink:href="#DejaVuSans-53"/>
      <use x="378.955078" xlink:href="#DejaVuSans-65"/>
      <use x="440.478516" xlink:href="#DejaVuSans-63"/>
      <use x="495.458984" xlink:href="#DejaVuSans-6f"/>
      <use x="556.640625" xlink:href="#DejaVuSans-6e"/>
      <use x="620.019531" xlink:href="#DejaVuSans-64"/>
      <use x="683.496094" xlink:href="#DejaVuSans-73"/>
      <use x="735.595703" xlink:href="#DejaVuSans-5d"/>
     </g>
    </g>
   </g>
   <g id="matplotlib.axis_2">
    <g id="ytick_1">
     <g id="line2d_9">
      <defs>
       <path d="M 0 0 
L -3.5 0 
" id="m255ffd8736" style="stroke:#000000;stroke-width:0.8;"/>
      </defs>
      <g>
       <use style="stroke:#000000;stroke-width:0.8;" x="72" xlink:href="#m255ffd8736" y="273.401085"/>
      </g>
     </g>
     <g id="text_10">
      <!-- 0.0 -->
      <g transform="translate(42.735625 278.719991)scale(0.14 -0.14)">
       <use xlink:href="#DejaVuSans-30"/>
       <use x="63.623047" xlink:href="#DejaVuSans-2e"/>
       <use x="95.410156" xlink:href="#DejaVuSans-30"/>
      </g>
     </g>
    </g>
    <g id="ytick_2">
     <g id="line2d_10">
      <g>
       <use style="stroke:#000000;stroke-width:0.8;" x="72" xlink:href="#m255ffd8736" y="218.525353"/>
      </g>
     </g>
     <g id="text_11">
      <!-- 0.5 -->
      <g transform="translate(42.735625 223.844259)scale(0.14 -0.14)">
       <use xlink:href="#DejaVuSans-30"/>
       <use x="63.623047" xlink:href="#DejaVuSans-2e"/>
       <use x="95.410156" xlink:href="#DejaVuSans-35"/>
      </g>
     </g>
    </g>
    <g id="ytick_3">
     <g id="line2d_11">
      <g>
       <use style="stroke:#000000;stroke-width:0.8;" x="72" xlink:href="#m255ffd8736" y="163.64962"/>
      </g>
     </g>
     <g id="text_12">
      <!-- 1.0 -->
      <g transform="translate(42.735625 168.968527)scale(0.14 -0.14)">
       <use xlink:href="#DejaVuSans-31"/>
       <use x="63.623047" xlink:href="#DejaVuSans-2e"/>
       <use x="95.410156" xlink:href="#DejaVuSans-30"/>
      </g>
     </g>
    </g>
    <g id="ytick_4">
     <g id="line2d_12">
      <g>
       <use style="stroke:#000000;stroke-width:0.8;" x="72" xlink:href="#m255ffd8736" y="108.773888"/>
      </g>
     </g>
     <g id="text_13">
      <!-- 1.5 -->
      <g transform="translate(42.735625 114.092794)scale(0.14 -0.14)">
       <use xlink:href="#DejaVuSans-31"/>
       <use x="63.623047" xlink:href="#DejaVuSans-2e"/>
       <use x="95.410156" xlink:href="#DejaVuSans-35"/>
      </g>
     </g>
    </g>
    <g id="ytick_5">
     <g id="line2d_13">
      <g>
       <use style="stroke:#000000;stroke-width:0.8;" x="72" xlink:href="#m255ffd8736" y="53.898156"/>
      </g>
     </g>
     <g id="text_14">
      <!-- 2.0 -->
      <g transform="translate(42.735625 59.217062)scale(0.14 -0.14)">
       <use xlink:href="#DejaVuSans-32"/>
       <use x="63.623047" xlink:href="#DejaVuSans-2e"/>
       <use x="95.410156" xlink:href="#DejaVuSans-30"/>
      </g>
     </g>
    </g>
    <g id="text_15">
     <!-- Speed [mm/s] -->
     <g transform="translate(35.408125 238.11375)rotate(-90)scale(0.16 -0.16)">
      <defs>
       <path d="M 1159 525 
L 1159 -1331 
L 581 -1331 
L 581 3500 
L 1159 3500 
L 1159 2969 
Q 1341 3281 1617 3432 
Q 1894 3584 2278 3584 
Q 2916 3584 3314 3078 
Q 3713 2572 3713 1747 
Q 3713 922 3314 415 
Q 2916 -91 2278 -91 
Q 1894 -91 1617 61 
Q 1341 213 1159 525 
z
M 3116 1747 
Q 3116 2381 2855 2742 
Q 2594 3103 2138 3103 
Q 1681 3103 1420 2742 
Q 1159 2381 1159 1747 
Q 1159 1113 1420 752 
Q 1681 391 2138 391 
Q 2594 391 2855 752 
Q 3116 1113 3116 1747 
z
" id="DejaVuSans-70" transform="scale(0.015625)"/>
       <path d="M 1625 4666 
L 2156 4666 
L 531 -594 
L 0 -594 
L 1625 4666 
z
" id="DejaVuSans-2f" transform="scale(0.015625)"/>
      </defs>
      <use xlink:href="#DejaVuSans-53"/>
      <use x="63.476562" xlink:href="#DejaVuSans-70"/>
      <use x="126.953125" xlink:href="#DejaVuSans-65"/>
      <use x="188.476562" xlink:href="#DejaVuSans-65"/>
      <use x="250" xlink:href="#DejaVuSans-64"/>
      <use x="313.476562" xlink:href="#DejaVuSans-20"/>
      <use x="345.263672" xlink:href="#DejaVuSans-5b"/>
      <use x="384.277344" xlink:href="#DejaVuSans-6d"/>
      <use x="481.689453" xlink:href="#DejaVuSans-6d"/>
      <use x="579.101562" xlink:href="#DejaVuSans-2f"/>
      <use x="612.792969" xlink:href="#DejaVuSans-73"/>
      <use x="664.892578" xlink:href="#DejaVuSans-5d"/>
     </g>
    </g>
   </g>
   <g id="line2d_14">
    <path clip-path="url(#pd66dc43ca4)" d="M 72 193.155783 
L 518.4 193.155783 
" style="fill:none;stroke:#000000;stroke-dasharray:5.55,2.4;stroke-dashoffset:0;stroke-width:1.5;"/>
   </g>
   <g id="line2d_15">
    <path clip-path="url(#pd66dc43ca4)" d="M 72 271.049268 
L 121.364929 271.09814 
L 122.070142 270.797561 
L 122.775355 272.009778 
L 123.480569 271.233955 
L 124.185782 268.138933 
L 124.890995 267.623747 
L 125.596209 271.183801 
L 126.301422 272.48603 
L 127.006635 270.727414 
L 127.711848 272.762756 
L 128.417062 253.008976 
L 129.122275 256.162352 
L 129.827488 290.283477 
L 130.532701 304.456798 
L 131.237915 307.8 
L 131.943128 300.609563 
L 132.648341 286.051214 
L 133.353555 265.81212 
L 134.763981 213.551475 
L 136.879621 128.843109 
L 138.290047 85.774009 
L 138.995261 69.880951 
L 139.700474 60.251501 
L 140.405687 55.8 
L 141.1109 56.82058 
L 141.816114 62.78343 
L 142.521327 74.856727 
L 143.931754 107.404943 
L 145.34218 146.404212 
L 147.45782 195.544839 
L 148.163033 199.29759 
L 148.868246 192.370697 
L 149.57346 178.200847 
L 150.278673 152.350261 
L 150.983886 159.905525 
L 151.6891 182.862289 
L 152.394313 181.512732 
L 153.804739 185.85918 
L 155.920379 188.627802 
L 156.625592 187.58108 
L 157.330806 187.939942 
L 158.036019 189.126116 
L 158.741232 187.843989 
L 159.446445 188.16957 
L 160.151659 186.721061 
L 160.856872 185.847405 
L 161.562085 188.683055 
L 162.267299 189.086853 
L 162.972512 189.047588 
L 163.677725 190.206448 
L 164.382938 192.666673 
L 165.088152 193.303787 
L 165.793365 189.293429 
L 166.498578 189.709217 
L 167.203791 189.882447 
L 167.909005 188.677081 
L 168.614218 188.998753 
L 169.319431 187.929969 
L 170.024645 189.830116 
L 170.729858 189.267632 
L 171.435071 188.441178 
L 172.140284 191.23822 
L 172.845498 189.800791 
L 173.550711 189.095791 
L 174.961137 193.231204 
L 175.666351 194.124735 
L 176.371564 192.503609 
L 177.076777 192.658871 
L 177.781991 193.391556 
L 178.487204 192.790942 
L 179.192417 193.47529 
L 179.89763 193.654488 
L 180.602844 193.116161 
L 181.308057 193.634583 
L 182.01327 192.624608 
L 182.718483 192.601831 
L 183.423697 194.558375 
L 184.12891 193.561725 
L 184.834123 192.233282 
L 186.24455 191.777615 
L 186.949763 192.386425 
L 187.654976 191.963087 
L 188.36019 191.75885 
L 189.065403 190.926415 
L 189.770616 190.290973 
L 190.475829 191.913554 
L 191.181043 193.036387 
L 191.886256 193.587767 
L 192.591469 193.036114 
L 193.296682 191.919262 
L 194.001896 192.251822 
L 194.707109 191.287825 
L 195.412322 191.528956 
L 196.117536 194.790555 
L 196.822749 196.935829 
L 198.233175 193.987605 
L 198.938389 195.897858 
L 199.643602 197.056656 
L 201.054028 192.202984 
L 201.759242 192.494707 
L 202.464455 193.050903 
L 203.169668 193.246691 
L 203.874882 193.689873 
L 204.580095 193.095604 
L 205.285308 193.692722 
L 205.990521 193.466971 
L 206.695735 191.404311 
L 207.400948 190.629853 
L 208.106161 190.360668 
L 209.516588 192.824921 
L 210.221801 191.287913 
L 210.927014 189.467716 
L 211.632227 191.378144 
L 212.337441 193.670648 
L 213.042654 193.31045 
L 213.747867 192.213471 
L 214.453081 192.841371 
L 215.158294 194.430731 
L 215.863507 194.423429 
L 216.56872 193.460164 
L 217.273934 192.77511 
L 217.979147 194.489509 
L 218.68436 195.723661 
L 219.389573 193.88687 
L 220.094787 194.397011 
L 220.8 195.392048 
L 221.505213 195.618453 
L 222.210427 194.806952 
L 222.91564 194.408854 
L 224.326066 194.813589 
L 225.03128 195.735429 
L 225.736493 195.402235 
L 226.441706 193.745984 
L 227.146919 194.204674 
L 227.852133 193.91771 
L 228.557346 192.344443 
L 229.262559 194.200197 
L 229.967773 195.481821 
L 230.672986 194.573216 
L 231.378199 193.974247 
L 232.083412 194.476609 
L 232.788626 192.455256 
L 233.493839 192.246816 
L 234.199052 193.659537 
L 235.609479 192.514023 
L 236.314692 191.679265 
L 237.019905 191.861897 
L 237.725118 191.896855 
L 238.430332 191.501662 
L 239.135545 191.588787 
L 239.840758 192.101003 
L 240.545972 193.333338 
L 241.956398 191.066448 
L 242.661611 191.103353 
L 243.366825 193.180476 
L 244.072038 194.053205 
L 244.777251 192.429119 
L 245.482464 191.301838 
L 246.187678 192.273032 
L 246.892891 194.098353 
L 247.598104 193.869147 
L 248.303318 192.814961 
L 249.008531 192.983812 
L 249.713744 194.127834 
L 250.418957 194.392282 
L 251.829384 195.503474 
L 252.534597 194.638169 
L 253.23981 194.17412 
L 253.945024 194.724276 
L 254.650237 193.530562 
L 256.060664 196.854104 
L 256.765877 195.64878 
L 257.47109 194.748364 
L 258.176303 193.390728 
L 258.881517 194.127612 
L 259.58673 195.141541 
L 260.291943 192.898874 
L 260.997156 192.910354 
L 261.70237 193.683235 
L 262.407583 192.448103 
L 263.112796 190.862587 
L 264.523223 193.543934 
L 265.228436 194.045267 
L 265.933649 192.957612 
L 266.638863 192.270233 
L 267.344076 192.286144 
L 268.049289 191.922165 
L 268.754502 193.867278 
L 269.459716 195.028968 
L 270.164929 193.371878 
L 270.870142 192.974394 
L 271.575355 195.755151 
L 272.280569 196.179199 
L 272.985782 194.648156 
L 273.690995 194.68024 
L 274.396209 194.344649 
L 275.101422 193.152506 
L 275.806635 190.997715 
L 276.511848 191.856446 
L 277.217062 194.702289 
L 277.922275 193.303404 
L 278.627488 191.330935 
L 279.332701 191.956752 
L 280.037915 193.656654 
L 281.448341 193.537796 
L 282.153555 193.631831 
L 283.563981 196.300724 
L 284.269194 195.305467 
L 284.974408 194.524505 
L 285.679621 194.979484 
L 286.384834 194.715036 
L 287.795261 193.281409 
L 288.500474 193.270667 
L 289.205687 192.439331 
L 289.9109 191.316162 
L 290.616114 192.721735 
L 291.321327 191.689982 
L 292.02654 188.908082 
L 292.731754 189.374673 
L 293.436967 191.96356 
L 294.14218 192.315236 
L 294.847393 192.453836 
L 295.552607 193.09453 
L 296.25782 191.418184 
L 296.963033 191.290142 
L 297.668246 191.853308 
L 298.37346 193.801687 
L 299.078673 195.32782 
L 299.783886 194.876871 
L 300.4891 195.208443 
L 301.194313 195.311939 
L 301.899526 194.318571 
L 302.604739 192.871961 
L 303.309953 192.088912 
L 304.015166 193.28223 
L 304.720379 193.609016 
L 305.425592 193.695601 
L 306.130806 195.176467 
L 306.836019 193.281455 
L 307.541232 192.885533 
L 308.246445 192.630463 
L 308.951659 192.14782 
L 309.656872 193.650132 
L 310.362085 194.22305 
L 311.772512 196.785742 
L 312.477725 196.355938 
L 313.182938 193.739129 
L 313.888152 193.09541 
L 314.593365 192.847559 
L 315.298578 193.019075 
L 316.003791 193.978751 
L 316.709005 195.586491 
L 317.414218 195.100224 
L 318.119431 192.468948 
L 318.824645 192.885988 
L 319.529858 193.071666 
L 320.235071 191.693711 
L 320.940284 191.779339 
L 321.645498 193.13861 
L 322.350711 194.8216 
L 323.055924 194.976369 
L 323.761137 193.633917 
L 324.466351 195.06939 
L 325.171564 194.353571 
L 325.876777 192.901103 
L 326.581991 192.382222 
L 327.287204 192.892743 
L 327.992417 195.734554 
L 329.402844 192.352339 
L 330.108057 192.404302 
L 330.81327 192.214243 
L 331.518483 192.663712 
L 332.223697 191.670983 
L 332.92891 192.695866 
L 333.634123 194.440266 
L 334.339336 194.539508 
L 335.04455 194.121428 
L 335.749763 193.494391 
L 336.454976 191.30328 
L 337.16019 191.42891 
L 337.865403 193.934779 
L 338.570616 195.25562 
L 339.275829 195.344269 
L 339.981043 196.192929 
L 340.686256 196.099248 
L 341.391469 194.148472 
L 342.096682 192.669 
L 342.801896 191.839793 
L 343.507109 191.932836 
L 344.212322 192.832223 
L 344.917536 192.859744 
L 345.622749 193.724513 
L 346.327962 195.368135 
L 347.738389 191.513987 
L 348.443602 190.949867 
L 349.148815 191.871888 
L 349.854028 193.913764 
L 350.559242 193.731083 
L 351.264455 194.386329 
L 351.969668 196.751682 
L 352.674882 195.887536 
L 354.085308 193.119158 
L 354.790521 192.559342 
L 355.495735 192.991113 
L 356.200948 193.699359 
L 356.906161 194.053457 
L 357.611374 193.162453 
L 358.316588 192.806954 
L 359.727014 192.800924 
L 360.432227 191.740011 
L 361.137441 191.662381 
L 361.842654 194.439609 
L 362.547867 194.388892 
L 363.253081 193.761758 
L 363.958294 193.860203 
L 364.663507 192.241207 
L 366.073934 192.058665 
L 366.779147 193.007306 
L 367.48436 195.221283 
L 368.189573 195.400053 
L 368.894787 195.188365 
L 369.6 195.540863 
L 370.305213 193.921748 
L 371.010427 192.975041 
L 371.71564 193.013949 
L 372.420853 192.396879 
L 373.126066 193.180379 
L 373.83128 195.407025 
L 374.536493 195.82226 
L 376.652133 191.810231 
L 377.357346 190.523703 
L 378.062559 191.195014 
L 379.472986 194.733512 
L 380.178199 195.837512 
L 380.883412 194.673764 
L 381.588626 193.767796 
L 382.293839 192.541145 
L 382.999052 192.922151 
L 383.704265 194.147869 
L 384.409479 194.263093 
L 385.114692 194.671387 
L 385.819905 193.831774 
L 386.525118 194.001302 
L 387.230332 195.171272 
L 387.935545 192.903685 
L 388.640758 191.914952 
L 389.345972 194.114132 
L 390.756398 194.332043 
L 391.461611 195.308715 
L 392.166825 195.27391 
L 392.872038 194.450957 
L 393.577251 192.732263 
L 394.282464 191.329048 
L 394.987678 191.017129 
L 395.692891 192.751865 
L 396.398104 194.152617 
L 397.103318 192.338471 
L 397.808531 191.623693 
L 398.513744 191.942403 
L 399.218957 190.753751 
L 399.924171 190.160455 
L 400.629384 192.546565 
L 401.334597 195.343067 
L 402.03981 193.901943 
L 402.745024 194.326465 
L 403.450237 195.743315 
L 404.15545 194.971861 
L 404.860664 194.96073 
L 405.565877 194.34603 
L 406.27109 194.676829 
L 406.976303 194.591992 
L 407.681517 192.872401 
L 409.091943 195.831397 
L 409.797156 194.11516 
L 410.50237 193.956556 
L 411.207583 195.256492 
L 412.618009 193.528817 
L 413.323223 194.790528 
L 414.028436 195.418544 
L 414.733649 194.100814 
L 415.438863 191.828693 
L 416.144076 190.310235 
L 416.849289 189.69422 
L 417.554502 189.840515 
L 418.259716 191.399528 
L 418.964929 191.746122 
L 419.670142 190.864427 
L 420.375355 191.60695 
L 421.080569 193.151688 
L 421.785782 193.218687 
L 422.490995 193.486136 
L 423.196209 194.823726 
L 423.901422 194.463086 
L 424.606635 195.853162 
L 425.311848 196.848464 
L 426.017062 196.662432 
L 426.722275 197.334184 
L 427.427488 196.315993 
L 429.543128 191.032293 
L 430.248341 190.787354 
L 430.953555 190.957988 
L 431.658768 190.300235 
L 432.363981 191.17741 
L 433.069194 190.671708 
L 433.774408 191.146946 
L 435.184834 195.427783 
L 435.890047 196.392501 
L 436.595261 196.923883 
L 437.300474 196.952693 
L 438.005687 195.078389 
L 438.7109 194.74854 
L 439.416114 193.499739 
L 440.121327 193.868008 
L 440.82654 194.983926 
L 441.531754 191.466733 
L 442.236967 191.643563 
L 442.94218 193.978211 
L 443.647393 192.995869 
L 444.352607 191.317744 
L 445.05782 192.05854 
L 445.763033 192.1931 
L 446.468246 192.498016 
L 447.17346 193.834176 
L 447.878673 192.634571 
L 448.583886 193.386621 
L 449.2891 193.783932 
L 449.994313 192.695054 
L 451.404739 192.685999 
L 452.109953 192.633274 
L 452.815166 192.800589 
L 453.520379 191.985705 
L 454.225592 191.90286 
L 454.930806 192.207843 
L 455.636019 193.258162 
L 456.341232 195.122569 
L 457.751659 196.362372 
L 458.456872 197.888654 
L 459.162085 197.933252 
L 459.867299 194.385511 
L 460.572512 194.612218 
L 461.277725 194.423251 
L 461.982938 192.846175 
L 462.688152 192.543069 
L 463.393365 189.968541 
L 464.098578 189.909219 
L 464.803791 190.845938 
L 465.509005 190.847794 
L 466.214218 190.409933 
L 466.919431 191.079802 
L 467.624645 193.122522 
L 468.329858 195.556087 
L 469.035071 197.216628 
L 469.740284 195.675938 
L 470.445498 195.556123 
L 471.150711 196.899042 
L 472.561137 195.605847 
L 473.266351 196.391059 
L 473.971564 195.700207 
L 474.676777 193.825199 
L 475.381991 190.615958 
L 476.087204 189.680803 
L 476.792417 191.136938 
L 477.49763 191.182647 
L 479.61327 192.435534 
L 480.318483 193.431966 
L 481.023697 193.694488 
L 481.72891 192.703904 
L 483.139336 193.924461 
L 483.84455 194.066494 
L 484.549763 192.745724 
L 485.254976 192.374626 
L 485.96019 193.342956 
L 486.665403 191.503776 
L 487.370616 190.768061 
L 488.075829 190.90651 
L 488.781043 191.969794 
L 489.486256 193.720795 
L 490.896682 195.280568 
L 491.601896 194.21753 
L 492.307109 194.01433 
L 493.012322 194.872398 
L 493.717536 193.803196 
L 494.422749 194.864596 
L 495.127962 196.495616 
L 497.243602 191.231957 
L 499.359242 190.855273 
L 500.064455 192.397791 
L 500.769668 193.415758 
L 502.885308 195.934322 
L 503.590521 195.801291 
L 504.295735 195.11981 
L 505.000948 196.166537 
L 505.706161 196.533915 
L 506.411374 195.271565 
L 507.116588 196.040232 
L 507.821801 195.68696 
L 508.527014 194.807888 
L 509.937441 192.557092 
L 511.347867 190.179072 
L 512.053081 189.203785 
L 512.758294 188.543911 
L 513.463507 188.350086 
L 514.16872 188.789696 
L 514.873934 190.046877 
L 515.579147 192.322515 
L 516.28436 195.834248 
L 516.989573 200.816463 
L 517.694787 207.520297 
L 518.4 216.213636 
L 518.4 216.213636 
" style="fill:none;stroke:#ff0000;stroke-linecap:square;stroke-width:2;"/>
   </g>
   <g id="patch_3">
    <path d="M 72 320.4 
L 72 43.2 
" style="fill:none;stroke:#000000;stroke-linecap:square;stroke-linejoin:miter;stroke-width:0.8;"/>
   </g>
   <g id="patch_4">
    <path d="M 518.4 320.4 
L 518.4 43.2 
" style="fill:none;stroke:#000000;stroke-linecap:square;stroke-linejoin:miter;stroke-width:0.8;"/>
   </g>
   <g id="patch_5">
    <path d="M 72 320.4 
L 518.4 320.4 
" style="fill:none;stroke:#000000;stroke-linecap:square;stroke-linejoin:miter;stroke-width:0.8;"/>
   </g>
   <g id="patch_6">
    <path d="M 72 43.2 
L 518.4 43.2 
" style="fill:none;stroke:#000000;stroke-linecap:square;stroke-linejoin:miter;stroke-width:0.8;"/>
   </g>
   <g id="text_16">
    <!-- Front Propogation Speed -->
    <g transform="translate(172.245312 37.2)scale(0.2 -0.2)">
     <defs>
      <path d="M 628 4666 
L 3309 4666 
L 3309 4134 
L 1259 4134 
L 1259 2759 
L 3109 2759 
L 3109 2228 
L 1259 2228 
L 1259 0 
L 628 0 
L 628 4666 
z
" id="DejaVuSans-46" transform="scale(0.015625)"/>
      <path d="M 2631 2963 
Q 2534 3019 2420 3045 
Q 2306 3072 2169 3072 
Q 1681 3072 1420 2755 
Q 1159 2438 1159 1844 
L 1159 0 
L 581 0 
L 581 3500 
L 1159 3500 
L 1159 2956 
Q 1341 3275 1631 3429 
Q 1922 3584 2338 3584 
Q 2397 3584 2469 3576 
Q 2541 3569 2628 3553 
L 2631 2963 
z
" id="DejaVuSans-72" transform="scale(0.015625)"/>
      <path d="M 1172 4494 
L 1172 3500 
L 2356 3500 
L 2356 3053 
L 1172 3053 
L 1172 1153 
Q 1172 725 1289 603 
Q 1406 481 1766 481 
L 2356 481 
L 2356 0 
L 1766 0 
Q 1100 0 847 248 
Q 594 497 594 1153 
L 594 3053 
L 172 3053 
L 172 3500 
L 594 3500 
L 594 4494 
L 1172 4494 
z
" id="DejaVuSans-74" transform="scale(0.015625)"/>
      <path d="M 1259 4147 
L 1259 2394 
L 2053 2394 
Q 2494 2394 2734 2622 
Q 2975 2850 2975 3272 
Q 2975 3691 2734 3919 
Q 2494 4147 2053 4147 
L 1259 4147 
z
M 628 4666 
L 2053 4666 
Q 2838 4666 3239 4311 
Q 3641 3956 3641 3272 
Q 3641 2581 3239 2228 
Q 2838 1875 2053 1875 
L 1259 1875 
L 1259 0 
L 628 0 
L 628 4666 
z
" id="DejaVuSans-50" transform="scale(0.015625)"/>
      <path d="M 2906 1791 
Q 2906 2416 2648 2759 
Q 2391 3103 1925 3103 
Q 1463 3103 1205 2759 
Q 947 2416 947 1791 
Q 947 1169 1205 825 
Q 1463 481 1925 481 
Q 2391 481 2648 825 
Q 2906 1169 2906 1791 
z
M 3481 434 
Q 3481 -459 3084 -895 
Q 2688 -1331 1869 -1331 
Q 1566 -1331 1297 -1286 
Q 1028 -1241 775 -1147 
L 775 -588 
Q 1028 -725 1275 -790 
Q 1522 -856 1778 -856 
Q 2344 -856 2625 -561 
Q 2906 -266 2906 331 
L 2906 616 
Q 2728 306 2450 153 
Q 2172 0 1784 0 
Q 1141 0 747 490 
Q 353 981 353 1791 
Q 353 2603 747 3093 
Q 1141 3584 1784 3584 
Q 2172 3584 2450 3431 
Q 2728 3278 2906 2969 
L 2906 3500 
L 3481 3500 
L 3481 434 
z
" id="DejaVuSans-67" transform="scale(0.015625)"/>
      <path d="M 2194 1759 
Q 1497 1759 1228 1600 
Q 959 1441 959 1056 
Q 959 750 1161 570 
Q 1363 391 1709 391 
Q 2188 391 2477 730 
Q 2766 1069 2766 1631 
L 2766 1759 
L 2194 1759 
z
M 3341 1997 
L 3341 0 
L 2766 0 
L 2766 531 
Q 2569 213 2275 61 
Q 1981 -91 1556 -91 
Q 1019 -91 701 211 
Q 384 513 384 1019 
Q 384 1609 779 1909 
Q 1175 2209 1959 2209 
L 2766 2209 
L 2766 2266 
Q 2766 2663 2505 2880 
Q 2244 3097 1772 3097 
Q 1472 3097 1187 3025 
Q 903 2953 641 2809 
L 641 3341 
Q 956 3463 1253 3523 
Q 1550 3584 1831 3584 
Q 2591 3584 2966 3190 
Q 3341 2797 3341 1997 
z
" id="DejaVuSans-61" transform="scale(0.015625)"/>
     </defs>
     <use xlink:href="#DejaVuSans-46"/>
     <use x="50.269531" xlink:href="#DejaVuSans-72"/>
     <use x="89.132812" xlink:href="#DejaVuSans-6f"/>
     <use x="150.314453" xlink:href="#DejaVuSans-6e"/>
     <use x="213.693359" xlink:href="#DejaVuSans-74"/>
     <use x="252.902344" xlink:href="#DejaVuSans-20"/>
     <use x="284.689453" xlink:href="#DejaVuSans-50"/>
     <use x="343.242188" xlink:href="#DejaVuSans-72"/>
     <use x="382.105469" xlink:href="#DejaVuSans-6f"/>
     <use x="443.287109" xlink:href="#DejaVuSans-70"/>
     <use x="506.763672" xlink:href="#DejaVuSans-6f"/>
     <use x="567.945312" xlink:href="#DejaVuSans-67"/>
     <use x="631.421875" xlink:href="#DejaVuSans-61"/>
     <use x="692.701172" xlink:href="#DejaVuSans-74"/>
     <use x="731.910156" xlink:href="#DejaVuSans-69"/>
     <use x="759.693359" xlink:href="#DejaVuSans-6f"/>
     <use x="820.875" xlink:href="#DejaVuSans-6e"/>
     <use x="884.253906" xlink:href="#DejaVuSans-20"/>
     <use x="916.041016" xlink:href="#DejaVuSans-53"/>
     <use x="979.517578" xlink:href="#DejaVuSans-70"/>
     <use x="1042.994141" xlink:href="#DejaVuSans-65"/>
     <use x="1104.517578" xlink:href="#DejaVuSans-65"/>
     <use x="1166.041016" xlink:href="#DejaVuSans-64"/>
    </g>
   </g>
   <g id="legend_1">
    <g id="patch_7">
     <path d="M 325.967812 111.175687 
L 508.6 111.175687 
Q 511.4 111.175687 511.4 108.375687 
L 511.4 53 
Q 511.4 50.2 508.6 50.2 
L 325.967812 50.2 
Q 323.167812 50.2 323.167812 53 
L 323.167812 108.375687 
Q 323.167812 111.175687 325.967812 111.175687 
z
" style="fill:#ffffff;opacity:0.8;stroke:#cccccc;stroke-linejoin:miter;"/>
    </g>
    <g id="line2d_16">
     <path d="M 328.767812 61.537812 
L 356.767812 61.537812 
" style="fill:none;stroke:#ff0000;stroke-linecap:square;stroke-width:2;"/>
    </g>
    <g id="line2d_17"/>
    <g id="text_17">
     <!-- Front speed -->
     <g transform="translate(367.967812 66.437812)scale(0.14 -0.14)">
      <use xlink:href="#DejaVuSans-46"/>
      <use x="50.269531" xlink:href="#DejaVuSans-72"/>
      <use x="89.132812" xlink:href="#DejaVuSans-6f"/>
      <use x="150.314453" xlink:href="#DejaVuSans-6e"/>
      <use x="213.693359" xlink:href="#DejaVuSans-74"/>
      <use x="252.902344" xlink:href="#DejaVuSans-20"/>
      <use x="284.689453" xlink:href="#DejaVuSans-73"/>
      <use x="336.789062" xlink:href="#DejaVuSans-70"/>
      <use x="400.265625" xlink:href="#DejaVuSans-65"/>
      <use x="461.789062" xlink:href="#DejaVuSans-65"/>
      <use x="523.3125" xlink:href="#DejaVuSans-64"/>
     </g>
    </g>
    <g id="line2d_18">
     <path d="M 328.767812 91.381437 
L 356.767812 91.381437 
" style="fill:none;stroke:#000000;stroke-dasharray:5.55,2.4;stroke-dashoffset:0;stroke-width:1.5;"/>
    </g>
    <g id="line2d_19"/>
    <g id="text_18">
     <!-- Steady state -->
     <g transform="translate(367.967812 86.987187)scale(0.14 -0.14)">
      <defs>
       <path d="M 2059 -325 
Q 1816 -950 1584 -1140 
Q 1353 -1331 966 -1331 
L 506 -1331 
L 506 -850 
L 844 -850 
Q 1081 -850 1212 -737 
Q 1344 -625 1503 -206 
L 1606 56 
L 191 3500 
L 800 3500 
L 1894 763 
L 2988 3500 
L 3597 3500 
L 2059 -325 
z
" id="DejaVuSans-79" transform="scale(0.015625)"/>
      </defs>
      <use xlink:href="#DejaVuSans-53"/>
      <use x="63.476562" xlink:href="#DejaVuSans-74"/>
      <use x="102.685547" xlink:href="#DejaVuSans-65"/>
      <use x="164.208984" xlink:href="#DejaVuSans-61"/>
      <use x="225.488281" xlink:href="#DejaVuSans-64"/>
      <use x="288.964844" xlink:href="#DejaVuSans-79"/>
      <use x="348.144531" xlink:href="#DejaVuSans-20"/>
      <use x="379.931641" xlink:href="#DejaVuSans-73"/>
      <use x="432.03125" xlink:href="#DejaVuSans-74"/>
      <use x="471.240234" xlink:href="#DejaVuSans-61"/>
      <use x="532.519531" xlink:href="#DejaVuSans-74"/>
      <use x="571.728516" xlink:href="#DejaVuSans-65"/>
     </g>
     <!-- speed = 0.73 mm/s -->
     <g transform="translate(367.967812 102.664125)scale(0.14 -0.14)">
      <defs>
       <path d="M 678 2906 
L 4684 2906 
L 4684 2381 
L 678 2381 
L 678 2906 
z
M 678 1631 
L 4684 1631 
L 4684 1100 
L 678 1100 
L 678 1631 
z
" id="DejaVuSans-3d" transform="scale(0.015625)"/>
       <path d="M 2597 2516 
Q 3050 2419 3304 2112 
Q 3559 1806 3559 1356 
Q 3559 666 3084 287 
Q 2609 -91 1734 -91 
Q 1441 -91 1130 -33 
Q 819 25 488 141 
L 488 750 
Q 750 597 1062 519 
Q 1375 441 1716 441 
Q 2309 441 2620 675 
Q 2931 909 2931 1356 
Q 2931 1769 2642 2001 
Q 2353 2234 1838 2234 
L 1294 2234 
L 1294 2753 
L 1863 2753 
Q 2328 2753 2575 2939 
Q 2822 3125 2822 3475 
Q 2822 3834 2567 4026 
Q 2313 4219 1838 4219 
Q 1578 4219 1281 4162 
Q 984 4106 628 3988 
L 628 4550 
Q 988 4650 1302 4700 
Q 1616 4750 1894 4750 
Q 2613 4750 3031 4423 
Q 3450 4097 3450 3541 
Q 3450 3153 3228 2886 
Q 3006 2619 2597 2516 
z
" id="DejaVuSans-33" transform="scale(0.015625)"/>
      </defs>
      <use xlink:href="#DejaVuSans-73"/>
      <use x="52.099609" xlink:href="#DejaVuSans-70"/>
      <use x="115.576172" xlink:href="#DejaVuSans-65"/>
      <use x="177.099609" xlink:href="#DejaVuSans-65"/>
      <use x="238.623047" xlink:href="#DejaVuSans-64"/>
      <use x="302.099609" xlink:href="#DejaVuSans-20"/>
      <use x="333.886719" xlink:href="#DejaVuSans-3d"/>
      <use x="417.675781" xlink:href="#DejaVuSans-20"/>
      <use x="449.462891" xlink:href="#DejaVuSans-30"/>
      <use x="513.085938" xlink:href="#DejaVuSans-2e"/>
      <use x="544.873047" xlink:href="#DejaVuSans-37"/>
      <use x="608.496094" xlink:href="#DejaVuSans-33"/>
      <use x="672.119141" xlink:href="#DejaVuSans-20"/>
      <use x="703.90625" xlink:href="#DejaVuSans-6d"/>
      <use x="801.318359" xlink:href="#DejaVuSans-6d"/>
      <use x="898.730469" xlink:href="#DejaVuSans-2f"/>
      <use x="932.421875" xlink:href="#DejaVuSans-73"/>
     </g>
    </g>
   </g>
  </g>
 </g>
 <defs>
  <clipPath id="pd66dc43ca4">
   <rect height="277.2" width="446.4" x="72" y="43.2"/>
  </clipPath>
 </defs>
</svg>
