<?xml version="1.0" encoding="utf-8" standalone="no"?>
<!DOCTYPE svg PUBLIC "-//W3C//DTD SVG 1.1//EN"
  "http://www.w3.org/Graphics/SVG/1.1/DTD/svg11.dtd">
<svg height="360pt" version="1.1" viewBox="0 0 576 360" width="576pt" xmlns="http://www.w3.org/2000/svg" xmlns:xlink="http://www.w3.org/1999/xlink">
 <metadata>
  <rdf:RDF xmlns:cc="http://creativecommons.org/ns#" xmlns:dc="http://purl.org/dc/elements/1.1/" xmlns:rdf="http://www.w3.org/1999/02/22-rdf-syntax-ns#">
   <cc:Work>
    <dc:type rdf:resource="http://purl.org/dc/dcmitype/StillImage"/>
    <dc:date>2022-06-30T14:16:52.476559</dc:date>
    <dc:format>image/svg+xml</dc:format>
    <dc:creator>
     <cc:Agent>
      <dc:title>Matplotlib v3.4.3, https://matplotlib.org/</dc:title>
     </cc:Agent>
    </dc:creator>
   </cc:Work>
  </rdf:RDF>
 </metadata>
 <defs>
  <style type="text/css">*{stroke-linecap:butt;stroke-linejoin:round;}</style>
 </defs>
 <g id="figure_1">
  <g id="patch_1">
   <path d="M 0 360 
L 576 360 
L 576 0 
L 0 0 
z
" style="fill:#ffffff;"/>
  </g>
  <g id="axes_1">
   <g id="patch_2">
    <path d="M 72 320.4 
L 518.4 320.4 
L 518.4 43.2 
L 72 43.2 
z
" style="fill:#ffffff;"/>
   </g>
   <g id="PolyCollection_1">
    <defs>
     <path d="M 72 -205.834928 
L 72 -209.793019 
L 72.443297 -209.793019 
L 72.886594 -209.793019 
L 73.329891 -209.793019 
L 73.773188 -209.793019 
L 74.216485 -209.793019 
L 74.659782 -209.793019 
L 75.103078 -209.793019 
L 75.546375 -209.793019 
L 75.989672 -209.793019 
L 76.432969 -209.793019 
L 76.876266 -209.793019 
L 77.319563 -209.793019 
L 77.76286 -209.793019 
L 78.206157 -209.793019 
L 78.649454 -209.793019 
L 79.092751 -209.793019 
L 79.536048 -209.793019 
L 79.979345 -209.793019 
L 80.422642 -209.793019 
L 80.865938 -209.793019 
L 81.309235 -209.793019 
L 81.752532 -209.793019 
L 82.195829 -209.793019 
L 82.639126 -209.793019 
L 83.082423 -209.793019 
L 83.52572 -209.793019 
L 83.969017 -209.793019 
L 84.412314 -209.793019 
L 84.855611 -209.793019 
L 85.298908 -209.793019 
L 85.742205 -209.793019 
L 86.185501 -209.793019 
L 86.628798 -209.793019 
L 87.072095 -209.793019 
L 87.515392 -209.793019 
L 87.958689 -209.793019 
L 88.401986 -209.793019 
L 88.845283 -209.793019 
L 89.28858 -209.793019 
L 89.731877 -209.793019 
L 90.175174 -209.793019 
L 90.618471 -209.793019 
L 91.061768 -209.793019 
L 91.505065 -209.793019 
L 91.948361 -209.793019 
L 92.391658 -209.793019 
L 92.834955 -209.793019 
L 93.278252 -209.793019 
L 93.721549 -209.793019 
L 94.164846 -209.793019 
L 94.608143 -209.793019 
L 95.05144 -209.793019 
L 95.494737 -209.793019 
L 95.938034 -209.793019 
L 96.381331 -209.793019 
L 96.824628 -209.793019 
L 97.267925 -209.793019 
L 97.711221 -209.793019 
L 98.154518 -209.793019 
L 98.597815 -209.793019 
L 99.041112 -209.793019 
L 99.484409 -209.793019 
L 99.927706 -209.793019 
L 100.371003 -209.793019 
L 100.8143 -209.793019 
L 101.257597 -209.793019 
L 101.700894 -209.793019 
L 102.144191 -209.793019 
L 102.587488 -209.793019 
L 103.030785 -209.793019 
L 103.474081 -209.793019 
L 103.917378 -209.793019 
L 104.360675 -209.793019 
L 104.803972 -209.793019 
L 105.247269 -209.793019 
L 105.690566 -209.793019 
L 106.133863 -209.793019 
L 106.57716 -209.793019 
L 107.020457 -209.793019 
L 107.463754 -209.793019 
L 107.907051 -209.793019 
L 108.350348 -209.793019 
L 108.793644 -209.793019 
L 109.236941 -209.793019 
L 109.680238 -209.793019 
L 110.123535 -209.793019 
L 110.566832 -209.793019 
L 111.010129 -209.793019 
L 111.453426 -209.793019 
L 111.896723 -209.793019 
L 112.34002 -209.793019 
L 112.783317 -209.793019 
L 113.226614 -209.793019 
L 113.669911 -209.793019 
L 114.113208 -209.793019 
L 114.556504 -209.793019 
L 114.999801 -209.793019 
L 115.443098 -209.793019 
L 115.886395 -209.793019 
L 116.329692 -209.793019 
L 116.772989 -209.793019 
L 117.216286 -209.793019 
L 117.659583 -209.793019 
L 118.10288 -209.793019 
L 118.546177 -209.793019 
L 118.989474 -209.793019 
L 119.432771 -209.793019 
L 119.876068 -209.793019 
L 120.319364 -209.793019 
L 120.762661 -209.793019 
L 121.205958 -209.793019 
L 121.649255 -209.793019 
L 122.092552 -209.793019 
L 122.535849 -209.793019 
L 122.979146 -209.793019 
L 123.422443 -209.793019 
L 123.86574 -209.793019 
L 124.309037 -209.793019 
L 124.752334 -209.793019 
L 125.195631 -209.793019 
L 125.638928 -209.793019 
L 126.082224 -209.793019 
L 126.525521 -209.793019 
L 126.968818 -209.793019 
L 127.412115 -209.793019 
L 127.855412 -209.793019 
L 128.298709 -209.793019 
L 128.742006 -209.793019 
L 129.185303 -209.793019 
L 129.6286 -209.793019 
L 130.071897 -209.793019 
L 130.515194 -209.793019 
L 130.958491 -209.793019 
L 131.401787 -209.793019 
L 131.845084 -209.793019 
L 132.288381 -209.793019 
L 132.731678 -209.793019 
L 133.174975 -209.793019 
L 133.618272 -209.793019 
L 134.061569 -209.793019 
L 134.504866 -209.793019 
L 134.948163 -209.793019 
L 135.39146 -209.793019 
L 135.834757 -209.793019 
L 136.278054 -209.793019 
L 136.721351 -209.793019 
L 137.164647 -209.793019 
L 137.607944 -209.793019 
L 138.051241 -209.793019 
L 138.494538 -209.793019 
L 138.937835 -209.793019 
L 139.381132 -209.793019 
L 139.824429 -209.793019 
L 140.267726 -209.793019 
L 140.711023 -209.793019 
L 141.15432 -209.793019 
L 141.597617 -209.793019 
L 142.040914 -209.793019 
L 142.484211 -209.793019 
L 142.927507 -209.793019 
L 143.370804 -209.793019 
L 143.814101 -209.793019 
L 144.257398 -209.793019 
L 144.700695 -209.793019 
L 145.143992 -209.793019 
L 145.587289 -209.793019 
L 146.030586 -209.793019 
L 146.473883 -209.793019 
L 146.91718 -209.793019 
L 147.360477 -209.793019 
L 147.803774 -209.793019 
L 148.247071 -209.793019 
L 148.690367 -209.793019 
L 149.133664 -209.793019 
L 149.576961 -209.793019 
L 150.020258 -209.793019 
L 150.463555 -209.793019 
L 150.906852 -209.793019 
L 151.350149 -209.793019 
L 151.793446 -209.793019 
L 152.236743 -209.793019 
L 152.68004 -209.793019 
L 153.123337 -209.793019 
L 153.566634 -209.793019 
L 154.00993 -209.793019 
L 154.453227 -209.793019 
L 154.896524 -209.793019 
L 155.339821 -209.793019 
L 155.783118 -209.793019 
L 156.226415 -209.793019 
L 156.669712 -209.793019 
L 157.113009 -209.793019 
L 157.556306 -209.793019 
L 157.999603 -209.793019 
L 158.4429 -209.793019 
L 158.886197 -209.793019 
L 159.329494 -209.793019 
L 159.77279 -209.793019 
L 160.216087 -209.793019 
L 160.659384 -209.793019 
L 161.102681 -209.793019 
L 161.545978 -209.793019 
L 161.989275 -209.793019 
L 162.432572 -209.793019 
L 162.875869 -209.793019 
L 163.319166 -209.793019 
L 163.762463 -209.793019 
L 164.20576 -209.793019 
L 164.649057 -209.793019 
L 165.092354 -209.793019 
L 165.53565 -209.793019 
L 165.978947 -209.793019 
L 166.422244 -209.793019 
L 166.865541 -209.793019 
L 167.308838 -209.793019 
L 167.752135 -209.793019 
L 168.195432 -209.793019 
L 168.638729 -209.793019 
L 169.082026 -209.793019 
L 169.525323 -209.793019 
L 169.96862 -209.793019 
L 170.411917 -209.793019 
L 170.855214 -209.793019 
L 171.29851 -209.793019 
L 171.741807 -209.793019 
L 172.185104 -209.793019 
L 172.628401 -209.793019 
L 173.071698 -209.793019 
L 173.514995 -209.793019 
L 173.958292 -209.793019 
L 174.401589 -209.793019 
L 174.844886 -209.793019 
L 175.288183 -209.793019 
L 175.73148 -209.793019 
L 176.174777 -209.793019 
L 176.618073 -209.793019 
L 177.06137 -209.793019 
L 177.504667 -209.793019 
L 177.947964 -209.793019 
L 178.391261 -209.793019 
L 178.834558 -209.793019 
L 179.277855 -209.793019 
L 179.721152 -209.793019 
L 180.164449 -209.793019 
L 180.607746 -209.793019 
L 181.051043 -209.793019 
L 181.49434 -209.793019 
L 181.937637 -209.793019 
L 182.380933 -209.793019 
L 182.82423 -209.793019 
L 183.267527 -209.793019 
L 183.710824 -209.793019 
L 184.154121 -209.793019 
L 184.597418 -209.793019 
L 185.040715 -209.793019 
L 185.484012 -209.793019 
L 185.927309 -209.793019 
L 186.370606 -209.793019 
L 186.813903 -209.793019 
L 187.2572 -209.793019 
L 187.700497 -209.793019 
L 188.143793 -209.793019 
L 188.58709 -209.793019 
L 189.030387 -209.793019 
L 189.473684 -209.793019 
L 189.916981 -209.793019 
L 190.360278 -209.793019 
L 190.803575 -209.793019 
L 191.246872 -209.793019 
L 191.690169 -209.793019 
L 192.133466 -209.793019 
L 192.576763 -209.793019 
L 193.02006 -209.793019 
L 193.463357 -209.793019 
L 193.906653 -209.793019 
L 194.34995 -209.793019 
L 194.793247 -209.793019 
L 195.236544 -209.793019 
L 195.679841 -209.793019 
L 196.123138 -209.793019 
L 196.566435 -209.793019 
L 197.009732 -209.793019 
L 197.453029 -209.793019 
L 197.896326 -209.793019 
L 198.339623 -209.793019 
L 198.78292 -209.793019 
L 199.226216 -209.793019 
L 199.669513 -209.793019 
L 200.11281 -209.793019 
L 200.556107 -209.793019 
L 200.999404 -209.793019 
L 201.442701 -209.793019 
L 201.885998 -209.793019 
L 202.329295 -209.793019 
L 202.772592 -209.793019 
L 203.215889 -209.793019 
L 203.659186 -209.793019 
L 204.102483 -209.793019 
L 204.54578 -209.793019 
L 204.989076 -209.793019 
L 205.432373 -209.793019 
L 205.87567 -209.793019 
L 206.318967 -209.793019 
L 206.762264 -209.793019 
L 207.205561 -209.793019 
L 207.648858 -209.793019 
L 208.092155 -209.793019 
L 208.535452 -209.793019 
L 208.978749 -209.793019 
L 209.422046 -209.793019 
L 209.865343 -209.793019 
L 210.30864 -209.793019 
L 210.751936 -209.793019 
L 211.195233 -209.793019 
L 211.63853 -209.793019 
L 212.081827 -209.793019 
L 212.525124 -209.793019 
L 212.968421 -209.793019 
L 213.411718 -209.793019 
L 213.855015 -209.793019 
L 214.298312 -209.793019 
L 214.741609 -209.793019 
L 215.184906 -209.793019 
L 215.628203 -209.793019 
L 216.0715 -209.793019 
L 216.514796 -209.793019 
L 216.958093 -209.793019 
L 217.40139 -209.793019 
L 217.844687 -209.793019 
L 218.287984 -209.793019 
L 218.731281 -209.793019 
L 219.174578 -209.793019 
L 219.617875 -209.793019 
L 220.061172 -209.793019 
L 220.504469 -209.793019 
L 220.947766 -209.793019 
L 221.391063 -209.793019 
L 221.834359 -209.793019 
L 222.277656 -209.793019 
L 222.720953 -209.793019 
L 223.16425 -209.793019 
L 223.607547 -209.793019 
L 224.050844 -209.793019 
L 224.494141 -209.793019 
L 224.937438 -209.793019 
L 225.380735 -209.793019 
L 225.824032 -209.793019 
L 226.267329 -209.793019 
L 226.710626 -209.793019 
L 227.153923 -209.793019 
L 227.597219 -209.793019 
L 228.040516 -209.793019 
L 228.483813 -209.793019 
L 228.92711 -209.793019 
L 229.370407 -209.793019 
L 229.813704 -209.793019 
L 230.257001 -209.793019 
L 230.700298 -209.793019 
L 231.143595 -209.793019 
L 231.586892 -209.793019 
L 232.030189 -209.793019 
L 232.473486 -209.793019 
L 232.916783 -209.793019 
L 233.360079 -209.793019 
L 233.803376 -209.793019 
L 234.246673 -209.793019 
L 234.68997 -209.793019 
L 235.133267 -209.793019 
L 235.576564 -209.793019 
L 236.019861 -209.793019 
L 236.463158 -209.793019 
L 236.906455 -209.793019 
L 237.349752 -209.793019 
L 237.793049 -209.793019 
L 238.236346 -209.793019 
L 238.679643 -209.793019 
L 239.122939 -209.793019 
L 239.566236 -209.793019 
L 240.009533 -209.793019 
L 240.45283 -209.793019 
L 240.896127 -209.793019 
L 241.339424 -209.793019 
L 241.782721 -209.793019 
L 242.226018 -209.793019 
L 242.669315 -209.793019 
L 243.112612 -209.793019 
L 243.555909 -209.793019 
L 243.999206 -209.793019 
L 244.442502 -209.793019 
L 244.885799 -209.793019 
L 245.329096 -209.793019 
L 245.772393 -209.793019 
L 246.21569 -209.793019 
L 246.658987 -209.793019 
L 247.102284 -209.793019 
L 247.545581 -209.793019 
L 247.988878 -209.793019 
L 248.432175 -209.793019 
L 248.875472 -209.793019 
L 249.318769 -209.793019 
L 249.762066 -209.793019 
L 250.205362 -209.793019 
L 250.648659 -209.793019 
L 251.091956 -209.793019 
L 251.535253 -209.793019 
L 251.97855 -209.793019 
L 252.421847 -209.793019 
L 252.865144 -209.793019 
L 253.308441 -209.793019 
L 253.751738 -209.793019 
L 254.195035 -209.793019 
L 254.638332 -209.793019 
L 255.081629 -209.793019 
L 255.524926 -209.793019 
L 255.968222 -209.793019 
L 256.411519 -209.793019 
L 256.854816 -209.793019 
L 257.298113 -209.793019 
L 257.74141 -209.793019 
L 258.184707 -209.793019 
L 258.628004 -209.793019 
L 259.071301 -209.793019 
L 259.514598 -209.793019 
L 259.957895 -209.793019 
L 260.401192 -209.793019 
L 260.844489 -209.793019 
L 261.287786 -209.793019 
L 261.731082 -209.793019 
L 262.174379 -209.793019 
L 262.617676 -209.793019 
L 263.060973 -209.793019 
L 263.50427 -209.793019 
L 263.947567 -209.793019 
L 264.390864 -209.793019 
L 264.834161 -209.793019 
L 265.277458 -209.793019 
L 265.720755 -209.793019 
L 266.164052 -209.793019 
L 266.607349 -209.793019 
L 267.050645 -209.793019 
L 267.493942 -209.793019 
L 267.937239 -209.793019 
L 268.380536 -209.793019 
L 268.823833 -209.793019 
L 269.26713 -209.793019 
L 269.710427 -209.793019 
L 270.153724 -209.793019 
L 270.597021 -209.793019 
L 271.040318 -209.793019 
L 271.483615 -209.793019 
L 271.926912 -209.793019 
L 272.370209 -209.793019 
L 272.813505 -209.793019 
L 273.256802 -209.793019 
L 273.700099 -209.793019 
L 274.143396 -209.793019 
L 274.586693 -209.793019 
L 275.02999 -209.793019 
L 275.473287 -209.793019 
L 275.916584 -209.793019 
L 276.359881 -209.793019 
L 276.803178 -209.793019 
L 277.246475 -209.793019 
L 277.689772 -209.793019 
L 278.133069 -209.793019 
L 278.576365 -209.793019 
L 279.019662 -209.793019 
L 279.462959 -209.793019 
L 279.906256 -209.793019 
L 280.349553 -209.793019 
L 280.79285 -209.793019 
L 281.236147 -209.793019 
L 281.679444 -209.793019 
L 282.122741 -209.793019 
L 282.566038 -209.793019 
L 283.009335 -209.793019 
L 283.452632 -209.793019 
L 283.895929 -209.793019 
L 284.339225 -209.793019 
L 284.782522 -209.793019 
L 285.225819 -209.793019 
L 285.669116 -209.793019 
L 286.112413 -209.793019 
L 286.55571 -209.793019 
L 286.999007 -209.793019 
L 287.442304 -209.793019 
L 287.885601 -209.793019 
L 288.328898 -209.793019 
L 288.772195 -209.793019 
L 289.215492 -209.793019 
L 289.658788 -209.793019 
L 290.102085 -209.793019 
L 290.545382 -209.793019 
L 290.988679 -209.793019 
L 291.431976 -209.793019 
L 291.875273 -209.793019 
L 292.31857 -209.793019 
L 292.761867 -209.793019 
L 293.205164 -209.793019 
L 293.648461 -209.793019 
L 294.091758 -209.793019 
L 294.535055 -209.793019 
L 294.978352 -209.793019 
L 295.421648 -209.793019 
L 295.864945 -209.793019 
L 296.308242 -209.793019 
L 296.751539 -209.793019 
L 297.194836 -209.793019 
L 297.638133 -209.793019 
L 298.08143 -209.793019 
L 298.524727 -209.793019 
L 298.968024 -209.793019 
L 299.411321 -209.793019 
L 299.854618 -209.793019 
L 300.297915 -209.793019 
L 300.741212 -209.793019 
L 301.184508 -209.793019 
L 301.627805 -209.793019 
L 302.071102 -209.793019 
L 302.514399 -209.793019 
L 302.957696 -209.793019 
L 303.400993 -209.793019 
L 303.84429 -209.793019 
L 304.287587 -209.793019 
L 304.730884 -209.793019 
L 305.174181 -209.793019 
L 305.617478 -209.793019 
L 306.060775 -209.793019 
L 306.504071 -209.793019 
L 306.947368 -209.793019 
L 307.390665 -209.793019 
L 307.833962 -209.793019 
L 308.277259 -209.793019 
L 308.720556 -209.793019 
L 309.163853 -209.793019 
L 309.60715 -209.793019 
L 310.050447 -209.793019 
L 310.493744 -209.793019 
L 310.937041 -209.793019 
L 311.380338 -209.793019 
L 311.823635 -209.793019 
L 312.266931 -209.793019 
L 312.710228 -209.793019 
L 313.153525 -209.793019 
L 313.596822 -209.793019 
L 314.040119 -209.793019 
L 314.483416 -209.793019 
L 314.926713 -209.793019 
L 315.37001 -209.793019 
L 315.813307 -209.793019 
L 316.256604 -209.793019 
L 316.699901 -209.793019 
L 317.143198 -209.793019 
L 317.586495 -209.793019 
L 318.029791 -209.793019 
L 318.473088 -209.793019 
L 318.916385 -209.793019 
L 319.359682 -209.793019 
L 319.802979 -209.793019 
L 320.246276 -209.793019 
L 320.689573 -209.793019 
L 321.13287 -209.793019 
L 321.576167 -209.793019 
L 322.019464 -209.793019 
L 322.462761 -209.793019 
L 322.906058 -209.793019 
L 323.349355 -209.793019 
L 323.792651 -209.793019 
L 324.235948 -209.793019 
L 324.679245 -209.793019 
L 325.122542 -209.793019 
L 325.565839 -209.793019 
L 326.009136 -209.793019 
L 326.452433 -209.793019 
L 326.89573 -209.793019 
L 327.339027 -209.793019 
L 327.782324 -209.793019 
L 328.225621 -209.793019 
L 328.668918 -209.793019 
L 329.112214 -209.793019 
L 329.555511 -209.793019 
L 329.998808 -209.793019 
L 330.442105 -209.793019 
L 330.885402 -209.793019 
L 331.328699 -209.793019 
L 331.771996 -209.793019 
L 332.215293 -209.793019 
L 332.65859 -209.793019 
L 333.101887 -209.793019 
L 333.545184 -209.793019 
L 333.988481 -209.793019 
L 334.431778 -209.793019 
L 334.875074 -209.793019 
L 335.318371 -209.793019 
L 335.761668 -209.793019 
L 336.204965 -209.793019 
L 336.648262 -209.793019 
L 337.091559 -209.793019 
L 337.534856 -209.793019 
L 337.978153 -209.793019 
L 338.42145 -209.793019 
L 338.864747 -209.793019 
L 339.308044 -209.793019 
L 339.751341 -209.793019 
L 340.194638 -209.793019 
L 340.637934 -209.793019 
L 341.081231 -209.793019 
L 341.524528 -209.793019 
L 341.967825 -209.793019 
L 342.411122 -209.793019 
L 342.854419 -209.793019 
L 343.297716 -209.793019 
L 343.741013 -209.793019 
L 344.18431 -209.793019 
L 344.627607 -209.793019 
L 345.070904 -209.793019 
L 345.514201 -209.793019 
L 345.957498 -209.793019 
L 346.400794 -209.793019 
L 346.844091 -209.793019 
L 347.287388 -209.793019 
L 347.730685 -209.793019 
L 348.173982 -209.793019 
L 348.617279 -209.793019 
L 349.060576 -209.793019 
L 349.503873 -209.793019 
L 349.94717 -209.793019 
L 350.390467 -209.793019 
L 350.833764 -209.793019 
L 351.277061 -209.793019 
L 351.720357 -209.793019 
L 352.163654 -209.793019 
L 352.606951 -209.793019 
L 353.050248 -209.793019 
L 353.493545 -209.793019 
L 353.936842 -209.793019 
L 354.380139 -209.793019 
L 354.823436 -209.793019 
L 355.266733 -209.793019 
L 355.71003 -209.793019 
L 356.153327 -209.793019 
L 356.596624 -209.793019 
L 357.039921 -209.793019 
L 357.483217 -209.793019 
L 357.926514 -209.793019 
L 358.369811 -209.793019 
L 358.813108 -209.793019 
L 359.256405 -209.793019 
L 359.699702 -209.793019 
L 360.142999 -209.793019 
L 360.586296 -209.793019 
L 361.029593 -209.793019 
L 361.47289 -209.793019 
L 361.916187 -209.793019 
L 362.359484 -209.793019 
L 362.802781 -209.793019 
L 363.246077 -209.793019 
L 363.689374 -209.793019 
L 364.132671 -209.793019 
L 364.575968 -209.793019 
L 365.019265 -209.793019 
L 365.462562 -209.793019 
L 365.905859 -209.793019 
L 366.349156 -209.793019 
L 366.792453 -209.793019 
L 367.23575 -209.793019 
L 367.679047 -209.793019 
L 368.122344 -209.793019 
L 368.565641 -209.793019 
L 369.008937 -209.793019 
L 369.452234 -209.793019 
L 369.895531 -209.793019 
L 370.338828 -209.793019 
L 370.782125 -209.793019 
L 371.225422 -209.793019 
L 371.668719 -209.793019 
L 372.112016 -209.793019 
L 372.555313 -209.793019 
L 372.99861 -209.793019 
L 373.441907 -209.793019 
L 373.885204 -209.793019 
L 374.3285 -209.793019 
L 374.771797 -209.793019 
L 375.215094 -209.793019 
L 375.658391 -209.793019 
L 376.101688 -209.793019 
L 376.544985 -209.793019 
L 376.988282 -209.793019 
L 377.431579 -209.793019 
L 377.874876 -209.793019 
L 378.318173 -209.793019 
L 378.76147 -209.793019 
L 379.204767 -209.793019 
L 379.648064 -209.793019 
L 380.09136 -209.793019 
L 380.534657 -209.793019 
L 380.977954 -209.793019 
L 381.421251 -209.793019 
L 381.864548 -209.793019 
L 382.307845 -209.793019 
L 382.751142 -209.793019 
L 383.194439 -209.793019 
L 383.637736 -209.793019 
L 384.081033 -209.793019 
L 384.52433 -209.793019 
L 384.967627 -209.793019 
L 385.410924 -209.793019 
L 385.85422 -209.793019 
L 386.297517 -209.793019 
L 386.740814 -209.793019 
L 387.184111 -209.793019 
L 387.627408 -209.793019 
L 388.070705 -209.793019 
L 388.514002 -209.793019 
L 388.957299 -209.793019 
L 389.400596 -209.793019 
L 389.843893 -209.793019 
L 390.28719 -209.793019 
L 390.730487 -209.793019 
L 391.173784 -209.793019 
L 391.61708 -209.793019 
L 392.060377 -209.793019 
L 392.503674 -209.793019 
L 392.946971 -209.793019 
L 393.390268 -209.793019 
L 393.833565 -209.793019 
L 394.276862 -209.793019 
L 394.720159 -209.793019 
L 395.163456 -209.793019 
L 395.606753 -209.793019 
L 396.05005 -209.793019 
L 396.493347 -209.793019 
L 396.936643 -209.793019 
L 397.37994 -209.793019 
L 397.823237 -209.793019 
L 398.266534 -209.793019 
L 398.709831 -209.793019 
L 399.153128 -209.793019 
L 399.596425 -209.793019 
L 400.039722 -209.793019 
L 400.483019 -209.793019 
L 400.926316 -209.793019 
L 401.369613 -209.793019 
L 401.81291 -209.793019 
L 402.256207 -209.793019 
L 402.699503 -209.793019 
L 403.1428 -209.793019 
L 403.586097 -209.793019 
L 404.029394 -209.793019 
L 404.472691 -209.793019 
L 404.915988 -209.793019 
L 405.359285 -209.793019 
L 405.802582 -209.793019 
L 406.245879 -209.793019 
L 406.689176 -209.793019 
L 407.132473 -209.793019 
L 407.57577 -209.793019 
L 408.019067 -209.793019 
L 408.462363 -209.793019 
L 408.90566 -209.793019 
L 409.348957 -209.793019 
L 409.792254 -209.793019 
L 410.235551 -209.793019 
L 410.678848 -209.793019 
L 411.122145 -209.793019 
L 411.565442 -209.793019 
L 412.008739 -209.793019 
L 412.452036 -209.793019 
L 412.895333 -209.793019 
L 413.33863 -209.793019 
L 413.781927 -209.793019 
L 414.225223 -209.793019 
L 414.66852 -209.793019 
L 415.111817 -209.793019 
L 415.555114 -209.793019 
L 415.998411 -209.793019 
L 416.441708 -209.793019 
L 416.885005 -209.793019 
L 417.328302 -209.793019 
L 417.771599 -209.793019 
L 418.214896 -209.793019 
L 418.658193 -209.793019 
L 419.10149 -209.793019 
L 419.544786 -209.793019 
L 419.988083 -209.793019 
L 420.43138 -209.793019 
L 420.874677 -209.793019 
L 421.317974 -209.793019 
L 421.761271 -209.793019 
L 422.204568 -209.793019 
L 422.647865 -209.793019 
L 423.091162 -209.793019 
L 423.534459 -209.793019 
L 423.977756 -209.793019 
L 424.421053 -209.793019 
L 424.86435 -209.793019 
L 425.307646 -209.793019 
L 425.750943 -209.793019 
L 426.19424 -209.793019 
L 426.637537 -209.793019 
L 427.080834 -209.793019 
L 427.524131 -209.793019 
L 427.967428 -209.793019 
L 428.410725 -209.793019 
L 428.854022 -209.793019 
L 429.297319 -209.793019 
L 429.740616 -209.793019 
L 430.183913 -209.793019 
L 430.62721 -209.793019 
L 431.070506 -209.793019 
L 431.513803 -209.793019 
L 431.9571 -209.793019 
L 432.400397 -209.793019 
L 432.843694 -209.793019 
L 433.286991 -209.793019 
L 433.730288 -209.793019 
L 434.173585 -209.793019 
L 434.616882 -209.793019 
L 435.060179 -209.793019 
L 435.503476 -209.793019 
L 435.946773 -209.793019 
L 436.39007 -209.793019 
L 436.833366 -209.793019 
L 437.276663 -209.793019 
L 437.71996 -209.793019 
L 438.163257 -209.793019 
L 438.606554 -209.793019 
L 439.049851 -209.793019 
L 439.493148 -209.793019 
L 439.936445 -209.793019 
L 440.379742 -209.793019 
L 440.823039 -209.793019 
L 441.266336 -209.793019 
L 441.709633 -209.793019 
L 442.152929 -209.793019 
L 442.596226 -209.793019 
L 443.039523 -209.793019 
L 443.48282 -209.793019 
L 443.926117 -209.793019 
L 444.369414 -209.793019 
L 444.812711 -209.793019 
L 445.256008 -209.793019 
L 445.699305 -209.793019 
L 446.142602 -209.793019 
L 446.585899 -209.793019 
L 447.029196 -209.793019 
L 447.472493 -209.793019 
L 447.915789 -209.793019 
L 448.359086 -209.793019 
L 448.802383 -209.793019 
L 449.24568 -209.793019 
L 449.688977 -209.793019 
L 450.132274 -209.793019 
L 450.575571 -209.793019 
L 451.018868 -209.793019 
L 451.462165 -209.793019 
L 451.905462 -209.793019 
L 452.348759 -209.793019 
L 452.792056 -209.793019 
L 453.235353 -209.793019 
L 453.678649 -209.793019 
L 454.121946 -209.793019 
L 454.565243 -209.793019 
L 455.00854 -209.793019 
L 455.451837 -209.793019 
L 455.895134 -209.793019 
L 456.338431 -209.793019 
L 456.781728 -209.793019 
L 457.225025 -209.793019 
L 457.668322 -209.793019 
L 458.111619 -209.793019 
L 458.554916 -209.793019 
L 458.998213 -209.793019 
L 459.441509 -209.793019 
L 459.884806 -209.793019 
L 460.328103 -209.793019 
L 460.7714 -209.793019 
L 461.214697 -209.793019 
L 461.657994 -209.793019 
L 462.101291 -209.793019 
L 462.544588 -209.793019 
L 462.987885 -209.793019 
L 463.431182 -209.793019 
L 463.874479 -209.793019 
L 464.317776 -209.793019 
L 464.761072 -209.793019 
L 465.204369 -209.793019 
L 465.647666 -209.793019 
L 466.090963 -209.793019 
L 466.53426 -209.793019 
L 466.977557 -209.793019 
L 467.420854 -209.793019 
L 467.864151 -209.793019 
L 468.307448 -209.793019 
L 468.750745 -209.793019 
L 469.194042 -209.793019 
L 469.637339 -209.793019 
L 470.080636 -209.793019 
L 470.523932 -209.793019 
L 470.967229 -209.793019 
L 471.410526 -209.793019 
L 471.853823 -209.793019 
L 472.29712 -209.793019 
L 472.740417 -209.793019 
L 473.183714 -209.793019 
L 473.627011 -209.793019 
L 474.070308 -209.793019 
L 474.513605 -209.793019 
L 474.956902 -209.793019 
L 475.400199 -209.793019 
L 475.843496 -209.793019 
L 476.286792 -209.793019 
L 476.730089 -209.793019 
L 477.173386 -209.793019 
L 477.616683 -209.793019 
L 478.05998 -209.793019 
L 478.503277 -209.793019 
L 478.946574 -209.793019 
L 479.389871 -209.793019 
L 479.833168 -209.793019 
L 480.276465 -209.793019 
L 480.719762 -209.793019 
L 481.163059 -209.793019 
L 481.606356 -209.793019 
L 482.049652 -209.793019 
L 482.492949 -209.793019 
L 482.936246 -209.793019 
L 483.379543 -209.793019 
L 483.82284 -209.793019 
L 484.266137 -209.793019 
L 484.709434 -209.793019 
L 485.152731 -209.793019 
L 485.596028 -209.793019 
L 486.039325 -209.793019 
L 486.482622 -209.793019 
L 486.925919 -209.793019 
L 487.369215 -209.793019 
L 487.812512 -209.793019 
L 488.255809 -209.793019 
L 488.699106 -209.793019 
L 489.142403 -209.793019 
L 489.5857 -209.793019 
L 490.028997 -209.793019 
L 490.472294 -209.793019 
L 490.915591 -209.793019 
L 491.358888 -209.793019 
L 491.802185 -209.793019 
L 492.245482 -209.793019 
L 492.688779 -209.793019 
L 493.132075 -209.793019 
L 493.575372 -209.793019 
L 494.018669 -209.793019 
L 494.461966 -209.793019 
L 494.905263 -209.793019 
L 495.34856 -209.793019 
L 495.791857 -209.793019 
L 496.235154 -209.793019 
L 496.678451 -209.793019 
L 497.121748 -209.793019 
L 497.565045 -209.793019 
L 498.008342 -209.793019 
L 498.451639 -209.793019 
L 498.894935 -209.793019 
L 499.338232 -209.793019 
L 499.781529 -209.793019 
L 500.224826 -209.793019 
L 500.668123 -209.793019 
L 501.11142 -209.793019 
L 501.554717 -209.793019 
L 501.998014 -209.793019 
L 502.441311 -209.793019 
L 502.884608 -209.793019 
L 503.327905 -209.793019 
L 503.771202 -209.793019 
L 504.214499 -209.793019 
L 504.657795 -209.793019 
L 505.101092 -209.793019 
L 505.544389 -209.793019 
L 505.987686 -209.793019 
L 506.430983 -209.793019 
L 506.87428 -209.793019 
L 507.317577 -209.793019 
L 507.760874 -209.793019 
L 508.204171 -209.793019 
L 508.647468 -209.793019 
L 509.090765 -209.793019 
L 509.534062 -209.793019 
L 509.977358 -209.793019 
L 510.420655 -209.793019 
L 510.863952 -209.793019 
L 511.307249 -209.793019 
L 511.750546 -209.793019 
L 512.193843 -209.793019 
L 512.63714 -209.793019 
L 513.080437 -209.793019 
L 513.523734 -209.793019 
L 513.967031 -209.793019 
L 514.410328 -209.793019 
L 514.853625 -209.793019 
L 515.296922 -209.793019 
L 515.740218 -209.793019 
L 516.183515 -209.793019 
L 516.626812 -209.793019 
L 517.070109 -209.793019 
L 517.513406 -209.793019 
L 517.956703 -209.793019 
L 518.4 -209.793019 
L 518.4 -205.834928 
L 518.4 -205.834928 
L 517.956703 -205.834928 
L 517.513406 -205.834928 
L 517.070109 -205.834928 
L 516.626812 -205.834928 
L 516.183515 -205.834928 
L 515.740218 -205.834928 
L 515.296922 -205.834928 
L 514.853625 -205.834928 
L 514.410328 -205.834928 
L 513.967031 -205.834928 
L 513.523734 -205.834928 
L 513.080437 -205.834928 
L 512.63714 -205.834928 
L 512.193843 -205.834928 
L 511.750546 -205.834928 
L 511.307249 -205.834928 
L 510.863952 -205.834928 
L 510.420655 -205.834928 
L 509.977358 -205.834928 
L 509.534062 -205.834928 
L 509.090765 -205.834928 
L 508.647468 -205.834928 
L 508.204171 -205.834928 
L 507.760874 -205.834928 
L 507.317577 -205.834928 
L 506.87428 -205.834928 
L 506.430983 -205.834928 
L 505.987686 -205.834928 
L 505.544389 -205.834928 
L 505.101092 -205.834928 
L 504.657795 -205.834928 
L 504.214499 -205.834928 
L 503.771202 -205.834928 
L 503.327905 -205.834928 
L 502.884608 -205.834928 
L 502.441311 -205.834928 
L 501.998014 -205.834928 
L 501.554717 -205.834928 
L 501.11142 -205.834928 
L 500.668123 -205.834928 
L 500.224826 -205.834928 
L 499.781529 -205.834928 
L 499.338232 -205.834928 
L 498.894935 -205.834928 
L 498.451639 -205.834928 
L 498.008342 -205.834928 
L 497.565045 -205.834928 
L 497.121748 -205.834928 
L 496.678451 -205.834928 
L 496.235154 -205.834928 
L 495.791857 -205.834928 
L 495.34856 -205.834928 
L 494.905263 -205.834928 
L 494.461966 -205.834928 
L 494.018669 -205.834928 
L 493.575372 -205.834928 
L 493.132075 -205.834928 
L 492.688779 -205.834928 
L 492.245482 -205.834928 
L 491.802185 -205.834928 
L 491.358888 -205.834928 
L 490.915591 -205.834928 
L 490.472294 -205.834928 
L 490.028997 -205.834928 
L 489.5857 -205.834928 
L 489.142403 -205.834928 
L 488.699106 -205.834928 
L 488.255809 -205.834928 
L 487.812512 -205.834928 
L 487.369215 -205.834928 
L 486.925919 -205.834928 
L 486.482622 -205.834928 
L 486.039325 -205.834928 
L 485.596028 -205.834928 
L 485.152731 -205.834928 
L 484.709434 -205.834928 
L 484.266137 -205.834928 
L 483.82284 -205.834928 
L 483.379543 -205.834928 
L 482.936246 -205.834928 
L 482.492949 -205.834928 
L 482.049652 -205.834928 
L 481.606356 -205.834928 
L 481.163059 -205.834928 
L 480.719762 -205.834928 
L 480.276465 -205.834928 
L 479.833168 -205.834928 
L 479.389871 -205.834928 
L 478.946574 -205.834928 
L 478.503277 -205.834928 
L 478.05998 -205.834928 
L 477.616683 -205.834928 
L 477.173386 -205.834928 
L 476.730089 -205.834928 
L 476.286792 -205.834928 
L 475.843496 -205.834928 
L 475.400199 -205.834928 
L 474.956902 -205.834928 
L 474.513605 -205.834928 
L 474.070308 -205.834928 
L 473.627011 -205.834928 
L 473.183714 -205.834928 
L 472.740417 -205.834928 
L 472.29712 -205.834928 
L 471.853823 -205.834928 
L 471.410526 -205.834928 
L 470.967229 -205.834928 
L 470.523932 -205.834928 
L 470.080636 -205.834928 
L 469.637339 -205.834928 
L 469.194042 -205.834928 
L 468.750745 -205.834928 
L 468.307448 -205.834928 
L 467.864151 -205.834928 
L 467.420854 -205.834928 
L 466.977557 -205.834928 
L 466.53426 -205.834928 
L 466.090963 -205.834928 
L 465.647666 -205.834928 
L 465.204369 -205.834928 
L 464.761072 -205.834928 
L 464.317776 -205.834928 
L 463.874479 -205.834928 
L 463.431182 -205.834928 
L 462.987885 -205.834928 
L 462.544588 -205.834928 
L 462.101291 -205.834928 
L 461.657994 -205.834928 
L 461.214697 -205.834928 
L 460.7714 -205.834928 
L 460.328103 -205.834928 
L 459.884806 -205.834928 
L 459.441509 -205.834928 
L 458.998213 -205.834928 
L 458.554916 -205.834928 
L 458.111619 -205.834928 
L 457.668322 -205.834928 
L 457.225025 -205.834928 
L 456.781728 -205.834928 
L 456.338431 -205.834928 
L 455.895134 -205.834928 
L 455.451837 -205.834928 
L 455.00854 -205.834928 
L 454.565243 -205.834928 
L 454.121946 -205.834928 
L 453.678649 -205.834928 
L 453.235353 -205.834928 
L 452.792056 -205.834928 
L 452.348759 -205.834928 
L 451.905462 -205.834928 
L 451.462165 -205.834928 
L 451.018868 -205.834928 
L 450.575571 -205.834928 
L 450.132274 -205.834928 
L 449.688977 -205.834928 
L 449.24568 -205.834928 
L 448.802383 -205.834928 
L 448.359086 -205.834928 
L 447.915789 -205.834928 
L 447.472493 -205.834928 
L 447.029196 -205.834928 
L 446.585899 -205.834928 
L 446.142602 -205.834928 
L 445.699305 -205.834928 
L 445.256008 -205.834928 
L 444.812711 -205.834928 
L 444.369414 -205.834928 
L 443.926117 -205.834928 
L 443.48282 -205.834928 
L 443.039523 -205.834928 
L 442.596226 -205.834928 
L 442.152929 -205.834928 
L 441.709633 -205.834928 
L 441.266336 -205.834928 
L 440.823039 -205.834928 
L 440.379742 -205.834928 
L 439.936445 -205.834928 
L 439.493148 -205.834928 
L 439.049851 -205.834928 
L 438.606554 -205.834928 
L 438.163257 -205.834928 
L 437.71996 -205.834928 
L 437.276663 -205.834928 
L 436.833366 -205.834928 
L 436.39007 -205.834928 
L 435.946773 -205.834928 
L 435.503476 -205.834928 
L 435.060179 -205.834928 
L 434.616882 -205.834928 
L 434.173585 -205.834928 
L 433.730288 -205.834928 
L 433.286991 -205.834928 
L 432.843694 -205.834928 
L 432.400397 -205.834928 
L 431.9571 -205.834928 
L 431.513803 -205.834928 
L 431.070506 -205.834928 
L 430.62721 -205.834928 
L 430.183913 -205.834928 
L 429.740616 -205.834928 
L 429.297319 -205.834928 
L 428.854022 -205.834928 
L 428.410725 -205.834928 
L 427.967428 -205.834928 
L 427.524131 -205.834928 
L 427.080834 -205.834928 
L 426.637537 -205.834928 
L 426.19424 -205.834928 
L 425.750943 -205.834928 
L 425.307646 -205.834928 
L 424.86435 -205.834928 
L 424.421053 -205.834928 
L 423.977756 -205.834928 
L 423.534459 -205.834928 
L 423.091162 -205.834928 
L 422.647865 -205.834928 
L 422.204568 -205.834928 
L 421.761271 -205.834928 
L 421.317974 -205.834928 
L 420.874677 -205.834928 
L 420.43138 -205.834928 
L 419.988083 -205.834928 
L 419.544786 -205.834928 
L 419.10149 -205.834928 
L 418.658193 -205.834928 
L 418.214896 -205.834928 
L 417.771599 -205.834928 
L 417.328302 -205.834928 
L 416.885005 -205.834928 
L 416.441708 -205.834928 
L 415.998411 -205.834928 
L 415.555114 -205.834928 
L 415.111817 -205.834928 
L 414.66852 -205.834928 
L 414.225223 -205.834928 
L 413.781927 -205.834928 
L 413.33863 -205.834928 
L 412.895333 -205.834928 
L 412.452036 -205.834928 
L 412.008739 -205.834928 
L 411.565442 -205.834928 
L 411.122145 -205.834928 
L 410.678848 -205.834928 
L 410.235551 -205.834928 
L 409.792254 -205.834928 
L 409.348957 -205.834928 
L 408.90566 -205.834928 
L 408.462363 -205.834928 
L 408.019067 -205.834928 
L 407.57577 -205.834928 
L 407.132473 -205.834928 
L 406.689176 -205.834928 
L 406.245879 -205.834928 
L 405.802582 -205.834928 
L 405.359285 -205.834928 
L 404.915988 -205.834928 
L 404.472691 -205.834928 
L 404.029394 -205.834928 
L 403.586097 -205.834928 
L 403.1428 -205.834928 
L 402.699503 -205.834928 
L 402.256207 -205.834928 
L 401.81291 -205.834928 
L 401.369613 -205.834928 
L 400.926316 -205.834928 
L 400.483019 -205.834928 
L 400.039722 -205.834928 
L 399.596425 -205.834928 
L 399.153128 -205.834928 
L 398.709831 -205.834928 
L 398.266534 -205.834928 
L 397.823237 -205.834928 
L 397.37994 -205.834928 
L 396.936643 -205.834928 
L 396.493347 -205.834928 
L 396.05005 -205.834928 
L 395.606753 -205.834928 
L 395.163456 -205.834928 
L 394.720159 -205.834928 
L 394.276862 -205.834928 
L 393.833565 -205.834928 
L 393.390268 -205.834928 
L 392.946971 -205.834928 
L 392.503674 -205.834928 
L 392.060377 -205.834928 
L 391.61708 -205.834928 
L 391.173784 -205.834928 
L 390.730487 -205.834928 
L 390.28719 -205.834928 
L 389.843893 -205.834928 
L 389.400596 -205.834928 
L 388.957299 -205.834928 
L 388.514002 -205.834928 
L 388.070705 -205.834928 
L 387.627408 -205.834928 
L 387.184111 -205.834928 
L 386.740814 -205.834928 
L 386.297517 -205.834928 
L 385.85422 -205.834928 
L 385.410924 -205.834928 
L 384.967627 -205.834928 
L 384.52433 -205.834928 
L 384.081033 -205.834928 
L 383.637736 -205.834928 
L 383.194439 -205.834928 
L 382.751142 -205.834928 
L 382.307845 -205.834928 
L 381.864548 -205.834928 
L 381.421251 -205.834928 
L 380.977954 -205.834928 
L 380.534657 -205.834928 
L 380.09136 -205.834928 
L 379.648064 -205.834928 
L 379.204767 -205.834928 
L 378.76147 -205.834928 
L 378.318173 -205.834928 
L 377.874876 -205.834928 
L 377.431579 -205.834928 
L 376.988282 -205.834928 
L 376.544985 -205.834928 
L 376.101688 -205.834928 
L 375.658391 -205.834928 
L 375.215094 -205.834928 
L 374.771797 -205.834928 
L 374.3285 -205.834928 
L 373.885204 -205.834928 
L 373.441907 -205.834928 
L 372.99861 -205.834928 
L 372.555313 -205.834928 
L 372.112016 -205.834928 
L 371.668719 -205.834928 
L 371.225422 -205.834928 
L 370.782125 -205.834928 
L 370.338828 -205.834928 
L 369.895531 -205.834928 
L 369.452234 -205.834928 
L 369.008937 -205.834928 
L 368.565641 -205.834928 
L 368.122344 -205.834928 
L 367.679047 -205.834928 
L 367.23575 -205.834928 
L 366.792453 -205.834928 
L 366.349156 -205.834928 
L 365.905859 -205.834928 
L 365.462562 -205.834928 
L 365.019265 -205.834928 
L 364.575968 -205.834928 
L 364.132671 -205.834928 
L 363.689374 -205.834928 
L 363.246077 -205.834928 
L 362.802781 -205.834928 
L 362.359484 -205.834928 
L 361.916187 -205.834928 
L 361.47289 -205.834928 
L 361.029593 -205.834928 
L 360.586296 -205.834928 
L 360.142999 -205.834928 
L 359.699702 -205.834928 
L 359.256405 -205.834928 
L 358.813108 -205.834928 
L 358.369811 -205.834928 
L 357.926514 -205.834928 
L 357.483217 -205.834928 
L 357.039921 -205.834928 
L 356.596624 -205.834928 
L 356.153327 -205.834928 
L 355.71003 -205.834928 
L 355.266733 -205.834928 
L 354.823436 -205.834928 
L 354.380139 -205.834928 
L 353.936842 -205.834928 
L 353.493545 -205.834928 
L 353.050248 -205.834928 
L 352.606951 -205.834928 
L 352.163654 -205.834928 
L 351.720357 -205.834928 
L 351.277061 -205.834928 
L 350.833764 -205.834928 
L 350.390467 -205.834928 
L 349.94717 -205.834928 
L 349.503873 -205.834928 
L 349.060576 -205.834928 
L 348.617279 -205.834928 
L 348.173982 -205.834928 
L 347.730685 -205.834928 
L 347.287388 -205.834928 
L 346.844091 -205.834928 
L 346.400794 -205.834928 
L 345.957498 -205.834928 
L 345.514201 -205.834928 
L 345.070904 -205.834928 
L 344.627607 -205.834928 
L 344.18431 -205.834928 
L 343.741013 -205.834928 
L 343.297716 -205.834928 
L 342.854419 -205.834928 
L 342.411122 -205.834928 
L 341.967825 -205.834928 
L 341.524528 -205.834928 
L 341.081231 -205.834928 
L 340.637934 -205.834928 
L 340.194638 -205.834928 
L 339.751341 -205.834928 
L 339.308044 -205.834928 
L 338.864747 -205.834928 
L 338.42145 -205.834928 
L 337.978153 -205.834928 
L 337.534856 -205.834928 
L 337.091559 -205.834928 
L 336.648262 -205.834928 
L 336.204965 -205.834928 
L 335.761668 -205.834928 
L 335.318371 -205.834928 
L 334.875074 -205.834928 
L 334.431778 -205.834928 
L 333.988481 -205.834928 
L 333.545184 -205.834928 
L 333.101887 -205.834928 
L 332.65859 -205.834928 
L 332.215293 -205.834928 
L 331.771996 -205.834928 
L 331.328699 -205.834928 
L 330.885402 -205.834928 
L 330.442105 -205.834928 
L 329.998808 -205.834928 
L 329.555511 -205.834928 
L 329.112214 -205.834928 
L 328.668918 -205.834928 
L 328.225621 -205.834928 
L 327.782324 -205.834928 
L 327.339027 -205.834928 
L 326.89573 -205.834928 
L 326.452433 -205.834928 
L 326.009136 -205.834928 
L 325.565839 -205.834928 
L 325.122542 -205.834928 
L 324.679245 -205.834928 
L 324.235948 -205.834928 
L 323.792651 -205.834928 
L 323.349355 -205.834928 
L 322.906058 -205.834928 
L 322.462761 -205.834928 
L 322.019464 -205.834928 
L 321.576167 -205.834928 
L 321.13287 -205.834928 
L 320.689573 -205.834928 
L 320.246276 -205.834928 
L 319.802979 -205.834928 
L 319.359682 -205.834928 
L 318.916385 -205.834928 
L 318.473088 -205.834928 
L 318.029791 -205.834928 
L 317.586495 -205.834928 
L 317.143198 -205.834928 
L 316.699901 -205.834928 
L 316.256604 -205.834928 
L 315.813307 -205.834928 
L 315.37001 -205.834928 
L 314.926713 -205.834928 
L 314.483416 -205.834928 
L 314.040119 -205.834928 
L 313.596822 -205.834928 
L 313.153525 -205.834928 
L 312.710228 -205.834928 
L 312.266931 -205.834928 
L 311.823635 -205.834928 
L 311.380338 -205.834928 
L 310.937041 -205.834928 
L 310.493744 -205.834928 
L 310.050447 -205.834928 
L 309.60715 -205.834928 
L 309.163853 -205.834928 
L 308.720556 -205.834928 
L 308.277259 -205.834928 
L 307.833962 -205.834928 
L 307.390665 -205.834928 
L 306.947368 -205.834928 
L 306.504071 -205.834928 
L 306.060775 -205.834928 
L 305.617478 -205.834928 
L 305.174181 -205.834928 
L 304.730884 -205.834928 
L 304.287587 -205.834928 
L 303.84429 -205.834928 
L 303.400993 -205.834928 
L 302.957696 -205.834928 
L 302.514399 -205.834928 
L 302.071102 -205.834928 
L 301.627805 -205.834928 
L 301.184508 -205.834928 
L 300.741212 -205.834928 
L 300.297915 -205.834928 
L 299.854618 -205.834928 
L 299.411321 -205.834928 
L 298.968024 -205.834928 
L 298.524727 -205.834928 
L 298.08143 -205.834928 
L 297.638133 -205.834928 
L 297.194836 -205.834928 
L 296.751539 -205.834928 
L 296.308242 -205.834928 
L 295.864945 -205.834928 
L 295.421648 -205.834928 
L 294.978352 -205.834928 
L 294.535055 -205.834928 
L 294.091758 -205.834928 
L 293.648461 -205.834928 
L 293.205164 -205.834928 
L 292.761867 -205.834928 
L 292.31857 -205.834928 
L 291.875273 -205.834928 
L 291.431976 -205.834928 
L 290.988679 -205.834928 
L 290.545382 -205.834928 
L 290.102085 -205.834928 
L 289.658788 -205.834928 
L 289.215492 -205.834928 
L 288.772195 -205.834928 
L 288.328898 -205.834928 
L 287.885601 -205.834928 
L 287.442304 -205.834928 
L 286.999007 -205.834928 
L 286.55571 -205.834928 
L 286.112413 -205.834928 
L 285.669116 -205.834928 
L 285.225819 -205.834928 
L 284.782522 -205.834928 
L 284.339225 -205.834928 
L 283.895929 -205.834928 
L 283.452632 -205.834928 
L 283.009335 -205.834928 
L 282.566038 -205.834928 
L 282.122741 -205.834928 
L 281.679444 -205.834928 
L 281.236147 -205.834928 
L 280.79285 -205.834928 
L 280.349553 -205.834928 
L 279.906256 -205.834928 
L 279.462959 -205.834928 
L 279.019662 -205.834928 
L 278.576365 -205.834928 
L 278.133069 -205.834928 
L 277.689772 -205.834928 
L 277.246475 -205.834928 
L 276.803178 -205.834928 
L 276.359881 -205.834928 
L 275.916584 -205.834928 
L 275.473287 -205.834928 
L 275.02999 -205.834928 
L 274.586693 -205.834928 
L 274.143396 -205.834928 
L 273.700099 -205.834928 
L 273.256802 -205.834928 
L 272.813505 -205.834928 
L 272.370209 -205.834928 
L 271.926912 -205.834928 
L 271.483615 -205.834928 
L 271.040318 -205.834928 
L 270.597021 -205.834928 
L 270.153724 -205.834928 
L 269.710427 -205.834928 
L 269.26713 -205.834928 
L 268.823833 -205.834928 
L 268.380536 -205.834928 
L 267.937239 -205.834928 
L 267.493942 -205.834928 
L 267.050645 -205.834928 
L 266.607349 -205.834928 
L 266.164052 -205.834928 
L 265.720755 -205.834928 
L 265.277458 -205.834928 
L 264.834161 -205.834928 
L 264.390864 -205.834928 
L 263.947567 -205.834928 
L 263.50427 -205.834928 
L 263.060973 -205.834928 
L 262.617676 -205.834928 
L 262.174379 -205.834928 
L 261.731082 -205.834928 
L 261.287786 -205.834928 
L 260.844489 -205.834928 
L 260.401192 -205.834928 
L 259.957895 -205.834928 
L 259.514598 -205.834928 
L 259.071301 -205.834928 
L 258.628004 -205.834928 
L 258.184707 -205.834928 
L 257.74141 -205.834928 
L 257.298113 -205.834928 
L 256.854816 -205.834928 
L 256.411519 -205.834928 
L 255.968222 -205.834928 
L 255.524926 -205.834928 
L 255.081629 -205.834928 
L 254.638332 -205.834928 
L 254.195035 -205.834928 
L 253.751738 -205.834928 
L 253.308441 -205.834928 
L 252.865144 -205.834928 
L 252.421847 -205.834928 
L 251.97855 -205.834928 
L 251.535253 -205.834928 
L 251.091956 -205.834928 
L 250.648659 -205.834928 
L 250.205362 -205.834928 
L 249.762066 -205.834928 
L 249.318769 -205.834928 
L 248.875472 -205.834928 
L 248.432175 -205.834928 
L 247.988878 -205.834928 
L 247.545581 -205.834928 
L 247.102284 -205.834928 
L 246.658987 -205.834928 
L 246.21569 -205.834928 
L 245.772393 -205.834928 
L 245.329096 -205.834928 
L 244.885799 -205.834928 
L 244.442502 -205.834928 
L 243.999206 -205.834928 
L 243.555909 -205.834928 
L 243.112612 -205.834928 
L 242.669315 -205.834928 
L 242.226018 -205.834928 
L 241.782721 -205.834928 
L 241.339424 -205.834928 
L 240.896127 -205.834928 
L 240.45283 -205.834928 
L 240.009533 -205.834928 
L 239.566236 -205.834928 
L 239.122939 -205.834928 
L 238.679643 -205.834928 
L 238.236346 -205.834928 
L 237.793049 -205.834928 
L 237.349752 -205.834928 
L 236.906455 -205.834928 
L 236.463158 -205.834928 
L 236.019861 -205.834928 
L 235.576564 -205.834928 
L 235.133267 -205.834928 
L 234.68997 -205.834928 
L 234.246673 -205.834928 
L 233.803376 -205.834928 
L 233.360079 -205.834928 
L 232.916783 -205.834928 
L 232.473486 -205.834928 
L 232.030189 -205.834928 
L 231.586892 -205.834928 
L 231.143595 -205.834928 
L 230.700298 -205.834928 
L 230.257001 -205.834928 
L 229.813704 -205.834928 
L 229.370407 -205.834928 
L 228.92711 -205.834928 
L 228.483813 -205.834928 
L 228.040516 -205.834928 
L 227.597219 -205.834928 
L 227.153923 -205.834928 
L 226.710626 -205.834928 
L 226.267329 -205.834928 
L 225.824032 -205.834928 
L 225.380735 -205.834928 
L 224.937438 -205.834928 
L 224.494141 -205.834928 
L 224.050844 -205.834928 
L 223.607547 -205.834928 
L 223.16425 -205.834928 
L 222.720953 -205.834928 
L 222.277656 -205.834928 
L 221.834359 -205.834928 
L 221.391063 -205.834928 
L 220.947766 -205.834928 
L 220.504469 -205.834928 
L 220.061172 -205.834928 
L 219.617875 -205.834928 
L 219.174578 -205.834928 
L 218.731281 -205.834928 
L 218.287984 -205.834928 
L 217.844687 -205.834928 
L 217.40139 -205.834928 
L 216.958093 -205.834928 
L 216.514796 -205.834928 
L 216.0715 -205.834928 
L 215.628203 -205.834928 
L 215.184906 -205.834928 
L 214.741609 -205.834928 
L 214.298312 -205.834928 
L 213.855015 -205.834928 
L 213.411718 -205.834928 
L 212.968421 -205.834928 
L 212.525124 -205.834928 
L 212.081827 -205.834928 
L 211.63853 -205.834928 
L 211.195233 -205.834928 
L 210.751936 -205.834928 
L 210.30864 -205.834928 
L 209.865343 -205.834928 
L 209.422046 -205.834928 
L 208.978749 -205.834928 
L 208.535452 -205.834928 
L 208.092155 -205.834928 
L 207.648858 -205.834928 
L 207.205561 -205.834928 
L 206.762264 -205.834928 
L 206.318967 -205.834928 
L 205.87567 -205.834928 
L 205.432373 -205.834928 
L 204.989076 -205.834928 
L 204.54578 -205.834928 
L 204.102483 -205.834928 
L 203.659186 -205.834928 
L 203.215889 -205.834928 
L 202.772592 -205.834928 
L 202.329295 -205.834928 
L 201.885998 -205.834928 
L 201.442701 -205.834928 
L 200.999404 -205.834928 
L 200.556107 -205.834928 
L 200.11281 -205.834928 
L 199.669513 -205.834928 
L 199.226216 -205.834928 
L 198.78292 -205.834928 
L 198.339623 -205.834928 
L 197.896326 -205.834928 
L 197.453029 -205.834928 
L 197.009732 -205.834928 
L 196.566435 -205.834928 
L 196.123138 -205.834928 
L 195.679841 -205.834928 
L 195.236544 -205.834928 
L 194.793247 -205.834928 
L 194.34995 -205.834928 
L 193.906653 -205.834928 
L 193.463357 -205.834928 
L 193.02006 -205.834928 
L 192.576763 -205.834928 
L 192.133466 -205.834928 
L 191.690169 -205.834928 
L 191.246872 -205.834928 
L 190.803575 -205.834928 
L 190.360278 -205.834928 
L 189.916981 -205.834928 
L 189.473684 -205.834928 
L 189.030387 -205.834928 
L 188.58709 -205.834928 
L 188.143793 -205.834928 
L 187.700497 -205.834928 
L 187.2572 -205.834928 
L 186.813903 -205.834928 
L 186.370606 -205.834928 
L 185.927309 -205.834928 
L 185.484012 -205.834928 
L 185.040715 -205.834928 
L 184.597418 -205.834928 
L 184.154121 -205.834928 
L 183.710824 -205.834928 
L 183.267527 -205.834928 
L 182.82423 -205.834928 
L 182.380933 -205.834928 
L 181.937637 -205.834928 
L 181.49434 -205.834928 
L 181.051043 -205.834928 
L 180.607746 -205.834928 
L 180.164449 -205.834928 
L 179.721152 -205.834928 
L 179.277855 -205.834928 
L 178.834558 -205.834928 
L 178.391261 -205.834928 
L 177.947964 -205.834928 
L 177.504667 -205.834928 
L 177.06137 -205.834928 
L 176.618073 -205.834928 
L 176.174777 -205.834928 
L 175.73148 -205.834928 
L 175.288183 -205.834928 
L 174.844886 -205.834928 
L 174.401589 -205.834928 
L 173.958292 -205.834928 
L 173.514995 -205.834928 
L 173.071698 -205.834928 
L 172.628401 -205.834928 
L 172.185104 -205.834928 
L 171.741807 -205.834928 
L 171.29851 -205.834928 
L 170.855214 -205.834928 
L 170.411917 -205.834928 
L 169.96862 -205.834928 
L 169.525323 -205.834928 
L 169.082026 -205.834928 
L 168.638729 -205.834928 
L 168.195432 -205.834928 
L 167.752135 -205.834928 
L 167.308838 -205.834928 
L 166.865541 -205.834928 
L 166.422244 -205.834928 
L 165.978947 -205.834928 
L 165.53565 -205.834928 
L 165.092354 -205.834928 
L 164.649057 -205.834928 
L 164.20576 -205.834928 
L 163.762463 -205.834928 
L 163.319166 -205.834928 
L 162.875869 -205.834928 
L 162.432572 -205.834928 
L 161.989275 -205.834928 
L 161.545978 -205.834928 
L 161.102681 -205.834928 
L 160.659384 -205.834928 
L 160.216087 -205.834928 
L 159.77279 -205.834928 
L 159.329494 -205.834928 
L 158.886197 -205.834928 
L 158.4429 -205.834928 
L 157.999603 -205.834928 
L 157.556306 -205.834928 
L 157.113009 -205.834928 
L 156.669712 -205.834928 
L 156.226415 -205.834928 
L 155.783118 -205.834928 
L 155.339821 -205.834928 
L 154.896524 -205.834928 
L 154.453227 -205.834928 
L 154.00993 -205.834928 
L 153.566634 -205.834928 
L 153.123337 -205.834928 
L 152.68004 -205.834928 
L 152.236743 -205.834928 
L 151.793446 -205.834928 
L 151.350149 -205.834928 
L 150.906852 -205.834928 
L 150.463555 -205.834928 
L 150.020258 -205.834928 
L 149.576961 -205.834928 
L 149.133664 -205.834928 
L 148.690367 -205.834928 
L 148.247071 -205.834928 
L 147.803774 -205.834928 
L 147.360477 -205.834928 
L 146.91718 -205.834928 
L 146.473883 -205.834928 
L 146.030586 -205.834928 
L 145.587289 -205.834928 
L 145.143992 -205.834928 
L 144.700695 -205.834928 
L 144.257398 -205.834928 
L 143.814101 -205.834928 
L 143.370804 -205.834928 
L 142.927507 -205.834928 
L 142.484211 -205.834928 
L 142.040914 -205.834928 
L 141.597617 -205.834928 
L 141.15432 -205.834928 
L 140.711023 -205.834928 
L 140.267726 -205.834928 
L 139.824429 -205.834928 
L 139.381132 -205.834928 
L 138.937835 -205.834928 
L 138.494538 -205.834928 
L 138.051241 -205.834928 
L 137.607944 -205.834928 
L 137.164647 -205.834928 
L 136.721351 -205.834928 
L 136.278054 -205.834928 
L 135.834757 -205.834928 
L 135.39146 -205.834928 
L 134.948163 -205.834928 
L 134.504866 -205.834928 
L 134.061569 -205.834928 
L 133.618272 -205.834928 
L 133.174975 -205.834928 
L 132.731678 -205.834928 
L 132.288381 -205.834928 
L 131.845084 -205.834928 
L 131.401787 -205.834928 
L 130.958491 -205.834928 
L 130.515194 -205.834928 
L 130.071897 -205.834928 
L 129.6286 -205.834928 
L 129.185303 -205.834928 
L 128.742006 -205.834928 
L 128.298709 -205.834928 
L 127.855412 -205.834928 
L 127.412115 -205.834928 
L 126.968818 -205.834928 
L 126.525521 -205.834928 
L 126.082224 -205.834928 
L 125.638928 -205.834928 
L 125.195631 -205.834928 
L 124.752334 -205.834928 
L 124.309037 -205.834928 
L 123.86574 -205.834928 
L 123.422443 -205.834928 
L 122.979146 -205.834928 
L 122.535849 -205.834928 
L 122.092552 -205.834928 
L 121.649255 -205.834928 
L 121.205958 -205.834928 
L 120.762661 -205.834928 
L 120.319364 -205.834928 
L 119.876068 -205.834928 
L 119.432771 -205.834928 
L 118.989474 -205.834928 
L 118.546177 -205.834928 
L 118.10288 -205.834928 
L 117.659583 -205.834928 
L 117.216286 -205.834928 
L 116.772989 -205.834928 
L 116.329692 -205.834928 
L 115.886395 -205.834928 
L 115.443098 -205.834928 
L 114.999801 -205.834928 
L 114.556504 -205.834928 
L 114.113208 -205.834928 
L 113.669911 -205.834928 
L 113.226614 -205.834928 
L 112.783317 -205.834928 
L 112.34002 -205.834928 
L 111.896723 -205.834928 
L 111.453426 -205.834928 
L 111.010129 -205.834928 
L 110.566832 -205.834928 
L 110.123535 -205.834928 
L 109.680238 -205.834928 
L 109.236941 -205.834928 
L 108.793644 -205.834928 
L 108.350348 -205.834928 
L 107.907051 -205.834928 
L 107.463754 -205.834928 
L 107.020457 -205.834928 
L 106.57716 -205.834928 
L 106.133863 -205.834928 
L 105.690566 -205.834928 
L 105.247269 -205.834928 
L 104.803972 -205.834928 
L 104.360675 -205.834928 
L 103.917378 -205.834928 
L 103.474081 -205.834928 
L 103.030785 -205.834928 
L 102.587488 -205.834928 
L 102.144191 -205.834928 
L 101.700894 -205.834928 
L 101.257597 -205.834928 
L 100.8143 -205.834928 
L 100.371003 -205.834928 
L 99.927706 -205.834928 
L 99.484409 -205.834928 
L 99.041112 -205.834928 
L 98.597815 -205.834928 
L 98.154518 -205.834928 
L 97.711221 -205.834928 
L 97.267925 -205.834928 
L 96.824628 -205.834928 
L 96.381331 -205.834928 
L 95.938034 -205.834928 
L 95.494737 -205.834928 
L 95.05144 -205.834928 
L 94.608143 -205.834928 
L 94.164846 -205.834928 
L 93.721549 -205.834928 
L 93.278252 -205.834928 
L 92.834955 -205.834928 
L 92.391658 -205.834928 
L 91.948361 -205.834928 
L 91.505065 -205.834928 
L 91.061768 -205.834928 
L 90.618471 -205.834928 
L 90.175174 -205.834928 
L 89.731877 -205.834928 
L 89.28858 -205.834928 
L 88.845283 -205.834928 
L 88.401986 -205.834928 
L 87.958689 -205.834928 
L 87.515392 -205.834928 
L 87.072095 -205.834928 
L 86.628798 -205.834928 
L 86.185501 -205.834928 
L 85.742205 -205.834928 
L 85.298908 -205.834928 
L 84.855611 -205.834928 
L 84.412314 -205.834928 
L 83.969017 -205.834928 
L 83.52572 -205.834928 
L 83.082423 -205.834928 
L 82.639126 -205.834928 
L 82.195829 -205.834928 
L 81.752532 -205.834928 
L 81.309235 -205.834928 
L 80.865938 -205.834928 
L 80.422642 -205.834928 
L 79.979345 -205.834928 
L 79.536048 -205.834928 
L 79.092751 -205.834928 
L 78.649454 -205.834928 
L 78.206157 -205.834928 
L 77.76286 -205.834928 
L 77.319563 -205.834928 
L 76.876266 -205.834928 
L 76.432969 -205.834928 
L 75.989672 -205.834928 
L 75.546375 -205.834928 
L 75.103078 -205.834928 
L 74.659782 -205.834928 
L 74.216485 -205.834928 
L 73.773188 -205.834928 
L 73.329891 -205.834928 
L 72.886594 -205.834928 
L 72.443297 -205.834928 
L 72 -205.834928 
z
" id="mbc3503ca5a"/>
    </defs>
    <g clip-path="url(#pd1a1d24ae2)">
     <use style="fill-opacity:0.15;" x="0" xlink:href="#mbc3503ca5a" y="360"/>
    </g>
   </g>
   <g id="matplotlib.axis_1">
    <g id="xtick_1">
     <g id="line2d_1">
      <defs>
       <path d="M 0 0 
L 0 3.5 
" id="me46ec258d7" style="stroke:#000000;stroke-width:0.8;"/>
      </defs>
      <g>
       <use style="stroke:#000000;stroke-width:0.8;" x="72" xlink:href="#me46ec258d7" y="320.4"/>
      </g>
     </g>
     <g id="text_1">
      <!-- 0.0 -->
      <g transform="translate(60.867812 338.037813)scale(0.14 -0.14)">
       <defs>
        <path d="M 2034 4250 
Q 1547 4250 1301 3770 
Q 1056 3291 1056 2328 
Q 1056 1369 1301 889 
Q 1547 409 2034 409 
Q 2525 409 2770 889 
Q 3016 1369 3016 2328 
Q 3016 3291 2770 3770 
Q 2525 4250 2034 4250 
z
M 2034 4750 
Q 2819 4750 3233 4129 
Q 3647 3509 3647 2328 
Q 3647 1150 3233 529 
Q 2819 -91 2034 -91 
Q 1250 -91 836 529 
Q 422 1150 422 2328 
Q 422 3509 836 4129 
Q 1250 4750 2034 4750 
z
" id="DejaVuSans-30" transform="scale(0.015625)"/>
        <path d="M 684 794 
L 1344 794 
L 1344 0 
L 684 0 
L 684 794 
z
" id="DejaVuSans-2e" transform="scale(0.015625)"/>
       </defs>
       <use xlink:href="#DejaVuSans-30"/>
       <use x="63.623047" xlink:href="#DejaVuSans-2e"/>
       <use x="95.410156" xlink:href="#DejaVuSans-30"/>
      </g>
     </g>
    </g>
    <g id="xtick_2">
     <g id="line2d_2">
      <g>
       <use style="stroke:#000000;stroke-width:0.8;" x="127.827914" xlink:href="#me46ec258d7" y="320.4"/>
      </g>
     </g>
     <g id="text_2">
      <!-- 2.5 -->
      <g transform="translate(116.695726 338.037813)scale(0.14 -0.14)">
       <defs>
        <path d="M 1228 531 
L 3431 531 
L 3431 0 
L 469 0 
L 469 531 
Q 828 903 1448 1529 
Q 2069 2156 2228 2338 
Q 2531 2678 2651 2914 
Q 2772 3150 2772 3378 
Q 2772 3750 2511 3984 
Q 2250 4219 1831 4219 
Q 1534 4219 1204 4116 
Q 875 4013 500 3803 
L 500 4441 
Q 881 4594 1212 4672 
Q 1544 4750 1819 4750 
Q 2544 4750 2975 4387 
Q 3406 4025 3406 3419 
Q 3406 3131 3298 2873 
Q 3191 2616 2906 2266 
Q 2828 2175 2409 1742 
Q 1991 1309 1228 531 
z
" id="DejaVuSans-32" transform="scale(0.015625)"/>
        <path d="M 691 4666 
L 3169 4666 
L 3169 4134 
L 1269 4134 
L 1269 2991 
Q 1406 3038 1543 3061 
Q 1681 3084 1819 3084 
Q 2600 3084 3056 2656 
Q 3513 2228 3513 1497 
Q 3513 744 3044 326 
Q 2575 -91 1722 -91 
Q 1428 -91 1123 -41 
Q 819 9 494 109 
L 494 744 
Q 775 591 1075 516 
Q 1375 441 1709 441 
Q 2250 441 2565 725 
Q 2881 1009 2881 1497 
Q 2881 1984 2565 2268 
Q 2250 2553 1709 2553 
Q 1456 2553 1204 2497 
Q 953 2441 691 2322 
L 691 4666 
z
" id="DejaVuSans-35" transform="scale(0.015625)"/>
       </defs>
       <use xlink:href="#DejaVuSans-32"/>
       <use x="63.623047" xlink:href="#DejaVuSans-2e"/>
       <use x="95.410156" xlink:href="#DejaVuSans-35"/>
      </g>
     </g>
    </g>
    <g id="xtick_3">
     <g id="line2d_3">
      <g>
       <use style="stroke:#000000;stroke-width:0.8;" x="183.655828" xlink:href="#me46ec258d7" y="320.4"/>
      </g>
     </g>
     <g id="text_3">
      <!-- 5.0 -->
      <g transform="translate(172.52364 338.037813)scale(0.14 -0.14)">
       <use xlink:href="#DejaVuSans-35"/>
       <use x="63.623047" xlink:href="#DejaVuSans-2e"/>
       <use x="95.410156" xlink:href="#DejaVuSans-30"/>
      </g>
     </g>
    </g>
    <g id="xtick_4">
     <g id="line2d_4">
      <g>
       <use style="stroke:#000000;stroke-width:0.8;" x="239.483742" xlink:href="#me46ec258d7" y="320.4"/>
      </g>
     </g>
     <g id="text_4">
      <!-- 7.5 -->
      <g transform="translate(228.351554 338.037813)scale(0.14 -0.14)">
       <defs>
        <path d="M 525 4666 
L 3525 4666 
L 3525 4397 
L 1831 0 
L 1172 0 
L 2766 4134 
L 525 4134 
L 525 4666 
z
" id="DejaVuSans-37" transform="scale(0.015625)"/>
       </defs>
       <use xlink:href="#DejaVuSans-37"/>
       <use x="63.623047" xlink:href="#DejaVuSans-2e"/>
       <use x="95.410156" xlink:href="#DejaVuSans-35"/>
      </g>
     </g>
    </g>
    <g id="xtick_5">
     <g id="line2d_5">
      <g>
       <use style="stroke:#000000;stroke-width:0.8;" x="295.311656" xlink:href="#me46ec258d7" y="320.4"/>
      </g>
     </g>
     <g id="text_5">
      <!-- 10.0 -->
      <g transform="translate(279.725718 338.037813)scale(0.14 -0.14)">
       <defs>
        <path d="M 794 531 
L 1825 531 
L 1825 4091 
L 703 3866 
L 703 4441 
L 1819 4666 
L 2450 4666 
L 2450 531 
L 3481 531 
L 3481 0 
L 794 0 
L 794 531 
z
" id="DejaVuSans-31" transform="scale(0.015625)"/>
       </defs>
       <use xlink:href="#DejaVuSans-31"/>
       <use x="63.623047" xlink:href="#DejaVuSans-30"/>
       <use x="127.246094" xlink:href="#DejaVuSans-2e"/>
       <use x="159.033203" xlink:href="#DejaVuSans-30"/>
      </g>
     </g>
    </g>
    <g id="xtick_6">
     <g id="line2d_6">
      <g>
       <use style="stroke:#000000;stroke-width:0.8;" x="351.13957" xlink:href="#me46ec258d7" y="320.4"/>
      </g>
     </g>
     <g id="text_6">
      <!-- 12.5 -->
      <g transform="translate(335.553632 338.037813)scale(0.14 -0.14)">
       <use xlink:href="#DejaVuSans-31"/>
       <use x="63.623047" xlink:href="#DejaVuSans-32"/>
       <use x="127.246094" xlink:href="#DejaVuSans-2e"/>
       <use x="159.033203" xlink:href="#DejaVuSans-35"/>
      </g>
     </g>
    </g>
    <g id="xtick_7">
     <g id="line2d_7">
      <g>
       <use style="stroke:#000000;stroke-width:0.8;" x="406.967484" xlink:href="#me46ec258d7" y="320.4"/>
      </g>
     </g>
     <g id="text_7">
      <!-- 15.0 -->
      <g transform="translate(391.381546 338.037813)scale(0.14 -0.14)">
       <use xlink:href="#DejaVuSans-31"/>
       <use x="63.623047" xlink:href="#DejaVuSans-35"/>
       <use x="127.246094" xlink:href="#DejaVuSans-2e"/>
       <use x="159.033203" xlink:href="#DejaVuSans-30"/>
      </g>
     </g>
    </g>
    <g id="xtick_8">
     <g id="line2d_8">
      <g>
       <use style="stroke:#000000;stroke-width:0.8;" x="462.795398" xlink:href="#me46ec258d7" y="320.4"/>
      </g>
     </g>
     <g id="text_8">
      <!-- 17.5 -->
      <g transform="translate(447.20946 338.037813)scale(0.14 -0.14)">
       <use xlink:href="#DejaVuSans-31"/>
       <use x="63.623047" xlink:href="#DejaVuSans-37"/>
       <use x="127.246094" xlink:href="#DejaVuSans-2e"/>
       <use x="159.033203" xlink:href="#DejaVuSans-35"/>
      </g>
     </g>
    </g>
    <g id="text_9">
     <!-- Time [Seconds] -->
     <g transform="translate(233.23 357.106875)scale(0.16 -0.16)">
      <defs>
       <path d="M -19 4666 
L 3928 4666 
L 3928 4134 
L 2272 4134 
L 2272 0 
L 1638 0 
L 1638 4134 
L -19 4134 
L -19 4666 
z
" id="DejaVuSans-54" transform="scale(0.015625)"/>
       <path d="M 603 3500 
L 1178 3500 
L 1178 0 
L 603 0 
L 603 3500 
z
M 603 4863 
L 1178 4863 
L 1178 4134 
L 603 4134 
L 603 4863 
z
" id="DejaVuSans-69" transform="scale(0.015625)"/>
       <path d="M 3328 2828 
Q 3544 3216 3844 3400 
Q 4144 3584 4550 3584 
Q 5097 3584 5394 3201 
Q 5691 2819 5691 2113 
L 5691 0 
L 5113 0 
L 5113 2094 
Q 5113 2597 4934 2840 
Q 4756 3084 4391 3084 
Q 3944 3084 3684 2787 
Q 3425 2491 3425 1978 
L 3425 0 
L 2847 0 
L 2847 2094 
Q 2847 2600 2669 2842 
Q 2491 3084 2119 3084 
Q 1678 3084 1418 2786 
Q 1159 2488 1159 1978 
L 1159 0 
L 581 0 
L 581 3500 
L 1159 3500 
L 1159 2956 
Q 1356 3278 1631 3431 
Q 1906 3584 2284 3584 
Q 2666 3584 2933 3390 
Q 3200 3197 3328 2828 
z
" id="DejaVuSans-6d" transform="scale(0.015625)"/>
       <path d="M 3597 1894 
L 3597 1613 
L 953 1613 
Q 991 1019 1311 708 
Q 1631 397 2203 397 
Q 2534 397 2845 478 
Q 3156 559 3463 722 
L 3463 178 
Q 3153 47 2828 -22 
Q 2503 -91 2169 -91 
Q 1331 -91 842 396 
Q 353 884 353 1716 
Q 353 2575 817 3079 
Q 1281 3584 2069 3584 
Q 2775 3584 3186 3129 
Q 3597 2675 3597 1894 
z
M 3022 2063 
Q 3016 2534 2758 2815 
Q 2500 3097 2075 3097 
Q 1594 3097 1305 2825 
Q 1016 2553 972 2059 
L 3022 2063 
z
" id="DejaVuSans-65" transform="scale(0.015625)"/>
       <path id="DejaVuSans-20" transform="scale(0.015625)"/>
       <path d="M 550 4863 
L 1875 4863 
L 1875 4416 
L 1125 4416 
L 1125 -397 
L 1875 -397 
L 1875 -844 
L 550 -844 
L 550 4863 
z
" id="DejaVuSans-5b" transform="scale(0.015625)"/>
       <path d="M 3425 4513 
L 3425 3897 
Q 3066 4069 2747 4153 
Q 2428 4238 2131 4238 
Q 1616 4238 1336 4038 
Q 1056 3838 1056 3469 
Q 1056 3159 1242 3001 
Q 1428 2844 1947 2747 
L 2328 2669 
Q 3034 2534 3370 2195 
Q 3706 1856 3706 1288 
Q 3706 609 3251 259 
Q 2797 -91 1919 -91 
Q 1588 -91 1214 -16 
Q 841 59 441 206 
L 441 856 
Q 825 641 1194 531 
Q 1563 422 1919 422 
Q 2459 422 2753 634 
Q 3047 847 3047 1241 
Q 3047 1584 2836 1778 
Q 2625 1972 2144 2069 
L 1759 2144 
Q 1053 2284 737 2584 
Q 422 2884 422 3419 
Q 422 4038 858 4394 
Q 1294 4750 2059 4750 
Q 2388 4750 2728 4690 
Q 3069 4631 3425 4513 
z
" id="DejaVuSans-53" transform="scale(0.015625)"/>
       <path d="M 3122 3366 
L 3122 2828 
Q 2878 2963 2633 3030 
Q 2388 3097 2138 3097 
Q 1578 3097 1268 2742 
Q 959 2388 959 1747 
Q 959 1106 1268 751 
Q 1578 397 2138 397 
Q 2388 397 2633 464 
Q 2878 531 3122 666 
L 3122 134 
Q 2881 22 2623 -34 
Q 2366 -91 2075 -91 
Q 1284 -91 818 406 
Q 353 903 353 1747 
Q 353 2603 823 3093 
Q 1294 3584 2113 3584 
Q 2378 3584 2631 3529 
Q 2884 3475 3122 3366 
z
" id="DejaVuSans-63" transform="scale(0.015625)"/>
       <path d="M 1959 3097 
Q 1497 3097 1228 2736 
Q 959 2375 959 1747 
Q 959 1119 1226 758 
Q 1494 397 1959 397 
Q 2419 397 2687 759 
Q 2956 1122 2956 1747 
Q 2956 2369 2687 2733 
Q 2419 3097 1959 3097 
z
M 1959 3584 
Q 2709 3584 3137 3096 
Q 3566 2609 3566 1747 
Q 3566 888 3137 398 
Q 2709 -91 1959 -91 
Q 1206 -91 779 398 
Q 353 888 353 1747 
Q 353 2609 779 3096 
Q 1206 3584 1959 3584 
z
" id="DejaVuSans-6f" transform="scale(0.015625)"/>
       <path d="M 3513 2113 
L 3513 0 
L 2938 0 
L 2938 2094 
Q 2938 2591 2744 2837 
Q 2550 3084 2163 3084 
Q 1697 3084 1428 2787 
Q 1159 2491 1159 1978 
L 1159 0 
L 581 0 
L 581 3500 
L 1159 3500 
L 1159 2956 
Q 1366 3272 1645 3428 
Q 1925 3584 2291 3584 
Q 2894 3584 3203 3211 
Q 3513 2838 3513 2113 
z
" id="DejaVuSans-6e" transform="scale(0.015625)"/>
       <path d="M 2906 2969 
L 2906 4863 
L 3481 4863 
L 3481 0 
L 2906 0 
L 2906 525 
Q 2725 213 2448 61 
Q 2172 -91 1784 -91 
Q 1150 -91 751 415 
Q 353 922 353 1747 
Q 353 2572 751 3078 
Q 1150 3584 1784 3584 
Q 2172 3584 2448 3432 
Q 2725 3281 2906 2969 
z
M 947 1747 
Q 947 1113 1208 752 
Q 1469 391 1925 391 
Q 2381 391 2643 752 
Q 2906 1113 2906 1747 
Q 2906 2381 2643 2742 
Q 2381 3103 1925 3103 
Q 1469 3103 1208 2742 
Q 947 2381 947 1747 
z
" id="DejaVuSans-64" transform="scale(0.015625)"/>
       <path d="M 2834 3397 
L 2834 2853 
Q 2591 2978 2328 3040 
Q 2066 3103 1784 3103 
Q 1356 3103 1142 2972 
Q 928 2841 928 2578 
Q 928 2378 1081 2264 
Q 1234 2150 1697 2047 
L 1894 2003 
Q 2506 1872 2764 1633 
Q 3022 1394 3022 966 
Q 3022 478 2636 193 
Q 2250 -91 1575 -91 
Q 1294 -91 989 -36 
Q 684 19 347 128 
L 347 722 
Q 666 556 975 473 
Q 1284 391 1588 391 
Q 1994 391 2212 530 
Q 2431 669 2431 922 
Q 2431 1156 2273 1281 
Q 2116 1406 1581 1522 
L 1381 1569 
Q 847 1681 609 1914 
Q 372 2147 372 2553 
Q 372 3047 722 3315 
Q 1072 3584 1716 3584 
Q 2034 3584 2315 3537 
Q 2597 3491 2834 3397 
z
" id="DejaVuSans-73" transform="scale(0.015625)"/>
       <path d="M 1947 4863 
L 1947 -844 
L 622 -844 
L 622 -397 
L 1369 -397 
L 1369 4416 
L 622 4416 
L 622 4863 
L 1947 4863 
z
" id="DejaVuSans-5d" transform="scale(0.015625)"/>
      </defs>
      <use xlink:href="#DejaVuSans-54"/>
      <use x="57.958984" xlink:href="#DejaVuSans-69"/>
      <use x="85.742188" xlink:href="#DejaVuSans-6d"/>
      <use x="183.154297" xlink:href="#DejaVuSans-65"/>
      <use x="244.677734" xlink:href="#DejaVuSans-20"/>
      <use x="276.464844" xlink:href="#DejaVuSans-5b"/>
      <use x="315.478516" xlink:href="#DejaVuSans-53"/>
      <use x="378.955078" xlink:href="#DejaVuSans-65"/>
      <use x="440.478516" xlink:href="#DejaVuSans-63"/>
      <use x="495.458984" xlink:href="#DejaVuSans-6f"/>
      <use x="556.640625" xlink:href="#DejaVuSans-6e"/>
      <use x="620.019531" xlink:href="#DejaVuSans-64"/>
      <use x="683.496094" xlink:href="#DejaVuSans-73"/>
      <use x="735.595703" xlink:href="#DejaVuSans-5d"/>
     </g>
    </g>
   </g>
   <g id="matplotlib.axis_2">
    <g id="ytick_1">
     <g id="line2d_9">
      <defs>
       <path d="M 0 0 
L -3.5 0 
" id="mc49db7a582" style="stroke:#000000;stroke-width:0.8;"/>
      </defs>
      <g>
       <use style="stroke:#000000;stroke-width:0.8;" x="72" xlink:href="#mc49db7a582" y="283.672094"/>
      </g>
     </g>
     <g id="text_10">
      <!-- 0.0 -->
      <g transform="translate(42.735625 288.991001)scale(0.14 -0.14)">
       <use xlink:href="#DejaVuSans-30"/>
       <use x="63.623047" xlink:href="#DejaVuSans-2e"/>
       <use x="95.410156" xlink:href="#DejaVuSans-30"/>
      </g>
     </g>
    </g>
    <g id="ytick_2">
     <g id="line2d_10">
      <g>
       <use style="stroke:#000000;stroke-width:0.8;" x="72" xlink:href="#mc49db7a582" y="236.79796"/>
      </g>
     </g>
     <g id="text_11">
      <!-- 0.5 -->
      <g transform="translate(42.735625 242.116867)scale(0.14 -0.14)">
       <use xlink:href="#DejaVuSans-30"/>
       <use x="63.623047" xlink:href="#DejaVuSans-2e"/>
       <use x="95.410156" xlink:href="#DejaVuSans-35"/>
      </g>
     </g>
    </g>
    <g id="ytick_3">
     <g id="line2d_11">
      <g>
       <use style="stroke:#000000;stroke-width:0.8;" x="72" xlink:href="#mc49db7a582" y="189.923826"/>
      </g>
     </g>
     <g id="text_12">
      <!-- 1.0 -->
      <g transform="translate(42.735625 195.242732)scale(0.14 -0.14)">
       <use xlink:href="#DejaVuSans-31"/>
       <use x="63.623047" xlink:href="#DejaVuSans-2e"/>
       <use x="95.410156" xlink:href="#DejaVuSans-30"/>
      </g>
     </g>
    </g>
    <g id="ytick_4">
     <g id="line2d_12">
      <g>
       <use style="stroke:#000000;stroke-width:0.8;" x="72" xlink:href="#mc49db7a582" y="143.049692"/>
      </g>
     </g>
     <g id="text_13">
      <!-- 1.5 -->
      <g transform="translate(42.735625 148.368598)scale(0.14 -0.14)">
       <use xlink:href="#DejaVuSans-31"/>
       <use x="63.623047" xlink:href="#DejaVuSans-2e"/>
       <use x="95.410156" xlink:href="#DejaVuSans-35"/>
      </g>
     </g>
    </g>
    <g id="ytick_5">
     <g id="line2d_13">
      <g>
       <use style="stroke:#000000;stroke-width:0.8;" x="72" xlink:href="#mc49db7a582" y="96.175558"/>
      </g>
     </g>
     <g id="text_14">
      <!-- 2.0 -->
      <g transform="translate(42.735625 101.494464)scale(0.14 -0.14)">
       <use xlink:href="#DejaVuSans-32"/>
       <use x="63.623047" xlink:href="#DejaVuSans-2e"/>
       <use x="95.410156" xlink:href="#DejaVuSans-30"/>
      </g>
     </g>
    </g>
    <g id="ytick_6">
     <g id="line2d_14">
      <g>
       <use style="stroke:#000000;stroke-width:0.8;" x="72" xlink:href="#mc49db7a582" y="49.301424"/>
      </g>
     </g>
     <g id="text_15">
      <!-- 2.5 -->
      <g transform="translate(42.735625 54.62033)scale(0.14 -0.14)">
       <use xlink:href="#DejaVuSans-32"/>
       <use x="63.623047" xlink:href="#DejaVuSans-2e"/>
       <use x="95.410156" xlink:href="#DejaVuSans-35"/>
      </g>
     </g>
    </g>
    <g id="text_16">
     <!-- Speed [mm/s] -->
     <g transform="translate(35.408125 238.11375)rotate(-90)scale(0.16 -0.16)">
      <defs>
       <path d="M 1159 525 
L 1159 -1331 
L 581 -1331 
L 581 3500 
L 1159 3500 
L 1159 2969 
Q 1341 3281 1617 3432 
Q 1894 3584 2278 3584 
Q 2916 3584 3314 3078 
Q 3713 2572 3713 1747 
Q 3713 922 3314 415 
Q 2916 -91 2278 -91 
Q 1894 -91 1617 61 
Q 1341 213 1159 525 
z
M 3116 1747 
Q 3116 2381 2855 2742 
Q 2594 3103 2138 3103 
Q 1681 3103 1420 2742 
Q 1159 2381 1159 1747 
Q 1159 1113 1420 752 
Q 1681 391 2138 391 
Q 2594 391 2855 752 
Q 3116 1113 3116 1747 
z
" id="DejaVuSans-70" transform="scale(0.015625)"/>
       <path d="M 1625 4666 
L 2156 4666 
L 531 -594 
L 0 -594 
L 1625 4666 
z
" id="DejaVuSans-2f" transform="scale(0.015625)"/>
      </defs>
      <use xlink:href="#DejaVuSans-53"/>
      <use x="63.476562" xlink:href="#DejaVuSans-70"/>
      <use x="126.953125" xlink:href="#DejaVuSans-65"/>
      <use x="188.476562" xlink:href="#DejaVuSans-65"/>
      <use x="250" xlink:href="#DejaVuSans-64"/>
      <use x="313.476562" xlink:href="#DejaVuSans-20"/>
      <use x="345.263672" xlink:href="#DejaVuSans-5b"/>
      <use x="384.277344" xlink:href="#DejaVuSans-6d"/>
      <use x="481.689453" xlink:href="#DejaVuSans-6d"/>
      <use x="579.101562" xlink:href="#DejaVuSans-2f"/>
      <use x="612.792969" xlink:href="#DejaVuSans-73"/>
      <use x="664.892578" xlink:href="#DejaVuSans-5d"/>
     </g>
    </g>
   </g>
   <g id="line2d_15">
    <path clip-path="url(#pd1a1d24ae2)" d="M 72 152.186026 
L 518.4 152.186026 
" style="fill:none;stroke:#000000;stroke-dasharray:5.55,2.4;stroke-dashoffset:0;stroke-width:1.5;"/>
   </g>
   <g id="line2d_16">
    <path clip-path="url(#pd1a1d24ae2)" d="M 72 282.973176 
L 105.247269 283.068469 
L 105.690566 282.632405 
L 106.133863 281.542848 
L 106.57716 281.036717 
L 107.020457 281.083656 
L 107.463754 281.460943 
L 108.350348 283.076831 
L 108.793644 282.790801 
L 109.236941 283.284197 
L 109.680238 287.642538 
L 110.123535 290.473983 
L 110.566832 264.27026 
L 111.010129 258.981648 
L 111.453426 285.948826 
L 111.896723 297.126084 
L 112.34002 305.009066 
L 112.783317 307.8 
L 113.226614 306.490168 
L 113.669911 302.835503 
L 114.556504 292.547482 
L 114.999801 288.280526 
L 115.443098 280.679429 
L 116.772989 239.39139 
L 117.659583 207.094534 
L 119.876068 117.821657 
L 121.649255 70.01529 
L 122.979146 55.8 
L 123.422443 56.930296 
L 123.86574 56.072852 
L 124.309037 58.602287 
L 125.638928 78.671094 
L 129.185303 154.459736 
L 129.6286 160.68713 
L 130.071897 163.914697 
L 130.515194 164.429505 
L 130.958491 163.040694 
L 131.401787 158.165635 
L 131.845084 143.795599 
L 132.288381 121.485605 
L 132.731678 138.043328 
L 133.174975 159.836106 
L 133.618272 153.307294 
L 134.061569 150.308433 
L 134.504866 145.104457 
L 134.948163 144.202992 
L 135.39146 142.277199 
L 135.834757 141.328996 
L 136.278054 145.8356 
L 136.721351 148.904102 
L 137.164647 148.914247 
L 137.607944 147.891313 
L 138.494538 152.570523 
L 138.937835 151.649562 
L 139.381132 150.240187 
L 140.267726 149.195949 
L 140.711023 150.076742 
L 141.15432 150.32452 
L 141.597617 150.424565 
L 142.040914 152.753514 
L 142.484211 151.832112 
L 142.927507 151.289777 
L 143.370804 151.899006 
L 143.814101 152.803205 
L 144.257398 152.222654 
L 144.700695 152.658683 
L 145.143992 153.670873 
L 145.587289 151.188926 
L 146.030586 152.340668 
L 146.473883 152.889449 
L 146.91718 151.394441 
L 147.360477 152.261802 
L 147.803774 153.801816 
L 148.247071 152.837146 
L 148.690367 151.387918 
L 149.133664 151.646037 
L 149.576961 151.26582 
L 150.020258 151.185065 
L 150.463555 150.552344 
L 150.906852 150.790404 
L 151.350149 151.618546 
L 151.793446 151.454784 
L 152.236743 151.758797 
L 152.68004 153.141916 
L 153.566634 151.16971 
L 154.00993 152.292422 
L 154.453227 152.39719 
L 155.339821 153.559197 
L 155.783118 152.236321 
L 156.226415 152.466486 
L 156.669712 154.081877 
L 157.113009 151.946314 
L 157.556306 151.652087 
L 157.999603 153.085284 
L 158.4429 152.663844 
L 159.329494 153.42517 
L 159.77279 153.50668 
L 160.216087 152.601138 
L 160.659384 151.332358 
L 161.102681 151.655644 
L 161.545978 152.132596 
L 161.989275 151.685199 
L 162.875869 153.10477 
L 163.319166 151.292516 
L 163.762463 151.215707 
L 164.20576 151.902408 
L 164.649057 151.735383 
L 165.092354 150.537572 
L 165.53565 150.478721 
L 165.978947 151.713212 
L 166.422244 151.472665 
L 167.752135 152.53809 
L 168.195432 152.222137 
L 168.638729 153.487482 
L 169.082026 153.629443 
L 169.525323 153.287945 
L 169.96862 151.925978 
L 170.411917 151.668272 
L 170.855214 153.991956 
L 171.29851 152.062543 
L 171.741807 151.618089 
L 172.185104 153.243043 
L 172.628401 152.95456 
L 173.071698 152.837073 
L 174.401589 153.456653 
L 174.844886 151.580217 
L 175.288183 151.46356 
L 175.73148 152.801727 
L 176.174777 151.946533 
L 176.618073 151.955617 
L 177.06137 152.337065 
L 177.947964 151.72899 
L 178.391261 151.547976 
L 178.834558 152.974242 
L 179.277855 152.32942 
L 179.721152 150.299789 
L 180.164449 152.103918 
L 180.607746 151.976865 
L 181.051043 150.834344 
L 181.937637 151.802083 
L 182.380933 152.404263 
L 182.82423 152.270819 
L 183.267527 152.541326 
L 183.710824 153.304505 
L 184.154121 153.630996 
L 184.597418 152.997802 
L 185.040715 151.908662 
L 185.484012 152.56105 
L 185.927309 152.66878 
L 186.370606 152.268366 
L 186.813903 152.985519 
L 187.2572 153.050757 
L 187.700497 152.594235 
L 188.143793 152.717371 
L 188.58709 153.139709 
L 189.030387 152.840713 
L 189.916981 152.510789 
L 190.360278 154.363077 
L 190.803575 152.873182 
L 191.246872 150.191701 
L 191.690169 152.467975 
L 192.133466 152.562841 
L 192.576763 150.924958 
L 193.02006 150.749502 
L 193.463357 151.351176 
L 193.906653 151.605503 
L 194.34995 151.590158 
L 194.793247 151.924976 
L 195.236544 153.575682 
L 195.679841 152.567893 
L 196.123138 150.776139 
L 196.566435 153.37685 
L 197.009732 152.866773 
L 197.453029 151.266752 
L 197.896326 152.035054 
L 198.339623 153.300657 
L 198.78292 154.078174 
L 199.226216 152.512042 
L 199.669513 152.922772 
L 200.11281 154.641177 
L 200.556107 154.109456 
L 200.999404 151.773551 
L 201.442701 152.117363 
L 201.885998 154.226153 
L 202.329295 152.77391 
L 202.772592 152.055266 
L 203.215889 154.494557 
L 203.659186 154.125274 
L 204.102483 152.216633 
L 204.54578 152.199939 
L 204.989076 152.506413 
L 205.432373 152.550549 
L 205.87567 152.303798 
L 206.318967 152.63946 
L 206.762264 153.84327 
L 207.648858 151.052173 
L 208.092155 152.041037 
L 208.978749 151.724545 
L 209.422046 151.922478 
L 209.865343 152.289485 
L 210.30864 152.382758 
L 210.751936 152.117739 
L 212.081827 153.354672 
L 212.525124 151.688436 
L 212.968421 151.052514 
L 213.411718 152.761236 
L 214.298312 150.215736 
L 214.741609 152.608624 
L 215.184906 152.47737 
L 215.628203 150.259809 
L 216.0715 152.076286 
L 216.514796 152.711196 
L 216.958093 151.6533 
L 217.40139 149.966213 
L 217.844687 150.788677 
L 218.287984 154.060453 
L 218.731281 150.978742 
L 219.174578 149.838612 
L 219.617875 153.768538 
L 220.061172 153.225437 
L 220.504469 151.284755 
L 220.947766 151.327592 
L 221.391063 152.563847 
L 221.834359 153.144458 
L 222.277656 151.920022 
L 222.720953 152.646352 
L 223.16425 153.876218 
L 223.607547 153.502629 
L 224.050844 153.856028 
L 224.494141 154.954635 
L 224.937438 154.497322 
L 225.380735 152.014743 
L 225.824032 151.699745 
L 226.267329 153.092486 
L 226.710626 153.080443 
L 227.153923 152.655418 
L 227.597219 154.256686 
L 228.040516 154.281297 
L 228.92711 150.74617 
L 229.370407 150.906924 
L 229.813704 151.983395 
L 230.257001 151.496285 
L 230.700298 151.901951 
L 231.143595 153.168456 
L 232.030189 150.351064 
L 232.473486 151.136386 
L 233.360079 151.229308 
L 233.803376 151.492374 
L 234.246673 151.970696 
L 234.68997 152.18813 
L 235.133267 152.043593 
L 236.463158 153.703526 
L 236.906455 152.215033 
L 237.349752 151.734515 
L 237.793049 153.587652 
L 238.236346 152.456324 
L 238.679643 151.677926 
L 239.122939 152.913198 
L 239.566236 153.45553 
L 240.009533 152.715742 
L 240.45283 152.224241 
L 240.896127 152.592678 
L 241.339424 152.255629 
L 241.782721 149.835361 
L 242.226018 150.343273 
L 242.669315 152.718505 
L 243.112612 151.037944 
L 243.555909 150.316776 
L 243.999206 151.502951 
L 244.442502 151.629594 
L 244.885799 151.460199 
L 245.329096 153.309247 
L 245.772393 153.570661 
L 246.21569 151.788414 
L 246.658987 150.867193 
L 247.102284 151.671338 
L 247.545581 153.017298 
L 247.988878 152.845912 
L 248.432175 153.043976 
L 248.875472 153.504412 
L 249.318769 154.23528 
L 249.762066 152.853919 
L 250.205362 152.114824 
L 250.648659 153.479071 
L 251.535253 153.163384 
L 251.97855 153.660308 
L 252.421847 153.768553 
L 252.865144 153.501058 
L 253.308441 151.762791 
L 253.751738 151.629269 
L 254.195035 152.56235 
L 254.638332 151.856525 
L 255.081629 152.38373 
L 255.524926 152.395326 
L 255.968222 151.518356 
L 256.411519 151.277918 
L 256.854816 151.397442 
L 257.298113 151.32242 
L 257.74141 151.102736 
L 259.071301 151.316418 
L 259.514598 151.191463 
L 260.401192 152.998776 
L 260.844489 151.677021 
L 261.287786 150.97617 
L 262.174379 152.693726 
L 263.060973 151.281179 
L 263.50427 152.670595 
L 263.947567 153.34482 
L 264.390864 152.976792 
L 264.834161 151.721663 
L 265.277458 152.051304 
L 265.720755 153.059273 
L 266.164052 152.847847 
L 266.607349 153.230387 
L 267.050645 153.944001 
L 267.493942 152.215618 
L 267.937239 151.526885 
L 268.380536 153.038249 
L 269.26713 152.307075 
L 269.710427 152.455874 
L 270.153724 152.417932 
L 271.040318 152.19088 
L 271.483615 152.438331 
L 271.926912 152.495603 
L 272.813505 151.867845 
L 273.256802 152.025626 
L 273.700099 151.991368 
L 274.143396 151.702227 
L 274.586693 151.96636 
L 275.473287 151.826461 
L 275.916584 151.778091 
L 276.359881 153.135953 
L 276.803178 153.242905 
L 277.246475 150.777327 
L 277.689772 151.243998 
L 278.133069 152.432202 
L 278.576365 151.24987 
L 279.019662 150.787499 
L 279.906256 152.374988 
L 280.349553 152.359818 
L 280.79285 152.674548 
L 281.236147 153.493087 
L 281.679444 153.908379 
L 282.122741 153.106268 
L 283.009335 153.03691 
L 283.452632 152.335833 
L 284.782522 153.350371 
L 285.669116 152.864536 
L 286.112413 153.074834 
L 286.55571 153.013469 
L 286.999007 152.709909 
L 287.442304 152.871228 
L 287.885601 152.791879 
L 288.328898 152.548788 
L 288.772195 152.519838 
L 289.215492 152.702609 
L 289.658788 152.64067 
L 290.102085 152.087416 
L 290.545382 152.208833 
L 290.988679 152.876297 
L 291.875273 150.492412 
L 292.31857 151.127647 
L 292.761867 151.5182 
L 293.648461 151.13095 
L 294.535055 151.582798 
L 294.978352 151.378677 
L 295.421648 152.351447 
L 295.864945 152.841471 
L 296.308242 151.602817 
L 296.751539 151.416407 
L 297.194836 152.374854 
L 298.08143 153.622042 
L 298.524727 152.490592 
L 298.968024 151.932284 
L 299.411321 153.443909 
L 299.854618 152.537628 
L 300.297915 152.714093 
L 300.741212 153.085715 
L 301.184508 151.935362 
L 301.627805 151.941451 
L 302.071102 152.957541 
L 302.514399 152.884583 
L 302.957696 152.068056 
L 303.84429 152.76631 
L 304.287587 153.441119 
L 304.730884 151.948609 
L 305.174181 151.359187 
L 305.617478 154.241405 
L 306.060775 153.279344 
L 306.504071 151.139584 
L 306.947368 151.703714 
L 307.390665 151.884175 
L 308.277259 151.958804 
L 308.720556 152.25029 
L 309.163853 152.369697 
L 309.60715 152.248097 
L 310.493744 153.027439 
L 311.380338 152.635309 
L 312.266931 153.274919 
L 312.710228 152.452876 
L 313.153525 152.138291 
L 313.596822 152.432738 
L 314.040119 151.529712 
L 314.483416 151.321939 
L 315.813307 152.01635 
L 316.256604 151.933272 
L 317.143198 152.873619 
L 318.029791 150.640978 
L 318.473088 152.89332 
L 318.916385 152.988875 
L 319.359682 150.731399 
L 319.802979 151.887703 
L 320.246276 152.531715 
L 320.689573 151.387447 
L 321.13287 151.273689 
L 322.019464 153.17775 
L 322.462761 151.883637 
L 322.906058 151.314397 
L 323.349355 154.316574 
L 323.792651 153.94075 
L 324.235948 150.893536 
L 324.679245 152.691194 
L 325.122542 153.515339 
L 325.565839 151.80735 
L 326.89573 153.360288 
L 327.339027 154.232414 
L 327.782324 152.577318 
L 328.225621 151.895996 
L 328.668918 153.286945 
L 329.112214 152.585683 
L 329.555511 154.092123 
L 329.998808 153.280268 
L 330.442105 151.454169 
L 330.885402 151.880738 
L 331.328699 153.308191 
L 331.771996 152.874611 
L 332.215293 151.268755 
L 332.65859 151.771832 
L 333.545184 152.226161 
L 333.988481 152.175061 
L 334.431778 152.541581 
L 334.875074 153.130216 
L 335.318371 151.753521 
L 335.761668 150.894279 
L 336.204965 152.107316 
L 336.648262 152.145942 
L 337.091559 151.527897 
L 337.534856 152.632636 
L 337.978153 152.745584 
L 338.42145 151.214066 
L 338.864747 151.21709 
L 339.308044 151.932547 
L 339.751341 152.29563 
L 340.194638 153.09866 
L 340.637934 151.901253 
L 341.081231 152.321906 
L 341.524528 153.173598 
L 341.967825 150.457338 
L 342.411122 151.570569 
L 342.854419 152.053681 
L 343.297716 150.77589 
L 344.18431 152.260478 
L 344.627607 152.753938 
L 345.070904 153.614717 
L 345.514201 152.159392 
L 345.957498 152.001175 
L 346.400794 154.011137 
L 346.844091 152.069111 
L 347.287388 152.547208 
L 347.730685 152.821993 
L 348.173982 151.386891 
L 348.617279 151.935702 
L 349.060576 153.598851 
L 349.503873 153.527114 
L 349.94717 151.768998 
L 350.833764 152.800784 
L 351.277061 153.417499 
L 351.720357 152.125683 
L 352.163654 152.727938 
L 352.606951 153.045989 
L 353.050248 152.41297 
L 353.493545 151.370074 
L 353.936842 152.35305 
L 354.380139 152.880852 
L 354.823436 150.502319 
L 355.266733 152.643814 
L 355.71003 152.297829 
L 356.153327 150.887872 
L 356.596624 151.709591 
L 357.483217 152.508001 
L 357.926514 152.714311 
L 358.369811 153.118944 
L 358.813108 154.302631 
L 359.256405 153.940368 
L 359.699702 151.273844 
L 360.142999 152.360265 
L 360.586296 152.773324 
L 361.029593 151.088156 
L 361.47289 153.236718 
L 361.916187 153.491366 
L 362.359484 152.259776 
L 362.802781 152.810031 
L 363.246077 152.14683 
L 364.132671 153.283278 
L 364.575968 151.012817 
L 365.019265 150.742518 
L 365.462562 151.771385 
L 365.905859 151.613403 
L 366.792453 154.364819 
L 367.23575 152.026362 
L 367.679047 150.618025 
L 368.122344 152.690348 
L 368.565641 153.350058 
L 369.008937 152.21465 
L 369.452234 151.536299 
L 369.895531 151.829893 
L 370.338828 152.4926 
L 370.782125 153.421639 
L 371.225422 152.342314 
L 371.668719 151.754634 
L 372.112016 153.12266 
L 372.555313 152.790036 
L 372.99861 154.518213 
L 373.441907 154.571733 
L 373.885204 152.118251 
L 374.3285 152.387671 
L 374.771797 152.506468 
L 375.215094 152.181659 
L 375.658391 153.150502 
L 376.101688 151.542809 
L 376.544985 151.223954 
L 376.988282 153.167781 
L 377.431579 151.032844 
L 377.874876 151.91303 
L 378.318173 152.395688 
L 378.76147 150.235904 
L 379.204767 152.693044 
L 379.648064 152.380356 
L 380.09136 151.094264 
L 380.534657 152.079686 
L 380.977954 150.86019 
L 381.421251 151.292091 
L 381.864548 153.018891 
L 382.307845 151.133241 
L 382.751142 151.080211 
L 383.194439 153.148231 
L 383.637736 151.693868 
L 384.081033 151.170338 
L 384.52433 152.175659 
L 384.967627 152.823392 
L 385.410924 152.215386 
L 385.85422 152.270065 
L 386.297517 152.925805 
L 386.740814 151.445814 
L 387.184111 151.545261 
L 387.627408 152.749848 
L 388.070705 153.553416 
L 388.514002 152.648462 
L 388.957299 150.44356 
L 389.400596 151.303805 
L 389.843893 153.258561 
L 390.28719 151.969446 
L 390.730487 151.085748 
L 391.173784 152.341292 
L 391.61708 151.171865 
L 392.503674 152.892615 
L 392.946971 150.918498 
L 393.390268 152.044943 
L 393.833565 152.553567 
L 394.276862 152.326094 
L 394.720159 152.434442 
L 395.163456 150.227228 
L 395.606753 150.322005 
L 396.05005 152.565956 
L 396.493347 151.000319 
L 396.936643 152.521304 
L 397.37994 153.377154 
L 397.823237 151.412678 
L 398.266534 153.347233 
L 398.709831 154.701458 
L 399.153128 153.146816 
L 399.596425 152.254171 
L 400.483019 152.250717 
L 400.926316 153.564706 
L 401.369613 151.950803 
L 401.81291 151.9102 
L 402.256207 153.56021 
L 403.1428 153.218855 
L 403.586097 154.69386 
L 404.029394 154.129899 
L 404.472691 151.985835 
L 404.915988 153.716845 
L 405.359285 153.5152 
L 405.802582 151.82066 
L 406.689176 153.813016 
L 407.132473 152.66435 
L 407.57577 152.534173 
L 408.019067 151.476045 
L 408.90566 152.032904 
L 409.348957 150.109863 
L 409.792254 152.235141 
L 410.235551 151.990515 
L 410.678848 150.251796 
L 411.565442 151.426519 
L 412.452036 152.077278 
L 412.895333 152.955047 
L 413.781927 153.313089 
L 414.225223 152.237184 
L 414.66852 151.761505 
L 415.111817 153.529096 
L 415.555114 152.499811 
L 415.998411 153.136229 
L 416.885005 150.607344 
L 417.328302 152.107209 
L 417.771599 153.002757 
L 418.214896 153.097344 
L 418.658193 152.666537 
L 419.10149 151.982143 
L 419.544786 151.61916 
L 419.988083 153.101854 
L 420.43138 152.299974 
L 420.874677 150.174735 
L 421.317974 150.587383 
L 421.761271 152.315068 
L 422.204568 151.039996 
L 422.647865 152.033381 
L 423.091162 152.381206 
L 423.534459 150.543383 
L 423.977756 151.993608 
L 424.421053 152.77418 
L 424.86435 151.595578 
L 425.307646 152.644853 
L 426.19424 150.264129 
L 426.637537 152.998947 
L 427.080834 151.789337 
L 427.524131 151.885973 
L 427.967428 153.566428 
L 428.854022 152.006818 
L 429.740616 153.433223 
L 430.183913 154.626757 
L 430.62721 152.566183 
L 431.070506 151.172928 
L 431.513803 153.677032 
L 431.9571 151.671693 
L 432.400397 150.993834 
L 432.843694 152.310173 
L 433.286991 151.676827 
L 433.730288 153.356569 
L 434.173585 152.848039 
L 434.616882 150.947781 
L 435.060179 152.17971 
L 435.946773 150.671609 
L 436.39007 151.623285 
L 436.833366 151.84998 
L 437.276663 152.288235 
L 437.71996 153.189333 
L 438.163257 151.455759 
L 438.606554 151.333778 
L 439.049851 152.929286 
L 439.493148 152.702758 
L 439.936445 153.293264 
L 440.379742 152.1209 
L 440.823039 151.571813 
L 441.709633 151.450465 
L 442.152929 152.342357 
L 442.596226 152.257454 
L 443.039523 152.870632 
L 443.48282 153.902468 
L 443.926117 152.938098 
L 444.369414 152.914057 
L 444.812711 151.935037 
L 445.699305 153.915382 
L 446.142602 150.969732 
L 446.585899 151.989615 
L 447.029196 152.672348 
L 447.472493 150.493322 
L 447.915789 151.701758 
L 448.359086 152.301947 
L 448.802383 151.186341 
L 449.24568 151.979091 
L 450.132274 152.326684 
L 450.575571 152.827403 
L 451.462165 153.306269 
L 451.905462 153.774529 
L 452.348759 152.530043 
L 452.792056 152.413986 
L 453.235353 153.426027 
L 453.678649 152.972672 
L 454.121946 154.044336 
L 454.565243 154.015425 
L 455.00854 152.555174 
L 455.451837 153.085137 
L 456.338431 151.241439 
L 456.781728 152.529096 
L 457.225025 150.768855 
L 457.668322 150.545202 
L 458.111619 151.816672 
L 458.554916 151.107905 
L 458.998213 152.615225 
L 459.441509 152.083963 
L 459.884806 150.423045 
L 460.328103 151.104066 
L 460.7714 151.36457 
L 461.214697 151.756924 
L 461.657994 152.484497 
L 462.101291 150.982056 
L 462.987885 152.005105 
L 463.431182 151.125527 
L 463.874479 151.992083 
L 464.317776 151.913451 
L 464.761072 152.880288 
L 465.204369 152.703676 
L 466.090963 153.159135 
L 466.53426 152.693569 
L 466.977557 153.705587 
L 467.420854 152.182299 
L 467.864151 151.956005 
L 468.307448 154.522155 
L 468.750745 153.462577 
L 469.194042 151.442589 
L 469.637339 152.407396 
L 470.080636 151.290999 
L 470.523932 152.28036 
L 470.967229 152.817851 
L 471.410526 150.5694 
L 471.853823 152.517903 
L 472.29712 152.681953 
L 472.740417 151.064602 
L 473.183714 152.024249 
L 473.627011 152.614449 
L 474.070308 151.553775 
L 474.513605 151.696081 
L 475.843496 153.662858 
L 476.286792 152.321593 
L 476.730089 153.057637 
L 477.173386 153.487183 
L 477.616683 151.896677 
L 478.05998 153.067244 
L 478.946574 151.664096 
L 480.276465 154.020012 
L 480.719762 153.605377 
L 481.163059 151.185095 
L 481.606356 151.068473 
L 482.049652 152.485402 
L 482.492949 152.516105 
L 482.936246 152.837928 
L 483.379543 152.744925 
L 483.82284 153.135736 
L 484.266137 152.971275 
L 484.709434 152.267878 
L 485.152731 152.619125 
L 485.596028 151.553619 
L 486.039325 151.293645 
L 486.482622 152.69755 
L 486.925919 151.622012 
L 487.369215 151.465851 
L 487.812512 150.622763 
L 488.255809 150.138121 
L 488.699106 151.795014 
L 489.142403 151.634363 
L 489.5857 153.263955 
L 490.028997 153.451771 
L 490.472294 151.613309 
L 490.915591 150.695355 
L 491.358888 151.389141 
L 491.802185 152.635039 
L 492.245482 153.339537 
L 492.688779 151.96316 
L 493.132075 151.483438 
L 493.575372 154.118609 
L 494.018669 152.409462 
L 494.461966 152.509796 
L 494.905263 153.325993 
L 495.34856 150.759487 
L 495.791857 151.640713 
L 496.235154 152.17034 
L 496.678451 150.948475 
L 497.121748 152.315767 
L 497.565045 152.847895 
L 498.008342 151.611566 
L 498.451639 153.319579 
L 498.894935 151.812135 
L 499.338232 150.717737 
L 499.781529 153.318077 
L 500.224826 151.706344 
L 500.668123 151.841697 
L 501.11142 153.317845 
L 501.554717 153.075984 
L 501.998014 154.171198 
L 502.884608 150.787689 
L 503.327905 152.669476 
L 503.771202 153.493542 
L 504.214499 152.735714 
L 504.657795 151.157648 
L 505.101092 151.525346 
L 505.544389 152.3756 
L 505.987686 152.366014 
L 506.430983 153.314382 
L 506.87428 152.779725 
L 507.317577 152.001032 
L 509.977358 151.681751 
L 511.307249 151.914228 
L 514.410328 152.657332 
L 515.296922 152.559515 
L 516.183515 152.118001 
L 517.070109 151.190878 
L 517.956703 149.618005 
L 518.4 148.534382 
L 518.4 148.534382 
" style="fill:none;stroke:#ff0000;stroke-linecap:square;stroke-width:2;"/>
   </g>
   <g id="patch_3">
    <path d="M 72 320.4 
L 72 43.2 
" style="fill:none;stroke:#000000;stroke-linecap:square;stroke-linejoin:miter;stroke-width:0.8;"/>
   </g>
   <g id="patch_4">
    <path d="M 518.4 320.4 
L 518.4 43.2 
" style="fill:none;stroke:#000000;stroke-linecap:square;stroke-linejoin:miter;stroke-width:0.8;"/>
   </g>
   <g id="patch_5">
    <path d="M 72 320.4 
L 518.4 320.4 
" style="fill:none;stroke:#000000;stroke-linecap:square;stroke-linejoin:miter;stroke-width:0.8;"/>
   </g>
   <g id="patch_6">
    <path d="M 72 43.2 
L 518.4 43.2 
" style="fill:none;stroke:#000000;stroke-linecap:square;stroke-linejoin:miter;stroke-width:0.8;"/>
   </g>
   <g id="text_17">
    <!-- Front Propogation Speed -->
    <g transform="translate(172.245312 37.2)scale(0.2 -0.2)">
     <defs>
      <path d="M 628 4666 
L 3309 4666 
L 3309 4134 
L 1259 4134 
L 1259 2759 
L 3109 2759 
L 3109 2228 
L 1259 2228 
L 1259 0 
L 628 0 
L 628 4666 
z
" id="DejaVuSans-46" transform="scale(0.015625)"/>
      <path d="M 2631 2963 
Q 2534 3019 2420 3045 
Q 2306 3072 2169 3072 
Q 1681 3072 1420 2755 
Q 1159 2438 1159 1844 
L 1159 0 
L 581 0 
L 581 3500 
L 1159 3500 
L 1159 2956 
Q 1341 3275 1631 3429 
Q 1922 3584 2338 3584 
Q 2397 3584 2469 3576 
Q 2541 3569 2628 3553 
L 2631 2963 
z
" id="DejaVuSans-72" transform="scale(0.015625)"/>
      <path d="M 1172 4494 
L 1172 3500 
L 2356 3500 
L 2356 3053 
L 1172 3053 
L 1172 1153 
Q 1172 725 1289 603 
Q 1406 481 1766 481 
L 2356 481 
L 2356 0 
L 1766 0 
Q 1100 0 847 248 
Q 594 497 594 1153 
L 594 3053 
L 172 3053 
L 172 3500 
L 594 3500 
L 594 4494 
L 1172 4494 
z
" id="DejaVuSans-74" transform="scale(0.015625)"/>
      <path d="M 1259 4147 
L 1259 2394 
L 2053 2394 
Q 2494 2394 2734 2622 
Q 2975 2850 2975 3272 
Q 2975 3691 2734 3919 
Q 2494 4147 2053 4147 
L 1259 4147 
z
M 628 4666 
L 2053 4666 
Q 2838 4666 3239 4311 
Q 3641 3956 3641 3272 
Q 3641 2581 3239 2228 
Q 2838 1875 2053 1875 
L 1259 1875 
L 1259 0 
L 628 0 
L 628 4666 
z
" id="DejaVuSans-50" transform="scale(0.015625)"/>
      <path d="M 2906 1791 
Q 2906 2416 2648 2759 
Q 2391 3103 1925 3103 
Q 1463 3103 1205 2759 
Q 947 2416 947 1791 
Q 947 1169 1205 825 
Q 1463 481 1925 481 
Q 2391 481 2648 825 
Q 2906 1169 2906 1791 
z
M 3481 434 
Q 3481 -459 3084 -895 
Q 2688 -1331 1869 -1331 
Q 1566 -1331 1297 -1286 
Q 1028 -1241 775 -1147 
L 775 -588 
Q 1028 -725 1275 -790 
Q 1522 -856 1778 -856 
Q 2344 -856 2625 -561 
Q 2906 -266 2906 331 
L 2906 616 
Q 2728 306 2450 153 
Q 2172 0 1784 0 
Q 1141 0 747 490 
Q 353 981 353 1791 
Q 353 2603 747 3093 
Q 1141 3584 1784 3584 
Q 2172 3584 2450 3431 
Q 2728 3278 2906 2969 
L 2906 3500 
L 3481 3500 
L 3481 434 
z
" id="DejaVuSans-67" transform="scale(0.015625)"/>
      <path d="M 2194 1759 
Q 1497 1759 1228 1600 
Q 959 1441 959 1056 
Q 959 750 1161 570 
Q 1363 391 1709 391 
Q 2188 391 2477 730 
Q 2766 1069 2766 1631 
L 2766 1759 
L 2194 1759 
z
M 3341 1997 
L 3341 0 
L 2766 0 
L 2766 531 
Q 2569 213 2275 61 
Q 1981 -91 1556 -91 
Q 1019 -91 701 211 
Q 384 513 384 1019 
Q 384 1609 779 1909 
Q 1175 2209 1959 2209 
L 2766 2209 
L 2766 2266 
Q 2766 2663 2505 2880 
Q 2244 3097 1772 3097 
Q 1472 3097 1187 3025 
Q 903 2953 641 2809 
L 641 3341 
Q 956 3463 1253 3523 
Q 1550 3584 1831 3584 
Q 2591 3584 2966 3190 
Q 3341 2797 3341 1997 
z
" id="DejaVuSans-61" transform="scale(0.015625)"/>
     </defs>
     <use xlink:href="#DejaVuSans-46"/>
     <use x="50.269531" xlink:href="#DejaVuSans-72"/>
     <use x="89.132812" xlink:href="#DejaVuSans-6f"/>
     <use x="150.314453" xlink:href="#DejaVuSans-6e"/>
     <use x="213.693359" xlink:href="#DejaVuSans-74"/>
     <use x="252.902344" xlink:href="#DejaVuSans-20"/>
     <use x="284.689453" xlink:href="#DejaVuSans-50"/>
     <use x="343.242188" xlink:href="#DejaVuSans-72"/>
     <use x="382.105469" xlink:href="#DejaVuSans-6f"/>
     <use x="443.287109" xlink:href="#DejaVuSans-70"/>
     <use x="506.763672" xlink:href="#DejaVuSans-6f"/>
     <use x="567.945312" xlink:href="#DejaVuSans-67"/>
     <use x="631.421875" xlink:href="#DejaVuSans-61"/>
     <use x="692.701172" xlink:href="#DejaVuSans-74"/>
     <use x="731.910156" xlink:href="#DejaVuSans-69"/>
     <use x="759.693359" xlink:href="#DejaVuSans-6f"/>
     <use x="820.875" xlink:href="#DejaVuSans-6e"/>
     <use x="884.253906" xlink:href="#DejaVuSans-20"/>
     <use x="916.041016" xlink:href="#DejaVuSans-53"/>
     <use x="979.517578" xlink:href="#DejaVuSans-70"/>
     <use x="1042.994141" xlink:href="#DejaVuSans-65"/>
     <use x="1104.517578" xlink:href="#DejaVuSans-65"/>
     <use x="1166.041016" xlink:href="#DejaVuSans-64"/>
    </g>
   </g>
   <g id="legend_1">
    <g id="patch_7">
     <path d="M 334.875313 111.175687 
L 508.6 111.175687 
Q 511.4 111.175687 511.4 108.375687 
L 511.4 53 
Q 511.4 50.2 508.6 50.2 
L 334.875313 50.2 
Q 332.075312 50.2 332.075312 53 
L 332.075312 108.375687 
Q 332.075312 111.175687 334.875313 111.175687 
z
" style="fill:#ffffff;opacity:0.8;stroke:#cccccc;stroke-linejoin:miter;"/>
    </g>
    <g id="line2d_17">
     <path d="M 337.675313 61.537812 
L 365.675313 61.537812 
" style="fill:none;stroke:#ff0000;stroke-linecap:square;stroke-width:2;"/>
    </g>
    <g id="line2d_18"/>
    <g id="text_18">
     <!-- Front speed -->
     <g transform="translate(376.875313 66.437812)scale(0.14 -0.14)">
      <use xlink:href="#DejaVuSans-46"/>
      <use x="50.269531" xlink:href="#DejaVuSans-72"/>
      <use x="89.132812" xlink:href="#DejaVuSans-6f"/>
      <use x="150.314453" xlink:href="#DejaVuSans-6e"/>
      <use x="213.693359" xlink:href="#DejaVuSans-74"/>
      <use x="252.902344" xlink:href="#DejaVuSans-20"/>
      <use x="284.689453" xlink:href="#DejaVuSans-73"/>
      <use x="336.789062" xlink:href="#DejaVuSans-70"/>
      <use x="400.265625" xlink:href="#DejaVuSans-65"/>
      <use x="461.789062" xlink:href="#DejaVuSans-65"/>
      <use x="523.3125" xlink:href="#DejaVuSans-64"/>
     </g>
    </g>
    <g id="line2d_19">
     <path d="M 337.675313 91.381437 
L 365.675313 91.381437 
" style="fill:none;stroke:#000000;stroke-dasharray:5.55,2.4;stroke-dashoffset:0;stroke-width:1.5;"/>
    </g>
    <g id="line2d_20"/>
    <g id="text_19">
     <!-- Steady state -->
     <g transform="translate(376.875313 86.987187)scale(0.14 -0.14)">
      <defs>
       <path d="M 2059 -325 
Q 1816 -950 1584 -1140 
Q 1353 -1331 966 -1331 
L 506 -1331 
L 506 -850 
L 844 -850 
Q 1081 -850 1212 -737 
Q 1344 -625 1503 -206 
L 1606 56 
L 191 3500 
L 800 3500 
L 1894 763 
L 2988 3500 
L 3597 3500 
L 2059 -325 
z
" id="DejaVuSans-79" transform="scale(0.015625)"/>
      </defs>
      <use xlink:href="#DejaVuSans-53"/>
      <use x="63.476562" xlink:href="#DejaVuSans-74"/>
      <use x="102.685547" xlink:href="#DejaVuSans-65"/>
      <use x="164.208984" xlink:href="#DejaVuSans-61"/>
      <use x="225.488281" xlink:href="#DejaVuSans-64"/>
      <use x="288.964844" xlink:href="#DejaVuSans-79"/>
      <use x="348.144531" xlink:href="#DejaVuSans-20"/>
      <use x="379.931641" xlink:href="#DejaVuSans-73"/>
      <use x="432.03125" xlink:href="#DejaVuSans-74"/>
      <use x="471.240234" xlink:href="#DejaVuSans-61"/>
      <use x="532.519531" xlink:href="#DejaVuSans-74"/>
      <use x="571.728516" xlink:href="#DejaVuSans-65"/>
     </g>
     <!-- speed = 1.4 mm/s -->
     <g transform="translate(376.875313 102.664125)scale(0.14 -0.14)">
      <defs>
       <path d="M 678 2906 
L 4684 2906 
L 4684 2381 
L 678 2381 
L 678 2906 
z
M 678 1631 
L 4684 1631 
L 4684 1100 
L 678 1100 
L 678 1631 
z
" id="DejaVuSans-3d" transform="scale(0.015625)"/>
       <path d="M 2419 4116 
L 825 1625 
L 2419 1625 
L 2419 4116 
z
M 2253 4666 
L 3047 4666 
L 3047 1625 
L 3713 1625 
L 3713 1100 
L 3047 1100 
L 3047 0 
L 2419 0 
L 2419 1100 
L 313 1100 
L 313 1709 
L 2253 4666 
z
" id="DejaVuSans-34" transform="scale(0.015625)"/>
      </defs>
      <use xlink:href="#DejaVuSans-73"/>
      <use x="52.099609" xlink:href="#DejaVuSans-70"/>
      <use x="115.576172" xlink:href="#DejaVuSans-65"/>
      <use x="177.099609" xlink:href="#DejaVuSans-65"/>
      <use x="238.623047" xlink:href="#DejaVuSans-64"/>
      <use x="302.099609" xlink:href="#DejaVuSans-20"/>
      <use x="333.886719" xlink:href="#DejaVuSans-3d"/>
      <use x="417.675781" xlink:href="#DejaVuSans-20"/>
      <use x="449.462891" xlink:href="#DejaVuSans-31"/>
      <use x="513.085938" xlink:href="#DejaVuSans-2e"/>
      <use x="544.873047" xlink:href="#DejaVuSans-34"/>
      <use x="608.496094" xlink:href="#DejaVuSans-20"/>
      <use x="640.283203" xlink:href="#DejaVuSans-6d"/>
      <use x="737.695312" xlink:href="#DejaVuSans-6d"/>
      <use x="835.107422" xlink:href="#DejaVuSans-2f"/>
      <use x="868.798828" xlink:href="#DejaVuSans-73"/>
     </g>
    </g>
   </g>
  </g>
 </g>
 <defs>
  <clipPath id="pd1a1d24ae2">
   <rect height="277.2" width="446.4" x="72" y="43.2"/>
  </clipPath>
 </defs>
</svg>
