<?xml version="1.0" encoding="utf-8" standalone="no"?>
<!DOCTYPE svg PUBLIC "-//W3C//DTD SVG 1.1//EN"
  "http://www.w3.org/Graphics/SVG/1.1/DTD/svg11.dtd">
<svg height="360pt" version="1.1" viewBox="0 0 576 360" width="576pt" xmlns="http://www.w3.org/2000/svg" xmlns:xlink="http://www.w3.org/1999/xlink">
 <metadata>
  <rdf:RDF xmlns:cc="http://creativecommons.org/ns#" xmlns:dc="http://purl.org/dc/elements/1.1/" xmlns:rdf="http://www.w3.org/1999/02/22-rdf-syntax-ns#">
   <cc:Work>
    <dc:type rdf:resource="http://purl.org/dc/dcmitype/StillImage"/>
    <dc:date>2022-06-30T14:21:52.837178</dc:date>
    <dc:format>image/svg+xml</dc:format>
    <dc:creator>
     <cc:Agent>
      <dc:title>Matplotlib v3.4.3, https://matplotlib.org/</dc:title>
     </cc:Agent>
    </dc:creator>
   </cc:Work>
  </rdf:RDF>
 </metadata>
 <defs>
  <style type="text/css">*{stroke-linecap:butt;stroke-linejoin:round;}</style>
 </defs>
 <g id="figure_1">
  <g id="patch_1">
   <path d="M 0 360 
L 576 360 
L 576 0 
L 0 0 
z
" style="fill:#ffffff;"/>
  </g>
  <g id="axes_1">
   <g id="patch_2">
    <path d="M 72 320.4 
L 518.4 320.4 
L 518.4 43.2 
L 72 43.2 
z
" style="fill:#ffffff;"/>
   </g>
   <g id="PolyCollection_1">
    <defs>
     <path d="M 72 -157.455202 
L 72 -162.314453 
L 72.6975 -162.314453 
L 73.395 -162.314453 
L 74.0925 -162.314453 
L 74.79 -162.314453 
L 75.4875 -162.314453 
L 76.185 -162.314453 
L 76.8825 -162.314453 
L 77.58 -162.314453 
L 78.2775 -162.314453 
L 78.975 -162.314453 
L 79.6725 -162.314453 
L 80.37 -162.314453 
L 81.0675 -162.314453 
L 81.765 -162.314453 
L 82.4625 -162.314453 
L 83.16 -162.314453 
L 83.8575 -162.314453 
L 84.555 -162.314453 
L 85.2525 -162.314453 
L 85.95 -162.314453 
L 86.6475 -162.314453 
L 87.345 -162.314453 
L 88.0425 -162.314453 
L 88.74 -162.314453 
L 89.4375 -162.314453 
L 90.135 -162.314453 
L 90.8325 -162.314453 
L 91.53 -162.314453 
L 92.2275 -162.314453 
L 92.925 -162.314453 
L 93.6225 -162.314453 
L 94.32 -162.314453 
L 95.0175 -162.314453 
L 95.715 -162.314453 
L 96.4125 -162.314453 
L 97.11 -162.314453 
L 97.8075 -162.314453 
L 98.505 -162.314453 
L 99.2025 -162.314453 
L 99.9 -162.314453 
L 100.5975 -162.314453 
L 101.295 -162.314453 
L 101.9925 -162.314453 
L 102.69 -162.314453 
L 103.3875 -162.314453 
L 104.085 -162.314453 
L 104.7825 -162.314453 
L 105.48 -162.314453 
L 106.1775 -162.314453 
L 106.875 -162.314453 
L 107.5725 -162.314453 
L 108.27 -162.314453 
L 108.9675 -162.314453 
L 109.665 -162.314453 
L 110.3625 -162.314453 
L 111.06 -162.314453 
L 111.7575 -162.314453 
L 112.455 -162.314453 
L 113.1525 -162.314453 
L 113.85 -162.314453 
L 114.5475 -162.314453 
L 115.245 -162.314453 
L 115.9425 -162.314453 
L 116.64 -162.314453 
L 117.3375 -162.314453 
L 118.035 -162.314453 
L 118.7325 -162.314453 
L 119.43 -162.314453 
L 120.1275 -162.314453 
L 120.825 -162.314453 
L 121.5225 -162.314453 
L 122.22 -162.314453 
L 122.9175 -162.314453 
L 123.615 -162.314453 
L 124.3125 -162.314453 
L 125.01 -162.314453 
L 125.7075 -162.314453 
L 126.405 -162.314453 
L 127.1025 -162.314453 
L 127.8 -162.314453 
L 128.4975 -162.314453 
L 129.195 -162.314453 
L 129.8925 -162.314453 
L 130.59 -162.314453 
L 131.2875 -162.314453 
L 131.985 -162.314453 
L 132.6825 -162.314453 
L 133.38 -162.314453 
L 134.0775 -162.314453 
L 134.775 -162.314453 
L 135.4725 -162.314453 
L 136.17 -162.314453 
L 136.8675 -162.314453 
L 137.565 -162.314453 
L 138.2625 -162.314453 
L 138.96 -162.314453 
L 139.6575 -162.314453 
L 140.355 -162.314453 
L 141.0525 -162.314453 
L 141.75 -162.314453 
L 142.4475 -162.314453 
L 143.145 -162.314453 
L 143.8425 -162.314453 
L 144.54 -162.314453 
L 145.2375 -162.314453 
L 145.935 -162.314453 
L 146.6325 -162.314453 
L 147.33 -162.314453 
L 148.0275 -162.314453 
L 148.725 -162.314453 
L 149.4225 -162.314453 
L 150.12 -162.314453 
L 150.8175 -162.314453 
L 151.515 -162.314453 
L 152.2125 -162.314453 
L 152.91 -162.314453 
L 153.6075 -162.314453 
L 154.305 -162.314453 
L 155.0025 -162.314453 
L 155.7 -162.314453 
L 156.3975 -162.314453 
L 157.095 -162.314453 
L 157.7925 -162.314453 
L 158.49 -162.314453 
L 159.1875 -162.314453 
L 159.885 -162.314453 
L 160.5825 -162.314453 
L 161.28 -162.314453 
L 161.9775 -162.314453 
L 162.675 -162.314453 
L 163.3725 -162.314453 
L 164.07 -162.314453 
L 164.7675 -162.314453 
L 165.465 -162.314453 
L 166.1625 -162.314453 
L 166.86 -162.314453 
L 167.5575 -162.314453 
L 168.255 -162.314453 
L 168.9525 -162.314453 
L 169.65 -162.314453 
L 170.3475 -162.314453 
L 171.045 -162.314453 
L 171.7425 -162.314453 
L 172.44 -162.314453 
L 173.1375 -162.314453 
L 173.835 -162.314453 
L 174.5325 -162.314453 
L 175.23 -162.314453 
L 175.9275 -162.314453 
L 176.625 -162.314453 
L 177.3225 -162.314453 
L 178.02 -162.314453 
L 178.7175 -162.314453 
L 179.415 -162.314453 
L 180.1125 -162.314453 
L 180.81 -162.314453 
L 181.5075 -162.314453 
L 182.205 -162.314453 
L 182.9025 -162.314453 
L 183.6 -162.314453 
L 184.2975 -162.314453 
L 184.995 -162.314453 
L 185.6925 -162.314453 
L 186.39 -162.314453 
L 187.0875 -162.314453 
L 187.785 -162.314453 
L 188.4825 -162.314453 
L 189.18 -162.314453 
L 189.8775 -162.314453 
L 190.575 -162.314453 
L 191.2725 -162.314453 
L 191.97 -162.314453 
L 192.6675 -162.314453 
L 193.365 -162.314453 
L 194.0625 -162.314453 
L 194.76 -162.314453 
L 195.4575 -162.314453 
L 196.155 -162.314453 
L 196.8525 -162.314453 
L 197.55 -162.314453 
L 198.2475 -162.314453 
L 198.945 -162.314453 
L 199.6425 -162.314453 
L 200.34 -162.314453 
L 201.0375 -162.314453 
L 201.735 -162.314453 
L 202.4325 -162.314453 
L 203.13 -162.314453 
L 203.8275 -162.314453 
L 204.525 -162.314453 
L 205.2225 -162.314453 
L 205.92 -162.314453 
L 206.6175 -162.314453 
L 207.315 -162.314453 
L 208.0125 -162.314453 
L 208.71 -162.314453 
L 209.4075 -162.314453 
L 210.105 -162.314453 
L 210.8025 -162.314453 
L 211.5 -162.314453 
L 212.1975 -162.314453 
L 212.895 -162.314453 
L 213.5925 -162.314453 
L 214.29 -162.314453 
L 214.9875 -162.314453 
L 215.685 -162.314453 
L 216.3825 -162.314453 
L 217.08 -162.314453 
L 217.7775 -162.314453 
L 218.475 -162.314453 
L 219.1725 -162.314453 
L 219.87 -162.314453 
L 220.5675 -162.314453 
L 221.265 -162.314453 
L 221.9625 -162.314453 
L 222.66 -162.314453 
L 223.3575 -162.314453 
L 224.055 -162.314453 
L 224.7525 -162.314453 
L 225.45 -162.314453 
L 226.1475 -162.314453 
L 226.845 -162.314453 
L 227.5425 -162.314453 
L 228.24 -162.314453 
L 228.9375 -162.314453 
L 229.635 -162.314453 
L 230.3325 -162.314453 
L 231.03 -162.314453 
L 231.7275 -162.314453 
L 232.425 -162.314453 
L 233.1225 -162.314453 
L 233.82 -162.314453 
L 234.5175 -162.314453 
L 235.215 -162.314453 
L 235.9125 -162.314453 
L 236.61 -162.314453 
L 237.3075 -162.314453 
L 238.005 -162.314453 
L 238.7025 -162.314453 
L 239.4 -162.314453 
L 240.0975 -162.314453 
L 240.795 -162.314453 
L 241.4925 -162.314453 
L 242.19 -162.314453 
L 242.8875 -162.314453 
L 243.585 -162.314453 
L 244.2825 -162.314453 
L 244.98 -162.314453 
L 245.6775 -162.314453 
L 246.375 -162.314453 
L 247.0725 -162.314453 
L 247.77 -162.314453 
L 248.4675 -162.314453 
L 249.165 -162.314453 
L 249.8625 -162.314453 
L 250.56 -162.314453 
L 251.2575 -162.314453 
L 251.955 -162.314453 
L 252.6525 -162.314453 
L 253.35 -162.314453 
L 254.0475 -162.314453 
L 254.745 -162.314453 
L 255.4425 -162.314453 
L 256.14 -162.314453 
L 256.8375 -162.314453 
L 257.535 -162.314453 
L 258.2325 -162.314453 
L 258.93 -162.314453 
L 259.6275 -162.314453 
L 260.325 -162.314453 
L 261.0225 -162.314453 
L 261.72 -162.314453 
L 262.4175 -162.314453 
L 263.115 -162.314453 
L 263.8125 -162.314453 
L 264.51 -162.314453 
L 265.2075 -162.314453 
L 265.905 -162.314453 
L 266.6025 -162.314453 
L 267.3 -162.314453 
L 267.9975 -162.314453 
L 268.695 -162.314453 
L 269.3925 -162.314453 
L 270.09 -162.314453 
L 270.7875 -162.314453 
L 271.485 -162.314453 
L 272.1825 -162.314453 
L 272.88 -162.314453 
L 273.5775 -162.314453 
L 274.275 -162.314453 
L 274.9725 -162.314453 
L 275.67 -162.314453 
L 276.3675 -162.314453 
L 277.065 -162.314453 
L 277.7625 -162.314453 
L 278.46 -162.314453 
L 279.1575 -162.314453 
L 279.855 -162.314453 
L 280.5525 -162.314453 
L 281.25 -162.314453 
L 281.9475 -162.314453 
L 282.645 -162.314453 
L 283.3425 -162.314453 
L 284.04 -162.314453 
L 284.7375 -162.314453 
L 285.435 -162.314453 
L 286.1325 -162.314453 
L 286.83 -162.314453 
L 287.5275 -162.314453 
L 288.225 -162.314453 
L 288.9225 -162.314453 
L 289.62 -162.314453 
L 290.3175 -162.314453 
L 291.015 -162.314453 
L 291.7125 -162.314453 
L 292.41 -162.314453 
L 293.1075 -162.314453 
L 293.805 -162.314453 
L 294.5025 -162.314453 
L 295.2 -162.314453 
L 295.8975 -162.314453 
L 296.595 -162.314453 
L 297.2925 -162.314453 
L 297.99 -162.314453 
L 298.6875 -162.314453 
L 299.385 -162.314453 
L 300.0825 -162.314453 
L 300.78 -162.314453 
L 301.4775 -162.314453 
L 302.175 -162.314453 
L 302.8725 -162.314453 
L 303.57 -162.314453 
L 304.2675 -162.314453 
L 304.965 -162.314453 
L 305.6625 -162.314453 
L 306.36 -162.314453 
L 307.0575 -162.314453 
L 307.755 -162.314453 
L 308.4525 -162.314453 
L 309.15 -162.314453 
L 309.8475 -162.314453 
L 310.545 -162.314453 
L 311.2425 -162.314453 
L 311.94 -162.314453 
L 312.6375 -162.314453 
L 313.335 -162.314453 
L 314.0325 -162.314453 
L 314.73 -162.314453 
L 315.4275 -162.314453 
L 316.125 -162.314453 
L 316.8225 -162.314453 
L 317.52 -162.314453 
L 318.2175 -162.314453 
L 318.915 -162.314453 
L 319.6125 -162.314453 
L 320.31 -162.314453 
L 321.0075 -162.314453 
L 321.705 -162.314453 
L 322.4025 -162.314453 
L 323.1 -162.314453 
L 323.7975 -162.314453 
L 324.495 -162.314453 
L 325.1925 -162.314453 
L 325.89 -162.314453 
L 326.5875 -162.314453 
L 327.285 -162.314453 
L 327.9825 -162.314453 
L 328.68 -162.314453 
L 329.3775 -162.314453 
L 330.075 -162.314453 
L 330.7725 -162.314453 
L 331.47 -162.314453 
L 332.1675 -162.314453 
L 332.865 -162.314453 
L 333.5625 -162.314453 
L 334.26 -162.314453 
L 334.9575 -162.314453 
L 335.655 -162.314453 
L 336.3525 -162.314453 
L 337.05 -162.314453 
L 337.7475 -162.314453 
L 338.445 -162.314453 
L 339.1425 -162.314453 
L 339.84 -162.314453 
L 340.5375 -162.314453 
L 341.235 -162.314453 
L 341.9325 -162.314453 
L 342.63 -162.314453 
L 343.3275 -162.314453 
L 344.025 -162.314453 
L 344.7225 -162.314453 
L 345.42 -162.314453 
L 346.1175 -162.314453 
L 346.815 -162.314453 
L 347.5125 -162.314453 
L 348.21 -162.314453 
L 348.9075 -162.314453 
L 349.605 -162.314453 
L 350.3025 -162.314453 
L 351 -162.314453 
L 351.6975 -162.314453 
L 352.395 -162.314453 
L 353.0925 -162.314453 
L 353.79 -162.314453 
L 354.4875 -162.314453 
L 355.185 -162.314453 
L 355.8825 -162.314453 
L 356.58 -162.314453 
L 357.2775 -162.314453 
L 357.975 -162.314453 
L 358.6725 -162.314453 
L 359.37 -162.314453 
L 360.0675 -162.314453 
L 360.765 -162.314453 
L 361.4625 -162.314453 
L 362.16 -162.314453 
L 362.8575 -162.314453 
L 363.555 -162.314453 
L 364.2525 -162.314453 
L 364.95 -162.314453 
L 365.6475 -162.314453 
L 366.345 -162.314453 
L 367.0425 -162.314453 
L 367.74 -162.314453 
L 368.4375 -162.314453 
L 369.135 -162.314453 
L 369.8325 -162.314453 
L 370.53 -162.314453 
L 371.2275 -162.314453 
L 371.925 -162.314453 
L 372.6225 -162.314453 
L 373.32 -162.314453 
L 374.0175 -162.314453 
L 374.715 -162.314453 
L 375.4125 -162.314453 
L 376.11 -162.314453 
L 376.8075 -162.314453 
L 377.505 -162.314453 
L 378.2025 -162.314453 
L 378.9 -162.314453 
L 379.5975 -162.314453 
L 380.295 -162.314453 
L 380.9925 -162.314453 
L 381.69 -162.314453 
L 382.3875 -162.314453 
L 383.085 -162.314453 
L 383.7825 -162.314453 
L 384.48 -162.314453 
L 385.1775 -162.314453 
L 385.875 -162.314453 
L 386.5725 -162.314453 
L 387.27 -162.314453 
L 387.9675 -162.314453 
L 388.665 -162.314453 
L 389.3625 -162.314453 
L 390.06 -162.314453 
L 390.7575 -162.314453 
L 391.455 -162.314453 
L 392.1525 -162.314453 
L 392.85 -162.314453 
L 393.5475 -162.314453 
L 394.245 -162.314453 
L 394.9425 -162.314453 
L 395.64 -162.314453 
L 396.3375 -162.314453 
L 397.035 -162.314453 
L 397.7325 -162.314453 
L 398.43 -162.314453 
L 399.1275 -162.314453 
L 399.825 -162.314453 
L 400.5225 -162.314453 
L 401.22 -162.314453 
L 401.9175 -162.314453 
L 402.615 -162.314453 
L 403.3125 -162.314453 
L 404.01 -162.314453 
L 404.7075 -162.314453 
L 405.405 -162.314453 
L 406.1025 -162.314453 
L 406.8 -162.314453 
L 407.4975 -162.314453 
L 408.195 -162.314453 
L 408.8925 -162.314453 
L 409.59 -162.314453 
L 410.2875 -162.314453 
L 410.985 -162.314453 
L 411.6825 -162.314453 
L 412.38 -162.314453 
L 413.0775 -162.314453 
L 413.775 -162.314453 
L 414.4725 -162.314453 
L 415.17 -162.314453 
L 415.8675 -162.314453 
L 416.565 -162.314453 
L 417.2625 -162.314453 
L 417.96 -162.314453 
L 418.6575 -162.314453 
L 419.355 -162.314453 
L 420.0525 -162.314453 
L 420.75 -162.314453 
L 421.4475 -162.314453 
L 422.145 -162.314453 
L 422.8425 -162.314453 
L 423.54 -162.314453 
L 424.2375 -162.314453 
L 424.935 -162.314453 
L 425.6325 -162.314453 
L 426.33 -162.314453 
L 427.0275 -162.314453 
L 427.725 -162.314453 
L 428.4225 -162.314453 
L 429.12 -162.314453 
L 429.8175 -162.314453 
L 430.515 -162.314453 
L 431.2125 -162.314453 
L 431.91 -162.314453 
L 432.6075 -162.314453 
L 433.305 -162.314453 
L 434.0025 -162.314453 
L 434.7 -162.314453 
L 435.3975 -162.314453 
L 436.095 -162.314453 
L 436.7925 -162.314453 
L 437.49 -162.314453 
L 438.1875 -162.314453 
L 438.885 -162.314453 
L 439.5825 -162.314453 
L 440.28 -162.314453 
L 440.9775 -162.314453 
L 441.675 -162.314453 
L 442.3725 -162.314453 
L 443.07 -162.314453 
L 443.7675 -162.314453 
L 444.465 -162.314453 
L 445.1625 -162.314453 
L 445.86 -162.314453 
L 446.5575 -162.314453 
L 447.255 -162.314453 
L 447.9525 -162.314453 
L 448.65 -162.314453 
L 449.3475 -162.314453 
L 450.045 -162.314453 
L 450.7425 -162.314453 
L 451.44 -162.314453 
L 452.1375 -162.314453 
L 452.835 -162.314453 
L 453.5325 -162.314453 
L 454.23 -162.314453 
L 454.9275 -162.314453 
L 455.625 -162.314453 
L 456.3225 -162.314453 
L 457.02 -162.314453 
L 457.7175 -162.314453 
L 458.415 -162.314453 
L 459.1125 -162.314453 
L 459.81 -162.314453 
L 460.5075 -162.314453 
L 461.205 -162.314453 
L 461.9025 -162.314453 
L 462.6 -162.314453 
L 463.2975 -162.314453 
L 463.995 -162.314453 
L 464.6925 -162.314453 
L 465.39 -162.314453 
L 466.0875 -162.314453 
L 466.785 -162.314453 
L 467.4825 -162.314453 
L 468.18 -162.314453 
L 468.8775 -162.314453 
L 469.575 -162.314453 
L 470.2725 -162.314453 
L 470.97 -162.314453 
L 471.6675 -162.314453 
L 472.365 -162.314453 
L 473.0625 -162.314453 
L 473.76 -162.314453 
L 474.4575 -162.314453 
L 475.155 -162.314453 
L 475.8525 -162.314453 
L 476.55 -162.314453 
L 477.2475 -162.314453 
L 477.945 -162.314453 
L 478.6425 -162.314453 
L 479.34 -162.314453 
L 480.0375 -162.314453 
L 480.735 -162.314453 
L 481.4325 -162.314453 
L 482.13 -162.314453 
L 482.8275 -162.314453 
L 483.525 -162.314453 
L 484.2225 -162.314453 
L 484.92 -162.314453 
L 485.6175 -162.314453 
L 486.315 -162.314453 
L 487.0125 -162.314453 
L 487.71 -162.314453 
L 488.4075 -162.314453 
L 489.105 -162.314453 
L 489.8025 -162.314453 
L 490.5 -162.314453 
L 491.1975 -162.314453 
L 491.895 -162.314453 
L 492.5925 -162.314453 
L 493.29 -162.314453 
L 493.9875 -162.314453 
L 494.685 -162.314453 
L 495.3825 -162.314453 
L 496.08 -162.314453 
L 496.7775 -162.314453 
L 497.475 -162.314453 
L 498.1725 -162.314453 
L 498.87 -162.314453 
L 499.5675 -162.314453 
L 500.265 -162.314453 
L 500.9625 -162.314453 
L 501.66 -162.314453 
L 502.3575 -162.314453 
L 503.055 -162.314453 
L 503.7525 -162.314453 
L 504.45 -162.314453 
L 505.1475 -162.314453 
L 505.845 -162.314453 
L 506.5425 -162.314453 
L 507.24 -162.314453 
L 507.9375 -162.314453 
L 508.635 -162.314453 
L 509.3325 -162.314453 
L 510.03 -162.314453 
L 510.7275 -162.314453 
L 511.425 -162.314453 
L 512.1225 -162.314453 
L 512.82 -162.314453 
L 513.5175 -162.314453 
L 514.215 -162.314453 
L 514.9125 -162.314453 
L 515.61 -162.314453 
L 516.3075 -162.314453 
L 517.005 -162.314453 
L 517.7025 -162.314453 
L 518.4 -162.314453 
L 518.4 -157.455202 
L 518.4 -157.455202 
L 517.7025 -157.455202 
L 517.005 -157.455202 
L 516.3075 -157.455202 
L 515.61 -157.455202 
L 514.9125 -157.455202 
L 514.215 -157.455202 
L 513.5175 -157.455202 
L 512.82 -157.455202 
L 512.1225 -157.455202 
L 511.425 -157.455202 
L 510.7275 -157.455202 
L 510.03 -157.455202 
L 509.3325 -157.455202 
L 508.635 -157.455202 
L 507.9375 -157.455202 
L 507.24 -157.455202 
L 506.5425 -157.455202 
L 505.845 -157.455202 
L 505.1475 -157.455202 
L 504.45 -157.455202 
L 503.7525 -157.455202 
L 503.055 -157.455202 
L 502.3575 -157.455202 
L 501.66 -157.455202 
L 500.9625 -157.455202 
L 500.265 -157.455202 
L 499.5675 -157.455202 
L 498.87 -157.455202 
L 498.1725 -157.455202 
L 497.475 -157.455202 
L 496.7775 -157.455202 
L 496.08 -157.455202 
L 495.3825 -157.455202 
L 494.685 -157.455202 
L 493.9875 -157.455202 
L 493.29 -157.455202 
L 492.5925 -157.455202 
L 491.895 -157.455202 
L 491.1975 -157.455202 
L 490.5 -157.455202 
L 489.8025 -157.455202 
L 489.105 -157.455202 
L 488.4075 -157.455202 
L 487.71 -157.455202 
L 487.0125 -157.455202 
L 486.315 -157.455202 
L 485.6175 -157.455202 
L 484.92 -157.455202 
L 484.2225 -157.455202 
L 483.525 -157.455202 
L 482.8275 -157.455202 
L 482.13 -157.455202 
L 481.4325 -157.455202 
L 480.735 -157.455202 
L 480.0375 -157.455202 
L 479.34 -157.455202 
L 478.6425 -157.455202 
L 477.945 -157.455202 
L 477.2475 -157.455202 
L 476.55 -157.455202 
L 475.8525 -157.455202 
L 475.155 -157.455202 
L 474.4575 -157.455202 
L 473.76 -157.455202 
L 473.0625 -157.455202 
L 472.365 -157.455202 
L 471.6675 -157.455202 
L 470.97 -157.455202 
L 470.2725 -157.455202 
L 469.575 -157.455202 
L 468.8775 -157.455202 
L 468.18 -157.455202 
L 467.4825 -157.455202 
L 466.785 -157.455202 
L 466.0875 -157.455202 
L 465.39 -157.455202 
L 464.6925 -157.455202 
L 463.995 -157.455202 
L 463.2975 -157.455202 
L 462.6 -157.455202 
L 461.9025 -157.455202 
L 461.205 -157.455202 
L 460.5075 -157.455202 
L 459.81 -157.455202 
L 459.1125 -157.455202 
L 458.415 -157.455202 
L 457.7175 -157.455202 
L 457.02 -157.455202 
L 456.3225 -157.455202 
L 455.625 -157.455202 
L 454.9275 -157.455202 
L 454.23 -157.455202 
L 453.5325 -157.455202 
L 452.835 -157.455202 
L 452.1375 -157.455202 
L 451.44 -157.455202 
L 450.7425 -157.455202 
L 450.045 -157.455202 
L 449.3475 -157.455202 
L 448.65 -157.455202 
L 447.9525 -157.455202 
L 447.255 -157.455202 
L 446.5575 -157.455202 
L 445.86 -157.455202 
L 445.1625 -157.455202 
L 444.465 -157.455202 
L 443.7675 -157.455202 
L 443.07 -157.455202 
L 442.3725 -157.455202 
L 441.675 -157.455202 
L 440.9775 -157.455202 
L 440.28 -157.455202 
L 439.5825 -157.455202 
L 438.885 -157.455202 
L 438.1875 -157.455202 
L 437.49 -157.455202 
L 436.7925 -157.455202 
L 436.095 -157.455202 
L 435.3975 -157.455202 
L 434.7 -157.455202 
L 434.0025 -157.455202 
L 433.305 -157.455202 
L 432.6075 -157.455202 
L 431.91 -157.455202 
L 431.2125 -157.455202 
L 430.515 -157.455202 
L 429.8175 -157.455202 
L 429.12 -157.455202 
L 428.4225 -157.455202 
L 427.725 -157.455202 
L 427.0275 -157.455202 
L 426.33 -157.455202 
L 425.6325 -157.455202 
L 424.935 -157.455202 
L 424.2375 -157.455202 
L 423.54 -157.455202 
L 422.8425 -157.455202 
L 422.145 -157.455202 
L 421.4475 -157.455202 
L 420.75 -157.455202 
L 420.0525 -157.455202 
L 419.355 -157.455202 
L 418.6575 -157.455202 
L 417.96 -157.455202 
L 417.2625 -157.455202 
L 416.565 -157.455202 
L 415.8675 -157.455202 
L 415.17 -157.455202 
L 414.4725 -157.455202 
L 413.775 -157.455202 
L 413.0775 -157.455202 
L 412.38 -157.455202 
L 411.6825 -157.455202 
L 410.985 -157.455202 
L 410.2875 -157.455202 
L 409.59 -157.455202 
L 408.8925 -157.455202 
L 408.195 -157.455202 
L 407.4975 -157.455202 
L 406.8 -157.455202 
L 406.1025 -157.455202 
L 405.405 -157.455202 
L 404.7075 -157.455202 
L 404.01 -157.455202 
L 403.3125 -157.455202 
L 402.615 -157.455202 
L 401.9175 -157.455202 
L 401.22 -157.455202 
L 400.5225 -157.455202 
L 399.825 -157.455202 
L 399.1275 -157.455202 
L 398.43 -157.455202 
L 397.7325 -157.455202 
L 397.035 -157.455202 
L 396.3375 -157.455202 
L 395.64 -157.455202 
L 394.9425 -157.455202 
L 394.245 -157.455202 
L 393.5475 -157.455202 
L 392.85 -157.455202 
L 392.1525 -157.455202 
L 391.455 -157.455202 
L 390.7575 -157.455202 
L 390.06 -157.455202 
L 389.3625 -157.455202 
L 388.665 -157.455202 
L 387.9675 -157.455202 
L 387.27 -157.455202 
L 386.5725 -157.455202 
L 385.875 -157.455202 
L 385.1775 -157.455202 
L 384.48 -157.455202 
L 383.7825 -157.455202 
L 383.085 -157.455202 
L 382.3875 -157.455202 
L 381.69 -157.455202 
L 380.9925 -157.455202 
L 380.295 -157.455202 
L 379.5975 -157.455202 
L 378.9 -157.455202 
L 378.2025 -157.455202 
L 377.505 -157.455202 
L 376.8075 -157.455202 
L 376.11 -157.455202 
L 375.4125 -157.455202 
L 374.715 -157.455202 
L 374.0175 -157.455202 
L 373.32 -157.455202 
L 372.6225 -157.455202 
L 371.925 -157.455202 
L 371.2275 -157.455202 
L 370.53 -157.455202 
L 369.8325 -157.455202 
L 369.135 -157.455202 
L 368.4375 -157.455202 
L 367.74 -157.455202 
L 367.0425 -157.455202 
L 366.345 -157.455202 
L 365.6475 -157.455202 
L 364.95 -157.455202 
L 364.2525 -157.455202 
L 363.555 -157.455202 
L 362.8575 -157.455202 
L 362.16 -157.455202 
L 361.4625 -157.455202 
L 360.765 -157.455202 
L 360.0675 -157.455202 
L 359.37 -157.455202 
L 358.6725 -157.455202 
L 357.975 -157.455202 
L 357.2775 -157.455202 
L 356.58 -157.455202 
L 355.8825 -157.455202 
L 355.185 -157.455202 
L 354.4875 -157.455202 
L 353.79 -157.455202 
L 353.0925 -157.455202 
L 352.395 -157.455202 
L 351.6975 -157.455202 
L 351 -157.455202 
L 350.3025 -157.455202 
L 349.605 -157.455202 
L 348.9075 -157.455202 
L 348.21 -157.455202 
L 347.5125 -157.455202 
L 346.815 -157.455202 
L 346.1175 -157.455202 
L 345.42 -157.455202 
L 344.7225 -157.455202 
L 344.025 -157.455202 
L 343.3275 -157.455202 
L 342.63 -157.455202 
L 341.9325 -157.455202 
L 341.235 -157.455202 
L 340.5375 -157.455202 
L 339.84 -157.455202 
L 339.1425 -157.455202 
L 338.445 -157.455202 
L 337.7475 -157.455202 
L 337.05 -157.455202 
L 336.3525 -157.455202 
L 335.655 -157.455202 
L 334.9575 -157.455202 
L 334.26 -157.455202 
L 333.5625 -157.455202 
L 332.865 -157.455202 
L 332.1675 -157.455202 
L 331.47 -157.455202 
L 330.7725 -157.455202 
L 330.075 -157.455202 
L 329.3775 -157.455202 
L 328.68 -157.455202 
L 327.9825 -157.455202 
L 327.285 -157.455202 
L 326.5875 -157.455202 
L 325.89 -157.455202 
L 325.1925 -157.455202 
L 324.495 -157.455202 
L 323.7975 -157.455202 
L 323.1 -157.455202 
L 322.4025 -157.455202 
L 321.705 -157.455202 
L 321.0075 -157.455202 
L 320.31 -157.455202 
L 319.6125 -157.455202 
L 318.915 -157.455202 
L 318.2175 -157.455202 
L 317.52 -157.455202 
L 316.8225 -157.455202 
L 316.125 -157.455202 
L 315.4275 -157.455202 
L 314.73 -157.455202 
L 314.0325 -157.455202 
L 313.335 -157.455202 
L 312.6375 -157.455202 
L 311.94 -157.455202 
L 311.2425 -157.455202 
L 310.545 -157.455202 
L 309.8475 -157.455202 
L 309.15 -157.455202 
L 308.4525 -157.455202 
L 307.755 -157.455202 
L 307.0575 -157.455202 
L 306.36 -157.455202 
L 305.6625 -157.455202 
L 304.965 -157.455202 
L 304.2675 -157.455202 
L 303.57 -157.455202 
L 302.8725 -157.455202 
L 302.175 -157.455202 
L 301.4775 -157.455202 
L 300.78 -157.455202 
L 300.0825 -157.455202 
L 299.385 -157.455202 
L 298.6875 -157.455202 
L 297.99 -157.455202 
L 297.2925 -157.455202 
L 296.595 -157.455202 
L 295.8975 -157.455202 
L 295.2 -157.455202 
L 294.5025 -157.455202 
L 293.805 -157.455202 
L 293.1075 -157.455202 
L 292.41 -157.455202 
L 291.7125 -157.455202 
L 291.015 -157.455202 
L 290.3175 -157.455202 
L 289.62 -157.455202 
L 288.9225 -157.455202 
L 288.225 -157.455202 
L 287.5275 -157.455202 
L 286.83 -157.455202 
L 286.1325 -157.455202 
L 285.435 -157.455202 
L 284.7375 -157.455202 
L 284.04 -157.455202 
L 283.3425 -157.455202 
L 282.645 -157.455202 
L 281.9475 -157.455202 
L 281.25 -157.455202 
L 280.5525 -157.455202 
L 279.855 -157.455202 
L 279.1575 -157.455202 
L 278.46 -157.455202 
L 277.7625 -157.455202 
L 277.065 -157.455202 
L 276.3675 -157.455202 
L 275.67 -157.455202 
L 274.9725 -157.455202 
L 274.275 -157.455202 
L 273.5775 -157.455202 
L 272.88 -157.455202 
L 272.1825 -157.455202 
L 271.485 -157.455202 
L 270.7875 -157.455202 
L 270.09 -157.455202 
L 269.3925 -157.455202 
L 268.695 -157.455202 
L 267.9975 -157.455202 
L 267.3 -157.455202 
L 266.6025 -157.455202 
L 265.905 -157.455202 
L 265.2075 -157.455202 
L 264.51 -157.455202 
L 263.8125 -157.455202 
L 263.115 -157.455202 
L 262.4175 -157.455202 
L 261.72 -157.455202 
L 261.0225 -157.455202 
L 260.325 -157.455202 
L 259.6275 -157.455202 
L 258.93 -157.455202 
L 258.2325 -157.455202 
L 257.535 -157.455202 
L 256.8375 -157.455202 
L 256.14 -157.455202 
L 255.4425 -157.455202 
L 254.745 -157.455202 
L 254.0475 -157.455202 
L 253.35 -157.455202 
L 252.6525 -157.455202 
L 251.955 -157.455202 
L 251.2575 -157.455202 
L 250.56 -157.455202 
L 249.8625 -157.455202 
L 249.165 -157.455202 
L 248.4675 -157.455202 
L 247.77 -157.455202 
L 247.0725 -157.455202 
L 246.375 -157.455202 
L 245.6775 -157.455202 
L 244.98 -157.455202 
L 244.2825 -157.455202 
L 243.585 -157.455202 
L 242.8875 -157.455202 
L 242.19 -157.455202 
L 241.4925 -157.455202 
L 240.795 -157.455202 
L 240.0975 -157.455202 
L 239.4 -157.455202 
L 238.7025 -157.455202 
L 238.005 -157.455202 
L 237.3075 -157.455202 
L 236.61 -157.455202 
L 235.9125 -157.455202 
L 235.215 -157.455202 
L 234.5175 -157.455202 
L 233.82 -157.455202 
L 233.1225 -157.455202 
L 232.425 -157.455202 
L 231.7275 -157.455202 
L 231.03 -157.455202 
L 230.3325 -157.455202 
L 229.635 -157.455202 
L 228.9375 -157.455202 
L 228.24 -157.455202 
L 227.5425 -157.455202 
L 226.845 -157.455202 
L 226.1475 -157.455202 
L 225.45 -157.455202 
L 224.7525 -157.455202 
L 224.055 -157.455202 
L 223.3575 -157.455202 
L 222.66 -157.455202 
L 221.9625 -157.455202 
L 221.265 -157.455202 
L 220.5675 -157.455202 
L 219.87 -157.455202 
L 219.1725 -157.455202 
L 218.475 -157.455202 
L 217.7775 -157.455202 
L 217.08 -157.455202 
L 216.3825 -157.455202 
L 215.685 -157.455202 
L 214.9875 -157.455202 
L 214.29 -157.455202 
L 213.5925 -157.455202 
L 212.895 -157.455202 
L 212.1975 -157.455202 
L 211.5 -157.455202 
L 210.8025 -157.455202 
L 210.105 -157.455202 
L 209.4075 -157.455202 
L 208.71 -157.455202 
L 208.0125 -157.455202 
L 207.315 -157.455202 
L 206.6175 -157.455202 
L 205.92 -157.455202 
L 205.2225 -157.455202 
L 204.525 -157.455202 
L 203.8275 -157.455202 
L 203.13 -157.455202 
L 202.4325 -157.455202 
L 201.735 -157.455202 
L 201.0375 -157.455202 
L 200.34 -157.455202 
L 199.6425 -157.455202 
L 198.945 -157.455202 
L 198.2475 -157.455202 
L 197.55 -157.455202 
L 196.8525 -157.455202 
L 196.155 -157.455202 
L 195.4575 -157.455202 
L 194.76 -157.455202 
L 194.0625 -157.455202 
L 193.365 -157.455202 
L 192.6675 -157.455202 
L 191.97 -157.455202 
L 191.2725 -157.455202 
L 190.575 -157.455202 
L 189.8775 -157.455202 
L 189.18 -157.455202 
L 188.4825 -157.455202 
L 187.785 -157.455202 
L 187.0875 -157.455202 
L 186.39 -157.455202 
L 185.6925 -157.455202 
L 184.995 -157.455202 
L 184.2975 -157.455202 
L 183.6 -157.455202 
L 182.9025 -157.455202 
L 182.205 -157.455202 
L 181.5075 -157.455202 
L 180.81 -157.455202 
L 180.1125 -157.455202 
L 179.415 -157.455202 
L 178.7175 -157.455202 
L 178.02 -157.455202 
L 177.3225 -157.455202 
L 176.625 -157.455202 
L 175.9275 -157.455202 
L 175.23 -157.455202 
L 174.5325 -157.455202 
L 173.835 -157.455202 
L 173.1375 -157.455202 
L 172.44 -157.455202 
L 171.7425 -157.455202 
L 171.045 -157.455202 
L 170.3475 -157.455202 
L 169.65 -157.455202 
L 168.9525 -157.455202 
L 168.255 -157.455202 
L 167.5575 -157.455202 
L 166.86 -157.455202 
L 166.1625 -157.455202 
L 165.465 -157.455202 
L 164.7675 -157.455202 
L 164.07 -157.455202 
L 163.3725 -157.455202 
L 162.675 -157.455202 
L 161.9775 -157.455202 
L 161.28 -157.455202 
L 160.5825 -157.455202 
L 159.885 -157.455202 
L 159.1875 -157.455202 
L 158.49 -157.455202 
L 157.7925 -157.455202 
L 157.095 -157.455202 
L 156.3975 -157.455202 
L 155.7 -157.455202 
L 155.0025 -157.455202 
L 154.305 -157.455202 
L 153.6075 -157.455202 
L 152.91 -157.455202 
L 152.2125 -157.455202 
L 151.515 -157.455202 
L 150.8175 -157.455202 
L 150.12 -157.455202 
L 149.4225 -157.455202 
L 148.725 -157.455202 
L 148.0275 -157.455202 
L 147.33 -157.455202 
L 146.6325 -157.455202 
L 145.935 -157.455202 
L 145.2375 -157.455202 
L 144.54 -157.455202 
L 143.8425 -157.455202 
L 143.145 -157.455202 
L 142.4475 -157.455202 
L 141.75 -157.455202 
L 141.0525 -157.455202 
L 140.355 -157.455202 
L 139.6575 -157.455202 
L 138.96 -157.455202 
L 138.2625 -157.455202 
L 137.565 -157.455202 
L 136.8675 -157.455202 
L 136.17 -157.455202 
L 135.4725 -157.455202 
L 134.775 -157.455202 
L 134.0775 -157.455202 
L 133.38 -157.455202 
L 132.6825 -157.455202 
L 131.985 -157.455202 
L 131.2875 -157.455202 
L 130.59 -157.455202 
L 129.8925 -157.455202 
L 129.195 -157.455202 
L 128.4975 -157.455202 
L 127.8 -157.455202 
L 127.1025 -157.455202 
L 126.405 -157.455202 
L 125.7075 -157.455202 
L 125.01 -157.455202 
L 124.3125 -157.455202 
L 123.615 -157.455202 
L 122.9175 -157.455202 
L 122.22 -157.455202 
L 121.5225 -157.455202 
L 120.825 -157.455202 
L 120.1275 -157.455202 
L 119.43 -157.455202 
L 118.7325 -157.455202 
L 118.035 -157.455202 
L 117.3375 -157.455202 
L 116.64 -157.455202 
L 115.9425 -157.455202 
L 115.245 -157.455202 
L 114.5475 -157.455202 
L 113.85 -157.455202 
L 113.1525 -157.455202 
L 112.455 -157.455202 
L 111.7575 -157.455202 
L 111.06 -157.455202 
L 110.3625 -157.455202 
L 109.665 -157.455202 
L 108.9675 -157.455202 
L 108.27 -157.455202 
L 107.5725 -157.455202 
L 106.875 -157.455202 
L 106.1775 -157.455202 
L 105.48 -157.455202 
L 104.7825 -157.455202 
L 104.085 -157.455202 
L 103.3875 -157.455202 
L 102.69 -157.455202 
L 101.9925 -157.455202 
L 101.295 -157.455202 
L 100.5975 -157.455202 
L 99.9 -157.455202 
L 99.2025 -157.455202 
L 98.505 -157.455202 
L 97.8075 -157.455202 
L 97.11 -157.455202 
L 96.4125 -157.455202 
L 95.715 -157.455202 
L 95.0175 -157.455202 
L 94.32 -157.455202 
L 93.6225 -157.455202 
L 92.925 -157.455202 
L 92.2275 -157.455202 
L 91.53 -157.455202 
L 90.8325 -157.455202 
L 90.135 -157.455202 
L 89.4375 -157.455202 
L 88.74 -157.455202 
L 88.0425 -157.455202 
L 87.345 -157.455202 
L 86.6475 -157.455202 
L 85.95 -157.455202 
L 85.2525 -157.455202 
L 84.555 -157.455202 
L 83.8575 -157.455202 
L 83.16 -157.455202 
L 82.4625 -157.455202 
L 81.765 -157.455202 
L 81.0675 -157.455202 
L 80.37 -157.455202 
L 79.6725 -157.455202 
L 78.975 -157.455202 
L 78.2775 -157.455202 
L 77.58 -157.455202 
L 76.8825 -157.455202 
L 76.185 -157.455202 
L 75.4875 -157.455202 
L 74.79 -157.455202 
L 74.0925 -157.455202 
L 73.395 -157.455202 
L 72.6975 -157.455202 
L 72 -157.455202 
z
" id="mcb510bf6ea"/>
    </defs>
    <g clip-path="url(#p6086b5ad3d)">
     <use style="fill-opacity:0.15;" x="0" xlink:href="#mcb510bf6ea" y="360"/>
    </g>
   </g>
   <g id="matplotlib.axis_1">
    <g id="xtick_1">
     <g id="line2d_1">
      <defs>
       <path d="M 0 0 
L 0 3.5 
" id="mce9ddaa874" style="stroke:#000000;stroke-width:0.8;"/>
      </defs>
      <g>
       <use style="stroke:#000000;stroke-width:0.8;" x="72" xlink:href="#mce9ddaa874" y="320.4"/>
      </g>
     </g>
     <g id="text_1">
      <!-- 0.0 -->
      <g transform="translate(60.867812 338.037813)scale(0.14 -0.14)">
       <defs>
        <path d="M 2034 4250 
Q 1547 4250 1301 3770 
Q 1056 3291 1056 2328 
Q 1056 1369 1301 889 
Q 1547 409 2034 409 
Q 2525 409 2770 889 
Q 3016 1369 3016 2328 
Q 3016 3291 2770 3770 
Q 2525 4250 2034 4250 
z
M 2034 4750 
Q 2819 4750 3233 4129 
Q 3647 3509 3647 2328 
Q 3647 1150 3233 529 
Q 2819 -91 2034 -91 
Q 1250 -91 836 529 
Q 422 1150 422 2328 
Q 422 3509 836 4129 
Q 1250 4750 2034 4750 
z
" id="DejaVuSans-30" transform="scale(0.015625)"/>
        <path d="M 684 794 
L 1344 794 
L 1344 0 
L 684 0 
L 684 794 
z
" id="DejaVuSans-2e" transform="scale(0.015625)"/>
       </defs>
       <use xlink:href="#DejaVuSans-30"/>
       <use x="63.623047" xlink:href="#DejaVuSans-2e"/>
       <use x="95.410156" xlink:href="#DejaVuSans-30"/>
      </g>
     </g>
    </g>
    <g id="xtick_2">
     <g id="line2d_2">
      <g>
       <use style="stroke:#000000;stroke-width:0.8;" x="127.839087" xlink:href="#mce9ddaa874" y="320.4"/>
      </g>
     </g>
     <g id="text_2">
      <!-- 2.5 -->
      <g transform="translate(116.7069 338.037813)scale(0.14 -0.14)">
       <defs>
        <path d="M 1228 531 
L 3431 531 
L 3431 0 
L 469 0 
L 469 531 
Q 828 903 1448 1529 
Q 2069 2156 2228 2338 
Q 2531 2678 2651 2914 
Q 2772 3150 2772 3378 
Q 2772 3750 2511 3984 
Q 2250 4219 1831 4219 
Q 1534 4219 1204 4116 
Q 875 4013 500 3803 
L 500 4441 
Q 881 4594 1212 4672 
Q 1544 4750 1819 4750 
Q 2544 4750 2975 4387 
Q 3406 4025 3406 3419 
Q 3406 3131 3298 2873 
Q 3191 2616 2906 2266 
Q 2828 2175 2409 1742 
Q 1991 1309 1228 531 
z
" id="DejaVuSans-32" transform="scale(0.015625)"/>
        <path d="M 691 4666 
L 3169 4666 
L 3169 4134 
L 1269 4134 
L 1269 2991 
Q 1406 3038 1543 3061 
Q 1681 3084 1819 3084 
Q 2600 3084 3056 2656 
Q 3513 2228 3513 1497 
Q 3513 744 3044 326 
Q 2575 -91 1722 -91 
Q 1428 -91 1123 -41 
Q 819 9 494 109 
L 494 744 
Q 775 591 1075 516 
Q 1375 441 1709 441 
Q 2250 441 2565 725 
Q 2881 1009 2881 1497 
Q 2881 1984 2565 2268 
Q 2250 2553 1709 2553 
Q 1456 2553 1204 2497 
Q 953 2441 691 2322 
L 691 4666 
z
" id="DejaVuSans-35" transform="scale(0.015625)"/>
       </defs>
       <use xlink:href="#DejaVuSans-32"/>
       <use x="63.623047" xlink:href="#DejaVuSans-2e"/>
       <use x="95.410156" xlink:href="#DejaVuSans-35"/>
      </g>
     </g>
    </g>
    <g id="xtick_3">
     <g id="line2d_3">
      <g>
       <use style="stroke:#000000;stroke-width:0.8;" x="183.678175" xlink:href="#mce9ddaa874" y="320.4"/>
      </g>
     </g>
     <g id="text_3">
      <!-- 5.0 -->
      <g transform="translate(172.545987 338.037813)scale(0.14 -0.14)">
       <use xlink:href="#DejaVuSans-35"/>
       <use x="63.623047" xlink:href="#DejaVuSans-2e"/>
       <use x="95.410156" xlink:href="#DejaVuSans-30"/>
      </g>
     </g>
    </g>
    <g id="xtick_4">
     <g id="line2d_4">
      <g>
       <use style="stroke:#000000;stroke-width:0.8;" x="239.517262" xlink:href="#mce9ddaa874" y="320.4"/>
      </g>
     </g>
     <g id="text_4">
      <!-- 7.5 -->
      <g transform="translate(228.385075 338.037813)scale(0.14 -0.14)">
       <defs>
        <path d="M 525 4666 
L 3525 4666 
L 3525 4397 
L 1831 0 
L 1172 0 
L 2766 4134 
L 525 4134 
L 525 4666 
z
" id="DejaVuSans-37" transform="scale(0.015625)"/>
       </defs>
       <use xlink:href="#DejaVuSans-37"/>
       <use x="63.623047" xlink:href="#DejaVuSans-2e"/>
       <use x="95.410156" xlink:href="#DejaVuSans-35"/>
      </g>
     </g>
    </g>
    <g id="xtick_5">
     <g id="line2d_5">
      <g>
       <use style="stroke:#000000;stroke-width:0.8;" x="295.356349" xlink:href="#mce9ddaa874" y="320.4"/>
      </g>
     </g>
     <g id="text_5">
      <!-- 10.0 -->
      <g transform="translate(279.770412 338.037813)scale(0.14 -0.14)">
       <defs>
        <path d="M 794 531 
L 1825 531 
L 1825 4091 
L 703 3866 
L 703 4441 
L 1819 4666 
L 2450 4666 
L 2450 531 
L 3481 531 
L 3481 0 
L 794 0 
L 794 531 
z
" id="DejaVuSans-31" transform="scale(0.015625)"/>
       </defs>
       <use xlink:href="#DejaVuSans-31"/>
       <use x="63.623047" xlink:href="#DejaVuSans-30"/>
       <use x="127.246094" xlink:href="#DejaVuSans-2e"/>
       <use x="159.033203" xlink:href="#DejaVuSans-30"/>
      </g>
     </g>
    </g>
    <g id="xtick_6">
     <g id="line2d_6">
      <g>
       <use style="stroke:#000000;stroke-width:0.8;" x="351.195437" xlink:href="#mce9ddaa874" y="320.4"/>
      </g>
     </g>
     <g id="text_6">
      <!-- 12.5 -->
      <g transform="translate(335.609499 338.037813)scale(0.14 -0.14)">
       <use xlink:href="#DejaVuSans-31"/>
       <use x="63.623047" xlink:href="#DejaVuSans-32"/>
       <use x="127.246094" xlink:href="#DejaVuSans-2e"/>
       <use x="159.033203" xlink:href="#DejaVuSans-35"/>
      </g>
     </g>
    </g>
    <g id="xtick_7">
     <g id="line2d_7">
      <g>
       <use style="stroke:#000000;stroke-width:0.8;" x="407.034524" xlink:href="#mce9ddaa874" y="320.4"/>
      </g>
     </g>
     <g id="text_7">
      <!-- 15.0 -->
      <g transform="translate(391.448587 338.037813)scale(0.14 -0.14)">
       <use xlink:href="#DejaVuSans-31"/>
       <use x="63.623047" xlink:href="#DejaVuSans-35"/>
       <use x="127.246094" xlink:href="#DejaVuSans-2e"/>
       <use x="159.033203" xlink:href="#DejaVuSans-30"/>
      </g>
     </g>
    </g>
    <g id="xtick_8">
     <g id="line2d_8">
      <g>
       <use style="stroke:#000000;stroke-width:0.8;" x="462.873612" xlink:href="#mce9ddaa874" y="320.4"/>
      </g>
     </g>
     <g id="text_8">
      <!-- 17.5 -->
      <g transform="translate(447.287674 338.037813)scale(0.14 -0.14)">
       <use xlink:href="#DejaVuSans-31"/>
       <use x="63.623047" xlink:href="#DejaVuSans-37"/>
       <use x="127.246094" xlink:href="#DejaVuSans-2e"/>
       <use x="159.033203" xlink:href="#DejaVuSans-35"/>
      </g>
     </g>
    </g>
    <g id="text_9">
     <!-- Time [Seconds] -->
     <g transform="translate(233.23 357.106875)scale(0.16 -0.16)">
      <defs>
       <path d="M -19 4666 
L 3928 4666 
L 3928 4134 
L 2272 4134 
L 2272 0 
L 1638 0 
L 1638 4134 
L -19 4134 
L -19 4666 
z
" id="DejaVuSans-54" transform="scale(0.015625)"/>
       <path d="M 603 3500 
L 1178 3500 
L 1178 0 
L 603 0 
L 603 3500 
z
M 603 4863 
L 1178 4863 
L 1178 4134 
L 603 4134 
L 603 4863 
z
" id="DejaVuSans-69" transform="scale(0.015625)"/>
       <path d="M 3328 2828 
Q 3544 3216 3844 3400 
Q 4144 3584 4550 3584 
Q 5097 3584 5394 3201 
Q 5691 2819 5691 2113 
L 5691 0 
L 5113 0 
L 5113 2094 
Q 5113 2597 4934 2840 
Q 4756 3084 4391 3084 
Q 3944 3084 3684 2787 
Q 3425 2491 3425 1978 
L 3425 0 
L 2847 0 
L 2847 2094 
Q 2847 2600 2669 2842 
Q 2491 3084 2119 3084 
Q 1678 3084 1418 2786 
Q 1159 2488 1159 1978 
L 1159 0 
L 581 0 
L 581 3500 
L 1159 3500 
L 1159 2956 
Q 1356 3278 1631 3431 
Q 1906 3584 2284 3584 
Q 2666 3584 2933 3390 
Q 3200 3197 3328 2828 
z
" id="DejaVuSans-6d" transform="scale(0.015625)"/>
       <path d="M 3597 1894 
L 3597 1613 
L 953 1613 
Q 991 1019 1311 708 
Q 1631 397 2203 397 
Q 2534 397 2845 478 
Q 3156 559 3463 722 
L 3463 178 
Q 3153 47 2828 -22 
Q 2503 -91 2169 -91 
Q 1331 -91 842 396 
Q 353 884 353 1716 
Q 353 2575 817 3079 
Q 1281 3584 2069 3584 
Q 2775 3584 3186 3129 
Q 3597 2675 3597 1894 
z
M 3022 2063 
Q 3016 2534 2758 2815 
Q 2500 3097 2075 3097 
Q 1594 3097 1305 2825 
Q 1016 2553 972 2059 
L 3022 2063 
z
" id="DejaVuSans-65" transform="scale(0.015625)"/>
       <path id="DejaVuSans-20" transform="scale(0.015625)"/>
       <path d="M 550 4863 
L 1875 4863 
L 1875 4416 
L 1125 4416 
L 1125 -397 
L 1875 -397 
L 1875 -844 
L 550 -844 
L 550 4863 
z
" id="DejaVuSans-5b" transform="scale(0.015625)"/>
       <path d="M 3425 4513 
L 3425 3897 
Q 3066 4069 2747 4153 
Q 2428 4238 2131 4238 
Q 1616 4238 1336 4038 
Q 1056 3838 1056 3469 
Q 1056 3159 1242 3001 
Q 1428 2844 1947 2747 
L 2328 2669 
Q 3034 2534 3370 2195 
Q 3706 1856 3706 1288 
Q 3706 609 3251 259 
Q 2797 -91 1919 -91 
Q 1588 -91 1214 -16 
Q 841 59 441 206 
L 441 856 
Q 825 641 1194 531 
Q 1563 422 1919 422 
Q 2459 422 2753 634 
Q 3047 847 3047 1241 
Q 3047 1584 2836 1778 
Q 2625 1972 2144 2069 
L 1759 2144 
Q 1053 2284 737 2584 
Q 422 2884 422 3419 
Q 422 4038 858 4394 
Q 1294 4750 2059 4750 
Q 2388 4750 2728 4690 
Q 3069 4631 3425 4513 
z
" id="DejaVuSans-53" transform="scale(0.015625)"/>
       <path d="M 3122 3366 
L 3122 2828 
Q 2878 2963 2633 3030 
Q 2388 3097 2138 3097 
Q 1578 3097 1268 2742 
Q 959 2388 959 1747 
Q 959 1106 1268 751 
Q 1578 397 2138 397 
Q 2388 397 2633 464 
Q 2878 531 3122 666 
L 3122 134 
Q 2881 22 2623 -34 
Q 2366 -91 2075 -91 
Q 1284 -91 818 406 
Q 353 903 353 1747 
Q 353 2603 823 3093 
Q 1294 3584 2113 3584 
Q 2378 3584 2631 3529 
Q 2884 3475 3122 3366 
z
" id="DejaVuSans-63" transform="scale(0.015625)"/>
       <path d="M 1959 3097 
Q 1497 3097 1228 2736 
Q 959 2375 959 1747 
Q 959 1119 1226 758 
Q 1494 397 1959 397 
Q 2419 397 2687 759 
Q 2956 1122 2956 1747 
Q 2956 2369 2687 2733 
Q 2419 3097 1959 3097 
z
M 1959 3584 
Q 2709 3584 3137 3096 
Q 3566 2609 3566 1747 
Q 3566 888 3137 398 
Q 2709 -91 1959 -91 
Q 1206 -91 779 398 
Q 353 888 353 1747 
Q 353 2609 779 3096 
Q 1206 3584 1959 3584 
z
" id="DejaVuSans-6f" transform="scale(0.015625)"/>
       <path d="M 3513 2113 
L 3513 0 
L 2938 0 
L 2938 2094 
Q 2938 2591 2744 2837 
Q 2550 3084 2163 3084 
Q 1697 3084 1428 2787 
Q 1159 2491 1159 1978 
L 1159 0 
L 581 0 
L 581 3500 
L 1159 3500 
L 1159 2956 
Q 1366 3272 1645 3428 
Q 1925 3584 2291 3584 
Q 2894 3584 3203 3211 
Q 3513 2838 3513 2113 
z
" id="DejaVuSans-6e" transform="scale(0.015625)"/>
       <path d="M 2906 2969 
L 2906 4863 
L 3481 4863 
L 3481 0 
L 2906 0 
L 2906 525 
Q 2725 213 2448 61 
Q 2172 -91 1784 -91 
Q 1150 -91 751 415 
Q 353 922 353 1747 
Q 353 2572 751 3078 
Q 1150 3584 1784 3584 
Q 2172 3584 2448 3432 
Q 2725 3281 2906 2969 
z
M 947 1747 
Q 947 1113 1208 752 
Q 1469 391 1925 391 
Q 2381 391 2643 752 
Q 2906 1113 2906 1747 
Q 2906 2381 2643 2742 
Q 2381 3103 1925 3103 
Q 1469 3103 1208 2742 
Q 947 2381 947 1747 
z
" id="DejaVuSans-64" transform="scale(0.015625)"/>
       <path d="M 2834 3397 
L 2834 2853 
Q 2591 2978 2328 3040 
Q 2066 3103 1784 3103 
Q 1356 3103 1142 2972 
Q 928 2841 928 2578 
Q 928 2378 1081 2264 
Q 1234 2150 1697 2047 
L 1894 2003 
Q 2506 1872 2764 1633 
Q 3022 1394 3022 966 
Q 3022 478 2636 193 
Q 2250 -91 1575 -91 
Q 1294 -91 989 -36 
Q 684 19 347 128 
L 347 722 
Q 666 556 975 473 
Q 1284 391 1588 391 
Q 1994 391 2212 530 
Q 2431 669 2431 922 
Q 2431 1156 2273 1281 
Q 2116 1406 1581 1522 
L 1381 1569 
Q 847 1681 609 1914 
Q 372 2147 372 2553 
Q 372 3047 722 3315 
Q 1072 3584 1716 3584 
Q 2034 3584 2315 3537 
Q 2597 3491 2834 3397 
z
" id="DejaVuSans-73" transform="scale(0.015625)"/>
       <path d="M 1947 4863 
L 1947 -844 
L 622 -844 
L 622 -397 
L 1369 -397 
L 1369 4416 
L 622 4416 
L 622 4863 
L 1947 4863 
z
" id="DejaVuSans-5d" transform="scale(0.015625)"/>
      </defs>
      <use xlink:href="#DejaVuSans-54"/>
      <use x="57.958984" xlink:href="#DejaVuSans-69"/>
      <use x="85.742188" xlink:href="#DejaVuSans-6d"/>
      <use x="183.154297" xlink:href="#DejaVuSans-65"/>
      <use x="244.677734" xlink:href="#DejaVuSans-20"/>
      <use x="276.464844" xlink:href="#DejaVuSans-5b"/>
      <use x="315.478516" xlink:href="#DejaVuSans-53"/>
      <use x="378.955078" xlink:href="#DejaVuSans-65"/>
      <use x="440.478516" xlink:href="#DejaVuSans-63"/>
      <use x="495.458984" xlink:href="#DejaVuSans-6f"/>
      <use x="556.640625" xlink:href="#DejaVuSans-6e"/>
      <use x="620.019531" xlink:href="#DejaVuSans-64"/>
      <use x="683.496094" xlink:href="#DejaVuSans-73"/>
      <use x="735.595703" xlink:href="#DejaVuSans-5d"/>
     </g>
    </g>
   </g>
   <g id="matplotlib.axis_2">
    <g id="ytick_1">
     <g id="line2d_9">
      <defs>
       <path d="M 0 0 
L -3.5 0 
" id="me58f41198d" style="stroke:#000000;stroke-width:0.8;"/>
      </defs>
      <g>
       <use style="stroke:#000000;stroke-width:0.8;" x="72" xlink:href="#me58f41198d" y="280.175096"/>
      </g>
     </g>
     <g id="text_10">
      <!-- 0.0 -->
      <g transform="translate(42.735625 285.494003)scale(0.14 -0.14)">
       <use xlink:href="#DejaVuSans-30"/>
       <use x="63.623047" xlink:href="#DejaVuSans-2e"/>
       <use x="95.410156" xlink:href="#DejaVuSans-30"/>
      </g>
     </g>
    </g>
    <g id="ytick_2">
     <g id="line2d_10">
      <g>
       <use style="stroke:#000000;stroke-width:0.8;" x="72" xlink:href="#me58f41198d" y="225.819675"/>
      </g>
     </g>
     <g id="text_11">
      <!-- 0.5 -->
      <g transform="translate(42.735625 231.138581)scale(0.14 -0.14)">
       <use xlink:href="#DejaVuSans-30"/>
       <use x="63.623047" xlink:href="#DejaVuSans-2e"/>
       <use x="95.410156" xlink:href="#DejaVuSans-35"/>
      </g>
     </g>
    </g>
    <g id="ytick_3">
     <g id="line2d_11">
      <g>
       <use style="stroke:#000000;stroke-width:0.8;" x="72" xlink:href="#me58f41198d" y="171.464253"/>
      </g>
     </g>
     <g id="text_12">
      <!-- 1.0 -->
      <g transform="translate(42.735625 176.783159)scale(0.14 -0.14)">
       <use xlink:href="#DejaVuSans-31"/>
       <use x="63.623047" xlink:href="#DejaVuSans-2e"/>
       <use x="95.410156" xlink:href="#DejaVuSans-30"/>
      </g>
     </g>
    </g>
    <g id="ytick_4">
     <g id="line2d_12">
      <g>
       <use style="stroke:#000000;stroke-width:0.8;" x="72" xlink:href="#me58f41198d" y="117.108831"/>
      </g>
     </g>
     <g id="text_13">
      <!-- 1.5 -->
      <g transform="translate(42.735625 122.427737)scale(0.14 -0.14)">
       <use xlink:href="#DejaVuSans-31"/>
       <use x="63.623047" xlink:href="#DejaVuSans-2e"/>
       <use x="95.410156" xlink:href="#DejaVuSans-35"/>
      </g>
     </g>
    </g>
    <g id="ytick_5">
     <g id="line2d_13">
      <g>
       <use style="stroke:#000000;stroke-width:0.8;" x="72" xlink:href="#me58f41198d" y="62.753409"/>
      </g>
     </g>
     <g id="text_14">
      <!-- 2.0 -->
      <g transform="translate(42.735625 68.072315)scale(0.14 -0.14)">
       <use xlink:href="#DejaVuSans-32"/>
       <use x="63.623047" xlink:href="#DejaVuSans-2e"/>
       <use x="95.410156" xlink:href="#DejaVuSans-30"/>
      </g>
     </g>
    </g>
    <g id="text_15">
     <!-- Speed [mm/s] -->
     <g transform="translate(35.408125 238.11375)rotate(-90)scale(0.16 -0.16)">
      <defs>
       <path d="M 1159 525 
L 1159 -1331 
L 581 -1331 
L 581 3500 
L 1159 3500 
L 1159 2969 
Q 1341 3281 1617 3432 
Q 1894 3584 2278 3584 
Q 2916 3584 3314 3078 
Q 3713 2572 3713 1747 
Q 3713 922 3314 415 
Q 2916 -91 2278 -91 
Q 1894 -91 1617 61 
Q 1341 213 1159 525 
z
M 3116 1747 
Q 3116 2381 2855 2742 
Q 2594 3103 2138 3103 
Q 1681 3103 1420 2742 
Q 1159 2381 1159 1747 
Q 1159 1113 1420 752 
Q 1681 391 2138 391 
Q 2594 391 2855 752 
Q 3116 1113 3116 1747 
z
" id="DejaVuSans-70" transform="scale(0.015625)"/>
       <path d="M 1625 4666 
L 2156 4666 
L 531 -594 
L 0 -594 
L 1625 4666 
z
" id="DejaVuSans-2f" transform="scale(0.015625)"/>
      </defs>
      <use xlink:href="#DejaVuSans-53"/>
      <use x="63.476562" xlink:href="#DejaVuSans-70"/>
      <use x="126.953125" xlink:href="#DejaVuSans-65"/>
      <use x="188.476562" xlink:href="#DejaVuSans-65"/>
      <use x="250" xlink:href="#DejaVuSans-64"/>
      <use x="313.476562" xlink:href="#DejaVuSans-20"/>
      <use x="345.263672" xlink:href="#DejaVuSans-5b"/>
      <use x="384.277344" xlink:href="#DejaVuSans-6d"/>
      <use x="481.689453" xlink:href="#DejaVuSans-6d"/>
      <use x="579.101562" xlink:href="#DejaVuSans-2f"/>
      <use x="612.792969" xlink:href="#DejaVuSans-73"/>
      <use x="664.892578" xlink:href="#DejaVuSans-5d"/>
     </g>
    </g>
   </g>
   <g id="line2d_14">
    <path clip-path="url(#p6086b5ad3d)" d="M 72 200.115172 
L 518.4 200.115172 
" style="fill:none;stroke:#000000;stroke-dasharray:5.55,2.4;stroke-dashoffset:0;stroke-width:1.5;"/>
   </g>
   <g id="line2d_15">
    <path clip-path="url(#p6086b5ad3d)" d="M 72 279.120334 
L 128.4975 279.01398 
L 129.195 279.581339 
L 130.59 275.158136 
L 131.2875 279.952916 
L 131.985 281.366135 
L 132.6825 279.362439 
L 133.38 279.032677 
L 134.0775 285.680841 
L 134.775 267.828069 
L 135.4725 263.387587 
L 136.17 282.91462 
L 136.8675 293.750418 
L 137.565 307.8 
L 138.2625 306.688494 
L 138.96 296.962931 
L 139.6575 279.366781 
L 140.355 255.798207 
L 141.75 199.230778 
L 143.145 140.082557 
L 144.54 93.716368 
L 145.2375 76.049021 
L 145.935 64.499733 
L 146.6325 57.512347 
L 147.33 55.8 
L 148.0275 59.929945 
L 148.725 70.19303 
L 150.12 99.242797 
L 152.2125 156.356118 
L 152.91 181.15251 
L 153.6075 193.165244 
L 154.305 200.417951 
L 155.0025 202.591409 
L 155.7 197.015826 
L 156.3975 170.772874 
L 157.095 167.665527 
L 157.7925 178.884724 
L 158.49 179.264493 
L 159.1875 189.689956 
L 159.885 190.96958 
L 160.5825 192.823772 
L 161.28 194.077867 
L 161.9775 194.946856 
L 162.675 194.396709 
L 164.07 195.337564 
L 164.7675 193.825088 
L 165.465 194.495375 
L 166.86 193.141795 
L 167.5575 195.605579 
L 168.255 195.489038 
L 168.9525 195.218709 
L 169.65 196.719019 
L 170.3475 198.932657 
L 171.045 199.336454 
L 171.7425 195.948877 
L 172.44 196.555037 
L 173.1375 196.805853 
L 173.835 196.043879 
L 174.5325 196.669461 
L 175.23 195.824774 
L 175.9275 197.205199 
L 176.625 196.38135 
L 177.3225 195.784044 
L 178.02 197.987389 
L 179.415 196.617737 
L 180.1125 197.588357 
L 180.81 199.751228 
L 181.5075 200.269691 
L 182.205 199.513717 
L 182.9025 199.421942 
L 183.6 199.45172 
L 184.2975 199.238592 
L 184.995 200.319829 
L 185.6925 200.554739 
L 186.39 199.78575 
L 187.0875 200.652968 
L 187.785 200.004486 
L 188.4825 200.091698 
L 189.18 201.69178 
L 189.8775 200.997476 
L 190.575 199.842969 
L 191.2725 199.951415 
L 191.97 199.457929 
L 192.6675 199.110378 
L 193.365 198.909445 
L 194.0625 199.572862 
L 195.4575 196.818379 
L 196.155 199.004474 
L 196.8525 200.177295 
L 197.55 200.371967 
L 198.2475 200.113212 
L 198.945 199.469517 
L 199.6425 199.562544 
L 200.34 199.493016 
L 201.0375 199.088562 
L 201.735 200.680665 
L 202.4325 203.051708 
L 203.13 203.011332 
L 203.8275 201.684763 
L 204.525 201.341958 
L 205.2225 202.606514 
L 205.92 202.505892 
L 206.6175 200.077231 
L 207.315 198.800729 
L 208.0125 199.965124 
L 208.71 200.464087 
L 209.4075 201.145091 
L 210.105 200.998237 
L 210.8025 200.647459 
L 211.5 201.307181 
L 212.895 198.754377 
L 213.5925 198.392374 
L 214.29 198.685415 
L 214.9875 200.211803 
L 215.685 199.877448 
L 216.3825 197.226627 
L 217.08 197.642651 
L 217.7775 200.490465 
L 218.475 200.420161 
L 219.1725 198.825956 
L 219.87 198.805832 
L 220.5675 200.503228 
L 221.265 201.020316 
L 221.9625 200.638113 
L 222.66 199.092988 
L 223.3575 200.373672 
L 224.055 202.812022 
L 224.7525 201.709821 
L 225.45 200.894515 
L 226.1475 201.208793 
L 226.845 202.592676 
L 227.5425 202.485623 
L 228.24 201.009596 
L 228.9375 200.598639 
L 229.635 201.800123 
L 230.3325 202.466954 
L 231.03 202.750271 
L 231.7275 201.0021 
L 232.425 200.844036 
L 233.1225 202.505243 
L 233.82 200.407584 
L 234.5175 199.852423 
L 235.215 201.791028 
L 235.9125 202.369682 
L 237.3075 200.546746 
L 238.005 200.121 
L 238.7025 200.053831 
L 239.4 200.809439 
L 240.0975 200.388776 
L 240.795 199.464457 
L 241.4925 200.212053 
L 242.19 200.005031 
L 242.8875 199.144169 
L 244.2825 198.803059 
L 244.98 200.048578 
L 245.6775 200.712866 
L 246.375 200.025938 
L 247.0725 199.835518 
L 247.77 199.283311 
L 249.165 201.036837 
L 249.8625 200.226024 
L 250.56 199.194487 
L 251.2575 199.369913 
L 251.955 199.322638 
L 252.6525 200.001541 
L 253.35 200.249332 
L 254.0475 200.344007 
L 254.745 200.248157 
L 255.4425 199.943945 
L 256.14 201.559915 
L 256.8375 202.156925 
L 257.535 201.981051 
L 258.2325 201.0175 
L 259.6275 201.788553 
L 260.325 200.918352 
L 261.72 203.696692 
L 263.115 201.776284 
L 263.8125 200.509672 
L 265.2075 202.207101 
L 265.905 200.266172 
L 266.6025 200.065214 
L 267.3 200.376092 
L 267.9975 198.981629 
L 268.695 198.906491 
L 269.3925 200.405652 
L 270.09 200.883731 
L 270.7875 201.030582 
L 271.485 199.880007 
L 272.88 199.416066 
L 273.5775 198.812883 
L 274.275 201.231789 
L 274.9725 202.093423 
L 275.67 200.398441 
L 276.3675 199.893863 
L 277.065 202.058052 
L 277.7625 202.950128 
L 278.46 201.482352 
L 279.1575 201.406972 
L 279.855 201.182881 
L 280.5525 200.375686 
L 281.25 198.660705 
L 281.9475 199.710091 
L 282.645 201.786183 
L 284.04 199.161569 
L 284.7375 199.447753 
L 285.435 200.756361 
L 286.1325 200.914615 
L 287.5275 200.770533 
L 288.225 201.802799 
L 288.9225 202.588724 
L 289.62 202.111485 
L 290.3175 202.008906 
L 291.015 201.778064 
L 291.7125 201.245528 
L 292.41 200.956597 
L 293.1075 200.214066 
L 293.805 200.188644 
L 295.2 198.80892 
L 295.8975 200.261583 
L 296.595 199.724489 
L 297.2925 196.909585 
L 297.99 196.764127 
L 298.6875 198.882766 
L 299.385 200.188923 
L 300.0825 200.082075 
L 300.78 199.852067 
L 301.4775 199.181795 
L 302.175 198.867877 
L 302.8725 199.597189 
L 303.57 201.485646 
L 304.2675 202.49097 
L 304.965 201.930592 
L 305.6625 203.020125 
L 306.36 202.589694 
L 307.0575 200.867894 
L 307.755 200.161858 
L 308.4525 200.603454 
L 309.15 200.509949 
L 309.8475 199.81159 
L 310.545 200.408204 
L 311.2425 201.69062 
L 312.6375 199.888847 
L 313.335 199.612756 
L 314.0325 199.490589 
L 314.73 200.515631 
L 315.4275 201.336348 
L 316.125 201.896736 
L 316.8225 203.130488 
L 317.52 203.686834 
L 318.2175 201.719175 
L 318.915 200.189815 
L 319.6125 200.058106 
L 320.31 200.351806 
L 321.0075 201.332652 
L 321.705 201.687048 
L 323.1 200.306175 
L 323.7975 200.024916 
L 324.495 200.172948 
L 325.1925 199.035039 
L 325.89 198.957398 
L 327.285 201.829525 
L 327.9825 201.605533 
L 328.68 200.436165 
L 329.3775 202.167139 
L 330.075 202.581821 
L 330.7725 199.890337 
L 331.47 198.949377 
L 332.1675 200.089799 
L 332.865 201.765008 
L 333.5625 201.272486 
L 334.26 199.370521 
L 334.9575 199.353928 
L 335.655 199.696595 
L 336.3525 199.825338 
L 337.05 199.136668 
L 337.7475 199.031679 
L 338.445 201.184492 
L 339.1425 201.42735 
L 339.84 200.819256 
L 340.5375 200.924924 
L 341.9325 199.095356 
L 342.63 199.773589 
L 343.3275 201.454767 
L 344.025 202.047011 
L 344.7225 203.467313 
L 345.42 202.87968 
L 346.1175 202.009331 
L 348.21 200.142963 
L 348.9075 199.724163 
L 350.3025 200.777178 
L 351 202.122919 
L 351.6975 201.313305 
L 352.395 199.05465 
L 354.4875 199.109955 
L 355.185 200.084619 
L 355.8825 200.572286 
L 356.58 202.592938 
L 357.2775 202.370744 
L 358.6725 201.324007 
L 359.37 200.571641 
L 360.0675 200.740202 
L 360.765 200.241319 
L 361.4625 201.160445 
L 362.16 201.188499 
L 362.8575 200.506124 
L 364.2525 200.019331 
L 364.95 200.051824 
L 365.6475 199.006892 
L 366.345 199.161257 
L 367.0425 200.712753 
L 367.74 201.291453 
L 368.4375 200.980637 
L 369.135 200.263985 
L 369.8325 199.119827 
L 371.2275 200.198691 
L 371.925 200.958872 
L 372.6225 202.462976 
L 373.32 202.285252 
L 374.715 202.681148 
L 375.4125 201.205154 
L 376.11 200.430354 
L 376.8075 200.393741 
L 377.505 199.781968 
L 378.2025 200.292312 
L 379.5975 202.649576 
L 380.295 201.517805 
L 380.9925 199.953899 
L 381.69 198.912878 
L 382.3875 198.077375 
L 383.7825 199.932848 
L 384.48 201.935596 
L 385.1775 202.887115 
L 385.875 201.659083 
L 386.5725 201.116663 
L 387.27 199.925955 
L 387.9675 200.361465 
L 388.665 201.466969 
L 389.3625 201.180247 
L 390.06 201.656235 
L 390.7575 200.942783 
L 391.455 200.574442 
L 392.1525 201.557526 
L 392.85 200.127174 
L 393.5475 199.246528 
L 394.245 200.784091 
L 395.64 201.588839 
L 396.3375 202.309742 
L 397.035 202.179039 
L 397.7325 201.629096 
L 398.43 200.197977 
L 399.1275 199.438747 
L 399.825 198.919377 
L 400.5225 199.871894 
L 401.22 201.198512 
L 402.615 199.309618 
L 403.3125 199.0499 
L 404.01 198.230453 
L 404.7075 198.514051 
L 405.405 199.68994 
L 406.1025 201.59004 
L 406.8 201.01488 
L 407.4975 201.23967 
L 408.195 202.999322 
L 408.8925 202.079046 
L 409.59 202.049632 
L 410.2875 201.562304 
L 411.6825 202.034784 
L 412.38 200.269401 
L 413.0775 200.756478 
L 413.775 203.181458 
L 415.17 199.818088 
L 415.8675 201.131076 
L 416.565 200.898744 
L 417.2625 200.524626 
L 417.96 201.147695 
L 418.6575 201.966333 
L 419.355 201.541005 
L 420.0525 199.664901 
L 421.4475 197.619655 
L 422.145 197.610791 
L 422.8425 199.071514 
L 423.54 199.2811 
L 424.2375 198.438181 
L 424.935 198.817188 
L 425.6325 200.552275 
L 426.33 201.345717 
L 427.0275 200.415675 
L 427.725 200.490931 
L 428.4225 201.873041 
L 429.12 202.504299 
L 429.8175 202.508145 
L 430.515 202.224346 
L 431.2125 203.046578 
L 431.91 203.139956 
L 432.6075 201.567151 
L 433.305 200.484545 
L 434.0025 199.048197 
L 434.7 198.752084 
L 435.3975 199.770944 
L 436.095 198.367566 
L 436.7925 197.814403 
L 437.49 199.143782 
L 438.1875 198.809739 
L 438.885 199.498934 
L 439.5825 201.51903 
L 440.28 202.870059 
L 440.9775 203.551981 
L 441.675 203.799502 
L 442.3725 202.660314 
L 443.07 202.228453 
L 443.7675 202.121865 
L 444.465 200.802814 
L 445.1625 200.867204 
L 445.86 200.034276 
L 446.5575 198.860201 
L 447.255 199.975899 
L 447.9525 200.316141 
L 448.65 198.861685 
L 449.3475 199.250055 
L 450.045 200.752242 
L 450.7425 199.362227 
L 451.44 199.679709 
L 452.1375 201.061579 
L 452.835 200.477426 
L 453.5325 200.46662 
L 454.9275 199.906764 
L 457.02 200.020081 
L 457.7175 200.401495 
L 458.415 199.586602 
L 459.1125 199.453055 
L 459.81 199.750858 
L 460.5075 200.633962 
L 461.205 202.135865 
L 461.9025 202.551018 
L 463.2975 204.260532 
L 464.6925 201.858311 
L 465.39 201.83115 
L 466.0875 200.442376 
L 466.785 200.181646 
L 467.4825 199.525277 
L 468.18 197.585389 
L 468.8775 197.800959 
L 469.575 198.313829 
L 470.2725 198.509085 
L 470.97 198.294907 
L 471.6675 198.997828 
L 473.0625 202.74914 
L 473.76 203.904225 
L 474.4575 202.098211 
L 475.155 202.166059 
L 475.8525 203.917555 
L 477.2475 202.030563 
L 477.945 202.813609 
L 478.6425 201.987471 
L 479.34 200.41784 
L 480.0375 197.80344 
L 480.735 197.122779 
L 481.4325 198.456454 
L 482.13 198.440484 
L 482.8275 198.916326 
L 483.525 199.204233 
L 484.2225 199.806582 
L 484.92 200.916755 
L 485.6175 200.80724 
L 486.315 200.144843 
L 488.4075 201.367246 
L 489.105 200.115941 
L 489.8025 199.888686 
L 490.5 200.89821 
L 491.1975 199.089071 
L 491.895 198.575344 
L 492.5925 198.640809 
L 493.29 199.332966 
L 493.9875 200.785561 
L 495.3825 201.828927 
L 496.08 200.574422 
L 496.7775 201.086327 
L 497.475 202.317116 
L 498.1725 200.849756 
L 498.87 201.622062 
L 499.5675 203.304466 
L 501.66 198.647687 
L 503.055 198.613151 
L 503.7525 198.273011 
L 504.45 199.819832 
L 505.845 201.241405 
L 507.24 202.455918 
L 508.635 202.393193 
L 509.3325 202.177127 
L 510.7275 201.375039 
L 512.82 199.625038 
L 514.215 198.568007 
L 514.9125 198.240663 
L 515.61 198.140244 
L 516.3075 198.346012 
L 517.005 198.944953 
L 517.7025 200.031775 
L 518.4 201.708908 
L 518.4 201.708908 
" style="fill:none;stroke:#ff0000;stroke-linecap:square;stroke-width:2;"/>
   </g>
   <g id="patch_3">
    <path d="M 72 320.4 
L 72 43.2 
" style="fill:none;stroke:#000000;stroke-linecap:square;stroke-linejoin:miter;stroke-width:0.8;"/>
   </g>
   <g id="patch_4">
    <path d="M 518.4 320.4 
L 518.4 43.2 
" style="fill:none;stroke:#000000;stroke-linecap:square;stroke-linejoin:miter;stroke-width:0.8;"/>
   </g>
   <g id="patch_5">
    <path d="M 72 320.4 
L 518.4 320.4 
" style="fill:none;stroke:#000000;stroke-linecap:square;stroke-linejoin:miter;stroke-width:0.8;"/>
   </g>
   <g id="patch_6">
    <path d="M 72 43.2 
L 518.4 43.2 
" style="fill:none;stroke:#000000;stroke-linecap:square;stroke-linejoin:miter;stroke-width:0.8;"/>
   </g>
   <g id="text_16">
    <!-- Front Propogation Speed -->
    <g transform="translate(172.245312 37.2)scale(0.2 -0.2)">
     <defs>
      <path d="M 628 4666 
L 3309 4666 
L 3309 4134 
L 1259 4134 
L 1259 2759 
L 3109 2759 
L 3109 2228 
L 1259 2228 
L 1259 0 
L 628 0 
L 628 4666 
z
" id="DejaVuSans-46" transform="scale(0.015625)"/>
      <path d="M 2631 2963 
Q 2534 3019 2420 3045 
Q 2306 3072 2169 3072 
Q 1681 3072 1420 2755 
Q 1159 2438 1159 1844 
L 1159 0 
L 581 0 
L 581 3500 
L 1159 3500 
L 1159 2956 
Q 1341 3275 1631 3429 
Q 1922 3584 2338 3584 
Q 2397 3584 2469 3576 
Q 2541 3569 2628 3553 
L 2631 2963 
z
" id="DejaVuSans-72" transform="scale(0.015625)"/>
      <path d="M 1172 4494 
L 1172 3500 
L 2356 3500 
L 2356 3053 
L 1172 3053 
L 1172 1153 
Q 1172 725 1289 603 
Q 1406 481 1766 481 
L 2356 481 
L 2356 0 
L 1766 0 
Q 1100 0 847 248 
Q 594 497 594 1153 
L 594 3053 
L 172 3053 
L 172 3500 
L 594 3500 
L 594 4494 
L 1172 4494 
z
" id="DejaVuSans-74" transform="scale(0.015625)"/>
      <path d="M 1259 4147 
L 1259 2394 
L 2053 2394 
Q 2494 2394 2734 2622 
Q 2975 2850 2975 3272 
Q 2975 3691 2734 3919 
Q 2494 4147 2053 4147 
L 1259 4147 
z
M 628 4666 
L 2053 4666 
Q 2838 4666 3239 4311 
Q 3641 3956 3641 3272 
Q 3641 2581 3239 2228 
Q 2838 1875 2053 1875 
L 1259 1875 
L 1259 0 
L 628 0 
L 628 4666 
z
" id="DejaVuSans-50" transform="scale(0.015625)"/>
      <path d="M 2906 1791 
Q 2906 2416 2648 2759 
Q 2391 3103 1925 3103 
Q 1463 3103 1205 2759 
Q 947 2416 947 1791 
Q 947 1169 1205 825 
Q 1463 481 1925 481 
Q 2391 481 2648 825 
Q 2906 1169 2906 1791 
z
M 3481 434 
Q 3481 -459 3084 -895 
Q 2688 -1331 1869 -1331 
Q 1566 -1331 1297 -1286 
Q 1028 -1241 775 -1147 
L 775 -588 
Q 1028 -725 1275 -790 
Q 1522 -856 1778 -856 
Q 2344 -856 2625 -561 
Q 2906 -266 2906 331 
L 2906 616 
Q 2728 306 2450 153 
Q 2172 0 1784 0 
Q 1141 0 747 490 
Q 353 981 353 1791 
Q 353 2603 747 3093 
Q 1141 3584 1784 3584 
Q 2172 3584 2450 3431 
Q 2728 3278 2906 2969 
L 2906 3500 
L 3481 3500 
L 3481 434 
z
" id="DejaVuSans-67" transform="scale(0.015625)"/>
      <path d="M 2194 1759 
Q 1497 1759 1228 1600 
Q 959 1441 959 1056 
Q 959 750 1161 570 
Q 1363 391 1709 391 
Q 2188 391 2477 730 
Q 2766 1069 2766 1631 
L 2766 1759 
L 2194 1759 
z
M 3341 1997 
L 3341 0 
L 2766 0 
L 2766 531 
Q 2569 213 2275 61 
Q 1981 -91 1556 -91 
Q 1019 -91 701 211 
Q 384 513 384 1019 
Q 384 1609 779 1909 
Q 1175 2209 1959 2209 
L 2766 2209 
L 2766 2266 
Q 2766 2663 2505 2880 
Q 2244 3097 1772 3097 
Q 1472 3097 1187 3025 
Q 903 2953 641 2809 
L 641 3341 
Q 956 3463 1253 3523 
Q 1550 3584 1831 3584 
Q 2591 3584 2966 3190 
Q 3341 2797 3341 1997 
z
" id="DejaVuSans-61" transform="scale(0.015625)"/>
     </defs>
     <use xlink:href="#DejaVuSans-46"/>
     <use x="50.269531" xlink:href="#DejaVuSans-72"/>
     <use x="89.132812" xlink:href="#DejaVuSans-6f"/>
     <use x="150.314453" xlink:href="#DejaVuSans-6e"/>
     <use x="213.693359" xlink:href="#DejaVuSans-74"/>
     <use x="252.902344" xlink:href="#DejaVuSans-20"/>
     <use x="284.689453" xlink:href="#DejaVuSans-50"/>
     <use x="343.242188" xlink:href="#DejaVuSans-72"/>
     <use x="382.105469" xlink:href="#DejaVuSans-6f"/>
     <use x="443.287109" xlink:href="#DejaVuSans-70"/>
     <use x="506.763672" xlink:href="#DejaVuSans-6f"/>
     <use x="567.945312" xlink:href="#DejaVuSans-67"/>
     <use x="631.421875" xlink:href="#DejaVuSans-61"/>
     <use x="692.701172" xlink:href="#DejaVuSans-74"/>
     <use x="731.910156" xlink:href="#DejaVuSans-69"/>
     <use x="759.693359" xlink:href="#DejaVuSans-6f"/>
     <use x="820.875" xlink:href="#DejaVuSans-6e"/>
     <use x="884.253906" xlink:href="#DejaVuSans-20"/>
     <use x="916.041016" xlink:href="#DejaVuSans-53"/>
     <use x="979.517578" xlink:href="#DejaVuSans-70"/>
     <use x="1042.994141" xlink:href="#DejaVuSans-65"/>
     <use x="1104.517578" xlink:href="#DejaVuSans-65"/>
     <use x="1166.041016" xlink:href="#DejaVuSans-64"/>
    </g>
   </g>
   <g id="legend_1">
    <g id="patch_7">
     <path d="M 325.967812 111.175687 
L 508.6 111.175687 
Q 511.4 111.175687 511.4 108.375687 
L 511.4 53 
Q 511.4 50.2 508.6 50.2 
L 325.967812 50.2 
Q 323.167812 50.2 323.167812 53 
L 323.167812 108.375687 
Q 323.167812 111.175687 325.967812 111.175687 
z
" style="fill:#ffffff;opacity:0.8;stroke:#cccccc;stroke-linejoin:miter;"/>
    </g>
    <g id="line2d_16">
     <path d="M 328.767812 61.537812 
L 356.767812 61.537812 
" style="fill:none;stroke:#ff0000;stroke-linecap:square;stroke-width:2;"/>
    </g>
    <g id="line2d_17"/>
    <g id="text_17">
     <!-- Front speed -->
     <g transform="translate(367.967812 66.437812)scale(0.14 -0.14)">
      <use xlink:href="#DejaVuSans-46"/>
      <use x="50.269531" xlink:href="#DejaVuSans-72"/>
      <use x="89.132812" xlink:href="#DejaVuSans-6f"/>
      <use x="150.314453" xlink:href="#DejaVuSans-6e"/>
      <use x="213.693359" xlink:href="#DejaVuSans-74"/>
      <use x="252.902344" xlink:href="#DejaVuSans-20"/>
      <use x="284.689453" xlink:href="#DejaVuSans-73"/>
      <use x="336.789062" xlink:href="#DejaVuSans-70"/>
      <use x="400.265625" xlink:href="#DejaVuSans-65"/>
      <use x="461.789062" xlink:href="#DejaVuSans-65"/>
      <use x="523.3125" xlink:href="#DejaVuSans-64"/>
     </g>
    </g>
    <g id="line2d_18">
     <path d="M 328.767812 91.381437 
L 356.767812 91.381437 
" style="fill:none;stroke:#000000;stroke-dasharray:5.55,2.4;stroke-dashoffset:0;stroke-width:1.5;"/>
    </g>
    <g id="line2d_19"/>
    <g id="text_18">
     <!-- Steady state -->
     <g transform="translate(367.967812 86.987187)scale(0.14 -0.14)">
      <defs>
       <path d="M 2059 -325 
Q 1816 -950 1584 -1140 
Q 1353 -1331 966 -1331 
L 506 -1331 
L 506 -850 
L 844 -850 
Q 1081 -850 1212 -737 
Q 1344 -625 1503 -206 
L 1606 56 
L 191 3500 
L 800 3500 
L 1894 763 
L 2988 3500 
L 3597 3500 
L 2059 -325 
z
" id="DejaVuSans-79" transform="scale(0.015625)"/>
      </defs>
      <use xlink:href="#DejaVuSans-53"/>
      <use x="63.476562" xlink:href="#DejaVuSans-74"/>
      <use x="102.685547" xlink:href="#DejaVuSans-65"/>
      <use x="164.208984" xlink:href="#DejaVuSans-61"/>
      <use x="225.488281" xlink:href="#DejaVuSans-64"/>
      <use x="288.964844" xlink:href="#DejaVuSans-79"/>
      <use x="348.144531" xlink:href="#DejaVuSans-20"/>
      <use x="379.931641" xlink:href="#DejaVuSans-73"/>
      <use x="432.03125" xlink:href="#DejaVuSans-74"/>
      <use x="471.240234" xlink:href="#DejaVuSans-61"/>
      <use x="532.519531" xlink:href="#DejaVuSans-74"/>
      <use x="571.728516" xlink:href="#DejaVuSans-65"/>
     </g>
     <!-- speed = 0.74 mm/s -->
     <g transform="translate(367.967812 102.664125)scale(0.14 -0.14)">
      <defs>
       <path d="M 678 2906 
L 4684 2906 
L 4684 2381 
L 678 2381 
L 678 2906 
z
M 678 1631 
L 4684 1631 
L 4684 1100 
L 678 1100 
L 678 1631 
z
" id="DejaVuSans-3d" transform="scale(0.015625)"/>
       <path d="M 2419 4116 
L 825 1625 
L 2419 1625 
L 2419 4116 
z
M 2253 4666 
L 3047 4666 
L 3047 1625 
L 3713 1625 
L 3713 1100 
L 3047 1100 
L 3047 0 
L 2419 0 
L 2419 1100 
L 313 1100 
L 313 1709 
L 2253 4666 
z
" id="DejaVuSans-34" transform="scale(0.015625)"/>
      </defs>
      <use xlink:href="#DejaVuSans-73"/>
      <use x="52.099609" xlink:href="#DejaVuSans-70"/>
      <use x="115.576172" xlink:href="#DejaVuSans-65"/>
      <use x="177.099609" xlink:href="#DejaVuSans-65"/>
      <use x="238.623047" xlink:href="#DejaVuSans-64"/>
      <use x="302.099609" xlink:href="#DejaVuSans-20"/>
      <use x="333.886719" xlink:href="#DejaVuSans-3d"/>
      <use x="417.675781" xlink:href="#DejaVuSans-20"/>
      <use x="449.462891" xlink:href="#DejaVuSans-30"/>
      <use x="513.085938" xlink:href="#DejaVuSans-2e"/>
      <use x="544.873047" xlink:href="#DejaVuSans-37"/>
      <use x="608.496094" xlink:href="#DejaVuSans-34"/>
      <use x="672.119141" xlink:href="#DejaVuSans-20"/>
      <use x="703.90625" xlink:href="#DejaVuSans-6d"/>
      <use x="801.318359" xlink:href="#DejaVuSans-6d"/>
      <use x="898.730469" xlink:href="#DejaVuSans-2f"/>
      <use x="932.421875" xlink:href="#DejaVuSans-73"/>
     </g>
    </g>
   </g>
  </g>
 </g>
 <defs>
  <clipPath id="p6086b5ad3d">
   <rect height="277.2" width="446.4" x="72" y="43.2"/>
  </clipPath>
 </defs>
</svg>
