<?xml version="1.0" encoding="utf-8" standalone="no"?>
<!DOCTYPE svg PUBLIC "-//W3C//DTD SVG 1.1//EN"
  "http://www.w3.org/Graphics/SVG/1.1/DTD/svg11.dtd">
<svg height="360pt" version="1.1" viewBox="0 0 576 360" width="576pt" xmlns="http://www.w3.org/2000/svg" xmlns:xlink="http://www.w3.org/1999/xlink">
 <metadata>
  <rdf:RDF xmlns:cc="http://creativecommons.org/ns#" xmlns:dc="http://purl.org/dc/elements/1.1/" xmlns:rdf="http://www.w3.org/1999/02/22-rdf-syntax-ns#">
   <cc:Work>
    <dc:type rdf:resource="http://purl.org/dc/dcmitype/StillImage"/>
    <dc:date>2022-06-30T14:37:39.457352</dc:date>
    <dc:format>image/svg+xml</dc:format>
    <dc:creator>
     <cc:Agent>
      <dc:title>Matplotlib v3.4.3, https://matplotlib.org/</dc:title>
     </cc:Agent>
    </dc:creator>
   </cc:Work>
  </rdf:RDF>
 </metadata>
 <defs>
  <style type="text/css">*{stroke-linecap:butt;stroke-linejoin:round;}</style>
 </defs>
 <g id="figure_1">
  <g id="patch_1">
   <path d="M 0 360 
L 576 360 
L 576 0 
L 0 0 
z
" style="fill:#ffffff;"/>
  </g>
  <g id="axes_1">
   <g id="patch_2">
    <path d="M 72 320.4 
L 518.4 320.4 
L 518.4 43.2 
L 72 43.2 
z
" style="fill:#ffffff;"/>
   </g>
   <g id="PolyCollection_1">
    <defs>
     <path d="M 72 -165.391231 
L 72 -172.098928 
L 72.660355 -172.098928 
L 73.32071 -172.098928 
L 73.981065 -172.098928 
L 74.64142 -172.098928 
L 75.301775 -172.098928 
L 75.96213 -172.098928 
L 76.622485 -172.098928 
L 77.28284 -172.098928 
L 77.943195 -172.098928 
L 78.60355 -172.098928 
L 79.263905 -172.098928 
L 79.92426 -172.098928 
L 80.584615 -172.098928 
L 81.24497 -172.098928 
L 81.905325 -172.098928 
L 82.56568 -172.098928 
L 83.226036 -172.098928 
L 83.886391 -172.098928 
L 84.546746 -172.098928 
L 85.207101 -172.098928 
L 85.867456 -172.098928 
L 86.527811 -172.098928 
L 87.188166 -172.098928 
L 87.848521 -172.098928 
L 88.508876 -172.098928 
L 89.169231 -172.098928 
L 89.829586 -172.098928 
L 90.489941 -172.098928 
L 91.150296 -172.098928 
L 91.810651 -172.098928 
L 92.471006 -172.098928 
L 93.131361 -172.098928 
L 93.791716 -172.098928 
L 94.452071 -172.098928 
L 95.112426 -172.098928 
L 95.772781 -172.098928 
L 96.433136 -172.098928 
L 97.093491 -172.098928 
L 97.753846 -172.098928 
L 98.414201 -172.098928 
L 99.074556 -172.098928 
L 99.734911 -172.098928 
L 100.395266 -172.098928 
L 101.055621 -172.098928 
L 101.715976 -172.098928 
L 102.376331 -172.098928 
L 103.036686 -172.098928 
L 103.697041 -172.098928 
L 104.357396 -172.098928 
L 105.017751 -172.098928 
L 105.678107 -172.098928 
L 106.338462 -172.098928 
L 106.998817 -172.098928 
L 107.659172 -172.098928 
L 108.319527 -172.098928 
L 108.979882 -172.098928 
L 109.640237 -172.098928 
L 110.300592 -172.098928 
L 110.960947 -172.098928 
L 111.621302 -172.098928 
L 112.281657 -172.098928 
L 112.942012 -172.098928 
L 113.602367 -172.098928 
L 114.262722 -172.098928 
L 114.923077 -172.098928 
L 115.583432 -172.098928 
L 116.243787 -172.098928 
L 116.904142 -172.098928 
L 117.564497 -172.098928 
L 118.224852 -172.098928 
L 118.885207 -172.098928 
L 119.545562 -172.098928 
L 120.205917 -172.098928 
L 120.866272 -172.098928 
L 121.526627 -172.098928 
L 122.186982 -172.098928 
L 122.847337 -172.098928 
L 123.507692 -172.098928 
L 124.168047 -172.098928 
L 124.828402 -172.098928 
L 125.488757 -172.098928 
L 126.149112 -172.098928 
L 126.809467 -172.098928 
L 127.469822 -172.098928 
L 128.130178 -172.098928 
L 128.790533 -172.098928 
L 129.450888 -172.098928 
L 130.111243 -172.098928 
L 130.771598 -172.098928 
L 131.431953 -172.098928 
L 132.092308 -172.098928 
L 132.752663 -172.098928 
L 133.413018 -172.098928 
L 134.073373 -172.098928 
L 134.733728 -172.098928 
L 135.394083 -172.098928 
L 136.054438 -172.098928 
L 136.714793 -172.098928 
L 137.375148 -172.098928 
L 138.035503 -172.098928 
L 138.695858 -172.098928 
L 139.356213 -172.098928 
L 140.016568 -172.098928 
L 140.676923 -172.098928 
L 141.337278 -172.098928 
L 141.997633 -172.098928 
L 142.657988 -172.098928 
L 143.318343 -172.098928 
L 143.978698 -172.098928 
L 144.639053 -172.098928 
L 145.299408 -172.098928 
L 145.959763 -172.098928 
L 146.620118 -172.098928 
L 147.280473 -172.098928 
L 147.940828 -172.098928 
L 148.601183 -172.098928 
L 149.261538 -172.098928 
L 149.921893 -172.098928 
L 150.582249 -172.098928 
L 151.242604 -172.098928 
L 151.902959 -172.098928 
L 152.563314 -172.098928 
L 153.223669 -172.098928 
L 153.884024 -172.098928 
L 154.544379 -172.098928 
L 155.204734 -172.098928 
L 155.865089 -172.098928 
L 156.525444 -172.098928 
L 157.185799 -172.098928 
L 157.846154 -172.098928 
L 158.506509 -172.098928 
L 159.166864 -172.098928 
L 159.827219 -172.098928 
L 160.487574 -172.098928 
L 161.147929 -172.098928 
L 161.808284 -172.098928 
L 162.468639 -172.098928 
L 163.128994 -172.098928 
L 163.789349 -172.098928 
L 164.449704 -172.098928 
L 165.110059 -172.098928 
L 165.770414 -172.098928 
L 166.430769 -172.098928 
L 167.091124 -172.098928 
L 167.751479 -172.098928 
L 168.411834 -172.098928 
L 169.072189 -172.098928 
L 169.732544 -172.098928 
L 170.392899 -172.098928 
L 171.053254 -172.098928 
L 171.713609 -172.098928 
L 172.373964 -172.098928 
L 173.03432 -172.098928 
L 173.694675 -172.098928 
L 174.35503 -172.098928 
L 175.015385 -172.098928 
L 175.67574 -172.098928 
L 176.336095 -172.098928 
L 176.99645 -172.098928 
L 177.656805 -172.098928 
L 178.31716 -172.098928 
L 178.977515 -172.098928 
L 179.63787 -172.098928 
L 180.298225 -172.098928 
L 180.95858 -172.098928 
L 181.618935 -172.098928 
L 182.27929 -172.098928 
L 182.939645 -172.098928 
L 183.6 -172.098928 
L 184.260355 -172.098928 
L 184.92071 -172.098928 
L 185.581065 -172.098928 
L 186.24142 -172.098928 
L 186.901775 -172.098928 
L 187.56213 -172.098928 
L 188.222485 -172.098928 
L 188.88284 -172.098928 
L 189.543195 -172.098928 
L 190.20355 -172.098928 
L 190.863905 -172.098928 
L 191.52426 -172.098928 
L 192.184615 -172.098928 
L 192.84497 -172.098928 
L 193.505325 -172.098928 
L 194.16568 -172.098928 
L 194.826036 -172.098928 
L 195.486391 -172.098928 
L 196.146746 -172.098928 
L 196.807101 -172.098928 
L 197.467456 -172.098928 
L 198.127811 -172.098928 
L 198.788166 -172.098928 
L 199.448521 -172.098928 
L 200.108876 -172.098928 
L 200.769231 -172.098928 
L 201.429586 -172.098928 
L 202.089941 -172.098928 
L 202.750296 -172.098928 
L 203.410651 -172.098928 
L 204.071006 -172.098928 
L 204.731361 -172.098928 
L 205.391716 -172.098928 
L 206.052071 -172.098928 
L 206.712426 -172.098928 
L 207.372781 -172.098928 
L 208.033136 -172.098928 
L 208.693491 -172.098928 
L 209.353846 -172.098928 
L 210.014201 -172.098928 
L 210.674556 -172.098928 
L 211.334911 -172.098928 
L 211.995266 -172.098928 
L 212.655621 -172.098928 
L 213.315976 -172.098928 
L 213.976331 -172.098928 
L 214.636686 -172.098928 
L 215.297041 -172.098928 
L 215.957396 -172.098928 
L 216.617751 -172.098928 
L 217.278107 -172.098928 
L 217.938462 -172.098928 
L 218.598817 -172.098928 
L 219.259172 -172.098928 
L 219.919527 -172.098928 
L 220.579882 -172.098928 
L 221.240237 -172.098928 
L 221.900592 -172.098928 
L 222.560947 -172.098928 
L 223.221302 -172.098928 
L 223.881657 -172.098928 
L 224.542012 -172.098928 
L 225.202367 -172.098928 
L 225.862722 -172.098928 
L 226.523077 -172.098928 
L 227.183432 -172.098928 
L 227.843787 -172.098928 
L 228.504142 -172.098928 
L 229.164497 -172.098928 
L 229.824852 -172.098928 
L 230.485207 -172.098928 
L 231.145562 -172.098928 
L 231.805917 -172.098928 
L 232.466272 -172.098928 
L 233.126627 -172.098928 
L 233.786982 -172.098928 
L 234.447337 -172.098928 
L 235.107692 -172.098928 
L 235.768047 -172.098928 
L 236.428402 -172.098928 
L 237.088757 -172.098928 
L 237.749112 -172.098928 
L 238.409467 -172.098928 
L 239.069822 -172.098928 
L 239.730178 -172.098928 
L 240.390533 -172.098928 
L 241.050888 -172.098928 
L 241.711243 -172.098928 
L 242.371598 -172.098928 
L 243.031953 -172.098928 
L 243.692308 -172.098928 
L 244.352663 -172.098928 
L 245.013018 -172.098928 
L 245.673373 -172.098928 
L 246.333728 -172.098928 
L 246.994083 -172.098928 
L 247.654438 -172.098928 
L 248.314793 -172.098928 
L 248.975148 -172.098928 
L 249.635503 -172.098928 
L 250.295858 -172.098928 
L 250.956213 -172.098928 
L 251.616568 -172.098928 
L 252.276923 -172.098928 
L 252.937278 -172.098928 
L 253.597633 -172.098928 
L 254.257988 -172.098928 
L 254.918343 -172.098928 
L 255.578698 -172.098928 
L 256.239053 -172.098928 
L 256.899408 -172.098928 
L 257.559763 -172.098928 
L 258.220118 -172.098928 
L 258.880473 -172.098928 
L 259.540828 -172.098928 
L 260.201183 -172.098928 
L 260.861538 -172.098928 
L 261.521893 -172.098928 
L 262.182249 -172.098928 
L 262.842604 -172.098928 
L 263.502959 -172.098928 
L 264.163314 -172.098928 
L 264.823669 -172.098928 
L 265.484024 -172.098928 
L 266.144379 -172.098928 
L 266.804734 -172.098928 
L 267.465089 -172.098928 
L 268.125444 -172.098928 
L 268.785799 -172.098928 
L 269.446154 -172.098928 
L 270.106509 -172.098928 
L 270.766864 -172.098928 
L 271.427219 -172.098928 
L 272.087574 -172.098928 
L 272.747929 -172.098928 
L 273.408284 -172.098928 
L 274.068639 -172.098928 
L 274.728994 -172.098928 
L 275.389349 -172.098928 
L 276.049704 -172.098928 
L 276.710059 -172.098928 
L 277.370414 -172.098928 
L 278.030769 -172.098928 
L 278.691124 -172.098928 
L 279.351479 -172.098928 
L 280.011834 -172.098928 
L 280.672189 -172.098928 
L 281.332544 -172.098928 
L 281.992899 -172.098928 
L 282.653254 -172.098928 
L 283.313609 -172.098928 
L 283.973964 -172.098928 
L 284.63432 -172.098928 
L 285.294675 -172.098928 
L 285.95503 -172.098928 
L 286.615385 -172.098928 
L 287.27574 -172.098928 
L 287.936095 -172.098928 
L 288.59645 -172.098928 
L 289.256805 -172.098928 
L 289.91716 -172.098928 
L 290.577515 -172.098928 
L 291.23787 -172.098928 
L 291.898225 -172.098928 
L 292.55858 -172.098928 
L 293.218935 -172.098928 
L 293.87929 -172.098928 
L 294.539645 -172.098928 
L 295.2 -172.098928 
L 295.860355 -172.098928 
L 296.52071 -172.098928 
L 297.181065 -172.098928 
L 297.84142 -172.098928 
L 298.501775 -172.098928 
L 299.16213 -172.098928 
L 299.822485 -172.098928 
L 300.48284 -172.098928 
L 301.143195 -172.098928 
L 301.80355 -172.098928 
L 302.463905 -172.098928 
L 303.12426 -172.098928 
L 303.784615 -172.098928 
L 304.44497 -172.098928 
L 305.105325 -172.098928 
L 305.76568 -172.098928 
L 306.426036 -172.098928 
L 307.086391 -172.098928 
L 307.746746 -172.098928 
L 308.407101 -172.098928 
L 309.067456 -172.098928 
L 309.727811 -172.098928 
L 310.388166 -172.098928 
L 311.048521 -172.098928 
L 311.708876 -172.098928 
L 312.369231 -172.098928 
L 313.029586 -172.098928 
L 313.689941 -172.098928 
L 314.350296 -172.098928 
L 315.010651 -172.098928 
L 315.671006 -172.098928 
L 316.331361 -172.098928 
L 316.991716 -172.098928 
L 317.652071 -172.098928 
L 318.312426 -172.098928 
L 318.972781 -172.098928 
L 319.633136 -172.098928 
L 320.293491 -172.098928 
L 320.953846 -172.098928 
L 321.614201 -172.098928 
L 322.274556 -172.098928 
L 322.934911 -172.098928 
L 323.595266 -172.098928 
L 324.255621 -172.098928 
L 324.915976 -172.098928 
L 325.576331 -172.098928 
L 326.236686 -172.098928 
L 326.897041 -172.098928 
L 327.557396 -172.098928 
L 328.217751 -172.098928 
L 328.878107 -172.098928 
L 329.538462 -172.098928 
L 330.198817 -172.098928 
L 330.859172 -172.098928 
L 331.519527 -172.098928 
L 332.179882 -172.098928 
L 332.840237 -172.098928 
L 333.500592 -172.098928 
L 334.160947 -172.098928 
L 334.821302 -172.098928 
L 335.481657 -172.098928 
L 336.142012 -172.098928 
L 336.802367 -172.098928 
L 337.462722 -172.098928 
L 338.123077 -172.098928 
L 338.783432 -172.098928 
L 339.443787 -172.098928 
L 340.104142 -172.098928 
L 340.764497 -172.098928 
L 341.424852 -172.098928 
L 342.085207 -172.098928 
L 342.745562 -172.098928 
L 343.405917 -172.098928 
L 344.066272 -172.098928 
L 344.726627 -172.098928 
L 345.386982 -172.098928 
L 346.047337 -172.098928 
L 346.707692 -172.098928 
L 347.368047 -172.098928 
L 348.028402 -172.098928 
L 348.688757 -172.098928 
L 349.349112 -172.098928 
L 350.009467 -172.098928 
L 350.669822 -172.098928 
L 351.330178 -172.098928 
L 351.990533 -172.098928 
L 352.650888 -172.098928 
L 353.311243 -172.098928 
L 353.971598 -172.098928 
L 354.631953 -172.098928 
L 355.292308 -172.098928 
L 355.952663 -172.098928 
L 356.613018 -172.098928 
L 357.273373 -172.098928 
L 357.933728 -172.098928 
L 358.594083 -172.098928 
L 359.254438 -172.098928 
L 359.914793 -172.098928 
L 360.575148 -172.098928 
L 361.235503 -172.098928 
L 361.895858 -172.098928 
L 362.556213 -172.098928 
L 363.216568 -172.098928 
L 363.876923 -172.098928 
L 364.537278 -172.098928 
L 365.197633 -172.098928 
L 365.857988 -172.098928 
L 366.518343 -172.098928 
L 367.178698 -172.098928 
L 367.839053 -172.098928 
L 368.499408 -172.098928 
L 369.159763 -172.098928 
L 369.820118 -172.098928 
L 370.480473 -172.098928 
L 371.140828 -172.098928 
L 371.801183 -172.098928 
L 372.461538 -172.098928 
L 373.121893 -172.098928 
L 373.782249 -172.098928 
L 374.442604 -172.098928 
L 375.102959 -172.098928 
L 375.763314 -172.098928 
L 376.423669 -172.098928 
L 377.084024 -172.098928 
L 377.744379 -172.098928 
L 378.404734 -172.098928 
L 379.065089 -172.098928 
L 379.725444 -172.098928 
L 380.385799 -172.098928 
L 381.046154 -172.098928 
L 381.706509 -172.098928 
L 382.366864 -172.098928 
L 383.027219 -172.098928 
L 383.687574 -172.098928 
L 384.347929 -172.098928 
L 385.008284 -172.098928 
L 385.668639 -172.098928 
L 386.328994 -172.098928 
L 386.989349 -172.098928 
L 387.649704 -172.098928 
L 388.310059 -172.098928 
L 388.970414 -172.098928 
L 389.630769 -172.098928 
L 390.291124 -172.098928 
L 390.951479 -172.098928 
L 391.611834 -172.098928 
L 392.272189 -172.098928 
L 392.932544 -172.098928 
L 393.592899 -172.098928 
L 394.253254 -172.098928 
L 394.913609 -172.098928 
L 395.573964 -172.098928 
L 396.23432 -172.098928 
L 396.894675 -172.098928 
L 397.55503 -172.098928 
L 398.215385 -172.098928 
L 398.87574 -172.098928 
L 399.536095 -172.098928 
L 400.19645 -172.098928 
L 400.856805 -172.098928 
L 401.51716 -172.098928 
L 402.177515 -172.098928 
L 402.83787 -172.098928 
L 403.498225 -172.098928 
L 404.15858 -172.098928 
L 404.818935 -172.098928 
L 405.47929 -172.098928 
L 406.139645 -172.098928 
L 406.8 -172.098928 
L 407.460355 -172.098928 
L 408.12071 -172.098928 
L 408.781065 -172.098928 
L 409.44142 -172.098928 
L 410.101775 -172.098928 
L 410.76213 -172.098928 
L 411.422485 -172.098928 
L 412.08284 -172.098928 
L 412.743195 -172.098928 
L 413.40355 -172.098928 
L 414.063905 -172.098928 
L 414.72426 -172.098928 
L 415.384615 -172.098928 
L 416.04497 -172.098928 
L 416.705325 -172.098928 
L 417.36568 -172.098928 
L 418.026036 -172.098928 
L 418.686391 -172.098928 
L 419.346746 -172.098928 
L 420.007101 -172.098928 
L 420.667456 -172.098928 
L 421.327811 -172.098928 
L 421.988166 -172.098928 
L 422.648521 -172.098928 
L 423.308876 -172.098928 
L 423.969231 -172.098928 
L 424.629586 -172.098928 
L 425.289941 -172.098928 
L 425.950296 -172.098928 
L 426.610651 -172.098928 
L 427.271006 -172.098928 
L 427.931361 -172.098928 
L 428.591716 -172.098928 
L 429.252071 -172.098928 
L 429.912426 -172.098928 
L 430.572781 -172.098928 
L 431.233136 -172.098928 
L 431.893491 -172.098928 
L 432.553846 -172.098928 
L 433.214201 -172.098928 
L 433.874556 -172.098928 
L 434.534911 -172.098928 
L 435.195266 -172.098928 
L 435.855621 -172.098928 
L 436.515976 -172.098928 
L 437.176331 -172.098928 
L 437.836686 -172.098928 
L 438.497041 -172.098928 
L 439.157396 -172.098928 
L 439.817751 -172.098928 
L 440.478107 -172.098928 
L 441.138462 -172.098928 
L 441.798817 -172.098928 
L 442.459172 -172.098928 
L 443.119527 -172.098928 
L 443.779882 -172.098928 
L 444.440237 -172.098928 
L 445.100592 -172.098928 
L 445.760947 -172.098928 
L 446.421302 -172.098928 
L 447.081657 -172.098928 
L 447.742012 -172.098928 
L 448.402367 -172.098928 
L 449.062722 -172.098928 
L 449.723077 -172.098928 
L 450.383432 -172.098928 
L 451.043787 -172.098928 
L 451.704142 -172.098928 
L 452.364497 -172.098928 
L 453.024852 -172.098928 
L 453.685207 -172.098928 
L 454.345562 -172.098928 
L 455.005917 -172.098928 
L 455.666272 -172.098928 
L 456.326627 -172.098928 
L 456.986982 -172.098928 
L 457.647337 -172.098928 
L 458.307692 -172.098928 
L 458.968047 -172.098928 
L 459.628402 -172.098928 
L 460.288757 -172.098928 
L 460.949112 -172.098928 
L 461.609467 -172.098928 
L 462.269822 -172.098928 
L 462.930178 -172.098928 
L 463.590533 -172.098928 
L 464.250888 -172.098928 
L 464.911243 -172.098928 
L 465.571598 -172.098928 
L 466.231953 -172.098928 
L 466.892308 -172.098928 
L 467.552663 -172.098928 
L 468.213018 -172.098928 
L 468.873373 -172.098928 
L 469.533728 -172.098928 
L 470.194083 -172.098928 
L 470.854438 -172.098928 
L 471.514793 -172.098928 
L 472.175148 -172.098928 
L 472.835503 -172.098928 
L 473.495858 -172.098928 
L 474.156213 -172.098928 
L 474.816568 -172.098928 
L 475.476923 -172.098928 
L 476.137278 -172.098928 
L 476.797633 -172.098928 
L 477.457988 -172.098928 
L 478.118343 -172.098928 
L 478.778698 -172.098928 
L 479.439053 -172.098928 
L 480.099408 -172.098928 
L 480.759763 -172.098928 
L 481.420118 -172.098928 
L 482.080473 -172.098928 
L 482.740828 -172.098928 
L 483.401183 -172.098928 
L 484.061538 -172.098928 
L 484.721893 -172.098928 
L 485.382249 -172.098928 
L 486.042604 -172.098928 
L 486.702959 -172.098928 
L 487.363314 -172.098928 
L 488.023669 -172.098928 
L 488.684024 -172.098928 
L 489.344379 -172.098928 
L 490.004734 -172.098928 
L 490.665089 -172.098928 
L 491.325444 -172.098928 
L 491.985799 -172.098928 
L 492.646154 -172.098928 
L 493.306509 -172.098928 
L 493.966864 -172.098928 
L 494.627219 -172.098928 
L 495.287574 -172.098928 
L 495.947929 -172.098928 
L 496.608284 -172.098928 
L 497.268639 -172.098928 
L 497.928994 -172.098928 
L 498.589349 -172.098928 
L 499.249704 -172.098928 
L 499.910059 -172.098928 
L 500.570414 -172.098928 
L 501.230769 -172.098928 
L 501.891124 -172.098928 
L 502.551479 -172.098928 
L 503.211834 -172.098928 
L 503.872189 -172.098928 
L 504.532544 -172.098928 
L 505.192899 -172.098928 
L 505.853254 -172.098928 
L 506.513609 -172.098928 
L 507.173964 -172.098928 
L 507.83432 -172.098928 
L 508.494675 -172.098928 
L 509.15503 -172.098928 
L 509.815385 -172.098928 
L 510.47574 -172.098928 
L 511.136095 -172.098928 
L 511.79645 -172.098928 
L 512.456805 -172.098928 
L 513.11716 -172.098928 
L 513.777515 -172.098928 
L 514.43787 -172.098928 
L 515.098225 -172.098928 
L 515.75858 -172.098928 
L 516.418935 -172.098928 
L 517.07929 -172.098928 
L 517.739645 -172.098928 
L 518.4 -172.098928 
L 518.4 -165.391231 
L 518.4 -165.391231 
L 517.739645 -165.391231 
L 517.07929 -165.391231 
L 516.418935 -165.391231 
L 515.75858 -165.391231 
L 515.098225 -165.391231 
L 514.43787 -165.391231 
L 513.777515 -165.391231 
L 513.11716 -165.391231 
L 512.456805 -165.391231 
L 511.79645 -165.391231 
L 511.136095 -165.391231 
L 510.47574 -165.391231 
L 509.815385 -165.391231 
L 509.15503 -165.391231 
L 508.494675 -165.391231 
L 507.83432 -165.391231 
L 507.173964 -165.391231 
L 506.513609 -165.391231 
L 505.853254 -165.391231 
L 505.192899 -165.391231 
L 504.532544 -165.391231 
L 503.872189 -165.391231 
L 503.211834 -165.391231 
L 502.551479 -165.391231 
L 501.891124 -165.391231 
L 501.230769 -165.391231 
L 500.570414 -165.391231 
L 499.910059 -165.391231 
L 499.249704 -165.391231 
L 498.589349 -165.391231 
L 497.928994 -165.391231 
L 497.268639 -165.391231 
L 496.608284 -165.391231 
L 495.947929 -165.391231 
L 495.287574 -165.391231 
L 494.627219 -165.391231 
L 493.966864 -165.391231 
L 493.306509 -165.391231 
L 492.646154 -165.391231 
L 491.985799 -165.391231 
L 491.325444 -165.391231 
L 490.665089 -165.391231 
L 490.004734 -165.391231 
L 489.344379 -165.391231 
L 488.684024 -165.391231 
L 488.023669 -165.391231 
L 487.363314 -165.391231 
L 486.702959 -165.391231 
L 486.042604 -165.391231 
L 485.382249 -165.391231 
L 484.721893 -165.391231 
L 484.061538 -165.391231 
L 483.401183 -165.391231 
L 482.740828 -165.391231 
L 482.080473 -165.391231 
L 481.420118 -165.391231 
L 480.759763 -165.391231 
L 480.099408 -165.391231 
L 479.439053 -165.391231 
L 478.778698 -165.391231 
L 478.118343 -165.391231 
L 477.457988 -165.391231 
L 476.797633 -165.391231 
L 476.137278 -165.391231 
L 475.476923 -165.391231 
L 474.816568 -165.391231 
L 474.156213 -165.391231 
L 473.495858 -165.391231 
L 472.835503 -165.391231 
L 472.175148 -165.391231 
L 471.514793 -165.391231 
L 470.854438 -165.391231 
L 470.194083 -165.391231 
L 469.533728 -165.391231 
L 468.873373 -165.391231 
L 468.213018 -165.391231 
L 467.552663 -165.391231 
L 466.892308 -165.391231 
L 466.231953 -165.391231 
L 465.571598 -165.391231 
L 464.911243 -165.391231 
L 464.250888 -165.391231 
L 463.590533 -165.391231 
L 462.930178 -165.391231 
L 462.269822 -165.391231 
L 461.609467 -165.391231 
L 460.949112 -165.391231 
L 460.288757 -165.391231 
L 459.628402 -165.391231 
L 458.968047 -165.391231 
L 458.307692 -165.391231 
L 457.647337 -165.391231 
L 456.986982 -165.391231 
L 456.326627 -165.391231 
L 455.666272 -165.391231 
L 455.005917 -165.391231 
L 454.345562 -165.391231 
L 453.685207 -165.391231 
L 453.024852 -165.391231 
L 452.364497 -165.391231 
L 451.704142 -165.391231 
L 451.043787 -165.391231 
L 450.383432 -165.391231 
L 449.723077 -165.391231 
L 449.062722 -165.391231 
L 448.402367 -165.391231 
L 447.742012 -165.391231 
L 447.081657 -165.391231 
L 446.421302 -165.391231 
L 445.760947 -165.391231 
L 445.100592 -165.391231 
L 444.440237 -165.391231 
L 443.779882 -165.391231 
L 443.119527 -165.391231 
L 442.459172 -165.391231 
L 441.798817 -165.391231 
L 441.138462 -165.391231 
L 440.478107 -165.391231 
L 439.817751 -165.391231 
L 439.157396 -165.391231 
L 438.497041 -165.391231 
L 437.836686 -165.391231 
L 437.176331 -165.391231 
L 436.515976 -165.391231 
L 435.855621 -165.391231 
L 435.195266 -165.391231 
L 434.534911 -165.391231 
L 433.874556 -165.391231 
L 433.214201 -165.391231 
L 432.553846 -165.391231 
L 431.893491 -165.391231 
L 431.233136 -165.391231 
L 430.572781 -165.391231 
L 429.912426 -165.391231 
L 429.252071 -165.391231 
L 428.591716 -165.391231 
L 427.931361 -165.391231 
L 427.271006 -165.391231 
L 426.610651 -165.391231 
L 425.950296 -165.391231 
L 425.289941 -165.391231 
L 424.629586 -165.391231 
L 423.969231 -165.391231 
L 423.308876 -165.391231 
L 422.648521 -165.391231 
L 421.988166 -165.391231 
L 421.327811 -165.391231 
L 420.667456 -165.391231 
L 420.007101 -165.391231 
L 419.346746 -165.391231 
L 418.686391 -165.391231 
L 418.026036 -165.391231 
L 417.36568 -165.391231 
L 416.705325 -165.391231 
L 416.04497 -165.391231 
L 415.384615 -165.391231 
L 414.72426 -165.391231 
L 414.063905 -165.391231 
L 413.40355 -165.391231 
L 412.743195 -165.391231 
L 412.08284 -165.391231 
L 411.422485 -165.391231 
L 410.76213 -165.391231 
L 410.101775 -165.391231 
L 409.44142 -165.391231 
L 408.781065 -165.391231 
L 408.12071 -165.391231 
L 407.460355 -165.391231 
L 406.8 -165.391231 
L 406.139645 -165.391231 
L 405.47929 -165.391231 
L 404.818935 -165.391231 
L 404.15858 -165.391231 
L 403.498225 -165.391231 
L 402.83787 -165.391231 
L 402.177515 -165.391231 
L 401.51716 -165.391231 
L 400.856805 -165.391231 
L 400.19645 -165.391231 
L 399.536095 -165.391231 
L 398.87574 -165.391231 
L 398.215385 -165.391231 
L 397.55503 -165.391231 
L 396.894675 -165.391231 
L 396.23432 -165.391231 
L 395.573964 -165.391231 
L 394.913609 -165.391231 
L 394.253254 -165.391231 
L 393.592899 -165.391231 
L 392.932544 -165.391231 
L 392.272189 -165.391231 
L 391.611834 -165.391231 
L 390.951479 -165.391231 
L 390.291124 -165.391231 
L 389.630769 -165.391231 
L 388.970414 -165.391231 
L 388.310059 -165.391231 
L 387.649704 -165.391231 
L 386.989349 -165.391231 
L 386.328994 -165.391231 
L 385.668639 -165.391231 
L 385.008284 -165.391231 
L 384.347929 -165.391231 
L 383.687574 -165.391231 
L 383.027219 -165.391231 
L 382.366864 -165.391231 
L 381.706509 -165.391231 
L 381.046154 -165.391231 
L 380.385799 -165.391231 
L 379.725444 -165.391231 
L 379.065089 -165.391231 
L 378.404734 -165.391231 
L 377.744379 -165.391231 
L 377.084024 -165.391231 
L 376.423669 -165.391231 
L 375.763314 -165.391231 
L 375.102959 -165.391231 
L 374.442604 -165.391231 
L 373.782249 -165.391231 
L 373.121893 -165.391231 
L 372.461538 -165.391231 
L 371.801183 -165.391231 
L 371.140828 -165.391231 
L 370.480473 -165.391231 
L 369.820118 -165.391231 
L 369.159763 -165.391231 
L 368.499408 -165.391231 
L 367.839053 -165.391231 
L 367.178698 -165.391231 
L 366.518343 -165.391231 
L 365.857988 -165.391231 
L 365.197633 -165.391231 
L 364.537278 -165.391231 
L 363.876923 -165.391231 
L 363.216568 -165.391231 
L 362.556213 -165.391231 
L 361.895858 -165.391231 
L 361.235503 -165.391231 
L 360.575148 -165.391231 
L 359.914793 -165.391231 
L 359.254438 -165.391231 
L 358.594083 -165.391231 
L 357.933728 -165.391231 
L 357.273373 -165.391231 
L 356.613018 -165.391231 
L 355.952663 -165.391231 
L 355.292308 -165.391231 
L 354.631953 -165.391231 
L 353.971598 -165.391231 
L 353.311243 -165.391231 
L 352.650888 -165.391231 
L 351.990533 -165.391231 
L 351.330178 -165.391231 
L 350.669822 -165.391231 
L 350.009467 -165.391231 
L 349.349112 -165.391231 
L 348.688757 -165.391231 
L 348.028402 -165.391231 
L 347.368047 -165.391231 
L 346.707692 -165.391231 
L 346.047337 -165.391231 
L 345.386982 -165.391231 
L 344.726627 -165.391231 
L 344.066272 -165.391231 
L 343.405917 -165.391231 
L 342.745562 -165.391231 
L 342.085207 -165.391231 
L 341.424852 -165.391231 
L 340.764497 -165.391231 
L 340.104142 -165.391231 
L 339.443787 -165.391231 
L 338.783432 -165.391231 
L 338.123077 -165.391231 
L 337.462722 -165.391231 
L 336.802367 -165.391231 
L 336.142012 -165.391231 
L 335.481657 -165.391231 
L 334.821302 -165.391231 
L 334.160947 -165.391231 
L 333.500592 -165.391231 
L 332.840237 -165.391231 
L 332.179882 -165.391231 
L 331.519527 -165.391231 
L 330.859172 -165.391231 
L 330.198817 -165.391231 
L 329.538462 -165.391231 
L 328.878107 -165.391231 
L 328.217751 -165.391231 
L 327.557396 -165.391231 
L 326.897041 -165.391231 
L 326.236686 -165.391231 
L 325.576331 -165.391231 
L 324.915976 -165.391231 
L 324.255621 -165.391231 
L 323.595266 -165.391231 
L 322.934911 -165.391231 
L 322.274556 -165.391231 
L 321.614201 -165.391231 
L 320.953846 -165.391231 
L 320.293491 -165.391231 
L 319.633136 -165.391231 
L 318.972781 -165.391231 
L 318.312426 -165.391231 
L 317.652071 -165.391231 
L 316.991716 -165.391231 
L 316.331361 -165.391231 
L 315.671006 -165.391231 
L 315.010651 -165.391231 
L 314.350296 -165.391231 
L 313.689941 -165.391231 
L 313.029586 -165.391231 
L 312.369231 -165.391231 
L 311.708876 -165.391231 
L 311.048521 -165.391231 
L 310.388166 -165.391231 
L 309.727811 -165.391231 
L 309.067456 -165.391231 
L 308.407101 -165.391231 
L 307.746746 -165.391231 
L 307.086391 -165.391231 
L 306.426036 -165.391231 
L 305.76568 -165.391231 
L 305.105325 -165.391231 
L 304.44497 -165.391231 
L 303.784615 -165.391231 
L 303.12426 -165.391231 
L 302.463905 -165.391231 
L 301.80355 -165.391231 
L 301.143195 -165.391231 
L 300.48284 -165.391231 
L 299.822485 -165.391231 
L 299.16213 -165.391231 
L 298.501775 -165.391231 
L 297.84142 -165.391231 
L 297.181065 -165.391231 
L 296.52071 -165.391231 
L 295.860355 -165.391231 
L 295.2 -165.391231 
L 294.539645 -165.391231 
L 293.87929 -165.391231 
L 293.218935 -165.391231 
L 292.55858 -165.391231 
L 291.898225 -165.391231 
L 291.23787 -165.391231 
L 290.577515 -165.391231 
L 289.91716 -165.391231 
L 289.256805 -165.391231 
L 288.59645 -165.391231 
L 287.936095 -165.391231 
L 287.27574 -165.391231 
L 286.615385 -165.391231 
L 285.95503 -165.391231 
L 285.294675 -165.391231 
L 284.63432 -165.391231 
L 283.973964 -165.391231 
L 283.313609 -165.391231 
L 282.653254 -165.391231 
L 281.992899 -165.391231 
L 281.332544 -165.391231 
L 280.672189 -165.391231 
L 280.011834 -165.391231 
L 279.351479 -165.391231 
L 278.691124 -165.391231 
L 278.030769 -165.391231 
L 277.370414 -165.391231 
L 276.710059 -165.391231 
L 276.049704 -165.391231 
L 275.389349 -165.391231 
L 274.728994 -165.391231 
L 274.068639 -165.391231 
L 273.408284 -165.391231 
L 272.747929 -165.391231 
L 272.087574 -165.391231 
L 271.427219 -165.391231 
L 270.766864 -165.391231 
L 270.106509 -165.391231 
L 269.446154 -165.391231 
L 268.785799 -165.391231 
L 268.125444 -165.391231 
L 267.465089 -165.391231 
L 266.804734 -165.391231 
L 266.144379 -165.391231 
L 265.484024 -165.391231 
L 264.823669 -165.391231 
L 264.163314 -165.391231 
L 263.502959 -165.391231 
L 262.842604 -165.391231 
L 262.182249 -165.391231 
L 261.521893 -165.391231 
L 260.861538 -165.391231 
L 260.201183 -165.391231 
L 259.540828 -165.391231 
L 258.880473 -165.391231 
L 258.220118 -165.391231 
L 257.559763 -165.391231 
L 256.899408 -165.391231 
L 256.239053 -165.391231 
L 255.578698 -165.391231 
L 254.918343 -165.391231 
L 254.257988 -165.391231 
L 253.597633 -165.391231 
L 252.937278 -165.391231 
L 252.276923 -165.391231 
L 251.616568 -165.391231 
L 250.956213 -165.391231 
L 250.295858 -165.391231 
L 249.635503 -165.391231 
L 248.975148 -165.391231 
L 248.314793 -165.391231 
L 247.654438 -165.391231 
L 246.994083 -165.391231 
L 246.333728 -165.391231 
L 245.673373 -165.391231 
L 245.013018 -165.391231 
L 244.352663 -165.391231 
L 243.692308 -165.391231 
L 243.031953 -165.391231 
L 242.371598 -165.391231 
L 241.711243 -165.391231 
L 241.050888 -165.391231 
L 240.390533 -165.391231 
L 239.730178 -165.391231 
L 239.069822 -165.391231 
L 238.409467 -165.391231 
L 237.749112 -165.391231 
L 237.088757 -165.391231 
L 236.428402 -165.391231 
L 235.768047 -165.391231 
L 235.107692 -165.391231 
L 234.447337 -165.391231 
L 233.786982 -165.391231 
L 233.126627 -165.391231 
L 232.466272 -165.391231 
L 231.805917 -165.391231 
L 231.145562 -165.391231 
L 230.485207 -165.391231 
L 229.824852 -165.391231 
L 229.164497 -165.391231 
L 228.504142 -165.391231 
L 227.843787 -165.391231 
L 227.183432 -165.391231 
L 226.523077 -165.391231 
L 225.862722 -165.391231 
L 225.202367 -165.391231 
L 224.542012 -165.391231 
L 223.881657 -165.391231 
L 223.221302 -165.391231 
L 222.560947 -165.391231 
L 221.900592 -165.391231 
L 221.240237 -165.391231 
L 220.579882 -165.391231 
L 219.919527 -165.391231 
L 219.259172 -165.391231 
L 218.598817 -165.391231 
L 217.938462 -165.391231 
L 217.278107 -165.391231 
L 216.617751 -165.391231 
L 215.957396 -165.391231 
L 215.297041 -165.391231 
L 214.636686 -165.391231 
L 213.976331 -165.391231 
L 213.315976 -165.391231 
L 212.655621 -165.391231 
L 211.995266 -165.391231 
L 211.334911 -165.391231 
L 210.674556 -165.391231 
L 210.014201 -165.391231 
L 209.353846 -165.391231 
L 208.693491 -165.391231 
L 208.033136 -165.391231 
L 207.372781 -165.391231 
L 206.712426 -165.391231 
L 206.052071 -165.391231 
L 205.391716 -165.391231 
L 204.731361 -165.391231 
L 204.071006 -165.391231 
L 203.410651 -165.391231 
L 202.750296 -165.391231 
L 202.089941 -165.391231 
L 201.429586 -165.391231 
L 200.769231 -165.391231 
L 200.108876 -165.391231 
L 199.448521 -165.391231 
L 198.788166 -165.391231 
L 198.127811 -165.391231 
L 197.467456 -165.391231 
L 196.807101 -165.391231 
L 196.146746 -165.391231 
L 195.486391 -165.391231 
L 194.826036 -165.391231 
L 194.16568 -165.391231 
L 193.505325 -165.391231 
L 192.84497 -165.391231 
L 192.184615 -165.391231 
L 191.52426 -165.391231 
L 190.863905 -165.391231 
L 190.20355 -165.391231 
L 189.543195 -165.391231 
L 188.88284 -165.391231 
L 188.222485 -165.391231 
L 187.56213 -165.391231 
L 186.901775 -165.391231 
L 186.24142 -165.391231 
L 185.581065 -165.391231 
L 184.92071 -165.391231 
L 184.260355 -165.391231 
L 183.6 -165.391231 
L 182.939645 -165.391231 
L 182.27929 -165.391231 
L 181.618935 -165.391231 
L 180.95858 -165.391231 
L 180.298225 -165.391231 
L 179.63787 -165.391231 
L 178.977515 -165.391231 
L 178.31716 -165.391231 
L 177.656805 -165.391231 
L 176.99645 -165.391231 
L 176.336095 -165.391231 
L 175.67574 -165.391231 
L 175.015385 -165.391231 
L 174.35503 -165.391231 
L 173.694675 -165.391231 
L 173.03432 -165.391231 
L 172.373964 -165.391231 
L 171.713609 -165.391231 
L 171.053254 -165.391231 
L 170.392899 -165.391231 
L 169.732544 -165.391231 
L 169.072189 -165.391231 
L 168.411834 -165.391231 
L 167.751479 -165.391231 
L 167.091124 -165.391231 
L 166.430769 -165.391231 
L 165.770414 -165.391231 
L 165.110059 -165.391231 
L 164.449704 -165.391231 
L 163.789349 -165.391231 
L 163.128994 -165.391231 
L 162.468639 -165.391231 
L 161.808284 -165.391231 
L 161.147929 -165.391231 
L 160.487574 -165.391231 
L 159.827219 -165.391231 
L 159.166864 -165.391231 
L 158.506509 -165.391231 
L 157.846154 -165.391231 
L 157.185799 -165.391231 
L 156.525444 -165.391231 
L 155.865089 -165.391231 
L 155.204734 -165.391231 
L 154.544379 -165.391231 
L 153.884024 -165.391231 
L 153.223669 -165.391231 
L 152.563314 -165.391231 
L 151.902959 -165.391231 
L 151.242604 -165.391231 
L 150.582249 -165.391231 
L 149.921893 -165.391231 
L 149.261538 -165.391231 
L 148.601183 -165.391231 
L 147.940828 -165.391231 
L 147.280473 -165.391231 
L 146.620118 -165.391231 
L 145.959763 -165.391231 
L 145.299408 -165.391231 
L 144.639053 -165.391231 
L 143.978698 -165.391231 
L 143.318343 -165.391231 
L 142.657988 -165.391231 
L 141.997633 -165.391231 
L 141.337278 -165.391231 
L 140.676923 -165.391231 
L 140.016568 -165.391231 
L 139.356213 -165.391231 
L 138.695858 -165.391231 
L 138.035503 -165.391231 
L 137.375148 -165.391231 
L 136.714793 -165.391231 
L 136.054438 -165.391231 
L 135.394083 -165.391231 
L 134.733728 -165.391231 
L 134.073373 -165.391231 
L 133.413018 -165.391231 
L 132.752663 -165.391231 
L 132.092308 -165.391231 
L 131.431953 -165.391231 
L 130.771598 -165.391231 
L 130.111243 -165.391231 
L 129.450888 -165.391231 
L 128.790533 -165.391231 
L 128.130178 -165.391231 
L 127.469822 -165.391231 
L 126.809467 -165.391231 
L 126.149112 -165.391231 
L 125.488757 -165.391231 
L 124.828402 -165.391231 
L 124.168047 -165.391231 
L 123.507692 -165.391231 
L 122.847337 -165.391231 
L 122.186982 -165.391231 
L 121.526627 -165.391231 
L 120.866272 -165.391231 
L 120.205917 -165.391231 
L 119.545562 -165.391231 
L 118.885207 -165.391231 
L 118.224852 -165.391231 
L 117.564497 -165.391231 
L 116.904142 -165.391231 
L 116.243787 -165.391231 
L 115.583432 -165.391231 
L 114.923077 -165.391231 
L 114.262722 -165.391231 
L 113.602367 -165.391231 
L 112.942012 -165.391231 
L 112.281657 -165.391231 
L 111.621302 -165.391231 
L 110.960947 -165.391231 
L 110.300592 -165.391231 
L 109.640237 -165.391231 
L 108.979882 -165.391231 
L 108.319527 -165.391231 
L 107.659172 -165.391231 
L 106.998817 -165.391231 
L 106.338462 -165.391231 
L 105.678107 -165.391231 
L 105.017751 -165.391231 
L 104.357396 -165.391231 
L 103.697041 -165.391231 
L 103.036686 -165.391231 
L 102.376331 -165.391231 
L 101.715976 -165.391231 
L 101.055621 -165.391231 
L 100.395266 -165.391231 
L 99.734911 -165.391231 
L 99.074556 -165.391231 
L 98.414201 -165.391231 
L 97.753846 -165.391231 
L 97.093491 -165.391231 
L 96.433136 -165.391231 
L 95.772781 -165.391231 
L 95.112426 -165.391231 
L 94.452071 -165.391231 
L 93.791716 -165.391231 
L 93.131361 -165.391231 
L 92.471006 -165.391231 
L 91.810651 -165.391231 
L 91.150296 -165.391231 
L 90.489941 -165.391231 
L 89.829586 -165.391231 
L 89.169231 -165.391231 
L 88.508876 -165.391231 
L 87.848521 -165.391231 
L 87.188166 -165.391231 
L 86.527811 -165.391231 
L 85.867456 -165.391231 
L 85.207101 -165.391231 
L 84.546746 -165.391231 
L 83.886391 -165.391231 
L 83.226036 -165.391231 
L 82.56568 -165.391231 
L 81.905325 -165.391231 
L 81.24497 -165.391231 
L 80.584615 -165.391231 
L 79.92426 -165.391231 
L 79.263905 -165.391231 
L 78.60355 -165.391231 
L 77.943195 -165.391231 
L 77.28284 -165.391231 
L 76.622485 -165.391231 
L 75.96213 -165.391231 
L 75.301775 -165.391231 
L 74.64142 -165.391231 
L 73.981065 -165.391231 
L 73.32071 -165.391231 
L 72.660355 -165.391231 
L 72 -165.391231 
z
" id="m714309db8e"/>
    </defs>
    <g clip-path="url(#p58033622d5)">
     <use style="fill-opacity:0.15;" x="0" xlink:href="#m714309db8e" y="360"/>
    </g>
   </g>
   <g id="matplotlib.axis_1">
    <g id="xtick_1">
     <g id="line2d_1">
      <defs>
       <path d="M 0 0 
L 0 3.5 
" id="m427f11f8d3" style="stroke:#000000;stroke-width:0.8;"/>
      </defs>
      <g>
       <use style="stroke:#000000;stroke-width:0.8;" x="72" xlink:href="#m427f11f8d3" y="320.4"/>
      </g>
     </g>
     <g id="text_1">
      <!-- 0.0 -->
      <g transform="translate(60.867812 338.037813)scale(0.14 -0.14)">
       <defs>
        <path d="M 2034 4250 
Q 1547 4250 1301 3770 
Q 1056 3291 1056 2328 
Q 1056 1369 1301 889 
Q 1547 409 2034 409 
Q 2525 409 2770 889 
Q 3016 1369 3016 2328 
Q 3016 3291 2770 3770 
Q 2525 4250 2034 4250 
z
M 2034 4750 
Q 2819 4750 3233 4129 
Q 3647 3509 3647 2328 
Q 3647 1150 3233 529 
Q 2819 -91 2034 -91 
Q 1250 -91 836 529 
Q 422 1150 422 2328 
Q 422 3509 836 4129 
Q 1250 4750 2034 4750 
z
" id="DejaVuSans-30" transform="scale(0.015625)"/>
        <path d="M 684 794 
L 1344 794 
L 1344 0 
L 684 0 
L 684 794 
z
" id="DejaVuSans-2e" transform="scale(0.015625)"/>
       </defs>
       <use xlink:href="#DejaVuSans-30"/>
       <use x="63.623047" xlink:href="#DejaVuSans-2e"/>
       <use x="95.410156" xlink:href="#DejaVuSans-30"/>
      </g>
     </g>
    </g>
    <g id="xtick_2">
     <g id="line2d_2">
      <g>
       <use style="stroke:#000000;stroke-width:0.8;" x="127.844676" xlink:href="#m427f11f8d3" y="320.4"/>
      </g>
     </g>
     <g id="text_2">
      <!-- 2.5 -->
      <g transform="translate(116.712488 338.037813)scale(0.14 -0.14)">
       <defs>
        <path d="M 1228 531 
L 3431 531 
L 3431 0 
L 469 0 
L 469 531 
Q 828 903 1448 1529 
Q 2069 2156 2228 2338 
Q 2531 2678 2651 2914 
Q 2772 3150 2772 3378 
Q 2772 3750 2511 3984 
Q 2250 4219 1831 4219 
Q 1534 4219 1204 4116 
Q 875 4013 500 3803 
L 500 4441 
Q 881 4594 1212 4672 
Q 1544 4750 1819 4750 
Q 2544 4750 2975 4387 
Q 3406 4025 3406 3419 
Q 3406 3131 3298 2873 
Q 3191 2616 2906 2266 
Q 2828 2175 2409 1742 
Q 1991 1309 1228 531 
z
" id="DejaVuSans-32" transform="scale(0.015625)"/>
        <path d="M 691 4666 
L 3169 4666 
L 3169 4134 
L 1269 4134 
L 1269 2991 
Q 1406 3038 1543 3061 
Q 1681 3084 1819 3084 
Q 2600 3084 3056 2656 
Q 3513 2228 3513 1497 
Q 3513 744 3044 326 
Q 2575 -91 1722 -91 
Q 1428 -91 1123 -41 
Q 819 9 494 109 
L 494 744 
Q 775 591 1075 516 
Q 1375 441 1709 441 
Q 2250 441 2565 725 
Q 2881 1009 2881 1497 
Q 2881 1984 2565 2268 
Q 2250 2553 1709 2553 
Q 1456 2553 1204 2497 
Q 953 2441 691 2322 
L 691 4666 
z
" id="DejaVuSans-35" transform="scale(0.015625)"/>
       </defs>
       <use xlink:href="#DejaVuSans-32"/>
       <use x="63.623047" xlink:href="#DejaVuSans-2e"/>
       <use x="95.410156" xlink:href="#DejaVuSans-35"/>
      </g>
     </g>
    </g>
    <g id="xtick_3">
     <g id="line2d_3">
      <g>
       <use style="stroke:#000000;stroke-width:0.8;" x="183.689351" xlink:href="#m427f11f8d3" y="320.4"/>
      </g>
     </g>
     <g id="text_3">
      <!-- 5.0 -->
      <g transform="translate(172.557164 338.037813)scale(0.14 -0.14)">
       <use xlink:href="#DejaVuSans-35"/>
       <use x="63.623047" xlink:href="#DejaVuSans-2e"/>
       <use x="95.410156" xlink:href="#DejaVuSans-30"/>
      </g>
     </g>
    </g>
    <g id="xtick_4">
     <g id="line2d_4">
      <g>
       <use style="stroke:#000000;stroke-width:0.8;" x="239.534027" xlink:href="#m427f11f8d3" y="320.4"/>
      </g>
     </g>
     <g id="text_4">
      <!-- 7.5 -->
      <g transform="translate(228.40184 338.037813)scale(0.14 -0.14)">
       <defs>
        <path d="M 525 4666 
L 3525 4666 
L 3525 4397 
L 1831 0 
L 1172 0 
L 2766 4134 
L 525 4134 
L 525 4666 
z
" id="DejaVuSans-37" transform="scale(0.015625)"/>
       </defs>
       <use xlink:href="#DejaVuSans-37"/>
       <use x="63.623047" xlink:href="#DejaVuSans-2e"/>
       <use x="95.410156" xlink:href="#DejaVuSans-35"/>
      </g>
     </g>
    </g>
    <g id="xtick_5">
     <g id="line2d_5">
      <g>
       <use style="stroke:#000000;stroke-width:0.8;" x="295.378703" xlink:href="#m427f11f8d3" y="320.4"/>
      </g>
     </g>
     <g id="text_5">
      <!-- 10.0 -->
      <g transform="translate(279.792765 338.037813)scale(0.14 -0.14)">
       <defs>
        <path d="M 794 531 
L 1825 531 
L 1825 4091 
L 703 3866 
L 703 4441 
L 1819 4666 
L 2450 4666 
L 2450 531 
L 3481 531 
L 3481 0 
L 794 0 
L 794 531 
z
" id="DejaVuSans-31" transform="scale(0.015625)"/>
       </defs>
       <use xlink:href="#DejaVuSans-31"/>
       <use x="63.623047" xlink:href="#DejaVuSans-30"/>
       <use x="127.246094" xlink:href="#DejaVuSans-2e"/>
       <use x="159.033203" xlink:href="#DejaVuSans-30"/>
      </g>
     </g>
    </g>
    <g id="xtick_6">
     <g id="line2d_6">
      <g>
       <use style="stroke:#000000;stroke-width:0.8;" x="351.223379" xlink:href="#m427f11f8d3" y="320.4"/>
      </g>
     </g>
     <g id="text_6">
      <!-- 12.5 -->
      <g transform="translate(335.637441 338.037813)scale(0.14 -0.14)">
       <use xlink:href="#DejaVuSans-31"/>
       <use x="63.623047" xlink:href="#DejaVuSans-32"/>
       <use x="127.246094" xlink:href="#DejaVuSans-2e"/>
       <use x="159.033203" xlink:href="#DejaVuSans-35"/>
      </g>
     </g>
    </g>
    <g id="xtick_7">
     <g id="line2d_7">
      <g>
       <use style="stroke:#000000;stroke-width:0.8;" x="407.068054" xlink:href="#m427f11f8d3" y="320.4"/>
      </g>
     </g>
     <g id="text_7">
      <!-- 15.0 -->
      <g transform="translate(391.482117 338.037813)scale(0.14 -0.14)">
       <use xlink:href="#DejaVuSans-31"/>
       <use x="63.623047" xlink:href="#DejaVuSans-35"/>
       <use x="127.246094" xlink:href="#DejaVuSans-2e"/>
       <use x="159.033203" xlink:href="#DejaVuSans-30"/>
      </g>
     </g>
    </g>
    <g id="xtick_8">
     <g id="line2d_8">
      <g>
       <use style="stroke:#000000;stroke-width:0.8;" x="462.91273" xlink:href="#m427f11f8d3" y="320.4"/>
      </g>
     </g>
     <g id="text_8">
      <!-- 17.5 -->
      <g transform="translate(447.326793 338.037813)scale(0.14 -0.14)">
       <use xlink:href="#DejaVuSans-31"/>
       <use x="63.623047" xlink:href="#DejaVuSans-37"/>
       <use x="127.246094" xlink:href="#DejaVuSans-2e"/>
       <use x="159.033203" xlink:href="#DejaVuSans-35"/>
      </g>
     </g>
    </g>
    <g id="text_9">
     <!-- Time [Seconds] -->
     <g transform="translate(233.23 357.106875)scale(0.16 -0.16)">
      <defs>
       <path d="M -19 4666 
L 3928 4666 
L 3928 4134 
L 2272 4134 
L 2272 0 
L 1638 0 
L 1638 4134 
L -19 4134 
L -19 4666 
z
" id="DejaVuSans-54" transform="scale(0.015625)"/>
       <path d="M 603 3500 
L 1178 3500 
L 1178 0 
L 603 0 
L 603 3500 
z
M 603 4863 
L 1178 4863 
L 1178 4134 
L 603 4134 
L 603 4863 
z
" id="DejaVuSans-69" transform="scale(0.015625)"/>
       <path d="M 3328 2828 
Q 3544 3216 3844 3400 
Q 4144 3584 4550 3584 
Q 5097 3584 5394 3201 
Q 5691 2819 5691 2113 
L 5691 0 
L 5113 0 
L 5113 2094 
Q 5113 2597 4934 2840 
Q 4756 3084 4391 3084 
Q 3944 3084 3684 2787 
Q 3425 2491 3425 1978 
L 3425 0 
L 2847 0 
L 2847 2094 
Q 2847 2600 2669 2842 
Q 2491 3084 2119 3084 
Q 1678 3084 1418 2786 
Q 1159 2488 1159 1978 
L 1159 0 
L 581 0 
L 581 3500 
L 1159 3500 
L 1159 2956 
Q 1356 3278 1631 3431 
Q 1906 3584 2284 3584 
Q 2666 3584 2933 3390 
Q 3200 3197 3328 2828 
z
" id="DejaVuSans-6d" transform="scale(0.015625)"/>
       <path d="M 3597 1894 
L 3597 1613 
L 953 1613 
Q 991 1019 1311 708 
Q 1631 397 2203 397 
Q 2534 397 2845 478 
Q 3156 559 3463 722 
L 3463 178 
Q 3153 47 2828 -22 
Q 2503 -91 2169 -91 
Q 1331 -91 842 396 
Q 353 884 353 1716 
Q 353 2575 817 3079 
Q 1281 3584 2069 3584 
Q 2775 3584 3186 3129 
Q 3597 2675 3597 1894 
z
M 3022 2063 
Q 3016 2534 2758 2815 
Q 2500 3097 2075 3097 
Q 1594 3097 1305 2825 
Q 1016 2553 972 2059 
L 3022 2063 
z
" id="DejaVuSans-65" transform="scale(0.015625)"/>
       <path id="DejaVuSans-20" transform="scale(0.015625)"/>
       <path d="M 550 4863 
L 1875 4863 
L 1875 4416 
L 1125 4416 
L 1125 -397 
L 1875 -397 
L 1875 -844 
L 550 -844 
L 550 4863 
z
" id="DejaVuSans-5b" transform="scale(0.015625)"/>
       <path d="M 3425 4513 
L 3425 3897 
Q 3066 4069 2747 4153 
Q 2428 4238 2131 4238 
Q 1616 4238 1336 4038 
Q 1056 3838 1056 3469 
Q 1056 3159 1242 3001 
Q 1428 2844 1947 2747 
L 2328 2669 
Q 3034 2534 3370 2195 
Q 3706 1856 3706 1288 
Q 3706 609 3251 259 
Q 2797 -91 1919 -91 
Q 1588 -91 1214 -16 
Q 841 59 441 206 
L 441 856 
Q 825 641 1194 531 
Q 1563 422 1919 422 
Q 2459 422 2753 634 
Q 3047 847 3047 1241 
Q 3047 1584 2836 1778 
Q 2625 1972 2144 2069 
L 1759 2144 
Q 1053 2284 737 2584 
Q 422 2884 422 3419 
Q 422 4038 858 4394 
Q 1294 4750 2059 4750 
Q 2388 4750 2728 4690 
Q 3069 4631 3425 4513 
z
" id="DejaVuSans-53" transform="scale(0.015625)"/>
       <path d="M 3122 3366 
L 3122 2828 
Q 2878 2963 2633 3030 
Q 2388 3097 2138 3097 
Q 1578 3097 1268 2742 
Q 959 2388 959 1747 
Q 959 1106 1268 751 
Q 1578 397 2138 397 
Q 2388 397 2633 464 
Q 2878 531 3122 666 
L 3122 134 
Q 2881 22 2623 -34 
Q 2366 -91 2075 -91 
Q 1284 -91 818 406 
Q 353 903 353 1747 
Q 353 2603 823 3093 
Q 1294 3584 2113 3584 
Q 2378 3584 2631 3529 
Q 2884 3475 3122 3366 
z
" id="DejaVuSans-63" transform="scale(0.015625)"/>
       <path d="M 1959 3097 
Q 1497 3097 1228 2736 
Q 959 2375 959 1747 
Q 959 1119 1226 758 
Q 1494 397 1959 397 
Q 2419 397 2687 759 
Q 2956 1122 2956 1747 
Q 2956 2369 2687 2733 
Q 2419 3097 1959 3097 
z
M 1959 3584 
Q 2709 3584 3137 3096 
Q 3566 2609 3566 1747 
Q 3566 888 3137 398 
Q 2709 -91 1959 -91 
Q 1206 -91 779 398 
Q 353 888 353 1747 
Q 353 2609 779 3096 
Q 1206 3584 1959 3584 
z
" id="DejaVuSans-6f" transform="scale(0.015625)"/>
       <path d="M 3513 2113 
L 3513 0 
L 2938 0 
L 2938 2094 
Q 2938 2591 2744 2837 
Q 2550 3084 2163 3084 
Q 1697 3084 1428 2787 
Q 1159 2491 1159 1978 
L 1159 0 
L 581 0 
L 581 3500 
L 1159 3500 
L 1159 2956 
Q 1366 3272 1645 3428 
Q 1925 3584 2291 3584 
Q 2894 3584 3203 3211 
Q 3513 2838 3513 2113 
z
" id="DejaVuSans-6e" transform="scale(0.015625)"/>
       <path d="M 2906 2969 
L 2906 4863 
L 3481 4863 
L 3481 0 
L 2906 0 
L 2906 525 
Q 2725 213 2448 61 
Q 2172 -91 1784 -91 
Q 1150 -91 751 415 
Q 353 922 353 1747 
Q 353 2572 751 3078 
Q 1150 3584 1784 3584 
Q 2172 3584 2448 3432 
Q 2725 3281 2906 2969 
z
M 947 1747 
Q 947 1113 1208 752 
Q 1469 391 1925 391 
Q 2381 391 2643 752 
Q 2906 1113 2906 1747 
Q 2906 2381 2643 2742 
Q 2381 3103 1925 3103 
Q 1469 3103 1208 2742 
Q 947 2381 947 1747 
z
" id="DejaVuSans-64" transform="scale(0.015625)"/>
       <path d="M 2834 3397 
L 2834 2853 
Q 2591 2978 2328 3040 
Q 2066 3103 1784 3103 
Q 1356 3103 1142 2972 
Q 928 2841 928 2578 
Q 928 2378 1081 2264 
Q 1234 2150 1697 2047 
L 1894 2003 
Q 2506 1872 2764 1633 
Q 3022 1394 3022 966 
Q 3022 478 2636 193 
Q 2250 -91 1575 -91 
Q 1294 -91 989 -36 
Q 684 19 347 128 
L 347 722 
Q 666 556 975 473 
Q 1284 391 1588 391 
Q 1994 391 2212 530 
Q 2431 669 2431 922 
Q 2431 1156 2273 1281 
Q 2116 1406 1581 1522 
L 1381 1569 
Q 847 1681 609 1914 
Q 372 2147 372 2553 
Q 372 3047 722 3315 
Q 1072 3584 1716 3584 
Q 2034 3584 2315 3537 
Q 2597 3491 2834 3397 
z
" id="DejaVuSans-73" transform="scale(0.015625)"/>
       <path d="M 1947 4863 
L 1947 -844 
L 622 -844 
L 622 -397 
L 1369 -397 
L 1369 4416 
L 622 4416 
L 622 4863 
L 1947 4863 
z
" id="DejaVuSans-5d" transform="scale(0.015625)"/>
      </defs>
      <use xlink:href="#DejaVuSans-54"/>
      <use x="57.958984" xlink:href="#DejaVuSans-69"/>
      <use x="85.742188" xlink:href="#DejaVuSans-6d"/>
      <use x="183.154297" xlink:href="#DejaVuSans-65"/>
      <use x="244.677734" xlink:href="#DejaVuSans-20"/>
      <use x="276.464844" xlink:href="#DejaVuSans-5b"/>
      <use x="315.478516" xlink:href="#DejaVuSans-53"/>
      <use x="378.955078" xlink:href="#DejaVuSans-65"/>
      <use x="440.478516" xlink:href="#DejaVuSans-63"/>
      <use x="495.458984" xlink:href="#DejaVuSans-6f"/>
      <use x="556.640625" xlink:href="#DejaVuSans-6e"/>
      <use x="620.019531" xlink:href="#DejaVuSans-64"/>
      <use x="683.496094" xlink:href="#DejaVuSans-73"/>
      <use x="735.595703" xlink:href="#DejaVuSans-5d"/>
     </g>
    </g>
   </g>
   <g id="matplotlib.axis_2">
    <g id="ytick_1">
     <g id="line2d_9">
      <defs>
       <path d="M 0 0 
L -3.5 0 
" id="mbeaf64c113" style="stroke:#000000;stroke-width:0.8;"/>
      </defs>
      <g>
       <use style="stroke:#000000;stroke-width:0.8;" x="72" xlink:href="#mbeaf64c113" y="283.749319"/>
      </g>
     </g>
     <g id="text_10">
      <!-- 0.0 -->
      <g transform="translate(42.735625 289.068225)scale(0.14 -0.14)">
       <use xlink:href="#DejaVuSans-30"/>
       <use x="63.623047" xlink:href="#DejaVuSans-2e"/>
       <use x="95.410156" xlink:href="#DejaVuSans-30"/>
      </g>
     </g>
    </g>
    <g id="ytick_2">
     <g id="line2d_10">
      <g>
       <use style="stroke:#000000;stroke-width:0.8;" x="72" xlink:href="#mbeaf64c113" y="224.915541"/>
      </g>
     </g>
     <g id="text_11">
      <!-- 0.5 -->
      <g transform="translate(42.735625 230.234447)scale(0.14 -0.14)">
       <use xlink:href="#DejaVuSans-30"/>
       <use x="63.623047" xlink:href="#DejaVuSans-2e"/>
       <use x="95.410156" xlink:href="#DejaVuSans-35"/>
      </g>
     </g>
    </g>
    <g id="ytick_3">
     <g id="line2d_11">
      <g>
       <use style="stroke:#000000;stroke-width:0.8;" x="72" xlink:href="#mbeaf64c113" y="166.081762"/>
      </g>
     </g>
     <g id="text_12">
      <!-- 1.0 -->
      <g transform="translate(42.735625 171.400669)scale(0.14 -0.14)">
       <use xlink:href="#DejaVuSans-31"/>
       <use x="63.623047" xlink:href="#DejaVuSans-2e"/>
       <use x="95.410156" xlink:href="#DejaVuSans-30"/>
      </g>
     </g>
    </g>
    <g id="ytick_4">
     <g id="line2d_12">
      <g>
       <use style="stroke:#000000;stroke-width:0.8;" x="72" xlink:href="#mbeaf64c113" y="107.247984"/>
      </g>
     </g>
     <g id="text_13">
      <!-- 1.5 -->
      <g transform="translate(42.735625 112.56689)scale(0.14 -0.14)">
       <use xlink:href="#DejaVuSans-31"/>
       <use x="63.623047" xlink:href="#DejaVuSans-2e"/>
       <use x="95.410156" xlink:href="#DejaVuSans-35"/>
      </g>
     </g>
    </g>
    <g id="ytick_5">
     <g id="line2d_13">
      <g>
       <use style="stroke:#000000;stroke-width:0.8;" x="72" xlink:href="#mbeaf64c113" y="48.414206"/>
      </g>
     </g>
     <g id="text_14">
      <!-- 2.0 -->
      <g transform="translate(42.735625 53.733112)scale(0.14 -0.14)">
       <use xlink:href="#DejaVuSans-32"/>
       <use x="63.623047" xlink:href="#DejaVuSans-2e"/>
       <use x="95.410156" xlink:href="#DejaVuSans-30"/>
      </g>
     </g>
    </g>
    <g id="text_15">
     <!-- Speed [mm/s] -->
     <g transform="translate(35.408125 238.11375)rotate(-90)scale(0.16 -0.16)">
      <defs>
       <path d="M 1159 525 
L 1159 -1331 
L 581 -1331 
L 581 3500 
L 1159 3500 
L 1159 2969 
Q 1341 3281 1617 3432 
Q 1894 3584 2278 3584 
Q 2916 3584 3314 3078 
Q 3713 2572 3713 1747 
Q 3713 922 3314 415 
Q 2916 -91 2278 -91 
Q 1894 -91 1617 61 
Q 1341 213 1159 525 
z
M 3116 1747 
Q 3116 2381 2855 2742 
Q 2594 3103 2138 3103 
Q 1681 3103 1420 2742 
Q 1159 2381 1159 1747 
Q 1159 1113 1420 752 
Q 1681 391 2138 391 
Q 2594 391 2855 752 
Q 3116 1113 3116 1747 
z
" id="DejaVuSans-70" transform="scale(0.015625)"/>
       <path d="M 1625 4666 
L 2156 4666 
L 531 -594 
L 0 -594 
L 1625 4666 
z
" id="DejaVuSans-2f" transform="scale(0.015625)"/>
      </defs>
      <use xlink:href="#DejaVuSans-53"/>
      <use x="63.476562" xlink:href="#DejaVuSans-70"/>
      <use x="126.953125" xlink:href="#DejaVuSans-65"/>
      <use x="188.476562" xlink:href="#DejaVuSans-65"/>
      <use x="250" xlink:href="#DejaVuSans-64"/>
      <use x="313.476562" xlink:href="#DejaVuSans-20"/>
      <use x="345.263672" xlink:href="#DejaVuSans-5b"/>
      <use x="384.277344" xlink:href="#DejaVuSans-6d"/>
      <use x="481.689453" xlink:href="#DejaVuSans-6d"/>
      <use x="579.101562" xlink:href="#DejaVuSans-2f"/>
      <use x="612.792969" xlink:href="#DejaVuSans-73"/>
      <use x="664.892578" xlink:href="#DejaVuSans-5d"/>
     </g>
    </g>
   </g>
   <g id="line2d_14">
    <path clip-path="url(#p58033622d5)" d="M 72 191.25492 
L 518.4 191.25492 
" style="fill:none;stroke:#000000;stroke-dasharray:5.55,2.4;stroke-dashoffset:0;stroke-width:1.5;"/>
   </g>
   <g id="line2d_15">
    <path clip-path="url(#p58033622d5)" d="M 72 280.95215 
L 116.243787 281.050152 
L 116.904142 280.60535 
L 117.564497 279.598171 
L 118.224852 279.5388 
L 118.885207 280.015589 
L 119.545562 280.352065 
L 120.205917 281.139371 
L 120.866272 282.394166 
L 121.526627 281.275451 
L 122.186982 277.438188 
L 122.847337 269.355396 
L 123.507692 276.862164 
L 124.168047 298.789447 
L 124.828402 307.562082 
L 125.488757 307.8 
L 126.149112 302.183821 
L 126.809467 288.816721 
L 127.469822 270.456487 
L 128.790533 222.961753 
L 131.431953 117.143901 
L 132.752663 79.227394 
L 133.413018 65.969362 
L 134.073373 59.689077 
L 134.733728 55.8 
L 135.394083 56.761896 
L 136.054438 65.009899 
L 137.375148 87.131421 
L 140.676923 176.291921 
L 141.337278 188.662394 
L 141.997633 195.882466 
L 142.657988 196.10441 
L 143.318343 187.008957 
L 144.639053 161.131888 
L 145.299408 165.393624 
L 145.959763 177.559581 
L 146.620118 177.110976 
L 147.280473 176.164652 
L 147.940828 179.743653 
L 148.601183 178.981993 
L 149.261538 180.818865 
L 149.921893 183.614912 
L 150.582249 183.296191 
L 151.242604 182.574929 
L 151.902959 183.848134 
L 152.563314 186.020541 
L 153.223669 184.007956 
L 153.884024 184.910442 
L 154.544379 187.080249 
L 155.204734 188.139022 
L 155.865089 191.263974 
L 156.525444 191.708279 
L 157.185799 194.005215 
L 157.846154 194.133033 
L 158.506509 191.104093 
L 159.166864 190.183549 
L 159.827219 188.693993 
L 160.487574 186.708801 
L 161.147929 186.667559 
L 161.808284 189.330121 
L 162.468639 190.029678 
L 163.789349 187.877667 
L 164.449704 188.007566 
L 165.110059 186.67356 
L 165.770414 187.732326 
L 166.430769 191.758351 
L 167.091124 190.462244 
L 167.751479 191.34455 
L 169.072189 190.128244 
L 169.732544 193.275829 
L 170.392899 191.699073 
L 171.053254 191.767948 
L 173.03432 193.552486 
L 173.694675 195.022545 
L 174.35503 195.32648 
L 175.015385 192.589612 
L 175.67574 192.344218 
L 176.336095 191.474637 
L 176.99645 188.114621 
L 177.656805 188.131905 
L 178.31716 191.752432 
L 178.977515 192.759604 
L 179.63787 187.988983 
L 180.298225 187.368542 
L 180.95858 190.575664 
L 181.618935 187.900549 
L 182.27929 187.541329 
L 182.939645 189.618609 
L 183.6 190.935445 
L 184.260355 191.624313 
L 184.92071 191.137406 
L 185.581065 189.784263 
L 186.24142 190.042641 
L 186.901775 192.159242 
L 187.56213 194.958151 
L 188.222485 195.377674 
L 188.88284 194.147221 
L 189.543195 195.95409 
L 190.20355 195.484052 
L 190.863905 193.78378 
L 191.52426 192.817584 
L 192.184615 192.152914 
L 192.84497 190.189204 
L 193.505325 191.861416 
L 194.16568 192.005731 
L 194.826036 190.308331 
L 195.486391 191.092333 
L 196.146746 191.096771 
L 196.807101 191.973471 
L 198.127811 188.771317 
L 198.788166 188.25946 
L 199.448521 189.383389 
L 200.108876 188.636444 
L 200.769231 186.449231 
L 201.429586 186.818659 
L 202.089941 189.561162 
L 202.750296 189.878091 
L 203.410651 188.847625 
L 204.071006 191.374358 
L 204.731361 192.115768 
L 205.391716 191.619919 
L 206.052071 190.62402 
L 206.712426 191.337371 
L 207.372781 191.663744 
L 208.033136 192.572167 
L 208.693491 195.614646 
L 209.353846 193.405448 
L 210.014201 192.1562 
L 210.674556 195.517657 
L 211.334911 197.370202 
L 211.995266 194.463952 
L 212.655621 192.505641 
L 213.315976 194.199063 
L 213.976331 194.829108 
L 214.636686 193.383411 
L 215.297041 194.789947 
L 215.957396 193.658898 
L 216.617751 190.782681 
L 217.278107 191.974606 
L 217.938462 193.561207 
L 218.598817 192.375526 
L 219.259172 190.879191 
L 219.919527 193.72955 
L 220.579882 194.220425 
L 221.900592 189.385603 
L 222.560947 191.308715 
L 223.221302 194.132963 
L 224.542012 185.780539 
L 225.862722 190.899084 
L 227.183432 188.939899 
L 227.843787 190.191928 
L 228.504142 190.311723 
L 229.164497 188.773408 
L 229.824852 188.516159 
L 230.485207 190.149654 
L 231.145562 189.574987 
L 231.805917 189.936786 
L 232.466272 189.377923 
L 233.126627 187.791657 
L 233.786982 189.812012 
L 234.447337 192.895614 
L 235.107692 192.579662 
L 235.768047 190.389612 
L 236.428402 192.458695 
L 237.088757 195.100561 
L 237.749112 193.214527 
L 238.409467 191.876648 
L 239.069822 194.890482 
L 239.730178 195.636713 
L 240.390533 191.022519 
L 241.050888 190.771163 
L 241.711243 196.169056 
L 242.371598 195.381021 
L 243.031953 192.595116 
L 243.692308 193.294669 
L 244.352663 195.325525 
L 245.013018 196.300372 
L 246.333728 190.560065 
L 246.994083 191.428132 
L 247.654438 191.197113 
L 248.314793 189.128919 
L 248.975148 190.182645 
L 249.635503 193.188604 
L 250.295858 190.89277 
L 250.956213 189.522545 
L 251.616568 190.706908 
L 252.276923 192.301343 
L 252.937278 191.098096 
L 253.597633 188.670947 
L 254.257988 190.569086 
L 254.918343 192.817739 
L 255.578698 192.963153 
L 256.239053 191.414147 
L 256.899408 191.943146 
L 257.559763 193.16585 
L 258.220118 194.84292 
L 258.880473 193.873761 
L 259.540828 191.151343 
L 260.201183 192.258609 
L 261.521893 190.333537 
L 262.182249 190.261015 
L 262.842604 190.762583 
L 263.502959 193.000086 
L 264.163314 191.566871 
L 264.823669 188.645723 
L 265.484024 189.179282 
L 266.144379 192.467827 
L 266.804734 195.179436 
L 267.465089 195.348687 
L 268.125444 194.746493 
L 268.785799 196.554665 
L 269.446154 193.092522 
L 270.106509 190.338442 
L 270.766864 193.614154 
L 271.427219 194.624575 
L 272.087574 192.9633 
L 272.747929 191.631703 
L 273.408284 189.929619 
L 274.068639 190.510844 
L 274.728994 189.47693 
L 275.389349 185.970402 
L 276.049704 187.078911 
L 276.710059 187.408114 
L 277.370414 186.445319 
L 278.030769 187.354046 
L 278.691124 190.357751 
L 279.351479 191.106609 
L 280.011834 188.229195 
L 280.672189 188.316355 
L 281.332544 190.210561 
L 281.992899 191.448953 
L 282.653254 191.679873 
L 283.313609 194.85617 
L 283.973964 196.187788 
L 284.63432 193.288437 
L 285.294675 194.132418 
L 285.95503 194.285803 
L 286.615385 190.659522 
L 287.27574 188.55011 
L 287.936095 190.064677 
L 288.59645 192.915789 
L 289.256805 194.133769 
L 289.91716 194.682362 
L 290.577515 191.6419 
L 291.23787 187.635501 
L 292.55858 191.913089 
L 293.218935 192.078942 
L 293.87929 193.795475 
L 294.539645 194.342544 
L 295.2 193.186541 
L 295.860355 193.79412 
L 296.52071 191.767568 
L 297.181065 187.91911 
L 297.84142 189.633119 
L 298.501775 193.110782 
L 299.16213 194.180337 
L 300.48284 195.01546 
L 301.143195 193.197995 
L 301.80355 188.167725 
L 302.463905 188.0701 
L 303.12426 190.738939 
L 303.784615 192.08151 
L 304.44497 192.517319 
L 305.105325 192.630499 
L 305.76568 194.036113 
L 306.426036 194.132505 
L 307.086391 193.131974 
L 308.407101 189.56608 
L 309.067456 190.819753 
L 309.727811 191.778793 
L 310.388166 191.88954 
L 311.048521 193.305681 
L 311.708876 191.453986 
L 312.369231 188.106519 
L 313.029586 186.607642 
L 313.689941 187.477206 
L 314.350296 191.03308 
L 315.010651 192.759449 
L 315.671006 193.950728 
L 316.331361 194.039303 
L 318.312426 188.662466 
L 319.633136 192.718198 
L 320.293491 195.770099 
L 320.953846 195.910714 
L 321.614201 196.297426 
L 322.274556 195.97604 
L 322.934911 192.955629 
L 323.595266 188.93499 
L 324.255621 188.496922 
L 324.915976 191.614148 
L 325.576331 193.612399 
L 326.236686 193.374553 
L 326.897041 191.652291 
L 327.557396 193.031303 
L 328.217751 191.758835 
L 328.878107 186.916162 
L 329.538462 187.271089 
L 330.198817 191.032033 
L 330.859172 192.404625 
L 331.519527 193.357309 
L 332.179882 193.636518 
L 332.840237 195.397963 
L 333.500592 194.108102 
L 334.160947 191.718481 
L 334.821302 188.725405 
L 335.481657 189.020643 
L 336.142012 193.868693 
L 336.802367 193.284553 
L 337.462722 194.242592 
L 338.123077 194.806848 
L 338.783432 192.008112 
L 339.443787 187.908519 
L 340.104142 187.071788 
L 340.764497 191.155369 
L 341.424852 191.554003 
L 342.085207 193.376733 
L 342.745562 193.363033 
L 343.405917 191.588813 
L 344.066272 191.532689 
L 344.726627 188.760404 
L 345.386982 186.980183 
L 346.047337 189.768451 
L 346.707692 193.136121 
L 347.368047 195.454516 
L 348.028402 196.653217 
L 349.349112 193.027123 
L 350.009467 190.512457 
L 350.669822 187.490731 
L 351.330178 188.649053 
L 351.990533 192.526647 
L 352.650888 193.892997 
L 353.311243 194.414593 
L 353.971598 192.932883 
L 354.631953 192.087055 
L 355.952663 188.440396 
L 356.613018 188.434876 
L 357.273373 191.130189 
L 357.933728 193.170244 
L 358.594083 192.426881 
L 359.254438 194.216505 
L 359.914793 193.300976 
L 360.575148 191.501836 
L 361.235503 188.735062 
L 361.895858 190.401452 
L 362.556213 193.319847 
L 363.216568 191.873229 
L 363.876923 194.495662 
L 364.537278 196.407392 
L 365.197633 192.93726 
L 365.857988 190.817326 
L 366.518343 191.528462 
L 367.178698 191.353566 
L 367.839053 191.682022 
L 368.499408 192.40363 
L 369.159763 194.326025 
L 369.820118 195.678402 
L 370.480473 193.131208 
L 371.140828 188.732203 
L 371.801183 186.538961 
L 372.461538 188.426891 
L 373.121893 191.254169 
L 373.782249 191.108574 
L 374.442604 191.224223 
L 375.102959 191.226855 
L 375.763314 189.68319 
L 376.423669 187.416633 
L 377.084024 186.740371 
L 377.744379 189.820359 
L 378.404734 190.807088 
L 379.065089 193.292475 
L 379.725444 194.155417 
L 380.385799 193.557675 
L 381.046154 194.468242 
L 381.706509 194.068554 
L 382.366864 194.025133 
L 383.687574 192.771722 
L 384.347929 192.702681 
L 385.008284 193.428325 
L 385.668639 195.210069 
L 386.328994 196.097129 
L 386.989349 193.526162 
L 387.649704 193.206945 
L 388.310059 194.877451 
L 388.970414 193.585908 
L 389.630769 192.996115 
L 390.291124 191.015844 
L 391.611834 190.827346 
L 392.932544 184.217603 
L 393.592899 185.877864 
L 394.253254 188.09383 
L 394.913609 187.036541 
L 395.573964 188.276385 
L 396.23432 192.133932 
L 396.894675 191.80482 
L 397.55503 189.145935 
L 398.215385 191.579768 
L 398.87574 193.46001 
L 399.536095 193.721892 
L 400.19645 193.264446 
L 400.856805 196.108507 
L 401.51716 196.992491 
L 402.177515 194.655832 
L 402.83787 193.576244 
L 404.818935 189.545861 
L 405.47929 187.402103 
L 406.139645 188.019954 
L 406.8 188.871771 
L 407.460355 187.048439 
L 408.12071 188.444885 
L 408.781065 191.179374 
L 409.44142 193.009204 
L 410.101775 195.486229 
L 410.76213 198.850588 
L 412.08284 194.080167 
L 412.743195 197.149812 
L 413.40355 194.688133 
L 414.063905 192.785807 
L 414.72426 192.907943 
L 416.04497 188.134773 
L 416.705325 189.06245 
L 417.36568 192.01976 
L 418.026036 191.714427 
L 418.686391 189.040372 
L 419.346746 189.156797 
L 420.007101 192.236358 
L 421.327811 187.740081 
L 422.648521 191.351536 
L 423.308876 191.107272 
L 423.969231 190.373571 
L 424.629586 190.732663 
L 425.289941 191.387335 
L 425.950296 190.930629 
L 426.610651 190.689689 
L 427.271006 192.121975 
L 427.931361 193.177567 
L 428.591716 193.674548 
L 429.252071 192.313077 
L 429.912426 192.684622 
L 430.572781 194.919892 
L 431.233136 196.047383 
L 431.893491 196.378306 
L 432.553846 194.318194 
L 433.214201 191.440236 
L 433.874556 192.437549 
L 434.534911 192.530184 
L 435.195266 189.323115 
L 435.855621 189.942697 
L 436.515976 189.482814 
L 437.176331 186.218684 
L 437.836686 187.180554 
L 438.497041 187.583653 
L 439.157396 187.809809 
L 441.138462 196.918929 
L 441.798817 195.490291 
L 442.459172 194.937619 
L 443.779882 196.336064 
L 444.440237 197.541803 
L 445.100592 197.234712 
L 445.760947 195.338746 
L 446.421302 193.008278 
L 447.742012 186.268702 
L 448.402367 186.752572 
L 449.062722 187.827184 
L 449.723077 188.319309 
L 451.704142 189.462075 
L 452.364497 192.408473 
L 453.024852 192.452054 
L 453.685207 190.07335 
L 455.005917 191.722245 
L 455.666272 190.360274 
L 456.326627 190.191568 
L 457.647337 188.8725 
L 458.307692 190.746543 
L 458.968047 191.172688 
L 459.628402 191.434197 
L 460.288757 190.457331 
L 460.949112 191.573345 
L 461.609467 193.793786 
L 462.269822 195.460736 
L 462.930178 193.912203 
L 463.590533 189.611163 
L 464.250888 192.099607 
L 464.911243 194.025589 
L 465.571598 192.388689 
L 466.231953 192.945045 
L 466.892308 192.389482 
L 467.552663 190.687931 
L 468.213018 188.001948 
L 468.873373 185.941131 
L 470.194083 190.695948 
L 470.854438 191.310311 
L 471.514793 192.281816 
L 472.175148 194.136231 
L 472.835503 193.580725 
L 473.495858 192.827489 
L 474.156213 195.396963 
L 474.816568 194.002426 
L 475.476923 195.323909 
L 476.137278 198.180797 
L 476.797633 193.842986 
L 477.457988 191.357554 
L 478.118343 192.021547 
L 478.778698 187.250079 
L 479.439053 185.962201 
L 480.099408 189.010532 
L 480.759763 189.160513 
L 481.420118 189.855096 
L 482.080473 190.146524 
L 482.740828 190.776265 
L 483.401183 192.568692 
L 484.061538 193.464614 
L 484.721893 190.917383 
L 485.382249 191.234935 
L 486.042604 194.317753 
L 486.702959 194.002966 
L 487.363314 192.912693 
L 488.023669 192.640558 
L 488.684024 192.151182 
L 489.344379 191.419331 
L 490.004734 190.105 
L 490.665089 189.365884 
L 491.325444 190.94183 
L 491.985799 192.809988 
L 492.646154 195.471978 
L 493.306509 196.95469 
L 493.966864 196.568689 
L 494.627219 192.499885 
L 495.287574 191.176577 
L 495.947929 195.391758 
L 496.608284 196.437548 
L 497.268639 196.802045 
L 497.928994 195.350606 
L 498.589349 191.907303 
L 499.249704 191.586956 
L 499.910059 191.048274 
L 500.570414 185.849005 
L 501.230769 185.644345 
L 501.891124 188.923264 
L 502.551479 189.591059 
L 503.211834 190.556172 
L 503.872189 192.655025 
L 504.532544 194.250194 
L 505.853254 191.024019 
L 506.513609 190.550615 
L 507.173964 192.382468 
L 509.15503 192.591554 
L 509.815385 192.462728 
L 511.136095 191.844847 
L 512.456805 190.810321 
L 516.418935 187.005945 
L 517.07929 186.641682 
L 517.739645 186.480349 
L 518.4 186.579727 
L 518.4 186.579727 
" style="fill:none;stroke:#ff0000;stroke-linecap:square;stroke-width:2;"/>
   </g>
   <g id="patch_3">
    <path d="M 72 320.4 
L 72 43.2 
" style="fill:none;stroke:#000000;stroke-linecap:square;stroke-linejoin:miter;stroke-width:0.8;"/>
   </g>
   <g id="patch_4">
    <path d="M 518.4 320.4 
L 518.4 43.2 
" style="fill:none;stroke:#000000;stroke-linecap:square;stroke-linejoin:miter;stroke-width:0.8;"/>
   </g>
   <g id="patch_5">
    <path d="M 72 320.4 
L 518.4 320.4 
" style="fill:none;stroke:#000000;stroke-linecap:square;stroke-linejoin:miter;stroke-width:0.8;"/>
   </g>
   <g id="patch_6">
    <path d="M 72 43.2 
L 518.4 43.2 
" style="fill:none;stroke:#000000;stroke-linecap:square;stroke-linejoin:miter;stroke-width:0.8;"/>
   </g>
   <g id="text_16">
    <!-- Front Propogation Speed -->
    <g transform="translate(172.245312 37.2)scale(0.2 -0.2)">
     <defs>
      <path d="M 628 4666 
L 3309 4666 
L 3309 4134 
L 1259 4134 
L 1259 2759 
L 3109 2759 
L 3109 2228 
L 1259 2228 
L 1259 0 
L 628 0 
L 628 4666 
z
" id="DejaVuSans-46" transform="scale(0.015625)"/>
      <path d="M 2631 2963 
Q 2534 3019 2420 3045 
Q 2306 3072 2169 3072 
Q 1681 3072 1420 2755 
Q 1159 2438 1159 1844 
L 1159 0 
L 581 0 
L 581 3500 
L 1159 3500 
L 1159 2956 
Q 1341 3275 1631 3429 
Q 1922 3584 2338 3584 
Q 2397 3584 2469 3576 
Q 2541 3569 2628 3553 
L 2631 2963 
z
" id="DejaVuSans-72" transform="scale(0.015625)"/>
      <path d="M 1172 4494 
L 1172 3500 
L 2356 3500 
L 2356 3053 
L 1172 3053 
L 1172 1153 
Q 1172 725 1289 603 
Q 1406 481 1766 481 
L 2356 481 
L 2356 0 
L 1766 0 
Q 1100 0 847 248 
Q 594 497 594 1153 
L 594 3053 
L 172 3053 
L 172 3500 
L 594 3500 
L 594 4494 
L 1172 4494 
z
" id="DejaVuSans-74" transform="scale(0.015625)"/>
      <path d="M 1259 4147 
L 1259 2394 
L 2053 2394 
Q 2494 2394 2734 2622 
Q 2975 2850 2975 3272 
Q 2975 3691 2734 3919 
Q 2494 4147 2053 4147 
L 1259 4147 
z
M 628 4666 
L 2053 4666 
Q 2838 4666 3239 4311 
Q 3641 3956 3641 3272 
Q 3641 2581 3239 2228 
Q 2838 1875 2053 1875 
L 1259 1875 
L 1259 0 
L 628 0 
L 628 4666 
z
" id="DejaVuSans-50" transform="scale(0.015625)"/>
      <path d="M 2906 1791 
Q 2906 2416 2648 2759 
Q 2391 3103 1925 3103 
Q 1463 3103 1205 2759 
Q 947 2416 947 1791 
Q 947 1169 1205 825 
Q 1463 481 1925 481 
Q 2391 481 2648 825 
Q 2906 1169 2906 1791 
z
M 3481 434 
Q 3481 -459 3084 -895 
Q 2688 -1331 1869 -1331 
Q 1566 -1331 1297 -1286 
Q 1028 -1241 775 -1147 
L 775 -588 
Q 1028 -725 1275 -790 
Q 1522 -856 1778 -856 
Q 2344 -856 2625 -561 
Q 2906 -266 2906 331 
L 2906 616 
Q 2728 306 2450 153 
Q 2172 0 1784 0 
Q 1141 0 747 490 
Q 353 981 353 1791 
Q 353 2603 747 3093 
Q 1141 3584 1784 3584 
Q 2172 3584 2450 3431 
Q 2728 3278 2906 2969 
L 2906 3500 
L 3481 3500 
L 3481 434 
z
" id="DejaVuSans-67" transform="scale(0.015625)"/>
      <path d="M 2194 1759 
Q 1497 1759 1228 1600 
Q 959 1441 959 1056 
Q 959 750 1161 570 
Q 1363 391 1709 391 
Q 2188 391 2477 730 
Q 2766 1069 2766 1631 
L 2766 1759 
L 2194 1759 
z
M 3341 1997 
L 3341 0 
L 2766 0 
L 2766 531 
Q 2569 213 2275 61 
Q 1981 -91 1556 -91 
Q 1019 -91 701 211 
Q 384 513 384 1019 
Q 384 1609 779 1909 
Q 1175 2209 1959 2209 
L 2766 2209 
L 2766 2266 
Q 2766 2663 2505 2880 
Q 2244 3097 1772 3097 
Q 1472 3097 1187 3025 
Q 903 2953 641 2809 
L 641 3341 
Q 956 3463 1253 3523 
Q 1550 3584 1831 3584 
Q 2591 3584 2966 3190 
Q 3341 2797 3341 1997 
z
" id="DejaVuSans-61" transform="scale(0.015625)"/>
     </defs>
     <use xlink:href="#DejaVuSans-46"/>
     <use x="50.269531" xlink:href="#DejaVuSans-72"/>
     <use x="89.132812" xlink:href="#DejaVuSans-6f"/>
     <use x="150.314453" xlink:href="#DejaVuSans-6e"/>
     <use x="213.693359" xlink:href="#DejaVuSans-74"/>
     <use x="252.902344" xlink:href="#DejaVuSans-20"/>
     <use x="284.689453" xlink:href="#DejaVuSans-50"/>
     <use x="343.242188" xlink:href="#DejaVuSans-72"/>
     <use x="382.105469" xlink:href="#DejaVuSans-6f"/>
     <use x="443.287109" xlink:href="#DejaVuSans-70"/>
     <use x="506.763672" xlink:href="#DejaVuSans-6f"/>
     <use x="567.945312" xlink:href="#DejaVuSans-67"/>
     <use x="631.421875" xlink:href="#DejaVuSans-61"/>
     <use x="692.701172" xlink:href="#DejaVuSans-74"/>
     <use x="731.910156" xlink:href="#DejaVuSans-69"/>
     <use x="759.693359" xlink:href="#DejaVuSans-6f"/>
     <use x="820.875" xlink:href="#DejaVuSans-6e"/>
     <use x="884.253906" xlink:href="#DejaVuSans-20"/>
     <use x="916.041016" xlink:href="#DejaVuSans-53"/>
     <use x="979.517578" xlink:href="#DejaVuSans-70"/>
     <use x="1042.994141" xlink:href="#DejaVuSans-65"/>
     <use x="1104.517578" xlink:href="#DejaVuSans-65"/>
     <use x="1166.041016" xlink:href="#DejaVuSans-64"/>
    </g>
   </g>
   <g id="legend_1">
    <g id="patch_7">
     <path d="M 325.967812 111.175687 
L 508.6 111.175687 
Q 511.4 111.175687 511.4 108.375687 
L 511.4 53 
Q 511.4 50.2 508.6 50.2 
L 325.967812 50.2 
Q 323.167812 50.2 323.167812 53 
L 323.167812 108.375687 
Q 323.167812 111.175687 325.967812 111.175687 
z
" style="fill:#ffffff;opacity:0.8;stroke:#cccccc;stroke-linejoin:miter;"/>
    </g>
    <g id="line2d_16">
     <path d="M 328.767812 61.537812 
L 356.767812 61.537812 
" style="fill:none;stroke:#ff0000;stroke-linecap:square;stroke-width:2;"/>
    </g>
    <g id="line2d_17"/>
    <g id="text_17">
     <!-- Front speed -->
     <g transform="translate(367.967812 66.437812)scale(0.14 -0.14)">
      <use xlink:href="#DejaVuSans-46"/>
      <use x="50.269531" xlink:href="#DejaVuSans-72"/>
      <use x="89.132812" xlink:href="#DejaVuSans-6f"/>
      <use x="150.314453" xlink:href="#DejaVuSans-6e"/>
      <use x="213.693359" xlink:href="#DejaVuSans-74"/>
      <use x="252.902344" xlink:href="#DejaVuSans-20"/>
      <use x="284.689453" xlink:href="#DejaVuSans-73"/>
      <use x="336.789062" xlink:href="#DejaVuSans-70"/>
      <use x="400.265625" xlink:href="#DejaVuSans-65"/>
      <use x="461.789062" xlink:href="#DejaVuSans-65"/>
      <use x="523.3125" xlink:href="#DejaVuSans-64"/>
     </g>
    </g>
    <g id="line2d_18">
     <path d="M 328.767812 91.381437 
L 356.767812 91.381437 
" style="fill:none;stroke:#000000;stroke-dasharray:5.55,2.4;stroke-dashoffset:0;stroke-width:1.5;"/>
    </g>
    <g id="line2d_19"/>
    <g id="text_18">
     <!-- Steady state -->
     <g transform="translate(367.967812 86.987187)scale(0.14 -0.14)">
      <defs>
       <path d="M 2059 -325 
Q 1816 -950 1584 -1140 
Q 1353 -1331 966 -1331 
L 506 -1331 
L 506 -850 
L 844 -850 
Q 1081 -850 1212 -737 
Q 1344 -625 1503 -206 
L 1606 56 
L 191 3500 
L 800 3500 
L 1894 763 
L 2988 3500 
L 3597 3500 
L 2059 -325 
z
" id="DejaVuSans-79" transform="scale(0.015625)"/>
      </defs>
      <use xlink:href="#DejaVuSans-53"/>
      <use x="63.476562" xlink:href="#DejaVuSans-74"/>
      <use x="102.685547" xlink:href="#DejaVuSans-65"/>
      <use x="164.208984" xlink:href="#DejaVuSans-61"/>
      <use x="225.488281" xlink:href="#DejaVuSans-64"/>
      <use x="288.964844" xlink:href="#DejaVuSans-79"/>
      <use x="348.144531" xlink:href="#DejaVuSans-20"/>
      <use x="379.931641" xlink:href="#DejaVuSans-73"/>
      <use x="432.03125" xlink:href="#DejaVuSans-74"/>
      <use x="471.240234" xlink:href="#DejaVuSans-61"/>
      <use x="532.519531" xlink:href="#DejaVuSans-74"/>
      <use x="571.728516" xlink:href="#DejaVuSans-65"/>
     </g>
     <!-- speed = 0.79 mm/s -->
     <g transform="translate(367.967812 102.664125)scale(0.14 -0.14)">
      <defs>
       <path d="M 678 2906 
L 4684 2906 
L 4684 2381 
L 678 2381 
L 678 2906 
z
M 678 1631 
L 4684 1631 
L 4684 1100 
L 678 1100 
L 678 1631 
z
" id="DejaVuSans-3d" transform="scale(0.015625)"/>
       <path d="M 703 97 
L 703 672 
Q 941 559 1184 500 
Q 1428 441 1663 441 
Q 2288 441 2617 861 
Q 2947 1281 2994 2138 
Q 2813 1869 2534 1725 
Q 2256 1581 1919 1581 
Q 1219 1581 811 2004 
Q 403 2428 403 3163 
Q 403 3881 828 4315 
Q 1253 4750 1959 4750 
Q 2769 4750 3195 4129 
Q 3622 3509 3622 2328 
Q 3622 1225 3098 567 
Q 2575 -91 1691 -91 
Q 1453 -91 1209 -44 
Q 966 3 703 97 
z
M 1959 2075 
Q 2384 2075 2632 2365 
Q 2881 2656 2881 3163 
Q 2881 3666 2632 3958 
Q 2384 4250 1959 4250 
Q 1534 4250 1286 3958 
Q 1038 3666 1038 3163 
Q 1038 2656 1286 2365 
Q 1534 2075 1959 2075 
z
" id="DejaVuSans-39" transform="scale(0.015625)"/>
      </defs>
      <use xlink:href="#DejaVuSans-73"/>
      <use x="52.099609" xlink:href="#DejaVuSans-70"/>
      <use x="115.576172" xlink:href="#DejaVuSans-65"/>
      <use x="177.099609" xlink:href="#DejaVuSans-65"/>
      <use x="238.623047" xlink:href="#DejaVuSans-64"/>
      <use x="302.099609" xlink:href="#DejaVuSans-20"/>
      <use x="333.886719" xlink:href="#DejaVuSans-3d"/>
      <use x="417.675781" xlink:href="#DejaVuSans-20"/>
      <use x="449.462891" xlink:href="#DejaVuSans-30"/>
      <use x="513.085938" xlink:href="#DejaVuSans-2e"/>
      <use x="544.873047" xlink:href="#DejaVuSans-37"/>
      <use x="608.496094" xlink:href="#DejaVuSans-39"/>
      <use x="672.119141" xlink:href="#DejaVuSans-20"/>
      <use x="703.90625" xlink:href="#DejaVuSans-6d"/>
      <use x="801.318359" xlink:href="#DejaVuSans-6d"/>
      <use x="898.730469" xlink:href="#DejaVuSans-2f"/>
      <use x="932.421875" xlink:href="#DejaVuSans-73"/>
     </g>
    </g>
   </g>
  </g>
 </g>
 <defs>
  <clipPath id="p58033622d5">
   <rect height="277.2" width="446.4" x="72" y="43.2"/>
  </clipPath>
 </defs>
</svg>
