<?xml version="1.0" encoding="utf-8" standalone="no"?>
<!DOCTYPE svg PUBLIC "-//W3C//DTD SVG 1.1//EN"
  "http://www.w3.org/Graphics/SVG/1.1/DTD/svg11.dtd">
<svg height="360pt" version="1.1" viewBox="0 0 576 360" width="576pt" xmlns="http://www.w3.org/2000/svg" xmlns:xlink="http://www.w3.org/1999/xlink">
 <metadata>
  <rdf:RDF xmlns:cc="http://creativecommons.org/ns#" xmlns:dc="http://purl.org/dc/elements/1.1/" xmlns:rdf="http://www.w3.org/1999/02/22-rdf-syntax-ns#">
   <cc:Work>
    <dc:type rdf:resource="http://purl.org/dc/dcmitype/StillImage"/>
    <dc:date>2022-06-30T14:32:07.374149</dc:date>
    <dc:format>image/svg+xml</dc:format>
    <dc:creator>
     <cc:Agent>
      <dc:title>Matplotlib v3.4.3, https://matplotlib.org/</dc:title>
     </cc:Agent>
    </dc:creator>
   </cc:Work>
  </rdf:RDF>
 </metadata>
 <defs>
  <style type="text/css">*{stroke-linecap:butt;stroke-linejoin:round;}</style>
 </defs>
 <g id="figure_1">
  <g id="patch_1">
   <path d="M 0 360 
L 576 360 
L 576 0 
L 0 0 
z
" style="fill:#ffffff;"/>
  </g>
  <g id="axes_1">
   <g id="patch_2">
    <path d="M 72 320.4 
L 518.4 320.4 
L 518.4 43.2 
L 72 43.2 
z
" style="fill:#ffffff;"/>
   </g>
   <g id="PolyCollection_1">
    <defs>
     <path d="M 72 -122.986821 
L 72 -132.742776 
L 73.065394 -132.742776 
L 74.130788 -132.742776 
L 75.196181 -132.742776 
L 76.261575 -132.742776 
L 77.326969 -132.742776 
L 78.392363 -132.742776 
L 79.457757 -132.742776 
L 80.52315 -132.742776 
L 81.588544 -132.742776 
L 82.653938 -132.742776 
L 83.719332 -132.742776 
L 84.784726 -132.742776 
L 85.850119 -132.742776 
L 86.915513 -132.742776 
L 87.980907 -132.742776 
L 89.046301 -132.742776 
L 90.111695 -132.742776 
L 91.177088 -132.742776 
L 92.242482 -132.742776 
L 93.307876 -132.742776 
L 94.37327 -132.742776 
L 95.438663 -132.742776 
L 96.504057 -132.742776 
L 97.569451 -132.742776 
L 98.634845 -132.742776 
L 99.700239 -132.742776 
L 100.765632 -132.742776 
L 101.831026 -132.742776 
L 102.89642 -132.742776 
L 103.961814 -132.742776 
L 105.027208 -132.742776 
L 106.092601 -132.742776 
L 107.157995 -132.742776 
L 108.223389 -132.742776 
L 109.288783 -132.742776 
L 110.354177 -132.742776 
L 111.41957 -132.742776 
L 112.484964 -132.742776 
L 113.550358 -132.742776 
L 114.615752 -132.742776 
L 115.681146 -132.742776 
L 116.746539 -132.742776 
L 117.811933 -132.742776 
L 118.877327 -132.742776 
L 119.942721 -132.742776 
L 121.008115 -132.742776 
L 122.073508 -132.742776 
L 123.138902 -132.742776 
L 124.204296 -132.742776 
L 125.26969 -132.742776 
L 126.335084 -132.742776 
L 127.400477 -132.742776 
L 128.465871 -132.742776 
L 129.531265 -132.742776 
L 130.596659 -132.742776 
L 131.662053 -132.742776 
L 132.727446 -132.742776 
L 133.79284 -132.742776 
L 134.858234 -132.742776 
L 135.923628 -132.742776 
L 136.989021 -132.742776 
L 138.054415 -132.742776 
L 139.119809 -132.742776 
L 140.185203 -132.742776 
L 141.250597 -132.742776 
L 142.31599 -132.742776 
L 143.381384 -132.742776 
L 144.446778 -132.742776 
L 145.512172 -132.742776 
L 146.577566 -132.742776 
L 147.642959 -132.742776 
L 148.708353 -132.742776 
L 149.773747 -132.742776 
L 150.839141 -132.742776 
L 151.904535 -132.742776 
L 152.969928 -132.742776 
L 154.035322 -132.742776 
L 155.100716 -132.742776 
L 156.16611 -132.742776 
L 157.231504 -132.742776 
L 158.296897 -132.742776 
L 159.362291 -132.742776 
L 160.427685 -132.742776 
L 161.493079 -132.742776 
L 162.558473 -132.742776 
L 163.623866 -132.742776 
L 164.68926 -132.742776 
L 165.754654 -132.742776 
L 166.820048 -132.742776 
L 167.885442 -132.742776 
L 168.950835 -132.742776 
L 170.016229 -132.742776 
L 171.081623 -132.742776 
L 172.147017 -132.742776 
L 173.212411 -132.742776 
L 174.277804 -132.742776 
L 175.343198 -132.742776 
L 176.408592 -132.742776 
L 177.473986 -132.742776 
L 178.539379 -132.742776 
L 179.604773 -132.742776 
L 180.670167 -132.742776 
L 181.735561 -132.742776 
L 182.800955 -132.742776 
L 183.866348 -132.742776 
L 184.931742 -132.742776 
L 185.997136 -132.742776 
L 187.06253 -132.742776 
L 188.127924 -132.742776 
L 189.193317 -132.742776 
L 190.258711 -132.742776 
L 191.324105 -132.742776 
L 192.389499 -132.742776 
L 193.454893 -132.742776 
L 194.520286 -132.742776 
L 195.58568 -132.742776 
L 196.651074 -132.742776 
L 197.716468 -132.742776 
L 198.781862 -132.742776 
L 199.847255 -132.742776 
L 200.912649 -132.742776 
L 201.978043 -132.742776 
L 203.043437 -132.742776 
L 204.108831 -132.742776 
L 205.174224 -132.742776 
L 206.239618 -132.742776 
L 207.305012 -132.742776 
L 208.370406 -132.742776 
L 209.4358 -132.742776 
L 210.501193 -132.742776 
L 211.566587 -132.742776 
L 212.631981 -132.742776 
L 213.697375 -132.742776 
L 214.762768 -132.742776 
L 215.828162 -132.742776 
L 216.893556 -132.742776 
L 217.95895 -132.742776 
L 219.024344 -132.742776 
L 220.089737 -132.742776 
L 221.155131 -132.742776 
L 222.220525 -132.742776 
L 223.285919 -132.742776 
L 224.351313 -132.742776 
L 225.416706 -132.742776 
L 226.4821 -132.742776 
L 227.547494 -132.742776 
L 228.612888 -132.742776 
L 229.678282 -132.742776 
L 230.743675 -132.742776 
L 231.809069 -132.742776 
L 232.874463 -132.742776 
L 233.939857 -132.742776 
L 235.005251 -132.742776 
L 236.070644 -132.742776 
L 237.136038 -132.742776 
L 238.201432 -132.742776 
L 239.266826 -132.742776 
L 240.33222 -132.742776 
L 241.397613 -132.742776 
L 242.463007 -132.742776 
L 243.528401 -132.742776 
L 244.593795 -132.742776 
L 245.659189 -132.742776 
L 246.724582 -132.742776 
L 247.789976 -132.742776 
L 248.85537 -132.742776 
L 249.920764 -132.742776 
L 250.986158 -132.742776 
L 252.051551 -132.742776 
L 253.116945 -132.742776 
L 254.182339 -132.742776 
L 255.247733 -132.742776 
L 256.313126 -132.742776 
L 257.37852 -132.742776 
L 258.443914 -132.742776 
L 259.509308 -132.742776 
L 260.574702 -132.742776 
L 261.640095 -132.742776 
L 262.705489 -132.742776 
L 263.770883 -132.742776 
L 264.836277 -132.742776 
L 265.901671 -132.742776 
L 266.967064 -132.742776 
L 268.032458 -132.742776 
L 269.097852 -132.742776 
L 270.163246 -132.742776 
L 271.22864 -132.742776 
L 272.294033 -132.742776 
L 273.359427 -132.742776 
L 274.424821 -132.742776 
L 275.490215 -132.742776 
L 276.555609 -132.742776 
L 277.621002 -132.742776 
L 278.686396 -132.742776 
L 279.75179 -132.742776 
L 280.817184 -132.742776 
L 281.882578 -132.742776 
L 282.947971 -132.742776 
L 284.013365 -132.742776 
L 285.078759 -132.742776 
L 286.144153 -132.742776 
L 287.209547 -132.742776 
L 288.27494 -132.742776 
L 289.340334 -132.742776 
L 290.405728 -132.742776 
L 291.471122 -132.742776 
L 292.536516 -132.742776 
L 293.601909 -132.742776 
L 294.667303 -132.742776 
L 295.732697 -132.742776 
L 296.798091 -132.742776 
L 297.863484 -132.742776 
L 298.928878 -132.742776 
L 299.994272 -132.742776 
L 301.059666 -132.742776 
L 302.12506 -132.742776 
L 303.190453 -132.742776 
L 304.255847 -132.742776 
L 305.321241 -132.742776 
L 306.386635 -132.742776 
L 307.452029 -132.742776 
L 308.517422 -132.742776 
L 309.582816 -132.742776 
L 310.64821 -132.742776 
L 311.713604 -132.742776 
L 312.778998 -132.742776 
L 313.844391 -132.742776 
L 314.909785 -132.742776 
L 315.975179 -132.742776 
L 317.040573 -132.742776 
L 318.105967 -132.742776 
L 319.17136 -132.742776 
L 320.236754 -132.742776 
L 321.302148 -132.742776 
L 322.367542 -132.742776 
L 323.432936 -132.742776 
L 324.498329 -132.742776 
L 325.563723 -132.742776 
L 326.629117 -132.742776 
L 327.694511 -132.742776 
L 328.759905 -132.742776 
L 329.825298 -132.742776 
L 330.890692 -132.742776 
L 331.956086 -132.742776 
L 333.02148 -132.742776 
L 334.086874 -132.742776 
L 335.152267 -132.742776 
L 336.217661 -132.742776 
L 337.283055 -132.742776 
L 338.348449 -132.742776 
L 339.413842 -132.742776 
L 340.479236 -132.742776 
L 341.54463 -132.742776 
L 342.610024 -132.742776 
L 343.675418 -132.742776 
L 344.740811 -132.742776 
L 345.806205 -132.742776 
L 346.871599 -132.742776 
L 347.936993 -132.742776 
L 349.002387 -132.742776 
L 350.06778 -132.742776 
L 351.133174 -132.742776 
L 352.198568 -132.742776 
L 353.263962 -132.742776 
L 354.329356 -132.742776 
L 355.394749 -132.742776 
L 356.460143 -132.742776 
L 357.525537 -132.742776 
L 358.590931 -132.742776 
L 359.656325 -132.742776 
L 360.721718 -132.742776 
L 361.787112 -132.742776 
L 362.852506 -132.742776 
L 363.9179 -132.742776 
L 364.983294 -132.742776 
L 366.048687 -132.742776 
L 367.114081 -132.742776 
L 368.179475 -132.742776 
L 369.244869 -132.742776 
L 370.310263 -132.742776 
L 371.375656 -132.742776 
L 372.44105 -132.742776 
L 373.506444 -132.742776 
L 374.571838 -132.742776 
L 375.637232 -132.742776 
L 376.702625 -132.742776 
L 377.768019 -132.742776 
L 378.833413 -132.742776 
L 379.898807 -132.742776 
L 380.9642 -132.742776 
L 382.029594 -132.742776 
L 383.094988 -132.742776 
L 384.160382 -132.742776 
L 385.225776 -132.742776 
L 386.291169 -132.742776 
L 387.356563 -132.742776 
L 388.421957 -132.742776 
L 389.487351 -132.742776 
L 390.552745 -132.742776 
L 391.618138 -132.742776 
L 392.683532 -132.742776 
L 393.748926 -132.742776 
L 394.81432 -132.742776 
L 395.879714 -132.742776 
L 396.945107 -132.742776 
L 398.010501 -132.742776 
L 399.075895 -132.742776 
L 400.141289 -132.742776 
L 401.206683 -132.742776 
L 402.272076 -132.742776 
L 403.33747 -132.742776 
L 404.402864 -132.742776 
L 405.468258 -132.742776 
L 406.533652 -132.742776 
L 407.599045 -132.742776 
L 408.664439 -132.742776 
L 409.729833 -132.742776 
L 410.795227 -132.742776 
L 411.860621 -132.742776 
L 412.926014 -132.742776 
L 413.991408 -132.742776 
L 415.056802 -132.742776 
L 416.122196 -132.742776 
L 417.187589 -132.742776 
L 418.252983 -132.742776 
L 419.318377 -132.742776 
L 420.383771 -132.742776 
L 421.449165 -132.742776 
L 422.514558 -132.742776 
L 423.579952 -132.742776 
L 424.645346 -132.742776 
L 425.71074 -132.742776 
L 426.776134 -132.742776 
L 427.841527 -132.742776 
L 428.906921 -132.742776 
L 429.972315 -132.742776 
L 431.037709 -132.742776 
L 432.103103 -132.742776 
L 433.168496 -132.742776 
L 434.23389 -132.742776 
L 435.299284 -132.742776 
L 436.364678 -132.742776 
L 437.430072 -132.742776 
L 438.495465 -132.742776 
L 439.560859 -132.742776 
L 440.626253 -132.742776 
L 441.691647 -132.742776 
L 442.757041 -132.742776 
L 443.822434 -132.742776 
L 444.887828 -132.742776 
L 445.953222 -132.742776 
L 447.018616 -132.742776 
L 448.08401 -132.742776 
L 449.149403 -132.742776 
L 450.214797 -132.742776 
L 451.280191 -132.742776 
L 452.345585 -132.742776 
L 453.410979 -132.742776 
L 454.476372 -132.742776 
L 455.541766 -132.742776 
L 456.60716 -132.742776 
L 457.672554 -132.742776 
L 458.737947 -132.742776 
L 459.803341 -132.742776 
L 460.868735 -132.742776 
L 461.934129 -132.742776 
L 462.999523 -132.742776 
L 464.064916 -132.742776 
L 465.13031 -132.742776 
L 466.195704 -132.742776 
L 467.261098 -132.742776 
L 468.326492 -132.742776 
L 469.391885 -132.742776 
L 470.457279 -132.742776 
L 471.522673 -132.742776 
L 472.588067 -132.742776 
L 473.653461 -132.742776 
L 474.718854 -132.742776 
L 475.784248 -132.742776 
L 476.849642 -132.742776 
L 477.915036 -132.742776 
L 478.98043 -132.742776 
L 480.045823 -132.742776 
L 481.111217 -132.742776 
L 482.176611 -132.742776 
L 483.242005 -132.742776 
L 484.307399 -132.742776 
L 485.372792 -132.742776 
L 486.438186 -132.742776 
L 487.50358 -132.742776 
L 488.568974 -132.742776 
L 489.634368 -132.742776 
L 490.699761 -132.742776 
L 491.765155 -132.742776 
L 492.830549 -132.742776 
L 493.895943 -132.742776 
L 494.961337 -132.742776 
L 496.02673 -132.742776 
L 497.092124 -132.742776 
L 498.157518 -132.742776 
L 499.222912 -132.742776 
L 500.288305 -132.742776 
L 501.353699 -132.742776 
L 502.419093 -132.742776 
L 503.484487 -132.742776 
L 504.549881 -132.742776 
L 505.615274 -132.742776 
L 506.680668 -132.742776 
L 507.746062 -132.742776 
L 508.811456 -132.742776 
L 509.87685 -132.742776 
L 510.942243 -132.742776 
L 512.007637 -132.742776 
L 513.073031 -132.742776 
L 514.138425 -132.742776 
L 515.203819 -132.742776 
L 516.269212 -132.742776 
L 517.334606 -132.742776 
L 518.4 -132.742776 
L 518.4 -122.986821 
L 518.4 -122.986821 
L 517.334606 -122.986821 
L 516.269212 -122.986821 
L 515.203819 -122.986821 
L 514.138425 -122.986821 
L 513.073031 -122.986821 
L 512.007637 -122.986821 
L 510.942243 -122.986821 
L 509.87685 -122.986821 
L 508.811456 -122.986821 
L 507.746062 -122.986821 
L 506.680668 -122.986821 
L 505.615274 -122.986821 
L 504.549881 -122.986821 
L 503.484487 -122.986821 
L 502.419093 -122.986821 
L 501.353699 -122.986821 
L 500.288305 -122.986821 
L 499.222912 -122.986821 
L 498.157518 -122.986821 
L 497.092124 -122.986821 
L 496.02673 -122.986821 
L 494.961337 -122.986821 
L 493.895943 -122.986821 
L 492.830549 -122.986821 
L 491.765155 -122.986821 
L 490.699761 -122.986821 
L 489.634368 -122.986821 
L 488.568974 -122.986821 
L 487.50358 -122.986821 
L 486.438186 -122.986821 
L 485.372792 -122.986821 
L 484.307399 -122.986821 
L 483.242005 -122.986821 
L 482.176611 -122.986821 
L 481.111217 -122.986821 
L 480.045823 -122.986821 
L 478.98043 -122.986821 
L 477.915036 -122.986821 
L 476.849642 -122.986821 
L 475.784248 -122.986821 
L 474.718854 -122.986821 
L 473.653461 -122.986821 
L 472.588067 -122.986821 
L 471.522673 -122.986821 
L 470.457279 -122.986821 
L 469.391885 -122.986821 
L 468.326492 -122.986821 
L 467.261098 -122.986821 
L 466.195704 -122.986821 
L 465.13031 -122.986821 
L 464.064916 -122.986821 
L 462.999523 -122.986821 
L 461.934129 -122.986821 
L 460.868735 -122.986821 
L 459.803341 -122.986821 
L 458.737947 -122.986821 
L 457.672554 -122.986821 
L 456.60716 -122.986821 
L 455.541766 -122.986821 
L 454.476372 -122.986821 
L 453.410979 -122.986821 
L 452.345585 -122.986821 
L 451.280191 -122.986821 
L 450.214797 -122.986821 
L 449.149403 -122.986821 
L 448.08401 -122.986821 
L 447.018616 -122.986821 
L 445.953222 -122.986821 
L 444.887828 -122.986821 
L 443.822434 -122.986821 
L 442.757041 -122.986821 
L 441.691647 -122.986821 
L 440.626253 -122.986821 
L 439.560859 -122.986821 
L 438.495465 -122.986821 
L 437.430072 -122.986821 
L 436.364678 -122.986821 
L 435.299284 -122.986821 
L 434.23389 -122.986821 
L 433.168496 -122.986821 
L 432.103103 -122.986821 
L 431.037709 -122.986821 
L 429.972315 -122.986821 
L 428.906921 -122.986821 
L 427.841527 -122.986821 
L 426.776134 -122.986821 
L 425.71074 -122.986821 
L 424.645346 -122.986821 
L 423.579952 -122.986821 
L 422.514558 -122.986821 
L 421.449165 -122.986821 
L 420.383771 -122.986821 
L 419.318377 -122.986821 
L 418.252983 -122.986821 
L 417.187589 -122.986821 
L 416.122196 -122.986821 
L 415.056802 -122.986821 
L 413.991408 -122.986821 
L 412.926014 -122.986821 
L 411.860621 -122.986821 
L 410.795227 -122.986821 
L 409.729833 -122.986821 
L 408.664439 -122.986821 
L 407.599045 -122.986821 
L 406.533652 -122.986821 
L 405.468258 -122.986821 
L 404.402864 -122.986821 
L 403.33747 -122.986821 
L 402.272076 -122.986821 
L 401.206683 -122.986821 
L 400.141289 -122.986821 
L 399.075895 -122.986821 
L 398.010501 -122.986821 
L 396.945107 -122.986821 
L 395.879714 -122.986821 
L 394.81432 -122.986821 
L 393.748926 -122.986821 
L 392.683532 -122.986821 
L 391.618138 -122.986821 
L 390.552745 -122.986821 
L 389.487351 -122.986821 
L 388.421957 -122.986821 
L 387.356563 -122.986821 
L 386.291169 -122.986821 
L 385.225776 -122.986821 
L 384.160382 -122.986821 
L 383.094988 -122.986821 
L 382.029594 -122.986821 
L 380.9642 -122.986821 
L 379.898807 -122.986821 
L 378.833413 -122.986821 
L 377.768019 -122.986821 
L 376.702625 -122.986821 
L 375.637232 -122.986821 
L 374.571838 -122.986821 
L 373.506444 -122.986821 
L 372.44105 -122.986821 
L 371.375656 -122.986821 
L 370.310263 -122.986821 
L 369.244869 -122.986821 
L 368.179475 -122.986821 
L 367.114081 -122.986821 
L 366.048687 -122.986821 
L 364.983294 -122.986821 
L 363.9179 -122.986821 
L 362.852506 -122.986821 
L 361.787112 -122.986821 
L 360.721718 -122.986821 
L 359.656325 -122.986821 
L 358.590931 -122.986821 
L 357.525537 -122.986821 
L 356.460143 -122.986821 
L 355.394749 -122.986821 
L 354.329356 -122.986821 
L 353.263962 -122.986821 
L 352.198568 -122.986821 
L 351.133174 -122.986821 
L 350.06778 -122.986821 
L 349.002387 -122.986821 
L 347.936993 -122.986821 
L 346.871599 -122.986821 
L 345.806205 -122.986821 
L 344.740811 -122.986821 
L 343.675418 -122.986821 
L 342.610024 -122.986821 
L 341.54463 -122.986821 
L 340.479236 -122.986821 
L 339.413842 -122.986821 
L 338.348449 -122.986821 
L 337.283055 -122.986821 
L 336.217661 -122.986821 
L 335.152267 -122.986821 
L 334.086874 -122.986821 
L 333.02148 -122.986821 
L 331.956086 -122.986821 
L 330.890692 -122.986821 
L 329.825298 -122.986821 
L 328.759905 -122.986821 
L 327.694511 -122.986821 
L 326.629117 -122.986821 
L 325.563723 -122.986821 
L 324.498329 -122.986821 
L 323.432936 -122.986821 
L 322.367542 -122.986821 
L 321.302148 -122.986821 
L 320.236754 -122.986821 
L 319.17136 -122.986821 
L 318.105967 -122.986821 
L 317.040573 -122.986821 
L 315.975179 -122.986821 
L 314.909785 -122.986821 
L 313.844391 -122.986821 
L 312.778998 -122.986821 
L 311.713604 -122.986821 
L 310.64821 -122.986821 
L 309.582816 -122.986821 
L 308.517422 -122.986821 
L 307.452029 -122.986821 
L 306.386635 -122.986821 
L 305.321241 -122.986821 
L 304.255847 -122.986821 
L 303.190453 -122.986821 
L 302.12506 -122.986821 
L 301.059666 -122.986821 
L 299.994272 -122.986821 
L 298.928878 -122.986821 
L 297.863484 -122.986821 
L 296.798091 -122.986821 
L 295.732697 -122.986821 
L 294.667303 -122.986821 
L 293.601909 -122.986821 
L 292.536516 -122.986821 
L 291.471122 -122.986821 
L 290.405728 -122.986821 
L 289.340334 -122.986821 
L 288.27494 -122.986821 
L 287.209547 -122.986821 
L 286.144153 -122.986821 
L 285.078759 -122.986821 
L 284.013365 -122.986821 
L 282.947971 -122.986821 
L 281.882578 -122.986821 
L 280.817184 -122.986821 
L 279.75179 -122.986821 
L 278.686396 -122.986821 
L 277.621002 -122.986821 
L 276.555609 -122.986821 
L 275.490215 -122.986821 
L 274.424821 -122.986821 
L 273.359427 -122.986821 
L 272.294033 -122.986821 
L 271.22864 -122.986821 
L 270.163246 -122.986821 
L 269.097852 -122.986821 
L 268.032458 -122.986821 
L 266.967064 -122.986821 
L 265.901671 -122.986821 
L 264.836277 -122.986821 
L 263.770883 -122.986821 
L 262.705489 -122.986821 
L 261.640095 -122.986821 
L 260.574702 -122.986821 
L 259.509308 -122.986821 
L 258.443914 -122.986821 
L 257.37852 -122.986821 
L 256.313126 -122.986821 
L 255.247733 -122.986821 
L 254.182339 -122.986821 
L 253.116945 -122.986821 
L 252.051551 -122.986821 
L 250.986158 -122.986821 
L 249.920764 -122.986821 
L 248.85537 -122.986821 
L 247.789976 -122.986821 
L 246.724582 -122.986821 
L 245.659189 -122.986821 
L 244.593795 -122.986821 
L 243.528401 -122.986821 
L 242.463007 -122.986821 
L 241.397613 -122.986821 
L 240.33222 -122.986821 
L 239.266826 -122.986821 
L 238.201432 -122.986821 
L 237.136038 -122.986821 
L 236.070644 -122.986821 
L 235.005251 -122.986821 
L 233.939857 -122.986821 
L 232.874463 -122.986821 
L 231.809069 -122.986821 
L 230.743675 -122.986821 
L 229.678282 -122.986821 
L 228.612888 -122.986821 
L 227.547494 -122.986821 
L 226.4821 -122.986821 
L 225.416706 -122.986821 
L 224.351313 -122.986821 
L 223.285919 -122.986821 
L 222.220525 -122.986821 
L 221.155131 -122.986821 
L 220.089737 -122.986821 
L 219.024344 -122.986821 
L 217.95895 -122.986821 
L 216.893556 -122.986821 
L 215.828162 -122.986821 
L 214.762768 -122.986821 
L 213.697375 -122.986821 
L 212.631981 -122.986821 
L 211.566587 -122.986821 
L 210.501193 -122.986821 
L 209.4358 -122.986821 
L 208.370406 -122.986821 
L 207.305012 -122.986821 
L 206.239618 -122.986821 
L 205.174224 -122.986821 
L 204.108831 -122.986821 
L 203.043437 -122.986821 
L 201.978043 -122.986821 
L 200.912649 -122.986821 
L 199.847255 -122.986821 
L 198.781862 -122.986821 
L 197.716468 -122.986821 
L 196.651074 -122.986821 
L 195.58568 -122.986821 
L 194.520286 -122.986821 
L 193.454893 -122.986821 
L 192.389499 -122.986821 
L 191.324105 -122.986821 
L 190.258711 -122.986821 
L 189.193317 -122.986821 
L 188.127924 -122.986821 
L 187.06253 -122.986821 
L 185.997136 -122.986821 
L 184.931742 -122.986821 
L 183.866348 -122.986821 
L 182.800955 -122.986821 
L 181.735561 -122.986821 
L 180.670167 -122.986821 
L 179.604773 -122.986821 
L 178.539379 -122.986821 
L 177.473986 -122.986821 
L 176.408592 -122.986821 
L 175.343198 -122.986821 
L 174.277804 -122.986821 
L 173.212411 -122.986821 
L 172.147017 -122.986821 
L 171.081623 -122.986821 
L 170.016229 -122.986821 
L 168.950835 -122.986821 
L 167.885442 -122.986821 
L 166.820048 -122.986821 
L 165.754654 -122.986821 
L 164.68926 -122.986821 
L 163.623866 -122.986821 
L 162.558473 -122.986821 
L 161.493079 -122.986821 
L 160.427685 -122.986821 
L 159.362291 -122.986821 
L 158.296897 -122.986821 
L 157.231504 -122.986821 
L 156.16611 -122.986821 
L 155.100716 -122.986821 
L 154.035322 -122.986821 
L 152.969928 -122.986821 
L 151.904535 -122.986821 
L 150.839141 -122.986821 
L 149.773747 -122.986821 
L 148.708353 -122.986821 
L 147.642959 -122.986821 
L 146.577566 -122.986821 
L 145.512172 -122.986821 
L 144.446778 -122.986821 
L 143.381384 -122.986821 
L 142.31599 -122.986821 
L 141.250597 -122.986821 
L 140.185203 -122.986821 
L 139.119809 -122.986821 
L 138.054415 -122.986821 
L 136.989021 -122.986821 
L 135.923628 -122.986821 
L 134.858234 -122.986821 
L 133.79284 -122.986821 
L 132.727446 -122.986821 
L 131.662053 -122.986821 
L 130.596659 -122.986821 
L 129.531265 -122.986821 
L 128.465871 -122.986821 
L 127.400477 -122.986821 
L 126.335084 -122.986821 
L 125.26969 -122.986821 
L 124.204296 -122.986821 
L 123.138902 -122.986821 
L 122.073508 -122.986821 
L 121.008115 -122.986821 
L 119.942721 -122.986821 
L 118.877327 -122.986821 
L 117.811933 -122.986821 
L 116.746539 -122.986821 
L 115.681146 -122.986821 
L 114.615752 -122.986821 
L 113.550358 -122.986821 
L 112.484964 -122.986821 
L 111.41957 -122.986821 
L 110.354177 -122.986821 
L 109.288783 -122.986821 
L 108.223389 -122.986821 
L 107.157995 -122.986821 
L 106.092601 -122.986821 
L 105.027208 -122.986821 
L 103.961814 -122.986821 
L 102.89642 -122.986821 
L 101.831026 -122.986821 
L 100.765632 -122.986821 
L 99.700239 -122.986821 
L 98.634845 -122.986821 
L 97.569451 -122.986821 
L 96.504057 -122.986821 
L 95.438663 -122.986821 
L 94.37327 -122.986821 
L 93.307876 -122.986821 
L 92.242482 -122.986821 
L 91.177088 -122.986821 
L 90.111695 -122.986821 
L 89.046301 -122.986821 
L 87.980907 -122.986821 
L 86.915513 -122.986821 
L 85.850119 -122.986821 
L 84.784726 -122.986821 
L 83.719332 -122.986821 
L 82.653938 -122.986821 
L 81.588544 -122.986821 
L 80.52315 -122.986821 
L 79.457757 -122.986821 
L 78.392363 -122.986821 
L 77.326969 -122.986821 
L 76.261575 -122.986821 
L 75.196181 -122.986821 
L 74.130788 -122.986821 
L 73.065394 -122.986821 
L 72 -122.986821 
z
" id="m95dd04db0d"/>
    </defs>
    <g clip-path="url(#p784f1ed19b)">
     <use style="fill-opacity:0.15;" x="0" xlink:href="#m95dd04db0d" y="360"/>
    </g>
   </g>
   <g id="matplotlib.axis_1">
    <g id="xtick_1">
     <g id="line2d_1">
      <defs>
       <path d="M 0 0 
L 0 3.5 
" id="m41f9e29005" style="stroke:#000000;stroke-width:0.8;"/>
      </defs>
      <g>
       <use style="stroke:#000000;stroke-width:0.8;" x="72" xlink:href="#m41f9e29005" y="320.4"/>
      </g>
     </g>
     <g id="text_1">
      <!-- 0.0 -->
      <g transform="translate(60.867812 338.037813)scale(0.14 -0.14)">
       <defs>
        <path d="M 2034 4250 
Q 1547 4250 1301 3770 
Q 1056 3291 1056 2328 
Q 1056 1369 1301 889 
Q 1547 409 2034 409 
Q 2525 409 2770 889 
Q 3016 1369 3016 2328 
Q 3016 3291 2770 3770 
Q 2525 4250 2034 4250 
z
M 2034 4750 
Q 2819 4750 3233 4129 
Q 3647 3509 3647 2328 
Q 3647 1150 3233 529 
Q 2819 -91 2034 -91 
Q 1250 -91 836 529 
Q 422 1150 422 2328 
Q 422 3509 836 4129 
Q 1250 4750 2034 4750 
z
" id="DejaVuSans-30" transform="scale(0.015625)"/>
        <path d="M 684 794 
L 1344 794 
L 1344 0 
L 684 0 
L 684 794 
z
" id="DejaVuSans-2e" transform="scale(0.015625)"/>
       </defs>
       <use xlink:href="#DejaVuSans-30"/>
       <use x="63.623047" xlink:href="#DejaVuSans-2e"/>
       <use x="95.410156" xlink:href="#DejaVuSans-30"/>
      </g>
     </g>
    </g>
    <g id="xtick_2">
     <g id="line2d_2">
      <g>
       <use style="stroke:#000000;stroke-width:0.8;" x="127.861448" xlink:href="#m41f9e29005" y="320.4"/>
      </g>
     </g>
     <g id="text_2">
      <!-- 2.5 -->
      <g transform="translate(116.72926 338.037813)scale(0.14 -0.14)">
       <defs>
        <path d="M 1228 531 
L 3431 531 
L 3431 0 
L 469 0 
L 469 531 
Q 828 903 1448 1529 
Q 2069 2156 2228 2338 
Q 2531 2678 2651 2914 
Q 2772 3150 2772 3378 
Q 2772 3750 2511 3984 
Q 2250 4219 1831 4219 
Q 1534 4219 1204 4116 
Q 875 4013 500 3803 
L 500 4441 
Q 881 4594 1212 4672 
Q 1544 4750 1819 4750 
Q 2544 4750 2975 4387 
Q 3406 4025 3406 3419 
Q 3406 3131 3298 2873 
Q 3191 2616 2906 2266 
Q 2828 2175 2409 1742 
Q 1991 1309 1228 531 
z
" id="DejaVuSans-32" transform="scale(0.015625)"/>
        <path d="M 691 4666 
L 3169 4666 
L 3169 4134 
L 1269 4134 
L 1269 2991 
Q 1406 3038 1543 3061 
Q 1681 3084 1819 3084 
Q 2600 3084 3056 2656 
Q 3513 2228 3513 1497 
Q 3513 744 3044 326 
Q 2575 -91 1722 -91 
Q 1428 -91 1123 -41 
Q 819 9 494 109 
L 494 744 
Q 775 591 1075 516 
Q 1375 441 1709 441 
Q 2250 441 2565 725 
Q 2881 1009 2881 1497 
Q 2881 1984 2565 2268 
Q 2250 2553 1709 2553 
Q 1456 2553 1204 2497 
Q 953 2441 691 2322 
L 691 4666 
z
" id="DejaVuSans-35" transform="scale(0.015625)"/>
       </defs>
       <use xlink:href="#DejaVuSans-32"/>
       <use x="63.623047" xlink:href="#DejaVuSans-2e"/>
       <use x="95.410156" xlink:href="#DejaVuSans-35"/>
      </g>
     </g>
    </g>
    <g id="xtick_3">
     <g id="line2d_3">
      <g>
       <use style="stroke:#000000;stroke-width:0.8;" x="183.722895" xlink:href="#m41f9e29005" y="320.4"/>
      </g>
     </g>
     <g id="text_3">
      <!-- 5.0 -->
      <g transform="translate(172.590708 338.037813)scale(0.14 -0.14)">
       <use xlink:href="#DejaVuSans-35"/>
       <use x="63.623047" xlink:href="#DejaVuSans-2e"/>
       <use x="95.410156" xlink:href="#DejaVuSans-30"/>
      </g>
     </g>
    </g>
    <g id="xtick_4">
     <g id="line2d_4">
      <g>
       <use style="stroke:#000000;stroke-width:0.8;" x="239.584343" xlink:href="#m41f9e29005" y="320.4"/>
      </g>
     </g>
     <g id="text_4">
      <!-- 7.5 -->
      <g transform="translate(228.452155 338.037813)scale(0.14 -0.14)">
       <defs>
        <path d="M 525 4666 
L 3525 4666 
L 3525 4397 
L 1831 0 
L 1172 0 
L 2766 4134 
L 525 4134 
L 525 4666 
z
" id="DejaVuSans-37" transform="scale(0.015625)"/>
       </defs>
       <use xlink:href="#DejaVuSans-37"/>
       <use x="63.623047" xlink:href="#DejaVuSans-2e"/>
       <use x="95.410156" xlink:href="#DejaVuSans-35"/>
      </g>
     </g>
    </g>
    <g id="xtick_5">
     <g id="line2d_5">
      <g>
       <use style="stroke:#000000;stroke-width:0.8;" x="295.44579" xlink:href="#m41f9e29005" y="320.4"/>
      </g>
     </g>
     <g id="text_5">
      <!-- 10.0 -->
      <g transform="translate(279.859853 338.037813)scale(0.14 -0.14)">
       <defs>
        <path d="M 794 531 
L 1825 531 
L 1825 4091 
L 703 3866 
L 703 4441 
L 1819 4666 
L 2450 4666 
L 2450 531 
L 3481 531 
L 3481 0 
L 794 0 
L 794 531 
z
" id="DejaVuSans-31" transform="scale(0.015625)"/>
       </defs>
       <use xlink:href="#DejaVuSans-31"/>
       <use x="63.623047" xlink:href="#DejaVuSans-30"/>
       <use x="127.246094" xlink:href="#DejaVuSans-2e"/>
       <use x="159.033203" xlink:href="#DejaVuSans-30"/>
      </g>
     </g>
    </g>
    <g id="xtick_6">
     <g id="line2d_6">
      <g>
       <use style="stroke:#000000;stroke-width:0.8;" x="351.307238" xlink:href="#m41f9e29005" y="320.4"/>
      </g>
     </g>
     <g id="text_6">
      <!-- 12.5 -->
      <g transform="translate(335.7213 338.037813)scale(0.14 -0.14)">
       <use xlink:href="#DejaVuSans-31"/>
       <use x="63.623047" xlink:href="#DejaVuSans-32"/>
       <use x="127.246094" xlink:href="#DejaVuSans-2e"/>
       <use x="159.033203" xlink:href="#DejaVuSans-35"/>
      </g>
     </g>
    </g>
    <g id="xtick_7">
     <g id="line2d_7">
      <g>
       <use style="stroke:#000000;stroke-width:0.8;" x="407.168686" xlink:href="#m41f9e29005" y="320.4"/>
      </g>
     </g>
     <g id="text_7">
      <!-- 15.0 -->
      <g transform="translate(391.582748 338.037813)scale(0.14 -0.14)">
       <use xlink:href="#DejaVuSans-31"/>
       <use x="63.623047" xlink:href="#DejaVuSans-35"/>
       <use x="127.246094" xlink:href="#DejaVuSans-2e"/>
       <use x="159.033203" xlink:href="#DejaVuSans-30"/>
      </g>
     </g>
    </g>
    <g id="xtick_8">
     <g id="line2d_8">
      <g>
       <use style="stroke:#000000;stroke-width:0.8;" x="463.030133" xlink:href="#m41f9e29005" y="320.4"/>
      </g>
     </g>
     <g id="text_8">
      <!-- 17.5 -->
      <g transform="translate(447.444196 338.037813)scale(0.14 -0.14)">
       <use xlink:href="#DejaVuSans-31"/>
       <use x="63.623047" xlink:href="#DejaVuSans-37"/>
       <use x="127.246094" xlink:href="#DejaVuSans-2e"/>
       <use x="159.033203" xlink:href="#DejaVuSans-35"/>
      </g>
     </g>
    </g>
    <g id="text_9">
     <!-- Time [Seconds] -->
     <g transform="translate(233.23 357.106875)scale(0.16 -0.16)">
      <defs>
       <path d="M -19 4666 
L 3928 4666 
L 3928 4134 
L 2272 4134 
L 2272 0 
L 1638 0 
L 1638 4134 
L -19 4134 
L -19 4666 
z
" id="DejaVuSans-54" transform="scale(0.015625)"/>
       <path d="M 603 3500 
L 1178 3500 
L 1178 0 
L 603 0 
L 603 3500 
z
M 603 4863 
L 1178 4863 
L 1178 4134 
L 603 4134 
L 603 4863 
z
" id="DejaVuSans-69" transform="scale(0.015625)"/>
       <path d="M 3328 2828 
Q 3544 3216 3844 3400 
Q 4144 3584 4550 3584 
Q 5097 3584 5394 3201 
Q 5691 2819 5691 2113 
L 5691 0 
L 5113 0 
L 5113 2094 
Q 5113 2597 4934 2840 
Q 4756 3084 4391 3084 
Q 3944 3084 3684 2787 
Q 3425 2491 3425 1978 
L 3425 0 
L 2847 0 
L 2847 2094 
Q 2847 2600 2669 2842 
Q 2491 3084 2119 3084 
Q 1678 3084 1418 2786 
Q 1159 2488 1159 1978 
L 1159 0 
L 581 0 
L 581 3500 
L 1159 3500 
L 1159 2956 
Q 1356 3278 1631 3431 
Q 1906 3584 2284 3584 
Q 2666 3584 2933 3390 
Q 3200 3197 3328 2828 
z
" id="DejaVuSans-6d" transform="scale(0.015625)"/>
       <path d="M 3597 1894 
L 3597 1613 
L 953 1613 
Q 991 1019 1311 708 
Q 1631 397 2203 397 
Q 2534 397 2845 478 
Q 3156 559 3463 722 
L 3463 178 
Q 3153 47 2828 -22 
Q 2503 -91 2169 -91 
Q 1331 -91 842 396 
Q 353 884 353 1716 
Q 353 2575 817 3079 
Q 1281 3584 2069 3584 
Q 2775 3584 3186 3129 
Q 3597 2675 3597 1894 
z
M 3022 2063 
Q 3016 2534 2758 2815 
Q 2500 3097 2075 3097 
Q 1594 3097 1305 2825 
Q 1016 2553 972 2059 
L 3022 2063 
z
" id="DejaVuSans-65" transform="scale(0.015625)"/>
       <path id="DejaVuSans-20" transform="scale(0.015625)"/>
       <path d="M 550 4863 
L 1875 4863 
L 1875 4416 
L 1125 4416 
L 1125 -397 
L 1875 -397 
L 1875 -844 
L 550 -844 
L 550 4863 
z
" id="DejaVuSans-5b" transform="scale(0.015625)"/>
       <path d="M 3425 4513 
L 3425 3897 
Q 3066 4069 2747 4153 
Q 2428 4238 2131 4238 
Q 1616 4238 1336 4038 
Q 1056 3838 1056 3469 
Q 1056 3159 1242 3001 
Q 1428 2844 1947 2747 
L 2328 2669 
Q 3034 2534 3370 2195 
Q 3706 1856 3706 1288 
Q 3706 609 3251 259 
Q 2797 -91 1919 -91 
Q 1588 -91 1214 -16 
Q 841 59 441 206 
L 441 856 
Q 825 641 1194 531 
Q 1563 422 1919 422 
Q 2459 422 2753 634 
Q 3047 847 3047 1241 
Q 3047 1584 2836 1778 
Q 2625 1972 2144 2069 
L 1759 2144 
Q 1053 2284 737 2584 
Q 422 2884 422 3419 
Q 422 4038 858 4394 
Q 1294 4750 2059 4750 
Q 2388 4750 2728 4690 
Q 3069 4631 3425 4513 
z
" id="DejaVuSans-53" transform="scale(0.015625)"/>
       <path d="M 3122 3366 
L 3122 2828 
Q 2878 2963 2633 3030 
Q 2388 3097 2138 3097 
Q 1578 3097 1268 2742 
Q 959 2388 959 1747 
Q 959 1106 1268 751 
Q 1578 397 2138 397 
Q 2388 397 2633 464 
Q 2878 531 3122 666 
L 3122 134 
Q 2881 22 2623 -34 
Q 2366 -91 2075 -91 
Q 1284 -91 818 406 
Q 353 903 353 1747 
Q 353 2603 823 3093 
Q 1294 3584 2113 3584 
Q 2378 3584 2631 3529 
Q 2884 3475 3122 3366 
z
" id="DejaVuSans-63" transform="scale(0.015625)"/>
       <path d="M 1959 3097 
Q 1497 3097 1228 2736 
Q 959 2375 959 1747 
Q 959 1119 1226 758 
Q 1494 397 1959 397 
Q 2419 397 2687 759 
Q 2956 1122 2956 1747 
Q 2956 2369 2687 2733 
Q 2419 3097 1959 3097 
z
M 1959 3584 
Q 2709 3584 3137 3096 
Q 3566 2609 3566 1747 
Q 3566 888 3137 398 
Q 2709 -91 1959 -91 
Q 1206 -91 779 398 
Q 353 888 353 1747 
Q 353 2609 779 3096 
Q 1206 3584 1959 3584 
z
" id="DejaVuSans-6f" transform="scale(0.015625)"/>
       <path d="M 3513 2113 
L 3513 0 
L 2938 0 
L 2938 2094 
Q 2938 2591 2744 2837 
Q 2550 3084 2163 3084 
Q 1697 3084 1428 2787 
Q 1159 2491 1159 1978 
L 1159 0 
L 581 0 
L 581 3500 
L 1159 3500 
L 1159 2956 
Q 1366 3272 1645 3428 
Q 1925 3584 2291 3584 
Q 2894 3584 3203 3211 
Q 3513 2838 3513 2113 
z
" id="DejaVuSans-6e" transform="scale(0.015625)"/>
       <path d="M 2906 2969 
L 2906 4863 
L 3481 4863 
L 3481 0 
L 2906 0 
L 2906 525 
Q 2725 213 2448 61 
Q 2172 -91 1784 -91 
Q 1150 -91 751 415 
Q 353 922 353 1747 
Q 353 2572 751 3078 
Q 1150 3584 1784 3584 
Q 2172 3584 2448 3432 
Q 2725 3281 2906 2969 
z
M 947 1747 
Q 947 1113 1208 752 
Q 1469 391 1925 391 
Q 2381 391 2643 752 
Q 2906 1113 2906 1747 
Q 2906 2381 2643 2742 
Q 2381 3103 1925 3103 
Q 1469 3103 1208 2742 
Q 947 2381 947 1747 
z
" id="DejaVuSans-64" transform="scale(0.015625)"/>
       <path d="M 2834 3397 
L 2834 2853 
Q 2591 2978 2328 3040 
Q 2066 3103 1784 3103 
Q 1356 3103 1142 2972 
Q 928 2841 928 2578 
Q 928 2378 1081 2264 
Q 1234 2150 1697 2047 
L 1894 2003 
Q 2506 1872 2764 1633 
Q 3022 1394 3022 966 
Q 3022 478 2636 193 
Q 2250 -91 1575 -91 
Q 1294 -91 989 -36 
Q 684 19 347 128 
L 347 722 
Q 666 556 975 473 
Q 1284 391 1588 391 
Q 1994 391 2212 530 
Q 2431 669 2431 922 
Q 2431 1156 2273 1281 
Q 2116 1406 1581 1522 
L 1381 1569 
Q 847 1681 609 1914 
Q 372 2147 372 2553 
Q 372 3047 722 3315 
Q 1072 3584 1716 3584 
Q 2034 3584 2315 3537 
Q 2597 3491 2834 3397 
z
" id="DejaVuSans-73" transform="scale(0.015625)"/>
       <path d="M 1947 4863 
L 1947 -844 
L 622 -844 
L 622 -397 
L 1369 -397 
L 1369 4416 
L 622 4416 
L 622 4863 
L 1947 4863 
z
" id="DejaVuSans-5d" transform="scale(0.015625)"/>
      </defs>
      <use xlink:href="#DejaVuSans-54"/>
      <use x="57.958984" xlink:href="#DejaVuSans-69"/>
      <use x="85.742188" xlink:href="#DejaVuSans-6d"/>
      <use x="183.154297" xlink:href="#DejaVuSans-65"/>
      <use x="244.677734" xlink:href="#DejaVuSans-20"/>
      <use x="276.464844" xlink:href="#DejaVuSans-5b"/>
      <use x="315.478516" xlink:href="#DejaVuSans-53"/>
      <use x="378.955078" xlink:href="#DejaVuSans-65"/>
      <use x="440.478516" xlink:href="#DejaVuSans-63"/>
      <use x="495.458984" xlink:href="#DejaVuSans-6f"/>
      <use x="556.640625" xlink:href="#DejaVuSans-6e"/>
      <use x="620.019531" xlink:href="#DejaVuSans-64"/>
      <use x="683.496094" xlink:href="#DejaVuSans-73"/>
      <use x="735.595703" xlink:href="#DejaVuSans-5d"/>
     </g>
    </g>
   </g>
   <g id="matplotlib.axis_2">
    <g id="ytick_1">
     <g id="line2d_9">
      <defs>
       <path d="M 0 0 
L -3.5 0 
" id="m8ee0ef7078" style="stroke:#000000;stroke-width:0.8;"/>
      </defs>
      <g>
       <use style="stroke:#000000;stroke-width:0.8;" x="72" xlink:href="#m8ee0ef7078" y="296.152032"/>
      </g>
     </g>
     <g id="text_10">
      <!-- 0.00 -->
      <g transform="translate(33.828125 301.470938)scale(0.14 -0.14)">
       <use xlink:href="#DejaVuSans-30"/>
       <use x="63.623047" xlink:href="#DejaVuSans-2e"/>
       <use x="95.410156" xlink:href="#DejaVuSans-30"/>
       <use x="159.033203" xlink:href="#DejaVuSans-30"/>
      </g>
     </g>
    </g>
    <g id="ytick_2">
     <g id="line2d_10">
      <g>
       <use style="stroke:#000000;stroke-width:0.8;" x="72" xlink:href="#m8ee0ef7078" y="259.541107"/>
      </g>
     </g>
     <g id="text_11">
      <!-- 0.25 -->
      <g transform="translate(33.828125 264.860014)scale(0.14 -0.14)">
       <use xlink:href="#DejaVuSans-30"/>
       <use x="63.623047" xlink:href="#DejaVuSans-2e"/>
       <use x="95.410156" xlink:href="#DejaVuSans-32"/>
       <use x="159.033203" xlink:href="#DejaVuSans-35"/>
      </g>
     </g>
    </g>
    <g id="ytick_3">
     <g id="line2d_11">
      <g>
       <use style="stroke:#000000;stroke-width:0.8;" x="72" xlink:href="#m8ee0ef7078" y="222.930183"/>
      </g>
     </g>
     <g id="text_12">
      <!-- 0.50 -->
      <g transform="translate(33.828125 228.24909)scale(0.14 -0.14)">
       <use xlink:href="#DejaVuSans-30"/>
       <use x="63.623047" xlink:href="#DejaVuSans-2e"/>
       <use x="95.410156" xlink:href="#DejaVuSans-35"/>
       <use x="159.033203" xlink:href="#DejaVuSans-30"/>
      </g>
     </g>
    </g>
    <g id="ytick_4">
     <g id="line2d_12">
      <g>
       <use style="stroke:#000000;stroke-width:0.8;" x="72" xlink:href="#m8ee0ef7078" y="186.319259"/>
      </g>
     </g>
     <g id="text_13">
      <!-- 0.75 -->
      <g transform="translate(33.828125 191.638166)scale(0.14 -0.14)">
       <use xlink:href="#DejaVuSans-30"/>
       <use x="63.623047" xlink:href="#DejaVuSans-2e"/>
       <use x="95.410156" xlink:href="#DejaVuSans-37"/>
       <use x="159.033203" xlink:href="#DejaVuSans-35"/>
      </g>
     </g>
    </g>
    <g id="ytick_5">
     <g id="line2d_13">
      <g>
       <use style="stroke:#000000;stroke-width:0.8;" x="72" xlink:href="#m8ee0ef7078" y="149.708335"/>
      </g>
     </g>
     <g id="text_14">
      <!-- 1.00 -->
      <g transform="translate(33.828125 155.027241)scale(0.14 -0.14)">
       <use xlink:href="#DejaVuSans-31"/>
       <use x="63.623047" xlink:href="#DejaVuSans-2e"/>
       <use x="95.410156" xlink:href="#DejaVuSans-30"/>
       <use x="159.033203" xlink:href="#DejaVuSans-30"/>
      </g>
     </g>
    </g>
    <g id="ytick_6">
     <g id="line2d_14">
      <g>
       <use style="stroke:#000000;stroke-width:0.8;" x="72" xlink:href="#m8ee0ef7078" y="113.097411"/>
      </g>
     </g>
     <g id="text_15">
      <!-- 1.25 -->
      <g transform="translate(33.828125 118.416317)scale(0.14 -0.14)">
       <use xlink:href="#DejaVuSans-31"/>
       <use x="63.623047" xlink:href="#DejaVuSans-2e"/>
       <use x="95.410156" xlink:href="#DejaVuSans-32"/>
       <use x="159.033203" xlink:href="#DejaVuSans-35"/>
      </g>
     </g>
    </g>
    <g id="ytick_7">
     <g id="line2d_15">
      <g>
       <use style="stroke:#000000;stroke-width:0.8;" x="72" xlink:href="#m8ee0ef7078" y="76.486487"/>
      </g>
     </g>
     <g id="text_16">
      <!-- 1.50 -->
      <g transform="translate(33.828125 81.805393)scale(0.14 -0.14)">
       <use xlink:href="#DejaVuSans-31"/>
       <use x="63.623047" xlink:href="#DejaVuSans-2e"/>
       <use x="95.410156" xlink:href="#DejaVuSans-35"/>
       <use x="159.033203" xlink:href="#DejaVuSans-30"/>
      </g>
     </g>
    </g>
    <g id="text_17">
     <!-- Speed [mm/s] -->
     <g transform="translate(26.500625 238.11375)rotate(-90)scale(0.16 -0.16)">
      <defs>
       <path d="M 1159 525 
L 1159 -1331 
L 581 -1331 
L 581 3500 
L 1159 3500 
L 1159 2969 
Q 1341 3281 1617 3432 
Q 1894 3584 2278 3584 
Q 2916 3584 3314 3078 
Q 3713 2572 3713 1747 
Q 3713 922 3314 415 
Q 2916 -91 2278 -91 
Q 1894 -91 1617 61 
Q 1341 213 1159 525 
z
M 3116 1747 
Q 3116 2381 2855 2742 
Q 2594 3103 2138 3103 
Q 1681 3103 1420 2742 
Q 1159 2381 1159 1747 
Q 1159 1113 1420 752 
Q 1681 391 2138 391 
Q 2594 391 2855 752 
Q 3116 1113 3116 1747 
z
" id="DejaVuSans-70" transform="scale(0.015625)"/>
       <path d="M 1625 4666 
L 2156 4666 
L 531 -594 
L 0 -594 
L 1625 4666 
z
" id="DejaVuSans-2f" transform="scale(0.015625)"/>
      </defs>
      <use xlink:href="#DejaVuSans-53"/>
      <use x="63.476562" xlink:href="#DejaVuSans-70"/>
      <use x="126.953125" xlink:href="#DejaVuSans-65"/>
      <use x="188.476562" xlink:href="#DejaVuSans-65"/>
      <use x="250" xlink:href="#DejaVuSans-64"/>
      <use x="313.476562" xlink:href="#DejaVuSans-20"/>
      <use x="345.263672" xlink:href="#DejaVuSans-5b"/>
      <use x="384.277344" xlink:href="#DejaVuSans-6d"/>
      <use x="481.689453" xlink:href="#DejaVuSans-6d"/>
      <use x="579.101562" xlink:href="#DejaVuSans-2f"/>
      <use x="612.792969" xlink:href="#DejaVuSans-73"/>
      <use x="664.892578" xlink:href="#DejaVuSans-5d"/>
     </g>
    </g>
   </g>
   <g id="line2d_16">
    <path clip-path="url(#p784f1ed19b)" d="M 72 232.135202 
L 518.4 232.135202 
" style="fill:none;stroke:#000000;stroke-dasharray:5.55,2.4;stroke-dashoffset:0;stroke-width:1.5;"/>
   </g>
   <g id="line2d_17">
    <path clip-path="url(#p784f1ed19b)" d="M 72 292.64673 
L 143.381384 292.632358 
L 144.446778 292.77347 
L 145.512172 290.762458 
L 146.577566 290.345234 
L 147.642959 293.72161 
L 148.708353 294.794437 
L 149.773747 294.957816 
L 150.839141 290.519239 
L 151.904535 291.901213 
L 152.969928 304.68512 
L 154.035322 307.8 
L 155.100716 289.514662 
L 156.16611 257.407769 
L 157.231504 219.885868 
L 159.362291 128.889035 
L 160.427685 93.965553 
L 161.493079 67.949473 
L 162.558473 55.8 
L 163.623866 58.467301 
L 164.68926 73.913377 
L 165.754654 99.821916 
L 167.885442 161.109774 
L 168.950835 192.285023 
L 170.016229 211.681562 
L 171.081623 215.561079 
L 172.147017 204.934851 
L 173.212411 199.376453 
L 175.343198 209.680254 
L 176.408592 208.891371 
L 177.473986 209.162018 
L 178.539379 215.46222 
L 179.604773 213.626991 
L 180.670167 214.165566 
L 181.735561 217.414568 
L 182.800955 214.276251 
L 183.866348 216.421017 
L 184.931742 217.487156 
L 185.997136 217.077598 
L 187.06253 221.58793 
L 188.127924 223.822125 
L 190.258711 226.010708 
L 191.324105 225.909046 
L 192.389499 225.049008 
L 193.454893 225.099152 
L 194.520286 223.170284 
L 195.58568 221.521983 
L 196.651074 225.794201 
L 197.716468 226.974397 
L 198.781862 225.866641 
L 199.847255 227.947331 
L 200.912649 227.488039 
L 203.043437 235.097159 
L 204.108831 231.646452 
L 205.174224 234.443065 
L 206.239618 236.056517 
L 207.305012 233.155365 
L 208.370406 231.948075 
L 209.4358 229.984908 
L 211.566587 230.941375 
L 212.631981 230.879571 
L 213.697375 232.819934 
L 214.762768 231.964293 
L 215.828162 224.812021 
L 216.893556 224.181382 
L 217.95895 230.280682 
L 219.024344 232.042821 
L 220.089737 230.646721 
L 221.155131 230.458074 
L 222.220525 229.489569 
L 224.351313 234.190575 
L 225.416706 231.255479 
L 226.4821 233.430229 
L 227.547494 237.122659 
L 228.612888 235.994444 
L 229.678282 232.788894 
L 230.743675 232.552953 
L 231.809069 233.532202 
L 232.874463 232.868885 
L 233.939857 231.926709 
L 235.005251 233.854204 
L 236.070644 234.560767 
L 237.136038 230.293033 
L 238.201432 230.003524 
L 239.266826 231.373376 
L 240.33222 232.124593 
L 241.397613 233.268199 
L 242.463007 233.476969 
L 243.528401 232.507413 
L 244.593795 233.310287 
L 245.659189 232.863412 
L 246.724582 229.834635 
L 247.789976 230.038588 
L 248.85537 230.457535 
L 249.920764 229.416425 
L 250.986158 230.099372 
L 252.051551 233.24052 
L 254.182339 234.048659 
L 255.247733 234.801855 
L 256.313126 234.840327 
L 257.37852 236.482251 
L 258.443914 236.697269 
L 259.509308 236.001879 
L 260.574702 233.224779 
L 261.640095 231.472458 
L 262.705489 231.609095 
L 263.770883 230.70582 
L 264.836277 229.554854 
L 265.901671 229.480873 
L 268.032458 231.111253 
L 269.097852 232.827608 
L 270.163246 233.659012 
L 271.22864 232.164452 
L 272.294033 233.142945 
L 273.359427 233.500595 
L 274.424821 233.079468 
L 275.490215 235.994971 
L 276.555609 237.101327 
L 277.621002 235.082639 
L 278.686396 233.636222 
L 279.75179 232.939041 
L 280.817184 232.050082 
L 281.882578 231.984358 
L 282.947971 232.040818 
L 284.013365 233.870472 
L 285.078759 234.953158 
L 286.144153 233.496655 
L 287.209547 233.013791 
L 289.340334 234.009414 
L 290.405728 235.481416 
L 291.471122 235.745458 
L 292.536516 235.119325 
L 293.601909 235.158619 
L 294.667303 232.647611 
L 295.732697 231.777376 
L 296.798091 231.710095 
L 297.863484 232.444326 
L 298.928878 234.86838 
L 299.994272 234.904032 
L 301.059666 234.045149 
L 302.12506 234.204017 
L 303.190453 232.463052 
L 304.255847 230.431047 
L 305.321241 231.276696 
L 306.386635 231.773887 
L 307.452029 230.739375 
L 309.582816 232.696068 
L 310.64821 230.836761 
L 312.778998 233.136835 
L 313.844391 234.217464 
L 314.909785 235.57677 
L 317.040573 235.340874 
L 318.105967 234.645465 
L 319.17136 234.973317 
L 320.236754 234.30114 
L 321.302148 233.976334 
L 322.367542 235.007794 
L 323.432936 235.830021 
L 324.498329 233.047569 
L 325.563723 232.076576 
L 326.629117 232.930061 
L 327.694511 233.208216 
L 328.759905 233.320992 
L 329.825298 232.963733 
L 330.890692 233.032507 
L 331.956086 232.856552 
L 333.02148 234.762719 
L 334.086874 233.523607 
L 336.217661 234.406161 
L 337.283055 233.50347 
L 340.479236 233.663265 
L 341.54463 232.682964 
L 342.610024 233.357338 
L 343.675418 234.40395 
L 344.740811 233.800194 
L 345.806205 232.459263 
L 346.871599 233.02491 
L 347.936993 233.315512 
L 349.002387 235.222807 
L 350.06778 235.135 
L 351.133174 232.601983 
L 352.198568 232.12494 
L 353.263962 233.90432 
L 354.329356 233.944855 
L 355.394749 232.001076 
L 356.460143 232.371806 
L 357.525537 231.945677 
L 358.590931 233.19451 
L 359.656325 233.726087 
L 360.721718 231.037206 
L 361.787112 231.804163 
L 362.852506 234.026212 
L 363.9179 234.142813 
L 364.983294 234.540646 
L 366.048687 234.363254 
L 367.114081 234.477277 
L 368.179475 234.18773 
L 369.244869 234.394964 
L 370.310263 236.048146 
L 371.375656 236.258377 
L 372.44105 235.786243 
L 373.506444 233.834659 
L 374.571838 233.76996 
L 375.637232 234.605443 
L 376.702625 234.551746 
L 377.768019 233.016631 
L 378.833413 232.341193 
L 379.898807 232.967699 
L 380.9642 231.940008 
L 382.029594 230.195592 
L 383.094988 230.718827 
L 384.160382 231.868967 
L 385.225776 231.823476 
L 386.291169 232.281665 
L 387.356563 233.346673 
L 388.421957 236.501304 
L 389.487351 236.509953 
L 390.552745 235.871737 
L 391.618138 235.923185 
L 392.683532 235.570071 
L 393.748926 235.564765 
L 394.81432 233.052434 
L 395.879714 232.035361 
L 396.945107 231.636364 
L 399.075895 233.150835 
L 400.141289 233.887112 
L 401.206683 235.360642 
L 402.272076 235.36608 
L 403.33747 234.938831 
L 404.402864 233.85477 
L 405.468258 233.373046 
L 406.533652 232.726206 
L 407.599045 231.146307 
L 408.664439 231.460713 
L 409.729833 233.176057 
L 410.795227 233.550233 
L 411.860621 235.347893 
L 412.926014 236.478821 
L 413.991408 235.627265 
L 415.056802 235.668611 
L 416.122196 235.19881 
L 417.187589 233.764583 
L 418.252983 230.98837 
L 419.318377 229.229679 
L 420.383771 229.205501 
L 421.449165 229.735747 
L 422.514558 231.930701 
L 423.579952 232.199077 
L 424.645346 233.20157 
L 425.71074 235.875532 
L 426.776134 237.214443 
L 427.841527 237.642262 
L 428.906921 237.625432 
L 429.972315 236.636076 
L 431.037709 233.097597 
L 432.103103 231.054907 
L 433.168496 230.967796 
L 434.23389 230.492089 
L 436.364678 231.263354 
L 437.430072 233.201514 
L 438.495465 236.206933 
L 439.560859 236.977362 
L 440.626253 235.490685 
L 441.691647 235.712648 
L 442.757041 237.068633 
L 443.822434 236.18765 
L 444.887828 233.503752 
L 445.953222 232.600384 
L 449.149403 230.873848 
L 450.214797 230.977016 
L 451.280191 232.832099 
L 452.345585 232.916825 
L 454.476372 233.409034 
L 455.541766 233.906105 
L 456.60716 233.15808 
L 457.672554 231.771087 
L 458.737947 232.63056 
L 459.803341 233.92917 
L 460.868735 234.660182 
L 461.934129 233.273313 
L 462.999523 230.828868 
L 464.064916 232.015905 
L 465.13031 234.462606 
L 466.195704 234.93174 
L 467.261098 234.652834 
L 468.326492 234.63923 
L 469.391885 235.825222 
L 471.522673 233.938145 
L 472.588067 233.879002 
L 473.653461 233.67828 
L 474.718854 235.797824 
L 475.784248 236.253722 
L 476.849642 234.474996 
L 477.915036 233.81954 
L 478.98043 233.932807 
L 480.045823 233.187467 
L 481.111217 233.156118 
L 482.176611 233.598378 
L 483.242005 233.698676 
L 484.307399 232.361802 
L 485.372792 231.985656 
L 486.438186 233.552304 
L 487.50358 235.470506 
L 488.568974 234.662158 
L 489.634368 234.426172 
L 490.699761 235.838071 
L 491.765155 235.580714 
L 492.830549 234.820674 
L 493.895943 231.193401 
L 494.961337 230.187177 
L 496.02673 231.817554 
L 497.092124 231.890727 
L 498.157518 230.730343 
L 499.222912 232.348078 
L 500.288305 234.766879 
L 501.353699 233.840531 
L 502.419093 233.635416 
L 503.484487 232.631587 
L 505.615274 235.768627 
L 506.680668 233.71371 
L 507.746062 232.524899 
L 508.811456 233.00154 
L 509.87685 233.837656 
L 512.007637 235.863335 
L 513.073031 236.48343 
L 514.138425 236.324068 
L 515.203819 234.893536 
L 516.269212 231.617334 
L 517.334606 225.838169 
L 518.4 216.815959 
L 518.4 216.815959 
" style="fill:none;stroke:#ff0000;stroke-linecap:square;stroke-width:2;"/>
   </g>
   <g id="patch_3">
    <path d="M 72 320.4 
L 72 43.2 
" style="fill:none;stroke:#000000;stroke-linecap:square;stroke-linejoin:miter;stroke-width:0.8;"/>
   </g>
   <g id="patch_4">
    <path d="M 518.4 320.4 
L 518.4 43.2 
" style="fill:none;stroke:#000000;stroke-linecap:square;stroke-linejoin:miter;stroke-width:0.8;"/>
   </g>
   <g id="patch_5">
    <path d="M 72 320.4 
L 518.4 320.4 
" style="fill:none;stroke:#000000;stroke-linecap:square;stroke-linejoin:miter;stroke-width:0.8;"/>
   </g>
   <g id="patch_6">
    <path d="M 72 43.2 
L 518.4 43.2 
" style="fill:none;stroke:#000000;stroke-linecap:square;stroke-linejoin:miter;stroke-width:0.8;"/>
   </g>
   <g id="text_18">
    <!-- Front Propogation Speed -->
    <g transform="translate(172.245312 37.2)scale(0.2 -0.2)">
     <defs>
      <path d="M 628 4666 
L 3309 4666 
L 3309 4134 
L 1259 4134 
L 1259 2759 
L 3109 2759 
L 3109 2228 
L 1259 2228 
L 1259 0 
L 628 0 
L 628 4666 
z
" id="DejaVuSans-46" transform="scale(0.015625)"/>
      <path d="M 2631 2963 
Q 2534 3019 2420 3045 
Q 2306 3072 2169 3072 
Q 1681 3072 1420 2755 
Q 1159 2438 1159 1844 
L 1159 0 
L 581 0 
L 581 3500 
L 1159 3500 
L 1159 2956 
Q 1341 3275 1631 3429 
Q 1922 3584 2338 3584 
Q 2397 3584 2469 3576 
Q 2541 3569 2628 3553 
L 2631 2963 
z
" id="DejaVuSans-72" transform="scale(0.015625)"/>
      <path d="M 1172 4494 
L 1172 3500 
L 2356 3500 
L 2356 3053 
L 1172 3053 
L 1172 1153 
Q 1172 725 1289 603 
Q 1406 481 1766 481 
L 2356 481 
L 2356 0 
L 1766 0 
Q 1100 0 847 248 
Q 594 497 594 1153 
L 594 3053 
L 172 3053 
L 172 3500 
L 594 3500 
L 594 4494 
L 1172 4494 
z
" id="DejaVuSans-74" transform="scale(0.015625)"/>
      <path d="M 1259 4147 
L 1259 2394 
L 2053 2394 
Q 2494 2394 2734 2622 
Q 2975 2850 2975 3272 
Q 2975 3691 2734 3919 
Q 2494 4147 2053 4147 
L 1259 4147 
z
M 628 4666 
L 2053 4666 
Q 2838 4666 3239 4311 
Q 3641 3956 3641 3272 
Q 3641 2581 3239 2228 
Q 2838 1875 2053 1875 
L 1259 1875 
L 1259 0 
L 628 0 
L 628 4666 
z
" id="DejaVuSans-50" transform="scale(0.015625)"/>
      <path d="M 2906 1791 
Q 2906 2416 2648 2759 
Q 2391 3103 1925 3103 
Q 1463 3103 1205 2759 
Q 947 2416 947 1791 
Q 947 1169 1205 825 
Q 1463 481 1925 481 
Q 2391 481 2648 825 
Q 2906 1169 2906 1791 
z
M 3481 434 
Q 3481 -459 3084 -895 
Q 2688 -1331 1869 -1331 
Q 1566 -1331 1297 -1286 
Q 1028 -1241 775 -1147 
L 775 -588 
Q 1028 -725 1275 -790 
Q 1522 -856 1778 -856 
Q 2344 -856 2625 -561 
Q 2906 -266 2906 331 
L 2906 616 
Q 2728 306 2450 153 
Q 2172 0 1784 0 
Q 1141 0 747 490 
Q 353 981 353 1791 
Q 353 2603 747 3093 
Q 1141 3584 1784 3584 
Q 2172 3584 2450 3431 
Q 2728 3278 2906 2969 
L 2906 3500 
L 3481 3500 
L 3481 434 
z
" id="DejaVuSans-67" transform="scale(0.015625)"/>
      <path d="M 2194 1759 
Q 1497 1759 1228 1600 
Q 959 1441 959 1056 
Q 959 750 1161 570 
Q 1363 391 1709 391 
Q 2188 391 2477 730 
Q 2766 1069 2766 1631 
L 2766 1759 
L 2194 1759 
z
M 3341 1997 
L 3341 0 
L 2766 0 
L 2766 531 
Q 2569 213 2275 61 
Q 1981 -91 1556 -91 
Q 1019 -91 701 211 
Q 384 513 384 1019 
Q 384 1609 779 1909 
Q 1175 2209 1959 2209 
L 2766 2209 
L 2766 2266 
Q 2766 2663 2505 2880 
Q 2244 3097 1772 3097 
Q 1472 3097 1187 3025 
Q 903 2953 641 2809 
L 641 3341 
Q 956 3463 1253 3523 
Q 1550 3584 1831 3584 
Q 2591 3584 2966 3190 
Q 3341 2797 3341 1997 
z
" id="DejaVuSans-61" transform="scale(0.015625)"/>
     </defs>
     <use xlink:href="#DejaVuSans-46"/>
     <use x="50.269531" xlink:href="#DejaVuSans-72"/>
     <use x="89.132812" xlink:href="#DejaVuSans-6f"/>
     <use x="150.314453" xlink:href="#DejaVuSans-6e"/>
     <use x="213.693359" xlink:href="#DejaVuSans-74"/>
     <use x="252.902344" xlink:href="#DejaVuSans-20"/>
     <use x="284.689453" xlink:href="#DejaVuSans-50"/>
     <use x="343.242188" xlink:href="#DejaVuSans-72"/>
     <use x="382.105469" xlink:href="#DejaVuSans-6f"/>
     <use x="443.287109" xlink:href="#DejaVuSans-70"/>
     <use x="506.763672" xlink:href="#DejaVuSans-6f"/>
     <use x="567.945312" xlink:href="#DejaVuSans-67"/>
     <use x="631.421875" xlink:href="#DejaVuSans-61"/>
     <use x="692.701172" xlink:href="#DejaVuSans-74"/>
     <use x="731.910156" xlink:href="#DejaVuSans-69"/>
     <use x="759.693359" xlink:href="#DejaVuSans-6f"/>
     <use x="820.875" xlink:href="#DejaVuSans-6e"/>
     <use x="884.253906" xlink:href="#DejaVuSans-20"/>
     <use x="916.041016" xlink:href="#DejaVuSans-53"/>
     <use x="979.517578" xlink:href="#DejaVuSans-70"/>
     <use x="1042.994141" xlink:href="#DejaVuSans-65"/>
     <use x="1104.517578" xlink:href="#DejaVuSans-65"/>
     <use x="1166.041016" xlink:href="#DejaVuSans-64"/>
    </g>
   </g>
   <g id="legend_1">
    <g id="patch_7">
     <path d="M 325.967812 111.175687 
L 508.6 111.175687 
Q 511.4 111.175687 511.4 108.375687 
L 511.4 53 
Q 511.4 50.2 508.6 50.2 
L 325.967812 50.2 
Q 323.167812 50.2 323.167812 53 
L 323.167812 108.375687 
Q 323.167812 111.175687 325.967812 111.175687 
z
" style="fill:#ffffff;opacity:0.8;stroke:#cccccc;stroke-linejoin:miter;"/>
    </g>
    <g id="line2d_18">
     <path d="M 328.767812 61.537812 
L 356.767812 61.537812 
" style="fill:none;stroke:#ff0000;stroke-linecap:square;stroke-width:2;"/>
    </g>
    <g id="line2d_19"/>
    <g id="text_19">
     <!-- Front speed -->
     <g transform="translate(367.967812 66.437812)scale(0.14 -0.14)">
      <use xlink:href="#DejaVuSans-46"/>
      <use x="50.269531" xlink:href="#DejaVuSans-72"/>
      <use x="89.132812" xlink:href="#DejaVuSans-6f"/>
      <use x="150.314453" xlink:href="#DejaVuSans-6e"/>
      <use x="213.693359" xlink:href="#DejaVuSans-74"/>
      <use x="252.902344" xlink:href="#DejaVuSans-20"/>
      <use x="284.689453" xlink:href="#DejaVuSans-73"/>
      <use x="336.789062" xlink:href="#DejaVuSans-70"/>
      <use x="400.265625" xlink:href="#DejaVuSans-65"/>
      <use x="461.789062" xlink:href="#DejaVuSans-65"/>
      <use x="523.3125" xlink:href="#DejaVuSans-64"/>
     </g>
    </g>
    <g id="line2d_20">
     <path d="M 328.767812 91.381437 
L 356.767812 91.381437 
" style="fill:none;stroke:#000000;stroke-dasharray:5.55,2.4;stroke-dashoffset:0;stroke-width:1.5;"/>
    </g>
    <g id="line2d_21"/>
    <g id="text_20">
     <!-- Steady state -->
     <g transform="translate(367.967812 86.987187)scale(0.14 -0.14)">
      <defs>
       <path d="M 2059 -325 
Q 1816 -950 1584 -1140 
Q 1353 -1331 966 -1331 
L 506 -1331 
L 506 -850 
L 844 -850 
Q 1081 -850 1212 -737 
Q 1344 -625 1503 -206 
L 1606 56 
L 191 3500 
L 800 3500 
L 1894 763 
L 2988 3500 
L 3597 3500 
L 2059 -325 
z
" id="DejaVuSans-79" transform="scale(0.015625)"/>
      </defs>
      <use xlink:href="#DejaVuSans-53"/>
      <use x="63.476562" xlink:href="#DejaVuSans-74"/>
      <use x="102.685547" xlink:href="#DejaVuSans-65"/>
      <use x="164.208984" xlink:href="#DejaVuSans-61"/>
      <use x="225.488281" xlink:href="#DejaVuSans-64"/>
      <use x="288.964844" xlink:href="#DejaVuSans-79"/>
      <use x="348.144531" xlink:href="#DejaVuSans-20"/>
      <use x="379.931641" xlink:href="#DejaVuSans-73"/>
      <use x="432.03125" xlink:href="#DejaVuSans-74"/>
      <use x="471.240234" xlink:href="#DejaVuSans-61"/>
      <use x="532.519531" xlink:href="#DejaVuSans-74"/>
      <use x="571.728516" xlink:href="#DejaVuSans-65"/>
     </g>
     <!-- speed = 0.44 mm/s -->
     <g transform="translate(367.967812 102.664125)scale(0.14 -0.14)">
      <defs>
       <path d="M 678 2906 
L 4684 2906 
L 4684 2381 
L 678 2381 
L 678 2906 
z
M 678 1631 
L 4684 1631 
L 4684 1100 
L 678 1100 
L 678 1631 
z
" id="DejaVuSans-3d" transform="scale(0.015625)"/>
       <path d="M 2419 4116 
L 825 1625 
L 2419 1625 
L 2419 4116 
z
M 2253 4666 
L 3047 4666 
L 3047 1625 
L 3713 1625 
L 3713 1100 
L 3047 1100 
L 3047 0 
L 2419 0 
L 2419 1100 
L 313 1100 
L 313 1709 
L 2253 4666 
z
" id="DejaVuSans-34" transform="scale(0.015625)"/>
      </defs>
      <use xlink:href="#DejaVuSans-73"/>
      <use x="52.099609" xlink:href="#DejaVuSans-70"/>
      <use x="115.576172" xlink:href="#DejaVuSans-65"/>
      <use x="177.099609" xlink:href="#DejaVuSans-65"/>
      <use x="238.623047" xlink:href="#DejaVuSans-64"/>
      <use x="302.099609" xlink:href="#DejaVuSans-20"/>
      <use x="333.886719" xlink:href="#DejaVuSans-3d"/>
      <use x="417.675781" xlink:href="#DejaVuSans-20"/>
      <use x="449.462891" xlink:href="#DejaVuSans-30"/>
      <use x="513.085938" xlink:href="#DejaVuSans-2e"/>
      <use x="544.873047" xlink:href="#DejaVuSans-34"/>
      <use x="608.496094" xlink:href="#DejaVuSans-34"/>
      <use x="672.119141" xlink:href="#DejaVuSans-20"/>
      <use x="703.90625" xlink:href="#DejaVuSans-6d"/>
      <use x="801.318359" xlink:href="#DejaVuSans-6d"/>
      <use x="898.730469" xlink:href="#DejaVuSans-2f"/>
      <use x="932.421875" xlink:href="#DejaVuSans-73"/>
     </g>
    </g>
   </g>
  </g>
 </g>
 <defs>
  <clipPath id="p784f1ed19b">
   <rect height="277.2" width="446.4" x="72" y="43.2"/>
  </clipPath>
 </defs>
</svg>
