<?xml version="1.0" encoding="utf-8" standalone="no"?>
<!DOCTYPE svg PUBLIC "-//W3C//DTD SVG 1.1//EN"
  "http://www.w3.org/Graphics/SVG/1.1/DTD/svg11.dtd">
<svg height="360pt" version="1.1" viewBox="0 0 576 360" width="576pt" xmlns="http://www.w3.org/2000/svg" xmlns:xlink="http://www.w3.org/1999/xlink">
 <metadata>
  <rdf:RDF xmlns:cc="http://creativecommons.org/ns#" xmlns:dc="http://purl.org/dc/elements/1.1/" xmlns:rdf="http://www.w3.org/1999/02/22-rdf-syntax-ns#">
   <cc:Work>
    <dc:type rdf:resource="http://purl.org/dc/dcmitype/StillImage"/>
    <dc:date>2022-06-30T14:11:26.467113</dc:date>
    <dc:format>image/svg+xml</dc:format>
    <dc:creator>
     <cc:Agent>
      <dc:title>Matplotlib v3.4.3, https://matplotlib.org/</dc:title>
     </cc:Agent>
    </dc:creator>
   </cc:Work>
  </rdf:RDF>
 </metadata>
 <defs>
  <style type="text/css">*{stroke-linecap:butt;stroke-linejoin:round;}</style>
 </defs>
 <g id="figure_1">
  <g id="patch_1">
   <path d="M 0 360 
L 576 360 
L 576 0 
L 0 0 
z
" style="fill:#ffffff;"/>
  </g>
  <g id="axes_1">
   <g id="patch_2">
    <path d="M 72 320.4 
L 518.4 320.4 
L 518.4 43.2 
L 72 43.2 
z
" style="fill:#ffffff;"/>
   </g>
   <g id="PolyCollection_1">
    <defs>
     <path d="M 72 -176.493868 
L 72 -181.555775 
L 72.61067 -181.555775 
L 73.221341 -181.555775 
L 73.832011 -181.555775 
L 74.442681 -181.555775 
L 75.053352 -181.555775 
L 75.664022 -181.555775 
L 76.274692 -181.555775 
L 76.885363 -181.555775 
L 77.496033 -181.555775 
L 78.106703 -181.555775 
L 78.717373 -181.555775 
L 79.328044 -181.555775 
L 79.938714 -181.555775 
L 80.549384 -181.555775 
L 81.160055 -181.555775 
L 81.770725 -181.555775 
L 82.381395 -181.555775 
L 82.992066 -181.555775 
L 83.602736 -181.555775 
L 84.213406 -181.555775 
L 84.824077 -181.555775 
L 85.434747 -181.555775 
L 86.045417 -181.555775 
L 86.656088 -181.555775 
L 87.266758 -181.555775 
L 87.877428 -181.555775 
L 88.488098 -181.555775 
L 89.098769 -181.555775 
L 89.709439 -181.555775 
L 90.320109 -181.555775 
L 90.93078 -181.555775 
L 91.54145 -181.555775 
L 92.15212 -181.555775 
L 92.762791 -181.555775 
L 93.373461 -181.555775 
L 93.984131 -181.555775 
L 94.594802 -181.555775 
L 95.205472 -181.555775 
L 95.816142 -181.555775 
L 96.426813 -181.555775 
L 97.037483 -181.555775 
L 97.648153 -181.555775 
L 98.258824 -181.555775 
L 98.869494 -181.555775 
L 99.480164 -181.555775 
L 100.090834 -181.555775 
L 100.701505 -181.555775 
L 101.312175 -181.555775 
L 101.922845 -181.555775 
L 102.533516 -181.555775 
L 103.144186 -181.555775 
L 103.754856 -181.555775 
L 104.365527 -181.555775 
L 104.976197 -181.555775 
L 105.586867 -181.555775 
L 106.197538 -181.555775 
L 106.808208 -181.555775 
L 107.418878 -181.555775 
L 108.029549 -181.555775 
L 108.640219 -181.555775 
L 109.250889 -181.555775 
L 109.86156 -181.555775 
L 110.47223 -181.555775 
L 111.0829 -181.555775 
L 111.69357 -181.555775 
L 112.304241 -181.555775 
L 112.914911 -181.555775 
L 113.525581 -181.555775 
L 114.136252 -181.555775 
L 114.746922 -181.555775 
L 115.357592 -181.555775 
L 115.968263 -181.555775 
L 116.578933 -181.555775 
L 117.189603 -181.555775 
L 117.800274 -181.555775 
L 118.410944 -181.555775 
L 119.021614 -181.555775 
L 119.632285 -181.555775 
L 120.242955 -181.555775 
L 120.853625 -181.555775 
L 121.464295 -181.555775 
L 122.074966 -181.555775 
L 122.685636 -181.555775 
L 123.296306 -181.555775 
L 123.906977 -181.555775 
L 124.517647 -181.555775 
L 125.128317 -181.555775 
L 125.738988 -181.555775 
L 126.349658 -181.555775 
L 126.960328 -181.555775 
L 127.570999 -181.555775 
L 128.181669 -181.555775 
L 128.792339 -181.555775 
L 129.40301 -181.555775 
L 130.01368 -181.555775 
L 130.62435 -181.555775 
L 131.235021 -181.555775 
L 131.845691 -181.555775 
L 132.456361 -181.555775 
L 133.067031 -181.555775 
L 133.677702 -181.555775 
L 134.288372 -181.555775 
L 134.899042 -181.555775 
L 135.509713 -181.555775 
L 136.120383 -181.555775 
L 136.731053 -181.555775 
L 137.341724 -181.555775 
L 137.952394 -181.555775 
L 138.563064 -181.555775 
L 139.173735 -181.555775 
L 139.784405 -181.555775 
L 140.395075 -181.555775 
L 141.005746 -181.555775 
L 141.616416 -181.555775 
L 142.227086 -181.555775 
L 142.837756 -181.555775 
L 143.448427 -181.555775 
L 144.059097 -181.555775 
L 144.669767 -181.555775 
L 145.280438 -181.555775 
L 145.891108 -181.555775 
L 146.501778 -181.555775 
L 147.112449 -181.555775 
L 147.723119 -181.555775 
L 148.333789 -181.555775 
L 148.94446 -181.555775 
L 149.55513 -181.555775 
L 150.1658 -181.555775 
L 150.776471 -181.555775 
L 151.387141 -181.555775 
L 151.997811 -181.555775 
L 152.608482 -181.555775 
L 153.219152 -181.555775 
L 153.829822 -181.555775 
L 154.440492 -181.555775 
L 155.051163 -181.555775 
L 155.661833 -181.555775 
L 156.272503 -181.555775 
L 156.883174 -181.555775 
L 157.493844 -181.555775 
L 158.104514 -181.555775 
L 158.715185 -181.555775 
L 159.325855 -181.555775 
L 159.936525 -181.555775 
L 160.547196 -181.555775 
L 161.157866 -181.555775 
L 161.768536 -181.555775 
L 162.379207 -181.555775 
L 162.989877 -181.555775 
L 163.600547 -181.555775 
L 164.211218 -181.555775 
L 164.821888 -181.555775 
L 165.432558 -181.555775 
L 166.043228 -181.555775 
L 166.653899 -181.555775 
L 167.264569 -181.555775 
L 167.875239 -181.555775 
L 168.48591 -181.555775 
L 169.09658 -181.555775 
L 169.70725 -181.555775 
L 170.317921 -181.555775 
L 170.928591 -181.555775 
L 171.539261 -181.555775 
L 172.149932 -181.555775 
L 172.760602 -181.555775 
L 173.371272 -181.555775 
L 173.981943 -181.555775 
L 174.592613 -181.555775 
L 175.203283 -181.555775 
L 175.813953 -181.555775 
L 176.424624 -181.555775 
L 177.035294 -181.555775 
L 177.645964 -181.555775 
L 178.256635 -181.555775 
L 178.867305 -181.555775 
L 179.477975 -181.555775 
L 180.088646 -181.555775 
L 180.699316 -181.555775 
L 181.309986 -181.555775 
L 181.920657 -181.555775 
L 182.531327 -181.555775 
L 183.141997 -181.555775 
L 183.752668 -181.555775 
L 184.363338 -181.555775 
L 184.974008 -181.555775 
L 185.584679 -181.555775 
L 186.195349 -181.555775 
L 186.806019 -181.555775 
L 187.416689 -181.555775 
L 188.02736 -181.555775 
L 188.63803 -181.555775 
L 189.2487 -181.555775 
L 189.859371 -181.555775 
L 190.470041 -181.555775 
L 191.080711 -181.555775 
L 191.691382 -181.555775 
L 192.302052 -181.555775 
L 192.912722 -181.555775 
L 193.523393 -181.555775 
L 194.134063 -181.555775 
L 194.744733 -181.555775 
L 195.355404 -181.555775 
L 195.966074 -181.555775 
L 196.576744 -181.555775 
L 197.187415 -181.555775 
L 197.798085 -181.555775 
L 198.408755 -181.555775 
L 199.019425 -181.555775 
L 199.630096 -181.555775 
L 200.240766 -181.555775 
L 200.851436 -181.555775 
L 201.462107 -181.555775 
L 202.072777 -181.555775 
L 202.683447 -181.555775 
L 203.294118 -181.555775 
L 203.904788 -181.555775 
L 204.515458 -181.555775 
L 205.126129 -181.555775 
L 205.736799 -181.555775 
L 206.347469 -181.555775 
L 206.95814 -181.555775 
L 207.56881 -181.555775 
L 208.17948 -181.555775 
L 208.79015 -181.555775 
L 209.400821 -181.555775 
L 210.011491 -181.555775 
L 210.622161 -181.555775 
L 211.232832 -181.555775 
L 211.843502 -181.555775 
L 212.454172 -181.555775 
L 213.064843 -181.555775 
L 213.675513 -181.555775 
L 214.286183 -181.555775 
L 214.896854 -181.555775 
L 215.507524 -181.555775 
L 216.118194 -181.555775 
L 216.728865 -181.555775 
L 217.339535 -181.555775 
L 217.950205 -181.555775 
L 218.560876 -181.555775 
L 219.171546 -181.555775 
L 219.782216 -181.555775 
L 220.392886 -181.555775 
L 221.003557 -181.555775 
L 221.614227 -181.555775 
L 222.224897 -181.555775 
L 222.835568 -181.555775 
L 223.446238 -181.555775 
L 224.056908 -181.555775 
L 224.667579 -181.555775 
L 225.278249 -181.555775 
L 225.888919 -181.555775 
L 226.49959 -181.555775 
L 227.11026 -181.555775 
L 227.72093 -181.555775 
L 228.331601 -181.555775 
L 228.942271 -181.555775 
L 229.552941 -181.555775 
L 230.163611 -181.555775 
L 230.774282 -181.555775 
L 231.384952 -181.555775 
L 231.995622 -181.555775 
L 232.606293 -181.555775 
L 233.216963 -181.555775 
L 233.827633 -181.555775 
L 234.438304 -181.555775 
L 235.048974 -181.555775 
L 235.659644 -181.555775 
L 236.270315 -181.555775 
L 236.880985 -181.555775 
L 237.491655 -181.555775 
L 238.102326 -181.555775 
L 238.712996 -181.555775 
L 239.323666 -181.555775 
L 239.934337 -181.555775 
L 240.545007 -181.555775 
L 241.155677 -181.555775 
L 241.766347 -181.555775 
L 242.377018 -181.555775 
L 242.987688 -181.555775 
L 243.598358 -181.555775 
L 244.209029 -181.555775 
L 244.819699 -181.555775 
L 245.430369 -181.555775 
L 246.04104 -181.555775 
L 246.65171 -181.555775 
L 247.26238 -181.555775 
L 247.873051 -181.555775 
L 248.483721 -181.555775 
L 249.094391 -181.555775 
L 249.705062 -181.555775 
L 250.315732 -181.555775 
L 250.926402 -181.555775 
L 251.537073 -181.555775 
L 252.147743 -181.555775 
L 252.758413 -181.555775 
L 253.369083 -181.555775 
L 253.979754 -181.555775 
L 254.590424 -181.555775 
L 255.201094 -181.555775 
L 255.811765 -181.555775 
L 256.422435 -181.555775 
L 257.033105 -181.555775 
L 257.643776 -181.555775 
L 258.254446 -181.555775 
L 258.865116 -181.555775 
L 259.475787 -181.555775 
L 260.086457 -181.555775 
L 260.697127 -181.555775 
L 261.307798 -181.555775 
L 261.918468 -181.555775 
L 262.529138 -181.555775 
L 263.139808 -181.555775 
L 263.750479 -181.555775 
L 264.361149 -181.555775 
L 264.971819 -181.555775 
L 265.58249 -181.555775 
L 266.19316 -181.555775 
L 266.80383 -181.555775 
L 267.414501 -181.555775 
L 268.025171 -181.555775 
L 268.635841 -181.555775 
L 269.246512 -181.555775 
L 269.857182 -181.555775 
L 270.467852 -181.555775 
L 271.078523 -181.555775 
L 271.689193 -181.555775 
L 272.299863 -181.555775 
L 272.910534 -181.555775 
L 273.521204 -181.555775 
L 274.131874 -181.555775 
L 274.742544 -181.555775 
L 275.353215 -181.555775 
L 275.963885 -181.555775 
L 276.574555 -181.555775 
L 277.185226 -181.555775 
L 277.795896 -181.555775 
L 278.406566 -181.555775 
L 279.017237 -181.555775 
L 279.627907 -181.555775 
L 280.238577 -181.555775 
L 280.849248 -181.555775 
L 281.459918 -181.555775 
L 282.070588 -181.555775 
L 282.681259 -181.555775 
L 283.291929 -181.555775 
L 283.902599 -181.555775 
L 284.513269 -181.555775 
L 285.12394 -181.555775 
L 285.73461 -181.555775 
L 286.34528 -181.555775 
L 286.955951 -181.555775 
L 287.566621 -181.555775 
L 288.177291 -181.555775 
L 288.787962 -181.555775 
L 289.398632 -181.555775 
L 290.009302 -181.555775 
L 290.619973 -181.555775 
L 291.230643 -181.555775 
L 291.841313 -181.555775 
L 292.451984 -181.555775 
L 293.062654 -181.555775 
L 293.673324 -181.555775 
L 294.283995 -181.555775 
L 294.894665 -181.555775 
L 295.505335 -181.555775 
L 296.116005 -181.555775 
L 296.726676 -181.555775 
L 297.337346 -181.555775 
L 297.948016 -181.555775 
L 298.558687 -181.555775 
L 299.169357 -181.555775 
L 299.780027 -181.555775 
L 300.390698 -181.555775 
L 301.001368 -181.555775 
L 301.612038 -181.555775 
L 302.222709 -181.555775 
L 302.833379 -181.555775 
L 303.444049 -181.555775 
L 304.05472 -181.555775 
L 304.66539 -181.555775 
L 305.27606 -181.555775 
L 305.886731 -181.555775 
L 306.497401 -181.555775 
L 307.108071 -181.555775 
L 307.718741 -181.555775 
L 308.329412 -181.555775 
L 308.940082 -181.555775 
L 309.550752 -181.555775 
L 310.161423 -181.555775 
L 310.772093 -181.555775 
L 311.382763 -181.555775 
L 311.993434 -181.555775 
L 312.604104 -181.555775 
L 313.214774 -181.555775 
L 313.825445 -181.555775 
L 314.436115 -181.555775 
L 315.046785 -181.555775 
L 315.657456 -181.555775 
L 316.268126 -181.555775 
L 316.878796 -181.555775 
L 317.489466 -181.555775 
L 318.100137 -181.555775 
L 318.710807 -181.555775 
L 319.321477 -181.555775 
L 319.932148 -181.555775 
L 320.542818 -181.555775 
L 321.153488 -181.555775 
L 321.764159 -181.555775 
L 322.374829 -181.555775 
L 322.985499 -181.555775 
L 323.59617 -181.555775 
L 324.20684 -181.555775 
L 324.81751 -181.555775 
L 325.428181 -181.555775 
L 326.038851 -181.555775 
L 326.649521 -181.555775 
L 327.260192 -181.555775 
L 327.870862 -181.555775 
L 328.481532 -181.555775 
L 329.092202 -181.555775 
L 329.702873 -181.555775 
L 330.313543 -181.555775 
L 330.924213 -181.555775 
L 331.534884 -181.555775 
L 332.145554 -181.555775 
L 332.756224 -181.555775 
L 333.366895 -181.555775 
L 333.977565 -181.555775 
L 334.588235 -181.555775 
L 335.198906 -181.555775 
L 335.809576 -181.555775 
L 336.420246 -181.555775 
L 337.030917 -181.555775 
L 337.641587 -181.555775 
L 338.252257 -181.555775 
L 338.862927 -181.555775 
L 339.473598 -181.555775 
L 340.084268 -181.555775 
L 340.694938 -181.555775 
L 341.305609 -181.555775 
L 341.916279 -181.555775 
L 342.526949 -181.555775 
L 343.13762 -181.555775 
L 343.74829 -181.555775 
L 344.35896 -181.555775 
L 344.969631 -181.555775 
L 345.580301 -181.555775 
L 346.190971 -181.555775 
L 346.801642 -181.555775 
L 347.412312 -181.555775 
L 348.022982 -181.555775 
L 348.633653 -181.555775 
L 349.244323 -181.555775 
L 349.854993 -181.555775 
L 350.465663 -181.555775 
L 351.076334 -181.555775 
L 351.687004 -181.555775 
L 352.297674 -181.555775 
L 352.908345 -181.555775 
L 353.519015 -181.555775 
L 354.129685 -181.555775 
L 354.740356 -181.555775 
L 355.351026 -181.555775 
L 355.961696 -181.555775 
L 356.572367 -181.555775 
L 357.183037 -181.555775 
L 357.793707 -181.555775 
L 358.404378 -181.555775 
L 359.015048 -181.555775 
L 359.625718 -181.555775 
L 360.236389 -181.555775 
L 360.847059 -181.555775 
L 361.457729 -181.555775 
L 362.068399 -181.555775 
L 362.67907 -181.555775 
L 363.28974 -181.555775 
L 363.90041 -181.555775 
L 364.511081 -181.555775 
L 365.121751 -181.555775 
L 365.732421 -181.555775 
L 366.343092 -181.555775 
L 366.953762 -181.555775 
L 367.564432 -181.555775 
L 368.175103 -181.555775 
L 368.785773 -181.555775 
L 369.396443 -181.555775 
L 370.007114 -181.555775 
L 370.617784 -181.555775 
L 371.228454 -181.555775 
L 371.839124 -181.555775 
L 372.449795 -181.555775 
L 373.060465 -181.555775 
L 373.671135 -181.555775 
L 374.281806 -181.555775 
L 374.892476 -181.555775 
L 375.503146 -181.555775 
L 376.113817 -181.555775 
L 376.724487 -181.555775 
L 377.335157 -181.555775 
L 377.945828 -181.555775 
L 378.556498 -181.555775 
L 379.167168 -181.555775 
L 379.777839 -181.555775 
L 380.388509 -181.555775 
L 380.999179 -181.555775 
L 381.60985 -181.555775 
L 382.22052 -181.555775 
L 382.83119 -181.555775 
L 383.44186 -181.555775 
L 384.052531 -181.555775 
L 384.663201 -181.555775 
L 385.273871 -181.555775 
L 385.884542 -181.555775 
L 386.495212 -181.555775 
L 387.105882 -181.555775 
L 387.716553 -181.555775 
L 388.327223 -181.555775 
L 388.937893 -181.555775 
L 389.548564 -181.555775 
L 390.159234 -181.555775 
L 390.769904 -181.555775 
L 391.380575 -181.555775 
L 391.991245 -181.555775 
L 392.601915 -181.555775 
L 393.212585 -181.555775 
L 393.823256 -181.555775 
L 394.433926 -181.555775 
L 395.044596 -181.555775 
L 395.655267 -181.555775 
L 396.265937 -181.555775 
L 396.876607 -181.555775 
L 397.487278 -181.555775 
L 398.097948 -181.555775 
L 398.708618 -181.555775 
L 399.319289 -181.555775 
L 399.929959 -181.555775 
L 400.540629 -181.555775 
L 401.1513 -181.555775 
L 401.76197 -181.555775 
L 402.37264 -181.555775 
L 402.983311 -181.555775 
L 403.593981 -181.555775 
L 404.204651 -181.555775 
L 404.815321 -181.555775 
L 405.425992 -181.555775 
L 406.036662 -181.555775 
L 406.647332 -181.555775 
L 407.258003 -181.555775 
L 407.868673 -181.555775 
L 408.479343 -181.555775 
L 409.090014 -181.555775 
L 409.700684 -181.555775 
L 410.311354 -181.555775 
L 410.922025 -181.555775 
L 411.532695 -181.555775 
L 412.143365 -181.555775 
L 412.754036 -181.555775 
L 413.364706 -181.555775 
L 413.975376 -181.555775 
L 414.586047 -181.555775 
L 415.196717 -181.555775 
L 415.807387 -181.555775 
L 416.418057 -181.555775 
L 417.028728 -181.555775 
L 417.639398 -181.555775 
L 418.250068 -181.555775 
L 418.860739 -181.555775 
L 419.471409 -181.555775 
L 420.082079 -181.555775 
L 420.69275 -181.555775 
L 421.30342 -181.555775 
L 421.91409 -181.555775 
L 422.524761 -181.555775 
L 423.135431 -181.555775 
L 423.746101 -181.555775 
L 424.356772 -181.555775 
L 424.967442 -181.555775 
L 425.578112 -181.555775 
L 426.188782 -181.555775 
L 426.799453 -181.555775 
L 427.410123 -181.555775 
L 428.020793 -181.555775 
L 428.631464 -181.555775 
L 429.242134 -181.555775 
L 429.852804 -181.555775 
L 430.463475 -181.555775 
L 431.074145 -181.555775 
L 431.684815 -181.555775 
L 432.295486 -181.555775 
L 432.906156 -181.555775 
L 433.516826 -181.555775 
L 434.127497 -181.555775 
L 434.738167 -181.555775 
L 435.348837 -181.555775 
L 435.959508 -181.555775 
L 436.570178 -181.555775 
L 437.180848 -181.555775 
L 437.791518 -181.555775 
L 438.402189 -181.555775 
L 439.012859 -181.555775 
L 439.623529 -181.555775 
L 440.2342 -181.555775 
L 440.84487 -181.555775 
L 441.45554 -181.555775 
L 442.066211 -181.555775 
L 442.676881 -181.555775 
L 443.287551 -181.555775 
L 443.898222 -181.555775 
L 444.508892 -181.555775 
L 445.119562 -181.555775 
L 445.730233 -181.555775 
L 446.340903 -181.555775 
L 446.951573 -181.555775 
L 447.562244 -181.555775 
L 448.172914 -181.555775 
L 448.783584 -181.555775 
L 449.394254 -181.555775 
L 450.004925 -181.555775 
L 450.615595 -181.555775 
L 451.226265 -181.555775 
L 451.836936 -181.555775 
L 452.447606 -181.555775 
L 453.058276 -181.555775 
L 453.668947 -181.555775 
L 454.279617 -181.555775 
L 454.890287 -181.555775 
L 455.500958 -181.555775 
L 456.111628 -181.555775 
L 456.722298 -181.555775 
L 457.332969 -181.555775 
L 457.943639 -181.555775 
L 458.554309 -181.555775 
L 459.164979 -181.555775 
L 459.77565 -181.555775 
L 460.38632 -181.555775 
L 460.99699 -181.555775 
L 461.607661 -181.555775 
L 462.218331 -181.555775 
L 462.829001 -181.555775 
L 463.439672 -181.555775 
L 464.050342 -181.555775 
L 464.661012 -181.555775 
L 465.271683 -181.555775 
L 465.882353 -181.555775 
L 466.493023 -181.555775 
L 467.103694 -181.555775 
L 467.714364 -181.555775 
L 468.325034 -181.555775 
L 468.935705 -181.555775 
L 469.546375 -181.555775 
L 470.157045 -181.555775 
L 470.767715 -181.555775 
L 471.378386 -181.555775 
L 471.989056 -181.555775 
L 472.599726 -181.555775 
L 473.210397 -181.555775 
L 473.821067 -181.555775 
L 474.431737 -181.555775 
L 475.042408 -181.555775 
L 475.653078 -181.555775 
L 476.263748 -181.555775 
L 476.874419 -181.555775 
L 477.485089 -181.555775 
L 478.095759 -181.555775 
L 478.70643 -181.555775 
L 479.3171 -181.555775 
L 479.92777 -181.555775 
L 480.53844 -181.555775 
L 481.149111 -181.555775 
L 481.759781 -181.555775 
L 482.370451 -181.555775 
L 482.981122 -181.555775 
L 483.591792 -181.555775 
L 484.202462 -181.555775 
L 484.813133 -181.555775 
L 485.423803 -181.555775 
L 486.034473 -181.555775 
L 486.645144 -181.555775 
L 487.255814 -181.555775 
L 487.866484 -181.555775 
L 488.477155 -181.555775 
L 489.087825 -181.555775 
L 489.698495 -181.555775 
L 490.309166 -181.555775 
L 490.919836 -181.555775 
L 491.530506 -181.555775 
L 492.141176 -181.555775 
L 492.751847 -181.555775 
L 493.362517 -181.555775 
L 493.973187 -181.555775 
L 494.583858 -181.555775 
L 495.194528 -181.555775 
L 495.805198 -181.555775 
L 496.415869 -181.555775 
L 497.026539 -181.555775 
L 497.637209 -181.555775 
L 498.24788 -181.555775 
L 498.85855 -181.555775 
L 499.46922 -181.555775 
L 500.079891 -181.555775 
L 500.690561 -181.555775 
L 501.301231 -181.555775 
L 501.911902 -181.555775 
L 502.522572 -181.555775 
L 503.133242 -181.555775 
L 503.743912 -181.555775 
L 504.354583 -181.555775 
L 504.965253 -181.555775 
L 505.575923 -181.555775 
L 506.186594 -181.555775 
L 506.797264 -181.555775 
L 507.407934 -181.555775 
L 508.018605 -181.555775 
L 508.629275 -181.555775 
L 509.239945 -181.555775 
L 509.850616 -181.555775 
L 510.461286 -181.555775 
L 511.071956 -181.555775 
L 511.682627 -181.555775 
L 512.293297 -181.555775 
L 512.903967 -181.555775 
L 513.514637 -181.555775 
L 514.125308 -181.555775 
L 514.735978 -181.555775 
L 515.346648 -181.555775 
L 515.957319 -181.555775 
L 516.567989 -181.555775 
L 517.178659 -181.555775 
L 517.78933 -181.555775 
L 518.4 -181.555775 
L 518.4 -176.493868 
L 518.4 -176.493868 
L 517.78933 -176.493868 
L 517.178659 -176.493868 
L 516.567989 -176.493868 
L 515.957319 -176.493868 
L 515.346648 -176.493868 
L 514.735978 -176.493868 
L 514.125308 -176.493868 
L 513.514637 -176.493868 
L 512.903967 -176.493868 
L 512.293297 -176.493868 
L 511.682627 -176.493868 
L 511.071956 -176.493868 
L 510.461286 -176.493868 
L 509.850616 -176.493868 
L 509.239945 -176.493868 
L 508.629275 -176.493868 
L 508.018605 -176.493868 
L 507.407934 -176.493868 
L 506.797264 -176.493868 
L 506.186594 -176.493868 
L 505.575923 -176.493868 
L 504.965253 -176.493868 
L 504.354583 -176.493868 
L 503.743912 -176.493868 
L 503.133242 -176.493868 
L 502.522572 -176.493868 
L 501.911902 -176.493868 
L 501.301231 -176.493868 
L 500.690561 -176.493868 
L 500.079891 -176.493868 
L 499.46922 -176.493868 
L 498.85855 -176.493868 
L 498.24788 -176.493868 
L 497.637209 -176.493868 
L 497.026539 -176.493868 
L 496.415869 -176.493868 
L 495.805198 -176.493868 
L 495.194528 -176.493868 
L 494.583858 -176.493868 
L 493.973187 -176.493868 
L 493.362517 -176.493868 
L 492.751847 -176.493868 
L 492.141176 -176.493868 
L 491.530506 -176.493868 
L 490.919836 -176.493868 
L 490.309166 -176.493868 
L 489.698495 -176.493868 
L 489.087825 -176.493868 
L 488.477155 -176.493868 
L 487.866484 -176.493868 
L 487.255814 -176.493868 
L 486.645144 -176.493868 
L 486.034473 -176.493868 
L 485.423803 -176.493868 
L 484.813133 -176.493868 
L 484.202462 -176.493868 
L 483.591792 -176.493868 
L 482.981122 -176.493868 
L 482.370451 -176.493868 
L 481.759781 -176.493868 
L 481.149111 -176.493868 
L 480.53844 -176.493868 
L 479.92777 -176.493868 
L 479.3171 -176.493868 
L 478.70643 -176.493868 
L 478.095759 -176.493868 
L 477.485089 -176.493868 
L 476.874419 -176.493868 
L 476.263748 -176.493868 
L 475.653078 -176.493868 
L 475.042408 -176.493868 
L 474.431737 -176.493868 
L 473.821067 -176.493868 
L 473.210397 -176.493868 
L 472.599726 -176.493868 
L 471.989056 -176.493868 
L 471.378386 -176.493868 
L 470.767715 -176.493868 
L 470.157045 -176.493868 
L 469.546375 -176.493868 
L 468.935705 -176.493868 
L 468.325034 -176.493868 
L 467.714364 -176.493868 
L 467.103694 -176.493868 
L 466.493023 -176.493868 
L 465.882353 -176.493868 
L 465.271683 -176.493868 
L 464.661012 -176.493868 
L 464.050342 -176.493868 
L 463.439672 -176.493868 
L 462.829001 -176.493868 
L 462.218331 -176.493868 
L 461.607661 -176.493868 
L 460.99699 -176.493868 
L 460.38632 -176.493868 
L 459.77565 -176.493868 
L 459.164979 -176.493868 
L 458.554309 -176.493868 
L 457.943639 -176.493868 
L 457.332969 -176.493868 
L 456.722298 -176.493868 
L 456.111628 -176.493868 
L 455.500958 -176.493868 
L 454.890287 -176.493868 
L 454.279617 -176.493868 
L 453.668947 -176.493868 
L 453.058276 -176.493868 
L 452.447606 -176.493868 
L 451.836936 -176.493868 
L 451.226265 -176.493868 
L 450.615595 -176.493868 
L 450.004925 -176.493868 
L 449.394254 -176.493868 
L 448.783584 -176.493868 
L 448.172914 -176.493868 
L 447.562244 -176.493868 
L 446.951573 -176.493868 
L 446.340903 -176.493868 
L 445.730233 -176.493868 
L 445.119562 -176.493868 
L 444.508892 -176.493868 
L 443.898222 -176.493868 
L 443.287551 -176.493868 
L 442.676881 -176.493868 
L 442.066211 -176.493868 
L 441.45554 -176.493868 
L 440.84487 -176.493868 
L 440.2342 -176.493868 
L 439.623529 -176.493868 
L 439.012859 -176.493868 
L 438.402189 -176.493868 
L 437.791518 -176.493868 
L 437.180848 -176.493868 
L 436.570178 -176.493868 
L 435.959508 -176.493868 
L 435.348837 -176.493868 
L 434.738167 -176.493868 
L 434.127497 -176.493868 
L 433.516826 -176.493868 
L 432.906156 -176.493868 
L 432.295486 -176.493868 
L 431.684815 -176.493868 
L 431.074145 -176.493868 
L 430.463475 -176.493868 
L 429.852804 -176.493868 
L 429.242134 -176.493868 
L 428.631464 -176.493868 
L 428.020793 -176.493868 
L 427.410123 -176.493868 
L 426.799453 -176.493868 
L 426.188782 -176.493868 
L 425.578112 -176.493868 
L 424.967442 -176.493868 
L 424.356772 -176.493868 
L 423.746101 -176.493868 
L 423.135431 -176.493868 
L 422.524761 -176.493868 
L 421.91409 -176.493868 
L 421.30342 -176.493868 
L 420.69275 -176.493868 
L 420.082079 -176.493868 
L 419.471409 -176.493868 
L 418.860739 -176.493868 
L 418.250068 -176.493868 
L 417.639398 -176.493868 
L 417.028728 -176.493868 
L 416.418057 -176.493868 
L 415.807387 -176.493868 
L 415.196717 -176.493868 
L 414.586047 -176.493868 
L 413.975376 -176.493868 
L 413.364706 -176.493868 
L 412.754036 -176.493868 
L 412.143365 -176.493868 
L 411.532695 -176.493868 
L 410.922025 -176.493868 
L 410.311354 -176.493868 
L 409.700684 -176.493868 
L 409.090014 -176.493868 
L 408.479343 -176.493868 
L 407.868673 -176.493868 
L 407.258003 -176.493868 
L 406.647332 -176.493868 
L 406.036662 -176.493868 
L 405.425992 -176.493868 
L 404.815321 -176.493868 
L 404.204651 -176.493868 
L 403.593981 -176.493868 
L 402.983311 -176.493868 
L 402.37264 -176.493868 
L 401.76197 -176.493868 
L 401.1513 -176.493868 
L 400.540629 -176.493868 
L 399.929959 -176.493868 
L 399.319289 -176.493868 
L 398.708618 -176.493868 
L 398.097948 -176.493868 
L 397.487278 -176.493868 
L 396.876607 -176.493868 
L 396.265937 -176.493868 
L 395.655267 -176.493868 
L 395.044596 -176.493868 
L 394.433926 -176.493868 
L 393.823256 -176.493868 
L 393.212585 -176.493868 
L 392.601915 -176.493868 
L 391.991245 -176.493868 
L 391.380575 -176.493868 
L 390.769904 -176.493868 
L 390.159234 -176.493868 
L 389.548564 -176.493868 
L 388.937893 -176.493868 
L 388.327223 -176.493868 
L 387.716553 -176.493868 
L 387.105882 -176.493868 
L 386.495212 -176.493868 
L 385.884542 -176.493868 
L 385.273871 -176.493868 
L 384.663201 -176.493868 
L 384.052531 -176.493868 
L 383.44186 -176.493868 
L 382.83119 -176.493868 
L 382.22052 -176.493868 
L 381.60985 -176.493868 
L 380.999179 -176.493868 
L 380.388509 -176.493868 
L 379.777839 -176.493868 
L 379.167168 -176.493868 
L 378.556498 -176.493868 
L 377.945828 -176.493868 
L 377.335157 -176.493868 
L 376.724487 -176.493868 
L 376.113817 -176.493868 
L 375.503146 -176.493868 
L 374.892476 -176.493868 
L 374.281806 -176.493868 
L 373.671135 -176.493868 
L 373.060465 -176.493868 
L 372.449795 -176.493868 
L 371.839124 -176.493868 
L 371.228454 -176.493868 
L 370.617784 -176.493868 
L 370.007114 -176.493868 
L 369.396443 -176.493868 
L 368.785773 -176.493868 
L 368.175103 -176.493868 
L 367.564432 -176.493868 
L 366.953762 -176.493868 
L 366.343092 -176.493868 
L 365.732421 -176.493868 
L 365.121751 -176.493868 
L 364.511081 -176.493868 
L 363.90041 -176.493868 
L 363.28974 -176.493868 
L 362.67907 -176.493868 
L 362.068399 -176.493868 
L 361.457729 -176.493868 
L 360.847059 -176.493868 
L 360.236389 -176.493868 
L 359.625718 -176.493868 
L 359.015048 -176.493868 
L 358.404378 -176.493868 
L 357.793707 -176.493868 
L 357.183037 -176.493868 
L 356.572367 -176.493868 
L 355.961696 -176.493868 
L 355.351026 -176.493868 
L 354.740356 -176.493868 
L 354.129685 -176.493868 
L 353.519015 -176.493868 
L 352.908345 -176.493868 
L 352.297674 -176.493868 
L 351.687004 -176.493868 
L 351.076334 -176.493868 
L 350.465663 -176.493868 
L 349.854993 -176.493868 
L 349.244323 -176.493868 
L 348.633653 -176.493868 
L 348.022982 -176.493868 
L 347.412312 -176.493868 
L 346.801642 -176.493868 
L 346.190971 -176.493868 
L 345.580301 -176.493868 
L 344.969631 -176.493868 
L 344.35896 -176.493868 
L 343.74829 -176.493868 
L 343.13762 -176.493868 
L 342.526949 -176.493868 
L 341.916279 -176.493868 
L 341.305609 -176.493868 
L 340.694938 -176.493868 
L 340.084268 -176.493868 
L 339.473598 -176.493868 
L 338.862927 -176.493868 
L 338.252257 -176.493868 
L 337.641587 -176.493868 
L 337.030917 -176.493868 
L 336.420246 -176.493868 
L 335.809576 -176.493868 
L 335.198906 -176.493868 
L 334.588235 -176.493868 
L 333.977565 -176.493868 
L 333.366895 -176.493868 
L 332.756224 -176.493868 
L 332.145554 -176.493868 
L 331.534884 -176.493868 
L 330.924213 -176.493868 
L 330.313543 -176.493868 
L 329.702873 -176.493868 
L 329.092202 -176.493868 
L 328.481532 -176.493868 
L 327.870862 -176.493868 
L 327.260192 -176.493868 
L 326.649521 -176.493868 
L 326.038851 -176.493868 
L 325.428181 -176.493868 
L 324.81751 -176.493868 
L 324.20684 -176.493868 
L 323.59617 -176.493868 
L 322.985499 -176.493868 
L 322.374829 -176.493868 
L 321.764159 -176.493868 
L 321.153488 -176.493868 
L 320.542818 -176.493868 
L 319.932148 -176.493868 
L 319.321477 -176.493868 
L 318.710807 -176.493868 
L 318.100137 -176.493868 
L 317.489466 -176.493868 
L 316.878796 -176.493868 
L 316.268126 -176.493868 
L 315.657456 -176.493868 
L 315.046785 -176.493868 
L 314.436115 -176.493868 
L 313.825445 -176.493868 
L 313.214774 -176.493868 
L 312.604104 -176.493868 
L 311.993434 -176.493868 
L 311.382763 -176.493868 
L 310.772093 -176.493868 
L 310.161423 -176.493868 
L 309.550752 -176.493868 
L 308.940082 -176.493868 
L 308.329412 -176.493868 
L 307.718741 -176.493868 
L 307.108071 -176.493868 
L 306.497401 -176.493868 
L 305.886731 -176.493868 
L 305.27606 -176.493868 
L 304.66539 -176.493868 
L 304.05472 -176.493868 
L 303.444049 -176.493868 
L 302.833379 -176.493868 
L 302.222709 -176.493868 
L 301.612038 -176.493868 
L 301.001368 -176.493868 
L 300.390698 -176.493868 
L 299.780027 -176.493868 
L 299.169357 -176.493868 
L 298.558687 -176.493868 
L 297.948016 -176.493868 
L 297.337346 -176.493868 
L 296.726676 -176.493868 
L 296.116005 -176.493868 
L 295.505335 -176.493868 
L 294.894665 -176.493868 
L 294.283995 -176.493868 
L 293.673324 -176.493868 
L 293.062654 -176.493868 
L 292.451984 -176.493868 
L 291.841313 -176.493868 
L 291.230643 -176.493868 
L 290.619973 -176.493868 
L 290.009302 -176.493868 
L 289.398632 -176.493868 
L 288.787962 -176.493868 
L 288.177291 -176.493868 
L 287.566621 -176.493868 
L 286.955951 -176.493868 
L 286.34528 -176.493868 
L 285.73461 -176.493868 
L 285.12394 -176.493868 
L 284.513269 -176.493868 
L 283.902599 -176.493868 
L 283.291929 -176.493868 
L 282.681259 -176.493868 
L 282.070588 -176.493868 
L 281.459918 -176.493868 
L 280.849248 -176.493868 
L 280.238577 -176.493868 
L 279.627907 -176.493868 
L 279.017237 -176.493868 
L 278.406566 -176.493868 
L 277.795896 -176.493868 
L 277.185226 -176.493868 
L 276.574555 -176.493868 
L 275.963885 -176.493868 
L 275.353215 -176.493868 
L 274.742544 -176.493868 
L 274.131874 -176.493868 
L 273.521204 -176.493868 
L 272.910534 -176.493868 
L 272.299863 -176.493868 
L 271.689193 -176.493868 
L 271.078523 -176.493868 
L 270.467852 -176.493868 
L 269.857182 -176.493868 
L 269.246512 -176.493868 
L 268.635841 -176.493868 
L 268.025171 -176.493868 
L 267.414501 -176.493868 
L 266.80383 -176.493868 
L 266.19316 -176.493868 
L 265.58249 -176.493868 
L 264.971819 -176.493868 
L 264.361149 -176.493868 
L 263.750479 -176.493868 
L 263.139808 -176.493868 
L 262.529138 -176.493868 
L 261.918468 -176.493868 
L 261.307798 -176.493868 
L 260.697127 -176.493868 
L 260.086457 -176.493868 
L 259.475787 -176.493868 
L 258.865116 -176.493868 
L 258.254446 -176.493868 
L 257.643776 -176.493868 
L 257.033105 -176.493868 
L 256.422435 -176.493868 
L 255.811765 -176.493868 
L 255.201094 -176.493868 
L 254.590424 -176.493868 
L 253.979754 -176.493868 
L 253.369083 -176.493868 
L 252.758413 -176.493868 
L 252.147743 -176.493868 
L 251.537073 -176.493868 
L 250.926402 -176.493868 
L 250.315732 -176.493868 
L 249.705062 -176.493868 
L 249.094391 -176.493868 
L 248.483721 -176.493868 
L 247.873051 -176.493868 
L 247.26238 -176.493868 
L 246.65171 -176.493868 
L 246.04104 -176.493868 
L 245.430369 -176.493868 
L 244.819699 -176.493868 
L 244.209029 -176.493868 
L 243.598358 -176.493868 
L 242.987688 -176.493868 
L 242.377018 -176.493868 
L 241.766347 -176.493868 
L 241.155677 -176.493868 
L 240.545007 -176.493868 
L 239.934337 -176.493868 
L 239.323666 -176.493868 
L 238.712996 -176.493868 
L 238.102326 -176.493868 
L 237.491655 -176.493868 
L 236.880985 -176.493868 
L 236.270315 -176.493868 
L 235.659644 -176.493868 
L 235.048974 -176.493868 
L 234.438304 -176.493868 
L 233.827633 -176.493868 
L 233.216963 -176.493868 
L 232.606293 -176.493868 
L 231.995622 -176.493868 
L 231.384952 -176.493868 
L 230.774282 -176.493868 
L 230.163611 -176.493868 
L 229.552941 -176.493868 
L 228.942271 -176.493868 
L 228.331601 -176.493868 
L 227.72093 -176.493868 
L 227.11026 -176.493868 
L 226.49959 -176.493868 
L 225.888919 -176.493868 
L 225.278249 -176.493868 
L 224.667579 -176.493868 
L 224.056908 -176.493868 
L 223.446238 -176.493868 
L 222.835568 -176.493868 
L 222.224897 -176.493868 
L 221.614227 -176.493868 
L 221.003557 -176.493868 
L 220.392886 -176.493868 
L 219.782216 -176.493868 
L 219.171546 -176.493868 
L 218.560876 -176.493868 
L 217.950205 -176.493868 
L 217.339535 -176.493868 
L 216.728865 -176.493868 
L 216.118194 -176.493868 
L 215.507524 -176.493868 
L 214.896854 -176.493868 
L 214.286183 -176.493868 
L 213.675513 -176.493868 
L 213.064843 -176.493868 
L 212.454172 -176.493868 
L 211.843502 -176.493868 
L 211.232832 -176.493868 
L 210.622161 -176.493868 
L 210.011491 -176.493868 
L 209.400821 -176.493868 
L 208.79015 -176.493868 
L 208.17948 -176.493868 
L 207.56881 -176.493868 
L 206.95814 -176.493868 
L 206.347469 -176.493868 
L 205.736799 -176.493868 
L 205.126129 -176.493868 
L 204.515458 -176.493868 
L 203.904788 -176.493868 
L 203.294118 -176.493868 
L 202.683447 -176.493868 
L 202.072777 -176.493868 
L 201.462107 -176.493868 
L 200.851436 -176.493868 
L 200.240766 -176.493868 
L 199.630096 -176.493868 
L 199.019425 -176.493868 
L 198.408755 -176.493868 
L 197.798085 -176.493868 
L 197.187415 -176.493868 
L 196.576744 -176.493868 
L 195.966074 -176.493868 
L 195.355404 -176.493868 
L 194.744733 -176.493868 
L 194.134063 -176.493868 
L 193.523393 -176.493868 
L 192.912722 -176.493868 
L 192.302052 -176.493868 
L 191.691382 -176.493868 
L 191.080711 -176.493868 
L 190.470041 -176.493868 
L 189.859371 -176.493868 
L 189.2487 -176.493868 
L 188.63803 -176.493868 
L 188.02736 -176.493868 
L 187.416689 -176.493868 
L 186.806019 -176.493868 
L 186.195349 -176.493868 
L 185.584679 -176.493868 
L 184.974008 -176.493868 
L 184.363338 -176.493868 
L 183.752668 -176.493868 
L 183.141997 -176.493868 
L 182.531327 -176.493868 
L 181.920657 -176.493868 
L 181.309986 -176.493868 
L 180.699316 -176.493868 
L 180.088646 -176.493868 
L 179.477975 -176.493868 
L 178.867305 -176.493868 
L 178.256635 -176.493868 
L 177.645964 -176.493868 
L 177.035294 -176.493868 
L 176.424624 -176.493868 
L 175.813953 -176.493868 
L 175.203283 -176.493868 
L 174.592613 -176.493868 
L 173.981943 -176.493868 
L 173.371272 -176.493868 
L 172.760602 -176.493868 
L 172.149932 -176.493868 
L 171.539261 -176.493868 
L 170.928591 -176.493868 
L 170.317921 -176.493868 
L 169.70725 -176.493868 
L 169.09658 -176.493868 
L 168.48591 -176.493868 
L 167.875239 -176.493868 
L 167.264569 -176.493868 
L 166.653899 -176.493868 
L 166.043228 -176.493868 
L 165.432558 -176.493868 
L 164.821888 -176.493868 
L 164.211218 -176.493868 
L 163.600547 -176.493868 
L 162.989877 -176.493868 
L 162.379207 -176.493868 
L 161.768536 -176.493868 
L 161.157866 -176.493868 
L 160.547196 -176.493868 
L 159.936525 -176.493868 
L 159.325855 -176.493868 
L 158.715185 -176.493868 
L 158.104514 -176.493868 
L 157.493844 -176.493868 
L 156.883174 -176.493868 
L 156.272503 -176.493868 
L 155.661833 -176.493868 
L 155.051163 -176.493868 
L 154.440492 -176.493868 
L 153.829822 -176.493868 
L 153.219152 -176.493868 
L 152.608482 -176.493868 
L 151.997811 -176.493868 
L 151.387141 -176.493868 
L 150.776471 -176.493868 
L 150.1658 -176.493868 
L 149.55513 -176.493868 
L 148.94446 -176.493868 
L 148.333789 -176.493868 
L 147.723119 -176.493868 
L 147.112449 -176.493868 
L 146.501778 -176.493868 
L 145.891108 -176.493868 
L 145.280438 -176.493868 
L 144.669767 -176.493868 
L 144.059097 -176.493868 
L 143.448427 -176.493868 
L 142.837756 -176.493868 
L 142.227086 -176.493868 
L 141.616416 -176.493868 
L 141.005746 -176.493868 
L 140.395075 -176.493868 
L 139.784405 -176.493868 
L 139.173735 -176.493868 
L 138.563064 -176.493868 
L 137.952394 -176.493868 
L 137.341724 -176.493868 
L 136.731053 -176.493868 
L 136.120383 -176.493868 
L 135.509713 -176.493868 
L 134.899042 -176.493868 
L 134.288372 -176.493868 
L 133.677702 -176.493868 
L 133.067031 -176.493868 
L 132.456361 -176.493868 
L 131.845691 -176.493868 
L 131.235021 -176.493868 
L 130.62435 -176.493868 
L 130.01368 -176.493868 
L 129.40301 -176.493868 
L 128.792339 -176.493868 
L 128.181669 -176.493868 
L 127.570999 -176.493868 
L 126.960328 -176.493868 
L 126.349658 -176.493868 
L 125.738988 -176.493868 
L 125.128317 -176.493868 
L 124.517647 -176.493868 
L 123.906977 -176.493868 
L 123.296306 -176.493868 
L 122.685636 -176.493868 
L 122.074966 -176.493868 
L 121.464295 -176.493868 
L 120.853625 -176.493868 
L 120.242955 -176.493868 
L 119.632285 -176.493868 
L 119.021614 -176.493868 
L 118.410944 -176.493868 
L 117.800274 -176.493868 
L 117.189603 -176.493868 
L 116.578933 -176.493868 
L 115.968263 -176.493868 
L 115.357592 -176.493868 
L 114.746922 -176.493868 
L 114.136252 -176.493868 
L 113.525581 -176.493868 
L 112.914911 -176.493868 
L 112.304241 -176.493868 
L 111.69357 -176.493868 
L 111.0829 -176.493868 
L 110.47223 -176.493868 
L 109.86156 -176.493868 
L 109.250889 -176.493868 
L 108.640219 -176.493868 
L 108.029549 -176.493868 
L 107.418878 -176.493868 
L 106.808208 -176.493868 
L 106.197538 -176.493868 
L 105.586867 -176.493868 
L 104.976197 -176.493868 
L 104.365527 -176.493868 
L 103.754856 -176.493868 
L 103.144186 -176.493868 
L 102.533516 -176.493868 
L 101.922845 -176.493868 
L 101.312175 -176.493868 
L 100.701505 -176.493868 
L 100.090834 -176.493868 
L 99.480164 -176.493868 
L 98.869494 -176.493868 
L 98.258824 -176.493868 
L 97.648153 -176.493868 
L 97.037483 -176.493868 
L 96.426813 -176.493868 
L 95.816142 -176.493868 
L 95.205472 -176.493868 
L 94.594802 -176.493868 
L 93.984131 -176.493868 
L 93.373461 -176.493868 
L 92.762791 -176.493868 
L 92.15212 -176.493868 
L 91.54145 -176.493868 
L 90.93078 -176.493868 
L 90.320109 -176.493868 
L 89.709439 -176.493868 
L 89.098769 -176.493868 
L 88.488098 -176.493868 
L 87.877428 -176.493868 
L 87.266758 -176.493868 
L 86.656088 -176.493868 
L 86.045417 -176.493868 
L 85.434747 -176.493868 
L 84.824077 -176.493868 
L 84.213406 -176.493868 
L 83.602736 -176.493868 
L 82.992066 -176.493868 
L 82.381395 -176.493868 
L 81.770725 -176.493868 
L 81.160055 -176.493868 
L 80.549384 -176.493868 
L 79.938714 -176.493868 
L 79.328044 -176.493868 
L 78.717373 -176.493868 
L 78.106703 -176.493868 
L 77.496033 -176.493868 
L 76.885363 -176.493868 
L 76.274692 -176.493868 
L 75.664022 -176.493868 
L 75.053352 -176.493868 
L 74.442681 -176.493868 
L 73.832011 -176.493868 
L 73.221341 -176.493868 
L 72.61067 -176.493868 
L 72 -176.493868 
z
" id="m1989c80881"/>
    </defs>
    <g clip-path="url(#p9db7730561)">
     <use style="fill-opacity:0.15;" x="0" xlink:href="#m1989c80881" y="360"/>
    </g>
   </g>
   <g id="matplotlib.axis_1">
    <g id="xtick_1">
     <g id="line2d_1">
      <defs>
       <path d="M 0 0 
L 0 3.5 
" id="m542843af27" style="stroke:#000000;stroke-width:0.8;"/>
      </defs>
      <g>
       <use style="stroke:#000000;stroke-width:0.8;" x="72" xlink:href="#m542843af27" y="320.4"/>
      </g>
     </g>
     <g id="text_1">
      <!-- 0.0 -->
      <g transform="translate(60.867812 338.037813)scale(0.14 -0.14)">
       <defs>
        <path d="M 2034 4250 
Q 1547 4250 1301 3770 
Q 1056 3291 1056 2328 
Q 1056 1369 1301 889 
Q 1547 409 2034 409 
Q 2525 409 2770 889 
Q 3016 1369 3016 2328 
Q 3016 3291 2770 3770 
Q 2525 4250 2034 4250 
z
M 2034 4750 
Q 2819 4750 3233 4129 
Q 3647 3509 3647 2328 
Q 3647 1150 3233 529 
Q 2819 -91 2034 -91 
Q 1250 -91 836 529 
Q 422 1150 422 2328 
Q 422 3509 836 4129 
Q 1250 4750 2034 4750 
z
" id="DejaVuSans-30" transform="scale(0.015625)"/>
        <path d="M 684 794 
L 1344 794 
L 1344 0 
L 684 0 
L 684 794 
z
" id="DejaVuSans-2e" transform="scale(0.015625)"/>
       </defs>
       <use xlink:href="#DejaVuSans-30"/>
       <use x="63.623047" xlink:href="#DejaVuSans-2e"/>
       <use x="95.410156" xlink:href="#DejaVuSans-30"/>
      </g>
     </g>
    </g>
    <g id="xtick_2">
     <g id="line2d_2">
      <g>
       <use style="stroke:#000000;stroke-width:0.8;" x="127.861448" xlink:href="#m542843af27" y="320.4"/>
      </g>
     </g>
     <g id="text_2">
      <!-- 2.5 -->
      <g transform="translate(116.72926 338.037813)scale(0.14 -0.14)">
       <defs>
        <path d="M 1228 531 
L 3431 531 
L 3431 0 
L 469 0 
L 469 531 
Q 828 903 1448 1529 
Q 2069 2156 2228 2338 
Q 2531 2678 2651 2914 
Q 2772 3150 2772 3378 
Q 2772 3750 2511 3984 
Q 2250 4219 1831 4219 
Q 1534 4219 1204 4116 
Q 875 4013 500 3803 
L 500 4441 
Q 881 4594 1212 4672 
Q 1544 4750 1819 4750 
Q 2544 4750 2975 4387 
Q 3406 4025 3406 3419 
Q 3406 3131 3298 2873 
Q 3191 2616 2906 2266 
Q 2828 2175 2409 1742 
Q 1991 1309 1228 531 
z
" id="DejaVuSans-32" transform="scale(0.015625)"/>
        <path d="M 691 4666 
L 3169 4666 
L 3169 4134 
L 1269 4134 
L 1269 2991 
Q 1406 3038 1543 3061 
Q 1681 3084 1819 3084 
Q 2600 3084 3056 2656 
Q 3513 2228 3513 1497 
Q 3513 744 3044 326 
Q 2575 -91 1722 -91 
Q 1428 -91 1123 -41 
Q 819 9 494 109 
L 494 744 
Q 775 591 1075 516 
Q 1375 441 1709 441 
Q 2250 441 2565 725 
Q 2881 1009 2881 1497 
Q 2881 1984 2565 2268 
Q 2250 2553 1709 2553 
Q 1456 2553 1204 2497 
Q 953 2441 691 2322 
L 691 4666 
z
" id="DejaVuSans-35" transform="scale(0.015625)"/>
       </defs>
       <use xlink:href="#DejaVuSans-32"/>
       <use x="63.623047" xlink:href="#DejaVuSans-2e"/>
       <use x="95.410156" xlink:href="#DejaVuSans-35"/>
      </g>
     </g>
    </g>
    <g id="xtick_3">
     <g id="line2d_3">
      <g>
       <use style="stroke:#000000;stroke-width:0.8;" x="183.722895" xlink:href="#m542843af27" y="320.4"/>
      </g>
     </g>
     <g id="text_3">
      <!-- 5.0 -->
      <g transform="translate(172.590708 338.037813)scale(0.14 -0.14)">
       <use xlink:href="#DejaVuSans-35"/>
       <use x="63.623047" xlink:href="#DejaVuSans-2e"/>
       <use x="95.410156" xlink:href="#DejaVuSans-30"/>
      </g>
     </g>
    </g>
    <g id="xtick_4">
     <g id="line2d_4">
      <g>
       <use style="stroke:#000000;stroke-width:0.8;" x="239.584343" xlink:href="#m542843af27" y="320.4"/>
      </g>
     </g>
     <g id="text_4">
      <!-- 7.5 -->
      <g transform="translate(228.452155 338.037813)scale(0.14 -0.14)">
       <defs>
        <path d="M 525 4666 
L 3525 4666 
L 3525 4397 
L 1831 0 
L 1172 0 
L 2766 4134 
L 525 4134 
L 525 4666 
z
" id="DejaVuSans-37" transform="scale(0.015625)"/>
       </defs>
       <use xlink:href="#DejaVuSans-37"/>
       <use x="63.623047" xlink:href="#DejaVuSans-2e"/>
       <use x="95.410156" xlink:href="#DejaVuSans-35"/>
      </g>
     </g>
    </g>
    <g id="xtick_5">
     <g id="line2d_5">
      <g>
       <use style="stroke:#000000;stroke-width:0.8;" x="295.44579" xlink:href="#m542843af27" y="320.4"/>
      </g>
     </g>
     <g id="text_5">
      <!-- 10.0 -->
      <g transform="translate(279.859853 338.037813)scale(0.14 -0.14)">
       <defs>
        <path d="M 794 531 
L 1825 531 
L 1825 4091 
L 703 3866 
L 703 4441 
L 1819 4666 
L 2450 4666 
L 2450 531 
L 3481 531 
L 3481 0 
L 794 0 
L 794 531 
z
" id="DejaVuSans-31" transform="scale(0.015625)"/>
       </defs>
       <use xlink:href="#DejaVuSans-31"/>
       <use x="63.623047" xlink:href="#DejaVuSans-30"/>
       <use x="127.246094" xlink:href="#DejaVuSans-2e"/>
       <use x="159.033203" xlink:href="#DejaVuSans-30"/>
      </g>
     </g>
    </g>
    <g id="xtick_6">
     <g id="line2d_6">
      <g>
       <use style="stroke:#000000;stroke-width:0.8;" x="351.307238" xlink:href="#m542843af27" y="320.4"/>
      </g>
     </g>
     <g id="text_6">
      <!-- 12.5 -->
      <g transform="translate(335.7213 338.037813)scale(0.14 -0.14)">
       <use xlink:href="#DejaVuSans-31"/>
       <use x="63.623047" xlink:href="#DejaVuSans-32"/>
       <use x="127.246094" xlink:href="#DejaVuSans-2e"/>
       <use x="159.033203" xlink:href="#DejaVuSans-35"/>
      </g>
     </g>
    </g>
    <g id="xtick_7">
     <g id="line2d_7">
      <g>
       <use style="stroke:#000000;stroke-width:0.8;" x="407.168686" xlink:href="#m542843af27" y="320.4"/>
      </g>
     </g>
     <g id="text_7">
      <!-- 15.0 -->
      <g transform="translate(391.582748 338.037813)scale(0.14 -0.14)">
       <use xlink:href="#DejaVuSans-31"/>
       <use x="63.623047" xlink:href="#DejaVuSans-35"/>
       <use x="127.246094" xlink:href="#DejaVuSans-2e"/>
       <use x="159.033203" xlink:href="#DejaVuSans-30"/>
      </g>
     </g>
    </g>
    <g id="xtick_8">
     <g id="line2d_8">
      <g>
       <use style="stroke:#000000;stroke-width:0.8;" x="463.030133" xlink:href="#m542843af27" y="320.4"/>
      </g>
     </g>
     <g id="text_8">
      <!-- 17.5 -->
      <g transform="translate(447.444196 338.037813)scale(0.14 -0.14)">
       <use xlink:href="#DejaVuSans-31"/>
       <use x="63.623047" xlink:href="#DejaVuSans-37"/>
       <use x="127.246094" xlink:href="#DejaVuSans-2e"/>
       <use x="159.033203" xlink:href="#DejaVuSans-35"/>
      </g>
     </g>
    </g>
    <g id="text_9">
     <!-- Time [Seconds] -->
     <g transform="translate(233.23 357.106875)scale(0.16 -0.16)">
      <defs>
       <path d="M -19 4666 
L 3928 4666 
L 3928 4134 
L 2272 4134 
L 2272 0 
L 1638 0 
L 1638 4134 
L -19 4134 
L -19 4666 
z
" id="DejaVuSans-54" transform="scale(0.015625)"/>
       <path d="M 603 3500 
L 1178 3500 
L 1178 0 
L 603 0 
L 603 3500 
z
M 603 4863 
L 1178 4863 
L 1178 4134 
L 603 4134 
L 603 4863 
z
" id="DejaVuSans-69" transform="scale(0.015625)"/>
       <path d="M 3328 2828 
Q 3544 3216 3844 3400 
Q 4144 3584 4550 3584 
Q 5097 3584 5394 3201 
Q 5691 2819 5691 2113 
L 5691 0 
L 5113 0 
L 5113 2094 
Q 5113 2597 4934 2840 
Q 4756 3084 4391 3084 
Q 3944 3084 3684 2787 
Q 3425 2491 3425 1978 
L 3425 0 
L 2847 0 
L 2847 2094 
Q 2847 2600 2669 2842 
Q 2491 3084 2119 3084 
Q 1678 3084 1418 2786 
Q 1159 2488 1159 1978 
L 1159 0 
L 581 0 
L 581 3500 
L 1159 3500 
L 1159 2956 
Q 1356 3278 1631 3431 
Q 1906 3584 2284 3584 
Q 2666 3584 2933 3390 
Q 3200 3197 3328 2828 
z
" id="DejaVuSans-6d" transform="scale(0.015625)"/>
       <path d="M 3597 1894 
L 3597 1613 
L 953 1613 
Q 991 1019 1311 708 
Q 1631 397 2203 397 
Q 2534 397 2845 478 
Q 3156 559 3463 722 
L 3463 178 
Q 3153 47 2828 -22 
Q 2503 -91 2169 -91 
Q 1331 -91 842 396 
Q 353 884 353 1716 
Q 353 2575 817 3079 
Q 1281 3584 2069 3584 
Q 2775 3584 3186 3129 
Q 3597 2675 3597 1894 
z
M 3022 2063 
Q 3016 2534 2758 2815 
Q 2500 3097 2075 3097 
Q 1594 3097 1305 2825 
Q 1016 2553 972 2059 
L 3022 2063 
z
" id="DejaVuSans-65" transform="scale(0.015625)"/>
       <path id="DejaVuSans-20" transform="scale(0.015625)"/>
       <path d="M 550 4863 
L 1875 4863 
L 1875 4416 
L 1125 4416 
L 1125 -397 
L 1875 -397 
L 1875 -844 
L 550 -844 
L 550 4863 
z
" id="DejaVuSans-5b" transform="scale(0.015625)"/>
       <path d="M 3425 4513 
L 3425 3897 
Q 3066 4069 2747 4153 
Q 2428 4238 2131 4238 
Q 1616 4238 1336 4038 
Q 1056 3838 1056 3469 
Q 1056 3159 1242 3001 
Q 1428 2844 1947 2747 
L 2328 2669 
Q 3034 2534 3370 2195 
Q 3706 1856 3706 1288 
Q 3706 609 3251 259 
Q 2797 -91 1919 -91 
Q 1588 -91 1214 -16 
Q 841 59 441 206 
L 441 856 
Q 825 641 1194 531 
Q 1563 422 1919 422 
Q 2459 422 2753 634 
Q 3047 847 3047 1241 
Q 3047 1584 2836 1778 
Q 2625 1972 2144 2069 
L 1759 2144 
Q 1053 2284 737 2584 
Q 422 2884 422 3419 
Q 422 4038 858 4394 
Q 1294 4750 2059 4750 
Q 2388 4750 2728 4690 
Q 3069 4631 3425 4513 
z
" id="DejaVuSans-53" transform="scale(0.015625)"/>
       <path d="M 3122 3366 
L 3122 2828 
Q 2878 2963 2633 3030 
Q 2388 3097 2138 3097 
Q 1578 3097 1268 2742 
Q 959 2388 959 1747 
Q 959 1106 1268 751 
Q 1578 397 2138 397 
Q 2388 397 2633 464 
Q 2878 531 3122 666 
L 3122 134 
Q 2881 22 2623 -34 
Q 2366 -91 2075 -91 
Q 1284 -91 818 406 
Q 353 903 353 1747 
Q 353 2603 823 3093 
Q 1294 3584 2113 3584 
Q 2378 3584 2631 3529 
Q 2884 3475 3122 3366 
z
" id="DejaVuSans-63" transform="scale(0.015625)"/>
       <path d="M 1959 3097 
Q 1497 3097 1228 2736 
Q 959 2375 959 1747 
Q 959 1119 1226 758 
Q 1494 397 1959 397 
Q 2419 397 2687 759 
Q 2956 1122 2956 1747 
Q 2956 2369 2687 2733 
Q 2419 3097 1959 3097 
z
M 1959 3584 
Q 2709 3584 3137 3096 
Q 3566 2609 3566 1747 
Q 3566 888 3137 398 
Q 2709 -91 1959 -91 
Q 1206 -91 779 398 
Q 353 888 353 1747 
Q 353 2609 779 3096 
Q 1206 3584 1959 3584 
z
" id="DejaVuSans-6f" transform="scale(0.015625)"/>
       <path d="M 3513 2113 
L 3513 0 
L 2938 0 
L 2938 2094 
Q 2938 2591 2744 2837 
Q 2550 3084 2163 3084 
Q 1697 3084 1428 2787 
Q 1159 2491 1159 1978 
L 1159 0 
L 581 0 
L 581 3500 
L 1159 3500 
L 1159 2956 
Q 1366 3272 1645 3428 
Q 1925 3584 2291 3584 
Q 2894 3584 3203 3211 
Q 3513 2838 3513 2113 
z
" id="DejaVuSans-6e" transform="scale(0.015625)"/>
       <path d="M 2906 2969 
L 2906 4863 
L 3481 4863 
L 3481 0 
L 2906 0 
L 2906 525 
Q 2725 213 2448 61 
Q 2172 -91 1784 -91 
Q 1150 -91 751 415 
Q 353 922 353 1747 
Q 353 2572 751 3078 
Q 1150 3584 1784 3584 
Q 2172 3584 2448 3432 
Q 2725 3281 2906 2969 
z
M 947 1747 
Q 947 1113 1208 752 
Q 1469 391 1925 391 
Q 2381 391 2643 752 
Q 2906 1113 2906 1747 
Q 2906 2381 2643 2742 
Q 2381 3103 1925 3103 
Q 1469 3103 1208 2742 
Q 947 2381 947 1747 
z
" id="DejaVuSans-64" transform="scale(0.015625)"/>
       <path d="M 2834 3397 
L 2834 2853 
Q 2591 2978 2328 3040 
Q 2066 3103 1784 3103 
Q 1356 3103 1142 2972 
Q 928 2841 928 2578 
Q 928 2378 1081 2264 
Q 1234 2150 1697 2047 
L 1894 2003 
Q 2506 1872 2764 1633 
Q 3022 1394 3022 966 
Q 3022 478 2636 193 
Q 2250 -91 1575 -91 
Q 1294 -91 989 -36 
Q 684 19 347 128 
L 347 722 
Q 666 556 975 473 
Q 1284 391 1588 391 
Q 1994 391 2212 530 
Q 2431 669 2431 922 
Q 2431 1156 2273 1281 
Q 2116 1406 1581 1522 
L 1381 1569 
Q 847 1681 609 1914 
Q 372 2147 372 2553 
Q 372 3047 722 3315 
Q 1072 3584 1716 3584 
Q 2034 3584 2315 3537 
Q 2597 3491 2834 3397 
z
" id="DejaVuSans-73" transform="scale(0.015625)"/>
       <path d="M 1947 4863 
L 1947 -844 
L 622 -844 
L 622 -397 
L 1369 -397 
L 1369 4416 
L 622 4416 
L 622 4863 
L 1947 4863 
z
" id="DejaVuSans-5d" transform="scale(0.015625)"/>
      </defs>
      <use xlink:href="#DejaVuSans-54"/>
      <use x="57.958984" xlink:href="#DejaVuSans-69"/>
      <use x="85.742188" xlink:href="#DejaVuSans-6d"/>
      <use x="183.154297" xlink:href="#DejaVuSans-65"/>
      <use x="244.677734" xlink:href="#DejaVuSans-20"/>
      <use x="276.464844" xlink:href="#DejaVuSans-5b"/>
      <use x="315.478516" xlink:href="#DejaVuSans-53"/>
      <use x="378.955078" xlink:href="#DejaVuSans-65"/>
      <use x="440.478516" xlink:href="#DejaVuSans-63"/>
      <use x="495.458984" xlink:href="#DejaVuSans-6f"/>
      <use x="556.640625" xlink:href="#DejaVuSans-6e"/>
      <use x="620.019531" xlink:href="#DejaVuSans-64"/>
      <use x="683.496094" xlink:href="#DejaVuSans-73"/>
      <use x="735.595703" xlink:href="#DejaVuSans-5d"/>
     </g>
    </g>
   </g>
   <g id="matplotlib.axis_2">
    <g id="ytick_1">
     <g id="line2d_9">
      <defs>
       <path d="M 0 0 
L -3.5 0 
" id="mff062268f5" style="stroke:#000000;stroke-width:0.8;"/>
      </defs>
      <g>
       <use style="stroke:#000000;stroke-width:0.8;" x="72" xlink:href="#mff062268f5" y="279.39679"/>
      </g>
     </g>
     <g id="text_10">
      <!-- 0.0 -->
      <g transform="translate(42.735625 284.715696)scale(0.14 -0.14)">
       <use xlink:href="#DejaVuSans-30"/>
       <use x="63.623047" xlink:href="#DejaVuSans-2e"/>
       <use x="95.410156" xlink:href="#DejaVuSans-30"/>
      </g>
     </g>
    </g>
    <g id="ytick_2">
     <g id="line2d_10">
      <g>
       <use style="stroke:#000000;stroke-width:0.8;" x="72" xlink:href="#mff062268f5" y="229.467909"/>
      </g>
     </g>
     <g id="text_11">
      <!-- 0.5 -->
      <g transform="translate(42.735625 234.786815)scale(0.14 -0.14)">
       <use xlink:href="#DejaVuSans-30"/>
       <use x="63.623047" xlink:href="#DejaVuSans-2e"/>
       <use x="95.410156" xlink:href="#DejaVuSans-35"/>
      </g>
     </g>
    </g>
    <g id="ytick_3">
     <g id="line2d_11">
      <g>
       <use style="stroke:#000000;stroke-width:0.8;" x="72" xlink:href="#mff062268f5" y="179.539029"/>
      </g>
     </g>
     <g id="text_12">
      <!-- 1.0 -->
      <g transform="translate(42.735625 184.857935)scale(0.14 -0.14)">
       <use xlink:href="#DejaVuSans-31"/>
       <use x="63.623047" xlink:href="#DejaVuSans-2e"/>
       <use x="95.410156" xlink:href="#DejaVuSans-30"/>
      </g>
     </g>
    </g>
    <g id="ytick_4">
     <g id="line2d_12">
      <g>
       <use style="stroke:#000000;stroke-width:0.8;" x="72" xlink:href="#mff062268f5" y="129.610148"/>
      </g>
     </g>
     <g id="text_13">
      <!-- 1.5 -->
      <g transform="translate(42.735625 134.929054)scale(0.14 -0.14)">
       <use xlink:href="#DejaVuSans-31"/>
       <use x="63.623047" xlink:href="#DejaVuSans-2e"/>
       <use x="95.410156" xlink:href="#DejaVuSans-35"/>
      </g>
     </g>
    </g>
    <g id="ytick_5">
     <g id="line2d_13">
      <g>
       <use style="stroke:#000000;stroke-width:0.8;" x="72" xlink:href="#mff062268f5" y="79.681268"/>
      </g>
     </g>
     <g id="text_14">
      <!-- 2.0 -->
      <g transform="translate(42.735625 85.000174)scale(0.14 -0.14)">
       <use xlink:href="#DejaVuSans-32"/>
       <use x="63.623047" xlink:href="#DejaVuSans-2e"/>
       <use x="95.410156" xlink:href="#DejaVuSans-30"/>
      </g>
     </g>
    </g>
    <g id="text_15">
     <!-- Speed [mm/s] -->
     <g transform="translate(35.408125 238.11375)rotate(-90)scale(0.16 -0.16)">
      <defs>
       <path d="M 1159 525 
L 1159 -1331 
L 581 -1331 
L 581 3500 
L 1159 3500 
L 1159 2969 
Q 1341 3281 1617 3432 
Q 1894 3584 2278 3584 
Q 2916 3584 3314 3078 
Q 3713 2572 3713 1747 
Q 3713 922 3314 415 
Q 2916 -91 2278 -91 
Q 1894 -91 1617 61 
Q 1341 213 1159 525 
z
M 3116 1747 
Q 3116 2381 2855 2742 
Q 2594 3103 2138 3103 
Q 1681 3103 1420 2742 
Q 1159 2381 1159 1747 
Q 1159 1113 1420 752 
Q 1681 391 2138 391 
Q 2594 391 2855 752 
Q 3116 1113 3116 1747 
z
" id="DejaVuSans-70" transform="scale(0.015625)"/>
       <path d="M 1625 4666 
L 2156 4666 
L 531 -594 
L 0 -594 
L 1625 4666 
z
" id="DejaVuSans-2f" transform="scale(0.015625)"/>
      </defs>
      <use xlink:href="#DejaVuSans-53"/>
      <use x="63.476562" xlink:href="#DejaVuSans-70"/>
      <use x="126.953125" xlink:href="#DejaVuSans-65"/>
      <use x="188.476562" xlink:href="#DejaVuSans-65"/>
      <use x="250" xlink:href="#DejaVuSans-64"/>
      <use x="313.476562" xlink:href="#DejaVuSans-20"/>
      <use x="345.263672" xlink:href="#DejaVuSans-5b"/>
      <use x="384.277344" xlink:href="#DejaVuSans-6d"/>
      <use x="481.689453" xlink:href="#DejaVuSans-6d"/>
      <use x="579.101562" xlink:href="#DejaVuSans-2f"/>
      <use x="612.792969" xlink:href="#DejaVuSans-73"/>
      <use x="664.892578" xlink:href="#DejaVuSans-5d"/>
     </g>
    </g>
   </g>
   <g id="line2d_14">
    <path clip-path="url(#p9db7730561)" d="M 72 180.975178 
L 518.4 180.975178 
" style="fill:none;stroke:#000000;stroke-dasharray:5.55,2.4;stroke-dashoffset:0;stroke-width:1.5;"/>
   </g>
   <g id="line2d_15">
    <path clip-path="url(#p9db7730561)" d="M 72 278.329933 
L 123.296306 278.302131 
L 124.517647 276.891934 
L 125.738988 277.528794 
L 126.349658 277.723169 
L 126.960328 276.584533 
L 127.570999 283.500754 
L 128.181669 268.818069 
L 128.792339 261.183396 
L 129.40301 285.219718 
L 130.01368 287.347582 
L 130.62435 290.484501 
L 131.235021 303.912326 
L 131.845691 307.8 
L 132.456361 305.307 
L 133.067031 294.467611 
L 133.677702 278.783698 
L 134.288372 258.648592 
L 137.952394 106.421842 
L 138.563064 88.689527 
L 139.784405 62.593796 
L 140.395075 56.882687 
L 141.005746 55.8 
L 141.616416 57.993875 
L 142.227086 63.827323 
L 142.837756 72.433628 
L 144.669767 113.174182 
L 146.501778 160.126834 
L 147.112449 173.257484 
L 147.723119 182.972451 
L 148.333789 186.679582 
L 148.94446 185.477307 
L 149.55513 182.671304 
L 150.1658 159.356301 
L 150.776471 156.70397 
L 151.387141 169.407079 
L 151.997811 154.724291 
L 152.608482 157.186333 
L 153.219152 168.862272 
L 153.829822 171.30579 
L 154.440492 174.95864 
L 155.051163 176.968465 
L 155.661833 179.749001 
L 156.272503 180.676693 
L 156.883174 179.286212 
L 157.493844 178.746565 
L 158.715185 176.713735 
L 159.936525 173.415752 
L 160.547196 173.244492 
L 161.768536 171.287656 
L 162.989877 174.873636 
L 163.600547 175.918024 
L 164.821888 178.471004 
L 165.432558 182.037157 
L 166.043228 182.818699 
L 166.653899 179.208481 
L 167.264569 179.746079 
L 167.875239 181.054488 
L 168.48591 180.954998 
L 169.09658 181.324853 
L 169.70725 181.189268 
L 170.317921 179.790381 
L 170.928591 180.105226 
L 171.539261 181.712022 
L 172.760602 181.836672 
L 173.981943 181.674935 
L 174.592613 182.067014 
L 175.203283 182.629909 
L 176.424624 179.744503 
L 177.035294 182.100323 
L 177.645964 181.406369 
L 178.256635 179.197582 
L 178.867305 179.639489 
L 179.477975 180.752814 
L 180.088646 181.446037 
L 180.699316 179.930407 
L 181.309986 179.483602 
L 181.920657 180.221421 
L 183.141997 181.218182 
L 184.363338 181.622906 
L 184.974008 183.131504 
L 185.584679 182.897887 
L 186.195349 181.882078 
L 186.806019 182.919649 
L 187.416689 184.271589 
L 188.02736 183.214837 
L 188.63803 180.180614 
L 189.2487 179.923247 
L 189.859371 180.755729 
L 190.470041 180.826307 
L 192.302052 179.83944 
L 193.523393 180.068162 
L 194.134063 179.891341 
L 194.744733 179.998345 
L 196.576744 181.19835 
L 197.187415 182.176592 
L 197.798085 180.458754 
L 198.408755 179.832433 
L 199.019425 182.404478 
L 199.630096 180.281664 
L 200.240766 181.07328 
L 200.851436 182.11035 
L 201.462107 180.540569 
L 202.072777 181.870037 
L 203.294118 179.704477 
L 203.904788 180.429475 
L 204.515458 181.756793 
L 205.126129 182.221613 
L 205.736799 182.150662 
L 206.347469 182.703861 
L 206.95814 183.835338 
L 208.17948 182.023019 
L 208.79015 182.915156 
L 210.622161 182.188948 
L 211.232832 181.911441 
L 211.843502 181.360233 
L 212.454172 182.608135 
L 213.064843 181.44264 
L 213.675513 179.038257 
L 214.286183 180.514752 
L 214.896854 181.021584 
L 215.507524 179.30833 
L 216.118194 178.731794 
L 216.728865 179.566891 
L 217.339535 181.419554 
L 217.950205 180.791419 
L 218.560876 179.351179 
L 219.171546 181.124625 
L 219.782216 180.953301 
L 220.392886 181.206841 
L 221.003557 182.625406 
L 221.614227 183.124144 
L 222.224897 184.601877 
L 222.835568 182.916747 
L 223.446238 181.811051 
L 224.056908 183.944536 
L 224.667579 182.851406 
L 225.278249 181.134756 
L 225.888919 181.389592 
L 226.49959 181.836251 
L 227.72093 180.464633 
L 228.331601 180.388615 
L 228.942271 179.873468 
L 229.552941 181.185954 
L 230.163611 180.321337 
L 230.774282 178.153376 
L 231.384952 178.608366 
L 231.995622 180.112923 
L 232.606293 180.22908 
L 233.216963 179.65255 
L 234.438304 182.682817 
L 235.048974 181.187424 
L 235.659644 180.861378 
L 236.270315 183.153787 
L 236.880985 183.62439 
L 238.102326 181.229128 
L 238.712996 182.277228 
L 239.323666 184.466647 
L 239.934337 181.278087 
L 240.545007 179.200858 
L 241.766347 182.735231 
L 242.377018 182.390816 
L 242.987688 180.660644 
L 244.819699 182.968364 
L 245.430369 181.445587 
L 246.04104 180.405761 
L 246.65171 181.460688 
L 247.26238 181.706168 
L 248.483721 181.61021 
L 249.094391 182.541978 
L 249.705062 182.999015 
L 250.315732 181.386583 
L 250.926402 180.940052 
L 251.537073 182.691565 
L 252.758413 179.655564 
L 253.369083 180.987599 
L 253.979754 181.661186 
L 255.201094 180.101544 
L 255.811765 180.859092 
L 256.422435 180.948488 
L 257.643776 180.496933 
L 258.254446 180.863266 
L 258.865116 182.044926 
L 259.475787 181.5197 
L 260.086457 180.026803 
L 261.307798 182.222543 
L 261.918468 181.047368 
L 262.529138 179.481376 
L 263.139808 179.806931 
L 263.750479 181.544121 
L 264.361149 180.381209 
L 264.971819 179.804741 
L 266.19316 182.708733 
L 266.80383 183.323838 
L 267.414501 179.915853 
L 268.025171 179.455007 
L 268.635841 181.665079 
L 270.467852 182.165316 
L 271.078523 184.380568 
L 271.689193 183.36203 
L 272.299863 180.021892 
L 273.521204 181.873588 
L 274.742544 181.734411 
L 275.353215 181.622573 
L 277.185226 181.606843 
L 277.795896 181.190892 
L 278.406566 181.940483 
L 279.017237 181.96227 
L 279.627907 179.86883 
L 280.238577 179.353397 
L 280.849248 179.837856 
L 281.459918 181.772885 
L 282.070588 181.115113 
L 282.681259 179.272097 
L 283.291929 182.177945 
L 283.902599 181.9026 
L 284.513269 179.153372 
L 285.12394 180.027963 
L 285.73461 181.861775 
L 286.34528 182.032511 
L 286.955951 181.991258 
L 287.566621 182.526475 
L 288.177291 183.446507 
L 288.787962 183.037884 
L 289.398632 181.532565 
L 290.009302 181.760741 
L 290.619973 182.813127 
L 291.230643 183.31191 
L 291.841313 181.605827 
L 292.451984 180.462453 
L 293.062654 181.828837 
L 293.673324 180.463685 
L 294.283995 179.761443 
L 294.894665 180.59773 
L 295.505335 180.985382 
L 296.116005 181.635694 
L 296.726676 179.846526 
L 297.337346 179.057827 
L 298.558687 180.689793 
L 299.169357 181.318833 
L 299.780027 181.552858 
L 300.390698 182.4749 
L 301.001368 182.552313 
L 301.612038 181.174713 
L 302.222709 181.495681 
L 302.833379 182.641532 
L 303.444049 184.6985 
L 304.05472 181.459242 
L 304.66539 178.970931 
L 305.27606 181.982785 
L 305.886731 180.603846 
L 306.497401 180.219205 
L 307.108071 181.2095 
L 308.329412 181.157126 
L 308.940082 181.924858 
L 310.161423 179.533777 
L 310.772093 180.810973 
L 311.382763 181.360817 
L 311.993434 181.568313 
L 312.604104 182.237383 
L 313.214774 182.51078 
L 313.825445 180.863936 
L 314.436115 180.675764 
L 315.046785 181.884627 
L 315.657456 182.087491 
L 316.878796 181.689825 
L 317.489466 182.382674 
L 318.100137 181.982627 
L 318.710807 180.239199 
L 319.321477 180.294474 
L 319.932148 180.855812 
L 320.542818 180.749747 
L 321.153488 181.991 
L 321.764159 180.729521 
L 322.374829 178.835173 
L 322.985499 181.319598 
L 323.59617 181.204426 
L 324.20684 179.974884 
L 325.428181 182.423025 
L 326.038851 181.770212 
L 326.649521 180.238574 
L 327.260192 180.262863 
L 327.870862 182.707434 
L 328.481532 182.69234 
L 329.092202 180.910154 
L 330.924213 183.816072 
L 331.534884 182.070301 
L 332.145554 181.781714 
L 333.366895 183.941539 
L 333.977565 182.80871 
L 334.588235 180.4776 
L 335.198906 181.192311 
L 335.809576 181.497483 
L 336.420246 181.342759 
L 337.030917 181.321433 
L 337.641587 181.183841 
L 338.252257 180.789478 
L 340.084268 180.322467 
L 340.694938 181.502393 
L 341.305609 181.484044 
L 341.916279 179.713248 
L 342.526949 180.15443 
L 343.13762 181.50318 
L 343.74829 179.929307 
L 344.35896 179.562952 
L 344.969631 182.022757 
L 345.580301 180.636424 
L 346.190971 180.260106 
L 346.801642 181.735617 
L 348.022982 182.721935 
L 348.633653 181.005745 
L 349.244323 180.925417 
L 349.854993 182.812876 
L 350.465663 182.218445 
L 351.076334 179.880013 
L 351.687004 179.280865 
L 352.297674 179.940856 
L 352.908345 181.33193 
L 353.519015 182.021487 
L 354.129685 180.705714 
L 354.740356 180.883421 
L 355.351026 182.765516 
L 355.961696 181.135792 
L 356.572367 180.176437 
L 357.793707 182.838016 
L 358.404378 182.741995 
L 359.015048 180.813178 
L 359.625718 181.082838 
L 360.236389 181.922839 
L 362.068399 182.554848 
L 362.67907 183.659227 
L 363.28974 182.584027 
L 363.90041 180.713567 
L 364.511081 181.153133 
L 365.121751 181.969701 
L 365.732421 182.094545 
L 366.343092 180.1785 
L 366.953762 179.281022 
L 367.564432 180.1605 
L 368.175103 180.305876 
L 369.396443 180.283341 
L 370.007114 181.734914 
L 370.617784 181.406926 
L 371.228454 180.324426 
L 372.449795 182.536991 
L 373.060465 181.062974 
L 373.671135 180.440485 
L 374.281806 181.94824 
L 374.892476 182.754453 
L 375.503146 182.177358 
L 376.113817 180.389216 
L 376.724487 180.762004 
L 377.335157 181.845423 
L 377.945828 182.536277 
L 378.556498 181.14084 
L 379.167168 180.209297 
L 379.777839 182.059245 
L 380.388509 181.07162 
L 380.999179 179.572508 
L 381.60985 180.411573 
L 382.22052 181.778893 
L 382.83119 181.284252 
L 383.44186 180.170171 
L 384.052531 180.826514 
L 384.663201 181.079787 
L 385.273871 182.870989 
L 385.884542 182.127048 
L 386.495212 180.484341 
L 387.105882 182.175111 
L 387.716553 182.295406 
L 388.327223 180.741089 
L 388.937893 181.125937 
L 389.548564 182.209134 
L 391.380575 182.25046 
L 391.991245 182.597586 
L 392.601915 182.339378 
L 393.212585 181.354922 
L 393.823256 180.045186 
L 394.433926 180.497142 
L 395.044596 180.774182 
L 395.655267 179.947764 
L 398.097948 181.597376 
L 398.708618 181.533555 
L 399.319289 183.18345 
L 399.929959 182.751049 
L 400.540629 179.626773 
L 401.1513 180.031379 
L 402.37264 182.514005 
L 402.983311 181.57034 
L 403.593981 179.984456 
L 404.204651 181.560813 
L 404.815321 181.042125 
L 405.425992 181.011792 
L 406.036662 182.060524 
L 407.258003 183.561224 
L 407.868673 180.868114 
L 408.479343 180.016275 
L 409.700684 182.230739 
L 410.311354 181.917993 
L 410.922025 179.849488 
L 411.532695 180.176301 
L 412.143365 180.964585 
L 413.364706 181.418989 
L 413.975376 181.821985 
L 414.586047 183.125682 
L 415.196717 182.141853 
L 415.807387 180.495937 
L 416.418057 181.601202 
L 417.028728 181.687193 
L 417.639398 181.494316 
L 418.250068 180.382697 
L 418.860739 179.63149 
L 419.471409 181.868593 
L 420.082079 181.034672 
L 420.69275 179.594705 
L 421.30342 181.425176 
L 421.91409 180.914214 
L 422.524761 180.906893 
L 423.135431 182.24597 
L 423.746101 182.420602 
L 424.356772 183.720656 
L 424.967442 181.647629 
L 425.578112 180.303861 
L 426.799453 182.71538 
L 427.410123 182.569457 
L 428.020793 180.375137 
L 428.631464 180.983025 
L 429.852804 181.000578 
L 430.463475 181.738091 
L 431.074145 181.815774 
L 431.684815 182.802413 
L 432.295486 181.593972 
L 432.906156 180.066474 
L 433.516826 180.846768 
L 434.127497 180.995822 
L 435.348837 180.564868 
L 435.959508 180.492735 
L 438.402189 181.198345 
L 439.012859 182.17588 
L 439.623529 181.976214 
L 440.2342 180.337305 
L 440.84487 180.825651 
L 441.45554 182.267585 
L 442.066211 181.111593 
L 442.676881 179.111673 
L 443.287551 179.192327 
L 443.898222 179.65712 
L 444.508892 181.407 
L 445.119562 181.616723 
L 445.730233 180.036927 
L 446.340903 181.029552 
L 446.951573 181.637109 
L 447.562244 181.95739 
L 448.783584 183.760753 
L 449.394254 184.106643 
L 450.004925 181.723573 
L 450.615595 180.861037 
L 451.836936 182.609032 
L 452.447606 183.150615 
L 453.058276 181.446098 
L 453.668947 180.808287 
L 454.279617 181.735275 
L 454.890287 181.843623 
L 455.500958 181.61614 
L 456.722298 181.767367 
L 457.332969 181.656487 
L 457.943639 181.27272 
L 458.554309 181.434396 
L 459.164979 182.374127 
L 460.38632 179.281022 
L 460.99699 180.184643 
L 462.218331 180.961672 
L 462.829001 181.226555 
L 463.439672 181.84859 
L 464.050342 182.276376 
L 464.661012 180.648074 
L 465.271683 180.530577 
L 465.882353 181.510918 
L 466.493023 183.647293 
L 467.103694 181.399261 
L 467.714364 178.075116 
L 468.325034 179.830587 
L 468.935705 181.178697 
L 469.546375 181.834616 
L 470.157045 180.548679 
L 470.767715 180.513267 
L 471.378386 182.300169 
L 471.989056 182.215179 
L 472.599726 180.803633 
L 473.210397 180.617158 
L 473.821067 183.090934 
L 474.431737 183.119937 
L 475.042408 179.793967 
L 475.653078 180.126234 
L 476.263748 182.176211 
L 476.874419 182.148408 
L 477.485089 181.830942 
L 478.095759 181.97469 
L 478.70643 183.823973 
L 479.3171 183.746922 
L 479.92777 181.659364 
L 480.53844 182.418986 
L 481.149111 182.800667 
L 481.759781 181.056468 
L 482.370451 180.744288 
L 482.981122 181.618765 
L 483.591792 181.023624 
L 484.202462 182.484873 
L 484.813133 181.281738 
L 485.423803 178.910294 
L 486.034473 180.956008 
L 486.645144 180.782677 
L 487.255814 179.7264 
L 487.866484 180.583339 
L 488.477155 181.703388 
L 489.087825 180.316039 
L 489.698495 179.888797 
L 490.309166 181.485445 
L 490.919836 182.046766 
L 491.530506 181.80395 
L 492.141176 180.445898 
L 492.751847 180.877153 
L 493.362517 182.466189 
L 493.973187 182.976887 
L 494.583858 180.452028 
L 495.194528 179.974619 
L 495.805198 181.914417 
L 496.415869 182.038199 
L 497.026539 180.327256 
L 497.637209 179.162885 
L 498.24788 180.230993 
L 498.85855 180.306144 
L 499.46922 180.644442 
L 500.079891 181.498461 
L 500.690561 182.562487 
L 501.911902 179.979297 
L 502.522572 181.162395 
L 503.133242 181.154216 
L 503.743912 182.338565 
L 504.354583 182.047939 
L 504.965253 181.01775 
L 505.575923 181.916481 
L 506.186594 184.196101 
L 507.407934 178.680154 
L 508.018605 178.88917 
L 508.629275 179.315371 
L 509.239945 179.93874 
L 510.461286 181.637538 
L 512.293297 184.48119 
L 512.903967 185.202144 
L 513.514637 185.647611 
L 514.125308 185.702561 
L 514.735978 185.240092 
L 515.346648 184.121421 
L 515.957319 182.195891 
L 516.567989 179.300968 
L 517.178659 175.262242 
L 517.78933 169.893427 
L 518.4 162.996358 
L 518.4 162.996358 
" style="fill:none;stroke:#ff0000;stroke-linecap:square;stroke-width:2;"/>
   </g>
   <g id="patch_3">
    <path d="M 72 320.4 
L 72 43.2 
" style="fill:none;stroke:#000000;stroke-linecap:square;stroke-linejoin:miter;stroke-width:0.8;"/>
   </g>
   <g id="patch_4">
    <path d="M 518.4 320.4 
L 518.4 43.2 
" style="fill:none;stroke:#000000;stroke-linecap:square;stroke-linejoin:miter;stroke-width:0.8;"/>
   </g>
   <g id="patch_5">
    <path d="M 72 320.4 
L 518.4 320.4 
" style="fill:none;stroke:#000000;stroke-linecap:square;stroke-linejoin:miter;stroke-width:0.8;"/>
   </g>
   <g id="patch_6">
    <path d="M 72 43.2 
L 518.4 43.2 
" style="fill:none;stroke:#000000;stroke-linecap:square;stroke-linejoin:miter;stroke-width:0.8;"/>
   </g>
   <g id="text_16">
    <!-- Front Propogation Speed -->
    <g transform="translate(172.245312 37.2)scale(0.2 -0.2)">
     <defs>
      <path d="M 628 4666 
L 3309 4666 
L 3309 4134 
L 1259 4134 
L 1259 2759 
L 3109 2759 
L 3109 2228 
L 1259 2228 
L 1259 0 
L 628 0 
L 628 4666 
z
" id="DejaVuSans-46" transform="scale(0.015625)"/>
      <path d="M 2631 2963 
Q 2534 3019 2420 3045 
Q 2306 3072 2169 3072 
Q 1681 3072 1420 2755 
Q 1159 2438 1159 1844 
L 1159 0 
L 581 0 
L 581 3500 
L 1159 3500 
L 1159 2956 
Q 1341 3275 1631 3429 
Q 1922 3584 2338 3584 
Q 2397 3584 2469 3576 
Q 2541 3569 2628 3553 
L 2631 2963 
z
" id="DejaVuSans-72" transform="scale(0.015625)"/>
      <path d="M 1172 4494 
L 1172 3500 
L 2356 3500 
L 2356 3053 
L 1172 3053 
L 1172 1153 
Q 1172 725 1289 603 
Q 1406 481 1766 481 
L 2356 481 
L 2356 0 
L 1766 0 
Q 1100 0 847 248 
Q 594 497 594 1153 
L 594 3053 
L 172 3053 
L 172 3500 
L 594 3500 
L 594 4494 
L 1172 4494 
z
" id="DejaVuSans-74" transform="scale(0.015625)"/>
      <path d="M 1259 4147 
L 1259 2394 
L 2053 2394 
Q 2494 2394 2734 2622 
Q 2975 2850 2975 3272 
Q 2975 3691 2734 3919 
Q 2494 4147 2053 4147 
L 1259 4147 
z
M 628 4666 
L 2053 4666 
Q 2838 4666 3239 4311 
Q 3641 3956 3641 3272 
Q 3641 2581 3239 2228 
Q 2838 1875 2053 1875 
L 1259 1875 
L 1259 0 
L 628 0 
L 628 4666 
z
" id="DejaVuSans-50" transform="scale(0.015625)"/>
      <path d="M 2906 1791 
Q 2906 2416 2648 2759 
Q 2391 3103 1925 3103 
Q 1463 3103 1205 2759 
Q 947 2416 947 1791 
Q 947 1169 1205 825 
Q 1463 481 1925 481 
Q 2391 481 2648 825 
Q 2906 1169 2906 1791 
z
M 3481 434 
Q 3481 -459 3084 -895 
Q 2688 -1331 1869 -1331 
Q 1566 -1331 1297 -1286 
Q 1028 -1241 775 -1147 
L 775 -588 
Q 1028 -725 1275 -790 
Q 1522 -856 1778 -856 
Q 2344 -856 2625 -561 
Q 2906 -266 2906 331 
L 2906 616 
Q 2728 306 2450 153 
Q 2172 0 1784 0 
Q 1141 0 747 490 
Q 353 981 353 1791 
Q 353 2603 747 3093 
Q 1141 3584 1784 3584 
Q 2172 3584 2450 3431 
Q 2728 3278 2906 2969 
L 2906 3500 
L 3481 3500 
L 3481 434 
z
" id="DejaVuSans-67" transform="scale(0.015625)"/>
      <path d="M 2194 1759 
Q 1497 1759 1228 1600 
Q 959 1441 959 1056 
Q 959 750 1161 570 
Q 1363 391 1709 391 
Q 2188 391 2477 730 
Q 2766 1069 2766 1631 
L 2766 1759 
L 2194 1759 
z
M 3341 1997 
L 3341 0 
L 2766 0 
L 2766 531 
Q 2569 213 2275 61 
Q 1981 -91 1556 -91 
Q 1019 -91 701 211 
Q 384 513 384 1019 
Q 384 1609 779 1909 
Q 1175 2209 1959 2209 
L 2766 2209 
L 2766 2266 
Q 2766 2663 2505 2880 
Q 2244 3097 1772 3097 
Q 1472 3097 1187 3025 
Q 903 2953 641 2809 
L 641 3341 
Q 956 3463 1253 3523 
Q 1550 3584 1831 3584 
Q 2591 3584 2966 3190 
Q 3341 2797 3341 1997 
z
" id="DejaVuSans-61" transform="scale(0.015625)"/>
     </defs>
     <use xlink:href="#DejaVuSans-46"/>
     <use x="50.269531" xlink:href="#DejaVuSans-72"/>
     <use x="89.132812" xlink:href="#DejaVuSans-6f"/>
     <use x="150.314453" xlink:href="#DejaVuSans-6e"/>
     <use x="213.693359" xlink:href="#DejaVuSans-74"/>
     <use x="252.902344" xlink:href="#DejaVuSans-20"/>
     <use x="284.689453" xlink:href="#DejaVuSans-50"/>
     <use x="343.242188" xlink:href="#DejaVuSans-72"/>
     <use x="382.105469" xlink:href="#DejaVuSans-6f"/>
     <use x="443.287109" xlink:href="#DejaVuSans-70"/>
     <use x="506.763672" xlink:href="#DejaVuSans-6f"/>
     <use x="567.945312" xlink:href="#DejaVuSans-67"/>
     <use x="631.421875" xlink:href="#DejaVuSans-61"/>
     <use x="692.701172" xlink:href="#DejaVuSans-74"/>
     <use x="731.910156" xlink:href="#DejaVuSans-69"/>
     <use x="759.693359" xlink:href="#DejaVuSans-6f"/>
     <use x="820.875" xlink:href="#DejaVuSans-6e"/>
     <use x="884.253906" xlink:href="#DejaVuSans-20"/>
     <use x="916.041016" xlink:href="#DejaVuSans-53"/>
     <use x="979.517578" xlink:href="#DejaVuSans-70"/>
     <use x="1042.994141" xlink:href="#DejaVuSans-65"/>
     <use x="1104.517578" xlink:href="#DejaVuSans-65"/>
     <use x="1166.041016" xlink:href="#DejaVuSans-64"/>
    </g>
   </g>
   <g id="legend_1">
    <g id="patch_7">
     <path d="M 325.967812 111.175687 
L 508.6 111.175687 
Q 511.4 111.175687 511.4 108.375687 
L 511.4 53 
Q 511.4 50.2 508.6 50.2 
L 325.967812 50.2 
Q 323.167812 50.2 323.167812 53 
L 323.167812 108.375687 
Q 323.167812 111.175687 325.967812 111.175687 
z
" style="fill:#ffffff;opacity:0.8;stroke:#cccccc;stroke-linejoin:miter;"/>
    </g>
    <g id="line2d_16">
     <path d="M 328.767812 61.537812 
L 356.767812 61.537812 
" style="fill:none;stroke:#ff0000;stroke-linecap:square;stroke-width:2;"/>
    </g>
    <g id="line2d_17"/>
    <g id="text_17">
     <!-- Front speed -->
     <g transform="translate(367.967812 66.437812)scale(0.14 -0.14)">
      <use xlink:href="#DejaVuSans-46"/>
      <use x="50.269531" xlink:href="#DejaVuSans-72"/>
      <use x="89.132812" xlink:href="#DejaVuSans-6f"/>
      <use x="150.314453" xlink:href="#DejaVuSans-6e"/>
      <use x="213.693359" xlink:href="#DejaVuSans-74"/>
      <use x="252.902344" xlink:href="#DejaVuSans-20"/>
      <use x="284.689453" xlink:href="#DejaVuSans-73"/>
      <use x="336.789062" xlink:href="#DejaVuSans-70"/>
      <use x="400.265625" xlink:href="#DejaVuSans-65"/>
      <use x="461.789062" xlink:href="#DejaVuSans-65"/>
      <use x="523.3125" xlink:href="#DejaVuSans-64"/>
     </g>
    </g>
    <g id="line2d_18">
     <path d="M 328.767812 91.381437 
L 356.767812 91.381437 
" style="fill:none;stroke:#000000;stroke-dasharray:5.55,2.4;stroke-dashoffset:0;stroke-width:1.5;"/>
    </g>
    <g id="line2d_19"/>
    <g id="text_18">
     <!-- Steady state -->
     <g transform="translate(367.967812 86.987187)scale(0.14 -0.14)">
      <defs>
       <path d="M 2059 -325 
Q 1816 -950 1584 -1140 
Q 1353 -1331 966 -1331 
L 506 -1331 
L 506 -850 
L 844 -850 
Q 1081 -850 1212 -737 
Q 1344 -625 1503 -206 
L 1606 56 
L 191 3500 
L 800 3500 
L 1894 763 
L 2988 3500 
L 3597 3500 
L 2059 -325 
z
" id="DejaVuSans-79" transform="scale(0.015625)"/>
      </defs>
      <use xlink:href="#DejaVuSans-53"/>
      <use x="63.476562" xlink:href="#DejaVuSans-74"/>
      <use x="102.685547" xlink:href="#DejaVuSans-65"/>
      <use x="164.208984" xlink:href="#DejaVuSans-61"/>
      <use x="225.488281" xlink:href="#DejaVuSans-64"/>
      <use x="288.964844" xlink:href="#DejaVuSans-79"/>
      <use x="348.144531" xlink:href="#DejaVuSans-20"/>
      <use x="379.931641" xlink:href="#DejaVuSans-73"/>
      <use x="432.03125" xlink:href="#DejaVuSans-74"/>
      <use x="471.240234" xlink:href="#DejaVuSans-61"/>
      <use x="532.519531" xlink:href="#DejaVuSans-74"/>
      <use x="571.728516" xlink:href="#DejaVuSans-65"/>
     </g>
     <!-- speed = 0.99 mm/s -->
     <g transform="translate(367.967812 102.664125)scale(0.14 -0.14)">
      <defs>
       <path d="M 678 2906 
L 4684 2906 
L 4684 2381 
L 678 2381 
L 678 2906 
z
M 678 1631 
L 4684 1631 
L 4684 1100 
L 678 1100 
L 678 1631 
z
" id="DejaVuSans-3d" transform="scale(0.015625)"/>
       <path d="M 703 97 
L 703 672 
Q 941 559 1184 500 
Q 1428 441 1663 441 
Q 2288 441 2617 861 
Q 2947 1281 2994 2138 
Q 2813 1869 2534 1725 
Q 2256 1581 1919 1581 
Q 1219 1581 811 2004 
Q 403 2428 403 3163 
Q 403 3881 828 4315 
Q 1253 4750 1959 4750 
Q 2769 4750 3195 4129 
Q 3622 3509 3622 2328 
Q 3622 1225 3098 567 
Q 2575 -91 1691 -91 
Q 1453 -91 1209 -44 
Q 966 3 703 97 
z
M 1959 2075 
Q 2384 2075 2632 2365 
Q 2881 2656 2881 3163 
Q 2881 3666 2632 3958 
Q 2384 4250 1959 4250 
Q 1534 4250 1286 3958 
Q 1038 3666 1038 3163 
Q 1038 2656 1286 2365 
Q 1534 2075 1959 2075 
z
" id="DejaVuSans-39" transform="scale(0.015625)"/>
      </defs>
      <use xlink:href="#DejaVuSans-73"/>
      <use x="52.099609" xlink:href="#DejaVuSans-70"/>
      <use x="115.576172" xlink:href="#DejaVuSans-65"/>
      <use x="177.099609" xlink:href="#DejaVuSans-65"/>
      <use x="238.623047" xlink:href="#DejaVuSans-64"/>
      <use x="302.099609" xlink:href="#DejaVuSans-20"/>
      <use x="333.886719" xlink:href="#DejaVuSans-3d"/>
      <use x="417.675781" xlink:href="#DejaVuSans-20"/>
      <use x="449.462891" xlink:href="#DejaVuSans-30"/>
      <use x="513.085938" xlink:href="#DejaVuSans-2e"/>
      <use x="544.873047" xlink:href="#DejaVuSans-39"/>
      <use x="608.496094" xlink:href="#DejaVuSans-39"/>
      <use x="672.119141" xlink:href="#DejaVuSans-20"/>
      <use x="703.90625" xlink:href="#DejaVuSans-6d"/>
      <use x="801.318359" xlink:href="#DejaVuSans-6d"/>
      <use x="898.730469" xlink:href="#DejaVuSans-2f"/>
      <use x="932.421875" xlink:href="#DejaVuSans-73"/>
     </g>
    </g>
   </g>
  </g>
 </g>
 <defs>
  <clipPath id="p9db7730561">
   <rect height="277.2" width="446.4" x="72" y="43.2"/>
  </clipPath>
 </defs>
</svg>
