<?xml version="1.0" encoding="utf-8" standalone="no"?>
<!DOCTYPE svg PUBLIC "-//W3C//DTD SVG 1.1//EN"
  "http://www.w3.org/Graphics/SVG/1.1/DTD/svg11.dtd">
<svg height="360pt" version="1.1" viewBox="0 0 576 360" width="576pt" xmlns="http://www.w3.org/2000/svg" xmlns:xlink="http://www.w3.org/1999/xlink">
 <metadata>
  <rdf:RDF xmlns:cc="http://creativecommons.org/ns#" xmlns:dc="http://purl.org/dc/elements/1.1/" xmlns:rdf="http://www.w3.org/1999/02/22-rdf-syntax-ns#">
   <cc:Work>
    <dc:type rdf:resource="http://purl.org/dc/dcmitype/StillImage"/>
    <dc:date>2022-06-30T14:16:46.615960</dc:date>
    <dc:format>image/svg+xml</dc:format>
    <dc:creator>
     <cc:Agent>
      <dc:title>Matplotlib v3.4.3, https://matplotlib.org/</dc:title>
     </cc:Agent>
    </dc:creator>
   </cc:Work>
  </rdf:RDF>
 </metadata>
 <defs>
  <style type="text/css">*{stroke-linecap:butt;stroke-linejoin:round;}</style>
 </defs>
 <g id="figure_1">
  <g id="patch_1">
   <path d="M 0 360 
L 576 360 
L 576 0 
L 0 0 
z
" style="fill:#ffffff;"/>
  </g>
  <g id="axes_1">
   <g id="patch_2">
    <path d="M 72 320.4 
L 518.4 320.4 
L 518.4 43.2 
L 72 43.2 
z
" style="fill:#ffffff;"/>
   </g>
   <g id="PolyCollection_1">
    <defs>
     <path d="M 72 -170.533229 
L 72 -175.785918 
L 72.626966 -175.785918 
L 73.253933 -175.785918 
L 73.880899 -175.785918 
L 74.507865 -175.785918 
L 75.134831 -175.785918 
L 75.761798 -175.785918 
L 76.388764 -175.785918 
L 77.01573 -175.785918 
L 77.642697 -175.785918 
L 78.269663 -175.785918 
L 78.896629 -175.785918 
L 79.523596 -175.785918 
L 80.150562 -175.785918 
L 80.777528 -175.785918 
L 81.404494 -175.785918 
L 82.031461 -175.785918 
L 82.658427 -175.785918 
L 83.285393 -175.785918 
L 83.91236 -175.785918 
L 84.539326 -175.785918 
L 85.166292 -175.785918 
L 85.793258 -175.785918 
L 86.420225 -175.785918 
L 87.047191 -175.785918 
L 87.674157 -175.785918 
L 88.301124 -175.785918 
L 88.92809 -175.785918 
L 89.555056 -175.785918 
L 90.182022 -175.785918 
L 90.808989 -175.785918 
L 91.435955 -175.785918 
L 92.062921 -175.785918 
L 92.689888 -175.785918 
L 93.316854 -175.785918 
L 93.94382 -175.785918 
L 94.570787 -175.785918 
L 95.197753 -175.785918 
L 95.824719 -175.785918 
L 96.451685 -175.785918 
L 97.078652 -175.785918 
L 97.705618 -175.785918 
L 98.332584 -175.785918 
L 98.959551 -175.785918 
L 99.586517 -175.785918 
L 100.213483 -175.785918 
L 100.840449 -175.785918 
L 101.467416 -175.785918 
L 102.094382 -175.785918 
L 102.721348 -175.785918 
L 103.348315 -175.785918 
L 103.975281 -175.785918 
L 104.602247 -175.785918 
L 105.229213 -175.785918 
L 105.85618 -175.785918 
L 106.483146 -175.785918 
L 107.110112 -175.785918 
L 107.737079 -175.785918 
L 108.364045 -175.785918 
L 108.991011 -175.785918 
L 109.617978 -175.785918 
L 110.244944 -175.785918 
L 110.87191 -175.785918 
L 111.498876 -175.785918 
L 112.125843 -175.785918 
L 112.752809 -175.785918 
L 113.379775 -175.785918 
L 114.006742 -175.785918 
L 114.633708 -175.785918 
L 115.260674 -175.785918 
L 115.88764 -175.785918 
L 116.514607 -175.785918 
L 117.141573 -175.785918 
L 117.768539 -175.785918 
L 118.395506 -175.785918 
L 119.022472 -175.785918 
L 119.649438 -175.785918 
L 120.276404 -175.785918 
L 120.903371 -175.785918 
L 121.530337 -175.785918 
L 122.157303 -175.785918 
L 122.78427 -175.785918 
L 123.411236 -175.785918 
L 124.038202 -175.785918 
L 124.665169 -175.785918 
L 125.292135 -175.785918 
L 125.919101 -175.785918 
L 126.546067 -175.785918 
L 127.173034 -175.785918 
L 127.8 -175.785918 
L 128.426966 -175.785918 
L 129.053933 -175.785918 
L 129.680899 -175.785918 
L 130.307865 -175.785918 
L 130.934831 -175.785918 
L 131.561798 -175.785918 
L 132.188764 -175.785918 
L 132.81573 -175.785918 
L 133.442697 -175.785918 
L 134.069663 -175.785918 
L 134.696629 -175.785918 
L 135.323596 -175.785918 
L 135.950562 -175.785918 
L 136.577528 -175.785918 
L 137.204494 -175.785918 
L 137.831461 -175.785918 
L 138.458427 -175.785918 
L 139.085393 -175.785918 
L 139.71236 -175.785918 
L 140.339326 -175.785918 
L 140.966292 -175.785918 
L 141.593258 -175.785918 
L 142.220225 -175.785918 
L 142.847191 -175.785918 
L 143.474157 -175.785918 
L 144.101124 -175.785918 
L 144.72809 -175.785918 
L 145.355056 -175.785918 
L 145.982022 -175.785918 
L 146.608989 -175.785918 
L 147.235955 -175.785918 
L 147.862921 -175.785918 
L 148.489888 -175.785918 
L 149.116854 -175.785918 
L 149.74382 -175.785918 
L 150.370787 -175.785918 
L 150.997753 -175.785918 
L 151.624719 -175.785918 
L 152.251685 -175.785918 
L 152.878652 -175.785918 
L 153.505618 -175.785918 
L 154.132584 -175.785918 
L 154.759551 -175.785918 
L 155.386517 -175.785918 
L 156.013483 -175.785918 
L 156.640449 -175.785918 
L 157.267416 -175.785918 
L 157.894382 -175.785918 
L 158.521348 -175.785918 
L 159.148315 -175.785918 
L 159.775281 -175.785918 
L 160.402247 -175.785918 
L 161.029213 -175.785918 
L 161.65618 -175.785918 
L 162.283146 -175.785918 
L 162.910112 -175.785918 
L 163.537079 -175.785918 
L 164.164045 -175.785918 
L 164.791011 -175.785918 
L 165.417978 -175.785918 
L 166.044944 -175.785918 
L 166.67191 -175.785918 
L 167.298876 -175.785918 
L 167.925843 -175.785918 
L 168.552809 -175.785918 
L 169.179775 -175.785918 
L 169.806742 -175.785918 
L 170.433708 -175.785918 
L 171.060674 -175.785918 
L 171.68764 -175.785918 
L 172.314607 -175.785918 
L 172.941573 -175.785918 
L 173.568539 -175.785918 
L 174.195506 -175.785918 
L 174.822472 -175.785918 
L 175.449438 -175.785918 
L 176.076404 -175.785918 
L 176.703371 -175.785918 
L 177.330337 -175.785918 
L 177.957303 -175.785918 
L 178.58427 -175.785918 
L 179.211236 -175.785918 
L 179.838202 -175.785918 
L 180.465169 -175.785918 
L 181.092135 -175.785918 
L 181.719101 -175.785918 
L 182.346067 -175.785918 
L 182.973034 -175.785918 
L 183.6 -175.785918 
L 184.226966 -175.785918 
L 184.853933 -175.785918 
L 185.480899 -175.785918 
L 186.107865 -175.785918 
L 186.734831 -175.785918 
L 187.361798 -175.785918 
L 187.988764 -175.785918 
L 188.61573 -175.785918 
L 189.242697 -175.785918 
L 189.869663 -175.785918 
L 190.496629 -175.785918 
L 191.123596 -175.785918 
L 191.750562 -175.785918 
L 192.377528 -175.785918 
L 193.004494 -175.785918 
L 193.631461 -175.785918 
L 194.258427 -175.785918 
L 194.885393 -175.785918 
L 195.51236 -175.785918 
L 196.139326 -175.785918 
L 196.766292 -175.785918 
L 197.393258 -175.785918 
L 198.020225 -175.785918 
L 198.647191 -175.785918 
L 199.274157 -175.785918 
L 199.901124 -175.785918 
L 200.52809 -175.785918 
L 201.155056 -175.785918 
L 201.782022 -175.785918 
L 202.408989 -175.785918 
L 203.035955 -175.785918 
L 203.662921 -175.785918 
L 204.289888 -175.785918 
L 204.916854 -175.785918 
L 205.54382 -175.785918 
L 206.170787 -175.785918 
L 206.797753 -175.785918 
L 207.424719 -175.785918 
L 208.051685 -175.785918 
L 208.678652 -175.785918 
L 209.305618 -175.785918 
L 209.932584 -175.785918 
L 210.559551 -175.785918 
L 211.186517 -175.785918 
L 211.813483 -175.785918 
L 212.440449 -175.785918 
L 213.067416 -175.785918 
L 213.694382 -175.785918 
L 214.321348 -175.785918 
L 214.948315 -175.785918 
L 215.575281 -175.785918 
L 216.202247 -175.785918 
L 216.829213 -175.785918 
L 217.45618 -175.785918 
L 218.083146 -175.785918 
L 218.710112 -175.785918 
L 219.337079 -175.785918 
L 219.964045 -175.785918 
L 220.591011 -175.785918 
L 221.217978 -175.785918 
L 221.844944 -175.785918 
L 222.47191 -175.785918 
L 223.098876 -175.785918 
L 223.725843 -175.785918 
L 224.352809 -175.785918 
L 224.979775 -175.785918 
L 225.606742 -175.785918 
L 226.233708 -175.785918 
L 226.860674 -175.785918 
L 227.48764 -175.785918 
L 228.114607 -175.785918 
L 228.741573 -175.785918 
L 229.368539 -175.785918 
L 229.995506 -175.785918 
L 230.622472 -175.785918 
L 231.249438 -175.785918 
L 231.876404 -175.785918 
L 232.503371 -175.785918 
L 233.130337 -175.785918 
L 233.757303 -175.785918 
L 234.38427 -175.785918 
L 235.011236 -175.785918 
L 235.638202 -175.785918 
L 236.265169 -175.785918 
L 236.892135 -175.785918 
L 237.519101 -175.785918 
L 238.146067 -175.785918 
L 238.773034 -175.785918 
L 239.4 -175.785918 
L 240.026966 -175.785918 
L 240.653933 -175.785918 
L 241.280899 -175.785918 
L 241.907865 -175.785918 
L 242.534831 -175.785918 
L 243.161798 -175.785918 
L 243.788764 -175.785918 
L 244.41573 -175.785918 
L 245.042697 -175.785918 
L 245.669663 -175.785918 
L 246.296629 -175.785918 
L 246.923596 -175.785918 
L 247.550562 -175.785918 
L 248.177528 -175.785918 
L 248.804494 -175.785918 
L 249.431461 -175.785918 
L 250.058427 -175.785918 
L 250.685393 -175.785918 
L 251.31236 -175.785918 
L 251.939326 -175.785918 
L 252.566292 -175.785918 
L 253.193258 -175.785918 
L 253.820225 -175.785918 
L 254.447191 -175.785918 
L 255.074157 -175.785918 
L 255.701124 -175.785918 
L 256.32809 -175.785918 
L 256.955056 -175.785918 
L 257.582022 -175.785918 
L 258.208989 -175.785918 
L 258.835955 -175.785918 
L 259.462921 -175.785918 
L 260.089888 -175.785918 
L 260.716854 -175.785918 
L 261.34382 -175.785918 
L 261.970787 -175.785918 
L 262.597753 -175.785918 
L 263.224719 -175.785918 
L 263.851685 -175.785918 
L 264.478652 -175.785918 
L 265.105618 -175.785918 
L 265.732584 -175.785918 
L 266.359551 -175.785918 
L 266.986517 -175.785918 
L 267.613483 -175.785918 
L 268.240449 -175.785918 
L 268.867416 -175.785918 
L 269.494382 -175.785918 
L 270.121348 -175.785918 
L 270.748315 -175.785918 
L 271.375281 -175.785918 
L 272.002247 -175.785918 
L 272.629213 -175.785918 
L 273.25618 -175.785918 
L 273.883146 -175.785918 
L 274.510112 -175.785918 
L 275.137079 -175.785918 
L 275.764045 -175.785918 
L 276.391011 -175.785918 
L 277.017978 -175.785918 
L 277.644944 -175.785918 
L 278.27191 -175.785918 
L 278.898876 -175.785918 
L 279.525843 -175.785918 
L 280.152809 -175.785918 
L 280.779775 -175.785918 
L 281.406742 -175.785918 
L 282.033708 -175.785918 
L 282.660674 -175.785918 
L 283.28764 -175.785918 
L 283.914607 -175.785918 
L 284.541573 -175.785918 
L 285.168539 -175.785918 
L 285.795506 -175.785918 
L 286.422472 -175.785918 
L 287.049438 -175.785918 
L 287.676404 -175.785918 
L 288.303371 -175.785918 
L 288.930337 -175.785918 
L 289.557303 -175.785918 
L 290.18427 -175.785918 
L 290.811236 -175.785918 
L 291.438202 -175.785918 
L 292.065169 -175.785918 
L 292.692135 -175.785918 
L 293.319101 -175.785918 
L 293.946067 -175.785918 
L 294.573034 -175.785918 
L 295.2 -175.785918 
L 295.826966 -175.785918 
L 296.453933 -175.785918 
L 297.080899 -175.785918 
L 297.707865 -175.785918 
L 298.334831 -175.785918 
L 298.961798 -175.785918 
L 299.588764 -175.785918 
L 300.21573 -175.785918 
L 300.842697 -175.785918 
L 301.469663 -175.785918 
L 302.096629 -175.785918 
L 302.723596 -175.785918 
L 303.350562 -175.785918 
L 303.977528 -175.785918 
L 304.604494 -175.785918 
L 305.231461 -175.785918 
L 305.858427 -175.785918 
L 306.485393 -175.785918 
L 307.11236 -175.785918 
L 307.739326 -175.785918 
L 308.366292 -175.785918 
L 308.993258 -175.785918 
L 309.620225 -175.785918 
L 310.247191 -175.785918 
L 310.874157 -175.785918 
L 311.501124 -175.785918 
L 312.12809 -175.785918 
L 312.755056 -175.785918 
L 313.382022 -175.785918 
L 314.008989 -175.785918 
L 314.635955 -175.785918 
L 315.262921 -175.785918 
L 315.889888 -175.785918 
L 316.516854 -175.785918 
L 317.14382 -175.785918 
L 317.770787 -175.785918 
L 318.397753 -175.785918 
L 319.024719 -175.785918 
L 319.651685 -175.785918 
L 320.278652 -175.785918 
L 320.905618 -175.785918 
L 321.532584 -175.785918 
L 322.159551 -175.785918 
L 322.786517 -175.785918 
L 323.413483 -175.785918 
L 324.040449 -175.785918 
L 324.667416 -175.785918 
L 325.294382 -175.785918 
L 325.921348 -175.785918 
L 326.548315 -175.785918 
L 327.175281 -175.785918 
L 327.802247 -175.785918 
L 328.429213 -175.785918 
L 329.05618 -175.785918 
L 329.683146 -175.785918 
L 330.310112 -175.785918 
L 330.937079 -175.785918 
L 331.564045 -175.785918 
L 332.191011 -175.785918 
L 332.817978 -175.785918 
L 333.444944 -175.785918 
L 334.07191 -175.785918 
L 334.698876 -175.785918 
L 335.325843 -175.785918 
L 335.952809 -175.785918 
L 336.579775 -175.785918 
L 337.206742 -175.785918 
L 337.833708 -175.785918 
L 338.460674 -175.785918 
L 339.08764 -175.785918 
L 339.714607 -175.785918 
L 340.341573 -175.785918 
L 340.968539 -175.785918 
L 341.595506 -175.785918 
L 342.222472 -175.785918 
L 342.849438 -175.785918 
L 343.476404 -175.785918 
L 344.103371 -175.785918 
L 344.730337 -175.785918 
L 345.357303 -175.785918 
L 345.98427 -175.785918 
L 346.611236 -175.785918 
L 347.238202 -175.785918 
L 347.865169 -175.785918 
L 348.492135 -175.785918 
L 349.119101 -175.785918 
L 349.746067 -175.785918 
L 350.373034 -175.785918 
L 351 -175.785918 
L 351.626966 -175.785918 
L 352.253933 -175.785918 
L 352.880899 -175.785918 
L 353.507865 -175.785918 
L 354.134831 -175.785918 
L 354.761798 -175.785918 
L 355.388764 -175.785918 
L 356.01573 -175.785918 
L 356.642697 -175.785918 
L 357.269663 -175.785918 
L 357.896629 -175.785918 
L 358.523596 -175.785918 
L 359.150562 -175.785918 
L 359.777528 -175.785918 
L 360.404494 -175.785918 
L 361.031461 -175.785918 
L 361.658427 -175.785918 
L 362.285393 -175.785918 
L 362.91236 -175.785918 
L 363.539326 -175.785918 
L 364.166292 -175.785918 
L 364.793258 -175.785918 
L 365.420225 -175.785918 
L 366.047191 -175.785918 
L 366.674157 -175.785918 
L 367.301124 -175.785918 
L 367.92809 -175.785918 
L 368.555056 -175.785918 
L 369.182022 -175.785918 
L 369.808989 -175.785918 
L 370.435955 -175.785918 
L 371.062921 -175.785918 
L 371.689888 -175.785918 
L 372.316854 -175.785918 
L 372.94382 -175.785918 
L 373.570787 -175.785918 
L 374.197753 -175.785918 
L 374.824719 -175.785918 
L 375.451685 -175.785918 
L 376.078652 -175.785918 
L 376.705618 -175.785918 
L 377.332584 -175.785918 
L 377.959551 -175.785918 
L 378.586517 -175.785918 
L 379.213483 -175.785918 
L 379.840449 -175.785918 
L 380.467416 -175.785918 
L 381.094382 -175.785918 
L 381.721348 -175.785918 
L 382.348315 -175.785918 
L 382.975281 -175.785918 
L 383.602247 -175.785918 
L 384.229213 -175.785918 
L 384.85618 -175.785918 
L 385.483146 -175.785918 
L 386.110112 -175.785918 
L 386.737079 -175.785918 
L 387.364045 -175.785918 
L 387.991011 -175.785918 
L 388.617978 -175.785918 
L 389.244944 -175.785918 
L 389.87191 -175.785918 
L 390.498876 -175.785918 
L 391.125843 -175.785918 
L 391.752809 -175.785918 
L 392.379775 -175.785918 
L 393.006742 -175.785918 
L 393.633708 -175.785918 
L 394.260674 -175.785918 
L 394.88764 -175.785918 
L 395.514607 -175.785918 
L 396.141573 -175.785918 
L 396.768539 -175.785918 
L 397.395506 -175.785918 
L 398.022472 -175.785918 
L 398.649438 -175.785918 
L 399.276404 -175.785918 
L 399.903371 -175.785918 
L 400.530337 -175.785918 
L 401.157303 -175.785918 
L 401.78427 -175.785918 
L 402.411236 -175.785918 
L 403.038202 -175.785918 
L 403.665169 -175.785918 
L 404.292135 -175.785918 
L 404.919101 -175.785918 
L 405.546067 -175.785918 
L 406.173034 -175.785918 
L 406.8 -175.785918 
L 407.426966 -175.785918 
L 408.053933 -175.785918 
L 408.680899 -175.785918 
L 409.307865 -175.785918 
L 409.934831 -175.785918 
L 410.561798 -175.785918 
L 411.188764 -175.785918 
L 411.81573 -175.785918 
L 412.442697 -175.785918 
L 413.069663 -175.785918 
L 413.696629 -175.785918 
L 414.323596 -175.785918 
L 414.950562 -175.785918 
L 415.577528 -175.785918 
L 416.204494 -175.785918 
L 416.831461 -175.785918 
L 417.458427 -175.785918 
L 418.085393 -175.785918 
L 418.71236 -175.785918 
L 419.339326 -175.785918 
L 419.966292 -175.785918 
L 420.593258 -175.785918 
L 421.220225 -175.785918 
L 421.847191 -175.785918 
L 422.474157 -175.785918 
L 423.101124 -175.785918 
L 423.72809 -175.785918 
L 424.355056 -175.785918 
L 424.982022 -175.785918 
L 425.608989 -175.785918 
L 426.235955 -175.785918 
L 426.862921 -175.785918 
L 427.489888 -175.785918 
L 428.116854 -175.785918 
L 428.74382 -175.785918 
L 429.370787 -175.785918 
L 429.997753 -175.785918 
L 430.624719 -175.785918 
L 431.251685 -175.785918 
L 431.878652 -175.785918 
L 432.505618 -175.785918 
L 433.132584 -175.785918 
L 433.759551 -175.785918 
L 434.386517 -175.785918 
L 435.013483 -175.785918 
L 435.640449 -175.785918 
L 436.267416 -175.785918 
L 436.894382 -175.785918 
L 437.521348 -175.785918 
L 438.148315 -175.785918 
L 438.775281 -175.785918 
L 439.402247 -175.785918 
L 440.029213 -175.785918 
L 440.65618 -175.785918 
L 441.283146 -175.785918 
L 441.910112 -175.785918 
L 442.537079 -175.785918 
L 443.164045 -175.785918 
L 443.791011 -175.785918 
L 444.417978 -175.785918 
L 445.044944 -175.785918 
L 445.67191 -175.785918 
L 446.298876 -175.785918 
L 446.925843 -175.785918 
L 447.552809 -175.785918 
L 448.179775 -175.785918 
L 448.806742 -175.785918 
L 449.433708 -175.785918 
L 450.060674 -175.785918 
L 450.68764 -175.785918 
L 451.314607 -175.785918 
L 451.941573 -175.785918 
L 452.568539 -175.785918 
L 453.195506 -175.785918 
L 453.822472 -175.785918 
L 454.449438 -175.785918 
L 455.076404 -175.785918 
L 455.703371 -175.785918 
L 456.330337 -175.785918 
L 456.957303 -175.785918 
L 457.58427 -175.785918 
L 458.211236 -175.785918 
L 458.838202 -175.785918 
L 459.465169 -175.785918 
L 460.092135 -175.785918 
L 460.719101 -175.785918 
L 461.346067 -175.785918 
L 461.973034 -175.785918 
L 462.6 -175.785918 
L 463.226966 -175.785918 
L 463.853933 -175.785918 
L 464.480899 -175.785918 
L 465.107865 -175.785918 
L 465.734831 -175.785918 
L 466.361798 -175.785918 
L 466.988764 -175.785918 
L 467.61573 -175.785918 
L 468.242697 -175.785918 
L 468.869663 -175.785918 
L 469.496629 -175.785918 
L 470.123596 -175.785918 
L 470.750562 -175.785918 
L 471.377528 -175.785918 
L 472.004494 -175.785918 
L 472.631461 -175.785918 
L 473.258427 -175.785918 
L 473.885393 -175.785918 
L 474.51236 -175.785918 
L 475.139326 -175.785918 
L 475.766292 -175.785918 
L 476.393258 -175.785918 
L 477.020225 -175.785918 
L 477.647191 -175.785918 
L 478.274157 -175.785918 
L 478.901124 -175.785918 
L 479.52809 -175.785918 
L 480.155056 -175.785918 
L 480.782022 -175.785918 
L 481.408989 -175.785918 
L 482.035955 -175.785918 
L 482.662921 -175.785918 
L 483.289888 -175.785918 
L 483.916854 -175.785918 
L 484.54382 -175.785918 
L 485.170787 -175.785918 
L 485.797753 -175.785918 
L 486.424719 -175.785918 
L 487.051685 -175.785918 
L 487.678652 -175.785918 
L 488.305618 -175.785918 
L 488.932584 -175.785918 
L 489.559551 -175.785918 
L 490.186517 -175.785918 
L 490.813483 -175.785918 
L 491.440449 -175.785918 
L 492.067416 -175.785918 
L 492.694382 -175.785918 
L 493.321348 -175.785918 
L 493.948315 -175.785918 
L 494.575281 -175.785918 
L 495.202247 -175.785918 
L 495.829213 -175.785918 
L 496.45618 -175.785918 
L 497.083146 -175.785918 
L 497.710112 -175.785918 
L 498.337079 -175.785918 
L 498.964045 -175.785918 
L 499.591011 -175.785918 
L 500.217978 -175.785918 
L 500.844944 -175.785918 
L 501.47191 -175.785918 
L 502.098876 -175.785918 
L 502.725843 -175.785918 
L 503.352809 -175.785918 
L 503.979775 -175.785918 
L 504.606742 -175.785918 
L 505.233708 -175.785918 
L 505.860674 -175.785918 
L 506.48764 -175.785918 
L 507.114607 -175.785918 
L 507.741573 -175.785918 
L 508.368539 -175.785918 
L 508.995506 -175.785918 
L 509.622472 -175.785918 
L 510.249438 -175.785918 
L 510.876404 -175.785918 
L 511.503371 -175.785918 
L 512.130337 -175.785918 
L 512.757303 -175.785918 
L 513.38427 -175.785918 
L 514.011236 -175.785918 
L 514.638202 -175.785918 
L 515.265169 -175.785918 
L 515.892135 -175.785918 
L 516.519101 -175.785918 
L 517.146067 -175.785918 
L 517.773034 -175.785918 
L 518.4 -175.785918 
L 518.4 -170.533229 
L 518.4 -170.533229 
L 517.773034 -170.533229 
L 517.146067 -170.533229 
L 516.519101 -170.533229 
L 515.892135 -170.533229 
L 515.265169 -170.533229 
L 514.638202 -170.533229 
L 514.011236 -170.533229 
L 513.38427 -170.533229 
L 512.757303 -170.533229 
L 512.130337 -170.533229 
L 511.503371 -170.533229 
L 510.876404 -170.533229 
L 510.249438 -170.533229 
L 509.622472 -170.533229 
L 508.995506 -170.533229 
L 508.368539 -170.533229 
L 507.741573 -170.533229 
L 507.114607 -170.533229 
L 506.48764 -170.533229 
L 505.860674 -170.533229 
L 505.233708 -170.533229 
L 504.606742 -170.533229 
L 503.979775 -170.533229 
L 503.352809 -170.533229 
L 502.725843 -170.533229 
L 502.098876 -170.533229 
L 501.47191 -170.533229 
L 500.844944 -170.533229 
L 500.217978 -170.533229 
L 499.591011 -170.533229 
L 498.964045 -170.533229 
L 498.337079 -170.533229 
L 497.710112 -170.533229 
L 497.083146 -170.533229 
L 496.45618 -170.533229 
L 495.829213 -170.533229 
L 495.202247 -170.533229 
L 494.575281 -170.533229 
L 493.948315 -170.533229 
L 493.321348 -170.533229 
L 492.694382 -170.533229 
L 492.067416 -170.533229 
L 491.440449 -170.533229 
L 490.813483 -170.533229 
L 490.186517 -170.533229 
L 489.559551 -170.533229 
L 488.932584 -170.533229 
L 488.305618 -170.533229 
L 487.678652 -170.533229 
L 487.051685 -170.533229 
L 486.424719 -170.533229 
L 485.797753 -170.533229 
L 485.170787 -170.533229 
L 484.54382 -170.533229 
L 483.916854 -170.533229 
L 483.289888 -170.533229 
L 482.662921 -170.533229 
L 482.035955 -170.533229 
L 481.408989 -170.533229 
L 480.782022 -170.533229 
L 480.155056 -170.533229 
L 479.52809 -170.533229 
L 478.901124 -170.533229 
L 478.274157 -170.533229 
L 477.647191 -170.533229 
L 477.020225 -170.533229 
L 476.393258 -170.533229 
L 475.766292 -170.533229 
L 475.139326 -170.533229 
L 474.51236 -170.533229 
L 473.885393 -170.533229 
L 473.258427 -170.533229 
L 472.631461 -170.533229 
L 472.004494 -170.533229 
L 471.377528 -170.533229 
L 470.750562 -170.533229 
L 470.123596 -170.533229 
L 469.496629 -170.533229 
L 468.869663 -170.533229 
L 468.242697 -170.533229 
L 467.61573 -170.533229 
L 466.988764 -170.533229 
L 466.361798 -170.533229 
L 465.734831 -170.533229 
L 465.107865 -170.533229 
L 464.480899 -170.533229 
L 463.853933 -170.533229 
L 463.226966 -170.533229 
L 462.6 -170.533229 
L 461.973034 -170.533229 
L 461.346067 -170.533229 
L 460.719101 -170.533229 
L 460.092135 -170.533229 
L 459.465169 -170.533229 
L 458.838202 -170.533229 
L 458.211236 -170.533229 
L 457.58427 -170.533229 
L 456.957303 -170.533229 
L 456.330337 -170.533229 
L 455.703371 -170.533229 
L 455.076404 -170.533229 
L 454.449438 -170.533229 
L 453.822472 -170.533229 
L 453.195506 -170.533229 
L 452.568539 -170.533229 
L 451.941573 -170.533229 
L 451.314607 -170.533229 
L 450.68764 -170.533229 
L 450.060674 -170.533229 
L 449.433708 -170.533229 
L 448.806742 -170.533229 
L 448.179775 -170.533229 
L 447.552809 -170.533229 
L 446.925843 -170.533229 
L 446.298876 -170.533229 
L 445.67191 -170.533229 
L 445.044944 -170.533229 
L 444.417978 -170.533229 
L 443.791011 -170.533229 
L 443.164045 -170.533229 
L 442.537079 -170.533229 
L 441.910112 -170.533229 
L 441.283146 -170.533229 
L 440.65618 -170.533229 
L 440.029213 -170.533229 
L 439.402247 -170.533229 
L 438.775281 -170.533229 
L 438.148315 -170.533229 
L 437.521348 -170.533229 
L 436.894382 -170.533229 
L 436.267416 -170.533229 
L 435.640449 -170.533229 
L 435.013483 -170.533229 
L 434.386517 -170.533229 
L 433.759551 -170.533229 
L 433.132584 -170.533229 
L 432.505618 -170.533229 
L 431.878652 -170.533229 
L 431.251685 -170.533229 
L 430.624719 -170.533229 
L 429.997753 -170.533229 
L 429.370787 -170.533229 
L 428.74382 -170.533229 
L 428.116854 -170.533229 
L 427.489888 -170.533229 
L 426.862921 -170.533229 
L 426.235955 -170.533229 
L 425.608989 -170.533229 
L 424.982022 -170.533229 
L 424.355056 -170.533229 
L 423.72809 -170.533229 
L 423.101124 -170.533229 
L 422.474157 -170.533229 
L 421.847191 -170.533229 
L 421.220225 -170.533229 
L 420.593258 -170.533229 
L 419.966292 -170.533229 
L 419.339326 -170.533229 
L 418.71236 -170.533229 
L 418.085393 -170.533229 
L 417.458427 -170.533229 
L 416.831461 -170.533229 
L 416.204494 -170.533229 
L 415.577528 -170.533229 
L 414.950562 -170.533229 
L 414.323596 -170.533229 
L 413.696629 -170.533229 
L 413.069663 -170.533229 
L 412.442697 -170.533229 
L 411.81573 -170.533229 
L 411.188764 -170.533229 
L 410.561798 -170.533229 
L 409.934831 -170.533229 
L 409.307865 -170.533229 
L 408.680899 -170.533229 
L 408.053933 -170.533229 
L 407.426966 -170.533229 
L 406.8 -170.533229 
L 406.173034 -170.533229 
L 405.546067 -170.533229 
L 404.919101 -170.533229 
L 404.292135 -170.533229 
L 403.665169 -170.533229 
L 403.038202 -170.533229 
L 402.411236 -170.533229 
L 401.78427 -170.533229 
L 401.157303 -170.533229 
L 400.530337 -170.533229 
L 399.903371 -170.533229 
L 399.276404 -170.533229 
L 398.649438 -170.533229 
L 398.022472 -170.533229 
L 397.395506 -170.533229 
L 396.768539 -170.533229 
L 396.141573 -170.533229 
L 395.514607 -170.533229 
L 394.88764 -170.533229 
L 394.260674 -170.533229 
L 393.633708 -170.533229 
L 393.006742 -170.533229 
L 392.379775 -170.533229 
L 391.752809 -170.533229 
L 391.125843 -170.533229 
L 390.498876 -170.533229 
L 389.87191 -170.533229 
L 389.244944 -170.533229 
L 388.617978 -170.533229 
L 387.991011 -170.533229 
L 387.364045 -170.533229 
L 386.737079 -170.533229 
L 386.110112 -170.533229 
L 385.483146 -170.533229 
L 384.85618 -170.533229 
L 384.229213 -170.533229 
L 383.602247 -170.533229 
L 382.975281 -170.533229 
L 382.348315 -170.533229 
L 381.721348 -170.533229 
L 381.094382 -170.533229 
L 380.467416 -170.533229 
L 379.840449 -170.533229 
L 379.213483 -170.533229 
L 378.586517 -170.533229 
L 377.959551 -170.533229 
L 377.332584 -170.533229 
L 376.705618 -170.533229 
L 376.078652 -170.533229 
L 375.451685 -170.533229 
L 374.824719 -170.533229 
L 374.197753 -170.533229 
L 373.570787 -170.533229 
L 372.94382 -170.533229 
L 372.316854 -170.533229 
L 371.689888 -170.533229 
L 371.062921 -170.533229 
L 370.435955 -170.533229 
L 369.808989 -170.533229 
L 369.182022 -170.533229 
L 368.555056 -170.533229 
L 367.92809 -170.533229 
L 367.301124 -170.533229 
L 366.674157 -170.533229 
L 366.047191 -170.533229 
L 365.420225 -170.533229 
L 364.793258 -170.533229 
L 364.166292 -170.533229 
L 363.539326 -170.533229 
L 362.91236 -170.533229 
L 362.285393 -170.533229 
L 361.658427 -170.533229 
L 361.031461 -170.533229 
L 360.404494 -170.533229 
L 359.777528 -170.533229 
L 359.150562 -170.533229 
L 358.523596 -170.533229 
L 357.896629 -170.533229 
L 357.269663 -170.533229 
L 356.642697 -170.533229 
L 356.01573 -170.533229 
L 355.388764 -170.533229 
L 354.761798 -170.533229 
L 354.134831 -170.533229 
L 353.507865 -170.533229 
L 352.880899 -170.533229 
L 352.253933 -170.533229 
L 351.626966 -170.533229 
L 351 -170.533229 
L 350.373034 -170.533229 
L 349.746067 -170.533229 
L 349.119101 -170.533229 
L 348.492135 -170.533229 
L 347.865169 -170.533229 
L 347.238202 -170.533229 
L 346.611236 -170.533229 
L 345.98427 -170.533229 
L 345.357303 -170.533229 
L 344.730337 -170.533229 
L 344.103371 -170.533229 
L 343.476404 -170.533229 
L 342.849438 -170.533229 
L 342.222472 -170.533229 
L 341.595506 -170.533229 
L 340.968539 -170.533229 
L 340.341573 -170.533229 
L 339.714607 -170.533229 
L 339.08764 -170.533229 
L 338.460674 -170.533229 
L 337.833708 -170.533229 
L 337.206742 -170.533229 
L 336.579775 -170.533229 
L 335.952809 -170.533229 
L 335.325843 -170.533229 
L 334.698876 -170.533229 
L 334.07191 -170.533229 
L 333.444944 -170.533229 
L 332.817978 -170.533229 
L 332.191011 -170.533229 
L 331.564045 -170.533229 
L 330.937079 -170.533229 
L 330.310112 -170.533229 
L 329.683146 -170.533229 
L 329.05618 -170.533229 
L 328.429213 -170.533229 
L 327.802247 -170.533229 
L 327.175281 -170.533229 
L 326.548315 -170.533229 
L 325.921348 -170.533229 
L 325.294382 -170.533229 
L 324.667416 -170.533229 
L 324.040449 -170.533229 
L 323.413483 -170.533229 
L 322.786517 -170.533229 
L 322.159551 -170.533229 
L 321.532584 -170.533229 
L 320.905618 -170.533229 
L 320.278652 -170.533229 
L 319.651685 -170.533229 
L 319.024719 -170.533229 
L 318.397753 -170.533229 
L 317.770787 -170.533229 
L 317.14382 -170.533229 
L 316.516854 -170.533229 
L 315.889888 -170.533229 
L 315.262921 -170.533229 
L 314.635955 -170.533229 
L 314.008989 -170.533229 
L 313.382022 -170.533229 
L 312.755056 -170.533229 
L 312.12809 -170.533229 
L 311.501124 -170.533229 
L 310.874157 -170.533229 
L 310.247191 -170.533229 
L 309.620225 -170.533229 
L 308.993258 -170.533229 
L 308.366292 -170.533229 
L 307.739326 -170.533229 
L 307.11236 -170.533229 
L 306.485393 -170.533229 
L 305.858427 -170.533229 
L 305.231461 -170.533229 
L 304.604494 -170.533229 
L 303.977528 -170.533229 
L 303.350562 -170.533229 
L 302.723596 -170.533229 
L 302.096629 -170.533229 
L 301.469663 -170.533229 
L 300.842697 -170.533229 
L 300.21573 -170.533229 
L 299.588764 -170.533229 
L 298.961798 -170.533229 
L 298.334831 -170.533229 
L 297.707865 -170.533229 
L 297.080899 -170.533229 
L 296.453933 -170.533229 
L 295.826966 -170.533229 
L 295.2 -170.533229 
L 294.573034 -170.533229 
L 293.946067 -170.533229 
L 293.319101 -170.533229 
L 292.692135 -170.533229 
L 292.065169 -170.533229 
L 291.438202 -170.533229 
L 290.811236 -170.533229 
L 290.18427 -170.533229 
L 289.557303 -170.533229 
L 288.930337 -170.533229 
L 288.303371 -170.533229 
L 287.676404 -170.533229 
L 287.049438 -170.533229 
L 286.422472 -170.533229 
L 285.795506 -170.533229 
L 285.168539 -170.533229 
L 284.541573 -170.533229 
L 283.914607 -170.533229 
L 283.28764 -170.533229 
L 282.660674 -170.533229 
L 282.033708 -170.533229 
L 281.406742 -170.533229 
L 280.779775 -170.533229 
L 280.152809 -170.533229 
L 279.525843 -170.533229 
L 278.898876 -170.533229 
L 278.27191 -170.533229 
L 277.644944 -170.533229 
L 277.017978 -170.533229 
L 276.391011 -170.533229 
L 275.764045 -170.533229 
L 275.137079 -170.533229 
L 274.510112 -170.533229 
L 273.883146 -170.533229 
L 273.25618 -170.533229 
L 272.629213 -170.533229 
L 272.002247 -170.533229 
L 271.375281 -170.533229 
L 270.748315 -170.533229 
L 270.121348 -170.533229 
L 269.494382 -170.533229 
L 268.867416 -170.533229 
L 268.240449 -170.533229 
L 267.613483 -170.533229 
L 266.986517 -170.533229 
L 266.359551 -170.533229 
L 265.732584 -170.533229 
L 265.105618 -170.533229 
L 264.478652 -170.533229 
L 263.851685 -170.533229 
L 263.224719 -170.533229 
L 262.597753 -170.533229 
L 261.970787 -170.533229 
L 261.34382 -170.533229 
L 260.716854 -170.533229 
L 260.089888 -170.533229 
L 259.462921 -170.533229 
L 258.835955 -170.533229 
L 258.208989 -170.533229 
L 257.582022 -170.533229 
L 256.955056 -170.533229 
L 256.32809 -170.533229 
L 255.701124 -170.533229 
L 255.074157 -170.533229 
L 254.447191 -170.533229 
L 253.820225 -170.533229 
L 253.193258 -170.533229 
L 252.566292 -170.533229 
L 251.939326 -170.533229 
L 251.31236 -170.533229 
L 250.685393 -170.533229 
L 250.058427 -170.533229 
L 249.431461 -170.533229 
L 248.804494 -170.533229 
L 248.177528 -170.533229 
L 247.550562 -170.533229 
L 246.923596 -170.533229 
L 246.296629 -170.533229 
L 245.669663 -170.533229 
L 245.042697 -170.533229 
L 244.41573 -170.533229 
L 243.788764 -170.533229 
L 243.161798 -170.533229 
L 242.534831 -170.533229 
L 241.907865 -170.533229 
L 241.280899 -170.533229 
L 240.653933 -170.533229 
L 240.026966 -170.533229 
L 239.4 -170.533229 
L 238.773034 -170.533229 
L 238.146067 -170.533229 
L 237.519101 -170.533229 
L 236.892135 -170.533229 
L 236.265169 -170.533229 
L 235.638202 -170.533229 
L 235.011236 -170.533229 
L 234.38427 -170.533229 
L 233.757303 -170.533229 
L 233.130337 -170.533229 
L 232.503371 -170.533229 
L 231.876404 -170.533229 
L 231.249438 -170.533229 
L 230.622472 -170.533229 
L 229.995506 -170.533229 
L 229.368539 -170.533229 
L 228.741573 -170.533229 
L 228.114607 -170.533229 
L 227.48764 -170.533229 
L 226.860674 -170.533229 
L 226.233708 -170.533229 
L 225.606742 -170.533229 
L 224.979775 -170.533229 
L 224.352809 -170.533229 
L 223.725843 -170.533229 
L 223.098876 -170.533229 
L 222.47191 -170.533229 
L 221.844944 -170.533229 
L 221.217978 -170.533229 
L 220.591011 -170.533229 
L 219.964045 -170.533229 
L 219.337079 -170.533229 
L 218.710112 -170.533229 
L 218.083146 -170.533229 
L 217.45618 -170.533229 
L 216.829213 -170.533229 
L 216.202247 -170.533229 
L 215.575281 -170.533229 
L 214.948315 -170.533229 
L 214.321348 -170.533229 
L 213.694382 -170.533229 
L 213.067416 -170.533229 
L 212.440449 -170.533229 
L 211.813483 -170.533229 
L 211.186517 -170.533229 
L 210.559551 -170.533229 
L 209.932584 -170.533229 
L 209.305618 -170.533229 
L 208.678652 -170.533229 
L 208.051685 -170.533229 
L 207.424719 -170.533229 
L 206.797753 -170.533229 
L 206.170787 -170.533229 
L 205.54382 -170.533229 
L 204.916854 -170.533229 
L 204.289888 -170.533229 
L 203.662921 -170.533229 
L 203.035955 -170.533229 
L 202.408989 -170.533229 
L 201.782022 -170.533229 
L 201.155056 -170.533229 
L 200.52809 -170.533229 
L 199.901124 -170.533229 
L 199.274157 -170.533229 
L 198.647191 -170.533229 
L 198.020225 -170.533229 
L 197.393258 -170.533229 
L 196.766292 -170.533229 
L 196.139326 -170.533229 
L 195.51236 -170.533229 
L 194.885393 -170.533229 
L 194.258427 -170.533229 
L 193.631461 -170.533229 
L 193.004494 -170.533229 
L 192.377528 -170.533229 
L 191.750562 -170.533229 
L 191.123596 -170.533229 
L 190.496629 -170.533229 
L 189.869663 -170.533229 
L 189.242697 -170.533229 
L 188.61573 -170.533229 
L 187.988764 -170.533229 
L 187.361798 -170.533229 
L 186.734831 -170.533229 
L 186.107865 -170.533229 
L 185.480899 -170.533229 
L 184.853933 -170.533229 
L 184.226966 -170.533229 
L 183.6 -170.533229 
L 182.973034 -170.533229 
L 182.346067 -170.533229 
L 181.719101 -170.533229 
L 181.092135 -170.533229 
L 180.465169 -170.533229 
L 179.838202 -170.533229 
L 179.211236 -170.533229 
L 178.58427 -170.533229 
L 177.957303 -170.533229 
L 177.330337 -170.533229 
L 176.703371 -170.533229 
L 176.076404 -170.533229 
L 175.449438 -170.533229 
L 174.822472 -170.533229 
L 174.195506 -170.533229 
L 173.568539 -170.533229 
L 172.941573 -170.533229 
L 172.314607 -170.533229 
L 171.68764 -170.533229 
L 171.060674 -170.533229 
L 170.433708 -170.533229 
L 169.806742 -170.533229 
L 169.179775 -170.533229 
L 168.552809 -170.533229 
L 167.925843 -170.533229 
L 167.298876 -170.533229 
L 166.67191 -170.533229 
L 166.044944 -170.533229 
L 165.417978 -170.533229 
L 164.791011 -170.533229 
L 164.164045 -170.533229 
L 163.537079 -170.533229 
L 162.910112 -170.533229 
L 162.283146 -170.533229 
L 161.65618 -170.533229 
L 161.029213 -170.533229 
L 160.402247 -170.533229 
L 159.775281 -170.533229 
L 159.148315 -170.533229 
L 158.521348 -170.533229 
L 157.894382 -170.533229 
L 157.267416 -170.533229 
L 156.640449 -170.533229 
L 156.013483 -170.533229 
L 155.386517 -170.533229 
L 154.759551 -170.533229 
L 154.132584 -170.533229 
L 153.505618 -170.533229 
L 152.878652 -170.533229 
L 152.251685 -170.533229 
L 151.624719 -170.533229 
L 150.997753 -170.533229 
L 150.370787 -170.533229 
L 149.74382 -170.533229 
L 149.116854 -170.533229 
L 148.489888 -170.533229 
L 147.862921 -170.533229 
L 147.235955 -170.533229 
L 146.608989 -170.533229 
L 145.982022 -170.533229 
L 145.355056 -170.533229 
L 144.72809 -170.533229 
L 144.101124 -170.533229 
L 143.474157 -170.533229 
L 142.847191 -170.533229 
L 142.220225 -170.533229 
L 141.593258 -170.533229 
L 140.966292 -170.533229 
L 140.339326 -170.533229 
L 139.71236 -170.533229 
L 139.085393 -170.533229 
L 138.458427 -170.533229 
L 137.831461 -170.533229 
L 137.204494 -170.533229 
L 136.577528 -170.533229 
L 135.950562 -170.533229 
L 135.323596 -170.533229 
L 134.696629 -170.533229 
L 134.069663 -170.533229 
L 133.442697 -170.533229 
L 132.81573 -170.533229 
L 132.188764 -170.533229 
L 131.561798 -170.533229 
L 130.934831 -170.533229 
L 130.307865 -170.533229 
L 129.680899 -170.533229 
L 129.053933 -170.533229 
L 128.426966 -170.533229 
L 127.8 -170.533229 
L 127.173034 -170.533229 
L 126.546067 -170.533229 
L 125.919101 -170.533229 
L 125.292135 -170.533229 
L 124.665169 -170.533229 
L 124.038202 -170.533229 
L 123.411236 -170.533229 
L 122.78427 -170.533229 
L 122.157303 -170.533229 
L 121.530337 -170.533229 
L 120.903371 -170.533229 
L 120.276404 -170.533229 
L 119.649438 -170.533229 
L 119.022472 -170.533229 
L 118.395506 -170.533229 
L 117.768539 -170.533229 
L 117.141573 -170.533229 
L 116.514607 -170.533229 
L 115.88764 -170.533229 
L 115.260674 -170.533229 
L 114.633708 -170.533229 
L 114.006742 -170.533229 
L 113.379775 -170.533229 
L 112.752809 -170.533229 
L 112.125843 -170.533229 
L 111.498876 -170.533229 
L 110.87191 -170.533229 
L 110.244944 -170.533229 
L 109.617978 -170.533229 
L 108.991011 -170.533229 
L 108.364045 -170.533229 
L 107.737079 -170.533229 
L 107.110112 -170.533229 
L 106.483146 -170.533229 
L 105.85618 -170.533229 
L 105.229213 -170.533229 
L 104.602247 -170.533229 
L 103.975281 -170.533229 
L 103.348315 -170.533229 
L 102.721348 -170.533229 
L 102.094382 -170.533229 
L 101.467416 -170.533229 
L 100.840449 -170.533229 
L 100.213483 -170.533229 
L 99.586517 -170.533229 
L 98.959551 -170.533229 
L 98.332584 -170.533229 
L 97.705618 -170.533229 
L 97.078652 -170.533229 
L 96.451685 -170.533229 
L 95.824719 -170.533229 
L 95.197753 -170.533229 
L 94.570787 -170.533229 
L 93.94382 -170.533229 
L 93.316854 -170.533229 
L 92.689888 -170.533229 
L 92.062921 -170.533229 
L 91.435955 -170.533229 
L 90.808989 -170.533229 
L 90.182022 -170.533229 
L 89.555056 -170.533229 
L 88.92809 -170.533229 
L 88.301124 -170.533229 
L 87.674157 -170.533229 
L 87.047191 -170.533229 
L 86.420225 -170.533229 
L 85.793258 -170.533229 
L 85.166292 -170.533229 
L 84.539326 -170.533229 
L 83.91236 -170.533229 
L 83.285393 -170.533229 
L 82.658427 -170.533229 
L 82.031461 -170.533229 
L 81.404494 -170.533229 
L 80.777528 -170.533229 
L 80.150562 -170.533229 
L 79.523596 -170.533229 
L 78.896629 -170.533229 
L 78.269663 -170.533229 
L 77.642697 -170.533229 
L 77.01573 -170.533229 
L 76.388764 -170.533229 
L 75.761798 -170.533229 
L 75.134831 -170.533229 
L 74.507865 -170.533229 
L 73.880899 -170.533229 
L 73.253933 -170.533229 
L 72.626966 -170.533229 
L 72 -170.533229 
z
" id="mf503d43cd2"/>
    </defs>
    <g clip-path="url(#p83013fcef8)">
     <use style="fill-opacity:0.15;" x="0" xlink:href="#mf503d43cd2" y="360"/>
    </g>
   </g>
   <g id="matplotlib.axis_1">
    <g id="xtick_1">
     <g id="line2d_1">
      <defs>
       <path d="M 0 0 
L 0 3.5 
" id="m109df12d34" style="stroke:#000000;stroke-width:0.8;"/>
      </defs>
      <g>
       <use style="stroke:#000000;stroke-width:0.8;" x="72" xlink:href="#m109df12d34" y="320.4"/>
      </g>
     </g>
     <g id="text_1">
      <!-- 0.0 -->
      <g transform="translate(60.867812 338.037813)scale(0.14 -0.14)">
       <defs>
        <path d="M 2034 4250 
Q 1547 4250 1301 3770 
Q 1056 3291 1056 2328 
Q 1056 1369 1301 889 
Q 1547 409 2034 409 
Q 2525 409 2770 889 
Q 3016 1369 3016 2328 
Q 3016 3291 2770 3770 
Q 2525 4250 2034 4250 
z
M 2034 4750 
Q 2819 4750 3233 4129 
Q 3647 3509 3647 2328 
Q 3647 1150 3233 529 
Q 2819 -91 2034 -91 
Q 1250 -91 836 529 
Q 422 1150 422 2328 
Q 422 3509 836 4129 
Q 1250 4750 2034 4750 
z
" id="DejaVuSans-30" transform="scale(0.015625)"/>
        <path d="M 684 794 
L 1344 794 
L 1344 0 
L 684 0 
L 684 794 
z
" id="DejaVuSans-2e" transform="scale(0.015625)"/>
       </defs>
       <use xlink:href="#DejaVuSans-30"/>
       <use x="63.623047" xlink:href="#DejaVuSans-2e"/>
       <use x="95.410156" xlink:href="#DejaVuSans-30"/>
      </g>
     </g>
    </g>
    <g id="xtick_2">
     <g id="line2d_2">
      <g>
       <use style="stroke:#000000;stroke-width:0.8;" x="127.855856" xlink:href="#m109df12d34" y="320.4"/>
      </g>
     </g>
     <g id="text_2">
      <!-- 2.5 -->
      <g transform="translate(116.723668 338.037813)scale(0.14 -0.14)">
       <defs>
        <path d="M 1228 531 
L 3431 531 
L 3431 0 
L 469 0 
L 469 531 
Q 828 903 1448 1529 
Q 2069 2156 2228 2338 
Q 2531 2678 2651 2914 
Q 2772 3150 2772 3378 
Q 2772 3750 2511 3984 
Q 2250 4219 1831 4219 
Q 1534 4219 1204 4116 
Q 875 4013 500 3803 
L 500 4441 
Q 881 4594 1212 4672 
Q 1544 4750 1819 4750 
Q 2544 4750 2975 4387 
Q 3406 4025 3406 3419 
Q 3406 3131 3298 2873 
Q 3191 2616 2906 2266 
Q 2828 2175 2409 1742 
Q 1991 1309 1228 531 
z
" id="DejaVuSans-32" transform="scale(0.015625)"/>
        <path d="M 691 4666 
L 3169 4666 
L 3169 4134 
L 1269 4134 
L 1269 2991 
Q 1406 3038 1543 3061 
Q 1681 3084 1819 3084 
Q 2600 3084 3056 2656 
Q 3513 2228 3513 1497 
Q 3513 744 3044 326 
Q 2575 -91 1722 -91 
Q 1428 -91 1123 -41 
Q 819 9 494 109 
L 494 744 
Q 775 591 1075 516 
Q 1375 441 1709 441 
Q 2250 441 2565 725 
Q 2881 1009 2881 1497 
Q 2881 1984 2565 2268 
Q 2250 2553 1709 2553 
Q 1456 2553 1204 2497 
Q 953 2441 691 2322 
L 691 4666 
z
" id="DejaVuSans-35" transform="scale(0.015625)"/>
       </defs>
       <use xlink:href="#DejaVuSans-32"/>
       <use x="63.623047" xlink:href="#DejaVuSans-2e"/>
       <use x="95.410156" xlink:href="#DejaVuSans-35"/>
      </g>
     </g>
    </g>
    <g id="xtick_3">
     <g id="line2d_3">
      <g>
       <use style="stroke:#000000;stroke-width:0.8;" x="183.711712" xlink:href="#m109df12d34" y="320.4"/>
      </g>
     </g>
     <g id="text_3">
      <!-- 5.0 -->
      <g transform="translate(172.579524 338.037813)scale(0.14 -0.14)">
       <use xlink:href="#DejaVuSans-35"/>
       <use x="63.623047" xlink:href="#DejaVuSans-2e"/>
       <use x="95.410156" xlink:href="#DejaVuSans-30"/>
      </g>
     </g>
    </g>
    <g id="xtick_4">
     <g id="line2d_4">
      <g>
       <use style="stroke:#000000;stroke-width:0.8;" x="239.567568" xlink:href="#m109df12d34" y="320.4"/>
      </g>
     </g>
     <g id="text_4">
      <!-- 7.5 -->
      <g transform="translate(228.43538 338.037813)scale(0.14 -0.14)">
       <defs>
        <path d="M 525 4666 
L 3525 4666 
L 3525 4397 
L 1831 0 
L 1172 0 
L 2766 4134 
L 525 4134 
L 525 4666 
z
" id="DejaVuSans-37" transform="scale(0.015625)"/>
       </defs>
       <use xlink:href="#DejaVuSans-37"/>
       <use x="63.623047" xlink:href="#DejaVuSans-2e"/>
       <use x="95.410156" xlink:href="#DejaVuSans-35"/>
      </g>
     </g>
    </g>
    <g id="xtick_5">
     <g id="line2d_5">
      <g>
       <use style="stroke:#000000;stroke-width:0.8;" x="295.423423" xlink:href="#m109df12d34" y="320.4"/>
      </g>
     </g>
     <g id="text_5">
      <!-- 10.0 -->
      <g transform="translate(279.837486 338.037813)scale(0.14 -0.14)">
       <defs>
        <path d="M 794 531 
L 1825 531 
L 1825 4091 
L 703 3866 
L 703 4441 
L 1819 4666 
L 2450 4666 
L 2450 531 
L 3481 531 
L 3481 0 
L 794 0 
L 794 531 
z
" id="DejaVuSans-31" transform="scale(0.015625)"/>
       </defs>
       <use xlink:href="#DejaVuSans-31"/>
       <use x="63.623047" xlink:href="#DejaVuSans-30"/>
       <use x="127.246094" xlink:href="#DejaVuSans-2e"/>
       <use x="159.033203" xlink:href="#DejaVuSans-30"/>
      </g>
     </g>
    </g>
    <g id="xtick_6">
     <g id="line2d_6">
      <g>
       <use style="stroke:#000000;stroke-width:0.8;" x="351.279279" xlink:href="#m109df12d34" y="320.4"/>
      </g>
     </g>
     <g id="text_6">
      <!-- 12.5 -->
      <g transform="translate(335.693342 338.037813)scale(0.14 -0.14)">
       <use xlink:href="#DejaVuSans-31"/>
       <use x="63.623047" xlink:href="#DejaVuSans-32"/>
       <use x="127.246094" xlink:href="#DejaVuSans-2e"/>
       <use x="159.033203" xlink:href="#DejaVuSans-35"/>
      </g>
     </g>
    </g>
    <g id="xtick_7">
     <g id="line2d_7">
      <g>
       <use style="stroke:#000000;stroke-width:0.8;" x="407.135135" xlink:href="#m109df12d34" y="320.4"/>
      </g>
     </g>
     <g id="text_7">
      <!-- 15.0 -->
      <g transform="translate(391.549198 338.037813)scale(0.14 -0.14)">
       <use xlink:href="#DejaVuSans-31"/>
       <use x="63.623047" xlink:href="#DejaVuSans-35"/>
       <use x="127.246094" xlink:href="#DejaVuSans-2e"/>
       <use x="159.033203" xlink:href="#DejaVuSans-30"/>
      </g>
     </g>
    </g>
    <g id="xtick_8">
     <g id="line2d_8">
      <g>
       <use style="stroke:#000000;stroke-width:0.8;" x="462.990991" xlink:href="#m109df12d34" y="320.4"/>
      </g>
     </g>
     <g id="text_8">
      <!-- 17.5 -->
      <g transform="translate(447.405053 338.037813)scale(0.14 -0.14)">
       <use xlink:href="#DejaVuSans-31"/>
       <use x="63.623047" xlink:href="#DejaVuSans-37"/>
       <use x="127.246094" xlink:href="#DejaVuSans-2e"/>
       <use x="159.033203" xlink:href="#DejaVuSans-35"/>
      </g>
     </g>
    </g>
    <g id="text_9">
     <!-- Time [Seconds] -->
     <g transform="translate(233.23 357.106875)scale(0.16 -0.16)">
      <defs>
       <path d="M -19 4666 
L 3928 4666 
L 3928 4134 
L 2272 4134 
L 2272 0 
L 1638 0 
L 1638 4134 
L -19 4134 
L -19 4666 
z
" id="DejaVuSans-54" transform="scale(0.015625)"/>
       <path d="M 603 3500 
L 1178 3500 
L 1178 0 
L 603 0 
L 603 3500 
z
M 603 4863 
L 1178 4863 
L 1178 4134 
L 603 4134 
L 603 4863 
z
" id="DejaVuSans-69" transform="scale(0.015625)"/>
       <path d="M 3328 2828 
Q 3544 3216 3844 3400 
Q 4144 3584 4550 3584 
Q 5097 3584 5394 3201 
Q 5691 2819 5691 2113 
L 5691 0 
L 5113 0 
L 5113 2094 
Q 5113 2597 4934 2840 
Q 4756 3084 4391 3084 
Q 3944 3084 3684 2787 
Q 3425 2491 3425 1978 
L 3425 0 
L 2847 0 
L 2847 2094 
Q 2847 2600 2669 2842 
Q 2491 3084 2119 3084 
Q 1678 3084 1418 2786 
Q 1159 2488 1159 1978 
L 1159 0 
L 581 0 
L 581 3500 
L 1159 3500 
L 1159 2956 
Q 1356 3278 1631 3431 
Q 1906 3584 2284 3584 
Q 2666 3584 2933 3390 
Q 3200 3197 3328 2828 
z
" id="DejaVuSans-6d" transform="scale(0.015625)"/>
       <path d="M 3597 1894 
L 3597 1613 
L 953 1613 
Q 991 1019 1311 708 
Q 1631 397 2203 397 
Q 2534 397 2845 478 
Q 3156 559 3463 722 
L 3463 178 
Q 3153 47 2828 -22 
Q 2503 -91 2169 -91 
Q 1331 -91 842 396 
Q 353 884 353 1716 
Q 353 2575 817 3079 
Q 1281 3584 2069 3584 
Q 2775 3584 3186 3129 
Q 3597 2675 3597 1894 
z
M 3022 2063 
Q 3016 2534 2758 2815 
Q 2500 3097 2075 3097 
Q 1594 3097 1305 2825 
Q 1016 2553 972 2059 
L 3022 2063 
z
" id="DejaVuSans-65" transform="scale(0.015625)"/>
       <path id="DejaVuSans-20" transform="scale(0.015625)"/>
       <path d="M 550 4863 
L 1875 4863 
L 1875 4416 
L 1125 4416 
L 1125 -397 
L 1875 -397 
L 1875 -844 
L 550 -844 
L 550 4863 
z
" id="DejaVuSans-5b" transform="scale(0.015625)"/>
       <path d="M 3425 4513 
L 3425 3897 
Q 3066 4069 2747 4153 
Q 2428 4238 2131 4238 
Q 1616 4238 1336 4038 
Q 1056 3838 1056 3469 
Q 1056 3159 1242 3001 
Q 1428 2844 1947 2747 
L 2328 2669 
Q 3034 2534 3370 2195 
Q 3706 1856 3706 1288 
Q 3706 609 3251 259 
Q 2797 -91 1919 -91 
Q 1588 -91 1214 -16 
Q 841 59 441 206 
L 441 856 
Q 825 641 1194 531 
Q 1563 422 1919 422 
Q 2459 422 2753 634 
Q 3047 847 3047 1241 
Q 3047 1584 2836 1778 
Q 2625 1972 2144 2069 
L 1759 2144 
Q 1053 2284 737 2584 
Q 422 2884 422 3419 
Q 422 4038 858 4394 
Q 1294 4750 2059 4750 
Q 2388 4750 2728 4690 
Q 3069 4631 3425 4513 
z
" id="DejaVuSans-53" transform="scale(0.015625)"/>
       <path d="M 3122 3366 
L 3122 2828 
Q 2878 2963 2633 3030 
Q 2388 3097 2138 3097 
Q 1578 3097 1268 2742 
Q 959 2388 959 1747 
Q 959 1106 1268 751 
Q 1578 397 2138 397 
Q 2388 397 2633 464 
Q 2878 531 3122 666 
L 3122 134 
Q 2881 22 2623 -34 
Q 2366 -91 2075 -91 
Q 1284 -91 818 406 
Q 353 903 353 1747 
Q 353 2603 823 3093 
Q 1294 3584 2113 3584 
Q 2378 3584 2631 3529 
Q 2884 3475 3122 3366 
z
" id="DejaVuSans-63" transform="scale(0.015625)"/>
       <path d="M 1959 3097 
Q 1497 3097 1228 2736 
Q 959 2375 959 1747 
Q 959 1119 1226 758 
Q 1494 397 1959 397 
Q 2419 397 2687 759 
Q 2956 1122 2956 1747 
Q 2956 2369 2687 2733 
Q 2419 3097 1959 3097 
z
M 1959 3584 
Q 2709 3584 3137 3096 
Q 3566 2609 3566 1747 
Q 3566 888 3137 398 
Q 2709 -91 1959 -91 
Q 1206 -91 779 398 
Q 353 888 353 1747 
Q 353 2609 779 3096 
Q 1206 3584 1959 3584 
z
" id="DejaVuSans-6f" transform="scale(0.015625)"/>
       <path d="M 3513 2113 
L 3513 0 
L 2938 0 
L 2938 2094 
Q 2938 2591 2744 2837 
Q 2550 3084 2163 3084 
Q 1697 3084 1428 2787 
Q 1159 2491 1159 1978 
L 1159 0 
L 581 0 
L 581 3500 
L 1159 3500 
L 1159 2956 
Q 1366 3272 1645 3428 
Q 1925 3584 2291 3584 
Q 2894 3584 3203 3211 
Q 3513 2838 3513 2113 
z
" id="DejaVuSans-6e" transform="scale(0.015625)"/>
       <path d="M 2906 2969 
L 2906 4863 
L 3481 4863 
L 3481 0 
L 2906 0 
L 2906 525 
Q 2725 213 2448 61 
Q 2172 -91 1784 -91 
Q 1150 -91 751 415 
Q 353 922 353 1747 
Q 353 2572 751 3078 
Q 1150 3584 1784 3584 
Q 2172 3584 2448 3432 
Q 2725 3281 2906 2969 
z
M 947 1747 
Q 947 1113 1208 752 
Q 1469 391 1925 391 
Q 2381 391 2643 752 
Q 2906 1113 2906 1747 
Q 2906 2381 2643 2742 
Q 2381 3103 1925 3103 
Q 1469 3103 1208 2742 
Q 947 2381 947 1747 
z
" id="DejaVuSans-64" transform="scale(0.015625)"/>
       <path d="M 2834 3397 
L 2834 2853 
Q 2591 2978 2328 3040 
Q 2066 3103 1784 3103 
Q 1356 3103 1142 2972 
Q 928 2841 928 2578 
Q 928 2378 1081 2264 
Q 1234 2150 1697 2047 
L 1894 2003 
Q 2506 1872 2764 1633 
Q 3022 1394 3022 966 
Q 3022 478 2636 193 
Q 2250 -91 1575 -91 
Q 1294 -91 989 -36 
Q 684 19 347 128 
L 347 722 
Q 666 556 975 473 
Q 1284 391 1588 391 
Q 1994 391 2212 530 
Q 2431 669 2431 922 
Q 2431 1156 2273 1281 
Q 2116 1406 1581 1522 
L 1381 1569 
Q 847 1681 609 1914 
Q 372 2147 372 2553 
Q 372 3047 722 3315 
Q 1072 3584 1716 3584 
Q 2034 3584 2315 3537 
Q 2597 3491 2834 3397 
z
" id="DejaVuSans-73" transform="scale(0.015625)"/>
       <path d="M 1947 4863 
L 1947 -844 
L 622 -844 
L 622 -397 
L 1369 -397 
L 1369 4416 
L 622 4416 
L 622 4863 
L 1947 4863 
z
" id="DejaVuSans-5d" transform="scale(0.015625)"/>
      </defs>
      <use xlink:href="#DejaVuSans-54"/>
      <use x="57.958984" xlink:href="#DejaVuSans-69"/>
      <use x="85.742188" xlink:href="#DejaVuSans-6d"/>
      <use x="183.154297" xlink:href="#DejaVuSans-65"/>
      <use x="244.677734" xlink:href="#DejaVuSans-20"/>
      <use x="276.464844" xlink:href="#DejaVuSans-5b"/>
      <use x="315.478516" xlink:href="#DejaVuSans-53"/>
      <use x="378.955078" xlink:href="#DejaVuSans-65"/>
      <use x="440.478516" xlink:href="#DejaVuSans-63"/>
      <use x="495.458984" xlink:href="#DejaVuSans-6f"/>
      <use x="556.640625" xlink:href="#DejaVuSans-6e"/>
      <use x="620.019531" xlink:href="#DejaVuSans-64"/>
      <use x="683.496094" xlink:href="#DejaVuSans-73"/>
      <use x="735.595703" xlink:href="#DejaVuSans-5d"/>
     </g>
    </g>
   </g>
   <g id="matplotlib.axis_2">
    <g id="ytick_1">
     <g id="line2d_9">
      <defs>
       <path d="M 0 0 
L -3.5 0 
" id="m3131bba3a6" style="stroke:#000000;stroke-width:0.8;"/>
      </defs>
      <g>
       <use style="stroke:#000000;stroke-width:0.8;" x="72" xlink:href="#m3131bba3a6" y="279.065944"/>
      </g>
     </g>
     <g id="text_10">
      <!-- 0.0 -->
      <g transform="translate(42.735625 284.38485)scale(0.14 -0.14)">
       <use xlink:href="#DejaVuSans-30"/>
       <use x="63.623047" xlink:href="#DejaVuSans-2e"/>
       <use x="95.410156" xlink:href="#DejaVuSans-30"/>
      </g>
     </g>
    </g>
    <g id="ytick_2">
     <g id="line2d_10">
      <g>
       <use style="stroke:#000000;stroke-width:0.8;" x="72" xlink:href="#m3131bba3a6" y="228.606375"/>
      </g>
     </g>
     <g id="text_11">
      <!-- 0.5 -->
      <g transform="translate(42.735625 233.925281)scale(0.14 -0.14)">
       <use xlink:href="#DejaVuSans-30"/>
       <use x="63.623047" xlink:href="#DejaVuSans-2e"/>
       <use x="95.410156" xlink:href="#DejaVuSans-35"/>
      </g>
     </g>
    </g>
    <g id="ytick_3">
     <g id="line2d_11">
      <g>
       <use style="stroke:#000000;stroke-width:0.8;" x="72" xlink:href="#m3131bba3a6" y="178.146806"/>
      </g>
     </g>
     <g id="text_12">
      <!-- 1.0 -->
      <g transform="translate(42.735625 183.465712)scale(0.14 -0.14)">
       <use xlink:href="#DejaVuSans-31"/>
       <use x="63.623047" xlink:href="#DejaVuSans-2e"/>
       <use x="95.410156" xlink:href="#DejaVuSans-30"/>
      </g>
     </g>
    </g>
    <g id="ytick_4">
     <g id="line2d_12">
      <g>
       <use style="stroke:#000000;stroke-width:0.8;" x="72" xlink:href="#m3131bba3a6" y="127.687237"/>
      </g>
     </g>
     <g id="text_13">
      <!-- 1.5 -->
      <g transform="translate(42.735625 133.006144)scale(0.14 -0.14)">
       <use xlink:href="#DejaVuSans-31"/>
       <use x="63.623047" xlink:href="#DejaVuSans-2e"/>
       <use x="95.410156" xlink:href="#DejaVuSans-35"/>
      </g>
     </g>
    </g>
    <g id="ytick_5">
     <g id="line2d_13">
      <g>
       <use style="stroke:#000000;stroke-width:0.8;" x="72" xlink:href="#m3131bba3a6" y="77.227668"/>
      </g>
     </g>
     <g id="text_14">
      <!-- 2.0 -->
      <g transform="translate(42.735625 82.546575)scale(0.14 -0.14)">
       <use xlink:href="#DejaVuSans-32"/>
       <use x="63.623047" xlink:href="#DejaVuSans-2e"/>
       <use x="95.410156" xlink:href="#DejaVuSans-30"/>
      </g>
     </g>
    </g>
    <g id="text_15">
     <!-- Speed [mm/s] -->
     <g transform="translate(35.408125 238.11375)rotate(-90)scale(0.16 -0.16)">
      <defs>
       <path d="M 1159 525 
L 1159 -1331 
L 581 -1331 
L 581 3500 
L 1159 3500 
L 1159 2969 
Q 1341 3281 1617 3432 
Q 1894 3584 2278 3584 
Q 2916 3584 3314 3078 
Q 3713 2572 3713 1747 
Q 3713 922 3314 415 
Q 2916 -91 2278 -91 
Q 1894 -91 1617 61 
Q 1341 213 1159 525 
z
M 3116 1747 
Q 3116 2381 2855 2742 
Q 2594 3103 2138 3103 
Q 1681 3103 1420 2742 
Q 1159 2381 1159 1747 
Q 1159 1113 1420 752 
Q 1681 391 2138 391 
Q 2594 391 2855 752 
Q 3116 1113 3116 1747 
z
" id="DejaVuSans-70" transform="scale(0.015625)"/>
       <path d="M 1625 4666 
L 2156 4666 
L 531 -594 
L 0 -594 
L 1625 4666 
z
" id="DejaVuSans-2f" transform="scale(0.015625)"/>
      </defs>
      <use xlink:href="#DejaVuSans-53"/>
      <use x="63.476562" xlink:href="#DejaVuSans-70"/>
      <use x="126.953125" xlink:href="#DejaVuSans-65"/>
      <use x="188.476562" xlink:href="#DejaVuSans-65"/>
      <use x="250" xlink:href="#DejaVuSans-64"/>
      <use x="313.476562" xlink:href="#DejaVuSans-20"/>
      <use x="345.263672" xlink:href="#DejaVuSans-5b"/>
      <use x="384.277344" xlink:href="#DejaVuSans-6d"/>
      <use x="481.689453" xlink:href="#DejaVuSans-6d"/>
      <use x="579.101562" xlink:href="#DejaVuSans-2f"/>
      <use x="612.792969" xlink:href="#DejaVuSans-73"/>
      <use x="664.892578" xlink:href="#DejaVuSans-5d"/>
     </g>
    </g>
   </g>
   <g id="line2d_14">
    <path clip-path="url(#p83013fcef8)" d="M 72 186.840426 
L 518.4 186.840426 
" style="fill:none;stroke:#000000;stroke-dasharray:5.55,2.4;stroke-dashoffset:0;stroke-width:1.5;"/>
   </g>
   <g id="line2d_15">
    <path clip-path="url(#p83013fcef8)" d="M 72 277.983895 
L 122.78427 277.904327 
L 123.411236 276.476687 
L 124.038202 275.718293 
L 125.292135 278.696725 
L 125.919101 278.810766 
L 126.546067 277.904906 
L 127.173034 279.038528 
L 127.8 281.983648 
L 128.426966 268.183727 
L 129.053933 262.051288 
L 130.934831 304.533734 
L 131.561798 307.8 
L 132.188764 303.429276 
L 132.81573 292.914843 
L 133.442697 275.449582 
L 134.696629 226.802392 
L 136.577528 145.55582 
L 137.831461 100.811632 
L 138.458427 82.866769 
L 139.085393 70.225136 
L 139.71236 61.352009 
L 140.339326 55.8 
L 140.966292 56.082997 
L 141.593258 60.941142 
L 142.220225 69.276696 
L 142.847191 80.707111 
L 144.101124 110.44873 
L 145.355056 143.928728 
L 147.235955 188.768146 
L 147.862921 196.00283 
L 148.489888 198.28358 
L 149.116854 193.638702 
L 149.74382 180.768343 
L 150.370787 156.300298 
L 150.997753 150.378476 
L 151.624719 160.352237 
L 152.878652 170.896704 
L 153.505618 173.808301 
L 154.759551 180.975781 
L 155.386517 184.22698 
L 156.013483 183.786149 
L 156.640449 182.178374 
L 157.267416 182.425269 
L 157.894382 183.387825 
L 158.521348 183.693591 
L 159.148315 184.774093 
L 159.775281 183.309563 
L 160.402247 180.89142 
L 161.029213 182.199311 
L 162.283146 183.389289 
L 162.910112 183.581416 
L 163.537079 182.602946 
L 164.164045 183.218063 
L 164.791011 184.876507 
L 165.417978 185.703294 
L 166.044944 187.339412 
L 166.67191 190.013828 
L 167.298876 186.37887 
L 167.925843 184.229069 
L 168.552809 188.246974 
L 169.179775 188.640661 
L 169.806742 186.684017 
L 170.433708 185.817846 
L 171.060674 185.202847 
L 171.68764 185.684076 
L 172.941573 188.250982 
L 173.568539 187.120904 
L 174.195506 185.551812 
L 175.449438 186.950609 
L 176.076404 188.461046 
L 176.703371 186.843606 
L 177.330337 185.963114 
L 177.957303 186.237827 
L 178.58427 184.869692 
L 179.211236 184.848419 
L 179.838202 185.479266 
L 180.465169 186.76634 
L 181.092135 189.070405 
L 181.719101 185.645752 
L 182.346067 183.2287 
L 182.973034 187.381745 
L 183.6 188.577285 
L 184.853933 185.248535 
L 185.480899 185.768348 
L 186.107865 186.976911 
L 186.734831 185.731491 
L 187.361798 185.567118 
L 187.988764 188.107455 
L 188.61573 188.5977 
L 189.242697 186.645166 
L 189.869663 187.72762 
L 190.496629 190.075135 
L 191.123596 188.478412 
L 191.750562 185.879466 
L 192.377528 186.126611 
L 193.004494 187.436858 
L 193.631461 187.859098 
L 194.258427 186.55899 
L 194.885393 185.975445 
L 195.51236 184.812463 
L 196.139326 184.537137 
L 196.766292 186.300822 
L 197.393258 187.050944 
L 198.020225 188.358527 
L 198.647191 185.593809 
L 199.274157 184.441291 
L 199.901124 186.183587 
L 200.52809 183.354823 
L 201.155056 182.349629 
L 201.782022 185.163811 
L 202.408989 187.113202 
L 203.035955 190.092397 
L 203.662921 187.793786 
L 204.289888 186.202188 
L 204.916854 190.829973 
L 205.54382 190.889601 
L 206.170787 189.642655 
L 206.797753 189.049828 
L 207.424719 188.705443 
L 208.051685 190.069192 
L 208.678652 187.254609 
L 209.305618 187.023284 
L 209.932584 189.272508 
L 210.559551 187.132495 
L 211.186517 186.713567 
L 211.813483 188.103798 
L 213.067416 186.621046 
L 213.694382 186.888223 
L 214.321348 187.537418 
L 214.948315 187.666516 
L 215.575281 186.495571 
L 216.202247 184.955578 
L 216.829213 185.043589 
L 218.083146 186.80548 
L 218.710112 186.81357 
L 219.337079 186.645694 
L 219.964045 187.975662 
L 220.591011 186.474365 
L 221.217978 186.637262 
L 221.844944 185.604526 
L 222.47191 183.361674 
L 223.098876 183.236269 
L 223.725843 183.83987 
L 224.352809 185.334768 
L 224.979775 187.933592 
L 225.606742 186.753537 
L 226.233708 185.957312 
L 226.860674 187.100953 
L 227.48764 186.500752 
L 228.114607 188.050502 
L 228.741573 185.620149 
L 229.368539 185.853574 
L 229.995506 189.71557 
L 230.622472 189.360263 
L 231.876404 189.342666 
L 232.503371 187.934879 
L 233.130337 190.098938 
L 233.757303 189.694608 
L 234.38427 187.405421 
L 235.011236 187.750724 
L 235.638202 186.586457 
L 236.265169 186.878779 
L 236.892135 186.483858 
L 237.519101 187.290629 
L 238.146067 188.31977 
L 238.773034 186.024245 
L 239.4 186.098459 
L 240.026966 185.50879 
L 240.653933 183.648405 
L 241.280899 186.108682 
L 241.907865 186.496856 
L 242.534831 185.683531 
L 243.161798 188.41198 
L 243.788764 187.876475 
L 244.41573 187.819093 
L 245.042697 189.298408 
L 246.296629 189.275606 
L 246.923596 189.321373 
L 247.550562 188.416439 
L 248.177528 186.670064 
L 248.804494 184.435458 
L 249.431461 186.501474 
L 250.058427 187.862622 
L 250.685393 184.994395 
L 252.566292 189.132467 
L 253.193258 189.497039 
L 253.820225 187.357307 
L 254.447191 187.041986 
L 255.074157 188.495989 
L 255.701124 186.922526 
L 256.32809 187.085224 
L 256.955056 187.465636 
L 257.582022 186.000604 
L 258.208989 187.970291 
L 258.835955 188.872448 
L 259.462921 187.103471 
L 260.089888 184.932726 
L 260.716854 184.961706 
L 261.34382 184.875425 
L 261.970787 183.079227 
L 262.597753 183.931401 
L 263.224719 185.561782 
L 263.851685 183.960193 
L 264.478652 184.240035 
L 265.105618 186.125093 
L 266.359551 188.775603 
L 266.986517 188.806037 
L 267.613483 189.691144 
L 268.240449 188.032238 
L 268.867416 186.854465 
L 269.494382 186.923979 
L 270.121348 185.371037 
L 270.748315 186.830519 
L 271.375281 186.52835 
L 272.002247 185.571922 
L 273.25618 185.598848 
L 273.883146 186.978105 
L 274.510112 188.074495 
L 275.137079 188.378581 
L 275.764045 187.812316 
L 276.391011 186.354651 
L 277.017978 187.137512 
L 277.644944 187.372759 
L 278.27191 186.562738 
L 278.898876 188.48693 
L 279.525843 189.107972 
L 280.152809 190.644402 
L 280.779775 190.166003 
L 281.406742 185.099901 
L 282.033708 184.443011 
L 282.660674 186.834076 
L 283.28764 186.334048 
L 283.914607 186.40291 
L 284.541573 186.355025 
L 285.168539 187.186686 
L 285.795506 188.676197 
L 286.422472 186.196138 
L 287.049438 185.346849 
L 287.676404 187.138353 
L 288.303371 187.159839 
L 288.930337 187.387157 
L 289.557303 188.901631 
L 290.18427 188.390542 
L 290.811236 188.289088 
L 291.438202 186.606202 
L 292.065169 186.372431 
L 292.692135 187.779772 
L 293.319101 186.555991 
L 293.946067 187.781752 
L 294.573034 185.915565 
L 295.2 182.949157 
L 295.826966 183.85976 
L 297.080899 186.659687 
L 297.707865 188.212652 
L 298.334831 187.758385 
L 298.961798 188.624578 
L 299.588764 188.116359 
L 300.21573 185.573673 
L 300.842697 186.77125 
L 301.469663 187.678539 
L 302.096629 190.447102 
L 302.723596 189.541873 
L 303.350562 185.879385 
L 303.977528 187.063551 
L 304.604494 186.982776 
L 305.231461 187.270282 
L 305.858427 187.949069 
L 306.485393 188.000375 
L 307.11236 190.502571 
L 307.739326 189.493889 
L 308.366292 185.957973 
L 308.993258 185.929469 
L 309.620225 184.714666 
L 310.247191 184.259214 
L 310.874157 185.900242 
L 311.501124 186.456535 
L 312.12809 188.247226 
L 312.755056 188.663724 
L 313.382022 187.093592 
L 314.008989 185.913538 
L 314.635955 185.49905 
L 315.262921 189.132671 
L 315.889888 188.190137 
L 316.516854 185.684703 
L 317.14382 186.034036 
L 317.770787 184.977031 
L 319.651685 188.14805 
L 320.278652 189.56575 
L 320.905618 189.791339 
L 321.532584 189.016515 
L 322.786517 184.325815 
L 323.413483 186.772082 
L 324.040449 187.546347 
L 324.667416 185.475644 
L 325.294382 186.503922 
L 326.548315 185.197214 
L 327.175281 186.53761 
L 327.802247 185.48712 
L 328.429213 185.715052 
L 329.05618 188.093002 
L 329.683146 188.529902 
L 330.310112 189.541385 
L 330.937079 187.61937 
L 331.564045 185.0105 
L 333.444944 190.306273 
L 334.698876 187.852274 
L 335.325843 188.765936 
L 335.952809 185.572725 
L 336.579775 184.748213 
L 337.206742 187.781724 
L 337.833708 186.122214 
L 338.460674 186.323974 
L 339.08764 187.243511 
L 339.714607 186.219403 
L 340.341573 186.329186 
L 340.968539 186.027123 
L 341.595506 184.289896 
L 342.222472 184.015321 
L 342.849438 186.366078 
L 343.476404 187.844461 
L 344.103371 186.799763 
L 344.730337 186.945802 
L 345.357303 188.8037 
L 345.98427 187.032977 
L 346.611236 188.354293 
L 347.238202 188.141039 
L 347.865169 186.518796 
L 348.492135 189.018288 
L 349.119101 185.92068 
L 349.746067 184.052885 
L 350.373034 186.353731 
L 351 186.3976 
L 352.253933 188.472511 
L 352.880899 188.753792 
L 354.134831 187.983928 
L 354.761798 189.7244 
L 355.388764 189.679734 
L 356.01573 187.161721 
L 356.642697 188.670982 
L 357.269663 188.684205 
L 357.896629 185.615554 
L 358.523596 185.59761 
L 359.150562 185.033104 
L 359.777528 185.402277 
L 360.404494 187.625226 
L 362.285393 186.159776 
L 363.539326 183.935773 
L 364.166292 184.830205 
L 364.793258 186.344612 
L 365.420225 186.080111 
L 366.047191 186.787179 
L 366.674157 189.246752 
L 367.301124 188.970357 
L 367.92809 187.521571 
L 368.555056 188.091871 
L 369.182022 185.852421 
L 369.808989 186.559659 
L 370.435955 185.643602 
L 371.062921 182.873997 
L 371.689888 185.889259 
L 372.316854 187.210805 
L 372.94382 186.616999 
L 373.570787 188.225968 
L 374.197753 189.062276 
L 374.824719 191.040408 
L 375.451685 189.739107 
L 376.078652 187.002596 
L 376.705618 187.867637 
L 377.332584 187.156889 
L 377.959551 188.625033 
L 378.586517 189.091445 
L 379.213483 186.038803 
L 379.840449 187.525468 
L 380.467416 188.03522 
L 381.094382 186.730433 
L 381.721348 188.144338 
L 382.348315 188.137632 
L 382.975281 187.148338 
L 383.602247 185.149508 
L 384.229213 184.736719 
L 384.85618 185.383742 
L 385.483146 184.185501 
L 386.110112 185.449583 
L 386.737079 185.73917 
L 387.364045 185.000055 
L 387.991011 186.505197 
L 389.244944 186.811051 
L 389.87191 187.648348 
L 390.498876 188.071183 
L 391.125843 188.629222 
L 392.379775 187.516076 
L 393.006742 188.668369 
L 393.633708 187.716543 
L 394.260674 187.367355 
L 394.88764 188.367326 
L 395.514607 186.186132 
L 396.141573 187.804923 
L 396.768539 189.898932 
L 397.395506 188.607126 
L 398.649438 186.553116 
L 399.276404 186.165542 
L 399.903371 187.157053 
L 400.530337 186.979196 
L 401.157303 187.090164 
L 401.78427 185.690874 
L 402.411236 184.873368 
L 403.038202 185.945084 
L 403.665169 185.479967 
L 404.292135 188.11698 
L 404.919101 189.013172 
L 405.546067 186.916008 
L 406.173034 186.825032 
L 407.426966 187.303197 
L 408.053933 188.874916 
L 408.680899 188.599795 
L 409.307865 187.197009 
L 409.934831 186.187536 
L 410.561798 184.866992 
L 411.188764 184.725292 
L 411.81573 184.739396 
L 412.442697 186.148784 
L 413.069663 186.91208 
L 413.696629 185.393922 
L 414.323596 186.770157 
L 414.950562 185.84021 
L 415.577528 183.417604 
L 416.204494 185.93784 
L 416.831461 186.645475 
L 417.458427 185.504749 
L 418.085393 188.155213 
L 418.71236 188.238392 
L 419.339326 188.205344 
L 419.966292 188.798476 
L 420.593258 186.520169 
L 421.220225 188.662556 
L 421.847191 189.921409 
L 422.474157 189.362784 
L 423.101124 187.585766 
L 423.72809 183.571137 
L 424.355056 185.01871 
L 424.982022 186.800993 
L 425.608989 187.037213 
L 426.235955 189.254084 
L 426.862921 187.436007 
L 427.489888 187.60756 
L 428.116854 187.024553 
L 428.74382 185.330887 
L 429.370787 186.742773 
L 429.997753 185.986565 
L 430.624719 187.359895 
L 431.251685 187.409627 
L 431.878652 185.903974 
L 432.505618 188.039783 
L 433.132584 186.351457 
L 433.759551 185.381268 
L 434.386517 188.693934 
L 435.013483 188.04469 
L 435.640449 186.639299 
L 436.267416 186.808458 
L 436.894382 185.343584 
L 437.521348 186.488815 
L 438.775281 185.566649 
L 439.402247 186.438981 
L 440.029213 185.443706 
L 440.65618 187.118446 
L 441.283146 187.887414 
L 441.910112 187.01995 
L 442.537079 187.527716 
L 443.164045 188.345825 
L 443.791011 187.295002 
L 444.417978 187.124714 
L 445.044944 187.357406 
L 445.67191 188.42177 
L 446.298876 188.02337 
L 446.925843 189.043391 
L 447.552809 188.809359 
L 448.179775 187.937761 
L 448.806742 189.919626 
L 449.433708 189.352592 
L 450.060674 186.516134 
L 450.68764 187.559064 
L 451.314607 188.276662 
L 451.941573 186.890901 
L 452.568539 189.193563 
L 453.195506 188.547508 
L 453.822472 187.695263 
L 454.449438 188.385202 
L 455.076404 186.982251 
L 455.703371 186.658108 
L 456.330337 184.717188 
L 456.957303 183.283721 
L 457.58427 184.685667 
L 458.211236 185.267157 
L 458.838202 187.409507 
L 459.465169 187.119099 
L 460.092135 184.100535 
L 460.719101 187.318954 
L 461.346067 187.341637 
L 461.973034 185.711651 
L 462.6 188.206016 
L 463.226966 187.311959 
L 463.853933 186.828623 
L 465.107865 185.550705 
L 465.734831 185.955346 
L 466.361798 185.810332 
L 466.988764 187.204592 
L 467.61573 187.804136 
L 468.242697 185.32186 
L 468.869663 186.406105 
L 469.496629 185.017525 
L 470.123596 184.512568 
L 470.750562 187.527992 
L 471.377528 186.64786 
L 472.004494 186.923754 
L 472.631461 188.743477 
L 473.258427 189.090088 
L 473.885393 187.841724 
L 474.51236 187.833377 
L 475.139326 188.900137 
L 475.766292 190.396579 
L 476.393258 189.104299 
L 477.020225 190.112784 
L 477.647191 189.15244 
L 478.274157 184.23343 
L 478.901124 185.551067 
L 479.52809 187.259017 
L 480.155056 187.459516 
L 480.782022 187.870973 
L 481.408989 185.551237 
L 482.035955 186.103374 
L 482.662921 187.469888 
L 483.289888 184.032919 
L 483.916854 184.079783 
L 484.54382 183.924179 
L 485.170787 184.621419 
L 485.797753 185.495805 
L 486.424719 184.471345 
L 487.051685 187.096863 
L 487.678652 187.742796 
L 488.305618 187.904496 
L 488.932584 189.9283 
L 489.559551 189.583454 
L 490.186517 188.662743 
L 490.813483 188.045244 
L 492.067416 186.301714 
L 492.694382 186.067114 
L 493.321348 187.769818 
L 493.948315 187.821273 
L 494.575281 186.039449 
L 495.202247 186.936894 
L 495.829213 184.292295 
L 496.45618 183.092346 
L 497.083146 186.81361 
L 497.710112 187.618842 
L 498.337079 186.735865 
L 498.964045 187.888227 
L 499.591011 188.266658 
L 500.217978 187.750062 
L 500.844944 187.408022 
L 501.47191 186.08999 
L 502.098876 187.128327 
L 502.725843 187.442266 
L 503.352809 188.068542 
L 503.979775 189.666296 
L 504.606742 189.286497 
L 505.233708 189.746572 
L 505.860674 188.871092 
L 506.48764 187.068822 
L 507.114607 188.834791 
L 507.741573 188.558028 
L 508.995506 187.141753 
L 511.503371 184.024016 
L 512.130337 183.555752 
L 512.757303 183.376157 
L 513.38427 183.583581 
L 514.011236 184.285658 
L 514.638202 185.599309 
L 515.265169 187.650742 
L 515.892135 190.575448 
L 516.519101 194.518204 
L 517.146067 199.633074 
L 517.773034 206.083407 
L 518.4 214.041837 
L 518.4 214.041837 
" style="fill:none;stroke:#ff0000;stroke-linecap:square;stroke-width:2;"/>
   </g>
   <g id="patch_3">
    <path d="M 72 320.4 
L 72 43.2 
" style="fill:none;stroke:#000000;stroke-linecap:square;stroke-linejoin:miter;stroke-width:0.8;"/>
   </g>
   <g id="patch_4">
    <path d="M 518.4 320.4 
L 518.4 43.2 
" style="fill:none;stroke:#000000;stroke-linecap:square;stroke-linejoin:miter;stroke-width:0.8;"/>
   </g>
   <g id="patch_5">
    <path d="M 72 320.4 
L 518.4 320.4 
" style="fill:none;stroke:#000000;stroke-linecap:square;stroke-linejoin:miter;stroke-width:0.8;"/>
   </g>
   <g id="patch_6">
    <path d="M 72 43.2 
L 518.4 43.2 
" style="fill:none;stroke:#000000;stroke-linecap:square;stroke-linejoin:miter;stroke-width:0.8;"/>
   </g>
   <g id="text_16">
    <!-- Front Propogation Speed -->
    <g transform="translate(172.245312 37.2)scale(0.2 -0.2)">
     <defs>
      <path d="M 628 4666 
L 3309 4666 
L 3309 4134 
L 1259 4134 
L 1259 2759 
L 3109 2759 
L 3109 2228 
L 1259 2228 
L 1259 0 
L 628 0 
L 628 4666 
z
" id="DejaVuSans-46" transform="scale(0.015625)"/>
      <path d="M 2631 2963 
Q 2534 3019 2420 3045 
Q 2306 3072 2169 3072 
Q 1681 3072 1420 2755 
Q 1159 2438 1159 1844 
L 1159 0 
L 581 0 
L 581 3500 
L 1159 3500 
L 1159 2956 
Q 1341 3275 1631 3429 
Q 1922 3584 2338 3584 
Q 2397 3584 2469 3576 
Q 2541 3569 2628 3553 
L 2631 2963 
z
" id="DejaVuSans-72" transform="scale(0.015625)"/>
      <path d="M 1172 4494 
L 1172 3500 
L 2356 3500 
L 2356 3053 
L 1172 3053 
L 1172 1153 
Q 1172 725 1289 603 
Q 1406 481 1766 481 
L 2356 481 
L 2356 0 
L 1766 0 
Q 1100 0 847 248 
Q 594 497 594 1153 
L 594 3053 
L 172 3053 
L 172 3500 
L 594 3500 
L 594 4494 
L 1172 4494 
z
" id="DejaVuSans-74" transform="scale(0.015625)"/>
      <path d="M 1259 4147 
L 1259 2394 
L 2053 2394 
Q 2494 2394 2734 2622 
Q 2975 2850 2975 3272 
Q 2975 3691 2734 3919 
Q 2494 4147 2053 4147 
L 1259 4147 
z
M 628 4666 
L 2053 4666 
Q 2838 4666 3239 4311 
Q 3641 3956 3641 3272 
Q 3641 2581 3239 2228 
Q 2838 1875 2053 1875 
L 1259 1875 
L 1259 0 
L 628 0 
L 628 4666 
z
" id="DejaVuSans-50" transform="scale(0.015625)"/>
      <path d="M 2906 1791 
Q 2906 2416 2648 2759 
Q 2391 3103 1925 3103 
Q 1463 3103 1205 2759 
Q 947 2416 947 1791 
Q 947 1169 1205 825 
Q 1463 481 1925 481 
Q 2391 481 2648 825 
Q 2906 1169 2906 1791 
z
M 3481 434 
Q 3481 -459 3084 -895 
Q 2688 -1331 1869 -1331 
Q 1566 -1331 1297 -1286 
Q 1028 -1241 775 -1147 
L 775 -588 
Q 1028 -725 1275 -790 
Q 1522 -856 1778 -856 
Q 2344 -856 2625 -561 
Q 2906 -266 2906 331 
L 2906 616 
Q 2728 306 2450 153 
Q 2172 0 1784 0 
Q 1141 0 747 490 
Q 353 981 353 1791 
Q 353 2603 747 3093 
Q 1141 3584 1784 3584 
Q 2172 3584 2450 3431 
Q 2728 3278 2906 2969 
L 2906 3500 
L 3481 3500 
L 3481 434 
z
" id="DejaVuSans-67" transform="scale(0.015625)"/>
      <path d="M 2194 1759 
Q 1497 1759 1228 1600 
Q 959 1441 959 1056 
Q 959 750 1161 570 
Q 1363 391 1709 391 
Q 2188 391 2477 730 
Q 2766 1069 2766 1631 
L 2766 1759 
L 2194 1759 
z
M 3341 1997 
L 3341 0 
L 2766 0 
L 2766 531 
Q 2569 213 2275 61 
Q 1981 -91 1556 -91 
Q 1019 -91 701 211 
Q 384 513 384 1019 
Q 384 1609 779 1909 
Q 1175 2209 1959 2209 
L 2766 2209 
L 2766 2266 
Q 2766 2663 2505 2880 
Q 2244 3097 1772 3097 
Q 1472 3097 1187 3025 
Q 903 2953 641 2809 
L 641 3341 
Q 956 3463 1253 3523 
Q 1550 3584 1831 3584 
Q 2591 3584 2966 3190 
Q 3341 2797 3341 1997 
z
" id="DejaVuSans-61" transform="scale(0.015625)"/>
     </defs>
     <use xlink:href="#DejaVuSans-46"/>
     <use x="50.269531" xlink:href="#DejaVuSans-72"/>
     <use x="89.132812" xlink:href="#DejaVuSans-6f"/>
     <use x="150.314453" xlink:href="#DejaVuSans-6e"/>
     <use x="213.693359" xlink:href="#DejaVuSans-74"/>
     <use x="252.902344" xlink:href="#DejaVuSans-20"/>
     <use x="284.689453" xlink:href="#DejaVuSans-50"/>
     <use x="343.242188" xlink:href="#DejaVuSans-72"/>
     <use x="382.105469" xlink:href="#DejaVuSans-6f"/>
     <use x="443.287109" xlink:href="#DejaVuSans-70"/>
     <use x="506.763672" xlink:href="#DejaVuSans-6f"/>
     <use x="567.945312" xlink:href="#DejaVuSans-67"/>
     <use x="631.421875" xlink:href="#DejaVuSans-61"/>
     <use x="692.701172" xlink:href="#DejaVuSans-74"/>
     <use x="731.910156" xlink:href="#DejaVuSans-69"/>
     <use x="759.693359" xlink:href="#DejaVuSans-6f"/>
     <use x="820.875" xlink:href="#DejaVuSans-6e"/>
     <use x="884.253906" xlink:href="#DejaVuSans-20"/>
     <use x="916.041016" xlink:href="#DejaVuSans-53"/>
     <use x="979.517578" xlink:href="#DejaVuSans-70"/>
     <use x="1042.994141" xlink:href="#DejaVuSans-65"/>
     <use x="1104.517578" xlink:href="#DejaVuSans-65"/>
     <use x="1166.041016" xlink:href="#DejaVuSans-64"/>
    </g>
   </g>
   <g id="legend_1">
    <g id="patch_7">
     <path d="M 325.967812 111.175687 
L 508.6 111.175687 
Q 511.4 111.175687 511.4 108.375687 
L 511.4 53 
Q 511.4 50.2 508.6 50.2 
L 325.967812 50.2 
Q 323.167812 50.2 323.167812 53 
L 323.167812 108.375687 
Q 323.167812 111.175687 325.967812 111.175687 
z
" style="fill:#ffffff;opacity:0.8;stroke:#cccccc;stroke-linejoin:miter;"/>
    </g>
    <g id="line2d_16">
     <path d="M 328.767812 61.537812 
L 356.767812 61.537812 
" style="fill:none;stroke:#ff0000;stroke-linecap:square;stroke-width:2;"/>
    </g>
    <g id="line2d_17"/>
    <g id="text_17">
     <!-- Front speed -->
     <g transform="translate(367.967812 66.437812)scale(0.14 -0.14)">
      <use xlink:href="#DejaVuSans-46"/>
      <use x="50.269531" xlink:href="#DejaVuSans-72"/>
      <use x="89.132812" xlink:href="#DejaVuSans-6f"/>
      <use x="150.314453" xlink:href="#DejaVuSans-6e"/>
      <use x="213.693359" xlink:href="#DejaVuSans-74"/>
      <use x="252.902344" xlink:href="#DejaVuSans-20"/>
      <use x="284.689453" xlink:href="#DejaVuSans-73"/>
      <use x="336.789062" xlink:href="#DejaVuSans-70"/>
      <use x="400.265625" xlink:href="#DejaVuSans-65"/>
      <use x="461.789062" xlink:href="#DejaVuSans-65"/>
      <use x="523.3125" xlink:href="#DejaVuSans-64"/>
     </g>
    </g>
    <g id="line2d_18">
     <path d="M 328.767812 91.381437 
L 356.767812 91.381437 
" style="fill:none;stroke:#000000;stroke-dasharray:5.55,2.4;stroke-dashoffset:0;stroke-width:1.5;"/>
    </g>
    <g id="line2d_19"/>
    <g id="text_18">
     <!-- Steady state -->
     <g transform="translate(367.967812 86.987187)scale(0.14 -0.14)">
      <defs>
       <path d="M 2059 -325 
Q 1816 -950 1584 -1140 
Q 1353 -1331 966 -1331 
L 506 -1331 
L 506 -850 
L 844 -850 
Q 1081 -850 1212 -737 
Q 1344 -625 1503 -206 
L 1606 56 
L 191 3500 
L 800 3500 
L 1894 763 
L 2988 3500 
L 3597 3500 
L 2059 -325 
z
" id="DejaVuSans-79" transform="scale(0.015625)"/>
      </defs>
      <use xlink:href="#DejaVuSans-53"/>
      <use x="63.476562" xlink:href="#DejaVuSans-74"/>
      <use x="102.685547" xlink:href="#DejaVuSans-65"/>
      <use x="164.208984" xlink:href="#DejaVuSans-61"/>
      <use x="225.488281" xlink:href="#DejaVuSans-64"/>
      <use x="288.964844" xlink:href="#DejaVuSans-79"/>
      <use x="348.144531" xlink:href="#DejaVuSans-20"/>
      <use x="379.931641" xlink:href="#DejaVuSans-73"/>
      <use x="432.03125" xlink:href="#DejaVuSans-74"/>
      <use x="471.240234" xlink:href="#DejaVuSans-61"/>
      <use x="532.519531" xlink:href="#DejaVuSans-74"/>
      <use x="571.728516" xlink:href="#DejaVuSans-65"/>
     </g>
     <!-- speed = 0.91 mm/s -->
     <g transform="translate(367.967812 102.664125)scale(0.14 -0.14)">
      <defs>
       <path d="M 678 2906 
L 4684 2906 
L 4684 2381 
L 678 2381 
L 678 2906 
z
M 678 1631 
L 4684 1631 
L 4684 1100 
L 678 1100 
L 678 1631 
z
" id="DejaVuSans-3d" transform="scale(0.015625)"/>
       <path d="M 703 97 
L 703 672 
Q 941 559 1184 500 
Q 1428 441 1663 441 
Q 2288 441 2617 861 
Q 2947 1281 2994 2138 
Q 2813 1869 2534 1725 
Q 2256 1581 1919 1581 
Q 1219 1581 811 2004 
Q 403 2428 403 3163 
Q 403 3881 828 4315 
Q 1253 4750 1959 4750 
Q 2769 4750 3195 4129 
Q 3622 3509 3622 2328 
Q 3622 1225 3098 567 
Q 2575 -91 1691 -91 
Q 1453 -91 1209 -44 
Q 966 3 703 97 
z
M 1959 2075 
Q 2384 2075 2632 2365 
Q 2881 2656 2881 3163 
Q 2881 3666 2632 3958 
Q 2384 4250 1959 4250 
Q 1534 4250 1286 3958 
Q 1038 3666 1038 3163 
Q 1038 2656 1286 2365 
Q 1534 2075 1959 2075 
z
" id="DejaVuSans-39" transform="scale(0.015625)"/>
      </defs>
      <use xlink:href="#DejaVuSans-73"/>
      <use x="52.099609" xlink:href="#DejaVuSans-70"/>
      <use x="115.576172" xlink:href="#DejaVuSans-65"/>
      <use x="177.099609" xlink:href="#DejaVuSans-65"/>
      <use x="238.623047" xlink:href="#DejaVuSans-64"/>
      <use x="302.099609" xlink:href="#DejaVuSans-20"/>
      <use x="333.886719" xlink:href="#DejaVuSans-3d"/>
      <use x="417.675781" xlink:href="#DejaVuSans-20"/>
      <use x="449.462891" xlink:href="#DejaVuSans-30"/>
      <use x="513.085938" xlink:href="#DejaVuSans-2e"/>
      <use x="544.873047" xlink:href="#DejaVuSans-39"/>
      <use x="608.496094" xlink:href="#DejaVuSans-31"/>
      <use x="672.119141" xlink:href="#DejaVuSans-20"/>
      <use x="703.90625" xlink:href="#DejaVuSans-6d"/>
      <use x="801.318359" xlink:href="#DejaVuSans-6d"/>
      <use x="898.730469" xlink:href="#DejaVuSans-2f"/>
      <use x="932.421875" xlink:href="#DejaVuSans-73"/>
     </g>
    </g>
   </g>
  </g>
 </g>
 <defs>
  <clipPath id="p83013fcef8">
   <rect height="277.2" width="446.4" x="72" y="43.2"/>
  </clipPath>
 </defs>
</svg>
