<?xml version="1.0" encoding="utf-8" standalone="no"?>
<!DOCTYPE svg PUBLIC "-//W3C//DTD SVG 1.1//EN"
  "http://www.w3.org/Graphics/SVG/1.1/DTD/svg11.dtd">
<svg height="360pt" version="1.1" viewBox="0 0 576 360" width="576pt" xmlns="http://www.w3.org/2000/svg" xmlns:xlink="http://www.w3.org/1999/xlink">
 <metadata>
  <rdf:RDF xmlns:cc="http://creativecommons.org/ns#" xmlns:dc="http://purl.org/dc/elements/1.1/" xmlns:rdf="http://www.w3.org/1999/02/22-rdf-syntax-ns#">
   <cc:Work>
    <dc:type rdf:resource="http://purl.org/dc/dcmitype/StillImage"/>
    <dc:date>2022-06-30T14:37:30.864534</dc:date>
    <dc:format>image/svg+xml</dc:format>
    <dc:creator>
     <cc:Agent>
      <dc:title>Matplotlib v3.4.3, https://matplotlib.org/</dc:title>
     </cc:Agent>
    </dc:creator>
   </cc:Work>
  </rdf:RDF>
 </metadata>
 <defs>
  <style type="text/css">*{stroke-linecap:butt;stroke-linejoin:round;}</style>
 </defs>
 <g id="figure_1">
  <g id="patch_1">
   <path d="M 0 360 
L 576 360 
L 576 0 
L 0 0 
z
" style="fill:#ffffff;"/>
  </g>
  <g id="axes_1">
   <g id="patch_2">
    <path d="M 72 320.4 
L 518.4 320.4 
L 518.4 43.2 
L 72 43.2 
z
" style="fill:#ffffff;"/>
   </g>
   <g id="PolyCollection_1">
    <defs>
     <path d="M 72 -124.072149 
L 72 -135.258864 
L 73.014545 -135.258864 
L 74.029091 -135.258864 
L 75.043636 -135.258864 
L 76.058182 -135.258864 
L 77.072727 -135.258864 
L 78.087273 -135.258864 
L 79.101818 -135.258864 
L 80.116364 -135.258864 
L 81.130909 -135.258864 
L 82.145455 -135.258864 
L 83.16 -135.258864 
L 84.174545 -135.258864 
L 85.189091 -135.258864 
L 86.203636 -135.258864 
L 87.218182 -135.258864 
L 88.232727 -135.258864 
L 89.247273 -135.258864 
L 90.261818 -135.258864 
L 91.276364 -135.258864 
L 92.290909 -135.258864 
L 93.305455 -135.258864 
L 94.32 -135.258864 
L 95.334545 -135.258864 
L 96.349091 -135.258864 
L 97.363636 -135.258864 
L 98.378182 -135.258864 
L 99.392727 -135.258864 
L 100.407273 -135.258864 
L 101.421818 -135.258864 
L 102.436364 -135.258864 
L 103.450909 -135.258864 
L 104.465455 -135.258864 
L 105.48 -135.258864 
L 106.494545 -135.258864 
L 107.509091 -135.258864 
L 108.523636 -135.258864 
L 109.538182 -135.258864 
L 110.552727 -135.258864 
L 111.567273 -135.258864 
L 112.581818 -135.258864 
L 113.596364 -135.258864 
L 114.610909 -135.258864 
L 115.625455 -135.258864 
L 116.64 -135.258864 
L 117.654545 -135.258864 
L 118.669091 -135.258864 
L 119.683636 -135.258864 
L 120.698182 -135.258864 
L 121.712727 -135.258864 
L 122.727273 -135.258864 
L 123.741818 -135.258864 
L 124.756364 -135.258864 
L 125.770909 -135.258864 
L 126.785455 -135.258864 
L 127.8 -135.258864 
L 128.814545 -135.258864 
L 129.829091 -135.258864 
L 130.843636 -135.258864 
L 131.858182 -135.258864 
L 132.872727 -135.258864 
L 133.887273 -135.258864 
L 134.901818 -135.258864 
L 135.916364 -135.258864 
L 136.930909 -135.258864 
L 137.945455 -135.258864 
L 138.96 -135.258864 
L 139.974545 -135.258864 
L 140.989091 -135.258864 
L 142.003636 -135.258864 
L 143.018182 -135.258864 
L 144.032727 -135.258864 
L 145.047273 -135.258864 
L 146.061818 -135.258864 
L 147.076364 -135.258864 
L 148.090909 -135.258864 
L 149.105455 -135.258864 
L 150.12 -135.258864 
L 151.134545 -135.258864 
L 152.149091 -135.258864 
L 153.163636 -135.258864 
L 154.178182 -135.258864 
L 155.192727 -135.258864 
L 156.207273 -135.258864 
L 157.221818 -135.258864 
L 158.236364 -135.258864 
L 159.250909 -135.258864 
L 160.265455 -135.258864 
L 161.28 -135.258864 
L 162.294545 -135.258864 
L 163.309091 -135.258864 
L 164.323636 -135.258864 
L 165.338182 -135.258864 
L 166.352727 -135.258864 
L 167.367273 -135.258864 
L 168.381818 -135.258864 
L 169.396364 -135.258864 
L 170.410909 -135.258864 
L 171.425455 -135.258864 
L 172.44 -135.258864 
L 173.454545 -135.258864 
L 174.469091 -135.258864 
L 175.483636 -135.258864 
L 176.498182 -135.258864 
L 177.512727 -135.258864 
L 178.527273 -135.258864 
L 179.541818 -135.258864 
L 180.556364 -135.258864 
L 181.570909 -135.258864 
L 182.585455 -135.258864 
L 183.6 -135.258864 
L 184.614545 -135.258864 
L 185.629091 -135.258864 
L 186.643636 -135.258864 
L 187.658182 -135.258864 
L 188.672727 -135.258864 
L 189.687273 -135.258864 
L 190.701818 -135.258864 
L 191.716364 -135.258864 
L 192.730909 -135.258864 
L 193.745455 -135.258864 
L 194.76 -135.258864 
L 195.774545 -135.258864 
L 196.789091 -135.258864 
L 197.803636 -135.258864 
L 198.818182 -135.258864 
L 199.832727 -135.258864 
L 200.847273 -135.258864 
L 201.861818 -135.258864 
L 202.876364 -135.258864 
L 203.890909 -135.258864 
L 204.905455 -135.258864 
L 205.92 -135.258864 
L 206.934545 -135.258864 
L 207.949091 -135.258864 
L 208.963636 -135.258864 
L 209.978182 -135.258864 
L 210.992727 -135.258864 
L 212.007273 -135.258864 
L 213.021818 -135.258864 
L 214.036364 -135.258864 
L 215.050909 -135.258864 
L 216.065455 -135.258864 
L 217.08 -135.258864 
L 218.094545 -135.258864 
L 219.109091 -135.258864 
L 220.123636 -135.258864 
L 221.138182 -135.258864 
L 222.152727 -135.258864 
L 223.167273 -135.258864 
L 224.181818 -135.258864 
L 225.196364 -135.258864 
L 226.210909 -135.258864 
L 227.225455 -135.258864 
L 228.24 -135.258864 
L 229.254545 -135.258864 
L 230.269091 -135.258864 
L 231.283636 -135.258864 
L 232.298182 -135.258864 
L 233.312727 -135.258864 
L 234.327273 -135.258864 
L 235.341818 -135.258864 
L 236.356364 -135.258864 
L 237.370909 -135.258864 
L 238.385455 -135.258864 
L 239.4 -135.258864 
L 240.414545 -135.258864 
L 241.429091 -135.258864 
L 242.443636 -135.258864 
L 243.458182 -135.258864 
L 244.472727 -135.258864 
L 245.487273 -135.258864 
L 246.501818 -135.258864 
L 247.516364 -135.258864 
L 248.530909 -135.258864 
L 249.545455 -135.258864 
L 250.56 -135.258864 
L 251.574545 -135.258864 
L 252.589091 -135.258864 
L 253.603636 -135.258864 
L 254.618182 -135.258864 
L 255.632727 -135.258864 
L 256.647273 -135.258864 
L 257.661818 -135.258864 
L 258.676364 -135.258864 
L 259.690909 -135.258864 
L 260.705455 -135.258864 
L 261.72 -135.258864 
L 262.734545 -135.258864 
L 263.749091 -135.258864 
L 264.763636 -135.258864 
L 265.778182 -135.258864 
L 266.792727 -135.258864 
L 267.807273 -135.258864 
L 268.821818 -135.258864 
L 269.836364 -135.258864 
L 270.850909 -135.258864 
L 271.865455 -135.258864 
L 272.88 -135.258864 
L 273.894545 -135.258864 
L 274.909091 -135.258864 
L 275.923636 -135.258864 
L 276.938182 -135.258864 
L 277.952727 -135.258864 
L 278.967273 -135.258864 
L 279.981818 -135.258864 
L 280.996364 -135.258864 
L 282.010909 -135.258864 
L 283.025455 -135.258864 
L 284.04 -135.258864 
L 285.054545 -135.258864 
L 286.069091 -135.258864 
L 287.083636 -135.258864 
L 288.098182 -135.258864 
L 289.112727 -135.258864 
L 290.127273 -135.258864 
L 291.141818 -135.258864 
L 292.156364 -135.258864 
L 293.170909 -135.258864 
L 294.185455 -135.258864 
L 295.2 -135.258864 
L 296.214545 -135.258864 
L 297.229091 -135.258864 
L 298.243636 -135.258864 
L 299.258182 -135.258864 
L 300.272727 -135.258864 
L 301.287273 -135.258864 
L 302.301818 -135.258864 
L 303.316364 -135.258864 
L 304.330909 -135.258864 
L 305.345455 -135.258864 
L 306.36 -135.258864 
L 307.374545 -135.258864 
L 308.389091 -135.258864 
L 309.403636 -135.258864 
L 310.418182 -135.258864 
L 311.432727 -135.258864 
L 312.447273 -135.258864 
L 313.461818 -135.258864 
L 314.476364 -135.258864 
L 315.490909 -135.258864 
L 316.505455 -135.258864 
L 317.52 -135.258864 
L 318.534545 -135.258864 
L 319.549091 -135.258864 
L 320.563636 -135.258864 
L 321.578182 -135.258864 
L 322.592727 -135.258864 
L 323.607273 -135.258864 
L 324.621818 -135.258864 
L 325.636364 -135.258864 
L 326.650909 -135.258864 
L 327.665455 -135.258864 
L 328.68 -135.258864 
L 329.694545 -135.258864 
L 330.709091 -135.258864 
L 331.723636 -135.258864 
L 332.738182 -135.258864 
L 333.752727 -135.258864 
L 334.767273 -135.258864 
L 335.781818 -135.258864 
L 336.796364 -135.258864 
L 337.810909 -135.258864 
L 338.825455 -135.258864 
L 339.84 -135.258864 
L 340.854545 -135.258864 
L 341.869091 -135.258864 
L 342.883636 -135.258864 
L 343.898182 -135.258864 
L 344.912727 -135.258864 
L 345.927273 -135.258864 
L 346.941818 -135.258864 
L 347.956364 -135.258864 
L 348.970909 -135.258864 
L 349.985455 -135.258864 
L 351 -135.258864 
L 352.014545 -135.258864 
L 353.029091 -135.258864 
L 354.043636 -135.258864 
L 355.058182 -135.258864 
L 356.072727 -135.258864 
L 357.087273 -135.258864 
L 358.101818 -135.258864 
L 359.116364 -135.258864 
L 360.130909 -135.258864 
L 361.145455 -135.258864 
L 362.16 -135.258864 
L 363.174545 -135.258864 
L 364.189091 -135.258864 
L 365.203636 -135.258864 
L 366.218182 -135.258864 
L 367.232727 -135.258864 
L 368.247273 -135.258864 
L 369.261818 -135.258864 
L 370.276364 -135.258864 
L 371.290909 -135.258864 
L 372.305455 -135.258864 
L 373.32 -135.258864 
L 374.334545 -135.258864 
L 375.349091 -135.258864 
L 376.363636 -135.258864 
L 377.378182 -135.258864 
L 378.392727 -135.258864 
L 379.407273 -135.258864 
L 380.421818 -135.258864 
L 381.436364 -135.258864 
L 382.450909 -135.258864 
L 383.465455 -135.258864 
L 384.48 -135.258864 
L 385.494545 -135.258864 
L 386.509091 -135.258864 
L 387.523636 -135.258864 
L 388.538182 -135.258864 
L 389.552727 -135.258864 
L 390.567273 -135.258864 
L 391.581818 -135.258864 
L 392.596364 -135.258864 
L 393.610909 -135.258864 
L 394.625455 -135.258864 
L 395.64 -135.258864 
L 396.654545 -135.258864 
L 397.669091 -135.258864 
L 398.683636 -135.258864 
L 399.698182 -135.258864 
L 400.712727 -135.258864 
L 401.727273 -135.258864 
L 402.741818 -135.258864 
L 403.756364 -135.258864 
L 404.770909 -135.258864 
L 405.785455 -135.258864 
L 406.8 -135.258864 
L 407.814545 -135.258864 
L 408.829091 -135.258864 
L 409.843636 -135.258864 
L 410.858182 -135.258864 
L 411.872727 -135.258864 
L 412.887273 -135.258864 
L 413.901818 -135.258864 
L 414.916364 -135.258864 
L 415.930909 -135.258864 
L 416.945455 -135.258864 
L 417.96 -135.258864 
L 418.974545 -135.258864 
L 419.989091 -135.258864 
L 421.003636 -135.258864 
L 422.018182 -135.258864 
L 423.032727 -135.258864 
L 424.047273 -135.258864 
L 425.061818 -135.258864 
L 426.076364 -135.258864 
L 427.090909 -135.258864 
L 428.105455 -135.258864 
L 429.12 -135.258864 
L 430.134545 -135.258864 
L 431.149091 -135.258864 
L 432.163636 -135.258864 
L 433.178182 -135.258864 
L 434.192727 -135.258864 
L 435.207273 -135.258864 
L 436.221818 -135.258864 
L 437.236364 -135.258864 
L 438.250909 -135.258864 
L 439.265455 -135.258864 
L 440.28 -135.258864 
L 441.294545 -135.258864 
L 442.309091 -135.258864 
L 443.323636 -135.258864 
L 444.338182 -135.258864 
L 445.352727 -135.258864 
L 446.367273 -135.258864 
L 447.381818 -135.258864 
L 448.396364 -135.258864 
L 449.410909 -135.258864 
L 450.425455 -135.258864 
L 451.44 -135.258864 
L 452.454545 -135.258864 
L 453.469091 -135.258864 
L 454.483636 -135.258864 
L 455.498182 -135.258864 
L 456.512727 -135.258864 
L 457.527273 -135.258864 
L 458.541818 -135.258864 
L 459.556364 -135.258864 
L 460.570909 -135.258864 
L 461.585455 -135.258864 
L 462.6 -135.258864 
L 463.614545 -135.258864 
L 464.629091 -135.258864 
L 465.643636 -135.258864 
L 466.658182 -135.258864 
L 467.672727 -135.258864 
L 468.687273 -135.258864 
L 469.701818 -135.258864 
L 470.716364 -135.258864 
L 471.730909 -135.258864 
L 472.745455 -135.258864 
L 473.76 -135.258864 
L 474.774545 -135.258864 
L 475.789091 -135.258864 
L 476.803636 -135.258864 
L 477.818182 -135.258864 
L 478.832727 -135.258864 
L 479.847273 -135.258864 
L 480.861818 -135.258864 
L 481.876364 -135.258864 
L 482.890909 -135.258864 
L 483.905455 -135.258864 
L 484.92 -135.258864 
L 485.934545 -135.258864 
L 486.949091 -135.258864 
L 487.963636 -135.258864 
L 488.978182 -135.258864 
L 489.992727 -135.258864 
L 491.007273 -135.258864 
L 492.021818 -135.258864 
L 493.036364 -135.258864 
L 494.050909 -135.258864 
L 495.065455 -135.258864 
L 496.08 -135.258864 
L 497.094545 -135.258864 
L 498.109091 -135.258864 
L 499.123636 -135.258864 
L 500.138182 -135.258864 
L 501.152727 -135.258864 
L 502.167273 -135.258864 
L 503.181818 -135.258864 
L 504.196364 -135.258864 
L 505.210909 -135.258864 
L 506.225455 -135.258864 
L 507.24 -135.258864 
L 508.254545 -135.258864 
L 509.269091 -135.258864 
L 510.283636 -135.258864 
L 511.298182 -135.258864 
L 512.312727 -135.258864 
L 513.327273 -135.258864 
L 514.341818 -135.258864 
L 515.356364 -135.258864 
L 516.370909 -135.258864 
L 517.385455 -135.258864 
L 518.4 -135.258864 
L 518.4 -124.072149 
L 518.4 -124.072149 
L 517.385455 -124.072149 
L 516.370909 -124.072149 
L 515.356364 -124.072149 
L 514.341818 -124.072149 
L 513.327273 -124.072149 
L 512.312727 -124.072149 
L 511.298182 -124.072149 
L 510.283636 -124.072149 
L 509.269091 -124.072149 
L 508.254545 -124.072149 
L 507.24 -124.072149 
L 506.225455 -124.072149 
L 505.210909 -124.072149 
L 504.196364 -124.072149 
L 503.181818 -124.072149 
L 502.167273 -124.072149 
L 501.152727 -124.072149 
L 500.138182 -124.072149 
L 499.123636 -124.072149 
L 498.109091 -124.072149 
L 497.094545 -124.072149 
L 496.08 -124.072149 
L 495.065455 -124.072149 
L 494.050909 -124.072149 
L 493.036364 -124.072149 
L 492.021818 -124.072149 
L 491.007273 -124.072149 
L 489.992727 -124.072149 
L 488.978182 -124.072149 
L 487.963636 -124.072149 
L 486.949091 -124.072149 
L 485.934545 -124.072149 
L 484.92 -124.072149 
L 483.905455 -124.072149 
L 482.890909 -124.072149 
L 481.876364 -124.072149 
L 480.861818 -124.072149 
L 479.847273 -124.072149 
L 478.832727 -124.072149 
L 477.818182 -124.072149 
L 476.803636 -124.072149 
L 475.789091 -124.072149 
L 474.774545 -124.072149 
L 473.76 -124.072149 
L 472.745455 -124.072149 
L 471.730909 -124.072149 
L 470.716364 -124.072149 
L 469.701818 -124.072149 
L 468.687273 -124.072149 
L 467.672727 -124.072149 
L 466.658182 -124.072149 
L 465.643636 -124.072149 
L 464.629091 -124.072149 
L 463.614545 -124.072149 
L 462.6 -124.072149 
L 461.585455 -124.072149 
L 460.570909 -124.072149 
L 459.556364 -124.072149 
L 458.541818 -124.072149 
L 457.527273 -124.072149 
L 456.512727 -124.072149 
L 455.498182 -124.072149 
L 454.483636 -124.072149 
L 453.469091 -124.072149 
L 452.454545 -124.072149 
L 451.44 -124.072149 
L 450.425455 -124.072149 
L 449.410909 -124.072149 
L 448.396364 -124.072149 
L 447.381818 -124.072149 
L 446.367273 -124.072149 
L 445.352727 -124.072149 
L 444.338182 -124.072149 
L 443.323636 -124.072149 
L 442.309091 -124.072149 
L 441.294545 -124.072149 
L 440.28 -124.072149 
L 439.265455 -124.072149 
L 438.250909 -124.072149 
L 437.236364 -124.072149 
L 436.221818 -124.072149 
L 435.207273 -124.072149 
L 434.192727 -124.072149 
L 433.178182 -124.072149 
L 432.163636 -124.072149 
L 431.149091 -124.072149 
L 430.134545 -124.072149 
L 429.12 -124.072149 
L 428.105455 -124.072149 
L 427.090909 -124.072149 
L 426.076364 -124.072149 
L 425.061818 -124.072149 
L 424.047273 -124.072149 
L 423.032727 -124.072149 
L 422.018182 -124.072149 
L 421.003636 -124.072149 
L 419.989091 -124.072149 
L 418.974545 -124.072149 
L 417.96 -124.072149 
L 416.945455 -124.072149 
L 415.930909 -124.072149 
L 414.916364 -124.072149 
L 413.901818 -124.072149 
L 412.887273 -124.072149 
L 411.872727 -124.072149 
L 410.858182 -124.072149 
L 409.843636 -124.072149 
L 408.829091 -124.072149 
L 407.814545 -124.072149 
L 406.8 -124.072149 
L 405.785455 -124.072149 
L 404.770909 -124.072149 
L 403.756364 -124.072149 
L 402.741818 -124.072149 
L 401.727273 -124.072149 
L 400.712727 -124.072149 
L 399.698182 -124.072149 
L 398.683636 -124.072149 
L 397.669091 -124.072149 
L 396.654545 -124.072149 
L 395.64 -124.072149 
L 394.625455 -124.072149 
L 393.610909 -124.072149 
L 392.596364 -124.072149 
L 391.581818 -124.072149 
L 390.567273 -124.072149 
L 389.552727 -124.072149 
L 388.538182 -124.072149 
L 387.523636 -124.072149 
L 386.509091 -124.072149 
L 385.494545 -124.072149 
L 384.48 -124.072149 
L 383.465455 -124.072149 
L 382.450909 -124.072149 
L 381.436364 -124.072149 
L 380.421818 -124.072149 
L 379.407273 -124.072149 
L 378.392727 -124.072149 
L 377.378182 -124.072149 
L 376.363636 -124.072149 
L 375.349091 -124.072149 
L 374.334545 -124.072149 
L 373.32 -124.072149 
L 372.305455 -124.072149 
L 371.290909 -124.072149 
L 370.276364 -124.072149 
L 369.261818 -124.072149 
L 368.247273 -124.072149 
L 367.232727 -124.072149 
L 366.218182 -124.072149 
L 365.203636 -124.072149 
L 364.189091 -124.072149 
L 363.174545 -124.072149 
L 362.16 -124.072149 
L 361.145455 -124.072149 
L 360.130909 -124.072149 
L 359.116364 -124.072149 
L 358.101818 -124.072149 
L 357.087273 -124.072149 
L 356.072727 -124.072149 
L 355.058182 -124.072149 
L 354.043636 -124.072149 
L 353.029091 -124.072149 
L 352.014545 -124.072149 
L 351 -124.072149 
L 349.985455 -124.072149 
L 348.970909 -124.072149 
L 347.956364 -124.072149 
L 346.941818 -124.072149 
L 345.927273 -124.072149 
L 344.912727 -124.072149 
L 343.898182 -124.072149 
L 342.883636 -124.072149 
L 341.869091 -124.072149 
L 340.854545 -124.072149 
L 339.84 -124.072149 
L 338.825455 -124.072149 
L 337.810909 -124.072149 
L 336.796364 -124.072149 
L 335.781818 -124.072149 
L 334.767273 -124.072149 
L 333.752727 -124.072149 
L 332.738182 -124.072149 
L 331.723636 -124.072149 
L 330.709091 -124.072149 
L 329.694545 -124.072149 
L 328.68 -124.072149 
L 327.665455 -124.072149 
L 326.650909 -124.072149 
L 325.636364 -124.072149 
L 324.621818 -124.072149 
L 323.607273 -124.072149 
L 322.592727 -124.072149 
L 321.578182 -124.072149 
L 320.563636 -124.072149 
L 319.549091 -124.072149 
L 318.534545 -124.072149 
L 317.52 -124.072149 
L 316.505455 -124.072149 
L 315.490909 -124.072149 
L 314.476364 -124.072149 
L 313.461818 -124.072149 
L 312.447273 -124.072149 
L 311.432727 -124.072149 
L 310.418182 -124.072149 
L 309.403636 -124.072149 
L 308.389091 -124.072149 
L 307.374545 -124.072149 
L 306.36 -124.072149 
L 305.345455 -124.072149 
L 304.330909 -124.072149 
L 303.316364 -124.072149 
L 302.301818 -124.072149 
L 301.287273 -124.072149 
L 300.272727 -124.072149 
L 299.258182 -124.072149 
L 298.243636 -124.072149 
L 297.229091 -124.072149 
L 296.214545 -124.072149 
L 295.2 -124.072149 
L 294.185455 -124.072149 
L 293.170909 -124.072149 
L 292.156364 -124.072149 
L 291.141818 -124.072149 
L 290.127273 -124.072149 
L 289.112727 -124.072149 
L 288.098182 -124.072149 
L 287.083636 -124.072149 
L 286.069091 -124.072149 
L 285.054545 -124.072149 
L 284.04 -124.072149 
L 283.025455 -124.072149 
L 282.010909 -124.072149 
L 280.996364 -124.072149 
L 279.981818 -124.072149 
L 278.967273 -124.072149 
L 277.952727 -124.072149 
L 276.938182 -124.072149 
L 275.923636 -124.072149 
L 274.909091 -124.072149 
L 273.894545 -124.072149 
L 272.88 -124.072149 
L 271.865455 -124.072149 
L 270.850909 -124.072149 
L 269.836364 -124.072149 
L 268.821818 -124.072149 
L 267.807273 -124.072149 
L 266.792727 -124.072149 
L 265.778182 -124.072149 
L 264.763636 -124.072149 
L 263.749091 -124.072149 
L 262.734545 -124.072149 
L 261.72 -124.072149 
L 260.705455 -124.072149 
L 259.690909 -124.072149 
L 258.676364 -124.072149 
L 257.661818 -124.072149 
L 256.647273 -124.072149 
L 255.632727 -124.072149 
L 254.618182 -124.072149 
L 253.603636 -124.072149 
L 252.589091 -124.072149 
L 251.574545 -124.072149 
L 250.56 -124.072149 
L 249.545455 -124.072149 
L 248.530909 -124.072149 
L 247.516364 -124.072149 
L 246.501818 -124.072149 
L 245.487273 -124.072149 
L 244.472727 -124.072149 
L 243.458182 -124.072149 
L 242.443636 -124.072149 
L 241.429091 -124.072149 
L 240.414545 -124.072149 
L 239.4 -124.072149 
L 238.385455 -124.072149 
L 237.370909 -124.072149 
L 236.356364 -124.072149 
L 235.341818 -124.072149 
L 234.327273 -124.072149 
L 233.312727 -124.072149 
L 232.298182 -124.072149 
L 231.283636 -124.072149 
L 230.269091 -124.072149 
L 229.254545 -124.072149 
L 228.24 -124.072149 
L 227.225455 -124.072149 
L 226.210909 -124.072149 
L 225.196364 -124.072149 
L 224.181818 -124.072149 
L 223.167273 -124.072149 
L 222.152727 -124.072149 
L 221.138182 -124.072149 
L 220.123636 -124.072149 
L 219.109091 -124.072149 
L 218.094545 -124.072149 
L 217.08 -124.072149 
L 216.065455 -124.072149 
L 215.050909 -124.072149 
L 214.036364 -124.072149 
L 213.021818 -124.072149 
L 212.007273 -124.072149 
L 210.992727 -124.072149 
L 209.978182 -124.072149 
L 208.963636 -124.072149 
L 207.949091 -124.072149 
L 206.934545 -124.072149 
L 205.92 -124.072149 
L 204.905455 -124.072149 
L 203.890909 -124.072149 
L 202.876364 -124.072149 
L 201.861818 -124.072149 
L 200.847273 -124.072149 
L 199.832727 -124.072149 
L 198.818182 -124.072149 
L 197.803636 -124.072149 
L 196.789091 -124.072149 
L 195.774545 -124.072149 
L 194.76 -124.072149 
L 193.745455 -124.072149 
L 192.730909 -124.072149 
L 191.716364 -124.072149 
L 190.701818 -124.072149 
L 189.687273 -124.072149 
L 188.672727 -124.072149 
L 187.658182 -124.072149 
L 186.643636 -124.072149 
L 185.629091 -124.072149 
L 184.614545 -124.072149 
L 183.6 -124.072149 
L 182.585455 -124.072149 
L 181.570909 -124.072149 
L 180.556364 -124.072149 
L 179.541818 -124.072149 
L 178.527273 -124.072149 
L 177.512727 -124.072149 
L 176.498182 -124.072149 
L 175.483636 -124.072149 
L 174.469091 -124.072149 
L 173.454545 -124.072149 
L 172.44 -124.072149 
L 171.425455 -124.072149 
L 170.410909 -124.072149 
L 169.396364 -124.072149 
L 168.381818 -124.072149 
L 167.367273 -124.072149 
L 166.352727 -124.072149 
L 165.338182 -124.072149 
L 164.323636 -124.072149 
L 163.309091 -124.072149 
L 162.294545 -124.072149 
L 161.28 -124.072149 
L 160.265455 -124.072149 
L 159.250909 -124.072149 
L 158.236364 -124.072149 
L 157.221818 -124.072149 
L 156.207273 -124.072149 
L 155.192727 -124.072149 
L 154.178182 -124.072149 
L 153.163636 -124.072149 
L 152.149091 -124.072149 
L 151.134545 -124.072149 
L 150.12 -124.072149 
L 149.105455 -124.072149 
L 148.090909 -124.072149 
L 147.076364 -124.072149 
L 146.061818 -124.072149 
L 145.047273 -124.072149 
L 144.032727 -124.072149 
L 143.018182 -124.072149 
L 142.003636 -124.072149 
L 140.989091 -124.072149 
L 139.974545 -124.072149 
L 138.96 -124.072149 
L 137.945455 -124.072149 
L 136.930909 -124.072149 
L 135.916364 -124.072149 
L 134.901818 -124.072149 
L 133.887273 -124.072149 
L 132.872727 -124.072149 
L 131.858182 -124.072149 
L 130.843636 -124.072149 
L 129.829091 -124.072149 
L 128.814545 -124.072149 
L 127.8 -124.072149 
L 126.785455 -124.072149 
L 125.770909 -124.072149 
L 124.756364 -124.072149 
L 123.741818 -124.072149 
L 122.727273 -124.072149 
L 121.712727 -124.072149 
L 120.698182 -124.072149 
L 119.683636 -124.072149 
L 118.669091 -124.072149 
L 117.654545 -124.072149 
L 116.64 -124.072149 
L 115.625455 -124.072149 
L 114.610909 -124.072149 
L 113.596364 -124.072149 
L 112.581818 -124.072149 
L 111.567273 -124.072149 
L 110.552727 -124.072149 
L 109.538182 -124.072149 
L 108.523636 -124.072149 
L 107.509091 -124.072149 
L 106.494545 -124.072149 
L 105.48 -124.072149 
L 104.465455 -124.072149 
L 103.450909 -124.072149 
L 102.436364 -124.072149 
L 101.421818 -124.072149 
L 100.407273 -124.072149 
L 99.392727 -124.072149 
L 98.378182 -124.072149 
L 97.363636 -124.072149 
L 96.349091 -124.072149 
L 95.334545 -124.072149 
L 94.32 -124.072149 
L 93.305455 -124.072149 
L 92.290909 -124.072149 
L 91.276364 -124.072149 
L 90.261818 -124.072149 
L 89.247273 -124.072149 
L 88.232727 -124.072149 
L 87.218182 -124.072149 
L 86.203636 -124.072149 
L 85.189091 -124.072149 
L 84.174545 -124.072149 
L 83.16 -124.072149 
L 82.145455 -124.072149 
L 81.130909 -124.072149 
L 80.116364 -124.072149 
L 79.101818 -124.072149 
L 78.087273 -124.072149 
L 77.072727 -124.072149 
L 76.058182 -124.072149 
L 75.043636 -124.072149 
L 74.029091 -124.072149 
L 73.014545 -124.072149 
L 72 -124.072149 
z
" id="m3bce356f65"/>
    </defs>
    <g clip-path="url(#p4ffda8a4f5)">
     <use style="fill-opacity:0.15;" x="0" xlink:href="#m3bce356f65" y="360"/>
    </g>
   </g>
   <g id="matplotlib.axis_1">
    <g id="xtick_1">
     <g id="line2d_1">
      <defs>
       <path d="M 0 0 
L 0 3.5 
" id="me10393eee7" style="stroke:#000000;stroke-width:0.8;"/>
      </defs>
      <g>
       <use style="stroke:#000000;stroke-width:0.8;" x="72" xlink:href="#me10393eee7" y="320.4"/>
      </g>
     </g>
     <g id="text_1">
      <!-- 0.0 -->
      <g transform="translate(60.867812 338.037813)scale(0.14 -0.14)">
       <defs>
        <path d="M 2034 4250 
Q 1547 4250 1301 3770 
Q 1056 3291 1056 2328 
Q 1056 1369 1301 889 
Q 1547 409 2034 409 
Q 2525 409 2770 889 
Q 3016 1369 3016 2328 
Q 3016 3291 2770 3770 
Q 2525 4250 2034 4250 
z
M 2034 4750 
Q 2819 4750 3233 4129 
Q 3647 3509 3647 2328 
Q 3647 1150 3233 529 
Q 2819 -91 2034 -91 
Q 1250 -91 836 529 
Q 422 1150 422 2328 
Q 422 3509 836 4129 
Q 1250 4750 2034 4750 
z
" id="DejaVuSans-30" transform="scale(0.015625)"/>
        <path d="M 684 794 
L 1344 794 
L 1344 0 
L 684 0 
L 684 794 
z
" id="DejaVuSans-2e" transform="scale(0.015625)"/>
       </defs>
       <use xlink:href="#DejaVuSans-30"/>
       <use x="63.623047" xlink:href="#DejaVuSans-2e"/>
       <use x="95.410156" xlink:href="#DejaVuSans-30"/>
      </g>
     </g>
    </g>
    <g id="xtick_2">
     <g id="line2d_2">
      <g>
       <use style="stroke:#000000;stroke-width:0.8;" x="127.906222" xlink:href="#me10393eee7" y="320.4"/>
      </g>
     </g>
     <g id="text_2">
      <!-- 2.5 -->
      <g transform="translate(116.774034 338.037813)scale(0.14 -0.14)">
       <defs>
        <path d="M 1228 531 
L 3431 531 
L 3431 0 
L 469 0 
L 469 531 
Q 828 903 1448 1529 
Q 2069 2156 2228 2338 
Q 2531 2678 2651 2914 
Q 2772 3150 2772 3378 
Q 2772 3750 2511 3984 
Q 2250 4219 1831 4219 
Q 1534 4219 1204 4116 
Q 875 4013 500 3803 
L 500 4441 
Q 881 4594 1212 4672 
Q 1544 4750 1819 4750 
Q 2544 4750 2975 4387 
Q 3406 4025 3406 3419 
Q 3406 3131 3298 2873 
Q 3191 2616 2906 2266 
Q 2828 2175 2409 1742 
Q 1991 1309 1228 531 
z
" id="DejaVuSans-32" transform="scale(0.015625)"/>
        <path d="M 691 4666 
L 3169 4666 
L 3169 4134 
L 1269 4134 
L 1269 2991 
Q 1406 3038 1543 3061 
Q 1681 3084 1819 3084 
Q 2600 3084 3056 2656 
Q 3513 2228 3513 1497 
Q 3513 744 3044 326 
Q 2575 -91 1722 -91 
Q 1428 -91 1123 -41 
Q 819 9 494 109 
L 494 744 
Q 775 591 1075 516 
Q 1375 441 1709 441 
Q 2250 441 2565 725 
Q 2881 1009 2881 1497 
Q 2881 1984 2565 2268 
Q 2250 2553 1709 2553 
Q 1456 2553 1204 2497 
Q 953 2441 691 2322 
L 691 4666 
z
" id="DejaVuSans-35" transform="scale(0.015625)"/>
       </defs>
       <use xlink:href="#DejaVuSans-32"/>
       <use x="63.623047" xlink:href="#DejaVuSans-2e"/>
       <use x="95.410156" xlink:href="#DejaVuSans-35"/>
      </g>
     </g>
    </g>
    <g id="xtick_3">
     <g id="line2d_3">
      <g>
       <use style="stroke:#000000;stroke-width:0.8;" x="183.812444" xlink:href="#me10393eee7" y="320.4"/>
      </g>
     </g>
     <g id="text_3">
      <!-- 5.0 -->
      <g transform="translate(172.680256 338.037813)scale(0.14 -0.14)">
       <use xlink:href="#DejaVuSans-35"/>
       <use x="63.623047" xlink:href="#DejaVuSans-2e"/>
       <use x="95.410156" xlink:href="#DejaVuSans-30"/>
      </g>
     </g>
    </g>
    <g id="xtick_4">
     <g id="line2d_4">
      <g>
       <use style="stroke:#000000;stroke-width:0.8;" x="239.718665" xlink:href="#me10393eee7" y="320.4"/>
      </g>
     </g>
     <g id="text_4">
      <!-- 7.5 -->
      <g transform="translate(228.586478 338.037813)scale(0.14 -0.14)">
       <defs>
        <path d="M 525 4666 
L 3525 4666 
L 3525 4397 
L 1831 0 
L 1172 0 
L 2766 4134 
L 525 4134 
L 525 4666 
z
" id="DejaVuSans-37" transform="scale(0.015625)"/>
       </defs>
       <use xlink:href="#DejaVuSans-37"/>
       <use x="63.623047" xlink:href="#DejaVuSans-2e"/>
       <use x="95.410156" xlink:href="#DejaVuSans-35"/>
      </g>
     </g>
    </g>
    <g id="xtick_5">
     <g id="line2d_5">
      <g>
       <use style="stroke:#000000;stroke-width:0.8;" x="295.624887" xlink:href="#me10393eee7" y="320.4"/>
      </g>
     </g>
     <g id="text_5">
      <!-- 10.0 -->
      <g transform="translate(280.03895 338.037813)scale(0.14 -0.14)">
       <defs>
        <path d="M 794 531 
L 1825 531 
L 1825 4091 
L 703 3866 
L 703 4441 
L 1819 4666 
L 2450 4666 
L 2450 531 
L 3481 531 
L 3481 0 
L 794 0 
L 794 531 
z
" id="DejaVuSans-31" transform="scale(0.015625)"/>
       </defs>
       <use xlink:href="#DejaVuSans-31"/>
       <use x="63.623047" xlink:href="#DejaVuSans-30"/>
       <use x="127.246094" xlink:href="#DejaVuSans-2e"/>
       <use x="159.033203" xlink:href="#DejaVuSans-30"/>
      </g>
     </g>
    </g>
    <g id="xtick_6">
     <g id="line2d_6">
      <g>
       <use style="stroke:#000000;stroke-width:0.8;" x="351.531109" xlink:href="#me10393eee7" y="320.4"/>
      </g>
     </g>
     <g id="text_6">
      <!-- 12.5 -->
      <g transform="translate(335.945172 338.037813)scale(0.14 -0.14)">
       <use xlink:href="#DejaVuSans-31"/>
       <use x="63.623047" xlink:href="#DejaVuSans-32"/>
       <use x="127.246094" xlink:href="#DejaVuSans-2e"/>
       <use x="159.033203" xlink:href="#DejaVuSans-35"/>
      </g>
     </g>
    </g>
    <g id="xtick_7">
     <g id="line2d_7">
      <g>
       <use style="stroke:#000000;stroke-width:0.8;" x="407.437331" xlink:href="#me10393eee7" y="320.4"/>
      </g>
     </g>
     <g id="text_7">
      <!-- 15.0 -->
      <g transform="translate(391.851393 338.037813)scale(0.14 -0.14)">
       <use xlink:href="#DejaVuSans-31"/>
       <use x="63.623047" xlink:href="#DejaVuSans-35"/>
       <use x="127.246094" xlink:href="#DejaVuSans-2e"/>
       <use x="159.033203" xlink:href="#DejaVuSans-30"/>
      </g>
     </g>
    </g>
    <g id="xtick_8">
     <g id="line2d_8">
      <g>
       <use style="stroke:#000000;stroke-width:0.8;" x="463.343553" xlink:href="#me10393eee7" y="320.4"/>
      </g>
     </g>
     <g id="text_8">
      <!-- 17.5 -->
      <g transform="translate(447.757615 338.037813)scale(0.14 -0.14)">
       <use xlink:href="#DejaVuSans-31"/>
       <use x="63.623047" xlink:href="#DejaVuSans-37"/>
       <use x="127.246094" xlink:href="#DejaVuSans-2e"/>
       <use x="159.033203" xlink:href="#DejaVuSans-35"/>
      </g>
     </g>
    </g>
    <g id="text_9">
     <!-- Time [Seconds] -->
     <g transform="translate(233.23 357.106875)scale(0.16 -0.16)">
      <defs>
       <path d="M -19 4666 
L 3928 4666 
L 3928 4134 
L 2272 4134 
L 2272 0 
L 1638 0 
L 1638 4134 
L -19 4134 
L -19 4666 
z
" id="DejaVuSans-54" transform="scale(0.015625)"/>
       <path d="M 603 3500 
L 1178 3500 
L 1178 0 
L 603 0 
L 603 3500 
z
M 603 4863 
L 1178 4863 
L 1178 4134 
L 603 4134 
L 603 4863 
z
" id="DejaVuSans-69" transform="scale(0.015625)"/>
       <path d="M 3328 2828 
Q 3544 3216 3844 3400 
Q 4144 3584 4550 3584 
Q 5097 3584 5394 3201 
Q 5691 2819 5691 2113 
L 5691 0 
L 5113 0 
L 5113 2094 
Q 5113 2597 4934 2840 
Q 4756 3084 4391 3084 
Q 3944 3084 3684 2787 
Q 3425 2491 3425 1978 
L 3425 0 
L 2847 0 
L 2847 2094 
Q 2847 2600 2669 2842 
Q 2491 3084 2119 3084 
Q 1678 3084 1418 2786 
Q 1159 2488 1159 1978 
L 1159 0 
L 581 0 
L 581 3500 
L 1159 3500 
L 1159 2956 
Q 1356 3278 1631 3431 
Q 1906 3584 2284 3584 
Q 2666 3584 2933 3390 
Q 3200 3197 3328 2828 
z
" id="DejaVuSans-6d" transform="scale(0.015625)"/>
       <path d="M 3597 1894 
L 3597 1613 
L 953 1613 
Q 991 1019 1311 708 
Q 1631 397 2203 397 
Q 2534 397 2845 478 
Q 3156 559 3463 722 
L 3463 178 
Q 3153 47 2828 -22 
Q 2503 -91 2169 -91 
Q 1331 -91 842 396 
Q 353 884 353 1716 
Q 353 2575 817 3079 
Q 1281 3584 2069 3584 
Q 2775 3584 3186 3129 
Q 3597 2675 3597 1894 
z
M 3022 2063 
Q 3016 2534 2758 2815 
Q 2500 3097 2075 3097 
Q 1594 3097 1305 2825 
Q 1016 2553 972 2059 
L 3022 2063 
z
" id="DejaVuSans-65" transform="scale(0.015625)"/>
       <path id="DejaVuSans-20" transform="scale(0.015625)"/>
       <path d="M 550 4863 
L 1875 4863 
L 1875 4416 
L 1125 4416 
L 1125 -397 
L 1875 -397 
L 1875 -844 
L 550 -844 
L 550 4863 
z
" id="DejaVuSans-5b" transform="scale(0.015625)"/>
       <path d="M 3425 4513 
L 3425 3897 
Q 3066 4069 2747 4153 
Q 2428 4238 2131 4238 
Q 1616 4238 1336 4038 
Q 1056 3838 1056 3469 
Q 1056 3159 1242 3001 
Q 1428 2844 1947 2747 
L 2328 2669 
Q 3034 2534 3370 2195 
Q 3706 1856 3706 1288 
Q 3706 609 3251 259 
Q 2797 -91 1919 -91 
Q 1588 -91 1214 -16 
Q 841 59 441 206 
L 441 856 
Q 825 641 1194 531 
Q 1563 422 1919 422 
Q 2459 422 2753 634 
Q 3047 847 3047 1241 
Q 3047 1584 2836 1778 
Q 2625 1972 2144 2069 
L 1759 2144 
Q 1053 2284 737 2584 
Q 422 2884 422 3419 
Q 422 4038 858 4394 
Q 1294 4750 2059 4750 
Q 2388 4750 2728 4690 
Q 3069 4631 3425 4513 
z
" id="DejaVuSans-53" transform="scale(0.015625)"/>
       <path d="M 3122 3366 
L 3122 2828 
Q 2878 2963 2633 3030 
Q 2388 3097 2138 3097 
Q 1578 3097 1268 2742 
Q 959 2388 959 1747 
Q 959 1106 1268 751 
Q 1578 397 2138 397 
Q 2388 397 2633 464 
Q 2878 531 3122 666 
L 3122 134 
Q 2881 22 2623 -34 
Q 2366 -91 2075 -91 
Q 1284 -91 818 406 
Q 353 903 353 1747 
Q 353 2603 823 3093 
Q 1294 3584 2113 3584 
Q 2378 3584 2631 3529 
Q 2884 3475 3122 3366 
z
" id="DejaVuSans-63" transform="scale(0.015625)"/>
       <path d="M 1959 3097 
Q 1497 3097 1228 2736 
Q 959 2375 959 1747 
Q 959 1119 1226 758 
Q 1494 397 1959 397 
Q 2419 397 2687 759 
Q 2956 1122 2956 1747 
Q 2956 2369 2687 2733 
Q 2419 3097 1959 3097 
z
M 1959 3584 
Q 2709 3584 3137 3096 
Q 3566 2609 3566 1747 
Q 3566 888 3137 398 
Q 2709 -91 1959 -91 
Q 1206 -91 779 398 
Q 353 888 353 1747 
Q 353 2609 779 3096 
Q 1206 3584 1959 3584 
z
" id="DejaVuSans-6f" transform="scale(0.015625)"/>
       <path d="M 3513 2113 
L 3513 0 
L 2938 0 
L 2938 2094 
Q 2938 2591 2744 2837 
Q 2550 3084 2163 3084 
Q 1697 3084 1428 2787 
Q 1159 2491 1159 1978 
L 1159 0 
L 581 0 
L 581 3500 
L 1159 3500 
L 1159 2956 
Q 1366 3272 1645 3428 
Q 1925 3584 2291 3584 
Q 2894 3584 3203 3211 
Q 3513 2838 3513 2113 
z
" id="DejaVuSans-6e" transform="scale(0.015625)"/>
       <path d="M 2906 2969 
L 2906 4863 
L 3481 4863 
L 3481 0 
L 2906 0 
L 2906 525 
Q 2725 213 2448 61 
Q 2172 -91 1784 -91 
Q 1150 -91 751 415 
Q 353 922 353 1747 
Q 353 2572 751 3078 
Q 1150 3584 1784 3584 
Q 2172 3584 2448 3432 
Q 2725 3281 2906 2969 
z
M 947 1747 
Q 947 1113 1208 752 
Q 1469 391 1925 391 
Q 2381 391 2643 752 
Q 2906 1113 2906 1747 
Q 2906 2381 2643 2742 
Q 2381 3103 1925 3103 
Q 1469 3103 1208 2742 
Q 947 2381 947 1747 
z
" id="DejaVuSans-64" transform="scale(0.015625)"/>
       <path d="M 2834 3397 
L 2834 2853 
Q 2591 2978 2328 3040 
Q 2066 3103 1784 3103 
Q 1356 3103 1142 2972 
Q 928 2841 928 2578 
Q 928 2378 1081 2264 
Q 1234 2150 1697 2047 
L 1894 2003 
Q 2506 1872 2764 1633 
Q 3022 1394 3022 966 
Q 3022 478 2636 193 
Q 2250 -91 1575 -91 
Q 1294 -91 989 -36 
Q 684 19 347 128 
L 347 722 
Q 666 556 975 473 
Q 1284 391 1588 391 
Q 1994 391 2212 530 
Q 2431 669 2431 922 
Q 2431 1156 2273 1281 
Q 2116 1406 1581 1522 
L 1381 1569 
Q 847 1681 609 1914 
Q 372 2147 372 2553 
Q 372 3047 722 3315 
Q 1072 3584 1716 3584 
Q 2034 3584 2315 3537 
Q 2597 3491 2834 3397 
z
" id="DejaVuSans-73" transform="scale(0.015625)"/>
       <path d="M 1947 4863 
L 1947 -844 
L 622 -844 
L 622 -397 
L 1369 -397 
L 1369 4416 
L 622 4416 
L 622 4863 
L 1947 4863 
z
" id="DejaVuSans-5d" transform="scale(0.015625)"/>
      </defs>
      <use xlink:href="#DejaVuSans-54"/>
      <use x="57.958984" xlink:href="#DejaVuSans-69"/>
      <use x="85.742188" xlink:href="#DejaVuSans-6d"/>
      <use x="183.154297" xlink:href="#DejaVuSans-65"/>
      <use x="244.677734" xlink:href="#DejaVuSans-20"/>
      <use x="276.464844" xlink:href="#DejaVuSans-5b"/>
      <use x="315.478516" xlink:href="#DejaVuSans-53"/>
      <use x="378.955078" xlink:href="#DejaVuSans-65"/>
      <use x="440.478516" xlink:href="#DejaVuSans-63"/>
      <use x="495.458984" xlink:href="#DejaVuSans-6f"/>
      <use x="556.640625" xlink:href="#DejaVuSans-6e"/>
      <use x="620.019531" xlink:href="#DejaVuSans-64"/>
      <use x="683.496094" xlink:href="#DejaVuSans-73"/>
      <use x="735.595703" xlink:href="#DejaVuSans-5d"/>
     </g>
    </g>
   </g>
   <g id="matplotlib.axis_2">
    <g id="ytick_1">
     <g id="line2d_9">
      <defs>
       <path d="M 0 0 
L -3.5 0 
" id="m9261fe57f7" style="stroke:#000000;stroke-width:0.8;"/>
      </defs>
      <g>
       <use style="stroke:#000000;stroke-width:0.8;" x="72" xlink:href="#m9261fe57f7" y="303.232653"/>
      </g>
     </g>
     <g id="text_10">
      <!-- 0.0 -->
      <g transform="translate(42.735625 308.551559)scale(0.14 -0.14)">
       <use xlink:href="#DejaVuSans-30"/>
       <use x="63.623047" xlink:href="#DejaVuSans-2e"/>
       <use x="95.410156" xlink:href="#DejaVuSans-30"/>
      </g>
     </g>
    </g>
    <g id="ytick_2">
     <g id="line2d_10">
      <g>
       <use style="stroke:#000000;stroke-width:0.8;" x="72" xlink:href="#m9261fe57f7" y="272.108021"/>
      </g>
     </g>
     <g id="text_11">
      <!-- 0.2 -->
      <g transform="translate(42.735625 277.426927)scale(0.14 -0.14)">
       <use xlink:href="#DejaVuSans-30"/>
       <use x="63.623047" xlink:href="#DejaVuSans-2e"/>
       <use x="95.410156" xlink:href="#DejaVuSans-32"/>
      </g>
     </g>
    </g>
    <g id="ytick_3">
     <g id="line2d_11">
      <g>
       <use style="stroke:#000000;stroke-width:0.8;" x="72" xlink:href="#m9261fe57f7" y="240.983389"/>
      </g>
     </g>
     <g id="text_12">
      <!-- 0.4 -->
      <g transform="translate(42.735625 246.302296)scale(0.14 -0.14)">
       <defs>
        <path d="M 2419 4116 
L 825 1625 
L 2419 1625 
L 2419 4116 
z
M 2253 4666 
L 3047 4666 
L 3047 1625 
L 3713 1625 
L 3713 1100 
L 3047 1100 
L 3047 0 
L 2419 0 
L 2419 1100 
L 313 1100 
L 313 1709 
L 2253 4666 
z
" id="DejaVuSans-34" transform="scale(0.015625)"/>
       </defs>
       <use xlink:href="#DejaVuSans-30"/>
       <use x="63.623047" xlink:href="#DejaVuSans-2e"/>
       <use x="95.410156" xlink:href="#DejaVuSans-34"/>
      </g>
     </g>
    </g>
    <g id="ytick_4">
     <g id="line2d_12">
      <g>
       <use style="stroke:#000000;stroke-width:0.8;" x="72" xlink:href="#m9261fe57f7" y="209.858758"/>
      </g>
     </g>
     <g id="text_13">
      <!-- 0.6 -->
      <g transform="translate(42.735625 215.177664)scale(0.14 -0.14)">
       <defs>
        <path d="M 2113 2584 
Q 1688 2584 1439 2293 
Q 1191 2003 1191 1497 
Q 1191 994 1439 701 
Q 1688 409 2113 409 
Q 2538 409 2786 701 
Q 3034 994 3034 1497 
Q 3034 2003 2786 2293 
Q 2538 2584 2113 2584 
z
M 3366 4563 
L 3366 3988 
Q 3128 4100 2886 4159 
Q 2644 4219 2406 4219 
Q 1781 4219 1451 3797 
Q 1122 3375 1075 2522 
Q 1259 2794 1537 2939 
Q 1816 3084 2150 3084 
Q 2853 3084 3261 2657 
Q 3669 2231 3669 1497 
Q 3669 778 3244 343 
Q 2819 -91 2113 -91 
Q 1303 -91 875 529 
Q 447 1150 447 2328 
Q 447 3434 972 4092 
Q 1497 4750 2381 4750 
Q 2619 4750 2861 4703 
Q 3103 4656 3366 4563 
z
" id="DejaVuSans-36" transform="scale(0.015625)"/>
       </defs>
       <use xlink:href="#DejaVuSans-30"/>
       <use x="63.623047" xlink:href="#DejaVuSans-2e"/>
       <use x="95.410156" xlink:href="#DejaVuSans-36"/>
      </g>
     </g>
    </g>
    <g id="ytick_5">
     <g id="line2d_13">
      <g>
       <use style="stroke:#000000;stroke-width:0.8;" x="72" xlink:href="#m9261fe57f7" y="178.734126"/>
      </g>
     </g>
     <g id="text_14">
      <!-- 0.8 -->
      <g transform="translate(42.735625 184.053032)scale(0.14 -0.14)">
       <defs>
        <path d="M 2034 2216 
Q 1584 2216 1326 1975 
Q 1069 1734 1069 1313 
Q 1069 891 1326 650 
Q 1584 409 2034 409 
Q 2484 409 2743 651 
Q 3003 894 3003 1313 
Q 3003 1734 2745 1975 
Q 2488 2216 2034 2216 
z
M 1403 2484 
Q 997 2584 770 2862 
Q 544 3141 544 3541 
Q 544 4100 942 4425 
Q 1341 4750 2034 4750 
Q 2731 4750 3128 4425 
Q 3525 4100 3525 3541 
Q 3525 3141 3298 2862 
Q 3072 2584 2669 2484 
Q 3125 2378 3379 2068 
Q 3634 1759 3634 1313 
Q 3634 634 3220 271 
Q 2806 -91 2034 -91 
Q 1263 -91 848 271 
Q 434 634 434 1313 
Q 434 1759 690 2068 
Q 947 2378 1403 2484 
z
M 1172 3481 
Q 1172 3119 1398 2916 
Q 1625 2713 2034 2713 
Q 2441 2713 2670 2916 
Q 2900 3119 2900 3481 
Q 2900 3844 2670 4047 
Q 2441 4250 2034 4250 
Q 1625 4250 1398 4047 
Q 1172 3844 1172 3481 
z
" id="DejaVuSans-38" transform="scale(0.015625)"/>
       </defs>
       <use xlink:href="#DejaVuSans-30"/>
       <use x="63.623047" xlink:href="#DejaVuSans-2e"/>
       <use x="95.410156" xlink:href="#DejaVuSans-38"/>
      </g>
     </g>
    </g>
    <g id="ytick_6">
     <g id="line2d_14">
      <g>
       <use style="stroke:#000000;stroke-width:0.8;" x="72" xlink:href="#m9261fe57f7" y="147.609494"/>
      </g>
     </g>
     <g id="text_15">
      <!-- 1.0 -->
      <g transform="translate(42.735625 152.9284)scale(0.14 -0.14)">
       <use xlink:href="#DejaVuSans-31"/>
       <use x="63.623047" xlink:href="#DejaVuSans-2e"/>
       <use x="95.410156" xlink:href="#DejaVuSans-30"/>
      </g>
     </g>
    </g>
    <g id="ytick_7">
     <g id="line2d_15">
      <g>
       <use style="stroke:#000000;stroke-width:0.8;" x="72" xlink:href="#m9261fe57f7" y="116.484862"/>
      </g>
     </g>
     <g id="text_16">
      <!-- 1.2 -->
      <g transform="translate(42.735625 121.803768)scale(0.14 -0.14)">
       <use xlink:href="#DejaVuSans-31"/>
       <use x="63.623047" xlink:href="#DejaVuSans-2e"/>
       <use x="95.410156" xlink:href="#DejaVuSans-32"/>
      </g>
     </g>
    </g>
    <g id="ytick_8">
     <g id="line2d_16">
      <g>
       <use style="stroke:#000000;stroke-width:0.8;" x="72" xlink:href="#m9261fe57f7" y="85.36023"/>
      </g>
     </g>
     <g id="text_17">
      <!-- 1.4 -->
      <g transform="translate(42.735625 90.679136)scale(0.14 -0.14)">
       <use xlink:href="#DejaVuSans-31"/>
       <use x="63.623047" xlink:href="#DejaVuSans-2e"/>
       <use x="95.410156" xlink:href="#DejaVuSans-34"/>
      </g>
     </g>
    </g>
    <g id="ytick_9">
     <g id="line2d_17">
      <g>
       <use style="stroke:#000000;stroke-width:0.8;" x="72" xlink:href="#m9261fe57f7" y="54.235598"/>
      </g>
     </g>
     <g id="text_18">
      <!-- 1.6 -->
      <g transform="translate(42.735625 59.554505)scale(0.14 -0.14)">
       <use xlink:href="#DejaVuSans-31"/>
       <use x="63.623047" xlink:href="#DejaVuSans-2e"/>
       <use x="95.410156" xlink:href="#DejaVuSans-36"/>
      </g>
     </g>
    </g>
    <g id="text_19">
     <!-- Speed [mm/s] -->
     <g transform="translate(35.408125 238.11375)rotate(-90)scale(0.16 -0.16)">
      <defs>
       <path d="M 1159 525 
L 1159 -1331 
L 581 -1331 
L 581 3500 
L 1159 3500 
L 1159 2969 
Q 1341 3281 1617 3432 
Q 1894 3584 2278 3584 
Q 2916 3584 3314 3078 
Q 3713 2572 3713 1747 
Q 3713 922 3314 415 
Q 2916 -91 2278 -91 
Q 1894 -91 1617 61 
Q 1341 213 1159 525 
z
M 3116 1747 
Q 3116 2381 2855 2742 
Q 2594 3103 2138 3103 
Q 1681 3103 1420 2742 
Q 1159 2381 1159 1747 
Q 1159 1113 1420 752 
Q 1681 391 2138 391 
Q 2594 391 2855 752 
Q 3116 1113 3116 1747 
z
" id="DejaVuSans-70" transform="scale(0.015625)"/>
       <path d="M 1625 4666 
L 2156 4666 
L 531 -594 
L 0 -594 
L 1625 4666 
z
" id="DejaVuSans-2f" transform="scale(0.015625)"/>
      </defs>
      <use xlink:href="#DejaVuSans-53"/>
      <use x="63.476562" xlink:href="#DejaVuSans-70"/>
      <use x="126.953125" xlink:href="#DejaVuSans-65"/>
      <use x="188.476562" xlink:href="#DejaVuSans-65"/>
      <use x="250" xlink:href="#DejaVuSans-64"/>
      <use x="313.476562" xlink:href="#DejaVuSans-20"/>
      <use x="345.263672" xlink:href="#DejaVuSans-5b"/>
      <use x="384.277344" xlink:href="#DejaVuSans-6d"/>
      <use x="481.689453" xlink:href="#DejaVuSans-6d"/>
      <use x="579.101562" xlink:href="#DejaVuSans-2f"/>
      <use x="612.792969" xlink:href="#DejaVuSans-73"/>
      <use x="664.892578" xlink:href="#DejaVuSans-5d"/>
     </g>
    </g>
   </g>
   <g id="line2d_18">
    <path clip-path="url(#p4ffda8a4f5)" d="M 72 230.334494 
L 518.4 230.334494 
" style="fill:none;stroke:#000000;stroke-dasharray:5.55,2.4;stroke-dashoffset:0;stroke-width:1.5;"/>
   </g>
   <g id="line2d_19">
    <path clip-path="url(#p4ffda8a4f5)" d="M 72 299.163483 
L 135.916364 299.142851 
L 136.930909 299.319681 
L 137.945455 297.095491 
L 138.96 296.504404 
L 139.974545 300.015529 
L 140.989091 301.666488 
L 142.003636 300.934594 
L 143.018182 302.105451 
L 144.032727 300.241928 
L 145.047273 300.188806 
L 146.061818 307.8 
L 147.076364 303.206885 
L 148.090909 280.188365 
L 149.105455 247.900241 
L 150.12 210.547714 
L 152.149091 124.039594 
L 153.163636 92.114867 
L 154.178182 68.000252 
L 155.192727 55.8 
L 156.207273 57.551836 
L 157.221818 71.407457 
L 158.236364 93.830456 
L 159.250909 119.705336 
L 161.28 179.497587 
L 162.294545 200.830632 
L 163.309091 210.058466 
L 164.323636 211.294624 
L 166.352727 197.900068 
L 167.367273 203.942938 
L 168.381818 207.477711 
L 169.396364 205.601413 
L 170.410909 210.568218 
L 171.425455 213.046406 
L 172.44 210.972104 
L 173.454545 213.937081 
L 174.469091 215.160928 
L 175.483636 215.122835 
L 176.498182 214.945195 
L 177.512727 216.466733 
L 178.527273 219.770886 
L 179.541818 220.913178 
L 180.556364 223.168027 
L 181.570909 223.838006 
L 182.585455 224.157274 
L 183.6 223.799534 
L 184.614545 222.130429 
L 185.629091 221.638373 
L 186.643636 222.755403 
L 187.658182 220.882202 
L 188.672727 220.368691 
L 189.687273 220.99758 
L 190.701818 220.80282 
L 191.716364 224.993191 
L 192.730909 225.229724 
L 193.745455 222.396381 
L 196.789091 231.29055 
L 197.803636 229.961774 
L 198.818182 228.327797 
L 199.832727 228.441501 
L 200.847273 229.717474 
L 201.861818 233.360003 
L 202.876364 234.921652 
L 203.890909 235.527838 
L 204.905455 233.368335 
L 205.92 228.804805 
L 206.934545 227.983109 
L 207.949091 230.630895 
L 208.963636 229.263959 
L 210.992727 225.783995 
L 212.007273 228.114959 
L 213.021818 233.124984 
L 214.036364 231.379484 
L 215.050909 229.004666 
L 216.065455 230.986327 
L 217.08 234.448473 
L 218.094545 233.911709 
L 219.109091 234.091794 
L 220.123636 233.590192 
L 221.138182 229.257889 
L 222.152727 228.144814 
L 223.167273 229.180186 
L 224.181818 231.795226 
L 225.196364 232.810089 
L 226.210909 231.029266 
L 227.225455 226.248149 
L 228.24 227.820741 
L 229.254545 234.14415 
L 230.269091 233.729539 
L 231.283636 232.600072 
L 232.298182 231.095784 
L 233.312727 230.572951 
L 234.327273 228.82241 
L 235.341818 224.444819 
L 236.356364 226.276088 
L 237.370909 226.874173 
L 238.385455 226.879676 
L 239.4 227.814889 
L 240.414545 229.824325 
L 241.429091 234.177374 
L 242.443636 233.379567 
L 243.458182 233.262232 
L 244.472727 236.310846 
L 245.487273 238.472318 
L 246.501818 237.508383 
L 247.516364 234.673188 
L 248.530909 229.468876 
L 249.545455 227.581997 
L 250.56 226.758852 
L 251.574545 221.861606 
L 252.589091 222.707804 
L 253.603636 227.527649 
L 254.618182 229.194217 
L 255.632727 230.447725 
L 256.647273 230.632167 
L 257.661818 230.484382 
L 258.676364 228.992759 
L 259.690909 231.494126 
L 260.705455 235.900298 
L 261.72 235.672811 
L 262.734545 237.427619 
L 263.749091 234.209879 
L 264.763636 229.860594 
L 265.778182 229.606111 
L 266.792727 229.136606 
L 267.807273 228.52054 
L 268.821818 230.228456 
L 269.836364 233.146713 
L 270.850909 234.102996 
L 271.865455 234.557199 
L 272.88 232.027605 
L 273.894545 231.59663 
L 274.909091 233.834689 
L 275.923636 233.304528 
L 276.938182 236.253207 
L 277.952727 237.392247 
L 279.981818 229.875722 
L 280.996364 226.891735 
L 282.010909 228.295771 
L 283.025455 231.401419 
L 284.04 233.650371 
L 285.054545 233.769832 
L 286.069091 232.144495 
L 287.083636 230.00175 
L 289.112727 227.441043 
L 290.127273 229.183842 
L 291.141818 228.5911 
L 292.156364 225.670788 
L 293.170909 227.578671 
L 294.185455 227.635267 
L 295.2 227.325705 
L 296.214545 230.839187 
L 297.229091 231.842756 
L 298.243636 233.268517 
L 299.258182 236.021329 
L 300.272727 237.823865 
L 301.287273 239.030303 
L 302.301818 232.839289 
L 303.316364 232.629015 
L 304.330909 234.233074 
L 305.345455 232.050577 
L 306.36 231.969442 
L 307.374545 230.28283 
L 308.389091 228.259682 
L 309.403636 229.459491 
L 310.418182 231.596164 
L 311.432727 231.882442 
L 312.447273 230.888874 
L 314.476364 235.879929 
L 315.490909 230.859197 
L 316.505455 230.959675 
L 317.52 233.535039 
L 318.534545 232.62076 
L 319.549091 229.124747 
L 320.563636 228.702883 
L 321.578182 232.3224 
L 322.592727 231.763593 
L 323.607273 230.773492 
L 324.621818 233.80575 
L 325.636364 231.230342 
L 326.650909 231.300212 
L 327.665455 231.757428 
L 328.68 229.608543 
L 329.694545 232.246623 
L 330.709091 232.923301 
L 331.723636 230.781456 
L 332.738182 228.141893 
L 334.767273 232.743424 
L 335.781818 231.192122 
L 336.796364 228.926062 
L 337.810909 232.236152 
L 338.825455 233.493008 
L 339.84 231.399645 
L 340.854545 228.706861 
L 341.869091 228.88065 
L 342.883636 230.285242 
L 343.898182 229.191363 
L 344.912727 232.64299 
L 345.927273 234.303507 
L 346.941818 232.326319 
L 347.956364 233.963507 
L 348.970909 233.675245 
L 349.985455 235.68894 
L 351 239.864373 
L 352.014545 235.066023 
L 353.029091 231.659554 
L 355.058182 234.412603 
L 357.087273 229.171251 
L 358.101818 227.753761 
L 359.116364 227.519608 
L 360.130909 228.278227 
L 361.145455 226.321375 
L 362.16 225.519796 
L 363.174545 228.017032 
L 364.189091 228.963913 
L 365.203636 231.019182 
L 366.218182 235.603781 
L 367.232727 236.862696 
L 368.247273 237.518153 
L 369.261818 234.089732 
L 370.276364 233.49717 
L 371.290909 237.065375 
L 372.305455 234.839755 
L 373.32 229.641311 
L 374.334545 227.766468 
L 375.349091 227.722976 
L 376.363636 228.6101 
L 378.392727 234.76512 
L 379.407273 233.206687 
L 380.421818 232.389631 
L 381.436364 232.914511 
L 382.450909 231.578473 
L 383.465455 231.411342 
L 384.48 231.436925 
L 385.494545 228.095788 
L 386.509091 229.181026 
L 387.523636 234.143854 
L 388.538182 235.097138 
L 389.552727 235.713154 
L 390.567273 233.041891 
L 391.581818 233.447688 
L 392.596364 234.910249 
L 393.610909 231.112728 
L 394.625455 226.59549 
L 395.64 224.620671 
L 396.654545 223.870178 
L 397.669091 224.802932 
L 398.683636 227.161807 
L 399.698182 230.395412 
L 400.712727 234.417172 
L 401.727273 236.672072 
L 403.756364 238.770075 
L 404.770909 238.047268 
L 405.785455 234.181497 
L 406.8 228.867568 
L 407.814545 226.662568 
L 408.829091 227.219092 
L 409.843636 227.121642 
L 410.858182 227.56805 
L 411.872727 228.48191 
L 412.887273 233.480123 
L 413.901818 237.847085 
L 414.916364 235.757327 
L 415.930909 234.38685 
L 416.945455 239.215126 
L 417.96 238.340056 
L 418.974545 233.651608 
L 419.989091 231.984131 
L 422.018182 226.538831 
L 423.032727 225.816582 
L 424.047273 227.080765 
L 425.061818 229.620629 
L 426.076364 231.131794 
L 427.090909 230.308574 
L 428.105455 230.942536 
L 429.12 230.640693 
L 430.134545 230.061212 
L 431.149091 230.61399 
L 432.163636 229.602691 
L 433.178182 230.287126 
L 434.192727 232.620066 
L 435.207273 229.62772 
L 436.221818 226.282273 
L 437.236364 230.135693 
L 438.250909 235.090251 
L 439.265455 231.810733 
L 440.28 231.766653 
L 441.294545 237.154532 
L 442.309091 235.131179 
L 443.323636 232.50809 
L 444.338182 231.542872 
L 445.352727 232.52681 
L 446.367273 236.038307 
L 447.381818 236.208635 
L 448.396364 232.582505 
L 449.410909 233.369522 
L 450.425455 233.233594 
L 451.44 231.030115 
L 452.454545 229.875202 
L 453.469091 231.247613 
L 454.483636 235.569077 
L 455.498182 232.128133 
L 456.512727 229.547599 
L 457.527273 230.99561 
L 458.541818 231.572349 
L 459.556364 232.753364 
L 460.570909 231.631125 
L 461.585455 232.996066 
L 462.6 235.214233 
L 463.614545 232.358814 
L 465.643636 224.445564 
L 467.672727 231.054707 
L 468.687273 229.909989 
L 469.701818 230.982031 
L 470.716364 233.14377 
L 471.730909 232.882748 
L 472.745455 230.877314 
L 473.76 229.568844 
L 474.774545 232.95408 
L 475.789091 234.300611 
L 476.803636 231.097482 
L 477.818182 234.825017 
L 478.832727 235.643552 
L 479.847273 233.497301 
L 480.861818 233.262575 
L 481.876364 229.755553 
L 483.905455 232.117738 
L 484.92 229.980778 
L 485.934545 229.315213 
L 486.949091 228.803491 
L 487.963636 231.135459 
L 488.978182 229.847886 
L 489.992727 229.220558 
L 491.007273 233.384627 
L 492.021818 233.662393 
L 494.050909 228.511786 
L 495.065455 228.614425 
L 496.08 230.087813 
L 497.094545 228.352956 
L 498.109091 227.31884 
L 499.123636 230.480777 
L 500.138182 236.149222 
L 501.152727 239.940537 
L 502.167273 238.826343 
L 503.181818 235.344412 
L 504.196364 234.230471 
L 505.210909 232.675259 
L 506.225455 232.787519 
L 507.24 234.215321 
L 508.254545 233.435313 
L 511.298182 228.033197 
L 512.312727 226.736657 
L 513.327273 226.266255 
L 514.341818 227.058808 
L 515.356364 229.612728 
L 516.370909 234.488014 
L 517.385455 242.306259 
L 518.4 253.750644 
L 518.4 253.750644 
" style="fill:none;stroke:#ff0000;stroke-linecap:square;stroke-width:2;"/>
   </g>
   <g id="patch_3">
    <path d="M 72 320.4 
L 72 43.2 
" style="fill:none;stroke:#000000;stroke-linecap:square;stroke-linejoin:miter;stroke-width:0.8;"/>
   </g>
   <g id="patch_4">
    <path d="M 518.4 320.4 
L 518.4 43.2 
" style="fill:none;stroke:#000000;stroke-linecap:square;stroke-linejoin:miter;stroke-width:0.8;"/>
   </g>
   <g id="patch_5">
    <path d="M 72 320.4 
L 518.4 320.4 
" style="fill:none;stroke:#000000;stroke-linecap:square;stroke-linejoin:miter;stroke-width:0.8;"/>
   </g>
   <g id="patch_6">
    <path d="M 72 43.2 
L 518.4 43.2 
" style="fill:none;stroke:#000000;stroke-linecap:square;stroke-linejoin:miter;stroke-width:0.8;"/>
   </g>
   <g id="text_20">
    <!-- Front Propogation Speed -->
    <g transform="translate(172.245312 37.2)scale(0.2 -0.2)">
     <defs>
      <path d="M 628 4666 
L 3309 4666 
L 3309 4134 
L 1259 4134 
L 1259 2759 
L 3109 2759 
L 3109 2228 
L 1259 2228 
L 1259 0 
L 628 0 
L 628 4666 
z
" id="DejaVuSans-46" transform="scale(0.015625)"/>
      <path d="M 2631 2963 
Q 2534 3019 2420 3045 
Q 2306 3072 2169 3072 
Q 1681 3072 1420 2755 
Q 1159 2438 1159 1844 
L 1159 0 
L 581 0 
L 581 3500 
L 1159 3500 
L 1159 2956 
Q 1341 3275 1631 3429 
Q 1922 3584 2338 3584 
Q 2397 3584 2469 3576 
Q 2541 3569 2628 3553 
L 2631 2963 
z
" id="DejaVuSans-72" transform="scale(0.015625)"/>
      <path d="M 1172 4494 
L 1172 3500 
L 2356 3500 
L 2356 3053 
L 1172 3053 
L 1172 1153 
Q 1172 725 1289 603 
Q 1406 481 1766 481 
L 2356 481 
L 2356 0 
L 1766 0 
Q 1100 0 847 248 
Q 594 497 594 1153 
L 594 3053 
L 172 3053 
L 172 3500 
L 594 3500 
L 594 4494 
L 1172 4494 
z
" id="DejaVuSans-74" transform="scale(0.015625)"/>
      <path d="M 1259 4147 
L 1259 2394 
L 2053 2394 
Q 2494 2394 2734 2622 
Q 2975 2850 2975 3272 
Q 2975 3691 2734 3919 
Q 2494 4147 2053 4147 
L 1259 4147 
z
M 628 4666 
L 2053 4666 
Q 2838 4666 3239 4311 
Q 3641 3956 3641 3272 
Q 3641 2581 3239 2228 
Q 2838 1875 2053 1875 
L 1259 1875 
L 1259 0 
L 628 0 
L 628 4666 
z
" id="DejaVuSans-50" transform="scale(0.015625)"/>
      <path d="M 2906 1791 
Q 2906 2416 2648 2759 
Q 2391 3103 1925 3103 
Q 1463 3103 1205 2759 
Q 947 2416 947 1791 
Q 947 1169 1205 825 
Q 1463 481 1925 481 
Q 2391 481 2648 825 
Q 2906 1169 2906 1791 
z
M 3481 434 
Q 3481 -459 3084 -895 
Q 2688 -1331 1869 -1331 
Q 1566 -1331 1297 -1286 
Q 1028 -1241 775 -1147 
L 775 -588 
Q 1028 -725 1275 -790 
Q 1522 -856 1778 -856 
Q 2344 -856 2625 -561 
Q 2906 -266 2906 331 
L 2906 616 
Q 2728 306 2450 153 
Q 2172 0 1784 0 
Q 1141 0 747 490 
Q 353 981 353 1791 
Q 353 2603 747 3093 
Q 1141 3584 1784 3584 
Q 2172 3584 2450 3431 
Q 2728 3278 2906 2969 
L 2906 3500 
L 3481 3500 
L 3481 434 
z
" id="DejaVuSans-67" transform="scale(0.015625)"/>
      <path d="M 2194 1759 
Q 1497 1759 1228 1600 
Q 959 1441 959 1056 
Q 959 750 1161 570 
Q 1363 391 1709 391 
Q 2188 391 2477 730 
Q 2766 1069 2766 1631 
L 2766 1759 
L 2194 1759 
z
M 3341 1997 
L 3341 0 
L 2766 0 
L 2766 531 
Q 2569 213 2275 61 
Q 1981 -91 1556 -91 
Q 1019 -91 701 211 
Q 384 513 384 1019 
Q 384 1609 779 1909 
Q 1175 2209 1959 2209 
L 2766 2209 
L 2766 2266 
Q 2766 2663 2505 2880 
Q 2244 3097 1772 3097 
Q 1472 3097 1187 3025 
Q 903 2953 641 2809 
L 641 3341 
Q 956 3463 1253 3523 
Q 1550 3584 1831 3584 
Q 2591 3584 2966 3190 
Q 3341 2797 3341 1997 
z
" id="DejaVuSans-61" transform="scale(0.015625)"/>
     </defs>
     <use xlink:href="#DejaVuSans-46"/>
     <use x="50.269531" xlink:href="#DejaVuSans-72"/>
     <use x="89.132812" xlink:href="#DejaVuSans-6f"/>
     <use x="150.314453" xlink:href="#DejaVuSans-6e"/>
     <use x="213.693359" xlink:href="#DejaVuSans-74"/>
     <use x="252.902344" xlink:href="#DejaVuSans-20"/>
     <use x="284.689453" xlink:href="#DejaVuSans-50"/>
     <use x="343.242188" xlink:href="#DejaVuSans-72"/>
     <use x="382.105469" xlink:href="#DejaVuSans-6f"/>
     <use x="443.287109" xlink:href="#DejaVuSans-70"/>
     <use x="506.763672" xlink:href="#DejaVuSans-6f"/>
     <use x="567.945312" xlink:href="#DejaVuSans-67"/>
     <use x="631.421875" xlink:href="#DejaVuSans-61"/>
     <use x="692.701172" xlink:href="#DejaVuSans-74"/>
     <use x="731.910156" xlink:href="#DejaVuSans-69"/>
     <use x="759.693359" xlink:href="#DejaVuSans-6f"/>
     <use x="820.875" xlink:href="#DejaVuSans-6e"/>
     <use x="884.253906" xlink:href="#DejaVuSans-20"/>
     <use x="916.041016" xlink:href="#DejaVuSans-53"/>
     <use x="979.517578" xlink:href="#DejaVuSans-70"/>
     <use x="1042.994141" xlink:href="#DejaVuSans-65"/>
     <use x="1104.517578" xlink:href="#DejaVuSans-65"/>
     <use x="1166.041016" xlink:href="#DejaVuSans-64"/>
    </g>
   </g>
   <g id="legend_1">
    <g id="patch_7">
     <path d="M 325.967812 111.175687 
L 508.6 111.175687 
Q 511.4 111.175687 511.4 108.375687 
L 511.4 53 
Q 511.4 50.2 508.6 50.2 
L 325.967812 50.2 
Q 323.167812 50.2 323.167812 53 
L 323.167812 108.375687 
Q 323.167812 111.175687 325.967812 111.175687 
z
" style="fill:#ffffff;opacity:0.8;stroke:#cccccc;stroke-linejoin:miter;"/>
    </g>
    <g id="line2d_20">
     <path d="M 328.767812 61.537812 
L 356.767812 61.537812 
" style="fill:none;stroke:#ff0000;stroke-linecap:square;stroke-width:2;"/>
    </g>
    <g id="line2d_21"/>
    <g id="text_21">
     <!-- Front speed -->
     <g transform="translate(367.967812 66.437812)scale(0.14 -0.14)">
      <use xlink:href="#DejaVuSans-46"/>
      <use x="50.269531" xlink:href="#DejaVuSans-72"/>
      <use x="89.132812" xlink:href="#DejaVuSans-6f"/>
      <use x="150.314453" xlink:href="#DejaVuSans-6e"/>
      <use x="213.693359" xlink:href="#DejaVuSans-74"/>
      <use x="252.902344" xlink:href="#DejaVuSans-20"/>
      <use x="284.689453" xlink:href="#DejaVuSans-73"/>
      <use x="336.789062" xlink:href="#DejaVuSans-70"/>
      <use x="400.265625" xlink:href="#DejaVuSans-65"/>
      <use x="461.789062" xlink:href="#DejaVuSans-65"/>
      <use x="523.3125" xlink:href="#DejaVuSans-64"/>
     </g>
    </g>
    <g id="line2d_22">
     <path d="M 328.767812 91.381437 
L 356.767812 91.381437 
" style="fill:none;stroke:#000000;stroke-dasharray:5.55,2.4;stroke-dashoffset:0;stroke-width:1.5;"/>
    </g>
    <g id="line2d_23"/>
    <g id="text_22">
     <!-- Steady state -->
     <g transform="translate(367.967812 86.987187)scale(0.14 -0.14)">
      <defs>
       <path d="M 2059 -325 
Q 1816 -950 1584 -1140 
Q 1353 -1331 966 -1331 
L 506 -1331 
L 506 -850 
L 844 -850 
Q 1081 -850 1212 -737 
Q 1344 -625 1503 -206 
L 1606 56 
L 191 3500 
L 800 3500 
L 1894 763 
L 2988 3500 
L 3597 3500 
L 2059 -325 
z
" id="DejaVuSans-79" transform="scale(0.015625)"/>
      </defs>
      <use xlink:href="#DejaVuSans-53"/>
      <use x="63.476562" xlink:href="#DejaVuSans-74"/>
      <use x="102.685547" xlink:href="#DejaVuSans-65"/>
      <use x="164.208984" xlink:href="#DejaVuSans-61"/>
      <use x="225.488281" xlink:href="#DejaVuSans-64"/>
      <use x="288.964844" xlink:href="#DejaVuSans-79"/>
      <use x="348.144531" xlink:href="#DejaVuSans-20"/>
      <use x="379.931641" xlink:href="#DejaVuSans-73"/>
      <use x="432.03125" xlink:href="#DejaVuSans-74"/>
      <use x="471.240234" xlink:href="#DejaVuSans-61"/>
      <use x="532.519531" xlink:href="#DejaVuSans-74"/>
      <use x="571.728516" xlink:href="#DejaVuSans-65"/>
     </g>
     <!-- speed = 0.47 mm/s -->
     <g transform="translate(367.967812 102.664125)scale(0.14 -0.14)">
      <defs>
       <path d="M 678 2906 
L 4684 2906 
L 4684 2381 
L 678 2381 
L 678 2906 
z
M 678 1631 
L 4684 1631 
L 4684 1100 
L 678 1100 
L 678 1631 
z
" id="DejaVuSans-3d" transform="scale(0.015625)"/>
      </defs>
      <use xlink:href="#DejaVuSans-73"/>
      <use x="52.099609" xlink:href="#DejaVuSans-70"/>
      <use x="115.576172" xlink:href="#DejaVuSans-65"/>
      <use x="177.099609" xlink:href="#DejaVuSans-65"/>
      <use x="238.623047" xlink:href="#DejaVuSans-64"/>
      <use x="302.099609" xlink:href="#DejaVuSans-20"/>
      <use x="333.886719" xlink:href="#DejaVuSans-3d"/>
      <use x="417.675781" xlink:href="#DejaVuSans-20"/>
      <use x="449.462891" xlink:href="#DejaVuSans-30"/>
      <use x="513.085938" xlink:href="#DejaVuSans-2e"/>
      <use x="544.873047" xlink:href="#DejaVuSans-34"/>
      <use x="608.496094" xlink:href="#DejaVuSans-37"/>
      <use x="672.119141" xlink:href="#DejaVuSans-20"/>
      <use x="703.90625" xlink:href="#DejaVuSans-6d"/>
      <use x="801.318359" xlink:href="#DejaVuSans-6d"/>
      <use x="898.730469" xlink:href="#DejaVuSans-2f"/>
      <use x="932.421875" xlink:href="#DejaVuSans-73"/>
     </g>
    </g>
   </g>
  </g>
 </g>
 <defs>
  <clipPath id="p4ffda8a4f5">
   <rect height="277.2" width="446.4" x="72" y="43.2"/>
  </clipPath>
 </defs>
</svg>
