<?xml version="1.0" encoding="utf-8" standalone="no"?>
<!DOCTYPE svg PUBLIC "-//W3C//DTD SVG 1.1//EN"
  "http://www.w3.org/Graphics/SVG/1.1/DTD/svg11.dtd">
<svg height="360pt" version="1.1" viewBox="0 0 576 360" width="576pt" xmlns="http://www.w3.org/2000/svg" xmlns:xlink="http://www.w3.org/1999/xlink">
 <metadata>
  <rdf:RDF xmlns:cc="http://creativecommons.org/ns#" xmlns:dc="http://purl.org/dc/elements/1.1/" xmlns:rdf="http://www.w3.org/1999/02/22-rdf-syntax-ns#">
   <cc:Work>
    <dc:type rdf:resource="http://purl.org/dc/dcmitype/StillImage"/>
    <dc:date>2022-06-30T14:37:22.451750</dc:date>
    <dc:format>image/svg+xml</dc:format>
    <dc:creator>
     <cc:Agent>
      <dc:title>Matplotlib v3.4.3, https://matplotlib.org/</dc:title>
     </cc:Agent>
    </dc:creator>
   </cc:Work>
  </rdf:RDF>
 </metadata>
 <defs>
  <style type="text/css">*{stroke-linecap:butt;stroke-linejoin:round;}</style>
 </defs>
 <g id="figure_1">
  <g id="patch_1">
   <path d="M 0 360 
L 576 360 
L 576 0 
L 0 0 
z
" style="fill:#ffffff;"/>
  </g>
  <g id="axes_1">
   <g id="patch_2">
    <path d="M 72 320.4 
L 518.4 320.4 
L 518.4 43.2 
L 72 43.2 
z
" style="fill:#ffffff;"/>
   </g>
   <g id="PolyCollection_1">
    <defs>
     <path d="M 72 -115.850247 
L 72 -126.425302 
L 73.153488 -126.425302 
L 74.306977 -126.425302 
L 75.460465 -126.425302 
L 76.613953 -126.425302 
L 77.767442 -126.425302 
L 78.92093 -126.425302 
L 80.074419 -126.425302 
L 81.227907 -126.425302 
L 82.381395 -126.425302 
L 83.534884 -126.425302 
L 84.688372 -126.425302 
L 85.84186 -126.425302 
L 86.995349 -126.425302 
L 88.148837 -126.425302 
L 89.302326 -126.425302 
L 90.455814 -126.425302 
L 91.609302 -126.425302 
L 92.762791 -126.425302 
L 93.916279 -126.425302 
L 95.069767 -126.425302 
L 96.223256 -126.425302 
L 97.376744 -126.425302 
L 98.530233 -126.425302 
L 99.683721 -126.425302 
L 100.837209 -126.425302 
L 101.990698 -126.425302 
L 103.144186 -126.425302 
L 104.297674 -126.425302 
L 105.451163 -126.425302 
L 106.604651 -126.425302 
L 107.75814 -126.425302 
L 108.911628 -126.425302 
L 110.065116 -126.425302 
L 111.218605 -126.425302 
L 112.372093 -126.425302 
L 113.525581 -126.425302 
L 114.67907 -126.425302 
L 115.832558 -126.425302 
L 116.986047 -126.425302 
L 118.139535 -126.425302 
L 119.293023 -126.425302 
L 120.446512 -126.425302 
L 121.6 -126.425302 
L 122.753488 -126.425302 
L 123.906977 -126.425302 
L 125.060465 -126.425302 
L 126.213953 -126.425302 
L 127.367442 -126.425302 
L 128.52093 -126.425302 
L 129.674419 -126.425302 
L 130.827907 -126.425302 
L 131.981395 -126.425302 
L 133.134884 -126.425302 
L 134.288372 -126.425302 
L 135.44186 -126.425302 
L 136.595349 -126.425302 
L 137.748837 -126.425302 
L 138.902326 -126.425302 
L 140.055814 -126.425302 
L 141.209302 -126.425302 
L 142.362791 -126.425302 
L 143.516279 -126.425302 
L 144.669767 -126.425302 
L 145.823256 -126.425302 
L 146.976744 -126.425302 
L 148.130233 -126.425302 
L 149.283721 -126.425302 
L 150.437209 -126.425302 
L 151.590698 -126.425302 
L 152.744186 -126.425302 
L 153.897674 -126.425302 
L 155.051163 -126.425302 
L 156.204651 -126.425302 
L 157.35814 -126.425302 
L 158.511628 -126.425302 
L 159.665116 -126.425302 
L 160.818605 -126.425302 
L 161.972093 -126.425302 
L 163.125581 -126.425302 
L 164.27907 -126.425302 
L 165.432558 -126.425302 
L 166.586047 -126.425302 
L 167.739535 -126.425302 
L 168.893023 -126.425302 
L 170.046512 -126.425302 
L 171.2 -126.425302 
L 172.353488 -126.425302 
L 173.506977 -126.425302 
L 174.660465 -126.425302 
L 175.813953 -126.425302 
L 176.967442 -126.425302 
L 178.12093 -126.425302 
L 179.274419 -126.425302 
L 180.427907 -126.425302 
L 181.581395 -126.425302 
L 182.734884 -126.425302 
L 183.888372 -126.425302 
L 185.04186 -126.425302 
L 186.195349 -126.425302 
L 187.348837 -126.425302 
L 188.502326 -126.425302 
L 189.655814 -126.425302 
L 190.809302 -126.425302 
L 191.962791 -126.425302 
L 193.116279 -126.425302 
L 194.269767 -126.425302 
L 195.423256 -126.425302 
L 196.576744 -126.425302 
L 197.730233 -126.425302 
L 198.883721 -126.425302 
L 200.037209 -126.425302 
L 201.190698 -126.425302 
L 202.344186 -126.425302 
L 203.497674 -126.425302 
L 204.651163 -126.425302 
L 205.804651 -126.425302 
L 206.95814 -126.425302 
L 208.111628 -126.425302 
L 209.265116 -126.425302 
L 210.418605 -126.425302 
L 211.572093 -126.425302 
L 212.725581 -126.425302 
L 213.87907 -126.425302 
L 215.032558 -126.425302 
L 216.186047 -126.425302 
L 217.339535 -126.425302 
L 218.493023 -126.425302 
L 219.646512 -126.425302 
L 220.8 -126.425302 
L 221.953488 -126.425302 
L 223.106977 -126.425302 
L 224.260465 -126.425302 
L 225.413953 -126.425302 
L 226.567442 -126.425302 
L 227.72093 -126.425302 
L 228.874419 -126.425302 
L 230.027907 -126.425302 
L 231.181395 -126.425302 
L 232.334884 -126.425302 
L 233.488372 -126.425302 
L 234.64186 -126.425302 
L 235.795349 -126.425302 
L 236.948837 -126.425302 
L 238.102326 -126.425302 
L 239.255814 -126.425302 
L 240.409302 -126.425302 
L 241.562791 -126.425302 
L 242.716279 -126.425302 
L 243.869767 -126.425302 
L 245.023256 -126.425302 
L 246.176744 -126.425302 
L 247.330233 -126.425302 
L 248.483721 -126.425302 
L 249.637209 -126.425302 
L 250.790698 -126.425302 
L 251.944186 -126.425302 
L 253.097674 -126.425302 
L 254.251163 -126.425302 
L 255.404651 -126.425302 
L 256.55814 -126.425302 
L 257.711628 -126.425302 
L 258.865116 -126.425302 
L 260.018605 -126.425302 
L 261.172093 -126.425302 
L 262.325581 -126.425302 
L 263.47907 -126.425302 
L 264.632558 -126.425302 
L 265.786047 -126.425302 
L 266.939535 -126.425302 
L 268.093023 -126.425302 
L 269.246512 -126.425302 
L 270.4 -126.425302 
L 271.553488 -126.425302 
L 272.706977 -126.425302 
L 273.860465 -126.425302 
L 275.013953 -126.425302 
L 276.167442 -126.425302 
L 277.32093 -126.425302 
L 278.474419 -126.425302 
L 279.627907 -126.425302 
L 280.781395 -126.425302 
L 281.934884 -126.425302 
L 283.088372 -126.425302 
L 284.24186 -126.425302 
L 285.395349 -126.425302 
L 286.548837 -126.425302 
L 287.702326 -126.425302 
L 288.855814 -126.425302 
L 290.009302 -126.425302 
L 291.162791 -126.425302 
L 292.316279 -126.425302 
L 293.469767 -126.425302 
L 294.623256 -126.425302 
L 295.776744 -126.425302 
L 296.930233 -126.425302 
L 298.083721 -126.425302 
L 299.237209 -126.425302 
L 300.390698 -126.425302 
L 301.544186 -126.425302 
L 302.697674 -126.425302 
L 303.851163 -126.425302 
L 305.004651 -126.425302 
L 306.15814 -126.425302 
L 307.311628 -126.425302 
L 308.465116 -126.425302 
L 309.618605 -126.425302 
L 310.772093 -126.425302 
L 311.925581 -126.425302 
L 313.07907 -126.425302 
L 314.232558 -126.425302 
L 315.386047 -126.425302 
L 316.539535 -126.425302 
L 317.693023 -126.425302 
L 318.846512 -126.425302 
L 320 -126.425302 
L 321.153488 -126.425302 
L 322.306977 -126.425302 
L 323.460465 -126.425302 
L 324.613953 -126.425302 
L 325.767442 -126.425302 
L 326.92093 -126.425302 
L 328.074419 -126.425302 
L 329.227907 -126.425302 
L 330.381395 -126.425302 
L 331.534884 -126.425302 
L 332.688372 -126.425302 
L 333.84186 -126.425302 
L 334.995349 -126.425302 
L 336.148837 -126.425302 
L 337.302326 -126.425302 
L 338.455814 -126.425302 
L 339.609302 -126.425302 
L 340.762791 -126.425302 
L 341.916279 -126.425302 
L 343.069767 -126.425302 
L 344.223256 -126.425302 
L 345.376744 -126.425302 
L 346.530233 -126.425302 
L 347.683721 -126.425302 
L 348.837209 -126.425302 
L 349.990698 -126.425302 
L 351.144186 -126.425302 
L 352.297674 -126.425302 
L 353.451163 -126.425302 
L 354.604651 -126.425302 
L 355.75814 -126.425302 
L 356.911628 -126.425302 
L 358.065116 -126.425302 
L 359.218605 -126.425302 
L 360.372093 -126.425302 
L 361.525581 -126.425302 
L 362.67907 -126.425302 
L 363.832558 -126.425302 
L 364.986047 -126.425302 
L 366.139535 -126.425302 
L 367.293023 -126.425302 
L 368.446512 -126.425302 
L 369.6 -126.425302 
L 370.753488 -126.425302 
L 371.906977 -126.425302 
L 373.060465 -126.425302 
L 374.213953 -126.425302 
L 375.367442 -126.425302 
L 376.52093 -126.425302 
L 377.674419 -126.425302 
L 378.827907 -126.425302 
L 379.981395 -126.425302 
L 381.134884 -126.425302 
L 382.288372 -126.425302 
L 383.44186 -126.425302 
L 384.595349 -126.425302 
L 385.748837 -126.425302 
L 386.902326 -126.425302 
L 388.055814 -126.425302 
L 389.209302 -126.425302 
L 390.362791 -126.425302 
L 391.516279 -126.425302 
L 392.669767 -126.425302 
L 393.823256 -126.425302 
L 394.976744 -126.425302 
L 396.130233 -126.425302 
L 397.283721 -126.425302 
L 398.437209 -126.425302 
L 399.590698 -126.425302 
L 400.744186 -126.425302 
L 401.897674 -126.425302 
L 403.051163 -126.425302 
L 404.204651 -126.425302 
L 405.35814 -126.425302 
L 406.511628 -126.425302 
L 407.665116 -126.425302 
L 408.818605 -126.425302 
L 409.972093 -126.425302 
L 411.125581 -126.425302 
L 412.27907 -126.425302 
L 413.432558 -126.425302 
L 414.586047 -126.425302 
L 415.739535 -126.425302 
L 416.893023 -126.425302 
L 418.046512 -126.425302 
L 419.2 -126.425302 
L 420.353488 -126.425302 
L 421.506977 -126.425302 
L 422.660465 -126.425302 
L 423.813953 -126.425302 
L 424.967442 -126.425302 
L 426.12093 -126.425302 
L 427.274419 -126.425302 
L 428.427907 -126.425302 
L 429.581395 -126.425302 
L 430.734884 -126.425302 
L 431.888372 -126.425302 
L 433.04186 -126.425302 
L 434.195349 -126.425302 
L 435.348837 -126.425302 
L 436.502326 -126.425302 
L 437.655814 -126.425302 
L 438.809302 -126.425302 
L 439.962791 -126.425302 
L 441.116279 -126.425302 
L 442.269767 -126.425302 
L 443.423256 -126.425302 
L 444.576744 -126.425302 
L 445.730233 -126.425302 
L 446.883721 -126.425302 
L 448.037209 -126.425302 
L 449.190698 -126.425302 
L 450.344186 -126.425302 
L 451.497674 -126.425302 
L 452.651163 -126.425302 
L 453.804651 -126.425302 
L 454.95814 -126.425302 
L 456.111628 -126.425302 
L 457.265116 -126.425302 
L 458.418605 -126.425302 
L 459.572093 -126.425302 
L 460.725581 -126.425302 
L 461.87907 -126.425302 
L 463.032558 -126.425302 
L 464.186047 -126.425302 
L 465.339535 -126.425302 
L 466.493023 -126.425302 
L 467.646512 -126.425302 
L 468.8 -126.425302 
L 469.953488 -126.425302 
L 471.106977 -126.425302 
L 472.260465 -126.425302 
L 473.413953 -126.425302 
L 474.567442 -126.425302 
L 475.72093 -126.425302 
L 476.874419 -126.425302 
L 478.027907 -126.425302 
L 479.181395 -126.425302 
L 480.334884 -126.425302 
L 481.488372 -126.425302 
L 482.64186 -126.425302 
L 483.795349 -126.425302 
L 484.948837 -126.425302 
L 486.102326 -126.425302 
L 487.255814 -126.425302 
L 488.409302 -126.425302 
L 489.562791 -126.425302 
L 490.716279 -126.425302 
L 491.869767 -126.425302 
L 493.023256 -126.425302 
L 494.176744 -126.425302 
L 495.330233 -126.425302 
L 496.483721 -126.425302 
L 497.637209 -126.425302 
L 498.790698 -126.425302 
L 499.944186 -126.425302 
L 501.097674 -126.425302 
L 502.251163 -126.425302 
L 503.404651 -126.425302 
L 504.55814 -126.425302 
L 505.711628 -126.425302 
L 506.865116 -126.425302 
L 508.018605 -126.425302 
L 509.172093 -126.425302 
L 510.325581 -126.425302 
L 511.47907 -126.425302 
L 512.632558 -126.425302 
L 513.786047 -126.425302 
L 514.939535 -126.425302 
L 516.093023 -126.425302 
L 517.246512 -126.425302 
L 518.4 -126.425302 
L 518.4 -115.850247 
L 518.4 -115.850247 
L 517.246512 -115.850247 
L 516.093023 -115.850247 
L 514.939535 -115.850247 
L 513.786047 -115.850247 
L 512.632558 -115.850247 
L 511.47907 -115.850247 
L 510.325581 -115.850247 
L 509.172093 -115.850247 
L 508.018605 -115.850247 
L 506.865116 -115.850247 
L 505.711628 -115.850247 
L 504.55814 -115.850247 
L 503.404651 -115.850247 
L 502.251163 -115.850247 
L 501.097674 -115.850247 
L 499.944186 -115.850247 
L 498.790698 -115.850247 
L 497.637209 -115.850247 
L 496.483721 -115.850247 
L 495.330233 -115.850247 
L 494.176744 -115.850247 
L 493.023256 -115.850247 
L 491.869767 -115.850247 
L 490.716279 -115.850247 
L 489.562791 -115.850247 
L 488.409302 -115.850247 
L 487.255814 -115.850247 
L 486.102326 -115.850247 
L 484.948837 -115.850247 
L 483.795349 -115.850247 
L 482.64186 -115.850247 
L 481.488372 -115.850247 
L 480.334884 -115.850247 
L 479.181395 -115.850247 
L 478.027907 -115.850247 
L 476.874419 -115.850247 
L 475.72093 -115.850247 
L 474.567442 -115.850247 
L 473.413953 -115.850247 
L 472.260465 -115.850247 
L 471.106977 -115.850247 
L 469.953488 -115.850247 
L 468.8 -115.850247 
L 467.646512 -115.850247 
L 466.493023 -115.850247 
L 465.339535 -115.850247 
L 464.186047 -115.850247 
L 463.032558 -115.850247 
L 461.87907 -115.850247 
L 460.725581 -115.850247 
L 459.572093 -115.850247 
L 458.418605 -115.850247 
L 457.265116 -115.850247 
L 456.111628 -115.850247 
L 454.95814 -115.850247 
L 453.804651 -115.850247 
L 452.651163 -115.850247 
L 451.497674 -115.850247 
L 450.344186 -115.850247 
L 449.190698 -115.850247 
L 448.037209 -115.850247 
L 446.883721 -115.850247 
L 445.730233 -115.850247 
L 444.576744 -115.850247 
L 443.423256 -115.850247 
L 442.269767 -115.850247 
L 441.116279 -115.850247 
L 439.962791 -115.850247 
L 438.809302 -115.850247 
L 437.655814 -115.850247 
L 436.502326 -115.850247 
L 435.348837 -115.850247 
L 434.195349 -115.850247 
L 433.04186 -115.850247 
L 431.888372 -115.850247 
L 430.734884 -115.850247 
L 429.581395 -115.850247 
L 428.427907 -115.850247 
L 427.274419 -115.850247 
L 426.12093 -115.850247 
L 424.967442 -115.850247 
L 423.813953 -115.850247 
L 422.660465 -115.850247 
L 421.506977 -115.850247 
L 420.353488 -115.850247 
L 419.2 -115.850247 
L 418.046512 -115.850247 
L 416.893023 -115.850247 
L 415.739535 -115.850247 
L 414.586047 -115.850247 
L 413.432558 -115.850247 
L 412.27907 -115.850247 
L 411.125581 -115.850247 
L 409.972093 -115.850247 
L 408.818605 -115.850247 
L 407.665116 -115.850247 
L 406.511628 -115.850247 
L 405.35814 -115.850247 
L 404.204651 -115.850247 
L 403.051163 -115.850247 
L 401.897674 -115.850247 
L 400.744186 -115.850247 
L 399.590698 -115.850247 
L 398.437209 -115.850247 
L 397.283721 -115.850247 
L 396.130233 -115.850247 
L 394.976744 -115.850247 
L 393.823256 -115.850247 
L 392.669767 -115.850247 
L 391.516279 -115.850247 
L 390.362791 -115.850247 
L 389.209302 -115.850247 
L 388.055814 -115.850247 
L 386.902326 -115.850247 
L 385.748837 -115.850247 
L 384.595349 -115.850247 
L 383.44186 -115.850247 
L 382.288372 -115.850247 
L 381.134884 -115.850247 
L 379.981395 -115.850247 
L 378.827907 -115.850247 
L 377.674419 -115.850247 
L 376.52093 -115.850247 
L 375.367442 -115.850247 
L 374.213953 -115.850247 
L 373.060465 -115.850247 
L 371.906977 -115.850247 
L 370.753488 -115.850247 
L 369.6 -115.850247 
L 368.446512 -115.850247 
L 367.293023 -115.850247 
L 366.139535 -115.850247 
L 364.986047 -115.850247 
L 363.832558 -115.850247 
L 362.67907 -115.850247 
L 361.525581 -115.850247 
L 360.372093 -115.850247 
L 359.218605 -115.850247 
L 358.065116 -115.850247 
L 356.911628 -115.850247 
L 355.75814 -115.850247 
L 354.604651 -115.850247 
L 353.451163 -115.850247 
L 352.297674 -115.850247 
L 351.144186 -115.850247 
L 349.990698 -115.850247 
L 348.837209 -115.850247 
L 347.683721 -115.850247 
L 346.530233 -115.850247 
L 345.376744 -115.850247 
L 344.223256 -115.850247 
L 343.069767 -115.850247 
L 341.916279 -115.850247 
L 340.762791 -115.850247 
L 339.609302 -115.850247 
L 338.455814 -115.850247 
L 337.302326 -115.850247 
L 336.148837 -115.850247 
L 334.995349 -115.850247 
L 333.84186 -115.850247 
L 332.688372 -115.850247 
L 331.534884 -115.850247 
L 330.381395 -115.850247 
L 329.227907 -115.850247 
L 328.074419 -115.850247 
L 326.92093 -115.850247 
L 325.767442 -115.850247 
L 324.613953 -115.850247 
L 323.460465 -115.850247 
L 322.306977 -115.850247 
L 321.153488 -115.850247 
L 320 -115.850247 
L 318.846512 -115.850247 
L 317.693023 -115.850247 
L 316.539535 -115.850247 
L 315.386047 -115.850247 
L 314.232558 -115.850247 
L 313.07907 -115.850247 
L 311.925581 -115.850247 
L 310.772093 -115.850247 
L 309.618605 -115.850247 
L 308.465116 -115.850247 
L 307.311628 -115.850247 
L 306.15814 -115.850247 
L 305.004651 -115.850247 
L 303.851163 -115.850247 
L 302.697674 -115.850247 
L 301.544186 -115.850247 
L 300.390698 -115.850247 
L 299.237209 -115.850247 
L 298.083721 -115.850247 
L 296.930233 -115.850247 
L 295.776744 -115.850247 
L 294.623256 -115.850247 
L 293.469767 -115.850247 
L 292.316279 -115.850247 
L 291.162791 -115.850247 
L 290.009302 -115.850247 
L 288.855814 -115.850247 
L 287.702326 -115.850247 
L 286.548837 -115.850247 
L 285.395349 -115.850247 
L 284.24186 -115.850247 
L 283.088372 -115.850247 
L 281.934884 -115.850247 
L 280.781395 -115.850247 
L 279.627907 -115.850247 
L 278.474419 -115.850247 
L 277.32093 -115.850247 
L 276.167442 -115.850247 
L 275.013953 -115.850247 
L 273.860465 -115.850247 
L 272.706977 -115.850247 
L 271.553488 -115.850247 
L 270.4 -115.850247 
L 269.246512 -115.850247 
L 268.093023 -115.850247 
L 266.939535 -115.850247 
L 265.786047 -115.850247 
L 264.632558 -115.850247 
L 263.47907 -115.850247 
L 262.325581 -115.850247 
L 261.172093 -115.850247 
L 260.018605 -115.850247 
L 258.865116 -115.850247 
L 257.711628 -115.850247 
L 256.55814 -115.850247 
L 255.404651 -115.850247 
L 254.251163 -115.850247 
L 253.097674 -115.850247 
L 251.944186 -115.850247 
L 250.790698 -115.850247 
L 249.637209 -115.850247 
L 248.483721 -115.850247 
L 247.330233 -115.850247 
L 246.176744 -115.850247 
L 245.023256 -115.850247 
L 243.869767 -115.850247 
L 242.716279 -115.850247 
L 241.562791 -115.850247 
L 240.409302 -115.850247 
L 239.255814 -115.850247 
L 238.102326 -115.850247 
L 236.948837 -115.850247 
L 235.795349 -115.850247 
L 234.64186 -115.850247 
L 233.488372 -115.850247 
L 232.334884 -115.850247 
L 231.181395 -115.850247 
L 230.027907 -115.850247 
L 228.874419 -115.850247 
L 227.72093 -115.850247 
L 226.567442 -115.850247 
L 225.413953 -115.850247 
L 224.260465 -115.850247 
L 223.106977 -115.850247 
L 221.953488 -115.850247 
L 220.8 -115.850247 
L 219.646512 -115.850247 
L 218.493023 -115.850247 
L 217.339535 -115.850247 
L 216.186047 -115.850247 
L 215.032558 -115.850247 
L 213.87907 -115.850247 
L 212.725581 -115.850247 
L 211.572093 -115.850247 
L 210.418605 -115.850247 
L 209.265116 -115.850247 
L 208.111628 -115.850247 
L 206.95814 -115.850247 
L 205.804651 -115.850247 
L 204.651163 -115.850247 
L 203.497674 -115.850247 
L 202.344186 -115.850247 
L 201.190698 -115.850247 
L 200.037209 -115.850247 
L 198.883721 -115.850247 
L 197.730233 -115.850247 
L 196.576744 -115.850247 
L 195.423256 -115.850247 
L 194.269767 -115.850247 
L 193.116279 -115.850247 
L 191.962791 -115.850247 
L 190.809302 -115.850247 
L 189.655814 -115.850247 
L 188.502326 -115.850247 
L 187.348837 -115.850247 
L 186.195349 -115.850247 
L 185.04186 -115.850247 
L 183.888372 -115.850247 
L 182.734884 -115.850247 
L 181.581395 -115.850247 
L 180.427907 -115.850247 
L 179.274419 -115.850247 
L 178.12093 -115.850247 
L 176.967442 -115.850247 
L 175.813953 -115.850247 
L 174.660465 -115.850247 
L 173.506977 -115.850247 
L 172.353488 -115.850247 
L 171.2 -115.850247 
L 170.046512 -115.850247 
L 168.893023 -115.850247 
L 167.739535 -115.850247 
L 166.586047 -115.850247 
L 165.432558 -115.850247 
L 164.27907 -115.850247 
L 163.125581 -115.850247 
L 161.972093 -115.850247 
L 160.818605 -115.850247 
L 159.665116 -115.850247 
L 158.511628 -115.850247 
L 157.35814 -115.850247 
L 156.204651 -115.850247 
L 155.051163 -115.850247 
L 153.897674 -115.850247 
L 152.744186 -115.850247 
L 151.590698 -115.850247 
L 150.437209 -115.850247 
L 149.283721 -115.850247 
L 148.130233 -115.850247 
L 146.976744 -115.850247 
L 145.823256 -115.850247 
L 144.669767 -115.850247 
L 143.516279 -115.850247 
L 142.362791 -115.850247 
L 141.209302 -115.850247 
L 140.055814 -115.850247 
L 138.902326 -115.850247 
L 137.748837 -115.850247 
L 136.595349 -115.850247 
L 135.44186 -115.850247 
L 134.288372 -115.850247 
L 133.134884 -115.850247 
L 131.981395 -115.850247 
L 130.827907 -115.850247 
L 129.674419 -115.850247 
L 128.52093 -115.850247 
L 127.367442 -115.850247 
L 126.213953 -115.850247 
L 125.060465 -115.850247 
L 123.906977 -115.850247 
L 122.753488 -115.850247 
L 121.6 -115.850247 
L 120.446512 -115.850247 
L 119.293023 -115.850247 
L 118.139535 -115.850247 
L 116.986047 -115.850247 
L 115.832558 -115.850247 
L 114.67907 -115.850247 
L 113.525581 -115.850247 
L 112.372093 -115.850247 
L 111.218605 -115.850247 
L 110.065116 -115.850247 
L 108.911628 -115.850247 
L 107.75814 -115.850247 
L 106.604651 -115.850247 
L 105.451163 -115.850247 
L 104.297674 -115.850247 
L 103.144186 -115.850247 
L 101.990698 -115.850247 
L 100.837209 -115.850247 
L 99.683721 -115.850247 
L 98.530233 -115.850247 
L 97.376744 -115.850247 
L 96.223256 -115.850247 
L 95.069767 -115.850247 
L 93.916279 -115.850247 
L 92.762791 -115.850247 
L 91.609302 -115.850247 
L 90.455814 -115.850247 
L 89.302326 -115.850247 
L 88.148837 -115.850247 
L 86.995349 -115.850247 
L 85.84186 -115.850247 
L 84.688372 -115.850247 
L 83.534884 -115.850247 
L 82.381395 -115.850247 
L 81.227907 -115.850247 
L 80.074419 -115.850247 
L 78.92093 -115.850247 
L 77.767442 -115.850247 
L 76.613953 -115.850247 
L 75.460465 -115.850247 
L 74.306977 -115.850247 
L 73.153488 -115.850247 
L 72 -115.850247 
z
" id="mb55a7ec38f"/>
    </defs>
    <g clip-path="url(#p55993fd838)">
     <use style="fill-opacity:0.15;" x="0" xlink:href="#mb55a7ec38f" y="360"/>
    </g>
   </g>
   <g id="matplotlib.axis_1">
    <g id="xtick_1">
     <g id="line2d_1">
      <defs>
       <path d="M 0 0 
L 0 3.5 
" id="m6a5fb60f55" style="stroke:#000000;stroke-width:0.8;"/>
      </defs>
      <g>
       <use style="stroke:#000000;stroke-width:0.8;" x="72" xlink:href="#m6a5fb60f55" y="320.4"/>
      </g>
     </g>
     <g id="text_1">
      <!-- 0.0 -->
      <g transform="translate(60.867812 338.037813)scale(0.14 -0.14)">
       <defs>
        <path d="M 2034 4250 
Q 1547 4250 1301 3770 
Q 1056 3291 1056 2328 
Q 1056 1369 1301 889 
Q 1547 409 2034 409 
Q 2525 409 2770 889 
Q 3016 1369 3016 2328 
Q 3016 3291 2770 3770 
Q 2525 4250 2034 4250 
z
M 2034 4750 
Q 2819 4750 3233 4129 
Q 3647 3509 3647 2328 
Q 3647 1150 3233 529 
Q 2819 -91 2034 -91 
Q 1250 -91 836 529 
Q 422 1150 422 2328 
Q 422 3509 836 4129 
Q 1250 4750 2034 4750 
z
" id="DejaVuSans-30" transform="scale(0.015625)"/>
        <path d="M 684 794 
L 1344 794 
L 1344 0 
L 684 0 
L 684 794 
z
" id="DejaVuSans-2e" transform="scale(0.015625)"/>
       </defs>
       <use xlink:href="#DejaVuSans-30"/>
       <use x="63.623047" xlink:href="#DejaVuSans-2e"/>
       <use x="95.410156" xlink:href="#DejaVuSans-30"/>
      </g>
     </g>
    </g>
    <g id="xtick_2">
     <g id="line2d_2">
      <g>
       <use style="stroke:#000000;stroke-width:0.8;" x="127.93985" xlink:href="#m6a5fb60f55" y="320.4"/>
      </g>
     </g>
     <g id="text_2">
      <!-- 2.5 -->
      <g transform="translate(116.807662 338.037813)scale(0.14 -0.14)">
       <defs>
        <path d="M 1228 531 
L 3431 531 
L 3431 0 
L 469 0 
L 469 531 
Q 828 903 1448 1529 
Q 2069 2156 2228 2338 
Q 2531 2678 2651 2914 
Q 2772 3150 2772 3378 
Q 2772 3750 2511 3984 
Q 2250 4219 1831 4219 
Q 1534 4219 1204 4116 
Q 875 4013 500 3803 
L 500 4441 
Q 881 4594 1212 4672 
Q 1544 4750 1819 4750 
Q 2544 4750 2975 4387 
Q 3406 4025 3406 3419 
Q 3406 3131 3298 2873 
Q 3191 2616 2906 2266 
Q 2828 2175 2409 1742 
Q 1991 1309 1228 531 
z
" id="DejaVuSans-32" transform="scale(0.015625)"/>
        <path d="M 691 4666 
L 3169 4666 
L 3169 4134 
L 1269 4134 
L 1269 2991 
Q 1406 3038 1543 3061 
Q 1681 3084 1819 3084 
Q 2600 3084 3056 2656 
Q 3513 2228 3513 1497 
Q 3513 744 3044 326 
Q 2575 -91 1722 -91 
Q 1428 -91 1123 -41 
Q 819 9 494 109 
L 494 744 
Q 775 591 1075 516 
Q 1375 441 1709 441 
Q 2250 441 2565 725 
Q 2881 1009 2881 1497 
Q 2881 1984 2565 2268 
Q 2250 2553 1709 2553 
Q 1456 2553 1204 2497 
Q 953 2441 691 2322 
L 691 4666 
z
" id="DejaVuSans-35" transform="scale(0.015625)"/>
       </defs>
       <use xlink:href="#DejaVuSans-32"/>
       <use x="63.623047" xlink:href="#DejaVuSans-2e"/>
       <use x="95.410156" xlink:href="#DejaVuSans-35"/>
      </g>
     </g>
    </g>
    <g id="xtick_3">
     <g id="line2d_3">
      <g>
       <use style="stroke:#000000;stroke-width:0.8;" x="183.879699" xlink:href="#m6a5fb60f55" y="320.4"/>
      </g>
     </g>
     <g id="text_3">
      <!-- 5.0 -->
      <g transform="translate(172.747512 338.037813)scale(0.14 -0.14)">
       <use xlink:href="#DejaVuSans-35"/>
       <use x="63.623047" xlink:href="#DejaVuSans-2e"/>
       <use x="95.410156" xlink:href="#DejaVuSans-30"/>
      </g>
     </g>
    </g>
    <g id="xtick_4">
     <g id="line2d_4">
      <g>
       <use style="stroke:#000000;stroke-width:0.8;" x="239.819549" xlink:href="#m6a5fb60f55" y="320.4"/>
      </g>
     </g>
     <g id="text_4">
      <!-- 7.5 -->
      <g transform="translate(228.687361 338.037813)scale(0.14 -0.14)">
       <defs>
        <path d="M 525 4666 
L 3525 4666 
L 3525 4397 
L 1831 0 
L 1172 0 
L 2766 4134 
L 525 4134 
L 525 4666 
z
" id="DejaVuSans-37" transform="scale(0.015625)"/>
       </defs>
       <use xlink:href="#DejaVuSans-37"/>
       <use x="63.623047" xlink:href="#DejaVuSans-2e"/>
       <use x="95.410156" xlink:href="#DejaVuSans-35"/>
      </g>
     </g>
    </g>
    <g id="xtick_5">
     <g id="line2d_5">
      <g>
       <use style="stroke:#000000;stroke-width:0.8;" x="295.759398" xlink:href="#m6a5fb60f55" y="320.4"/>
      </g>
     </g>
     <g id="text_5">
      <!-- 10.0 -->
      <g transform="translate(280.173461 338.037813)scale(0.14 -0.14)">
       <defs>
        <path d="M 794 531 
L 1825 531 
L 1825 4091 
L 703 3866 
L 703 4441 
L 1819 4666 
L 2450 4666 
L 2450 531 
L 3481 531 
L 3481 0 
L 794 0 
L 794 531 
z
" id="DejaVuSans-31" transform="scale(0.015625)"/>
       </defs>
       <use xlink:href="#DejaVuSans-31"/>
       <use x="63.623047" xlink:href="#DejaVuSans-30"/>
       <use x="127.246094" xlink:href="#DejaVuSans-2e"/>
       <use x="159.033203" xlink:href="#DejaVuSans-30"/>
      </g>
     </g>
    </g>
    <g id="xtick_6">
     <g id="line2d_6">
      <g>
       <use style="stroke:#000000;stroke-width:0.8;" x="351.699248" xlink:href="#m6a5fb60f55" y="320.4"/>
      </g>
     </g>
     <g id="text_6">
      <!-- 12.5 -->
      <g transform="translate(336.113311 338.037813)scale(0.14 -0.14)">
       <use xlink:href="#DejaVuSans-31"/>
       <use x="63.623047" xlink:href="#DejaVuSans-32"/>
       <use x="127.246094" xlink:href="#DejaVuSans-2e"/>
       <use x="159.033203" xlink:href="#DejaVuSans-35"/>
      </g>
     </g>
    </g>
    <g id="xtick_7">
     <g id="line2d_7">
      <g>
       <use style="stroke:#000000;stroke-width:0.8;" x="407.639098" xlink:href="#m6a5fb60f55" y="320.4"/>
      </g>
     </g>
     <g id="text_7">
      <!-- 15.0 -->
      <g transform="translate(392.05316 338.037813)scale(0.14 -0.14)">
       <use xlink:href="#DejaVuSans-31"/>
       <use x="63.623047" xlink:href="#DejaVuSans-35"/>
       <use x="127.246094" xlink:href="#DejaVuSans-2e"/>
       <use x="159.033203" xlink:href="#DejaVuSans-30"/>
      </g>
     </g>
    </g>
    <g id="xtick_8">
     <g id="line2d_8">
      <g>
       <use style="stroke:#000000;stroke-width:0.8;" x="463.578947" xlink:href="#m6a5fb60f55" y="320.4"/>
      </g>
     </g>
     <g id="text_8">
      <!-- 17.5 -->
      <g transform="translate(447.99301 338.037813)scale(0.14 -0.14)">
       <use xlink:href="#DejaVuSans-31"/>
       <use x="63.623047" xlink:href="#DejaVuSans-37"/>
       <use x="127.246094" xlink:href="#DejaVuSans-2e"/>
       <use x="159.033203" xlink:href="#DejaVuSans-35"/>
      </g>
     </g>
    </g>
    <g id="text_9">
     <!-- Time [Seconds] -->
     <g transform="translate(233.23 357.106875)scale(0.16 -0.16)">
      <defs>
       <path d="M -19 4666 
L 3928 4666 
L 3928 4134 
L 2272 4134 
L 2272 0 
L 1638 0 
L 1638 4134 
L -19 4134 
L -19 4666 
z
" id="DejaVuSans-54" transform="scale(0.015625)"/>
       <path d="M 603 3500 
L 1178 3500 
L 1178 0 
L 603 0 
L 603 3500 
z
M 603 4863 
L 1178 4863 
L 1178 4134 
L 603 4134 
L 603 4863 
z
" id="DejaVuSans-69" transform="scale(0.015625)"/>
       <path d="M 3328 2828 
Q 3544 3216 3844 3400 
Q 4144 3584 4550 3584 
Q 5097 3584 5394 3201 
Q 5691 2819 5691 2113 
L 5691 0 
L 5113 0 
L 5113 2094 
Q 5113 2597 4934 2840 
Q 4756 3084 4391 3084 
Q 3944 3084 3684 2787 
Q 3425 2491 3425 1978 
L 3425 0 
L 2847 0 
L 2847 2094 
Q 2847 2600 2669 2842 
Q 2491 3084 2119 3084 
Q 1678 3084 1418 2786 
Q 1159 2488 1159 1978 
L 1159 0 
L 581 0 
L 581 3500 
L 1159 3500 
L 1159 2956 
Q 1356 3278 1631 3431 
Q 1906 3584 2284 3584 
Q 2666 3584 2933 3390 
Q 3200 3197 3328 2828 
z
" id="DejaVuSans-6d" transform="scale(0.015625)"/>
       <path d="M 3597 1894 
L 3597 1613 
L 953 1613 
Q 991 1019 1311 708 
Q 1631 397 2203 397 
Q 2534 397 2845 478 
Q 3156 559 3463 722 
L 3463 178 
Q 3153 47 2828 -22 
Q 2503 -91 2169 -91 
Q 1331 -91 842 396 
Q 353 884 353 1716 
Q 353 2575 817 3079 
Q 1281 3584 2069 3584 
Q 2775 3584 3186 3129 
Q 3597 2675 3597 1894 
z
M 3022 2063 
Q 3016 2534 2758 2815 
Q 2500 3097 2075 3097 
Q 1594 3097 1305 2825 
Q 1016 2553 972 2059 
L 3022 2063 
z
" id="DejaVuSans-65" transform="scale(0.015625)"/>
       <path id="DejaVuSans-20" transform="scale(0.015625)"/>
       <path d="M 550 4863 
L 1875 4863 
L 1875 4416 
L 1125 4416 
L 1125 -397 
L 1875 -397 
L 1875 -844 
L 550 -844 
L 550 4863 
z
" id="DejaVuSans-5b" transform="scale(0.015625)"/>
       <path d="M 3425 4513 
L 3425 3897 
Q 3066 4069 2747 4153 
Q 2428 4238 2131 4238 
Q 1616 4238 1336 4038 
Q 1056 3838 1056 3469 
Q 1056 3159 1242 3001 
Q 1428 2844 1947 2747 
L 2328 2669 
Q 3034 2534 3370 2195 
Q 3706 1856 3706 1288 
Q 3706 609 3251 259 
Q 2797 -91 1919 -91 
Q 1588 -91 1214 -16 
Q 841 59 441 206 
L 441 856 
Q 825 641 1194 531 
Q 1563 422 1919 422 
Q 2459 422 2753 634 
Q 3047 847 3047 1241 
Q 3047 1584 2836 1778 
Q 2625 1972 2144 2069 
L 1759 2144 
Q 1053 2284 737 2584 
Q 422 2884 422 3419 
Q 422 4038 858 4394 
Q 1294 4750 2059 4750 
Q 2388 4750 2728 4690 
Q 3069 4631 3425 4513 
z
" id="DejaVuSans-53" transform="scale(0.015625)"/>
       <path d="M 3122 3366 
L 3122 2828 
Q 2878 2963 2633 3030 
Q 2388 3097 2138 3097 
Q 1578 3097 1268 2742 
Q 959 2388 959 1747 
Q 959 1106 1268 751 
Q 1578 397 2138 397 
Q 2388 397 2633 464 
Q 2878 531 3122 666 
L 3122 134 
Q 2881 22 2623 -34 
Q 2366 -91 2075 -91 
Q 1284 -91 818 406 
Q 353 903 353 1747 
Q 353 2603 823 3093 
Q 1294 3584 2113 3584 
Q 2378 3584 2631 3529 
Q 2884 3475 3122 3366 
z
" id="DejaVuSans-63" transform="scale(0.015625)"/>
       <path d="M 1959 3097 
Q 1497 3097 1228 2736 
Q 959 2375 959 1747 
Q 959 1119 1226 758 
Q 1494 397 1959 397 
Q 2419 397 2687 759 
Q 2956 1122 2956 1747 
Q 2956 2369 2687 2733 
Q 2419 3097 1959 3097 
z
M 1959 3584 
Q 2709 3584 3137 3096 
Q 3566 2609 3566 1747 
Q 3566 888 3137 398 
Q 2709 -91 1959 -91 
Q 1206 -91 779 398 
Q 353 888 353 1747 
Q 353 2609 779 3096 
Q 1206 3584 1959 3584 
z
" id="DejaVuSans-6f" transform="scale(0.015625)"/>
       <path d="M 3513 2113 
L 3513 0 
L 2938 0 
L 2938 2094 
Q 2938 2591 2744 2837 
Q 2550 3084 2163 3084 
Q 1697 3084 1428 2787 
Q 1159 2491 1159 1978 
L 1159 0 
L 581 0 
L 581 3500 
L 1159 3500 
L 1159 2956 
Q 1366 3272 1645 3428 
Q 1925 3584 2291 3584 
Q 2894 3584 3203 3211 
Q 3513 2838 3513 2113 
z
" id="DejaVuSans-6e" transform="scale(0.015625)"/>
       <path d="M 2906 2969 
L 2906 4863 
L 3481 4863 
L 3481 0 
L 2906 0 
L 2906 525 
Q 2725 213 2448 61 
Q 2172 -91 1784 -91 
Q 1150 -91 751 415 
Q 353 922 353 1747 
Q 353 2572 751 3078 
Q 1150 3584 1784 3584 
Q 2172 3584 2448 3432 
Q 2725 3281 2906 2969 
z
M 947 1747 
Q 947 1113 1208 752 
Q 1469 391 1925 391 
Q 2381 391 2643 752 
Q 2906 1113 2906 1747 
Q 2906 2381 2643 2742 
Q 2381 3103 1925 3103 
Q 1469 3103 1208 2742 
Q 947 2381 947 1747 
z
" id="DejaVuSans-64" transform="scale(0.015625)"/>
       <path d="M 2834 3397 
L 2834 2853 
Q 2591 2978 2328 3040 
Q 2066 3103 1784 3103 
Q 1356 3103 1142 2972 
Q 928 2841 928 2578 
Q 928 2378 1081 2264 
Q 1234 2150 1697 2047 
L 1894 2003 
Q 2506 1872 2764 1633 
Q 3022 1394 3022 966 
Q 3022 478 2636 193 
Q 2250 -91 1575 -91 
Q 1294 -91 989 -36 
Q 684 19 347 128 
L 347 722 
Q 666 556 975 473 
Q 1284 391 1588 391 
Q 1994 391 2212 530 
Q 2431 669 2431 922 
Q 2431 1156 2273 1281 
Q 2116 1406 1581 1522 
L 1381 1569 
Q 847 1681 609 1914 
Q 372 2147 372 2553 
Q 372 3047 722 3315 
Q 1072 3584 1716 3584 
Q 2034 3584 2315 3537 
Q 2597 3491 2834 3397 
z
" id="DejaVuSans-73" transform="scale(0.015625)"/>
       <path d="M 1947 4863 
L 1947 -844 
L 622 -844 
L 622 -397 
L 1369 -397 
L 1369 4416 
L 622 4416 
L 622 4863 
L 1947 4863 
z
" id="DejaVuSans-5d" transform="scale(0.015625)"/>
      </defs>
      <use xlink:href="#DejaVuSans-54"/>
      <use x="57.958984" xlink:href="#DejaVuSans-69"/>
      <use x="85.742188" xlink:href="#DejaVuSans-6d"/>
      <use x="183.154297" xlink:href="#DejaVuSans-65"/>
      <use x="244.677734" xlink:href="#DejaVuSans-20"/>
      <use x="276.464844" xlink:href="#DejaVuSans-5b"/>
      <use x="315.478516" xlink:href="#DejaVuSans-53"/>
      <use x="378.955078" xlink:href="#DejaVuSans-65"/>
      <use x="440.478516" xlink:href="#DejaVuSans-63"/>
      <use x="495.458984" xlink:href="#DejaVuSans-6f"/>
      <use x="556.640625" xlink:href="#DejaVuSans-6e"/>
      <use x="620.019531" xlink:href="#DejaVuSans-64"/>
      <use x="683.496094" xlink:href="#DejaVuSans-73"/>
      <use x="735.595703" xlink:href="#DejaVuSans-5d"/>
     </g>
    </g>
   </g>
   <g id="matplotlib.axis_2">
    <g id="ytick_1">
     <g id="line2d_9">
      <defs>
       <path d="M 0 0 
L -3.5 0 
" id="m8c7e83cae8" style="stroke:#000000;stroke-width:0.8;"/>
      </defs>
      <g>
       <use style="stroke:#000000;stroke-width:0.8;" x="72" xlink:href="#m8c7e83cae8" y="305.417698"/>
      </g>
     </g>
     <g id="text_10">
      <!-- 0.0 -->
      <g transform="translate(42.735625 310.736605)scale(0.14 -0.14)">
       <use xlink:href="#DejaVuSans-30"/>
       <use x="63.623047" xlink:href="#DejaVuSans-2e"/>
       <use x="95.410156" xlink:href="#DejaVuSans-30"/>
      </g>
     </g>
    </g>
    <g id="ytick_2">
     <g id="line2d_10">
      <g>
       <use style="stroke:#000000;stroke-width:0.8;" x="72" xlink:href="#m8c7e83cae8" y="272.542487"/>
      </g>
     </g>
     <g id="text_11">
      <!-- 0.2 -->
      <g transform="translate(42.735625 277.861394)scale(0.14 -0.14)">
       <use xlink:href="#DejaVuSans-30"/>
       <use x="63.623047" xlink:href="#DejaVuSans-2e"/>
       <use x="95.410156" xlink:href="#DejaVuSans-32"/>
      </g>
     </g>
    </g>
    <g id="ytick_3">
     <g id="line2d_11">
      <g>
       <use style="stroke:#000000;stroke-width:0.8;" x="72" xlink:href="#m8c7e83cae8" y="239.667277"/>
      </g>
     </g>
     <g id="text_12">
      <!-- 0.4 -->
      <g transform="translate(42.735625 244.986183)scale(0.14 -0.14)">
       <defs>
        <path d="M 2419 4116 
L 825 1625 
L 2419 1625 
L 2419 4116 
z
M 2253 4666 
L 3047 4666 
L 3047 1625 
L 3713 1625 
L 3713 1100 
L 3047 1100 
L 3047 0 
L 2419 0 
L 2419 1100 
L 313 1100 
L 313 1709 
L 2253 4666 
z
" id="DejaVuSans-34" transform="scale(0.015625)"/>
       </defs>
       <use xlink:href="#DejaVuSans-30"/>
       <use x="63.623047" xlink:href="#DejaVuSans-2e"/>
       <use x="95.410156" xlink:href="#DejaVuSans-34"/>
      </g>
     </g>
    </g>
    <g id="ytick_4">
     <g id="line2d_12">
      <g>
       <use style="stroke:#000000;stroke-width:0.8;" x="72" xlink:href="#m8c7e83cae8" y="206.792066"/>
      </g>
     </g>
     <g id="text_13">
      <!-- 0.6 -->
      <g transform="translate(42.735625 212.110972)scale(0.14 -0.14)">
       <defs>
        <path d="M 2113 2584 
Q 1688 2584 1439 2293 
Q 1191 2003 1191 1497 
Q 1191 994 1439 701 
Q 1688 409 2113 409 
Q 2538 409 2786 701 
Q 3034 994 3034 1497 
Q 3034 2003 2786 2293 
Q 2538 2584 2113 2584 
z
M 3366 4563 
L 3366 3988 
Q 3128 4100 2886 4159 
Q 2644 4219 2406 4219 
Q 1781 4219 1451 3797 
Q 1122 3375 1075 2522 
Q 1259 2794 1537 2939 
Q 1816 3084 2150 3084 
Q 2853 3084 3261 2657 
Q 3669 2231 3669 1497 
Q 3669 778 3244 343 
Q 2819 -91 2113 -91 
Q 1303 -91 875 529 
Q 447 1150 447 2328 
Q 447 3434 972 4092 
Q 1497 4750 2381 4750 
Q 2619 4750 2861 4703 
Q 3103 4656 3366 4563 
z
" id="DejaVuSans-36" transform="scale(0.015625)"/>
       </defs>
       <use xlink:href="#DejaVuSans-30"/>
       <use x="63.623047" xlink:href="#DejaVuSans-2e"/>
       <use x="95.410156" xlink:href="#DejaVuSans-36"/>
      </g>
     </g>
    </g>
    <g id="ytick_5">
     <g id="line2d_13">
      <g>
       <use style="stroke:#000000;stroke-width:0.8;" x="72" xlink:href="#m8c7e83cae8" y="173.916855"/>
      </g>
     </g>
     <g id="text_14">
      <!-- 0.8 -->
      <g transform="translate(42.735625 179.235761)scale(0.14 -0.14)">
       <defs>
        <path d="M 2034 2216 
Q 1584 2216 1326 1975 
Q 1069 1734 1069 1313 
Q 1069 891 1326 650 
Q 1584 409 2034 409 
Q 2484 409 2743 651 
Q 3003 894 3003 1313 
Q 3003 1734 2745 1975 
Q 2488 2216 2034 2216 
z
M 1403 2484 
Q 997 2584 770 2862 
Q 544 3141 544 3541 
Q 544 4100 942 4425 
Q 1341 4750 2034 4750 
Q 2731 4750 3128 4425 
Q 3525 4100 3525 3541 
Q 3525 3141 3298 2862 
Q 3072 2584 2669 2484 
Q 3125 2378 3379 2068 
Q 3634 1759 3634 1313 
Q 3634 634 3220 271 
Q 2806 -91 2034 -91 
Q 1263 -91 848 271 
Q 434 634 434 1313 
Q 434 1759 690 2068 
Q 947 2378 1403 2484 
z
M 1172 3481 
Q 1172 3119 1398 2916 
Q 1625 2713 2034 2713 
Q 2441 2713 2670 2916 
Q 2900 3119 2900 3481 
Q 2900 3844 2670 4047 
Q 2441 4250 2034 4250 
Q 1625 4250 1398 4047 
Q 1172 3844 1172 3481 
z
" id="DejaVuSans-38" transform="scale(0.015625)"/>
       </defs>
       <use xlink:href="#DejaVuSans-30"/>
       <use x="63.623047" xlink:href="#DejaVuSans-2e"/>
       <use x="95.410156" xlink:href="#DejaVuSans-38"/>
      </g>
     </g>
    </g>
    <g id="ytick_6">
     <g id="line2d_14">
      <g>
       <use style="stroke:#000000;stroke-width:0.8;" x="72" xlink:href="#m8c7e83cae8" y="141.041644"/>
      </g>
     </g>
     <g id="text_15">
      <!-- 1.0 -->
      <g transform="translate(42.735625 146.36055)scale(0.14 -0.14)">
       <use xlink:href="#DejaVuSans-31"/>
       <use x="63.623047" xlink:href="#DejaVuSans-2e"/>
       <use x="95.410156" xlink:href="#DejaVuSans-30"/>
      </g>
     </g>
    </g>
    <g id="ytick_7">
     <g id="line2d_15">
      <g>
       <use style="stroke:#000000;stroke-width:0.8;" x="72" xlink:href="#m8c7e83cae8" y="108.166433"/>
      </g>
     </g>
     <g id="text_16">
      <!-- 1.2 -->
      <g transform="translate(42.735625 113.485339)scale(0.14 -0.14)">
       <use xlink:href="#DejaVuSans-31"/>
       <use x="63.623047" xlink:href="#DejaVuSans-2e"/>
       <use x="95.410156" xlink:href="#DejaVuSans-32"/>
      </g>
     </g>
    </g>
    <g id="ytick_8">
     <g id="line2d_16">
      <g>
       <use style="stroke:#000000;stroke-width:0.8;" x="72" xlink:href="#m8c7e83cae8" y="75.291222"/>
      </g>
     </g>
     <g id="text_17">
      <!-- 1.4 -->
      <g transform="translate(42.735625 80.610128)scale(0.14 -0.14)">
       <use xlink:href="#DejaVuSans-31"/>
       <use x="63.623047" xlink:href="#DejaVuSans-2e"/>
       <use x="95.410156" xlink:href="#DejaVuSans-34"/>
      </g>
     </g>
    </g>
    <g id="text_18">
     <!-- Speed [mm/s] -->
     <g transform="translate(35.408125 238.11375)rotate(-90)scale(0.16 -0.16)">
      <defs>
       <path d="M 1159 525 
L 1159 -1331 
L 581 -1331 
L 581 3500 
L 1159 3500 
L 1159 2969 
Q 1341 3281 1617 3432 
Q 1894 3584 2278 3584 
Q 2916 3584 3314 3078 
Q 3713 2572 3713 1747 
Q 3713 922 3314 415 
Q 2916 -91 2278 -91 
Q 1894 -91 1617 61 
Q 1341 213 1159 525 
z
M 3116 1747 
Q 3116 2381 2855 2742 
Q 2594 3103 2138 3103 
Q 1681 3103 1420 2742 
Q 1159 2381 1159 1747 
Q 1159 1113 1420 752 
Q 1681 391 2138 391 
Q 2594 391 2855 752 
Q 3116 1113 3116 1747 
z
" id="DejaVuSans-70" transform="scale(0.015625)"/>
       <path d="M 1625 4666 
L 2156 4666 
L 531 -594 
L 0 -594 
L 1625 4666 
z
" id="DejaVuSans-2f" transform="scale(0.015625)"/>
      </defs>
      <use xlink:href="#DejaVuSans-53"/>
      <use x="63.476562" xlink:href="#DejaVuSans-70"/>
      <use x="126.953125" xlink:href="#DejaVuSans-65"/>
      <use x="188.476562" xlink:href="#DejaVuSans-65"/>
      <use x="250" xlink:href="#DejaVuSans-64"/>
      <use x="313.476562" xlink:href="#DejaVuSans-20"/>
      <use x="345.263672" xlink:href="#DejaVuSans-5b"/>
      <use x="384.277344" xlink:href="#DejaVuSans-6d"/>
      <use x="481.689453" xlink:href="#DejaVuSans-6d"/>
      <use x="579.101562" xlink:href="#DejaVuSans-2f"/>
      <use x="612.792969" xlink:href="#DejaVuSans-73"/>
      <use x="664.892578" xlink:href="#DejaVuSans-5d"/>
     </g>
    </g>
   </g>
   <g id="line2d_17">
    <path clip-path="url(#p55993fd838)" d="M 72 238.862225 
L 518.4 238.862225 
" style="fill:none;stroke:#000000;stroke-dasharray:5.55,2.4;stroke-dashoffset:0;stroke-width:1.5;"/>
   </g>
   <g id="line2d_18">
    <path clip-path="url(#p55993fd838)" d="M 72 301.495682 
L 143.516279 301.386247 
L 144.669767 302.00448 
L 145.823256 299.567557 
L 146.976744 298.993854 
L 148.130233 301.405513 
L 150.437209 307.8 
L 151.590698 304.732366 
L 152.744186 298.747082 
L 153.897674 301.474764 
L 155.051163 301.447277 
L 156.204651 276.715008 
L 157.35814 237.996488 
L 158.511628 194.314515 
L 159.665116 144.808885 
L 160.818605 100.602659 
L 161.972093 70.513613 
L 163.125581 55.8 
L 164.27907 58.182599 
L 165.432558 76.064808 
L 166.586047 99.377454 
L 170.046512 194.487699 
L 171.2 213.038702 
L 172.353488 213.888314 
L 173.506977 201.620887 
L 174.660465 203.547271 
L 175.813953 214.555301 
L 176.967442 214.18657 
L 178.12093 216.595422 
L 179.274419 219.461444 
L 181.581395 216.969324 
L 182.734884 214.962272 
L 183.888372 216.569108 
L 185.04186 219.959857 
L 186.195349 221.962834 
L 187.348837 224.365725 
L 189.655814 233.613301 
L 190.809302 235.663371 
L 191.962791 237.471839 
L 193.116279 237.241596 
L 194.269767 231.228069 
L 195.423256 228.104196 
L 196.576744 227.995138 
L 197.730233 226.742676 
L 198.883721 227.238025 
L 200.037209 227.611332 
L 201.190698 231.529273 
L 202.344186 235.023178 
L 203.497674 234.315428 
L 204.651163 236.718874 
L 205.804651 238.426425 
L 206.95814 238.194737 
L 208.111628 239.173845 
L 209.265116 237.682252 
L 210.418605 236.824725 
L 211.572093 238.090436 
L 212.725581 237.728502 
L 213.87907 237.043584 
L 215.032558 236.839701 
L 216.186047 237.249641 
L 217.339535 238.199883 
L 218.493023 238.516349 
L 219.646512 237.248832 
L 220.8 236.86819 
L 221.953488 238.037242 
L 223.106977 238.94265 
L 224.260465 238.841354 
L 225.413953 238.590164 
L 226.567442 238.546465 
L 228.874419 239.536564 
L 230.027907 238.551037 
L 231.181395 238.23024 
L 232.334884 239.405555 
L 233.488372 239.183761 
L 234.64186 238.584234 
L 236.948837 239.39082 
L 238.102326 239.393459 
L 239.255814 239.14636 
L 240.409302 239.180896 
L 242.716279 239.518665 
L 246.176744 239.092428 
L 247.330233 239.566077 
L 248.483721 239.838232 
L 250.790698 239.159686 
L 251.944186 239.294777 
L 253.097674 239.838201 
L 254.251163 240.009676 
L 255.404651 240.864713 
L 256.55814 241.344148 
L 258.865116 241.040492 
L 260.018605 239.941099 
L 261.172093 239.065918 
L 262.325581 239.620581 
L 264.632558 237.76354 
L 265.786047 238.885014 
L 268.093023 239.577507 
L 269.246512 240.125353 
L 270.4 240.260852 
L 272.706977 241.173038 
L 273.860465 240.328329 
L 275.013953 240.55032 
L 276.167442 242.682736 
L 277.32093 242.443984 
L 278.474419 241.09934 
L 279.627907 240.926968 
L 280.781395 239.660956 
L 281.934884 239.290158 
L 283.088372 240.79987 
L 284.24186 240.412476 
L 285.395349 239.832935 
L 286.548837 240.015153 
L 287.702326 239.705242 
L 288.855814 238.808559 
L 290.009302 239.288052 
L 291.162791 240.59323 
L 292.316279 240.890608 
L 293.469767 240.644049 
L 294.623256 240.117175 
L 295.776744 239.333163 
L 296.930233 240.059024 
L 298.083721 241.460552 
L 299.237209 240.191326 
L 300.390698 239.181346 
L 301.544186 238.859183 
L 302.697674 238.876487 
L 303.851163 239.65697 
L 305.004651 241.400477 
L 306.15814 241.476713 
L 307.311628 240.556467 
L 308.465116 241.115748 
L 309.618605 240.393452 
L 311.925581 240.031978 
L 313.07907 239.520951 
L 314.232558 239.896353 
L 315.386047 240.967812 
L 316.539535 240.989384 
L 317.693023 241.504094 
L 318.846512 243.188996 
L 320 242.367282 
L 321.153488 240.993838 
L 322.306977 241.791323 
L 323.460465 241.913591 
L 324.613953 241.674174 
L 325.767442 242.477993 
L 326.92093 240.950289 
L 328.074419 238.612941 
L 329.227907 238.356945 
L 330.381395 240.052783 
L 331.534884 240.14995 
L 332.688372 239.073806 
L 333.84186 239.237277 
L 334.995349 240.023029 
L 336.148837 239.891592 
L 337.302326 240.459193 
L 338.455814 240.718477 
L 339.609302 240.099868 
L 340.762791 241.764509 
L 343.069767 239.321256 
L 344.223256 239.850683 
L 345.376744 240.985788 
L 347.683721 241.381012 
L 348.837209 240.22009 
L 349.990698 239.231435 
L 351.144186 242.071233 
L 352.297674 241.406915 
L 353.451163 239.475948 
L 354.604651 239.760787 
L 355.75814 241.599167 
L 356.911628 241.281766 
L 359.218605 241.139003 
L 360.372093 239.516256 
L 361.525581 241.026121 
L 362.67907 241.93456 
L 363.832558 239.943799 
L 364.986047 239.946324 
L 366.139535 241.241173 
L 367.293023 239.511714 
L 368.446512 240.079066 
L 369.6 241.201657 
L 370.753488 241.247017 
L 373.060465 242.038893 
L 374.213953 241.262072 
L 375.367442 241.068361 
L 376.52093 242.722845 
L 377.674419 240.690291 
L 378.827907 240.162563 
L 379.981395 242.702971 
L 381.134884 240.509482 
L 382.288372 238.956985 
L 383.44186 241.190562 
L 384.595349 240.655231 
L 386.902326 240.7547 
L 388.055814 239.414241 
L 389.209302 238.539471 
L 390.362791 239.484109 
L 391.516279 239.37887 
L 392.669767 237.903238 
L 393.823256 240.640208 
L 394.976744 241.161614 
L 396.130233 240.607675 
L 397.283721 241.507834 
L 398.437209 240.419039 
L 399.590698 240.466637 
L 400.744186 243.498741 
L 401.897674 243.365633 
L 403.051163 242.36799 
L 404.204651 243.366116 
L 406.511628 241.661629 
L 407.665116 240.958908 
L 408.818605 239.944401 
L 409.972093 237.313838 
L 411.125581 237.179896 
L 412.27907 237.536877 
L 413.432558 238.478422 
L 414.586047 241.535378 
L 416.893023 242.356899 
L 418.046512 242.705711 
L 419.2 243.220026 
L 420.353488 241.03448 
L 421.506977 239.488499 
L 422.660465 239.329939 
L 423.813953 237.476905 
L 424.967442 238.451103 
L 426.12093 240.395501 
L 428.427907 243.722422 
L 429.581395 243.656258 
L 430.734884 242.012577 
L 431.888372 241.045777 
L 433.04186 240.89129 
L 434.195349 239.909852 
L 435.348837 237.982209 
L 436.502326 237.109138 
L 437.655814 237.821473 
L 438.809302 239.27887 
L 439.962791 241.879888 
L 441.116279 242.625083 
L 442.269767 244.264324 
L 443.423256 246.203291 
L 444.576744 243.675983 
L 445.730233 242.554559 
L 446.883721 242.240064 
L 448.037209 241.096332 
L 449.190698 239.651833 
L 450.344186 237.521525 
L 451.497674 236.575982 
L 452.651163 237.147508 
L 454.95814 240.37702 
L 456.111628 242.304101 
L 457.265116 243.82397 
L 458.418605 244.206128 
L 459.572093 243.944346 
L 460.725581 242.347524 
L 463.032558 239.704352 
L 464.186047 237.789477 
L 465.339535 236.958328 
L 466.493023 237.872633 
L 467.646512 239.180613 
L 468.8 240.024042 
L 469.953488 240.545047 
L 472.260465 242.439288 
L 473.413953 242.504469 
L 474.567442 241.453754 
L 475.72093 242.060323 
L 476.874419 243.007179 
L 478.027907 241.615981 
L 479.181395 241.142866 
L 480.334884 240.964839 
L 481.488372 241.124278 
L 482.64186 241.940258 
L 483.795349 241.564095 
L 484.948837 240.581749 
L 486.102326 240.627963 
L 487.255814 241.433207 
L 488.409302 241.357702 
L 489.562791 241.157639 
L 490.716279 242.195959 
L 491.869767 242.359318 
L 493.023256 240.332305 
L 494.176744 238.687517 
L 495.330233 239.041285 
L 496.483721 240.322427 
L 497.637209 240.405936 
L 498.790698 239.788707 
L 499.944186 239.920565 
L 501.097674 240.373968 
L 502.251163 240.069632 
L 503.404651 237.764479 
L 504.55814 238.173539 
L 505.711628 240.79728 
L 506.865116 241.174156 
L 508.018605 240.862335 
L 510.325581 241.436062 
L 511.47907 241.592447 
L 512.632558 241.565596 
L 513.786047 241.261922 
L 514.939535 240.57071 
L 516.093023 239.364128 
L 517.246512 237.497219 
L 518.4 234.807903 
L 518.4 234.807903 
" style="fill:none;stroke:#ff0000;stroke-linecap:square;stroke-width:2;"/>
   </g>
   <g id="patch_3">
    <path d="M 72 320.4 
L 72 43.2 
" style="fill:none;stroke:#000000;stroke-linecap:square;stroke-linejoin:miter;stroke-width:0.8;"/>
   </g>
   <g id="patch_4">
    <path d="M 518.4 320.4 
L 518.4 43.2 
" style="fill:none;stroke:#000000;stroke-linecap:square;stroke-linejoin:miter;stroke-width:0.8;"/>
   </g>
   <g id="patch_5">
    <path d="M 72 320.4 
L 518.4 320.4 
" style="fill:none;stroke:#000000;stroke-linecap:square;stroke-linejoin:miter;stroke-width:0.8;"/>
   </g>
   <g id="patch_6">
    <path d="M 72 43.2 
L 518.4 43.2 
" style="fill:none;stroke:#000000;stroke-linecap:square;stroke-linejoin:miter;stroke-width:0.8;"/>
   </g>
   <g id="text_19">
    <!-- Front Propogation Speed -->
    <g transform="translate(172.245312 37.2)scale(0.2 -0.2)">
     <defs>
      <path d="M 628 4666 
L 3309 4666 
L 3309 4134 
L 1259 4134 
L 1259 2759 
L 3109 2759 
L 3109 2228 
L 1259 2228 
L 1259 0 
L 628 0 
L 628 4666 
z
" id="DejaVuSans-46" transform="scale(0.015625)"/>
      <path d="M 2631 2963 
Q 2534 3019 2420 3045 
Q 2306 3072 2169 3072 
Q 1681 3072 1420 2755 
Q 1159 2438 1159 1844 
L 1159 0 
L 581 0 
L 581 3500 
L 1159 3500 
L 1159 2956 
Q 1341 3275 1631 3429 
Q 1922 3584 2338 3584 
Q 2397 3584 2469 3576 
Q 2541 3569 2628 3553 
L 2631 2963 
z
" id="DejaVuSans-72" transform="scale(0.015625)"/>
      <path d="M 1172 4494 
L 1172 3500 
L 2356 3500 
L 2356 3053 
L 1172 3053 
L 1172 1153 
Q 1172 725 1289 603 
Q 1406 481 1766 481 
L 2356 481 
L 2356 0 
L 1766 0 
Q 1100 0 847 248 
Q 594 497 594 1153 
L 594 3053 
L 172 3053 
L 172 3500 
L 594 3500 
L 594 4494 
L 1172 4494 
z
" id="DejaVuSans-74" transform="scale(0.015625)"/>
      <path d="M 1259 4147 
L 1259 2394 
L 2053 2394 
Q 2494 2394 2734 2622 
Q 2975 2850 2975 3272 
Q 2975 3691 2734 3919 
Q 2494 4147 2053 4147 
L 1259 4147 
z
M 628 4666 
L 2053 4666 
Q 2838 4666 3239 4311 
Q 3641 3956 3641 3272 
Q 3641 2581 3239 2228 
Q 2838 1875 2053 1875 
L 1259 1875 
L 1259 0 
L 628 0 
L 628 4666 
z
" id="DejaVuSans-50" transform="scale(0.015625)"/>
      <path d="M 2906 1791 
Q 2906 2416 2648 2759 
Q 2391 3103 1925 3103 
Q 1463 3103 1205 2759 
Q 947 2416 947 1791 
Q 947 1169 1205 825 
Q 1463 481 1925 481 
Q 2391 481 2648 825 
Q 2906 1169 2906 1791 
z
M 3481 434 
Q 3481 -459 3084 -895 
Q 2688 -1331 1869 -1331 
Q 1566 -1331 1297 -1286 
Q 1028 -1241 775 -1147 
L 775 -588 
Q 1028 -725 1275 -790 
Q 1522 -856 1778 -856 
Q 2344 -856 2625 -561 
Q 2906 -266 2906 331 
L 2906 616 
Q 2728 306 2450 153 
Q 2172 0 1784 0 
Q 1141 0 747 490 
Q 353 981 353 1791 
Q 353 2603 747 3093 
Q 1141 3584 1784 3584 
Q 2172 3584 2450 3431 
Q 2728 3278 2906 2969 
L 2906 3500 
L 3481 3500 
L 3481 434 
z
" id="DejaVuSans-67" transform="scale(0.015625)"/>
      <path d="M 2194 1759 
Q 1497 1759 1228 1600 
Q 959 1441 959 1056 
Q 959 750 1161 570 
Q 1363 391 1709 391 
Q 2188 391 2477 730 
Q 2766 1069 2766 1631 
L 2766 1759 
L 2194 1759 
z
M 3341 1997 
L 3341 0 
L 2766 0 
L 2766 531 
Q 2569 213 2275 61 
Q 1981 -91 1556 -91 
Q 1019 -91 701 211 
Q 384 513 384 1019 
Q 384 1609 779 1909 
Q 1175 2209 1959 2209 
L 2766 2209 
L 2766 2266 
Q 2766 2663 2505 2880 
Q 2244 3097 1772 3097 
Q 1472 3097 1187 3025 
Q 903 2953 641 2809 
L 641 3341 
Q 956 3463 1253 3523 
Q 1550 3584 1831 3584 
Q 2591 3584 2966 3190 
Q 3341 2797 3341 1997 
z
" id="DejaVuSans-61" transform="scale(0.015625)"/>
     </defs>
     <use xlink:href="#DejaVuSans-46"/>
     <use x="50.269531" xlink:href="#DejaVuSans-72"/>
     <use x="89.132812" xlink:href="#DejaVuSans-6f"/>
     <use x="150.314453" xlink:href="#DejaVuSans-6e"/>
     <use x="213.693359" xlink:href="#DejaVuSans-74"/>
     <use x="252.902344" xlink:href="#DejaVuSans-20"/>
     <use x="284.689453" xlink:href="#DejaVuSans-50"/>
     <use x="343.242188" xlink:href="#DejaVuSans-72"/>
     <use x="382.105469" xlink:href="#DejaVuSans-6f"/>
     <use x="443.287109" xlink:href="#DejaVuSans-70"/>
     <use x="506.763672" xlink:href="#DejaVuSans-6f"/>
     <use x="567.945312" xlink:href="#DejaVuSans-67"/>
     <use x="631.421875" xlink:href="#DejaVuSans-61"/>
     <use x="692.701172" xlink:href="#DejaVuSans-74"/>
     <use x="731.910156" xlink:href="#DejaVuSans-69"/>
     <use x="759.693359" xlink:href="#DejaVuSans-6f"/>
     <use x="820.875" xlink:href="#DejaVuSans-6e"/>
     <use x="884.253906" xlink:href="#DejaVuSans-20"/>
     <use x="916.041016" xlink:href="#DejaVuSans-53"/>
     <use x="979.517578" xlink:href="#DejaVuSans-70"/>
     <use x="1042.994141" xlink:href="#DejaVuSans-65"/>
     <use x="1104.517578" xlink:href="#DejaVuSans-65"/>
     <use x="1166.041016" xlink:href="#DejaVuSans-64"/>
    </g>
   </g>
   <g id="legend_1">
    <g id="patch_7">
     <path d="M 334.875313 111.175687 
L 508.6 111.175687 
Q 511.4 111.175687 511.4 108.375687 
L 511.4 53 
Q 511.4 50.2 508.6 50.2 
L 334.875313 50.2 
Q 332.075312 50.2 332.075312 53 
L 332.075312 108.375687 
Q 332.075312 111.175687 334.875313 111.175687 
z
" style="fill:#ffffff;opacity:0.8;stroke:#cccccc;stroke-linejoin:miter;"/>
    </g>
    <g id="line2d_19">
     <path d="M 337.675313 61.537812 
L 365.675313 61.537812 
" style="fill:none;stroke:#ff0000;stroke-linecap:square;stroke-width:2;"/>
    </g>
    <g id="line2d_20"/>
    <g id="text_20">
     <!-- Front speed -->
     <g transform="translate(376.875313 66.437812)scale(0.14 -0.14)">
      <use xlink:href="#DejaVuSans-46"/>
      <use x="50.269531" xlink:href="#DejaVuSans-72"/>
      <use x="89.132812" xlink:href="#DejaVuSans-6f"/>
      <use x="150.314453" xlink:href="#DejaVuSans-6e"/>
      <use x="213.693359" xlink:href="#DejaVuSans-74"/>
      <use x="252.902344" xlink:href="#DejaVuSans-20"/>
      <use x="284.689453" xlink:href="#DejaVuSans-73"/>
      <use x="336.789062" xlink:href="#DejaVuSans-70"/>
      <use x="400.265625" xlink:href="#DejaVuSans-65"/>
      <use x="461.789062" xlink:href="#DejaVuSans-65"/>
      <use x="523.3125" xlink:href="#DejaVuSans-64"/>
     </g>
    </g>
    <g id="line2d_21">
     <path d="M 337.675313 91.381437 
L 365.675313 91.381437 
" style="fill:none;stroke:#000000;stroke-dasharray:5.55,2.4;stroke-dashoffset:0;stroke-width:1.5;"/>
    </g>
    <g id="line2d_22"/>
    <g id="text_21">
     <!-- Steady state -->
     <g transform="translate(376.875313 86.987187)scale(0.14 -0.14)">
      <defs>
       <path d="M 2059 -325 
Q 1816 -950 1584 -1140 
Q 1353 -1331 966 -1331 
L 506 -1331 
L 506 -850 
L 844 -850 
Q 1081 -850 1212 -737 
Q 1344 -625 1503 -206 
L 1606 56 
L 191 3500 
L 800 3500 
L 1894 763 
L 2988 3500 
L 3597 3500 
L 2059 -325 
z
" id="DejaVuSans-79" transform="scale(0.015625)"/>
      </defs>
      <use xlink:href="#DejaVuSans-53"/>
      <use x="63.476562" xlink:href="#DejaVuSans-74"/>
      <use x="102.685547" xlink:href="#DejaVuSans-65"/>
      <use x="164.208984" xlink:href="#DejaVuSans-61"/>
      <use x="225.488281" xlink:href="#DejaVuSans-64"/>
      <use x="288.964844" xlink:href="#DejaVuSans-79"/>
      <use x="348.144531" xlink:href="#DejaVuSans-20"/>
      <use x="379.931641" xlink:href="#DejaVuSans-73"/>
      <use x="432.03125" xlink:href="#DejaVuSans-74"/>
      <use x="471.240234" xlink:href="#DejaVuSans-61"/>
      <use x="532.519531" xlink:href="#DejaVuSans-74"/>
      <use x="571.728516" xlink:href="#DejaVuSans-65"/>
     </g>
     <!-- speed = 0.4 mm/s -->
     <g transform="translate(376.875313 102.664125)scale(0.14 -0.14)">
      <defs>
       <path d="M 678 2906 
L 4684 2906 
L 4684 2381 
L 678 2381 
L 678 2906 
z
M 678 1631 
L 4684 1631 
L 4684 1100 
L 678 1100 
L 678 1631 
z
" id="DejaVuSans-3d" transform="scale(0.015625)"/>
      </defs>
      <use xlink:href="#DejaVuSans-73"/>
      <use x="52.099609" xlink:href="#DejaVuSans-70"/>
      <use x="115.576172" xlink:href="#DejaVuSans-65"/>
      <use x="177.099609" xlink:href="#DejaVuSans-65"/>
      <use x="238.623047" xlink:href="#DejaVuSans-64"/>
      <use x="302.099609" xlink:href="#DejaVuSans-20"/>
      <use x="333.886719" xlink:href="#DejaVuSans-3d"/>
      <use x="417.675781" xlink:href="#DejaVuSans-20"/>
      <use x="449.462891" xlink:href="#DejaVuSans-30"/>
      <use x="513.085938" xlink:href="#DejaVuSans-2e"/>
      <use x="544.873047" xlink:href="#DejaVuSans-34"/>
      <use x="608.496094" xlink:href="#DejaVuSans-20"/>
      <use x="640.283203" xlink:href="#DejaVuSans-6d"/>
      <use x="737.695312" xlink:href="#DejaVuSans-6d"/>
      <use x="835.107422" xlink:href="#DejaVuSans-2f"/>
      <use x="868.798828" xlink:href="#DejaVuSans-73"/>
     </g>
    </g>
   </g>
  </g>
 </g>
 <defs>
  <clipPath id="p55993fd838">
   <rect height="277.2" width="446.4" x="72" y="43.2"/>
  </clipPath>
 </defs>
</svg>
